
<svg version="1.1" id="Layer_1" xmlns="http://www.w3.org/2000/svg" xmlns:xlink="http://www.w3.org/1999/xlink" viewBox="0 0 768 430" enable-background="new 0 0 768 430" xml:space="preserve">
<g id="layer1" transform="translate(135.38 -23.249)">
	<path id="path3796" fill="#502D16" stroke="#000000" stroke-width="0.3894" d="M117.387,209.687
		c0.401-0.638,3.984-0.155,4.87,1.316c1.362,2.261,0.376,6.061-1.559,7.819c-2.732,2.484-7.053,2.896-10.895,0.863
		c-8.761-4.635-11.312-15.912-7.172-24.495c6.042-12.531,21.738-15.628,33.145-9.344c10.406,5.732,16.197,17.757,15.598,29.74
		l0.012-0.224c0,0-8.232,60.692-9.56,69.422c-11.563,76.003,77.739,100.847,90.28,76.583c19.495-37.722-84.794,10.926-68.292-87.003
		c5.287-31.396,6.775-28.579,8.627-52.803c1.854-24.227-9.913-41.381-25.501-50.496c-19.567-10.78-46.493-5.468-56.858,16.028
		c-7.1,14.723-3.108,34.891,12.305,42.019c9.801,4.534,23.208,1.464,27.309-9.673c2.334-6.342,0.226-15.096-6.765-17.092
		c-3.322-0.949-9.449,0.183-9.916,3.785c-0.252,1.949,2.117,5.249,4.653,3.428"/>
	<path id="path2987" fill="#502D16" stroke="#000000" stroke-width="0.3894" stroke-linecap="round" d="M365.825,73.182
		c-0.815,4.531-6.932,6.121-11.23,14.637c20.976,41.63,39.291,46.096,25.928,83.006c-4.182,11.557-29.093,38.917-42.171,32.535
		c-15.019-7.324-23.938-9.636-28.653-8.687c-11.815-7.82-25.221-12.24-39.422-12.24c-15.8,0-30.603,5.477-43.34,15.015
		c-2.828,0.184-59.478,4.437-84.879,50.96c-26.055,47.715-18.438,119.616-14.625,128.767c3.813,9.152,7.635,22.219,17.168,8.494
		c9.53-13.727-13.461-69.754,3.174-105.235c11.562-24.663,30.262-47.212,47.501-41.942c-7.201,16.22-11.315,35.003-11.315,55.021
		c0,61.338,38.646,111.063,86.316,111.063s86.315-49.726,86.315-111.063c0-17.67-3.214-34.376-8.918-49.208
		c9.594-6.754,24.869-19.833,44.106-44.203C414.483,171.338,422.726,124.675,365.825,73.182L365.825,73.182z"/>
	<path id="path2993" fill="#502D16" stroke="#000000" stroke-width="0.3894" stroke-linecap="round" d="M201.225,135.534
		c0,18.349-14.875,33.222-33.223,33.222c-18.349,0-33.223-14.874-33.223-33.222c0-18.348,14.874-33.223,33.223-33.223
		C186.35,102.311,201.225,117.185,201.225,135.534z"/>
	<path id="path2995" fill="#502D16" stroke="#000000" stroke-width="0.3894" stroke-linecap="round" d="M404.47,135.534
		c0,18.349-14.873,33.222-33.224,33.222c-18.35,0-33.223-14.874-33.223-33.222c0-18.348,14.873-33.223,33.223-33.223
		C389.597,102.311,404.47,117.185,404.47,135.534z"/>
	<path id="path3010" fill="#A05A2C" stroke="#000000" stroke-width="0.3894" stroke-linecap="round" d="M201.278,136.088
		c0,13.341-10.814,24.155-24.155,24.155c-13.341,0-24.156-10.814-24.156-24.155s10.815-24.155,24.156-24.155
		C190.464,111.933,201.278,122.747,201.278,136.088z"/>
	<path id="path3015" fill="#A05A2C" stroke="#000000" stroke-width="0.3894" stroke-linecap="round" d="M386.612,136.088
		c0,13.341-10.815,24.155-24.156,24.155c-13.342,0-24.157-10.814-24.157-24.155s10.815-24.155,24.157-24.155
		S386.612,122.747,386.612,136.088z"/>
	<path id="path2989" fill="#502D16" stroke="#000000" stroke-width="0.3894" stroke-linecap="round" d="M353.58,134.883
		c0,39.575-37.477,71.657-83.707,71.657s-83.709-32.082-83.709-71.657c0-39.574,37.478-71.657,83.709-71.657
		C316.103,63.227,353.58,95.309,353.58,134.883z"/>
	<path id="path4641" fill="#A05A2C" stroke="#000000" stroke-width="0.1168" stroke-linecap="round" stroke-linejoin="round" d="
		M328.782,309.867c0,39.941-25.572,72.32-57.119,72.32c-31.546,0-57.118-32.378-57.118-72.32c0-39.94,25.571-72.318,57.118-72.318
		C303.209,237.549,328.782,269.928,328.782,309.867z"/>
	<path id="path2997" fill="#502D16" stroke="#000000" stroke-width="0.3894" stroke-linecap="round" d="M216.973,326.512
		c9.001,31.506-0.41,61.615-21.021,67.252c-20.612,5.635-44.616-15.338-53.618-46.844c-9.001-31.508,0.412-61.618,21.021-67.254
		C183.968,274.03,207.972,295.005,216.973,326.512z"/>
	<path id="path2999" fill="#502D16" stroke="#000000" stroke-width="0.3894" stroke-linecap="round" d="M326.418,326.512
		c-10,31.506-1.542,61.615,18.891,67.252c20.434,5.635,45.102-15.338,55.101-46.844c9.999-31.508,1.541-61.618-18.891-67.254
		C361.085,274.03,336.417,295.005,326.418,326.512z"/>
	<path id="path3001" fill="#A05A2C" stroke="#000000" stroke-width="0.3894" stroke-linecap="round" d="M324.156,164.396
		c0,22.126-24.205,40.062-54.064,40.062c-29.861,0-54.066-17.936-54.066-40.062c0-22.126,24.208-40.062,54.066-40.062
		C299.952,124.335,324.156,142.272,324.156,164.396z"/>
	<path id="path3008" fill="#FFFFFF" stroke="#000000" stroke-width="1.0785" d="M253.87,75.448
		c-7.972,0.002-16.256,10.132-19.735,17.765c-3.772,8.271-4.737,21.228,2.129,27.188c7.084,6.148,22.261,5.59,28.096-1.755
		c8.939-11.253,6.226-37.14-7.097-42.528c-1.111-0.45-2.252-0.671-3.392-0.671L253.87,75.448L253.87,75.448z M285.712,75.448
		c-1.139,0-2.281,0.221-3.393,0.67c-13.323,5.389-16.037,31.275-7.098,42.53c5.837,7.344,21.012,7.903,28.097,1.754
		c6.865-5.959,5.9-18.917,2.13-27.189c-3.48-7.631-11.766-17.762-19.736-17.764V75.448L285.712,75.448z"/>
	<path id="path3013" stroke="#000000" stroke-width="0.4685" d="M260.692,92.283c-3.463,0.001-7.065,4.394-8.578,7.709
		c-1.637,3.594-2.055,9.222,0.928,11.81c3.077,2.67,9.671,2.44,12.203-0.75c3.884-4.887,2.692-16.134-3.095-18.474
		C261.669,92.384,261.186,92.283,260.692,92.283L260.692,92.283z M278.831,92.283c-0.497,0-0.977,0.101-1.459,0.296
		c-5.787,2.341-6.979,13.585-3.097,18.474c2.534,3.19,9.128,3.42,12.205,0.75c2.982-2.588,2.565-8.217,0.928-11.81
		C285.896,96.678,282.293,92.285,278.831,92.283L278.831,92.283z"/>
	<path id="path3016" fill="#502D16" stroke="#000000" stroke-width="0.4162" d="M152.396,399.759c0,0-3.72-20.193,33.485-20.845
		c37.204-0.651,35.716,19.543,35.716,19.543s-24.555,11.725-69.201,1.304V399.759z"/>
	<path id="path3018" fill="#502D16" stroke="#000000" stroke-width="0.4162" d="M386.59,399.759c0,0,3.721-20.193-33.483-20.845
		c-37.206-0.651-35.717,19.543-35.717,19.543s24.555,11.725,69.2,1.304V399.759z"/>
	
		<linearGradient id="path3020_1_" gradientUnits="userSpaceOnUse" x1="38.7303" y1="429.2216" x2="46.8408" y2="450.411" gradientTransform="matrix(1 0 0 1 200.5874 -282.7901)">
		<stop  offset="0" style="stop-color:#4A4A4A"/>
		<stop  offset="0.5" style="stop-color:#333333;stop-opacity:0.498"/>
		<stop  offset="1" style="stop-color:#333333;stop-opacity:0"/>
	</linearGradient>
	<path id="path3020" fill="url(#path3020_1_)" d="M238.178,166.745c-1.743-3.114-1.939-8.018-0.412-11.548
		c2.548-5.889,13.017-5.439,13.777,3.48c4.067-10.193-10.402-13.88-14.712-6.768C234.664,155.484,233.493,162.54,238.178,166.745
		L238.178,166.745z"/>
	
		<linearGradient id="path3802_1_" gradientUnits="userSpaceOnUse" x1="117.2948" y1="429.2216" x2="125.4055" y2="450.4115" gradientTransform="matrix(-1 0 0 1 419.6804 -282.7901)">
		<stop  offset="0" style="stop-color:#4A4A4A"/>
		<stop  offset="0.5" style="stop-color:#333333;stop-opacity:0.498"/>
		<stop  offset="1" style="stop-color:#333333;stop-opacity:0"/>
	</linearGradient>
	<path id="path3802" fill="url(#path3802_1_)" d="M303.524,166.745c1.744-3.114,1.939-8.018,0.413-11.548
		c-2.549-5.889-13.018-5.439-13.777,3.48c-4.065-10.193,10.403-13.88,14.712-6.768C307.039,155.484,308.211,162.54,303.524,166.745
		L303.524,166.745z"/>
	<path id="path3832" fill="none" stroke="#FF0000" stroke-width="1.1681" stroke-linecap="round" stroke-linejoin="round" d="
		M259.62,179.464c0,0-1.414,9.628,11.57,9.628c12.799,0,11.445-9.449,11.445-9.449"/>
	<path id="path3017" fill="#A05A2C" stroke="#000000" stroke-width="0.3894" d="M125.131,366.982c0,0-2.533,4.146-3.685,13.819
		c-1.152,9.672-2.089,22.493,3.915,22.571c6.005,0.077,5.067-3.916,5.067-3.916s-0.691,4.605,5.067,4.146
		c5.758-0.461,5.067-3.915,5.067-3.915s-1.612,3.226,5.297,2.994c4.855-0.162,3.224-13.818,3.224-13.818s6.218,5.527,6.909-8.753
		c0.419-8.659-9.672-15.2-9.672-15.2S136.185,358.922,125.131,366.982L125.131,366.982z"/>
	<path id="path3019" fill="#A05A2C" stroke="#000000" stroke-width="0.3894" d="M337.032,50.18
		c6.391,1.732,30.192,21.436,30.394,25.807c0.204,4.371-11.188,13.147-11.188,13.147s-9.146,0.078-13.854-2.804
		c-4.708-2.881-12.069-10.142-17.184-3.695c-7.049,8.885-13.017,5.917-12.284,2.393c0.691-3.331,1.795-9.285,8.019-11.564
		s18.521-1.593,16.748-2.321c-2.945-1.208-22.768-1.178-23.592,1.202c-4.152,12.009-15.953,8.942-12.947,4.191
		s2.187-11.056,8.596-12.046c6.41-0.991,15.03-2.634,15.03-2.634s-21.179-1.621-21.827,2.408
		c-1.636,10.191-12.525,11.19-11.563,6.851c1-4.523,4.35-15.788,10.913-17.435c6.494-1.63,12.199-2.462,16.92-3.711
		C323.934,48.72,330.642,48.446,337.032,50.18L337.032,50.18z"/>
</g>
</svg>
