
<svg version="1.1" id="Layer_1" xmlns="http://www.w3.org/2000/svg" xmlns:xlink="http://www.w3.org/1999/xlink" viewBox="0 0 768 430" enable-background="new 0 0 768 430" xml:space="preserve">
<g id="layer1" transform="translate(135.38 -23.249)">
	<path id="path3796" fill="#502D16" stroke="#000000" stroke-width="0.4401" d="M92.387,216.287c0.453-0.72,4.503-0.174,5.504,1.488
		c1.539,2.555,0.426,6.85-1.762,8.838c-3.088,2.808-7.972,3.273-12.314,0.976c-9.903-5.239-12.786-17.985-8.107-27.687
		c6.83-14.164,24.571-17.664,37.464-10.561c11.762,6.479,18.307,20.071,17.63,33.615l0.014-0.253c0,0-9.305,68.601-10.806,78.468
		c-13.07,85.905,87.868,113.986,102.043,86.561c22.036-42.636-95.842,12.349-77.191-98.338c5.976-35.488,7.658-32.303,9.752-59.684
		c2.095-27.383-11.205-46.773-28.824-57.075c-22.117-12.185-52.551-6.181-64.266,18.116c-8.025,16.641-3.514,39.437,13.908,47.494
		c11.078,5.124,26.232,1.655,30.867-10.934c2.639-7.168,0.255-17.063-7.646-19.319c-3.755-1.072-10.68,0.207-11.207,4.279
		c-0.285,2.203,2.393,5.932,5.259,3.874"/>
	<path id="path2987" fill="#502D16" stroke="#000000" stroke-width="0.4401" stroke-linecap="round" d="M373.196,61.997
		c-0.923,5.121-7.836,6.919-12.694,16.544c23.708,47.054,44.409,52.102,29.306,93.822c-4.727,13.062-32.884,43.987-47.666,36.774
		c-16.975-8.278-27.056-10.892-32.386-9.819c-13.356-8.839-28.507-13.835-44.559-13.835c-17.859,0-34.59,6.191-48.987,16.971
		c-3.197,0.208-67.228,5.015-95.939,57.599c-29.45,53.932-20.84,135.203-16.53,145.545c4.31,10.344,8.63,25.114,19.405,9.6
		c10.772-15.514-15.215-78.842,3.587-118.947c13.069-27.875,34.205-53.364,53.69-47.406c-8.139,18.333-12.79,39.564-12.79,62.189
		c0,69.331,43.681,125.535,97.563,125.535s97.562-56.204,97.562-125.535c0-19.971-3.632-38.853-10.08-55.619
		c10.843-7.634,28.109-22.416,49.853-49.962c25.662-32.511,34.98-85.254-29.334-143.456H373.196z"/>
	<path id="path2993" fill="#502D16" stroke="#000000" stroke-width="0.4401" stroke-linecap="round" d="M187.149,132.473
		c0,20.739-16.813,37.551-37.552,37.551c-20.739,0-37.551-16.812-37.551-37.551s16.812-37.551,37.551-37.551
		C170.336,94.921,187.149,111.733,187.149,132.473z"/>
	<path id="path2995" fill="#502D16" stroke="#000000" stroke-width="0.4401" stroke-linecap="round" d="M416.875,132.473
		c0,20.739-16.812,37.551-37.552,37.551s-37.552-16.812-37.552-37.551s16.812-37.551,37.552-37.551S416.875,111.733,416.875,132.473
		z"/>
	<path id="path3010" fill="#A05A2C" stroke="#000000" stroke-width="0.4401" stroke-linecap="round" d="M187.209,133.099
		c0,15.079-12.224,27.303-27.303,27.303s-27.303-12.224-27.303-27.303s12.224-27.303,27.303-27.303S187.209,118.02,187.209,133.099z
		"/>
	<path id="path3015" fill="#A05A2C" stroke="#000000" stroke-width="0.4401" stroke-linecap="round" d="M396.69,133.099
		c0,15.079-12.224,27.303-27.303,27.303c-15.08,0-27.304-12.224-27.304-27.303s12.224-27.303,27.304-27.303
		C384.467,105.796,396.69,118.02,396.69,133.099z"/>
	<path id="path2989" fill="#502D16" stroke="#000000" stroke-width="0.4401" stroke-linecap="round" d="M359.355,131.737
		c0,44.731-42.36,80.994-94.614,80.994c-52.254,0-94.615-36.262-94.615-80.994c0-44.731,42.36-80.994,94.615-80.994
		C316.995,50.744,359.355,87.006,359.355,131.737z"/>
	<path id="path4641" fill="#A05A2C" stroke="#000000" stroke-width="0.132" stroke-linecap="round" stroke-linejoin="round" d="
		M331.326,329.521c0,45.145-28.904,81.742-64.561,81.742c-35.656,0-64.561-36.596-64.561-81.742
		c0-45.145,28.904-81.741,64.561-81.741C302.421,247.78,331.326,284.377,331.326,329.521z"/>
	<path id="path2997" fill="#502D16" stroke="#000000" stroke-width="0.4401" stroke-linecap="round" d="M204.949,348.333
		c10.174,35.611-0.464,69.645-23.76,76.015c-23.298,6.369-50.43-17.336-60.604-52.948c-10.174-35.612,0.465-69.646,23.76-76.015
		C167.643,289.015,194.775,312.722,204.949,348.333z"/>
	<path id="path2999" fill="#502D16" stroke="#000000" stroke-width="0.4401" stroke-linecap="round" d="M328.653,348.333
		c-11.303,35.611-1.742,69.645,21.352,76.015c23.096,6.369,50.979-17.336,62.281-52.948c11.302-35.612,1.741-69.646-21.353-76.015
		C367.838,289.015,339.955,312.722,328.653,348.333z"/>
	<path id="path3001" fill="#A05A2C" stroke="#000000" stroke-width="0.4401" stroke-linecap="round" d="M326.098,165.096
		c0,25.009-27.36,45.281-61.11,45.281c-33.751,0-61.11-20.273-61.11-45.281c0-25.009,27.361-45.281,61.11-45.281
		C298.739,119.815,326.098,140.089,326.098,165.096z"/>
	<path id="path3008" fill="#FFFFFF" stroke="#000000" stroke-width="1.219" d="M246.653,64.558
		c-9.01,0.003-18.374,11.453-22.307,20.079c-4.263,9.35-5.354,23.995,2.407,30.731c8.007,6.949,25.161,6.318,31.756-1.984
		c10.105-12.719,7.037-41.979-8.022-48.07c-1.255-0.508-2.545-0.758-3.833-0.758V64.558z M282.643,64.558
		c-1.287,0-2.577,0.25-3.833,0.758c-15.06,6.09-18.127,35.35-8.023,48.071c6.596,8.301,23.75,8.933,31.757,1.983
		c7.761-6.735,6.67-21.381,2.407-30.731c-3.934-8.626-13.298-20.076-22.308-20.079V64.558z"/>
	<path id="path3013" stroke="#000000" stroke-width="0.5295" d="M254.364,83.587c-3.914,0.001-7.986,4.966-9.695,8.713
		c-1.851,4.062-2.323,10.423,1.048,13.349c3.478,3.018,10.93,2.758,13.794-0.847c4.389-5.524,3.042-18.236-3.498-20.881
		C255.468,83.701,254.923,83.587,254.364,83.587L254.364,83.587z M274.866,83.587c-0.56,0-1.104,0.114-1.649,0.334
		c-6.541,2.646-7.888,15.356-3.499,20.881c2.864,3.605,10.317,3.865,13.795,0.847c3.371-2.926,2.899-9.288,1.048-13.349
		C282.852,88.554,278.779,83.589,274.866,83.587L274.866,83.587z"/>
	<path id="path3016" fill="#502D16" stroke="#000000" stroke-width="0.4704" d="M131.959,431.124c0,0-4.205-22.824,37.847-23.561
		c42.052-0.736,40.37,22.089,40.37,22.089s-27.754,13.253-78.217,1.474L131.959,431.124z"/>
	<path id="path3018" fill="#502D16" stroke="#000000" stroke-width="0.4704" d="M396.666,431.124c0,0,4.205-22.824-37.847-23.561
		c-42.053-0.736-40.37,22.089-40.37,22.089s27.755,13.253,78.216,1.474L396.666,431.124z"/>
	
		<linearGradient id="path3020_1_" gradientUnits="userSpaceOnUse" x1="127.9984" y1="108.1689" x2="137.1655" y2="84.2191" gradientTransform="matrix(1 0 0 -1 102.2075 252.9589)">
		<stop  offset="0" style="stop-color:#4A4A4A"/>
		<stop  offset="0.5" style="stop-color:#333333;stop-opacity:0.498"/>
		<stop  offset="1" style="stop-color:#333333;stop-opacity:0"/>
	</linearGradient>
	<path id="path3020" fill="url(#path3020_1_)" d="M228.917,167.75c-1.971-3.519-2.193-9.063-0.466-13.053
		c2.88-6.656,14.714-6.148,15.572,3.934c4.597-11.521-11.758-15.689-16.629-7.65C224.945,155.022,223.621,162.997,228.917,167.75
		L228.917,167.75z"/>
	
		<linearGradient id="path3802_1_" gradientUnits="userSpaceOnUse" x1="289.5692" y1="108.1679" x2="298.7366" y2="84.2175" gradientTransform="matrix(-1 0 0 -1 591.0603 252.9589)">
		<stop  offset="0" style="stop-color:#4A4A4A"/>
		<stop  offset="0.5" style="stop-color:#333333;stop-opacity:0.498"/>
		<stop  offset="1" style="stop-color:#333333;stop-opacity:0"/>
	</linearGradient>
	<path id="path3802" fill="url(#path3802_1_)" d="M302.777,167.75c1.972-3.519,2.193-9.063,0.467-13.053
		c-2.881-6.656-14.714-6.148-15.572,3.934c-4.596-11.521,11.759-15.689,16.629-7.65C306.75,155.022,308.074,162.997,302.777,167.75
		L302.777,167.75z"/>
	<path id="path3832" fill="none" stroke="#FF0000" stroke-width="1.3203" stroke-linecap="round" stroke-linejoin="round" d="
		M253.153,182.127c0,0-1.6,10.883,13.076,10.883c14.468,0,12.938-10.68,12.938-10.68"/>
	<path id="path3017" fill="#A05A2C" stroke="#000000" stroke-width="0.4401" d="M101.14,394.078c0,0-2.863,4.686-4.165,15.619
		s-2.361,25.424,4.425,25.512c6.787,0.088,5.727-4.426,5.727-4.426s-0.781,5.206,5.727,4.686c6.508-0.521,5.727-4.425,5.727-4.425
		s-1.822,3.645,5.987,3.384c5.488-0.183,3.645-15.619,3.645-15.619s7.028,6.248,7.809-9.893
		c0.474-9.788-10.933-17.181-10.933-17.181S113.635,384.967,101.14,394.078L101.14,394.078z"/>
	<path id="path3019" fill="#A05A2C" stroke="#000000" stroke-width="0.4401" d="M340.651,35.997
		c7.223,1.958,34.125,24.229,34.354,29.17c0.23,4.941-12.646,14.86-12.646,14.86s-10.338,0.088-15.659-3.169
		c-5.322-3.257-13.643-11.463-19.423-4.177c-7.967,10.042-14.713,6.687-13.885,2.705c0.782-3.765,2.03-10.495,9.064-13.071
		c7.034-2.576,20.934-1.8,18.93-2.623c-3.328-1.366-25.734-1.332-26.665,1.358c-4.694,13.574-18.033,10.107-14.634,4.737
		c3.397-5.371,2.471-12.497,9.716-13.616c7.244-1.12,16.987-2.977,16.987-2.977s-23.938-1.832-24.67,2.721
		c-1.85,11.519-14.157,12.649-13.071,7.744c1.132-5.112,4.917-17.845,12.336-19.707c7.34-1.842,13.788-2.782,19.124-4.194
		C325.847,34.347,333.429,34.038,340.651,35.997L340.651,35.997z"/>
</g>
</svg>
