<?xml version="1.0" encoding="utf-8"?>
<!-- Generator: Adobe Illustrator 16.0.0, SVG Export Plug-In . SVG Version: 6.00 Build 0)  -->
<!DOCTYPE svg PUBLIC "-//W3C//DTD SVG 1.1//EN" "http://www.w3.org/Graphics/SVG/1.1/DTD/svg11.dtd">
<svg version="1.1" id="Layer_2" xmlns="http://www.w3.org/2000/svg" xmlns:xlink="http://www.w3.org/1999/xlink" x="0px" y="0px"
	 width="768px" height="430px" viewBox="0 0 768 430" enable-background="new 0 0 768 430" xml:space="preserve">
<g>
	<g>
		<g>
			<g>
				<path fill="#935212" d="M419.904,350.525c0,0,30.436-2.845,54.523,6.505c3.878,1.631,6.932-2.174,5.541-5.894
					s-15.567-20.637-16.333-21.152c-3.713-1.781-44.525-10.573-52.911-1.847c-7.896,3.527-7.93,13.58-8.1,17.575
					S419.904,350.525,419.904,350.525z"/>
				<path fill="#A06020" d="M465.174,349.541c-7.452-1.036-14.781-3.308-22.61-2.768c-4.554,0.059-9.878-0.986-13.038-3.868
					c-17.573-2.112-15.768-10.364-17.184-14.802c8.504-8.599,47.595,0.107,51.294,1.881c0.569,0.384,8.552,9.832,13.181,16.184
					C473.606,349.079,469.264,350.402,465.174,349.541z"/>
				<path fill="#AB6E2B" d="M463.094,339.505c0.857,1.699,1.803,3.994,0.103,4.852c-1.699,0.857-3.739,1.461-5.402,0.487
					c-6.567-3.295-13.241-1.1-19.466-4.142c-4.652-2.127-16.804-10.084-16.449-15.416c9.923-3.582,30.4,2.036,37.196,3.442
					C459.406,332.661,461.766,335.784,463.094,339.505z"/>
				<path fill="#632B00" d="M474.318,357.311c-23.743-9.216-54.082-6.514-54.386-6.485l-0.042,0.001
					c-1.816-0.085-17.743-0.952-17.566-5.126l0.022-0.553c0.172-4.48,0.531-13.792,8.202-17.261c1.615-1.65,4.461-2.784,8.456-3.37
					c14.897-2.185,41.745,3.75,44.761,5.196l0.038,0.022c0.725,0.487,15.015,17.462,16.447,21.296
					c0.58,1.551,0.459,3.206-0.331,4.542c-0.68,1.15-1.792,1.916-3.052,2.102C476.039,357.796,475.179,357.673,474.318,357.311z
					 M419.093,325.112c-3.896,0.571-6.638,1.659-8.151,3.234l-0.04,0.042l-0.054,0.024c-7.382,3.297-7.731,12.389-7.899,16.758
					l-0.022,0.555c-0.129,3.026,12.188,4.271,16.973,4.498c0.963-0.085,31.027-2.638,54.646,6.529
					c0.766,0.321,1.519,0.432,2.237,0.326c1.079-0.158,2.034-0.818,2.621-1.812c0.696-1.178,0.8-2.646,0.285-4.024
					c-1.396-3.73-15.315-20.286-16.207-20.998C460.37,328.79,433.845,322.949,419.093,325.112z"/>
			</g>
		</g>
	</g>
	<path fill="#7D5235" d="M492.467,331.005c2.08-0.827,4.281,0.16,4.303,0.171l0.251-0.548
		C493.792,329.619,492.467,331.005,492.467,331.005z"/>
	<g>
		<path fill="#F9A369" d="M478.667,355.89c0,0,9.885,17.943,30.965,0.071c2.83,4.251,8.788,10.51,17.378,7.475
			c5.489-2.121,10.955-13.303,3.639-18.146c6.641-0.203,14.555-11.354,3.611-19.534c3.72-3.244,4.965-13.277-4.477-18.239
			c-9.44-4.963-27.646-9.075-40.553,10.13c-7.35,4.511-14.355,6.534-14.355,6.534L478.667,355.89z"/>
		<path fill="#FAC480" d="M478.667,355.89c0,0,9.315,12.993,30.396-4.879c2.83,4.251,9.192,12.754,17.782,9.719
			c5.489-2.122,11.12-10.597,3.804-15.44c6.641-0.203,14.555-11.354,3.611-19.534c3.72-3.244,4.965-13.277-4.477-18.239
			c-9.44-4.963-27.646-9.075-40.553,10.13c-7.35,4.511-14.355,6.534-14.355,6.534L478.667,355.89z"/>
		<path fill="#FADE9B" d="M480.347,352.947c0,0,7.636,12.092,28.716-5.78c2.83,4.251,10.76,12.047,16.377,10.681
			c5.49-2.122,8.921-7.766,1.605-12.608c6.64-0.203,16.451-9.736,7.215-19.484c3.72-3.244,4.965-13.277-4.477-18.239
			c-9.44-4.963-27.646-9.075-40.553,10.13c-7.35,4.511-14.355,6.534-14.355,6.534L480.347,352.947z"/>
		<path fill="#FDF2D7" d="M527.146,309.85c-8.286-3.788-17.688-4.595-26.743-3.01c10.809-6.148,22.454-2.966,29.381,0.676
			c5.427,2.853,7.319,7.379,7.244,11.33C534.851,314.823,531.229,311.568,527.146,309.85z"/>
		<path fill="#7D5235" d="M478.403,356.035l-0.028-0.052l-3.829-32.022l0.246-0.071c0.069-0.02,7.014-2.052,14.226-6.467
			c9.777-14.506,22.238-15.464,30.976-13.712c4.276,0.857,7.761,2.397,9.93,3.538c4.234,2.226,6.837,5.764,7.329,9.963
			c0.385,3.285-0.624,6.65-2.525,8.521c4.438,3.447,6.184,7.931,4.79,12.348c-1.199,3.798-4.628,6.909-8.047,7.435
			c2.244,1.797,3.288,4.461,2.948,7.589c-0.485,4.484-3.762,9.245-7.309,10.617c-2.369,0.836-4.71,1.032-6.959,0.581
			c-0.001,0-0.002,0-0.002-0.001c-5.16-1.035-8.78-5.27-10.579-7.895c-7.388,6.19-14.229,8.708-20.337,7.482
			C482.007,362.439,478.438,356.099,478.403,356.035z M509.882,355.794c1.675,2.515,5.251,6.887,10.386,7.917c0,0,0,0,0.001,0.001
			c2.141,0.429,4.375,0.241,6.633-0.557c3.294-1.272,6.462-5.906,6.919-10.117c0.244-2.251-0.137-5.379-3.338-7.498l-0.789-0.522
			l0.946-0.029c3.435-0.105,7.081-3.219,8.303-7.09c0.788-2.498,1.205-7.367-4.863-11.902l-0.298-0.223l0.28-0.245
			c1.932-1.685,2.973-4.998,2.593-8.246c-0.469-3.996-2.958-7.37-7.011-9.501c-2.135-1.122-5.562-2.637-9.769-3.48
			c-8.568-1.718-20.797-0.769-30.395,13.513l-0.037,0.054l-0.056,0.034c-6.534,4.011-12.874,6.087-14.184,6.492l3.754,31.399
			c0.341,0.582,3.769,6.178,10.393,7.505c5.989,1.202,12.747-1.345,20.087-7.566l0.258-0.219L509.882,355.794z"/>
		<path fill="#F9A369" d="M486.132,356.084c0,0-4.819,4.95-10.326,1.692c-6.032-3.567-11.969-11.278-13.579-18.996
			c-2.354-13.772,1.909-37.064,16.548-40.677c14.64-3.611,19.663,3.986,16.868,14.864c-2.44,9.106-12.361,12.008-12.361,12.008
			c6.716,1.347,11.374,10.92,5.339,22.452L486.132,356.084z"/>
		<path fill="#FAC480" d="M486.132,356.084c0,0-3.59,3.854-9.097,0.596c-6.031-3.568-10.185-9.921-11.795-17.638
			c-2.354-13.773-1.104-37.326,13.534-40.938c14.64-3.611,19.663,3.986,16.868,14.864c-2.44,9.106-12.361,12.008-12.361,12.008
			c6.716,1.347,11.374,10.92,5.339,22.452L486.132,356.084z"/>
		<path fill="#FADE9B" d="M486.132,356.084c0,0-3.337,2.174-8.844-1.084c-6.031-3.568-7.819-8.392-9.43-16.109
			c-2.354-13.772-3.723-37.175,10.916-40.787c14.64-3.611,19.663,3.986,16.868,14.864c-2.44,9.106-12.361,12.008-12.361,12.008
			c6.716,1.347,11.374,10.92,5.339,22.452c0,0,0.206,2.71,0.004,3.583C488.305,352.388,486.132,356.084,486.132,356.084z"/>
		<path fill="#FDF2D7" d="M489.075,300.67c-3.593-1.711-9.833-1.2-13.872-1.13c1.068-0.624,2.255-1.111,3.571-1.437
			c14.64-3.611,19.663,3.986,16.868,14.864c-0.208,0.777-0.475,1.506-0.781,2.194C495.549,306.179,494.179,303.222,489.075,300.67z"
			/>
		<path fill="#7D5235" d="M478.282,359.06c1.164,0.234,2.272,0.183,3.278-0.024c2.906-0.596,4.571-2.951,4.571-2.951
			c-0.199,0.186-4.931,4.535-10.173,1.434c-6.29-3.721-11.941-11.627-13.438-18.799c-1.255-7.346-0.53-16.544,1.894-23.994
			c2.06-6.332,6.236-14.307,14.432-16.328c6.723-1.659,11.785-1.012,14.641,1.871c2.615,2.642,3.277,7.125,1.864,12.625
			c-2.366,8.829-12.058,11.765-12.154,11.794l-1.173,0.344l1.198,0.24c2.716,0.545,5.092,2.569,6.517,5.558
			c2.285,4.786,1.8,10.964-1.333,16.949c0,0,2.328-3.718,2.794-5.694c0.979-4.148,0.687-8.156-0.917-11.515
			c-1.341-2.808-3.487-4.814-5.985-5.636c2.556-1,9.626-4.388,11.636-11.888c1.469-5.717,0.751-10.403-2.02-13.201
			c-3.012-3.042-8.272-3.744-15.211-2.032c-8.465,2.089-12.753,10.249-14.86,16.728c-2.452,7.537-3.185,16.846-1.912,24.292
			c1.554,7.452,7.196,15.345,13.722,19.205C476.546,358.564,477.429,358.889,478.282,359.06z"/>
		<path fill="#7D5235" d="M503.824,347.748c-0.084-0.043-8.394-4.515-8.141-19.451c0,0-0.663,5.627,0.94,10.631
			C499.052,345.881,503.824,347.748,503.824,347.748z"/>
		<path fill="#7D5235" d="M515.281,339.759c0.622-7.451-1.872-12.627-4.407-15.876c-3.502-4.49-8.127-5.836-8.127-5.836
			c0.042,0.019,4.265,1.852,7.669,6.228c3.136,4.03,6.202,11.115,3.005,21.983C513.421,346.258,515.11,341.808,515.281,339.759z"/>
		<path fill="#7D5235" d="M521.227,328.843c4.908,0.984,8.302,0.123,10.442-0.947c3.062-1.531,4.271-3.759,4.32-3.853l-0.531-0.283
			c-0.012,0.021-1.188,2.174-4.094,3.614c-3.857,1.913-9.014,1.712-14.909-0.581c-7.475-3.115-6.09-10.546-6.027-10.86
			c0,0-1.204,3.134,0.285,6.335c0.893,1.921,2.538,3.842,5.518,5.084C518.046,328.058,519.709,328.538,521.227,328.843z"/>
		<path fill="#7D5235" d="M525.368,345.342c4.146,0.832,7.53-0.196,7.593-0.216l-0.183-0.573
			c-0.109,0.035-11.016,3.331-17.433-7.237l-0.515,0.313C517.873,342.638,521.89,344.645,525.368,345.342z"/>
	</g>
	<g>
		<g>
			<g>
				<path fill="#935212" d="M352.294,353.203c0,0-30.435-2.845-54.522,6.504c-3.879,1.631-6.933-2.173-5.542-5.894
					c1.391-3.72,15.568-20.637,16.333-21.152c3.712-1.78,44.526-10.572,52.911-1.846c7.896,3.526,7.93,13.58,8.1,17.574
					C369.744,352.385,352.294,353.203,352.294,353.203z"/>
				<path fill="#A06020" d="M307.025,352.219c7.452-1.037,14.781-3.309,22.61-2.769c4.554,0.059,9.878-0.985,13.038-3.868
					c17.573-2.112,15.768-10.364,17.184-14.801c-8.503-8.6-47.595,0.106-51.294,1.88c-0.569,0.384-8.551,9.832-13.181,16.185
					C298.593,351.756,302.935,353.079,307.025,352.219z"/>
				<path fill="#AB6E2B" d="M309.105,342.182c-0.858,1.699-1.803,3.994-0.104,4.852c1.7,0.857,3.74,1.461,5.404,0.488
					c6.566-3.296,13.24-1.101,19.465-4.143c4.652-2.126,16.804-10.083,16.449-15.415c-9.923-3.583-30.401,2.035-37.196,3.441
					C312.793,335.338,310.434,338.461,309.105,342.182z"/>
				<path fill="#632B00" d="M295.331,360.352c-1.259-0.185-2.372-0.95-3.052-2.101c-0.79-1.337-0.91-2.992-0.331-4.543
					c1.433-3.833,15.723-20.809,16.447-21.296l0.038-0.022c3.016-1.446,29.863-7.38,44.76-5.195c3.997,0.585,6.841,1.719,8.457,3.37
					c7.671,3.469,8.03,12.779,8.202,17.26l0.022,0.553c0.178,4.174-15.75,5.041-17.566,5.126h-0.042
					c-0.303-0.029-30.642-2.73-54.385,6.484C297.02,360.35,296.16,360.473,295.331,360.352z M308.719,332.921
					c-0.892,0.713-14.812,17.268-16.207,20.998c-0.516,1.379-0.412,2.846,0.285,4.025c0.587,0.993,1.542,1.653,2.621,1.812
					c0.719,0.105,1.472-0.004,2.237-0.326c23.618-9.167,53.683-6.614,54.646-6.529c4.785-0.226,17.101-1.471,16.972-4.497
					l-0.022-0.556c-0.168-4.369-0.518-13.461-7.9-16.758l-0.054-0.023l-0.04-0.043c-1.514-1.575-4.256-2.663-8.151-3.234
					C338.354,325.626,311.829,331.467,308.719,332.921z"/>
			</g>
		</g>
	</g>
	<g>
		<g>
			<path fill="#F9A369" d="M453.061,154.78c0,0,0.301-27.242,26.623-21.423c14.467,3.611,30.237,24.708,10.649,48.477
				c-7.233,7.098-18.413,11.599-33.154-8.15C454.165,163.25,453.061,154.78,453.061,154.78z"/>
			<path fill="#FAC480" d="M453.061,154.78c0,0,0.301-27.242,26.623-21.423c14.467,3.611,26.122,22.237,9.243,43.486
				c-7.233,7.098-22.045,7.318-31.748-3.159C454.165,163.25,453.061,154.78,453.061,154.78z"/>
			<path fill="#FADE9B" d="M463.91,150.059c-0.603,1.204-2.411,1.711-2.712,1.109c-1.809-2.708-3.327-9.536-3.009-11.864
				c3.751-4.882,10.246-8.434,21.494-5.948c4.993,1.247,9.651,4.283,12.917,8.598c-3.782-1.719-7.653-2.579-11.812-2.579
				C473.254,139.074,467.527,143.739,463.91,150.059z"/>
			<path fill="#7D5235" d="M456.938,173.863l-0.033-0.044l-0.015-0.052c-2.985-10.335-4.117-18.864-4.129-18.949l-0.002-0.021
				v-0.021c0.001-0.057,0.091-5.686,2.582-11.239c2.312-5.154,7.213-11.297,17.427-11.297c2.164,0,4.514,0.276,6.989,0.824
				c6.922,1.728,15.388,7.956,18.697,17.973c2.304,6.974,2.806,18.011-7.889,30.988l-0.021,0.023
				c-4.144,4.065-8.458,6.126-12.824,6.127c-0.001,0,0,0,0,0C471.019,188.175,464.025,183.359,456.938,173.863z M497.882,151.226
				c-3.238-9.8-11.51-15.89-18.264-17.576c-2.425-0.536-4.73-0.808-6.851-0.808c-7.935,0-13.61,3.676-16.869,10.925
				c-2.369,5.271-2.528,10.62-2.537,10.995c0.065,0.485,1.204,8.776,4.092,18.786c6.957,9.306,13.775,14.025,20.268,14.025
				c4.199,0,8.367-2,12.39-5.943C500.62,168.87,500.138,158.054,497.882,151.226z"/>
		</g>
		<g>
			<path fill="#F9A369" d="M489.256,165.093c0,0,6.904-14.176-5.956-19.445c-8.84-3.464-24.111,2.555-24.513,25.829
				c0,0,5.703,8.804,18.586,3.912C484.506,172.681,489.256,165.093,489.256,165.093z"/>
			<path fill="#7D5235" d="M459.088,171.482c0.189-10.954,3.821-19.344,10.227-23.625c4.285-2.864,9.603-3.604,13.875-1.93
				c3.431,1.406,5.755,3.602,6.905,6.526c2.275,5.787-0.808,12.572-0.839,12.64c0,0,3.771-6.828,1.4-12.856
				c-1.212-3.084-3.648-5.395-7.241-6.868c-4.459-1.746-9.989-0.984-14.437,1.988c-6.574,4.394-10.301,12.958-10.493,24.115
				L459.088,171.482z"/>
		</g>
		<g>
			<path fill="#7D5235" d="M475.33,163.325c-3.112-2.865-8.358-3.25-15.592-1.14l0.169,0.578c7.017-2.046,12.067-1.708,15.014,1.005
				c4.104,3.779,2.674,10.987,2.659,11.059C477.58,174.827,479.683,167.333,475.33,163.325z"/>
		</g>
		<g>
			<path fill="#F97847" d="M457.871,167.626c0,3.008,1.758,5.455,3.918,5.455s3.918-2.447,3.918-5.455
				c0-3.008-1.758-5.456-3.918-5.456S457.871,164.618,457.871,167.626z"/>
		</g>
	</g>
	<g>
		<g>
			<path fill="#F9A369" d="M315.755,154.853c0,0-0.301-27.242-26.624-21.423c-14.467,3.612-30.238,24.708-10.649,48.477
				c7.234,7.099,18.413,11.599,33.154-8.149C314.65,163.324,315.755,154.853,315.755,154.853z"/>
			<path fill="#FAC480" d="M315.755,154.853c0,0-0.301-27.242-26.624-21.423c-14.467,3.612-26.121,22.238-9.243,43.486
				c7.234,7.099,22.045,7.318,31.748-3.158C314.65,163.324,315.755,154.853,315.755,154.853z"/>
			<path fill="#FADE9B" d="M304.904,150.132c0.603,1.204,2.412,1.711,2.713,1.109c1.809-2.709,3.327-9.536,3.009-11.865
				c-3.752-4.882-10.246-8.434-21.495-5.948c-4.994,1.247-9.651,4.283-12.917,8.598c3.783-1.718,7.654-2.579,11.812-2.579
				C295.561,139.147,301.288,143.812,304.904,150.132z"/>
			<path fill="#FDF2D7" d="M310.03,138.645c-3.831-4.494-10.222-7.576-20.899-5.216c-4.206,1.05-8.169,3.373-11.268,6.657
				C287,134.411,294.557,131.624,310.03,138.645z"/>
			<path fill="#7D5235" d="M291.095,188.248C291.095,188.248,291.095,188.248,291.095,188.248c-4.368,0-8.682-2.062-12.825-6.126
				l-0.021-0.024c-10.694-12.976-10.192-24.013-7.888-30.987c3.31-10.018,11.775-16.245,18.697-17.973
				c2.476-0.547,4.825-0.824,6.989-0.824c10.215,0,15.115,6.144,17.427,11.297c2.491,5.552,2.582,11.182,2.582,11.238l0,0.021
				l-0.003,0.021c-0.011,0.085-1.143,8.613-4.128,18.949l-0.016,0.052l-0.033,0.044C304.79,183.432,297.797,188.248,291.095,188.248
				z M278.705,181.703c4.022,3.943,8.191,5.942,12.39,5.942c6.491,0,13.31-4.719,20.267-14.025
				c2.888-10.01,4.027-18.301,4.092-18.785c-0.008-0.375-0.167-5.724-2.536-10.996c-3.259-7.249-8.935-10.924-16.87-10.924
				c-2.12,0-4.425,0.271-6.85,0.808c-6.754,1.686-15.026,7.775-18.264,17.575C268.677,158.127,268.195,168.943,278.705,181.703z"/>
		</g>
		<g>
			<path fill="#F9A369" d="M279.559,165.166c0,0-6.904-14.175,5.956-19.445c8.841-3.464,24.112,2.555,24.514,25.829
				c0,0-5.703,8.804-18.586,3.912C284.309,172.754,279.559,165.166,279.559,165.166z"/>
			<path fill="#7D5235" d="M309.727,171.555c-0.189-10.954-3.821-19.344-10.227-23.625c-4.285-2.864-9.603-3.603-13.876-1.929
				c-3.43,1.406-5.754,3.602-6.904,6.526c-2.276,5.787,0.807,12.571,0.838,12.639c0,0-3.77-6.827-1.401-12.856
				c1.212-3.084,3.649-5.395,7.242-6.868c4.459-1.747,9.988-0.984,14.436,1.988c6.574,4.393,10.301,12.958,10.494,24.114
				L309.727,171.555z"/>
		</g>
		<g>
			<path fill="#7D5235" d="M293.485,163.398c3.112-2.866,8.358-3.25,15.591-1.141l-0.169,0.578
				c-7.017-2.046-12.068-1.707-15.014,1.006c-4.104,3.779-2.674,10.986-2.659,11.059C291.235,174.9,289.133,167.406,293.485,163.398
				z"/>
		</g>
		<g>
			<path fill="#F97847" d="M307.026,162.244c-2.161,0-3.918,2.447-3.918,5.455c0,3.008,1.757,5.456,3.918,5.456
				s3.918-2.447,3.918-5.456C310.944,164.691,309.187,162.244,307.026,162.244z"/>
		</g>
	</g>
	<g>
		<path fill="#935212" d="M461.047,170.597c-1.205-2.859,2.261-27.537-14.919-49.506c-19.958-25.714-42.875-31.058-54.42-32.004
			c-2.029-2.42-4.827-3.763-6.129-4.31c0,0-0.401,2.909-1.607,3.511c-3.114-7.624-11.152-11.637-13.764-11.637
			c4.219,3.311,3.416,11.235,1.507,12.252c-0.552-0.777-4.22-4.829-6.33-4.126c1.33,2.211-1.463,5.338-4.237,7.698
			c-11.489,3.924-25.59,12.033-38.461,28.616c-17.18,21.97-13.714,46.647-14.919,49.506c-2.26,1.956-14.166,15.649-9.192,37.618
			c1.055-2.106,4.069-6.771,4.069-6.771c0,5.267,2.11,19.412,11.001,23.625c0-3.461-0.151-5.267-0.151-5.267
			c2.864,5.267,9.042,12.038,17.783,13.242c-0.603-2.709-1.206-4.364-1.206-4.364c3.165,3.311,18.979,6.544,31.647,5.116
			c12.467-1.405,22.57,0.919,22.689,0.887c0.12,0.032,10.221-2.292,22.689-0.887c12.668,1.428,28.482-1.806,31.647-5.116
			c0,0-0.604,1.655-1.206,4.364c8.74-1.204,14.919-7.976,17.782-13.242c0,0-0.15,1.806-0.15,5.267
			c8.892-4.213,11.001-18.358,11.001-23.625c0,0,3.014,4.665,4.069,6.771C475.213,186.246,463.308,172.553,461.047,170.597z"/>
		<path fill="#A06020" d="M428.479,228.229c5.727-0.903,10.247-4.515,14.769-8.427c0.302,1.806-0.302,3.611,0.302,5.417
			c7.233-4.515,11.151-12.941,13.261-21.066c1.206,1.806,1.809,3.913,1.507,6.019c0.604-0.602,0.604-1.204,0.604-1.806
			c0.603-1.806,0.904-3.913,1.205-5.718c0.604-5.718,1.206-11.737-1.809-17.154c2.412,2.106,6.24,4.725,5.727,7.825
			c1.664-10.056-2.254-18.492-8.339-22.772c-0.603-0.903,4.822-26.102-6.045-44.468c-1.068-1.671-2.24-3.337-3.531-4.988
			c-19.958-25.714-42.875-31.058-54.42-32.004c-2.029-2.42-4.827-3.763-6.129-4.31c0,0-0.401,2.909-1.607,3.511
			c-3.114-7.624-11.152-11.637-13.764-11.637c4.219,3.311,3.416,11.235,1.507,12.252c-0.552-0.777-4.22-4.829-6.33-4.126
			c1.33,2.211-1.463,5.338-4.237,7.698c-11.489,3.924-25.59,12.033-38.461,28.616c-17.18,21.97-13.714,46.647-14.919,49.506
			c-2.26,1.956-14.166,15.649-9.192,37.618c1.055-2.106,4.069-6.771,4.069-6.771c0,5.267,2.11,19.412,11.001,23.625
			c0-3.461-0.151-5.267-0.151-5.267c2.864,5.267,9.042,12.038,17.783,13.242c-0.603-2.709-1.206-4.364-1.206-4.364
			c3.165,3.311,19.733,4.287,32.4,2.859c12.467-1.406,30.206,0.498,30.441-0.301C404.668,229.433,416.423,230.034,428.479,228.229z"
			/>
		<path fill="#AB6E2B" d="M310.028,215.588c0.301-2.106,0.301-4.213,1.206-6.019c3.014,5.718,5.727,12.339,11.755,15.95
			c-0.904-2.106,0.301-4.213,0.301-6.319c16.577,12.94,39.483,7.824,59.074,8.728c13.864-6.32,28.633-7.224,43.703-7.224
			c9.042,0,17.18-4.814,21.399-12.338c2.712-4.815,2.712-11.135,2.411-16.853c1.808,0,2.411,1.806,3.315,3.009
			c0.302-4.815-2.411-9.028-4.822-12.941c-1.508-2.407-3.919-6.019-2.412-8.426c12.217-19.517,5.116-45.339-4.637-57.813
			c-18.722-20.785-38.986-25.384-49.614-26.255c-2.029-2.42-4.827-3.763-6.129-4.31c0,0-0.401,2.909-1.607,3.511
			c-3.114-7.624-11.152-11.637-13.764-11.637c4.219,3.311,3.416,11.235,1.507,12.252c-0.552-0.777-4.22-4.829-6.33-4.126
			c1.33,2.211-1.463,5.338-4.237,7.698c-11.489,3.924-25.59,12.033-38.461,28.616c-17.18,21.97-13.714,46.647-14.919,49.506
			c-2.243,1.941-13.982,15.443-9.3,37.121c0.364-4.136,3.05-7.564,5.533-10.788C305.507,203.25,305.809,210.171,310.028,215.588z"/>
		<path fill="#DDC5AA" d="M359.284,93.143c-11.129,4.149-24.413,12.25-36.597,27.948c-13.073,16.718-14.191,35.001-14.509,44.048
			C316.057,110.858,356.313,98.261,359.284,93.143z"/>
		<path fill="#632B00" d="M384.411,234.984l-0.048-0.002c-0.051-0.005-0.141-0.022-0.385-0.067
			c-4.537-0.843-9.261-1.271-14.042-1.271c-2.781,0-5.535,0.152-8.184,0.45c-2.052,0.231-4.261,0.349-6.564,0.349
			c-9.83,0-20.655-2.204-24.507-4.867c0.234,0.764,0.563,1.933,0.891,3.402l0.094,0.423l-0.429-0.06
			c-7.997-1.102-14.079-6.877-17.369-12.289c0.039,0.892,0.079,2.241,0.079,4.016v0.477l-0.43-0.205
			c-8.631-4.089-10.915-17.076-11.152-22.899c-0.914,1.438-2.752,4.376-3.52,5.909l-0.377,0.754l-0.186-0.822
			c-2.119-9.362-1.48-18.276,1.899-26.495c2.503-6.087,5.855-10.062,7.333-11.368c0.207-0.588,0.257-2.103,0.325-4.171
			c0.274-8.327,0.915-27.827,14.611-45.342c10.871-14.006,23.84-23.661,38.546-28.697c2.575-2.198,5.36-5.231,4.131-7.277
			l-0.193-0.322l0.356-0.119c0.193-0.064,0.403-0.097,0.624-0.097c2.154,0,5.047,3.106,5.862,4.098
			c0.558-0.504,1.005-1.8,1.144-3.371c0.238-2.694-0.397-6.272-2.898-8.234l-0.685-0.538h0.872c2.713,0,10.614,3.903,13.896,11.475
			c0.701-0.674,1.082-2.406,1.177-3.089l0.054-0.388l0.361,0.152c1.776,0.747,4.276,2.096,6.161,4.297
			c11.882,0.999,34.643,6.514,54.508,32.11c13.696,17.514,14.338,37.014,14.611,45.341c0.067,2.069,0.117,3.583,0.325,4.171
			c1.478,1.306,4.83,5.28,7.333,11.368c3.38,8.219,4.019,17.133,1.898,26.495l-0.186,0.822l-0.377-0.754
			c-0.769-1.532-2.607-4.471-3.52-5.909c-0.238,5.823-2.521,18.81-11.152,22.899l-0.431,0.205v-0.477
			c0-1.774,0.04-3.124,0.079-4.016c-3.289,5.412-9.371,11.188-17.368,12.289l-0.43,0.06l0.095-0.423
			c0.326-1.47,0.656-2.639,0.891-3.402c-3.853,2.663-14.678,4.867-24.508,4.867c-2.304,0-4.512-0.117-6.564-0.349
			c-2.648-0.298-5.402-0.45-8.184-0.45c-4.782,0-9.507,0.428-14.044,1.271c-0.238,0.045-0.329,0.062-0.38,0.066l-0.034,0.003
			C384.418,234.984,384.415,234.984,384.411,234.984z M369.936,233.043c4.818,0,9.579,0.431,14.153,1.28
			c0.14,0.026,0.24,0.045,0.296,0.055l0.022-0.006l0.022,0.006c0.056-0.01,0.156-0.028,0.295-0.055
			c4.573-0.85,9.335-1.28,14.154-1.28c2.804,0,5.58,0.152,8.252,0.454c2.029,0.229,4.216,0.345,6.496,0.345
			c11.312,0,22.476-2.835,24.898-5.37l0.991-1.037l-0.49,1.348c-0.006,0.016-0.539,1.495-1.097,3.898
			c8.105-1.303,14.147-7.544,17.126-13.022l0.685-1.259l-0.119,1.428c-0.002,0.017-0.136,1.663-0.149,4.754
			c8.474-4.446,10.397-18.488,10.397-23.137v-1.021l0.555,0.858c0.111,0.171,2.453,3.8,3.697,6.064
			c1.877-8.945,1.19-17.463-2.044-25.33c-2.585-6.287-6.093-10.209-7.228-11.191l-0.053-0.045l-0.027-0.065
			c-0.271-0.641-0.32-2.155-0.396-4.446c-0.271-8.268-0.909-27.631-14.484-44.992c-19.794-25.503-42.458-30.926-54.206-31.889
			l-0.125-0.01l-0.081-0.097c-1.766-2.105-4.182-3.413-5.664-4.074c-0.161,0.865-0.636,2.816-1.707,3.351l-0.292,0.146l-0.123-0.301
			c-2.736-6.698-9.409-10.618-12.575-11.331c2.09,2.179,2.631,5.528,2.403,8.104c-0.178,2.012-0.816,3.542-1.665,3.994l-0.234,0.125
			l-0.154-0.216c-0.518-0.73-3.685-4.172-5.635-4.079c0.785,1.911-0.723,4.5-4.489,7.707l-0.044,0.037l-0.054,0.019
			c-14.616,4.991-27.509,14.585-38.321,28.515c-13.576,17.361-14.212,36.724-14.484,44.992c-0.075,2.292-0.125,3.805-0.396,4.446
			l-0.027,0.065l-0.053,0.045c-1.134,0.982-4.643,4.905-7.228,11.191c-3.234,7.867-3.921,16.385-2.044,25.33
			c1.245-2.264,3.586-5.894,3.697-6.064l0.555-0.858v1.021c0,4.649,1.924,18.691,10.397,23.137
			c-0.013-3.091-0.147-4.737-0.148-4.754l-0.119-1.428l0.684,1.259c2.978,5.479,9.021,11.72,17.126,13.022
			c-0.557-2.403-1.091-3.883-1.097-3.898l-0.49-1.348l0.991,1.037c2.423,2.535,13.586,5.37,24.899,5.37
			c2.281,0,4.466-0.116,6.497-0.345C364.356,233.195,367.132,233.043,369.936,233.043z"/>
		<path fill="#632B00" d="M393.169,92.903c-0.525-3.003-3.045-5-3.07-5.019l0.37-0.475
			C393.704,90.156,393.169,92.903,393.169,92.903z"/>
	</g>
	<path fill="#935212" d="M400.962,263.943c0,0,26.974,12.94,46.234,8.427c15.649-3.612,27.387-15.649,28.591-21.066
		c-6.621-7.825-19.05-8.126-37.413,0c-4.318-3.512-25.386-19.626-44.245-17.688C396.536,242.977,400.962,263.943,400.962,263.943z"
		/>
	<path fill="#A06020" d="M399.98,259.348c0,0,25.971,13.624,45.231,9.109c15.649-3.611,29.371-11.736,30.575-17.153
		c-6.621-7.825-19.05-8.126-37.413,0c-4.318-3.512-25.386-19.626-44.245-17.688C396.536,242.977,399.98,259.348,399.98,259.348z"/>
	<path fill="#AB6E2B" d="M438.374,251.304c-2.529-2.058-10.807-8.437-21.019-12.98c-3.093,3.974-8.628,5.224-13.072,7.562
		c-2.736,1.244-2.595,4.953-3.143,8.072c6.051,3.575,25.634,14.047,41.702,10.281c15.649-3.611,27.396-9.573,28.601-14.989
		C464.822,241.425,456.737,243.178,438.374,251.304z"/>
	<path fill="#632B00" d="M438.221,273.626c-0.001,0-0.001,0-0.003,0c-17.563-0.001-37.19-9.317-37.387-9.411l-0.134-0.064
		l-0.03-0.146c-0.044-0.21-4.451-21.066-6.829-30.314l-0.088-0.338l0.348-0.036c1.051-0.107,2.141-0.162,3.238-0.162
		c18.04,0,37.072,14.559,41.085,17.799c8.938-3.937,16.637-5.933,22.887-5.933c6.341,0,11.29,2.049,14.709,6.089l0.097,0.113
		l-0.033,0.146c-1.209,5.442-13.067,17.66-28.816,21.295C444.536,273.303,441.493,273.626,438.221,273.626z M401.225,263.734
		c1.756,0.819,20.326,9.289,36.993,9.29c0.001,0,0.003,0,0.003,0c3.227,0,6.224-0.318,8.907-0.947
		c15.38-3.55,26.975-15.314,28.331-20.694c-3.296-3.822-8.056-5.761-14.151-5.761c-6.205,0-13.88,2.004-22.812,5.956l-0.169,0.074
		l-0.143-0.116c-3.652-2.969-22.787-17.78-40.849-17.78c-0.957,0-1.906,0.043-2.828,0.126
		C396.801,242.881,400.83,261.871,401.225,263.734z"/>
	<path fill="#935212" d="M367.155,263.943c0,0-26.974,12.94-46.235,8.427c-15.649-3.612-27.386-15.649-28.59-21.066
		c6.621-7.825,19.049-8.126,37.413,0c4.319-3.512,25.385-19.626,44.245-17.688C371.58,242.977,367.155,263.943,367.155,263.943z"/>
	<path fill="#A06020" d="M367.155,261.392c0,0-25.47,12.497-44.73,7.982c-15.649-3.611-24.162-13.355-25.366-18.772
		c6.621-7.825,14.321-7.424,32.684,0.702c4.319-3.512,25.385-19.626,44.245-17.688C371.58,242.977,367.155,261.392,367.155,261.392z
		"/>
	<path fill="#AB6E2B" d="M366.965,245.585c-3.812-3.559-11.06-4.111-13.583-8.368c-11.398,4.544-20.897,11.856-23.64,14.087
		c-18.363-8.126-22.365-11.21-28.986-3.386c1.204,5.417,6.821,15.323,22.471,18.935c19.261,4.514,43.928-12.239,43.928-12.239
		s0.906-2.383,2.12-5.855C368.78,247.54,368.093,246.431,366.965,245.585z"/>
	<path fill="#632B00" d="M329.898,273.626c-3.274,0-6.318-0.323-9.047-0.964c-15.747-3.634-27.606-15.852-28.815-21.294
		l-0.032-0.146l0.096-0.113c3.419-4.04,8.368-6.089,14.709-6.089c6.25,0,13.949,1.996,22.887,5.933
		c4.012-3.24,23.045-17.799,41.084-17.799c1.098,0,2.187,0.055,3.237,0.162l0.348,0.036l-0.087,0.338
		c-2.378,9.248-6.785,30.104-6.829,30.314l-0.031,0.146l-0.134,0.064C367.089,264.309,347.463,273.626,329.898,273.626z
		 M292.658,251.383c1.355,5.38,12.95,17.145,28.33,20.693c2.685,0.63,5.683,0.948,8.911,0.948c16.667,0,35.238-8.471,36.993-9.29
		c0.395-1.863,4.424-20.854,6.717-29.853c-0.922-0.083-1.872-0.126-2.828-0.126c-18.061,0-37.196,14.812-40.848,17.78l-0.143,0.116
		l-0.169-0.074c-8.931-3.952-16.606-5.956-22.811-5.956C300.714,245.622,295.954,247.561,292.658,251.383z"/>
	<path fill="#935212" d="M418.417,282.502c-4.023-6.672-8.438-23.675-8.438-23.675c-7.081-21.682-24.761-14.095-25.92-13.571
		c-1.159-0.523-18.839-8.11-25.92,13.571c0,0-4.414,17.003-8.438,23.675c-3.161,5.239-12.428,18.343-9.82,41.631
		c2.526,15.786,20.951,30.678,40.832,33.52c-0.008,0.165,6.702,0.165,6.694,0c19.881-2.842,38.306-17.733,40.831-33.52
		C430.845,300.845,421.578,287.741,418.417,282.502z"/>
	<path fill="#A06020" d="M413.312,339.782c15.95-13.543,11.437-37.017,3.311-54.472c-1.517-3.539-1.901-7.362-1.945-11.257
		c-2.611-7.19-4.698-15.227-4.698-15.227c-7.081-21.682-24.761-14.095-25.92-13.571c-1.159-0.523-18.839-8.11-25.92,13.571
		c0,0-4.414,17.003-8.438,23.675c-3.161,5.239-12.428,18.343-9.82,41.631c0.98,6.125,4.354,12.114,9.277,17.318
		c3.503,1.605,6.73,3.92,10.284,5.253C377.499,352.723,398.565,352.422,413.312,339.782z"/>
	<path fill="#AB6E2B" d="M400.672,255.817c-0.903,2.708-3.311,5.417-6.02,5.718c-7.824,1.505-16.853,0.603-22.27-4.814
		c-2.708-3.01-1.806-8.427-5.417-11.136c-0.308-0.287-0.641-0.554-0.99-0.806c-3.14,2.627-5.997,6.988-7.838,14.048
		c0,0-4.414,17.003-8.438,23.675c-3.161,5.239-12.428,18.343-9.82,41.631c0.829,5.181,3.376,10.263,7.12,14.856
		c2.873,1.521,5.962,2.69,9.432,3.2c9.028,1.204,17.455-0.301,26.483-1.806c9.029-1.504,17.456-5.718,23.775-12.339
		c11.136-11.135,7.825-28.59,3.912-43.035c-2.131-7.992-3.786-16.927-0.173-24.509c-0.289-1.051-0.451-1.674-0.451-1.674
		c-1.491-5.834-3.781-9.822-6.404-12.515C401.105,248.193,401.78,252.77,400.672,255.817z"/>
	<path fill="#632B00" d="M416.839,343.557c-1.796,1.676-3.98,3.027-6.074,4.481c-6.771,4.703-14.933,8.105-23.402,9.315
		l-0.271,0.039l0.001,0.015c-0.438,0.036-1.51,0.067-3.034,0.067s-2.596-0.031-3.033-0.067l0.001-0.015l-0.272-0.039
		c-8.687-1.241-17.049-4.789-23.922-9.68c-1.381-0.982-3.008-1.867-4.259-2.951c-0.169,0.113,2.346,2.306,3.71,3.286
		c6.979,5.02,15.494,8.662,24.344,9.936c0.233,0.073,0.929,0.132,3.431,0.132c2.503,0,3.199-0.059,3.432-0.132
		c8.646-1.243,16.974-4.75,23.86-9.594C413.365,346.935,416.975,343.699,416.839,343.557z"/>
	<path fill="#632B00" d="M358.138,258.827c-0.267,1.003-1.652,4.988-3.044,9.382c-1.599,5.045-3.681,10.87-5.652,14.138
		c-0.202,0.334-0.429,0.701-0.676,1.101c-3.777,6.108-11.638,18.819-9.183,40.733c0.178,1.113,0.436,2.224,0.769,3.327
		c0.722,2.395,3.46,7.076,3.508,7.059c-1.966-3.275-3.127-7.009-3.681-10.467c-2.43-21.693,5.357-34.284,9.099-40.336
		c0.249-0.401,0.477-0.77,0.679-1.106c2.034-3.371,4.177-9.409,5.799-14.552C357.075,263.923,358.326,258.9,358.138,258.827z"/>
	<path fill="#632B00" d="M419.351,283.447c-0.247-0.399-0.474-0.767-0.676-1.101c-1.982-3.287-4.079-9.166-5.683-14.234
		c-1.292-4.088-2.474-7.656-2.809-8.909c-0.209-0.008,0.839,4.66,2.178,8.903c1.622,5.145,3.765,11.18,5.798,14.551
		c0.203,0.336,0.431,0.705,0.68,1.106c3.742,6.051,11.528,18.643,9.101,40.321c-0.594,3.713-1.852,7.597-4.057,11.084
		c0.076,0.114,2.073-2.988,2.796-4.684c0.886-2.076,1.517-4.191,1.857-6.318C430.988,302.267,423.128,289.556,419.351,283.447z"/>
	<path fill="#F9A369" d="M410.781,303.167c-4.814-6.621-8.828-11.837-13.041-26.283c-3.629-12.86-8.974-17.007-13.291-18.014
		c-0.001-0.05-0.003-0.102-0.004-0.151c-0.128,0.02-0.257,0.043-0.387,0.067c-0.129-0.024-0.259-0.048-0.386-0.067
		c-0.001,0.05-0.003,0.102-0.004,0.151c-4.317,1.007-9.662,5.153-13.292,18.014c-4.213,14.446-8.226,19.662-13.042,26.283
		c-4.079,5.608-13.338,29.5,8.436,50.028c4.714,2.168,9.778,3.718,14.94,4.456c-0.008,0.163,6.702,0.163,6.694,0
		c5.162-0.738,10.228-2.288,14.94-4.456C424.12,332.667,414.86,308.775,410.781,303.167z"/>
	<path fill="#FAC480" d="M410.781,303.167c-4.814-6.621-8.828-11.837-13.041-26.283c-3.629-12.86-8.974-17.007-13.291-18.014
		c-0.001-0.05-0.003-0.102-0.004-0.151c-0.128,0.02-0.257,0.043-0.387,0.067c-0.129-0.024-0.259-0.048-0.386-0.067
		c-0.001,0.05-0.003,0.102-0.004,0.151c-4.317,1.007-9.662,5.153-13.292,18.014c-4.213,14.446-8.226,19.662-13.042,26.283
		c-3.668,5.044-11.524,24.88,2.777,43.756c17.282,5.588,37.192,5.365,51.654-5.88C420.723,324.096,414.07,307.688,410.781,303.167z"
		/>
	<path fill="#FADE9B" d="M388.634,340.384c5.718-2.106,10.834-5.718,14.746-11.135c3.913-5.116,3.611-11.737,1.806-17.756
		c-2.708-8.728-10.834-13.543-12.94-22.872c-1.806-7.825-2.708-15.048-7.223-21.367c-2.221-2.888-5.59-3.315-9.017-2.857
		c-2.055,2.763-4.012,6.759-5.629,12.487c-4.213,14.446-8.226,19.662-13.042,26.283c-3.37,4.634-10.271,21.752-0.284,39.141
		c1.436,0.488,2.929,0.862,4.497,1.086C370.577,344.598,379.906,343.394,388.634,340.384z"/>
	<path fill="#7D5235" d="M384.058,358.075c-2.496,0-3.195-0.06-3.43-0.132c-5.074-0.729-10.115-2.235-14.983-4.475l-0.044-0.021
		l-0.036-0.034c-22.236-20.965-12.34-45.107-8.473-50.425l0.47-0.646c4.542-6.236,8.465-11.621,12.526-25.544
		c3.694-13.089,9.218-17.121,13.285-18.167l0.006-0.264l0.338,0.052c0.113,0.018,0.227,0.037,0.341,0.06
		c0.115-0.022,0.228-0.042,0.341-0.06l0.339-0.052l0.006,0.264c4.067,1.046,9.591,5.078,13.286,18.17
		c4.06,13.92,7.982,19.305,12.524,25.541l0.471,0.646c3.867,5.318,13.763,29.461-8.474,50.425l-0.035,0.034l-0.045,0.021
		c-4.868,2.239-9.908,3.745-14.983,4.475C387.254,358.016,386.555,358.075,384.058,358.075z M381.024,357.406
		c0.438,0.035,1.51,0.066,3.034,0.066c1.525,0,2.596-0.031,3.034-0.066v-0.015l0.271-0.038c5.015-0.718,9.998-2.201,14.812-4.411
		c21.869-20.654,12.163-44.374,8.363-49.599l-0.47-0.646c-4.575-6.282-8.526-11.707-12.617-25.729
		c-3.685-13.057-9.142-16.889-13.071-17.806l-0.227-0.053l0-0.035c-0.013,0.002-0.024,0.004-0.037,0.007l-0.058,0.011l-0.057-0.011
		c-0.013-0.003-0.024-0.005-0.037-0.007l-0.001,0.035l-0.227,0.053c-3.929,0.917-9.386,4.749-13.07,17.803
		c-4.091,14.026-8.042,19.451-12.618,25.732l-0.47,0.646c-3.799,5.225-13.506,28.944,8.363,49.599
		c4.814,2.21,9.797,3.693,14.812,4.411l0.271,0.038L381.024,357.406z"/>
	<path fill="#F9A369" d="M439.673,179.979c2.106-0.602,13.844-26.785-3.912-42.735c-33.704-28.765-50.577,7.83-51.703,10.392
		c-1.125-2.562-17.998-39.157-51.702-10.392c-17.756,15.95-6.019,42.133-3.913,42.735c-7.223,6.621-24.076,34.91,21.969,52.666
		c8.715,9.016,18.932,9.628,33.645,8.432c14.713,1.196,24.93,0.584,33.645-8.432C463.749,214.889,446.896,186.599,439.673,179.979z"
		/>
	<path fill="#FAC480" d="M439.673,179.979c2.106-0.602,13.844-26.785-3.912-42.735c-33.704-28.765-50.577,7.83-51.703,10.392
		c-1.125-2.562-17.998-39.157-51.702-10.392c-17.756,15.95-6.019,42.133-3.913,42.735c-7.223,6.621-24.076,34.91,21.969,52.666
		c8.715,9.016,18.733,6.876,33.447,5.679c14.713,1.197,26.718-1.114,35.433-10.13C452.759,214.855,446.896,186.599,439.673,179.979z
		"/>
	<path fill="#FADE9B" d="M435.883,180.279c2.106-0.602,11.179-33.154-0.122-43.036c-32.581-28.49-50.577,7.83-51.703,10.392
		c-1.125-2.562-17.998-39.157-51.702-10.392c-17.756,15.95-6.019,42.133-3.913,42.735c-7.223,6.621-22.571,31.375,20.193,47.915
		c8.715,9.016,19.711,8.288,34.424,7.091c14.714,1.197,27.514-2.864,36.229-11.88C452.755,209.767,443.105,186.9,435.883,180.279z"
		/>
	<path fill="#FDF2D7" d="M360.75,126.63c-7.579-1.353-17.029,0.915-28.394,10.614c-9.702,8.715-10.599,20.485-9.072,29.468
		C325.435,140.652,341.528,130.559,360.75,126.63z"/>
	<path fill="#7D5235" d="M393.626,241.835C393.625,241.835,393.626,241.835,393.626,241.835c-2.685,0-5.726-0.145-9.568-0.457
		c-3.842,0.312-6.883,0.457-9.566,0.457c-11.062,0-18.093-2.589-24.249-8.934c-18.224-7.04-28.563-16.411-30.727-27.854
		c-2.004-10.596,3.854-20.639,8.444-25.029c-1.242-1.11-3.271-5.547-4.464-10.714c-1.75-7.581-2.951-21.856,8.659-32.285
		c8.592-7.333,16.845-11.049,24.535-11.049c16.567,0,25.517,17,27.368,20.939c1.851-3.939,10.801-20.939,27.369-20.939
		c7.689,0,15.942,3.716,24.529,11.044c11.615,10.434,10.413,24.709,8.664,32.29c-1.192,5.167-3.223,9.604-4.464,10.714
		c4.591,4.39,10.449,14.433,8.444,25.029c-2.164,11.442-12.503,20.813-30.727,27.854
		C411.718,239.246,404.686,241.835,393.626,241.835z M384.058,240.773l0.024,0.003c3.837,0.312,6.87,0.457,9.542,0.457
		c10.907,0,17.821-2.549,23.862-8.799l0.046-0.047l0.062-0.024c18.056-6.962,28.288-16.19,30.414-27.427
		c1.999-10.572-4.012-20.585-8.54-24.735l-0.396-0.364l0.517-0.148c0.555-0.159,2.944-4.022,4.443-10.52
		c1.72-7.452,2.906-21.48-8.474-31.702c-8.469-7.228-16.59-10.895-24.133-10.895c-17.289,0-26.141,19.016-27.093,21.184
		l-0.276,0.627l-0.275-0.627c-0.952-2.168-9.804-21.184-27.093-21.184c-7.542,0-15.664,3.667-24.138,10.9
		c-11.374,10.217-10.188,24.245-8.469,31.697c1.5,6.498,3.889,10.361,4.444,10.52l0.517,0.148l-0.396,0.364
		c-4.529,4.15-10.54,14.164-8.54,24.735c2.125,11.237,12.358,20.465,30.414,27.427l0.062,0.024l0.046,0.047
		c6.041,6.25,12.954,8.799,23.862,8.799c2.673,0,5.705-0.146,9.542-0.457L384.058,240.773z"/>
	<path fill="#470000" d="M431.015,196.452c-2.472,0.145-5.793,0.166-8.917-0.372c-0.047,0.041-18.992,15.924-37.978,11.612
		c0-0.009,0-0.018,0-0.026c-0.021,0.005-0.041,0.008-0.062,0.013c-0.02-0.005-0.041-0.008-0.061-0.013c0,0.009,0,0.018,0,0.026
		c-18.986,4.312-37.931-11.572-37.978-11.612c-3.124,0.538-6.445,0.517-8.917,0.372c-0.982,2.372-0.91,7.007,1.423,15.578
		c0,0,10.232,4.815,16.251,11.436c6.007,6.607,19.505,10.066,29.281,7.538c9.777,2.528,23.275-0.931,29.282-7.538
		c6.019-6.621,16.251-11.436,16.251-11.436C431.924,203.458,431.997,198.824,431.015,196.452z"/>
	<path fill="#6E0000" d="M372.082,218.5c4.213-1.505,10.286,2.278,12.091,0.473c6.319-7.224,15.596-10.103,24.624-12.511
		c0.792-0.158,1.166-1.398,1.389-2.932c-7.113,3.432-16.584,6.315-26.066,4.162c0-0.009,0-0.018,0-0.026
		c-0.021,0.005-0.041,0.008-0.062,0.013c-0.02-0.005-0.041-0.008-0.061-0.013c0,0.009,0,0.018,0,0.026
		c-18.986,4.312-37.931-11.572-37.978-11.612c-3.124,0.538-6.445,0.517-8.917,0.372c-0.982,2.372-0.91,7.007,1.423,15.578
		c0,0,10.232,4.815,16.251,11.436c2.322,2.554,5.766,4.635,9.68,6.084C364.854,224.604,367.279,219.81,372.082,218.5z"/>
	<path fill="#7D5235" d="M391.028,232.135c-0.001,0-0.001,0-0.002,0c-2.492,0-4.836-0.276-6.968-0.82
		c-2.133,0.544-4.477,0.82-6.968,0.82c-8.876,0-17.932-3.403-22.536-8.467c-5.908-6.499-16.055-11.318-16.157-11.366l-0.125-0.059
		l-0.037-0.134c-2.09-7.679-2.565-12.985-1.411-15.771l0.082-0.198l0.214,0.012c0.99,0.058,1.974,0.087,2.922,0.087
		c2.176,0,4.17-0.153,5.926-0.456l0.138-0.023l0.107,0.09c0.146,0.123,14.781,12.283,31.008,12.283c0.002,0,0.001,0,0.003,0
		c2.22,0,4.396-0.229,6.472-0.683v-0.137l0.359,0.058l0.342-0.079l0.009,0.156c2.081,0.455,4.261,0.685,6.485,0.685
		c16.229,0,30.866-12.16,31.012-12.283l0.107-0.09l0.138,0.023c1.756,0.303,3.75,0.456,5.926,0.456c0.949,0,1.933-0.029,2.923-0.087
		l0.213-0.012l0.082,0.198c1.154,2.786,0.68,8.092-1.411,15.771l-0.036,0.134l-0.126,0.059c-0.102,0.048-10.248,4.867-16.156,11.366
		C408.959,228.731,399.902,232.135,391.028,232.135z M384.058,230.693l0.076,0.019c2.104,0.545,4.423,0.82,6.893,0.82
		c0,0,0.001,0,0.002,0c8.716,0,17.592-3.322,22.089-8.27c5.629-6.191,15.021-10.863,16.22-11.445
		c1.975-7.294,2.471-12.355,1.477-15.053c-0.928,0.05-1.849,0.076-2.739,0.076c-2.154,0-4.136-0.148-5.892-0.441
		c-1.38,1.125-15.539,12.335-31.291,12.336c-2.346,0-4.645-0.252-6.833-0.749c-2.187,0.497-4.486,0.749-6.833,0.749
		c-0.001,0-0.002,0-0.003,0c-15.748,0-29.908-11.21-31.288-12.336c-1.756,0.293-3.738,0.441-5.892,0.441
		c-0.891,0-1.811-0.025-2.739-0.076c-0.994,2.698-0.498,7.76,1.477,15.053c1.198,0.582,10.591,5.253,16.22,11.445
		c4.497,4.946,13.375,8.27,22.091,8.27c2.47,0,4.789-0.275,6.893-0.82L384.058,230.693z"/>
	<path fill="#7D5235" d="M416.916,233.847l-0.387-0.461c2.755-2.31,3.277-6.601,3.283-6.645
		C419.812,226.741,419.854,231.385,416.916,233.847z"/>
	<path fill="#F9A369" d="M447.497,203.552c0,0,13.644-19.36,39.525-11.335c18.057,5.016,24.477,30.697,9.229,52.566
		c-10.634,16.609-52.365,22.471-51.562-3.249c-5.016-2.369-18.185-16.486-8.226-23.637
		C446.421,210.748,447.497,203.552,447.497,203.552z"/>
	<path fill="#FAC480" d="M447.497,203.552c0,0,13.644-19.36,39.525-11.335c18.057,5.016,21.991,27.449,6.742,49.317
		c-10.633,16.61-47.75,20.904-49.076,0c-5.016-2.369-18.185-16.486-8.226-23.637C446.421,210.748,447.497,203.552,447.497,203.552z"
		/>
	<path fill="#FADE9B" d="M447.497,203.552c0,0,13.644-19.36,39.525-11.335c18.057,5.016,20.185,24.237,4.937,46.106
		c-9.137,15.067-44.941,19.1-47.271,3.211c-5.016-2.369-18.185-16.486-8.226-23.637
		C446.421,210.748,447.497,203.552,447.497,203.552z"/>
	<path fill="#7D5235" d="M465.114,259.348c-7.089,0-12.957-2.026-16.524-5.707c-2.906-2.998-4.321-7.008-4.208-11.921
		c-3.823-1.932-11.198-9.533-11.806-16.221c-0.294-3.227,0.955-5.867,3.711-7.846c9.722-6.98,10.902-14.076,10.912-14.147
		l0.012-0.07l0.041-0.059c0.094-0.134,9.657-13.411,27.529-13.411c3.982,0,8.132,0.66,12.33,1.962
		c7.463,2.073,13.166,7.63,16.051,15.647c4.135,11.49,1.644,25.462-6.664,37.378C491.248,253.156,477.753,259.348,465.114,259.348z
		 M447.782,203.671c-0.147,0.831-1.622,7.634-11.145,14.472c-2.57,1.846-3.735,4.303-3.462,7.302
		c0.598,6.583,7.98,14.089,11.641,15.818l0.179,0.084l-0.006,0.197c-0.15,4.833,1.206,8.762,4.032,11.678
		c3.453,3.562,9.168,5.524,16.093,5.524c12.451,0,25.728-6.072,30.884-14.125c8.203-11.767,10.667-25.535,6.598-36.841
		c-2.816-7.828-8.377-13.252-15.654-15.273c-4.149-1.287-8.238-1.938-12.16-1.938C457.806,190.569,448.462,202.752,447.782,203.671z
		"/>
	<path fill="#7D5235" d="M457.382,244.622c-4.866,0-10.205-0.893-14.539-3.854l0.34-0.497c10.617,7.256,27.524,1.775,27.694,1.719
		C470.877,241.989,464.71,244.622,457.382,244.622z"/>
	<path fill="#DDDDDD" d="M396.248,209.923c0,0,2.596,6.621-4.477,7.323c-7.494,0.552-7.459-4.192-7.599-8.251
		C387.585,209.43,396.248,209.923,396.248,209.923z"/>
	<path fill="#FFFFFF" d="M392.339,209.68c-2.751-0.184-6.27-0.443-8.166-0.685c0.123,3.561,0.112,7.647,5.166,8.225
		C391.636,215.568,392.992,212.931,392.339,209.68z"/>
	<path fill="#BCBCBC" d="M390.628,217.591c-6.471,0-6.623-4.591-6.746-8.28l-0.022-0.659l0.351,0.045
		c3.362,0.429,11.968,0.921,12.054,0.926l0.193,0.011l0.07,0.18c0.049,0.125,1.192,3.109-0.197,5.38
		c-0.822,1.344-2.346,2.135-4.529,2.352C391.39,217.576,390.997,217.591,390.628,217.591z M384.485,209.336
		c0.125,3.771,0.278,7.653,6.143,7.653c0.354,0,0.732-0.015,1.122-0.044c1.979-0.195,3.35-0.892,4.068-2.066
		c1.054-1.724,0.425-4.017,0.212-4.667C394.756,210.137,387.76,209.72,384.485,209.336z"/>
	<path fill="#DDDDDD" d="M406.819,206.813c0,0,1.756,5.567-1.906,6.721c-3.661,1.154-6.771,1.304-7.875-3.913
		C400.349,208.77,406.819,206.813,406.819,206.813z"/>
	<path fill="#FFFFFF" d="M403.833,207.703c-2.139,0.63-4.955,1.445-6.795,1.919c0.964,4.555,3.456,5.018,6.51,4.294
		C404.513,212.054,404.674,209.787,403.833,207.703z"/>
	<path fill="#BCBCBC" d="M401.489,214.493c-2.543,0-4.052-1.528-4.745-4.809l-0.061-0.282l0.279-0.072
		c3.267-0.842,9.705-2.786,9.77-2.806l0.284-0.086l0.09,0.284c0.019,0.059,0.453,1.456,0.434,3.022
		c-0.026,2.153-0.903,3.562-2.536,4.077C403.55,214.279,402.433,214.493,401.489,214.493z M397.396,209.84
		c0.653,2.798,1.924,4.051,4.094,4.051c0.88,0,1.939-0.205,3.333-0.644c2.878-0.907,2.072-4.941,1.788-6.058
		C405.346,207.57,400.323,209.073,397.396,209.84z"/>
	<path fill="#DDDDDD" d="M413.641,203.552c0,0,2.307,4.114-0.702,6.321c-2.658,1.957-5.439-1.27-5.895-2.13
		C409.829,205.86,413.641,203.552,413.641,203.552z"/>
	<path fill="#FFFFFF" d="M411.319,204.983c-1.29,0.807-2.906,1.834-4.275,2.759c0.396,0.75,2.56,3.295,4.869,2.643
		C412.639,208.507,412.781,206.526,411.319,204.983z"/>
	<path fill="#BCBCBC" d="M411.146,210.793c-2.134,0-3.975-2.164-4.368-2.91l-0.127-0.239l0.225-0.151
		c2.759-1.865,6.57-4.176,6.608-4.199l0.267-0.161l0.152,0.271c0.024,0.043,2.4,4.374-0.787,6.711
		C412.505,210.565,411.843,210.793,411.146,210.793z M407.452,207.831c0.517,0.751,2.019,2.36,3.694,2.36
		c0.564,0,1.107-0.188,1.613-0.561c2.358-1.729,1.2-4.722,0.76-5.653C412.624,204.524,409.735,206.3,407.452,207.831z"/>
	<path fill="#DDDDDD" d="M421.295,197.211c0,0,2.57,1.93-0.36,6.474c-2.403,3.642-4.999,3.379-6.805,0.256
		C415.86,202.361,421.295,197.211,421.295,197.211z"/>
	<path fill="#FFFFFF" d="M419.419,198.985c-1.741,1.646-4.221,3.981-5.289,4.957c1.142,1.975,2.601,2.804,4.126,2.227
		C419.713,203.959,420.46,201.445,419.419,198.985z"/>
	<path fill="#BCBCBC" d="M417.31,206.651c-1.282,0-2.473-0.885-3.44-2.559l-0.121-0.21l0.179-0.163
		c1.709-1.56,7.106-6.676,7.161-6.727l0.185-0.175l0.203,0.152c0.114,0.086,2.76,2.153-0.287,6.879
		C419.978,205.683,418.637,206.651,417.31,206.651z M414.514,203.998c0.827,1.343,1.791,2.051,2.796,2.051
		c1.115,0,2.282-0.875,3.374-2.53c2.283-3.541,1.11-5.355,0.613-5.896C420.324,198.544,416.179,202.468,414.514,203.998z"/>
	<path fill="#FCA391" d="M400.55,238.964c-3.9-23.976-15.562-17.453-16.492-16.891c-0.93-0.562-12.591-7.085-16.491,16.891
		c-2.253,14.42,4.94,22.691,16.491,22.422C395.608,261.655,402.803,253.384,400.55,238.964z"/>
	<path fill="#FDBDB0" d="M396.684,239.165c-3.428-21.875-11.563-14.005-12.494-13.442c-0.93-0.562-12.723-10.734-16.623,13.241
		c-2.253,14.42,4.261,19.675,15.812,19.405C394.93,258.639,398.384,250.012,396.684,239.165z"/>
	<path fill="#FB765B" d="M384.604,261.692C384.604,261.692,384.604,261.692,384.604,261.692c-0.184,0-0.368-0.002-0.553-0.006
		c-0.171,0.004-0.355,0.006-0.538,0.006c-5.333,0-9.71-1.819-12.656-5.262c-3.498-4.087-4.739-10.143-3.587-17.513
		c2.469-15.185,8.057-18.371,12.309-18.371c2.166,0,3.894,0.851,4.479,1.179c0.586-0.328,2.314-1.179,4.48-1.179
		c4.252,0,9.839,3.187,12.309,18.369c1.151,7.373-0.089,13.429-3.587,17.516C394.314,259.874,389.938,261.692,384.604,261.692z
		 M384.051,261.085c0.194,0.004,0.374,0.006,0.552,0.006c5.152,0,9.371-1.746,12.199-5.051c3.38-3.949,4.573-9.838,3.449-17.029
		c-2.401-14.763-7.695-17.861-11.714-17.861c-2.255,0-3.997,0.984-4.324,1.182l-0.156,0.094l-0.156-0.094
		c-0.326-0.197-2.068-1.182-4.324-1.182c-4.019,0-9.312,3.099-11.714,17.863c-1.123,7.189,0.07,13.077,3.45,17.027
		C374.24,259.459,378.647,261.212,384.051,261.085z"/>
	<path fill="#7D5235" d="M351.2,233.847c-2.937-2.462-2.896-7.105-2.896-7.105c0.005,0.043,0.532,4.339,3.282,6.645L351.2,233.847z"
		/>
	<path fill="#F9A369" d="M320.619,203.552c0,0-13.643-19.36-39.524-11.335c-18.057,5.016-24.478,30.697-9.229,52.566
		c10.633,16.609,52.365,22.471,51.562-3.249c5.016-2.369,18.184-16.486,8.226-23.637
		C321.696,210.748,320.619,203.552,320.619,203.552z"/>
	<path fill="#FAC480" d="M320.619,203.552c0,0-13.643-19.36-39.524-11.335c-18.057,5.016-24.478,30.697-9.229,52.566
		c10.633,16.609,49.757,15.021,47.246-1.835c5.016-2.37,22.501-17.9,12.543-25.051C321.696,210.748,320.619,203.552,320.619,203.552
		z"/>
	<path fill="#FADE9B" d="M320.619,203.552c0,0-13.643-19.36-39.524-11.335c-18.057,5.016-24.478,30.697-9.229,52.566
		c5.818,9.63,44.053,16.001,41.542-0.854c12.829-5.605,22.802-22.164,18.246-26.031
		C321.696,210.748,320.619,203.552,320.619,203.552z"/>
	<path fill="#FDF2D7" d="M281.095,192.217c-16.283,4.523-23.101,25.852-13.102,46.034
		C267.752,231.001,258.323,211.055,281.095,192.217z"/>
	<path fill="#7D5235" d="M303.006,259.348c-0.001,0-0.002,0-0.004,0c-12.64-0.001-26.135-6.192-31.391-14.402
		c-8.301-11.906-10.793-25.879-6.658-37.369c2.885-8.017,8.589-13.574,16.06-15.649c4.19-1.3,8.338-1.96,12.322-1.96
		c17.872,0,27.435,13.277,27.529,13.411l0.041,0.059l0.011,0.07c0.011,0.071,1.191,7.167,10.913,14.147
		c2.756,1.979,4.005,4.619,3.711,7.846c-0.608,6.688-7.983,14.289-11.807,16.221c0.114,4.914-1.302,8.924-4.208,11.922
		C315.959,257.321,310.092,259.348,303.006,259.348z M293.336,190.569c-3.923,0-8.011,0.651-12.152,1.935
		c-7.287,2.024-12.846,7.448-15.664,15.276c-4.069,11.306-1.605,25.074,6.592,36.83c5.161,8.062,18.438,14.135,30.89,14.136
		c0.001,0,0.003,0,0.004,0c6.922,0.001,12.635-1.962,16.088-5.523c2.827-2.916,4.184-6.846,4.033-11.679l-0.006-0.197l0.179-0.084
		c3.661-1.729,11.043-9.235,11.642-15.818c0.273-2.999-0.892-5.456-3.463-7.302c-9.522-6.838-10.997-13.641-11.145-14.472
		C319.655,202.752,310.311,190.569,293.336,190.569z"/>
	<path fill="#7D5235" d="M310.735,244.622c-7.33,0-13.496-2.633-13.496-2.633c0.17,0.056,17.081,5.534,27.694-1.719l0.339,0.497
		C320.941,243.729,315.6,244.622,310.735,244.622z"/>
	<path fill="#DDDDDD" d="M371.869,209.923c0,0-2.596,6.621,4.476,7.323c7.494,0.552,7.459-4.192,7.599-8.251
		C380.532,209.43,371.869,209.923,371.869,209.923z"/>
	<path fill="#FFFFFF" d="M380.192,209.358c-3.798,0.307-8.324,0.564-8.324,0.564s-2.34,5.982,3.509,7.175
		C378.388,215.654,380.602,212.887,380.192,209.358z"/>
	<path fill="#BCBCBC" d="M377.49,217.591C377.489,217.591,377.49,217.591,377.49,217.591c-0.371,0-0.763-0.015-1.167-0.045
		c-2.191-0.218-3.715-1.009-4.537-2.353c-1.39-2.271-0.247-5.255-0.197-5.38l0.07-0.18l0.192-0.011
		c0.087-0.005,8.691-0.497,12.054-0.926l0.351-0.045l-0.022,0.659C384.112,213,383.958,217.591,377.49,217.591z M372.087,210.212
		c-0.213,0.652-0.841,2.95,0.213,4.67c0.719,1.173,2.09,1.868,4.075,2.064c0.381,0.028,0.759,0.043,1.114,0.043
		c5.865,0,6.018-3.882,6.143-7.653C380.357,209.72,373.362,210.137,372.087,210.212z"/>
	<path fill="#DDDDDD" d="M361.298,206.813c0,0-1.756,5.567,1.906,6.721s6.771,1.304,7.875-3.913
		C367.768,208.77,361.298,206.813,361.298,206.813z"/>
	<path fill="#FFFFFF" d="M368.627,208.957c-3.321-0.932-7.329-2.144-7.329-2.144s-1.756,5.567,1.906,6.721
		c0.681,0.215,1.343,0.395,1.977,0.512C367.122,212.961,368.56,211.265,368.627,208.957z"/>
	<path fill="#BCBCBC" d="M366.627,214.493L366.627,214.493c-0.943,0-2.06-0.213-3.514-0.671c-1.633-0.515-2.511-1.924-2.537-4.077
		c-0.019-1.566,0.416-2.963,0.434-3.022l0.089-0.284l0.285,0.086c0.065,0.02,6.502,1.964,9.769,2.806l0.279,0.072l-0.06,0.282
		C370.679,212.964,369.171,214.493,366.627,214.493z M361.506,207.19c-0.283,1.116-1.089,5.15,1.788,6.058
		c1.394,0.439,2.453,0.644,3.333,0.644c2.169,0,3.44-1.253,4.094-4.051C367.793,209.073,362.771,207.57,361.506,207.19z"/>
	<path fill="#DDDDDD" d="M354.476,203.552c0,0-2.307,4.114,0.702,6.321c2.658,1.957,5.439-1.27,5.895-2.13
		C358.288,205.86,354.476,203.552,354.476,203.552z"/>
	<path fill="#FFFFFF" d="M358.989,206.372c-2.291-1.474-4.513-2.82-4.513-2.82s-2.13,3.802,0.38,6.057
		C356.722,209.361,358.461,208.109,358.989,206.372z"/>
	<path fill="#BCBCBC" d="M356.971,210.793L356.971,210.793c-0.696,0-1.359-0.229-1.971-0.678c-3.187-2.337-0.811-6.667-0.787-6.71
		l0.152-0.271l0.266,0.161c0.038,0.023,3.851,2.334,6.609,4.199l0.224,0.151l-0.126,0.239
		C360.944,208.629,359.104,210.793,356.971,210.793z M354.597,203.978c-0.44,0.931-1.599,3.923,0.759,5.652
		c0.506,0.373,1.049,0.561,1.615,0.561c1.675,0,3.177-1.609,3.694-2.36C358.382,206.3,355.493,204.524,354.597,203.978z"/>
	<path fill="#DDDDDD" d="M346.822,197.211c0,0-2.57,1.93,0.36,6.474c2.403,3.642,4.999,3.379,6.805,0.256
		C352.257,202.361,346.822,197.211,346.822,197.211z"/>
	<path fill="#FFFFFF" d="M352.934,202.968c-2.25-2.096-6.112-5.757-6.112-5.757s-2.57,1.93,0.36,6.474
		c0.208,0.314,0.417,0.598,0.626,0.855C349.672,205.021,351.728,204.576,352.934,202.968z"/>
	<path fill="#BCBCBC" d="M350.807,206.651C350.807,206.651,350.807,206.651,350.807,206.651c-1.327,0-2.667-0.968-3.876-2.8
		c-3.049-4.729-0.404-6.795-0.29-6.881l0.204-0.152l0.184,0.175c0.054,0.051,5.453,5.167,7.161,6.727l0.179,0.163l-0.121,0.21
		C353.279,205.766,352.09,206.651,350.807,206.651z M346.82,197.624c-0.497,0.539-1.671,2.354,0.614,5.898
		c1.091,1.652,2.257,2.527,3.372,2.527h0c1.005,0,1.968-0.708,2.796-2.051C351.938,202.468,347.792,198.543,346.82,197.624z"/>
	<path fill="#FAC480" d="M346.018,196.079c14.866,21.668,38.04,13.444,38.04,13.444s22.986,7.767,38.041-13.444H346.018z"/>
	<path fill="#FADE9B" d="M346.018,196.079c13.123,19.562,37.926,9.329,37.926,9.329s24.402,8.784,38.155-9.329
		c0,0-23.653-3.561-38.155-3.561C374.421,192.518,346.018,196.079,346.018,196.079z"/>
	<path fill="#7D5235" d="M428.038,196.854c-9.084,0-12.643-3.858-12.643-3.858c5.449,4.865,19.276,2.807,19.417,2.786l0.091,0.595
		C434.642,196.417,431.702,196.854,428.038,196.854z"/>
	<g>
		<path fill="#FAC480" d="M384.793,199.576c0,0-19.27-4.308-17.487-13.429c1.782-9.121,30.856-11.123,34.896-0.445
			C404.49,192.487,384.793,199.576,384.793,199.576z"/>
	</g>
	<path fill="#7D5235" d="M373.611,211.354c-0.969,0-1.979-0.038-3.023-0.127c-7.046-0.601-17.072-3.687-24.818-14.977l0.497-0.341
		c7.606,11.087,17.439,14.122,24.348,14.716c7.504,0.646,13.286-1.365,13.344-1.385l0.098-0.035l0.099,0.033
		c0.057,0.019,5.792,1.917,13.274,1.215c6.891-0.646,16.721-3.693,24.425-14.548l0.49,0.349
		c-7.843,11.05-17.86,14.148-24.883,14.801c-7.062,0.657-12.602-0.965-13.4-1.215C383.378,210.065,379.217,211.354,373.611,211.354z
		"/>
	<path fill="#7D5235" d="M340.078,196.854c-3.665,0-6.603-0.437-6.865-0.478l0.091-0.595c0.139,0.021,13.969,2.077,19.416-2.786
		c0,0-2.107,2.764-5.389,3.14C344.949,196.683,342.372,196.854,340.078,196.854z"/>
	<path fill="#F9A369" d="M465.158,224.423c0,0-21.874,4.343-35.718-3.574c-6.771-3.854-10.179-12.697-7.975-19.503
		c5.115-15.8,41.878,3.687,55.679,3.311L465.158,224.423z"/>
	<path fill="#FAC480" d="M465.158,224.423c0,0-21.15,1.085-34.993-6.832c-6.771-3.854-10.903-9.439-8.699-16.245
		c5.115-15.8,41.878,3.687,55.679,3.311L465.158,224.423z"/>
	<path fill="#FADE9B" d="M465.158,224.423c0,0-19.703-1.017-33.547-8.933c-6.771-3.854-12.35-7.339-10.146-14.145
		c5.115-15.8,41.878,3.687,55.679,3.311c0,0-1.108,9.899-2.841,12.634C472.752,219.739,465.158,224.423,465.158,224.423z"/>
	<path fill="#7D5235" d="M452.251,226.003c-7.254,0-16.135-0.989-22.96-4.893c-6.771-3.854-10.41-12.761-8.112-19.857
		c1.6-4.939,6.324-6.999,14.443-6.294c6.981,0.606,15.627,3.187,23.254,5.464c7.21,2.152,14.021,4.186,18.269,4.233
		c0,0-2.364,0.526-8.389-0.799c-3.094-0.78-6.525-1.805-10.052-2.857c-15.734-4.697-33.565-10.021-36.952,0.439
		c-2.215,6.839,1.302,15.429,7.838,19.148c13.591,7.772,35.539,3.816,35.759,3.774c0,0-3.858,1.309-9.347,1.556
		C454.819,225.971,453.562,226.003,452.251,226.003z"/>
	<path fill="#F9A369" d="M303.271,224.495c0,0,21.562,4.271,35.406-3.646c6.771-3.854,10.179-12.697,7.975-19.503
		c-5.116-15.8-41.983,3.158-55.375,3.309L303.271,224.495z"/>
	<path fill="#FAC480" d="M303.271,224.495c0,0,17.473,2.373,31.317-5.544c6.771-3.854,10.211-10.302,8.38-17.217
		c-3.85-14.533-38.299,2.77-51.691,2.92L303.271,224.495z"/>
	<path fill="#FADE9B" d="M303.271,224.495c0,0,12.082,0.266,25.926-7.65c6.771-3.854,12.431-6.906,10.227-13.712
		c-5.116-15.8-34.754,1.371-48.147,1.521c0,0,1.046,8.217,2.376,10.58C295.289,218.144,303.271,224.495,303.271,224.495z"/>
	<path fill="#7D5235" d="M315.866,226.003c-7.394,0-13.098-1.642-13.098-1.642c0.219,0.042,22.171,3.995,35.759-3.773
		c6.537-3.721,10.053-12.311,7.838-19.149c-3.387-10.459-21.219-5.136-36.952-0.439c-3.473,1.037-6.853,2.046-9.909,2.821
		c-3.326,0.845-8.532,0.835-8.532,0.835c4.248-0.048,11.058-2.081,18.269-4.233c7.627-2.277,16.272-4.858,23.254-5.464
		c8.119-0.705,12.843,1.354,14.442,6.294c2.298,7.096-1.341,16.004-8.112,19.857C332.001,225.013,323.12,226.003,315.866,226.003z"
		/>
	<path fill="#7D5235" d="M279.732,333.682c-2.08-0.827-4.281,0.161-4.303,0.171l-0.25-0.547
		C278.407,332.296,279.732,333.682,279.732,333.682z"/>
	<g>
		<path fill="#F9A369" d="M293.532,358.567c0,0-9.885,17.942-30.965,0.071c-2.831,4.25-8.788,10.51-17.377,7.475
			c-5.49-2.122-10.956-13.304-3.639-18.147c-6.64-0.203-14.555-11.354-3.611-19.534c-3.72-3.243-4.965-13.276,4.476-18.239
			c9.441-4.963,27.646-9.074,40.553,10.13c7.35,4.512,14.355,6.534,14.355,6.534L293.532,358.567z"/>
		<path fill="#FAC480" d="M293.532,358.567c0,0-9.315,12.992-30.395-4.88c-2.831,4.251-9.193,12.754-17.782,9.719
			c-5.49-2.122-11.121-10.597-3.804-15.44c-6.64-0.203-14.555-11.354-3.611-19.534c-3.72-3.243-4.965-13.276,4.476-18.239
			c9.441-4.963,27.646-9.074,40.553,10.13c7.35,4.512,14.355,6.534,14.355,6.534L293.532,358.567z"/>
		<path fill="#FADE9B" d="M291.852,355.625c0,0-7.635,12.091-28.715-5.781c-2.831,4.251-10.76,12.047-16.378,10.681
			c-5.49-2.122-8.921-7.765-1.605-12.608c-6.64-0.202-16.452-9.736-7.214-19.484c-3.72-3.243-4.965-13.276,4.476-18.239
			c9.441-4.963,27.646-9.074,40.553,10.13c7.35,4.512,14.355,6.534,14.355,6.534L291.852,355.625z"/>
		<path fill="#FDF2D7" d="M245.054,312.526c8.285-3.787,17.688-4.595,26.743-3.009c-10.809-6.149-22.454-2.967-29.381,0.675
			c-5.426,2.853-7.318,7.379-7.243,11.33C237.349,317.5,240.97,314.246,245.054,312.526z"/>
		<path fill="#7D5235" d="M282.967,366.565c-6.108,1.226-12.949-1.292-20.337-7.481c-1.799,2.624-5.419,6.858-10.58,7.895
			c0,0,0,0-0.001,0c-2.249,0.451-4.59,0.255-6.96-0.581c-3.547-1.371-6.822-6.133-7.309-10.617
			c-0.339-3.127,0.705-5.792,2.949-7.589c-3.42-0.525-6.849-3.637-8.047-7.435c-1.394-4.417,0.352-8.899,4.79-12.348
			c-1.901-1.87-2.911-5.235-2.526-8.521c0.492-4.199,3.095-7.736,7.329-9.963c2.169-1.141,5.654-2.68,9.93-3.538
			c8.737-1.752,21.198-0.794,30.976,13.713c7.212,4.414,14.156,6.446,14.226,6.467l0.246,0.07l-3.829,32.023l-0.028,0.051
			C293.761,358.775,290.192,365.116,282.967,366.565z M262.504,358.189l0.258,0.219c7.339,6.223,14.097,8.769,20.086,7.567
			c6.625-1.328,10.052-6.923,10.393-7.506l3.754-31.398c-1.309-0.406-7.649-2.481-14.184-6.492l-0.056-0.034l-0.037-0.055
			c-9.598-14.281-21.826-15.23-30.394-13.512c-4.207,0.843-7.634,2.358-9.769,3.479c-4.053,2.131-6.542,5.505-7.01,9.501
			c-0.381,3.249,0.661,6.562,2.592,8.246l0.281,0.245l-0.298,0.223c-6.068,4.536-5.651,9.404-4.863,11.903
			c1.221,3.87,4.868,6.984,8.303,7.089l0.946,0.03l-0.79,0.521c-3.201,2.119-3.582,5.247-3.337,7.498
			c0.457,4.212,3.625,8.845,6.919,10.118c2.257,0.797,4.491,0.985,6.632,0.556c0,0,0.001,0,0.001,0
			c5.134-1.03,8.71-5.402,10.385-7.918L262.504,358.189z"/>
		<path fill="#F9A369" d="M286.068,358.761c0,0,4.819,4.951,10.326,1.693c6.032-3.568,11.968-11.278,13.579-18.997
			c2.354-13.772-1.909-37.063-16.547-40.676c-14.64-3.612-19.664,3.986-16.868,14.863c2.44,9.107,12.361,12.008,12.361,12.008
			c-6.716,1.347-11.374,10.921-5.338,22.452L286.068,358.761z"/>
		<path fill="#FAC480" d="M286.068,358.761c0,0,3.589,3.854,9.096,0.597c6.032-3.568,10.185-9.921,11.795-17.639
			c2.354-13.772,1.104-37.325-13.534-40.938c-14.64-3.612-19.664,3.986-16.868,14.863c2.44,9.107,12.361,12.008,12.361,12.008
			c-6.716,1.347-11.374,10.921-5.338,22.452L286.068,358.761z"/>
		<path fill="#FADE9B" d="M286.068,358.761c0,0,3.336,2.175,8.843-1.083c6.032-3.568,7.82-8.393,9.43-16.11
			c2.354-13.772,3.723-37.174-10.916-40.786c-14.64-3.612-19.664,3.986-16.868,14.863c2.44,9.107,12.361,12.008,12.361,12.008
			c-6.716,1.347-11.374,10.921-5.338,22.452c0,0-0.207,2.71-0.004,3.583C283.895,355.064,286.068,358.761,286.068,358.761z"/>
		<path fill="#FDF2D7" d="M283.124,303.348c3.593-1.712,9.833-1.201,13.873-1.131c-1.069-0.623-2.255-1.111-3.572-1.436
			c-14.64-3.612-19.664,3.986-16.868,14.863c0.208,0.777,0.475,1.507,0.781,2.195C276.651,308.855,278.021,305.899,283.124,303.348z
			"/>
		<path fill="#7D5235" d="M293.917,361.737c-1.164,0.233-2.273,0.182-3.278-0.025c-2.906-0.596-4.571-2.951-4.571-2.951
			c0.199,0.186,4.93,4.535,10.172,1.435c6.29-3.722,11.941-11.628,13.438-18.8c1.255-7.346,0.53-16.543-1.894-23.993
			c-2.06-6.333-6.236-14.307-14.432-16.329c-6.723-1.659-11.785-1.012-14.64,1.871c-2.616,2.642-3.278,7.125-1.864,12.625
			c2.366,8.83,12.057,11.765,12.154,11.795l1.172,0.343l-1.198,0.24c-2.716,0.545-5.092,2.57-6.518,5.558
			c-2.285,4.786-1.799,10.964,1.333,16.949c0,0-2.328-3.717-2.794-5.693c-0.979-4.148-0.686-8.156,0.917-11.516
			c1.34-2.807,3.487-4.814,5.985-5.636c-2.557-0.999-9.626-4.387-11.636-11.887c-1.469-5.717-0.752-10.404,2.019-13.202
			c3.013-3.041,8.273-3.744,15.212-2.031c8.464,2.088,12.753,10.249,14.86,16.727c2.452,7.537,3.184,16.846,1.912,24.292
			c-1.554,7.452-7.196,15.345-13.722,19.205C295.653,361.241,294.771,361.565,293.917,361.737z"/>
		<path fill="#7D5235" d="M268.375,350.426c0.084-0.044,8.394-4.515,8.141-19.451c0,0,0.663,5.626-0.94,10.63
			C273.148,348.559,268.375,350.426,268.375,350.426z"/>
		<path fill="#7D5235" d="M256.918,342.436c-0.622-7.45,1.872-12.626,4.407-15.876c3.502-4.49,8.128-5.835,8.128-5.835
			c-0.042,0.018-4.265,1.851-7.67,6.227c-3.135,4.03-6.201,11.115-3.004,21.983C258.779,348.935,257.089,344.484,256.918,342.436z"
			/>
		<path fill="#7D5235" d="M250.973,331.52c-4.908,0.985-8.301,0.123-10.442-0.947c-3.062-1.531-4.271-3.758-4.321-3.853l0.531-0.282
			c0.012,0.021,1.188,2.173,4.094,3.613c3.857,1.914,9.014,1.712,14.909-0.581c7.475-3.115,6.09-10.546,6.027-10.86
			c0,0,1.204,3.134-0.285,6.336c-0.893,1.92-2.539,3.842-5.518,5.083C254.154,330.734,252.491,331.216,250.973,331.52z"/>
		<path fill="#7D5235" d="M246.831,348.02c-4.146,0.831-7.53-0.197-7.592-0.216l0.182-0.574c0.11,0.035,11.016,3.332,17.433-7.236
			l0.515,0.312C254.327,345.314,250.31,347.321,246.831,348.02z"/>
	</g>
	<path fill="#FAC480" d="M403.171,163.193c2.168,11.667,11.141,19.789,20.043,18.139c8.902-1.648,14.361-12.443,12.194-24.11
		s-11.141-19.788-20.044-18.139C406.463,140.732,401.004,151.526,403.171,163.193z"/>
	<path d="M404.698,165.374c1.898,10.219,9.758,17.331,17.555,15.887c7.796-1.444,12.578-10.898,10.68-21.116
		c-1.898-10.218-9.758-17.332-17.555-15.887C407.582,145.702,402.8,155.156,404.698,165.374z"/>
	<path fill="#E0E0E0" d="M405.767,166.132c1.818,9.792,9.35,16.606,16.819,15.223c7.471-1.384,12.053-10.442,10.233-20.233
		c-1.818-9.791-9.349-16.606-16.819-15.222S403.948,156.342,405.767,166.132z"/>
	<path fill="#FFFFFF" d="M432.819,161.122c-1.818-9.791-9.349-16.606-16.819-15.222s-12.052,10.442-10.233,20.232
		c0.836,4.499,2.879,8.365,5.565,11.101c7.815-0.083,16.002-1.954,21.413-7.308C433.329,167.206,433.392,164.2,432.819,161.122z"/>
	<path d="M420.645,181.834C420.644,181.834,420.644,181.834,420.645,181.834c-6.994,0-13.518-6.727-15.175-15.647
		c-1.846-9.938,2.854-19.172,10.475-20.583c0.657-0.122,1.33-0.184,1.998-0.184c6.993,0,13.517,6.727,15.174,15.647
		c1.846,9.938-2.853,19.172-10.475,20.584C421.984,181.772,421.312,181.834,420.645,181.834z M417.942,146.022
		c-0.632,0-1.267,0.059-1.888,0.173c-7.295,1.352-11.777,10.271-9.992,19.882c1.605,8.64,7.874,15.155,14.581,15.155
		c0,0,0,0,0.001,0c0.631,0,1.266-0.058,1.887-0.173c7.295-1.351,11.777-10.27,9.992-19.882
		C430.919,152.537,424.649,146.022,417.942,146.022z"/>
	<path fill="#5FA6FF" d="M408.314,169.412c1.92,6.409,7.452,10.418,12.355,8.953c4.904-1.464,7.323-7.848,5.403-14.257
		c-1.921-6.409-7.453-10.418-12.356-8.953C408.812,156.619,406.394,163.002,408.314,169.412z"/>
	<path fill="#3070D1" d="M418.597,178.968L418.597,178.968c-4.555,0-8.901-3.895-10.572-9.47
		c-1.964-6.558,0.551-13.122,5.606-14.631c0.698-0.209,1.425-0.315,2.159-0.315c4.554,0,8.901,3.894,10.571,9.47
		c1.965,6.558-0.55,13.122-5.605,14.631C420.059,178.862,419.331,178.968,418.597,178.968z M415.79,155.153
		c-0.676,0-1.345,0.098-1.987,0.29c-4.736,1.415-7.069,7.642-5.2,13.882c1.569,5.238,5.772,9.04,9.994,9.04l0,0
		c0.677,0,1.345-0.097,1.987-0.289c4.736-1.415,7.069-7.642,5.2-13.882C424.215,158.955,420.012,155.153,415.79,155.153z"/>
	<path d="M428.36,151.719l0.367-0.477c3.665,2.812,9.299,1.766,9.356,1.755C438.084,152.997,432.742,154.853,428.36,151.719z"/>
	<path d="M431.938,158.663l0.457-0.391c3.026,3.533,9.467,3.97,9.531,3.974C441.927,162.246,435.128,162.387,431.938,158.663z"/>
	<path d="M432.742,162.595l0.595-0.098c0.299,1.803,3.56,5.301,3.593,5.336C436.93,167.833,433.07,164.577,432.742,162.595z"/>
	<path fill="#5E2A00" d="M425.03,140.652c0,0-4.521-6.019-14.92-6.32C411.016,132.376,421.516,129.824,425.03,140.652z"/>
	<path fill="#2B0F00" d="M425.871,142.268l-1.082-1.435c-0.045-0.059-4.569-5.907-14.688-6.2l-0.456-0.014l0.191-0.414
		c0.427-0.923,2.555-1.919,5.248-1.919c2.27,0,7.809,0.806,10.231,8.273L425.871,142.268z M410.736,134.056
		c7.276,0.376,11.64,3.576,13.491,5.309c-2.491-5.812-7.153-6.477-9.143-6.477C413.1,132.889,411.458,133.482,410.736,134.056z"/>
	<path fill="#FAC480" d="M367.57,163.826c-2.131,11.469-10.952,19.453-19.703,17.832c-8.751-1.621-14.118-12.232-11.988-23.701
		c2.131-11.469,10.952-19.453,19.703-17.832C364.333,141.747,369.7,152.358,367.57,163.826z"/>
	<path d="M363.894,165.367c-1.911,10.284-9.819,17.441-17.666,15.988c-7.846-1.454-12.658-10.968-10.748-21.25
		c1.911-10.283,9.819-17.441,17.666-15.988C360.992,145.57,365.804,155.084,363.894,165.367z"/>
	<path fill="#E0E0E0" d="M363.048,166.132c-1.819,9.792-9.349,16.606-16.82,15.223c-7.471-1.384-12.052-10.442-10.233-20.233
		c1.819-9.791,9.349-16.606,16.82-15.222S364.867,156.342,363.048,166.132z"/>
	<path fill="#FFFFFF" d="M352.815,145.899c-7.471-1.384-15.001,5.432-16.82,15.222c-1.149,6.186,0.259,12.077,3.334,15.927
		c8.146,1.298,16.444-2.039,22.819-7.512c0.376-1.086,0.681-2.223,0.9-3.405C364.867,156.342,360.286,147.283,352.815,145.899z"/>
	<path d="M348.171,181.834c-0.668,0-1.34-0.062-1.998-0.183c-7.622-1.412-12.321-10.646-10.475-20.584
		c1.657-8.92,8.181-15.647,15.174-15.647c0.668,0,1.34,0.062,1.998,0.184c7.622,1.412,12.321,10.646,10.475,20.583
		C361.688,175.107,355.164,181.834,348.171,181.834z M350.873,146.022c-6.708,0-12.976,6.515-14.581,15.155
		c-1.786,9.612,2.697,18.531,9.992,19.882c0.621,0.115,1.256,0.173,1.888,0.173c6.707,0,12.976-6.515,14.581-15.155
		c1.786-9.612-2.697-18.53-9.992-19.882C352.139,146.081,351.504,146.022,350.873,146.022z"/>
	<path fill="#5FA6FF" d="M360.501,169.412c-1.92,6.409-7.452,10.418-12.356,8.953c-4.904-1.464-7.323-7.848-5.403-14.257
		s7.452-10.418,12.356-8.953S362.421,163.002,360.501,169.412z"/>
	<path fill="#3070D1" d="M350.218,178.968c-0.735,0-1.461-0.106-2.16-0.315c-5.055-1.51-7.57-8.074-5.605-14.631
		c1.671-5.576,6.018-9.47,10.571-9.47c0.735,0,1.461,0.106,2.16,0.315c5.055,1.51,7.569,8.073,5.605,14.631
		C359.119,175.074,354.772,178.968,350.218,178.968z M353.024,155.153c-4.222,0-8.424,3.802-9.994,9.041
		c-1.869,6.24,0.463,12.468,5.201,13.882c0.642,0.192,1.311,0.289,1.987,0.289c4.222,0,8.424-3.801,9.994-9.04
		c1.87-6.24-0.463-12.468-5.2-13.882C354.369,155.251,353.701,155.153,353.024,155.153z"/>
	<path d="M330.731,152.997c0.057,0.011,5.696,1.054,9.356-1.755l0.367,0.477C336.072,154.551,330.731,152.997,330.731,152.997z"/>
	<path d="M326.888,162.246c0.064-0.004,6.508-0.445,9.531-3.974l0.458,0.391C333.687,162.387,326.888,162.246,326.888,162.246z"/>
	<path d="M331.886,167.833c0.033-0.035,3.294-3.533,3.592-5.336l0.595,0.098C335.745,164.577,331.886,167.833,331.886,167.833z"/>
	<path fill="#5E2A00" d="M343.785,140.652c0,0,4.521-6.019,14.919-6.32C357.8,132.376,347.299,129.824,343.785,140.652z"/>
	<path fill="#2B0F00" d="M342.944,142.268l0.554-1.708c2.423-7.467,7.962-8.273,10.231-8.273c2.693,0,4.821,0.997,5.248,1.919
		l0.191,0.414l-0.456,0.014c-10.118,0.293-14.643,6.141-14.687,6.2L342.944,142.268z M353.73,132.889
		c-1.99,0-6.651,0.664-9.142,6.477c1.851-1.733,6.214-4.933,13.491-5.309C357.357,133.482,355.715,132.889,353.73,132.889z"/>
	<path fill="#FADE9B" d="M434.228,182.17c0,0-11.928-7.297-21.958,2.346L434.228,182.17z"/>
	<path fill="#7D5235" d="M412.27,184.516c0,0,4.529-5.233,10.863-5.196c6.293-0.414,11.095,2.851,11.095,2.851
		C434.109,182.104,422.234,175.737,412.27,184.516z"/>
	<path fill="#FADE9B" d="M334.934,181.959c0,0,11.037-6.754,21.284,2.274L334.934,181.959z"/>
	<path fill="#7D5235" d="M356.546,184.516c-9.973-8.787-21.84-2.411-21.958-2.346c0,0,5.604-3.696,12.57-2.697
		C352.81,180.19,356.546,184.516,356.546,184.516z"/>
	<path d="M422.982,166.702c1.464,4.176,0.059,8.468-3.139,9.585s-6.976-1.363-8.439-5.539s-0.059-8.468,3.139-9.585
		S421.52,162.526,422.982,166.702z"/>
	<circle fill="#FFFFFF" cx="414.342" cy="162.341" r="3.232"/>
	<circle fill="#FFFFFF" cx="419.979" cy="163.486" r="1.253"/>
	<path d="M357.754,170.821c-1.517,4.158-5.326,6.589-8.509,5.432c-3.183-1.158-4.534-5.467-3.017-9.625
		c1.517-4.157,5.326-6.589,8.509-5.431C357.921,162.354,359.271,166.664,357.754,170.821z"/>
	<circle fill="#FFFFFF" cx="353.835" cy="161.981" r="3.232"/>
	<circle fill="#FFFFFF" cx="357.47" cy="166.434" r="1.253"/>
	<g>
		<path fill="#7D5235" d="M383.598,209.523c-1.572-8.907-0.048-16.33-0.033-16.403l0.589,0.124
			c-0.016,0.073-1.515,7.388,0.036,16.175L383.598,209.523z"/>
	</g>
	<g>
		<path fill="#FB755A" d="M383.065,197.505c0,0-17.379-3.885-15.771-12.111c1.608-8.226,27.829-10.032,31.472-0.401
			C400.83,191.111,383.065,197.505,383.065,197.505z"/>
		<path fill="#FC8F73" d="M381.236,194.142c0,0-15.549-0.522-13.942-8.749c1.608-8.226,26.549-8.853,27.578,0.1
			C395.06,189.556,381.236,194.142,381.236,194.142z"/>
		<path fill="#FA4A2A" d="M383.085,197.818L383,197.799c-0.721-0.162-17.646-4.047-16.001-12.463
			c0.919-4.704,9.045-7.166,16.596-7.166c6.243,0,13.581,1.765,15.454,6.716c2.138,6.336-15.144,12.637-15.88,12.902
			L383.085,197.818z M383.594,178.772c-7.126,0-15.156,2.34-16.004,6.679c-1.478,7.559,14.151,11.431,15.456,11.74
			c1.305-0.482,17.312-6.538,15.435-12.104C396.72,180.434,389.636,178.772,383.594,178.772z"/>
	</g>
	<ellipse fill="#FED2C7" cx="380.079" cy="182.779" rx="8.163" ry="1.736"/>
	<ellipse fill="#FED5CC" cx="372.985" cy="247.918" rx="3.411" ry="5.473"/>
	<g>
		<path fill="#7D5235" d="M396.909,308.461c-12.596-9.652-27.042-1.604-27.186-1.522c0,0,3.462-2.646,8.721-3.495
			c3.31-0.534,7.709-0.636,12.311,0.985C393.9,305.524,396.909,308.461,396.909,308.461z"/>
	</g>
	<g>
		<circle fill="#F9A369" cx="384.797" cy="333.688" r="3.536"/>
		<path fill="#7D5235" d="M384.797,337.525c-2.116,0-3.837-1.722-3.837-3.837c0-2.116,1.721-3.838,3.837-3.838
			c2.115,0,3.837,1.722,3.837,3.838C388.634,335.804,386.912,337.525,384.797,337.525z M384.797,330.453
			c-1.784,0-3.235,1.451-3.235,3.235c0,1.783,1.451,3.235,3.235,3.235c1.783,0,3.235-1.452,3.235-3.235
			C388.032,331.904,386.58,330.453,384.797,330.453z"/>
	</g>
</g>
</svg>
