<svg version="1.1" id="Layer_1" xmlns="http://www.w3.org/2000/svg" xmlns:xlink="http://www.w3.org/1999/xlink" viewBox="0 0 768 430" enable-background="new 0 0 768 430" xml:space="preserve">
<g>
	<g>
		<g>
			<path fill="#F4C04B" d="M279.576,282.132c-49.44,29.346-119.52,21.222-172.636-12.701c-18.357-11.724-29.29-32.16-29.08-53.94
				l0,0c0.21-21.795,11.588-41.968,30.149-53.394c53.161-32.727,122.447-37.947,172.144-7.549
				C328.092,183.871,327.899,253.448,279.576,282.132z"/>
		</g>
	</g>
	<path fill="#E6B055" d="M280.153,154.548c-3.893-2.382-7.907-4.544-12.023-6.492c24.667,33.773,17.286,84.409-22.147,107.815
		c-44.686,26.524-106.231,22.438-156.874-3.641c4.675,6.762,10.691,12.641,17.831,17.2c53.116,33.923,123.195,42.047,172.636,12.701
		C327.899,253.448,328.092,183.871,280.153,154.548z"/>
	<path fill="#D2903B" d="M281.161,275.242c-51.473,28.564-123.86,21.627-180.075-10.045c1.856,1.512,3.809,2.928,5.854,4.233
		c53.116,33.923,123.195,42.047,172.636,12.701c14.243-8.454,24.304-20.463,30.184-33.944
		C303.278,258.849,293.747,268.258,281.161,275.242z"/>
	<circle fill="#CB873C" cx="248.198" cy="270.496" r="1.27"/>
	<circle fill="#CB873C" cx="274.081" cy="232.64" r="1.814"/>
	<circle fill="#CB873C" cx="236.744" cy="228.91" r="2.705"/>
	<circle fill="#CB873C" cx="211.088" cy="266.404" r="1.964"/>
	<circle fill="#CB873C" cx="223.607" cy="196.059" r="2.905"/>
	<circle fill="#CB873C" cx="241.778" cy="166.997" r="2.328"/>
	<circle fill="#CB873C" cx="189.794" cy="149.412" r="2.946"/>
	<circle fill="#CB873C" cx="160.534" cy="196.059" r="2.783"/>
	<circle fill="#CB873C" cx="285.289" cy="194.666" r="1.392"/>
	<circle fill="#CB873C" cx="99.757" cy="223.086" r="1.27"/>
	<circle fill="#CB873C" cx="130.506" cy="265.146" r="1.258"/>
	<circle fill="#CB873C" cx="168.333" cy="273.883" r="2.117"/>
	<circle fill="#CB873C" cx="143.782" cy="171.365" r="2.04"/>
	<circle fill="#CB873C" cx="145.822" cy="228.91" r="1.395"/>
	<ellipse fill="#CB873C" cx="193.73" cy="212.503" rx="0.99" ry="5.08"/>
	<ellipse fill="#CB873C" cx="227.549" cy="168.797" rx="1.036" ry="5.608"/>
	<ellipse fill="#CB873C" cx="263.896" cy="199.124" rx="0.741" ry="5.972"/>
	<ellipse fill="#CB873C" cx="169.627" cy="168.69" rx="1.293" ry="7.408"/>
	<ellipse fill="#CB873C" cx="109.387" cy="185.578" rx="1.376" ry="7.575"/>
	<ellipse fill="#CB873C" cx="128.613" cy="242.527" rx="1.552" ry="8.074"/>
	<ellipse fill="#CB873C" cx="277.25" cy="262.024" rx="1.355" ry="6.344"/>
	<ellipse fill="#CB873C" cx="302.1" cy="228.73" rx="1.552" ry="6.914"/>
	<ellipse fill="#CB873C" cx="189.711" cy="258.361" rx="1.764" ry="4.939"/>
</g>
<g>
	<g>
		<g>
			<g>
				<path fill="#F4C04B" d="M571.195,277.684c-51.648,30.656-124.857,22.169-180.346-13.269
					c-19.177-12.247-30.598-33.597-30.378-56.35l0,0c0.219-22.769,12.105-43.843,31.496-55.778
					c55.535-34.188,127.916-39.643,179.832-7.886C621.879,175.034,621.678,247.719,571.195,277.684z"/>
			</g>
		</g>
		<path fill="#E6B055" d="M571.799,144.401c-4.066-2.488-8.26-4.747-12.56-6.782c25.769,35.282,18.058,88.18-23.136,112.631
			c-46.682,27.709-110.977,23.439-163.881-3.804c4.884,7.064,11.168,13.205,18.627,17.969
			c55.488,35.438,128.697,43.925,180.346,13.269C621.678,247.719,621.879,175.034,571.799,144.401z"/>
		<path fill="#D2903B" d="M572.852,270.485c-53.771,29.84-129.393,22.593-188.117-10.493c1.939,1.58,3.979,3.059,6.115,4.423
			c55.488,35.438,128.697,43.925,180.346,13.269c14.88-8.832,25.39-21.377,31.533-35.461
			C595.957,253.36,586,263.189,572.852,270.485z"/>
		<circle fill="#CB873C" cx="538.417" cy="265.528" r="1.327"/>
		<circle fill="#CB873C" cx="565.456" cy="225.98" r="1.896"/>
		<circle fill="#CB873C" cx="526.451" cy="222.085" r="2.826"/>
		<circle fill="#CB873C" cx="499.649" cy="261.254" r="2.052"/>
		<circle fill="#CB873C" cx="512.728" cy="187.766" r="3.035"/>
		<circle fill="#CB873C" cx="531.71" cy="157.406" r="2.433"/>
		<circle fill="#CB873C" cx="477.405" cy="139.036" r="3.077"/>
		<circle fill="#CB873C" cx="446.838" cy="187.766" r="2.908"/>
		<circle fill="#CB873C" cx="577.165" cy="186.312" r="1.454"/>
		<circle fill="#CB873C" cx="383.346" cy="216" r="1.327"/>
		<circle fill="#CB873C" cx="415.469" cy="259.939" r="1.314"/>
		<circle fill="#CB873C" cx="454.985" cy="269.066" r="2.211"/>
		<circle fill="#CB873C" cx="429.336" cy="161.97" r="2.131"/>
		<circle fill="#CB873C" cx="431.468" cy="222.085" r="1.457"/>
		<ellipse fill="#CB873C" cx="481.517" cy="204.945" rx="1.034" ry="5.306"/>
		<ellipse fill="#CB873C" cx="516.845" cy="159.286" rx="1.083" ry="5.859"/>
		<ellipse fill="#CB873C" cx="554.816" cy="190.969" rx="0.774" ry="6.237"/>
		<ellipse fill="#CB873C" cx="456.336" cy="159.176" rx="1.351" ry="7.738"/>
		<ellipse fill="#CB873C" cx="393.407" cy="176.817" rx="1.437" ry="7.913"/>
		<ellipse fill="#CB873C" cx="413.491" cy="236.311" rx="1.622" ry="8.434"/>
		<ellipse fill="#CB873C" cx="568.767" cy="256.678" rx="1.416" ry="6.627"/>
		<ellipse fill="#CB873C" cx="594.726" cy="221.896" rx="1.622" ry="7.223"/>
		<ellipse fill="#CB873C" cx="477.317" cy="252.852" rx="1.843" ry="5.159"/>
	</g>
	<g>
		<g>
			<defs>
				<polygon id="SVGID_1_" points="545.152,122.371 574.831,114.937 682.289,178.245 685.535,267.575 641.826,319.616 
					555.357,315.431 489.024,290.471 491.834,275.567 				"/>
			</defs>
			<clipPath id="SVGID_2_">
				<use xlink:href="#SVGID_1_"  overflow="visible"/>
			</clipPath>
			<g clip-path="url(#SVGID_2_)">
				<g>
					<g>
						<path fill="#F4C04B" d="M610,303.148c-58.854,11.977-125.206-20.104-165.963-71.811
							c-14.086-17.87-17.854-41.788-10.168-63.204l0,0c7.691-21.432,25.844-37.427,48.08-42.327
							c63.687-14.033,133.838,4.607,172.432,51.664C691.608,222.862,667.527,291.442,610,303.148z"/>
					</g>
				</g>
				<path fill="#E6B055" d="M654.381,177.471c-3.023-3.687-6.24-7.198-9.633-10.534c12.739,41.792-11.93,89.216-58.873,98.769
					c-53.195,10.824-112.514-14.342-153.523-57.461c2.29,8.277,6.207,16.143,11.686,23.094
					c40.757,51.707,107.108,83.787,165.963,71.811C667.527,291.442,691.608,222.862,654.381,177.471z"/>
				<path fill="#D2903B" d="M613.931,296.896c-60.593,10.507-129.629-21.194-174.216-71.745c1.312,2.129,2.753,4.196,4.322,6.188
					c40.757,51.707,107.108,83.787,165.963,71.811c16.957-3.451,31.006-11.844,41.437-23.126
					C641.381,288.316,628.746,294.326,613.931,296.896z"/>
				<circle fill="#CB873C" cx="583.038" cy="280.895" r="1.326"/>
				<circle fill="#CB873C" cx="621.574" cy="252.432" r="1.895"/>
				<circle fill="#CB873C" cx="586.019" cy="235.932" r="2.826"/>
				<circle fill="#CB873C" cx="547.83" cy="264.115" r="2.051"/>
				<circle fill="#CB873C" cx="584.338" cy="199.008" r="3.034"/>
				<circle fill="#CB873C" cx="612.244" cy="176.576" r="2.432"/>
				<circle fill="#CB873C" cx="566.994" cy="141.376" r="3.077"/>
				<circle fill="#CB873C" cx="522.109" cy="177.351" r="2.908"/>
				<circle fill="#CB873C" cx="645.672" cy="218.815" r="1.454"/>
				<circle fill="#CB873C" cx="452.864" cy="183.147" r="1.327"/>
				<circle fill="#CB873C" cx="468.759" cy="235.203" r="1.314"/>
				<circle fill="#CB873C" cx="503.08" cy="256.812" r="2.211"/>
				<circle fill="#CB873C" cx="514.06" cy="147.236" r="2.131"/>
				<circle fill="#CB873C" cx="496.312" cy="204.711" r="1.456"/>
				
					<ellipse transform="matrix(0.9444 0.3287 -0.3287 0.9444 97.8792 -169.1211)" fill="#CB873C" cx="549.213" cy="204.974" rx="1.034" ry="5.307"/>
				
					<ellipse transform="matrix(-0.9445 -0.3284 0.3284 -0.9445 1105.0724 533.5463)" fill="#CB873C" cx="597.587" cy="173.465" rx="1.082" ry="5.86"/>
				
					<ellipse transform="matrix(0.9445 0.3285 -0.3285 0.9445 105.4868 -192.6848)" fill="#CB873C" cx="623.034" cy="215.868" rx="0.774" ry="6.238"/>
				
					<ellipse transform="matrix(0.9445 0.3285 -0.3285 0.9445 80.3928 -169.0057)" fill="#CB873C" cx="540.478" cy="153.471" rx="1.351" ry="7.739"/>
				
					<ellipse transform="matrix(0.9445 0.3285 -0.3285 0.9445 75.4784 -147.8386)" fill="#CB873C" cx="475.245" cy="149.448" rx="1.437" ry="7.914"/>
				
					<ellipse transform="matrix(0.9444 0.3288 -0.3288 0.9444 96.1925 -144.2863)" fill="#CB873C" cx="474.658" cy="212.236" rx="1.621" ry="8.435"/>
				
					<ellipse transform="matrix(0.9445 0.3285 -0.3285 0.9445 126.9174 -186.2253)" fill="#CB873C" cx="614.611" cy="282.512" rx="1.417" ry="6.626"/>
				
					<ellipse transform="matrix(0.9444 0.3288 -0.3288 0.9444 121.0892 -199.5753)" fill="#CB873C" cx="650.561" cy="258.195" rx="1.621" ry="7.224"/>
				
					<ellipse transform="matrix(0.9445 0.3286 -0.3286 0.9445 111.1733 -160.1771)" fill="#CB873C" cx="529.501" cy="248.839" rx="1.843" ry="5.159"/>
			</g>
		</g>
		
			<ellipse transform="matrix(-0.9444 -0.3287 0.3287 -0.9444 944.7749 558.4072)" fill="#E6B055" cx="519.585" cy="199.35" rx="51.518" ry="81.104"/>
		
			<ellipse transform="matrix(-0.9444 -0.3287 0.3287 -0.9444 949.3289 560.9147)" fill="#E6B055" cx="522.075" cy="200.216" rx="51.518" ry="81.105"/>
		
			<ellipse transform="matrix(-0.9444 -0.3287 0.3287 -0.9444 942.8047 557.3307)" fill="#FEE383" cx="518.51" cy="198.976" rx="47.743" ry="78.941"/>
		<path fill="#F8DC74" d="M569.989,165.17c-0.663,10.382-2.861,21.426-6.725,32.525c-14.331,41.176-46.136,67.528-71.038,58.861
			c-14.367-5-23.299-20.566-25.531-40.749c-1.797,28.128,7.678,51.392,25.867,57.723c24.902,8.667,56.707-17.687,71.038-58.861
			C569.663,197.25,571.627,179.969,569.989,165.17z"/>
	</g>
</g>
</svg>
