<svg version="1.1" id="Layer_1" xmlns="http://www.w3.org/2000/svg" xmlns:xlink="http://www.w3.org/1999/xlink" viewBox="0 0 768 430" enable-background="new 0 0 768 430" xml:space="preserve">
<g>
	<path fill="#87B147" d="M396.907,53.046l-0.006-0.002l-0.007-0.001c-23.083,9.891-37.949,31.888-42.182,55.713
		c-8.214-9.201-19.483-15.594-32.256-16.649l-0.004,0.003l-0.003,0.002c-7.881,19.695-0.848,42.246,14.017,56.202
		c-8.672,1.963-16.758,6.362-22.858,13.322v0.004l-0.001,0.004c13.663,22.138,46.128,26.952,66.382,11.858
		c18.222,12.335,45.473,10.776,60.574-6.452l0.001-0.004v-0.004c-2.896-4.69-6.636-8.601-10.924-11.712
		c10.86-11.091,17.114-26.689,14.619-42.602l-0.004-0.003l-0.003-0.003c-12.339-1.771-24.421,1.698-34.329,8.457
		C416.562,98.108,413.014,72.053,396.907,53.046z"/>
	<path fill="#F62F0A" d="M354.33,361.531l-56.213-56.213c-27.706-27.707-43.271-65.285-43.271-104.469l0,0
		c0-38.016,30.816-68.832,68.831-68.832H446.07c38.015,0,68.832,30.816,68.832,68.832l0,0c0,39.184-15.565,76.762-43.272,104.469
		l-56.213,56.213C398.549,378.399,371.199,378.399,354.33,361.531z"/>
	<path fill="#F65C42" d="M331.19,167.064c-0.72-0.15-1.446-0.26-2.179-0.327c-4.262-0.389-9.697,13.231-18.611,17.724
		c-8.42,4.243-17.31,11.962-19.853,18.34c-0.64,1.605-1.897,4.804-2.092,6.521l0,0l-8.217,5.932l0,0
		c-0.402,3.565,0.188,7.172,1.704,10.424l4.517,9.686c0.247,0.529,0.518,1.047,0.812,1.553l13.938,23.992
		c0.915,1.576,2.048,3.017,3.363,4.277l0,0c6.456,6.19,16.297,7.191,23.867,2.429l0,0l7.606-11.87l0,0
		c1.787-1.124,2.009-6.316,3.345-7.951l11.002-17.841l0,0c1.914-2.342,7.161-3.074,7.825-6.023l0,0l9.826-16.4l0,0
		c0.918-4.077,5.816-12.504,4.127-16.326h-0.001l-11.428-9.665l0,0c-2.54-5.747-7.696-9.916-13.848-11.198L331.19,167.064z"/>
	<path fill="#B02F0A" d="M467.402,290.304l-61.703,56.212c-17.32,15.779-44.705,16.797-63.326,3.059l11.957,11.957
		c16.869,16.868,44.219,16.868,61.087,0l56.213-56.213c27.707-27.707,43.272-65.285,43.272-104.469l0,0
		c0-2.112-0.101-4.2-0.287-6.264C512.273,230.578,495.544,264.666,467.402,290.304z"/>
	<g>
		<g>
			<g>
				<g>
					<g>
						<g>
							<path fill="#B02F0A" d="M402.137,367.188c-2.946-0.04-4.229-3.025-4.711-4.148c-0.696-1.621-1.188-3.502-1.348-5.159
								c-0.16-1.67,0.393-3.302,1.557-4.596c1.263-1.403,3.095-2.218,5.028-2.236h0.062c2.001,0,3.834,0.848,5.034,2.327
								c1.116,1.374,1.548,3.151,1.186,4.876c-0.343,1.641-1.048,3.503-1.935,5.108c-0.984,1.782-2.424,3.828-4.832,3.828H402.137z"
								/>
						</g>
					</g>
					<g>
						<g>
							<path fill="#B02F0A" d="M368.274,367.188v-0.196c-1.751-0.577-2.851-2.316-3.563-3.686c-0.83-1.597-1.472-3.452-1.76-5.091
								c-0.298-1.69,0.175-3.428,1.299-4.767c1.227-1.462,3.073-2.3,5.067-2.3c1.986,0.006,3.841,0.832,5.089,2.267
								c1.135,1.304,1.656,3.006,1.43,4.67c-0.224,1.644-0.79,3.505-1.555,5.108c-0.439,0.922-1.492,3.131-3.532,3.799v0.195
								H368.274z"/>
						</g>
					</g>
					<g>
						<path fill="#CC2F0A" d="M351.63,336.902c-2.564-0.046-3.938-2.329-4.943-4.557c-0.849-1.88-1.509-4.032-1.811-5.904
							c-0.308-1.898,0.222-3.816,1.453-5.265c1.229-1.443,3.033-2.271,4.951-2.271l0.121,0.001c1.897,0.037,3.702,0.875,4.964,2.299
							c1.252,1.411,1.864,3.28,1.679,5.129c-0.188,1.875-0.712,4.019-1.438,5.881c-0.546,1.402-1.824,4.688-4.912,4.688H351.63z"/>
					</g>
					<g>
						<path fill="#CC2F0A" d="M386.36,337.119c-3.034-0.001-4.328-3.123-4.95-4.624c-0.774-1.868-1.35-4.016-1.58-5.892
							c-0.228-1.868,0.359-3.756,1.613-5.181c1.267-1.441,3.096-2.275,5.017-2.288h0.044c1.934,0,3.763,0.831,5.018,2.28
							c1.246,1.438,1.805,3.343,1.533,5.229c-0.27,1.874-0.893,4.025-1.711,5.899c-0.645,1.479-1.986,4.553-4.949,4.576h-0.005
							H386.36z"/>
					</g>
					<g>
						<g>
							<path fill="#B02F0A" d="M420.747,336.47c-3.139-0.001-4.354-3.334-4.872-4.757c-0.677-1.857-1.152-3.996-1.304-5.866
								c-0.148-1.837,0.484-3.695,1.736-5.099c1.247-1.398,3.015-2.236,4.849-2.297c0.07-0.002,0.146-0.004,0.221-0.004
								c1.885,0,3.653,0.818,4.853,2.243c1.223,1.453,1.732,3.386,1.399,5.303c-0.322,1.866-1.002,4.02-1.864,5.906
								c-1.062,2.325-2.39,4.488-4.888,4.568l-0.053,0.002H420.747z"/>
						</g>
					</g>
					<g>
						<g>
							<path fill="#B02F0A" d="M470.48,298.826c-3.184,0-4.263-3.392-4.781-5.021c-0.601-1.889-1.035-4.052-1.192-5.935
								c-0.167-1.989,0.469-3.972,1.744-5.438c1.124-1.292,2.634-2.053,4.249-2.142c0.106-0.006,0.211-0.01,0.315-0.01
								c1.645,0,3.169,0.694,4.292,1.955c1.271,1.426,1.865,3.414,1.629,5.453c-0.215,1.883-0.723,4.085-1.392,6.04
								c-0.807,2.358-1.894,4.89-4.584,5.087l-0.134,0.01H470.48L470.48,298.826z"/>
						</g>
					</g>
					<g>
						<path fill="#CC2F0A" d="M439.137,300.52c-3.178,0-4.35-3.4-4.913-5.035c-0.68-1.97-1.171-4.229-1.348-6.195
							c-0.177-1.98,0.473-3.962,1.781-5.438c1.232-1.389,2.896-2.184,4.685-2.237c0.061-0.002,0.126-0.003,0.191-0.003
							c1.792,0,3.502,0.783,4.694,2.15c1.289,1.478,1.869,3.486,1.592,5.511c-0.269,1.964-0.874,4.246-1.664,6.261
							c-0.922,2.356-2.136,4.879-4.869,4.983l-0.089,0.003h-0.058H439.137z"/>
					</g>
					<g>
						<path fill="#CC2F0A" d="M404.589,301.461c-3.139,0-4.406-3.381-5.017-5.006c-0.759-2.022-1.318-4.337-1.535-6.35
							c-0.213-1.989,0.422-3.983,1.743-5.473c1.268-1.428,3.069-2.26,4.941-2.283h0.071c1.896,0,3.697,0.82,4.949,2.252
							c1.31,1.496,1.905,3.508,1.637,5.519s-0.895,4.335-1.717,6.377c-1.029,2.558-2.35,4.929-5.022,4.963l-0.046,0.001H404.589z"/>
					</g>
					<g>
						<path fill="#CC2F0A" d="M368.644,301.648c-2.699-0.005-4.02-2.391-5.046-4.969c-0.812-2.045-1.426-4.377-1.682-6.397
							c-0.254-2.007,0.356-4.016,1.676-5.514c1.272-1.443,3.096-2.271,5.002-2.271c1.92,0.008,3.751,0.839,5.028,2.281
							c1.324,1.494,1.949,3.498,1.715,5.497c-0.237,2.021-0.827,4.35-1.618,6.387c-1.006,2.59-2.312,4.986-5.051,4.986H368.644z"/>
					</g>
					<g>
						<path fill="#CC2F0A" d="M333.103,301.082c-2.632-0.063-3.937-2.424-4.955-4.965c-0.815-2.033-1.439-4.342-1.714-6.334
							c-0.277-2.016,0.308-4.026,1.606-5.516c1.226-1.406,2.989-2.213,4.839-2.213l0.119,0.001c1.867,0.038,3.585,0.844,4.851,2.269
							c1.316,1.481,1.961,3.468,1.768,5.449c-0.195,1.995-0.721,4.287-1.442,6.287c-0.587,1.631-1.809,5.023-4.97,5.023
							L333.103,301.082z"/>
					</g>
					<g>
						<path fill="#CC2F0A" d="M299.921,299.768l-0.116-0.007c-2.691-0.146-3.854-2.667-4.73-5.021
							c-0.742-1.989-1.311-4.237-1.561-6.167c-0.264-2.029,0.318-4.03,1.6-5.488c1.169-1.331,2.771-2.064,4.512-2.064
							c0.085,0,0.168,0.002,0.253,0.005c1.706,0.07,3.301,0.851,4.486,2.195c1.296,1.471,1.943,3.449,1.776,5.43
							c-0.163,1.932-0.623,4.147-1.262,6.08c-0.539,1.635-1.663,5.037-4.85,5.037H299.921z"/>
					</g>
					<g>
						<path fill="#CC2F0A" d="M284.352,262.846c-3.122-0.055-4.18-3.348-4.748-5.116c-0.623-1.939-1.086-4.135-1.268-6.023
							c-0.199-2.06,0.434-4.075,1.738-5.531c1.134-1.265,2.657-1.974,4.288-1.995h0.062c1.655,0,3.194,0.701,4.344,1.974
							c1.317,1.459,1.952,3.483,1.74,5.554c-0.195,1.904-0.666,4.105-1.291,6.038c-0.576,1.782-1.649,5.102-4.805,5.102
							L284.352,262.846z"/>
					</g>
					<g>
						<g>
							<path fill="#F62F0A" d="M315.518,263.108c-2.736-0.024-3.993-2.47-4.943-5.11c-0.736-2.044-1.281-4.361-1.496-6.355
								c-0.222-2.042,0.414-4.069,1.743-5.561c1.232-1.383,2.905-2.152,4.708-2.164h0.044c1.81,0,3.489,0.764,4.728,2.15
								c1.335,1.494,1.967,3.528,1.734,5.581c-0.228,2.004-0.776,4.318-1.505,6.351c-0.641,1.785-1.833,5.108-4.974,5.108H315.518z"
								/>
						</g>
					</g>
					<g>
						<path fill="#CC2F0A" d="M350.383,263.254c-2.75-0.008-4.059-2.462-5.064-5.114c-0.795-2.097-1.387-4.478-1.623-6.53
							c-0.235-2.039,0.399-4.074,1.74-5.584c1.269-1.427,3.072-2.248,4.948-2.253c1.891,0,3.702,0.819,4.972,2.247
							c1.344,1.512,1.976,3.55,1.734,5.594c-0.243,2.058-0.835,4.436-1.625,6.525c-1.005,2.657-2.313,5.115-5.07,5.115H350.383z"/>
					</g>
					<g>
						<path fill="#CC2F0A" d="M386.814,263.283c-2.756-0.001-4.076-2.46-5.091-5.117c-0.804-2.103-1.404-4.494-1.649-6.56
							c-0.24-2.044,0.393-4.084,1.738-5.598c1.28-1.44,3.103-2.266,5-2.266c1.9,0.001,3.725,0.828,5.005,2.269
							c1.345,1.513,1.979,3.551,1.738,5.593c-0.241,2.064-0.842,4.457-1.647,6.562C390.892,260.824,389.571,263.283,386.814,263.283
							L386.814,263.283z"/>
					</g>
					<g>
						<path fill="#CC2F0A" d="M422.716,263.195c-2.767,0-4.056-2.457-5.039-5.112c-0.765-2.065-1.34-4.417-1.577-6.453
							c-0.238-2.049,0.394-4.087,1.733-5.591c1.25-1.403,3.022-2.209,4.863-2.209c1.885,0.009,3.616,0.797,4.881,2.22
							c1.336,1.501,1.971,3.533,1.741,5.574c-0.227,2.028-0.8,4.384-1.571,6.46c-0.983,2.645-2.271,5.096-5.016,5.111h-0.004
							H422.716z"/>
					</g>
					<g>
						<path fill="#CC2F0A" d="M455.96,262.992c-3.145-0.002-4.283-3.321-4.896-5.104c-0.682-1.987-1.195-4.251-1.409-6.21
							c-0.225-2.061,0.408-4.091,1.736-5.57c1.199-1.337,2.815-2.073,4.552-2.073h0.044c1.739,0.017,3.345,0.76,4.534,2.091
							c1.318,1.477,1.953,3.499,1.741,5.549c-0.199,1.945-0.707,4.209-1.395,6.207c-0.608,1.772-1.741,5.072-4.856,5.111h-0.047
							H455.96z"/>
					</g>
					<g>
						<path fill="#CC2F0A" d="M484.468,262.672c-3.17-0.002-4.124-3.194-4.693-5.103c-0.558-1.869-0.977-3.993-1.148-5.827
							c-0.192-2.057,0.459-4.125,1.743-5.534c1.088-1.195,2.536-1.854,4.075-1.854h0.078c1.533,0.026,2.959,0.693,4.025,1.879
							c1.264,1.405,1.908,3.468,1.726,5.517c-0.162,1.814-0.567,3.925-1.113,5.789c-0.554,1.893-1.481,5.06-4.604,5.131
							l-0.081,0.002H484.468z"/>
					</g>
					<g>
						<path fill="#CC2F0A" d="M470.62,226.742l-0.096-0.005c-2.972-0.155-4.033-3.244-4.667-5.091
							c-0.667-1.943-1.188-4.141-1.426-6.027c-0.255-2.027,0.323-4.011,1.586-5.442c1.127-1.278,2.663-1.981,4.326-1.981
							c0.136,0,0.273,0.005,0.411,0.015c1.61,0.115,3.105,0.891,4.212,2.184c1.249,1.459,1.871,3.425,1.707,5.393
							c-0.154,1.864-0.586,4.021-1.185,5.913c-0.518,1.637-1.595,5.043-4.778,5.043H470.62z"/>
					</g>
					<g>
						<path fill="#CC2F0A" d="M439.37,225.413c-2.782-0.082-4-2.635-4.924-5.021c-0.779-2.012-1.387-4.288-1.666-6.246
							c-0.286-2.013,0.283-4.012,1.562-5.484c1.189-1.37,2.902-2.157,4.699-2.157c0.083,0,0.166,0.002,0.25,0.006
							c1.782,0.071,3.436,0.873,4.657,2.256c1.29,1.461,1.936,3.419,1.771,5.373c-0.163,1.95-0.649,4.214-1.335,6.208
							c-0.566,1.646-1.742,5.067-4.927,5.067L439.37,225.413z"/>
					</g>
					<g>
						<path fill="#CC2F0A" d="M404.743,224.676c-2.705-0.034-4.025-2.43-5.052-5.015c-0.814-2.052-1.436-4.374-1.703-6.372
							c-0.267-1.998,0.326-3.994,1.625-5.479c1.248-1.427,3.046-2.245,4.933-2.245l0.097,0.001c1.875,0.03,3.669,0.861,4.931,2.281
							c1.309,1.472,1.944,3.444,1.745,5.411c-0.203,1.999-0.757,4.319-1.52,6.367c-0.61,1.64-1.882,5.05-5.03,5.05H404.743z"/>
					</g>
					<g>
						<g>
							<path fill="#CC2F0A" d="M368.613,224.529c-2.756,0-4.065-2.421-5.07-5.036c-0.791-2.059-1.375-4.392-1.602-6.398
								c-0.224-1.981,0.401-3.965,1.715-5.444c1.274-1.434,3.094-2.263,4.99-2.272h0.035c1.904,0,3.725,0.824,4.994,2.261
								c1.311,1.483,1.921,3.477,1.674,5.467c-0.25,2.008-0.856,4.34-1.666,6.399c-1.021,2.601-2.341,5.009-5.057,5.024h-0.003
								H368.613z"/>
						</g>
					</g>
					<g>
						<g>
							<path fill="#F62F0A" d="M332.934,224.971c-3.17,0-4.396-3.418-4.985-5.062c-0.727-2.027-1.247-4.325-1.428-6.306
								c-0.179-1.956,0.465-3.92,1.767-5.385c1.258-1.417,2.966-2.225,4.811-2.275c0.057-0.001,0.117-0.002,0.178-0.002
								c1.851,0,3.612,0.806,4.834,2.21c1.288,1.481,1.865,3.479,1.585,5.483c-0.279,1.983-0.9,4.288-1.706,6.323
								c-0.946,2.395-2.19,4.954-4.975,5.013h-0.075H332.934z"/>
						</g>
					</g>
					<g>
						<g>
							<path fill="#F62F0A" d="M299.717,226.004c-3.189,0-4.315-3.419-4.856-5.062c-0.643-1.95-1.099-4.167-1.252-6.081
								c-0.158-1.956,0.482-3.914,1.757-5.372c1.172-1.342,2.753-2.132,4.454-2.225c0.11-0.006,0.22-0.009,0.329-0.009
								c1.751,0,3.359,0.739,4.529,2.08c1.27,1.457,1.838,3.451,1.56,5.47c-0.267,1.928-0.841,4.17-1.575,6.151
								c-0.883,2.383-2.054,4.934-4.791,5.044l-0.075,0.003H299.717z"/>
						</g>
					</g>
					<g>
						<path fill="#CC2F0A" d="M270.919,227.627c-3.163,0-4.158-3.256-4.693-5.004c-0.557-1.821-0.974-3.901-1.144-5.707
							c-0.154-1.643,0.223-3.299,1.062-4.662c1.032-1.679,2.663-2.738,4.475-2.908c0.166-0.016,0.337-0.024,0.507-0.024
							c1.558,0,3.01,0.66,4.09,1.857c1.257,1.393,1.856,3.356,1.646,5.389c-0.191,1.839-0.633,3.983-1.21,5.885
							c-0.601,1.977-1.509,4.964-4.473,5.165l-0.124,0.01h-0.134H270.919z"/>
					</g>
					<g>
						<path fill="#CC2F0A" d="M285.567,191.317c-3.18-0.001-4.296-3.444-4.772-4.915c-0.597-1.844-1.017-3.951-1.151-5.781
							c-0.278-3.766,2.505-7.182,6.079-7.459c0.155-0.012,0.312-0.018,0.467-0.018c1.719,0,3.347,0.752,4.468,2.062
							c1.215,1.421,1.736,3.355,1.43,5.309c-0.289,1.834-0.876,3.976-1.608,5.88c-0.909,2.362-2.013,4.688-4.58,4.908l-0.157,0.014
							h-0.171H285.567z"/>
					</g>
					<g>
						<g>
							<path fill="#CC2F0A" d="M317.234,189.262c-3.19,0-4.354-3.425-4.852-4.888c-0.642-1.887-1.073-4.029-1.184-5.878
								c-0.11-1.812,0.537-3.643,1.776-5.021c1.222-1.359,2.941-2.186,4.717-2.267c0.101-0.005,0.199-0.007,0.297-0.007
								c1.852,0,3.584,0.804,4.754,2.204c1.201,1.439,1.69,3.361,1.344,5.271c-0.336,1.834-1.006,3.974-1.84,5.871
								c-0.971,2.208-2.224,4.575-4.813,4.708l-0.095,0.005H317.234L317.234,189.262z"/>
						</g>
					</g>
					<g>
						<g>
							<path fill="#CC2F0A" d="M351.337,188.12c-3.112-0.001-4.346-3.231-4.938-4.784c-0.728-1.906-1.24-4.062-1.407-5.915
								c-0.165-1.816,0.451-3.649,1.688-5.029c1.261-1.405,3.061-2.231,4.94-2.267l0.115-0.002c1.933,0,3.736,0.823,4.961,2.258
								c1.214,1.421,1.739,3.309,1.442,5.179c-0.294,1.842-0.941,3.988-1.776,5.891c-1.049,2.39-2.372,4.608-4.934,4.669
								l-0.083,0.001H351.337z"/>
						</g>
					</g>
					<g>
						<path fill="#CC2F0A" d="M386.451,187.892c-2.993-0.033-4.329-3.179-4.971-4.69c-0.81-1.906-1.42-4.058-1.674-5.903
							c-0.255-1.854,0.303-3.724,1.53-5.132c1.252-1.436,3.076-2.258,5.007-2.258h0.034c1.924,0.012,3.748,0.835,5.012,2.26
							c1.236,1.393,1.825,3.244,1.616,5.079c-0.209,1.852-0.772,4.008-1.545,5.915c-0.621,1.535-1.914,4.729-4.976,4.729H386.451z"
							/>
					</g>
					<g>
						<path fill="#CC2F0A" d="M421.161,188.575c-2.524-0.095-3.849-2.303-4.903-4.674c-0.845-1.898-1.514-4.04-1.837-5.875
							c-0.33-1.892,0.171-3.798,1.376-5.23c1.196-1.424,2.969-2.241,4.863-2.241c0.07,0,0.141,0.002,0.212,0.004
							c1.832,0.058,3.598,0.885,4.845,2.268c1.239,1.374,1.875,3.199,1.746,5.009c-0.133,1.853-0.6,4.004-1.281,5.902
							c-0.521,1.448-1.738,4.84-4.896,4.84L421.161,188.575z"/>
					</g>
					<g>
						<path fill="#CC2F0A" d="M454.23,190.176l-0.121-0.007c-2.593-0.175-3.807-2.562-4.741-4.786
							c-0.798-1.899-1.442-4.037-1.768-5.867c-0.342-1.936,0.152-3.869,1.356-5.305c1.145-1.363,2.829-2.146,4.622-2.146
							c0.126,0,0.253,0.004,0.382,0.012c1.782,0.107,3.43,0.945,4.639,2.357c1.199,1.4,1.799,3.172,1.688,4.989
							c-0.11,1.839-0.524,3.966-1.136,5.835c-0.48,1.472-1.607,4.917-4.809,4.917H454.23z"/>
					</g>
					<g>
						<path fill="#CC2F0A" d="M484.074,192.688l-0.205-0.021c-2.608-0.283-3.608-2.672-4.41-5.095
							c-0.632-1.912-1.121-4.06-1.341-5.893c-0.236-1.972,0.336-3.899,1.569-5.289c1.116-1.259,2.641-1.951,4.291-1.951
							c0.185,0,0.371,0.009,0.556,0.026c1.604,0.155,3.079,0.966,4.154,2.281c1.204,1.473,1.778,3.426,1.577,5.358
							c-0.189,1.816-0.645,3.896-1.248,5.707c-0.528,1.582-1.626,4.876-4.749,4.876H484.074z"/>
					</g>
					<g>
						<path fill="#CC2F0A" d="M468.059,157.379l-0.057-0.002c-2.56-0.116-3.814-2.379-4.789-4.49
							c-0.828-1.791-1.504-3.815-1.854-5.553c-0.376-1.867,0.087-3.766,1.267-5.209c1.184-1.448,2.96-2.281,4.872-2.286
							c1.828,0,3.595,0.771,4.849,2.113s1.902,3.15,1.779,4.961c-0.122,1.794-0.549,3.865-1.171,5.683
							c-0.49,1.432-1.638,4.784-4.798,4.784L468.059,157.379z"/>
					</g>
					<g>
						<path fill="#CC2F0A" d="M435.679,156.478c-2.353-0.073-3.715-2.012-4.837-4.097c-0.902-1.676-1.648-3.568-2.048-5.191
							c-0.432-1.769-0.046-3.591,1.06-5.001c1.167-1.489,2.982-2.346,4.98-2.35c1.871,0,3.679,0.763,4.963,2.092
							c1.208,1.251,1.843,2.863,1.784,4.54c-0.059,1.694-0.439,3.667-1.046,5.41c-0.437,1.258-1.598,4.598-4.761,4.598
							L435.679,156.478z"/>
					</g>
					<g>
						<path fill="#CC2F0A" d="M402.645,155.978c-2.41-0.041-3.789-2.054-4.82-4.017c-0.861-1.638-1.542-3.485-1.868-5.069
							c-0.345-1.683,0.082-3.411,1.169-4.745c1.195-1.465,3.034-2.306,5.048-2.308c1.938,0,3.774,0.786,5.039,2.155
							c1.148,1.244,1.709,2.828,1.578,4.461c-0.13,1.629-0.603,3.529-1.299,5.215c-0.486,1.178-1.779,4.309-4.793,4.309
							L402.645,155.978z"/>
					</g>
					<g>
						<path fill="#CC2F0A" d="M369.321,155.878c-2.915-0.008-4.243-2.927-4.811-4.173c-0.756-1.661-1.301-3.534-1.495-5.14
							c-0.198-1.645,0.312-3.25,1.438-4.521c1.243-1.401,3.086-2.206,5.056-2.206c2,0.001,3.845,0.825,5.062,2.261
							c1.094,1.29,1.566,2.974,1.295,4.619c-0.264,1.59-0.881,3.444-1.694,5.088c-0.599,1.21-2,4.043-4.808,4.071h-0.028H369.321z"
							/>
					</g>
					<g>
						<path fill="#CC2F0A" d="M336.056,156.179c-3.101,0-4.315-3.238-4.772-4.458c-0.643-1.713-1.058-3.646-1.139-5.307
							c-0.081-1.64,0.522-3.225,1.699-4.461c1.278-1.344,3.101-2.114,4.998-2.114c2.02,0.003,3.852,0.855,5.028,2.339
							c1.09,1.375,1.485,3.15,1.085,4.87c-0.375,1.599-1.102,3.46-1.994,5.107c-1.061,1.957-2.461,3.965-4.812,4.022l-0.086,0.001
							H336.056z"/>
					</g>
					<g>
						<path fill="#CC2F0A" d="M303.276,156.879c-3.187,0-4.294-3.301-4.767-4.71c-0.597-1.778-0.979-3.796-1.048-5.537
							c-0.07-1.738,0.574-3.408,1.816-4.701c1.276-1.329,3.061-2.092,4.896-2.092c1.974,0.005,3.775,0.854,4.944,2.333
							c1.135,1.433,1.541,3.295,1.117,5.107c-0.395,1.676-1.128,3.624-2.011,5.349c-1.103,2.153-2.447,4.157-4.801,4.249
							l-0.093,0.002h-0.054H303.276z"/>
					</g>
				</g>
				<g>
					<path fill="#CC2F0A" d="M502.06,226.621c-3.162,0-4.158-3.255-4.693-5.004c-0.557-1.82-0.974-3.9-1.144-5.707
						c-0.154-1.644,0.223-3.299,1.062-4.662c1.032-1.679,2.663-2.738,4.475-2.908c0.166-0.016,0.337-0.024,0.507-0.024
						c1.558,0,3.01,0.659,4.09,1.857c1.257,1.393,1.856,3.356,1.646,5.389c-0.191,1.839-0.633,3.983-1.21,5.885
						c-0.601,1.976-1.509,4.962-4.471,5.166l-0.126,0.009h-0.134H502.06z"/>
				</g>
			</g>
		</g>
		<g>
			<g>
				<g>
					<path fill="#FCAB21" d="M402.176,365.7c-0.637,0.004-2.121-3.08-2.397-5.946c-0.138-1.431,1.225-2.743,2.919-2.759l0,0
						c1.695-0.017,2.913,1.279,2.609,2.722C404.702,362.609,402.813,365.708,402.176,365.7z"/>
				</g>
				<g>
					<path fill="#FCAB21" d="M369.511,365.7c-0.638,0.006-2.397-3.044-2.898-5.898c-0.251-1.423,1.016-2.712,2.716-2.706l0,0
						c1.7,0.005,3.018,1.3,2.824,2.719C371.766,362.66,370.147,365.705,369.511,365.7z"/>
				</g>
				<g>
					<path fill="#FCAB21" d="M351.689,335.416c0.673,0.016,2.31-3.77,2.656-7.224c0.173-1.727-1.231-3.305-3.005-3.339l0,0
						c-1.773-0.035-3.077,1.489-2.796,3.226C349.105,331.552,351.015,335.407,351.689,335.416z"/>
				</g>
				<g>
					<path fill="#FCAB21" d="M386.363,335.632c0.679-0.001,2.515-3.823,3.013-7.288c0.249-1.731-1.1-3.273-2.892-3.262l0,0
						c-1.792,0.011-3.176,1.571-2.965,3.3C383.943,331.839,385.685,335.641,386.363,335.632z"/>
				</g>
				<g>
					<path fill="#FCAB21" d="M420.754,334.983c0.665-0.018,2.611-3.913,3.213-7.396c0.303-1.741-0.949-3.249-2.688-3.19l0,0
						c-1.737,0.058-3.143,1.653-3.003,3.38C418.556,331.228,420.092,335.008,420.754,334.983z"/>
				</g>
				<g>
					<path fill="#FCAB21" d="M470.489,297.34c-0.57,0.043-1.978-3.949-2.278-7.55c-0.151-1.805,1.025-3.478,2.494-3.558l0,0
						c1.467-0.081,2.549,1.45,2.34,3.262C472.631,293.107,471.066,297.297,470.489,297.34z"/>
				</g>
				<g>
					<path fill="#FCAB21" d="M439.145,299.033c-0.65,0.029-2.23-4.117-2.566-7.847c-0.167-1.868,1.183-3.576,2.876-3.627l0,0
						c1.693-0.052,2.939,1.565,2.683,3.438C441.627,294.736,439.799,299.008,439.145,299.033z"/>
				</g>
				<g>
					<path fill="#FCAB21" d="M404.593,299.974c-0.695,0.014-2.45-4.232-2.859-8.036c-0.204-1.904,1.214-3.619,3.033-3.641l0,0
						c1.818-0.022,3.184,1.654,2.928,3.561C407.186,295.664,405.29,299.965,404.593,299.974z"/>
				</g>
				<g>
					<path fill="#FCAB21" d="M368.667,300.162c-0.706-0.002-2.58-4.297-3.063-8.117c-0.242-1.912,1.159-3.607,3.002-3.601l0,0
						c1.844,0.007,3.264,1.716,3.039,3.628C371.196,295.891,369.372,300.168,368.667,300.162z"/>
				</g>
				<g>
					<path fill="#FCAB21" d="M333.199,299.598c-0.681-0.018-2.563-4.311-3.083-8.09c-0.261-1.893,1.052-3.543,2.82-3.506l0,0
						c1.769,0.037,3.164,1.751,2.98,3.641C335.547,295.416,333.877,299.619,333.199,299.598z"/>
				</g>
				<g>
					<path fill="#FCAB21" d="M300.021,298.28c-0.62-0.033-2.345-4.271-2.821-7.954c-0.24-1.845,0.929-3.423,2.521-3.356l0,0
						c1.593,0.065,2.87,1.759,2.716,3.599C302.126,294.241,300.637,298.316,300.021,298.28z"/>
				</g>
				<g>
					<path fill="#FCAB21" d="M284.41,261.359c0.559,0.01,2.024-4.137,2.4-7.8c0.188-1.837-0.946-3.451-2.4-3.433l0,0
						c-1.454,0.019-2.55,1.639-2.374,3.453C282.385,257.196,283.846,261.35,284.41,261.359z"/>
				</g>
				<g>
					<path fill="#FCAB21" d="M315.555,261.621c0.652,0.008,2.353-4.334,2.787-8.16c0.218-1.918-1.091-3.607-2.787-3.596l0,0
						c-1.695,0.012-2.987,1.706-2.781,3.609C313.182,257.271,314.898,261.616,315.555,261.621z"/>
				</g>
				<g>
					<path fill="#FCAB21" d="M350.394,261.768c0.705,0.003,2.543-4.447,3.005-8.359c0.231-1.961-1.176-3.693-3.005-3.689l0,0
						c-1.83,0.006-3.23,1.74-3.005,3.695C347.837,257.313,349.687,261.766,350.394,261.768z"/>
				</g>
				<g>
					<path fill="#FCAB21" d="M386.815,261.797c0.717,0,2.59-4.474,3.049-8.396c0.231-1.967-1.192-3.71-3.049-3.711l0,0
						c-1.856-0.002-3.281,1.74-3.05,3.709C384.23,257.326,386.099,261.798,386.815,261.797z"/>
				</g>
				<g>
					<path fill="#FCAB21" d="M422.709,261.709c0.688-0.004,2.484-4.414,2.916-8.27c0.218-1.936-1.14-3.653-2.916-3.662l0,0
						c-1.776-0.008-3.144,1.707-2.918,3.652C420.244,257.308,422.025,261.714,422.709,261.709z"/>
				</g>
				<g>
					<path fill="#FCAB21" d="M455.965,261.505c0.616-0.008,2.22-4.268,2.601-7.983c0.192-1.863-1.013-3.525-2.601-3.54l0,0
						c-1.589-0.015-2.819,1.641-2.615,3.523C453.76,257.26,455.354,261.514,455.965,261.505z"/>
				</g>
				<g>
					<path fill="#FCAB21" d="M484.472,261.185c0.503-0.012,1.788-4.036,2.1-7.535c0.156-1.755-0.806-3.326-2.1-3.348l0,0
						c-1.294-0.022-2.312,1.541-2.145,3.323C482.66,257.18,483.976,261.197,484.472,261.185z"/>
				</g>
				<g>
					<path fill="#FCAB21" d="M470.705,225.255c-0.563-0.029-2.127-4.239-2.586-7.872c-0.229-1.821,0.889-3.342,2.37-3.235l0,0
						c1.483,0.106,2.63,1.777,2.48,3.561C472.676,221.261,471.273,225.283,470.705,225.255z"/>
				</g>
				<g>
					<path fill="#FCAB21" d="M439.454,223.927c-0.651-0.019-2.462-4.348-2.994-8.076c-0.266-1.872,0.993-3.464,2.685-3.396l0,0
						c1.69,0.067,3.026,1.757,2.871,3.603C441.709,219.735,440.11,223.945,439.454,223.927z"/>
				</g>
				<g>
					<path fill="#FCAB21" d="M404.767,223.189c-0.702-0.009-2.588-4.389-3.094-8.164c-0.254-1.896,1.113-3.541,2.92-3.513l0,0
						c1.807,0.029,3.22,1.716,3.027,3.601C407.24,218.868,405.47,223.196,404.767,223.189z"/>
				</g>
				<g>
					<path fill="#FCAB21" d="M368.605,223.042c-0.713,0.002-2.545-4.36-2.971-8.135c-0.214-1.896,1.202-3.572,3.032-3.582l0,0
						c1.829-0.01,3.229,1.653,2.994,3.553C371.191,218.659,369.318,223.038,368.605,223.042z"/>
				</g>
				<g>
					<path fill="#FCAB21" d="M332.937,223.484c-0.686,0.013-2.375-4.265-2.714-7.987c-0.171-1.87,1.216-3.56,2.977-3.607l0,0
						c1.76-0.049,3.078,1.572,2.814,3.46C335.484,219.107,333.618,223.471,332.937,223.484z"/>
				</g>
				<g>
					<path fill="#FCAB21" d="M299.722,224.518c-0.617,0.022-2.118-4.102-2.409-7.724c-0.146-1.817,1.11-3.5,2.709-3.587l0,0
						c1.598-0.088,2.789,1.472,2.534,3.321C302.045,220.216,300.334,224.492,299.722,224.518z"/>
				</g>
				<g>
					<path fill="#FCAB21" d="M270.926,226.14c-0.51,0.034-1.816-3.869-2.143-7.341c-0.164-1.742,0.839-3.396,2.183-3.522l0,0
						c1.343-0.126,2.383,1.351,2.198,3.139C272.793,221.98,271.43,226.105,270.926,226.14z"/>
				</g>
				<g>
					<path fill="#FCAB21" d="M285.58,189.83c0.583-0.05,2.284-4.17,2.835-7.66c0.274-1.752-0.854-3.191-2.405-3.071l0,0
						c-1.553,0.12-2.787,1.753-2.659,3.479C283.604,186.018,284.992,189.878,285.58,189.83z"/>
				</g>
				<g>
					<path fill="#FCAB21" d="M317.242,187.775c0.648-0.033,2.561-4.102,3.188-7.532c0.312-1.724-0.889-3.167-2.567-3.091l0,0
						c-1.68,0.076-3.058,1.643-2.953,3.351C315.113,183.9,316.59,187.805,317.242,187.775z"/>
				</g>
				<g>
					<path fill="#FCAB21" d="M351.341,186.634c0.686-0.017,2.585-4.035,3.126-7.428c0.271-1.706-1.027-3.168-2.777-3.135l0,0
						c-1.75,0.032-3.15,1.547-2.996,3.246C348.997,182.696,350.653,186.644,351.341,186.634z"/>
				</g>
				<g>
					<path fill="#FCAB21" d="M386.484,186.405c0.693,0.001,2.445-3.97,2.829-7.347c0.192-1.699-1.187-3.193-2.95-3.204
						c0,0.001,0,0.001,0,0c-1.765-0.011-3.108,1.466-2.875,3.167C383.955,182.403,385.791,186.397,386.484,186.405z"/>
				</g>
				<g>
					<path fill="#FCAB21" d="M421.279,187.09c0.674,0.02,2.234-3.905,2.476-7.291c0.122-1.702-1.278-3.24-3.001-3.295l0,0
						c-1.721-0.055-2.971,1.396-2.672,3.109C418.681,183.021,420.609,187.064,421.279,187.09z"/>
				</g>
				<g>
					<path fill="#FCAB21" d="M454.334,188.688c0.624,0.038,2.039-3.844,2.244-7.259c0.104-1.716-1.22-3.314-2.844-3.412
						c0.001,0,0.001,0,0,0c-1.622-0.099-2.781,1.342-2.475,3.078C451.875,184.553,453.715,188.646,454.334,188.688z"/>
				</g>
				<g>
					<path fill="#FCAB21" d="M484.256,191.201c0.545,0.058,1.951-3.783,2.312-7.252c0.182-1.74-0.924-3.411-2.392-3.554l0,0
						c-1.468-0.142-2.58,1.302-2.368,3.071C482.232,186.995,483.715,191.143,484.256,191.201z"/>
				</g>
				<g>
					<path fill="#FCAB21" d="M468.15,155.893c-0.622-0.027-2.498-3.842-3.149-7.064c-0.324-1.619,0.841-3.038,2.504-3.042l0,0
						c1.664-0.004,3.024,1.452,2.911,3.104C470.192,152.183,468.773,155.918,468.15,155.893z"/>
				</g>
				<g>
					<path fill="#FCAB21" d="M435.771,154.992c-0.644-0.021-2.648-3.541-3.367-6.46c-0.359-1.471,0.776-2.743,2.438-2.746l0,0
						c1.66-0.003,3.077,1.294,3.025,2.785C437.765,151.535,436.416,155.006,435.771,154.992z"/>
				</g>
				<g>
					<path fill="#FCAB21" d="M402.697,154.491c-0.656-0.011-2.533-3.362-3.101-6.119c-0.284-1.39,0.92-2.585,2.579-2.586l0,0
						c1.659-0.001,3.021,1.204,2.909,2.604C404.864,151.165,403.355,154.495,402.697,154.491z"/>
				</g>
				<g>
					<path fill="#FCAB21" d="M369.328,154.392c-0.659-0.002-2.291-3.308-2.622-6.042c-0.167-1.379,1.146-2.563,2.805-2.563l0,0
						c1.658,0.001,2.916,1.182,2.688,2.558C371.748,151.072,369.987,154.385,369.328,154.392z"/>
				</g>
				<g>
					<path fill="#FCAB21" d="M336.058,154.691c-0.652,0.009-2.062-3.376-2.2-6.228c-0.071-1.438,1.328-2.68,2.988-2.678l0,0
						c1.659,0.002,2.82,1.228,2.489,2.648C338.673,151.256,336.709,154.676,336.058,154.691z"/>
				</g>
				<g>
					<path fill="#FCAB21" d="M303.282,155.393c-0.636,0.02-1.982-3.568-2.106-6.679c-0.063-1.563,1.343-2.931,3.005-2.928l0,0
						c1.662,0.004,2.796,1.341,2.437,2.877C305.897,151.717,303.916,155.368,303.282,155.393z"/>
				</g>
			</g>
			<g>
				<path fill="#FCAB21" d="M502.066,225.134c-0.51,0.034-1.816-3.869-2.143-7.341c-0.164-1.742,0.839-3.396,2.183-3.522l0,0
					c1.343-0.126,2.383,1.351,2.198,3.139C503.934,220.975,502.57,225.1,502.066,225.134z"/>
			</g>
		</g>
	</g>
</g>
</svg>
