<svg version="1.1" id="Layer_1" xmlns="http://www.w3.org/2000/svg" xmlns:xlink="http://www.w3.org/1999/xlink" viewBox="0 0 768 430" enable-background="new 0 0 768 430" xml:space="preserve">
<g>
	<g>
		<g>
			<path fill="#76AD45" d="M389.824,111.958c-3.902-12.538-12.091-23.128-23.208-29.424c-11.062-6.375-25.052-8.456-39.285-5.8
				c-14.228,2.581-28.699,9.896-40.602,20.605c-11.949,10.64-21.331,24.673-26.414,39.098c0,0.001,0,0.004,0.001,0.005
				c13.336-9.208,37.032-22.088,61.723-27.039c24.693-5.613,50.386-3.297,67.783,2.562
				C389.824,111.963,389.824,111.96,389.824,111.958z"/>
			<path fill="#5B8C2F" d="M260.283,136.476C260.284,136.478,260.283,136.474,260.283,136.476
				c20.273,8.348,43.29,7.351,64.967,3.487c21.704-4.258,43.545-11.889,64.573-27.997c0.001-0.002-0.001,0.002,0,0
				c-17.396-5.859-42.672-8.627-67.367-3.013C297.764,113.903,273.62,127.267,260.283,136.476z"/>
		</g>
		<g>
			<g>
				<path fill="#9DC955" d="M260.652,136.567l-0.335-0.129c0.189-0.134,18.768-15.287,45.917-24.257
					c15.949-5.27,31.518-8.034,46.276-8.217c18.47-0.229,34.727,3.118,50.262,10.912l-3.979,2.897
					c-34.435-17.276-67.621-9.611-92.23-1.496C279.825,125.094,260.839,136.436,260.652,136.567z"/>
			</g>
		</g>
	</g>
	<path fill="#CA272E" d="M457.833,147.198c-17.866-4.123-36.15-0.761-52.891,8.404c-6.61,3.619-14.605,3.619-21.216,0
		c-16.74-9.166-35.024-12.527-52.889-8.404c-48.663,11.23-75.789,73.73-60.59,139.598c15.202,65.869,66.973,110.162,115.634,98.934
		c2.896-0.668,5.715-1.521,8.452-2.542c2.739,1.021,5.557,1.874,8.453,2.542c48.663,11.229,100.434-33.064,115.634-98.934
		C533.622,220.929,506.495,158.428,457.833,147.198z"/>
	<path fill="#E75D5C" d="M296.247,266.104c1.844-14.164,5.663-27.595,11.349-39.916c5.364-11.623,12.127-21.722,20.103-30.017
		c13.897-14.454,30.002-21.815,45.724-21.005c-0.105-0.057-0.211-0.11-0.316-0.167c-9.002-4.928-18.073-7.427-26.963-7.427
		c-3.48,0-6.958,0.395-10.333,1.174c-16.524,3.813-30.351,16.8-38.928,36.566c-4.582,10.555-7.398,22.379-8.371,35.143
		c-1.032,13.531,0.074,27.45,3.286,41.368c1.013,4.392,2.228,8.706,3.625,12.917C294.73,285.394,294.99,275.76,296.247,266.104z"/>
	<path fill="#A4232A" d="M493.588,168.058c14.544,26.396,19.391,62.391,10.839,99.454c-15.2,65.868-66.972,110.161-115.634,98.931
		c-0.029-0.006-0.059-0.012-0.087-0.019c-5.51-1.278-11.223-1.278-16.73,0c-0.03,0.007-0.059,0.013-0.088,0.019
		c-29.455,6.799-60.05-6.75-82.983-33.111c23.342,38.662,61.008,60.698,96.978,52.398c2.896-0.668,5.715-1.521,8.452-2.542
		c2.739,1.021,5.557,1.874,8.453,2.542c48.663,11.229,100.434-33.064,115.634-98.934
		C529.308,239.624,518.482,194.181,493.588,168.058z"/>
	<path fill="#A4232A" d="M364.115,156.351c5.24,6.907,16.8,11.707,30.219,11.707c13.421,0,24.98-4.8,30.221-11.707
		c-7,4.714-17.933,7.747-30.221,7.747C382.048,164.098,371.114,161.065,364.115,156.351z"/>
	<path fill="#743D17" d="M420.394,112.679c-16.571,10.942-26.858,30.747-24.15,49.857c0.673,4.74-3.848,5.979-4.78,0.083
		c-3.627-22.968,2.888-47.757,21.979-60.526c2.188-1.463,5.153-0.838,6.604,1.356c0.562,0.848,1.153,1.732,1.723,2.59
		C423.237,108.25,422.608,111.217,420.394,112.679z"/>
</g>
</svg>
