<svg version="1.1" xmlns="http://www.w3.org/2000/svg" xmlns:xlink="http://www.w3.org/1999/xlink" viewBox="0 0 768 430" enable-background="new 0 0 768 430" xml:space="preserve">
<g id="Layer_2">
</g>
<g id="Layer_1">
</g>
<g id="Layer_4">
</g>
<g id="Layer_3">
	<g>
		<path fill="#DDEBF2" d="M375.73,168.759c-114.316,0-206.988,13.964-206.988,31.19c0,3.296,0,15.607,0,18.903
			c0,4.27,5.707,8.337,16.013,12.043c13.104,27.584,48.509,69.754,95.958,97.363c-0.284,1.01-0.444,2.031-0.444,3.066
			c0,17.748,42.739,32.137,95.46,32.137c52.723,0,95.462-14.389,95.462-32.137c0-1.035-0.16-2.057-0.444-3.066
			c47.448-27.609,82.855-69.779,95.959-97.363c10.304-3.706,16.013-7.773,16.013-12.043c0-3.296,0-15.607,0-18.903
			C582.72,182.724,490.047,168.759,375.73,168.759z"/>
		<ellipse fill="#C7D8E5" cx="378.251" cy="204.675" rx="178.634" ry="30.245"/>
		<path fill="#8495A0" d="M309.255,181.991c0,0-52.928-98.295-96.405-113.418c-43.477-15.122-52.928,26.465-32.134,32.136
			c20.792,5.671,39.696,18.903,75.611,45.367c29.273,21.569,45.368,49.148,45.368,49.148L309.255,181.991z"/>
		<path fill="#93A4B2" d="M195.601,69.046c-14.898-0.392-21.54,22.857-7.798,28.354c21.266,8.506,56.709,33.317,77.266,50.329
			c20.558,17.013,24.811,24.102,26.937,26.937c2.127,2.835-6.737-26.468-32.608-60.962
			C242.386,91.021,222.538,69.754,195.601,69.046z"/>
		<path fill="#A3B5C1" d="M262.943,129.063c0,0-18.903-35.915-44.422-49.147c-25.519-13.233-34.97,4.726-28.354,9.451
			C196.782,94.093,237.424,110.16,262.943,129.063z"/>
		<path fill="#E7F2F7" d="M247.821,180.101c0,0-43.477,7.562-52.929,19.848c-9.452,12.287,13.232,28.354,116.254,35.916
			s178.633-2.835,178.633-2.835s-85.062,16.067-180.524,12.286c-95.46-3.78-128.54-24.573-132.321-26.464
			c-3.781-1.891-4.725-15.123-2.835-19.849C175.989,194.279,199.618,185.772,247.821,180.101z"/>
		<path fill="#E7F2F7" d="M519.079,181.991c0,0,43.478,7.562,43.478,20.794c0,13.231-24.575,18.903-24.575,18.903
			s34.972-6.617,37.808-11.343c2.834-4.726,1.89-8.506,0.943-12.286C575.789,194.279,544.599,187.663,519.079,181.991z"/>
		<path fill="#E7F2F7" d="M398.1,253.823c0,0,46.312-2.836,103.967-12.287c36.957-6.059,40.642-7.561,40.642-7.561
			s-30.244,65.216-84.118,88.844c-53.873,23.629-72.847,20.769-71.832,17.958C399.046,306.752,399.046,267.056,398.1,253.823z"/>
		<path fill="#E7F2F7" d="M461.426,332.271c0,0,1.889,7.562-16.068,15.121c-17.958,7.563-41.587,15.124-82.229,12.288
			c-40.641-2.835-63.325-16.067-63.325-16.067S392.43,369.132,461.426,332.271z"/>
		<path fill="#F6A74E" d="M220.411,207.983c-10.381,13.626,79.479,30.966,205.569,21.266c92.154-7.089,117.672-9.924,110.585-29.772
			c-5.803-16.242-59.243-29.915-89.318-43.949c-21.267-9.925-33.706-17.793-43.948-38.279
			c-12.762-25.519-34.026-17.013-34.026-17.013s17.012-1.417,11.341,18.431s-53.874,19.848-69.468,34.025
			c-15.596,14.177,1.417,22.684,1.417,22.684S243.095,178.211,220.411,207.983z"/>
		<path fill="#FFB863" d="M384.867,106.615c3.544,6.38,3.544,17.013-9.216,26.229c-12.758,9.215-34.024,10.633-41.822,19.139
			c-7.797,8.506,29.772,25.519,97.824,29.772c39.644,2.479,52.455-4.962,45.367-7.088c-7.089-2.126-40.405-14.177-60.255-29.772
			c-10.048-7.895-9.923-14.177-17.012-25.52C392.664,108.034,384.867,106.615,384.867,106.615z"/>
		<path fill="#FFB863" d="M498.285,188.135c-10.321,0-24.81,7.089-95.696,6.38c-70.886-0.709-84.354-7.797-99.949-9.924
			c-15.596-2.126-46.077,5.67-51.748,16.304c-5.67,10.633,66.634,29.063,159.495,21.265c92.861-7.797,107.039-16.304,109.874-21.265
			C523.097,195.933,508.21,188.135,498.285,188.135z"/>
		<g>
			<path fill="#FFE099" d="M408.97,104.489c-4.035-5.334-18.433,26.229-8.507,52.456c9.986,26.395,34.734,34.026,57.419,31.899
				c22.683-2.126,36.86-13.468,35.442-17.722C491.906,166.869,430.943,133.552,408.97,104.489z"/>
			<path fill="#E04332" d="M407.079,103.544c0,0-18.591,14.675-13.232,47.258c5.907,35.916,45.841,50.329,73.249,43.713
				c27.409-6.616,31.189-20.084,31.189-20.084l-9.45-6.617c0,0-7.065,13.979-32.136,16.068
				c-28.354,2.363-52.456-13.705-56.709-41.587C395.756,114.538,407.079,103.544,407.079,103.544z"/>
			<path fill="#FFE8AB" d="M409.441,110.16c-3.743-4.389-9.451,20.793-0.472,39.697c8.978,18.902,26.464,23.156,43.004,21.738
				c16.54-1.418,24.574-8.034,21.738-9.925C470.877,159.781,423.146,126.228,409.441,110.16z"/>
			<g>
				<path fill="#84471E" d="M437.438,140.353c2.519,2.402,4.963,10.37,3.812,11.576c-1.683,1.764-9.226-0.86-11.743-3.263
					c-2.518-2.401-2.784-6.21-0.594-8.506C431.104,137.864,434.922,137.951,437.438,140.353z"/>
				<path fill="#A85720" d="M429.715,146.302c2.98,3.785,9.785,3.702,9.469,1.35c-0.318-2.352-1.222-7.312-5.425-7.737
					C429.554,139.489,428.092,144.243,429.715,146.302z"/>
			</g>
			<path fill="#EF4D37" d="M397.154,134.261c0.473,12.76,6.145,34.498,26.937,44.422c20.793,9.924,40.643,6.616,51.511,2.363
				c10.87-4.253,11.814-8.034,13.233-8.034c1.417,0,2.362,6.615,0,9.924c-2.363,3.308-21.267,11.342-45.368,8.979
				c-24.101-2.363-36.861-18.431-43.477-32.608C393.374,145.13,397.154,134.261,397.154,134.261z"/>
		</g>
		<g>
			<path fill="#FFE099" d="M445.427,90.43c-2.258-6.295-25.417,19.533-23.772,47.527c1.655,28.173,22.998,42.841,45.283,47.581
				c22.286,4.739,39.201-1.855,39.116-6.337C505.97,174.717,457.728,124.727,445.427,90.43z"/>
			<path fill="#E04332" d="M443.904,88.964c0,0-22.123,8.459-26.731,41.156c-5.079,36.042,28.732,61.715,56.868,63.58
				c28.134,1.865,35.762-9.862,35.762-9.862l-7.046-9.135c0,0-10.914,11.233-35.467,5.746
				c-27.768-6.206-45.977-28.733-41.715-56.614C429.817,96.079,443.904,88.964,443.904,88.964z"/>
			<path fill="#FFE8AB" d="M444.186,95.984c-2.264-5.306-15.225,17.026-12.297,37.747c2.929,20.721,18.348,29.998,34.558,33.581
				c16.21,3.583,25.854-0.335,23.71-2.985C488.014,161.676,452.472,115.409,444.186,95.984z"/>
			<g>
				<path fill="#84471E" d="M461.897,133.155c1.688,3.044,1.643,11.378,0.185,12.187c-2.134,1.181-8.549-3.574-10.235-6.619
					c-1.688-3.044-0.804-6.758,1.973-8.296C456.594,128.89,460.212,130.111,461.897,133.155z"/>
				<path fill="#A85720" d="M452.749,136.529c1.716,4.503,8.237,6.454,8.635,4.114c0.399-2.34,1.019-7.343-2.869-9.004
					C454.63,129.979,451.817,134.079,452.749,136.529z"/>
			</g>
			<path fill="#EF4D37" d="M425.267,115.32c-3.357,12.319-4.431,34.759,12.453,50.437c16.885,15.677,36.815,18.442,48.459,17.626
				c11.643-0.816,13.674-4.142,15.025-3.719c1.354,0.423,0.281,7.021-2.961,9.472c-3.241,2.452-23.681,4.479-45.979-4.969
				c-22.298-9.447-29.682-28.59-31.765-44.095C418.414,124.566,425.267,115.32,425.267,115.32z"/>
		</g>
		<path fill="#FFD388" d="M306.893,188.844c-20.557-2.126-44.658,4.962-46.076,13.469c-1.418,8.506,52.068,22.868,90.026,17.721
			c41.821-5.67,47.493-21.265,34.733-21.974C357.829,196.517,333.444,191.591,306.893,188.844z"/>
		<path fill="#FFD388" d="M407.551,198.06c-10.023,0-17.721,17.012-9.924,18.43c7.798,1.417,24.102-6.379,23.392-13.468
			C420.311,195.933,409.679,198.06,407.551,198.06z"/>
		<path fill="#C7D8E5" d="M207.179,240.591c0,0,22.684,5.67,73.722,11.343c52.906,5.878,73.722,3.78,73.722,3.78
			s-36.763,10.723-43.477,20.793c-18.904,28.354,24.574,58.601,24.574,58.601S250.656,310.531,207.179,240.591z"/>
	</g>
	<g>
		<path fill="#9ACA2A" d="M513.723,378.021c-14.394,19.984-50.768,31.773-73.415,15.46c-22.646-16.311-22.99-54.546-8.598-74.53
			c14.395-19.983,42.47-19.589,65.116-3.277C519.474,331.986,528.118,358.038,513.723,378.021z"/>
		<path fill="#ABD830" d="M479.566,309.933c-18.439-6.869-36.254,0.172-41.963,14.697c-5.68,14.45-5.273,44.946,14.759,59.376
			c20.034,14.43,55.801,1.765,63.119-20.965c4.995-15.519-6.954-36.55-22.216-38.464c-15.605-1.955-20.875-9.301-20.875-9.301
			s18.391,4.168,22.256,4.083C498.511,319.275,487.813,313.006,479.566,309.933z"/>
		<path fill="#ABD830" d="M424.72,358.361c0,0,1.018,23.67,20.077,35.488c19.063,11.818,39.301,1.543,39.301,1.543
			S440.462,411.752,424.72,358.361z"/>
		<path fill="#BFE23D" d="M501.403,330.438c-3.662-2.857-15.499-6.861-21.198-0.93c-6.635,6.906-3.592,20.828,11.866,34.352
			c15.456,13.522,22.438-3.431,20.569-13.38C510.773,340.533,509.315,336.616,501.403,330.438z"/>
		<path fill="#BFE23D" d="M477.108,329.188c0.704-5.391-5.711-13.192-13.182-11.404c-9.812,2.351-9.628,14.74-1.713,22.182
			C468.734,346.096,475.739,339.672,477.108,329.188z"/>
		<path fill="#4D7F13" d="M500.673,290.09c0.476,0.661,0.887,6.691,8.039,12.161c7.153,5.472,19.111,8.669,25.107,21.907
			c5.994,13.239-3.271,29.184-3.271,29.184s-2.606-4.742-16.45-12.804c-13.846-8.061-13.668-20.017-13.228-29.599
			C501.323,301.07,500.673,290.09,500.673,290.09z"/>
		<path fill="#84471E" d="M481.888,319.252c0,0,6.541,2.798,10.858,2.085c4.318-0.714,12.325-16.45,8.772-30.001
			c-2.726-10.396-8.683-11.27-9.769-10.859c-2.611,0.987-2.325,4.72-4.253,4.585c-0.585-0.043-1.093,0.067-1.528,0.272
			c-1.313,0.615-0.925,2.633,0.517,2.747c2.082,0.163,5.103,1.246,8.417,5.181c7.021,8.33,0.756,20.258-1.455,23.803
			C490.361,322.009,481.888,319.252,481.888,319.252z"/>
		<path fill="#A85720" d="M495.099,318.729c0,0,8.371-12.609,5.956-25.099c-1.532-7.931-5.878-11.642-7.157-11.847
			c-1.278-0.203-1.246,1.731-1.246,1.731s-2.481,1.796-1.699,2.36c0.783,0.562,5.445,2.009,7.96,9.078
			C501.428,302.022,499.217,310.704,495.099,318.729z"/>
		<path fill="#A85720" d="M493.957,289.952c0,0,4.67,4.078,4.968,10.268c0.296,6.188-1.273,9.357-1.273,9.357
			s4.177-6.788,2.347-12.168S493.957,289.952,493.957,289.952z"/>
		<path fill="#5D9910" d="M529.436,344.656c0,0-0.061-0.614-0.188-1.619c-0.414-3.31-1.705-10.184-3.695-14.002
			c-2.599-4.977-3.118-5.408-3.458-2.568c-0.555,4.618-2.99,8.439-2.99,8.439s3.26-8.485,0.247-15.193
			c-3.012-6.711-8.042-10.456-7.674-8.157c0.807,5.041-2.07,10.137-2.07,10.137s1.46-9.619-0.024-12.84
			c-1.484-3.219-4.717-6.981-5.44-6.308c-0.723,0.673-2.508,16.354-0.846,23.285c1.663,6.934,10.029,12.479,11.123,13.268
			c1.097,0.791,2.646,0.95,3.767,1.042c1.124,0.092,6.192,4.936,8.156,6.829c1.965,1.893,3.745,4.37,3.745,4.37
			s6.491-13.963,3.761-22.381c-2.732-8.419-5.652-11.956-9.808-15.426c-4.155-3.472-9.444-5.371-9.584-4.515
			c-0.141,0.854,2.558,4.702,5.272,7.859c4.31,5.017,8.458,4.979,8.458,4.979s-2.998,0.864-5.452-0.901
			c-0.938-0.677,2.33,2.155,4.684,8.789C529.553,335.755,529.436,344.656,529.436,344.656z"/>
		<path fill="#7EAF27" d="M503.704,312.503c0,0-2.071,10.139,1.305,16.232c3.375,6.096,8.479,9.646,10.118,10.153
			c1.554,0.484,2.354,0.241,3.126,0.5c1.659,0.559,5.425,3.908,7.865,6.463c2.439,2.554,3.911,4.251,3.911,4.251
			s1.949-5.126,2.776-8.037c0.827-2.909,1.062-4.332,1.062-4.332s-1.791,3.807-2.764,5.816c-0.97,2.009-1.546,3.026-1.546,3.026
			s-4.38-6.021-10.315-9.66c-0.992-0.608-1.068,0.823-1.771,0.477c-0.701-0.345-4.009-0.815-5.346-2.256
			C510.787,333.694,502.969,326.947,503.704,312.503z"/>
	</g>
</g>
</svg>
