<svg version="1.1" id="Layer_1" xmlns="http://www.w3.org/2000/svg" xmlns:xlink="http://www.w3.org/1999/xlink" viewBox="0 0 768 430" enable-background="new 0 0 768 430" xml:space="preserve">
<g>
	<path fill="#43213F" d="M557.079,336.509c0.104-0.548,0.21-1.095,0.312-1.642c7.103-37.233-14.814-73.969-51.009-85.225
		c-33.457-10.404-65.688-25.965-95.257-46.056c-25.805-17.454-49.588-38.351-70.603-61.887
		c-20.268-22.701-55.397-23.806-76.916-2.287l0,0c-17.266,17.265-20.421,44.084-7.732,64.945
		c21.506,35.357,47.612,68.607,77.715,98.33c33.669,33.416,72.368,62.393,114.344,85.453
		C492.334,412.533,547.636,386.281,557.079,336.509z"/>
	<path fill="#73586F" d="M496.983,264.07c-33.457-10.404-65.687-25.964-95.257-46.054c-25.806-17.454-49.589-38.352-70.602-61.889
		c-12.635-14.152-31.047-19.909-48.336-17.025c17.526,25.002,37.431,48.671,59.485,70.447
		c33.668,33.417,72.367,62.394,114.343,85.454c11.071,6.081,22.818,9.015,34.364,9.22c23.513,0.417,28.883-32.875,6.474-40.005
		C497.298,264.169,497.141,264.12,496.983,264.07z"/>
	<path fill="#2D0326" d="M544.79,316.572c-0.104,0.548-0.209,1.096-0.312,1.643c-9.443,49.771-64.745,76.023-109.146,51.633
		c-41.977-23.061-80.676-52.038-114.344-85.454c-20.392-20.135-38.947-41.891-55.484-64.819
		c19.521,29.691,42.34,57.691,68.086,83.113c33.669,33.416,72.368,62.393,114.344,85.453c44.4,24.393,99.702-1.859,109.146-51.632
		c0.104-0.548,0.21-1.095,0.312-1.642c4.612-24.185-3.02-48.154-18.853-65.073C545.413,283.867,547.917,300.171,544.79,316.572z"/>
	<path fill="#99B93A" d="M324.836,124.537c-7.033-3.204-14.527-4.939-22.278-5.158c-4.862-0.138-9.635,0.325-14.242,1.35
		c-11.019-16.161-19.967-33.402-23.049-52.297c-0.708-4.334-4.704-7.346-9.071-6.892l0,0c-4.299,0.446-7.529,4.107-7.467,8.429
		c0.209,14.434,2.235,28.76,6.045,42.687c2.058,7.522,4.053,15.17,6.484,22.629c-0.302,0.29-0.604,0.582-0.9,0.879
		c-9.072,9.072-14.901,21.087-16.412,33.832c-1.511,12.73,1.332,25.782,8.003,36.75c3.498,5.751,7.108,11.43,10.824,17.034
		c1.958,2.952,6.504,2.104,7.281-1.352l1.586-7.062c2.454-10.926,11.741-18.978,22.905-19.857l0,0
		c5.949-0.468,11.881,1.098,16.824,4.443l11.453,7.751c2.633,1.782,6.196-0.046,6.282-3.225l0.112-4.153
		c0.408-15.026-2.566-29.953-8.702-43.676l0,0c4.92-4.147,10.949-6.758,17.338-7.512l3.847-0.454
		c4.287-0.505,6.218-5.634,3.33-8.841c-0.36-0.4-0.72-0.801-1.078-1.203C338.562,132.604,332.13,127.859,324.836,124.537z"/>
	<path fill="#74A211" d="M252.729,169.381c0.433-12.828,5.229-25.291,13.504-35.095c0.271-0.321,0.547-0.638,0.824-0.951
		c-3.051-7.229-5.683-14.682-8.368-22.003c-4.97-13.557-8.196-27.661-9.62-42.025c-0.065-0.654-0.052-1.299,0.031-1.926
		c-0.252,0.818-0.383,1.689-0.371,2.588c0.209,14.434,2.235,28.76,6.045,42.687c2.058,7.522,4.053,15.17,6.484,22.629
		c-0.302,0.29-0.604,0.582-0.9,0.879c-9.072,9.072-14.901,21.087-16.412,33.832c-1.511,12.73,1.332,25.782,8.003,36.75
		c3.498,5.751,7.108,11.43,10.824,17.034c1.958,2.952,6.504,2.104,7.281-1.352l1.516-6.751c-2.63-3.418-5.224-6.866-7.77-10.351
		C256.229,194.958,252.297,182.193,252.729,169.381z"/>
</g>
</svg>
