
<svg version="1.1" id="Layer_1" xmlns="http://www.w3.org/2000/svg" xmlns:xlink="http://www.w3.org/1999/xlink" viewBox="0 0 768 430" enable-background="new 0 0 768 430" xml:space="preserve">
<g transform="translate(-280.8224,-578.81741)">
	<g transform="matrix(-.92281,0,0,.93552,1580.6966,56.32251)">
		<path fill="#CCCCCC" d="M1097.379,715.782c0,0,4.117-8.608,8.107-10.538c8.272-3.999,24.318-2.432,27.561,0.406
			c3.242,2.838,5.268,15.402,1.621,16.213c-3.647,0.812-22.698,4.865-29.182,4.054
			C1099.001,725.106,1097.379,715.782,1097.379,715.782z"/>
		<g opacity="0.4612" enable-background="new    ">
			<path fill="#1A1A1A" d="M1098.63,716.323c0,0,1.604,7.103,3.666,7.791c2.061,0.687,0.917,0.687,5.27,0.687
				c4.353,0,25.892-2.52,26.579-3.667c0.688-1.145,2.292-4.125,1.605-5.957c-0.688-1.833-0.688-2.521-0.688-2.521L1098.63,716.323z"
				/>
		</g>
		<g>
			<path fill="#999999" d="M1098.171,715.635c-0.107-0.071,3.991-6.759,7.562-8.937c4.797-2.925,13.273-4.595,23.142-2.062
				c4.57,1.172,5.972,4.565,5.27,6.874C1134.374,712.656,1098.171,715.635,1098.171,715.635z"/>
		</g>
		<g>
			<path fill="#FFFFFF" d="M1109.398,715.177c8.34-1.297,19.258-0.422,24.784-3.667c0,0,1.318,0.688,0.201,1.605
				C1133.266,714.032,1109.398,715.177,1109.398,715.177z"/>
		</g>
		<g opacity="0.5991" enable-background="new    ">
			<path fill="#1A1A1A" d="M1099.506,716.688c0,0-3.058-0.89,1.285-1.226c6.098-0.47,28.26-1.491,24.647-0.876L1099.506,716.688z"/>
		</g>
		<path opacity="0.2112" fill="#4D4D4D" enable-background="new    " d="M1098.171,716.552c0,0,0.23-0.457,3.209,0.23
			c2.977,0.688,14.435,6.186,19.477,5.5c5.04-0.688,12.602-0.23,12.602-0.23s-27.249,5.994-30.474,3.208
			C1097.944,720.906,1098.171,716.552,1098.171,716.552z"/>
		<path fill="#333333" d="M1097.539,715.907c0,0-2.996,1.093-3.401,2.714c-0.406,1.621,1.216,2.027-0.811,4.054
			c-2.026,2.026-6.428,4.917-6.428,4.917s-5.571,2.354,0.509,3.975c6.08,1.622,7.539-0.786,7.539-0.786s-2.432,0,1.216-3.647
			c3.648-3.648,6.608-2.609,6.608-2.609C1101.797,721.798,1101.398,718.921,1097.539,715.907L1097.539,715.907z"/>
		<g>
			<path fill="#999999" d="M1094.505,720.676c0,0,2.291,2.864,3.781,3.093c1.489,0.229,1.395-0.714-1.146-1.718
				c-2.315-0.916-2.419-4.332-2.406-4.354L1094.505,720.676z"/>
		</g>
		<g>
			<path d="M1094.734,722.051c-0.114,0.459-0.089,0.399-1.031,1.948c-1.551,2.552,3.113,1.594,3.895,1.491
				c0.568-0.076,1.605-0.688,1.605-0.688s-0.687-0.115-1.834-1.031C1096.224,722.854,1094.734,722.051,1094.734,722.051z"/>
		</g>
		<g>
			<path d="M1097.577,716.594c0,0-0.474-1.204,0.568-0.402c1.044,0.803,3.033,2.709,3.128,3.811
				c0.095,1.104,1.139,2.909,1.139,3.312c0,0.401-0.286,1.405-0.759,0.401c-0.475-1.004-0.759-3.411-1.517-4.515
				C1099.378,718.099,1097.577,716.594,1097.577,716.594z"/>
		</g>
		<g>
			<path fill="#FFFFFF" d="M1098.171,715.177c2.062-3.667,2.656-3.107,5.957-6.188c2.393-2.231,3.895-2.519,7.104-2.977
				c3.208-0.458,10.541-1.603,14.435-0.688c3.895,0.917,6.645,1.376,7.791,2.978c1.146,1.605,0.916,2.751,0.916,2.751
				s0.23-2.751-0.457-4.124c-0.688-1.375-2.546-1.677-4.355-2.292c-6.146-2.089-14.109-2.088-20.392-0.458
				c-2.979,0.772-4.988,2.346-7.102,4.583C1100.189,710.746,1098.171,715.177,1098.171,715.177L1098.171,715.177z"/>
		</g>
	</g>
	<g transform="translate(190.35714,-6.07143)">
		<g transform="matrix(1.84394,0,0,2.16836,-841.9611,-378.90552)">
			<path d="M713.62,525.957c-14.832,8.443-20.724,51.967-2.52,51.967h15.836c-4.518-1.034-7.618-13.375-6.931-27.667
				c0.624-13.024,4.182-23.189,8.233-24.3L713.62,525.957L713.62,525.957z M728.641,577.765c-0.159,0.065-0.315,0.123-0.476,0.161
				h0.476V577.765z"/>
			<path fill="#1A1A1A" d="M741.589,553.584c-1.135,14.37-8.135,25.276-15.637,24.359c-7.5-0.918-12.661-13.31-11.525-27.681
				c1.135-14.37,8.135-25.276,15.636-24.359C737.564,526.82,742.725,539.213,741.589,553.584z"/>
			<g>
				<path d="M728.311,525.847c-7.232-0.181-13.822,10.5-14.922,24.422c-1.135,14.371,4.012,26.763,11.513,27.68
					c0.638,0.078,1.282,0.06,1.908-0.028c-7.401-1.094-12.46-13.398-11.333-27.651c1.035-13.117,6.952-23.351,13.68-24.338
					l-0.148-0.027C728.776,525.874,728.543,525.854,728.311,525.847L728.311,525.847z"/>
			</g>
			<path d="M735.835,551.878c0,7.191-3.011,13.02-6.727,13.02c-3.716,0-6.728-5.829-6.728-13.02c0-7.191,3.011-13.021,6.728-13.021
				C732.824,538.858,735.835,544.687,735.835,551.878z"/>
			<g transform="matrix(.37313,.11015,-.07023,.53868,616.24461,356.5115)">
				<path fill="#999999" d="M359.032,282.573c0,0,1.296-0.808,2.431-1.783c1.131-0.972,6.643-10.693,6.643-10.693l1.296,1.62
					c0,0-5.347,9.561-6.482,10.37c-1.134,0.81-2.755,1.944-2.755,1.944L359.032,282.573z"/>
				<path fill="#666666" d="M358.384,281.925c0,0,0.651-0.163,1.78-1.296c1.136-1.134,5.673-10.045,5.673-10.045l2.105-0.487
					c0,0-5.346,10.37-6.967,11.343c-1.621,0.972-2.104,1.296-2.104,1.296L358.384,281.925z"/>
				<g transform="matrix(.89937,-.47261,.4372,.97221,-113.00896,295.05748)">
					<path fill="#999999" d="M427.617,193.988c0,0,1.296-0.811,2.429-1.782c1.135-0.972,6.644-10.694,6.644-10.694l1.295,1.62
						c0,0-5.347,9.56-6.481,10.371c-1.135,0.81-2.753,1.944-2.753,1.944L427.617,193.988z"/>
					<path fill="#666666" d="M426.72,193.566c0,0,0.665-0.164,1.829-1.321c1.166-1.153,5.812-10.241,5.812-10.241l2.166-0.492
						c0,0-5.478,10.572-7.143,11.561c-1.663,0.989-2.162,1.32-2.162,1.32L426.72,193.566z"/>
				</g>
				<g transform="matrix(-.13149,.87055,.82551,.09775,349.35111,-163.0515)">
					<path fill="#999999" d="M512.375,82.081c0,0,1.296-0.813,2.432-1.781c1.133-0.973,6.641-10.696,6.641-10.696l1.296,1.623
						c0,0-5.346,9.559-6.481,10.368c-1.135,0.81-2.755,1.946-2.755,1.946L512.375,82.081z"/>
					<path fill="#666666" d="M511.728,81.432c0,0,0.648-0.164,1.783-1.296c1.132-1.133,5.669-10.046,5.669-10.046l2.107-0.486
						c0,0-5.347,10.369-6.966,11.342c-1.622,0.977-2.105,1.299-2.105,1.299L511.728,81.432z"/>
				</g>
				<g transform="matrix(.69001,-.74572,.73666,.7705,-107.84208,538.49532)">
					<path fill="#999999" d="M503.009,154.797c0,0,1.354-0.89,2.547-1.943c1.193-1.056,7.156-11.413,7.156-11.413l1.27,1.658
						c0,0-5.791,10.182-6.977,11.066c-1.187,0.886-2.883,2.123-2.883,2.123L503.009,154.797z"/>
					<path fill="#666666" d="M502.456,154.019c0,0,0.664-0.186,1.857-1.397c1.187-1.212,6.073-10.616,6.073-10.616l2.163-0.562
						c0,0-5.755,10.944-7.438,11.998c-1.679,1.058-2.185,1.409-2.185,1.409L502.456,154.019z"/>
				</g>
				<g transform="matrix(.21107,-.84815,.82288,.28919,144.5296,791.69779)">
					<path fill="#999999" d="M628.624,89.186c0,0,1.295-0.811,2.43-1.784c1.134-0.97,6.64-10.693,6.64-10.693l1.298,1.62
						c0,0-5.346,9.559-6.481,10.371c-1.134,0.809-2.755,1.946-2.755,1.946L628.624,89.186z"/>
					<path fill="#666666" d="M627.975,88.539c0,0,0.648-0.163,1.781-1.3c1.135-1.133,5.672-10.045,5.672-10.045l2.106-0.486
						c0,0-5.346,10.374-6.967,11.342c-1.621,0.972-2.106,1.297-2.106,1.297L627.975,88.539z"/>
				</g>
				<g transform="matrix(-.31452,-.92668,.75301,-.3767,486.99186,1104.3729)">
					<path fill="#999999" d="M816.226,157.797c0,0,1.143-0.698,2.141-1.534c0.997-0.838,5.827-9.249,5.827-9.249l1.152,1.409
						c0,0-4.686,8.265-5.683,8.967c-1.002,0.7-2.428,1.677-2.428,1.677L816.226,157.797z"/>
					<path fill="#666666" d="M815.575,157.162c0,0,0.551-0.113,1.49-0.946c0.944-0.84,4.612-7.492,4.612-7.492l1.785-0.33
						c0,0-4.326,7.738-5.685,8.444c-1.362,0.707-1.769,0.943-1.769,0.943L815.575,157.162z"/>
				</g>
				<g transform="matrix(.4041,.83471,.78402,-.40251,44.36263,60.46256)">
					<path fill="#999999" d="M377.239,197.389c0,0,1.296-0.811,2.432-1.783c1.133-0.971,6.642-10.696,6.642-10.696l1.295,1.622
						c0,0-5.347,9.559-6.48,10.37c-1.134,0.806-2.753,1.947-2.753,1.947L377.239,197.389z"/>
					<path fill="#666666" d="M376.591,196.74c0,0,0.648-0.163,1.782-1.296c1.134-1.133,5.67-10.046,5.67-10.046l2.106-0.486
						c0,0-5.346,10.371-6.966,11.345c-1.621,0.969-2.106,1.292-2.106,1.292L376.591,196.74z"/>
				</g>
				<g transform="matrix(.71533,.70724,.54609,-.8715,-47.60941,321.75139)">
					<path fill="#999999" d="M333.458,298.728c0,0,1.296-0.809,2.429-1.782c1.134-0.972,6.644-10.694,6.644-10.694l1.298,1.623
						c0,0-5.347,9.559-6.482,10.367c-1.135,0.811-2.757,1.944-2.757,1.944L333.458,298.728z"/>
					<path fill="#666666" d="M332.81,298.082c0,0,0.648-0.164,1.78-1.297c1.135-1.135,5.672-10.045,5.672-10.045l2.104-0.486
						c0,0-5.346,10.37-6.965,11.343c-1.621,0.971-2.108,1.294-2.108,1.294L332.81,298.082z"/>
				</g>
				<g transform="matrix(.94156,.35405,.14321,-1.01843,-23.08707,592.14854)">
					<path fill="#999999" d="M341.769,408.553c0,0,1.298-0.809,2.431-1.783c1.134-0.974,6.643-10.694,6.643-10.694l1.297,1.62
						c0,0-5.349,9.558-6.482,10.369c-1.133,0.812-2.756,1.944-2.756,1.944L341.769,408.553z"/>
					<path fill="#666666" d="M341.121,407.906c0,0,0.646-0.163,1.783-1.298c1.132-1.136,5.67-10.045,5.67-10.045l2.107-0.487
						c0,0-5.35,10.37-6.968,11.342c-1.621,0.971-2.106,1.298-2.106,1.298L341.121,407.906z"/>
				</g>
				<g transform="matrix(.85323,-.06367,-.25284,-.85107,188.09952,776.70993)">
					<path fill="#999999" d="M360.906,538.917c0,0,1.298-0.81,2.429-1.782c1.136-0.975,6.644-10.694,6.644-10.694l1.296,1.62
						c0,0-5.345,9.559-6.48,10.37c-1.136,0.809-2.751,1.944-2.751,1.944L360.906,538.917z"/>
					<path fill="#666666" d="M360.261,538.269c0,0,0.645-0.162,1.781-1.297c1.133-1.134,5.668-10.045,5.668-10.045l2.11-0.485
						c0,0-5.35,10.368-6.968,11.341c-1.622,0.971-2.11,1.295-2.11,1.295L360.261,538.269z"/>
				</g>
				<g transform="matrix(.67031,-.41814,-.62314,-.51407,446.03046,854.85449)">
					<path fill="#999999" d="M508.638,681.938c0,0,1.295-0.813,2.431-1.783c1.135-0.972,6.644-10.694,6.644-10.694l1.3,1.62
						c0,0-5.351,9.56-6.484,10.372c-1.134,0.81-2.756,1.944-2.756,1.944L508.638,681.938z"/>
					<path fill="#666666" d="M507.993,681.289c0,0,0.645-0.164,1.779-1.297c1.134-1.134,5.672-10.046,5.672-10.046l2.107-0.488
						c0,0-5.349,10.372-6.97,11.341c-1.62,0.973-2.106,1.297-2.106,1.297L507.993,681.289z"/>
				</g>
				<g transform="matrix(.75576,.46175,-.46752,.7436,333.27119,-174.47133)">
					<path fill="#999999" d="M303.819,430.511c0,0,1.297-0.813,2.43-1.782c1.135-0.974,6.644-10.695,6.644-10.695l1.296,1.619
						c0,0-5.347,9.561-6.482,10.371c-1.133,0.809-2.753,1.946-2.753,1.946L303.819,430.511z"/>
					<path fill="#666666" d="M303.173,429.861c0,0,0.648-0.162,1.781-1.296c1.134-1.133,5.669-10.046,5.669-10.046l2.107-0.484
						c0,0-5.346,10.369-6.965,11.341c-1.621,0.972-2.108,1.296-2.108,1.296L303.173,429.861z"/>
				</g>
				<g>
					<g>
						<g>
							<defs>
								<path id="SVGID_1_" d="M362.976,288.887c0.181,4.456-3.163,8.435-7.475,8.887c-4.308,0.452-7.949-2.793-8.133-7.247
									c-0.002-0.009-0.001-0.018,0-0.028c-0.184-4.455,3.16-8.431,7.472-8.886c4.308-0.452,7.952,2.793,8.135,7.248
									C362.974,288.869,362.974,288.878,362.976,288.887z"/>
							</defs>
							<clipPath id="SVGID_2_">
								<use xlink:href="#SVGID_1_"  overflow="visible"/>
							</clipPath>
							<g clip-path="url(#SVGID_2_)">
								<path fill="#808080" d="M362.825,288.933c0.179,4.493-3.056,8.484-7.219,8.915c-4.166,0.429-7.684-2.863-7.861-7.355
									c-0.177-4.492,3.053-8.483,7.217-8.914C359.127,281.147,362.647,284.442,362.825,288.933z"/>
							</g>
						</g>
					</g>
				</g>
				<g>
					<path fill="#CCCCCC" d="M354.02,284.785c0.019,0.486-0.314,0.919-0.746,0.961c-0.429,0.046-0.793-0.314-0.811-0.802
						c-0.022-0.486,0.311-0.919,0.745-0.963C353.637,283.938,354,284.298,354.02,284.785z"/>
				</g>
				<g>
					<path fill="#808080" d="M360.159,293.07c0.021,0.487-0.314,0.919-0.743,0.962c-0.429,0.044-0.794-0.315-0.814-0.803
						c-0.019-0.486,0.312-0.919,0.742-0.962C359.777,292.222,360.14,292.583,360.159,293.07z"/>
				</g>
				<g>
					<path fill="#CCCCCC" d="M351.099,289.841c0.019,0.487-0.317,0.919-0.743,0.964c-0.431,0.046-0.796-0.315-0.814-0.803
						c-0.019-0.487,0.312-0.92,0.741-0.963C350.717,288.995,351.08,289.354,351.099,289.841z"/>
				</g>
				<g>
					<path fill="#CCCCCC" d="M360.026,285.621c0.019,0.486-0.314,0.918-0.744,0.965c-0.431,0.041-0.793-0.316-0.813-0.804
						c-0.02-0.488,0.311-0.917,0.742-0.964C359.643,284.772,360.007,285.133,360.026,285.621z"/>
				</g>
				<g>
					<path fill="#CCCCCC" d="M353.553,294.281c0.019,0.488-0.313,0.918-0.745,0.964c-0.429,0.044-0.793-0.314-0.811-0.804
						c-0.022-0.486,0.313-0.917,0.742-0.961C353.169,293.434,353.533,293.792,353.553,294.281z"/>
				</g>
				<path fill="#666666" d="M358.246,289.536c0.069,1.764-1.137,3.323-2.693,3.483c-1.554,0.161-2.871-1.138-2.941-2.903
					c-0.07-1.762,1.133-3.323,2.689-3.483C356.86,286.474,358.176,287.774,358.246,289.536z"/>
				<path fill="#999999" d="M358.483,289.448c0.069,1.763-1.136,3.322-2.693,3.483c-1.554,0.161-2.873-1.139-2.941-2.902
					c-0.069-1.764,1.134-3.325,2.691-3.485C357.094,286.385,358.41,287.684,358.483,289.448z"/>
				<path fill="#999999" d="M357.739,266.201c-0.647-0.001-1.298,0.046-1.925,0.14c8.667,1.292,15.417,11.19,15.417,23.197
					c0.003,12.008-6.752,21.904-15.416,23.196c0.627,0.094,1.276,0.142,1.921,0.141c9.574,0.001,17.342-10.453,17.346-23.338
					C375.079,276.652,367.314,266.2,357.739,266.201z"/>
				<path fill="#FFFFFF" d="M357.579,262.651c-11.098,0-20.089,11.962-20.091,26.726c-0.001,14.766,8.996,26.727,20.088,26.726
					c11.097,0.001,20.089-11.961,20.091-26.725C377.668,274.613,368.673,262.652,357.579,262.651z M357.577,266.521
					c9.486,0,17.165,10.234,17.161,22.855c0.001,12.622-7.675,22.856-17.161,22.858c-9.483-0.001-17.179-10.236-17.18-22.86
					C340.395,276.755,348.091,266.522,357.577,266.521z"/>
			</g>
		</g>
		<g transform="matrix(1.84394,0,0,2.16836,-1177.9611,-372.90552)">
			<path d="M778.931,524.966c-14.832,8.441-20.724,51.967-2.521,51.967h15.836c-4.518-1.034-7.618-13.374-6.931-27.667
				c0.625-13.023,4.183-23.189,8.234-24.299L778.931,524.966L778.931,524.966z M793.952,576.773
				c-0.159,0.065-0.314,0.123-0.476,0.159h0.476V576.773z"/>
			<path fill="#1A1A1A" d="M806.9,552.592c-1.136,14.37-8.136,25.276-15.636,24.36c-7.501-0.917-12.66-13.309-11.526-27.679
				c1.135-14.371,8.136-25.276,15.637-24.36C802.875,525.828,808.036,538.222,806.9,552.592z"/>
			<g>
				<path d="M793.621,524.856c-7.231-0.181-13.821,10.499-14.922,24.42c-1.135,14.371,4.012,26.763,11.513,27.68
					c0.638,0.078,1.28,0.06,1.908-0.028c-7.401-1.095-12.46-13.399-11.334-27.653c1.036-13.116,6.952-23.351,13.682-24.337
					l-0.146-0.027C794.088,524.882,793.855,524.861,793.621,524.856L793.621,524.856z"/>
			</g>
			<path d="M801.147,550.885c0,7.191-3.011,13.021-6.727,13.021c-3.716,0-6.727-5.83-6.727-13.021s3.012-13.02,6.727-13.02
				C798.134,537.865,801.147,543.695,801.147,550.885z"/>
			<g transform="matrix(.37313,.11015,-.07023,.53868,616.24461,356.5115)">
				<path fill="#999999" d="M527.246,246.335c0,0,1.297-0.81,2.429-1.783c1.136-0.972,6.646-10.693,6.646-10.693l1.295,1.621
					c0,0-5.346,9.56-6.481,10.37c-1.134,0.81-2.755,1.944-2.755,1.944L527.246,246.335z"/>
				<path fill="#666666" d="M526.599,245.685c0,0,0.647-0.161,1.783-1.294c1.134-1.135,5.67-10.045,5.67-10.045l2.107-0.487
					c0,0-5.348,10.37-6.968,11.341c-1.621,0.972-2.108,1.296-2.108,1.296L526.599,245.685z"/>
				<g transform="matrix(.89937,-.47261,.4372,.97221,-113.00896,295.05748)">
					<path fill="#999999" d="M593.558,237.381c0,0,1.296-0.811,2.431-1.783c1.135-0.973,6.643-10.693,6.643-10.693l1.295,1.62
						c0,0-5.347,9.56-6.481,10.37c-1.133,0.811-2.753,1.945-2.753,1.945L593.558,237.381z"/>
					<path fill="#666666" d="M592.661,236.958c0,0,0.667-0.165,1.832-1.319c1.164-1.155,5.811-10.242,5.811-10.242l2.165-0.491
						c0,0-5.476,10.574-7.141,11.563c-1.662,0.989-2.163,1.318-2.163,1.318L592.661,236.958z"/>
				</g>
				<g transform="matrix(-.13149,.87055,.82551,.09775,349.35111,-163.0515)">
					<path fill="#999999" d="M449.002,275.758c0,0,1.297-0.81,2.43-1.783c1.136-0.972,6.644-10.693,6.644-10.693l1.296,1.621
						c0,0-5.348,9.558-6.48,10.369c-1.134,0.81-2.757,1.944-2.757,1.944L449.002,275.758z"/>
					<path fill="#666666" d="M448.355,275.108c0,0,0.649-0.162,1.781-1.296c1.134-1.133,5.67-10.045,5.67-10.045l2.108-0.487
						c0,0-5.347,10.37-6.967,11.342c-1.622,0.971-2.108,1.296-2.108,1.296L448.355,275.108z"/>
				</g>
				<g transform="matrix(.69001,-.74572,.73666,.7705,-107.84208,538.49532)">
					<path fill="#999999" d="M647.605,247.707c0,0,1.352-0.889,2.545-1.942c1.193-1.055,7.155-11.411,7.155-11.411l1.27,1.656
						c0,0-5.791,10.182-6.979,11.066c-1.185,0.884-2.88,2.123-2.88,2.123L647.605,247.707z"/>
					<path fill="#666666" d="M647.049,246.93c0,0,0.664-0.186,1.854-1.396c1.191-1.214,6.076-10.615,6.076-10.615l2.163-0.564
						c0,0-5.755,10.944-7.436,12.001c-1.68,1.058-2.185,1.407-2.185,1.407L647.049,246.93z"/>
				</g>
				<g transform="matrix(.21107,-.84815,.82288,.28919,144.5296,791.69779)">
					<path fill="#999999" d="M732.008,267.088c0,0,1.298-0.811,2.432-1.783c1.134-0.973,6.643-10.693,6.643-10.693l1.295,1.619
						c0,0-5.346,9.559-6.48,10.37c-1.134,0.808-2.754,1.943-2.754,1.943L732.008,267.088z"/>
					<path fill="#666666" d="M731.36,266.44c0,0,0.648-0.161,1.781-1.295c1.133-1.133,5.672-10.046,5.672-10.046l2.106-0.485
						c0,0-5.348,10.368-6.967,11.342c-1.621,0.971-2.108,1.297-2.108,1.297L731.36,266.44z"/>
				</g>
				<g transform="matrix(-.31452,-.92668,.75301,-.3767,486.99186,1104.3729)">
					<path fill="#999999" d="M772.026,362.726c0,0,1.141-0.7,2.14-1.537c0.999-0.84,5.828-9.249,5.828-9.249l1.153,1.407
						c0,0-4.686,8.269-5.685,8.966c-0.999,0.699-2.427,1.679-2.427,1.679L772.026,362.726z"/>
					<path fill="#666666" d="M771.377,362.088c0,0,0.55-0.112,1.489-0.949c0.943-0.835,4.611-7.485,4.611-7.485l1.787-0.329
						c0,0-4.326,7.735-5.686,8.443c-1.361,0.705-1.768,0.941-1.768,0.941L771.377,362.088z"/>
				</g>
				<g transform="matrix(.4041,.83471,.78402,-.40251,44.36263,60.46256)">
					<path fill="#999999" d="M425.334,387.153c0,0,1.296-0.81,2.429-1.782c1.134-0.971,6.646-10.694,6.646-10.694l1.296,1.62
						c0,0-5.349,9.558-6.482,10.37c-1.135,0.81-2.754,1.945-2.754,1.945L425.334,387.153z"/>
					<path fill="#666666" d="M424.685,386.505c0,0,0.646-0.161,1.78-1.295c1.137-1.135,5.672-10.046,5.672-10.046l2.107-0.486
						c0,0-5.347,10.37-6.967,11.341c-1.622,0.971-2.109,1.296-2.109,1.296L424.685,386.505z"/>
				</g>
				<g transform="matrix(.71533,.70724,.54609,-.8715,-47.60941,321.75139)">
					<path fill="#999999" d="M459.058,442.238c0,0,1.297-0.81,2.431-1.782c1.134-0.972,6.644-10.695,6.644-10.695l1.297,1.621
						c0,0-5.347,9.559-6.481,10.37c-1.135,0.809-2.754,1.943-2.754,1.943L459.058,442.238z"/>
					<path fill="#666666" d="M458.41,441.59c0,0,0.648-0.162,1.781-1.296c1.135-1.134,5.671-10.046,5.671-10.046l2.106-0.485
						c0,0-5.347,10.368-6.967,11.341c-1.62,0.972-2.106,1.297-2.106,1.297L458.41,441.59z"/>
				</g>
				<g transform="matrix(.94156,.35405,.14321,-1.01843,-23.08707,592.14854)">
					<path fill="#999999" d="M506.311,501.336c0,0,1.296-0.81,2.43-1.782c1.134-0.972,6.644-10.692,6.644-10.692l1.295,1.619
						c0,0-5.346,9.561-6.48,10.37c-1.134,0.811-2.753,1.943-2.753,1.943L506.311,501.336z"/>
					<path fill="#666666" d="M505.662,500.69c0,0,0.649-0.162,1.784-1.299c1.134-1.134,5.671-10.045,5.671-10.045l2.105-0.488
						c0,0-5.349,10.371-6.968,11.343c-1.618,0.973-2.105,1.297-2.105,1.297L505.662,500.69z"/>
				</g>
				<g transform="matrix(.85323,-.06367,-.25284,-.85107,188.09952,776.70993)">
					<path fill="#999999" d="M566.126,566.143c0,0,1.296-0.811,2.431-1.782c1.135-0.972,6.643-10.694,6.643-10.694l1.296,1.619
						c0,0-5.346,9.561-6.481,10.372c-1.135,0.809-2.755,1.942-2.755,1.942L566.126,566.143z"/>
					<path fill="#666666" d="M565.477,565.494c0,0,0.648-0.162,1.782-1.297c1.134-1.131,5.67-10.045,5.67-10.045l2.108-0.485
						c0,0-5.347,10.369-6.968,11.341c-1.62,0.972-2.105,1.296-2.105,1.296L565.477,565.494z"/>
				</g>
				<g transform="matrix(.67031,-.41814,-.62314,-.51407,446.03046,854.85449)">
					<path fill="#999999" d="M688.852,605.845c0,0,1.295-0.81,2.43-1.783c1.135-0.973,6.643-10.694,6.643-10.694l1.297,1.621
						c0,0-5.347,9.56-6.482,10.37c-1.134,0.811-2.753,1.943-2.753,1.943L688.852,605.845z"/>
					<path fill="#666666" d="M688.203,605.196c0,0,0.648-0.161,1.784-1.295c1.133-1.136,5.668-10.048,5.668-10.048l2.109-0.484
						c0,0-5.348,10.369-6.969,11.34c-1.62,0.973-2.108,1.296-2.108,1.296L688.203,605.196z"/>
				</g>
				<g transform="matrix(.75576,.46175,-.46752,.7436,333.27119,-174.47133)">
					<path fill="#999999" d="M442.844,295.446c0,0,1.298-0.808,2.431-1.783c1.135-0.972,6.644-10.692,6.644-10.692l1.297,1.619
						c0,0-5.349,9.559-6.482,10.37c-1.134,0.809-2.755,1.944-2.755,1.944L442.844,295.446z"/>
					<path fill="#666666" d="M442.196,294.798c0,0,0.648-0.161,1.782-1.295c1.132-1.136,5.67-10.046,5.67-10.046l2.107-0.486
						c0,0-5.346,10.371-6.967,11.341c-1.621,0.971-2.107,1.296-2.107,1.296L442.196,294.798z"/>
				</g>
				<g>
					<g>
						<g>
							<defs>
								<path id="SVGID_3_" d="M531.19,252.65c0.183,4.454-3.164,8.431-7.473,8.886c-4.311,0.453-7.953-2.793-8.135-7.249
									c0-0.009-0.001-0.018-0.001-0.027c-0.183-4.454,3.163-8.433,7.473-8.885c4.309-0.451,7.952,2.793,8.135,7.249
									C531.188,252.63,531.19,252.641,531.19,252.65z"/>
							</defs>
							<clipPath id="SVGID_4_">
								<use xlink:href="#SVGID_3_"  overflow="visible"/>
							</clipPath>
							<g clip-path="url(#SVGID_4_)">
								<path fill="#808080" d="M531.04,252.696c0.177,4.493-3.055,8.482-7.218,8.913c-4.164,0.43-7.682-2.863-7.86-7.356
									c-0.176-4.491,3.055-8.484,7.218-8.913C527.344,244.909,530.862,248.204,531.04,252.696z"/>
							</g>
						</g>
					</g>
				</g>
				<g>
					<path fill="#CCCCCC" d="M522.234,248.547c0.02,0.488-0.314,0.919-0.744,0.964c-0.43,0.045-0.793-0.314-0.814-0.801
						c-0.019-0.489,0.314-0.919,0.745-0.965C521.852,247.701,522.216,248.06,522.234,248.547z"/>
				</g>
				<g>
					<path fill="#808080" d="M528.375,256.832c0.018,0.485-0.313,0.919-0.745,0.962c-0.43,0.044-0.794-0.313-0.813-0.801
						c-0.02-0.488,0.314-0.919,0.744-0.964C527.992,255.984,528.355,256.345,528.375,256.832z"/>
				</g>
				<g>
					<path fill="#CCCCCC" d="M519.313,253.604c0.019,0.487-0.314,0.919-0.744,0.962c-0.432,0.045-0.795-0.315-0.814-0.802
						c-0.019-0.488,0.314-0.919,0.745-0.963C518.93,252.756,519.294,253.115,519.313,253.604z"/>
				</g>
				<g>
					<path fill="#CCCCCC" d="M528.241,249.382c0.02,0.488-0.314,0.919-0.745,0.964c-0.429,0.043-0.793-0.315-0.814-0.803
						c-0.019-0.488,0.315-0.919,0.744-0.964C527.857,248.534,528.221,248.894,528.241,249.382z"/>
				</g>
				<g>
					<path fill="#CCCCCC" d="M521.767,258.044c0.019,0.488-0.313,0.918-0.743,0.963c-0.429,0.045-0.794-0.315-0.812-0.802
						c-0.019-0.488,0.313-0.918,0.744-0.963C521.384,257.197,521.747,257.556,521.767,258.044z"/>
				</g>
				<path fill="#666666" d="M526.46,253.297c0.07,1.764-1.135,3.323-2.69,3.485c-1.557,0.16-2.874-1.139-2.944-2.903
					c-0.069-1.762,1.136-3.322,2.691-3.483C525.072,250.236,526.392,251.534,526.46,253.297z"/>
				<path fill="#999999" d="M526.696,253.209c0.069,1.763-1.135,3.323-2.691,3.485c-1.556,0.16-2.874-1.139-2.944-2.901
					c-0.069-1.764,1.136-3.323,2.692-3.485C525.308,250.146,526.627,251.448,526.696,253.209z"/>
				<path fill="#999999" d="M525.952,229.962c-0.647-0.001-1.297,0.047-1.925,0.14c8.668,1.293,15.419,11.188,15.418,23.199
					c0.001,12.008-6.752,21.904-15.416,23.198c0.628,0.092,1.276,0.139,1.923,0.139c9.575,0.001,17.345-10.451,17.344-23.337
					C543.296,240.414,535.527,229.962,525.952,229.962z"/>
				<path fill="#FFFFFF" d="M525.793,226.414c-11.097-0.001-20.089,11.96-20.091,26.724c0,14.766,8.995,26.726,20.09,26.727
					c11.095,0.001,20.09-11.962,20.089-26.726C545.883,238.374,536.889,226.413,525.793,226.414z M525.793,230.282
					c9.485-0.001,17.163,10.235,17.163,22.856c0,12.62-7.678,22.855-17.162,22.856c-9.486,0-17.183-10.235-17.183-22.857
					C508.61,240.519,516.306,230.283,525.793,230.282z"/>
			</g>
		</g>
		<path fill="#333333" d="M509.509,755.071h59.224V858.77h-59.224V755.071z"/>
		<g transform="matrix(1.84394,0,0,2.16836,-782.99147,-362.90552)">
			<path d="M702.158,523.312c-14.832,8.442-20.725,51.968-2.522,51.968h15.835c-4.517-1.034-7.617-13.375-6.93-27.669
				c0.624-13.023,4.182-23.189,8.234-24.299H702.158z M717.179,575.12c-0.159,0.064-0.315,0.123-0.476,0.161h0.476V575.12z"/>
			<path fill="#1A1A1A" d="M730.127,550.938c-1.135,14.37-8.136,25.275-15.637,24.36c-7.5-0.917-12.661-13.31-11.525-27.681
				c1.134-14.371,8.136-25.277,15.636-24.359C726.102,524.175,731.261,536.568,730.127,550.938z"/>
			<g>
				<path d="M716.848,523.202c-7.231-0.181-13.822,10.5-14.921,24.422c-1.136,14.371,4.013,26.763,11.513,27.68
					c0.638,0.077,1.281,0.06,1.908-0.028c-7.402-1.094-12.461-13.398-11.334-27.652c1.036-13.117,6.952-23.35,13.682-24.338
					l-0.147-0.027C717.315,523.229,717.081,523.209,716.848,523.202L716.848,523.202z"/>
			</g>
			<path d="M724.374,549.232c0,7.19-3.013,13.021-6.728,13.021c-3.714,0-6.726-5.83-6.726-13.021c0-7.191,3.012-13.02,6.726-13.02
				C721.361,536.213,724.374,542.042,724.374,549.232z"/>
			<g transform="matrix(.37313,.11015,-.07023,.53868,616.24461,356.5115)">
				<path fill="#999999" d="M328.56,283.892c0,0,1.298-0.809,2.431-1.781c1.135-0.973,6.642-10.694,6.642-10.694l1.297,1.62
					c0,0-5.347,9.561-6.482,10.37c-1.135,0.811-2.754,1.944-2.754,1.944L328.56,283.892z"/>
				<path fill="#666666" d="M327.911,283.246c0,0,0.65-0.161,1.784-1.296c1.131-1.133,5.67-10.046,5.67-10.046l2.107-0.486
					c0,0-5.346,10.37-6.969,11.342c-1.619,0.973-2.105,1.296-2.105,1.296L327.911,283.246z"/>
				<g transform="matrix(.89937,-.47261,.4372,.97221,-113.00896,295.05748)">
					<path fill="#999999" d="M399.678,181.764c0,0,1.294-0.81,2.429-1.782c1.135-0.973,6.642-10.693,6.642-10.693l1.297,1.619
						c0,0-5.345,9.559-6.478,10.37c-1.136,0.811-2.755,1.944-2.755,1.944L399.678,181.764z"/>
					<path fill="#666666" d="M398.783,181.339c0,0,0.665-0.163,1.828-1.319c1.165-1.156,5.811-10.241,5.811-10.241l2.167-0.492
						c0,0-5.477,10.574-7.142,11.562c-1.666,0.989-2.165,1.32-2.165,1.32L398.783,181.339z"/>
				</g>
				<g transform="matrix(-.13149,.87055,.82551,.09775,349.35111,-163.0515)">
					<path fill="#999999" d="M517.938,46.057c0,0,1.296-0.813,2.431-1.784c1.135-0.972,6.642-10.695,6.642-10.695l1.296,1.621
						c0,0-5.344,9.56-6.48,10.372c-1.134,0.807-2.754,1.941-2.754,1.941L517.938,46.057z"/>
					<path fill="#666666" d="M517.288,45.406c0,0,0.65-0.161,1.784-1.296c1.134-1.134,5.669-10.046,5.669-10.046l2.109-0.487
						c0,0-5.348,10.372-6.967,11.342c-1.622,0.972-2.107,1.295-2.107,1.295L517.288,45.406z"/>
				</g>
				<g transform="matrix(.69001,-.74572,.73666,.7705,-107.84208,538.49532)">
					<path fill="#999999" d="M480.39,134.618c0,0,1.353-0.89,2.547-1.943c1.192-1.054,7.155-11.412,7.155-11.412l1.27,1.658
						c0,0-5.79,10.182-6.976,11.068c-1.188,0.884-2.883,2.122-2.883,2.122L480.39,134.618z"/>
					<path fill="#666666" d="M479.837,133.84c0,0,0.667-0.186,1.857-1.398c1.189-1.21,6.075-10.615,6.075-10.615l2.161-0.564
						c0,0-5.756,10.945-7.436,12.001c-1.68,1.056-2.183,1.407-2.183,1.407L479.837,133.84z"/>
				</g>
				<g transform="matrix(.21107,-.84815,.82288,.28919,144.5296,791.69779)">
					<path fill="#999999" d="M615.581,55.499c0,0,1.295-0.81,2.43-1.782c1.133-0.97,6.643-10.69,6.643-10.69l1.297,1.617
						c0,0-5.348,9.558-6.481,10.37c-1.135,0.808-2.755,1.942-2.755,1.942L615.581,55.499z"/>
					<path fill="#666666" d="M614.934,54.852c0,0,0.648-0.163,1.781-1.297c1.135-1.133,5.67-10.044,5.67-10.044l2.108-0.489
						c0,0-5.347,10.37-6.966,11.344c-1.62,0.972-2.105,1.296-2.105,1.296L614.934,54.852z"/>
				</g>
				<g transform="matrix(-.31452,-.92668,.75301,-.3767,486.99186,1104.3729)">
					<path fill="#999999" d="M829.069,122.696c0,0,1.143-0.696,2.141-1.538c0.998-0.838,5.827-9.247,5.827-9.247l1.153,1.409
						c0,0-4.688,8.271-5.685,8.968c-1,0.696-2.426,1.674-2.426,1.674L829.069,122.696z"/>
					<path fill="#666666" d="M828.42,122.056c0,0,0.55-0.112,1.49-0.944c0.942-0.836,4.609-7.487,4.609-7.487l1.789-0.331
						c0,0-4.324,7.735-5.686,8.441c-1.36,0.706-1.768,0.943-1.768,0.943L828.42,122.056z"/>
				</g>
				<g transform="matrix(.4041,.83471,.78402,-.40251,44.36263,60.46256)">
					<path fill="#999999" d="M363.495,165.608c0,0,1.296-0.811,2.432-1.785c1.133-0.973,6.641-10.692,6.641-10.692l1.297,1.62
						c0,0-5.347,9.561-6.48,10.37c-1.135,0.81-2.753,1.943-2.753,1.943L363.495,165.608z"/>
					<path fill="#666666" d="M362.846,164.957c0,0,0.649-0.163,1.781-1.296c1.136-1.134,5.672-10.046,5.672-10.046l2.105-0.486
						c0,0-5.345,10.369-6.965,11.343c-1.621,0.971-2.109,1.296-2.109,1.296L362.846,164.957z"/>
				</g>
				<g transform="matrix(.71533,.70724,.54609,-.8715,-47.60941,321.75139)">
					<path fill="#999999" d="M307.869,276.45c0,0,1.296-0.81,2.429-1.784c1.135-0.971,6.644-10.694,6.644-10.694l1.295,1.621
						c0,0-5.346,9.558-6.479,10.371c-1.135,0.811-2.756,1.944-2.756,1.944L307.869,276.45z"/>
					<path fill="#666666" d="M307.219,275.8c0,0,0.648-0.162,1.784-1.296c1.135-1.133,5.672-10.045,5.672-10.045l2.104-0.486
						c0,0-5.346,10.371-6.966,11.344c-1.62,0.972-2.108,1.294-2.108,1.294L307.219,275.8z"/>
				</g>
				<g transform="matrix(.94156,.35405,.14321,-1.01843,-23.08707,592.14854)">
					<path fill="#999999" d="M311.218,396.635c0,0,1.295-0.812,2.43-1.783c1.133-0.972,6.643-10.692,6.643-10.692l1.298,1.62
						c0,0-5.348,9.561-6.481,10.371c-1.134,0.809-2.755,1.942-2.755,1.942L311.218,396.635z"/>
					<path fill="#666666" d="M310.57,395.987c0,0,0.646-0.162,1.781-1.296c1.135-1.135,5.672-10.045,5.672-10.045l2.105-0.487
						c0,0-5.347,10.371-6.965,11.343c-1.624,0.971-2.108,1.295-2.108,1.295L310.57,395.987z"/>
				</g>
				<g transform="matrix(.85323,-.06367,-.25284,-.85107,188.09952,776.70993)">
					<path fill="#999999" d="M325.519,540.013c0,0,1.296-0.812,2.431-1.782c1.134-0.973,6.64-10.696,6.64-10.696l1.297,1.62
						c0,0-5.346,9.559-6.482,10.37c-1.135,0.809-2.751,1.943-2.751,1.943L325.519,540.013z"/>
					<path fill="#666666" d="M324.868,539.363c0,0,0.647-0.16,1.786-1.295c1.132-1.135,5.67-10.046,5.67-10.046l2.104-0.486
						c0,0-5.345,10.371-6.965,11.343c-1.622,0.972-2.107,1.294-2.107,1.294L324.868,539.363z"/>
				</g>
				<g transform="matrix(.67031,-.41814,-.62314,-.51407,446.03046,854.85449)">
					<path fill="#999999" d="M481.392,701.528c0,0,1.295-0.81,2.431-1.781c1.137-0.971,6.642-10.696,6.642-10.696l1.297,1.621
						c0,0-5.347,9.559-6.482,10.369c-1.132,0.811-2.752,1.943-2.752,1.943L481.392,701.528z"/>
					<path fill="#666666" d="M480.745,700.882c0,0,0.647-0.164,1.782-1.296c1.132-1.137,5.669-10.048,5.669-10.048l2.106-0.484
						c0,0-5.346,10.367-6.967,11.339c-1.619,0.973-2.107,1.297-2.107,1.297L480.745,700.882z"/>
				</g>
				<g transform="matrix(.75576,.46175,-.46752,.7436,333.27119,-174.47133)">
					<path fill="#999999" d="M275.484,449.88c0,0,1.297-0.809,2.432-1.783c1.131-0.972,6.644-10.692,6.644-10.692l1.293,1.619
						c0,0-5.345,9.559-6.48,10.37c-1.134,0.81-2.753,1.945-2.753,1.945L275.484,449.88z"/>
					<path fill="#666666" d="M274.837,449.232c0,0,0.648-0.163,1.781-1.298c1.134-1.133,5.669-10.043,5.669-10.043l2.109-0.487
						c0,0-5.348,10.369-6.967,11.341c-1.621,0.974-2.108,1.296-2.108,1.296L274.837,449.232z"/>
				</g>
				<g>
					<g>
						<g>
							<defs>
								<path id="SVGID_5_" d="M332.503,290.206c0.184,4.455-3.162,8.434-7.473,8.885c-4.308,0.453-7.951-2.791-8.135-7.245
									c0.001-0.01-0.001-0.018,0-0.028c-0.185-4.454,3.161-8.432,7.47-8.885c4.311-0.453,7.952,2.793,8.137,7.245
									C332.504,290.188,332.503,290.197,332.503,290.206z"/>
							</defs>
							<clipPath id="SVGID_6_">
								<use xlink:href="#SVGID_5_"  overflow="visible"/>
							</clipPath>
							<g clip-path="url(#SVGID_6_)">
								<path fill="#808080" d="M332.352,290.254c0.179,4.494-3.052,8.484-7.216,8.914c-4.161,0.43-7.683-2.864-7.859-7.358
									c-0.178-4.492,3.054-8.48,7.218-8.911C328.657,282.469,332.176,285.762,332.352,290.254z"/>
							</g>
						</g>
					</g>
				</g>
				<g>
					<path fill="#CCCCCC" d="M323.549,286.107c0.018,0.486-0.314,0.919-0.744,0.963c-0.433,0.044-0.797-0.314-0.815-0.801
						c-0.018-0.488,0.314-0.919,0.743-0.963C323.164,285.26,323.528,285.62,323.549,286.107z"/>
				</g>
				<g>
					<path fill="#808080" d="M329.688,294.391c0.019,0.485-0.313,0.918-0.742,0.962c-0.433,0.045-0.796-0.317-0.815-0.802
						c-0.02-0.488,0.315-0.92,0.743-0.964C329.305,293.543,329.669,293.904,329.688,294.391z"/>
				</g>
				<g>
					<path fill="#CCCCCC" d="M320.626,291.162c0.019,0.487-0.313,0.918-0.744,0.962c-0.427,0.045-0.793-0.314-0.812-0.8
						c-0.021-0.487,0.312-0.919,0.744-0.962C320.243,290.316,320.606,290.675,320.626,291.162z"/>
				</g>
				<g>
					<path fill="#CCCCCC" d="M329.555,286.941c0.019,0.488-0.317,0.92-0.745,0.965c-0.428,0.043-0.793-0.315-0.813-0.804
						c-0.018-0.488,0.313-0.918,0.744-0.964C329.172,286.095,329.536,286.452,329.555,286.941z"/>
				</g>
				<g>
					<path fill="#CCCCCC" d="M323.083,295.601c0.018,0.488-0.315,0.918-0.747,0.964c-0.429,0.044-0.793-0.314-0.814-0.802
						c-0.018-0.49,0.314-0.919,0.745-0.964C322.695,294.754,323.064,295.113,323.083,295.601z"/>
				</g>
				<path fill="#666666" d="M327.773,290.858c0.071,1.763-1.136,3.323-2.689,3.482c-1.558,0.161-2.874-1.138-2.943-2.901
					c-0.07-1.762,1.136-3.323,2.69-3.482C326.389,287.794,327.705,289.093,327.773,290.858z"/>
				<path fill="#999999" d="M328.01,290.77c0.068,1.762-1.136,3.322-2.691,3.483c-1.557,0.161-2.873-1.141-2.944-2.902
					c-0.069-1.764,1.135-3.323,2.691-3.485C326.623,287.707,327.941,289.005,328.01,290.77z"/>
				<path fill="#999999" d="M327.267,267.521c-0.649-0.001-1.296,0.047-1.924,0.14c8.666,1.291,15.417,11.188,15.417,23.197
					c0.002,12.008-6.752,21.906-15.418,23.197c0.628,0.094,1.278,0.14,1.925,0.139c9.574,0.003,17.343-10.451,17.342-23.336
					C344.61,277.972,336.843,267.52,327.267,267.521z"/>
				<path fill="#FFFFFF" d="M327.107,263.972c-11.098,0-20.089,11.962-20.089,26.727c-0.002,14.764,8.992,26.725,20.088,26.725
					c11.098-0.001,20.092-11.962,20.09-26.725C347.195,275.933,338.202,263.973,327.107,263.972z M327.109,267.842
					c9.483,0.001,17.16,10.235,17.161,22.854c-0.002,12.623-7.677,22.859-17.163,22.858c-9.485,0.001-17.182-10.236-17.183-22.856
					C309.925,278.076,317.62,267.842,327.109,267.842z"/>
			</g>
		</g>
		<path fill="#333333" d="M703.877,771.83l27.56-2.723l2.574,44.125l-25.689,3.589L703.877,771.83z"/>
		<g transform="matrix(1.56418,0,0,1.83938,-288.19602,-152.53628)">
			<path d="M623.875,507.354c-14.831,8.441-20.723,51.968-2.52,51.968h15.836c-4.518-1.035-7.617-13.375-6.93-27.668
				c0.625-13.024,4.182-23.189,8.234-24.3H623.875L623.875,507.354z M638.897,559.161c-0.16,0.064-0.315,0.123-0.476,0.161h0.476
				V559.161z"/>
			<path fill="#1A1A1A" d="M651.844,534.98c-1.135,14.37-8.135,25.276-15.637,24.36c-7.501-0.919-12.661-13.311-11.527-27.681
				c1.136-14.37,8.136-25.277,15.638-24.36C647.82,508.216,652.98,520.609,651.844,534.98z"/>
			<g>
				<path d="M638.567,507.244c-7.23-0.181-13.823,10.5-14.922,24.421c-1.136,14.371,4.012,26.763,11.513,27.679
					c0.637,0.079,1.282,0.061,1.907-0.028c-7.401-1.094-12.459-13.399-11.332-27.652c1.036-13.117,6.951-23.35,13.681-24.338
					l-0.147-0.027C639.032,507.271,638.799,507.25,638.567,507.244L638.567,507.244z"/>
			</g>
			<path d="M646.091,533.273c0,7.191-3.012,13.021-6.727,13.021c-3.715,0-6.727-5.83-6.727-13.021c0-7.19,3.012-13.021,6.727-13.021
				C643.079,520.254,646.091,526.084,646.091,533.273z"/>
			<g transform="matrix(.37313,.11015,-.07023,.53868,616.24461,356.5115)">
				<path fill="#999999" d="M121.168,296.675c0,0,1.297-0.809,2.432-1.783c1.132-0.971,6.643-10.69,6.643-10.69l1.295,1.618
					c0,0-5.347,9.561-6.478,10.37c-1.135,0.809-2.756,1.945-2.756,1.945L121.168,296.675z"/>
				<path fill="#666666" d="M120.521,296.028c0,0,0.649-0.162,1.784-1.296c1.133-1.135,5.671-10.046,5.671-10.046l2.104-0.485
					c0,0-5.342,10.369-6.963,11.342c-1.621,0.972-2.107,1.296-2.107,1.296L120.521,296.028z"/>
				<g transform="matrix(.89937,-.47261,.4372,.97221,-113.00896,295.05748)">
					<path fill="#999999" d="M207.988,101.728c0,0,1.297-0.811,2.431-1.782c1.132-0.972,6.643-10.694,6.643-10.694l1.297,1.62
						c0,0-5.351,9.56-6.482,10.37c-1.133,0.811-2.754,1.945-2.754,1.945L207.988,101.728z"/>
					<path fill="#666666" d="M207.092,101.305c0,0,0.666-0.165,1.831-1.32c1.162-1.155,5.812-10.24,5.812-10.24l2.164-0.494
						c0,0-5.478,10.575-7.141,11.563c-1.663,0.99-2.166,1.319-2.166,1.319L207.092,101.305z"/>
				</g>
				<g transform="matrix(-.13149,.87055,.82551,.09775,349.35111,-163.0515)">
					<path fill="#999999" d="M560.073-198.462c0,0,1.3-0.813,2.432-1.78c1.134-0.976,6.643-10.696,6.643-10.696l1.296,1.621
						c0,0-5.346,9.56-6.482,10.369c-1.134,0.812-2.753,1.943-2.753,1.943L560.073-198.462z"/>
					<path fill="#666666" d="M559.429-199.11c0,0,0.647-0.163,1.782-1.295c1.135-1.135,5.67-10.047,5.67-10.047l2.107-0.487
						c0,0-5.346,10.37-6.966,11.343c-1.621,0.972-2.106,1.294-2.106,1.294L559.429-199.11z"/>
				</g>
				<g transform="matrix(.69001,-.74572,.73666,.7705,-107.84208,538.49532)">
					<path fill="#999999" d="M323.86-0.289c0,0,1.352-0.89,2.544-1.944c1.192-1.053,7.155-11.411,7.155-11.411l1.267,1.655
						c0,0-5.789,10.184-6.977,11.068c-1.186,0.884-2.881,2.121-2.881,2.121L323.86-0.289z"/>
					<path fill="#666666" d="M323.303-1.068c0,0,0.666-0.189,1.857-1.398c1.187-1.214,6.076-10.616,6.076-10.616l2.159-0.564
						c0,0-5.752,10.943-7.436,12c-1.677,1.058-2.182,1.408-2.182,1.408L323.303-1.068z"/>
				</g>
				<g transform="matrix(.21107,-.84815,.82288,.28919,144.5296,791.69779)">
					<path fill="#999999" d="M522.702-172.707c0,0,1.293-0.813,2.43-1.78c1.134-0.974,6.642-10.695,6.642-10.695l1.295,1.618
						c0,0-5.346,9.56-6.479,10.372c-1.135,0.811-2.757,1.942-2.757,1.942L522.702-172.707z"/>
					<path fill="#666666" d="M522.049-173.356c0,0,0.652-0.16,1.785-1.295c1.134-1.135,5.67-10.045,5.67-10.045l2.104-0.488
						c0,0-5.346,10.372-6.963,11.344c-1.62,0.975-2.108,1.296-2.108,1.296L522.049-173.356z"/>
				</g>
				<g transform="matrix(-.31452,-.92668,.75301,-.3767,486.99186,1104.3729)">
					<path fill="#999999" d="M912.986-117.672c0,0,1.142-0.695,2.14-1.535c0.998-0.844,5.827-9.253,5.827-9.253l1.152,1.41
						c0,0-4.686,8.273-5.687,8.97c-0.996,0.698-2.425,1.673-2.425,1.673L912.986-117.672z"/>
					<path fill="#666666" d="M912.334-118.304c0,0,0.552-0.113,1.495-0.95c0.94-0.839,4.609-7.488,4.609-7.488l1.785-0.33
						c0,0-4.323,7.735-5.685,8.444c-1.362,0.707-1.767,0.938-1.767,0.938L912.334-118.304z"/>
				</g>
				<g transform="matrix(.4041,.83471,.78402,-.40251,44.36263,60.46256)">
					<path fill="#999999" d="M273.595-52.583c0,0,1.295-0.808,2.43-1.78c1.137-0.973,6.644-10.693,6.644-10.693l1.295,1.621
						c0,0-5.347,9.556-6.479,10.37c-1.135,0.809-2.756,1.94-2.756,1.94L273.595-52.583z"/>
					<path fill="#666666" d="M272.95-53.23c0,0,0.647-0.162,1.782-1.296c1.134-1.134,5.671-10.044,5.671-10.044l2.106-0.488
						c0,0-5.346,10.369-6.967,11.343c-1.62,0.973-2.107,1.294-2.107,1.294L272.95-53.23z"/>
				</g>
				<g transform="matrix(.71533,.70724,.54609,-.8715,-47.60941,321.75139)">
					<path fill="#999999" d="M135.763,122.115c0,0,1.296-0.81,2.43-1.785c1.134-0.97,6.643-10.692,6.643-10.692l1.295,1.622
						c0,0-5.344,9.561-6.479,10.368c-1.135,0.811-2.755,1.946-2.755,1.946L135.763,122.115z"/>
					<path fill="#666666" d="M135.114,121.465c0,0,0.65-0.16,1.785-1.296c1.135-1.133,5.668-10.045,5.668-10.045l2.11-0.484
						c0,0-5.349,10.368-6.969,11.342c-1.62,0.972-2.108,1.292-2.108,1.292L135.114,121.465z"/>
				</g>
				<g transform="matrix(.94156,.35405,.14321,-1.01843,-23.08707,592.14854)">
					<path fill="#999999" d="M103.829,311.987c0,0,1.299-0.81,2.434-1.782c1.131-0.975,6.642-10.693,6.642-10.693l1.293,1.618
						c0,0-5.348,9.561-6.483,10.371c-1.131,0.811-2.755,1.943-2.755,1.943L103.829,311.987z"/>
					<path fill="#666666" d="M103.182,311.338c0,0,0.649-0.162,1.783-1.295c1.131-1.136,5.67-10.046,5.67-10.046l2.105-0.487
						c0,0-5.348,10.369-6.965,11.342c-1.622,0.971-2.108,1.294-2.108,1.294L103.182,311.338z"/>
				</g>
				<g transform="matrix(.85323,-.06367,-.25284,-.85107,188.09952,776.70993)">
					<path fill="#999999" d="M83.363,543.109c0,0,1.3-0.811,2.433-1.782c1.131-0.974,6.641-10.693,6.641-10.693l1.299,1.619
						c0,0-5.344,9.56-6.482,10.367c-1.133,0.814-2.756,1.946-2.756,1.946L83.363,543.109z"/>
					<path fill="#666666" d="M82.719,542.46c0,0,0.648-0.164,1.783-1.298c1.134-1.132,5.668-10.045,5.668-10.045l2.108-0.487
						c0,0-5.347,10.37-6.966,11.343c-1.619,0.971-2.106,1.296-2.106,1.296L82.719,542.46z"/>
				</g>
				<g transform="matrix(.67031,-.41814,-.62314,-.51407,446.03046,854.85449)">
					<path fill="#999999" d="M292.051,830.672c0,0,1.297-0.809,2.43-1.781c1.132-0.971,6.642-10.692,6.642-10.692l1.298,1.618
						c0,0-5.349,9.563-6.482,10.37c-1.132,0.811-2.755,1.945-2.755,1.945L292.051,830.672z"/>
					<path fill="#666666" d="M291.401,830.024c0,0,0.649-0.16,1.783-1.296c1.137-1.134,5.673-10.046,5.673-10.046l2.107-0.485
						c0,0-5.346,10.369-6.97,11.341c-1.618,0.972-2.109,1.297-2.109,1.297L291.401,830.024z"/>
				</g>
				<g transform="matrix(.75576,.46175,-.46752,.7436,333.27119,-174.47133)">
					<path fill="#999999" d="M84.91,585.411c0,0,1.295-0.808,2.431-1.783c1.134-0.972,6.642-10.693,6.642-10.693l1.297,1.623
						c0,0-5.349,9.557-6.481,10.366c-1.136,0.812-2.756,1.946-2.756,1.946L84.91,585.411z"/>
					<path fill="#666666" d="M84.262,584.766c0,0,0.646-0.164,1.781-1.298c1.135-1.133,5.672-10.044,5.672-10.044l2.107-0.49
						c0,0-5.348,10.371-6.969,11.346c-1.619,0.969-2.106,1.292-2.106,1.292L84.262,584.766z"/>
				</g>
				<g>
					<g>
						<g>
							<defs>
								<path id="SVGID_7_" d="M125.112,302.991c0.182,4.453-3.162,8.43-7.472,8.882c-4.31,0.455-7.952-2.789-8.135-7.245
									c0-0.009-0.003-0.016-0.004-0.028c-0.182-4.454,3.161-8.433,7.474-8.884c4.312-0.453,7.949,2.79,8.135,7.245
									C125.108,302.971,125.112,302.981,125.112,302.991z"/>
							</defs>
							<clipPath id="SVGID_8_">
								<use xlink:href="#SVGID_7_"  overflow="visible"/>
							</clipPath>
							<g clip-path="url(#SVGID_8_)">
								<path fill="#808080" d="M124.963,303.037c0.175,4.494-3.055,8.482-7.219,8.912c-4.162,0.43-7.683-2.862-7.858-7.356
									c-0.178-4.492,3.053-8.482,7.215-8.914C121.265,295.253,124.782,298.546,124.963,303.037z"/>
							</g>
						</g>
					</g>
				</g>
				<g>
					<path fill="#CCCCCC" d="M116.155,298.89c0.016,0.487-0.314,0.918-0.742,0.962c-0.43,0.045-0.797-0.314-0.815-0.801
						c-0.018-0.489,0.315-0.922,0.744-0.964C115.772,298.041,116.136,298.401,116.155,298.89z"/>
				</g>
				<g>
					<path fill="#808080" d="M122.299,307.174c0.019,0.486-0.316,0.918-0.747,0.964c-0.428,0.044-0.792-0.316-0.814-0.802
						c-0.019-0.49,0.314-0.921,0.745-0.966C121.915,306.326,122.275,306.685,122.299,307.174z"/>
				</g>
				<g>
					<path fill="#CCCCCC" d="M113.234,303.945c0.02,0.488-0.314,0.92-0.744,0.964c-0.429,0.043-0.794-0.315-0.812-0.803
						c-0.02-0.488,0.312-0.917,0.742-0.963C112.851,303.1,113.216,303.456,113.234,303.945z"/>
				</g>
				<g>
					<path fill="#CCCCCC" d="M122.162,299.725c0.02,0.487-0.314,0.919-0.743,0.961c-0.431,0.046-0.795-0.314-0.815-0.8
						c-0.018-0.488,0.314-0.921,0.744-0.964C121.781,298.879,122.142,299.237,122.162,299.725z"/>
				</g>
				<g>
					<path fill="#CCCCCC" d="M115.688,308.385c0.019,0.486-0.313,0.916-0.747,0.964c-0.427,0.045-0.789-0.316-0.809-0.803
						c-0.018-0.488,0.312-0.919,0.744-0.965C115.305,307.538,115.668,307.897,115.688,308.385z"/>
				</g>
				<path fill="#666666" d="M120.379,303.64c0.072,1.762-1.13,3.323-2.689,3.484c-1.554,0.16-2.872-1.141-2.941-2.904
					c-0.069-1.761,1.135-3.322,2.69-3.481C118.994,300.578,120.313,301.876,120.379,303.64z"/>
				<path fill="#999999" d="M120.618,303.551c0.067,1.763-1.136,3.325-2.691,3.484c-1.557,0.162-2.875-1.138-2.942-2.901
					c-0.068-1.763,1.135-3.324,2.689-3.483C119.232,300.489,120.549,301.789,120.618,303.551z"/>
				<path fill="#999999" d="M119.875,280.304c-0.646-0.001-1.3,0.047-1.926,0.14c8.666,1.292,15.418,11.19,15.418,23.197
					c0.001,12.007-6.751,21.905-15.416,23.197c0.628,0.093,1.276,0.141,1.927,0.138c9.573,0.001,17.339-10.451,17.34-23.335
					C137.217,290.756,129.447,280.303,119.875,280.304z"/>
				<path fill="#FFFFFF" d="M119.714,276.754c-11.095,0-20.088,11.962-20.087,26.725c0,14.764,8.991,26.727,20.086,26.728
					c11.098-0.003,20.092-11.964,20.091-26.728C139.804,288.717,130.811,276.755,119.714,276.754z M119.712,280.624
					c9.484,0,17.163,10.236,17.164,22.855c0,12.622-7.68,22.857-17.164,22.856c-9.485,0.001-17.181-10.234-17.181-22.856
					C102.533,290.859,110.229,280.624,119.712,280.624z"/>
			</g>
		</g>
		<g transform="matrix(1.77752,0,0,1.77752,-373.85447,-113.54619)">
			<path fill="#CCCCCC" d="M515.32,444.301c-1.232-0.004-2.458,0.005-3.689,0.02c-1.408,0.017-2.804,0.058-4.209,0.1
				c-17.055,0.507-50.926,5.293-50.926,5.293c-17.431,6.368-28.653,14.814-41.182,22.816c0,0-5.265,2.046-8.02,2.586
				c-5.501,1.081-16.782,1.284-16.782,1.284s-10.114-0.866-15.137-0.341c-8.912,0.933-16.744,2.845-25.362,6.636
				c-5.151,2.265-10.847,13.073-10.847,13.073s-1.614,2.893-1.945,4.491c-0.72,3.476,0,10.667,0,10.667s-1.379,2.459-1.624,3.828
				c-0.436,2.434-0.137,4.989,0.321,7.419c1.053,5.592,5.514,16.16,5.514,16.16l0.641,4.489c48.248,4.447,84.011,6.5,141.769,4.853
				c6.938-3.889,3.339-4.197,4.291-9.864c5.4-32.157,18.583-48.614,28.691-46.656c14.335,2.779,15.02,44.007,11.167,56.018
				l66.564-3.268c1.833-4.279,2.761-8.359,4.011-12.69l4.812-16.722c4.363-15.167,9.595-17.883,12.61-16.401
				c8.711,4.281,5.725,13.43,7.378,23.238c0,0,0.771-16.057-0.04-24.822c-0.431-4.671-1.867-9.63-5.393-13.012
				c-5.72-5.486-22.234-7.82-22.234-7.82s-7.299-7.973-11.048-11.87c-5.456-5.67-13.616-11.294-23.377-14.543
				c-6.497-2.161-13.314-2.524-20.111-3.361C532.609,444.852,523.952,444.335,515.32,444.301z M506.617,447.549
				c10.24-0.055,19.601,0.41,29.193,1.403c-4.922,9.078-6.769,11.344-11.009,23.338l-106.862-0.14
				c13.354-8.671,27.399-18.02,42.384-21.794C478.824,448.552,493.453,447.618,506.617,447.549z M554.276,451.137
				c15.718-0.121,32.904,17.396,33.101,19.268l0.321,3.068c-8.956,4.652-31.754,2.677-51.045,2.927c0,0,7.362-23.142,12.812-24.62
				C551.038,451.352,552.649,451.15,554.276,451.137z"/>
			
				<linearGradient id="SVGID_9_" gradientUnits="userSpaceOnUse" x1="595.4381" y1="341.6588" x2="722.6606" y2="364.3694" gradientTransform="matrix(3.2456 0 0 -3.2456 -1501.1604 1581.5375)">
				<stop  offset="0" style="stop-color:#000000"/>
				<stop  offset="1" style="stop-color:#666666"/>
			</linearGradient>
			<path fill="url(#SVGID_9_)" stroke="#4D4D4D" stroke-width="3.2456" d="M461.47,451.013c32.198-3.111,52.436-3.561,73.9-1.36
				c-4.818,8.804-6.617,11.008-10.768,22.641l-104.623-0.13C433.052,463.753,446.798,454.673,461.47,451.013L461.47,451.013z"/>
			
				<linearGradient id="SVGID_10_" gradientUnits="userSpaceOnUse" x1="631.0489" y1="344.4072" x2="702.7144" y2="318.8571" gradientTransform="matrix(3.2456 0 0 -3.2456 -1501.1604 1581.5375)">
				<stop  offset="0" style="stop-color:#808080"/>
				<stop  offset="1" style="stop-color:#000000"/>
			</linearGradient>
			<path fill="url(#SVGID_10_)" stroke="#333333" stroke-width="3.292" d="M549.281,452.097
				c16.598-4.501,37.261,16.373,37.475,18.415l0.32,3.043c-8.852,4.598-31.379,2.635-50.448,2.882
				C536.629,476.438,543.894,453.558,549.281,452.097z"/>
		</g>
		<g>
			<line fill="none" stroke="#666666" stroke-width="3.3307" x1="236.484" y1="840.871" x2="409.284" y2="848.936"/>
		</g>
		<g>
			<path fill="#B3B3B3" d="M258.417,774.024c0,0,15.735-19.415,26.067-26.066c11.703-7.537,39.1-14.663,39.1-14.663
				c-23.991,8.816-44.959,22.165-60.279,43.987L258.417,774.024z"/>
		</g>
		<g transform="matrix(1.77752,0,.69831,1.08588,-769.01516,266.23125)">
			
				<linearGradient id="SVGID_11_" gradientUnits="userSpaceOnUse" x1="869.0178" y1="-129.3088" x2="870.6038" y2="-66.6604" gradientTransform="matrix(3.2456 0 0.9719 -0.7399 -2211.3237 370.6314)">
				<stop  offset="0" style="stop-color:#B3B3B3"/>
				<stop  offset="1" style="stop-color:#CCCCCC"/>
			</linearGradient>
			<path fill="url(#SVGID_11_)" d="M448.436,445.797c-3.615-0.461,11.147-13.75,14.637-14.798
				c13.164-3.957,12.598-6.718,35.287-1.375c6.781,1.598-13.441,15.174-20.27,16.549
				C471.974,447.403,463.494,447.719,448.436,445.797L448.436,445.797z"/>
			<g>
				<polygon fill="#FFFFFF" points="447.856,442.913 458.154,434.664 469.08,425.957 453.401,435.123 				"/>
			</g>
		</g>
		<path fill="#1A1A1A" stroke="#808080" stroke-width="1.9735" d="M402.598,824.691c3.176-1.969,6.727-3.006,5.704-15.477
			l-36.658-13.034l-10.997-6.923c-6.812-4.29-86.359-12.031-102.636,0l-9.369,6.923l-11.404,9.367
			c-2.715,4.345-2.715,9.911,0,14.256L402.598,824.691z"/>
		<path fill="none" stroke="#CCCCCC" stroke-width="4.0414" stroke-linecap="round" d="M249.675,793.735l131.527,4.889"/>
		<path fill="none" stroke="#CCCCCC" stroke-width="4.5749" stroke-linecap="round" d="M236.582,816.546l168.549,4.887"/>
		<path fill="none" stroke="#CCCCCC" stroke-width="4.6708" stroke-linecap="round" d="M232.742,811.983l175.681,4.888"/>
		<path fill="none" stroke="#CCCCCC" stroke-width="3.9469" stroke-linecap="round" d="M252.715,784.614l125.446,4.888"/>
		<path fill="none" stroke="#CCCCCC" stroke-width="3.9469" stroke-linecap="round" d="M249.457,795.204v26.881"/>
		<path fill="none" stroke="#CCCCCC" stroke-width="4.7309" stroke-linecap="round" d="M265.422,783.462v38.622"/>
		<path fill="none" stroke="#CCCCCC" stroke-width="5.1023" stroke-linecap="round" d="M283.669,777.161v44.922"/>
		<path fill="none" stroke="#CCCCCC" stroke-width="5.1023" stroke-linecap="round" d="M308.757,777.161v44.922"/>
		<path fill="none" stroke="#CCCCCC" stroke-width="5.1023" stroke-linecap="round" d="M333.847,777.161v44.922"/>
		<path fill="none" stroke="#CCCCCC" stroke-width="4.6814" stroke-linecap="round" d="M354.375,784.267v37.817"/>
		<path fill="none" stroke="#CCCCCC" stroke-width="4.4817" stroke-linecap="round" d="M372.621,787.424v34.658"/>
		<path fill="none" stroke="#CCCCCC" stroke-width="3.4424" stroke-linecap="round" d="M390.869,801.635v20.449"/>
		<path fill="none" stroke="#CCCCCC" stroke-width="4.0414" stroke-linecap="round" d="M249.675,789.175l131.527,4.889"/>
		<path fill="none" stroke="#CCCCCC" stroke-width="4.374" stroke-linecap="round" d="M238.154,798.298l154.068,4.889"/>
		<path fill="none" stroke="#CCCCCC" stroke-width="4.6783" stroke-linecap="round" d="M229.772,807.421l176.246,4.89"/>
		<path fill="none" stroke="#CCCCCC" stroke-width="4.6783" stroke-linecap="round" d="M229.772,802.86l176.246,4.889"/>
		<g>
			<path fill="#B3B3B3" d="M384.659,773.7c40.075-30.572,156.712-44.39,156.712-44.39l8.131,4.315c0,0-50.997,1.418-92.4,13.564
				c-53.507,15.697-67.267,32.059-67.267,32.059S379.897,777.333,384.659,773.7L384.659,773.7z"/>
		</g>
		<g>
			<polygon fill="#FFFFFF" points="460.433,830.23 496.275,824.528 500.349,813.124 441.698,811.496 			"/>
		</g>
		<path fill="none" stroke="#808080" stroke-width="1.9735" d="M225.182,778.26c16.354,6.664,23.851,2.256,31.768-1.628l8.96,1.628
			c2.051-13.606,102.271-10.125,121.373,0l10.589,1.631c10.376,1.411,34.014-0.057,43.988,4.072
			c11.334,4.693,14.818,24.403,27.696,24.437c9.858,0.027,31.565,1.274,31.565,1.274"/>
		<path fill="#1A1A1A" stroke="#333333" stroke-width="1.1102" d="M244.961,829.865c42.986,0.004,87.914,1.072,131.492,5.835
			c0.973,0.106,1.828,2.37,1.828,2.37l-0.606,10.832l-132.782-7.028l-1.014-9.71C243.88,832.164,244.136,829.865,244.961,829.865z"
			/>
		
			<radialGradient id="SVGID_12_" cx="904.6805" cy="-21.3331" r="38.1311" gradientTransform="matrix(1.0272 0 0 -0.5177 -487.7472 760.8656)" gradientUnits="userSpaceOnUse">
			<stop  offset="0" style="stop-color:#FFFFFF"/>
			<stop  offset="1" style="stop-color:#E6E6E6"/>
		</radialGradient>
		
			<linearGradient id="SVGID_13_" gradientUnits="userSpaceOnUse" x1="953.2782" y1="-318.8199" x2="1090.8118" y2="-318.8199" gradientTransform="matrix(0.5779 0 0 -0.5779 -149.0896 587.6643)">
			<stop  offset="0" style="stop-color:#808080"/>
			<stop  offset="1" style="stop-color:#000000"/>
		</linearGradient>
		<path fill="url(#SVGID_12_)" stroke="url(#SVGID_13_)" stroke-width="4.9954" d="M480.708,771.752
			c0,10.817-9.027,19.585-20.161,19.585s-58.175,2.751-58.175-8.064c0-10.816,47.041-31.104,58.175-31.104
			C471.681,752.168,480.708,760.937,480.708,771.752L480.708,771.752z"/>
		
			<radialGradient id="SVGID_14_" cx="711.7968" cy="202.1352" r="19.129" gradientTransform="matrix(1.0272 0 0 -0.9986 -487.7472 965.8918)" gradientUnits="userSpaceOnUse">
			<stop  offset="0" style="stop-color:#FFFFFF"/>
			<stop  offset="1" style="stop-color:#999999"/>
		</radialGradient>
		
			<linearGradient id="SVGID_15_" gradientUnits="userSpaceOnUse" x1="645.1942" y1="-305.2003" x2="713.1895" y2="-305.2003" gradientTransform="matrix(0.5779 0 0 -0.5779 -149.0896 587.6643)">
			<stop  offset="0" style="stop-color:#000000"/>
			<stop  offset="1" style="stop-color:#999999"/>
		</linearGradient>
		<path fill="url(#SVGID_14_)" stroke="url(#SVGID_15_)" stroke-width="3.3302" d="M234.997,757.394
			c-6.12,8.917-13.558,20.704-9.508,23.484c4.051,2.78,28.821,2.968,34.94-5.95c6.121-8.918-2.967-25.869-7.017-28.647
			C249.363,743.5,241.118,748.476,234.997,757.394z"/>
		<path fill="none" stroke="#B3B3B3" stroke-width="3.9469" d="M652.141,733.736c0,0,2.52,12.672,9.431,19.583
			c6.913,6.912,10.368,2.304,14.977,9.217c4.607,6.913-8.063,66.816-8.063,66.816"/>
		<path fill="none" stroke="#B3B3B3" stroke-width="3.9046" stroke-linecap="round" d="M568.585,835.111L689.22,828.2"/>
		<path fill="none" stroke="#B3B3B3" stroke-width="2.755" stroke-linecap="round" stroke-linejoin="bevel" d="M592.452,831.633
			c3.902-32.175,15.983-74.243-12.671-95.638"/>
		<path fill="none" stroke="#333333" stroke-width="2.9601" d="M639.684,698.025c4.876,12.559,8.557,23.918,10.366,33.408"/>
		<path fill="#FFFFFF" stroke="#666666" stroke-width="4.2031" stroke-linecap="round" d="M458.398,830.17
			c0,5.87-6.041,10.631-13.494,10.631c-7.453,0-16.766-3.125-16.766-8.998c0-5.87,7.678-13.901,15.129-13.901
			C450.72,817.904,458.398,824.297,458.398,830.17z"/>
		<g opacity="0.3836" enable-background="new    ">
			<path fill="#333333" d="M448.07,792.413c0,0,33.353,18.312,13.362,17.844c-19.991-0.47-80.668-5.461-68.714-10.768
				C404.671,794.184,448.07,792.413,448.07,792.413L448.07,792.413z"/>
		</g>
		<g opacity="0.6983" enable-background="new    ">
			<path fill="#FFFFFF" d="M399.34,773.21c0,0-25.253,15.477-24.438,19.548c0.814,4.074,14.663,3.259,22.809,2.445
				c8.146-0.814,17.107-3.259,17.107-3.259s-3.259,1.63-12.219-4.073C393.638,782.17,399.339,773.21,399.34,773.21L399.34,773.21z"
				/>
		</g>
		<g opacity="0.3621" enable-background="new    ">
			<path fill="#1A1A1A" d="M437.625,856.365c0,0,0.815,7.003,15.478-6.005c14.662-13.01,8.146-18.013,8.146-18.013l33.399-7.002
				l-2.444,29.019c0,0,7.331,3.002,0.814,7.004S437.625,856.365,437.625,856.365z"/>
		</g>
		<g opacity="0.3276" enable-background="new    ">
			<path fill="#808080" d="M227.244,781.356c0,0-1.512,2.443,6.049,5.703c7.56,3.256,9.45,6.108,13.229,4.479
				c3.78-1.63,7.183-7.739,9.451-7.739c2.268,0-3.402,8.553-8.695,10.997c-5.292,2.442-10.205,7.738-10.962,12.625
				c-0.756,4.89-6.048,8.963-9.073,5.703c-3.025-3.258-5.291-11.404-1.512-14.664c3.781-3.257,4.537-5.703,4.537-5.703
				L227.244,781.356z"/>
		</g>
		<g opacity="0.375" enable-background="new    ">
			<path fill="#808080" d="M603.969,856.424c0,0,12.673-10.369,23.617-13.825c10.943-3.454,62.783-8.062,62.783-8.062l-6.911,19.008
				L603.969,856.424z"/>
		</g>
		
			<linearGradient id="SVGID_16_" gradientUnits="userSpaceOnUse" x1="1308.3553" y1="-464.5684" x2="1404.0433" y2="-448.6207" gradientTransform="matrix(0.5779 0 0 -0.5779 -149.0896 587.6643)">
			<stop  offset="0" style="stop-color:#1A1A1A"/>
			<stop  offset="1" style="stop-color:#FFFFFF;stop-opacity:0"/>
		</linearGradient>
		<path opacity="0.4181" fill="url(#SVGID_16_)" enable-background="new    " d="M603.969,856.424c0,0,6.025-11.693,23.617-13.823
			c20.946-2.536,62.783-8.064,62.783-8.064l-6.911,19.009L603.969,856.424z"/>
		<path opacity="0.6881" fill="none" stroke="#1A1A1A" stroke-width="0.9684" enable-background="new    " d="M404.426,827.57
			c3.218-2.243,6.816-3.422,5.778-17.632l-37.147-14.849l-11.144-7.887c-6.904-4.887-87.519-13.708-104.012,0l-9.493,7.887
			l-11.557,10.674c-2.752,4.948-2.752,11.291,0,16.24L404.426,827.57z"/>
		<path fill="none" stroke="#808080" stroke-width="2.9468" d="M404.148,827.723c3.231-2.3,6.843-3.507,5.8-18.067l-37.291-15.216
			l-11.188-8.083c-6.932-5.008-87.86-14.047-104.421,0l-9.53,8.083l-11.603,10.936c-2.763,5.07-2.763,11.569,0,16.643
			L404.148,827.723z"/>
		<g>
			<path fill="#FFFFFF" d="M288.324,752.168c0,0,1.151,1.151,16.128-8.064c14.975-9.216,21.888-9.216,21.888-9.216
				s29.952-3.457,20.736-1.152c-9.217,2.304-18.433,13.824-18.433,13.824L288.324,752.168z"/>
		</g>
		<g opacity="0.4828" enable-background="new    ">
			<path fill="#333333" d="M650.766,739.855c0,0-3.324,13.214,4.432,16.262c7.755,3.049,8.864,7.115,27.703-2.032
				c18.836-9.148,33.24-9.148,33.24-9.148s-17.729-6.098-34.351-4.065C664.6,742.975,650.766,739.855,650.766,739.855z"/>
			<path fill="none" stroke="#000000" stroke-width="1.1102" d="M650.766,739.855c0,0-3.324,13.214,4.432,16.262
				c7.755,3.049,8.864,7.115,27.703-2.032c18.836-9.148,33.24-9.148,33.24-9.148s-17.729-6.098-34.351-4.065
				C664.6,742.975,650.766,739.855,650.766,739.855z"/>
		</g>
		<g>
			<path fill="#FFFFFF" d="M659.267,750.933c0,0,6.048,6.993,4.895,36.615c-1.15,29.621-3.743,43.36-3.743,43.36
				c3.252-23.535,16.36-43.966,10.081-70.225L659.267,750.933z"/>
		</g>
		<g>
			<path fill="#FFFFFF" d="M459.973,752.168c0,0,34.56-6.913,50.688-9.217c16.129-2.304,71.423-4.608,71.423-4.608
				s-24.191,3.456-44.928,5.76c-20.735,2.304-70.271,8.065-70.271,8.065H459.973L459.973,752.168z"/>
		</g>
		<g opacity="0.2155" enable-background="new    ">
			<path d="M456.861,792.2c4.47,1.153,19.556-3.167,22.908-10.081c3.352-6.912-6.984-29.087-6.984-29.087s17.601-0.832,28.218-4.32
				c7.77-2.553,70.657-12.057,77.197-9.792c27.977,9.695,18.636,70.607,14.107,88.342c-4.527,17.736-18.064,2.091-18.064,2.091
				c1.11-14.644-13.378-106.756-53.091-62.208c-9.265,10.394-19.031,26.497-19.031,32.256s-8.476,6.59-17.32,8.351
				C469.854,810.725,454.216,794.019,456.861,792.2L456.861,792.2z"/>
		</g>
		<g>
			<path fill="#FFFFFF" d="M596.471,747.353c14.865-2.239,54.703,1.799,55.925,1.799s-1.99-14.018-14.616-11.981
				c-12.626,2.037-43.375-1.449-49.484,0.995C586.623,739.274,594.487,747.65,596.471,747.353L596.471,747.353z"/>
		</g>
		<g opacity="0.2672" enable-background="new    ">
			<path fill="#666666" d="M599.349,747.406c14.867,2.241,54.704-1.797,55.926-1.797c1.223,0,6.65,31.873-5.977,29.836
				c-6.312-1.018-47.057,50.219-55.097,56.223c-3.381,2.527,12.536-69.683-3.028-75.073
				C589.504,755.486,597.366,747.11,599.349,747.406L599.349,747.406z"/>
		</g>
		<g opacity="0.8578" enable-background="new    ">
			<path fill="#FFFFFF" d="M477.7,775.333c0,5.033-3.91,9.112-8.731,9.112c-4.822,0-10.849-2.678-10.849-7.71
				c0-5.033,4.967-11.917,9.79-11.917C472.732,764.819,477.7,770.301,477.7,775.333L477.7,775.333z"/>
			<path fill="none" stroke="#666666" stroke-width="2.3646" stroke-linecap="round" d="M477.7,775.333
				c0,5.033-3.91,9.112-8.731,9.112c-4.822,0-10.849-2.678-10.849-7.71c0-5.033,4.967-11.917,9.79-11.917
				C472.732,764.819,477.7,770.301,477.7,775.333L477.7,775.333z"/>
		</g>
		<g>
			<path fill="#FFFFFF" d="M454.989,780.634c0,5.873-6.043,10.632-13.495,10.632c-7.454,0-16.766-3.124-16.766-8.996
				c0-5.873,7.677-13.904,15.13-13.904C447.31,768.366,454.989,774.763,454.989,780.634L454.989,780.634z"/>
			<path fill="none" stroke="#666666" stroke-width="2.3646" stroke-linecap="round" d="M454.989,780.634
				c0,5.873-6.043,10.632-13.495,10.632c-7.454,0-16.766-3.124-16.766-8.996c0-5.873,7.677-13.904,15.13-13.904
				C447.31,768.366,454.989,774.763,454.989,780.634L454.989,780.634z"/>
		</g>
		<g>
			<path fill="#FFFFFF" d="M256.845,771.418c0,5.872-6.042,10.632-13.494,10.632c-7.453,0-16.766-3.124-16.766-8.997
				c0-5.871,7.676-13.904,15.13-13.904C249.168,759.15,256.845,765.546,256.845,771.418z"/>
			<path fill="none" stroke="#666666" stroke-width="2.3646" stroke-linecap="round" d="M256.845,771.418
				c0,5.872-6.042,10.632-13.494,10.632c-7.453,0-16.766-3.124-16.766-8.997c0-5.871,7.676-13.904,15.13-13.904
				C249.168,759.15,256.845,765.546,256.845,771.418z"/>
		</g>
		<g>
			<path fill="#FFFFFF" d="M458.899,830.075c0,5.195-5.764,9.406-12.873,9.406s-15.993-2.764-15.993-7.961
				c0-5.194,7.323-12.302,14.434-12.302C451.577,819.218,458.899,824.878,458.899,830.075L458.899,830.075z"/>
			<path fill="none" stroke="#666666" stroke-width="2.3646" stroke-linecap="round" d="M458.899,830.075
				c0,5.195-5.764,9.406-12.873,9.406s-15.993-2.764-15.993-7.961c0-5.194,7.323-12.302,14.434-12.302
				C451.577,819.218,458.899,824.878,458.899,830.075L458.899,830.075z"/>
		</g>
		<g>
			<path fill="#FFFFFF" d="M380.485,723.687c0,0,34.285-22.023,64.417-29.798c30.133-7.776,123.222-4.708,123.222-4.708
				c-26.659-0.41-85.649,23.965-132.549,32.68C430.779,722.64,380.485,723.687,380.485,723.687z"/>
		</g>
		<g>
			<path fill="#FFFFFF" d="M615.753,695.5c0,0-5.834-5.833-10.692,1.944c-4.861,7.776,0,11.664-6.805,17.496
				c-6.804,5.831-8.749,10.692-4.86,10.692c3.887,0,21.384-1.944,21.384-1.944l16.524,0.973L615.753,695.5z"/>
		</g>
		<g>
			<path fill="#FFFFFF" d="M477.722,766.453c7.815,11.565,3.208,20.413-17.496,25.273c-22.995,5.397-56.376,7.152-56.376-6.805
				c0-13.958,26.925-33.05,50.545-33.05C478.016,751.873,470.919,756.384,477.722,766.453z"/>
		</g>
		<g>
			<path fill="#FFFFFF" d="M261.939,765.971c0,8.857-7.834,16.037-17.496,16.037c-9.662,0-19.441,1.568-19.441-7.289
				c0-8.858,15.611-30.619,25.273-30.619C259.937,744.101,261.939,757.114,261.939,765.971z"/>
		</g>
		<g opacity="0.7284" enable-background="new    ">
			<path fill="#808080" d="M394.618,750.419c0,0,27.217-13.122,34.022-15.553c6.804-2.431,34.992-5.831,34.992-5.831
				C434.945,738.531,407.978,747.309,394.618,750.419L394.618,750.419z"/>
		</g>
	</g>
	<path fill="#CCCCCC" d="M732.189,750.379c-19.983,0-40.854,30.783-45.611,68.749c-0.967,7.708-3.236,10.961-2.957,17.868
		c0.056-5.304,2.079-6.746,3.037-12.416c6.559-38.849,25.471-70.351,45.33-70.351c17.89,0,26.556,31.074,26.691,63.169
		C761.957,782.17,751.133,750.379,732.189,750.379L732.189,750.379z"/>
	<g>
		<path fill="none" stroke="#000000" stroke-width="1.6653" d="M769.425,727.873c45.068,4.263,66.864,4.373,91.188-4.393"/>
	</g>
	<g opacity="0.6509" enable-background="new    ">
		<path fill="#1A1A1A" d="M799.034,727.641c0,0-1.765,3.809-8.236-7.346s-8.63-19.861-8.63-19.861s-10.394,32.649-9.412,32.92
			c0.98,0.273,16.864,0.544,18.433,0.544C792.757,733.899,799.034,727.641,799.034,727.641L799.034,727.641z"/>
	</g>
	<g transform="matrix(1.05852,0,0,1.05852,-60.88976,-56.96663)">
		<path fill="#CCCCCC" d="M807.158,735.378c0,0,4.117-8.61,8.107-10.54c8.274-3.998,24.319-2.431,27.562,0.406
			s5.269,15.401,1.622,16.212c-3.648,0.811-22.698,4.864-29.184,4.053C808.781,744.7,807.158,735.378,807.158,735.378z"/>
		<g opacity="0.4612" enable-background="new    ">
			<path fill="#1A1A1A" d="M808.409,735.917c0,0,1.605,7.103,3.666,7.791c2.063,0.688,0.917,0.688,5.271,0.688
				s25.892-2.521,26.578-3.667c0.687-1.146,2.292-4.124,1.605-5.958c-0.687-1.834-0.687-2.521-0.687-2.521L808.409,735.917z"/>
		</g>
		<g>
			<path fill="#999999" d="M807.952,735.23c-0.108-0.072,3.991-6.759,7.562-8.937c4.796-2.925,13.274-4.594,23.142-2.062
				c4.571,1.174,5.972,4.566,5.27,6.874C844.156,732.251,807.952,735.23,807.952,735.23L807.952,735.23z"/>
		</g>
		<g>
			<path fill="#FFFFFF" d="M819.179,734.772c8.339-1.296,19.258-0.423,24.783-3.667c0,0,1.317,0.688,0.201,1.604
				C843.046,733.625,819.179,734.772,819.179,734.772z"/>
		</g>
		<g opacity="0.5991" enable-background="new    ">
			<path fill="#1A1A1A" d="M809.287,736.284c0,0-3.057-0.891,1.285-1.227c6.1-0.47,28.26-1.49,24.646-0.875L809.287,736.284z"/>
		</g>
		<g opacity="0.3405" enable-background="new    ">
			<path fill="#4D4D4D" d="M807.952,736.147c0,0,0.23-0.459,3.208,0.229c2.979,0.688,14.436,6.187,19.476,5.499
				c5.042-0.687,12.602-0.229,12.602-0.229s-27.248,5.993-30.474,3.207C807.722,740.5,807.952,736.147,807.952,736.147
				L807.952,736.147z"/>
		</g>
		<path fill="#333333" d="M807.32,735.501c0,0-2.997,1.093-3.402,2.715c-0.405,1.62,1.214,2.026-0.809,4.052
			c-2.029,2.027-6.43,4.918-6.43,4.918s-5.57,2.353,0.509,3.975c6.081,1.621,7.542-0.785,7.542-0.785s-2.433,0,1.216-3.648
			c3.647-3.647,6.608-2.609,6.608-2.609C811.578,741.393,811.177,738.515,807.32,735.501L807.32,735.501z"/>
		<g>
			<path fill="#999999" d="M804.285,740.27c0,0,2.292,2.865,3.782,3.093c1.488,0.23,1.394-0.714-1.148-1.718
				c-2.315-0.915-2.418-4.332-2.405-4.354L804.285,740.27z"/>
		</g>
		<g>
			<path d="M804.514,741.647c-0.113,0.459-0.089,0.399-1.031,1.947c-1.553,2.551,3.115,1.593,3.895,1.489
				c0.567-0.077,1.604-0.687,1.604-0.687s-0.688-0.115-1.835-1.032C806.004,742.449,804.514,741.647,804.514,741.647z"/>
		</g>
		<g>
			<path d="M807.356,736.19c0,0-0.472-1.204,0.569-0.401c1.043,0.803,3.034,2.708,3.128,3.812c0.097,1.104,1.138,2.909,1.138,3.311
				c0,0.401-0.283,1.404-0.758,0.401c-0.474-1.003-0.758-3.41-1.516-4.515C809.157,737.693,807.356,736.19,807.356,736.19z"/>
		</g>
		<g>
			<path fill="#FFFFFF" d="M807.952,734.772c2.063-3.667,2.656-3.107,5.958-6.187c2.393-2.233,3.896-2.52,7.103-2.979
				c3.209-0.458,10.54-1.604,14.437-0.687c3.894,0.917,6.643,1.374,7.79,2.979c1.147,1.605,0.919,2.75,0.919,2.75
				s0.229-2.75-0.461-4.123c-0.687-1.375-2.544-1.679-4.353-2.292c-6.148-2.09-14.108-2.088-20.393-0.458
				c-2.979,0.773-4.987,2.346-7.102,4.583C809.97,730.341,807.952,734.772,807.952,734.772L807.952,734.772z"/>
		</g>
	</g>
	<path fill="#333333" d="M761.45,748.818l10.145-0.552c3.034-0.166,6.151,2.074,6.965,5.001l0,0l1.131,4.076
		c0.811,2.927-0.989,5.434-4.021,5.599l0,0l-10.146,0.552c-3.033,0.166-6.149-2.073-6.962-5.001l0,0l-1.132-4.077
		C756.615,751.492,758.416,748.984,761.45,748.818L761.45,748.818"/>
	<path fill="#B3B3B3" d="M755.799,755.991l24.39-2.497c0.566-0.059,1.074,0.354,1.131,0.921c0.058,0.567-0.354,1.073-0.922,1.131
		l-24.389,2.497c-0.567,0.059-1.073-0.354-1.131-0.921C754.82,756.555,755.233,756.049,755.799,755.991"/>
	<g transform="matrix(.99972,-.0235,.18068,.99603,315.77359,572.13037)">
		<path fill="none" stroke="#666666" stroke-width="1.1102" d="M485.563,187.488l9.22,0c1.306-0.001,2.37,1.061,2.369,2.368l0,0
			l-0.001,6.988c0,1.308-1.06,2.369-2.368,2.368l0,0l-9.221,0.001c-1.308,0.001-2.367-1.061-2.368-2.369l0,0l-0.003-6.987
			C483.195,188.549,484.255,187.489,485.563,187.488L485.563,187.488"/>
		<path fill="none" stroke="#666666" stroke-width="1.311" d="M486.726,188.967l6.894,0c0.98-0.001,1.773,0.794,1.772,1.771
			l0.001,5.225c0,0.978-0.793,1.772-1.77,1.772l-6.897,0.001c-0.978-0.001-1.771-0.793-1.77-1.772l-0.001-5.226
			C484.954,189.759,485.745,188.966,486.726,188.967"/>
		<path fill="#333333" stroke="#666666" stroke-width="1.1102" stroke-linecap="round" stroke-linejoin="bevel" d="M485.229,192.906
			l9.803,0c0.245-0.001,0.445,0.199,0.446,0.445l0.002,3.889c-0.001,0.245-0.199,0.446-0.447,0.445l-9.802,0
			c-0.248,0-0.447-0.2-0.446-0.446l-0.001-3.889C484.785,193.105,484.984,192.905,485.229,192.906"/>
	</g>
	<g>
		<path fill="#FFFFFF" d="M772.575,678.46c1.945-2.592-19.118-2.592-19.118-2.592s5.183-0.648,10.045-0.323
			c6.596,0.44,13.652-1.478,11.989,2.267c-1.724,3.888-27.022,47.311-25.922,47.311C755.558,710.006,761.09,696.425,772.575,678.46
			L772.575,678.46z"/>
	</g>
	<g opacity="0.9009" enable-background="new    ">
		<path fill="none" stroke="#FFFFFF" stroke-width="2.2205" d="M775.169,707.625c4.013-8.432,3.414-15.021,15.229-26.573"/>
	</g>
	<g opacity="0.9009" enable-background="new    ">
		<line fill="none" stroke="#666666" stroke-width="2.2205" x1="767.066" y1="728.364" x2="778.083" y2="699.523"/>
	</g>
	<g>
		<path fill="none" stroke="#FFFFFF" stroke-width="2.2205" d="M792.017,681.701c27.608-5.416,49.552,13.095,69.349,33.054"/>
	</g>
	<path fill="#E6E6E6" d="M890.802,788.65c0,0,4.752-13.729,6.873-16.611c2.865-3.896,5.364-7.866,11.688-8.021
		c5.238-0.127,9.164,5.27,10.082,7.561c0.915,2.292,3.55,9.051,3.55,9.051s-2.25-7.706-7.562-12.258
		c-5.613-4.812-12.075-1.12-14.436,1.26C895.39,775.287,891.728,786.473,890.802,788.65L890.802,788.65z"/>
</g>
<g transform="matrix(.55983,.027,0,.55983,139.65854,394.16076)">
	<g>
		<path fill="#999999" d="M64.094-275.801l147.718,0c0.208,0.004,0.379,0.174,0.379,0.381v42.317c0,0.211-0.172,0.383-0.379,0.381
			l-147.718,0c-0.21,0-0.38-0.168-0.38-0.381l0,0v-42.317C63.714-275.631,63.884-275.798,64.094-275.801L64.094-275.801"/>
	</g>
	<text transform="matrix(1.7863 0 0 1.7863 74.1743 -245.0855)" fill="#1A1A1A" font-family="'Arial-BoldMT'" font-size="14.3677">             </text>
	<text transform="matrix(1.7863 0 0 1.7863 74.1743 -245.0855)" fill="#1A1A1A" font-family="'Arial-BoldMT'" font-size="14.3677">TS 371 SG </text>
	<text transform="matrix(1.7863 0 0 1.7863 208.2552 -245.0839)" fill="#1A1A1A" font-family="'Arial-BoldMT'" font-size="14.3677">           </text>
</g>
<g>
	<path fill="none" stroke="#000000" stroke-width="1.1102" d="M449.766,211.366c20.181-2.306,23.055,46.677,0.919,63.696"/>
</g>
<g>
	<path fill="none" stroke="#CCCCCC" stroke-width="1.1102" d="M449.08,211.823c-11.083,3.015-22.938,43.333-2.291,63.013"/>
</g>
<g opacity="0.3233" enable-background="new    ">
	<path fill="#F9F9F9" d="M424.025,243.52c0,0,8.812-36.419,11.991-42.775c2.917-5.833,9.077-11.666,12.638-11.666
		c3.565,0,7.777,0,10.369,3.241c2.593,3.241,0.648,1.296-4.861-1.296c-5.509-2.593-14.63,11.121-17.174,13.933
		C430.832,211.762,424.025,243.52,424.025,243.52z"/>
</g>
<g>
	<path d="M423.705,260.695c0,0,7.623,21.864,13.932,31.433c6.716,10.182,18.796,1.943,18.796,1.943s-11.09,7.24-16.204,4.86
		C427.641,293.072,423.705,260.695,423.705,260.695L423.705,260.695z"/>
</g>
</svg>
