
<svg version="1.1" id="Layer_1" xmlns="http://www.w3.org/2000/svg" xmlns:xlink="http://www.w3.org/1999/xlink" viewBox="0 0 768 430" enable-background="new 0 0 768 430" xml:space="preserve">
<g transform="translate(-280.8224,-578.81741)">
	<g transform="matrix(-.92281,0,0,.93552,1580.6966,56.32251)">
		<path fill="#CCCCCC" d="M1109.924,719.22c0,0,4.354-9.105,8.574-11.146c8.749-4.229,25.72-2.572,29.149,0.429
			c3.429,3.001,5.572,16.289,1.714,17.147c-3.857,0.858-24.006,5.145-30.863,4.287C1111.64,729.081,1109.924,719.22,1109.924,719.22
			z"/>
		<g opacity="0.4612" enable-background="new    ">
			<path fill="#1A1A1A" d="M1111.247,719.792c0,0,1.697,7.512,3.877,8.24c2.18,0.727,0.97,0.727,5.574,0.727
				s27.384-2.665,28.111-3.877c0.728-1.211,2.424-4.363,1.697-6.301c-0.728-1.939-0.728-2.666-0.728-2.666L1111.247,719.792z"/>
		</g>
		<g>
			<path fill="#999999" d="M1110.762,719.064c-0.113-0.075,4.221-7.148,7.998-9.451c5.073-3.094,14.038-4.86,24.476-2.181
				c4.833,1.24,6.316,4.828,5.574,7.27C1149.051,715.914,1110.762,719.064,1110.762,719.064z"/>
		</g>
		<g>
			<path fill="#FFFFFF" d="M1122.636,718.58c8.82-1.372,20.367-0.447,26.212-3.878c0,0,1.393,0.728,0.212,1.697
				C1147.879,717.369,1122.636,718.58,1122.636,718.58z"/>
		</g>
		<g opacity="0.5991" enable-background="new    ">
			<path fill="#1A1A1A" d="M1112.174,720.178c0,0-3.234-0.942,1.359-1.297c6.45-0.497,29.888-1.576,26.067-0.926L1112.174,720.178z"
				/>
		</g>
		<path opacity="0.2112" fill="#4D4D4D" enable-background="new    " d="M1110.762,720.034c0,0,0.243-0.484,3.393,0.243
			c3.149,0.728,15.267,6.543,20.599,5.817c5.331-0.728,13.329-0.243,13.329-0.243s-28.819,6.339-32.231,3.393
			C1110.521,724.639,1110.762,720.034,1110.762,720.034z"/>
		<path fill="#333333" d="M1110.093,719.351c0,0-3.169,1.157-3.597,2.871c-0.429,1.714,1.286,2.144-0.857,4.287
			c-2.143,2.143-6.798,5.2-6.798,5.2s-5.892,2.49,0.538,4.204c6.43,1.715,7.974-0.831,7.974-0.831s-2.572,0,1.286-3.857
			c3.858-3.859,6.989-2.759,6.989-2.759C1114.597,725.582,1114.174,722.54,1110.093,719.351L1110.093,719.351z"/>
		<g>
			<path fill="#999999" d="M1106.885,724.396c0,0,2.423,3.029,3.999,3.271c1.575,0.242,1.476-0.755-1.212-1.817
				c-2.449-0.968-2.558-4.582-2.545-4.605L1106.885,724.396z"/>
		</g>
		<g>
			<path d="M1107.127,725.85c-0.121,0.485-0.095,0.422-1.091,2.06c-1.64,2.699,3.293,1.686,4.12,1.576
				c0.601-0.08,1.697-0.728,1.697-0.728s-0.726-0.121-1.94-1.09C1108.702,726.699,1107.127,725.85,1107.127,725.85z"/>
		</g>
		<g>
			<path d="M1110.133,720.079c0,0-0.501-1.273,0.601-0.425c1.104,0.849,3.208,2.865,3.308,4.031c0.1,1.167,1.204,3.077,1.204,3.502
				c0,0.424-0.302,1.486-0.803,0.424c-0.502-1.061-0.802-3.607-1.605-4.775C1112.038,721.67,1110.133,720.079,1110.133,720.079z"/>
		</g>
		<g>
			<path fill="#FFFFFF" d="M1110.762,718.58c2.181-3.878,2.809-3.286,6.3-6.544c2.531-2.36,4.12-2.665,7.514-3.149
				c3.392-0.485,11.147-1.696,15.266-0.728c4.12,0.97,7.028,1.455,8.24,3.15c1.211,1.697,0.969,2.909,0.969,2.909
				s0.242-2.909-0.484-4.362c-0.728-1.454-2.693-1.774-4.605-2.424c-6.501-2.21-14.922-2.208-21.568-0.484
				c-3.151,0.817-5.275,2.481-7.512,4.847C1112.896,713.894,1110.762,718.58,1110.762,718.58L1110.762,718.58z"/>
		</g>
	</g>
	<g transform="translate(190.35714,-6.07143)">
		<g transform="matrix(1.84394,0,0,2.16836,-841.9611,-378.90552)">
			<path d="M710.349,528.225c-15.687,8.929-21.918,54.962-2.666,54.962h16.749c-4.778-1.094-8.057-14.146-7.331-29.262
				c0.66-13.774,4.423-24.525,8.708-25.7H710.349L710.349,528.225z M726.236,583.018c-0.168,0.069-0.333,0.13-0.503,0.17h0.503
				V583.018z"/>
			<path fill="#1A1A1A" d="M739.93,557.444c-1.201,15.198-8.604,26.732-16.538,25.762c-7.932-0.971-13.391-14.077-12.189-29.275
				c1.2-15.198,8.604-26.733,16.537-25.763C735.673,529.138,741.131,542.245,739.93,557.444z"/>
			<g>
				<path d="M725.886,528.109c-7.648-0.191-14.618,11.105-15.781,25.829c-1.2,15.199,4.243,28.305,12.177,29.275
					c0.674,0.082,1.355,0.063,2.017-0.03c-7.827-1.157-13.177-14.17-11.986-29.245c1.095-13.873,7.353-24.696,14.469-25.74
					l-0.156-0.029C726.379,528.137,726.132,528.116,725.886,528.109L725.886,528.109z"/>
			</g>
			<path d="M733.844,555.64c0,7.605-3.184,13.77-7.114,13.77s-7.115-6.165-7.115-13.77c0-7.606,3.185-13.771,7.115-13.771
				C730.659,541.869,733.844,548.034,733.844,555.64z"/>
			<g transform="matrix(.37313,.11015,-.07023,.53868,616.24461,356.5115)">
				<path fill="#999999" d="M354.277,290.143c0,0,1.37-0.855,2.57-1.885c1.198-1.028,7.026-11.31,7.026-11.31l1.371,1.714
					c0,0-5.655,10.111-6.856,10.967c-1.199,0.856-2.913,2.056-2.913,2.056L354.277,290.143z"/>
				<path fill="#666666" d="M353.592,289.458c0,0,0.686-0.173,1.882-1.371c1.202-1.2,6-10.624,6-10.624l2.226-0.515
					c0,0-5.654,10.967-7.367,11.996c-1.716,1.028-2.226,1.371-2.226,1.371L353.592,289.458z"/>
				<g transform="matrix(.89937,-.47261,.4372,.97221,-113.00896,295.05748)">
					<path fill="#999999" d="M420.165,198.092c0,0,1.371-0.857,2.57-1.885c1.199-1.028,7.026-11.31,7.026-11.31l1.37,1.713
						c0,0-5.655,10.11-6.855,10.968c-1.199,0.858-2.911,2.056-2.911,2.056L420.165,198.092z"/>
					<path fill="#666666" d="M419.217,197.645c0,0,0.704-0.173,1.935-1.397c1.232-1.22,6.146-10.831,6.146-10.831l2.291-0.52
						c0,0-5.793,11.182-7.553,12.228c-1.761,1.046-2.288,1.396-2.288,1.396L419.217,197.645z"/>
				</g>
				<g transform="matrix(-.13149,.87055,.82551,.09775,349.35111,-163.0515)">
					<path fill="#999999" d="M522.175,77.232c0,0,1.371-0.858,2.571-1.883c1.199-1.03,7.024-11.312,7.024-11.312l1.371,1.715
						c0,0-5.654,10.109-6.854,10.966c-1.2,0.857-2.913,2.057-2.913,2.057L522.175,77.232z"/>
					<path fill="#666666" d="M521.49,76.547c0,0,0.685-0.172,1.886-1.371c1.197-1.198,5.996-10.624,5.996-10.624l2.228-0.514
						c0,0-5.655,10.965-7.367,11.994c-1.715,1.033-2.227,1.373-2.227,1.373L521.49,76.547z"/>
				</g>
				<g transform="matrix(.69001,-.74572,.73666,.7705,-107.84208,538.49532)">
					<path fill="#999999" d="M494.222,156.124c0,0,1.431-0.941,2.693-2.055c1.262-1.116,7.568-12.07,7.568-12.07l1.342,1.753
						c0,0-6.124,10.769-7.38,11.704c-1.255,0.936-3.048,2.246-3.048,2.246L494.222,156.124z"/>
					<path fill="#666666" d="M493.636,155.3c0,0,0.703-0.197,1.963-1.478c1.257-1.282,6.425-11.227,6.425-11.227l2.287-0.595
						c0,0-6.087,11.575-7.866,12.69c-1.775,1.119-2.311,1.49-2.311,1.49L493.636,155.3z"/>
				</g>
				<g transform="matrix(.21107,-.84815,.82288,.28919,144.5296,791.69779)">
					<path fill="#999999" d="M618.31,85.462c0,0,1.37-0.857,2.57-1.886c1.199-1.026,7.024-11.309,7.024-11.309l1.372,1.714
						c0,0-5.654,10.11-6.854,10.968c-1.2,0.856-2.913,2.057-2.913,2.057L618.31,85.462z"/>
					<path fill="#666666" d="M617.624,84.779c0,0,0.685-0.173,1.883-1.376c1.2-1.2,5.999-10.624,5.999-10.624l2.226-0.514
						c0,0-5.654,10.971-7.368,11.996c-1.714,1.028-2.226,1.371-2.226,1.371L617.624,84.779z"/>
				</g>
				<g transform="matrix(-.31452,-.92668,.75301,-.3767,486.99186,1104.3729)">
					<path fill="#999999" d="M811.384,148.699c0,0,1.208-0.739,2.264-1.625c1.055-0.885,6.163-9.781,6.163-9.781l1.219,1.491
						c0,0-4.957,8.742-6.012,9.484c-1.059,0.74-2.568,1.774-2.568,1.774L811.384,148.699z"/>
					<path fill="#666666" d="M810.695,148.026c0,0,0.582-0.118,1.576-1c0.998-0.888,4.877-7.92,4.877-7.92l1.889-0.351
						c0,0-4.576,8.185-6.013,8.93c-1.44,0.747-1.871,0.998-1.871,0.998L810.695,148.026z"/>
				</g>
				<g transform="matrix(.4041,.83471,.78402,-.40251,44.36263,60.46256)">
					<path fill="#999999" d="M382.685,187.968c0,0,1.371-0.858,2.572-1.886c1.198-1.026,7.024-11.312,7.024-11.312l1.371,1.716
						c0,0-5.655,10.11-6.854,10.968c-1.199,0.853-2.912,2.057-2.912,2.057L382.685,187.968z"/>
					<path fill="#666666" d="M382,187.282c0,0,0.685-0.172,1.884-1.373c1.2-1.197,5.997-10.624,5.997-10.624l2.228-0.513
						c0,0-5.654,10.968-7.368,11.997c-1.714,1.026-2.227,1.368-2.227,1.368L382,187.282z"/>
				</g>
				<g transform="matrix(.71533,.70724,.54609,-.8715,-47.60941,321.75139)">
					<path fill="#999999" d="M333.658,289.234c0,0,1.371-0.856,2.57-1.885c1.199-1.027,7.025-11.31,7.025-11.31l1.373,1.716
						c0,0-5.655,10.109-6.855,10.965c-1.202,0.857-2.915,2.056-2.915,2.056L333.658,289.234z"/>
					<path fill="#666666" d="M332.972,288.551c0,0,0.686-0.173,1.883-1.372c1.2-1.2,5.998-10.624,5.998-10.624l2.226-0.514
						c0,0-5.654,10.967-7.367,11.996c-1.714,1.028-2.229,1.37-2.229,1.37L332.972,288.551z"/>
				</g>
				<g transform="matrix(.94156,.35405,.14321,-1.01843,-23.08707,592.14854)">
					<path fill="#999999" d="M338.06,399.01c0,0,1.371-0.857,2.57-1.887c1.2-1.028,7.027-11.309,7.027-11.309l1.37,1.713
						c0,0-5.656,10.109-6.854,10.967c-1.199,0.858-2.914,2.056-2.914,2.056L338.06,399.01z"/>
					<path fill="#666666" d="M337.374,398.325c0,0,0.684-0.171,1.885-1.372c1.198-1.201,5.997-10.624,5.997-10.624l2.228-0.515
						c0,0-5.658,10.967-7.369,11.996c-1.714,1.027-2.227,1.372-2.227,1.372L337.374,398.325z"/>
				</g>
				<g transform="matrix(.85323,-.06367,-.25284,-.85107,188.09952,776.70993)">
					<path fill="#999999" d="M352.68,529.791c0,0,1.37-0.858,2.569-1.884c1.2-1.031,7.026-11.311,7.026-11.311l1.371,1.714
						c0,0-5.653,10.109-6.854,10.967c-1.201,0.856-2.911,2.057-2.911,2.057L352.68,529.791z"/>
					<path fill="#666666" d="M351.995,529.106c0,0,0.685-0.171,1.884-1.372c1.2-1.199,5.997-10.623,5.997-10.623l2.23-0.514
						c0,0-5.657,10.966-7.369,11.995c-1.714,1.027-2.232,1.37-2.232,1.37L351.995,529.106z"/>
				</g>
				<g transform="matrix(.67031,-.41814,-.62314,-.51407,446.03046,854.85449)">
					<path fill="#999999" d="M496.415,676.142c0,0,1.371-0.859,2.57-1.885c1.199-1.028,7.026-11.31,7.026-11.31l1.374,1.713
						c0,0-5.658,10.11-6.857,10.968c-1.199,0.856-2.914,2.056-2.914,2.056L496.415,676.142z"/>
					<path fill="#666666" d="M495.73,675.455c0,0,0.683-0.172,1.885-1.371c1.198-1.2,5.997-10.625,5.997-10.625l2.229-0.515
						c0,0-5.657,10.968-7.371,11.994c-1.713,1.03-2.227,1.372-2.227,1.372L495.73,675.455z"/>
				</g>
				<g transform="matrix(.75576,.46175,-.46752,.7436,333.27119,-174.47133)">
					<path fill="#999999" d="M304.082,440.789c0,0,1.371-0.859,2.57-1.885c1.201-1.031,7.026-11.311,7.026-11.311l1.371,1.713
						c0,0-5.655,10.112-6.854,10.967c-1.198,0.856-2.912,2.058-2.912,2.058L304.082,440.789z"/>
					<path fill="#666666" d="M303.4,440.101c0,0,0.685-0.171,1.883-1.37c1.2-1.198,5.997-10.624,5.997-10.624l2.228-0.512
						c0,0-5.654,10.967-7.367,11.994c-1.714,1.029-2.229,1.371-2.229,1.371L303.4,440.101z"/>
				</g>
				<g>
					<g>
						<defs>
							<path id="SVGID_1_" d="M358.447,296.821c0.193,4.712-3.344,8.92-7.904,9.398c-4.557,0.479-8.409-2.953-8.602-7.664
								c-0.002-0.009-0.001-0.019-0.001-0.03c-0.193-4.713,3.343-8.917,7.903-9.398c4.557-0.478,8.411,2.954,8.604,7.666
								C358.446,296.802,358.446,296.811,358.447,296.821z"/>
						</defs>
						<clipPath id="SVGID_2_">
							<use xlink:href="#SVGID_1_"  overflow="visible"/>
						</clipPath>
						<g clip-path="url(#SVGID_2_)">
							<path fill="#808080" d="M358.288,296.87c0.189,4.752-3.232,8.973-7.635,9.428c-4.404,0.454-8.125-3.028-8.313-7.779
								c-0.187-4.751,3.229-8.972,7.633-9.427C354.378,288.636,358.1,292.119,358.288,296.87z"/>
						</g>
					</g>
				</g>
				<g>
					<path fill="#CCCCCC" d="M348.976,292.483c0.02,0.514-0.332,0.971-0.789,1.017c-0.454,0.048-0.839-0.332-0.858-0.848
						c-0.023-0.515,0.329-0.972,0.788-1.019C348.571,291.587,348.956,291.968,348.976,292.483z"/>
				</g>
				<g>
					<path fill="#808080" d="M355.47,301.245c0.021,0.514-0.332,0.972-0.787,1.017c-0.454,0.048-0.84-0.332-0.861-0.848
						c-0.019-0.515,0.332-0.973,0.785-1.018C355.064,300.349,355.449,300.73,355.47,301.245z"/>
				</g>
				<g>
					<path fill="#CCCCCC" d="M345.887,297.831c0.02,0.514-0.334,0.971-0.786,1.018c-0.456,0.048-0.841-0.333-0.861-0.848
						c-0.02-0.515,0.332-0.973,0.786-1.019C345.482,296.935,345.866,297.316,345.887,297.831z"/>
				</g>
				<g>
					<path fill="#CCCCCC" d="M355.328,293.367c0.02,0.514-0.332,0.971-0.787,1.02c-0.454,0.044-0.838-0.334-0.858-0.85
						c-0.022-0.517,0.328-0.97,0.785-1.02C354.924,292.469,355.308,292.851,355.328,293.367z"/>
				</g>
				<g>
					<path fill="#CCCCCC" d="M348.482,302.526c0.02,0.515-0.332,0.971-0.788,1.019c-0.454,0.047-0.839-0.333-0.858-0.85
						c-0.022-0.515,0.33-0.97,0.784-1.017C348.076,301.63,348.461,302.009,348.482,302.526z"/>
				</g>
				<path fill="#666666" d="M353.446,297.507c0.073,1.866-1.203,3.515-2.848,3.685c-1.643,0.17-3.037-1.204-3.11-3.07
					c-0.076-1.864,1.198-3.514,2.845-3.684C351.979,294.269,353.371,295.644,353.446,297.507z"/>
				<path fill="#999999" d="M353.696,297.415c0.073,1.865-1.201,3.513-2.848,3.684c-1.644,0.17-3.039-1.205-3.111-3.07
					c-0.073-1.865,1.202-3.516,2.846-3.685C352.227,294.175,353.62,295.549,353.696,297.415z"/>
				<path fill="#999999" d="M352.91,272.828c-0.686-0.001-1.373,0.049-2.037,0.148c9.167,1.366,16.306,11.834,16.306,24.533
					c0.002,12.7-7.141,23.167-16.304,24.533c0.663,0.099,1.35,0.15,2.032,0.149c10.127,0.001,18.342-11.055,18.345-24.683
					C371.249,283.881,363.036,272.827,352.91,272.828z"/>
				<path fill="#FFFFFF" d="M352.74,269.074c-11.737,0-21.247,12.651-21.249,28.266c0,15.616,9.514,28.266,21.247,28.266
					c11.735,0.001,21.247-12.651,21.248-28.265C373.986,281.725,364.474,269.075,352.74,269.074z M352.738,273.166
					c10.032,0,18.153,10.824,18.151,24.172c0,13.349-8.119,24.174-18.151,24.175c-10.031-0.001-18.17-10.826-18.171-24.176
					C334.567,283.99,342.706,273.167,352.738,273.166z"/>
			</g>
		</g>
		<g transform="matrix(1.84394,0,0,2.16836,-1177.9611,-372.90552)">
			<path d="M768.924,527.336c-15.687,8.928-21.918,54.962-2.666,54.962h16.749c-4.778-1.094-8.057-14.145-7.331-29.262
				c0.661-13.773,4.424-24.525,8.709-25.699L768.924,527.336L768.924,527.336z M784.81,582.128c-0.168,0.069-0.332,0.13-0.503,0.169
				h0.503V582.128z"/>
			<path fill="#1A1A1A" d="M798.505,556.554c-1.201,15.198-8.605,26.733-16.537,25.763c-7.933-0.97-13.39-14.076-12.19-29.274
				c1.2-15.199,8.605-26.733,16.538-25.763C794.248,528.248,799.706,541.356,798.505,556.554z"/>
			<g>
				<path d="M784.461,527.22c-7.648-0.191-14.618,11.104-15.782,25.827c-1.2,15.199,4.243,28.305,12.176,29.275
					c0.675,0.083,1.354,0.063,2.018-0.029c-7.828-1.158-13.178-14.171-11.987-29.246c1.096-13.872,7.353-24.696,14.47-25.74
					l-0.155-0.029C784.955,527.248,784.708,527.226,784.461,527.22L784.461,527.22z"/>
			</g>
			<path d="M792.42,554.749c0,7.605-3.185,13.771-7.115,13.771s-7.114-6.166-7.114-13.771c0-7.605,3.185-13.77,7.114-13.77
				C789.234,540.979,792.42,547.144,792.42,554.749z"/>
			<g transform="matrix(.37313,.11015,-.07023,.53868,616.24461,356.5115)">
				<path fill="#999999" d="M505.142,257.642c0,0,1.371-0.857,2.569-1.885c1.201-1.029,7.028-11.309,7.028-11.309l1.37,1.713
					c0,0-5.655,10.111-6.854,10.968c-1.199,0.857-2.913,2.056-2.913,2.056L505.142,257.642z"/>
				<path fill="#666666" d="M504.457,256.956c0,0,0.685-0.17,1.886-1.37c1.199-1.2,5.997-10.623,5.997-10.623l2.228-0.515
					c0,0-5.656,10.968-7.369,11.995c-1.714,1.028-2.229,1.371-2.229,1.371L504.457,256.956z"/>
				<g transform="matrix(.89937,-.47261,.4372,.97221,-113.00896,295.05748)">
					<path fill="#999999" d="M568.991,237.009c0,0,1.371-0.857,2.571-1.885c1.2-1.028,7.026-11.309,7.026-11.309l1.37,1.713
						c0,0-5.655,10.111-6.854,10.967c-1.199,0.858-2.912,2.057-2.912,2.057L568.991,237.009z"/>
					<path fill="#666666" d="M568.043,236.562c0,0,0.705-0.174,1.938-1.395c1.23-1.221,6.146-10.832,6.146-10.832l2.289-0.52
						c0,0-5.792,11.183-7.552,12.229c-1.759,1.047-2.288,1.395-2.288,1.395L568.043,236.562z"/>
				</g>
				<g transform="matrix(-.13149,.87055,.82551,.09775,349.35111,-163.0515)">
					<path fill="#999999" d="M465.338,250.934c0,0,1.371-0.857,2.569-1.886c1.201-1.028,7.027-11.309,7.027-11.309l1.37,1.714
						c0,0-5.655,10.11-6.853,10.967c-1.199,0.856-2.915,2.055-2.915,2.055L465.338,250.934z"/>
					<path fill="#666666" d="M464.653,250.247c0,0,0.686-0.171,1.884-1.371c1.199-1.198,5.997-10.624,5.997-10.624l2.229-0.515
						c0,0-5.655,10.967-7.368,11.996c-1.715,1.027-2.23,1.37-2.23,1.37L464.653,250.247z"/>
				</g>
				<g transform="matrix(.69001,-.74572,.73666,.7705,-107.84208,538.49532)">
					<path fill="#999999" d="M623.904,239.451c0,0,1.429-0.94,2.691-2.054c1.262-1.116,7.567-12.069,7.567-12.069l1.344,1.752
						c0,0-6.125,10.769-7.381,11.704c-1.254,0.934-3.047,2.245-3.047,2.245L623.904,239.451z"/>
					<path fill="#666666" d="M623.315,238.629c0,0,0.703-0.197,1.961-1.477c1.259-1.284,6.427-11.227,6.427-11.227l2.286-0.597
						c0,0-6.086,11.575-7.864,12.692c-1.777,1.119-2.311,1.488-2.311,1.488L623.315,238.629z"/>
				</g>
				<g transform="matrix(.21107,-.84815,.82288,.28919,144.5296,791.69779)">
					<path fill="#999999" d="M711.032,245.016c0,0,1.371-0.857,2.571-1.886c1.199-1.028,7.025-11.309,7.025-11.309l1.37,1.713
						c0,0-5.654,10.11-6.853,10.967c-1.2,0.856-2.913,2.056-2.913,2.056L711.032,245.016z"/>
					<path fill="#666666" d="M710.346,244.331c0,0,0.685-0.171,1.884-1.371c1.199-1.198,5.999-10.624,5.999-10.624l2.228-0.514
						c0,0-5.656,10.966-7.369,11.996c-1.714,1.027-2.228,1.371-2.228,1.371L710.346,244.331z"/>
				</g>
				<g transform="matrix(-.31452,-.92668,.75301,-.3767,486.99186,1104.3729)">
					<path fill="#999999" d="M771.743,332.492c0,0,1.207-0.74,2.263-1.626c1.056-0.888,6.163-9.781,6.163-9.781l1.22,1.488
						c0,0-4.957,8.745-6.013,9.483c-1.057,0.739-2.567,1.775-2.567,1.775L771.743,332.492z"/>
					<path fill="#666666" d="M771.055,331.817c0,0,0.581-0.117,1.575-1.003c0.997-0.883,4.876-7.917,4.876-7.917l1.89-0.348
						c0,0-4.575,8.181-6.014,8.929c-1.439,0.746-1.87,0.996-1.87,0.996L771.055,331.817z"/>
				</g>
				<g transform="matrix(.4041,.83471,.78402,-.40251,44.36263,60.46256)">
					<path fill="#999999" d="M425.819,358.16c0,0,1.371-0.857,2.569-1.885c1.2-1.028,7.028-11.31,7.028-11.31l1.371,1.713
						c0,0-5.656,10.109-6.855,10.967c-1.2,0.856-2.912,2.057-2.912,2.057L425.819,358.16z"/>
					<path fill="#666666" d="M425.133,357.474c0,0,0.684-0.17,1.883-1.37c1.202-1.2,5.999-10.625,5.999-10.625l2.228-0.514
						c0,0-5.655,10.967-7.369,11.995c-1.714,1.027-2.23,1.37-2.23,1.37L425.133,357.474z"/>
				</g>
				<g transform="matrix(.71533,.70724,.54609,-.8715,-47.60941,321.75139)">
					<path fill="#999999" d="M446.303,417.943c0,0,1.372-0.857,2.571-1.886c1.198-1.028,7.026-11.31,7.026-11.31l1.372,1.714
						c0,0-5.655,10.109-6.855,10.967c-1.2,0.856-2.913,2.055-2.913,2.055L446.303,417.943z"/>
					<path fill="#666666" d="M445.618,417.257c0,0,0.686-0.172,1.884-1.371c1.2-1.199,5.998-10.625,5.998-10.625l2.227-0.513
						c0,0-5.655,10.966-7.368,11.995c-1.713,1.028-2.228,1.372-2.228,1.372L445.618,417.257z"/>
				</g>
				<g transform="matrix(.94156,.35405,.14321,-1.01843,-23.08707,592.14854)">
					<path fill="#999999" d="M485.631,482.223c0,0,1.371-0.856,2.57-1.885c1.199-1.027,7.026-11.308,7.026-11.308l1.37,1.713
						c0,0-5.654,10.111-6.853,10.967c-1.199,0.857-2.912,2.056-2.912,2.056L485.631,482.223z"/>
					<path fill="#666666" d="M484.944,481.539c0,0,0.686-0.171,1.886-1.373c1.2-1.199,5.998-10.624,5.998-10.624l2.227-0.515
						c0,0-5.657,10.968-7.369,11.996c-1.712,1.029-2.226,1.371-2.226,1.371L484.944,481.539z"/>
				</g>
				<g transform="matrix(.85323,-.06367,-.25284,-.85107,188.09952,776.70993)">
					<path fill="#999999" d="M536.732,554.208c0,0,1.371-0.857,2.571-1.884c1.2-1.028,7.026-11.31,7.026-11.31l1.371,1.712
						c0,0-5.654,10.111-6.855,10.969c-1.2,0.856-2.913,2.054-2.913,2.054L536.732,554.208z"/>
					<path fill="#666666" d="M536.046,553.523c0,0,0.686-0.172,1.885-1.372c1.2-1.197,5.997-10.624,5.997-10.624l2.229-0.513
						c0,0-5.656,10.966-7.37,11.994c-1.713,1.028-2.227,1.371-2.227,1.371L536.046,553.523z"/>
				</g>
				<g transform="matrix(.67031,-.41814,-.62314,-.51407,446.03046,854.85449)">
					<path fill="#999999" d="M658.041,607.897c0,0,1.37-0.857,2.57-1.885c1.2-1.029,7.025-11.311,7.025-11.311l1.371,1.714
						c0,0-5.654,10.112-6.855,10.968c-1.199,0.857-2.912,2.054-2.912,2.054L658.041,607.897z"/>
					<path fill="#666666" d="M657.355,607.21c0,0,0.685-0.17,1.886-1.37c1.198-1.201,5.996-10.626,5.996-10.626l2.23-0.512
						c0,0-5.656,10.966-7.37,11.994c-1.714,1.029-2.229,1.37-2.229,1.37L657.355,607.21z"/>
				</g>
				<g transform="matrix(.75576,.46175,-.46752,.7436,333.27119,-174.47133)">
					<path fill="#999999" d="M428.768,319.654c0,0,1.372-0.855,2.571-1.885c1.2-1.028,7.026-11.309,7.026-11.309l1.372,1.713
						c0,0-5.656,10.11-6.855,10.967c-1.2,0.856-2.914,2.056-2.914,2.056L428.768,319.654z"/>
					<path fill="#666666" d="M428.084,318.97c0,0,0.685-0.171,1.884-1.37c1.198-1.202,5.997-10.625,5.997-10.625l2.228-0.514
						c0,0-5.655,10.968-7.368,11.995c-1.715,1.027-2.228,1.371-2.228,1.371L428.084,318.97z"/>
				</g>
				<g>
					<g>
						<defs>
							<path id="SVGID_3_" d="M509.312,264.321c0.194,4.711-3.345,8.918-7.903,9.398c-4.559,0.479-8.411-2.953-8.604-7.666
								c0-0.009-0.001-0.019-0.001-0.029c-0.193-4.71,3.345-8.918,7.904-9.397c4.558-0.478,8.41,2.954,8.604,7.666
								C509.31,264.301,509.312,264.312,509.312,264.321z"/>
						</defs>
						<clipPath id="SVGID_4_">
							<use xlink:href="#SVGID_3_"  overflow="visible"/>
						</clipPath>
						<g clip-path="url(#SVGID_4_)">
							<path fill="#808080" d="M509.153,264.371c0.188,4.751-3.231,8.971-7.634,9.426c-4.404,0.455-8.125-3.028-8.313-7.78
								c-0.186-4.75,3.231-8.972,7.634-9.426C505.244,256.135,508.966,259.619,509.153,264.371z"/>
						</g>
					</g>
				</g>
				<g>
					<path fill="#CCCCCC" d="M499.841,259.983c0.021,0.516-0.332,0.972-0.787,1.019c-0.455,0.048-0.839-0.332-0.861-0.847
						c-0.02-0.517,0.332-0.972,0.787-1.02C499.436,259.088,499.821,259.467,499.841,259.983z"/>
				</g>
				<g>
					<path fill="#808080" d="M506.336,268.745c0.019,0.514-0.332,0.972-0.788,1.018c-0.455,0.047-0.84-0.332-0.86-0.847
						c-0.021-0.517,0.332-0.973,0.787-1.02C505.93,267.848,506.315,268.23,506.336,268.745z"/>
				</g>
				<g>
					<path fill="#CCCCCC" d="M496.751,265.332c0.02,0.514-0.332,0.971-0.787,1.017c-0.456,0.047-0.84-0.333-0.861-0.848
						c-0.02-0.516,0.332-0.972,0.788-1.019C496.346,264.435,496.731,264.814,496.751,265.332z"/>
				</g>
				<g>
					<path fill="#CCCCCC" d="M506.193,260.865c0.021,0.516-0.332,0.972-0.787,1.019c-0.454,0.047-0.839-0.332-0.861-0.848
						c-0.02-0.516,0.332-0.972,0.787-1.02C505.788,259.969,506.173,260.35,506.193,260.865z"/>
				</g>
				<g>
					<path fill="#CCCCCC" d="M499.347,270.026c0.02,0.516-0.331,0.971-0.786,1.019c-0.455,0.047-0.841-0.334-0.86-0.849
						c-0.02-0.516,0.332-0.972,0.787-1.018C498.941,269.131,499.326,269.51,499.347,270.026z"/>
				</g>
				<path fill="#666666" d="M504.31,265.007c0.074,1.865-1.2,3.514-2.845,3.685c-1.646,0.17-3.039-1.204-3.113-3.07
					c-0.073-1.864,1.201-3.514,2.846-3.684C502.843,261.769,504.238,263.142,504.31,265.007z"/>
				<path fill="#999999" d="M504.56,264.914c0.073,1.864-1.2,3.514-2.846,3.685c-1.645,0.169-3.039-1.205-3.113-3.069
					c-0.074-1.865,1.201-3.515,2.846-3.685C503.092,261.674,504.486,263.05,504.56,264.914z"/>
				<path fill="#999999" d="M503.773,240.327c-0.684-0.001-1.371,0.05-2.036,0.148c9.167,1.367,16.307,11.833,16.306,24.535
					c0,12.7-7.141,23.167-16.305,24.535c0.664,0.097,1.35,0.147,2.035,0.147c10.126,0,18.343-11.054,18.342-24.682
					C522.116,251.381,513.9,240.327,503.773,240.327z"/>
				<path fill="#FFFFFF" d="M503.605,236.574c-11.736-0.001-21.247,12.649-21.248,28.265c0,15.615,9.512,28.265,21.247,28.266
					c11.735,0.001,21.248-12.651,21.247-28.266C524.852,249.224,515.34,236.573,503.605,236.574z M503.604,240.665
					c10.032-0.001,18.152,10.825,18.152,24.174c0,13.347-8.12,24.172-18.151,24.172c-10.033,0-18.173-10.825-18.172-24.174
					C485.432,251.491,493.572,240.666,503.604,240.665z"/>
			</g>
		</g>
		<g opacity="0.8534" enable-background="new    ">
			<polygon points="523.644,905.839 694.93,891.468 530.89,877.316 217.129,893.141 			"/>
		</g>
		<path fill="#333333" d="M505.529,759.616h62.636v109.674h-62.636V759.616z"/>
		<g transform="matrix(1.84394,0,0,2.16836,-782.99147,-362.90552)">
			<path d="M700.069,525.853c-15.686,8.929-21.919,54.962-2.667,54.962h16.748c-4.778-1.094-8.056-14.145-7.33-29.263
				c0.66-13.773,4.423-24.525,8.709-25.699H700.069z M715.956,580.646c-0.168,0.068-0.333,0.13-0.503,0.17h0.503V580.646z"/>
			<path fill="#1A1A1A" d="M729.65,555.071c-1.2,15.198-8.605,26.731-16.537,25.763c-7.932-0.97-13.391-14.077-12.19-29.276
				c1.2-15.199,8.605-26.733,16.537-25.763C725.393,526.766,730.85,539.873,729.65,555.071z"/>
			<g>
				<path d="M715.606,525.737c-7.648-0.191-14.618,11.105-15.781,25.829c-1.201,15.199,4.244,28.305,12.176,29.275
					c0.674,0.082,1.354,0.064,2.018-0.03c-7.829-1.157-13.178-14.17-11.987-29.245c1.096-13.872,7.353-24.696,14.471-25.74
					l-0.155-0.029C716.1,525.765,715.852,525.744,715.606,525.737L715.606,525.737z"/>
			</g>
			<path d="M723.565,553.267c0,7.604-3.186,13.771-7.115,13.771c-3.929,0-7.114-6.166-7.114-13.771c0-7.605,3.185-13.77,7.114-13.77
				C720.379,539.497,723.565,545.662,723.565,553.267z"/>
			<g transform="matrix(.37313,.11015,-.07023,.53868,616.24461,356.5115)">
				<path fill="#999999" d="M326.947,291.327c0,0,1.373-0.857,2.572-1.885c1.2-1.029,7.025-11.31,7.025-11.31l1.371,1.714
					c0,0-5.655,10.111-6.854,10.967c-1.201,0.857-2.914,2.057-2.914,2.057L326.947,291.327z"/>
				<path fill="#666666" d="M326.262,290.642c0,0,0.688-0.171,1.887-1.371c1.197-1.198,5.997-10.624,5.997-10.624l2.228-0.514
					c0,0-5.654,10.967-7.37,11.995c-1.713,1.029-2.227,1.371-2.227,1.371L326.262,290.642z"/>
				<g transform="matrix(.89937,-.47261,.4372,.97221,-113.00896,295.05748)">
					<path fill="#999999" d="M395.108,187.129c0,0,1.368-0.857,2.569-1.885c1.2-1.029,7.025-11.309,7.025-11.309l1.372,1.713
						c0,0-5.655,10.11-6.852,10.968c-1.201,0.858-2.914,2.056-2.914,2.056L395.108,187.129z"/>
					<path fill="#666666" d="M394.161,186.68c0,0,0.704-0.173,1.934-1.395c1.232-1.222,6.147-10.831,6.147-10.831l2.291-0.52
						c0,0-5.793,11.183-7.554,12.228c-1.761,1.046-2.288,1.396-2.288,1.396L394.161,186.68z"/>
				</g>
				<g transform="matrix(-.13149,.87055,.82551,.09775,349.35111,-163.0515)">
					<path fill="#999999" d="M527.163,44.923c0,0,1.372-0.859,2.571-1.885c1.2-1.029,7.025-11.311,7.025-11.311l1.371,1.713
						c0,0-5.654,10.111-6.854,10.97c-1.199,0.854-2.912,2.054-2.912,2.054L527.163,44.923z"/>
					<path fill="#666666" d="M526.477,44.236c0,0,0.686-0.171,1.885-1.37c1.201-1.2,5.998-10.625,5.998-10.625l2.229-0.514
						c0,0-5.655,10.969-7.368,11.995c-1.715,1.027-2.228,1.369-2.228,1.369L526.477,44.236z"/>
				</g>
				<g transform="matrix(.69001,-.74572,.73666,.7705,-107.84208,538.49532)">
					<path fill="#999999" d="M473.936,138.026c0,0,1.431-0.941,2.693-2.055c1.26-1.115,7.566-12.07,7.566-12.07l1.344,1.753
						c0,0-6.124,10.769-7.379,11.705c-1.257,0.935-3.049,2.245-3.049,2.245L473.936,138.026z"/>
					<path fill="#666666" d="M473.349,137.203c0,0,0.706-0.197,1.964-1.478c1.258-1.281,6.425-11.227,6.425-11.227l2.286-0.596
						c0,0-6.088,11.575-7.865,12.691c-1.777,1.117-2.31,1.488-2.31,1.488L473.349,137.203z"/>
				</g>
				<g transform="matrix(.21107,-.84815,.82288,.28919,144.5296,791.69779)">
					<path fill="#999999" d="M606.612,55.25c0,0,1.37-0.857,2.57-1.885c1.199-1.027,7.025-11.307,7.025-11.307l1.372,1.711
						c0,0-5.656,10.109-6.855,10.967c-1.199,0.855-2.913,2.055-2.913,2.055L606.612,55.25z"/>
					<path fill="#666666" d="M605.928,54.566c0,0,0.685-0.173,1.884-1.372c1.201-1.198,5.997-10.623,5.997-10.623l2.229-0.516
						c0,0-5.656,10.968-7.368,11.997c-1.713,1.028-2.227,1.37-2.227,1.37L605.928,54.566z"/>
				</g>
				<g transform="matrix(-.31452,-.92668,.75301,-.3767,486.99186,1104.3729)">
					<path fill="#999999" d="M822.902,117.218c0,0,1.208-0.737,2.264-1.625c1.056-0.887,6.163-9.781,6.163-9.781l1.219,1.491
						c0,0-4.958,8.746-6.013,9.484c-1.057,0.737-2.566,1.77-2.566,1.77L822.902,117.218z"/>
					<path fill="#666666" d="M822.215,116.543c0,0,0.581-0.118,1.576-1c0.997-0.883,4.875-7.917,4.875-7.917l1.892-0.35
						c0,0-4.574,8.18-6.014,8.926c-1.439,0.747-1.87,0.998-1.87,0.998L822.215,116.543z"/>
				</g>
				<g transform="matrix(.4041,.83471,.78402,-.40251,44.36263,60.46256)">
					<path fill="#999999" d="M370.359,159.465c0,0,1.371-0.858,2.571-1.888c1.199-1.028,7.025-11.307,7.025-11.307l1.372,1.712
						c0,0-5.656,10.112-6.854,10.968c-1.2,0.857-2.913,2.055-2.913,2.055L370.359,159.465z"/>
					<path fill="#666666" d="M369.672,158.777c0,0,0.686-0.172,1.885-1.37c1.201-1.2,5.999-10.625,5.999-10.625l2.226-0.514
						c0,0-5.654,10.966-7.367,11.997c-1.714,1.027-2.229,1.37-2.229,1.37L369.672,158.777z"/>
				</g>
				<g transform="matrix(.71533,.70724,.54609,-.8715,-47.60941,321.75139)">
					<path fill="#999999" d="M310.708,269.254c0,0,1.37-0.857,2.569-1.886c1.201-1.027,7.027-11.31,7.027-11.31l1.369,1.714
						c0,0-5.653,10.11-6.853,10.968c-1.2,0.858-2.914,2.057-2.914,2.057L310.708,269.254z"/>
					<path fill="#666666" d="M310.021,268.566c0,0,0.686-0.171,1.886-1.37c1.201-1.199,5.999-10.625,5.999-10.625l2.225-0.513
						c0,0-5.653,10.968-7.367,11.996c-1.713,1.029-2.229,1.37-2.229,1.37L310.021,268.566z"/>
				</g>
				<g transform="matrix(.94156,.35405,.14321,-1.01843,-23.08707,592.14854)">
					<path fill="#999999" d="M310.659,388.322c0,0,1.37-0.859,2.57-1.887c1.198-1.028,7.025-11.309,7.025-11.309l1.372,1.714
						c0,0-5.655,10.112-6.854,10.968c-1.199,0.856-2.913,2.055-2.913,2.055L310.659,388.322z"/>
					<path fill="#666666" d="M309.974,387.636c0,0,0.684-0.172,1.884-1.371c1.201-1.2,5.997-10.624,5.997-10.624l2.228-0.514
						c0,0-5.655,10.968-7.367,11.996c-1.717,1.027-2.229,1.37-2.229,1.37L309.974,387.636z"/>
				</g>
				<g transform="matrix(.85323,-.06367,-.25284,-.85107,188.09952,776.70993)">
					<path fill="#999999" d="M320.941,530.774c0,0,1.37-0.858,2.571-1.885c1.199-1.029,7.024-11.311,7.024-11.311l1.371,1.713
						c0,0-5.655,10.109-6.856,10.967c-1.2,0.855-2.91,2.055-2.91,2.055L320.941,530.774z"/>
					<path fill="#666666" d="M320.254,530.086c0,0,0.684-0.17,1.888-1.369c1.197-1.201,5.997-10.625,5.997-10.625l2.225-0.514
						c0,0-5.653,10.968-7.367,11.995c-1.714,1.028-2.227,1.37-2.227,1.37L320.254,530.086z"/>
				</g>
				<g transform="matrix(.67031,-.41814,-.62314,-.51407,446.03046,854.85449)">
					<path fill="#999999" d="M471.979,693.712c0,0,1.37-0.858,2.57-1.884c1.202-1.027,7.026-11.313,7.026-11.313l1.371,1.716
						c0,0-5.656,10.11-6.854,10.966c-1.199,0.858-2.912,2.055-2.912,2.055L471.979,693.712z"/>
					<path fill="#666666" d="M471.294,693.028c0,0,0.684-0.173,1.885-1.371c1.198-1.201,5.996-10.626,5.996-10.626l2.228-0.513
						c0,0-5.655,10.966-7.37,11.994c-1.712,1.029-2.228,1.371-2.228,1.371L471.294,693.028z"/>
				</g>
				<g transform="matrix(.75576,.46175,-.46752,.7436,333.27119,-174.47133)">
					<path fill="#999999" d="M278.67,458.161c0,0,1.372-0.856,2.572-1.886c1.197-1.028,7.027-11.308,7.027-11.308l1.368,1.712
						c0,0-5.653,10.11-6.854,10.968c-1.199,0.857-2.912,2.058-2.912,2.058L278.67,458.161z"/>
					<path fill="#666666" d="M277.985,457.475c0,0,0.685-0.171,1.884-1.372c1.2-1.198,5.996-10.623,5.996-10.623l2.23-0.514
						c0,0-5.656,10.967-7.368,11.995c-1.715,1.03-2.23,1.37-2.23,1.37L277.985,457.475z"/>
				</g>
				<g>
					<g>
						<defs>
							<path id="SVGID_5_" d="M331.118,298.004c0.194,4.712-3.344,8.919-7.903,9.397c-4.557,0.479-8.41-2.952-8.604-7.663
								c0.001-0.011-0.001-0.02,0-0.029c-0.196-4.711,3.343-8.918,7.9-9.397c4.56-0.479,8.411,2.953,8.606,7.663
								C331.119,297.985,331.118,297.995,331.118,298.004z"/>
						</defs>
						<clipPath id="SVGID_6_">
							<use xlink:href="#SVGID_5_"  overflow="visible"/>
						</clipPath>
						<g clip-path="url(#SVGID_6_)">
							<path fill="#808080" d="M330.959,298.055c0.189,4.753-3.229,8.972-7.633,9.427c-4.402,0.455-8.125-3.028-8.311-7.781
								c-0.189-4.751,3.23-8.97,7.634-9.425C327.05,289.821,330.773,293.304,330.959,298.055z"/>
						</g>
					</g>
				</g>
				<g>
					<path fill="#CCCCCC" d="M321.648,293.669c0.019,0.515-0.332,0.972-0.788,1.019c-0.457,0.047-0.842-0.333-0.861-0.847
						c-0.019-0.517,0.332-0.973,0.786-1.019C321.241,292.772,321.626,293.153,321.648,293.669z"/>
				</g>
				<g>
					<path fill="#808080" d="M328.141,302.43c0.02,0.514-0.331,0.971-0.785,1.017c-0.456,0.048-0.841-0.335-0.862-0.848
						c-0.02-0.516,0.334-0.973,0.786-1.019C327.736,301.534,328.121,301.915,328.141,302.43z"/>
				</g>
				<g>
					<path fill="#CCCCCC" d="M318.557,299.015c0.02,0.515-0.331,0.971-0.788,1.018c-0.452,0.047-0.839-0.333-0.859-0.847
						c-0.022-0.515,0.331-0.972,0.788-1.018C318.152,298.119,318.536,298.5,318.557,299.015z"/>
				</g>
				<g>
					<path fill="#CCCCCC" d="M328,294.551c0.02,0.516-0.334,0.972-0.787,1.02c-0.453,0.046-0.84-0.333-0.86-0.85
						c-0.02-0.516,0.331-0.971,0.786-1.019C327.594,293.655,327.979,294.034,328,294.551z"/>
				</g>
				<g>
					<path fill="#CCCCCC" d="M321.155,303.71c0.019,0.516-0.333,0.97-0.789,1.019c-0.454,0.047-0.839-0.333-0.861-0.848
						c-0.019-0.518,0.332-0.972,0.787-1.02C320.745,302.815,321.134,303.194,321.155,303.71z"/>
				</g>
				<path fill="#666666" d="M326.115,298.693c0.075,1.864-1.201,3.515-2.844,3.683c-1.646,0.17-3.04-1.204-3.112-3.068
					c-0.074-1.865,1.201-3.515,2.845-3.684C324.651,295.453,326.044,296.827,326.115,298.693z"/>
				<path fill="#999999" d="M326.366,298.6c0.073,1.864-1.201,3.514-2.845,3.684c-1.647,0.17-3.039-1.206-3.114-3.069
					c-0.073-1.866,1.201-3.515,2.846-3.685C324.9,295.36,326.293,296.734,326.366,298.6z"/>
				<path fill="#999999" d="M325.58,274.012c-0.687-0.001-1.37,0.049-2.034,0.148c9.165,1.366,16.304,11.833,16.305,24.534
					c0.002,12.7-7.141,23.168-16.307,24.533c0.665,0.1,1.352,0.149,2.036,0.148c10.127,0.002,18.343-11.053,18.343-24.681
					C343.922,285.065,335.709,274.011,325.58,274.012z"/>
				<path fill="#FFFFFF" d="M325.411,270.258c-11.737,0-21.247,12.652-21.246,28.267c-0.002,15.615,9.51,28.266,21.244,28.265
					c11.737,0,21.25-12.65,21.248-28.264C346.657,282.909,337.146,270.259,325.411,270.258z M325.413,274.351
					c10.029,0.001,18.148,10.825,18.15,24.171c-0.001,13.35-8.12,24.176-18.151,24.175c-10.032,0-18.173-10.826-18.173-24.174
					C307.238,285.175,315.378,274.351,325.413,274.351z"/>
			</g>
		</g>
		<path fill="#333333" d="M711.097,777.34l29.148-2.88l2.722,46.667l-27.17,3.796L711.097,777.34z"/>
		<g transform="matrix(1.56418,0,0,1.83938,-288.19602,-152.53628)">
			<path d="M627.894,510.627c-15.686,8.927-21.918,54.962-2.666,54.962h16.749c-4.778-1.094-8.056-14.146-7.33-29.262
				c0.661-13.774,4.423-24.525,8.709-25.7L627.894,510.627L627.894,510.627z M643.781,565.419c-0.169,0.068-0.333,0.13-0.503,0.17
				h0.503V565.419z"/>
			<path fill="#1A1A1A" d="M657.474,539.845c-1.201,15.198-8.604,26.733-16.538,25.763c-7.933-0.971-13.391-14.078-12.191-29.276
				c1.201-15.198,8.605-26.733,16.538-25.763C653.218,511.539,658.675,524.646,657.474,539.845z"/>
			<g>
				<path d="M643.431,510.511c-7.647-0.191-14.619,11.105-15.781,25.828c-1.201,15.199,4.243,28.305,12.176,29.274
					c0.674,0.083,1.355,0.064,2.017-0.029c-7.827-1.157-13.177-14.171-11.985-29.246c1.096-13.873,7.351-24.696,14.469-25.74
					l-0.155-0.029C643.924,510.539,643.677,510.517,643.431,510.511L643.431,510.511z"/>
			</g>
			<path d="M651.389,538.04c0,7.605-3.185,13.771-7.114,13.771c-3.929,0-7.115-6.166-7.115-13.771
				c0-7.604,3.186-13.771,7.115-13.771C648.204,524.27,651.389,530.436,651.389,538.04z"/>
			<g transform="matrix(.37313,.11015,-.07023,.53868,616.24461,356.5115)">
				<path fill="#999999" d="M135.561,302.195c0,0,1.372-0.856,2.572-1.886c1.199-1.027,7.026-11.306,7.026-11.306l1.371,1.711
					c0,0-5.655,10.111-6.852,10.967c-1.199,0.855-2.914,2.057-2.914,2.057L135.561,302.195z"/>
				<path fill="#666666" d="M134.877,301.51c0,0,0.686-0.171,1.887-1.371c1.198-1.199,5.997-10.624,5.997-10.624l2.226-0.514
					c0,0-5.651,10.967-7.365,11.995c-1.715,1.029-2.228,1.372-2.228,1.372L134.877,301.51z"/>
				<g transform="matrix(.89937,-.47261,.4372,.97221,-113.00896,295.05748)">
					<path fill="#999999" d="M218.587,112.498c0,0,1.372-0.858,2.571-1.885c1.198-1.029,7.025-11.311,7.025-11.311l1.372,1.714
						c0,0-5.66,10.11-6.855,10.967c-1.199,0.858-2.913,2.057-2.913,2.057L218.587,112.498z"/>
					<path fill="#666666" d="M217.639,112.05c0,0,0.705-0.174,1.937-1.395c1.23-1.221,6.146-10.83,6.146-10.83l2.289-0.522
						c0,0-5.793,11.183-7.552,12.229c-1.759,1.046-2.29,1.395-2.29,1.395L217.639,112.05z"/>
				</g>
				<g transform="matrix(-.13149,.87055,.82551,.09775,349.35111,-163.0515)">
					<path fill="#999999" d="M565.001-180.891c0,0,1.373-0.858,2.57-1.883c1.201-1.031,7.027-11.312,7.027-11.312l1.371,1.714
						c0,0-5.654,10.112-6.855,10.967c-1.199,0.859-2.912,2.055-2.912,2.055L565.001-180.891z"/>
					<path fill="#666666" d="M564.318-181.576c0,0,0.684-0.171,1.885-1.369c1.2-1.199,5.996-10.626,5.996-10.626l2.228-0.514
						c0,0-5.654,10.967-7.367,11.996c-1.715,1.027-2.227,1.368-2.227,1.368L564.318-181.576z"/>
				</g>
				<g transform="matrix(.69001,-.74572,.73666,.7705,-107.84208,538.49532)">
					<path fill="#999999" d="M330.117,12.938c0,0,1.43-0.941,2.69-2.056c1.261-1.113,7.568-12.067,7.568-12.067l1.341,1.751
						c0,0-6.125,10.769-7.379,11.706c-1.255,0.935-3.049,2.243-3.049,2.243L330.117,12.938z"/>
					<path fill="#666666" d="M329.529,12.115c0,0,0.704-0.199,1.962-1.479c1.257-1.284,6.428-11.228,6.428-11.228l2.283-0.596
						c0,0-6.084,11.574-7.864,12.692c-1.774,1.119-2.308,1.489-2.308,1.489L329.529,12.115z"/>
				</g>
				<g transform="matrix(.21107,-.84815,.82288,.28919,144.5296,791.69779)">
					<path fill="#999999" d="M521.906-155.603c0,0,1.37-0.859,2.57-1.882c1.201-1.03,7.026-11.311,7.026-11.311l1.371,1.712
						c0,0-5.656,10.11-6.854,10.969c-1.2,0.858-2.914,2.055-2.914,2.055L521.906-155.603z"/>
					<path fill="#666666" d="M521.217-156.289c0,0,0.689-0.169,1.888-1.368c1.199-1.201,5.996-10.625,5.996-10.625l2.225-0.516
						c0,0-5.654,10.969-7.364,11.997c-1.713,1.031-2.229,1.371-2.229,1.371L521.217-156.289z"/>
				</g>
				<g transform="matrix(-.31452,-.92668,.75301,-.3767,486.99186,1104.3729)">
					<path fill="#999999" d="M901.198-104.242c0,0,1.207-0.735,2.264-1.624c1.055-0.889,6.162-9.783,6.162-9.783l1.218,1.491
						c0,0-4.956,8.747-6.014,9.485c-1.054,0.739-2.564,1.771-2.564,1.771L901.198-104.242z"/>
					<path fill="#666666" d="M900.509-104.911c0,0,0.583-0.12,1.58-1.005c0.995-0.887,4.875-7.918,4.875-7.918l1.888-0.349
						c0,0-4.573,8.18-6.013,8.929s-1.87,0.994-1.87,0.994L900.509-104.911z"/>
				</g>
				<g transform="matrix(.4041,.83471,.78402,-.40251,44.36263,60.46256)">
					<path fill="#999999" d="M286.507-41.427c0,0,1.37-0.855,2.57-1.885c1.201-1.028,7.027-11.309,7.027-11.309l1.37,1.714
						c0,0-5.655,10.108-6.853,10.967c-1.2,0.856-2.914,2.053-2.914,2.053L286.507-41.427z"/>
					<path fill="#666666" d="M285.823-42.112c0,0,0.685-0.173,1.885-1.371c1.199-1.199,5.998-10.624,5.998-10.624l2.228-0.515
						c0,0-5.656,10.966-7.37,11.995c-1.713,1.029-2.228,1.37-2.228,1.37L285.823-42.112z"/>
				</g>
				<g transform="matrix(.71533,.70724,.54609,-.8715,-47.60941,321.75139)">
					<path fill="#999999" d="M151.382,127.488c0,0,1.371-0.858,2.571-1.888c1.2-1.026,7.025-11.309,7.025-11.309l1.371,1.715
						c0,0-5.652,10.112-6.852,10.967c-1.2,0.857-2.914,2.057-2.914,2.057L151.382,127.488z"/>
					<path fill="#666666" d="M150.697,126.8c0,0,0.686-0.169,1.887-1.371c1.199-1.198,5.995-10.625,5.995-10.625l2.23-0.511
						c0,0-5.656,10.966-7.369,11.996c-1.713,1.027-2.23,1.367-2.23,1.367L150.697,126.8z"/>
				</g>
				<g transform="matrix(.94156,.35405,.14321,-1.01843,-23.08707,592.14854)">
					<path fill="#999999" d="M119.144,311.071c0,0,1.372-0.857,2.573-1.885c1.196-1.031,7.025-11.309,7.025-11.309l1.368,1.712
						c0,0-5.656,10.11-6.855,10.968c-1.198,0.857-2.913,2.055-2.913,2.055L119.144,311.071z"/>
					<path fill="#666666" d="M118.46,310.385c0,0,0.685-0.171,1.884-1.37c1.199-1.2,5.997-10.625,5.997-10.625l2.226-0.515
						c0,0-5.655,10.966-7.367,11.996c-1.713,1.027-2.228,1.369-2.228,1.369L118.46,310.385z"/>
				</g>
				<g transform="matrix(.85323,-.06367,-.25284,-.85107,188.09952,776.70993)">
					<path fill="#999999" d="M97.792,534.697c0,0,1.374-0.857,2.573-1.885c1.197-1.029,7.023-11.309,7.023-11.309l1.373,1.713
						c0,0-5.653,10.11-6.855,10.965c-1.198,0.86-2.915,2.056-2.915,2.056L97.792,534.697z"/>
					<path fill="#666666" d="M97.108,534.011c0,0,0.685-0.174,1.888-1.372c1.198-1.197,5.995-10.624,5.995-10.624l2.229-0.514
						c0,0-5.654,10.966-7.368,11.995c-1.712,1.027-2.228,1.371-2.228,1.371L97.108,534.011z"/>
				</g>
				<g transform="matrix(.67031,-.41814,-.62314,-.51407,446.03046,854.85449)">
					<path fill="#999999" d="M298.205,813.914c0,0,1.371-0.856,2.571-1.882c1.197-1.027,7.024-11.308,7.024-11.308l1.372,1.711
						c0,0-5.656,10.113-6.855,10.967c-1.197,0.858-2.913,2.057-2.913,2.057L298.205,813.914z"/>
					<path fill="#666666" d="M297.518,813.231c0,0,0.688-0.171,1.885-1.371c1.202-1.201,6.001-10.625,6.001-10.625l2.228-0.514
						c0,0-5.654,10.966-7.371,11.995c-1.712,1.028-2.229,1.371-2.229,1.371L297.518,813.231z"/>
				</g>
				<g transform="matrix(.75576,.46175,-.46752,.7436,333.27119,-174.47133)">
					<path fill="#999999" d="M102.246,582.331c0,0,1.369-0.856,2.571-1.885c1.2-1.029,7.025-11.309,7.025-11.309l1.371,1.716
						c0,0-5.656,10.108-6.854,10.963c-1.2,0.86-2.914,2.058-2.914,2.058L102.246,582.331z"/>
					<path fill="#666666" d="M101.561,581.646c0,0,0.683-0.171,1.884-1.371c1.2-1.199,5.998-10.625,5.998-10.625l2.228-0.516
						c0,0-5.656,10.969-7.371,11.999c-1.712,1.026-2.227,1.368-2.227,1.368L101.561,581.646z"/>
				</g>
				<g>
					<g>
						<defs>
							<path id="SVGID_7_" d="M139.733,308.875c0.192,4.71-3.345,8.916-7.903,9.395c-4.558,0.48-8.411-2.951-8.604-7.663
								c0-0.01-0.002-0.018-0.004-0.03c-0.192-4.71,3.345-8.918,7.905-9.396c4.56-0.479,8.408,2.951,8.604,7.663
								C139.73,308.855,139.732,308.864,139.733,308.875z"/>
						</defs>
						<clipPath id="SVGID_8_">
							<use xlink:href="#SVGID_7_"  overflow="visible"/>
						</clipPath>
						<g clip-path="url(#SVGID_8_)">
							<path fill="#808080" d="M139.576,308.923c0.185,4.752-3.232,8.971-7.636,9.426c-4.402,0.455-8.126-3.027-8.311-7.78
								c-0.188-4.751,3.229-8.971,7.632-9.428C135.665,300.69,139.386,304.173,139.576,308.923z"/>
						</g>
					</g>
				</g>
				<g>
					<path fill="#CCCCCC" d="M130.26,304.537c0.018,0.516-0.333,0.971-0.786,1.018c-0.455,0.047-0.842-0.333-0.862-0.848
						c-0.019-0.517,0.333-0.975,0.787-1.02C129.854,303.64,130.24,304.02,130.26,304.537z"/>
				</g>
				<g>
					<path fill="#808080" d="M136.757,313.299c0.02,0.514-0.333,0.97-0.789,1.019c-0.453,0.046-0.839-0.334-0.861-0.849
						c-0.019-0.518,0.332-0.973,0.788-1.021C136.351,312.402,136.733,312.782,136.757,313.299z"/>
				</g>
				<g>
					<path fill="#CCCCCC" d="M127.172,309.883c0.02,0.516-0.333,0.972-0.788,1.021c-0.452,0.045-0.839-0.334-0.859-0.85
						c-0.02-0.516,0.331-0.97,0.786-1.018C126.766,308.989,127.151,309.367,127.172,309.883z"/>
				</g>
				<g>
					<path fill="#CCCCCC" d="M136.614,305.42c0.02,0.515-0.333,0.972-0.787,1.018c-0.455,0.047-0.841-0.333-0.861-0.848
						c-0.02-0.515,0.332-0.973,0.787-1.019C136.21,304.525,136.592,304.904,136.614,305.42z"/>
				</g>
				<g>
					<path fill="#CCCCCC" d="M129.766,314.579c0.021,0.514-0.331,0.97-0.789,1.019c-0.451,0.047-0.837-0.333-0.857-0.849
						c-0.02-0.516,0.331-0.972,0.787-1.02C129.36,313.683,129.746,314.064,129.766,314.579z"/>
				</g>
				<path fill="#666666" d="M134.728,309.561c0.075,1.864-1.197,3.515-2.845,3.685c-1.645,0.169-3.038-1.206-3.111-3.071
					c-0.073-1.863,1.201-3.514,2.844-3.683C133.263,306.322,134.657,307.695,134.728,309.561z"/>
				<path fill="#999999" d="M134.98,309.467c0.071,1.865-1.201,3.516-2.847,3.685c-1.645,0.17-3.038-1.204-3.111-3.069
					c-0.071-1.864,1.201-3.515,2.845-3.684C133.514,306.229,134.907,307.603,134.98,309.467z"/>
				<path fill="#999999" d="M134.195,284.88c-0.685-0.001-1.375,0.049-2.037,0.148c9.165,1.366,16.306,11.834,16.305,24.533
					c0.001,12.7-7.139,23.168-16.304,24.534c0.664,0.099,1.35,0.15,2.036,0.147c10.125,0.001,18.339-11.054,18.341-24.681
					C152.535,295.935,144.318,284.879,134.195,284.88z"/>
				<path fill="#FFFFFF" d="M134.023,281.126c-11.734,0-21.245,12.65-21.244,28.264c-0.001,15.616,9.51,28.268,21.245,28.268
					c11.737-0.002,21.25-12.652,21.249-28.267C155.271,293.778,145.76,281.126,134.023,281.126z M134.023,285.218
					c10.031,0.001,18.152,10.825,18.153,24.173c-0.001,13.349-8.123,24.174-18.153,24.173c-10.033,0-18.172-10.825-18.172-24.174
					C115.852,296.043,123.993,285.219,134.023,285.218z"/>
			</g>
		</g>
		<g transform="matrix(1.77752,0,0,1.77752,-373.85447,-113.54619)">
			<path fill="#CCCCCC" d="M514.139,444.301c-1.304-0.004-2.6,0.005-3.902,0.021c-1.489,0.018-2.965,0.062-4.452,0.106
				c-18.038,0.536-53.86,5.598-53.86,5.598c-18.436,6.735-30.304,15.667-43.555,24.13c0,0-5.568,2.164-8.482,2.735
				c-5.818,1.143-17.749,1.358-17.749,1.358s-10.697-0.916-16.009-0.361c-9.425,0.987-17.709,3.009-26.823,7.019
				c-5.448,2.396-11.472,13.826-11.472,13.826s-1.707,3.059-2.057,4.75c-0.761,3.676,0,11.281,0,11.281s-1.458,2.601-1.717,4.049
				c-0.461,2.574-0.145,5.276,0.339,7.846c1.114,5.914,5.832,17.091,5.832,17.091l0.678,4.748
				c51.028,4.703,88.852,6.874,149.937,5.133c7.338-4.113,3.532-4.44,4.539-10.433c5.711-34.01,19.653-51.415,30.344-49.344
				c15.161,2.939,15.886,46.542,11.811,59.246l70.399-3.457c1.938-4.526,2.92-8.84,4.241-13.422l5.089-17.685
				c4.615-16.041,10.148-18.914,13.337-17.346c9.213,4.528,6.055,14.204,7.803,24.576c0,0,0.816-16.982-0.042-26.252
				c-0.456-4.94-1.975-10.185-5.704-13.762c-6.049-5.802-23.515-8.27-23.515-8.27s-7.72-8.432-11.685-12.554
				c-5.77-5.997-14.401-11.945-24.724-15.381c-6.871-2.286-14.081-2.67-21.269-3.555
				C532.424,444.884,523.268,444.337,514.139,444.301z M504.935,447.736c10.83-0.058,20.73,0.434,30.875,1.484
				c-5.205,9.601-7.159,11.997-11.643,24.682l-113.019-0.148c14.123-9.171,28.978-19.058,44.826-23.05
				C475.54,448.797,491.012,447.81,504.935,447.736z M555.339,451.531c16.624-0.128,34.8,18.398,35.009,20.378l0.339,3.244
				c-9.471,4.92-33.583,2.831-53.986,3.096c0,0,7.786-24.476,13.55-26.039C551.915,451.759,553.619,451.545,555.339,451.531z"/>
			
				<linearGradient id="SVGID_9_" gradientUnits="userSpaceOnUse" x1="579.0453" y1="497.2687" x2="713.5972" y2="473.2498" gradientTransform="matrix(1.8259 0 0 1.8259 -631.9125 -433.6521)">
				<stop  offset="0" style="stop-color:#000000"/>
				<stop  offset="1" style="stop-color:#666666"/>
			</linearGradient>
			<path fill="url(#SVGID_9_)" stroke="#4D4D4D" stroke-width="3.4326" d="M457.186,451.4c34.053-3.29,55.457-3.766,78.157-1.438
				c-5.095,9.311-6.998,11.642-11.388,23.945l-110.651-0.137C427.13,464.874,441.669,455.271,457.186,451.4L457.186,451.4z"/>
			
				<linearGradient id="SVGID_10_" gradientUnits="userSpaceOnUse" x1="645.9854" y1="492.097" x2="721.7797" y2="519.1191" gradientTransform="matrix(1.8259 0 0 1.8259 -631.9125 -433.6521)">
				<stop  offset="0" style="stop-color:#808080"/>
				<stop  offset="1" style="stop-color:#000000"/>
			</linearGradient>
			<path fill="url(#SVGID_10_)" stroke="#333333" stroke-width="3.4817" d="M550.057,452.547
				c17.554-4.76,39.408,17.316,39.635,19.476l0.338,3.218c-9.362,4.863-33.186,2.787-53.355,3.048
				C536.676,478.29,544.36,454.092,550.057,452.547z"/>
		</g>
		<g>
			<line fill="none" stroke="#666666" stroke-width="3.5226" x1="216.773" y1="850.359" x2="399.529" y2="858.889"/>
		</g>
		<g>
			<path fill="#B3B3B3" d="M239.97,779.661c0,0,16.642-20.533,27.569-27.568c12.377-7.971,41.353-15.508,41.353-15.508
				c-25.373,9.324-47.55,23.442-63.752,46.522L239.97,779.661z"/>
		</g>
		<g transform="matrix(1.77752,0,.69831,1.08588,-769.01516,266.23125)">
			
				<linearGradient id="SVGID_11_" gradientUnits="userSpaceOnUse" x1="594.6752" y1="785.8344" x2="596.3526" y2="719.5759" gradientTransform="matrix(1.8259 0 0.2792 0.6814 -859.3832 -64.3288)">
				<stop  offset="0" style="stop-color:#B3B3B3"/>
				<stop  offset="1" style="stop-color:#CCCCCC"/>
			</linearGradient>
			<path fill="url(#SVGID_11_)" d="M439.138,449.73c-3.823-0.488,11.789-14.542,15.48-15.651c13.923-4.185,13.324-7.105,37.32-1.454
				c7.172,1.689-14.215,16.048-21.438,17.502C464.032,451.429,455.063,451.763,439.138,449.73L439.138,449.73z"/>
			<g>
				<polygon fill="#FFFFFF" points="438.525,446.68 449.416,437.956 460.971,428.747 444.389,438.441 				"/>
			</g>
		</g>
		<path fill="#1A1A1A" stroke="#808080" stroke-width="2.0872" d="M392.458,833.247c3.359-2.082,7.114-3.178,6.032-16.368
			l-38.77-13.785l-11.63-7.322c-7.205-4.537-91.335-12.724-108.55,0l-9.909,7.322L217.57,813c-2.872,4.596-2.872,10.483,0,15.078
			L392.458,833.247z"/>
		<path fill="none" stroke="#CCCCCC" stroke-width="4.2743" stroke-linecap="round" d="M230.724,800.508l139.105,5.171"/>
		<path fill="none" stroke="#CCCCCC" stroke-width="4.8385" stroke-linecap="round" d="M216.877,824.633l178.26,5.169"/>
		<path fill="none" stroke="#CCCCCC" stroke-width="4.9399" stroke-linecap="round" d="M212.815,819.807l185.803,5.17"/>
		<path fill="none" stroke="#CCCCCC" stroke-width="4.1743" stroke-linecap="round" d="M233.939,790.861l132.674,5.17"/>
		<path fill="none" stroke="#CCCCCC" stroke-width="4.1743" stroke-linecap="round" d="M230.494,802.061v28.429"/>
		<path fill="none" stroke="#CCCCCC" stroke-width="5.0035" stroke-linecap="round" d="M247.379,789.643v40.847"/>
		<path fill="none" stroke="#CCCCCC" stroke-width="5.3963" stroke-linecap="round" d="M266.677,782.978v47.511"/>
		<path fill="none" stroke="#CCCCCC" stroke-width="5.3963" stroke-linecap="round" d="M293.211,782.978v47.511"/>
		<path fill="none" stroke="#CCCCCC" stroke-width="5.3963" stroke-linecap="round" d="M319.746,782.978v47.511"/>
		<path fill="none" stroke="#CCCCCC" stroke-width="4.9511" stroke-linecap="round" d="M341.457,790.494v39.996"/>
		<path fill="none" stroke="#CCCCCC" stroke-width="4.7399" stroke-linecap="round" d="M360.755,793.833v36.656"/>
		<path fill="none" stroke="#CCCCCC" stroke-width="3.6408" stroke-linecap="round" d="M380.053,808.864v21.626"/>
		<path fill="none" stroke="#CCCCCC" stroke-width="4.2743" stroke-linecap="round" d="M230.724,795.685l139.105,5.17"/>
		<path fill="none" stroke="#CCCCCC" stroke-width="4.626" stroke-linecap="round" d="M218.539,805.334l162.946,5.17"/>
		<path fill="none" stroke="#CCCCCC" stroke-width="4.9479" stroke-linecap="round" d="M209.674,814.983l186.401,5.171"/>
		<path fill="none" stroke="#CCCCCC" stroke-width="4.9479" stroke-linecap="round" d="M209.674,810.159l186.401,5.169"/>
		<g>
			<path fill="#B3B3B3" d="M373.486,779.318c42.384-32.334,165.741-46.948,165.741-46.948l8.6,4.564c0,0-53.936,1.5-97.724,14.346
				c-56.59,16.602-71.143,33.906-71.143,33.906S368.449,783.161,373.486,779.318L373.486,779.318z"/>
		</g>
		<g>
			<polygon fill="#FFFFFF" points="453.626,839.106 491.534,833.075 495.841,821.014 433.811,819.291 			"/>
		</g>
		<path fill="none" stroke="#808080" stroke-width="2.0872" d="M204.82,784.141c17.296,7.047,25.226,2.386,33.599-1.722l9.477,1.722
			c2.169-14.391,108.163-10.709,128.366,0l11.2,1.725c10.974,1.492,35.974-0.06,46.522,4.307
			c11.987,4.964,15.672,25.81,29.292,25.845c10.426,0.028,33.384,1.348,33.384,1.348"/>
		<path fill="#1A1A1A" stroke="#333333" stroke-width="1.1742" d="M225.738,838.719c45.463,0.005,92.979,1.135,139.069,6.172
			c1.029,0.112,1.933,2.505,1.933,2.505l-0.641,11.457l-140.433-7.433l-1.072-10.27
			C224.595,841.151,224.866,838.719,225.738,838.719z"/>
		
			<radialGradient id="SVGID_12_" cx="770.494" cy="888.9799" r="40.3286" gradientTransform="matrix(1.0272 0 0 0.5177 -357.8077 317.1992)" gradientUnits="userSpaceOnUse">
			<stop  offset="0" style="stop-color:#FFFFFF"/>
			<stop  offset="1" style="stop-color:#E6E6E6"/>
		</radialGradient>
		
			<linearGradient id="SVGID_13_" gradientUnits="userSpaceOnUse" x1="781.5292" y1="1201.854" x2="926.9847" y2="1201.854" gradientTransform="matrix(0.5779 0 0 0.5779 -60.0208 82.8727)">
			<stop  offset="0" style="stop-color:#808080"/>
			<stop  offset="1" style="stop-color:#000000"/>
		</linearGradient>
		<path fill="url(#SVGID_12_)" stroke="url(#SVGID_13_)" stroke-width="5.2832" d="M475.069,777.258
			c0,11.44-9.547,20.714-21.323,20.714c-11.775,0-61.527,2.91-61.527-8.529c0-11.439,49.752-32.896,61.527-32.896
			C465.522,756.546,475.069,765.82,475.069,777.258L475.069,777.258z"/>
		
			<radialGradient id="SVGID_14_" cx="566.4979" cy="736.2065" r="20.2319" gradientTransform="matrix(1.0272 0 0 0.9986 -357.8077 33.9254)" gradientUnits="userSpaceOnUse">
			<stop  offset="0" style="stop-color:#FFFFFF"/>
			<stop  offset="1" style="stop-color:#999999"/>
		</radialGradient>
		
			<linearGradient id="SVGID_15_" gradientUnits="userSpaceOnUse" x1="455.6937" y1="1187.4517" x2="527.6061" y2="1187.4517" gradientTransform="matrix(0.5779 0 0 0.5779 -60.0208 82.8727)">
			<stop  offset="0" style="stop-color:#000000"/>
			<stop  offset="1" style="stop-color:#999999"/>
		</linearGradient>
		<path fill="url(#SVGID_14_)" stroke="url(#SVGID_15_)" stroke-width="3.5221" d="M215.201,762.073
			c-6.473,9.431-14.339,21.897-10.056,24.837c4.284,2.94,30.481,3.139,36.953-6.293c6.473-9.432-3.138-27.36-7.422-30.298
			C230.394,747.378,221.674,752.641,215.201,762.073z"/>
		<path fill="none" stroke="#B3B3B3" stroke-width="4.1743" d="M656.379,737.052c0,0,2.665,13.402,9.975,20.712
			c7.31,7.31,10.965,2.437,15.839,9.748c4.873,7.311-8.529,70.666-8.529,70.666"/>
		<path fill="none" stroke="#B3B3B3" stroke-width="4.1296" stroke-linecap="round" d="M568.009,844.268l127.586-7.31"/>
		<path fill="none" stroke="#B3B3B3" stroke-width="2.9137" stroke-linecap="round" stroke-linejoin="bevel" d="M593.251,840.59
			c4.128-34.03,16.906-78.521-13.4-101.149"/>
		<path fill="none" stroke="#333333" stroke-width="3.1307" d="M643.205,699.283c5.158,13.282,9.05,25.296,10.964,35.333"/>
		<path fill="#FFFFFF" stroke="#666666" stroke-width="4.4453" stroke-linecap="round" d="M451.474,839.042
			c0,6.209-6.389,11.244-14.272,11.244c-7.882,0-17.732-3.306-17.732-9.516s8.12-14.703,16.001-14.703
			C443.353,826.068,451.474,832.831,451.474,839.042z"/>
		<g opacity="0.3836" enable-background="new    ">
			<path fill="#333333" d="M440.55,799.109c0,0,35.275,19.368,14.132,18.872c-21.143-0.497-85.316-5.776-72.674-11.388
				C394.651,800.982,440.55,799.109,440.55,799.109L440.55,799.109z"/>
		</g>
		<g opacity="0.6983" enable-background="new    ">
			<path fill="#FFFFFF" d="M389.013,778.8c0,0-26.708,16.368-25.846,20.675c0.861,4.308,15.507,3.446,24.123,2.585
				c8.615-0.861,18.092-3.446,18.092-3.446s-3.446,1.724-12.923-4.308C382.982,788.276,389.012,778.8,389.013,778.8L389.013,778.8z"
				/>
		</g>
		<g opacity="0.3621" enable-background="new    ">
			<path fill="#1A1A1A" d="M429.504,866.746c0,0,0.862,7.407,16.369-6.351c15.507-13.759,8.615-19.05,8.615-19.05l35.324-7.406
				l-2.585,30.691c0,0,7.753,3.175,0.861,7.407C481.195,876.269,429.504,866.746,429.504,866.746z"/>
		</g>
		<g opacity="0.3276" enable-background="new    ">
			<path fill="#808080" d="M207.001,787.415c0,0-1.599,2.584,6.397,6.032c7.996,3.444,9.994,6.46,13.992,4.738
				c3.998-1.724,7.596-8.185,9.995-8.185c2.398,0-3.598,9.046-9.196,11.63c-5.597,2.583-10.793,8.184-11.594,13.353
				c-0.799,5.171-6.397,9.479-9.596,6.032s-5.596-12.062-1.599-15.509c3.999-3.445,4.798-6.031,4.798-6.031L207.001,787.415z"/>
		</g>
		<g opacity="0.375" enable-background="new    ">
			<path fill="#808080" d="M605.432,866.809c0,0,13.403-10.966,24.978-14.621c11.574-3.654,66.401-8.528,66.401-8.528l-7.31,20.103
				L605.432,866.809z"/>
		</g>
		
			<linearGradient id="SVGID_16_" gradientUnits="userSpaceOnUse" x1="1157.0653" y1="1355.9976" x2="1258.267" y2="1339.1309" gradientTransform="matrix(0.5779 0 0 0.5779 -60.0208 82.8727)">
			<stop  offset="0" style="stop-color:#1A1A1A"/>
			<stop  offset="1" style="stop-color:#FFFFFF;stop-opacity:0"/>
		</linearGradient>
		<path opacity="0.4181" fill="url(#SVGID_16_)" enable-background="new    " d="M605.432,866.809c0,0,6.372-12.367,24.978-14.62
			c22.153-2.682,66.401-8.529,66.401-8.529l-7.31,20.104L605.432,866.809z"/>
		<path opacity="0.6881" fill="none" stroke="#1A1A1A" stroke-width="1.0242" enable-background="new    " d="M394.392,836.292
			c3.404-2.373,7.209-3.619,6.111-18.648l-39.288-15.704l-11.786-8.342c-7.302-5.169-92.561-14.498-110.005,0l-10.04,8.342
			l-12.223,11.288c-2.91,5.234-2.91,11.942,0,17.177L394.392,836.292z"/>
		<path fill="none" stroke="#808080" stroke-width="3.1166" d="M394.098,836.454c3.417-2.432,7.238-3.709,6.135-19.108
			l-39.44-16.093l-11.833-8.549c-7.331-5.296-92.923-14.856-110.438,0l-10.079,8.549l-12.271,11.565
			c-2.922,5.363-2.922,12.237,0,17.602L394.098,836.454z"/>
		<g>
			<path fill="#FFFFFF" d="M271.6,756.546c0,0,1.218,1.218,17.057-8.529c15.838-9.747,23.149-9.747,23.149-9.747
				s31.678-3.656,21.931-1.218c-9.748,2.437-19.495,14.62-19.495,14.62L271.6,756.546z"/>
		</g>
		<g opacity="0.4828" enable-background="new    ">
			<path fill="#333333" d="M654.926,743.523c0,0-3.516,13.975,4.688,17.199c8.201,3.225,9.375,7.524,29.298-2.149
				c19.921-9.675,35.156-9.675,35.156-9.675s-18.75-6.449-36.329-4.299C669.557,746.823,654.926,743.523,654.926,743.523z"/>
			<path fill="none" stroke="#000000" stroke-width="1.1742" d="M654.926,743.523c0,0-3.516,13.975,4.688,17.199
				c8.201,3.225,9.375,7.524,29.298-2.149c19.921-9.675,35.156-9.675,35.156-9.675s-18.75-6.449-36.329-4.299
				C669.557,746.823,654.926,743.523,654.926,743.523z"/>
		</g>
		<g>
			<path fill="#FFFFFF" d="M663.917,755.239c0,0,6.396,7.396,5.176,38.725c-1.216,31.327-3.958,45.858-3.958,45.858
				c3.439-24.891,17.303-46.499,10.661-74.271L663.917,755.239z"/>
		</g>
		<g>
			<path fill="#FFFFFF" d="M453.139,756.546c0,0,36.551-7.311,53.607-9.748c17.059-2.436,75.54-4.873,75.54-4.873
				s-25.586,3.654-47.517,6.091c-21.931,2.437-74.321,8.53-74.321,8.53L453.139,756.546L453.139,756.546z"/>
		</g>
		<g opacity="0.2155" enable-background="new    ">
			<path d="M449.848,798.884c4.728,1.219,20.683-3.35,24.228-10.662c3.545-7.31-7.386-30.763-7.386-30.763s18.614-0.88,29.844-4.569
				c8.216-2.7,74.728-12.752,81.645-10.356c29.588,10.253,19.709,74.675,14.92,93.432c-4.788,18.758-19.105,2.211-19.105,2.211
				c1.174-15.488-14.149-112.908-56.15-65.792c-9.799,10.993-20.128,28.023-20.128,34.115s-8.963,6.97-18.318,8.832
				C463.59,818.477,447.05,800.808,449.848,798.884L449.848,798.884z"/>
		</g>
		<g>
			<path fill="#FFFFFF" d="M597.502,751.453c15.721-2.368,57.855,1.903,59.147,1.903s-2.105-14.825-15.458-12.672
				c-13.354,2.154-45.874-1.532-52.336,1.053C587.087,742.909,595.404,751.767,597.502,751.453L597.502,751.453z"/>
		</g>
		<g opacity="0.2672" enable-background="new    ">
			<path fill="#666666" d="M600.546,751.509c15.724,2.37,57.857-1.901,59.149-1.901c1.293,0,7.033,33.709-6.321,31.555
				c-6.675-1.076-49.768,53.113-58.271,59.463c-3.576,2.673,13.258-73.698-3.203-79.399
				C590.133,760.055,598.449,751.196,600.546,751.509L600.546,751.509z"/>
		</g>
		<g opacity="0.8578" enable-background="new    ">
			<path fill="#FFFFFF" d="M471.888,781.046c0,5.323-4.135,9.637-9.235,9.637c-5.1,0-11.474-2.832-11.474-8.154
				c0-5.323,5.253-12.603,10.354-12.603C466.634,769.926,471.888,775.724,471.888,781.046L471.888,781.046z"/>
			<path fill="none" stroke="#666666" stroke-width="2.5008" stroke-linecap="round" d="M471.888,781.046
				c0,5.323-4.135,9.637-9.235,9.637c-5.1,0-11.474-2.832-11.474-8.154c0-5.323,5.253-12.603,10.354-12.603
				C466.634,769.926,471.888,775.724,471.888,781.046L471.888,781.046z"/>
		</g>
		<g>
			<path fill="#FFFFFF" d="M447.868,786.652c0,6.211-6.391,11.245-14.272,11.245c-7.883,0-17.732-3.304-17.732-9.514
				c0-6.211,8.12-14.705,16.002-14.705C439.747,773.677,447.868,780.442,447.868,786.652L447.868,786.652z"/>
			<path fill="none" stroke="#666666" stroke-width="2.5008" stroke-linecap="round" d="M447.868,786.652
				c0,6.211-6.391,11.245-14.272,11.245c-7.883,0-17.732-3.304-17.732-9.514c0-6.211,8.12-14.705,16.002-14.705
				C439.747,773.677,447.868,780.442,447.868,786.652L447.868,786.652z"/>
		</g>
		<g>
			<path fill="#FFFFFF" d="M238.307,776.905c0,6.21-6.39,11.244-14.272,11.244c-7.882,0-17.732-3.304-17.732-9.515
				c0-6.209,8.119-14.705,16.002-14.705C230.188,763.93,238.307,770.695,238.307,776.905z"/>
			<path fill="none" stroke="#666666" stroke-width="2.5008" stroke-linecap="round" d="M238.307,776.905
				c0,6.21-6.39,11.244-14.272,11.244c-7.882,0-17.732-3.304-17.732-9.515c0-6.209,8.119-14.705,16.002-14.705
				C230.188,763.93,238.307,770.695,238.307,776.905z"/>
		</g>
		<g>
			<path fill="#FFFFFF" d="M452.004,838.941c0,5.494-6.096,9.949-13.615,9.949c-7.519,0-16.914-2.923-16.914-8.42
				c0-5.494,7.745-13.011,15.265-13.011C444.259,827.459,452.004,833.445,452.004,838.941L452.004,838.941z"/>
			<path fill="none" stroke="#666666" stroke-width="2.5008" stroke-linecap="round" d="M452.004,838.941
				c0,5.494-6.096,9.949-13.615,9.949c-7.519,0-16.914-2.923-16.914-8.42c0-5.494,7.745-13.011,15.265-13.011
				C444.259,827.459,452.004,833.445,452.004,838.941L452.004,838.941z"/>
		</g>
		<g>
			<path fill="#FFFFFF" d="M369.071,726.424c0,0,36.26-23.292,68.129-31.515c31.869-8.225,130.322-4.979,130.322-4.979
				c-28.195-0.434-90.585,25.346-140.186,34.563C422.263,725.316,369.071,726.424,369.071,726.424z"/>
		</g>
		<g>
			<path fill="#FFFFFF" d="M617.895,696.613c0,0-6.17-6.169-11.309,2.056c-5.141,8.224,0,12.336-7.196,18.504
				c-7.196,6.167-9.253,11.308-5.141,11.308c4.111,0,22.617-2.056,22.617-2.056l17.476,1.029L617.895,696.613z"/>
		</g>
		<g>
			<path fill="#FFFFFF" d="M471.911,771.654c8.265,12.231,3.392,21.589-18.504,26.729c-24.32,5.708-59.625,7.565-59.625-7.197
				s28.476-34.954,53.457-34.954C472.221,756.234,464.716,761.005,471.911,771.654z"/>
		</g>
		<g>
			<path fill="#FFFFFF" d="M243.695,771.144c0,9.368-8.286,16.961-18.504,16.961c-10.219,0-20.561,1.659-20.561-7.709
				s16.51-32.383,26.729-32.383C241.578,748.014,243.695,761.776,243.695,771.144z"/>
		</g>
		<g opacity="0.7284" enable-background="new    ">
			<path fill="#808080" d="M384.019,754.696c0,0,28.785-13.878,35.982-16.449c7.196-2.57,37.008-6.167,37.008-6.167
				C426.669,742.123,398.149,751.407,384.019,754.696L384.019,754.696z"/>
		</g>
	</g>
	<path fill="#CCCCCC" d="M730.072,755.003c-21.134,0-43.209,32.557-48.24,72.71c-1.022,8.152-3.422,11.593-3.127,18.898
		c0.059-5.61,2.199-7.136,3.212-13.132c6.936-41.087,26.939-74.405,47.942-74.405c18.92,0,28.086,32.865,28.23,66.81
		C761.555,788.626,750.108,755.003,730.072,755.003L730.072,755.003z"/>
	<g>
		<path fill="none" stroke="#000000" stroke-width="1.7613" d="M769.454,731.201c47.665,4.508,70.717,4.625,96.443-4.646"/>
	</g>
	<g opacity="0.6509" enable-background="new    ">
		<path fill="#1A1A1A" d="M800.769,730.955c0,0-1.867,4.028-8.711-7.769c-6.845-11.797-9.128-21.005-9.128-21.005
			s-10.992,34.53-9.954,34.817c1.037,0.289,17.836,0.576,19.495,0.576C794.13,737.574,800.769,730.955,800.769,730.955
			L800.769,730.955z"/>
	</g>
	<g transform="matrix(1.05852,0,0,1.05852,-60.88976,-56.96663)">
		<path fill="#CCCCCC" d="M808.496,738.172c0,0,4.355-9.106,8.574-11.147c8.75-4.228,25.721-2.571,29.15,0.429
			c3.43,3.001,5.572,16.289,1.715,17.146c-3.858,0.858-24.006,5.145-30.865,4.287C810.213,748.031,808.496,738.172,808.496,738.172z
			"/>
		<g opacity="0.4612" enable-background="new    ">
			<path fill="#1A1A1A" d="M809.819,738.742c0,0,1.698,7.513,3.878,8.24c2.181,0.727,0.97,0.727,5.574,0.727
				c4.604,0,27.384-2.666,28.11-3.878c0.727-1.212,2.424-4.362,1.698-6.301c-0.727-1.939-0.727-2.666-0.727-2.666L809.819,738.742z"
				/>
		</g>
		<g>
			<path fill="#999999" d="M809.335,738.016c-0.114-0.076,4.221-7.149,7.998-9.452c5.073-3.093,14.039-4.859,24.476-2.18
				c4.834,1.241,6.315,4.829,5.573,7.27C847.626,734.865,809.335,738.016,809.335,738.016L809.335,738.016z"/>
		</g>
		<g>
			<path fill="#FFFFFF" d="M821.209,737.531c8.82-1.371,20.367-0.447,26.211-3.878c0,0,1.393,0.728,0.213,1.697
				C846.451,736.318,821.209,737.531,821.209,737.531z"/>
		</g>
		<g opacity="0.5991" enable-background="new    ">
			<path fill="#1A1A1A" d="M810.747,739.13c0,0-3.234-0.942,1.36-1.298c6.451-0.497,29.888-1.575,26.066-0.926L810.747,739.13z"/>
		</g>
		<g opacity="0.3405" enable-background="new    ">
			<path fill="#4D4D4D" d="M809.335,738.985c0,0,0.243-0.485,3.393,0.242c3.15,0.727,15.267,6.544,20.598,5.816
				c5.332-0.727,13.328-0.242,13.328-0.242s-28.818,6.338-32.231,3.392C809.093,743.589,809.335,738.985,809.335,738.985
				L809.335,738.985z"/>
		</g>
		<path fill="#333333" d="M808.666,738.302c0,0-3.17,1.156-3.598,2.871c-0.428,1.714,1.285,2.143-0.856,4.286
			c-2.145,2.144-6.8,5.201-6.8,5.201s-5.891,2.489,0.539,4.204c6.43,1.715,7.976-0.83,7.976-0.83s-2.573,0,1.286-3.858
			c3.857-3.858,6.989-2.759,6.989-2.759C813.17,744.533,812.746,741.49,808.666,738.302L808.666,738.302z"/>
		<g>
			<path fill="#999999" d="M805.458,743.346c0,0,2.423,3.03,3.999,3.272c1.574,0.243,1.474-0.755-1.214-1.817
				c-2.448-0.968-2.557-4.582-2.544-4.605L805.458,743.346z"/>
		</g>
		<g>
			<path d="M805.699,744.802c-0.119,0.485-0.093,0.422-1.089,2.059c-1.642,2.698,3.293,1.685,4.119,1.575
				c0.601-0.081,1.697-0.727,1.697-0.727s-0.728-0.122-1.94-1.091C807.275,745.65,805.699,744.802,805.699,744.802z"/>
		</g>
		<g>
			<path d="M808.705,739.03c0,0-0.5-1.273,0.602-0.424c1.103,0.849,3.209,2.864,3.308,4.031c0.102,1.168,1.204,3.077,1.204,3.502
				c0,0.424-0.3,1.485-0.803,0.424c-0.501-1.061-0.801-3.607-1.602-4.775C810.609,740.62,808.705,739.03,808.705,739.03z"/>
		</g>
		<g>
			<path fill="#FFFFFF" d="M809.335,737.531c2.182-3.878,2.809-3.286,6.301-6.543c2.531-2.361,4.121-2.665,7.513-3.151
				c3.393-0.484,11.147-1.696,15.268-0.726c4.12,0.969,7.027,1.453,8.24,3.151c1.212,1.697,0.971,2.908,0.971,2.908
				s0.242-2.908-0.487-4.361c-0.727-1.454-2.691-1.775-4.603-2.424c-6.503-2.21-14.922-2.208-21.569-0.484
				c-3.151,0.817-5.274,2.481-7.512,4.847C811.47,732.845,809.335,737.531,809.335,737.531L809.335,737.531z"/>
		</g>
	</g>
	<path fill="#333333" d="M761.019,753.352l10.729-0.584c3.209-0.175,6.506,2.194,7.366,5.289l0,0l1.196,4.311
		c0.857,3.096-1.046,5.747-4.253,5.922l0,0l-10.73,0.584c-3.208,0.175-6.504-2.193-7.363-5.289l0,0l-1.197-4.312
		C755.905,756.18,757.81,753.528,761.019,753.352L761.019,753.352"/>
	<path fill="#B3B3B3" d="M755.043,760.939l25.795-2.641c0.599-0.062,1.136,0.375,1.195,0.974c0.062,0.599-0.374,1.134-0.974,1.196
		l-25.794,2.641c-0.6,0.062-1.135-0.375-1.197-0.974C754.007,761.535,754.444,761,755.043,760.939"/>
	<g transform="matrix(.99972,-.0235,.18068,.99603,315.77359,572.13037)">
		<path fill="none" stroke="#666666" stroke-width="1.1742" d="M488.553,192.033l9.752,0c1.382-0.001,2.506,1.122,2.505,2.505l0,0
			l0,7.39c0,1.383-1.122,2.505-2.505,2.505l0,0l-9.753,0c-1.383,0.001-2.504-1.122-2.504-2.505l0,0l-0.002-7.39
			C486.049,193.155,487.17,192.034,488.553,192.033L488.553,192.033"/>
		<path fill="none" stroke="#666666" stroke-width="1.3865" d="M489.784,193.597l7.29,0c1.037-0.001,1.875,0.839,1.875,1.873
			l0.001,5.526c0,1.035-0.838,1.874-1.872,1.874l-7.294,0.001c-1.034-0.001-1.873-0.839-1.872-1.874l-0.001-5.527
			C487.91,194.435,488.747,193.596,489.784,193.597"/>
		<path fill="#333333" stroke="#666666" stroke-width="1.1742" stroke-linecap="round" stroke-linejoin="bevel" d="M488.201,197.763
			l10.368,0c0.259-0.001,0.47,0.211,0.472,0.471l0.001,4.113c-0.001,0.259-0.211,0.471-0.472,0.471h-10.368
			c-0.261-0.001-0.472-0.212-0.471-0.472l0-4.112C487.731,197.973,487.942,197.762,488.201,197.763"/>
	</g>
	<g>
		<path fill="#FFFFFF" d="M772.785,678.941c2.057-2.742-20.219-2.742-20.219-2.742s5.48-0.686,10.623-0.342
			c6.975,0.465,14.439-1.563,12.68,2.398c-1.823,4.112-28.58,50.037-27.416,50.037C754.788,712.304,760.639,697.94,772.785,678.941
			L772.785,678.941z"/>
	</g>
	<g opacity="0.9009" enable-background="new    ">
		<path fill="none" stroke="#FFFFFF" stroke-width="2.3484" d="M775.528,709.786c4.244-8.918,3.611-15.886,16.107-28.104"/>
	</g>
	<g opacity="0.9009" enable-background="new    ">
		<line fill="none" stroke="#666666" stroke-width="2.3484" x1="766.959" y1="731.72" x2="778.61" y2="701.217"/>
	</g>
	<g>
		<path fill="none" stroke="#FFFFFF" stroke-width="2.3484" d="M793.348,682.368c29.199-5.728,52.406,13.85,73.343,34.958"/>
	</g>
	<path fill="#E6E6E6" d="M897.824,795.48c0,0,5.027-14.52,7.27-17.569c3.03-4.121,5.673-8.319,12.361-8.483
		c5.54-0.134,9.693,5.573,10.663,7.997c0.968,2.424,3.755,9.572,3.755,9.572s-2.38-8.15-7.998-12.965
		c-5.937-5.088-12.771-1.184-15.267,1.333C902.677,781.347,898.804,793.177,897.824,795.48L897.824,795.48z"/>
</g>
<g transform="matrix(.55983,.027,0,.55983,139.65854,394.16076)">
	<g>
		<path fill="#999999" d="M31.924-258.791l156.229-0.001c0.221,0.002,0.401,0.183,0.401,0.403v44.756
			c0,0.223-0.181,0.403-0.401,0.403l-156.229-0.001c-0.222,0-0.403-0.179-0.403-0.403l0,0v-44.754
			C31.521-258.611,31.702-258.789,31.924-258.791L31.924-258.791"/>
	</g>
	<text transform="matrix(1.7863 0 0 1.7863 42.5843 -226.3064)" fill="#1A1A1A" font-family="'Arial-BoldMT'" font-size="15.1952">             </text>
	<text transform="matrix(1.7863 0 0 1.7863 42.5843 -226.3064)" fill="#1A1A1A" font-family="'Arial-BoldMT'" font-size="15.1952">TS 371 SG </text>
	<text transform="matrix(1.7863 0 0 1.7863 184.3911 -226.3058)" fill="#1A1A1A" font-family="'Arial-BoldMT'" font-size="15.1952">           </text>
</g>
<g>
	<path fill="none" stroke="#000000" stroke-width="1.1742" d="M447.557,218.284c21.343-2.438,24.383,49.367,0.972,67.367"/>
</g>
<g>
	<path fill="none" stroke="#CCCCCC" stroke-width="1.1742" d="M446.831,218.768c-11.722,3.188-24.261,45.829-2.423,66.643"/>
</g>
<g opacity="0.3233" enable-background="new    ">
	<path fill="#F9F9F9" d="M420.333,252.29c0,0,9.319-38.517,12.682-45.239c3.085-6.169,9.599-12.338,13.366-12.338
		c3.77,0,8.225,0,10.966,3.428c2.742,3.428,0.686,1.371-5.141-1.371c-5.826-2.742-15.474,11.761-18.164,14.736
		C427.532,218.703,420.333,252.29,420.333,252.29z"/>
</g>
<g>
	<path d="M419.994,270.455c0,0,8.062,23.124,14.735,33.243c7.102,10.769,19.878,2.056,19.878,2.056s-11.729,7.657-17.137,5.141
		C424.157,304.697,419.994,270.455,419.994,270.455L419.994,270.455z"/>
</g>
</svg>
