<svg version="1.1" id="Layer_1" xmlns="http://www.w3.org/2000/svg" xmlns:xlink="http://www.w3.org/1999/xlink" viewBox="0 0 768 430" enable-background="new 0 0 768 430" xml:space="preserve">
<g transform="translate(-280.8224,-578.81741)">
	<g transform="matrix(-.92281,0,0,.93552,1580.6966,56.32251)">
		<path fill="#CCCCCC" d="M1087.029,733.827c0,0,3.961-8.281,7.8-10.138c7.958-3.848,23.395-2.34,26.515,0.39
			c3.119,2.73,5.068,14.817,1.56,15.598c-3.509,0.781-21.837,4.681-28.075,3.901C1088.59,742.798,1087.029,733.827,1087.029,733.827
			z"/>
		<g opacity="0.4612" enable-background="new    ">
			<path fill="#1A1A1A" d="M1088.233,734.348c0,0,1.543,6.834,3.527,7.496c1.983,0.661,0.883,0.661,5.071,0.661
				c4.188,0,24.91-2.424,25.57-3.528c0.662-1.101,2.205-3.969,1.544-5.731c-0.661-1.763-0.661-2.425-0.661-2.425L1088.233,734.348z"
				/>
		</g>
		<g>
			<path fill="#999999" d="M1087.791,733.686c-0.103-0.068,3.84-6.503,7.275-8.598c4.615-2.814,12.769-4.421,22.263-1.984
				c4.397,1.128,5.746,4.392,5.07,6.613C1122.621,730.82,1087.791,733.686,1087.791,733.686z"/>
		</g>
		<g>
			<path fill="#FFFFFF" d="M1098.592,733.245c8.024-1.247,18.527-0.406,23.844-3.528c0,0,1.268,0.662,0.193,1.544
				C1121.554,732.144,1098.592,733.245,1098.592,733.245z"/>
		</g>
		<g opacity="0.5991" enable-background="new    ">
			<path fill="#1A1A1A" d="M1089.076,734.699c0,0-2.942-0.856,1.236-1.18c5.867-0.452,27.188-1.434,23.712-0.843L1089.076,734.699z"
				/>
		</g>
		<path opacity="0.2112" fill="#4D4D4D" enable-background="new    " d="M1087.791,734.568c0,0,0.222-0.439,3.087,0.221
			c2.864,0.662,13.887,5.951,18.738,5.291c4.849-0.662,12.124-0.221,12.124-0.221s-26.215,5.767-29.318,3.086
			C1087.573,738.757,1087.791,734.568,1087.791,734.568z"/>
		<path fill="#333333" d="M1087.183,733.948c0,0-2.883,1.052-3.272,2.611c-0.391,1.559,1.169,1.95-0.78,3.9
			c-1.949,1.949-6.184,4.731-6.184,4.731s-5.36,2.265,0.49,3.824c5.849,1.561,7.253-0.756,7.253-0.756s-2.339,0,1.17-3.508
			c3.51-3.509,6.357-2.51,6.357-2.51C1091.279,739.615,1090.896,736.848,1087.183,733.948L1087.183,733.948z"/>
		<g>
			<path fill="#999999" d="M1084.264,738.536c0,0,2.204,2.755,3.638,2.976c1.432,0.22,1.342-0.687-1.103-1.653
				c-2.227-0.881-2.327-4.167-2.314-4.189L1084.264,738.536z"/>
		</g>
		<g>
			<path d="M1084.485,739.859c-0.11,0.442-0.086,0.384-0.992,1.874c-1.492,2.455,2.994,1.533,3.747,1.435
				c0.547-0.074,1.545-0.662,1.545-0.662s-0.661-0.111-1.764-0.992C1085.918,740.631,1084.485,739.859,1084.485,739.859z"/>
		</g>
		<g>
			<path d="M1087.22,734.609c0,0-0.456-1.158,0.546-0.386c1.004,0.772,2.918,2.606,3.01,3.666c0.091,1.062,1.096,2.799,1.096,3.186
				c0,0.386-0.275,1.352-0.73,0.386c-0.457-0.966-0.73-3.281-1.46-4.344C1088.952,736.057,1087.22,734.609,1087.22,734.609z"/>
		</g>
		<g>
			<path fill="#FFFFFF" d="M1087.791,733.245c1.984-3.528,2.556-2.989,5.731-5.953c2.302-2.146,3.747-2.423,6.835-2.863
				c3.086-0.441,10.141-1.543,13.887-0.662c3.747,0.882,6.393,1.324,7.495,2.865c1.103,1.544,0.881,2.647,0.881,2.647
				s0.222-2.647-0.44-3.967c-0.662-1.323-2.45-1.614-4.19-2.205c-5.913-2.01-13.574-2.009-19.618-0.44
				c-2.866,0.743-4.799,2.257-6.833,4.409C1089.733,728.983,1087.791,733.245,1087.791,733.245L1087.791,733.245z"/>
		</g>
	</g>
	<g transform="translate(190.35714,-6.07143)">
		<g transform="matrix(1.84394,0,0,2.16836,-841.9611,-378.90552)">
			<path d="M716.819,533.226c-14.269,8.122-19.938,49.995-2.425,49.995h15.235c-4.346-0.995-7.329-12.867-6.668-26.617
				c0.6-12.53,4.023-22.309,7.92-23.378H716.819L716.819,533.226z M731.27,583.068c-0.154,0.063-0.303,0.118-0.459,0.155h0.459
				V583.068z"/>
			<path fill="#1A1A1A" d="M743.727,559.805c-1.092,13.825-7.827,24.317-15.043,23.435c-7.216-0.884-12.181-12.805-11.088-26.631
				c1.093-13.825,7.827-24.317,15.043-23.435C739.855,534.056,744.82,545.979,743.727,559.805z"/>
			<g>
				<path d="M730.953,533.12c-6.957-0.174-13.297,10.102-14.356,23.495c-1.092,13.826,3.86,25.748,11.077,26.63
					c0.613,0.075,1.233,0.058,1.835-0.027c-7.12-1.052-11.987-12.89-10.903-26.602c0.996-12.619,6.688-22.465,13.161-23.414
					l-0.143-0.026C731.4,533.146,731.176,533.126,730.953,533.12L730.953,533.12z"/>
			</g>
			<path d="M738.191,558.163c0,6.918-2.897,12.526-6.472,12.526c-3.575,0-6.472-5.608-6.472-12.526
				c0-6.918,2.896-12.527,6.472-12.527C735.294,545.637,738.191,551.245,738.191,558.163z"/>
			<g transform="matrix(.37313,.11015,-.07023,.53868,616.24461,356.5115)">
				<path fill="#999999" d="M367.81,292.7c0,0,1.246-0.777,2.338-1.716c1.087-0.935,6.39-10.287,6.39-10.287l1.248,1.557
					c0,0-5.144,9.198-6.238,9.977c-1.09,0.779-2.649,1.869-2.649,1.869L367.81,292.7z"/>
				<path fill="#666666" d="M367.186,292.077c0,0,0.625-0.157,1.711-1.247c1.093-1.091,5.458-9.664,5.458-9.664l2.026-0.47
					c0,0-5.144,9.978-6.703,10.913c-1.56,0.935-2.024,1.247-2.024,1.247L367.186,292.077z"/>
				<g transform="matrix(.89937,-.47261,.4372,.97221,-113.00896,295.05748)">
					<path fill="#999999" d="M431.489,206.327c0,0,1.246-0.781,2.337-1.715c1.094-0.935,6.392-10.289,6.392-10.289l1.246,1.559
						c0,0-5.145,9.197-6.236,9.978c-1.091,0.779-2.648,1.869-2.648,1.869L431.489,206.327z"/>
					<path fill="#666666" d="M430.627,205.921c0,0,0.638-0.158,1.759-1.272c1.121-1.11,5.59-9.853,5.59-9.853l2.084-0.474
						c0,0-5.269,10.171-6.87,11.124c-1.602,0.951-2.081,1.269-2.081,1.269L430.627,205.921z"/>
				</g>
				<g transform="matrix(-.13149,.87055,.82551,.09775,349.35111,-163.0515)">
					<path fill="#999999" d="M522.222,94.709c0,0,1.247-0.784,2.339-1.713c1.091-0.937,6.39-10.29,6.39-10.29l1.246,1.562
						c0,0-5.142,9.196-6.234,9.974c-1.091,0.779-2.651,1.872-2.651,1.872L522.222,94.709z"/>
					<path fill="#666666" d="M521.6,94.083c0,0,0.623-0.157,1.715-1.247c1.089-1.089,5.453-9.664,5.453-9.664l2.027-0.468
						c0,0-5.144,9.976-6.701,10.911c-1.56,0.94-2.026,1.251-2.026,1.251L521.6,94.083z"/>
				</g>
				<g transform="matrix(.69001,-.74572,.73666,.7705,-107.84208,538.49532)">
					<path fill="#999999" d="M502.522,167.465c0,0,1.303-0.857,2.451-1.87c1.146-1.016,6.885-10.98,6.885-10.98l1.221,1.595
						c0,0-5.571,9.796-6.712,10.647c-1.141,0.853-2.773,2.044-2.773,2.044L502.522,167.465z"/>
					<path fill="#666666" d="M501.99,166.716c0,0,0.638-0.178,1.786-1.345c1.142-1.166,5.842-10.213,5.842-10.213l2.081-0.54
						c0,0-5.536,10.528-7.154,11.543c-1.617,1.017-2.102,1.356-2.102,1.356L501.99,166.716z"/>
				</g>
				<g transform="matrix(.21107,-.84815,.82288,.28919,144.5296,791.69779)">
					<path fill="#999999" d="M621.183,102.15c0,0,1.246-0.78,2.337-1.717c1.09-0.932,6.389-10.287,6.389-10.287l1.249,1.558
						c0,0-5.143,9.197-6.237,9.977c-1.09,0.779-2.651,1.872-2.651,1.872L621.183,102.15z"/>
					<path fill="#666666" d="M620.557,101.526c0,0,0.623-0.157,1.715-1.25c1.091-1.09,5.456-9.664,5.456-9.664l2.027-0.466
						c0,0-5.143,9.98-6.704,10.911c-1.558,0.936-2.026,1.247-2.026,1.247L620.557,101.526z"/>
				</g>
				<g transform="matrix(-.31452,-.92668,.75301,-.3767,486.99186,1104.3729)">
					<path fill="#999999" d="M802.87,164.375c0,0,1.099-0.671,2.059-1.476c0.96-0.808,5.607-8.897,5.607-8.897l1.108,1.355
						c0,0-4.508,7.95-5.468,8.626c-0.964,0.673-2.335,1.613-2.335,1.613L802.87,164.375z"/>
					<path fill="#666666" d="M802.243,163.764c0,0,0.531-0.11,1.433-0.911c0.909-0.808,4.438-7.208,4.438-7.208l1.718-0.318
						c0,0-4.163,7.446-5.471,8.124c-1.31,0.68-1.702,0.908-1.702,0.908L802.243,163.764z"/>
				</g>
				<g transform="matrix(.4041,.83471,.78402,-.40251,44.36263,60.46256)">
					<path fill="#999999" d="M390.933,201.886c0,0,1.247-0.781,2.34-1.716c1.09-0.934,6.39-10.29,6.39-10.29l1.246,1.56
						c0,0-5.145,9.196-6.235,9.978c-1.09,0.775-2.649,1.872-2.649,1.872L390.933,201.886z"/>
					<path fill="#666666" d="M390.311,201.261c0,0,0.623-0.156,1.713-1.247c1.091-1.089,5.456-9.663,5.456-9.663l2.026-0.468
						c0,0-5.144,9.978-6.703,10.914c-1.559,0.932-2.027,1.244-2.027,1.244L390.311,201.261z"/>
				</g>
				<g transform="matrix(.71533,.70724,.54609,-.8715,-47.60941,321.75139)">
					<path fill="#999999" d="M346.372,298.227c0,0,1.248-0.778,2.337-1.714c1.092-0.935,6.393-10.288,6.393-10.288l1.249,1.562
						c0,0-5.145,9.195-6.237,9.972c-1.091,0.781-2.652,1.87-2.652,1.87L346.372,298.227z"/>
					<path fill="#666666" d="M345.749,297.607c0,0,0.624-0.158,1.714-1.247c1.091-1.093,5.455-9.665,5.455-9.665l2.025-0.467
						c0,0-5.143,9.977-6.701,10.913c-1.56,0.933-2.028,1.245-2.028,1.245L345.749,297.607z"/>
				</g>
				<g transform="matrix(.94156,.35405,.14321,-1.01843,-23.08707,592.14854)">
					<path fill="#999999" d="M352.049,402.724c0,0,1.25-0.778,2.339-1.716c1.092-0.937,6.391-10.288,6.391-10.288l1.249,1.559
						c0,0-5.147,9.195-6.238,9.974c-1.088,0.783-2.652,1.871-2.652,1.871L352.049,402.724z"/>
					<path fill="#666666" d="M351.426,402.102c0,0,0.622-0.158,1.716-1.249c1.09-1.092,5.454-9.663,5.454-9.663l2.027-0.469
						c0,0-5.147,9.976-6.703,10.912c-1.559,0.934-2.027,1.248-2.027,1.248L351.426,402.102z"/>
				</g>
				<g transform="matrix(.85323,-.06367,-.25284,-.85107,188.09952,776.70993)">
					<path fill="#999999" d="M367.65,527.072c0,0,1.249-0.78,2.336-1.716c1.092-0.938,6.392-10.287,6.392-10.287l1.246,1.558
						c0,0-5.142,9.197-6.235,9.977c-1.091,0.779-2.644,1.87-2.644,1.87L367.65,527.072z"/>
					<path fill="#666666" d="M367.029,526.448c0,0,0.621-0.157,1.712-1.249c1.091-1.09,5.453-9.663,5.453-9.663l2.03-0.467
						c0,0-5.146,9.974-6.703,10.91c-1.56,0.935-2.03,1.246-2.03,1.246L367.029,526.448z"/>
				</g>
				<g transform="matrix(.67031,-.41814,-.62314,-.51407,446.03046,854.85449)">
					<path fill="#999999" d="M505.923,665.115c0,0,1.245-0.783,2.338-1.715c1.092-0.935,6.39-10.289,6.39-10.289l1.251,1.559
						c0,0-5.147,9.197-6.237,9.978c-1.091,0.78-2.652,1.871-2.652,1.871L505.923,665.115z"/>
					<path fill="#666666" d="M505.302,664.49c0,0,0.619-0.157,1.712-1.248c1.091-1.091,5.457-9.665,5.457-9.665l2.027-0.47
						c0,0-5.145,9.979-6.707,10.911c-1.557,0.936-2.026,1.249-2.026,1.249L505.302,664.49z"/>
				</g>
				<g transform="matrix(.75576,.46175,-.46752,.7436,333.27119,-174.47133)">
					<path fill="#999999" d="M318.124,435.074c0,0,1.248-0.782,2.339-1.715c1.092-0.938,6.392-10.29,6.392-10.29l1.247,1.557
						c0,0-5.143,9.2-6.237,9.979c-1.09,0.779-2.648,1.872-2.648,1.872L318.124,435.074z"/>
					<path fill="#666666" d="M317.503,434.449c0,0,0.623-0.155,1.715-1.248c1.09-1.09,5.454-9.664,5.454-9.664l2.027-0.466
						c0,0-5.143,9.975-6.702,10.911c-1.56,0.935-2.027,1.247-2.027,1.247L317.503,434.449z"/>
				</g>
				<g>
					<g>
						<g>
							<g>
								<defs>
									<path id="SVGID_1_" d="M371.603,298.774c0.174,4.287-3.042,8.115-7.191,8.55c-4.145,0.434-7.647-2.687-7.826-6.973
										c-0.002-0.008,0-0.017,0.001-0.026c-0.176-4.286,3.039-8.111,7.19-8.549c4.144-0.435,7.649,2.687,7.826,6.973
										C371.601,298.757,371.601,298.765,371.603,298.774z"/>
								</defs>
								<clipPath id="SVGID_2_">
									<use xlink:href="#SVGID_1_"  overflow="visible"/>
								</clipPath>
								<g clip-path="url(#SVGID_2_)">
									<path fill="#808080" d="M371.458,298.818c0.172,4.323-2.939,8.162-6.944,8.578c-4.009,0.413-7.392-2.755-7.564-7.076
										c-0.169-4.321,2.938-8.161,6.943-8.576C367.9,291.328,371.286,294.498,371.458,298.818z"/>
								</g>
							</g>
						</g>
					</g>
				</g>
				<g>
					<path fill="#CCCCCC" d="M362.987,294.828c0.02,0.467-0.302,0.884-0.717,0.924c-0.413,0.044-0.764-0.302-0.781-0.772
						c-0.021-0.467,0.301-0.884,0.717-0.927C362.619,294.012,362.968,294.359,362.987,294.828z"/>
				</g>
				<g>
					<path fill="#808080" d="M368.893,302.798c0.02,0.469-0.302,0.884-0.714,0.926c-0.412,0.042-0.764-0.304-0.783-0.773
						c-0.018-0.467,0.299-0.884,0.713-0.926C368.525,301.982,368.874,302.33,368.893,302.798z"/>
				</g>
				<g>
					<path fill="#CCCCCC" d="M360.176,299.692c0.019,0.469-0.306,0.884-0.715,0.928c-0.413,0.044-0.764-0.304-0.781-0.773
						c-0.019-0.469,0.3-0.885,0.713-0.926C359.809,298.878,360.158,299.223,360.176,299.692z"/>
				</g>
				<g>
					<path fill="#CCCCCC" d="M368.764,295.632c0.018,0.467-0.302,0.884-0.715,0.928c-0.414,0.04-0.763-0.305-0.783-0.773
						c-0.017-0.47,0.301-0.883,0.715-0.928C368.396,294.815,368.746,295.163,368.764,295.632z"/>
				</g>
				<g>
					<path fill="#CCCCCC" d="M362.537,303.964c0.019,0.469-0.301,0.883-0.715,0.927c-0.414,0.043-0.765-0.303-0.783-0.773
						c-0.02-0.467,0.301-0.883,0.716-0.926C362.168,303.149,362.518,303.493,362.537,303.964z"/>
				</g>
				<path fill="#666666" d="M367.053,299.398c0.065,1.697-1.094,3.197-2.593,3.351c-1.495,0.155-2.762-1.094-2.828-2.793
					c-0.068-1.695,1.089-3.197,2.587-3.352C365.718,296.452,366.986,297.703,367.053,299.398z"/>
				<path fill="#999999" d="M367.28,299.313c0.067,1.697-1.092,3.196-2.591,3.352c-1.494,0.154-2.764-1.097-2.829-2.792
					c-0.067-1.697,1.091-3.199,2.589-3.353C365.945,296.367,367.21,297.616,367.28,299.313z"/>
				<path fill="#999999" d="M366.565,276.949c-0.623,0-1.249,0.044-1.852,0.135c8.339,1.243,14.832,10.766,14.832,22.317
					c0.004,11.552-6.496,21.073-14.831,22.316c0.603,0.091,1.228,0.137,1.849,0.135c9.209,0.001,16.682-10.056,16.687-22.453
					C383.247,287.003,375.777,276.948,366.565,276.949z"/>
				<path fill="#FFFFFF" d="M366.41,273.533c-10.676,0.001-19.327,11.508-19.328,25.712c-0.002,14.207,8.655,25.713,19.324,25.713
					c10.677,0.001,19.327-11.508,19.331-25.712C385.737,285.042,377.084,273.534,366.41,273.533z M366.409,277.257
					c9.126,0,16.514,9.846,16.51,21.988c0,12.143-7.384,21.988-16.51,21.989c-9.122-0.001-16.528-9.847-16.528-21.992
					C349.878,287.102,357.282,277.257,366.409,277.257z"/>
			</g>
		</g>
		<g transform="matrix(1.84394,0,0,2.16836,-1177.9611,-372.90552)">
			<path d="M786.566,532.167c-14.269,8.121-19.938,49.995-2.425,49.995h15.235c-4.347-0.994-7.329-12.867-6.668-26.617
				c0.601-12.529,4.024-22.309,7.922-23.377L786.566,532.167L786.566,532.167z M801.017,582.009
				c-0.153,0.062-0.302,0.118-0.458,0.153h0.458V582.009z"/>
			<path fill="#1A1A1A" d="M813.474,558.745c-1.093,13.825-7.827,24.317-15.043,23.436c-7.216-0.882-12.18-12.804-11.089-26.629
				c1.092-13.825,7.828-24.317,15.044-23.435C809.602,532.997,814.567,544.92,813.474,558.745z"/>
			<g>
				<path d="M800.699,532.061c-6.957-0.174-13.297,10.101-14.356,23.494c-1.092,13.825,3.86,25.747,11.076,26.629
					c0.614,0.075,1.232,0.057,1.836-0.027c-7.12-1.054-11.987-12.89-10.904-26.604c0.997-12.618,6.688-22.465,13.163-23.414
					l-0.141-0.026C801.148,532.086,800.924,532.066,800.699,532.061L800.699,532.061z"/>
			</g>
			<path d="M807.939,557.103c0,6.918-2.897,12.527-6.472,12.527c-3.575,0-6.472-5.609-6.472-12.527
				c0-6.918,2.898-12.526,6.472-12.526C805.04,544.577,807.939,550.186,807.939,557.103z"/>
			<g transform="matrix(.37313,.11015,-.07023,.53868,616.24461,356.5115)">
				<path fill="#999999" d="M547.448,254.001c0,0,1.248-0.779,2.337-1.716c1.093-0.934,6.394-10.287,6.394-10.287l1.246,1.559
					c0,0-5.144,9.197-6.235,9.976c-1.091,0.78-2.65,1.871-2.65,1.871L547.448,254.001z"/>
				<path fill="#666666" d="M546.826,253.375c0,0,0.622-0.156,1.715-1.245c1.091-1.092,5.455-9.664,5.455-9.664l2.027-0.469
					c0,0-5.144,9.977-6.703,10.911c-1.559,0.936-2.028,1.247-2.028,1.247L546.826,253.375z"/>
				<g transform="matrix(.89937,-.47261,.4372,.97221,-113.00896,295.05748)">
					<path fill="#999999" d="M608.702,252.666c0,0,1.247-0.779,2.338-1.715c1.092-0.935,6.391-10.287,6.391-10.287l1.246,1.558
						c0,0-5.144,9.197-6.235,9.977c-1.09,0.78-2.649,1.872-2.649,1.872L608.702,252.666z"/>
					<path fill="#666666" d="M607.839,252.26c0,0,0.642-0.159,1.762-1.27c1.12-1.111,5.59-9.853,5.59-9.853l2.083-0.472
						c0,0-5.268,10.173-6.87,11.125c-1.599,0.951-2.081,1.267-2.081,1.267L607.839,252.26z"/>
				</g>
				<g transform="matrix(-.13149,.87055,.82551,.09775,349.35111,-163.0515)">
					<path fill="#999999" d="M454.544,301.54c0,0,1.248-0.779,2.338-1.715c1.092-0.935,6.392-10.288,6.392-10.288l1.247,1.56
						c0,0-5.146,9.195-6.236,9.975c-1.09,0.779-2.652,1.87-2.652,1.87L454.544,301.54z"/>
					<path fill="#666666" d="M453.922,300.914c0,0,0.624-0.155,1.714-1.247c1.09-1.09,5.455-9.664,5.455-9.664l2.028-0.468
						c0,0-5.144,9.977-6.703,10.911c-1.56,0.935-2.028,1.247-2.028,1.247L453.922,300.914z"/>
				</g>
				<g transform="matrix(.69001,-.74572,.73666,.7705,-107.84208,538.49532)">
					<path fill="#999999" d="M656.939,266.685c0,0,1.3-0.856,2.448-1.868c1.148-1.015,6.883-10.978,6.883-10.978l1.222,1.593
						c0,0-5.572,9.796-6.714,10.646c-1.14,0.851-2.77,2.043-2.77,2.043L656.939,266.685z"/>
					<path fill="#666666" d="M656.404,265.937c0,0,0.639-0.179,1.783-1.342c1.147-1.169,5.846-10.213,5.846-10.213l2.081-0.542
						c0,0-5.537,10.529-7.153,11.545c-1.617,1.018-2.102,1.353-2.102,1.353L656.404,265.937z"/>
				</g>
				<g transform="matrix(.21107,-.84815,.82288,.28919,144.5296,791.69779)">
					<path fill="#999999" d="M731.589,292.135c0,0,1.248-0.78,2.34-1.715c1.09-0.937,6.391-10.287,6.391-10.287l1.245,1.557
						c0,0-5.143,9.197-6.235,9.977c-1.09,0.777-2.648,1.87-2.648,1.87L731.589,292.135z"/>
					<path fill="#666666" d="M730.966,291.511c0,0,0.623-0.155,1.713-1.246c1.09-1.09,5.457-9.664,5.457-9.664l2.026-0.467
						c0,0-5.145,9.974-6.702,10.911c-1.56,0.934-2.029,1.247-2.029,1.247L730.966,291.511z"/>
				</g>
				<g transform="matrix(-.31452,-.92668,.75301,-.3767,486.99186,1104.3729)">
					<path fill="#999999" d="M755.668,383.222c0,0,1.097-0.674,2.058-1.479c0.96-0.808,5.606-8.898,5.606-8.898l1.11,1.353
						c0,0-4.509,7.955-5.469,8.626c-0.961,0.673-2.336,1.616-2.336,1.616L755.668,383.222z"/>
					<path fill="#666666" d="M755.043,382.609c0,0,0.53-0.108,1.433-0.913c0.907-0.804,4.435-7.201,4.435-7.201l1.72-0.317
						c0,0-4.163,7.441-5.47,8.124c-1.309,0.678-1.702,0.904-1.702,0.904L755.043,382.609z"/>
				</g>
				<g transform="matrix(.4041,.83471,.78402,-.40251,44.36263,60.46256)">
					<path fill="#999999" d="M442.295,404.539c0,0,1.246-0.779,2.337-1.714c1.091-0.934,6.394-10.288,6.394-10.288l1.246,1.559
						c0,0-5.146,9.195-6.236,9.976c-1.092,0.779-2.65,1.872-2.65,1.872L442.295,404.539z"/>
					<path fill="#666666" d="M441.671,403.916c0,0,0.621-0.154,1.713-1.246c1.094-1.091,5.457-9.665,5.457-9.665l2.027-0.467
						c0,0-5.144,9.976-6.703,10.91c-1.56,0.934-2.028,1.247-2.028,1.247L441.671,403.916z"/>
				</g>
				<g transform="matrix(.71533,.70724,.54609,-.8715,-47.60941,321.75139)">
					<path fill="#999999" d="M480.504,451.485c0,0,1.248-0.779,2.338-1.714c1.092-0.935,6.392-10.29,6.392-10.29l1.249,1.56
						c0,0-5.144,9.196-6.236,9.977c-1.092,0.778-2.649,1.869-2.649,1.869L480.504,451.485z"/>
					<path fill="#666666" d="M479.881,450.862c0,0,0.623-0.156,1.713-1.247c1.092-1.092,5.456-9.665,5.456-9.665l2.026-0.467
						c0,0-5.145,9.974-6.702,10.911c-1.559,0.935-2.027,1.248-2.027,1.248L479.881,450.862z"/>
				</g>
				<g transform="matrix(.94156,.35405,.14321,-1.01843,-23.08707,592.14854)">
					<path fill="#999999" d="M527.768,501.809c0,0,1.247-0.779,2.338-1.714c1.091-0.936,6.391-10.287,6.391-10.287l1.246,1.558
						c0,0-5.143,9.198-6.235,9.975c-1.091,0.781-2.648,1.869-2.648,1.869L527.768,501.809z"/>
					<path fill="#666666" d="M527.144,501.188c0,0,0.624-0.156,1.716-1.249c1.091-1.092,5.456-9.664,5.456-9.664l2.025-0.47
						c0,0-5.146,9.978-6.704,10.913c-1.556,0.935-2.025,1.247-2.025,1.247L527.144,501.188z"/>
				</g>
				<g transform="matrix(.85323,-.06367,-.25284,-.85107,188.09952,776.70993)">
					<path fill="#999999" d="M586.807,556.147c0,0,1.247-0.78,2.339-1.715c1.092-0.935,6.391-10.287,6.391-10.287l1.247,1.557
						c0,0-5.143,9.198-6.236,9.978c-1.091,0.778-2.65,1.869-2.65,1.869L586.807,556.147z"/>
					<path fill="#666666" d="M586.183,555.522c0,0,0.624-0.156,1.714-1.247c1.091-1.089,5.455-9.664,5.455-9.664l2.028-0.467
						c0,0-5.144,9.976-6.703,10.911c-1.558,0.935-2.025,1.246-2.025,1.246L586.183,555.522z"/>
				</g>
				<g transform="matrix(.67031,-.41814,-.62314,-.51407,446.03046,854.85449)">
					<path fill="#999999" d="M698.376,583.853c0,0,1.246-0.778,2.338-1.714c1.092-0.937,6.391-10.288,6.391-10.288l1.248,1.558
						c0,0-5.144,9.198-6.236,9.976c-1.09,0.781-2.649,1.871-2.649,1.871L698.376,583.853z"/>
					<path fill="#666666" d="M697.753,583.229c0,0,0.624-0.155,1.717-1.246c1.089-1.092,5.453-9.667,5.453-9.667l2.029-0.465
						c0,0-5.145,9.975-6.704,10.91c-1.559,0.936-2.028,1.247-2.028,1.247L697.753,583.229z"/>
				</g>
				<g transform="matrix(.75576,.46175,-.46752,.7436,333.27119,-174.47133)">
					<path fill="#999999" d="M466.593,290.835c0,0,1.249-0.778,2.339-1.716c1.092-0.934,6.392-10.286,6.392-10.286l1.249,1.558
						c0,0-5.146,9.196-6.236,9.976c-1.091,0.779-2.651,1.87-2.651,1.87L466.593,290.835z"/>
					<path fill="#666666" d="M465.969,290.212c0,0,0.624-0.156,1.715-1.246c1.089-1.092,5.455-9.665,5.455-9.665l2.027-0.468
						c0,0-5.143,9.978-6.703,10.911c-1.56,0.934-2.027,1.247-2.027,1.247L465.969,290.212z"/>
				</g>
				<g>
					<g>
						<g>
							<g>
								<defs>
									<path id="SVGID_3_" d="M551.242,260.075c0.176,4.286-3.044,8.112-7.19,8.549c-4.147,0.436-7.651-2.687-7.826-6.974
										c0-0.009-0.001-0.017-0.001-0.027c-0.176-4.285,3.043-8.112,7.189-8.547c4.146-0.434,7.651,2.686,7.827,6.974
										C551.241,260.056,551.243,260.067,551.242,260.075z"/>
								</defs>
								<clipPath id="SVGID_4_">
									<use xlink:href="#SVGID_3_"  overflow="visible"/>
								</clipPath>
								<g clip-path="url(#SVGID_4_)">
									<path fill="#808080" d="M551.099,260.12c0.169,4.322-2.94,8.161-6.945,8.574c-4.006,0.414-7.39-2.754-7.561-7.076
										c-0.169-4.321,2.939-8.161,6.944-8.576C547.543,252.628,550.927,255.798,551.099,260.12z"/>
								</g>
							</g>
						</g>
					</g>
				</g>
				<g>
					<path fill="#CCCCCC" d="M542.627,256.128c0.019,0.469-0.303,0.885-0.716,0.927c-0.414,0.043-0.763-0.303-0.783-0.77
						c-0.018-0.47,0.302-0.884,0.717-0.928C542.259,255.315,542.609,255.66,542.627,256.128z"/>
				</g>
				<g>
					<path fill="#808080" d="M548.534,264.099c0.018,0.466-0.301,0.884-0.717,0.926c-0.413,0.042-0.763-0.301-0.782-0.771
						c-0.019-0.469,0.303-0.884,0.715-0.927C548.166,263.283,548.515,263.63,548.534,264.099z"/>
				</g>
				<g>
					<path fill="#CCCCCC" d="M539.816,260.993c0.019,0.469-0.302,0.884-0.716,0.926c-0.416,0.042-0.765-0.304-0.783-0.772
						c-0.018-0.47,0.303-0.885,0.717-0.927C539.448,260.177,539.798,260.523,539.816,260.993z"/>
				</g>
				<g>
					<path fill="#CCCCCC" d="M548.405,256.932c0.02,0.47-0.302,0.884-0.716,0.927c-0.413,0.041-0.763-0.303-0.783-0.773
						c-0.018-0.469,0.303-0.884,0.715-0.927C548.036,256.115,548.386,256.461,548.405,256.932z"/>
				</g>
				<g>
					<path fill="#CCCCCC" d="M542.177,265.265c0.018,0.469-0.301,0.883-0.715,0.926c-0.413,0.043-0.764-0.303-0.781-0.772
						c-0.018-0.47,0.302-0.883,0.716-0.927C541.809,264.45,542.157,264.796,542.177,265.265z"/>
				</g>
				<path fill="#666666" d="M546.693,260.698c0.067,1.697-1.092,3.197-2.589,3.353c-1.498,0.154-2.765-1.096-2.831-2.793
					c-0.066-1.695,1.092-3.196,2.588-3.351C545.357,257.753,546.627,259.002,546.693,260.698z"/>
				<path fill="#999999" d="M546.919,260.613c0.067,1.696-1.092,3.197-2.589,3.353c-1.497,0.155-2.765-1.095-2.833-2.791
					c-0.066-1.697,1.093-3.197,2.59-3.352C545.583,257.667,546.852,258.919,546.919,260.613z"/>
				<path fill="#999999" d="M546.204,238.249c-0.623-0.001-1.248,0.044-1.852,0.135c8.339,1.244,14.833,10.763,14.833,22.318
					c0.001,11.553-6.496,21.073-14.831,22.318c0.604,0.088,1.227,0.134,1.85,0.134c9.212,0,16.687-10.054,16.686-22.452
					C562.889,248.303,555.415,238.249,546.204,238.249z"/>
				<path fill="#FFFFFF" d="M546.051,234.835c-10.677-0.001-19.328,11.507-19.329,25.71c0,14.205,8.654,25.712,19.328,25.712
					c10.674,0.001,19.327-11.508,19.327-25.711C565.378,246.341,556.725,234.834,546.051,234.835z M546.051,238.556
					c9.124-0.001,16.511,9.847,16.511,21.989c0,12.141-7.386,21.988-16.51,21.988c-9.127,0-16.532-9.846-16.532-21.989
					C529.519,248.404,536.923,238.558,546.051,238.556z"/>
			</g>
		</g>
		<path fill="#333333" d="M514.057,771.078h56.977v99.764h-56.977V771.078L514.057,771.078z"/>
		<g transform="matrix(1.84394,0,0,2.16836,-782.99147,-362.90552)">
			<path d="M704.578,530.401c-14.269,8.122-19.938,49.996-2.426,49.996h15.234c-4.345-0.995-7.328-12.867-6.667-26.62
				c0.6-12.529,4.023-22.309,7.921-23.377H704.578z M719.029,580.243c-0.153,0.062-0.303,0.118-0.458,0.155h0.458V580.243z"/>
			<path fill="#1A1A1A" d="M731.486,556.979c-1.092,13.825-7.827,24.316-15.043,23.436c-7.215-0.883-12.18-12.805-11.088-26.631
				c1.091-13.826,7.827-24.318,15.043-23.435C727.614,531.231,732.577,543.154,731.486,556.979z"/>
			<g>
				<path d="M718.711,530.295c-6.957-0.174-13.298,10.101-14.355,23.495c-1.093,13.825,3.86,25.747,11.076,26.629
					c0.614,0.074,1.232,0.058,1.836-0.027c-7.121-1.052-11.988-12.89-10.904-26.602c0.997-12.619,6.688-22.464,13.163-23.415
					l-0.141-0.026C719.16,530.321,718.935,530.302,718.711,530.295L718.711,530.295z"/>
			</g>
			<path d="M725.951,555.338c0,6.917-2.899,12.527-6.473,12.527c-3.573,0-6.471-5.609-6.471-12.527
				c0-6.918,2.898-12.526,6.471-12.526C723.052,542.812,725.951,548.42,725.951,555.338z"/>
			<g transform="matrix(.37313,.11015,-.07023,.53868,616.24461,356.5115)">
				<path fill="#999999" d="M335.266,294.108c0,0,1.25-0.778,2.34-1.713c1.091-0.936,6.39-10.288,6.39-10.288l1.249,1.559
					c0,0-5.144,9.198-6.237,9.976c-1.092,0.781-2.65,1.871-2.65,1.871L335.266,294.108z"/>
				<path fill="#666666" d="M334.644,293.487c0,0,0.624-0.154,1.714-1.247c1.088-1.09,5.455-9.665,5.455-9.665l2.027-0.467
					c0,0-5.141,9.976-6.704,10.912c-1.557,0.936-2.025,1.246-2.025,1.246L334.644,293.487z"/>
				<g transform="matrix(.89937,-.47261,.4372,.97221,-113.00896,295.05748)">
					<path fill="#999999" d="M401.652,193.272c0,0,1.245-0.78,2.337-1.715c1.093-0.937,6.39-10.287,6.39-10.287l1.248,1.557
						c0,0-5.142,9.197-6.231,9.977c-1.094,0.78-2.651,1.871-2.651,1.871L401.652,193.272z"/>
					<path fill="#666666" d="M400.792,192.863c0,0,0.639-0.158,1.758-1.269c1.121-1.113,5.59-9.853,5.59-9.853l2.084-0.474
						c0,0-5.269,10.174-6.869,11.124c-1.603,0.952-2.083,1.269-2.083,1.269L400.792,192.863z"/>
				</g>
				<g transform="matrix(-.13149,.87055,.82551,.09775,349.35111,-163.0515)">
					<path fill="#999999" d="M528.162,56.236c0,0,1.246-0.782,2.339-1.715c1.092-0.935,6.39-10.29,6.39-10.29l1.246,1.56
						c0,0-5.141,9.196-6.233,9.978c-1.091,0.775-2.649,1.867-2.649,1.867L528.162,56.236z"/>
					<path fill="#666666" d="M527.537,55.61c0,0,0.626-0.155,1.717-1.246c1.091-1.09,5.454-9.663,5.454-9.663l2.028-0.469
						c0,0-5.146,9.979-6.703,10.911c-1.56,0.936-2.028,1.247-2.028,1.247L527.537,55.61z"/>
				</g>
				<g transform="matrix(.69001,-.74572,.73666,.7705,-107.84208,538.49532)">
					<path fill="#999999" d="M478.367,145.915c0,0,1.301-0.857,2.45-1.87c1.146-1.014,6.883-10.978,6.883-10.978l1.221,1.594
						c0,0-5.569,9.796-6.711,10.648c-1.142,0.852-2.773,2.042-2.773,2.042L478.367,145.915z"/>
					<path fill="#666666" d="M477.835,145.166c0,0,0.642-0.179,1.786-1.345c1.144-1.164,5.844-10.213,5.844-10.213l2.079-0.542
						c0,0-5.537,10.53-7.153,11.546s-2.099,1.353-2.099,1.353L477.835,145.166z"/>
				</g>
				<g transform="matrix(.21107,-.84815,.82288,.28919,144.5296,791.69779)">
					<path fill="#999999" d="M607.254,66.174c0,0,1.245-0.78,2.337-1.715c1.091-0.933,6.391-10.285,6.391-10.285l1.248,1.557
						c0,0-5.145,9.196-6.235,9.975c-1.092,0.778-2.651,1.868-2.651,1.868L607.254,66.174z"/>
					<path fill="#666666" d="M606.631,65.551c0,0,0.623-0.157,1.714-1.248c1.091-1.09,5.454-9.663,5.454-9.663l2.03-0.469
						c0,0-5.144,9.977-6.702,10.913c-1.559,0.935-2.025,1.247-2.025,1.247L606.631,65.551z"/>
				</g>
				<g transform="matrix(-.31452,-.92668,.75301,-.3767,486.99186,1104.3729)">
					<path fill="#999999" d="M816.586,126.888c0,0,1.099-0.669,2.059-1.479c0.96-0.807,5.605-8.896,5.605-8.896l1.109,1.355
						c0,0-4.509,7.957-5.469,8.628c-0.962,0.67-2.333,1.61-2.333,1.61L816.586,126.888z"/>
					<path fill="#666666" d="M815.96,126.274c0,0,0.53-0.11,1.433-0.909c0.907-0.805,4.434-7.203,4.434-7.203l1.722-0.319
						c0,0-4.161,7.443-5.471,8.121c-1.309,0.68-1.701,0.908-1.701,0.908L815.96,126.274z"/>
				</g>
				<g transform="matrix(.4041,.83471,.78402,-.40251,44.36263,60.46256)">
					<path fill="#999999" d="M376.256,167.946c0,0,1.247-0.781,2.339-1.717c1.091-0.936,6.389-10.286,6.389-10.286l1.248,1.558
						c0,0-5.143,9.199-6.234,9.977c-1.092,0.779-2.649,1.869-2.649,1.869L376.256,167.946z"/>
					<path fill="#666666" d="M375.632,167.32c0,0,0.623-0.156,1.712-1.246c1.093-1.092,5.457-9.665,5.457-9.665l2.026-0.468
						c0,0-5.143,9.976-6.701,10.912c-1.56,0.935-2.028,1.248-2.028,1.248L375.632,167.32z"/>
				</g>
				<g transform="matrix(.71533,.70724,.54609,-.8715,-47.60941,321.75139)">
					<path fill="#999999" d="M319.046,274.436c0,0,1.246-0.78,2.337-1.716c1.092-0.935,6.392-10.289,6.392-10.289l1.246,1.561
						c0,0-5.143,9.196-6.234,9.978c-1.092,0.779-2.651,1.87-2.651,1.87L319.046,274.436z"/>
					<path fill="#666666" d="M318.421,273.812c0,0,0.624-0.156,1.716-1.247c1.092-1.091,5.456-9.664,5.456-9.664l2.024-0.468
						c0,0-5.142,9.978-6.701,10.914c-1.559,0.934-2.028,1.245-2.028,1.245L318.421,273.812z"/>
				</g>
				<g transform="matrix(.94156,.35405,.14321,-1.01843,-23.08707,592.14854)">
					<path fill="#999999" d="M319.424,389.996c0,0,1.246-0.781,2.337-1.716c1.089-0.935,6.39-10.286,6.39-10.286l1.251,1.559
						c0,0-5.146,9.198-6.236,9.976c-1.09,0.78-2.651,1.869-2.651,1.869L319.424,389.996z"/>
					<path fill="#666666" d="M318.801,389.373c0,0,0.621-0.156,1.713-1.247c1.092-1.093,5.456-9.664,5.456-9.664l2.025-0.468
						c0,0-5.144,9.977-6.7,10.913c-1.563,0.934-2.029,1.245-2.029,1.245L318.801,389.373z"/>
				</g>
				<g transform="matrix(.85323,-.06367,-.25284,-.85107,188.09952,776.70993)">
					<path fill="#999999" d="M329.857,528.241c0,0,1.247-0.781,2.339-1.714c1.091-0.936,6.388-10.289,6.388-10.289l1.248,1.558
						c0,0-5.144,9.197-6.237,9.977c-1.091,0.778-2.646,1.869-2.646,1.869L329.857,528.241z"/>
					<path fill="#666666" d="M329.232,527.616c0,0,0.623-0.154,1.717-1.246c1.089-1.092,5.455-9.664,5.455-9.664l2.023-0.469
						c0,0-5.141,9.978-6.699,10.912c-1.56,0.936-2.027,1.246-2.027,1.246L329.232,527.616z"/>
				</g>
				<g transform="matrix(.67031,-.41814,-.62314,-.51407,446.03046,854.85449)">
					<path fill="#999999" d="M476.827,686.036c0,0,1.244-0.778,2.338-1.713c1.094-0.935,6.389-10.291,6.389-10.291l1.248,1.56
						c0,0-5.144,9.196-6.236,9.975c-1.089,0.781-2.648,1.87-2.648,1.87L476.827,686.036z"/>
					<path fill="#666666" d="M476.204,685.414c0,0,0.621-0.157,1.714-1.246c1.088-1.094,5.453-9.667,5.453-9.667l2.026-0.466
						c0,0-5.143,9.974-6.704,10.908c-1.557,0.936-2.027,1.249-2.027,1.249L476.204,685.414z"/>
				</g>
				<g transform="matrix(.75576,.46175,-.46752,.7436,333.27119,-174.47133)">
					<path fill="#999999" d="M287.865,455.759c0,0,1.247-0.779,2.34-1.716c1.088-0.935,6.391-10.286,6.391-10.286l1.245,1.558
						c0,0-5.143,9.197-6.233,9.976c-1.092,0.781-2.649,1.871-2.649,1.871L287.865,455.759z"/>
					<path fill="#666666" d="M287.242,455.136c0,0,0.624-0.157,1.714-1.249c1.091-1.091,5.455-9.662,5.455-9.662l2.028-0.468
						c0,0-5.145,9.976-6.702,10.911c-1.559,0.937-2.028,1.246-2.028,1.246L287.242,455.136z"/>
				</g>
				<g>
					<g>
						<g>
							<g>
								<defs>
									<path id="SVGID_5_" d="M339.06,300.183c0.176,4.286-3.042,8.114-7.19,8.547c-4.145,0.436-7.649-2.684-7.827-6.969
										c0.001-0.009-0.001-0.018,0.001-0.027c-0.178-4.285,3.041-8.113,7.187-8.548c4.146-0.436,7.649,2.686,7.828,6.969
										C339.062,300.166,339.06,300.174,339.06,300.183z"/>
								</defs>
								<clipPath id="SVGID_6_">
									<use xlink:href="#SVGID_5_"  overflow="visible"/>
								</clipPath>
								<g clip-path="url(#SVGID_6_)">
									<path fill="#808080" d="M338.915,300.229c0.172,4.323-2.936,8.162-6.942,8.575c-4.004,0.414-7.391-2.755-7.56-7.078
										c-0.172-4.322,2.938-8.159,6.944-8.574C335.36,292.739,338.746,295.908,338.915,300.229z"/>
								</g>
							</g>
						</g>
					</g>
				</g>
				<g>
					<path fill="#CCCCCC" d="M330.446,296.239c0.017,0.468-0.302,0.884-0.717,0.927c-0.417,0.042-0.767-0.302-0.784-0.772
						c-0.017-0.469,0.302-0.884,0.714-0.926C330.076,295.424,330.426,295.77,330.446,296.239z"/>
				</g>
				<g>
					<path fill="#808080" d="M336.352,304.209c0.018,0.466-0.302,0.884-0.714,0.926c-0.416,0.043-0.766-0.306-0.784-0.772
						c-0.019-0.469,0.303-0.886,0.715-0.928C335.983,303.393,336.334,303.741,336.352,304.209z"/>
				</g>
				<g>
					<path fill="#CCCCCC" d="M327.633,301.103c0.018,0.468-0.301,0.883-0.716,0.925c-0.409,0.044-0.762-0.302-0.781-0.77
						c-0.02-0.468,0.301-0.883,0.716-0.925C327.266,300.289,327.615,300.634,327.633,301.103z"/>
				</g>
				<g>
					<path fill="#CCCCCC" d="M336.224,297.041c0.019,0.469-0.305,0.886-0.717,0.928c-0.411,0.042-0.762-0.302-0.781-0.773
						c-0.017-0.47,0.301-0.883,0.715-0.927C335.855,296.228,336.205,296.571,336.224,297.041z"/>
				</g>
				<g>
					<path fill="#CCCCCC" d="M329.998,305.373c0.017,0.469-0.304,0.883-0.718,0.927c-0.415,0.043-0.765-0.302-0.785-0.771
						c-0.016-0.472,0.302-0.884,0.718-0.928C329.625,304.558,329.98,304.904,329.998,305.373z"/>
				</g>
				<path fill="#666666" d="M334.51,300.81c0.068,1.696-1.093,3.196-2.587,3.349c-1.499,0.155-2.765-1.094-2.832-2.791
					c-0.068-1.695,1.093-3.197,2.589-3.35C333.177,297.862,334.445,299.112,334.51,300.81z"/>
				<path fill="#999999" d="M334.738,300.724c0.065,1.696-1.093,3.197-2.59,3.351c-1.498,0.155-2.764-1.097-2.833-2.792
					c-0.065-1.697,1.093-3.197,2.591-3.353C333.403,297.779,334.671,299.027,334.738,300.724z"/>
				<path fill="#999999" d="M334.023,278.358c-0.625-0.001-1.246,0.046-1.851,0.135c8.337,1.242,14.831,10.763,14.831,22.317
					c0.003,11.552-6.496,21.074-14.833,22.317c0.605,0.09,1.23,0.135,1.852,0.134c9.212,0.002,16.686-10.054,16.684-22.45
					C350.708,288.413,343.236,278.357,334.023,278.358z"/>
				<path fill="#FFFFFF" d="M333.869,274.944c-10.676,0-19.327,11.508-19.326,25.713c-0.002,14.203,8.652,25.711,19.325,25.711
					c10.676-0.001,19.33-11.509,19.328-25.712C353.195,286.451,344.542,274.945,333.869,274.944z M333.87,278.667
					c9.124,0.001,16.51,9.847,16.511,21.987c-0.002,12.143-7.386,21.991-16.511,21.991c-9.126,0-16.531-9.848-16.531-21.99
					C317.338,288.513,324.742,278.667,333.87,278.667z"/>
			</g>
		</g>
		<path fill="#333333" d="M701.05,787.201l26.514-2.62l2.477,42.452l-24.715,3.451L701.05,787.201z"/>
		<g transform="matrix(1.56418,0,0,1.83938,-288.19602,-152.53628)">
			<path d="M622.461,515.528c-14.268,8.121-19.937,49.996-2.424,49.996h15.236c-4.347-0.996-7.328-12.867-6.667-26.618
				c0.601-12.53,4.023-22.309,7.921-23.378H622.461L622.461,515.528z M636.913,565.369c-0.154,0.062-0.303,0.118-0.458,0.155h0.458
				V565.369z"/>
			<path fill="#1A1A1A" d="M649.369,542.106c-1.092,13.825-7.827,24.317-15.044,23.436c-7.217-0.885-12.181-12.806-11.089-26.631
				c1.093-13.825,7.827-24.318,15.044-23.436C645.497,516.358,650.461,528.28,649.369,542.106z"/>
			<g>
				<path d="M636.596,515.422c-6.956-0.174-13.299,10.101-14.356,23.494c-1.093,13.826,3.86,25.747,11.076,26.629
					c0.614,0.076,1.234,0.058,1.835-0.027c-7.12-1.052-11.986-12.891-10.902-26.603c0.997-12.619,6.688-22.464,13.162-23.414
					l-0.142-0.026C637.043,515.448,636.818,515.428,636.596,515.422L636.596,515.422z"/>
			</g>
			<path d="M643.834,540.464c0,6.918-2.898,12.527-6.472,12.527s-6.472-5.609-6.472-12.527c0-6.917,2.898-12.528,6.472-12.528
				C640.936,527.938,643.834,533.547,643.834,540.464z"/>
			<g transform="matrix(.37313,.11015,-.07023,.53868,616.24461,356.5115)">
				<path fill="#999999" d="M118.344,310.855c0,0,1.247-0.778,2.339-1.715c1.091-0.935,6.392-10.285,6.392-10.285l1.247,1.558
					c0,0-5.146,9.197-6.234,9.977c-1.092,0.777-2.65,1.869-2.65,1.869L118.344,310.855z"/>
				<path fill="#666666" d="M117.721,310.232c0,0,0.625-0.155,1.716-1.247c1.091-1.091,5.456-9.665,5.456-9.665l2.024-0.466
					c0,0-5.14,9.975-6.699,10.912c-1.559,0.934-2.028,1.246-2.028,1.246L117.721,310.232z"/>
				<g transform="matrix(.89937,-.47261,.4372,.97221,-113.00896,295.05748)">
					<path fill="#999999" d="M199.788,112.366c0,0,1.247-0.78,2.339-1.714c1.089-0.935,6.39-10.289,6.39-10.289l1.249,1.56
						c0,0-5.149,9.197-6.236,9.976c-1.091,0.781-2.65,1.871-2.65,1.871L199.788,112.366z"/>
					<path fill="#666666" d="M198.926,111.96c0,0,0.641-0.16,1.763-1.271c1.117-1.111,5.591-9.851,5.591-9.851l2.081-0.475
						c0,0-5.269,10.173-6.87,11.124c-1.599,0.952-2.084,1.269-2.084,1.269L198.926,111.96z"/>
				</g>
				<g transform="matrix(-.13149,.87055,.82551,.09775,349.35111,-163.0515)">
					<path fill="#999999" d="M576.044-198.912c0,0,1.251-0.782,2.339-1.713c1.092-0.939,6.391-10.291,6.391-10.291l1.247,1.559
						c0,0-5.142,9.197-6.236,9.976c-1.091,0.783-2.648,1.869-2.648,1.869L576.044-198.912z"/>
					<path fill="#666666" d="M575.424-199.534c0,0,0.623-0.157,1.714-1.247c1.092-1.091,5.455-9.667,5.455-9.667l2.027-0.467
						c0,0-5.143,9.976-6.701,10.913c-1.559,0.934-2.026,1.244-2.026,1.244L575.424-199.534z"/>
				</g>
				<g transform="matrix(.69001,-.74572,.73666,.7705,-107.84208,538.49532)">
					<path fill="#999999" d="M312.343,6.962c0,0,1.301-0.856,2.446-1.87c1.147-1.013,6.885-10.978,6.885-10.978l1.22,1.591
						c0,0-5.57,9.798-6.713,10.649c-1.141,0.849-2.772,2.039-2.772,2.039L312.343,6.962z"/>
					<path fill="#666666" d="M311.806,6.213c0,0,0.64-0.182,1.786-1.345c1.142-1.168,5.846-10.213,5.846-10.213l2.078-0.543
						c0,0-5.536,10.527-7.155,11.544c-1.614,1.018-2.1,1.355-2.1,1.355L311.806,6.213z"/>
				</g>
				<g transform="matrix(.21107,-.84815,.82288,.28919,144.5296,791.69779)">
					<path fill="#999999" d="M506.446-171.58c0,0,1.244-0.783,2.337-1.713c1.091-0.938,6.391-10.29,6.391-10.29l1.245,1.557
						c0,0-5.144,9.197-6.234,9.979c-1.091,0.779-2.652,1.867-2.652,1.867L506.446-171.58z"/>
					<path fill="#666666" d="M505.818-172.205c0,0,0.626-0.154,1.716-1.246c1.092-1.093,5.456-9.663,5.456-9.663l2.024-0.471
						c0,0-5.143,9.98-6.7,10.914c-1.557,0.938-2.028,1.246-2.028,1.246L505.818-172.205z"/>
				</g>
				<g transform="matrix(-.31452,-.92668,.75301,-.3767,486.99186,1104.3729)">
					<path fill="#999999" d="M901.244-125.826c0,0,1.099-0.668,2.058-1.476c0.961-0.815,5.606-8.904,5.606-8.904l1.108,1.356
						c0,0-4.508,7.96-5.471,8.631c-0.959,0.672-2.333,1.61-2.333,1.61L901.244-125.826z"/>
					<path fill="#666666" d="M900.617-126.434c0,0,0.531-0.109,1.439-0.915c0.903-0.807,4.433-7.203,4.433-7.203l1.717-0.317
						c0,0-4.159,7.44-5.47,8.123c-1.31,0.679-1.7,0.903-1.7,0.903L900.617-126.434z"/>
				</g>
				<g transform="matrix(.4041,.83471,.78402,-.40251,44.36263,60.46256)">
					<path fill="#999999" d="M285.464-61.941c0,0,1.245-0.778,2.337-1.713c1.095-0.937,6.393-10.286,6.393-10.286l1.245,1.559
						c0,0-5.144,9.194-6.234,9.976c-1.091,0.779-2.651,1.867-2.651,1.867L285.464-61.941z"/>
					<path fill="#666666" d="M284.844-62.563c0,0,0.622-0.157,1.714-1.248c1.091-1.09,5.456-9.663,5.456-9.663l2.026-0.469
						c0,0-5.143,9.976-6.703,10.913c-1.559,0.936-2.029,1.245-2.029,1.245L284.844-62.563z"/>
				</g>
				<g transform="matrix(.71533,.70724,.54609,-.8715,-47.60941,321.75139)">
					<path fill="#999999" d="M140.858,110.617c0,0,1.246-0.779,2.337-1.718c1.09-0.934,6.391-10.287,6.391-10.287l1.246,1.561
						c0,0-5.143,9.197-6.234,9.974c-1.092,0.78-2.651,1.872-2.651,1.872L140.858,110.617z"/>
					<path fill="#666666" d="M140.233,109.992c0,0,0.625-0.154,1.717-1.248c1.091-1.09,5.453-9.664,5.453-9.664l2.03-0.465
						c0,0-5.145,9.974-6.704,10.911c-1.56,0.935-2.029,1.242-2.029,1.242L140.233,109.992z"/>
				</g>
				<g transform="matrix(.94156,.35405,.14321,-1.01843,-23.08707,592.14854)">
					<path fill="#999999" d="M102.983,298.31c0,0,1.25-0.779,2.341-1.715c1.088-0.938,6.391-10.287,6.391-10.287l1.244,1.557
						c0,0-5.146,9.197-6.237,9.978c-1.09,0.779-2.651,1.869-2.651,1.869L102.983,298.31z"/>
					<path fill="#666666" d="M102.361,297.685c0,0,0.624-0.156,1.715-1.247c1.089-1.091,5.455-9.664,5.455-9.664l2.025-0.468
						c0,0-5.144,9.976-6.701,10.912c-1.56,0.933-2.027,1.244-2.027,1.244L102.361,297.685z"/>
				</g>
				<g transform="matrix(.85323,-.06367,-.25284,-.85107,188.09952,776.70993)">
					<path fill="#999999" d="M75.423,527.6c0,0,1.253-0.781,2.34-1.715c1.089-0.936,6.39-10.287,6.39-10.287l1.25,1.557
						c0,0-5.142,9.197-6.238,9.974c-1.088,0.782-2.648,1.873-2.648,1.873L75.423,527.6z"/>
					<path fill="#666666" d="M74.803,526.974c0,0,0.623-0.157,1.715-1.248c1.092-1.09,5.453-9.663,5.453-9.663l2.029-0.47
						c0,0-5.145,9.977-6.702,10.914c-1.557,0.933-2.027,1.246-2.027,1.246L74.803,526.974z"/>
				</g>
				<g transform="matrix(.67031,-.41814,-.62314,-.51407,446.03046,854.85449)">
					<path fill="#999999" d="M275.308,817.375c0,0,1.247-0.778,2.337-1.712c1.088-0.935,6.388-10.287,6.388-10.287l1.249,1.558
						c0,0-5.144,9.2-6.234,9.976c-1.089,0.78-2.652,1.872-2.652,1.872L275.308,817.375z"/>
					<path fill="#666666" d="M274.68,816.751c0,0,0.625-0.153,1.716-1.245c1.094-1.091,5.458-9.665,5.458-9.665l2.026-0.467
						c0,0-5.142,9.975-6.705,10.91c-1.556,0.935-2.03,1.247-2.03,1.247L274.68,816.751z"/>
				</g>
				<g transform="matrix(.75576,.46175,-.46752,.7436,333.27119,-174.47133)">
					<path fill="#999999" d="M90.561,600.799c0,0,1.247-0.778,2.34-1.718c1.09-0.935,6.388-10.286,6.388-10.286l1.248,1.561
						c0,0-5.145,9.195-6.235,9.973c-1.092,0.78-2.651,1.871-2.651,1.871L90.561,600.799z"/>
					<path fill="#666666" d="M89.939,600.178c0,0,0.621-0.157,1.713-1.249c1.092-1.09,5.458-9.663,5.458-9.663l2.025-0.472
						c0,0-5.145,9.978-6.705,10.915c-1.556,0.934-2.025,1.243-2.025,1.243L89.939,600.178z"/>
				</g>
				<g>
					<g>
						<g>
							<g>
								<defs>
									<path id="SVGID_7_" d="M122.137,316.931c0.176,4.284-3.043,8.112-7.188,8.545c-4.146,0.438-7.65-2.684-7.826-6.97
										c0-0.009-0.003-0.015-0.003-0.027c-0.176-4.285,3.039-8.112,7.189-8.548c4.148-0.434,7.648,2.684,7.827,6.97
										C122.134,316.912,122.139,316.922,122.137,316.931z"/>
								</defs>
								<clipPath id="SVGID_8_">
									<use xlink:href="#SVGID_7_"  overflow="visible"/>
								</clipPath>
								<g clip-path="url(#SVGID_8_)">
									<path fill="#808080" d="M121.994,316.976c0.168,4.323-2.938,8.159-6.945,8.573c-4.003,0.414-7.39-2.754-7.56-7.076
										c-0.171-4.321,2.937-8.16,6.941-8.576C118.437,309.486,121.819,312.655,121.994,316.976z"/>
								</g>
							</g>
						</g>
					</g>
				</g>
				<g>
					<path fill="#CCCCCC" d="M113.521,312.986c0.014,0.468-0.302,0.883-0.714,0.926c-0.414,0.043-0.766-0.303-0.784-0.771
						c-0.016-0.47,0.303-0.887,0.716-0.927C113.151,312.169,113.502,312.516,113.521,312.986z"/>
				</g>
				<g>
					<path fill="#808080" d="M119.431,320.955c0.02,0.469-0.304,0.884-0.719,0.929c-0.412,0.043-0.762-0.304-0.783-0.772
						c-0.018-0.471,0.302-0.886,0.717-0.928C119.062,320.139,119.408,320.485,119.431,320.955z"/>
				</g>
				<g>
					<path fill="#CCCCCC" d="M110.71,317.849c0.02,0.469-0.302,0.885-0.716,0.928c-0.412,0.041-0.763-0.304-0.781-0.774
						c-0.018-0.469,0.301-0.883,0.714-0.927C110.341,317.037,110.695,317.378,110.71,317.849z"/>
				</g>
				<g>
					<path fill="#CCCCCC" d="M119.3,313.788c0.018,0.468-0.302,0.885-0.714,0.925c-0.415,0.044-0.766-0.302-0.784-0.77
						c-0.018-0.468,0.302-0.886,0.716-0.927C118.933,312.975,119.281,313.319,119.3,313.788z"/>
				</g>
				<g>
					<path fill="#CCCCCC" d="M113.071,322.121c0.018,0.467-0.301,0.881-0.717,0.927c-0.414,0.043-0.76-0.305-0.781-0.773
						c-0.015-0.469,0.3-0.884,0.717-0.928C112.704,321.305,113.052,321.651,113.071,322.121z"/>
				</g>
				<path fill="#666666" d="M117.585,317.555c0.07,1.696-1.086,3.198-2.587,3.353c-1.495,0.154-2.763-1.099-2.83-2.794
					c-0.066-1.694,1.092-3.196,2.587-3.349C116.252,314.609,117.521,315.858,117.585,317.555z"/>
				<path fill="#999999" d="M117.815,317.47c0.063,1.696-1.093,3.199-2.589,3.351c-1.498,0.157-2.767-1.093-2.831-2.79
					c-0.067-1.696,1.091-3.198,2.585-3.351C116.481,314.525,117.748,315.774,117.815,317.47z"/>
				<path fill="#999999" d="M117.101,295.105c-0.623-0.001-1.253,0.046-1.853,0.136c8.337,1.242,14.833,10.765,14.832,22.316
					c0.001,11.552-6.494,21.074-14.831,22.318c0.604,0.088,1.228,0.135,1.854,0.132c9.211,0.001,16.682-10.054,16.683-22.45
					C133.783,305.161,126.31,295.104,117.101,295.105z"/>
				<path fill="#FFFFFF" d="M116.945,291.69c-10.674-0.001-19.325,11.508-19.325,25.711c0.001,14.204,8.651,25.712,19.323,25.714
					c10.678-0.003,19.331-11.51,19.33-25.714C136.273,303.199,127.622,291.691,116.945,291.69z M116.943,295.413
					c9.124,0,16.511,9.848,16.512,21.988c0,12.143-7.388,21.989-16.512,21.988c-9.125,0.001-16.529-9.846-16.529-21.989
					C100.416,305.259,107.82,295.413,116.943,295.413z"/>
			</g>
		</g>
		<g transform="matrix(1.77752,0,0,1.77752,-373.85447,-113.54619)">
			<path fill="#CCCCCC" d="M517.182,454.99c-1.185-0.004-2.365,0.005-3.549,0.019c-1.354,0.016-2.697,0.056-4.049,0.096
				c-16.408,0.488-48.994,5.092-48.994,5.092c-16.77,6.126-27.566,14.252-39.619,21.95c0,0-5.065,1.969-7.716,2.488
				c-5.292,1.04-16.145,1.235-16.145,1.235s-9.73-0.833-14.563-0.328c-8.574,0.897-16.109,2.737-24.4,6.384
				c-4.956,2.179-10.435,12.577-10.435,12.577s-1.553,2.783-1.872,4.32c-0.693,3.344,0,10.262,0,10.262s-1.327,2.366-1.562,3.683
				c-0.42,2.342-0.132,4.799,0.309,7.138c1.013,5.379,5.305,15.546,5.305,15.546l0.616,4.318
				c46.417,4.279,80.823,6.254,136.389,4.669c6.675-3.741,3.213-4.038,4.129-9.49c5.195-30.937,17.878-46.769,27.602-44.885
				c13.791,2.673,14.45,42.337,10.743,53.892l64.038-3.144c1.763-4.117,2.656-8.042,3.859-12.209l4.629-16.088
				c4.197-14.591,9.231-17.204,12.131-15.778c8.381,4.119,5.508,12.92,7.098,22.356c0,0,0.742-15.448-0.038-23.88
				c-0.415-4.494-1.796-9.264-5.189-12.518c-5.503-5.278-21.39-7.523-21.39-7.523s-7.022-7.67-10.629-11.419
				c-5.249-5.455-13.1-10.865-22.49-13.991c-6.25-2.079-12.809-2.428-19.348-3.233C533.815,455.52,525.486,455.022,517.182,454.99z
				 M508.809,458.114c9.852-0.053,18.857,0.395,28.086,1.35c-4.735,8.733-6.512,10.913-10.592,22.452l-102.807-0.135
				c12.848-8.342,26.359-17.336,40.776-20.967C482.07,459.079,496.145,458.181,508.809,458.114z M554.66,461.566
				c15.122-0.117,31.655,16.736,31.845,18.537l0.308,2.952c-8.616,4.476-30.549,2.575-49.108,2.816c0,0,7.082-22.264,12.326-23.686
				C551.544,461.773,553.095,461.579,554.66,461.566z"/>
			
				<linearGradient id="SVGID_9_" gradientUnits="userSpaceOnUse" x1="600.9161" y1="452.5709" x2="723.3105" y2="430.7222" gradientTransform="matrix(5.7691 0 0 5.7691 -3030.3132 -2128.6655)">
				<stop  offset="0" style="stop-color:#000000"/>
				<stop  offset="1" style="stop-color:#666666"/>
			</linearGradient>
			<path fill="url(#SVGID_9_)" stroke="#4D4D4D" stroke-width="3.1224" d="M465.375,461.447c30.977-2.993,50.446-3.426,71.096-1.308
				c-4.635,8.47-6.366,10.59-10.359,21.782l-100.653-0.125C438.036,473.704,451.26,464.968,465.375,461.447L465.375,461.447z"/>
			
				<linearGradient id="SVGID_10_" gradientUnits="userSpaceOnUse" x1="620.1879" y1="451.0843" x2="689.134" y2="475.6649" gradientTransform="matrix(5.7691 0 0 5.7691 -3030.3132 -2128.6655)">
				<stop  offset="0" style="stop-color:#808080"/>
				<stop  offset="1" style="stop-color:#000000"/>
			</linearGradient>
			<path fill="url(#SVGID_10_)" stroke="#333333" stroke-width="3.1671" d="M549.854,462.49
				c15.968-4.33,35.847,15.752,36.052,17.716l0.308,2.927c-8.516,4.424-30.188,2.535-48.534,2.773
				C537.682,485.907,544.672,463.895,549.854,462.49z"/>
		</g>
		<g>
			<line fill="none" stroke="#666666" stroke-width="3.2043" x1="251.391" y1="853.622" x2="417.635" y2="861.38"/>
		</g>
		<g>
			<path fill="#B3B3B3" d="M272.492,789.311c0,0,15.138-18.678,25.078-25.077c11.259-7.251,37.617-14.106,37.617-14.106
				c-23.081,8.481-43.253,21.324-57.992,42.317L272.492,789.311z"/>
		</g>
		<g transform="matrix(1.77752,0,.69831,1.08588,-769.01516,266.23125)">
			
				<linearGradient id="SVGID_11_" gradientUnits="userSpaceOnUse" x1="621.3718" y1="920.2147" x2="622.8976" y2="859.9445" gradientTransform="matrix(5.7691 0 1.2111 0.8034 -4265.2363 -259.1851)">
				<stop  offset="0" style="stop-color:#B3B3B3"/>
				<stop  offset="1" style="stop-color:#CCCCCC"/>
			</linearGradient>
			<path fill="url(#SVGID_11_)" d="M448.77,460.704c-3.478-0.443,10.724-13.228,14.082-14.236
				c12.664-3.807,12.12-6.463,33.948-1.322c6.524,1.537-12.931,14.598-19.501,15.921
				C471.414,462.249,463.256,462.553,448.77,460.704L448.77,460.704z"/>
			<g>
				<polygon fill="#FFFFFF" points="448.212,457.93 458.119,449.993 468.63,441.617 453.546,450.435 				"/>
			</g>
		</g>
		<path fill="#1A1A1A" stroke="#808080" stroke-width="1.8986" d="M411.202,838.056c3.056-1.895,6.472-2.892,5.488-14.89
			l-35.267-12.54l-10.58-6.66c-6.554-4.127-83.082-11.574-98.741,0l-9.014,6.66l-10.971,9.012c-2.612,4.18-2.612,9.535,0,13.715
			L411.202,838.056z"/>
		<path fill="none" stroke="#CCCCCC" stroke-width="3.888" stroke-linecap="round" d="M264.082,808.275l126.536,4.703"/>
		<path fill="none" stroke="#CCCCCC" stroke-width="4.4013" stroke-linecap="round" d="M251.486,830.22l162.153,4.702"/>
		<path fill="none" stroke="#CCCCCC" stroke-width="4.4936" stroke-linecap="round" d="M247.791,825.83l169.015,4.703"/>
		<path fill="none" stroke="#CCCCCC" stroke-width="3.7971" stroke-linecap="round" d="M267.007,799.499l120.686,4.703"/>
		<path fill="none" stroke="#CCCCCC" stroke-width="3.7971" stroke-linecap="round" d="M263.872,809.688v25.861"/>
		<path fill="none" stroke="#CCCCCC" stroke-width="4.5514" stroke-linecap="round" d="M279.231,798.392v37.157"/>
		<path fill="none" stroke="#CCCCCC" stroke-width="4.9087" stroke-linecap="round" d="M296.786,792.33v43.217"/>
		<path fill="none" stroke="#CCCCCC" stroke-width="4.9087" stroke-linecap="round" d="M320.922,792.33v43.217"/>
		<path fill="none" stroke="#CCCCCC" stroke-width="4.9087" stroke-linecap="round" d="M345.06,792.33v43.217"/>
		<path fill="none" stroke="#CCCCCC" stroke-width="4.5038" stroke-linecap="round" d="M364.809,799.166v36.382"/>
		<path fill="none" stroke="#CCCCCC" stroke-width="4.3116" stroke-linecap="round" d="M382.363,802.203v33.344"/>
		<path fill="none" stroke="#CCCCCC" stroke-width="3.3118" stroke-linecap="round" d="M399.918,815.874v19.674"/>
		<path fill="none" stroke="#CCCCCC" stroke-width="3.888" stroke-linecap="round" d="M264.082,803.888l126.536,4.703"/>
		<path fill="none" stroke="#CCCCCC" stroke-width="4.208" stroke-linecap="round" d="M252.998,812.664l148.222,4.704"/>
		<path fill="none" stroke="#CCCCCC" stroke-width="4.5008" stroke-linecap="round" d="M244.934,821.441l169.559,4.705"/>
		<path fill="none" stroke="#CCCCCC" stroke-width="4.5008" stroke-linecap="round" d="M244.934,817.053l169.559,4.704"/>
		<g>
			<path fill="#B3B3B3" d="M393.944,789c38.554-29.412,150.765-42.706,150.765-42.706l7.823,4.151c0,0-49.062,1.364-88.894,13.049
				c-51.477,15.101-64.715,30.842-64.715,30.842S389.363,792.495,393.944,789L393.944,789z"/>
		</g>
		<g>
			<polygon fill="#FFFFFF" points="466.843,843.385 501.324,837.899 505.244,826.928 448.819,825.362 			"/>
		</g>
		<path fill="none" stroke="#808080" stroke-width="1.8986" d="M240.518,793.387c15.733,6.411,22.946,2.17,30.562-1.566l8.62,1.566
			c1.973-13.089,98.39-9.741,116.768,0l10.187,1.569c9.982,1.358,32.723-0.054,42.318,3.918
			c10.905,4.515,14.256,23.477,26.645,23.51c9.484,0.025,30.368,1.226,30.368,1.226"/>
		<path fill="#1A1A1A" stroke="#333333" stroke-width="1.0681" d="M259.547,843.034c41.355,0.004,84.578,1.032,126.502,5.613
			c0.937,0.103,1.759,2.281,1.759,2.281l-0.583,10.421l-127.744-6.762l-0.976-9.342
			C258.507,845.246,258.753,843.034,259.547,843.034z"/>
		
			<radialGradient id="SVGID_12_" cx="1038.1161" cy="1224.8003" r="36.6841" gradientTransform="matrix(1.0272 0 0 0.5177 -617.6866 153.1982)" gradientUnits="userSpaceOnUse">
			<stop  offset="0" style="stop-color:#FFFFFF"/>
			<stop  offset="1" style="stop-color:#E6E6E6"/>
		</radialGradient>
		
			<linearGradient id="SVGID_13_" gradientUnits="userSpaceOnUse" x1="1122.3446" y1="1502.6938" x2="1254.6587" y2="1502.6938" gradientTransform="matrix(0.5779 0 0 0.5779 -238.1585 -81.1292)">
			<stop  offset="0" style="stop-color:#808080"/>
			<stop  offset="1" style="stop-color:#000000"/>
		</linearGradient>
		<path fill="url(#SVGID_12_)" stroke="url(#SVGID_13_)" stroke-width="4.8058" d="M486.348,787.126
			c0,10.406-8.684,18.842-19.396,18.842c-10.711,0-55.967,2.646-55.967-7.758c0-10.406,45.256-29.924,55.967-29.924
			C477.664,768.285,486.348,776.721,486.348,787.126L486.348,787.126z"/>
		
			<radialGradient id="SVGID_14_" cx="852.5526" cy="911.0561" r="18.4044" gradientTransform="matrix(1.0272 0 0 0.9986 -617.6866 -130.0755)" gradientUnits="userSpaceOnUse">
			<stop  offset="0" style="stop-color:#FFFFFF"/>
			<stop  offset="1" style="stop-color:#999999"/>
		</radialGradient>
		
			<linearGradient id="SVGID_15_" gradientUnits="userSpaceOnUse" x1="825.9501" y1="1489.5913" x2="891.3659" y2="1489.5913" gradientTransform="matrix(0.5779 0 0 0.5779 -238.1585 -81.1292)">
			<stop  offset="0" style="stop-color:#000000"/>
			<stop  offset="1" style="stop-color:#999999"/>
		</linearGradient>
		<path fill="url(#SVGID_14_)" stroke="url(#SVGID_15_)" stroke-width="3.2038" d="M249.961,773.313
			c-5.888,8.579-13.043,19.918-9.147,22.593c3.897,2.674,27.727,2.855,33.614-5.725c5.889-8.58-2.855-24.888-6.751-27.56
			C263.782,759.946,255.849,764.733,249.961,773.313z"/>
		<path fill="none" stroke="#B3B3B3" stroke-width="3.7971" d="M651.276,750.552c0,0,2.424,12.191,9.073,18.84
			c6.65,6.65,9.975,2.217,14.409,8.868c4.432,6.65-7.758,64.28-7.758,64.28"/>
		<path fill="none" stroke="#B3B3B3" stroke-width="3.7564" stroke-linecap="round" d="M570.891,848.081l116.057-6.65"/>
		<path fill="none" stroke="#B3B3B3" stroke-width="2.6505" stroke-linecap="round" stroke-linejoin="bevel" d="M593.851,844.735
			c3.755-30.954,15.377-71.426-12.189-92.009"/>
		<path fill="none" stroke="#333333" stroke-width="2.8478" d="M639.292,716.196c4.691,12.083,8.231,23.011,9.973,32.141"/>
		<path fill="#FFFFFF" stroke="#666666" stroke-width="4.0436" stroke-linecap="round" d="M464.885,843.328
			c0,5.646-5.812,10.227-12.981,10.227c-7.17,0-16.13-3.006-16.13-8.656c0-5.647,7.386-13.373,14.555-13.373
			C457.498,831.527,464.885,837.677,464.885,843.328z"/>
		<g opacity="0.3836" enable-background="new    ">
			<path fill="#333333" d="M454.949,807.003c0,0,32.087,17.616,12.854,17.166c-19.232-0.451-77.607-5.254-66.106-10.359
				C413.196,808.706,454.949,807.003,454.949,807.003L454.949,807.003z"/>
		</g>
		<g opacity="0.6983" enable-background="new    ">
			<path fill="#FFFFFF" d="M408.068,788.529c0,0-24.295,14.89-23.511,18.806c0.784,3.92,14.106,3.136,21.943,2.353
				s16.458-3.135,16.458-3.135s-3.135,1.567-11.755-3.919C402.582,797.148,408.067,788.529,408.068,788.529L408.068,788.529z"/>
		</g>
		<g opacity="0.3621" enable-background="new    ">
			<path fill="#1A1A1A" d="M444.9,868.529c0,0,0.784,6.736,14.891-5.778c14.105-12.516,7.837-17.329,7.837-17.329l32.132-6.736
				l-2.352,27.918c0,0,7.054,2.888,0.783,6.737C491.921,877.192,444.9,868.529,444.9,868.529z"/>
		</g>
		<g opacity="0.3276" enable-background="new    ">
			<path fill="#808080" d="M242.502,796.366c0,0-1.455,2.35,5.819,5.486c7.273,3.132,9.091,5.876,12.727,4.31
				c3.637-1.568,6.911-7.446,9.093-7.446s-3.273,8.229-8.365,10.58c-5.091,2.349-9.818,7.444-10.546,12.146
				c-0.728,4.705-5.818,8.623-8.729,5.487c-2.91-3.135-5.09-10.972-1.455-14.108c3.638-3.133,4.365-5.486,4.365-5.486
				L242.502,796.366z"/>
		</g>
		<g opacity="0.375" enable-background="new    ">
			<path fill="#808080" d="M604.932,868.584c0,0,12.191-9.976,22.721-13.3c10.527-3.323,60.401-7.756,60.401-7.756l-6.649,18.286
				L604.932,868.584z"/>
		</g>
		
			<linearGradient id="SVGID_16_" gradientUnits="userSpaceOnUse" x1="1463.9471" y1="1642.9126" x2="1556.0049" y2="1627.5699" gradientTransform="matrix(0.5779 0 0 0.5779 -238.1585 -81.1292)">
			<stop  offset="0" style="stop-color:#1A1A1A"/>
			<stop  offset="1" style="stop-color:#FFFFFF;stop-opacity:0"/>
		</linearGradient>
		<path opacity="0.4181" fill="url(#SVGID_16_)" enable-background="new    " d="M604.932,868.584c0,0,5.796-11.249,22.721-13.297
			c20.15-2.441,60.401-7.759,60.401-7.759l-6.649,18.287L604.932,868.584z"/>
		<path opacity="0.6881" fill="none" stroke="#1A1A1A" stroke-width="0.9317" enable-background="new    " d="M412.961,840.827
			c3.096-2.158,6.558-3.292,5.559-16.964l-35.737-14.285l-10.721-7.588c-6.642-4.702-84.198-13.188-100.065,0l-9.132,7.588
			l-11.119,10.269c-2.647,4.761-2.647,10.862,0,15.624L412.961,840.827z"/>
		<path fill="none" stroke="#808080" stroke-width="2.835" d="M412.693,840.973c3.108-2.213,6.583-3.374,5.58-17.381l-35.876-14.64
			l-10.763-7.775c-6.669-4.819-84.527-13.514-100.459,0l-9.168,7.775l-11.163,10.521c-2.659,4.877-2.659,11.13,0,16.012
			L412.693,840.973z"/>
		<g>
			<path fill="#FFFFFF" d="M301.265,768.285c0,0,1.107,1.107,15.516-7.758c14.407-8.866,21.058-8.866,21.058-8.866
				s28.815-3.326,19.949-1.108c-8.867,2.217-17.733,13.3-17.733,13.3L301.265,768.285z"/>
		</g>
		<g opacity="0.4828" enable-background="new    ">
			<path fill="#333333" d="M649.953,756.439c0,0-3.197,12.712,4.264,15.645c7.462,2.934,8.528,6.845,26.652-1.955
				c18.121-8.801,31.979-8.801,31.979-8.801s-17.056-5.867-33.048-3.911C663.263,759.44,649.953,756.439,649.953,756.439z"/>
			<path fill="none" stroke="#000000" stroke-width="1.0681" d="M649.953,756.439c0,0-3.197,12.712,4.264,15.645
				c7.462,2.934,8.528,6.845,26.652-1.955c18.121-8.801,31.979-8.801,31.979-8.801s-17.056-5.867-33.048-3.911
				C663.263,759.44,649.953,756.439,649.953,756.439z"/>
		</g>
		<g>
			<path fill="#FFFFFF" d="M658.132,767.097c0,0,5.818,6.728,4.71,35.225c-1.106,28.498-3.602,41.716-3.602,41.716
				c3.129-22.643,15.739-42.298,9.699-67.561L658.132,767.097z"/>
		</g>
		<g>
			<path fill="#FFFFFF" d="M466.4,768.285c0,0,33.249-6.651,48.764-8.867c15.519-2.217,68.714-4.434,68.714-4.434
				s-23.273,3.325-43.224,5.542c-19.947,2.216-67.604,7.759-67.604,7.759H466.4L466.4,768.285z"/>
		</g>
		<g opacity="0.2155" enable-background="new    ">
			<path d="M463.406,806.798c4.3,1.109,18.813-3.047,22.039-9.699c3.225-6.65-6.719-27.983-6.719-27.983s16.933-0.8,27.146-4.156
				c7.476-2.456,67.976-11.6,74.268-9.42c26.916,9.327,17.93,67.929,13.572,84.99c-4.355,17.062-17.379,2.012-17.379,2.012
				c1.068-14.089-12.87-102.706-51.076-59.848c-8.913,10-18.309,25.491-18.309,31.032s-8.154,6.339-16.663,8.034
				C475.906,824.62,460.862,808.548,463.406,806.798L463.406,806.798z"/>
		</g>
		<g>
			<path fill="#FFFFFF" d="M597.719,763.653c14.301-2.154,52.628,1.73,53.803,1.73c1.176,0-1.915-13.486-14.062-11.526
				c-12.146,1.96-41.729-1.394-47.605,0.958C588.245,755.88,595.809,763.938,597.719,763.653L597.719,763.653z"/>
		</g>
		<g opacity="0.2672" enable-background="new    ">
			<path fill="#666666" d="M600.487,763.704c14.304,2.156,52.629-1.729,53.804-1.729c1.178,0,6.398,30.664-5.75,28.704
				c-6.072-0.979-45.271,48.314-53.007,54.089c-3.252,2.432,12.061-67.039-2.912-72.224
				C591.016,771.477,598.579,763.419,600.487,763.704L600.487,763.704z"/>
		</g>
		<g opacity="0.8578" enable-background="new    ">
			<path fill="#FFFFFF" d="M483.454,790.571c0,4.841-3.761,8.766-8.399,8.766c-4.639,0-10.437-2.576-10.437-7.417
				c0-4.842,4.778-11.465,9.418-11.465C478.675,780.456,483.454,785.73,483.454,790.571L483.454,790.571z"/>
			<path fill="none" stroke="#666666" stroke-width="2.2749" stroke-linecap="round" d="M483.454,790.571
				c0,4.841-3.761,8.766-8.399,8.766c-4.639,0-10.437-2.576-10.437-7.417c0-4.842,4.778-11.465,9.418-11.465
				C478.675,780.456,483.454,785.73,483.454,790.571L483.454,790.571z"/>
		</g>
		<g>
			<path fill="#FFFFFF" d="M461.605,795.671c0,5.65-5.813,10.228-12.983,10.228c-7.171,0-16.13-3.005-16.13-8.654
				c0-5.65,7.386-13.377,14.556-13.377C454.218,783.868,461.605,790.022,461.605,795.671L461.605,795.671z"/>
			<path fill="none" stroke="#666666" stroke-width="2.2749" stroke-linecap="round" d="M461.605,795.671
				c0,5.65-5.813,10.228-12.983,10.228c-7.171,0-16.13-3.005-16.13-8.654c0-5.65,7.386-13.377,14.556-13.377
				C454.218,783.868,461.605,790.022,461.605,795.671L461.605,795.671z"/>
		</g>
		<g>
			<path fill="#FFFFFF" d="M270.98,786.805c0,5.649-5.812,10.229-12.982,10.229c-7.17,0-16.13-3.006-16.13-8.656
				c0-5.648,7.385-13.376,14.556-13.376C263.594,775.002,270.98,781.155,270.98,786.805z"/>
			<path fill="none" stroke="#666666" stroke-width="2.2749" stroke-linecap="round" d="M270.98,786.805
				c0,5.649-5.812,10.229-12.982,10.229c-7.17,0-16.13-3.006-16.13-8.656c0-5.648,7.385-13.376,14.556-13.376
				C263.594,775.002,270.98,781.155,270.98,786.805z"/>
		</g>
		<g>
			<path fill="#FFFFFF" d="M465.367,843.235c0,4.998-5.545,9.05-12.384,9.05s-15.386-2.659-15.386-7.659
				c0-4.996,7.045-11.835,13.887-11.835C458.323,832.79,465.367,838.236,465.367,843.235L465.367,843.235z"/>
			<path fill="none" stroke="#666666" stroke-width="2.2749" stroke-linecap="round" d="M465.367,843.235
				c0,4.998-5.545,9.05-12.384,9.05s-15.386-2.659-15.386-7.659c0-4.996,7.045-11.835,13.887-11.835
				C458.323,832.79,465.367,838.236,465.367,843.235L465.367,843.235z"/>
		</g>
		<g>
			<path fill="#FFFFFF" d="M389.928,740.885c0,0,32.984-21.187,61.973-28.667c28.991-7.481,118.547-4.529,118.547-4.529
				c-25.648-0.394-82.399,23.056-127.52,31.44C438.314,739.877,389.928,740.885,389.928,740.885z"/>
		</g>
		<g>
			<path fill="#FFFFFF" d="M616.269,713.768c0,0-5.613-5.612-10.287,1.87c-4.677,7.48,0,11.221-6.546,16.832
				c-6.547,5.61-8.417,10.286-4.676,10.286c3.739,0,20.572-1.87,20.572-1.87l15.897,0.936L616.269,713.768z"/>
		</g>
		<g>
			<path fill="#FFFFFF" d="M483.475,782.028c7.52,11.126,3.087,19.637-16.832,24.314c-22.123,5.192-54.237,6.88-54.237-6.547
				c0-13.429,25.903-31.796,48.627-31.796C483.759,768.001,476.931,772.341,483.475,782.028z"/>
		</g>
		<g>
			<path fill="#FFFFFF" d="M275.88,781.564c0,8.521-7.537,15.429-16.832,15.429c-9.295,0-18.703,1.508-18.703-7.013
				c0-8.521,15.019-29.457,24.314-29.457C273.954,760.524,275.88,773.043,275.88,781.564z"/>
		</g>
		<g opacity="0.7284" enable-background="new    ">
			<path fill="#808080" d="M403.525,766.602c0,0,26.184-12.625,32.731-14.963c6.545-2.338,33.664-5.609,33.664-5.609
				C442.322,755.165,416.378,763.61,403.525,766.602L403.525,766.602z"/>
		</g>
	</g>
	<path fill="#CCCCCC" d="M735.509,766.333c-19.224,0-39.303,29.615-43.88,66.141c-0.93,7.415-3.113,10.545-2.845,17.189
		c0.054-5.103,2-6.489,2.922-11.944c6.31-37.375,24.505-67.682,43.61-67.682c17.211,0,25.548,29.895,25.678,60.771
		C764.148,796.918,753.735,766.333,735.509,766.333L735.509,766.333z"/>
	<g>
		<path fill="none" stroke="#000000" stroke-width="1.6021" d="M771.333,744.681c43.358,4.101,64.327,4.207,87.729-4.227"/>
	</g>
	<g opacity="0.6509" enable-background="new    ">
		<path fill="#1A1A1A" d="M799.819,744.458c0,0-1.699,3.665-7.924-7.067c-6.226-10.731-8.303-19.107-8.303-19.107
			s-10,31.41-9.055,31.671c0.943,0.263,16.225,0.523,17.733,0.523C793.78,750.479,799.819,744.458,799.819,744.458L799.819,744.458z
			"/>
	</g>
	<g transform="matrix(1.05852,0,0,1.05852,-60.88976,-56.96663)">
		<path fill="#CCCCCC" d="M808.098,751.488c0,0,3.961-8.283,7.799-10.14c7.961-3.847,23.396-2.34,26.518,0.39
			c3.119,2.729,5.069,14.817,1.56,15.597c-3.509,0.78-21.836,4.679-28.078,3.899C809.659,760.456,808.098,751.488,808.098,751.488z"
			/>
		<g opacity="0.4612" enable-background="new    ">
			<path fill="#1A1A1A" d="M809.301,752.006c0,0,1.544,6.833,3.528,7.495c1.984,0.662,0.882,0.662,5.07,0.662
				c4.189,0,24.909-2.425,25.57-3.528c0.66-1.102,2.204-3.968,1.543-5.732c-0.661-1.764-0.661-2.425-0.661-2.425L809.301,752.006z"
				/>
		</g>
		<g>
			<path fill="#999999" d="M808.861,751.345c-0.103-0.069,3.84-6.503,7.274-8.598c4.615-2.814,12.77-4.42,22.264-1.984
				c4.397,1.13,5.746,4.393,5.07,6.613C843.691,748.479,808.861,751.345,808.861,751.345L808.861,751.345z"/>
		</g>
		<g>
			<path fill="#FFFFFF" d="M819.662,750.904c8.023-1.247,18.527-0.407,23.843-3.528c0,0,1.267,0.662,0.194,1.543
				C842.624,749.801,819.662,750.904,819.662,750.904z"/>
		</g>
		<g opacity="0.5991" enable-background="new    ">
			<path fill="#1A1A1A" d="M810.146,752.359c0,0-2.941-0.858,1.236-1.18c5.868-0.452,27.187-1.434,23.711-0.842L810.146,752.359z"/>
		</g>
		<g opacity="0.3405" enable-background="new    ">
			<path fill="#4D4D4D" d="M808.861,752.227c0,0,0.221-0.441,3.086,0.22c2.866,0.662,13.888,5.952,18.737,5.291
				c4.852-0.661,12.124-0.22,12.124-0.22s-26.214,5.766-29.318,3.085C808.64,756.415,808.861,752.227,808.861,752.227
				L808.861,752.227z"/>
		</g>
		<path fill="#333333" d="M808.253,751.606c0,0-2.884,1.052-3.273,2.612c-0.389,1.559,1.168,1.949-0.779,3.898
			c-1.951,1.95-6.185,4.731-6.185,4.731s-5.359,2.264,0.489,3.824c5.851,1.56,7.256-0.755,7.256-0.755s-2.341,0,1.17-3.509
			c3.509-3.509,6.357-2.51,6.357-2.51C812.35,757.274,811.963,754.505,808.253,751.606L808.253,751.606z"/>
		<g>
			<path fill="#999999" d="M805.333,756.194c0,0,2.205,2.756,3.638,2.976c1.432,0.221,1.341-0.687-1.103-1.653
				c-2.227-0.881-2.327-4.168-2.315-4.189L805.333,756.194z"/>
		</g>
		<g>
			<path d="M805.553,757.519c-0.108,0.441-0.085,0.384-0.991,1.873c-1.495,2.454,2.996,1.532,3.747,1.432
				c0.544-0.074,1.543-0.661,1.543-0.661s-0.662-0.111-1.766-0.993C806.987,758.29,805.553,757.519,805.553,757.519z"/>
		</g>
		<g>
			<path d="M808.289,752.269c0,0-0.455-1.158,0.546-0.386c1.004,0.772,2.919,2.605,3.01,3.667c0.092,1.062,1.094,2.799,1.094,3.185
				c0,0.386-0.272,1.351-0.729,0.386c-0.457-0.965-0.73-3.281-1.459-4.344C810.02,753.715,808.289,752.269,808.289,752.269z"/>
		</g>
		<g>
			<path fill="#FFFFFF" d="M808.861,750.904c1.984-3.528,2.556-2.989,5.732-5.952c2.303-2.148,3.748-2.424,6.833-2.866
				c3.087-0.441,10.139-1.543,13.889-0.661c3.746,0.882,6.391,1.322,7.494,2.866s0.884,2.646,0.884,2.646s0.221-2.646-0.443-3.967
				c-0.661-1.323-2.449-1.615-4.188-2.205c-5.915-2.011-13.573-2.009-19.619-0.44c-2.866,0.744-4.798,2.257-6.833,4.409
				C810.802,746.642,808.861,750.904,808.861,750.904L808.861,750.904z"/>
		</g>
	</g>
	<path fill="#333333" d="M763.661,764.831l9.76-0.531c2.919-0.16,5.918,1.995,6.7,4.812l0,0l1.089,3.921
		c0.78,2.816-0.951,5.228-3.868,5.387l0,0l-9.762,0.531c-2.917,0.16-5.915-1.995-6.698-4.812l0,0l-1.089-3.922
		C759.009,767.405,760.742,764.991,763.661,764.831L763.661,764.831"/>
	<path fill="#B3B3B3" d="M758.224,771.733l23.464-2.402c0.545-0.057,1.033,0.34,1.089,0.886s-0.341,1.033-0.888,1.088l-23.463,2.402
		c-0.546,0.057-1.033-0.34-1.088-0.886C757.283,772.275,757.679,771.788,758.224,771.733"/>
	<g transform="matrix(.99972,-.0235,.18068,.99603,315.77359,572.13037)">
		<path fill="none" stroke="#666666" stroke-width="1.0681" d="M482.079,203.535l8.87-0.001c1.257-0.001,2.281,1.021,2.28,2.278l0,0
			l-0.002,6.723c-0.001,1.258-1.019,2.279-2.278,2.278l0,0l-8.871,0.001c-1.258,0.001-2.278-1.02-2.278-2.279l0,0l-0.002-6.722
			C479.802,204.555,480.821,203.536,482.079,203.535L482.079,203.535"/>
		<path fill="none" stroke="#666666" stroke-width="1.2613" d="M483.199,204.958l6.632,0c0.943-0.001,1.706,0.764,1.705,1.704
			l0.001,5.027c0,0.941-0.763,1.704-1.703,1.705l-6.636,0.001c-0.94-0.002-1.702-0.763-1.703-1.705l0-5.027
			C481.493,205.72,482.254,204.957,483.199,204.958"/>
		<path fill="#333333" stroke="#666666" stroke-width="1.0681" stroke-linecap="round" stroke-linejoin="bevel" d="M481.758,208.747
			l9.432,0c0.235-0.001,0.427,0.191,0.428,0.428l0.003,3.741c-0.002,0.236-0.192,0.429-0.43,0.429l-9.43,0
			c-0.238,0-0.43-0.193-0.429-0.429l-0.001-3.741C481.33,208.938,481.522,208.746,481.758,208.747"/>
	</g>
	<g>
		<path fill="#FFFFFF" d="M774.364,697.143c1.87-2.494-18.393-2.494-18.393-2.494s4.985-0.623,9.663-0.311
			c6.346,0.423,13.135-1.422,11.535,2.181c-1.659,3.741-25.997,45.516-24.938,45.516
			C757.992,727.492,763.314,714.427,774.364,697.143L774.364,697.143z"/>
	</g>
	<g opacity="0.9009" enable-background="new    ">
		<path fill="none" stroke="#FFFFFF" stroke-width="2.1362" d="M776.859,725.202c3.86-8.112,3.284-14.451,14.65-25.565"/>
	</g>
	<g opacity="0.9009" enable-background="new    ">
		<line fill="none" stroke="#666666" stroke-width="2.1362" x1="769.063" y1="745.154" x2="779.663" y2="717.407"/>
	</g>
	<g>
		<path fill="none" stroke="#FFFFFF" stroke-width="2.1362" d="M793.068,700.261c26.561-5.21,47.672,12.598,66.718,31.799"/>
	</g>
	<path fill="#E6E6E6" d="M888.104,803.153c0,0,4.571-13.208,6.612-15.981c2.757-3.748,5.161-7.568,11.245-7.717
		c5.038-0.122,8.816,5.07,9.699,7.274c0.88,2.205,3.415,8.707,3.415,8.707s-2.164-7.413-7.275-11.792
		c-5.399-4.629-11.617-1.078-13.888,1.212C892.518,790.296,888.995,801.058,888.104,803.153L888.104,803.153z"/>
</g>
<g transform="matrix(.55983,.027,0,.55983,139.65854,394.16076)">
	<g>
		<path fill="#999999" d="M88.721-253.229l142.114,0c0.2,0.004,0.364,0.167,0.364,0.364v40.714c0,0.201-0.165,0.367-0.364,0.365
			l-142.114,0c-0.201,0.001-0.365-0.162-0.365-0.368l0,0v-40.709C88.356-253.066,88.519-253.226,88.721-253.229L88.721-253.229"/>
	</g>
	<text transform="matrix(1.7863 0 0 1.7863 98.4205 -223.6807)" fill="#1A1A1A" font-family="'Arial-BoldMT'" font-size="13.8228">             </text>
	<text transform="matrix(1.7863 0 0 1.7863 98.4205 -223.6807)" fill="#1A1A1A" font-family="'Arial-BoldMT'" font-size="13.8228">TS 371 SG </text>
	<text transform="matrix(1.7863 0 0 1.7863 227.413 -223.6796)" fill="#1A1A1A" font-family="'Arial-BoldMT'" font-size="13.8228">           </text>
</g>
<g>
	<path fill="none" stroke="#000000" stroke-width="1.0681" d="M453.147,225.81c19.416-2.219,22.181,44.906,0.885,61.279"/>
</g>
<g>
	<path fill="none" stroke="#CCCCCC" stroke-width="1.0681" d="M452.488,226.249c-10.662,2.9-22.068,41.689-2.204,60.622"/>
</g>
<g opacity="0.3233" enable-background="new    ">
	<path fill="#F9F9F9" d="M428.384,256.743c0,0,8.477-35.037,11.535-41.151c2.806-5.612,8.732-11.223,12.159-11.223
		c3.429,0,7.48,0,9.976,3.118c2.494,3.118,0.622,1.247-4.677-1.247c-5.3-2.495-14.075,10.699-16.522,13.404
		C434.932,226.191,428.384,256.743,428.384,256.743z"/>
</g>
<g>
	<path d="M428.076,273.268c0,0,7.334,21.033,13.403,30.239c6.461,9.796,18.082,1.869,18.082,1.869s-10.669,6.965-15.589,4.676
		C431.862,304.416,428.076,273.268,428.076,273.268L428.076,273.268z"/>
</g>
</svg>
