<svg version="1.1" id="Layer_1" xmlns="http://www.w3.org/2000/svg" xmlns:xlink="http://www.w3.org/1999/xlink" viewBox="0 0 768 430" enable-background="new 0 0 768 430" xml:space="preserve">
<g>
	<g>
		
			<radialGradient id="path1291_1_" cx="570.166" cy="171.6792" r="117.0556" gradientTransform="matrix(0.9683 -0.215 -0.2965 -1.3353 -120.7681 432.5625)" gradientUnits="userSpaceOnUse">
			<stop  offset="0" style="stop-color:#FF6F34"/>
			<stop  offset="1" style="stop-color:#FF0016"/>
		</radialGradient>
		<path id="path1291" opacity="0.75" fill="url(#path1291_1_)" enable-background="new    " d="M470.093,127.463
			c14.055,63.288-24.077,155.729-61.85,165.152c-36.785,9.206-111.884-60.163-125.938-123.451S298.91,45.171,350.742,33.662
			c51.832-11.51,105.301,30.513,119.354,93.802H470.093z"/>
		
			<radialGradient id="path2063_1_" cx="575.9072" cy="151.7041" r="131.9946" gradientTransform="matrix(0.9683 -0.215 -0.2965 -1.3353 -120.7681 432.5625)" gradientUnits="userSpaceOnUse">
			<stop  offset="0" style="stop-color:#5F0000;stop-opacity:0"/>
			<stop  offset="0.5" style="stop-color:#FF0000;stop-opacity:0"/>
			<stop  offset="1" style="stop-color:#860000"/>
		</radialGradient>
		<path id="path2063" fill="url(#path2063_1_)" d="M470.093,127.463c14.055,63.288-24.077,155.729-61.85,165.152
			c-36.785,9.206-111.884-60.163-125.938-123.451S298.91,45.171,350.742,33.662c51.832-11.51,105.301,30.513,119.354,93.802H470.093
			z"/>
	</g>
	
		<linearGradient id="path2075_1_" gradientUnits="userSpaceOnUse" x1="1.7622" y1="430.7305" x2="1.763" y2="430.357" gradientTransform="matrix(491.1593 0 0 -347.1483 -495 149563.25)">
		<stop  offset="0" style="stop-color:#FFFFFF"/>
		<stop  offset="1" style="stop-color:#FFFFFF;stop-opacity:0"/>
	</linearGradient>
	<path id="path2075" opacity="0.6" fill="url(#path2075_1_)" enable-background="new    " d="M332.833,51.12
		c-4.308,0.044-12.94,7.003-16.255,10.869c-6.815,7.949-10.927,13.342-14.828,21.961c-5.988,13.232,1.621,13.85,11.64,5.712
		c7.654-6.217-4.557,12.616-5.604,16.8c-1.748,6.989-8.846,11.251-12.191,15.153c-3.49,4.07-2.568,11.77-9.776,16.69
		c-7.866,5.37,6.469,8.262,10.541,10.105c6.506,2.945-3.813,16.489,9.882,7.139c8.076-5.513,5.943-11.179,11.311-0.438
		c1.771,3.542,16.864-13.158,17.573-14.273c0.829-1.303-1.366-20.162-1.645-21.414c-0.006-0.025,4.628-6.777,10.214-5.379
		c8.664,2.167,5.932,10.191,13.727,1.1c3.96-4.619,9.151,17.859,9.332,18.67c2.583,11.634,17.288-1.725,22.073,1.321
		c5.109,3.253,3.219,13.931,9.111,17.683c4.648,2.958,15.336-10.76,16.804-13.065c4.804-7.547,0.244-8.332,13.507,0.111
		c9.342,5.947,7.94-11.33,20.646-0.436c7.732,6.63,2.399-7.114,2.528-11.97c0.216-8.193-4.232-20.266-7.135-27.455
		c-1.642-4.068,15.725,5.713,12.958,2.308c-5.045-6.211-11.585-11.391-16.25-17.134c-6.044-7.44-8.648-12.359-12.955-20.977
		c-3.721-7.446-2.106-8.979-8.015-12.74c-6.237-3.971-11.923,6.353-15.923-1.649c-2.781-5.566-13.419,3.339-18.668-0.003
		c-1.479-0.941-5.903-11.575-7.026-12.959c-2.474-3.046-15.075,1.273-19.219,2.193l-3.953,0.878
		c-4.534,1.007-10.139,1.214-15.045,2.304C339.835,42.305,335.747,49.131,332.833,51.12L332.833,51.12z"/>
	<g>
		
			<radialGradient id="path2085_1_" cx="710.0078" cy="68.3086" r="33.4102" gradientTransform="matrix(0.4142 -0.092 -0.092 -0.4142 91.2883 170.7417)" gradientUnits="userSpaceOnUse">
			<stop  offset="0" style="stop-color:#FFFFFF"/>
			<stop  offset="1" style="stop-color:#FFFFFF;stop-opacity:0"/>
		</radialGradient>
		<path id="path2085" fill="url(#path2085_1_)" d="M392.9,74.08c1.696,7.642-3.123,15.213-10.765,16.91
			c-7.642,1.697-15.213-3.122-16.91-10.765c-1.697-7.642,3.122-15.213,10.764-16.91C383.632,61.618,391.203,66.438,392.9,74.08z"/>
		
			<radialGradient id="path2095_1_" cx="546.2969" cy="132.5908" r="33.4111" gradientTransform="matrix(1.1833 -0.2628 -0.2628 -1.1833 -232.5298 377.5986)" gradientUnits="userSpaceOnUse">
			<stop  offset="0" style="stop-color:#FFFFFF"/>
			<stop  offset="1" style="stop-color:#FFFFFF;stop-opacity:0"/>
		</radialGradient>
		<path id="path2095" opacity="0.6" fill="url(#path2095_1_)" enable-background="new    " d="M418.598,68.375
			c4.85,21.835-8.921,43.466-30.756,48.314s-43.466-8.921-48.315-30.756c-4.849-21.834,8.922-43.466,30.756-48.314
			C392.118,32.77,413.749,46.54,418.598,68.375z"/>
		
			<linearGradient id="path2125_1_" gradientUnits="userSpaceOnUse" x1="0.9609" y1="430.8838" x2="2.0498" y2="430.6084" gradientTransform="matrix(548.0089 0 0 -738.4507 -565 318204)">
			<stop  offset="0" style="stop-color:#5F0000;stop-opacity:0"/>
			<stop  offset="0.5" style="stop-color:#FF0000;stop-opacity:0"/>
			<stop  offset="1" style="stop-color:#860000"/>
		</linearGradient>
		<path id="path2125" opacity="0.4" fill="url(#path2125_1_)" enable-background="new    " d="M350.738,33.665
			c-51.832,11.509-82.494,72.207-68.44,135.495c14.054,63.289,89.16,132.661,125.945,123.455
			c37.774-9.425,75.907-101.871,61.854-165.159S402.57,22.155,350.738,33.665L350.738,33.665z M348.88,35.563
			c1.843-0.569,3.913-0.861,6.254-0.799c6.863,0.182,11.575,9.396,13.498,9.446c7.257,0.192,10.886-6.845,16.149-6.706
			c6.584,0.174,7.508,3.09,11.638,5.719c3.835,2.441,8.606,7.168,13.727,10.428c4.195,2.67,11.593,8.505,16.691,9.781
			c4.787,1.198,11.234,3.899,12.296,8.681c2.244,10.105-5.12,7.574-5.279,13.616c-0.22,8.301,14.768,5.768,17.023,15.923
			c2.331,10.5-10.92,14.644-7.803,16.252c0.062,0.033,25.584,21.803,10.983,21.417c-8.174-0.217-24.019-12.227-26.47-2.426
			c-0.891,3.562-9.164,21.762-15.598,13.844c-13.774-16.959-6.07,2.778-24.377,2.293c-6.03-0.16-5.228-6.75-5.052-13.398
			c0.734-27.743-19.351-4.065-19.546-13.287c-0.588-27.825,2.331-3.595-6.253-14.164c-5.171-6.367-9.076-13.031-18.449-8.347
			c-14.451,7.223-2.27,10.445-1.755,20.093c0.479,8.971-11.25,7.695-6.263,13.834c1.674,2.062,10.943,18.848,7.907,16.916
			c-1.207-0.769-2.425-1.543-3.632-2.313c-13.021-8.289-13.125,15.46-23.055-1.096c-7.72-12.872-7.442,7.39-17.796,13.288
			c-3.96,11.875-5.447,3.462-6.803-2.641c-1.225-5.515-0.175-10.137-1.534-16.255c-2.216-9.98,5.588-7.453,10.209-14.711
			c2.688-4.224,12.848-10.789,3.301-13.177c-5.014-1.254-13.292,2.315-7.032-3.623c4.025-3.817,21.175-17.855,13.185-24.707
			c-4.5-3.858-17.597-14.764-2.968-18.012c13.057-2.9,16.296-3.208,16.583-14.05c0.234-8.83,13.494-3.86,18.236-11.31
			C339.833,41.464,343.352,37.269,348.88,35.563L348.88,35.563z"/>
		
			<radialGradient id="path2099_1_" cx="758.2646" cy="7.5034" r="62.1681" gradientTransform="matrix(0.7016 -0.4618 -0.6546 -0.9945 -158.9604 565.7539)" gradientUnits="userSpaceOnUse">
			<stop  offset="0" style="stop-color:#FFFFFF"/>
			<stop  offset="1" style="stop-color:#FFFFFF;stop-opacity:0"/>
		</radialGradient>
		<path id="path2099" opacity="0.53" fill="url(#path2099_1_)" enable-background="new    " d="M414.526,172.077
			c12.472,38.067,0.81,83.256-26.047,100.933c-26.856,17.678-58.738,1.148-71.21-36.918c-12.472-38.067-0.81-83.257,26.046-100.934
			C370.173,117.481,402.055,134.01,414.526,172.077L414.526,172.077z"/>
		
			<radialGradient id="path2109_1_" cx="945.6201" cy="151.3174" r="62.1683" gradientTransform="matrix(0.4181 -0.2752 -0.3667 -0.5571 42.5334 574.167)" gradientUnits="userSpaceOnUse">
			<stop  offset="0" style="stop-color:#FFFFFF"/>
			<stop  offset="1" style="stop-color:#FFFFFF;stop-opacity:0"/>
		</radialGradient>
		<path id="path2109" opacity="0.3" fill="url(#path2109_1_)" enable-background="new    " d="M410.188,208.268
			c7.907,21.326,1.342,47.154-14.664,57.688c-16.006,10.536-35.391,1.787-43.298-19.539c-7.907-21.325-1.341-47.154,14.665-57.689
			S402.282,186.941,410.188,208.268L410.188,208.268z"/>
	</g>
	
		<linearGradient id="path2158_1_" gradientUnits="userSpaceOnUse" x1="1.7593" y1="430.9336" x2="1.6853" y2="431.3925" gradientTransform="matrix(435.3686 0 0 -357.3275 -346.75 154303.25)">
		<stop  offset="0" style="stop-color:#000000"/>
		<stop  offset="1" style="stop-color:#000000;stop-opacity:0"/>
	</linearGradient>
	<path id="path2158" opacity="0.1" fill="url(#path2158_1_)" enable-background="new    " d="M351.249,256.637
		c-6.498-8.597-21.604-23.628-29.968-35.878c-4.737-6.938-8.242-17.936,0.468-17.705c13.207,0.35,11.681,21.114,11.183-2.483
		c-0.032-1.515,10.268,15.92,19.413,1.556c7.261-11.407,9.775,17.6,11.178,23.918c0.546,2.458,12.73,4.51,17.705,0.469
		c12.507-10.159,2.457,12.18,2.327,17.083c-0.315,11.929,25.926-14.743,27.18-16.302c11.681-14.517,18.018-3.794,25.783-15.992
		c8.152-12.807,17.149-23.168,23.455-33.076c4.997-7.849-8.153-11.065,3.575-16.927c8.88-4.438,7.725,16.146,5.743,19.258
		c-4.833,7.592-13.681,5.023-13.979,16.305c-0.187,7.058-0.312,11.806,1.55,20.189c1.663,7.488-7.258,18.942-10.72,24.381
		c-4.9,7.697-1.236,10.711-11.185,15.684c-6.823,3.411-7.723,17.822-13.979,16.305c-4.862,3.95-12.829,9.596-16.309,12.422
		c-6.507,5.285-13.911-5.711-24.227-3.42c-7.786,1.729-16.24-3.363-20.654-7.147C355.536,271.63,352.435,261.978,351.249,256.637
		L351.249,256.637z"/>
	<g>
		
			<radialGradient id="path2180_1_" cx="552.9551" cy="98.4336" r="127.4023" gradientTransform="matrix(0.9683 -0.215 -0.2965 -1.3353 -120.7681 432.5625)" gradientUnits="userSpaceOnUse">
			<stop  offset="0" style="stop-color:#650000;stop-opacity:0"/>
			<stop  offset="0.5" style="stop-color:#7B0000;stop-opacity:0"/>
			<stop  offset="0.75" style="stop-color:#760000;stop-opacity:0"/>
			<stop  offset="1" style="stop-color:#770000"/>
		</radialGradient>
		<path id="path2180" fill="url(#path2180_1_)" d="M470.093,127.463c14.055,63.288-24.077,155.729-61.85,165.152
			c-36.785,9.206-111.884-60.163-125.938-123.451S298.91,45.171,350.742,33.662c51.832-11.51,105.301,30.513,119.354,93.802H470.093
			z"/>
		
			<radialGradient id="path2171_1_" cx="377.1826" cy="126.4277" r="11.6417" gradientTransform="matrix(1.3309 -0.2056 -0.1026 -0.4716 -84.4707 424.3262)" gradientUnits="userSpaceOnUse">
			<stop  offset="0" style="stop-color:#000000"/>
			<stop  offset="1" style="stop-color:#000000;stop-opacity:0"/>
		</radialGradient>
		<path id="path2171" opacity="0.3" fill="url(#path2171_1_)" enable-background="new    " d="M420.029,284.772
			c3.728,3.03-0.182,6.557-8.732,7.877c-8.55,1.321-18.503-0.064-22.229-3.094l0,0c-3.728-3.029,0.182-6.556,8.732-7.877
			C406.35,280.358,416.302,281.744,420.029,284.772z"/>
	</g>
	
		<linearGradient id="path1354_1_" gradientUnits="userSpaceOnUse" x1="2.5107" y1="438.7861" x2="2.4684" y2="438.4269" gradientTransform="matrix(69.7404 0 0 -46.9258 231.4375 20877.3438)">
		<stop  offset="0" style="stop-color:#FF6F34"/>
		<stop  offset="1" style="stop-color:#FF0016"/>
	</linearGradient>
	<path id="path1354" fill="url(#path1354_1_)" d="M404.257,287.778c-2.104,1.292-5.46,6.133-6.443,8.591
		c-0.547,1.367-3.222,1.789-4.653,2.506c-2.816,1.408-1.325,3.938,1.432,3.938c3.672,0,7.185,0.005,10.739,0.716
		c2.681,0.536,5.469,0.357,8.233,0.357c2.814,0,3.181-1.869,2.506-3.222c-0.615-1.229-3.883-2.753-4.654-4.295
		c-0.731-1.464-0.672-6.5-2.506-7.875C408.775,288.394,406.53,286.381,404.257,287.778L404.257,287.778z"/>
	
		<linearGradient id="path2124_1_" gradientUnits="userSpaceOnUse" x1="2.4653" y1="438.4189" x2="2.4779" y2="438.5092" gradientTransform="matrix(69.7404 0 0 -46.9258 231.4375 20877.3438)">
		<stop  offset="0" style="stop-color:#000000"/>
		<stop  offset="1" style="stop-color:#000000;stop-opacity:0"/>
	</linearGradient>
	<path id="path2124" fill="url(#path2124_1_)" d="M404.257,287.778c-2.104,1.292-5.46,6.133-6.443,8.591
		c-0.547,1.367-3.222,1.789-4.653,2.506c-2.816,1.408-1.325,3.938,1.432,3.938c3.672,0,7.185,0.005,10.739,0.716
		c2.681,0.536,5.469,0.357,8.233,0.357c2.814,0,3.181-1.869,2.506-3.222c-0.615-1.229-3.883-2.753-4.654-4.295
		c-0.731-1.464-0.672-6.5-2.506-7.875C408.775,288.394,406.53,286.381,404.257,287.778L404.257,287.778z"/>
	
		<linearGradient id="path2138_1_" gradientUnits="userSpaceOnUse" x1="2.3496" y1="438.7578" x2="2.4666" y2="438.5324" gradientTransform="matrix(69.7404 0 0 -46.9258 231.4375 20877.3438)">
		<stop  offset="0" style="stop-color:#000000"/>
		<stop  offset="1" style="stop-color:#000000;stop-opacity:0"/>
	</linearGradient>
	<path id="path2138" opacity="0.468" fill="url(#path2138_1_)" enable-background="new    " d="M404.257,287.778
		c-2.104,1.292-5.46,6.133-6.443,8.591c-0.547,1.367-3.222,1.789-4.653,2.506c-2.816,1.408-1.325,3.938,1.432,3.938
		c3.672,0,7.185,0.005,10.739,0.716c2.681,0.536,5.469,0.357,8.233,0.357c2.814,0,3.181-1.869,2.506-3.222
		c-0.615-1.229-3.883-2.753-4.654-4.295c-0.731-1.464-0.672-6.5-2.506-7.875C408.775,288.394,406.53,286.381,404.257,287.778
		L404.257,287.778z"/>
	
		<linearGradient id="path2142_1_" gradientUnits="userSpaceOnUse" x1="2.3955" y1="438.6182" x2="2.502" y2="438.5977" gradientTransform="matrix(69.7404 0 0 -46.9258 231.4375 20877.3438)">
		<stop  offset="0" style="stop-color:#000000"/>
		<stop  offset="1" style="stop-color:#000000;stop-opacity:0"/>
	</linearGradient>
	<path id="path2142" opacity="0.509" fill="url(#path2142_1_)" enable-background="new    " d="M404.257,287.778
		c-2.104,1.292-5.46,6.133-6.443,8.591c-0.547,1.367-3.222,1.789-4.653,2.506c-2.816,1.408-1.325,3.938,1.432,3.938
		c3.672,0,7.185,0.005,10.739,0.716c2.681,0.536,5.469,0.357,8.233,0.357c2.814,0,3.181-1.869,2.506-3.222
		c-0.615-1.229-3.883-2.753-4.654-4.295c-0.731-1.464-0.672-6.5-2.506-7.875C408.775,288.394,406.53,286.381,404.257,287.778
		L404.257,287.778z"/>
	
		<radialGradient id="path2146_1_" cx="254.9956" cy="-40.2671" r="5.4596" gradientTransform="matrix(1.4686 0 0 -0.4253 35.1963 281.6174)" gradientUnits="userSpaceOnUse">
		<stop  offset="0" style="stop-color:#FFFFFF"/>
		<stop  offset="1" style="stop-color:#FFFFFF;stop-opacity:0"/>
	</radialGradient>
	<path id="path2146" opacity="0.676" fill="url(#path2146_1_)" enable-background="new    " d="M399.243,298.806
		c1.198,0.155,3.992-0.108,5.873-0.545c1.594-0.369,2.558-0.466,3.524-1.362c1.399-1.299,1.362-0.188,3.231,0.671
		c1.038,1.109,2.543,0.738,3.595,2.871c1.039,0.964-4.183,0-5.65,0c-1.577,0-2.941-0.272-4.405-0.272
		c-1.011,0-3.071-0.372-3.818-0.545C400.43,299.354,401.03,299.137,399.243,298.806L399.243,298.806z"/>
	
		<radialGradient id="path2161_1_" cx="747.7227" cy="7.9683" r="3.0364" gradientTransform="matrix(0.4687 -0.1716 -0.3438 -0.939 61.0295 427.127)" gradientUnits="userSpaceOnUse">
		<stop  offset="0" style="stop-color:#FFFFFF"/>
		<stop  offset="1" style="stop-color:#FFFFFF;stop-opacity:0"/>
	</radialGradient>
	<path id="path2161" opacity="0.468" fill="url(#path2161_1_)" enable-background="new    " d="M410.171,290.808
		c0.145,1.575-0.377,3.086-1.163,3.373c-0.786,0.288-1.54-0.756-1.684-2.331l0,0c-0.144-1.574,0.377-3.085,1.163-3.373
		S410.027,289.232,410.171,290.808z"/>
</g>
<radialGradient id="path2223_1_" cx="435.8594" cy="43.251" r="9.7385" gradientTransform="matrix(1.0154 0 0 -0.9849 -37.0156 336.9785)" gradientUnits="userSpaceOnUse">
	<stop  offset="0" style="stop-color:#525252"/>
	<stop  offset="1" style="stop-color:#D9D9D9"/>
</radialGradient>
<path id="path2223" fill="url(#path2223_1_)" d="M408.278,291.53c-0.111,0.029-0.222-0.063-0.333-0.095
	c2.491,0.519,0.04-0.053,0.419-0.552c-0.102-0.074-0.035,0.034-0.081,0.079l1.422-3.339c0.672,0.433,1.403,0.661,1.8,1.439
	c1.651,4.23-1.006,7.37-5.478,5.439c-3.042-2.799-1.901-6.353,2.251-6.645V291.53L408.278,291.53z"/>
<linearGradient id="path2248_1_" gradientUnits="userSpaceOnUse" x1="2.8164" y1="434.2051" x2="2.6633" y2="434.1945" gradientTransform="matrix(53.9373 0 0 -129.8417 259.2812 56729.3125)">
	<stop  offset="0" style="stop-color:#525252"/>
	<stop  offset="1" style="stop-color:#D9D9D9"/>
</linearGradient>
<path id="path2248" fill="url(#path2248_1_)" d="M410.306,328.083c6.911,11.553-14.233,11.671-13.748,23.891
	c0.489,12.348,11.416,7.013,17.994,17.836l0.481,4.283c-9.63-13.453-18.726-9.799-19.106-21.871s16.163-16.147,14.659-21.906
	L410.306,328.083L410.306,328.083z"/>
<linearGradient id="path2284_1_" gradientUnits="userSpaceOnUse" x1="2.6924" y1="439.8398" x2="2.8079" y2="439.8027" gradientTransform="matrix(56.6015 0 0 -58.8539 255.125 26276.1562)">
	<stop  offset="0" style="stop-color:#525252"/>
	<stop  offset="1" style="stop-color:#D9D9D9"/>
</linearGradient>
<path id="path2284" fill="url(#path2284_1_)" d="M412.266,381.846c-3.291,4.713-16.932,9.588-16.878,4.106
	c0.128-13.075,19.621-6.69,20.055,4c0.21,5.201-12.866,4.959-14.935,9.536l-0.376-3.008c1.735-3.899,13.871-3.393,13.27-6.282
	c-2.058-9.889-12.588-9.574-16.369-6.504c0.455,5.362,12.378,0.284,15.101-4.501L412.266,381.846L412.266,381.846z"/>
<linearGradient id="path2319_1_" gradientUnits="userSpaceOnUse" x1="2.9111" y1="451.5156" x2="2.9752" y2="451.208" gradientTransform="matrix(47.6305 0 0 -25.9186 264.0938 12082.625)">
	<stop  offset="0" style="stop-color:#000000"/>
	<stop  offset="1" style="stop-color:#000000;stop-opacity:0"/>
</linearGradient>
<path id="path2319" fill="url(#path2319_1_)" d="M412.266,381.846c-3.291,4.713-16.932,9.588-16.878,4.106l1.645-2.257
	c0.455,5.361,12.378,0.283,15.101-4.501L412.266,381.846L412.266,381.846z"/>
<linearGradient id="path2323_1_" gradientUnits="userSpaceOnUse" x1="4.1318" y1="448.2979" x2="4.3098" y2="448.1777" gradientTransform="matrix(21.7072 0 0 -21.0556 315.1875 9728.2812)">
	<stop  offset="0" style="stop-color:#000000"/>
	<stop  offset="1" style="stop-color:#000000;stop-opacity:0"/>
</linearGradient>
<path id="path2323" fill="url(#path2323_1_)" d="M408.278,291.53c-0.111,0.029-0.222-0.063-0.333-0.095
	c2.491,0.519,0.04-0.053,0.419-0.552c-0.102-0.074-0.035,0.034-0.081,0.079l1.422-3.339c0.672,0.433,1.403,0.661,1.8,1.439
	c1.651,4.23-1.006,7.37-5.478,5.439c-3.042-2.799-1.901-6.353,2.251-6.645V291.53L408.278,291.53z"/>
<linearGradient id="path2246_1_" gradientUnits="userSpaceOnUse" x1="2.4897" y1="434.1914" x2="2.5811" y2="434.04" gradientTransform="matrix(77.65 0 0 -113.151 201 49420.3125)">
	<stop  offset="0" style="stop-color:#525252"/>
	<stop  offset="1" style="stop-color:#D9D9D9"/>
</linearGradient>
<path id="path2246" fill="url(#path2246_1_)" d="M411.195,288.242c-3.455,7.863-4.603,0.512-7.545,0.976
	c-4.516-0.009-11.386,2.235-13.816,5.867c-3.332,4.978-4.625,10.229-2.009,16.92c2.633,6.734,11.236,9.111,19.766,13.917l0.11,1.42
	c-6.475-5.069-18.091-5.285-21.693-12.937c-3.65-7.755-3.407-14.042,3.602-20.803c3.711-3.452,8.09-6.242,13.286-6.355
	L411.195,288.242L411.195,288.242z"/>
<radialGradient id="path2329_1_" cx="283.7729" cy="-152.2939" r="5.1894" fx="283.7729" fy="-152.1876" gradientTransform="matrix(1.5804 0 0 -0.6328 -37.5801 191.2197)" gradientUnits="userSpaceOnUse">
	<stop  offset="0" style="stop-color:#000000"/>
	<stop  offset="1" style="stop-color:#000000;stop-opacity:0"/>
</radialGradient>
<path id="path2329" opacity="0.639" fill="url(#path2329_1_)" enable-background="new    " d="M411.195,288.242
	c-3.455,7.863-4.603,0.512-7.545,0.976c-4.516-0.009-5.951-1.858-0.755-1.972L411.195,288.242L411.195,288.242z"/>
</svg>
