<svg version="1.1" id="Layer_1" xmlns="http://www.w3.org/2000/svg" xmlns:xlink="http://www.w3.org/1999/xlink" viewBox="0 0 768 430" enable-background="new 0 0 768 430" xml:space="preserve">
<g>
	<path fill="#F6DF35" d="M580.589,169.563c3.404-12.099,7.567-23.995,12.47-35.598c-8.852-2.474-17.703-4.947-26.556-7.419
		c-1.598,9.203-3.631,18.332-6.082,27.352c-4.441,16.337-12.766,31.467-24.494,43.952c-39.905,42.483-101.32,67.772-163.965,67.724
		c-46.405,0.561-92.437-12.789-129.763-36.832c-15.622-10.062-45.015-15.638-61.784-15.716c-2.774-0.013-5.53,0.64-7.882,2.054
		c-4.112,2.477-6.577,6.588-6.905,11.021c-0.831,11.192,1.671,27.035,7.097,35.158c43.609,65.293,131.375,100.332,214.619,94.785
		c75.673-3.179,151.88-37.888,186.496-98.726c7.422-13.044,8.767-36.947,5.684-52.238
		C577.145,193.286,577.331,181.135,580.589,169.563z"/>
	<path opacity="0.49" fill="#FFFFFD" d="M371.178,277.562c62.646,0.049,124.061-25.239,163.966-67.724
		c11.727-12.484,21.725-27.997,26.166-44.333c2.366-8.704,8.255-27.979,10.102-37.588c-1.636-0.458-3.272-0.916-4.909-1.372
		c-1.598,9.203-3.631,18.332-6.082,27.352c-4.441,16.337-12.766,31.467-24.494,43.952c-39.905,42.483-101.32,67.772-163.965,67.724
		c-46.405,0.561-92.437-12.789-129.763-36.832c-15.622-10.062-45.015-15.638-61.784-15.716c-0.81-0.004-1.617,0.057-2.413,0.169
		c18.221,2.947,49.29,18.44,63.414,27.538C278.743,264.775,324.772,278.123,371.178,277.562z"/>
	<path fill="#423636" d="M566.503,126.546c0,0,19.865-20.813,21.082-26.754c1.218-5.942,5.782,0.377,5.782,0.377
		s12.694,8.856,8.196,17.393c-4.497,8.536-3.701,13.205-8.505,16.404C588.255,137.162,566.503,126.546,566.503,126.546z"/>
	<path fill="#423636" d="M178.812,213.101c-4.114,0.37-7.895,2.379-10.373,5.625c-1.641,2.15-2.614,4.703-2.812,7.373
		c-0.022,0.297-0.035,0.61-0.053,0.914C172.676,223.332,176.737,217.244,178.812,213.101z"/>
</g>
</svg>
