<?xml version="1.0" encoding="utf-8"?>
<!-- Generator: Adobe Illustrator 16.0.0, SVG Export Plug-In . SVG Version: 6.00 Build 0)  -->
<!DOCTYPE svg PUBLIC "-//W3C//DTD SVG 1.1//EN" "http://www.w3.org/Graphics/SVG/1.1/DTD/svg11.dtd">
<svg version="1.1" id="Layer_1" xmlns="http://www.w3.org/2000/svg" xmlns:xlink="http://www.w3.org/1999/xlink" x="0px" y="0px"
	 width="768px" height="430px" viewBox="0 0 768 430" enable-background="new 0 0 768 430" xml:space="preserve">
<g>
	<path fill="#772D12" d="M421.231,93.608c0,0-1.081-28.886,33.475-27.806c11.068,0.269,31.04,11.337,32.662,34.28
		c-5.941-6.205-9.45-6.748-9.45-6.748c3.782,9.177,7.291,16.468,5.399,24.297c-2.966-5.937-6.206-9.177-7.017-9.989
		c1.08,8.641,1.617,15.115-1.349,20.515c-1.622-5.125-3.783-9.446-4.59-11.069c-0.542,8.372-2.429,14.578-3.513,15.926
		c0-4.32-1.617-7.554-2.423-9.983c-1.893,5.125-9.184,9.983-19.71,3.777C439.591,116.551,421.231,93.608,421.231,93.608z"/>
	<path fill="#9A4C28" d="M454.706,65.803c9.641,0.235,26.032,8.668,31.175,25.999c-6.172-3.431-14.062-6.62-13.901-0.353
		c0.544,7.017,2.698,14.303,0,17.811c-1.241-5.271-0.268-7.168-2.429-9.865c-0.446,7.419,0,17.694-1.89,19.042
		c-1.887-4.313-2.161-4.856-2.429-6.474c-3.022,4.879-13.056,10.47-28.192,2.658c-7.097-10.129-15.809-21.013-15.809-21.013
		S420.15,64.722,454.706,65.803z"/>
	<path fill="#E5B488" d="M430.951,101.974c0,0-1.617-17.817,15.926-19.166c12.418-0.538,17.816,5.36,18.355,15.909
		c0.005,10.543-9.447,22.96-25.373,12.435C436.62,106.563,430.951,101.974,430.951,101.974z"/>
	<path fill="#FED09E" d="M430.946,99.199c0,0-1.39-15.238,13.626-16.396c10.627-0.459,15.243,4.589,15.707,13.609
		c0,9.026-8.087,19.653-21.713,10.644C435.798,103.127,430.946,99.199,430.946,99.199z"/>
	<path fill="#B55A37" d="M481.427,86.86c0,0-17.812-31.314-48.584-12.96c-7.807,5.361-9.452,11.594,2.429,5.932
		C447.146,74.174,459.831,66.346,481.427,86.86z"/>
	<path fill="#772D12" d="M342.464,93.608c0,0,1.079-28.886-33.476-27.806c-11.062,0.269-31.041,11.337-32.658,34.28
		c5.938-6.205,9.447-6.748,9.447-6.748c-3.779,9.177-7.286,16.468-5.401,24.297c2.973-5.937,6.212-9.177,7.024-9.989
		c-1.086,8.641-1.623,15.115,1.348,20.515c1.617-5.125,3.776-9.446,4.588-11.069c0.539,8.372,2.429,14.578,3.509,15.926
		c0-4.32,1.617-7.554,2.429-9.983c1.887,5.125,9.178,9.983,19.704,3.777C324.108,116.551,342.464,93.608,342.464,93.608z"/>
	<path fill="#9A4C28" d="M308.988,65.803c-9.637,0.235-26.031,8.668-31.168,25.999c6.167-3.431,14.062-6.62,13.894-0.353
		c-0.537,7.017-2.691,14.303,0.007,17.811c1.237-5.271,0.262-7.168,2.422-9.865c0.448,7.419,0,17.694,1.892,19.042
		c1.892-4.313,2.16-4.856,2.429-6.474c3.022,4.879,13.056,10.47,28.193,2.658c7.095-10.129,15.809-21.013,15.809-21.013
		S343.542,64.722,308.988,65.803z"/>
	<path fill="#E5B488" d="M332.744,101.974c0,0,1.623-17.817-15.927-19.166c-12.416-0.538-17.812,5.36-18.354,15.909
		c-0.005,10.543,9.445,22.96,25.373,12.435C327.075,106.563,332.744,101.974,332.744,101.974z"/>
	<path fill="#FED09E" d="M332.749,99.199c0,0,1.387-15.238-13.626-16.396c-10.622-0.459-15.243,4.589-15.702,13.609
		c-0.005,9.026,8.08,19.653,21.706,10.644C327.902,103.127,332.749,99.199,332.749,99.199z"/>
	<path fill="#772D12" d="M550.529,321.429c-2.696-20.782-17.273-7.56-20.782-1.617c-7.286-1.349-12.686,14.304-12.686,14.304
		c-15.658-32.658-44.271-25.104-48.589-21.863c3.854-91.303-78.545-94.387-86.329-94.477h-0.588
		c-7.789,0.09-90.188,3.174-86.333,94.477c-4.321-3.24-32.932-10.795-48.584,21.863c0,0-5.399-15.652-12.691-14.304
		c-3.508-5.942-18.086-19.165-20.783,1.617c-4.321,9.177-4.857,31.046,13.228,50.206c9.446,9.722,24.83,15.39,32.39-3.508
		c0.543-5.127,18.354-14.847,63.166-2.966c9.585,5.058,53.006,6.96,59.898,6.239c6.895,0.721,50.318-1.182,59.899-6.239
		c44.811-11.881,62.628-2.161,63.167,2.966c7.559,18.897,22.942,13.229,32.395,3.508
		C555.393,352.475,554.85,330.605,550.529,321.429z"/>
	<path fill="#9A4C28" d="M549.395,325.402c-0.158-1.192-1.858,4.487-5.653,8.086c5.223-10.8,4.919-12.255,4.813-12.681
		c-3.582-14.381-12.691-4.717-15.904,0.722c-0.777-0.145,4.198,1.881,3.571,13.129c-2.553-12.865-6.744-12.865-7.146-12.709
		c-3.571,1.371-5.848,4.342-8.366,10.447c-0.946,2.294-7.537,18.634-7.968,19.267c-0.705,1.036,4.32-17.548,4.32-17.548
		c-15.658-32.658-44.271-25.104-48.589-21.863c3.854-91.303-78.545-94.387-86.329-94.477h-0.588
		c-7.789,0.09-90.188,3.174-86.333,94.477c-4.321-3.24-32.932-10.795-48.584,21.863c0,0,3.056,9.093,4.314,17.548
		c-2.971-9.496-4.644-14.706-6.323-19.267c-1.298-3.52-5.344-10.128-8.802-9.87c-2.272,0.162-4.292,1.062-8.36,12.132
		c-0.011-10.348,4.617-12.972,4.068-12.865c-3.508-5.943-14.756-17.661-17.453,3.122c0.212,1.098,2.076,5.69,5.92,9.743
		c-3.844,0-7.028-6.984-7.146-6.609c-2.966,9.379-1.567,23.58,14.6,40.71c9.445,9.715,22.238,16.648,29.797-2.249
		c2.675-5.445,12.619-24.007,57.426-12.126c9.585,5.058,60.274,10.418,67.167,9.697c6.895,0.721,51.129-2.502,60.711-7.561
		c44.811-11.874,61.415,1.08,64.118,8.462c7.553,18.891,18.442,14.751,27.89,5.036C552.65,350.852,553.715,334.579,549.395,325.402z
		"/>
	<path fill="#B55A37" d="M247.445,334.658c0,0,12.63-28.271,40.223-21.327c-13.771,1.08-23.804,3.073-36.714,34.28
		C249.874,340.863,247.445,334.658,247.445,334.658z"/>
	<path fill="#B55A37" d="M515.219,333.925c0,0-12.628-28.271-40.217-21.32c13.766,1.079,23.8,3.071,36.71,34.28
		C512.791,340.136,515.219,333.925,515.219,333.925z"/>
	<path fill="#964526" d="M337.355,357.522c0,0,17.794-5.999-1.037-26.787c-13.922-18.333-22.07-31.65,0-59.361
		c17.029-24.113,31.282-32.395,46.29-31.315c15.013,1.08,45.152,19.994,55.32,48.231c2.82,17.61,3.901,33.928-10.733,45.926
		c-11.868,9.73-12.366,22.797-0.666,24.292c17.158-5.798,37.314-47.186,25.793-77.057c-11.511-29.876-14.181-73.782-69.714-75.404
		c-55.533-1.617-77.487,42.378-77.129,89.3C305.844,342.273,317.399,350.092,337.355,357.522z"/>
	<path fill="#772D12" d="M425.451,216.203c0,0,29.966,1.623,45.891,29.424c-4.857-0.537-8.097-0.269-9.445,0
		c6.206,3.509,14.033,13.497,18.08,19.709c-4.857-1.623-8.365-2.972-10.526-2.703c4.59,3.782,14.847,16.737,15.658,26.184
		c-4.321-2.429-5.669-4.314-7.017-4.589c2.428,9.988,5.668,41.303-8.098,68.023c2.429,12.686-3.784,34.986-24.836,28.965
		c-5.937,0.459-11.068-1.433-11.337-4.942c-4.319,0.274-12.686,0.274-10.799-17.273c0-7.286-0.812-14.847,11.879-23.755
		c5.395-5.669,20.241-29.961,4.588-57.492C430.851,265.872,394.679,214.854,425.451,216.203z"/>
	<path fill="#B55A37" d="M425.451,216.203c0,0,29.966,1.623,45.891,29.424c-4.857-0.537-8.097-0.269-9.445,0
		c6.206,3.509,14.033,13.497,18.08,19.709c-4.857-1.623-8.365-2.972-10.526-2.703c4.59,3.782,14.847,16.737,15.658,26.184
		c-4.321-2.429-5.669-4.314-7.017-4.589c2.428,9.988,5.668,41.303-8.098,68.023c2.305,12.07-4.662,29.507-19.748,27.275
		c6.155-4.422,5.697-9.414,5.438-9.458c-1.343,5.226-7.279,9.099-7.828,8.953c-5.938,0.459-9.73-1.397-10.006-4.901
		c-0.229,0.01,7.756-6.211,6.224-8.909c-3.146,5.395-8.103,8.854-8.725,8.725c-4.46-0.901-10.168-5.249-8.601-19.815
		c0-0.454,1.074-3.051,10.039-5.198c-4.225-1.35-10.018,3.026-10.005,2.613c0.229-5.972,1.822-10.728,12.96-18.545
		c1.739-0.729,6.255-2.306,12.164-5.3c-5.668,1.824-11.023,4.023-10.76,3.699c6.211-7.583,18.152-29.06-3.297-59.036
		C429.212,260.473,394.679,214.854,425.451,216.203z"/>
	<path fill="#9A4C28" d="M425.451,216.203c0,0,28.107,7.733,42.534,27.487c-4.862-0.543-9.72,0.537-11.07,0.812
		c6.208,3.508,15.334,12.142,19.386,18.349c-4.857-1.618-9.127-1.618-11.288-1.35c4.59,3.783,17.544,15.389,18.355,24.835
		c-4.32-2.429-3.929-1.835-5.276-2.109c2.428,9.988,5.668,41.303-8.098,68.023c2.305,12.07-4.662,29.507-19.748,27.275
		c6.155-4.422,5.697-9.414,5.438-9.458c-1.343,5.226-7.279,9.099-7.828,8.953c-5.938,0.459-9.73-1.397-10.006-4.901
		c-0.229,0.01,7.756-6.211,6.224-8.909c-3.146,5.395-8.103,8.854-8.725,8.725c-4.46-0.901-10.168-5.249-8.601-19.815
		c0-0.454,1.074-3.051,10.039-5.198c-4.225-1.35-10.018,3.026-10.005,2.613c0.229-5.972,1.822-10.728,12.96-18.545
		c1.739-0.729,6.255-2.306,12.164-5.3c-5.668,1.824-11.023,4.023-10.76,3.699c6.211-7.583,18.152-29.06-3.297-59.036
		C429.212,260.473,394.679,214.854,425.451,216.203z"/>
	<path fill="#772D12" d="M338.412,215.616c0,0-29.96,1.622-45.888,29.423c4.857-0.536,8.098-0.269,9.447,0
		c-6.207,3.509-14.035,13.498-18.086,19.703c4.863-1.617,8.367-2.972,10.526-2.697c-4.583,3.777-14.847,16.738-15.652,26.184
		c4.32-2.429,5.668-4.32,7.019-4.589c-2.429,9.988-5.669,41.298,8.097,68.023c-2.429,12.688,3.777,34.986,24.834,28.965
		c5.938,0.459,11.068-1.433,11.337-4.94c4.32,0.268,12.685,0.268,10.8-17.275c0-7.291,0.806-14.846-11.881-23.754
		c-5.399-5.669-20.246-29.961-4.588-57.499C333.011,265.285,369.184,214.268,338.412,215.616z"/>
	<path fill="#B55A37" d="M338.412,215.616c0,0-29.96,1.622-45.888,29.423c4.857-0.536,8.098-0.269,9.447,0
		c-6.207,3.509-14.035,13.498-18.086,19.703c4.863-1.617,8.367-2.972,10.526-2.697c-4.583,3.777-14.847,16.738-15.652,26.184
		c4.32-2.429,5.668-4.32,7.019-4.589c-2.429,9.988-5.669,41.298,8.097,68.023c-2.312,12.065,4.661,29.507,19.748,27.275
		c-6.161-4.422-5.702-9.412-5.44-9.458c1.337,5.222,7.275,9.1,7.828,8.954c5.938,0.459,9.732-1.399,10-4.908
		c0.236,0.018-7.75-6.205-6.221-8.909c3.149,5.401,8.108,8.859,8.729,8.73c4.454-0.9,10.167-5.249,8.601-19.815
		c0-0.452-1.075-3.049-10.044-5.198c4.23-1.349,10.021,3.028,10.005,2.613c-0.225-5.971-1.824-10.733-12.955-18.551
		c-1.741-0.727-6.257-2.299-12.167-5.299c5.669,1.829,11.024,4.023,10.756,3.698c-6.205-7.582-18.148-29.054,3.295-59.036
		C334.651,259.885,369.184,214.268,338.412,215.616z"/>
	<path fill="#9A4C28" d="M338.412,215.616c0,0-27.801,4.846-42.378,26.994c4.857-0.543,9.715,0.269,11.068,0.537
		c-6.211,3.509-15.656,12.418-19.702,18.623c4.852-1.617,9.176-2.965,11.337-2.697c-4.595,3.778-16.688,18.17-17.493,27.616
		c4.315-2.429,3.183-2.781,4.533-3.05c-2.429,9.988-5.669,41.298,8.097,68.023c-2.312,12.065,4.661,29.507,19.748,27.275
		c-6.161-4.422-5.702-9.412-5.44-9.458c1.337,5.222,7.275,9.1,7.828,8.954c5.938,0.459,9.732-1.399,10-4.908
		c0.236,0.018-7.75-6.205-6.221-8.909c3.149,5.401,8.108,8.859,8.729,8.73c4.454-0.9,10.167-5.249,8.601-19.815
		c0-0.452-1.075-3.049-10.044-5.198c4.23-1.349,10.021,3.028,10.005,2.613c-0.225-5.971-1.824-10.733-12.955-18.551
		c-1.741-0.727-6.257-2.299-12.167-5.299c5.669,1.829,11.024,4.023,10.756,3.698c-6.205-7.582-18.148-29.054,3.295-59.036
		C334.651,259.885,369.184,214.268,338.412,215.616z"/>
	<path fill="#772D12" d="M476.301,182.416c-7.292-14.309-4.27-22.261-6.139-29.093c-3.851-14.096-17.885-20.307-22.475-31.914
		C430.425,75.55,385.877,75.422,381.847,75.5c-4.023-0.079-48.577,0.05-65.836,45.908c-4.588,11.606-18.629,17.817-22.478,31.914
		c-1.869,6.833,1.153,14.785-6.133,29.093c3.502-0.274,6.742-2.435,7.286-3.24c-0.543,7.554-1.35,15.114,0,19.978
		c2.16-4.595,3.777-7.024,4.319-8.097c1.887,7.823,5.938,14.303,11.065,16.463c-1.081-1.892-0.27-5.668,0-7.561
		c3.507,8.097,13.766,24.567,43.999,27.263c16.754-0.263,21.197,4.706,27.778,3.822c6.586,0.884,11.023-4.085,27.778-3.822
		c30.234-2.696,40.491-19.166,44.001-27.263c0.27,1.892,1.08,5.668,0,7.561c5.126-2.16,9.178-8.64,11.067-16.463
		c0.539,1.073,2.156,3.502,4.315,8.097c1.354-4.863,0.542-12.423,0-19.978C469.551,179.981,472.791,182.141,476.301,182.416z"/>
	<path fill="#B55A37" d="M476.301,182.416c-7.292-14.309-4.27-22.261-6.139-29.093c-3.851-14.096-17.885-20.307-22.475-31.914
		C430.425,75.55,385.877,75.422,381.847,75.5c-4.023-0.079-48.577,0.05-65.836,45.908c-4.588,11.606-18.629,17.817-22.478,31.914
		c-1.869,6.833,1.153,14.785-6.133,29.093c3.502-0.274,8.903-7.561,9.445-8.372c-0.542,7.561-1.713,12.423-0.363,17.28
		c2.16-4.589,1.98-6.48,2.522-7.561c1.887,7.829,3.146,14.041,8.278,16.195c-1.081-1.886,1.846-7.465,2.115-9.356
		c3.508,8.097,13.632,29.198,43.859,31.897c16.76-0.27,22.009,6.06,28.59,5.176c6.586,0.884,11.835-3.51,28.589-3.24
		c30.23-2.697,40.353-23.576,43.861-31.674c0.27,1.892,2.496,7.107,1.416,8.999c5.132-2.16,5.881-10.168,7.772-17.997
		c0.537,1.081,0.762,4.046,2.922,8.635c1.348-4.863,0.855-10.794,0.313-18.355C467.263,174.855,472.791,182.141,476.301,182.416z"/>
	<path fill="#9A4C28" d="M476.301,182.416c-7.292-14.309-4.27-22.261-6.139-29.093c-3.851-14.096-17.724-20.369-22.475-31.914
		c-16.775-40.76-62.096-41.656-66.126-41.571c-4.023-0.084-48.779-0.135-65.551,41.571c-4.661,11.578-18.629,17.817-22.478,31.914
		c-1.869,6.833,1.153,14.785-6.133,29.093c3.502-0.274,8.903-7.561,9.445-8.372c-0.542,7.561-1.713,12.423-0.363,17.28
		c2.16-4.589,1.98-6.48,2.522-7.561c1.887,7.829,3.146,14.041,8.278,16.195c-1.081-1.886,1.846-7.465,2.115-9.356
		c3.508,8.097,13.632,29.198,43.859,31.897c16.76-0.27,22.009,6.06,28.59,5.176c6.586,0.884,11.835-3.51,28.589-3.24
		c30.23-2.697,40.353-23.576,43.861-31.674c0.27,1.892,2.496,7.107,1.416,8.999c5.132-2.16,5.881-10.168,7.772-17.997
		c0.537,1.081,0.762,4.046,2.922,8.635c1.348-4.863,0.855-10.794,0.313-18.355C467.263,174.855,472.791,182.141,476.301,182.416z"/>
	<path fill="#772D12" d="M396.391,139.948c1.707,13.425,9.587,23.486,17.588,22.468c8.013-1.019,13.123-12.725,11.416-26.155
		c-1.706-13.425-9.58-23.486-17.587-22.467C399.793,114.806,394.684,126.519,396.391,139.948z"/>
	<path d="M397.515,137.374c1.54,12.104,8.636,21.18,15.86,20.263c7.224-0.917,11.83-11.477,10.29-23.587
		c-1.539-12.104-8.64-21.174-15.857-20.256C400.581,114.705,395.978,125.264,397.515,137.374z"/>
	<path fill="#BFBFBF" d="M397.896,136.49c1.483,11.651,8.321,20.386,15.272,19.502c6.949-0.884,11.381-11.046,9.904-22.697
		c-1.483-11.656-8.321-20.386-15.265-19.501C400.851,114.672,396.419,124.839,397.896,136.49z"/>
	<path fill="#FFFFFF" d="M399.917,131.874c1.18,9.278,6.625,16.229,12.159,15.529c5.534-0.705,9.064-8.797,7.885-18.081
		c-1.176-9.278-6.62-16.233-12.153-15.528C402.266,114.492,398.735,122.589,399.917,131.874z"/>
	<path d="M403.816,137.878c0,3.648,2.781,6.608,6.212,6.608c3.43,0,6.211-2.96,6.211-6.608c0-3.654-2.781-6.615-6.211-6.615
		C406.598,131.263,403.816,134.224,403.816,137.878z"/>
	<path fill="#FFFFFF" d="M410.296,132.478c0,2.088,1.695,3.778,3.784,3.778c2.087,0,3.776-1.69,3.776-3.778
		c0-2.087-1.689-3.783-3.776-3.783C411.991,128.695,410.296,130.391,410.296,132.478z"/>
	<path fill="#772D12" d="M366.896,139.948c-1.708,13.425-9.58,23.486-17.589,22.468c-8.012-1.019-13.123-12.725-11.415-26.155
		c1.706-13.425,9.58-23.486,17.594-22.467C363.493,114.806,368.602,126.519,366.896,139.948z"/>
	<path d="M418.533,109.26c0,0-4.051-17.006-15.925-7.829C407.465,102.512,413.403,103.055,418.533,109.26z"/>
	<path fill="#C67560" d="M532.063,351.121c-2.456,4.259-2.573,8.792-0.269,10.116c2.312,1.332,6.166-1.039,8.623-5.298
		c2.452-4.259,2.568-8.792,0.263-10.118C538.376,344.489,534.514,346.867,532.063,351.121z"/>
	<path fill="#E69A79" d="M533.321,350.052c-2.074,3.594-2.17,7.425-0.223,8.545c1.946,1.125,5.21-0.879,7.28-4.477
		c2.076-3.598,2.178-7.426,0.229-8.551C538.655,344.444,535.393,346.454,533.321,350.052z"/>
	<path fill="#E5B488" d="M423.665,188.621c-1.443-33.899-38.304-32.607-41.818-32.411c-3.508-0.196-40.373-1.488-41.812,32.411
		c0,14.986,18.577,31.293,41.521,31.836h0.588C405.081,219.914,423.665,203.607,423.665,188.621z"/>
	<path fill="#FED09E" d="M420.498,186.165c-1.332-31.332-35.406-30.146-38.651-29.955c-3.246-0.19-37.319-1.376-38.649,29.955
		c0,13.855,17.172,28.925,38.376,29.423h0.547C403.329,215.09,420.498,200.021,420.498,186.165z"/>
	<path d="M365.776,137.374c-1.54,12.104-8.641,21.18-15.865,20.263c-7.218-0.917-11.83-11.477-10.29-23.587
		c1.539-12.104,8.639-21.174,15.865-20.256C362.704,114.705,367.315,125.264,365.776,137.374z"/>
	<path fill="#BFBFBF" d="M365.39,136.49c-1.482,11.651-8.315,20.386-15.266,19.502c-6.95-0.884-11.387-11.046-9.904-22.697
		c1.478-11.656,8.315-20.386,15.266-19.501C362.435,114.672,366.867,124.839,365.39,136.49z"/>
	<path fill="#FFFFFF" d="M363.375,131.874c-1.181,9.278-6.627,16.229-12.161,15.529c-5.54-0.705-9.07-8.797-7.89-18.081
		c1.181-9.278,6.625-16.233,12.161-15.528C361.02,114.492,364.55,122.589,363.375,131.874z"/>
	<path d="M359.47,137.878c0,3.648-2.781,6.608-6.213,6.608c-3.424,0-6.205-2.96-6.205-6.608c0-3.654,2.781-6.615,6.205-6.615
		C356.688,131.263,359.47,134.224,359.47,137.878z"/>
	<path d="M345.16,109.26c0,0,4.051-17.006,15.927-7.829C356.229,102.512,350.292,103.055,345.16,109.26z"/>
	<path fill="#C67560" d="M231.636,351.121c2.451,4.259,2.569,8.792,0.263,10.116c-2.306,1.332-6.167-1.039-8.624-5.298
		c-2.451-4.259-2.569-8.792-0.263-10.118C225.325,344.489,229.18,346.867,231.636,351.121z"/>
	<path fill="#D88A6F" d="M230.875,349.811c2.037,3.532,2.137,7.293,0.224,8.395c-1.919,1.097-5.115-0.868-7.152-4.404
		c-2.036-3.53-2.137-7.286-0.223-8.394C225.637,344.306,228.845,346.274,230.875,349.811z"/>
	<path fill="#DDAC85" d="M396.716,202.242c-3.833,5.244-7.957,8.231-12.278,8.909v-33.055h-3.24v33.116
		c-8.002-0.845-14.163-8.897-14.23-8.986c0,0,5.293,12.311,15.567,12.311h0.096C392.87,214.049,396.716,202.242,396.716,202.242z"/>
	<path fill="#CC2727" d="M399.638,176.321c0,6.614-7.532,11.986-16.817,11.986c-9.29,0-16.822-5.372-16.822-11.986
		c0-6.625,7.532-11.992,16.822-11.992C392.105,164.329,399.638,169.696,399.638,176.321z"/>
	<path fill="#D82C28" d="M396.732,174.246c0,5.484-6.229,9.921-13.912,9.921c-7.688,0-13.917-4.438-13.917-9.921
		c0-5.473,6.229-9.917,13.917-9.917C390.504,164.329,396.732,168.773,396.732,174.246z"/>
	<path fill="#E5B488" d="M422.748,304.238c0,30.536-17.969,55.294-40.14,55.294c-22.172,0-40.14-24.758-40.14-55.294
		c0-30.542,17.968-55.298,40.14-55.298C404.779,248.94,422.748,273.696,422.748,304.238z"/>
	<path fill="#FED09E" d="M419.016,299.085c0,27.693-16.302,50.15-36.407,50.15c-20.106,0-36.402-22.457-36.402-50.15
		c0-27.694,16.296-50.145,36.402-50.145C402.714,248.94,419.016,271.391,419.016,299.085z"/>
	<path fill="#EF4B4B" d="M392.334,170.401c0,1.718-4.259,3.106-9.513,3.106c-5.259,0-9.518-1.388-9.518-3.106
		c0-1.712,4.259-3.1,9.518-3.1C388.075,167.301,392.334,168.689,392.334,170.401z"/>
	<circle fill="#FFFFFF" cx="349.212" cy="132.478" r="3.778"/>
	<path fill="#B55A37" d="M282.268,86.86c0,0,17.817-31.314,48.589-12.96c7.802,5.361,9.446,11.594-2.434,5.932
		C316.549,74.174,303.862,66.346,282.268,86.86z"/>
</g>
</svg>
