<svg xmlns="http://www.w3.org/2000/svg" viewBox="0 0 768 430"><style>.a{fill:#FDD9B5;}.b{fill:none;stroke-linejoin:round;stroke-width:0.8;stroke:#995A12;}.c{fill:#E1A7B3;}.d{fill:none;stroke-linejoin:round;stroke:#D06574;}.e{fill:none;stroke-linejoin:round;stroke:#995A12;}.f{fill:#D18B23;}.g{fill:#231F20;}.h{fill:#F3928D;}.i{fill:#E3E4E5;}.j{fill:#BA7F35;}.k{fill:#85451C;}.l{fill:none;stroke-linejoin:round;stroke:#A4A7A9;}.m{fill:#FCCFA8;}.n{fill:#A16016;}.o{fill:none;stroke-linejoin:round;stroke-width:0.9;stroke:#995A12;}.p{fill:#CB6F7F;}.q{fill:#FFC828;}.r{fill:#D0A6B0;}.s{fill:#D7AAAE;}.t{fill:#FFF;}.u{fill:#F1702B;}.v{fill:#3FA6C9;}.w{fill:#8DBACD;}.x{fill:none;stroke-linejoin:round;stroke-width:0.9;stroke:#009E97;}.y{fill:none;stroke-linejoin:round;stroke-width:0.9;stroke:#8C520C;}.z{fill:none;stroke-linejoin:round;stroke-width:0.9;stroke:#B66D1D;}.A{fill:#FBC49C;}.B{fill:#4588C4;}.C{fill:#A77542;}.D{fill:#D58E5D;}.E{fill:#D9A965;}.F{fill:none;stroke-linejoin:round;stroke-width:0.9;stroke:#006CA2;}.G{fill:none;stroke-linejoin:round;stroke-width:0.9;stroke:#BA8752;}.H{fill:#006CA2;}</style><polygon points="292.6 268.9 292 274 299 274.8 299.9 269.5 " class="a"/><path d="M304 259c0 0-0.6 3.1-0.6 4.3 -0.1 1.2 0.7 1.1 1.7 0.2 1-0.9 2.8-1.8 4.7-1.2 1.9 0.6 0.8 2.2-0.5 2.5 -1.2 0.4-1.6 0.5-4.9 3.8 -3.3 3.3-6.3 2.7-6.3 2.7s-2.1-0.5-2.8-0.6c-0.7-0.1-2.5 0.2-4.1-1.4 -1.7-1.6-1.4-4.6-1.7-8 -0.3-3.4-1.3-9.9-0.7-10.9 0.6-1 2.1-0.6 2.5 0.7 0.4 1.3 1.1 6.6 1.4 6.7 0.4 0.1 0.3 0.5 0.5-0.1 0.1-0.6-0.2-9.4 1-10 1.6-0.8 2.2 0.7 2.2 3.4 -0.1 2.7-0.3 6.8 0 6.9 0.3 0.1 0.5 0.3 0.6-0.2 0.1-0.5 1.1-10 2.5-10.4 1.2-0.4 2.5 0.1 2.1 2.6 -0.4 2.1-1.6 8.3-1.2 8.6 0.4 0.3 0.5 0 0.6-0.5 0.1-0.5 1.8-8.2 2.9-8.3C305.5 249.8 306.4 250.5 304 259z" class="a"/><path d="M301.8 263.5c0 0-4.6 0.4-4.9 5.2" class="b"/><path d="M291.8 260.5c0 0 5.6 0.1 9.6 1" class="b"/><path d="M312.1 328.5c-27.6-22.1-21.3-54.9-21.3-54.9 2.2 0.4 8.7 0.8 8.7 0.8 -6.3 26.7 13.4 41.9 13.4 41.9L312.1 328.5z" class="c"/><polygon points="347.8 268.9 348.4 274 341.4 274.8 340.5 269.5 " class="a"/><path d="M336.4 259c0 0 0.6 3.1 0.6 4.3 0.1 1.2-0.7 1.1-1.7 0.2s-2.8-1.8-4.7-1.2c-1.9 0.6-0.8 2.2 0.5 2.5 1.2 0.4 1.6 0.5 4.9 3.8 3.3 3.3 6.3 2.7 6.3 2.7s2.1-0.5 2.8-0.6c0.7-0.1 2.5 0.2 4.1-1.4s1.5-4.6 1.7-8c0.3-3.4 1.3-9.9 0.7-10.9 -0.6-1-2.1-0.6-2.5 0.7 -0.4 1.3-1.1 6.6-1.4 6.7 -0.4 0.1-0.3 0.5-0.5-0.1 -0.1-0.6 0.2-9.4-1-10 -1.6-0.8-2.2 0.7-2.2 3.4 0.1 2.7 0.3 6.8 0 6.9 -0.3 0.1-0.5 0.3-0.6-0.2 -0.1-0.5-1.1-10-2.5-10.4 -1.2-0.4-2.5 0.1-2.1 2.6 0.4 2.1 1.6 8.3 1.2 8.6 -0.4 0.3-0.5 0-0.6-0.5 -0.1-0.5-1.8-8.2-2.9-8.3C334.9 249.8 334 250.5 336.4 259z" class="a"/><path d="M338.6 263.5c0 0 4.6 0.4 4.9 5.2" class="b"/><path d="M348.7 260.5c0 0-5.6 0.1-9.6 1" class="b"/><path d="M328.3 328.5c27.6-22.1 21.3-54.9 21.3-54.9 -2.2 0.4-8.7 0.8-8.7 0.8 6.3 26.7-13.4 41.9-13.4 41.9L328.3 328.5z" class="c"/><path d="M314.6 398.9c4.2-0.9 5.9-3.1 5.9-3.1s6.1 5.6 10.4 2.5c-2-1.1-4.2-2.2-4.4-3.7 -0.4-3.3 2.9-24.4 2.9-24.4H312.2c0 0 3.3 21.1 2.9 24.4 -0.2 1.4-2 2.4-3.9 3.4C311.7 398.7 312.6 399.3 314.6 398.9z" class="a"/><path d="M341.4 370.1c0 0-3.3-3.1-5.3-10.6 -2-7.5-2.9-17.1-2.9-17.1H306.9c0 0-0.9 9.7-2.9 17.1 -2 7.5-5.3 10.6-5.3 10.6S321 376.4 341.4 370.1z" fill="#92B6CC"/><path d="M330.9 398.2c-4.3 3.1-10.4-2.5-10.4-2.5s-1.7 2.2-5.9 3.1c-2 0.4-2.9-0.2-3.4-1 -2.5 1.4-4.9 2.8-3.2 5.4 3.1 4.4 10.8-1.8 10.8-1.8l1.7-1.6 2.3 1.6c0 0 7.7 6.2 10.8 1.8C335.2 400.9 333.2 399.5 330.9 398.2z" class="c"/><path d="M302.6 302.7c0 0 2.1 39.9 2.5 41 0.4 1.1 6.6 1.1 12.1 1.1h6.2c5.5 0 10.4 0.5 10.9-0.6 0.4-1.1 0.9-33.8 0.9-33.8l5.3-10.7 -24.7 8.9L302.6 302.7z" class="c"/><path d="M333.6 320.8h-8.3c0 0-2.2 7.2 2.8 8.3C333 330.2 333.6 320.8 333.6 320.8z" class="d"/><line x1="320.5" y1="373" x2="320.5" y2="399.9" class="e"/><path d="M319.9 269.4c0 0 1.5-6.8 8.4-6.4 6.8 0.4 4.8 4.2 8.6 4.6 3.7 0.4 6.8 3.3 6.6 6.6 -0.2 3.3-0.4 4 0.7 5.1 1.1 1.1 5.9 1.5 6.2 4.4 0 0 0 6.2 2.6 7.7 2.6 1.5 2.6 1.5 2.6 1.5s-6.6 0.4-9.5-0.4c-2.9-0.9-19.1-13.8-19.1-13.8L319.9 269.4z" class="f"/><path d="M320.5 319.3c2.2-1 5-6.5 6.9-10.7l-6.9 0 -8.8 0C314.1 313.4 318.1 320.4 320.5 319.3z" class="a"/><path d="M299.9 289.2c0 0-3.3-5.3-6.8-1.5 -3.5 3.7 2.6 11.2 5.3 11 2.6-0.2 2.6-1.8 2.6-1.8L299.9 289.2z" class="a"/><path d="M340.4 289.2c0 0 3.3-5.3 6.8-1.5 3.5 3.7-2.6 11.2-5.3 11 -2.6-0.2-2.6-1.8-2.6-1.8L340.4 289.2z" class="a"/><path d="M312.8 272.5c0 0 0-5.3 6.4-4.8 6.4 0.4 8.4 3.3 7 5.3C324.9 274.9 312.8 272.5 312.8 272.5z" fill="#F9A62B"/><path d="M319.9 274.9c11 0 20.1 8 21.2 18.2 0.1-0.7 0.1-1.5 0.1-2.2 0-11.3-9.6-20.4-21.3-20.4 -11.8 0-21.3 9.2-21.3 20.4 0 0.8 0.1 1.5 0.1 2.2C299.8 282.9 308.9 274.9 319.9 274.9z" class="f"/><path d="M319.9 311.4c11 0 20.1-8 21.2-18.2 -1.2-10.3-10.2-18.2-21.2-18.2 -11 0-20.1 8-21.2 18.2C299.8 303.4 308.9 311.4 319.9 311.4z" class="a"/><path d="M298.6 294.7c0 0-1.8 0-1.8-1.5 0-1.5 0-1.5 0-1.5s0.7-3.1-0.9-2.6c-1.5 0.4-1.3 1.8-1.3 1.8" class="e"/><path d="M341.7 294.7c0 0 1.8 0 1.8-1.5 0-1.5 0-1.5 0-1.5s-0.7-3.1 0.9-2.6c1.5 0.4 1.3 1.8 1.3 1.8" class="e"/><path d="M314.3 284.7c0 1.2-0.6 2.1-1.3 2.1 -0.7 0-1.4-1-1.4-2.1 0-1.2 0.6-2.1 1.4-2.1C313.7 282.6 314.3 283.5 314.3 284.7z" class="g"/><path d="M328.6 284.7c0 1.2-0.6 2.1-1.3 2.1 -0.7 0-1.4-1-1.4-2.1 0-1.2 0.6-2.1 1.4-2.1C328 282.6 328.6 283.5 328.6 284.7z" class="g"/><polyline points=" 317.2 289.9 320.5 284.3 323.6 289.9 " class="e"/><path d="M326.9 292.3c0 0-5.7 3-12.7 0 0 0 0.6 9.2 6.3 9.6C326.2 302.2 326.9 292.3 326.9 292.3z" class="h"/><line x1="332.4" y1="323.6" x2="324.7" y2="323.6" class="d"/><path d="M326.9 271.8c0 0 12.7 2.5 14.6 15.2" class="e"/><path d="M415 193.6c0 0 9.6-18.9 9.6-27.2 0 0-2.3-1.9-1.9-3.8 0.4-1.9 1.5-3.8 1.5-3.8s-2.9-29.4-3.1-31.8c0 0 6.9 6 15.2-0.8 0 0 5.2 34 4.1 42.3s-18.4 60.7-21.8 61.9C415.2 231.6 415 193.6 415 193.6z" class="i"/><path d="M372.6 193.6c0 0-9.6-18.9-9.6-27.2 0 0 2.3-1.9 1.9-3.8s-1.5-3.8-1.5-3.8 2.9-29.4 3.1-31.8c0 0-6.9 6-15.2-0.8 0 0-5.2 34-4.1 42.3s18.4 60.7 21.8 61.9C372.4 231.6 372.6 193.6 372.6 193.6z" class="i"/><path d="M400.8 395.1c0 0 0 0-1.8 0s-5.4-1.8-5.4-1.8 0 0-2.9 1.5c-2.9 1.5-5.5 0.5-5.5 0.5s-5.5 4.5-11.3 5.5c-3.7 0.6-7.2 0.7-9.3 0.6 1 2.9 1.7 2.9 1.7 2.9s7.8 0.8 12.6-0.5c4.8-1.3 8.8-5.8 8.8-5.8s2 0 3.5 0c1.5 0 2.3-1 2.3-1s3.2 2.3 6.7 1c0 0 4 4.5 8.8 5.8 4.8 1.3 12.6 0.5 12.6 0.5s0.8 0 1.8-3c0.1-0.2 0.1-0.4 0.1-0.6C410.3 401.9 400.8 395.1 400.8 395.1z" class="j"/><path d="M373.9 400.9c5.8-1 11.3-5.5 11.3-5.5s2.7 1 5.5-0.5c2.9-1.5 2.9-1.5 2.9-1.5s3.7 1.8 5.4 1.8 1.8 0 1.8 0 9.5 6.9 22.7 5.7c0.4-2.8-2.7-5.2-7.1-7.7 -4.8-2.8-11.1-10.3-11.1-10.3h-22.6c0 0-6.3 7.5-11.1 10.3 -4.8 2.8-8.1 5.3-7 8.3 0 0 0 0.1 0 0.1C366.6 401.5 370.1 401.5 373.9 400.9z" class="k"/><line x1="393" y1="385" x2="393" y2="289.6" style="fill:#FFF;stroke-linejoin:round;stroke:#995A12"/><path d="M416.9 266.9c-18.9 7.7-38.7 3.3-45.8 1.2 0.7 14.7 2.8 52.4 5.8 63.3 3.8 13.6 5.3 35.2 5.3 39.8s-2.5 11.8-2.5 11.8 4.3 2.3 7.8 2.3c3.5 0 5.5-0.2 5.5-0.2h2c0 0 2 0.3 5.5 0.3s7.8-2.3 7.8-2.3 -2.5-7.3-2.5-11.8 1.5-26.2 5.3-39.8C414.2 320.2 416.3 280.6 416.9 266.9z" class="j"/><path d="M416.9 266.9c0.1-2.9 0.2-4.7 0.2-4.7h-46.3c0 0 0.1 2.2 0.3 5.9C378.3 270.2 398 274.6 416.9 266.9z" class="k"/><path d="M388.2 266.5v5.5c0 0 2.7 0.3 5.4 0.5 2.7 0.3 5.7-0.5 5.7-0.5v-5.5H388.2z" fill="#96999B"/><path d="M381.4 265c0 0.8 0 6.8 0 6.8l-3.5-0.2v-7.3L381.4 265z" class="j"/><path d="M407.1 265c0 0.8 0 6.8 0 6.8l3.5-0.2v-7.3L407.1 265z" class="j"/><path d="M365.3 196c0 0-0.4 28.4 0.6 35.8 1 7.4 2.6 16.6 2.9 21s-0.2 7.7 0 8.7c0.2 1 3.3 3 4.6 3.5 1.3 0.5 12.1 2.2 17.8 2.2h4.4c5.7 0 16.4-1.7 17.8-2.2 1.3-0.5 5.6-2.5 5.8-3.5 0.2-1-0.3-4.4 0-8.7 0.3-4.4 0.8-13.6 1.8-21s0.4-34.3 0.4-34.3l-16.7-11.1h-20.7L365.3 196z" class="i"/><path d="M390.1 200.1c0 0 0.9 6.6 2.2 6.5 1.3-0.1 2.8 0.7 3.4 0.2 0.6-0.5 2.4-7.5 2.4-7.5l-3-2L390.1 200.1z" class="g"/><path d="M392.1 206.2c0 0-2.7 39.2-2.3 40.8 0.3 1.5 3.7 6.4 3.7 6.4s5.1-6 5.2-7.5c0.1-1.5-3.5-39.7-3.5-39.7L392.1 206.2z" class="g"/><path d="M384.5 216.3c0 0-10.4 1.2-14.4-0.3 0 0-0.2 15.9 1.8 16.4 2 0.5 10.4 1.7 11.7-1C385 228.7 384.5 216.3 384.5 216.3z" class="l"/><path d="M384.7 221.9c0 0-9.7 2.2-14.4 0.2" class="l"/><path d="M402.3 216.3c0 0 10.4 1.2 14.4-0.3 0 0 0.2 15.9-1.8 16.4 -2 0.5-10.4 1.7-11.7-1C401.8 228.7 402.3 216.3 402.3 216.3z" class="l"/><path d="M402.1 221.9c0 0 9.7 2.2 14.4 0.2" class="l"/><path d="M382.2 188.9c0 0-0.1 5.3 0.1 8.9 0.2 3.6 1.6 7.9 1.6 7.9s6.2-6 10.4-5.8c4.2 0.2 8.8 6.7 8.8 6.7s2.3-12.3 0.6-17.8C402 183.2 382.2 188.9 382.2 188.9z" fill="#5A5B5D"/><path d="M387.7 190.1c0 0 2.1 9.5 5.9 9.7 3.8 0.2 5.2-9.1 5.2-9.1L387.7 190.1z" class="m"/><path d="M375.5 170.5c0 0-3.1-4.9-3.8-8.6 -0.7-3.7-1.2-7.8-1.7-9.6 -0.6-1.9-2-4.2-0.7-6.4 1.3-2.2 3.1-2.7 3.2-5.8 0.1-3.1 0.2-5.2 2.9-6 2.7-0.8 3.1-0.7 3.6-1.7 0.5-1 2.4-4.6 4.9-4.6 2.4 0 4.1 1.4 5.8 0.8 0 0 1.9-3.5 7.3 0 1.7 0.6 3.4-0.8 5.8-0.8s4.4 3.6 4.9 4.6c0.5 1 0.9 0.9 3.6 1.7 2.7 0.8 2.8 2.9 2.9 6 0.1 3.1 2 3.6 3.2 5.8 1.3 2.2-0.1 4.5-0.7 6.4 -0.6 1.9-1 5.9-1.7 9.6 -0.7 3.7-3.8 8.6-3.8 8.6" class="n"/><path d="M372 159.6c0 0-3.5-2.3-5.4 1 -2 3.4-0.5 10.3 1.9 12.4 2.3 2.1 9 5.8 9.8 3.1C379.1 173.5 372 159.6 372 159.6z" class="m"/><path d="M376 172.7c0 0-4.7-0.5-4.4-2.5 0.3-2.1 0.9-2.7 0.9-2.7s-3-6.1-4.3-4.3c-1.3 1.9 0 4.4 0 4.4" class="e"/><path d="M414.5 159.6c0 0 3.5-2.3 5.4 1 2 3.4 0.5 10.3-1.9 12.4 -2.3 2.1-9 5.8-9.8 3.1C407.5 173.5 414.5 159.6 414.5 159.6z" class="m"/><path d="M410.6 172.7c0 0 4.7-0.5 4.4-2.5 -0.3-2.1-0.9-2.7-0.9-2.7s3-6.1 4.3-4.3c1.3 1.9 0 4.4 0 4.4" class="e"/><path d="M395.5 187.9l-2.3-4.2 -3 4.6 -2.3-2.4 -2.2 4.7c2.1 0.3 4.5 0.7 6.3 0.7h2.7c1.4 0 3.3-0.2 5.1-0.5 -0.7-1.8-1.8-4.9-2-5C397.3 185.7 395.5 187.9 395.5 187.9z" class="n"/><path d="M406.9 142.2c-3.1-0.8-5.6 0.6-7.1 2.4 -1.5 1.9-4.6 2.2-4.6 2.2s-2.9 0-3.8 0c0 0-3.1-0.3-4.6-2.2 -1.5-1.9-3.9-3.2-7.1-2.4 -3.1 0.8-4.9 10.5-4.9 14.2 0 3.7 0.3 9.1 1.6 17.7 1.3 8.6 4.7 15.5 4.7 15.5s2 0.4 4.5 0.8l2.2-4.7 2.3 2.4 3-4.6 2.3 4.2c0 0 1.7-2.2 2.1-2.1 0.2 0.1 1.4 3.1 2 5 3-0.4 5.7-1 5.7-1s3.5-6.9 4.7-15.5c1.3-8.6 1.6-14 1.6-17.7C411.8 152.8 410 143.1 406.9 142.2z" class="m"/><path d="M390.3 157.6c0 1.5-0.8 2.7-1.9 2.7 -1 0-1.9-1.2-1.9-2.7 0-1.5 0.8-2.7 1.9-2.7C389.4 154.9 390.3 156.1 390.3 157.6z" class="g"/><path d="M400.6 157.6c0 1.5-0.8 2.7-1.9 2.7 -1 0-1.9-1.2-1.9-2.7 0-1.5 0.8-2.7 1.9-2.7C399.7 154.9 400.6 156.1 400.6 157.6z" class="g"/><polyline points=" 393.6 158.4 398.9 173.4 390.6 173.4 " class="e"/><line x1="383.5" y1="266.3" x2="380.8" y2="258.6" class="l"/><line x1="379.5" y1="265.3" x2="377.5" y2="260.6" class="l"/><line x1="403.3" y1="265" x2="405" y2="259.3" class="l"/><line x1="384.8" y1="289.8" x2="402.6" y2="289.8" class="e"/><line x1="393.6" y1="290.2" x2="393.6" y2="385" class="e"/><path d="M390.6 289.8c0 0 0-5.7 0-7s0.3-9.7 0.3-9.7" class="e"/><polyline points=" 398.9 273 397.6 279.1 397.3 282.4 397.3 289.5 " class="e"/><path d="M398.3 280.4c0 0 13.1-1.7 13.1-0.7 0 1-1 2.7-1 2.7" class="e"/><line x1="398.9" y1="277.1" x2="409" y2="274.7" class="e"/><line x1="390.2" y1="280.7" x2="381.2" y2="280.1" class="e"/><line x1="390.2" y1="277.7" x2="381.2" y2="275.7" class="e"/><path d="M379.5 270.7c-0.3 1-2.3 10.7-7.4 13.4" class="e"/><path d="M409 270.3c0 0 2.3 8.1 7 11.7" class="e"/><path d="M386.2 383.4c0 0 0.3-23.8-0.7-30.5" class="e"/><path d="M402 382.4c0 0 1.3-16.4 1.3-27.5" class="e"/><path d="M365.3 207.3c0 0-0.3 19.8 0.6 24.4" class="l"/><line x1="420.8" y1="209.1" x2="419.8" y2="236.9" class="l"/><polygon points="354.7 112.8 353.8 120.5 364.5 121.7 365.8 113.6 " class="m"/><path d="M366.5 127.1c0 0-6.9 6-15.2-0.8l1.4-8.6c0 0 3.3 1.5 8.2 1.5 4.9 0 6.4-0.4 6.4-0.4L366.5 127.1z" class="i"/><path d="M372 97.6c0 0-0.9 4.7-1 6.6 -0.1 1.8 1.1 1.7 2.7 0.3 1.6-1.4 4.3-2.7 7.2-1.8 2.9 0.9 1.1 3.3-0.7 3.9 -1.8 0.5-2.5 0.7-7.4 5.8 -5 5.1-9.6 4.1-9.6 4.1s-3.1-0.8-4.2-0.9c-1.1-0.1-3.8 0.3-6.3-2.1 -2.5-2.4-2.2-7-2.6-12.1 -0.4-5.1-1.9-15.1-1.1-16.6 0.9-1.5 3.3-1 3.8 1 0.5 2 1.6 10 2.2 10.1 0.5 0.1 0.5 0.7 0.7-0.2 0.2-0.9-0.3-14.2 1.5-15.2 2.4-1.2 3.4 1.1 3.3 5.2 -0.1 4.1-0.4 10.3 0 10.5 0.4 0.2 0.8 0.5 1-0.3 0.2-0.8 1.7-15.1 3.8-15.8 1.7-0.5 3.8 0.1 3.1 4 -0.5 3.3-2.4 12.6-1.9 13 0.6 0.4 0.8 0 1-0.7 0.2-0.8 2.7-12.5 4.3-12.6C374.3 83.8 375.7 84.8 372 97.6z" class="m"/><path d="M368.7 104.5c0 0-7 0.6-7.4 7.9" class="o"/><path d="M353.5 100c0 0 8.5 0.2 14.6 1.5" class="o"/><path d="M352.6 127.2c0 0 6.8 2.7 12.3 0.9" class="l"/><polygon points="433 112.8 433.8 120.5 423.2 121.7 421.9 113.6 " class="m"/><path d="M421.1 127.1c0 0 6.9 6 15.2-0.8l-1.4-8.6c0 0-3.3 1.5-8.2 1.5 -4.9 0-6.4-0.4-6.4-0.4L421.1 127.1z" class="i"/><path d="M415.7 97.6c0 0 0.9 4.7 1 6.6 0.1 1.8-1.1 1.7-2.6 0.3 -1.6-1.4-4.3-2.7-7.2-1.8 -2.9 0.9-1.1 3.3 0.7 3.9 1.8 0.5 2.5 0.7 7.4 5.8 5 5.1 9.6 4.1 9.6 4.1s3.1-0.8 4.2-0.9c1.1-0.1 3.8 0.3 6.3-2.1 2.5-2.4 2.2-7 2.6-12.1 0.4-5.1 1.9-15.1 1.1-16.6 -0.9-1.5-3.3-1-3.8 1 -0.5 2-1.6 10-2.2 10.1 -0.5 0.1-0.5 0.7-0.7-0.2 -0.2-0.9 0.3-14.2-1.5-15.2 -2.4-1.2-3.4 1.1-3.3 5.2 0.1 4.1 0.4 10.3 0 10.5 -0.4 0.2-0.8 0.5-1-0.3 -0.2-0.8-1.7-15.1-3.8-15.8 -1.7-0.5-3.8 0.1-3.1 4 0.5 3.3 2.4 12.6 1.9 13 -0.6 0.4-0.8 0-1-0.7 -0.2-0.8-2.7-12.5-4.3-12.6C413.4 83.8 411.9 84.8 415.7 97.6z" class="m"/><path d="M418.9 104.5c0 0 7 0.6 7.4 7.9" class="o"/><path d="M434.2 100c0 0-8.5 0.2-14.6 1.5" class="o"/><path d="M435 127.2c0 0-6.8 2.7-12.3 0.9" class="l"/><polygon points="400.2 177 387.5 177 393.5 183.1 " class="h"/><polygon points="498.5 170 499.8 179.1 493.1 179.8 491.6 170.4 " class="a"/><path d="M486.9 157c0 0 0.8 4.3 0.8 5.8 0.1 1.5-1.6 1.4-2.9 0.2 -1.2-1.2-3.2-2.6-5.4-1.8 -2.2 0.7-0.9 2.7 0.6 3.2 1.4 0.5 1.9 0.6 5.7 4.9 3.9 4.2 7.4 3.4 7.4 3.4s2.4-0.6 3.2-0.7c0.9-0.1 2.9 0.3 4.8-1.7 1.9-2 1.6-5.8 1.9-10 0.3-4.3 1.4-12.5 0.7-13.8 -0.7-1.3-1.8-0.9-2.2 0.7 -0.4 1.6-1.3 8.4-1.7 8.5 -0.4 0.1-1 0.6-1.1-0.2 -0.2-0.7 0-12.7-1.6-12.7 -1.6 0-1.9 1-1.8 4.4 0.1 3.4 0 8.5-0.3 8.7 -0.3 0.2-0.9 0.4-1-0.3 -0.2-0.6-2.2-13.4-3.4-13.3 -1.2 0.2-1.9 0.7-1.5 3.4 0.4 2.7 2.1 10.5 1.7 10.8 -0.4 0.3-1 0-1.2-0.6 -0.2-0.6-2.1-10.6-3.4-10.4C485 145.8 483.9 146.3 486.9 157z" class="a"/><path d="M488.7 162.7c0 0 5.4 0.5 5.8 6.6" class="e"/><path d="M500.4 159.1c0 0-6.5 0.1-11.2 1.1" class="e"/><polygon points="426.3 170 425.1 179.1 431.8 179.8 433.3 170.4 " class="a"/><path d="M450 245.9c0 0-14.6-22.7-15.5-41.6 -0.9-18.8 0.3-29.4 0.3-29.4l-11.2-0.6c0 0-3.6 27.3 2.1 45.2 5.8 17.9 18.9 42.4 18.9 42.4 0.7 0.6 4.2 17.3 3.2 21.2 -0.4 1.5-2.5 6.1-2.5 6.1s-7.9 16.3-8.1 26c-0.1 3.3-0.7 8.5-1.4 14 3.7-0.2 8.5-0.2 12.1 0.9 6.8 2.2 20.7 4 26.1 3.1 3.8-0.7 8.4-4 14-5 -0.7-5.1-1.2-9.9-1.3-12.9 -0.2-9.7-8.1-26-8.1-26s-1.2-2.4-1.6-3.9c0 0-0.9-0.8-0.9-2.6 0-1.8 1.1-13.9 1.1-13.9l2.6-6.8c0 0 13.7-24.5 19.4-42.4 5.8-17.9 2.1-45.2 2.1-45.2l-11.2 0.6c0 0 1.2 10.6 0.3 29.4 -0.9 18.8-16 41.6-16 41.6H450z" class="p"/><path d="M479 393.4c0 0-1.4-0.3-3.3-1 -6.3 6.3-13.9-2.7-13.9-2.7s-2.9 3.9-6.9 3.9c-2 0-4.1-1-5.6-2 -2.7 1.1-5.3 1.8-5.3 1.8s-7.5 4.1-2.8 8c4.8 3.9 14.3 0.4 16.5-1.3l4.1-2.8 3.5 2.8c2.2 1.7 11.7 5.2 16.5 1.3C486.5 397.5 479 393.4 479 393.4z" fill="#C62A21"/><path d="M461.8 389.8c0 0 7.6 9 13.9 2.7 -3.3-1.1-7.9-3.2-8.1-6.1 -0.2-4.5 4.4-34.1 4.4-34.1h-21.1c0 0 4.6 29.6 4.4 34.1 -0.1 2.3-3.1 4.2-6 5.4 1.5 1 3.6 2 5.6 2C458.9 393.7 461.8 389.8 461.8 389.8z" class="a"/><path d="M453.3 391.3c0 0-0.4-1.9-2.2-1.9s-1.6 1.3-1.2 1.9c0.4 0.6-4.4-0.4-3.8 2.2 0.6 2.6 3.4 1.3 3.4 1.3s-1.6 1.9 1 1.7c2.6-0.2 3-2.6 3-2.6s1.6 2.2 2.6 0C457.1 391.7 453.3 391.3 453.3 391.3z" class="q"/><ellipse cx="451.3" cy="392.7" rx="2.3" ry="1.2" class="r"/><path d="M469.6 391.3c0 0 0.4-1.9 2.2-1.9 1.8 0 1.6 1.3 1.2 1.9 -0.4 0.6 4.4-0.4 3.8 2.2 -0.6 2.6-3.4 1.3-3.4 1.3s1.6 1.9-1 1.7c-2.6-0.2-3-2.6-3-2.6s-1.6 2.2-2.6 0C465.9 391.7 469.6 391.3 469.6 391.3z" class="q"/><ellipse cx="471.7" cy="392.7" rx="2.3" ry="1.2" class="r"/><line x1="461.8" y1="354" x2="461.8" y2="396" class="b"/><path d="M447.7 346.6c-4.6-1.5-11.1-1.1-14.7-0.7 -0.6 3.3-0.9 5.4-0.9 5.4s3.6-2.2 9.1 0.9c5.6 3 13.6 3.2 17.1 2.8h7c3.5 0.4 11.5 0.2 17.1-2.8 5.6-3 9.1-0.9 9.1-0.9s-0.5-2.9-1.2-7c-6.8 0.3-12.1 4.6-16.5 5.3C468.4 350.6 454.5 348.8 447.7 346.6z" class="p"/><path d="M473.8 333.1c-5.4 0.9-19.3-0.9-26.1-3.1 -3.7-1.2-8.4-1.2-12.1-0.9 -0.3 1.9-0.5 3.7-0.8 5.6 3.7-0.3 9-0.4 12.9 0.9 6.8 2.2 20.7 4 26.1 3.1 4-0.7 8.8-4.3 14.8-5.2 -0.3-1.8-0.5-3.6-0.8-5.4C482.2 329.1 477.6 332.4 473.8 333.1z" class="s"/><path d="M447.7 335.5c-3.9-1.2-9.2-1.2-12.9-0.9 -0.3 2.1-0.6 4.1-0.9 5.9 3.8-0.4 9.6-0.6 13.8 0.8 6.8 2.2 20.7 4 26.1 3.1 4.2-0.7 9.3-4.6 15.7-5.3 -0.3-1.8-0.6-3.8-0.9-5.8 -6 0.9-10.8 4.5-14.8 5.2C468.4 339.5 454.5 337.7 447.7 335.5z" class="p"/><path d="M447.7 341.4c-4.3-1.4-10.1-1.1-13.8-0.8 -0.3 2-0.6 3.8-0.9 5.3 3.7-0.4 10.1-0.8 14.7 0.7 6.8 2.2 20.7 4 26.1 3.1 4.4-0.8 9.7-5 16.5-5.3 -0.3-1.6-0.5-3.3-0.8-5.2 -6.4 0.6-11.5 4.6-15.7 5.3C468.4 345.4 454.5 343.5 447.7 341.4z" class="s"/><path d="M461.8 251.6c10.1 0 12.4-1.5 13-5.9 -3.5-0.8-6.4-2.9-6.8-3.2 -1-0.9-0.8-6.7-0.8-6.7l-10.9 0.2c0 0 0.2 5.8-0.8 6.7 -0.3 0.3-3.3 3.2-6.9 2.4C448.7 248.1 450.5 251.6 461.8 251.6z" class="a"/><path d="M476.2 229.8c0 0 1.2 2.4 8.1 1.7 7-0.6 7.6-13 7.6-13s0 3.7-3.4 3.9c-3.4 0.2-3.2-7.3-2.4-13.4s2.4-20.3-8.9-24.8c-11.3-4.5-15.4 3.5-15.4 3.5s-3.5-8-14.8-3.5c-11.3 4.5-9.3 18.8-8.5 24.8s1 13.6-2.4 13.4c-3.4-0.2-3.4-3.9-3.4-3.9s0.6 12.3 7.6 13c7 0.6 8.1-1.7 8.1-1.7H476.2z" fill="#CE7823"/><path d="M464.1 240.8c0 0 14.7-5.8 17.1-19 2.4-13.2-6.4-24.6-6.4-24.6 0.4 5.8-3.8 8.9-3.8 8.9 1-11.7-7.2-10.6-7.2-10.6h-3.2c0 0-8.1-1.1-7.2 10.6 0 0-4.2-3-3.8-8.9 0 0-8.7 11.4-6.4 24.6 2.4 13.2 17.1 19 17.1 19S462.1 242.3 464.1 240.8z" class="a"/><path d="M458.3 218.7c0 0 8.6-5.4 9-4.3 0.5 1.2-2.4 9.7-2.4 9.7" class="b"/><path d="M463.7 215.4c0 0-1.4-2.1-1.4-4.7" class="b"/><path d="M455.7 211.5c0 1.3-0.8 2.4-1.8 2.4 -1 0-1.8-1.1-1.8-2.4s0.8-2.4 1.8-2.4C454.9 209.1 455.7 210.2 455.7 211.5z" class="g"/><ellipse cx="470.1" cy="211.5" rx="1.8" ry="2.4" class="g"/><polygon points="465.7 226.8 457.9 226.8 461.8 233.7 " class="h"/><path d="M458.8 253.3c-0.2 0.4-5.5 8.9-5.5 14.5 0 0.5 0.4 0.9 0.8 0.9 0.4 0 0.8-0.4 0.8-0.9 0-5.1 5.2-13.5 5.2-13.5 0.2-0.4 0.1-0.9-0.2-1.2C459.6 252.8 459.1 252.9 458.8 253.3z" class="t"/><path d="M464.1 253.3c0.2 0.4 5.5 8.9 5.5 14.5 0 0.5-0.4 0.9-0.8 0.9 -0.4 0-0.8-0.4-0.8-0.9 0-5.1-5.2-13.5-5.2-13.5 -0.2-0.4-0.1-0.9 0.2-1.2C463.3 252.8 463.8 252.9 464.1 253.3z" class="t"/><path d="M451 250.2c-0.5 0.4-0.8 0.9-0.8 1.5l-0.1 1.3c-0.3 3.3-0.4 5.4 0.6 6.3 0.3 0.3 0.8 0.5 1.2 0.4 1.7-0.2 8-5 9.3-6 0.4-0.3 0.4-0.8 0.2-1.2 -0.2-0.3-0.6-0.4-0.9-0.3 0.3-0.1 0.5-0.2 0.6-0.5 0-0.1 0-0.2 0-0.2 0-0.4-0.2-0.7-0.6-0.8C459.3 250.4 453.1 248.6 451 250.2zM451.6 253.2l0.1-1.3c0-0.1 0-0.2 0.1-0.2 1.1-0.8 5.5 0 8.2 0.8 0 0 0.1 0 0.1 0 -3.5 2.7-7.7 5.5-8.5 5.6C451.3 257.7 451.5 254.7 451.6 253.2z" class="t"/><path d="M462.4 250.8c-0.3 0.1-0.6 0.5-0.6 0.8 0 0.1 0 0.2 0 0.2 0.1 0.3 0.3 0.4 0.6 0.5 -0.3-0.1-0.7 0-0.9 0.3 -0.3 0.4-0.2 0.9 0.2 1.2 1.3 1 7.6 5.7 9.3 6 0.5 0.1 0.9-0.1 1.2-0.4 0.9-0.9 0.8-3 0.6-6.3l-0.1-1.3c0-0.6-0.3-1.2-0.8-1.5C469.8 248.6 463.6 250.4 462.4 250.8zM471.3 258.1c-0.9-0.1-5-3-8.5-5.6 0 0 0.1 0 0.1 0 2.7-0.8 7.1-1.6 8.2-0.8 0.1 0.1 0.1 0.2 0.1 0.2l0.1 1.3C471.4 254.7 471.6 257.7 471.3 258.1z" class="t"/><path d="M463.9 251c0 0-4.2-1.7-4.4 0.2 -0.2 1.9 0.1 3.7 1.2 3.5 1.1-0.2 2.4 0.2 2.4 0.2L463.9 251z" class="t"/><path d="M442 344.4c0 0 5.4-11.2 5.8-21.5" class="b"/><path d="M456.4 347.4c0 0-0.9-12.2-0.4-22" class="b"/><path d="M469.9 344.9c0 0 1.8-13.7 1.8-19" class="b"/><path d="M482.9 345.4c0 0-3.1-14.2-3.1-22.5" class="b"/><path d="M461.8 189.4c0 0-4-2.2-8.5-0.7" class="b"/><path d="M460.9 192.5c0 0-3.6-2.4-6.3 0" class="b"/><path d="M465.4 189.1c0 0 3.6-3.4 9-0.5" class="b"/><path d="M466.3 192c0 0 1.8-2 5.8 0" class="b"/><path d="M438 157c0 0-0.8 4.3-0.8 5.8 -0.1 1.5 1.6 1.4 2.9 0.2 1.2-1.2 3.2-2.6 5.4-1.8 2.2 0.7 0.9 2.7-0.6 3.2 -1.4 0.5-1.9 0.6-5.7 4.9 -3.9 4.2-7.4 3.4-7.4 3.4s-2.4-0.6-3.2-0.7c-0.8-0.1-2.9 0.3-4.8-1.7 -1.9-2-1.6-5.8-1.9-10 -0.3-4.3-1.4-12.5-0.7-13.8 0.7-1.3 1.8-0.9 2.2 0.7 0.4 1.6 1.3 8.4 1.7 8.5 0.4 0.1 1 0.6 1.1-0.2 0.2-0.7 0-12.7 1.6-12.7 1.6 0 1.9 1 1.8 4.4 -0.1 3.4 0 8.5 0.3 8.7 0.3 0.2 0.9 0.4 1-0.3 0.2-0.6 2.2-13.4 3.4-13.3 1.2 0.2 1.9 0.7 1.5 3.4 -0.4 2.7-2.1 10.5-1.7 10.8 0.4 0.3 1 0 1.2-0.6 0.2-0.6 2.1-10.6 3.4-10.4C439.8 145.8 440.9 146.3 438 157z" class="a"/><path d="M436.1 162.7c0 0-5.4 0.5-5.7 6.6" class="e"/><path d="M424.5 159.1c0 0 6.5 0.1 11.2 1.1" class="e"/><polyline points="572.9 178.3 579.8 177 579.7 182 575.9 184.3 570.4 180.9 572.9 178.6 " class="u"/><path d="M543.3 178.6l-7.1-3.4c0 0 0.6 4.6 1 4.8 0.4 0.2 3.4 4 3.4 4s4.2 0.5 4-1S543.3 178.6 543.3 178.6z" class="u"/><path d="M542.3 182.7c0 0-11.9-29.9-11.9-38.2 0 0 0.4-1.9 0.1-3.8s0.3-3.8 0.3-3.8 0.7-29.4 0.9-31.8c0 0-6.9 6-15.2-0.8 0 0-4.4 32.2-3.2 40.5s17.6 76.7 21 77.9C537.6 223.9 542.3 182.7 542.3 182.7z" class="u"/><polygon points="519.9 90.9 519 98.6 529.7 99.8 531 91.7 " class="m"/><path d="M531.7 105.2c0 0-6.9 6-15.2-0.8l1.4-8.6c0 0 3.3 1.5 8.2 1.5s6.4-0.4 6.4-0.4L531.7 105.2z" class="u"/><path d="M537.2 75.7c0 0-0.9 4.7-1 6.6 -0.1 1.8 1.1 1.7 2.7 0.3 1.6-1.4 4.3-2.7 7.2-1.8 2.9 0.9 1.1 3.3-0.7 3.9 -1.8 0.5-2.5 0.7-7.4 5.8 -5 5.1-9.6 4.1-9.6 4.1s-3.1-0.8-4.2-0.9c-1.1-0.1-3.8 0.3-6.3-2.1 -2.5-2.4-2.2-7-2.6-12.1 -0.4-5.1-1.9-15.1-1.1-16.6 0.9-1.5 3.3-1 3.8 1 0.5 2 1.6 10 2.2 10.1 0.5 0.1 0.5 0.7 0.7-0.2 0.2-0.9-0.3-14.2 1.5-15.2 2.4-1.2 3.4 1.1 3.3 5.2 -0.1 4.1-0.4 10.3 0 10.5 0.4 0.2 0.8 0.5 1-0.3 0.2-0.8 1.7-15.1 3.8-15.8 1.8-0.5 3.8 0.1 3.1 4 -0.5 3.3-2.4 12.6-1.9 13 0.6 0.4 0.8 0 1-0.7 0.2-0.8 2.7-12.5 4.3-12.6C539.5 61.9 540.9 62.9 537.2 75.7z" class="m"/><path d="M533.9 82.6c0 0-7 0.6-7.4 7.9" class="o"/><path d="M518.7 78.1c0 0 8.5 0.2 14.6 1.5" class="o"/><path d="M575.1 182.7c0 0 11.9-29.9 11.9-38.2 0 0-0.4-1.9-0.1-3.8s-0.3-3.8-0.3-3.8 -0.7-29.4-0.9-31.8c0 0 6.9 6 15.2-0.8 0 0 4.4 32.2 3.2 40.5s-17.6 76.7-21 77.9C579.9 223.9 575.1 182.7 575.1 182.7z" class="u"/><polygon points="597.6 90.9 598.4 98.6 587.8 99.8 586.5 91.7 " class="m"/><path d="M585.8 105.2c0 0 6.9 6 15.2-0.8l-1.4-8.6c0 0-3.3 1.5-8.2 1.5s-6.4-0.4-6.4-0.4L585.8 105.2z" class="u"/><path d="M580.3 75.7c0 0 0.9 4.7 1 6.6 0.1 1.8-1.1 1.7-2.6 0.3 -1.6-1.4-4.3-2.7-7.2-1.8 -2.9 0.9-1.1 3.3 0.7 3.9 1.8 0.5 2.5 0.7 7.4 5.8 5 5.1 9.6 4.1 9.6 4.1s3.1-0.8 4.2-0.9c1.1-0.1 3.8 0.3 6.3-2.1 2.5-2.4 2.2-7 2.6-12.1 0.4-5.1 1.9-15.1 1.1-16.6 -0.9-1.5-3.3-1-3.8 1 -0.5 2-1.6 10-2.2 10.1 -0.5 0.1-0.5 0.7-0.7-0.2 -0.2-0.9 0.3-14.2-1.5-15.2 -2.4-1.2-3.4 1.1-3.3 5.2 0.1 4.1 0.4 10.3 0 10.5 -0.4 0.2-0.8 0.5-1-0.3 -0.2-0.8-1.7-15.1-3.8-15.8 -1.7-0.5-3.8 0.1-3.1 4 0.5 3.3 2.4 12.6 1.9 13 -0.6 0.4-0.8 0-1-0.7 -0.2-0.8-2.7-12.5-4.3-12.6C578 61.9 576.5 62.9 580.3 75.7z" class="m"/><path d="M583.6 82.6c0 0 7 0.6 7.4 7.9" class="o"/><path d="M598.8 78.1c0 0-8.5 0.2-14.6 1.5" class="o"/><path d="M593.1 405.9c-4.1-3.4-6.8-4.5-12.6-5.4 -3-0.5-5.5-1.7-7.3-2.8 -0.4-3.2-0.2-7.3 2.3-8.9 3.4-2.3 13.5 0.7 13.5 0.7s5.6 8.3 11.3 10.2c5.6 1.8 6.1 7 6.1 7s0 0.1 0 0.3C602.7 407.6 595.9 408.3 593.1 405.9z" class="v"/><path d="M580.5 400.5c5.9 0.9 8.6 2 12.6 5.4 2.9 2.4 9.6 1.6 13.3 1 0.1 0.8 0.2 3-0.9 3.5 -1.4 0.7-11.3 2.5-16.7-2.5 -5.4-5-14.4-4.3-15.1-7.2 -0.2-0.8-0.4-1.8-0.5-3C575 398.8 577.5 400.1 580.5 400.5z" class="w"/><path d="M522.2 405.9c4.1-3.4 6.8-4.5 12.6-5.4 3-0.5 5.5-1.7 7.3-2.8 0.3-3.2 0.2-7.3-2.3-8.9 -3.4-2.3-13.5 0.7-13.5 0.7s-5.6 8.3-11.3 10.2c-5.6 1.8-6.1 7-6.1 7s0 0.1 0 0.3C512.6 407.6 519.3 408.3 522.2 405.9z" class="v"/><path d="M534.8 400.5c-5.9 0.9-8.6 2-12.6 5.4 -2.9 2.4-9.6 1.6-13.3 1 -0.1 0.8-0.2 3 0.9 3.5 1.4 0.7 11.3 2.5 16.7-2.5 5.4-5 14.4-4.3 15.1-7.2 0.2-0.8 0.4-1.8 0.5-3C540.3 398.8 537.8 400.1 534.8 400.5z" class="w"/><path d="M531 258.5c0 0-2 61.6-1.8 77.8 0.2 16.2-1.3 33.6-1.6 38.8 -0.2 5.2-4.1 15.6-4.1 15.6s4.3 1.8 9.5 0.9c5.2-0.9 8.8-2.3 8.8-2.3s12.8-100.8 14-101.7h3.8c1.1 0.9 14 101.7 14 101.7s3.6 1.4 8.8 2.3c5.2 0.9 9.5-0.9 9.5-0.9s-3.8-10.4-4.1-15.6c-0.2-5.2-1.8-22.5-1.6-38.8 0.2-16.2-1.8-77.8-1.8-77.8H531z" class="w"/><path d="M567.8 288c0 0-15.4-1.4-20.9 0.3" class="x"/><path d="M555.1 286.8c0 0-1.2-5.2-1.2-8.7 0-3.5-0.6-11.9-0.6-11.9" class="x"/><path d="M563.2 266.8c0 0-1.2 6.4-1.2 9 0 2.6-0.6 11.3-0.6 11.3" class="x"/><path d="M553.6 275.2c0 0-13.9-2.6-12.5-0.9 1.4 1.7 2.6 2.6 2.6 2.6" class="x"/><line x1="553.6" y1="272.3" x2="544.4" y2="269.7" class="x"/><path d="M562 275.8c0 0 7.2-1.7 10.7-1.4" class="x"/><line x1="562.9" y1="272.9" x2="571.6" y2="270.6" class="x"/><line x1="554.2" y1="279.9" x2="546.7" y2="280.7" class="x"/><line x1="562" y1="280.5" x2="569.6" y2="280.7" class="x"/><path d="M540 264.8c0 0-2.9 8.1-9.3 12.2" class="x"/><path d="M574.8 265.7c0 0 6.1 11.3 10.4 14.2" class="x"/><path d="M531.3 389.8c0 0 1.4-14.2 1.7-18.6" class="x"/><path d="M581.2 358.8c0 0 0.9 26.7 4.9 31" class="x"/><line x1="533.6" y1="364.3" x2="535.7" y2="348.4" class="x"/><path d="M527.5 187.8c0 0 2.5 69.8 3.6 71.8 1.1 2 8.6 5.9 23.3 6.1h6.9c14.7-0.2 23.2-3.6 24.3-5.6 1.1-2 2.4-72.3 2.4-72.3l-15.5-7.4 -30.4-0.6L527.5 187.8z" class="u"/><path d="M534.8 147.6c0 0-4.5-16.5-0.7-22.5 3.8-6.1 12.2-5.2 12.2-5.2s-2.3-2.3-3.8-2.9c-1.6-0.7-4.3-1.1-4.3-1.1s5-1.4 9.5 0c4.5 1.4 4.7 2.7 4.7 2.7s0.2-6.5 5.3-8.3c5.1-1.8 6.6-1.6 6.6-1.6s-3.8 2-4.7 4.3c-0.9 2.3-0.9 3.2-0.9 3.2s7.9-3.8 16.7 1.6c8.8 5.4 9 15.3 8.8 20.3 -0.2 5-4.3 12.6-4.3 12.6l-11.7 4.3 -31.1-1.1L534.8 147.6z" class="n"/><path d="M540.7 151.2c0 0-4.7-7.4-7.9-1.8 -3.2 5.6 4.3 11.5 6.5 11.3 2.3-0.2 2.5-0.9 2.5-0.9L540.7 151.2z" class="m"/><path d="M540 157.3c0 0-1.6 0-1.8-1.6 -0.2-1.6 0.2-2.3 0.2-2.3s-1.6-4.1-2.9-2.9c-1.4 1.1-0.4 3.4-0.4 3.4" class="o"/><path d="M574.7 151.2c0 0 4.7-7.4 7.9-1.8 3.2 5.6-4.3 11.5-6.5 11.3 -2.2-0.2-2.5-0.9-2.5-0.9L574.7 151.2z" class="m"/><path d="M575.4 157.3c0 0 1.6 0 1.8-1.6 0.2-1.6-0.2-2.3-0.2-2.3s1.6-4.1 2.9-2.9c1.4 1.1 0.5 3.4 0.5 3.4" class="o"/><path d="M557.7 197.7c2.6-2 9-20.1 9-20.1l0.5-7.4h-18.6l0.4 7.4C549 177.6 555.1 199.7 557.7 197.7z" class="m"/><path d="M577.4 143.6c0 0-3.2 17.1-3.2 22.3l-16.6 13.3 -16.6-13.3c0-5.2-3.2-22.3-3.2-22.3s11.5-5.4 16.5-14.9c0 0 4.5 12.2 10.6 14.7 0 0-2.7-6.5-2.5-12.2C562.5 131.2 570.4 141.6 577.4 143.6z" class="m"/><path d="M557.7 205.6c4.8-1.8 14.9-26.4 14.9-26.4l0.7-1c-3.7-1-6.6-0.6-6.6-0.6s-6.4 18-9 20.1c-2.6 2-8.7-20.1-8.7-20.1s-3.1-0.1-7.1 0.4l0.4 0.6C542.4 178.6 552.8 207.4 557.7 205.6z" fill="#8A8C8F"/><path d="M552 148c0 1.3-0.9 2.4-1.9 2.4 -1.1 0-1.9-1.1-1.9-2.4 0-1.3 0.9-2.4 1.9-2.4C551.2 145.6 552 146.7 552 148z" class="g"/><path d="M568.9 148c0 1.3-0.9 2.4-1.9 2.4 -1.1 0-1.9-1.1-1.9-2.4 0-1.3 0.9-2.4 1.9-2.4C568.1 145.6 568.9 146.7 568.9 148z" class="g"/><polyline points=" 557.7 144.9 562.7 159.6 554 158.7 " class="o"/><path d="M552.8 125.6c0 0-7.2 0.9-8.1 6.4" class="y"/><path d="M553 123c0 0-7-2.6-10.7 2" class="y"/><path d="M557.7 125.1c0 0 5.2-3 10.4 2.8" class="y"/><path d="M557.7 121.3c0 0 4.4-2.4 10.2-0.1" class="y"/><path d="M540.3 222.7c0 0 3.5 22 15.1 22.3" class="z"/><path d="M540.6 243.9c0 0-3.2-6.7-3.2-13.9" class="z"/><path d="M553.9 235.5c0 0 18.5 6.7 24.6-19.1" class="z"/><path d="M580.6 223.6c0 0-3.5 12.8-9.9 17.4" class="z"/><line x1="527.3" y1="192" x2="528.7" y2="221.5" class="z"/><line x1="587.7" y1="191.7" x2="586.6" y2="229.7" class="z"/><path d="M565.4 162.5c0 0-8.3 2.5-13.7-0.6 0 0 1.8 10.5 7 10.2C563.8 171.7 565.4 162.5 565.4 162.5z" class="h"/><polygon points="281.1 117.7 282 125.9 266.5 128.1 265.2 119.5 " class="A"/><path d="M246.5 201.4c0 0 15-21.7 15-30 0 0-0.4-1.8 0-3.6 0.4-1.9-0.4-3.9-0.4-3.9s1.2-36.5 3.1-38.4c0 0 12.2 3.6 20.5-3.2 0 0 6.2 44.9 5.1 53.2 -1.1 8.3-16.5 57.8-19.9 58.9C266.5 235.5 246.5 201.4 246.5 201.4z" class="B"/><path d="M260.1 99c0 0 1.1 5.7 1.2 7.9 0.1 2.2-1.3 2.1-3.2 0.3 -1.9-1.7-5.2-3.3-8.6-2.2 -3.5 1.1-1.4 4 0.8 4.7 2.2 0.7 3 0.9 9 7 6 6.1 11.6 4.9 11.6 4.9s3.8-1 5.1-1.1c1.3-0.1 4.6 0.4 7.6-2.5 3-2.9 2.7-8.4 3.1-14.6 0.5-6.2 2.3-18.2 1.3-20 -1-1.8-3.9-1.2-4.6 1.2 -0.7 2.4-2 12.1-2.6 12.2 -0.6 0.2-0.6 0.8-0.9-0.2 -0.3-1 0.4-17.2-1.8-18.3 -2.9-1.4-4.1 1.3-4 6.2 0.1 5 0.5 12.5 0 12.7 -0.5 0.2-0.9 0.6-1.2-0.4 -0.2-0.9-2.1-18.3-4.6-19.1 -2.1-0.7-4.6 0.2-3.8 4.8 0.6 3.9 2.9 15.3 2.3 15.8 -0.7 0.5-0.9 0.1-1.2-0.9 -0.2-0.9-3.2-15.1-5.2-15.2C257.3 82.2 255.5 83.4 260.1 99z" class="A"/><path d="M264 107.3c0 0 8.4 0.7 9 9.5" class="e"/><path d="M282.5 101.8c0 0-10.3 0.2-17.7 1.8" class="e"/><polygon points="161.5 117.7 160.6 125.9 176.1 128.1 177.5 119.5 " class="A"/><path d="M196.1 201.4c0 0-15.5-21.7-15.5-30 0 0 0.4-1.8 0-3.6 -0.4-1.9 0.4-3.9 0.4-3.9s-0.8-36.5-2.7-38.4c0 0-12.2 3.6-20.5-3.2 0 0-6.1 44.5-5 52.8 1.1 8.3 16.4 58.3 19.8 59.4C176.1 235.5 196.1 201.4 196.1 201.4z" class="B"/><path d="M182.6 99c0 0-1.1 5.7-1.2 7.9 -0.1 2.2 1.3 2.1 3.2 0.3 1.9-1.7 5.2-3.3 8.6-2.2 3.5 1.1 1.4 4-0.8 4.7 -2.2 0.7-3 0.9-9 7 -6 6.1-11.5 4.9-11.5 4.9s-3.8-1-5.1-1.1c-1.3-0.1-4.6 0.4-7.6-2.5 -3-2.9-2.7-8.4-3.1-14.6 -0.5-6.2-2.3-18.2-1.3-20 1-1.8 3.9-1.2 4.6 1.2 0.7 2.4 2 12.1 2.6 12.2 0.6 0.2 0.6 0.8 0.9-0.2 0.3-1-0.4-17.2 1.8-18.3 2.9-1.4 4.1 1.3 4 6.2 -0.1 5-0.5 12.5 0 12.7 0.5 0.2 0.9 0.6 1.2-0.4 0.2-0.9 2.1-18.3 4.6-19.1 2.1-0.7 4.6 0.2 3.8 4.8 -0.6 3.9-2.9 15.3-2.3 15.8 0.7 0.5 0.9 0.1 1.2-0.9 0.2-0.9 3.2-15.1 5.2-15.2C185.4 82.2 187.1 83.4 182.6 99z" class="A"/><path d="M178.6 107.3c0 0-8.4 0.7-9 9.5" class="e"/><path d="M160.2 101.8c0 0 10.3 0.2 17.7 1.8" class="e"/><path d="M189.8 392.9c0 0-5.1 4.8-15.3 6.5 -7.5 1.2-15-0.4-18.4-1.4 -0.4 1.3-0.2 2.5 0.6 3.4 2.5 2.5 13.9 4 22.3 0.6 8.5-3.4 11-5.1 11-5.1s9.3-0.3 10.5-2.3c0.3-0.5 0.5-1.6 0.6-2.9C196.1 393.2 189.8 392.9 189.8 392.9z" class="C"/><path d="M171.4 388.1l-4.2 0.5c-1.4 1-2.8 1.9-4 2.3 -3.4 1.1-6.4 4.4-7.1 7.1 3.4 1 10.9 2.6 18.4 1.4 1.2-0.2 2.2-0.4 3.3-0.7C171.9 395.5 171.4 388.1 171.4 388.1z" class="D"/><path d="M200.9 385.3c-0.3-1.8-0.9-3.3-1.7-4.3 -2.5-2.8-22.9-0.8-22.9-0.8s-4.6 5.2-9 8.5l4.2-0.5c0 0 0.4 7.4 6.4 10.6 8-2 12-5.8 12-5.8s1.9 0.1 4.4-0.1C194.7 388.1 198.3 386.1 200.9 385.3z" class="E"/><path d="M194.2 392.8c2.1-0.1 4.7-0.4 7-1.1 0.2-1.9 0.1-4.3-0.3-6.4C198.3 386.1 194.7 388.1 194.2 392.8z" class="D"/><path d="M252.9 392.9c0 0 5.1 4.8 15.3 6.5 7.5 1.2 15-0.4 18.4-1.4 0.4 1.3 0.2 2.5-0.6 3.4 -2.5 2.5-13.9 4-22.3 0.6 -8.5-3.4-11-5.1-11-5.1s-9.3-0.3-10.5-2.3c-0.3-0.5-0.5-1.6-0.6-2.9C246.6 393.2 252.9 392.9 252.9 392.9z" class="C"/><path d="M271.3 388.1l4.2 0.5c1.4 1 2.8 1.9 4 2.3 3.4 1.1 6.4 4.4 7.1 7.1 -3.4 1-10.9 2.6-18.4 1.4 -1.2-0.2-2.2-0.4-3.2-0.7C270.9 395.5 271.3 388.1 271.3 388.1z" class="D"/><path d="M241.9 385.3c0.3-1.8 0.9-3.3 1.7-4.3 2.5-2.8 22.9-0.8 22.9-0.8s4.6 5.2 9 8.5l-4.2-0.5c0 0-0.4 7.4-6.4 10.6 -8-2-12-5.8-12-5.8s-1.9 0.1-4.4-0.1C248 388.1 244.5 386.1 241.9 385.3z" class="E"/><path d="M248.5 392.8c-2.1-0.1-4.7-0.4-7-1.1 -0.2-1.9-0.1-4.3 0.3-6.4C244.5 386.1 248 388.1 248.5 392.8z" class="D"/><path d="M163.2 285.8c0 0 0.6 15.8 4.2 30.8 3.7 15 9.3 40.1 9.6 46.9 0.3 6.8-1.1 9.6-2 12.7 -0.8 3.1-2.3 4.5-2.3 4.5s6.2 4.8 12.4 4.2c6.2-0.6 16.7-2.3 16.7-2.3s11.3-59.8 13.6-60.9c2.3-1.1 3.4-1.4 3.4-1.4h4.9c0 0 1.1 0.3 3.4 1.4 2.3 1.1 13.6 60.9 13.6 60.9s10.5 1.7 16.7 2.3c6.2 0.6 12.4-4.2 12.4-4.2s-1.4-1.4-2.3-4.5c-0.8-3.1-2.3-5.9-2-12.7 0.3-6.8 5.9-31.9 9.6-46.9 3.7-15 4.2-30.8 4.2-30.8l-53.8-9.6 -42.7 0.6L163.2 285.8z" fill="#DCBB8A"/><path d="M268.1 214.5c0 0 10.2 22.3 10.7 34.2 0.6 11.9 4.5 29.1 5.4 32.2 0.8 3.1 2.5 4 2.5 4s-27.7 12.7-42.1 13c-14.4 0.3-17.8 0.3-17.8 0.3l-5.6-13.8 -6.3 13.8c0 0-3.4 0-17.8-0.3 -14.4-0.3-42.1-13-42.1-13s1.7-0.8 2.5-4c0.9-3.1 4.8-20.4 5.4-32.2 0.6-11.9 10.7-34.2 10.7-34.2s6.3-8.7 9.1-10.1c2.8-1.4 21.2-8.9 21.2-8.9l38.5 0.2c0 0 17 4.9 19.4 8.7C264.3 208.2 268.1 214.5 268.1 214.5z" class="B"/><path d="M191.7 162.9c0 0-4.7-6.2-10.3 0.8 -5.6 7 4.9 16.3 8.2 14.4C192.8 176.1 191.7 162.9 191.7 162.9z" class="m"/><path d="M188.2 173.4c0 0-3.3-1.9-2.3-4.1 1-2.1 1.8-2.1 1.8-2.1s-0.4-2.7-2.3-2.5c-1.9 0.2-1.9 2.1-1.9 2.1" class="o"/><path d="M250.6 162.9c0 0 4.7-6.2 10.3 0.8 5.6 7-4.9 16.3-8.2 14.4C249.5 176.1 250.6 162.9 250.6 162.9z" class="m"/><path d="M254.1 173.4c0 0 3.3-1.9 2.3-4.1 -1-2.1-1.7-2.1-1.7-2.1s0.4-2.7 2.3-2.5c1.9 0.2 1.9 2.1 1.9 2.1" class="o"/><path d="M221.2 216.2c1.5-0.9 8.5-4.7 13.8-7.7 1.7-5.8 2.8-9.9 2.8-9.9h-36.2c0 0 1 3.4 2.6 8.4C210 211 219.5 217.2 221.2 216.2z" class="m"/><path d="M221.2 216.2c-1.7 1-11.2-5.2-16.9-9.1 4.8 15.3 14.8 46.1 16.9 44.2 2-1.8 9.7-28 13.8-42.7C229.8 211.5 222.8 215.4 221.2 216.2z" class="q"/><path d="M198.9 199.5c0 0-9 9.9-9.9 15l11.6 3.7 -8.5 5.1c0 0 7.9 20.1 22.9 27.4" class="F"/><path d="M242.7 199.5c0 0 9.1 9.9 9.9 15l-11.6 3.7 8.5 5.1c0 0-7.9 20.1-22.9 27.4" class="F"/><path d="M191.1 161.1c0 0-3.3 8.2-3.3 13.8 0 5.6 0 8 2.3 12.4 0 0-1.2 6.8 2.1 9.3 3.3 2.5 8.2 1.2 8.2 1.2s1.2 6 5.6 7.2c4.5 1.2 8.5-3.1 8.5-3.1s0.1 4.5 6.6 5c6.6 0.4 8.3-5.8 8.3-5.8s3.5 3.3 8.7 1.6c5.3-1.8 4.3-7 4.3-7s8.7 0.6 10.1-6c1.4-6.6-0.6-6.6-0.6-6.6s4.1-12.4-1-22.7C246.1 150.1 191.1 161.1 191.1 161.1z" fill="#CFD0D2"/><path d="M251.5 166.8c0 0 0.2-30.5-30.3-30.2 -30.5 0.3-30.9 28.4-30.9 28.4s0 8.7 1 11.7c1 2.9 2.3 7.4 3.7 8.5 1.4 1.2 3.7 0 5.8 1.6 2.1 1.6 3.1 5.8 3.1 5.8s4.1-1.6 7.6 0.2c3.5 1.8 3.7 3.5 3.7 3.5s4.3-2.1 8.3-1.7c4.1 0.4 4.5 1.2 4.5 1.2s2.7-4.7 6.4-5.6c3.7-1 5.1 0 5.1 0s2.7-7.8 6-8.7c3.3-1 3.3-0.6 4.3-1.6C250.7 178.8 251.7 173.8 251.5 166.8z" class="m"/><path d="M210 162.2c0 1.3-0.8 2.3-1.9 2.3 -1 0-1.9-1-1.9-2.3 0-1.3 0.8-2.3 1.9-2.3C209.1 159.9 210 160.9 210 162.2z" class="g"/><path d="M237.3 162.2c0 1.3-0.8 2.3-1.9 2.3 -1 0-1.9-1-1.9-2.3 0-1.3 0.8-2.3 1.9-2.3C236.5 159.9 237.3 160.9 237.3 162.2z" class="g"/><path d="M221.2 157.4c0 0 8.5 16 7.7 16.8 -0.8 0.8-16.5 1.6-16.5 0 0-1.6 3.9-9.9 3.9-9.9" class="o"/><path d="M213 171.4c0 0-3.5 4.3-3.5 9.7" class="o"/><path d="M228 170.7c0 0 4.1 4.5 3.9 10.9" class="o"/><path d="M206.6 321.5c0 0 18.1-4.1 30.3 1.6" class="G"/><path d="M182.2 382.3c0 0 2.5-13.1 2.5-25.3" class="G"/><path d="M260 382.7c0 0-1.9-17.2-1.6-23.4" class="G"/><line x1="215.6" y1="319.3" x2="213.8" y2="298.3" class="G"/><line x1="225.3" y1="319.6" x2="227.8" y2="299" class="G"/><path d="M214.1 304.6c0 0-23.1-3.4-23.1-1.2 0 2.2 0 2.2 0 2.2" class="G"/><line x1="215" y1="308.3" x2="198.8" y2="309" class="G"/><path d="M227.2 304.6c0 0 19-1.6 22.8-0.3" class="G"/><line x1="227.8" y1="308.6" x2="241.2" y2="310.2" class="G"/><path d="M182.2 295.2c0 0-8.4 14.1-13.7 15.3" class="G"/><path d="M177.8 294.6c0 0-5.9 8.8-10.3 10.6" class="G"/><path d="M262.5 295.8c0 0 8.1 12.8 13.7 13.1" class="G"/><path d="M267.2 293.7c0 0 6.9 8.7 11.2 9.1" class="G"/><path d="M224.1 261.7c0 1.6-1.3 2.8-2.8 2.8 -1.6 0-2.8-1.3-2.8-2.8 0-1.6 1.3-2.8 2.8-2.8C222.9 258.9 224.1 260.1 224.1 261.7z" class="H"/><path d="M224.1 274.8c0 1.6-1.3 2.8-2.8 2.8 -1.6 0-2.8-1.3-2.8-2.8 0-1.6 1.3-2.8 2.8-2.8C222.9 272 224.1 273.3 224.1 274.8z" class="H"/><path d="M245.3 230.9c0 0 2.2 17.8 7.2 18.1 5 0.3 17.2-1.6 17.2-6.6s-2.2-18.1-2.2-18.1c-4.4 3.7-19.4 4.4-19.4 4.4" class="F"/><path d="M268.7 232.8c0 0-14.4 7.2-22.5 3.4" class="F"/><path d="M174.4 213.4c0 0-7.5 19.5-10.8 31.4" class="F"/><path d="M268.1 214.5c0 0 10.2 22.3 10.7 34.2 0.6 11.9 4.5 29.1 5.4 32.2 0.8 3.1 2.5 4 2.5 4l-8.4 2.9" class="F"/><ellipse cx="220.9" cy="184.7" rx="5.3" ry="7.4" class="h"/></svg>