<svg xmlns="http://www.w3.org/2000/svg" viewBox="0 0 768 430"><style>.a{stop-color:#FFEE27;}.b{stop-color:#FFE612;}.c{stop-color:#FFD600;}.d{stop-color:#FECC00;}.e{stop-color:#FDC800;}.f{fill:#F6F6F6;}.g{stop-color:#3E3D40;}.h{stop-color:#000;}.i{fill:#F9DE58;}.j{fill:none;}.k{fill:#F6F6F6;opacity:0.1;}.l{fill:none;opacity:0.1;}.m{fill:#FFF;}.n{fill:#F29400;}</style><linearGradient gradientUnits="userSpaceOnUse" x1="182" y1="305.8" x2="206.3" y2="305.8" gradientTransform="matrix(1.4104 0 0 1.344 42.7255 -92.2159)"><stop offset="0" class="a"/><stop offset="0.1425" class="b"/><stop offset="0.4575" class="c"/><stop offset="0.7511" class="d"/><stop offset="1" class="e"/></linearGradient><path d="M308.7 317.5c0 0-7.5-3.7-8.8-1.3 -1.8 3.2 1.3 3.7 3 3.5 -1.5 0.6-1.6 2 0.2 2.2 2 0.2 3.8-0.5 5.6-1.2 4.4 0 8.5-1 11.9-2.5 -0.8-0.8-1.6-1.7-2.3-2.6C312 318.4 308.7 317.5 308.7 317.5z" fill="url(#SVGID_1_)"/><path d="M378.9 207.1c-0.9-2-1.8-4.1-2.6-6.3 -0.4-1.1-0.7-2.2-1-3.3 -0.4-1.1-0.6-2.2-0.8-3.2 -0.3-1-0.4-2.1-0.6-3.1 -0.2-1-0.3-1.9-0.4-2.8 -0.3-1.7-0.3-3.2-0.4-4.2 -0.1-1-0.1-1.6-0.1-1.6s0.1 0.6 0.2 1.6c0.1 1 0.2 2.4 0.6 4.1 0.1 0.9 0.3 1.8 0.5 2.7 0.2 1 0.4 2 0.7 3 0.3 1 0.6 2.1 1 3.2 0.4 1.1 0.7 2.2 1.2 3.2 0.8 2.1 1.8 4.2 2.7 6.1 0.9 1.8 1.9 3.4 2.7 4.8 0.4-0.1 0.8-0.2 1.3-0.3 0 0 0 0 0 0 1.8-0.4 3.7-0.8 5.6-1.2 0 0 0-0.1 0-0.1 -0.2-1.5-0.4-3.2-0.5-5.1 -0.1-1.9 0-3.8 0.2-5.8 0.1-1 0.2-2 0.4-2.9 0.2-1 0.3-1.9 0.5-2.8 0.4-1.8 0.8-3.5 1.3-4.9 0.4-1.4 0.9-2.6 1.1-3.4 0.3-0.8 0.5-1.3 0.5-1.3s-0.1 0.5-0.4 1.3c-0.3 0.8-0.7 2-1 3.4 -0.4 1.4-0.7 3.1-1.1 4.9 -0.1 0.9-0.2 1.8-0.4 2.8 -0.1 1-0.1 1.9-0.2 2.9 -0.1 2-0.1 3.9 0.1 5.7 0.1 1.8 0.4 3.5 0.7 4.9 0 0 0 0.1 0 0.1 3.7-0.7 7.4-1.3 11.2-1.8 0.1-0.3 0.2-0.5 0.4-0.8 1.1-2.4 2.3-5 3.6-7.8 -0.2-1.7-0.4-3.5-0.6-5.4 -0.5-5.8-0.5-12.5-0.1-19.7 0.3-7.2 1.1-15 1.8-23.2 0.3-4.1 0.7-8.3 0.7-12.6 0-4.3-0.1-8.7-1-13 -0.9-4.3-2.6-8.4-5.4-11.8 -2.8-3.4-6.6-6-10.8-7.8 -4.2-1.7-8.8-3-13.4-3.7 -1.1-0.2-2.3-0.4-3.5-0.5l-3.6-0.5c-1.1-0.1-2.3-0.2-3.5-0.3 -1.2 0-2.3-0.1-3.5 0 -2.3 0.1-4.6 0.5-6.7 1.1 -2.1 0.7-4.1 1.7-5.9 3 -3.5 2.7-5.4 6.9-6.2 11.3 -0.9 4.4-0.8 9.1-0.3 13.6 0.5 4.5 1.4 9 2.4 13.3 2.1 8.7 5 16.9 8 24.5 3 7.7 6.1 14.8 9.2 21.3 4.5 9.5 8.8 17.7 12.4 24.3 1.9-0.5 3.8-1 5.8-1.5C380.5 210.4 379.7 208.9 378.9 207.1z" class="f"/><path d="M379.7 206.7c-1-1.9-1.9-4-2.7-6.1 -0.4-1.1-0.8-2.2-1.2-3.2 -0.4-1.1-0.6-2.1-1-3.2 -0.3-1-0.5-2.1-0.7-3 -0.2-1-0.4-1.9-0.5-2.7 -0.3-1.7-0.5-3.1-0.6-4.1 -0.1-1-0.2-1.6-0.2-1.6s0 0.6 0.1 1.6c0.1 1 0.1 2.4 0.4 4.2 0.1 0.9 0.2 1.8 0.4 2.8 0.2 1 0.3 2 0.6 3.1 0.3 1 0.5 2.2 0.8 3.2 0.3 1.1 0.6 2.2 1 3.3 0.7 2.2 1.6 4.3 2.6 6.3 0.8 1.7 1.6 3.3 2.4 4.7 0.4-0.1 0.8-0.2 1.1-0.3C381.6 210.2 380.6 208.5 379.7 206.7z"/><path d="M390.4 209.7c-0.3-1.4-0.6-3.1-0.7-4.9 -0.2-1.8-0.2-3.8-0.1-5.7 0.1-1 0.2-1.9 0.2-2.9 0.1-1 0.3-1.9 0.4-2.8 0.3-1.8 0.7-3.5 1.1-4.9 0.3-1.4 0.7-2.6 1-3.4 0.3-0.8 0.4-1.3 0.4-1.3s-0.2 0.5-0.5 1.3c-0.3 0.8-0.8 1.9-1.1 3.4 -0.5 1.4-0.9 3.1-1.3 4.9 -0.2 0.9-0.3 1.9-0.5 2.8 -0.1 1-0.2 1.9-0.4 2.9 -0.1 2-0.2 4-0.2 5.8 0 1.9 0.3 3.6 0.5 5.1 0 0 0 0.1 0 0.1 0.4-0.1 0.8-0.1 1.1-0.2C390.4 209.8 390.4 209.8 390.4 209.7z"/><path d="M550.8 288.9c13.1 0.2 23.9-7.5 23-9.3 -4.1 1.9-15.9 1.5-22.3 1.1 0 0.2 0 0.4 0 0.6C551.4 283.9 551.2 286.4 550.8 288.9z"/><linearGradient gradientUnits="userSpaceOnUse" x1="355.8" y1="192.3" x2="355.8" y2="148.4" gradientTransform="matrix(1.4104 0 0 -1.4104 42.7255 525.1793)"><stop offset="0" class="g"/><stop offset="1" class="h"/></linearGradient><path d="M542.9 259.9c-0.4 18.6-2.2 37.4-5.3 56 7-8.2 11.7-17.4 13.2-27 -1 0-2-0.1-3-0.2l-0.6-8.2c0 0 1.7 0.1 4.2 0.3 0-3.9-0.6-7.7-1.6-11.4 -0.8-1.2-1.5-2.5-2.4-3.7C546.1 263.7 544.5 261.8 542.9 259.9z" fill="url(#SVGID_2_)"/><path d="M547.8 288.7c1 0.1 2 0.2 3 0.2 0.4-2.5 0.6-5 0.6-7.6 0-0.2 0-0.4 0-0.6 -2.5-0.1-4.2-0.3-4.2-0.3L547.8 288.7z"/><linearGradient gradientUnits="userSpaceOnUse" x1="359.2" y1="192.3" x2="359.2" y2="148.4" gradientTransform="matrix(1.4104 0 0 -1.4104 42.7255 525.1793)"><stop offset="0" class="g"/><stop offset="1" class="h"/></linearGradient><path d="M547.8 288.7c1 0.1 2 0.2 3 0.2 0.4-2.5 0.6-5 0.6-7.6 0-0.2 0-0.4 0-0.6 -2.5-0.1-4.2-0.3-4.2-0.3L547.8 288.7z" fill="url(#SVGID_3_)"/><path d="M502.7 233c1.4 25.8-0.2 52.3-4.7 78.5 -2.1 11.8-4.7 23.3-7.9 34.7 0 0 0 0 0 0 0 0 0 0 0 0 20.2-7.2 36.7-17.7 47.5-30.3 3.1-18.6 4.9-37.4 5.3-56C533.4 249.3 519.6 240.1 502.7 233z" class="i"/><linearGradient gradientUnits="userSpaceOnUse" x1="305.9" y1="224.3" x2="305.9" y2="120.2" gradientTransform="matrix(1.4104 0 0 -1.4104 42.7255 525.1793)"><stop offset="0" class="g"/><stop offset="1" class="h"/></linearGradient><path d="M502.7 233c-0.1-0.1-0.3-0.1-0.4-0.2 -12.1-5-25.7-8.9-40.4-11.4 2.7 27 1.8 55.3-3.1 83.3 -3.1 17.5-7.6 34.6-13.4 51 16.1-1.4 31.2-4.6 44.7-9.4 3.2-11.4 5.8-22.9 7.9-34.7C502.5 285.3 504.1 258.8 502.7 233z" fill="url(#SVGID_4_)"/><linearGradient gradientUnits="userSpaceOnUse" x1="321.8" y1="215.6" x2="321.8" y2="126.9" gradientTransform="matrix(1.4104 0 0 -1.4104 42.7255 525.1793)"><stop offset="0" class="a"/><stop offset="0.1425" class="b"/><stop offset="0.4575" class="c"/><stop offset="0.7511" class="d"/><stop offset="1" class="e"/></linearGradient><path d="M497.9 311.6c4.6-26.2 6.1-52.7 4.7-78.5 0 0 0 0 0 0 1.4 25.8-0.2 52.3-4.7 78.5 -2.1 11.8-4.7 23.3-7.9 34.7 0 0 0 0 0 0C493.2 334.9 495.9 323.3 497.9 311.6z" fill="url(#SVGID_5_)"/><linearGradient gradientUnits="userSpaceOnUse" x1="321.8" y1="224.3" x2="321.8" y2="120.2" gradientTransform="matrix(1.4104 0 0 -1.4104 42.7255 525.1793)"><stop offset="0" class="g"/><stop offset="1" class="h"/></linearGradient><path d="M497.9 311.6c4.6-26.2 6.1-52.7 4.7-78.5 0 0 0 0 0 0 1.4 25.8-0.2 52.3-4.7 78.5 -2.1 11.8-4.7 23.3-7.9 34.7 0 0 0 0 0 0C493.2 334.9 495.9 323.3 497.9 311.6z" fill="url(#SVGID_6_)"/><path d="M449 219.6c-5.3 2-10.2 3.7-14.4 5.2 -4.8 1.7-8.8 2.9-12 3.9 0.7 7.5 1 15 1 22.7 0 3.8-0.1 7.7-0.3 11.6 -0.5 11.6-1.8 23.3-3.8 35.1 -3.5 19.9-9.1 39.2-16.5 57 8.1 1 16.4 1.5 25 1.5 5.9 0 11.7-0.3 17.3-0.7 5.8-16.3 10.4-33.4 13.4-51 4.9-28 5.9-56.3 3.1-83.3 -1.7-0.3-3.5-0.6-5.2-0.9C454.1 220.2 451.5 219.9 449 219.6z" class="i"/><linearGradient gradientUnits="userSpaceOnUse" x1="250" y1="226" x2="250" y2="120.7" gradientTransform="matrix(1.4104 0 0 -1.4104 42.7255 525.1793)"><stop offset="0" class="g"/><stop offset="1" class="h"/></linearGradient><path d="M422.6 228.6c-0.9 0.3-1.7 0.5-2.4 0.7 -1.7 0.5-3 0.8-3.9 1 -0.9 0.2-1.3 0.2-1.3 0.2 0 0 0 0 0 0 0 0 0 0 0 0l-17.4-3.7 -11.1 4.3c1.8 19.5 0.9 39.9-2.7 60.5 -3.5 19.9-9.2 38.4-16.7 55.1 0 0 0 0 0 0 0 0 0 0 0 0 11 3.8 23 6.6 35.8 8.2 7.4-17.9 13-37.1 16.5-57 2-11.7 3.3-23.4 3.8-35.1 0.2-3.9 0.3-7.7 0.3-11.6C423.6 243.6 423.3 236.1 422.6 228.6z" fill="url(#SVGID_7_)"/><path d="M385.7 211.6c1.2-0.3 2.5-0.6 3.7-0.8 0-0.2-0.1-0.5-0.1-0.7 -1.9 0.4-3.7 0.8-5.6 1.2 0.1 0.3 0.1 0.5 0.1 0.8C384.5 211.9 385.1 211.7 385.7 211.6z" class="f"/><linearGradient gradientUnits="userSpaceOnUse" x1="243.8" y1="226" x2="243.8" y2="120.7" gradientTransform="matrix(1.4104 0 0 -1.4104 42.7255 525.1793)"><stop offset="0" class="g"/><stop offset="1" class="h"/></linearGradient><path d="M385.7 211.6c1.2-0.3 2.5-0.6 3.7-0.8 0-0.2-0.1-0.5-0.1-0.7 -1.9 0.4-3.7 0.8-5.6 1.2 0.1 0.3 0.1 0.5 0.1 0.8C384.5 211.9 385.1 211.7 385.7 211.6z" fill="url(#SVGID_8_)"/><path d="M386.5 231.2l11.1-4.3 -3.4-0.7 0 0c0 0-0.1 0.1-0.1 0 0 0-0.1-0.1 0-0.1v0 0c0 0 0.7-1.7 1.9-5 0.2-0.6 0.5-1.2 0.8-1.9 -3.9 0.4-7.7 0.9-11.5 1.4C385.8 224.1 386.2 227.6 386.5 231.2z" class="f"/><linearGradient gradientUnits="userSpaceOnUse" x1="247.3" y1="226" x2="247.3" y2="120.7" gradientTransform="matrix(1.4104 0 0 -1.4104 42.7255 525.1793)"><stop offset="0" class="g"/><stop offset="1" class="h"/></linearGradient><path d="M386.5 231.2l11.1-4.3 -3.4-0.7 0 0c0 0-0.1 0.1-0.1 0 0 0-0.1-0.1 0-0.1v0 0c0 0 0.7-1.7 1.9-5 0.2-0.6 0.5-1.2 0.8-1.9 -3.9 0.4-7.7 0.9-11.5 1.4C385.8 224.1 386.2 227.6 386.5 231.2z" fill="url(#SVGID_9_)"/><path d="M390.6 210.5c3.5-0.7 7.1-1.3 10.7-1.9 0.1-0.2 0.2-0.4 0.3-0.6 -3.8 0.5-7.5 1.1-11.2 1.8C390.5 210.1 390.5 210.3 390.6 210.5z" class="f"/><linearGradient gradientUnits="userSpaceOnUse" x1="250.5" y1="226" x2="250.5" y2="120.7" gradientTransform="matrix(1.4104 0 0 -1.4104 42.7255 525.1793)"><stop offset="0" class="g"/><stop offset="1" class="h"/></linearGradient><path d="M390.6 210.5c3.5-0.7 7.1-1.3 10.7-1.9 0.1-0.2 0.2-0.4 0.3-0.6 -3.8 0.5-7.5 1.1-11.2 1.8C390.5 210.1 390.5 210.3 390.6 210.5z" fill="url(#SVGID_10_)"/><path d="M390.6 210.5c0-0.2-0.1-0.4-0.1-0.7 -0.4 0.1-0.8 0.1-1.1 0.2 0 0.2 0.1 0.5 0.1 0.7C389.8 210.7 390.2 210.6 390.6 210.5z"/><linearGradient gradientUnits="userSpaceOnUse" x1="246.2" y1="226" x2="246.2" y2="120.7" gradientTransform="matrix(1.4104 0 0 -1.4104 42.7255 525.1793)"><stop offset="0" class="g"/><stop offset="1" class="h"/></linearGradient><path d="M390.6 210.5c0-0.2-0.1-0.4-0.1-0.7 -0.4 0.1-0.8 0.1-1.1 0.2 0 0.2 0.1 0.5 0.1 0.7C389.8 210.7 390.2 210.6 390.6 210.5z" fill="url(#SVGID_11_)"/><path d="M422.6 228.6c0.7 7.5 1 15 1 22.7" class="j"/><linearGradient gradientUnits="userSpaceOnUse" x1="229.2" y1="222.6" x2="229.2" y2="126.5" gradientTransform="matrix(1.4104 0 0 -1.4104 42.7255 525.1793)"><stop offset="0" class="a"/><stop offset="0.1425" class="b"/><stop offset="0.4575" class="c"/><stop offset="0.7511" class="d"/><stop offset="1" class="e"/></linearGradient><path d="M374.6 214.5c-0.1-0.3-0.3-0.5-0.4-0.8 -5.8 1.7-11.4 3.7-16.6 5.9 0.1 0.3 0.3 0.7 0.4 1C363.2 218.4 368.8 216.3 374.6 214.5z" fill="url(#SVGID_12_)"/><path d="M386.5 231.2l-1.1 0.4 -1.1 0.7c0 0-0.6-1.1-1.6-3.1 -1-1.8-2.3-4.3-4.1-7.5 -2.1 0.4-4.2 0.8-6.3 1.2 -4.3 0.9-8.5 2-12.6 3.1 1.6 5.6 2.5 11.6 2.5 17l-0.3 5.7c0 1.9-0.5 3.7-0.8 5.5l-0.5 2.7c-0.2 0.9-0.5 1.8-0.8 2.7l-0.8 2.6c-0.3 0.9-0.5 1.8-0.9 2.6 -1.7 4.6-4.1 8.8-6.8 12.8 -0.4 2.7-0.8 5.4-1.3 8.2 -2.8 15.9-7.3 30.7-13 44.2 9.9-9 15.9-20 15.9-20l4.9 2.1c-4.7 10-10.9 17.2-17.2 22.3 7.9 4.8 16.8 9 26.6 12.4 7.5-16.7 13.2-35.2 16.7-55C387.4 271.1 388.3 250.6 386.5 231.2z" class="i"/><path d="M381.7 212.5c0 0-0.1-0.1-0.1-0.1 -0.1-0.2-0.2-0.4-0.3-0.6 -1.9 0.5-3.9 1-5.8 1.5 0.1 0.3 0.3 0.5 0.4 0.8C377.9 213.6 379.8 213 381.7 212.5z" class="f"/><linearGradient gradientUnits="userSpaceOnUse" x1="238.2" y1="222.6" x2="238.2" y2="126.5" gradientTransform="matrix(1.4104 0 0 -1.4104 42.7255 525.1793)"><stop offset="0" class="a"/><stop offset="0.1425" class="b"/><stop offset="0.4575" class="c"/><stop offset="0.7511" class="d"/><stop offset="1" class="e"/></linearGradient><path d="M381.7 212.5c0 0-0.1-0.1-0.1-0.1 -0.1-0.2-0.2-0.4-0.3-0.6 -1.9 0.5-3.9 1-5.8 1.5 0.1 0.3 0.3 0.5 0.4 0.8C377.9 213.6 379.8 213 381.7 212.5z" fill="url(#SVGID_13_)"/><path d="M380.1 221.5c3.7 6.3 6.2 9.6 6.2 9.6l-0.9 0.5 1.1-0.4c-0.3-3.6-0.7-7.1-1.2-10.6C383.5 220.9 381.8 221.2 380.1 221.5z" class="f"/><linearGradient gradientUnits="userSpaceOnUse" x1="241.5" y1="222.6" x2="241.5" y2="126.5" gradientTransform="matrix(1.4104 0 0 -1.4104 42.7255 525.1793)"><stop offset="0" class="a"/><stop offset="0.1425" class="b"/><stop offset="0.4575" class="c"/><stop offset="0.7511" class="d"/><stop offset="1" class="e"/></linearGradient><path d="M380.1 221.5c3.7 6.3 6.2 9.6 6.2 9.6l-0.9 0.5 1.1-0.4c-0.3-3.6-0.7-7.1-1.2-10.6C383.5 220.9 381.8 221.2 380.1 221.5z" fill="url(#SVGID_14_)"/><path d="M382.9 212.2c0.3-0.1 0.6-0.2 0.9-0.2 0-0.3-0.1-0.5-0.1-0.8 0 0 0 0 0 0 0 0 0 0 0 0 -0.4 0.1-0.8 0.2-1.3 0.3 0.1 0.1 0.1 0.2 0.2 0.3C382.7 212 382.8 212.1 382.9 212.2z" class="f"/><linearGradient gradientUnits="userSpaceOnUse" x1="241.4" y1="222.6" x2="241.4" y2="126.5" gradientTransform="matrix(1.4104 0 0 -1.4104 42.7255 525.1793)"><stop offset="0" class="a"/><stop offset="0.1425" class="b"/><stop offset="0.4575" class="c"/><stop offset="0.7511" class="d"/><stop offset="1" class="e"/></linearGradient><path d="M382.9 212.2c0.3-0.1 0.6-0.2 0.9-0.2 0-0.3-0.1-0.5-0.1-0.8 0 0 0 0 0 0 0 0 0 0 0 0 -0.4 0.1-0.8 0.2-1.3 0.3 0.1 0.1 0.1 0.2 0.2 0.3C382.7 212 382.8 212.1 382.9 212.2z" fill="url(#SVGID_15_)"/><path d="M376 214.1c-0.1-0.3-0.3-0.5-0.4-0.8 -0.5 0.1-0.9 0.3-1.4 0.4 0.1 0.3 0.3 0.5 0.4 0.8C375.1 214.4 375.5 214.3 376 214.1z"/><linearGradient gradientUnits="userSpaceOnUse" x1="235.6" y1="222.6" x2="235.6" y2="126.5" gradientTransform="matrix(1.4104 0 0 -1.4104 42.7255 525.1793)"><stop offset="0" class="a"/><stop offset="0.1425" class="b"/><stop offset="0.4575" class="c"/><stop offset="0.7511" class="d"/><stop offset="1" class="e"/></linearGradient><path d="M376 214.1c-0.1-0.3-0.3-0.5-0.4-0.8 -0.5 0.1-0.9 0.3-1.4 0.4 0.1 0.3 0.3 0.5 0.4 0.8C375.1 214.4 375.5 214.3 376 214.1z" fill="url(#SVGID_16_)"/><path d="M380.1 221.5c-0.5 0.1-1 0.2-1.5 0.3 1.8 3.1 3.1 5.7 4.1 7.5 1 2 1.6 3.1 1.6 3.1l1.1-0.7 0.9-0.5C386.3 231.1 383.8 227.8 380.1 221.5z"/><linearGradient gradientUnits="userSpaceOnUse" x1="240.9" y1="222.6" x2="240.9" y2="126.5" gradientTransform="matrix(1.4104 0 0 -1.4104 42.7255 525.1793)"><stop offset="0" class="a"/><stop offset="0.1425" class="b"/><stop offset="0.4575" class="c"/><stop offset="0.7511" class="d"/><stop offset="1" class="e"/></linearGradient><path d="M380.1 221.5c-0.5 0.1-1 0.2-1.5 0.3 1.8 3.1 3.1 5.7 4.1 7.5 1 2 1.6 3.1 1.6 3.1l1.1-0.7 0.9-0.5C386.3 231.1 383.8 227.8 380.1 221.5z" fill="url(#SVGID_17_)"/><path d="M382.6 211.8c-0.1-0.1-0.1-0.2-0.2-0.3 -0.4 0.1-0.8 0.2-1.1 0.3 0.1 0.2 0.2 0.4 0.3 0.6 0 0 0.1 0.1 0.1 0.1 0.4-0.1 0.8-0.2 1.2-0.3C382.8 212.1 382.7 212 382.6 211.8z"/><linearGradient gradientUnits="userSpaceOnUse" x1="240.6" y1="222.6" x2="240.6" y2="126.5" gradientTransform="matrix(1.4104 0 0 -1.4104 42.7255 525.1793)"><stop offset="0" class="a"/><stop offset="0.1425" class="b"/><stop offset="0.4575" class="c"/><stop offset="0.7511" class="d"/><stop offset="1" class="e"/></linearGradient><path d="M382.6 211.8c-0.1-0.1-0.1-0.2-0.2-0.3 -0.4 0.1-0.8 0.2-1.1 0.3 0.1 0.2 0.2 0.4 0.3 0.6 0 0 0.1 0.1 0.1 0.1 0.4-0.1 0.8-0.2 1.2-0.3C382.8 212.1 382.7 212 382.6 211.8z" fill="url(#SVGID_18_)"/><linearGradient gradientUnits="userSpaceOnUse" x1="237.2" y1="226" x2="237.2" y2="120.7" gradientTransform="matrix(1.4104 0 0 -1.4104 42.7255 525.1793)"><stop offset="0" class="g"/><stop offset="1" class="h"/></linearGradient><path d="M383.9 291.7c3.6-20.6 4.4-41 2.7-60.5l0 0c1.8 19.5 0.9 40-2.7 60.5 -3.5 19.8-9.2 38.4-16.7 55 0 0 0 0 0 0C374.7 330 380.4 311.5 383.9 291.7z" fill="url(#SVGID_19_)"/><linearGradient gradientUnits="userSpaceOnUse" x1="237.2" y1="222.6" x2="237.2" y2="126.5" gradientTransform="matrix(1.4104 0 0 -1.4104 42.7255 525.1793)"><stop offset="0" class="a"/><stop offset="0.1425" class="b"/><stop offset="0.4575" class="c"/><stop offset="0.7511" class="d"/><stop offset="1" class="e"/></linearGradient><path d="M383.9 291.7c3.6-20.6 4.4-41 2.7-60.5l0 0c1.8 19.5 0.9 40-2.7 60.5 -3.5 19.8-9.2 38.4-16.7 55 0 0 0 0 0 0C374.7 330 380.4 311.5 383.9 291.7z" fill="url(#SVGID_20_)"/><path d="M383.8 212c0 0 0 0 0 0 0-0.3-0.1-0.5-0.1-0.8 0 0 0 0 0 0C383.8 211.5 383.8 211.8 383.8 212z" class="f"/><linearGradient gradientUnits="userSpaceOnUse" x1="241.8" y1="226" x2="241.8" y2="120.7" gradientTransform="matrix(1.4104 0 0 -1.4104 42.7255 525.1793)"><stop offset="0" class="g"/><stop offset="1" class="h"/></linearGradient><path d="M383.8 212c0 0 0 0 0 0 0-0.3-0.1-0.5-0.1-0.8 0 0 0 0 0 0C383.8 211.5 383.8 211.8 383.8 212z" fill="url(#SVGID_21_)"/><linearGradient gradientUnits="userSpaceOnUse" x1="241.8" y1="222.6" x2="241.8" y2="126.5" gradientTransform="matrix(1.4104 0 0 -1.4104 42.7255 525.1793)"><stop offset="0" class="a"/><stop offset="0.1425" class="b"/><stop offset="0.4575" class="c"/><stop offset="0.7511" class="d"/><stop offset="1" class="e"/></linearGradient><path d="M383.8 212c0 0 0 0 0 0 0-0.3-0.1-0.5-0.1-0.8 0 0 0 0 0 0C383.8 211.5 383.8 211.8 383.8 212z" fill="url(#SVGID_22_)"/><path d="M385.3 220.6c0.5 3.5 0.9 7 1.2 10.6l0 0c-0.3-3.6-0.7-7.1-1.2-10.6C385.3 220.6 385.3 220.6 385.3 220.6z" class="f"/><linearGradient gradientUnits="userSpaceOnUse" x1="243.3" y1="226" x2="243.3" y2="120.7" gradientTransform="matrix(1.4104 0 0 -1.4104 42.7255 525.1793)"><stop offset="0" class="g"/><stop offset="1" class="h"/></linearGradient><path d="M385.3 220.6c0.5 3.5 0.9 7 1.2 10.6l0 0c-0.3-3.6-0.7-7.1-1.2-10.6C385.3 220.6 385.3 220.6 385.3 220.6z" fill="url(#SVGID_23_)"/><linearGradient gradientUnits="userSpaceOnUse" x1="243.3" y1="222.6" x2="243.3" y2="126.5" gradientTransform="matrix(1.4104 0 0 -1.4104 42.7255 525.1793)"><stop offset="0" class="a"/><stop offset="0.1425" class="b"/><stop offset="0.4575" class="c"/><stop offset="0.7511" class="d"/><stop offset="1" class="e"/></linearGradient><path d="M385.3 220.6c0.5 3.5 0.9 7 1.2 10.6l0 0c-0.3-3.6-0.7-7.1-1.2-10.6C385.3 220.6 385.3 220.6 385.3 220.6z" fill="url(#SVGID_24_)"/><linearGradient gradientUnits="userSpaceOnUse" x1="204.7" y1="214.4" x2="204.7" y2="137.2" gradientTransform="matrix(1.4104 0 0 -1.4104 42.7255 525.1793)"><stop offset="0" class="g"/><stop offset="1" class="h"/></linearGradient><path d="M350 285.7L350 285.7c0.5-2.7 0.9-5.5 1.3-8.2 -1.4 2-2.9 4-4.4 5.8 -9.4 11-21.9 18.6-34.7 23 -0.2 0-0.3 0.1-0.5 0.1 1.9 3.2 4.1 6.3 6.6 9.2 3.5-1.4 7.9-3.9 13.2-8.2l2.2 1.8c0 0-5 5.6-13.2 9 4.3 4.6 9.3 8.9 15 12.8 0.5-0.4 0.9-0.8 1.4-1.2C342.7 316.5 347.2 301.6 350 285.7z" fill="url(#SVGID_25_)"/><linearGradient gradientUnits="userSpaceOnUse" x1="182" y1="301.5" x2="206.3" y2="301.5" gradientTransform="matrix(1.4104 0 0 1.344 42.7255 -92.2159)"><stop offset="0" class="a"/><stop offset="0.1425" class="b"/><stop offset="0.4575" class="c"/><stop offset="0.7511" class="d"/><stop offset="1" class="e"/></linearGradient><path d="M333.7 309.4l-2.2-1.8c-5.3 4.3-9.7 6.8-13.2 8.2 0.7 0.9 1.5 1.7 2.3 2.6C328.7 315 333.7 309.4 333.7 309.4z" fill="url(#SVGID_26_)"/><linearGradient gradientUnits="userSpaceOnUse" x1="200.8" y1="214.4" x2="200.8" y2="137.2" gradientTransform="matrix(1.4104 0 0 -1.4104 42.7255 525.1793)"><stop offset="0" class="g"/><stop offset="1" class="h"/></linearGradient><path d="M333.7 309.4l-2.2-1.8c-5.3 4.3-9.7 6.8-13.2 8.2 0.7 0.9 1.5 1.7 2.3 2.6C328.7 315 333.7 309.4 333.7 309.4z" fill="url(#SVGID_27_)"/><linearGradient gradientUnits="userSpaceOnUse" x1="213.7" y1="222.6" x2="213.7" y2="126.5" gradientTransform="matrix(1.4104 0 0 -1.4104 42.7255 525.1793)"><stop offset="0" class="a"/><stop offset="0.1425" class="b"/><stop offset="0.4575" class="c"/><stop offset="0.7511" class="d"/><stop offset="1" class="e"/></linearGradient><path d="M350 285.7L350 285.7c-2.8 15.9-7.3 30.8-13 44.2 0 0 0 0 0 0 5.8-13.4 10.3-28.3 13-44.2 0.5-2.7 0.9-5.5 1.3-8.2 0 0 0 0 0 0C350.9 280.3 350.5 283 350 285.7z" fill="url(#SVGID_28_)"/><linearGradient gradientUnits="userSpaceOnUse" x1="213.7" y1="214.4" x2="213.7" y2="137.2" gradientTransform="matrix(1.4104 0 0 -1.4104 42.7255 525.1793)"><stop offset="0" class="g"/><stop offset="1" class="h"/></linearGradient><path d="M350 285.7L350 285.7c-2.8 15.9-7.3 30.8-13 44.2 0 0 0 0 0 0 5.8-13.4 10.3-28.3 13-44.2 0.5-2.7 0.9-5.5 1.3-8.2 0 0 0 0 0 0C350.9 280.3 350.5 283 350 285.7z" fill="url(#SVGID_29_)"/><path d="M461.1 214.9c0.3 2.2 0.5 4.4 0.7 6.6 0 0 0 0 0 0 -0.2-2.2-0.5-4.4-0.7-6.6C461.1 214.9 461.1 214.9 461.1 214.9z" class="k"/><path d="M501.8 221.1h0v0c18.3 8.3 32.7 19.7 41.1 32.8 0 2-0.1 4-0.1 5.9 0 0 0 0 0 0 0-2 0.1-4 0.1-5.9 3.2 4.9 5.5 10.1 6.9 15.4 1.2 1.9 2.2 3.9 3.1 5.9h0c-1-7.3-3.8-14.4-8.1-21 -8.5-13.2-22.8-24.5-41.1-32.8 -9.9-4.5-20.9-8.1-32.8-10.6 0 0-0.1 0-0.1 0.1C482 213.4 492.5 216.9 501.8 221.1z" class="k"/><linearGradient gradientUnits="userSpaceOnUse" x1="357.1" y1="192.3" x2="357.1" y2="148.4" gradientTransform="matrix(1.4104 0 0 -1.4104 42.7255 525.1793)"><stop offset="0" class="g"/><stop offset="1" class="h"/></linearGradient><path d="M542.9 259.9c1.7 1.9 3.2 3.8 4.6 5.8 0.9 1.2 1.7 2.5 2.4 3.7 -1.4-5.3-3.8-10.5-6.9-15.4C542.9 256 542.9 257.9 542.9 259.9z" fill="url(#SVGID_30_)"/><path d="M542.9 259.9c1.7 1.9 3.2 3.8 4.6 5.8 0.9 1.2 1.7 2.5 2.4 3.7 -1.4-5.3-3.8-10.5-6.9-15.4C542.9 256 542.9 257.9 542.9 259.9z" class="k"/><linearGradient gradientUnits="userSpaceOnUse" x1="340.1" y1="215.6" x2="340.1" y2="126.9" gradientTransform="matrix(1.4104 0 0 -1.4104 42.7255 525.1793)"><stop offset="0" class="a"/><stop offset="0.1425" class="b"/><stop offset="0.4575" class="c"/><stop offset="0.7511" class="d"/><stop offset="1" class="e"/></linearGradient><path d="M501.8 221.2c0.4 3.9 0.6 7.9 0.8 11.9 16.9 7.1 30.7 16.3 40.2 26.9 0-2 0.1-4 0.1-5.9C534.5 240.8 520.1 229.5 501.8 221.2z" fill="url(#SVGID_31_)"/><path d="M501.8 221.2c0.4 3.9 0.6 7.9 0.8 11.9 16.9 7.1 30.7 16.3 40.2 26.9 0-2 0.1-4 0.1-5.9C534.5 240.8 520.1 229.5 501.8 221.2z" class="k"/><linearGradient gradientUnits="userSpaceOnUse" x1="311.4" y1="224.3" x2="311.4" y2="120.2" gradientTransform="matrix(1.4104 0 0 -1.4104 42.7255 525.1793)"><stop offset="0" class="g"/><stop offset="1" class="h"/></linearGradient><path d="M502.7 233c-0.2-4-0.5-7.9-0.8-11.9 -9.4-4.3-19.8-7.7-31-10.2 -3.4 1.4-6.6 2.7-9.7 3.9 0.3 2.2 0.5 4.4 0.7 6.6 14.7 2.6 28.3 6.4 40.4 11.4C502.4 232.9 502.5 233 502.7 233z" fill="url(#SVGID_32_)"/><path d="M502.7 233c-0.2-4-0.5-7.9-0.8-11.9 -9.4-4.3-19.8-7.7-31-10.2 -3.4 1.4-6.6 2.7-9.7 3.9 0.3 2.2 0.5 4.4 0.7 6.6 14.7 2.6 28.3 6.4 40.4 11.4C502.4 232.9 502.5 233 502.7 233z" class="k"/><linearGradient gradientUnits="userSpaceOnUse" x1="325.5" y1="224.3" x2="325.5" y2="216.5" gradientTransform="matrix(1.4104 0 0 -1.4104 42.7255 525.1793)"><stop offset="0" class="g"/><stop offset="1" class="h"/></linearGradient><polygon points="501.8 221.1 501.8 221.1 501.8 221.2 " fill="url(#SVGID_33_)"/><polygon points="501.8 221.1 501.8 221.1 501.8 221.2 " class="k"/><linearGradient gradientUnits="userSpaceOnUse" x1="325.8" y1="215.6" x2="325.8" y2="126.9" gradientTransform="matrix(1.4104 0 0 -1.4104 42.7255 525.1793)"><stop offset="0" class="a"/><stop offset="0.1425" class="b"/><stop offset="0.4575" class="c"/><stop offset="0.7511" class="d"/><stop offset="1" class="e"/></linearGradient><path d="M502.7 233c-0.2-4-0.5-7.9-0.8-11.9 0 0 0 0 0 0 0.4 3.9 0.6 7.9 0.8 11.9C502.7 233 502.7 233 502.7 233z" fill="url(#SVGID_34_)"/><linearGradient gradientUnits="userSpaceOnUse" x1="325.8" y1="224.3" x2="325.8" y2="120.2" gradientTransform="matrix(1.4104 0 0 -1.4104 42.7255 525.1793)"><stop offset="0" class="g"/><stop offset="1" class="h"/></linearGradient><path d="M502.7 233c-0.2-4-0.5-7.9-0.8-11.9 0 0 0 0 0 0 0.4 3.9 0.6 7.9 0.8 11.9C502.7 233 502.7 233 502.7 233z" fill="url(#SVGID_35_)"/><path d="M502.7 233c-0.2-4-0.5-7.9-0.8-11.9 0 0 0 0 0 0 0.4 3.9 0.6 7.9 0.8 11.9C502.7 233 502.7 233 502.7 233z" class="k"/><linearGradient gradientUnits="userSpaceOnUse" x1="292.6" y1="226.1" x2="292.6" y2="119.6" gradientTransform="matrix(1.4104 0 0 -1.4104 42.7255 525.1793)"><stop offset="0" class="a"/><stop offset="0.1425" class="b"/><stop offset="0.4575" class="c"/><stop offset="0.7511" class="d"/><stop offset="1" class="e"/></linearGradient><path d="M456.6 216.6c-2.7 1-5.2 2-7.6 2.9 2.6 0.3 5.1 0.6 7.6 1 1.8 0.3 3.5 0.6 5.2 0.9 -0.2-2.2-0.5-4.4-0.7-6.6C459.6 215.5 458.1 216.1 456.6 216.6z" fill="url(#SVGID_36_)"/><path d="M456.6 216.6c-2.7 1-5.2 2-7.6 2.9 2.6 0.3 5.1 0.6 7.6 1 1.8 0.3 3.5 0.6 5.2 0.9 -0.2-2.2-0.5-4.4-0.7-6.6C459.6 215.5 458.1 216.1 456.6 216.6z" class="k"/><path d="M391.3 213.1c0.1 0.4 0.2 0.7 0.3 0.9 0.1 0.2 0.1 0.3 0.1 0.3l-1.3 0.5c0 0-0.6-1.6-1.1-4.1 -1.2 0.3-2.5 0.5-3.7 0.8 -0.6 0.1-1.2 0.3-1.8 0.4 0.1 0.7 0.3 1.5 0.4 2.3 1 1.4 1.6 2.2 1.6 2.2l-1.1 0.9c0 0 0-0.1-0.1-0.1 0.2 1.2 0.4 2.3 0.5 3.5 3.8-0.6 7.6-1.1 11.5-1.4 1.1-2.8 2.6-6.3 4.5-10.5 -3.6 0.5-7.2 1.1-10.7 1.9C390.8 211.6 391.1 212.5 391.3 213.1z" class="f"/><linearGradient gradientUnits="userSpaceOnUse" x1="248" y1="226" x2="248" y2="120.7" gradientTransform="matrix(1.4104 0 0 -1.4104 42.7255 525.1793)"><stop offset="0" class="g"/><stop offset="1" class="h"/></linearGradient><path d="M391.3 213.1c0.1 0.4 0.2 0.7 0.3 0.9 0.1 0.2 0.1 0.3 0.1 0.3l-1.3 0.5c0 0-0.6-1.6-1.1-4.1 -1.2 0.3-2.5 0.5-3.7 0.8 -0.6 0.1-1.2 0.3-1.8 0.4 0.1 0.7 0.3 1.5 0.4 2.3 1 1.4 1.6 2.2 1.6 2.2l-1.1 0.9c0 0 0-0.1-0.1-0.1 0.2 1.2 0.4 2.3 0.5 3.5 3.8-0.6 7.6-1.1 11.5-1.4 1.1-2.8 2.6-6.3 4.5-10.5 -3.6 0.5-7.2 1.1-10.7 1.9C390.8 211.6 391.1 212.5 391.3 213.1z" fill="url(#SVGID_37_)"/><path d="M391.3 213.1c0.1 0.4 0.2 0.7 0.3 0.9 0.1 0.2 0.1 0.3 0.1 0.3l-1.3 0.5c0 0-0.6-1.6-1.1-4.1 -1.2 0.3-2.5 0.5-3.7 0.8 -0.6 0.1-1.2 0.3-1.8 0.4 0.1 0.7 0.3 1.5 0.4 2.3 1 1.4 1.6 2.2 1.6 2.2l-1.1 0.9c0 0 0-0.1-0.1-0.1 0.2 1.2 0.4 2.3 0.5 3.5 3.8-0.6 7.6-1.1 11.5-1.4 1.1-2.8 2.6-6.3 4.5-10.5 -3.6 0.5-7.2 1.1-10.7 1.9C390.8 211.6 391.1 212.5 391.3 213.1z" class="k"/><path d="M384.9 217.3l1.1-0.9c0 0-0.7-0.8-1.6-2.2 0.2 1 0.3 1.9 0.5 2.9C384.8 217.2 384.9 217.3 384.9 217.3z"/><linearGradient gradientUnits="userSpaceOnUse" x1="242.7" y1="226" x2="242.7" y2="120.7" gradientTransform="matrix(1.4104 0 0 -1.4104 42.7255 525.1793)"><stop offset="0" class="g"/><stop offset="1" class="h"/></linearGradient><path d="M384.9 217.3l1.1-0.9c0 0-0.7-0.8-1.6-2.2 0.2 1 0.3 1.9 0.5 2.9C384.8 217.2 384.9 217.3 384.9 217.3z" fill="url(#SVGID_38_)"/><path d="M384.9 217.3l1.1-0.9c0 0-0.7-0.8-1.6-2.2 0.2 1 0.3 1.9 0.5 2.9C384.8 217.2 384.9 217.3 384.9 217.3z" class="k"/><path d="M390.4 214.8l1.3-0.5c0 0 0-0.1-0.1-0.3 -0.1-0.2-0.2-0.5-0.3-0.9 -0.2-0.6-0.5-1.5-0.7-2.6 -0.4 0.1-0.8 0.2-1.2 0.2C389.9 213.2 390.4 214.8 390.4 214.8z"/><linearGradient gradientUnits="userSpaceOnUse" x1="246.6" y1="226" x2="246.6" y2="120.7" gradientTransform="matrix(1.4104 0 0 -1.4104 42.7255 525.1793)"><stop offset="0" class="g"/><stop offset="1" class="h"/></linearGradient><path d="M390.4 214.8l1.3-0.5c0 0 0-0.1-0.1-0.3 -0.1-0.2-0.2-0.5-0.3-0.9 -0.2-0.6-0.5-1.5-0.7-2.6 -0.4 0.1-0.8 0.2-1.2 0.2C389.9 213.2 390.4 214.8 390.4 214.8z" fill="url(#SVGID_39_)"/><path d="M390.4 214.8l1.3-0.5c0 0 0-0.1-0.1-0.3 -0.1-0.2-0.2-0.5-0.3-0.9 -0.2-0.6-0.5-1.5-0.7-2.6 -0.4 0.1-0.8 0.2-1.2 0.2C389.9 213.2 390.4 214.8 390.4 214.8z" class="k"/><linearGradient gradientUnits="userSpaceOnUse" x1="230.8" y1="222.6" x2="230.8" y2="126.5" gradientTransform="matrix(1.4104 0 0 -1.4104 42.7255 525.1793)"><stop offset="0" class="a"/><stop offset="0.1425" class="b"/><stop offset="0.4575" class="c"/><stop offset="0.7511" class="d"/><stop offset="1" class="e"/></linearGradient><path d="M374.6 214.5c-5.8 1.8-11.4 3.8-16.7 6.2 0.1 0.3 0.2 0.5 0.3 0.8 0.6 1.5 1 3 1.5 4.6 4.1-1.2 8.3-2.2 12.6-3.1 2.1-0.4 4.2-0.8 6.3-1.2 -0.2-0.4-0.4-0.7-0.6-1.1C377 218.8 375.8 216.8 374.6 214.5z" fill="url(#SVGID_40_)"/><path d="M374.6 214.5c-5.8 1.8-11.4 3.8-16.7 6.2 0.1 0.3 0.2 0.5 0.3 0.8 0.6 1.5 1 3 1.5 4.6 4.1-1.2 8.3-2.2 12.6-3.1 2.1-0.4 4.2-0.8 6.3-1.2 -0.2-0.4-0.4-0.7-0.6-1.1C377 218.8 375.8 216.8 374.6 214.5z" class="k"/><path d="M380.1 221.5c1.7-0.3 3.5-0.6 5.2-0.8 -0.2-1.2-0.4-2.3-0.5-3.5 -0.4-0.5-1.6-2.1-3-4.6 -1.9 0.5-3.9 1-5.7 1.6 1.2 2.1 2.2 4 3.2 5.8C379.5 220.5 379.8 221 380.1 221.5z" class="f"/><linearGradient gradientUnits="userSpaceOnUse" x1="239.6" y1="222.6" x2="239.6" y2="126.5" gradientTransform="matrix(1.4104 0 0 -1.4104 42.7255 525.1793)"><stop offset="0" class="a"/><stop offset="0.1425" class="b"/><stop offset="0.4575" class="c"/><stop offset="0.7511" class="d"/><stop offset="1" class="e"/></linearGradient><path d="M380.1 221.5c1.7-0.3 3.5-0.6 5.2-0.8 -0.2-1.2-0.4-2.3-0.5-3.5 -0.4-0.5-1.6-2.1-3-4.6 -1.9 0.5-3.9 1-5.7 1.6 1.2 2.1 2.2 4 3.2 5.8C379.5 220.5 379.8 221 380.1 221.5z" fill="url(#SVGID_41_)"/><path d="M380.1 221.5c1.7-0.3 3.5-0.6 5.2-0.8 -0.2-1.2-0.4-2.3-0.5-3.5 -0.4-0.5-1.6-2.1-3-4.6 -1.9 0.5-3.9 1-5.7 1.6 1.2 2.1 2.2 4 3.2 5.8C379.5 220.5 379.8 221 380.1 221.5z" class="k"/><path d="M382.9 212.2c0.5 0.8 0.9 1.4 1.4 2 -0.1-0.7-0.3-1.5-0.4-2.2C383.5 212.1 383.2 212.2 382.9 212.2z" class="f"/><linearGradient gradientUnits="userSpaceOnUse" x1="241.7" y1="222.6" x2="241.7" y2="126.5" gradientTransform="matrix(1.4104 0 0 -1.4104 42.7255 525.1793)"><stop offset="0" class="a"/><stop offset="0.1425" class="b"/><stop offset="0.4575" class="c"/><stop offset="0.7511" class="d"/><stop offset="1" class="e"/></linearGradient><path d="M382.9 212.2c0.5 0.8 0.9 1.4 1.4 2 -0.1-0.7-0.3-1.5-0.4-2.2C383.5 212.1 383.2 212.2 382.9 212.2z" fill="url(#SVGID_42_)"/><path d="M382.9 212.2c0.5 0.8 0.9 1.4 1.4 2 -0.1-0.7-0.3-1.5-0.4-2.2C383.5 212.1 383.2 212.2 382.9 212.2z" class="k"/><path d="M379.2 219.9c-1-1.7-2.1-3.7-3.2-5.8 -0.5 0.1-0.9 0.3-1.4 0.4 1.2 2.2 2.4 4.2 3.4 6.1 0.2 0.4 0.4 0.7 0.6 1.1 0.5-0.1 1-0.2 1.5-0.3C379.8 221 379.5 220.5 379.2 219.9z"/><linearGradient gradientUnits="userSpaceOnUse" x1="237.2" y1="222.6" x2="237.2" y2="126.5" gradientTransform="matrix(1.4104 0 0 -1.4104 42.7255 525.1793)"><stop offset="0" class="a"/><stop offset="0.1425" class="b"/><stop offset="0.4575" class="c"/><stop offset="0.7511" class="d"/><stop offset="1" class="e"/></linearGradient><path d="M379.2 219.9c-1-1.7-2.1-3.7-3.2-5.8 -0.5 0.1-0.9 0.3-1.4 0.4 1.2 2.2 2.4 4.2 3.4 6.1 0.2 0.4 0.4 0.7 0.6 1.1 0.5-0.1 1-0.2 1.5-0.3C379.8 221 379.5 220.5 379.2 219.9z" fill="url(#SVGID_43_)"/><path d="M379.2 219.9c-1-1.7-2.1-3.7-3.2-5.8 -0.5 0.1-0.9 0.3-1.4 0.4 1.2 2.2 2.4 4.2 3.4 6.1 0.2 0.4 0.4 0.7 0.6 1.1 0.5-0.1 1-0.2 1.5-0.3C379.8 221 379.5 220.5 379.2 219.9z" class="k"/><path d="M384.2 214.2c-0.4-0.6-0.9-1.2-1.4-2 -0.4 0.1-0.8 0.2-1.2 0.3 1.4 2.5 2.7 4.1 3 4.6C384.6 216.2 384.4 215.2 384.2 214.2z"/><linearGradient gradientUnits="userSpaceOnUse" x1="241.4" y1="222.6" x2="241.4" y2="126.5" gradientTransform="matrix(1.4104 0 0 -1.4104 42.7255 525.1793)"><stop offset="0" class="a"/><stop offset="0.1425" class="b"/><stop offset="0.4575" class="c"/><stop offset="0.7511" class="d"/><stop offset="1" class="e"/></linearGradient><path d="M384.2 214.2c-0.4-0.6-0.9-1.2-1.4-2 -0.4 0.1-0.8 0.2-1.2 0.3 1.4 2.5 2.7 4.1 3 4.6C384.6 216.2 384.4 215.2 384.2 214.2z" fill="url(#SVGID_44_)"/><path d="M384.2 214.2c-0.4-0.6-0.9-1.2-1.4-2 -0.4 0.1-0.8 0.2-1.2 0.3 1.4 2.5 2.7 4.1 3 4.6C384.6 216.2 384.4 215.2 384.2 214.2z" class="k"/><path d="M385.3 220.6c0 0 0 0 0 0 -0.2-1.2-0.4-2.3-0.5-3.5 0 0 0 0 0 0C384.9 218.3 385.1 219.4 385.3 220.6z" class="f"/><linearGradient gradientUnits="userSpaceOnUse" x1="242.7" y1="226" x2="242.7" y2="120.7" gradientTransform="matrix(1.4104 0 0 -1.4104 42.7255 525.1793)"><stop offset="0" class="g"/><stop offset="1" class="h"/></linearGradient><path d="M385.3 220.6c0 0 0 0 0 0 -0.2-1.2-0.4-2.3-0.5-3.5 0 0 0 0 0 0C384.9 218.3 385.1 219.4 385.3 220.6z" fill="url(#SVGID_45_)"/><linearGradient gradientUnits="userSpaceOnUse" x1="242.7" y1="222.6" x2="242.7" y2="126.5" gradientTransform="matrix(1.4104 0 0 -1.4104 42.7255 525.1793)"><stop offset="0" class="a"/><stop offset="0.1425" class="b"/><stop offset="0.4575" class="c"/><stop offset="0.7511" class="d"/><stop offset="1" class="e"/></linearGradient><path d="M385.3 220.6c0 0 0 0 0 0 -0.2-1.2-0.4-2.3-0.5-3.5 0 0 0 0 0 0C384.9 218.3 385.1 219.4 385.3 220.6z" fill="url(#SVGID_46_)"/><path d="M385.3 220.6c0 0 0 0 0 0 -0.2-1.2-0.4-2.3-0.5-3.5 0 0 0 0 0 0C384.9 218.3 385.1 219.4 385.3 220.6z" class="k"/><path d="M384.2 214.2c0 0 0 0 0 0 -0.1-0.8-0.3-1.5-0.4-2.3 0 0 0 0 0 0C384 212.8 384.1 213.5 384.2 214.2z" class="f"/><linearGradient gradientUnits="userSpaceOnUse" x1="242" y1="226" x2="242" y2="120.7" gradientTransform="matrix(1.4104 0 0 -1.4104 42.7255 525.1793)"><stop offset="0" class="g"/><stop offset="1" class="h"/></linearGradient><path d="M384.2 214.2c0 0 0 0 0 0 -0.1-0.8-0.3-1.5-0.4-2.3 0 0 0 0 0 0C384 212.8 384.1 213.5 384.2 214.2z" fill="url(#SVGID_47_)"/><linearGradient gradientUnits="userSpaceOnUse" x1="242" y1="222.6" x2="242" y2="126.5" gradientTransform="matrix(1.4104 0 0 -1.4104 42.7255 525.1793)"><stop offset="0" class="a"/><stop offset="0.1425" class="b"/><stop offset="0.4575" class="c"/><stop offset="0.7511" class="d"/><stop offset="1" class="e"/></linearGradient><path d="M384.2 214.2c0 0 0 0 0 0 -0.1-0.8-0.3-1.5-0.4-2.3 0 0 0 0 0 0C384 212.8 384.1 213.5 384.2 214.2z" fill="url(#SVGID_48_)"/><path d="M384.2 214.2c0 0 0 0 0 0 -0.1-0.8-0.3-1.5-0.4-2.3 0 0 0 0 0 0C384 212.8 384.1 213.5 384.2 214.2z" class="k"/><path d="M384.7 217.1c0 0 0 0 0 0 -0.2-1-0.3-1.9-0.5-2.9 0 0 0 0 0 0C384.4 215.2 384.6 216.2 384.7 217.1z"/><linearGradient gradientUnits="userSpaceOnUse" x1="242.3" y1="226" x2="242.3" y2="120.7" gradientTransform="matrix(1.4104 0 0 -1.4104 42.7255 525.1793)"><stop offset="0" class="g"/><stop offset="1" class="h"/></linearGradient><path d="M384.7 217.1c0 0 0 0 0 0 -0.2-1-0.3-1.9-0.5-2.9 0 0 0 0 0 0C384.4 215.2 384.6 216.2 384.7 217.1z" fill="url(#SVGID_49_)"/><linearGradient gradientUnits="userSpaceOnUse" x1="242.3" y1="222.6" x2="242.3" y2="126.5" gradientTransform="matrix(1.4104 0 0 -1.4104 42.7255 525.1793)"><stop offset="0" class="a"/><stop offset="0.1425" class="b"/><stop offset="0.4575" class="c"/><stop offset="0.7511" class="d"/><stop offset="1" class="e"/></linearGradient><path d="M384.7 217.1c0 0 0 0 0 0 -0.2-1-0.3-1.9-0.5-2.9 0 0 0 0 0 0C384.4 215.2 384.6 216.2 384.7 217.1z" fill="url(#SVGID_50_)"/><path d="M384.7 217.1c0 0 0 0 0 0 -0.2-1-0.3-1.9-0.5-2.9 0 0 0 0 0 0C384.4 215.2 384.6 216.2 384.7 217.1z" class="k"/><path d="M387.5 250.4l-35.8-31.9c-0.8-1.5-1.7-3-2.5-4.4 -0.8-1.5-1.8-2.8-2.8-4.2 -1-1.4-1.9-2.8-3.1-4 -8.6-10.5-20.4-17.8-32.5-22.2 -10.3-3.6-20.8-5.3-31-5.2 2.5 3.9 4.1 8 5 11.7 0.3 1 0.4 2 0.6 3 0.2 1 0.3 1.9 0.4 2.8 0.1 0.9 0.2 1.8 0.2 2.6 0 0.8 0 1.6 0 2.4 0.1 1.5-0.1 2.9-0.1 4.1 0 1.2-0.2 2.2-0.3 3 -0.2 1.6-0.3 2.5-0.3 2.5l0 0h0c0 0-0.2 0.8-0.5 2.4 -0.2 0.8-0.4 1.7-0.8 2.9 -0.4 1.1-0.7 2.5-1.3 3.9 -0.3 0.7-0.6 1.4-0.9 2.2 -0.4 0.8-0.8 1.5-1.2 2.4 -0.4 0.8-0.9 1.7-1.4 2.5 -0.5 0.8-1 1.7-1.6 2.6 -2.4 3.5-5.6 7.1-9.9 10.1 -0.5 0.4-1.1 0.7-1.6 1.1 -0.6 0.3-1.2 0.6-1.8 1 -1.2 0.7-2.5 1.1-3.8 1.7 -0.7 0.2-1.4 0.4-2 0.6 -0.7 0.2-1.4 0.4-2.1 0.5 -0.7 0.1-1.4 0.2-2.2 0.3 -0.7 0-1.5 0-2.2 0 -0.8 0.1-1.5 0-2.3-0.1 -0.8-0.1-1.5-0.1-2.3-0.3 -0.7-0.2-1.5-0.4-2.2-0.5 -0.7-0.2-1.5-0.5-2.2-0.8 -2.9-1.2-5.7-2.9-8-5.2 -0.7 0.6-1.4 1.1-2.1 1.7 -0.4 0.3-0.8 0.6-1.3 0.9 -0.5 0.2-0.9 0.5-1.4 0.8 -0.9 0.6-1.9 0.9-3 1.3 -2.1 0.6-4.3 1.2-6.7 1.1 -0.6 0-1.2 0-1.8-0.1 -0.6-0.1-1.2-0.1-1.8-0.2 -0.6-0.1-1.1-0.3-1.7-0.4 -0.6-0.2-1.2-0.4-1.7-0.6 -2.3-1-4.5-2.3-6.3-4.1 -0.8-0.7-1.5-1.6-2.2-2.4 -0.2 1-0.3 1.9-0.3 2.8 -0.2 3.2-0.4 5-0.4 5 0 0.1 0.1 1.8 0.3 5.1 0 1.7 0.5 3.7 0.8 6 0.3 2.4 1.2 5 2.1 8 0.5 1.5 1.2 2.9 1.9 4.5 0.3 0.8 0.7 1.6 1.1 2.4 0.4 0.8 0.9 1.6 1.3 2.4 0.9 1.6 1.8 3.3 3.1 4.9 0.6 0.8 1.2 1.6 1.8 2.5 0.3 0.4 0.6 0.8 0.9 1.3 0.4 0.4 0.7 0.8 1.1 1.2 5.5 6.6 13.1 12.9 22.5 17.7 9.4 4.8 20.5 8.2 32.5 9.2 1.5 0.1 3 0.1 4.6 0.2 1.5 0 3.1 0.2 4.6 0.1 1.6-0.1 3.1-0.2 4.7-0.3 0.8-0.1 1.6-0.1 2.4-0.1l2.3-0.3c1.6-0.2 3.1-0.4 4.7-0.7 1.6-0.3 3.1-0.7 4.7-1.1 2.8-0.5 17.1-2.8 24.3-5.8M280.5 258.7c-0.1 0.4-0.2 0.7-0.2 0.7 -0.1 0.3-0.4 0.5-0.7 0.3 -0.1 0-0.1-0.1-0.2-0.1l-0.1-0.1c0 0-0.2-0.2-0.4-0.4 -0.1-0.1-0.2-0.3-0.4-0.5 -0.2-0.2-0.4-0.3-0.5-0.5 -0.2-0.2-0.4-0.4-0.6-0.6 -0.2-0.2-0.5-0.4-0.7-0.6 0 0-0.1 0-0.1-0.1 -0.4 0.7-0.9 1.4-1.5 2.2 -0.4 0.5-0.8 1-1.3 1.6 -0.5 0.5-1 1-1.6 1.6 -1.1 1.1-2.4 2.3-3.8 3.4 -1.4 1.1-2.9 2.3-4.6 3.4 -0.8 0.6-1.7 1.1-2.6 1.5 -0.9 0.5-1.8 0.9-2.8 1.4 -1.9 0.9-4 1.5-6 2 -2.1 0.4-4.2 0.7-6.3 0.7 -2.1 0-4.2-0.2-6.1-0.6 -3.9-0.8-7.3-2.3-10.1-3.8 -2.7-1.6-4.8-3.2-6.2-4.4 -1.4-1.2-2.1-2-2.1-2l0 0c-0.2-0.2-0.2-0.5 0-0.7 0.2-0.2 0.5-0.2 0.7 0 0 0 0.7 0.7 2.1 1.7 1.4 1 3.5 2.5 6.2 3.8 2.7 1.3 6 2.5 9.6 3.1 1.8 0.3 3.7 0.4 5.6 0.3 1.9 0 3.9-0.4 5.8-0.8 1.9-0.5 3.7-1.1 5.5-1.9 0.9-0.4 1.7-0.8 2.6-1.3 0.8-0.5 1.6-0.9 2.4-1.5 1.6-1 2.9-2.1 4.3-3.2 1.3-1.1 2.5-2.2 3.5-3.3 1.1-1.1 2-2.1 2.8-3 0.7-0.7 1.3-1.3 1.9-1.8 -1-0.9-2.1-1.7-2.9-2.4 -0.9-0.8-1.6-1.5-1.6-1.5l0 0c-0.2-0.2-0.2-0.6 0-0.8 0.1-0.1 0.2-0.1 0.3-0.1 0 0 1-0.1 2.3 0.1 0.7 0.1 1.4 0.3 2.2 0.7 0.8 0.3 1.6 0.8 2.4 1.3 0.8 0.5 1.5 1.2 2 2 0.5 0.8 0.9 1.6 1.1 2.3C280.6 257.6 280.6 258.2 280.5 258.7z" class="i"/><linearGradient gradientUnits="userSpaceOnUse" x1="218.5" y1="222.6" x2="218.5" y2="126.5" gradientTransform="matrix(1.4104 0 0 -1.4104 42.7255 525.1793)"><stop offset="0" class="a"/><stop offset="0.1425" class="b"/><stop offset="0.4575" class="c"/><stop offset="0.7511" class="d"/><stop offset="1" class="e"/></linearGradient><path d="M350.8 222.7c0.1 0.4 0.1 0.8 0.2 1.2C351 223.5 350.9 223.1 350.8 222.7L350.8 222.7z" fill="url(#SVGID_51_)"/><path d="M351.7 228.5c-0.2-1.5-0.4-3.1-0.6-4.6" class="l"/><path d="M351.7 228.5c-0.2-1.5-0.4-3.1-0.6-4.6" class="l"/><path d="M346.8 283.4c1.6-1.9 3-3.8 4.4-5.8 0 0 0 0 0 0 2.7-4 5.1-8.2 6.8-12.8 0.4-0.8 0.7-1.7 0.9-2.6l0.8-2.6c0.3-0.9 0.6-1.8 0.8-2.7l0.5-2.7c0.3-1.8 0.8-3.6 0.8-5.5l0.3-5.7c0-5.4-0.9-11.4-2.5-17 -0.4-1.6-0.9-3.1-1.5-4.6 -0.1-0.3-0.2-0.5-0.3-0.8 -0.1-0.3-0.3-0.7-0.4-1 -2.5-6.2-6.3-11.9-10.5-17 -9.3-11.1-21.8-18.8-34.7-23.4 -11.7-3.9-23.9-5.3-35.2-4.6 -0.2-0.3-0.5-0.6-0.7-0.8 -0.9-1.1-2-2-3-2.9 -0.5-0.5-1.2-0.8-1.8-1.3 -0.6-0.4-1.2-0.9-1.9-1.2 -0.7-0.3-1.3-0.7-2-1.1 -0.7-0.3-1.5-0.6-2.2-0.8 -4.7-1.7-10.3-1.8-15.5-0.2 0.8-2 1.6-4 2.5-6 1.3-2.9 2.8-5.8 4.3-8.7 1.6-2.8 3.3-5.6 5.1-8.2 0.9-1.3 1.8-2.6 2.8-3.8 0.9-1.2 2-2.4 3-3.5 2-2.3 4.2-4.2 6.3-6 1.1-0.9 2.2-1.6 3.3-2.4 1.1-0.7 2.2-1.3 3.2-2 0.1 0 0.2-0.1 0.2-0.1 0.2 0.3 0.3 0.5 0.5 0.8 1.1 1.5 2.7 2.7 4.3 3.4 0.8 0.3 1.7 0.6 2.6 0.7 0.5 0.1 0.8 0.1 1.2 0.1 0.5 0 0.9 0 1.3 0 1.6-0.2 3.1-0.7 4.4-1.5 2.5-1.5 3.8-3.8 4.3-5.4 0.2-0.8 0.3-1.6 0.4-2 0-0.4 0-0.7 0-0.7l0 0c0 0 0-0.2 0-0.7 0-0.5-0.1-1.1-0.3-2 -0.4-1.6-1.7-4-4.2-5.5 -1.3-0.8-2.7-1.3-4.5-1.5 -1.6-0.2-3.4 0.1-5.1 0.8 -1.7 0.7-3.2 1.9-4.3 3.4 -0.5 0.8-1 1.7-1.3 2.6 -0.3 0.9-0.4 2-0.4 2.8 0 1.3 0.3 2.5 0.8 3.6 -0.1 0-0.2 0.1-0.3 0.1 -1.1 0.6-2.2 1.2-3.4 2 -1.1 0.8-2.3 1.5-3.4 2.4 -2.2 1.8-4.5 3.8-6.6 6 -1.1 1.1-2.1 2.3-3.1 3.5 -1 1.2-2 2.5-3 3.8 -1.9 2.6-3.7 5.4-5.4 8.3 -1.6 2.9-3.2 5.8-4.6 8.7 -1.3 2.6-2.4 5.3-3.5 7.9 -0.1 0.1-0.2 0.1-0.4 0.2 -6.1 2.7-11.2 7.5-15 13.1 -0.4 0.5-0.7 1.1-1.1 1.7 -0.9-6.1-1.5-13-1.5-20 0-2.5 0.1-5 0.3-7.5 0.2-2.5 0.5-4.9 1-7.2 0.4-2.3 1.1-4.5 1.8-6.5 0.4-1 0.8-2 1.2-2.9 0.5-0.9 0.9-1.8 1.4-2.5 1-1.6 2.1-2.9 3.2-3.9 0.3-0.2 0.6-0.5 0.8-0.7 0.4 0.4 0.9 0.8 1.6 1.2 0.8 0.4 1.7 0.7 2.7 0.8 0.3 0 0.5 0 0.8 0 0.3 0 0.5 0 0.8 0 0.6-0.1 1.1-0.2 1.6-0.4 1-0.4 2.1-1 2.8-1.9 0.8-0.9 1.3-2.1 1.3-3.4 0-1.1-0.5-2.5-1.3-3.3 -0.8-0.9-1.8-1.6-2.8-1.9 -1.1-0.4-2.2-0.5-3.1-0.4 -1.1 0.1-2 0.4-2.8 0.8 -1.6 0.8-2.5 2.2-2.8 3.2 -0.2 0.5-0.2 0.9-0.3 1.2 0 0.3 0 0.4 0 0.4l0 0c0 0 0 0.1 0 0.4 0 0.3 0.1 0.7 0.3 1.2 0.2 0.5 0.5 1.1 1 1.6 -0.3 0.2-0.6 0.4-0.8 0.7 -1.2 1-2.4 2.4-3.5 3.9 -0.6 0.8-1 1.7-1.6 2.6 -0.5 0.9-0.9 1.9-1.4 2.9 -0.8 2-1.6 4.2-2.1 6.6 -0.6 2.3-1 4.8-1.3 7.3 -0.3 2.5-0.5 5-0.6 7.6 -0.2 6.8 0.2 13.6 0.8 19.6 -3.8-0.8-8-0.3-11.8 1.4 -4.7 2.1-8.7 5.7-11.7 10.1 -3 4.4-4.9 9.6-5.9 14.8 -0.8 5.3-0.8 10.8 0.6 16 0.9 3.5 2.4 6.9 4.4 9.8 -0.3 1.5-0.5 2.8-0.5 4 -0.2 3.4-0.2 5.2-0.2 5.2h0l0 0c0 0 0.1 1.8 0.3 5.1 0 1.7 0.5 3.7 0.9 6.1 0.3 2.4 1.3 5.1 2.2 8.1 2.2 5.9 5.5 12.8 11 19.6 5.5 6.8 13.1 13.4 22.6 18.5 9.5 5.2 20.8 8.9 33.1 10.2 1.5 0.1 3.1 0.2 4.7 0.3 1.6 0 3.1 0.3 4.8 0.2 1.6-0.1 3.1-0.1 4.7-0.2 0.8 0 1.6 0 2.4-0.1l2.4-0.3c1.6-0.2 3.3-0.4 4.9-0.6 1.6-0.3 3.2-0.7 4.9-1 3.1-0.5 6.2-1.6 9.2-2.5 0.2 0 0.3-0.1 0.5-0.1C324.9 302 337.4 294.4 346.8 283.4zM281.3 118.7c0.3-0.8 0.7-1.5 1.2-2.2 1-1.4 2.4-2.4 3.8-3 1.5-0.6 3-0.8 4.5-0.6 1.4 0.2 2.7 0.7 3.8 1.3 2.2 1.3 3.3 3.3 3.7 4.7 0.2 0.7 0.3 1.3 0.3 1.7 0 0.4 0 0.6 0 0.6 0 0.1 0 0.3 0 0.6 0 0.4-0.1 0.9-0.3 1.7 -0.4 1.4-1.4 3.4-3.6 4.8 -1.1 0.7-2.4 1.2-3.9 1.4 -0.4 0-0.8 0.1-1.1 0.1 -0.4 0-0.8 0-1.2-0.1 -0.7-0.1-1.5-0.3-2.3-0.6 -1.5-0.6-2.9-1.7-3.8-3 -0.5-0.7-0.9-1.5-1.1-2.3 -0.2-0.8-0.4-1.7-0.4-2.5C280.9 120.3 281 119.5 281.3 118.7zM238.9 129c-0.1-0.4-0.2-0.7-0.2-1 0-0.3 0-0.4 0-0.4l0 0c0 0 0-0.1 0-0.4 0-0.2 0.1-0.6 0.2-1 0.3-0.8 1-1.9 2.4-2.6 0.7-0.4 1.5-0.6 2.3-0.7 0.9-0.1 1.8 0 2.7 0.3 0.9 0.3 1.7 0.9 2.4 1.6 0.6 0.8 1 1.6 1 2.7 0 0.9-0.4 1.9-1 2.7 -0.6 0.8-1.5 1.3-2.4 1.6 -0.4 0.2-0.9 0.3-1.4 0.3 -0.2 0-0.5 0-0.7 0.1 -0.2 0-0.4 0-0.7 0 -0.9-0.1-1.7-0.3-2.4-0.7C239.9 130.9 239.2 129.8 238.9 129zM230.9 186c0.4-0.7 0.8-1.4 1.2-2.1 0.4-0.7 0.8-1.4 1.3-2.1 3.7-5.4 8.6-9.8 14.3-12.3 5.6-2.5 11.8-2.7 17.1-0.7 0.6 0.2 1.3 0.5 1.9 0.7 0.6 0.3 1.2 0.7 1.8 1 0.6 0.3 1.2 0.7 1.7 1.1 0.5 0.4 1.1 0.8 1.6 1.2 1 0.9 2 1.7 2.8 2.7 0.4 0.5 0.8 0.9 1.3 1.4 0.4 0.5 0.7 1 1.1 1.5 2.9 4 4.5 8.3 5.5 12.2 0.3 1 0.4 1.9 0.6 2.9 0.2 0.9 0.4 1.8 0.4 2.7 0.1 0.9 0.2 1.7 0.3 2.5 0 0.8 0 1.6 0.1 2.3 0.1 1.5 0 2.8-0.1 3.9 0 1.1-0.1 2.1-0.3 2.9 -0.2 1.5-0.3 2.4-0.3 2.4l0 0c0 0 0 0 0 0l0 0v0c0 0.2-0.2 1-0.5 2.4 -0.2 0.8-0.3 1.8-0.7 2.8 -0.3 1.1-0.6 2.3-1.2 3.7 -0.3 0.7-0.5 1.4-0.8 2.2 -0.3 0.7-0.7 1.5-1.1 2.3 -0.3 0.8-0.8 1.6-1.3 2.4 -0.5 0.8-0.9 1.7-1.5 2.5 -2.2 3.4-5.2 6.9-9.3 9.8 -0.5 0.4-1 0.7-1.6 1.1 -0.6 0.3-1.1 0.6-1.7 0.9 -1.1 0.7-2.4 1.1-3.6 1.6 -0.6 0.2-1.3 0.4-1.9 0.6 -0.7 0.2-1.3 0.4-2 0.5 -0.7 0.1-1.4 0.2-2.1 0.3 -0.7 0-1.4 0-2.1 0.1 -0.7 0.1-1.4 0-2.1-0.1 -0.7-0.1-1.5-0.1-2.1-0.3 -0.7-0.2-1.5-0.3-2.2-0.5 -0.7-0.2-1.4-0.5-2.1-0.8 -2.7-1.1-5.4-2.7-7.6-4.9 -4.5-4.3-7.6-10.3-9.2-16.6 -1.7-6.4-1.7-13.2-0.6-19.8 0.7-3.3 1.5-6.5 2.8-9.6C229.4 189 230.2 187.5 230.9 186zM200.7 224c-1.3-5-1.4-10.4-0.5-15.5 1-5.2 2.8-10.2 5.8-14.4 2.9-4.3 6.8-7.8 11.3-9.8 3.7-1.7 7.8-2.1 11.5-1.2 0.1 1 0.2 1.9 0.3 2.8 -0.6 1.3-1.3 2.6-1.8 4 -0.3 0.8-0.6 1.6-0.9 2.4l-0.7 2.5c-0.5 1.7-0.7 3.3-1.1 5 -0.3 1.8-0.5 3.7-0.6 5.6 -1.5-1.3-3.2-2-5-2 -5.5 0-10 6.7-10 14.9s4.5 14.9 10 14.9c3.6 0 6.7-2.7 8.5-6.9 1.7 4 4.1 7.6 7 10.5 -0.6 0.5-1.3 1.1-2 1.6 -0.4 0.3-0.8 0.6-1.2 0.8 -0.4 0.2-0.9 0.5-1.3 0.7 -0.9 0.5-1.9 0.8-2.8 1.3 -2 0.6-4.1 1.2-6.4 1.1 -0.6 0-1.1 0-1.7-0.1 -0.5-0.1-1.2-0.1-1.7-0.2 -0.6-0.1-1.1-0.3-1.7-0.4 -0.6-0.2-1.1-0.4-1.6-0.6 -2.1-0.9-4.2-2.2-6-3.9C204.4 233.7 201.9 229 200.7 224zM224.4 216.2c-0.2 0-0.4 0.1-0.6 0.1 -1.9 0-3.5-2.1-3.5-4.8 0-2.6 1.6-4.8 3.5-4.8 0 0 0 0 0 0C223.7 209.9 223.9 213.1 224.4 216.2zM353.5 222.7l0.2 0.5c0.5 1.4 1 2.8 1.4 4.2 1.5 5.1 2.3 10.2 2.5 15.9l-0.3 5c0 1.7-0.5 3.4-0.7 5.1l-0.4 2.5c-0.2 0.8-0.5 1.6-0.7 2.5l-0.7 2.5c-0.2 0.8-0.5 1.6-0.8 2.4l-1.5 3.5 0 0 -0.5 1.2c-0.8 1.5-1.7 3-2.5 4.5 -0.7 1.5-1.8 2.9-2.8 4.3 -1 1.4-1.9 2.8-3.1 4.1 -8.6 10.6-20.4 18-32.6 22.6 -0.3 0.1-0.7 0.2-1 0.3 -2.8 0.9-5.5 1.9-8.3 2.4 -1.6 0.4-3.1 0.8-4.7 1.1 -1.6 0.2-3.1 0.4-4.7 0.7l-2.3 0.3c-0.8 0.1-1.6 0.1-2.4 0.1 -1.6 0.1-3.2 0.2-4.7 0.3 -1.5 0.1-3.1 0-4.6-0.1 -1.5-0.1-3-0.1-4.5-0.2 -12-1-23.2-4.4-32.5-9.2 -9.4-4.8-17-11.1-22.5-17.7 -0.4-0.4-0.7-0.8-1.1-1.2 -0.3-0.4-0.6-0.9-0.9-1.3 -0.6-0.8-1.2-1.7-1.8-2.5 -1.3-1.6-2.1-3.3-3.1-4.9 -0.5-0.8-0.9-1.6-1.3-2.4 -0.4-0.8-0.7-1.6-1.1-2.4 -0.6-1.6-1.4-3-1.9-4.5 -0.9-3-1.8-5.6-2.1-8 -0.4-2.4-0.8-4.3-0.8-6 -0.2-3.2-0.3-5-0.3-5.1 0-0.1 0.1-1.8 0.4-5 0-0.8 0.1-1.8 0.3-2.8 0.7 0.8 1.4 1.7 2.2 2.4 1.8 1.8 4 3.1 6.3 4.1 0.6 0.2 1.2 0.5 1.7 0.6 0.6 0.1 1.1 0.3 1.7 0.4 0.6 0.2 1.2 0.2 1.8 0.2 0.6 0.1 1.2 0.1 1.8 0.1 2.4 0.1 4.6-0.5 6.7-1.1 1-0.4 2-0.8 3-1.3 0.5-0.3 0.9-0.5 1.4-0.8 0.4-0.3 0.9-0.6 1.3-0.9 0.8-0.5 1.5-1.1 2.1-1.7 2.3 2.3 5.1 4 8 5.2 0.7 0.3 1.5 0.6 2.2 0.8 0.7 0.2 1.5 0.4 2.2 0.5 0.8 0.2 1.5 0.2 2.3 0.3 0.8 0.1 1.5 0.2 2.3 0.1 0.8 0 1.5 0 2.2 0 0.7-0.1 1.5-0.2 2.2-0.3 0.7-0.1 1.4-0.3 2.1-0.5 0.7-0.2 1.4-0.4 2-0.6 1.3-0.6 2.6-1 3.8-1.7 0.6-0.3 1.2-0.6 1.8-1 0.6-0.4 1.1-0.7 1.6-1.1 4.3-3 7.5-6.6 9.9-10.1 0.6-0.8 1.1-1.7 1.6-2.6 0.5-0.8 1-1.7 1.4-2.5 0.4-0.8 0.8-1.6 1.2-2.4 0.3-0.8 0.6-1.5 0.9-2.2 0.6-1.4 0.9-2.7 1.3-3.9 0.4-1.1 0.6-2.1 0.8-2.9 0.3-1.6 0.5-2.4 0.5-2.4h0l0 0c0 0 0.1-0.9 0.4-2.5 0.1-0.8 0.3-1.8 0.3-3 0.1-1.2 0.2-2.5 0.1-4.1 0-0.8 0-1.6 0-2.4 -0.1-0.8-0.2-1.7-0.2-2.6 -0.1-0.9-0.2-1.9-0.4-2.8 -0.2-1-0.3-2-0.6-3 -0.9-3.7-2.4-7.8-5-11.7 10.2-0.1 20.8 1.6 31 5.2 12.2 4.4 23.9 11.8 32.5 22.2 1.2 1.2 2.1 2.6 3.1 4 1 1.4 2 2.7 2.8 4.2 0.8 1.5 1.7 2.9 2.5 4.4"/><path d="M213.9 240.9c0.5 0.2 1.1 0.4 1.6 0.6 0.6 0.1 1.2 0.3 1.7 0.4 0.5 0.2 1.1 0.1 1.7 0.2 0.6 0.1 1.1 0.1 1.7 0.1 2.2 0.1 4.4-0.5 6.4-1.1 1-0.4 2-0.7 2.8-1.3 0.4-0.2 0.9-0.5 1.3-0.7 0.4-0.3 0.8-0.6 1.2-0.8 0.7-0.5 1.4-1 2-1.6 -3-3-5.3-6.6-7-10.5 -1.8 4.1-4.9 6.9-8.5 6.9 -5.5 0-10-6.7-10-14.9s4.5-14.9 10-14.9c1.8 0 3.5 0.7 5 2 0.1-1.9 0.3-3.7 0.6-5.6 0.4-1.7 0.6-3.3 1.1-5l0.7-2.5c0.3-0.8 0.6-1.6 0.9-2.4 0.5-1.4 1.1-2.7 1.8-4 -0.1-0.9-0.2-1.9-0.3-2.8 -3.7-0.8-7.8-0.4-11.5 1.2 -4.5 2-8.4 5.5-11.3 9.8 -3 4.3-4.8 9.3-5.8 14.5 -0.8 5.2-0.8 10.6 0.5 15.5 1.3 5 3.7 9.6 7.3 13C209.7 238.8 211.8 240 213.9 240.9z" class="m"/><path d="M279.4 254.5c-0.5-0.7-1.2-1.4-2-2 -0.8-0.6-1.6-1-2.3-1.3 -0.8-0.3-1.6-0.5-2.2-0.7 -1.3-0.3-2.3-0.1-2.3-0.1 -0.1 0-0.2 0.1-0.3 0.1 -0.2 0.2-0.2 0.6 0 0.8l0 0c0 0 0.6 0.7 1.6 1.5 0.8 0.7 1.8 1.5 2.9 2.4 -0.6 0.5-1.2 1.1-1.9 1.8 -0.8 0.9-1.8 1.9-2.8 3 -1 1.1-2.2 2.2-3.5 3.3 -1.3 1.1-2.7 2.2-4.3 3.2 -0.8 0.5-1.6 1-2.4 1.5 -0.8 0.5-1.7 0.9-2.6 1.3 -1.7 0.8-3.6 1.4-5.5 1.9 -1.9 0.4-3.8 0.8-5.7 0.8 -1.9 0.1-3.8 0-5.6-0.3 -3.7-0.6-6.9-1.8-9.6-3.1 -2.7-1.3-4.8-2.7-6.2-3.8 -1.4-1-2.1-1.7-2.1-1.7 -0.2-0.2-0.5-0.2-0.7 0 -0.2 0.2-0.2 0.5 0 0.7l0 0c0 0 0.7 0.8 2.1 2 1.4 1.2 3.4 2.8 6.2 4.4 2.7 1.6 6.1 3.1 10.1 3.8 1.9 0.4 4 0.6 6.1 0.6 2.1 0 4.2-0.3 6.3-0.7 2.1-0.5 4.1-1.2 6-2 1-0.4 1.9-0.9 2.8-1.4 0.9-0.5 1.8-1 2.6-1.5 1.7-1 3.2-2.2 4.6-3.4 1.4-1.2 2.7-2.3 3.8-3.4 0.6-0.6 1.1-1.1 1.6-1.6 0.5-0.5 0.9-1.1 1.3-1.6 0.6-0.8 1.1-1.5 1.5-2.2 0 0 0.1 0 0.1 0.1 0.2 0.2 0.5 0.4 0.7 0.6 0.2 0.2 0.4 0.4 0.6 0.6 0.2 0.2 0.4 0.4 0.5 0.5 0.2 0.2 0.3 0.3 0.4 0.5 0.3 0.3 0.4 0.4 0.4 0.4l0.1 0.1c0.1 0 0.1 0.1 0.2 0.1 0.3 0.1 0.6 0 0.8-0.3 0 0 0.1-0.2 0.2-0.7 0.1-0.5 0.1-1.1-0.1-1.9C280.3 256.1 279.9 255.3 279.4 254.5z"/><path d="M415 230.5c0 0 0 0 0 0 0 0 0 0 0 0 0 0 0 0 0 0 0 0 0.5-0.1 1.3-0.3 0.9-0.2 2.2-0.6 3.8-1.1 3.3-1.1 8.1-2.8 14.2-5.1 6.1-2.3 13.4-5.2 21.7-8.7 8.3-3.5 17.6-7.7 27.7-12.4 10-4.8 20.8-10.2 31.9-16.4 11.1-6.3 22.5-13.4 33.4-21.8 5.4-4.2 10.8-8.8 15.5-13.9 4.8-5.1 9-10.9 11.3-17.5 1.1-3.2 1.6-6.7 1.3-10 -0.3-3.3-1.5-6.6-3.3-9.5 -1.8-2.9-4.1-5.6-6.8-8 -1.4-1.1-2.7-2.3-4.2-3.3 -1.4-1-2.9-2.1-4.5-3 -12.2-7.7-26.7-12-40.8-10.5 -7 0.7-13.9 2.7-20.3 5.5 -6.4 2.9-12.4 6.4-17.9 10.5 -11.1 8.1-20.4 17.8-28.6 27.4 -8.2 9.7-15.2 19.4-21.3 28.7 -6.1 9.3-11.2 18.1-15.7 25.9 -4.4 7.9-8 14.9-10.9 20.7 -5.7 11.6-8.6 18.4-8.6 18.5l3.4 0.7L415 230.5zM455.6 200.3c1.5-1.2 2.9-2.3 4.2-3.3 1.3-1.1 2.4-2.1 3.4-3 1-0.9 1.8-1.8 2.5-2.4 1.4-1.4 2.2-2.2 2.2-2.2s-0.8 0.8-2.1 2.2c-0.7 0.7-1.4 1.6-2.5 2.5 -1 0.9-2.1 2-3.3 3.1 -1.3 1.1-2.7 2.2-4.1 3.5 -1.5 1.2-3.1 2.4-4.8 3.7 -1.7 1.2-3.5 2.5-5.3 3.7 -1.8 1.2-3.7 2.4-5.6 3.7 -1.9 1.2-3.8 2.4-5.7 3.5 -1.9 1.1-3.8 2.2-5.6 3.2 -3.6 2.1-7.1 3.9-10.1 5.4 -6 3-10.1 4.8-10.1 4.8 -0.6 0.3-1.2 0-1.5-0.6s0-1.2 0.6-1.5c0 0 0 0 0 0 0 0 4.1-1.6 10.2-4.5 3-1.4 6.5-3.1 10.2-5 1.9-0.9 3.7-2 5.7-3 1.9-1 3.8-2.2 5.8-3.3 1.9-1.2 3.8-2.3 5.7-3.5 1.8-1.2 3.6-2.4 5.4-3.6C452.4 202.6 454.1 201.5 455.6 200.3zM400.3 225.1c0 0 0 0 0 0 0 0 3.4-2.6 8.3-6.9 2.4-2.2 5.3-4.7 8.2-7.6 3-2.8 6-5.9 9.1-9.1 3-3.2 6-6.4 8.7-9.4 2.7-3.1 5.2-6 7.3-8.5 2.1-2.5 3.8-4.6 5-6.1 1.2-1.5 1.9-2.3 1.9-2.3s-0.7 0.9-1.8 2.4c-1.2 1.5-2.8 3.7-4.8 6.3 -2 2.6-4.4 5.6-7.1 8.7 -2.6 3.1-5.5 6.5-8.4 9.7 -2.9 3.2-5.9 6.5-8.8 9.4 -2.9 3-5.6 5.6-8 7.9 -4.8 4.5-8.2 7.3-8.2 7.3 -0.5 0.4-1.2 0.3-1.6-0.2C399.7 226.3 399.8 225.5 400.3 225.1z" class="f"/><path d="M581 122.8c-0.3-4-1.7-7.9-3.8-11.2 -4.1-6.8-10.3-11.8-16.7-15.8 -6.4-4-13.4-7.4-20.8-9.3 -3.7-1-7.5-1.6-11.3-1.9 -3.8-0.2-7.6-0.3-11.4 0.2 -7.5 0.8-14.8 3-21.5 6 -6.7 3-12.9 6.8-18.5 11.1 -11.3 8.5-20.8 18.3-28.9 28.3 -8.1 10-15 20-20.9 29.5 -5.9 9.5-10.9 18.4-15.1 26.5 -2.4 4.7-4.6 9.1-6.5 13.1 -0.2-1.6-0.4-3.4-0.5-5.2 -0.4-5.8-0.4-12.5 0.1-19.6 0.5-7.2 1.6-14.9 2.6-23.1 0.5-4.1 1-8.3 1.2-12.7 0.2-4.4 0.2-8.9-0.6-13.4 -0.8-4.5-2.4-9.2-5.5-13 -3-3.8-7.2-6.7-11.6-8.7 -4.5-1.9-9.2-3.3-14-4.1 -2.4-0.5-4.8-0.7-7.1-1 -1.3-0.1-2.5-0.2-3.7-0.3 -1.2 0-2.5-0.1-3.7 0 -2.5 0.1-5 0.5-7.5 1.2 -2.4 0.7-4.8 1.9-6.8 3.5 -2 1.6-3.7 3.7-4.9 6 -1.2 2.3-1.9 4.7-2.4 7.1 -0.9 4.9-0.7 9.7-0.2 14.4 0.6 4.7 1.5 9.2 2.7 13.6 2.3 8.8 5.4 17 8.5 24.7 3.1 7.7 6.5 14.8 9.6 21.3 4.6 9.4 8.9 17.5 12.5 24 0.5-0.1 0.9-0.3 1.4-0.4 -3.6-6.6-7.8-14.8-12.4-24.3 -3.1-6.5-6.2-13.6-9.2-21.3 -3-7.7-5.8-15.9-8-24.5 -1.1-4.3-1.9-8.8-2.4-13.3 -0.4-4.5-0.6-9.2 0.3-13.6 0.8-4.4 2.8-8.6 6.2-11.3 1.7-1.4 3.7-2.4 5.9-3 2.2-0.6 4.4-1 6.7-1.1 1.1-0.1 2.3 0 3.5 0 1.1 0.1 2.4 0.2 3.5 0.3l3.6 0.5c1.2 0.1 2.4 0.3 3.5 0.5 4.6 0.7 9.1 2 13.4 3.7 4.2 1.8 8 4.4 10.8 7.8 2.8 3.4 4.5 7.5 5.4 11.8 0.9 4.3 1 8.7 1 13 0 4.3-0.4 8.5-0.7 12.6 -0.7 8.2-1.5 16-1.8 23.2 -0.4 7.2-0.4 13.8 0.1 19.7 0.2 1.9 0.4 3.7 0.6 5.4 -1.3 2.8-2.5 5.4-3.6 7.8 -0.1 0.3-0.2 0.5-0.4 0.8 -0.1 0.2-0.2 0.4-0.3 0.6 -1.9 4.2-3.4 7.8-4.5 10.5 -0.3 0.7-0.5 1.3-0.8 1.9 -1.3 3.2-1.9 5-1.9 5 0 0 0 0.1 0 0.1 0 0 0.1 0 0.1 0l0 0c0-0.1 2.9-6.9 8.6-18.5 2.9-5.8 6.5-12.8 10.9-20.7 4.4-7.9 9.6-16.7 15.7-25.9 6.1-9.3 13.1-19.1 21.3-28.7 8.2-9.6 17.6-19.3 28.6-27.4 5.5-4.1 11.5-7.6 17.9-10.5 6.4-2.8 13.2-4.8 20.3-5.5 14.1-1.6 28.6 2.8 40.8 10.5 1.6 1 3.1 2 4.5 3 1.5 1 2.8 2.2 4.2 3.3 2.6 2.4 5 5 6.8 8 1.8 2.9 3 6.2 3.3 9.5 0.3 3.3-0.2 6.8-1.3 10 -2.3 6.5-6.5 12.3-11.3 17.5 -4.7 5.2-10.1 9.7-15.5 13.9 -10.9 8.4-22.3 15.5-33.4 21.8 -11.1 6.3-21.8 11.7-31.9 16.4 -10.1 4.7-19.3 8.9-27.7 12.4 -8.3 3.5-15.7 6.4-21.7 8.7 -6.1 2.3-10.9 4-14.2 5.1 -1.7 0.5-2.9 0.9-3.8 1.1 -0.9 0.2-1.3 0.3-1.3 0.3 0 0 0 0 0 0 0 0 0 0 0 0 0 0 0 0 0 0 0 0 0.5 0 1.3-0.2 0.9-0.2 2.2-0.5 3.9-1 0.7-0.2 1.5-0.4 2.4-0.7 3.1-0.9 7.2-2.2 12-3.9 4.2-1.5 9-3.2 14.4-5.2 2.4-0.9 5-1.9 7.6-2.9 1.5-0.6 3-1.2 4.5-1.8 0 0 0 0 0 0 3.1-1.2 6.4-2.6 9.7-3.9 0 0 0.1 0 0.1-0.1 4.4-1.8 9-3.8 13.7-5.9 10.2-4.6 21.1-9.8 32.3-15.9 11.2-6.1 22.9-13 34.2-21.5 5.6-4.3 11.1-8.9 16.1-14.3 2.5-2.7 4.9-5.5 7-8.6 2.1-3.1 3.9-6.5 5.2-10.1C580.7 130.8 581.3 126.8 581 122.8z"/><line x1="394.1" y1="226.1" x2="394.1" y2="226.1" class="j"/><path d="M401.8 226.9c0 0 3.5-2.8 8.2-7.3 2.4-2.3 5.2-4.9 8-7.9 2.9-2.9 5.9-6.2 8.8-9.4 2.9-3.3 5.8-6.6 8.4-9.7 2.6-3.2 5-6.1 7.1-8.7 2.1-2.6 3.7-4.8 4.8-6.3 1.2-1.5 1.8-2.4 1.8-2.4s-0.7 0.9-1.9 2.3c-1.2 1.5-2.9 3.6-5 6.1 -2.1 2.5-4.6 5.4-7.3 8.5 -2.7 3-5.7 6.3-8.7 9.4 -3 3.1-6.1 6.2-9.1 9.1 -2.9 2.8-5.8 5.4-8.2 7.6 -4.9 4.3-8.3 6.9-8.3 6.9 0 0 0 0 0 0 -0.5 0.4-0.6 1.1-0.2 1.6C400.5 227.2 401.3 227.3 401.8 226.9z"/><path d="M439.7 210.9c-1.9 1.1-3.8 2.3-5.8 3.3 -1.9 1.1-3.8 2.1-5.7 3 -3.7 1.9-7.2 3.6-10.2 5 -6 2.8-10.2 4.5-10.2 4.5 0 0 0 0 0 0 -0.6 0.3-0.8 0.9-0.6 1.5s0.9 0.8 1.5 0.6c0 0 4.1-1.8 10.1-4.8 3-1.5 6.5-3.3 10.1-5.4 1.8-1 3.7-2.1 5.6-3.2 1.9-1.1 3.8-2.3 5.7-3.5 1.9-1.2 3.7-2.5 5.6-3.7 1.8-1.3 3.6-2.5 5.3-3.7 1.7-1.3 3.3-2.5 4.8-3.7 1.5-1.2 2.9-2.4 4.1-3.5 1.2-1.1 2.3-2.2 3.3-3.1 1-0.9 1.8-1.8 2.5-2.5 1.3-1.4 2.1-2.2 2.1-2.2s-0.8 0.8-2.2 2.2c-0.7 0.7-1.5 1.6-2.5 2.4 -1 0.9-2.2 1.9-3.4 3 -1.3 1-2.7 2.2-4.2 3.3 -1.5 1.2-3.2 2.3-4.9 3.5 -1.7 1.2-3.5 2.3-5.4 3.6C443.5 208.6 441.6 209.7 439.7 210.9z"/><path d="M223.8 206.8c-1.9 0-3.5 2.1-3.5 4.8 0 2.6 1.6 4.8 3.5 4.8 0.2 0 0.4 0 0.6-0.1 -0.5-3.1-0.7-6.3-0.6-9.4C223.8 206.8 223.8 206.8 223.8 206.8z" class="m"/><path d="M226.1 200.1c-1.1 6.6-1.1 13.4 0.6 19.8 1.6 6.4 4.7 12.3 9.2 16.6 2.2 2.2 4.9 3.8 7.6 5 0.7 0.2 1.3 0.6 2.1 0.8 0.7 0.2 1.5 0.4 2.2 0.5 0.6 0.2 1.4 0.2 2.1 0.3 0.7 0.1 1.4 0.2 2.1 0.1 0.7 0 1.4 0 2.1-0.1 0.7-0.1 1.4-0.2 2.1-0.3 0.7-0.1 1.3-0.3 2-0.5 0.6-0.2 1.3-0.3 1.9-0.6 1.2-0.5 2.5-0.9 3.6-1.6 0.6-0.3 1.1-0.6 1.7-0.9 0.5-0.4 1-0.7 1.6-1.1 4.1-2.9 7.1-6.4 9.3-9.8 0.6-0.8 1.1-1.7 1.5-2.5 0.5-0.8 0.9-1.6 1.3-2.4 0.4-0.8 0.7-1.6 1.1-2.3 0.3-0.8 0.6-1.5 0.8-2.2 0.6-1.4 0.9-2.6 1.2-3.7 0.3-1.1 0.5-2 0.7-2.8 0.3-1.4 0.4-2.2 0.5-2.4l0 0c0 0 0.1-0.8 0.3-2.4 0.1-0.8 0.2-1.7 0.3-2.9 0-1.1 0.2-2.4 0.1-3.9 0-0.7 0-1.5-0.1-2.3 -0.1-0.8-0.2-1.6-0.3-2.5 -0.1-0.9-0.2-1.8-0.4-2.7 -0.2-0.9-0.3-1.9-0.6-2.9 -1-3.9-2.7-8.2-5.5-12.2 -0.4-0.5-0.7-1-1.1-1.5 -0.4-0.5-0.8-0.9-1.3-1.4 -0.8-1-1.8-1.8-2.8-2.7 -0.5-0.4-1.1-0.8-1.6-1.2 -0.5-0.4-1.1-0.8-1.7-1.1 -0.6-0.3-1.2-0.7-1.8-1 -0.6-0.2-1.2-0.5-1.9-0.7 -5.3-2-11.5-1.8-17.1 0.7 -5.6 2.4-10.6 6.9-14.3 12.3 -0.5 0.7-0.9 1.3-1.3 2.1 -0.4 0.7-0.8 1.4-1.2 2.1 -0.7 1.5-1.5 2.9-2.1 4.5C227.5 193.6 226.8 196.8 226.1 200.1zM253.2 197.7c1.8 0 3.4 0.6 5 1.6 -1.7 1.3-2.9 3.7-2.9 6.6 0 4.1 2.5 7.5 5.5 7.5 1.6 0 3-0.9 4-2.3 0.2 1.3 0.3 2.7 0.3 4.1 0 9.7-5.3 17.6-11.9 17.6 -6.6 0-11.9-7.9-11.9-17.6S246.6 197.7 253.2 197.7z" class="m"/><polygon points="283.3 210.1 283.3 210.1 283.3 210.1 " class="m"/><path d="M283.3 210.1l0 0v0C283.3 210.1 283.3 210.1 283.3 210.1z" class="m"/><polygon points="283.3 210.1 283.3 210.1 283.3 210.1 "/><path d="M253.2 232.9c6.6 0 11.9-7.9 11.9-17.6 0-1.4-0.1-2.8-0.3-4.1 -1 1.4-2.4 2.3-4 2.3 -3.1 0-5.5-3.4-5.5-7.5 0-2.8 1.2-5.3 2.9-6.6 -1.5-1-3.2-1.6-5-1.6 -6.6 0-11.9 7.9-11.9 17.6S246.6 232.9 253.2 232.9z"/><linearGradient gradientUnits="userSpaceOnUse" x1="180.1" y1="130.7" x2="223.4" y2="130.7" gradientTransform="matrix(1.4104 0 0 -1.4104 42.7255 525.1793)"><stop offset="0" class="a"/><stop offset="0.1425" class="b"/><stop offset="0.4575" class="c"/><stop offset="0.7511" class="d"/><stop offset="1" class="e"/></linearGradient><path d="M336.2 331.6c-0.2-0.2-0.4-0.3-0.7-0.5 -6.7 5.8-14.9 10.5-24.1 10.5 -2.9-1.2-5.7-2.4-8.9-2 -2.8 0.3-2.7 2.7-0.3 3.7 -2.6-0.3-7.5 0.6-4.7 5.9 2.1 4 14.1-2.1 14.1-2.1s14.7-1.3 28.8-12.8c-1.5-0.9-2.9-1.8-4.3-2.7C336.2 331.6 336.2 331.6 336.2 331.6z" fill="url(#SVGID_52_)"/><linearGradient gradientUnits="userSpaceOnUse" x1="215.7" y1="222.6" x2="215.7" y2="126.5" gradientTransform="matrix(1.4104 0 0 -1.4104 42.7255 525.1793)"><stop offset="0" class="a"/><stop offset="0.1425" class="b"/><stop offset="0.4575" class="c"/><stop offset="0.7511" class="d"/><stop offset="1" class="e"/></linearGradient><path d="M357.8 312l-4.9-2.1c0 0-6.1 11-15.9 20 -0.2 0.6-0.5 1.1-0.7 1.7 1.4 0.9 2.8 1.9 4.3 2.8C346.9 329.2 353.1 322 357.8 312z" fill="url(#SVGID_53_)"/><linearGradient gradientUnits="userSpaceOnUse" x1="180.1" y1="144" x2="223.4" y2="144" gradientTransform="matrix(1.4104 0 0 -1.4104 42.7255 525.1793)"><stop offset="0" class="a"/><stop offset="0.1425" class="b"/><stop offset="0.4575" class="c"/><stop offset="0.7511" class="d"/><stop offset="1" class="e"/></linearGradient><path d="M357.8 312l-4.9-2.1c0 0-6.1 11-15.9 20 -0.2 0.6-0.5 1.1-0.7 1.7 1.4 0.9 2.8 1.9 4.3 2.8C346.9 329.2 353.1 322 357.8 312z" fill="url(#SVGID_54_)"/><linearGradient gradientUnits="userSpaceOnUse" x1="208.1" y1="214.4" x2="208.1" y2="137.2" gradientTransform="matrix(1.4104 0 0 -1.4104 42.7255 525.1793)"><stop offset="0" class="g"/><stop offset="1" class="h"/></linearGradient><path d="M336.2 331.6c0 0 0 0 0 0 0.2-0.6 0.5-1.1 0.7-1.7 -0.5 0.4-0.9 0.8-1.4 1.2 0.2 0.2 0.4 0.3 0.7 0.5C336.2 331.6 336.2 331.6 336.2 331.6z" fill="url(#SVGID_55_)"/><linearGradient gradientUnits="userSpaceOnUse" x1="180.1" y1="137.8" x2="223.4" y2="137.8" gradientTransform="matrix(1.4104 0 0 -1.4104 42.7255 525.1793)"><stop offset="0" class="a"/><stop offset="0.1425" class="b"/><stop offset="0.4575" class="c"/><stop offset="0.7511" class="d"/><stop offset="1" class="e"/></linearGradient><path d="M336.2 331.6c0 0 0 0 0 0 0.2-0.6 0.5-1.1 0.7-1.7 -0.5 0.4-0.9 0.8-1.4 1.2 0.2 0.2 0.4 0.3 0.7 0.5C336.2 331.6 336.2 331.6 336.2 331.6z" fill="url(#SVGID_56_)"/><linearGradient gradientUnits="userSpaceOnUse" x1="208.4" y1="222.6" x2="208.4" y2="126.5" gradientTransform="matrix(1.4104 0 0 -1.4104 42.7255 525.1793)"><stop offset="0" class="a"/><stop offset="0.1425" class="b"/><stop offset="0.4575" class="c"/><stop offset="0.7511" class="d"/><stop offset="1" class="e"/></linearGradient><path d="M336.2 331.6c0 0 0 0 0 0 0.2-0.6 0.5-1.1 0.7-1.7 0 0 0 0 0 0C336.7 330.5 336.5 331.1 336.2 331.6z" fill="url(#SVGID_57_)"/><linearGradient gradientUnits="userSpaceOnUse" x1="208.4" y1="214.4" x2="208.4" y2="137.2" gradientTransform="matrix(1.4104 0 0 -1.4104 42.7255 525.1793)"><stop offset="0" class="g"/><stop offset="1" class="h"/></linearGradient><path d="M336.2 331.6c0 0 0 0 0 0 0.2-0.6 0.5-1.1 0.7-1.7 0 0 0 0 0 0C336.7 330.5 336.5 331.1 336.2 331.6z" fill="url(#SVGID_58_)"/><linearGradient gradientUnits="userSpaceOnUse" x1="180.1" y1="137.8" x2="223.4" y2="137.8" gradientTransform="matrix(1.4104 0 0 -1.4104 42.7255 525.1793)"><stop offset="0" class="a"/><stop offset="0.1425" class="b"/><stop offset="0.4575" class="c"/><stop offset="0.7511" class="d"/><stop offset="1" class="e"/></linearGradient><path d="M336.2 331.6c0 0 0 0 0 0 0.2-0.6 0.5-1.1 0.7-1.7 0 0 0 0 0 0C336.7 330.5 336.5 331.1 336.2 331.6z" fill="url(#SVGID_59_)"/><path d="M282.4 125.9c1 1.4 2.3 2.4 3.8 3 0.7 0.3 1.5 0.5 2.3 0.6 0.4 0.1 0.8 0.1 1.2 0.1 0.3 0 0.7 0 1.1-0.1 1.5-0.2 2.8-0.7 3.9-1.4 2.2-1.4 3.3-3.4 3.7-4.8 0.2-0.7 0.3-1.2 0.3-1.7 0-0.4 0-0.6 0-0.6 0 0 0-0.2 0-0.6 0-0.4-0.1-1-0.3-1.7 -0.4-1.4-1.5-3.4-3.7-4.7 -1.1-0.7-2.4-1.2-3.8-1.3 -1.5-0.2-3 0-4.5 0.6 -1.5 0.6-2.8 1.6-3.8 3 -0.5 0.7-0.9 1.4-1.2 2.2 -0.3 0.8-0.4 1.6-0.4 2.5 0 0.8 0.1 1.7 0.4 2.5C281.5 124.5 281.9 125.3 282.4 125.9z" class="n"/><path d="M241.3 131.6c0.7 0.4 1.5 0.6 2.4 0.7 0.2 0 0.5 0 0.7 0 0.2 0 0.5 0 0.7-0.1 0.4 0 0.9-0.2 1.4-0.3 0.9-0.3 1.8-0.9 2.4-1.6 0.6-0.7 1-1.7 1-2.7 0-1.1-0.4-1.9-1-2.7 -0.6-0.7-1.5-1.3-2.4-1.6 -0.9-0.3-1.8-0.4-2.7-0.3 -0.8 0.1-1.7 0.3-2.3 0.7 -1.4 0.7-2.1 1.8-2.4 2.6 -0.1 0.4-0.2 0.7-0.2 1 0 0.2 0 0.4 0 0.4l0 0c0 0 0 0.1 0 0.4 0 0.3 0.1 0.5 0.2 1C239.2 129.8 239.9 130.9 241.3 131.6z" class="n"/></svg>