<svg xmlns="http://www.w3.org/2000/svg" viewBox="0 0 768 430"><style>.a{fill:#3C3C3B;}.b{fill:#C78C59;}.c{fill:#D19E66;}</style><path d="M304.9 39.9c27.4 0.7 54.9-0.1 82.4 0.1 13.4 0.1 26.9 0.9 40.3 0.7 14.3-0.1 28.6-2 42.9-0.9 -0.1-0.5-0.2-1-0.2-1.5 -0.3-1.6 2.1-2.3 2.5-0.7 0.1 0.5 0.2 1 0.3 1.5 0.6-1.1 0.1-2.9-1.6-3 -14.7-1.2-29.2 0.7-43.9 0.8 -13.4 0.1-26.9-0.6-40.3-0.8 -27.6-0.3-55.3-0.8-82.9 0 0 0 0 0 0 0h0c0 0 0 0 0 0 -0.2 0.2-0.4 0.4-0.6 0.7 0 0-0.1 0.1-0.1 0.1 -0.1 0.2-0.3 0.5-0.4 0.7 0 0.1 0 0.1-0.1 0.2 -0.1 0.3-0.2 0.5-0.2 0.8 0 0 0 0.1 0 0.1 0 0.3 0 0.6 0 0.9 0 0 0 0.1 0 0.1 0 0 0 0 0 0 0.1 0 0.2 0 0.4 0C303.9 39.8 304.4 39.9 304.9 39.9z" class="a"/><path d="M323.1 58.7c22.6-0.4 45.2 0.5 67.7-0.2 22.7-0.8 45.3 0.1 68 0.1 0 0 0 0 0.1 0 0.4 0 0.7-0.2 0.9-0.4 1-0.8 0.7-2.9-1-2.9 -22.7-0.1-45.3-1.2-68-0.5 -22.6 0.7-45.2-0.5-67.7 0.4 -1.8 0.1-2.2 2.2-1.2 3.1 0.2 0.2 0.5 0.4 0.9 0.4C323 58.7 323 58.7 323.1 58.7z" class="a"/><path d="M487.7 372.8c-3.6-0.1-7.3 0-10.9 0.2 -0.1 2.9-4.4 3-4.9 0.3 -3.2 0.2-6.4 0.5-9.6 0.8 0 0 0 0.1 0 0.1 0.1 2.7-3.9 2.8-4.3 0.3 -6.2 0.6-12.5 1.2-18.7 1.3 -16 0.4-32.1-0.1-48.1-0.6 -21.8-0.7-43.9-1.1-65.9-0.5 -0.3 2.1-3.6 2.2-4.2 0.1 -4.3 0.1-8.5 0.3-12.8 0.5 -0.3 2.1-3.4 2.1-4 0.2 -4.1 0.2-8.1 0.5-12.1 0.8 -0.9 0.1-0.9 1.4 0 1.5 32.9 2.5 66-0.4 99 1.1 15.6 0.7 31.2 1.7 46.8 1.4 16.7-0.3 33.1-3.3 49.8-3.2C490.5 377.1 490.5 372.9 487.7 372.8z" class="a"/><path d="M470.7 285.7c0.1-13.6 0.2-27.2 0.2-40.8 0-13.9-2.6-28.1-1.7-42 1.7-27.7 2.6-55.5 3.1-83.3 0.2-13.6-0.5-27.2-0.2-40.7 0.3-13.1 0.8-26.2-1.5-39.1 -14.3-1.1-28.6 0.8-42.9 0.9 -13.4 0.1-26.9-0.6-40.3-0.7 -27.4-0.2-54.9 0.6-82.4-0.1 2.9 23.5 1.7 47.9 2.2 71.5 0.5 23.8 0.5 47.5 1.6 71.3 0.1 1.9 0.1 3.9 0.2 5.8 0.7-0.2 1.4-0.3 2-0.6 1.3-0.4 1.8 1.6 0.6 2 -0.8 0.3-1.6 0.3-2.4 0.2 0 0-0.1 0-0.1 0 0.5 20.8-0.4 41.5-0.4 62.3 0.1 23.4 1.3 46.6 0.9 70 -0.1 5.9-0.4 11.8-0.6 17.7 0.7-0.1 1.5-0.1 1.9 0.4 0.4 0.5 0.4 1.1 0 1.6 -0.5 0.5-1.3 0.4-2 0.3 -0.5 10.9-0.9 21.7-0.4 32.7 0 0.1 0 0.3 0 0.4 4.3-0.2 8.5-0.4 12.8-0.5 -0.1-0.2-0.1-0.4-0.1-0.6 -0.1-2-0.1-4-0.2-6 -1.2 0.1-2.5-0.1-3.4-0.9 -0.5-0.4-0.1-1.2 0.5-1.2 1 0 1.9 0.1 2.8 0.1 -1.6-50 0.4-100 0-150 -0.2-25.4-0.1-50.9 0.1-76.3 -2 0.1-4-0.2-5.9-0.6 -0.9-0.2-0.6-1.5 0.2-1.5 1.9-0.1 3.8 0 5.7 0.1 0-0.1 0-0.2 0-0.3 0.2-26.3-0.5-53 1.2-79.3 -1-0.9-0.6-3 1.2-3.1 22.6-0.9 45.2 0.3 67.7-0.4 22.8-0.7 45.3 0.4 68 0.5 1.7 0 2 2 1 2.9 1.6 25.5 0.6 51.4 0.5 76.9 0.1 0 0.1 0 0.2 0.1 0.4 0.3 1.1 0 1.5-0.2 0.6-0.3 1.4-0.2 1.7 0.4 0.3 0.5 0.2 1.4-0.4 1.7 -0.9 0.4-2.1 0.7-3 0.4 0 0 0 0 0 0.1 0 1 0 2.1 0 3.1 0.7-0.2 1.3-0.2 2.1 0 1.2 0.3 0.7 2.2-0.5 1.9 -0.5-0.1-1-0.2-1.6-0.3 0 24.6 0.1 49.2 0.5 73.8 0.4 22.1 0.4 44.3 0.3 66.4 1-0.2 2.1-0.2 3.1-0.1 0.9 0.1 0.9 1.7 0 1.9 -1 0.1-2.1 0.1-3.1-0.1 0 29.9-0.1 59.9 1 89.8 3.2-0.3 6.4-0.6 9.6-0.8 0-0.1 0-0.3 0-0.4C471.5 343.8 470.5 314.7 470.7 285.7zM465.8 48.8c-0.2 0.2-0.4 0.1-0.5-0.1 -0.2-0.3-0.2-0.7-0.2-1 -0.5-0.1-1-0.3-1.6-0.4 -0.7 0-0.7-1.1 0-1.1 0.7 0 1.5 0.2 2.2 0.4 0.2 0 0.4 0.3 0.4 0.6C466.1 47.7 466.2 48.3 465.8 48.8zM468.2 46.9c-0.1 0.6-1.1 0.4-1.1-0.1 0-1.4-0.3-2.1-1.7-2.3 -1-0.1-2.1 0-3-0.4 -0.2-0.1-0.2-0.3 0-0.3C464.8 42.8 468.9 43.4 468.2 46.9zM467.9 42.4c-2.3-0.9-5 0.7-7.4-0.1 -0.3-0.1-0.4-0.5-0.1-0.7 2.3-1 6.3-1.6 8.6-0.2 2.1 1.3 1.2 4 1.7 6 0.2 0.7-0.9 1-1.1 0.3C469.1 45.9 469.8 43.1 467.9 42.4z" class="b"/><path d="M420 232.4c-0.1 0.9-0.1 1.8-0.4 2.7 -0.1 0.4-0.3 0.6-0.6 0.7 -0.1 1.9 0 3.7 0.2 5.5 0.2 1.3 0.4 2.6 0.7 3.9 0.2-0.8 0.3-1.6 0.4-2.4 0.3-2 0.4-4.1 0.3-6.2 0-1 0-2-0.2-2.9C420.4 233.5 420.2 232.9 420 232.4z" fill="#A7D8CF"/><path d="M424 256c0 0 0 0 0 0 1 11.2 1.1 22.6 1.1 34 4.8-1.8 9.8-2.7 14.6-4.6 3.4-1.3 7-1.9 10.3-3.1 0-11 0.3-21.9 1.2-32.9 -3.4 0.2-7 1.6-10.1 2.8C435.5 254.4 429.8 254.2 424 256z" class="b"/><path d="M438.8 298.8c-4.5 1.8-9.4 1.7-13.7 4 0 3.5 0 6.9 0.1 10.4 0.3 18.5 0.5 37 0.7 55.4 0.6-0.3 1.2-0.6 1.9-0.9 3-1 5.5-2.1 8.1-3.9 2.9-2 6-3.6 8.9-5.4 2-1.2 3.3-2.9 5.3-3.4 0-0.1 0-0.2 0-0.4 -0.1-0.6 0.3-1 0.8-1.2 -0.6-2.3-0.4-11.6-0.4-12.4 0.1-4.4 0.1-8.8 0.1-13.1 -0.1-8.5-0.3-17-0.5-25.5 -0.1-2.5-0.1-5.1-0.2-7.6 -0.9 0.3-1.8 0.4-2.9 0.7C444.2 296.2 441.6 297.7 438.8 298.8zM446.7 348.9c0.5-0.3 1.3-0.9 1.9-0.8 0.1 0 0.2 0.2 0.2 0.3 -0.2 0.8-1.4 0.9-2.1 0.8C446.6 349.2 446.6 349 446.7 348.9zM445.9 352.3c0.6-0.4 1.2-0.9 1.7-1.4 0.5-0.4 1-1 1.6-0.9 0.3 0 0.5 0.3 0.4 0.6 -0.1 0.7-0.9 1.1-1.5 1.4 -0.6 0.4-1.3 0.7-2 0.9C445.8 353.1 445.6 352.5 445.9 352.3zM449.9 354.2c-0.6 0.4-1.3 0.8-1.9 1.1 -0.6 0.3-1.2 0.5-1.9 0.5 -0.4 0-0.6-0.5-0.2-0.8 0.6-0.4 1.2-0.7 1.8-1.1 0.6-0.3 1.2-0.7 1.8-1C450.2 352.7 450.5 353.8 449.9 354.2zM448 343.1c0.4-0.2 0.8-0.3 1.2-0.3 0.7 0 0.8 0.9 0.3 1.2 -0.4 0.2-0.8 0.3-1.2 0.5C447.5 344.8 447.1 343.4 448 343.1zM449.2 345.2c0.5 0.1 0.9 0.7 0.5 1.2 -0.6 0.6-1.6 0.6-2.4 0.4 -0.4-0.1-0.6-0.8-0.1-1C447.8 345.5 448.5 345.1 449.2 345.2z" class="b"/><path d="M450.4 76.1c-2.9 0.8-6.8-1.7-9.6-2.3 -5.7-1.3-11.7-1.3-17.2-3.5 0.5 6.3-0.1 12.8 0.1 19.2 0.2 6.2 0.4 12.3 0.3 18.4 -0.1 7.1-0.1 14.1-0.1 21.2 8.9-0.3 18.1-2.5 26.9-1.5 -0.4-17.3-1.1-34.6-0.1-51.7C450.6 76 450.5 76.1 450.4 76.1zM446.3 77.5c-0.4-0.1-0.3-0.6 0.1-0.6 0.9-0.1 1.9 0 2.7 0.5 0.5 0.3 0.2 1.2-0.4 1C447.9 78.2 447.1 77.8 446.3 77.5zM447.1 79.1c0.8 0 1.9 0.1 2.3 0.8 0.1 0.1 0 0.4-0.2 0.4 -0.6 0.1-1.3-0.2-1.8-0.5 0.2 0.4 0.4 0.9 0.8 1.1 0.4 0.3 0.9 0.3 1.2 0.6 0.4 0.2 0.2 0.8-0.2 0.8 -1.3-0.1-2-1.7-2.3-2.8C446.9 79.3 447 79.1 447.1 79.1zM449.4 86.6c-0.6 0.1-0.9-0.4-1-0.9 0-0.1 0.1-0.2 0.2-0.1 0.2 0.1 0.6 0 0.8 0C450.1 85.4 450 86.5 449.4 86.6zM448.6 84.3c0-0.1-0.1-0.1-0.1-0.1 -0.6 0-1-0.9-0.3-1.3 0.6-0.3 1.4-0.3 1.7 0.4C450.2 84.1 449.2 85 448.6 84.3z" class="b"/><path d="M458 56.5c-7.2-7.3-16.9-13.1-25.4-18.8 -7.1-4.8-14.6-10.5-20.7-16.6 1.5 28.4 0.9 57.1 1 85.5 0.2 50.7 0.1 101.3 0.2 152 0.1 48.9 1 97.7 0.2 146.6 1.7-1.3 3.7-2.1 5.7-3.1 4.1-2.2 7.4-5.6 11.1-8.4 5.3-4 10.4-8.4 15.7-12.5 4.2-3.2 8.8-5.7 11.8-10.1 0.1-0.2 0.3-0.3 0.4-0.4 -1.9-51.9 0.2-104-0.2-155.9 -0.2-26.2-0.1-52.4 0.1-78.6 0.2-26.3-0.5-53 1.2-79.3C458.7 56.9 458.3 56.8 458 56.5zM419.3 249c-1.1-0.6-1.4-2.3-1.6-3.4 -0.6-3.3-1-7.5-0.3-10.9 -0.4-1.8-0.3-4.8 1.4-5.9 1.7-1 3 0.6 3.6 2 1.1 2.8 1 6.1 0.8 9.1 -0.1 2.5-0.3 5.3-1.3 7.6C421.5 248.4 420.6 249.6 419.3 249zM452.3 356.6c-0.1 0-0.1 0-0.2 0 -0.1 0-0.3 0.1-0.4 0.1 -1.3 3.5-7.1 5.7-9.9 7.3 -2.8 1.6-5.3 3.7-8.2 5.2 -2.5 1.3-6 1.2-7.7 3.9 -0.4 0.7-1.2 0.9-1.8 0.7 -0.1 0-0.2-0.1-0.4-0.1 0 0-0.1 0-0.1 0 -0.1 0-0.1-0.1-0.2-0.1 -0.5-0.4-0.8-1.1-0.4-1.8 0.2-19.5 0.1-39-0.2-58.5 -0.2-19-1.3-38.4 0.3-57.3 -0.6-0.4-0.6-1.5 0.3-1.8 6.2-2.1 12.6-2.6 18.8-4.8 2.8-1 6.4-2.6 9.5-1.7 0.3 0.1 0.5 0.3 0.6 0.7 0.3 0.1 0.6 0.3 0.6 0.8 -0.8 14.6-0.9 29.4-0.7 44.1 0 0 0 0 0.1 0 0.3 0.1 0.3 0.6 0 0.8 0 0 0 0-0.1 0 0.3 20.5 1 41 1 61.3C453.3 355.9 452.9 356.4 452.3 356.6zM453.5 220.8c-0.2 0.9-0.9 1.2-1.6 1.1 -4 2.3-8.9 2.3-13.2 3.7 -2.4 0.8-4.6 2.1-7.1 2.8 -2.1 0.6-4.1 0.2-6.3 1.1 -0.4 0.2-0.7 0.1-1.1 0 -1 0-1.9-0.6-2-1.8 -0.4-27.4-1.3-54.9-1.2-82.3 0.1-13.3 0.5-26.6 0.7-40 0.1-12-0.8-23.8 0.8-35.7 -0.4-0.8 0.1-1.9 1.1-1.5 5.4 1.9 11.2 2.1 16.7 3.3 3.6 0.8 6.8 2.1 10.3 3.2 0.2 0.1 0.2 0.3 0.2 0.5 0 0.1 0 0.2 0 0.2 0.2 0 0.4 0 0.4 0.3 1.7 26.7 1.2 53.7 1.9 80.4 0.3 12.8 0.4 25.5 0.3 38.3 0 5.6-0.2 11.2 0 16.8C453.7 214.3 454.1 217.6 453.5 220.8z" class="b"/><path d="M442.7 144.9c-6.4-0.5-12.3 0.7-18.6 1.1 0 0.2 0 0.5 0 0.7 0.7 26.7 1.4 53.4 1.9 80.1 1.1-0.3 2-0.3 3.4-0.6 2.7-0.4 5.1-1.7 7.7-2.6 4.1-1.5 8.9-2.5 13.4-2.9 -0.1-0.2-0.1-0.5 0-0.7 0.8-3.6 0.1-7.6 0-11.2 -0.1-5.7 0.1-11.4 0.2-17.2 0.1-12.8 0.1-25.6 0.4-38.3 0.1-3.2 0.1-6.4 0.1-9.7C448.9 145.3 445.4 145.1 442.7 144.9z" class="b"/><path d="M303.8 36.8c0.2-0.2 0.3-0.5 0.6-0.7C304.2 36.3 304 36.6 303.8 36.8z" class="a"/><polygon points="304.4 36.1 304.4 36.1 304.4 36.1 " class="a"/><path d="M303.4 37.7c0.1-0.3 0.2-0.5 0.4-0.7C303.6 37.2 303.5 37.4 303.4 37.7z" class="a"/><path d="M303.1 38.7c0-0.3 0.1-0.6 0.2-0.8C303.2 38.1 303.1 38.4 303.1 38.7z" class="a"/><path d="M303.1 39.7c0-0.3 0-0.6 0-0.9C303.1 39.1 303.1 39.4 303.1 39.7z" class="a"/><path d="M308.3 375.3c0-0.1 0-0.2 0-0.4 -0.5-10.9 0-21.8 0.4-32.7 0 0 0 0-0.1 0 -0.6-0.1-1.5-0.2-1.8-0.8 -0.4-0.8 0.8-1.2 1.4-1.3 0.2 0 0.4-0.1 0.6-0.1 0.3-5.9 0.5-11.8 0.6-17.7 0.4-23.4-0.8-46.6-0.9-70 -0.1-20.8 0.9-41.5 0.4-62.3 -0.7-0.1-1.5-0.2-2.1-0.5 -0.2-0.1-0.2-0.4 0-0.6 0.6-0.4 1.3-0.4 2-0.5 0 0 0.1 0 0.1 0 -0.1-1.9-0.1-3.9-0.2-5.8 -1.1-23.8-1-47.5-1.6-71.3 -0.5-23.6 0.7-48-2.2-71.5 -0.5 0-1 0-1.5 0 -0.1 0-0.2 0-0.4 0 0 0.3 0 0.5 0.1 0.8 0 0.2 0 0.4-0.2 0.6 1.7 21 0.2 42.3 0.9 63.4 0.8 23.3 0.1 46.7 1 70 0.9 22.8 0.4 45.5-0.2 68.3 -0.7 23.3 1.1 46.5 0.8 69.8 -0.3 20.8-2.1 41.5-1.3 62.2 0 0.2 0.1 0.4 0.1 0.6C304.9 377.4 308 377.4 308.3 375.3z" class="a"/><path d="M470.3 38.3c0.1 0.5 0.2 1 0.2 1.5 2.3 12.9 1.9 26 1.5 39.1 -0.3 13.6 0.4 27.2 0.2 40.8 -0.5 27.8-1.5 55.6-3.1 83.3 -0.8 13.9 1.7 28 1.7 42 0 13.6-0.1 27.2-0.2 40.8 -0.2 29.1 0.8 58.1 1.2 87.1 0 0.2 0 0.3 0 0.4 0.5 2.7 4.8 2.6 4.9-0.3 0 0 0-0.1 0-0.1 -0.1-29.1-1.5-58.1-1.6-87.1 0-14.5 0-29-0.1-43.5 -0.1-13.9-2.8-28-1.8-41.9 2.2-28.5 2.2-57.5 2.1-86.1 0-13.4-0.5-26.8-0.2-40.3 0.2-11.7 0.2-23.4-2.2-34.8 -0.1-0.5-0.2-1-0.3-1.5C472.4 36 470 36.7 470.3 38.3z" class="a"/><path d="M323.9 216.2c-0.5-26.2-0.5-52.4-0.5-78.6 0-26.2 1.1-52.8-0.5-78.9 -0.4 0-0.7-0.2-0.9-0.4 -1.7 26.3-1 53-1.2 79.3 0 0.1 0 0.2 0 0.3 0.2 0 0.4 0 0.6 0 1.2 0.1 1.2 1.8 0 1.9 -0.2 0-0.4 0-0.6 0 -0.2 25.4-0.3 50.9-0.1 76.3 0.4 50-1.5 100.1 0 150 0.1 0 0.2 0 0.3 0 0.5-0.1 1 0.5 1 1 0 0.6-0.5 0.9-1 1 -0.1 0-0.2 0-0.3 0 0.1 2 0.1 4 0.2 6 0 0.2 0 0.4 0.1 0.6 0.6 2 3.9 2 4.2-0.1 0-0.1 0-0.3 0-0.5C323.4 321.6 324.9 268.8 323.9 216.2z" class="a"/><path d="M461.3 284.3c-0.4-0.1-0.8-0.2-1.1-0.3 -0.6-0.2-0.6-1 0-1.1 0.4-0.1 0.8-0.2 1.1-0.3 0-22.2 0.1-44.3-0.3-66.4 -0.4-24.6-0.5-49.2-0.5-73.8 -0.4-0.1-0.8-0.1-1.2-0.1 -0.4-0.1-0.6-0.6-0.2-0.9 0.5-0.3 0.9-0.5 1.4-0.6 0-1 0-2.1 0-3.1 0 0 0 0 0-0.1 -0.4-0.2-0.8-0.5-1.1-1 -0.4-0.8 0.3-1.7 1.1-1.4 0.1-25.5 1-51.4-0.5-76.9 -0.2 0.2-0.5 0.3-0.9 0.4 -1.6 26.2-1 52.8-1.2 79 -0.2 26.2-0.3 52.4-0.1 78.6 0.4 52.6-1.8 105.4 0.3 158 0 0.1 0 0.2 0 0.3 0.4 2.5 4.4 2.4 4.3-0.3 0 0 0-0.1 0-0.1C461.2 344.2 461.2 314.3 461.3 284.3z" class="a"/><path d="M310.7 341.9c0.4-0.5 0.4-1.1 0-1.6 -0.4-0.4-1.2-0.4-1.9-0.4 -0.2 0-0.4 0.1-0.6 0.1 -0.6 0.1-1.8 0.5-1.4 1.3 0.3 0.6 1.2 0.8 1.8 0.8 0 0 0 0 0.1 0C309.4 342.3 310.2 342.5 310.7 341.9z" class="a"/><path d="M322 367.2c0-0.5-0.5-1.1-1-1 -0.1 0-0.2 0-0.3 0 -1 0.1-1.9-0.1-2.8-0.1 -0.6 0-0.9 0.8-0.5 1.2 0.9 0.8 2.2 1 3.4 0.9 0.1 0 0.2 0 0.3 0C321.6 368.1 322 367.8 322 367.2z" class="a"/><path d="M460.1 284c0.4 0.1 0.8 0.2 1.1 0.3 1 0.2 2.1 0.2 3.1 0.1 0.9-0.1 0.9-1.7 0-1.9 -1-0.1-2.1-0.1-3.1 0.1 -0.4 0.1-0.8 0.2-1.1 0.3C459.6 283.1 459.6 283.9 460.1 284z" class="a"/><path d="M470.7 47.3c-0.5-2 0.5-4.7-1.7-6 -2.3-1.4-6.3-0.8-8.6 0.2 -0.3 0.1-0.2 0.6 0.1 0.7 2.3 0.9 5-0.8 7.4 0.1 1.9 0.7 1.2 3.6 1.7 5.3C469.8 48.3 470.8 48 470.7 47.3z" class="a"/><path d="M462.3 43.8c-0.2 0.1-0.2 0.3 0 0.3 1 0.4 2 0.3 3 0.4 1.4 0.2 1.7 0.9 1.7 2.3 0 0.6 0.9 0.8 1.1 0.1C468.9 43.4 464.8 42.8 462.3 43.8z" class="a"/><path d="M465.7 46.6c-0.7-0.1-1.5-0.4-2.2-0.4 -0.7 0-0.7 1.1 0 1.1 0.5 0 1.1 0.3 1.6 0.4 0.1 0.3 0 0.7 0.2 1 0.1 0.2 0.4 0.2 0.5 0.1 0.4-0.4 0.3-1 0.3-1.6C466.1 46.9 465.9 46.7 465.7 46.6z" class="a"/><path d="M459.3 136.6c0.3 0.5 0.7 0.8 1.1 1 0.9 0.3 2 0.1 3-0.4 0.6-0.3 0.8-1.2 0.4-1.7 -0.4-0.6-1.1-0.7-1.7-0.4 -0.4 0.2-1.1 0.4-1.5 0.2 -0.1 0-0.1-0.1-0.2-0.1C459.6 134.9 458.9 135.8 459.3 136.6z" class="a"/><path d="M459.2 142.2c0.4 0 0.8 0.1 1.2 0.1 0.5 0.1 1.1 0.2 1.6 0.3 1.2 0.3 1.7-1.6 0.5-1.9 -0.7-0.2-1.4-0.2-2.1 0 -0.5 0.1-1 0.3-1.4 0.6C458.6 141.6 458.8 142.2 459.2 142.2z" class="a"/><path d="M321.4 138c-0.2 0-0.4 0-0.6 0 -1.9-0.1-3.9-0.2-5.7-0.1 -0.8 0-1.1 1.4-0.2 1.5 1.9 0.4 4 0.7 5.9 0.6 0.2 0 0.4 0 0.6 0C322.6 139.8 322.6 138 321.4 138z" class="a"/><path d="M311.4 189.9c1.3-0.4 0.7-2.5-0.6-2 -0.7 0.2-1.3 0.4-2 0.6 0 0-0.1 0-0.1 0 -0.6 0.1-1.4 0.1-2 0.5 -0.2 0.1-0.2 0.4 0 0.6 0.6 0.4 1.4 0.4 2.1 0.5 0 0 0.1 0 0.1 0C309.9 190.2 310.6 190.2 311.4 189.9z" class="a"/><path d="M461 214.7c-0.5-26.2-0.5-52.4-0.5-78.6 0-26.4 1.1-53.3-0.5-79.7 -0.2 0.2-0.6 0.4-0.9 0.5 -1.7 26.3-1 53-1.2 79.3 -0.2 26.2-0.3 52.4-0.1 78.6 0.4 51.9-1.7 104 0.2 155.9 1.2-0.8 3.1 0.5 2.2 2 -0.4 0.6-0.8 1.2-1.3 1.8 1.3 0.9 3.6 0.4 3.5-1.6C460.5 320.1 462 267.3 461 214.7z" class="a"/><path d="M411.3 407.9c-0.2-0.3-0.1-0.8 0.1-1.1 0.6-0.6 1.2-1.2 1.9-1.7 0.8-48.9-0.1-97.7-0.2-146.6 -0.1-50.7 0-101.3-0.2-152 -0.1-28.4 0.5-57.1-1-85.5 -0.1-0.1-0.3-0.3-0.5-0.4 -0.3-0.3 0-0.8 0.4-0.7 0 0 0 0 0 0 0 0 0 0 0 0 0-0.4-0.7-0.4-0.7 0 -1.4 25.5-0.7 51.3-0.8 76.9 -0.1 25.2 0 50.3-0.1 75.5 -0.2 50.3-0.9 100.6-0.9 150.9 0 28.4 0 56.8-0.4 85.1 0 2.8 4.3 2.8 4.3 0 0-0.1 0-0.2 0-0.3 -0.6 0.3-1.2 0.4-1.7 0.4C411.5 408.3 411.4 408 411.3 407.9z" class="a"/><path d="M411.5 20.6c0.1 0.2 0.3 0.3 0.5 0.4 6.1 6.1 13.6 11.8 20.7 16.6 8.4 5.7 18.2 11.5 25.4 18.8 0.3 0.3 0.7 0.4 1.1 0.4 0.3 0 0.7-0.2 0.9-0.5 0.5-0.5 0.7-1.3 0-1.9 -7.4-6.5-15.9-12.2-24.1-17.7 -7.4-5-15.2-14.6-24-16.8 0 0 0 0 0 0C411.5 19.9 411.2 20.3 411.5 20.6z" class="a"/><path d="M458 370.6c-0.2 0.1-0.3 0.2-0.4 0.4 -3 4.5-7.6 7-11.8 10.1 -5.3 4-10.4 8.4-15.7 12.5 -3.7 2.8-7 6.2-11.1 8.4 -2 1-3.9 1.9-5.7 3.2 -0.7 0.5-1.3 1-1.9 1.7 -0.2 0.3-0.4 0.8-0.1 1.1 0.1 0.1 0.2 0.4 0.3 0.4 0.5 0 1.1-0.1 1.7-0.4 2-0.8 4.4-2.8 5.9-3.5 5.3-2.5 9.4-6.6 14-10.1 5.4-4.1 10.5-8.6 16.2-12.3 3.6-2.4 6.9-4.4 9.5-7.7 0.4-0.6 0.9-1.1 1.3-1.8C461.2 371.1 459.2 369.8 458 370.6z" class="a"/><path d="M453.6 194.3c0.1-12.8 0-25.5-0.3-38.3 -0.7-26.7-0.2-53.7-1.9-80.4 0-0.2-0.2-0.3-0.4-0.3 0 0.2-0.1 0.4-0.2 0.6 -1 17.2-0.4 34.5 0.1 51.7 0.5 0.1 1 0.1 1.5 0.2 0.5 0.1 0.4 0.8 0 0.9 -0.5 0.1-1 0.2-1.4 0.3 0.1 4.2 0.2 8.3 0.2 12.5 0.3-0.1 0.6-0.1 1-0.2 0.3-0.1 0.6 0.3 0.4 0.6 -0.4 0.7-0.9 1.3-1.4 1.7 0 3.2 0 6.5-0.1 9.7 -0.2 12.8-0.3 25.6-0.4 38.3 0 5.7-0.3 11.4-0.2 17.2 0.1 3.6 0.8 7.6 0 11.2 -0.1 0.3-0.1 0.5 0 0.7 0.5 0 1-0.1 1.5-0.1 0.6 0 0.8 0.8 0.3 1.1 -0.1 0.1-0.3 0.1-0.4 0.2 0.7 0.1 1.4-0.2 1.6-1.1 0.7-3.2 0.2-6.5 0.1-9.8C453.4 205.5 453.6 199.9 453.6 194.3z" class="a"/><path d="M423.4 68.8c0.1 0.5 0.1 1 0.1 1.6 5.4 2.1 11.5 2.2 17.2 3.5 2.8 0.6 6.7 3.2 9.6 2.3 0.1 0 0.3-0.1 0.4-0.2 0.2-0.2 0.2-0.4 0.2-0.6 0-0.1 0-0.2 0-0.2 0-0.1 0-0.4-0.2-0.5 -3.5-1.1-6.7-2.4-10.3-3.2 -5.6-1.2-11.4-1.4-16.7-3.3 -1-0.4-1.5 0.8-1.1 1.5 0-0.3 0.1-0.7 0.1-1C422.8 68.2 423.4 68.4 423.4 68.8z" class="a"/><path d="M424.1 227.4c0.7-0.3 1.3-0.5 1.9-0.6 -0.5-26.7-1.2-53.4-1.9-80.1 0-0.2 0-0.5 0-0.7 -0.4 0-0.8 0.1-1.3 0.1 -1.5 0.1-1.5-2.3 0-2.3 0.4 0 0.8-0.1 1.2-0.1 -0.1-4-0.1-8-0.2-12 -0.4 0-0.7 0-1.1 0 -1.6 0-1.6-2.5 0-2.5 0.4 0 0.7 0 1.1 0 0-7.1 0-14.1 0.1-21.2 0.1-6.2-0.1-12.3-0.3-18.4 -0.2-6.4 0.4-12.8-0.1-19.2 0-0.5-0.1-1-0.1-1.6 0-0.4-0.6-0.5-0.7-0.1 0 0.3-0.1 0.7-0.1 1 -1.6 11.9-0.7 23.7-0.8 35.7 -0.1 13.3-0.6 26.6-0.7 40 -0.2 27.4 0.8 54.9 1.2 82.3 0 1.2 1 1.8 2 1.8C423.4 229.1 423.1 227.9 424.1 227.4z" class="a"/><path d="M451.9 220.6c-0.5 0-1 0.1-1.5 0.1 -4.5 0.4-9.3 1.4-13.4 2.9 -2.6 0.9-5 2.2-7.7 2.6 -1.4 0.2-2.4 0.3-3.4 0.6 -0.6 0.1-1.2 0.3-1.9 0.6 -1 0.4-0.7 1.6 0.1 2 0.3 0.2 0.7 0.2 1.1 0 2.1-0.9 4.1-0.5 6.3-1.1 2.4-0.7 4.6-2 7.1-2.8 4.4-1.4 9.2-1.3 13.2-3.7 0.1-0.1 0.3-0.1 0.4-0.2C452.7 221.4 452.5 220.6 451.9 220.6z" class="a"/><path d="M423.9 255c0 0.3 0 0.7 0.1 1 0 0 0 0 0 0 5.7-1.8 11.5-1.6 17.1-3.9 3.2-1.2 6.7-2.7 10.1-2.8 0-0.1 0-0.2 0-0.4 0.1-0.7 0.7-0.9 1.2-0.8 -0.1-0.3-0.3-0.6-0.6-0.6 -3-0.8-6.6 0.7-9.5 1.7 -6.2 2.2-12.6 2.7-18.8 4.8 -0.9 0.3-0.9 1.4-0.3 1.8 0-0.3 0-0.6 0.1-0.8C423.3 254.6 423.9 254.6 423.9 255z" class="a"/><path d="M423.6 373.6c-0.1 0-0.1-0.1-0.2-0.1C423.5 373.5 423.6 373.6 423.6 373.6z" class="a"/><path d="M425.9 368.6c-0.3-18.5-0.4-37-0.7-55.4 -0.1-3.4-0.1-6.9-0.1-10.4 -0.2 0.1-0.4 0.2-0.5 0.3 -1.3 0.7-2.4-1.2-1.1-1.9 0.6-0.3 1.1-0.6 1.7-0.9 0-2.7 0-5.4 0-8.1 -0.2 0.1-0.4 0.1-0.6 0.2 -1.2 0.4-1.7-1.4-0.5-1.9 0.4-0.2 0.7-0.3 1.1-0.4 0-11.4-0.1-22.7-1.1-34 0-0.3 0-0.7-0.1-1 0-0.4-0.6-0.4-0.7 0 0 0.3 0 0.6-0.1 0.8 -1.7 18.9-0.6 38.3-0.3 57.3 0.2 19.5 0.4 39 0.2 58.5 0-0.1 0-0.1 0.1-0.2C423.9 370.2 424.8 369.3 425.9 368.6z" class="a"/><path d="M424.1 373.8c-0.1 0-0.2-0.1-0.4-0.1C423.9 373.7 424 373.8 424.1 373.8z" class="a"/><path d="M423.9 129.2c-0.4 0-0.7 0-1.1 0 -1.6 0-1.6 2.5 0 2.5 0.4 0 0.7 0 1.1 0 8.9-0.2 18.2-1.1 26.9-2.6 0.5-0.1 1-0.2 1.4-0.3 0.4-0.1 0.5-0.9 0-0.9 -0.5-0.1-1-0.1-1.5-0.2C442 126.7 432.7 128.9 423.9 129.2z" class="a"/><path d="M425.1 290c-0.4 0.1-0.7 0.3-1.1 0.4 -1.1 0.5-0.7 2.3 0.5 1.9 0.2-0.1 0.4-0.1 0.6-0.2 3.1-1 6.2-1.7 9.3-2.6 3.6-1 6.8-2.8 10.3-3.9 1.7-0.5 3.7-0.6 5.2-1.3 0-0.7 0-1.4 0-2.1 -3.4 1.2-7 1.8-10.3 3.1C434.9 287.3 429.9 288.1 425.1 290z" class="a"/><path d="M452.4 293.9c0.3-0.2 0.3-0.6 0-0.8 0 0 0 0-0.1 0 0 0.3 0 0.5 0 0.8C452.3 293.9 452.3 293.9 452.4 293.9z" class="a"/><path d="M441 295c-3.1 1.4-6 2.7-9.4 3.3 -2.4 0.4-4.5 1-6.5 1.9 -0.5 0.3-1.1 0.5-1.7 0.9 -1.2 0.7-0.1 2.7 1.1 1.9 0.2-0.1 0.4-0.2 0.5-0.3 4.3-2.3 9.2-2.2 13.7-4 2.8-1.1 5.4-2.6 8.4-3.3 1.1-0.3 2-0.4 2.9-0.7 0-0.8 0-1.5 0-2.3C447 292.2 443.8 293.7 441 295z" class="a"/><path d="M438.9 142.2c-5-0.2-9.9 1.1-14.9 1.5 -0.4 0-0.8 0.1-1.2 0.1 -1.5 0.1-1.5 2.4 0 2.3 0.4 0 0.9-0.1 1.3-0.1 6.3-0.4 12.3-1.6 18.6-1.1 2.8 0.2 6.2 0.4 8.4-1.3 0.6-0.4 1-1 1.4-1.7 0.2-0.3-0.1-0.7-0.4-0.6 -0.3 0.1-0.7 0.1-1 0.2C446.8 142.4 443.4 142.4 438.9 142.2z" class="a"/><path d="M452.3 293.1c-0.2-14.7-0.1-29.5 0.7-44.1 0-0.5-0.2-0.7-0.6-0.8 -0.5-0.1-1.1 0.1-1.2 0.8 0 0.1 0 0.2 0 0.4 -0.9 11-1.2 21.9-1.2 32.9 0 0.7 0 1.4 0 2.1 0 2.7 0 5.4 0.1 8.1 0 0.8 0 1.5 0 2.3 0 2.5 0.1 5.1 0.2 7.6 0.2 8.5 0.4 17 0.5 25.5 0 4.4 0 8.8-0.1 13.1 0 0.7-0.2 10.1 0.4 12.4 -0.5 0.2-0.9 0.6-0.8 1.2 0 0.1 0 0.2 0 0.4 0.4-0.1 0.9-0.2 1.4-0.2 0.2 0 0.3 0.2 0.3 0.3 0 0.6-0.1 1.1-0.3 1.6 0.1 0 0.3 0 0.4-0.1 0.1 0 0.1 0 0.2 0 0.6-0.2 1.1-0.7 1.1-1.4 0-20.4-0.8-40.9-1-61.3C452.3 293.6 452.3 293.4 452.3 293.1z" class="a"/><path d="M451.6 354.8c-0.5 0-0.9 0.1-1.4 0.2 -2 0.5-3.4 2.1-5.3 3.4 -3 1.8-6 3.5-8.9 5.4 -2.7 1.8-5.1 2.9-8.1 3.9 -0.7 0.2-1.3 0.5-1.9 0.9 -1.1 0.7-2 1.6-2.8 2.9 0 0.1-0.1 0.1-0.1 0.2 -0.3 0.7-0.1 1.4 0.4 1.8 0.1 0.1 0.1 0.1 0.2 0.1 0 0 0.1 0 0.1 0.1 0.1 0.1 0.2 0.1 0.4 0.1 0.6 0.2 1.4 0 1.8-0.7 1.7-2.7 5.1-2.6 7.7-3.9 2.9-1.4 5.4-3.6 8.2-5.2 2.9-1.7 8.6-3.8 9.9-7.3 0.2-0.5 0.3-1 0.3-1.6C452 355 451.8 354.8 451.6 354.8z" class="a"/><path d="M422.5 230.7c-0.6-1.4-1.9-3-3.6-2 -1.7 1.1-1.9 4-1.4 5.9 -0.8 3.5-0.4 7.6 0.3 11 0.2 1.1 0.5 2.8 1.6 3.4 1.3 0.6 2.2-0.5 2.7-1.6 1-2.3 1.2-5.1 1.3-7.6C423.5 236.9 423.6 233.5 422.5 230.7zM420.4 242.9c-0.1 0.8-0.2 1.6-0.4 2.4 -0.3-1.3-0.6-2.6-0.7-3.9 -0.2-1.8-0.3-3.7-0.2-5.5 0.3-0.1 0.5-0.3 0.6-0.7 0.3-0.9 0.2-1.8 0.4-2.7 0.2 0.5 0.4 1 0.5 1.3 0.2 1 0.2 1.9 0.2 2.9C420.7 238.8 420.6 240.8 420.4 242.9z" class="a"/><path d="M449.2 77.4c-0.8-0.5-1.8-0.6-2.7-0.5 -0.4 0-0.4 0.5-0.1 0.6 0.8 0.3 1.6 0.6 2.4 0.9C449.3 78.7 449.7 77.8 449.2 77.4z" class="a"/><path d="M446.9 79.4c-0.1-0.2 0.3-0.4 0.4-0.1 0 0.1 0.1 0.3 0.1 0.5 0.6 0.3 1.2 0.6 1.8 0.5 0.2 0 0.2-0.3 0.2-0.4 -0.5-0.7-1.6-0.8-2.3-0.8 -0.2 0-0.3 0.2-0.2 0.3C446.9 79.4 446.9 79.4 446.9 79.4z" class="a"/><path d="M446.9 79.4c0 0 0 0 0 0.1 0.3 1.1 1 2.7 2.3 2.8 0.4 0 0.6-0.6 0.2-0.8 -0.4-0.2-0.9-0.3-1.2-0.6 -0.4-0.3-0.6-0.7-0.7-1.1 -0.1-0.2-0.1-0.3-0.1-0.5C447.2 79 446.9 79.1 446.9 79.4z" class="a"/><path d="M448.2 83c-0.6 0.3-0.3 1.2 0.3 1.3 0-0.1 0.1-0.1 0.1 0.1 0.6 0.7 1.6-0.2 1.2-0.9C449.5 82.6 448.8 82.7 448.2 83z" class="a"/><path d="M449.4 85.5c-0.2 0-0.6 0.2-0.8 0 -0.1-0.1-0.2 0-0.2 0.1 0 0.6 0.3 1 1 0.9C450 86.5 450.1 85.4 449.4 85.5z" class="a"/><path d="M448.4 344.5c0.4-0.1 0.8-0.2 1.2-0.5 0.5-0.3 0.4-1.3-0.3-1.2 -0.5 0-0.8 0.2-1.2 0.3C447.1 343.4 447.5 344.8 448.4 344.5z" class="a"/><path d="M447.3 346.8c0.8 0.2 1.8 0.2 2.4-0.4 0.5-0.4 0.1-1.1-0.5-1.2 -0.7-0.1-1.4 0.3-2 0.5C446.7 346 446.9 346.7 447.3 346.8z" class="a"/><path d="M448.8 348.4c0-0.1 0-0.3-0.2-0.3 -0.6-0.1-1.4 0.5-1.9 0.8 -0.1 0.1-0.1 0.3 0 0.3C447.4 349.4 448.6 349.3 448.8 348.4z" class="a"/><path d="M446.2 352.9c0.7-0.3 1.4-0.6 2-0.9 0.5-0.3 1.4-0.7 1.5-1.4 0-0.3-0.1-0.6-0.4-0.6 -0.6-0.1-1.1 0.5-1.6 0.9 -0.6 0.5-1.1 0.9-1.7 1.4C445.6 352.5 445.8 353.1 446.2 352.9z" class="a"/><path d="M449.4 353c-0.6 0.3-1.2 0.6-1.8 1 -0.6 0.3-1.2 0.6-1.8 1.1 -0.3 0.3-0.2 0.8 0.2 0.8 0.7 0 1.3-0.2 1.9-0.5 0.7-0.3 1.4-0.7 1.9-1.1C450.5 353.8 450.2 352.7 449.4 353z" class="a"/><path d="M353.5 41.1c0.5 0 1 0 1.5 0.2 1.2 0.6 1.1 2.6 0.2 3.6 -0.9 1-2.3 1.3-3.6 1.6 -7.2 1.5-14.5 3-21.7 4.5 -2.5 0.5-5.1 1.1-7.2 2.5 -3.2 2.2-4.9 6-5.8 9.9 -2.9 12.7 0.7 25.7 1.7 38.4 0.8 11.5-2.8 23.5-6.7 34.2 1.1-3-3.7-13.2-3.8-17.1 -0.2-5.7 0.9-11.7 0.6-17.6 -0.6-9.6-1-19.3-0.8-29 0.2-7.6-5.1-27.2 2.8-31.9 1.4-0.8 3-0.9 4.5-1C328 38.9 340.7 41 353.5 41.1z" class="c"/><path d="M414.9 78.4c-0.1-13-0.2-25.9-1.1-38.8 -0.3-4.8-0.7-9.9 1.3-14.3 9.3 6.8 18.2 14.3 26.4 22.5 -5.9-0.9-11.9-1.9-17.8-2.8 -0.9-0.1-1.8-0.3-2.5 0.2 -0.9 0.6-1.1 1.7-1.3 2.8C418.1 58.1 416.5 68.3 414.9 78.4z" class="c"/><path d="M427.4 164.4c-0.3-4.1-0.5-8.2-0.8-12.3 0-0.7-0.1-1.5 0.3-2.1 0.4-0.7 1.3-1 2.2-1.2 2.9-0.7 6-0.8 9-0.6 0.7 3.3-2.5 5.8-5.2 7.8 -2.7 1.9-5.6 5.1-4.2 8.1" class="c"/><path d="M427.5 269.9c-0.3-4-0.1-8 0.8-11.9 2.5-0.6 5-1.2 7.6-1.9 0.9-0.2 1.8-0.4 2.6 0 1.5 0.7 1.4 3 0.4 4.2 -1 1.3-2.6 1.9-4.1 2.7 -3.4 1.9-5.9 5.2-6.9 8.9" class="c"/><path d="M429.8 324.7c-2.1-6-2.8-12.5-2.3-18.8 1.8 0 3.2-1.3 4.7-2.2 1.5-0.9 3.7-1.3 4.8 0.1 0.6 0.8 0.5 1.9 0.3 2.9 -1.1 6-5.3 11.3-5.8 17.4 -0.1 1 1.1 2.4 1.5 1.5" class="c"/><path d="M422.5 380.2c-0.1-6.3-2.3-12.5-6.2-17.4 0.6 12 1.2 24 1.7 36 6.2-3.4 11.9-7.9 16.5-13.4 -2.9-1.2-6 1-8.3 3.2 -0.5 0.5-1.3 1.1-2 0.8 -0.4-0.2-0.6-0.6-0.8-0.9C422.2 386 422.5 383 422.5 380.2z" class="c"/><path d="M426.9 86.3c-0.4-0.5-0.7-1.5-1.1-3 -0.9-3.6-1.1-8.5-0.8-12.2 4.7 0.8 9.2 2.2 13.6 4.1 0.9 0.4 2 1.1 1.7 2.1 -3.1-0.2-6.1 1.5-8.1 3.9C429.7 84.1 428.3 88.5 426.9 86.3z" class="c"/></svg>