<svg version="1.1" id="Layer_1" xmlns="http://www.w3.org/2000/svg" xmlns:xlink="http://www.w3.org/1999/xlink" viewBox="0 0 768 430" enable-background="new 0 0 768 430" xml:space="preserve">
<g>
	<g>
		<polygon fill="#FFF5E0" points="254.688,150.891 234.111,158.332 215,281.192 288.982,357.944 320.837,370.867 529.754,357.944 
			584.839,244.112 566.117,201.483 521.444,145.651 421.525,104.061 		"/>
		<path fill="#F7E0B8" d="M559.042,252.319c-13.457,0-168.379-12.274-174.969-12.796l-0.479-0.038l-139.827-55.922l5.405-22.046
			c-2.863-1.446-4.841-4.421-4.841-7.815c0-4.226,3.012-7.762,7.002-8.574c0-0.002,0-0.003,0-0.005c0-4.825,3.924-8.75,8.749-8.75
			h0.002c-0.018-0.226-0.027-0.454-0.027-0.684c0-4.824,3.925-8.749,8.749-8.749c1.701,0,3.303,0.479,4.661,1.33
			c0.427-3.963,3.512-7.142,7.431-7.712c-1.009-1.439-1.575-3.176-1.575-5.016c0-4.824,3.925-8.749,8.749-8.749
			c1.738,0,3.388,0.507,4.781,1.417c0.268-4.584,4.083-8.231,8.733-8.231c3.525,0,6.569,2.095,7.954,5.105
			c1.604-2.098,4.132-3.444,6.946-3.444c1.322,0,2.579,0.297,3.706,0.828c0.945-3.809,4.394-6.642,8.492-6.642
			c2.086,0,4.019,0.725,5.535,1.962c1.401-2.971,4.423-5.032,7.919-5.032c0.116,0,0.233,0.003,0.349,0.007
			c-0.006-0.138-0.009-0.276-0.009-0.416c0-4.824,3.924-8.749,8.749-8.749c2.927,0,5.523,1.444,7.112,3.658
			c1.053-3.651,4.423-6.329,8.408-6.329c2.636,0,5.003,1.171,6.609,3.021c1.322-3.155,4.442-5.377,8.073-5.377
			c3.688,0,6.853,2.295,8.135,5.533c1.598-2.061,4.098-3.373,6.915-3.373c3.572,0,6.649,2.149,8.007,5.223
			c1.208-0.615,2.561-0.955,3.957-0.955c3.171,0,5.953,1.695,7.488,4.228c1.369-0.87,2.979-1.347,4.674-1.347
			c2.649,0,5.049,1.187,6.662,3.08c1.502-1.182,3.391-1.867,5.412-1.867c3.51,0,6.543,2.078,7.936,5.068
			c1.075-3.616,4.429-6.26,8.389-6.26c4.747,0,8.623,3.8,8.746,8.518c2.023,0.733,3.757,2.11,4.931,3.918
			c0.305-0.033,0.61-0.049,0.919-0.049c3.798,0,7.036,2.431,8.243,5.82c0.071,0.015,0.141,0.032,0.211,0.05
			c1.629-1.95,4.074-3.158,6.717-3.158c4.812,0,8.729,3.906,8.75,8.714c1.047,0.252,2.046,0.676,2.953,1.254
			c0.888-0.297,1.82-0.449,2.771-0.449c2.817,0,5.328,1.339,6.929,3.414c1.155-0.55,2.439-0.853,3.776-0.853
			c2.831,0,5.376,1.328,6.982,3.463c0.553-0.109,1.118-0.164,1.69-0.164c4.825,0,8.75,3.924,8.75,8.749
			c0,0.673-0.077,1.336-0.225,1.979c0.159,0.048,0.319,0.101,0.477,0.158c1.488-1.106,3.309-1.726,5.219-1.726
			c3.587,0,6.649,2.117,8.002,5.197c0.961,0.067,1.903,0.276,2.799,0.615c1.52-1.216,3.42-1.896,5.444-1.896
			c4.824,0,8.748,3.924,8.748,8.749c0,1.677-0.489,3.289-1.356,4.662c1.968,1.037,3.496,2.801,4.221,4.934
			c3.676,1.036,6.378,4.419,6.378,8.422c0,1.602-0.429,3.125-1.205,4.441c1.538,0.95,2.759,2.361,3.473,4.041
			c4.758,0.077,8.604,3.971,8.604,8.747c0,3.15-1.698,5.985-4.293,7.527c-0.011,0.299-0.036,0.595-0.073,0.889
			c4.249,0.596,7.528,4.254,7.528,8.665c0,2.473-1.064,4.792-2.822,6.42c1.781,0.948,3.199,2.498,3.98,4.405
			c0.946-0.345,1.955-0.527,2.988-0.527c4.825,0,8.749,3.926,8.749,8.75c0,2.859-1.362,5.457-3.599,7.075
			c-0.639,4.2-4.274,7.429-8.649,7.429c-0.024,0-0.048-0.001-0.07-0.001c-11.582,24.745-13.117,25.359-14.603,25.954
			C560.499,252.276,559.936,252.319,559.042,252.319z"/>
		<path fill="#FFF5E0" d="M584.839,211.584c0-3.081-2.497-5.58-5.58-5.58c-1.715,0-3.248,0.775-4.272,1.994
			c-0.236-0.994-0.723-1.891-1.387-2.623c-0.55-2.292-2.508-4.033-4.908-4.252c0.061-0.345,0.1-0.698,0.1-1.062
			c0-0.818-0.167-1.598-0.466-2.308c2.112-0.795,3.618-2.828,3.618-5.218c0-3.083-2.498-5.581-5.581-5.581
			c-1.017,0-1.969,0.277-2.791,0.753c-0.055-0.401-0.149-0.789-0.283-1.158c0.763-1.135,1.209-2.5,1.209-3.971
			c0-0.569-0.069-1.123-0.195-1.653c2.555-0.511,4.479-2.765,4.479-5.47c0-3.083-2.498-5.581-5.579-5.581
			c-0.84,0-1.632,0.19-2.347,0.522c0.004-0.094,0.014-0.187,0.014-0.282c0-3.081-2.498-5.579-5.581-5.579
			c-0.22,0-0.434,0.016-0.646,0.04c0.104-0.437,0.163-0.89,0.169-1.357c1.836-0.914,3.1-2.804,3.1-4.993
			c0-3.082-2.498-5.58-5.581-5.58c-0.113,0-0.224,0.01-0.335,0.017c0-0.016,0.002-0.031,0.002-0.046c0-3.082-2.497-5.58-5.58-5.58
			c-0.148,0-0.293,0.01-0.439,0.022c-0.037-0.652-0.22-1.265-0.52-1.805c1.897-0.892,3.212-2.813,3.212-5.046
			c0-3.082-2.498-5.581-5.58-5.581c-2.028,0-3.801,1.087-4.776,2.706c-1.139-0.904-2.576-1.448-4.144-1.448
			c-0.607,0-1.194,0.088-1.755,0.241c-0.087-3.005-2.544-5.416-5.57-5.416c-1.938,0-3.643,0.988-4.642,2.486
			c-0.968-0.803-2.209-1.287-3.564-1.287c-0.204,0-0.402,0.012-0.6,0.034c-0.184-0.579-0.506-1.092-0.928-1.505
			c0.684-0.926,1.094-2.068,1.094-3.308c0-3.082-2.498-5.58-5.581-5.58c-1.207,0-2.322,0.388-3.235,1.039
			c-0.565-2.482-2.782-4.338-5.438-4.338c-2.316,0-4.302,1.412-5.146,3.423c0.01-0.135,0.02-0.268,0.02-0.405
			c0-3.082-2.497-5.58-5.58-5.58c-1.189,0-2.293,0.376-3.199,1.012c-1.188-1.278-2.88-2.083-4.764-2.083
			c-0.663,0-1.304,0.101-1.907,0.285c0.616-0.897,0.978-1.982,0.978-3.153c0-3.082-2.498-5.581-5.581-5.581
			c-2.549,0-4.694,1.713-5.359,4.049c-1.019-0.731-2.264-1.167-3.612-1.167c-0.209,0-0.417,0.012-0.622,0.032
			c0-0.016,0.004-0.031,0.004-0.047c0-3.082-2.5-5.581-5.581-5.581c-0.972,0-1.884,0.25-2.681,0.686
			c-0.725-2.954-3.386-5.149-6.565-5.149c-0.101,0-0.198,0.011-0.298,0.016c0.335-0.718,0.528-1.515,0.528-2.358
			c0-3.082-2.498-5.58-5.58-5.58s-5.581,2.498-5.581,5.58c0,0.878,0.21,1.706,0.57,2.445c-0.352-0.063-0.713-0.103-1.083-0.103
			c-0.467,0-0.918,0.057-1.353,0.156c-0.893-0.77-2.039-1.249-3.299-1.296c0-0.004,0.001-0.008,0.001-0.011
			c0-3.082-2.499-5.58-5.58-5.58c-2.488,0-4.593,1.628-5.313,3.877c-0.383-0.112-0.788-0.175-1.206-0.175
			c-0.007,0-0.011,0.001-0.018,0.001c-0.329-2.769-2.68-4.916-5.537-4.916c-2.029,0-3.801,1.087-4.776,2.708
			c-0.061-0.002-0.12-0.009-0.183-0.009c-0.587,0-1.142,0.134-1.642,0.369c0.009-0.122,0.019-0.244,0.019-0.369
			c0-3.082-2.498-5.58-5.58-5.58c-2.234,0-4.156,1.316-5.047,3.213c-0.21-0.03-0.42-0.05-0.637-0.05
			c-0.368,0-0.726,0.049-1.068,0.131c0.235-0.617,0.369-1.283,0.369-1.982c0-3.083-2.498-5.581-5.581-5.581
			c-3.019,0-5.473,2.401-5.569,5.398c-1.899,0.171-3.565,1.136-4.674,2.558c-0.189-0.295-0.405-0.573-0.646-0.828
			c0.88-0.987,1.419-2.283,1.419-3.708c0-3.081-2.499-5.58-5.581-5.58s-5.58,2.499-5.58,5.58c0,0.689,0.13,1.345,0.358,1.954
			c-0.037-0.001-0.073-0.005-0.109-0.005c-1.562,0-2.964,0.677-3.939,1.748c0.106-0.43,0.169-0.877,0.169-1.34
			c0-3.082-2.499-5.58-5.58-5.58c-3.083,0-5.581,2.498-5.581,5.58c0,0.503,0.072,0.988,0.198,1.453
			c-1.773,0.262-3.316,1.225-4.339,2.599c-0.117-0.06-0.234-0.12-0.353-0.181c0.085-0.387,0.134-0.787,0.134-1.2
			c0-3.081-2.498-5.58-5.58-5.58s-5.58,2.499-5.58,5.58c0,1.53,0.617,2.916,1.615,3.924c-0.655,0.122-1.254,0.397-1.763,0.788
			c-0.936-0.709-2.097-1.134-3.36-1.134c-3.082,0-5.58,2.498-5.58,5.581c0,0.407,0.046,0.804,0.129,1.187
			c-0.904,0.075-1.769,0.287-2.574,0.616c-0.574-2.471-2.785-4.314-5.43-4.314c-3.082,0-5.58,2.499-5.58,5.581
			c0,1.797,0.853,3.392,2.173,4.412c-0.194,0.333-0.355,0.685-0.478,1.056c-0.281-0.051-0.57-0.082-0.866-0.082
			c-0.664,0-1.296,0.136-1.87,0.383c-0.023-3.062-2.511-5.537-5.578-5.537c-2.96,0-5.375,2.307-5.562,5.219
			c-0.07-0.001-0.138-0.011-0.208-0.011c-1.196,0-2.31,0.338-3.262,0.915c-0.195-0.128-0.4-0.241-0.611-0.345
			c0.207-0.582,0.325-1.207,0.325-1.859c0-3.082-2.499-5.58-5.581-5.58s-5.58,2.499-5.58,5.58c0,1.674,0.741,3.172,1.908,4.194
			c-0.724-0.251-1.501-0.39-2.311-0.39c-0.904,0-1.766,0.172-2.561,0.482c-0.922-1.811-2.799-3.052-4.971-3.052
			c-3.081,0-5.58,2.498-5.58,5.579c0,2.187,1.261,4.074,3.091,4.989c-1.093,0.752-1.886,1.907-2.167,3.25
			c-0.403-0.092-0.821-0.146-1.252-0.146c-3.082,0-5.58,2.498-5.58,5.58c0,1.183,0.371,2.278,0.999,3.181
			c-1.356,0.11-2.564,0.732-3.438,1.673c-0.694-2.292-2.821-3.959-5.339-3.959c-3.082,0-5.58,2.499-5.58,5.58
			c0,2.533,1.687,4.667,3.998,5.35c-0.045,0.286-0.076,0.578-0.076,0.876c0,0.014,0.002,0.027,0.002,0.04
			c-0.186-0.023-0.375-0.04-0.568-0.04c-0.609,0-1.188,0.124-1.717,0.345c-0.975-1.626-2.75-2.718-4.783-2.718
			c-3.082,0-5.58,2.499-5.58,5.581c0,1.506,0.6,2.871,1.571,3.875c-0.866-0.552-1.891-0.876-2.993-0.876
			c-3.082,0-5.58,2.498-5.58,5.58c0,3.049,2.446,5.523,5.483,5.576l-5.483,22.366l136.822,54.721c0,0,173.104,13.728,175.584,12.735
			c1.671-0.669,9.191-16.357,13.924-26.528c0.602,0.222,1.249,0.349,1.928,0.349c3.082,0,5.579-2.499,5.579-5.58
			c0-0.192-0.009-0.382-0.029-0.569C583.375,215.952,584.839,213.942,584.839,211.584z"/>
		<path fill="#FFECCC" d="M248.549,244.054c-0.216,0.014-0.433,0.021-0.649,0.021c-5.225,0-9.677-3.739-10.586-8.889
			c-0.014-0.078-0.027-0.156-0.039-0.234c-4.242-0.874-7.625-4.251-8.404-8.667c-0.362-2.061-0.125-4.135,0.667-6.019
			c-0.771-1.192-1.297-2.532-1.549-3.965c-0.372-2.113-0.113-4.242,0.73-6.167c-0.364-0.807-0.626-1.659-0.783-2.547
			c-0.499-2.828,0.181-5.739,1.799-8.053c-0.207-0.573-0.364-1.164-0.471-1.77c-0.691-3.918,0.886-7.885,3.925-10.303
			c0.088-3.339,1.718-6.44,4.404-8.399c0.095-2.01,0.755-3.958,1.936-5.645c0.957-1.366,2.188-2.47,3.617-3.255
			c0.72-2.363,2.249-4.439,4.298-5.827c1.283-3.601,4.45-6.34,8.271-7.014c0.618-0.108,1.247-0.164,1.873-0.164
			c0.537,0,1.068,0.039,1.592,0.117c0.688-0.835,1.49-1.556,2.384-2.143c0.208-1.751,0.846-3.44,1.872-4.904
			c1.648-2.353,4.114-3.923,6.943-4.422c0.096-0.017,0.192-0.032,0.288-0.046c0.322-1.18,0.85-2.302,1.571-3.333
			c1.648-2.354,4.114-3.924,6.943-4.423c0.618-0.109,1.248-0.164,1.872-0.164c3.341,0,6.405,1.536,8.403,4.039
			c0.568-0.204,1.155-0.361,1.753-0.466c0.619-0.109,1.249-0.165,1.873-0.165c2.67,0,5.243,1.015,7.203,2.784
			c0.17-0.039,0.341-0.074,0.514-0.104c0.616-0.109,1.246-0.164,1.871-0.164c4.374,0,8.205,2.619,9.871,6.491
			c0.131-0.027,0.263-0.054,0.395-0.076c0.618-0.109,1.248-0.165,1.873-0.165c5.227,0,9.679,3.739,10.586,8.889
			c0.328,1.861,0.154,3.768-0.485,5.528c0.514,1.026,0.88,2.125,1.079,3.25c0.159,0.903,0.214,1.815,0.164,2.718
			c0.033,0.102,0.064,0.203,0.093,0.305c0.172,0.041,0.342,0.085,0.51,0.134c1.555-1.566,3.573-2.637,5.775-3.025
			c0.617-0.108,1.248-0.164,1.872-0.164c4.635,0,8.661,2.939,10.146,7.197c3.615,1.236,6.401,4.365,7.119,8.222
			c2.463,1.607,4.171,4.164,4.696,7.137c0.979,5.554-2.512,10.88-7.879,12.275c-1.049,0.967-2.288,1.722-3.625,2.212l-3.417,5.826
			l-90.516,37.577L248.549,244.054z"/>
		<g>
			<g>
				<g>
					<polygon fill="#FFECCC" points="339.52,165.046 340.955,163.165 342.598,158.985 347.168,159.372 351.187,159.25 
						356.738,170.63 349.21,172.36 347.184,173.585 					"/>
				</g>
				<g>
					<path fill="#FFECCC" d="M350.894,183.421c-1.295,0-2.57-0.229-3.789-0.68c-1.201-0.444-2.298-1.087-3.27-1.913
						c-2.862-1.362-4.972-3.867-5.851-6.864c-4.928-2.239-7.481-7.799-5.964-12.997c-0.1-0.316-0.188-0.636-0.26-0.96
						c-1.234-1.031-2.226-2.328-2.909-3.813c-1.219-2.651-1.333-5.618-0.32-8.353c0.292-0.789,0.668-1.533,1.123-2.224
						c0.087-2.452,1.014-4.8,2.613-6.649c0.001-1.284,0.231-2.567,0.68-3.78c0.148-0.399,0.316-0.787,0.507-1.162
						c-1.912-2.87-2.408-6.564-1.183-9.876c0.58-1.565,1.497-2.96,2.688-4.1c0.113-0.666,0.288-1.321,0.524-1.959
						c1.112-3.007,3.526-5.389,6.526-6.478c1.829-1.356,4.008-2.174,6.268-2.356c2.058-2.311,5.052-3.69,8.177-3.69
						c0.723,0,1.44,0.071,2.145,0.212c0.694-1.199,1.614-2.261,2.705-3.12c0.078-0.271,0.164-0.538,0.262-0.802
						c1.57-4.242,5.648-7.101,10.165-7.134c1.974-1.703,4.496-2.655,7.131-2.655c0.739,0,1.471,0.074,2.19,0.222
						c1.841-1.308,4.062-2.033,6.33-2.033c1.296,0,2.571,0.229,3.789,0.68c1.631,0.604,3.104,1.605,4.276,2.894
						c1.081,0.062,2.145,0.283,3.169,0.662c2.735,1.013,4.914,3.029,6.132,5.68c0.678,1.472,1.016,3.049,1.004,4.638
						c0.712,0.801,1.303,1.705,1.762,2.703c0.138,0.303,0.264,0.611,0.375,0.924c0.747-0.162,1.514-0.245,2.282-0.245
						c1.297,0,2.571,0.229,3.791,0.68c3.171,1.173,5.596,3.772,6.612,6.931c0.075,0.027,0.151,0.054,0.228,0.082
						c5.058,1.87,7.906,7.111,6.949,12.241c0.504,0.109,1,0.253,1.488,0.434c5.649,2.09,8.545,8.386,6.455,14.033
						c-1.044,2.82-3.149,5.039-5.863,6.22c-0.065,0.082-0.133,0.164-0.2,0.244c0.08,1.483-0.145,2.976-0.67,4.394
						c-1.096,2.967-3.423,5.292-6.351,6.41c-2.055,2.646-5.262,4.247-8.641,4.247c-1.295,0-2.569-0.229-3.788-0.679
						c-0.753-0.279-1.465-0.634-2.13-1.062c-0.322,0.068-0.641,0.109-0.968,0.127c-1.089,0.283-4.073,1.216-7.873,2.497
						l-6.093,10.877l-12.75,1.84l-18.025,3.633l-4.056-0.81C356.284,182.367,353.641,183.421,350.894,183.421z"/>
				</g>
			</g>
		</g>
		<path fill="#F7E0B8" d="M250.169,240.56c-0.309,0.096-0.625,0.173-0.946,0.229c-0.436,0.077-0.881,0.117-1.323,0.117
			c-3.685,0-6.825-2.638-7.465-6.271c-0.15-0.851-0.153-1.711-0.015-2.551c-0.024-0.044-0.046-0.09-0.069-0.134
			c-0.297,0.036-0.596,0.054-0.893,0.054c-3.686,0-6.825-2.638-7.465-6.27c-0.352-1.997,0.094-4.01,1.257-5.669
			c0.032-0.047,0.065-0.093,0.099-0.138c-1.141-1.085-1.948-2.528-2.238-4.177c-0.349-1.982,0.09-3.984,1.236-5.638
			c-0.64-0.897-1.089-1.942-1.289-3.077c-0.469-2.665,0.515-5.294,2.446-7c-0.553-0.847-0.94-1.804-1.118-2.822
			c-0.597-3.384,1.16-6.648,4.09-8.109c-0.002-0.013-0.004-0.025-0.007-0.038c-0.616-3.496,1.279-6.865,4.386-8.249
			c-0.324-1.967,0.125-3.947,1.271-5.583c0.939-1.341,2.255-2.322,3.778-2.834c0.294-2.574,1.903-4.844,4.241-5.973
			c0.597-2.975,2.959-5.428,6.121-5.986c0.437-0.077,0.881-0.115,1.323-0.115c1.06,0,2.075,0.217,2.997,0.615
			c0.188-0.406,0.414-0.798,0.676-1.171c0.866-1.237,2.053-2.167,3.427-2.707c-0.16-1.779,0.308-3.539,1.344-5.019
			c1.162-1.66,2.901-2.768,4.897-3.119c0.437-0.077,0.881-0.116,1.322-0.116c0.411,0,0.818,0.034,1.217,0.101
			c-0.073-1.659,0.399-3.286,1.367-4.668c1.163-1.66,2.901-2.768,4.897-3.12c0.437-0.076,0.882-0.115,1.322-0.115
			c3.3,0,6.163,2.113,7.185,5.163c0.986-0.822,2.188-1.403,3.522-1.639c0.437-0.077,0.881-0.116,1.322-0.116
			c2.464,0,4.706,1.202,6.101,3.094c0.086-0.003,0.172-0.005,0.258-0.005c0.106,0,0.213,0.003,0.321,0.007
			c0.51-0.212,1.04-0.367,1.586-0.463c0.437-0.077,0.881-0.116,1.322-0.116c3.686,0,6.825,2.638,7.465,6.271
			c0.044,0.246,0.074,0.493,0.094,0.74c0.217,0.104,0.431,0.217,0.639,0.339c0.794-0.481,1.679-0.817,2.618-0.983
			c0.437-0.077,0.882-0.116,1.323-0.116c3.686,0,6.825,2.637,7.466,6.27c0.322,1.825-0.046,3.652-0.945,5.172
			c0.771,1.057,1.306,2.288,1.538,3.608c0.153,0.867,0.175,1.734,0.066,2.592c0.21,0.505,0.363,1.033,0.459,1.579
			c0.039,0.226,0.069,0.451,0.087,0.678c0.287,0.157,0.562,0.333,0.827,0.525c1.095,0.077,2.149,0.389,3.097,0.907
			c0.205-0.084,0.414-0.161,0.625-0.229c1.129-1.748,2.943-2.978,5.053-3.349c0.436-0.077,0.88-0.116,1.321-0.116
			c3.686,0,6.826,2.637,7.466,6.271c0.023,0.134,0.043,0.268,0.06,0.401c3.318,0.362,6.043,2.869,6.635,6.225
			c0.08,0.448,0.117,0.898,0.116,1.346c2.334,0.967,4.101,3.071,4.563,5.695c0.726,4.12-2.035,8.062-6.154,8.789
			c-0.063,0.011-0.128,0.022-0.192,0.031c-1.07,1.226-2.517,2.089-4.136,2.433l-3.515,5.991l-86.988,36.113L250.169,240.56z"/>
		<path fill="#FFF5E0" d="M253.592,240.128l83.46-34.648l3.808-6.492c0.358,0.027,0.725,0.015,1.095-0.05
			c1.474-0.26,2.645-1.224,3.234-2.485c0.438,0.059,0.893,0.053,1.351-0.028c2.403-0.423,4.007-2.715,3.583-5.117
			c-0.424-2.402-2.715-4.006-5.118-3.583c-0.175,0.031-0.344,0.075-0.511,0.125c0.797-0.963,1.184-2.254,0.95-3.582
			c-0.423-2.403-2.714-4.007-5.117-3.584c-1.347,0.238-2.441,1.062-3.07,2.162c0.075-0.372,0.104-0.756,0.081-1.148
			c1.101-0.985,1.686-2.496,1.41-4.058c-0.423-2.402-2.714-4.006-5.117-3.583c-1.667,0.293-2.947,1.486-3.435,2.991
			c-0.134,0.014-0.267,0.031-0.401,0.054c-1.011,0.178-1.913,0.611-2.655,1.22c-0.954-1.125-2.444-1.743-3.998-1.519
			c-0.782-0.879-1.893-1.433-3.102-1.496c0.28-0.725,0.376-1.532,0.232-2.354c-0.108-0.614-0.34-1.175-0.663-1.664
			c0.232-0.79,0.29-1.643,0.138-2.507c-0.321-1.825-1.505-3.279-3.058-4.021c1.756-0.83,2.818-2.752,2.465-4.757
			c-0.423-2.403-2.714-4.007-5.117-3.584c-1.343,0.237-2.435,1.057-3.065,2.154c-0.978-1.357-2.54-2.226-4.251-2.308
			c0.33-0.765,0.45-1.631,0.294-2.513c-0.423-2.403-2.714-4.007-5.117-3.584c-0.567,0.101-1.088,0.308-1.55,0.593
			c-0.551-0.106-1.13-0.12-1.715-0.017c-0.436,0.077-0.846,0.216-1.227,0.398c-0.466-2.35-2.725-3.908-5.096-3.49
			c-2.202,0.388-3.729,2.346-3.642,4.521c-0.691-0.396-1.472-0.524-2.217-0.411c-0.313-0.614-0.765-1.135-1.303-1.535
			c0.294-0.737,0.397-1.561,0.25-2.399c-0.424-2.403-2.715-4.007-5.118-3.583c-2.403,0.423-4.007,2.714-3.583,5.117
			c0.205,1.158,0.845,2.126,1.719,2.776c-0.187,0.469-0.299,0.972-0.315,1.493c-0.71,0.129-1.349,0.416-1.896,0.816
			c-0.845-1.717-2.747-2.748-4.727-2.399c-2.403,0.424-4.007,2.714-3.584,5.117c0.263,1.494,1.25,2.678,2.535,3.26l-0.201,0.251
			c-0.957-0.763-2.221-1.132-3.521-0.903c-2.403,0.424-4.007,2.715-3.584,5.117c0.222,1.258,0.959,2.294,1.953,2.938l-0.195,0.301
			c-0.853-0.474-1.859-0.678-2.893-0.531c-0.011-0.149-0.029-0.299-0.056-0.45c-0.423-2.402-2.715-4.007-5.117-3.583
			c-2.402,0.424-4.007,2.714-3.583,5.117c0.01,0.059,0.027,0.114,0.039,0.172c-0.198,0.007-0.396,0.024-0.598,0.059
			c-2.402,0.423-4.006,2.715-3.583,5.117c0.083,0.473,0.241,0.913,0.456,1.313c-0.624-0.178-1.294-0.225-1.974-0.105
			c-2.402,0.424-4.007,2.715-3.583,5.118c0.28,1.595,1.387,2.833,2.8,3.365l-0.261,0.456c-0.935-0.676-2.13-0.991-3.355-0.774
			c-2.403,0.424-4.007,2.714-3.583,5.117c0.231,1.309,1.018,2.376,2.072,3.013l-0.186,0.262c-0.734-0.291-1.553-0.392-2.387-0.245
			c-2.402,0.424-4.007,2.714-3.583,5.117c0.255,1.448,1.19,2.602,2.417,3.201c-0.422,0.501-0.74,1.086-0.935,1.718
			c-1.961,0.727-3.187,2.771-2.81,4.903c0.336,1.911,1.854,3.311,3.668,3.595c-0.011,0.001-0.022,0.002-0.033,0.003
			c-2.402,0.424-4.007,2.715-3.583,5.118c0.377,2.146,2.248,3.65,4.354,3.646c-0.007,0.342,0.018,0.691,0.08,1.041
			c0.01,0.06,0.028,0.117,0.04,0.177c-0.003,0-0.005,0-0.009,0.001c-2.402,0.423-4.007,2.714-3.583,5.117
			c0.424,2.402,2.714,4.007,5.117,3.583c0.923-0.163,1.727-0.603,2.344-1.217c-0.031,0.453-0.01,0.916,0.073,1.383
			c0.175,0.999,0.605,1.892,1.208,2.623c-0.335,0.768-0.457,1.64-0.301,2.528c0.424,2.402,2.715,4.007,5.118,3.583
			c1.053-0.186,1.954-0.73,2.597-1.486L253.592,240.128z"/>
		<g>
			<g>
				<g>
					<path fill="#F7E0B8" d="M343.63,164.883c0.074-0.098,0.138-0.213,0.189-0.344l0.864-2.197l2.353,0.2
						c0.023,0.001,0.047,0.001,0.07,0.001l0.084-0.001l2.047-0.062l2.904,5.955l-3.886,0.894c-0.166,0.039-0.323,0.102-0.466,0.189
						L343.63,164.883z"/>
				</g>
				<g>
					<path fill="#F7E0B8" d="M350.894,180.251c-0.918,0-1.823-0.162-2.689-0.482c-0.977-0.362-1.871-0.919-2.626-1.633
						c-2.779-1.149-4.573-3.732-4.841-6.564c-0.311-0.074-0.617-0.166-0.92-0.277c-4.009-1.484-6.064-5.952-4.582-9.961
						c0.05-0.134,0.104-0.268,0.16-0.399c-0.389-0.86-0.631-1.779-0.717-2.718c-1.282-0.793-2.304-1.945-2.948-3.346
						c-0.865-1.882-0.946-3.987-0.228-5.929c0.316-0.853,0.768-1.629,1.341-2.307c-0.208-2.45,0.789-4.858,2.687-6.445
						c-0.205-1.292-0.081-2.633,0.388-3.901c0.333-0.903,0.829-1.728,1.458-2.439c0.004-0.03,0.009-0.06,0.014-0.09
						c-2.332-2.059-3.29-5.42-2.147-8.509c0.543-1.467,1.503-2.71,2.734-3.598c0.024-0.835,0.183-1.667,0.477-2.461
						c0.854-2.31,2.747-4.055,5.072-4.743c1.597-1.32,3.629-2.061,5.714-2.061c0.208,0,0.416,0.007,0.623,0.021
						c1.396-2.246,3.886-3.674,6.591-3.674c0.919,0,1.823,0.162,2.689,0.483c0.449,0.167,0.879,0.373,1.286,0.617
						c0.08-0.432,0.199-0.861,0.355-1.285c0.63-1.703,1.829-3.102,3.348-3.994c0.077-0.542,0.212-1.078,0.406-1.599
						c1.12-3.029,4.043-5.064,7.271-5.064c0.384,0,0.766,0.028,1.143,0.085c1.448-1.7,3.6-2.739,5.909-2.739
						c0.918,0,1.823,0.162,2.69,0.482c0.081,0.031,0.16,0.062,0.241,0.095c1.437-1.49,3.445-2.388,5.589-2.388
						c0.92,0,1.824,0.162,2.69,0.483c1.621,0.6,2.959,1.72,3.85,3.127c0.301-0.036,0.605-0.054,0.91-0.054
						c0.916,0,1.819,0.162,2.684,0.482c1.942,0.718,3.489,2.15,4.354,4.032c0.664,1.443,0.866,3.017,0.6,4.549
						c0.918,0.74,1.658,1.688,2.165,2.79c0.624,1.357,0.84,2.831,0.642,4.275c1.356-1.105,3.078-1.75,4.896-1.75
						c0.919,0,1.824,0.162,2.691,0.482c2.895,1.071,4.771,3.698,5.032,6.584c0.619,0.07,1.226,0.212,1.808,0.428
						c4.01,1.483,6.065,5.952,4.582,9.961c-0.354,0.953-0.883,1.814-1.555,2.546c0.008,0.059,0.017,0.118,0.023,0.177
						c0.858-0.321,1.776-0.491,2.701-0.491c0.918,0,1.821,0.163,2.688,0.482c4.009,1.483,6.063,5.952,4.581,9.961
						c-0.842,2.273-2.666,3.979-4.9,4.694c-0.425,0.658-0.943,1.245-1.541,1.743c0.331,1.439,0.246,2.969-0.292,4.42
						c-0.893,2.418-2.938,4.203-5.371,4.823c-1.384,2.297-3.906,3.765-6.648,3.765c-0.918,0-1.822-0.163-2.688-0.482
						c-0.997-0.369-1.891-0.93-2.64-1.639c-0.911,0.424-1.398,0.519-1.951,0.519c-0.009,0-0.019,0-0.025,0
						c-1.242,0.271-5.63,1.683-9.625,3.044l-5.922,10.575l-11.29,1.629l-17.488,3.525l-5.189-1.036
						C355.711,179.031,353.395,180.251,350.894,180.251z"/>
				</g>
			</g>
		</g>
		<g>
			<g>
				<path fill="#FFF5E0" d="M347.287,165.709c-0.172,0.005-0.345,0.004-0.519-0.011c-0.159,0.404-0.367,0.776-0.619,1.105
					c0.431-0.26,0.904-0.451,1.396-0.564L347.287,165.709z"/>
				<path fill="#FFF5E0" d="M429.75,140.392c0.878-2.374-0.336-5.011-2.71-5.889c-1.752-0.649-3.646-0.155-4.872,1.101
					c-0.36-0.314-0.779-0.573-1.255-0.748c-0.608-0.226-1.237-0.292-1.843-0.227c0.106-0.193,0.203-0.392,0.281-0.604
					c0.481-1.301,0.331-2.68-0.291-3.806c1.005-0.502,1.829-1.368,2.25-2.504c0.879-2.374-0.334-5.011-2.709-5.89
					c-0.494-0.182-0.997-0.27-1.495-0.28l-2.637-0.842c0,0,0,0,0,0c0.879-2.374-0.334-5.012-2.709-5.89
					c-2.373-0.878-5.011,0.335-5.889,2.709c-0.308,0.825-0.354,1.682-0.193,2.486c-0.861,0.249-1.639,0.748-2.229,1.444
					c0.091-1.941-1.068-3.801-2.988-4.51c-1.019-0.378-2.086-0.367-3.042-0.047l-0.015-0.243c1.932,0.078,3.777-1.078,4.484-2.989
					c0.878-2.374-0.334-5.011-2.709-5.89c-0.249-0.092-0.503-0.157-0.756-0.203c0.29-0.368,0.529-0.785,0.7-1.247
					c0.878-2.374-0.335-5.011-2.709-5.89c-1.563-0.579-3.24-0.246-4.454,0.726c-0.008-1.856-1.146-3.599-2.988-4.282
					c-2.375-0.878-5.013,0.335-5.891,2.709c-0.135,0.365-0.215,0.736-0.255,1.106c-0.516-0.893-1.333-1.618-2.377-2.004
					c-2.375-0.878-5.011,0.335-5.889,2.709c-0.059,0.159-0.107,0.319-0.147,0.479c-0.309-0.214-0.646-0.397-1.014-0.533
					c-2.376-0.878-5.012,0.334-5.891,2.709c-0.327,0.883-0.364,1.803-0.159,2.655c-1.588,0.249-2.997,1.324-3.595,2.938
					c-0.712,1.924-0.049,4.021,1.491,5.214c-0.057,0.047-0.114,0.097-0.168,0.146c-0.313-0.255-0.668-0.465-1.067-0.612
					c-1.146-0.424-2.364-0.25-3.322,0.357c-0.468-1.146-1.393-2.101-2.646-2.565c-2.375-0.878-5.012,0.335-5.891,2.709
					c-0.158,0.428-0.246,0.865-0.274,1.298c-0.203-0.104-0.414-0.198-0.633-0.279c-2.232-0.826-4.648-0.187-6.194,1.43
					c-1.6,0.239-3.025,1.319-3.626,2.944c-0.397,1.074-0.364,2.199,0.008,3.193c-1.431,0.348-2.669,1.379-3.219,2.865
					c-0.878,2.375,0.335,5.011,2.709,5.89c0.141,0.052,0.283,0.096,0.425,0.133c-0.258,0.335-0.471,0.713-0.626,1.13
					c-0.218,0.591-0.294,1.198-0.25,1.787c-0.698,0.513-1.26,1.227-1.583,2.099c-0.553,1.494-0.276,3.091,0.595,4.29
					c-0.305,0.067-0.609,0.166-0.905,0.302c-2.188,1.007-3.165,3.565-2.234,5.768c-0.831,0.519-1.505,1.303-1.871,2.292
					c-0.878,2.374,0.335,5.011,2.709,5.89c0.26,0.097,0.524,0.163,0.789,0.21c-0.437,1.727,0.031,3.511,1.147,4.796
					c-0.386,0.424-0.701,0.924-0.913,1.496c-0.878,2.374,0.334,5.011,2.709,5.89c1.352,0.5,2.788,0.32,3.937-0.364
					c-0.285,0.369-0.519,0.786-0.688,1.246c-0.905,2.447,0.345,5.164,2.791,6.07c0.13,0.048,0.262,0.086,0.393,0.123
					c0.5,0.613,1.161,1.106,1.956,1.401c2.374,0.878,5.011-0.334,5.89-2.708c0.073-0.2,0.127-0.402,0.172-0.604l6.97,1.391
					l16.951-3.417l9.829-1.418l5.75-10.267c0,0,11.207-3.865,11.785-3.614c0.177,0.077,1.389-0.562,2.986-1.482
					c0.432,1.254,1.401,2.31,2.742,2.806c2.374,0.879,5.012-0.334,5.89-2.708c0.065-0.179,0.118-0.36,0.16-0.541
					c1.969,0.125,3.867-1.038,4.587-2.983c0.627-1.69,0.188-3.51-0.971-4.737c1.571-0.259,2.965-1.329,3.556-2.929
					c0.024-0.067,0.041-0.134,0.063-0.2C427.447,143.297,429.092,142.171,429.75,140.392z"/>
			</g>
		</g>
		<circle fill="#FFFFFF" cx="455.883" cy="163.389" r="3.442"/>
		<path fill="#FFECCC" d="M321.091,219.789c-0.776-0.35-4.726-2.13-8.642-3.962c-2.544-1.189-4.58-2.167-6.05-2.908
			c-2.857-1.438-5.565-2.801-6.077-6.117c-5.978-0.635-10.649-5.708-10.649-11.851c0-0.774,0.073-1.539,0.22-2.287
			c-2.563-2.237-4.08-5.49-4.08-8.975c0-5.191,3.298-9.67,8.071-11.285c0.265-0.576,0.575-1.128,0.927-1.654
			c-1.392-1.98-2.156-4.352-2.156-6.832c0-6.572,5.346-11.918,11.918-11.918c1.615,0,3.188,0.321,4.646,0.938
			c1.21-5.297,5.966-9.265,11.619-9.265c1.726,0,3.394,0.363,4.927,1.062c1.335-0.943,2.851-1.604,4.449-1.938
			c1.313-5.153,5.998-8.978,11.551-8.978c3.983,0,7.627,1.985,9.815,5.159c0.839-0.185,1.698-0.28,2.558-0.28
			c3.998,0,7.63,1.943,9.826,5.168c0.64-0.105,1.29-0.159,1.945-0.159c3.717,0,7.158,1.705,9.408,4.611
			c4.377,1.843,7.245,6.119,7.245,10.972c0,3.631-1.62,6.906-4.208,9.1c1.991,2.143,3.175,5.006,3.175,8.122
			c0,5.705-4.028,10.485-9.389,11.648c1.69,2.1,2.629,4.716,2.629,7.455c0,6.572-5.346,11.918-11.918,11.918
			c-0.121,0-0.243-0.002-0.364-0.006c-2.066,3.722-6.032,6.146-10.426,6.146c-1.196,0-2.382-0.179-3.514-0.524
			c-2.132,1.815-4.833,2.821-7.701,2.821c-1.771,0-3.497-0.392-5.081-1.143l-11.863,6.225L321.091,219.789z"/>
		<path fill="#F7E0B8" d="M322.39,216.898c-0.042-0.02-4.348-1.955-8.599-3.942c-2.512-1.174-4.519-2.139-5.966-2.868
			c-2.698-1.358-4.248-2.138-4.404-4.057c-0.048-0.217-0.194-0.819-0.633-2.413c-0.395,0.055-0.794,0.081-1.198,0.081
			c-4.824,0-8.749-3.924-8.749-8.749c0-1.257,0.271-2.461,0.759-3.552c-2.747-1.477-4.618-4.379-4.618-7.71
			c0-4.33,3.161-7.935,7.296-8.628c0.474-1.721,1.46-3.231,2.785-4.355c-1.985-1.615-3.238-4.075-3.238-6.787
			c0-4.825,3.924-8.749,8.749-8.749c1.837,0,3.581,0.569,5.023,1.583c0.767-0.515,1.607-0.916,2.492-1.186
			c0.013-4.813,3.933-8.725,8.749-8.725c1.987,0,3.822,0.666,5.292,1.786c1.603-1.787,3.929-2.914,6.513-2.914
			c0.125,0,0.25,0.003,0.374,0.008c0.008-4.816,3.93-8.733,8.749-8.733c3.828,0,7.09,2.472,8.273,5.903
			c1.234-0.658,2.634-1.024,4.1-1.024c3.387,0,6.387,1.925,7.835,4.861c0.4,0.17,0.788,0.372,1.158,0.601
			c0.888-0.299,1.824-0.453,2.778-0.453c3.028,0,5.806,1.58,7.388,4.073c3.579,1.122,6.097,4.433,6.097,8.341
			c0,4.504-3.422,8.225-7.803,8.699c3.875,0.899,6.77,4.379,6.77,8.522c0,4.825-3.924,8.749-8.749,8.749
			c-0.383,0-0.763-0.025-1.138-0.073c0.113,0.564,0.171,1.146,0.171,1.738c0,0.666-0.074,1.321-0.219,1.957
			c1.959,1.628,3.174,4.08,3.174,6.732c0,4.824-3.925,8.75-8.749,8.75c-0.802,0-1.59-0.111-2.344-0.323
			c-1.008,3.719-4.413,6.462-8.445,6.462c-1.548,0-3.014-0.397-4.29-1.111c-1.601,2.072-4.11,3.408-6.925,3.408
			c-1.806,0-3.557-0.57-5.013-1.589l-12.038,6.316L322.39,216.898z"/>
		<path fill="#FFF5E0" d="M370.646,164.872c3.081,0,5.58-2.499,5.58-5.58c0-2.909-2.228-5.296-5.07-5.554
			c-0.775-2.151-2.828-3.692-5.245-3.692c-1.198,0-2.305,0.381-3.214,1.024c-0.798-0.916-1.896-1.558-3.143-1.776
			c-0.595-2.442-2.79-4.258-5.415-4.258c-2.577,0-4.739,1.75-5.381,4.124c-0.477-0.611-1.075-1.123-1.762-1.492
			c0.222-0.602,0.35-1.25,0.35-1.93c0-3.082-2.499-5.58-5.58-5.58c-3.082,0-5.58,2.499-5.58,5.58c0,1.146,0.347,2.212,0.94,3.099
			l-1.312,1.038c-0.9-0.623-1.992-0.99-3.17-0.99c-3.081,0-5.58,2.498-5.58,5.58c0,0.475,0.065,0.935,0.178,1.375l-0.867,0.431
			c0.027-0.223,0.045-0.448,0.045-0.678c0-3.082-2.498-5.581-5.581-5.581c-3.082,0-5.58,2.499-5.58,5.581
			c0,1.061,0.302,2.05,0.816,2.895c-0.425-0.094-0.865-0.147-1.318-0.147c-2.233,0-4.18,1.207-5.237,3c-0.932-1.783-2.794-3-4.945-3
			c-3.082,0-5.58,2.498-5.58,5.58c0,2.84,2.124,5.179,4.869,5.529c0.135,0.868,0.465,1.669,0.952,2.355
			c-0.034,0-0.066-0.004-0.099-0.004c-3.081,0-5.58,2.498-5.58,5.58c0,0.32,0.033,0.631,0.085,0.937
			c-0.475-0.131-0.973-0.208-1.489-0.208c-3.083,0-5.581,2.499-5.581,5.581c0,3.082,2.498,5.58,5.581,5.58
			c0.968,0,1.878-0.247,2.672-0.681l0.457,0.837c-2.736,0.358-4.85,2.693-4.85,5.526c0,3.082,2.499,5.581,5.58,5.581
			c1.243,0,2.386-0.411,3.313-1.098c0.831,2.913,1.674,5.951,1.674,6.266c0,0.621,17.111,8.308,17.111,8.308l12.671-6.647
			c1.016,1.376,2.645,2.274,4.487,2.274c3.082,0,5.581-2.499,5.581-5.581c0-0.204-0.013-0.405-0.034-0.604l0.334-0.055
			c0.701,2.281,2.824,3.94,5.335,3.94c3.082,0,5.58-2.498,5.58-5.58c0-0.927-0.229-1.799-0.629-2.567l0.989-0.82
			c0.96,1.688,2.771,2.828,4.85,2.828c3.083,0,5.581-2.498,5.581-5.581c0-2.554-1.719-4.703-4.061-5.365
			c0.691-0.93,1.105-2.077,1.105-3.324c0-2.019-1.075-3.782-2.681-4.762c0.002,0,0.004,0,0.006,0c1.305,0,2.503-0.452,3.454-1.203
			c0.934,0.706,2.094,1.129,3.356,1.129c3.081,0,5.58-2.498,5.58-5.58c0-3.081-2.499-5.579-5.58-5.579
			c-1.306,0-2.504,0.452-3.454,1.202c-0.569-0.43-1.22-0.75-1.928-0.938c0.041-0.246,0.083-0.49,0.125-0.73
			c1.68-0.962,2.815-2.768,2.815-4.842c0-0.563-0.085-1.106-0.241-1.618l0.24-0.354C368.123,164.414,369.33,164.872,370.646,164.872
			z"/>
		<g>
			<g>
				<g>
					<polygon fill="#FFECCC" points="274.007,287.75 274.739,285.357 274.832,280.727 279.296,279.489 283.085,277.957 
						292.332,286.788 285.735,291.117 284.155,293.099 					"/>
				</g>
				<g>
					<path fill="#FFECCC" d="M288.655,303.511c-1.458,0-2.881-0.263-4.238-0.782c-3.735-0.281-7.099-2.283-9.146-5.354
						c-6.325-0.118-11.46-5.189-11.683-11.49c-0.425-0.51-0.81-1.05-1.15-1.62c-4.927-1.528-8.353-6.076-8.353-11.376
						c0-1.05,0.135-2.083,0.403-3.081c-1.021-2.792-0.937-5.89,0.22-8.616c-0.609-1.455-0.926-3.02-0.926-4.611
						c0-0.739,0.068-1.472,0.202-2.189c-3.452-2.141-5.635-5.94-5.635-10.129c0-1.983,0.483-3.9,1.407-5.621
						c-0.199-0.867-0.299-1.753-0.299-2.65c0-3.575,1.624-6.976,4.377-9.228c1.479-2.347,3.662-4.178,6.208-5.235
						c1.515-4.495,5.659-7.765,10.456-8.113c0.168-2.009,0.843-3.938,1.959-5.611c-0.052-0.453-0.079-0.91-0.079-1.366
						c0-5.236,3.344-9.737,8.174-11.32c1.812-3.658,5.364-6.134,9.456-6.546c2.138-3.496,5.995-5.727,10.181-5.727
						c2.098,0,4.158,0.563,5.965,1.613c1.286-0.459,2.651-0.698,4.034-0.698c5.258,0,9.848,3.484,11.377,8.37
						c1.958,0.937,3.601,2.387,4.781,4.152c2.043-1.626,4.63-2.587,7.435-2.587c3.991,0,7.624,1.96,9.816,5.155
						c0.318-0.026,0.636-0.04,0.955-0.04c6.369,0,11.589,5.024,11.903,11.318c1-0.27,2.037-0.411,3.085-0.411
						c6.571,0,11.917,5.346,11.917,11.917c0,3.358-1.436,6.57-3.89,8.811c-0.12,0.399-0.259,0.791-0.421,1.174
						c0.798,1.62,1.212,3.405,1.212,5.254c0,3.537-1.644,6.95-4.363,9.201c-1.41,5.071-6.124,8.745-11.487,8.745
						c-1.063,0-2.127-0.145-3.151-0.425c-0.446,0.331-0.937,0.626-1.483,0.855c-1.266,0.869-4.764,3.594-8.51,6.627l-2.337,14.842
						l-13.215,7.182l-18.842,11.636l-5.4,0.856C297.702,300.674,293.479,303.511,288.655,303.511z"/>
				</g>
			</g>
		</g>
		<g>
			<g>
				<g>
					<path fill="#F7E0B8" d="M277.804,286.169c0.062-0.204,0.097-0.426,0.102-0.659l0.047-2.358l2.274-0.631
						c0.062-0.018,0.147-0.047,0.253-0.091l1.897-0.769l4.883,4.664l-3.333,2.187c-0.235,0.155-0.442,0.344-0.614,0.561
						L277.804,286.169z"/>
				</g>
				<g>
					<path fill="#F7E0B8" d="M288.655,300.342c-1.219,0-2.423-0.257-3.536-0.751c-3.627-0.083-6.726-2.344-8.038-5.525
						c-0.517,0.096-1.046,0.144-1.583,0.144c-4.824,0-8.749-3.925-8.749-8.75c0-0.264,0.012-0.528,0.036-0.79
						c-0.938-0.892-1.686-1.962-2.201-3.146c-4.152-0.679-7.331-4.293-7.331-8.635c0-1.124,0.21-2.216,0.619-3.233
						c-1.368-2.679-1.23-5.895,0.397-8.455c-0.851-1.364-1.319-2.959-1.319-4.62c0-1.154,0.227-2.287,0.664-3.341
						c-0.052-0.226-0.094-0.452-0.128-0.681c-3.465-1.165-5.969-4.443-5.969-8.297c0-1.883,0.603-3.682,1.682-5.159
						c-0.377-0.987-0.575-2.041-0.575-3.112c0-2.826,1.364-5.454,3.621-7.088c1.388-2.479,3.733-4.249,6.449-4.923
						c0.639-4.198,4.274-7.426,8.649-7.426c0.909,0,1.805,0.143,2.657,0.417c-0.247-0.814-0.378-1.676-0.378-2.563
						c0-2.164,0.804-4.217,2.196-5.793c-0.181-0.706-0.274-1.436-0.274-2.177c0-4.342,3.179-7.955,7.332-8.634
						c1.118-3.546,4.437-6.124,8.346-6.124c0.255,0,0.51,0.011,0.763,0.034c1.24-3.325,4.449-5.7,8.201-5.7
						c2.1,0,4.088,0.766,5.637,2.073c1.3-0.75,2.794-1.158,4.363-1.158c4.417,0,8.08,3.291,8.667,7.55
						c3.656,1.049,6.338,4.423,6.338,8.411c0,0.61-0.063,1.208-0.182,1.789c0.022,0.008,0.045,0.018,0.068,0.027
						c0.456-4.4,4.185-7.842,8.703-7.842c3.663,0,6.806,2.263,8.109,5.464l0.283-0.013c0.779-0.222,1.578-0.334,2.379-0.334
						c4.823,0,8.749,3.925,8.749,8.75c0,1.257-0.269,2.482-0.778,3.603c0.249,0.423,0.461,0.866,0.636,1.324
						c1.627-1.734,3.924-2.769,6.381-2.769c4.824,0,8.749,3.924,8.749,8.749c0,2.819-1.344,5.409-3.544,7.035
						c-0.21,1.094-0.627,2.132-1.22,3.06c1.065,1.463,1.664,3.248,1.664,5.144c0,3.009-1.579,5.777-4.033,7.361
						c-0.644,4.194-4.276,7.416-8.647,7.416c-1.358,0-2.673-0.312-3.858-0.895c-0.851,0.905-1.509,1.424-2.229,1.655
						c-1.319,0.837-5.904,4.438-9.998,7.771l-2.284,14.499l-11.918,6.476l-18.376,11.349l-6.665,1.057
						C296.284,297.442,292.801,300.342,288.655,300.342z"/>
				</g>
			</g>
		</g>
		<g>
			<g>
				<path fill="#FFF5E0" d="M281.669,285.367c-0.194,0.078-0.391,0.15-0.595,0.207c-0.011,0.529-0.092,1.04-0.24,1.524
					c0.383-0.481,0.84-0.897,1.355-1.234L281.669,285.367z"/>
				<path fill="#FFF5E0" d="M365.12,221.635c0-3.081-2.498-5.579-5.579-5.579c-2.275,0-4.228,1.362-5.097,3.314
					c-0.544-0.206-1.132-0.323-1.75-0.323c-0.79,0-1.535,0.19-2.198,0.521c0.039-0.266,0.065-0.534,0.065-0.809
					c0-1.688-0.753-3.199-1.939-4.222c0.934-0.999,1.51-2.335,1.51-3.809c0-3.082-2.498-5.581-5.58-5.581
					c-0.641,0-1.254,0.113-1.826,0.313l-3.366,0.151c0,0,0,0,0-0.001c0-3.082-2.498-5.58-5.58-5.58c-3.082,0-5.58,2.498-5.58,5.58
					c0,1.072,0.307,2.069,0.831,2.92c-0.878,0.647-1.558,1.544-1.935,2.589c-0.717-2.253-2.826-3.886-5.317-3.886
					c-1.323,0-2.536,0.462-3.493,1.231l-0.12-0.271c2.237-0.727,3.856-2.826,3.856-5.306c0-3.081-2.498-5.58-5.58-5.58
					c-0.324,0-0.639,0.034-0.948,0.087c0.176-0.542,0.273-1.119,0.273-1.719c0-3.082-2.499-5.58-5.58-5.58
					c-2.031,0-3.802,1.088-4.778,2.71c-0.793-2.116-2.829-3.625-5.221-3.625c-3.082,0-5.58,2.498-5.58,5.58
					c0,0.474,0.065,0.931,0.176,1.37c-0.967-0.802-2.207-1.284-3.561-1.284c-3.081,0-5.58,2.498-5.58,5.58
					c0,0.207,0.013,0.409,0.035,0.609c-0.443-0.113-0.905-0.18-1.383-0.18c-3.083,0-5.581,2.497-5.581,5.58
					c0,1.146,0.347,2.213,0.94,3.099c-1.708,0.954-2.863,2.777-2.863,4.871c0,2.499,1.642,4.612,3.905,5.325
					c-0.046,0.077-0.089,0.157-0.131,0.238c-0.464-0.159-0.96-0.248-1.478-0.248c-1.487,0-2.805,0.711-3.641,1.811
					c-1.019-1.112-2.479-1.811-4.104-1.811c-3.083,0-5.581,2.497-5.581,5.579c0,0.557,0.084,1.092,0.235,1.599
					c-0.276-0.032-0.556-0.053-0.841-0.053c-2.897,0-5.384,1.751-6.466,4.25c-1.727,0.949-2.897,2.784-2.897,4.893
					c0,1.394,0.514,2.665,1.358,3.643c-1.488,1.001-2.465,2.702-2.465,4.629c0,3.082,2.498,5.581,5.58,5.581
					c0.183,0,0.363-0.01,0.542-0.027c-0.153,0.492-0.237,1.012-0.237,1.554c0,0.767,0.17,1.492,0.469,2.146
					c-0.58,0.879-0.919,1.932-0.919,3.064c0,1.939,0.99,3.646,2.491,4.646c-0.321,0.206-0.625,0.446-0.906,0.728
					c-2.073,2.073-2.108,5.407-0.114,7.528c-0.73,0.942-1.168,2.123-1.168,3.406c0,3.082,2.499,5.581,5.58,5.581
					c0.338,0,0.668-0.036,0.99-0.094c0.231,2.157,1.518,3.996,3.334,4.99c-0.262,0.647-0.409,1.353-0.409,2.093
					c0,3.083,2.498,5.581,5.58,5.581c1.755,0,3.318-0.812,4.341-2.077c-0.169,0.541-0.26,1.116-0.26,1.712
					c0,3.176,2.574,5.75,5.75,5.75c0.168,0,0.334-0.009,0.5-0.024c0.829,0.488,1.792,0.773,2.825,0.773
					c3.081,0,5.579-2.498,5.579-5.58c0-0.26-0.024-0.512-0.058-0.763l8.544-1.355l17.91-11.062l10.621-5.771l2.228-14.149
					c0,0,11.165-9.146,11.928-9.104c0.234,0.014,1.351-1.229,2.784-2.952c1.023,1.248,2.576,2.045,4.316,2.045
					c3.082,0,5.58-2.5,5.58-5.581c0-0.232-0.018-0.46-0.046-0.686c2.3-0.688,3.979-2.817,3.979-5.343
					c0-2.194-1.269-4.086-3.11-4.998c1.685-0.961,2.822-2.77,2.822-4.848c0-0.085-0.009-0.169-0.012-0.254
					C363.718,225.924,365.12,223.943,365.12,221.635z"/>
			</g>
		</g>
		<g>
			<g>
				<g>
					<polygon fill="#FFECCC" points="433.309,120.214 433.029,117.389 444.947,115.095 445.716,117.888 447.433,122.841 
						442.912,125.417 433.771,130.85 					"/>
				</g>
				<g>
					<path fill="#FFECCC" d="M429.422,163.781c-1.186,0.389-2.424,0.585-3.697,0.585c-3.529,0-6.845-1.558-9.096-4.222
						c-4.982-1.497-8.479-6.106-8.479-11.413c0-3.971,2.015-7.586,5.118-9.768c-1.166-1.872-1.819-4.052-1.819-6.29
						c0-6.168,4.71-11.257,10.722-11.858c-0.01-0.191-0.015-0.383-0.015-0.575c0-6.572,5.348-11.918,11.919-11.918
						c1.165,0,2.326,0.174,3.44,0.511c2.101-1.696,4.721-2.637,7.473-2.637c3.347,0,6.499,1.424,8.723,3.805
						c2.002-1.435,4.433-2.238,6.955-2.238c3.315,0,6.438,1.377,8.675,3.761c0.045-0.001,0.09-0.001,0.134-0.001
						c6.538,0,11.864,5.292,11.918,11.817c6.084,0.532,10.872,5.654,10.872,11.873c0,1.934-0.477,3.833-1.368,5.53
						c1.028,1.792,1.58,3.83,1.58,5.926c0,2.35-0.674,4.588-1.929,6.505c0.821,1.645,1.258,3.47,1.258,5.325
						c0,0.172-0.004,0.345-0.011,0.519c1.593,2.076,2.484,4.647,2.484,7.263c0,5.076-3.251,9.501-7.824,11.188l0.878,9.33
						L429.422,163.781z"/>
				</g>
			</g>
		</g>
		<g>
			<g>
				<g>
					<path fill="#F7E0B8" d="M436.476,120.125c-0.003-0.058-0.004-0.115-0.01-0.171l6.205-1.193
						c0.013,0.048,0.027,0.095,0.044,0.143l0.861,2.487l-2.258,1.287l-4.612,2.741L436.476,120.125z"/>
				</g>
				<g>
					<path fill="#F7E0B8" d="M429.429,160.374c-1.149,0.542-2.406,0.823-3.704,0.823c-2.95,0-5.653-1.49-7.252-3.863
						c-4.066-0.752-7.154-4.324-7.154-8.603c0-4.37,3.221-8.001,7.411-8.647c-2.49-1.569-4.112-4.354-4.112-7.411
						c0-4.824,3.924-8.749,8.748-8.749c1.062,0,2.095,0.191,3.058,0.55c-0.703-1.266-1.099-2.715-1.099-4.234
						c0-4.824,3.926-8.75,8.75-8.75c1.489,0,2.914,0.382,4.163,1.063c1.606-1.946,4.036-3.188,6.75-3.188
						c3.471,0,6.52,2.041,7.923,5.043c0.224,0.04,0.444,0.088,0.663,0.143c1.599-2.215,4.195-3.619,7.092-3.619
						c2.992,0,5.687,1.535,7.269,3.895c0.504-0.09,1.02-0.136,1.54-0.136c4.824,0,8.75,3.925,8.75,8.749
						c0,1.239-0.256,2.423-0.722,3.498c0.896-0.308,1.853-0.474,2.844-0.474c4.825,0,8.75,3.925,8.75,8.749
						c0,2.127-0.769,4.083-2.042,5.603c1.399,1.551,2.254,3.605,2.254,5.853c0,2.461-1.022,4.687-2.662,6.279
						c1.242,1.51,1.991,3.445,1.991,5.551c0,0.523-0.048,1.045-0.142,1.557c1.639,1.621,2.613,3.858,2.613,6.224
						c0,4.595-3.561,8.374-8.067,8.723l0.651,6.938L429.429,160.374z"/>
				</g>
			</g>
		</g>
		<g>
			<g>
				<path fill="#FFF5E0" d="M439.643,119.988c0.024-0.016,0.051-0.032,0.078-0.047c-0.04-0.11-0.073-0.221-0.104-0.334
					C439.63,119.731,439.636,119.86,439.643,119.988z"/>
				<path fill="#FFF5E0" d="M484.743,161.238c0.459-0.811,0.724-1.745,0.724-2.742c0-3.082-2.497-5.58-5.579-5.58
					c-0.731,0-1.431,0.142-2.069,0.397l-0.18-1.897c0.851,0.523,1.848,0.831,2.919,0.831c3.081,0,5.581-2.498,5.581-5.581
					c0-3.082-2.5-5.58-5.581-5.58c-0.084,0-0.163,0.009-0.246,0.013c0.025-0.103,0.049-0.206,0.069-0.31
					c3.064-0.019,5.546-2.508,5.546-5.579c0-3.081-2.498-5.58-5.581-5.58c-2.735,0-5.006,1.968-5.484,4.564
					c-1.192,0.007-2.292,0.395-3.196,1.04l-0.084-0.084c0.386-0.757,0.607-1.612,0.607-2.52c0-1.45-0.558-2.767-1.466-3.759
					c2.48-0.568,4.331-2.782,4.331-5.434c0-3.082-2.498-5.58-5.58-5.58c-1.229,0-2.362,0.402-3.285,1.076
					c-0.363-2.729-2.695-4.836-5.523-4.836c-2.76,0-5.045,2.005-5.493,4.635c-1.151-0.832-2.562-1.323-4.09-1.323
					c-0.189,0-0.375,0.009-0.56,0.024c-0.335-2.761-2.683-4.903-5.535-4.903c-3.082,0-5.579,2.499-5.579,5.58
					c0,0.214,0.015,0.425,0.037,0.632c-0.652-2.355-2.808-4.086-5.371-4.086c-3.082,0-5.581,2.498-5.581,5.581
					c0,2.583,1.757,4.75,4.142,5.385c-2.201,0.448-3.929,2.192-4.355,4.4c-0.942-1.747-2.789-2.933-4.914-2.933
					c-3.08,0-5.579,2.498-5.579,5.58c0,2.672,1.879,4.903,4.387,5.449c-0.015,0.172-0.026,0.345-0.026,0.522
					c0,1.182,0.37,2.277,0.999,3.179c-0.688,0.367-1.286,0.878-1.761,1.491c-0.422-0.103-0.863-0.164-1.317-0.164
					c-3.082,0-5.58,2.5-5.58,5.581c0,3.082,2.498,5.58,5.58,5.58c0.134,0,0.265-0.011,0.396-0.021
					c0.762,2.175,2.825,3.738,5.262,3.738c1.289,0,2.473-0.442,3.418-1.177l50.909,20.232l-0.565-6.025
					c0.84,0.507,1.822,0.8,2.874,0.8c3.082,0,5.579-2.498,5.579-5.58C487.939,164.05,486.632,162.133,484.743,161.238z
					 M439.643,119.988c-0.007-0.127-0.013-0.256-0.026-0.381c0.031,0.113,0.064,0.224,0.104,0.334
					C439.693,119.956,439.667,119.972,439.643,119.988z"/>
			</g>
		</g>
		<path fill="#FFECCC" d="M532.6,284.36c-2.229,0-4.354-0.6-6.215-1.744c-0.113,0.003-0.227,0.005-0.34,0.005
			c-6.572,0-11.919-5.347-11.919-11.919c0-0.973,0.12-1.945,0.356-2.887l-58.916-48.703l1.438-7.604
			c-0.671-1.017-1.18-2.127-1.511-3.297c-3.631-2.117-5.896-5.987-5.896-10.286c0-4.64,2.647-8.723,6.629-10.687
			c-0.051-0.447-0.077-0.898-0.077-1.353c0-5.572,3.964-10.399,9.274-11.62c0.914-1.179,2.044-2.177,3.321-2.941
			c0.615-5.999,5.698-10.694,11.856-10.694c0.319,0,0.64,0.012,0.957,0.039c2.241-2.644,5.557-4.217,9.09-4.217
			c1.323,0,2.651,0.227,3.904,0.661c0.981-0.257,1.993-0.387,3.021-0.387c6.153,0,11.232,4.688,11.854,10.681
			c1.784-1.026,3.832-1.589,5.96-1.589c6.573,0,11.918,5.346,11.918,11.917c0,3.52-1.539,6.791-4.102,9.014
			c0.188,0.461,0.349,0.934,0.477,1.415c0.493,0.376,0.959,0.786,1.394,1.228c0.117-0.003,0.232-0.004,0.352-0.004
			c1.992,0,3.965,0.512,5.712,1.468c1.265-0.444,2.602-0.675,3.948-0.675c2.132,0,4.239,0.586,6.07,1.671
			c0.443-0.05,0.889-0.076,1.334-0.076c5.543,0,10.22,3.732,11.544,8.939c3.139,1.826,5.31,5.026,5.834,8.622
			c3.922,2.007,6.508,6.093,6.508,10.618c0,2.939-1.13,5.799-3.095,7.979c0.071,0.507,0.105,1.021,0.105,1.539
			c0,2.37-0.76,4.669-2.13,6.551c0.21,0.887,0.315,1.798,0.315,2.724c0,2.438-0.748,4.807-2.127,6.793
			c-0.039,1.394-0.328,2.769-0.848,4.052c0.172,0.809,0.258,1.634,0.258,2.468c0,6.573-5.347,11.918-11.918,11.918
			c-0.35,0-0.697-0.015-1.044-0.045c-0.173,0.13-0.351,0.255-0.53,0.376c-0.119,0.199-0.243,0.396-0.373,0.588
			c-0.156,1.295-0.528,2.55-1.104,3.721c0.415,1.225,0.629,2.521,0.629,3.823C544.518,279.014,539.172,284.36,532.6,284.36z"/>
		<path fill="#F7E0B8" d="M532.6,281.192c-1.968,0-3.83-0.649-5.344-1.824c-0.399,0.056-0.804,0.084-1.211,0.084
			c-4.824,0-8.75-3.925-8.75-8.75c0-1.383,0.321-2.716,0.92-3.911l-59.188-48.93l1.352-7.141c-1.145-1.306-1.879-2.93-2.099-4.667
			c-3.227-1.29-5.513-4.447-5.513-8.129c0-4.313,3.137-7.906,7.249-8.62c-0.452-1.062-0.696-2.221-0.696-3.419
			c0-4.558,3.503-8.312,7.958-8.713c1.035-1.779,2.676-3.146,4.61-3.845c-0.023-0.258-0.034-0.518-0.034-0.779
			c0-4.824,3.924-8.749,8.748-8.749c0.819,0,1.624,0.115,2.395,0.336c1.494-2.69,4.363-4.514,7.652-4.514
			c1.315,0,2.604,0.299,3.776,0.86c0.997-0.388,2.059-0.587,3.149-0.587c4.824,0,8.75,3.925,8.75,8.749
			c0,0.812-0.117,1.613-0.333,2.378c0.818,0.456,1.561,1.042,2.195,1.733c1.599-2.324,4.254-3.769,7.202-3.769
			c4.825,0,8.75,3.925,8.75,8.749c0,3.568-2.093,6.635-5.179,7.996c0.998,1.229,1.658,2.723,1.878,4.327
			c1.143,0.686,2.13,1.589,2.913,2.66c0.547-0.107,1.107-0.162,1.676-0.162c1.999,0,3.901,0.693,5.421,1.893
			c1.276-0.71,2.731-1.098,4.239-1.098c1.961,0,3.84,0.663,5.354,1.841c0.669-0.163,1.357-0.246,2.051-0.246
			c4.544,0,8.287,3.48,8.71,7.915c3.284,1.26,5.621,4.447,5.621,8.171c0,0.166-0.004,0.331-0.014,0.496
			c3.687,1.029,6.399,4.417,6.399,8.429c0,2.784-1.342,5.309-3.427,6.92c0.287,0.824,0.438,1.701,0.438,2.599
			c0,2.283-0.952,4.361-2.528,5.817c0.466,1.08,0.714,2.254,0.714,3.457c0,2.138-0.778,4.17-2.151,5.745
			c0.02,0.238,0.029,0.477,0.029,0.716c0,1.451-0.361,2.846-1.044,4.082c0.296,0.886,0.449,1.819,0.449,2.77
			c0,4.824-3.925,8.749-8.749,8.749c-0.688,0-1.367-0.079-2.024-0.235c-0.555,0.586-1.206,1.082-1.925,1.465
			c-0.296,0.61-0.661,1.187-1.088,1.713c-0.047,1.682-0.601,3.29-1.549,4.632c0.647,1.233,0.995,2.619,0.995,4.058
			C541.349,277.267,537.425,281.192,532.6,281.192z"/>
		<path fill="#FFF5E0" d="M560.04,219.956c0-3.082-2.498-5.581-5.581-5.581c-0.852,0-1.658,0.198-2.382,0.54
			c0.976-1.004,1.577-2.373,1.577-3.883c0-3.081-2.497-5.58-5.579-5.58c-0.099,0-0.196,0.009-0.296,0.015
			c0.187-0.557,0.293-1.152,0.293-1.771c0-3.082-2.498-5.581-5.58-5.581c-1.042,0-2.015,0.291-2.849,0.789
			c-1.003-1.439-2.668-2.384-4.556-2.384c-1.916,0-3.604,0.97-4.601,2.446c-0.886-1.912-2.816-3.24-5.06-3.24
			c-1.187,0-2.283,0.373-3.187,1.003c-0.641-2.213-2.366-3.963-4.565-4.632c0.044-0.281,0.074-0.568,0.074-0.864
			c0-2.42-1.546-4.475-3.7-5.248c0.852-0.689,1.498-1.622,1.829-2.694c2.853-0.248,5.092-2.639,5.092-5.556
			c0-3.081-2.498-5.58-5.581-5.58c-2.509,0-4.63,1.657-5.333,3.937c-1.086,0.093-2.079,0.5-2.897,1.126l-0.027-0.001
			c-0.641-2.376-2.805-4.128-5.383-4.128c-0.313,0-0.621,0.033-0.921,0.083c1.407-1.013,2.327-2.662,2.327-4.528
			c0-3.081-2.498-5.581-5.58-5.581c-1.231,0-2.366,0.405-3.29,1.081c-0.978-0.841-2.244-1.353-3.636-1.353
			c-3.081,0-5.58,2.498-5.58,5.58c0,0.33,0.034,0.65,0.089,0.963c-1.01-1.429-2.673-2.365-4.556-2.365
			c-3.081,0-5.581,2.498-5.581,5.58c0,1.398,0.52,2.672,1.368,3.651c-0.492-0.141-1.008-0.221-1.543-0.221
			c-2.707,0-4.964,1.929-5.472,4.487c-0.42-0.101-0.855-0.16-1.306-0.16c-3.083,0-5.58,2.499-5.58,5.58
			c0,2.29,1.382,4.256,3.354,5.116l-0.908,2.519c-0.946-0.734-2.129-1.176-3.419-1.176c-3.081,0-5.58,2.499-5.58,5.581
			s2.499,5.58,5.58,5.58c0.022,0,0.042-0.003,0.063-0.003c-0.126,0.464-0.199,0.952-0.199,1.456c0,1.917,0.968,3.608,2.44,4.613
			l-1.332,7.041l60.119,49.7c-1.303,1.021-2.145,2.605-2.145,4.39c0,3.082,2.499,5.581,5.581,5.581c0.762,0,1.485-0.153,2.146-0.43
			c1.021,1.318,2.614,2.17,4.408,2.17c3.083,0,5.58-2.499,5.58-5.581c0-1.762-0.819-3.332-2.095-4.354
			c1.584-0.912,2.653-2.616,2.653-4.575c0-0.326-0.035-0.646-0.092-0.956c0.908-0.742,1.572-1.767,1.872-2.938
			c1.518-0.379,2.719-1.553,3.133-3.057c0.924,0.675,2.056,1.078,3.288,1.078c3.082,0,5.58-2.498,5.58-5.58
			c0-1.151-0.351-2.221-0.947-3.11c0.954-0.96,1.542-2.279,1.542-3.741c0-0.646-0.121-1.266-0.333-1.839
			c1.48-1.004,2.455-2.699,2.455-4.622c0-1.692-0.756-3.204-1.944-4.228l0.059-0.411c2.118-0.481,3.7-2.372,3.7-4.636
			c0-1.655-0.844-3.11-2.126-3.962C557.789,225.275,560.04,222.88,560.04,219.956z"/>
		<g>
			<g>
				<path fill="#69A05D" d="M575.895,210.137c-47.962,26.084-91.35,115.418-111.401,162.08c9.532,2.909,19.646,4.479,30.131,4.479
					c56.942,0,103.104-46.161,103.104-103.106C597.729,249.659,589.574,227.634,575.895,210.137z"/>
				<path fill="#B6D77C" d="M578.028,212.972C577.027,211.432,579.108,214.455,578.028,212.972c0.021,1.321,0.038,2.644,0.038,3.973
					c0,82.701-44.035,150.11-99.143,153.208c-0.148,1.795-0.29,3.557-0.427,5.281c5.254,0.827,10.64,1.261,16.127,1.261
					c11.431,0,22.426-1.864,32.701-5.299C569.347,349.822,588.957,282.291,578.028,212.972z"/>
				<path fill="#B6D77C" d="M571.77,286.173c0,0,0.691-25.81-9.496-31.377c-10.188-5.565-22.328-11.005-22.328-11.005
					s17.699,8.757,21.039,8.501c3.34-0.255,2.427-17.854,2.427-17.854s10.836,53.295,12.975,51.787
					C578.523,284.716,571.77,286.173,571.77,286.173z"/>
				<path fill="#B6D77C" d="M559.881,325.517c1.03-2.477-4.614-23.132-13.98-37.708c-9.364-14.574-14.157-10.217-14.157-10.217
					s4.378-6.42,14.938,9.346l-2.303-11.461l3.539,11.094c0,0,10.22-10.478,5.309-16.329c0,0,6.806,11.085-3.811,16.531
					l16.702,38.697L559.881,325.517z"/>
			</g>
			<path fill="#5A865D" d="M547.931,311.703L547.931,311.703c-6.269-18.618-13.713-35.694-22.579-51.812
				c-26.404,36.754-48.246,82.979-60.858,112.326c9.532,2.909,19.646,4.479,30.131,4.479c4.622,0,9.174-0.31,13.636-0.899
				c9.154-4.609,17.858-10.193,25.945-16.691C548.285,347.79,553.703,328.82,547.931,311.703z"/>
		</g>
		<path fill="#FFECCC" d="M305.696,370.958c-0.986-1.248-1.704-2.663-2.125-4.17c-2.902-1.266-5.218-3.66-6.375-6.617
			c-3.98-2.005-6.557-6.095-6.557-10.646c0-1.619,0.335-3.218,0.968-4.693c-1.259-1.257-2.229-2.781-2.827-4.457
			c-5.284-1.222-9.253-5.988-9.253-11.615c0-0.487,0.031-0.973,0.092-1.456c-4.582-1.664-7.867-6.066-7.867-11.207
			c0-4.945,3.028-9.197,7.327-10.998c-0.295-1.044-0.448-2.127-0.448-3.219c0-4.017,2.035-7.716,5.324-9.909
			c-0.061-0.485-0.092-0.976-0.092-1.467c0-6.12,4.639-11.178,10.585-11.843c-0.099-0.619-0.148-1.248-0.148-1.888
			c0-6.57,5.346-11.916,11.917-11.916c2.36,0,4.625,0.69,6.56,1.972c1.439-0.517,2.961-0.786,4.493-0.786
			c1.136,0,2.257,0.144,3.342,0.425c0.545-0.091,1.097-0.144,1.652-0.158c0.275-0.822,0.638-1.613,1.084-2.354
			c-1.803-2.134-2.811-4.852-2.811-7.689c0-6.197,4.756-11.306,10.811-11.866c1.917-4.134,6.123-6.927,10.82-6.927
			c0.21,0,0.42,0.005,0.63,0.017c2.242-2.69,5.584-4.294,9.155-4.294c6.39,0,11.622,5.055,11.905,11.377
			c1.1,1.583,1.8,3.407,2.041,5.312l6.544,5.568l25.221,113.312l-79.209-4.338l-10.723,9.109L305.696,370.958z"/>
		<path fill="#F7E0B8" d="M362.821,251.429c0.001-0.021,0.001-0.04,0.001-0.06c0-2.121-0.775-4.15-2.137-5.724
			c0.011-0.176,0.016-0.354,0.016-0.531c0-4.825-3.924-8.75-8.749-8.75c-3.298,0-6.175,1.834-7.667,4.536
			c-0.686-0.17-1.397-0.259-2.119-0.259c-4.208,0-7.731,2.987-8.563,6.95c-0.377-0.049-0.761-0.074-1.15-0.074
			c-4.824,0-8.749,3.925-8.749,8.748c0,2.571,1.12,4.967,3.013,6.605c0.055,0.492,0.145,0.977,0.268,1.453
			c-0.97,1.103-1.646,2.433-1.963,3.881c-0.45,0.409-0.857,0.866-1.213,1.357c-0.408-0.058-0.822-0.088-1.237-0.088
			c-0.714,0-1.417,0.086-2.1,0.255c-1.028-0.344-2.101-0.517-3.204-0.517c-1.755,0-3.459,0.459-4.955,1.297
			c-1.595-1.551-3.765-2.483-6.098-2.483c-4.824,0-8.749,3.925-8.749,8.747c0,1.272,0.275,2.51,0.789,3.636
			c-0.421,0.447-0.8,0.934-1.133,1.45c-0.442-0.069-0.892-0.103-1.344-0.103c-4.824,0-8.749,3.923-8.749,8.747
			c0,0.702,0.083,1.396,0.25,2.073c-0.102,0.425-0.172,0.855-0.213,1.288c-3.092,1.358-5.271,4.461-5.271,8.015
			c0,2.05,0.721,3.96,1.935,5.469c-0.022,0-0.042,0-0.064,0c-4.824,0-8.749,3.925-8.749,8.748c0,4.812,3.905,8.729,8.71,8.75
			c-0.6,1.19-0.934,2.524-0.934,3.913c0,4.785,3.863,8.688,8.636,8.747c0.36,2.806,2.053,5.199,4.421,6.525
			c-1.216,1.503-1.945,3.415-1.945,5.493c0,3.854,2.503,7.132,5.968,8.297c0.751,3.247,3.313,5.809,6.562,6.555
			c0.157,1.734,0.823,3.323,1.845,4.617l9.182-7.8l76.294,4.179l-24.08-108.195L362.821,251.429z"/>
		<path fill="#FFECCC" d="M442.224,213.773l-63.722-52.755l5.541-4.085c0-0.058,0-0.115,0-0.172c0-6.063,4.552-11.084,10.417-11.823
			c0.217-0.274,0.446-0.539,0.687-0.792c0.723-3.524,3.04-6.575,6.242-8.229c2.03-3.909,6.038-6.367,10.561-6.367
			c5.223,0,9.822,3.476,11.365,8.337c1.774,0.928,3.282,2.291,4.389,3.935c1.541-0.703,3.226-1.08,4.935-1.08
			c2.296,0,4.53,0.667,6.446,1.904c0.554-0.125,1.116-0.214,1.683-0.264c2.151-1.888,4.942-2.948,7.854-2.948
			c4.942,0,9.307,3.031,11.083,7.533c2.725,1.59,4.756,4.238,5.567,7.288c0.235,0.266,0.462,0.541,0.678,0.824
			c3.575,0.602,6.706,2.819,8.468,6.019c2.403,1.294,4.313,3.353,5.434,5.827c5.467,1.083,9.598,5.914,9.598,11.69
			c0,2.98-1.113,5.836-3.095,8.014c-0.771,4.56-4.114,8.241-8.536,9.47l-0.856,1.883l-4.062,15.792H442.224z"/>
		<path fill="#F7E0B8" d="M443.364,210.605l-59.72-49.442l3.726-2.746c-0.105-0.544-0.16-1.099-0.16-1.656
			c0-4.824,3.925-8.749,8.75-8.749c0.084,0,0.166,0.002,0.25,0.004c0.482-0.879,1.128-1.667,1.903-2.314
			c0.314-3.366,2.575-6.229,5.665-7.386c1.264-3.312,4.446-5.598,8.17-5.598c4.381,0,8.019,3.236,8.649,7.443
			c2.884,0.973,5.098,3.406,5.759,6.416c1.606-1.655,3.85-2.667,6.28-2.667c2.176,0,4.243,0.824,5.823,2.232
			c1.079-0.42,2.236-0.641,3.414-0.641c0.078,0,0.157,0.001,0.235,0.003c1.63-1.83,3.967-2.902,6.51-2.902
			c4.082,0,7.521,2.812,8.48,6.599c2.729,1.144,4.754,3.632,5.268,6.593c0.692,0.683,1.297,1.455,1.794,2.29
			c3.501,0.074,6.579,2.262,7.889,5.395c2.727,1.12,4.783,3.521,5.473,6.387c0.002,0,0.004,0,0.007,0
			c4.824,0,8.748,3.924,8.748,8.749c0,2.546-1.091,4.908-2.943,6.544c-0.259,4.24-3.552,7.674-7.729,8.152l-1.646,3.611
			l-3.517,13.684H443.364z"/>
		<path fill="#FFF5E0" d="M483.108,178.614c0-3.082-2.498-5.58-5.579-5.58c-1.255,0-2.409,0.419-3.34,1.118
			c0.263-0.677,0.413-1.41,0.413-2.179c0-3.013-2.218-5.5-5.108-5.938c-0.386-2.704-2.705-4.784-5.518-4.784
			c-0.605,0-1.189,0.1-1.735,0.279c-0.504-1.692-1.542-3.154-2.92-4.187c0-0.023,0.004-0.047,0.004-0.071
			c0-2.935-2.269-5.335-5.146-5.558c0.009-0.12,0.02-0.241,0.02-0.364c0-3.082-2.498-5.58-5.579-5.58
			c-2.208,0-4.111,1.285-5.016,3.146c-0.551-0.157-1.129-0.247-1.729-0.247c-1.614,0-3.081,0.613-4.194,1.612
			c-0.894-1.893-2.812-3.205-5.043-3.205c-2.701,0-4.955,1.92-5.468,4.47c-0.892-1.239-2.259-2.107-3.836-2.338
			c0.033-0.248,0.057-0.499,0.057-0.756c0-3.082-2.497-5.58-5.58-5.58c-0.161,0-0.318,0.011-0.474,0.024
			c0.12-0.458,0.19-0.936,0.19-1.432c0-3.082-2.497-5.58-5.578-5.58c-2.909,0-5.295,2.225-5.556,5.064
			c-2.88,0.221-5.148,2.622-5.148,5.559c0,0.306,0.031,0.604,0.079,0.896c-1.691,0.731-2.882,2.39-2.938,4.336
			c-0.735-0.356-1.555-0.561-2.426-0.561c-3.082,0-5.581,2.498-5.581,5.58c0,1.027,0.282,1.984,0.766,2.811l-2.355,1.737
			l55.717,46.128h23.478l2.976-11.574l2.624-5.761c0.331,0.061,0.672,0.097,1.02,0.097c3.083,0,5.58-2.498,5.58-5.58
			c0-0.358-0.036-0.706-0.101-1.046C481.879,182.646,483.108,180.775,483.108,178.614z"/>
		<path fill="#FFF5E0" d="M391.518,370.329l-24.801-111.426l-7.241-6.16c0.111-0.44,0.177-0.898,0.177-1.374
			c0-1.891-0.943-3.559-2.382-4.568c0.169-0.531,0.261-1.1,0.261-1.687c0-3.083-2.498-5.581-5.58-5.581s-5.58,2.498-5.58,5.581
			c0,0.224,0.017,0.445,0.043,0.663c-1.023-1.203-2.545-1.967-4.248-1.967c-3.082,0-5.58,2.497-5.58,5.579
			c0,1.727,0.785,3.27,2.016,4.294c-0.445-0.176-0.917-0.297-1.411-0.354c-0.984-1.584-2.735-2.644-4.739-2.644
			c-3.082,0-5.58,2.498-5.58,5.579c0,2.138,1.203,3.992,2.967,4.931c-0.012,0.167-0.02,0.337-0.02,0.511
			c0,1.297,0.341,2.515,0.935,3.569c-1.609,0.939-2.703,2.658-2.766,4.642c-1.264,0.778-2.197,2.041-2.541,3.532
			c-0.841-0.509-1.824-0.807-2.877-0.807c-0.788,0-1.536,0.165-2.216,0.46c-0.931-0.46-1.979-0.723-3.088-0.723
			c-2.34,0-4.409,1.155-5.674,2.924c-0.646-2.368-2.806-4.11-5.377-4.11c-3.082,0-5.58,2.499-5.58,5.579
			c0,1.724,0.781,3.262,2.007,4.285c-1.903,0.921-3.326,2.674-3.802,4.783c-0.879-0.578-1.93-0.917-3.062-0.917
			c-3.082,0-5.58,2.5-5.58,5.579c0,0.729,0.143,1.422,0.396,2.059c-0.252,0.663-0.396,1.379-0.396,2.13
			c0,0.561,0.082,1.1,0.226,1.613c-3.025,0.065-5.459,2.533-5.459,5.574c0,2.825,2.102,5.153,4.826,5.522
			c-0.644,0.773-0.975,1.716-0.999,2.667c-0.833,0.257-1.579,0.703-2.195,1.285c-0.853-0.528-1.854-0.836-2.931-0.836
			c-3.082,0-5.58,2.497-5.58,5.578c0,3.082,2.499,5.581,5.58,5.581c1.485,0,2.831-0.584,3.831-1.53
			c0.542,0.335,1.143,0.586,1.787,0.719c0.005,0.912,0.223,1.771,0.601,2.537c-2.323,0.675-4.022,2.815-4.022,5.356
			c0,3.082,2.498,5.58,5.58,5.58c1.917,0,3.606-0.968,4.611-2.438l0.269,0.305c-1.16,1.023-1.896,2.517-1.896,4.182
			c0,3.083,2.498,5.581,5.58,5.581c1.614,0,3.063-0.688,4.082-1.784l0.332,0.308c-0.775,0.958-1.251,2.165-1.295,3.483
			c-0.188-0.02-0.378-0.03-0.571-0.03c-3.083,0-5.581,2.5-5.581,5.58c0,3.083,2.498,5.581,5.581,5.581
			c0.075,0,0.147-0.009,0.221-0.012c-0.034,0.248-0.057,0.499-0.057,0.757c0,3.082,2.498,5.58,5.58,5.58
			c0.606,0,1.188-0.1,1.734-0.278c-0.357,0.734-0.563,1.559-0.563,2.432c0,3.082,2.498,5.579,5.58,5.579
			c2.046,0,3.83-1.103,4.8-2.744l0.509,0.425c-1.046,1.014-1.699,2.433-1.699,4.004c0,3.081,2.498,5.579,5.58,5.579
			c1.331,0,2.546-0.472,3.504-1.251c0.25-0.202,0.486-0.422,0.699-0.665c0,0,0.022,0.756-0.085,1.006
			c10.984,6.007,32.062,12.787,58.688-1.504c-0.221-0.609-0.543-1.17-0.947-1.661L391.518,370.329z"/>
		<path fill="#FFECCC" d="M386.352,347.119c-37.748,11.008-67.58,9.196-89.235,3.636c0.561,2.49,2.781,4.352,5.44,4.352
			c0.075,0,0.147-0.009,0.221-0.012c-0.034,0.248-0.057,0.499-0.057,0.757c0,3.082,2.498,5.58,5.58,5.58
			c0.606,0,1.188-0.1,1.734-0.278c-0.357,0.734-0.563,1.559-0.563,2.432c0,3.082,2.498,5.579,5.58,5.579
			c2.046,0,3.83-1.103,4.8-2.744l0.509,0.425c-1.046,1.014-1.699,2.433-1.699,4.004c0,3.081,2.498,5.579,5.58,5.579
			c1.331,0,2.546-0.472,3.504-1.251c0.25-0.202,0.486-0.422,0.699-0.665c0,0,0.022,0.756-0.085,1.006
			c10.984,6.007,32.062,12.787,58.688-1.504c-0.221-0.609-0.543-1.17-0.947-1.661l5.418-2.023L386.352,347.119z"/>
		<g>
			<path fill="#69A05D" d="M513.289,357.676c-27.144,21.812-61.225,33.304-96.033,32.381c-18.057-0.479-33.854-12.296-39.625-29.412
				c-1.005-2.979-2.009-5.957-3.014-8.938c-11.559-34.271-16.852-66.938-16.756-101.868c0.113-34.68,5.616-71.624,16.043-108.651
				c0.568-1.995,1.136-3.993,1.702-5.992c1.139-4.023,5.537-5.645,8.982-3.304c0.434,0.295,0.868,0.589,1.302,0.885
				c34.182,23.452,64.319,51.042,87.844,80.149c23.714,29.406,40.814,60.329,53.282,97.35l0,0
				C532.787,327.393,527.369,346.362,513.289,357.676z"/>
			<g>
				<path fill="#B6D77C" d="M459.325,385.061c0,0,39.079-18.258-33.089-124.602c-72.167-106.343-44.125-127.742-44.125-127.742
					s-24.414,26.606,47.924,123.822c0,0,77.979,88.288,52.467,120.156L459.325,385.061z"/>
				<path fill="#B6D77C" d="M414.487,234.566c0,0,24.191-9.027,25.535-20.559c1.342-11.532,1.838-24.826,1.838-24.826
					s-1.488,19.69,0,22.693c1.489,3.001,17.465-4.438,17.465-4.438s-45.355,30.012-43.155,31.429
					C418.369,240.283,414.487,234.566,414.487,234.566z"/>
				<path fill="#B6D77C" d="M432.188,265.468c-2.18,0.623-31.458,18.848-50.077,5.456c-18.619-13.393-21.099-7.936-21.099-7.936
					s10.168,0,20.088,8.927c0,0-6.527,15.129-12.812,18.104c0,0,11.114-4.71,13.822-15.376c0,0,30.734,9.673,50.077-6.199V265.468z"
					/>
				<path fill="#B6D77C" d="M452.441,289.072c2.634-0.519,16.699-16.661,23.645-32.533c6.942-15.872,0.66-17.448,0.66-17.448
					s7.771,0.089,0.496,17.613l8.267-8.267l-7.275,9.094c0,0,14.384,2.702,16.534-4.63c0,0-5.456,11.809-15.872,5.986
					l-22.959,35.349L452.441,289.072z"/>
				<path fill="#B6D77C" d="M404.096,224.14c0,0-16.901-9.001-23.967-4.081c-7.066,4.92-14.695,11.176-14.695,11.176
					s11.67-8.849,12.605-11.149c0.936-2.301-11.046-7.521-11.046-7.521s38.957,10.448,38.663,8.529
					C405.363,219.175,404.096,224.14,404.096,224.14z"/>
				<path fill="#B6D77C" d="M467.186,333.181c-2.63-1.753-28.035,0.229-47.277,7.91c-19.246,7.683-15.353,14.25-15.353,14.25
					s-6.395-6.544,14.527-15.353l-13.894,0.129l13.771-1.657c0,0-9.685-14.269-17.692-9.837c0,0,14.558-5.474,18.291,8.136
					l49.098-10.867L467.186,333.181z"/>
				<path fill="#B6D77C" d="M476.608,343.265c0,0,24.19-9.027,25.532-20.56c1.344-11.532,1.84-24.826,1.84-24.826
					s-1.487,19.693,0,22.694c1.488,3.001,17.464-4.44,17.464-4.44s-45.354,30.013-43.155,31.431
					C480.49,348.98,476.608,343.265,476.608,343.265z"/>
			</g>
		</g>
		<g>
			<path fill="#69A05D" d="M243.438,205.148c0-28.881,5.895-56.386,16.545-81.377c1.57-3.685-2.663-7.116-5.935-4.807
				c-39.271,27.708-64.922,73.432-64.922,125.148c0,48.354,22.424,91.472,57.44,119.519c23.46,18.792,55.539,22.864,82.877,10.372
				c0.138-0.062,0.276-0.126,0.413-0.188C277.513,336.088,243.438,274.599,243.438,205.148z"/>
			<g>
				<path fill="#B6D77C" d="M282.55,361.473c-40.168-19.985-71.226-57.364-81.48-104.62c-6.211-28.626-3.972-57.118,5.043-82.878
					c-10.854,21.012-16.987,44.856-16.987,70.138c0,48.354,22.424,91.472,57.44,119.519c23.46,18.792,55.539,22.864,82.877,10.372
					c0.138-0.062,0.275-0.126,0.413-0.188c-1.901-1.371-3.776-2.776-5.628-4.21C310.116,370.685,295.7,368.015,282.55,361.473z"/>
				<path fill="#B6D77C" d="M193.837,229.844c2.632-0.517,16.699-16.66,23.643-32.533c6.944-15.872,0.661-17.448,0.661-17.448
					s7.771,0.088,0.496,17.613l8.267-8.267l-7.274,9.094c0,0,14.384,2.703,16.533-4.63c0,0-5.456,11.808-15.872,5.986
					l-22.958,35.347L193.837,229.844z"/>
				<path fill="#B6D77C" d="M209.513,293.924c0,0,21.697-13.997,20.54-25.549c-1.156-11.553-3.518-24.644-3.518-24.644
					s2.762,19.553,4.858,22.166c2.096,2.614,16.109-8.075,16.109-8.075s-37.877,39.027-35.425,39.94
					C214.529,298.676,209.513,293.924,209.513,293.924z"/>
				<path fill="#B6D77C" d="M249.128,346.572c0,0,16.816-9.162,16.594-17.77c-0.221-8.607-1.25-18.419-1.25-18.419
					s0.97,14.612,2.377,16.661c1.406,2.048,12.357-5.089,12.357-5.089s-30.156,26.785-28.393,27.596
					S249.128,346.572,249.128,346.572z"/>
			</g>
		</g>
	</g>
</g>
</svg>
