<svg xmlns="http://www.w3.org/2000/svg" viewBox="0 0 768 430"><style>.a{fill:#DDF2F2;}.b{fill:#6EB8B6;}.c{fill:#568F8E;}.d{fill:#6FAF54;}</style><path d="M408.5 110c-1.1 2.6-0.2 7.3-0.2 10.2 -0.8-1.7-2.1-2.8-4-3.1 0 0.6 3.9 12.6 3.3 12.1 -0.6-0.4-2.9-7.9-3.4-7.1 -1.5 2.9-0.9 0-3.5 0 1.2 0 2.8 15.2 2.3 15 0.5 0.2-9.5-2.2-8.5-2.7 2-0.9 2.2 14.5 1 13.2 2.3 2.3 5.8-0.1 8 0.1 -1.1-0.8 4.8 6 5.2 5.5 -1.6 1.9-13-1.4-13-1.5 0.7 0.9 1.6 1.7 2.6 2.3 -6.9-2.7-8.1-5.8-14-1.4 -2.7 2 7.2 2.6 6.9 2.5 -1.2 0.6-2 1.5-2.5 2.8 2.1-0.1 3.9-0.7 5.4-2 -0.6-0.2-2.4 4.4-0.6 5.2 0.4 0.2 5.8-2.6 5.8-3.4 -1.1 1.2-2.2 2.5-3.3 3.8 0 0.8 13.6-0.7 12.7-4.6 3.1 13.2-23.5 4.4-23.5 9.8 0 1.6 8.5 7.3 7.7 8.3 -0.7 0.8-13.8 3.5-13.8 4 0 4.4 17.5 11.2 19.1 11.8 -1.6 0.1-16.1 2.9-17.9 4.5 -2.6 2.3 10 9.2 8.7 9.8 3.1-1.3-12.7 0.7-9.7 2 1.6 0.7 15 4.3 13.6 3.5 5 3.1-18.9 12.8-18.9 11.7 0 11.3 21.7 4.1 21.2 4.1 -0.5 0 2.5 1.8 2.7 1.2 -0.1 0.3-10.7 5.5-10.7 4.6 1.2 1.4 2.7 2.3 4.4 2.5 0.4 2.9-22.3 1.1-22.3 3.7 0 0.7 0.7 3.8 0.7 5.3 4.3 0.6 21.7 8.5 23.1 7.7 -3.4 1.8-23.8 0.5-24.6 1.4 -1.3 1.5 5.7 3.4 6.2 3.7 -1.3-0.2-2.5 0.1-3.5 1 0 4.2 11.6 4 12.8 4 -0.4-1.1 0.7 9.8 2.5 3.1 -2.3 8.9-23.8 2.8-25.9 6.8 -0.6 1.3 11.1 8.6 11.4 9 0.5 1 0.6 2 0.4 3 -0.3-0.6-7.2 1.7-6.1 2.8 1.7 0.5 3.5 0.5 5.2 0 -1.5 0.6-2.5 1.7-3.2 3.1 0.2 0.8 10.4 2.8 9.7 3.7 -4.7 0.5-9.5 0.9-14.2 1.1 0-1.7-0.3 8.9-2.7 4.4 3.6 7 12.5 0 12.5 7.6 0-4.6 6.1-2.6 7.1-3.2 -2 0.3-23.7 6.4-20.7 11.4 0.1 0.1 14.5 5.8 18.3 3.1 -2.6 0.6-4.8 1.8-6.8 3.5 4.4 8.6 1.7-6.7 1.7 3.2 0 6 37.9 1 33.4-8.1 0.8 0.5 1.5 1 2.2 1.6 0.7 4.5-1.1 9.3-2.6 13.5 3.9 0 7.8 0 11.7 0 1.5-1.4-3.2-9.6-0.7-10.5 1.6-0.7 34.1 11.7 29.8 1.4 1.1 2.5 6.9 2.9 9.2 3.4 -0.9-0.2 1.8-3.3 4.9-3.2 -4.3-0.1 5.7-5.3 3.2-3.1 -1.1 1-10.9-4.4-11.5-4.7 4 1.8 6.5-12.3 10.6-8.4 -5.8-5.6 1.2 2.3 1.2-2.5 -2.1-0.6-4.3-1.1-6.4-1.7 2.6-0.8 5-2.1 7.1-3.8 11.6 14-15.2-4-5-2.1 -6.7-1.3-19.9 6.4-24.9-4.9 0-0.1 6.5 3.2 6.2 3.1 -1.8 0.8 11.6-7.5 11.6-1.6 0-9.7 6.5 0.5 9.2-5.3 -1.4-0.7-2.5-1.7-3.1-3.1 2.9 1.6 4.8 1.3 5.6-1.1 -4.6-3.6-3.1 1.8-2-2.2 -0.8 2.7-26.9-5.8-27.8-6.8 3.1 3.3 23.2-2.6 28.7-6.3 -3.6 2.4 3-7.4 2.4-6.5 -1.3 1.9-19.6-1.4-20.3-3.6 -0.9-2.7 8.4-0.9 8-0.8 0.9-1-4.3-1.6 2.4-2.6 -1.1-0.6-2.2-1.3-3.3-1.9 1.8-1.4 5.3-1.3 6.7-4 -0.5 0.9-18.6-2.9-19.4-3.9 6.9 8.7 22.9-21.4 0.8-11 2.8-1.3 4.6-2.4 5.6-5.8 -0.4 1.4-13.5 0-14.3-0.4 2.9 1.7 4.6-6.7 4.5-6.6 1.7-0.6 9.2-5.2 10.6-5.2 -1.9 0-6.1-2.1-9.7-2.2 1.7 0.9-10.5-7.5-14-7.5 9.6 0 13.7 3.2 21-8.4 -9.9-2.5-19.2-0.9-27.4-8.3 7 6.3 12.9-3.7 16.3-6.3 2.1-1.6 4.3 1.4 7.9-3.2 -5.3 0.2-20.9 0.7-23.3-4.5 0.3 0.7 13.1-0.2 13.1 0 -1-1-1.8-2.2-2.2-3.5 4.3-0.1 5.5 1.8 9.1-2.6 -0.8 0.9-34-8.1-26.6-13.7 -6.5 4.9 11.9 3.2 8.4 3.2 0.5 0 2.4 5.3 3.8 4.2 0 0 7.5-5.4 7.5-4.3 0-2.9-12.2-8.1-12.2-5.6 0-0.1 1.9-10.7 0.5-7.5 1.3-3 8.9-8.8 4.2-14.4 -2.8-3.4-11.2 13-12.8 11.8 -8.6-6.4 6.6-12.5 6.6-11 -0.7-2.1-2-3.2-3.9-3.3 1.3-1.6 3.2-2 5.6-1.1 -0.1 0.5-6.4-5.8-0.8-5.8 -18.8 0 1 4.6-4.6 0.3 0 0-3.2 5-3.7 5.8 0.2-0.4 4.1-10.2 4.1-11.4C414.7 121.1 408.6 110.1 408.5 110zM405.4 130c2.1 0.1 3.2 7 2.5 7C407.3 137 405.9 130.1 405.4 130zM404.2 138.4C413.6 139.2 403.2 138.3 404.2 138.4 405.1 138.4 404.1 138.4 404.2 138.4zM417.1 143c0.8 0-3.5 5.4-5.3 5.4C410.7 148.4 416.3 143 417.1 143zM411.6 151.1C416.8 153.4 416.3 153.2 411.6 151.1L411.6 151.1zM416.8 152.6C420 153.1 417.1 152.6 416.8 152.6 416.9 152.6 416.6 152.5 416.8 152.6zM423.8 154.6C425.8 154.6 421.3 154.6 423.8 154.6 424.2 154.6 423.4 154.6 423.8 154.6zM412.8 163.7C414.4 163.7 411 163.7 412.8 163.7 413 163.7 412.8 163.7 412.8 163.7zM409.2 171.3C410 171.2 407.8 171.6 409.2 171.3 409.4 171.3 409.1 171.3 409.2 171.3zM413 172.5C413.3 172.5 412.4 172.6 413 172.5 413 172.5 412.9 172.5 413 172.5zM407.1 172.8C408.8 172.8 405.4 172.8 407.1 172.8 407.4 172.8 406.9 172.8 407.1 172.8zM404.8 174C406.5 174 403 174 404.8 174 405 174 404.5 174 404.8 174zM395 174c-0.2 0 8.4 2.3 8.4 1.1C403.4 181.8 392.1 173.7 395 174zM438.1 204.1C440 204.1 436.9 204.1 438.1 204.1 438.4 204.1 438.1 204.1 438.1 204.1zM398.8 211C397.7 211 389.6 211 398.8 211 399.1 211 398.1 211 398.8 211zM439.4 235.3C444.3 235.2 433.5 235.3 439.4 235.3 440 235.3 438.6 235.3 439.4 235.3zM450 238.3C451.7 238.3 448.5 238.4 450 238.3 450.1 238.3 450 238.3 450 238.3zM450.1 252.5C452.1 251.7 450.3 252.4 450.1 252.5 450.1 252.5 449.9 252.6 450.1 252.5zM368.1 275.5C368.3 275.5 366.6 275.8 368.1 275.5 368.4 275.5 368.1 275.5 368.1 275.5zM375.7 280.4c2.9 1.3 4.8 2.3 9.5 1.7C376.7 285.9 377 280.9 375.7 280.4zM386.7 281C388 281 384.1 281 386.7 281 386.8 281 386.4 281 386.7 281zM381.9 304.5C382.7 304.3 380.5 304.8 381.9 304.5 382.1 304.4 381.8 304.5 381.9 304.5z" class="a"/><path d="M368.2 91.9c-1 3.3-0.2 7.6-0.2 11.1 -0.7-1.8-2.1-2.9-4-3.3 0 0.9 3.7 13.4 3.3 13.1 -0.6-0.5-3-8.4-3.4-7.7 -1.6 3.2-0.8 0-3.5 0 1.2 0 2.7 16.4 2.3 16.2 0.7 0.3-9.8-2.2-8.5-2.9 2-1 2.1 15.5 1 14.3 2.3 2.5 5.8-0.2 8 0.1 2.7 2.1-1.6 3.5 4.4 2.1 0.6 1.2 0.8 2.5 0.8 3.8 -1.6 2.1-13-1.5-13-1.6 0.7 1 1.5 1.8 2.6 2.5 -7-3-8.1-6.3-14-1.5 -2.8 2.3 7.2 2.9 6.9 2.7 -1.2 0.6-2.1 1.6-2.5 3 2.1-0.1 3.9-0.8 5.4-2.2 -0.5-0.2-2.4 4.7-0.6 5.6 0.4 0.2 5.9-2.8 5.9-3.7 -1.1 1.3-2.2 2.7-3.3 4.1 0 0.8 13.6-0.9 12.7-5 3.1 14.3-23.5 4.7-23.5 10.6 0 2.8 9.3 7 7.7 9 -0.6 0.8-13.8 3.8-13.8 4.3 0 4.8 17.5 12.2 19.1 12.7 -1.3 0.1-16.4 3.4-17.9 4.9 -2.8 2.6 10.3 9.8 8.7 10.6 1.2-0.6-8.6 0.6-9.2 0.5 -7.8-1.4 19.7 9.9 13.1 5.4 5.5 3.7-18.9 13.4-18.9 12.6 0 12.2 21.9 4.5 21.2 4.5 -0.6 0 2.5 1.9 2.7 1.2 -0.1 0.4-10.7 5.9-10.7 5 1.1 1.5 2.6 2.4 4.4 2.6 0.4 3.2-22.3 1.1-22.3 4 0 0.5 0.7 4.5 0.7 5.8 4.4 0.4 22 8.9 23.1 8.3 -2.9 1.7-24.4 1.3-24.6 1.6 -1.3 1.7 5.6 3.6 6.2 4 -1.3-0.2-2.5 0.1-3.5 1.1 0 4.6 11.6 4.3 12.8 4.3 -0.4-1 0.9 10.1 2.5 3.4 -2.2 9.3-23.9 3.2-25.9 7.4 -0.7 1.4 11.3 9.5 11.4 9.7 0.5 1.1 0.6 2.2 0.4 3.3 -0.2-0.5-7.4 1.6-6.1 3 1.7 0.5 3.5 0.5 5.2 0 -1.5 0.7-2.6 1.8-3.2 3.4 0.2 0.8 10.4 3 9.7 4 -4.7 0.5-9.5 0.9-14.2 1.2 0-1.5-0.6 9-2.7 4.7 3.5 7.4 12.5 0.2 12.5 8.2 0-5.1 6-2.8 7.1-3.5 -2.2 0.3-23.8 6.8-20.7 12.3 0-0.1 14.5 6.3 18.3 3.3 -2.6 0.7-4.9 1.9-6.8 3.7 3.8 8.1 1.7-6.6 1.7 3.5 0 5.9 38.2 1.9 33.4-8.8 0.8 0.5 1.5 1.1 2.2 1.8 0.7 4.9-1.1 10-2.6 14.6 3.9 0 7.8 0 11.7 0 1.6-1.6-3.3-10.3-0.7-11.4 0.8-0.3 24.9 6.8 26.7 7.4 2.2-1.3 4.4-2.4 3.1-5.9 1.1 2.7 6.8 3.2 9.2 3.6 -1.2-0.2 1.9-3.6 4.9-3.5 -4.3-0.1 5.5-5.6 3.2-3.3 -1 1-10.9-4.8-11.5-5.1 3.7 1.8 6.8-13 10.6-9.1 -5.7-5.9 1.2 2.3 1.2-2.7 -2.1-0.6-4.3-1.2-6.4-1.9 2.6-0.9 5-2.3 7.1-4.2 11 14.3-15.3-4.3-5-2.2 -6.8-1.4-19.9 6.8-24.9-5.3 -0.1-0.1 6.6 3.5 6.2 3.4 -1.9 0.9 11.6-8.1 11.6-1.7 0-10 6.8 0 9.2-5.7 -1.5-0.8-2.5-1.9-3.1-3.3 3 1.7 4.8 1.3 5.6-1.2 -4.5-3.9-3.1 1.9-2-2.4 -1.2 4.6-28.9-9.5-27.6-9 14.5 6 25.5-3.8 31-12.1 -1.3 2-19.7-1.6-20.3-3.9 -0.9-3 8.3-1 8-0.9 1.1-1.3-4.5-1.7 2.4-2.8 -1.1-0.7-2.2-1.4-3.3-2.1 2.1-1.2 5.4-1.5 6.7-4.4 -0.4 0.8-18.6-3.1-19.4-4.2 6.7 9.2 22.9-23.1 0.8-11.9 2.7-1.3 4.6-2.7 5.6-6.2 -0.9 3-14.8-1.5-14.8-1.5 7.6-0.3 3-3.6 5.1-6 0.6-0.2 12.7-3.2 10.5-6.6 -2.5-3.9-6.2-1.3-9.6-1.4 2.4 1.4 0.9-5.9-0.3-4.4 -6.8 8.2-11.3-3.6-13.7-3.6 9.7 0 13.8 3.4 21-9 -9.9-2.7-19.4-1.2-27.4-8.9 7 6.8 12.8-4 16.3-6.8 1.9-1.5 4.4 1.5 7.9-3.4 -5.4 0.2-21 0.7-23.3-4.9 0.3 0.7 13.1-0.1 13.1 0 -1-1.1-1.8-2.4-2.2-3.8 4.3-0.1 5.5 1.9 9.1-2.8 -0.2 0.3-35-8-26.6-14.8 -1 0.8 2.1 7.4 3.1 6.4 5.6-6.1-6.9 0.7 3.8 0.7 1.2 0 0-3.7 1.6-3.7 0.4 0 2.5 5.6 3.8 4.6 0 0 7.5-5.8 7.5-4.6 0-3.1-12.2-8.7-12.2-6 0-0.4 1.6-10.9 0.5-8.1 1.4-3.3 8.8-9.6 4.2-15.5 -2.5-3.3-11.6 13.7-12.8 12.8 -8.7-7 6.6-13.2 6.6-11.9 -0.7-2.2-2-3.4-3.9-3.6 1.3-1.7 3.2-2.1 5.6-1.2 -0.1 0.4-6.4-6.3-0.8-6.3 -18.2 0 1.1 4.9-4.6 0.3 0 0-3.1 5.4-3.7 6.3 0.4-0.7 4.1-10.7 4.1-12.3C374.4 103.4 368.3 92.1 368.2 91.9zM365.1 113.4c2.2 0.2 3.2 7.5 2.5 7.5C367 121 365.6 113.5 365.1 113.4 365.3 113.4 365 113.4 365.1 113.4zM363.9 122.4C373.6 123.4 362.7 122.3 363.9 122.4 364.8 122.5 363.9 122.4 363.9 122.4zM376.8 127.5c0.9 0-3.5 5.8-5.3 5.8C370.4 133.3 376.1 127.5 376.8 127.5zM371.3 136.3C376.5 138.7 376 138.5 371.3 136.3L371.3 136.3zM376.5 137.8C379.8 138.4 376.9 137.9 376.5 137.8 376.6 137.8 376.5 137.8 376.5 137.8zM383.6 140C385.5 140 381 140 383.6 140 384 140 383.6 140 383.6 140zM372.5 149.9C374.1 149.9 370.7 149.9 372.5 149.9 372.7 149.9 372.5 149.9 372.5 149.9zM368.9 158.1C369.6 157.9 367.4 158.4 368.9 158.1 369.1 158 368.8 158.1 368.9 158.1zM372.7 159.4C373.6 159.3 371.6 159.5 372.7 159.4 372.7 159.4 372.7 159.4 372.7 159.4zM366.8 159.7C368.5 159.7 365.1 159.7 366.8 159.7 367.1 159.7 366.8 159.7 366.8 159.7zM364.5 160.9C366.2 160.9 362.7 160.9 364.5 160.9 364.7 160.9 364.2 160.9 364.5 160.9zM354.7 160.9c-0.1 0 8.4 2.5 8.4 1.2C363.1 169.3 351.8 160.6 354.7 160.9zM397.9 193.5C399.7 193.5 396.6 193.5 397.9 193.5 398.1 193.5 397.6 193.5 397.9 193.5zM358.5 200.9C357.5 200.9 349.2 200.9 358.5 200.9 358.8 200.9 357.8 200.9 358.5 200.9zM399.1 227.1C404 227.1 393.2 227.2 399.1 227.1 399.7 227.1 399.1 227.1 399.1 227.1zM409.7 230.4C411.4 230.4 408.3 230.5 409.7 230.4 409.8 230.4 409.5 230.4 409.7 230.4zM409.8 245.7C412 244.9 409.8 245.7 409.8 245.7 409.8 245.7 409.6 245.8 409.8 245.7zM327.9 270.6C328.1 270.5 326.1 271 327.9 270.6 328.1 270.5 327.9 270.6 327.9 270.6zM335.5 275.9c2.9 1.4 4.6 2.4 9.5 1.8C336 281.9 337 276.6 335.5 275.9zM346.4 276.5C347.7 276.5 343.8 276.6 346.4 276.5 346.5 276.5 346.4 276.5 346.4 276.5zM341.6 301.9C342.4 301.7 340.2 302.2 341.6 301.9 341.8 301.8 341.6 301.9 341.6 301.9z" class="b"/><path d="M456.4 65.4c-1 3.7-0.2 8.4-0.2 12.3 -0.7-2-2-3.2-4-3.7 0 1.3 3.4 14.6 3.3 14.5 -2-1.8-1-6.5-2.1-8.5 1.1 1.9-4.2 0-4.7 0 1.2 0 4 21.2 0.1 19.6 -2-1.8-4.1-3.4-6.3-4.8 1.9-1.1 1.9 17 1 15.9 2.2 2.7 5.9-0.2 8 0.1 3.1 2.7-1.9 4.1 4.4 2.3 0.2-0.2-12.1 10.7-12.1 2.4 0.7 1.1 1.5 2 2.6 2.7 -7.4-3-7.8-7.2-14-1.7 -3.1 2.8 7.2 3.2 6.9 2.9 -1.3 0.8-2.1 1.9-2.5 3.3 2.2-0.1 4-0.9 5.4-2.4 -0.4-0.1-2.4 5.2-0.6 6.2 0.4 0.2 5.8-3.2 5.8-4.1 -1.1 1.5-2.2 3-3.3 4.5 0 0.9 13.5-1.1 12.7-5.5 3.1 15.8-23.5 5.2-23.5 11.7 0 3.1 9.4 7.7 7.7 10 -0.5 0.7-13.8 4.4-13.8 4.8 0 5.3 17.6 13.6 19.1 14.1 -0.8 0.1-16.8 4.2-17.9 5.4 -2.9 3.1 10.5 10.8 8.7 11.7 1.4-0.8-8.8 0.6-9.2 0.5 -8.6-1.7 20.6 11.6 13.1 6 6.2 4.6-18.9 14.2-18.9 14 0 10.8 15 6 16.6 5.5 0.3 1.1 0.6 2.2 0.8 3.3 0.4-0.3 3.6-3.8 3.8-3.8 -0.7 0 2.5 2.1 2.7 1.4 -0.1 0.5-10.7 6.4-10.7 5.5 1.1 1.7 2.6 2.7 4.4 2.9 0.4 3.6-22.3 1.2-22.3 4.4 0 0.3 0.6 5.3 0.7 6.4 2.9 0.2 5.5-0.1 7.9-0.1 -2.8 0 15.7 9.1 15.2 9.4 -3 2-24.6 1.7-24.6 1.7 -1.4 2 5.6 3.9 6.2 4.4 0.7 3.5 0.5 6 9.3 6 -0.7 1.4-1.2 2.9-1.5 4.4 1.6-1.6 2.9-1.8 4-0.7 -1.1 4.9-18.7 8-19.4 8.8 -2-1.1-4.2-1.3-6.5-0.7 -0.9 2.2 5.6 2.4 6.1 2.7 2 4.3 3.9 6 5.3 8 0.5 1.2 0.6 2.4 0.4 3.6 -0.1-0.3-7.6 1.6-6.1 3.3 1.7 0.6 3.5 0.6 5.2 0 -1.5 0.8-2.6 2.1-3.2 3.8 0.2 0.9 10.5 3.2 9.7 4.5 -4.7 0.6-9.5 1-14.2 1.3 0-1.2-1 9.2-2.7 5.3 1.4 3.3 13.6 5.1 13 4.6 0.1 1.5 0 3.1-0.4 4.5 2-0.9 3.5-2.5 4.5-4.7 -2.8 4 1.5 1.5 2.7 0.8 -2.4 0.5-23.9 7.4-20.7 13.7 -0.2-0.3 14.4 7 18.3 3.7 -2.6 0.8-4.9 2.2-6.8 4.2 3.1 7.3 1.7-6.1 1.7 3.8 0 3.8 11.9 0.4 13.2-0.1 2.1 1.7 24.5 1 20.2-9.7 2.4 6 1.9 10.6-0.4 18.1 3.9 0 7.8 0 11.7 0 1.7-2-3.5-11.3-0.7-12.6 -0.5 0.3 25.9 7.7 26.7 8.2 2.3-1.4 4.4-2.9 3.1-6.5 1.1 3 6.7 3.5 9.2 4 -0.5-0.1 2.4-6.9 0.5-5.6 2.1 2.5 5.5 0.3 7.6-2 0.7-0.8-10.4-3.4-11.2-3.8 0 0 7.7-14.8 10.2-11.9 -5.5-6.4 1.2 2.3 1.2-3 -2.1-0.7-4.3-1.4-6.4-2.1 2.7-1 5.1-2.6 7.1-4.6 10.2 14.7-15.4-4.9-5-2.5 -6.8-1.6-20 7.3-24.9-5.9 -0.1-0.2 6.7 3.9 6.2 3.8 -2.2 0.9 11.6-8.9 11.6-1.9 0-10.5 7-0.7 9.2-6.4 -1.5-0.9-2.5-2.1-3.1-3.7 3.1 1.8 5 1.3 5.6-1.4 -4.5-4.2-3.1 2-2-2.7 -1.1 4.9-29-10.6-27.6-9.9 9.1 4.2 20.6 0.7 28.6-5.7 -3 2.4 2.9-8.6 2.4-7.8 -1.4 2.3-19.7-1.9-20.3-4.3 -0.9-3.4 8.2-1 8-1 1.4-1.7-4.8-1.9 2.4-3.1 -1.1-0.8-2.2-1.5-3.3-2.3 2.1-1.4 5.4-1.8 6.7-4.8 -0.3 0.7-18.5-3.4-19.4-4.7 6 9.1 13.8-13.2 11.1-11.9 0.2-0.1-14.4 1-10.3-1.3 2.7-1.5 4.6-3.1 5.6-6.9 -0.9 3.3-15-1.7-14.8-1.7 7.8-0.4 2.8-3.8 5-6.7 10.5-5 13.3-8.1 0.9-8.9 1.8 1.7 1-6.7-0.3-4.9 -6.8 9.2-11.6-4-13.7-4 10.1 0 13.7 3.6 21-10 -6.2-1.9-10.7-1.3-11.4-6.2 1.6 9.9-24.7-13-16-3.7 7 7.5 12.7-4.4 16.3-7.6 1.4-1.3 4.5 1.4 7.9-3.8 -5.6 0-21 0.8-23.3-5.4 0.2 0.6 13.1 0 13.1 0 -1.1-1.2-1.8-2.7-2.2-4.2 4.3-0.1 5.5 2.2 9.1-3.1 0.5-0.8-36.2-7.8-26.6-16.4 -1.1 1 2.4 8 3.1 7.1 5.6-6.8-6.8 0.7 3.8 0.7 1.2 0 0-4.1 1.6-4.1 0.2 0 2.6 6.1 3.8 5.1 0.1-0.1 7.5-6.2 7.5-5.1 0-3.3-12.2-9.7-12.2-6.7 0-0.8 1.3-11.2 0.5-9 1.4-3.7 8.8-10.7 4.2-17.2 -2.3-3.4-12.4 14.5-12.8 14.2 -8.8-7.9 6.6-14.3 6.6-13.2 0-1.9-2.5-3.4-3.9-4 1.2-1.8 3.1-2.3 5.6-1.3 -0.1 0.3-6.5-7-0.8-7 -17.3 0 1 5.5-4.6 0.4 0.2 0.1-3.1 5.9-3.7 6.9 0.7-1.3 4.1-11.5 4.1-13.7 -1.9 0.3-3.2 1.2-3.9 2.9C456.7 72.9 458.4 68.1 456.4 65.4zM453.2 89.3c2.3 0.2 3.2 8.4 2.5 8.4C455.1 97.7 453.8 89.3 453.2 89.3zM452 99.3C461 100.3 451.6 99.3 452 99.3 452.9 99.4 452 99.3 452 99.3zM464.9 104.9c1 0-3.5 6.4-5.3 6.4C458.4 111.3 464.3 104.9 464.9 104.9zM459.4 114.6C464.6 117.3 464.1 117.1 459.4 114.6L459.4 114.6zM464.6 116.3C467.9 117 465.1 116.4 464.6 116.3 464.7 116.3 464.6 116.3 464.6 116.3zM471.7 118.8C473.7 118.8 469 118.8 471.7 118.8 472.1 118.8 471.3 118.8 471.7 118.8zM460.6 129.7C462.2 129.7 458.8 129.7 460.6 129.7 460.9 129.7 460.6 129.7 460.6 129.7zM457 138.8C457.7 138.7 455.6 139.1 457 138.8 457.2 138.8 457 138.8 457 138.8zM460.8 140.3C462 140.1 459.4 140.5 460.8 140.3 460.8 140.3 460.7 140.3 460.8 140.3zM455 140.6C456.7 140.6 453.2 140.6 455 140.6 455.2 140.6 454.7 140.6 455 140.6zM452.6 142C454.3 142 450.8 142 452.6 142 452.9 142 452.3 142 452.6 142zM442.8 142c-0.1 0 8.4 2.8 8.4 1.3C451.2 151.2 439.7 141.6 442.8 142 443.1 142.1 442.5 142 442.8 142zM486 178.1C487.9 178.1 484.6 178.1 486 178.1 486.2 178.1 486 178.1 486 178.1zM446.7 186.3C445.7 186.3 437.2 186.3 446.7 186.3 446.9 186.3 446 186.3 446.7 186.3zM487.3 215.5C492.1 215.4 481.3 215.5 487.3 215.5 487.8 215.5 486.4 215.5 487.3 215.5zM497.8 219.2C499.6 219 496.4 219.2 497.8 219.2 498 219.1 497.6 219.2 497.8 219.2zM497.9 236.1C499.9 235.3 497.8 236.2 497.9 236.1 497.9 236.1 497.8 236.2 497.9 236.1zM416 263.7C416.1 263.7 414.2 264.1 416 263.7 416.2 263.6 416 263.7 416 263.7zM423.6 269.6c3 1.6 4.3 2.7 9.5 2C423.6 276.3 425.4 270.6 423.6 269.6zM434.5 270.3C435.8 270.3 431.9 270.3 434.5 270.3 434.6 270.3 434.5 270.3 434.5 270.3zM429.7 298.4C430.5 298.2 428.2 298.8 429.7 298.4 429.9 298.4 429.7 298.4 429.7 298.4z" class="b"/><path d="M330.1 130.4c-0.5 3-0.2 6.2-0.2 9.3 -0.9-1.6-2.2-2.5-4-2.8 0 0.4 4.2 11.5 3.3 10.9 -0.6-0.4-2.8-7.3-3.4-6.4 -1.5 2.5-1 0-3.5 0 1.3 0 2.8 13.7 2.3 13.6 0.2 0.1-9.2-2.1-8.5-2.4 4.8-2-1 6.8-0.4 5 1.1-3 6.5 11.6 1.3 6.9 2.5 2.3 5.8-0.7 8 0.1 -1.4-1 4.8 5.5 5.2 5 -1.6 1.7-13-1.2-13-1.4 0.7 0.9 1.6 1.6 2.6 2.1 -6.8-2.4-8.1-5.2-14-1.3 -2.4 1.6 7.1 2.3 6.9 2.2 -1.2 0.5-2 1.3-2.5 2.5 2 0 3.8-0.6 5.4-1.8 -0.7-0.2-2.3 3.9-0.6 4.7 0.4 0.2 5.9-2.3 5.9-3.1 -1.1 1.1-2.2 2.3-3.3 3.4 0 0.7 13.6-0.6 12.7-4.1 3.1 11.8-23.5 4-23.5 8.9 0 1.4 8.4 6.8 7.7 7.5 -0.8 0.9-13.8 3.1-13.8 3.6 0 4 17.4 10.1 19.1 10.6 -2 0.2-15.7 2.3-17.9 4.1 -2.3 1.9 9.7 8.4 8.7 8.8 3-1.2-12.4 0.7-9.7 1.8 1.9 0.7 14.3 3.5 13.6 3.1 4.4 2.5-18.9 12-18.9 10.6 0 10.2 21.5 3.7 21.2 3.7 -0.4 0 2.5 1.6 2.7 1 -0.1 0.3-10.7 5.1-10.7 4.1 1.2 1.3 2.7 2 4.4 2.2 0.4 2.6-22.3 1-22.3 3.3 0 1 0.7 3.1 0.7 4.8 5 0.5 20.7 8.2 23.1 7 -3.5 1.7-23.5 0.1-24.6 1.3 -1.2 1.3 5.7 3.1 6.2 3.3 -1.3-0.2-2.5 0.1-3.5 0.9 0 3.9 11.6 3.5 12.8 3.6 -0.5-1.1 0.6 9.4 2.5 2.8 -2.4 8.6-23.6 2.2-25.9 6.1 -0.6 1.1 10.9 7.6 11.4 8.1 0.5 0.9 0.6 1.8 0.4 2.8 -0.4-0.7-7 1.7-6.1 2.5 1.7 0.4 3.5 0.5 5.2 0 -1.4 0.5-2.5 1.5-3.2 2.8 0.3 0.8 10.3 2.6 9.7 3.4 -4.7 0.4-9.5 0.8-14.2 1 0-1.9 0 8.7-2.7 4 3.6 6.4 12.5-0.2 12.5 6.9 0-4.1 6.2-2.4 7.1-2.9 -1.9 0.2-23.6 6-20.7 10.3 0.2 0.3 14.5 5.2 18.3 2.8 -2.5 0.5-4.8 1.6-6.8 3.1 5.1 8.9 1.7-6.8 1.7 2.9 0 6.1 37.4 0 33.4-7.4 2.5 4.7 1.9 8-0.4 13.7 3.9 0 7.8 0 11.7 0 1.3-1.2-3-8.7-0.7-9.5 1.6-0.6 34 10.2 29.8 1.2 0.4 0.7 7.6 2.8 9.2 3 -0.5-0.1 1.5-3 4.9-2.9 -4.2-0.1 5.9-5 3.2-2.8 -1.2 1-10.8-3.9-11.5-4.2 4.4 1.8 6.1-11.5 10.6-7.6 -6-5.2 1.2 2.2 1.2-2.3 -2.1-0.5-4.3-1-6.4-1.6 2.6-0.7 5-1.9 7.1-3.5 12.6 13.7-15.2-3.6-5-1.9 -6.7-1.1-19.8 6-24.9-4.5 1.9 3.9 17.9-2.2 17.9 1.4 0-9.2 6.3 0.9 9.2-4.8 -1.4-0.6-2.4-1.5-3.1-2.8 2.8 1.6 4.7 1.2 5.6-1 -4.6-3.3-3.1 1.6-2-2 -0.8 2.6-27-5.4-27.8-6.1 3.3 3.2 23.1-2.3 28.7-5.7 -3.9 2.4 3-6.7 2.4-5.9 -1.3 1.7-19.6-1.1-20.3-3.3 -0.8-2.4 8.4-0.8 8-0.7 0.5-0.4-3.8-1.5 2.4-2.3 -1.1-0.6-2.2-1.2-3.3-1.7 1.8-1.3 5.3-1.1 6.7-3.6 -0.6 1-18.6-2.7-19.4-3.5 7 8 22.8-19.2 0.8-10 2.8-1.2 4.5-2.1 5.6-5.2 -0.5 1.3-13.5 0-14.3-0.4 3 1.5 4.8-6.2 4.5-5.9 1.8-0.7 9-4.7 10.6-4.7 -2.1 0-6.1-1.9-9.7-2 2.5 1-11.6-3.5-14-6.1 4.7 5.2 16.5-1.8 21-8.2 -9.9-2.2-18.9-0.6-27.4-7.5 6.7 5.4 20.4-4.6 24.2-8.6 -5.4-0.1-20.7 1.1-23.3-4.1 0.4 0.8 13.1-0.3 13.1 0 -1-0.9-1.8-1.9-2.2-3.2 4.3-0.1 5.5 1.6 9.1-2.4 -1.6 1.7-32.8-8.2-26.6-12.3 -4.2 2.9 19.7 8.3 19.7 2.8 0-2.7-12.2-7.3-12.2-5 0-0.5 4.5-4.6 4.6-4.5 -1.8 0-3.2-0.7-4.1-2.3 1.3-2.7 8.9-7.9 4.3-13 -3.2-3.4-10.7 12.1-12.8 10.7 -8.4-5.7 6.6-11.7 6.6-10 -0.8-1.9-2.1-2.9-3.9-3 1.4-1.5 3.3-1.8 5.6-1 -0.2 0.6-6.3-5.3-0.8-5.3 -19.8 0 1.1 4.1-4.6 0.3 -0.1-0.1-3.2 4.5-3.7 5.2 0 0 4.1-9.5 4.1-10.3C336.3 140.3 330.3 131.1 330.1 130.4zM327 148.5C332.4 148.8 328.9 148.6 327 148.5 327.2 148.5 327 148.5 327 148.5zM325.8 156C334.8 156.7 325.2 156 325.8 156 326.7 156.1 325.8 156 325.8 156zM338.7 160.2c0.7 0-3.5 4.8-5.3 4.8C332.4 165.1 337.9 160.2 338.7 160.2zM333.2 167.6C338.4 169.6 337.9 169.4 333.2 167.6L333.2 167.6zM338.4 168.8C341.6 169.3 338.8 168.9 338.4 168.8 338.5 168.8 338.4 168.8 338.4 168.8zM345.4 170.7C347.4 170.7 342.9 170.7 345.4 170.7 345.9 170.7 345.4 170.7 345.4 170.7zM334.4 178.9C336 178.9 332.6 178.9 334.4 178.9 334.6 178.9 334.4 178.9 334.4 178.9zM330.8 185.8C331.6 185.6 329.4 186.1 330.8 185.8 331 185.8 330.8 185.8 330.8 185.8zM334.6 186.9C334.7 186.9 334.2 186.9 334.6 186.9 334.6 186.9 334.6 186.9 334.6 186.9zM328.7 187.2C330.4 187.2 327 187.2 328.7 187.2 329 187.2 328.5 187.2 328.7 187.2zM326.4 188.2C328.1 188.2 324.7 188.2 326.4 188.2 326.6 188.2 326.4 188.2 326.4 188.2zM316.6 188.2c-0.2 0 8.4 2.1 8.4 1C325 195.3 313.9 187.9 316.6 188.2zM359.8 215.4C361.6 215.4 358.6 215.4 359.8 215.4 360 215.4 359.5 215.4 359.8 215.4zM320.4 221.6C319.1 221.6 311.4 221.6 320.4 221.6 320.7 221.6 319.7 221.6 320.4 221.6zM361 243.6C365.9 243.5 355.1 243.6 361 243.6 361.6 243.6 360.2 243.6 361 243.6zM371.6 246.3C373.3 246.3 370.1 246.4 371.6 246.3 371.7 246.3 371.4 246.3 371.6 246.3zM371.7 259.1C373.6 258.4 372.3 258.9 371.7 259.1 371.7 259.1 371.5 259.2 371.7 259.1zM289.8 279.9C290 279.9 288.2 280.2 289.8 279.9 290 279.9 289.8 279.9 289.8 279.9zM297.4 284.3c2.8 1.2 5 2 9.5 1.5C299 289.1 298.2 284.7 297.4 284.3zM308.3 284.9C309.5 284.9 305.7 284.9 308.3 284.9 308.4 284.9 308.3 284.9 308.3 284.9zM303.5 306.1C304.3 305.9 302.2 306.3 303.5 306.1 303.7 306 303.5 306.1 303.5 306.1z" class="c"/><path d="M389.7 157.1c-0.1 2.7-0.2 5.4-0.2 8 -0.9-1.4-2.3-2.2-4-2.4 0 0.1 4.5 10.2 3.3 9.5 -3.9-2.3-1.3-5.6-6.8-5.6 -2.6 0 3.8 9.9 3.7 8.1 0-0.5-7 2.3-1.4 3.6 -0.2 0-8.6-2-8.5-2.1 4.7-1.7-1 5.9-0.4 4.4 1.2-2.9 6.8 10.3 1.3 6 2.5 2 5.7-0.6 8 0.1 1.2 0.8-0.6 2.6 4.4 1.5 0.5 0.8 0.8 1.8 0.8 2.8 -1.5 1.5-13-1-13-1.2 0.7 0.8 1.6 1.4 2.6 1.8 -7.1-1.3-7.8-4.7-14-1.1 5-2.9 4.5 4.6 4.4 4.1 2 0 3.8-0.5 5.4-1.6 -5.4-1.2 5.3 10.1 5.3 1.4 -1.1 1-2.2 2-3.3 3 0 0.6 13.6-0.5 12.7-3.6 3.1 10-23.5 3.7-23.5 7.7 0 1.1 8.3 6 7.7 6.5 -1 0.9-13.8 2.5-13.8 3.1 0 3.5 17.3 8.8 19.1 9.2 -2.7 0.2-15.2 1.6-17.9 3.5 -1.9 1.3 9.3 7.5 8.7 7.7 2.9-1-11.9 0.8-9.7 1.5 2.4 0.8 13.3 2.6 13.6 2.7 3.5 1.7-18.9 10.9-18.9 9.2 0 7.8 23.7 4.8 23.9 4.2 -0.1 0.1-10.7 4.5-10.7 3.6 1.3 1.2 2.7 1.8 4.4 1.9 0.4 2.1-22.3 1-22.3 2.9 0 1.5 0.7 2 0.7 4.2 5.6 0.4 19.4 7.6 23.1 6.1 -3.9 1.7-22.7-0.6-24.6 1.1 1.8 1.8 3.8 2.8 6.2 2.9 -1.3-0.2-2.4 0.1-3.5 0.8 0 3.4 11.5 3 12.8 3.1 -0.1-0.3 0.6 8.2 2.5 2.5 -2.7 8.2-23.4 1.6-25.9 5.3 0.3-0.4 11.1 8.4 11.8 9.4 -0.6-0.9-6.6 1.8-6.1 2.2 1.7 0.4 3.5 0.4 5.2 0 -1.4 0.4-2.4 1.2-3.2 2.5 0.3 0.7 10.2 2.3 9.7 2.9 -4.7 0.4-9.5 0.7-14.2 0.9 0-2 0.5 8.4-2.7 3.5 3.7 5.6 12.5-0.4 12.5 6 0-3.2 6.5-2.3 7.1-2.5 -0.1 0-18.4 5.5-18.7 5.1 0.6 0.9-0.7 5.5-2 3.8 0.4 0.5 14.5 4.5 18.3 2.4 -2.5 0.4-4.7 1.3-6.8 2.7 6 9.2 1.7-6.7 1.7 2.5 0 6.3 36.6-1.2 33.4-6.4 2.5 4.1 2 6.8-0.4 11.9 3.9 0 7.8 0 11.7 0 -0.3-2.8-0.6-5.5-0.7-8.3 1.8-0.6 33.7 8.4 29.8 1.1 0.4 0.7 7.7 2.4 9.2 2.6 -2.1-0.3 6.6-3.9 8-5 -1.3 0.9-10.7-3.4-11.5-3.7 4.9 1.8 5.7-10.3 10.6-6.6 -1-0.4-1.9-0.8-2.9-1.2 1.2-0.7 2.5-1 4-0.8 -2.1-0.4-4.3-0.9-6.4-1.4 2.5-0.6 4.9-1.6 7.1-3 13.9 13.1-15-3.1-5-1.6 -6.6-1-19.7 5.5-24.9-3.9 1.9 3.3 17.9-1.9 17.9 1.2 0-8.5 5.9 1.4 9.2-4.2 -1.4-0.5-2.4-1.3-3.1-2.4 2.7 1.5 4.5 1.2 5.6-0.9 -4.6-2.9-3.1 1.4-2-1.7 -0.9 2.6-27.1-4.7-27.8-5.3 3.6 3 23.1-2 28.7-4.9 -0.7 0.4-3.6-4.4 0.7-5.2 -2.1 0.4-17.5 0.1-18.7-2.7 -0.8-2 8.5-0.7 8-0.6 0 0-3.3-1.2 2.4-2 -1.1-0.5-2.2-1-3.3-1.5 1.8-1.1 5.2-0.8 6.7-3.2 -0.8 1.2-18.6-2.3-19.4-3.1 7.3 7.2 22.7-16.6 0.8-8.7 0.7-0.2 5-2 5-2.5 0-3.4-1.5 3.3 0.6-2 -1 2.4-14.3-1.1-14.8-1.1 6.9-0.2 3.8-3.1 5-4.4 2.3-0.7 8.6-4.1 10.6-4.1 -2.2 0-6.2-1.6-9.7-1.7 2.9 1-11.5-5.9-14-5.9 10.6 0 11.6 1.5 21-6.6 -10-1.9-18.5-0.2-27.4-6.5 6.9 4.8 20.1-3.9 24.2-7.4 -5.2-0.3-21 0.4-23.3-3.5 0.5 0.8 13.1-0.4 13.1 0 -1-0.7-1.7-1.6-2.2-2.8 4.3-0.1 5.5 1.4 9.1-2 -2.7 2.6-30.8-8.2-26.6-10.7 -3.5 2 19.7 7.4 19.7 2.5 0-2.5-12.2-6.3-12.2-4.4 0-0.5 4.5-4 4.6-3.9 -1.7 0.1-3.1-0.6-4.1-2 0.2-0.4 6.1-0.8 6.1-2.4 0 1-3.7-10.6-1.9-8.9 -3.6-3.4-10 10.9-12.8 9.3 -8-4.7 6.6-10.6 6.6-8.6 -0.9-1.7-2.2-2.6-3.9-2.6 1.5-1.4 3.4-1.7 5.6-0.9 -0.2 0.7-6.2-4.6-0.8-4.6 -21.5 0 1.1 3.6-4.6 0.3 2.8 1.6-3 3.8-3.7 4.5 -0.4 0.4 4.1-8.6 4.1-8.9C395.8 165.2 389.8 158.7 389.7 157.1zM386.5 172.7C392 173.1 388.3 172.8 386.5 172.7 386.8 172.7 386.5 172.7 386.5 172.7zM385.4 179.3C394.6 179.9 384.5 179.2 385.4 179.3 386.3 179.4 385.4 179.3 385.4 179.3zM398.2 182.9c0.6 0-3.5 4.2-5.3 4.2C392.1 187.1 397.3 182.9 398.2 182.9zM392.8 189.3C398 191.1 397.5 190.9 392.8 189.3L392.8 189.3zM397.9 190.4C401.1 190.9 398.3 190.5 397.9 190.4 398 190.4 397.9 190.4 397.9 190.4zM405 192C406.9 192 402.5 192 405 192 405.4 192 405 192 405 192zM394 199.2C395.9 199.2 391.7 199.2 394 199.2 394.2 199.2 394 199.2 394 199.2zM390.4 205.1C391.2 205 389.2 205.3 390.4 205.1 390.5 205.1 390.4 205.1 390.4 205.1zM394.2 206.1C395.1 206 393.3 206.2 394.2 206.1 394.2 206.1 394.2 206.1 394.2 206.1zM388.3 206.3C390 206.3 386.6 206.3 388.3 206.3 388.6 206.3 388.1 206.3 388.3 206.3zM386 207.2C387.6 207.2 384.2 207.2 386 207.2 386.2 207.2 385.7 207.2 386 207.2zM376.2 207.2c-0.3 0 8.4 1.8 8.4 0.9C384.6 213.4 373.7 207 376.2 207.2zM419.3 230.9C421.1 230.9 418.2 230.9 419.3 230.9 419.6 230.9 419.1 230.9 419.3 230.9zM380 236.2C378.5 236.2 371.1 236.2 380 236.2 380.3 236.2 380 236.2 380 236.2zM420.6 255.3C425.4 255.3 414.7 255.3 420.6 255.3 421.1 255.3 419.8 255.3 420.6 255.3zM431.1 257.7C432.9 257.6 429.7 257.7 431.1 257.7 431.3 257.7 431 257.7 431.1 257.7zM431.3 268.8C434 268.2 431.4 268.8 431.3 268.8 431.3 268.8 431.1 268.8 431.3 268.8zM349.3 286.8C349.6 286.8 347.9 287 349.3 286.8 349.6 286.8 349.3 286.8 349.3 286.8zM356.9 290.7c2.8 1 5.3 1.8 9.5 1.3C359.4 294.6 357.3 290.8 356.9 290.7zM367.9 291.2C369.1 291.1 365.3 291.2 367.9 291.2 368 291.1 367.9 291.2 367.9 291.2zM363.1 309.5C363.9 309.4 361.9 309.7 363.1 309.5 363.3 309.5 363.1 309.5 363.1 309.5z" fill="#94C37F"/><path d="M561.1 62.4c-1 3.7-0.2 8.5-0.2 12.5 -0.7-2-2-3.2-4-3.7 0 1.3 3.3 14.7 3.3 14.7 -2-1.8-1-6.6-2.1-8.7 1.1 2-4.2 0-4.7 0 1.2 0 3.9 21.5 0.1 19.9 -2-1.8-4.1-3.4-6.3-4.9 1.9-1.1 1.9 17.3 1 16.1 2.3 2.8 5.9-0.2 8 0.1 3.2 2.8-2 4 4.4 2.4 0.1-0.2-12.1 10.8-12.1 2.5 0.7 1.1 1.5 2 2.6 2.8 -7.4-3.1-7.8-7.3-14-1.7 -3.1 2.8 7.2 3.2 6.9 3 -1.3 0.8-2.1 1.9-2.5 3.4 2.2-0.1 4-0.9 5.4-2.5 -0.4-0.1-2.4 5.3-0.6 6.3 0.4 0.2 5.8-3.2 5.8-4.1 -1.1 1.5-2.2 3-3.3 4.6 0 1 13.5-1.2 12.7-5.6 2.2 11.1-10 8.3-14 7.2 4.3 1.2-9.5 3.8-9.5 4.7 0 3.2 9.4 7.7 7.7 10.1 -0.5 0.7-13.8 4.5-13.8 4.9 0 5.3 17.6 13.8 19.1 14.3 -0.7 0.1-16.8 4.3-17.9 5.5 -3 3.2 10.6 10.9 8.7 11.9 2.9-1.6-13.3 0.5-9.7 2.4 1.1 0.6 16.4 6.4 13.6 4.2 6.3 4.7-18.9 14.4-18.9 14.2 0 10.9 15 6.1 16.6 5.5 0.3 1.1 0.5 2.2 0.8 3.3 0.4-0.3 3.6-3.8 3.8-3.8 -0.7 0 2.5 2.1 2.7 1.4 -0.1 0.5-10.7 6.5-10.7 5.6 1.1 1.7 2.5 2.7 4.4 3 0.4 3.7-22.3 1.2-22.3 4.5 0 0.3 0.6 5.5 0.7 6.5 2.9 0.2 5.5-0.2 7.9-0.2 -2.8 0 15.8 9.2 15.2 9.5 -3.1 2.1-24.6 1.8-24.6 1.8 -1.4 2.1 5.5 4 6.2 4.5 0.7 3.6 0.5 6.1 9.3 6.1 -0.7 1.4-1.2 2.9-1.5 4.5 1.6-1.6 2.9-1.9 4-0.7 -1.1 5.1-18.6 8-19.4 9 -2-1.1-4.1-1.3-6.5-0.7 -0.9 2.3 5.6 2.4 6.1 2.8 2 4.4 3.9 6.1 5.3 8.1 0.5 1.2 0.6 2.5 0.4 3.7 -0.1-0.3-7.6 1.6-6.1 3.4 1.7 0.6 3.5 0.6 5.2 0 -1.5 0.9-2.6 2.1-3.2 3.8 0.2 0.9 10.5 3.2 9.7 4.5 -4.7 0.6-9.5 1.1-14.2 1.3 0-1.2-1 9.2-2.7 5.3 1.4 3.3 13.6 5.2 13 4.6 0.1 1.6 0 3.1-0.4 4.6 2-0.9 3.5-2.5 4.5-4.7 -2.8 4.1 1.5 1.5 2.7 0.8 -2.5 0.5-23.9 7.4-20.7 13.9 -0.2-0.3 14.4 7.1 18.3 3.7 -2.6 0.8-4.9 2.2-6.8 4.2 3 7.2 1.7-6.1 1.7 3.9 0 3.8 11.9 0.4 13.2-0.1 2.2 1.7 24.5 1 20.2-9.9 2.4 6.1 1.9 10.8-0.4 18.4 3.9 0 7.8 0 11.7 0 1.7-2-3.6-11.4-0.7-12.8 -0.6 0.3 26 7.8 26.7 8.3 2.3-1.4 4.4-3 3.1-6.6 1.1 3.1 6.6 3.5 9.2 4.1 0.1 0 1.6-7 0.5-5.7 1.7-0.3 3.2 0.3 4.4 1.7 -4.5-0.1 5.2-6 3.2-3.8 0.7-0.8-10.4-3.4-11.2-3.9 -0.1-0.1 7.7-14.9 10.2-12 -5.5-6.4 1.2 2.3 1.2-3.1 -2.1-0.7-4.3-1.4-6.4-2.1 2.7-1.1 5.1-2.6 7.1-4.7 10 14.8-15.4-4.9-5-2.5 -6.8-1.6-20.1 7.4-24.9-6 -0.1-0.2 6.7 4 6.2 3.8 -2.2 1 11.6-9 11.6-1.9 0-10.6 7.1-0.8 9.2-6.5 -1.5-0.9-2.5-2.2-3.1-3.7 3.1 1.8 5 1.3 5.6-1.4 -4.5-4.3-3.1 2.1-2-2.7 -1.1 5-29-10.7-27.6-10.1 9 4.2 20.7 0.7 28.6-5.8 -2.9 2.4 2.9-8.7 2.4-7.9 -1.4 2.3-19.7-2-20.3-4.4 -0.9-3.5 8.2-1 8-1 1.4-1.8-4.8-1.9 2.4-3.1 -1.1-0.8-2.2-1.6-3.3-2.3 2.1-1.4 5.4-1.8 6.7-4.9 -0.3 0.6-18.5-3.5-19.4-4.8 6 9.2 13.8-13.4 11.1-12.1 0.1-0.1-14.4 1-10.3-1.3 2.7-1.5 4.6-3.2 5.6-7 -0.9 3.3-15-1.7-14.8-1.7 7.8-0.4 2.7-3.8 5.1-6.8 10.5-5.1 13.3-8.2 0.9-9.1 1.7 1.7 1-6.8-0.3-5 -6.8 9.4-11.6-4.1-13.7-4.1 10.1 0 13.7 3.6 21-10.2 -6.3-1.9-10.7-1.3-11.4-6.3 1.6 10.1-24.6-13.1-16-3.7 7 7.6 12.7-4.4 16.3-7.7 0.9-0.8 4.4 0.1 7.9-3.8 -5.7 0-21 0.7-23.3-5.5 0.2 0.6 13.1 0 13.1 0 -1.1-1.3-1.8-2.7-2.2-4.3 4.3-0.1 5.5 2.2 9.1-3.2 0.7-1-36.4-7.7-26.6-16.6 -1.1 1 2.4 8.1 3.1 7.2 5.6-6.9-6.7 0.8 3.8 0.8 1.3 0 0-4.2 1.6-4.2 0.2 0 2.7 6.2 3.8 5.1 0.1-0.1 7.5-6.2 7.5-5.2 0-3.3-12.2-9.8-12.2-6.8 0-0.9 1.3-11.3 0.5-9.1 1.4-3.8 8.8-10.9 4.2-17.5 -2.3-3.3-12.5 14.6-12.8 14.4 -8.8-8 6.6-14.4 6.6-13.4 0-1.9-2.5-3.5-3.9-4 1.2-1.8 3.1-2.3 5.6-1.4 -0.1 0.2-6.5-7.1-0.8-7.1 -17.2 0 1 5.5-4.6 0.4 0.2 0.2-3.1 6-3.7 7.1 0.7-1.3 4.1-11.6 4.1-13.9 -1.9 0.3-3.2 1.3-3.9 3C561.4 70.1 563.2 65.2 561.1 62.4zM557.9 86.7c2.3 0.2 3.2 8.5 2.5 8.5C559.8 95.2 558.6 86.7 557.9 86.7zM556.8 96.8C566.3 97.9 555.9 96.7 556.8 96.8 557.7 96.9 556.6 96.8 556.8 96.8zM569.6 102.5c1 0-3.5 6.5-5.3 6.5C563.1 109 569.1 102.5 569.6 102.5zM564.2 112.4C569.3 115.1 568.8 114.9 564.2 112.4L564.2 112.4zM569.3 114.1C572.7 114.8 569.8 114.2 569.3 114.1 569.4 114.1 569.3 114.1 569.3 114.1zM576.4 116.6C578.5 116.6 573.8 116.6 576.4 116.6 576.8 116.6 576 116.6 576.4 116.6zM565.3 127.7C566.9 127.7 563.6 127.7 565.3 127.7 565.6 127.7 565.3 127.7 565.3 127.7zM561.8 136.9C562.4 136.8 560.2 137.3 561.8 136.9 561.9 136.9 561.7 136.9 561.8 136.9zM565.5 138.4C567.2 138.2 563.8 138.7 565.5 138.4 565.6 138.4 565.5 138.4 565.5 138.4zM559.7 138.8C561.4 138.8 557.9 138.8 559.7 138.8 560 138.8 559.4 138.8 559.7 138.8zM557.3 140.2C559.1 140.2 555.6 140.2 557.3 140.2 557.6 140.2 557.1 140.2 557.3 140.2zM547.6 140.2c-0.1 0 8.4 2.8 8.4 1.4C555.9 149.5 544.4 139.7 547.6 140.2zM590.7 176.8C592.7 176.8 589.3 176.8 590.7 176.8 591 176.8 590.4 176.8 590.7 176.8zM551.4 185.1C550.5 185.1 541.9 185.1 551.4 185.1 551.7 185.1 550.7 185.1 551.4 185.1zM592 214.7C596.9 214.7 586 214.8 592 214.7 592.5 214.7 591.1 214.7 592 214.7zM602.5 218.5C604.3 218.3 601.1 218.5 602.5 218.5 602.7 218.4 602.4 218.5 602.5 218.5zM602.7 235.7C605.2 234.7 602.1 235.9 602.7 235.7 602.7 235.7 602.5 235.8 602.7 235.7zM520.7 263.7C520.9 263.6 518.9 264.1 520.7 263.7 520.9 263.6 520.7 263.7 520.7 263.7zM528.3 269.6c3 1.7 4.3 2.7 9.5 2.1C528.2 276.5 530.2 270.7 528.3 269.6zM539.2 270.4C540.6 270.4 536.6 270.4 539.2 270.4 539.3 270.4 539.2 270.4 539.2 270.4zM534.5 298.9C535.1 298.7 533 299.2 534.5 298.9 534.6 298.8 534.5 298.9 534.5 298.9z" class="c"/><path d="M284.8 64.9c-1 3.7-0.2 8.4-0.2 12.3 -0.7-2-2-3.2-4-3.7 0 1.3 3.3 14.6 3.3 14.6 -2-1.8-1-6.5-2.1-8.6 1.1 2-4.2 0-4.7 0 1.2 0 4 21.2 0.1 19.7 -2-1.8-4.1-3.4-6.3-4.8 1.9-1.1 1.9 17.1 1 15.9 2.3 2.7 5.9-0.2 8 0.1 3.2 2.8-1.9 3.9 4.4 2.4 0.2-0.2-12.1 10.7-12.1 2.4 0.7 1.1 1.5 2 2.6 2.7 -7.4-3-7.8-7.3-14-1.7 -3.1 2.8 7.2 3.2 6.9 3 -1.3 0.8-2.1 1.9-2.5 3.3 2.2-0.1 4-0.9 5.4-2.4 -0.4-0.1-2.4 5.2-0.6 6.3 0.4 0.2 5.9-3.2 5.9-4.1 -1.1 1.5-2.2 3-3.3 4.6 0 0.9 13.5-1.1 12.7-5.5 2.2 11-10 8.2-13.9 7.1 4.3 1.2-9.5 3.8-9.5 4.7 0 3.2 9.4 7.7 7.7 10 -0.5 0.7-13.8 4.4-13.8 4.8 0 5.3 17.6 13.6 19.1 14.1 -0.7 0.1-16.8 4.2-17.9 5.4 -3 3.1 10.5 10.8 8.7 11.8 2.9-1.5-13.3 0.5-9.7 2.4 1.1 0.6 16.4 6.3 13.6 4.2 6.2 4.6-18.9 14.3-18.9 14.1 0 10.8 15 6 16.6 5.5 0.3 1.1 0.6 2.2 0.8 3.3 0.4-0.3 3.6-3.8 3.8-3.8 -0.7 0 2.5 2.1 2.7 1.4 -0.1 0.5-10.7 6.4-10.7 5.5 1.1 1.7 2.6 2.7 4.4 3 0.4 3.6-22.3 1.2-22.3 4.4 0 0.3 0.6 5.4 0.7 6.4 2.9 0.2 5.5-0.1 7.9-0.1 -2.8 0 15.7 9.1 15.2 9.4 -2.9 1.9-24.7 1.9-24.6 1.7 -1.4 2.1 5.6 4 6.2 4.4 0.7 3.5 0.5 6.1 9.3 6 -0.7 1.4-1.2 2.9-1.5 4.4 1.6-1.6 2.9-1.9 4-0.7 -1.1 5-18.7 8-19.4 8.9 -2-1.1-4.2-1.3-6.5-0.7 -0.9 2.2 5.6 2.4 6.1 2.8 2 4.3 3.9 6 5.3 8 0.5 1.2 0.6 2.4 0.4 3.7 -0.1-0.3-7.6 1.6-6.1 3.4 1.7 0.6 3.5 0.6 5.2 0 -1.5 0.8-2.6 2.1-3.2 3.8 0.2 0.8 10.5 3.2 9.7 4.5 -4.7 0.6-9.5 1-14.2 1.3 0-1.2-1 9.2-2.7 5.3 1.4 3.3 13.6 5.1 13 4.6 0.1 1.5 0 3.1-0.4 4.6 2-0.9 3.5-2.5 4.5-4.7 -2.8 4 1.5 1.5 2.7 0.8 -2.4 0.5-23.9 7.4-20.7 13.7 -0.2-0.3 14.4 7.1 18.3 3.7 -2.6 0.8-4.9 2.2-6.8 4.2 3.1 7.3 1.7-6.1 1.7 3.9 0 3.8 11.9 0.4 13.2-0.1 2.1 1.7 24.5 0.9 20.2-9.8 2.4 6 1.9 10.7-0.4 18.2 3.9 0 7.8 0 11.7 0 1.7-2-3.6-11.3-0.7-12.7 -0.6 0.3 25.9 7.7 26.7 8.2 2.3-1.4 4.4-2.9 3.1-6.6 1.1 3 6.7 3.5 9.2 4.1 0.1 0 1.7-7 0.5-5.6 2.1 2.5 5.5 0.3 7.6-2 0.7-0.8-10.4-3.4-11.2-3.9 -0.1 0 7.7-14.8 10.2-11.9 -5.5-6.4 1.2 2.3 1.2-3 -2.1-0.7-4.3-1.4-6.4-2.1 2.7-1 5.1-2.6 7.1-4.6 10.1 14.7-15.4-4.9-5-2.5 -6.8-1.5-20.1 7.3-24.9-5.9 -0.1-0.2 6.7 3.9 6.2 3.8 -2.2 0.9 11.6-8.9 11.6-1.9 0-10.5 7-0.7 9.2-6.4 -1.5-0.9-2.5-2.2-3.1-3.7 3.1 1.8 5 1.3 5.6-1.4 -4.5-4.3-3.1 2.1-2-2.7 -1.1 4.9-29-10.6-27.6-10 9 4.2 20.7 0.7 28.6-5.7 -3 2.4 2.9-8.7 2.4-7.8 -1.4 2.3-19.7-2-20.3-4.4 -0.9-3.4 8.2-1 8-1 1.4-1.8-4.8-1.9 2.4-3.1 -1.1-0.8-2.2-1.5-3.3-2.3 2.1-1.4 5.4-1.8 6.7-4.9 -0.3 0.7-18.5-3.4-19.4-4.7 6 9.1 13.8-13.2 11.1-12 0.2-0.1-14.3 1-10.3-1.3 2.7-1.5 4.6-3.1 5.6-6.9 -0.9 3.3-15-1.7-14.8-1.7 7.8-0.4 2.8-3.8 5.1-6.7 10.5-5 13.3-8.1 0.9-9 1.8 1.7 1-6.7-0.3-4.9 -6.8 9.3-11.6-4-13.7-4 10.1 0 13.7 3.6 21-10.1 -6.2-1.9-10.7-1.3-11.4-6.3 1.6 10-24.6-13-16-3.7 7 7.5 12.7-4.4 16.3-7.6 0.9-0.8 4.4 0.1 7.9-3.8 -5.7 0-21 0.8-23.3-5.4 0.2 0.6 13.1 0 13.1 0 -1.1-1.3-1.8-2.7-2.2-4.2 4.3-0.1 5.5 2.2 9.1-3.1 0.6-0.8-36.3-7.7-26.6-16.4 -1.1 1 2.4 8 3.1 7.2 5.7-6.8-6.8 0.8 3.8 0.7 1.2 0 0-4.1 1.6-4.1 0.2 0 2.6 6.1 3.8 5.1 0.1-0.1 7.5-6.2 7.5-5.1 0-3.3-12.2-9.7-12.2-6.7 0-0.9 1.3-11.2 0.5-9.1 1.4-3.7 8.8-10.8 4.2-17.3 -2.3-3.3-12.5 14.5-12.8 14.2 -8.8-7.9 6.6-14.3 6.6-13.3 0-1.9-2.5-3.5-3.9-4 1.2-1.8 3.1-2.3 5.6-1.3 -0.1 0.3-6.5-7-0.8-7 -17.3 0 1 5.5-4.6 0.4 0.2 0.1-3.1 6-3.7 7 0.7-1.3 4.1-11.5 4.1-13.7 -1.9 0.3-3.2 1.2-3.9 2.9C285.2 72.5 286.9 67.6 284.8 64.9zM281.6 88.9c2.3 0.2 3.2 8.4 2.5 8.4C283.6 97.3 282.2 89 281.6 88.9 281.8 88.9 281.6 88.9 281.6 88.9zM280.5 99C290.5 100 279.1 98.8 280.5 99 281.4 99.1 280.5 99 280.5 99zM293.3 104.6c1 0-3.5 6.5-5.3 6.5C286.9 111 292.8 104.6 293.3 104.6zM287.9 114.4C293 117.1 292.5 116.8 287.9 114.4L287.9 114.4zM293 116.1C296.4 116.8 293.5 116.2 293 116.1 293.1 116.1 293 116.1 293 116.1zM300.1 118.6C302.2 118.6 297.5 118.6 300.1 118.6 300.5 118.6 299.7 118.6 300.1 118.6zM289.1 129.5C290.8 129.5 287.2 129.5 289.1 129.5 289.3 129.5 289.1 129.5 289.1 129.5zM285.5 138.7C286.2 138.5 283.9 139 285.5 138.7 285.6 138.6 285.5 138.7 285.5 138.7zM289.3 140.1C289.5 140.1 288.5 140.2 289.3 140.1 289.3 140.1 289.3 140.1 289.3 140.1zM283.4 140.5C285.1 140.5 281.6 140.5 283.4 140.5 283.7 140.5 283.2 140.5 283.4 140.5zM281.1 141.9C282.8 141.9 279.3 141.9 281.1 141.9 281.3 141.9 280.8 141.9 281.1 141.9zM271.3 141.9c-0.1 0 8.4 2.8 8.4 1.3C279.6 151.1 268.2 141.4 271.3 141.9zM314.4 178.2C316.4 178.2 313.1 178.2 314.4 178.2 314.7 178.2 314.2 178.2 314.4 178.2zM275.1 186.4C274.2 186.4 265.7 186.4 275.1 186.4 275.4 186.4 274.4 186.4 275.1 186.4zM315.7 215.6C320.6 215.6 309.7 215.7 315.7 215.6 316.2 215.6 315.7 215.6 315.7 215.6zM326.2 219.3C328 219.2 324.8 219.4 326.2 219.3 326.4 219.3 326.2 219.3 326.2 219.3zM326.4 236.4C329.1 235.4 325.7 236.7 326.4 236.4 326.4 236.4 326.2 236.5 326.4 236.4zM244.4 264.1C244.6 264 242.6 264.5 244.4 264.1 244.6 264 244.4 264.1 244.4 264.1zM252 270c3 1.6 4.3 2.7 9.5 2C252 276.8 253.9 271 252 270zM263 270.7C264.3 270.7 260.4 270.7 263 270.7 263.1 270.7 263 270.7 263 270.7zM258.2 299C258.9 298.8 256.6 299.3 258.2 299 258.4 298.9 258.1 299 258.2 299z" class="c"/><path d="M232.5 118.2c-0.9 2.8-0.2 6.9-0.2 9.9 -0.8-1.7-2.2-2.7-4-3 0 0.5 4 12.2 3.3 11.7 -0.6-0.4-2.9-7.7-3.4-6.8 -1.5 2.8-0.9 0-3.5 0 1.3 0 2.8 14.6 2.3 14.5 0.4 0.1-9.4-2.2-8.5-2.6 4.8-2.1-1 7.2-0.4 5.4 1-3.1 6.3 12.2 1.3 7.4 2.5 2.4 5.9-0.7 8 0.1 -1.2-0.9 4.8 5.8 5.2 5.3 -1.6 1.8-13-1.3-13-1.5 0.7 0.9 1.6 1.7 2.6 2.2 -6.9-2.6-8.1-5.6-14-1.3 -2.6 1.8 7.1 2.5 6.9 2.4 -1.2 0.5-2 1.4-2.5 2.7 2.1 0 3.9-0.7 5.4-2 -0.6-0.2-2.4 4.2-0.6 5 0.4 0.2 5.9-2.5 5.9-3.3 -1.1 1.2-2.2 2.4-3.3 3.7 0 0.7 13.6-0.7 12.7-4.4 3.1 12.7-23.5 4.3-23.5 9.5 0 1.5 8.5 7.1 7.7 8 -0.8 0.8-13.8 3.3-13.8 3.9 0 4.3 17.5 10.8 19.1 11.3 -1.8 0.2-16 2.7-17.9 4.3 -2.5 2.1 9.9 8.9 8.7 9.4 3.1-1.3-12.6 0.7-9.7 1.9 1.7 0.7 14.7 4 13.6 3.3 4.8 2.9-18.9 12.5-18.9 11.3 0 10.9 21.6 4 21.2 4 -0.5 0 2.5 1.7 2.7 1.1 -0.1 0.3-10.7 5.4-10.7 4.4 1.2 1.4 2.7 2.2 4.4 2.4 0.4 2.8-22.3 1.1-22.3 3.5 0 0.8 0.7 3.6 0.7 5.1 4.4 0.6 21.4 8.3 23.1 7.4 -3.4 1.8-23.7 0.3-24.6 1.4 -1.2 1.4 5.7 3.3 6.2 3.5 -1.3-0.2-2.5 0.1-3.5 1 0 4.1 11.7 3.7 12.8 3.8 -0.4-1.1 0.7 9.6 2.5 3 -2.4 8.8-23.7 2.6-25.9 6.6 -0.6 1.2 11.1 8.3 11.4 8.7 3.7 4.2-7.2 4.3-5.8 5.6 1.7 0.5 3.5 0.5 5.2 0 -1.4 0.6-2.5 1.6-3.2 3 0.3 0.8 10.4 2.7 9.7 3.6 -4.7 0.5-9.5 0.8-14.2 1.1 0-1.7-0.2 8.8-2.7 4.2 3.6 6.8 12.5-0.1 12.5 7.3 0-4.5 6.1-2.5 7.1-3.1 -2 0.3-23.7 6.2-20.7 11 0.1 0.2 14.5 5.6 18.3 2.9 -2.5 0.6-4.8 1.7-6.8 3.3 4.6 8.7 1.7-6.8 1.7 3.1 0 6 37.7 0.7 33.4-7.9 0.8 0.5 1.5 1 2.2 1.6 0.7 4.4-1.1 9-2.6 13 3.9 0 7.8 0 11.7 0 1.4-1.3-3.1-9.3-0.7-10.2 1.6-0.6 34.1 11.1 29.8 1.3 1.1 2.4 6.9 2.8 9.2 3.2 -0.8-0.1 1.7-3.2 4.9-3.1 -4.2-0.1 5.8-5.3 3.2-3 -1.1 1-10.8-4.2-11.5-4.5 4.2 1.8 6.4-12 10.6-8.1 -5.9-5.5 1.2 2.3 1.2-2.4 -2.1-0.5-4.3-1.1-6.4-1.7 2.6-0.8 5-2 7.1-3.7 11.9 13.9-15.1-3.8-5-2 -6.7-1.2-19.9 6.3-24.9-4.8 1.9 4.2 17.9-2.4 17.9 1.5 0-9.5 6.5 0.6 9.2-5.1 -1.4-0.7-2.5-1.6-3.1-3 2.9 1.6 4.7 1.2 5.6-1.1 -4.6-3.5-3.1 1.7-2-2.1 -0.8 2.7-26.9-5.7-27.8-6.5 3.1 3.2 23.2-2.5 28.7-6.1 -3.7 2.4 3-7.1 2.4-6.3 -1.3 1.8-19.6-1.3-20.3-3.5 -0.9-2.6 8.4-0.9 8-0.8 0.8-0.8-4.2-1.6 2.4-2.5 -1.1-0.6-2.2-1.2-3.3-1.9 1.8-1.3 5.3-1.2 6.7-3.9 -0.5 1-18.6-2.9-19.4-3.8 6.9 8.4 22.9-20.6 0.8-10.7 2.8-1.3 4.5-2.3 5.6-5.6 -0.4 1.4-13.5 0-14.3-0.4 3 1.6 4.7-6.6 4.5-6.3 1.8-0.7 9.1-5.1 10.6-5.1 -2 0-6.1-2-9.7-2.1 1.5 0.8-11.1-3.2-14-6.6 4.7 5.5 16.5-2 21-8.7 -9.9-2.4-19.1-0.8-27.4-8 7 6.1 12.9-3.6 16.3-6.1 2.2-1.6 4.2 1.4 7.9-3.1 -5.3 0.2-20.9 0.8-23.3-4.3 0.3 0.7 13.1-0.2 13.1 0 -1-1-1.8-2.1-2.2-3.4 4.3-0.1 5.5 1.7 9.1-2.5 -1.1 1.2-33.6-8.1-26.6-13.2 -6.3 4.6 11.7 3.1 8.4 3.1 0.6 0 2.3 5.1 3.8 4.1 0 0 7.5-5.3 7.5-4.1 0-2.9-12.2-7.8-12.2-5.4 0-0.5 4.5-4.9 4.6-4.8 -1.9 0-3.2-0.8-4.1-2.4 1.3-2.9 8.9-8.5 4.2-13.9 -3-3.4-11 12.7-12.8 11.4 -8.6-6.2 6.6-12.2 6.6-10.6 -0.8-2-2-3.1-3.9-3.2 1.4-1.6 3.3-1.9 5.6-1.1 -0.1 0.5-6.3-5.6-0.8-5.6 -19.2 0 1.1 4.4-4.6 0.3 -0.1-0.1-3.2 4.8-3.7 5.6 0.2-0.2 4.1-9.9 4.1-11C238.6 128.5 232.6 119 232.5 118.2L232.5 118.2zM229.3 137.5c2 0.1 3.2 6.7 2.5 6.7C231.3 144.2 229.8 137.5 229.3 137.5zM228.1 145.5C237.1 146.3 227.5 145.5 228.1 145.5 229 145.6 228.1 145.5 228.1 145.5zM241 150c0.8 0-3.5 5.2-5.3 5.2C234.7 155.2 240.3 150 241 150zM235.5 157.9C240.7 160.1 240.2 159.8 235.5 157.9L235.5 157.9zM240.7 159.2C244 159.8 241 159.3 240.7 159.2 240.8 159.2 240.7 159.2 240.7 159.2zM247.8 161.2C249.7 161.2 245.2 161.2 247.8 161.2 248.2 161.2 247.8 161.2 247.8 161.2zM236.7 170C238.3 170 234.9 170 236.7 170 237 170 236.7 170 236.7 170zM233.1 177.4C233.8 177.2 231.8 177.6 233.1 177.4 233.3 177.3 233.1 177.4 233.1 177.4zM236.9 178.5C237.5 178.4 236.1 178.6 236.9 178.5 236.9 178.5 236.9 178.5 236.9 178.5zM231 178.8C232.7 178.8 229.3 178.8 231 178.8 231.3 178.8 230.8 178.8 231 178.8zM228.7 179.9C230.4 179.9 227 179.9 228.7 179.9 229 179.9 228.4 179.9 228.7 179.9zM218.9 179.9c-0.2 0 8.4 2.2 8.4 1.1C227.3 187.4 216.1 179.6 218.9 179.9zM262.1 209C263.9 209 260.9 209 262.1 209 262.3 209 261.8 209 262.1 209zM222.7 215.6C221.5 215.6 213.6 215.6 222.7 215.6 223 215.6 222 215.6 222.7 215.6zM263.4 239.1C268.2 239 257.4 239.1 263.4 239.1 263.9 239.1 263.4 239.1 263.4 239.1zM273.9 242C275.6 241.9 272.5 242.1 273.9 242 274 242 273.7 242 273.9 242zM274 255.7C276 255 274.4 255.6 274 255.7 274 255.7 274 255.7 274 255.7zM192.1 277.9C192.2 277.9 190.5 278.1 192.1 277.9 192.3 277.9 192.1 277.9 192.1 277.9zM199.7 282.6c2.9 1.3 4.8 2.2 9.5 1.6C200.9 287.8 200.8 283.1 199.7 282.6zM210.6 283.2C211.9 283.2 208 283.2 210.6 283.2 210.7 283.2 210.6 283.2 210.6 283.2zM205.8 305.9C206.6 305.7 204.5 306.1 205.8 305.9 206 305.8 205.8 305.9 205.8 305.9z" class="a"/><path d="M512.2 86.4c-1 3.3-0.2 7.7-0.2 11.3 -0.7-1.9-2.1-3-4-3.4 0 0.9 3.6 13.7 3.3 13.4 -0.6-0.5-3-8.5-3.4-7.8 -1.6 3.3-0.7 0-3.5 0 1.2 0 2.7 16.7 2.3 16.6 0.8 0.3-9.9-2.2-8.5-3 2-1 2 15.8 1 14.6 2.3 2.5 5.9-0.2 8 0.1 2.8 2.2-1.7 3.7 4.4 2.2 0.4-0.5-12.1 10-12.1 2.2 0.7 1 1.5 1.9 2.6 2.5 -7-3.1-8-6.4-14-1.5 -2.9 2.4 7.3 3 6.9 2.7 -1.2 0.7-2.1 1.7-2.5 3.1 2.1-0.1 3.9-0.8 5.4-2.2 -0.5-0.2-2.4 4.8-0.6 5.7 0.4 0.2 5.8-2.9 5.8-3.8 -1.1 1.4-2.2 2.8-3.3 4.2 0 0.9 13.5-0.9 12.7-5.1 3.1 14.6-23.5 4.8-23.5 10.8 0 2.9 9.3 7.1 7.7 9.2 -0.6 0.8-13.8 4-13.8 4.4 0 4.9 17.5 12.5 19.1 13 -1.3 0.1-16.4 3.5-17.9 5 -2.8 2.7 10.3 10 8.7 10.8 1.3-0.6-8.6 0.6-9.2 0.5 -8-1.5 19.9 10.2 13.1 5.5 5.7 3.9-18.9 13.6-18.9 12.9 0 12.5 21.9 4.6 21.2 4.6 -0.6 0 2.5 1.9 2.7 1.3 -0.1 0.4-10.7 6-10.7 5.1 1.1 1.6 2.6 2.5 4.4 2.7 0.4 3.3-22.3 1.1-22.3 4 0 0.5 0.6 4.6 0.7 5.9 4.3 0.4 22.2 9 23.1 8.5 -3.1 1.9-24.3 1.2-24.6 1.6 -1.3 1.8 5.6 3.7 6.2 4 -1.3-0.2-2.5 0.2-3.5 1.1 0 4.7 11.7 4.4 12.8 4.4 -0.4-1 0.9 10.1 2.5 3.5 -1 4.3-19.1 7.8-19.4 8.1 -2-1-4.2-1.2-6.5-0.6 -0.7 1.5 11.3 9.8 11.4 9.9 0.5 1.1 0.6 2.2 0.4 3.4 -0.2-0.5-7.4 1.6-6.1 3.1 1.7 0.5 3.5 0.6 5.2 0 -1.5 0.7-2.6 1.9-3.2 3.5 0.2 0.8 10.4 3 9.7 4.1 -4.7 0.6-9.5 1-14.2 1.2 0-1.4-0.7 9-2.7 4.9 3.5 7.6 12.5 0.2 12.5 8.4 0-5.3 6-2.8 7.1-3.5 -2.2 0.4-23.8 6.9-20.7 12.6 -0.1-0.1 14.5 6.5 18.3 3.4 -2.6 0.7-4.9 2-6.8 3.8 3.7 8 1.7-6.5 1.7 3.5 0 5.8 38.2 2.2 33.4-9 0.8 0.5 1.5 1.1 2.2 1.8 0.7 5-1.1 10.3-2.6 14.9 3.9 0 7.8 0 11.7 0 1.6-1.7-3.4-10.5-0.8-11.6 0.6-0.3 25 7 26.7 7.5 2.2-1.2 4.4-2.6 3.1-6 1.1 2.8 6.8 3.2 9.2 3.7 -1.4-0.3 2.1-3.6 4.9-3.6 -4.3-0.1 5.4-5.6 3.2-3.4 -1 1-10.9-4.9-11.5-5.2 3.6 1.8 6.9-13.2 10.6-9.3 -5.7-6 1.2 2.3 1.2-2.8 -2.1-0.6-4.3-1.3-6.4-1.9 2.7-0.9 5-2.4 7.1-4.2 10.7 14.4-15.3-4.4-5-2.3 -6.8-1.4-20 6.9-24.9-5.5 -0.1-0.2 6.6 3.6 6.2 3.5 -1.9 0.9 11.6-8.3 11.6-1.7 0-10.1 6.8-0.1 9.2-5.9 -1.5-0.8-2.5-1.9-3.1-3.4 3 1.7 4.9 1.3 5.6-1.3 -4.5-4-3.1 1.9-2-2.5 -1.2 4.7-28.9-9.7-27.6-9.2 14.5 6.2 25.6-4 31-12.4 -1.3 2.1-19.7-1.7-20.3-4 -0.9-3.1 8.3-1 8-0.9 1.2-1.4-4.6-1.7 2.4-2.8 -1.1-0.7-2.2-1.4-3.3-2.1 2.1-1.3 5.4-1.6 6.7-4.5 -0.4 0.8-18.6-3.2-19.4-4.3 6.7 9.3 22.9-23.6 0.8-12.2 2.7-1.4 4.6-2.8 5.6-6.4 -0.9 3.1-14.8-1.6-14.8-1.6 7.6-0.3 3-3.7 5.1-6.2 10.5-4.6 13.3-7.6 0.9-8.2 2.4 1.4 0.9-6-0.3-4.5 -6.8 8.4-11.4-3.7-13.7-3.7 9.7 0 13.8 3.5 21-9.3 -9.9-2.7-19.5-1.3-27.4-9.1 7 6.9 12.8-4.1 16.3-7 1.7-1.4 4.4 1.4 7.9-3.5 -5.5 0-20.9 0.8-23.3-5 0.3 0.7 13.1-0.1 13.1 0 -1.1-1.1-1.8-2.4-2.2-3.9 4.3-0.1 5.5 2 9.1-2.9 0 0-35.3-7.9-26.6-15.1 -1 0.8 2.2 7.5 3.1 6.6 5.6-6.2-6.9 0.7 3.8 0.7 1.2 0 0-3.8 1.6-3.8 0.3 0 2.5 5.7 3.8 4.7 0 0 7.5-5.8 7.5-4.7 0-3.1-12.2-8.9-12.2-6.1 0-0.5 1.6-11 0.5-8.3 1.4-3.4 8.8-9.8 4.2-15.9 -2.4-3.2-11.7 13.9-12.8 13 -8.8-7.2 6.6-13.4 6.6-12.2 -0.6-2.3-1.9-3.5-3.9-3.7 1.3-1.7 3.1-2.1 5.6-1.2 -0.1 0.4-6.4-6.4-0.8-6.4 -17.9 0 1 5-4.6 0.4 0.1 0.1-3.1 5.5-3.7 6.4 0.5-0.8 4.1-10.9 4.1-12.6C518.3 98.2 512.3 86.7 512.2 86.4zM509 108.4c2.2 0.2 3.2 7.7 2.5 7.7C511 116.2 509.6 108.5 509 108.4 509.2 108.4 508.9 108.4 509 108.4zM507.9 117.7C517.1 118.6 507.1 117.6 507.9 117.7 508.7 117.8 507.9 117.7 507.9 117.7zM520.7 122.8c0.9 0-3.5 5.9-5.3 5.9C514.3 128.7 520.1 122.8 520.7 122.8zM515.2 131.8C520.4 134.3 519.9 134 515.2 131.8L515.2 131.8zM520.4 133.3C523.7 134 520.8 133.4 520.4 133.3 520.5 133.4 520.2 133.3 520.4 133.3zM527.5 135.6C529.5 135.6 524.9 135.6 527.5 135.6 527.9 135.6 527.1 135.6 527.5 135.6zM516.4 145.7C518 145.7 514.7 145.7 516.4 145.7 516.7 145.7 516.4 145.7 516.4 145.7zM512.8 154.1C513.6 153.9 511.3 154.4 512.8 154.1 513 154.1 512.8 154.1 512.8 154.1zM516.6 155.4C516.8 155.4 516 155.5 516.6 155.4 516.7 155.4 516.5 155.4 516.6 155.4zM510.8 155.8C512.5 155.8 509 155.8 510.8 155.8 511 155.8 510.5 155.8 510.8 155.8zM508.4 157C510.1 157 506.7 157 508.4 157 508.7 157 508.2 157 508.4 157zM498.6 157c-0.1 0 8.4 2.6 8.4 1.2C507 165.5 495.7 156.7 498.6 157zM541.8 190.3C543.7 190.3 540.5 190.3 541.8 190.3 542.1 190.3 541.5 190.3 541.8 190.3zM502.5 197.9C501.4 197.9 493.1 197.9 502.5 197.9 502.8 197.9 501.8 197.9 502.5 197.9zM543.1 224.7C547.9 224.7 537.1 224.8 543.1 224.7 543.6 224.7 542.2 224.7 543.1 224.7zM553.6 228.1C555.3 228 552.2 228.2 553.6 228.1 553.8 228.1 553.4 228.2 553.6 228.1zM553.7 243.8C556.1 243 553.6 243.8 553.7 243.8 553.8 243.8 553.6 243.9 553.7 243.8zM471.8 269.2C472 269.2 470.1 269.5 471.8 269.2 472 269.2 471.7 269.2 471.8 269.2zM479.4 274.6c2.9 1.5 4.5 2.5 9.5 1.9C479.8 280.8 481 275.4 479.4 274.6zM490.3 275.3C491.7 275.3 487.7 275.3 490.3 275.3 490.4 275.3 490.3 275.3 490.3 275.3zM485.6 301.2C486.2 301.1 484.2 301.5 485.6 301.2 485.7 301.2 485.6 301.2 485.6 301.2z" class="c"/><path d="M527.9 149.1c-0.1 2.8-0.2 5.6-0.2 8.5 -0.9-1.5-2.2-2.4-4-2.5 0 0.2 4.4 10.7 3.3 10 -4-2.4-1.2-5.9-6.8-5.9 -2.7 0 3.8 10.2 3.7 8.6 0-0.5-7 2.4-1.4 3.8 0 0-8.8-2.1-8.5-2.2 4.7-1.8-1 6.3-0.4 4.6 1.1-3 6.7 10.8 1.3 6.3 2.5 2.1 5.8-0.6 8 0.1 1.5 1-0.7 2.7 4.4 1.6 0.6 0.9 0.8 1.9 0.8 2.9 -1.5 1.6-13-1.1-13-1.2 0.7 0.8 1.6 1.4 2.6 1.9 -7.2-1.4-7.7-5-14-1.1 -2.1 1.3 7 2.1 6.9 2 -1.1 0.4-2 1.2-2.5 2.3 2 0 3.8-0.6 5.4-1.7 -0.7-0.2-2.3 3.6-0.6 4.3 0.3 0.1 5.8-2.1 5.8-2.8 -1.1 1-2.2 2.1-3.3 3.1 0 0.7 13.6-0.6 12.7-3.8 3.1 10.7-23.5 3.8-23.5 8.1 0 1.2 8.3 6.3 7.7 6.9 -0.9 0.9-13.8 2.7-13.8 3.3 0 3.7 17.4 9.3 19.1 9.7 -2.4 0.2-15.4 1.9-17.9 3.7 -2.1 1.5 9.5 7.8 8.7 8.1 2.9-1.1-12.1 0.8-9.7 1.6 2.2 0.8 13.6 2.9 13.6 2.9 3.8 2-18.9 11.3-18.9 9.7 0 8.3 23.7 4.9 23.9 4.4 -0.1 0.2-10.7 4.7-10.7 3.8 1.3 1.2 2.7 1.9 4.4 2 0.4 2.3-22.3 1-22.3 3 0 1.3 0.7 2.4 0.7 4.4 5.4 0.5 19.9 7.8 23.1 6.4 -3.7 1.7-23-0.4-24.6 1.2 1.7 1.9 3.8 2.9 6.2 3 -1.3-0.2-2.5 0.1-3.5 0.8 0 3.5 11.6 3.2 12.8 3.3 -0.1-0.3 0.7 8.4 2.5 2.6 -2.6 8.3-23.5 1.8-25.9 5.6 0.2-0.4 11.2 8.9 11.8 9.9 -0.5-0.8-6.8 1.8-6.1 2.3 1.7 0.4 3.5 0.4 5.2 0 -1.4 0.5-2.5 1.3-3.2 2.6 0.3 0.7 10.3 2.4 9.7 3.1 -4.7 0.4-9.5 0.7-14.2 0.9 0-2 0.3 8.5-2.7 3.6 3.7 5.9 12.5-0.3 12.5 6.3 0-3.5 6.4-2.4 7.1-2.6 0.1 0-18.5 5.7-18.7 5.4 0.5 0.8-0.8 5.7-2 4 0.3 0.4 14.5 4.8 18.3 2.5 -2.5 0.5-4.8 1.4-6.8 2.9 5.6 9.2 1.7-6.8 1.7 2.6 0 6.3 36.9-0.8 33.4-6.7 2.5 4.3 1.9 7.2-0.4 12.5 3.9 0 7.8 0 11.7 0 1.2-1-2.9-8-0.7-8.7 1.8-0.6 33.8 9.1 29.8 1.1 0.4 0.7 7.7 2.5 9.2 2.8 -2.3-0.4 6.7-4.2 8-5.2 -1.2 0.9-10.7-3.6-11.5-3.9 4.8 1.8 5.8-10.7 10.6-7 -6.1-4.8 1.2 2.1 1.2-2.1 -2.1-0.5-4.3-0.9-6.4-1.4 2.6-0.7 4.9-1.7 7.1-3.2 13.4 13.4-15.1-3.3-5-1.7 -6.6-1-19.7 5.6-24.9-4.1 1.9 3.5 17.9-2 17.9 1.3 0-8.8 6 1.3 9.2-4.4 -1.4-0.5-2.4-1.4-3.1-2.5 2.7 1.5 4.6 1.2 5.6-0.9 -4.6-3-3.1 1.5-2-1.8 -0.9 2.6-27-4.9-27.8-5.6 3.5 3.1 23.1-2.1 28.7-5.2 -0.5 0.3-3.7-4.6 0.7-5.5 -2.1 0.4-17.5 0.1-18.7-2.9 -0.8-2.1 8.5-0.7 8-0.7 0.2-0.1-3.4-1.3 2.4-2.1 -1.1-0.5-2.2-1.1-3.3-1.6 1.8-1.2 5.2-0.9 6.7-3.3 -0.7 1.1-18.6-2.4-19.4-3.2 7.2 7.5 22.7-17.7 0.8-9.1 0.7-0.3 5-2.1 5-2.7 0-3.4-1.4 3.2 0.6-2.1 -0.9 2.5-14.4-1.2-14.8-1.2 7-0.2 3.7-3.1 5.1-4.6 2-0.7 8.8-4.3 10.6-4.3 -2.1 0-6.2-1.7-9.7-1.8 2.8 1-11.4-6.2-14-6.2 9.7 0 12.9 2.5 21-6.9 -9.9-2-18.6-0.3-27.4-6.8 6.8 5.1 20.2-4.1 24.2-7.8 -5.2-0.3-21.1 0.3-23.3-3.7 0.4 0.8 13.1-0.4 13.1 0 -1-0.8-1.7-1.7-2.2-2.9 4.3-0.1 5.5 1.4 9.1-2.2 -2.3 2.3-31.5-8.3-26.6-11.3 -3.7 2.3 19.7 7.7 19.7 2.6 0-2.6-12.2-6.7-12.2-4.6 0-0.5 4.5-4.2 4.6-4.1 -1.8 0.1-3.1-0.6-4.1-2.1 0.2-0.4 6.1-0.9 6.1-2.5 0 0.9-3.5-11-1.9-9.4 -3.5-3.4-10.3 11.3-12.8 9.8 -8.2-5 6.6-11 6.6-9.1 -0.9-1.8-2.2-2.7-3.9-2.7 1.5-1.4 3.4-1.7 5.6-0.9 -0.2 0.6-6.2-4.8-0.8-4.8 -21 0 1.1 3.8-4.6 0.3 2.8 1.8-3 3.9-3.7 4.8 -0.2 0.3 4.1-8.9 4.1-9.4C534 158.4 528 149.6 527.9 149.1zM524.7 165.6C530.2 165.9 526.4 165.7 524.7 165.6 524.9 165.6 524.7 165.6 524.7 165.6zM523.5 172.5C532.6 173.2 522.8 172.4 523.5 172.5 524.4 172.6 523.5 172.5 523.5 172.5zM536.4 176.3c0.7 0-3.5 4.4-5.3 4.4C530.2 180.8 535.5 176.3 536.4 176.3zM530.9 183.1C536.2 185 535.6 184.7 530.9 183.1L530.9 183.1zM536.1 184.2C539.3 184.7 536.4 184.3 536.1 184.2 536.2 184.2 536.1 184.2 536.1 184.2zM543.2 186C545.1 186 540.7 186 543.2 186 543.6 186 543.2 186 543.2 186zM532.1 193.5C533.7 193.5 530.3 193.5 532.1 193.5 532.4 193.5 532.1 193.5 532.1 193.5zM528.5 199.8C529.4 199.6 527.2 200 528.5 199.8 528.7 199.7 528.5 199.8 528.5 199.8zM532.3 200.8C533.4 200.7 531.3 200.9 532.3 200.8 532.3 200.8 532.2 200.8 532.3 200.8zM526.5 201C528.1 201 524.7 201 526.5 201 526.7 201 526.5 201 526.5 201zM524.1 201.9C525.8 201.9 522.4 201.9 524.1 201.9 524.4 201.9 523.8 201.9 524.1 201.9zM514.3 202c-0.3 0 8.4 1.9 8.4 0.9C522.7 208.4 511.7 201.7 514.3 202zM557.5 226.9C559.2 226.9 556.3 226.9 557.5 226.9 557.7 226.9 557.2 226.9 557.5 226.9zM518.1 232.5C516.7 232.5 509.2 232.5 518.1 232.5 518.4 232.5 517.5 232.5 518.1 232.5zM558.8 252.6C563.6 252.6 552.8 252.6 558.8 252.6 559.3 252.6 557.9 252.6 558.8 252.6zM569.3 255.2C571.1 255.1 567.9 255.2 569.3 255.2 569.5 255.2 569.1 255.2 569.3 255.2zM569.4 266.9C571.8 266.2 569.7 266.8 569.4 266.9 569.4 266.9 569.3 266.9 569.4 266.9zM487.5 285.9C487.7 285.8 486 286.1 487.5 285.9 487.7 285.8 487.5 285.9 487.5 285.9zM495.1 289.9c2.8 1.1 5.2 1.9 9.5 1.4C497.2 294.2 495.6 290.1 495.1 289.9zM506 290.4C507.2 290.4 503.4 290.4 506 290.4 506.1 290.4 506 290.4 506 290.4zM501.2 309.8C502.1 309.7 500 310 501.2 309.8 501.4 309.8 501.2 309.8 501.2 309.8z" class="d"/><path d="M195.6 84.6c-1 3.4-0.2 7.8-0.2 11.4 -0.7-1.9-2.1-3-4-3.4 0 1 3.6 13.7 3.3 13.5 -0.6-0.5-3-8.6-3.4-7.9 -1.6 3.3-0.7 0-3.5 0 1.2 0 2.7 16.8 2.3 16.7 0.8 0.3-9.9-2.2-8.5-3 2-1 2 15.9 1 14.7 2.3 2.5 5.9-0.2 8 0.1 2.8 2.2-1.7 3.7 4.4 2.2 0.4-0.5-12.1 10.1-12.1 2.3 0.7 1 1.5 1.9 2.6 2.5 -7-3.1-8-6.5-14-1.5 -2.9 2.4 7.3 3 6.9 2.7 -1.2 0.7-2.1 1.7-2.5 3.1 2.1-0.1 3.9-0.8 5.4-2.3 -0.5-0.1-2.4 4.8-0.6 5.8 0.4 0.2 5.9-2.9 5.9-3.8 -1.1 1.4-2.2 2.8-3.3 4.2 0 0.9 13.5-0.9 12.7-5.1 3.1 14.7-23.5 4.8-23.5 10.9 0 2.9 9.3 7.2 7.7 9.2 -0.6 0.8-13.8 4-13.8 4.4 0 4.9 17.5 12.6 19.1 13.1 -1.2 0.1-16.5 3.6-17.9 5 -2.8 2.8 10.3 10.1 8.7 10.9 1.3-0.6-8.6 0.6-9.2 0.5 -8-1.5 20 10.3 13.1 5.6 5.7 3.9-18.9 13.6-18.9 13 0 12.6 21.9 4.6 21.2 4.6 -0.6 0 2.5 1.9 2.7 1.3 -0.1 0.4-10.7 6-10.7 5.1 1.1 1.6 2.6 2.5 4.4 2.7 0.4 3.3-22.3 1.2-22.3 4.1 0 0.5 0.6 4.7 0.7 5.9 4.3 0.4 22.3 9.1 23.1 8.6 -3.2 1.9-24.3 1.2-24.6 1.6 -1.3 1.8 5.6 3.7 6.2 4.1 -1.3-0.2-2.5 0.2-3.5 1.1 0 4.7 11.7 4.4 12.8 4.4 -0.4-1 0.9 10.2 2.5 3.5 -1 4.4-19 7.8-19.4 8.2 -2-1-4.2-1.2-6.5-0.6 -0.7 1.5 11.3 9.8 11.4 10 0.5 1.1 0.6 2.2 0.4 3.4 -0.2-0.5-7.5 1.6-6.1 3.1 1.7 0.5 3.5 0.6 5.2 0 -1.5 0.7-2.6 1.9-3.2 3.5 0.2 0.8 10.4 3 9.7 4.1 -4.7 0.6-9.5 1-14.2 1.2 0-1.4-0.7 9.1-2.7 4.9 3.5 7.6 12.5 0.3 12.5 8.5 0-5.3 6-2.8 7.1-3.6 -2.2 0.4-23.8 6.9-20.7 12.7 -0.1-0.1 14.5 6.5 18.3 3.4 -2.6 0.7-4.9 2-6.8 3.9 3.7 7.9 1.7-6.5 1.7 3.6 0 5.8 38.3 2.2 33.4-9.1 0.8 0.5 1.5 1.1 2.2 1.8 0.7 5-1.1 10.3-2.6 15 3.9 0 7.8 0 11.7 0 1.6-1.7-3.4-10.5-0.7-11.7 0.5-0.2 25.1 7.1 26.7 7.6 2.2-1.2 4.4-2.6 3.1-6 1.1 2.8 6.8 3.2 9.2 3.7 -1.4-0.3 2-3.7 4.9-3.6 -4.3-0.1 5.4-5.7 3.2-3.4 0.7-0.7-10.4-3.2-11.2-3.6 0.4 0.2 7.4-14.1 10.2-11 -5.7-6.1 1.2 2.3 1.2-2.8 -2.1-0.6-4.3-1.3-6.4-1.9 2.7-0.9 5-2.4 7.1-4.3 10.7 14.4-15.3-4.5-5-2.3 -6.8-1.4-20 6.9-24.9-5.5 -0.1-0.2 6.6 3.6 6.2 3.5 -2 0.9 11.6-8.3 11.6-1.7 0-10.2 6.8-0.1 9.2-5.9 -1.5-0.8-2.5-2-3.1-3.4 3 1.7 4.9 1.3 5.6-1.3 -4.5-4-3.1 1.9-2-2.5 -1.2 4.7-28.9-9.8-27.7-9.2 14.5 6.2 25.6-4 30.9-12.5 -1.3 2.1-19.7-1.7-20.3-4 -0.9-3.1 8.3-1 8-0.9 1.2-1.4-4.6-1.8 2.4-2.8 -1.1-0.7-2.2-1.4-3.3-2.1 2.1-1.3 5.4-1.6 6.7-4.5 -0.4 0.8-18.6-3.2-19.4-4.3 6.7 9.3 22.9-23.7 0.8-12.3 2.7-1.4 4.6-2.8 5.6-6.4 -0.9 3.1-14.8-1.6-14.8-1.6 7.6-0.4 2.9-3.7 5.1-6.2 10.7-4.6 13.2-7.5 0.9-8.3 2.3 1.4 0.9-6-0.3-4.6 -6.8 8.5-11.4-3.7-13.7-3.7 9.7 0 13.9 3.5 21-9.3 -9.9-2.7-19.5-1.3-27.4-9.2 7 7 12.8-4.1 16.3-7 1.7-1.4 4.4 1.4 7.9-3.5 -5.5 0-20.9 0.8-23.3-5 0.3 0.7 13.1-0.1 13.1 0 -1-1.1-1.8-2.4-2.2-3.9 4.3-0.1 5.5 2 9.1-2.9 0 0-35.3-7.9-26.6-15.2 -1 0.8 2.2 7.6 3.1 6.6 5.6-6.3-6.9 0.7 3.8 0.7 1.2 0 0-3.8 1.6-3.8 0.3 0 2.5 5.8 3.8 4.7 0 0 7.5-5.9 7.5-4.7 0-3.2-12.2-9-12.2-6.2 0-0.5 1.5-11 0.5-8.4 1.4-3.4 8.8-9.9 4.2-16 -2.4-3.2-11.7 14-12.8 13.1 -8.8-7.3 6.6-13.5 6.6-12.3 -0.6-2.3-1.9-3.5-3.9-3.7 1.3-1.7 3.1-2.2 5.6-1.2 -0.1 0.4-6.4-6.5-0.8-6.5 -17.9 0 1 5.1-4.6 0.4 0.1 0.1-3.1 5.5-3.7 6.4 0.5-0.9 4.1-10.9 4.1-12.7C201.7 96.5 195.7 85 195.6 84.6zM192.4 106.8c2.2 0.2 3.2 7.8 2.5 7.8C194.4 114.6 193 106.9 192.4 106.8L192.4 106.8zM191.3 116.1C200.6 117 190.5 116 191.3 116.1 192.2 116.2 191.2 116.1 191.3 116.1zM204.1 121.3c0.9 0-3.5 6-5.3 6C197.7 127.2 203.5 121.3 204.1 121.3 204.2 121.3 203.8 121.3 204.1 121.3zM198.7 130.3C203.8 132.8 203.3 132.6 198.7 130.3L198.7 130.3zM203.8 131.9C207.1 132.5 204.2 132 203.8 131.9 203.9 131.9 203.8 131.9 203.8 131.9zM210.9 134.2C212.9 134.2 208.3 134.2 210.9 134.2 211.3 134.2 210.9 134.2 210.9 134.2zM199.8 144.3C201.4 144.3 198.1 144.3 199.8 144.3 200.1 144.3 199.8 144.3 199.8 144.3zM196.3 152.8C197 152.6 194.8 153.1 196.3 152.8 196.4 152.7 196.2 152.8 196.3 152.8zM200.1 154.1C200.9 154 199 154.2 200.1 154.1 200.1 154.1 200 154.1 200.1 154.1zM194.2 154.4C195.9 154.4 192.4 154.4 194.2 154.4 194.5 154.4 194.2 154.4 194.2 154.4zM191.9 155.7C193.6 155.7 190.1 155.7 191.9 155.7L191.9 155.7zM182.1 155.7c-0.1 0 8.4 2.6 8.4 1.2C190.4 164.3 179.1 155.3 182.1 155.7zM225.2 189.2C227.1 189.2 223.9 189.2 225.2 189.2 225.5 189.2 224.9 189.2 225.2 189.2zM185.9 196.8C184.9 196.8 176.6 196.8 185.9 196.8 186.2 196.8 185.9 196.8 185.9 196.8zM226.5 223.8C231.4 223.8 220.5 223.9 226.5 223.8 227 223.8 226.5 223.8 226.5 223.8zM237 227.2C238.8 227.1 235.6 227.3 237 227.2 237.2 227.2 236.9 227.2 237 227.2zM237.2 243C239.5 242.1 236.9 243.1 237.2 243 237.2 243 237 243 237.2 243zM155.2 268.5C155.3 268.5 153.6 268.8 155.2 268.5 155.4 268.5 155.2 268.5 155.2 268.5zM162.8 274c2.9 1.5 4.5 2.5 9.5 1.9C163.2 280.2 164.4 274.8 162.8 274zM173.8 274.7C175.1 274.6 171.1 274.7 173.8 274.7 173.9 274.7 173.8 274.7 173.8 274.7zM169 300.7C169.9 300.6 167.4 301.1 169 300.7 169.1 300.7 168.9 300.7 169 300.7z" fill="#62A4A2"/><path d="M266.3 147.4c-0.1 2.8-0.2 5.6-0.2 8.5 -0.9-1.5-2.2-2.4-4-2.5 0 0.2 4.4 10.7 3.3 10 -4-2.5-1.2-5.9-6.8-5.9 -2.6 0 3.8 10.2 3.7 8.6 0-0.5-7 2.4-1.4 3.8 0 0-8.8-2.1-8.5-2.2 4.7-1.8-1 6.3-0.4 4.6 1.1-3 6.7 10.8 1.3 6.3 2.5 2.1 5.8-0.6 8 0.1 1.5 1-0.7 2.7 4.4 1.6 0.5 0.9 0.8 1.9 0.8 2.9 -1.5 1.5-13-1.1-13-1.2 0.7 0.8 1.6 1.4 2.6 1.9 -7.2-1.4-7.7-5-14-1.1 -2.1 1.3 7 2.1 6.9 2 -1.1 0.4-2 1.2-2.5 2.3 2 0 3.8-0.6 5.4-1.7 -0.7-0.2-2.3 3.6-0.6 4.3 0.3 0.1 5.9-2.1 5.9-2.8 -1.1 1-2.2 2.1-3.3 3.1 0 0.7 13.6-0.6 12.7-3.8 3.1 10.7-23.5 3.8-23.5 8.1 0 1.2 8.3 6.3 7.7 6.9 -0.9 0.9-13.8 2.7-13.8 3.3 0 3.7 17.4 9.3 19.1 9.7 -2.4 0.2-15.4 1.9-17.9 3.7 -2 1.5 9.5 7.8 8.7 8.1 2.9-1.1-12.1 0.8-9.7 1.6 2.2 0.8 13.7 2.9 13.6 2.9 3.8 2-18.9 11.3-18.9 9.7 0 8.3 23.7 4.9 23.9 4.4 -0.1 0.2-10.7 4.7-10.7 3.8 1.3 1.2 2.7 1.9 4.4 2 0.4 2.3-22.3 1-22.3 3 0 1.3 0.7 2.4 0.7 4.4 5.4 0.5 19.9 7.8 23.1 6.4 -3.8 1.7-23-0.4-24.6 1.2 1.7 1.9 3.8 2.9 6.2 3 -1.3-0.2-2.5 0.1-3.5 0.8 0 3.6 11.6 3.2 12.8 3.3 -0.1-0.3 0.7 8.4 2.5 2.6 -2.6 8.3-23.5 1.8-25.9 5.6 0.2-0.4 11.2 8.9 11.8 9.9 -0.5-0.9-6.8 1.8-6.1 2.3 1.7 0.4 3.5 0.4 5.2 0 -1.4 0.5-2.5 1.3-3.2 2.6 0.3 0.7 10.3 2.4 9.7 3.1 -4.7 0.4-9.5 0.7-14.2 0.9 0-2 0.3 8.5-2.7 3.6 3.7 5.9 12.5-0.3 12.5 6.3 0-3.5 6.4-2.4 7.1-2.6 0.1 0-18.5 5.7-18.7 5.4 0.5 0.8-0.8 5.7-2 4 0.3 0.4 14.5 4.8 18.3 2.5 -2.5 0.5-4.8 1.4-6.8 2.9 5.7 9.1 1.7-6.7 1.7 2.6 0 6.3 36.9-0.8 33.4-6.8 2.5 4.3 2 7.2-0.4 12.5 3.9 0 7.8 0 11.7 0 1.2-1-2.9-8-0.7-8.7 1.8-0.6 33.9 9.1 29.8 1.1 0.4 0.7 7.7 2.5 9.2 2.8 -2.3-0.4 6.7-4.2 8.1-5.2 -1.2 0.9-10.7-3.6-11.5-3.9 4.8 1.8 5.8-10.7 10.6-7 -6.1-4.8 1.2 2.1 1.2-2.1 -2.1-0.5-4.3-0.9-6.4-1.4 2.6-0.7 4.9-1.7 7.1-3.2 13.2 13.4-15-3.3-5-1.7 -6.6-1-19.8 5.6-24.9-4.1 1.9 3.5 17.9-2 17.9 1.3 0-8.8 6.1 1.3 9.2-4.4 -1.4-0.5-2.4-1.4-3.1-2.5 2.7 1.5 4.6 1.2 5.6-0.9 -4.6-3-3.1 1.5-2-1.8 -0.9 2.6-27.1-5-27.8-5.6 3.5 3.1 23.1-2.1 28.7-5.2 -0.6 0.3-3.7-4.6 0.7-5.5 -2.1 0.4-17.5 0.1-18.7-2.9 -0.8-2.1 8.5-0.7 8-0.7 0.2-0.1-3.5-1.3 2.4-2.1 -1.1-0.5-2.2-1.1-3.3-1.6 1.8-1.2 5.2-0.9 6.7-3.3 -0.7 1.1-18.6-2.4-19.4-3.2 7.2 7.5 22.8-17.5 0.8-9.1 0.7-0.3 5-2.1 5-2.7 0-3.4-1.4 3.2 0.6-2.1 -0.9 2.5-14.4-1.2-14.8-1.2 7-0.2 3.7-3.1 5.1-4.6 2-0.7 8.8-4.3 10.6-4.3 -2.1 0-6.2-1.7-9.7-1.8 2.8 1-11.4-6.2-14-6.2 9.7 0 12.9 2.5 21-6.9 -9.9-2-18.6-0.3-27.4-6.8 6.8 5.1 20.2-4.1 24.2-7.8 -5.2-0.3-21.1 0.3-23.3-3.7 0.4 0.8 13.1-0.4 13.1 0 -1-0.8-1.7-1.7-2.2-2.9 4.3-0.1 5.5 1.4 9.1-2.2 -2.3 2.3-31.5-8.3-26.6-11.3 -3.7 2.3 19.7 7.7 19.7 2.6 0-2.6-12.2-6.7-12.2-4.6 0-0.5 4.5-4.2 4.6-4.1 -1.8 0.1-3.1-0.6-4.1-2.1 0.2-0.4 6.1-0.9 6.1-2.5 0 0.9-3.5-11-1.9-9.4 -3.5-3.4-10.3 11.3-12.8 9.8 -8.2-5.1 6.6-11 6.6-9.1 -0.9-1.8-2.2-2.7-3.9-2.7 1.5-1.4 3.4-1.7 5.6-0.9 -0.2 0.6-6.2-4.8-0.8-4.8 -21 0 1.1 3.8-4.6 0.3 2.8 1.8-3 3.9-3.7 4.8 -0.2 0.3 4.1-8.9 4.1-9.4C272.4 156.7 266.4 147.9 266.3 147.4zM263.1 163.9C268.5 164.2 265.1 164 263.1 163.9 263.4 163.9 263.1 163.9 263.1 163.9zM262 170.8C271.4 171.5 260.9 170.7 262 170.8 262.9 170.8 262 170.8 262 170.8zM274.8 174.6c0.7 0-3.5 4.4-5.3 4.4C268.7 179.1 274 174.6 274.8 174.6zM269.4 181.3C274.6 183.2 274 183 269.4 181.3L269.4 181.3zM274.5 182.5C277.8 183 274.9 182.6 274.5 182.5 274.7 182.5 274.5 182.5 274.5 182.5zM281.6 184.2C283.5 184.2 279.1 184.2 281.6 184.2 282 184.2 281.6 184.2 281.6 184.2zM270.6 191.8C272.2 191.8 268.8 191.8 270.6 191.8 270.8 191.8 270.6 191.8 270.6 191.8zM267 198C267.8 197.9 265.7 198.3 267 198 267.1 198 266.9 198 267 198zM270.8 199C272 198.9 269.6 199.1 270.8 199 270.8 199 270.7 199 270.8 199zM264.9 199.3C266.6 199.3 263.2 199.3 264.9 199.3 265.2 199.3 264.9 199.3 264.9 199.3zM262.6 200.2C264.2 200.2 260.8 200.2 262.6 200.2 262.8 200.2 262.3 200.2 262.6 200.2zM252.8 200.2c-0.3 0 8.4 1.9 8.4 0.9C261.2 206.7 250.2 200 252.8 200.2zM295.9 225.2C297.7 225.2 294.8 225.2 295.9 225.2 296.2 225.2 295.7 225.2 295.9 225.2zM256.6 230.8C255.2 230.8 247.6 230.8 256.6 230.8 256.9 230.8 256.6 230.8 256.6 230.8zM297.2 250.9C302 250.9 291.2 250.9 297.2 250.9 297.7 250.9 296.4 250.9 297.2 250.9zM307.8 253.4C309.5 253.4 306.3 253.5 307.8 253.4 307.9 253.4 307.6 253.4 307.8 253.4zM307.9 265.1C310.3 264.5 308.2 265.1 307.9 265.1 307.9 265.1 307.7 265.2 307.9 265.1zM225.9 284.2C226.2 284.1 224.4 284.4 225.9 284.2 226.2 284.1 225.9 284.2 225.9 284.2zM233.5 288.2c2.8 1.1 5.2 1.9 9.5 1.4C235.7 292.5 234.1 288.4 233.5 288.2zM244.5 288.7C245.7 288.7 241.8 288.7 244.5 288.7 244.6 288.7 244.5 288.7 244.5 288.7zM239.7 308.1C240.6 308 238.4 308.3 239.7 308.1 239.9 308.1 239.6 308.1 239.7 308.1z" class="d"/></svg>