<svg version="1.1" id="Layer_1" xmlns="http://www.w3.org/2000/svg" xmlns:xlink="http://www.w3.org/1999/xlink" viewBox="0 0 768 430" enable-background="new 0 0 768 430" xml:space="preserve">
<g>
	<g>
		<path fill="#D6974C" d="M526.71,98.357l-16.626-16.628l-2.398,2.729c-5.672-2.362-11.885-3.681-18.406-3.681H283.777
			c-26.475,0-48.011,21.536-48.011,48.011c0,6.506,1.355,12.778,3.792,18.535c-1.687,1.34-2.782,2.281-2.782,2.281l13.13,13.127
			c0.004-0.011,0.008-0.019,0.015-0.03c4.497,4.497,9.875,8.152,15.937,10.596v180.707c0,1.778,0.185,3.513,0.459,5.21l-4.06,4.626
			l16.628,16.632c5.886,5.882,14.009,9.526,22.963,9.526h176.364c17.917,0,32.496-14.575,32.496-32.488V176.804
			c17.939-7.231,30.086-24.869,30.086-44.507C540.796,119.057,535.406,107.05,526.71,98.357z"/>
		<g>
			<path fill="#F3BF6D" d="M517.599,115.662c0-22.881-18.558-41.446-41.447-41.446H270.646c-22.884,0-41.442,18.564-41.442,41.446
				c0,18.954,12.73,34.891,30.094,39.829v185.384c0,14.328,11.605,25.928,25.92,25.928h176.364c14.319,0,25.927-11.6,25.927-25.928
				V155.491C504.867,150.553,517.599,134.605,517.599,115.662z"/>
			<path fill="#D6974C" d="M461.582,373.365H285.218c-17.915,0-32.49-14.572-32.49-32.49V160.168
				c-17.94-7.227-30.089-24.869-30.089-44.506c0-26.474,21.536-48.011,48.007-48.011h205.506c26.477,0,48.008,21.537,48.008,48.011
				c0,19.637-12.142,37.279-30.085,44.506v180.707C494.074,358.793,479.499,373.365,461.582,373.365z M270.646,80.778
				c-19.233,0-34.88,15.651-34.88,34.884c0,15.493,10.416,29.274,25.325,33.514l4.768,1.355v190.343
				c0,10.678,8.686,19.362,19.359,19.362h176.364c10.676,0,19.365-8.685,19.365-19.362V150.532l4.768-1.355
				c14.91-4.24,25.318-18.021,25.318-33.514c0-19.233-15.645-34.884-34.882-34.884H270.646z"/>
		</g>
	</g>
</g>
</svg>
