<svg version="1.1" id="Layer_1" xmlns="http://www.w3.org/2000/svg" xmlns:xlink="http://www.w3.org/1999/xlink" viewBox="0 0 768 430" enable-background="new 0 0 768 430" xml:space="preserve">
<g>
	<linearGradient id="SVGID_1_" gradientUnits="userSpaceOnUse" x1="527.1348" y1="277.3203" x2="168.4745" y2="277.3203">
		<stop  offset="0" style="stop-color:#FFC500"/>
		<stop  offset="1" style="stop-color:#F98900"/>
	</linearGradient>
	<path fill-rule="evenodd" clip-rule="evenodd" fill="url(#SVGID_1_)" d="M359.868,211.854c-83.198,0-157.804,9.309-179.571,36.707
		c-4.534,5.68-2.816,22.577-2.816,28.783c0,36.038,81.909,65.441,182.387,65.441s182.388-29.403,182.388-65.441
		c0-2.816,0.715-18.33-0.287-21.051C530.561,224.17,452.471,211.854,359.868,211.854z"/>
	<linearGradient id="SVGID_2_" gradientUnits="userSpaceOnUse" x1="533.1016" y1="258.6094" x2="192.0611" y2="258.6093">
		<stop  offset="0" style="stop-color:#FFD209"/>
		<stop  offset="1" style="stop-color:#FFCA00"/>
	</linearGradient>
	<path fill-rule="evenodd" clip-rule="evenodd" fill="url(#SVGID_2_)" d="M359.868,324.075c100.478,0,182.388-29.404,182.388-65.441
		c0-36.087-81.91-65.49-182.388-65.49s-182.387,29.403-182.387,65.49C177.481,294.671,259.391,324.075,359.868,324.075z"/>
	<g>
		<linearGradient id="SVGID_3_" gradientUnits="userSpaceOnUse" x1="245.3789" y1="215.3066" x2="425.1409" y2="215.3066">
			<stop  offset="0" style="stop-color:#FFE687"/>
			<stop  offset="1" style="stop-color:#FFD54C"/>
		</linearGradient>
		<path fill-rule="evenodd" clip-rule="evenodd" fill="url(#SVGID_3_)" d="M424.547,143.024H222.016v96.897
			c0,8.641,7.876,12.602,15.847,14.034l184.059,33.509c1.002,0.189,1.957,0.143,2.912,0c6.443-0.859,5.346-41.767,8.113-48.354
			l16.086-38.043c3.15-7.494,20.479-13.938,12.41-14.845l-36.896-4.009V143.024z"/>
		<path fill-rule="evenodd" clip-rule="evenodd" fill="#FFEDA4" d="M424.021,287.511c6.492-0.572,9.117-8.353,12.697-14.845
			l31.98-57.995c8.688-15.752,6.826-24.439,7.16-42.578l1.146-64.058l-52.459,29.881
			C424.547,17.725,424.021,272.762,424.021,287.511z"/>
		<linearGradient id="SVGID_4_" gradientUnits="userSpaceOnUse" x1="349.8325" y1="160.457" x2="349.8325" y2="89.8757">
			<stop  offset="0" style="stop-color:#FFFBC4"/>
			<stop  offset="1" style="stop-color:#FFE68F"/>
		</linearGradient>
		<path fill-rule="evenodd" clip-rule="evenodd" fill="url(#SVGID_4_)" d="M461.443,95.578L296.432,77.487
			c-14.081-1.527-19.905,1.432-25.823,7.208c-5.919,5.776-11.934,14.368-20.859,24.105l-19.618,21.527
			c-9.404,10.311-14.559,21.003,6.587,23.819l185.204,24.678c8.066,1.098,10.023-8.21,14.797-14.797l39.094-53.747
			c2.053-2.769,2.434-5.919,1.145-8.306C475.191,98.728,470.275,96.532,461.443,95.578z"/>
		<path fill-rule="evenodd" clip-rule="evenodd" fill="#FFFFFF" d="M476.146,110.518l0.811-2.53l-55.035,62.53l-191.791-18.329
			c2.244,0.955,4.534,1.67,6.587,1.957l185.204,24.678c8.066,1.098,9.977-8.258,14.797-14.797L476.146,110.518z"/>
		<linearGradient id="SVGID_5_" gradientUnits="userSpaceOnUse" x1="393.8271" y1="167.3335" x2="354.5944" y2="217.5491">
			<stop  offset="0" style="stop-color:#FFFFFF"/>
			<stop  offset="1" style="stop-color:#FFDC69"/>
		</linearGradient>
		<polygon fill-rule="evenodd" clip-rule="evenodd" fill="url(#SVGID_5_)" points="413.76,264.934 415.334,186.604 295.525,170.041 
			410.131,192.332 		"/>
	</g>
	<g>
		<g>
			<linearGradient id="SVGID_6_" gradientUnits="userSpaceOnUse" x1="202.4053" y1="221.7832" x2="337.5652" y2="296.7036">
				<stop  offset="0" style="stop-color:#CED3E4"/>
				<stop  offset="1" style="stop-color:#C9D1E2"/>
			</linearGradient>
			<path fill-rule="evenodd" clip-rule="evenodd" fill="url(#SVGID_6_)" d="M359.486,308.704
				c8.497,0.907,16.564-14.749,8.067-22.147l-173.318-94.941c-18.472-10.644-28.735,3.675,1.623,34.034
				c38.854,38.902,98.712,78.139,133.031,90.167C347.41,322.309,343.783,298.06,359.486,308.704z"/>
			<linearGradient id="SVGID_7_" gradientUnits="userSpaceOnUse" x1="459.4336" y1="351" x2="366.3947" y2="299.4277">
				<stop  offset="0" style="stop-color:#DADDEB"/>
				<stop  offset="1" style="stop-color:#C9D1E2"/>
			</linearGradient>
			<path fill-rule="evenodd" clip-rule="evenodd" fill="url(#SVGID_7_)" d="M358.961,297.869l-3.484,9.928l130.31,84.345
				c4.488,2.864,25.92,7.59,30.789,1.002c7.111-9.595,12.219-30.645,5.203-34.129l-155.753-73.365l-2.291,11.742L358.961,297.869z"
				/>
			<linearGradient id="SVGID_8_" gradientUnits="userSpaceOnUse" x1="504.083" y1="389.708" x2="367.0586" y2="310.597">
				<stop  offset="0" style="stop-color:#CED3E4"/>
				<stop  offset="1" style="stop-color:#ABB7D2"/>
			</linearGradient>
			<path fill-rule="evenodd" clip-rule="evenodd" fill="url(#SVGID_8_)" d="M518.914,389.421l-160-90.788l-2.912,6.73
				l147.064,92.602C507.648,400.877,513.951,396.246,518.914,389.421z"/>
			<linearGradient id="SVGID_9_" gradientUnits="userSpaceOnUse" x1="459.8682" y1="348.2402" x2="376.2692" y2="301.9006">
				<stop  offset="0" style="stop-color:#E4E8F2"/>
				<stop  offset="1" style="stop-color:#FFFFFF"/>
			</linearGradient>
			<path fill-rule="evenodd" clip-rule="evenodd" fill="url(#SVGID_9_)" d="M362.78,292.571l4.057,4.2l146.063,77.9
				c7.111,3.818,7.352,7.971,4.486,17.66c7.543-11.885,7.398-18.042,7.111-20.477l-161.049-80.287L362.78,292.571z"/>
			<linearGradient id="SVGID_10_" gradientUnits="userSpaceOnUse" x1="254.333" y1="269.5771" x2="275.9149" y2="239.8723">
				<stop  offset="0" style="stop-color:#C2CADF"/>
				<stop  offset="1" style="stop-color:#EEF0F6"/>
			</linearGradient>
			<path fill-rule="evenodd" clip-rule="evenodd" fill="url(#SVGID_10_)" d="M360.441,305.697c4.248,0.478-0.382-3.294,1.432-6.825
				c1.814-3.58,8.736-6.445,4.487-10.12l-173.318-95.417c-18.424-10.645-28.353,3.055,2.005,33.413
				c38.854,38.902,98.664,78.139,133.032,90.168c17.375,6.109,15.274-14.846,27.876-8.688
				C356.813,308.656,359.439,305.029,360.441,305.697z"/>
			<linearGradient id="SVGID_11_" gradientUnits="userSpaceOnUse" x1="360.9463" y1="298.0293" x2="368.0907" y2="301.8281">
				<stop  offset="0" style="stop-color:#C9D1E2"/>
				<stop  offset="1" style="stop-color:#DADDEB"/>
			</linearGradient>
			<path fill-rule="evenodd" clip-rule="evenodd" fill="url(#SVGID_11_)" d="M365.74,287.846l-10.358,19.951
				C365.787,313.765,376.91,293.859,365.74,287.846z"/>
			<path fill-rule="evenodd" clip-rule="evenodd" fill="#FFFFFF" d="M323.019,304.026c-26.301-9.213-67.208-34.559-102.435-63.389
				c-15.036-12.363-35.274-27.352-43.532-44.01c5.155,13.651,16.754,23.914,27.351,33.557
				c38.425,35.227,90.645,68.592,121.862,79.522c14.081,4.916,21.146-7.638,22.912-9.308
				C342.208,303.167,340.346,310.137,323.019,304.026z"/>
		</g>
		<linearGradient id="SVGID_12_" gradientUnits="userSpaceOnUse" x1="514.0527" y1="358.6504" x2="499.3738" y2="385.1319">
			<stop  offset="0" style="stop-color:#C2CADF"/>
			<stop  offset="1" style="stop-color:#ABB7D2"/>
		</linearGradient>
		<path fill-rule="evenodd" clip-rule="evenodd" fill="url(#SVGID_12_)" d="M520.061,358.251
			c7.588,2.912,11.646,11.838,4.533,27.017c-3.914,8.401-15.035,21.385-26.635,14.702c-3.674-2.101-17.518-10.74-23.723-15.274
			c6.635,3.676,18.043,10.311,26.348,10.979c12.078,0.907,18.998-9.833,22.723-21.479
			C525.596,367.177,524.738,360.829,520.061,358.251z"/>
	</g>
	<g>
		<polygon fill-rule="evenodd" clip-rule="evenodd" fill="#FFCA00" points="454.094,226.031 488.842,210.327 487.363,225.649 
			456.338,243.215 		"/>
		<polygon fill-rule="evenodd" clip-rule="evenodd" fill="#FFCA00" points="447.363,275.388 494.809,244.694 498.961,270.519 
			460.441,277.965 		"/>
		<path fill-rule="evenodd" clip-rule="evenodd" fill="#FFE687" d="M451.373,218.633c4.248-11.838,11.312-25.68,23.246-32.84
			c19.141-11.456,47.398,0.478,54.891,20.955c18.379,50.024-29.736,79.762-72.266,74.559c17.756-6.348,35.99-14.225,35.99-34.797
			c0-12.697-7.971-25.299-19.045-31.074C467.555,211.997,457.434,218.013,451.373,218.633z"/>
		<linearGradient id="SVGID_13_" gradientUnits="userSpaceOnUse" x1="486.1377" y1="190.207" x2="518.9554" y2="232.2119">
			<stop  offset="0" style="stop-color:#FFDC69"/>
			<stop  offset="1" style="stop-color:#FFCB2D"/>
		</linearGradient>
		<path fill-rule="evenodd" clip-rule="evenodd" fill="url(#SVGID_13_)" d="M472.709,189.563
			c19.475-4.917,40.43,1.527,47.924,20.668c5.918,15.084,1.861,34.606-5.918,43.055
			C532.137,213.239,501.826,184.838,472.709,189.563z"/>
		<linearGradient id="SVGID_14_" gradientUnits="userSpaceOnUse" x1="476.7412" y1="198.2104" x2="509.3523" y2="239.9508">
			<stop  offset="0" style="stop-color:#FFDC69"/>
			<stop  offset="1" style="stop-color:#FFCB2D"/>
		</linearGradient>
		<path fill-rule="evenodd" clip-rule="evenodd" fill="url(#SVGID_14_)" d="M462.59,196.676c19.475-4.964,40.477,1.479,47.924,20.62
			c5.918,15.084,1.861,34.606-5.92,43.104C522.018,220.304,491.707,191.902,462.59,196.676z"/>
		<linearGradient id="SVGID_15_" gradientUnits="userSpaceOnUse" x1="484.1211" y1="239.0693" x2="453.3605" y2="246.7388">
			<stop  offset="0" style="stop-color:#FFFBC4"/>
			<stop  offset="1" style="stop-color:#FFFFFF"/>
		</linearGradient>
		<path fill-rule="evenodd" clip-rule="evenodd" fill="url(#SVGID_15_)" d="M451.564,273.478c6.586,0.907,16.801,1.051,26.205-5.919
			c9.402-6.97,14.318-18.138,11.312-30.31c-4.631-18.855-28.832-21.719-28.832,0.715c0,7.494-13.125,7.877-13.125-0.811
			c0-49.786,60.811-36.563,56.658,5.967c-1.91,19.521-15.418,32.553-33.842,37.088c-6.062,1.527-12.221,1.193-19.189,0.907
			C442.686,280.781,446.17,272.714,451.564,273.478z"/>
		<linearGradient id="SVGID_16_" gradientUnits="userSpaceOnUse" x1="507.666" y1="218.6152" x2="468.1929" y2="192.9811">
			<stop  offset="0" style="stop-color:#FFEDA4"/>
			<stop  offset="1" style="stop-color:#FFFFFF"/>
		</linearGradient>
		<path fill-rule="evenodd" clip-rule="evenodd" fill="url(#SVGID_16_)" d="M474.666,187.988c19.428-4.964,40.43,1.479,47.877,20.62
			c5.918,15.084,1.861,34.606-5.92,43.104C534.094,211.616,503.734,183.215,474.666,187.988z"/>
		<linearGradient id="SVGID_17_" gradientUnits="userSpaceOnUse" x1="501.4336" y1="228.2119" x2="462.0821" y2="202.6567">
			<stop  offset="0" style="stop-color:#FFEDA4"/>
			<stop  offset="1" style="stop-color:#FFFFFF"/>
		</linearGradient>
		<path fill-rule="evenodd" clip-rule="evenodd" fill="url(#SVGID_17_)" d="M464.547,195.053
			c19.428-4.917,40.43,1.479,47.924,20.669c5.871,15.035,1.812,34.605-5.967,43.055
			C523.973,218.681,493.615,190.279,464.547,195.053z"/>
	</g>
</g>
</svg>
