
<svg version="1.1" id="Layer_1" xmlns="http://www.w3.org/2000/svg" xmlns:xlink="http://www.w3.org/1999/xlink" viewBox="0 0 768 430" enable-background="new 0 0 768 430" xml:space="preserve">
<g transform="matrix(5.7244 0 0 5.7244 -582.68 -2301)">
	<path fill="#FCD327" d="M144.808,451.538v12.081l13.519,5.465v-12.081L144.808,451.538z"/>
</g>
<g>
	<g transform="matrix(5.7244 0 0 5.7244 -582.68 -2301)">
		<path fill="#F5FA40" d="M191.765,458.528v-11.237l-33.51,9.781v12.081L191.765,458.528z"/>
	</g>
	<g transform="matrix(5.7244 0 0 5.7244 -582.68 -2301)">
		<path fill="#F5FA40" d="M144.808,451.678l33.294-10.14l13.591,5.753l-33.366,9.925L144.808,451.678z"/>
	</g>
</g>
<g transform="matrix(5.7244 0 0 5.7244 -582.68 -2301)">
	<path fill="#E9B018" d="M155.739,452.397v2.445c1.294,1.151,5.752,1.079,6.831-0.143v-2.517L155.739,452.397z"/>
</g>
<g transform="matrix(5.7244 0 0 5.7244 -582.68 -2301)">
	<path fill="#F5FA40" d="M155.739,452.22c0-0.457,1.529-0.827,3.416-0.827c1.886,0,3.416,0.37,3.416,0.827
		c0,0.457-1.53,0.827-3.416,0.827C157.268,453.047,155.739,452.677,155.739,452.22z"/>
</g>
<g transform="matrix(5.7244 0 0 5.7244 -582.68 -2301)">
	<path fill="#E9B018" d="M164.26,449.916v2.446c1.294,1.151,5.752,1.079,6.831-0.144v-2.517L164.26,449.916L164.26,449.916z"/>
</g>
<g transform="matrix(5.7244 0 0 5.7244 -582.68 -2301)">
	<path fill="#F5FA40" d="M164.26,449.739c0-0.457,1.529-0.827,3.415-0.827c1.887,0,3.416,0.37,3.416,0.827
		c0,0.457-1.529,0.827-3.416,0.827C165.789,450.566,164.26,450.196,164.26,449.739L164.26,449.739z"/>
</g>
<g transform="matrix(5.7244 0 0 5.7244 -582.68 -2301)">
	<path fill="#E9B018" d="M172.565,447.436v2.445c1.294,1.151,5.752,1.079,6.831-0.144v-2.517L172.565,447.436L172.565,447.436z"/>
</g>
<g transform="matrix(5.7244 0 0 5.7244 -582.68 -2301)">
	<path fill="#F5FA40" d="M172.565,447.259c0-0.457,1.529-0.827,3.416-0.827c1.886,0,3.415,0.37,3.415,0.827
		c0,0.457-1.529,0.827-3.415,0.827C174.094,448.086,172.565,447.716,172.565,447.259L172.565,447.259z"/>
</g>
<g transform="matrix(5.7244 0 0 5.7244 -582.68 -2301)">
	<path fill="#E9B018" d="M180.581,445.025v2.445c1.294,1.151,5.752,1.079,6.831-0.144v-2.517L180.581,445.025L180.581,445.025z"/>
</g>
<g transform="matrix(5.7244 0 0 5.7244 -582.68 -2301)">
	<path fill="#F5FA40" d="M180.581,444.848c0-0.457,1.529-0.827,3.415-0.827c1.886,0,3.416,0.37,3.416,0.827
		c0,0.457-1.529,0.827-3.416,0.827C182.11,445.675,180.581,445.305,180.581,444.848L180.581,444.848z"/>
</g>
<g transform="matrix(5.7244 0 0 5.7244 -582.68 -2301)">
	<path fill="#E9B018" d="M173.929,442.115v2.445c1.294,1.151,5.751,1.079,6.831-0.143V441.9L173.929,442.115z"/>
</g>
<g transform="matrix(5.7244 0 0 5.7244 -582.68 -2301)">
	<path fill="#F5FA40" d="M173.929,441.938c0-0.457,1.529-0.827,3.415-0.827c1.887,0,3.416,0.37,3.416,0.827
		c0,0.456-1.529,0.827-3.416,0.827C175.458,442.765,173.929,442.395,173.929,441.938z"/>
</g>
<g transform="matrix(5.7244 0 0 5.7244 -582.68 -2301)">
	<path fill="#E9B018" d="M165.554,444.526v2.445c1.294,1.151,5.752,1.079,6.831-0.143v-2.517L165.554,444.526L165.554,444.526z"/>
</g>
<g transform="matrix(5.7244 0 0 5.7244 -582.68 -2301)">
	<path fill="#F5FA40" d="M165.554,444.344c0-0.457,1.529-0.827,3.415-0.827c1.887,0,3.416,0.371,3.416,0.827
		c0,0.457-1.529,0.827-3.416,0.827C167.083,445.171,165.554,444.801,165.554,444.344L165.554,444.344z"/>
</g>
<g transform="matrix(5.7244 0 0 5.7244 -582.68 -2301)">
	<path fill="#E9B018" d="M157.178,446.937v2.445c1.294,1.151,5.752,1.079,6.831-0.144v-2.517L157.178,446.937L157.178,446.937z"/>
</g>
<g transform="matrix(5.7244 0 0 5.7244 -582.68 -2301)">
	<path fill="#F5FA40" d="M157.178,446.754c0-0.457,1.529-0.827,3.415-0.827c1.886,0,3.416,0.37,3.416,0.827
		c0,0.457-1.529,0.827-3.416,0.827C158.707,447.581,157.178,447.211,157.178,446.754L157.178,446.754z"/>
</g>
<g transform="matrix(5.7244 0 0 5.7244 -582.68 -2301)">
	<path fill="#E9B018" d="M148.803,449.342v2.445c1.294,1.151,5.752,1.079,6.831-0.144v-2.517L148.803,449.342L148.803,449.342z"/>
</g>
<g transform="matrix(5.7244 0 0 5.7244 -582.68 -2301)">
	<path fill="#F5FA40" d="M148.803,449.165c0-0.456,1.529-0.827,3.415-0.827c1.887,0,3.416,0.371,3.416,0.827
		c0,0.457-1.529,0.827-3.416,0.827C150.332,449.992,148.803,449.622,148.803,449.165z"/>
</g>
<g transform="matrix(5.7244 0 0 5.7244 -582.68 -2301)">
	<path fill="#FF6100" d="M155.084,436.773v12.081l13.519,5.466v-12.081L155.084,436.773z"/>
</g>
<g>
	<g transform="matrix(5.7244 0 0 5.7244 -582.68 -2301)">
		<path fill="#FF9900" d="M202.041,443.764v-11.237l-33.509,9.781v12.081L202.041,443.764z"/>
	</g>
	<g transform="matrix(5.7244 0 0 5.7244 -582.68 -2301)">
		<path fill="#FF9900" d="M155.084,436.913l33.294-10.14l13.591,5.753l-33.365,9.924L155.084,436.913L155.084,436.913z"/>
	</g>
</g>
<g transform="matrix(5.7244 0 0 5.7244 -582.68 -2301)">
	<path fill="#FF4800" d="M166.015,437.633v2.445c1.294,1.15,5.752,1.079,6.831-0.144v-2.517L166.015,437.633z"/>
</g>
<g transform="matrix(5.7244 0 0 5.7244 -582.68 -2301)">
	<path fill="#FF9900" d="M166.015,437.455c0-0.456,1.529-0.827,3.415-0.827c1.886,0,3.416,0.37,3.416,0.827
		c0,0.457-1.529,0.827-3.416,0.827C167.544,438.282,166.015,437.912,166.015,437.455z"/>
</g>
<g transform="matrix(5.7244 0 0 5.7244 -582.68 -2301)">
	<path fill="#FF4800" d="M174.536,435.152v2.445c1.294,1.151,5.752,1.079,6.831-0.143v-2.517L174.536,435.152z"/>
</g>
<g transform="matrix(5.7244 0 0 5.7244 -582.68 -2301)">
	<path fill="#FF9900" d="M174.536,434.975c0-0.457,1.529-0.827,3.416-0.827c1.886,0,3.415,0.37,3.415,0.827
		c0,0.456-1.529,0.827-3.415,0.827C176.065,435.802,174.536,435.431,174.536,434.975z"/>
</g>
<g transform="matrix(5.7244 0 0 5.7244 -582.68 -2301)">
	<path fill="#FF4800" d="M182.836,432.672v2.445c1.294,1.151,5.752,1.079,6.831-0.144v-2.517L182.836,432.672L182.836,432.672z"/>
</g>
<g transform="matrix(5.7244 0 0 5.7244 -582.68 -2301)">
	<path fill="#FF9900" d="M182.836,432.494c0-0.457,1.529-0.827,3.416-0.827c1.886,0,3.415,0.37,3.415,0.827
		c0,0.456-1.529,0.827-3.415,0.827C184.365,433.321,182.836,432.951,182.836,432.494L182.836,432.494z"/>
</g>
<g transform="matrix(5.7244 0 0 5.7244 -582.68 -2301)">
	<path fill="#FF4800" d="M190.857,430.261v2.445c1.294,1.151,5.752,1.079,6.831-0.144v-2.517L190.857,430.261L190.857,430.261z"/>
</g>
<g transform="matrix(5.7244 0 0 5.7244 -582.68 -2301)">
	<path fill="#FF9900" d="M190.857,430.084c0-0.456,1.529-0.827,3.416-0.827c1.886,0,3.415,0.37,3.415,0.827
		c0,0.457-1.529,0.827-3.415,0.827C192.386,430.911,190.857,430.541,190.857,430.084z"/>
</g>
<g transform="matrix(5.7244 0 0 5.7244 -582.68 -2301)">
	<path fill="#FF4800" d="M184.205,427.351v2.445c1.294,1.151,5.752,1.079,6.831-0.143v-2.517L184.205,427.351L184.205,427.351z"/>
</g>
<g transform="matrix(5.7244 0 0 5.7244 -582.68 -2301)">
	<path fill="#FF9900" d="M184.205,427.174c0-0.456,1.529-0.827,3.415-0.827c1.887,0,3.416,0.37,3.416,0.827
		c0,0.457-1.529,0.827-3.416,0.827C185.734,428.001,184.205,427.631,184.205,427.174L184.205,427.174z"/>
</g>
<g transform="matrix(5.7244 0 0 5.7244 -582.68 -2301)">
	<path fill="#C00104" d="M175.83,429.762v2.445c1.294,1.151,5.752,1.079,6.831-0.144v-2.517L175.83,429.762z"/>
</g>
<g transform="matrix(5.7244 0 0 5.7244 -582.68 -2301)">
	<path fill="#FF212C" d="M175.83,429.579c0-0.456,1.529-0.827,3.415-0.827c1.886,0,3.416,0.37,3.416,0.827
		c0,0.457-1.529,0.827-3.416,0.827C177.359,430.406,175.83,430.036,175.83,429.579z"/>
</g>
<g transform="matrix(5.7244 0 0 5.7244 -582.68 -2301)">
	<path fill="#C00104" d="M167.454,432.172v2.445c1.294,1.151,5.752,1.079,6.831-0.144v-2.517L167.454,432.172L167.454,432.172z"/>
</g>
<g transform="matrix(5.7244 0 0 5.7244 -582.68 -2301)">
	<path fill="#FF212C" d="M167.454,431.99c0-0.456,1.529-0.827,3.416-0.827c1.886,0,3.415,0.37,3.415,0.827
		c0,0.457-1.529,0.827-3.415,0.827C168.983,432.817,167.454,432.447,167.454,431.99z"/>
</g>
<g transform="matrix(5.7244 0 0 5.7244 -582.68 -2301)">
	<path fill="#C00104" d="M159.073,434.578v2.445c1.294,1.151,5.752,1.079,6.831-0.144v-2.517L159.073,434.578L159.073,434.578z"/>
</g>
<g transform="matrix(5.7244 0 0 5.7244 -582.68 -2301)">
	<path fill="#FF212C" d="M159.073,434.4c0-0.457,1.529-0.827,3.416-0.827c1.886,0,3.415,0.37,3.415,0.827
		c0,0.457-1.529,0.827-3.415,0.827C160.602,435.227,159.073,434.857,159.073,434.4L159.073,434.4z"/>
</g>
<g transform="matrix(5.7244 0 0 5.7244 -582.68 -2301)">
	<path fill="#BF005F" d="M136.524,425.273v12.081l13.519,5.465v-12.081L136.524,425.273z"/>
</g>
<g>
	<g transform="matrix(5.7244 0 0 5.7244 -582.68 -2301)">
		<path fill="#E6029A" d="M183.48,432.264v-11.237l-33.509,9.78v12.081L183.48,432.264z"/>
	</g>
	<g transform="matrix(5.7244 0 0 5.7244 -582.68 -2301)">
		<path fill="#E6029A" d="M136.524,425.418l33.294-10.14l13.591,5.753l-33.366,9.924L136.524,425.418L136.524,425.418z"/>
	</g>
</g>
<g transform="matrix(5.7244 0 0 5.7244 -582.68 -2301)">
	<path fill="#BF005F" d="M147.455,426.132v2.445c1.294,1.151,5.752,1.079,6.831-0.144v-2.517L147.455,426.132z"/>
</g>
<g transform="matrix(5.7244 0 0 5.7244 -582.68 -2301)">
	<path fill="#E6029A" d="M147.455,425.955c0-0.456,1.529-0.827,3.416-0.827c1.886,0,3.415,0.37,3.415,0.827
		c0,0.457-1.529,0.827-3.415,0.827C148.984,426.782,147.455,426.412,147.455,425.955z"/>
</g>
<g transform="matrix(5.7244 0 0 5.7244 -582.68 -2301)">
	<path fill="#BF005F" d="M155.975,423.652v2.445c1.294,1.151,5.752,1.079,6.831-0.143v-2.517L155.975,423.652L155.975,423.652z"/>
</g>
<g transform="matrix(5.7244 0 0 5.7244 -582.68 -2301)">
	<path fill="#E6029A" d="M155.975,423.475c0-0.456,1.529-0.827,3.415-0.827c1.887,0,3.416,0.37,3.416,0.827
		c0,0.457-1.529,0.827-3.416,0.827C157.505,424.302,155.975,423.932,155.975,423.475L155.975,423.475z"/>
</g>
<g transform="matrix(5.7244 0 0 5.7244 -582.68 -2301)">
	<path fill="#BF005F" d="M164.281,421.171v2.446c1.294,1.151,5.752,1.079,6.831-0.144v-2.517L164.281,421.171z"/>
</g>
<g transform="matrix(5.7244 0 0 5.7244 -582.68 -2301)">
	<path fill="#E6029A" d="M164.281,420.994c0-0.457,1.529-0.827,3.415-0.827c1.887,0,3.416,0.37,3.416,0.827
		c0,0.456-1.529,0.827-3.416,0.827C165.81,421.821,164.281,421.451,164.281,420.994z"/>
</g>
<g transform="matrix(5.7244 0 0 5.7244 -582.68 -2301)">
	<path fill="#BF005F" d="M172.303,418.766v2.445c1.294,1.151,5.751,1.079,6.831-0.144v-2.517L172.303,418.766L172.303,418.766z"/>
</g>
<g transform="matrix(5.7244 0 0 5.7244 -582.68 -2301)">
	<path fill="#E6029A" d="M172.303,418.584c0-0.457,1.529-0.827,3.415-0.827c1.887,0,3.416,0.37,3.416,0.827
		c0,0.457-1.529,0.827-3.416,0.827C173.831,419.411,172.303,419.041,172.303,418.584z"/>
</g>
<g transform="matrix(5.7244 0 0 5.7244 -582.68 -2301)">
	<path fill="#BF005F" d="M165.65,415.851v2.445c1.294,1.151,5.752,1.079,6.831-0.144v-2.517L165.65,415.851z"/>
</g>
<g transform="matrix(5.7244 0 0 5.7244 -582.68 -2301)">
	<path fill="#E6029A" d="M165.65,415.674c0-0.456,1.53-0.827,3.416-0.827c1.887,0,3.416,0.371,3.416,0.827
		c0,0.457-1.529,0.827-3.416,0.827C167.18,416.501,165.65,416.131,165.65,415.674z"/>
</g>
<g transform="matrix(5.7244 0 0 5.7244 -582.68 -2301)">
	<path fill="#BF005F" d="M157.275,418.262v2.445c1.294,1.151,5.752,1.079,6.831-0.144v-2.517L157.275,418.262z"/>
</g>
<g transform="matrix(5.7244 0 0 5.7244 -582.68 -2301)">
	<path fill="#E6029A" d="M157.275,418.084c0-0.456,1.529-0.827,3.415-0.827c1.887,0,3.416,0.37,3.416,0.827
		c0,0.457-1.529,0.827-3.416,0.827C158.804,418.911,157.275,418.541,157.275,418.084z"/>
</g>
<g transform="matrix(5.7244 0 0 5.7244 -582.68 -2301)">
	<path fill="#BF005F" d="M148.894,420.672v2.445c1.294,1.151,5.752,1.079,6.831-0.144v-2.517L148.894,420.672L148.894,420.672z"/>
</g>
<g transform="matrix(5.7244 0 0 5.7244 -582.68 -2301)">
	<path fill="#E6029A" d="M148.894,420.49c0-0.457,1.529-0.827,3.415-0.827c1.886,0,3.416,0.37,3.416,0.827
		c0,0.457-1.529,0.827-3.416,0.827C150.423,421.316,148.894,420.947,148.894,420.49z"/>
</g>
<g transform="matrix(5.7244 0 0 5.7244 -582.68 -2301)">
	<path fill="#BF005F" d="M140.518,423.083v2.445c1.294,1.151,5.752,1.079,6.831-0.144v-2.517L140.518,423.083z"/>
</g>
<g transform="matrix(5.7244 0 0 5.7244 -582.68 -2301)">
	<path fill="#E6029A" d="M140.518,422.9c0-0.457,1.529-0.827,3.415-0.827c1.887,0,3.416,0.37,3.416,0.827
		c0,0.456-1.529,0.827-3.416,0.827C142.047,423.727,140.518,423.357,140.518,422.9z"/>
</g>
</svg>
