<svg version="1.1" id="Layer_1" xmlns="http://www.w3.org/2000/svg" xmlns:xlink="http://www.w3.org/1999/xlink" viewBox="0 0 768 430" enable-background="new 0 0 768 430" xml:space="preserve">
<g>
	<g>
		<path fill="#EDBF05" d="M491.963,285.117c0.591-6.611,13.163-43.469,20.549-44.67c7.387-1.201,18.207,41.064,18.403,46.07
			C525.996,288.121,494.128,287.32,491.963,285.117z"/>
		<path fill="#FFD100" d="M491.963,285.117c0.591-6.611,13.163-43.469,20.549-44.67c7.387-1.201,9.521,40.604,9.717,45.611
			C517.31,287.66,494.128,287.32,491.963,285.117z"/>
		<path fill="#B28F04" d="M517.748,287.762c-9.858,0-24.463-0.732-26.062-2.361l-0.131-0.135l0.018-0.184
			c0.533-5.977,13.06-43.76,20.878-45.031c0.123-0.02,0.248-0.029,0.374-0.029c7.683,0,18.285,41.432,18.483,46.482l0.013,0.303
			l-0.286,0.094C529.354,287.449,524.511,287.762,517.748,287.762z M492.377,284.939c1.722,1.09,13.285,2.021,25.371,2.021
			c6.221,0,10.917-0.275,12.752-0.74c-0.565-6.436-11.048-45.398-17.676-45.398c-0.084,0-0.168,0.008-0.25,0.021
			C505.671,241.965,493.229,277.4,492.377,284.939z"/>
	</g>
	<g>
		<path fill="#054FE2" d="M445.96,236.248c4.819,2.951,3.836,14.164,2.852,18.197c-0.983,4.033-4.032,15.344-7.377,16.426
			c-5.114-3.639-6.394-16.23-5.409-22.723C437.009,241.658,443.304,235.363,445.96,236.248z"/>
		<path fill="#0439BC" d="M441.368,271.307l-0.161-0.115c-5.452-3.879-6.511-16.9-5.571-23.102
			c0.901-5.947,6.508-12.318,9.775-12.318c0.239,0,0.466,0.035,0.673,0.104l0.081,0.037c4.93,3.02,4.145,14.055,3.028,18.627
			c-1.133,4.646-4.146,15.576-7.637,16.707L441.368,271.307z M445.411,236.559c-2.656,0-8.104,5.756-8.997,11.65
			c-1.025,6.766,0.456,18.67,5.08,22.217c2.496-1.133,5.205-8.98,6.937-16.074c0.91-3.736,1.971-14.854-2.637-17.742
			C445.679,236.574,445.55,236.559,445.411,236.559z"/>
	</g>
	<g>
		<path fill="#F99F7C" d="M442.671,238.807c3.485,0,7.026,0.441,9.092,1.154c9.738-3.123,25.583-1.275,36.395,1.992
			c8.262,1.082,11.901-7.18,17.213-7.377s16.918,3.049,13.84,11.141c-2.823-4.164-7.071-6.27-11.686,0
			c1.485,2.807,12.36,3.869,10.534,8.434c-1.377,3.443-5.213,1.18-9.147,1.475s-8.853,2.264-16.132-0.295
			c-8.655,0.689-29.704,8.361-43.869,6.984c-9.169-0.893-11.41-5.312-11.41-5.312C437.697,255.035,442.671,238.807,442.671,238.807z
			"/>
		<path fill="#F9C89C" d="M519.21,245.717c3.078-8.092-8.528-11.338-13.84-11.141s-8.951,8.459-17.213,7.377
			c-10.812-3.268-26.656-5.115-36.395-1.992c-1.195-0.412-2.892-0.73-4.779-0.93c-2.383,5.205-3.205,11.354-2.724,17.373
			c1.195,0.361,2.593,0.648,4.243,0.811c14.164,1.377,34.047-5.131,42.703-5.818c7.279,2.557,12.999,2.416,16.934,2.121
			c3.935-0.293,8.945,2.469,9.919,0.633c2.302-4.344-9.049-5.627-10.534-8.434C512.139,239.447,516.387,241.553,519.21,245.717z"/>
		<path fill="#CE5A36" d="M452.524,262.873c-1.284,0-2.513-0.057-3.652-0.166c-9.276-0.902-11.627-5.338-11.723-5.525l-0.052-0.104
			l0.012-0.115c0.198-1.982,4.982-17.609,5.185-18.271l0.085-0.279h0.292c3.514,0,6.979,0.434,9.096,1.135
			c3.342-1.051,7.511-1.584,12.393-1.584c7.609,0,16.623,1.35,24.111,3.613c0.415,0.049,0.893,0.08,1.357,0.08
			c3.869,0,6.593-2.117,9.229-4.166c2.13-1.656,4.142-3.221,6.499-3.309c0.155-0.004,0.316-0.008,0.482-0.008
			c3.638,0,10.428,1.475,13.158,5.436c1.265,1.834,1.461,3.936,0.582,6.246l-0.27,0.707l-0.425-0.625
			c-1.169-1.725-3.061-3.779-5.438-3.779c-1.813,0-3.645,1.203-5.444,3.576c0.67,0.889,2.566,1.668,4.404,2.426
			c3.409,1.404,7.273,2.996,6.018,6.135c-0.773,1.936-2.255,2.184-3.459,2.184c-0.743,0-1.546-0.109-2.397-0.227
			c-1.169-0.158-2.391-0.328-3.628-0.234c-0.905,0.068-1.885,0.229-2.92,0.4c-1.705,0.281-3.639,0.602-5.836,0.602
			c-2.519,0-4.958-0.422-7.454-1.291c-3.007,0.252-7.508,1.34-12.711,2.596C471.622,260.352,461.172,262.873,452.524,262.873z
			 M437.908,256.92c0.396,0.633,2.98,4.219,11.04,5.002c1.113,0.109,2.317,0.164,3.576,0.164c8.554,0,18.953-2.51,27.31-4.527
			c5.283-1.275,9.847-2.377,12.914-2.619l0.083-0.008l0.079,0.027c2.438,0.857,4.818,1.273,7.273,1.273
			c2.133,0,4.033-0.314,5.708-0.592c1.054-0.172,2.049-0.338,2.99-0.408c1.308-0.096,2.584,0.074,3.793,0.24
			c0.823,0.113,1.601,0.219,2.29,0.219c1.459,0,2.249-0.488,2.729-1.688c0.897-2.244-1.749-3.535-5.587-5.115
			c-2.202-0.908-4.281-1.764-4.93-2.988l-0.115-0.219l0.146-0.197c2.008-2.73,4.107-4.113,6.238-4.113
			c1.978,0,3.914,1.201,5.633,3.484c0.491-1.77,0.247-3.381-0.73-4.801c-2.523-3.658-9.305-5.227-12.965-5.086
			c-2.103,0.078-4.018,1.566-6.044,3.143c-2.612,2.031-5.573,4.334-9.712,4.334c-0.498,0-1.011-0.035-1.521-0.102
			c-7.481-2.256-16.409-3.596-23.947-3.596c-4.861,0-8.992,0.535-12.276,1.588l-0.125,0.041l-0.124-0.045
			c-1.938-0.668-5.317-1.107-8.673-1.133C442.316,241.312,438.238,254.717,437.908,256.92z"/>
	</g>
	<g>
		<path fill="#F99F7C" d="M328.057,258.15c-4.328,0.787-10.229,5.639-11.541,7.869c-9.05-0.918-30.951,12.984-38.033,22.559
			c-3.147-2.1-18.229-5.115-25.312-1.182c-7.082,3.936-12.459,11.672-6.033,13.246c-1.836,2.623-0.262,7.082,4.722,4.984
			c-1.837,4.064,2.491,6.557,6.558,3.672c4.065-2.885,9.573-9.311,13.508-8.131c0.263,2.359-4.065,6.688-5.377,10.623
			c-1.312,3.934,4.328,4.982,6.951,0.918c2.623-4.066,9.573-6.557,10.885-12.328c8-3.018,35.673-3.672,52.197-22.951
			C338.286,269.953,331.336,259.463,328.057,258.15z"/>
		<path fill="#F9C89C" d="M328.057,258.15c-4.328,0.787-10.229,5.639-11.541,7.869c-9.05-0.918-30.951,12.984-38.033,22.559
			c-3.147-2.1-18.229-5.115-25.312-1.182c-7.082,3.936-11.939,9.92-5.514,11.494c-1.836,2.623-0.064,6.824,4.919,4.727
			c-1.836,4.066,2.562,5.156,6.628,2.271c4.065-2.885,9.967-8.133,13.901-6.951c0.262,2.359-5.246,8.918-6.558,12.854
			c-1.312,3.934,3.935,2.885,6.558-1.182c2.622-4.064,9.312-7.488,10.623-13.26c8-3.018,36.188-6.568,52.713-25.848
			C338.146,264.027,331.336,259.463,328.057,258.15z"/>
		<path fill="#CE5A36" d="M269.138,315.688L269.138,315.688c-1.154,0-2.136-0.443-2.691-1.215c-0.377-0.521-0.729-1.434-0.271-2.807
			c0.612-1.838,1.876-3.773,2.99-5.482c1.188-1.822,2.316-3.549,2.376-4.705c-2.597-0.51-6.211,2.549-9.335,5.24
			c-1.263,1.088-2.454,2.115-3.562,2.9c-1.218,0.865-2.526,1.32-3.787,1.32c-1.432,0-2.635-0.592-3.301-1.623
			c-0.55-0.852-0.669-1.906-0.356-3.031c-2.172,0.67-3.955,0.092-4.772-1.477c-0.607-1.168-0.554-2.688,0.104-3.928
			c-1.938-0.633-2.507-1.834-2.632-2.766c-0.47-3.506,4.247-8.377,9.079-11.062c2.346-1.303,5.654-1.963,9.834-1.963
			c6.104,0,13.021,1.527,15.569,2.965c7.189-9.412,28.595-23.119,37.928-22.449c1.535-2.301,7.32-7.051,11.676-7.842l0.111-0.02
			l0.105,0.041c3.404,1.361,10.541,11.93,8.762,19.732l-0.021,0.094l-0.063,0.074c-12.803,14.936-32.41,18.803-44.124,21.113
			c-3.461,0.684-6.219,1.227-8.038,1.879c-0.89,3.52-3.734,5.789-6.487,7.984c-1.752,1.398-3.406,2.717-4.401,4.26
			C272.729,314.627,270.931,315.688,269.138,315.688z M270.92,300.631c0.389,0,0.765,0.055,1.118,0.16l0.249,0.074l0.029,0.26
			c0.158,1.426-1.07,3.309-2.492,5.488c-1.142,1.75-2.323,3.561-2.903,5.303c-0.279,0.836-0.223,1.562,0.164,2.098
			c0.406,0.562,1.154,0.887,2.053,0.887l0,0c1.198,0,2.886-0.631,4.031-2.406c1.063-1.648,2.768-3.008,4.571-4.447
			c2.701-2.154,5.494-4.383,6.26-7.754l0.048-0.205l0.197-0.074c1.875-0.707,4.736-1.273,8.358-1.986
			c11.595-2.287,30.988-6.113,43.615-20.779c1.569-7.219-5.037-17.264-8.206-18.689c-4.281,0.846-9.933,5.576-11.158,7.66
			l-0.128,0.217l-0.251-0.025c-0.273-0.029-0.56-0.041-0.855-0.041c-9.569,0-30.115,13.377-36.821,22.441l-0.223,0.303l-0.312-0.209
			c-1.897-1.264-8.693-3.027-15.451-3.027c-3.987,0-7.256,0.645-9.452,1.865c-5.074,2.818-9.05,7.521-8.681,10.27
			c0.149,1.113,1.008,1.871,2.551,2.25l0.559,0.137l-0.33,0.471c-0.753,1.076-0.888,2.512-0.334,3.576
			c0.723,1.387,2.454,1.715,4.58,0.818l0.925-0.389l-0.413,0.914c-0.531,1.176-0.531,2.277,0,3.102
			c0.519,0.801,1.48,1.262,2.64,1.262c1.097,0,2.248-0.406,3.331-1.174c1.078-0.766,2.256-1.781,3.503-2.855
			C264.825,303.424,268.066,300.631,270.92,300.631z"/>
	</g>
	<g>
		<path fill="#CE5A36" d="M323.111,268.311c-0.042-0.029-4.329-2.908-11.057-1.453l-0.167-0.77
			C318.97,264.557,323.111,268.311,323.111,268.311z"/>
	</g>
	<g>
		<path fill="#CE5A36" d="M246.821,302.533l-0.761-0.199c1.607-6.113,8.126-8.637,8.126-8.637
			C254.128,293.727,248.338,296.768,246.821,302.533z"/>
	</g>
	<g>
		<path fill="#CE5A36" d="M251.875,306.832l-0.732-0.287c2.529-6.459,7.381-9.195,7.381-9.195
			C258.481,297.381,254.319,300.59,251.875,306.832z"/>
	</g>
	<g>
		<path d="M334.458,343.477c-1.951-11.771-10.1-18.725-10.182-18.795l0.506-0.602c0.084,0.07,8.454,7.213,10.452,19.268
			L334.458,343.477z"/>
	</g>
	<g>
		<path fill="#E97700" d="M466.812,296.709c-15.083-4.768-24.525,3.408-29.115,6.295c0,0-42.905,6.793-50.312,6.955
			c-10.525-0.785-40.706-4.988-40.706-4.988c-4.59-2.885-13.77-7.305-28.853-2.537c-15.082,4.768-22.82,16.047-25.05,28.111
			c1.836,12.064,23.214,28.197,31.345,29.641c8.131,1.441,13.508-4.066,10.229-19.412c3.797,2.916,32.362,8.48,58.493,8.301
			c24.419-0.168,49.489-5.848,54.649-11.971c-3.278,15.344,3.664,23.137,11.795,21.695c8.132-1.443,23.094-16.311,24.93-28.375
			C481.989,318.357,481.895,301.475,466.812,296.709z"/>
		<path fill="#FF9500" d="M466.812,296.709c-15.083-4.768-24.525,3.408-29.115,6.295c0,0-42.905,6.793-50.312,6.955
			c-10.525-0.785-40.706-4.988-40.706-4.988c-4.59-2.885-13.77-7.305-28.853-2.537c-15.082,4.768-22.82,16.047-25.05,28.111
			c1.836,12.064,18.479,23.766,26.609,25.209c8.132,1.441,10.807-14.912,7.528-30.258c3.797,2.916,35.452,14.271,61.583,14.271
			c35.744,0,62.497-12.475,67.656-18.598c-6.125,16.85,3.055,27.922,11.186,26.479c8.132-1.441,15.043-5.16,16.879-17.225
			C481.989,318.357,481.895,301.475,466.812,296.709z"/>
		<path fill="#CE5E00" d="M326.509,360.799c-0.778,0-1.604-0.076-2.455-0.227c-8.527-1.512-29.809-17.768-31.665-29.969
			l-0.011-0.064l0.013-0.066c1.495-8.096,6.774-22.553,25.317-28.414c4.46-1.41,8.761-2.125,12.785-2.125
			c5.968,0,11.309,1.525,16.324,4.66c1.769,0.244,30.477,4.219,40.598,4.973c7.107-0.156,48.047-6.609,50.141-6.939
			c0.472-0.299,0.995-0.652,1.568-1.039c3.728-2.52,9.968-6.734,18.641-6.734c2.977,0,6.061,0.498,9.166,1.479
			c13.124,4.148,15.071,17.096,16.788,28.52c0.291,1.93,0.564,3.754,0.887,5.5l0.013,0.066l-0.01,0.064
			c-1.794,11.781-16.582,27.166-25.251,28.703c-0.657,0.117-1.316,0.176-1.959,0.176h-0.002c-3.063,0-5.838-1.346-7.813-3.785
			c-3.107-3.844-4.062-9.949-2.725-17.289c-6.905,5.904-31.228,11.025-54.012,11.182c-25.352,0.172-52.008-4.943-57.931-7.9
			c1.471,7.477,0.896,13.09-1.671,16.264C331.675,359.773,329.346,360.799,326.509,360.799z M293.177,330.551
			c1.843,11.666,22.892,27.807,31.014,29.246c3.693,0.658,6.606-0.189,8.442-2.459c2.513-3.105,2.974-8.805,1.334-16.48
			l-0.224-1.045l0.849,0.65c3.627,2.785,31.604,8.391,58.25,8.219c23.78-0.164,49.178-5.693,54.351-11.834l1.016-1.203l-0.329,1.539
			c-1.638,7.668-0.816,14.025,2.316,17.896c1.822,2.254,4.381,3.494,7.201,3.494h0.002c0.597,0,1.21-0.055,1.822-0.164
			c7.664-1.359,22.683-15.684,24.6-27.98c-0.32-1.74-0.592-3.549-0.88-5.461c-1.683-11.195-3.59-23.885-16.247-27.887
			c-3.028-0.957-6.032-1.443-8.929-1.443c-8.433,0-14.311,3.973-18.2,6.6c-0.609,0.412-1.162,0.787-1.659,1.098l-0.146,0.055
			c-1.753,0.277-43.017,6.801-50.365,6.963c-10.455-0.779-40.466-4.951-40.768-4.992l-0.155-0.057
			c-4.907-3.084-10.134-4.584-15.978-4.584c-3.944,0-8.166,0.703-12.547,2.088C299.844,308.529,294.656,322.615,293.177,330.551z"/>
	</g>
	<g>
		<g>
			<path fill="#D01915" d="M505.472,334.01c-3.935-10.217-11.255-13.797-22.297-11.152c-13.934,3.34-41.275,26.973-35.823,41.289
				C454.041,367.727,504.488,343.623,505.472,334.01z"/>
			<path fill="#A11915" d="M449.303,364.906C449.302,364.906,449.303,364.906,449.303,364.906c-0.927,0-1.624-0.133-2.134-0.404
				l-0.13-0.07l-0.054-0.141c-1.424-3.736-0.794-8.242,1.868-13.389c6.619-12.793,24.14-26.016,34.232-28.434
				c2.353-0.564,4.569-0.852,6.585-0.852c7.705,0,12.993,4.006,16.167,12.244l0.035,0.092l-0.011,0.098
				C504.888,343.58,460.517,364.906,449.303,364.906z M447.664,363.854c0.387,0.168,0.936,0.252,1.638,0.252
				c11.805,0.002,54.6-21.584,55.768-30.045c-3.859-9.928-10.928-13.418-21.804-10.812c-9.935,2.379-27.189,15.414-33.716,28.027
				C447.033,356.141,446.399,360.371,447.664,363.854z"/>
		</g>
		<g>
			<path fill="#FFFFFF" d="M448.073,366.895c2.359,5.285,18.513,2.291,38.055-5.053c18.06-6.789,31.625-13.244,23.606-27.643
				c-5.05-9.07-18.813-8.639-36.459-0.803C455.632,341.232,444.093,357.98,448.073,366.895z"/>
			<path fill="#A5A5A5" d="M455.108,369.971c-0.001,0-0.001,0-0.002,0c-4.043,0-6.529-0.979-7.391-2.908
				c-1.215-2.721-1.08-6.221,0.39-10.119c3.466-9.199,13.519-18.809,25.012-23.914c8.925-3.963,16.631-5.973,22.904-5.973
				c6.761,0,11.489,2.336,14.055,6.943c2.442,4.385,3.024,8.197,1.781,11.656c-2.662,7.41-13.625,12.062-25.593,16.561
				C472.962,367.217,461.897,369.971,455.108,369.971z M496.021,327.857c-6.164,0-13.765,1.986-22.589,5.906
				c-11.313,5.025-21.197,14.455-24.592,23.465c-1.393,3.695-1.534,6.98-0.409,9.502c0.723,1.619,2.969,2.439,6.675,2.439h0.002
				c6.698,0,17.665-2.736,30.884-7.703c11.788-4.432,22.579-8.996,25.126-16.086c1.159-3.225,0.595-6.818-1.725-10.984
				C506.977,330.057,502.479,327.857,496.021,327.857z"/>
		</g>
		<g>
			<path fill="#BFBFBF" d="M448.073,366.895c2.184,5.363,19.889,6.709,39.431-0.635c18.059-6.789,28.328-15.625,23.606-27.645
				c-3.867-9.842-18.814-8.637-36.46-0.801C457.007,345.65,446.135,362.137,448.073,366.895z"/>
			<path fill="#FFFFFF" d="M456.354,361.939c2.183,5.361,13.546,8.031,30.042,2.111c18.155-6.514,28.849-15.996,24.714-25.436
				c-4.241-9.682-18.814-8.637-36.46-0.801C457.007,345.65,454.416,357.182,456.354,361.939z"/>
			<path fill="#A5A5A5" d="M461.881,371.746L461.881,371.746c-7.676,0-12.973-1.756-14.171-4.697
				c-2.064-5.066,8.783-21.605,26.783-29.602c9.227-4.098,17.447-6.264,23.773-6.264c6.77,0,11.338,2.52,13.209,7.283
				c1.547,3.941,1.559,7.711,0.031,11.207c-2.808,6.432-10.614,11.98-23.867,16.961
				C478.871,369.932,469.722,371.746,461.881,371.746z M498.267,331.986c-6.219,0-14.331,2.143-23.458,6.195
				c-17.287,7.678-28.285,23.863-26.371,28.561c1.056,2.592,6.206,4.203,13.443,4.203c7.75,0,16.802-1.797,25.486-5.062
				c12.86-4.834,20.741-10.396,23.421-16.533c1.438-3.293,1.423-6.854-0.043-10.584C508.978,334.266,504.78,331.986,498.267,331.986
				z"/>
		</g>
		<g>
			<path fill="#A5A5A5" d="M509.731,351.588c-0.043-0.139-4.457-13.963-13.012-19.637l0.429-0.672
				c8.792,5.832,13.152,19.486,13.334,20.064L509.731,351.588z"/>
		</g>
		<g>
			<path fill="#A5A5A5" d="M503.142,358.266c-0.046-0.174-4.701-17.383-15.117-24.949l0.457-0.652
				c10.647,7.736,15.373,25.217,15.419,25.393L503.142,358.266z"/>
		</g>
		<g>
			<path fill="#D6B429" d="M494.285,363.367c-0.051-0.184-5.191-18.35-16.536-26.639l0.459-0.652
				c11.57,8.455,16.783,26.887,16.835,27.072L494.285,363.367z"/>
		</g>
		<g>
			<path fill="#D6B429" d="M485.032,367.17c-0.072-0.184-7.339-18.309-16.054-26.275l0.525-0.596
				c8.851,8.092,16.186,26.387,16.26,26.57L485.032,367.17z"/>
		</g>
		<g>
			<path fill="#D6B429" d="M474.414,370.031c-0.036-0.152-3.64-15.262-12.628-24.168l0.549-0.574
				c9.155,9.072,12.809,24.404,12.845,24.559L474.414,370.031z"/>
		</g>
		<g>
			<path fill="#D6B429" d="M467.05,371.186c-0.048-0.152-4.866-15.182-10.438-20.592l0.543-0.58
				c5.717,5.551,10.444,20.301,10.643,20.926L467.05,371.186z"/>
		</g>
		<g>
			<path fill="#D6B429" d="M459.454,371.43c-0.035-0.105-3.581-10.547-8.266-14.117l0.471-0.641
				c4.881,3.719,8.393,14.061,8.54,14.498L459.454,371.43z"/>
		</g>
	</g>
	<g>
		<g>
			<path fill="#D01915" d="M270.528,331.844c3.934-10.033,11.255-13.549,22.295-10.951c13.935,3.279,41.276,26.488,35.824,40.549
				C321.959,364.957,271.512,341.285,270.528,331.844z"/>
			<path fill="#A11915" d="M270.137,331.885l-0.01-0.096l0.034-0.09c3.174-8.092,8.463-12.025,16.168-12.025
				c2.016,0,4.231,0.281,6.585,0.836c10.093,2.375,27.612,15.361,34.232,27.924c2.662,5.055,3.292,9.479,1.868,13.148l-0.054,0.139
				l-0.131,0.068c-0.509,0.27-1.207,0.398-2.132,0.398c-0.001,0,0,0-0.001,0C315.482,362.188,271.111,341.244,270.137,331.885z
				 M326.449,348.801c-6.526-12.389-23.78-25.188-33.715-27.525c-10.877-2.559-17.944,0.869-21.804,10.619
				c1.167,8.309,43.962,29.508,55.768,29.506c0.701,0,1.251-0.084,1.638-0.246C329.601,357.732,328.967,353.578,326.449,348.801z"/>
		</g>
		<g>
			<path fill="#FFFFFF" d="M327.926,364.141c-2.359,5.189-18.513,2.25-38.055-4.963c-18.059-6.666-31.624-13.006-23.606-27.148
				c5.05-8.906,18.814-8.482,36.46-0.787C320.368,338.939,331.906,355.385,327.926,364.141z"/>
			<path fill="#A5A5A5" d="M289.735,359.547c-11.968-4.418-22.932-8.986-25.594-16.264c-1.243-3.398-0.66-7.143,1.781-11.447
				c2.565-4.525,7.294-6.82,14.055-6.82c6.273,0,13.979,1.973,22.904,5.867c11.494,5.014,21.546,14.449,25.012,23.484
				c1.47,3.828,1.604,7.266,0.391,9.936c-0.861,1.896-3.349,2.857-7.392,2.857c-0.001,0-0.001,0-0.001,0
				C314.103,367.16,303.037,364.457,289.735,359.547z M266.606,332.225c-2.32,4.092-2.884,7.621-1.726,10.787
				c2.547,6.963,13.339,11.445,25.127,15.797c13.218,4.879,24.185,7.566,30.884,7.564h0.001c3.707,0,5.952-0.805,6.676-2.395
				c1.124-2.477,0.983-5.701-0.409-9.332c-3.396-8.848-13.278-18.109-24.592-23.043c-8.825-3.85-16.425-5.801-22.59-5.801
				C273.521,325.803,269.022,327.963,266.606,332.225z"/>
		</g>
		<g>
			<path fill="#BFBFBF" d="M327.926,364.141c-2.184,5.266-19.888,6.588-39.43-0.625c-18.059-6.666-28.328-15.344-23.607-27.148
				c3.867-9.666,18.815-8.482,36.46-0.785C318.993,343.277,329.864,359.467,327.926,364.141z"/>
			<path fill="#FFFFFF" d="M319.646,359.273c-2.184,5.266-13.546,7.887-30.042,2.074c-18.156-6.398-28.849-15.711-24.715-24.98
				c4.241-9.508,18.815-8.482,36.46-0.785C318.993,343.277,321.584,354.6,319.646,359.273z"/>
			<path fill="#A5A5A5" d="M288.359,363.885c-13.252-4.891-21.06-10.34-23.867-16.656c-1.526-3.436-1.516-7.137,0.032-11.006
				c1.871-4.68,6.438-7.152,13.209-7.152c6.325,0,14.546,2.127,23.773,6.15c17.999,7.852,28.847,24.096,26.782,29.07
				c-1.198,2.889-6.494,4.613-14.171,4.613c0,0,0.001,0,0,0C306.278,368.904,297.129,367.123,288.359,363.885z M265.254,336.514
				c-1.465,3.666-1.479,7.162-0.043,10.395c2.68,6.027,10.561,11.49,23.421,16.238c8.686,3.205,17.736,4.973,25.486,4.973
				c7.237,0,12.389-1.584,13.444-4.129c1.913-4.613-9.085-20.508-26.371-28.049c-9.128-3.98-17.24-6.086-23.458-6.086
				C271.22,329.855,267.021,332.096,265.254,336.514z"/>
		</g>
		<g>
			<path fill="#A5A5A5" d="M266.268,349.107c0.043-0.137,4.458-13.713,13.013-19.285l-0.43-0.658
				c-8.792,5.727-13.151,19.135-13.333,19.703L266.268,349.107z"/>
		</g>
		<g>
			<path fill="#A5A5A5" d="M272.857,355.666c0.047-0.17,4.701-17.07,15.117-24.502l-0.457-0.643
				c-10.646,7.598-15.373,24.766-15.419,24.939L272.857,355.666z"/>
		</g>
		<g>
			<path fill="#A5A5A5" d="M281.715,360.674c0.05-0.178,5.191-18.02,16.535-26.16l-0.459-0.639
				c-11.569,8.303-16.783,26.404-16.834,26.586L281.715,360.674z"/>
		</g>
		<g>
			<path fill="#A5A5A5" d="M290.967,364.408c0.072-0.178,7.339-17.977,16.055-25.803l-0.526-0.586
				c-8.851,7.947-16.186,25.914-16.259,26.096L290.967,364.408z"/>
		</g>
		<g>
			<path fill="#A5A5A5" d="M301.586,367.221c0.035-0.148,3.639-14.988,12.628-23.736l-0.549-0.562
				c-9.156,8.908-12.81,23.967-12.845,24.117L301.586,367.221z"/>
		</g>
		<g>
			<path fill="#A5A5A5" d="M308.95,368.354c0.048-0.148,4.865-14.908,10.437-20.221l-0.542-0.572
				c-5.717,5.453-10.445,19.938-10.644,20.551L308.95,368.354z"/>
		</g>
		<g>
			<path fill="#A5A5A5" d="M316.545,368.594c0.036-0.104,3.581-10.357,8.267-13.863l-0.472-0.629
				c-4.88,3.65-8.392,13.807-8.539,14.238L316.545,368.594z"/>
		</g>
	</g>
	<g>
		<path fill="#CE5E00" d="M447.696,338.465l-0.775-0.129c1.998-12.055,10.959-18.666,10.959-18.666
			C457.798,319.74,449.646,326.707,447.696,338.465z"/>
	</g>
	<g>
		<path fill="#CE5E00" d="M334.06,341.457l0.776-0.129c-1.999-12.055-10.959-18.666-10.959-18.666
			C323.959,322.732,332.11,329.699,334.06,341.457z"/>
	</g>
	<g>
		<path fill="#F99F7C" d="M375.336,218.74l2.36,29.115c3.738,1.18,18.296-1.574,18.296-1.574c0-5.705-0.787-28.328-0.787-28.328
			C391.86,218.15,375.336,218.74,375.336,218.74z"/>
		<path fill="#F9C89C" d="M376.224,229.697l1.473,18.158c3.738,1.18,18.296-1.574,18.296-1.574c0-3.123-0.235-11.303-0.449-18.076
			C390.127,232.133,382.613,232.062,376.224,229.697z"/>
		<path fill="#CE5A36" d="M380.547,248.543L380.547,248.543c-1.332,0-2.303-0.102-2.969-0.312l-0.253-0.08l-2.414-29.789l0.41-0.016
			c0.166-0.006,16.559-0.592,19.86-0.785l0.402-0.023l0.014,0.402c0.009,0.227,0.787,22.695,0.787,28.342v0.326l-0.32,0.061
			C395.966,246.686,386.092,248.543,380.547,248.543z M378.066,247.549c0.58,0.137,1.412,0.207,2.48,0.207
			c4.91,0,13.309-1.484,15.051-1.803c-0.025-5.66-0.669-24.582-0.772-27.586c-3.681,0.193-16.588,0.662-19.063,0.75L378.066,247.549
			z"/>
	</g>
	<g>
		<path fill="#054FE2" d="M442.829,299.666c-0.787-7.562-11.428-24.867-15.361-33.617c4.131,3.053,11.188,5.207,13.967,4.822
			c-2.557-5.639-0.196-28.854,4.525-34.623c-9.18-3.197-39.949-15.148-50.368-6.492c0.99,5.902-1.764,11.215-8.944,11.508
			c-7.181,0.297-11.443-5.816-10.443-11.809c-11.95-9.207-36.082,18.693-52.869,27.645c-1.967,10.887,12.066,28.33,18.459,29.117
			c2.755-0.1,7.477-2.559,7.477-2.559c-0.886,6.887-7.771,16.131-4.525,21.836c3.246,5.705,27.115,13.979,46.919,13.875
			S435.682,312.342,442.829,299.666z"/>
		<path fill="#006DFF" d="M445.96,236.248c-9.18-3.197-39.949-15.148-50.368-6.492c0.99,5.902-1.764,11.215-8.944,11.508
			c-7.181,0.297-11.443-5.816-10.443-11.809c-11.95-9.207-36.082,18.693-52.869,27.645c-1.069,5.922,2.595,13.775,7.188,19.842
			c10.238,0.135,19.882-8.773,20.616-19.053c1.96,10.449,1.735,21.438-2.894,30.723c-1.179,4.527-2.461,8.373-0.045,12.619
			c3.246,5.705,23.529,14.168,43.333,14.064c19.803-0.104,35.345-8.051,42.492-20.729c-0.786-7.561-14.093-32.088-13.707-43.217
			c3.924,6.801,17.323,9.803,20.104,9.42C437.865,255.129,441.238,242.018,445.96,236.248z"/>
		<path fill="#0439BC" d="M391.294,319.764c-19.659,0-43.468-8.059-46.891-14.074c-2.147-3.775-0.091-8.938,1.897-13.93
			c1.002-2.514,2.035-5.107,2.462-7.408c-1.431,0.689-4.752,2.178-6.954,2.258c-3.091-0.375-7.882-4.369-11.984-9.939
			c-5.242-7.117-7.812-14.459-6.876-19.639l0.033-0.188l0.168-0.09c5.403-2.881,11.468-7.654,17.889-12.707
			c10.508-8.271,21.373-16.824,29.55-16.824c2.232,0,4.203,0.645,5.856,1.92l0.188,0.145l-0.039,0.232
			c-0.488,2.924,0.3,5.861,2.163,8.062c1.899,2.24,4.679,3.426,7.875,3.289c2.998-0.123,5.383-1.174,6.897-3.041
			c1.613-1.986,2.208-4.832,1.675-8.008l-0.037-0.225l0.174-0.145c2.54-2.109,6.446-3.18,11.612-3.18
			c12.199,0,28.813,5.928,36.798,8.775c0.884,0.314,1.67,0.594,2.339,0.828l0.531,0.184l-0.356,0.438
			c-4.554,5.566-6.977,28.684-4.471,34.211l0.218,0.48l-0.522,0.072c-2.581,0.365-8.747-1.371-13.065-4.088
			c1.223,2.568,2.886,5.713,4.631,9.014c4.51,8.529,9.621,18.197,10.166,23.438l0.014,0.125l-0.062,0.107
			c-7.29,12.93-31.429,19.801-51.506,19.906H391.294z M349.757,282.961l-0.097,0.748c-0.331,2.576-1.499,5.508-2.628,8.342
			c-1.92,4.82-3.905,9.805-1.944,13.25c3.254,5.719,27.144,13.676,46.206,13.676h0.368c19.308-0.102,43.615-6.932,50.762-19.395
			c-0.598-5.119-5.626-14.629-10.066-23.027c-2.056-3.887-3.996-7.559-5.249-10.346l-0.616-1.369l1.209,0.893
			c3.775,2.789,10.165,4.859,13.171,4.787c-2.266-6.443,0.027-27.781,4.449-34.078c-0.551-0.193-1.164-0.412-1.835-0.652
			c-7.943-2.832-24.471-8.729-36.534-8.729c-4.858,0-8.536,0.961-10.937,2.857c0.505,3.312-0.158,6.291-1.877,8.408
			c-1.66,2.047-4.245,3.199-7.475,3.332c-3.438,0.137-6.45-1.139-8.509-3.568c-1.962-2.316-2.821-5.389-2.376-8.463
			c-1.49-1.088-3.191-1.617-5.191-1.617c-7.904,0-18.661,8.467-29.062,16.654c-6.383,5.023-12.414,9.77-17.835,12.693
			c-0.804,4.963,1.715,11.986,6.767,18.846c3.982,5.408,8.558,9.275,11.386,9.623c2.572-0.098,7.199-2.492,7.245-2.518
			L349.757,282.961z"/>
	</g>
	<g>
		<path fill="#0439BC" d="M348.947,286.846l-0.747-0.248c4.53-13.654,2.569-28.246,2.549-28.393
			C350.749,258.205,353.536,273.012,348.947,286.846z"/>
	</g>
	<g>
		<path fill="#0439BC" d="M428.027,266.912c-6.161-5.527-8.019-16.496-8.095-16.961c0,0,2.668,11.035,8.62,16.375L428.027,266.912z"
			/>
	</g>
	<g>
		<path fill="#C21200" d="M541.771,309.854c-2.229,1.586-59.326,1.893-61.727,0c-2.401-1.893-2.058-26.24,0-27.867
			s59.327-1.627,61.727,0C544.171,283.615,544.001,308.27,541.771,309.854z"/>
		<path fill="#FF1C1A" d="M536.792,301.803c-2.055,1.146-54.667,1.369-56.88,0s-1.896-18.977,0-20.154
			c1.896-1.176,54.669-1.178,56.88,0C539.004,282.826,538.848,300.656,536.792,301.803z"/>
		<path fill="#920E00" d="M509.019,311.561c-6.439,0-27.579-0.1-29.216-1.391c-1.686-1.326-1.825-10.666-1.827-13.496
			c-0.005-5.033,0.375-13.855,1.826-15.004c1.604-1.268,27.98-1.305,30.982-1.305c2.999,0,29.36,0.037,31.205,1.289
			c1.607,1.09,1.868,9.26,1.906,12.721c0.053,4.963-0.274,14.652-1.899,15.807C540.462,311.273,519.754,311.561,509.019,311.561z
			 M510.784,281.166c-16.426,0-29.538,0.49-30.502,1.141c-0.735,0.58-1.526,6.24-1.52,14.365c0.007,8.021,0.794,12.291,1.521,12.865
			c0.748,0.588,10.059,1.223,28.734,1.223c16.908,0,31.5-0.553,32.528-1.234c0.827-0.588,1.651-6.812,1.562-15.143
			c-0.083-7.619-0.864-11.594-1.556-12.062C540.583,281.662,527.355,281.166,510.784,281.166z"/>
	</g>
	<g>
		<path fill="#008526" d="M567.695,341.227c-1.4,0.684-14.577,1.178-31.501,1.438c-0.124-3.516,0.273-12.531-3.372-19.031
			c-2.976-5.305-43.464-6.229-45.847,0c-1.96,5.123-0.73,15.311-1.66,19.107c-16.705-0.217-29.699-0.707-31.193-1.514
			c-4.418-2.389-3.785-33.109,0-35.162c3.786-2.053,109.158-2.053,113.573,0C572.112,308.119,571.799,339.227,567.695,341.227z"/>
		<path fill="#00A829" d="M563.448,341.791c-1.402,0.684-10.33,0.613-27.254,0.873c-0.124-3.516,2.146-14.898-3.404-24.125
			c-3.148-5.232-47.966-5.816-50.349,0.412c-1.96,5.125,0.443,19.836-0.486,23.635c-16.707-0.219-26.339-0.553-27.833-1.359
			c-4.418-2.389-3.785-33.109,0-35.162c3.786-2.053,103.146-2.729,107.562-0.674C566.1,307.443,567.552,339.789,563.448,341.791z"/>
		<path fill="#004313" d="M485.71,343.158l-0.401-0.004c-13.335-0.176-29.615-0.59-31.448-1.58
			c-3.054-1.65-3.302-13.438-3.305-17.01c-0.006-5.896,0.678-17.424,3.305-18.848c2.878-1.559,51.315-1.605,56.829-1.605
			c19.989,0,54.541,0.336,57.24,1.592c3.029,1.408,3.401,12.883,3.441,16.365c0.073,6.137-0.551,18.111-3.433,19.516
			c-1.759,0.859-18.229,1.287-31.736,1.494l-0.479,0.008l-0.015-0.41c-0.015-0.447-0.023-0.988-0.031-1.6
			c-0.055-4.08-0.159-11.676-3.293-17.266c-1.29-2.297-11.83-4.096-23.998-4.096c-11.604,0-20.023,1.625-20.947,4.047
			c-1.141,2.979-1.18,7.746-1.215,11.953c-0.022,2.965-0.043,5.525-0.433,7.109L485.71,343.158z M510.689,304.938
			c-31.05,0-54.729,0.621-56.307,1.477c-1.61,0.873-2.864,8.846-2.855,18.15c0.008,8.84,1.156,15.395,2.855,16.312
			c0.464,0.252,4.038,1.092,30.528,1.445c0.3-1.543,0.321-4.012,0.342-6.613c0.034-4.268,0.073-9.102,1.26-12.203
			c1.303-3.404,12.152-4.617,21.873-4.617c10.746,0,23.113,1.428,24.874,4.566c3.229,5.754,3.333,13.467,3.389,17.611
			c0.007,0.432,0.012,0.826,0.02,1.178c21.294-0.334,29.87-0.928,30.786-1.375c1.767-0.861,3.06-9.117,2.945-18.793
			c-0.1-8.457-1.309-14.893-2.937-15.648C565.607,305.564,541.73,304.938,510.689,304.938z"/>
	</g>
	<g>
		<path fill="#F99F7C" d="M309.696,154.281c-6.296-6.033-18.887-9.968-22.82,0.523c-3.935,10.492,6.032,28.853,25.968,24.132
			C315.729,171.591,309.696,154.281,309.696,154.281z"/>
		<path fill="#F9C89C" d="M296.056,171.33c-3.934-3.147-6.267-7.853-3.934-11.804c4.065-6.886,14.449-1.96,20.339,4.842
			c-1.159-5.473-2.765-10.087-2.765-10.087c-6.296-6.033-18.887-9.968-22.82,0.523c-3.935,10.492,6.032,28.853,25.968,24.132
			c0.646-1.646,0.843-3.795,0.762-6.136C307.756,174.83,301.906,175.23,296.056,171.33z"/>
		<path fill="#CE5A36" d="M306.609,180.09c-0.001,0-0.001,0-0.002,0c-7.148,0-13.271-3.154-17.24-8.882
			c-3.572-5.154-4.695-11.647-2.86-16.542c2.102-5.603,6.371-6.778,9.583-6.778c4.559,0,10.006,2.397,13.878,6.108l0.068,0.065
			l0.031,0.089c0.248,0.712,6.047,17.534,3.143,24.929l-0.075,0.191l-0.2,0.047C310.771,179.832,308.643,180.09,306.609,180.09z
			 M296.09,148.675c-2.964,0-6.903,1.087-8.846,6.268c-1.747,4.659-0.66,10.869,2.77,15.818c2.211,3.189,7.307,8.542,16.594,8.543
			c0.001,0,0.001,0,0.002,0c1.909,0,3.907-0.236,5.94-0.703c2.523-6.961-2.741-22.768-3.195-24.103
			C305.681,151.012,300.363,148.675,296.09,148.675z"/>
	</g>
	<g>
		<path fill="#CE5A36" d="M300.216,168.766c0,0-0.001-4.932,3.261-6.155c1.812-0.681,4.001-0.159,6.523,1.55
			c-2.11-3.005-6.837-8.499-12.557-7.396c-2.278,0.44-3.884,1.434-4.772,2.951c-1.527,2.606-0.449,5.947-0.438,5.98
			c0,0-1.95-3.455-0.244-6.374c1.008-1.724,2.792-2.844,5.304-3.33c8.324-1.613,14.333,9.18,14.584,9.64l1.011,1.845l-1.609-1.355
			c-3.052-2.569-5.584-3.502-7.526-2.773C300.918,164.411,300.223,168.723,300.216,168.766z"/>
	</g>
	<g>
		<path fill="#F99F7C" d="M443.691,143.674c3.515-7.979,13.651-16.423,21.292-8.228c7.643,8.195,5.439,28.971-14.787,32.219
			C444.726,161.978,443.691,143.674,443.691,143.674z"/>
		<path fill="#F9C89C" d="M462.808,154.225c2.435-4.411,2.795-9.65-0.87-12.411c-6.387-4.812-14.103,3.704-16.949,12.24
			c-1.02-5.501-1.297-10.38-1.297-10.38c3.515-7.979,13.651-16.423,21.292-8.228c7.643,8.195,5.439,28.971-14.787,32.219
			c-1.227-1.276-2.229-3.187-3.047-5.381C453.331,161.926,458.891,160.063,462.808,154.225z"/>
		<path fill="#CE5A36" d="M450.259,168.053l-0.203,0.032l-0.144-0.148c-5.507-5.726-6.57-23.487-6.612-24.24l-0.005-0.095
			l0.037-0.086c2.161-4.908,6.281-9.204,10.495-10.944c2.969-1.226,7.363-1.77,11.444,2.606c3.564,3.823,5.007,10.254,3.673,16.381
			c-1.482,6.81-5.937,12.062-12.543,14.792c-0.002,0-0.002,0-0.002,0C454.519,167.128,452.452,167.701,450.259,168.053z
			 M444.091,143.747c0.091,1.407,1.258,18.025,6.249,23.495c2.057-0.344,3.993-0.888,5.76-1.618c0,0,0,0,0.001,0
			c8.582-3.546,11.249-10.438,12.075-14.23c1.28-5.884-0.085-12.038-3.479-15.678c-3.773-4.047-7.83-3.547-10.569-2.416
			C450.179,134.931,446.155,139.121,444.091,143.747z"/>
	</g>
	<g>
		<path fill="#CE5A36" d="M457.984,153.444c0,0-1.882-4.559-5.363-4.444c-1.935,0.062-3.759,1.38-5.438,3.923
			c0.803-3.582,3.074-10.465,8.783-11.63c2.273-0.462,4.136-0.156,5.537,0.906c2.407,1.826,2.686,5.325,2.688,5.361
			c0,0,0.483-3.938-2.208-5.984c-1.589-1.209-3.667-1.563-6.175-1.054c-8.309,1.687-9.742,13.956-9.798,14.478l-0.229,2.09
			l0.969-1.866c1.84-3.54,3.825-5.368,5.897-5.438C455.674,149.687,457.961,153.407,457.984,153.444z"/>
	</g>
	<g>
		<path fill="#F99F7C" d="M307.956,160.986c-1.146,10.081-0.096,39.195,17.74,49.426c17.836,10.231,42.819,15.475,59.968,14.426
			c17.147-1.049,51.246-14.951,62.001-30.426c7.857-11.308,4.196-36.459,0.787-41.181c-3.148-22.033-2.623-60.066-25.968-74.755
			s-93.641-5.771-107.805,11.279C300.516,106.804,304.905,139.364,307.956,160.986z"/>
		<path fill="#F9C89C" d="M307.956,160.986c-1.146,10.081,0.822,32.377,18.658,42.606s40.996,17.966,58.145,16.917
			c17.147-1.049,48.614-14.147,59.369-29.623c7.857-11.308,2.974-33.881-0.437-38.603c-3.147-22.033,2.138-59.12-21.207-73.809
			s-93.641-5.771-107.805,11.279C300.516,106.804,304.905,139.364,307.956,160.986z"/>
		<path fill="#CE5A36" d="M381.185,225.363c-0.001,0-0.002,0-0.002,0c-18.069,0-40.446-5.871-55.683-14.61
			c-18.05-10.354-19.025-40.083-17.94-49.762c-2.858-20.256-7.622-54.107,6.817-71.488c9.663-11.632,44.143-18.832,70.546-18.832
			c16.699,0,30.113,2.653,37.771,7.472c19.581,12.32,22.442,40.288,24.742,62.76c0.447,4.372,0.87,8.504,1.392,12.179
			c3.398,4.922,7.266,29.892-0.84,41.555c-11.092,15.961-45.439,29.563-62.299,30.594
			C384.249,225.32,382.734,225.363,381.185,225.363z M384.923,71.458c-30.068,0-61.444,8.32-69.94,18.548
			c-14.229,17.126-9.477,50.804-6.637,70.925l0.007,0.05l-0.006,0.05c-1.078,9.493-0.17,38.879,17.545,49.04
			c15.127,8.675,37.347,14.505,55.291,14.505c0,0,0.001,0,0.002,0c1.534,0,3.032-0.043,4.455-0.131
			c16.71-1.021,50.734-14.476,61.702-30.258c7.81-11.237,4.025-36.247,0.791-40.726l-0.057-0.079l-0.014-0.096
			c-0.531-3.713-0.958-7.887-1.41-12.304c-2.282-22.303-5.122-50.058-24.378-62.174C414.741,74.069,401.476,71.458,384.923,71.458z"
			/>
	</g>
	<g>
		<path fill="#F39D08" d="M446.746,148.017c12.066-29.672,4.853-77.41-28.722-89.738c2.886-2.36,8.524-4.722,12.066-4.853
			c-3.935-2.754-17.181-1.312-22.558,1.181c-1.836-3.935-12.853-11.804-21.509-13.771c1.968,1.312,6.558,8.656,6.558,8.656
			c-5.901-4.854-12.721-5.509-18.886-5.771c4.065,1.181,7.345,4.459,8.656,5.509c-11.673-3.41-51.673,0.394-72.395,26.36
			c-20.722,25.968-17.312,67.936,0,84.985c-4.428-19.581-3.246-59.87,17.836-71.083c-1.311,3.147-0.524,11.213-0.524,11.213
			c2.492-6.492,10.361-18.426,20.984-21.968c-2.229,1.968-6.426,9.968-6.951,16.525c5.901-6.951,22.296-14.951,30.82-15.869
			c-3.41,1.312-10.492,7.213-13.246,14.296c9.967-8.395,28.591-15.346,40-14.427c-3.278,0.918-10.36,6.164-14.164,10.885
			c8.394-4.459,34.23-3.934,43.148,2.755C436.778,99.591,442.025,138.018,446.746,148.017z"/>
		<path fill="#FFD117" d="M418.024,58.279c2.886-2.36,8.524-4.722,12.066-4.853c-3.935-2.754-17.181-1.312-22.558,1.181
			c-1.836-3.935-12.853-11.804-21.509-13.771c1.968,1.312,6.558,8.656,6.558,8.656c-5.901-4.854-12.721-5.509-18.886-5.771
			c4.065,1.181,7.345,4.459,8.656,5.509c-11.673-3.41-51.673,0.394-72.395,26.36c-20.571,25.78-17.352,67.317-0.365,84.599
			c-8.698-21.372-7.335-46.595,6.136-67.549c2.361-3.935,7.082-3.935,7.869-6.295c5.508-13.378,17.312-22.033,30.688-24.394
			c-7.082,4.721-15.737,9.442-18.099,18.885c7.082-3.147,14.164-7.869,22.033-6.295c-4.722,0.787-9.442,5.508-11.017,11.017
			c10.229-7.082,23.607-14.164,36.197-9.442c-3.147,0.786-6.295,0.786-8.656,3.934c2.361,0,19.411-5.771,34.624-3.147
			c-5.241,1.747-10.479,4.71-14.777,8.612c11.717-2.824,27.789-0.755,34.449,4.241c8.918,6.688,10.797,40.541,15.519,50.541
			C455.003,113.362,449.797,71.065,418.024,58.279z"/>
		<path fill="#E26E08" d="M310.638,161.796l-0.955-0.94c-17.314-17.052-21.189-58.997-0.031-85.511
			c17.366-21.764,47.713-27.57,62.907-27.57c3.227,0,6.049,0.234,8.282,0.684c-1.613-1.379-4.241-3.484-7.254-4.359l-3.134-0.909
			l3.261,0.139c5.775,0.246,11.835,0.821,17.352,4.542c-1.482-2.245-3.984-5.856-5.259-6.707l-1.777-1.184l2.082,0.473
			c8.238,1.872,19.204,9.347,21.601,13.644c3.462-1.491,9.558-2.558,14.72-2.558c2.577,0,6.035,0.271,7.885,1.565l0.959,0.672
			l-1.17,0.044c-3.154,0.116-8.236,2.095-11.283,4.339c11.936,4.597,21.35,14.059,27.252,27.407
			c8.255,18.668,8.671,43.825,1.037,62.6l-0.338,0.83l-0.383-0.811c-1.713-3.628-3.451-10.783-5.464-19.067
			c-3.431-14.123-7.7-31.699-13.302-35.9c-4.512-3.384-14.461-5.569-25.351-5.569c-7.523,0-14.02,1.064-17.377,2.848l-1.695,0.901
			l1.205-1.495c3.145-3.904,8.813-8.466,12.623-10.326c-0.091-0.001-0.183-0.001-0.274-0.001c-11.308,0-28.187,6.467-37.626,14.415
			l-1.179,0.993l0.56-1.437c2.322-5.972,7.637-11.028,11.305-13.373c-8.7,1.863-22.75,8.91-28.212,15.344l-0.79,0.93l0.098-1.216
			c0.445-5.568,3.571-12.4,5.982-15.562c-9.621,4.016-16.856,14.924-19.256,21.178l-0.598,1.556l-0.161-1.659
			c-0.03-0.303-0.651-6.833,0.238-10.423c-20.362,11.9-21.029,51.359-16.774,70.168L310.638,161.796z M372.559,48.562
			c-15.053,0-45.112,5.744-62.293,27.274c-9.469,11.866-14.636,28.479-14.177,45.58c0.415,15.436,5.324,29.473,13.198,37.905
			c-4.024-19.764-2.768-58.959,18.322-70.177l0.972-0.517l-0.424,1.016c-0.907,2.178-0.769,6.902-0.616,9.4
			c3.104-6.858,10.735-17.396,20.588-20.679l1.836-0.612l-1.451,1.28c-1.958,1.728-5.795,8.838-6.684,15.062
			c6.651-6.921,22.201-14.226,30.251-15.093l2.992-0.322l-2.809,1.081c-2.965,1.141-9.297,6.198-12.387,12.612
			c9.745-7.58,25.897-13.586,36.878-13.586c0.745,0,1.47,0.028,2.153,0.083l2.196,0.177l-2.122,0.595
			c-2.798,0.783-8.867,5.087-12.83,9.435c3.706-1.401,9.538-2.216,16.121-2.216c8.792,0,20.193,1.504,25.822,5.727
			c5.827,4.371,9.953,21.357,13.595,36.345c1.854,7.631,3.474,14.3,5.036,18.068c7.199-18.491,6.674-42.917-1.373-61.117
			c-5.924-13.394-15.42-22.812-27.465-27.234l-0.647-0.238l0.533-0.437c2.691-2.202,7.464-4.253,10.951-4.804
			c-1.46-0.549-3.631-0.846-6.295-0.846c-5.238,0-11.436,1.11-14.733,2.639l-0.355,0.165l-0.167-0.355
			c-1.621-3.475-11.203-10.677-19.75-13.166c2.205,2.436,5.333,7.425,5.49,7.677l1.275,2.041l-1.859-1.528
			c-5.043-4.147-10.708-5.179-16.23-5.552c2.476,1.215,4.511,2.975,5.733,4.031c0.302,0.261,0.558,0.481,0.764,0.646l1.553,1.243
			l-1.909-0.558C379.935,48.933,376.496,48.562,372.559,48.562z"/>
	</g>
	<g>
		<path fill="#E26E08" d="M327.77,91l-0.75-0.238c6.533-20.585,22.1-26.084,22.1-26.084C348.971,64.737,334.184,70.788,327.77,91z"
			/>
	</g>
	<g>
		<path fill="#CE5A36" d="M369.284,160.11c1.592-1.906,4.001-2.896,7.161-2.944c3.144-0.047,5.592,0.84,7.252,2.636
			c2.71,2.933,1.542,7.296,1.542,7.296c0.004-0.041,0.348-4.096-2.123-6.766c-1.503-1.623-3.745-2.423-6.659-2.379
			c-2.919,0.044-5.128,0.938-6.565,2.658c-2.61,3.121-1.848,7.982-1.84,8.031C368.052,168.642,366.443,163.512,369.284,160.11z"/>
	</g>
	<g>
		<path fill="#680600" d="M348.517,186.149c4.59,10.624,21.059,23.717,34.099,22.165c16.524-1.968,28.721-20.616,31.606-28.616
			C404.254,184.55,376.32,191.264,348.517,186.149z"/>
		<g>
			<g>
				<path fill="#ED6764" d="M382.615,208.314c6.405-0.764,12.155-4.035,16.97-8.22c-15.424-8.525-28.397-2.608-34.455,3.466
					C370.782,206.941,377.014,208.98,382.615,208.314z"/>
				<path fill="#F98282" d="M398.358,199.449c-13.541-6.878-25.064-2.731-31.475,2.526
					C377.229,206.591,388.766,206.378,398.358,199.449z"/>
				<path fill="#E04141" d="M380.449,208.833C380.448,208.833,380.448,208.833,380.449,208.833c-4.757,0-10.124-1.706-15.521-4.934
					l-0.433-0.26l0.356-0.356c4.896-4.91,12.104-7.841,19.282-7.841c5.207,0,10.47,1.45,15.642,4.309l0.492,0.271l-0.424,0.369
					c-5.546,4.819-11.327,7.616-17.183,8.313C381.944,208.79,381.199,208.833,380.449,208.833z M365.771,203.482
					c5.126,2.987,10.191,4.563,14.677,4.564c0,0,0,0,0.001,0c0.72,0,1.433-0.042,2.119-0.124c5.545-0.659,11.036-3.269,16.327-7.755
					c-4.893-2.613-9.855-3.938-14.762-3.938C377.336,196.229,370.512,198.932,365.771,203.482z"/>
			</g>
			<g>
				<path fill="#BCBCBC" d="M371.86,194.068c2.623,1.524,12.394,0.869,13.804-2.541c0.527-1.275,0.545-2.973,0.361-4.597
					c-5.134,0.643-10.653,1.036-16.382,1.047C369.876,190.421,370.451,193.25,371.86,194.068z"/>
				<path fill="#FFFFFF" d="M369.993,190.385c0.343,1.653,0.914,3.129,1.867,3.683c2.623,1.524,12.394,0.869,13.804-2.541
					c0.332-0.804,0.461-1.774,0.466-2.789C380.882,189.948,375.452,190.545,369.993,190.385z"/>
				<path fill="#8E8D8D" d="M376.316,195.238L376.316,195.238c-2.05,0-3.747-0.303-4.653-0.829
					c-1.267-0.735-2.078-2.887-2.411-6.394l-0.041-0.431h0.433c5.395-0.012,10.89-0.362,16.333-1.045l0.395-0.05l0.045,0.396
					c0.228,2.005,0.097,3.617-0.389,4.791C385.016,194.124,380.284,195.238,376.316,195.238z M370.08,188.37
					c0.321,2.906,1.02,4.802,1.978,5.358c0.779,0.453,2.371,0.723,4.259,0.723c3.739,0,8.158-1.077,8.983-3.074
					c0.403-0.974,0.529-2.32,0.375-4.007C380.477,188.005,375.235,188.341,370.08,188.37z"/>
			</g>
		</g>
		<path fill="#CE5A36" d="M380.445,208.833c-12.704,0-27.789-12.109-32.29-22.527l-0.293-0.676l0.725,0.133
			c6.586,1.212,13.581,1.826,20.791,1.826c19.057,0,36.516-4.273,44.672-8.245l0.87-0.424l-0.328,0.911
			c-2.96,8.207-15.109,26.871-31.931,28.874C381.943,208.79,381.197,208.833,380.445,208.833z M349.185,186.669
			c4.684,9.849,19.326,21.377,31.261,21.377c0.721,0,1.436-0.042,2.123-0.124c15.04-1.79,27.228-18.256,30.938-27.454
			c-8.567,3.886-25.61,7.907-44.128,7.907C362.39,188.375,355.601,187.801,349.185,186.669z"/>
	</g>
	<g>
		<path fill="#CE5A36" d="M366.465,188.402c-17.82,0-23.415-4.086-23.696-4.301l0.478-0.625c0.083,0.063,8.691,6.273,38.084,3.336
			c30.943-3.093,38.725-11.586,38.799-11.672l0.594,0.518c-0.311,0.357-7.979,8.805-39.314,11.938
			C375.668,188.168,370.718,188.402,366.465,188.402z"/>
	</g>
	<g>
		<path fill="#CE5A36" d="M335.496,185.757c8.244-0.761,12.667-6.248,12.711-6.303c0,0-1.384,3.343-5.289,5.009
			C338.811,186.215,335.496,185.757,335.496,185.757z"/>
	</g>
	<g>
		<path fill="#CE5A36" d="M420.387,175.998c-3.222-1.435-4.555-4.398-4.555-4.398c0.044,0.051,4.434,5.112,10.987,5.238
			C426.819,176.837,423.599,177.428,420.387,175.998z"/>
	</g>
	<g>
		<path fill="#CE5A36" d="M382.227,214.623c-4.501,0-7.985-2.278-7.985-2.278c0.045,0.019,4.62,1.89,9.714,1.413
			c8.153-0.759,11.29-5.102,11.321-5.145c0,0-2.705,5.134-11.248,5.929C383.417,214.598,382.814,214.623,382.227,214.623z"/>
	</g>
	<g>
		<g>
			<path fill="#E26E08" d="M391.767,109.337c0,0,9.975,0.412,13.803,10.244c-3.299-3.18-12.804-6.574-16.451-5.854
				C389.387,111.888,391.767,109.337,391.767,109.337z"/>
		</g>
	</g>
	<g>
		<g>
			<g>
				
					<ellipse transform="matrix(0.9649 -0.2626 0.2626 0.9649 -23.4784 109.754)" fill="#BCBCBC" cx="398.93" cy="142.727" rx="10.754" ry="14.689"/>
			</g>
			<g>
				<path fill="#FFFFFF" d="M409.307,139.903c2.129,7.828-18.624,13.476-20.754,5.647s0.789-15.438,6.521-16.997
					C400.804,126.994,407.177,132.076,409.307,139.903z"/>
			</g>
			<g>
				<path fill="#909091" d="M402.89,157.28c-5.92,1.61-12.511-3.607-14.694-11.632c-2.184-8.025,0.855-15.864,6.774-17.475
					s12.511,3.608,14.695,11.633C411.847,147.831,408.809,155.669,402.89,157.28z M395.177,128.933
					c-5.524,1.503-8.335,8.914-6.266,16.52c2.069,7.606,8.247,12.57,13.771,11.068c5.525-1.503,8.335-8.914,6.266-16.521
					C406.88,132.395,400.701,127.429,395.177,128.933z"/>
			</g>
		</g>
		<g>
			<g>
				
					<ellipse transform="matrix(0.9649 -0.2625 0.2625 0.9649 -23.7629 110.0904)" fill="#015B36" cx="400.101" cy="143.971" rx="7.231" ry="10.033"/>
			</g>
			<g>
				<path fill="#007349" d="M407.078,142.073c1.455,5.347-12.5,9.144-13.955,3.797s0.49-10.53,4.344-11.579
					C401.319,133.242,405.623,136.726,407.078,142.073z"/>
			</g>
			<g>
				<path fill="#014928" d="M402.838,154.032c-4.045,1.101-8.563-2.518-10.072-8.065c-1.51-5.547,0.553-10.955,4.598-12.056
					s8.563,2.518,10.072,8.064C408.944,147.523,406.883,152.931,402.838,154.032z M397.57,134.669
					c-3.65,0.994-5.485,5.974-4.089,11.103c1.395,5.129,5.5,8.493,9.149,7.5c3.65-0.993,5.484-5.973,4.089-11.103
					C405.325,137.042,401.22,133.676,397.57,134.669z"/>
			</g>
		</g>
		<g>
			<g>
				
					<ellipse transform="matrix(0.9649 -0.2626 0.2626 0.9649 -23.9255 110.5318)" fill="#00160D" cx="401.603" cy="144.786" rx="3.894" ry="5.18"/>
			</g>
		</g>
		<g>
			<g>
				
					<ellipse transform="matrix(0.9649 -0.2625 0.2625 0.9649 -22.937 109.4823)" fill="#FFFFFF" cx="398.368" cy="140.604" rx="1.87" ry="2.131"/>
			</g>
		</g>
		<g>
			<g>
				
					<ellipse transform="matrix(0.965 -0.2624 0.2624 0.965 -24.8777 111.2494)" fill="#FFFFFF" cx="404.114" cy="148.775" rx="0.912" ry="1.131"/>
			</g>
		</g>
	</g>
	<g>
		<g>
			<path fill="#E26E08" d="M345.343,114.283c0,0-9.332,3.549-9.851,14.086c2.123-4.061,10.065-10.288,13.753-10.76
				C348.408,115.949,345.343,114.283,345.343,114.283z"/>
		</g>
	</g>
	<g>
		<g>
			<g>
				
					<ellipse transform="matrix(0.9963 0.0857 -0.0857 0.9963 13.998 -29.0941)" fill="#BCBCBC" cx="345.781" cy="148.451" rx="10.754" ry="14.689"/>
			</g>
			<g>
				<path fill="#FFFFFF" d="M356.496,149.373c-0.696,8.082-22.124,6.238-21.43-1.844c0.695-8.083,6.056-14.223,11.974-13.714
					C352.957,134.325,357.191,141.29,356.496,149.373z"/>
			</g>
			<g>
				<path fill="#909091" d="M344.488,163.477c-6.111-0.526-10.504-7.694-9.791-15.98s6.265-14.6,12.377-14.072
					c6.111,0.525,10.504,7.694,9.792,15.979C356.151,157.689,350.601,164.002,344.488,163.477z M347.007,134.208
					c-5.704-0.49-10.895,5.499-11.57,13.353s3.415,14.643,9.119,15.133c5.704,0.491,10.895-5.499,11.57-13.353
					C356.802,141.488,352.711,134.699,347.007,134.208z"/>
			</g>
		</g>
		<g>
			<g>
				
					<ellipse transform="matrix(0.9963 0.0857 -0.0857 0.9963 13.9975 -29.2083)" fill="#015B36" cx="347.239" cy="148.448" rx="7.231" ry="10.033"/>
			</g>
			<g>
				<path fill="#007349" d="M354.443,149.068c-0.475,5.521-14.884,4.281-14.409-1.239c0.476-5.521,4.086-9.719,8.064-9.377
					C352.078,138.794,354.919,143.547,354.443,149.068z"/>
			</g>
			<g>
				<path fill="#014928" d="M346.346,158.836c-4.177-0.359-7.173-5.312-6.681-11.04s4.291-10.096,8.468-9.736
					c4.177,0.358,7.173,5.312,6.68,11.039C354.319,154.828,350.521,159.195,346.346,158.836z M348.065,138.844
					c-3.77-0.324-7.206,3.72-7.661,9.016c-0.456,5.296,2.239,9.868,6.008,10.192s7.205-3.72,7.661-9.017
					C354.53,143.741,351.834,139.168,348.065,138.844z"/>
			</g>
		</g>
		<g>
			<g>
				
					<ellipse transform="matrix(0.9963 0.0856 -0.0856 0.9963 14.0236 -29.2918)" fill="#00160D" cx="348.42" cy="148.805" rx="3.894" ry="5.181"/>
			</g>
		</g>
		<g>
			<g>
				
					<ellipse transform="matrix(0.9963 0.0857 -0.0857 0.9963 13.5936 -29.188)" fill="#FFFFFF" cx="346.822" cy="143.765" rx="1.869" ry="2.13"/>
			</g>
		</g>
		<g>
			<g>
				
					<ellipse transform="matrix(0.9963 0.0862 -0.0862 0.9963 14.5317 -29.56)" fill="#FFFFFF" cx="349.404" cy="153.415" rx="0.912" ry="1.131"/>
			</g>
		</g>
	</g>
	<g>
		<path fill="#F9C89C" d="M326.614,163.115c0,0,8.105-4.901,20.645-4.277c11.225,0.558,15.553,5.151,15.553,5.151L326.614,163.115z"
			/>
		<path fill="#CE5A36" d="M362.525,164.259c-0.043-0.044-4.382-4.487-15.286-5.029c-12.267-0.609-20.342,4.173-20.422,4.222
			c0,0,7.952-5.621,20.461-5.008C358.532,159.003,362.525,164.259,362.525,164.259z"/>
	</g>
	<g>
		<path fill="#F9C89C" d="M424.939,148.569c0,0-9.313-1.73-20.828,3.272c-10.307,4.479-12.737,10.303-12.737,10.303L424.939,148.569
			z"/>
		<path fill="#CE5A36" d="M391.736,162.296c0,0,1.885-6.326,12.219-10.815c11.49-4.992,20.913-2.525,20.913-2.525
			c-0.092-0.017-9.34-1.646-20.6,3.247C394.255,156.553,391.761,162.24,391.736,162.296z"/>
	</g>
	<g>
		<path fill="#008CA2" d="M582.263,370.066c-2.014,1.867-53.573,2.227-55.741,0c-2.168-2.23-1.857-30.904,0-32.82
			s53.574-1.916,55.741,0C584.43,339.164,584.276,368.199,582.263,370.066z"/>
		<path fill="#00B0A2" d="M578.204,366.258c-1.872,1.658-49.775,1.979-51.791,0c-2.013-1.982-1.724-27.469,0-29.17
			c1.728-1.703,49.776-1.703,51.791,0C580.217,338.789,580.074,364.596,578.204,366.258z"/>
		<path fill="#004651" d="M552.689,372.018c-7.485,0-25.059-0.164-26.543-1.689c-2.119-2.178-2.119-31.158,0-33.344
			c1.465-1.512,23.693-1.588,28.134-1.588c4.437,0,26.649,0.076,28.333,1.564c2.239,1.98,2.246,31.309,0.009,33.385
			C580.837,371.998,553.839,372.018,552.689,372.018z M554.28,336.223c-16.684,0-26.565,0.668-27.393,1.295
			c-1.896,1.957-1.897,30.326,0.009,32.287c0.738,0.688,9.837,1.387,25.793,1.387c16.882,0,28.312-0.73,29.221-1.41
			c1.991-1.846,1.999-30.482,0.002-32.248C581.084,336.898,571.116,336.223,554.28,336.223z"/>
	</g>
	<g>
		<path fill="#008CA2" d="M494.94,370.066c-2.013,1.867-53.572,2.227-55.741,0c-2.168-2.23-1.857-30.904,0-32.82
			c1.859-1.916,53.574-1.916,55.741,0C497.108,339.164,496.954,368.199,494.94,370.066z"/>
		<path fill="#00B0A2" d="M490.882,366.258c-1.872,1.658-49.774,1.979-51.791,0c-2.013-1.982-1.725-27.469,0-29.17
			c1.728-1.703,49.777-1.703,51.791,0C492.896,338.789,492.753,364.596,490.882,366.258z"/>
		<path fill="#004651" d="M465.367,372.018c-7.485,0-25.059-0.164-26.543-1.689c-2.119-2.178-2.119-31.158,0-33.344
			c1.466-1.512,23.694-1.588,28.134-1.588c4.437,0,26.65,0.076,28.333,1.564c2.24,1.98,2.247,31.309,0.009,33.385
			C493.516,371.998,466.517,372.018,465.367,372.018z M466.958,336.223c-16.683,0-26.565,0.668-27.393,1.295
			c-1.896,1.957-1.896,30.326,0.009,32.287c0.738,0.688,9.837,1.387,25.793,1.387c16.882,0,28.312-0.73,29.22-1.41
			c1.992-1.846,2-30.482,0.005-32.248C493.762,336.898,483.795,336.223,466.958,336.223z"/>
	</g>
</g>
</svg>
