<svg xmlns="http://www.w3.org/2000/svg" viewBox="0 0 768 430"><style>.a{fill:#F0D93E;}.b{fill:#A2CCE4;}.c{fill:#612E0F;}.d{fill:#FFB888;}.e{fill:#D4C9C0;}.f{fill:#CD5812;}.g{fill:#FF7B14;}.h{fill:#F4F500;}.i{fill:#C58C5D;}.j{fill:#38120D;}.k{fill:#FFF;}</style><path d="M423.8 91c-0.1-8.5-0.3-16.9-0.3-25.4 -0.1-5.9-0.1-11.9-0.2-17.8 -5.6-0.9-11.3-1.3-17-1.1 -3.4 0.1-11.8-0.8-11.9 3.1 0 4.1-0.1 8.3-0.2 12.4 -0.1 9.6-0.3 19.2-0.5 28.8C403.7 91 413.7 91 423.8 91 423.7 87.2 419.9 91 423.8 91z" class="a"/><path d="M435 253c1.2 3.8 2.4 7.6 3.5 11.5 0.7 2.5 1.4 4.9 2.1 7.4 2 0 4 0 6-0.3 5.5-0.5 11.1-1.5 16.3-3.3 -3-6.7-7.9-12.5-13.1-17.7 -2.9-2.9-6-5.6-9.2-8.2 -4.3-3.5-4.9-4.8-10.1-3.3C432 243.8 433.6 248.4 435 253 435.9 255.7 433.2 247.4 435 253z" class="b"/><path d="M423.2 92.4c-7.3 0-14.6 0-21.9 0 -2.3 0-4.6 0-6.9 0 -0.7 3.8-1.3 7.6-2 11.4 -2.2 12.5-4.6 24.9-6.9 37.4 15.5 0 31-0.1 46.5 0C428.8 125 426 108.7 423.2 92.4 418.5 92.4 424.4 99.4 423.2 92.4z" class="a"/><path d="M380.5 131.3c-3.5 0.2-11.9-1.3-14.7 0.4 -2.7 3.4-5.5 6.5-8.4 9.7 9.3-0.1 18.7-0.1 28-0.2 -0.3-1.8-0.6-3.5-0.9-5.3C383.9 131.9 384.6 131.1 380.5 131.3 377.5 131.5 381.8 131.3 380.5 131.3z" class="a"/><path d="M374.7 55.3c2 28.7 7.1 57.4 10.8 86 3.3-21.2 8.3-42.7 8-63.7 -0.1-6.4-0.1-12.7-0.2-19.1 0-2.8 1.7-13.1-0.1-15.4 -1.3-1.6-6.8 0.5-8.3 1C379 46 374.1 48.6 374.7 55.3 374.8 56.7 374.6 54.5 374.7 55.3z" class="a"/><path d="M437.4 108.2c-1.2 7.5-2.4 15.1-3.6 22.6 5-0.4 10-0.6 15-0.6 4.8 0 5.9 2.9 8.5 6.7 1.8 2.7 1.8 4.2 5.3 4.3 3.2 0 6.4 0 9.6 0.1 6.4 0.1 12.8 0.1 19.2 0.2 -0.4-7.9-0.5-15.9-0.6-23.8 3.2 0.9 6.3 1.7 9.5 2.6 -6.2-29.8-27.8-55.3-56-66.7C444 71.7 440.1 90.4 437.4 108.2 436.1 116.3 438.3 102.4 437.4 108.2z" class="a"/><path d="M498.8 130.7c0 3.7-0.2 7.3-0.5 11 2.4 0 4.8 0.1 7.2 0.1 -0.3-5.3-0.4-10.6-0.5-15.9 -0.1-4.2-2.7-3.4-6.5-4.5C498.7 124.4 498.8 127.5 498.8 130.7 498.8 136.8 498.8 126.8 498.8 130.7z" class="a"/><path d="M451.8 131.7c-3.7 0.1-7.5 0-11.3-0.1 -1.8-0.1-3.6-0.2-5.4-0.4 -2.6-0.2-2.6 7.6-3 10 9.3 0 18.6 0 27.9 0C457.1 138.2 454.4 134.9 451.8 131.7z" class="a"/><path d="M496.6 120.8c-1.4-0.4-2.9-0.8-4.3-1.2 -0.1 7.3-0.4 14.6-0.7 21.9 2.2 0 4.4 0.1 6.6 0.1 -0.3-3.6-0.5-7.3-0.5-11C497.7 128.1 499.2 121.5 496.6 120.8 495.5 120.5 497.1 121 496.6 120.8z" class="a"/><path d="M426.9 107.3c1.7 11.3 3.4 22.6 5.1 33.9 2-2 1.5-11 1.9-14.1 1.1-8.4 2.2-16.7 3.3-25.1 2.2-16.6 5.7-33.7 5.7-50.5 -0.8-5-13.9-10.9-18.2-8.8 -1.4 0.6-0.3 15.9-0.3 17.8 -0.1 6.8-0.2 13.6-0.3 20.4C423.9 90.2 425.5 98 426.9 107.3 427.6 111.8 426.2 102.6 426.9 107.3z" class="a"/><path d="M485.4 158.1c1.4-1.4 3.6-2.5 5.6-2.2 -0.2-2.9-0.4-5.9-0.4-8.8 -5.2 1.3-10.5 2.1-15.8 2.9 0 7.7 1.7 14.8 0.7 22.6 3.1-0.3 6.2 0 9.2 0.8 -0.2-5.9 0.9-12.6-0.3-18.4C484.9 155.8 485.3 156.9 485.4 158.1 486.3 157.2 485.4 157.9 485.4 158.1z" class="c"/><path d="M385.6 237.9c41.1 11.9 89.1-12.4 97.9-55.8 -0.4 2-0.7 4.1-1.3 6.1 9-3.2 17-10.7 16-21 -0.4-3.9-2.3-8.3-5.9-10.2 -1-0.6-2.2-0.7-3.3-0.5 -4.1 0.8-3.3 2.6-3.1 5.9 0.2 3.6 0 7.2-0.8 10.7 -0.2 1.3-7.8 0.4-8.9 0.1 -2-0.4-2.9-20.4-2.9-23.4 -42.3 5.6-86.9 5.7-129.2 0 -1.5 7.3-2 15.7-1.6 23.1 -2.9 1.1-6.7 0.9-9.7 0.5 -1.7-0.3-1.3-9.2-1.3-10.7 0.1-3.5 0.7-7.4-4.9-6.3 -4.5 0.9-6.9 6.4-7.3 10.4 -1.1 10.6 7.6 18.6 17 21.6 -0.8-2.5-1.5-4.9-2.3-7.4 5.1 12.5 9.5 23.8 18.1 34.5C360.5 226.2 372.9 234.2 385.6 237.9 386.2 238.1 384.8 237.7 385.6 237.9zM489.8 172.1c-3.6-5.4 0.4-4.5 4.4-1.7 -0.6-0.7-4.8-0.8-4.9-1.1 0.5 1.3 2.1 2.3 2.6 3.8 1 3.3-1.5 5.7-4.4 6.6C489.8 177.5 492 175.5 489.8 172.1 489.5 171.6 490.5 173.2 489.8 172.1zM327.4 178.4c-3.6-3-1.2-6.2 0.8-9.1 -0.1 0.1-4.3 0.8-4.8 1.1 0.4-0.3 5.8-4 6.5-1.6 0.3 1.5-2.6 3.7-2.9 5.2 -0.5 2.4 1.3 4.5 3.1 5.7C330 180 327.1 178.2 327.4 178.4 326.7 177.8 328.9 179.6 327.4 178.4z" class="d"/><path d="M342.7 149.8c-5.5-0.8-10.9-1.7-16.3-3 0.2 2.3 0.3 4.6 0.2 6.9 0 3.3 3.1 2 5.4 4.4 0.3-1.2 0.6-2.3 1.1-3.4 -1 1.2-0.3 6.6-0.3 8.2 0 3.4 0.1 6.8-0.1 10.1 3-0.6 6.1-1 9.2-0.8C341.2 165.8 340.4 156 342.7 149.8 339.5 149.4 342.7 149.8 342.7 149.8z" class="c"/><path d="M340.6 255c1.8-2.6 1-3.2-1.6-5.8 -1.7-1.6-3.9-2.1-5.6-3.7 -1.7-1.7-2.9-4-4.7-5.6 -3.1-2.6-6.1-4.1-8.8-7.4 -3-3.7-6.9-5.4-10.1-8.9 -0.3-0.3-4.4-6.8-5.3-2.5 -0.8 2.8 8.5 9 10.7 11C323.6 239.7 332.1 247.3 340.6 255 340.7 254.9 335.3 250.2 340.6 255z" class="e"/><path d="M318.7 130.7c0-3.1 0.1-6.2 0.4-9.3 -4.3 1.2-6.4 0.4-6.5 5.1 -0.1 5.1-0.4 10.3-0.6 15.4 2.4 0 4.8-0.1 7.2-0.1C318.9 138.1 318.7 134.4 318.7 130.7z" class="a"/><path d="M325.9 141.7c-0.4-7.3-0.5-14.7-0.6-22.1 -5.5 1.6-5.7 1.1-5.5 6.7 0.2 5.2 0 10.3-0.4 15.4C321.5 141.7 323.7 141.7 325.9 141.7 325.9 140.5 323.5 141.7 325.9 141.7z" class="a"/><path d="M319.4 119.8c2.4-0.7 4.9-1.4 7.3-2 -0.1 8-0.4 15.9-0.7 23.9 5.5-0.1 11-0.1 16.5-0.2 4 0 13.7 1.7 15.8-1.6 1.6-2.4 3.2-4.8 4.9-7.1 1.9-2.5 2.3-2.5 5.5-2.5 5 0 10 0.3 15 0.6 -2-12.1-3.8-24.3-5.6-36.4 -1.9-13.4-4.7-27.2-5-40.8 -28.1 11.6-49.7 36.9-56 66.7C317.9 120.2 318.6 120 319.4 119.8 319.8 119.6 319.3 119.8 319.4 119.8z" class="a"/><path d="M408.8 152.3c15.8 0 31.7-0.5 47.5-1.6 8.2-0.6 16.4-1.3 24.5-2.4 5.6-0.8 17.4-1.2 21.2-6.1 -62.2 0-124.3 0.4-186.5-0.2 2.6 3.9 11.6 4.6 15.8 5.4 7.7 1.3 15.5 2.2 23.2 2.8C372.5 151.7 390.6 152.3 408.8 152.3 422 152.3 382.3 152.3 408.8 152.3z" class="a"/><path d="M424.1 331c0 1.8 14.2 1.1 16.8 1.1 6.9 0.1 13.8 0.2 20.7 0.3 3.3 0.1 6.6 0 10 0 1.8 0 0.9-4.7 0.9-6.3 0-2-0.1-4-0.1-6 0-1.6-0.1-3.1-0.1-4.7 -0.1-3.8-1.1-2.6-4.4-2.5 -6.5 0.1-13.1 0.2-19.6 0.2 -7.2 0-14.4 0.1-21.6 0.1 -4.2 0-2.5 3.9-2.6 7.5C424.1 324.1 424.1 327.5 424.1 331 424.1 331.3 424.1 326.2 424.1 331z" class="f"/><path d="M409.5 284.1c0 3.6 0 7.2 0 10.9 4.1 0 8.2-0.1 12.3-0.2 -0.7-15.9-2.7-32-5.5-47.7 -1.1-6.2-1.4-4.6-7.2-4.4 0.1 3.8 0.1 7.6 0.2 11.5C409.4 264.1 409.5 274.1 409.5 284.1 409.5 288.2 409.5 267.5 409.5 284.1z" class="g"/><path d="M390.5 267.5c-0.8 7.1-1.4 14.2-2.1 21.4 2.1 0 4.1 0.1 6.2 0.1 -0.1 5-0.3 10.1-0.3 15.1 0 2.6-0.8 2.9 2.2 3 3.9 0.1 7.8 0.1 11.7 0.1 0-3.6-0.1-7.1-0.1-10.7 -3.6 0-7.1-0.1-10.7-0.2 -4.1-0.1-2-9.4-1.9-12.7 0.6-13.8 2.1-27.9 6.2-41.2 -0.5 0-7-1-7.1-0.9 -0.6 2.6-1.2 5.3-1.6 8C392 255.5 391.2 261.5 390.5 267.5 389.5 275.9 391.5 259.1 390.5 267.5z" class="h"/><path d="M409.4 308.6c0 1.1 0 2.2 0 3.3 12.9 0.1 25.6-0.1 38.6-0.1 -0.4-2.1 0.2-6-2.4-5.7 -3.3 0.5-6.6 0.9-10 1.2C426.9 308.1 418.2 308.5 409.4 308.6 409.4 309.7 420.3 308.5 409.4 308.6z" class="g"/><path d="M408.5 242.6c-2.1 0-4.2-0.1-6.3-0.2 -1 0.8-1.2 5.8-1.4 7.1 -1 6-1.8 12-2.5 18 -1 9-2.2 18.2-2.5 27.3 4.1 0.1 8.2 0.1 12.3 0.1C408 277.5 408.1 260 408.5 242.6z" class="g"/><path d="M303.6 245.3c3.4-6.1 9.9-2.4 8.3 3.9 4.1-6 8.7 1 6 5.8 5.8-3.1 4.7 5.6 2.1 8.2 4-1 3.8 4.3 6 6.3 1.8 1.6 3-1.3 4.4-2.9 1.7-1.9 3.3-3.8 5-5.7 2-2.3 5.7-4.3 2.9-6.7 -2.3-2-4.7-4.1-7-6.1 -4.5-3.9-9-7.8-13.5-11.8 -2.6-2.3-5.3-4.6-7.9-7 -2.7-2.3-5-6.7-7.8-3.6 -3.2 3.6-6.5 7.3-9.7 10.9 -2.1 2.3 2.5 4.6 4.5 6.4 1.8 1.6 3.6 3.3 5.4 4.9C302.8 247 303.2 246.1 303.6 245.3 304.4 243.9 303.2 246.2 303.6 245.3z" class="f"/><path d="M394.6 310.8c0 0.3-0.1 0.7-0.3 0.9 4.6 0 9.2 0.1 13.9 0.1 0-4.2-0.8-3.3-4.8-3.3 -3 0-6.1-0.1-9.1-0.3C394.2 309.2 394.7 310 394.6 310.8 394.6 311.2 394.6 310.4 394.6 310.8z" class="g"/><path d="M526.2 355.5c0.8 0 22.2 0.6 22.2-0.1 0-2.7 0-5.4 0-8 0-2.9-0.1-5.8-0.1-8.7 0.8-2.4 0.1-3.3-2.2-2.6 -2.3 0-4.6 0.1-6.8 0.1 -6.8 0.1-13.6 0.1-20.4 0.2 -3.5 0-7 0-10.5 0 -1.8 0-3.6 0-5.5 0 -4.2 0-2.8 1.3-2.8 4.8 0 2.8 0 5.7 0 8.5 0 1.2 0 2.5 0 3.7 0 3 2.7 1.7 5.2 1.7C512.3 355.3 519.2 355.4 526.2 355.5 530.9 355.6 522.6 355.4 526.2 355.5z" class="f"/><path d="M448.6 355.2c13.3 0.1 26.5 0.3 39.8 0.5 2.6 0 5.1 0 7.7 0 1.8 0 0.9-4.7 0.9-6.3 0-2-0.1-4-0.1-6.1 -0.1-3.1 1.4-7.3-2.2-7.2 -7.4 0.1-14.8 0.2-22.2 0.2 -7.9 0-15.9 0.1-23.8 0.1C448.7 342.7 448.7 349 448.6 355.2 454 355.2 448.7 350.2 448.6 355.2z" class="f"/><path d="M497.9 243.1c2 0 3.7 1.8 4.9 3.2 0-2.3 1.3-5.3 1.8-7.6 -2.6-0.6-5.1-1.1-7.7-1.7 -0.5 2.2-0.9 4.3-1.3 6.5C496.3 243.1 497.1 242.9 497.9 243.1 498.1 243.1 497.7 243 497.9 243.1z" class="i"/><path d="M429.8 295.6c0.4-0.1-2.8-28.2-3.1-30.5 -0.6-4.7-1.2-9.5-2-14.2 -0.4-2.6-0.9-5.1-1.4-7.7 -0.8-3.9-4.2-1.4-7.5-1 2.5 5.1 3.1 12.3 4 17.8 1.1 6.7 1.8 13.4 2.2 20.2 0.3 5.3 0.4 10.6 0.1 15.9 -3.3 0-6.7 0.3-10 0.3 -3.9 0-2.6 1.4-2.6 4.7 0 2 0 4 0 6 12.5 0 25-0.3 37.4-1.3 -0.5-2.7-1-11.9-3.9-11.5C438.6 294.9 434.2 295.3 429.8 295.6 429.7 295.6 432.5 295.4 429.8 295.6z" class="h"/><path d="M452.2 272c-1.6 0.2-3.3 0.4-4.9 0.4 13.1 12.3 28.7 16.4 44.5 6.7 -1.5-0.3-3-0.6-4.5-0.9 0.3-1.3 0.6-2.6 0.9-3.9 -4.8 3.3-10.6 5-16.5 4.2 -3.5-0.5-7-1.8-10-3.5C457.7 272.7 456.9 271.4 452.2 272 450.6 272.2 453.5 271.8 452.2 272z" class="d"/><path d="M488.9 271.1c0.7 3.5 6.1 4.9 9.1 3.8 7.5-2.6 11.4-14 8.5-21 -1-2.3-5.3-9.5-8.8-9.5 -6.1-0.6-0.2 13 2 13.1 -0.3 0-8.2-10.4-9.6-5.1 -0.3 1.6 3.2 9.4 5.5 9.9 -1.1-1.1-2.6-2.4-4.2-2.7 -7-1.5 1.1 7.4 3.2 8.4C493.7 268.1 486 266.2 488.9 271.1 489 271.4 488.9 271.1 488.9 271.1z" class="d"/><path d="M491.1 267.1C491.8 267 491.1 266.8 491.1 267.1 491.2 267.1 491.1 267 491.1 267.1z" class="i"/><path d="M494.4 250.1c-0.3 0.6-0.1 1 0.6 1.2C494.7 250.9 494.6 250.5 494.4 250.1 494.3 250.3 494.5 250.5 494.4 250.1z" class="i"/><path d="M439.3 271.9c-1.8-7.1-3.7-14.2-5.7-21.3 -1.1-3.8-2.2-7.6-3.4-11.3 -2.1 0-4.9 1.3-7 1.7 0 3.1 2.1 7.2 2.7 10.2 1.1 5.3 2 10.7 2.6 16.1 1 9 1.8 18.1 1.4 27.2 4.9-0.1 9.7-0.4 14.5-0.7C442.8 286.5 441.3 279.1 439.3 271.9 438.4 268.4 439.3 272 439.3 271.9z" class="g"/><path d="M502.7 237.9c0.8-4.2 1.5-8.4 2.4-12.6 3.1 1 24.6 9 25.8 7.7 -0.4-4.1-5.3-50.6-7.6-50.6 -3.7 8.2-6 17.2-8.9 25.7 -1.7 5.1-3.3 10.2-4.9 15.3 4.7 1.7 9.2 3.7 13.8 5.6 -6.9-1.5-13.9-4.2-20.5-6.5 -1 4.9-2.4 9.7-3.2 14.6C500.7 237.5 501.7 237.7 502.7 237.9 503.2 235.3 502.4 237.9 502.7 237.9z" fill="#B5B3C0"/><path d="M496 276.6c-2.3 0-4.7-1-6.3-2.6 -0.8 3.9 0.1 3.2 3.8 4C495.1 278.4 496.7 279.2 496 276.6z" class="i"/><path d="M372.6 327.2c0 3.3-1.2 4.7 2.6 4.7 3.9 0 7.7 0.1 11.6 0.1 7.3 0.1 14.5 0.2 21.8 0.3 3 0.4 11.2 1 12.3-1.1 1.1-2-0.1-9.1-0.1-11.2 0-1.6-0.1-3.1-0.1-4.7 -0.1-3.8-1.1-2.6-4.3-2.5 -3.5 0-6.9 0.1-10.4 0.1 -7.5 0.1-15 0.1-22.5 0.1 -1.8 0-3.6 0-5.4 0 -3.5 0-5.5-1.5-5.5 2.6C372.6 319.6 372.6 323.4 372.6 327.2 372.6 327.7 372.6 323.2 372.6 327.2z" class="f"/><path d="M475.6 359.7c0 5.7 0 11.4 0 17 0 3.1 4.9 1.7 7.6 1.8 3.9 0 7.8 0.1 11.6 0.1 9.4 0.1 18.8 0.3 28.2 0.3 1.8 0 0.9-4.1 0.9-5.6 0-1.6 0-3.1-0.1-4.7 -0.1-3.3 1.4-9.4-2.3-9.3C506.2 359.6 490.9 359.7 475.6 359.7 475.6 367.2 484.9 359.7 475.6 359.7z" class="f"/><path d="M372.6 359.7c0 5.7 0 11.4 0 17 0 3.1 4.9 1.7 7.6 1.8 3.9 0 7.8 0.1 11.6 0.1 9.4 0.1 18.8 0.3 28.2 0.3 1.8 0 0.9-4.1 0.9-5.6 0-1.6 0-3.1-0.1-4.7 -0.1-3.3 1.4-9.4-2.3-9.3C403.2 359.6 387.9 359.7 372.6 359.7 372.6 367.2 381.9 359.7 372.6 359.7z" class="f"/><path d="M423.2 355.5c0.8 0 22.2 0.6 22.2-0.1 0-3.3 0-6.6-0.1-10 -0.1-3.1-0.1-6.2-0.2-9.4 -3.8 0-7.6 0.1-11.4 0.1 -7.5 0.1-15 0.1-22.5 0.2 -2.4 0-4.8 0-7.2 0 -1.5 0-3.1 0-4.6 0 -3.7 0-2.3 1.7-2.4 4.8 0 2.8 0 5.7 0 8.5 0 1.2 0 2.5 0 3.7 0 3 2.7 1.7 5.2 1.7C409.3 355.3 416.3 355.4 423.2 355.5 427.9 355.6 419.6 355.4 423.2 355.5z" class="f"/><path d="M321.1 359.7c0 5.7 0 11.4 0 17 0 3.1 4.9 1.7 7.6 1.8 3.9 0 7.8 0.1 11.6 0.1 9.4 0.1 18.8 0.3 28.2 0.3 1.8 0 0.9-4.1 0.9-5.6 0-1.6 0-3.1-0.1-4.7 -0.1-3.3 1.5-9.4-2.3-9.3C351.8 359.6 336.4 359.7 321.1 359.7 321.1 367.2 330.4 359.7 321.1 359.7z" class="f"/><path d="M342.5 355.7c0-2.2 0-4.4 0-6.6 0-2.7-0.1-5.3-0.1-8 0-1.7-0.1-3.3-0.1-5 -2.2 0-4.4 0.1-6.6 0.1 -6.7 0.1-13.4 0.2-20.2 0.2 -3.5 0-6.9 0-10.4 0 -1.8 0-3.6 0-5.4 0 -3.4 0-5.5-1.5-5.5 2.5 0 5.4 0 10.9 0 16.3 7.2 0.1 14.4 0.1 21.6 0.2C324.7 355.5 333.6 355.7 342.5 355.7z" class="f"/><path d="M322.7 269.1c0.7-1 1.1-2.4 0.7-3.6 -1.2-3.9-4.3-1.2-6.2-0.3 2.5-0.5 5-7.6 3.5-8.9 -2.5-2.2-4.9 2.1-6 3.6 0.1 0.1 3-8.7 2.8-9.5 -1.7-7.5-7 5.2-8.3 6.5 0.8-0.8 1.3-5 1.5-5.8 1.6-8.4-4.2-9.4-7.3-1.8 -2.2 6.6-2 12.5 2.8 18C310.4 272.1 318.2 275.5 322.7 269.1 322.8 269 321.7 270.6 322.7 269.1z" class="d"/><path d="M347.2 332.2c5.2 0.1 10.4 0.2 15.6 0.2 2.1 0 6.7 1.2 6.7-1.3 0-2.9 0-5.9-0.1-8.8 0-2.9-0.1-5.9-0.1-8.8 0-1.4-6.2-0.6-7.6-0.6 -7.2 0.1-14.5 0.2-21.7 0.2 -3.5 0-7 0-10.5 0 -1.8 0-3.6 0-5.4 0 -4.2 0-2.8 1.3-2.8 4.8 0 2.8 0 5.7 0 8.5 0 1.2 0 2.5 0 3.7 0 3 2.7 1.7 5.2 1.7C333.2 332 340.2 332.1 347.2 332.2 351.8 332.3 343.5 332.1 347.2 332.2z" class="f"/><path d="M424.1 359.7c0 5.7 0 11.4 0 17 0 3.1 4.9 1.7 7.6 1.8 3.9 0 7.8 0.1 11.6 0.1 9.4 0.1 18.8 0.3 28.2 0.3 1.8 0 0.9-4.1 0.9-5.6 0-1.6 0-3.1-0.1-4.7 -0.1-3.3 1.5-9.4-2.3-9.3C454.7 359.6 439.4 359.7 424.1 359.7 424.1 367.2 433.4 359.7 424.1 359.7z" class="f"/><path d="M309.4 332.4c2.5 0 5.1 0 7.6 0 1.8 0 0.9-4.7 0.9-6.3 0-2-0.1-4-0.1-6 -0.1-3.1 1.4-7.3-2.2-7.2 -7.4 0.1-14.8 0.2-22.2 0.2 -7 0-14 0.1-21 0.1 -4.4 0-2.8 3.3-2.8 7.1 0 3.3 0 6.6 0 10 0 3.1 4.9 1.7 7.6 1.8 3.9 0 7.8 0.1 11.6 0.1C295.7 332.2 302.5 332.3 309.4 332.4z" class="f"/><path d="M548.7 356c-16.6 0-33.3 0.4-49.9 0.5 0-7.1 0-14.3-0.1-21.4 -2.2 0-1.4 12.6-1.4 14.7 0 4.7 1.4 6.2-3.5 6.2 -15.5 0-31 0.4-46.5 0.5 0-7.2 0-14.4-0.1-21.5 7.4 0 14.8 0 22.1 0 1.8 0 4.8 0.4 3.3-2.3 -1.1 0.5-3.5 0-4.6 0 -15.1 0-30.2 0.4-45.3 0.5 0-7.1 0-14.3-0.1-21.4 -5 0 3 20.9-3.7 20.9 -15.9 0-31.8 0.4-47.7 0.5 0-7.2 0-14.4-0.1-21.5 4.6 0 9.2 0 13.8 0 2.5 0 10.1 1.6 9.2-2.1 -1.6 1.7-15.8 0.2-17.6 0.2 -10.8 0.2-21.5 0.2-32.3 0.3 0-7.1 0-14.3-0.1-21.4 -2.2 0-1.4 12.5-1.4 14.8 0 4.7 1.4 6.1-3.5 6.1 -15.5 0-31 0.4-46.5 0.5 0-2.4 0.4-21.4-0.6-21.4 -1.5 0-1.3 15.4-1.3 17.8 0 4-0.4 3.1-4.2 3.1 -3.6 0.2-7.3 0.2-10.9 0.3 -2.4 0-7.4-1.2-7.4 1.8 16.7 0 33.4 0.1 50.1 0.3 -0.1 6.5-0.3 13-0.3 19.5 0 2.5-11.7 1.4-13.7 1.4 -11.1 0.2-22.2 0.3-33.4 0.4 -2.8 0-3-0.5-2.7 1.8 2.9 0 5.8 0 8.6 0 4.8 0 9.5 0.1 14.3 0.1 0 1.6-0.4 20.9-0.6 20.9 -0.6 0.5-4.8 0-5.8 0.1 -5.5 0.1-11 0.3-16.5 0.4 -0.5 3.4 7.2 1.9 9.8 1.9 4.5 0 8.9 0 13.4 0 9 0 17.9 0.1 26.9 0.2 -0.1 6.5-0.3 13-0.3 19.5 0 2.5-11.7 1.4-13.7 1.4 -11.2 0.2-22.3 0.3-33.5 0.4 -3.1 0-2.9-0.7-2.7 1.8 2.9 0 5.8 0 8.7 0 4.8 0 9.5 0.1 14.3 0.1 -0.1 3.4-2.8 21.1 1.5 21.1 0-7.1 0-14.2-0.1-21.2 16.8 0 33.6 0.1 50.3 0.3 -0.1 2.8-2.2 20.7 1.2 20.9 0-7.1 0-14.1-0.1-21.2 16.8 0 33.6 0.1 50.4 0.3 -0.1 2.8-2.2 20.7 1.2 20.9 0-7.1 0-14.1-0.1-21.2 16.8 0 33.6 0.1 50.3 0.3 -0.1 2.8-2.2 20.7 1.2 20.9 0-7.1 0-14.1-0.1-21.2 16.8 0 33.6 0.1 50.4 0.3 -0.1 2.8-2.2 20.7 1.2 20.9 0-7.1 0-14.1-0.1-21.2 16.7 0 33.4 0.1 50.2 0.3 0-0.9-0.1-1.7-0.2-2.6 -0.6 0.6-4.9 0.1-5.9 0.1 -5.5 0.1-11 0.3-16.6 0.4 -0.1-7.1-0.1-14.3-0.2-21.4 7.6 0 15.2 0.1 22.9 0.1C548.9 357.6 548.9 356.8 548.7 356 548.7 356 548.8 356.4 548.7 356zM408.7 335c4.9 1.2 11.6 0 16.7 0 6.9 0.1 13.8 0.2 20.7 0.2 -0.1 5.2-0.3 10.5-0.3 15.7 0 5.3 0.6 5-4.7 5 -15.1 0-30.2 0.4-45.3 0.5 0-7.2 0-14.4-0.1-21.5C400 335 404.4 335 408.7 335 408.7 335 404.9 335 408.7 335zM373.9 335.1c6.9 0.1 13.8 0.2 20.7 0.2 -0.1 5.2-0.3 10.5-0.3 15.7 0 5.3 0.5 5-4.7 5 -15.1 0-30.2 0.4-45.3 0.5 0-7.2 0-14.4-0.1-21.5C354.1 335 364 335 373.9 335.1 381.2 335.1 366.5 335 373.9 335.1zM349.3 311.8c6.9 0.1 13.8 0.2 20.7 0.2 -0.1 5.2-0.3 10.4-0.3 15.7 0 4.4 1 5.1-3.5 5.1 -15.5 0-31 0.4-46.5 0.5 0-7.2 0-14.4-0.1-21.5C329.5 311.7 339.4 311.8 349.3 311.8 356 311.8 341.9 311.8 349.3 311.8zM313.4 356.4c-6.9 0.1-13.7 0.1-20.6 0.2 0-7.2 0-14.4-0.1-21.5 16.8 0 33.6 0.1 50.3 0.3 0 1.5 0 20.7-0.7 20.7C332.7 356 323 356.2 313.4 356.4 307.2 356.4 319.4 356.3 313.4 356.4zM369.7 372.1c0 1.3 0.8 6.3 0 7.1 0 0.3-6.1 0.2-6.8 0.2 -14.4 0.3-28.8 0.4-43.2 0.5 0-7.2 0-14.4-0.1-21.5 16.8 0 33.6 0.1 50.3 0.3C369.9 363.1 369.8 367.6 369.7 372.1zM421.2 372.1c0 1.3 0.8 6.3 0 7.1 0 0.3-6.1 0.2-6.8 0.2 -14.4 0.3-28.8 0.4-43.2 0.5 0-7.2 0-14.4-0.1-21.5 16.8 0 33.6 0.1 50.3 0.3C421.4 363.1 421.3 367.6 421.2 372.1zM472.7 372.1c0 1.3 0.8 6.3 0 7.1 0 0.3-6.1 0.2-6.8 0.2 -14.4 0.3-28.8 0.4-43.2 0.5 0-7.2 0-14.4-0.1-21.5 16.8 0 33.6 0.1 50.3 0.3C472.9 363.1 472.8 367.6 472.7 372.1zM524.2 372.1c0 1.3 0.8 6.3 0 7.1 0 0.3-6.1 0.2-6.8 0.2 -14.4 0.3-28.8 0.4-43.2 0.5 0-7.2 0-14.4-0.1-21.5 16.8 0 33.6 0.1 50.3 0.3C524.4 363.1 524.3 367.6 524.2 372.1z" class="e"/><path d="M290.6 355.7c0-2.8 0-5.6-0.1-8.5 -0.1-2.8-0.1-5.7-0.2-8.5 -0.1-4.1-3.8-2.4-7.3-2.4 -3.5 0.1-7 0.1-10.6 0.1 -4.4 0-2.8 3.2-2.8 6.9 0 4 0 8-0.1 11.9C276.5 355.5 283.5 355.7 290.6 355.7z" class="f"/><path d="M538.3 359.7c-3.6 0-7.2 0-10.8 0 0 3 0 6 0 9 0 3.3 0 6.6-0.1 9.9 5.2 0.1 10.4 0.3 15.6 0.4 2.1 0 5.5 1.1 5.5-1.3 0-3-0.1-6-0.2-9 -0.1-3-0.1-6.1-0.2-9.1C544.8 359.6 541.5 359.6 538.3 359.7 534.9 359.7 541.8 359.6 538.3 359.7z" class="f"/><path d="M309.4 379c2.6 0 5.1 0 7.7 0 1.8 0 0.9-4.7 0.9-6.3 0-2-0.1-4-0.1-6 -0.1-3.1 1.4-7.3-2.2-7.2 -7.4 0.1-14.8 0.2-22.2 0.2 -7 0-14 0.1-21 0.1 -4.4 0-2.8 3.3-2.8 7.1 0 3.3 0 6.6 0 10 0 3.1 4.9 1.7 7.6 1.8 3.9 0 7.8 0.1 11.6 0.1C295.7 378.8 302.5 378.9 309.4 379z" class="f"/><path d="M371.8 355.5c0.8 0 22.2 0.6 22.2-0.1 0-2.7 0-5.4 0-8.1 -0.1-2.9-0.1-5.8-0.1-8.7 0.8-2.4 0.1-3.3-2.2-2.5 -2.3 0-4.6 0.1-6.8 0.1 -6.8 0.1-13.6 0.1-20.4 0.2 -3.5 0-7 0-10.5 0 -1.8 0-3.6 0-5.5 0 -4.2 0-2.8 1.3-2.8 4.8 0 2.8 0 5.7 0 8.5 0 1.2 0 2.5 0 3.7 0 3 2.7 1.7 5.2 1.7C357.8 355.3 364.8 355.4 371.8 355.5 376.4 355.6 368.1 355.4 371.8 355.5z" class="f"/><path d="M290.2 382.8c-4.1 0.1-8.3 0.1-12.4 0.1 -1.8 0-3.6 0-5.4 0 -4.1 0-2.8 1.2-2.8 4.8 0 4.7 0 9.4-0.1 14.1 4.5 0.1 9 0.2 13.5 0.4 1.1 0 6.9 0.8 7.6 0.1 0.5-0.6 0-4.2 0-5.2C290.4 392.4 290.3 387.6 290.2 382.8 287.2 382.9 290.3 388.7 290.2 382.8z" class="f"/><path d="M368.6 309.1c5.7 0.1 11.4 0.3 17.2 0.3 1.4 0 7.5 0.9 8.3 0 0.7-0.7 0-5.8 0-6.6 -0.1-3.5-0.1-6.9-0.2-10.4 -0.1-4.1-2.8-2.5-6.2-2.5 -14 0.2-27.9 0.2-41.9 0.3 0 6.2 0 12.5 0 18.7C353.3 308.9 360.9 309 368.6 309.1 369 309.1 365.8 309 368.6 309.1z" class="f"/><path d="M320.5 382.9c-6.9 0-13.8 0.1-20.7 0.1 -5.3 0-5.5-0.6-5.5 4.8 0 3.5 0 7 0 10.4 0 4.4 0.9 3.5 5.2 3.5 3 0 6 0.1 9 0.1 7 0.1 14 0.2 21 0.3 3.4 0.1 6.8 0.1 10.1 0.1 3.9 0 3-0.6 3-4.5 0-5-0.1-10.1-0.2-15.1C335 382.8 327.7 382.8 320.5 382.9 312.4 383 328.6 382.8 320.5 382.9z" class="f"/><path d="M526.4 382.9c-6.9 0-13.8 0.1-20.7 0.1 -5.3 0-5.5-0.6-5.5 4.8 0 3.5 0 7 0 10.4 0 4.4 0.9 3.5 5.2 3.5 3 0 6 0.1 9 0.1 7 0.1 14 0.2 21 0.3 3.4 0.1 6.8 0.1 10.1 0.1 3.9 0 3-0.6 3-4.5 0-5-0.1-10.1-0.2-15.1C541 382.8 533.7 382.8 526.4 382.9 518.3 383 534.6 382.8 526.4 382.9z" class="f"/><path d="M389 267.3c1-8.7 2.5-17.5 5.2-25.9 -4.9-0.8-6.6-3.4-8.1 1.6 -1.4 4.8-2.9 9.6-4.2 14.4 -2.9 10.3-5.5 20.7-7.8 31.2 2.3 0 4.5 0.1 6.8 0.1 2.8 0 6.5 1.5 6.6-1.9C387.8 280.4 388.3 273.8 389 267.3 390 258.9 388.1 275.6 389 267.3z" class="g"/><path d="M290.6 309.3c0-2.8 0-5.6-0.1-8.5 -0.1-2.8-0.1-5.7-0.2-8.5 -0.1-4.1-3.8-2.4-7.3-2.4 -3.5 0-7 0.1-10.6 0.1 -4.4 0-2.8 3.2-2.8 6.9 0 4 0 8-0.1 11.9C276.5 309.1 283.5 309.3 290.6 309.3z" class="f"/><path d="M423.4 382.9c-6.9 0-13.8 0.1-20.7 0.1 -5.3 0-5.5-0.6-5.5 4.8 0 3.5 0 7 0 10.4 0 4.4 0.9 3.5 5.2 3.5 3 0 6 0.1 9 0.1 7 0.1 14 0.2 21 0.3 3.4 0.1 6.8 0.1 10.1 0.1 3.9 0 3-0.6 3-4.5 0-5-0.1-10.1-0.2-15.1C438 382.8 430.7 382.8 423.4 382.9 415.3 383 431.6 382.8 423.4 382.9z" class="f"/><path d="M474.9 382.9c-6.9 0-13.8 0.1-20.8 0.1 -5.3 0-5.5-0.6-5.5 4.8 0 3.5 0 7 0 10.4 0 4.4 0.8 3.5 5.2 3.5 3 0 6 0.1 9 0.1 7 0.1 14 0.2 21 0.3 3.4 0.1 6.8 0.1 10.1 0.1 3.9 0 3-0.6 3-4.5 0-5-0.1-10.1-0.2-15.1C489.5 382.8 482.2 382.8 474.9 382.9 466.8 383 483.1 382.8 474.9 382.9z" class="f"/><path d="M372 382.9c-6.9 0-13.8 0.1-20.7 0.1 -5.3 0-5.5-0.6-5.5 4.8 0 3.5 0 7 0 10.4 0 4.4 0.8 3.5 5.2 3.5 3 0 6 0.1 9 0.1 7 0.1 14 0.2 21 0.3 3.4 0.1 6.8 0.1 10.1 0.1 3.9 0 3-0.6 3-4.5 0-5-0.1-10.1-0.2-15.1C386.5 382.8 379.2 382.8 372 382.9 363.8 383 380.1 382.8 372 382.9z" class="f"/><path d="M348.7 278c-9.6 2.5-18.4-1.8-25.1-8.6 -0.9 1.8-2.9 3.6-4.9 4.2 6.7 5.9 14.4 11.2 23.7 11.4 10.8 0 20.1-5.3 27.8-12.6 -3.9-0.2-7.7-1.9-11 0.4C356.1 275.1 352.5 277 348.7 278 344.9 279 352.3 277 348.7 278z" class="d"/><path d="M320.3 309.1c0.8 0 22.2 0.6 22.2-0.1 0-2.7 0-5.4 0-8.1 0-2.9-0.1-5.8-0.1-8.7 0.8-2.4 0.1-3.3-2.2-2.5 -2.3 0-4.6 0.1-6.8 0.1 -6.8 0.1-13.6 0.1-20.4 0.2 -3.5 0-7 0-10.5 0 -1.8 0-3.6 0-5.5 0 -4.2 0-2.8 1.3-2.8 4.8 0 2.8 0 5.7 0 8.5 0 1.2 0 2.5 0 3.7 0 3 2.7 1.7 5.2 1.7C306.3 308.9 313.3 309 320.3 309.1 324.9 309.2 316.6 309 320.3 309.1z" class="f"/><path d="M379.1 264.5c2.5-8.3 5.1-16.5 7.9-24.7 -4.7-1.3-4.3-1.7-8.3 1.4 -2.5 1.9-4.9 4-7.2 6.1 -5.9 5.4-11.4 11.4-15.3 18.4 -2.7 4.9 3.9 4.2 7.9 4.9 2.9 0.5 5.8 1 8.8 1.2C378.3 272.6 377.7 269.1 379.1 264.5 379.3 263.6 378.4 266.8 379.1 264.5z" class="b"/><path d="M390.4 240.7c1 0.9 2.1 1.8 3.3 2.6C394.6 240.3 393 241.2 390.4 240.7 391.5 241.6 391.7 240.9 390.4 240.7z" fill="#E84400"/><path d="M413.2 173c-0.8-0.9-2-1.1-3.2-1.1 1-0.1 2.2-0.5 3.2-0.5 -2.6 0-5.2-0.4-7.5 1.2 2.1 0.4 5-0.3 6.6 1.1 -2.6 1-4.8 3.2-7.4 4.1C406.1 177.4 414.8 175 413.2 173 413 172.8 413.4 173.2 413.2 173z" fill="#FFEDDC"/><path d="M548.8 374.5c0.5-13.1 0-26 0.3-39.2 -25.5-0.3-50.7-0.2-76-0.2 0.5-1.2-0.3-5.9-0.3-7.3 0-5.2 0.2-10.5 0.3-15.7 -5.3-0.1-10.7-0.1-16-0.2 -2.5 0-5 0-7.5-0.1 -0.4-2-0.6-4.2-1.2-6.1 0-4.6-2-9.9-3-14.5 -1.4-6.3-3-12.6-4.7-18.8 1.6 0.1 3.2 0.2 4.8 0.1 1.8 1.8 3.7 3.6 5.8 5.2 4.3 3.4 9.3 6.4 14.7 7.7 5.1 1.8 11.4 1.2 16.4-0.4 2.7-0.9 5.2-2.1 7.6-3.6 2.8-2 3.5-1.8 7-1.1 0.6-2.8 0.1-3.3 2.7-4.4 2.1-1 3.8-2.6 5.1-4.4 2.6-3.5 4.1-7.9 3.9-12.2 -0.2-3.3-1-6.5-2.9-9.3 -1.6-2.4-2.3-2.1-1.7-5.2 0.5-2.8 2.6-6-0.8-6.6 0.9-3.9 1.7-7.7 2.6-11.6 3.8 1.3 7.6 2.5 11.4 3.6 2.6 0.8 11.7 5.5 14 4.4 3.8-1.8-2.1-27.2-2.8-31.8 -1.1-7.1-2.1-14.3-3.9-21.3 -1.1-4.4-3.4 3.9-3.7 4.7 -4 12.4-8 24.8-11.1 37.5 -1.5-0.6-6.3-3.3-7.8-2.8 -1.2 5.4-2.2 10.9-3.1 16.3 -3.6-1.6-4.6 10.9-5.2 13.3 -5.8-3.1-5.5 5.4-2.6 8.2 -5.3-1.1-4.2 4.8-1.8 7 1.6 1.5 0.1 1.8-0.6 3.2 -0.9 1.7 0.2 3.1-0.1 4.7 -9.9 6.4-21.1 4.3-30.2-2.5 1.7-0.4 4.8-0.8 6.5-1.8 -5.8-13.4-17.4-23.9-29.7-31.5 20.5-7.3 37.2-22.6 45.3-42.9 0.7-1.8 1.7-4.1 1.9-6 2.4-0.6 4.8-1.5 7-2.7 4.6-2.6 8.4-6.7 9.9-11.9 1.5-5.2 0.8-11.2-2.8-15.3 -2.3-2.6-4.6-1.8-4.7-5.6 0-0.8 0.6-6.1 0-6.6 5.1-1.3 8.9-4.6 13.9-4.6 0.4 0 0.7-16.5 0.7-17.9 0-3.3-2.4-2.8-5.4-3.7 -0.9-4.8-2.3-9.5-3.9-14.1 -2.9-8-7-15.6-12-22.5 -9.7-13.4-23-24.1-38.2-30.8 -3.1-1.3-2.4-3.7-5-5.9 -3.1-2.7-7.2-4.3-11.1-5.2 -5.9-1.4-7.4-0.9-7.3 4.3 -9.6-1.4-19.3-1.5-28.9 0 0.1-7-5-5.4-10.6-3.4 -3.1 1.1-6.3 2.6-8.6 5 -1 1-1.7 2.2-2 3.5 -0.1 1.5-3.2 2.1-4.4 2.6 -15 7.1-28.1 18.1-37.5 31.7 -4.3 6.3-7.9 13.1-10.5 20.2 -1.3 3.5-2.4 7-3.2 10.6 -0.6 2.5 0 3.7-2.6 4.4 -2.9 0.8-3.5 0.1-3.5 3.5 0.1 5.5-0.7 12.1 0.6 17.5 4.8 0 8.3 3.2 13.2 4.5 -1 0.2 2.2 8.7-0.4 9.8 -4.9 2.2-7.1 8.1-7 13.2 0.1 5.6 2.9 10.7 7.2 14.2 1.5 1.2 11.2 4.7 11.5 5.5 8.4 22.2 22.9 40.4 45.6 49 -5.3 5.3-12.5 8.8-17.9 14.4 -4.7 4.9-8.5 10.4-11.2 16.6 2.1 0.7 4.3 1.3 6.5 1.7 -6.1 4.5-13.4 7.7-21.1 6.2 -3.2-0.6-15.3-5-14.1-9 0.6 0.5 2.6 3.1 3.3 2.4 2.6-2.9 5.2-5.8 7.8-8.6 1.6-1.7 8.4-7 7.4-9.6 -2.1-4.7-7.6-6-10.6-9.9 -2.6-3.4-6.1-4.6-8.9-7.6 -1.1-1.1-2.1-2.3-3-3.5 -1.8-3.7-5-4.5-8-6.8 -1.4-1.1-7.7-10.1-8.8-3 -0.4 2.4-3.6 5-5.3 6.9 -2.9 3.2-5.7 6.5-8.6 9.7 4.2 3.6 8.3 7.3 12.5 10.9 -1.6 4.2-1.9 9-0.3 13.3 1.5 4.2 4.6 7.9 8.5 10.1 2.5 1.4 5.6 2.3 8.4 1.3 1.6 1.6 3.2 3.1 4.9 4.6 6.9 6.1 16.3 9.3 25.4 7.7 5-0.9 9.7-3 14-5.8 2.7-1.8 5.2-3.8 7.6-6 2.4-2.2 3.1-1.4 6.4-1.7 -1.4 5.4-2.8 10.8-4 16.3 -3.9 0-7.9 0-11.8 0 -11.3 0-22.2 0.2-33.4 0.1 -19.9-0.2-39.6-0.1-59.4-0.1 0.1 38.2-0.3 76.2 0.2 114.4 56.9-1 113.6 0.6 170.6-0.4 24.3-0.2 49.2 0.6 73.5 0.4 9.1-0.1 18.3-0.2 27.4-0.4 2.2 0 8.9 1.3 8.9-1.3C548.8 392.3 548.8 383.4 548.8 374.5zM500.2 336.5c14.6-0.1 29.2-0.1 43.8-0.3 4.9-0.1 4.3 0.1 4.4 5 0 2.7 0.1 5.4 0.1 8 0 0.9 0.3 6.6-0.2 6.6 -8.8 0-17.7-0.2-26.5-0.3 -7.2-0.1-14.4-0.2-21.6-0.2C500.1 349 500.2 342.7 500.2 336.5 509.4 336.4 500.1 343.9 500.2 336.5zM474.9 336.4c6.6-0.1 13.1-0.2 19.7-0.2 3.7 0 2.2 4.2 2.2 7.2 0 2.3 0.1 4.5 0.1 6.8 0 1.5 0.9 5.6-0.9 5.6 -3.3 0-6.7 0-10 0 -6.1-0.1-12.2-0.2-18.2-0.3 -3.1 0-6.2-0.1-9.3-0.1 -2.8 0-9.9 1.3-9.9-1.8 0-2.6 0-5.2 0-7.8 0-1.5 0-3 0-4.4 0-3.5-1.4-4.8 2.8-4.8C459.3 336.4 467.1 336.4 474.9 336.4 483.1 336.3 466.8 336.4 474.9 336.4zM449.7 313.1c6.8 0 13.6-0.1 20.3-0.2 3.7 0 2.2 4.1 2.2 7.2 0 2.3 0.1 4.5 0.1 6.8 0 2.8 1.3 5.6-1.8 5.6 -3.8 0-7.5 0-11.3-0.1 -7-0.1-14-0.2-21-0.3 -2.9 0-5.8-0.1-8.6-0.1 -4 0-5.6 1.3-5.6-2.8 0-2.8 0-5.7 0-8.5 0-1.6 0-3.2 0-4.9 0-4 1.6-2.6 5-2.6C436 313.1 442.9 313.1 449.7 313.1zM437.4 307.1c2.7-0.3 5.4-0.6 8.1-1 2.6-0.4 2 3.5 2.4 5.7 -13 0-25.8 0.2-38.6 0.1 0-1.1 0-2.2 0-3.3M394.7 241.5c2.3 0.4 4.7 0.7 7.1 0.9 -3.9 12.6-5.4 26-6.1 39.1 -0.1 1.5-0.7 14.7 0.1 14.7 3.3 0.1 6.6 0.2 9.9 0.2 2.6-0.8 3.4 0.1 2.5 2.8 0 2.6 0 5.3 0.1 7.9 -3.1 0-6.3 0-9.4-0.1 -3.9-0.1-4.4 0.7-4.4-3 0-5 0.2-10.1 0.3-15.1 -2.1 0-4.1 0-6.2-0.1C389.9 273 390.9 256.9 394.7 241.5zM415.4 242.2c1.5 1.5 1.5 7.8 1.8 10.1 0.7 4.2 1.3 8.5 1.8 12.8 1.2 9.9 2.4 19.8 2.8 29.7 -4.1 0.1-8.2 0.1-12.3 0.2 0-10.6 0-21.1-0.1-31.7 0-4.4-0.1-8.9-0.2-13.3 0-1.9-0.1-3.7-0.1-5.6C409 241.3 412.8 242.5 415.4 242.2 415.4 242.2 413.3 242.4 415.4 242.2zM408.1 294.9c-4.1 0-8.2 0-12.3-0.1 0.3-8.3 1.3-16.7 2.2-24.9 0.7-6.2 1.5-12.3 2.5-18.4 0.4-2.5 0.8-4.9 1.4-7.4 0.6-2.9 4.1-1.4 6.7-1.5C408.1 260 408 277.5 408.1 294.9 403.8 294.9 408 291.4 408.1 294.9zM394.3 309.5c0-0.4 0-0.8 0-1.3 2.3 0.1 4.7 0.2 7 0.2 4.2 0.1 6.9-1.4 6.9 3.4 -4.6 0-9.2-0.1-13.9-0.1C394.8 310.9 394.3 310.3 394.3 309.5zM398.9 313.1c6.6-0.1 13.1-0.1 19.7-0.2 3.7 0 2.2 6.1 2.3 9.3 0 2.1 0.1 4.3 0.1 6.4 0 0.6 0.5 3.9-0.4 3.9 -2.7 0-5.4 0-8.1 0 -13.3-0.3-26.5-0.4-39.8-0.5 0-6.2 0-12.5 0-18.7C381.4 313.1 390.1 313.1 398.9 313.1 402.1 313 390.8 313.1 398.9 313.1zM446.9 305.8c-12.4 1-25 1.3-37.4 1.3 0-3.6 0-7.1 0-10.7 4.1 0 8.2-0.1 12.3-0.3 1.1-0.2 0.3-13.1 0.2-14.7 -0.4-6.4-1-12.7-1.9-19.1 -0.9-6.2-1.5-14.5-4.3-20.2 0.5-0.1 7.1-0.8 7.1-1.1 0.7 2.8 1.2 5.7 1.7 8.5 0.7 4.4 1.4 8.8 2 13.2 1.4 10.9 2.7 21.9 3.1 32.8 3.8 0 7.8-0.7 11.7-1.1 2.7-0.3 3.1-1.3 3.7 1.8C445.6 299.4 446.2 302.6 446.9 305.8 441.7 306.2 446 301.6 446.9 305.8zM441.3 280.3c1.1 4.5 2.1 9 3.1 13.5 -4.8 0.3-9.7 0.6-14.5 0.7 0.4-8.3-0.2-16.6-1.1-24.8 -0.6-5.5-1.4-11-2.5-16.4 -0.7-3.7-3.1-8.6-3.1-12.3 3.8-0.8 6.5-3.5 7.8 0.6 1.4 4.5 2.7 9 3.9 13.5C437.2 263.5 439.3 271.9 441.3 280.3 442.3 284.3 440.7 277.4 441.3 280.3zM495.7 278.5c-3.9-0.8-7 0.1-6.1-4.5 1.7 1.7 4.1 2.6 6.5 2.6C496 277.2 495.9 277.9 495.7 278.5 495.2 278.4 495.9 277.9 495.7 278.5zM499.7 236.9c1.1-4.7 2.1-9.5 3.2-14.2 6.7 2.3 13.6 5 20.5 6.5 -3.9-1.7-7.8-3.4-11.8-4.9 -3.4-1.3-0.7-5 0.3-8 0.9-2.7 1.7-5.4 2.6-8.1 2.8-8.5 5.2-17.5 8.9-25.7 2.2 0 7.2 46.5 7.6 50.6 -1.1 1.3-22.7-6.7-25.8-7.7 -0.6 2.8-1.1 5.5-1.6 8.3 -0.3 1.4 0.1 4.4-1.7 4.1C501.2 237.8 499.6 237.6 499.7 236.9 500.5 233.6 499.7 237 499.7 236.9zM496 241.4c0.3-1.4 0.6-2.9 0.9-4.3 2.6 0.5 5.2 1.1 7.7 1.7 -0.5 2.3-1.8 5.3-1.8 7.6 -1.7-1.9-4.5-4.3-7.2-2.7C495.7 242.8 495.9 242.1 496 241.4zM494.4 250.1c0.2 0.4 0.4 0.8 0.6 1.2C494.2 251.1 494 250.7 494.4 250.1 494.5 250.5 494.3 250.3 494.4 250.1zM489.5 268.2c1.4-1.9 3.4-0.1 5.1-0.1 -1.4-0.7-9.8-7-4.8-8.3 2.1-0.6 4.5 1.3 5.8 2.6 -1.4-0.3-5.3-6.6-5.5-7.9 -1.7-9.2 9.7 3.1 9.6 3.1 -2.2-0.2-8.1-13.8-2-13.1 3.9 0 8.4 8.1 9.2 10.7 0 7.1-0.5 17.8-9.5 19.9C494.6 276 485.5 272.3 489.5 268.2 489.6 268.2 488.9 268.8 489.5 268.2zM491.1 267.1C491.1 266.8 491.8 267 491.1 267.1 491.1 267 491.2 267.1 491.1 267.1zM463.6 276c8.3 3.8 17 3.4 24.6-1.7 -0.3 1.3-0.6 2.6-0.9 3.9 1.5 0.3 3 0.6 4.5 0.9 -15.8 9.7-31.4 5.6-44.5-6.7 3-0.1 6-0.5 9-1.1C458.6 273.1 461 274.7 463.6 276 466.3 277.2 461.1 274.8 463.6 276zM434.5 237.9c11 7.6 22.8 18.1 28.3 30.5 -6.4 2.2-13.5 3.4-20.3 3.5 -3.4 0.1-3.2-4.5-4-7.4 -0.7-2.4-1.4-4.9-2.1-7.3 -1.8-6-3.8-12.1-5.9-18C430.2 239.3 434.7 237.9 434.5 237.9 437.3 239.8 434.5 237.9 434.5 237.9zM501 122c3.6 0 3.8 0.8 3.9 3.7 0.1 5.3 0.2 10.6 0.5 15.9 -2.4 0-4.8-0.1-7.2-0.1 0.6-6.8 0.7-13.5 0.1-20.3C499.3 121.6 500.2 121.8 501 122 501.1 122 500.9 122 501 122zM444.3 55.4c0-0.6 0.1-1.1 0.1-1.7 28.2 11.5 49.7 36.9 56 66.7 -3.1-0.9-6.3-1.7-9.5-2.6 0.1 7.9 0.2 15.9 0.6 23.8 -5.6-0.1-11.3-0.1-16.9-0.2 -3.1 0-6.3-0.1-9.4-0.1 -4.1 0-4.8 0.3-7-3.1 -1.8-2.9-4-7.9-7.6-7.9 -5.6 0-11.2 0.2-16.8 0.6C437.8 105.9 442.8 80.6 444.3 55.4 444.3 54.8 444.2 56.8 444.3 55.4zM498.2 141.6c-2.2 0-4.4-0.1-6.6-0.1 0.3-7.3 0.6-14.6 0.7-21.9 3.1 0.9 5.9 0.4 5.6 4C497.5 129.6 497.6 135.7 498.2 141.6 495.9 141.6 498 140.1 498.2 141.6zM460 141.2c-9.3 0-18.6 0-27.9 0 0.4-2.6 0.8-5.1 1.2-7.7 0.5-3.2 0.4-2.4 3-2.2 3.3 0.3 6.6 0.4 9.9 0.4 1 0 4.4-0.6 5.5 0C454.4 134.9 457.1 138.2 460 141.2 452.5 141.2 459.7 140.9 460 141.2zM424.4 55.7c0-4.3 0.1-8.6 0.1-12.9 2.4-2.5 12.2 2.7 14.3 4 8.2 5.2 2.9 20.2 1.9 28 -1.6 13-3.3 25.9-5 38.9 -0.7 5.7-1.5 11.4-2.2 17.1 -0.4 2 0.1 8.8-1.4 10.3 -2.4-15.9-4.7-31.7-7.3-47.6C422.9 82 424.2 68.2 424.4 55.7 424.4 53.3 424.3 65.5 424.4 55.7zM432 141.2c-15.5 0-31 0-46.5 0 1.8-9.6 3.7-19.2 5.4-28.9 0.9-5 1.8-10 2.6-15 0.4-2.5-0.3-5 2.6-5 2.5 0 5 0 7.5 0 5.7 0 11.5 0 17.2 0 3.9 0 3.1 4.3 3.7 7.7 0.6 3.2 1.1 6.4 1.7 9.5C428 120.1 429.9 130.7 432 141.2 426.5 141.2 431.7 139.8 432 141.2zM394.3 55.7c0-2.7 0-5.3 0.1-8 3.9-0.6 7.9-0.9 11.9-1.1 3.3-0.1 6.6 0 9.8 0.3 1.6 0.1 3.2 0.3 4.8 0.5 3.8 0.5 2.4 2.5 2.4 5.8 0.1 12.6 0.3 25.2 0.5 37.8 -10 0-20 0-30 0C393.9 79.2 394.1 67.5 394.3 55.7 394.3 53.2 394.1 65.5 394.3 55.7zM374.6 51.5c0-5.9 18.4-10.1 18.5-8.3 0.3 12.1 0.2 24.3 0.4 36.5 0.3 20.1-4.9 41.1-8 61.5 -2-15.3-4-30.6-6-45.9 -0.9-7.1-1.9-14.3-2.7-21.4C375.8 66.9 373.7 58.6 374.6 51.5 374.6 51.5 374.6 52 374.6 51.5zM385.4 141.2c-9.3 0-18.7 0.1-28 0.2 2.1-2.3 4.3-4.6 6.2-7 2.7-3.4 3.2-2.6 7.8-2.7 4.1-0.1 8.2-0.3 12.4-0.6C384.3 134.5 384.9 137.9 385.4 141.2 375.4 141.3 385.2 140.1 385.4 141.2zM322.1 104.6c9.5-23 28.1-41.4 51.1-50.9 0.3 12.7 2.8 25.6 4.6 38.1 1.9 13 3.9 26.1 6 39.1 -4.2-0.3-8.3-0.6-12.5-0.6 -2.7 0-5.6-0.8-7.2 1.4 -1.6 2.2-3.1 4.4-4.7 6.6 -1.8 2.7-1.2 3.1-4.6 3.1 -3.3 0-6.6 0-9.9 0.1 -6.3 0.1-12.5 0.1-18.8 0.2 0.3-8 0.6-15.9 0.7-23.9 -3.2 0.9-6.3 1.7-9.5 2.6C318.3 115 320 109.7 322.1 104.6 326.2 94.6 320.2 109.2 322.1 104.6zM319.5 121.2c1.9-0.5 3.9-1.1 5.8-1.6 0.1 7.4 0.3 14.7 0.6 22.1 -2.2 0-4.4 0-6.6 0.1C319.9 134.9 320 128.1 319.5 121.2 320 121.1 319.6 123.3 319.5 121.2zM315.3 141.8c-0.9 0.3-2.4 0-3.3 0 0.2-5.1 0.5-10.3 0.6-15.4 0.1-4.7 2.2-3.9 6.5-5.1 -0.6 6.8-0.5 13.6 0.1 20.4C317.9 141.8 316.6 141.8 315.3 141.8zM320.6 144.9c-1.7-0.6-4.1-1.3-5.2-2.9 62.2 0.6 124.3 0.2 186.5 0.2 -3.5 4.5-13.9 5-19.1 5.8 -7.5 1.1-15 1.8-22.6 2.4 -14.6 1.1-29.3 1.7-44 1.9 -17.7 0.2-35.4-0.2-53.1-1.4C349.2 149.9 334 149.4 320.6 144.9 318.4 144.1 325.1 146.4 320.6 144.9zM484.6 158.9c0 4.8-0.1 9.5 0.1 14.3 -3-0.8-6.1-1-9.2-0.8 1-7.8-0.7-14.9-0.7-22.6 5.3-0.7 10.6-1.6 15.8-2.9 0 3 0.2 5.9 0.4 8.8 -2.1-0.2-4.2 0.8-5.6 2.2 -0.2-1.1-0.6-2.3-1.1-3.3C484.6 156.2 484.7 157.5 484.6 158.9 484.6 159 484.6 157.5 484.6 158.9zM341.7 169c0.1 1.1 0.2 2.2 0.3 3.3 -3.1-0.3-6.2 0.1-9.2 0.8 0.2-3.4 0.1-6.7 0.1-10.1 0-1.6-0.7-7 0.3-8.2 -0.5 1.1-0.8 2.2-1.1 3.4 -1.4-1.4-3.4-2.5-5.5-2.3 0.1-3 0.1-6-0.2-9 5.4 1.3 10.8 2.2 16.3 3C340.7 155.2 341.3 163.4 341.7 169 341.8 170.3 341.4 164.1 341.7 169zM378.6 235.4c-10.8-4.6-20.6-11.9-27.8-21.2 -7.9-10.3-12.1-21.1-16.9-33 0.8 2.5 1.5 4.9 2.3 7.4 -8.7-2.7-16.8-9.6-17.1-19.3 -0.1-4.4 1.5-9.2 5.3-11.8 1.9-1.3 4-1.2 6-0.1 2.3 1.2 1.4 1.7 1.2 3.9 -0.3 4 0 8 0.7 11.9 0.2 1.6 8.9 0.1 10-0.1 0 0 1.5-21.3 1.8-23.2 42.3 5.7 86.9 5.6 129.2 0 0 1.9 1.6 23.1 2 23.2 3.2 0.9 6.6 0.7 9.8 0.4 0.7-2.9 0.9-5.8 0.9-8.7 0.1-3.5-1.1-10.8 5.6-8.1 3.5 1 5.7 5.4 6.4 8.6 2.4 10.9-6.2 19.4-15.7 22.9 0.5-2 0.9-4.1 1.3-6.1C474 229.2 421.2 251.3 378.6 235.4 377.2 234.8 380.2 236 378.6 235.4zM304.4 221.3c-0.3-0.7 1.3-1.5 1.5-1.5 1.5-0.3 1.9 1.2 2.6 2.2 2.9 4 7.6 5.4 10.5 9.3 2 2.7 5.4 7.5 9 8.1 1.7 0.4 3.1 3.3 4.1 4.5 1.7 2.1 3.5 2.8 5.7 4.2 1.4 0.9 6.1 4.9 3.3 6.5 -1.5 0.8-11.5-9.7-13.3-11.3 -3.7-3.3-7.4-6.6-11.1-9.9C313.9 231 304.3 224.6 304.4 221.3 304.4 221.3 304.4 221.6 304.4 221.3zM301.9 247.4c-1.6-1.5-3.3-3-4.9-4.4 -1.9-1.8-6.6-4-4.5-6.4 3.2-3.6 6.5-7.3 9.7-10.9 2.6-3 3.2-0.4 5.8 1.8 2.7 2.4 5.3 4.7 8 7.1 5.1 4.5 10.3 9 15.4 13.5 1.8 1.5 3.6 3.1 5.3 4.6 3.6 3.1 3.2 2.9 0.1 6.5 -1.9 2.2-3.8 4.5-5.8 6.7 -0.6 0.7-3.6 4.8-4.3 4.2 -0.8-0.7-2.1-1.5-2.6-2.3 0.5-2.5-1.3-5.3-4.1-4.6 2.6-2.6 3.7-11.3-2.1-8.2 2.8-4.8-1.8-11.8-6-5.8 0.8-3.1-0.6-9-5.2-7C305.2 242.9 302.3 247.8 301.9 247.4 298.8 244.7 302 247.6 301.9 247.4zM317.6 272.6c-12 2.3-18.6-14.8-14.1-23.7 3.2-7.6 8.6-5.8 7.2 2.1 -0.2 0.8-0.7 5-1.5 5.8 1.3-1.2 6.6-14 8.3-6.5 0.2 0.8-2.7 9.6-2.8 9.5 1.3-1.7 2.4-4.3 5-4 3.5 0.4 0 8.9-2.5 9.3 2.2-1.1 6.6-3.7 6.4 1.5C323.5 269.6 320.1 272 317.6 272.6zM360 280.2c-15 8.4-29 4.2-41.2-6.6 2-0.6 3.9-2.4 4.9-4.2 5.6 5.6 12.7 9.9 20.9 9.3 3.9-0.3 7.6-1.6 11-3.5 2-1.1 4-2.5 5.8-3.9 3 0.5 6 0.9 9 1.1C367.1 275.4 363.7 278 360 280.2 357.1 281.8 364.2 277.7 360 280.2zM373 271.8c-4.6 0-9.5-1.2-14-2.2 -5.7-1.4-4.2-2.1-1.1-6.9 3.7-5.7 8.5-10.8 13.5-15.4 2.3-2.1 4.8-4.1 7.2-6.1 3.9-3 3.6-2.7 8.3-1.4 -2.2 6.4-4.3 12.9-6.3 19.4 -0.5 1.8-1.1 3.6-1.6 5.3 -0.5 1.6-0.9 3.2-1.4 4.8C376.7 272.9 376.3 272 373 271.8 372.9 271.8 374.2 271.9 373 271.8zM378.1 272.3c2-7.1 3.7-14.2 5.8-21.3 0.9-3.2 1.9-6.4 2.9-9.6 0.9-3 4.9-0.4 7.6 0 -2.8 8.4-4.2 17.2-5.2 25.9 -0.7 5.8-1.1 11.7-1.4 17.5 -0.2 4.4-0.1 4-4.5 4 -3 0-6-0.1-9-0.1C375.5 283.2 376.8 277.7 378.1 272.3 378.1 272.2 376.8 277.4 378.1 272.3zM345.7 290.1c14-0.1 27.9-0.1 41.9-0.3 2.1 0 4.1 0 6.2-0.1 0.1 3.7 0.1 7.3 0.2 11 0 1.3 1 7.6 0 8.6 -0.8 0.9-6.9 0-8.3 0 -5.7 0-11.4-0.1-17.2-0.3 -6.8-0.1-13.5-0.2-20.3-0.2 -2.3 0.9-3.2 0.3-2.6-1.7 0-1.9 0-3.8 0-5.7C345.7 297.6 345.7 293.9 345.7 290.1 355 290 345.7 297.6 345.7 290.1zM294.2 290.1c14.6-0.1 29.2-0.1 43.8-0.3 4.9-0.1 4.3 0.1 4.4 4.9 0 2.7 0.1 5.3 0.1 8 0 0.9 0.3 6.6-0.2 6.6 -8.8 0-17.7-0.2-26.5-0.3 -7.2-0.1-14.4-0.2-21.6-0.2C294.2 302.6 294.2 296.3 294.2 290.1 303.5 290 294.2 297.6 294.2 290.1zM280.4 290c2.5 0 5-0.1 7.5-0.1 3.9-0.1 2.4 3.7 2.5 7 0.1 3.7 0.2 7.4 0.2 11.1 0 2.4-3 1.3-5 1.3 -5.3 0-10.7-0.3-16.1-0.4 0.2-6.3 0.1-12.6 0.2-18.8M290.6 402.3c-7 0-14.1-0.2-21.1-0.4 0.1-3.3 0.1-6.6 0.1-9.9 0-3 0-6 0-9 3.6 0 7.2 0 10.8-0.1 3.3 0 6.5-0.1 9.8-0.1 0.1 3 0.1 6.1 0.2 9.1C290.5 395.4 290.6 398.8 290.6 402.3zM342.5 402.3c-8.2 0-16.3-0.1-24.5-0.3 -6.2-0.1-12.5-0.2-18.7-0.2 -4.3 0-5.2 0.9-5.2-3.5 0-3.5 0-7 0-10.4 0-5.4 0.2-4.8 5.5-4.8 3.6 0 7.1 0 10.7 0 7.6 0 15.3-0.1 22.9-0.2 3 0 6-0.1 9-0.1 0.1 3.8 0.1 7.5 0.2 11.3C342.5 396.7 342.5 399.5 342.5 402.3zM394 402.3c-8.2 0-16.3-0.1-24.5-0.3 -6.2-0.1-12.5-0.2-18.7-0.2 -4.3 0-5.2 0.9-5.2-3.5 0-3.5 0-7 0-10.4 0-5.4 0.2-4.8 5.5-4.8 3.6 0 7.1 0 10.7 0 7.6 0 15.3-0.1 22.9-0.2 3 0 6-0.1 9-0.1 0.1 3.8 0.1 7.5 0.2 11.3C394 396.7 394 399.5 394 402.3zM445.5 402.3c-8.2 0-16.3-0.1-24.5-0.3 -6.2-0.1-12.5-0.2-18.7-0.2 -4.3 0-5.2 0.9-5.2-3.5 0-3.5 0-7 0-10.4 0-5.4 0.2-4.8 5.5-4.8 3.6 0 7.1 0 10.7 0 7.6 0 15.3-0.1 22.9-0.2 3 0 6-0.1 9-0.1 0.1 3.8 0.1 7.5 0.2 11.3C445.5 396.7 445.5 399.5 445.5 402.3zM497 402.3c-8.2 0-16.3-0.1-24.5-0.3 -6.2-0.1-12.5-0.2-18.7-0.2 -4.3 0-5.2 0.9-5.2-3.5 0-3.5 0-7 0-10.4 0-5.4 0.2-4.8 5.5-4.8 3.6 0 7.1 0 10.7 0 7.6 0 15.3-0.1 22.9-0.2 3 0 6-0.1 9-0.1 0.1 3.8 0.1 7.5 0.2 11.3C497 396.7 497 399.5 497 402.3zM548.5 402.3c-8.2 0-16.3-0.1-24.5-0.3 -6.2-0.1-12.5-0.2-18.7-0.2 -4.3 0-5.2 0.9-5.2-3.5 0-3.5 0-7 0-10.4 0-5.4 0.2-4.8 5.5-4.8 3.6 0 7.1 0 10.7 0 7.6 0 15.3-0.1 22.9-0.2 3 0 6-0.1 9-0.1 0.1 3.8 0.1 7.5 0.2 11.3C548.5 396.7 548.5 399.5 548.5 402.3zM447.3 402.8c-3.4-0.2-1.3-18.1-1.2-20.9 -16.8-0.2-33.6-0.2-50.3-0.3 0 7.1 0 14.1 0.1 21.2 -3.4-0.2-1.3-18.2-1.2-20.9 -16.8-0.2-33.6-0.2-50.4-0.3 0 7.1 0 14.1 0.1 21.2 -3.4-0.2-1.3-18.1-1.2-20.9 -16.8-0.2-33.6-0.2-50.3-0.3 0 7.1 0 14.2 0.1 21.2 -4.3 0-1.6-17.7-1.5-21.1 -4.1 0-8.3-0.1-12.4-0.1 -2.7 0-10.9 1.4-10.6-1.8 11.4-0.1 22.9-0.2 34.3-0.4 0.7 0 15.6 0.2 15.6-0.6 0-6.8 0.1-13.5 0.3-20.3 -9-0.1-17.9-0.2-26.9-0.2 -3.7 0-7.5 0-11.2 0 -2.7 0-12.5 1.5-11.9-1.9 4.8-0.1 9.6-0.2 14.4-0.3 0.9 0 7.1 0.6 7.9-0.1 0.2 0 0.6-19.3 0.6-20.9 -4.1 0-8.3-0.1-12.4-0.1 -2.5 0-11.1 1.5-10.4-1.8 11.4-0.1 22.8-0.2 34.1-0.4 0.7 0 15.6 0.2 15.6-0.6 0-6.8 0.1-13.5 0.3-20.3 -16.7-0.2-33.4-0.3-50.1-0.3 0-2.9 2.8-1.7 5.1-1.7 3.8-0.1 7.6-0.2 11.4-0.3 4.1-0.1 6 1.3 6-3.2 0-5.9 0.4-11.7 0.4-17.6 2.8-1.1 1.5 6.5 1.5 8.1 0 4.4 0 8.8 0 13.1 15.5-0.2 31-0.5 46.5-0.5 4.8 0 3.5-1.4 3.5-6.1 0-2.2-0.8-14.8 1.4-14.8 0 7.1 0 14.3 0.1 21.4 10.8-0.1 21.5-0.2 32.3-0.3 1.8 0 16 1.5 17.6-0.2 0.9 3.6-4.9 2.1-7.2 2.1 -5.3 0-10.5 0-15.8 0 0 7.2 0.1 14.4 0.1 21.5 15.9-0.1 31.8-0.5 47.7-0.5 6.7 0-1.3-20.9 3.7-20.9 0 7.1 0.1 14.3 0.1 21.4 15.1-0.1 30.2-0.5 45.3-0.5 0.7 0 4.1-0.5 4.6 0 0.5 0 0.8 2.3-1.5 2.3 -8 0-15.9 0-23.9 0 0 7.2 0 14.4 0.1 21.5 15.5-0.1 31-0.5 46.5-0.5 4.8 0 3.5-1.4 3.5-6.2 0-2.1-0.8-14.7 1.4-14.7 0 7.1 0 14.3 0.1 21.4 12.1-0.1 24.2-0.2 36.3-0.4 3.4 0 6.8-0.1 10.2-0.1 3 0 3.5-0.7 3.6 2.4 -7.6-0.1-15.2-0.1-22.9-0.1 0 7.1 0.1 14.3 0.2 21.4 5.5-0.1 11-0.2 16.6-0.4 0.9 0 5.3 0.5 5.9-0.1 0.1 0.9 0.2 1.7 0.2 2.6 -16.7-0.2-33.4-0.2-50.2-0.3 0 7.1 0 14.1 0.1 21.2 -3.4-0.2-1.3-18.2-1.2-20.9 -16.8-0.2-33.6-0.2-50.4-0.3M548.5 375.2c0 4.2 0.2 3.8-4 3.8 -5.7 0-11.4-0.3-17-0.4 0.1-2.6 0.1-5.3 0.1-7.9 0-2 0-4.1 0-6.1 0-5.3 0.2-4.8 5.5-4.8 2.6 0 5.2 0 7.8-0.1 3.5-0.1 7.2-1.7 7.3 2.4C548.2 366.4 548.3 370.8 548.5 375.2zM269.6 378.5c0-5.4 0-10.9 0-16.3 0-4.2 4.7-2.5 8.2-2.5 4.4 0 8.7 0 13.1-0.1 6.7 0 13.4-0.1 20.2-0.2 3.5 0 6.6-1.6 6.6 2.5 0.1 3.5 0.1 7 0.2 10.4 0 1.1 0.7 5.9 0 6.6 -0.9 0.9-6.9 0-8.3 0C296.3 379 282.9 378.6 269.6 378.5 269.6 373.5 275 378.5 269.6 378.5zM269.5 355.3c0.2-5.5 0.1-10.9 0.2-16.4 0-4 2.1-2.5 5.5-2.5 2.6 0 5.2 0 7.8-0.1 2.4 0 4.8-0.1 7.2-0.1 0.1 2.3 0.1 4.7 0.2 7 0 0.9 0.7 12.4-0.2 12.4C283.3 355.7 276.4 355.5 269.5 355.3zM269.6 331.9c0-5.4 0-10.9 0-16.3 0-4.2 4.7-2.5 8.2-2.5 4.4 0 8.7 0 13.1-0.1 6.7 0 13.4-0.1 20.2-0.2 3.5 0 6.6-1.6 6.6 2.5 0.1 3.5 0.1 7 0.2 10.4 0 1.1 0.7 5.9 0 6.6 -0.9 0.9-6.9 0-8.3 0C296.3 332.4 282.9 332 269.6 331.9 269.6 326.9 275 332 269.6 331.9z" class="j"/><path d="M474.1 358.3c0 7.2 0 14.4 0.1 21.5 15.1-0.1 30.2-0.5 45.3-0.5 4.5 0 4.7 0.8 4.7-3.7 0-5.7 0.2-11.4 0.3-17C507.7 358.4 490.9 358.3 474.1 358.3 474.2 365.7 487.6 358.3 474.1 358.3zM523.9 372.4c0 1.1 0.7 5.9 0 6.6 -0.9 0.9-6.9 0-8.3 0 -12.5 0-24.9-0.4-37.4-0.5 -4 0-2.6-2-2.6-5.4 0-2.8 0-5.7 0-8.5 0-5.4 0.2-4.8 5.5-4.8 4.4 0 8.8 0 13.2-0.1 7.6 0 15.1-0.1 22.7-0.2 3.5 0 6.6-1.6 6.6 2.5C523.8 365.4 523.8 368.9 523.9 372.4z" class="j"/><path d="M422.6 358.3c0 7.2 0 14.4 0.1 21.5 15.1-0.1 30.2-0.5 45.3-0.5 4.5 0 4.7 0.8 4.7-3.7 0-5.7 0.2-11.4 0.3-17C456.2 358.4 439.4 358.3 422.6 358.3 422.7 365.7 436.1 358.3 422.6 358.3zM472.4 372.4c0 1.1 0.7 5.9 0 6.6 -0.9 0.9-6.9 0-8.3 0 -12.5 0-24.9-0.4-37.4-0.5 -4 0-2.6-2-2.6-5.4 0-2.8 0-5.7 0-8.5 0-5.4 0.2-4.8 5.5-4.8 4.4 0 8.8 0 13.2-0.1 7.6 0 15.1-0.1 22.7-0.2 3.5 0 6.6-1.6 6.6 2.5C472.3 365.4 472.3 368.9 472.4 372.4z" class="j"/><path d="M416.4 356.4c9.7-0.1 19.3-0.3 29-0.3 0.7 0 0.7-19.2 0.7-20.7 -16.8-0.2-33.6-0.2-50.3-0.3 0 7.2 0 14.4 0.1 21.5C402.7 356.5 409.5 356.4 416.4 356.4 422.4 356.3 410.1 356.4 416.4 356.4zM397.2 336.5c13-0.1 26.1-0.1 39.1-0.3 3 0 6-0.1 9-0.1 0.1 3.8 0.1 7.5 0.2 11.3 0 1.5 0.9 7.5 0 8.3 -0.9 0.9-6.9 0-8.3 0 -6.1 0-12.3-0.2-18.4-0.3 -7.2-0.1-14.4-0.2-21.6-0.2C397.2 349 397.2 342.7 397.2 336.5 401.1 336.4 397.2 343.9 397.2 336.5z" class="j"/><path d="M371.2 358.3c0 7.2 0 14.4 0.1 21.5 15.1-0.1 30.2-0.5 45.3-0.5 4.5 0 4.7 0.8 4.7-3.7 0-5.7 0.2-11.4 0.3-17C404.7 358.4 387.9 358.3 371.2 358.3 371.2 365.7 384.6 358.3 371.2 358.3zM420.9 372.4c0 1.1 0.7 5.9 0 6.6 -0.9 0.9-6.9 0-8.3 0 -12.5 0-24.9-0.4-37.4-0.5 -4 0-2.6-2-2.6-5.4 0-2.8 0-5.7 0-8.5 0-5.4 0.2-4.8 5.5-4.8 4.4 0 8.8 0 13.3-0.1 7.6 0 15.1-0.1 22.7-0.2 3.5 0 6.6-1.6 6.6 2.5C420.8 365.4 420.8 368.9 420.9 372.4z" class="j"/><path d="M344.3 356.5c15.1-0.1 30.2-0.5 45.3-0.5 4.5 0 4.7 0.8 4.7-3.7 0-5.7 0.2-11.4 0.3-17 -16.8-0.2-33.6-0.2-50.4-0.3C344.3 342.2 344.3 349.4 344.3 356.5 351.7 356.5 344.3 349.7 344.3 356.5zM345.7 336.5c14.6-0.1 29.2-0.1 43.8-0.3 4.9-0.1 4.3 0.1 4.4 4.9 0 2.7 0.1 5.3 0.1 8 0 0.9 0.3 6.6-0.2 6.6 -8.8 0-17.7-0.2-26.5-0.3 -7.2-0.1-14.4-0.2-21.6-0.2C345.7 349 345.7 342.7 345.7 336.5 355 336.4 345.7 343.9 345.7 336.5z" class="j"/><path d="M340.3 333.1c6.8-0.1 13.7-0.2 20.5-0.3 1.5 0 7.9 0.8 8.7 0 0.1 0 0.4-20.2 0.4-20.7 -16.8 0-33.6-0.3-50.3-0.3 0 7.2 0 14.4 0.1 21.5C326.6 333.2 333.4 333.1 340.3 333.1 346.3 333 334.1 333.1 340.3 333.1zM321.1 313.2c14.9-0.1 29.8-0.1 44.7-0.3 3.5 0 3.3-0.6 3.4 3.1 0.1 3.3 0.1 6.6 0.2 9.9 0 1.3 0.7 5.8 0 6.6 -0.8 0.9-7 0-8.3 0 -6.2 0-12.3-0.2-18.5-0.3 -7.2-0.1-14.4-0.2-21.6-0.2C321.1 325.7 321.1 319.4 321.1 313.2 330.4 313.1 321.1 320.7 321.1 313.2z" class="j"/><path d="M319.7 358.3c0 7.2 0 14.4 0.1 21.5 15.1-0.1 30.2-0.5 45.3-0.5 4.5 0 4.7 0.8 4.7-3.7 0-5.7 0.2-11.4 0.3-17C353.2 358.4 336.4 358.3 319.7 358.3 319.7 365.7 333.1 358.3 319.7 358.3zM369.4 372.4c0 1.1 0.7 5.9 0 6.6 -0.9 0.9-6.9 0-8.3 0 -12.5 0-24.9-0.4-37.4-0.5 -4 0-2.6-2-2.6-5.4 0-2.8 0-5.7 0-8.5 0-5.4 0.2-4.8 5.5-4.8 4.4 0 8.8 0 13.2-0.1 7.6 0 15.1-0.1 22.7-0.2 3.5 0 6.6-1.6 6.7 2.5C369.3 365.4 369.4 368.9 369.4 372.4z" class="j"/><path d="M336 356c3.5 0 6.8 1.6 6.8-2.4 0-6.1 0.2-12.2 0.3-18.4 -16.8-0.2-33.6-0.2-50.3-0.3 0 7.2 0 14.4 0.1 21.5C307.2 356.4 321.6 356.3 336 356zM308.4 355.3c-3 0-6 0-9-0.1 -4.3 0-5.2 0.9-5.2-3.5 0-2.7 0-5.4 0-8.2 0-1.5 0-3.1 0-4.6 0-4 2.2-2.5 5.5-2.5 14.2-0.1 28.4-0.2 42.6-0.3 0.1 4.7 0.2 9.4 0.2 14 0 2.8 1.3 5.6-1.9 5.6C329.9 355.7 319.1 355.5 308.4 355.3 304.2 355.3 312.7 355.4 308.4 355.3z" class="j"/><path d="M489.6 177.9c-0.6 0.7-1.3 1.3-2.1 1.8 2.9-0.9 5.3-3.3 4.4-6.6 -0.5-1.5-2.1-2.5-2.6-3.8 0.1 0.2 4.3 0.3 4.9 1.1 -0.8-0.5-5.9-4.1-6.5-1.6C487 172.1 493.1 173.7 489.6 177.9 488.6 179.1 490.1 177.2 489.6 177.9z" class="j"/><path d="M327.2 176.5c-0.7-2 3.2-8 1.9-8.4 -1.8-0.6-4.6 1.4-5.8 2.3 0.6-0.2 4.8-1 4.8-1.1 -0.5 0.7-1.3 1.4-1.7 2 -1.2 1.8-1.4 4.1-0.2 5.9 0.2 0.4 3.7 2.7 3.7 2.5C328.7 178.9 327.8 177.9 327.2 176.5 326.8 175.5 327.6 177.5 327.2 176.5z" class="j"/><path d="M414.3 181.1c-3.2-4.7-9.1-1.8-11.2 1.2 1.4-1.9 3.5-2.3 5.8-2.3 2.1-0.1 4.3 0.5 5.7 2.2C414.9 181.9 414.8 181.6 414.3 181.1 413.8 180.4 414.7 181.8 414.3 181.1z" class="j"/><path d="M412.8 182.2c-2.7-1.2-7-1.2-9.3 0.7 2.1-0.9 8.6-0.9 10.7 0C413.7 182.6 413.3 182.4 412.8 182.2 411.9 181.8 413.7 182.6 412.8 182.2z" class="j"/><path d="M375.9 167.5c0 2.1-0.1 11.3-3.7 11.3 -3.6 0-3.7-9.3-3.7-11.3s0.1-11.3 3.7-11.3C375.8 156.2 375.9 165.4 375.9 167.5z" class="j"/><path d="M373.4 161.7c0 3.2-2.4 3.2-2.4 0C371 158.5 373.4 158.5 373.4 161.7 373.4 163.2 373.4 160.2 373.4 161.7z" class="k"/><path d="M449 167.5c0 2.1-0.1 11.3-3.7 11.3s-3.7-9.3-3.7-11.3 0.1-11.3 3.7-11.3S449 165.4 449 167.5z" class="j"/><path d="M446.5 161.7c0 3.2-2.4 3.2-2.4 0C444.1 158.5 446.5 158.5 446.5 161.7z" class="k"/><path d="M439.4 201.5c-0.1-0.4-5.1-6.2-5.4-3.9 -0.6 2.3 3.3 0.8 1.1 4.3 -2.7 7.7-17.3 8.4-23.8 8.6 -9.2 0.3-21.5 0.1-28-7.6 -3.3-3.8 1-2.6 0.4-5.3 -0.3-1.7-7.8 3.6-5.7 5.2 0 0 2.5-2.2 3.1-2.4 4.1 10.3 18.3 11.6 27.7 11.6 9.5 0 23.6-1.3 27.7-11.6 0.6 0.2 3.1 2.4 3.1 2.4C439.8 202.4 439.7 201.9 439.4 201.5z" class="j"/></svg>