<svg version="1.1" id="Layer_1" xmlns="http://www.w3.org/2000/svg" xmlns:xlink="http://www.w3.org/1999/xlink" viewBox="0 0 768 430" enable-background="new 0 0 768 430" xml:space="preserve">
<g>
	<g>
		<g>
			<path fill="#5E9700" d="M352.949,146.067l-41.131,34.062l39.975,117.096l1.156,88.303h83.291v-239.46H352.949z M355.608,200.839
				l-26.794-21.301l10.118-12.728l26.794,21.3L355.608,200.839z"/>
			<path fill="#BAE35A" d="M505.172,191.449c-4.612-7.971-23.426-4.849-28.037-12.819c-39.241,22.378-63.282,64.295-62.836,109.53
				l-0.406,49.033c-0.009,1.059-0.774,1.958-1.817,2.136l0,0c-1.28,0.218-2.471-0.723-2.55-2.019
				c-1.815-29.6-1.52-59.158,0.134-88.462c-8.74,0.974-17.48,1.947-26.221,2.921c1.625,30.563,1.777,61.159-0.518,91.528
				c-0.045,0.593-0.489,1.079-1.075,1.179l0,0c-0.725,0.123-1.407-0.381-1.5-1.111l-5.929-46.358
				c-5.248-48.717-36.418-90.763-81.463-109.865c-3.952,9.158-7.903,18.316-11.855,27.474c34.812,15.358,58.472,48.4,61.774,86.193
				l4.143,31.672c1.526,11.668,2.004,23.449,1.43,35.202l-0.493,10.064c-0.371,7.592,5.684,13.95,13.285,13.95h67.435
				c7.222,0,13.123-5.762,13.297-12.98l1.073-44.661l0.59-45.814C442.58,253.231,474.909,209.288,505.172,191.449z"/>
			<path fill="#A2CC4F" d="M505.172,191.449c-4.391-7.588-21.648-5.124-27.276-11.745c-26.627,21.84-51.346,63.595-48.163,95.796
				l2.546,45.747l1.984,44.63c0.321,7.215-5.173,13.366-12.377,13.86l-67.277,4.614c-1.992,0.137-3.905-0.176-5.65-0.842
				c1.999,4.791,6.724,8.188,12.278,8.188h67.435c7.222,0,13.123-5.762,13.297-12.98l1.073-44.661l0.59-45.814
				C442.58,253.231,474.909,209.288,505.172,191.449z"/>
			<path fill="#53884B" d="M344.466,165.325l29-9.499c-5.662-37.8-38.459-66.888-77.723-66.828
				c-43.282,0.066-78.348,35.174-78.348,78.471c0,14,3.668,27.141,10.094,38.52c4.019,7.117,12.746,10.084,20.313,6.997l0,0
				c4.21-1.717,8.945-1.599,13.064,0.327l0,0c15.179,7.094,32.751,6.962,47.815-0.373c0.202-0.098,0.404-0.196,0.605-0.295
				c13.832-6.739,24.529-18.555,29.871-32.984L344.466,165.325z"/>
			<path fill="#72A942" d="M331.765,191.069c-15.064,7.334-32.637,7.466-47.815,0.372l0,0c-4.119-1.926-8.854-2.044-13.064-0.326
				c-7.568,3.087-16.294,0.119-20.313-6.998c-6.426-11.378-10.094-24.52-10.094-38.52c0-16.68,5.208-32.14,14.081-44.854
				c-22.306,13.838-37.163,38.545-37.163,66.725c0,14,3.668,27.141,10.094,38.52c4.019,7.117,12.746,10.084,20.313,6.997
				c4.21-1.717,8.945-1.599,13.064,0.327l0,0c15.179,7.094,32.751,6.962,47.815-0.373c0.202-0.098,0.404-0.196,0.605-0.295
				c10.429-5.081,19.074-13.049,24.988-22.847c-0.629,0.335-1.263,0.663-1.906,0.977
				C332.168,190.872,331.967,190.971,331.765,191.069z"/>
			<path fill="#44743F" d="M373.466,155.826c-5.662-37.8-38.459-66.888-77.723-66.828c-5.036,0.008-9.958,0.496-14.729,1.41
				c-6.28,7.58-9.842,16.237-9.842,25.432c0,27.221,31.202,49.739,71.804,53.512l1.491-4.026L373.466,155.826z"/>
			<path fill="#53884B" d="M452.223,214.188c0-12.777-11.999-23.747-29.128-28.484c-8.782-6.152-21.376-10.009-35.367-10.009
				c-12.131,0-23.21,2.899-31.667,7.68c-15.392,5.164-25.905,15.539-25.905,27.499c0,11.435,9.609,21.422,23.905,26.79
				c8.15,3.06,15.562,7.893,21.244,14.488c4.787,5.557,11.873,9.075,19.784,9.075c7.976,0,15.112-3.577,19.899-9.214
				c4.585-5.397,10.414-9.566,16.86-12.499C444.173,233.904,452.223,224.652,452.223,214.188z"/>
			<path fill="#53884B" d="M509.077,201.711L509.077,201.711c2.361,7.209,10.555,10.69,17.367,7.352
				c15.608-7.65,26.38-23.727,26.352-42.2c-0.039-25.856-21.013-46.806-46.879-46.806c-8.364,0-16.215,2.191-23.013,6.03
				c-4.252,2.4-6.024,7.614-4.18,12.136l0,0c1.025,2.515,0.955,5.344-0.195,7.805l-6.609,14.141
				c4.29,9.544,13.379,27.696,13.379,27.696l16.234,6.01C505.111,195.198,507.89,198.084,509.077,201.711z"/>
			<path fill="#44743F" d="M423.095,185.703c-8.031-5.626-19.25-9.33-31.811-9.923c9.512,21.72,31.192,36.897,56.421,36.897
				c1.493,0,2.974-0.057,4.44-0.161C451.15,200.46,439.472,190.232,423.095,185.703z"/>
			<path fill="#44743F" d="M524.312,146.839c0-8.867-1.879-17.295-5.253-24.912c-4.171-1.216-8.58-1.87-13.143-1.87
				c-8.364,0-16.215,2.191-23.013,6.03c-4.252,2.4-6.024,7.614-4.18,12.136c1.025,2.515,0.955,5.344-0.195,7.805l-6.609,14.141
				c4.29,9.544,13.379,27.696,13.379,27.696l16.234,6.01c0.214,0.079,0.425,0.165,0.633,0.255
				C515.699,182.835,524.312,165.844,524.312,146.839z"/>
			<path fill="#53884B" d="M446.873,62.894c-15.327-10.738-37.306-17.469-61.726-17.469c-21.172,0-40.509,5.061-55.268,13.404
				c-26.863,9.012-45.212,27.12-45.212,47.993c0,29.861,37.549,54.07,83.869,54.07c2.344,0,4.665-0.065,6.96-0.188
				c11.492,3.816,24.528,5.971,38.344,5.971c46.319,0,83.869-24.208,83.869-54.069C497.71,90.306,476.769,71.161,446.873,62.894z"/>
			<path fill="#72A942" d="M323.229,120.828c0-20.874,18.348-38.981,45.212-47.994c14.759-8.343,34.095-13.403,55.268-13.403
				c7.034,0,13.864,0.562,20.394,1.614c-15.148-9.655-35.969-15.62-58.954-15.62c-21.172,0-40.509,5.061-55.268,13.404
				c-26.863,9.012-45.212,27.12-45.212,47.993c0,25.325,27.01,46.581,63.47,52.456C332.76,149.477,323.229,135.87,323.229,120.828z"
				/>
			<path fill="#44743F" d="M497.71,112.606c0-7.405-2.312-14.462-6.491-20.888c-11.294-13.415-28.208-21.942-47.117-21.942
				c-34.003,0-61.568,27.565-61.568,61.568c0,12.378,3.656,23.901,9.943,33.555c6.822,1.155,13.98,1.776,21.364,1.776
				C460.16,166.676,497.71,142.468,497.71,112.606z"/>
			<circle fill="#53884B" cx="450.79" cy="140.669" r="61.568"/>
			<path fill="#72A942" d="M436.93,155.99c2.885-6.461,5.001-13.234,6.466-20.157c3.244-15.334,12.198-40.714,35.93-40.714
				c5.09,0,10.035,0.621,14.766,1.786c-11.122-11.006-26.417-17.804-43.301-17.804c-34.015,0-61.93,28.229-61.564,62.242
				c0.308,28.615,20.137,52.543,46.798,59.106C426.795,191.318,430.348,170.73,436.93,155.99z"/>
		</g>
		<circle fill="#72A942" cx="337.531" cy="55.572" r="5.206"/>
		<circle fill="#72A942" cx="351.797" cy="49.952" r="4.527"/>
		<circle fill="#72A942" cx="357.775" cy="47.024" r="5.141"/>
		<circle fill="#72A942" cx="372.428" cy="46.511" r="5.656"/>
		<circle fill="#72A942" cx="382.968" cy="47.024" r="5.141"/>
		<circle fill="#72A942" cx="394.279" cy="47.024" r="5.141"/>
		<circle fill="#72A942" cx="408.546" cy="50.438" r="5.013"/>
		<circle fill="#72A942" cx="419.886" cy="51.238" r="4.213"/>
		<circle fill="#72A942" cx="431.653" cy="56.754" r="4.587"/>
		<circle fill="#72A942" cx="328.083" cy="59.692" r="4.242"/>
		<circle fill="#72A942" cx="317.811" cy="64.201" r="4.509"/>
		<circle fill="#72A942" cx="306.134" cy="75.461" r="5.685"/>
		<circle fill="#72A942" cx="296.721" cy="84.371" r="5.27"/>
		<circle fill="#72A942" cx="288.752" cy="94.911" r="5.27"/>
		<circle fill="#72A942" cx="286.464" cy="105.547" r="5.366"/>
		<circle fill="#72A942" cx="288.366" cy="123.882" r="5.656"/>
		<circle fill="#72A942" cx="298.191" cy="133.344" r="4.169"/>
		<circle fill="#72A942" cx="304.048" cy="143.683" r="4.885"/>
		<circle fill="#72A942" cx="313.44" cy="148.053" r="4.37"/>
		<circle fill="#72A942" cx="319.615" cy="151.58" r="5.512"/>
		<circle fill="#72A942" cx="329.82" cy="154.822" r="4.456"/>
		<circle fill="#72A942" cx="339.18" cy="158.379" r="3.556"/>
		<circle fill="#72A942" cx="422.492" cy="86.807" r="3.663"/>
		<circle fill="#72A942" cx="432.064" cy="82.954" r="3.853"/>
		<circle fill="#72A942" cx="436.31" cy="80.059" r="3.085"/>
		<circle fill="#72A942" cx="446.399" cy="80.637" r="3.663"/>
		<circle fill="#72A942" cx="454.678" cy="79.429" r="2.455"/>
		<circle fill="#72A942" cx="462.146" cy="80.829" r="2.313"/>
		<circle fill="#72A942" cx="469.484" cy="81.864" r="2.436"/>
		<circle fill="#72A942" cx="475.834" cy="85.203" r="2.25"/>
		<circle fill="#72A942" cx="482.068" cy="88.67" r="2.442"/>
		<circle fill="#72A942" cx="414.845" cy="92.654" r="3.984"/>
		<circle fill="#72A942" cx="408.161" cy="97.282" r="2.7"/>
		<circle fill="#72A942" cx="402.505" cy="102.938" r="3.856"/>
		<circle fill="#72A942" cx="397.364" cy="111.292" r="3.342"/>
		<circle fill="#72A942" cx="392.801" cy="119.84" r="3.021"/>
		<circle fill="#72A942" cx="391.58" cy="128.901" r="3.599"/>
		<circle fill="#72A942" cx="390.134" cy="138.381" r="3.438"/>
		<circle fill="#72A942" cx="390.455" cy="148.214" r="3.117"/>
		<circle fill="#72A942" cx="391.943" cy="156.489" r="2.721"/>
		<circle fill="#72A942" cx="393.749" cy="166.578" r="3.615"/>
		<circle fill="#72A942" cx="400.62" cy="176.674" r="3.942"/>
		<circle fill="#72A942" cx="427.686" cy="198.426" r="4.297"/>
		<circle fill="#72A942" cx="416.301" cy="193.383" r="4.027"/>
		<circle fill="#72A942" cx="406.104" cy="180.226" r="3.599"/>
		<circle fill="#72A942" cx="410.926" cy="186.59" r="2.766"/>
		<circle fill="#72A942" cx="481.49" cy="94.519" r="3.406"/>
		<circle fill="#72A942" cx="475.583" cy="96.317" r="3.663"/>
		<circle fill="#72A942" cx="466.393" cy="99.73" r="3.091"/>
		<circle fill="#72A942" cx="458.996" cy="105.501" r="3.149"/>
		<circle fill="#72A942" cx="452.78" cy="112.267" r="3.617"/>
		<circle fill="#72A942" cx="449.115" cy="120.049" r="2.715"/>
		<circle fill="#72A942" cx="446.737" cy="127.166" r="2.635"/>
		<circle fill="#72A942" cx="442.515" cy="136.264" r="4.406"/>
		<circle fill="#72A942" cx="439.327" cy="146.578" r="3.41"/>
		<circle fill="#72A942" cx="436.276" cy="156.819" r="3.051"/>
		<circle fill="#72A942" cx="433.803" cy="167.269" r="4.306"/>
		<circle fill="#72A942" cx="430.812" cy="176.479" r="3.747"/>
		<circle fill="#72A942" cx="430.1" cy="188.283" r="4.458"/>
		<ellipse fill="#72A942" cx="432.028" cy="196.317" rx="2.531" ry="1.093"/>
		<circle fill="#72A942" cx="248.175" cy="105.462" r="2.739"/>
		<circle fill="#72A942" cx="242.48" cy="111.157" r="2.956"/>
		<circle fill="#72A942" cx="236.824" cy="117.155" r="3.042"/>
		<circle fill="#72A942" cx="231.663" cy="123.048" r="2.851"/>
		<circle fill="#72A942" cx="227.484" cy="130.701" r="2.871"/>
		<circle fill="#72A942" cx="223.563" cy="137.234" r="3.063"/>
		<circle fill="#72A942" cx="221.828" cy="146.125" r="2.785"/>
		<circle fill="#72A942" cx="218.979" cy="151.759" r="2.849"/>
		<circle fill="#72A942" cx="218.679" cy="159.429" r="2.892"/>
		<circle fill="#72A942" cx="218.465" cy="167.184" r="3.363"/>
		<circle fill="#72A942" cx="218.465" cy="175.752" r="3.363"/>
		<circle fill="#72A942" cx="220.629" cy="187.428" r="4.499"/>
		<circle fill="#72A942" cx="224.656" cy="193.254" r="4.156"/>
		<circle fill="#72A942" cx="226.456" cy="203.794" r="3.899"/>
		<circle fill="#72A942" cx="233.611" cy="211.635" r="3.256"/>
		<circle fill="#72A942" cx="238.595" cy="213.934" r="4.527"/>
		<circle fill="#72A942" cx="247.229" cy="213.948" r="3.685"/>
		<circle fill="#72A942" cx="257.175" cy="211.635" r="3.256"/>
		<circle fill="#72A942" cx="265.901" cy="214.362" r="4.098"/>
		<circle fill="#72A942" cx="277.22" cy="216.611" r="3.935"/>
		<circle fill="#72A942" cx="288.945" cy="216.955" r="4.277"/>
		<circle fill="#72A942" cx="295.657" cy="216.184" r="3.506"/>
		<circle fill="#72A942" cx="305.715" cy="214.278" r="3.355"/>
		<circle fill="#72A942" cx="310.691" cy="209.928" r="2.749"/>
		<circle fill="#72A942" cx="317.116" cy="206.907" r="2.5"/>
		<circle fill="#72A942" cx="324.106" cy="203.401" r="3.506"/>
		<circle fill="#72A942" cx="329.926" cy="197.582" r="2.314"/>
		<circle fill="#72A942" cx="423.581" cy="59.268" r="3.695"/>
		<circle fill="#72A942" cx="415.817" cy="59.887" r="4.314"/>
		<circle fill="#72A942" cx="406.032" cy="62.28" r="3.013"/>
		<circle fill="#72A942" cx="396.721" cy="63.478" r="2.699"/>
		<circle fill="#72A942" cx="389.313" cy="65.559" r="4.218"/>
		<circle fill="#72A942" cx="377.574" cy="69.4" r="4.108"/>
		<circle fill="#72A942" cx="366.708" cy="74.211" r="4.434"/>
		<circle fill="#72A942" cx="358.049" cy="78.049" r="2.588"/>
		<circle fill="#72A942" cx="348.231" cy="82.468" r="3.953"/>
		<circle fill="#72A942" cx="339.33" cy="91.112" r="4.306"/>
		<circle fill="#72A942" cx="331.875" cy="98.567" r="3.149"/>
		<circle fill="#72A942" cx="327.372" cy="104.783" r="5.052"/>
		<circle fill="#72A942" cx="322.602" cy="113.441" r="4.792"/>
		<circle fill="#72A942" cx="322.947" cy="126.626" r="5.137"/>
		<circle fill="#72A942" cx="328.612" cy="141.928" r="5.664"/>
		<circle fill="#72A942" cx="337.531" cy="155.193" r="5.206"/>
		<circle fill="#72A942" cx="324.752" cy="192.837" r="3.481"/>
		<circle fill="#72A942" cx="317.944" cy="196.07" r="3.328"/>
		<circle fill="#72A942" cx="312.188" cy="196.639" r="3.256"/>
		<circle fill="#72A942" cx="304.329" cy="196.117" r="3.28"/>
		<circle fill="#72A942" cx="294.965" cy="193.383" r="4.028"/>
		<circle fill="#72A942" cx="288.438" cy="192.869" r="3.771"/>
		<circle fill="#72A942" cx="281.834" cy="189.514" r="4.615"/>
		<circle fill="#72A942" cx="273.609" cy="190.2" r="3.61"/>
		<circle fill="#72A942" cx="267.002" cy="192.584" r="3.486"/>
		<circle fill="#72A942" cx="262.671" cy="190.2" r="3.61"/>
		<circle fill="#72A942" cx="255.89" cy="187.201" r="2.999"/>
		<circle fill="#72A942" cx="247.229" cy="180.14" r="3.685"/>
		<circle fill="#72A942" cx="251.047" cy="184.555" r="2.872"/>
		<circle fill="#72A942" cx="244.963" cy="173.404" r="3.212"/>
		<circle fill="#72A942" cx="242.016" cy="164.669" r="3.42"/>
		<circle fill="#72A942" cx="241.779" cy="154.764" r="3.184"/>
		<circle fill="#72A942" cx="240.909" cy="145.903" r="4.084"/>
		<circle fill="#72A942" cx="241.623" cy="137.157" r="3.813"/>
		<circle fill="#72A942" cx="242.824" cy="129.199" r="3.301"/>
		<circle fill="#72A942" cx="244.447" cy="121.058" r="2.824"/>
		<circle fill="#72A942" cx="247.3" cy="113.927" r="1.864"/>
		<circle fill="#53884B" cx="525.609" cy="123.984" r="3.181"/>
		<circle fill="#53884B" cx="531.329" cy="128.483" r="2.539"/>
		<circle fill="#53884B" cx="536.824" cy="132.758" r="2.957"/>
		<circle fill="#53884B" cx="542.415" cy="139.12" r="3.406"/>
		<circle fill="#53884B" cx="546.335" cy="144.711" r="2.828"/>
		<circle fill="#53884B" cx="551.027" cy="154.68" r="4.692"/>
		<circle fill="#53884B" cx="552.441" cy="165.084" r="3.278"/>
		<circle fill="#53884B" cx="551.798" cy="171.774" r="3.92"/>
		<circle fill="#53884B" cx="548.354" cy="183.071" r="4.441"/>
		<circle fill="#53884B" cx="543.897" cy="191.796" r="4.457"/>
		<circle fill="#53884B" cx="536.39" cy="198.647" r="4.418"/>
		<circle fill="#53884B" cx="530.632" cy="204.457" r="4.007"/>
		<circle fill="#53884B" cx="521.239" cy="209.364" r="4.37"/>
		<circle fill="#53884B" cx="507.39" cy="195.691" r="2.956"/>
		<circle fill="#53884B" cx="510.185" cy="203.483" r="2.795"/>
		<circle fill="#53884B" cx="516.2" cy="208.836" r="3.842"/>
		<circle fill="#53884B" cx="505.14" cy="192.59" r="3.406"/>
		<circle fill="#53884B" cx="510.185" cy="185.867" r="2.795"/>
		<circle fill="#53884B" cx="515.787" cy="181.559" r="3.428"/>
		<circle fill="#53884B" cx="518.513" cy="174.5" r="2.727"/>
		<circle fill="#53884B" cx="522.061" cy="169.339" r="3.548"/>
		<circle fill="#53884B" cx="523.596" cy="159.449" r="2.356"/>
		<circle fill="#53884B" cx="524.428" cy="150.729" r="3.189"/>
		<circle fill="#53884B" cx="524.545" cy="143.153" r="2.484"/>
		<circle fill="#53884B" cx="524.428" cy="135.946" r="3.189"/>
		<circle fill="#53884B" cx="522.826" cy="128.729" r="2.784"/>
		<circle fill="#53884B" cx="257.839" cy="100.045" r="3.92"/>
		<circle fill="#53884B" cx="265.298" cy="96.192" r="3.538"/>
		<circle fill="#53884B" cx="274.414" cy="92.883" r="3.242"/>
		<circle fill="#53884B" cx="274.312" cy="102.257" r="2.526"/>
		<circle fill="#53884B" cx="271.365" cy="111.25" r="3.05"/>
		<circle fill="#53884B" cx="271.625" cy="124.278" r="2.789"/>
		<circle fill="#53884B" cx="270.955" cy="118.938" r="2.119"/>
		<circle fill="#53884B" cx="274.072" cy="134.285" r="3.584"/>
		<circle fill="#53884B" cx="279.273" cy="138.49" r="3.438"/>
		<circle fill="#53884B" cx="284.161" cy="146.403" r="3.063"/>
		<circle fill="#53884B" cx="291.353" cy="151.168" r="2.601"/>
		<circle fill="#53884B" cx="294.881" cy="155.068" r="3.31"/>
		<circle fill="#53884B" cx="302.225" cy="159.727" r="3.237"/>
		<circle fill="#53884B" cx="307.503" cy="162.263" r="4.315"/>
		<circle fill="#53884B" cx="315.139" cy="164.875" r="4.476"/>
		<circle fill="#53884B" cx="322.001" cy="167.184" r="3.363"/>
		<circle fill="#53884B" cx="329.597" cy="168.632" r="3.757"/>
		<circle fill="#53884B" cx="337.003" cy="169.483" r="2.905"/>
		<circle fill="#53884B" cx="340.38" cy="175.088" r="2.442"/>
		<circle fill="#53884B" cx="338.409" cy="179.672" r="1.971"/>
		<circle fill="#53884B" cx="336.222" cy="183.741" r="2.44"/>
		<circle fill="#53884B" cx="333.825" cy="189.099" r="2.056"/>
		<circle fill="#53884B" cx="350.256" cy="158.914" r="2.764"/>
		<circle fill="#53884B" cx="357.54" cy="160.156" r="2.164"/>
		<circle fill="#53884B" cx="364.545" cy="160.649" r="2.656"/>
		<circle fill="#53884B" cx="371.7" cy="160.649" r="2.656"/>
		<circle fill="#53884B" cx="382.196" cy="162.021" r="3.642"/>
		<circle fill="#53884B" cx="445.118" cy="62.413" r="3.146"/>
		<circle fill="#53884B" cx="449.956" cy="63.97" r="3.192"/>
		<circle fill="#53884B" cx="457.325" cy="67.526" r="2.507"/>
		<circle fill="#53884B" cx="465.744" cy="71.018" r="2.057"/>
		<circle fill="#53884B" cx="386.582" cy="175.624" r="4.049"/>
		<circle fill="#53884B" cx="379.455" cy="176.759" r="2.914"/>
		<circle fill="#53884B" cx="369.596" cy="178.958" r="3.87"/>
		<circle fill="#53884B" cx="361.631" cy="181.387" r="4.627"/>
		<circle fill="#53884B" cx="352.127" cy="186.521" r="3.692"/>
		<circle fill="#53884B" cx="344.493" cy="190.212" r="3.171"/>
		<circle fill="#53884B" cx="338.333" cy="194.199" r="3.382"/>
		<circle fill="#53884B" cx="332.572" cy="207.254" r="4.959"/>
		<circle fill="#53884B" cx="332.025" cy="219.561" r="4.413"/>
		<circle fill="#53884B" cx="338.923" cy="224.103" r="5.57"/>
		<circle fill="#53884B" cx="349.12" cy="234.3" r="4.627"/>
		<circle fill="#53884B" cx="359.285" cy="239.388" r="3.909"/>
		<circle fill="#53884B" cx="369.005" cy="243.721" r="4.461"/>
		<circle fill="#53884B" cx="375.789" cy="247.991" r="6.745"/>
		<circle fill="#53884B" cx="388.366" cy="258.336" r="6.94"/>
		<circle fill="#53884B" cx="400.127" cy="258.785" r="4.949"/>
		<circle fill="#53884B" cx="408.933" cy="253.389" r="5.397"/>
		<circle fill="#53884B" cx="416.959" cy="245.354" r="4.756"/>
		<circle fill="#53884B" cx="424.52" cy="241.059" r="5.581"/>
		<circle fill="#53884B" cx="436.842" cy="236.432" r="4.814"/>
		<circle fill="#53884B" cx="443.315" cy="227.552" r="5.72"/>
		<circle fill="#53884B" cx="449.935" cy="217.59" r="5.013"/>
		<circle fill="#53884B" cx="392.72" cy="179.057" r="2.586"/>
		<circle fill="#53884B" cx="396.199" cy="185.833" r="2.45"/>
		<circle fill="#53884B" cx="400.577" cy="191.455" r="1.928"/>
		<circle fill="#53884B" cx="406.121" cy="196.813" r="2.584"/>
		<circle fill="#53884B" cx="413.461" cy="201.873" r="2.535"/>
		<circle fill="#53884B" cx="421.203" cy="207.168" r="2.76"/>
		<circle fill="#53884B" cx="430.397" cy="209.966" r="2.711"/>
		<circle fill="#53884B" cx="439.399" cy="212.743" r="2.405"/>
		<circle fill="#53884B" cx="449.042" cy="213.027" r="2.121"/>
		<circle fill="#53884B" cx="437.167" cy="199.768" r="2.955"/>
		<circle fill="#53884B" cx="442.901" cy="201.873" r="2.535"/>
		<circle fill="#53884B" cx="449.992" cy="201.967" r="3.541"/>
		<circle fill="#53884B" cx="456.175" cy="201.545" r="3.963"/>
		<circle fill="#53884B" cx="467.11" cy="200.107" r="3.294"/>
		<circle fill="#53884B" cx="476.841" cy="196.255" r="3.513"/>
		<circle fill="#53884B" cx="482.968" cy="192.312" r="3.214"/>
		<circle fill="#53884B" cx="490.701" cy="186.979" r="1.992"/>
		<circle fill="#53884B" cx="496.191" cy="182.887" r="2.1"/>
		<circle fill="#53884B" cx="499.029" cy="177.96" r="2.266"/>
		<circle fill="#53884B" cx="503.319" cy="174.017" r="2.442"/>
		<circle fill="#53884B" cx="506.843" cy="166.787" r="1.703"/>
		<circle fill="#53884B" cx="509.168" cy="158.871" r="1.778"/>
		<circle fill="#53884B" cx="512.581" cy="148.859" r="2.792"/>
		<circle fill="#53884B" cx="511.267" cy="142.496" r="2.721"/>
		<circle fill="#53884B" cx="512.103" cy="136.313" r="2.313"/>
		<circle fill="#53884B" cx="510.86" cy="129.072" r="3.127"/>
		<circle fill="#53884B" cx="495.762" cy="98.311" r="1.671"/>
		<circle fill="#53884B" cx="499.755" cy="101.602" r="2.321"/>
		<circle fill="#53884B" cx="502.677" cy="107.179" r="2.399"/>
		<circle fill="#53884B" cx="506.137" cy="112.853" r="3.031"/>
		<circle fill="#53884B" cx="508.375" cy="118.533" r="3.299"/>
		<circle fill="#53884B" cx="509.985" cy="121.936" r="2.596"/>
		<circle fill="#53884B" cx="459.757" cy="71.586" r="2.625"/>
		<circle fill="#53884B" cx="452.609" cy="70.764" r="3.237"/>
		<circle fill="#53884B" cx="444.431" cy="70.3" r="2.774"/>
		<circle fill="#53884B" cx="433.161" cy="72.475" r="4.949"/>
		<circle fill="#53884B" cx="422.235" cy="72.807" r="3.406"/>
		<circle fill="#53884B" cx="415.68" cy="76.652" r="4.177"/>
		<circle fill="#53884B" cx="407.004" cy="83.015" r="4.499"/>
		<circle fill="#53884B" cx="401.688" cy="89.845" r="3.038"/>
		<circle fill="#53884B" cx="396.625" cy="92.494" r="3.824"/>
		<circle fill="#53884B" cx="391.569" cy="100.549" r="4.231"/>
		<circle fill="#53884B" cx="387.433" cy="108.388" r="4.465"/>
		<circle fill="#53884B" cx="383.761" cy="119.84" r="3.021"/>
		<circle fill="#53884B" cx="382.544" cy="130.255" r="3.089"/>
		<circle fill="#53884B" cx="383.289" cy="141.686" r="2.549"/>
	</g>
	<circle fill="#44743F" cx="518.361" cy="121.571" r="3.345"/>
	<circle fill="#44743F" cx="495.093" cy="190.769" r="2.957"/>
	<circle fill="#44743F" cx="498.416" cy="193.23" r="2.461"/>
	<circle fill="#44743F" cx="344.429" cy="166.798" r="2.078"/>
	<circle fill="#44743F" cx="348.049" cy="164.506" r="1.542"/>
	<circle fill="#44743F" cx="351.241" cy="163.37" r="1.35"/>
	<circle fill="#44743F" cx="283.09" cy="89.977" r="1.992"/>
</g>
</svg>
