<svg xmlns="http://www.w3.org/2000/svg" viewBox="0 0 768 430"><style>.a{fill:#1F64AA;}.b{fill:#231F20;opacity:0.6;}.c{fill:#1E5FA2;}</style><polygon points="319.7 46.1 310 397.1 374.6 399 395.7 115.8 418 398.5 480 397.6 465.1 45.9 " fill="#206AB4"/><polygon points="385.1 48.6 389 90.9 397.4 90.9 402.1 46.7 " style="fill:#231F20;opacity:0.4"/><polygon points="383.9 47.8 387.8 90.1 396.3 90.1 401 45.9 " class="a"/><path d="M442.5 43.4c0 0 1.5 30.2 23.4 36v-6.7c0 0-16.4-5.5-18-29.4H442.5z" class="a"/><path d="M342.3 43.4c0 0-1.5 30.2-23.4 36v-6.7c0 0 16.3-5.5 18-29.4H342.3z" class="a"/><polygon points="320.3 40.5 319.4 55.9 465.9 55.9 465.1 40.2 " class="b"/><polygon points="320.5 39.2 319.7 54.7 466.1 54.7 465.3 39 " fill="#1C5A9A"/><path d="M365 55.2c0 2-1.4 1.3-3.1 1.3l0 0c-1.7 0-3.1 0.7-3.1-1.3V41.5c0-2 1.4-2 3.1-2l0 0c1.7 0 3.1 0 3.1 2V55.2z" class="b"/><path d="M364.3 55.2c0 2-1.4 1.3-3.1 1.3l0 0c-1.7 0-3.1 0.7-3.1-1.3V41.5c0-2 1.4-2 3.1-2l0 0c1.7 0 3.1 0 3.1 2V55.2z" class="c"/><path d="M421.3 55.2c0 2 1.4 1.3 3.1 1.3l0 0c1.7 0 3.1 0.7 3.1-1.3V41.5c0-2-1.4-2-3.1-2l0 0c-1.7 0-3.1 0-3.1 2V55.2z" class="b"/><path d="M422 55.2c0 2 1.4 1.3 3.1 1.3l0 0c1.7 0 3.1 0.7 3.1-1.3V41.5c0-2-1.4-2-3.1-2l0 0c-1.7 0-3.1 0-3.1 2V55.2z" class="c"/></svg>