
<svg version="1.1" id="Layer_1" xmlns="http://www.w3.org/2000/svg" xmlns:xlink="http://www.w3.org/1999/xlink" viewBox="0 0 768 430" enable-background="new 0 0 768 430" xml:space="preserve">
<g id="layer1">
	<path id="path4878" fill="#003F7F" stroke="#7F7F7F" stroke-width="2.9183" d="M350.131,13.121l133.152,2.275
		c4.9,132.805,18.716,259.434,43.356,392.236l-89.322,16.662c-8.594-118.088-11.749-383.529-17.95-302.033
		c-6.199,81.491-16.244,203.538-16.619,299.685L312,406.099C330.083,275.733,342.039,156.301,350.131,13.121L350.131,13.121z"/>
	<g>
		<path id="path4910" fill="none" stroke="#615F5F" stroke-width="1.6336" d="M364.796,31.41v18.12"/>
		<g>
			<path id="path4906" fill="none" stroke="#000000" stroke-width="1.5441" d="M453.937,31.736
				c7.128,11.473,18.26,17.972,31.166,22.271"/>
			<path id="path4908" fill="none" stroke="#000000" stroke-width="1.5441" d="M386.836,31.022
				c-7.541,10.525-19.123,20.338-36.279,21.913"/>
			<path id="path4893" fill="none" stroke="#000000" stroke-width="1.5441" d="M352.266,30.691l131.777,0.817"/>
		</g>
	</g>
	<path id="path4880" fill="#003F7F" stroke="#7B7B7E" stroke-width="1.5441" d="M406.767,18.905V79.15h15.94l-0.887-59.953
		L406.767,18.905L406.767,18.905z"/>
	<path id="path4882" fill="none" stroke="#000000" stroke-width="0.8168" stroke-opacity="0.519" d="M418.748,24.31
		c0.001,1.053-0.617,2.026-1.621,2.555c-1.006,0.527-2.244,0.527-3.25,0c-1.005-0.529-1.623-1.502-1.621-2.555
		c-0.002-1.056,0.616-2.03,1.621-2.556c1.006-0.526,2.244-0.526,3.25,0C418.131,22.28,418.749,23.255,418.748,24.31z"/>
	<g>
		<path id="path4898" fill="#FFFFFF" stroke="#7B7B7E" stroke-width="0.6639" d="M439.084,19.458v11.69h4.252l-0.234-11.515
			L439.084,19.458L439.084,19.458z"/>
		<path id="path4900" fill="#FFFFFF" stroke="#7B7B7E" stroke-width="0.6639" d="M459.96,19.458v11.821h4.254l-0.237-11.646
			L459.96,19.458L459.96,19.458z"/>
		<path id="path4902" fill="#FFFFFF" stroke="#7B7B7E" stroke-width="0.6639" d="M383.084,18.667V30.62h4.254l-0.237-11.778
			L383.084,18.667z"/>
		<path id="path4904" fill="#FFFFFF" stroke="#7B7B7E" stroke-width="0.6639" d="M363.019,18.271l-0.142,12.349h4.253l-0.095-12.175
			L363.019,18.271L363.019,18.271L363.019,18.271z"/>
	</g>
</g>
</svg>
