<svg xmlns="http://www.w3.org/2000/svg" viewBox="0 0 768 430"><style>.a{fill:#FFD39F;}.b{fill:none;stroke-linejoin:round;stroke-width:3;stroke:#000;}.c{fill:#3286CC;}.d{fill:#A57F4E;}.e{opacity:0.4;}</style><polygon points="404.7 219.7 382.2 219.7 385.8 175.9 401.2 175.9 " class="a"/><path d="M351.9 132.1c0 6.7-4.5 12.8-10 12.8 -5.5 0-11.9-4.6-11.9-12.8 0-9.9 7.3-13.4 14.6-11.1C349.8 122.6 351.9 125.4 351.9 132.1z" class="a"/><path d="M433.9 131.6c0 6.7 4.5 12.8 10 12.8 5.5 0 11.9-4.6 11.9-12.8 0-9.9-7.3-13.4-14.6-11.1C436 122.1 433.9 124.8 433.9 131.6z" class="a"/><path d="M444.8 127.8c-0.1 26.8-17.9 54.2-51.4 54.2 -34.5 0-51.5-27.5-51.4-54.3s22.9-48 50.2-48C419.5 79.7 444.9 101 444.8 127.8z" class="a"/><path d="M398.9 62.5l-7.6-8.5c0 0-6.9 3.9-11.9 9.9 -7-3-21.2-0.3-21.2-0.3s6 2.5 6.4 4.6c-9 4-13.1 11.1-17.3 17.4 -3.5 5.2-9.5 18.8-9.5 18.8l5.6-1 -0.8 19.4 11.5-26.4 9.2 3.3 11.5-9.5 8.6 5.8c0 0 12.7-12.9 9.7-10.1l8.2 9.2 7-6.7 7.4 9.7 10.4-2.7 10.2 14.9 3.1-3.9 3.7 13.4 3-13.1 5.6 1.3 -9.7-20.1 6.3-1.9c0 0-12.9-15.7-30.8-19.4 2.1-2.6 8-5.9 8-5.9S408.7 59.6 398.9 62.5z" fill="#7F5114"/><path d="M379 123.6c0 0.6-0.1 1.2-0.3 1.8 -0.2 0.6-0.5 1.1-0.9 1.6 -0.4 0.5-0.8 1-1.3 1.2 -0.5 0.3-1.1 0.3-1.7 0.3s-1.1-0.1-1.7-0.4c-0.5-0.3-1-0.6-1.4-1.1 -0.3-0.5-0.6-1-0.8-1.6 -0.2-0.5-0.2-1.1-0.2-1.7s0.1-1.2 0.3-1.7c0.2-0.6 0.4-1.1 0.8-1.6 0.4-0.5 0.8-1 1.3-1.3 0.5-0.3 1.1-0.4 1.7-0.4s1.1 0.3 1.7 0.6c0.5 0.3 1.1 0.6 1.4 1.1 0.3 0.5 0.6 1 0.8 1.6C378.8 122.4 379 123 379 123.6z"/><path d="M415.5 123.6c0 0.6 0 1.2-0.2 1.8 -0.2 0.6-0.5 1.1-0.9 1.5 -0.4 0.5-0.8 0.9-1.3 1.1 -0.5 0.3-1.1 0.5-1.7 0.5s-1.2-0.1-1.7-0.4c-0.5-0.3-0.9-0.7-1.3-1.2 -0.3-0.5-0.6-1-0.8-1.6 -0.2-0.5-0.4-1.1-0.4-1.7s0-1.2 0.2-1.8c0.2-0.6 0.5-1.1 0.9-1.6 0.4-0.5 0.9-0.8 1.4-1.1 0.5-0.3 1-0.6 1.6-0.6s1.2 0.2 1.7 0.5c0.5 0.3 0.9 0.7 1.3 1.2 0.3 0.5 0.7 1 0.9 1.5C415.5 122.4 415.5 123 415.5 123.6z"/><polyline points=" 389.3 134.3 393.1 128.9 397.3 133.4 " class="b"/><line x1="377" y1="152.5" x2="373.7" y2="155.7" class="b"/><line x1="408.6" y1="151.7" x2="411.5" y2="154.5" class="b"/><path d="M376.1 154.5c0 0 8.5 6.6 16.4 6.6 9.6 0 16.8-7.8 16.8-7.8" class="b"/><polygon points="385.8 400.3 378.5 400.3 373.5 307.4 390.8 307.4 " class="a"/><path d="M385.8 400.3c-0.2 3.6-0.7 6.5-8.6 8 -7.8 1.5-19 3.3-19.9 0.9 -0.8-2.4 13.6-9.2 21-11.7 1.5 0 7.6 0 7.6 0S385.9 398.4 385.8 400.3z" fill="#1C5B8E"/><polygon points="401.8 400.3 409.1 400.3 414.1 307.4 396.8 307.4 " class="a"/><path d="M401.8 400.3c0.2 3.6 0.7 6.5 8.7 8 7.8 1.5 19.1 3.3 19.9 0.9 0.8-2.4-13.6-9.2-21-11.7 -1.5 0-7.6 0-7.6 0S401.7 398.4 401.8 400.3z" class="a"/><polygon points="385.8 400.3 386.7 385.1 377.7 385.1 378.5 400.3 " class="c"/><polygon points="409.1 400.3 409.9 385.1 401 385.1 401.8 400.3 " class="c"/><path d="M385.8 400.3c-0.2 3.6-0.7 6.5-8.6 8 -7.8 1.5-19 3.3-19.9 0.9 -0.8-2.4 13.6-9.2 21-11.7 1.5 0 7.6 0 7.6 0S385.9 398.4 385.8 400.3z"/><path d="M401.8 400.3c0.2 3.6 0.7 6.5 8.7 8 7.8 1.5 19.1 3.3 19.9 0.9 0.8-2.4-13.6-9.2-21-11.7 -1.5 0-7.6 0-7.6 0S401.7 398.4 401.8 400.3z"/><rect x="372.8" y="286.1" width="18.9" height="37.4" class="d"/><rect x="396" y="286.1" width="18.9" height="37.4" class="d"/><rect x="372.8" y="277.7" width="42.1" height="18.9" class="d"/><polygon points="416.9 286.8 370.7 286.8 376.6 196.9 411 196.9 " class="c"/><rect x="346.4" y="264.5" transform="matrix(0.9681 0.2506 -0.2506 0.9681 80.1223 -79.2881)" width="10" height="21" class="a"/><path d="M349.3 305.9c-0.9-1.9-0.8-9.3-0.8-9.3s-5.7 10.8-7.6 11.8c-0.5 0.2-1.1 0.3-1.8 0 1.1-2.1 2.9-6.3 2.9-6.3s-3.7 4.5-4.7 4.8c-1 0.3-2-0.5-2-0.5l1-1.5c0 0-0.4 0.6-1.2 0.6 -0.5 0-0.9-0.1-1-0.4 -0.1-0.3 3.7-5.4 3.7-5.4s-1.5 0.7-1.8 0.1l8.1-17.2 9.8 2.5 -2.8 22.3C351.1 307.4 350.2 307.8 349.3 305.9z" class="a"/><g class="e"><polygon points="342.1 302 344.8 296.9 344.1 297 338.3 306.2 "/><polygon points="336.4 304.9 342.1 296.8 341.4 296.7 "/><polygon points="337.8 299.6 340.7 294.4 340.1 294 "/></g><path d="M358.1 277.7l-14.2-4c0 0 19.1-59.2 23.8-68 4.8-8.8 8.8-8.8 8.8-8.8l-1.1 16.4L358.1 277.7z" class="c"/><rect x="431" y="264.5" transform="matrix(-0.9681 0.2506 -0.2506 -0.9681 927.0518 431.8858)" width="10" height="21" class="a"/><path d="M438.1 305.9c0.9-1.9 0.8-9.3 0.8-9.3s5.7 10.8 7.6 11.8c0.5 0.2 1.1 0.3 1.8 0 -1.1-2.1-2.9-6.3-2.9-6.3s3.7 4.5 4.7 4.8c1 0.3 2-0.5 2-0.5l-1-1.5c0 0 0.4 0.6 1.2 0.6 0.5 0 0.9-0.1 1-0.4 0.1-0.3-3.7-5.4-3.7-5.4s1.5 0.7 1.8 0.1l-8.1-17.2 -9.8 2.5 2.8 22.3C436.3 307.4 437.3 307.8 438.1 305.9z" class="a"/><g class="e"><polygon points="445.4 302 442.6 296.9 443.4 297 449.1 306.2 "/><polygon points="451.1 304.9 445.3 296.8 446 296.7 "/><polygon points="449.6 299.6 446.7 294.4 447.3 294 "/></g><path d="M429.3 277.7l14.2-4c0 0-19.1-59.2-23.8-68 -4.8-8.8-8.8-8.8-8.8-8.8l1.1 16.4L429.3 277.7z" class="c"/></svg>