<svg version="1.1" id="Layer_1" xmlns="http://www.w3.org/2000/svg" xmlns:xlink="http://www.w3.org/1999/xlink" viewBox="0 0 768 430" enable-background="new 0 0 768 430" xml:space="preserve">
<g id="layer1">
	<path id="path4878" fill="#10CCE5" stroke="#7F7F7F" stroke-width="2.6155" d="M346.175,20.784l119.336,2.039
		c4.394,119.025,16.774,232.516,38.857,351.538l-80.053,14.934c-7.704-105.835-10.53-343.734-16.089-270.694
		c-5.558,73.035-14.561,182.417-14.896,268.591L312,372.986C328.207,256.146,338.922,149.107,346.175,20.784L346.175,20.784z"/>
	<g>
		<path id="path4910" fill="none" stroke="#615F5F" stroke-width="1.4641" d="M359.318,37.175v16.239"/>
		<g>
			<path id="path4906" fill="none" stroke="#000000" stroke-width="1.3839" d="M439.21,37.467
				c6.389,10.283,16.365,16.107,27.933,19.96"/>
			<path id="path4908" fill="none" stroke="#000000" stroke-width="1.3839" d="M379.071,36.827
				c-6.759,9.433-17.139,18.228-32.515,19.639"/>
			<path id="path4893" fill="none" stroke="#000000" stroke-width="1.3839" d="M348.088,36.53l118.104,0.732"/>
		</g>
	</g>
	<path id="path4880" fill="#1FC0CC" stroke="#7F7F7F" stroke-width="2.6155" d="M396.936,25.967v53.994h14.285l-0.795-53.732
		L396.936,25.967L396.936,25.967z"/>
	<path id="path4882" fill="none" stroke="#000000" stroke-width="0.7321" stroke-opacity="0.519" d="M407.672,30.812
		c0.001,0.944-0.553,1.816-1.451,2.29c-0.902,0.472-2.013,0.472-2.914,0c-0.899-0.474-1.455-1.346-1.453-2.29
		c-0.002-0.946,0.554-1.819,1.453-2.291c0.901-0.472,2.012-0.471,2.914,0C407.119,28.992,407.673,29.866,407.672,30.812z"/>
	<g>
		<path id="path4898" fill="#FFFFFF" stroke="#7B7B7E" stroke-width="0.595" d="M425.898,26.463V36.94h3.811l-0.211-10.32
			L425.898,26.463L425.898,26.463z"/>
		<path id="path4900" fill="#FFFFFF" stroke="#7B7B7E" stroke-width="0.595" d="M444.607,26.463v10.595h3.812l-0.212-10.438
			L444.607,26.463L444.607,26.463z"/>
		<path id="path4902" fill="#FFFFFF" stroke="#7B7B7E" stroke-width="0.595" d="M375.708,25.754v10.713h3.812l-0.211-10.556
			L375.708,25.754z"/>
		<path id="path4904" fill="#FFFFFF" stroke="#7B7B7E" stroke-width="0.595" d="M357.726,25.399l-0.127,11.068h3.812l-0.084-10.912
			L357.726,25.399L357.726,25.399L357.726,25.399z"/>
	</g>
</g>
</svg>
