<svg version="1.1" id="Layer_1" xmlns="http://www.w3.org/2000/svg" xmlns:xlink="http://www.w3.org/1999/xlink" viewBox="0 0 308 100" enable-background="new 0 0 308 100" xml:space="preserve">
<g>
	<g>
		<g>
			
				<linearGradient id="SVGID_1_" gradientUnits="userSpaceOnUse" x1="87.4873" y1="-50.9868" x2="133.4861" y2="-50.9868" gradientTransform="matrix(1 0 0 -1 -37 19.5)">
				<stop  offset="0" style="stop-color:#FFD383"/>
				<stop  offset="0.5937" style="stop-color:#FFB872"/>
				<stop  offset="1" style="stop-color:#FFA364"/>
			</linearGradient>
			<path fill="url(#SVGID_1_)" d="M80.3,71.129c0.028-1.129,0.069-1.977,0.069-1.977h-7.405H72.77h-7.404
				c0,0,0.059,1.211,0.083,2.669c1.591-0.264,12.164-2.013,12.359-2.013C77.919,69.808,79.15,70.483,80.3,71.129z"/>
			
				<linearGradient id="SVGID_2_" gradientUnits="userSpaceOnUse" x1="87.4863" y1="-64.4629" x2="133.4868" y2="-64.4629" gradientTransform="matrix(1 0 0 -1 -37 19.5)">
				<stop  offset="0" style="stop-color:#FFD383"/>
				<stop  offset="0.5937" style="stop-color:#FFB872"/>
				<stop  offset="1" style="stop-color:#FFA364"/>
			</linearGradient>
			<path fill="url(#SVGID_2_)" d="M98.127,86.548c-0.815-2.718-3.987-3.261-3.987-3.261s-8.555-2.536-9.875-3.262
				c-0.255-0.141-0.535-0.313-0.819-0.499c-0.004,0.414-0.062,0.67-0.202,0.659c-5.415-0.391-16.189-7.169-17.793-8.195
				c0.026,1.793-0.006,3.896-0.267,4.593c-0.485,1.291-2.395,2.716-3.715,3.442s-9.875,3.262-9.875,3.262s-3.17,0.544-3.986,3.261
				c-0.815,2.718-3.263,8.912-2.99,9.241c0.139,0.168,14.314,0.165,28.249,0.122c13.935,0.043,28.11,0.046,28.25-0.122
				C101.39,95.459,98.942,89.266,98.127,86.548z"/>
			<path opacity="0.8" fill="#EF843C" enable-background="new    " d="M65.243,71.855c0,0,0.077,0.05,0.209,0.134
				c0-0.056-0.001-0.113-0.002-0.168C65.32,71.842,65.243,71.855,65.243,71.855z"/>
			
				<linearGradient id="SVGID_3_" gradientUnits="userSpaceOnUse" x1="87.4863" y1="-55.4971" x2="133.4868" y2="-55.4971" gradientTransform="matrix(1 0 0 -1 -37 19.5)">
				<stop  offset="0" style="stop-color:#FFD383"/>
				<stop  offset="0.5937" style="stop-color:#FFB872"/>
				<stop  offset="1" style="stop-color:#FFA364"/>
			</linearGradient>
			<path fill="url(#SVGID_3_)" d="M83.446,79.525c-1.188-0.778-2.504-1.901-2.896-2.943c-0.304-0.812-0.297-3.539-0.25-5.453
				c-1.15-0.646-2.38-1.321-2.491-1.321c-0.196,0-10.769,1.75-12.359,2.014c0.001,0.055,0.001,0.112,0.002,0.168
				c1.604,1.026,12.378,7.805,17.793,8.196C83.384,80.195,83.442,79.94,83.446,79.525z"/>
			<path opacity="0.5" fill="#EF843C" enable-background="new    " d="M83.446,79.525c-1.188-0.778-2.504-1.901-2.896-2.943
				c-0.304-0.812-0.297-3.539-0.25-5.453c-1.15-0.646-2.38-1.321-2.491-1.321c-0.196,0-10.769,1.75-12.359,2.014
				c0.001,0.055,0.001,0.112,0.002,0.168c1.604,1.026,12.378,7.805,17.793,8.196C83.384,80.195,83.442,79.94,83.446,79.525z"/>
		</g>
		<g>
			<g>
				<path fill="#FFBC64" d="M95.512,39.728c0,0,2.849-7.104,5.525-3.397c2.676,3.706-1.468,12.045-2.158,12.457
					c-0.69,0.412-2.763-1.544-2.763-1.544L95.512,39.728z"/>
				<path fill="#FFBC64" d="M50.623,40.522c0,0-2.849-7.104-5.524-3.398c-2.676,3.707,1.467,12.045,2.158,12.457
					c0.69,0.412,2.762-1.544,2.762-1.544L50.623,40.522z"/>
			</g>
			
				<linearGradient id="SVGID_4_" gradientUnits="userSpaceOnUse" x1="110.0576" y1="9.812" x2="110.0576" y2="-54.8106" gradientTransform="matrix(1 0 0 -1 -37 19.5)">
				<stop  offset="0" style="stop-color:#FFD383"/>
				<stop  offset="0.3124" style="stop-color:#FFCD7E"/>
				<stop  offset="0.7407" style="stop-color:#FFBB70"/>
				<stop  offset="1" style="stop-color:#FFAD64"/>
			</linearGradient>
			<path fill="url(#SVGID_4_)" d="M73.113,9.504V9.502c-0.019,0-0.037,0.001-0.056,0.001c-0.019,0-0.037-0.001-0.056-0.001v0.001
				c-12.697-0.035-25.839,8.063-25.326,22.051c0.066,1.791,1.46,27.164,3.342,30.224C53.068,65.109,64,73.356,73.001,73.749v0.01
				c0.019-0.001,0.037-0.004,0.056-0.005c0.019,0.001,0.038,0.004,0.056,0.005v-0.01c9.001-0.393,19.933-8.64,21.984-11.971
				c1.882-3.06,3.276-28.433,3.342-30.224C98.952,17.567,85.811,9.47,73.113,9.504z"/>
			<path opacity="0.2" fill="#F39200" enable-background="new    " d="M80.687,10.456c6.567,3.996,11.262,10.891,10.952,20.152
				c-0.029,0.873,2.726,10.327-0.517,14.66c1.504,1.923-1.782,16.545-2.826,18.402c-1.237,2.199-5.718,6.351-11.05,9.396
				c7.935-2.095,16.089-8.458,17.832-11.288c1.882-3.06,3.276-28.433,3.342-30.224C98.829,20.378,90.52,12.967,80.687,10.456z"/>
			<path opacity="0.1" fill="#FFFFFF" enable-background="new    " d="M56.969,65.944c-2.482-1.815-4.338-3.59-5.039-4.729
				c-1.515-2.46-2.995-24.541-3.184-29.701c-0.243-6.614,2.786-12.343,8.328-16.181c-3.261,4.252-4.904,9.478-4.712,15.232
				c0.009,0.292,1.355,29.981,3.477,33.782C56.11,64.832,56.493,65.37,56.969,65.944z"/>
			
				<radialGradient id="SVGID_5_" cx="107.6987" cy="-10253.6143" r="13.5575" gradientTransform="matrix(1 0 0 -0.4476 -37 -4533.9365)" gradientUnits="userSpaceOnUse">
				<stop  offset="0" style="stop-color:#FFFFFF"/>
				<stop  offset="0.0175" style="stop-color:#FFFDFA"/>
				<stop  offset="0.1726" style="stop-color:#FFE9D0"/>
				<stop  offset="0.3312" style="stop-color:#FFD9AE"/>
				<stop  offset="0.4917" style="stop-color:#FFCD93"/>
				<stop  offset="0.6547" style="stop-color:#FFC480"/>
				<stop  offset="0.822" style="stop-color:#FFBF75"/>
				<stop  offset="1" style="stop-color:#FFBD71"/>
			</radialGradient>
			<path opacity="0.31" fill="url(#SVGID_5_)" enable-background="new    " d="M67.209,55.201c4.124,1.435,12.14,0.319,12.674-0.331
				c-0.088-2.387-2.397-5.966-2.605-7.089c0,0-6.485-0.831-7.524,0C69.296,49.901,67.209,53.348,67.209,55.201z"/>
			<path fill="#EA9D49" d="M79.893,54.82c-1.062,0.257-5.94,1.423-12.683,0.381c-0.05,0.27,2.721,2.017,6.072,2.516
				C74.9,58.098,80.179,55.121,79.893,54.82z"/>
			<path opacity="0.3" fill="#DD9544" enable-background="new    " d="M77.474,55.288c0.485-0.251-0.418-6.926-0.285-7.06
				c0.937,2.208,2.142,2.827,2.703,6.592C79.072,55.139,78.227,55.222,77.474,55.288z"/>
		</g>
	</g>
	
		<linearGradient id="SVGID_6_" gradientUnits="userSpaceOnUse" x1="97.0928" y1="15.0293" x2="109.5243" y2="-21.295" gradientTransform="matrix(1 0 0 -1 -37 19.5)">
		<stop  offset="0" style="stop-color:#915418"/>
		<stop  offset="1" style="stop-color:#683C11"/>
	</linearGradient>
	<path opacity="0.2" fill="url(#SVGID_6_)" enable-background="new    " d="M91.966,25.011c-1.391-0.294-12.086,3.899-18.316,3.899
		c-0.136,0-4.624-0.278-6.45-0.652c-9.279-1.157-13.032-1.547-14.625-1.927c-0.806,1.052-1.458,2.405-1.579,2.816
		c-0.198,0.669,0.824,5.119,0.827,6.263c0.002,1.144-1.752,12.326-2.074,12.588c-0.103,0.083-0.743-0.023-0.917-0.037
		c0.017,0.194-0.018-0.093,0,0.101c0.341,0.159,1.395,0.309,1.589,0.15c0.321-0.262,1.94-10.944,1.937-12.088
		c-0.002-1.144-1.025-5.593-0.827-6.263c0.121-0.411,0.773-1.764,1.579-2.816c1.592,0.38,5.345,0.77,14.625,1.928
		c1.826,0.373,6.312,0.652,6.449,0.652c6.23,0,16.926-4.194,18.317-3.899c0.463,0.098,0.95,0.519,1.401,1.058
		C93.323,25.929,92.622,25.149,91.966,25.011z"/>
</g>
<g>
	<g>
		<g>
			
				<linearGradient id="SVGID_7_" gradientUnits="userSpaceOnUse" x1="174.6738" y1="-50.9868" x2="220.6741" y2="-50.9868" gradientTransform="matrix(1 0 0 -1 -37 19.5)">
				<stop  offset="0" style="stop-color:#FFD383"/>
				<stop  offset="0.5937" style="stop-color:#FFB872"/>
				<stop  offset="1" style="stop-color:#FFA364"/>
			</linearGradient>
			<path fill="url(#SVGID_7_)" d="M167.487,71.129c0.027-1.129,0.069-1.977,0.069-1.977h-7.405h-0.193h-7.405
				c0,0,0.06,1.211,0.084,2.669c1.591-0.264,12.163-2.013,12.359-2.013C165.106,69.808,166.338,70.483,167.487,71.129z"/>
			
				<linearGradient id="SVGID_8_" gradientUnits="userSpaceOnUse" x1="174.6729" y1="-64.4629" x2="220.6739" y2="-64.4629" gradientTransform="matrix(1 0 0 -1 -37 19.5)">
				<stop  offset="0" style="stop-color:#FFD383"/>
				<stop  offset="0.5937" style="stop-color:#FFB872"/>
				<stop  offset="1" style="stop-color:#FFA364"/>
			</linearGradient>
			<path fill="url(#SVGID_8_)" d="M185.314,86.548c-0.815-2.718-3.986-3.261-3.986-3.261s-8.556-2.536-9.876-3.262
				c-0.255-0.141-0.534-0.313-0.819-0.499c-0.004,0.414-0.062,0.67-0.201,0.659c-5.416-0.391-16.19-7.169-17.793-8.195
				c0.026,1.793-0.006,3.896-0.267,4.593c-0.484,1.291-2.394,2.716-3.714,3.442s-9.875,3.262-9.875,3.262s-3.171,0.544-3.986,3.261
				c-0.815,2.718-3.263,8.912-2.99,9.241c0.139,0.168,14.314,0.165,28.249,0.122c13.935,0.043,28.11,0.046,28.249-0.122
				C188.577,95.459,186.13,89.266,185.314,86.548z"/>
			<path opacity="0.8" fill="#EF843C" enable-background="new    " d="M152.43,71.855c0,0,0.077,0.05,0.209,0.134
				c-0.001-0.056-0.001-0.113-0.002-0.168C152.507,71.842,152.43,71.855,152.43,71.855z"/>
			
				<linearGradient id="SVGID_9_" gradientUnits="userSpaceOnUse" x1="174.6748" y1="-55.4971" x2="220.6735" y2="-55.4971" gradientTransform="matrix(1 0 0 -1 -37 19.5)">
				<stop  offset="0" style="stop-color:#FFD383"/>
				<stop  offset="0.5937" style="stop-color:#FFB872"/>
				<stop  offset="1" style="stop-color:#FFA364"/>
			</linearGradient>
			<path fill="url(#SVGID_9_)" d="M170.633,79.525c-1.188-0.778-2.504-1.901-2.895-2.943c-0.305-0.812-0.298-3.539-0.251-5.453
				c-1.149-0.646-2.381-1.321-2.491-1.321c-0.196,0-10.769,1.75-12.359,2.014c0.001,0.055,0.001,0.112,0.002,0.168
				c1.604,1.026,12.378,7.805,17.793,8.196C170.571,80.195,170.629,79.94,170.633,79.525z"/>
			<path opacity="0.5" fill="#EF843C" enable-background="new    " d="M170.633,79.525c-1.188-0.778-2.504-1.901-2.895-2.943
				c-0.305-0.812-0.298-3.539-0.251-5.453c-1.149-0.646-2.381-1.321-2.491-1.321c-0.196,0-10.769,1.75-12.359,2.014
				c0.001,0.055,0.001,0.112,0.002,0.168c1.604,1.026,12.378,7.805,17.793,8.196C170.571,80.195,170.629,79.94,170.633,79.525z"/>
		</g>
		<g>
			<g>
				<path fill="#FFBC64" d="M182.7,39.728c0,0,2.849-7.104,5.524-3.397s-1.468,12.045-2.158,12.457
					c-0.69,0.412-2.762-1.544-2.762-1.544L182.7,39.728z"/>
				<path fill="#FFBC64" d="M137.81,40.522c0,0-2.849-7.104-5.525-3.398c-2.676,3.707,1.467,12.045,2.158,12.457
					s2.763-1.544,2.763-1.544L137.81,40.522z"/>
			</g>
			
				<linearGradient id="SVGID_10_" gradientUnits="userSpaceOnUse" x1="197.2441" y1="9.812" x2="197.2441" y2="-54.8106" gradientTransform="matrix(1 0 0 -1 -37 19.5)">
				<stop  offset="0" style="stop-color:#FFD383"/>
				<stop  offset="0.3124" style="stop-color:#FFCD7E"/>
				<stop  offset="0.7407" style="stop-color:#FFBB70"/>
				<stop  offset="1" style="stop-color:#FFAD64"/>
			</linearGradient>
			<path fill="url(#SVGID_10_)" d="M160.301,9.504V9.502c-0.02,0-0.037,0.001-0.057,0.001c-0.018,0-0.036-0.001-0.055-0.001v0.001
				c-12.698-0.035-25.839,8.063-25.326,22.051c0.066,1.791,1.46,27.164,3.342,30.224c2.05,3.331,12.982,11.578,21.983,11.971v0.01
				c0.019-0.001,0.037-0.004,0.055-0.005c0.02,0.001,0.038,0.004,0.057,0.005v-0.01c9-0.393,19.934-8.64,21.983-11.971
				c1.883-3.06,3.276-28.433,3.342-30.224C186.14,17.567,172.998,9.47,160.301,9.504z"/>
			<path opacity="0.2" fill="#F39200" enable-background="new    " d="M167.874,10.456c6.567,3.996,11.262,10.891,10.951,20.152
				c-0.029,0.873,2.726,10.327-0.517,14.66c1.505,1.923-1.782,16.545-2.825,18.402c-1.238,2.199-5.719,6.351-11.051,9.396
				c7.935-2.095,16.09-8.458,17.831-11.288c1.883-3.06,3.276-28.433,3.343-30.224C186.017,20.378,177.707,12.967,167.874,10.456z"/>
			<path opacity="0.1" fill="#FFFFFF" enable-background="new    " d="M144.156,65.944c-2.482-1.815-4.338-3.59-5.039-4.729
				c-1.514-2.46-2.995-24.541-3.184-29.701c-0.243-6.614,2.786-12.343,8.328-16.181c-3.261,4.252-4.905,9.478-4.713,15.232
				c0.01,0.292,1.355,29.981,3.477,33.782C143.296,64.832,143.68,65.37,144.156,65.944z"/>
			
				<radialGradient id="SVGID_11_" cx="194.8867" cy="-10253.6143" r="13.557" gradientTransform="matrix(1 0 0 -0.4476 -37 -4533.9365)" gradientUnits="userSpaceOnUse">
				<stop  offset="0" style="stop-color:#FFFFFF"/>
				<stop  offset="0.0175" style="stop-color:#FFFDFA"/>
				<stop  offset="0.1726" style="stop-color:#FFE9D0"/>
				<stop  offset="0.3312" style="stop-color:#FFD9AE"/>
				<stop  offset="0.4917" style="stop-color:#FFCD93"/>
				<stop  offset="0.6547" style="stop-color:#FFC480"/>
				<stop  offset="0.822" style="stop-color:#FFBF75"/>
				<stop  offset="1" style="stop-color:#FFBD71"/>
			</radialGradient>
			<path opacity="0.31" fill="url(#SVGID_11_)" enable-background="new    " d="M154.396,55.201
				c4.123,1.435,12.14,0.319,12.674-0.331c-0.088-2.387-2.397-5.966-2.605-7.089c0,0-6.485-0.831-7.524,0
				C156.483,49.901,154.396,53.348,154.396,55.201z"/>
			<path fill="#EA9D49" d="M167.079,54.82c-1.062,0.257-5.939,1.423-12.683,0.381c-0.05,0.27,2.721,2.017,6.071,2.516
				C162.088,58.098,167.366,55.121,167.079,54.82z"/>
			<path opacity="0.3" fill="#DD9544" enable-background="new    " d="M164.662,55.288c0.484-0.251-0.419-6.926-0.285-7.06
				c0.937,2.208,2.142,2.827,2.702,6.592C166.26,55.139,165.414,55.222,164.662,55.288z"/>
		</g>
	</g>
	
		<linearGradient id="SVGID_12_" gradientUnits="userSpaceOnUse" x1="184.2773" y1="15.0293" x2="196.7091" y2="-21.2956" gradientTransform="matrix(1 0 0 -1 -37 19.5)">
		<stop  offset="0" style="stop-color:#915418"/>
		<stop  offset="1" style="stop-color:#683C11"/>
	</linearGradient>
	<path opacity="0.2" fill="url(#SVGID_12_)" enable-background="new    " d="M179.153,25.011c-1.39-0.294-12.086,3.899-18.316,3.899
		c-0.136,0-4.624-0.278-6.45-0.652c-9.279-1.157-13.032-1.547-14.624-1.927c-0.806,1.052-1.458,2.405-1.579,2.816
		c-0.198,0.669,0.824,5.119,0.827,6.263c0.002,1.144-1.752,12.326-2.073,12.588c-0.103,0.083-0.744-0.023-0.918-0.037
		c0.018,0.194-0.018-0.093,0,0.101c0.341,0.159,1.395,0.309,1.59,0.15c0.321-0.262,1.939-10.944,1.937-12.088
		c-0.003-1.144-1.025-5.593-0.827-6.263c0.121-0.411,0.773-1.764,1.579-2.816c1.592,0.38,5.345,0.77,14.624,1.928
		c1.825,0.373,6.312,0.652,6.449,0.652c6.23,0,16.927-4.194,18.316-3.899c0.464,0.098,0.949,0.519,1.401,1.058
		C180.51,25.929,179.809,25.149,179.153,25.011z"/>
</g>
<g>
	<g>
		<g>
			
				<linearGradient id="SVGID_13_" gradientUnits="userSpaceOnUse" x1="260.9688" y1="-50.9482" x2="306.9695" y2="-50.9482" gradientTransform="matrix(1 0 0 -1 -37 19.5)">
				<stop  offset="0" style="stop-color:#FFD383"/>
				<stop  offset="0.5937" style="stop-color:#FFB872"/>
				<stop  offset="1" style="stop-color:#FFA364"/>
			</linearGradient>
			<path fill="url(#SVGID_13_)" d="M253.781,71.09c0.028-1.129,0.07-1.976,0.07-1.976h-7.405h-0.194h-7.404
				c0,0,0.06,1.211,0.083,2.668c1.591-0.264,12.164-2.013,12.359-2.013C251.401,69.769,252.632,70.444,253.781,71.09z"/>
			
				<linearGradient id="SVGID_14_" gradientUnits="userSpaceOnUse" x1="260.9668" y1="-64.4233" x2="306.9679" y2="-64.4233" gradientTransform="matrix(1 0 0 -1 -37 19.5)">
				<stop  offset="0" style="stop-color:#FFD383"/>
				<stop  offset="0.5937" style="stop-color:#FFB872"/>
				<stop  offset="1" style="stop-color:#FFA364"/>
			</linearGradient>
			<path fill="url(#SVGID_14_)" d="M271.608,86.509c-0.815-2.718-3.986-3.261-3.986-3.261s-8.555-2.536-9.875-3.262
				c-0.256-0.141-0.535-0.313-0.82-0.499c-0.004,0.414-0.062,0.67-0.201,0.66c-5.415-0.392-16.189-7.17-17.793-8.197
				c0.025,1.793-0.006,3.896-0.267,4.593c-0.484,1.292-2.395,2.718-3.715,3.443c-1.32,0.727-9.875,3.262-9.875,3.262
				s-3.171,0.544-3.986,3.262s-3.263,8.911-2.99,9.24c0.139,0.167,14.315,0.165,28.249,0.122c13.935,0.043,28.11,0.045,28.249-0.122
				C274.871,95.421,272.424,89.228,271.608,86.509z"/>
			<path opacity="0.8" fill="#EF843C" enable-background="new    " d="M238.724,71.816c0,0,0.078,0.05,0.209,0.134
				c-0.001-0.056-0.001-0.113-0.002-0.169C238.802,71.803,238.724,71.816,238.724,71.816z"/>
			
				<linearGradient id="SVGID_15_" gradientUnits="userSpaceOnUse" x1="260.9678" y1="-55.458" x2="306.9691" y2="-55.458" gradientTransform="matrix(1 0 0 -1 -37 19.5)">
				<stop  offset="0" style="stop-color:#FFD383"/>
				<stop  offset="0.5937" style="stop-color:#FFB872"/>
				<stop  offset="1" style="stop-color:#FFA364"/>
			</linearGradient>
			<path fill="url(#SVGID_15_)" d="M256.928,79.486c-1.188-0.778-2.504-1.901-2.896-2.943c-0.305-0.812-0.298-3.539-0.251-5.453
				c-1.149-0.646-2.38-1.321-2.491-1.321c-0.195,0-10.769,1.75-12.359,2.013c0.001,0.056,0.001,0.113,0.002,0.169
				c1.604,1.026,12.378,7.805,17.794,8.196C256.866,80.156,256.923,79.901,256.928,79.486z"/>
			<path opacity="0.5" fill="#EF843C" enable-background="new    " d="M256.928,79.486c-1.188-0.778-2.504-1.901-2.896-2.943
				c-0.305-0.812-0.298-3.539-0.251-5.453c-1.149-0.646-2.38-1.321-2.491-1.321c-0.195,0-10.769,1.75-12.359,2.013
				c0.001,0.056,0.001,0.113,0.002,0.169c1.604,1.026,12.378,7.805,17.794,8.196C256.866,80.156,256.923,79.901,256.928,79.486z"/>
		</g>
		<g>
			<g>
				<path fill="#FFBC64" d="M268.994,39.689c0,0,2.849-7.103,5.524-3.397c2.676,3.707-1.467,12.044-2.158,12.457
					c-0.69,0.412-2.762-1.545-2.762-1.545L268.994,39.689z"/>
				<path fill="#FFBC64" d="M224.104,40.483c0,0-2.849-7.103-5.524-3.397c-2.676,3.707,1.467,12.044,2.157,12.457
					s2.763-1.544,2.763-1.544L224.104,40.483z"/>
			</g>
			
				<linearGradient id="SVGID_16_" gradientUnits="userSpaceOnUse" x1="283.5391" y1="9.8506" x2="283.5391" y2="-54.7714" gradientTransform="matrix(1 0 0 -1 -37 19.5)">
				<stop  offset="0" style="stop-color:#FFD383"/>
				<stop  offset="0.3124" style="stop-color:#FFCD7E"/>
				<stop  offset="0.7407" style="stop-color:#FFBB70"/>
				<stop  offset="1" style="stop-color:#FFAD64"/>
			</linearGradient>
			<path fill="url(#SVGID_16_)" d="M246.595,9.465V9.464c-0.019,0-0.037,0-0.056,0s-0.037-0.001-0.056,0v0.001
				c-12.697-0.035-25.839,8.063-25.325,22.05c0.065,1.791,1.46,27.164,3.343,30.224c2.049,3.331,12.982,11.578,21.982,11.971v0.01
				c0.019,0,0.037-0.004,0.057-0.005c0.018,0.001,0.036,0.005,0.055,0.005v-0.01c9.001-0.393,19.934-8.64,21.983-11.971
				c1.883-3.06,3.276-28.433,3.343-30.224C272.434,17.528,259.292,9.431,246.595,9.465z"/>
			<path opacity="0.2" fill="#F39200" enable-background="new    " d="M254.168,10.417c6.568,3.997,11.263,10.892,10.951,20.152
				c-0.029,0.873,2.727,10.327-0.517,14.66c1.505,1.923-1.781,16.546-2.825,18.402c-1.237,2.199-5.719,6.352-11.051,9.397
				c7.935-2.096,16.09-8.459,17.832-11.289c1.882-3.06,3.276-28.433,3.343-30.224C272.311,20.339,264.002,12.929,254.168,10.417z"/>
			<path opacity="0.1" fill="#FFFFFF" enable-background="new    " d="M230.45,65.905c-2.482-1.814-4.338-3.589-5.039-4.728
				c-1.514-2.461-2.994-24.541-3.183-29.702c-0.244-6.613,2.785-12.343,8.326-16.18c-3.26,4.252-4.903,9.477-4.712,15.231
				c0.01,0.293,1.354,29.983,3.477,33.783C229.591,64.793,229.975,65.332,230.45,65.905z"/>
			
				<radialGradient id="SVGID_17_" cx="281.1797" cy="-10253.5264" r="13.5576" gradientTransform="matrix(1 0 0 -0.4476 -37 -4533.9365)" gradientUnits="userSpaceOnUse">
				<stop  offset="0" style="stop-color:#FFFFFF"/>
				<stop  offset="0.0175" style="stop-color:#FFFDFA"/>
				<stop  offset="0.1726" style="stop-color:#FFE9D0"/>
				<stop  offset="0.3312" style="stop-color:#FFD9AE"/>
				<stop  offset="0.4917" style="stop-color:#FFCD93"/>
				<stop  offset="0.6547" style="stop-color:#FFC480"/>
				<stop  offset="0.822" style="stop-color:#FFBF75"/>
				<stop  offset="1" style="stop-color:#FFBD71"/>
			</radialGradient>
			<path opacity="0.31" fill="url(#SVGID_17_)" enable-background="new    " d="M240.69,55.162
				c4.124,1.435,12.141,0.32,12.674-0.331c-0.088-2.387-2.397-5.966-2.604-7.089c0,0-6.486-0.831-7.525,0
				C242.777,49.862,240.69,53.309,240.69,55.162z"/>
			<path fill="#EA9D49" d="M253.374,54.781c-1.062,0.257-5.94,1.423-12.684,0.381c-0.05,0.27,2.721,2.017,6.072,2.516
				C248.382,58.059,253.661,55.082,253.374,54.781z"/>
			<path opacity="0.3" fill="#DD9544" enable-background="new    " d="M250.955,55.249c0.485-0.251-0.418-6.926-0.284-7.059
				c0.937,2.208,2.142,2.827,2.703,6.591C252.554,55.1,251.708,55.183,250.955,55.249z"/>
		</g>
	</g>
	
		<linearGradient id="SVGID_18_" gradientUnits="userSpaceOnUse" x1="270.5742" y1="15.0693" x2="283.0057" y2="-21.255" gradientTransform="matrix(1 0 0 -1 -37 19.5)">
		<stop  offset="0" style="stop-color:#915418"/>
		<stop  offset="1" style="stop-color:#683C11"/>
	</linearGradient>
	<path opacity="0.2" fill="url(#SVGID_18_)" enable-background="new    " d="M265.448,24.972
		c-1.391-0.293-12.087,3.899-18.317,3.899c-0.136,0-4.623-0.278-6.449-0.652c-9.278-1.157-13.032-1.546-14.624-1.927
		c-0.806,1.053-1.457,2.406-1.578,2.816c-0.198,0.669,0.824,5.119,0.826,6.263c0.003,1.145-1.752,12.326-2.073,12.588
		c-0.103,0.084-0.743-0.023-0.917-0.038c0.017,0.194-0.019-0.092,0,0.101c0.34,0.159,1.395,0.309,1.589,0.15
		c0.321-0.262,1.939-10.943,1.938-12.088c-0.003-1.144-1.025-5.593-0.827-6.263c0.121-0.411,0.772-1.764,1.579-2.816
		c1.592,0.38,5.345,0.77,14.623,1.928c1.826,0.373,6.313,0.652,6.45,0.652c6.23,0,16.926-4.194,18.316-3.899
		c0.464,0.098,0.95,0.52,1.401,1.059C266.805,25.89,266.104,25.111,265.448,24.972z"/>
</g>
<g>
	<path fill="#3A3A3A" d="M163.984,43.25c0,0,7.828-2.754,15.856-3.867c1.681-1.005-9.763-0.349-11.081,0.116
		C167.44,39.964,165.014,41.565,163.984,43.25z"/>
	<path fill="#3A3A3A" d="M157.035,43.409c0,0-7.786-2.872-15.796-4.105c-1.666-1.031,9.767-0.201,11.078,0.283
		C153.628,40.071,156.031,41.709,157.035,43.409z"/>
	<path fill="#EF843C" d="M154.533,64.177c1.022-0.259,5.074-2.022,12.106-0.013c0.049-0.271-2.518-1.23-5.743-1.733
		C159.338,62.046,154.256,63.874,154.533,64.177z"/>
	<path opacity="0.7" fill="#EF843C" enable-background="new    " d="M155.881,66.85c0.797-0.098,4.454-0.539,9.51-0.145
		c0.037-0.102-2.04-0.764-4.553-0.953C159.624,65.607,155.666,66.735,155.881,66.85z"/>
	<g>
		<g>
			<path fill="#3C3C3B" d="M143.247,45.36c-0.252-0.673,0.05-1.256,0.587-1.831c0.538-0.576,4.227-2.79,7.938-0.648
				c3.712,2.141,3.349,3.897,3.349,3.897S149.652,49.736,143.247,45.36z"/>
			<path fill="#FFFFFF" d="M143.531,45.693c-0.223-0.134-0.389-0.376-0.388-0.636c0.002-0.437,0.27-0.836,0.669-1.231
				c0.534-0.527,4.209-2.547,7.932-0.554c3.722,1.994,3.369,3.609,3.369,3.609S149.828,49.496,143.531,45.693z"/>
			
				<radialGradient id="SVGID_19_" cx="200.7754" cy="0.3223" r="2.3889" gradientTransform="matrix(0.9976 0.069 0.069 -0.9976 -51.1982 31.4775)" gradientUnits="userSpaceOnUse">
				<stop  offset="0.5027" style="stop-color:#683C11"/>
				<stop  offset="0.603" style="stop-color:#7D4C0A"/>
				<stop  offset="0.7195" style="stop-color:#8F5A04"/>
				<stop  offset="0.8461" style="stop-color:#996101"/>
				<stop  offset="1" style="stop-color:#9C6400"/>
			</radialGradient>
			<circle fill="url(#SVGID_19_)" cx="149.116" cy="45.01" r="2.389"/>
			<circle fill="#1D1D1B" cx="149.105" cy="45.035" r="1.362"/>
			<circle fill="#FFFFFF" cx="150.412" cy="44.085" r="0.939"/>
		</g>
	</g>
	<g>
		<g>
			<path fill="#3C3C3B" d="M177.181,45.387c0.255-0.672-0.044-1.257-0.579-1.835c-0.534-0.578-4.213-2.809-7.935-0.685
				s-3.367,3.881-3.367,3.881S170.755,49.732,177.181,45.387z"/>
			<path fill="#FFFFFF" d="M176.742,45.808c0.421-0.245,0.629-0.781,0.428-1.225c-0.115-0.25-0.308-0.493-0.549-0.734
				c-0.531-0.53-4.197-2.567-7.929-0.591c-3.731,1.976-3.387,3.593-3.387,3.593S170.494,49.449,176.742,45.808z"/>
			
				<radialGradient id="SVGID_20_" cx="-108.5259" cy="-49.1865" r="2.3887" gradientTransform="matrix(-0.9979 0.0644 -0.0644 -0.9979 59.8467 2.9146)" gradientUnits="userSpaceOnUse">
				<stop  offset="0.5027" style="stop-color:#683C11"/>
				<stop  offset="0.603" style="stop-color:#7D4C0A"/>
				<stop  offset="0.7195" style="stop-color:#8F5A04"/>
				<stop  offset="0.8461" style="stop-color:#996101"/>
				<stop  offset="1" style="stop-color:#9C6400"/>
			</radialGradient>
			<circle fill="url(#SVGID_20_)" cx="171.312" cy="45.009" r="2.389"/>
			<circle fill="#1D1D1B" cx="171.324" cy="45.033" r="1.362"/>
			<circle fill="#FFFFFF" cx="172.415" cy="43.87" r="0.939"/>
		</g>
	</g>
</g>
<g>
	<path fill="#3A3A3A" d="M250.266,38.136c0,0,8.299,0.006,16.239,1.627c1.92-0.389-9.091-3.576-10.489-3.576
		C254.619,36.187,251.797,36.889,250.266,38.136z"/>
	<path fill="#3A3A3A" d="M243.542,38.04c0,0-8.298,0.103-16.22,1.815c-1.924-0.367,9.049-3.681,10.446-3.697
		C239.167,36.141,241.997,36.811,243.542,38.04z"/>
	<path opacity="0.8" fill="#EF843C" enable-background="new    " d="M242.685,66.893c0.797-0.098,4.454-0.54,9.51-0.145
		c0.038-0.102-2.04-0.764-4.553-0.953C246.428,65.65,242.47,66.778,242.685,66.893z"/>
	<g>
		<path fill="#FFFFFF" d="M252.979,48.427c-0.416-0.792-0.37-3.229,0-4.209c0.369-0.98,3.353-5.401,7.478-4.051
			s4.368,4.829,4.368,4.829S261.197,51.22,252.979,48.427z"/>
		<path opacity="0.9" fill="#3A3A3A" enable-background="new    " d="M260.846,41.417c1.754,0.489,3.103,1.497,3.841,2.656
			c-0.638-1.582-2.011-3.233-4.116-3.906c-4.233-1.351-7.296,3.07-7.676,4.051c-0.087,0.227-0.156,0.555-0.207,0.932
			C253.155,44.172,256.391,40.175,260.846,41.417z"/>
	</g>
	<g>
		<path fill="#FFFFFF" d="M240.966,48.046c0.415-0.792,0.369-3.229,0-4.209c-0.369-0.98-3.354-5.4-7.479-4.051
			c-4.125,1.351-4.539,6.266-4.539,6.266S232.746,50.839,240.966,48.046z"/>
		<path fill="#3A3A3A" d="M233.132,41.035c-1.743,0.488-2.874,1.587-3.607,2.746c0.633-1.581,1.788-3.324,3.881-3.996
			c4.207-1.35,7.249,3.07,7.626,4.051c0.087,0.227,0.155,0.555,0.206,0.932C240.773,43.791,237.559,39.793,233.132,41.035z"/>
	</g>
	
		<radialGradient id="SVGID_21_" cx="272.8906" cy="-26.1807" r="2.4365" gradientTransform="matrix(1 0 0 -1 -37 19.5)" gradientUnits="userSpaceOnUse">
		<stop  offset="0.5027" style="stop-color:#683C11"/>
		<stop  offset="0.603" style="stop-color:#7D4C0A"/>
		<stop  offset="0.7195" style="stop-color:#8F5A04"/>
		<stop  offset="0.8461" style="stop-color:#996101"/>
		<stop  offset="1" style="stop-color:#9C6400"/>
	</radialGradient>
	<circle fill="url(#SVGID_21_)" cx="235.891" cy="45.681" r="2.437"/>
	<circle fill="#1D1D1B" cx="235.881" cy="45.706" r="1.528"/>
	<circle fill="#FFFFFF" cx="237.119" cy="44.668" r="0.959"/>
	
		<radialGradient id="SVGID_22_" cx="-211.23" cy="-26.1807" r="2.437" gradientTransform="matrix(-1 0 0 -1 46.834 19.5)" gradientUnits="userSpaceOnUse">
		<stop  offset="0.5027" style="stop-color:#683C11"/>
		<stop  offset="0.603" style="stop-color:#7D4C0A"/>
		<stop  offset="0.7195" style="stop-color:#8F5A04"/>
		<stop  offset="0.8461" style="stop-color:#996101"/>
		<stop  offset="1" style="stop-color:#9C6400"/>
	</radialGradient>
	<circle fill="url(#SVGID_22_)" cx="258.063" cy="45.681" r="2.437"/>
	<circle fill="#1D1D1B" cx="258.073" cy="45.706" r="1.528"/>
	<circle fill="#FFFFFF" cx="259.237" cy="44.615" r="0.958"/>
	<ellipse fill="#683C11" cx="247.04" cy="64.642" rx="6.96" ry="4.818"/>
	<path fill="#FFFFFF" d="M252.845,61.986c-1.245-1.303-3.379-2.163-5.805-2.163c-2.435,0-4.575,0.867-5.819,2.179
		c1.259,0.31,2.661,0.51,4.181,0.652C248.24,62.922,250.864,62.749,252.845,61.986z"/>
	<path opacity="0.49" fill="#BE1622" enable-background="new    " d="M247.04,69.459c2.636,0,4.928-1.015,6.109-2.51
		c-1.386-0.636-3.47-1.046-5.817-1.046c-2.588,0-4.862,0.496-6.225,1.248C242.331,68.534,244.526,69.459,247.04,69.459z"/>
</g>
<g>
	<path fill="#3A3A3A" d="M76.399,41.476c0,0,8.05-2.013,16.147-2.373c1.768-0.845-9.688-1.257-11.043-0.917
		S77.58,39.894,76.399,41.476z"/>
	<path fill="#3A3A3A" d="M69.862,41.402c0,0-7.881-2.599-15.929-3.553c-1.701-0.972,9.754-0.541,11.081-0.103
		C66.342,38.185,68.8,39.738,69.862,41.402z"/>
	<path opacity="0.8" fill="#EF843C" enable-background="new    " d="M70.799,66.252c0.712-0.225,3.98-1.253,8.669-1.754
		c0.018-0.099-1.995-0.351-4.325-0.095C74.009,64.478,70.583,66.184,70.799,66.252z"/>
	<g>
		<g>
			<path fill="#3C3C3B" d="M55.726,45.625c-0.298-0.654-0.037-1.256,0.459-1.869c0.496-0.611,4.023-3.074,7.874-1.194
				c3.851,1.879,3.61,3.656,3.61,3.656S62.418,49.548,55.726,45.625z"/>
			<path fill="#FFFFFF" d="M56.033,45.938c-0.231-0.119-0.414-0.348-0.431-0.608c-0.028-0.435,0.212-0.853,0.583-1.274
				c0.496-0.563,4.023-2.832,7.874-1.1c3.851,1.731,3.61,3.368,3.61,3.368S62.578,49.296,56.033,45.938z"/>
			
				<radialGradient id="SVGID_23_" cx="96.9937" cy="-25.3701" r="2.3892" gradientTransform="matrix(1 0 0 -1 -37 19.5)" gradientUnits="userSpaceOnUse">
				<stop  offset="0.5027" style="stop-color:#683C11"/>
				<stop  offset="0.603" style="stop-color:#7D4C0A"/>
				<stop  offset="0.7195" style="stop-color:#8F5A04"/>
				<stop  offset="0.8461" style="stop-color:#996101"/>
				<stop  offset="1" style="stop-color:#9C6400"/>
			</radialGradient>
			<circle fill="url(#SVGID_23_)" cx="59.994" cy="44.87" r="2.389"/>
			<circle fill="#1D1D1B" cx="59.984" cy="44.895" r="1.362"/>
			<circle fill="#FFFFFF" cx="61.222" cy="43.858" r="0.94"/>
		</g>
	</g>
	<g>
		<g>
			<path fill="#3C3C3B" d="M89.563,45.625c0.298-0.654,0.037-1.256-0.459-1.869c-0.496-0.611-4.023-3.074-7.874-1.194
				c-3.851,1.879-3.61,3.656-3.61,3.656S82.871,49.548,89.563,45.625z"/>
			<path fill="#FFFFFF" d="M89.098,46.018c0.436-0.217,0.679-0.739,0.506-1.194c-0.098-0.257-0.275-0.512-0.5-0.768
				c-0.496-0.563-4.023-2.832-7.874-1.1c-3.851,1.731-3.61,3.368-3.61,3.368S82.629,49.249,89.098,46.018z"/>
			
				<radialGradient id="SVGID_24_" cx="-35.7349" cy="-25.3701" r="2.3892" gradientTransform="matrix(-1 0 0 -1 46.834 19.5)" gradientUnits="userSpaceOnUse">
				<stop  offset="0.5027" style="stop-color:#683C11"/>
				<stop  offset="0.603" style="stop-color:#7D4C0A"/>
				<stop  offset="0.7195" style="stop-color:#8F5A04"/>
				<stop  offset="0.8461" style="stop-color:#996101"/>
				<stop  offset="1" style="stop-color:#9C6400"/>
			</radialGradient>
			<circle fill="url(#SVGID_24_)" cx="82.569" cy="44.87" r="2.389"/>
			<circle fill="#1D1D1B" cx="82.579" cy="44.895" r="1.362"/>
			<circle fill="#FFFFFF" cx="83.743" cy="43.805" r="0.94"/>
		</g>
	</g>
	<path fill="#EF843C" d="M74.093,62.714c2.756-0.547,5.287-0.65,7.005-0.374c-1.179-0.825-4.001-1.028-7.159-0.402
		c-3.157,0.625-5.689,1.889-6.465,3.101C68.958,64.127,71.337,63.26,74.093,62.714z"/>
</g>
<linearGradient id="SVGID_25_" gradientUnits="userSpaceOnUse" x1="80.7705" y1="-69.1665" x2="139.4277" y2="-69.1665" gradientTransform="matrix(1 0 0 -1 -37 19.5)">
	<stop  offset="0" style="stop-color:#5B777F"/>
	<stop  offset="0.2924" style="stop-color:#57767F"/>
	<stop  offset="0.5533" style="stop-color:#4D727F"/>
	<stop  offset="0.8013" style="stop-color:#3A6B7F"/>
	<stop  offset="1" style="stop-color:#26647F"/>
</linearGradient>
<path fill="url(#SVGID_25_)" d="M102.428,95.577c-0.091-0.743-0.558-2.111-1.645-5.166c-0.538-1.511-1.094-3.073-1.399-4.091
	c-0.931-3.102-4.21-3.886-4.758-3.995c-3.271-0.971-8.729-2.673-9.613-3.159c-0.432-0.237-0.891-0.535-1.326-0.856
	c-2.138,2.893-5.988,4.83-10.397,4.83c-4.503,0-8.426-2.019-10.533-5.014c-0.505,0.393-1.058,0.759-1.571,1.041
	c-0.883,0.485-6.342,2.188-9.612,3.158c-0.548,0.109-3.829,0.894-4.759,3.995c-0.305,1.017-0.86,2.577-1.398,4.088
	c-1.088,3.057-1.555,4.426-1.646,5.169h0.027c0,0.01-0.005,0.021-0.005,0.03c0,1.988,13.125,3.6,29.317,3.6
	c16.192,0,29.318-1.611,29.318-3.6c0-0.01-0.005-0.021-0.006-0.03H102.428L102.428,95.577z"/>
<linearGradient id="SVGID_26_" gradientUnits="userSpaceOnUse" x1="167.9863" y1="-69.1665" x2="226.6436" y2="-69.1665" gradientTransform="matrix(1 0 0 -1 -37 19.5)">
	<stop  offset="0" style="stop-color:#5B777F"/>
	<stop  offset="0.2924" style="stop-color:#57767F"/>
	<stop  offset="0.5533" style="stop-color:#4D727F"/>
	<stop  offset="0.8013" style="stop-color:#3A6B7F"/>
	<stop  offset="1" style="stop-color:#26647F"/>
</linearGradient>
<path fill="url(#SVGID_26_)" d="M189.644,95.577c-0.091-0.743-0.558-2.111-1.645-5.166c-0.538-1.511-1.094-3.073-1.398-4.091
	c-0.931-3.102-4.21-3.886-4.76-3.995c-3.27-0.971-8.729-2.673-9.612-3.159c-0.432-0.237-0.891-0.535-1.326-0.856
	c-2.138,2.893-5.987,4.83-10.397,4.83c-4.503,0-8.425-2.019-10.533-5.014c-0.505,0.393-1.058,0.759-1.571,1.041
	c-0.883,0.485-6.341,2.188-9.612,3.158c-0.548,0.109-3.828,0.894-4.759,3.995c-0.305,1.017-0.86,2.577-1.398,4.088
	c-1.087,3.057-1.555,4.426-1.646,5.169h0.027c0,0.01-0.005,0.021-0.005,0.03c0,1.988,13.125,3.6,29.317,3.6
	c16.192,0,29.317-1.611,29.317-3.6c0-0.01-0.005-0.021-0.006-0.03H189.644L189.644,95.577z"/>
<linearGradient id="SVGID_27_" gradientUnits="userSpaceOnUse" x1="253.9434" y1="-69.1665" x2="312.6006" y2="-69.1665" gradientTransform="matrix(1 0 0 -1 -37 19.5)">
	<stop  offset="0" style="stop-color:#5B777F"/>
	<stop  offset="0.2924" style="stop-color:#57767F"/>
	<stop  offset="0.5533" style="stop-color:#4D727F"/>
	<stop  offset="0.8013" style="stop-color:#3A6B7F"/>
	<stop  offset="1" style="stop-color:#26647F"/>
</linearGradient>
<path fill="url(#SVGID_27_)" d="M275.601,95.577c-0.091-0.743-0.558-2.111-1.645-5.166c-0.538-1.511-1.094-3.073-1.398-4.091
	c-0.931-3.102-4.21-3.886-4.759-3.995c-3.271-0.971-8.729-2.673-9.613-3.159c-0.432-0.237-0.891-0.535-1.325-0.856
	c-2.139,2.893-5.988,4.83-10.397,4.83c-4.504,0-8.426-2.019-10.534-5.014c-0.505,0.393-1.058,0.759-1.57,1.041
	c-0.884,0.485-6.342,2.188-9.612,3.158c-0.548,0.109-3.829,0.894-4.759,3.995c-0.306,1.017-0.86,2.577-1.397,4.088
	c-1.089,3.057-1.555,4.426-1.646,5.169h0.027c-0.001,0.01-0.006,0.021-0.006,0.03c0,1.988,13.125,3.6,29.317,3.6
	s29.318-1.611,29.318-3.6c0-0.01-0.006-0.021-0.007-0.03H275.601L275.601,95.577z"/>
<path fill="#89470B" d="M98.924,15.014C86.165,4.753,66.535,0.381,65.732,0.782c-0.803,0.402,0.401,3.146,0.401,3.146
	s-9.502-3.279-10.038-3.146c-0.535,0.134,3.011,4.083,3.011,4.083s-8.531-1.903-9.117-1.521c-0.586,0.383,3.362,3.729,3.362,3.729
	S46.017,5.717,40.56,8.56c-0.089,0.273,7.238,1.792,7.238,1.792s-7.732,3.772-9.262,5.898c0.107,0.133,8.592-0.879,8.592-0.879
	s-4.784,3.469-4.871,4.552c1.578,0.917,2.937,3.587,3.686,4.2c-0.013,0.072-0.021,0.159-0.031,0.241
	c-0.241,2.027,0.39,6.956,0.954,11.761c0.198,0.013,0.336,0.042,0.461,0.083c0.204,0.066,0.366,0.175,0.631,0.375
	c0.008,0.122,0.016,0.253,0.024,0.377c0.198,3.1,0.485,7.13,0.843,11.066c0.161,0.076,0.33,0.12,0.484,0.133
	c0.175,0.015,0.331-0.011,0.434-0.094c0.321-0.263,2.076-11.444,2.073-12.588c-0.002-1.145-1.025-5.594-0.827-6.264
	c0.121-0.41,0.773-1.763,1.579-2.816c1.592,0.38,5.345,0.77,14.625,1.927c1.826,0.374,6.313,0.653,6.45,0.653
	c6.23,0,16.926-4.193,18.316-3.9c0.655,0.138,1.356,0.918,1.936,1.772c0.901,1.076,1.657,2.632,1.79,3.078
	c0.197,0.669-0.825,5.119-0.828,6.263c-0.002,0.996,1.325,9.583,1.882,11.974c0.157,0.002,0.335-0.034,0.509-0.104
	c0.408-4.351,0.731-8.92,0.943-12.28c0.454-0.341,0.537-0.341,0.871-0.408c0.395-3.469,0.959-6.936,1.13-9.239
	C100.396,25.614,101.246,18.443,98.924,15.014z"/>
<path fill="#89470B" d="M186.054,15.014C173.295,4.753,153.665,0.381,152.861,0.782c-0.803,0.402,0.401,3.146,0.401,3.146
	s-9.502-3.279-10.038-3.146c-0.535,0.134,3.012,4.083,3.012,4.083s-8.531-1.903-9.117-1.521c-0.586,0.383,3.362,3.729,3.362,3.729
	s-7.336-1.355-12.792,1.487c-0.09,0.273,7.238,1.792,7.238,1.792s-7.732,3.772-9.262,5.898c0.108,0.133,8.593-0.879,8.593-0.879
	s-4.785,3.469-4.872,4.552c1.578,0.917,2.937,3.587,3.686,4.2c-0.013,0.072-0.021,0.159-0.031,0.241
	c-0.241,2.027,0.39,6.956,0.954,11.761c0.198,0.013,0.336,0.042,0.461,0.083c0.204,0.066,0.366,0.175,0.631,0.375
	c0.008,0.122,0.016,0.253,0.024,0.377c0.198,3.1,0.485,7.13,0.843,11.066c0.161,0.076,0.329,0.12,0.484,0.133
	c0.174,0.015,0.33-0.011,0.434-0.094c0.321-0.263,2.076-11.444,2.073-12.588c-0.003-1.145-1.025-5.594-0.827-6.264
	c0.121-0.41,0.773-1.763,1.579-2.816c1.592,0.38,5.345,0.77,14.625,1.927c1.826,0.374,6.313,0.653,6.449,0.653
	c6.23,0,16.927-4.193,18.317-3.9c0.654,0.138,1.355,0.918,1.937,1.772c0.9,1.076,1.656,2.632,1.789,3.078
	c0.197,0.669-0.824,5.119-0.827,6.263c-0.003,0.996,1.324,9.583,1.882,11.974c0.157,0.002,0.336-0.034,0.509-0.104
	c0.408-4.351,0.731-8.92,0.943-12.28c0.453-0.341,0.536-0.341,0.871-0.408c0.395-3.469,0.959-6.936,1.129-9.239
	C187.525,25.614,188.375,18.443,186.054,15.014z"/>
<path fill="#89470B" d="M272.358,15.126C259.6,4.865,239.969,0.494,239.166,0.895s0.401,3.145,0.401,3.145
	s-9.503-3.279-10.038-3.145s3.012,4.082,3.012,4.082s-8.531-1.902-9.117-1.52c-0.586,0.383,3.362,3.729,3.362,3.729
	s-7.336-1.355-12.793,1.486c-0.09,0.273,7.238,1.792,7.238,1.792s-7.732,3.772-9.262,5.898c0.107,0.132,8.593-0.88,8.593-0.88
	s-4.784,3.469-4.872,4.552c1.578,0.917,2.937,3.588,3.686,4.201c-0.013,0.072-0.021,0.159-0.031,0.24
	c-0.241,2.027,0.39,6.957,0.954,11.762c0.198,0.013,0.336,0.042,0.461,0.083c0.204,0.066,0.366,0.175,0.632,0.375
	c0.008,0.121,0.017,0.253,0.024,0.377c0.197,3.101,0.485,7.13,0.843,11.066c0.161,0.076,0.33,0.12,0.484,0.133
	c0.175,0.015,0.33-0.012,0.434-0.095c0.321-0.263,2.075-11.444,2.073-12.588c-0.002-1.145-1.025-5.594-0.827-6.263
	c0.121-0.411,0.773-1.763,1.579-2.816c1.592,0.38,5.345,0.77,14.624,1.928c1.825,0.374,6.312,0.652,6.449,0.652
	c6.23,0,16.927-4.193,18.316-3.9c0.655,0.139,1.356,0.918,1.937,1.772c0.901,1.077,1.657,2.632,1.79,3.079
	c0.197,0.669-0.825,5.119-0.827,6.263c-0.003,0.996,1.324,9.582,1.882,11.974c0.157,0.002,0.335-0.033,0.509-0.104
	c0.407-4.351,0.731-8.921,0.942-12.28c0.454-0.341,0.537-0.341,0.872-0.408c0.395-3.47,0.959-6.936,1.129-9.24
	C273.83,25.727,274.68,18.555,272.358,15.126z"/>
</svg>
