<svg version="1.1" id="Layer_1" xmlns="http://www.w3.org/2000/svg" xmlns:xlink="http://www.w3.org/1999/xlink" viewBox="0 0 300 100" enable-background="new 0 0 300 100" xml:space="preserve">
<polyline fill="#665C4B" points="158.924,41.693 185.791,54.796 186.053,53.63 159.543,40.848 "/>
<polyline fill="#DBD4CA" points="159.543,40.848 176.5,34.779 195.812,45.128 186.053,53.63 159.543,40.848 "/>
<g>
	<path fill="#665C4B" d="M174.137,36.546l-3.104-0.709l-0.271,0.133l0.603,0.473c0.128,0.099,0.107,0.295-0.035,0.368l-5.678,1.771
		c-0.373,0.19-0.814,0.184-1.183-0.017l-0.56-0.304l-0.565,0.278l0.899,0.489c0.43,0.234,0.948,0.241,1.383,0.02l8.47-2.072
		C174.262,36.892,174.285,36.662,174.137,36.546z"/>
	<polygon fill="#665C4B" points="163.909,38.262 170.762,35.971 170.762,35.971 171.033,35.837 170.667,35.528 162.893,38.202 
		163.344,38.54 	"/>
</g>
<path fill="#E0AB85" d="M193.453,40.68c0,0-5.012-1.014-5.293-1.436s-1.549-1.915-2.562-1.831c-1.013,0.085-2.252,0.285-2.448,0.565
	s0,1.265,0,1.265s-0.366-0.028-0.534,0.338c-0.17,0.366,0,0.929,0,0.929s-0.197,0.113-0.197,0.311c0,0.195,0,0.534,0,0.534
	s-0.281,0-0.226,0.225c0.057,0.227,0.845,1.352,1.323,1.464c0.479,0.113,1.05,0.31,1.848,0.366c0.799,0.056,1.276-0.337,1.276-0.337
	s2.844,1.122,4.533,1.716c1.689,0.592,3.577,0.027,3.577,0s0.139-1.773,0.082-2.138C194.776,42.285,193.453,40.68,193.453,40.68z"/>
<path fill="#E0AB85" d="M194.582,36.943c0,0,0.121-1.999,0-2.815c-0.121-0.817,1.68-1.38,1.68-1.38l5.49-0.421l1.07,2.448
	c0,0,1.94,1.717-3.435,3.435c-5.378,1.717-6.042,0.904-5.744,0.141C193.944,37.588,194.582,36.943,194.582,36.943z"/>
<polygon fill="#5B4124" points="197.021,75.682 197.021,98.598 199.049,99.387 199.049,76.132 "/>
<polygon fill="#7A5B36" points="199.049,76.132 199.049,99.387 202.258,97.923 202.258,74.894 "/>
<polygon fill="#5B4124" points="210.836,70.487 210.836,93.403 212.862,94.192 212.862,70.938 "/>
<polygon fill="#7A5B36" points="212.862,70.938 212.862,94.192 216.073,92.729 216.073,69.699 "/>
<g>
	<path fill="#580D09" d="M192.247,86.999c0,0,0.008,0.875-0.273,1.1c-0.281,0.226-2.31,1.408-3.885,1.07
		c-1.578-0.338-3.098-1.887-3.913-1.972c-0.817-0.083-3.378-0.31-5.208-1.35c-1.831-1.043-2.592-2.141-2.592-2.817
		c0-0.674,0.33-1.084,0.33-1.084s7.216,3.845,10.622,4.688C190.733,87.479,192.247,86.999,192.247,86.999z"/>
	<path fill="#D09B75" d="M180.037,83.229c0.225,0.733,6.248,1.464,7.938,1.802s4.113-1.802,4.113-1.802
		c-0.199-1.483-0.451-3.051-0.584-3.885c-0.262-1.633,0.262-6.476,0-10.023c-0.262-3.545-1.22-13.319-1.22-13.319
		s-5.235-1.657-7.827-0.476c-2.59,1.182-2.59,7.321-1.294,12.106c1.294,4.786,5.181,12.669,4.504,13.514
		c-0.487,0.611-2.034,0.425-3.363,0.107C180.062,80.963,179.812,82.496,180.037,83.229z"/>
	<path fill="#BE392E" d="M177.896,80.582c-0.731,0.677-1.914,1.634-1.013,2.871c0.901,1.239,2.928,2.422,4.392,2.76
		c1.464,0.337,3.209,0.281,3.771,0.733c0.564,0.448,2.478,2.083,4.223,1.633c1.747-0.451,2.985-0.902,3.098-2.029
		c0.056-0.55-0.089-1.897-0.279-3.32c0,0-2.424,2.14-4.113,1.802s-7.713-1.069-7.938-1.802c-0.226-0.732,0.024-2.266,2.267-1.975
		c-0.511-0.123-0.991-0.265-1.365-0.392C179.586,80.414,178.629,79.906,177.896,80.582z"/>
</g>
<path fill="#681D19" d="M187.895,89.08c0,0,0.005,0.875-0.276,1.101c-0.281,0.225-2.308,1.407-3.885,1.068
	c-1.576-0.338-3.097-1.886-3.912-1.971c-0.817-0.084-3.379-0.309-5.209-1.351s-6.99-2.14-6.99-2.815s2.529-1.086,2.529-1.086
	s9.416,3.846,12.823,4.689C186.38,89.562,187.895,89.08,187.895,89.08z"/>
<polygon fill="#B78F5E" points="184.746,69.065 199.556,72.669 216.073,67.64 203.686,65.838 "/>
<path fill="#352412" d="M217.684,16.436c0,0-0.351-2.649,2.381-2.826c2.729-0.176,5.276,0.975,5.635-0.763
	c0.36-1.738-1.559-0.917-1.559-0.917s1.521-0.729,2.006-0.086c0.481,0.643,1.061,1.887,0.347,2.394
	c-0.713,0.507-1.079,0.503-1.079,0.503s1.844-0.429,3.009,0.343c1.161,0.773,2.244,1.84,2.244,1.84s-0.8-0.541-1.535-0.235
	c-0.732,0.306-1.354,0.851-1.354,0.851l1.192-0.337c0,0-0.658,0.782-1.017,1.423c-0.358,0.643-0.127,1.448-1.43,2.419
	c-1.3,0.972-2.07,0.966-2.07,0.966s2.369,0.065,3.134-0.803c0.765-0.868,1.291-1.149,1.291-1.149s-0.586,0.786-0.762,1.031
	c-0.179,0.246,0.17,1.07-0.811,1.636c-0.979,0.565-2.015,0.611-2.015,0.611s1.872,0.807,2.391,1.917
	c0.518,1.111-0.477,1.646-0.477,1.646s0.469-0.876,0.135-1.122c-0.333-0.247-1.022-1.021-2.032-0.368
	c-1.013,0.654-2.346,1.787-4.274,0.786c-1.926-1.001-2.184-2.416-2.184-2.416s0.145,2.27,1.482,2.633
	c1.339,0.363,2.135,0.285,2.135,0.285s-1.769,1.444-3.167,0.087c-1.4-1.356-1.286-2.761-1.286-2.761s-1.091-0.222-0.762,0.72
	c0.332,0.942,0.848,0.957,0.848,0.957s-0.797-0.066-1.427-0.869c-0.63-0.802-0.813-1.667-0.129-2.314
	C217.229,21.872,217.684,16.436,217.684,16.436z"/>
<path fill="#E0AB85" d="M196.878,5.541c0,0-6.297,2.357-8.539,6.358c-2.24,4.001-0.979,5.133-1.564,6.906
	c-0.585,1.772-2.855,1.381-3.254,1.754c-0.397,0.374-0.467,1.391,0.286,1.978s1.347,0.712,1.4,1.205
	c0.054,0.494-1.552,4.446,1.897,7.477c3.448,3.031,7.24,3.086,7.24,3.086s7.314,0.909,9.464-1.444
	c2.152-2.354,9.638-9.836,4.084-18.242C202.337,6.212,196.878,5.541,196.878,5.541z"/>
<path fill="#C98F65" d="M192.346,20.192c0,0,0.474,1.018-0.626,2.079c-1.096,1.062-2.354,0.282-2.547,0.021
	c-0.194-0.261-0.345-0.46-0.094-0.627C189.331,21.497,192.346,20.192,192.346,20.192z"/>
<path fill="#FFFFFF" d="M192.354,20.675c0,0-0.214,1.662-1.632,1.8c-1.42,0.138-1.697-0.776-1.697-0.776s-0.529-1.002-0.383-2.499
	c0.146-1.498,0.597-1.852,0.597-1.852s1.844-0.255,2.452,1.021c0.611,1.276,0.655,1.822,0.655,1.822L192.354,20.675z"/>
<path fill="#35200B" d="M192.354,20.675c0,0-0.264-1.862-1.287-2.538c-1.022-0.674-2.296,0.334-2.88-0.581
	c-0.585-0.916-0.345-1.028-0.345-1.028s0.996,0.464,1.875,0.476c0.878,0.011,1.795,0.428,2.24,1.322
	C192.401,19.218,192.354,20.675,192.354,20.675z"/>
<path fill="#8DD83D" d="M188.834,18.147c0,0,1.616-0.589,2.021,1.686c0.403,2.265-1.593,2.23-1.593,2.23s-0.624-0.325-0.707-1.902
	C188.472,18.582,188.834,18.147,188.834,18.147z"/>
<path fill="#35200B" d="M188.634,18.691c0,0,1.111-0.222,1.404,1.399c0.308,1.709-1.129,1.561-1.129,1.561s-0.327-0.355-0.432-1.447
	C188.374,19.112,188.634,18.691,188.634,18.691z"/>
<circle fill="#FFFFFF" cx="189.913" cy="19.277" r="0.441"/>
<path fill="#35200B" d="M189.094,26.726c0.012-0.017,0.023-0.036,0.029-0.056c0.02-0.044,0.025-0.095,0.01-0.149
	c-0.008-0.03-0.023-0.054-0.039-0.075c-0.002-0.002-0.002-0.003-0.004-0.004c-0.005-0.006-0.011-0.012-0.017-0.018
	c-0.063-0.067-0.166-0.098-0.263-0.051c-0.159,0.081-0.157,0.3-0.021,0.394c-0.322,0.753-0.867,1.373-1.689,1.601
	c-0.736,0.205-1.295-0.001-1.984-0.227c0.018,0.062,0.027,0.102,0.05,0.165c0.576,0.509,1.41,0.432,2.115,0.221
	C188.127,28.273,188.848,27.575,189.094,26.726z"/>
<path fill="#85B730" d="M216.392,16.111c0,0,1.814-1.386,2.468,2.29c0.654,3.677-0.638,4.9-1.897,4.94
	c-1.262,0.039-1.582-0.248-1.582-0.248l0.624-6.826L216.392,16.111z"/>
<path fill="#A3733A" d="M207.405,8.191L207.405,8.191L207.405,8.191z"/>
<path fill="#35200B" d="M191.891,16.13c0,0-0.973-1.379-2.199-1.818c-1.228-0.438-2.139,0.042-0.291,0.756
	S191.891,16.13,191.891,16.13z"/>
<path fill="#E0AB85" d="M175.682,85.31c0.226,0.732,6.251,1.465,7.939,1.802c1.689,0.338,4.113-1.802,4.113-1.802
	c-0.2-1.484-0.451-3.052-0.586-3.884c-0.262-1.633,0.262-6.476,0-10.024c-0.262-3.546-1.219-13.318-1.219-13.318
	s-5.236-1.659-7.826-0.476c-2.59,1.182-2.59,7.318-1.295,12.105c1.295,4.786,5.18,12.671,4.504,13.514
	c-0.488,0.61-2.033,0.427-3.364,0.107C175.708,83.043,175.457,84.577,175.682,85.31z"/>
<path fill="#CE493E" d="M171.343,82.663c-0.733,0.677-1.914,1.634-1.015,2.872c0.901,1.239,5.129,2.422,6.592,2.76
	c1.464,0.337,3.21,0.28,3.773,0.731c0.562,0.45,2.478,2.083,4.223,1.634c1.745-0.452,2.983-0.902,3.098-2.028
	c0.054-0.552-0.089-1.896-0.279-3.322c0,0-2.424,2.141-4.113,1.802c-1.688-0.336-7.714-1.069-7.939-1.802
	c-0.225-0.731,0.026-2.265,2.267-1.973c-0.51-0.123-0.989-0.265-1.365-0.391C175.231,82.495,172.073,81.987,171.343,82.663z"/>
<polygon fill="#5B4124" points="184.746,71.275 184.746,94.192 186.773,94.98 186.773,71.728 "/>
<polygon fill="#7A5B36" points="186.773,71.728 186.773,94.98 189.984,93.517 189.984,70.487 "/>
<polygon fill="#9B794C" points="216.073,67.64 216.073,71.74 199.613,77.314 199.613,72.669 "/>
<polygon fill="#82633F" points="199.613,77.314 184.746,73.315 184.746,69.065 199.613,72.669 "/>
<path fill="#6D5554" d="M184.313,56.006c0,0-2.494,0.946-3.169,4.223c-0.676,3.275,1.582,7.446,2.001,8.346
	c0.42,0.897,2.194,1.319,2.884,1.319c0.688,0,1.364-0.709,1.364-0.709s-0.259-0.129,0.632,0c0.888,0.129,1.395,0,1.395,0
	s6.497,1.396,11.132,0.709c4.635-0.686,7.957-1.689,8.971-3.063c1.013-1.372,0-9.346,0-9.346l-17.624-1.479l-2.983-0.372
	L184.313,56.006z"/>
<path fill="#EA8F88" d="M202.61,35.057c0,0,0.98,0.723-1.385,1.548c-2.363,0.826-6.493,2.14-6.98,1.839
	c-0.489-0.3,0.337-1.501,0.337-1.501s-1.464,1.238-2.853,3.903c-1.389,2.666-1.194,9.423-0.863,12.312
	c0.331,2.89,0.104,3.942,0.614,4.729c0.511,0.789,4.04,3.229,10.422,2.515c6.381-0.712,8.183-2.064,8.183-3.003
	c0-0.938-0.414-11.899-3.527-17.492c-3.116-5.593-4.13-5.894-4.13-5.894L202.61,35.057z"/>
<path fill="#E0AB85" d="M190.125,48.028c0,0-3.377,4.419-3.959,4.456c-0.58,0.036-6.738-3.63-6.871-4.046
	c-0.131-0.416,0.158-2.154,0.033-2.888c-0.125-0.733-1.553-1.121-1.753-1.373c-0.202-0.252-0.688,0.018-0.449,0.451
	c0.239,0.436,0.602,0.731,0.549,1.157c-0.054,0.428-0.583,1.255-1.385,1.145c-0.801-0.108-7.992-1.125-8.553-1.621
	c-0.56-0.494-0.665-0.911-0.857-0.607c-0.193,0.303-0.019,0.98,0.24,1.308s0.433,0.582,0.498,0.79
	c0.067,0.207,3.207,2.134,3.664,2.662c0.456,0.527,5.711,1.554,5.976,1.962c0.266,0.407,7.435,6.712,10.423,6.658
	c2.989-0.055,7.414-6.79,7.414-6.79L190.125,48.028z"/>
<path fill="#ED5E4F" d="M188.915,49.222c0,0,3.69-11.191,8.656-9.892s1.734,7.755,0.485,9.679c-1.25,1.925-3.235,3.835-3.235,3.835
	L188.915,49.222z"/>
<path fill="#CE493E" d="M189.858,48.021c0,0-0.208-0.628-0.783-0.212c-0.578,0.417-0.544,1.409-0.97,1.745
	c-0.425,0.337-1.022,0.929-0.951,1.394c0.071,0.468,0.834,1.898,2.777,2.613c1.944,0.714,3.373,1.124,3.779,0.846
	c0.405-0.278,0.465-0.766,1.21-1.38c0.748-0.613,0.892-0.965,0.89-1.121c0-0.155-0.167-0.199-0.167-0.199s-1.88,0.11-3.902-1.207
	C189.718,49.184,189.858,48.021,189.858,48.021z"/>
<path fill="#352412" d="M201.798,35.968c0.233,0.734,0.222,1.085,0.222,1.085s0.47-0.88,0.032-1.492
	c-0.349-0.486-1.14-0.836-1.45-0.959c-0.085-0.029-0.127-0.047-0.127-0.047s0.048,0.017,0.127,0.047
	c0.984,0.354,7.483,2.339,12.891-4.478c5.867-7.396,3.248-13.61,3.248-13.61s0.012-0.42-0.052-1.106
	c-0.128-1.328-0.546-3.651-1.905-5.873l0,0c-0.879-1.431-2.148-2.821-3.983-3.873c-1.168-0.669-2.271-1.103-3.292-1.366
	c-4.373-1.128-7.257,0.854-7.257,0.854s-0.042-0.458,0.6-1.082c0.641-0.623,1.013-0.516,1.013-0.516s-0.555-0.252-1.315,0.437
	s-1.146,1.708-1.146,1.708s0.586-3.881-2.492-4.264c-3.08-0.383-3.409,1.082-3.409,1.082s2.871-1.873,3.734-0.298
	c0.861,1.575,0.792,2.591,0.792,2.591s-0.688-0.476-1.874-0.782c-1.616-0.417-4.159-0.521-7.139,1.327
	c-0.312,0.193-0.605,0.39-0.881,0.589c-4.293,3.099-4.352,6.758-4.352,6.758l2.279,1.2c0,0,0.674-2.333,1.691-3.353
	c1.019-1.021,1.623-1.246,1.623-1.246s-1.878,1.991-2.151,3.082c-0.271,1.089-0.447,2.139-0.447,2.139s3.691,2.124,6.369,2.95
	c2.677,0.827,2.995,0.802,2.995,0.802l0.894-2.605c0,0,1.156,5.449,0.143,9.527s-3.055,5.749-3.055,5.749s3.215,0.019,4.754-1.898
	s1.953-3.8,1.953-3.8s-0.174,1.557-0.73,2.707c-0.557,1.15-1.133,1.553-1.133,1.553s2.339-0.555,3.495-2.59
	c1.157-2.035,1.317-2.389,1.317-2.389s2.323-1.591,2.627,1.662c0.307,3.254-3.698,3.462-3.698,3.462s0.283,1.463-0.601,2.629
	c-0.881,1.165-2.578,2.11-2.578,2.11s0.827,0.924,0.808,2.031c-0.02,1.106-1.069,1-1.069,1s1.474,0.629,1.636-0.579
	c0.162-1.206-0.83-2.012-0.83-2.012S201.564,35.234,201.798,35.968z"/>
<g>
	<path fill="#5D933E" d="M181.632,44.387c0,0-0.1,0.315-0.075,0.355c0.023,0.041,0.321-0.192,0.321-0.192l0.22-0.216l-0.24-0.16
		L181.632,44.387z"/>
	
		<rect x="185.502" y="31.45" transform="matrix(0.8319 0.555 -0.555 0.8319 52.2317 -96.7002)" fill="#CE493E" width="0.421" height="12.81"/>
	
		<rect x="185.862" y="31.679" transform="matrix(0.8336 0.5523 -0.5523 0.8336 51.9863 -96.4315)" fill="#CE493E" width="0.422" height="12.809"/>
	
		<rect x="186.208" y="31.914" transform="matrix(0.8326 0.5539 -0.5539 0.8326 52.4336 -96.8424)" fill="#CE493E" width="0.422" height="12.808"/>
	<polygon fill="#9B865C" points="181.997,43.074 181.632,44.387 181.885,44.386 181.807,44.504 181.955,44.433 181.878,44.55 
		183.052,43.775 	"/>
</g>
<path fill="#E2BA9F" d="M187.062,39.159c0,0-1.66,0.057-1.943,0.282c-0.281,0.226-0.928,0.789-1.377,0.873
	c-0.451,0.084-0.931,0.225-0.536,0.62c0.394,0.394,1.043,0.084,1.38,0.14c0.337,0.058,0.844,0.039,1.801,0.162
	c0.957,0.121,1.578-0.198,1.493-1.038C187.794,39.357,187.062,39.159,187.062,39.159z"/>
<path fill="#B7D17D" d="M185.461,49.065c-0.866-1.135-2.199-1.436-3.415-2.057c-1.419-0.724-2.048-1.978-2.452-3.46
	c-0.178-0.648-0.317-1.304-0.486-1.953c0.057-0.022,0.105-0.065,0.131-0.13c0.259-0.669,0.097-1.51-0.021-2.2
	c-0.134-0.777-0.388-1.504-0.705-2.222c-0.082-0.188-0.396-0.055-0.332,0.141c0.233,0.712,0.396,1.448,0.491,2.191
	c0.048,0.375,0.041,0.77,0.054,1.159c-0.137-0.208-0.329-0.365-0.618-0.402c-0.499-0.065-0.963,0.276-1.366,0.625
	c0.149-0.738-0.117-1.65-0.205-2.389c-0.095-0.801-0.154-1.64-0.358-2.42c-0.051-0.193-0.328-0.144-0.337,0.046
	c-0.049,0.855,0.073,1.738,0.143,2.59c0.058,0.724-0.014,1.618,0.289,2.285c0.04,0.084,0.121,0.122,0.204,0.122
	c-0.075,0.068-0.149,0.132-0.22,0.189c-0.805,0.66-1.653,1.292-2.39,2.028c-0.104,0.103-0.062,0.256,0.031,0.331
	c-0.098,0.015-2.396,0.031-2.486,0.05c-0.125,0.025-0.069,0.206,0.052,0.188c1.019-0.144,3.897,0.348,4.764,0.753
	c0.24,0.113,0.475-0.165,0.287-0.373c-0.562-0.621-1.481-0.733-2.307-0.657c0.677-0.448,1.302-0.979,1.937-1.486
	c0.351-0.281,0.699-0.562,1.052-0.841c0.432-0.341,0.96-0.688,1.188,0.127c0.349,1.243,0.519,2.535,1.002,3.737
	c0.436,1.083,1.096,1.995,2.134,2.561c1.077,0.589,2.487,0.837,3.264,1.862C185.086,49.86,185.77,49.465,185.461,49.065z"/>
<path fill="#B7D17D" d="M187.43,45.08c-0.822-0.381-1.701,0.533-2.015,1.235c-0.253,0.567-0.493,2.092,0.36,2.297
	c0.131,0.033,0.295-0.039,0.325-0.184c0.06-0.29-0.097-0.483-0.158-0.759c-0.077-0.35-0.026-0.708,0.104-1.039
	c0.119-0.306,0.301-0.584,0.549-0.801c0.268-0.233,0.599-0.317,0.859-0.556C187.511,45.225,187.501,45.113,187.43,45.08z"/>
<path fill="#3590DB" d="M174.821,38.705c-0.066-0.746-0.088-1.508-0.06-2.256c0.007-0.166-0.238-0.161-0.253,0
	c-0.079,0.824-6.895,2.765-6.887,3.595c0.008,0.695,6.747,0.364,7.029,1.008c0.088,0.201,0.367,1.281,0.387,1.112
	C175.121,41.435,174.888,39.433,174.821,38.705z"/>
<path fill="#C90FD8" d="M181.402,40.062c-0.057-0.84-0.098-1.688-0.222-2.521c-0.028-0.198-0.329-0.14-0.337,0.045
	c-0.029,0.859-1.343,1.6-1.304,2.458c0.034,0.791,1.364,1.771,1.626,2.53c0.04,0.116,0.229,0.138,0.259,0
	C181.605,41.761,181.46,40.884,181.402,40.062z"/>
<g>
	<g>
		<path fill="#9CA5B7" d="M149.091,45.387l-6.086-0.198l0.271-8.315c0.009-0.264,0.229-0.471,0.493-0.461l5.132,0.167
			c0.264,0.008,0.47,0.229,0.461,0.493L149.091,45.387z"/>
		
			<rect x="144.734" y="36.013" transform="matrix(-0.9995 -0.0328 0.0328 -0.9995 291.432 77.3294)" fill="#7C777A" width="3.231" height="0.523"/>
		
			<rect x="145.117" y="34.373" transform="matrix(-0.9995 -0.0326 0.0326 -0.9995 291.5353 75.1424)" fill="#C6C6C6" width="2.529" height="1.638"/>
		<polygon fill="#AAA7A9" points="146.015,34.356 146.294,30.61 146.605,30.62 146.795,34.382 		"/>
	</g>
	<polygon fill="#DCE6EA" points="104.717,77.653 141.803,78.567 147.153,94.966 93.458,93.769 	"/>
	<path fill="#EDC6AB" d="M137.51,71.761c0,0,1.584,1.187,1.373,3.298s-1.293,3.668-2.876,4.248c-1.584,0.581-4.17,0.291-4.17,0.291
		l-2.216-6.28c0,0-0.211-4.636,3.404-4.416c3.616,0.22,4.301,1.855,4.301,1.855L137.51,71.761z"/>
	<path fill="#DDB397" d="M131.044,72.604c0,0,2.208,1.883,2.384,3.571c0.175,1.688-0.95,4.152-1.83,5.067
		c-0.879,0.914-7.072,1.477-10.942-0.599c-3.871-2.077-8.445-6.72-11.083-7.354c-2.639-0.634-4.328-0.3-5.312-1.134
		c-0.986-0.838,2.85-0.274,5.383-1.013c2.533-0.739,4.188-0.704,4.574-0.492c0.387,0.211,11.329,0.738,11.576,0.738
		c0.246,0,2.99-0.105,2.99-0.105l1.514,0.526L131.044,72.604z"/>
	<path fill="#AF487C" d="M111.931,67.644c0,0-1.469,0.105-2.182,0.817c-0.712,0.714-0.792,0.925-2.612,1.162
		c-1.82,0.237-4.538,0.581-5.093,0.896c-0.554,0.317,1.451,1.479,2.217,1.639c0.764,0.156,8.022-1.4,8.022-1.4L111.931,67.644z"/>
	<path fill="#3E8793" d="M129.488,61.099c0,0,0.053,1.556,0.211,1.715c0.158,0.158,4.855,3.959,5.621,5.014
		c0.766,1.057,1.161,1.426,1.267,1.426s1.029,0.449,1.293,1.266c0.263,0.818-0.027,1.268-0.37,1.242
		c-0.343-0.027-0.474-1.954-3.14-1.295c-2.666,0.661-3.563,1.716-3.563,1.716s-6.254-2.296-7.151-5.857
		c-0.897-3.563,1.9-4.91,1.9-4.91L129.488,61.099z"/>
	<path fill="#6EABBA" d="M124.395,62.312c0,0,0.476,1.108,0.502,2.586c0.026,1.479,0,2.059,0,2.059s4.881,3.932,5.172,4.117
		c0.29,0.185,0.581,0.132,0.791,0.528c0.211,0.395,0.185,1.002,0.185,1.002s-1.135-1.372-4.433,0.132
		c-3.299,1.504-3.88,3.088-3.88,3.535c0,0.45,0.026,0.767-0.554,0.74s-4.776-2.587-6.148-4.011
		c-1.372-1.425-4.091-3.933-3.351-8.656c0.739-4.725,6.65-3.378,6.65-3.378L124.395,62.312z"/>
	<path fill="#E0B190" d="M123.435,41.412c0,0-0.587-0.158-0.646-1.495c-0.058-1.337-4.227-1.074-4.227-1.074l-1.865,1.109
		l0.087,0.914l-0.105,0.828c0,0,1.232,3.254,5.102,2.445C125.652,43.33,123.435,41.412,123.435,41.412z"/>
	<path fill="#C67D9E" d="M133.71,47.288c0,0-2.534-2.146-4.012-3.097c-1.478-0.949-2.469-1.75-3.449-1.865
		c-0.979-0.114-1.09,4.082-0.175,6.123c0.915,2.041,2.578,4.372,4.473,5.105C132.443,54.29,133.71,47.288,133.71,47.288z"/>
	<g>
		<g>
			
				<ellipse transform="matrix(0.5667 -0.8239 0.8239 0.5667 50.0031 109.121)" fill="#914A16" cx="128.748" cy="7.02" rx="6.877" ry="7.312"/>
			<path opacity="0.35" fill="#EDEDED" enable-background="new    " d="M129.666,6.911c0.037-0.047,0.075-0.092,0.117-0.136
				c-0.06,0.101-0.125,0.199-0.193,0.297C129.615,7.019,129.641,6.965,129.666,6.911z"/>
		</g>
		<g>
			
				<ellipse transform="matrix(0.6897 0.7241 -0.7241 0.6897 38.9797 -69.8407)" fill="#914A16" cx="100.98" cy="10.561" rx="6.877" ry="7.312"/>
			<path opacity="0.35" fill="#EDEDED" enable-background="new    " d="M100.155,10.741c-0.083-0.086-0.162-0.173-0.237-0.264
				c0.048,0.037,0.093,0.076,0.135,0.117C100.088,10.643,100.122,10.692,100.155,10.741z"/>
		</g>
		<path fill="#EDC6AB" d="M121.875,40.396l-2.985,0.476c-6.988,1.113-13.556-3.649-14.67-10.638l-0.731-4.594
			c-1.112-6.988,3.65-13.556,10.638-14.669l2.985-0.476c6.989-1.112,13.557,3.65,14.669,10.639l0.731,4.594
			C133.626,32.716,128.863,39.284,121.875,40.396z"/>
		<path fill="#252B03" d="M130.081,23.38c-0.063,0.153-0.311,0.493-0.589,0.608c-0.001,0.001-0.003,0.001-0.004,0.001
			c0.097-0.162,0.221-0.37,0.378-0.636c0.503-0.846,0.558-1.295,0.517-1.302c-0.042-0.007-0.131,0.168-0.723,0.292
			c-0.268,0.056-1.516-0.976-1.516-0.976l0.232,0.763l0.511,1.457c-0.02,0.162,0.077,1.784,0.077,1.784s0.539-0.306,0.902-0.92
			c0.364-0.613,0.399-1.142,0.36-1.237C130.188,23.121,130.144,23.227,130.081,23.38z"/>
		<path fill="#252B03" d="M121.673,25.317c0,0-1-3.906,2.906-4.761c3.906-0.855,4.793,2.646,4.741,3.752
			C129.268,25.417,121.673,25.317,121.673,25.317z"/>
		<circle fill="#59514B" cx="125.481" cy="24.678" r="3.856"/>
		<circle fill="#FFFFFF" cx="125.481" cy="24.678" r="3.598"/>
		<g>
			<circle fill="#252B03" cx="125.828" cy="25.376" r="2.393"/>
			<path opacity="0.13" fill="#FFFFFF" enable-background="new    " d="M126.236,25.775c0.798-0.175,1.366-0.819,1.458-1.561
				c-0.485-0.754-1.403-1.167-2.332-0.963c-0.579,0.126-1.054,0.47-1.36,0.926c0.006,0.083,0.017,0.165,0.035,0.249
				C124.249,25.39,125.233,25.995,126.236,25.775z"/>
		</g>
		<path fill="#252B03" d="M105.804,27.246c0.108,0.126,0.448,0.372,0.749,0.396c0.001,0,0.002,0,0.004,0
			c-0.143-0.124-0.325-0.283-0.558-0.486c-0.74-0.648-0.932-1.058-0.895-1.078c0.038-0.02,0.177,0.12,0.778,0.053
			c0.272-0.03,1.137-1.399,1.137-1.399l0.016,0.798l-0.032,1.543c0.069,0.147,0.481,1.719,0.481,1.719s-0.608-0.124-1.144-0.593
			c-0.536-0.471-0.733-0.963-0.726-1.065C105.622,27.033,105.695,27.121,105.804,27.246z"/>
		<path fill="#252B03" d="M114.396,26.477c0,0-0.262-4.024-4.24-3.624c-3.979,0.401-3.735,4.004-3.34,5.041
			C107.21,28.929,114.396,26.477,114.396,26.477z"/>
		<circle fill="#59514B" cx="110.579" cy="27.052" r="3.856"/>
		<circle fill="#FFFFFF" cx="110.579" cy="27.052" r="3.598"/>
		<path fill="#BC6C61" d="M121.147,31.18c0.082,0.514-0.812,1.287-2.034,1.482c-1.224,0.195-2.313-0.263-2.395-0.777
			c-0.082-0.514,1.049,0.208,2.273,0.013C120.214,31.703,121.066,30.665,121.147,31.18z"/>
		<path fill="#422522" d="M122.571,33.379c-0.1,0.016-0.177,0.08-0.173,0.146c0.066,1.017-1.118,1.904-2.695,2.155l-0.108,0.017
			l-0.107,0.017c-1.576,0.251-2.979-0.225-3.231-1.212c-0.017-0.064-0.109-0.101-0.211-0.084c-0.112,0.018-0.19,0.094-0.172,0.165
			c0.288,1.114,1.893,1.779,3.672,1.496l0.108-0.018l0.107-0.017c1.78-0.284,3.098-1.415,3.026-2.562
			C122.782,33.409,122.685,33.361,122.571,33.379z"/>
		<g>
			<circle fill="#252B03" cx="111.508" cy="27.657" r="2.393"/>
			<path opacity="0.13" fill="#FFFFFF" enable-background="new    " d="M111.916,28.056c0.797-0.174,1.366-0.818,1.458-1.561
				c-0.484-0.755-1.404-1.167-2.332-0.964c-0.579,0.127-1.054,0.47-1.361,0.926c0.006,0.082,0.018,0.165,0.036,0.249
				C109.928,27.671,110.913,28.275,111.916,28.056z"/>
		</g>
		<path fill="#EDC6AB" d="M132.192,22.671c0,0,3.572-0.765,4.083,2.446c0.512,3.209-4.019,3.156-4.019,3.156L132.192,22.671z"/>
		<path fill="#EDC6AB" d="M103.577,27.229c0,0-3.633,0.382-3.122,3.592c0.512,3.209,4.801,1.752,4.801,1.752L103.577,27.229z"/>
		<path fill="#914A16" d="M129.547,10.974c-3.567-3.89-7.472-5.437-14.528-4.332c-7.056,1.105-13.438,5.049-13.919,10.75
			c-0.367,4.361,0.495,10.257,0.495,10.257l3.35,0.922c0,0-2.124-8.636,0.072-12.12c0.33-0.524,0.801-1.019,1.363-1.483
			c-0.724,3.051,0.207,6.994,0.207,6.994l20.565-3.221c0,0-0.105-1.926-1.291-5.338c-0.221-0.635-0.466-1.179-0.719-1.644
			c1.275,0.766,2.928,2.009,3.923,3.738c1.797,3.12,2.337,9.493,2.337,9.493l2.04-2.385
			C133.44,22.605,133.114,14.863,129.547,10.974z"/>
		<path fill="#914A16" d="M125.14,11.76c0,0,1.677,2.537,2.258,4.849c0.583,2.313,0.535,3.411,0.535,3.411l2.299,1.022
			c0,0,0.554-0.616-0.488-4.073c-1.041-3.458-2.436-5.548-2.436-5.548L125.14,11.76z"/>
		<path fill="#914A16" d="M106.769,14.637c0,0-0.82,2.927-0.668,5.308c0.154,2.381,0.535,3.411,0.535,3.411l-1.876,1.676
			c0,0-0.716-0.416-0.782-4.026c-0.065-3.611,0.625-6.028,0.625-6.028L106.769,14.637z"/>
		<circle fill="#FFFFFF" cx="127.15" cy="24.477" r="0.703"/>
		<circle fill="#FFFFFF" cx="125.013" cy="26.822" r="0.319"/>
		<circle fill="#FFFFFF" cx="112.688" cy="26.652" r="0.703"/>
		<circle fill="#FFFFFF" cx="110.551" cy="28.998" r="0.319"/>
		<path fill="#914A16" d="M127.118,20.106c-0.459-0.567-1.454-0.778-2.148-0.854c-0.887-0.096-1.684,0.074-2.549,0.214
			c-0.728,0.119-0.388,1.214,0.211,0.927c0.669-0.322,1.517-0.365,2.247-0.337c0.372,0.014,0.74,0.041,1.107,0.106
			c0.353,0.062,0.676,0.172,1.039,0.145C127.118,20.299,127.178,20.181,127.118,20.106z"/>
		<path fill="#914A16" d="M107.374,23.319c0.257-0.682,1.136-1.196,1.771-1.485c0.811-0.369,1.622-0.459,2.487-0.599
			c0.728-0.117,0.749,1.031,0.09,0.946c-0.736-0.096-1.555,0.131-2.239,0.386c-0.348,0.129-0.69,0.271-1.018,0.449
			c-0.315,0.17-0.588,0.376-0.939,0.464C107.436,23.503,107.339,23.411,107.374,23.319z"/>
		<g>
			
				<rect x="119.495" y="4.19" transform="matrix(-0.9914 -0.1311 0.1311 -0.9914 239.5841 26.748)" fill="#B72018" width="2.354" height="2.598"/>
			<path fill="#F44437" d="M122.008,4.354l2.761-1.369c0.541-0.268,1.162,0.176,1.083,0.774l-0.691,5.224
				c-0.085,0.64-0.881,0.885-1.311,0.402l-2.184-2.455L122.008,4.354z"/>
			<path fill="#F44437" d="M119.674,4.045l-2.31-2.039c-0.454-0.4-1.168-0.132-1.247,0.466l-0.691,5.224
				c-0.084,0.64,0.622,1.083,1.162,0.729l2.746-1.803L119.674,4.045z"/>
		</g>
	</g>
	<path fill="#EDC6AB" d="M135.272,48.729c0,0,3.289,1.82,3.639,1.521c0.348-0.299,3.09-4.188,3.09-4.537
		c0-0.349-0.398-2.393,0-3.115c0.399-0.723,0.548-1.271,0.624-1.62c0.074-0.349,0.424-0.524,0.697,0
		c0.274,0.523-0.133,1.54,0.111,1.981c0.648,1.17,0.113,1.508,0.636,1.682c0.524,0.175,1.87-0.599,2.567,0.648
		c0.698,1.246,0.772,4.237-0.299,4.336s-1.395,0.499-1.695,0.946c-0.298,0.45-1.62,3.39-2.792,4.91
		c-1.17,1.521-1.371,1.745-2.467,1.57c-1.096-0.174-4.561-1.495-5.931-2.767S135.272,48.729,135.272,48.729z"/>
	<path fill="#F7D2E1" d="M133.394,46.795c0,0,2.639,1.407,2.814,1.654c0.176,0.246-1.513,1.934-1.935,3.062
		c-0.422,1.125,0.07,3.12-0.176,3.459c-0.246,0.341-3.343-0.574-3.483-0.856c-0.142-0.281-0.142-3.236,0.704-4.784
		C132.162,47.781,133.394,46.795,133.394,46.795z"/>
	<path fill="#AF487C" d="M124.237,41.62l2.225,0.742c0,0,1.83,2.111,2.779,8.374c0.95,6.263,0.528,11.259,0.528,11.259
		s-2.216,1.304-7.002,1.76c-4.784,0.458-8.444-0.281-8.444-0.281l-2.392-19.725l0.349-1.109l2.558-0.634
		c0,0,3.954,3.382,7.155,2.502S124.237,41.62,124.237,41.62z"/>
	<path fill="#F7D2E1" d="M116.68,41.694c0,0,1.115,1.442,2.651,2.041c1.536,0.599,3.542,0.071,3.894-0.598
		c0.351-0.668,0.21-1.724,0.21-1.724s2.111,0.282,2.393,1.759c0.282,1.478-0.845,2.393-1.83,2.358s-2.005-1.021-2.005-1.021
		s-0.458,2.463-3.729,1.231c-3.272-1.231-3.66-3.695-3.66-3.695L116.68,41.694z"/>
	<path fill="#EAA711" d="M104.946,86.309c0,0,1.688-2.515,6.28-2.728c4.593-0.21,5.279,3.748,4.117,5.912
		c-1.161,2.164-4.327,3.222-8.229,2.534C100.817,90.914,104.946,86.309,104.946,86.309z"/>
	<polygon fill="#FFCE43" points="114.868,86.591 121.571,84.638 121.799,85.798 114.868,87.435 	"/>
	<polygon fill="#FFCE43" points="115.238,88.175 121.307,89.44 120.896,90.812 114.868,88.755 	"/>
	<polygon fill="#FFCE43" points="114.396,89.704 119.513,92.235 118.681,93.294 113.968,90.127 	"/>
	<polygon fill="#FFCE43" points="112.863,90.812 116.74,95.88 115.839,96.513 112.282,91.129 	"/>
	<polygon fill="#FFCE43" points="111.332,91.129 112.282,96.724 111.332,96.935 110.751,91.129 	"/>
	<polygon fill="#FFCE43" points="109.728,91.129 107.585,96.038 106.529,95.722 108.852,91.129 	"/>
	<polygon fill="#FFCE43" points="108.128,90.812 104.84,96.935 103.617,96.513 107.585,90.812 	"/>
	<polygon fill="#FFCE43" points="106.529,90.812 101.093,94.966 99.246,94.033 105.873,90.391 	"/>
	<polygon fill="#FFCE43" points="104.999,90.127 98.718,91.129 98.718,90.391 104.735,89.493 	"/>
	<polygon fill="#FFCE43" points="104.576,88.965 97.77,87.905 98.718,86.801 104.999,88.175 	"/>
	<polygon fill="#FFCE43" points="104.999,87.224 99.774,86.309 100.143,85.43 105.368,86.801 	"/>
	<polygon fill="#FFCE43" points="105.368,86.037 100.987,82.896 101.858,82.063 106.107,86.027 	"/>
	<polygon fill="#FFCE43" points="106.529,85.43 104.999,81.312 106.107,81.049 107.115,85.641 	"/>
	<polygon fill="#FFCE43" points="108.128,84.638 107.115,79.67 108.128,79.67 108.799,85.112 	"/>
	<polygon fill="#FFCE43" points="113.968,85.641 119.513,82.896 118.087,82.392 113.609,85.112 	"/>
	<path fill="#C67D9E" d="M109.254,56.296c0,0-0.948-6.511-0.631-8.937c0.315-2.429,2.991-4.61,4.011-4.715
		c1.02-0.105,2.744,1.971,3.447,6.333c0.705,4.363,0.353,7.601,0.353,7.601L109.254,56.296z"/>
	<path fill="#EDC6AB" d="M115.946,57.51c0,0,0.814,4.278,0.968,6.47c0.152,2.188-0.069,12.121,0.237,13.004
		c0.306,0.882,1.485,3.006,1.485,3.742c0,0.74-0.127,1.938,0,2.421c0.127,0.483,0,1.248-0.636,0.917
		c-0.637-0.331-0.535-1.452-0.917-2.216c-0.383-0.764-1.503-0.662-1.707-0.229c-0.204,0.434-1.188,2.02-1.876,3.243
		c-0.688,1.222-1.35,2.241-1.885,1.858c-0.534-0.382,0.612-3.641,0.612-3.641s-0.916,2.801-1.069,2.801
		c-0.153,0-0.892,0.177-0.765-1.019c0.128-1.198,0.179-1.553,0.179-1.553s-0.332,1.603-0.509,1.577s-0.662-0.152-0.637-1.171
		c0.026-1.02-0.001-1.248-0.001-1.248s-0.382-0.204,0-1.503c0.383-1.298,2.878-3.77,2.853-5.297
		c-0.026-1.528-1.247-8.556-1.731-12.021c-0.484-3.464-0.866-5.704-0.866-5.704L115.946,57.51z"/>
	<path fill="#F7D2E1" d="M107.708,55.697c0,0,0.996,3.113,1.546,3.062c0.552-0.051,5.048,0.039,5.949-0.176
		c0.9-0.215,1.231,0,1.477-0.353c0.247-0.352,0.211-3.166,0-3.166s-2.076-0.212-4.961,0
		C108.834,55.274,107.708,55.697,107.708,55.697z"/>
	<path fill="#FFD8BD" d="M150.175,43.649c0,0,0.441-0.713,0.286-1.346c-0.155-0.634-2.014-0.816-2.86-0.589s-3.354,0.59-3.662,1.583
		c-0.308,0.991,1.197,0.99,2.317,0.758c1.121-0.231,1.327-0.176,1.327-0.176s-2.482,0.458-3.112,0.796
		c-0.628,0.339-0.583,1.198-0.022,1.378c0.562,0.182,1.382,0.062,1.382,0.062s-1.08,0.271-1.133,0.551
		c-0.055,0.281,0.062,0.802,0.942,0.924c0.877,0.122,0.877,0.122,0.877,0.122s-0.968,0.159-1.098,0.328
		c-0.129,0.169-0.508,0.769,0.348,1.193c0.854,0.421,3.724,1.139,4.556,0.367c0.833-0.774,0.321-1.535,0.321-1.535
		s2.992-0.51,3.021-1.294c0.03-0.784-3.194-0.873-3.194-0.873s0.698-0.469,0.524-1.196
		C150.821,43.979,150.175,43.649,150.175,43.649z"/>
	<circle fill="#F7D2E1" cx="122.639" cy="46.925" r="0.84"/>
	<circle fill="#F7D2E1" cx="123.228" cy="49.88" r="0.839"/>
	<polygon fill="#FFFFFF" points="143.686,38.404 148.963,38.615 148.857,41.359 143.509,41.148 	"/>
</g>
<g>
	<path fill="#AF487C" d="M161.689,39.602l0.118,0.005l-0.044,1.116l0.598,0.023l-0.005,0.122l-0.716-0.028L161.689,39.602z"/>
	<path fill="#AF487C" d="M162.674,39.64l0.121,0.004l-0.049,1.239l-0.119-0.004L162.674,39.64z"/>
	<path fill="#AF487C" d="M163.552,39.673l0.119,0.004l-0.032,0.873c-0.006,0.113-0.039,0.205-0.1,0.277
		c-0.061,0.071-0.143,0.105-0.245,0.102c-0.067-0.003-0.127-0.021-0.175-0.055c-0.047-0.033-0.089-0.08-0.124-0.141l0.104-0.054
		c0.052,0.083,0.118,0.127,0.2,0.129c0.058,0.003,0.107-0.018,0.149-0.063c0.043-0.045,0.065-0.111,0.068-0.2L163.552,39.673z"/>
	<path fill="#AF487C" d="M164.02,39.69l0.202,0.008l0.324,1.012l0.396-0.984l0.203,0.008l-0.047,1.239l-0.118-0.005l0.043-1.126
		l-0.453,1.111l-0.071-0.003l-0.363-1.141l-0.044,1.126l-0.12-0.004L164.02,39.69z"/>
</g>
<g>
	<g>
		<g>
			<path fill="#388B31" d="M59.169,56.91l-1.291-1.037l-16.854,2.725l0.924,4.104c-0.977,0.68-2.82,2.164-4.432,4.58
				c0,0,1.618,6.057,8.854,7.553c0,0,1.618-2.901,2.253-4.136c0.636-1.235,2.49-1.412,3.371-0.635
				c0.881,0.775,2.662,1.948,2.662,1.948s7.075,0.77,8.888-6.58C63.544,65.432,60.649,58.336,59.169,56.91z"/>
			<path fill="#204F1C" d="M37.516,67.281c0,0,1.503-0.79,5.244,2.113c3.739,2.906,3.828,4.984,3.61,5.439
				C46.37,74.834,39.554,73.855,37.516,67.281z"/>
			<g>
				<path fill="#EECFAF" d="M44.844,71.308c0,0-4.202,4.588-6.98,11.154c-2.777,6.564-2.431,10.988-5.502,11.407
					c-3.071,0.417-0.75-12.269,0.096-15.798c0.846-3.528,4.103-9.489,5.059-10.79C37.516,67.281,39.601,66.044,44.844,71.308z"/>
				<path fill="#BADBC4" d="M35.157,84.497c-1.256-0.779-2.623-1-3.798-0.563c-0.7,4.749-1.03,10.211,1.003,9.936
					c2.519-0.344,2.74-3.381,4.27-8.082C36.226,85.295,35.741,84.859,35.157,84.497z"/>
				<path fill="#1D8ED4" d="M33.012,88.453c-0.623-0.016-1.625,0.006-2.103,0.472c-0.024,0.023-0.044,0.049-0.066,0.072
					c-0.117,2.854,0.212,5.049,1.519,4.872c1.703-0.233,2.357-1.704,3.075-4.084C34.881,89.005,34.075,88.482,33.012,88.453z"/>
				<path fill="#1D8ED4" d="M33.708,89.389c-0.082-0.306-0.831-0.248-1.044-0.244c-0.501,0.011-1.001,0.062-1.472,0.24
					c-0.315,0.12-0.25,0.351-0.248,0.642c0.001,0.057,0.086,0.078,0.11,0.023c0.02-0.04,0.037-0.081,0.052-0.123
					c0.015-0.087,0.105-0.261,0.017-0.235c0.357-0.102,0.699-0.195,1.077-0.219c0.37-0.021,0.734-0.041,1.099,0.026
					c0.251,0.046,0.106,0.906,0.102,1.075c-0.001,0.059,0.095,0.084,0.117,0.026C33.655,90.238,33.812,89.775,33.708,89.389z"/>
			</g>
			<g>
				<path fill="#EAB991" d="M56.937,71.878c0,0,3.406,4.438,9.839,8.2c6.434,3.762,10.096,3.25,10.246,2.242
					c0.238-1.612-4.408-3.657-8.333-8.206c-3.925-4.549-5.667-7.088-5.667-7.088S61.847,70.937,56.937,71.878z"/>
				<path fill="#BADBC4" d="M70.662,76.167c0,0-0.196,1.077-0.846,1.954c-0.842,1.138-1.733,1.719-3.235,1.841
					c0.065,0.038,0.128,0.078,0.194,0.116c6.434,3.762,10.096,3.251,10.246,2.242C77.221,80.973,74.012,79.324,70.662,76.167z"/>
				<path fill="#1D8ED4" d="M73.771,78.807c-0.094,1.485-1.582,2.671-3.114,3.19c4.01,1.588,6.247,1.105,6.364,0.323
					C77.156,81.411,75.737,80.362,73.771,78.807z"/>
				<path fill="#1D8ED4" d="M74.884,81.191c-0.384-0.253-0.928-0.543-1.378-0.331c-0.482,0.229-0.938,0.97-1.125,1.446
					c-0.026,0.067,0.061,0.116,0.101,0.054c0.248-0.392,0.542-0.737,0.865-1.065c0.419-0.428,1.012-0.061,1.5-0.005
					C74.907,81.297,74.936,81.226,74.884,81.191z"/>
			</g>
		</g>
	</g>
	<g>
		<g>
			<circle fill="#EAEAEA" cx="25.973" cy="78.366" r="9.492"/>
			<path d="M22.156,73.386l-3.369,2.095c0,0-0.092,4.61,0.015,4.591c0.108-0.017,5.033-0.014,5.033-0.014l1.215-3.581L22.156,73.386
				z"/>
			<g>
				<path d="M29.155,75.733c0,0,2.259,4.151,2.36,4.098c0.081-0.042,2.784-0.536,3.922-0.743c0.056-0.737,0.028-1.492-0.097-2.253
					c-0.194-1.188-0.603-2.285-1.177-3.266l-4.045-1.155L29.155,75.733z"/>
				<path d="M27.821,69.593l0.31-0.471c-1.176-0.275-2.423-0.331-3.689-0.123c-0.715,0.116-1.397,0.313-2.041,0.573l0.773,0.596
					L27.821,69.593z"/>
				<path d="M25.524,83.42l-1.96,3.298L23.76,87.6c1.192,0.286,2.459,0.346,3.746,0.136c1.605-0.263,3.049-0.914,4.252-1.841
					l-1.863-2.27L25.524,83.42z"/>
			</g>
			<g>
				<g>
					<path fill="#BEC0BD" d="M18.791,79.965c0,0-0.081,0.138-0.224,0.324c-0.142,0.189-0.343,0.428-0.558,0.654
						c-0.215,0.226-0.443,0.44-0.624,0.592c-0.179,0.153-0.312,0.242-0.312,0.242s0.082-0.138,0.224-0.325
						c0.142-0.188,0.344-0.427,0.558-0.653c0.215-0.226,0.443-0.441,0.623-0.592C18.658,80.055,18.791,79.965,18.791,79.965z"/>
					<path fill="#BEC0BD" d="M17.445,74.196c0,0,0.108,0.056,0.251,0.158c0.145,0.102,0.324,0.249,0.492,0.408
						c0.167,0.16,0.323,0.335,0.43,0.474c0.109,0.139,0.168,0.244,0.168,0.244s-0.109-0.055-0.252-0.157
						c-0.144-0.101-0.324-0.249-0.492-0.408c-0.167-0.161-0.322-0.334-0.429-0.474C17.505,74.303,17.445,74.196,17.445,74.196z"/>
					<path fill="#BEC0BD" d="M22.156,73.386c0,0,0.007-0.052,0.025-0.145c0.019-0.09,0.041-0.221,0.077-0.376
						c0.07-0.311,0.181-0.718,0.307-1.12c0.128-0.401,0.271-0.799,0.393-1.092c0.059-0.147,0.117-0.269,0.153-0.353
						c0.039-0.085,0.064-0.133,0.064-0.133s-0.007,0.054-0.024,0.145c-0.019,0.091-0.041,0.223-0.077,0.378
						c-0.07,0.31-0.181,0.717-0.307,1.119c-0.128,0.401-0.272,0.799-0.393,1.091c-0.059,0.148-0.118,0.269-0.153,0.354
						C22.181,73.339,22.156,73.386,22.156,73.386z"/>
				</g>
				<path fill="#BEC0BD" d="M27.821,69.593c0,0,0.042,0.039,0.114,0.109c0.07,0.07,0.174,0.169,0.292,0.295
					c0.237,0.246,0.537,0.589,0.825,0.941c0.287,0.353,0.561,0.715,0.756,0.998c0.098,0.139,0.174,0.262,0.229,0.344
					c0.055,0.084,0.083,0.135,0.083,0.135s-0.043-0.039-0.115-0.108c-0.069-0.071-0.174-0.17-0.291-0.295
					c-0.236-0.247-0.537-0.589-0.825-0.94c-0.287-0.354-0.561-0.718-0.756-1c-0.098-0.139-0.173-0.262-0.229-0.344
					C27.849,69.643,27.821,69.593,27.821,69.593z"/>
				<path fill="#BEC0BD" d="M25.05,76.478c0,0,0.062-0.021,0.173-0.052c0.11-0.028,0.268-0.076,0.458-0.123
					c0.38-0.097,0.891-0.207,1.403-0.301c0.513-0.093,1.03-0.168,1.419-0.212c0.194-0.022,0.358-0.034,0.472-0.045
					c0.114-0.01,0.18-0.012,0.18-0.012s-0.062,0.02-0.173,0.053c-0.11,0.029-0.267,0.075-0.458,0.123
					c-0.38,0.096-0.891,0.205-1.403,0.3c-0.513,0.093-1.03,0.167-1.42,0.212c-0.194,0.022-0.358,0.033-0.472,0.045
					C25.116,76.476,25.05,76.478,25.05,76.478z"/>
				<path fill="#BEC0BD" d="M23.835,80.058c0,0,0.035,0.049,0.09,0.136c0.055,0.088,0.138,0.211,0.228,0.363
					c0.182,0.303,0.409,0.715,0.62,1.136c0.211,0.42,0.407,0.849,0.542,1.175c0.068,0.164,0.117,0.304,0.155,0.399
					c0.037,0.098,0.055,0.153,0.055,0.153s-0.035-0.049-0.091-0.135c-0.055-0.088-0.138-0.212-0.228-0.363
					c-0.182-0.304-0.409-0.716-0.62-1.136c-0.211-0.42-0.406-0.85-0.541-1.177c-0.068-0.162-0.117-0.302-0.155-0.398
					C23.853,80.115,23.835,80.058,23.835,80.058z"/>
				<path fill="#BEC0BD" d="M29.894,83.625c0,0,0.017-0.064,0.052-0.171c0.036-0.109,0.082-0.264,0.147-0.446
					c0.127-0.366,0.314-0.847,0.516-1.321c0.203-0.474,0.421-0.941,0.598-1.286c0.087-0.173,0.168-0.314,0.221-0.414
					c0.054-0.099,0.088-0.154,0.088-0.154s-0.017,0.062-0.05,0.17c-0.037,0.108-0.083,0.264-0.147,0.446
					c-0.128,0.366-0.314,0.847-0.517,1.321c-0.203,0.474-0.422,0.941-0.598,1.285c-0.087,0.174-0.167,0.313-0.22,0.414
					C29.928,83.568,29.894,83.625,29.894,83.625z"/>
				<path fill="#BEC0BD" d="M23.457,86.8c0,0-0.09,0.04-0.227,0.074c-0.136,0.036-0.319,0.066-0.504,0.079
					c-0.184,0.013-0.37,0.007-0.511-0.011c-0.139-0.015-0.235-0.044-0.235-0.044s0.09-0.041,0.227-0.077
					c0.137-0.034,0.32-0.064,0.504-0.078c0.185-0.011,0.371-0.006,0.511,0.012C23.362,86.771,23.457,86.8,23.457,86.8z"/>
			</g>
		</g>
	</g>
	<g>
		<path fill="#EECFAF" d="M62.864,46.677c0,0,10.302-0.332,15.816,4.449c-0.762,1.634-0.729,3.37,0.94,3.758
			c0.845,1.388,2.882,2.139,3.506,1.144c1.702-0.713,3.102-1.683,2.673-3.733c-0.429-2.05-2.89-4.122-5.328-2.551
			c-1.902-2.646-8.683-8.353-17.68-9.05L62.864,46.677z"/>
		<g>
			<path fill="#AE805A" d="M79.621,54.884c0,0,0.044-0.133,0.072-0.325c0.017-0.096,0.023-0.207,0.021-0.322
				c-0.004-0.116-0.021-0.237-0.055-0.354c-0.014-0.059-0.04-0.114-0.059-0.171c-0.03-0.053-0.051-0.109-0.079-0.161
				c-0.033-0.049-0.062-0.098-0.09-0.145c-0.033-0.045-0.064-0.088-0.093-0.127c-0.055-0.082-0.115-0.14-0.15-0.188
				c-0.037-0.047-0.058-0.076-0.058-0.076s0.032,0.013,0.086,0.04c0.052,0.029,0.136,0.061,0.216,0.13
				c0.041,0.032,0.089,0.066,0.132,0.108c0.042,0.045,0.085,0.092,0.128,0.145c0.038,0.056,0.078,0.115,0.112,0.178
				c0.025,0.066,0.059,0.132,0.079,0.202c0.015,0.072,0.034,0.145,0.038,0.217c0.01,0.071,0.002,0.143-0.002,0.211
				c-0.017,0.134-0.051,0.256-0.098,0.353C79.733,54.792,79.621,54.884,79.621,54.884z"/>
			<path fill="#AE805A" d="M83.005,54.574c0,0,0.074,0.089,0.139,0.244c0.032,0.078,0.065,0.172,0.087,0.276
				c0.024,0.102,0.034,0.214,0.038,0.329c-0.003,0.114-0.014,0.23-0.043,0.334c-0.027,0.105-0.069,0.2-0.114,0.273
				c-0.048,0.074-0.095,0.13-0.134,0.16c-0.039,0.034-0.061,0.051-0.061,0.051s0.007-0.028,0.022-0.075
				c0.018-0.045,0.03-0.111,0.049-0.187c0.008-0.037,0.012-0.08,0.022-0.123c0.008-0.042,0.007-0.088,0.016-0.135
				c0.006-0.095,0.014-0.195,0.011-0.299c0-0.103-0.004-0.205-0.008-0.303c-0.006-0.1-0.01-0.192-0.014-0.271
				C83.005,54.688,83.005,54.574,83.005,54.574z"/>
		</g>
	</g>
	<g>
		<path fill="#EECFAF" d="M34.451,43.186c0,0-7.021,0.223-9.153-5.65c1.245-1.326,2.539-2.439,1.614-3.156
			c-0.328-2.544-1.82-3.524-4.21-3.146c-2.391,0.379-3.248,3.643-1.931,5.339c1.317,1.697,2.639,1.198,2.639,1.198
			s0.049,4.887,2.684,7.549c2.636,2.663,6.796,3.99,9.477,2.786L34.451,43.186z"/>
		<g>
			<path fill="#AE805A" d="M27.015,34.375c-0.27-0.109-0.54-0.218-0.814-0.312c-0.274-0.095-0.549-0.188-0.827-0.261
				c-0.14-0.035-0.279-0.07-0.42-0.094c-0.069-0.016-0.14-0.027-0.21-0.038c-0.071-0.008-0.141-0.024-0.21-0.025
				c-0.07-0.004-0.14-0.012-0.209-0.013l-0.207,0.007l-0.197,0.033c-0.061,0.02-0.119,0.045-0.18,0.066l0.008-0.005l-0.106,0.081
				c-0.026,0.032-0.064,0.058-0.081,0.091l-0.032,0.049l-0.018,0.051c-0.013,0.034-0.013,0.069-0.011,0.104l0.009,0.055l0.022,0.055
				c0.01,0.038,0.043,0.072,0.062,0.109c0.054,0.068,0.12,0.132,0.192,0.19c0.075,0.057,0.152,0.112,0.235,0.161
				c0.041,0.025,0.085,0.045,0.127,0.069c0.042,0.023,0.086,0.044,0.131,0.063c0.176,0.083,0.363,0.149,0.55,0.211l0.164,0.055
				l-0.14,0.099c-0.058,0.042-0.122,0.078-0.177,0.125c-0.056,0.045-0.112,0.09-0.16,0.145c-0.103,0.103-0.187,0.224-0.258,0.351
				c-0.148,0.254-0.228,0.551-0.245,0.853c-0.017-0.151-0.01-0.305,0.015-0.457c0.025-0.151,0.07-0.301,0.133-0.443
				c0.028-0.074,0.07-0.14,0.109-0.208c0.046-0.063,0.087-0.131,0.141-0.188c0.049-0.063,0.106-0.117,0.164-0.171
				c0.057-0.056,0.123-0.099,0.185-0.149l0.024,0.154c-0.198-0.053-0.396-0.105-0.586-0.189c-0.048-0.019-0.096-0.04-0.143-0.063
				c-0.046-0.023-0.094-0.042-0.139-0.07c-0.093-0.05-0.182-0.105-0.268-0.17c-0.085-0.067-0.166-0.142-0.236-0.23
				c-0.03-0.051-0.069-0.092-0.089-0.151c-0.012-0.028-0.024-0.056-0.035-0.085l-0.017-0.094C23.267,34.07,23.269,34,23.289,33.94
				c0.01-0.03,0.02-0.062,0.033-0.091l0.05-0.078c0.032-0.055,0.079-0.087,0.12-0.131c0.044-0.036,0.09-0.067,0.136-0.1l0.004-0.003
				l0.004-0.002c0.077-0.028,0.153-0.061,0.23-0.083l0.233-0.037l0.231-0.002c0.076,0.004,0.15,0.014,0.225,0.021
				c0.076,0.004,0.148,0.023,0.222,0.035c0.074,0.013,0.148,0.027,0.219,0.046c0.144,0.036,0.285,0.08,0.425,0.126
				C25.979,33.83,26.513,34.076,27.015,34.375z"/>
		</g>
	</g>
	<path fill="#FABF05" d="M57.917,47.536C61.027,47.838,63,47.977,63,47.977s0.921-4.645,0.039-7.948
		c-6.482-1.387-12.132-1.909-15.447-1.446c0,0,0.09,0.817,0.023,2.62c-0.066,1.805-1.916,1.921-2.769,1.528
		c-0.853-0.394-1.136-3.373-1.136-3.373s-0.694,0.167-2.001,1.099c-1.306,0.933-4.653,2.269-7.593,1.97
		c0.007,2.89,1.827,7.056,1.827,7.056l4.194-1.045c0,0-1.632,6.772,0.681,13.216c6.919,3.569,14.832,0.408,20.325-3.635
		C58.765,53.158,57.833,49.202,57.917,47.536z"/>
	<path fill="#EAB991" d="M44.847,42.731c0.853,0.393,2.702,0.276,2.769-1.528c0.067-1.803-0.023-2.62-0.023-2.62
		c-0.258-0.574-0.258-0.574-0.258-0.574l-3.76,0.416l0.136,0.934C43.71,39.358,43.994,42.337,44.847,42.731z"/>
	<g>
		<path fill="#DCB791" d="M30.549,28.364c0,0-0.297-1.578-1.887-1.206c-1.589,0.373-2.593,2.443-1.422,4.077
			c1.034,1.268,2.235,1.182,2.695,0.676C30.395,31.407,30.549,28.364,30.549,28.364z"/>
		<g>
			<path fill="#AE805A" d="M29.424,29.254c-0.043-0.073-0.086-0.146-0.132-0.212c-0.287-0.42-0.919-0.674-1.354-0.292
				c-0.305,0.268-0.397,0.601-0.344,0.974c0.023-0.229,0.104-0.452,0.253-0.613c0.294-0.316,0.734-0.316,1.036-0.005
				c0.262,0.273,0.269,0.76-0.005,1.02c-0.052,0.075-0.119,0.138-0.194,0.163c-0.053,0.018-0.111,0.021-0.172,0.015
				c-0.169,0.026-0.328-0.025-0.454-0.141c0.099,0.336,0.473,0.543,0.811,0.441c0.175-0.053,0.332-0.188,0.451-0.354
				c0.069,0.39,0.011,0.796-0.3,1.056c-0.01,0.008-0.02,0.021-0.026,0.033c0.258-0.051,0.506-0.555,0.559-0.737
				C29.689,30.135,29.559,29.7,29.424,29.254z"/>
		</g>
		<g>
			<path fill="#204F1C" d="M69.828,27.908c-2.525,0.133-7.67-1.352-9.437-1.89l-0.002,0.654c0,0,11.779,3.983,12.175,0.442
				c0.052-0.465-0.005-0.914-0.149-1.345C72.568,26.687,72.554,27.765,69.828,27.908z"/>
			<path fill="#388B31" d="M60.417,18.769l-0.025,7.25c1.766,0.538,6.912,2.023,9.437,1.89c2.727-0.144,2.741-1.221,2.587-2.139
				C70.958,21.389,60.417,18.769,60.417,18.769z"/>
		</g>
		<g>
			<path fill="#EECFAF" d="M58.667,25.063c-1.248-0.19-2.111,1.162-2.111,1.162s-0.434,2.32-0.691,2.117
				c-0.977-0.889-3.021-6.059-3.021-6.059s0.523,2.375-0.273,2.196c-0.797-0.18-3.538-3.067-3.538-3.067s1.262,2.545-0.384,2.532
				c-1.646-0.014-5.274-3.271-5.274-3.271s0.799,2.888-0.05,3.053c-0.85,0.166-2.81-1.662-4.612-3.759
				c-1.583,2.292-4.594,3.896-5.001,3.481c-0.408-0.416,0.119-2.337,0.119-2.337s-2.459,2.63-4.29,3.88c0,0,1.283,3.141,0.474,5.884
				c-0.808,2.742-1.15,4.221,2.433,6.216c3.583,1.995,9.16,4.568,15.133,2.058c5.974-2.509,8.263-5.577,8.705-8.101
				c-0.011,0.061,0.538,0.364,0.607,0.403c0.191,0.109,0.393,0.204,0.607,0.259c0.379,0.098,0.76,0.054,1.11-0.119
				c0.818-0.405,1.615-1.281,1.984-2.104c0.139-0.308,0.22-0.635,0.254-0.97c0.03-0.296,0.083-0.602,0.04-0.899
				c-0.045-0.317-0.214-0.621-0.353-0.906c-0.23-0.47-0.503-0.969-0.937-1.283C59.337,25.24,58.984,25.111,58.667,25.063z"/>
		</g>
		<path fill="#7D4C20" d="M60.714,19.296c0,0-4.15-1.748-12.199-3.025c-15.447-1.399-21.025,3.283-21.025,3.283
			s-3.197,3.849-3.458,5.563c-0.087,0.64,0.715,1.534,4.399-2.382c-0.526,1.333-0.575,2.404-0.336,2.574
			c0.466,0.327,1.444-0.319,1.444-0.319c1.83-1.25,4.29-3.88,4.29-3.88s-0.527,1.921-0.119,2.337
			c0.408,0.415,3.418-1.189,5.001-3.481c1.802,2.098,3.762,3.925,4.612,3.76c0.849-0.166,0.05-3.053,0.05-3.053
			s3.628,3.257,5.274,3.271s0.384-2.532,0.384-2.532s2.741,2.888,3.538,3.067s0.273-2.196,0.273-2.196s2.044,5.17,3.021,6.059
			c0.257,0.203,0.691-2.117,0.691-2.117s0.863-1.352,2.111-1.162c1.247,0.188,1.675,1.203,2.087,2.128c0,0,1.261-0.164-0.218-2.448
			c1.857,1.341,2.017,1.071,2.068,0.726c0.053-0.345-0.684-2.869-1.73-3.735c2.272,0.933,2.644,0.812,2.887,0.378
			C64.003,21.678,60.714,19.296,60.714,19.296z"/>
		<path fill="#69AA27" d="M43.616,3.333c2.346,1.167,5.81,4.367,5.795,13.085c7.459,1.261,11.303,2.878,11.303,2.878
			S61.115,4.664,43.616,3.333z"/>
		<g>
			<path fill="#69AA27" d="M38.349,3.547C28.8,5.216,26.688,13.889,27.49,19.554c0,0,0.661-0.556,2.16-1.226
				C29.419,15.757,29.293,6.709,38.349,3.547z"/>
			<path fill="#388B31" d="M49.412,16.418c0.014-8.719-3.45-11.919-5.795-13.085c-0.048-0.004-0.095-0.008-0.145-0.014
				c-1.907-0.127-3.608-0.037-5.123,0.228c-9.056,3.163-8.929,12.21-8.699,14.781c2.852-1.278,8.737-2.975,18.865-2.058
				C48.82,16.319,49.118,16.369,49.412,16.418z"/>
		</g>
		<path fill="#7D4C20" d="M31.295,16.076c0,0,5.724-1.252,9.592-1.138c0.113-4.633-2.743-5.596-5.009-5.409
			C33.613,9.714,31.283,12.659,31.295,16.076z"/>
		<g>
			<path fill="#312400" d="M42.264,27.555c0.38,1.208,0.247,2.326-0.299,2.497c-0.545,0.172-1.295-0.667-1.675-1.874
				c-0.38-1.208-0.246-2.326,0.298-2.498C41.133,25.508,41.883,26.349,42.264,27.555z"/>
			<path fill="#FFFFFF" d="M41.017,27.229c0.123,0.389,0.08,0.748-0.096,0.803c-0.175,0.055-0.417-0.215-0.539-0.604
				c-0.122-0.387-0.079-0.747,0.097-0.802C40.654,26.571,40.895,26.84,41.017,27.229z"/>
		</g>
		<g>
			<path fill="#312400" d="M33.196,30.268c0.048,1.071-0.306,1.957-0.791,1.979c-0.483,0.021-0.914-0.83-0.962-1.901
				c-0.048-1.071,0.306-1.958,0.79-1.979C32.717,28.345,33.148,29.196,33.196,30.268z"/>
			<path fill="#FFFFFF" d="M32.247,29.728c0.016,0.345-0.098,0.629-0.253,0.636c-0.155,0.006-0.294-0.266-0.309-0.611
				c-0.016-0.344,0.099-0.629,0.253-0.637C32.093,29.108,32.231,29.383,32.247,29.728z"/>
		</g>
		<g>
			<path fill="#AE805A" d="M34.158,31.958c0.935-0.603,1.739,0.612,1.739,0.612s-0.719-1.683-2.178-0.69
				c-1.458,0.994-0.013,2.953,2.08,2.235C33.784,34.5,32.941,32.742,34.158,31.958z"/>
		</g>
		<g>
			<path fill="#AE805A" d="M34.165,35.556c-0.052,0.052-0.111,0.096-0.168,0.142c-0.057,0.047-0.121,0.083-0.182,0.124
				c-0.062,0.043-0.127,0.077-0.194,0.107l-0.201,0.095l0.007-0.063l0.296,0.16l0.306,0.143c0.206,0.09,0.413,0.178,0.626,0.25
				l0.319,0.105c0.108,0.033,0.217,0.057,0.325,0.086c0.216,0.063,0.438,0.095,0.657,0.141c0.219,0.046,0.443,0.059,0.665,0.089
				c0.223,0.02,0.447,0.02,0.669,0.031c0.224-0.006,0.447-0.021,0.67-0.03l0.665-0.084c0.221-0.035,0.437-0.093,0.656-0.139
				c0.221-0.041,0.428-0.13,0.643-0.193c0.216-0.061,0.42-0.152,0.626-0.242c0.206-0.088,0.418-0.165,0.612-0.279l0.596-0.317
				l0.568-0.368c0.094-0.062,0.193-0.118,0.284-0.184l0.27-0.206l0.544-0.409l-0.508,0.454l-0.256,0.226
				c-0.087,0.073-0.181,0.138-0.273,0.207l-0.554,0.4l-0.591,0.348c-0.193,0.124-0.405,0.211-0.612,0.31
				c-0.209,0.095-0.417,0.192-0.637,0.258c-0.22,0.068-0.432,0.161-0.657,0.207c-0.224,0.05-0.446,0.111-0.672,0.151
				c-0.229,0.03-0.456,0.068-0.685,0.088c-0.23,0.006-0.46,0.019-0.689,0.021c-0.229-0.015-0.46-0.018-0.688-0.041
				c-0.227-0.036-0.457-0.051-0.681-0.102c-0.225-0.048-0.45-0.093-0.668-0.166c-0.109-0.035-0.22-0.065-0.328-0.103l-0.321-0.122
				c-0.213-0.082-0.42-0.181-0.625-0.281l-0.3-0.166l-0.29-0.183l-0.06-0.037l0.067-0.025l0.202-0.081
				c0.069-0.023,0.135-0.053,0.197-0.09c0.062-0.037,0.131-0.066,0.191-0.107C34.045,35.64,34.108,35.602,34.165,35.556z"/>
			<path fill="#AE805A" d="M42.68,33.99c0,0,0.1,0.085,0.251,0.189c0.075,0.053,0.165,0.109,0.262,0.162
				c0.099,0.054,0.205,0.105,0.315,0.146c0.108,0.046,0.223,0.076,0.331,0.106c0.056,0.012,0.108,0.024,0.159,0.035
				c0.051,0.012,0.101,0.015,0.146,0.025c0.091,0.018,0.169,0.023,0.225,0.033c0.056,0.009,0.088,0.015,0.088,0.015
				s-0.03,0.013-0.084,0.031c-0.054,0.016-0.132,0.046-0.23,0.054c-0.048,0.006-0.102,0.019-0.159,0.015
				c-0.057,0-0.117,0.002-0.179-0.005c-0.124-0.013-0.255-0.043-0.38-0.091c-0.125-0.052-0.244-0.113-0.343-0.191
				c-0.1-0.075-0.183-0.158-0.243-0.237C42.715,34.12,42.68,33.99,42.68,33.99z"/>
		</g>
		<g>
			<path fill="#AE805A" d="M57.686,27.58c0.057-0.087,0.115-0.172,0.175-0.25c0.378-0.491,1.164-0.755,1.667-0.262
				c0.353,0.347,0.442,0.757,0.353,1.21c-0.013-0.282-0.097-0.559-0.267-0.764c-0.335-0.405-0.872-0.435-1.258-0.076
				c-0.337,0.313-0.379,0.903-0.064,1.24c0.059,0.094,0.135,0.175,0.226,0.211c0.062,0.026,0.134,0.034,0.207,0.029
				c0.205,0.043,0.401-0.007,0.562-0.14c-0.144,0.401-0.611,0.628-1.015,0.48c-0.21-0.076-0.391-0.25-0.525-0.461
				c-0.109,0.47-0.067,0.966,0.294,1.303c0.012,0.013,0.022,0.026,0.03,0.044c-0.311-0.08-0.577-0.71-0.629-0.934
				C57.303,28.632,57.491,28.113,57.686,27.58z"/>
		</g>
		<path fill="#503214" d="M30.081,26.204c0,0,0.491-2.017,2.23,0.617C31.357,23.608,29.89,24.083,30.081,26.204z"/>
		<path fill="#503214" d="M37.677,26.262c0,0,0.403-2.356,2.292-2.86c1.888-0.503,3.048,1.346,3.048,1.346s-1.141-2.59-2.873-2.202
			C38.413,22.934,37.563,24.246,37.677,26.262z"/>
	</g>
	<g>
		<path fill="none" d="M43.611,38.681c-0.106,0.141-0.216,0.284-0.336,0.43c-0.172,0.209-0.335,0.431-0.49,0.66
			c0.607-0.335,0.925-0.413,0.925-0.413L43.611,38.681z"/>
		<path fill="#EC8A00" d="M42.785,39.771c-0.293,0.162-0.652,0.383-1.076,0.687c-1.306,0.933-4.653,2.269-7.593,1.97
			c0.007,2.89,1.826,7.056,1.826,7.056l4.195-1.045C40.137,48.438,40.517,43.147,42.785,39.771z"/>
		<path fill="#EAB991" d="M43.574,38.425l0.037,0.256c0.073-0.096,0.142-0.19,0.208-0.283L43.574,38.425z"/>
	</g>
	<g>
		<path fill="#EC8A00" d="M49.986,40.414c-0.268,2.504,3.588,5.759,7.931,7.122C61.027,47.837,63,47.977,63,47.977
			s0.921-4.645,0.039-7.948c-3.979-0.851-7.643-1.375-10.647-1.548C51.142,38.841,50.091,39.436,49.986,40.414z"/>
	</g>
</g>
</svg>
