<svg version="1.1" id="Layer_1" xmlns="http://www.w3.org/2000/svg" xmlns:xlink="http://www.w3.org/1999/xlink" viewBox="0 0 308 100" enable-background="new 0 0 308 100" xml:space="preserve">
<g>
	<g>
		<defs>
			<rect id="SVGID_1_" x="13.218" y="6.937" width="88.421" height="88.42"/>
		</defs>
		<clipPath id="SVGID_2_">
			<use xlink:href="#SVGID_1_"  overflow="visible"/>
		</clipPath>
		<path clip-path="url(#SVGID_2_)" fill="#538C1C" d="M85.243,29.855c0,0-5.318,9.974-6.407,11.909
			C73.032,54.274,71.4,56.089,62.152,85.466c-2.539,9.064-5.077,10.698-3.264-1.271C58.889,84.195,65.175,47.506,85.243,29.855"/>
	</g>
	<g>
		<defs>
			<rect id="SVGID_3_" x="13.218" y="6.937" width="88.421" height="88.42"/>
		</defs>
		<clipPath id="SVGID_4_">
			<use xlink:href="#SVGID_3_"  overflow="visible"/>
		</clipPath>
		<path clip-path="url(#SVGID_4_)" fill="#538C1C" d="M29.615,29.855c0,0,5.318,9.974,6.407,11.909
			c5.802,12.511,7.435,14.325,16.683,43.702c2.539,9.064,5.078,10.698,3.264-1.271C55.968,84.195,49.682,47.506,29.615,29.855"/>
	</g>
	<g>
		<defs>
			<rect id="SVGID_5_" x="13.218" y="6.937" width="88.421" height="88.42"/>
		</defs>
		<clipPath id="SVGID_6_">
			<use xlink:href="#SVGID_5_"  overflow="visible"/>
		</clipPath>
		<path clip-path="url(#SVGID_6_)" fill="#88238E" d="M66.626,12.447c-1.27-1.33-1.632,0-2.418,0.967l-4.956,7.677
			c0,0-0.908,1.752-0.967,3.324c-0.052,1.353-0.774,10.215-0.976,12.666c-0.201-2.451-0.923-11.313-0.976-12.666
			c-0.06-1.572-0.967-3.324-0.967-3.324l-4.957-7.677c-0.786-0.967-1.148-2.297-2.418-0.967c-2.539,2.056-7.615,9.43-0.604,19.947
			c7.012,10.517,8.1,33.125,8.584,37.355c0.336,2.949,0.908,3.607,1.224,3.735c0.001,0.004,0.001,0.012,0.001,0.012
			s0.042,0.021,0.112,0.016c0.07,0.006,0.113-0.016,0.113-0.016c0,0,0-0.008,0.001-0.012c0.316-0.128,0.888-0.786,1.225-3.735
			c0.483-4.23,1.571-26.838,8.583-37.355C74.243,21.876,69.165,14.502,66.626,12.447"/>
	</g>
	<g>
		<defs>
			<rect id="SVGID_7_" x="13.218" y="6.937" width="88.421" height="88.42"/>
		</defs>
		<clipPath id="SVGID_8_">
			<use xlink:href="#SVGID_7_"  overflow="visible"/>
		</clipPath>
		<path clip-path="url(#SVGID_8_)" fill="#FFCE00" d="M61.854,12.82c-0.816-0.952-2.648-3.244-4.546-3.244
			c-1.897,0-3.729,2.292-4.545,3.244c-0.349,0.407-0.461,0.889-0.412,1.402c0.066,0.688,0.408,1.497,1.224,2.244
			c2.334,2.108,3.732,6.528,3.732,6.528s1.399-4.42,3.734-6.528c0.816-0.748,1.157-1.556,1.224-2.244
			C62.316,13.709,62.203,13.227,61.854,12.82"/>
	</g>
</g>
<polygon fill="#5E9988" points="123.52,63.708 125.46,52.96 149.575,58.963 145.951,68.72 "/>
<polygon fill="#71B8A3" points="130.637,53.294 123.739,44.668 140.648,30.128 146.504,39.607 "/>
<path fill="#FAE9C7" d="M112.583,96.913c-16.988,0-30.76-12.268-30.76-27.4c0-15.135,13.771-27.402,30.76-27.402
	c16.987,0,30.757,12.267,30.757,27.402C143.341,84.646,129.57,96.913,112.583,96.913"/>
<ellipse fill="#FAE9C7" cx="112.583" cy="34.439" rx="21.098" ry="18.795"/>
<path fill="#ED643B" d="M108.449,34.503c-0.147,0.008-0.288,0.047-0.423,0.108c0.001,0,0.001-0.001,0.001-0.001l-18.676,8.342
	l19.466-2.682c0,0,0-0.003,0-0.004c0.961-0.118,1.667-1.427,1.59-2.981C110.325,35.691,109.447,34.445,108.449,34.503z"/>
<path fill="#726658" d="M122.275,31.163c0,1.058-0.735,1.915-1.639,1.915c-0.906,0-1.641-0.857-1.641-1.915
	c0-1.058,0.735-1.915,1.641-1.915C121.54,29.248,122.275,30.105,122.275,31.163z"/>
<path fill="#726658" d="M109.227,68.602c0,0.788-0.661,1.43-1.475,1.43c-0.816,0-1.476-0.642-1.476-1.43
	c0-0.79,0.66-1.43,1.476-1.43C108.566,67.172,109.227,67.812,109.227,68.602z"/>
<path fill="#726658" d="M110.144,79.229c0,0.79-0.661,1.43-1.475,1.43c-0.815,0-1.476-0.64-1.476-1.43
	c0-0.789,0.661-1.429,1.476-1.429C109.483,77.801,110.144,78.44,110.144,79.229z"/>
<path fill="#726658" d="M106.546,44.599c0,0.345-0.258,0.625-0.581,0.625c-0.319,0-0.581-0.28-0.581-0.625
	c0-0.346,0.261-0.625,0.581-0.625C106.288,43.974,106.546,44.253,106.546,44.599z"/>
<path fill="#726658" d="M109.853,45.224c0,0.345-0.26,0.625-0.581,0.625s-0.582-0.28-0.582-0.625c0-0.346,0.261-0.625,0.582-0.625
	S109.853,44.878,109.853,45.224z"/>
<path fill="#726658" d="M112.941,45.224c0,0.345-0.26,0.625-0.581,0.625c-0.322,0-0.582-0.28-0.582-0.625
	c0-0.346,0.26-0.625,0.582-0.625C112.681,44.599,112.941,44.878,112.941,45.224z"/>
<path fill="#726658" d="M116.513,44.599c0,0.345-0.261,0.625-0.582,0.625c-0.32,0-0.581-0.28-0.581-0.625
	c0-0.346,0.261-0.625,0.581-0.625C116.252,43.974,116.513,44.253,116.513,44.599z"/>
<path fill="#726658" d="M119.577,43.066c0,0.345-0.259,0.625-0.581,0.625c-0.32,0-0.581-0.279-0.581-0.625
	c0-0.346,0.261-0.625,0.581-0.625C119.318,42.44,119.577,42.72,119.577,43.066z"/>
<path fill="#726658" d="M122.037,40.684c0,0.344-0.261,0.624-0.582,0.624s-0.582-0.28-0.582-0.624c0-0.347,0.261-0.625,0.582-0.625
	S122.037,40.337,122.037,40.684z"/>
<path fill="#83D6BE" d="M130.77,45.033c-4.913,3.69-11.257,5.918-18.186,5.918c-6.93,0-13.274-2.228-18.188-5.918
	c-1.956,1.468-3.681,3.171-5.13,5.056c5.087,6.62,13.632,10.968,23.318,10.968c9.685,0,18.231-4.348,23.318-10.968
	C134.453,48.205,132.724,46.501,130.77,45.033z"/>
<path fill="#726658" d="M102.639,31.107c0,1.088-0.755,1.971-1.688,1.971c-0.931,0-1.686-0.883-1.686-1.971
	c0-1.089,0.755-1.971,1.686-1.971C101.884,29.136,102.639,30.018,102.639,31.107z"/>
<polygon fill="#F64B8D" points="107.06,3.086 99.109,19.348 126.952,21.765 124.676,3.973 "/>
<g>
	<g>
		<path fill="#FBC800" d="M173.435,45.738c-5.332-11.289-12.171-17.82-21.899-0.4c0.245,0.677,0.496,4.372,0.748,5.042
			c12.352,0,24.704,0.766,37.057,0.766C186.535,40.871,178.947,31.826,173.435,45.738z"/>
		<path fill="#BAD60F" d="M192.562,49.812c-7.445,0-14.891,0-22.331,0s-14.886,0-22.326,0c-0.516,0-0.845,0.613-0.729,1.354
			c1.443,9.31,2.721,17.524,3.85,24.82c1.012,6.524,1.921,12.404,2.747,17.717c0.057,0.374,0.399,0.671,0.759,0.671
			c5.235,0,10.472,0,15.699,0c5.235,0,10.47,0,15.705,0c0.36,0,0.716-0.297,0.773-0.671c0.818-5.319,1.733-11.192,2.747-17.717
			c1.127-7.296,2.404-15.511,3.849-24.82C193.414,50.425,193.078,49.812,192.562,49.812z"/>
		<rect x="204.692" y="20.428" fill="#DC291B" width="7.448" height="43.735"/>
		<path fill="#B71F11" d="M196.598,9.461c0,6.91,5.316,12.562,11.819,12.562s11.822-5.652,11.822-12.562V7.175h-23.642V9.461z
			 M215.841,11.571c-0.88,3.476-3.891,6.057-7.424,6.057s-6.541-2.581-7.423-6.057H215.841z"/>
		<path fill="#B71F11" d="M220.421,62.653c-8.003,0-16.005,0-24.009,0c-3.15,0-5.731,2.74-5.731,6.091c0,7.053,0,18.576,0,25.63
			c11.822,0,23.646,0,35.466,0c0-7.054,0-18.577,0-25.63C226.146,65.394,223.574,62.653,220.421,62.653z"/>
		<path fill="#DC291B" d="M222.652,69.806c-0.437-2.47-2.729-4.395-5.12-4.395c-3.042,0-6.082,0-9.122,0c-3.039,0-6.074,0-9.116,0
			c-2.396,0-4.683,1.916-5.111,4.395c-0.484,2.786-1,5.764-1.558,8.952c-0.604,3.441-1.244,11.617-1.944,15.616
			c5.907,0,11.822,0,17.729,0c5.906,0,11.821,0,17.736,0c-0.69-4.006-1.342-12.175-1.938-15.616
			C223.653,75.568,223.139,72.592,222.652,69.806z"/>
		<path fill="#4E5107" d="M170.05,73.117c-13.758,0-24.969-10.907-25.451-24.549h-0.562c0.49,13.951,11.946,25.11,26.013,25.11
			c14.067,0,25.53-11.159,26.015-25.11h-0.562C195.02,62.21,183.809,73.117,170.05,73.117z"/>
		<path fill="#8C990D" d="M170.05,71.932c-4.422,0-8.567-1.187-12.139-3.249l-1.328,2.295c3.965,2.296,8.562,3.604,13.467,3.604
			c4.906,0,9.51-1.308,13.468-3.604l-1.328-2.295C178.619,70.745,174.474,71.932,170.05,71.932z"/>
		<path fill="#DCF8DE" d="M144.463,46.873c-0.432,0-0.781,0.348-0.781,0.779c0,0.432,0.35,0.781,0.781,0.781
			s0.779-0.349,0.779-0.781C145.242,47.221,144.894,46.873,144.463,46.873z"/>
		<path fill="#DCF8DE" d="M196.019,46.112h-51.556c-0.845,0-1.54,0.689-1.54,1.54c0,0.845,0.695,1.542,1.54,1.542h51.556
			c0.846,0,1.542-0.697,1.542-1.542C197.561,46.802,196.864,46.112,196.019,46.112z M144.463,48.433
			c-0.432,0-0.781-0.349-0.781-0.781c0-0.432,0.35-0.779,0.781-0.779s0.779,0.348,0.779,0.779
			C145.242,48.084,144.894,48.433,144.463,48.433z M195.896,48.433c-0.431,0-0.779-0.349-0.779-0.781
			c0-0.432,0.349-0.779,0.779-0.779c0.426,0,0.774,0.348,0.774,0.779C196.67,48.084,196.321,48.433,195.896,48.433z"/>
		<path fill="#DCF8DE" d="M195.896,46.873c-0.431,0-0.779,0.348-0.779,0.779c0,0.432,0.349,0.781,0.779,0.781
			c0.426,0,0.774-0.349,0.774-0.781C196.67,47.221,196.321,46.873,195.896,46.873z"/>
		<path fill="#8C990D" d="M193.382,44.068h-46.283c-0.566,0-1.036,0.464-1.036,1.038v4.681c0,0.566,0.47,1.037,1.036,1.037h46.283
			c0.567,0,1.032-0.471,1.032-1.037v-4.681C194.414,44.532,193.949,44.068,193.382,44.068z"/>
	</g>
</g>
</svg>
