<svg version="1.1" id="Layer_1" xmlns="http://www.w3.org/2000/svg" xmlns:xlink="http://www.w3.org/1999/xlink" viewBox="0 0 300 100" enable-background="new 0 0 300 100" xml:space="preserve">
<g opacity="0.8">
	<path fill="#00A27A" d="M86,52.143c0.885-0.257,2.958-0.856,3.922-3.69l1.985-5.838l0.798,0.272
		c0.366,0.124,0.767-0.074,0.891-0.439l1.065-3.132c0.124-0.366-0.074-0.766-0.439-0.89l-25.735-8.75
		c-0.365-0.125-0.767,0.073-0.891,0.438l-1.065,3.132c-0.124,0.365,0.074,0.766,0.439,0.891l0.798,0.271l-2.021,5.944
		c-0.955,2.806-0.323,3.754,0.874,5.188l5.208,6.236l-0.58,1.707c-1.993,0.433-7.2,1.567-7.901,1.771
		c-0.885,0.256-2.958,0.855-3.922,3.689l-1.708,5.026l-0.799-0.271c-0.365-0.124-0.766,0.073-0.891,0.439l-1.064,3.131
		c-0.125,0.366,0.073,0.767,0.438,0.891l25.735,8.75c0.366,0.125,0.766-0.072,0.891-0.438l1.064-3.133
		c0.125-0.365-0.073-0.766-0.438-0.89l-0.798-0.272l1.745-5.133c0.955-2.805,0.324-3.753-0.874-5.187l-5.208-6.236l0.58-1.707
		C80.091,53.479,85.298,52.346,86,52.143z M75.124,56.693l5.663,6.781c0.435,0.521,0.665,0.804,0.727,1.065
		c0.076,0.312-0.025,0.863-0.306,1.688l-1.746,5.133l-19.353-6.58l1.708-5.026c0.54-1.587,1.518-1.869,2.232-2.077
		c0.558-0.16,5.348-1.211,8.432-1.877c0.433-0.095,0.787-0.409,0.929-0.828l1.039-3.057c0.142-0.417,0.056-0.877-0.226-1.216
		l-5.646-6.76l-0.017-0.021c-0.435-0.52-0.666-0.804-0.728-1.064c-0.074-0.312,0.025-0.865,0.306-1.69l2.021-5.944l19.354,6.58
		l-1.985,5.839c-0.539,1.585-1.518,1.869-2.231,2.076c-0.558,0.161-5.348,1.211-8.432,1.878c-0.434,0.094-0.786,0.408-0.929,0.828
		l-1.039,3.056C74.756,55.896,74.842,56.355,75.124,56.693z"/>
	<path fill="#00A27A" d="M76.618,50.793c1.154-0.144,8.161-1.582,8.161-1.582s0.558-0.229-0.136-0.346
		c-1.646-0.278-4.713,0.387-8.074-0.478c-3.361-0.865-4.051-3.836-6.234-4.039c-0.476-0.044-0.544,0.144-0.128,0.626
		c0.415,0.482,4.201,4.667,4.722,5.242C75.448,50.793,75.825,50.891,76.618,50.793z"/>
	<path fill="#00A27A" d="M63.669,64.116c-0.721,0.319-1.109,0.596,0.154,1.024c1.029,0.351,11.334,3.854,12.645,4.3
		c1.309,0.445,0.953-0.171,0.537-0.965c-0.801-1.532-2.489-3.954-5.5-4.978C68.354,62.427,65.275,63.406,63.669,64.116z"/>
	
		<ellipse transform="matrix(0.3218 -0.9468 0.9468 0.3218 1.4616 106.6157)" fill="#00A27A" cx="75.154" cy="52.288" rx="0.432" ry="0.338"/>
	
		<ellipse transform="matrix(0.3218 -0.9468 0.9468 0.3218 -0.4821 107.2029)" fill="#00A27A" cx="74.592" cy="53.938" rx="0.432" ry="0.337"/>
	
		<ellipse transform="matrix(-0.3223 0.9466 -0.9466 -0.3223 150.515 3.43)" fill="#00A27A" cx="74.03" cy="55.59" rx="0.432" ry="0.338"/>
	
		<ellipse transform="matrix(-0.3223 0.9466 -0.9466 -0.3223 151.3364 6.1448)" fill="#00A27A" cx="73.469" cy="57.242" rx="0.432" ry="0.338"/>
	
		<ellipse transform="matrix(-0.3227 0.9465 -0.9465 -0.3227 152.1758 8.8895)" fill="#00A27A" cx="72.907" cy="58.894" rx="0.431" ry="0.338"/>
	
		<ellipse transform="matrix(-0.3223 0.9466 -0.9466 -0.3223 152.9772 11.5756)" fill="#00A27A" cx="72.345" cy="60.544" rx="0.432" ry="0.338"/>
	
		<ellipse transform="matrix(-0.3215 0.9469 -0.9469 -0.3215 153.7556 14.2175)" fill="#00A27A" cx="71.784" cy="62.196" rx="0.432" ry="0.337"/>
	<path fill="#00A27A" d="M90.413,80.788c-0.565,0.319-1.147,0.626-1.73,0.91c-0.094,0.047-0.185,0.097-0.273,0.151
		c-0.094,0.033-0.187,0.07-0.279,0.112c-2.53,1.18-5.168,2.011-7.886,2.492c-0.035,0.006-0.07,0.008-0.104,0.013
		c-0.641,0.114-1.292,0.208-1.938,0.281c-0.007,0.002-0.014,0.004-0.021,0.005c-1.185,0.131-2.382,0.197-3.592,0.197
		c-13.953,0-25.853-8.953-30.261-21.415c-0.067-0.19-0.134-0.38-0.197-0.571c-1.057-3.178-1.63-6.573-1.63-10.103
		c0-3.536,0.576-6.94,1.638-10.124c0.023-0.07,0.045-0.139,0.069-0.208c0.063-0.186,0.129-0.37,0.196-0.555
		c0.031-0.086,0.063-0.173,0.095-0.259c3.663-9.86,12.043-17.447,22.385-20.006c0.006-0.001,0.013-0.002,0.02-0.003
		c0.153-0.038,0.307-0.075,0.461-0.11c0.018-0.004,0.034-0.01,0.051-0.014c2.255-0.518,4.602-0.795,7.009-0.808l0.027,3.299
		c0.009,1.024,0.656,1.32,1.437,0.658l6.969-5.908c0.781-0.662,0.772-1.735-0.02-2.384l-7.067-5.79
		c-0.792-0.649-1.434-0.342-1.425,0.683l0.028,3.292c-10.133,0.057-19.65,4.026-26.821,11.197c-0.707,0.707-1.381,1.437-2.024,2.187
		c-0.003,0.005-0.008,0.008-0.012,0.013c-0.024,0.027-0.046,0.056-0.07,0.084c-5.645,6.624-8.826,14.879-9.076,23.637
		c-0.006,0.068-0.014,0.136-0.016,0.205c-0.006,0.291-0.01,0.589-0.01,0.883c0,0.481,0.01,0.97,0.028,1.45
		c0.002,0.057,0.009,0.111,0.015,0.167c0.323,7.979,3.083,15.523,7.923,21.772c0.016,0.021,0.029,0.045,0.046,0.065
		c0.473,0.61,0.973,1.216,1.484,1.797c0.033,0.037,0.069,0.07,0.104,0.105c0.517,0.584,1.051,1.156,1.608,1.712
		c5.677,5.678,12.826,9.349,20.585,10.659c0.023,0.005,0.047,0.01,0.071,0.014c0.017,0.002,0.035,0.004,0.052,0.007
		c2.072,0.343,4.188,0.521,6.329,0.521c5.638,0,11.067-1.2,16.14-3.564c0.11-0.051,0.213-0.108,0.313-0.171
		c0.113-0.039,0.225-0.085,0.335-0.139c0.696-0.341,1.391-0.705,2.066-1.086c1.477-0.838,1.997-2.714,1.16-4.192
		C93.767,80.471,91.891,79.951,90.413,80.788z"/>
	<path fill="#00A27A" d="M101.235,34.965c0.593,0.883,1.565,1.36,2.555,1.36c0.59,0,1.186-0.169,1.712-0.523
		c1.41-0.947,1.785-2.857,0.837-4.267c-0.432-0.643-0.889-1.281-1.36-1.896c-1.032-1.349-2.961-1.606-4.311-0.574
		c-1.349,1.032-1.606,2.962-0.574,4.311C100.489,33.892,100.874,34.426,101.235,34.965z"/>
	<path fill="#00A27A" d="M105.14,43.04c0.198,0.617,0.38,1.25,0.541,1.882c0.354,1.392,1.605,2.316,2.978,2.316
		c0.251,0,0.507-0.032,0.762-0.097c1.645-0.419,2.639-2.093,2.22-3.738c-0.191-0.751-0.408-1.504-0.643-2.239
		c-0.518-1.618-2.249-2.509-3.867-1.991C105.513,39.692,104.622,41.422,105.14,43.04z"/>
	<path fill="#00A27A" d="M103.181,73.561c-1.285-1.112-3.227-0.971-4.337,0.313c-0.425,0.492-0.871,0.977-1.325,1.44
		c-1.187,1.216-1.164,3.162,0.051,4.349c0.598,0.585,1.374,0.876,2.149,0.876c0.799,0,1.597-0.311,2.2-0.926
		c0.54-0.554,1.07-1.131,1.577-1.716C104.606,76.612,104.465,74.671,103.181,73.561z"/>
	<path fill="#00A27A" d="M109.836,50.865c-1.7-0.051-3.115,1.285-3.165,2.981c-0.019,0.651-0.059,1.309-0.118,1.955
		c-0.156,1.691,1.089,3.188,2.78,3.343c0.096,0.009,0.19,0.013,0.285,0.013c1.571,0,2.912-1.198,3.058-2.794
		c0.071-0.771,0.119-1.556,0.142-2.332C112.869,52.333,111.534,50.916,109.836,50.865z"/>
	<path fill="#00A27A" d="M108.469,62.788c-1.583-0.619-3.366,0.16-3.985,1.743c-0.236,0.604-0.496,1.211-0.769,1.801
		c-0.714,1.541-0.043,3.368,1.498,4.083c0.418,0.193,0.858,0.285,1.291,0.285c1.161,0,2.271-0.66,2.792-1.782
		c0.326-0.703,0.633-1.425,0.916-2.145C110.83,65.191,110.05,63.407,108.469,62.788z"/>
	<path fill="#00A27A" d="M97.998,26.44c1.011-1.365,0.723-3.291-0.642-4.301c-0.621-0.46-1.266-0.908-1.915-1.33
		c-1.423-0.926-3.328-0.522-4.254,0.901c-0.925,1.424-0.522,3.328,0.901,4.254c0.546,0.354,1.086,0.73,1.609,1.117
		c0.55,0.407,1.191,0.604,1.828,0.604C96.465,27.685,97.395,27.254,97.998,26.44z"/>
</g>
<path opacity="0.7" fill="#C8C8C8" d="M200.576,81.575l-70.819,12.107c-3.899,0.667-7.635-1.978-8.302-5.878
	c0,0-6.935-71.708-0.612-72.79c0,0,74.386-7.393,75.468-1.07l10.143,59.328C207.121,77.173,204.476,80.908,200.576,81.575z"/>
<path opacity="0.7" fill="#EDEDED" d="M196.562,84.118l-71.52,6.848c-3.938,0.377-7.468-2.536-7.845-6.474
	c0,0-1.625-72.025,4.761-72.637c0,0,74.729-1.883,75.341,4.503l5.736,59.915C203.413,80.211,200.5,83.741,196.562,84.118z"/>
<path opacity="0.7" fill="#EDEDED" d="M122.814,81.55l64.683,9.416c3.938,0.377,7.468-2.536,7.845-6.474
	c0,0,1.624-72.025-4.761-72.637c0,0-63.973-1.634-64.584,4.751l-6.718,54.689C118.902,75.233,118.877,81.173,122.814,81.55z"/>
<path opacity="0.7" fill="#FFFFFF" d="M194.431,86.043h-71.847c-3.956,0-7.193-3.235-7.193-7.191V19.883
	c0-6.415,5.249-11.663,11.663-11.663h62.905c6.415,0,11.663,5.249,11.663,11.663v58.969
	C201.622,82.808,198.386,86.043,194.431,86.043z"/>
<path opacity="0.7" fill="#F995BE" d="M201.622,28.447h-86.231v-8.564c0-6.415,5.249-11.663,11.663-11.663h62.905
	c6.415,0,11.663,5.249,11.663,11.663V28.447z"/>
<path opacity="0.7" fill="#F64B8D" d="M129.423,14.105L129.423,14.105c-0.965,0-1.754-0.79-1.754-1.754V8.22h3.508v4.131
	C131.177,13.316,130.388,14.105,129.423,14.105z"/>
<path opacity="0.7" fill="#F64B8D" d="M150.181,14.105L150.181,14.105c-0.964,0-1.753-0.79-1.753-1.754V8.22h3.508v4.131
	C151.936,13.316,151.146,14.105,150.181,14.105z"/>
<path opacity="0.7" fill="#F64B8D" d="M169.596,14.105L169.596,14.105c-0.964,0-1.754-0.79-1.754-1.754V8.22h3.509v4.131
	C171.351,13.316,170.561,14.105,169.596,14.105z"/>
<path opacity="0.7" fill="#F64B8D" d="M189.147,14.105L189.147,14.105c-0.965,0-1.754-0.79-1.754-1.754c0,0,0-3.829,0-4.131
	c0-0.277,3.508,0.038,3.508,0.038v4.093C190.901,13.316,190.112,14.105,189.147,14.105z"/>
<path opacity="0.7" fill="#EBEBEB" d="M149.489,13.515L149.489,13.515c-0.965,0-1.755-0.79-1.755-1.754V7.239
	c0-0.965,0.79-1.754,1.755-1.754l0,0c0.965,0,1.754,0.789,1.754,1.754v4.522C151.243,12.726,150.454,13.515,149.489,13.515z"/>
<path opacity="0.7" fill="#EBEBEB" d="M169.001,13.515L169.001,13.515c-0.964,0-1.754-0.79-1.754-1.754V7.239
	c0-0.965,0.79-1.754,1.754-1.754l0,0c0.965,0,1.754,0.789,1.754,1.754v4.522C170.755,12.726,169.966,13.515,169.001,13.515z"/>
<path opacity="0.7" fill="#EBEBEB" d="M188.514,13.515L188.514,13.515c-0.965,0-1.755-0.79-1.755-1.754V7.239
	c0-0.965,0.79-1.754,1.755-1.754l0,0c0.964,0,1.754,0.789,1.754,1.754v4.522C190.268,12.726,189.478,13.515,188.514,13.515z"/>
<path opacity="0.7" fill="#BABABA" d="M194.348,64.377L173.95,85.824c0,0,0.772-3.776,0.778-6.148
	c0.003-1.508-0.305-2.821-0.408-4.986c-0.291-6.072,3.226-7.618,4.885-8.518c2.547-1.379,6.722-0.358,9.238-0.521
	C189.507,65.581,193.554,65.403,194.348,64.377z"/>
<path opacity="0.7" fill="#E7E6E6" d="M201.105,63.027L173.95,85.824c0,0,1.351-4.335,1.616-7.113
	c0.169-1.765-0.062-3.34,0.047-5.888c0.309-7.145,4.755-8.556,6.873-9.42c3.247-1.324,8.216,0.347,11.296,0.442
	C195.083,63.886,200.027,64.14,201.105,63.027z"/>
<rect x="124.29" y="39.765" opacity="0.7" fill="#EBEBEB" width="11.503" height="7.458"/>
<rect x="124.29" y="53.038" opacity="0.7" fill="#EBEBEB" width="11.503" height="7.458"/>
<rect x="142.594" y="53.038" opacity="0.7" fill="#EBEBEB" width="11.502" height="7.458"/>
<rect x="160.899" y="53.038" opacity="0.7" fill="#EBEBEB" width="11.502" height="7.458"/>
<rect x="178.85" y="53.038" opacity="0.7" fill="#EBEBEB" width="11.504" height="7.458"/>
<rect x="124.29" y="66.312" opacity="0.7" fill="#EBEBEB" width="11.503" height="7.457"/>
<rect x="142.594" y="66.312" opacity="0.7" fill="#EBEBEB" width="11.502" height="7.457"/>
<rect x="160.899" y="66.312" opacity="0.7" fill="#EBEBEB" width="11.502" height="7.457"/>
<rect x="142.594" y="39.765" opacity="0.7" fill="#EBEBEB" width="11.502" height="7.458"/>
<rect x="160.899" y="39.765" opacity="0.7" fill="#EBEBEB" width="11.502" height="7.458"/>
<rect x="179.204" y="39.765" opacity="0.7" fill="#EBEBEB" width="11.502" height="7.458"/>
<path opacity="0.7" fill="#EBEBEB" d="M128.727,13.515L128.727,13.515c-0.964,0-1.754-0.79-1.754-1.754V7.239
	c0-0.965,0.79-1.754,1.754-1.754l0,0c0.965,0,1.754,0.789,1.754,1.754v4.522C130.481,12.726,129.692,13.515,128.727,13.515z"/>
<g opacity="0.7">
	<g>
		<path fill="#DC4844" d="M148.108,44.81c-0.043,0.056-0.026,0.186,0.091,0.167l0.094-0.216L148.108,44.81z"/>
		<path fill="#DC4844" d="M148.855,45.273c0.071-0.047,0.151-0.11,0.207-0.191c0.055-0.079,0.085-0.174,0.053-0.28
			c-0.081,0.097-0.127,0.123-0.174,0.153c-0.047,0.031-0.097,0.068-0.18,0.188c-0.117,0.016-0.195-0.088-0.169-0.168
			c-0.022,0.027-0.066,0.01-0.114,0.005c-0.048-0.005-0.099,0-0.134,0.069c0.14,0.176,0.322,0.202,0.535,0.079
			C148.916,45.18,148.869,45.234,148.855,45.273z"/>
		<path fill="#DC4844" d="M157.771,51.047l-0.018-0.071C157.753,51,157.759,51.023,157.771,51.047z"/>
		<path fill="#DC4844" d="M159.596,57.365c-0.007-0.05-0.029-0.071-0.05-0.072C159.562,57.339,159.578,57.377,159.596,57.365z"/>
		<path fill="#DC4844" d="M159.331,58.482c0.008-0.023,0.013-0.044,0.019-0.064C159.328,58.441,159.315,58.467,159.331,58.482z"/>
		<path fill="#DC4844" d="M157.771,51.047c0,0,0.01,0.048,0.021,0.094c0.008,0.048,0.017,0.095,0.017,0.095
			C157.878,51.207,157.808,51.129,157.771,51.047z"/>
		<path fill="#DC4844" d="M150.487,45.01c-0.042,0.001-0.079,0.014-0.114,0.034c0.033-0.003,0.066-0.003,0.101-0.002
			C150.478,45.031,150.48,45.021,150.487,45.01z"/>
		<path fill="#DC4844" d="M155.734,48.946l-0.039-0.036c-0.029,0.007-0.061,0.021-0.095,0.037c0,0,0.034,0,0.067-0.001
			C155.701,48.946,155.734,48.946,155.734,48.946z"/>
		<path fill="#DC4844" d="M153.939,47.625c0.038,0.034,0.153-0.115,0.214-0.174c-0.066,0.049-0.118,0.061-0.163,0.049
			C153.971,47.53,153.954,47.569,153.939,47.625z"/>
		<path fill="#DC4844" d="M150.81,45.878c0,0-0.017,0.001-0.034,0.003c-0.017,0.002-0.035,0.004-0.035,0.004
			C150.759,45.882,150.788,45.882,150.81,45.878z"/>
		<path fill="#DC4844" d="M156.808,50.125c-0.019,0.021-0.033,0.043-0.038,0.059C156.787,50.168,156.8,50.147,156.808,50.125z"/>
		<path fill="#DC4844" d="M146.961,46.101c-0.001,0.014,0.002,0.021,0.002,0.034C146.976,46.115,146.979,46.101,146.961,46.101z"/>
		<path fill="#DC4844" d="M149.718,46.88l-0.037,0.011c-0.001,0.036-0.005,0.071-0.003,0.105L149.718,46.88z"/>
		<path fill="#DC4844" d="M158.798,60.436c0.003-0.003,0.003-0.005,0.006-0.008C158.795,60.372,158.791,60.401,158.798,60.436z"/>
		<path fill="#DC4844" d="M144.116,66.771c0.083,0.107-0.015,0.14-0.102,0.174c-0.086,0.035-0.161,0.075-0.026,0.208
			c-0.005-0.04,0.085-0.091,0.148-0.156C144.199,66.933,144.231,66.856,144.116,66.771z"/>
		<path fill="#DC4844" d="M150.543,45.048c0.032,0.004,0.065,0.011,0.097,0.022C150.598,45.052,150.567,45.046,150.543,45.048z"/>
		<path fill="#DC4844" d="M143.989,67.153v0.002l0.028,0.026C144.005,67.169,143.999,67.163,143.989,67.153z"/>
		<path fill="#DC4844" d="M156.979,64.604c0.032,0.014,0.063,0.014,0.094,0.014C157.058,64.607,157.031,64.602,156.979,64.604z"/>
		<path fill="#DC4844" d="M158.831,61.681l-0.052,0.074C158.808,61.728,158.821,61.703,158.831,61.681z"/>
		<path fill="#DC4844" d="M155.958,66.066c-0.045,0.018-0.074,0.007-0.107,0.065c0.011,0.004,0.02,0.005,0.03,0.006
			C155.882,66.104,155.898,66.076,155.958,66.066z"/>
		<path fill="#DC4844" d="M154.404,67.033c0.015,0.009,0.03,0.014,0.046,0.021c0.016-0.011,0.034-0.022,0.05-0.032L154.404,67.033z"
			/>
		<path fill="#DC4844" d="M140.836,47.333c0.061,0.036,0.106,0.082,0.146,0.129C140.908,47.346,141.185,47.204,140.836,47.333z"/>
		<path fill="#DC4844" d="M150.464,45.113c0.022-0.043,0.045-0.062,0.079-0.065c-0.023-0.003-0.047-0.005-0.069-0.006
			C150.461,45.068,150.454,45.094,150.464,45.113z"/>
		<path fill="#DC4844" d="M156.838,67.26c0,0-0.074,0.05-0.148,0.1c-0.036,0.024-0.073,0.051-0.102,0.068s-0.047,0.029-0.047,0.029
			C156.633,67.414,156.738,67.338,156.838,67.26z"/>
		<path fill="#DC4844" d="M133.648,59.237l-0.043-0.069C133.609,59.198,133.622,59.224,133.648,59.237z"/>
		<path fill="#DC4844" d="M155.664,68.061c-0.089-0.027-0.166-0.029-0.239-0.019c-0.006,0.02-0.016,0.039-0.014,0.063
			L155.664,68.061z"/>
		<path fill="#DC4844" d="M140.983,47.464c0,0-0.001-0.002-0.001-0.002S140.983,47.463,140.983,47.464z"/>
		<path fill="#DC4844" d="M136.579,50.125c-0.001-0.001-0.001-0.003-0.002-0.003c0.044-0.046,0.082-0.085,0.106-0.109
			C136.661,50.034,136.631,50.067,136.579,50.125z M136.132,50.554c0.059-0.048,0.125-0.115,0.197-0.184
			c0.061,0.032,0.089,0.096,0.043,0.136c-0.003-0.027-0.038-0.022-0.083-0.007S136.184,50.541,136.132,50.554z M137.917,50.701
			c-0.051,0.075-0.096,0.065-0.13,0.043c0.03-0.029,0.062-0.064,0.104-0.113c-0.002-0.007-0.003-0.017-0.006-0.025
			C137.901,50.639,137.914,50.671,137.917,50.701z"/>
		<path fill="#DC4844" d="M137.891,50.41c0.007-0.011,0.008-0.021,0.021-0.034c-0.025-0.002-0.048-0.002-0.068-0.001
			c0.003,0.023,0.006,0.045,0.011,0.066C137.867,50.431,137.879,50.42,137.891,50.41z"/>
		<path fill="#DC4844" d="M157.751,50.963l0.003,0.012c0.001-0.012,0.001-0.024,0.009-0.036
			C157.759,50.951,157.754,50.955,157.751,50.963z"/>
		<polygon fill="#DC4844" points="133.395,58.564 133.442,58.554 133.39,58.507 		"/>
		<path fill="#DC4844" d="M156.069,48.101c0.006-0.017,0.008-0.038-0.002-0.065C156.061,48.046,156.063,48.071,156.069,48.101z"/>
		<path fill="#DC4844" d="M154.951,47.178l-0.132-0.171C154.871,47.089,154.915,47.14,154.951,47.178z"/>
		<path fill="#DC4844" d="M154.056,46.5c-0.028,0.021-0.044,0.041-0.059,0.059c0.001,0.001,0.001,0.001,0.001,0.002L154.056,46.5z"
			/>
		<path fill="#DC4844" d="M160.045,62.017c-0.004,0.016-0.006,0.03-0.006,0.045C160.039,62.172,160.049,62.1,160.045,62.017z"/>
		<path fill="#DC4844" d="M160.276,56.72c0.038,0.053,0.076,0.104,0.102,0.162C160.385,56.787,160.383,56.714,160.276,56.72z"/>
		<path fill="#DC4844" d="M156.87,67.237c-0.001-0.001-0.001-0.001-0.001-0.003c-0.011,0.009-0.021,0.017-0.031,0.025L156.87,67.237
			z"/>
		<path fill="#DC4844" d="M160.386,57.126c0.033-0.095,0.023-0.174-0.008-0.244C160.371,56.959,160.354,57.051,160.386,57.126z"/>
		<path fill="#DC4844" d="M149.498,44.801l-0.053-0.016c-0.001,0.012-0.006,0.021-0.011,0.029L149.498,44.801z"/>
		<path fill="#DC4844" d="M149.435,44.814l-0.063,0.012C149.399,44.831,149.424,44.834,149.435,44.814z"/>
		<path fill="#DC4844" d="M149.239,44.857c0,0,0.033-0.008,0.065-0.016c0.017-0.003,0.034-0.007,0.046-0.011
			c0.013-0.002,0.021-0.004,0.021-0.004C149.328,44.82,149.275,44.809,149.239,44.857z"/>
		<path fill="#DC4844" d="M150.942,45.197l0.034-0.061C150.965,45.147,150.953,45.167,150.942,45.197z"/>
		<path fill="#DC4844" d="M151.383,45.306c-0.099-0.046-0.219-0.216-0.377-0.219l-0.029,0.049c0.049-0.04,0.118,0.024,0.191,0.086
			C151.24,45.285,151.316,45.345,151.383,45.306z"/>
		<path fill="#DC4844" d="M152.777,46.757c0,0-0.074-0.05-0.149-0.101c-0.037-0.026-0.075-0.049-0.104-0.067
			c-0.029-0.019-0.048-0.03-0.048-0.03c0.027,0.091,0.062,0.212-0.093,0.165c0.08,0.093,0.119,0.128,0.137,0.133
			c0.021,0.004,0.021-0.024,0.024-0.058C152.554,46.732,152.573,46.645,152.777,46.757z"/>
		<path fill="#DC4844" d="M153.696,47.366c-0.18-0.067-0.051,0.093-0.081,0.123C153.751,47.492,153.785,47.494,153.696,47.366z"/>
		<path fill="#DC4844" d="M158.766,53.219l-0.166,0.045C158.675,53.39,158.663,53.242,158.766,53.219z"/>
		<polygon fill="#DC4844" points="160.083,54.438 160.146,54.264 159.977,54.233 		"/>
		<polygon fill="#DC4844" points="159.083,55.583 159.049,55.527 159.149,55.75 		"/>
		<path fill="#DC4844" d="M154.625,66.747l0.133,0.17c0.034-0.036,0.026-0.113-0.002-0.16c-0.015-0.024-0.033-0.042-0.056-0.046
			C154.679,66.707,154.653,66.717,154.625,66.747z"/>
		<path fill="#DC4844" d="M149.158,67.756c-0.06-0.107-0.219-0.181-0.324-0.083C148.964,67.695,149.091,67.78,149.158,67.756z"/>
		<polygon fill="#DC4844" points="135.443,59.621 135.545,59.698 135.421,59.525 		"/>
	</g>
</g>
<g>
	<path fill="#3E4349" d="M232.18,8.004c-11.948,0-21.633,9.684-21.633,21.633c0,11.948,9.685,21.633,21.633,21.633
		s21.633-9.685,21.633-21.633C253.812,17.688,244.128,8.004,232.18,8.004z M233.812,47.929v-1.455c0-0.903-0.73-1.633-1.633-1.633
		s-1.633,0.73-1.633,1.633v1.455c-8.844-0.783-15.903-7.859-16.661-16.709h1.406c0.901,0,1.633-0.73,1.633-1.633
		c0-0.902-0.731-1.632-1.633-1.632h-1.399c0.805-8.803,7.845-15.827,16.654-16.607v1.352c0,0.903,0.73,1.633,1.633,1.633
		s1.633-0.73,1.633-1.633v-1.352c8.81,0.78,15.851,7.804,16.654,16.607h-1.399c-0.902,0-1.633,0.73-1.633,1.632
		c0,0.903,0.73,1.633,1.633,1.633h1.407C249.716,40.07,242.656,47.146,233.812,47.929z"/>
	<path fill="#3E4349" d="M241.906,19.098l-9.671,10.134c-0.019,0-0.038-0.003-0.056-0.003c-0.121,0-0.239,0.013-0.354,0.035
		l-8.094-6.116c-0.536-0.402-1.305-0.3-1.712,0.243c-0.408,0.536-0.304,1.307,0.239,1.715l8.091,6.114
		c0.078,0.942,0.867,1.683,1.829,1.683c1.015,0,1.837-0.823,1.837-1.836c0-0.049-0.004-0.096-0.007-0.144l9.669-10.134
		c0.466-0.491,0.449-1.263-0.042-1.731C243.149,18.588,242.374,18.61,241.906,19.098z"/>
</g>
</svg>
