<svg version="1.1" xmlns="http://www.w3.org/2000/svg" xmlns:xlink="http://www.w3.org/1999/xlink" viewBox="0 0 768 430" enable-background="new 0 0 768 430" xml:space="preserve">
<g id="Layer_2">
</g>
<g id="Layer_1">
	<g id="XMLID_1_">
		<path id="XMLID_12_" fill="#CC8F46" stroke="#59331B" stroke-width="2" stroke-miterlimit="10" d="M348.987,238.584v6.495
			c0,0-21.033,25.93-19.081,46.006c1.951,20.075,2.788,81.137,2.788,81.137s1.952,9.201,5.297,13.661
			c3.347,4.462,8.364,14.221,21.19,17.287c12.826,3.067,90.338,16.45,111.25-3.066c11.433-10.038,12.825-14.221,13.104-18.123
			c0.279-3.903,0-90.06,0-90.06s-0.558-9.202-5.019-17.565c-4.461-8.365-17.565-34.016-17.565-34.016l0.147-3.205L348.987,238.584z"
			/>
		<path id="XMLID_11_" fill="#FFFFFF" stroke="#59331B" stroke-width="2" stroke-miterlimit="10" d="M344.411,205.552v29.717
			c0.073,4.927,27.393,8.518,61.022,8.021c33.628-0.498,60.831-4.896,60.759-9.824v-29.717L344.411,205.552z"/>
		
			<ellipse id="XMLID_10_" transform="matrix(0.9999 -0.0148 0.0148 0.9999 -2.9847 6.0215)" fill="#E5E5E5" stroke="#59331B" stroke-width="2" stroke-miterlimit="10" cx="405.301" cy="204.65" rx="60.897" ry="8.922"/>
		<path id="XMLID_8_" fill="#8C5A2C" stroke="#59331B" stroke-miterlimit="10" d="M458.317,306.677
			c0.529-0.091,1.055-0.189,1.578-0.291c-0.364-5.12-1.433-10.031-3.607-14.118c-9.201-17.288-35.789-39.692-90.058-32.064
			c-28.552,4.013-36.453,33.482-36.453,33.482c2.924,1.498,6.653,3.153,10.321,4.07
			C347.905,299.708,440.753,309.745,458.317,306.677z"/>
		<path id="XMLID_13_" fill="#8C5A2C" stroke="#59331B" stroke-miterlimit="10" d="M339.423,377.279c0,0,23.532,30.36,64.65,31.132
			c41.115,0.771,53.983-15.817,53.983-15.817S350.65,384.354,339.423,377.279z"/>
		<path id="XMLID_9_" fill="#D13733" stroke="#59331B" stroke-miterlimit="10" d="M483.357,298.774
			c-5.904,2.655-14.878,6.097-24.838,7.835c-17.565,3.068-110.412-6.97-118.22-8.921c-3.668-0.918-7.397-2.573-10.32-4.071
			c1.755,22.644,2.513,77.959,2.513,77.959s0.642,3.017,1.816,6.435c30.984,12.845,96.476,16.409,118.635,15.312
			c14.533-0.719,24.092-5.152,29.938-9.273c0.271-0.96,0.392-1.845,0.453-2.716C483.562,378.138,483.417,319.822,483.357,298.774z"
			/>
		<g id="XMLID_7_">
			<path id="XMLID_24_" fill="#F44747" d="M458.121,307.149c-1.896,0.328-5.121,0.503-8.121,0.556v85.526
				c1-0.027,1.751-0.06,2.545-0.1c5.513-0.27,9.455-1.071,14.455-2.185v-85.807C464,305.923,461.196,306.616,458.121,307.149z"/>
			<path id="XMLID_27_" fill="#F44747" d="M472,303.56v85.723c3-0.789,4-1.648,6-2.541V301.51C476,302.196,475,302.891,472,303.56z"
				/>
		</g>
		<path id="XMLID_14_" fill="none" stroke="#FFFFFF" stroke-width="3" stroke-linecap="round" stroke-miterlimit="10" d="
			M458.248,245.518l16.438,30.412c0,0,5.085,7.329,5.085,20.153"/>
		<path id="XMLID_23_" opacity="0.42" fill="#FFFFFF" d="M350.633,299.156c0,0,0.017-26.734,13.086-57.76
			c0,0-27.124,30.582-27.586,54.687l3.621,83.72c0,0,3.2,11.744,17.941,22.746c0.713,0.229,1.451,0.438,2.218,0.621
			c0.208,0.05,0.434,0.103,0.676,0.157c-3.497-8.227-6.7-16.591-7.23-20.726C352.117,372.915,350.633,299.156,350.633,299.156z"/>
		<path id="XMLID_16_" opacity="0.28" fill="#FFFFFF" d="M449.479,306.244c0,0,0.846-26.524-17.478-38.878
			c0,0,35.013,12.65,35.013,36.313C467.015,303.68,464.823,305.603,449.479,306.244z"/>
		<path id="XMLID_17_" opacity="0.28" fill="#FFFFFF" d="M449.479,394.692c0,0-7.394,10.261-20.106,12.669
			c0,0,36.639-3.914,37.642-14.952C467.015,392.409,451.187,394.44,449.479,394.692z"/>
		<g id="XMLID_15_">
			<g id="XMLID_18_">
				<path fill="#CCCCCC" d="M349.12,213c0,0,0.119,1.416,0.256,3.266c0.162,1.849,0.288,4.405,0.444,6.871
					c0.067,1.233,0.223,2.512,0.242,3.668c-0.003,1.155-0.106,2.212-0.242,3.137c-0.251,1.85-0.7,3.059-0.7,3.059h-0.2
					c0,0-0.449-1.187-0.7-3.036c-0.135-0.925-0.238-1.981-0.242-3.136c0.019-1.156,0.175-2.378,0.242-3.611
					c0.156-2.466,0.282-5.108,0.444-6.957c0.137-1.85,0.256-3.26,0.256-3.26H349.12z"/>
			</g>
			<g id="XMLID_19_">
				<path fill="#CCCCCC" d="M354.234,215c0,0,0.119,1.146,0.256,2.996c0.162,1.85,0.288,4.271,0.444,6.736
					c0.067,1.233,0.223,2.444,0.242,3.601c-0.003,1.155-0.106,2.447-0.242,3.372c-0.251,1.85-0.7,3.295-0.7,3.295h-0.2
					c0,0-0.449-1.456-0.7-3.306c-0.135-0.925-0.238-2.116-0.242-3.271c0.019-1.156,0.175-2.445,0.242-3.679
					c0.156-2.465,0.282-4.872,0.444-6.722c0.137-1.85,0.256-3.023,0.256-3.023H354.234z"/>
			</g>
			<g id="XMLID_20_">
				<path fill="#CCCCCC" d="M359.349,216c0,0,0.119,1.012,0.256,2.861c0.162,1.85,0.288,4.204,0.444,6.67
					c0.067,1.233,0.223,2.411,0.242,3.567c-0.003,1.155-0.106,2.064-0.242,2.989c-0.251,1.849-0.7,2.912-0.7,2.912h-0.2
					c0,0-0.449-1.092-0.7-2.939c-0.135-0.926-0.238-1.934-0.242-3.089c0.019-1.156,0.175-2.353,0.242-3.586
					c0.156-2.466,0.282-4.693,0.444-6.543c0.137-1.849,0.256-2.843,0.256-2.843H359.349z"/>
			</g>
			<g id="XMLID_21_">
				<path fill="#CCCCCC" d="M365.193,217c0,0,0.119,1.242,0.256,3.092c0.162,1.85,0.288,4.319,0.444,6.786
					c0.067,1.232,0.223,2.469,0.242,3.624c-0.003,1.156-0.106,2.363-0.242,3.288c-0.251,1.849-0.7,3.21-0.7,3.21h-0.2
					c0,0-0.449-1.36-0.7-3.209c-0.135-0.925-0.238-2.067-0.242-3.224c0.019-1.155,0.175-2.421,0.242-3.653
					c0.156-2.467,0.282-4.957,0.444-6.807c0.137-1.849,0.256-3.107,0.256-3.107H365.193z"/>
			</g>
			<g id="XMLID_22_">
				<path fill="#CCCCCC" d="M372.5,218c0,0,0.119,1.107,0.256,2.957c0.162,1.85,0.288,4.252,0.444,6.718
					c0.067,1.233,0.223,2.435,0.242,3.591c-0.003,1.155-0.106,1.981-0.242,2.906c-0.251,1.849-0.7,2.828-0.7,2.828h-0.2
					c0,0-0.449-0.996-0.7-2.844c-0.135-0.926-0.238-1.886-0.242-3.041c0.019-1.156,0.175-2.329,0.242-3.562
					c0.156-2.466,0.282-4.776,0.444-6.626c0.137-1.849,0.256-2.927,0.256-2.927H372.5z"/>
			</g>
			<g id="XMLID_25_">
				<path fill="#CCCCCC" d="M379.807,218c0,0,0.119,1.473,0.256,3.322c0.162,1.85,0.288,4.435,0.444,6.901
					c0.067,1.232,0.223,2.526,0.242,3.682c-0.003,1.156-0.106,2.161-0.242,3.086c-0.251,1.849-0.7,3.009-0.7,3.009h-0.2
					c0,0-0.449-1.13-0.7-2.979c-0.135-0.925-0.238-1.952-0.242-3.108c0.019-1.155,0.175-2.362,0.242-3.595
					c0.156-2.467,0.282-5.16,0.444-7.01c0.137-1.849,0.256-3.309,0.256-3.309H379.807z"/>
			</g>
			<g id="XMLID_29_">
				<path fill="#CCCCCC" d="M388.573,219c0,0,0.12,1.338,0.257,3.188c0.161,1.85,0.288,4.368,0.443,6.834
					c0.066,1.232,0.224,2.492,0.242,3.648c-0.004,1.155-0.106,2.279-0.242,3.203c-0.251,1.85-0.7,3.127-0.7,3.127h-0.199
					c0,0-0.449-1.264-0.7-3.113c-0.136-0.925-0.238-2.02-0.242-3.175c0.019-1.156,0.176-2.397,0.242-3.63
					c0.155-2.466,0.282-5.041,0.443-6.891c0.137-1.85,0.257-3.191,0.257-3.191H388.573z"/>
			</g>
			<g id="XMLID_30_">
				<path fill="#CCCCCC" d="M396.609,219c0,0,0.12,1.338,0.257,3.188c0.161,1.85,0.288,4.368,0.443,6.834
					c0.067,1.232,0.224,2.492,0.242,3.648c-0.004,1.155-0.106,2.279-0.242,3.203c-0.251,1.85-0.7,3.127-0.7,3.127h-0.199
					c0,0-0.449-1.264-0.7-3.113c-0.136-0.925-0.238-2.02-0.242-3.175c0.019-1.156,0.175-2.397,0.242-3.63
					c0.155-2.466,0.282-5.041,0.443-6.891c0.137-1.85,0.257-3.191,0.257-3.191H396.609z"/>
			</g>
			<g id="XMLID_31_">
				<path fill="#CCCCCC" d="M405.377,218c0,0,0.12,1.473,0.257,3.322c0.161,1.85,0.288,4.435,0.443,6.901
					c0.067,1.232,0.224,2.526,0.242,3.682c-0.004,1.156-0.106,2.161-0.242,3.086c-0.251,1.849-0.7,3.009-0.7,3.009h-0.199
					c0,0-0.449-1.13-0.7-2.979c-0.136-0.925-0.238-1.952-0.242-3.108c0.019-1.155,0.175-2.362,0.242-3.595
					c0.155-2.467,0.282-5.16,0.443-7.01c0.137-1.849,0.257-3.309,0.257-3.309H405.377z"/>
			</g>
			<g id="XMLID_32_">
				<path fill="#CCCCCC" d="M414.145,218c0,0,0.12,1.473,0.257,3.322c0.161,1.85,0.288,4.435,0.443,6.901
					c0.067,1.232,0.224,2.526,0.242,3.682c-0.004,1.156-0.106,2.161-0.242,3.086c-0.251,1.849-0.7,3.009-0.7,3.009h-0.199
					c0,0-0.449-1.13-0.7-2.979c-0.136-0.925-0.238-1.952-0.242-3.108c0.019-1.155,0.175-2.362,0.242-3.595
					c0.155-2.467,0.282-5.16,0.443-7.01c0.137-1.849,0.257-3.309,0.257-3.309H414.145z"/>
			</g>
			<g id="XMLID_35_">
				<path fill="#CCCCCC" d="M422.912,218c0,0,0.12,1.473,0.257,3.322c0.161,1.85,0.288,4.435,0.443,6.901
					c0.067,1.232,0.224,2.526,0.242,3.682c-0.004,1.156-0.106,2.161-0.242,3.086c-0.251,1.849-0.7,3.009-0.7,3.009h-0.199
					c0,0-0.449-1.13-0.7-2.979c-0.136-0.925-0.238-1.952-0.242-3.108c0.019-1.155,0.175-2.362,0.242-3.595
					c0.155-2.467,0.282-5.16,0.443-7.01c0.137-1.849,0.257-3.309,0.257-3.309H422.912z"/>
			</g>
			<g id="XMLID_44_">
				<path fill="#CCCCCC" d="M432.411,218c0,0,0.12,1.107,0.257,2.957c0.161,1.85,0.288,4.252,0.443,6.718
					c0.066,1.233,0.224,2.435,0.242,3.591c-0.004,1.155-0.106,1.981-0.242,2.906c-0.251,1.849-0.7,2.828-0.7,2.828h-0.199
					c0,0-0.449-0.996-0.7-2.844c-0.136-0.926-0.238-1.886-0.242-3.041c0.019-1.156,0.176-2.329,0.242-3.562
					c0.155-2.466,0.282-4.776,0.443-6.626c0.137-1.849,0.257-2.927,0.257-2.927H432.411z"/>
			</g>
			<g id="XMLID_50_">
				<path fill="#CCCCCC" d="M441.177,216c0,0,0.12,1.377,0.257,3.227c0.161,1.85,0.288,4.387,0.443,6.853
					c0.066,1.233,0.224,2.502,0.242,3.658c-0.004,1.155-0.106,2.245-0.242,3.17c-0.251,1.849-0.7,3.093-0.7,3.093h-0.199
					c0,0-0.449-1.227-0.7-3.074c-0.136-0.926-0.238-2.001-0.242-3.156c0.019-1.156,0.176-2.387,0.242-3.62
					c0.155-2.466,0.282-5.074,0.443-6.924c0.137-1.849,0.257-3.226,0.257-3.226H441.177z"/>
			</g>
			<g id="XMLID_45_">
				<path fill="#CCCCCC" d="M449.214,215c0,0,0.12,1.146,0.257,2.996c0.161,1.85,0.288,4.271,0.443,6.736
					c0.066,1.233,0.224,2.444,0.242,3.601c-0.004,1.155-0.106,2.447-0.242,3.372c-0.251,1.85-0.7,3.295-0.7,3.295h-0.199
					c0,0-0.449-1.456-0.7-3.306c-0.136-0.925-0.238-2.116-0.242-3.271c0.019-1.156,0.176-2.445,0.242-3.679
					c0.155-2.465,0.282-4.872,0.443-6.722c0.137-1.85,0.257-3.023,0.257-3.023H449.214z"/>
			</g>
			<g id="XMLID_46_">
				<path fill="#CCCCCC" d="M460.904,212c0,0,0.12,1.185,0.257,3.035c0.161,1.849,0.288,4.292,0.443,6.756
					c0.067,1.234,0.224,2.455,0.242,3.61c-0.004,1.156-0.106,2.414-0.242,3.339c-0.251,1.849-0.7,3.26-0.7,3.26h-0.199
					c0,0-0.449-1.418-0.7-3.266c-0.136-0.926-0.238-2.097-0.242-3.253c0.019-1.155,0.175-2.435,0.242-3.668
					c0.155-2.466,0.282-4.906,0.443-6.756c0.137-1.85,0.257-3.058,0.257-3.058H460.904z"/>
			</g>
			<g id="XMLID_47_">
				<path fill="#CCCCCC" d="M455.06,213c0,0,0.12,1.416,0.257,3.266c0.161,1.849,0.288,4.405,0.443,6.871
					c0.066,1.233,0.224,2.512,0.242,3.668c-0.004,1.155-0.106,2.212-0.242,3.137c-0.251,1.85-0.7,3.059-0.7,3.059h-0.199
					c0,0-0.449-1.187-0.7-3.036c-0.136-0.925-0.238-1.981-0.242-3.136c0.019-1.156,0.176-2.378,0.242-3.611
					c0.155-2.466,0.282-5.108,0.443-6.957c0.137-1.85,0.257-3.26,0.257-3.26H455.06z"/>
			</g>
		</g>
	</g>
	<g id="XMLID_103_">
		<path id="XMLID_124_" fill="#E8B57E" stroke="#59331B" stroke-miterlimit="10" d="M195.401,194.164c0,0-8.108-5.215-10.977-17.275
			l-16.776,2.072c2.764,11.282,10.001,17.643,10.001,17.643s-0.834,4.461,0.343,10.08l15.619-3.052
			C192.241,197.022,195.401,194.164,195.401,194.164z"/>
		<path id="XMLID_123_" fill="#8C5A2C" stroke="#59331B" stroke-miterlimit="10" d="M183.843,173.872
			c-5.767-35.879,47.691-63.494,69.789-68.804c4.705-1.13,8.54-0.656,11.67,0.785c-0.005-0.003-0.01-0.007-0.014-0.01
			c-11.402-7.125-66.136,2.631-88.896,36.143c-10.266,15.115-11.015,27.707-8.744,36.976l16.776-2.072
			C184.195,175.926,183.998,174.922,183.843,173.872z"/>
		<path id="XMLID_122_" fill="#CC8F46" stroke="#59331B" stroke-miterlimit="10" d="M182.63,216.99
			c7.067,9.246,12.008,32.247,21.545,52.993c9.538,20.747,28.575,10.62,28.575,10.62s0.002-0.011,0.004-0.016
			c-7.504,3.444-10.332-5.16-10.332-5.16s-17.234-49.959-25.084-62.939c-2.11-3.489-3.224-6.425-3.728-8.856l-15.619,3.052
			C178.675,209.944,180.035,213.595,182.63,216.99z"/>
		<path id="XMLID_121_" fill="none" stroke="#59331B" stroke-width="2" stroke-miterlimit="10" d="M232.557,280.683
			c0,0-19.036,10.126-28.574-10.621c-9.538-20.746-14.479-43.746-21.546-52.993c-7.067-9.247-4.981-20.386-4.981-20.386
			s-24.018-21.107-1.257-54.619s77.494-43.268,88.896-36.143C276.497,113.046,232.557,280.683,232.557,280.683z"/>
		<path id="XMLID_120_" fill="#FFE2B8" stroke="#59331B" stroke-width="2" stroke-miterlimit="10" d="M183.649,173.95
			c-5.767-35.879,47.691-63.494,69.79-68.803c22.099-5.31,25.113,24.705,25.113,24.705c13.85,0.617,30.059,49.524,35.937,60.365
			c5.878,10.841,7.33,21.645-1.816,25.363c-9.146,3.72-66.206,54.115-76.46,62.694c-10.255,8.581-13.983-2.769-13.983-2.769
			s-17.234-49.96-25.084-62.939c-7.85-12.979-1.938-18.324-1.938-18.324S185.753,188.164,183.649,173.95z"/>
		<g id="XMLID_37_">
			
				<ellipse id="XMLID_119_" transform="matrix(0.9262 -0.377 0.377 0.9262 -54.4818 108.1783)" fill="#FFB66E" cx="249.124" cy="193.274" rx="1.786" ry="2.273"/>
			
				<ellipse id="XMLID_118_" transform="matrix(0.9263 -0.3767 0.3767 0.9263 -52.9077 105.2044)" fill="#FFB66E" cx="242.552" cy="187.886" rx="2.272" ry="1.299"/>
			
				<ellipse id="XMLID_117_" transform="matrix(0.9264 -0.3766 0.3766 0.9264 -55.1828 111.7937)" fill="#FFB66E" cx="258.368" cy="197.05" rx="2.435" ry="1.785"/>
			
				<ellipse id="XMLID_116_" transform="matrix(0.9263 -0.3767 0.3767 0.9263 -50.2314 111.1287)" fill="#FFB66E" cx="259.018" cy="183.996" rx="3.084" ry="2.597"/>
			
				<ellipse id="XMLID_115_" transform="matrix(0.9263 -0.3768 0.3768 0.9263 -50.6487 116.5674)" fill="#FFB66E" cx="272.632" cy="187.746" rx="1.623" ry="1.461"/>
			
				<ellipse id="XMLID_114_" transform="matrix(0.9264 -0.3766 0.3766 0.9264 -46.4746 117.2655)" fill="#FFB66E" cx="276.704" cy="177.505" rx="1.785" ry="1.947"/>
			
				<ellipse id="XMLID_113_" transform="matrix(0.9263 -0.3768 0.3768 0.9263 -86.0045 105.8841)" fill="#FFB66E" cx="227.661" cy="272.788" rx="3.895" ry="1.947"/>
			<circle id="XMLID_112_" fill="#FFB66E" cx="198.043" cy="194.769" r="1.947"/>
			
				<ellipse id="XMLID_111_" transform="matrix(0.9264 -0.3766 0.3766 0.9264 -24.3089 106.0483)" fill="#FFB66E" cx="259.08" cy="115.198" rx="2.11" ry="2.841"/>
			
				<ellipse id="XMLID_110_" transform="matrix(0.9264 -0.3766 0.3766 0.9264 -61.565 124.715)" fill="#FFB66E" cx="288.163" cy="219.804" rx="2.313" ry="0.973"/>
			
				<ellipse id="XMLID_109_" transform="matrix(0.9263 -0.3768 0.3768 0.9263 -64.5475 123.4104)" fill="#FFB66E" cx="283.222" cy="226.719" rx="3.247" ry="1.298"/>
			
				<ellipse id="XMLID_108_" transform="matrix(0.9263 -0.3767 0.3767 0.9263 -50.9852 91.8138)" fill="#FFB66E" cx="209.271" cy="176.274" rx="1.461" ry="2.191"/>
			
				<ellipse id="XMLID_107_" transform="matrix(0.9264 -0.3765 0.3765 0.9264 -65.6799 97.8922)" fill="#FFB66E" cx="217.579" cy="216.963" rx="1.948" ry="1.299"/>
			
				<ellipse id="XMLID_106_" transform="matrix(0.9264 -0.3765 0.3765 0.9264 -73.8871 118.8664)" fill="#FFB66E" cx="267.189" cy="248.481" rx="2.272" ry="0.486"/>
			
				<ellipse id="XMLID_105_" transform="matrix(0.9264 -0.3766 0.3766 0.9264 -59.7387 110.9869)" fill="#FFB66E" cx="254.001" cy="208.287" rx="2.922" ry="1.785"/>
			
				<ellipse id="XMLID_104_" transform="matrix(0.9264 -0.3766 0.3766 0.9264 -58.7695 102.2545)" fill="#FFB66E" cx="232.11" cy="201.418" rx="2.435" ry="1.136"/>
			
				<ellipse id="XMLID_102_" transform="matrix(0.9264 -0.3766 0.3766 0.9264 -37.9171 94.8507)" fill="#FFB66E" cx="223.649" cy="144.409" rx="1.136" ry="1.948"/>
			
				<ellipse id="XMLID_101_" transform="matrix(0.9264 -0.3766 0.3766 0.9264 -40.4843 103.4708)" fill="#FFB66E" cx="244.357" cy="155.263" rx="2.759" ry="1.623"/>
			
				<ellipse id="XMLID_100_" transform="matrix(0.9264 -0.3766 0.3766 0.9264 -56.5099 130.3964)" fill="#FFB66E" cx="305.219" cy="209.716" rx="1.461" ry="1.623"/>
			
				<ellipse id="XMLID_99_" transform="matrix(0.9263 -0.3768 0.3768 0.9263 -50.5803 120.0085)" fill="#FFB66E" cx="281.503" cy="189.309" rx="1.786" ry="1.541"/>
			
				<ellipse id="XMLID_98_" transform="matrix(0.9264 -0.3765 0.3765 0.9264 -61.6483 99.5975)" fill="#FFB66E" cx="223.991" cy="207.523" rx="1.866" ry="1.461"/>
			
				<ellipse id="XMLID_97_" transform="matrix(0.9263 -0.3768 0.3768 0.9263 -75.9253 102.8748)" fill="#FFB66E" cx="224.975" cy="245.495" rx="1.948" ry="0.974"/>
			
				<ellipse id="XMLID_96_" transform="matrix(0.9263 -0.3767 0.3767 0.9263 -48.2865 86.5483)" fill="#FFB66E" cx="197.161" cy="166.743" rx="1.948" ry="2.272"/>
			
				<ellipse id="XMLID_95_" transform="matrix(0.9263 -0.3768 0.3768 0.9263 -35.3372 109.1058)" fill="#FFB66E" cx="261.253" cy="144.89" rx="2.029" ry="1.623"/>
			
				<ellipse id="XMLID_93_" transform="matrix(0.9263 -0.3767 0.3767 0.9263 -68.0032 112.399)" fill="#FFB66E" cx="253.401" cy="230.083" rx="2.272" ry="0.974"/>
			
				<ellipse id="XMLID_92_" transform="matrix(0.9263 -0.3767 0.3767 0.9263 -39.7408 121.0081)" fill="#FFB66E" cx="289.548" cy="162.121" rx="1.948" ry="2.272"/>
			
				<ellipse id="XMLID_91_" transform="matrix(0.9264 -0.3765 0.3765 0.9264 -48.5254 105.2394)" fill="#FFB66E" cx="244.946" cy="176.75" rx="2.354" ry="0.975"/>
			
				<ellipse id="XMLID_89_" transform="matrix(0.9264 -0.3765 0.3765 0.9264 -46.1602 98.4486)" fill="#FFB66E" cx="228.752" cy="167.302" rx="1.461" ry="1.217"/>
			
				<ellipse id="XMLID_86_" transform="matrix(0.9264 -0.3766 0.3766 0.9264 -41.385 86.3702)" fill="#FFB66E" cx="200.21" cy="149.032" rx="1.866" ry="1.299"/>
			
				<ellipse id="XMLID_85_" transform="matrix(0.9264 -0.3766 0.3766 0.9264 -76.9841 109.3216)" fill="#FFB66E" cx="241.104" cy="251.552" rx="2.597" ry="1.298"/>
			
				<ellipse id="XMLID_84_" transform="matrix(0.9263 -0.3768 0.3768 0.9263 -51.8265 114.3442)" fill="#FFB66E" cx="266.405" cy="189.665" rx="1.623" ry="2.029"/>
			
				<ellipse id="XMLID_83_" transform="matrix(0.9264 -0.3765 0.3765 0.9264 -49.7708 99.9058)" fill="#FFB66E" cx="230.707" cy="177.283" rx="1.136" ry="1.948"/>
			
				<ellipse id="XMLID_82_" transform="matrix(0.9263 -0.3768 0.3768 0.9263 -42.8871 108.5109)" fill="#FFB66E" cx="255.92" cy="163.879" rx="1.623" ry="0.974"/>
			
				<ellipse id="XMLID_81_" transform="matrix(0.9264 -0.3766 0.3766 0.9264 -65.4459 92.7256)" fill="#FFB66E" cx="204.45" cy="213.76" rx="1.542" ry="1.014"/>
			
				<ellipse id="XMLID_80_" transform="matrix(0.9266 -0.3761 0.3761 0.9266 -65.451 104.8626)" fill="#FFB66E" cx="235.832" cy="220.054" rx="1.136" ry="0.001"/>
			
				<ellipse id="XMLID_79_" transform="matrix(0.9264 -0.3766 0.3766 0.9264 -31.4901 114.3494)" fill="#FFB66E" cx="276.735" cy="137.719" rx="0.73" ry="0.812"/>
			
				<ellipse id="XMLID_78_" transform="matrix(0.9264 -0.3767 0.3767 0.9264 -57.6408 124.1294)" fill="#FFB66E" cx="288.602" cy="209.463" rx="1.014" ry="0.973"/>
			
				<ellipse id="XMLID_77_" transform="matrix(0.9264 -0.3766 0.3766 0.9264 -68.0389 100.3376)" fill="#FFB66E" cx="222.624" cy="224.198" rx="1.948" ry="1.136"/>
		</g>
	</g>
	<g id="XMLID_94_">
		<g id="XMLID_38_">
			<path id="XMLID_42_" fill="#FFFFFF" stroke="#59331B" stroke-width="2" stroke-miterlimit="10" d="M475.276,40.739
				l65.662,120.405L521.9,171.527c0,0-50.641-71.541-56.161-107.21C460.217,28.647,469.213,29.619,475.276,40.739z"/>
			
				<rect id="XMLID_87_" x="523.443" y="165.494" transform="matrix(0.8779 -0.4788 0.4788 0.8779 -16.9652 276.6949)" fill="#8C5A2C" stroke="#59331B" stroke-width="2" stroke-miterlimit="10" width="21.471" height="12.252"/>
			<path id="XMLID_88_" fill="#2BC1B3" stroke="#59331B" stroke-width="2" stroke-miterlimit="10" d="M527.845,182.429
				c0,0,29.511,79.661,54.042,99.099c24.53,19.438,27.001-1.011,23.663-12.811c-3.341-11.8-58.854-96.569-58.854-96.569
				L527.845,182.429z"/>
		</g>
		<path id="XMLID_142_" fill="#3AEDD8" d="M605.971,278.659c-19.118-18.602-54.475-57.075-68.511-98.67l-4.573,2.418
			c0.342,1.508,0.562,2.443,0.562,2.443s27.015,71.594,67.114,103.929C604.186,287.365,605.731,283.247,605.971,278.659z"/>
		<g id="XMLID_26_">
			<path id="XMLID_33_" fill="#D8D8D8" d="M495.372,79.834l-11.158,29.101c1.966,3.542,4.003,7.067,6.06,10.512l11.086-28.911
				L495.372,79.834z"/>
			<path id="XMLID_28_" fill="#D8D8D8" d="M507.669,101.819l-10.844,28.285c2.186,3.458,4.319,6.749,6.334,9.799l10.498-27.381
				L507.669,101.819z"/>
		</g>
		<path id="XMLID_129_" fill="#FFFFFF" stroke="#59331B" stroke-width="2" stroke-miterlimit="10" d="M465.119,60.007
			c2.021-9.416,4.579-19.215,6.067-24.721C466.323,31.097,461.891,35.679,465.119,60.007z"/>
		<path id="XMLID_36_" fill="#7A4127" d="M475.276,40.739c-1.287-2.36-2.706-4.261-4.09-5.453
			c-1.488,5.505-4.047,15.305-6.067,24.721c-1.926,8.977-3.361,17.603-2.906,21.821c1.17,10.868,5.85,10.366,10.198,10.533
			c4.347,0.167-2.007,13.877,3.177,17.89c2.428,1.88,4.856,0.414,7.628-1.407c3.146-2.066,6.732-4.589,11.265-3.205
			c8.527,2.605,6.354,8.625,11.704,8.792c1.673,0.052,3.986-2.204,6.374-5.328L475.276,40.739z"/>
		<path id="XMLID_127_" fill="#8C5A2C" d="M505.738,108.887c-4.02,0.731-8.402-8.402-12.787-11.324
			c-4.383-2.923-10.958,6.575-14.978,2.557c-4.018-4.018,5.846-9.863,3.653-15.343c-2.192-5.479-7.307-0.73-12.055-5.845
			c-4.154-4.473,0.194-34.513,1.349-41.972c0.068-0.445,0.126-0.804,0.17-1.078l-0.004,0.01l0.1-0.605
			c-1.488,5.505-4.047,15.305-6.067,24.721c-1.926,8.977-3.361,17.603-2.906,21.821c1.17,10.868,5.85,10.366,10.198,10.533
			c4.347,0.167-2.007,13.877,3.177,17.89c2.428,1.88,4.856,0.414,7.628-1.407c3.146-2.066,6.732-4.589,11.265-3.205
			c8.527,2.605,6.354,8.625,11.704,8.792c1.673,0.052,3.986-2.204,6.374-5.328l-0.29-0.53
			C509.561,108.567,507.079,108.643,505.738,108.887z"/>
		<g id="XMLID_125_">
			<path fill="#BC8662" d="M513.289,108.373l-0.311-0.518l0.021,0.013l-3.581,0.205c-0.594,0.044-1.18,0.137-1.767,0.203
				c-0.589,0.054-1.15,0.178-1.825,0.192c-1.36-0.066-2.434-0.863-3.368-1.631c-0.939-0.797-1.771-1.686-2.575-2.583
				c-1.593-1.805-3.071-3.696-4.742-5.313c-0.841-0.774-1.73-1.606-2.609-1.843c-0.902-0.238-1.968,0.042-2.987,0.499
				c-2.077,0.909-3.974,2.418-6.44,3.309c-0.623,0.212-1.301,0.379-2.04,0.382c-0.734,0.008-1.527-0.194-2.177-0.599
				c-0.347-0.212-0.576-0.403-0.909-0.729l-0.3-0.333c-0.12-0.161-0.243-0.341-0.357-0.516c-0.407-0.675-0.583-1.508-0.525-2.257
				c0.119-1.517,0.792-2.665,1.395-3.744c0.628-1.073,1.301-2.062,1.896-3.06c0.593-0.993,1.13-1.998,1.404-3
				c0.283-0.992,0.262-1.988-0.142-2.791c-0.13-0.247-0.259-0.588-0.391-0.758c-0.144-0.154-0.22-0.348-0.39-0.49
				c-0.168-0.139-0.305-0.321-0.508-0.41l-0.28-0.17l-0.326-0.119c-0.88-0.323-2.073-0.313-3.309-0.429
				c-1.238-0.104-2.583-0.36-3.797-0.961c-0.294-0.165-0.606-0.302-0.882-0.494l-0.812-0.589c-0.255-0.211-0.483-0.449-0.723-0.675
				l-0.177-0.172l-0.089-0.086l-0.044-0.043c0.049,0.06-0.092-0.105-0.083-0.097l-0.017-0.022l-0.263-0.363
				c-0.175-0.251-0.385-0.685-0.525-1.007c-0.104-0.315-0.233-0.635-0.312-0.948c-0.172-0.628-0.284-1.249-0.387-1.867
				c-0.174-1.234-0.257-2.456-0.308-3.674c-0.084-2.433,0.001-4.845,0.146-7.249c0.285-4.806,0.852-9.573,1.515-14.32
				c0.718-4.74,1.463-9.472,2.433-14.164c-0.524,4.76-1.075,9.511-1.463,14.276c-0.429,4.758-0.782,9.523-0.931,14.277
				c-0.062,2.376-0.069,4.751,0.047,7.1c0.071,1.171,0.176,2.336,0.357,3.469c0.104,0.56,0.217,1.114,0.372,1.638
				c0.071,0.266,0.178,0.499,0.262,0.75c0.117,0.215,0.14,0.341,0.303,0.581l0.271,0.358l0.017,0.022
				c0.019,0.024-0.106-0.129-0.044-0.056l0.037,0.034l0.074,0.068l0.148,0.137c0.2,0.178,0.387,0.375,0.592,0.544l0.643,0.459
				c0.216,0.15,0.459,0.247,0.686,0.376c0.939,0.456,1.984,0.662,3.123,0.752c1.135,0.117,2.387,0.042,3.784,0.506l0.515,0.192
				c0.167,0.085,0.331,0.186,0.494,0.282c0.344,0.174,0.604,0.454,0.886,0.708c0.281,0.252,0.483,0.608,0.713,0.918
				c0.212,0.319,0.286,0.551,0.436,0.831c0.676,1.359,0.633,2.918,0.253,4.208c-0.373,1.307-1.002,2.423-1.635,3.477
				c-0.639,1.053-1.318,2.04-1.904,3.029c-0.579,0.978-1.092,2.001-1.168,2.894c-0.04,0.443,0.042,0.834,0.242,1.193
				c0.053,0.074,0.092,0.146,0.141,0.23l0.294,0.339c0.099,0.087,0.315,0.298,0.484,0.393c0.709,0.478,1.672,0.443,2.701,0.103
				c2.072-0.691,4.051-2.145,6.389-3.091c1.153-0.462,2.548-0.862,3.987-0.45c0.355,0.102,0.766,0.298,0.975,0.439
				c0.338,0.206,0.553,0.377,0.811,0.586c0.495,0.4,0.948,0.832,1.37,1.281c1.692,1.794,3.079,3.753,4.571,5.602
				c0.738,0.928,1.491,1.841,2.331,2.646c0.827,0.787,1.794,1.543,2.864,1.654c0.519,0.027,1.146-0.056,1.749-0.079
				c0.604-0.03,1.208,0.004,1.809-0.003L513,108h0.016l0.007-0.078L513.289,108.373z"/>
		</g>
	</g>
</g>
</svg>
