<svg version="1.1" xmlns="http://www.w3.org/2000/svg" xmlns:xlink="http://www.w3.org/1999/xlink" viewBox="0 0 768 430" enable-background="new 0 0 768 430" xml:space="preserve">
<g id="Layer_2">
</g>
<g id="Layer_1">
	<g>
		<path opacity="0.1" fill="#FFFFFF" stroke="#FFFFFF" stroke-width="4" stroke-miterlimit="10" d="M463.299,141.935
			c0-0.01,0.003-0.019,0.003-0.027c0-0.032-0.013-0.065-0.013-0.098c-0.012-0.132-0.021-0.267-0.031-0.398c0,0-0.023,0-0.024,0
			c-1.453-9.223-43.19-16.623-94.499-16.623c-51.312,0-93.053,7.399-94.502,16.624c0-0.001-0.024-0.001-0.021-0.002
			c-0.011,0.121-0.018,0.245-0.028,0.366c-0.002,0.043-0.018,0.087-0.018,0.131c0,0.011,0.004,0.024,0.004,0.036
			c-2.226,24.77-2.244,51.379-0.066,78.987c4.896,60.989,18.339,114.058,34.803,154.008c0.005,0,0.604,1.424,0.604,1.424
			c0,5.544,26.517,10.039,59.225,10.039c32.705,0,59.22-4.495,59.22-10.039l0,0c0.006,0,0.885-2.136,0.892-2.136
			c16.465-39.947,29.618-92.305,34.515-153.296C465.542,193.319,465.525,166.706,463.299,141.935z"/>
		<path fill="#AB783D" d="M273.244,207.674c0.237,4.394,0.511,8.807,0.86,13.258c4.896,60.989,18.923,115.483,35.387,155.432
			c0.006,0,0.013,0,0.02,0l0,0c0,5.544,26.517,10.039,59.225,10.039c32.705,0,59.22-4.495,59.22-10.039l0,0c0.006,0,0.015,0,0.021,0
			c16.464-39.948,30.489-94.44,35.386-155.432c0.354-4.451,0.625-8.864,0.862-13.258H273.244z"/>
		<path fill="#B88041" d="M463.302,207.674c0,9.453-42.341,17.12-94.567,17.12c-52.229,0-94.57-7.667-94.57-17.12
			c0-9.452,42.341-17.118,94.57-17.118C420.961,190.556,463.302,198.222,463.302,207.674z"/>
		<path opacity="0.1" fill="#FFFFFF" d="M290.332,206.005c-0.722,0.94-1.33,2.132-1.288,3.227c0.052,1.348,1.028,2.524,1.99,3.385
			c2.239,2.004,5.457,2.726,8.29,3.471c4.198,1.099,8.341,1.77,12.627,2.32c4.289,0.551,8.593,0.896,12.897,1.283
			c4.594,0.412,9.198,0.693,13.799,0.996c12.55,0.83,25.006,0.971,37.579,0.316c3.587-0.187,7.176-0.407,10.762-0.626
			c10.967-0.669,21.771-2.208,32.571-4.193c1.856-0.339,3.708-0.689,5.56-1.046c2.019-0.394,6.067-0.888,6.979-3.264
			c0.603-1.579-0.533-2.629-1.803-3.157c-2.699-1.123-7,0.091-9.794,0.457c-10.999,1.435-22.086,3.413-33.171,4.716
			c-6.436,0.757-13.111,2.356-19.612,2.328c-9.388-0.042-18.799,0.23-28.182-0.108c-2.723-0.098-37.161-2.53-41.215-5.784
			c-1.862-1.493-1.214-3.637,0.265-5.052c1.719-1.641,3.925-2.401,6.088-3.25c1.748-0.689,3.543-1.234,5.305-1.887
			c0.845-0.316,3.536-1.255,2.242-2.568c-1.396-1.417-3.967-1.591-5.833-1.201c-2.898,0.601-5.568,2.117-8.07,3.639
			c-2.446,1.485-5.125,3.092-7.187,5.102C290.866,205.366,290.592,205.67,290.332,206.005z"/>
		<g>
			<path fill="#EEEED4" d="M336.352,296.77c-0.464,1.512-2.113,2.353-3.685,1.871c-1.574-0.479-2.47-2.099-2.011-3.607
				c0.461-1.516,2.11-2.352,3.681-1.871C335.906,293.643,336.812,295.258,336.352,296.77z"/>
			<path fill="#EEEED4" d="M377.395,311.546c-0.539,1.774-2.473,2.755-4.321,2.195c-1.842-0.564-2.898-2.459-2.354-4.233
				c0.541-1.774,2.474-2.758,4.319-2.194C376.883,307.878,377.938,309.773,377.395,311.546z"/>
			<path fill="#EEEED4" d="M316.751,217.63c-0.542,1.771-2.478,2.755-4.32,2.194c-1.844-0.564-2.899-2.46-2.356-4.233
				c0.538-1.774,2.475-2.756,4.317-2.195C316.236,213.959,317.292,215.856,316.751,217.63z"/>
			<path fill="#EEEED4" d="M354.691,258.59c-0.541,1.777-2.476,2.761-4.321,2.195c-1.843-0.562-2.899-2.458-2.356-4.23
				c0.541-1.778,2.477-2.758,4.319-2.194C354.176,254.923,355.232,256.817,354.691,258.59z"/>
			<path fill="#EEEED4" d="M404.72,356.917c-0.54,1.771-2.474,2.755-4.318,2.19c-1.843-0.562-2.899-2.459-2.354-4.233
				c0.538-1.772,2.473-2.756,4.314-2.193C404.207,353.244,405.264,355.14,404.72,356.917z"/>
			<path fill="#EEEED4" d="M316.376,236.742c-0.543,1.772-2.474,2.756-4.318,2.196c-1.845-0.566-2.901-2.46-2.358-4.23
				c0.542-1.775,2.477-2.759,4.321-2.195C315.862,233.075,316.917,234.971,316.376,236.742z"/>
			<path fill="#EEEED4" d="M345.963,346.34c-0.54,1.775-2.474,2.756-4.321,2.191c-1.842-0.56-2.897-2.457-2.356-4.23
				s2.473-2.755,4.321-2.194C345.45,342.671,346.504,344.566,345.963,346.34z"/>
			<path fill="#EEEED4" d="M408.039,320.566c-0.543,1.773-2.476,2.756-4.316,2.194c-1.845-0.563-2.901-2.457-2.36-4.234
				c0.544-1.774,2.476-2.757,4.317-2.193C407.527,316.896,408.583,318.793,408.039,320.566z"/>
			<path fill="#EEEED4" d="M385.709,360.928c-0.542,1.771-2.475,2.755-4.318,2.193c-1.842-0.562-2.897-2.46-2.358-4.231
				c0.543-1.778,2.477-2.757,4.321-2.196C385.195,357.256,386.253,359.15,385.709,360.928z"/>
			<path fill="#EEEED4" d="M322.164,289.955c-0.29,0.955-1.332,1.479-2.318,1.177c-0.993-0.301-1.559-1.314-1.265-2.272
				c0.292-0.951,1.327-1.479,2.316-1.177C321.887,287.986,322.455,289.003,322.164,289.955z"/>
			<path fill="#EEEED4" d="M325.448,263.632c-0.209,0.692-0.964,1.073-1.677,0.855c-0.717-0.221-1.127-0.958-0.92-1.645
				c0.211-0.688,0.963-1.069,1.68-0.854C325.247,262.209,325.656,262.943,325.448,263.632z"/>
			
				<ellipse transform="matrix(0.9568 0.2907 -0.2907 0.9568 84.326 -87.4584)" fill="#EEEED4" cx="336.472" cy="240.039" rx="1.357" ry="1.305"/>
			<path fill="#EEEED4" d="M287.136,254.596c-0.208,0.688-0.963,1.072-1.677,0.854c-0.718-0.221-1.127-0.955-0.92-1.645
				c0.212-0.689,0.962-1.07,1.681-0.852C286.936,253.172,287.343,253.909,287.136,254.596z"/>
			
				<ellipse transform="matrix(0.9564 0.292 -0.292 0.9564 94.6233 -93.94)" fill="#EEEED4" cx="362.03" cy="270.038" rx="1.356" ry="1.305"/>
			
				<ellipse transform="matrix(0.9564 0.2921 -0.2921 0.9564 81.0557 -73.2471)" fill="#EEEED4" cx="285.838" cy="234.838" rx="3.491" ry="3.358"/>
			<path fill="#EEEED4" d="M297.814,247.696c-0.211,0.689-0.96,1.072-1.68,0.854c-0.714-0.219-1.126-0.956-0.915-1.644
				c0.211-0.691,0.961-1.072,1.678-0.855C297.613,246.272,298.025,247.011,297.814,247.696z"/>
			<path fill="#EEEED4" d="M342.164,307.48c-0.288,0.951-1.328,1.477-2.32,1.177c-0.987-0.303-1.556-1.32-1.266-2.272
				c0.291-0.951,1.332-1.481,2.324-1.182C341.891,305.508,342.455,306.528,342.164,307.48z"/>
			<path fill="#EEEED4" d="M373.225,326.981c-0.208,0.689-0.96,1.072-1.678,0.852c-0.715-0.218-1.124-0.953-0.911-1.641
				c0.207-0.689,0.961-1.072,1.673-0.854C373.027,325.561,373.438,326.295,373.225,326.981z"/>
			<path fill="#EEEED4" d="M443.188,306.132c-0.541,1.772-2.477,2.756-4.32,2.196c-1.844-0.565-2.899-2.46-2.355-4.237
				c0.54-1.771,2.474-2.753,4.321-2.189C442.672,302.463,443.73,304.357,443.188,306.132z"/>
			<path fill="#EEEED4" d="M458.049,248.545c-0.291,0.952-1.33,1.475-2.321,1.177c-0.99-0.306-1.557-1.319-1.267-2.272
				c0.295-0.952,1.33-1.481,2.323-1.18C457.771,246.573,458.338,247.593,458.049,248.545z"/>
			<path fill="#EEEED4" d="M355.309,345.715c-0.208,0.69-0.963,1.069-1.68,0.853c-0.714-0.221-1.125-0.954-0.912-1.644
				c0.207-0.688,0.961-1.072,1.674-0.854C355.11,344.292,355.519,345.027,355.309,345.715z"/>
			<path fill="#EEEED4" d="M376.708,350.308c-0.21,0.689-0.964,1.069-1.679,0.852c-0.716-0.218-1.127-0.951-0.916-1.645
				c0.208-0.686,0.963-1.069,1.682-0.851C376.508,348.884,376.915,349.618,376.708,350.308z"/>
			<path fill="#EEEED4" d="M411.785,353.223c-0.213,0.689-0.964,1.068-1.679,0.852c-0.717-0.219-1.128-0.955-0.915-1.645
				c0.207-0.688,0.961-1.072,1.678-0.853C411.582,351.794,411.994,352.534,411.785,353.223z"/>
			
				<ellipse transform="matrix(0.9563 0.2924 -0.2924 0.9563 95.8287 -113.6032)" fill="#EEEED4" cx="427.992" cy="263.809" rx="1.356" ry="1.304"/>
			<path fill="#EEEED4" d="M437.354,333.188c-0.211,0.687-0.962,1.071-1.679,0.851c-0.718-0.219-1.128-0.952-0.917-1.64
				c0.207-0.693,0.96-1.074,1.677-0.855C437.153,331.762,437.561,332.499,437.354,333.188z"/>
			<path fill="#EEEED4" d="M434.647,352.649c-0.211,0.689-0.961,1.07-1.679,0.854c-0.715-0.22-1.126-0.957-0.913-1.646
				c0.208-0.688,0.958-1.072,1.676-0.852C434.447,351.228,434.858,351.961,434.647,352.649z"/>
			<path fill="#EEEED4" d="M418.599,357.418c-0.209,0.688-0.96,1.071-1.677,0.854c-0.716-0.22-1.125-0.957-0.915-1.647
				c0.209-0.686,0.961-1.069,1.678-0.852C418.4,355.991,418.812,356.729,418.599,357.418z"/>
			<path fill="#EEEED4" d="M420.893,297.201c0.515,1.78-0.57,3.66-2.421,4.193c-1.85,0.539-3.77-0.472-4.285-2.254
				c-0.516-1.78,0.567-3.662,2.417-4.198C418.454,294.407,420.376,295.418,420.893,297.201z"/>
			<path fill="#EEEED4" d="M413.144,275.312c0.198,0.691-0.222,1.42-0.94,1.627c-0.721,0.211-1.467-0.185-1.668-0.873
				c-0.199-0.694,0.223-1.427,0.942-1.632C412.194,274.227,412.941,274.617,413.144,275.312z"/>
			<path fill="#EEEED4" d="M443.624,277.277c0.198,0.693-0.22,1.424-0.938,1.631c-0.722,0.21-1.468-0.184-1.668-0.877
				c-0.199-0.691,0.223-1.421,0.941-1.63C442.683,276.195,443.425,276.586,443.624,277.277z"/>
			<path fill="#EEEED4" d="M368.877,199.318c-0.211,0.688-0.962,1.07-1.679,0.852c-0.716-0.219-1.125-0.955-0.914-1.645
				c0.209-0.689,0.962-1.069,1.675-0.854C368.678,197.892,369.087,198.63,368.877,199.318z"/>
			
				<ellipse transform="matrix(0.9607 -0.2776 0.2776 0.9607 -41.7477 105.5967)" fill="#EEEED4" cx="352.049" cy="200.234" rx="1.357" ry="1.305"/>
			<path fill="#EEEED4" d="M444.551,198.664c-0.212,0.69-0.962,1.072-1.681,0.853c-0.714-0.22-1.124-0.956-0.912-1.644
				c0.208-0.69,0.961-1.069,1.677-0.855C444.351,197.238,444.762,197.974,444.551,198.664z"/>
			<path fill="#EEEED4" d="M421.243,200.514c0.199,0.69-0.22,1.419-0.938,1.627c-0.721,0.21-1.468-0.186-1.668-0.876
				c-0.198-0.693,0.223-1.422,0.941-1.63C420.297,199.426,421.042,199.818,421.243,200.514z"/>
			<path fill="#EEEED4" d="M385.027,208.261c0.199,0.692-0.22,1.423-0.937,1.629c-0.721,0.211-1.467-0.184-1.667-0.876
				c-0.2-0.69,0.22-1.419,0.938-1.628C384.084,207.176,384.828,207.57,385.027,208.261z"/>
			<path fill="#EEEED4" d="M432.789,290.039c0.199,0.692-0.22,1.424-0.938,1.632c-0.72,0.207-1.466-0.185-1.665-0.878
				c-0.201-0.689,0.221-1.423,0.938-1.631C431.843,288.953,432.589,289.347,432.789,290.039z"/>
			<path fill="#EEEED4" d="M402.438,228.667c-0.542,1.774-2.475,2.756-4.32,2.193c-1.845-0.563-2.899-2.46-2.356-4.233
				c0.543-1.774,2.478-2.753,4.319-2.19C401.924,224.997,402.979,226.893,402.438,228.667z"/>
			<path fill="#EEEED4" d="M370.917,215.762c-0.539,1.771-2.473,2.754-4.317,2.189c-1.844-0.561-2.899-2.456-2.356-4.229
				c0.541-1.774,2.473-2.757,4.316-2.195C370.405,212.091,371.461,213.985,370.917,215.762z"/>
			
				<ellipse transform="matrix(0.9564 0.292 -0.292 0.9564 87.8323 -115.1678)" fill="#EEEED4" cx="429.744" cy="236.667" rx="3.49" ry="3.36"/>
			<path fill="#EEEED4" d="M351.907,219.774c-0.541,1.771-2.475,2.755-4.321,2.19c-1.841-0.562-2.897-2.457-2.356-4.23
				c0.543-1.775,2.479-2.757,4.321-2.195C351.393,216.104,352.449,217.996,351.907,219.774z"/>
			<path fill="#EEEED4" d="M425.608,212.646c-0.207,0.688-0.96,1.07-1.679,0.854c-0.715-0.221-1.124-0.958-0.913-1.648
				c0.208-0.69,0.961-1.069,1.676-0.852C425.409,211.218,425.82,211.958,425.608,212.646z"/>
			<path fill="#EEEED4" d="M398.268,244.102c-0.211,0.689-0.962,1.072-1.677,0.853c-0.718-0.218-1.126-0.955-0.915-1.645
				c0.209-0.687,0.962-1.07,1.677-0.853C398.067,242.68,398.478,243.414,398.268,244.102z"/>
			<path fill="#EEEED4" d="M380.35,262.837c-0.207,0.689-0.964,1.067-1.678,0.852c-0.714-0.222-1.125-0.952-0.915-1.644
				c0.208-0.689,0.96-1.073,1.675-0.853C380.151,261.409,380.56,262.147,380.35,262.837z"/>
			<path fill="#EEEED4" d="M342.903,209.152c-0.21,0.69-0.961,1.072-1.676,0.854c-0.717-0.217-1.129-0.955-0.917-1.645
				c0.211-0.685,0.963-1.068,1.68-0.851C342.705,207.729,343.115,208.466,342.903,209.152z"/>
			<path fill="#EEEED4" d="M299.166,201.743c-0.211,0.689-0.963,1.07-1.68,0.852c-0.714-0.22-1.125-0.955-0.914-1.645
				c0.209-0.691,0.961-1.069,1.677-0.851C298.966,200.315,299.376,201.052,299.166,201.743z"/>
			
				<ellipse transform="matrix(0.9565 0.2917 -0.2917 0.9565 101.0789 -92.8669)" fill="#EEEED4" cx="362.03" cy="292.602" rx="1.356" ry="1.306"/>
			
				<ellipse transform="matrix(0.9564 0.292 -0.292 0.9564 78.1898 -109.1494)" fill="#EEEED4" cx="404.702" cy="207.33" rx="1.356" ry="1.305"/>
			<path fill="#EEEED4" d="M367.025,235.089c-0.211,0.688-0.962,1.069-1.68,0.854c-0.715-0.219-1.124-0.957-0.911-1.647
				c0.207-0.688,0.958-1.07,1.675-0.85C366.827,233.664,367.234,234.402,367.025,235.089z"/>
			<path fill="#EEEED4" d="M283.653,212.644c-0.211,0.69-0.96,1.072-1.679,0.854c-0.715-0.218-1.125-0.956-0.913-1.646
				c0.208-0.69,0.96-1.069,1.676-0.85C283.454,211.222,283.862,211.958,283.653,212.644z"/>
			<path fill="#EEEED4" d="M296.735,266.925c1.751-0.6,3.684,0.388,4.312,2.213c0.625,1.823-0.29,3.792-2.045,4.393
				c-1.755,0.602-3.682-0.39-4.309-2.209C294.065,269.498,294.981,267.529,296.735,266.925z"/>
			<path fill="#EEEED4" d="M304.786,293.075c1.75-0.599,3.684,0.387,4.307,2.212c0.63,1.823-0.286,3.79-2.04,4.39
				c-1.755,0.604-3.686-0.385-4.312-2.205C302.114,295.647,303.029,293.679,304.786,293.075z"/>
			<path fill="#EEEED4" d="M317.371,330.8c1.75-0.602,3.684,0.386,4.31,2.213c0.624,1.819-0.289,3.786-2.042,4.391
				c-1.756,0.604-3.688-0.388-4.312-2.208C314.701,333.37,315.613,331.404,317.371,330.8z"/>
			<path fill="#EEEED4" d="M311.681,261.244c0.68-0.231,1.432,0.149,1.673,0.858c0.244,0.707-0.111,1.472-0.794,1.703
				c-0.678,0.236-1.432-0.149-1.673-0.856C310.644,262.242,311,261.478,311.681,261.244z"/>
			<path fill="#EEEED4" d="M294.056,282.257c0.68-0.231,1.429,0.152,1.673,0.858c0.241,0.708-0.112,1.475-0.793,1.707
				c-0.683,0.238-1.431-0.148-1.676-0.858C293.017,283.258,293.374,282.494,294.056,282.257z"/>
			<path fill="#EEEED4" d="M319.319,304.339c0.682-0.234,1.432,0.149,1.676,0.857c0.243,0.707-0.114,1.473-0.798,1.706
				c-0.68,0.236-1.429-0.146-1.671-0.858C318.282,305.336,318.64,304.572,319.319,304.339z"/>
			<path fill="#EEEED4" d="M322.409,201.743c-0.211,0.686-0.963,1.07-1.678,0.852c-0.717-0.22-1.125-0.955-0.915-1.645
				c0.208-0.688,0.958-1.073,1.678-0.854C322.208,200.314,322.622,201.051,322.409,201.743z"/>
			<path fill="#EEEED4" d="M445.937,214.32c0.512,1.781-0.569,3.662-2.424,4.196c-1.85,0.538-3.77-0.473-4.285-2.255
				c-0.517-1.781,0.567-3.662,2.418-4.199C443.495,211.525,445.417,212.539,445.937,214.32z"/>
			<path fill="#EEEED4" d="M383.677,285.824c0.198,0.691-0.225,1.42-0.941,1.632c-0.723,0.207-1.465-0.186-1.668-0.877
				c-0.199-0.693,0.224-1.423,0.942-1.632C382.729,284.74,383.476,285.132,383.677,285.824z"/>
			<path fill="#EEEED4" d="M333.082,361.328c-0.464,1.513-2.115,2.352-3.684,1.871c-1.575-0.48-2.472-2.097-2.011-3.609
				c0.461-1.513,2.11-2.349,3.682-1.869C332.638,358.201,333.543,359.815,333.082,361.328z"/>
			<path fill="#EEEED4" d="M347.727,369.64c-0.541,1.775-2.476,2.758-4.32,2.191c-1.845-0.559-2.9-2.458-2.357-4.23
				c0.541-1.775,2.476-2.755,4.317-2.191C347.214,365.971,348.269,367.863,347.727,369.64z"/>
			
				<ellipse transform="matrix(0.9562 0.2927 -0.2927 0.9562 117.4993 -77.3162)" fill="#EEEED4" cx="317.103" cy="353.967" rx="1.873" ry="1.802"/>
			<path fill="#EEEED4" d="M318.485,374.681c-0.209,0.69-0.965,1.071-1.677,0.854c-0.719-0.219-1.127-0.958-0.92-1.646
				c0.212-0.688,0.961-1.068,1.681-0.853C318.282,373.257,318.691,373.991,318.485,374.681z"/>
			<path fill="#EEEED4" d="M356.363,381.481c-0.21,0.687-0.96,1.071-1.679,0.854c-0.714-0.22-1.125-0.958-0.916-1.645
				c0.212-0.692,0.962-1.073,1.679-0.854C356.162,380.056,356.576,380.793,356.363,381.481z"/>
			<path fill="#EEEED4" d="M373.385,373.885c-0.208,0.689-0.963,1.067-1.678,0.852c-0.714-0.221-1.125-0.953-0.915-1.646
				c0.208-0.687,0.963-1.071,1.678-0.851C373.186,372.457,373.597,373.196,373.385,373.885z"/>
			<path fill="#EEEED4" d="M400.282,375.401c-0.211,0.687-0.963,1.067-1.679,0.851c-0.716-0.221-1.127-0.954-0.916-1.642
				c0.21-0.691,0.961-1.071,1.679-0.853C400.081,373.975,400.493,374.71,400.282,375.401z"/>
			<path fill="#EEEED4" d="M300.108,313.189c1.754-0.599,3.684,0.388,4.311,2.213c0.628,1.824-0.29,3.79-2.044,4.391
				c-1.755,0.602-3.682-0.39-4.309-2.209C297.438,315.764,298.355,313.792,300.108,313.189z"/>
			<path fill="#EEEED4" d="M343.497,321.018c0.678-0.233,1.429,0.149,1.671,0.858c0.246,0.706-0.112,1.47-0.793,1.702
				c-0.681,0.237-1.433-0.149-1.675-0.856C342.459,322.016,342.813,321.249,343.497,321.018z"/>
			<path fill="#EEEED4" d="M301.105,333.765c0.68-0.235,1.428,0.151,1.672,0.857c0.243,0.709-0.111,1.474-0.792,1.708
				c-0.683,0.236-1.432-0.148-1.677-0.861C300.066,334.764,300.423,334,301.105,333.765z"/>
			<path fill="#EEEED4" d="M420.632,368.229c0.198,0.689-0.225,1.418-0.941,1.629c-0.722,0.209-1.466-0.185-1.668-0.876
				c-0.197-0.693,0.225-1.422,0.941-1.633C419.685,367.142,420.431,367.535,420.632,368.229z"/>
			<path fill="#EEEED4" d="M394.371,198.546c0.196,0.69-0.222,1.422-0.939,1.629c-0.722,0.21-1.464-0.184-1.667-0.876
				c-0.201-0.693,0.222-1.422,0.939-1.629C393.425,197.462,394.171,197.854,394.371,198.546z"/>
			
				<ellipse transform="matrix(0.9606 -0.278 0.278 0.9606 -39.7008 135.1078)" fill="#EEEED4" cx="456.529" cy="207.536" rx="1.357" ry="1.306"/>
		</g>
		<g opacity="0.15">
			<path fill="#FFFFFF" d="M402.778,296.77c0.465,1.512,2.113,2.353,3.686,1.871c1.573-0.479,2.469-2.099,2.009-3.607
				c-0.46-1.516-2.107-2.352-3.68-1.871C403.224,293.643,402.318,295.258,402.778,296.77z"/>
			
				<ellipse transform="matrix(-0.9564 0.292 -0.292 -0.9564 804.9149 500.9054)" fill="#FFFFFF" cx="365.073" cy="310.527" rx="3.49" ry="3.361"/>
			<path fill="#FFFFFF" d="M422.378,217.63c0.543,1.771,2.479,2.755,4.321,2.194c1.844-0.564,2.898-2.46,2.354-4.233
				c-0.536-1.774-2.474-2.756-4.317-2.195C422.894,213.959,421.838,215.856,422.378,217.63z"/>
			<path fill="#FFFFFF" d="M384.439,258.59c0.541,1.777,2.475,2.761,4.319,2.195c1.845-0.562,2.901-2.458,2.357-4.23
				c-0.54-1.778-2.477-2.758-4.318-2.194C384.954,254.923,383.897,256.817,384.439,258.59z"/>
			<path fill="#FFFFFF" d="M334.41,356.917c0.541,1.771,2.474,2.755,4.319,2.19c1.843-0.562,2.899-2.459,2.354-4.233
				c-0.539-1.772-2.473-2.756-4.315-2.193C334.924,353.244,333.867,355.14,334.41,356.917z"/>
			<path fill="#FFFFFF" d="M422.754,236.742c0.543,1.772,2.474,2.756,4.319,2.196c1.844-0.566,2.899-2.46,2.358-4.23
				c-0.543-1.775-2.479-2.759-4.321-2.195C423.268,233.075,422.214,234.971,422.754,236.742z"/>
			<path fill="#FFFFFF" d="M393.167,346.34c0.541,1.775,2.473,2.756,4.32,2.191c1.841-0.56,2.897-2.457,2.355-4.23
				c-0.539-1.773-2.473-2.755-4.319-2.194C393.68,342.671,392.626,344.566,393.167,346.34z"/>
			<path fill="#FFFFFF" d="M331.09,320.566c0.543,1.773,2.477,2.756,4.319,2.194c1.843-0.563,2.898-2.457,2.358-4.234
				c-0.543-1.774-2.477-2.757-4.317-2.193C331.602,316.896,330.547,318.793,331.09,320.566z"/>
			<path fill="#FFFFFF" d="M353.421,360.928c0.542,1.771,2.474,2.755,4.319,2.193c1.842-0.562,2.897-2.46,2.358-4.231
				c-0.543-1.778-2.477-2.757-4.321-2.196C353.935,357.256,352.878,359.15,353.421,360.928z"/>
			<path fill="#FFFFFF" d="M416.966,289.955c0.29,0.955,1.331,1.479,2.319,1.177c0.99-0.301,1.558-1.314,1.265-2.272
				c-0.293-0.951-1.326-1.479-2.316-1.177C417.245,287.986,416.676,289.003,416.966,289.955z"/>
			<path fill="#FFFFFF" d="M413.682,263.632c0.209,0.692,0.963,1.073,1.678,0.855c0.717-0.221,1.126-0.958,0.92-1.645
				c-0.213-0.688-0.964-1.069-1.681-0.854C413.882,262.209,413.474,262.943,413.682,263.632z"/>
			<path fill="#FFFFFF" d="M401.36,240.434c0.21,0.691,0.963,1.072,1.676,0.854c0.719-0.219,1.13-0.956,0.921-1.644
				c-0.211-0.689-0.963-1.072-1.682-0.853C401.561,239.01,401.152,239.746,401.36,240.434z"/>
			<path fill="#FFFFFF" d="M451.994,254.596c0.209,0.688,0.964,1.072,1.676,0.854c0.72-0.221,1.129-0.955,0.921-1.645
				c-0.213-0.689-0.962-1.07-1.682-0.852C452.193,253.172,451.786,253.909,451.994,254.596z"/>
			
				<ellipse transform="matrix(-0.9564 0.292 -0.292 -0.9564 816.6147 418.1999)" fill="#FFFFFF" cx="377.1" cy="270.038" rx="1.356" ry="1.304"/>
			<path fill="#FFFFFF" d="M449.954,235.857c0.539,1.772,2.475,2.757,4.32,2.191c1.842-0.561,2.898-2.458,2.356-4.23
				c-0.541-1.775-2.477-2.758-4.319-2.193C450.469,232.188,449.41,234.082,449.954,235.857z"/>
			<path fill="#FFFFFF" d="M441.317,247.696c0.209,0.689,0.96,1.072,1.679,0.854c0.715-0.219,1.125-0.956,0.915-1.644
				c-0.211-0.691-0.961-1.072-1.678-0.855C441.518,246.272,441.104,247.011,441.317,247.696z"/>
			<path fill="#FFFFFF" d="M396.966,307.48c0.288,0.951,1.329,1.477,2.32,1.177c0.987-0.303,1.556-1.32,1.265-2.272
				c-0.289-0.951-1.329-1.481-2.321-1.182C397.239,305.508,396.676,306.528,396.966,307.48z"/>
			<path fill="#FFFFFF" d="M365.904,326.981c0.21,0.689,0.962,1.072,1.679,0.852c0.716-0.218,1.124-0.953,0.913-1.641
				c-0.208-0.689-0.962-1.072-1.675-0.854C366.104,325.561,365.692,326.295,365.904,326.981z"/>
			<path fill="#FFFFFF" d="M295.941,306.132c0.541,1.772,2.476,2.756,4.321,2.196c1.844-0.565,2.899-2.46,2.355-4.237
				c-0.54-1.771-2.473-2.753-4.319-2.189C296.457,302.463,295.401,304.357,295.941,306.132z"/>
			<path fill="#FFFFFF" d="M281.082,248.545c0.29,0.952,1.329,1.475,2.32,1.177c0.991-0.306,1.559-1.319,1.268-2.272
				c-0.294-0.952-1.331-1.481-2.324-1.18C281.357,246.573,280.792,247.593,281.082,248.545z"/>
			<path fill="#FFFFFF" d="M383.821,345.715c0.208,0.69,0.964,1.069,1.681,0.853c0.715-0.221,1.125-0.954,0.911-1.644
				c-0.207-0.688-0.962-1.072-1.674-0.854C384.02,344.292,383.611,345.027,383.821,345.715z"/>
			<path fill="#FFFFFF" d="M362.423,350.308c0.21,0.689,0.963,1.069,1.678,0.852c0.717-0.218,1.127-0.951,0.915-1.645
				c-0.208-0.686-0.962-1.069-1.68-0.851C362.622,348.884,362.215,349.618,362.423,350.308z"/>
			<path fill="#FFFFFF" d="M327.346,353.223c0.212,0.689,0.963,1.068,1.678,0.852c0.717-0.219,1.127-0.955,0.915-1.645
				c-0.207-0.688-0.96-1.072-1.678-0.853C327.546,351.794,327.136,352.534,327.346,353.223z"/>
			<path fill="#FFFFFF" d="M309.84,264.205c0.211,0.689,0.963,1.069,1.679,0.851c0.717-0.218,1.127-0.954,0.915-1.644
				c-0.208-0.689-0.961-1.069-1.675-0.853C310.042,262.777,309.63,263.516,309.84,264.205z"/>
			<path fill="#FFFFFF" d="M301.778,333.188c0.21,0.687,0.961,1.071,1.677,0.851c0.716-0.219,1.128-0.952,0.916-1.64
				c-0.208-0.693-0.96-1.074-1.675-0.855C301.978,331.762,301.568,332.499,301.778,333.188z"/>
			<path fill="#FFFFFF" d="M304.481,352.649c0.213,0.689,0.962,1.07,1.681,0.854c0.714-0.22,1.125-0.957,0.913-1.646
				c-0.208-0.688-0.958-1.072-1.675-0.852C304.683,351.228,304.273,351.961,304.481,352.649z"/>
			<path fill="#FFFFFF" d="M320.531,357.418c0.21,0.688,0.961,1.071,1.678,0.854c0.716-0.22,1.125-0.957,0.916-1.647
				c-0.209-0.686-0.961-1.069-1.678-0.852C320.729,355.991,320.318,356.729,320.531,357.418z"/>
			<path fill="#FFFFFF" d="M318.237,297.201c-0.514,1.78,0.57,3.66,2.422,4.193c1.848,0.539,3.768-0.472,4.285-2.254
				c0.515-1.78-0.567-3.662-2.417-4.198C320.675,294.407,318.754,295.418,318.237,297.201z"/>
			<path fill="#FFFFFF" d="M325.987,275.312c-0.198,0.691,0.222,1.42,0.939,1.627c0.722,0.211,1.468-0.185,1.668-0.873
				c0.201-0.694-0.222-1.427-0.941-1.632C326.935,274.227,326.189,274.617,325.987,275.312z"/>
			<path fill="#FFFFFF" d="M295.506,277.277c-0.199,0.693,0.221,1.424,0.937,1.631c0.723,0.21,1.467-0.184,1.669-0.877
				c0.2-0.691-0.222-1.421-0.941-1.63C296.449,276.195,295.705,276.586,295.506,277.277z"/>
			<path fill="#FFFFFF" d="M370.252,199.318c0.211,0.688,0.963,1.07,1.68,0.852c0.715-0.219,1.126-0.955,0.914-1.645
				c-0.208-0.689-0.962-1.069-1.675-0.854C370.454,197.892,370.042,198.63,370.252,199.318z"/>
			<path fill="#FFFFFF" d="M385.777,199.857c-0.199,0.692,0.22,1.418,0.938,1.63c0.722,0.208,1.467-0.186,1.668-0.876
				c0.198-0.694-0.222-1.423-0.942-1.632C386.724,198.771,385.979,199.163,385.777,199.857z"/>
			<path fill="#FFFFFF" d="M294.579,198.664c0.21,0.69,0.963,1.072,1.68,0.853c0.715-0.22,1.125-0.956,0.914-1.644
				c-0.21-0.69-0.962-1.069-1.677-0.855C294.78,197.238,294.368,197.974,294.579,198.664z"/>
			<path fill="#FFFFFF" d="M317.885,200.514c-0.2,0.69,0.222,1.419,0.939,1.627c0.722,0.21,1.468-0.186,1.668-0.876
				c0.197-0.693-0.222-1.422-0.942-1.63C318.832,199.426,318.088,199.818,317.885,200.514z"/>
			<path fill="#FFFFFF" d="M354.102,208.261c-0.198,0.692,0.221,1.423,0.938,1.629c0.721,0.211,1.467-0.184,1.667-0.876
				c0.202-0.69-0.219-1.419-0.938-1.628C355.045,207.176,354.302,207.57,354.102,208.261z"/>
			<path fill="#FFFFFF" d="M306.341,290.039c-0.2,0.692,0.22,1.424,0.939,1.632c0.719,0.207,1.465-0.185,1.665-0.878
				c0.201-0.689-0.221-1.423-0.939-1.631C307.287,288.953,306.541,289.347,306.341,290.039z"/>
			<path fill="#FFFFFF" d="M336.691,228.667c0.542,1.774,2.477,2.756,4.321,2.193c1.844-0.563,2.899-2.46,2.355-4.233
				c-0.543-1.774-2.477-2.753-4.318-2.19C337.205,224.997,336.15,226.893,336.691,228.667z"/>
			<path fill="#FFFFFF" d="M368.212,215.762c0.542,1.771,2.474,2.754,4.319,2.189c1.844-0.561,2.899-2.456,2.355-4.229
				c-0.541-1.774-2.474-2.757-4.317-2.195C368.725,212.091,367.669,213.985,368.212,215.762z"/>
			
				<ellipse transform="matrix(-0.9564 0.292 -0.292 -0.9564 674.3998 372.6664)" fill="#FFFFFF" cx="309.386" cy="236.667" rx="3.49" ry="3.36"/>
			<path fill="#FFFFFF" d="M387.224,219.774c0.54,1.771,2.475,2.755,4.32,2.19c1.84-0.562,2.897-2.457,2.356-4.23
				c-0.543-1.775-2.478-2.757-4.321-2.195C387.737,216.104,386.682,217.996,387.224,219.774z"/>
			<path fill="#FFFFFF" d="M313.521,212.646c0.207,0.688,0.96,1.07,1.679,0.854c0.714-0.221,1.124-0.958,0.913-1.648
				c-0.208-0.69-0.961-1.069-1.675-0.852C313.721,211.218,313.311,211.958,313.521,212.646z"/>
			<path fill="#FFFFFF" d="M340.863,244.102c0.211,0.689,0.961,1.072,1.676,0.853c0.718-0.218,1.126-0.955,0.915-1.645
				c-0.209-0.687-0.962-1.07-1.677-0.853C341.062,242.68,340.652,243.414,340.863,244.102z"/>
			<path fill="#FFFFFF" d="M358.78,262.837c0.207,0.689,0.963,1.067,1.678,0.852c0.714-0.222,1.126-0.952,0.915-1.644
				c-0.208-0.689-0.962-1.073-1.675-0.853C358.979,261.409,358.57,262.147,358.78,262.837z"/>
			<path fill="#FFFFFF" d="M396.226,209.152c0.212,0.69,0.963,1.072,1.677,0.854c0.718-0.217,1.13-0.955,0.918-1.645
				c-0.212-0.685-0.963-1.068-1.681-0.851C396.426,207.729,396.016,208.466,396.226,209.152z"/>
			<path fill="#FFFFFF" d="M439.964,201.743c0.212,0.689,0.964,1.07,1.681,0.852c0.715-0.22,1.125-0.955,0.915-1.645
				c-0.21-0.691-0.962-1.069-1.678-0.851C440.164,200.315,439.754,201.052,439.964,201.743z"/>
			
				<ellipse transform="matrix(-0.9565 0.2917 -0.2917 -0.9565 823.1445 462.4983)" fill="#FFFFFF" cx="377.1" cy="292.602" rx="1.356" ry="1.306"/>
			<path fill="#FFFFFF" d="M333.132,207.726c0.208,0.689,0.961,1.069,1.675,0.852c0.718-0.218,1.128-0.955,0.918-1.644
				c-0.21-0.692-0.96-1.072-1.68-0.854C333.331,206.298,332.922,207.037,333.132,207.726z"/>
			<path fill="#FFFFFF" d="M372.105,235.089c0.211,0.688,0.961,1.069,1.68,0.854c0.715-0.219,1.124-0.957,0.911-1.647
				c-0.207-0.688-0.958-1.07-1.676-0.85C372.304,233.664,371.896,234.402,372.105,235.089z"/>
			<path fill="#FFFFFF" d="M455.478,212.644c0.209,0.69,0.961,1.072,1.68,0.854c0.713-0.218,1.123-0.956,0.912-1.646
				c-0.207-0.69-0.961-1.069-1.678-0.85C455.677,211.222,455.267,211.958,455.478,212.644z"/>
			<path fill="#FFFFFF" d="M442.395,266.925c-1.752-0.6-3.684,0.388-4.312,2.213c-0.626,1.823,0.29,3.792,2.046,4.393
				c1.756,0.602,3.684-0.39,4.309-2.209C445.065,269.498,444.15,267.529,442.395,266.925z"/>
			<path fill="#FFFFFF" d="M434.344,293.075c-1.749-0.599-3.684,0.387-4.307,2.212c-0.63,1.823,0.285,3.79,2.04,4.39
				c1.756,0.604,3.686-0.385,4.31-2.205C437.017,295.647,436.1,293.679,434.344,293.075z"/>
			<path fill="#FFFFFF" d="M421.758,330.8c-1.75-0.602-3.683,0.386-4.309,2.213c-0.624,1.819,0.289,3.786,2.043,4.391
				c1.755,0.604,3.687-0.388,4.312-2.208C424.43,333.37,423.517,331.404,421.758,330.8z"/>
			<path fill="#FFFFFF" d="M427.449,261.244c-0.678-0.231-1.432,0.149-1.674,0.858c-0.242,0.707,0.111,1.472,0.796,1.703
				c0.678,0.236,1.431-0.149,1.672-0.856C428.486,262.242,428.13,261.478,427.449,261.244z"/>
			<path fill="#FFFFFF" d="M445.074,282.257c-0.681-0.231-1.429,0.152-1.673,0.858c-0.241,0.708,0.111,1.475,0.792,1.707
				c0.683,0.238,1.432-0.148,1.678-0.858C446.114,283.258,445.757,282.494,445.074,282.257z"/>
			<path fill="#FFFFFF" d="M419.812,304.339c-0.683-0.234-1.433,0.149-1.677,0.857c-0.243,0.707,0.114,1.473,0.798,1.706
				c0.679,0.236,1.428-0.146,1.671-0.858C420.847,305.336,420.491,304.572,419.812,304.339z"/>
			<path fill="#FFFFFF" d="M416.722,201.743c0.209,0.686,0.963,1.07,1.677,0.852c0.717-0.22,1.126-0.955,0.915-1.645
				c-0.208-0.688-0.959-1.073-1.678-0.854C416.922,200.314,416.509,201.051,416.722,201.743z"/>
			<path fill="#FFFFFF" d="M293.194,214.32c-0.513,1.781,0.569,3.662,2.423,4.196c1.849,0.538,3.77-0.473,4.285-2.255
				c0.517-1.781-0.567-3.662-2.417-4.199C295.634,211.525,293.713,212.539,293.194,214.32z"/>
			<path fill="#FFFFFF" d="M355.454,285.824c-0.198,0.691,0.224,1.42,0.94,1.632c0.722,0.207,1.465-0.186,1.669-0.877
				c0.198-0.693-0.224-1.423-0.941-1.632C356.401,284.74,355.655,285.132,355.454,285.824z"/>
			<path fill="#FFFFFF" d="M406.049,361.328c0.463,1.513,2.114,2.352,3.683,1.871c1.574-0.48,2.472-2.097,2.012-3.609
				c-0.461-1.513-2.11-2.349-3.683-1.869C406.493,358.201,405.588,359.815,406.049,361.328z"/>
			<path fill="#FFFFFF" d="M391.402,369.64c0.542,1.775,2.476,2.758,4.321,2.191c1.844-0.559,2.899-2.458,2.356-4.23
				c-0.54-1.775-2.476-2.755-4.317-2.191C391.916,365.971,390.859,367.863,391.402,369.64z"/>
			<path fill="#FFFFFF" d="M420.235,354.516c0.289,0.95,1.331,1.476,2.317,1.175c0.992-0.302,1.561-1.314,1.266-2.271
				c-0.292-0.953-1.328-1.479-2.317-1.177C420.514,352.546,419.945,353.562,420.235,354.516z"/>
			<path fill="#FFFFFF" d="M420.646,374.681c0.208,0.69,0.965,1.071,1.676,0.854c0.72-0.219,1.128-0.958,0.92-1.646
				c-0.21-0.688-0.961-1.068-1.681-0.853C420.847,373.257,420.438,373.991,420.646,374.681z"/>
			<path fill="#FFFFFF" d="M382.766,381.481c0.211,0.687,0.961,1.071,1.679,0.854c0.716-0.22,1.128-0.958,0.916-1.645
				c-0.211-0.692-0.961-1.073-1.679-0.854C382.969,380.056,382.556,380.793,382.766,381.481z"/>
			<path fill="#FFFFFF" d="M365.745,373.885c0.208,0.689,0.963,1.067,1.678,0.852c0.714-0.221,1.125-0.953,0.915-1.646
				c-0.208-0.687-0.963-1.071-1.678-0.851C365.943,372.457,365.533,373.196,365.745,373.885z"/>
			<path fill="#FFFFFF" d="M338.848,375.401c0.211,0.687,0.963,1.067,1.679,0.851c0.716-0.221,1.127-0.954,0.915-1.642
				c-0.209-0.691-0.96-1.071-1.678-0.853C339.048,373.975,338.636,374.71,338.848,375.401z"/>
			<path fill="#FFFFFF" d="M439.021,313.189c-1.752-0.599-3.685,0.388-4.311,2.213c-0.628,1.824,0.29,3.79,2.045,4.391
				c1.754,0.602,3.682-0.39,4.309-2.209C441.69,315.764,440.774,313.792,439.021,313.189z"/>
			<path fill="#FFFFFF" d="M395.635,321.018c-0.68-0.233-1.431,0.149-1.673,0.858c-0.245,0.706,0.111,1.47,0.793,1.702
				c0.68,0.237,1.433-0.149,1.676-0.856C396.671,322.016,396.317,321.249,395.635,321.018z"/>
			<path fill="#FFFFFF" d="M438.024,333.765c-0.68-0.235-1.428,0.151-1.672,0.857c-0.242,0.709,0.111,1.474,0.793,1.708
				c0.681,0.236,1.431-0.148,1.677-0.861C439.064,334.764,438.707,334,438.024,333.765z"/>
			<path fill="#FFFFFF" d="M318.498,368.229c-0.198,0.689,0.225,1.418,0.94,1.629c0.722,0.209,1.467-0.185,1.669-0.876
				c0.198-0.693-0.225-1.422-0.942-1.633C319.446,367.142,318.7,367.535,318.498,368.229z"/>
			<path fill="#FFFFFF" d="M344.759,198.546c-0.198,0.69,0.222,1.422,0.938,1.629c0.722,0.21,1.466-0.184,1.667-0.876
				c0.202-0.693-0.221-1.422-0.939-1.629C345.705,197.462,344.961,197.854,344.759,198.546z"/>
			<path fill="#FFFFFF" d="M281.298,207.159c-0.202,0.691,0.222,1.425,0.941,1.632c0.719,0.206,1.462-0.185,1.664-0.877
				c0.202-0.69-0.222-1.422-0.938-1.631C282.243,206.073,281.497,206.467,281.298,207.159z"/>
		</g>
		<g>
			<ellipse fill="none" stroke="#FFFFFF" stroke-miterlimit="10" cx="368.733" cy="141.908" rx="94.568" ry="17.119"/>
			<g>
				<g>
					<path fill="#FFE5B7" d="M414.807,206.809c1.452-0.801,2.871-1.551,4.285-2.248l99.442-151.547l-14.411-5.182L401.366,209.591
						C406.294,210.462,410.169,209.366,414.807,206.809z"/>
					<path fill="#DC589F" d="M507.064,70.493l7.895-12.033c-5.524-1.963-10.567-5.58-11.279-9.929l-7.332,11.542
						C496.606,64.106,502.018,67.908,507.064,70.493z"/>
					<path fill="#DC589F" d="M493.543,91.1l7.896-12.034c-5.39-1.914-10.286-5.479-10.93-9.803l-7.332,11.542
						C483.379,84.818,488.631,88.562,493.543,91.1z"/>
					<path fill="#DC589F" d="M480.021,111.704l7.896-12.032c-5.256-1.864-10.006-5.378-10.58-9.677l-7.332,11.542
						C470.152,105.53,475.247,109.217,480.021,111.704z"/>
					<path fill="#DC589F" d="M466.5,132.31l7.895-12.033c-5.117-1.816-9.723-5.275-10.226-9.549l-7.333,11.542
						C456.926,126.243,461.86,129.872,466.5,132.31z"/>
					<path fill="#DC589F" d="M452.979,152.917l7.896-12.033c-4.982-1.769-9.441-5.175-9.874-9.425l-7.333,11.542
						C443.699,146.955,448.476,150.527,452.979,152.917z"/>
					<path fill="#DC589F" d="M439.457,173.523l7.896-12.034c-4.85-1.718-9.159-5.073-9.524-9.298l-7.333,11.542
						C430.472,167.665,435.089,171.181,439.457,173.523z"/>
					<path fill="#DC589F" d="M425.937,194.128l7.896-12.033c-4.713-1.669-8.879-4.972-9.174-9.172l-7.332,11.544
						C417.245,188.378,421.703,191.836,425.937,194.128z"/>
					<path fill="#DC589F" d="M414.807,206.809c1.452-0.801,2.871-1.551,4.285-2.248l1.219-1.859
						c-4.577-1.62-8.594-4.871-8.821-9.046l-7.331,11.544c-0.061,1.646,0.681,3.203,1.859,4.622
						C408.964,209.56,411.717,208.513,414.807,206.809z"/>
				</g>
				<path fill="#D8C49E" d="M518.534,53.014c-0.295,0.447-3.754-0.348-7.73-1.778c-3.976-1.43-6.967-2.954-6.681-3.404
					c0.285-0.45,3.746,0.347,7.729,1.779C515.835,51.042,518.827,52.567,518.534,53.014z"/>
			</g>
			<g>
				<g>
					<path fill="#E6E7E8" d="M281.427,181.552c0.242,0.508,0.006,1.128-0.527,1.382c-0.534,0.256-1.165,0.05-1.409-0.458
						c-0.24-0.509-0.004-1.128,0.529-1.383C280.555,180.838,281.185,181.044,281.427,181.552z"/>
					
						<ellipse transform="matrix(0.9023 -0.4312 0.4312 0.9023 -52.5204 136.5153)" fill="#E6E7E8" cx="274.857" cy="184.104" rx="1.072" ry="1.02"/>
					
						<ellipse transform="matrix(0.9013 -0.4331 0.4331 0.9013 -50.858 138.1281)" fill="#E6E7E8" cx="277.773" cy="180.701" rx="0.417" ry="0.396"/>
					
						<ellipse transform="matrix(0.9026 -0.4305 0.4305 0.9026 -50.0917 139.7057)" fill="#E6E7E8" cx="283.667" cy="180.542" rx="0.417" ry="0.396"/>
					<path fill="#E6E7E8" d="M275.526,182.335c-0.167,0.139-0.424,0.109-0.571-0.067c-0.146-0.181-0.128-0.434,0.04-0.576
						c0.168-0.14,0.426-0.107,0.571,0.069C275.713,181.939,275.693,182.195,275.526,182.335z"/>
					<path fill="#E6E7E8" d="M271.693,181.27c-0.17,0.139-0.426,0.107-0.572-0.066c-0.147-0.181-0.127-0.436,0.041-0.576
						c0.169-0.142,0.425-0.108,0.571,0.069C271.879,180.873,271.862,181.131,271.693,181.27z"/>
					
						<ellipse transform="matrix(-0.7167 -0.6973 0.6973 -0.7167 438.5721 438.1275)" fill="#E6E7E8" cx="308.271" cy="129.989" rx="0.416" ry="0.397"/>
				</g>
				<g>
					
						<ellipse transform="matrix(0.6358 -0.7718 0.7718 0.6358 -13.7765 271.6997)" fill="#C3A383" cx="281.031" cy="150.449" rx="1.115" ry="1.551"/>
					<path fill="#C3A383" d="M282.395,155.849c-0.291-0.805-0.996-1.288-1.575-1.079c-0.579,0.208-0.812,1.032-0.521,1.837
						c0.289,0.805,0.995,1.29,1.572,1.081C282.453,157.478,282.686,156.655,282.395,155.849z"/>
				</g>
			</g>
			<path fill="none" stroke="#FFFFFF" stroke-miterlimit="10" d="M463.258,141.412c0,0,1.271,17.615-94.524,17.615
				c-95.8,0-95.391-17.366-94.522-17.616c-2.273,24.919-2.301,51.713-0.108,79.521c4.896,60.989,18.522,114.505,34.985,154.456
				c0.007,0,0.415,0.976,0.422,0.976l0,0c1.181,5.882,26.517,10.039,59.225,10.039c32.705,0,57.966-4.137,59.22-10.039l0,0
				c0.006,0,0.571-1.359,0.578-1.359c16.463-39.947,29.932-93.081,34.828-154.072C465.557,193.127,465.529,166.331,463.258,141.412z
				"/>
		</g>
		<g opacity="0.2">
			<path fill="#FFFFFF" d="M440.536,169.101c-12.99,0.002-13.063,17.331-10.057,26.529c1.91,5.85,13.48,21.911,19.08,10.192
				C453.024,198.576,449.259,173.403,440.536,169.101z"/>
			<path fill="#FFFFFF" d="M446.034,223.661c-3.41-3.839-11.868-6.646-15.77-2.19c-3.38,3.863-2.327,9.892-2.335,14.574
				c-0.005,5.562-0.708,11.175-1.083,16.723c-0.942,13.926-2.295,27.824-3.704,41.707c-2.068,20.354-8.042,38.236-13.135,57.704
				c-1.451,5.542,0.628,10.596,6.709,10.176c6.368-0.443,10.26-3.666,12.352-9.604c3.689-10.478,5.504-22.29,8.265-33.211
				c2.972-11.744,5.987-23.492,8.271-35.394c1.289-6.716,2.35-13.478,3.041-20.28c0.778-7.67,0.749-15.407,1.008-23.108
				c0.19-5.716,0.438-12.304-3.496-16.954C446.117,223.758,446.076,223.71,446.034,223.661z"/>
		</g>
		<path fill="#F1F1F2" d="M393.077,381.844c-23.304-3.121-54.653-12.515-68.959-32.862c-17.799-25.316-28.66-62.746-31.446-90.49
			c-1.871-18.616-6.174-37.569-5.908-56.462c0.24-17.206-1.123-33.785,1.204-50.777c-10.837-3.475-13.419-7.156-13.832-8.864
			c-2.189,24.644-2.197,51.097-0.032,78.543c4.896,60.989,18.923,115.483,35.387,155.432c0.006,0,0.013,0,0.02,0l0,0
			c0,5.544,26.517,10.039,59.225,10.039c16.859,0,32.037-1.199,42.823-3.118C405.275,383.169,399.043,382.643,393.077,381.844z"/>
	</g>
	<path fill="#5F1D0C" stroke="#460907" stroke-miterlimit="10" d="M311.169,207.234c4.582-2.684,10.27,3.276,13.652-1.054
		c0.555-0.711,1.111-1.301,1.679-1.825c-0.038-0.016-0.068-0.046-0.109-0.058l-17.213-5.05c-0.6-0.177-1.229,0.168-1.405,0.768
		l-2.63,8.962C306.834,208.798,309.954,207.946,311.169,207.234z"/>
	<path fill="#5F1D0C" stroke="#460907" stroke-miterlimit="10" d="M337.474,208.426c0.745,0.286,1.462,0.63,2.152,1.03
		c0.414,0.081,0.733,0.165,0.982,0.252c0.271-0.64,0.62-1.268,1.067-1.716c2.015-2.016,4.768-2.524,7.508-2.126
		c1.422,0.208,3.301,1.12,5.163,1.825l1.639-5.584c0.176-0.6-0.167-1.23-0.768-1.406l-17.211-5.051
		c-0.601-0.177-1.23,0.168-1.406,0.768l-3.478,11.852C334.513,208.031,335.94,208.021,337.474,208.426z"/>
	<path fill="#5F1D0C" stroke="#460907" stroke-miterlimit="10" d="M375.386,212.511c1.9,0.422,3.507-1.48,5.455-1.48
		c0.768,0,1.518,0.141,2.259,0.338l0.991-3.375c0.176-0.6-0.168-1.23-0.769-1.406l-17.21-5.05c-0.601-0.177-1.23,0.168-1.406,0.768
		l-3.188,10.862C366.213,212.616,370.537,211.433,375.386,212.511z"/>
	<path fill="#5F1D0C" stroke="#460907" stroke-miterlimit="10" d="M382.377,199.99c3.791,1.702,6.466,2.699,10.337,0.974
		c0.445-0.198,0.881-0.344,1.307-0.44l0.194-0.659c0.176-0.6-0.167-1.23-0.769-1.406l-17.211-5.05
		c-0.6-0.177-1.23,0.168-1.405,0.768l-1.64,5.588C376.084,198.675,379.278,198.598,382.377,199.99z"/>
</g>
</svg>
