<svg xmlns="http://www.w3.org/2000/svg" viewBox="0 0 768 430" style="enable-background:new 0 0 768 430;version:1"><style>.a{stop-color:#E6B5A1;}.b{stop-color:#E5B4A1;}.c{stop-color:#B98C7A;}.d{stop-color:#936A59;}.e{stop-color:#744E3E;}.f{stop-color:#5C3829;}.g{stop-color:#4A281A;}.h{stop-color:#401F11;}.i{stop-color:#3D1C0E;}.j{stop-color:#FFF;}.k{stop-color:#FCFCFC;}.l{stop-color:#F2F2F2;}.m{stop-color:#E1E1E1;}.n{stop-color:#C9C9C9;}.o{stop-color:#AAA;}.p{stop-color:#848484;}.q{stop-color:#575757;}.r{stop-color:#242424;}.s{stop-color:#000;}.t{stop-color:#181818;}.u{stop-color:#555;}.v{stop-color:#B5B5B5;}.w{stop-color:#030303;}.x{stop-color:#0B0B0B;}.y{stop-color:#1A1A1A;}.z{stop-color:#2E2E2E;}.A{stop-color:#494949;}.B{stop-color:#6A6A6A;}.C{stop-color:#919191;}.D{stop-color:#BFBFBF;}.E{stop-color:#F1F1F1;}.F{fill:#FFF;}.G{fill:#CCC;}</style><g><linearGradient gradientUnits="userSpaceOnUse" x1="292.1" y1="103.6" x2="514.9" y2="326.4"><stop offset="0" class="a"/><stop offset="0.0014" class="b"/><stop offset="0.1233" class="c"/><stop offset="0.2484" class="d"/><stop offset="0.3791" class="e"/><stop offset="0.5149" class="f"/><stop offset="0.6577" class="g"/><stop offset="0.8122" class="h"/><stop offset="1" class="i"/></linearGradient><circle cx="403.5" cy="215" r="157.5" fill="url(#SVGID_1_)"/><linearGradient gradientUnits="userSpaceOnUse" x1="341.7" y1="18.6" x2="564.5" y2="241.4" gradientTransform="matrix(0.5105 0.8599 -0.8599 0.5105 283.9954 -240.9717)"><stop offset="0" class="a"/><stop offset="0.0014" class="b"/><stop offset="0.1233" class="c"/><stop offset="0.2484" class="d"/><stop offset="0.3791" class="e"/><stop offset="0.5149" class="f"/><stop offset="0.6577" class="g"/><stop offset="0.8122" class="h"/><stop offset="1" class="i"/></linearGradient><circle cx="403.5" cy="215" r="157.5" fill="url(#SVGID_2_)"/><g><circle cx="403.5" cy="215" r="154.2" fill="#873E1E"/><circle cx="403.1" cy="214.6" r="153.1" fill="#883F1F"/><circle cx="402.7" cy="214.2" r="152" fill="#884020"/><circle cx="402.3" cy="213.8" r="150.9" fill="#894121"/><circle cx="401.8" cy="213.4" r="149.8" fill="#8A4222"/><circle cx="401.4" cy="213.1" r="148.7" fill="#8B4323"/><circle cx="401" cy="212.7" r="147.6" fill="#8B4324"/><circle cx="400.6" cy="212.3" r="146.5" fill="#8C4425"/><circle cx="400.2" cy="211.9" r="145.4" fill="#8D4526"/><circle cx="399.7" cy="211.5" r="144.3" fill="#8E4627"/><circle cx="399.3" cy="211.1" r="143.2" fill="#8E4728"/><circle cx="398.9" cy="210.7" r="142.1" fill="#8F4829"/><circle cx="398.5" cy="210.3" r="141" fill="#90492A"/><circle cx="398.1" cy="209.9" r="139.9" fill="#904A2B"/><circle cx="397.6" cy="209.6" r="138.8" fill="#914B2C"/><circle cx="397.2" cy="209.2" r="137.7" fill="#924C2D"/><circle cx="396.8" cy="208.8" r="136.6" fill="#934D2E"/><circle cx="396.4" cy="208.4" r="135.5" fill="#934D2F"/><circle cx="396" cy="208" r="134.4" fill="#944E30"/><circle cx="395.5" cy="207.6" r="133.3" fill="#954F31"/><circle cx="395.1" cy="207.2" r="132.2" fill="#965032"/><circle cx="394.7" cy="206.8" r="131.1" fill="#965133"/><circle cx="394.3" cy="206.4" r="130" fill="#975234"/><circle cx="393.9" cy="206" r="128.9" fill="#985335"/><circle cx="393.4" cy="205.7" r="127.8" fill="#985436"/><circle cx="393" cy="205.3" r="126.7" fill="#995537"/><circle cx="392.6" cy="204.9" r="125.6" fill="#9A5638"/><circle cx="392.2" cy="204.5" r="124.5" fill="#9B5739"/><circle cx="391.8" cy="204.1" r="123.4" fill="#9B573A"/><circle cx="391.3" cy="203.7" r="122.3" fill="#9C583B"/><circle cx="390.9" cy="203.3" r="121.2" fill="#9D593C"/><circle cx="390.5" cy="202.9" r="120.1" fill="#9D5A3D"/><circle cx="390.1" cy="202.5" r="119" fill="#9E5B3E"/><circle cx="389.7" cy="202.2" r="117.9" fill="#9F5C3F"/><circle cx="389.2" cy="201.8" r="116.9" fill="#A05D40"/><circle cx="388.8" cy="201.4" r="115.8" fill="#A05E41"/><circle cx="388.4" cy="201" r="114.7" fill="#A15F42"/><circle cx="388" cy="200.6" r="113.6" fill="#A26043"/><circle cx="387.6" cy="200.2" r="112.5" fill="#A36144"/><circle cx="387.1" cy="199.8" r="111.4" fill="#A36145"/><circle cx="386.7" cy="199.4" r="110.3" fill="#A46246"/><circle cx="386.3" cy="199" r="109.2" fill="#A56347"/><circle cx="385.9" cy="198.7" r="108.1" fill="#A56448"/><circle cx="385.5" cy="198.3" r="107" fill="#A66549"/><circle cx="385" cy="197.9" r="105.9" fill="#A7664A"/><circle cx="384.6" cy="197.5" r="104.8" fill="#A8674B"/><circle cx="384.2" cy="197.1" r="103.7" fill="#A8684C"/><circle cx="383.8" cy="196.7" r="102.6" fill="#A9694D"/><circle cx="383.4" cy="196.3" r="101.5" fill="#AA6A4E"/><circle cx="382.9" cy="195.9" r="100.4" fill="#AB6B4F"/><circle cx="382.5" cy="195.5" r="99.3" fill="#AB6B50"/><circle cx="382.1" cy="195.1" r="98.2" fill="#AC6C51"/><circle cx="381.7" cy="194.8" r="97.1" fill="#AD6D52"/><circle cx="381.3" cy="194.4" r="96" fill="#AD6E53"/><circle cx="380.8" cy="194" r="94.9" fill="#AE6F54"/><circle cx="380.4" cy="193.6" r="93.8" fill="#AF7055"/><circle cx="380" cy="193.2" r="92.7" fill="#B07156"/><circle cx="379.6" cy="192.8" r="91.6" fill="#B07257"/><circle cx="379.2" cy="192.4" r="90.5" fill="#B17358"/><circle cx="378.7" cy="192" r="89.4" fill="#B27459"/><circle cx="378.3" cy="191.6" r="88.3" fill="#B3755A"/><circle cx="377.9" cy="191.3" r="87.2" fill="#B3755B"/><circle cx="377.5" cy="190.9" r="86.1" fill="#B4765C"/><circle cx="377.1" cy="190.5" r="85" fill="#B5775D"/><circle cx="376.6" cy="190.1" r="83.9" fill="#B5785E"/><circle cx="376.2" cy="189.7" r="82.8" fill="#B6795F"/><circle cx="375.8" cy="189.3" r="81.7" fill="#B77A60"/><circle cx="375.4" cy="188.9" r="80.6" fill="#B87B61"/><circle cx="375" cy="188.5" r="79.5" fill="#B87C62"/><circle cx="374.5" cy="188.1" r="78.4" fill="#B97D63"/><circle cx="374.1" cy="187.8" r="77.4" fill="#BA7E64"/><circle cx="373.7" cy="187.4" r="76.3" fill="#BA7E65"/><circle cx="373.3" cy="187" r="75.2" fill="#BB7F66"/><circle cx="372.9" cy="186.6" r="74.1" fill="#BC8067"/><circle cx="372.4" cy="186.2" r="73" fill="#BD8168"/><circle cx="372" cy="185.8" r="71.9" fill="#BD8269"/><circle cx="371.6" cy="185.4" r="70.8" fill="#BE836A"/><circle cx="371.2" cy="185" r="69.7" fill="#BF846B"/><circle cx="370.8" cy="184.6" r="68.6" fill="#C0856C"/><circle cx="370.3" cy="184.2" r="67.5" fill="#C0866D"/><circle cx="369.9" cy="183.9" r="66.4" fill="#C1876E"/><circle cx="369.5" cy="183.5" r="65.3" fill="#C2886F"/><circle cx="369.1" cy="183.1" r="64.2" fill="#C28870"/><circle cx="368.7" cy="182.7" r="63.1" fill="#C38971"/><circle cx="368.2" cy="182.3" r="62" fill="#C48A72"/><circle cx="367.8" cy="181.9" r="60.9" fill="#C58B73"/><circle cx="367.4" cy="181.5" r="59.8" fill="#C58C74"/><circle cx="367" cy="181.1" r="58.7" fill="#C68D75"/><circle cx="366.6" cy="180.7" r="57.6" fill="#C78E76"/><circle cx="366.1" cy="180.4" r="56.5" fill="#C88F77"/><circle cx="365.7" cy="180" r="55.4" fill="#C89078"/><circle cx="365.3" cy="179.6" r="54.3" fill="#C99179"/><circle cx="364.9" cy="179.2" r="53.2" fill="#CA927A"/><circle cx="364.5" cy="178.8" r="52.1" fill="#CA927B"/><circle cx="364" cy="178.4" r="51" fill="#CB937C"/><circle cx="363.6" cy="178" r="49.9" fill="#CC947D"/><circle cx="363.2" cy="177.6" r="48.8" fill="#CD957E"/><circle cx="362.8" cy="177.2" r="47.7" fill="#CD967F"/><circle cx="362.4" cy="176.9" r="46.6" fill="#CE9780"/><circle cx="361.9" cy="176.5" r="45.5" fill="#CF9881"/><circle cx="361.5" cy="176.1" r="44.4" fill="#D09982"/><circle cx="361.1" cy="175.7" r="43.3" fill="#D09A83"/><circle cx="360.7" cy="175.3" r="42.2" fill="#D19B84"/><circle cx="360.3" cy="174.9" r="41.1" fill="#D29C85"/><circle cx="359.8" cy="174.5" r="40" fill="#D29C86"/><circle cx="359.4" cy="174.1" r="38.9" fill="#D39D87"/><circle cx="359" cy="173.7" r="37.9" fill="#D49E88"/><circle cx="358.6" cy="173.3" r="36.8" fill="#D59F89"/><circle cx="358.2" cy="173" r="35.7" fill="#D5A08A"/><circle cx="357.7" cy="172.6" r="34.6" fill="#D6A18B"/><circle cx="357.3" cy="172.2" r="33.5" fill="#D7A28C"/><circle cx="356.9" cy="171.8" r="32.4" fill="#D7A38D"/><circle cx="356.5" cy="171.4" r="31.3" fill="#D8A48E"/><circle cx="356.1" cy="171" r="30.2" fill="#D9A58F"/><circle cx="355.6" cy="170.6" r="29.1" fill="#DAA690"/><circle cx="355.2" cy="170.2" r="28" fill="#DAA691"/><circle cx="354.8" cy="169.8" r="26.9" fill="#DBA792"/><circle cx="354.4" cy="169.5" r="25.8" fill="#DCA893"/><circle cx="354" cy="169.1" r="24.7" fill="#DDA994"/><circle cx="353.5" cy="168.7" r="23.6" fill="#DDAA95"/><circle cx="353.1" cy="168.3" r="22.5" fill="#DEAB96"/><circle cx="352.7" cy="167.9" r="21.4" fill="#DFAC97"/><circle cx="352.3" cy="167.5" r="20.3" fill="#DFAD98"/><circle cx="351.9" cy="167.1" r="19.2" fill="#E0AE99"/><circle cx="351.4" cy="166.7" r="18.1" fill="#E1AF9A"/><circle cx="351" cy="166.3" r="17" fill="#E2B09B"/><circle cx="350.6" cy="166" r="15.9" fill="#E2B09C"/><circle cx="350.2" cy="165.6" r="14.8" fill="#E3B19D"/><circle cx="349.8" cy="165.2" r="13.7" fill="#E4B29E"/><circle cx="349.3" cy="164.8" r="12.6" fill="#E5B39F"/><circle cx="348.9" cy="164.4" r="11.5" fill="#E5B4A0"/><circle cx="348.5" cy="164" r="10.4" fill="#E6B5A1"/></g><g><g><radialGradient cx="403.5" cy="215" r="55.9" gradientUnits="userSpaceOnUse"><stop offset="0.8453" class="j"/><stop offset="0.8703" class="k"/><stop offset="0.8904" class="l"/><stop offset="0.9089" class="m"/><stop offset="0.9264" class="n"/><stop offset="0.9432" class="o"/><stop offset="0.9595" class="p"/><stop offset="0.9753" class="q"/><stop offset="0.9905" class="r"/><stop offset="1" class="s"/></radialGradient><circle cx="403.5" cy="215" r="55.9" fill="url(#SVGID_3_)"/><linearGradient gradientUnits="userSpaceOnUse" x1="450.4" y1="243.5" x2="354.8" y2="185.4"><stop offset="0.8555" class="s"/><stop offset="0.8729" class="t"/><stop offset="0.9095" class="u"/><stop offset="0.962" class="v"/><stop offset="1" class="j"/></linearGradient><circle cx="403.5" cy="215" r="55.9" fill="url(#SVGID_4_)"/><linearGradient gradientUnits="userSpaceOnUse" x1="361.9" y1="248.5" x2="448.9" y2="178.4"><stop offset="0.897" class="s"/><stop offset="0.9094" class="t"/><stop offset="0.9355" class="u"/><stop offset="0.9729" class="v"/><stop offset="1" class="j"/></linearGradient><circle cx="403.5" cy="215" r="55.9" fill="url(#SVGID_5_)"/><radialGradient cx="403.5" cy="215" r="50.5" gradientUnits="userSpaceOnUse"><stop offset="0.418" class="s"/><stop offset="0.5442" class="w"/><stop offset="0.6231" class="x"/><stop offset="0.6891" class="y"/><stop offset="0.7479" class="z"/><stop offset="0.802" class="A"/><stop offset="0.8526" class="B"/><stop offset="0.9006" class="C"/><stop offset="0.9464" class="D"/><stop offset="0.9889" class="E"/><stop offset="1" class="j"/></radialGradient><circle cx="403.5" cy="215" r="50.5" fill="url(#SVGID_6_)"/><circle cx="403.5" cy="215" r="50.5" fill="#BABABA"/></g><circle cx="403.5" cy="215" r="45.9"/><g><radialGradient cx="403.5" cy="215" r="44.3" gradientUnits="userSpaceOnUse"><stop offset="0.8453" class="j"/><stop offset="0.8703" class="k"/><stop offset="0.8904" class="l"/><stop offset="0.9089" class="m"/><stop offset="0.9264" class="n"/><stop offset="0.9432" class="o"/><stop offset="0.9595" class="p"/><stop offset="0.9753" class="q"/><stop offset="0.9905" class="r"/><stop offset="1" class="s"/></radialGradient><circle cx="403.5" cy="215" r="44.3" fill="url(#SVGID_7_)"/><linearGradient gradientUnits="userSpaceOnUse" x1="440.7" y1="237.6" x2="364.9" y2="191.5"><stop offset="0.8555" class="s"/><stop offset="0.8729" class="t"/><stop offset="0.9095" class="u"/><stop offset="0.962" class="v"/><stop offset="1" class="j"/></linearGradient><circle cx="403.5" cy="215" r="44.3" fill="url(#SVGID_8_)"/><linearGradient gradientUnits="userSpaceOnUse" x1="370.5" y1="241.6" x2="439.6" y2="186"><stop offset="0.897" class="s"/><stop offset="0.9094" class="t"/><stop offset="0.9355" class="u"/><stop offset="0.9729" class="v"/><stop offset="1" class="j"/></linearGradient><circle cx="403.5" cy="215" r="44.3" fill="url(#SVGID_9_)"/><radialGradient cx="403.5" cy="215" r="41.5" gradientUnits="userSpaceOnUse"><stop offset="0.418" class="s"/><stop offset="0.5442" class="w"/><stop offset="0.6231" class="x"/><stop offset="0.6891" class="y"/><stop offset="0.7479" class="z"/><stop offset="0.802" class="A"/><stop offset="0.8526" class="B"/><stop offset="0.9006" class="C"/><stop offset="0.9464" class="D"/><stop offset="0.9889" class="E"/><stop offset="1" class="j"/></radialGradient><circle cx="403.5" cy="215" r="41.5" fill="url(#SVGID_10_)"/><linearGradient gradientUnits="userSpaceOnUse" x1="403.5" y1="174.2" x2="403.5" y2="257.3"><stop offset="0" class="s"/><stop offset="0.0849" stop-color="#090909"/><stop offset="0.2235" stop-color="#212121"/><stop offset="0.3985" class="A"/><stop offset="0.6031" stop-color="#808080"/><stop offset="0.8298" stop-color="#C6C6C6"/><stop offset="1" class="j"/></linearGradient><circle cx="403.5" cy="215" r="41.5" fill="url(#SVGID_11_)"/></g><radialGradient cx="427.3" cy="193.8" r="61.8" gradientUnits="userSpaceOnUse"><stop offset="0" class="j"/><stop offset="1" stop-color="#CCC"/></radialGradient><circle cx="403.5" cy="215" r="37.8" fill="url(#SVGID_12_)"/><circle cx="403.5" cy="215" r="33.6" fill="#D3D3D3"/><path d="M367 176.4c1 0.7-2.6 3.7-5.9 8.3 -3.3 4.6-4.9 9-5.9 8.3 -1-0.7 0.8-5 4.1-9.6C362.5 178.8 366 175.7 367 176.4z" class="F"/><path d="M444.8 183.4c-0.7 0.6-2.2-2.4-5-5.3 -2.8-2.9-5.7-4.7-5-5.3 0.7-0.6 3.4 1.3 6.2 4.2C443.7 180 445.4 182.8 444.8 183.4z" class="F"/><path d="M430.4 196.7c-0.4 0.4-1.5-1.6-3.4-3.6 -1.9-2-3.8-3.2-3.4-3.6 0.4-0.4 2.3 0.9 4.2 2.8C429.7 194.3 430.8 196.3 430.4 196.7z" class="F"/><path d="M429.5 186.6c-0.2 0.3 1.2 1.2 2.6 2.7 1.4 1.5 2.4 3 2.6 2.7 0.3-0.3-0.7-1.7-2.2-3.2C431.2 187.3 429.8 186.3 429.5 186.6z" style="fill:#FFF;opacity:0.4"/><path d="M373.8 184.3c0.7 0.5-1.9 2.7-4.3 6 -2.4 3.3-3.5 6.5-4.3 6 -0.7-0.5 0.6-3.6 2.9-7C370.5 186 373.1 183.8 373.8 184.3z" class="F"/><path d="M403.5 267.4c7 0 13.5-4.5 18.5-8.2 -1.2-1.4-6.2 3.5-18.5 3.5 -15-0.5-20.5-6.5-18.5-3.5 4.7 3.5 10.8 7.7 17.4 8.1 -16.4-0.6-26.8-9.3-29.3-7.6 8.2 6.9 18.8 11.1 30.4 11.1 11.6 0 22.2-4.2 30.4-11.1C432 257 418.8 267.6 403.5 267.4z" opacity="0.1"/></g><g><linearGradient gradientUnits="userSpaceOnUse" x1="392.1" y1="78.3" x2="414.9" y2="101.1"><stop offset="0" stop-color="#6B3A25"/><stop offset="1" stop-color="#FFE4D9"/></linearGradient><circle cx="403.5" cy="89.7" r="16.1" fill="url(#SVGID_13_)"/><linearGradient gradientUnits="userSpaceOnUse" x1="393.7" y1="79.9" x2="413.3" y2="99.5"><stop offset="0" class="j"/><stop offset="1" class="s"/></linearGradient><circle cx="403.5" cy="89.7" r="13.8" fill="url(#SVGID_14_)"/><circle cx="403.5" cy="89.7" r="12.4" class="G"/><path d="M408.9 96.2c0.5-0.4-1.2-3.1-3.8-6.1 2.9-2.8 4.9-5.2 4.5-5.7 -0.4-0.5-3.1 1.2-6.2 3.8 -2.8-2.9-5.2-4.9-5.7-4.5 -0.5 0.4 1.2 3.1 3.8 6.2 -2.9 2.8-4.9 5.2-4.5 5.7 0.4 0.5 3.1-1.2 6.2-3.8C405.9 94.7 408.4 96.7 408.9 96.2z"/></g><g><linearGradient gradientUnits="userSpaceOnUse" x1="392.1" y1="328.6" x2="414.9" y2="351.4"><stop offset="0" stop-color="#6E3C26"/><stop offset="1" stop-color="#E8B199"/></linearGradient><circle cx="403.5" cy="340" r="16.1" fill="url(#SVGID_15_)"/><linearGradient gradientUnits="userSpaceOnUse" x1="393.7" y1="330.2" x2="413.3" y2="349.8"><stop offset="0" class="j"/><stop offset="1" class="s"/></linearGradient><circle cx="403.5" cy="340" r="13.8" fill="url(#SVGID_16_)"/><circle cx="403.5" cy="340" r="12.3" class="G"/><path d="M411.5 338c-0.2-0.6-3.3-0.3-7.3 0.7 -1.2-3.9-2.5-6.8-3.2-6.6 -0.6 0.2-0.3 3.4 0.7 7.3 -3.9 1.2-6.8 2.6-6.6 3.2 0.2 0.6 3.4 0.3 7.3-0.7 1.2 3.9 2.5 6.8 3.2 6.6s0.3-3.3-0.7-7.3C408.8 340 411.6 338.6 411.5 338z"/></g><radialGradient cx="402" cy="212.3" r="193.2" gradientUnits="userSpaceOnUse"><stop offset="0.0957" class="j"/><stop offset="0.1788" stop-color="#F9F9F9"/><stop offset="0.2924" stop-color="#E7E7E7"/><stop offset="0.4237" stop-color="#CACACA"/><stop offset="0.5682" stop-color="#A2A2A2"/><stop offset="0.7237" stop-color="#6E6E6E"/><stop offset="0.8857" stop-color="#303030"/><stop offset="1" class="s"/></radialGradient><path d="M539.2 141.8c-8.9 30.2-37.2 90-92.9 130.4C390.7 312.7 323.5 322.2 292 321.4c28.1 29.4 67.7 47.7 111.5 47.7 85.1 0 154.2-69 154.2-154.2C557.7 188.5 551 163.6 539.2 141.8z" style="fill:url(#SVGID_17_);opacity:0.4"/></g></svg>