<svg version="1.1" id="Layer_1" xmlns="http://www.w3.org/2000/svg" xmlns:xlink="http://www.w3.org/1999/xlink" viewBox="0 0 768 430" enable-background="new 0 0 768 430" xml:space="preserve">
<path fill="#F0F0E8" d="M486.844,112.557c1.713,32.212-23.015,59.714-55.222,61.427c-32.216,1.709-59.719-23.014-61.43-55.229
	c-1.715-32.212,23.013-59.71,55.224-61.423C457.628,55.618,485.131,80.346,486.844,112.557z"/>
<g>
	<path fill="#A47862" d="M371.056,347.415c-0.111-0.162-0.225-0.322-0.331-0.49l-2.473-3.791l-10.55,17.546
		c2.476,2.119,2.541,5.862,2.017,9.116c2.742-2.9,4.931-6.347,6.675-9.957C368.321,355.85,369.738,351.646,371.056,347.415z"/>
	<path fill="#B2826B" d="M382.488,356.485l-1.954-0.941c-3.817-1.837-7.083-4.642-9.478-8.129c-1.318,4.23-2.735,8.435-4.662,12.424
		c-1.744,3.61-3.933,7.057-6.675,9.957c-0.02,0.139-0.045,0.272-0.071,0.402c-0.624,3.519-1.628,6.975-2.99,10.278
		c-1.13,2.74-2.742,5.6-5.514,6.639c-0.984,0.375-2.084,0.499-2.943,1.106c-1.108,0.79-1.458,2.215-1.205,3.573
		c2.057,0.712,7.521,2.352,12.351,1.594c6.093-0.95,9.881-4.825,12.653-11.313c2.019-4.714,7.833-18.315,10.855-25.387
		C382.738,356.616,382.616,356.547,382.488,356.485z"/>
	<path fill="#A47862" d="M316.695,381.826l2.179-5.943l-18.376-6.83c-0.084-0.076-2.025,1.567-4.457,3.453l20.078,11.015
		C316.302,382.952,316.492,382.386,316.695,381.826z"/>
	<path fill="#B2826B" d="M296.041,372.506c-2.25,1.755-4.921,3.709-6.928,4.701c-4.169,2.066-9.119,2.902-13.523,1.396
		c-1.54-0.529-2.991-1.33-4.583-1.679c-1.59-0.345-3.451-0.139-4.538,1.077c-0.573,0.64-0.861,1.479-0.958,2.341
		c2.639,3.904,8.828,9.853,22.525,11.475c10.283,1.226,19.08,2.936,25.503,4.396c0.027-0.099,0.048-0.203,0.065-0.311l0.823-5.28
		c0.375-2.412,0.943-4.787,1.691-7.102L296.041,372.506z"/>
	<path fill="#E4CDC0" d="M382.856,356.688c-3.022,7.071-8.837,20.673-10.855,25.387c-2.772,6.488-6.56,10.363-12.653,11.313
		c-4.83,0.758-10.294-0.882-12.351-1.594c0.161,0.865,0.563,1.701,1.175,2.325c1.559,1.6,3.941,2.07,6.173,2.143
		c1.52,0.046,3.028-0.05,4.529-0.256c6.334-0.862,11.779-4.929,14.485-10.724l11.001-23.547
		C385.217,359.896,384.543,357.73,382.856,356.688z"/>
	<path fill="#30160E" d="M310.912,254.239c-0.249,0.663-1.026,4.99-2.057,11.122c2.866,1.725,6.187,2.878,9.386,3.929
		c5.892,1.924,11.857,3.798,17.878,5.411l7.02-13.869L310.912,254.239z"/>
	<path fill="#30160E" d="M368.714,275.149c3.938-4.323,6.388-20.722,7.529-26.459c-1.356-2.901-2.9,6.99-5.657,5.365
		c-1.54-0.905-3.129-1.828-4.898-2.062c-1.818-0.234-3.66,0.287-5.314,1.072c-2.684,1.269-4.967,3.224-6.772,5.576h-9.355
		l-8.127,16.059c9.372,2.514,18.877,4.403,28.431,4.871c0.266-0.279,0.53-0.556,0.8-0.836
		C366.494,277.56,367.612,276.356,368.714,275.149z"/>
	<path fill="none" d="M326.069,294.553l6.149-12.141c-2.066-0.36-3.512-0.617-3.512-0.617L326.069,294.553z"/>
	<path fill="#30160E" d="M330.628,341.834l22.925,17.519l10.707-18.297l-26.034-19.875c-1.718,3.649-3.214,7.394-4.479,11.226
		L330.628,341.834z"/>
	<path fill="#FD9209" d="M360.544,258.513c4.296-0.996,8.642-2.131,12.438-4.564c3.794-2.441,7.016-6.396,7.775-11.179
		c0.36-2.273,0.157-4.61-0.061-6.906c-1.205-12.641-4.07-24.954-6.001-37.486c-6.303,1.383-11.652,2.782-16.966,6.787
		c-1.764,1.33-3.483,2.832-4.642,4.817c-1.538,2.652-1.934,5.899-2.182,9.038c-0.56,7.136-0.538,14.379,0.75,21.399
		c1.292,7.021,3.894,13.836,8.086,19.301c0.17,0.219,0.416,0.46,0.659,0.353C360.646,259.965,360.706,258.274,360.544,258.513z"/>
	<path fill="#FD7308" d="M373.478,205.697c1.776-0.494,2.957-2.36,2.757-4.373c-1.33-13.479-6.069-18.503-14.138-23.746
		c-8.713-5.657-19.126-7.684-29.201-6.826c-4.098,0.353-8.252,1.192-11.82,3.446c-2.118,1.337-3.968,3.139-5.666,5.074
		c-3.407,3.887-6.328,8.565-7.162,13.904c3.53,1.782,7.575,3.093,11.335,4.162c2.251,0.648,4.529,1.162,6.802,1.709
		c9.006,2.162,17.926,4.856,27.059,6.193C361.482,206.414,366.458,207.648,373.478,205.697z"/>
	<path fill="#FA805E" d="M311.142,220.322l0.559-7.733l-6.496-4.018c-0.814,2.016-1.53,3.878-2.175,5.665
		c0.758,0.598,1.53,1.176,2.297,1.748C307.265,217.433,309.203,218.877,311.142,220.322z"/>
	<path fill="#5B8B1B" d="M326.345,176.973l-4.125,1.586c-5.701,2.193-10.448,6.316-13.411,11.651l-8.565,15.426l11.457,6.953
		l-3.541,48.891c0,0,13.136,5.116,31.172,6.373s39.085-8.014,39.085-8.014l-13.15-19.952l-5.71-15.138c0,0,9.96,0.915,17.374-3.477
		c-2.256-19.431-8.943-29.939-11.698-33.541c-0.681-0.897-1.495-1.675-2.415-2.315c-3.917-2.733-16.573-10.995-26.35-10.96
		C331.707,174.471,326.345,176.973,326.345,176.973z"/>
	<path fill="#558219" d="M374.067,237.515l-4.756-13.505c-2.188,0.815-12.904,0.479-14.324,0.321
		c-2.96-0.314-5.689,1.629-6.366,4.529l0,0c-0.489,2.086,0.196,4.273,1.786,5.711l7.464,6.761c1.711,1.548,3.201,3.322,4.429,5.276
		l0,0c2.223,3.538,3.535,7.569,3.812,11.735l0.388,5.723c7.055-2.089,11.918-4.228,11.918-4.228L374.067,237.515z"/>
	<path fill="#558219" d="M327.458,239.891c1.764-1.571,3.664-3.161,5.976-3.641c1.66-0.341,3.385-0.076,5.069-0.237
		c1.687-0.165,3.51-0.951,4.092-2.542c0.226-0.608,0.241-1.302,0.563-1.874c0.229-0.413,0.598-0.731,0.935-1.072
		c1.715-1.725,2.602-4.234,2.359-6.653l-36.214,8.914l-1.537,21.213c1.389-0.591,2.73-1.284,4.009-2.051
		C318.163,248.675,322.715,244.129,327.458,239.891z"/>
	<path fill="#558219" d="M361.89,210.688c0.017,4.576-0.104,9.248,1.239,13.624c0.154,0.498,0.326,1.039,0.154,1.537
		c-0.109,0.307-0.342,0.552-0.567,0.794c-0.882,0.919-1.805,1.862-2.985,2.353c-0.266,0.107-0.588,0.191-0.829,0.034
		c-0.218-0.142-0.291-0.426-0.345-0.678c-1.506-7.305-2.542-14.763-2.131-22.202c0.365-6.645,1.48-14.027,3.677-20.324
		c0.834,1.373,0.646,4.102,0.806,5.715c0.212,2.158,0.39,4.311,0.532,6.469C361.723,202.232,361.872,206.46,361.89,210.688z"/>
	<path fill="#FA805E" d="M340.172,161.636l-14.98,1.227l1.153,14.111c0.083,1.016,0.367,1.97,0.808,2.824l13.591-11.19
		L340.172,161.636z"/>
	<path fill="#FD8208" d="M370.222,236.254c-4.792-2.641-8.14-7.174-9.346-12.363c-0.168,0.157-0.339,0.307-0.519,0.448
		c-1.67,1.318-4.014,1.951-5.973,1.127c-0.598-0.25-1.131-0.617-1.621-1.047c1.35,6.703,5.357,12.682,11.259,16.457l12.22,7.814
		l1.642-8.209L370.222,236.254z"/>
	<g>
		<g>
			<path fill="#FB9262" d="M314.006,159.601c-2.677-0.177-5.401-0.946-7.417-2.717c-2.018-1.767-3.166-4.672-2.353-7.229
				c0.182-0.575,0.466-1.134,0.909-1.544c0.377-0.345,0.851-0.571,1.344-0.716c1.399-0.422,2.977-0.188,4.197,0.621
				c1.217,0.801,2.054,2.154,2.229,3.606c-0.126,0.26-0.007,0.115,0.042,0.402C313.409,154.63,313.553,156.994,314.006,159.601z"/>
			<g>
				<path fill="#E96E50" d="M313.215,153.477c-0.523-0.978-1.251-1.79-2.101-2.354c-0.068-0.092-0.167-0.149-0.279-0.176
					c-0.172-0.103-0.353-0.196-0.531-0.271c-1.346-0.598-2.873-0.583-4.092,0.042c-0.241,0.126-0.337,0.421-0.21,0.667
					c0.121,0.245,0.419,0.337,0.662,0.215c0.817-0.421,1.82-0.486,2.765-0.199c-0.178,0.153-0.332,0.333-0.447,0.536
					c-0.345,0.621-0.307,1.434,0.088,2.028c0.093,0.138,0.251,0.218,0.412,0.218c0.096,0,0.189-0.026,0.276-0.084
					c0.226-0.157,0.285-0.463,0.129-0.69c-0.188-0.283-0.205-0.694-0.04-0.996c0.14-0.25,0.412-0.429,0.703-0.476
					c0.717,0.476,1.344,1.166,1.795,2.004c0.086,0.168,0.258,0.261,0.433,0.261c0.081,0,0.161-0.02,0.235-0.058
					C313.255,154.013,313.346,153.714,313.215,153.477z"/>
				<path fill="#E96E50" d="M311.881,155.458c-1.736,0.08-3.481-0.644-4.657-1.928c-0.183-0.2-0.5-0.215-0.701-0.027
					c-0.201,0.185-0.214,0.498-0.029,0.698c1.305,1.425,3.206,2.253,5.136,2.253c0.098,0,0.196-0.004,0.293-0.004
					c0.274-0.011,0.485-0.245,0.472-0.517C312.386,155.661,312.157,155.45,311.881,155.458z"/>
			</g>
			<path fill="#FB9262" d="M346.145,159.517c2.681-0.135,5.421-0.859,7.466-2.591c2.045-1.736,3.241-4.622,2.469-7.194
				c-0.172-0.579-0.444-1.138-0.885-1.552c-0.368-0.357-0.839-0.59-1.33-0.743c-1.393-0.441-2.974-0.23-4.206,0.547
				c-1.232,0.782-2.091,2.124-2.29,3.572c0.121,0.26,0.007,0.115-0.048,0.402C346.826,154.557,346.642,156.918,346.145,159.517z"/>
			<g>
				<path fill="#E96E50" d="M347.513,154.005c0.41-1.027,1.037-1.92,1.812-2.58c0.061-0.096,0.147-0.168,0.261-0.207
					c0.16-0.118,0.325-0.234,0.494-0.333c1.267-0.751,2.787-0.913,4.068-0.437c0.253,0.096,0.383,0.383,0.288,0.636
					c-0.094,0.257-0.38,0.391-0.636,0.295c-0.857-0.321-1.858-0.268-2.763,0.127c0.193,0.126,0.367,0.288,0.504,0.475
					c0.415,0.579,0.474,1.391,0.15,2.023c-0.081,0.153-0.226,0.25-0.383,0.268c-0.096,0.012-0.195-0.007-0.284-0.053
					c-0.241-0.123-0.342-0.422-0.215-0.667c0.159-0.307,0.125-0.713-0.071-0.992c-0.17-0.233-0.462-0.38-0.755-0.391
					c-0.659,0.552-1.199,1.311-1.547,2.2c-0.069,0.176-0.228,0.292-0.403,0.311c-0.079,0.007-0.16,0-0.236-0.035
					C347.539,154.545,347.417,154.262,347.513,154.005z"/>
				<path fill="#E96E50" d="M349.074,155.826c1.734-0.13,3.379-1.046,4.4-2.46c0.159-0.218,0.464-0.269,0.687-0.111
					c0.223,0.158,0.272,0.468,0.112,0.69c-1.13,1.567-2.918,2.613-4.838,2.836c-0.098,0.012-0.193,0.022-0.291,0.031
					c-0.274,0.019-0.51-0.184-0.53-0.457C348.595,156.083,348.794,155.845,349.074,155.826z"/>
			</g>
			<path fill="#272439" d="M314.84,156.078c-0.95-4.035-1.147-8.201-1.335-12.34c-0.245-5.324-0.493-10.651-0.74-15.974
				c-1.688,0.107-3.382,0.058-5.062-0.15c-0.87-0.107-3.98-1.288-4.646-0.943c-1.324,0.69-0.495,6.354-0.341,7.649
				c0.646,5.462,2.696,10.754,5.889,15.235c0.895,1.26,1.884,2.456,2.957,3.571C312.163,153.756,314.666,155.343,314.84,156.078z"/>
			<path fill="#272439" d="M345.568,155.879c0.952-4.036,1.145-8.197,1.336-12.341c0.245-5.323,0.492-10.65,0.737-15.977
				c1.687,0.115,3.384,0.061,5.06-0.146c0.874-0.107,3.984-1.289,4.653-0.943c1.318,0.687,0.491,6.351,0.337,7.649
				c-0.645,5.458-2.696,10.754-5.887,15.234c-0.899,1.257-1.885,2.457-2.957,3.572C348.246,153.557,345.742,155.144,345.568,155.879
				z"/>
			<path fill="#FB9964" d="M330.891,116.244c-0.003-0.145-0.003-0.222-0.003-0.222s-0.238,0.042-0.669,0.112
				c-0.428-0.069-0.666-0.112-0.666-0.112s-0.003,0.077-0.003,0.222c-5.121,0.859-23.188,3.951-23.129,4.948
				c0.697,11.47,2.112,22.879,4.336,34.101c0.738,3.717,1.664,7.619,4.097,10.271c1.685,1.839,3.921,2.878,6.099,3.863
				c2.299,1.05,6.32,3.58,8.768,3.94c0.154,0.03,0.322,0.045,0.499,0.042c0.182,0.003,0.349-0.012,0.502-0.042
				c2.448-0.36,6.469-2.89,8.771-3.94c2.174-0.985,4.409-2.024,6.095-3.863c2.434-2.652,3.358-6.554,4.097-10.271
				c2.225-11.222,3.639-22.631,4.336-34.101C354.079,120.195,336.011,117.103,330.891,116.244z"/>
			<path fill="#1C1A29" d="M315.864,137.323c0.981-0.778,2.204-1.196,3.438-1.399c0.552-0.092,1.126-0.142,1.66,0.023
				c0.535,0.168,1.022,0.586,1.118,1.138c0.038,0.203,0.012,0.434-0.134,0.582c-0.069,0.069-0.159,0.112-0.248,0.158
				c-1.248,0.609-2.518,1.165-3.811,1.664c-0.996,0.383-2.755,1.356-3.804,1.138C314.089,139.342,314.868,138.108,315.864,137.323z"
				/>
			<path fill="#1C1A29" d="M341.475,137.541c-0.981-0.773-2.203-1.195-3.438-1.398c-0.551-0.088-1.126-0.142-1.658,0.026
				c-0.534,0.161-1.022,0.586-1.12,1.135c-0.038,0.203-0.011,0.437,0.134,0.582c0.07,0.069,0.161,0.115,0.248,0.154
				c1.247,0.613,2.517,1.165,3.811,1.663c1,0.392,2.755,1.364,3.804,1.146C343.251,139.557,342.476,138.323,341.475,137.541z"/>
			<path fill="#1C1A29" d="M322.195,148.433c0,1.648-0.879,2.989-1.961,2.989c-1.08,0-1.959-1.341-1.959-2.989
				c0-1.651,0.879-2.989,1.959-2.989C321.316,145.444,322.195,146.781,322.195,148.433z"/>
			<path fill="#1C1A29" d="M340.172,148.433c0,1.648-0.872,2.989-1.956,2.989c-1.082,0-1.956-1.341-1.956-2.989
				c0-1.651,0.874-2.989,1.956-2.989C339.3,145.444,340.172,146.781,340.172,148.433z"/>
			<path fill="#1C1A29" d="M348.486,124.012c-2.397,1.69-5.314,2.484-8.213,2.939c-3.205,0.506-6.467,0.633-9.705,0.383
				c-0.773-0.057-1.561-0.146-2.265-0.472c-0.702-0.333-1.313-0.954-1.436-1.72c-0.119-0.767-0.01-1.767,0.758-1.878
				c-6.219,5.695-15.463,7.051-23.761,5.557c-0.749-0.134-1.527-0.303-2.126-0.771c-0.604-0.472-0.97-1.326-0.645-2.02
				c-1.277,1.698-2.845,3.181-4.614,4.366c-0.283,0.191-0.644,0.253-0.964,0.142c-0.688-0.242-0.655-1.043-0.559-1.675
				c0.676-4.312,1.617-9.087,5.147-11.659c-1.392,0.276-2.83,0.322-4.235,0.142c-0.73-0.093-1.55-0.311-1.885-0.966
				c-0.37-0.72,0.035-1.594,0.52-2.246c1.167-1.56,2.812-2.687,4.505-3.656c5.729-3.269,13.042-4.967,19.637-4.783
				c-2.202-0.835-3.618-3.372-3.137-5.687c0.025-0.126,0.078-0.253,0.155-0.36c0.48-0.617,1.346,0.007,1.865,0.54
				c2.298,2.353,5.74,3.224,9.027,3.327c3.287,0.111,6.564-0.434,9.853-0.43c3.352,0.008,6.731,0.61,9.746,2.07
				c3.013,1.472,5.633,3.848,7.085,6.864c1.795,0.486,3.56,1.161,4.876,3.797c1.11,2.234,1.356,4.799,0.755,7.22
				c-0.608,2.472-1.789,4.803-3.444,6.738c-0.683,0.801-1.467,1.549-2.448,1.92c-0.979,0.375-2.184,0.302-2.95-0.414
				C349.297,130.604,347.731,125.4,348.486,124.012z"/>
			<path fill="#FA775D" d="M326.584,151.986c0,0.007,0,0.019,0,0.026c0,1.706,1.381,3.082,3.084,3.082
				c1.698,0,3.081-1.376,3.081-3.082c0-0.007,0-0.019,0-0.026H326.584z"/>
			<path opacity="0.47" fill="#FA775D" d="M344.958,155.623c0,2.161-1.75,3.917-3.914,3.917c-2.159,0-3.915-1.756-3.915-3.917
				c0-2.162,1.756-3.917,3.915-3.917C343.208,151.706,344.958,153.461,344.958,155.623z"/>
			<circle opacity="0.47" fill="#FA775D" cx="319.549" cy="155.623" r="3.915"/>
			<path fill="#201D2E" d="M327.204,106.437c-0.92,0.015-1.933,0.099-2.583,0.759c-0.641,0.655-0.486,2.054,0.424,2.2
				c-5.144,0.367-10.231,1.54-15.016,3.46c-1.386,0.556-2.823,1.242-3.616,2.502c-0.11,0.18-0.208,0.376-0.169,0.575
				c0.06,0.345,0.466,0.502,0.811,0.572c0.862,0.172,1.744,0.241,2.617,0.191c1.07-0.062,2.428-0.134,2.894,0.828
				c0.362,0.74-0.096,1.591-0.429,2.341c-0.335,0.755-0.45,1.832,0.271,2.227c0.284,0.149,0.617,0.146,0.938,0.13
				c3.298-0.18,6.39-1.591,9.632-2.227c3.183-0.621,6.462-0.491,9.706-0.349c1.777,0.073,3.555,0.146,5.335,0.218
				c0.117-1.088-1.232-1.667-2.309-1.858c-3.286-0.605-6.609-0.985-9.942-1.131c-1.714-0.077-3.593-0.149-4.866-1.299
				c2.531-0.563,5.068-1.126,7.598-1.69c0.314-0.068,0.679-0.195,0.75-0.505c0.046-0.215-0.073-0.425-0.2-0.605
				c-0.36-0.525-0.785-1-1.26-1.422c1.65-0.739,3.515-0.766,5.301-1.05c1.696-0.276,5.927-1.966,2.482-3.077
				C333.016,106.406,329.865,106.395,327.204,106.437z"/>
		</g>
		<path fill="#C43851" d="M329.466,159.601c2.121-0.046,4.244,0.867,5.671,2.43c0.251,0.283,0.481,0.72,0.221,0.993
			c-0.112,0.122-0.291,0.157-0.458,0.18c-2.398,0.321-4.841-0.679-7.23-0.292c-1.055,0.168-2.131,0.609-3.16,0.322
			c-1.711-0.476,0.421-1.997,1.049-2.411C326.716,160.072,328.087,159.631,329.466,159.601z"/>
	</g>
	<path fill="#558219" d="M322.882,176.996c-1.759,14.621-3.042,29.299-3.857,44.005c-0.207,3.736-0.363,7.6,0.955,11.095
		c-2.45,1.307-4.75,3.139-7.375,4.04c-0.427-7.724-0.851-15.488,0.026-23.168c0.68-6.017,2.152-11.916,3.625-17.794
		c0.828-3.311,1.654-6.63,2.484-9.949C319.533,182.066,320.39,179.092,322.882,176.996z"/>
	<path fill="#421E13" d="M371.694,343.977l-11.378,19.707c-0.598,1.034-1.924,1.392-2.962,0.788l-5.145-2.97
		c-1.039-0.593-1.391-1.923-0.793-2.959l11.377-19.706c0.6-1.034,1.925-1.391,2.96-0.789l5.145,2.97
		C371.937,341.615,372.293,342.942,371.694,343.977z"/>
	<path fill="#E4CDC0" d="M288.036,391.817c-13.697-1.622-19.886-7.57-22.525-11.475c-0.029,0.234-0.042,0.467-0.042,0.702
		c-0.007,1.62,0.489,3.135,1.292,4.525c1.74,3.005,4.735,5.074,8.139,5.764l35.061,7.109c1.611,0.322,3.173-0.678,3.58-2.23
		C307.116,394.753,298.318,393.043,288.036,391.817z"/>
	<path fill="#E4CDC0" d="M376.243,359.353c0,2.338-1.895,4.228-4.229,4.228c-2.337,0-4.23-1.89-4.23-4.228
		c0-2.339,1.893-4.231,4.23-4.231C374.348,355.121,376.243,357.014,376.243,359.353z"/>
	<path fill="#FB9964" d="M386.984,273.735c-1.03-3.783-2.36-7.316-3.944-10.896c-0.639-1.453-1.211-2.951-1.298-4.538
		c-0.625-11.045-2.073-22.021-4.61-32.771c-1.47,0.667-2.96,1.284-4.484,1.813c-2.592,0.896-5.304,1.536-8.033,1.736
		c3.153,9.634,5.504,19.537,7.012,29.562c-1.366,2.266-2.602,4.998-3.101,7.592c-0.39,2.028-0.515,4.159-1.48,5.986
		c-0.35,0.663-0.821,1.381-0.616,2.098c0.258,0.919,1.521,1.203,2.38,0.781c0.854-0.417,1.384-1.28,1.87-2.097
		c0.625-1.058,1.248-2.111,1.872-3.165c0.451,5.009,0.9,10.076,0.083,15.039c-0.088,0.523-0.19,1.064-0.086,1.594
		c0.104,0.525,0.466,1.039,0.991,1.142c0.95,0.188,1.587-0.942,1.825-1.878c0.236-0.938,0.613-2.104,1.574-2.211
		c0.367-0.046,0.733,0.092,1.102,0.062c1.113-0.089,1.544-1.479,2.387-2.196c1.204-1.027,3.289-0.687,4.227-1.954
		c0.58-0.782,0.479-1.913,1.042-2.702c0.242-0.342,0.586-0.59,0.851-0.916C387.008,275.241,387.18,274.44,386.984,273.735z"/>
	<path fill="#FB9964" d="M340.744,168.607l-13.591,11.19c1.348,2.622,4.179,4.308,7.296,4.051l0,0
		c4.136-0.337,7.217-3.963,6.88-8.102L340.744,168.607z"/>
	<path fill="#FB9964" d="M348.735,220.337c-0.464-0.574-1.253-0.747-1.984-0.885c-2.753-0.514-5.152-1.092-7.91-1.602
		c2.367-0.35,4.734-0.701,7.099-1.054c0.659-0.101,1.353-0.212,1.874-0.625c0.522-0.414,0.781-1.238,0.365-1.76
		c-0.335-0.421-0.941-0.486-1.485-0.514c-1.621-0.076-3.244-0.153-4.865-0.233c-1.184-0.057-2.372-0.115-3.55,0.023
		c-3.214,0.383-5.86,1.625-8.576,3.388c0.803-2.115,1.389-4.599,0.243-6.55c-0.284-0.479-0.737-0.942-1.297-0.932
		c-0.537,0.004-0.978,0.457-1.183,0.951c-0.208,0.499-0.245,1.042-0.358,1.567c-0.453,2.047-2.05,3.61-3.256,5.328
		c-1.915,2.74-3.406,5.855-4.348,9.063c-3.033,0.456-5.925,2.514-8.995,2.514l0.633-8.695c-1.939-1.445-3.877-2.89-5.814-4.338
		c-0.767-0.571-1.539-1.149-2.297-1.748c-2.217,6.132-3.611,11.359-5.311,18.614c-0.538,2.292-1.034,4.634-0.868,6.979
		c0.171,2.345,1.091,4.736,2.94,6.192c1.925,1.518,4.599,1.816,7.005,1.33c2.405-0.482,4.607-1.667,6.741-2.87
		c4.133-2.338,8.177-4.833,12.12-7.47c2.828-1.897,5.331-4.204,8.736-4.174c1.383,0.016,2.793,0.299,4.135-0.03
		c1.346-0.338,2.623-1.591,2.335-2.947c1.779-0.173,3.647-0.38,5.109-1.407c1.004-0.708,1.736-1.762,2.192-2.904
		c0.38-0.954,0.385-2.354-0.588-2.675C348.729,222.832,349.458,221.238,348.735,220.337z"/>
	<path fill="#FD8208" d="M315.084,217.433c-1.033,0.82-2.484,1.491-3.625,0.832c-0.447-0.257-0.771-0.687-1.043-1.124
		c-0.159-0.257-0.303-0.521-0.439-0.792c-0.412,2.82-0.682,5.659-0.812,8.507l-0.191,4.389c1.347-0.096,3.825-0.122,7.321-1.805
		c-0.167-3.783-0.08-7.596,0.263-11.379C316.104,216.547,315.613,217.011,315.084,217.433z"/>
	<path fill="#FD9209" d="M323.336,177.41c0.223-1.196-0.973-2.168-2.099-1.708l-1.9,0.778c-1.45,0.594-2.499,1.886-2.78,3.426
		l-6.115,33.61c-0.171,0.948-0.328,1.887-0.466,2.833c0.136,0.271,0.28,0.535,0.439,0.792c0.272,0.438,0.596,0.867,1.043,1.124
		c1.141,0.659,2.592-0.012,3.625-0.832c0.529-0.422,1.02-0.886,1.472-1.372c0.231-2.579,0.58-5.139,1.047-7.677L323.336,177.41z"/>
	<path fill="#FA805E" d="M363.089,224.63c0.528,1.476,1.034,2.959,1.524,4.45c2.729-0.2,5.441-0.841,8.033-1.736
		c1.524-0.529,3.014-1.146,4.484-1.813c-0.3-1.265-0.616-2.532-0.946-3.794c-1.499,0.755-3.725,1.614-6.874,2.273
		C366.897,224.515,364.664,224.63,363.089,224.63z"/>
	<path fill="#FD9209" d="M360.357,224.339c0.18-0.142,0.35-0.291,0.519-0.448c-0.355-1.525-0.525-3.104-0.492-4.715l0.745-34.768
		c0.05-2.322-1.4-4.411-3.592-5.173l0,0c-1.852-0.64-3.794,0.687-3.869,2.641l-1.384,36.562c-0.078,2.031,0.092,4.036,0.48,5.982
		c0.489,0.43,1.022,0.797,1.621,1.047C356.343,226.29,358.687,225.657,360.357,224.339z"/>
	<path fill="#30160E" d="M307.352,323.086c1.205,1.536,2.602,2.932,4.182,4.154l1.472-4.442c1.558-4.69,3.457-9.255,5.687-13.662
		l7.375-14.583l1.419-6.852c-6.183,8.094-12.271,16.337-16.459,25.608C309.594,316.49,308.396,319.76,307.352,323.086z"/>
	<path fill="#421E13" d="M308.854,265.361c-1.831,10.899-4.458,27.486-6.312,39.306c-1.037,6.635,0.778,13.287,4.81,18.419
		c1.044-3.326,2.242-6.596,3.677-9.776c4.188-9.271,10.276-17.515,16.459-25.608l1.219-5.906c0,0,1.445,0.257,3.512,0.617l3.9-7.711
		c-6.021-1.613-11.986-3.487-17.878-5.411C315.041,268.239,311.72,267.086,308.854,265.361z"/>
	<path fill="#421E13" d="M318.693,309.136c-2.23,4.407-4.129,8.972-5.687,13.662l-14.312,43.162l21.674,6.906l13.378-40.46
		c1.81-5.477,4.095-10.792,6.818-15.873l8.117-15.128c4.273-7.968,9.635-15.291,15.867-21.833
		c-9.554-0.468-19.059-2.357-28.431-4.871L318.693,309.136z"/>
	<path fill="#562719" d="M318.548,378.411l-21.394-7.748c-1.127-0.411-1.71-1.652-1.303-2.775l2.023-5.588
		c0.406-1.127,1.65-1.705,2.775-1.3l21.396,7.745c1.125,0.406,1.708,1.648,1.302,2.775l-2.023,5.588
		C320.917,378.231,319.673,378.818,318.548,378.411z"/>
	<path fill="#E4CDC0" d="M310.785,386.824c0,2.314-1.874,4.192-4.189,4.192c-2.316,0-4.194-1.878-4.194-4.192
		c0-2.319,1.877-4.194,4.194-4.194C308.911,382.63,310.785,384.505,310.785,386.824z"/>
	<g>
		<path fill="#E4CDC0" d="M291.557,384.383c-0.325,0-0.604-0.238-0.65-0.568c-0.356-2.514-1.219-5.008-2.491-7.208
			c-0.183-0.317-0.073-0.717,0.238-0.897c0.314-0.184,0.716-0.072,0.898,0.238c1.356,2.346,2.275,5.005,2.654,7.688
			c0.05,0.36-0.199,0.693-0.558,0.743C291.613,384.383,291.584,384.383,291.557,384.383z"/>
	</g>
	<g>
		<path fill="#E4CDC0" d="M287.645,385.463c-0.328,0-0.611-0.249-0.652-0.583c-0.279-2.444-0.785-4.874-1.498-7.229
			c-0.107-0.352,0.09-0.712,0.437-0.822c0.345-0.104,0.711,0.096,0.818,0.439c0.736,2.43,1.257,4.94,1.548,7.463
			c0.041,0.36-0.218,0.686-0.577,0.724C287.697,385.46,287.67,385.463,287.645,385.463z"/>
	</g>
	<g>
		<path fill="#E4CDC0" d="M283.253,385.992c-0.299,0-0.569-0.207-0.638-0.514c-0.512-2.266-0.945-4.579-1.28-6.879
			c-0.052-0.356,0.197-0.69,0.556-0.745c0.359-0.053,0.691,0.197,0.745,0.557c0.328,2.265,0.751,4.546,1.261,6.776
			c0.079,0.356-0.142,0.705-0.498,0.786C283.353,385.983,283.301,385.992,283.253,385.992z"/>
	</g>
	<g>
		<path fill="#E4CDC0" d="M361.731,384.247c-0.148,0-0.304-0.049-0.426-0.151c-1.761-1.51-4.101-2.319-6.417-2.227
			c-0.369,0.018-0.669-0.27-0.688-0.63c-0.015-0.36,0.271-0.667,0.631-0.682c2.645-0.107,5.315,0.815,7.327,2.54
			c0.276,0.234,0.309,0.649,0.071,0.925C362.102,384.172,361.918,384.247,361.731,384.247z"/>
	</g>
	<g>
		<path fill="#E4CDC0" d="M361.92,379.99c-0.154,0-0.306-0.054-0.431-0.161c-1.32-1.161-3.145-1.682-4.875-1.395
			c-0.358,0.053-0.694-0.185-0.753-0.545c-0.06-0.355,0.182-0.697,0.54-0.755c2.115-0.346,4.341,0.292,5.952,1.71
			c0.274,0.237,0.301,0.647,0.061,0.923C362.287,379.913,362.105,379.99,361.92,379.99z"/>
	</g>
	<g>
		<path fill="#E4CDC0" d="M363.547,376.15c-0.155,0-0.315-0.058-0.441-0.172c-1.424-1.285-3.343-1.979-5.256-1.887
			c-0.358,0.021-0.67-0.261-0.684-0.624c-0.02-0.365,0.263-0.671,0.623-0.686c2.263-0.104,4.521,0.709,6.199,2.222
			c0.268,0.246,0.289,0.659,0.046,0.929C363.905,376.077,363.725,376.15,363.547,376.15z"/>
	</g>
</g>
<path fill="#B5C1BB" d="M294.924,147.191c-0.229,0.345-0.444,0.812-0.195,1.142c0.253,0.333,0.787,0.238,1.157,0.035
	c0.729-0.402,1.288-1.107,1.516-1.905c0.202-0.705,0.318-1.529,0.355-2.246C296.628,144.907,295.67,146.103,294.924,147.191z"/>
<path fill="#B5C1BB" d="M298.052,171.497c-0.324,0.705-0.615,1.487-0.405,2.227c0.744,0.392,1.702,0.011,2.231-0.636
	c0.534-0.647,0.742-1.495,0.935-2.307c0.345-1.457,1.142-3.388,1.035-4.826C300.279,167.438,298.886,169.503,298.052,171.497z"/>
<path fill="#B5C1BB" d="M363.778,167.783c0.11,0.311,0.211,0.643,0.132,0.965c-0.078,0.318-0.423,0.594-0.731,0.483
	c-0.146-0.058-0.254-0.185-0.351-0.307c-1.262-1.61-2.157-3.92-1.904-5.99C362.242,163.008,363.387,166.676,363.778,167.783z"/>
<path fill="#B5C1BB" d="M367.497,141.32c0.814,0.49,1.683,1.038,2.026,1.919c0.187,0.479,0.154,1.116-0.269,1.411
	c-0.325,0.226-0.785,0.172-1.125-0.027c-0.345-0.195-0.6-0.514-0.847-0.824c-0.813-1.016-2.232-2.425-2.433-3.694
	C365.757,139.959,366.743,140.868,367.497,141.32z"/>
<g>
	<path fill="#D9D9D9" d="M425.731,94.526h-1.603h-14.283c0,0,1.302,31.579,6.782,49.691h7.501h1.603h7.499
		c5.48-18.112,6.784-49.691,6.784-49.691H425.731z"/>
	<path opacity="0.41" fill="#EC181E" d="M438.037,100.435h-0.046c0,0.245-1.173,0.467-3.105,0.644l0.146-0.644h-2.292l-0.184,0.805
		c-2.107,0.115-4.677,0.184-7.451,0.184c-7.119,0-12.893-0.444-12.893-0.989c0,0-0.137,25.39,5.623,42.391h6.596h1.391h6.596
		C438.178,125.825,438.037,100.435,438.037,100.435z"/>
	<polygon opacity="0.6" fill="#FFFFFF" points="416.529,119.536 416.529,125.412 422.017,127.082 426.103,124.71 426.103,119.003 
		420.3,118.118 	"/>
	<polygon opacity="0.47" fill="#FFFFFF" points="416.529,119.536 421.316,120.44 426.103,119.003 420.3,118.118 	"/>
	<g>
		<path opacity="0.65" fill="#EC181E" d="M425.105,99.454c-7.119,0-12.893,0.437-12.893,0.981s5.773,0.989,12.893,0.989
			c2.774,0,5.344-0.069,7.451-0.184l0.184-0.805l0.191-0.782C430.76,99.526,428.049,99.454,425.105,99.454z"/>
		<path opacity="0.65" fill="#EC181E" d="M435.182,99.822l-0.149,0.613l-0.146,0.644c1.933-0.177,3.105-0.399,3.105-0.644
			C437.991,100.206,436.933,99.991,435.182,99.822z"/>
	</g>
	<path opacity="0.53" fill="#F4580E" d="M423.343,140.15l2.169,0.518l9.374-39.589c-0.688,0.062-1.47,0.115-2.329,0.161
		L423.343,140.15z"/>
	<path fill="#F4470D" d="M451.059,72.213l-13.198,6.549l-4.929,20.849l-0.191,0.855c0,0,0.536,0.058,0.916,0.091
		c0.379,0.039,0.728,0.039,0.728,0.039l0.617-0.023l0.181-0.794l4.61-19.484l12.256-6.082L451.059,72.213z"/>
	<path opacity="0.65" fill="#EC181E" d="M434.595,100.589c-0.253,0.011-0.392,0.007-0.938-0.032
		c-0.551-0.034-0.916-0.091-0.916-0.091l-0.184,0.778c0.859-0.049,1.641-0.103,2.329-0.165l0.115-0.506
		C435.001,100.573,434.886,100.573,434.595,100.589z"/>
	<g>
		<polygon opacity="0.6" fill="#FFFFFF" points="424.93,123.162 430.571,120.931 433.916,125.526 431.544,129.984 426.67,132.214 
			423.121,127.408 		"/>
		<polygon opacity="0.47" fill="#FFFFFF" points="424.93,123.162 428.275,127.512 433.916,125.526 430.571,120.931 		"/>
	</g>
	<polygon opacity="0.6" fill="#FFFFFF" points="423.316,130.021 419.38,133.64 422.654,139.055 426.478,139.956 430.873,135.521 
		427.184,130.934 	"/>
	<polygon opacity="0.47" fill="#FFFFFF" points="423.316,130.021 426.26,134.636 430.873,135.521 427.184,130.934 	"/>
	<path opacity="0.36" fill="#FFFFFF" d="M413.601,96.986c0,0,0.414,17.307,1.955,23.04h3.902c0,0-2.093-9.849-1.488-23.04H413.601z"
		/>
	<rect x="409.846" y="94.526" fill="#C4C4C4" width="30.169" height="0.605"/>
</g>
<path opacity="0.31" fill="#B5C1BB" d="M407.086,125.549c-0.076,0.28-0.134,0.575-0.064,0.851c0.072,0.28,0.311,0.537,0.598,0.529
	c0.425-0.003,0.64-0.502,0.724-0.916c0.177-0.889,0.325-2.027,0.05-2.897C407.669,123.349,407.273,124.86,407.086,125.549z"/>
<path opacity="0.31" fill="#FFFFFF" d="M434.305,110.752c-0.331,0.498-0.561,1.057-0.676,1.644c-0.076,0.411-0.045,0.92,0.322,1.112
	c0.354,0.184,0.812-0.096,0.942-0.475c0.131-0.383,0.016-0.798-0.137-1.169c-0.162-0.368-0.373-0.72-0.438-1.115"/>
<path opacity="0.31" fill="#FFFFFF" d="M431.346,106.084c-0.039,0.276-0.031,0.575,0.114,0.816c0.139,0.245,0.452,0.402,0.714,0.295
	c0.345-0.142,0.383-0.609,0.337-0.985c-0.069-0.563-0.181-1.307-0.522-1.771C431.605,104.846,431.407,105.533,431.346,106.084z"/>
<path opacity="0.31" fill="#FFFFFF" d="M416.843,129.984c-0.062,0.294-0.091,0.608,0.02,0.885c0.114,0.279,0.425,0.494,0.709,0.414
	c0.215-0.058,0.36-0.257,0.418-0.472c0.053-0.21,0.029-0.433-0.003-0.651c-0.047-0.292-0.177-1.43-0.53-1.456
	C417.089,128.676,416.897,129.746,416.843,129.984z"/>
<path opacity="0.31" fill="#FFFFFF" d="M434.886,118.21c0,0.356-0.291,0.643-0.647,0.643c-0.355,0-0.64-0.287-0.64-0.643
	c0-0.353,0.284-0.645,0.64-0.645C434.595,117.566,434.886,117.857,434.886,118.21z"/>
<circle opacity="0.31" fill="#FFFFFF" cx="420.399" cy="109.526" r="0.514"/>
<path opacity="0.31" fill="#FFFFFF" d="M424.351,104.302c0,0.49-0.398,0.885-0.886,0.885c-0.494,0-0.892-0.395-0.892-0.885
	c0-0.495,0.397-0.889,0.892-0.889C423.952,103.414,424.351,103.807,424.351,104.302z"/>
<path opacity="0.31" fill="#B5C1BB" d="M440.344,126.833c0.177,0.445,0.429,0.913,0.867,1.1c0.221,0.091,0.514,0.088,0.662-0.096
	c0.065-0.084,0.096-0.191,0.104-0.299c0.038-0.525-0.392-0.958-0.789-1.311c-0.342-0.302-0.676-0.621-1.042-0.889
	C439.769,125.702,440.168,126.4,440.344,126.833z"/>
<path opacity="0.31" fill="#B5C1BB" d="M442.126,120.341c0.118,0.372,0.234,0.762,0.142,1.141c-0.084,0.38-0.444,0.729-0.827,0.66
	c-0.499-0.081-0.663-0.713-0.714-1.215c-0.053-0.495-0.322-2.273,0.185-2.614C441.516,117.907,441.954,119.809,442.126,120.341z"/>
<path fill="#F0F0E8" d="M386.007,93.92c0,8.83-7.161,15.992-15.997,15.992c-8.832,0-15.991-7.163-15.991-15.992
	c0-8.838,7.159-15.997,15.991-15.997C378.846,77.923,386.007,85.082,386.007,93.92z"/>
</svg>
