<svg version="1.1" id="Layer_1" xmlns="http://www.w3.org/2000/svg" xmlns:xlink="http://www.w3.org/1999/xlink" viewBox="0 0 768 430" enable-background="new 0 0 768 430" xml:space="preserve">
<g>
	<g>
		<path fill="#752912" d="M481.978,167.113c-2.11-1.741-8.381-7.687-4.558-19.947c1.418-4.536-1.563-6.602-4.189-8.425
			c-3.586-2.489-6.682-4.638-1.87-12.369c6.019-9.663,4.7-18.91-3.433-24.133c-6.308-4.049-12.581-11.28-17.451-19.898
			c-1.66-4.792-2.889-9.352-3.713-12.712c-36.555-12.12-101.551-3.637-121.68,1.517l-2.022-3.352
			c-2.344,9.126-11.242,14.916-16.975,20.458c-6.949,6.715-10.552,14.262-7.726,23.072c1.118,3.496,1.938,6.581,0.598,8.972
			c-1.135,2.024-3.855,3.537-8.32,4.625c-4.417,1.08-7.25,2.819-8.65,5.319c-1.979,3.525-0.646,7.69,0.528,11.358
			c0.825,2.585,0.212,6.271-0.684,8.095c-3.299,6.727-6.074,8.989-5.42,14.107c0.287-5.298,3.589-7.688,6.522-13.282
			c1.093-2.089,1.932-5.616,0.384-10.401c-1.102-3.4-1.817-6.202-0.134-9.206c1.207-2.15,3.75-3.671,7.787-4.655
			c4.916-1.201,7.837-2.881,9.187-5.292c0.513-0.909,0.703-1.901,0.776-2.931c1.641,5.22,1.126,9.272-8.301,12.182
			c-17.325,5.347-2.624,18.422-5.632,23.007c-5.169,7.872-6.565,9.351-6.668,15.959c-0.121,7.576,4.663,12.636,9.777,14.761
			c0.208-1.168-4.314-8.667,1.558-19.495c0.244,6.376,4.601,21.809,6.269,22.391c26.596,9.287,107.322,26.247,138.574,16.002
			c5.967-1.958,6.394-14.765,8.364-18.061c1.429-2.386,4.014,20.103,6.177,18.305c29.238-24.315,24.484-33.552,21.395-34.264
			c-4.297-0.99-7.112-0.97-0.023-20.195c3.436-9.325-14.99-6.483-5.986-20.954c5.399-8.673,4.426-16.723-3.222-23.191
			c-2.681-2.269-4.987-5.518-7.019-9.134c3.502,3.399,7.118,6.329,10.605,8.566c7.548,4.847,9.051,12.645,3.396,21.734
			c-5.507,8.841-1.21,11.825,2.245,14.222c2.669,1.855,4.812,3.327,3.663,6.891C471.729,160.418,480.691,166.53,481.978,167.113z
			 M299.194,108.963c-1.56-7.142,1.162-13.251,7.234-19.119c3.412-3.297,8.393-5.771,12.465-9.11
			C312.588,92.461,300.465,99.599,299.194,108.963z"/>
		<path fill="#FFC19F" d="M402.863,376.31c0.684,2.299,16.054-1.229,15.838-3.64c-2.742-31.263-8.799-99.697-9.627-107.507
			l-30.764,6.067C378.311,271.23,399.25,364.131,402.863,376.31z"/>
		<g>
			<path fill="#FFE9B8" d="M401.576,380.753c0.199,0.577,22.111-3.707,22.062-4.443c-0.404-6.138-1.991-17.8-2.176-20.519
				l-25.432,2.672C397.986,364.542,400.29,377.081,401.576,380.753z"/>
			<g>
				<path fill="#E2511E" d="M430.025,371.863c-0.43-1.307-1.266-2.951-1.927-4.461c-0.487-1.118-11.643-0.371-11.532,2.372
					c0.026,0.706,0.088,1.324,0.176,1.88c-1.912,0.115-3.984,0.197-6.174,0.227c-4.765,0.068-9.045-0.103-12.059-0.427
					c0.023,4.347,0.781,11.833,0.848,16.662c0,0,50.263,6.806,57.746-0.81C459.211,385.158,446.255,376.748,430.025,371.863z"/>
				<path fill="#892910" d="M399.25,385.094c0.053,1.071,0.096,2.102,0.107,3.022c0,0,50.263,6.806,57.746-0.81
					c0.295-0.303,0.289-0.735,0.021-1.254C443.537,389.726,411.737,386.551,399.25,385.094z"/>
				<path fill="#D3DAE5" d="M433.58,373.091c0.386,0.056,0.742-0.191,0.807-0.571c0.064-0.382-0.195-0.741-0.575-0.803
					c-2.921-0.482-6.224,1.023-8.03,3.684c-0.211,0.324-0.129,0.754,0.189,0.972c0.12,0.082,0.258,0.12,0.4,0.12
					c0.217-0.006,0.436-0.111,0.567-0.309C428.447,373.959,431.178,372.676,433.58,373.091z M437.5,374.659
					c0.383,0.053,0.717-0.265,0.74-0.65s-0.264-0.718-0.652-0.741c-3.066-0.203-6.019,1.092-8.104,3.533
					c-0.251,0.292-0.219,0.736,0.079,0.986c0.132,0.115,0.298,0.168,0.462,0.162c0.193,0,0.383-0.082,0.518-0.241
					C433.007,374.824,435.954,374.559,437.5,374.659z M441.73,375.006c-2.771-0.341-6.238,1.102-8.454,3.493
					c-0.261,0.283-0.243,0.725,0.038,0.986c0.14,0.126,0.312,0.188,0.482,0.186c0.189-0.003,0.371-0.077,0.508-0.225
					c1.927-2.083,4.92-3.374,7.259-3.057c0.397,0.053,0.733-0.229,0.78-0.612C442.385,375.395,442.113,375.048,441.73,375.006z"/>
			</g>
		</g>
		<path fill="#FFC19F" d="M375.343,382.563c-0.167,2.39-13.767,2.789-14.248,0.42c-6.215-30.759-21.283-103.184-22.7-110.911
			l31.221-2.893C369.616,269.18,376.156,370.907,375.343,382.563z"/>
		<path fill="#2A535E" d="M339.275,251.129c0,0-10.688,38.511-15.67,50.47c19.618,14.53,83.25,17.362,109.411-7.98
			c-2.037-6.162-19.457-30.827-22.562-40.614L339.275,251.129z"/>
		<path opacity="0.23" d="M416.462,265.189c-28.355,15.214-72.877,20.96-84.572,11.438c3.102-11.994,7.986-24.994,7.986-24.994
			l67.002-2.543C408.891,252.589,413.193,259.207,416.462,265.189z"/>
		<path fill="#E4A78E" d="M310.482,214.146c13.995-9.191,33.896-25.455,36.852-26.445l11.571,21.692
			c-3.642,3.862-37.094,17.6-42.989,18.094C313.604,228.297,302.46,224.183,310.482,214.146z"/>
		<g>
			<path fill="#E0956C" d="M483.123,259.398c-3.832-2.099-9.17-5.877-20.278-11.497c-1.269-0.642-6.312,3.457-4.929,3.916
				C465.938,254.478,478.896,264.351,483.123,259.398z"/>
			<path fill="#E0956C" d="M488.744,255.49c-3.832-2.099-11.874-8.999-23.821-11.256c-1.476-0.282-5.884,4.138-4.499,4.594
				C468.445,251.485,485.173,259.498,488.744,255.49z"/>
			<path fill="#FFC19F" d="M492.904,248.619c-3.832-2.102-26.622-9.641-38.643-12.498c-1.943-0.462-4.975,7.695-3.399,10.396
				c0.438,5.609,9.486,10.835,18.124,17.951c1.529,1.256,1.604-1.352,1.436-2.284c-0.412-2.321-1.33-2.802-2.619-7.453
				c-0.965-3.479,2.452-5.059,4.914-5.33C483.275,249.879,490.238,252.104,492.904,248.619z"/>
		</g>
		<path fill="#FFC19F" d="M462.201,240.244c-0.563,4.031-6.387,8.752-8.629,9.316c-19.969-9.284-38.154-24.972-54.302-38.374
			c1.063-3.762,6.159-16.238,13.628-15.427C425.094,200.671,429.651,218.862,462.201,240.244z"/>
		<path fill="#28AFC6" d="M416.889,261.113c-44.001,22.247-77.396,8.066-84.999,4.076c2.264-34.604,9.574-65.416,19.901-83.116
			c19.352-2.712,51.046,2.306,62.426,7.579C404.854,224.96,410.033,246.421,416.889,261.113z"/>
		<path fill="#E0956C" d="M391.523,183.542c-9.077-1.407-21.541-2.232-31.551-2.078c-0.148,4.826,2.697,15.59,13.892,16.566
			C386.688,199.145,390.77,190.445,391.523,183.542z"/>
		<path fill="#E0956C" d="M389.586,171.115l-1.603,17.097c-0.345,3.676-6.438,6.111-13.607,5.44
			c-7.171-0.673-12.705-4.201-12.362-7.876l1.605-17.092L389.586,171.115z"/>
		<g>
			<path fill="#FFE9B8" d="M376.876,379.161c-0.045,0.606-22.838,1.239-22.944,0.51c-0.809-5.612-1.859-18.633-2.374-21.308
				l26.314,0.573C377.542,365.313,377.174,375.28,376.876,379.161z"/>
			<g>
				<path fill="#E2511E" d="M346.606,372.812c0.38-1.325,1.152-3.002,1.754-4.532c0.447-1.136,11.619-0.818,11.616,1.925
					c0,0.703-0.034,1.324-0.103,1.89c1.914,0.038,3.987,0.041,6.178-0.012c4.763-0.118,9.035-0.451,12.037-0.896
					c0.138,4.347-0.33,11.859-0.216,16.686c0,0-49.96,8.733-57.729,1.406C317.952,387.213,330.578,378.312,346.606,372.812z"/>
				<path fill="#892910" d="M377.866,384.847c-0.012,1.074-0.015,2.106,0.006,3.025c0,0-49.96,8.733-57.729,1.406
					c-0.31-0.288-0.317-0.721-0.07-1.253C333.789,391.177,365.447,386.783,377.866,384.847z"/>
				<path fill="#D3DAE5" d="M349.858,377.008c0.14,0.19,0.359,0.291,0.576,0.285c0.138-0.003,0.279-0.047,0.397-0.139
					c0.311-0.227,0.378-0.662,0.15-0.971c-1.908-2.593-5.265-3.973-8.166-3.378c-0.378,0.076-0.619,0.446-0.541,0.826
					c0.076,0.374,0.444,0.609,0.824,0.539C345.485,373.664,348.263,374.842,349.858,377.008z M346.312,378.667
					c0.143,0.153,0.336,0.229,0.529,0.224c0.163,0,0.327-0.059,0.456-0.183c0.283-0.259,0.302-0.7,0.041-0.985
					c-2.181-2.363-5.182-3.54-8.237-3.223c-0.383,0.041-0.66,0.383-0.622,0.769c0.038,0.386,0.385,0.688,0.765,0.62
					C340.784,375.73,343.74,375.883,346.312,378.667z M334.453,377.189c0.056,0.383,0.403,0.654,0.796,0.583
					c2.326-0.406,5.369,0.771,7.375,2.778c0.139,0.138,0.326,0.205,0.51,0.202c0.173-0.003,0.345-0.07,0.477-0.202
					c0.271-0.271,0.271-0.719,0-0.989c-2.304-2.301-5.826-3.61-8.583-3.166C334.648,376.454,334.392,376.813,334.453,377.189z"/>
			</g>
		</g>
		<g>
			<path fill="#FFB8B6" d="M355.242,211.692c-1.233,2.172-0.777,5.952,0.31,7.906c1.845,3.313,5.791,3.928,7.982,1.209
				C364.516,219.593,358.122,214.972,355.242,211.692z"/>
			<path fill="#E08686" d="M356.519,216.057c-0.362,1.19,0.528,3.289,1.49,4.374c1.628,1.846,4.045,2.216,4.881,0.73
				C363.265,220.49,358.754,217.892,356.519,216.057z"/>
			<path fill="#FFB8B6" d="M391.821,213.567c0.979,2.295,0.097,6.002-1.204,7.814c-2.204,3.084-6.193,3.236-8.064,0.285
				C381.714,220.346,388.586,216.494,391.821,213.567z"/>
			<path fill="#E08686" d="M390.056,217.751c0.231,1.229-0.895,3.207-1.973,4.178c-1.827,1.648-4.269,1.736-4.933,0.162
				C382.855,221.385,387.63,219.322,390.056,217.751z"/>
			<path fill="#FFB8B6" d="M385.413,241.821c-5.061,4.941-17.753,5.497-24.64,0.485c-5.492-3.999-5.667-10.79-0.937-17.927
				c4.276-6.449,12.173-10.346,20.004-5.67C385.794,222.262,393.219,234.194,385.413,241.821z"/>
			<path fill="#773733" d="M379.642,234.959c-0.239,0.795-1.067,1.242-1.852,1.001c-0.786-0.244-1.225-1.083-0.985-1.878
				c0.237-0.797,1.067-1.247,1.854-1.003C379.443,233.323,379.886,234.165,379.642,234.959z"/>
			<path fill="#773733" d="M368.047,234.114c-0.24,0.795-1.07,1.242-1.854,1.001c-0.785-0.244-1.229-1.086-0.988-1.881
				c0.242-0.794,1.072-1.241,1.856-1S368.288,233.317,368.047,234.114z"/>
			<path fill="#8E4D4C" d="M381.508,225.507c-0.184,0.371-0.814,0.43-1.411,0.13c-0.595-0.3-0.93-0.845-0.746-1.219
				c0.185-0.37,0.815-0.432,1.412-0.135C381.356,224.586,381.692,225.131,381.508,225.507z"/>
			<path fill="#8E4D4C" d="M367.17,223.995c0.07,0.408-0.406,0.835-1.059,0.95c-0.66,0.114-1.245-0.127-1.317-0.539
				c-0.066-0.411,0.406-0.835,1.063-0.95C366.512,223.342,367.101,223.583,367.17,223.995z"/>
			<path fill="#FFF0F0" d="M378.101,239.19c0.214,2.846-2.6,5.639-6.719,5.4c-3.468-0.203-6.872-3.976-5.271-6.842
				C367.864,234.594,377.78,234.912,378.101,239.19z"/>
			<path fill="#8E4D4C" d="M374.043,239.844c-0.226,0.029-0.471,0.012-0.719-0.059c-0.564-0.153-1.114-0.571-1.405-1.165
				c-0.279,0.512-0.754,0.959-1.286,1.147c-0.739,0.265-1.438,0.012-1.917-0.703c-0.074-0.109-0.045-0.256,0.06-0.327
				c0.107-0.076,0.25-0.047,0.327,0.06c0.453,0.68,0.999,0.661,1.374,0.523c0.629-0.224,1.17-0.912,1.233-1.521
				c-0.002-0.079-0.002-0.156,0.001-0.232c0.009-0.124,0.107-0.224,0.233-0.224c0.122,0,0.226,0.094,0.234,0.218
				c0.005,0.082,0.005,0.159,0,0.244c0.044,0.818,0.663,1.359,1.263,1.524c0.465,0.129,1.062,0.056,1.354-0.532
				c0.058-0.115,0.198-0.159,0.311-0.104c0.116,0.056,0.162,0.197,0.104,0.314C374.978,239.488,374.551,239.779,374.043,239.844z"/>
			<path fill="#773733" d="M373.942,236.398c-0.021,0.82-1.596,1.444-2.008,1.368c-0.5-0.101-1.868-0.812-1.851-1.631
				C370.103,235.315,373.957,235.577,373.942,236.398z"/>
		</g>
		<path fill="#28AFC6" d="M340.64,226.52c-7.831,0.156-19.618-15.096-23.417-16.872c3.453-6.912,15.157-19.195,19.417-22.844
			c4.423-3.789,15.52-5.179,19.396-5.24C353.98,195.03,340.64,226.52,340.64,226.52z"/>
		<path fill="#28AFC6" d="M435.811,211.316c-10.293,10-13.748,16.269-22.324,18.947c-13.223-11.823-15.315-36.751,0.438-40.905
			C422.32,198.609,435.811,211.316,435.811,211.316z"/>
		<g>
			<path fill="#FFC19F" d="M456.241,147.852c-5.493,13.489-20.243,20.46-30.276,17.738c-10.035-2.725-10.471-14.453-6.887-27.674
				c3.59-13.227,14.646-21.77,24.666-19.016C457.451,122.669,461.4,135.171,456.241,147.852z"/>
			<path fill="#E0956C" d="M443.555,149.243c-1.576,5.8-6.996,9.374-12.111,7.988c-5.11-1.389-7.986-7.215-6.408-13.012
				c1.576-5.8,6.996-9.374,12.105-7.985C442.256,137.621,445.127,143.446,443.555,149.243z"/>
			<path fill="#FFC19F" d="M304.665,128.572c1.938,14.436,14.475,24.876,24.872,24.751c10.395-0.125,13.755-11.367,13.594-25.068
				c-0.168-13.701-8.73-24.741-19.126-24.584C309.795,103.89,302.842,115.005,304.665,128.572z"/>
			<path fill="#E0956C" d="M317.352,133.195c0.07,6.008,4.426,10.825,9.724,10.762c5.295-0.065,9.534-4.987,9.461-10.994
				c-0.072-6.007-4.426-10.825-9.725-10.764C321.518,122.264,317.28,127.187,317.352,133.195z"/>
			<path fill="#752912" d="M320.313,75.5c-10.895,44.913,18.46,79.333,56.804,84.209c38.348,4.879,74.148-24.296,75.905-69.157
				c0.974-24.908-22.392-47.525-59.058-51.947C355.591,33.973,328.066,43.557,320.313,75.5z"/>
			<path fill="#FFC19F" d="M333.225,67.7c-4.448,7.248-10.77,75.344-4.139,85.792c7.036,11.083,39.569,24.971,46.667,25.875
				c7.596,0.967,41.763-3.431,49.589-13.635c9.261-12.072,20.313-71.96,18.805-79.449c-5.118-25.295-26.11-28.795-53.708-32.303
				C364.623,50.695,344.764,48.898,333.225,67.7z"/>
			
				<ellipse transform="matrix(-0.9745 -0.2243 0.2243 -0.9745 640.8433 344.8651)" fill="#FF9797" cx="340.013" cy="136.028" rx="8.618" ry="5.026"/>
			
				<ellipse transform="matrix(-0.9963 -0.0861 0.0861 -0.9963 821.9426 332.9487)" fill="#FF9797" cx="418.148" cy="148.756" rx="8.618" ry="5.025"/>
			<path fill="#C67F75" d="M375.453,134.3c0.302,0.042,0.597-0.143,0.688-0.449c0.648-2.154,2.566-3.356,4.894-3.059
				c2.34,0.297,3.937,1.973,3.971,4.171c0.006,0.352,0.3,0.634,0.649,0.63c0.354-0.007,0.634-0.297,0.625-0.65
				c-0.041-2.813-2.135-5.042-5.083-5.417c-2.935-0.374-5.457,1.218-6.276,3.961c-0.103,0.337,0.089,0.691,0.427,0.793
				L375.453,134.3z"/>
			<path fill="#8C2F22" d="M341.737,91.791c0.43,0.034,0.873-0.086,1.236-0.368c4.685-3.583,13.094-4.041,19.574-1.047
				c0.897,0.421,1.977,0.025,2.4-0.884c0.417-0.905,0.021-1.98-0.884-2.401c-7.735-3.563-17.531-2.95-23.287,1.464
				c-0.792,0.609-0.942,1.742-0.334,2.534C340.767,91.516,341.242,91.752,341.737,91.791z"/>
			<path fill="#8C2F22" d="M428.616,103.289c0.491,0.078,1.012-0.045,1.424-0.387c0.774-0.632,0.889-1.77,0.255-2.542
				c-4.59-5.618-13.982-8.463-22.328-6.773c-0.977,0.2-1.61,1.155-1.412,2.129c0.199,0.984,1.16,1.617,2.137,1.414
				c6.992-1.424,15.081,0.945,18.806,5.513C427.789,103.004,428.189,103.222,428.616,103.289z"/>
			<path fill="#752912" d="M435.951,65.103c-9.29-6.723-27.61-12.083-44.375-14.52c-18.219-2.651-37.358-2.846-48.271,2.203
				c-7.215,3.34-19.611,34.269-16.055,32.093c4.07-2.488,10.257-4.344,17.563-5.551c1.352-3.414,7.438-11.529,8.552-12.565
				c-0.611,1.817-2.096,8.306-2.851,11.769c9.054-1.031,19.276-1.19,29.132-0.465c0.299-3.752,2.798-8.341,2.842-8.591
				c0.984,1.27,2.55,6.801,3.225,9.155c1.475,0.167,2.931,0.355,4.374,0.563c13.173,1.919,22.805,4.16,30.367,6.78
				c1.128-11.572,1.558-15.176,1.377-14.4c1.081,2.635,1.926,9.92,1.318,15.379c2.82,1.08,5.335,2.219,7.641,3.426
				c0.699-3.313,2.189-8.625,2.415-9.528c0.941,0.762,1.88,8.437,2.075,12.104c3.795,2.387,7.098,4.997,10.48,7.859
				C449.459,103.941,443.438,70.517,435.951,65.103z"/>
			<g>
				<path fill="#701608" d="M395.195,148.154c0.348,6.808-11.391,14.165-20.664,12.156c-9.218-2.001-14.251-10.853-13.065-17.535
					c1.219-3.566,7.133-1.552,16.335-0.262C386.992,143.799,394.984,144.013,395.195,148.154z"/>
				<path fill="#DD6B5B" d="M376.513,154.422c-4.314-0.633-7.776-0.093-10.212,1.576c2.182,1.991,5.234,4.026,8.838,4.541
					c4.058,0.578,7.717,0.459,10.749-1.823C385.118,156.64,380.377,154.99,376.513,154.422z"/>
				<path fill="#FFFFFF" d="M391.006,144.56c-3.037-1.414-8.077-1.494-12.659-2.133c-5.169-0.724-8.865-1.913-12.193-1.67
					c0.827,2.938,4.895,5.341,10.834,6.245C383.844,148.041,389.655,147.385,391.006,144.56z"/>
			</g>
			<path fill="#6B1A11" d="M426.465,124.563c-0.012-0.656-2.99,0.827-5.82,0.059c-0.245-0.27-0.543-0.465-0.807-0.714
				c1.742-0.645,2.242-3.986,1.771-4.287c-0.359-0.231-1.777,2.03-4.3,2.339c-2.146-1.245-4.604-1.951-7.212-1.956
				c-5.539-0.037-10.506,2.778-12.968,7.355c-0.511,0.944-0.154,2.127,0.793,2.635c0.245,0.132,0.509,0.208,0.769,0.229
				c0.748,0.056,1.494-0.323,1.865-1.021c1.777-3.297,5.422-5.329,9.512-5.3c4.096-0.032,7.475,2.079,9.319,5.624
				c0.5,0.954,1.675,1.32,2.631,0.827c0.953-0.5,1.321-1.671,0.827-2.628C424.84,127.319,426.477,125.119,426.465,124.563z"/>
			<path fill="#6B1A11" d="M367.491,122.094c-1.706-5.136-6.026-8.789-11.355-9.655c-2.551-0.428-5.065-0.168-7.355,0.591
				c-1.558-1.304-2.055-3.215-2.416-3.14c-0.513,0.106-1.141,2.95-0.083,4.327c-0.38,0.218-0.792,0.363-1.148,0.615
				c-2.75-0.452-4.847-2.679-5.087-2.09c-0.227,0.542,0.698,3.431,2.656,4.367c-0.164,0.189-0.384,0.321-0.54,0.522
				c-0.654,0.852-0.493,2.077,0.362,2.73c0.223,0.168,0.469,0.284,0.729,0.346c0.723,0.175,1.521-0.08,2-0.712
				c2.28-2.969,6.2-4.395,10.234-3.715c4.047,0.624,7.046,3.247,8.302,7.042c0.341,1.018,1.438,1.567,2.465,1.236
				C367.275,124.216,367.827,123.117,367.491,122.094z"/>
		</g>
		<g>
			<path fill="#F9951E" d="M307.903,71.62c0,0-6.251,8.553-0.474,10.022c5.778,1.467,11.545-1.606,12.884-6.868
				c1.336-5.261-2.263-10.72-8.039-12.186C306.495,61.12,307.903,71.62,307.903,71.62z"/>
			<path fill="#F9951E" d="M338.925,79.505c0,0,1.411,10.5-4.367,9.032c-5.779-1.47-9.378-6.926-8.039-12.187
				c1.334-5.26,7.104-8.335,12.881-6.869C345.176,70.954,338.925,79.505,338.925,79.505z"/>
			
				<ellipse transform="matrix(0.9692 0.2464 -0.2464 0.9692 28.6149 -77.3242)" fill="#F9951E" cx="323.225" cy="75.657" rx="4.11" ry="4.67"/>
		</g>
		<g>
			<path opacity="0.53" fill="#C6F4EF" d="M378.176,168.526c1.044-3.982-6.333-9.374-16.476-12.038
				c-10.148-2.666-19.224-1.597-20.268,2.385l-7.571,56.27c-0.663,2.52,4.005,5.932,10.428,7.622
				c6.423,1.687,12.166,1.01,12.825-1.513L378.176,168.526z"/>
			<path opacity="0.73" fill="#C6F4EF" d="M361.7,156.488c-10.148-2.666-19.224-1.597-20.268,2.385l-7.571,56.27
				c-0.663,2.52,4.005,5.932,10.428,7.622c6.423,1.687,12.166,1.01,12.825-1.513l21.062-52.726
				C379.22,164.544,371.842,159.153,361.7,156.488z M358.248,169.615c-9.117-2.392-15.812-6.984-14.952-10.252
				c0.858-3.268,8.944-3.977,18.061-1.582c9.116,2.396,15.814,6.984,14.955,10.254C375.454,171.303,367.365,172.012,358.248,169.615
				z"/>
			<path opacity="0.5" fill="#FFFFFF" d="M368.851,184.785c0.707-2.697-4.835-6.49-12.361-8.469
				c-7.529-1.976-14.203-1.392-14.913,1.306l-4.552,33.573c-0.547,2.089,3.323,4.914,8.644,6.312s10.079,0.838,10.627-1.25
				L368.851,184.785z"/>
			<path opacity="0.5" fill="#FFFFFF" d="M368.851,184.785c-0.71,2.702-7.401,3.278-14.929,1.304
				c-7.527-1.979-13.054-5.769-12.345-8.466c0.71-2.698,7.384-3.282,14.913-1.306C364.016,178.295,369.558,182.088,368.851,184.785z
				"/>
		</g>
		<path fill="#FFC19F" d="M335.191,198.646c-9.985,14.374-15.132,26.314-15.132,26.314c-9.934,7.568-20.423-2.878-13.074-14.475
			c5.564-8.777,14.41-15.037,20.331-20.698C328.694,188.469,336.31,197.038,335.191,198.646z"/>
		<path fill="#FFC19F" d="M360.056,187.623c-2.785,0.335-8.216-1.917-11.176-1.217c0,0-0.18,0.084-0.283,0.169
			c5.709,1.262,10.105,4.445,14.473,6.371c0.411,6.534-7.295,1.196-15.804-1.462c4.913,2.372,7.928,4.548,11.362,6.018
			c2.314,3.061,0.779,4.776-2.77,3.673c-2.744-0.852-7.381-3.209-12.307-4.876c-0.471,0.052,9.657,6.335,10.296,8.933
			c-0.542,1.214-2.902,1.695-6.003-0.224c-1.679-1.039-3.354-2.55-7.3-4.354c-3.615-0.169-6.995,1.384-8.498,1.715
			c-5.557,0.544-7.097-7.166-6.894-8.711c0.521-4.017,8.808-10.598,13.426-11.411c7.743-1.359,11.597-2.251,23.021,2.363
			C363.482,186.231,361.413,187.457,360.056,187.623z"/>
	</g>
</g>
</svg>
