<svg version="1.1" id="Layer_1" xmlns="http://www.w3.org/2000/svg" xmlns:xlink="http://www.w3.org/1999/xlink" viewBox="0 0 768 430" enable-background="new 0 0 768 430" xml:space="preserve">
<g>
	<path fill="#9FC259" d="M403.686,37.053c-0.031-0.019-0.061-0.038-0.091-0.057c-2.512-1.604-5.851-0.808-7.376,1.752
		c-20.966,35.195-29.039,76.659-22.721,117.25c3.509-0.546,7.019-1.092,10.527-1.639c-5.937-38.141,1.651-77.101,21.354-110.17
		C406.836,41.744,406.084,38.584,403.686,37.053z"/>
	<g>
		<g>
			<circle fill="#8555C3" cx="355.713" cy="322.729" r="37.126"/>
			<path fill="#7845B9" d="M372.75,289.733c5.531,5.991,8.914,13.995,8.914,22.793c0,18.565-15.05,33.614-33.614,33.614
				c-12.192,0-22.868-6.491-28.762-16.206c3.356,17.055,18.388,29.92,36.426,29.92c20.505,0,37.126-16.622,37.126-37.126
				C392.84,308.365,384.684,295.908,372.75,289.733z"/>
			<path fill="#603B89" d="M383.279,297.859c2.27,4.804,3.541,10.172,3.541,15.838c0,20.504-16.623,37.127-37.127,37.127
				c-10.938,0-20.771-4.731-27.565-12.258c5.943,12.582,18.747,21.288,33.586,21.288c20.505,0,37.126-16.622,37.126-37.126
				C392.84,313.162,389.222,304.441,383.279,297.859z"/>
			
				<ellipse transform="matrix(0.7327 -0.6806 0.6806 0.7327 -112.6728 314.0063)" fill="#AB79CB" cx="343.368" cy="300.426" rx="9.395" ry="6.247"/>
		</g>
		<g>
			<circle fill="#8555C3" cx="371.401" cy="261.772" r="37.127"/>
			<path fill="#7845B9" d="M388.437,228.778c5.532,5.991,8.915,13.995,8.915,22.793c0,18.565-15.05,33.614-33.614,33.614
				c-12.192,0-22.868-6.491-28.761-16.207c3.354,17.056,18.387,29.921,36.425,29.921c20.504,0,37.127-16.622,37.127-37.127
				C408.528,247.409,400.371,234.952,388.437,228.778z"/>
			<path fill="#603B89" d="M398.967,236.903c2.27,4.805,3.541,10.173,3.541,15.839c0,20.504-16.623,37.127-37.127,37.127
				c-10.938,0-20.771-4.732-27.565-12.258c5.944,12.582,18.747,21.288,33.586,21.288c20.504,0,37.127-16.622,37.127-37.127
				C408.528,252.207,404.909,243.486,398.967,236.903z"/>
		</g>
		<g>
			<circle fill="#8555C3" cx="314.174" cy="235.521" r="37.127"/>
			<path fill="#7845B9" d="M331.21,202.526c5.531,5.991,8.915,13.996,8.915,22.793c0,18.565-15.051,33.614-33.615,33.614
				c-12.192,0-22.868-6.491-28.762-16.206c3.355,17.055,18.388,29.92,36.426,29.92c20.505,0,37.127-16.622,37.127-37.126
				C351.301,221.158,343.144,208.701,331.21,202.526z"/>
			<path fill="#603B89" d="M341.739,210.652c2.27,4.804,3.541,10.172,3.541,15.838c0,20.504-16.622,37.127-37.127,37.127
				c-10.938,0-20.771-4.731-27.565-12.258c5.943,12.582,18.747,21.288,33.586,21.288c20.505,0,37.127-16.622,37.127-37.126
				C351.301,225.955,347.682,217.234,341.739,210.652z"/>
			
				<ellipse transform="matrix(0.7326 -0.6806 0.6806 0.7326 -64.4239 262.4346)" fill="#AB79CB" cx="301.828" cy="213.219" rx="9.395" ry="6.246"/>
		</g>
		<g>
			<circle fill="#8555C3" cx="393.283" cy="220.869" r="37.127"/>
			<path fill="#7845B9" d="M410.318,187.874c5.532,5.991,8.915,13.996,8.915,22.793c0,18.565-15.05,33.614-33.614,33.614
				c-12.192,0-22.868-6.491-28.762-16.206c3.355,17.055,18.388,29.92,36.426,29.92c20.504,0,37.127-16.622,37.127-37.126
				C430.41,206.505,422.253,194.048,410.318,187.874z"/>
			<path fill="#603B89" d="M420.849,196c2.27,4.804,3.54,10.172,3.54,15.838c0,20.504-16.621,37.127-37.126,37.127
				c-10.938,0-20.771-4.731-27.565-12.258c5.943,12.582,18.747,21.288,33.586,21.288c20.504,0,37.127-16.622,37.127-37.126
				C430.41,211.302,426.791,202.582,420.849,196z"/>
			
				<ellipse transform="matrix(0.7327 -0.6806 0.6806 0.7327 -33.3049 312.3451)" fill="#AB79CB" cx="380.937" cy="198.567" rx="9.395" ry="6.247"/>
		</g>
		<g>
			<circle fill="#8555C3" cx="444.455" cy="186.971" r="37.127"/>
			<path fill="#7845B9" d="M461.49,153.976c5.531,5.991,8.915,13.996,8.915,22.793c0,18.565-15.05,33.615-33.614,33.615
				c-12.192,0-22.868-6.492-28.761-16.207c3.354,17.055,18.386,29.92,36.425,29.92c20.505,0,37.127-16.623,37.127-37.127
				C481.582,172.607,473.424,160.15,461.49,153.976z"/>
			<path fill="#603B89" d="M472.021,162.102c2.27,4.804,3.541,10.172,3.541,15.838c0,20.504-16.623,37.126-37.127,37.126
				c-10.938,0-20.771-4.731-27.565-12.258c5.943,12.582,18.747,21.289,33.586,21.289c20.505,0,37.127-16.623,37.127-37.127
				C481.582,177.404,477.963,168.684,472.021,162.102z"/>
		</g>
		<g>
			<circle fill="#8555C3" cx="345.99" cy="155.998" r="37.126"/>
			<path fill="#7845B9" d="M363.025,123.003c5.531,5.992,8.914,13.996,8.914,22.793c0,18.565-15.049,33.615-33.614,33.615
				c-12.192,0-22.868-6.492-28.761-16.207c3.355,17.055,18.387,29.92,36.425,29.92c20.505,0,37.127-16.623,37.127-37.127
				C383.116,141.634,374.959,129.178,363.025,123.003z"/>
			<path fill="#603B89" d="M373.555,131.129c2.27,4.804,3.541,10.172,3.541,15.838c0,20.504-16.623,37.127-37.127,37.127
				c-10.938,0-20.771-4.731-27.565-12.258c5.944,12.582,18.747,21.289,33.586,21.289c20.505,0,37.127-16.623,37.127-37.127
				C383.116,146.432,379.497,137.711,373.555,131.129z"/>
			
				<ellipse transform="matrix(0.7326 -0.6806 0.6806 0.7326 -1.7933 262.8275)" fill="#AB79CB" cx="333.644" cy="133.696" rx="9.395" ry="6.246"/>
		</g>
		<g>
			<circle fill="#8555C3" cx="355.363" cy="205.024" r="37.126"/>
			<path fill="#7845B9" d="M372.399,172.03c5.531,5.992,8.914,13.996,8.914,22.793c0,18.564-15.05,33.614-33.614,33.614
				c-12.193,0-22.868-6.491-28.762-16.207c3.355,17.055,18.387,29.92,36.426,29.92c20.504,0,37.126-16.622,37.126-37.127
				C392.489,190.661,384.332,178.204,372.399,172.03z"/>
			<path fill="#603B89" d="M382.929,180.156c2.27,4.804,3.54,10.172,3.54,15.838c0,20.504-16.622,37.126-37.126,37.126
				c-10.938,0-20.771-4.731-27.565-12.257c5.943,12.582,18.747,21.288,33.586,21.288c20.504,0,37.126-16.622,37.126-37.127
				C392.489,195.458,388.871,186.738,382.929,180.156z"/>
			
				<ellipse transform="matrix(0.7327 -0.6806 0.6806 0.7327 -32.6591 282.3017)" fill="#AB79CB" cx="343.017" cy="182.723" rx="9.395" ry="6.247"/>
		</g>
		<g>
			<circle fill="#8555C3" cx="440.417" cy="239.584" r="37.126"/>
			<path fill="#7845B9" d="M457.453,206.589c5.531,5.991,8.915,13.996,8.915,22.793c0,18.564-15.05,33.614-33.615,33.614
				c-12.192,0-22.868-6.491-28.761-16.207c3.355,17.056,18.387,29.921,36.425,29.921c20.505,0,37.127-16.623,37.127-37.127
				C477.544,225.221,469.387,212.764,457.453,206.589z"/>
			<path fill="#603B89" d="M467.982,214.715c2.27,4.805,3.541,10.172,3.541,15.838c0,20.505-16.622,37.127-37.127,37.127
				c-10.938,0-20.771-4.731-27.564-12.258c5.943,12.582,18.747,21.289,33.585,21.289c20.505,0,37.127-16.623,37.127-37.127
				C477.544,230.018,473.926,221.297,467.982,214.715z"/>
			
				<ellipse transform="matrix(0.7327 -0.6806 0.6806 0.7327 -33.4394 349.4349)" fill="#AB79CB" cx="428.071" cy="217.282" rx="9.394" ry="6.248"/>
		</g>
		<g>
			<circle fill="#8555C3" cx="395.054" cy="322.729" r="37.127"/>
			<path fill="#7845B9" d="M412.089,289.733c5.532,5.991,8.915,13.995,8.915,22.793c0,18.565-15.05,33.614-33.615,33.614
				c-12.191,0-22.867-6.491-28.76-16.206c3.354,17.055,18.387,29.92,36.425,29.92c20.505,0,37.127-16.622,37.127-37.126
				C432.181,308.365,424.023,295.908,412.089,289.733z"/>
			<path fill="#603B89" d="M422.619,297.859c2.27,4.804,3.541,10.172,3.541,15.838c0,20.504-16.623,37.127-37.127,37.127
				c-10.938,0-20.771-4.731-27.565-12.258c5.944,12.582,18.747,21.288,33.586,21.288c20.505,0,37.127-16.622,37.127-37.126
				C432.181,313.162,428.562,304.441,422.619,297.859z"/>
			
				<ellipse transform="matrix(0.7326 -0.6806 0.6806 0.7326 -102.1546 340.7974)" fill="#AB79CB" cx="382.707" cy="300.426" rx="9.395" ry="6.247"/>
		</g>
		<g>
			<circle fill="#8555C3" cx="332.407" cy="276.374" r="37.126"/>
			<path fill="#7845B9" d="M349.443,243.379c5.531,5.992,8.914,13.996,8.914,22.794c0,18.564-15.05,33.614-33.614,33.614
				c-12.192,0-22.868-6.491-28.761-16.207c3.354,17.056,18.386,29.921,36.424,29.921c20.506,0,37.127-16.622,37.127-37.127
				C369.533,262.011,361.377,249.554,349.443,243.379z"/>
			<path fill="#603B89" d="M359.973,251.505c2.27,4.804,3.541,10.173,3.541,15.839c0,20.504-16.623,37.126-37.127,37.126
				c-10.938,0-20.771-4.731-27.565-12.258c5.943,12.583,18.747,21.289,33.585,21.289c20.506,0,37.127-16.622,37.127-37.127
				C369.533,266.808,365.915,258.088,359.973,251.505z"/>
			
				<ellipse transform="matrix(0.7326 -0.6806 0.6806 0.7326 -87.3542 285.7676)" fill="#AB79CB" cx="320.061" cy="254.072" rx="9.395" ry="6.247"/>
		</g>
		<g>
			<circle fill="#8555C3" cx="377.422" cy="359.854" r="37.127"/>
			<path fill="#7845B9" d="M394.457,326.86c5.531,5.991,8.915,13.995,8.915,22.793c0,18.565-15.05,33.614-33.614,33.614
				c-12.192,0-22.869-6.491-28.762-16.207c3.355,17.056,18.387,29.921,36.426,29.921c20.504,0,37.127-16.622,37.127-37.127
				C414.549,345.491,406.391,333.034,394.457,326.86z"/>
			<path fill="#603B89" d="M404.987,334.986c2.269,4.804,3.541,10.172,3.541,15.838c0,20.504-16.623,37.127-37.127,37.127
				c-10.938,0-20.771-4.732-27.565-12.258c5.943,12.582,18.747,21.288,33.586,21.288c20.504,0,37.127-16.622,37.127-37.127
				C414.549,350.289,410.93,341.568,404.987,334.986z"/>
			
				<ellipse transform="matrix(0.7327 -0.6806 0.6806 0.7327 -132.1376 338.7059)" fill="#AB79CB" cx="365.076" cy="337.553" rx="9.395" ry="6.247"/>
		</g>
		<g>
			<circle fill="#8555C3" cx="418.481" cy="282.503" r="37.127"/>
			<path fill="#7845B9" d="M435.517,249.508c5.532,5.992,8.915,13.996,8.915,22.794c0,18.564-15.05,33.614-33.615,33.614
				c-12.191,0-22.867-6.491-28.761-16.207c3.355,17.056,18.388,29.92,36.426,29.92c20.504,0,37.127-16.621,37.127-37.126
				C455.608,268.14,447.451,255.683,435.517,249.508z"/>
			<path fill="#603B89" d="M446.047,257.634c2.27,4.804,3.54,10.173,3.54,15.839c0,20.504-16.622,37.126-37.126,37.126
				c-10.938,0-20.771-4.731-27.565-12.258c5.943,12.583,18.747,21.288,33.586,21.288c20.504,0,37.127-16.621,37.127-37.126
				C455.608,272.937,451.989,264.217,446.047,257.634z"/>
			
				<ellipse transform="matrix(0.7326 -0.6806 0.6806 0.7326 -68.5099 346.0063)" fill="#AB79CB" cx="406.135" cy="260.201" rx="9.395" ry="6.247"/>
		</g>
		<g>
			<circle fill="#8555C3" cx="397.321" cy="168.255" r="37.126"/>
			<path fill="#7845B9" d="M414.357,135.261c5.531,5.991,8.914,13.996,8.914,22.793c0,18.564-15.05,33.615-33.615,33.615
				c-12.191,0-22.868-6.492-28.761-16.207c3.355,17.055,18.387,29.92,36.425,29.92c20.505,0,37.127-16.622,37.127-37.126
				C434.447,153.892,426.291,141.435,414.357,135.261z"/>
			<path fill="#603B89" d="M424.887,143.387c2.27,4.804,3.541,10.172,3.541,15.838c0,20.504-16.623,37.126-37.127,37.126
				c-10.938,0-20.771-4.731-27.566-12.257c5.945,12.582,18.748,21.288,33.586,21.288c20.505,0,37.127-16.622,37.127-37.126
				C434.447,158.689,430.829,149.969,424.887,143.387z"/>
			
				<ellipse transform="matrix(0.7326 -0.6806 0.6806 0.7326 3.5908 301.0486)" fill="#AB79CB" cx="384.975" cy="145.954" rx="9.395" ry="6.247"/>
		</g>
		<g>
			<circle fill="#8555C3" cx="296.517" cy="174.713" r="37.126"/>
			<path fill="#7845B9" d="M313.553,141.718c5.531,5.991,8.914,13.996,8.914,22.793c0,18.565-15.05,33.615-33.614,33.615
				c-12.192,0-22.868-6.492-28.761-16.207c3.355,17.055,18.387,29.92,36.425,29.92c20.505,0,37.127-16.623,37.127-37.127
				C333.644,160.35,325.486,147.893,313.553,141.718z"/>
			<path fill="#603B89" d="M324.082,149.844c2.27,4.804,3.541,10.172,3.541,15.838c0,20.504-16.623,37.126-37.127,37.126
				c-10.938,0-20.771-4.731-27.565-12.258c5.944,12.582,18.747,21.289,33.586,21.289c20.505,0,37.127-16.623,37.127-37.127
				C333.644,165.146,330.024,156.426,324.082,149.844z"/>
			
				<ellipse transform="matrix(0.7327 -0.6806 0.6806 0.7327 -27.7594 234.1539)" fill="#AB79CB" cx="284.17" cy="152.411" rx="9.395" ry="6.247"/>
		</g>
	</g>
	<g opacity="0.32">
		<path d="M480.82,179.495c-1.781-0.569-3.538-1.206-5.265-1.911c-1.761-0.718-3.491-1.509-5.188-2.363
			c-11.553-5.808-21.57-14.638-29.075-25.237c1.043-0.089,2.095-0.141,3.163-0.141c6.142,0,11.933,1.491,17.035,4.132
			c0.351,0.184,0.696,0.372,1.043,0.56c0.038,0.026,0.077,0.047,0.12,0.068c0.696,0.393,1.38,0.808,2.047,1.244
			c0.034,0.021,0.068,0.047,0.106,0.068c0.316,0.209,0.629,0.419,0.94,0.637c0.018,0.013,0.03,0.025,0.047,0.034
			c0.338,0.235,0.667,0.479,0.996,0.723c0.004,0.004,0.009,0.008,0.009,0.013c0.312,0.231,0.611,0.47,0.914,0.709
			c0.039,0.03,0.077,0.064,0.115,0.094c0.611,0.496,1.21,1.013,1.791,1.547c0.034,0.034,0.073,0.073,0.111,0.107
			c0.27,0.248,0.53,0.5,0.791,0.756c0.021,0.021,0.042,0.043,0.063,0.06c0.286,0.286,0.564,0.573,0.842,0.863
			c0.013,0.017,0.03,0.03,0.044,0.047c0.188,0.201,0.371,0.406,0.555,0.607c0.029,0.034,0.064,0.068,0.094,0.103
			c0.312,0.351,0.62,0.705,0.919,1.064c0.064,0.077,0.124,0.154,0.184,0.231c0.278,0.338,0.552,0.68,0.816,1.03
			c0.03,0.039,0.06,0.082,0.09,0.12c0.052,0.073,0.106,0.146,0.158,0.214c0.231,0.312,0.453,0.624,0.671,0.936
			c0.039,0.056,0.081,0.111,0.12,0.167c0.017,0.026,0.034,0.047,0.052,0.073c0.021,0.03,0.038,0.064,0.059,0.094
			c0.568,0.833,1.104,1.696,1.604,2.577c0.013,0.025,0.029,0.051,0.042,0.072c0.026,0.047,0.052,0.09,0.077,0.137
			c0.025,0.051,0.052,0.103,0.082,0.154c0.184,0.342,0.367,0.684,0.542,1.025c0.03,0.06,0.064,0.12,0.095,0.18
			c0.021,0.043,0.042,0.085,0.063,0.128c0.013,0.021,0.018,0.038,0.03,0.06c0.448,0.91,0.867,1.838,1.243,2.791
			c0.021,0.047,0.043,0.094,0.061,0.145c0.004,0.004,0.004,0.009,0.008,0.013c0.03,0.081,0.056,0.158,0.086,0.239
			c0.132,0.342,0.257,0.688,0.38,1.034c0.034,0.098,0.073,0.196,0.107,0.295c0,0.004,0.004,0.013,0.008,0.021
			c0.014,0.047,0.025,0.094,0.043,0.141c0.325,0.974,0.611,1.961,0.859,2.966c0.005,0.017,0.009,0.034,0.013,0.051
			c0.018,0.064,0.034,0.132,0.047,0.197c0.018,0.064,0.025,0.128,0.043,0.192C480.693,178.871,480.757,179.183,480.82,179.495z"/>
		<path d="M441.015,150.005c-0.663,7.543-2.872,14.929-6.71,21.489c-2.248,3.838-5.047,7.39-8.424,10.527h-0.009
			c-1.247-0.718-2.444-1.496-3.603-2.317c-1.525-1.081-2.967-2.252-4.33-3.492c-9.295-8.458-14.838-20.369-16.283-32.763
			c-2.88,0.778-5.846,1.265-8.868,1.423c0.548-2.064,0.282-4.004-0.931-5.312c-1.539-1.658-4.215-1.872-6.945-0.829
			c-0.047-1.863,0.025-3.714,0.218-5.547c3.82-1.329,7.919-2.056,12.192-2.056c6.138,0,11.934,1.492,17.036,4.133
			c0.351,0.184,0.696,0.372,1.039,0.56c0.042,0.026,0.081,0.047,0.119,0.068c0.696,0.394,1.381,0.808,2.052,1.244
			c0.034,0.021,0.068,0.047,0.103,0.068c0.315,0.209,0.632,0.418,0.94,0.637c0.017,0.013,0.034,0.025,0.051,0.034
			c0.334,0.235,0.667,0.479,0.991,0.722c0.005,0.004,0.009,0.008,0.013,0.013c0.309,0.231,0.611,0.47,0.911,0.709
			c0.038,0.03,0.077,0.064,0.115,0.094c0.615,0.496,1.21,1.013,1.79,1.547c0.039,0.034,0.078,0.073,0.111,0.107
			c0.27,0.248,0.535,0.5,0.795,0.757c0.021,0.021,0.043,0.042,0.061,0.06c0.077,0.077,0.149,0.154,0.222,0.231l0.146,0.145
			c0.158,0.163,0.32,0.321,0.475,0.487c0.018,0.017,0.03,0.03,0.047,0.047c0.188,0.201,0.372,0.406,0.556,0.607
			c0.029,0.034,0.06,0.068,0.09,0.099c0,0.004,0,0.004,0,0.004c0.312,0.351,0.619,0.705,0.923,1.064
			c0.06,0.077,0.12,0.154,0.184,0.23c0.273,0.338,0.547,0.68,0.812,1.026c0.085,0.115,0.167,0.227,0.252,0.342
			c0.227,0.308,0.453,0.62,0.671,0.932c0.039,0.055,0.081,0.111,0.12,0.167c0.017,0.025,0.029,0.047,0.047,0.073
			c0.021,0.03,0.043,0.064,0.063,0.094c0.564,0.833,1.099,1.697,1.599,2.577c0.013,0.026,0.03,0.051,0.043,0.073
			c0.025,0.047,0.051,0.09,0.076,0.137c0.03,0.051,0.057,0.103,0.082,0.154c0.188,0.342,0.367,0.684,0.547,1.026
			c0.03,0.06,0.064,0.12,0.094,0.179c0.021,0.043,0.043,0.085,0.064,0.128c0.009,0.021,0.018,0.039,0.025,0.06
			c0.103,0.205,0.197,0.406,0.295,0.611c0.099,0.205,0.193,0.415,0.287,0.62c-0.09-0.201-0.18-0.397-0.27-0.594
			C434.078,151.151,437.476,150.33,441.015,150.005z"/>
	</g>
	<g>
		<path fill="#87B147" d="M503.219,166.783l0.004-0.004l0.005-0.004c4.408-25.009-5.977-49.765-23.796-66.535
			c12.332-1.857,23.981-7.855,31.944-18.079v-0.004v-0.004c-12.305-17.571-35.28-24.103-55.317-19.25
			c3.139-8.424,3.892-17.702,1.379-26.717l-0.003-0.002l-0.003-0.002c-26.297-0.693-48.342,24.115-46.78,49.609
			c-20.524,8.59-34.291,32.514-28.071,54.83l0.004,0.002l0.003,0.002c5.571,0.147,10.951-0.854,15.957-2.761
			c3.374,15.33,13.111,29.257,27.958,35.953l0.005,0l0.004-0.001c8.329-9.461,12.081-21.605,11.847-33.731
			C454.206,158.471,478.219,169.891,503.219,166.783z"/>
		<g>
			<path fill="#9EC047" d="M503.174,166.537c-33.945-32.104-103.305-92.01-118.562-94.587l0.568-3.372
				c8.529,1.441,31.216,18.234,67.43,49.913C479.429,141.954,502.928,166.304,503.174,166.537L503.174,166.537z"/>
		</g>
		<g>
			<polygon fill="#9EC047" points="420.276,137.587 420.276,137.587 420.811,95.27 477.247,78.938 477.247,78.938 422.887,96.894 
							"/>
		</g>
		<g>
			<polygon fill="#9EC047" points="401.152,110.851 401.152,110.851 415.738,89.477 435.339,63.718 435.339,63.718 417.431,90.782 
							"/>
		</g>
	</g>
</g>
</svg>
