<svg version="1.1" id="Layer_1" xmlns="http://www.w3.org/2000/svg" xmlns:xlink="http://www.w3.org/1999/xlink" viewBox="0 0 768 430" enable-background="new 0 0 768 430" xml:space="preserve">
<polygon fill="#0400FF" points="152.218,307.521 152.218,203.187 263.43,272.665 263.43,386.171 "/>
<polygon fill="#0400A2" points="595.002,292.615 600.505,181.174 263.429,272.666 263.429,386.171 "/>
<polygon fill="#0000E7" points="600.505,181.174 481.726,117.658 152.217,203.187 263.429,272.666 "/>
<g>
	<defs>
		<rect id="SVGID_1_" x="102" y="28" width="544.824" height="421"/>
	</defs>
	<clipPath id="SVGID_2_">
		<use xlink:href="#SVGID_1_"  overflow="visible"/>
	</clipPath>
	<path clip-path="url(#SVGID_2_)" fill="#00007C" d="M308.772,240.275c0,8.168-13.321,14.791-29.752,14.791
		c-16.432,0-29.752-6.623-29.752-14.791v-16.564h59.504V240.275z"/>
	<path clip-path="url(#SVGID_2_)" fill="#00007C" d="M396.371,217.003c0,8.168-13.321,14.79-29.752,14.79
		c-16.432,0-29.752-6.622-29.752-14.79v-16.872h59.504V217.003z"/>
	<path clip-path="url(#SVGID_2_)" fill="#00007C" d="M479.683,194.13c0,8.168-13.321,14.791-29.751,14.791
		c-16.433,0-29.753-6.622-29.753-14.791v-13.758h59.504V194.13z"/>
	<path clip-path="url(#SVGID_2_)" fill="#00007C" d="M501.063,138.594c0,8.168-13.321,14.79-29.753,14.79
		s-29.751-6.622-29.751-14.79v-12.145h59.504V138.594z"/>
	<path clip-path="url(#SVGID_2_)" fill="#00007C" d="M420.179,161.051c0,8.168-13.32,14.79-29.752,14.79
		c-16.432,0-29.752-6.622-29.752-14.79v-13.828h59.504V161.051z"/>
	<path clip-path="url(#SVGID_2_)" fill="#00007C" d="M562.994,172.818c0,8.168-13.32,14.791-29.751,14.791
		c-16.433,0-29.753-6.622-29.753-14.791l-0.238-13.771h59.504L562.994,172.818z"/>
	<path clip-path="url(#SVGID_2_)" fill="#00007C" d="M336.867,182.935c0,8.169-13.321,14.791-29.752,14.791
		c-16.432,0-29.752-6.622-29.752-14.791v-14.79h59.504V182.935z"/>
	<path clip-path="url(#SVGID_2_)" fill="#00007C" d="M249.268,204.792c0,8.169-13.321,14.791-29.752,14.791
		c-16.432,0-28.938-5.763-28.938-13.931v-15.65h59.504L249.268,204.792z"/>
	<path clip-path="url(#SVGID_2_)" fill="#0000FF" d="M308.772,223.711c0,8.167-13.321,14.789-29.752,14.789
		c-16.432,0-29.752-6.622-29.752-14.789c0-8.17,13.32-14.791,29.752-14.791C295.451,208.92,308.772,215.541,308.772,223.711"/>
	<path clip-path="url(#SVGID_2_)" fill="#0000FF" d="M396.371,200.131c0,8.168-13.321,14.791-29.752,14.791
		c-16.432,0-29.752-6.623-29.752-14.791c0-8.168,13.32-14.79,29.752-14.79C383.05,185.341,396.371,191.963,396.371,200.131"/>
	<path clip-path="url(#SVGID_2_)" fill="#0000FF" d="M479.683,180.372c0,8.168-13.321,14.791-29.751,14.791
		c-16.433,0-29.753-6.622-29.753-14.791c0-8.168,13.32-14.79,29.753-14.79C466.361,165.582,479.683,172.204,479.683,180.372"/>
	<path clip-path="url(#SVGID_2_)" fill="#0000FF" d="M562.756,159.047c0,8.168-13.319,14.79-29.752,14.79
		c-16.431,0-29.752-6.622-29.752-14.79s13.321-14.79,29.752-14.79C549.437,144.257,562.756,150.879,562.756,159.047"/>
	<path clip-path="url(#SVGID_2_)" fill="#0000FF" d="M501.063,126.449c0,8.168-13.321,14.79-29.753,14.79
		s-29.751-6.622-29.751-14.79s13.319-14.79,29.751-14.79S501.063,118.281,501.063,126.449"/>
	<path clip-path="url(#SVGID_2_)" fill="#0000FF" d="M420.179,147.222c0,8.168-13.32,14.79-29.752,14.79
		c-16.432,0-29.752-6.622-29.752-14.79c0-8.168,13.32-14.79,29.752-14.79C406.858,132.432,420.179,139.054,420.179,147.222"/>
	<path clip-path="url(#SVGID_2_)" fill="#0000FF" d="M336.867,168.145c0,8.168-13.321,14.79-29.752,14.79
		c-16.432,0-29.752-6.622-29.752-14.79c0-8.167,13.321-14.79,29.752-14.79C323.546,153.355,336.867,159.977,336.867,168.145"/>
	<path clip-path="url(#SVGID_2_)" fill="#0000FF" d="M250.082,190.002c0,8.168-13.32,14.79-29.752,14.79
		c-16.431,0-29.752-6.622-29.752-14.79c0-8.168,13.321-14.79,29.752-14.79C236.762,175.213,250.082,181.834,250.082,190.002"/>
</g>
</svg>
