<svg version="1.1" id="Layer_2" xmlns="http://www.w3.org/2000/svg" xmlns:xlink="http://www.w3.org/1999/xlink" viewBox="0 0 768 430" enable-background="new 0 0 768 430" xml:space="preserve">
<g>
	<g>
		<path fill="#FF7300" d="M458.229,359.004c0,0-4.785-6.714,4.512-8.62c0.419-5.021,3.125-10.537,3.125-10.537
			c-2.707-0.793-4.649-1.031-4.809-5.001c-3.816-0.075-28.892,15.325-28.892,15.325L458.229,359.004z"/>
		<path fill="#8C3000" d="M431.074,350.295l0.849-0.521c1.024-0.629,25.11-15.395,29.105-15.395l0.496,0.45
			c0.131,3.337,1.542,3.738,3.882,4.399c0.193,0.057,0.881,0.824,0.881,0.824c-0.027,0.056-2.676,5.498-3.084,10.37l-0.37,0.421
			c-2.803,0.574-4.529,1.638-5.129,3.163c-0.867,2.204,0.887,4.702,0.907,4.729L431.074,350.295z M433.263,350.049l23.96,8.12
			c-0.512-1.09-1.049-2.827-0.389-4.506c0.696-1.77,2.536-3.002,5.471-3.664c0.426-4.121,2.247-8.406,2.907-9.853
			c-0.021-0.008-0.042-0.014-0.062-0.018c-2.354-0.669-4.234-1.201-4.531-4.768C456.678,336.121,440.436,345.676,433.263,350.049z"
			/>
	</g>
	<g>
		<path fill="#FF7300" d="M335.936,350.619c0,0,14.014,3.188-2.715,15.132c5.231,1.664,11.709,2.82,11.709,2.82
			c7.021,0.348,11.575-0.698,11.001,8.184c4.812-3.77,18.045-19.502,18.045-19.502l-8.721-10.583L335.936,350.619z"/>
		<path fill="#8C3000" d="M355.396,377.767l0.067-1.041c0.18-2.779-0.331-4.83-1.515-6.095c-0.953-1.016-2.352-1.531-4.155-1.531
			c-1.436,0-11.551-1.26-16.716-2.905l-0.89-0.281l0.759-0.543c5.732-4.095,8.482-7.657,7.95-10.306
			c-0.591-2.94-5.021-3.979-5.065-3.988l29.616-4.906l9.133,11.086l-0.25,0.296c-0.542,0.645-13.319,15.814-18.115,19.568
			L355.396,377.767z M349.795,368.166c2.072,0,3.7,0.616,4.837,1.828c1.204,1.284,1.809,3.209,1.802,5.73
			c4.817-4.224,15.189-16.413,16.933-18.477l-8.308-10.081l-27.118,3.654c1.514,0.675,3.447,1.936,3.875,4.062
			c0.593,2.951-1.955,6.55-7.573,10.704c4.522,1.459,10.191,1.949,11.138,2.278C347.171,367.231,348.295,368.166,349.795,368.166z"
			/>
	</g>
	<g>
		<path fill="#FF8B2F" d="M408.339,325.615c0,0,3.893,11.96,3.427,15.23c-0.467,3.271-4.674,10.59,4.672,13.706
			c6.54,1.867,38.155,13.86,41.894,8.565c2.959-4.672-4.517-9.345-21.804-12.459c4.827-0.312,34.73,3.086,34.575-5.621
			c-0.155-7.773-13.081-5.127-19-4.969c7.632-1.559,10.045-3.731,9.033-7.009c-0.97-3.139-13.396-0.935-33.642,3.893
			c-1.712-0.933-2.96-0.545-2.96-0.545c0-1.48-0.854-2.57-2.023-3.816c-1.167-1.247-3.271-3.972-2.102-9.81
			C418.539,323.247,408.339,325.615,408.339,325.615z"/>
		<path fill="#FFA92F" d="M468.609,344.739c-0.003-7.774-10.59-4.829-16.507-4.672c7.632-1.559,10.045-3.731,9.033-7.009
			c-0.97-3.139-13.396-0.935-33.642,3.893c-1.712-0.934-2.96-0.545-2.96-0.545c0-1.481-0.854-2.57-2.023-3.816
			c-1.167-1.247-3.271-3.972-2.102-9.81c-0.74,0.185-2.789,0.668-4.992,1.184c-2.356,2.119-3.71,5.1-0.85,10.415
			c0.938,2.342,1.715,5.688,2.182,5.688c-1.401,3.738-5.606,10.745-0.467,11.68c1.885,0.332,3.526,0.906,5.027,1.63
			c5.583,1.101,10.823,3.611,16.462,4.913c6.437,1.892,15.937,5.928,21.049,1.929c-1.067-3.648-8.599-7.093-22.293-9.561
			C448.68,346.17,468.611,349.553,468.609,344.739z"/>
		<path fill="#BF3B00" d="M453.973,364.922c-0.002,0-0.002,0-0.002,0c-7.775,0-22.953-5.067-32.021-8.096
			c-2.499-0.834-4.475-1.494-5.64-1.825c-8.164-2.722-6.486-8.688-5.486-12.255c0.216-0.768,0.401-1.429,0.479-1.968
			c0.446-3.126-3.37-14.897-3.408-15.016l-0.156-0.485l0.496-0.115c0.103-0.023,10.218-2.375,12.062-2.834l0.715-0.182l-0.146,0.725
			c-1.198,6.001,1.196,8.562,1.986,9.401c1.011,1.077,1.929,2.169,2.116,3.598c0.534-0.036,1.45,0.008,2.59,0.587
			c15.67-3.732,24.423-5.323,29.253-5.323c2.878,0,4.392,0.566,4.771,1.79c0.392,1.264,0.299,2.396-0.273,3.358
			c-0.7,1.184-2.137,2.161-4.418,2.983c1.541-0.117,3.187-0.223,4.788-0.223c2.417,0,9.771,0,9.891,5.987
			c0.021,1.091-0.381,2.06-1.188,2.883c-2.388,2.432-8.429,3.612-18.468,3.612c-3.663,0-7.217-0.149-10.075-0.271
			c9.896,2.229,15.828,5.082,17.257,8.334c0.553,1.254,0.428,2.524-0.368,3.78C457.982,364.419,456.432,364.922,453.973,364.922z
			 M408.938,325.956c0.733,2.312,3.717,11.961,3.29,14.958c-0.087,0.598-0.28,1.286-0.505,2.087
			c-1.029,3.662-2.438,8.673,4.861,11.107c1.167,0.334,3.149,0.995,5.659,1.831c9.016,3.012,24.103,8.05,31.727,8.05
			c0,0,0,0,0.002,0c2.104,0,3.443-0.386,3.978-1.144c0.614-0.969,0.714-1.92,0.289-2.884c-1.512-3.444-9.254-6.585-21.793-8.844
			l-3.771-0.682l3.824-0.245c0.961-0.063,2.931,0.02,5.366,0.122c2.85,0.122,6.398,0.273,10.048,0.273
			c9.641,0,15.631-1.121,17.801-3.332c0.636-0.647,0.937-1.37,0.922-2.211c-0.069-3.459-2.916-5.07-8.957-5.07
			c-2.022,0-4.141,0.172-6.011,0.326c-1.302,0.105-2.535,0.206-3.553,0.233l-0.107-0.924c4.777-0.975,7.557-2.221,8.497-3.804
			c0.438-0.741,0.496-1.594,0.183-2.608c-0.228-0.742-1.567-1.133-3.877-1.133c-4.772,0-13.506,1.597-29.207,5.341l-0.177,0.042
			l-0.155-0.085c-1.532-0.835-2.596-0.51-2.601-0.508l-0.601,0.175l-0.003-0.622c0-1.236-0.665-2.181-1.897-3.496
			c-0.835-0.895-3.317-3.54-2.35-9.507C417.314,324.006,410.787,325.527,408.938,325.956z"/>
	</g>
	<g>
		<path fill="#FF8B2F" d="M364.887,324.492c0,0,6.687,13.821,4.901,16.333c-1.165,2.043-0.852,3.446-0.852,3.446
			c-1.713-0.78-3.271-0.155-5.762,1.012c-2.258,0.935-29.591,0.354-29.007,5.802c0.7,4.165,19.506,0.078,25.463-0.915
			c-6.307,2.979-32.706,13.258-27.8,20.5c3.271,5.021,25.191-7.346,33.367-11.667c-5.372,5.372-12.81,16.337-9.771,19.959
			c3.036,3.62,12.265-3.505,26.865-21.492c6.891-4.673,8.635-9.346,3.733-14.483c-4.901-5.139-7.12-12.5-9.222-17.87
			C371.544,324.532,364.887,324.492,364.887,324.492z"/>
		<path fill="#FFA92F" d="M365.354,372.772c5.607-4.673,10.746-10.278,14.485-17.288c0.935-1.869,3.738-2.335,4.205-4.204
			c2.336-4.205-2.804-5.14-4.205-8.412c-1.402-3.735-0.468-7.943-3.27-10.278c-2.831-2.476-6.731-3.346-10.284-5.042
			c1.853,4.22,4.755,11.519,3.504,13.276c-1.164,2.043-0.852,3.446-0.852,3.446c-1.713-0.78-3.271-0.155-5.762,1.012
			c-2.258,0.935-29.591,0.354-29.007,5.802c0.7,4.165,19.506,0.078,25.463-0.915c-6.307,2.979-30.136,12.615-25.58,18.514
			c2.386,3.088,24.413-8.178,31.147-9.681c-4.123,4.123-9.456,11.537-10.344,16.398C353.598,380.346,362.78,374.704,365.354,372.772
			z"/>
		<path fill="#BF3B00" d="M357.482,380.346L357.482,380.346c-1.001,0-1.814-0.364-2.415-1.081
			c-3.021-3.604,3.007-12.949,7.886-18.533c-7.629,4.085-21.664,11.587-28.149,11.587c-1.632,0-2.764-0.469-3.365-1.395
			c-0.677-0.997-0.852-2.108-0.513-3.288c1.728-6.006,16.754-12.681,25.027-16.331c-4.841,0.884-11.662,2.086-16.43,2.086
			c-3.663,0-5.565-0.729-5.818-2.226c-0.066-0.61,0.114-1.154,0.534-1.649c2.55-3.004,14.477-3.667,22.369-4.107
			c3-0.168,5.834-0.325,6.388-0.554c1.73-0.814,3.073-1.395,4.377-1.395c0.365,0,0.716,0.044,1.063,0.139
			c0.029-0.668,0.218-1.728,0.946-3.001l0.024-0.04c1.185-1.666-2.402-10.611-4.94-15.86l-0.328-0.675l0.75,0.004
			c0.067,0.002,6.743,0.046,11.963,0.627l0.28,0.031l0.104,0.263c0.319,0.814,0.64,1.673,0.973,2.562
			c1.809,4.841,4.059,10.863,8.154,15.154c2.152,2.26,3.123,4.534,2.885,6.756c-0.302,2.815-2.473,5.564-6.638,8.398
			C370.472,372.767,362.019,380.346,357.482,380.346z M367.721,357.141l-2.193,2.194c-5.754,5.755-12.413,16.146-9.744,19.328
			c0.422,0.503,0.977,0.747,1.697,0.747l0,0c2.39,0,8.744-2.888,24.446-22.234l0.101-0.093c3.959-2.685,6.018-5.224,6.29-7.763
			c0.209-1.967-0.651-3.934-2.633-6.012c-4.227-4.433-6.514-10.555-8.352-15.473c-0.295-0.79-0.583-1.556-0.865-2.289
			c-4.094-0.434-8.996-0.551-10.837-0.578c1.429,3.035,6.224,13.653,4.552,16.105c-1.034,1.828-0.793,3.086-0.791,3.099l0.183,0.898
			l-0.833-0.377c-1.51-0.684-3.033-0.084-5.37,1.011c-0.688,0.285-2.774,0.413-6.711,0.635c-7.263,0.403-19.417,1.081-21.709,3.78
			c-0.25,0.291-0.354,0.593-0.32,0.915c0.153,0.906,1.892,1.42,4.892,1.42c4.965,0,12.268-1.338,17.099-2.222
			c1.151-0.209,2.151-0.393,2.931-0.522l3.32-0.555l-3.044,1.437c-0.802,0.38-1.94,0.882-3.259,1.462
			c-7.505,3.31-23.121,10.194-24.745,15.839c-0.264,0.915-0.135,1.735,0.393,2.514c0.422,0.65,1.291,0.976,2.585,0.976
			c6.284,0,20.299-7.509,27.826-11.541c0.868-0.465,1.657-0.887,2.349-1.253L367.721,357.141z"/>
	</g>
	<g>
		<path fill="#AEAAB2" d="M352.738,291.32c0,0-5.606,27.396,13.082,36.434c9.345,4.682,21.804-6.533,21.804-6.533L352.738,291.32z"
			/>
		<path fill="#C0BFC1" d="M369.91,321.661c-9.888-5.892-11.204-15.963-13.63-27.307l-3.542-3.034c0,0-5.606,27.396,13.082,36.434
			c1.212,0.61,2.479,0.942,3.764,1.075c2.015-0.473,4.032-1.353,6.047-2.779C376.567,325.584,371.18,322.418,369.91,321.661z"/>
		<path fill="#625C6A" d="M370.86,329.364L370.86,329.364c-1.904,0-3.67-0.399-5.248-1.188c-7.787-3.77-12.562-11.369-13.804-21.975
			c-0.933-7.96,0.458-14.906,0.473-14.976l0.159-0.776l35.893,30.764l-0.396,0.357C387.584,321.888,379.18,329.364,370.86,329.364z
			 M353.059,292.208c-0.721,4.545-3.409,27.207,12.966,35.126c1.454,0.73,3.078,1.097,4.835,1.097
			c6.963,0.003,14.271-5.724,16.048-7.208L353.059,292.208z"/>
	</g>
	<g>
		<path fill="#121515" d="M340.591,262.078c0,0-28.501,1.131-27.1,5.804c1.401,4.67,13.591,16.149,32.934,6.679
			C343.395,264.61,340.591,262.078,340.591,262.078z"/>
		<path fill="#1C1F1F" d="M340.591,262.078c0,0-24.933,0.99-27.011,4.941c8.851,6.056,20.723,5.334,29.665-0.787
			C341.684,263.066,340.591,262.078,340.591,262.078z"/>
		<path d="M332.086,278.667C332.085,278.667,332.086,278.667,332.086,278.667c-11.062,0-17.961-7.054-19.041-10.654
			c-0.148-0.494-0.057-0.992,0.264-1.442c2.768-3.881,24.765-4.863,27.265-4.96l0.189-0.008l0.142,0.127
			c0.118,0.108,2.935,2.734,5.967,12.693l0.116,0.382l-0.357,0.177C341.636,277.426,336.742,278.667,332.086,278.667z
			 M340.4,262.553c-6.82,0.284-24.236,1.624-26.332,4.56c-0.155,0.217-0.195,0.414-0.129,0.635
			c1.011,3.372,7.569,9.983,18.146,9.983c4.4,0,9.035-1.148,13.775-3.416C343.323,266.127,340.959,263.172,340.4,262.553z"/>
	</g>
	<g>
		<path fill="#121515" d="M342.927,269.049c0,0-5.374,6.307-18.454,5.606c-13.082-0.7-19.858-3.271-17.755,1.868
			c2.104,5.141,23.361,17.484,44.153,6.872C346.665,273.955,342.927,269.049,342.927,269.049z"/>
		<path fill="#1C1F1F" d="M342.927,283.065c2.338-0.52,3.954-2.63,5.329-5.122c-3.025-5.869-5.329-8.896-5.329-8.896
			s-5.374,6.307-18.454,5.606c-8.981-0.48-14.988-1.841-17.192-0.986C316.381,282.952,330.023,285.979,342.927,283.065z"/>
		<path d="M333.482,288.041L333.482,288.041c-13.994,0-25.562-7.341-27.198-11.34c-0.509-1.243-0.547-2.122-0.12-2.757
			c0.606-0.904,2.043-1.019,3.228-1.019c1.48,0,3.419,0.204,5.873,0.469c2.526,0.269,5.671,0.604,9.232,0.795
			c0.664,0.034,1.329,0.055,1.974,0.055c0,0,0.001,0,0.002,0c11.248,0,16.051-5.442,16.099-5.498l0.376-0.438l0.35,0.459
			c0.038,0.05,3.819,5.058,7.999,14.441l0.18,0.405l-0.396,0.201C345.585,286.618,339.664,288.041,333.482,288.041z M309.392,273.86
			c-1.376,0-2.178,0.198-2.452,0.604c-0.231,0.344-0.16,0.979,0.21,1.885c1.511,3.692,12.942,10.757,26.332,10.757
			c5.885,0,11.528-1.321,16.78-3.925c-3.363-7.471-6.414-12.031-7.384-13.407c-1.398,1.349-6.429,5.403-16.402,5.403h-0.001
			c-0.664,0-1.346-0.018-2.026-0.056c-3.585-0.191-6.743-0.529-9.28-0.798C312.738,274.064,310.822,273.86,309.392,273.86z"/>
	</g>
	<g>
		<path fill="#C0BFC1" d="M346.425,210.104c0,0-34.178,19.231-34.178,37.608c0,16.198,20.559,18.604,33.484,24.564
			C344.329,259.549,346.425,210.104,346.425,210.104z"/>
		<path fill="#D5D4D6" d="M329.844,263.443c-8.41-9.813-9.345-22.427-0.934-30.838c6.99-6.555,15.612-12.699,17.085-22.254
			c-3.93,2.285-33.749,20.195-33.749,37.361c0,10.656,8.896,15.341,18.664,18.998C331.069,265.733,330.777,264.652,329.844,263.443z
			"/>
		<path fill="#FFFFFF" d="M318.165,256.434c-2.336-7.007-0.935-14.017,3.27-20.557c3.869-5.804,8.373-10.65,11.402-16.652
			c-9.537,7.308-20.59,18.034-20.59,28.487c0,8.278,5.371,12.954,12.347,16.343C324.861,263.546,319.099,258.769,318.165,256.434z"
			/>
		<path fill="#625C6A" d="M346.286,273.048l-0.75-0.347c-2.939-1.354-6.22-2.505-9.695-3.726
			c-11.829-4.15-24.061-8.442-24.061-21.263c0-18.438,33.01-37.225,34.417-38.015l0.731-0.413l-0.036,0.839
			c-0.021,0.494-2.079,49.553-0.696,62.101L346.286,273.048z M345.922,210.937c-4.943,2.924-33.209,20.363-33.209,36.776
			c0,12.159,11.915,16.339,23.437,20.382c3.209,1.126,6.256,2.194,9.037,3.426C344.051,258.771,345.66,217.413,345.922,210.937z"/>
	</g>
	<g>
		<path fill="#121515" d="M450.232,293.5c0,0-1.868,3.427-5.45,4.672c5.762-6.851,4.204-16.818,3.115-15.573
			c-3.115,5.45-7.165,9.812-10.28,9.967c1.559-1.712,2.648-7.632,1.87-10.59c-8.356,5.568-12.601,1.675-16.747-6.115
			c-1.199,2.785-8.05,36.166-6.549,45.801c2.591-0.924,4.843-1.91,6.63-2.853C453.426,314.604,451.478,291.942,450.232,293.5z"/>
		<path fill="#1C1F1F" d="M448.423,295.815c0,0-0.06,1.11-3.641,2.356c2.53-5.386,2.608-14.25,1.518-13.005
			c-3.115,5.453-5.568,7.244-8.683,7.398c1.559-1.712,2.648-7.632,1.87-10.59c-8.356,5.568-12.601,1.675-16.747-6.115
			c-1.199,2.785-8.05,36.166-6.549,45.801c2.591-0.924,3.675-5.903,5.462-6.846C452.258,310.61,449.671,294.257,448.423,295.815z"/>
		<path d="M415.817,322.29l-0.087-0.559c-1.55-9.943,5.39-43.292,6.583-46.057l0.385-0.893l0.454,0.858
			c3.209,6.03,5.918,8.489,9.347,8.489c1.96,0,4.161-0.831,6.729-2.543l0.545-0.364l0.166,0.634
			c0.697,2.656-0.016,7.545-1.316,10.033c2.612-0.879,5.964-4.445,8.867-9.523l0.055-0.075c0.191-0.221,0.399-0.267,0.543-0.267
			c0.327,0,0.593,0.221,0.797,0.655c0.926,1.991,0.965,8.814-2.6,14.252c2.297-1.433,3.523-3.631,3.538-3.657l0.044-0.068
			c0.175-0.219,0.382-0.25,0.49-0.25c0.521,0,0.806,0.574,0.89,1.811c0.203,2.972-0.872,8.114-4.568,12.826
			c-4.892,6.237-12.87,10.161-23.714,11.667c-1.891,0.99-4.178,1.973-6.617,2.84L415.817,322.29z M422.848,277.039
			c-1.721,6.115-7.334,34.535-6.27,43.984c2.227-0.814,4.3-1.719,6.027-2.629l0.071-0.037l0.082-0.011
			c16.709-2.295,23.359-9.979,25.997-16.015c1.601-3.667,1.719-6.768,1.517-8.013c-0.726,1.074-2.512,3.312-5.337,4.295
			l-1.605,0.559l1.096-1.3c4.702-5.592,4.26-13.07,3.667-14.679c-2.753,4.707-6.877,9.661-10.45,9.84l-1.132,0.055l0.761-0.835
			c1.372-1.507,2.336-6.595,1.894-9.513c-2.484,1.565-4.67,2.325-6.665,2.325C428.09,285.064,425.227,281.321,422.848,277.039z"/>
	</g>
	<g>
		<g>
			<path fill="#AEAAB2" d="M444.782,303.936c-0.779,0.467-6.229,2.492-10.901,2.492c0,0,5.295-4.208,6.696-7.945
				c-5.297,1.771-9.345,0.622-11.993-1.713c2.804-0.934,5.92-3.425,6.387-6.386c0,0-3.271,0.935-5.606,0
				c3.13-1.101,5.476-4.129,6.97-6.667c-7.206,3.076-10.958-2.277-15.068-10.775c-4.672-9.657-23.049-38.312-35.199-45.788
				c-17.755-10.592-17.208-27.021-17.441-35.432c-14.25,6.542-19.389-1.401-19.389-1.401c-1.167,12.614-6.775,23.361-10.512,34.34
				c-3.738,10.981-5.607,32.006,1.869,46.488c7.475,14.483,11.746,24.4,16.819,33.642c15.885,29.9,52.563,20.792,65.411,14.017
				c4.849-0.667,8.877-1.797,12.225-3.221C440.665,311.91,444.088,306.815,444.782,303.936z"/>
			<path fill="#C0BFC1" d="M400.396,317.641c3.738-1.87,7.476-6.075,11.682-4.672c7.94,3.269,19.155,4.203,24.295-3.738
				c-2.803,0.467-5.139-1.868-7.475-2.803c2.839-1.421,5.947-3.922,6.867-7.09c-2.991,0.027-5.403-1.001-7.181-2.568
				c2.805-0.934,5.921-3.425,6.388-6.386c0,0-3.271,0.935-5.606,0c3.131-1.101,5.476-4.129,6.97-6.667
				c-7.206,3.076-10.958-2.277-15.067-10.775c-4.672-9.657-23.05-38.312-35.199-45.788c-17.756-10.592-17.208-27.021-17.442-35.432
				c-14.25,6.542-19.389-1.401-19.389-1.401c-1.167,12.614-6.775,23.361-10.512,34.34c-3.739,10.981-5.607,32.006,1.868,46.488
				c7.475,14.483,11.746,24.4,16.82,33.642c0.875,1.646,1.816,3.167,2.81,4.586C368.438,318.484,386.888,323.306,400.396,317.641z"
				/>
			<path fill="#D5D4D6" d="M362.084,305.025c16.353,8.877,34.107,2.337,50.927,0.934c3.271,0,7.009,1.403,9.346,0
				c3.452-2.071,6.142-4.908,9.194-7.38c-1.128-0.444-2.121-1.062-2.967-1.81c2.805-0.934,5.921-3.425,6.388-6.386
				c0,0-3.271,0.936-5.606,0c3.131-1.101,5.476-4.129,6.97-6.667c-7.206,3.076-10.958-2.277-15.067-10.775
				c-4.672-9.657-23.05-38.312-35.2-45.787c-17.755-10.592-17.208-27.022-17.441-35.433c-14.25,6.542-19.389-1.401-19.389-1.401
				c-1.167,12.614-6.775,23.361-10.512,34.34c-3.739,10.981-5.607,32.006,1.868,46.488c4.693,9.093,8.124,16.386,11.283,22.842
				C355.125,297.848,357.521,302.364,362.084,305.025z"/>
			<path fill="#625C6A" d="M393.914,326.083L393.914,326.083c-11.734,0-27.663-3.654-36.916-21.071
				c-2.7-4.918-5.167-10.017-8.023-15.916c-2.484-5.136-5.301-10.954-8.799-17.729c-7.833-15.179-5.319-36.795-1.896-46.854
				c1.032-3.027,2.227-6.098,3.384-9.066c3.079-7.908,6.265-16.086,7.106-25.167l0.234-1.173l0.623,0.964
				c0.101,0.153,2.542,3.772,8.755,3.772c2.995,0,6.375-0.855,10.047-2.541l0.643-0.296l0.02,0.707
				c0.012,0.418,0.021,0.854,0.031,1.307c0.197,8.903,0.527,23.803,17.183,33.736c12.146,7.472,30.538,35.979,35.381,45.985
				c3.4,7.031,6.396,11.389,10.809,11.389c1.121,0,2.35-0.285,3.655-0.842l1.305-0.556l-0.718,1.223
				c-1.272,2.165-3.281,4.873-5.954,6.312c0.335,0.044,0.692,0.066,1.073,0.066c1.571,0,2.973-0.393,2.986-0.396l0.702-0.201
				l-0.113,0.722c-0.452,2.86-3.2,5.309-5.921,6.462c2.84,2.119,6.7,2.532,10.92,1.119l0.927-0.31l-0.342,0.921
				c-1.057,2.811-4.152,5.806-5.798,7.258c4.16-0.313,8.601-1.941,9.324-2.371l0.956-0.574l-0.261,1.083
				c-0.774,3.205-4.435,8.333-9.935,11.934l-0.072,0.04c-3.567,1.518-7.695,2.609-12.262,3.242
				C416.946,322.418,405.758,326.083,393.914,326.083z M349.587,191.466c-0.997,8.769-4.073,16.668-7.053,24.317
				c-1.152,2.96-2.345,6.021-3.37,9.031c-3.374,9.914-5.858,31.2,1.842,46.121c3.502,6.787,6.322,12.611,8.81,17.75
				c2.851,5.89,5.313,10.976,8.004,15.88c9.038,17.013,24.615,20.581,36.092,20.581c11.721,0.002,22.78-3.637,28.693-6.754
				l0.07-0.038l0.082-0.01c4.502-0.619,8.562-1.686,12.066-3.171c4.688-3.079,8.045-7.404,9.195-10.388
				c-1.998,0.788-6.319,2.106-10.14,2.106h-1.34l1.048-0.833c0.048-0.038,4.377-3.503,6.136-6.829
				c-4.465,1.225-8.534,0.461-11.451-2.111l-0.606-0.537l0.771-0.254c2.456-0.82,5.135-2.861,5.906-5.319
				c-0.604,0.12-1.509,0.257-2.49,0.257c-1.022,0-1.92-0.151-2.665-0.448l-1.154-0.463l1.174-0.412
				c2.569-0.902,4.601-3.204,6.008-5.32c-0.951,0.292-1.859,0.438-2.719,0.438c-5.433,0.002-8.734-5.886-11.652-11.915
				c-4.807-9.938-23.035-38.215-35.023-45.594c-17.094-10.196-17.445-26.016-17.632-34.513c-0.005-0.206-0.009-0.406-0.014-0.603
				c-3.549,1.551-6.841,2.337-9.793,2.337C353.543,194.773,350.794,192.701,349.587,191.466z"/>
		</g>
	</g>
	<g>
		<path fill="#1B3D14" d="M349.122,191.417c0,0,2.917-19.551,5.253-26.559c2.336-7.007-5.84-25.696-18.923-33.406
			c-13.083-7.709-10.746-17.053,1.635-21.958c2.336-0.935-4.906-16.353,0.233-25.932c5.14-9.578,13.801-6.307,20.217-3.037
			c7.583-5.607,17.108-15.711,35.589-3.3c11.707,8.439,18.248,27.595,14.511,43.247c2.336,9.345,3.036,20.558-17.521,31.772
			c-15.652,7.942-21.025,11.212-21.493,39.479C364.186,201.768,350.41,196.715,349.122,191.417z"/>
		<path fill="#254F1D" d="M407.638,120.472c3.738-15.652-2.804-34.808-14.511-43.247c-18.481-12.411-28.007-2.307-35.589,3.3
			c-6.416-3.271-15.078-6.541-20.217,3.037c-5.139,9.579,2.104,24.997-0.233,25.932c-12.381,4.906-14.718,14.25-1.635,21.958
			c0.443,0.262,0.881,0.539,1.312,0.824c12.532,1.266,24.806-2.71,37.935-5.262c1.87-0.467-1.402,23.829-2.335,28.969
			c-1.401,7.475-1.401,18.554-11.058,22.778c-5.049,2.21-6.804,2.795-11.064,5.669c-0.677,4.027-1.119,6.986-1.119,6.986
			c1.288,5.299,15.064,10.351,19.502,0.308c0.468-28.267,5.84-31.537,21.493-39.479
			C410.674,141.029,409.974,129.816,407.638,120.472z"/>
		<path fill="#2E6225" d="M405.493,116.286c3.737-15.651-0.659-30.622-12.366-39.061c-18.48-12.411-28.006-2.307-35.588,3.3
			c-6.416-3.271-15.078-6.541-20.217,3.037c-5.139,9.579,2.104,24.997-0.233,25.932c-10.876,4.309-13.998,12.045-5.727,19.087
			c11.44-1.356,23.184-0.819,34.928-2.034c5.607-0.468,14.017-3.27,17.288,2.336c1.401,1.869,1.869,5.606,0.466,8.411
			c-2.804,4.671-9.811,10.746-6.073,14.016c4.049,2.241,9.826-0.873,15.574-4.328C409.479,136.667,407.645,124.89,405.493,116.286z"
			/>
		<path fill="#448736" d="M336.503,93.132c0,0,0.078-18.682,14.874-13.66C347.716,79.356,338.956,78.406,336.503,93.132z"/>
		<path fill="#081400" d="M359.733,197.959c-4.974,0-10.248-3.067-11.066-6.432l-0.022-0.089l0.014-0.091
			c0.12-0.8,2.949-19.67,5.271-26.638c2.289-6.862-5.929-25.321-18.716-32.855c-7.854-4.628-9.227-9.145-8.997-12.118
			c0.334-4.286,4.131-8.077,10.696-10.678c0.515-0.206-0.095-3.296-0.539-5.554c-1.1-5.586-2.76-14.025,0.533-20.164
			c2.344-4.367,5.69-6.583,9.943-6.583c3.725,0,7.613,1.691,10.638,3.219c0.62-0.463,1.25-0.951,1.911-1.464
			c4.405-3.417,9.889-7.671,17.371-7.671c5.173,0,10.608,1.961,16.615,5.995c5.77,4.16,10.464,10.96,13.228,19.158
			c2.761,8.183,3.295,16.87,1.502,24.475c2.555,10.304,2.125,21.329-17.776,32.185c-15.124,7.675-20.778,10.544-21.25,39.079
			l-0.002,0.092l-0.039,0.088C367.329,195.81,364.02,197.959,359.733,197.959z M349.598,191.392
			c0.787,2.907,5.672,5.633,10.135,5.633c2.241,0,6.305-0.707,8.425-5.406c0.24-14.128,1.725-22.1,5.122-27.506
			c3.38-5.381,8.52-8.172,16.625-12.287c20.371-11.112,19.601-21.953,17.278-31.24l-0.027-0.112l0.027-0.112
			c3.644-15.255-2.785-34.438-14.33-42.76c-5.835-3.918-11.1-5.827-16.081-5.827c-7.163,0-12.281,3.971-16.797,7.474
			c-0.749,0.582-1.457,1.13-2.16,1.65l-0.232,0.172l-0.257-0.131c-2.968-1.512-6.839-3.25-10.472-3.25
			c-3.938,0-6.923,1.993-9.121,6.091c-3.135,5.843-1.513,14.087-0.439,19.542c0.75,3.808,1.202,6.108-0.033,6.602
			c-6.125,2.427-9.811,6.03-10.11,9.882c-0.297,3.829,2.734,7.822,8.538,11.241c13.555,7.988,21.51,26.813,19.13,33.958
			C352.603,171.649,349.819,189.918,349.598,191.392z"/>
	</g>
	<g>
		<path fill="#081400" d="M391.291,88.08c-0.065-0.368-1.716-9.047-11.75-10.834c-10.04-1.789-16.289,9.005-16.35,9.115
			c0,0,5.821-11.942,16.514-10.035C390.396,78.23,391.291,88.08,391.291,88.08z"/>
	</g>
	<g>
		<path fill="#2E6225" d="M361.904,79.956c0,0-6.479,6.059-7.646,4.073c-1.167-1.986,2.336-7.592,5.722-8.644
			c-2.57-0.701-5.49-1.402-8.293-1.168c-1.985,0,3.621-6.659,11.097-5.256c-2.805-2.336-13.082-4.439-13.082-4.439
			c-1.401-0.467,9.431-10.054,21.493,1.636c-1.285-2.569-2.686-5.022-2.804-6.774c1.285,0.116,10.927,4.25,8.465,13.101
			L361.904,79.956z"/>
		<path fill="#448736" d="M365.821,70.011c-3.271-4.672-8.141-6.307-12.039-6.427c4.715-1.715,8.389-1.501,13.104-0.791
			c-10.198-6.136-18.417,1.316-17.185,1.728c0,0,10.278,2.102,13.082,4.439c-7.476-1.402-13.082,5.256-11.097,5.256
			c0.296-0.024,0.595-0.034,0.894-0.039C355.917,70.418,361.066,70.011,365.821,70.011z"/>
		<path fill="#081400" d="M355.019,84.88c-0.095,0-0.187-0.006-0.271-0.022c-0.395-0.065-0.702-0.27-0.891-0.593
			c-0.434-0.736-0.388-1.833,0.13-3.173c0.778-2.013,2.6-4.4,4.613-5.59c-2.176-0.552-4.568-1.013-6.872-0.821
			c-0.001,0-0.003,0-0.004,0c-0.532,0-0.741-0.269-0.82-0.431c-0.205-0.41-0.037-0.976,0.495-1.682
			c1.373-1.815,4.922-4.27,9.308-4.27c0.023,0,0.045,0,0.068,0c-3.852-1.811-11.077-3.302-11.162-3.32l-0.054-0.016
			c-0.257-0.086-0.427-0.307-0.441-0.576c-0.044-0.834,1.586-2.244,3.71-3.208c2.633-1.198,9.266-3.118,16.84,2.995
			c-0.895-1.778-1.65-3.434-1.739-4.762l-0.037-0.546l0.545,0.049c0.905,0.083,4.892,1.417,7.398,4.735
			c2.995,3.868,0.978,8.959,0.978,8.959c0.612-3.249,0.031-6.074-1.723-8.396c-1.909-2.526-4.783-3.831-6.134-4.232
			c0.286,1.308,1.141,2.982,2.039,4.739c0.206,0.404,0.416,0.813,0.621,1.226l1.227,2.455l-1.97-1.91
			c-6.736-6.529-12.867-6.001-15.923-5.106c-2.67,0.783-4.306,2.145-4.77,2.758c1.924,0.411,10.325,2.305,12.906,4.457l1.379,1.15
			l-1.764-0.331c-3.991-0.749-7.584,0.915-9.617,2.721c-0.832,0.739-1.198,1.317-1.3,1.595c2.871-0.203,5.798,0.51,8.321,1.199
			l1.547,0.422l-1.53,0.476c-2.175,0.674-4.425,3.432-5.262,5.598c-0.4,1.033-0.472,1.895-0.196,2.362
			c0.035,0.061,0.089,0.12,0.24,0.146c1.359,0.221,5.37-2.692,7.58-4.585C362.48,79.352,357.396,84.88,355.019,84.88z"/>
	</g>
	<g>
		<ellipse cx="372.065" cy="105.771" rx="10.76" ry="18.128"/>
		<ellipse fill="#DBDAD9" cx="371.427" cy="106.845" rx="10.124" ry="17.054"/>
		<path fill="#FFFFFF" d="M381.341,103.372c-0.953-7.752-5.028-13.581-9.913-13.581c-5.591,0-10.123,7.635-10.123,17.053
			c0,4.925,1.241,9.359,3.223,12.474C373.63,119.888,379.236,111.737,381.341,103.372z"/>
		<path d="M371.427,124.365c-5.839,0-10.591-7.86-10.591-17.521s4.751-17.521,10.591-17.521c5.84,0,10.591,7.859,10.591,17.521
			S377.267,124.365,371.427,124.365z M371.427,90.258c-5.324,0-9.656,7.44-9.656,16.586c0,9.145,4.332,16.586,9.656,16.586
			s9.656-7.441,9.656-16.586C381.083,97.698,376.752,90.258,371.427,90.258z"/>
	</g>
	<g>
		<ellipse transform="matrix(0.2965 -0.955 0.955 0.2965 143.1094 400.2397)" cx="343.226" cy="102.981" rx="17.708" ry="7.719"/>
		
			<ellipse transform="matrix(0.2965 -0.955 0.955 0.2965 141.63 400.1207)" fill="#DBDAD9" cx="342.411" cy="103.924" rx="16.56" ry="7.219"/>
		<path fill="#FFFFFF" d="M349.988,103.65c1.858-7.759,0.808-14.476-2.647-15.548c-3.809-1.183-9.093,4.941-11.805,13.677
			c-1.415,4.561-1.848,8.932-1.396,12.237C340.338,112.79,346.025,108.73,349.988,103.65z"/>
		<path d="M338.5,120.349c-0.384,0-0.761-0.057-1.117-0.167c-4.117-1.277-5.124-9.422-2.293-18.542
			c2.545-8.2,7.286-14.151,11.272-14.151c0.383,0,0.759,0.056,1.117,0.167c4.116,1.279,5.124,9.423,2.293,18.542
			C347.227,114.396,342.486,120.349,338.5,120.349z M346.362,88.423c-3.529,0-7.992,5.801-10.381,13.493
			c-2.586,8.332-1.818,16.287,1.678,17.373c0.269,0.083,0.551,0.125,0.841,0.125c3.529,0,7.993-5.801,10.38-13.493
			c2.585-8.333,1.818-16.288-1.678-17.373C346.934,88.466,346.653,88.423,346.362,88.423z"/>
	</g>
	<g>
		
			<ellipse transform="matrix(0.0411 -0.9992 0.9992 0.0411 245.6663 481.1668)" fill="#00B3FF" cx="373.517" cy="112.594" rx="6.463" ry="3.776"/>
		<path fill="#2EC4FF" d="M376.987,109.877c-0.531-2.151-1.749-3.667-3.23-3.728c-2.084-0.086-3.893,2.737-4.039,6.303
			c-0.072,1.743,0.269,3.34,0.876,4.529C373.731,116.125,376.017,113.139,376.987,109.877z"/>
		<path fill="#2E9FFF" d="M373.318,119.533l-0.112-0.002c-2.378-0.098-4.115-3.216-3.955-7.099c0.155-3.787,2.094-6.753,4.413-6.753
			l0.112,0.002c1.18,0.047,2.241,0.848,2.985,2.248c0.701,1.321,1.045,3.044,0.971,4.851
			C377.576,116.567,375.638,119.533,373.318,119.533z M373.665,106.615c-1.786,0-3.346,2.626-3.479,5.855
			c-0.133,3.248,1.268,6.053,3.06,6.127l0.073,0.001c1.786,0,3.347-2.627,3.479-5.857c0.068-1.643-0.239-3.197-0.862-4.374
			c-0.582-1.097-1.362-1.719-2.197-1.753L373.665,106.615z"/>
	</g>
	<g>
		
			<ellipse transform="matrix(0.2131 -0.977 0.977 0.2131 166.4648 420.3508)" fill="#00B3FF" cx="344.196" cy="106.83" rx="5.761" ry="3.366"/>
		<path fill="#2EC4FF" d="M347.502,107.501c0.653-3.084-0.268-5.893-2.072-6.286c-1.817-0.396-3.838,1.802-4.517,4.911
			c-0.417,1.916-0.225,3.729,0.407,4.932C343.837,110.776,346.054,109.591,347.502,107.501z"/>
		<path fill="#2E9FFF" d="M343.403,112.983c-0.178,0-0.356-0.019-0.529-0.057c-1.047-0.228-1.868-1.104-2.312-2.468
			c-0.414-1.276-0.451-2.85-0.106-4.433c0.673-3.085,2.584-5.324,4.543-5.324c0.179,0,0.356,0.02,0.53,0.057
			c1.047,0.229,1.868,1.105,2.311,2.468c0.415,1.276,0.452,2.851,0.108,4.433C347.274,110.745,345.363,112.983,343.403,112.983z
			 M345,101.637c-1.474,0-3.068,2.015-3.63,4.588c-0.311,1.424-0.281,2.824,0.083,3.945c0.336,1.034,0.912,1.689,1.621,1.843
			c0.108,0.024,0.219,0.036,0.33,0.036c1.475,0,3.07-2.016,3.631-4.589c0.311-1.422,0.281-2.825-0.083-3.946
			c-0.336-1.034-0.912-1.689-1.621-1.843C345.223,101.647,345.11,101.637,345,101.637z"/>
	</g>
	<g>
		<path d="M341.441,91.091c-6.328,0-8.735-4.545-8.735-4.545v-0.001c0.028,0.038,2.887,3.613,8.739,3.613c0.041,0,0.082,0,0.123,0
			l0.009,0.934C341.532,91.091,341.486,91.091,341.441,91.091z"/>
	</g>
	<g>
		<path d="M333.495,95.251c-2.69,0-4.423-1.617-4.423-1.617c0.05,0.019,5.006,1.787,10.027-0.502l0.388,0.849
			C337.355,94.954,335.26,95.251,333.495,95.251z"/>
	</g>
	<g>
		<path d="M330.565,99.171l-0.007-0.004c0.02,0.012,1.945,1.095,6.143-1.608l0.506,0.785
			C332.189,101.168,330.565,99.171,330.565,99.171z"/>
	</g>
	<g>
		<path d="M379.584,93.556c-1.824,0-2.866-0.628-2.956-0.684l0.498-0.791l-0.002-0.001c0.042,0.024,4.307,2.518,11.16-3.698
			C388.284,88.382,384.541,93.556,379.584,93.556z"/>
	</g>
	<g>
		<path d="M384.106,97.426c-2.644,0-4.713-0.641-4.872-0.69l0.284-0.891c0.067,0.022,6.828,2.105,11.362-1.436
			C390.881,94.409,388.284,97.426,384.106,97.426z"/>
	</g>
	<g>
		<path d="M380.002,99.169l0.772-0.526c0.033,0.05,3.427,4.932,8.306,3.851C389.082,102.494,384.541,104.878,380.002,99.169z"/>
	</g>
	<g>
		<g>
			<path fill="#411E1B" d="M356.009,283.377c12.927,0.778,7.476-20.868,12.927-43.143c2.577-10.523,6.801-15.526,10.687-17.842
				c-11.174-10.28-10.797-23.439-10.999-30.67c-14.249,6.542-19.389-1.401-19.389-1.401c-1.167,12.615-6.774,23.362-10.512,34.34
				c-3.738,10.981-5.606,32.005,1.869,46.488c0.676,1.311,1.326,2.586,1.954,3.824C346.332,279.367,350.87,282.887,356.009,283.377z
				"/>
			<path fill="#4D2D2A" d="M379.623,222.393c-11.174-10.28-10.797-23.439-10.999-30.67c-14.249,6.542-19.389-1.401-19.389-1.401
				c-1.167,12.615-6.774,23.362-10.512,34.34c-3.642,10.705-5.507,30.944,1.324,45.376c0.903,1.333,1.994,2.574,3.349,3.684
				c4.672,3.271,13.082,4.205,14.95-1.869c3.314-14.91,4.066-32.75,14.931-42.795C375.278,225.727,377.501,223.657,379.623,222.393z
				"/>
			<path fill="#583A37" d="M354.608,263.443c2.93-21.205,13.55-30.838,15.885-39.247c0.468-2.337,0.935-4.672-0.467-6.074
				c-5.652-8.261-5.64-16.521-4.481-25.16c-11.914,4.135-16.311-2.64-16.311-2.64c-1.167,12.615-6.774,23.362-10.512,34.34
				c-3.512,10.318-5.367,29.5,0.624,43.794c0.625,0.456,1.34,0.82,2.18,1.06C347.132,270.45,353.703,269.987,354.608,263.443z"/>
			<path fill="#9B8987" d="M340.747,255.805c-3.426-26.909,1.027-31.921,3.804-46.627c-1.921,5.253-4.077,10.344-5.828,15.484
				c-3.144,9.233-4.955,25.563-1.008,39.141C340.175,271.365,341.328,260.374,340.747,255.805z"/>
			<path fill="#1F0F0C" d="M356.672,283.865c-0.227,0.016-0.455-0.009-0.691-0.021c-4.64-0.441-9.274-3.323-13.791-8.563
				l-0.063-0.093c-0.627-1.241-1.276-2.512-1.953-3.822c-7.833-15.178-5.32-36.795-1.896-46.854
				c1.032-3.029,2.226-6.098,3.384-9.066c3.079-7.907,6.265-16.086,7.106-25.167l0.201-1.003l0.657,0.793
				c0.101,0.153,2.542,3.772,8.755,3.772c2.995,0,6.375-0.855,10.047-2.541l0.643-0.295l0.02,0.707
				c0.012,0.418,0.021,0.853,0.031,1.307c0.162,7.286,0.431,19.478,10.817,29.03l0.461,0.425l-0.539,0.322
				c-4.799,2.86-8.322,8.769-10.472,17.554c-1.908,7.79-2.47,15.465-2.966,22.235C365.518,274.938,364.861,283.865,356.672,283.865z
				 M342.936,274.712c4.343,5.025,8.755,7.787,13.118,8.2c0.2,0.013,0.412,0.019,0.618,0.019h0.001c7.321,0,7.949-8.562,8.82-20.415
				c0.499-6.807,1.065-14.521,2.99-22.389c2.133-8.723,5.624-14.708,10.377-17.807c-10.237-9.758-10.509-21.953-10.67-29.282
				c-0.006-0.204-0.009-0.404-0.014-0.601c-3.549,1.551-6.841,2.337-9.792,2.337c-4.839,0-7.587-2.072-8.795-3.308
				c-0.997,8.769-4.073,16.668-7.053,24.316c-1.152,2.96-2.345,6.021-3.37,9.031c-3.374,9.914-5.858,31.201,1.842,46.121
				C341.675,272.231,342.317,273.487,342.936,274.712z"/>
		</g>
	</g>
	<g>
		<g>
			<path fill="#DDDCDB" d="M369.871,205.322c-1.186-5.251-1.15-10.113-1.248-13.598c-14.249,6.541-19.389-1.401-19.389-1.401
				c-0.505,5.462-1.845,10.574-3.502,15.506C349.482,208.729,357.178,211.908,369.871,205.322z"/>
			<path fill="#FFFFFF" d="M360.214,205.507c6.793-0.425,3.172-7.792,5.608-12.64c-12.124,4.34-16.586-2.545-16.586-2.545
				c-0.458,4.949-1.604,9.607-3.048,14.108C349.683,207.547,355.585,205.892,360.214,205.507z"/>
			<path fill="#939393" d="M356.078,209.668L356.078,209.668c-5.08,0-8.586-1.887-10.633-3.471l-0.263-0.203l0.105-0.316
				c1.936-5.755,3.041-10.649,3.481-15.401l0.234-1.173l0.623,0.964c0.101,0.153,2.541,3.772,8.755,3.772l0,0
				c2.995,0,6.375-0.855,10.047-2.541l0.643-0.295l0.02,0.707c0.012,0.414,0.021,0.849,0.031,1.3
				c0.076,3.397,0.169,7.627,1.205,12.209l0.08,0.352l-0.32,0.165C365.059,208.345,360.346,209.668,356.078,209.668z
				 M346.28,205.658c1.962,1.447,5.194,3.075,9.797,3.075c4.027,0,8.486-1.233,13.26-3.662c-0.982-4.538-1.075-8.689-1.148-12.041
				c-0.005-0.203-0.009-0.402-0.014-0.595c-3.549,1.551-6.841,2.337-9.792,2.337c-4.839,0-7.587-2.072-8.795-3.305
				C349.088,195.859,348.027,200.411,346.28,205.658z"/>
		</g>
	</g>
	<g>
		<path fill="#081400" d="M407.521,122.013c-1.584-6.486-4.927-9.208-4.961-9.235c0,0,4.201,2.191,5.869,9.014L407.521,122.013z"/>
	</g>
	<g>
		<path fill="#D87813" d="M342.11,143.949c0,0,2.218,3.738-5.841,17.288c-5.957,10.046-5.49,16.82,8.643,16.235
			c2.454-0.116,12.498,4.439,18.923-2.919c6.424-7.36,2.569-18.571,10.045-27.216c7.476-8.644,10.639-13.342,7.743-18.965
			C376.392,128.999,342.11,143.949,342.11,143.949z"/>
		<path fill="#EB8C12" d="M342.11,143.949c0,0,2.218,3.738-5.841,17.288c-5.957,10.046,0.939,12.042,8.914,12.263
			c2.453-0.115,10.36,5.332,16.784-2.026c6.425-7.359,0.429-17.246,7.905-25.89c7.475-8.643,15.573-8.761,11.752-17.212
			C376.392,128.999,342.11,143.949,342.11,143.949z"/>
		<path fill="#8A2E00" d="M353.997,179.229c-2.546,0-4.934-0.517-6.677-0.895c-0.98-0.212-1.828-0.395-2.309-0.395h-0.077
			c-0.571,0.024-1.127,0.036-1.656,0.036l0,0c-5.5,0-8.878-1.234-10.326-3.776c-1.619-2.844-0.666-7.162,2.916-13.2
			c7.717-12.974,5.855-16.784,5.835-16.82l-0.238-0.446l0.458-0.211c1.403-0.612,34.405-14.986,39.646-15.613l0.323-0.038
			l0.149,0.289c3.042,5.91-0.204,10.697-7.804,19.485c-3.792,4.382-4.606,9.473-5.395,14.395c-0.757,4.722-1.473,9.179-4.652,12.822
			C361.658,177.757,358.229,179.229,353.997,179.229z M345.012,177.004c0.582,0,1.432,0.184,2.507,0.415
			c1.703,0.368,4.034,0.875,6.479,0.875c4.005,0,7.108-1.325,9.486-4.047c3.005-3.442,3.699-7.772,4.434-12.356
			c0.809-5.051,1.646-10.275,5.61-14.858c7.184-8.306,10.345-12.87,7.83-18.145c-5.698,1.051-34.899,13.685-38.663,15.319
			c0.363,1.417,0.622,6.1-6.022,17.271c-3.348,5.644-4.326,9.77-2.907,12.261c1.249,2.193,4.449,3.303,9.513,3.303h0.001
			c0.516,0,1.059-0.01,1.616-0.034C344.929,177.004,344.97,177.004,345.012,177.004z"/>
	</g>
	<g>
		<path fill="#8A2E00" d="M346.279,178.11c-3.408-1.115-6.173-1.751-6.2-1.759c0,0,3.042-0.258,6.491,0.871L346.279,178.11z"/>
	</g>
	<g>
		<path fill="#4B0000" d="M373.624,134.4c0,0-6.167,6.591-10.022,19.167c-3.854,12.576-6.909,19.935-17.646,16.664
			c-7.35-2.452-7.116-6.463-0.809-16.664c1.752-3.075,0.117-6.112,1.986-8.565C349.001,142.548,373.624,134.4,373.624,134.4z"/>
		<path fill="#660000" d="M348.535,160.653c-1.201-6.405,0.346-12.467,3.165-18.185c-2.385,1.042-4.121,1.949-4.566,2.534
			c-1.87,2.453-0.234,5.489-1.986,8.565c-6.306,10.201-6.542,14.212,0.809,16.665c4.579,1.396,7.758,0.852,10.2-1.2
			C352.319,167.813,349.24,165.361,348.535,160.653z"/>
		<g>
			<g>
				<path fill="#FC9A8F" d="M355.31,152.703c-4.379-1.794-7.757-0.806-10.197,0.917c-6.272,10.16-6.493,14.161,0.844,16.609
					c10.738,3.271,13.792-4.088,17.646-16.664c0.32-1.042,0.657-2.042,1.004-3.004C361.992,150.047,358.282,150.924,355.31,152.703z
					"/>
				<path fill="#FDB0B8" d="M354.608,167.661c3.737-2.804,5.139-9.343,1.869-12.146c-2.804-2.804-2.96,2.994-5.764,3.928
					c0-2.336,0.156-5.331-2.647-6.264c-0.729-0.147-1.458-0.157-2.175-0.059c-0.269,0.16-0.53,0.325-0.779,0.5
					c-3.972,6.433-5.513,10.396-4.25,13.06C344.64,169.801,350.612,170.567,354.608,167.661z"/>
				<path fill="#FA7263" d="M350.566,171.474L350.566,171.474c-1.437,0-2.989-0.26-4.747-0.796c-3.131-1.045-4.893-2.38-5.556-4.208
					c-0.967-2.67,0.28-6.339,4.451-13.094l0.051-0.081l0.077-0.055c3.075-2.172,6.64-2.541,10.426-1.057
					c2.421-1.401,5.293-2.233,7.727-2.233c0.605,0,1.177,0.051,1.7,0.155l0.534,0.106l-0.184,0.511
					c-0.37,1.025-0.696,2.001-0.998,2.982C360.759,164.437,358.042,171.474,350.566,171.474z M345.459,153.949
					c-3.907,6.342-5.159,9.88-4.317,12.203c0.557,1.536,2.132,2.691,4.961,3.635c1.633,0.498,3.139,0.751,4.461,0.751h0.001
					c6.833,0,9.421-6.775,12.588-17.109c0.252-0.827,0.523-1.646,0.821-2.492c-0.311-0.036-0.639-0.055-0.98-0.055
					c-2.339,0-5.125,0.831-7.448,2.221l-0.201,0.121l-0.216-0.089C351.599,151.689,348.316,151.967,345.459,153.949z"/>
			</g>
		</g>
		<path fill="#8A2E00" d="M350.564,171.474c-1.435,0-2.985-0.26-4.745-0.796c-3.133-1.046-4.894-2.383-5.556-4.209
			c-0.968-2.675,0.289-6.362,4.486-13.148c0.792-1.394,0.836-2.82,0.877-4.2c0.045-1.492,0.091-3.034,1.135-4.404
			c1.901-2.496,24.182-9.923,26.716-10.762l1.737-0.575l-1.25,1.338c-0.061,0.064-6.144,6.671-9.917,18.984
			C360.758,164.437,358.043,171.474,350.564,171.474z M372.223,135.36c-9.805,3.29-23.479,8.297-24.718,9.925
			c-0.862,1.131-0.9,2.399-0.943,3.864c-0.043,1.425-0.092,3.04-1.008,4.649c-3.981,6.439-5.257,10.016-4.411,12.355
			c0.557,1.536,2.132,2.691,4.961,3.635c1.658,0.503,3.12,0.751,4.461,0.751c6.835,0,9.423-6.776,12.591-17.11
			C366.041,144.016,370.268,137.867,372.223,135.36z"/>
	</g>
	<g>
		<path fill="#FA7263" d="M350.361,159.443c0,0,1.657-5.873,6.471-8.058l0.385,0.851
			C352.724,154.277,350.385,159.392,350.361,159.443z"/>
	</g>
	<g>
		<path d="M432.713,238.075c-3.438,0-7.085-1.351-7.251-1.411l0.328-0.875c0.042,0.017,4.282,1.584,7.743,1.32l0.068,0.933
			C433.309,238.062,433.012,238.075,432.713,238.075z"/>
	</g>
	<g>
		<path fill="#121515" d="M391.052,257.258c0,0,11.681,22.536,19.155,20.436c7.476-2.104-3.705-28.605-6.471-32.171
			C400.972,241.954,391.052,257.258,391.052,257.258z"/>
		<path fill="#1C1F1F" d="M395.599,250.979c0,0,9.662,27.688,14.607,26.715c7.621-1.5-3.706-28.605-6.472-32.171
			C400.972,241.954,395.599,250.979,395.599,250.979z"/>
		<path d="M409.187,278.297L409.187,278.297c-7.668,0-18.109-19.975-18.55-20.824l-0.125-0.242l0.147-0.227
			c0.829-1.279,8.205-12.489,11.996-12.489c0.584,0,1.085,0.247,1.449,0.72c2.49,3.213,11.075,23.107,8.691,30.334
			c-0.454,1.375-1.283,2.242-2.462,2.574C409.967,278.246,409.58,278.297,409.187,278.297z M391.594,257.283
			c1.218,2.287,10.911,20.079,17.591,20.079c0.002,0,0.002,0,0.002,0c0.307,0,0.608-0.04,0.894-0.118
			c0.875-0.248,1.473-0.891,1.828-1.967c2.247-6.811-6.183-26.426-8.543-29.467c-0.188-0.245-0.414-0.36-0.71-0.36
			C399.934,245.448,393.891,253.776,391.594,257.283z"/>
	</g>
	<g>
		<path fill="#121515" d="M402.966,251.295c0,0,6.073,16.586,17.755,24.294c11.68,7.71,22.608,7.506,8.874-14.717
			c-8.021-12.979-10.105-16.587-10.105-16.587L402.966,251.295z"/>
		<path fill="#1C1F1F" d="M408.955,248.753c0,0,1.216,14.747,12.897,22.457c11.683,7.71,21.478,11.885,7.743-10.338
			c-8.021-12.979-10.105-16.587-10.105-16.587L408.955,248.753z"/>
		<path d="M432.097,280.65h-0.002c-2.896,0-7.136-1.704-11.633-4.67c-11.673-7.705-17.875-24.357-17.936-24.526l-0.153-0.416
			l17.316-7.344l0.205,0.357c0.021,0.038,2.177,3.755,10.098,16.574c5.589,9.04,7.573,15.141,5.903,18.137
			C435.206,279.996,433.894,280.65,432.097,280.65z M403.564,251.547c1.032,2.606,7.019,16.793,17.413,23.653
			c4.348,2.869,8.399,4.517,11.117,4.517h0.002c1.458,0,2.462-0.476,2.981-1.409c0.841-1.509,1.194-5.743-5.88-17.189
			c-6.602-10.68-9.203-15.053-9.904-16.242L403.564,251.547z"/>
	</g>
	<g>
		<path fill="#121515" d="M413.814,242.238c0,0,12.513,22.139,26.294,27.512c13.784,5.372,22.896,1.4,17.755-4.673
			c-5.138-6.075-23.127-22.839-23.127-22.839H413.814L413.814,242.238z"/>
		<path fill="#1C1F1F" d="M421.654,243.354c0,0,6.31,16.352,20.092,21.724c13.781,5.373,21.258,6.073,16.118,0
			c-5.138-6.075-23.127-22.839-23.127-22.839L421.654,243.354z"/>
		<path d="M451.873,272.743L451.873,272.743c-3.514,0-7.639-0.884-11.934-2.559c-13.779-5.372-26.016-26.807-26.531-27.717
			l-0.394-0.696h21.905l0.135,0.124c0.181,0.17,18.067,16.854,23.165,22.879c1.89,2.234,1.729,3.902,1.263,4.91
			C458.58,271.628,455.807,272.743,451.873,272.743z M414.631,242.705c2.261,3.793,13.549,21.893,25.648,26.609
			c4.188,1.632,8.193,2.494,11.594,2.494c3.503,0,6.029-0.939,6.76-2.52c0.506-1.09,0.116-2.441-1.127-3.911
			c-4.829-5.707-21.291-21.118-22.954-22.674L414.631,242.705L414.631,242.705z"/>
	</g>
	<g>
		<path fill="#121515" d="M427.804,242.238c0,0,14.877,13.528,34.033,15.731c19.156,2.2,23.128-7.377,19.623-10.413
			c-3.505-3.038-22.427-6.549-36.677-19.043C429.516,237.276,421.942,237.743,427.804,242.238z"/>
		<path fill="#1C1F1F" d="M431.973,239.847c0,0,10.476,10.88,29.63,13.081c19.155,2.201,23.36-2.335,19.857-5.371
			c-3.504-3.038-22.427-6.549-36.677-19.043C429.516,237.276,426.112,235.354,431.973,239.847z"/>
		<path d="M467.211,258.763c-0.002,0-0.002,0-0.004,0c-1.702,0-3.527-0.112-5.426-0.331c-19.084-2.193-34.142-15.712-34.291-15.849
			c-1.561-1.192-2.226-2.167-2.127-3.134c0.179-1.74,2.816-3.015,7.604-5.329c3.103-1.495,6.963-3.361,11.581-6.012l0.291-0.166
			l0.251,0.221c9.492,8.324,21.097,12.641,28.772,15.497c3.882,1.443,6.686,2.49,7.903,3.543c1.282,1.112,1.656,2.945,0.969,4.78
			C481.514,255.26,476.791,258.763,467.211,258.763z M444.725,229.084c-4.515,2.579-8.298,4.405-11.351,5.88
			c-4.187,2.021-6.955,3.359-7.079,4.58c-0.062,0.591,0.524,1.353,1.793,2.324c0.179,0.156,15.021,13.478,33.802,15.636
			c1.861,0.215,3.652,0.324,5.318,0.324c0,0,0.002,0,0.004,0c9.104,0,13.537-3.187,14.65-6.172c0.543-1.461,0.273-2.896-0.709-3.746
			c-1.09-0.945-3.97-2.018-7.615-3.372C465.862,241.681,454.301,237.377,444.725,229.084z"/>
	</g>
	<g>
		<path fill="#121515" d="M427.964,234.94c0,0,24.294,13.316,50.459,3.973c17.521-6.773,25.93-23.903,19.156-21.879
			c-6.776,2.024-42.521,4.825-64.012-1.481C426.327,230.035,427.964,234.94,427.964,234.94z"/>
		<path fill="#1C1F1F" d="M429.27,227.593c0,0,21.352,15.062,47.517,5.718c17.521-6.775,27.566-18.302,20.793-16.278
			c-6.776,2.024-42.521,4.826-64.012-1.48C426.327,230.035,429.27,227.593,429.27,227.593z"/>
		<path d="M458.807,242.705L458.807,242.705c-17.449,0-30.936-7.28-31.07-7.354l-0.16-0.089l-0.057-0.175
			c-0.069-0.205-1.613-5.255,5.629-19.745l0.175-0.35l0.376,0.111c10.883,3.194,24.78,3.865,34.522,3.865
			c13.122,0,25.387-1.236,29.224-2.381c1.594-0.479,2.665,0.021,2.896,1.255c0.778,4.181-7.868,16.139-21.747,21.506
			C472.35,241.578,465.696,242.705,458.807,242.705z M428.367,234.625c1.641,0.854,14.323,7.146,30.439,7.146l0,0
			c6.784,0,13.331-1.111,19.459-3.298c14.004-5.413,21.771-17.158,21.154-20.46c-0.089-0.474-0.346-0.677-0.858-0.677
			c-0.24,0-0.526,0.048-0.851,0.145c-3.899,1.166-16.284,2.422-29.49,2.422c-9.691,0-23.479-0.662-34.409-3.792
			C427.642,228.566,428.18,233.677,428.367,234.625z"/>
	</g>
	<g>
		<path fill="#121515" d="M430.999,231.203c0,0,32.705,2.804,58.87-20.09c14.483-12.616,22.193-38.073,13.549-32.353
			c-8.643,5.722-39.586,30.238-66.28,37.021C432.166,221.858,430.999,231.203,430.999,231.203z"/>
		<path fill="#1C1F1F" d="M433.602,226.617c0,0,26.366,4.118,52.529-18.775c14.483-12.615,25.932-34.802,17.287-29.082
			c-8.643,5.721-39.586,30.238-66.28,37.021C432.166,221.858,433.602,226.617,433.602,226.617z"/>
		<path d="M434.497,231.779L434.497,231.779c-2.227,0-3.484-0.105-3.537-0.109l-0.483-0.042l0.059-0.482
			c0.051-0.387,1.243-9.548,6.241-15.661l0.097-0.12l0.15-0.038c22.28-5.659,47.938-24.013,60.27-32.831
			c2.489-1.784,4.459-3.19,5.87-4.125c0.918-0.607,1.685-0.901,2.347-0.901c0.81,0,1.428,0.462,1.741,1.301
			c1.85,4.936-5.891,22.954-17.074,32.696C469.222,229.8,444.258,231.779,434.497,231.779z M431.535,230.77
			c0.561,0.031,1.577,0.075,2.962,0.075c9.657,0,34.35-1.958,55.064-20.083c11.392-9.92,18.354-27.546,16.812-31.663
			c-0.229-0.617-0.583-0.696-0.866-0.696c-0.32,0-0.896,0.129-1.833,0.747c-1.395,0.923-3.355,2.328-5.84,4.104
			c-12.35,8.835-38.021,27.194-60.433,32.939C433.294,221.31,431.855,228.796,431.535,230.77z"/>
	</g>
	<g>
		<path fill="#121515" d="M446.671,196.766c0,0,25.227-14.79,40.411-53.805c6.307-17.988,14.462,9.293,5.358,29.605
			c-6.074,13.552-19.39,35.276-57.702,46.958C441.277,209.946,446.671,196.766,446.671,196.766z"/>
		<path fill="#121515" d="M446.671,196.766c0,0,25.227-14.79,40.411-53.805c6.307-17.988,14.462,9.293,5.358,29.605
			c-6.074,13.552-19.39,35.276-57.702,46.958C441.277,209.946,446.671,196.766,446.671,196.766z"/>
		<path fill="#1C1F1F" d="M446.671,196.766c0,0,25.227-14.79,40.411-53.805c6.307-17.988,9.09,8.2-0.015,28.513
			c-6.077,13.549-9.073,27.196-47.385,38.878C446.223,200.774,446.671,196.766,446.671,196.766z"/>
		<path fill="#777979" d="M483.561,156.916c1.214-3.812,1.913-7.688,2.552-11.534c-15.268,37.204-39.443,51.384-39.443,51.384
			s-0.219,1.948-2.561,6.364C460.201,195.112,476.988,177.074,483.561,156.916z"/>
		<path d="M433.602,220.358l0.748-1.098c6.438-9.427,11.833-22.54,11.888-22.67l0.06-0.146l0.137-0.08
			c0.25-0.146,25.269-15.177,40.213-53.571c1.43-4.084,3.058-6.162,4.827-6.162c0.973,0,1.87,0.626,2.67,1.86
			c3.394,5.24,4.583,21.196-1.279,34.268c-10.318,23.017-29.286,38.459-57.992,47.21L433.602,220.358z M447.043,197.087
			c-0.582,1.4-5.381,12.751-11.185,21.6c27.728-8.732,46.105-23.891,56.154-46.311c5.732-12.791,4.626-28.312,1.347-33.378
			c-0.426-0.654-1.095-1.434-1.886-1.434c-1.274,0-2.716,2.022-3.95,5.551C473.025,180.365,449.08,195.824,447.043,197.087z"/>
	</g>
	<g>
		<path fill="#AEAAB2" d="M384.95,307.983c0,0,5.478,16.82,15.601,19.002c10.123,2.179,17.288-0.625,23.05-3.893
			c5.764-3.271,6.012-13.122,3.831-21.218L384.95,307.983z"/>
		<path fill="#C0BFC1" d="M415.817,322.29c6.832-3.036,11.52-8.348,12.59-15.527c-0.217-1.655-0.549-3.307-0.976-4.889
			l-42.481,6.109c0,0,2.925,8.968,8.444,14.654C401.106,327.033,408.065,325.555,415.817,322.29z"/>
		<path fill="#D5D4D6" d="M427.414,301.876l-44.306,2.526c0,0,4.121,10.568,8.452,16.116c2.166,0.164,4.332,0.604,6.498,1.325
			C412.535,325.252,421.966,313.528,427.414,301.876z"/>
		<path fill="#625C6A" d="M407.455,328.212c-2.169,0-4.5-0.232-7.002-0.771c-4.478-0.965-8.121-4.602-10.826-8.452
			c-3.492-4.976-4.677-11.006-4.677-11.006c0.058,0.162,5.949,16.443,15.7,18.543c10.188,2.196,17.201-0.709,22.721-3.841
			c5.432-3.083,6.026-13.426,3.828-21.588c0,0,2.58,5.407,2.04,10.949c-0.349,5.065-2.012,9.526-5.406,11.451
			C419.757,325.81,414.438,328.212,407.455,328.212z"/>
	</g>
	<g>
		<path fill="#BF3B00" d="M421.853,338.122c0,0,1.254-1.932,3.034-2.245l0.162,0.921
			C423.455,337.078,421.869,338.111,421.853,338.122z"/>
	</g>
	<g>
		<path fill="#BF3B00" d="M429.779,340.9c-0.421-2.635-3.146-3.83-3.173-3.842l0.369-0.858
			C429.31,336.998,429.779,340.9,429.779,340.9z"/>
	</g>
	<g>
		<path fill="#BF3B00" d="M431.767,342.865c0,0,12.717-2.763,20.91-3.288l0.059,0.933
			C444.58,341.031,431.893,342.847,431.767,342.865z"/>
	</g>
	<g>
		<path fill="#BF3B00" d="M438.759,351.554c-7.539-0.562-8.11-2.522-8.11-2.522l-0.029-0.05c0.038,0.047,1.052,1.106,8.211,1.639
			L438.759,351.554z"/>
	</g>
	<g>
		<path fill="#BF3B00" d="M368.438,343.669l0.928-0.104c0.248,2.225,1.702,5.948,1.717,5.987
			C371.084,349.553,368.699,346.019,368.438,343.669z"/>
	</g>
	<g>
		<path fill="#AEAAB2" d="M373.73,236.249c0,0-4.017-11.976,6.73-16.881c11.162-5.094,41.661-6.151,67.125-23.207
			c1.601-1.121,4.513-2.097,6.073,0.117c2.993,4.245,2.221,16.354-18.222,26.517c7.244,1.167,16.47,2.219,14.717,6.422
			c-1.752,4.207-8.525,8.995-18.804,8.295c5.605,2.335,8.059,5.021,6.54,8.525c-1.519,3.505-15.42,5.258-23.128,0.937
			c3.038,5.255,3.388,9.693,1.286,10.393c-2.104,0.7-11.1,0.352-17.757-6.658c0.936,5.372-0.934,11.914-4.203,11.331
			c-3.271-0.583-8.565-5.09-11.602-12.565L373.73,236.249z"/>
		<path fill="#C0BFC1" d="M393.389,258.302c3.735-3.736,1.4-9.343,2.335-14.483c4.672,3.271,9.811,13.082,14.483,7.943
			c2.337-2.803,1.402-7.943-0.468-12.148c5.142,3.271,9.345,8.411,15.417,4.205c4.675-2.802,0-9.345-2.802-12.615
			c3.737-0.468,8.877,1.87,10.745-1.401c2.337-4.205-2.335-6.54-5.138-9.812c0-0.467-1.403-1.868,0-2.335
			c11.605-3.204,21.148-11.208,21.884-22.543c-0.845,0.215-1.648,0.621-2.262,1.05c-25.465,17.055-55.963,18.111-67.126,23.207
			c-10.746,4.905-6.73,16.881-6.73,16.881l8.756,13.226c1.867,4.595,4.585,8.062,7.162,10.192
			C391.065,259.84,392.396,259.494,393.389,258.302z"/>
		<path fill="#D5D4D6" d="M392.92,238.212c3.271,2.335,6.074,6.54,10.279,6.073c4.205,0,2.803-6.073,2.335-9.345
			c2.805,2.338,7.477,4.673,9.813,2.806c2.803-2.336,0.935-7.477,0.467-11.215c2.803,0.469,6.541,3.271,7.941,0.469
			c1.868-3.27-2.802-9.344,0.467-11.213c7.648-4.83,14.331-6.584,20.691-17.906c-24.887,15.414-53.678,16.568-64.452,21.488
			c-10.747,4.906-6.73,16.882-6.73,16.882l6.67,13.177c1.288,3.167,5.067,5.851,6.84,7.877
			C394.381,255.854,392.92,244.834,392.92,238.212z"/>
		<path fill="#FFFFFF" d="M386.379,221.858c15.266-5.364,34.537-4.899,45.594-17.267c-21.228,9.195-42.571,10.695-51.512,14.776
			c-9.672,4.415-7.387,14.555-6.833,16.537C374.134,229.238,380.617,223.918,386.379,221.858z"/>
		<path fill="#625C6A" d="M394.49,262.545c-0.159,0-0.321-0.015-0.483-0.045c-8.718-3.265-11.75-13.717-11.75-13.717
			c3.05,7.506,8.878,12.256,11.915,12.799c0.627,0.112,1.22-0.108,1.762-0.646c1.722-1.715,2.576-6.266,1.9-10.146l-0.265-1.521
			l1.063,1.121c6.652,7.001,15.492,7.127,17.27,6.536c0.37-0.126,0.635-0.406,0.808-0.86c0.665-1.759-0.257-5.236-2.352-8.858
			l-0.851-1.475l1.483,0.832c5.415,3.035,14.239,3.068,19.308,1.357c1.712-0.576,2.835-1.313,3.163-2.069
			c0.486-1.119,0.532-2.132,0.146-3.091c-0.698-1.729-2.803-3.305-6.438-4.82l-2.616-1.092l2.829,0.193
			c10.705,0.733,16.835-4.388,18.342-8.007c0.247-0.594,0.239-1.105-0.022-1.573c-1.203-2.15-7.232-3.095-12.551-3.927
			c-0.605-0.095-1.201-0.189-1.786-0.282l-1.439-0.232l1.305-0.649c14.141-7.029,17.886-14.553,18.863-18.414
			c0.728-2.886,0.424-5.655-0.816-7.414c-1.42-2.013-4.167-0.882-5.423-0.002c-17.399,11.65-37.058,15.91-51.415,19.021
			c-6.569,1.424-12.244,2.65-15.787,4.229c-10.687,4.75-6.92,16.421-6.754,16.915c0,0-5.093-12.672,6.375-17.77
			c3.632-1.613,9.077-2.796,15.97-4.286c14.282-3.094,33.843-7.331,51.084-18.879c2.107-1.476,5.114-2.037,6.715,0.237
			c1.395,1.975,1.752,5.034,0.959,8.177c-0.986,3.895-4.647,11.36-18.066,18.369c0.118,0.021,0.241,0.038,0.363,0.058
			c5.8,0.909,11.798,1.848,13.224,4.395c0.404,0.724,0.426,1.527,0.066,2.39c-1.834,4.405-8.144,8.558-16.962,8.646
			c2.615,1.343,4.208,2.783,4.85,4.369c0.479,1.187,0.429,2.47-0.154,3.812c-0.559,1.282-2.33,2.114-3.721,2.582
			c-4.863,1.641-13.056,1.729-18.722-0.758c1.74,3.416,2.393,6.534,1.704,8.347c-0.271,0.712-0.75,1.204-1.385,1.415
			c-2.429,0.81-10.841,0.153-17.265-5.814c0.34,3.844-0.603,7.873-2.34,9.601C395.965,262.223,395.246,262.545,394.49,262.545z"/>
	</g>
	<g>
		<path fill="#D87813" d="M374.699,133.553c-5.34,4.312-23.023,16.863-35.509,11.681c-13.082-6.075-14.952-4.206-20.869-1.714
			c-5.918,2.491-20.525,3.044-20.525-8.237c0.156-10.034,15.229-12.633,24.313-9.574c8.277,1.989,11.63-4.702,16.146-8.553
			c4.517-3.849,8.41-9.3,14.952-2.604c6.541,6.698,8.79,11.681,14.518,10.747c5.642-0.921,16.306-0.955,14.836,8.655
			C382.561,133.955,380.771,128.647,374.699,133.553z"/>
		<path fill="#EB8C12" d="M367.725,125.3c-5.728,0.935-7.977-4.049-14.518-10.747c-6.542-6.697-10.435-1.246-14.952,2.604
			c-4.517,3.851-7.869,10.542-16.146,8.553c-9.084-3.058-24.157-0.459-24.313,9.574c0,4.495,2.322,7.107,5.486,8.47
			c3.431-7.288,9.558-7.87,17.483-6.619c10.746,2.336,18.483,8.021,29.229,6.619c7.274-0.856,15.827-5.548,24.14-9.752
			c0.2-0.157,0.39-0.308,0.563-0.449c6.074-4.906,7.862,0.402,7.862,0.402C384.03,124.345,373.367,124.379,367.725,125.3z"/>
		<path fill="#FCC233" d="M337.207,140.178c11.213,3.738,26.09,2.428,33.098-7.851c2.336-2.804,6.729-1.577,9.532-2.978
			c0.682-0.455,0.92-1.132,0.987-1.921c-3.079-2.968-9.254-2.756-13.1-2.128c-5.728,0.935-7.977-4.049-14.518-10.747
			c-6.541-6.697-10.434-1.246-14.951,2.604c-4.517,3.851-7.869,10.542-16.146,8.553c-9.084-3.058-24.157-0.459-24.313,9.574
			c0,4.495,2.322,7.107,5.486,8.47c0.26-0.553,0.537-1.062,0.827-1.539C309.734,129.691,327.529,137.098,337.207,140.178z"/>
		<path fill="#8A2E00" d="M345.776,146.98c-2.353,0-4.641-0.393-6.773-1.317c-11.83-5.494-14.266-4.429-19.114-2.311
			c-0.441,0.192-0.9,0.393-1.388,0.599c-3.972,1.673-12.174,2.604-17.164-0.708c-2.661-1.767-4.01-4.444-4.01-7.959
			c0.049-3.17,1.552-5.885,4.346-7.86c5.656-3.997,14.827-4.095,20.584-2.156c6.097,1.465,9.451-2.08,12.694-5.507
			c0.963-1.017,1.958-2.068,3-2.958c0.58-0.493,1.16-1.023,1.722-1.537c3.863-3.535,7.859-7.189,13.867-1.037
			c1.605,1.642,2.958,3.189,4.151,4.554c3.668,4.191,5.883,6.723,9.958,6.058c2.288-0.373,10.03-1.303,13.639,2.386
			c1.677,1.713,2.233,4.156,1.656,7.261l-0.919-0.17c0.519-2.788,0.045-4.954-1.405-6.437c-3.294-3.368-10.646-2.472-12.82-2.117
			c-4.589,0.747-7.063-2.083-10.811-6.366c-1.186-1.356-2.53-2.891-4.117-4.515c-5.377-5.506-8.709-2.457-12.569,1.074
			c-0.566,0.518-1.152,1.054-1.745,1.559c-1.005,0.857-1.939,1.844-2.928,2.889c-3.266,3.453-6.967,7.366-13.63,5.764
			c-6.553-2.204-15.042-1.33-19.785,2.022c-2.576,1.821-3.905,4.211-3.951,7.105c0,3.175,1.208,5.591,3.591,7.173
			c4.5,2.989,12.349,2.285,16.285,0.627c0.484-0.204,0.939-0.403,1.376-0.593c4.946-2.162,7.671-3.351,19.872,2.313
			c13.588,5.887,34.802-11.441,35.015-11.617l0.594,0.719C374.244,134.536,359,146.98,345.776,146.98z"/>
	</g>
	<g>
		<path fill="#8A2E00" d="M348.679,141.679c-12.384-11.772-27.76-15.841-27.914-15.881l0.234-0.905
			C340.69,130.751,348.679,141.679,348.679,141.679z"/>
	</g>
	<g>
		<path fill="#8A2E00" d="M329.839,142.149c-20.028-6.703-23.055-0.681-23.084-0.619c0,0,2.371-7.296,23.381-0.266L329.839,142.149z
			"/>
	</g>
	<g>
		<path fill="#8A2E00" d="M375.656,135.862c-1.107-3.375-5.309-3.533-5.351-3.534c0,0,2.855-0.836,4.741,0.901
			C375.675,133.806,375.656,135.862,375.656,135.862z"/>
	</g>
	<g>
		<ellipse cx="373.69" cy="114.003" rx="2.367" ry="3.966"/>
		<circle fill="#FFFFFF" cx="372.994" cy="111.213" r="1.565"/>
		<circle fill="#FFFFFF" cx="375.755" cy="115.592" r="0.54"/>
		<circle fill="#FFFFFF" cx="372.217" cy="116.286" r="0.695"/>
	</g>
	<g>
		<ellipse transform="matrix(0.1078 -0.9942 0.9942 0.1078 199.5882 438.4763)" cx="344.093" cy="108.037" rx="3.256" ry="1.943"/>
		<circle fill="#FFFFFF" cx="343.765" cy="105.685" r="1.285"/>
		<circle fill="#FFFFFF" cx="345.633" cy="109.504" r="0.444"/>
		<circle fill="#FFFFFF" cx="342.682" cy="109.757" r="0.571"/>
	</g>
	<path fill="#448736" d="M364.537,85.873c0,0,14.95-17.486,25.58,0.671C384.978,81.341,378.685,74.152,364.537,85.873z"/>
	<path fill="#FDDA83" d="M298.774,136.59c0,0-0.389-11.524,17.288-10.979c8.021,0.544,22.234,7.479,28.967,13.549
		c-8.254-4.438-18.689-11.616-29.979-11.291C306.405,127.791,301.656,129.194,298.774,136.59z"/>
	<path fill="#FDDA83" d="M328.755,126.545c0,0,6.074-2.889,9.422-7.479c3.349-4.59,9.735-8.562,13.199-4.747
		c-1.207-0.467-4.72-0.553-10.283,5.214C335.529,125.3,328.755,126.545,328.755,126.545z"/>
	<path fill="#FF8207" d="M351.95,367.4c0,0,3.24,0.988,3.476,2.57c0.993-2.337,5.139-7.184,5.139-7.184L351.95,367.4z"/>
	<path fill="#FF8207" d="M342.868,353.907c0,0,0.364,1.547,0,2.687c1.459-0.7,8.06-3.736,8.06-3.736L342.868,353.907z"/>
	<path fill="#FF8207" d="M447.936,352.214c0,0,5.844,1.281,7.009,2.746c0.293-1.927,1.227-2.746,1.227-2.746
		C454.652,352.272,447.936,352.214,447.936,352.214z"/>
</g>
</svg>
