<svg version="1.1" id="Layer_1" xmlns="http://www.w3.org/2000/svg" xmlns:xlink="http://www.w3.org/1999/xlink" viewBox="0 0 768 430" enable-background="new 0 0 768 430" xml:space="preserve">
<g>
	<g opacity="0.1">
		<path d="M323.034,255.184c0,65.747-42.606,107.851-95.163,107.851c-52.557,0-95.163-42.104-95.163-107.851
			c0-65.749,42.606-145.917,95.163-145.917C280.428,109.267,323.034,189.435,323.034,255.184z"/>
		<path d="M315.438,231.181c-0.128,57.739-69.817,90.663-119.964,90.663c-50.146,0-67.638-35.648-61.634-90.663
			c5.997-54.938,40.652-122.66,90.799-122.66C274.787,108.521,315.562,175.601,315.438,231.181z"/>
		<path d="M172.517,153.632c-10.459,19.416-11.249,49.47-1.995,54.456c9.254,4.986,3.754-18.972,18.445-35.42
			c14.57-16.312,28.685-29.903,19.431-34.889C199.145,132.794,182.976,134.217,172.517,153.632z"/>
	</g>
	<g>
		<path opacity="0.1" d="M438.092,110.369c-4.562,3.171-8.902,6.887-11.685,11.697c-4.832,8.352-4.59,19.292-10.859,26.625
			c-8.565,10.018-25.733,9.187-33.666,19.713c-6.167,8.185-4.146,19.581-4.341,29.828c-0.312,16.431-7.036,31.972-10.702,47.993
			c-3.667,16.021-3.632,34.628,7.411,46.8c4.693,5.173,10.936,8.658,16.162,13.291c9.915,8.79,15.95,21.495,26.558,29.436
			c6.5,4.866,14.305,7.619,22.017,10.157c15.706,5.17,31.605,9.752,47.654,13.732c9.603,2.382,19.599,4.558,29.314,2.691
			c15.562-2.99,27.713-15.785,43.115-19.516c10.058-2.438,20.582-0.795,30.928-0.544c10.345,0.251,21.595-1.306,28.938-8.599
			c6.826-6.78,8.782-17.242,7.709-26.804c-1.072-9.562-4.758-18.6-7.789-27.73c-0.967-2.911-1.881-5.933-1.639-8.99
			c0.439-5.564,4.514-10.04,8.045-14.364c12.486-15.292,20.582-35.249,17.521-54.754c-1.668-10.633-6.493-20.495-11.713-29.908
			c-8.088-14.588-18.057-29.268-33.168-36.329c-3.857-1.802-7.974-3.063-11.654-5.202c-5.041-2.929-9.011-7.348-13.417-11.164
			c-18.777-16.262-42.257-15.335-64.819-20.798C484.333,91.896,458.148,96.427,438.092,110.369z"/>
		<path fill="#FAFAFA" d="M435.293,109.859c-4.562,3.171-8.902,6.888-11.685,11.698c-4.832,8.351-4.589,19.291-10.859,26.624
			c-8.565,10.018-25.733,9.188-33.666,19.713c-6.167,8.185-4.146,19.58-4.341,29.827c-0.313,16.433-7.035,31.972-10.702,47.993
			c-3.667,16.021-3.632,34.628,7.412,46.8c4.693,5.172,10.936,8.658,16.162,13.291c9.915,8.789,15.95,21.495,26.557,29.436
			c6.501,4.866,14.306,7.618,22.018,10.158c15.706,5.17,31.605,9.752,47.654,13.731c9.603,2.381,19.599,4.558,29.314,2.69
			c15.562-2.989,27.713-15.783,43.115-19.516c10.057-2.437,20.582-0.795,30.928-0.543c10.345,0.252,21.595-1.307,28.938-8.599
			c6.826-6.78,8.782-17.242,7.709-26.804c-1.072-9.562-4.758-18.599-7.789-27.73c-0.967-2.911-1.881-5.933-1.639-8.991
			c0.439-5.563,4.514-10.039,8.044-14.362c12.487-15.293,20.583-35.251,17.522-54.755c-1.669-10.634-6.493-20.495-11.713-29.908
			c-8.088-14.588-18.057-29.268-33.168-36.329c-3.857-1.802-7.974-3.063-11.654-5.202c-5.041-2.929-9.011-7.348-13.417-11.164
			c-18.777-16.262-42.257-15.335-64.819-20.798C481.534,91.387,455.35,95.917,435.293,109.859z"/>
		<circle fill="#EB8F22" cx="497.417" cy="229.121" r="52.295"/>
		<circle fill="#FCAE27" cx="495.714" cy="225.087" r="47.878"/>
		<circle fill="#FFFFFF" cx="486.501" cy="199.645" r="7.719"/>
	</g>
	<g>
		<path fill="#EEC399" d="M314.531,255.184c0,65.747-42.606,107.851-95.163,107.851c-52.557,0-95.163-42.104-95.163-107.851
			c0-65.749,42.606-145.917,95.163-145.917C271.925,109.267,314.531,189.435,314.531,255.184z"/>
		<path fill="#F6CBA1" d="M306.935,231.181c-0.128,57.739-69.817,90.663-119.964,90.663c-50.146,0-67.638-35.648-61.634-90.663
			c5.996-54.938,40.652-122.66,90.799-122.66S307.059,175.601,306.935,231.181z"/>
		<path fill="#FEE0C6" d="M164.014,153.632c-10.459,19.416-11.249,49.47-1.995,54.456c9.254,4.986,3.754-18.972,18.445-35.42
			c14.57-16.312,28.685-29.903,19.431-34.889C190.642,132.794,174.473,134.217,164.014,153.632z"/>
	</g>
	<g>
		<path fill="#EEC399" d="M318.366,255.184c0,65.747-42.606,107.851-95.163,107.851c-52.557,0-95.162-42.104-95.162-107.851
			c0-65.749,42.605-145.917,95.162-145.917C275.76,109.267,318.366,189.435,318.366,255.184z"/>
		<path fill="#F6CBA1" d="M310.771,231.181c-0.128,57.739-69.817,90.663-119.964,90.663s-67.638-35.648-61.633-90.663
			c5.996-54.938,40.652-122.66,90.799-122.66C270.118,108.521,310.894,175.601,310.771,231.181z"/>
		<path fill="#FEE0C6" d="M167.849,153.632c-10.459,19.416-11.249,49.47-1.995,54.456c9.254,4.986,3.755-18.972,18.445-35.42
			c14.571-16.312,28.685-29.903,19.432-34.889C194.476,132.794,178.308,134.217,167.849,153.632z"/>
	</g>
</g>
</svg>
