
<svg version="1.1" id="Layer_1" xmlns="http://www.w3.org/2000/svg" xmlns:xlink="http://www.w3.org/1999/xlink" viewBox="0 0 768 430" enable-background="new 0 0 768 430" xml:space="preserve">
<g>
	<g id="Outline">
		<path id="Base_2_" d="M571.726,61.051c0-16.726-78.737-30.285-175.863-30.285C298.736,30.767,220,44.326,220,61.051
			c0,0.366,0.053,0.729,0.126,1.093C220.05,62.697,220,63.263,220,63.86c0,15.732,0,23.498,0,30.311
			c0,5.923,9.881,11.447,26.947,16.114c3.274,18.292,19.949,110.15,19.949,259.617c0,16.667,57.741,30.175,128.966,30.175
			s128.966-13.508,128.966-30.175c0,0,2.026-199.491,16.608-258.736c19.112-4.846,30.288-10.696,30.288-16.996
			c0-6.825,0-13.151,0-29.454c0-0.768-0.085-1.487-0.211-2.186C571.65,62.042,571.726,61.547,571.726,61.051L571.726,61.051z"/>
		<path id="Color_3_" fill="#FF0000" d="M565.498,61.156c0-15.877-75.586-28.75-168.822-28.75
			c-93.241,0-168.825,12.872-168.825,28.75c0,0.347,0.049,0.693,0.12,1.037c-0.074,0.526-0.12,1.063-0.12,1.628
			c0,14.935,0,22.308,0,28.775c0,5.623,9.486,10.867,25.869,15.296c3.005,16.609,19.151,113.952,19.151,256.637
			c0,15.822,55.429,28.646,123.806,28.646c68.372,0,123.802-12.823,123.802-28.646c0,0,1.944-199.556,15.945-255.8
			c18.348-4.599,29.076-10.153,29.076-16.134c0-6.479,0-12.484,0-27.96c0-0.73-0.083-1.414-0.204-2.076
			C565.425,62.096,565.498,61.627,565.498,61.156L565.498,61.156z"/>
		<g id="Highlights">
			<path id="svg_1" fill="#FFAA56" d="M354.828,76.686c0,0,27.356,1.954,44.943,0c17.586-1.953,10.747,11.726,0.976,11.726
				c-9.77,0-15.631,0.976-14.654,6.838c0.978,5.862,0.978,8.793-1.954,11.724c-2.931,2.932,0,1.954,5.861,3.909
				c5.861,1.954,3.908,7.815-9.77,6.839c-13.679-0.977-20.518-6.839-10.748-7.816c9.77-0.977,11.724-2.932,7.816-6.839
				c-3.908-3.908-0.977-4.883,0.977-10.747c1.954-5.861-2.931-5.861-12.701-6.838C355.805,84.502,345.058,78.64,354.828,76.686z"/>
			<path id="svg_2" fill="#FFAA56" d="M356.783,142.147c0,0,31.752,3.419,55.689,1.954c0,34.196-5.861,177.817-5.861,206.149
				c0,21.494,1.953,31.266-9.771,32.242c-16.581,1.381-17.585-1.955-23.448-7.816c-5.861-5.863,3.909,0,7.816-28.334
				c3.908-28.333-21.495-106.493-15.632-145.574S369.484,149.962,356.783,142.147z"/>
			<path id="svg_3" fill="#FFAA56" d="M406.61,350.25c0,22.471,0,32.242-9.771,32.242"/>
		</g>
		<g id="Shadows">
			
				<linearGradient id="svg_4_1_" gradientUnits="userSpaceOnUse" x1="2.8887" y1="1.5156" x2="3.8657" y2="1.5156" gradientTransform="matrix(115.667 0 0 136.001 78.354 67.3164)">
				<stop  offset="0" style="stop-color:#000000;stop-opacity:0.8"/>
				<stop  offset="1" style="stop-color:#000000"/>
			</linearGradient>
			<path id="svg_4" fill="url(#svg_4_1_)" d="M525.48,206.955c0,0-3.42,79.463-3.583,90.537
				c-10.423,12.376-26.055,29.312-49.176,42.339c-16.284-4.561-21.82-9.771-60.25-13.353c17.912-14.004,23.448-18.238,23.448-18.238
				s19.866,3.581,35.824,15.307C486.074,313.449,515.385,274.043,525.48,206.955z"/>
		</g>
		<g id="Rim">
			<path id="svg_5" d="M228.305,99.157c0,0,150.948,59.597,328.766,3.257c0.976,2.443,1.466,3.419,1.466,3.419
				s-155.183,65.298-330.231-2.769C228.792,100.134,228.305,99.157,228.305,99.157z"/>
		</g>
		<g id="Handle">
			<path id="svg_6" d="M240.965,106.35c0,0-36.774,167.229,5.154,213.19c58.188,0,174.56,15.631,174.56,15.631
				s127.216-33.585,134.918-231.305c-2.566-12.142-24.033-20.695-32.589-2.483c0,23.415-9.638,146.552-104.027,193.749
				c-35.083,0-149.394-15.273-149.394-15.273s-21.17-5.427-8.75-110.58c-4.673,0-11.591,0-17.387,0
				C236.603,154.534,262.5,103.554,240.965,106.35L240.965,106.35z"/>
		</g>
		<g id="Lid">
			<path id="svg_7" d="M245.402,59.1c0,12.761,64.484,16.609,152.416,16.609s152.415-3.663,152.415-17.586
				c0-13.924-59.599-14.655-59.599-14.655s23.448,16.934,13.678,23.448c-24.424,6.839-196.704,4.559-224.712-0.977
				c-2.932-6.839-8.793-15.632,2.931-20.517C268.851,49.085,245.402,48.413,245.402,59.1z"/>
		</g>
		<g id="Layer_8">
			
				<linearGradient id="svg_8_1_" gradientUnits="userSpaceOnUse" x1="2.2964" y1="3.7334" x2="2.2964" y2="4.7104" gradientTransform="matrix(275 0 0 38 -244 -30)">
				<stop  offset="0.1656" style="stop-color:#000000;stop-opacity:0.87"/>
				<stop  offset="1" style="stop-color:#000000;stop-opacity:0.25"/>
			</linearGradient>
			<path id="svg_8" fill="url(#svg_8_1_)" d="M253.218,111.858c0,0,62.854,22.798,141.667,22.146
				c78.812-0.651,127.012-16.284,127.012-16.284s-0.651,6.513-1.628,13.678c-15.306,5.21-76.532,17.586-125.059,17.586
				c-48.524,0-73.601-1.303-139.713-20.518C254.846,123.909,253.218,111.858,253.218,111.858L253.218,111.858z"/>
			
				<linearGradient id="svg_9_1_" gradientUnits="userSpaceOnUse" x1="215.1387" y1="141.4565" x2="215.1387" y2="141.4565" gradientTransform="matrix(1 0 0 1 381.5 -12.5)">
				<stop  offset="0" style="stop-color:#000000;stop-opacity:0.35"/>
				<stop  offset="1" style="stop-color:#000000;stop-opacity:0.35"/>
			</linearGradient>
			<path id="svg_9" fill="url(#svg_9_1_)" d="M596.639,128.957"/>
		</g>
		<polyline id="svg_11" fill="none" points="311.35,48.353 311.35,47.375 312.328,47.375 313.305,47.375 314.281,47.375 
			315.258,47.375 316.236,47.375 317.212,47.375 319.167,47.375 321.12,47.375 322.098,47.375 323.075,47.375 324.051,47.375 
			329.914,47.375 333.822,47.375 337.729,48.353 339.683,48.353 341.638,48.353 345.546,48.353 349.455,48.353 358.247,48.353 
			368.994,49.33 382.673,51.284 387.559,52.26 391.466,52.26 393.42,52.26 395.375,52.26 403.19,52.26 410.029,51.284 
			415.892,51.284 422.73,51.284 426.639,51.284 		"/>
		<ellipse id="svg_12" fill="#FFAA56" cx="386.58" cy="55.191" rx="111.381" ry="15.632"/>
	</g>
	<g id="Color_1_">
		<g id="Handle_1_">
			<path id="svg_10" fill="#FFFFFF" d="M250.287,111.37c-2.931-1.954,0-0.488-3.257-2.443c0,0-37.231,161.843,3.338,205.726
				c56.303,0,168.907,15.632,168.907,15.632s125.853-36.132,133.304-224.911c-1.655-5.796-15.729-18.216-24.01-0.829
				c0,22.355-3.312,140.756-108.465,195.402c-33.949,0-149.865-15.632-149.865-15.632s-25.164-9.949-13.439-117.419
				C255.858,159.348,252.394,122.009,250.287,111.37L250.287,111.37z"/>
		</g>
	</g>
</g>
</svg>
