
<svg version="1.1" id="Layer_1" xmlns="http://www.w3.org/2000/svg" xmlns:xlink="http://www.w3.org/1999/xlink" viewBox="0 0 768 430" enable-background="new 0 0 768 430" xml:space="preserve">
<g>
	<g id="Outline">
		<path id="Base_2_" d="M581.543,51.938C581.543,33.747,495.906,19,390.271,19C284.635,19,199,33.747,199,51.938
			c0,0.398,0.057,0.793,0.137,1.189c-0.083,0.601-0.137,1.217-0.137,1.866c0,17.11,0,25.557,0,32.966
			c0,6.442,10.747,12.45,29.308,17.526c3.561,19.895,21.697,119.801,21.697,282.365c0,18.126,62.8,32.818,140.266,32.818
			c77.465,0,140.265-14.692,140.265-32.818c0,0,2.204-216.971,18.064-281.407c20.788-5.271,32.942-11.634,32.942-18.485
			c0-7.423,0-14.303,0-32.034c0-0.835-0.093-1.618-0.23-2.377C581.461,53.015,581.543,52.478,581.543,51.938L581.543,51.938z"/>
		<path id="Color_3_" fill="#FF0000" d="M574.77,52.052c0-17.269-82.209-31.27-183.615-31.27c-101.41,0-183.617,14-183.617,31.27
			c0,0.377,0.054,0.753,0.131,1.128c-0.08,0.572-0.131,1.156-0.131,1.771c0,16.243,0,24.263,0,31.296
			c0,6.115,10.318,11.819,28.136,16.637c3.269,18.064,20.829,123.936,20.829,279.122c0,17.208,60.286,31.155,134.653,31.155
			c74.364,0,134.65-13.947,134.65-31.155c0,0,2.115-217.04,17.342-278.212c19.955-5.002,31.623-11.043,31.623-17.548
			c0-7.047,0-13.578,0-30.41c0-0.794-0.09-1.537-0.221-2.258C574.69,53.074,574.77,52.565,574.77,52.052L574.77,52.052z"/>
		<g id="Highlights">
			<path id="svg_1" fill="#FFAA56" d="M345.641,68.943c0,0,29.753,2.125,48.88,0c19.128-2.125,11.689,12.752,1.062,12.752
				c-10.626,0-17.001,1.062-15.939,7.438c1.063,6.376,1.063,9.563-2.125,12.751c-3.188,3.188,0,2.125,6.375,4.251
				c6.376,2.125,4.25,8.5-10.626,7.438c-14.877-1.062-22.315-7.438-11.689-8.501c10.626-1.062,12.751-3.188,8.501-7.438
				c-4.251-4.25-1.063-5.312,1.062-11.688c2.125-6.375-3.188-6.375-13.814-7.438C346.704,77.444,335.015,71.068,345.641,68.943z"/>
			<path id="svg_2" fill="#FFAA56" d="M347.767,140.139c0,0,34.535,3.719,60.569,2.125c0,37.192-6.376,193.397-6.376,224.212
				c0,23.378,2.125,34.004-10.626,35.067c-18.034,1.501-19.127-2.126-25.503-8.502c-6.375-6.376,4.251,0,8.501-30.815
				c4.25-30.816-23.378-115.825-17.002-158.33S361.581,148.639,347.767,140.139z"/>
			<path id="svg_3" fill="#FFAA56" d="M401.96,366.476c0,24.44,0,35.067-10.626,35.067"/>
		</g>
		<g id="Shadows">
			
				<linearGradient id="svg_4_1_" gradientUnits="userSpaceOnUse" x1="2.0381" y1="429.5186" x2="3.1006" y2="429.5186" gradientTransform="matrix(115.667 0 0 -136.001 172.6665 58697.8008)">
				<stop  offset="0" style="stop-color:#000000;stop-opacity:0.8"/>
				<stop  offset="1" style="stop-color:#000000"/>
			</linearGradient>
			<path id="svg_4" fill="url(#svg_4_1_)" d="M531.245,210.625c0,0-3.719,86.426-3.896,98.47
				c-11.335,13.46-28.337,31.88-53.485,46.048c-17.711-4.96-23.732-10.627-65.528-14.523c19.481-15.23,25.503-19.836,25.503-19.836
				s21.606,3.896,38.962,16.648C488.387,326.451,520.266,283.592,531.245,210.625z"/>
		</g>
		<g id="Rim">
			<path id="svg_5" d="M208.032,93.383c0,0,164.174,64.819,357.571,3.542c1.062,2.657,1.595,3.719,1.595,3.719
				s-168.78,71.019-359.166-3.011C208.563,94.446,208.032,93.383,208.032,93.383z"/>
		</g>
		<g id="Handle">
			<path id="svg_6" d="M221.802,101.206c0,0-39.997,181.881,5.605,231.868c63.286,0,189.855,17.001,189.855,17.001
				s138.362-36.527,146.739-251.571c-2.792-13.205-26.139-22.508-35.444-2.701c0,25.466-10.483,159.393-113.142,210.724
				c-38.157,0-162.484-16.611-162.484-16.611s-23.025-5.903-9.517-120.269c-5.083,0-12.607,0-18.91,0
				C217.057,153.612,245.224,98.165,221.802,101.206L221.802,101.206z"/>
		</g>
		<g id="Lid">
			<path id="svg_7" d="M226.628,49.816c0,13.88,70.133,18.065,165.769,18.065s165.769-3.984,165.769-19.127
				c0-15.144-64.819-15.939-64.819-15.939s25.502,18.418,14.876,25.503c-26.565,7.438-213.94,4.959-244.402-1.063
				c-3.188-7.438-9.564-17.002,3.188-22.314C252.131,38.924,226.628,38.193,226.628,49.816z"/>
		</g>
		<g id="Layer_8">
			
				<linearGradient id="svg_8_1_" gradientUnits="userSpaceOnUse" x1="1.6411" y1="429.0479" x2="1.6411" y2="427.9854" gradientTransform="matrix(275 0 0 -38 -70 16411)">
				<stop  offset="0.1656" style="stop-color:#000000;stop-opacity:0.87"/>
				<stop  offset="1" style="stop-color:#000000;stop-opacity:0.25"/>
			</linearGradient>
			<path id="svg_8" fill="url(#svg_8_1_)" d="M235.129,107.197c0,0,68.361,24.795,154.08,24.086
				c85.718-0.709,138.141-17.711,138.141-17.711s-0.709,7.084-1.771,14.876c-16.647,5.667-83.238,19.127-136.016,19.127
				c-52.777,0-80.05-1.417-151.955-22.315C236.899,120.303,235.129,107.197,235.129,107.197L235.129,107.197z"/>
			
				<linearGradient id="svg_9_1_" gradientUnits="userSpaceOnUse" x1="190.1387" y1="374.207" x2="190.1387" y2="374.207" gradientTransform="matrix(1 0 0 -1 418.5 500)">
				<stop  offset="0" style="stop-color:#000000;stop-opacity:0.35"/>
				<stop  offset="1" style="stop-color:#000000;stop-opacity:0.35"/>
			</linearGradient>
			<path id="svg_9" fill="url(#svg_9_1_)" d="M608.639,125.793"/>
		</g>
		<polyline id="svg_11" fill="none" points="298.354,38.127 298.354,37.064 299.417,37.064 300.48,37.064 301.542,37.064 
			302.605,37.064 303.668,37.064 304.73,37.064 306.856,37.064 308.98,37.064 310.043,37.064 311.106,37.064 312.168,37.064 
			318.544,37.064 322.795,37.064 327.045,38.127 329.17,38.127 331.296,38.127 335.546,38.127 339.797,38.127 349.36,38.127 
			361.049,39.19 375.926,41.315 381.239,42.377 385.489,42.377 387.614,42.377 389.74,42.377 398.241,42.377 405.679,41.315 
			412.055,41.315 419.493,41.315 423.744,41.315 		"/>
		<ellipse id="svg_12" fill="#FFAA56" cx="380.176" cy="45.565" rx="121.139" ry="17.002"/>
	</g>
	<g id="Color_1_">
		<g id="Handle_1_">
			<path id="svg_10" fill="#FFFFFF" d="M231.941,106.666c-3.188-2.125,0-0.531-3.542-2.657c0,0-40.494,176.023,3.631,223.751
				c61.235,0,183.706,17.002,183.706,17.002s136.878-39.298,144.983-244.618c-1.8-6.304-17.109-19.812-26.114-0.901
				c0,24.314-3.602,153.089-117.968,212.523c-36.923,0-162.996-17.002-162.996-17.002s-27.369-10.82-14.617-127.707
				C238,158.847,234.232,118.237,231.941,106.666L231.941,106.666z"/>
		</g>
	</g>
</g>
</svg>
