<svg version="1.1" id="Layer_1" xmlns="http://www.w3.org/2000/svg" xmlns:xlink="http://www.w3.org/1999/xlink" viewBox="0 0 768 430" enable-background="new 0 0 768 430" xml:space="preserve">
<g>
	<g id="Outline">
		<path id="Base_2_" d="M562.515,58.092c0-16.196-76.241-29.326-170.292-29.326c-94.051,0.001-170.292,13.13-170.292,29.326
			c0,0.354,0.052,0.706,0.122,1.059c-0.074,0.535-0.122,1.083-0.122,1.661c0,15.234,0,22.754,0,29.351
			c0,5.735,9.568,11.085,26.093,15.604c3.171,17.712,19.317,106.662,19.317,251.395c0,16.139,55.913,29.219,124.881,29.219
			c68.971,0,124.883-13.08,124.883-29.219c0,0,1.961-193.173,16.08-250.542c18.509-4.693,29.329-10.357,29.329-16.458
			c0-6.608,0-12.734,0-28.521c0-0.743-0.082-1.44-0.204-2.117C562.441,59.051,562.515,58.572,562.515,58.092L562.515,58.092z"/>
		<path id="Color_3_" fill="#F44D8D" d="M556.484,58.194c0-15.375-73.192-27.839-163.477-27.839
			c-90.287,0-163.477,12.464-163.477,27.839c0,0.335,0.047,0.671,0.116,1.003c-0.072,0.509-0.116,1.029-0.116,1.577
			c0,14.462,0,21.602,0,27.864c0,5.445,9.186,10.522,25.049,14.812c2.91,16.083,18.545,110.343,18.545,248.509
			c0,15.32,53.673,27.738,119.884,27.738c66.207,0,119.881-12.417,119.881-27.738c0,0,1.884-193.235,15.44-247.698
			c17.768-4.454,28.155-9.832,28.155-15.624c0-6.273,0-12.088,0-27.074c0-0.707-0.08-1.369-0.197-2.01
			C556.413,59.104,556.484,58.649,556.484,58.194L556.484,58.194z"/>
		<g id="Highlights">
			<path id="svg_1" fill="#EF8FB7" d="M352.487,73.231c0,0,26.49,1.893,43.52,0c17.029-1.891,10.405,11.355,0.944,11.355
				s-15.136,0.945-14.189,6.621c0.947,5.676,0.946,8.515-1.892,11.353c-2.839,2.839,0,1.892,5.675,3.785
				c5.676,1.892,3.784,7.568-9.461,6.623c-13.246-0.946-19.868-6.623-10.407-7.568c9.461-0.946,11.353-2.839,7.568-6.623
				c-3.785-3.784-0.946-4.728,0.946-10.407c1.892-5.675-2.838-5.675-12.299-6.621C353.433,80.8,343.026,75.124,352.487,73.231z"/>
			<path id="svg_2" fill="#EF8FB7" d="M354.38,136.619c0,0,30.746,3.311,53.927,1.892c0,33.113-5.677,172.186-5.677,199.62
				c0,20.813,1.892,30.275-9.462,31.221c-16.056,1.339-17.028-1.893-22.705-7.567c-5.675-5.678,3.785,0,7.568-27.438
				c3.784-27.436-20.814-103.118-15.137-140.963C368.572,155.541,366.679,144.187,354.38,136.619z"/>
			<path id="svg_3" fill="#EF8FB7" d="M402.628,338.131c0,21.759,0,31.221-9.461,31.221"/>
		</g>
		<g id="Shadows">
			
				<linearGradient id="svg_4_1_" gradientUnits="userSpaceOnUse" x1="4.4834" y1="2.6504" x2="5.4297" y2="2.6504" gradientTransform="matrix(115.667 0 0 136.001 -110.271 -96.6836)">
				<stop  offset="0" style="stop-color:#000000;stop-opacity:0.8"/>
				<stop  offset="1" style="stop-color:#000000"/>
			</linearGradient>
			<path id="svg_4" fill="url(#svg_4_1_)" d="M517.734,199.375c0,0-3.312,76.945-3.472,87.669
				c-10.093,11.984-25.229,28.384-47.618,40.998c-15.769-4.417-21.128-9.462-58.342-12.931
				c17.346-13.562,22.706-17.659,22.706-17.659s19.236,3.467,34.689,14.821C479.576,302.496,507.958,264.338,517.734,199.375z"/>
		</g>
		<g id="Rim">
			<path id="svg_5" d="M229.971,94.991c0,0,146.167,57.709,318.353,3.153c0.944,2.366,1.42,3.311,1.42,3.311
				s-150.27,63.229-319.772-2.682C230.443,95.937,229.971,94.991,229.971,94.991z"/>
		</g>
		<g id="Handle">
			<path id="svg_6" d="M242.23,101.956c0,0-35.609,161.933,4.991,206.438c56.345,0,169.032,15.137,169.032,15.137
				s123.187-32.521,130.644-223.979c-2.483-11.757-23.271-20.04-31.557-2.405c0,22.673-9.332,141.911-100.732,187.613
				c-33.972,0-144.662-14.788-144.662-14.788s-20.5-5.257-8.473-107.079c-4.525,0-11.224,0-16.836,0
				C238.006,148.614,263.083,99.249,242.23,101.956L242.23,101.956z"/>
		</g>
		<g id="Lid">
			<path id="svg_7" fill="#EF8FB7" d="M246.526,56.203c0,12.356,62.442,16.083,147.589,16.083
				c85.146,0,147.588-3.547,147.588-17.029c0-13.482-57.712-14.191-57.712-14.191s22.706,16.398,13.244,22.706
				c-23.649,6.622-190.474,4.415-217.594-0.946c-2.839-6.622-8.515-15.137,2.838-19.867
				C269.233,46.505,246.526,45.854,246.526,56.203z"/>
		</g>
		<g id="Layer_8">
			
				<linearGradient id="svg_8_1_" gradientUnits="userSpaceOnUse" x1="3.5493" y1="7.9287" x2="3.5493" y2="8.8745" gradientTransform="matrix(275 0 0 38 -592 -194)">
				<stop  offset="0.1656" style="stop-color:#000000;stop-opacity:0.87"/>
				<stop  offset="1" style="stop-color:#000000;stop-opacity:0.25"/>
			</linearGradient>
			<path id="svg_8" fill="url(#svg_8_1_)" d="M254.095,107.29c0,0,60.863,22.076,137.18,21.444
				c76.315-0.63,122.989-15.768,122.989-15.768s-0.631,6.306-1.575,13.244c-14.822,5.045-74.108,17.029-121.1,17.029
				c-46.987,0-71.27-1.262-135.288-19.868C255.672,118.959,254.095,107.29,254.095,107.29L254.095,107.29z"/>
			
				<linearGradient id="svg_9_1_" gradientUnits="userSpaceOnUse" x1="279.1387" y1="300.3477" x2="279.1387" y2="300.3477" gradientTransform="matrix(1 0 0 1 307.5 -176.5)">
				<stop  offset="0" style="stop-color:#000000;stop-opacity:0.35"/>
				<stop  offset="1" style="stop-color:#000000;stop-opacity:0.35"/>
			</linearGradient>
			<path id="svg_9" fill="url(#svg_9_1_)" d="M586.639,123.847"/>
		</g>
		<polyline id="svg_11" fill="none" points="310.386,45.796 310.386,44.849 311.333,44.849 312.279,44.849 313.224,44.849 
			314.17,44.849 315.117,44.849 316.062,44.849 317.955,44.849 319.847,44.849 320.793,44.849 321.74,44.849 322.685,44.849 
			328.362,44.849 332.146,44.849 335.93,45.796 337.822,45.796 339.715,45.796 343.499,45.796 347.284,45.796 355.798,45.796 
			366.204,46.742 379.45,48.634 384.181,49.579 387.964,49.579 389.855,49.579 391.75,49.579 399.316,49.579 405.939,48.634 
			411.617,48.634 418.238,48.634 422.023,48.634 		"/>
		<ellipse id="svg_12" fill="#EF8FB7" cx="383.233" cy="52.418" rx="107.853" ry="15.137"/>
	</g>
	<g id="Color_1_">
		<g id="Handle_1_">
			<path id="svg_10" fill="#FFFFFF" d="M251.257,106.817c-2.838-1.893,0-0.473-3.154-2.366c0,0-36.052,156.717,3.232,199.211
				c54.52,0,163.558,15.137,163.558,15.137s121.866-34.988,129.081-217.788c-1.603-5.612-15.23-17.639-23.249-0.803
				c0,21.647-3.208,136.298-105.029,189.214c-32.875,0-145.119-15.138-145.119-15.138s-24.366-9.634-13.013-113.7
				C256.651,153.275,253.297,117.119,251.257,106.817L251.257,106.817z"/>
		</g>
	</g>
</g>
</svg>
