<svg version="1.1" id="Layer_1" xmlns="http://www.w3.org/2000/svg" xmlns:xlink="http://www.w3.org/1999/xlink" viewBox="0 0 768 430" enable-background="new 0 0 768 430" xml:space="preserve">
<g>
	<ellipse opacity="0.16" cx="395.45" cy="393.82" rx="68.538" ry="5.2"/>
	<path fill="#FFC19F" d="M359.3,382.605l15.511,1.504c3.306-20.737,10.649-62.699,15.518-94.24l-26.854-2.405
		C362.568,317.333,359.969,360.842,359.3,382.605z"/>
	<path fill="#FFFFFF" d="M358.007,380.34l21.092-0.19c0.302-2.268,0.565-9.128,0.962-11.799l-22.767-0.331
		C357.523,372.47,357.964,379.441,358.007,380.34z"/>
	<g>
		<path fill="#3191BC" d="M351.508,376.227c0.343-1.2,1.049-2.718,1.596-4.107c0.407-1.03,10.729-0.797,10.74,1.687
			c0.003,0.637-0.027,1.197-0.084,1.706c1.766,0.029,3.682,0.021,5.705-0.038c4.399-0.128,8.344-0.452,11.113-0.865
			c0.152,3.929-0.245,10.727-0.113,15.094c0,0-46.111,8.138-53.323,1.548C325.108,389.393,336.728,381.279,351.508,376.227z"/>
		<path fill="#0D6E99" d="M380.442,386.964c-0.006,0.971-0.003,1.907,0.021,2.738c0,0-46.111,8.138-53.323,1.548
			c-0.287-0.262-0.297-0.65-0.071-1.134C339.758,392.9,368.979,388.775,380.442,386.964z"/>
		<path fill="#0D6E99" d="M337.786,382.157c0.259,0.051,0.518,0.103,0.776,0.171c5.424,1.446,8.789,6.333,7.516,10.916
			c-0.044,0.16-0.106,0.312-0.16,0.467c-8.64,0.363-16.198-0.104-18.777-2.461C325.809,390.033,330.343,386.127,337.786,382.157z"/>
		<path fill="#D3DAE5" d="M354.53,380.008c0.13,0.173,0.333,0.261,0.537,0.255c0.127-0.004,0.255-0.045,0.364-0.124
			c0.287-0.209,0.346-0.604,0.133-0.884c-1.771-2.333-4.88-3.566-7.559-3.016c-0.349,0.073-0.57,0.409-0.496,0.75
			c0.074,0.341,0.413,0.552,0.765,0.485C350.476,377.005,353.047,378.057,354.53,380.008z M351.263,381.527
			c0.132,0.138,0.312,0.205,0.491,0.2c0.151-0.004,0.302-0.061,0.42-0.169c0.261-0.238,0.274-0.638,0.032-0.893
			c-2.024-2.125-4.801-3.18-7.623-2.873c-0.354,0.038-0.61,0.349-0.571,0.695c0.038,0.346,0.36,0.621,0.71,0.559
			C346.142,378.896,348.875,379.02,351.263,381.527z M340.299,380.25c0.058,0.344,0.379,0.583,0.741,0.52
			c2.146-0.377,4.962,0.672,6.825,2.478c0.131,0.126,0.303,0.187,0.473,0.182c0.16-0.005,0.318-0.066,0.439-0.187
			c0.25-0.248,0.249-0.647-0.004-0.893c-2.139-2.073-5.399-3.24-7.943-2.824C340.479,379.581,340.241,379.906,340.299,380.25z"/>
	</g>
	<path fill="#FFC19F" d="M430.822,382.605l-15.512,1.504c-3.305-20.737-10.648-62.699-15.517-94.24l26.854-2.405
		C427.555,317.333,430.153,360.842,430.822,382.605z"/>
	<path fill="#FFFFFF" d="M432.115,380.34l-21.092-0.19c-0.302-2.268-0.565-9.128-0.962-11.799l22.767-0.331
		C432.6,372.47,432.16,379.441,432.115,380.34z"/>
	<g>
		<path fill="#3191BC" d="M438.615,376.227c-0.344-1.2-1.049-2.718-1.597-4.107c-0.406-1.03-10.729-0.797-10.739,1.687
			c-0.003,0.637,0.026,1.197,0.084,1.706c-1.767,0.029-3.682,0.021-5.705-0.038c-4.399-0.128-8.344-0.452-11.112-0.865
			c-0.152,3.929,0.245,10.727,0.113,15.094c0,0,46.111,8.138,53.323,1.548C465.015,389.393,453.396,381.279,438.615,376.227z"/>
		<path fill="#0D6E99" d="M409.68,386.964c0.007,0.971,0.005,1.907-0.021,2.738c0,0,46.111,8.138,53.323,1.548
			c0.286-0.262,0.297-0.65,0.07-1.134C450.364,392.9,421.143,388.775,409.68,386.964z"/>
		<path fill="#0D6E99" d="M452.337,382.157c-0.259,0.051-0.518,0.103-0.776,0.171c-5.425,1.446-8.789,6.333-7.516,10.916
			c0.045,0.16,0.105,0.312,0.16,0.467c8.64,0.363,16.198-0.104,18.777-2.461C464.314,390.033,459.779,386.127,452.337,382.157z"/>
		<path fill="#D3DAE5" d="M441.85,377.475c0.351,0.066,0.69-0.145,0.765-0.485s-0.147-0.677-0.496-0.75
			c-2.679-0.551-5.787,0.683-7.56,3.016c-0.212,0.28-0.152,0.675,0.133,0.884c0.109,0.079,0.237,0.12,0.365,0.124
			c0.203,0.006,0.406-0.082,0.536-0.255C437.075,378.057,439.647,377.005,441.85,377.475z M445.4,379.047
			c0.351,0.062,0.673-0.213,0.711-0.559c0.038-0.347-0.217-0.657-0.571-0.695c-2.822-0.307-5.599,0.748-7.623,2.873
			c-0.243,0.255-0.229,0.654,0.031,0.893c0.119,0.108,0.271,0.165,0.421,0.169c0.179,0.005,0.358-0.062,0.49-0.2
			C441.248,379.02,443.98,378.896,445.4,379.047z M449.293,379.525c-2.544-0.416-5.804,0.751-7.943,2.824
			c-0.252,0.245-0.254,0.645-0.004,0.893c0.121,0.12,0.279,0.182,0.438,0.187c0.171,0.005,0.343-0.056,0.474-0.182
			c1.862-1.806,4.679-2.854,6.824-2.478c0.362,0.063,0.685-0.176,0.742-0.52S449.644,379.581,449.293,379.525z"/>
	</g>
	<path fill="#994D26" d="M325.682,117.75c-11.508,26.58-22.695,46.957-31.049,53.791c0.112,0.131,0.272,0.516,0.486,0.625
		c9.064-6.953,18.665-23.76,22.203-29.801c-1.216,5.637-15.278,27.884-19.462,32.177c1.025,1.001,10.009,10.375,11.059,11.319
		c1.103-1.006,5.818-5.532,7.332-6.997c-0.592,2.208-2.906,9.281-3.635,10.17c42.043,36.086,105.072,25.401,144.203,7.237
		c-0.746-1.331-1.508-5.276-1.496-6.66c0.98,0.935,4.515,4.662,5.438,4.796c7.195-3.737,14.284-8.536,19.245-12.427
		c-1.422-2.18-7.997-10.965-9.111-16.55c3.688,4.859,9.97,12.448,12.545,13.618c1.247-1.142,4.271-3.826,5.271-4.937
		c-10.949-12.086-18.734-24.563-21.734-35.793c1.334,2.459,11.766,21.746,24.86,31.315c0.202-0.138,1.668-1.459,1.646-1.719
		c-9.153-8.712-20.646-27.079-38.362-63.914C415.238,104.744,346.442,113.24,325.682,117.75z"/>
	<path fill="#CC37A9" d="M434.4,271.576c-6.519,4.706-13.642,5.389-36.764,5.298c-23.31-0.092-33.688-3.801-38.49-6.771
		c0,0,8.532-55.687,12.056-68.853c7.542-1.957,38.864-1.708,49.336-0.059C425.134,212.599,433.734,271.764,434.4,271.576z"/>
	<path fill="#5997C1" d="M424.663,268.478c-4.848,3.615-10.146,9.389-27.346,9.319c-17.338-0.071-25.531-5.117-29.103-7.398
		c0,0,6.316-39.926,7.559-48.037c8.535-0.58,32.452,0,40.125,0.848C418.643,232.608,424.168,268.622,424.663,268.478z"/>
	<path fill="#5997C1" d="M357.713,267.819c0,0-8.056,28.228-12.292,40.637c8.458,3.65,31.675,8.219,42.47,9.091
		c4.24-18.145,5.745-20.755,8.942-20.544c3.109,0.206,3.595,1.611,6.807,20.688c10.733-0.651,34.706-5.964,43.515-9.234
		c-3.082-11.256-10.98-36.91-13.042-43.523c0,0-10.159,5.113-39.758,4.861C376.326,269.642,357.713,267.819,357.713,267.819z"/>
	<path fill="#E0956C" d="M382.799,184.532v18.06c0,3.883,5.314,7.033,11.87,7.033s11.869-3.149,11.869-7.033v-18.06H382.799z"/>
	<path fill="#447793" d="M441.85,290.213c-5.355,1.592-10.64-2.197-13.697-8.671c-2.138-4.526-2.141-9.42-0.414-13.109
		c4.714-0.191,7.649-0.37,7.649-0.37S438.293,278.832,441.85,290.213z"/>
	<path fill="#447793" d="M351.118,290.326c5.304,1.788,10.235-2.586,13.486-8.943c2.272-4.445,2.422-9.336,0.808-13.087
		c-4.706-0.364-7.634-0.651-7.634-0.651S354.602,278.564,351.118,290.326z"/>
	<path opacity="0.14" d="M386.154,280.432c14.423,0.621,39.57-4.328,49.817-8.508c-0.601-2.976-1.146-4.425-1.56-6.334
		c0,0-10.383,2.14-40.184,2.062c-18.151-0.048-35.265-1.897-35.265-1.897s-2.548,5.618-4.036,9.345
		C365.134,277.825,372.898,279.861,386.154,280.432z"/>
	<path opacity="0.14" d="M393.984,298.267c-0.93-3.177-1.014-8.76-1.052-13.859c-0.019-2.814-0.038-5.473-0.221-7.3l1.177-0.12
		c0.184,1.884,0.204,4.569,0.225,7.413c0.034,5.015-0.053,9.894,0.892,12.96l-0.519,0.356L393.984,298.267z"/>
	<path fill="#5997C1" d="M396.333,278.977c14.423-0.545,29.211-3.009,40.587-6.289c-0.399-2.216-2.222-7.776-2.6-9.529
		c0,0-10.23,5.149-40.039,4.896c-18.154-0.154-36.899-1.99-36.899-1.99s-1.24,3.909-2.455,9.036
		C366.797,277.701,381.374,279.541,396.333,278.977z"/>
	<path fill="#3A7DA3" d="M402.365,322.213c-0.287-1.645-1.452-9.042-1.626-10.352l46.558-8.227c0,0,1.72,9.172,1.955,10.534
		L402.365,322.213z"/>
	<path fill="#3A7DA3" d="M389.093,322.213c0.314-1.641,2.129-8.988,2.324-10.295L345,302.928c0,0-2.295,9.062-2.553,10.42
		L389.093,322.213z"/>
	<g opacity="0.2">
		<path d="M369.489,279.028l-2.335-0.415c-0.274-1.525-0.714-3.636-0.308-6.475c0.571-3.991,1.958-5.635,2.44-6.116l2.434,0.19
			c-0.069,0.272-1.508,2.228-2.097,6.868C369.425,274.644,369.377,277.791,369.489,279.028z"/>
	</g>
	<path fill="#81ACC9" d="M368.452,278.764l-2.335-0.416c-0.274-1.524-0.715-3.635-0.308-6.475c0.572-3.991,1.958-5.635,2.44-6.116
		l2.434,0.191c-0.068,0.271-1.946,2.177-2.535,6.817C367.949,274.328,368.203,277.54,368.452,278.764z"/>
	<g opacity="0.2">
		<path d="M423.038,277.889l2.298-0.575c0.16-1.494,0.443-3.566-0.174-6.28c-0.866-3.814-2.37-5.301-2.889-5.729l-2.412,0.365
			c0.089,0.258,1.808,2.078,2.74,6.519C422.914,273.683,423.195,276.688,423.038,277.889z"/>
	</g>
	<path fill="#81ACC9" d="M424.365,277.477l2.298-0.576c0.16-1.494,0.442-3.566-0.173-6.279c-0.867-3.815-2.371-5.301-2.89-5.73
		l-2.411,0.365c0.088,0.258,2.102,1.96,3.033,6.401C424.536,273.152,424.522,276.275,424.365,277.477z"/>
	<polygon opacity="0.14" points="405.271,246.971 395.514,249.407 385.767,246.209 386.157,232.497 405.112,232.027 	"/>
	<path fill="#80AECE" d="M404.482,246.133l-9.463,2.097l-9.012-2.097v-14.866c0,0,4.438,0.683,9.237,0.583
		c7.236-0.152,9.237-0.583,9.237-0.583V246.133z"/>
	<g opacity="0.14">
		<path d="M407.21,220.188c2.051-0.047,4.208-0.188,6.443-0.115c0,1.82-0.127,6.563-0.173,7.258l-7.001-0.143
			C406.529,226.451,407.046,221.952,407.21,220.188z"/>
	</g>
	<path fill="#5997C1" d="M413.212,225.934c0.044-0.645,0.153-1.726,0.296-3.162c0.51-5.088,1.454-13.168,1.632-23.665l-5.531-0.1
		c-0.171,10.254-1.102,18.177-1.601,23.179c-0.153,1.522-0.267,2.668-0.312,3.353L413.212,225.934z"/>
	<ellipse fill="#54504D" cx="410.652" cy="222.591" rx="1.59" ry="1.446"/>
	<g opacity="0.14">
		<path d="M384.25,220.188c-2.051-0.047-4.207-0.188-6.443-0.115c0,1.82,0.127,6.563,0.174,7.258l7-0.143
			C384.932,226.451,384.414,221.952,384.25,220.188z"/>
	</g>
	<path fill="#5997C1" d="M378.248,225.934c-0.044-0.645-0.153-1.726-0.296-3.162c-0.509-5.088-2.733-13.068-2.91-23.564l5.53-0.101
		c0.172,10.255,2.381,18.077,2.881,23.079c0.152,1.522,0.266,2.668,0.312,3.353L378.248,225.934z"/>
	<ellipse fill="#54504D" cx="380.808" cy="222.591" rx="1.59" ry="1.446"/>
	<g>
		<g>
			<path fill="#F4B18C" d="M321.774,163.704c4.53,12.335,17.371,18.97,26.28,16.727c8.906-2.247,9.563-12.854,6.705-24.905
				c-2.86-12.053-12.405-20.033-21.306-17.756C321.288,140.879,317.518,152.109,321.774,163.704z"/>
			<path fill="#E0956C" d="M332.927,165.245c1.255,5.284,5.95,8.641,10.49,7.498c4.54-1.146,7.203-6.356,5.95-11.642
				c-1.255-5.283-5.951-8.639-10.49-7.496C334.337,154.749,331.674,159.96,332.927,165.245z"/>
			<path fill="#F4B18C" d="M465.616,148.556c-2.04,13.027-13.332,22.203-22.493,21.862c-9.161-0.343-11.865-10.596-11.403-22.999
				c0.461-12.402,8.263-22.209,17.422-21.834C461.661,126.097,467.536,136.311,465.616,148.556z"/>
			
				<ellipse transform="matrix(0.9993 0.0373 -0.0373 0.9993 5.9925 -16.5439)" fill="#E0956C" cx="445.873" cy="152.144" rx="8.46" ry="9.854"/>
			<path fill="#994D26" d="M455.445,107.708c5.08,39.722-21.219,60.61-58.869,64.575c-37.651,3.965-69.426-10.183-71.202-50.188
				c-1.723-38.804,23.066-52.735,60.718-56.7C423.742,61.429,451.481,76.721,455.445,107.708z"/>
			<path fill="#FFC19F" d="M446.396,122.657c6.997,46.383-15.586,70.89-48.255,74.33c-32.667,3.44-60.565-15.152-63.138-62.129
				c-1.538-28.071,18.753-43.462,51.42-46.902C419.092,84.516,441.557,90.59,446.396,122.657z"/>
			<path fill="#FF9797" d="M364.002,164.124c0.222,2.338-3.053,4.59-7.315,5.032c-4.261,0.441-7.896-1.096-8.119-3.434
				c-0.222-2.337,3.054-4.59,7.315-5.032C360.146,160.25,363.78,161.787,364.002,164.124z"/>
			<path fill="#FF9797" d="M439.09,156.792c0.222,2.338-3.053,4.59-7.315,5.032c-4.261,0.441-7.896-1.096-8.119-3.433
				c-0.222-2.337,3.055-4.59,7.315-5.032C435.233,152.918,438.868,154.455,439.09,156.792z"/>
		</g>
		<g>
			<path fill="#F9FEFF" d="M405.4,135.11c-3.247,6.188-2.099,12.479,1.529,14.514c5.466,3.066,17.597,2.766,21.526-2.983
				c3.806-5.568,0.727-14.604-6.777-17.804C415.109,126.036,408.544,129.122,405.4,135.11z"/>
			<path fill="#602220" d="M427.621,131.01c-6.457-8.313-19.403-3.813-22.329,4.311c3.245-6.184,10.176-8.73,16.249-6.144
				c3.753,1.602,6.646,4.873,7.739,8.75c0.871,3.092,0.537,6.706-1.043,9.018C430.167,145.335,432.371,137.123,427.621,131.01z"/>
			<path fill="#461D14" d="M407.223,138.792c-1.158,4.165,1.188,8.5,5.241,9.683c4.054,1.182,8.278-1.236,9.438-5.4
				c1.158-4.166-1.188-8.5-5.241-9.683C412.606,132.209,408.382,134.627,407.223,138.792z"/>
			<path fill="#FEFFFE" d="M407.77,138.037c-0.321,1.156,0.329,2.358,1.454,2.687s2.297-0.343,2.618-1.498
				c0.321-1.156-0.33-2.359-1.454-2.687C409.264,136.21,408.092,136.881,407.77,138.037z"/>
		</g>
		<g>
			<path fill="#F9FEFF" d="M378.148,137.98c4.383,5.384,4.479,11.786,1.32,14.536c-4.759,4.143-16.7,6.377-21.666,1.565
				c-4.81-4.661-3.546-14.154,3.183-18.853C366.876,131.115,373.906,132.77,378.148,137.98z"/>
			<path fill="#602220" d="M355.585,138.596c4.712-9.489,18.266-7.78,22.709-0.432c-4.379-5.381-11.663-6.43-17.109-2.631
				c-3.366,2.351-5.564,6.159-5.882,10.185c-0.252,3.21,0.776,6.681,2.773,8.617C355.873,153.159,352.12,145.574,355.585,138.596z"
				/>
			<path fill="#461D14" d="M362.965,143.453c-1.159,4.165,1.188,8.5,5.242,9.683c4.053,1.183,8.278-1.236,9.437-5.401
				c1.159-4.165-1.188-8.5-5.241-9.682C368.349,136.87,364.125,139.288,362.965,143.453z"/>
			<path fill="#FEFFFE" d="M363.512,142.698c-0.321,1.156,0.33,2.358,1.454,2.687c1.125,0.328,2.297-0.343,2.618-1.499
				c0.322-1.156-0.33-2.358-1.454-2.687C365.006,140.872,363.833,141.542,363.512,142.698z"/>
		</g>
		<path fill="#994D26" d="M337.912,93.465c0.068,0.586,14.863,5.876,15.539,13.105c0.951,8.112-7.269,13.126-7.046,15.025
			c0.407,3.476,30.988,6.82,49.896-8.253c7.812-6.23,16.748-16.76,17.406-27.512c1.605,6.951,3.919,15.346-6.786,27.912
			c-0.803,0.942,19.687-4.026,19.052-39.855C423.151,65.181,344.266,60.218,337.912,93.465z"/>
		<path fill="#EF3ACD" d="M453.782,110.78c4.785-4.068,10.049-5.737,11.756-3.728c1.708,2.009-0.787,6.936-5.572,11.003
			l-0.048,0.038c0.181,0.039,0.354,0.061,0.536,0.104c6.11,1.457,10.567,4.718,9.955,7.282c-0.611,2.565-6.061,3.463-12.17,2.006
			c-4.646-1.108-8.32-3.258-9.553-5.353c-0.166-0.11-0.351-0.199-0.479-0.349C446.501,119.774,448.996,114.848,453.782,110.78z"/>
		<path fill="#EF3ACD" d="M328.357,123.786c-4.978-3.83-10.316-5.241-11.924-3.151c-1.608,2.09,1.125,6.889,6.102,10.719
			l0.049,0.035c-0.178,0.048-0.351,0.078-0.531,0.13c-6.031,1.753-10.324,5.226-9.588,7.758c0.735,2.532,6.222,3.164,12.253,1.411
			c4.586-1.333,8.152-3.659,9.281-5.812c0.16-0.118,0.34-0.215,0.461-0.372C336.068,132.415,333.336,127.616,328.357,123.786z"/>
		<path fill="#994D26" d="M394.261,52.267c15.415,6.456,17.295,13.677,18.214,22.813C418.058,56.957,414.104,43.076,394.261,52.267z
			 M416.778,62.593c6.188-4.881,12.946-7.845,21.218-5.092C432.011,41.635,418.021,44.65,416.778,62.593z"/>
		<path fill="#330A02" d="M426.015,112.021c-0.361,0.038-0.733-0.056-1.051-0.291c-4.021-3-11.125-3.202-16.529-0.459
			c-0.747,0.392-1.672,0.063-2.043-0.711c-0.371-0.775-0.061-1.716,0.696-2.099c6.444-3.266,14.724-2.963,19.672,0.735
			c0.681,0.506,0.831,1.487,0.335,2.187C426.83,111.758,426.432,111.977,426.015,112.021z"/>
		<path fill="#330A02" d="M353.473,119.66c-0.417,0.043-0.85-0.087-1.182-0.401c-0.622-0.583-0.666-1.574-0.097-2.212
			c4.13-4.652,12.181-6.674,19.127-4.821c0.816,0.217,1.303,1.074,1.09,1.911c-0.211,0.84-1.044,1.34-1.862,1.123
			c-5.828-1.559-12.747,0.119-16.103,3.896C354.183,119.452,353.834,119.622,353.473,119.66z"/>
		<path fill="#C68C75" d="M397.933,155.256c-0.258,0.027-0.503-0.14-0.573-0.405c-0.496-1.879-2.09-2.96-4.06-2.753
			c-1.98,0.209-3.363,1.628-3.441,3.531c-0.013,0.305-0.266,0.543-0.561,0.53c-0.297-0.012-0.527-0.27-0.515-0.575
			c0.099-2.438,1.912-4.324,4.408-4.587c2.483-0.262,4.575,1.17,5.208,3.562c0.077,0.295-0.093,0.599-0.379,0.68L397.933,155.256z"
			/>
		<g>
			<path fill="#5B0000" d="M416.307,164.042c0.938,9.56-7.34,19.418-20.003,20.752c-12.663,1.334-24.756-4.722-25.855-15.923
				c-0.938-9.559,13.323-9.502,26.135-9.309C409.309,159.755,415.369,154.483,416.307,164.042z"/>
			<path fill="#FFFFFF" d="M396.618,159.407c-6.285-0.095-12.899-0.148-17.956,0.914c4.812,4.596,10.929,6.188,18.053,5.855
				c5.112-0.238,12.524-2.724,14.725-8.051C408.169,158.129,403.312,159.508,396.618,159.407z"/>
			<path fill="#E27974" d="M409.703,179.387c-3.163-2.804-7.985-5.032-13.616-5.929c-9.376-1.492-17.763,1.178-20.212,6.083
				c4.996,4.256,12.613,6.243,20.46,5.417C401.689,184.394,406.253,182.312,409.703,179.387z"/>
		</g>
	</g>
	<path fill="#CC37A9" d="M420.869,233.494c0.075-6.154,1.108-22.069-0.331-32.438c4.646,0.974,12.961,3.388,14.626,5.87
		c3.386,4.307,9.749,12.452,13.563,18.997C442.847,233.004,427.412,234.764,420.869,233.494z"/>
	<path fill="#FFC19F" d="M421.158,212.47c-16.03,34.997-48.663,35.829-59.893,18.448c-4.776-7.393-1.197-26.202,6.897-26.202
		c13.76,28.75,23.457,24.163,40.179,6.03C410.442,210.223,421.923,210.8,421.158,212.47z"/>
	<path fill="#CC37A9" d="M389.504,225.109c-4.311-5.058-13.629-9.239-17.894-24.053c-4.646,0.974-10.65,5.581-12.493,10.464
		c-2.833,7.508-0.58,21.612,1.792,30.094C372.169,243.243,382.961,226.379,389.504,225.109z"/>
	<path fill="#F9B28F" d="M442.917,192.192c5.699,12.011,10.101,29.335,10.817,35.947c1.33,12.261-16.425,12.696-18.365,2.592
		c-1.494-7.781-4.062-25.854-5.474-37.496C429.66,191.292,442.067,190.401,442.917,192.192z"/>
	<g>
		<path fill="#FC9B27" d="M414.244,197.308c-1.068,0.092-1.704,1.386-1.235,2.512c1.335,3.2,4.286,5.327,7.491,5.051l27.38-2.35
			c3.205-0.275,5.751-2.874,6.521-6.254c0.271-1.189-0.576-2.356-1.646-2.264L414.244,197.308z"/>
		<path fill="#F05B49" d="M452.865,193.993l-38.445,3.299c-0.584,0.05-1.104-0.387-1.153-0.971
			c-0.051-0.584,0.387-1.104,0.971-1.154l38.444-3.3c0.585-0.05,1.104,0.387,1.154,0.971S453.449,193.943,452.865,193.993z"/>
		<path fill="#90C13E" d="M453.21,187.047c0,0,5.319,3.458,3.742,5.269c-1.578,1.811-2.963,0.624-5.843,0.872
			c-3.833,0.329-2.578,5.287-5.509,3.434s-3.488-1.299-9.021,1.064c-2.172,0.928-1.506-1.945-3.211-2.545
			c-1.704-0.6-2.004,3.465-3.371,3.642c-1.367,0.178-2.678-2.163-4.095-2.148s-3.58,5.533-5.374,3.447
			c-1.793-2.085-1.846-4.616-3.477-4.976c-1.63-0.36-4.307,2.733-6.304,1.837c-1.996-0.895-0.732-3,0.384-4.402
			c1.02-1.281,2.257-2.492,2.257-2.492L453.21,187.047z"/>
		<g>
			
				<ellipse transform="matrix(0.9963 -0.0855 0.0855 0.9963 -14.4945 37.5925)" fill="#F05B49" cx="431.61" cy="188.006" rx="12.561" ry="6.217"/>
			
				<ellipse transform="matrix(0.9963 -0.0855 0.0855 0.9963 -14.4965 37.5983)" fill="#F05B49" cx="431.61" cy="188.006" rx="9.404" ry="4.07"/>
			<path fill="#F6A096" d="M431.162,182.776c-6.296,0.541-11.199,3.32-10.95,6.208c0.247,2.888,5.552,4.792,11.848,4.251
				c6.295-0.541,11.197-3.32,10.949-6.208C442.762,184.139,437.457,182.236,431.162,182.776z M431.481,192.096
				c-0.935,0.06-1.837,0.057-2.689,0l2.151-2.555c0.104,0.045,0.214,0.08,0.327,0.103L431.481,192.096z M430.749,186.572
				l-2.535-2.134c0.808-0.193,1.671-0.344,2.572-0.441l0.21,2.452C430.91,186.483,430.828,186.525,430.749,186.572z
				 M431.739,183.915c0.934-0.06,1.837-0.057,2.689,0.001l-2.151,2.555c-0.104-0.045-0.214-0.08-0.328-0.104L431.739,183.915z
				 M432.472,189.439l2.535,2.135c-0.808,0.193-1.67,0.343-2.572,0.44l-0.211-2.452
				C432.311,189.528,432.394,189.486,432.472,189.439z M435.231,183.988c2.94,0.332,5.134,1.351,5.642,2.743l-7.706,0.661
				c-0.042-0.108-0.095-0.21-0.157-0.306l2.447-2.908L435.231,183.988z M426.948,184.789l3.103,2.613
				c-0.033,0.085-0.06,0.173-0.079,0.265l-7.706,0.662C422.517,186.941,424.327,185.627,426.948,184.789z M422.349,189.281
				l7.705-0.662c0.043,0.108,0.095,0.21,0.157,0.306l-2.572,3.055C424.876,191.609,422.835,190.617,422.349,189.281z
				 M431.957,192.061L431.957,192.061L431.957,192.061z M436.272,191.222l-3.103-2.612c0.033-0.086,0.06-0.174,0.079-0.265
				l7.705-0.661C440.704,189.07,438.894,190.385,436.272,191.222z"/>
		</g>
		<path fill="#661809" d="M450.798,187.58l-35.89,3.081c-1.631,0.14-3.08-1.08-3.221-2.711c-0.14-1.631,1.081-3.08,2.712-3.22
			l35.889-3.08c1.631-0.14,3.08,1.08,3.22,2.711C453.648,185.991,452.429,187.439,450.798,187.58z"/>
		<polygon fill="#FCF287" points="411.346,183.96 410.392,186.362 426.71,187.761 454.068,182.813 450.935,178.74 412.131,182.855 
					"/>
		<polygon fill="#E4DD97" points="424.367,182.508 444.011,186.8 452.63,180.278 449.703,178.879 		"/>
		<polygon fill="#FCF287" points="425.046,181.858 443.9,186.286 451.983,179.733 449.194,178.399 		"/>
		<path fill="#90C13E" d="M411.545,181.624c0,0-2.238,1.885-0.544,2.973c1.692,1.088,0.427,3.116,2.543,2.614
			c2.117-0.501,2.165-2.745,3.542-2.543s1.424,1.682,2.541,1.644c1.116-0.038,1.64-2.322,2.6-2.325s1.482,1.712,2.726,1.605
			c1.243-0.106,1.385-2.185,2.803-2.433c1.419-0.249,2.059,1.616,3.554,1.328c1.495-0.289,1.552-2.098,2.861-1.908
			c1.311,0.19,2.207,1.312,3.153,1.151c0.945-0.161,1.863-1.586,3.137-1.663c1.273-0.076,2.138,1.61,3.17,1.521
			c1.032-0.089,1.36-1.863,2.706-2.025c1.346-0.163,2.342,1.272,3.305,1.269c0.963-0.002,1.854-1.745,2.492-1.767
			c0.638-0.021,2.979,1.173,2.855-0.274c-0.124-1.447-3.073-3.193-3.073-3.193L411.545,181.624z"/>
		<path fill="#FC9B27" d="M452.944,177.791c-0.638-7.432-7.24-12.991-14.672-12.353l-14.796,1.27
			c-7.432,0.638-12.99,7.24-12.353,14.672c0.099,1.147,1.109,1.998,2.256,1.899l37.665-3.233
			C452.192,179.948,453.043,178.938,452.944,177.791z"/>
		<g>
			<path fill="#F8C88E" d="M424.795,172.866c0.04,0.475-0.179,0.574-0.457,0.598s-0.512-0.036-0.552-0.511
				c-0.041-0.475,0.396-1.31,0.396-1.31S424.754,172.391,424.795,172.866z"/>
			<path fill="#F8C88E" d="M432.811,176.604c0.041,0.475-0.178,0.574-0.457,0.598c-0.278,0.024-0.511-0.036-0.552-0.511
				c-0.041-0.475,0.396-1.311,0.396-1.311S432.77,176.129,432.811,176.604z"/>
			<path fill="#F8C88E" d="M416.041,177.399c0.041,0.475-0.178,0.574-0.457,0.598c-0.278,0.024-0.511-0.037-0.552-0.511
				c-0.04-0.475,0.396-1.31,0.396-1.31S416.001,176.924,416.041,177.399z"/>
			<path fill="#F8C88E" d="M430.774,172.353c0.04,0.475-0.179,0.574-0.457,0.598s-0.512-0.036-0.552-0.511
				c-0.041-0.475,0.396-1.31,0.396-1.31S430.733,171.878,430.774,172.353z"/>
			<path fill="#F8C88E" d="M427.403,169.827c0.04,0.475-0.179,0.574-0.457,0.598c-0.279,0.024-0.512-0.036-0.553-0.511
				c-0.04-0.475,0.396-1.311,0.396-1.311S427.362,169.352,427.403,169.827z"/>
			<path fill="#F8C88E" d="M424.75,177.295c0.041,0.475-0.178,0.574-0.457,0.598c-0.278,0.024-0.511-0.036-0.552-0.511
				c-0.04-0.475,0.396-1.311,0.396-1.311S424.71,176.82,424.75,177.295z"/>
			<path fill="#F8C88E" d="M441.056,169.776c0.041,0.475-0.178,0.574-0.457,0.598c-0.278,0.024-0.511-0.036-0.552-0.511
				c-0.041-0.475,0.396-1.311,0.396-1.311S441.015,169.301,441.056,169.776z"/>
			<path fill="#F8C88E" d="M447.118,174.881c0.041,0.475-0.178,0.574-0.456,0.598c-0.279,0.024-0.512-0.037-0.553-0.511
				c-0.04-0.475,0.396-1.311,0.396-1.311S447.078,174.406,447.118,174.881z"/>
			<path fill="#F8C88E" d="M446.186,170.813c0.041,0.475-0.178,0.574-0.457,0.598c-0.278,0.024-0.511-0.036-0.552-0.511
				c-0.041-0.475,0.396-1.31,0.396-1.31S446.145,170.339,446.186,170.813z"/>
			<path fill="#F8C88E" d="M435.287,170.271c0.041,0.475-0.179,0.574-0.457,0.598c-0.278,0.023-0.511-0.036-0.552-0.511
				c-0.04-0.475,0.396-1.311,0.396-1.311S435.246,169.796,435.287,170.271z"/>
			<path fill="#F8C88E" d="M418.75,172.608c0.04,0.475-0.18,0.573-0.457,0.597c-0.279,0.024-0.512-0.036-0.553-0.511
				c-0.041-0.475,0.396-1.31,0.396-1.31S418.709,172.133,418.75,172.608z"/>
			<path fill="#F8C88E" d="M440.803,174.144c0.04,0.475-0.178,0.573-0.457,0.598c-0.278,0.024-0.511-0.037-0.552-0.511
				s0.396-1.31,0.396-1.31S440.762,173.668,440.803,174.144z"/>
		</g>
		<path fill="#E87E15" d="M412.364,174.483c-0.983,2.086-1.45,4.445-1.24,6.896c0.099,1.147,1.109,1.998,2.256,1.899l37.665-3.233
			c0.871-0.074,1.569-0.674,1.812-1.46C430.887,180.384,418.9,177.79,412.364,174.483z"/>
	</g>
	<path fill="#FFC19F" d="M431.312,185.803c-1.85,2.001-7.295,3.749-9.049,6.132c0,0-0.08,0.176-0.103,0.305
		c5.025-2.658,10.288-3.065,14.735-4.386c4.417,4.585-4.654,5.476-12.633,8.859c5.134-1.333,8.738-1.616,12.206-2.689
		c3.641,0.812,3.586,3.051,0.26,4.467c-2.57,1.094-7.491,2.265-12.191,4.131c-0.315,0.332,11.146-1.384,13.254,0.139
		c0.362,1.242-1.084,3.083-4.592,3.613c-1.897,0.287-4.091,0.221-8.15,1.368c-2.785,2.15-4.313,5.428-5.221,6.62
		c-3.772,3.9-9.767-0.844-10.591-2.118c-2.141-3.308-0.142-13.399,2.771-16.907c4.884-5.879,7.181-8.967,18.549-12.737
		C432.978,182.618,432.214,184.829,431.312,185.803z"/>
</g>
</svg>
