
<svg version="1.1" id="Layer_1" xmlns="http://www.w3.org/2000/svg" xmlns:xlink="http://www.w3.org/1999/xlink" viewBox="0 0 768 430" enable-background="new 0 0 768 430" xml:space="preserve">
<path fill="#D5AD9F" d="M401.518,140.088c0,0,2.878,5.496,0.782,9.422c-3.655,6.858-5.617,7.817-12.562,7.065
	c-9.683-1.046-14.132-4.972-18.843-11.252c-4.711-6.282-7.591-10.208-7.591-10.208l3.141-2.878c0,0,19.772-15.224,26.577-14.439
	c6.808,0.785,5.905,15.292,8.493,22.29H401.518z"/>
<radialGradient id="SVGID_1_" cx="597.7031" cy="-400.9233" r="48.6502" gradientTransform="matrix(-0.0501 0.2774 0.712 0.1286 697.6723 31.6279)" gradientUnits="userSpaceOnUse">
	<stop  offset="0" style="stop-color:#FFD5D5"/>
	<stop  offset="1" style="stop-color:#FFD5D5;stop-opacity:0"/>
</radialGradient>
<path fill="url(#SVGID_1_)" d="M400.997,123.767c0,0,2.36,21.299,0.269,25.225c-3.658,6.859-5.62,7.818-12.563,7.067
	c-9.686-1.047-14.134-4.972-18.845-11.254c-4.711-6.282-7.59-10.208-7.59-10.208l3.141-2.879c0,0,8.114-2.01,14.919-1.225
	s20.933-6.99,20.67-6.729V123.767z"/>
<path opacity="0.99" enable-background="new    " d="M449.854,275.881c0,15.129-27.679,27.393-61.815,27.393
	c-34.138,0-61.812-12.264-61.812-27.393c0-15.125,27.675-27.389,61.812-27.389C422.175,248.492,449.854,260.756,449.854,275.881z"/>
<path fill="#FF007F" d="M401.359,138.192c0,0,5.187,17.573-10.176,17.58c-15.367,0.006-17.754-8.606-27.945-20.587
	c0,0-5.197,0.176-8.145,1.896c-2.219,1.295-1.516-0.784-4.072,0.555c-2.556,1.338-2.959,3.886-2.959,3.886s-1.033-1.445-5.182,0.185
	c-4.194,3.188-6.25,8.673-8.882,13.511c-1.667,3.7-0.741,16.1-0.741,16.1s0.483-3.12,6.664-5.552
	c5.747-2.26,13.323,2.592,15.173,7.403c1.853,4.811,0.373,10.92,0.373,10.92l-23.69,16.655c-0.27,17.141-6.327,33.269-8.883,49.966
	c0,0-2.22,15.918,0.372,20.727c2.591,4.812,13.336,17.789,21.466,16.287c8.131-1.504,7.034-5.924,7.034-5.924
	c7.333-12.291,8.581-24.947,11.843-37.381c10.495-9.824,25.927-16.707,40.345-15.547c-1.037,2.443,9.698,5.555,9.698,5.555
	s8.808-14.436,9.548-18.879c0.741-4.442-2.96-37.381-3.331-39.233c-0.369-1.85,5.182-6.292,5.182-6.292s0.74-5.181,0.74-6.663
	c0-1.479,4.072-5.552,1.113-10.734c-2.963-5.181-14.991-16.839-21.469-17.025l-4.072,2.59L401.359,138.192z"/>
<radialGradient id="SVGID_2_" cx="306.6611" cy="-650.8301" r="82.709" gradientTransform="matrix(0.5504 -0.2974 -0.0894 -0.1654 137.0354 218.64)" gradientUnits="userSpaceOnUse">
	<stop  offset="0" style="stop-color:#D40000"/>
	<stop  offset="1" style="stop-color:#D40000;stop-opacity:0"/>
</radialGradient>
<path fill="url(#SVGID_2_)" d="M411.413,231.619c-1.11,0-12.955-4.256-20.913-3.146c-7.956,1.111-21.283,6.295-21.283,6.295
	s-15.359,7.215-14.436,6.846c0.927-0.373,17.211-12.586,19.433-12.955c2.222-0.371-16.841,1.109-19.06,1.852
	c-2.222,0.74,16.469-8.883,19.8-9.996c3.329-1.109-9.253,0.373-9.253,0.373l19.062-4.998c0,0,21.465-5.367,25.723-5.367
	c4.256,0,11.473,0.741,11.473,0.741l0.37,4.441l-10.919,15.915H411.413z"/>
<g>
	<path fill="#D40000" d="M350.289,240.533c0,0-7.772,3.885-8.328,5.736c-0.555,1.852-5.367,10.547-5.367,10.547
		s9.254-4.627,10.363-7.217C348.07,247.008,350.472,241.457,350.289,240.533L350.289,240.533z"/>
	<path fill="#D40000" d="M351.398,217.949c-5.736,6.848-14.064,14.252-16.1,16.654c-2.036,2.408-8.885,13.326-8.885,13.326
		s7.959-8.328,11.29-11.846c3.332-3.516,6.292-6.291,9.438-9.992C350.289,222.392,351.953,218.135,351.398,217.949L351.398,217.949z
		"/>
</g>
<path fill="#0066FF" d="M439.116,262.182l-11.477,5.551l-17.024-32.941l9.252-10.363c0,0,28.5-5.553,37.382-4.072
	c8.886,1.481,12.217,4.072,12.217,4.072l-3.331,26.648l-25.54,11.105h-1.481H439.116z"/>
<radialGradient id="SVGID_3_" cx="435.04" cy="-955.3857" r="73.2872" gradientTransform="matrix(0.399 -0.6166 -0.2787 -0.1804 -12.9912 360.6795)" gradientUnits="userSpaceOnUse">
	<stop  offset="0" style="stop-color:#0044AA"/>
	<stop  offset="1" style="stop-color:#0044AA;stop-opacity:0"/>
</radialGradient>
<path fill="url(#SVGID_3_)" d="M439.116,262.182l-11.477,5.551l-17.024-32.941l9.252-10.363c0,0,28.5-5.553,37.382-4.072
	c8.886,1.481,12.217,4.072,12.217,4.072l-3.331,26.648l-25.54,11.105h-1.481H439.116z"/>
<path opacity="0.99" enable-background="new    " d="M387.121,335.596c0.09,12.141-11.086,22.049-24.963,22.125
	c-13.876,0.076-25.198-9.701-25.287-21.842c0-0.094,0-0.188,0-0.283c-0.089-12.139,11.089-22.047,24.965-22.123
	c13.876-0.078,25.196,9.703,25.285,21.842C387.121,335.408,387.121,335.502,387.121,335.596z"/>
<path opacity="0.99" fill="#1A1A1A" enable-background="new    " d="M531.549,356.273c0.007,23.822-19.062,43.141-42.595,43.15
	c-23.533,0.01-42.618-19.293-42.629-43.117c0-0.01,0-0.025,0-0.033c-0.009-23.824,19.061-43.143,42.595-43.152
	c23.533-0.01,42.619,19.293,42.629,43.117C531.549,356.248,531.549,356.26,531.549,356.273z"/>
<path opacity="0.99" fill="#333333" enable-background="new    " d="M519.506,358.365c0,21.799-16.15,39.471-36.069,39.471
	c-19.921,0-36.068-17.672-36.068-39.471s16.147-39.471,36.068-39.471C503.355,318.895,519.506,336.566,519.506,358.365
	L519.506,358.365z"/>
<path opacity="0.99" fill="#999999" enable-background="new    " d="M506.986,357.578c0.086,15.031-10.624,27.297-23.922,27.396
	c-13.297,0.098-24.148-12.01-24.234-27.043c0-0.119,0-0.234,0-0.354c-0.087-15.033,10.62-27.301,23.922-27.396
	c13.297-0.096,24.146,12.008,24.234,27.041C506.986,357.342,506.986,357.461,506.986,357.578z"/>
<g>
	<path opacity="0.99" fill="#808080" enable-background="new    " d="M487.969,358.605c0,4.188-2.444,7.584-5.459,7.584
		c-3.018,0-5.459-3.396-5.459-7.584l0,0c0-4.191,2.441-7.59,5.459-7.59C485.524,351.016,487.969,354.414,487.969,358.605z"/>
	<path opacity="0.99" fill="#808080" enable-background="new    " d="M483.347,358.418c0,2.555-1.327,4.627-2.963,4.627
		c-1.635,0-2.959-2.072-2.959-4.627l0,0c0-2.557,1.324-4.629,2.959-4.629C482.02,353.789,483.347,355.861,483.347,358.418z"/>
</g>
<g>
	<path fill="#FFAAD4" d="M437.114,259.953l-22.771-32.191c0,0-16.676-1.73-21.461-5.234c-1.693-1.24-1.367-5.897,1.513-7.577
		c2.881-1.681,15.236-0.799,15.236-0.799c9.666-0.506,25.127,19.891,37.165,23.555c12.019,3.658,19.89,3.926,20.938-5.496
		c1.048-9.424,2.618-22.246,2.618-22.246s11.83-6.014,15.179-5.235c2.655,0.618,7.233,4.639,3.141,6.806l-8.897,4.71
		c0,0,9.289,30.524,4.712,40.829C476.35,274.809,445.404,271.674,437.114,259.953L437.114,259.953z"/>
	<path fill="#FFAAD4" d="M442.091,246.607l-28.269-21.465c0,0,6.283-1.569,10.994,2.619
		C429.527,231.947,444.184,247.652,442.091,246.607L442.091,246.607z"/>
	<path fill="#FFAAD4" d="M488.145,301.303c-11.134-4.205-20.096,2.814-17.797,14.656c1.57,4.189,12.001,26.234,12.563,40.307
		c0.178,4.52-2.363,13.086-6.281,13.871c-9.804,1.969-12.563-14.92-12.563-14.92s-13.349-49.727-15.968-65.426
		c-2.07-12.436-4.186-25.912-4.186-25.912s-1.307-8.637,6.02-5.496c7.329,3.141,9.948,6.807,18.321,6.807
		c8.376,0,15.702-9.424,15.702-9.424s3.666,0,7.329,12.039c3.664,12.039,16.995,49.832,16.995,49.832l-13.06-4.062
		c-0.75-5.5-3.338-9.838-7.076-12.27V301.303z"/>
	<path fill="#FFAAD4" d="M470.09,355.742c0,0-21.627-70.686-22.506-81.131c-0.595-7.062-0.946-13.188-0.262-13.871
		c3.685-3.691,3.765,13.912,4.973,20.676c1.149,6.439,18.319,57.051,18.319,59.146s3.666,14.66,3.141,16.75
		c-0.521,2.096-3.141-1.045-3.662-1.57H470.09z"/>
</g>
<path fill="#00FFFF" d="M482.394,342.924c-16.629,10.715-27.215,15.875-46.588,21.982c-6.229-0.115-5.645-13.33-6.804-18.318
	c10.123-12.383,22.098-23.646,37.165-19.891c6.281,2.092,13.073-1.662,17.797,3.662C487.651,334.516,483.964,339.26,482.394,342.924
	L482.394,342.924z"/>
<path fill="#AAFFFF" d="M483.191,331.699c-4.711,0.523-10.208,1.309-13.869,6.02c-3.666,4.711-9.423,8.898-9.423,8.898
	s-5.236-0.01-7.328,1.322c-1.529,0.971-3.142,4.438-3.142,4.438s-6.847-1.713-9.945-0.523c-2.533,0.971-3.063,6.092-5.756,5.756
	l-4.189-0.521c0,0,0.098,1.939,1.049,3.141c1.895,2.389,2.092,2.617,10.992-0.523c8.897-3.141,32.516-9.238,40.003-19.711
	c2.314-3.24,1.214-5.012,1.61-8.295H483.191z"/>
<path fill="#808080" d="M478.715,351.754l-23.318,12.215l-1.853-9.623l24.799-11.846L478.715,351.754L478.715,351.754z"/>
<path fill="#666666" d="M453.926,354.156l-13.695,6.85l1.851,4.812l13.14-2.037L453.926,354.156L453.926,354.156z"/>
<radialGradient id="SVGID_4_" cx="520.4434" cy="-739.9473" r="16.5947" gradientTransform="matrix(-0.5353 -2.6207 -1.3603 0.2778 -215.1554 1944.7118)" gradientUnits="userSpaceOnUse">
	<stop  offset="0" style="stop-color:#808080"/>
	<stop  offset="1" style="stop-color:#808080;stop-opacity:0"/>
</radialGradient>
<path fill="url(#SVGID_4_)" d="M504.074,331.762c11.644,19.551,12.046,25.738,7.956,46.08c0,0,9.36-17.838,3.889-30.906
	c-3.592-8.568-5.922-11.104-11.845-15.176V331.762z"/>
<radialGradient id="SVGID_5_" cx="729.3086" cy="-1226.3066" r="72.012" gradientTransform="matrix(0.7221 0.3908 0.0985 -0.182 45.3187 -140.1794)" gradientUnits="userSpaceOnUse">
	<stop  offset="0" style="stop-color:#B3B3B3"/>
	<stop  offset="1" style="stop-color:#B3B3B3;stop-opacity:0"/>
</radialGradient>
<path fill="url(#SVGID_5_)" d="M509.627,383.404c0,0-8.142,10.918-17.21,11.846c-21.623,4.994-38.244-10.662-41.638-28.871
	c0,0,12.028,18.691,14.803,18.508c2.779-0.188,1.112-4.629,1.112-4.629s7.798,4.965,14.988,5.922
	c11.104,1.48,18.693-5.922,18.693-5.922C496.425,385.832,506.789,385.896,509.627,383.404L509.627,383.404z"/>
<path d="M483.533,398.203c21.694-1.016,32.66-11.898,39.604-37.939c0,0-0.419,11.307,1.109,9.439
	c1.665-2.037,5.923-6.105,5.923-6.105s-4.072,16.469-12.028,23.686c-2.776,2.518-12.955,9.438-20.541,10.365
	c-3.354,0.408-14.253,1.109-14.064,0.555H483.533z"/>
<radialGradient id="SVGID_6_" cx="492.166" cy="-1221.6294" r="30.8011" gradientTransform="matrix(0.7331 -0.6429 -0.2298 -0.262 -185.3519 358.6619)" gradientUnits="userSpaceOnUse">
	<stop  offset="0" style="stop-color:#808080"/>
	<stop  offset="1" style="stop-color:#808080;stop-opacity:0"/>
</radialGradient>
<path fill="url(#SVGID_6_)" d="M478.715,351.754l-23.318,12.215l-1.853-9.623l24.799-11.846L478.715,351.754L478.715,351.754z"/>
<radialGradient id="SVGID_7_" cx="760.8652" cy="-737.3799" r="37.8212" gradientTransform="matrix(0.778 0.641 0.2474 -0.3002 89.3025 -392.4236)" gradientUnits="userSpaceOnUse">
	<stop  offset="0" style="stop-color:#999999"/>
	<stop  offset="1" style="stop-color:#999999;stop-opacity:0"/>
</radialGradient>
<path fill="url(#SVGID_7_)" d="M528.314,345.463c0,0-11.019-16.576-14.619-19.432c-7.588-6.016-16.286-9.996-16.286-9.996
	C513.222,319.697,523.771,327.326,528.314,345.463L528.314,345.463z"/>
<path fill="#FFAAD4" d="M455.427,263.094c11.102,6.92,17.712,3.9,27.479-3.141C481.866,276.637,463.562,270.025,455.427,263.094z"/>
<path fill="#2D1650" d="M494.953,313.555h-7.326c0,0,1.309-7.801-4.188-9.895c-5.496-2.096-10.837,0.053-10.837,0.053
	s3.245-2.93,5.341-3.455C493.024,297.293,495.387,308.922,494.953,313.555L494.953,313.555z"/>
<path fill="#00FFFF" d="M517.526,324.32l22.625-10.316c0,0-8.875,0-15.907-0.371c-7.033-0.371-11.845-2.961-11.845-2.961
	l-5.534,2.908l1.652,4.309l9.007,6.432H517.526z"/>
<path fill="#FFFFFF" d="M527.422,339.037c0,0,6.445-5.424,10.147-8.756c3.702-3.33,5.681-8.434,5.571-10.449
	c-0.111-2.018-2.979-5.836-2.979-5.836l-22.979,9.861c0,0,5.807,6.529,6.918,8.012C525.21,333.348,527.422,338.297,527.422,339.037
	L527.422,339.037z"/>
<g>
	<path fill="#FFAAD4" d="M444.701,269.115c0,0-37.69,19.891-49.202,23.553c-25.796,8.193-47.018,0.684-67.525-14.656
		c0,0-12.561,6.283-12.041,12.041c19.41,4.918,20.941,42.287,41.353,53.914c10.471,3.662,38.213,5.756,52.346,2.615
		c14.132-3.141,42.396-37.688,42.396-37.688l-7.327-39.783V269.115z"/>
	<path fill="#FFAAD4" d="M355.471,343.607c-16.284-2.961-35.532-2.961-36.642-10.732c-8.251-22.209-9.958-31.387-2.222-45.527
		c0,0,8.513,4.811,12.216,11.846c3.701,7.031,15.915,34.049,19.247,37.01C351.398,339.166,356.211,343.977,355.471,343.607
		L355.471,343.607z"/>
</g>
<path opacity="0.99" fill="#1A1A1A" enable-background="new    " d="M339.489,335.855c0,16.334-12.652,29.576-28.265,29.576
	s-28.265-13.242-28.265-29.576c0-16.332,12.652-29.574,28.265-29.574S339.489,319.521,339.489,335.855z"/>
<path opacity="0.99" fill="#333333" enable-background="new    " d="M321.779,336.809c0,16.146-11.231,29.238-25.079,29.238
	c-13.852,0-25.08-13.092-25.08-29.238s11.228-29.234,25.08-29.234C310.548,307.574,321.779,320.662,321.779,336.809z"/>
<path opacity="0.99" fill="#666666" enable-background="new    " d="M296.618,336.996c0,3.611-2.697,6.545-6.021,6.545
	c-3.324,0-6.019-2.934-6.019-6.545c0-3.613,2.695-6.545,6.019-6.545C293.92,330.451,296.618,333.383,296.618,336.996z"/>
<radialGradient id="SVGID_8_" cx="122.9961" cy="-404.0205" r="21.2893" gradientTransform="matrix(-0.765 -1.2345 -0.5616 0.348 307.5136 1091.313)" gradientUnits="userSpaceOnUse">
	<stop  offset="0" style="stop-color:#4D4D4D"/>
	<stop  offset="1" style="stop-color:#4D4D4D;stop-opacity:0"/>
</radialGradient>
<path fill="url(#SVGID_8_)" d="M301.423,309.926c8.885,4.812,17.399,16.656,17.399,18.506v9.625c0,0-9.254-17.027-10.735-19.99
	c-1.479-2.959-6.292-7.029-6.661-8.141H301.423z"/>
<path fill="#007F7F" d="M459.469,326.217c0,0-8.514,0.555-14.805,5.182c-7.181,5.281-15.553,15.541-15.553,15.541
	s-18.528-29.729-27.752-50.332c-3.635-8.117-10.733-24.428-10.733-24.428s-3.009,7.426-11.845,11.844
	c-10.364,5.182-27.019-2.219-27.019-2.219s6.943-21.342,8.424-25.785c1.479-4.439,0.827-14.191,10.454-19.373
	c9.623-5.182,15.545-8.141,26.647-8.141c11.104,0,22.58,8.51,23.872,14.062c1.18,5.047,7.035,24.43,7.035,24.43L459.469,326.217
	L459.469,326.217z"/>
<radialGradient id="SVGID_9_" cx="-80.5083" cy="-280.1963" r="45.7448" gradientTransform="matrix(0.0033 -0.2957 -0.3262 -0.0036 280.6424 259.1661)" gradientUnits="userSpaceOnUse">
	<stop  offset="0" style="stop-color:#5599FF"/>
	<stop  offset="1" style="stop-color:#5599FF;stop-opacity:0"/>
</radialGradient>
<path fill="url(#SVGID_9_)" d="M390.624,271.064l-1.851-12.955l-4.441-2.59l-0.371,7.771l-6.292-2.963
	c0,0,5.182,14.064,0.371,11.846c-4.812-2.223-11.104-9.994-11.104-9.994l-6.663,8.514l-0.37-5.182l-6.663,15.174
	c0,0,1.581,2.969,12.215,4.443c12.03,1.664,19.617-5.926,19.617-5.926L390.624,271.064L390.624,271.064z"/>
<path fill="#0044AA" d="M425.052,262.182l-5.923-20.359l0.74,12.586l5.183,9.256V262.182z"/>
<radialGradient id="SVGID_10_" cx="291.876" cy="-764.4351" r="61.5985" gradientTransform="matrix(0.1911 -0.5098 -0.6696 -0.2509 -163.1636 260.6877)" gradientUnits="userSpaceOnUse">
	<stop  offset="0" style="stop-color:#5599FF"/>
	<stop  offset="1" style="stop-color:#5599FF;stop-opacity:0"/>
</radialGradient>
<path fill="url(#SVGID_10_)" d="M441.333,331.027c-7.773,6.662-12.584,12.582-12.584,12.582l-19.988-34.791l-17.766-37.754
	l6.663-15.543l3.701,20.357l6.292-4.443l-2.592,14.436l7.772-5.924l-0.74,21.84l5.923-0.371l0.74,13.324l6.661-3.703l4.443,21.1
	L441.333,331.027L441.333,331.027z"/>
<radialGradient id="SVGID_11_" cx="463.4404" cy="165.5234" r="72.9745" gradientTransform="matrix(-0.7526 0.2224 0.0589 0.1995 769.8929 193.7631)" gradientUnits="userSpaceOnUse">
	<stop  offset="0" style="stop-color:#442178"/>
	<stop  offset="1" style="stop-color:#633F97;stop-opacity:0"/>
</radialGradient>
<path fill="url(#SVGID_11_)" d="M422.191,336.645l-13.087-21.984c0,0,6.282,16.748-7.85,19.365
	c-14.134,2.619-31.933,5.76-37.164,3.664c-5.236-2.094,3.663,7.33,15.704,7.33c12.038,0,27.216-1.57,30.357-2.094
	C413.293,342.4,421.145,337.689,422.191,336.645L422.191,336.645z"/>
<path fill="#E0B6A8" d="M424.813,169.407l6.805,13.872c0,0,2.615-2.619,12.562,3.14c9.944,5.757,24.863,11.516,24.863,11.516
	s3.402,2.879,6.02,1.309c2.615-1.569,8.838-5.294,10.993-3.14c2.965,2.966,7.292,5.022,8.896,8.898
	c1.104,2.66,0.059,6.633-1.572,8.081c-1.627,1.447-6.279,3.696-6.279,3.696s-2.615-3.141,0-4.187
	c2.619-1.046,3.077-4.711,3.077-4.711l-5.17-3.141c0,0-1.172-0.322-5.357,1.249c-4.625,1.733-9.822,4.509-9.822,4.509
	s-6.281,0-14.655-1.046c-8.377-1.046-28.268-6.282-28.268-6.282l-4.186-2.617l-3.141-25.649L424.813,169.407L424.813,169.407z"/>
<radialGradient id="SVGID_12_" cx="616.5879" cy="-653.8086" r="29.8102" gradientTransform="matrix(0.7858 0.1888 0.0887 -0.3692 -0.2528 -164.6916)" gradientUnits="userSpaceOnUse">
	<stop  offset="0" style="stop-color:#CE917D"/>
	<stop  offset="1" style="stop-color:#CE917D;stop-opacity:0"/>
</radialGradient>
<path fill="url(#SVGID_12_)" d="M433.446,183.926c-8.376-0.523-11.123,12.039-7.327,16.226c2.534,2.797,10.859,4.319,10.859,4.319
	l12.694,2.093c0,0-5.888-1.178-5.106-7.458c0.789-6.282-1.175-6.806-3.007-11.646C440.299,184.13,436.979,184.057,433.446,183.926
	L433.446,183.926z"/>
<radialGradient id="SVGID_13_" cx="473.9707" cy="-591.8457" r="13.2916" gradientTransform="matrix(0.1231 -1.8706 -0.953 -0.0627 -196.6761 1045.6028)" gradientUnits="userSpaceOnUse">
	<stop  offset="0" style="stop-color:#FFD5D5"/>
	<stop  offset="1" style="stop-color:#FFD5D5;stop-opacity:0"/>
</radialGradient>
<path fill="url(#SVGID_13_)" d="M424.677,170.713l6.413,13.217c-5.085,1.94-6.202,7.349-7.066,12.169l-3.794-21.46L424.677,170.713
	L424.677,170.713z"/>
<path fill="#E9AFAF" d="M357.284,182.227c0-4.187-1.045-13.086-9.422-16.227c-8.375-3.139-14.654,2.619-14.654,5.758
	c0,3.141-5.759,16.226-5.759,19.367s4.711,10.993,10.993,14.657c6.279,3.665,24.079,7.852,31.931,9.422
	c7.852,1.57,14.653,0,14.653,0l6.679,6.064c0,0-0.119-7.073,4.314-7.016c3.775,0.049,5.026,4.417,4.711,6.278
	c-0.312,1.862-2.986,4.126-2.986,4.126l5.293,1.458c0,0,8.929-1.512,12.873-3.583c2.415-1.263,4.603-3.079,4.894-5.788
	c-0.094-6.755-6.388-9.7-12.221-10.437l-18.32-1.049l-35.593-18.319L357.284,182.227L357.284,182.227z"/>
<radialGradient id="SVGID_14_" cx="355.7539" cy="-289.6675" r="66.1772" gradientTransform="matrix(-0.6036 -0.3404 -0.1013 0.1796 555.2532 382.582)" gradientUnits="userSpaceOnUse">
	<stop  offset="0" style="stop-color:#EFC5C5"/>
	<stop  offset="1" style="stop-color:#EFC5C5;stop-opacity:0"/>
</radialGradient>
<path fill="url(#SVGID_14_)" d="M330.069,196.881c3.141-7.329,5.234-11.516,14.134-9.421c8.897,2.092,23.031,10.993,31.406,14.656
	c8.376,3.664,8.376,5.758,8.376,5.758l-1.57,5.233c0,0-1.048,2.094-12.041,0.524s-27.011-6.693-29.835-7.852
	C333.108,202.729,329.022,196.356,330.069,196.881L330.069,196.881z"/>
<radialGradient id="SVGID_15_" cx="247.8457" cy="-92.8745" r="7.0159" gradientTransform="matrix(0.0987 -1.2927 -0.7552 -0.0577 235.7449 508.5159)" gradientUnits="userSpaceOnUse">
	<stop  offset="0" style="stop-color:#CB8585"/>
	<stop  offset="1" style="stop-color:#CB8585;stop-opacity:0"/>
</radialGradient>
<path fill="url(#SVGID_15_)" d="M330.112,195.005c0,0-2.477-3.183-1.853-4.811c0.926-2.407,1.667-4.443,1.667-4.443
	s2.405-0.739,3.703-1.295c1.293-0.555-2.591,3.701-2.779,5.552C330.667,191.859,329.926,195.375,330.112,195.005L330.112,195.005z"
	/>
<path fill="#CA8B8B" d="M391.464,220.633c-0.555-2.589,1.85-6.662,1.85-6.662s-4.35-0.277-5.087,0.648
	c-0.743,0.925-0.743,2.777-0.743,2.777L391.464,220.633z"/>
<path fill="#005DE9" d="M390.262,270.162c-4.711-6.281-8.377-19.893-8.377-19.893s-0.521,9.945,1.57,12.041
	C385.551,264.402,391.308,271.732,390.262,270.162L390.262,270.162z"/>
<radialGradient id="SVGID_16_" cx="135.4839" cy="-258.7676" r="28.0826" gradientTransform="matrix(-0.0231 -0.4136 -0.4086 4.098565e-07 303.2303 300.6024)" gradientUnits="userSpaceOnUse">
	<stop  offset="0" style="stop-color:#80B3FF"/>
	<stop  offset="1" style="stop-color:#80B3FF;stop-opacity:0"/>
</radialGradient>
<path opacity="0.99" fill="url(#SVGID_16_)" enable-background="new    " d="M417.311,245.66c0,7.055-6.794,12.771-15.176,12.771
	c-8.38,0-15.177-5.717-15.177-12.771c0-7.049,6.797-12.766,15.177-12.766C410.517,232.895,417.311,238.611,417.311,245.66z"/>
<path fill="none" d="M331.999,201.244"/>
<radialGradient id="SVGID_17_" cx="491.5205" cy="-53.5044" r="42.9209" gradientTransform="matrix(0.0561 0.4269 0.1805 -0.0237 314.8424 -7.9918)" gradientUnits="userSpaceOnUse">
	<stop  offset="0" style="stop-color:#E61111"/>
	<stop  offset="1" style="stop-color:#E61111;stop-opacity:0"/>
</radialGradient>
<path fill="url(#SVGID_17_)" d="M332.183,201.244c0,0,8.139,9.007,27.762,12.4c19.622,3.39-13.024,3.36-19.247,3.146
	c-3.277-0.113-9.625-2.036-9.625-2.036l1.112-13.509H332.183z"/>
<path fill="#D28F8F" d="M333.666,171.272l0.26-2.486c0,0,1.57-2.878,4.057-3.926c7.971-4.062,17.584,2.379,17.8,8.506
	c0,0-4.711-5.889-9.422-6.281C340.993,165.369,336.725,167.511,333.666,171.272L333.666,171.272z"/>
<radialGradient id="SVGID_18_" cx="276.6807" cy="-313.9351" r="24.0189" gradientTransform="matrix(0.5393 -0.3759 -0.1153 -0.1655 149.7607 218.9493)" gradientUnits="userSpaceOnUse">
	<stop  offset="0" style="stop-color:#C11010"/>
	<stop  offset="1" style="stop-color:#C11010;stop-opacity:0"/>
</radialGradient>
<path fill="url(#SVGID_18_)" d="M334.66,167.542l-0.129-9.684c0,0,7.6,1.322,11.253,3.664l8.375,5.365
	c-3.614-2.689-9.07-3.002-13.871-2.748c-3.532,1.047-5.103,3.533-5.625,3.403H334.66z"/>
<radialGradient id="SVGID_19_" cx="521.4277" cy="-97.5928" r="26.267" gradientTransform="matrix(0.7467 1.9443 0.9799 -0.3763 193.1817 -786.1936)" gradientUnits="userSpaceOnUse">
	<stop  offset="0" style="stop-color:#6A3BB0"/>
	<stop  offset="1" style="stop-color:#6A3BB0;stop-opacity:0"/>
</radialGradient>
<path fill="url(#SVGID_19_)" d="M485.045,260.285c0,5.553,14.806,52.928,14.806,52.928l6.663,2.219c0,0-15.545-47.375-17.767-50.338
	C486.527,262.135,485.045,261.023,485.045,260.285L485.045,260.285z"/>
<radialGradient id="SVGID_20_" cx="405.46" cy="-157.4839" r="9.4626" gradientTransform="matrix(-0.4771 -2.8941 -2.1352 0.352 339.1647 1484.1904)" gradientUnits="userSpaceOnUse">
	<stop  offset="0" style="stop-color:#6E3DB7"/>
	<stop  offset="1" style="stop-color:#6E3DB7;stop-opacity:0"/>
</radialGradient>
<path fill="url(#SVGID_20_)" d="M484.86,251.402c1.109-6.105-1.667-17.027-2.776-21.283c-1.109-4.254-2.405-12.027-2.405-12.027
	s1.479,15.361,1.664,17.766c0.187,2.406,1.851,11.66,0.926,15.732c-0.926,4.07-4.071,7.029-4.812,7.402
	c-0.739,0.371,4.305-1.055,5.182-1.852C484.674,255.291,485.229,251.402,484.86,251.402L484.86,251.402z"/>
<path fill="#8454CD" d="M489.118,211.059c3.517-3.516-1.571-6.293-2.683-6.663c-1.112-0.371-7.404,2.497-7.404,2.497
	s3.241-1.017,5.276,0.834c2.036,1.85,0.555,4.07,0.555,4.07s-2.776,2.961-2.035,2.592
	C483.566,214.018,489.118,211.059,489.118,211.059L489.118,211.059z"/>
<radialGradient id="SVGID_21_" cx="477.8467" cy="16.7876" r="4.4801" gradientTransform="matrix(0.0664 1.9204 0.969 -0.0335 423.3522 -716.4866)" gradientUnits="userSpaceOnUse">
	<stop  offset="0" style="stop-color:#BD9284"/>
	<stop  offset="1" style="stop-color:#BD9284;stop-opacity:0"/>
</radialGradient>
<path fill="url(#SVGID_21_)" d="M473.48,201.338c-2.404,5.828-2.776,7.864-2.776,7.864s-0.276-6.107-0.832-7.864
	C469.317,199.579,473.295,201.152,473.48,201.338L473.48,201.338z"/>
<path fill="#FFAAD4" d="M451.416,308.58c0,0-4.764-19.42-6.229-26.016s-1.1-13.189-1.1-13.189l-11.724,5.127l11.724,20.887
	L451.416,308.58L451.416,308.58z"/>
<path fill="#6235A4" d="M481.638,360.605c-0.55,4.029-2.749,8.426-6.229,8.977c-3.479,0.549-5.862-1.465-6.963-4.582
	C471.189,366.869,477.322,366.061,481.638,360.605L481.638,360.605z"/>
<radialGradient id="SVGID_22_" cx="384.4268" cy="-789.8813" r="30.2663" gradientTransform="matrix(0.7688 -0.5993 -0.2103 -0.2697 -6.1614 378.8247)" gradientUnits="userSpaceOnUse">
	<stop  offset="0" style="stop-color:#B3B3B3"/>
	<stop  offset="1" style="stop-color:#B3B3B3;stop-opacity:0"/>
</radialGradient>
<path fill="url(#SVGID_22_)" d="M478.715,351.631l-0.366-8.246l-24.366,11.359l1.464,9.344L478.715,351.631L478.715,351.631z"/>
<linearGradient id="SVGID_23_" gradientUnits="userSpaceOnUse" x1="22.8086" y1="384.627" x2="25.2542" y2="384.627" gradientTransform="matrix(4.0448 0 0 -3.8282 367.0284 1836.5995)">
	<stop  offset="0" style="stop-color:#4D4D4D"/>
	<stop  offset="1" style="stop-color:#4D4D4D;stop-opacity:0"/>
</linearGradient>
<path fill="url(#SVGID_23_)" d="M465.148,359.328l-6.229,3.484l2.199,6.227c0,0-0.732-1.467,1.833-3.113
	c2.564-1.65,6.227,0.729,6.227,0.729s-1.282-0.363-2.383-2.928C465.695,361.162,465.331,359.328,465.148,359.328z"/>
<linearGradient id="SVGID_24_" gradientUnits="userSpaceOnUse" x1="15.8467" y1="387.0947" x2="18.2006" y2="387.9551" gradientTransform="matrix(5.2005 0 0 -4.0448 359.3021 1928.141)">
	<stop  offset="0" style="stop-color:#333333"/>
	<stop  offset="1" style="stop-color:#333333;stop-opacity:0"/>
</linearGradient>
<path fill="url(#SVGID_24_)" d="M453.975,363.172l-0.916-8.242l-12.273,6.412l1.283,3.848L453.975,363.172L453.975,363.172z"/>
<path fill="#00FFFF" d="M482.56,332.395c-5.141-5.652-10.04-3.221-19.236-4.947c-2.566-0.916-8.063,0.732-10.626,2.197
	c-2.567,1.467-8.977,5.5-8.977,5.5c3.938-2.9,19.171-4.521,20.151,2.014c-0.183,2.562,0.73,4.762-0.183,7.512
	c-0.917,2.746,2.563,1.283,5.677-3.117c3.116-4.395,8.243-5.859,9.894-6.408C480.909,334.594,483.475,332.027,482.56,332.395
	L482.56,332.395z"/>
<path fill="#FFAAD4" d="M317.86,287.322c0.532-3.754,9.643-8.426,9.643-8.426s26.55,16.67,39.842,18.504
	c3.497,0.479-8.828,11.906-14.188,13.738c-5.355,1.832-11.503,11.174-11.503,11.174C337.535,313.645,327.243,291.762,317.86,287.322
	L317.86,287.322z"/>
<g transform="matrix(1.0324 0 0 1.0324 6.647 8.1774)">
	<path d="M324.431,75.575c-7.504-7.169-14.625-7.011-24.77-4.026c-10.045,2.956-14.021,13.155-10.95,22.649
		c2.617,8.1,7.395,9.988,3.834,13.826c-3.676,3.955-6.015-0.511-6.015-0.511c-1.226,8.518,9.234,8.846,14.596,7.363
		c18.472-8.456,8.318-23.069,7.579-26.054c-1.224-4.961,6.833-7.079,10.324-5.572c3.493,1.507,7.574,1.826,7.574,1.826"/>
	<path d="M360.683,38.928c-10.677,2.306-21.339-1.43-30.153,9.175c-5.996,7.214-9.153,14.587-8.321,22.305
		c0.778,7.211,1.521,9.296,3.368,12.632c6.997,17.8,14.815,32.32,34.329,32.32c22.683-1.167,37.61-22.078,35.884-43.915
		C393.076,51.323,378.345,35.114,360.683,38.928z"/>
	<path fill="#E9D0C7" d="M356.135,63.272c-11.033,2.256-28.489,10.287-24.42,24.588c-1.987,4.284-2.759,8.973-1.982,13.715
		c1.809,11.029,4.997,16.177,16.658,19.496c3.316,0.944,10.98,5.921,19.511,4.104c9.446-2.011,11.97-6.659,14.82-8.391
		c10.956-6.655,14.88-14.206,12.995-25.711c-1.488-6.932-4.727-8.361-6.658-12.758c-2.409-14.172-19.954-15.312-30.923-15.041l0,0
		V63.272z"/>
	
		<radialGradient id="SVGID_25_" cx="318.7066" cy="64.594" r="20.1964" gradientTransform="matrix(0.6597 0.6833 0.3054 -0.2948 107.5412 -115.9064)" gradientUnits="userSpaceOnUse">
		<stop  offset="0" style="stop-color:#E9AFAF"/>
		<stop  offset="1" style="stop-color:#E9AFAF;stop-opacity:0"/>
	</radialGradient>
	<path fill="url(#SVGID_25_)" d="M350.972,92.674c-2.462,3.239-9.585,4.276-11.788,2.98c-2.377-3.069-6.697-11.596-2.462-15.028
		c2.332-1.424,4.016-1.165,6.867-0.517c2.85,0.647,4.616,0.81,5.568,1.813C353.479,86.467,350.194,91.896,350.972,92.674z"/>
	<path fill="#FFFFFF" d="M351.305,93.161c-0.9-9.057-16.14-9.64-12.852,1.996C341.907,95.646,351.432,94.447,351.305,93.161z"/>
	<path fill="#DE8787" d="M351.398,93.234c0,0-0.734-3.023-2.015-4.351c-1.224-1.266-3.056-2.099-3.056-2.099
		C350.067,87.315,351.108,89.403,351.398,93.234L351.398,93.234z"/>
	<path fill="#6C5353" d="M338.205,90.353c0,0-2.027-1.63-1.948-3.167c0.079-1.537,0.079-1.863,0.079-1.863
		c0.244,1.129,0.877,2.693,1.544,2.562c0.288-0.529-0.205-1.378-0.376-1.956c1.087,1.12,1.977,1.912,1.307-0.033
		c0,0,1.521,1.032,1.671,0.533c0.083-0.281-0.227-1.124-0.227-1.124s1.334,1.104,1.934,0.774c0.211-0.116,0.004-0.653,0.004-0.653
		s0.864,0.682,1.44,0.529c0.231-0.063,0.025-0.633,0.025-0.633l2.269,1.349c-3.769-0.502-6.377-0.098-7.725,3.682l0,0l0,0H338.205
		L338.205,90.353z"/>
	<path fill="#2D5016" d="M342.227,88.447c-2.328,0-4.218,1.711-4.218,3.808c0,1.256,0.698,2.354,1.742,3.045l5.746-0.384
		c0.957-0.696,0.945-1.469,0.945-2.662v-0.11C346.375,90.096,344.503,88.447,342.227,88.447L342.227,88.447L342.227,88.447z"/>
	<path fill="#DE8787" d="M338.018,94.478c0.923,0.985,6.302,0.813,11.1-0.13C342.738,97.657,338.219,96.768,338.018,94.478z"/>
	<path fill="#FFFFFF" d="M347.346,90.145c0,1.11-0.986,2.008-2.203,2.008c-1.216,0-2.203-0.899-2.203-2.008
		c0-1.108,0.986-2.007,2.203-2.007c1.19,0,2.164,0.861,2.2,1.946"/>
	<path fill="#483737" d="M348.37,81.274c-4.63-3.832-12.699-2.288-12.924,0.112c-0.227,2.399,0.108,1.829,0.108,1.829
		s-0.202-2.467,2.42-2.896c2.79-0.455,7.143,0.131,7.143,0.131L348.37,81.274L348.37,81.274z"/>
	<path fill="#FFFFFF" d="M372.738,108.997l-16.455,2.721c0,0,2.72,3.367,4.535,3.886c1.814,0.518,6.089,0.778,8.421-1.036
		C371.572,112.753,372.996,109.256,372.738,108.997z"/>
	<g>
		<path fill="#D35F5F" d="M372.862,108.862c-6.348-0.777-7.644,1.036-7.644,1.036c-3.227-1.017-5.795,1.14-8.94,1.684
			c-1.554,0,4.017,1.685,8.94,0.518C370.142,110.934,372.862,108.991,372.862,108.862z"/>
		<path fill="#D35F5F" d="M372.738,109.256c0,0-2.851,3.756-7.127,4.792c-4.276,1.036-9.07-2.203-9.07-2.203
			C361.086,121.082,372.008,119.405,372.738,109.256z"/>
	</g>
	
		<radialGradient id="SVGID_26_" cx="379.6954" cy="113.8487" r="14.4258" gradientTransform="matrix(5.229826e-07 0.3732 0.4327 -0.0074 312.7219 -36.6142)" gradientUnits="userSpaceOnUse">
		<stop  offset="0" style="stop-color:#DE8787"/>
		<stop  offset="1" style="stop-color:#DE8787;stop-opacity:0"/>
	</radialGradient>
	<path fill="url(#SVGID_26_)" d="M370.529,99.016c-4.724,6.581-8.891,6.73-15.091,1.791c1.843,4.321,4.902,7.94,8.704,8.637
		C368.274,108.625,369.306,103.317,370.529,99.016L370.529,99.016z"/>
	<path fill="#DE8787" d="M369.047,101.152c-2.824,1.003-3.448,2.937-5.571,3.174c-2.288,0.256-4.62-2.008-6.607-2.008
		c2.849,1.446,5.212,4.017,8.422,2.85C366.727,104.006,367.922,102.548,369.047,101.152z"/>
	<g>
		<path fill="#E9D0C7" d="M331.065,92.768c1.418,4.579,0.461,8.943-2.138,9.747c-2.596,0.803-5.849-2.257-7.27-6.836
			c-1.416-4.58-0.46-8.943,2.138-9.747c2.541-0.787,5.722,2.127,7.189,6.581"/>
		<path fill="#E9D0C7" d="M398.51,80.259c1.113,4.662-0.124,8.954-2.769,9.586c-2.644,0.631-5.691-2.636-6.806-7.299
			c-1.116-4.661,0.126-8.954,2.771-9.585c2.586-0.619,5.571,2.498,6.742,7.037"/>
	</g>
	<g>
		<path fill="#4D4D4D" stroke="#000000" stroke-width="2.5364" d="M358.486,62.486c-1.296-6.478-2.788-9.47-8.292-10.104
			c-6.734-0.777-13.017,3.498-17.096,9.327c-3.628,5.181-7.774,10.363-5.701,15.285c1.103,2.627,0.777,2.851,0.777,2.851
			s-2.6-2.892,4.924-11.918c7.77-9.328,12.694-8.809,15.283-8.809C353.045,59.117,358.486,63.003,358.486,62.486z"/>
		<g>
			<path fill="none" stroke="#000000" stroke-width="2.5364" d="M354.858,52.64"/>
			<path fill="none" stroke="#000000" stroke-width="2.5364" d="M354.341,51.345"/>
		</g>
		<path fill="#4D4D4D" stroke="#000000" stroke-width="2.5364" d="M354.858,51.345c-4.664-5.7-12.435-3.887-12.435-3.887
			s-5.961,0.518-9.585,5.701c-3.628,5.181-1.037,4.403-1.037,4.403s0.518-1.295,2.073-3.108c1.554-1.813,5.439-5.182,10.102-4.405
			c4.662,0.778,10.104,1.037,11.918,4.146C357.709,57.303,354.081,50.827,354.858,51.345z"/>
	</g>
	<path fill="#1A1A1A" d="M356.653,62.102c-6.908-2.093-14.105-1.049-17.716,2.851c-3.613,3.901-1.943,8.974-5.354,12.081
		c-3.41,3.106-0.825,2.918,2.586-0.188c3.409-3.107,1.909-5.856,7.202-8.061c5.295-2.205,7.678-1.599,11.477-2.915
		C358.649,64.554,356.912,62.084,356.653,62.102L356.653,62.102z"/>
	<g>
		<path fill="#333333" stroke="#000000" stroke-width="2.5364" d="M357.967,50.049c3.11-5.441,11.92-6.218,13.216-5.7
			c1.295,0.518,5.96,2.332,8.289,5.96c2.332,3.628-3.107-0.778-3.107-0.778s-5.959-4.664-10.105-2.073
			c-4.147,2.591-7.774,7.774-7.774,7.774L357.967,50.049z"/>
		<path fill="#333333" d="M352.786,48.235c-2.85-4.145-5.37-6.335-7.253-6.217c-4.146,0.259-8.293,0.518-11.399,5.44
			c-1.579,2.498,6.742-3.831,10.362-2.591C349.071,46.433,353.045,48.494,352.786,48.235z"/>
	</g>
	<path stroke="#000000" stroke-width="2.5364" d="M358.227,63.003c1.813,5.959,5.701,8.032,13.992,7.513
		c8.289-0.518,10.362-2.85,10.362-2.85s-7.253,0.777-9.843-1.036c-2.592-1.813-3.369-1.813-4.924-4.922
		c-1.07-2.137,1.555-3.887,1.555-3.887L358.227,63.003z"/>
	<path fill="#333333" d="M363.669,64.009c1.252,4.024,3.942,5.424,9.674,5.074c5.733-0.351,7.165-1.926,7.165-1.926
		s-5.016,0.525-6.806-0.699c-1.793-1.225-2.329-1.225-3.404-3.325c-0.74-1.443,1.076-2.624,1.076-2.624L363.669,64.009
		L363.669,64.009z"/>
	<path d="M308.74,93.317c6.737,12.177,1.814,18.136,0.518,18.913c-1.295,0.778-4.921,1.037-4.921,1.037s4.144-1.037,4.402-3.887
		c0.26-2.849-2.591-6.736-2.591-6.736L308.74,93.317z"/>
	<path fill="#800000" d="M326.485,84.839l-3.534-11.883l1.989,11.839L326.485,84.839L326.485,84.839L326.485,84.839z"/>
	<path d="M361.077,58.598c3.368,8.291,4.012,7.487,10.624,8.809c6.478,1.296,13.553-1.337,14.249-3.886c0.777-2.85,0-6.996,0-6.996
		C387.013,67.97,367.133,61.593,361.077,58.598z"/>
	
		<radialGradient id="SVGID_27_" cx="304.0591" cy="-67.6751" r="18.7046" gradientTransform="matrix(0.5831 -0.5338 -0.2673 -0.5278 143.5748 244.7838)" gradientUnits="userSpaceOnUse">
		<stop  offset="0" style="stop-color:#FFAAAA"/>
		<stop  offset="1" style="stop-color:#FFAAAA;stop-opacity:0"/>
	</radialGradient>
	<path fill="url(#SVGID_27_)" d="M350.487,116.946c-2.316,3.094-7.352,3.238-11.246,0.323c-3.894-2.915-5.176-7.785-2.862-10.878
		c2.315-3.094,7.352-3.238,11.245-0.323c3.811,2.851,5.133,7.59,2.987,10.703"/>
	
		<linearGradient id="SVGID_28_" gradientUnits="userSpaceOnUse" x1="-2.2986" y1="408.6658" x2="-4.5228" y2="408.6181" gradientTransform="matrix(12.8806 0 0 -11.2156 383.866 4649.2085)">
		<stop  offset="0" style="stop-color:#1A1A1A"/>
		<stop  offset="1" style="stop-color:#666666;stop-opacity:0"/>
	</linearGradient>
	<path fill="url(#SVGID_28_)" stroke="#000000" stroke-width="2.5364" d="M358.486,62.486c-1.296-6.478-2.788-9.47-8.292-10.104
		c-6.734-0.777-13.017,3.498-17.096,9.327c-3.628,5.181-7.774,10.363-5.701,15.285c1.103,2.627,0.777,2.851,0.777,2.851
		s-2.6-2.892,4.924-11.918c7.77-9.328,12.694-8.809,15.283-8.809C353.045,59.117,358.486,63.003,358.486,62.486z"/>
	<path d="M392.291,64.724c3.446-9.761,13.786-12.95,20.619-14.104c14.256-0.317,20.768,19.101,27.668-4.047
		c0,0,7.692,16.26,2.649,24.96c-4.928,8.497-15.629,12.774-22.284,10.119c-6.869-2.739-11.459-10.797-15.643-11.741
		c-4.185-0.944-10.063,4.273-10.063,4.273"/>
	<path d="M426.626,82.435c14.249-2.333,19.691-8.809,19.691-8.809s-4.923,3.886-7.774,3.367
		C435.694,76.477,426.886,82.695,426.626,82.435z"/>
	<path d="M442.429,62.486c1.556-6.478,1.556-12.696,1.556-12.696s-1.037,7.772-2.333,8.808
		C440.357,59.636,442.69,62.226,442.429,62.486z"/>
	<path fill="#FFFFFF" d="M381.474,87.803c0.474-10.248-16.14-9.64-12.853,1.996C372.075,90.289,381.413,89.093,381.474,87.803z"/>
	<path fill="#6C5353" d="M382.769,81.813c0.06-1.538,0.088-1.863,0.088-1.863c-0.305,1.109-0.973,2.622-1.533,2.443
		c-0.199-0.547,0.291-1.358,0.488-1.922c-1.022,1.039-1.847,1.765-1.113-0.126c0,0-1.385,0.92-1.471,0.411
		c-0.047-0.286,0.286-1.103,0.286-1.103s-1.228,1.006-1.713,0.633c-0.17-0.131,0.047-0.65,0.047-0.65s-0.791,0.618-1.269,0.424
		c-0.191-0.078,0.032-0.631,0.032-0.631l-3.512,1.274c3.255-0.233,6.914,0.265,7.745,4.128h0.002l0,0h-0.002
		C382.575,84.559,382.646,83.377,382.769,81.813L382.769,81.813z"/>
	<path fill="#2D5016" d="M372.382,83.088c-2.324,0-4.215,1.712-4.215,3.807c0,1.256,0.698,2.356,1.74,3.047l5.747-0.384
		c0.955-0.696,0.946-1.469,0.946-2.663v-0.108C376.53,84.737,374.661,83.088,372.382,83.088L372.382,83.088L372.382,83.088z"/>
	<path fill="#DE8787" d="M368.188,89.12c0.921,0.986,6.301,0.814,11.098-0.13C372.905,92.3,368.388,91.411,368.188,89.12z"/>
	<path fill="#FFFFFF" d="M377.514,84.788c0,1.108-0.986,2.008-2.202,2.008c-1.216,0-2.203-0.9-2.203-2.008
		c0-1.109,0.987-2.008,2.203-2.008c1.19,0,2.164,0.861,2.2,1.945"/>
	<path fill="#AC9393" d="M390.873,82.248c-0.832-3.054-0.967-5.943,1.739-8.06c0,0-0.091,0-0.458,0.733
		c-0.367,0.733-0.67,2.079-0.732,3.389c-0.09,1.924,0.732,6.687,1.373,7.328c0.643,0.64-1.28-1.283-1.921-3.389V82.248z"/>
	<path fill="#916F6F" d="M396.926,84.321c-1.641,0.934-3.401,1.364-3.821,0.467c-0.42-0.898-0.866-2.456,0.15-1.838
		c1.018,0.619,1.205,0.84,1.927,1.063C395.904,84.237,397.129,84.338,396.926,84.321L396.926,84.321L396.926,84.321z"/>
	<path fill="#AC9393" d="M391.154,80.777c0-1.557,0.914-4.215,1.463-4.215c0.552,0,1.189-0.091,1.741,0.55
		c0.547,0.642-0.642-0.55-1.098-0.091c-0.461,0.458-0.734,0.641-1.007,1.741c-0.276,1.099-0.368,3.938-0.368,3.938L391.154,80.777z"
		/>
	
		<radialGradient id="SVGID_29_" cx="296.6124" cy="-85.8334" r="18.7064" gradientTransform="matrix(0.6592 -0.7207 -0.2359 -0.3894 121.3862 298.5374)" gradientUnits="userSpaceOnUse">
		<stop  offset="0" style="stop-color:#FFAAAA"/>
		<stop  offset="1" style="stop-color:#FFAAAA;stop-opacity:0"/>
	</radialGradient>
	<path fill="url(#SVGID_29_)" d="M392.977,100.26c1.124,4.845-2.511,10.467-8.123,12.561c-5.612,2.092-11.074-0.139-12.199-4.983
		c-1.124-4.845,2.51-10.469,8.124-12.561c5.49-2.047,10.859,0.041,12.13,4.714"/>
	<path fill="#483737" d="M366.796,76.279c5.889-5.518,16.148-3.294,16.436,0.161c0.286,3.456-0.14,2.634-0.14,2.634
		s0.259-3.553-3.075-4.17c-3.551-0.656-9.084,0.187-9.084,0.187L366.796,76.279L366.796,76.279z"/>
	<g>
		<path fill="#AC9393" d="M329.292,94.343c-1.397-4.885-2.922-6.819-3.824-6.973c-0.905-0.154-1.478-0.066-2.174,0.743
			c-0.696,0.811,0.305-0.691,1.296,0.036C325.581,88.876,329.503,94.193,329.292,94.343z"/>
		<path fill="#AC9393" d="M327.853,96.54c-1.651-0.733-2.015,2.198-2.015,2.198s-1.651-0.916-0.917-2.198
			C325.655,95.258,327.671,96.356,327.853,96.54L327.853,96.54z"/>
	</g>
	<g>
		<path opacity="0.6" fill="#3D8C09" enable-background="new    " d="M343.241,92.508c0,1.113-0.983,2.016-2.197,2.016
			c-1.215,0-2.198-0.902-2.198-2.016c0-1.113,0.983-2.015,2.198-2.015c1.187,0,2.159,0.865,2.197,1.953"/>
		<path opacity="0.716" fill="#3D8C09" enable-background="new    " d="M373.1,87.192c0,1.113-0.986,2.015-2.2,2.015
			c-1.214,0-2.197-0.902-2.197-2.015c0-1.113,0.984-2.016,2.197-2.016c1.19,0,2.161,0.865,2.198,1.953"/>
	</g>
	<path fill="#800000" d="M397.433,72.331l-3.923-10.847l2.509,12.487L397.433,72.331L397.433,72.331z"/>
</g>
</svg>
