<svg version="1.1" id="Layer_2" xmlns="http://www.w3.org/2000/svg" xmlns:xlink="http://www.w3.org/1999/xlink" viewBox="0 0 768 430" enable-background="new 0 0 768 430" xml:space="preserve">
<g>
	<g>
		<path fill="#E68059" d="M357.202,367.924c2.545,0.556,5.229,3.007,6.247,5.506c3.609-0.463,23.876-6.986,21.608-10.874
			C384.085,361.492,357.433,366.166,357.202,367.924z"/>
		<path fill="#AA4526" d="M363.272,373.732l-0.081-0.198c-1.008-2.475-3.665-4.819-6.048-5.339l-0.25-0.055l0.033-0.254
			c0.267-2.027,23.074-5.764,27.115-5.764c0.875,0,1.103,0.118,1.22,0.246l0.035,0.047c0.285,0.49,0.287,1.029,0.004,1.604
			c-2.03,4.122-18.991,9.322-21.817,9.685L363.272,373.732z M357.693,367.764c2.391,0.705,4.85,2.918,5.927,5.36
			c3.716-0.596,19.382-5.694,21.183-9.349c0.189-0.385,0.201-0.723,0.039-1.033c-0.041-0.011-0.229-0.063-0.8-0.063
			C379.065,362.679,360.038,366.205,357.693,367.764z"/>
	</g>
	<g>
		<path fill="#E68059" d="M392.553,355.106c-1.83-1.618-2.248-53.609-2.248-69.512c1.818-1.144,3.054-3.375,3.054-5.941
			c0-2.56-1.229-4.786-3.04-5.933c0.074-15.678,0.458-48.01,1.281-56.902c-1.666-3.516-6.292-4.441-8.143-0.74
			c0.61,10.36,1.219,42.412,1.622,57.451c-1.994,1.074-3.38,3.408-3.38,6.124c0,2.872,1.549,5.318,3.729,6.297
			c0.078,8.505-0.697,64.586-1.481,66.751c-1.574,4.35-8.121,4.441-13.535,4.927c-5.414,0.486-10.309,0.507-12.377,1.042
			c-3.748,0.972-3.84,3.73-1.526,4.997c-2.452,0.416-6.201,1.759-5.831,4.304c0.371,2.545,6.339,1.388,9.948,0.786
			c3.609-0.602,13.696-2.962,16.564-3.471c-3.007,1.249-9.776,3.495-13.001,5.229c-4.303,2.312-3.518,6.245,2.637,5.042
			c6.154-1.202,10.503-3.469,15.408-4.996c4.904-1.526,8.606-3.101,8.375-7.265c1.25,1.666,4.164,3.655,6.154,2.313
			C398.753,364.269,395.283,357.744,392.553,355.106z"/>
		<path fill="#F49E83" d="M389.596,353.27c-1.83-1.618-1.42-51.561-1.42-67.462c1.819-1.144,3.748-4.14,3.748-6.706
			c0-2.56-2.492-4.363-4.303-5.509c0.074-15.678,0.148-47.632,0.972-56.524c-1.666-3.516-3.285-4.691-5.136-0.99
			c0.61,10.36,1.219,42.412,1.622,57.451c-1.994,1.074-3.38,3.408-3.38,6.124c0,2.872,1.549,5.318,3.729,6.297
			c0.078,8.505-0.697,64.586-1.481,66.751c-1.574,4.35-8.121,4.441-13.535,4.927c-5.414,0.486-10.309,0.507-12.377,1.042
			c-3.748,0.972-3.84,3.73-1.526,4.997c-2.452,0.416-6.201,1.759-5.831,4.304c0.371,2.545,6.96-0.496,10.569-1.098
			s17.6-2.425,20.468-2.933c-3.008,1.249-14.301,4.841-17.526,6.575c-4.303,2.312-3.683,4.116,2.471,2.914
			c6.154-1.203,10.15-3.364,15.055-4.891c4.906-1.527,7.109-4.998,6.877-9.162c1.249,1.666,4.335,4.365,6.324,3.023
			S392.326,355.907,389.596,353.27z"/>
		<path fill="#AA4526" d="M364.729,376.06c-1.913,0-3.177-0.661-3.467-1.813c-0.333-1.323,0.765-2.884,2.796-3.976
			c2.171-1.167,5.832-2.526,9.062-3.725c0.292-0.108,0.581-0.216,0.864-0.32c-1.099,0.235-2.341,0.507-3.614,0.786
			c-3.6,0.789-7.682,1.684-9.697,2.019l-0.596,0.101c-1.829,0.31-4.105,0.694-5.971,0.694c-2.313,0-3.524-0.594-3.701-1.814
			c-0.349-2.395,2.547-3.873,5.384-4.487c-0.798-0.632-1.199-1.473-1.091-2.342c0.158-1.27,1.349-2.283,3.269-2.78
			c1.288-0.334,3.573-0.468,6.467-0.636c1.803-0.105,3.847-0.225,5.955-0.414c0.512-0.046,1.034-0.088,1.561-0.131
			c4.862-0.396,10.374-0.844,11.738-4.614c0.736-2.035,1.543-56.425,1.466-66.479c-2.272-1.104-3.73-3.623-3.73-6.474
			c0-2.651,1.319-5.097,3.376-6.284c-0.109-4.089-0.234-9.402-0.368-15.185c-0.359-15.399-0.807-34.566-1.249-42.091l-0.004-0.073
			l0.033-0.066c0.803-1.605,2.204-2.526,3.846-2.526c1.973,0,3.856,1.285,4.797,3.273l0.033,0.068l-0.007,0.074
			c-0.87,9.395-1.218,43.98-1.28,56.728c1.879,1.258,3.039,3.572,3.039,6.082c0,2.519-1.166,4.837-3.054,6.093
			c0.003,23.445,0.636,67.617,2.156,69.154c2.378,2.297,5.091,7.167,4.879,9.587c-0.054,0.622-0.289,1.077-0.698,1.354
			c-0.481,0.324-1.035,0.489-1.647,0.489l0,0c-1.545-0.001-3.258-1.069-4.386-2.274c-0.237,3.854-4.026,5.357-8.569,6.771
			c-1.719,0.535-3.343,1.151-5.062,1.805c-3.129,1.188-6.365,2.415-10.375,3.198C366.103,375.982,365.379,376.06,364.729,376.06z
			 M379.638,364.57l-2.34,0.973c-1.004,0.417-2.453,0.954-3.985,1.523c-3.054,1.134-6.855,2.544-8.992,3.693
			c-2.047,1.1-2.741,2.476-2.521,3.351c0.304,1.205,2.285,1.701,4.974,1.175c3.963-0.773,7.177-1.993,10.284-3.174
			c1.728-0.655,3.359-1.274,5.095-1.815c4.608-1.434,8.405-2.949,8.18-6.983l-0.051-0.916l0.551,0.734
			c0.961,1.281,2.844,2.644,4.439,2.644l0,0c0.499,0,0.948-0.133,1.337-0.394c0.264-0.178,0.417-0.495,0.456-0.941
			c0.195-2.239-2.468-6.972-4.704-9.133c-2.27-2.007-2.333-69.035-2.333-69.712v-0.153l0.13-0.081
			c1.804-1.135,2.924-3.32,2.924-5.707c0-2.378-1.116-4.562-2.911-5.698l-0.13-0.082l0.001-0.153
			c0.061-12.596,0.405-47.288,1.275-56.851c-0.849-1.729-2.553-2.885-4.263-2.885c-1.422,0-2.597,0.764-3.316,2.153
			c0.442,7.586,0.887,26.681,1.246,42.035c0.138,5.86,0.263,11.24,0.372,15.35l0.006,0.171l-0.151,0.081
			c-1.965,1.059-3.234,3.366-3.234,5.88c0,2.658,1.433,5.086,3.565,6.043l0.162,0.073l0.002,0.177
			c0.082,8.91-0.695,64.632-1.497,66.85c-1.486,4.106-7.186,4.569-12.215,4.979c-0.525,0.043-1.045,0.085-1.556,0.131
			c-2.117,0.189-4.165,0.31-5.972,0.415c-2.863,0.166-5.125,0.299-6.36,0.619c-1.688,0.437-2.729,1.279-2.857,2.31
			c-0.103,0.828,0.418,1.641,1.394,2.175l0.7,0.383l-0.788,0.134c-2.241,0.381-5.942,1.649-5.602,3.989
			c0.131,0.902,1.162,1.341,3.152,1.341c1.82,0,4.07-0.381,5.879-0.688l0.597-0.1c2.001-0.334,6.075-1.227,9.669-2.014
			c2.887-0.633,5.615-1.229,6.892-1.457L379.638,364.57z"/>
	</g>
	<g>
		<path fill="#AA4526" d="M356.56,363.94l-0.102-0.546c1.814-0.339,5.411-0.757,9.218-1.198c3.424-0.398,6.965-0.81,9.157-1.163
			c4.461-0.721,6.859-2.213,6.882-2.229c0,0-2.209,2.035-6.793,2.776c-2.205,0.355-5.752,0.768-9.182,1.167
			C361.942,363.188,358.354,363.605,356.56,363.94z"/>
	</g>
	<g>
		<path fill="#FE78B5" d="M374.573,214.737c0.833,3.678,6.932,8.95,8.189,12.562c1.527-0.485,2.083-3.956,2.291-4.789
			c0.972,1.389,2.498,4.512,2.984,5.969c1.25-0.901,2.152-4.788,2.152-4.788c0.485,1.526,1.805,4.788,1.805,4.788
			c0.693-2.498,4.58-10.549,4.303-12.909C396.019,213.21,375.614,206.825,374.573,214.737z"/>
		<path fill="#9B1F63" d="M392.042,229.341l-0.306-0.758c-0.045-0.111-0.938-2.321-1.514-3.935
			c-0.355,1.235-1.084,3.378-2.022,4.056l-0.307,0.222l-0.12-0.358c-0.414-1.242-1.645-3.819-2.593-5.354
			c-0.308,1.398-0.922,3.9-2.334,4.35l-0.257,0.082l-0.089-0.256c-0.572-1.646-2.247-3.731-3.867-5.748
			c-1.905-2.372-3.874-4.825-4.332-6.843l-0.011-0.048l0.006-0.05c0.352-2.671,2.797-4.082,7.072-4.082
			c6.17,0,14.993,3.138,15.203,4.919c0.192,1.637-1.406,5.582-2.815,9.063c-0.68,1.678-1.267,3.127-1.496,3.953L392.042,229.341z
			 M384.932,221.853l0.349,0.498c0.931,1.33,2.282,4.068,2.876,5.637c0.836-0.979,1.543-3.412,1.762-4.36l0.229-0.983l0.307,0.963
			c0.34,1.064,1.096,3.006,1.512,4.054c0.299-0.854,0.762-1.996,1.277-3.269c1.316-3.25,2.954-7.295,2.779-8.789
			c-0.148-1.251-8.218-4.429-14.652-4.429c-2.744,0-6.092,0.618-6.515,3.55c0.451,1.887,2.362,4.268,4.212,6.57
			c1.631,2.032,3.178,3.958,3.852,5.63c1.026-0.63,1.542-3.004,1.771-4.06c0.038-0.174,0.069-0.317,0.095-0.421L384.932,221.853z"/>
	</g>
	<g>
		<path fill="#EF60A8" d="M348.615,198.496c3.332,9.995,18.045,20.729,39.422,21.192c15.27,5.183,37.062,1.296,51.36-5.09
			c4.581-0.693,13.187,4.304,16.518,9.717c1.111-1.805,0.186-5.459-0.601-6.939c2.591,0.786,9.484,6.432,11.752,10.549
			c0.277-2.452-3.608-11.891-7.588-14.945c1.619,0.463,5.043,1.898,6.015,3.193c-1.295-3.933-12.076-18.231-24.847-23.922
			c-5.553-10.411-37.757-29.844-69.683-26.096c-7.357,1.388-16.519-1.11-16.519-13.187c0-12.076,9.439-28.178,20.683-40.533
			c11.243-12.354,19.85-30.538,18.462-41.643c-1.389-11.104-9.786-18.253-17.004-18.878c-3.817-4.234-13.919-7.634-23.497-4.928
			c-9.578,2.707-17.175,9.231-19.743,15.755c-2.568,6.524-1.527,11.521,3.47,14.367c2.915,4.858,8.884,10.064,16.171,8.676
			s18.115-5.552,21.585-9.855c3.817,2.221,2.776,10.549-1.319,18.531c-4.095,7.981-24.962,30.191-33.476,48.329
			C331.264,160.925,326.359,189.797,348.615,198.496z"/>
		<path fill="#FE78B5" d="M347.921,175.176c-2.221-22.765,3.887-38.867,16.103-54.414c9.994-13.326,26.096-25.541,21.654-40.532
			c-1.109-2.957-5.169-1.238-8.744,1.879c-0.117,3.517-1.441,7.983-3.68,12.349c-4.095,7.981-24.962,30.191-33.476,48.329
			c-3.737,7.962-6.778,17.992-7.133,27.477c0.862,2.827,2.149,5.441,4.171,7.688C340.148,181.839,347.921,179.618,347.921,175.176z"
			/>
		<path fill="#FFC9E1" d="M375.209,89.988c-0.54,1.474-1.189,2.977-1.955,4.47c-4.095,7.981-24.962,30.191-33.476,48.329
			c-3.737,7.962-6.778,17.992-7.133,27.477c0.214,0.7,0.454,1.388,0.725,2.06c1.69-27.41,21.871-49.582,38.427-72.661
			C373.914,96.84,374.907,93.566,375.209,89.988z"/>
		<path fill="#FE78B5" d="M356.805,179.063c-2.776,6.662-2.776,14.991,2.776,20.543c5.552,4.997,14.992,3.332,19.434,8.884
			c1.666,2.221,1.666,6.107,4.442,8.883c0-1.665-1.11-2.776-0.555-4.442c4.442,1.11,6.107,6.108,10.55,7.218
			c0-1.666-2.221-3.887-1.111-4.441c1.666-1.111,3.888,2.221,3.888,1.665c6.107-8.328-2.222-16.102-3.888-24.43
			c11.105,0.555,21.655-1.666,32.76,0c12.215,1.666,22.209,8.328,31.649,15.547c-2.776,0-4.998-1.666-7.774-2.221
			c6.576,4.255,11.531,10.668,15.062,17.733c1.263,1.33,2.354,2.693,3.03,3.921c0.277-2.452-3.608-11.891-7.588-14.945
			c1.619,0.463,5.043,1.898,6.015,3.193c-1.295-3.933-12.076-18.231-24.847-23.922c-4.597-8.618-27.457-23.419-53.304-26.135
			C375.433,166.817,361.588,167.583,356.805,179.063z"/>
		<path fill="#FE78B5" d="M366.799,76.898c6.663-4.442,9.995-12.771,8.329-20.544c7.94-1.323,13.907,3.859,17.67,10.612
			c-2.599-8.902-9.861-14.504-16.212-15.054c-3.817-4.234-13.919-7.634-23.497-4.928c-9.578,2.707-17.175,9.231-19.743,15.755
			c-2.568,6.524-1.527,11.521,3.47,14.367c0.319,0.531,0.676,1.065,1.064,1.596C347.07,82.58,357.467,83.12,366.799,76.898z"/>
		<path fill="#FFC9E1" d="M348.477,50.802c9.439-4.441,21.099-4.441,28.873,2.776c-0.146-0.581-0.331-1.123-0.552-1.637
			c-0.07-0.007-0.142-0.022-0.212-0.028c-3.817-4.234-13.919-7.634-23.497-4.928c-9.578,2.707-17.175,9.231-19.743,15.755
			c-1.977,5.021-1.805,9.133,0.653,12.061C330.645,64.62,339.79,54.89,348.477,50.802z"/>
		<path fill="#9B1F63" d="M467.244,228.822l-0.421-0.764c-2.097-3.808-8.096-8.848-10.97-10.175c0.729,1.793,1.32,4.915,0.298,6.576
			l-0.236,0.385l-0.236-0.385c-2.996-4.87-10.612-9.648-15.373-9.648c-0.292,0-0.57,0.018-0.83,0.056
			c-10.535,4.698-23.63,7.503-35.036,7.503c-0.001,0,0,0,0,0c-6.195,0-11.729-0.81-16.451-2.406
			c-21.416-0.478-36.097-11.03-39.595-21.257c-6.608-2.615-11.25-7.176-13.795-13.556c-5.086-12.746-0.79-30.302,4.928-42.481
			c5.284-11.257,15.183-23.911,23.137-34.079c4.72-6.033,8.795-11.243,10.343-14.26c4.195-8.177,4.866-15.844,1.624-18.04
			c-3.577,4.176-13.911,8.301-21.591,9.764c-0.812,0.155-1.635,0.233-2.446,0.233c-6.306,0-11.346-4.625-13.979-8.976
			c-4.961-2.862-6.181-7.934-3.528-14.673c2.726-6.925,10.733-13.323,19.926-15.92c2.295-0.649,4.718-0.978,7.199-0.978
			c6.533,0,13.296,2.424,16.505,5.906c7.361,0.701,15.759,8.011,17.147,19.111c1.348,10.778-6.619,28.776-18.532,41.864
			c-9.964,10.948-20.61,27.295-20.61,40.346c0,4.59,1.326,8.076,3.942,10.362c2.736,2.39,6.229,2.892,8.677,2.892
			c1.175,0,2.376-0.115,3.57-0.34c2.704-0.318,5.482-0.478,8.275-0.478c29.35,0,56.518,17.195,61.659,26.632
			c12.868,5.778,23.67,20.281,24.911,24.05l0.529,1.606l-1.015-1.354c-0.703-0.937-2.896-2.012-4.597-2.66
			c3.719,3.787,6.932,11.943,6.668,14.278L467.244,228.822z M454.756,216.915l0.639,0.194c2.408,0.73,8.603,5.672,11.339,9.742
			c-0.529-3.348-3.939-10.979-7.425-13.653l-1.156-0.887l1.402,0.4c1.276,0.365,3.675,1.323,5.162,2.38
			c-2.547-4.928-12.507-17.385-24.184-22.589l-0.087-0.039l-0.045-0.084c-4.968-9.315-31.983-26.422-61.214-26.422
			c-2.772,0-5.528,0.159-8.191,0.471c-1.209,0.229-2.445,0.347-3.654,0.347c-2.543,0-6.176-0.525-9.042-3.03
			c-2.742-2.395-4.132-6.022-4.132-10.779c0-13.208,10.721-29.695,20.754-40.719c11.814-12.981,19.721-30.789,18.392-41.422
			c-1.359-10.875-9.586-18.016-16.753-18.636l-0.109-0.009l-0.073-0.081c-2.52-2.795-8.654-5.804-16.167-5.804
			c-2.43,0-4.802,0.322-7.049,0.957c-9.034,2.554-16.894,8.818-19.56,15.59c-2.585,6.568-1.458,11.286,3.35,14.024l0.062,0.036
			l0.038,0.062c2.544,4.239,7.437,8.769,13.54,8.769c0.777,0,1.564-0.075,2.341-0.223c7.733-1.473,18.186-5.745,21.421-9.757
			l0.149-0.186l0.206,0.12c4.29,2.496,2.637,11.396-1.211,18.898c-1.572,3.064-5.468,8.044-10.4,14.349
			c-7.937,10.146-17.815,22.772-23.072,33.972c-5.667,12.074-9.935,29.459-4.915,42.04c2.502,6.27,7.078,10.743,13.602,13.292
			l0.121,0.047l0.041,0.124c3.28,9.841,18.122,20.546,39.165,21.002l0.084,0.015c4.672,1.586,10.16,2.39,16.312,2.39
			c11.345,0,24.371-2.792,34.844-7.47l0.072-0.021c0.297-0.045,0.616-0.068,0.95-0.068c4.781,0,12.333,4.641,15.578,9.496
			c0.693-1.793-0.111-4.923-0.814-6.247L454.756,216.915z"/>
	</g>
	<g>
		<path fill="#9B1F63" d="M455.569,218.728c-1.621-4.275-5.974-6.355-6.019-6.377c0,0,4.835,1.689,6.538,6.18L455.569,218.728z"/>
	</g>
	<g>
		<path fill="#9B1F63" d="M373.367,77.535l-0.383-0.402c5.122-4.888,5.29-10.182,5.291-10.235
			C378.274,66.898,378.654,72.49,373.367,77.535z"/>
	</g>
	<g>
		<g>
			<g>
				<g>
					<g>
						<g>
							<g>
								<g>
									<g>
										<g>
											<path fill="#1D1D1B" d="M357.289,61.143c1.127,4.446-0.361,8.638-3.325,9.363c-2.963,0.726-6.278-2.29-7.405-6.735
												c-1.127-4.446,0.36-8.638,3.324-9.363C352.845,53.682,356.161,56.696,357.289,61.143z"/>
										</g>
									</g>
								</g>
								<g>
									<path fill="#1D1D1B" d="M358.487,55.582c-0.596,0.821-2.142,1.706-3.203,1.635c0.103,0.317,0.405,0.625,0.405,0.625
										C356.482,57.714,358.12,56.581,358.487,55.582z"/>
								</g>
								<g>
									<path fill="#1D1D1B" d="M359.938,58.182c-0.799,0.625-2.527,1.052-3.529,0.693c0.012,0.333,0.218,0.712,0.218,0.712
										C357.424,59.683,359.311,59.042,359.938,58.182z"/>
								</g>
								<g>
									<path fill="#1D1D1B" d="M360.548,60.143c-0.799,0.626-2.528,1.052-3.529,0.693c0.012,0.333,0.217,0.712,0.217,0.712
										C358.034,61.644,359.921,61.002,360.548,60.143z"/>
								</g>
								<g>
									<g>
										<g>
											<g>
												<path fill="#D6D6D6" d="M356.907,61.624c1.076,4.245-0.348,8.248-3.18,8.941c-2.833,0.694-6.001-2.185-7.077-6.43
													c-1.077-4.245,0.347-8.248,3.18-8.941C352.662,54.5,355.831,57.378,356.907,61.624z"/>
												<g>
													<g>
														<g>
															<g>
																<g>
																	<g>
																		<path fill="#FFFFFF" d="M356.907,61.624c1.076,4.245-9.181,6.757-10.257,2.512
																			c-1.077-4.245,0.347-8.248,3.18-8.941C352.662,54.5,355.831,57.378,356.907,61.624z"/>
																	</g>
																</g>
															</g>
														</g>
													</g>
												</g>
												<path fill="#9B1F63" d="M352.868,70.879c-2.738,0-5.439-2.814-6.422-6.691c-0.667-2.631-0.41-5.294,0.689-7.123
													c0.658-1.096,1.573-1.813,2.645-2.076c0.296-0.073,0.603-0.109,0.91-0.109c2.739,0,5.44,2.814,6.423,6.692
													c0.667,2.631,0.409,5.293-0.69,7.122c-0.658,1.096-1.573,1.813-2.644,2.076
													C353.481,70.843,353.175,70.879,352.868,70.879z M350.689,55.302c-0.273,0-0.546,0.033-0.809,0.098
													c-0.96,0.235-1.784,0.886-2.383,1.883c-1.042,1.735-1.283,4.277-0.642,6.802c0.921,3.633,3.506,6.373,6.013,6.373
													c0.274,0,0.546-0.033,0.81-0.098c0.959-0.235,1.784-0.886,2.383-1.882c1.042-1.735,1.283-4.277,0.643-6.801
													C355.781,58.042,353.196,55.302,350.689,55.302z"/>
											</g>
										</g>
									</g>
								</g>
							</g>
						</g>
					</g>
				</g>
			</g>
		</g>
		<g>
			<g>
				<g>
					<g>
						<g>
							<g>
								<g>
									<g>
										<g>
											<path fill="#054DD1" d="M356.599,63.486c0.589,2.32-0.259,4.524-1.893,4.925c-1.634,0.4-3.436-1.156-4.023-3.476
												c-0.589-2.32,0.259-4.525,1.893-4.926C354.21,59.609,356.012,61.166,356.599,63.486z"/>
											<g>
												<g>
													<g>
														<g>
															<g>
																<g>
																	<path fill="#007AFF" d="M356.599,63.486c0.589,2.32-0.259,4.524-1.893,4.925c-1.634,0.4-3.436-1.156-4.023-3.476
																		C352.122,67.072,355.812,66.826,356.599,63.486z"/>
																</g>
															</g>
														</g>
													</g>
												</g>
											</g>
											<path fill="#003B6E" d="M354.184,68.685c-1.604,0-3.163-1.555-3.706-3.697c-0.36-1.42-0.207-2.882,0.41-3.909
												c0.402-0.67,0.969-1.11,1.637-1.274c0.187-0.045,0.379-0.068,0.572-0.068c1.605,0,3.164,1.555,3.707,3.698
												c0.36,1.42,0.207,2.88-0.41,3.907c-0.403,0.67-0.969,1.111-1.638,1.275C354.569,68.662,354.377,68.685,354.184,68.685z
												 M353.097,60.158c-0.159,0-0.318,0.019-0.471,0.057c-0.557,0.136-1.032,0.51-1.375,1.082
												c-0.561,0.933-0.696,2.273-0.363,3.587c0.496,1.958,1.883,3.379,3.296,3.379c0.16,0,0.318-0.019,0.472-0.057
												c0.557-0.136,1.033-0.511,1.376-1.082c0.561-0.933,0.696-2.273,0.363-3.587C355.898,61.58,354.512,60.158,353.097,60.158
												z"/>
										</g>
									</g>
								</g>
							</g>
						</g>
					</g>
				</g>
			</g>
		</g>
		<g>
			<g>
				<g>
					<g>
						<g>
							<g>
								<g>
									<path d="M356.149,64.179c0.31,1.225-0.194,2.404-1.129,2.633c-0.935,0.229-1.945-0.579-2.256-1.804s0.196-2.404,1.13-2.632
										C354.83,62.146,355.838,62.953,356.149,64.179z"/>
								</g>
							</g>
						</g>
					</g>
				</g>
			</g>
		</g>
		<g>
			<g>
				<g>
					<g>
						<g>
							<g>
								<g>
									<path fill="#FFFFFF" d="M353.479,62.141c0.155,0.612-0.213,1.23-0.821,1.378c-0.61,0.15-1.229-0.226-1.385-0.838
										c-0.156-0.613,0.212-1.23,0.822-1.38C352.703,61.153,353.323,61.528,353.479,62.141z"/>
								</g>
							</g>
						</g>
					</g>
				</g>
			</g>
		</g>
		<g>
			<g>
				<g>
					<g>
						<g>
							<g>
								<g>
									<path fill="#FFFFFF" d="M353.068,64.392c0.09,0.356-0.124,0.715-0.477,0.801c-0.355,0.087-0.715-0.131-0.807-0.487
										c-0.09-0.357,0.125-0.716,0.479-0.803S352.978,64.035,353.068,64.392z"/>
								</g>
							</g>
						</g>
					</g>
				</g>
			</g>
		</g>
	</g>
	<g>
		<path fill="#E68059" d="M351.638,71.276c-6.37,3.201-13.989,4.234-18.737,1.822c-2.497-0.076-5.646,1.803-5.801,5.323
			c-4.581,2.919-14.159,14.44-12.354,26.239c1.805,11.799,7.773,22.349,16.102,23.182c5.691,0,5.83-12.493,6.802-21.099
			c0.972-8.606,6.075-18.893,9.631-21.176c-0.062-0.371-0.175-0.753-0.325-1.142C346.635,81.125,349.59,74.329,351.638,71.276z"/>
		<path fill="#F49E83" d="M321.27,110.768c1.111,2.776,1.111,6.108,3.332,7.218c2.776,2.221,5.553-2.221,5.553-4.442
			c0-13.326,5.552-26.096,16.102-34.425c0.905-0.603,1.804-1.376,2.53-2.307c0.892-2.157,1.958-4.203,2.853-5.536
			c-6.37,3.201-13.989,4.234-18.737,1.822c-2.497-0.076-5.646,1.803-5.801,5.323c-4.581,2.919-14.159,14.44-12.354,26.239
			c0.755,4.941,2.244,9.66,4.328,13.541c0.463,0.215,1,0.34,1.641,0.34C320.714,115.765,320.714,113.544,321.27,110.768z"/>
		<path fill="#FCD1C5" d="M327.933,79.605c-4.789,3.47-13.048,13.049-12.215,24.292C316.897,95.638,321.686,86.407,327.933,79.605z"
			/>
		<path fill="#AA4526" d="M330.848,128.119l-0.028-0.001c-8.957-0.896-14.665-12.406-16.349-23.416
			c-1.826-11.94,7.87-23.482,12.359-26.438c0.229-3.413,3.168-5.446,5.925-5.446l0.271,0.032c1.695,0.861,3.792,1.297,6.235,1.297
			c3.841,0,8.307-1.137,12.252-3.12l0.943-0.474l-0.588,0.877c-2.042,3.043-4.923,9.733-4.641,12.93
			c0.159,0.417,0.266,0.796,0.326,1.16l0.03,0.181L347.43,85.8c-3.464,2.224-8.53,12.339-9.505,20.973
			c-0.146,1.296-0.272,2.657-0.404,4.098C336.777,118.957,335.934,128.119,330.848,128.119z M332.755,73.374
			c-2.141,0-5.224,1.57-5.378,5.06l-0.006,0.145l-0.122,0.078c-4.344,2.768-14.033,14.169-12.229,25.962
			c1.65,10.792,7.188,22.069,15.841,22.946c4.567-0.018,5.385-8.903,6.106-16.744c0.133-1.444,0.259-2.809,0.405-4.109
			c0.977-8.648,6.043-18.791,9.601-21.273c-0.06-0.284-0.153-0.59-0.277-0.913l-0.018-0.074c-0.299-3.085,2.142-9.076,4.205-12.502
			c-3.796,1.757-7.981,2.755-11.623,2.755c-2.503,0-4.665-0.447-6.429-1.329L332.755,73.374z"/>
	</g>
	<g>
		<path fill="#260B16" d="M314.746,104.66c1.805,11.799,7.773,22.349,16.102,23.182c5.691,0,5.83-12.493,6.802-21.099
			c-3.471,2.568-12.979,2.499-16.523-2.644C319.465,105.979,315.995,105.84,314.746,104.66z"/>
		<path fill="#381420" d="M321.126,104.099c-1.661,1.88-5.131,1.741-6.38,0.561c0.755,4.941,2.244,9.66,4.328,13.541
			c0.463,0.215,1,0.34,1.641,0.34c0-2.776,0-4.997,0.555-7.773c1.111,2.776,1.111,6.108,3.332,7.218
			c2.776,2.221,5.553-2.221,5.553-4.442c0-1.732,0.096-3.454,0.282-5.159C326.861,108.229,323.084,106.939,321.126,104.099z"/>
		<path d="M330.848,128.119l-0.028-0.001c-8.957-0.896-14.665-12.406-16.349-23.416l-0.122-0.799l0.587,0.555
			c0.521,0.492,1.512,0.797,2.588,0.797c1.404,0,2.641-0.489,3.393-1.34l0.235-0.267l0.202,0.292
			c1.806,2.621,5.477,4.185,9.819,4.185c2.593,0,4.952-0.601,6.311-1.606l0.513-0.379l-0.071,0.633
			c-0.146,1.296-0.272,2.657-0.404,4.098C336.777,118.957,335.934,128.119,330.848,128.119z M315.124,105.268
			c1.77,10.59,7.258,21.437,15.737,22.296c4.567-0.018,5.385-8.903,6.106-16.744c0.113-1.229,0.221-2.399,0.341-3.522
			c-1.485,0.873-3.721,1.382-6.136,1.383c-4.374,0-8.109-1.545-10.079-4.151c-0.864,0.817-2.144,1.28-3.57,1.28
			C316.607,105.811,315.758,105.613,315.124,105.268z"/>
	</g>
	<g>
		<path fill="#AA4526" d="M323.33,95.955c4.283-9.995,15.19-16.153,15.3-16.213l-0.27-0.486
			c-0.111,0.062-11.182,6.309-15.541,16.481c-1.043,2.433-1.685,5.232-1.926,8.16c0.18,0.041,0.359,0.081,0.538,0.121
			C321.667,101.125,322.299,98.358,323.33,95.955z"/>
		<path d="M321.432,104.018c-0.179-0.04-0.358-0.08-0.538-0.121c-0.759,9.195,2.454,19.672,9.809,24.181l0.291-0.473
			C323.831,123.214,320.702,113.003,321.432,104.018z"/>
	</g>
	<g>
		<path fill="#AA4526" d="M339.562,83.423c0.026-0.076,0.625-1.901-1.26-3.725c-1.887-1.826-3.166-1.562-3.179-1.558
			c0,0,1.432-0.904,3.565,1.159C340.838,81.379,339.562,83.423,339.562,83.423z"/>
	</g>
	<g>
		<path fill="#AA4526" d="M330.506,80.218c-0.322,0-0.504-0.134-0.601-0.247c-0.205-0.24-0.217-0.597-0.033-1.007
			c0.154-0.342,0.435-0.698,0.791-1.003c0.5-0.427,1.061-0.682,1.503-0.682c0.322,0,0.504,0.134,0.601,0.246
			c0.205,0.24,0.217,0.598,0.033,1.007c-0.154,0.342-0.435,0.699-0.791,1.003C331.509,79.963,330.947,80.218,330.506,80.218z
			 M332.166,77.834c-0.304,0-0.752,0.215-1.142,0.549c-0.291,0.249-0.526,0.543-0.645,0.809c-0.098,0.217-0.096,0.367-0.051,0.419
			c0.039,0.045,0.128,0.052,0.178,0.052c0.304,0,0.752-0.215,1.142-0.549c0.291-0.249,0.526-0.544,0.645-0.809
			c0.098-0.217,0.096-0.367,0.051-0.419C332.306,77.841,332.216,77.834,332.166,77.834z"/>
	</g>
	<path fill="#1D1D1B" d="M347.4,53.648c2.048-1.979,6.802-1.288,9.009,1.934c-0.264-2.42-3.93-5.647-6.157-5.509
		C348.025,50.212,347.192,52.71,347.4,53.648z"/>
	<g>
		<path fill="#E68059" d="M373.509,321.02c-1.227,0.81-1.278,5.241-0.324,7.449c-1.666,1.203-13.141-13.511-9.809-17.166
			C365.781,310.84,372.074,318.937,373.509,321.02z"/>
		<path fill="#AA4526" d="M372.946,328.816c-1.83,0-7.174-6.606-9.375-11.589c-1.293-2.929-1.428-4.984-0.401-6.112l0.062-0.068
			l0.09-0.017c0.083-0.016,0.171-0.024,0.262-0.024c2.779,0,9.036,8.235,10.153,9.856l0.161,0.233l-0.236,0.155
			c-1.03,0.68-1.163,4.931-0.222,7.107l0.088,0.204l-0.181,0.131C373.235,328.774,373.1,328.816,372.946,328.816z M363.517,311.563
			c-0.984,1.21-0.244,3.615,0.562,5.439c2.209,5.003,7.189,10.843,8.717,11.236c-0.805-2.249-0.754-6.104,0.342-7.267
			C371.052,318.003,365.587,311.414,363.517,311.563z"/>
	</g>
	<g>
		<path fill="#E68059" d="M388.639,221.076c5.83,7.866,23.875,47.289,25.727,51.638c-1.11,0.693-2.221,3.423-1.48,5.783
			c-4.025,1.805-44.327,14.945-47.011,18.555c-4.627,1.573-8.606,9.161-6.201,16.564c0.186,7.496,6.64,14.39,9.902,17.166
			s7.01-0.694,3.331-3.956c-3.678-3.262-7.357-8.537-8.259-12.909c2.083,2.567,5.206,6.523,7.635,7.912
			c2.429,1.388,4.65-2.013,2.429-4.095c-2.221-2.082-4.303-5.345-5.066-6.594c1.596-1.18,2.291-7.843-0.278-10.271
			c5.136-4.234,41.227-16.38,46.779-18.046c5.969,1.596,9.578-7.287,4.164-10.619c-1.943-3.609-21.122-47.879-22.418-53.575
			C396.189,216.849,387.729,216.318,388.639,221.076z"/>
		<path fill="#F49E83" d="M416.91,271.648c-1.319-2.449-10.166-23.337-16.116-38.282c-0.1,0.431-0.301,0.841-0.681,1.221
			c-1.665-2.221-2.775-4.442-4.997-6.108c0.454,1.812,0.535,3.26,0.551,4.936c7.535,14.632,17.357,36.152,18.698,39.3
			c-1.11,0.693-2.221,3.423-1.48,5.783c-4.025,1.805-44.327,14.945-47.011,18.555c-4.627,1.573-8.606,9.161-6.201,16.564
			c0.186,7.496,5.807,12.146,9.069,14.922s4.373,0.231,0.694-3.031c-3.678-3.261-5.364-10.019-6.267-14.392
			c2.083,2.568,4.67,6.479,7.1,7.868c2.429,1.388,5.46-0.415,3.239-2.497c-2.221-2.082-6.501-5.276-7.265-6.525
			c1.596-1.18,2.568-7.427,0-9.855c5.136-4.234,43.031-17.629,48.583-19.295C420.797,282.406,422.323,274.98,416.91,271.648z"/>
		<path fill="#AA4526" d="M372.044,332.072c-0.904,0-1.82-0.373-2.649-1.079c-1.63-1.387-9.761-8.733-9.999-17.33
			c-2.351-7.305,1.512-15.146,6.31-16.848c2.109-2.519,19.414-8.749,36.98-14.922c4.726-1.661,8.517-2.992,9.863-3.555
			c-0.62-2.354,0.403-4.848,1.472-5.719c-2.289-5.299-19.836-43.594-25.605-51.379l-0.05-0.113
			c-0.192-1.006-0.007-1.859,0.551-2.534c1.097-1.326,3.232-1.525,4.407-1.525c2.037,0,3.999,0.562,4.77,1.368l0.053,0.056
			l0.017,0.075c1.264,5.556,20.311,49.538,22.358,53.44c2.74,1.729,3.073,4.628,2.465,6.777c-0.635,2.243-2.562,4.506-5.436,4.506
			c-0.001,0-0.001,0-0.001,0c-0.458,0-0.929-0.061-1.397-0.18c-6.46,1.949-40.637,13.549-46.37,17.786
			c1.125,1.258,1.699,3.487,1.543,6.054c-0.116,1.92-0.626,3.535-1.321,4.243c0.863,1.396,2.834,4.403,4.897,6.337
			c0.939,0.88,1.246,2.124,0.802,3.246c-0.396,1.004-1.291,1.653-2.278,1.653c-0.432,0-0.863-0.122-1.281-0.36
			c-2.177-1.245-4.839-4.435-6.904-6.98c1.179,3.777,4.259,8.343,7.851,11.528c1.366,1.212,1.91,2.649,1.456,3.847
			C374.176,331.44,373.194,332.072,372.044,332.072z M388.9,220.963c5.917,8.049,23.838,47.222,25.72,51.642l0.094,0.219
			l-0.202,0.126c-1.012,0.632-2.053,3.264-1.362,5.465l0.074,0.234l-0.226,0.102c-1.125,0.504-4.901,1.831-10.128,3.668
			c-13.047,4.584-34.883,12.257-36.773,14.8l-0.052,0.068l-0.082,0.029c-4.607,1.565-8.323,9.147-6.025,16.215l0.013,0.079
			c0.207,8.378,8.203,15.599,9.804,16.962c0.919,0.781,1.752,0.945,2.289,0.945c0.917,0,1.695-0.489,1.983-1.249
			c0.369-0.973-0.119-2.182-1.305-3.233c-3.332-2.955-7.365-8.303-8.347-13.062l-0.23-1.115l1.077,1.328
			c2.089,2.582,4.95,6.117,7.198,7.401c0.333,0.191,0.672,0.288,1.006,0.288c0.757,0,1.449-0.512,1.762-1.303
			c0.363-0.919,0.114-1.904-0.666-2.636c-2.217-2.078-4.315-5.344-5.114-6.651l-0.133-0.217l0.204-0.151
			c0.646-0.478,1.178-2.122,1.292-3.999c0.12-1.984-0.235-4.562-1.595-5.848l-0.228-0.216l0.243-0.2
			c5.33-4.394,42.148-16.679,46.875-18.097l0.075-0.023l0.076,0.021c0.448,0.12,0.896,0.182,1.332,0.182
			c2.584,0,4.324-2.061,4.902-4.103c0.558-1.971,0.25-4.632-2.286-6.193l-0.064-0.039l-0.035-0.065
			c-1.925-3.574-20.939-47.375-22.426-53.565c-0.695-0.658-2.525-1.146-4.316-1.146c-1.834,0-3.284,0.482-3.979,1.323
			C388.908,219.476,388.759,220.153,388.9,220.963z"/>
	</g>
	<g>
		<path fill="#EF60A8" d="M400.495,210.26l-23.285-0.728c0,0-0.625,4.441,2.637,8.467c3.262,4.025,10.62,8.953,12.424,12.284
			c0.971-1.482,0.901-5.829,0.729-7.044c1.354,1.284,4.477,4.649,5.171,5.622c0.312-1.319-0.159-5.384-0.278-6.247
			c0.729,0.625,2.568,2.707,3.609,3.436c-0.556-1.943-0.067-6.357,0.59-8.704C403.271,213.141,400.495,210.26,400.495,210.26z"/>
		<path fill="#FE78B5" d="M383.457,217.374c0-1.665,0.278-2.915,0.833-4.58c2.742,2.81,4.719,6.246,9.162,7.356
			c0-1.666-1.319-3.922-1.562-5.414c2.222,0.555,3.957,2.672,4.963,4.545c1.783-2.431,1.706-6.723,1.553-9.087l-18.735-0.586
			C380.741,211.868,381.101,215.019,383.457,217.374z"/>
		<path fill="#9B1F63" d="M392.248,230.824l-0.221-0.408c-0.967-1.783-3.57-4.042-6.328-6.435c-2.251-1.952-4.58-3.972-6.067-5.809
			c-3.3-4.071-2.146-8.603-2.146-8.603c-0.006,0.043-0.565,4.375,2.578,8.254c1.457,1.799,3.766,3.801,5.999,5.738
			c2.582,2.238,5.031,4.363,6.189,6.149c0.676-1.67,0.633-5.315,0.473-6.434l-0.112-0.79l0.578,0.55
			c1.182,1.12,3.675,3.787,4.79,5.133c0.101-1.62-0.253-4.722-0.362-5.519l-0.101-0.726l0.556,0.477
			c0.283,0.242,0.71,0.679,1.204,1.185c0.568,0.58,1.236,1.264,1.801,1.764c-0.314-2.268,0.174-6.035,0.746-8.08
			c1.121-3.996-1.502-6.791-1.529-6.818c0,0,3.273,2.659,2.064,6.969c-0.695,2.479-1.104,6.753-0.591,8.552l0.216,0.753
			l-0.642-0.449c-0.672-0.471-1.623-1.443-2.462-2.301c-0.223-0.229-0.433-0.442-0.619-0.629c0.163,1.421,0.454,4.414,0.179,5.577
			l-0.141,0.595l-0.355-0.497c-0.598-0.838-3.108-3.565-4.6-5.059c0.103,1.74,0.035,5.134-0.841,6.472L392.248,230.824z"/>
	</g>
	<g>
		<path fill="#EF60A8" d="M448.281,199.537c-0.973-3.47-5.043-9.739-8.652-12.886c-6.293-11.197-21.747-22.302-29.799-23.968
			c-4.534-2.869-21.84-6.57-32.204-5.089c-10.364,1.48-18.23,7.31-17.397,15.084c0.833,7.773,8.421,12.215,8.421,12.215
			l18.346,4.511c0,0,2.266,2.324,4.865,5.913c2.28,3.148,4.817,7.269,6.31,11.647c0.347-1.875,1.18-8.746,0.416-12.354
			c3.192,4.234,9.509,15.269,10.411,20.755c2.637-4.023,2.221-13.953,0.832-17.701c3.748,3.817,13.118,19.295,13.882,24.986
			c1.734-5.761,1.665-15.755-0.746-22.557c4.111,3.262,11.851,13.464,12.406,18.537c2.151-6.519-0.556-16.107-2.916-21.312
			c2.43,2.013,9.023,8.328,10.411,10.896c0.277-4.025-2.429-10.896-4.095-13.673C441.409,196.067,446.546,199.329,448.281,199.537z"
			/>
		<path fill="#FE78B5" d="M407.797,195.6c-0.014-0.046-0.023-0.092-0.037-0.139c-0.022-0.025-0.045-0.049-0.067-0.074
			C407.728,195.458,407.763,195.528,407.797,195.6z"/>
		<path fill="#FE78B5" d="M407.692,195.387c-0.764-1.521-1.863-2.779-3.062-3.977C405.454,192.843,406.55,194.137,407.692,195.387z"
			/>
		<path fill="#FE78B5" d="M411.773,191.833c0,2.241,0,4.482,0,6.724c3.104,3.299,6.179,6.548,8.329,10.489c0-1.11,0-1.666,0-2.776
			c0.555,2.776,2.776,4.442,2.776,7.218c0-3.425,0.521-7.109-0.224-10.52c-0.103,0.36-0.212,0.721-0.332,1.081
			C420.103,198.496,415.66,195.72,411.773,191.833z"/>
		<path fill="#FE78B5" d="M422.323,189.057c0.923,2.767,1.332,5.534,1.232,8.301c1.253,1.57,2.786,2.936,4.32,4.47
			c0-1.111,0-1.666,0-2.776c4.086,4.495,7.262,9.894,8.216,15.75c0.452-6.043-1.705-13.229-3.636-17.485
			c0.105,0.087,0.229,0.192,0.348,0.295c-0.38-0.479-0.725-0.979-1-1.535c0.157,0.999,0.318,1.996,0.514,2.975
			C429.542,195.165,426.21,191.833,422.323,189.057z"/>
		<path fill="#FE78B5" d="M439.629,186.651c-6.293-11.197-21.747-22.302-29.799-23.968c-4.534-2.869-21.84-6.57-32.204-5.089
			c-10.364,1.48-18.23,7.31-17.397,15.084c0.833,7.773,8.421,12.215,8.421,12.215l18.481,5.06c0,0,0.477,0.08,1.425,1.183
			c3.799,1.381,5.801,5.562,8.226,8.471c0-3.331,0.556-6.663-1.666-9.439c5.553,1.11,7.219,6.663,10.55,10.549
			c0-1.11,0-1.666,0-2.776c0.556,2.776,2.221,5.553,2.776,8.329c0-3.557,0.353-7.113-0.646-10.67
			c-0.034-0.072-0.069-0.142-0.104-0.213c-1.143-1.25-2.238-2.543-3.062-3.977c-1.315-1.313-2.745-2.56-3.961-4.019
			c3.331,0.555,5.553,3.887,8.884,4.998c-0.555-2.776-1.666-6.108-2.221-8.884c2.776,1.666,5.553,3.332,7.773,5.553
			c0-0.556,0-0.556,0-1.111c2.776,1.111,3.887,3.332,5.552,5.553c-0.555-3.332-1.665-6.108-3.331-8.884
			c4.441,1.11,7.218,4.442,9.994,7.218c0-0.555,0-1.11,0-1.666c1.111,0.555,1.666,1.666,2.222,2.221
			c-0.556-2.776-1.666-6.108-2.776-8.884c3.035,2.656,3.995,6.349,4.654,10.193c2.733,2.654,5.965,4.312,8.671,7.019
			c-0.555-3.332-2.221-6.107-3.331-8.884c4.769,1.301,8.183,4.295,11.3,7.659c0.075,0.017,0.155,0.037,0.222,0.045
			C447.309,196.067,443.238,189.798,439.629,186.651z"/>
		<path fill="#FFC9E1" d="M364.579,165.182c5.552-4.997,13.326-6.108,20.544-6.108c-0.556,0.555-1.667,0.555-2.222,1.111
			c9.994-1.666,20.544,0,27.762,7.218c0.556-1.11-1.11-2.221-1.11-3.332c6.107,1.666,11.66,4.997,15.547,9.994
			c0-0.555,0-0.555,0-1.11c3.857,2.806,7.715,5.834,11.433,9.083c-7.333-9.473-19.764-17.919-26.702-19.355
			c-4.534-2.869-21.84-6.57-32.204-5.089c-9.79,1.398-17.346,6.678-17.453,13.81C360.921,168.858,362.606,166.591,364.579,165.182z"
			/>
		<path fill="#9B1F63" d="M423.607,223.959l-0.171-1.272c-0.688-5.132-8.749-18.907-12.985-23.922
			c1.064,4.3,1.288,12.924-1.222,16.752l-0.39,0.595l-0.116-0.702c-0.839-5.103-6.392-15.012-9.684-19.703
			c0.423,3.756-0.268,9.531-0.597,11.308l-0.193,1.044l-0.343-1.005c-1.243-3.652-3.354-7.546-6.271-11.574
			c-2.557-3.528-4.816-5.858-4.84-5.882c0,0,2.707,1.992,5.289,5.557c2.681,3.701,4.688,7.296,5.98,10.701
			c0.383-2.694,0.89-8.157,0.249-11.188l-0.259-1.221l0.752,0.996c3.035,4.025,9.014,14.391,10.317,20.141
			c2.087-4.135,1.816-13.119,0.444-16.823l-0.451-1.217l0.909,0.925c3.343,3.404,12.025,17.396,13.722,23.97
			c1.33-5.558,1.318-14.584-1.046-21.253l-0.323-0.911l0.757,0.601c4.008,3.178,10.875,12.174,12.285,17.552
			c1.581-6.638-1.213-15.568-3.219-19.996l-0.498-1.096l0.928,0.768c2.284,1.892,7.912,7.271,9.972,10.181
			c-0.124-4.079-2.581-10.117-4.071-12.601l-0.553-0.921l0.931,0.538c0.508,0.294,1.109,0.653,1.761,1.042
			c2.407,1.437,5.62,3.354,7.202,3.823c-1.115-3.335-4.871-9.202-8.429-12.304l-0.06-0.073
			c-6.063-10.791-21.351-22.124-29.612-23.833l-0.093-0.038c-4.667-2.952-21.905-6.492-32.016-5.049
			c-10.87,1.553-17.926,7.631-17.161,14.78c0.808,7.54,8.211,11.962,8.286,12.005c0,0-8-4.125-8.838-11.947
			c-0.8-7.463,6.452-13.791,17.634-15.388c10.184-1.455,27.555,2.114,32.348,5.103c8.374,1.765,23.777,13.177,29.912,24.052
			c3.455,3.031,7.676,9.328,8.7,12.989l0.112,0.4l-0.412-0.05c-1.46-0.175-5.009-2.292-7.859-3.994
			c-0.305-0.183-0.599-0.357-0.878-0.523c1.645,3.144,3.893,9.188,3.634,12.936l-0.066,0.956l-0.455-0.843
			c-1.2-2.22-6.573-7.498-9.433-10.03c2.087,5.059,4.551,14.021,2.444,20.401l-0.4,1.214l-0.139-1.271
			c-0.501-4.577-7.233-13.857-11.554-17.716c2.239,7.153,2.016,16.541,0.436,21.785L423.607,223.959z"/>
	</g>
	<g>
		<path fill="#9B1F63" d="M422.582,202.045l-0.433-0.776c-1.515-2.728-8.813-10.795-12.066-13.649
			c0.813,2.76,1.03,7.413,0.787,9.726l-0.094,0.892l-0.427-0.79c-2.166-4.011-11.901-11.396-12-11.471c0,0,9.19,6.275,12.031,10.461
			c0.135-2.795-0.229-7.472-1.151-9.56l-0.429-0.971l0.85,0.637c2.581,1.936,10.102,10.094,12.526,13.715
			c0.203-4.293-0.95-10.641-2.451-13.142l-0.535-0.892l0.909,0.507c2.85,1.59,9.16,7.88,11.34,10.752
			c0.412-4.62-2.538-11.545-2.569-11.619c0,0,3.865,7.654,3.026,12.401l-0.121,0.688l-0.384-0.585
			c-1.437-2.186-7.453-8.325-10.722-10.616c1.408,3.206,2.386,9.481,2,13.406L422.582,202.045z"/>
	</g>
</g>
</svg>
