<?xml version="1.0" encoding="utf-8"?>
<!-- Generator: Adobe Illustrator 16.0.0, SVG Export Plug-In . SVG Version: 6.00 Build 0)  -->
<!DOCTYPE svg PUBLIC "-//W3C//DTD SVG 1.1//EN" "http://www.w3.org/Graphics/SVG/1.1/DTD/svg11.dtd">
<svg version="1.1" id="Layer_1" xmlns="http://www.w3.org/2000/svg" xmlns:xlink="http://www.w3.org/1999/xlink" x="0px" y="0px"
	 width="768px" height="430px" viewBox="0 0 768 430" enable-background="new 0 0 768 430" xml:space="preserve">
<g>
	<polygon fill="#FD991A" points="414.516,376.635 438.588,391.044 447.942,387.44 417.925,374.491 	"/>
	
		<linearGradient id="SVGID_1_" gradientUnits="userSpaceOnUse" x1="0.501" y1="430.501" x2="1.5005" y2="430.501" gradientTransform="matrix(228.3877 0 0 -228.3877 127.6812 98551.4062)">
		<stop  offset="0" style="stop-color:#DEDBD4"/>
		<stop  offset="1" style="stop-color:#CAC7C1"/>
	</linearGradient>
	<path fill="url(#SVGID_1_)" d="M459.853,371.177c-8.92,0.221-41.918-2.859-45.189-5.476c-2.749-2.2-13.608-24.865-16.998-32.029
		c1.37-1.812,2.18-4.734,2.16-9.179c19.201-8.552,29.285-23.65,48.037-23.792c0.198-3.567-10.703-10.306-15.063-10.306
		c4.163-3.567,16.253-4.162,16.253-4.162c-2.181-4.162-13.479-6.739-18.631-4.956c1.783-2.774,9.514-9.116,13.08-8.125
		c-2.179-2.973-15.458-3.766-21.206-0.199c0.792-2.973,7.135-8.721,7.135-8.721c-2.438-0.914-10.495,0.161-16.794-0.103
		c-0.158-2.01-1.264-3.968-2.828-5.051c24.578,3.567,22.596-10.307,16.649-12.288c22.198-1.188,16.152-15.856,6.342-17.937
		c13.081-5.055,1.189-17.838-7.73-18.136c-17.622-18.821-32.575-23.067-42.096-23.282c-1.577-13.564-1.048-25.34,3.15-32.016
		c11.595-18.432,36.865-25.865,33.595-57.082c-3.271-31.216-30.021-33.94-36.865-34.784c-16.858-2.078-40.143,10.789-38.187,41.316
		c-3.302,0.321-6.444-0.105-8.936-1.924c-9.364-6.838-19.026-7.135-20.513,0.887c-2.304,12.428,13.526,28.38,35.675,22.962
		c-2.304,7.292-13.154,12.569-13.823,19.556c-0.675,7.047,9.291,13.251,19.398,13.401c-0.723,2.404-1.808,4.996-3.345,7.855
		c-5.403,10.053-15.339,19.044-25.378,29.464c-14.654,1.004-31.887,3.904-38.442,11.727c3.32-6.491,1.365-16.152,1.365-16.152
		s9.09,2.898,14.888-0.297c3.567,1.982,13.675-1.19,11.067-10.505c3.996,0.197,10.14-2.18,6.842-10.505
		c2.901,0.594,9.441-0.991,6.617-7.829c-1.274-3.087-9.067-6.42-15.087-8.027c-1.463-0.39-2.857-0.798-4.211-1.156
		c0.874-3.209,3.232-12.476,2.798-17.574c-0.643-7.546-8.753-13.956-15.402-6.233c-3.678,4.271-0.301,10.721,0,19.165
		c0.082,2.291-0.103,3.979-0.368,5.207c-3.413,1.805-7.104,5.34-11.481,11.689c-11.986,17.381-32.183,19.566-42.613,48.11
		c-5.946,16.272,4.163,34.144,8.126,33.35c3.964-0.793,5.351-7.682,5.351-7.682s0.198,21.754,7.729,21.755
		c5.522,0.001,7.333-10.307,7.333-10.307s0.991,17.441,10.307,18.632c5.536,0.706,5.55-8.325,5.55-8.325s3.021,10.654,9.393,9.577
		c2.773,20.547,14.62,36.936,31.413,47.088c1.52,4.025,4.919,11.51,10.108,14.699c2.433,6.117,9.747,25.174,8.892,31.088
		c-1.022,7.081-18.793,3.895-30.324,1.486c-13.526-2.823-24.527,5.203-11.743,9.812c-6.986,3.122-3.865,15.608,10.703,8.473
		c14.567-7.135,23.486-8.473,23.486-8.473c-11,4.905-19.473,11.148-20.216,14.864c-0.744,3.718,2.823,10.406,15.311,0
		c12.486-10.405,20.514-13.675,24.081-12.039c3.567,1.634,14.388,2.725,14.419-2.825c0.034-6.029-8.157-7.048-11.802-7.925
		c-3.061-0.735-10.197-26.817-12.406-35.162c1.408-1.366,2.338-3.144,2.943-4.67c5.894,1.327,12.057,2.055,18.391,2.122
		c2.238,0.023,4.377-0.047,6.434-0.19c2.404,1.836,4.898,3.409,7.292,4.352c0.788,0.311,1.575,0.596,2.354,0.843
		c2.873,5,15.632,27.39,15.632,30.819c0,3.865-9.218,4.891-11,4.972c-3.271,0.148-4.014,4.84,2.898,6.772
		c6.912,1.932,6.881-1.236,15.386,3.962c9.811,5.997,16.529,13.198,22.445,15.362c6.095,2.229,15.312-1.421,6.393-9.299
		c-3.807-3.362-7.617-5.733-11.219-7.486c6.131,2.401,12.525,5.125,14.935,6.677c9.811,6.317,21.555,1.115,10.703-6.392
		c6.392,2.973,15.304,1.998,16.797-1.272C471.373,375.934,469.218,370.945,459.853,371.177z"/>
	
		<linearGradient id="SVGID_2_" gradientUnits="userSpaceOnUse" x1="0.5005" y1="430.5" x2="1.5005" y2="430.5" gradientTransform="matrix(15.082 0 0 -15.082 267.1543 6710.2832)">
		<stop  offset="0" style="stop-color:#F4F3F2"/>
		<stop  offset="1" style="stop-color:#A4A19C"/>
	</linearGradient>
	<path fill="url(#SVGID_2_)" d="M289.78,208.605c-4.582,6.382-9.586,12.217-15.082,17.72
		C281.228,221.631,287.146,216.495,289.78,208.605z"/>
	
		<linearGradient id="SVGID_3_" gradientUnits="userSpaceOnUse" x1="0.5" y1="430.5" x2="1.5" y2="430.5" gradientTransform="matrix(-72.0423 16.2096 16.2096 72.0423 -6604.9727 -30848.1406)">
		<stop  offset="0" style="stop-color:#F4F3F2"/>
		<stop  offset="0.227" style="stop-color:#DBD9D7"/>
		<stop  offset="0.5473" style="stop-color:#BDBBB7"/>
		<stop  offset="0.8165" style="stop-color:#ABA8A3"/>
		<stop  offset="1" style="stop-color:#A4A19C"/>
	</linearGradient>
	<path fill="url(#SVGID_3_)" d="M276.155,226.976c3.067-3.387,9.043-11.988,13.625-18.371c0.058-0.174,0.115-0.347,0.17-0.523
		c-0.226,0.235-0.441,0.476-0.647,0.721c3.32-6.491,1.365-16.152,1.365-16.152s9.09,2.898,14.888-0.297
		c3.567,1.982,13.675-1.19,11.067-10.505c3.996,0.197,10.14-2.18,6.842-10.505c2.901,0.594,9.441-0.991,6.617-7.829
		c-1.274-3.087-9.067-6.42-15.087-8.027c-1.463-0.39-2.857-0.798-4.211-1.156c0.874-3.209,3.232-12.476,2.798-17.574
		c-0.643-7.546-8.753-13.956-15.402-6.233c-3.678,4.271-0.301,10.721,0,19.165c0.082,2.291-0.103,3.979-0.368,5.207
		c-3.413,1.805-7.104,5.34-11.481,11.689c-11.986,17.381-32.183,19.566-42.613,48.11c-5.946,16.272,4.163,34.144,8.126,33.35
		c1.536-0.308,2.684-1.531,3.516-2.914c0.24-0.543,0.503-1.065,0.791-1.562c0.236-0.966,0.539-1.877,0.928-2.708
		c0.079-0.312,0.117-0.498,0.117-0.498s0.001,0.088,0.004,0.251c0.339-0.681-0.13-1.779,0.342-2.33
		C260.717,237.781,269.98,234.694,276.155,226.976z"/>
	<path fill="#DBD9D7" d="M289.95,208.082c-0.055,0.176-0.112,0.35-0.17,0.523c0.175-0.243,0.353-0.481,0.525-0.726
		c-0.173,0.245-0.351,0.483-0.525,0.726c-2.634,7.89-9.38,13.353-15.082,19.433c-4.86,4.865-11.537,8.972-17.157,10.246
		c-0.768,0.175,0.202,3.06-0.298,3.678c0.219,5.021,1.398,20.155,7.681,20.156c5.522,0.001,7.333-10.307,7.333-10.307
		s0.991,17.441,10.307,18.632c5.536,0.706,5.55-8.325,5.55-8.325s2.84,10.014,8.819,9.644c1.363-27.394,13.9-53.183,30.812-74.687
		C313.93,198.145,296.67,201.076,289.95,208.082z"/>
	
		<linearGradient id="SVGID_4_" gradientUnits="userSpaceOnUse" x1="0.5" y1="430.5" x2="1.5" y2="430.5" gradientTransform="matrix(1.2598 33.0729 33.0729 -1.2598 -13946.9043 721.4323)">
		<stop  offset="0" style="stop-color:#E3E1DF"/>
		<stop  offset="1" style="stop-color:#A4A19C"/>
	</linearGradient>
	<path fill="url(#SVGID_4_)" d="M289.95,208.082c-0.055,0.176-0.112,0.35-0.17,0.523c0.175-0.243,0.353-0.481,0.525-0.726
		c-0.173,0.245-0.351,0.483-0.525,0.726c-2.634,7.89-9.38,12.805-15.082,18.884c-4.86,4.866-13.338,8.842-17.157,10.795
		c-0.701,0.359,0.202,3.06-0.298,3.678c0.678,5.565,4.117,16.146,8.234,15.76c5.497-0.516,7.075-16.338,7.075-16.338
		s0.371,21.58,9.687,22.771c5.537,0.707,4.722-12.892,4.722-12.892s5.214,14.806,11.192,14.436
		c1.364-27.394,12.681-47.119,29.592-68.623C313.93,198.145,296.67,201.076,289.95,208.082z"/>
	<path fill="#DBD9D7" d="M459.853,371.177c-8.92,0.221-41.918-2.859-45.189-5.476c-2.749-2.2-13.608-24.865-16.998-32.029
		c1.37-1.812,2.18-4.734,2.16-9.179c19.201-8.552,29.285-23.65,48.037-23.792c0.198-3.567-10.703-10.306-15.063-10.306
		c4.163-3.567,16.253-4.162,16.253-4.162c-2.181-4.162-13.479-6.739-18.631-4.956c1.783-2.774,9.514-9.116,13.08-8.125
		c-2.179-2.973-15.458-3.766-21.206-0.199c0.792-2.973,7.135-8.721,7.135-8.721c-2.438-0.914-10.495,0.161-16.794-0.103
		c-0.158-2.01-1.264-3.968-2.828-5.051c24.578,3.567,22.596-10.307,16.649-12.288c22.198-1.188,16.152-15.856,6.342-17.937
		c13.081-5.055,1.189-17.838-7.73-18.136c-17.622-18.821-32.575-23.067-42.096-23.282c-1.577-13.564-1.048-25.34,3.15-32.016
		c11.595-18.432,36.865-25.865,33.595-57.082c-3.271-31.216-30.017-33.975-36.865-34.784c-16.516-1.95-40.143,10.789-38.187,41.316
		c-3.302,0.321-6.444-0.105-8.936-1.924c-9.364-6.838-19.026-7.135-20.513,0.887c-2.304,12.428,13.526,28.38,35.675,22.962
		c-2.304,7.292-13.154,12.569-13.823,19.556c-0.675,7.047,9.291,13.251,19.398,13.401c-0.723,2.404-1.808,4.996-3.345,7.855
		c-5.403,10.053-15.339,19.044-25.378,29.464c-0.54,0.037-1.084,0.077-1.63,0.12c-16.911,21.504-27.818,47.173-29.182,74.567
		c0.188-0.012,0.379-0.033,0.573-0.066c2.773,20.547,14.62,36.936,31.413,47.088c1.52,4.025,4.919,11.51,10.108,14.699
		c2.433,6.117,9.747,25.174,8.892,31.088c-1.022,7.081-18.793,3.895-30.324,1.486c-13.526-2.823-24.527,5.203-11.743,9.812
		c-6.986,3.122-3.865,15.608,10.703,8.473c14.567-7.135,23.486-8.473,23.486-8.473c-11,4.905-19.473,11.148-20.216,14.864
		c-0.744,3.718,2.823,10.406,15.311,0c12.486-10.405,20.514-13.675,24.081-12.039c3.567,1.634,14.388,2.725,14.419-2.825
		c0.034-6.029-8.157-7.048-11.802-7.925c-3.061-0.735-10.197-26.817-12.406-35.162c1.408-1.366,2.338-3.144,2.943-4.67
		c5.894,1.327,12.057,2.055,18.391,2.122c2.238,0.023,4.377-0.047,6.434-0.19c2.404,1.836,4.898,3.409,7.292,4.352
		c0.788,0.311,1.575,0.596,2.354,0.843c2.873,5,15.632,27.39,15.632,30.819c0,3.865-9.218,4.891-11,4.972
		c-3.271,0.148-4.014,4.84,2.898,6.772c6.912,1.932,6.881-1.236,15.386,3.962c9.811,5.997,16.529,13.198,22.445,15.362
		c6.095,2.229,15.312-1.421,6.393-9.299c-3.807-3.362-7.617-5.733-11.219-7.486c6.131,2.401,12.525,5.125,14.935,6.677
		c9.811,6.317,21.555,1.115,10.703-6.392c6.392,2.973,15.304,1.998,16.797-1.272C471.373,375.934,469.218,370.945,459.853,371.177z"
		/>
	
		<linearGradient id="SVGID_5_" gradientUnits="userSpaceOnUse" x1="0.5" y1="430.5" x2="1.5" y2="430.5" gradientTransform="matrix(-2.226 5.8479 5.8479 2.226 -2091.249 -595.2971)">
		<stop  offset="0" style="stop-color:#E3E1DF"/>
		<stop  offset="1" style="stop-color:#A4A19C"/>
	</linearGradient>
	<path fill="url(#SVGID_5_)" d="M459.853,371.177c-8.92,0.221-41.918-2.859-45.189-5.476c-2.749-2.2-13.608-24.865-16.998-32.029
		c0.28-0.372,0.523-1.018,0.732-1.841c-2.507,2.977-7.199,3.561-11.414,3.65c3.112,5.422,15.491,27.196,15.491,30.575
		c0,3.865-9.218,4.891-11,4.972c-3.271,0.148-4.014,4.84,2.898,6.772c6.912,1.932,6.881-1.236,15.386,3.962
		c9.811,5.997,16.529,13.198,22.445,15.362c6.095,2.229,15.312-1.421,6.393-9.299c-3.807-3.362-7.617-5.733-11.219-7.486
		c6.131,2.401,12.525,5.125,14.935,6.677c9.811,6.317,21.555,1.115,10.703-6.392c6.392,2.973,15.304,1.998,16.797-1.272
		C471.373,375.934,469.218,370.945,459.853,371.177z"/>
	
		<linearGradient id="SVGID_6_" gradientUnits="userSpaceOnUse" x1="0.5" y1="430.5" x2="1.5" y2="430.5" gradientTransform="matrix(-3.1884 8.3764 8.3764 3.1884 -3263.2437 -1014.5427)">
		<stop  offset="0" style="stop-color:#E3E1DF"/>
		<stop  offset="1" style="stop-color:#A4A19C"/>
	</linearGradient>
	<path fill="url(#SVGID_6_)" d="M347.92,364.57c-1.022,7.081-18.793,3.895-30.324,1.486c-13.526-2.823-24.527,5.203-11.743,9.812
		c-6.986,3.122-3.865,15.608,10.703,8.473c14.567-7.135,23.486-8.473,23.486-8.473c-11,4.905-19.473,11.148-20.216,14.864
		c-0.744,3.718,2.823,10.406,15.311,0c12.486-10.405,20.514-13.675,24.081-12.039c3.567,1.634,14.388,2.725,14.419-2.825
		c0.034-6.029-8.157-7.048-11.802-7.925c-3.061-0.735-10.197-26.817-12.406-35.162c0.386-0.374,0.732-0.781,1.049-1.203
		c-3.832,0.778-7.486,2.199-11.214,2.496C341.896,340.743,348.75,358.835,347.92,364.57z"/>
	
		<linearGradient id="SVGID_7_" gradientUnits="userSpaceOnUse" x1="0.5" y1="430.5" x2="1.5" y2="430.5" gradientTransform="matrix(22.5627 53.6719 53.6719 -22.5627 -22737.5898 9820.9268)">
		<stop  offset="0" style="stop-color:#E3E1DF"/>
		<stop  offset="1" style="stop-color:#A4A19C"/>
	</linearGradient>
	<path fill="url(#SVGID_7_)" d="M382.378,180.982c-0.713-10.8,0.229-19.97,3.745-25.561c11.595-18.432,36.865-25.865,33.595-57.082
		c-3.271-31.216-30.011-34.028-36.865-34.784c-16.516-1.821-40.143,10.789-38.187,41.316c-3.302,0.321-6.444-0.105-8.936-1.924
		c-9.364-6.838-19.026-7.135-20.513,0.887c-2.304,12.428,13.526,28.38,35.675,22.962c-2.304,7.292-13.154,12.569-13.823,19.556
		c-0.675,7.047,9.291,13.251,19.398,13.401c-0.723,2.404-1.808,4.996-3.345,7.855c-2.765,5.143-6.72,10.009-11.264,14.93
		C355.366,181.657,368.872,180.746,382.378,180.982z"/>
	
		<linearGradient id="SVGID_8_" gradientUnits="userSpaceOnUse" x1="0.5" y1="430.5" x2="1.5" y2="430.5" gradientTransform="matrix(89.5386 105.3195 105.3195 -89.5386 -45037.2109 38723.1211)">
		<stop  offset="0" style="stop-color:#E3E1DF"/>
		<stop  offset="1" style="stop-color:#A4A19C"/>
	</linearGradient>
	<path fill="url(#SVGID_8_)" d="M432.799,290.396c4.163-3.567,16.253-4.162,16.253-4.162c-2.181-4.162-13.479-6.739-18.631-4.956
		c1.783-2.774,9.514-9.116,13.08-8.125c-2.179-2.973-15.458-3.766-21.206-0.199c0.792-2.973,7.135-8.721,7.135-8.721
		c-2.438-0.914-10.495,0.161-16.794-0.103c-0.158-2.01-1.264-3.968-2.828-5.051c24.578,3.567,22.596-10.307,16.649-12.288
		c22.198-1.188,16.152-15.856,6.342-17.937c13.081-5.055,1.189-17.838-7.73-18.136c-17.622-18.821-32.575-23.067-42.096-23.282
		c-0.257-2.204-0.456-4.36-0.595-6.455c-13.506-0.236-27.012,0.675-40.519,1.559c-4.338,4.697-9.212,9.445-14.114,14.535
		c-0.54,0.037-1.084,0.077-1.63,0.12c-16.911,21.504-27.818,47.173-29.182,74.567c0.188-0.012,0.379-0.033,0.573-0.066
		c2.556,18.938,12.823,34.338,27.562,44.583c-0.104-0.101-0.201-0.21-0.285-0.336c0.084,0.126,0.182,0.235,0.285,0.336
		c0.217,0.151,0.432,0.304,0.651,0.452c1.167,0.567,2.665,0.362,2.665,0.756c2.059,5.66,7.204,9.263,12.351,11.835
		c2.572,1.029,6.175,0.515,9.263-1.028c7.403-2.313,15.223,1.195,23.083,1.927c1.257-0.022,2.482-0.073,3.679-0.151
		c0.639-0.305,1.201-0.747,1.54-0.747c5.591,0.787,12.882,4.92,16.773-0.777c0.903-3.276,2.409-8.118,2.396-11.259
		c9.998,3.246,28.56-20.326,50.393-16.584C448.061,297.134,437.159,290.396,432.799,290.396z"/>
	<path fill="#F8F8F7" d="M256.858,218.686c3.087-6.176,5.66-12.351,9.263-18.526c4.342-7.236,8.231-15.83,16.757-18.996
		c12.719-9.782,19.135-23.401,25.954-38.124c0.451-5.423,0.505-12.037-4.021-16.007c-2.161-0.027-4.474,0.984-6.632,3.491
		c-3.678,4.271-0.301,10.721,0,19.165c0.082,2.291-0.103,3.979-0.368,5.207c-3.413,1.805-7.104,5.34-11.481,11.689
		c-11.986,17.381-32.183,19.566-42.613,48.11c-3.658,10.011-1.238,20.618,2.087,27.121c2.813,0.699,5.788,0.366,8.48-1.519
		c2.059-2.059,2.573-4.632,2.573-7.719c0.03,0.104,0.071,0.195,0.106,0.293C255.773,228.122,254.736,223.282,256.858,218.686z"/>
	<path fill="#EEEDEA" d="M330.082,163.514c-1.094-2.65-6.99-5.48-12.445-7.245c0.519,0.324,1.017,0.709,1.486,1.179
		c-0.47-0.47-0.968-0.855-1.486-1.179c-0.9-0.292-1.789-0.555-2.642-0.782c-0.969-0.258-1.899-0.519-2.815-0.773
		c-2.817-0.238-5.797-0.058-8.494-0.867c5.896-6.878,8.503-17.507,4.696-25.621c-2.339-1.221-4.924-0.898-6.529,1.832
		c-2.856,4.859-0.299,14.986,0.002,23.431c0.082,2.29-3.777,0.18-4.043,1.408c-3.413,1.805-3.652,8.096-8.031,14.444
		c-11.986,17.381-32.27,18.541-42.7,47.086c-3.658,10.01-0.66,20.16,2.665,26.663c1.581,2.667,5.124,1.042,6.025-0.875
		c1.865-2.904,1.463-4.69,1.088-9.636c1.029,3.603,5.146,3.087,7.719,2.059c4.334-1.667,8.011-5.067,10.349-9.351
		c0.535-2.182,1.113-4.358,1.486-6.602c-3.087,2.058-6.689,2.572-10.292,3.087c5.66-4.117,11.321-7.719,15.437-13.379
		c-3.602,2.572-8.233,2.058-12.35,2.058c10.292-1.029,16.981-12.351,16.981-22.127c5.66,0,11.836,4.117,17.496,0.514
		c0-0.514,0-1.543,0-2.058c2.573,0.515,6.175-0.514,6.689-3.087c1.029-2.573,0-5.146-1.029-7.204c3.088,0,6.69,0.515,8.233-1.544
		c3.088-2.573-1.543-7.719-5.146-8.748c5.146-0.515,10.807,1.029,15.952-0.515c1.039-0.173,1.604-0.876,1.827-1.824
		C330.17,163.744,330.131,163.631,330.082,163.514z"/>
	<path fill="#EEEDEA" d="M368.372,320.531c-0.372-0.287-0.844-0.473-1.392-0.473C367.456,320.179,367.919,320.341,368.372,320.531z"
		/>
	<path fill="#FD991A" d="M338.841,333.355l0.188,0.127c2.433,6.117,9.747,25.174,8.892,31.088
		c-1.022,7.081-18.793,3.895-30.324,1.486c-13.526-2.823-24.527,5.203-11.743,9.812c-6.986,3.122-3.865,15.608,10.703,8.473
		c14.567-7.135,23.486-8.473,23.486-8.473c-11,4.905-19.473,11.148-20.216,14.864c-0.744,3.718,2.823,10.406,15.311,0
		c12.486-10.405,20.514-13.675,24.081-12.039c3.567,1.634,14.388,2.725,14.419-2.825c0.034-6.029-8.157-7.048-11.802-7.925
		c-3.061-0.735-10.197-26.817-12.406-35.162c0.825-0.801,1.482-1.742,2.01-2.691C347.47,332.95,343.208,333.702,338.841,333.355z"/>
	<path fill="#FEE1A3" d="M325.299,389.528c1.028,1.544,3.602,0,5.146-0.515c12.35-5.66,18.782-17.353,33.191-14.266
		c1.029,0.515,0,0-0.516-0.515c-2.058-2.059-4.631-1.887-5.66-4.46c-5.749-11.977-7.98-24.198-11.346-37.067
		c-2.368,0.689-4.804,0.846-7.273,0.649l0.188,0.127c2.433,6.117,9.747,25.174,8.892,31.088c-1.022,7.081-18.793,3.895-30.324,1.486
		c-4.636-0.967-8.976-0.66-12.162,0.346c-3.549,3.628-2.426,5.924,1.34,8.718c0,0,1.029,0,2.059,0c0,8.228,6.394,7.776,12.793,6.862
		c11.539-5.082,18.417-6.114,18.417-6.114c-3.772,1.682-7.246,3.521-10.215,5.362c0.211,0.017,0.418,0.036,0.617,0.064
		C327.871,383.868,322.726,385.927,325.299,389.528z"/>
	<path fill="#FDB31A" d="M324.526,390.197c1.029,1.543,4.374,0.16,5.918-0.354c12.425-7.257,18.496-16.496,37.54-12.235
		c1.029,0.515,2.221-3.805-2.033-4.261c-2.895-0.31-6.175-0.799-7.205-3.372c-5.748-11.977-9.267-24.399-12.632-37.269
		c-2.368,0.689-4.804,0.846-7.273,0.649l3.125-1.524c2.433,6.117,10.764,27.986,9.834,33.89c-1.287,8.17-22.689,5.688-34.22,3.279
		c-4.637-0.967-10.807,0.259-13.908,2.063c-3.549,3.628-0.664,1.263,3.102,4.057c0,0,1.029,0,2.059,0
		c-2.018,9.248,6.394,7.776,12.793,6.862c11.539-5.082,18.417-6.114,18.417-6.114c-3.772,1.682-7.246,3.521-10.215,5.362
		c0.211,0.017,0.418,0.036,0.617,0.064C327.871,383.868,321.953,386.596,324.526,390.197z"/>
	<path fill="#FD991A" d="M459.853,371.177c-8.92,0.221-41.918-2.859-45.189-5.476c-2.749-2.2-13.608-24.865-16.998-32.029
		c0.679-0.897,1.22-2.07,1.59-3.563c-3.161,3.349-7.621,5.143-12.417,5.128l0.005,0.001c2.873,5,15.632,27.39,15.632,30.819
		c0,3.865-9.218,4.891-11,4.972c-3.271,0.148-4.014,4.84,2.898,6.772c6.912,1.932,6.881-1.236,15.386,3.962
		c9.811,5.997,16.529,13.198,22.445,15.362c6.095,2.229,15.312-1.421,6.393-9.299c-3.807-3.362-7.617-5.733-11.219-7.486
		c6.131,2.401,12.525,5.125,14.935,6.677c9.811,6.317,21.555,1.115,10.703-6.392c6.392,2.973,15.304,1.998,16.797-1.272
		C471.373,375.934,469.218,370.945,459.853,371.177z"/>
	<path fill="#FEE1A3" d="M410.01,367.967c-0.163-0.057-0.327-0.107-0.49-0.165c-4.823-11.576-11.681-22.785-15.206-35.096
		c-2.428,1.239-4.598,2.539-7.476,2.53l0.005,0.001c2.873,5,15.632,27.39,15.632,30.819c0,3.865-9.218,4.891-11,4.972
		c-3.271,0.148-4.014,4.84,2.898,6.772c5.209,1.456,6.477,0.017,10.423,1.442C408.072,376.398,410.139,372.453,410.01,367.967z"/>
	<path fill="#FDB31A" d="M451.115,386.24c2.059-0.514,1.678-2.466,0.648-4.524c-0.515-1.028-10.013-5.564-11.557-5.564
		c4.116,0,21.716,3.092,23.173,1.342c1.544-1.029,0.818-3.465-0.726-3.979c-16.468-4.117-35.932-1.027-51.884-6.688
		c-4.823-11.576-12.347-21.158-15.872-33.468c-2.428,1.239-5.183,1.887-8.061,1.878l3.004-0.239c2.873,5,17.104,28.86,17.104,32.29
		c0,3.864-11.597,6.094-13.379,6.175c-3.27,0.148-6.106,2.406,0.806,4.339c6.912,1.932,6.881-1.236,15.386,3.962
		c2.117,1.295,4.091,2.646,5.944,3.99c5.755,2.102,8.016,6.065,13.765,8.719c1.543,0.516,6.125,1.938,8.011-0.254
		c3.021-2.59-0.414-5.597-1.573-8.606c-2.901-2.227-5.775-3.932-8.527-5.271c6.131,2.401,12.525,5.125,14.935,6.677
		c0.236,0.152-0.791-2.271-0.554-2.132C444.664,385.901,448.136,387.596,451.115,386.24z"/>
	<path fill="#F8F8F7" d="M352.532,176.622c-3.471,3.242-7.466,5.777-11.995,7.338c-2.352,2.495-4.839,5.011-7.388,7.593
		c-3.29,4.6-7.273,8.759-10.938,13.238c-16.966,19.034-24.939,43.723-24.473,68.452c1.328,8.36,4.174,16.006,8.246,22.799
		c0.414-18.116,2.837-35.841,12.624-51.628C331.911,222.56,359.688,203.336,352.532,176.622z"/>
	
		<linearGradient id="SVGID_9_" gradientUnits="userSpaceOnUse" x1="0.4995" y1="430.5" x2="1.5" y2="430.5" gradientTransform="matrix(19.6851 0 0 -19.6851 348.8137 8603.4023)">
		<stop  offset="0" style="stop-color:#ED9198"/>
		<stop  offset="0.9636" style="stop-color:#CD1F33"/>
		<stop  offset="1" style="stop-color:#CD1F33"/>
	</linearGradient>
	<path fill="url(#SVGID_9_)" d="M358.746,140.468c1.544-3.088,4.374-5.733,6.947-7.792c1.029-1.029,1.801-1.472,2.315-2.501
		c4.578-4.12,6.947-7.919,10.331-12.686c-4.952,2.417-9.265,3.837-13.138,4.494C359.66,126.25,358.254,134.061,358.746,140.468z"/>
	
		<linearGradient id="SVGID_10_" gradientUnits="userSpaceOnUse" x1="0.5" y1="430.5" x2="1.5" y2="430.5" gradientTransform="matrix(62.915 0 0 -62.915 291.5112 27215.1113)">
		<stop  offset="0" style="stop-color:#CD1F33"/>
		<stop  offset="0.1879" style="stop-color:#CD1F33"/>
		<stop  offset="1" style="stop-color:#60070C"/>
	</linearGradient>
	<path fill="url(#SVGID_10_)" d="M378.34,117.489c-4.541,5.796-5.753,8.566-10.331,12.686c-0.515,1.029-2.701,2.887-3.73,3.917
		c-2.572,2.059-3.988,3.288-5.532,6.376c-0.492-6.407,0.914-14.218,6.456-18.485c-14.384,2.439-22.681-5.652-34.989-12.334
		c-2.058-1.029-7.23-0.857-7.23,1.715c0,11.835,20.134,18.128,29.942,13.336c-0.515,7.204-3.44,11.65-8.072,17.311
		c-2.572,2.573,0,8.233,4.117,8.748c8.233,1.544,16.981,0.515,21.098-7.719c4.953-10.4,10.383-19.852,15.83-29.722
		C383.218,114.954,380.706,116.334,378.34,117.489z"/>
	<path fill="#FD781A" d="M392.71,106.504c-1.544-2.573-4.632,0.515-6.69,1.029c-7.204,2.573-11.835-3.088-17.495-7.205
		c-1.03-1.029-3.088-1.543-5.146-0.514c-6.08,3.04-12.161,5.573-18.732,4.668c0.008,0.13,0.012,0.258,0.021,0.389
		c-3.302,0.321-6.444-0.105-8.936-1.924c-9.364-6.838-19.026-7.135-20.513,0.887c-2.304,12.428,13.526,28.38,35.675,22.962
		c-2.304,7.292-13.154,12.569-13.823,19.556c-0.675,7.047,9.291,13.251,19.398,13.401l-0.083,0.262
		c8.983-2.837,14.026-2.34,21.315-18.024c4.595-11.253,9.91-18.703,15.01-29.828C393.738,110.106,393.738,107.534,392.71,106.504z
		 M385.897,113.318c-7.207,9.109-11.82,18.349-16.773,28.75c-4.116,8.233-11.921,10.235-20.154,8.691
		c-4.117-0.514-6.361-7.683-3.788-10.255c4.631-5.661,7.229-8.599,7.743-15.803c-12.789,5.51-32.258-7.419-29.942-12.586
		c1.053-2.348,3.174-3.831,7.23-2.466C348.768,115.894,353.094,132.033,385.897,113.318
		C386.11,112.933,386.11,112.933,385.897,113.318C386.638,112.643,386.638,112.643,385.897,113.318z"/>
	<path fill="#FEE1A3" d="M328.9,106.562c0.653,0.219,1.287,0.456,1.907,0.704c0.734,0.226,1.472,0.488,2.21,0.783
		c14.408,5.66,29.331,13.379,45.283,8.748c4.507-1.387,10.227-6.667,11.321-10.835l-3.603,1.573
		c-7.204,2.573-11.835-3.088-17.495-7.205c-1.03-1.029-3.774-1.83-5.832-0.801c-6.081,3.04-11.476,5.86-18.047,4.955
		c0.008,0.13,0.012,0.258,0.021,0.389c-3.302,0.321-6.444-0.105-8.936-1.924c-9.364-6.838-19.026-7.135-20.513,0.887
		c-0.355,1.917-0.277,3.919,0.187,5.913c2.291-2.021,4.893-3.082,7.661-3.377C324.841,105.919,326.945,105.903,328.9,106.562z"/>
	<path fill="#FDB31A" d="M392.71,106.504c-1.544-2.573-5.061,1.601-7.118,2.115c-7.205,2.573-10.035,0.686-15.695-3.431
		c-1.029-1.029-3.458-3.913-6.711-3.479c-3.558,0.474-7.698,2.878-11.214,9.139c0.908-3.732,1.753-5.508,2.258-6.089
		c-0.008,0.593-2.863,1.5-5.171,2.284c-1.893,0.643-6.521,0.969-8.727,0.086c-1.744,0.064,1.127,2.349-0.309,1.376
		c-8.197-5.554-20.894-10.069-23.362-2.293c-2.684,8.452,12.083,26.001,34.231,20.584c-2.304,7.292-13.154,12.569-13.823,19.556
		c-0.244,2.554,2.448,6.19,4.377,7.546c2.885,2.029,6.706,2.469,10.138,2.529c6.41,0.111,12.669-0.999,17.015-6.058
		c3.393-3.949,6.498-9.211,8.463-14.02c4.595-11.253,10.549-13.061,15.648-24.186C393.738,110.106,393.738,107.534,392.71,106.504z
		 M385.897,113.318c-5.623,7.051-11.82,18.349-16.773,28.75c-4.116,8.233-11.921,10.235-20.154,8.691
		c-4.117-0.514-5.489-8.262-2.916-10.835c4.632-5.661,7.193-9.435,6.871-15.223c-12.789,5.51-33.158-6.881-31.702-14.671
		c0.474-2.529,3.621-4.834,7.678-3.468C347.455,112.806,351.646,131.278,385.897,113.318
		C386.11,112.933,386.11,112.933,385.897,113.318C386.638,112.643,386.638,112.643,385.897,113.318z"/>
	<path fill="#F8F8F7" d="M419.718,98.34c-3.271-31.216-30.014-33.999-36.865-34.784c-16.645-1.907-39.947,10.68-38.207,40.927
		c6.571,0.905,12.652-1.628,18.732-4.668c2.059-1.029,4.116-0.515,5.146,0.514c5.66,4.117,10.291,9.777,17.495,7.205
		c2.059-0.515,5.146-3.603,6.69-1.029c1.028,1.029,1.028,3.602,0,5.661c-5.1,11.125-11.445,21.003-16.041,32.256
		c0.348-0.763,0.691-1.571,1.031-2.428c0.515-1.544,8.835-3.069,13.466-4.613c-4.117,2.058-8.748,4.117-10.807,8.233
		c-0.515,1.029,2.059,0,3.603,0.514c-6.69,2.059-10.464,11.722-12.007,18.411c-1.373-2.745-3.946-4.517-3.946-4.517
		c-0.921,0.729-1.028,6.175-4.631,7.205c0.515-1.544-1.544-2.059-1.544-3.087c-4.84,9.241-11.94,16.596-21.297,19.821
		c-2.318,2.459,0.995,1.045-1.517,3.588c-0.652,0.978-2.57,4.01-3.101,5.072c-2.059,4.116-9.078,10.627-11.136,14.744
		c-9.263,16.982-19.805,22.871-21.521,47.228c-0.77,10.936-0.084,27.273,6.032,40.547c4.17,8.011,4.821,12.553,11.853,18.208
		c6.382,3.012,12.8,6.096,19.588,8.256c2.572,1.029,5.66,1.544,6.175-2.058c6.175,5.146,10.239,7.747,17.958,5.174
		c0,0,2.454-0.357,2.808-3.059c0.247-0.516-0.221-1.481-0.696-1.602c0.548,0,0.323,0.371,0.696,0.658
		c4.198,2.485,10.15,8.961,16.8,7.062c0.514,0,0.514-2.059,0.514-3.088c1.545,2.572,4.117,6.175,6.176,4.631
		c2.058-1.028,0.515-4.631-1.029-6.689c1.029,1.544,3.087,2.573,4.631,1.544c2.879-3.238-0.413-10.438-1.286-14.609
		c-1.987-3.777-1.414-4.326-4.105-5.55c-10.291-5.661-14.949-4.829-27.542-9.172c5.146-3.202,5.146-3.202,7.719-4.232
		c-10.292-7.203-19.04-14.293-24.7-25.614c-1.029-2.059-2.059-5.146-1.544-7.719c1.544,1.029,3.603,2.573,5.661,3.087
		c0-6.689-1.029-12.864-0.515-19.554c1.544,1.544,4.116,5.146,4.116,3.602c3.81-13.811,10.712-24.09,21.101-32.073
		c-3.378-6.265-4.495-13.942-2.672-19.506c1.923-5.868,6.406-4.4,11.972-5.404c-1.576-13.562-1.047-25.335,3.151-32.01
		C397.718,136.989,422.988,129.556,419.718,98.34z"/>
	<path fill="#EEEDEA" d="M419.718,98.34c-3.271-31.216-25.017-31.535-31.854-32.427c-17.586-2.293-40.199,7.82-38.459,38.067
		c5.51-0.868,7.207-1.412,13.288-4.452c2.058-1.029,4.802-0.228,5.832,0.801c5.66,4.117,10.291,9.777,17.495,7.205
		c2.059-0.515,5.146-3.603,6.69-1.029c1.028,1.029,1.028,3.602,0,5.661c-5.1,11.125-11.445,21.003-16.041,32.256
		c0.348-0.763,0.691-1.571,1.031-2.428c0.515-1.544,8.835-3.069,13.466-4.613c-4.117,2.058-8.748,4.117-10.807,8.233
		c-0.515,1.029,2.059,0,3.603,0.514c-6.69,2.059-10.464,11.722-12.007,18.411c-1.373-2.745-3.946-4.517-3.946-4.517
		c-0.921,0.729-1.028,6.175-4.631,7.205c0.515-1.544-1.544-2.059-1.544-3.087c-4.84,9.241-11.94,16.596-21.297,19.821
		c-2.318,2.459,0.995,1.045-1.517,3.588c-0.652,0.978-2.57,4.01-3.101,5.072c-2.059,4.116-9.078,10.627-11.136,14.744
		c-5.702,7.789-19.805,22.871-21.521,47.228c-0.77,10.936-0.084,27.273,6.032,40.547c4.17,8.011,4.821,12.553,11.853,18.208
		c6.382,3.012,12.8,6.096,19.588,8.256c2.572,1.029,5.66,1.544,6.175-2.058c6.175,5.146,10.239,7.747,17.958,5.174
		c0,0,2.454-0.357,2.808-3.059c0.247-0.516-0.221-1.481-0.696-1.602c0.548,0,0.323,0.371,0.696,0.658
		c4.198,2.485,10.15,8.961,16.8,7.062c0.514,0,0.514-2.059,0.514-3.088c1.545,2.572,4.117,6.175,6.176,4.631
		c2.058-1.028,0.515-4.631-1.029-6.689c1.029,1.544,3.087,2.573,4.631,1.544c2.879-3.238-0.413-10.438-1.286-14.609
		c-1.987-3.777-1.414-4.326-4.105-5.55c-10.291-5.661-14.949-4.829-27.542-9.172c5.146-3.202,5.146-3.202,7.719-4.232
		c-10.292-7.203-19.04-14.293-24.7-25.614c-1.029-2.059-2.059-5.146-1.544-7.719c1.544,1.029,3.603,2.573,5.661,3.087
		c0-6.689-1.029-12.864-0.515-19.554c1.544,1.544,4.116,5.146,4.116,3.602c3.81-13.811,10.712-24.09,21.101-32.073
		c-3.378-6.265-4.495-13.942-2.672-19.506c1.923-5.868,6.406-4.4,11.972-5.404c-1.576-13.562-1.047-25.335,3.151-32.01
		C397.718,136.989,422.988,129.556,419.718,98.34z"/>
	<path fill="#EEEDEA" d="M405.06,272.717c2.573,0,6.175-0.515,7.204,1.029c2.059,3.088-4.631,6.175-3.087,10.807
		c2.058-1.029,4.116,0,6.175-1.029c-2.573,2.572-5.66,6.175-5.146,10.292c2.572-4.117,7.204-4.117,11.32-3.088
		c-4.116,4.117-9.776,8.748-9.776,14.924c7.363-7.856,21.283-7.746,31.484-4.592c1.488-0.217,3.024-0.346,4.628-0.358
		c0.198-3.567-10.703-10.306-15.063-10.306c4.163-3.567,16.253-4.162,16.253-4.162c-2.181-4.162-13.479-6.739-18.631-4.956
		c1.783-2.774,9.514-9.116,13.08-8.125c-2.179-2.973-15.458-3.766-21.206-0.199c0.792-2.973,7.135-8.721,7.135-8.721
		c-1.983-0.743-7.688-0.17-13.139-0.072C414.069,268.209,408.972,270.762,405.06,272.717z"/>
	<path fill="#F8F8F7" d="M380.359,195.014c-0.36-2.521-0.217-4.792-0.098-7.162c-4.378,0.624-7.991,1.158-9.68,6.018
		c-3.749,10.791,3.773,24.843,16.256,33.911c0.878-0.472,1.729-0.986,2.562-1.53c-4.304-6.955-4.38-15.9-5.952-24.547
		C382.933,199.645,380.874,197.587,380.359,195.014z"/>
	<path fill="#DBD9D7" d="M432.799,228.854c13.081-5.055,1.189-17.838-7.73-18.136c-5.249-5.607-10.261-9.912-14.964-13.211
		c-4.7,12.112-12.065,24.247-23.267,30.273l0.211,0.167c-10.895,10.944-21.556,19.319-26.759,27.787
		c-6.652,10.829,3.464,26.992,9.885,31.538c10.148,7.186,42.26,7.456,37.973-6.838c-2.059-7.204-13.895-1.543-20.584,0
		c4.631-3.602,4.117-9.263,3.603-14.408c4.631,3.603,11.321,4.116,16.467,2.572c2.123-0.707,4.003-2.389,4.97-4.709
		c-0.224-1.924-1.293-3.772-2.795-4.812c24.578,3.567,22.596-10.307,16.649-12.288C448.655,245.603,442.609,230.935,432.799,228.854
		z"/>
	
		<linearGradient id="SVGID_11_" gradientUnits="userSpaceOnUse" x1="0.5" y1="430.502" x2="1.5" y2="430.502" gradientTransform="matrix(36.3645 79.9329 79.9329 -36.3645 -34052.2188 15816.0166)">
		<stop  offset="0" style="stop-color:#F4F3F2"/>
		<stop  offset="1" style="stop-color:#A4A19C"/>
	</linearGradient>
	<path fill="url(#SVGID_11_)" d="M427.646,228.854c13.081-5.054,7.518-15.258-2.577-18.136c-5.249-5.607-25.196-21.58-34.511-21.58
		c-4.701,12.112,7.481,32.616-3.72,38.642l0.211,0.167c-10.895,10.944-21.556,19.319-26.759,27.787
		c-6.652,10.829,3.464,26.992,9.885,31.538c10.148,7.186,42.26,7.456,37.973-6.838c-2.059-7.204-16.811,0.229-23.5,1.772
		c4.632-3.603,5.272-11.664,2.059-18.351c4.631,3.602,11.32,4.113,16.469,2.569c5.625-1.876,1.458-9.295-1.718-11.492
		c24.577,3.567,22.07-9.683,16.124-11.664C439.78,242.081,438.337,236.331,427.646,228.854z"/>
	<path fill="#F8F8F7" d="M372.641,254.191c8.233-7.204,21.098-11.321,24.186-22.127c3.414-11.705-8.886-22.48-20.257-27.08
		c0.29,8.676,4.762,17.542,10.479,22.963c-10.895,10.944-20.068,18.188-26.759,27.787c-5.806,8.331,0.326,20.816,5.871,27.589
		C363.938,272.858,364.907,261.111,372.641,254.191z"/>
	<path fill="#EEEDEA" d="M386.02,260.881c3.088-2.058,3.088-6.175,3.603-9.777c2.572,3.088,7.719,2.059,9.263-1.543
		c1.544-3.088,1.544-6.69,1.544-10.292c3.087,3.602,8.748,4.631,11.321,2.573c3.602-3.603,1.543-10.806,0-15.952
		c0.944,3.149,10.221,4.229,12.526,2.84c7.09-4.27-0.194-13.113-4.27-15.819c-5.441-3.615-9.187-9.031-13.897-13.442
		c-4.423-4.142-9.985-7.905-15.552-10.329c-2.397-1.043-4.965-1.646-7.586-1.708c-5.565,1.004-9.406-1.418-11.433,4.414
		c-3.773,10.862,8.562,29.339,19.369,37.573c-10.895,10.944-20.068,17.805-26.758,27.403c-6.412,9.199-2.125,22.381,3.711,28.424
		c0.186-8.386,2.147-16.76,5.809-24.364C377.271,263.454,382.933,263.454,386.02,260.881z"/>
	
		<linearGradient id="SVGID_12_" gradientUnits="userSpaceOnUse" x1="0.5" y1="430.5" x2="1.5" y2="430.5" gradientTransform="matrix(166.5107 477.6219 477.6219 -166.5107 -205417.5 71438.5234)">
		<stop  offset="0" style="stop-color:#0040C4"/>
		<stop  offset="0.8727" style="stop-color:#00ABC4"/>
		<stop  offset="1" style="stop-color:#00ABC4"/>
	</linearGradient>
	<path fill="url(#SVGID_12_)" d="M414.516,375.72c0.157,0.045,0.317,0.091,0.479,0.138
		C414.819,375.805,414.656,375.758,414.516,375.72z"/>
	<path fill="#FD991A" d="M314.749,384.341l7.204,3.529l27.359-13.722c0,0-4.145-1.802-13.393,0
		C326.671,375.948,314.749,384.341,314.749,384.341z"/>
	<path fill="#D15400" d="M339.176,333.853c2.562,6.473,9.583,24.915,8.744,30.718c-1.022,7.081-18.793,3.895-30.324,1.486
		c-13.526-2.823-24.527,5.203-11.743,9.812c-6.986,3.122-3.865,15.608,10.703,8.473c14.567-7.135,23.486-8.473,23.486-8.473
		c-11,4.905-19.473,11.148-20.216,14.864c-0.744,3.718,2.823,10.406,15.311,0c12.486-10.405,20.514-13.675,24.081-12.039
		c3.567,1.634,14.388,2.725,14.419-2.825c0.034-6.029-8.157-7.048-11.802-7.925c-3.061-0.735-10.197-26.817-12.406-35.162
		l0.146-0.153C346.408,334.876,342.541,335.219,339.176,333.853z M347.863,333.979c2.358,8.434,10.101,35.695,11.948,36.158
		c2.974,0.743,10.454,0.29,11.149,5.797c0.595,4.708-8.423,3.105-11.991,1.471c-3.567-1.635-11.117,1.409-23.783,11.595
		c-10.901,8.765-13.727,5.366-12.982,1.651c0.743-3.717,12.288-11.512,23.288-16.417c0,0-13.676,1.189-28.243,8.325
		c-13.024,6.379-13.798-1.577-9.018-5.436c5.4-4.36,26.306-5.185,28.145-5.367c-0.8-0.288-24.676,0.396-29.284,3.319
		c-9.553-4.462,2.031-8.655,12.209-7.227c11.666,1.636,29.826,5.504,30.849-1.577c0.898-6.215-7.051-26.826-9.009-31.774
		c0.925,0.316,1.896,0.495,2.915,0.493C345.546,334.987,346.802,334.599,347.863,333.979z"/>
	<path fill="#878582" d="M389.416,335.91c2.524,0.497,4.849,0.406,6.658-0.752l0.101,0.201c0.563-0.382,1.091-0.877,1.573-1.51
		l-0.083-0.178c1.37-1.812,2.18-4.734,2.16-9.179c19.201-8.552,29.285-23.65,48.037-23.792c0.198-3.567-10.703-10.306-15.063-10.306
		c4.163-3.567,16.253-4.162,16.253-4.162c-2.181-4.162-13.479-6.739-18.631-4.956c1.783-2.774,9.514-9.116,13.08-8.125
		c-2.179-2.973-15.458-3.766-21.206-0.199c0.792-2.973,7.135-8.721,7.135-8.721c-2.438-0.914-10.495,0.161-16.794-0.103
		c-0.158-2.01-1.264-3.968-2.828-5.051c24.578,3.567,22.596-10.307,16.649-12.288c22.198-1.188,16.152-15.856,6.342-17.937
		c13.081-5.055,1.189-17.838-7.73-18.136c-17.622-18.821-32.575-23.067-42.096-23.282c-1.577-13.564-1.048-25.34,3.15-32.016
		c11.595-18.432,36.865-25.865,33.595-57.082c-3.271-31.216-30.026-33.892-36.865-34.784c-17.55-2.289-39.827,11.198-38.187,41.316
		c0.623-0.077,1.246,0.012,1.826-0.248c-1.437-26.755,18.786-41.675,36.36-39.383c6.839,0.892,31.415,2.28,34.686,33.496
		s-22.1,37.459-33.694,55.892c-4.219,6.706-4.25,18.608-2.691,32.816c-5.899,0.184-9.271,1.868-9.271,1.868
		s24.052-8.621,51.602,23.289c8.919,0.298,21.108,12.289,4.162,16.253c14.567,3.369,14.567,18.036-7.333,15.162
		c13.181,7.433,5.748,17.542-18.135,10.703c11.693,6.839,9.314,20.019-12.784,11.297c4.855,4.955-0.793,14.567-2.379,15.361
		c4.757-2.181,16.076-4.163,18.929-2.974c2.853,1.188,6.541,11.297-14.172,13.477c-21.876,2.303-40.051-22.05-28.754-37.756
		c10.4-14.462,25.335-26.312,25.335-26.312c-3.121-0.892-15.256-13.964-16.526-18.083c1.166,3.78,4.102,9.123,14.363,18.255
		c0,0-13.197,11.083-25.337,25.743c-12.34,14.902,6.541,41.621,30.722,39.441c24.18-2.181,18.035-14.271,15.183-15.459
		c-2.853-1.189-10.427-1.389-15.183,0.792c1.585-0.793,2.973-7.136,1.188-9.712c12.749,3.949,18.174,1.411,19.534-2.166
		c4.583-0.19,9.15-0.976,11.187-0.212c0,0-4.954,6.937-5.152,12.486c5.351-5.153,12.032-5.359,15.657-4.36
		c-3.417,2.01-6.144,8.127-7.928,10.901c5.152-1.784,9.656-2.952,14.071-0.991c0,0-9.117,2.378-12.871,8.126
		c4.36,0,13.507,3.413,16.043,6.342c-16.211,0.31-21.699,14.589-43.563,23.136c-0.21-3.314-0.808-7.335-1.874-12.185
		c1.041,24.134-2.824,25.904-12.635,22.039c-9.811-3.864-22.071-15.796-22.071-15.796s4.972,6.223,11.163,11.589
		c-8.149,0.646-16.172-0.129-23.757-2.14c-31.466-8.34-55.416-37.858-49.768-74.706c6.062-39.541,42.117-58.964,54.9-82.748
		c1.653-3.075,2.77-5.863,3.463-8.458c0.242-0.023,0.483-0.058,0.724-0.089c-1.146,0.054-2.293,0.146-3.44,0.268
		c-0.723,2.384-1.801,4.952-3.322,7.784c-5.403,10.053-15.339,19.044-25.378,29.464c-14.654,1.004-31.887,3.904-38.442,11.727
		c3.32-6.491,1.365-16.152,1.365-16.152s9.09,2.898,14.888-0.297c3.567,1.982,13.675-1.19,11.067-10.505
		c3.996,0.197,10.14-2.18,6.842-10.505c2.901,0.594,9.441-0.991,6.617-7.829c-1.274-3.087-9.067-6.42-15.087-8.027
		c-1.463-0.39-2.857-0.798-4.211-1.156c0.874-3.209,3.232-12.476,2.798-17.574c-0.643-7.546-8.753-13.956-15.402-6.233
		c-3.678,4.271-0.301,10.721,0,19.165c0.082,2.291-0.103,3.979-0.368,5.207c-3.413,1.805-7.104,5.34-11.481,11.689
		c-11.986,17.381-32.183,19.566-42.613,48.11c-5.946,16.272,4.163,34.144,8.126,33.35c3.964-0.793,5.351-7.682,5.351-7.682
		s0.198,21.754,7.729,21.755c5.522,0.001,7.333-10.307,7.333-10.307s0.991,17.441,10.307,18.632c5.536,0.706,5.55-8.325,5.55-8.325
		s3.021,10.654,9.393,9.577c2.773,20.547,14.62,36.936,31.413,47.088c1.52,4.025,4.919,11.51,10.108,14.699
		c0.047,0.116,0.098,0.246,0.147,0.37c3.365,1.366,7.221,2.13,10.398-1.225c1.325-1.344,2.215-3.045,2.798-4.517
		c5.894,1.327,12.057,2.055,18.391,2.122c2.238,0.023,4.377-0.047,6.434-0.19c2.404,1.836,4.898,3.409,7.292,4.352
		c0.788,0.311,1.575,0.596,2.354,0.843c0.101,0.175,0.215,0.376,0.339,0.591c0.821,0.172,1.641,0.337,2.446,0.458
		C389.557,336.16,389.482,336.028,389.416,335.91z M309.719,131.192c3.417,4.145,3.28,13.062-0.364,22.779
		c-3.336-0.788-6.469-1.101-9.81,0.144c0.239-4.043,0.478-9.713-1.242-17.608C297.019,130.61,305.953,126.625,309.719,131.192z
		 M297.329,254.125c-0.514,4.755-0.574,9.35-0.228,13.77c-0.157,0.053-0.311,0.096-0.453,0.119
		c-5.704,0.977-7.742-7.729-8.931-10.553c-0.149,0.743-0.363,9.262-3.965,10.108c-6.725,1.581-11.332-14.053-10.901-20.218
		c-0.297,1.933-3.038,9.569-7.729,12.041c-4.691,2.472-6.986-17.392-7.581-21.108c-2.229,4.163-4.608,5.797-6.689,5.5
		c-2.082-0.297-8.965-10.405-5.5-28.688c1.262-6.661,5.647-14.691,11.148-19.135c5.501-4.444,23.041-18.771,27.5-24.123
		c4.46-5.351,11.275-15.312,18.284-17.095c7.009-1.782,24.081,6.838,26.013,9.811c1.934,2.973-0.891,5.203-2.824,5.648
		c-1.932,0.446-9.364-5.202-16.054-4.905c2.23,0,9.167,2.047,12.338,6.243c2.617,3.463-0.564,9.378-5.797,8.424
		c-3.791-3.89-9.811-5.302-9.811-5.302s11.41,6.912,7.952,12.337c-2.98,4.677-7.209,4.162-7.209,4.162s1.193-1.176-0.149-2.874
		c-1.784-2.254-4.459-0.862-4.459-0.862s3.121,2.621,0.743,4.256c-2.379,1.635-11,0.074-14.122-0.818
		c3.122,20.885-9.216,30.474-12.338,33.446c4.906-1.189,9.068-6.243,12.338-13.229c5.798-7.433,17.541-9.663,30.474-11.744
		c2.188-0.352,4.554-0.613,6.972-0.807C313.105,212.464,300.038,229.085,297.329,254.125z M343.609,331.912
		c-5.57,0.516-10.046-7.05-12.266-11.731c5.729,3.174,11.98,5.648,18.604,7.349C349.124,329.598,347.564,331.546,343.609,331.912z"
		/>
	<path fill="#D15400" d="M459.853,371.177c-8.92,0.221-41.918-2.859-45.189-5.476c-2.727-2.183-13.519-24.679-16.998-32.029
		c-0.484,0.633-1.027,1.104-1.591,1.486c4.174,8.388,14.865,29.555,17.475,31.643c3.271,2.616,36.123,5.984,45.041,6.317
		c7.952,0.298,9.86,2.468,8.102,5.352c-1.343,2.199-5.61,1.776-11.893,0.883c-2.518-0.357-22.427-5.203-29.135-6.095
		c3.07,1.178,24.908,6.549,27.352,9.663c3.713,4.732-1.189,8.406-10.258,2.535c-4.587-2.971-24.128-8.623-28.242-9.736
		c0.141,0.038,0.304,0.085,0.479,0.138c-0.161-0.047-0.321-0.093-0.479-0.138c0.196,0.056,0.389,0.112,0.582,0.168
		c1.418,0.428,3.824,1.264,6.659,2.312c4.302,1.841,8.471,4.51,14.312,9.635c7.878,6.913,2.081,10.109-4.014,7.879
		c-5.916-2.164-11.595-9.165-21.405-15.162c-8.506-5.199-8.25-1.561-15.162-3.493c-6.913-1.933-4.608-4.534-1.338-4.683
		c1.781-0.081,11-1.198,11-5.063c0-3.187-11.701-24.241-15.734-31.401c-0.806-0.122-1.659-0.292-2.573-0.673
		c3.412,5.954,15.632,27.51,15.632,30.819c0,3.865-9.218,4.891-11,4.972c-3.271,0.148-4.014,4.84,2.898,6.772
		c6.912,1.932,6.881-1.236,15.386,3.962c9.811,5.997,16.529,13.198,22.445,15.362c6.095,2.229,15.312-1.421,6.393-9.299
		c-3.807-3.362-7.617-5.733-11.219-7.486c6.131,2.401,12.525,5.125,14.935,6.677c9.811,6.317,21.555,1.115,10.703-6.392
		c6.392,2.973,15.304,1.998,16.797-1.272C471.373,375.934,469.218,370.945,459.853,371.177z"/>
	
		<ellipse transform="matrix(0.3003 -0.9538 0.9538 0.3003 159.2362 400.5641)" fill="#FFFFFF" cx="352.659" cy="91.74" rx="12.917" ry="7.799"/>
	<path fill="#333333" d="M344.525,89.027c-2.254,7.067-0.379,13.977,4.187,15.433c4.566,1.457,10.096-3.091,12.35-10.158
		c2.255-7.067,0.38-13.976-4.187-15.433S346.779,81.961,344.525,89.027z M345.6,89.271c2.083-6.532,7.036-10.786,11.062-9.502
		c4.025,1.284,5.6,7.62,3.517,14.152c-2.084,6.532-7.037,10.786-11.062,9.502C345.092,102.139,343.518,95.803,345.6,89.271z"/>
	
		<linearGradient id="SVGID_13_" gradientUnits="userSpaceOnUse" x1="0.5" y1="430.5" x2="1.5" y2="430.5" gradientTransform="matrix(-7.2723 20.8599 -20.8599 -7.2723 9339.7793 3202.1172)">
		<stop  offset="0" style="stop-color:#0040C4"/>
		<stop  offset="0.8727" style="stop-color:#00ABC4"/>
		<stop  offset="1" style="stop-color:#00ABC4"/>
	</linearGradient>
	<path fill="url(#SVGID_13_)" d="M355.46,82.229c3.355,1.057,4.656,6.417,2.906,11.973c-1.75,5.557-5.888,9.204-9.242,8.147
		s-4.656-6.417-2.905-11.973C347.968,84.82,352.106,81.172,355.46,82.229z"/>
	<ellipse transform="matrix(0.3004 -0.9538 0.9538 0.3004 156.9103 400.6558)" cx="351.572" cy="93.366" rx="7.177" ry="4.333"/>
	<ellipse fill="#FFFFFF" cx="356.233" cy="86.397" rx="1.982" ry="2.074"/>
	<path fill="#D94204" d="M374.528,148.881c1.028-2.328,2.093-4.629,3.172-6.888c0.249-0.039,0.554-0.09,0.9-0.153
		c0.356-0.715,0.412-1.569,0.604-2.329c-0.106,0.007-0.211,0.017-0.318,0.023c5.305-10.861,10.769-20.529,13.926-26.924
		c2.898-5.872-1.561-9.067-5.798-6.689c-4.436,2.491-9.736,1.338-13.017-2.639c-1.996-2.418-4.227-5.463-9.28-4.943
		c-2.419,0.249-10.508,4.956-18.226,6.284c-0.868,0.107-0.868,0.107-1.826,0.248c-3.302,0.321-6.444-0.105-8.936-1.924
		c-9.364-6.838-19.026-7.135-20.513,0.887c-2.304,12.428,13.526,28.38,35.675,22.962c-2.304,7.292-13.154,12.569-13.823,19.556
		c-0.675,7.047,9.291,13.251,19.398,13.401l-0.022,0.072c1.147-0.123,2.294-0.214,3.44-0.268
		C365.909,158.785,371.555,155.611,374.528,148.881z M338.061,146.007c0.668-6.987,11.544-9.806,13.278-19.601
		c-19.026,4.042-36.964-9.955-34.486-21.526c1.687-7.876,9.317-7.151,18.523-0.551c0.329,0.367,18.583,20.558,41.686,8.667
		c-4.96,2.408-20.604,7.975-37.807-6.763c4.742,1.23,10.414-0.536,15.129-2.467c-0.433,0.61-0.835,1.421-1.112,2.517
		c2.525-3.119,7.016-5.09,7.023-5.094c1.236-0.529,2.228-0.901,2.865-0.967c5.054-0.52,7.811,1.941,9.807,4.36
		c3.28,3.977,9.117,5.265,13.553,2.775c4.236-2.378,7.218,0.198,4.955,4.856c-3.291,6.771-8.85,16.148-14.302,27.386h-0.003
		l-0.006,0.017c-1.154,2.38-2.306,4.84-3.428,7.381C365.263,166.174,336.902,158.093,338.061,146.007z"/>
	<path fill="#878582" d="M394.745,134.527c0,0-6.039,4.314-15.54,4.984c-0.192,0.76-0.248,1.614-0.604,2.329
		C382.171,141.192,390.496,139.235,394.745,134.527z"/>
	<path fill="#5F050F" d="M356.783,127.026c0,0-2.417,5.809-4.64,9.225c-2.113,3.25-4.074,8.385-1.548,9.426
		c-0.743-3.171,0.595-5.054,2.441-8.176C356.021,132.457,356.783,127.026,356.783,127.026z"/>
	<path fill="#5F050F" d="M367.37,122.213c-0.07,0.177-0.07,0.177-0.139,0.238c-1.186,1.527-3.047,4.272-2.91,6.338
		c1.823-2.706,4.531-5.721,5.964-7.258C369.363,121.781,368.312,122.027,367.37,122.213z"/>
	<path fill="#5F050F" d="M375.983,119.356c-0.986,1.347-2.588,3.688-3.666,5.37c-2.797,4.363-8.59,8.266-13.012,13.592
		c-1.691-8.797,3.514-14.188,4.735-15.334l0.314-0.293c0.161-0.152-0.041,0.005-0.041,0.005l-1.154,0.131
		c0,0-2.308,2.336-4.488,6.832s-0.099,11.658-0.099,11.658s2.816-4.245,6.627-7.234c6.454-5.064,11.267-12.798,12.99-15.818
		C377.512,118.573,376.733,118.952,375.983,119.356z"/>
	<path fill="#D94204" d="M385.824,109.848c0,0,0.922,0.392,1.658,1.208c-2.492,1.89-15.661,11.366-28.092,10.474
		c-13.799-0.991-22.619-12.028-31.24-13.181c-0.967-0.129-2.527-0.094-2.527-0.094s-4.757-1.384-6.541,2.467
		c1.659-1.421,3.229-1.608,4.264-1.513c-2.512,1.825-1.867,6.002,4.21,10.14c-5.593-4.063-5.687-9.442,1.188-8.523
		c8.622,1.153,17.021,11,30.82,11.991c1.134,0.081,2.255,0.08,3.363,0.018c2.518-0.208,4.971-0.656,7.357-1.304l0.015-0.016
		c3.56-1.056,5.433-2.042,5.81-2.218c0.254-0.136,1.87-0.916,2.081-1.033c4.653-2.449,7.059-4.755,7.059-4.755
		c-9.217,8.622-12.132,19.607-17.559,28.799c-6.046,10.241-24.18,11.132-22.099,0c0.871-4.661,8.774-8.423,7.333-17.606
		c0.17,7.994-7.972,13.768-8.819,18.433c-0.196,1.082-0.199,2.06-0.041,2.938c-0.861-0.632-1.768-1.435-2.387-2.363
		c0,0,1.113,4.762,4.829,6.266v-0.001c5.488,4.12,18.275,1.736,22.868-6.246c5.24-9.106,10.824-23.997,18.18-32.589
		c0.676,0.789,1.152,1.949,0.533,3.508C389.193,113.765,390.815,109.559,385.824,109.848z"/>
	
		<ellipse transform="matrix(-0.3004 -0.9538 0.9538 -0.3004 412.3193 483.092)" fill="#FFFFFF" cx="383.333" cy="90.329" rx="15.305" ry="9.242"/>
	<path fill="#333333" d="M378.337,75.078c-5.41,1.726-7.632,9.913-4.96,18.286c2.67,8.374,9.222,13.762,14.632,12.037
		c5.41-1.726,7.631-9.913,4.961-18.286C390.299,78.741,383.747,73.353,378.337,75.078z M387.529,104.172
		c-4.77,1.521-10.638-3.52-13.106-11.259c-2.469-7.74-0.604-15.247,4.167-16.769c4.77-1.521,10.639,3.52,13.106,11.259
		C394.164,95.143,392.299,102.65,387.529,104.172z"/>
	
		<linearGradient id="SVGID_14_" gradientUnits="userSpaceOnUse" x1="0.5" y1="430.502" x2="1.5" y2="430.502" gradientTransform="matrix(8.6167 24.7162 24.7162 -8.6167 -10265.2139 3775.7031)">
		<stop  offset="0" style="stop-color:#0040C4"/>
		<stop  offset="0.8727" style="stop-color:#00ABC4"/>
		<stop  offset="1" style="stop-color:#00ABC4"/>
	</linearGradient>
	<path fill="url(#SVGID_14_)" d="M380.013,79.059c-3.975,1.252-5.516,7.604-3.443,14.187c2.074,6.583,6.977,10.906,10.951,9.653
		c3.975-1.251,5.517-7.603,3.443-14.186S383.986,77.807,380.013,79.059z"/>
	<ellipse transform="matrix(-0.3004 -0.9538 0.9538 -0.3004 412.1538 486.826)" cx="384.621" cy="92.255" rx="8.504" ry="5.134"/>
	<ellipse fill="#FFFFFF" cx="379.097" cy="83.998" rx="2.349" ry="2.458"/>
	<polygon fill="#D15400" points="440.396,391.044 447.343,388.899 445.026,387.785 438.852,389.695 	"/>
	
		<ellipse transform="matrix(0.4076 -0.9131 0.9131 0.4076 115.3187 393.1571)" fill="#392911" cx="360.688" cy="107.696" rx="2.399" ry="1.303"/>
	<path fill="#D15400" d="M342.504,340.704c0,0,3.359-0.042,6.437-1.667c-0.72,0.78-3.889,2.814-6.2,2.997
		C342.46,341.202,342.504,340.704,342.504,340.704z"/>
	<path fill="#D15400" d="M345.42,349.461c0,0,3.965-0.346,7.043-1.972c-0.72,0.781-4.496,3.119-6.807,3.302
		C345.376,349.959,345.42,349.461,345.42,349.461z"/>
	<path fill="#D15400" d="M347.964,358.81c0,0,3.534-0.171,6.611-1.797c-0.18,1.217-4.059,3.303-6.371,3.485
		C347.925,359.666,347.964,358.81,347.964,358.81z"/>
	<path fill="#D15400" d="M399.025,338.855c0,0-2.479,2.268-5.836,3.186c1.06,0.078,4.763-0.606,6.573-2.055
		C399.397,339.188,399.025,338.855,399.025,338.855z"/>
	<path fill="#D15400" d="M402.889,347.237c0,0-3.129,2.459-6.487,3.379c1.061,0.078,5.414-0.8,7.224-2.247
		C403.261,347.569,402.889,347.237,402.889,347.237z"/>
	<path fill="#D15400" d="M407.428,355.797c0,0-2.695,2.292-6.053,3.211c0.964,0.766,5.221-0.367,7.031-1.814
		C408.041,356.395,407.428,355.797,407.428,355.797z"/>
	<polygon fill="#D15400" points="312.845,384.786 321.935,388.479 323.069,387.355 316.556,384.341 	"/>
	<path fill="#878582" d="M386.363,227.576c0,0,7.533-3.923,13.979-4.89c-12.823,4.061-15.233,7.849-15.233,7.849L386.363,227.576z"
		/>
</g>
</svg>
