<svg version="1.1" id="Layer_1" xmlns="http://www.w3.org/2000/svg" xmlns:xlink="http://www.w3.org/1999/xlink" viewBox="0 0 768 430" enable-background="new 0 0 768 430" xml:space="preserve">
<g>
	<path fill="#A96E42" d="M401.031,300.709v0.357c0.955,5.973,0.834,10.749,3.104,13.376c2.27,2.509,2.031,11.705,3.105,19.229
		c1.076,7.526,2.15,16.246,1.912,19.23c-0.357,2.987,0.834,2.987,2.508,2.987s5.258,4.537,4.658,9.554
		c-0.598,4.896,1.672,2.749,2.865,1.912c1.195-0.718,1.674,0.478,1.791,1.672c0.119,1.193,0.84,8.718,4.301,10.393
		c3.465,1.671,13.379,3.223,19.111,2.148c3.346-0.598,1.674-3.345,1.674-3.345c2.746,0.718,4.061,0.12,3.104-2.866
		c2.986,0.836,5.975,0.358,5.375-1.314c2.27-0.597,3.463-1.076,2.029-4.061c-1.314-3.106-5.973-10.391-11.586-11.945
		c-0.836-2.388-3.584-4.061-6.211-5.135c-2.508-1.076-9.076-5.254-10.629-12.064c-1.674-6.806,0-24.604,2.506-29.141
		c2.031-3.584,3.467-6.81,3.586-10.988h-33.189H401.031z"/>
	<path fill="#A96E42" d="M278.96,300.709c2.031,8.719,5.853,15.168,8.361,16.481c2.03,0.119,4.3-4.299,4.659-8.719
		c1.91,4.657,4.776,7.047,7.046,7.047c1.433,0.478,1.792-6.331,2.03-13.019v-1.791H278.96L278.96,300.709z"/>
	<path fill="#A96E42" d="M214.344,300.709c0.119,0.478,0.357,0.834,0.597,0.834c1.075,0.479,0.239,3.346-0.121,3.824
		c-0.239,0.478-0.357,1.192-1.075,8.6c-0.478,7.406-4.18,25.559-5.374,28.068c-1.195,2.627-2.03,6.928-0.12,6.928
		c2.509,0-0.119,3.941,1.792,3.821c1.91-0.237,3.224,3.583,1.91,5.255s1.672,0.6,0.598,3.228c-1.075,2.507-0.119,3.464,2.03,2.747
		c2.031-0.598,2.39,2.388,3.822,6.568c1.554,4.181,0.479,7.765,8.839,8.599c8.241,0.718,15.408,0.718,14.213-2.747
		c2.866,0.479,4.777-0.237,3.344-2.508c4.299,0.717,11.228,1.552,10.153-1.313c2.149,0.356,4.3,0.836,2.866-2.39
		c-1.314-3.104-4.897-9.912-9.555-12.54c0.478-2.271-1.313-3.227-2.986-5.734c-1.673-2.388-6.808-5.612-5.614-24.364
		c0.598-12.184,4.658-21.381,8.122-26.875H214.344L214.344,300.709z"/>
	<path fill="#A96E42" d="M434.23,300.709c0.119-0.957,0-2.149-0.117-3.347c-1.316-12.42,1.072-20.424,1.67-24.126
		c3.227-17.916,5.494-17.438,6.451-22.573c2.387-11.825,6.688-9.915,12.42-19.351c0.48,1.074,0.598,2.867,0.598,2.867
		s5.018-7.523,8.24-14.332H230.475c1.552,12.422,1.194,27.83,0.716,39.414c-0.239,3.583-3.344,17.318-7.167,23.531
		c-3.463,5.494-4.419,5.613-7.524,10.748c-2.149,3.705-2.509,6.092-2.149,7.168h33.442c1.792-2.986,3.464-5.018,4.18-5.733
		c2.15-2.149,7.287-7.763,7.287-7.763s2.627,2.027,5.375,3.582c6.928,4.181,13.258,2.746,13.258,3.104
		c0.238,2.39,0.717,4.66,1.075,6.81h22.097c-0.238-10.032-5.017-8.361,0.717-11.108c3.225-1.673,7.167-4.658,13.975-18.873
		c0.836-1.551,6.21-1.434,11.704-2.028c8.124-0.957,21.142-5.018,30.697-10.988c7.405-4.66,20.902-10.033,26.038-8.719
		c8.122-0.239,11.585-2.988,9.675-1.076c-1.791,1.91-3.701,5.972-3.701,5.972s2.148-1.194,2.867-1.194
		c0.834,0-2.271,5.496-1.793,6.926c0.359,1.556,3.344-3.104,2.389-0.834c-0.955,2.269-1.074,5.137-1.074,5.137
		s2.986-5.137,2.15-1.553c-0.719,3.582-0.479,5.135-0.479,5.135s1.91-4.42,1.791-2.389c-0.119,2.03-1.791,4.897,0.238,5.612
		c2.031,0.716,0.717,5.376,2.984,11.706c2.15,6.211,0.957,12.542,1.793,18.275h33.199H434.23z"/>
	<path fill="#A96E42" d="M491.561,139.109c3.105-8.958,5.373-16.124,5.973-18.154c1.791-5.972,11.107-3.584,18.99-2.987
		c2.27,0.12,7.525,0,10.512-1.671c1.791-0.957,3.105,1.431,5.613,0c2.627-1.554,4.656-1.671,6.688-0.478
		c1.912,1.194,12.062,0.357,13.258,1.314c1.672,1.433,8.002,0.595,8.721-3.346c0.357-2.031-0.598-4.18-0.598-4.18
		s3.465,2.269,3.584-1.673c0.357-4.181-1.914-5.973-1.914-5.973s1.674,1.435,0.719-2.627c-1.791-8.121-5.016-10.989-15.768-20.303
		c-5.016-4.302-19.467-10.751-23.289-12.422c-2.629-1.076-6.57-6.331-10.512-8.242c-4.539-2.27-10.152-1.075-13.496,0.238
		c-7.404,2.987-9.795-2.508-17.32,0.836c-2.746,1.194-6.566,3.941-9.195,8.122c-3.582,5.614-2.746,6.808-3.227,8.361
		c-2.389,8.479-26.156,46.82-44.549,56.138c-11.35,5.732-16.725,1.552-22.219,3.821c-5.014,2.032-8.719,1.671-11.465,3.225h99.51
		L491.561,139.109z"/>
	<path fill="#A96E42" d="M222.346,139.109c-0.957-5.255-1.434-12.542,0.357-18.633c3.583-11.823-4.06,1.194-4.778,4.778
		c-0.477,2.032-1.313-1.194-0.716-2.985c0.716-1.793-2.508,3.346-2.389,7.287c-0.836-2.032-0.716-4.063-0.716-4.063
		s-1.672,3.224-1.195,5.734c0.359,2.388-0.357,4.179-0.357,4.179l-1.313-3.343c0,0-0.956,3.104,0.119,6.211
		c0.12,0.357,0.239,0.596,0.239,0.835H222.346z"/>
	<path fill="#A96E42" d="M210.76,139.109l-0.239-0.835c0,0-0.119,0.357-0.119,0.835H210.76z"/>
	<path fill="#A96E42" d="M210.401,139.109c0,1.074,0.119,2.867,0.358,3.703c0.478,1.194-1.673-0.836-1.673-0.836
		s-0.119,3.105,0.478,4.181c0.597,1.076-1.911,1.792-0.716,4.778c1.195,2.986,0.955,3.464,0.955,3.464s-1.671-1.315-1.671-2.509
		c-0.478,2.27,1.314,5.852,2.149,6.807c-1.313-0.478-2.031-1.551-2.031-1.551s1.314,3.821,3.106,4.897
		c1.911,0.955-1.075,1.194-2.867-0.597c0.957,2.508,3.345,4.299,4.539,4.897c1.194,0.595-1.314,0.955-2.985-0.599
		c0.477,1.673,2.747,3.821,3.94,4.3c1.195,0.359-2.149,0.24-3.105-0.716c1.195,1.912,3.226,2.865,4.301,3.703
		c1.075,0.716-1.912-0.359-1.912-0.359s3.225,2.271,1.313,2.031c-2.03-0.357-3.343-1.553-3.343-1.553s3.941,5.973,6.449,7.645
		c4.181,2.749-1.194,7.884,3.345,13.375c5.972,9.675,7.405,11.348,9.196,23.89c0.12,0.715,0.12,1.313,0.24,1.791h233.029
		c1.193-2.029,2.031-4.298,2.391-6.091c2.746-8.718-5.139-14.334,4.418-25.798c6.33-7.525,15.289-31.533,21.262-48.853h-99.494
		c-0.357,0.239-0.598,0.479-0.957,0.716c-2.865,2.39-35.951,7.525-45.026,5.496c-8.96-1.912-3.226,0.715-7.048,0.238
		c-3.703-0.479-14.332-0.717-18.155-1.913c1.434,1.313-4.419,2.032-10.391,0.12c2.389,2.032-0.12,2.627-12.542-0.595
		c-12.302-3.346-16.721-3.106-18.632-2.747c-2.03,0.237,5.136,1.671,2.03,1.909c-2.985,0.36-9.436-4.896-21.141-0.118
		c-8.6,3.583-15.886,6.091-16.603,6.091c-0.955,0-5.852,2.628-6.568,3.584c-0.718,0.836-2.867,3.225-2.867,3.225
		c-3.942,1.553-7.405,3.701-7.645-3.823c-0.357-7.525-0.955-5.732-1.552-4.299c-0.239,0.836-1.672-2.627-2.627-7.884h-10.75
		c0.478,1.911-0.119,2.509-0.119,2.509l-0.717-2.516h-0.358L210.401,139.109z"/>
	
		<path fill="none" stroke="#000000" stroke-width="0.288" stroke-linecap="round" stroke-linejoin="round" stroke-miterlimit="2.4142" d="
		M425.752,132.063c-11.352,5.732-16.725,1.552-22.219,3.821c-5.613,2.27-9.555,1.553-12.424,3.941
		c-2.867,2.388-35.95,7.525-45.025,5.496c-8.96-1.912-3.226,0.715-7.048,0.238c-3.703-0.479-14.332-0.717-18.155-1.913
		c1.434,1.313-4.419,2.032-10.391,0.12c2.389,2.032-0.12,2.627-12.542-0.595c-12.302-3.346-16.721-3.106-18.632-2.747
		c-2.03,0.237,5.136,1.671,2.03,1.909c-2.985,0.36-9.436-4.896-21.141-0.118c-8.6,3.583-15.886,6.091-16.603,6.091
		c-0.955,0-5.852,2.628-6.568,3.584c-0.718,0.836-2.867,3.225-2.867,3.225c-3.942,1.553-7.405,3.701-7.645-3.823
		c-0.357-7.525-0.955-5.732-1.552-4.299c-0.597,1.552-5.853-14.692-2.27-26.517c3.583-11.825-4.06,1.194-4.778,4.778
		c-0.477,2.032-1.313-1.194-0.716-2.985c0.716-1.793-2.508,3.346-2.389,7.287c-0.836-2.032-0.716-4.063-0.716-4.063
		s-1.672,3.224-1.195,5.734c0.359,2.388-0.357,4.179-0.357,4.179l-1.313-3.343c0,0-0.956,3.104,0.119,6.211
		c0.835,2.388,0.12,3.344,0.12,3.344l-0.956-3.344c0,0-0.239,3.344,0.239,4.538c0.478,1.194-1.673-0.836-1.673-0.836
		s-0.119,3.105,0.478,4.181c0.597,1.076-1.911,1.792-0.716,4.778c1.195,2.986,0.955,3.464,0.955,3.464s-1.672-1.315-1.672-2.509
		c-0.478,2.27,1.314,5.852,2.149,6.807c-1.313-0.478-2.031-1.551-2.031-1.551s1.314,3.821,3.106,4.897
		c1.911,0.955-1.075,1.194-2.867-0.597c0.957,2.508,3.345,4.299,4.539,4.897c1.194,0.595-1.314,0.955-2.985-0.599
		c0.477,1.673,2.747,3.821,3.94,4.3c1.195,0.359-2.149,0.24-3.105-0.716c1.195,1.912,3.226,2.865,4.301,3.703
		c1.075,0.716-1.912-0.359-1.912-0.359s3.225,2.271,1.313,2.031c-2.03-0.357-3.343-1.553-3.343-1.553s3.941,5.973,6.449,7.645
		c4.181,2.749-1.194,7.884,3.345,13.375c5.972,9.675,7.405,11.348,9.196,23.89c1.791,12.543,1.553,29.023,0.956,41.206
		c-0.239,3.583-3.344,17.319-7.167,23.531c-3.463,5.493-4.419,5.614-7.524,10.749c-2.986,5.135-2.509,7.524-1.552,8.002
		c1.075,0.479,0.239,3.345-0.121,3.822c-0.239,0.479-0.357,1.193-1.075,8.601c-0.478,7.407-4.18,25.559-5.374,28.068
		c-1.195,2.628-2.03,6.929-0.12,6.929c2.509,0-0.119,3.94,1.792,3.82c1.91-0.238,3.224,3.583,1.91,5.255s1.672,0.6,0.598,3.228
		c-1.075,2.507-0.119,3.464,2.03,2.747c2.031-0.598,2.39,2.388,3.822,6.568c1.554,4.182,0.479,7.766,8.839,8.6
		c8.241,0.717,15.408,0.717,14.213-2.747c2.866,0.479,4.777-0.238,3.344-2.509c4.299,0.717,11.228,1.552,10.153-1.313
		c2.149,0.356,4.3,0.836,2.866-2.389c-1.314-3.104-4.897-9.913-9.555-12.541c0.478-2.271-1.313-3.227-2.986-5.734
		c-1.673-2.388-6.808-5.611-5.614-24.363c0.956-18.873,10.153-30.459,12.302-32.608s7.287-7.763,7.287-7.763
		s2.627,2.027,5.375,3.582c6.928,4.181,13.258,2.746,13.258,3.105c1.195,12.063,6.33,21.618,9.436,23.29
		c2.03,0.119,4.3-4.299,4.659-8.719c1.91,4.657,4.776,7.047,7.046,7.047c1.433,0.478,1.792-6.331,2.03-13.019
		c0.239-12.064-5.375-9.914,0.717-12.899c3.225-1.673,7.167-4.657,13.975-18.872c0.836-1.552,6.21-1.435,11.704-2.029
		c8.124-0.957,21.142-5.018,30.697-10.988c7.405-4.66,20.902-10.033,26.038-8.719c8.123-0.239,11.586-2.988,9.674-1.076
		c-1.791,1.91-3.701,5.972-3.701,5.972s2.15-1.194,2.867-1.194c0.834,0-2.27,5.496-1.793,6.927c0.359,1.555,3.344-3.104,2.391-0.835
		c-0.955,2.269-1.076,5.137-1.076,5.137s2.986-5.137,2.15-1.553c-0.717,3.582-0.479,5.135-0.479,5.135s1.91-4.42,1.791-2.389
		s-1.791,4.897,0.24,5.613c2.029,0.715,0.717,5.375,2.984,11.705s0.955,12.779,1.791,18.633c0.955,5.973,0.836,10.749,3.105,13.376
		c2.27,2.509,2.029,11.705,3.105,19.229c1.074,7.526,2.148,16.246,1.91,19.23c-0.357,2.987,0.836,2.987,2.508,2.987
		c1.674,0,5.258,4.538,4.66,9.554c-0.6,4.896,1.672,2.749,2.865,1.912c1.193-0.717,1.672,0.478,1.791,1.672
		c0.117,1.194,0.838,8.718,4.301,10.393c3.463,1.671,13.377,3.224,19.109,2.148c3.348-0.598,1.674-3.344,1.674-3.344
		c2.746,0.717,4.061,0.119,3.104-2.867c2.986,0.836,5.975,0.358,5.375-1.314c2.27-0.597,3.463-1.076,2.029-4.061
		c-1.312-3.106-5.973-10.391-11.586-11.945c-0.834-2.388-3.582-4.061-6.209-5.135c-2.51-1.076-9.078-5.254-10.631-12.064
		c-1.672-6.806,0-24.604,2.508-29.141c2.627-4.539,4.182-8.48,3.467-14.334c-1.316-12.42,1.072-20.424,1.67-24.127
		c3.227-17.916,5.494-17.438,6.451-22.573c2.387-11.825,6.688-9.915,12.42-19.351c0.479,1.074,0.598,2.867,0.598,2.867
		s8.957-13.375,10.631-20.423c2.746-8.718-5.137-14.334,4.418-25.798c9.676-11.466,25.441-61.033,27.234-67.007
		c1.791-5.974,11.105-3.584,18.988-2.987c2.271,0.12,7.525,0,10.512-1.671c1.791-0.957,3.105,1.431,5.613,0
		c2.629-1.554,4.658-1.671,6.689-0.478c1.912,1.194,12.062,0.357,13.258,1.314c1.672,1.433,8.002,0.595,8.719-3.346
		c0.359-2.031-0.596-4.18-0.596-4.18s3.463,2.269,3.582-1.673c0.357-4.181-1.912-5.973-1.912-5.973s1.672,1.435,0.717-2.627
		c-1.791-8.121-5.016-10.989-15.766-20.303c-5.018-4.302-19.469-10.751-23.291-12.422c-2.629-1.076-6.57-6.331-10.512-8.242
		c-4.537-2.27-10.15-1.075-13.494,0.238c-7.406,2.987-9.797-2.508-17.32,0.836c-2.748,1.194-6.568,3.941-9.195,8.122
		c-3.584,5.614-2.748,6.808-3.227,8.361c-2.359,8.444-26.131,46.784-44.52,56.102L425.752,132.063z"/>
	<path fill="#A39A82" d="M444.621,358.278c0,0,2.984,0.358,6.568,4.3c3.584,3.821,8.002,10.152,4.42,10.989
		c-2.748,0.595,0.121,1.313-2.748,1.791c-2.627,0.479-4.418-0.598-4.418-0.598s-14.094-12.302-12.781-14.81
		c1.314-2.508,8.48-4.17,8.961-1.67L444.621,358.278z"/>
	<path fill="#D8D8CB" d="M442.711,245.169c0,0-1.076,5.853-2.51,9.315c-1.553,3.465-2.389,6.69-3.463,11.467
		c-1.076,4.777-4.301,17.08-3.346,26.992c0.957,10.036-0.357,10.871-0.598,12.424c-0.598,3.461-2.865,5.135-4.061,10.271
		c-1.195,5.135-2.984,21.617-0.24,27.47c5.377,11.346,14.096,9.437,16.006,14.81c-3.225-0.955-3.703,0.239-2.268,1.434
		c-2.389-0.237-3.943-0.596-2.988,0.719c-1.312-0.24-4.537-2.152-4.537-2.152s-12.543-1.671-14.812-20.541
		c-2.27-18.871-0.477-23.531,1.434-25.321c1.793-1.913,1.793-5.854,2.391-4.897s0.598,2.15,0.598,2.15s1.193-3.344,0.717-5.135
		s-0.955-4.777,0-3.465c0-2.27-0.717-4.299-1.312-5.732c-0.598-1.553,1.193-0.598,1.193-0.598s-0.836-1.791-1.555-4.537
		c-0.596-2.747,0.719-11.229,3.105-19.112c2.389-7.763,4.896-16.48,5.375-20.901c3.35-3.471,10.869-5.98,10.869-4.67
		L442.711,245.169z"/>
	
		<path fill="#985632" stroke="#A16341" stroke-width="0.36" stroke-linecap="round" stroke-linejoin="round" stroke-miterlimit="2.4142" d="
		M465.881,191.899c0,0-5.613,1.194-5.613-4.897c0-6.331,0.717-4.538-2.271-10.271c-3.104-5.734-13.02-11.108-13.854-16.481
		c-0.955-5.496-3.701-10.631-5.494-10.989c-4.18-0.599-0.357,8.24-6.568,6.329c-6.328-1.671-11.824-0.237-6.328,2.748
		c5.373,3.106,23.768,15.408,24.961,23.528c1.193,8.244,6.092,15.769,3.941,18.514c-2.15,2.627-10.152-1.075-13.617-3.941
		c-3.939-3.344-8.359,2.985-8.957,7.525c-0.719,4.54-16.125,27.352-22.934,26.637c-7.047-0.479-12.182-1.195-11.229-5.375
		c0.957-4.182,4.182-8.602,4.182-12.184c-2.748,2.627-10.51,12.184-9.316,14.93c1.195,2.629,2.629,3.344,2.867,5.256
		c0.238,2.031-0.6,5.973-1.672,7.406c1.672-1.312,3.344-1.312-0.955,4.059c2.389-0.356,2.984-0.236,2.027,1.914
		c-1.072,2.149-2.984,3.821-3.82,6.211c2.748-0.836,6.57-3.347,7.287-6.811c0.834-3.464,4.418-9.553,7.523-8.838
		c3.227,0.718,8.24,5.257,12.062,2.867c3.941-2.389,7.646-4.418,5.615-1.194c-1.91,3.106-0.598,10.511,1.672,13.14
		c3.463,4.06,4.18,7.643,4.18,7.643s0.957-3.702,2.27-9.553c0.357-1.437,8.24-10.871,11.229-12.901
		c5.859-3.94,22.109-31.29,22.82-45.27H465.881z"/>
	<path fill="#D8D8CB" d="M465.17,213.399c1.555-6.57-1.312-11.229-0.479-14.453c-0.953,4.06-6.092,8.479-7.643,12.66
		c-1.436,4.18-1.193,6.332-1.193,6.332l-1.436-4.539c0,0-1.91,4.539-1.553,7.763c0.238,3.344-1.91-1.553-1.91-1.553
		s-2.391,6.688-2.029,8.838c0.355,2.033-1.316,0.24-1.193-4.42c-0.6,2.988-1.914,9.317-3.348,10.752
		c0.238-2.867-0.717-5.375-0.717-5.375s0.119,1.91-1.432,2.627c-1.436,0.719,0.479,2.748-2.27,4.062
		c-2.629,1.313-3.107,4.42-3.107,4.42s-0.355-3.94-1.193-1.673c-0.953,2.268-0.836,6.451-0.836,6.451s-2.389-1.674-2.389,2.389
		c0,1.553-0.598,2.029-0.598,2.029s6.809-4.182,5.135-1.553c4.896-2.389,5.734-2.985,7.406-5.731
		c1.67-2.746,7.764-7.646,10.271-12.78c0.596,1.194,0.955,2.746,0.955,2.746s7.76-11.35,9.549-19L465.17,213.399z"/>
	
		<path fill="#985632" stroke="#A16343" stroke-width="0.36" stroke-linecap="round" stroke-linejoin="round" stroke-miterlimit="2.4142" d="
		M391.23,237.648c0,0,1.314-4.537-1.791-7.524c-2.986-3.104,5.135-6.331,3.941-12.662c-1.195-6.33-1.553-9.314,3.344-16.602
		c4.777-7.167-2.746-2.627-5.494,1.911c-2.627,4.538-6.45,10.512-8.838,11.468c-2.508,0.835,3.464,7.046-1.554,12.54
		c-5.135,5.375-0.954,9.676-6.926,12.899c-6.092,3.345-22.934,7.884-30.816,7.048c-7.765-0.957-16.005-9.078-22.694-10.271
		c-6.57-1.194-15.885,0.238-21.977-3.344c-5.972-3.705-1.195,4.776,2.986,7.285c4.299,2.389-5.375,4.777-10.87-0.717
		c-5.374-5.375-6.569-7.765-4.777-13.259c1.792-5.375-2.986-13.736-6.688-17.915c-3.583-4.3,3.703,9.555,3.105,15.525
		c-0.598,6.093-0.598,11.707,0,13.617c0.597,1.791,0.597,16.244,9.077,17.439c8.36,1.193,45.864,9.675,84.205-7.766
		c3.23-1.541,11.95-0.58,15.77-9.66L391.23,237.648z"/>
	<path fill="#D8D8CB" d="M394.941,246.729c0,0-8.24,2.508-11.944,1.791c-1.672-0.359-6.568,0.717-13.376,3.225
		c-9.317,3.347-16.843,9.795-28.428,13.498c-16.841,5.494-24.127,2.509-25.918,5.973c-0.24,0.479-13.377,2.747-13.975,2.508
		c-5.494-2.747-24.247-0.238-30.099-7.643c1.433-2.988,2.389-4.42,2.508-7.524c0.717,1.433,0.597,2.865,0.597,2.865
		s2.27-2.507,2.39-5.733c0.119-3.104-0.478-4.18-0.478-4.18s2.03,2.271,2.15,3.822c0.596-3.106,1.195-4.897,0.716-7.405
		c-0.359-2.627,0.479-6.092,0.479-6.092s2.149,1.075,2.388,2.271c0.478-2.988-0.716-7.404-0.716-7.404s1.194-2.51,0.597-5.377
		c1.911,4.897,1.195,9.556,3.105,11.227c3.823,3.704,1.435,5.497,1.435,5.497s2.627-2.271,4.418-3.347
		c1.673-1.073,2.03,0.6,0.836,2.033c3.344,0,5.732-1.434,5.135-0.357c-0.596,1.072-2.508,1.789-2.508,1.789s0.836,1.076,3.942,0.957
		c2.508-0.118,3.105-1.432,4.778-0.479c1.671,0.837,2.866-0.118,2.866-0.118s2.867,3.943,3.942,2.986
		c1.074-0.836,2.747,1.075,3.822,1.314c4.18,0.957,7.884-3.465,14.929-3.703c5.854-0.238,12.423,5.255,17.56,2.389
		c-1.195,1.792-2.151,2.271-2.151,2.271s3.344,0.477,6.092-2.271s5.613-3.227,5.613-3.227s-0.239,2.391-1.075,3.106
		c1.791-1.073,5.614-1.434,7.286-3.227c1.672-1.793,4.896-3.345,4.657-2.269c-0.358,1.074-1.553,2.627-1.553,2.627
		s4.66-0.953,5.854-2.986c1.313-1.911,3.823-1.194,2.508,0.24c2.986-0.957,7.287,0.119,8.48-2.15
		c0.957-2.268,12.899-5.137,13.378-11.466c1.074,2.03,0.357,6.091-1.195,8.599c1.555-1.193,2.389-2.031,1.555,0.479
		c-0.957,2.627-2.51,3.463-2.51,3.463s4.182-1.67,1.91,2.039V246.729z"/>
	<path fill="#AFAB9F" d="M282.185,232.988c0,0-0.359,4.18,0.238,5.255c0.598,1.077,1.553,6.928,0.956,8.839
		c-0.836-1.314-2.031-1.314-2.031-1.314s1.912,3.227,3.583,4.062c1.314,0.717,0.837,2.389,4.419,3.344
		c2.509,0.599,13.736,2.39,16.364,1.673c2.508-0.716-4.419,2.627-10.87,1.791c-5.374-0.716-9.435,1.314-13.257,1.671
		c-3.464,0.361-6.808,2.509-6.808,2.509s3.105-3.703,1.434-9.195c1.194,0.836,2.15,3.344,2.15,3.344s1.195-4.658,0.835-6.451
		s-0.119-4.658,0.36-6.688c1.313,0.238,2.388,2.15,2.388,2.15s0.597-2.869-0.836-7.406c0.716-0.819,1.075-3.569,1.075-3.569V232.988
		z"/>
	<path fill="#AFAB9F" d="M447.131,239.318c-2.984,2.389-3.225,6.209-10.152,8.836c0,0,1.793-2.627-5.135,1.554
		c0.955-2.39,0.357-5.375,2.984-4.538c0-6.689,1.555-9.436,2.15-4.777c1.312-0.359,3.941-0.238,4.541-0.957
		c-1.555,1.672-3.229,2.51-3.229,2.51s4.301-0.24,5.615-1.435c1.439-1.19,3.23-1.19,3.23-1.19L447.131,239.318z"/>
	<path fill="#FFFFFF" d="M210.641,143.647c0,0-0.597-0.238-1.075-0.715c-0.119,2.268,1.552,3.462-0.119,5.374
		c-1.314,1.314,0.835,5.135,1.194,6.809c-1.553-0.359-2.031-0.955-2.031-0.955s1.075,3.343,2.628,5.135
		c-0.956,0-1.673-0.479-1.673-0.479s1.075,2.749,3.344,4.063c-1.432,0.478-3.224,0-3.224,0s2.867,3.344,4.538,3.941
		c-0.955,0.716-2.508,0.237-2.985,0.118c1.075,1.554,3.703,3.466,3.703,3.466s-1.673,0.357-2.389,0.118
		c1.194,1.434,3.225,1.913,3.464,2.747c0.358,0.957-0.717,0.479-0.717,0.479s1.792,2.628-2.03,1.075
		c1.434,3.941,7.047,5.852,6.689,9.198c-0.598,5.731-0.837,6.687,3.344,13.02c3.703,5.493,7.405,11.108,8.242,29.738
		c0.358-7.764,3.225-25.917,0.477-30.337c-2.627-4.538-3.822-6.091-0.835-10.271c2.986-4.302,3.821-9.079,1.433-8.481
		c-2.388,0.598-4.419,2.389-4.419,2.389s2.031-3.345-0.716-3.941c-2.747-0.596-3.941,1.553-4.181-1.194
		c-0.24-2.747-2.389-5.734-3.941-5.734c-1.434,0-4.658-5.494-5.255-9.317c-0.6-3.85-2.271-13.525-3.466-16.272V143.647z"/>
	<path fill="#7D4729" d="M234.768,298.318c0,0,4.18-8.003,7.405-10.271c3.105-2.268,5.494-4.301,6.33-6.092
		c1.911-4.062,1.194,0.836,1.194,0.836s1.672-2.986,2.748-2.27c1.074,0.479,4.061,4.301,4.061,4.301l-17.796,21.379l-3.942-7.891
		V298.318z"/>
	<path fill="#A39A82" d="M247.547,357.809c0,0,2.627,0.836,5.016,4.181c2.269,3.224,5.972,8.838,5.375,10.151
		c-0.477,1.076-2.388,0.12-3.224,0.357c0.239,0.719,0.716,1.671-1.792,1.913s-7.405-0.599-8.242-0.717
		c-2.986-3.347-4.418-7.287-7.764-9.196c-3.463-2.032-2.866-3.226-2.866-3.226s7.763-4.771,13.497-3.45V357.809z"/>
	<path fill="#D8D8CB" d="M233.573,362.458c0,0-12.184-8.719-10.392-28.546c1.792-19.947,12.063-37.145,12.302-36.072
		c1.434,5.974,0.836,7.525,7.287-0.715c7.644-10.152,9.078-4.778,10.749-11.108c0.717-2.627,2.867-2.508,2.867-2.508l3.105,3.104
		c0,0-8.48,8.241-10.75,11.945c-2.15,3.583-9.197,12.42-9.675,33.084c-0.358,20.185,9.793,21.498,8.838,25.681
		c-0.358,1.434-0.12,2.747-0.12,2.747s-1.792-1.435-3.702-1.196c-1.792,0.358-3.225,0.24-3.225,0.24s1.194,1.91,2.627,2.388
		c-2.867-0.237-5.255-1.432-6.569-1.432c-1.434,0.238-1.195,1.911-1.195,1.911s-2.029-1.051-2.147,0.5V362.458z"/>
	<path fill="#D8D8CB" d="M236.559,298.438c0,0-2.389,4.776-4.181,8.719s-3.224,4.658-3.224,7.646c0,2.746-2.629,4.658-2.629,4.658
		s2.51-12.78,8.601-21.738c0.597,0.369,1.433,0.72,1.433,0.72V298.438z"/>
	<path fill="#C5BB9D" d="M233.094,360.788c0,0,5.375,1.791,7.287,4.776c1.91,2.749,3.703,7.047,4.419,8.36
		c0.478,1.194,0.835,2.867-3.703,2.391c0.239,0.836,1.075,2.507-4.181,2.985c-4.18,0.357-12.78-0.358-14.452-1.435
		c-1.433-0.835-2.389-1.911-3.105-4.539c-0.598-2.627-2.15-7.405-2.508-8.002c1.074-1.314,0.716-5.614,5.733-5.495
		c5.016,0.24,10.51,0.95,10.51,0.95V360.788z"/>
	<path fill="#A39A82" d="M230.826,379.308c0,0-5.971-0.12-8.479-1.555c-2.508-1.312-2.748-3.584-3.105-4.778
		c-0.24-1.071-1.554-5.97-2.389-7.523c-0.24-0.596,0.716-4.059,3.344-4.059c2.628,0.117,4.419,1.551,4.419,1.551
		s-2.866,0.957-3.344,1.673c-0.358,0.717-0.358,2.269,0.597,2.985c1.075,0.598,1.553,1.194,0.717,1.553
		c-0.957,0.358-1.195,2.27,0.119,2.986c1.314,0.834,0.598,2.867,3.226,3.704c2.626,0.96,2.148,2.63,4.895,3.471V379.308z"/>
	<path fill="#FFFFFF" d="M231.78,362.818c-3.583-2.15-8.718-2.389-5.732,0c-3.345,0.358-6.45-0.835-6.45-0.835
		s0.359,2.269-2.627,3.582c-0.478-0.955,0.836-3.941-1.194-3.462c-2.03,0.479-2.031,0.356-1.792-0.359
		c0.239-0.597,1.075-2.39,0.12-2.867c-1.314-0.597-1.195,0-0.836-2.388c0.358-1.196-0.119-4.299-1.433-4.54
		c-1.195-0.12-1.195-0.238-1.195-0.955c0-0.836,0.477-2.15-1.433-2.629c-1.91-0.479-1.434-2.865,0.836-10.986
		c2.27-8.123,4.419-22.935,4.538-27.949c0.12-4.898,1.195-3.227,1.314-6.571c1.792,0.718,2.27,5.972,2.27,5.972
		s1.433-1.312,0.478-4.656c-0.957-3.346,4.777-9.555,6.45-12.182c1.672-2.75,2.747-2.39,1.075,2.387
		c-1.673,4.658,1.194,9.916,2.508,10.511c1.434,0.598,2.031,1.553-0.835,9.437c-2.867,7.764-3.345,20.186-3.345,24.844
		c0,4.657,1.792,6.448,1.792,6.448s-1.552-1.671-1.313-0.118c0.12,1.551,3.583,3.584,5.136,4.658
		c1.434,1.076-0.478,2.032,2.508,4.778c3.105,2.509,3.464,7.167,3.464,7.167s-3.583-2.031-4.3-1.314
		c-0.72,0.61-0.004,2.04-0.004,2.04V362.818z"/>
	<path fill="#C5BB9D" d="M437.932,360.788c0.236,0.835,1.912,2.388,3.701,3.462c1.793,1.076,5.613,4.54,6.689,8.718
		c0.955,3.584,2.508,6.333-2.51,5.018c-0.119,0.597,1.791,2.986-2.031,3.464c-3.938,0.358-10.27,0.479-17.199-1.792
		c-4.537-1.551-5.016-8.361-5.373-11.466c-0.24-2.987,1.434-8.481,5.494-8.6c3.949-0.229,10.4-1.779,11.23,1.2L437.932,360.788z"/>
	<path fill="#A39A82" d="M432.201,380.979c0,0-5.852-0.6-7.404-2.15c-1.555-1.551-3.227-3.821-3.703-11.228
		c0.479-1.194,2.51-4.778,4.42-3.702c2.029,0.956-1.555-0.717-1.555,1.912c-0.119,4.06,1.91,2.388,1.436,3.223
		c-0.359,0.836-1.195,2.032,0.359,2.389c1.789,0.238,3.223,2.271,3.223,2.865c0,0.718-2.508,0.957,0,1.673
		c2.5,0.73,0.711,3.59,3.221,5.03L432.201,380.979z"/>
	<path fill="#99998F" d="M433.041,356.488c0,0-4.062-3.941-6.809-7.766c-2.627-3.94-5.375-10.748-4.658-18.631
		c0.836-7.764,0.836-12.183,0.598-13.258c-0.119-1.076,0.598-2.391,2.029-4.777c1.314-2.391,1.791-9.198,2.389-7.405
		s1.555,1.435,0.598-1.553c-0.953-2.986-1.074-8.002-1.193-10.988c-0.236-2.987-1.434-8.6,1.076-17.558
		c2.387-8.84,4.061-20.902,4.061-20.902s-3.346,12.66-5.732,20.902c-2.629,8.958-2.748,16.244-0.479,19.708
		c-1.555-0.478-1.555-0.12-0.717,2.268c0.953,2.39,0.836,4.063,0.836,4.063s-0.955-1.076-0.479,1.433
		c0.479,2.627,1.195,2.271-0.238,7.166c-0.836-2.985-0.836-2.388-1.076-1.433c-0.355,0.836-0.598,2.746-2.148,4.418
		c-1.553,1.793-4.539,29.264,2.746,38.459c4.041,5.15,9.18,5.86,9.18,5.86L433.041,356.488z"/>
	<path fill="#FFFFFF" d="M435.311,362.458c0,0,0.955-3.584,2.148-2.388c1.195,1.193,0.717-1.313-3.342-3.704
		c-4.059-2.392-8.961-6.567-10.512-9.317c-3.227-5.375-3.943-18.151-2.867-22.812s-0.119-10.272-0.119-10.272
		s1.312,1.074,1.791,0.598c0.357-0.479-0.238-2.748,0-3.941c0.357-2.27-1.553-3.94-3.822-5.135c-2.27-1.193-8.242-4.42-9.674-10.392
		c-1.314-5.974-3.227-5.734-3.941,0.356c-0.598,5.973-3.107,7.526-3.107,7.526s0.957,9.077,2.152,10.391
		c1.314,1.433,2.029,3.345,2.387,7.048c0.24,3.82,1.793,18.631,2.391,21.977c1.793,10.39-0.719,13.257,2.389,13.018
		c2.15-0.12,4.539,3.463,5.137,5.613c1.195,4.419-1.553,9.315,3.105,5.853c0.596-0.478,1.672,0.241,2.031,1.436
		c2.865-0.719,0.955-2.749,1.908-3.821c1.195-1.076,2.869-0.479,2.869-0.479s-0.719-3.104,1.67-1.791
		c2.51,1.433,1.553-1.312,3.703-0.239c2.021,1.05,2.98-0.74,3.701,0.449L435.311,362.458z"/>
	
		<path fill="#985632" stroke="#A16341" stroke-width="0.36" stroke-linecap="round" stroke-linejoin="round" stroke-miterlimit="2.4142" d="
		M264.029,202.419c8.481,4.896,12.063,18.036,11.467,25.799c-0.597,7.884-8.48,24.248-10.272,13.377
		c-1.792-10.987-7.167-16.96-13.855-24.723c-6.569-7.767,2.747-5.137,5.972-1.793c6.688,6.569-1.194-10.272-10.152-22.335
		c1.792-3.6,10.152,7.26,16.84,9.66V202.419z"/>
	
		<path fill="#985632" stroke="#A16341" stroke-width="0.36" stroke-linecap="round" stroke-linejoin="round" stroke-miterlimit="2.4142" d="
		M268.807,195.249c-9.913-4.897-12.66-12.183-20.424-16.96c-3.465-2.15,7.167-2.986,8.36-7.882
		c1.314-4.779,4.896-18.633,6.092-13.855c1.194,4.897,1.792,13.855,1.194,18.751c-0.597,4.77,10.75,22.69,4.778,19.94V195.249z"/>
	
		<path fill="#985632" stroke="#A16341" stroke-width="0.36" stroke-linecap="round" stroke-linejoin="round" stroke-miterlimit="2.4142" d="
		M236.319,262.609c0,0-5.494,19.348-9.673,23.051c-4.3,3.582-7.884,10.272-7.287,12.063c0.597,1.791,4.181-2.511,8.48-7.882
		c4.18-5.37,8.48-18.15,8.48-27.23V262.609z"/>
	
		<path fill="#985632" stroke="#A16341" stroke-width="0.36" stroke-linecap="round" stroke-linejoin="round" stroke-miterlimit="2.4142" d="
		M231.422,156.668c0,0-4.062,1.909-4.777-1.792c-0.717-3.704-1.076-7.883-1.076-7.883s-0.597,2.27-1.672-0.239
		c-1.075-2.627-4.06-12.183-2.509-21.978c-1.791,3.465-3.343,12.185-2.507,15.407c0.956,3.464,0.358,3.106-0.479,0.837
		c-0.717-2.269-0.835-3.464-0.835-3.464s-0.12,6.929,1.552,9.437c1.672,2.627-0.955,1.911,0.12,3.702
		c1.074,1.791-2.031,2.867,1.313,5.254c3.344,2.387,1.074,2.27-0.119,1.675c-1.194-0.599-1.194,1.313,1.553,2.267
		c2.627,0.838,2.269,3.106,1.911,4.182c-0.358,1.076,1.195,0.957,2.031-1.434C226.646,160.25,230.108,157.259,231.422,156.668z"/>
	
		<path fill="#B27446" stroke="#AD714C" stroke-width="0.36" stroke-linecap="round" stroke-linejoin="round" stroke-miterlimit="2.4142" d="
		M443.551,179.119c2.148-9.557,14.811,22.814,3.582,18.154c-5.852-2.388-11.822-8.719-14.213-6.928s-8.959,17.798-13.855,21.141
		c-9.674,6.57-11.465,4.777-8.479-8.48c2.984-13.257-0.6-19.945-2.986-12.66s-3.582,15.169-7.285,16.363
		c-3.584,1.194,3.703-13.377,2.986-17.558c-0.598-4.18-16.842,5.376-19.111,12.66c-2.389,7.285-5.375,21.38-9.077,22.214
		c-7.884,1.793-2.986,10.274-10.869,12.065s-14.451,1.792-7.884-2.985c6.688-4.897,5.495-8.48,11.468-10.871
		c6.092-2.387,7.285-18.63,1.314-15.526c4.179-6.091,10.271-19.349,18.511-21.738c8.48-2.508,16.365-7.286,16.844-13.976
		c0.717-6.569-2.631-15.884,4.656-12.302c7.168,3.583,14.691,10.511,15.887,7.526c1.195-2.987,9.676,1.194,13.975,6.569
		c0.961,1.33,4.07,8.73,4.551,6.34L443.551,179.119z"/>
	
		<path fill="#B27446" stroke="#AD714C" stroke-width="0.36" stroke-linecap="round" stroke-linejoin="round" stroke-miterlimit="2.4142" d="
		M309.302,223.439c-2.27-5.614-7.882-19.827-16.244-23.411c-8.479-3.583-11.466-15.766-13.974-27.232
		c-2.389-11.347-5.972-24.008-9.556-25.918c-3.703-1.793-2.508,3.104,0.478,7.286c3.106,4.18,6.091,19.347,5.495,25.917
		c-0.597,6.688-2.389,2.389-4.181-5.375c-1.792-7.882-6.091-5.495-4.299,1.792c1.792,7.287,8.48,17.558,6.688,20.544
		c-1.792,2.984-10.272-3.704-14.213-6.928c-3.941-3.346-14.453-12.184-12.064-14.215c2.389-2.148,5.495-3.703,5.136-5.492
		c-0.238-1.792-5.136,0-8.479-2.987c-3.225-2.987-7.525,10.869-4.181,14.451c3.345,3.584,26.516,20.306,29.861,24.487
		c3.344,4.181,6.689,10.87,7.285,14.69c0.597,3.941,3.225,0,1.553-7.166c-1.911-7.167-2.509-9.675,0.478-7.167
		c3.105,2.388,10.033,8.361,9.674,12.542c-0.239,4.182-1.434,10.869,1.791,8.36c3.345-2.388,8.481-4.778,13.617-2.148
		c5.135,2.75,7.515,3.95,5.135-2.02V223.439z"/>
	
		<path fill="#B27446" stroke="#AD714C" stroke-width="0.36" stroke-linecap="round" stroke-linejoin="round" stroke-miterlimit="2.4142" d="
		M400.311,138.989c-6.092,0.957-13.496,5.496-21.617,6.333c-6.571,0.835-29.862,2.508-34.64,1.552
		c-4.897-0.837,0.836,2.389-6.092,0.956c-6.927-1.555-14.452-2.15-14.452-2.15s3.94,2.15-5.733,1.552s7.286,5.137,13.258,4.777
		c6.09-0.238,18.393,0.597,16.244,3.583c-2.031,3.105-1.433,8.838,4.538,3.703c6.093-5.135,10.87-2.149,10.274,0.957
		c-0.599,2.985,6.328,0.835,9.675-3.106c3.343-3.941,6.33-1.554,6.33,0.597c0,2.151,5.732,1.195,8.002-3.822
		c2.508-5.137,6.928-7.047,10.271-8.241c3.35-1.201,8.129-7.174,3.949-6.697L400.311,138.989z"/>
	<path fill="#BE8051" d="M435.311,172.559c6.328,6.21,5.973,9.077,7.883,11.227c3.941,4.418,0.24-6.69,2.387-4.301
		c2.148,2.389,5.377,15.409,4.184,15.767c-1.195,0.237-5.137-1.194-7.523-7.048c-2.389-5.732-5.975-12.303-9.557-14.451
		c-3.703-2.149-4.299,3.584-10.631-0.956c-5.256-3.702-10.869-8.719-14.451-11.108c-3.584-2.389-3.105-2.746,1.791-0.597
		c4.895,2.149,15.17,11.106,17.795,10.869c2.75-0.357,0.359-3.344,0.359-3.344s5.369,1.55,7.76,3.94L435.311,172.559z"/>
	
		<path fill="#BE8051" stroke="#B77A4A" stroke-width="0.36" stroke-linecap="round" stroke-linejoin="round" stroke-miterlimit="2.4142" d="
		M263.194,194.889c4.538,2.27,11.107,8.719,12.661,13.017c1.434,4.183-2.389,1.436-5.136-2.747
		c-2.747-4.299-10.869-6.926-14.213-11.824c-3.344-4.778-15.408-9.914-15.408-14.453s2.15-4.897,3.941-5.376
		c1.792-0.715,5.733-0.715,2.389,1.436c-3.344,2.151-3.344,3.344,0,5.374c3.344,2.15,12.063,12.78,15.766,14.57V194.889z"/>
	<path fill="#99998F" d="M299.265,290.799c0,0-0.718,0.597-0.478,1.076c1.91,3.701,2.627,8.24,1.91,15.287
		c-0.716,8.719-0.358,9.795-5.017,6.569c-2.388-1.552-3.942-6.688-3.942-6.688c0.24-1.193,1.195-5.373,1.075-8.002
		c-0.119-2.508-0.716-6.33-0.239-6.567c0.478-0.12,3.464-1.195,5.733-2.39c2.509-1.076,8.122-3.463,12.422-10.631
		c-4.301,8.83-10.153,10.271-11.467,11.34L299.265,290.799z"/>
	<path fill="#818179" d="M290.904,292.828c0,0,1.075-0.356,2.149-0.356c0.479,0,2.867-0.12,0.479,0.955
		c-0.717,0.358-0.479,3.224-0.597,6.567c-0.12,5.377,2.269,11.229,3.225,12.901c0.835,1.551,2.628,2.028,3.583,1.791
		c-0.598,1.435-3.226,0.478-5.136-2.03c-1.911-2.39-2.627-4.896-2.627-4.896c0.478-3.225,0.835-6.331,0.716-9.557
		c-0.12-3.104-0.716-4.061-0.957-4.418c-0.238-0.34-0.835-0.939-0.835-0.939V292.828z"/>
	<path fill="#F0EDE2" d="M315.512,270.969c-2.987,6.093-5.256,10.511-8.481,13.855c-2.866,2.864-8.599,5.254-12.062,6.807
		c-2.269,0.955-3.703,1.195-3.105,2.27c1.672,3.583,0.598,12.064-0.12,15.887c-0.835,4.061-2.865,7.523-4.299,7.166
		c-3.344-0.955-8.719-13.377-9.317-23.291c-3.822,0.121-10.152,0.479-18.871-6.688c-3.942-3.344-7.405-6.211-7.405-6.211
		s1.911-0.121,3.225-1.911c1.433-1.791,4.658-6.331,3.822-3.346c-0.717,2.987-1.673,3.821-1.673,3.821s3.226-1.553,4.419-5.612
		c1.195-4.181,2.389-3.702,2.748-2.747c0.239,0.954,2.269-1.075,2.508-2.867c0.359-1.791,3.464,0,5.256-4.179
		c2.509,1.909,2.031,0.476,6.091-1.913s13.377-2.627,13.855-1.312c0.478,1.313,0.716,3.463,4.062,1.074
		c3.344-2.389,4.06-3.582,5.733-3.465c1.673,0.118,2.269,1.676,1.194,2.627c-1.075,1.076-1.911,1.676-0.597,3.465
		C305.475,267.988,317.421,267.148,315.512,270.969L315.512,270.969z"/>
	<path fill="#BCBCB1" d="M231.422,320.658c-0.358,2.391-1.792,5.854-0.836,10.51c0.836,4.66,4.061,15.648,1.791,16.365
		c-2.269,0.598-3.224-3.583-2.747-4.777c0.477-1.195,1.792,1.91,1.553-0.836c-0.359-2.748-2.03-6.092-1.792-11.824
		c0.119-5.733,1.313-10.153,1.433-12.303c0.121-2.279,1.315-1.319,0.598,2.86V320.658z"/>
	<path fill="#EBEBDD" d="M209.565,338.698c0,0-0.597,7.166,0.479,8.358c1.074,1.197,2.508-0.478,2.389,1.314
		S211.836,351,211.836,351s2.149-0.479,2.269,1.791c0.12,2.271-0.12,4.54,0.597,4.897c0.716,0.477,1.792-2.508,2.27-0.598
		c0.478,2.03,2.867,4.897,1.911,6.568c-0.597,1.195-2.03,1.911-2.03,1.911s-0.598-2.148-2.271-1.671
		c-1.673,0.477-2.985,0.119-2.03-2.271c0.836-2.149-0.119-2.271-0.478-2.508c-0.478-0.356-0.597-0.356,0.239-1.434
		c0.955-1.314,0-4.897-2.031-5.018c-1.433-0.117-0.835-0.356-0.835-2.029c0-0.836,0.119-1.672-0.957-1.672
		c-1.194,0-1.433-1.312-1.075-3.463c0.358-2.391,1.433-3.351,2.15-6.811V338.698z"/>
	<path fill="#625C4E" d="M454.301,374.288c0,0-1.195-3.821-2.865-6.09c-1.672-2.27-4.898-5.733-4.42-5.971
		c0.596-0.12,2.865,2.508,3.346,3.462c0.477,1.073,3.342,5.494,3.939,6.45c0.598,0.955,1.312,1.435,1.791,1.194
		c-0.84,0.72-1.91,0.12-1.789,0.96L454.301,374.288z"/>
	<path fill="#625C4E" d="M445.82,377.988c0,0-1.312-5.136-2.867-7.524c-1.43-2.269-6.209-4.299-5.852-5.612
		c0.24-1.195,4.537,2.389,5.494,3.701c1.074,1.671,3.941,9.795,5.494,9.676c-0.471,0.109-1.551-0.011-2.26-0.25L445.82,377.988z"/>
	<path fill="#EBEBDD" d="M408.07,337.258c0,0,2.15,7.405,2.75,10.272s0.715,4.778,1.67,4.538s2.512,0.122,2.986,2.031
		c0.359,2.031,0.479,3.583,1.553,4.659c1.076,0.954,1.195,4.18,1.793,5.254c0.598,1.194,1.791,2.15,2.508,2.389
		c0.717,0.356,0.953,0,1.312-1.313c0.359-1.193,1.312-1.671,2.748-1.193c-1.672,0.118-2.508,0.598-2.27,2.149
		c0.238,1.671-0.955,2.15-2.031,2.271c-0.477-1.436-1.074-1.792-2.268-0.956c-1.555,1.076-2.391,1.552-2.271-0.6
		c0-2.147,0.24-4.179-0.598-5.97c-0.717-1.913-2.389-5.137-4.656-5.019c-2.271,0-2.029-1.314-2.029-2.148
		c0-0.837,0.238-5.135-0.6-10.512c-0.701-4.649-0.592-5.851-0.592-5.851L408.07,337.258z"/>
	<path fill="#625C4E" d="M254.713,372.498c-0.478-1.074-2.03-4.896-4.061-7.643c-2.032-2.627-2.867-3.227-2.27-3.583
		c0.597-0.357,1.552,0.356,2.389,2.149c0.716,1.791,3.583,6.568,4.181,7.646c0.716,1.313,2.627,1.432,2.627,1.432
		c-0.715,0.35-2.388-0.13-2.866-0.01V372.498z"/>
	<path fill="#625C4E" d="M241.097,376.318c0,0-2.27-7.047-4.658-9.078c-2.389-1.911-4.062-2.746-2.748-2.987
		c1.195-0.237,3.464,2.507,4.778,4.419c1.194,2.031,3.821,7.646,5.733,7.406C243.605,376.438,242.65,376.438,241.097,376.318z"/>
	<path fill="#AFAB9F" d="M394.941,246.839c0,0-8.48,2.271-11.346,1.673c-3.106-0.477-9.437,1.555-15.29,3.821
		c-7.763,2.987-18.273,10.631-29.861,13.737c-11.588,3.107-17.198,2.746-18.512,2.985c-1.552,0.356,2.389-1.671-1.075-1.912
		c-3.583-0.358-5.614-0.715-5.972-1.194c-0.359-0.356,6.688,0.6,12.9-0.834c6.212-1.435,26.873-6.568,36.787-12.303
		c5.376-3.226,16.364-6.927,21.501-7.047c5.016-0.24,11.346-9.076,11.346-9.076s-0.359,2.865-1.314,3.941
		c0.955-0.6,2.031-1.434,1.555,0.238c-0.6,1.554-2.51,3.82-2.51,3.82s2.867-0.953,2.391,0.6c-0.262,1.08-0.611,1.55-0.611,1.55
		H394.941z"/>
	<path fill="#D8D8CB" d="M263.911,290.078c0,0,4.896,4.062,14.212,3.584c0.359,5.973,1.672,9.196,3.823,15.409
		c1.314,3.94,4.539,7.284,4.778,7.405c0.836,0.477,1.075,0.715,2.15-0.241c-0.717-0.118-1.314-0.715-2.508-1.909
		c-0.956-1.313-3.823-7.047-5.018-13.258c-1.075-5.494-0.716-9.076-2.269-9.437c-1.313-0.351-9.077,2.27-15.168-1.55V290.078z"/>
	
		<path fill="#B27446" stroke="#AD714C" stroke-width="0.36" stroke-linecap="round" stroke-linejoin="round" stroke-miterlimit="2.4142" d="
		M434.711,139.707c-8.48-3.941-16.844-3.345-12.064-5.493c4.896-2.15,7.764-3.823,14.811-10.274
		c5.732-5.255,20.188-21.259,32.129-44.669c-0.236,3.703-1.91,17.557-0.117,21.499c1.791,3.942,1.791,15.529-0.359,11.706
		c-4.777-8.479-9.076,2.747-13.02,12.064c-3.82,9.316-12.898,13.974-11.107,20.783c1.793,7.046-0.598,8.599-2.746,2.508
		c-2.02-6.091-4.17-6.69-7.51-8.123H434.711z"/>
	
		<path fill="#4B3928" stroke="#76523A" stroke-width="0.36" stroke-linecap="round" stroke-linejoin="round" stroke-miterlimit="2.4142" d="
		M560.721,93.364c0.715,1.194,2.148,5.017,2.387,7.524c0,1.436-0.596,0.836-0.836,0.717c-0.357-0.238-5.732-2.508-5.732-4.299
		c0-1.673,1.193-3.226,2.389-3.226c1.07,0.001,1.789-0.357,1.789-0.716H560.721z"/>
	<path fill="#E5D3B2" d="M560.721,93.364c-1.436-2.748-2.629-4.299-8.959-10.033c-6.688-6.091-4.182-0.716-2.988,1.434
		c1.314,2.03,0,3.821-2.148,3.344c-2.029-0.715-7.285,1.912-3.82,4.42c3.463,2.627,7.285,2.029,6.807,3.941
		c-0.355,1.074-5.73,0.477-7.166,3.941c-0.953,2.27,2.27,1.913,5.137,3.106c2.867,0.955,6.092,1.909,8.48,3.223
		c2.389,1.434,3.822,1.674,3.822-0.715c-0.359-5.734,1.193-4.301,1.91-4.42c1.195-0.12-5.973-3.344-5.854-5.734
		c0.361-6.211,5.621-0.714,4.781-2.507H560.721z"/>
	
		<path fill="#1A120B" stroke="#3F3020" stroke-width="0.36" stroke-linecap="round" stroke-linejoin="round" stroke-miterlimit="2.4142" d="
		M562.029,101.01c0,0-3.584-5.376-4.775-4.54c-1.195,0.956-1.555,1.911,0.355,2.747C559.408,100.054,561.199,102.204,562.029,101.01
		L562.029,101.01z"/>
	
		<path fill="#24140C" stroke="#67402A" stroke-width="0.36" stroke-linecap="round" stroke-linejoin="round" stroke-miterlimit="2.4142" d="
		M558.211,108.653c-1.551-0.957-6.689-3.702-10.033-3.941c-3.225-0.359-5.734-2.749-6.33-1.194
		c-0.596,1.433,0.596,1.433,3.584,1.671c3.104,0.357,8.24,2.15,10.629,3.941c2.391,1.913,4.66,1.314,4.66,1.314l-0.359-0.956
		c-1.189-0.716-1.309-0.358-2.148-0.835H558.211z"/>
	<path fill="#4B2C1B" d="M517.121,71.508c0,0-0.479-0.957-1.914-1.793c-1.551-0.836-3.701-0.597-5.613,0.238
		c-1.791,0.836-2.865,0.718-3.342,0.718c-0.598-0.12,1.072,3.344,5.373,4.06c2.389,0.359,3.941-0.238,4.299-0.478
		c1.311-0.597,2.629-1.313,1.189-2.745H517.121z"/>
	
		<path fill="#8F502F" stroke="#9D603F" stroke-width="0.36" stroke-linecap="round" stroke-linejoin="round" stroke-miterlimit="2.4142" d="
		M515.33,79.033c-4.896,0.595-6.928-1.196-9.074-2.749c-2.146-1.553-2.988-0.357-0.957,1.793c2.15,2.15,5.494,4.538,8.24,4.538
		s-3.104,2.389-6.33,0.359c-3.344-2.15-10.031-4.54-10.271-7.884c-0.355-3.344,1.436-6.928,1.195-9.315
		c-0.357-2.39,5.256,0,6.926,3.583c1.674,3.464,4.303,5.255,8.242,5.493c5.256,0.359,5.375-1.791,4.66-2.865
		c-0.48-0.836-0.836-2.27-2.631-3.106c-1.791-0.954,2.51-1.791,3.945,3.225c0.596,2.032,2.027,3.823,2.027,5.137
		c0,1.194-1.193-2.15-2.389-2.15s-1.436,0.836,0.359,3.943c1.789,2.985,6.328,5.732,8.719,5.971
		c2.387,0.357,3.939,4.299,5.135,5.732c1.193,1.551,3.344,4.181,0.598,2.747c-2.748-1.553-5.135-7.286-7.285-7.525
		c-2.029-0.357-8.123-4.897-9.314-7.524c-1.211-2.749-1.811,0.597-1.811,0.597H515.33z"/>
	<path fill="#985632" d="M547.34,88.109c-0.596-0.597-0.955-1.313-1.193-2.15c-0.717-2.148-1.91-5.135-3.939-6.926
		c-2.15-1.792-3.346-2.749-1.195-2.151c2.029,0.597,5.613,4.779,6.926,7.286c0.359,0.717,0.719,1.314,1.316,2.15
		c0.1,0.715-0.5,2.029-1.93,1.791H547.34z"/>
	<path fill="#985632" d="M543.4,93.007c-2.031-0.358-3.941-0.478-3.344,0.716c0.955,1.911,4.537,2.508,6.568,2.747
		c1.193,0.12,2.029,0,2.867-0.239c0.238-0.717-0.719-1.314-2.51-1.673c-1.92-0.477-3.109-1.314-3.59-1.551H543.4z"/>
	<path fill="#C3B397" d="M549.49,96.231c0.955-0.118,1.91-0.118,2.627,0.239c1.553,0.956-2.744-2.39-2.389-4.183
		c0.357-1.793,3.584-0.357,4.539,1.196c0.955,1.434,1.912,0.12,0.6-1.196c-2.152-2.028-4.182-4.179-5.494-5.97
		c-0.119,1.076-0.957,2.029-2.152,1.791c0.717,0.957,1.553,1.671,1.553,1.671s-1.193,1.913-0.598,3.464
		c1.197,1.196-0.238,0.479-2.029,0.239c-0.598-0.119-1.791-0.239-2.748-0.477c0.957,0.597,2.031,1.194,3.346,1.433
		c1.199,0.24,3.109,0.838,2.75,1.793H549.49z"/>
	
		<path fill="#864B2C" stroke="#985D3D" stroke-width="0.36" stroke-linecap="round" stroke-linejoin="round" stroke-miterlimit="2.4142" d="
		M509.6,101.01c-7.523-8.243-12.66-13.857-12.062-10.871c0.598,3.105,3.582,7.883,3.582,7.883s-6.568-1.791-9.074-5.493
		c-2.391-3.584-10.873-7.168-7.168,0c3.582,7.285,7.168,15.407,1.791,25.679c-0.836,1.554-14.094-19.11-13.855-5.017
		c0.238,9.915,9.795,20.782,9.316,22.337c-3.701,10.748-7.164,24.483-12.303,32.249c-5.852,8.36-3.941,24.723-3.941,24.723
		c2.391-4.538,8.721-10.272,14.453-25.679c5.734-15.407,12.66-33.683,16.363-45.747c1.91-6.448,10.271-4.419,15.408-3.94
		c5.971,0.595,11.105,0.595,13.258-0.719c4.539-2.508,3.701,1.792,8.6-1.194c5.016-1.909,3.344,1.076,11.824,1.076
		c6.092,0,6.568,0.477,7.525,0.956c1.312,0.715,5.852,0.476,7.404-2.389c1.434-2.867-1.076-2.39-1.076-2.39
		s-2.982,0.359-5.973-2.388c-3.104-2.747-7.523-1.791-10.631-2.985c-2.984-1.195-2.984-2.389-3.225-3.583
		c-0.357-1.314-1.91-0.359-3.701-1.314c-1.793-0.836-5.734-4.182-5.137-2.987c0.6,1.194,2.746,4.778,4.18,5.495
		c1.555,0.477-1.434,0.477-3.225-0.717c-1.791-1.195-6.688,0-7.523-1.791c-0.955-1.792-4.537-0.836-5.734-2.39
		c-1.193-1.433-6.449-2.507-6.809,3.225c-0.109,1.195-1.42-1.075-2.26-2.028L509.6,101.01z"/>
	<path fill="#C68B5C" d="M514.971,68.878c-1.555-0.597-3.705-0.477-5.018,0.12c-1.434,0.597-3.105,0.955-3.941,0.716
		c-0.957,0,0,1.314,0.479,1.911c0.596,0.716-0.834,0.12-1.672-1.314c-0.836-1.434-0.957-2.388,0.119-2.15
		c1.434,0.359,5.375-1.314,8.002-0.478c2.75,0.838,2.869,1.555,2.029,1.195H514.971z"/>
	
		<path fill="#E5D783" stroke="#8D5332" stroke-width="0.36" stroke-linecap="round" stroke-linejoin="round" stroke-miterlimit="2.4142" d="
		M515.57,70.432c0.955,0.597,2.15,2.39,0.119,3.463c-1.312,0.717-6.092,0.955-8.361-2.388c-0.596-0.836,1.674-0.599,2.869-1.196
		c1.43-0.596,3.818-1.312,5.369,0.121H515.57z"/>
	
		<path fill="#0C0602" stroke="#DFC27D" stroke-width="0.36" stroke-linecap="round" stroke-linejoin="round" stroke-miterlimit="2.4142" d="
		M515.811,72.104c-0.117,0.598-0.236,1.076-3.463,1.076c-2.508-0.12-2.389-0.957-2.389-1.553c0-0.596-0.119-0.717,2.627-0.717
		c2.98-0.001,3.221,0.357,3.221,1.194H515.811z"/>
	
		<path fill="#261D0E" stroke="#63452A" stroke-width="0.36" stroke-linecap="round" stroke-linejoin="round" stroke-miterlimit="2.4142" d="
		M549.01,81.062c-2.746-2.627-4.182-3.583-8.48-6.211c-7.883-4.656-16.48-7.405-18.75-9.434c-2.15-2.032-6.33-5.974-8.84-7.048
		c-2.508-1.075-7.283-1.792-11.705,0.119c-4.42,1.911-6.688,1.076-6.688,1.076s2.865,1.911,5.135,1.671
		c2.15-0.237,5.139,3.106,4.422,3.464c-0.719,0.358-0.957,2.748,1.553,1.434c2.389-1.194,2.865-3.225,7.285-2.029
		c4.537,1.194,7.762,4.418,8.002,6.091c0.119,1.791,2.029,4.537,3.939,5.732c1.793,1.314,4.42,3.941,1.436,2.27
		c-2.988-1.791-6.094-0.838-4.182,0.837c1.912,1.675,7.406,2.627,11.229,3.342c3.82,0.715,6.211,2.986,7.404,3.943
		c1.314,0.955,4.777,2.029,3.225,0.12c-1.553-2.032-3.104-4.063-2.506-5.614c0.717-1.673,1.191-1.196,2.148,0.477
		c0.836,1.673,4.062,3.464,4.658,2.509c0.139-0.242-2.85-5.018,0.729-2.749H549.01z"/>
	
		<path fill="#C68B5C" stroke="#B67C57" stroke-width="0.36" stroke-linecap="round" stroke-linejoin="round" stroke-miterlimit="2.4142" d="
		M542.33,101.604c-2.508-0.595-8.959-1.792-10.271-3.104c-1.314-1.434-3.227-1.434-2.27-0.12c0.955,1.193-5.732-0.478-7.883-2.51
		c-2.029-1.909-10.393-4.776-11.945-4.776c-1.432,0-1.672-3.702-3.941-4.898c-2.27-1.194-0.955,0.598,0.359,3.105
		c1.432,2.39-1.912,0.836-3.941-0.357c-1.91-1.194-1.791-1.194-1.555-3.464c0.121-2.27,0.121-4.54-1.191-5.733
		c-1.436-1.194-0.836-1.792,1.672,0c2.627,1.792,5.852,5.733,11.705,5.376c5.852-0.239,4.658-0.836,3.941-1.673
		c-0.717-0.955-0.957-2.627,0.596-1.434c1.436,1.194,2.986,5.376,6.451,5.852c4.061,0.597,4.18,7.047,9.912,7.407
		c3.107,0.238,7.885,0.477,12.303,2.268c-3.359,1.314-4.068,2.39-3.949,4.061H542.33z"/>
	<path fill="#EFE6C7" d="M546.27,97.544c0,0,0.955,0.717,1.555,0.957c1.672,0.597,5.135-1.434,7.762,1.553
		c2.867,3.104,3.941,2.507,4.182,3.941c0.238,1.551,1.195,5.135-2.389,3.464c-1.314-0.599-2.986-1.434-4.66-2.15
		c-6.09-2.627-9.674-2.509-10.389-3.704c-0.471-0.836,0.6-3.104,3.949-4.061H546.27z"/>
	<path fill="#864B2C" d="M499.68,68.999c0.359-1.791-1.553-3.224-2.627-0.836c-1.074,2.388-3.346,6.569-0.121,12.065
		c3.107,5.374,3.229,9.794,5.375,21.854c2.15,12.065,4.66-1.671,3.227-5.255c-1.553-3.583-2.389-7.047-2.627-9.794
		c-0.119-2.866-1.074-5.135-3.227-7.882c-2.27-2.746-3.463-8.242-2.27-8.002C498.609,71.508,499.449,69.715,499.68,68.999
		L499.68,68.999z"/>
	<path fill="#864B2C" d="M481.65,73.179c1.434-2.03,1.434-4.42-0.119-5.375c-1.553-0.836-2.986,1.553-1.553,1.553
		c1.553,0-0.719,3.464-3.346,10.87c-2.508,7.405-2.508,12.183-2.508,12.183s6.33-17.679,7.521-19.231H481.65z"/>
	
		<path fill="#502D1A" stroke="#6B3C23" stroke-width="0.36" stroke-linecap="round" stroke-linejoin="round" stroke-miterlimit="2.4142" d="
		M550.92,116.416c0,0-8.48-1.432-10.748-2.745c-2.271-1.196-14.93-5.375-12.184-2.51c2.031,2.152-1.076,3.466-4.777,1.792
		c-3.822-1.672-9.676,1.674-13.258-0.955c-3.465-2.51-8.121-6.928-11.107-1.194c-2.986,5.732-18.871,12.063-16.006,16.363
		c2.867,4.179,4.301,6.688,3.584,9.795c-0.479,2.985-2.029,14.571-4.182,18.154c-2.15,3.462-2.506,11.108-3.104,12.779
		c-0.598,1.671-0.479,2.51-0.479,2.51s8.6-20.067,14.332-36.907c4.182-12.185,2.986-16.962,10.75-17.082
		c9.436-0.118,13.379,3.227,21.977-0.118c4.658-1.671,3.229,1.671,7.525-0.599c3.344-1.791,5.018-0.597,5.852-0.237
		c2.039,1.068,2.879,0.711,11.83,0.949L550.92,116.416z"/>
	<path fill="#E5D3B2" d="M483.92,68.878c-2.148,0.836-7.883,15.527-9.912,20.664c-2.15,5.135-3.941,24.485,5.373,34.397
		c5.256,5.616,14.812,10.75,21.619,12.542c5.375,1.553,8.959,3.464,8.004-8.601c-0.955-12.061-6.807-20.542-7.287-39.294
		c-0.119-7.405-5.971-8.24-5.971-16.364c0-1.194-2.15-0.597-2.629,1.673s-3.223,5.972-3.703,3.941c0,0.001-3.1-11.704-5.49-8.958
		H483.92z"/>
	<path fill="#D3BD98" d="M498.01,131.824c3.346,1.314,5.732,2.031,4.062,0c-1.674-2.15-11.35-8.002-13.02-15.526
		c-1.674-7.645-8.719-15.886-7.285-24.963c1.551-9.08,2.508-16.006,0.836-11.587c-1.674,4.419-5.732,14.81-4.42,22.576
		c1.439,7.882,2.99,23.17,19.83,29.5H498.01z"/>
	<path fill="#D3BD98" d="M508.641,134.333c-0.357,2.508-1.791,3.462-4.896,2.628c-3.346-0.836-12.184-3.583-19.111-8.958
		c-7.045-5.257-9.195-8.72-10.629-15.646c-1.553-6.93-2.029-13.854-0.357-20.426c-0.119,5.496-1.195,12.901,1.314,19.23
		c2.627,6.331,6.207,12.899,7.881,12.78c1.674-0.119,1.672,1.196,3.941,2.869c2.268,1.673,12.422,8.239,15.887,8.478
		c3.469,0.24,5.15,1.792,5.98-0.955H508.641z"/>
	<path fill="#EADFC0" d="M508.641,128.002c-0.598-5.972-3.346-14.812-4.896-20.902c-3.225-12.661-1.551-19.707-3.822-23.173
		c-2.27-3.464-3.941-5.257-4.539-7.405c-0.598-2.03-1.193,0.955-0.717,3.345c0.359,2.388-0.955,5.971-2.865,7.764
		s1.434,21.021,4.061,24.366c2.51,3.464,6.447,4.538,7.883,8.838c1.312,4.18,4.539,9.196,4.658,11.585
		c0.25-1.91,0.369-2.865,0.25-4.418H508.641z"/>
	
		<path fill="none" stroke="#000000" stroke-width="0.288" stroke-linecap="round" stroke-linejoin="round" stroke-miterlimit="2.4142" d="
		M244.8,373.688c-0.479-0.839-3.584-8.602-6.45-10.272c-0.836-0.479-1.194-0.836-2.27-1.312c-0.359-2.75-1.673-5.854-3.344-7.167
		c-3.226-2.867-0.957-3.585-2.748-4.778c-1.433-0.956-5.016-3.225-5.016-4.777c0-1.194,1.194,0.119,1.194,0.119
		s-1.194-1.553-1.553-4.181c-0.239-2.627-0.12-10.989,0.955-17.797c0.717-3.704,2.627-11.466,4.778-16.483
		c2.15-4.896,8.122-16.84,12.661-19.588c4.419-2.748,5.255-5.135,5.733-5.972c0.357-0.838,1.433-2.627,0.955,1.194
		c2.628-3.703,2.628-0.836,5.135-3.465c2.509-2.747,2.389-4.061,4.181-4.657c0,1.673-1.194,4.062-1.672,4.657
		c3.583-2.029,4.299-5.374,4.778-6.688c0.358-1.314,1.194-2.986,2.031-1.793c0.837,1.194,2.03-0.715,2.508-1.91
		c0.598-1.074-0.239-1.195,2.031-1.912c2.149-0.597,4.299-2.27,5.016-8.239c0.717,0.952,0.597,2.745,0.597,2.745
		s3.583-3.463,2.03-9.793c1.553,1.433,2.032,3.582,2.032,3.582s1.195-4.299,0.716-7.404c-0.359-3.105,0.479-5.973,0.479-5.973
		s1.433,0.479,2.388,2.15c0.239-3.105,0-4.42-0.836-7.285c0.836-1.793,0.836-4.302,0.717-5.017"/>
	
		<path fill="none" stroke="#000000" stroke-width="0.288" stroke-linecap="round" stroke-linejoin="round" stroke-miterlimit="2.4142" d="
		M449.041,375.358c0,0-0.717-3.462-2.271-5.853c-1.553-2.39-3.463-4.181-5.613-5.495c-2.15-1.313-3.344-2.986-3.344-3.583
		c0.355,0.118,0.355-0.239-0.479-1.312c-1.436-2.03-4.658-3.346-7.168-5.494c-2.627-2.15-6.566-5.257-7.762-9.078
		c-1.195-3.822-2.629-10.75-2.033-18.035c0.598-7.404,1.438-4.181,0.24-12.422c2.15,1.074,2.029,1.074,1.793-3.701
		c0.598-2.032,1.193-5.734,1.91-1.196c1.312-3.582,0.834-4.776,0.598-5.853c-0.357-0.955-0.957-3.939,0.119-2.627
		c0-2.627-0.598-3.822-0.836-4.299c-0.24-0.836-1.555-2.988,0.717-2.15c-1.076-2.748-1.674-3.943-1.555-7.885
		c0.24-5.732,3.227-16.36,4.779-21.139c1.432-4.778,3.344-12.779,3.939-15.886c0.48-3.226,0.598-5.017,2.748-4.181
		c0.119-3.941,0.357-4.896,0.479-5.376"/>
	
		<path fill="none" stroke="#000000" stroke-width="0.288" stroke-linecap="round" stroke-linejoin="round" stroke-miterlimit="2.4142" d="
		M259.252,287.219c0,0-3.105-2.989-7.405-6.451"/>
	
		<path fill="none" stroke="#000000" stroke-width="0.288" stroke-linecap="round" stroke-linejoin="round" stroke-miterlimit="2.4142" d="
		M498.371,66.968c-1.195-0.478-2.629,3.94-2.629,5.254c0,8.124,5.852,8.958,5.971,16.364c0.48,18.753,6.332,27.234,7.287,39.294
		c0.955,12.065-2.627,10.154-8.002,8.601c-6.809-1.792-16.365-6.926-21.619-12.542c-9.314-9.913-7.523-29.263-5.375-34.397
		c2.031-5.137,5.973-14.572,7.166-16.721c0.957-1.793,1.672-2.75,1.314-3.464c-0.357-0.836-0.238-1.553-1.553-1.792"/>
	<path fill="#C09A71" d="M561.68,102.083c-0.836,0.122-1.672,0.717-1.553,1.913c0.119,1.194-0.238,0.238-0.479-0.956
		c-0.238-1.314,0.717-2.15,1.912-1.434C562.631,102.324,561.68,102.083,561.68,102.083L561.68,102.083z"/>
	<path fill="#D0AB82" d="M560.24,103.995c0.357,1.074,0.598,2.865,0.121,3.941c-0.477,1.076-1.314,0.597-2.15-0.119
		c-0.955-0.716,1.312,0.716,1.434-1.434c0-2.15,0-3.701,0.6-2.388H560.24z"/>
	<path fill="#F2EDE3" d="M512.111,70.312c1.193,0,2.148,0.12,2.148,0.478c0,0.239-0.24,0.239-2.148,0.119
		C511.27,70.909,510.67,70.551,512.111,70.312z"/>
	<path fill="#FFFFFF" d="M513.301,70.79c0.479,0,0.715-0.238,0.119-0.357c-0.84-0.001-0.84,0.238-0.121,0.357H513.301z"/>
</g>
</svg>
