<?xml version="1.0" encoding="utf-8"?>
<!-- Generator: Adobe Illustrator 16.0.0, SVG Export Plug-In . SVG Version: 6.00 Build 0)  -->
<!DOCTYPE svg PUBLIC "-//W3C//DTD SVG 1.1//EN" "http://www.w3.org/Graphics/SVG/1.1/DTD/svg11.dtd">
<svg version="1.1" id="Layer_2" xmlns="http://www.w3.org/2000/svg" xmlns:xlink="http://www.w3.org/1999/xlink" x="0px" y="0px"
	 width="768px" height="430px" viewBox="0 0 768 430" enable-background="new 0 0 768 430" xml:space="preserve">
<g>
	<g>
		<g>
			<g>
				<path fill="#8A2B0E" d="M376.124,344.792c0,0-6.285,7.683-5.786,18.355c1.696,3.292,5.786,2.594,7.981,1.995
					c0.897,1.495,5.885,4.789,11.97-0.399c6.087-5.187,5.587-15.861-1.895-19.253C380.913,342.1,380.016,342.497,376.124,344.792z"
					/>
			</g>
			<g>
				<path fill="#A6420E" d="M380.016,355.167c-2.396,7.98,5.585,11.174,11.172,7.98c0.58-0.464,1.121-0.966,1.631-1.494
					c3.166-5.546,1.776-13.351-4.424-16.163c-7.481-3.391-8.379-2.993-12.271-0.698c0,0-5.33,6.537-5.772,15.92
					c0.031,0.014,0.055,0.028,0.086,0.042C375.227,362.35,377.62,359.156,380.016,355.167z"/>
			</g>
			<g>
				<path fill="#67200A" d="M383.628,367.955L383.628,367.955c-2.605,0-4.668-1.303-5.479-2.355
					c-4.063,1.043-6.869,0.25-8.165-2.269l-0.044-0.165c-0.5-10.703,5.812-18.547,5.875-18.626l0.107-0.092
					c1.991-1.176,3.201-1.84,4.861-1.84s3.623,0.636,7.774,2.519c3.384,1.533,5.638,4.641,6.187,8.526
					c0.607,4.306-1.001,8.669-4.196,11.395C388.285,366.977,385.956,367.955,383.628,367.955z M378.506,364.679l0.155,0.259
					c0.418,0.694,2.247,2.22,4.967,2.22c2.134,0,4.287-0.914,6.402-2.717c2.99-2.55,4.492-6.641,3.924-10.675
					c-0.51-3.609-2.596-6.493-5.724-7.911c-3.986-1.809-5.937-2.448-7.447-2.448c-1.44,0-2.506,0.58-4.392,1.692
					c-0.544,0.695-6.084,8.056-5.658,17.942c1.159,2.152,3.741,2.736,7.481,1.716L378.506,364.679z"/>
			</g>
		</g>
		<g>
			<g>
				<path fill="#8A2B0E" d="M394.469,349.713c0,0-6.273,4.523-6.142,17.358c3.192,3.991,6.253,2.395,7.317,1.663
					c0.53,2.128,3.392,6.582,10.772,3.525c7.384-3.06,10.905-5.313,8.646-13.7c1.729,0.599,7.115-1.065,1.263-8.847
					C410.474,341.935,396.286,347.818,394.469,349.713z"/>
			</g>
			<g>
				<path fill="#A6420E" d="M395.977,359.956c-0.8,7.182,8.036,9.904,12.868,7.601c4.788-2.284,6.285-8.998,3.092-12.987
					c2.357,0.784,5.536,1.046,6.31-1.757c-0.421-0.905-1.042-1.932-1.921-3.1c-5.852-7.778-20.039-1.895-21.856,0
					c0,0-6.214,1.989-6.081,14.825c0.103,0.129,0.024,1.391,0.127,1.507C393.073,367.523,394.586,364.128,395.977,359.956z"/>
			</g>
			<g>
				<path fill="#67200A" d="M401.824,373.698c-3.843,0-5.756-2.531-6.409-4.349c-0.658,0.374-1.555,0.724-2.603,0.724
					c-1.722,0-3.336-0.928-4.797-2.753l-0.085-0.107l-0.002-0.138c-0.133-12.895,6.044-17.496,6.308-17.685
					c1.276-1.34,7.416-3.994,13.054-3.994c4.172,0,7.32,1.372,9.354,4.077c3.104,4.129,3.011,6.491,2.385,7.746
					c-0.683,1.365-2.156,1.85-3.211,1.85l0,0c-0.072,0-0.144-0.001-0.214-0.007c1.969,8.02-1.458,10.427-9.034,13.565
					C404.856,373.338,403.26,373.698,401.824,373.698z M395.893,368.08l0.139,0.559c0.396,1.582,2.06,4.261,5.793,4.261
					c1.33,0,2.823-0.34,4.44-1.009c7.491-3.104,10.552-5.294,8.414-13.228l-0.197-0.729l0.712,0.248
					c0.75,0.259,2.452,0.022,3.12-1.317c0.527-1.056,0.554-3.109-2.306-6.912c-1.876-2.494-4.811-3.759-8.718-3.759
					c-5.533,0-11.421,2.637-12.531,3.796c-0.115,0.091-6.115,4.595-6.033,16.938c1.279,1.559,2.652,2.346,4.087,2.346
					c1.109,0,2.027-0.472,2.605-0.869L395.893,368.08z"/>
			</g>
		</g>
		<g>
			<g>
				<path fill="#8A2B0E" d="M457.56,326.702c0,0-13.103,12.236-10.842,18.82c1.996,3.128,5.454,3.453,7.649,2.758
					c0.2,1.433,6.649,6.156,16.094,3.495c9.443-2.66,12.304-25.139,7.049-28.73C472.257,319.454,460.619,322.513,457.56,326.702z"/>
			</g>
			<g>
				<path fill="#A6420E" d="M452.637,345.591c1.189-0.859,2.482-2.581,3.381-4.863c-0.586,1.484-0.985,4.064,0.611,5.661
					c5.585,3.192,11.97,0,15.161-5.586c3.273-6.077,3.806-12.43,3.688-18.733c-5.772-1.896-15.209,0.923-17.918,4.633
					c0,0-11.345,10.732-11.086,16.692c0.104,0.166-0.118,1.249-0.006,1.397C448.072,345.824,450.293,347.286,452.637,345.591z"/>
			</g>
			<g>
				<path fill="#67200A" d="M464.866,352.972C464.866,352.972,464.866,352.972,464.866,352.972c-5.797,0-9.893-2.66-10.738-4.208
					c-0.571,0.146-1.186,0.221-1.797,0.221c-2.464,0-4.632-1.184-5.95-3.247l-0.04-0.085c-2.32-6.75,10.403-18.734,10.945-19.241
					c2.128-2.925,8.407-5.352,13.947-5.352c2.668,0,4.916,0.572,6.501,1.655c2.889,1.974,3.253,8.513,2.334,14.12
					c-1.052,6.409-4.099,13.803-9.499,15.324C468.653,352.698,466.734,352.972,464.866,352.972z M454.696,347.758l0.065,0.467
					c0.106,0.755,3.734,3.951,10.104,3.951c0.001,0,0.001,0,0.001,0c1.796,0,3.64-0.266,5.485-0.786
					c5.047-1.42,7.964-8.798,8.928-14.684c1.039-6.337,0.219-11.818-1.995-13.331c-1.451-0.993-3.544-1.517-6.051-1.517
					c-5.227,0-11.342,2.325-13.354,5.081c-0.177,0.175-12.876,12.132-10.8,18.409c1.6,2.468,3.972,2.838,5.251,2.838
					c0.662,0,1.325-0.099,1.915-0.286L454.696,347.758z"/>
			</g>
		</g>
		<g>
			<g>
				<path fill="#8A2B0E" d="M475.116,338.938c0,0-8.646,7.118-6.119,16.428c1.93,2.726,4.788,4.123,8.579,3.192
					c0.399,1.729,10.442,4.322,14.83,1.13c4.391-3.192,2.993-8.332,2.328-9.618c1.33,0.439,6.652,0.439,4.723-7.207
					C497.527,335.216,479.572,331.889,475.116,338.938z"/>
			</g>
			<g>
				<path fill="#A6420E" d="M491.742,345.591c0.274,0.068,0.538,0.114,0.796,0.152c0-0.052,0.001-0.103,0.001-0.152H491.742z"/>
				<path fill="#A6420E" d="M478.175,351.975c0,0.349,0,0.85,0,1.37C478.365,352.901,478.406,352.438,478.175,351.975z"/>
				<path fill="#A6420E" d="M475.781,355.965c0.566-0.567,1.765-1.908,2.229-2.993c0-0.52,0.558-0.798,0.558-1.146
					c0.23,0.464-0.09,0.74-0.28,1.183c-0.464,0.76-0.165,1.437,0.047,1.86c3.399,4.257,7.921,4.837,11.113,2.443
					c3.159-2.368,3.074-6.85,3.091-11.568c-0.258-0.038-0.521-0.084-0.796-0.152h0.797c0,0.05-0.001,0.101-0.001,0.152
					c3.454,0.497,5.438,0,6.131-4.663c-3.996-6.336-19.459-8.614-23.553-2.142c0,0-7.867,6.805-6.453,14.775
					C470.754,355.607,473.858,357.888,475.781,355.965z"/>
			</g>
			<g>
				<path fill="#67200A" d="M486.497,361.6c-3.578,0-8.153-1.157-9.14-2.582c-3.54,0.76-6.58-0.445-8.687-3.42l-0.058-0.127
					c-2.464-9.073,5.484-16.18,6.199-16.796c1.646-2.548,5.171-4.01,9.687-4.01c6.397,0,14.083,3.098,15.345,8.101
					c0.713,2.83,0.536,4.958-0.527,6.321c-1.041,1.336-2.602,1.534-3.44,1.534l0,0c-0.168,0-0.334-0.007-0.494-0.021
					c0.665,1.978,1.281,6.486-2.74,9.411C490.838,361.323,488.305,361.6,486.497,361.6z M477.874,358.076l0.091,0.394
					c0.183,0.787,4.157,2.331,8.532,2.331c2.422,0,4.385-0.496,5.675-1.435c4.174-3.036,2.804-7.961,2.209-9.115l-0.451-0.869
					l0.931,0.309c0.254,0.083,0.633,0.134,1.016,0.134c0.692,0,1.98-0.158,2.812-1.227c0.904-1.161,1.032-3.058,0.384-5.637
					c-1.17-4.63-8.474-7.497-14.572-7.497c-4.268,0-7.563,1.344-9.046,3.689l-0.084,0.094c-0.083,0.069-8.373,7.033-6.005,15.947
					c1.993,2.778,4.767,3.799,8.118,2.977L477.874,358.076z"/>
			</g>
		</g>
		<g>
			<g>
				<path fill="#FFD4B5" d="M484.295,221.625c0,0,15.826-18.222,2.394-36.576c3.724,0,14.631,5.984,18.09,12.103
					c-0.399-3.724,0.133-7.582,0-8.246c3.059,1.994,7.713,10.096,7.048,16.42c2.262-3.12,4.656-6.579,4.656-6.579
					c0.664,3.193,2.393,10.507,0,13.967c2.393-2.395,5.719-5.587,5.719-5.587c-0.665,5.054-2.262,13.966-6.517,15.694
					c3.856-0.397,5.72-1.463,5.72-1.463c-1.197,2.926-10.109,16.627-24.475,13.036"/>
			</g>
			<g>
				<path fill="#FFE8D6" d="M504.511,225.883c5.487-1.845,8.778-6.385,11.972-10.375c-1.132,0.467-3.658,1.562-4.457,0.766
					c2.395-2.396,2.86-6.352,2.86-9.544c-0.798,2.394-2.794,3.491-4.388,5.419c-1.598-3.989-0.902-9.595-2.362-14.264
					c-0.399,1.529-1.496,6.645-3.092,7.442c0-1.596-0.998-5.181-1.797-6.778c-1.43-3.225-2.972-6.005-5.645-8.094
					c-4.452-3.407-8.513-5.405-10.914-5.405c13.433,18.354-2.394,36.576-2.394,36.576l11.805,11.93
					c4.507-1.645,10.202-3.407,14.147-6.227C508.651,227.328,506.107,225.883,504.511,225.883z"/>
			</g>
			<g>
				<path fill="#BF9F88" d="M501.616,235.387c-1.521,0-3.115-0.187-4.783-0.604l0.193-0.775
					c12.847,3.212,21.293-7.774,23.537-11.844c-0.946,0.354-2.548,0.818-4.839,1.057l-2.788,0.287l2.598-1.054
					c1.976-0.804,4.609-3.945,6.113-14.238c-1.143,1.102-5.381,4.715-5.381,4.715c2.056-2.617,0.722-9.846,0.016-13.197
					c-0.835,1.195-2.524,3.608-4.131,5.827l-0.877,1.209l0.155-1.485c0.621-5.906-3.412-13.099-6.242-15.564
					c-0.01,0.247-0.027,0.545-0.046,0.91c-0.09,1.624-0.225,4.078,0.032,6.48l0.206,1.919l-0.95-1.681
					c-3.228-5.713-12.808-11.086-16.908-11.817c12.549,18.16-2.769,36.175-2.927,36.355l-0.603-0.522
					c0.157-0.18,15.458-18.2,2.374-36.08l-0.465-0.635h0.787c3.816,0,13.445,5.336,17.575,10.979
					c-0.092-1.919,0.009-3.742,0.081-5.041c0.041-0.731,0.077-1.422,0.042-1.603l-0.188-0.932l0.798,0.519
					c3.087,2.014,7.24,9.394,7.291,15.435c1.974-2.752,3.845-5.455,3.864-5.484l0.531-0.764l0.306,1.464
					c0.633,2.986,1.717,8.104,0.724,11.712c2.062-2.027,4.186-4.068,4.211-4.093l0.822-0.788l-0.148,1.127
					c-1.019,7.734-2.764,12.763-5.2,15c2.534-0.459,3.793-1.158,3.809-1.166l1.001-0.567l-0.435,1.065
					C520.719,224.09,513.433,235.385,501.616,235.387z"/>
			</g>
		</g>
		<g>
			<g>
				<path fill="#FFD4B5" d="M302.604,234.461c0,0,12.969,22.546,27.534,26.934c-0.599-2.793-2.196-7.181-2.196-7.181
					c4.788,4.388,16.959,8.978,18.755,9.576c-4.588-4.39-12.969-11.971-13.567-14.664c3.392,1.896,7.781,2.095,10.375,2.693
					c-4.19-3.99-7.981-9.178-7.981-11.572c3.592,0.599,5.986,1.597,5.986,1.597c-3.791-4.39-9.177-7.98-9.177-11.972
					c2.793,1.796,5.986,1.796,5.986,1.796c-3.592-5.187-6.586-9.976-2.994-19.951"/>
			</g>
			<g>
				<path fill="#FFE8D6" d="M323.353,245.036c3.059,3.324,4.324,6.451,7.516,6.451c-1.633-3.971-2.927-5.853-2.927-9.043
					c2.395,1.196,4.988,3.788,7.382,3.788c-2.394-3.191-2.294-5.288-4.688-8.479c0.797,0,3.113-0.371,4.389,0.402
					c-3.192-3.095-6.846-9.606-4.451-12.797c3.154,2.17,1.641-7.614,2.306-8.669c-0.093-2.452,1.194-1.499,2.443-4.972
					l-32.72,22.744c0,0,2.171,3.772,5.73,8.529c4.604,4.014,9.874,8.688,15.884,10.691
					C323.419,251.288,323.353,247.43,323.353,245.036z"/>
			</g>
			<g>
				<path fill="#BF9F88" d="M348.258,264.731l-1.688-0.563c-2.006-0.668-12.475-4.661-17.773-8.725
					c0.521,1.527,1.334,4.023,1.73,5.869l0.142,0.66l-0.647-0.195c-14.55-4.385-27.23-26.191-27.763-27.117l0.691-0.397
					c0.127,0.22,12.66,21.773,26.64,26.538c-0.669-2.72-2.007-6.41-2.022-6.451l-0.557-1.533l1.201,1.103
					c3.884,3.561,12.746,7.288,16.822,8.841c-0.22-0.207-0.445-0.42-0.673-0.636c-4.935-4.663-11.076-10.466-11.621-12.912
					l-0.192-0.867l0.777,0.432c2.414,1.351,5.403,1.826,7.806,2.21c0.395,0.062,0.779,0.124,1.148,0.188
					c-3.624-3.663-7.153-8.453-7.153-10.927v-0.47l0.464,0.076c1.923,0.32,3.499,0.751,4.562,1.087
					c-0.812-0.86-1.667-1.693-2.501-2.506c-2.941-2.868-5.717-5.577-5.717-8.562v-0.73l0.615,0.395
					c1.835,1.181,3.875,1.557,4.969,1.677c-3.186-4.636-6.162-9.646-2.567-19.631l0.75,0.27
					c-3.632,10.088-0.289,14.918,2.945,19.589l0.434,0.626h-0.761c-0.125,0-2.856-0.019-5.52-1.457
					c0.428,2.395,2.854,4.761,5.409,7.252c1.218,1.188,2.477,2.417,3.604,3.72l1.103,1.277l-1.559-0.647
					c-0.022-0.009-2.168-0.893-5.384-1.481c0.436,2.332,3.709,6.894,7.809,10.799l1.056,1.007l-1.42-0.327
					c-0.688-0.159-1.524-0.294-2.411-0.435c-2.15-0.342-4.758-0.759-7.074-1.801c1.59,2.701,7.147,7.952,10.978,11.57
					c0.739,0.698,1.436,1.358,2.063,1.958L348.258,264.731z"/>
			</g>
		</g>
		<g>
			<g>
				<path fill="#FFE8D6" d="M304.798,140.491c0,0-11.373,3.79-24.739-9.977c-13.367-13.767-13.567-23.543-15.562-26.335
					c7.781-4.189,34.242-15.912,46.847,22.17"/>
			</g>
			<g>
				<path fill="#BF9F88" d="M300.989,141.34c-4.542,0-12.511-1.583-21.217-10.547c-9.979-10.276-12.627-18.228-14.21-22.978
					c-0.527-1.586-0.909-2.732-1.389-3.404l-0.264-0.369l0.399-0.214c5.682-3.061,16.803-7.562,27.428-3.336
					c8.764,3.486,15.491,12.144,19.987,25.732l-0.757,0.251c-4.42-13.354-10.99-21.847-19.525-25.241
					c-10.095-4.017-20.712,0.111-26.377,3.095c0.433,0.763,0.789,1.834,1.257,3.234c1.56,4.686,4.173,12.528,14.025,22.674
					c13.015,13.403,24.216,9.912,24.327,9.874l0.252,0.757C304.884,140.882,303.433,141.34,300.989,141.34z"/>
			</g>
		</g>
		<g>
			<g>
				<path fill="#F86685" d="M303.934,137.964c0,0-21.68-5.985-29.262-29.396c3.592-0.931,24.208-1.463,32.455,25.006
					C306.327,135.303,303.934,137.964,303.934,137.964z"/>
			</g>
			<g>
				<path fill="#F991AC" d="M307.126,133.575c-3.498-11.224-9.217-17.581-14.921-21.123c-4.598-1.398-9.619-2.953-15.246-2.001
					c5.265,10.53,14.273,19.355,23.873,26.381c1.909,0.799,3.102,1.131,3.102,1.131S306.327,135.303,307.126,133.575z"/>
			</g>
			<g>
				<path fill="#BF9F88" d="M304.066,138.413l-0.238-0.065c-0.22-0.06-21.975-6.312-29.536-29.656l-0.13-0.403l0.41-0.106
					c0.779-0.202,2.024-0.323,3.333-0.323c5.072,0,22.202,1.846,29.603,25.596l0.044,0.147l-0.064,0.139
					c-0.814,1.764-3.158,4.378-3.258,4.49L304.066,138.413z M275.189,108.865c7.114,21.287,26.262,27.904,28.615,28.643
					c0.533-0.611,2.205-2.575,2.893-3.963c-7.261-23.089-23.868-24.885-28.793-24.885
					C276.587,108.659,275.691,108.774,275.189,108.865z"/>
			</g>
		</g>
		<g>
			<path fill="#BF9F88" d="M271.774,109.125c-1.145,0-2.047-0.054-2.114-0.058c0,0,2.952-0.625,4.958-0.894l0.105,0.791
				C273.792,109.088,272.704,109.125,271.774,109.125z"/>
		</g>
		<g>
			<g>
				<path fill="#FFD4B5" d="M372.733,278.453c0,0,4.688,29.828,4.688,35.416c0,5.585,0.799,6.282,1.098,6.782
					c0.398,2.394,0.1,17.657-1.297,20.849s-3.891,4.589-4.489,5.688c2.394,0.397,4.987-1.597,4.987-1.597
					c-0.399,1.994,0,5.587,0,5.587c1.397-1.397,4.19-3.892,4.588-4.391c0.301,2.395,1.797,5.688,1.797,5.688
					c0.699-1.897,2.992-4.391,2.992-4.391c0.798,2.295,2.365,4.391,2.365,4.391c1.226-1.199,3.619-3.293,6.313-6.485
					c2.692-3.192,10.972-47.684,5.387-63.645C395.576,266.385,378.618,264.588,372.733,278.453z"/>
			</g>
			<g>
				<path fill="#FFE8D6" d="M387.995,301.697c-3.244-7.572-10.152-14.045-15.015-21.654c0.963,6.225,4.44,29.012,4.44,33.826
					c0,5.585,0.799,6.282,1.098,6.782c0.398,2.394,0.1,17.657-1.297,20.849s-3.891,4.589-4.489,5.688c0.007,0,0.013,0,0.021,0.001
					c1.911-2.072,4.646-2.972,6.462-4.791c0,1.597,0,3.991,0,5.587c0.8-1.596,2.396-2.394,3.192-3.99
					c1.165,2.33,0.968,3.904,2.062,5.109c0.864-1.951,2.365-3.064,1.928-4.312c0.66,1.883,1.918,3.009,3.466,4.312
					C395.13,333.482,394.698,316.225,387.995,301.697z"/>
			</g>
			<g>
				<path fill="#BF9F88" d="M384.144,353.521l-0.401-0.884c-0.056-0.122-1.23-2.723-1.696-5.007
					c-0.375,0.363-0.909,0.862-1.589,1.495c-0.849,0.793-1.812,1.691-2.454,2.332l-0.587,0.588l-0.092-0.824
					c-0.014-0.13-0.304-2.779-0.12-4.809c-0.852,0.511-2.309,1.225-3.815,1.225c-0.247,0-0.49-0.019-0.721-0.058l-0.554-0.093
					l0.269-0.492c0.237-0.436,0.687-0.865,1.258-1.411c0.986-0.942,2.336-2.232,3.216-4.242c1.338-3.062,1.651-17.966,1.28-20.547
					l-0.035-0.056c-0.378-0.569-1.08-1.631-1.08-6.87c0-5.493-4.635-35.055-4.684-35.353l-0.017-0.113l0.044-0.105
					c2.548-6.001,7.436-9.584,13.077-9.584c6.908,0,13.228,5.3,16.098,13.498c5.549,15.856-2.589,60.633-5.459,64.035
					c-2.166,2.566-4.154,4.442-5.47,5.685c-0.332,0.313-0.624,0.587-0.868,0.826l-0.326,0.318l-0.273-0.363
					c-0.059-0.08-1.342-1.808-2.185-3.865c-0.687,0.809-1.996,2.455-2.479,3.765L384.144,353.521z M387.256,347.324l0.219,0.63
					c0.576,1.653,1.574,3.219,2.047,3.91c0.165-0.159,0.348-0.33,0.542-0.515c1.302-1.228,3.27-3.086,5.408-5.618
					c2.827-3.35,10.805-47.568,5.314-63.255c-2.756-7.876-8.779-12.965-15.344-12.965c-5.276,0-9.868,3.359-12.298,8.994
					c0.362,2.308,4.676,29.926,4.676,35.363c0,4.999,0.639,5.966,0.946,6.43l0.146,0.287c0.37,2.214,0.155,17.691-1.326,21.073
					c-0.943,2.159-2.36,3.514-3.394,4.502c-0.256,0.243-0.493,0.47-0.688,0.679c1.99-0.06,3.952-1.551,3.972-1.566l0.843-0.647
					l-0.208,1.042c-0.269,1.341-0.159,3.471-0.069,4.636c0.575-0.553,1.254-1.185,1.871-1.761c0.929-0.865,1.889-1.761,2.083-2.005
					l0.592-0.738l0.118,0.938c0.198,1.594,0.957,3.63,1.412,4.747c0.927-1.749,2.604-3.58,2.686-3.671L387.256,347.324z"/>
			</g>
		</g>
		<g>
			<g>
				<path fill="#FFD4B5" d="M450.243,289.062c0,0,3.593,8.45,5.322,10.742c1.728,2.292,5.153,15.56,2.958,19.449
					c-2.194,3.892-5.786,6.585-6.385,9.377c1.297,0.799,5.088,0,5.088,0c0,1.697,0.599,4.59,0.797,5.388
					c1.896-1.896,3.492-2.494,4.689-3.093c-0.199,1.597,1.397,5.088,1.397,5.088c0.797-1.496,3.092-5.588,3.092-5.588
					c0.398,2.097,3.392,4.89,3.392,4.89c0.798-0.798,9.178-7.283,9.677-9.078s-0.1-10.738-0.798-15.444
					c-0.699-4.707-1.497-10.094-0.998-12.487s2.041-12.82-2.121-19.479C472.189,272.17,445.057,276.825,450.243,289.062z"/>
			</g>
			<g>
				<path fill="#FFE8D6" d="M470.992,285.736c-6.271,2.85-12.548,5.281-19.11,7.026c1.177,2.575,2.719,5.764,3.684,7.042
					c1.728,2.292,5.153,15.56,2.958,19.449c-1.571,2.784-4.543,6.495-5.935,8.529c1.862-0.035,4.288-0.548,5.636-0.548
					c0.797,0,0.448,3.042,0.448,4.638c1.596-1.596,2.742-2.244,4.341-3.841c0.796,1.597,0.796,3.193,1.594,4.789
					c0.8-2.396,1.597-3.989,3.193-6.385c0.755,2.267,1.52,3.817,2.953,5.33C475.419,317.205,474.479,300.837,470.992,285.736z"/>
			</g>
			<g>
				<path fill="#BF9F88" d="M464.082,336.912l-0.335-0.733c-0.06-0.129-1.281-2.818-1.434-4.615
					c-1.093,0.521-2.447,1.177-4.007,2.736l-0.498,0.499l-0.171-0.684c-0.197-0.789-0.707-3.274-0.797-5.006
					c-0.618,0.108-1.746,0.276-2.807,0.276c-0.963,0-1.652-0.137-2.104-0.413l-0.241-0.149l0.06-0.274
					c0.359-1.667,1.653-3.222,3.152-5.021c1.147-1.375,2.332-2.799,3.274-4.47c2.091-3.705-1.305-16.859-2.93-19.016
					c-1.738-2.304-5.222-10.479-5.368-10.826c-1.072-2.527-0.901-4.888,0.508-7.016c2.963-4.475,10.854-6.813,17.118-6.813
					c4.556,0,7.905,1.177,9.188,3.229c4.667,7.461,2.278,19.271,2.174,19.771c-0.484,2.327,0.305,7.651,1,12.347
					c0.673,4.53,1.32,13.7,0.79,15.609c-0.382,1.371-4.226,4.635-8.132,7.861c-0.819,0.679-1.47,1.215-1.647,1.393l-0.272,0.272
					l-0.282-0.263c-0.108-0.102-2.343-2.203-3.216-4.19c-0.708,1.265-2.07,3.711-2.644,4.784L464.082,336.912z M463.201,330.235
					l-0.093,0.74c-0.12,0.975,0.549,2.906,1.043,4.122c0.974-1.782,2.684-4.83,2.702-4.865l0.537-0.954l0.203,1.074
					c0.304,1.593,2.287,3.693,3.011,4.416c0.302-0.264,0.782-0.66,1.411-1.179c2.251-1.859,7.525-6.217,7.87-7.459
					c0.459-1.653-0.082-10.381-0.808-15.279c-0.707-4.763-1.509-10.16-0.995-12.627c0.103-0.486,2.43-11.992-2.067-19.187
					c-1.117-1.786-4.301-2.853-8.513-2.853c-6.051,0-13.645,2.218-16.452,6.457c-1.252,1.89-1.4,3.998-0.44,6.264
					c0.035,0.083,3.594,8.431,5.271,10.657c1.876,2.488,5.273,15.836,2.988,19.888c-0.977,1.734-2.241,3.25-3.356,4.589
					c-1.333,1.599-2.497,2.996-2.906,4.369c0.274,0.097,0.717,0.177,1.427,0.177c1.448,0,3.094-0.342,3.11-0.345l0.481-0.102v0.491
					c0,1.323,0.376,3.418,0.632,4.614c1.455-1.325,2.716-1.927,3.751-2.421c0.184-0.087,0.358-0.172,0.525-0.256L463.201,330.235z"
					/>
			</g>
		</g>
		<g>
			<g>
				<path fill="#FFD4B5" d="M354.743,207.527c0,0,2.927,8.779,2.927,31.125s11.971,49.878,38.307,58.257
					c26.335,8.381,59.056-2.394,82.997-19.95c23.94-17.558,21.147-44.692,15.961-49.879c-5.188-5.188-16.36-13.82-37.313-7.683
					c-18.001,5.272-47.679,14.267-60.249-0.098c-12.567-14.366-8.978-55.665-18.953-64.043c-9.975-8.38-1.331-14.764-1.862-20.084
					c-0.532-5.322-4.789-21.017-15.163-23.676s-42.562,2.66-55.333,20.75c-12.768,18.089-10.375,30.858-14.63,35.38
					c-4.256,4.522-16.559,46.687-14.166,51.075c2.394,4.391,3.791,3.591,3.391,8.979c-0.398,5.387-1.233,13.161,7.013,14.892
					c8.342,1.749,9.615-4.982,15.067-4.718c5.454,0.267,15.295,3.991,23.409-11.438
					C334.261,210.985,345.566,208.857,354.743,207.527z"/>
			</g>
			<g>
				<path fill="#FFE8D6" d="M375.121,193.206c0.594-1.742,0.955-3.639,1.044-5.702C375.601,189.403,374.966,191.304,375.121,193.206
					z"/>
				<path fill="#FFE8D6" d="M494.935,227.079c-5.188-5.188-16.36-13.82-37.313-7.683c-8.414,2.466-19.383,5.742-29.96,7.067
					c-1.673,0.771-3.438,1.402-5.35,1.812c-15.163,3.193-31.922-6.385-35.114-22.346c-3.99-17.557-2.393-35.114-13.567-51.075
					c-1.881-2.258-1.277-4.339,0.137-6.41c-1.075-5.182,3.169-9.498,2.79-13.275c-0.043-0.434-0.114-0.944-0.208-1.501
					c-4.297,0.451-8.61,0.068-12.294-1.159c-8.08-3.367-9.911-12.983-8.848-21.657c-13.632-0.078-38.338,6.083-49.145,21.391
					c-12.768,18.089-10.375,30.858-14.63,35.38c-4.256,4.522-16.559,46.687-14.166,51.075c2.394,4.391,3.791,3.591,3.391,8.979
					c-0.208,2.82-0.534,6.297,0.384,9.216c7.597,10.622,18.349-1.607,27.149-7.022c4.788,4.455,9.775-0.133,12.17-1.729
					c7.979-7.183,7.78-11.848,16.559-17.434c14.365-8.779,38.107-5.188,38.711-30.565c0.305,1.531,1.215,4.906,0.797,6.437
					c1.183,14.548-9.267,27.189-19.247,37.376c0.29,4.048,0.487,8.914,0.487,14.695c0,11.685,3.28,24.78,10.167,35.82
					c10.39,9.665,22.96,16.677,37.715,18.447c31.125,3.192,57.462-13.567,83.797-27.932c0.697-0.349,1.394-0.73,2.086-1.128
					C501.509,248.191,498.941,231.086,494.935,227.079z"/>
			</g>
			<g>
				<path fill="#BF9F88" d="M415.563,300.204c-7.001,0-13.631-0.981-19.708-2.914c-26.51-8.435-38.585-36.31-38.585-58.639
					c0-19.708-2.309-28.916-2.81-30.681c-7.965,1.158-19.781,3.074-27.961,18.63c-5.766,10.964-12.411,12.234-16.907,12.234l0,0
					c-1.621-0.001-3.145-0.185-4.491-0.348c-0.857-0.104-1.668-0.2-2.384-0.235c-2.167-0.098-3.608,0.951-5.285,2.18
					c-1.805,1.326-3.851,2.827-7.144,2.827c-0.846,0-1.755-0.1-2.7-0.299c-8.353-1.751-7.758-9.629-7.365-14.842l0.035-0.47
					c0.265-3.566-0.256-4.261-1.397-5.783c-0.53-0.707-1.19-1.588-1.947-2.975c-1.34-2.459,1.474-14.934,4.556-25.788
					c3.03-10.674,7.348-23.285,9.669-25.752c1.539-1.634,2.178-4.452,3.063-8.353c1.501-6.62,3.558-15.687,11.532-26.984
					c11.089-15.708,36.073-21.562,49.217-21.562c2.603,0,4.864,0.227,6.54,0.657c11.127,2.853,15.027,19.675,15.461,24.022
					c0.175,1.75-0.566,3.562-1.353,5.478c-1.68,4.101-3.583,8.748,3.074,14.34c4.881,4.1,6.583,15.834,8.387,28.256
					c1.933,13.318,4.122,28.415,10.611,35.831c4.425,5.058,11.552,7.622,21.181,7.622c12.582,0,27.15-4.271,37.787-7.392
					l0.868-0.254c4.838-1.416,9.478-2.134,13.792-2.134c9.419,0,17.242,3.244,23.916,9.918c2.156,2.157,4.184,8.308,3.54,16.721
					c-0.588,7.686-3.908,22.294-19.547,33.762C459.343,291.849,436.145,300.204,415.563,300.204z M355.017,207.084l0.104,0.316
					c0.029,0.089,2.948,9.097,2.948,31.251c0,22.048,11.9,49.564,38.028,57.877c5.998,1.91,12.549,2.877,19.467,2.877
					c20.416,0,43.441-8.3,63.174-22.769c15.38-11.279,18.646-25.631,19.225-33.181c0.596-7.797-1.214-13.999-3.31-16.096
					c-6.517-6.516-14.156-9.685-23.352-9.685c-4.237,0-8.803,0.708-13.565,2.103l-0.869,0.255
					c-10.684,3.133-25.316,7.423-38.013,7.424c-9.868,0-17.197-2.656-21.78-7.896c-6.646-7.593-8.854-22.812-10.803-36.24
					c-1.78-12.269-3.461-23.857-8.109-27.761c-7.103-5.967-4.993-11.116-3.298-15.253c0.747-1.823,1.451-3.544,1.297-5.096
					c-0.627-6.275-5.242-20.862-14.865-23.328c-1.613-0.414-3.805-0.632-6.342-0.632c-12.984,0-37.651,5.761-48.564,21.224
					c-7.883,11.166-9.919,20.144-11.407,26.7c-0.914,4.023-1.571,6.93-3.259,8.724c-4.442,4.721-16.175,46.816-14.106,50.611
					c0.728,1.336,1.369,2.191,1.884,2.878c1.187,1.583,1.841,2.456,1.555,6.32l-0.035,0.471c-0.396,5.23-0.935,12.395,6.731,14.001
					c0.892,0.188,1.747,0.283,2.537,0.283c3.031,0,4.882-1.36,6.671-2.674c1.72-1.261,3.336-2.449,5.796-2.334
					c0.744,0.036,1.568,0.137,2.441,0.243c1.322,0.158,2.821,0.339,4.394,0.339h0.001c4.291,0,10.635-1.223,16.202-11.808
					c8.487-16.14,20.766-17.919,28.893-19.097L355.017,207.084z"/>
			</g>
		</g>
		<g>
			<g>
				
					<ellipse transform="matrix(0.9817 0.1905 -0.1905 0.9817 35.3199 -54.8271)" fill="#FFE8D6" cx="302.795" cy="156.272" rx="6.602" ry="12.491"/>
			</g>
			<g>
				<path fill="#FFFFFF" d="M309.276,157.53c-1.315,6.772-14.276,4.256-12.962-2.516c1.315-6.773,5.283-11.7,8.862-11.004
					C308.756,144.705,310.591,150.757,309.276,157.53z"/>
			</g>
			<g>
				<path fill="#594C44" d="M301.098,168.999c-0.255,0-0.51-0.025-0.758-0.072c-1.883-0.366-3.372-2.055-4.191-4.758
					c-0.793-2.615-0.874-5.893-0.225-9.231c1.261-6.495,4.944-11.392,8.571-11.392c0.255,0,0.51,0.023,0.758,0.072
					c1.884,0.366,3.372,2.054,4.191,4.756c0.793,2.615,0.873,5.894,0.226,9.231C308.408,164.102,304.723,168.999,301.098,168.999z
					 M304.494,144.343c-3.198,0-6.618,4.721-7.787,10.747c-0.624,3.213-0.551,6.355,0.205,8.848c0.73,2.405,2.001,3.898,3.581,4.206
					c0.198,0.038,0.402,0.058,0.605,0.058c3.196,0,6.617-4.72,7.788-10.748c0.624-3.213,0.55-6.354-0.206-8.848
					c-0.729-2.405-2-3.898-3.58-4.204C304.9,144.362,304.697,144.343,304.494,144.343z"/>
			</g>
		</g>
		<g>
			<g>
				
					<ellipse transform="matrix(0.9817 0.1905 -0.1905 0.9817 35.7394 -54.7837)" fill="#9F7A1C" cx="302.833" cy="158.51" rx="5.033" ry="9.523"/>
				<path fill="#503D0E" d="M301.539,168.308c-0.2,0-0.401-0.018-0.595-0.057c-2.991-0.581-4.504-5.313-3.442-10.776
					c0.968-4.995,3.819-8.761,6.627-8.761c0.198,0,0.4,0.02,0.595,0.057c1.473,0.287,2.633,1.598,3.268,3.692
					c0.609,2.008,0.671,4.523,0.174,7.084C307.197,164.54,304.347,168.308,301.539,168.308z M304.129,149.51
					c-2.395,0-4.962,3.566-5.845,8.118c-0.942,4.854,0.345,9.36,2.811,9.839c2.513,0.485,5.349-3.24,6.287-8.073
					c0.474-2.436,0.418-4.815-0.153-6.7c-0.545-1.799-1.489-2.914-2.656-3.141C304.425,149.524,304.277,149.51,304.129,149.51z"/>
			</g>
		</g>
		<g>
			<ellipse transform="matrix(0.9817 0.1907 -0.1907 0.9817 36.0329 -54.8022)" cx="302.796" cy="159.844" rx="3.84" ry="7.265"/>
		</g>
		<g>
			<g>
				<path fill="#540016" d="M296.961,218.501c4.514-1.22,7.715-1.587,9.86-1.343c1.901-1.69,3.461-2.91,3.461-2.91
					c-7.551-2.92-24.238,1.06-24.638,6.314c-0.39,5.133-4.883,11.964,1.029,15.572C285.518,224.315,296.961,218.501,296.961,218.501
					z"/>
				<path fill="#BF9F88" d="M287.403,236.98l-0.938-0.504c-4.532-2.769-3.274-7.395-2.164-11.476
					c0.433-1.588,0.841-3.089,0.945-4.469c0.328-4.319,10.247-7.672,18.561-7.672c2.612,0,4.901,0.352,6.62,1.017l0.656,0.254
					l-0.555,0.432c-0.016,0.012-1.572,1.232-3.442,2.893l-0.133,0.118l-0.177-0.019c-2.211-0.255-5.489,0.192-9.668,1.319
					c-0.686,0.366-11.121,6.135-10.037,17.221L287.403,236.98z M303.807,213.658c-7.758,0-17.48,3.2-17.765,6.935
					c-0.11,1.456-0.548,3.062-0.97,4.617c-1.07,3.932-2.084,7.658,1.143,10.13c-0.569-11.398,10.451-17.138,10.565-17.194
					l0.077-0.031c4.197-1.132,7.502-1.593,9.83-1.372c1.154-1.02,2.178-1.866,2.78-2.353
					C307.931,213.91,305.992,213.658,303.807,213.658z"/>
			</g>
			<g>
				<path fill="#DF2B3D" d="M301.407,222.771c1.379-1.862,3.56-3.963,5.415-5.612c-2.145-0.244-5.346,0.123-9.86,1.343
					c0,0-11.443,5.814-10.288,17.634c0.142,0.087,0.282,0.173,0.435,0.255C293.679,239.926,298.613,226.548,301.407,222.771z"/>
				<path fill="#DF4F57" d="M287.648,228.774c-0.814,2.122-1.247,4.572-0.975,7.36c0.142,0.087,0.282,0.173,0.435,0.255
					c4.333,2.331,7.952-2.69,10.717-7.464C301.208,220.982,293.027,223.776,287.648,228.774z"/>
				<path fill="#BF9F88" d="M306.866,216.762c-1.136-0.129-2.526-0.083-4.146,0.129c-0.055,0.391-0.4,0.663-0.782,0.922
					c1.498-0.241,2.807-0.348,3.916-0.321c-2.117,1.932-3.72,3.627-4.768,5.043c-0.642,0.866-1.372,2.188-2.218,3.723
					c-2.408,4.357-5.703,10.323-9.561,10.323h-0.001c-0.665,0-1.342-0.183-2.008-0.541c-0.085-0.046-0.166-0.094-0.245-0.141
					c-0.014-0.148-0.561-0.439-0.824-0.439c0.012,0.237,0.024,0.473,0.047,0.715l0.02,0.198l0.169,0.103
					c0.146,0.091,0.294,0.181,0.454,0.268c0.785,0.421,1.587,0.636,2.388,0.636l0,0c4.328,0,7.755-6.205,10.259-10.735
					c0.832-1.507,1.551-2.81,2.161-3.634c1.112-1.504,2.966-3.425,5.358-5.553l0.667-0.593L306.866,216.762z"/>
				<path fill="#A9202F" d="M297.107,218.875c1.781-0.48,3.393-0.833,4.831-1.062c0.382-0.259,0.728-0.531,0.782-0.922
					c-1.702,0.222-3.659,0.63-5.863,1.224l-0.077,0.031c-0.114,0.057-11.211,5.714-10.562,17.189
					c0.125,0.125,0.749,0.548,0.836,0.573C286.255,225.297,296.436,219.233,297.107,218.875z"/>
			</g>
		</g>
		<g>
			<g>
				<path fill="#FFD4B5" d="M308.589,140.491c0,0,3.077,19.427-7.714,24.34c-10.791,4.913-34.982,9.842-34.982,24.342
					c-14.829,16.841-0.084,32.785,5.188,29.926c3.341,3.042,36.179,14.101,54.799-25.803"/>
			</g>
			<g>
				<path fill="#FFE8D6" d="M308.589,140.491c0,0,3.077,19.427-7.714,24.34c-10.791,4.913-34.982,9.842-34.982,24.342
					c0,1.26,0.088,0.62-0.11,1.98c0.142,5.01,1.307,12.317,4.7,14.658c3.856,1.184,14.697-7.761,21.178-11.772
					c-6.082,6.638-14.702,13.222-20.68,12.375c-6.618-0.383-6.242-11.397-5.567-16.061c-0.033-1.19,0.114,0.378,0.181-0.829
					c-9.329,10.881-6.559,21.161-1.933,26.345c4.06,0.809,4.527-1.114,5.689-1.114c26.569,11.229,43.825-5.233,56.264-20.91
					c0.088-0.184,0.539-0.745,0.626-0.931L308.589,140.491z"/>
				<path fill="#FFE8D6" d="M265.534,193.135c0.197-1.36,0.359-2.702,0.359-3.962c-0.103,0.117-0.196,0.233-0.298,0.351
					C265.528,190.731,265.499,191.945,265.534,193.135z"/>
			</g>
			<g>
				<path fill="#BF9F88" d="M286.467,223.223c-7.633,0-13.62-2.242-15.444-3.653c-2.178,0.938-5.448-0.638-8.076-3.933
					c-4.561-5.724-6.617-16.118,2.548-26.616c0.128-11.649,15.066-17.053,27.08-21.401c3.033-1.096,5.898-2.133,8.135-3.152
					c10.388-4.73,7.759-23.723,7.73-23.915c0,0,3.542,19.661-7.399,24.642c-2.267,1.031-5.146,2.074-8.194,3.177
					c-11.831,4.281-26.554,9.606-26.554,20.801v0.15l-0.1,0.113c-8.951,10.166-7.006,20.2-2.621,25.703
					c2.405,3.018,5.552,4.566,7.319,3.609l0.249-0.135l0.21,0.19c1.834,1.67,11.519,5.089,22.457,2.896
					c9.249-1.852,22.258-8.315,31.711-28.574l0.724,0.338c-9.594,20.56-22.848,27.128-32.278,29.019
					C291.357,223.007,288.833,223.223,286.467,223.223z"/>
			</g>
		</g>
		<g>
			<g>
				<path fill="#FFD4B5" d="M393.714,277.224c0,0,0.398,11.705,1.331,15.695c0.932,3.989-1.062,16.093-1.331,21.813
					c-0.266,5.718,3.459,14.896,2.128,20.084c-1.329,5.187-5.253,15.063-5.553,19.253c2.793-1.098,5.099-2.593,5.841-2.693
					c0.344,2.894,2.141,5.785,2.739,6.984c0.996-1.997,2.194-6.386,2.494-7.384c0.798,2.494,4.289,8.08,4.289,8.08
					c0.897-1.496,2.295-7.58,2.295-7.58c0.598,2.194,2.793,5.186,4.888,5.586c-0.199-1.996-0.199-5.586,0-7.183
					c1.396,0.697,5.088,1.197,6.882,0.798c-1.395-2.693-6.882-10.675-6.583-15.162c0.299-4.49-0.798-7.483,0.1-9.378
					c0.898-1.896,2.694-7.881,2.595-11.972c-0.101-4.088,20.648-28.43,19.053-35.612"/>
			</g>
			<g>
				<path fill="#FFE8D6" d="M434.968,277.755l-41.254-0.531c0,0,0.398,11.705,1.331,15.695c0.932,3.989-1.062,16.093-1.331,21.813
					c-0.266,5.718,3.459,14.896,2.128,20.084c-1.173,4.576-4.36,12.796-5.302,17.548c1.538-1.954,2.872-4,4.637-5.177
					c1.047,2.243,1.702,3.711,3.393,5.287c0-1.599,2.444-4.341,1.396-6.086c2.053,3.42,3.392,6.251,5.786,8.646
					c0.333-2.56,1.396-5.453,1.396-7.847c0.799,1.595,2.327,4.123,3.925,5.719c0-2.394,0.399-4.29,0.399-6.684
					c1.255,1.256,2.911,1.505,4.554,2.162c-2.39-2.903-4.848-7.147-5.686-10.775c-4.29-14.065,1.098-19.468-0.898-25.638
					c6.556-7.151,20.673-22.539,25.255-31.131C435.029,279.623,435.149,278.569,434.968,277.755z"/>
			</g>
			<g>
				<path fill="#BF9F88" d="M405.659,359.82l-0.346-0.553c-0.125-0.198-2.696-4.323-3.896-7.049
					c-0.516,1.775-1.402,4.741-2.192,6.318l-0.356,0.715l-0.357-0.715c-0.097-0.191-0.224-0.43-0.373-0.704
					c-0.738-1.372-1.942-3.608-2.337-5.937c-0.377,0.155-0.928,0.439-1.502,0.735c-1.062,0.547-2.385,1.229-3.864,1.81l-0.59,0.229
					l0.046-0.63c0.19-2.672,1.778-7.464,3.315-12.1c0.902-2.724,1.754-5.297,2.249-7.225c0.726-2.833-0.128-7.013-0.952-11.057
					c-0.672-3.291-1.306-6.4-1.188-8.946c0.091-1.937,0.377-4.596,0.679-7.413c0.592-5.488,1.264-11.709,0.66-14.292
					c-0.928-3.982-1.323-15.293-1.34-15.771c0,0,1.206,11.684,2.118,15.591c0.633,2.714-0.045,9.007-0.643,14.56
					c-0.303,2.803-0.588,5.451-0.679,7.363c-0.112,2.446,0.542,5.651,1.173,8.749c0.844,4.132,1.716,8.404,0.944,11.416
					c-0.501,1.953-1.358,4.539-2.265,7.275c-1.336,4.031-2.836,8.558-3.208,11.257c1.199-0.507,2.282-1.066,3.179-1.525
					c1.035-0.534,1.719-0.886,2.143-0.942l0.399-0.054l0.048,0.402c0.279,2.343,1.555,4.711,2.316,6.123
					c0.761-1.819,1.582-4.665,1.961-5.976l0.548-1.847l0.392,1.226c0.62,1.935,2.945,5.854,3.868,7.372
					c0.843-2.052,1.936-6.787,1.946-6.842l0.356-1.549l0.418,1.534c0.534,1.96,2.337,4.435,4.057,5.142
					c-0.152-2.084-0.134-5.196,0.052-6.683l0.069-0.56l0.505,0.252c1.175,0.588,4.227,1.062,6.086,0.852
					c-0.271-0.485-0.625-1.083-1.018-1.745c-2.226-3.763-5.593-9.45-5.347-13.14c0.131-1.967-0.008-3.619-0.131-5.075
					c-0.154-1.842-0.276-3.298,0.27-4.446c0.916-1.938,2.65-7.856,2.555-11.792c-0.04-1.676,2.705-5.828,7.188-12.462
					c5.702-8.435,12.795-18.931,11.874-23.074c0,0,0.253,4.514-1.421,7.837c-2.374,4.71-6.223,10.403-9.792,15.686
					c-3.645,5.393-7.087,10.487-7.051,11.996c0.101,4.117-1.66,10.098-2.633,12.149c-0.452,0.956-0.338,2.316-0.193,4.041
					c0.118,1.41,0.266,3.167,0.131,5.193c-0.229,3.443,3.192,9.226,5.239,12.681c0.542,0.917,1.01,1.709,1.302,2.271l0.24,0.461
					l-0.509,0.112c-1.722,0.383-4.942-0.013-6.626-0.612c-0.139,1.733-0.123,4.809,0.053,6.566l0.055,0.532l-0.526-0.099
					c-1.926-0.367-3.794-2.635-4.726-4.625c-0.467,1.887-1.369,5.318-2.039,6.433L405.659,359.82z"/>
			</g>
		</g>
		<g>
			<g>
				<path fill="#FFD4B5" d="M465.021,253.216c0,0-4.802,16.56,5.374,32.92c10.174,16.36,13.168,22.545,10.973,30.523
					c-2.193,7.981-10.641,22.548-10.641,25.474c2.926-0.799,6.386-2.527,6.386-2.527c-0.399,3.725,1.196,7.182,1.595,7.848
					c1.597-2.128,4.656-5.055,4.656-5.055c0.267,2.527,3.059,6.252,3.856,5.852c0.931-2.128,2.261-6.117,2.261-6.117
					c0.932,1.862,4.124,3.989,4.124,3.989c0.399-1.995,1.729-5.453,1.729-5.453c1.596,2.661,3.99,3.857,4.521,4.389
					c1.064-2.394,1.064-5.319,0-9.044c-1.064-3.724-1.196-15.827,2.661-22.877c3.856-7.05,4.39-9.576,2.527-13.965
					c-1.864-4.391-4.657-11.44-1.465-20.353c3.193-8.91,12.505-28.451-9.243-52.333"/>
			</g>
			<g>
				<path fill="#FFE8D6" d="M478.974,343.196c1.595-1.596,3.324-1.729,4.787-3.989c1.596,1.596,0.8,3.989,2.396,5.585
					c0.798-2.395,2.394-4.789,2.394-7.183c1.596,1.598,3.192,3.193,3.989,5.587c1.597-1.596,1.597-3.989,2.396-6.385
					c0.798,1.596,2.394,3.191,3.192,4.789c0.878-1.174,1.445-2.494,0.249-4.041c-5.635-8.093-7.791-16.68-1.845-27.084
					c5.785-6.584,1.196-17.494,1.196-23.08c-0.407-10.416,11.59-34.118-3.392-60.909l-29.927,26.13c0,0-4.19,17.159,5.985,33.52
					c10.174,16.36,13.168,22.545,10.973,30.523c-1.872,6.806-8.283,18.392-10.132,23.475c2.344-1.073,4.34-1.843,6.89-3.118
					C478.125,339.411,478.175,340.803,478.974,343.196z"/>
			</g>
			<g>
				<path fill="#BF9F88" d="M487.087,348.681c-0.162,0-0.341-0.054-0.531-0.157c-1.054-0.576-2.896-3.12-3.45-5.316
					c-0.943,0.932-2.918,2.938-4.078,4.485l-0.356,0.475l-0.305-0.51c-0.52-0.863-1.862-3.961-1.705-7.393
					c-1.138,0.538-3.613,1.648-5.828,2.252l-0.506,0.138v-0.521c0-1.502,1.891-5.462,4.281-10.476
					c2.459-5.158,5.248-11.003,6.374-15.103c2.11-7.673-0.432-13.333-10.928-30.209c-10.152-16.321-5.465-33.073-5.417-33.241
					c0,0-3.862,16.81,6.095,32.821c9.814,15.776,13.308,22.525,11.021,30.841c-1.148,4.167-3.952,10.047-6.425,15.233
					c-1.919,4.023-3.743,7.848-4.128,9.58c2.719-0.832,5.701-2.315,5.732-2.332l0.652-0.325l-0.078,0.727
					c-0.317,2.975,0.688,5.814,1.269,7.065c1.646-2.051,4.194-4.493,4.31-4.604l0.589-0.562l0.085,0.809
					c0.232,2.213,2.427,5.139,3.199,5.49c0.906-2.136,2.131-5.803,2.144-5.84l0.305-0.915l0.432,0.861
					c0.663,1.328,2.601,2.839,3.506,3.5c0.499-2.013,1.566-4.798,1.616-4.927l0.294-0.764l0.421,0.702
					c1.165,1.941,2.771,3.073,3.731,3.752c0.103,0.072,0.196,0.137,0.282,0.197c0.816-2.21,0.744-4.93-0.216-8.29
					c-1.026-3.586-1.347-15.797,2.692-23.18c3.839-7.017,4.284-9.436,2.511-13.618c-1.681-3.959-4.809-11.329-1.473-20.642
					c0.198-0.552,0.42-1.145,0.655-1.777c3.643-9.76,10.421-27.926-9.819-50.151l0.471-0.647
					c20.565,22.585,13.798,41.159,10.096,51.079c-0.233,0.628-0.454,1.218-0.651,1.768c-3.229,9.018-0.183,16.201,1.455,20.059
					c1.898,4.478,1.448,7.019-2.544,14.314c-3.874,7.081-3.596,19.188-2.627,22.576c1.086,3.797,1.079,6.846-0.018,9.316
					l-0.236,0.531l-0.413-0.411c-0.104-0.104-0.345-0.274-0.624-0.473c-0.897-0.633-2.331-1.643-3.517-3.318
					c-0.408,1.119-1.16,3.264-1.437,4.65l-0.116,0.585l-0.496-0.332c-0.117-0.076-2.535-1.7-3.794-3.399
					c-0.439,1.282-1.329,3.815-2.003,5.356l-0.06,0.133l-0.129,0.065C487.302,348.657,487.196,348.681,487.087,348.681z"/>
			</g>
		</g>
		<g>
			<g>
				<path fill="#CC9642" d="M312.978,126.724c-8.779-7.514-13.516-40.165,6.983-54.068c3.236-2.193,1.796,8.182,1.396,13.169
					c-0.398,4.988,1.265,16.359,4.523,20.549C329.139,110.563,318.584,131.523,312.978,126.724z"/>
			</g>
			<g>
				<path fill="#CCA657" d="M321.757,74.253c0.027-0.083,0.063-0.173,0.093-0.256c-0.251-1.401-0.809-2.074-1.889-1.342
					c-20.499,13.904-15.762,46.555-6.983,54.068c0.207,0.178,0.423,0.311,0.643,0.418c0.05-0.075,0.107-0.142,0.155-0.218
					C323.353,110.963,316.17,91.81,321.757,74.253z"/>
			</g>
			<g>
				<path fill="#997132" d="M314.823,127.833c-0.772,0-1.479-0.272-2.104-0.806c-4.922-4.213-8.176-15.568-7.568-26.412
					c0.401-7.142,2.828-20.314,14.586-28.288c0.748-0.508,1.414-0.483,1.877,0.025c1.179,1.296,0.868,5.683,0.34,11.282
					c-0.076,0.808-0.147,1.562-0.2,2.223c-0.417,5.214,1.405,16.372,4.44,20.272c1.733,2.228-0.022,7.861-2.051,12.008
					C321.957,122.61,318.204,127.833,314.823,127.833z M320.751,72.755c-0.103,0-0.284,0.039-0.566,0.231
					c-11.474,7.782-13.844,20.677-14.236,27.673c-0.596,10.62,2.538,21.694,7.29,25.762c0.481,0.412,1.001,0.614,1.585,0.614
					c2.819,0,6.353-4.646,8.604-9.25c2.46-5.031,3.34-9.622,2.138-11.168c-3.246-4.172-5.031-15.51-4.605-20.826
					c0.053-0.664,0.124-1.422,0.2-2.234c0.358-3.796,0.898-9.531-0.138-10.669C320.915,72.77,320.821,72.755,320.751,72.755z"/>
			</g>
		</g>
		<g>
			<g>
				<path fill="#FFD4B5" d="M362.629,136.634c0,0,14.326-11.572,20.178-15.563c5.853-3.99,16.228-7.448,25.538-4.921
					s16.492,3.475,14.365,12.977c-2.129,9.501-12.503,30.384-32.321,29.187s-17.025,0-20.483,1.197"/>
			</g>
			<g>
				<path fill="#FFE8D6" d="M421.679,121.667c-2.352-2.938-7.41-3.91-13.333-5.518c-9.311-2.527-19.686,0.931-25.538,4.921
					c-5.853,3.991-20.749,15.762-20.749,15.762l7.848,22.678c3.418-1.183,0.744-2.364,19.806-1.237
					c4.43-1.012,11.499-3.893,15.375-6.477C414.87,144.81,421.696,132.662,421.679,121.667z"/>
			</g>
			<g>
				<path fill="#BF9F88" d="M370.037,159.888c0,0,0.765-1.182,1.157-1.386c1.804-0.943,2.995-1.567,19.221-0.586
					c20.484,1.225,30.141-20.991,31.907-28.877c1.863-8.317-3.553-9.737-11.753-11.887c-0.759-0.198-1.535-0.402-2.328-0.617
					c-8.928-2.423-19.095,0.697-25.208,4.866c-5.771,3.935-20.654,14.922-20.654,14.922c0.144-0.115,14.407-11.628,20.204-15.583
					c6.266-4.271,16.69-7.468,25.869-4.975c0.789,0.212,1.563,0.417,2.32,0.615c8.023,2.103,14.359,3.763,12.329,12.834
					c-1.806,8.056-11.687,30.781-32.736,29.498c-16.001-0.968-17.175-0.354-18.801,0.497
					C371.164,159.417,370.71,159.654,370.037,159.888z"/>
			</g>
		</g>
		<g>
			<g>
				<path fill="#F86685" d="M371.635,148.338c0,0,31.124,16.227,44.293-21.615C409.809,125.194,387.729,120.539,371.635,148.338z"/>
			</g>
			<g>
				<path fill="#F991AC" d="M374.763,147.861c3.025,1.209,4.251,2.613,7.731,3.656c10.271,1.332,25.285-1.383,33.434-24.793
					c-0.883-0.22-2.101-0.505-3.582-0.75C397.372,126.524,388.809,130.275,374.763,147.861z"/>
			</g>
			<g>
				<path fill="#BF9F88" d="M386.707,152.196L386.707,152.196c-8.438,0-15.189-3.47-15.256-3.504l-0.37-0.194l0.209-0.36
					c11.042-19.074,25.059-23.077,34.873-23.077c4.265,0,7.672,0.728,9.862,1.277l0.423,0.104l-0.142,0.414
					C409.016,147.799,396.188,152.196,386.707,152.196z M372.197,148.167c1.512,0.708,7.396,3.23,14.51,3.23
					c9.158,0,21.54-4.246,28.697-24.392c-2.153-0.52-5.33-1.146-9.242-1.146C396.623,125.859,383.015,129.744,372.197,148.167z"/>
			</g>
		</g>
		<g>
			<path fill="#BF9F88" d="M298.643,239.552l-0.615-0.509c3.989-4.833,10.146-8.931,10.209-8.971
				C308.237,230.072,302.555,234.812,298.643,239.552z"/>
		</g>
		<g>
			<path fill="#BF9F88" d="M271.387,206.414c-0.701,0-1.392-0.367-2.05-1.093c-2.523-2.777-4.385-10.833-3.831-16.576l0.795,0.076
				c-0.527,5.461,1.271,13.369,3.628,15.964c0.5,0.551,0.991,0.83,1.458,0.83c2.628,0,15.963-8.652,20.88-11.985
				C292.267,193.63,274.797,206.414,271.387,206.414z"/>
		</g>
		<g>
			<path fill="#BF9F88" d="M270.776,219.356c-4.521-5.343,0.071-13.214,0.269-13.545l0.686,0.406
				c-0.045,0.078-4.498,7.717-0.345,12.624L270.776,219.356z"/>
		</g>
		<g>
			<path fill="#BF9F88" d="M330.316,196.633c-2.232-2.296-10.394-4.927-10.476-4.953c0,0,3.298,0.224,6.106,1.465
				C327.938,194.024,330.316,196.633,330.316,196.633z"/>
		</g>
		<g>
			<path fill="#BF9F88" d="M354.807,207.921l-0.126-0.788c8.945-1.434,15.13-5.056,18.382-10.769
				c5.535-9.721,0.646-22.348,0.596-22.475c0,0,2.289,3.696,2.721,8.88c0.357,4.285-0.031,9.434-2.621,13.986
				C370.381,202.691,364.004,206.447,354.807,207.921z"/>
		</g>
		<g>
			<g>
				<ellipse fill="#FFE8D6" cx="335.589" cy="159.843" rx="10.308" ry="14.963"/>
			</g>
			<g>
				<path fill="#FFFFFF" d="M345.897,159.843c0,8.264-20.615,8.264-20.615,0c0-8.265,4.615-14.962,10.308-14.962
					C341.283,144.881,345.897,151.578,345.897,159.843z"/>
			</g>
			<g>
				<path fill="#594C44" d="M335.589,175.206c-5.903,0-10.706-6.891-10.706-15.362c0-8.471,4.803-15.362,10.706-15.362
					c5.905,0,10.708,6.892,10.708,15.362C346.297,168.314,341.494,175.206,335.589,175.206z M335.589,145.278
					c-5.463,0-9.908,6.534-9.908,14.565c0,8.031,4.445,14.565,9.908,14.565c5.465,0,9.91-6.534,9.91-14.565
					C345.5,151.812,341.055,145.278,335.589,145.278z"/>
			</g>
		</g>
		<g>
			<g>
				<ellipse fill="#9F7A1C" cx="335.889" cy="162.737" rx="7.315" ry="10.62"/>
				<path fill="#503D0E" d="M335.89,173.754c-4.254,0-7.715-4.942-7.715-11.018c0-6.075,3.461-11.018,7.715-11.018
					c4.253,0,7.714,4.943,7.714,11.018C343.604,168.812,340.143,173.754,335.89,173.754z M335.89,152.516
					c-3.814,0-6.918,4.586-6.918,10.221c0,5.636,3.104,10.22,6.918,10.22c3.813,0,6.915-4.584,6.915-10.22
					C342.805,157.102,339.703,152.516,335.89,152.516z"/>
			</g>
		</g>
		<g>
			<ellipse cx="336.412" cy="165.088" rx="5.226" ry="7.586"/>
		</g>
		<g>
			<path fill="#503C0E" d="M348.682,147.861c-4.047-6.521-10.238-12.781-11.629-13.489c0,0-0.748-1.565,1.132-1.601
				C344.169,132.662,348.682,147.861,348.682,147.861z"/>
		</g>
		<g>
			<path fill="#503C0E" d="M305.475,137.964c0,0,7.853-10.131,12.469-8.339c1.994,0.775,0.256,2.172,0.256,2.172
				C312.257,132.498,305.528,137.901,305.475,137.964z"/>
		</g>
		<g>
			<g>
				<path fill="#FFE8D6" d="M317.068,179.03c0,0,23.444-13.943,39.238-7.25"/>
			</g>
			<g>
				<path fill="#BF9F88" d="M320.842,177.456c0,0,5.394-3.859,12.068-5.791c10.591-3.066,16.704-1.355,16.704-1.355
					C338.898,168.266,321.022,177.364,320.842,177.456z"/>
			</g>
		</g>
		<g>
			<path fill="#997132" d="M316.971,84.959c-3.435,0-6.62-1.223-6.815-1.3l0.291-0.743c0.066,0.026,6.744,2.588,10.915,0.256
				l0.389,0.697C320.3,84.681,318.606,84.959,316.971,84.959z"/>
		</g>
		<g>
			<path fill="#997132" d="M313.063,94.738c-3.61,0-6.433-1.032-6.636-1.109l0.282-0.748c0.082,0.031,8.386,3.06,14.615-1.414
				l0.464,0.649C318.958,94.149,315.786,94.738,313.063,94.738z"/>
		</g>
		<g>
			<path fill="#997132" d="M311.037,104.44c-3.44,0-5.761-0.766-5.808-0.782l0.257-0.754c0.086,0.03,8.847,2.903,17.489-2.861
				l0.442,0.664C318.949,103.688,314.443,104.44,311.037,104.44z"/>
		</g>
		<g>
			<g>
				<path fill="#FFD4B5" d="M356.339,118.012c0,0-0.107,0.04-0.301,0.119c-1.642,0.668-9.515,4.12-11.536,9.59
					c-1.862-2.793-2.927-7.66-2.927-7.66c-2.925,2.074-8.513,5.932-8.779,8.99c-1.33-3.192-1.462-8.005-0.665-8.99
					c-4.921,2.605-10.375,6.597-10.507,7.926c-0.531-3.458,0-6.518,0-6.518c-1.464,0.4-16.76,4.657-21.946,9.71
					c1.462-4.124,10.906-12.902,14.098-13.167c-3.458,0.133-10.109-1.331-11.04-0.666c2.527-2.261,9.709-8.247,17.689-7.448
					c-3.059-1.33-8.645-3.59-11.57-2.661c2.394-2.66,9.576-5.055,15.961-3.856c-3.992-1.996-5.322-4.789-7.05-4.789
					c3.99-1.462,12.237,0.132,16.227,2.927c-0.664-2.527,0-5.986,3.192-7.184c0.666,1.996,1.464,7.184,2.261,7.715
					c2.128-3.192,8.513-6.385,12.636-6.385c-1.729,3.592-2.927,7.448-2.792,8.513c2.792-1.729,5.718-2.925,9.841-0.532
					S365.251,115.353,356.339,118.012z"/>
			</g>
			<g>
				<path fill="#FFE8D6" d="M322.422,123.599c3.989-1.596,7.847-6.119,12.636-6.119c-1.597,2.394-3.015,5.657-2.128,7.049
					c2.821-2.233,4.788-5.586,8.779-7.183c0.797,2.395,1.085,5.255,1.994,7.05c5.32-5.255,9.977-8.646,12.371-14.232
					c3.192-6.384-3.99-6.384-8.779-4.789c0-2.394,1.729-6.25,2.528-8.646c-4.11,1.027-8.712,3.72-11.107,7.71
					c-1.396-2.199-2.592-4.691-2.592-8.616c-2.217,2.462-1.132,5.628-1.132,8.022c-3.989-2.394-9.975-4.28-14.764-5.077
					c3.191,4.409,6.265,2.882,8.043,5.942c-5.167-0.518-6.986-1.248-13.947-0.271c-3.013,0.774-4.235,1.426-5.468,2.797
					c2.925-0.93,8.511,1.331,11.57,2.661c-7.979-0.798-15.162,5.187-17.689,7.448c0.931-0.666,7.582,0.799,11.04,0.666
					c-3.192,0.266-12.636,9.044-14.098,13.167c4.292-4.182,5.06-3.859,9.491-5.895c0.755-0.891,12.607-5.116,13.186-6.275
					C323.153,120.605,322.422,122.003,322.422,123.599z"/>
			</g>
			<g>
				<path fill="#BF9F88" d="M298.729,132.662l0.572-1.614c1.265-3.563,8.231-10.424,12.415-12.692
					c-1.22-0.086-2.566-0.25-3.882-0.411c-1.582-0.191-3.077-0.373-4.034-0.373c-0.668,0-0.816,0.089-0.83,0.1l-0.498-0.623
					c5.342-4.78,10.801-7.4,15.836-7.609c-2.22-0.889-5.469-2.021-7.831-2.021c-0.579,0-1.083,0.066-1.5,0.2l-1.4,0.446l0.982-1.093
					c2.449-2.721,8.915-4.67,14.34-4.244c-1.137-0.76-2.004-1.543-2.748-2.216c-0.976-0.882-1.68-1.52-2.384-1.52h-2.248l2.11-0.774
					c1.046-0.384,2.378-0.577,3.958-0.577c4.009,0,8.799,1.25,11.837,3.04c-0.348-2.671,0.711-5.625,3.622-6.718l0.388-0.146
					l0.131,0.394c0.245,0.735,0.5,1.862,0.772,3.057c0.292,1.285,0.745,3.282,1.112,4.104c2.443-3.096,8.578-6.104,12.635-6.104
					h0.635l-0.275,0.572c-1.541,3.199-2.488,6.186-2.712,7.609c1.455-0.843,3.061-1.546,4.939-1.546
					c1.517,0,3.042,0.458,4.664,1.399c2.455,1.425,4.019,4.925,3.637,8.141c-0.229,1.937-1.382,5.417-6.512,6.95
					c0.001,0-0.101,0.04-0.269,0.107c-1.545,0.629-9.345,4.034-11.312,9.36l-0.273,0.735l-0.434-0.652
					c-1.519-2.277-2.5-5.823-2.846-7.214c-2.861,2.027-7.894,5.643-8.128,8.358l-0.141,1.619l-0.625-1.5
					c-1.031-2.473-1.444-6.262-1.042-8.285c-4.951,2.751-9.271,6.162-9.366,7.108l-0.313,3.133l-0.479-3.111
					c-0.399-2.603-0.214-4.955-0.085-6.03c-3.271,0.922-16.476,4.857-21.188,9.448L298.729,132.662z M313.762,117.614l0.048,0.796
					c-2.704,0.226-10.116,6.886-12.879,11.207c6.179-4.513,19.021-8.104,20.589-8.532l0.604-0.165l-0.107,0.618
					c-0.004,0.027-0.403,2.39-0.138,5.253c1.726-2.016,6.503-5.196,10.066-7.083l1.726-0.913l-1.229,1.517
					c-0.536,0.663-0.631,4.312,0.312,7.43c1.272-2.826,5.581-5.875,8.298-7.798l0.785-0.557l0.128,0.59
					c0.009,0.045,0.916,4.126,2.471,6.875c2.473-5.213,9.924-8.469,11.452-9.091c0.2-0.081,0.312-0.123,0.312-0.123
					c3.507-1.047,5.621-3.279,5.977-6.29c0.341-2.871-1.083-6.102-3.245-7.356c-1.496-0.868-2.891-1.292-4.263-1.292
					c-1.964,0-3.645,0.875-5.168,1.818l-0.529,0.327l-0.078-0.617c-0.145-1.161,1.001-4.788,2.548-8.139
					c-4.031,0.298-9.717,3.265-11.662,6.182l-0.222,0.333l-0.333-0.221c-0.58-0.387-0.971-1.875-1.667-4.939
					c-0.218-0.964-0.427-1.884-0.624-2.569c-2.498,1.188-3.189,4.129-2.555,6.541l0.277,1.054l-0.892-0.624
					c-2.821-1.975-7.942-3.408-12.179-3.408c-0.904,0-1.737,0.069-2.461,0.205c0.497,0.314,0.998,0.767,1.562,1.277
					c1.045,0.946,2.346,2.123,4.309,3.104l2.548,1.274l-2.8-0.526c-1.098-0.205-2.26-0.309-3.458-0.309
					c-4.533,0-8.854,1.493-11.139,3.165c3.049-0.12,7.459,1.608,10.44,2.904l2.339,1.018l-2.539-0.254
					c-5.076-0.508-10.764,1.753-16.383,6.481c1,0.022,2.424,0.194,3.926,0.377C310.025,117.408,312.207,117.673,313.762,117.614z"/>
			</g>
		</g>
		<g>
			<g>
				<path fill="#CC9642" d="M353.28,113.357c-1.064,7.001,0.233,15.927,7.681,16.46c7.45,0.532,13.869-2.357,13.601-13.534
					c-0.433-17.99,10.442-36.545,10.375-39.372C384.865,73.906,356.737,90.613,353.28,113.357z"/>
			</g>
			<g>
				<path fill="#CCA657" d="M364.852,123.731c10.042-14.347,11.063-32.558,19.859-47.107c-2.569-1.048-28.144,15.106-31.431,36.733
					c-0.831,5.462-0.223,12.098,3.623,15.001C359.877,128.202,362.641,126.827,364.852,123.731z"/>
			</g>
			<g>
				<path fill="#997132" d="M362.593,130.275L362.593,130.275c-0.536,0-1.094-0.02-1.66-0.062c-2.358-0.168-4.27-1.149-5.685-2.919
					c-2.362-2.956-3.246-8.189-2.363-13.997c3.237-21.291,27.384-37.134,31.543-37.134c0.655,0,0.899,0.381,0.907,0.741
					c0.02,0.885-0.827,2.918-2.107,5.993c-3.207,7.696-8.574,20.576-8.267,33.376c0.114,4.797-0.992,8.423-3.29,10.775
					C369.58,129.19,366.527,130.275,362.593,130.275z M384.428,76.961c-3.916,0-27.646,16.016-30.753,36.456
					c-0.851,5.593-0.028,10.595,2.198,13.379c1.27,1.588,2.991,2.47,5.117,2.623c4.477,0.32,7.907-0.67,10.11-2.926
					c2.142-2.195,3.171-5.626,3.062-10.2c-0.31-12.97,5.097-25.949,8.33-33.703c1.129-2.713,2.029-4.868,2.045-5.626
					C384.518,76.962,384.481,76.961,384.428,76.961z"/>
			</g>
		</g>
		<g>
			<path fill="#997132" d="M381.645,85.824c-2.685-0.69-7.102-3.329-7.288-3.441l0.41-0.685c0.044,0.027,4.503,2.691,7.077,3.354
				L381.645,85.824z"/>
		</g>
		<g>
			<path fill="#997132" d="M378.59,92.439c-4.863,0-10.657-4.152-10.912-4.338l0.467-0.646c0.063,0.046,6.345,4.558,11.034,4.161
				l0.066,0.796C379.03,92.429,378.81,92.439,378.59,92.439z"/>
		</g>
		<g>
			<path fill="#997132" d="M372.449,100.749c-6.491,0-11.716-4.089-11.984-4.3l0.497-0.624c0.077,0.06,7.736,6.044,15.726,3.468
				l0.245,0.76C375.403,100.545,373.895,100.749,372.449,100.749z"/>
		</g>
		<g>
			<path fill="#997132" d="M370.477,110.371c-8.361,0-15.199-4.312-15.278-4.363l0.43-0.672c0.092,0.059,9.249,5.825,19.181,3.812
				l0.158,0.784C373.442,110.238,371.935,110.371,370.477,110.371z"/>
		</g>
		<g>
			<path fill="#997132" d="M362.905,120.154c-6.318,0-10.132-3.156-10.191-3.205l0.518-0.608c0.082,0.071,8.507,7.003,21.128-0.401
				l0.404,0.688C370.24,119.281,366.227,120.154,362.905,120.154z"/>
		</g>
		<g>
			<path fill="#BF9F88" d="M418.513,127.376c-0.772,0-1.768-0.053-2.675-0.263l0.18-0.778c1.669,0.386,3.838,0.985,3.838,0.985
				C419.812,127.325,419.268,127.376,418.513,127.376z"/>
		</g>
		<g>
			<path fill="#BF9F88" d="M367.34,151.455c0.03-0.018,3.081-1.862,3.952-3.321l0.685,0.409
				C371.004,150.174,367.34,151.455,367.34,151.455z"/>
		</g>
		<g>
			<path fill="#BF9F88" d="M382.603,325.183c-0.126-0.075-3.101-1.879-4.434-4.342l0.701-0.38
				C380.098,322.729,382.603,325.183,382.603,325.183z"/>
		</g>
		<g>
			<path fill="#67200A" d="M377.941,365.272c-0.93-2.686,2.056-9.875,2.056-9.875c-0.021,0.071-2.146,7.173-1.301,9.615
				L377.941,365.272z"/>
		</g>
		<g>
			<path fill="#67200A" d="M395.249,368.789c-1.138-8.304,2.187-11.867,2.187-11.867c-0.023,0.037-2.488,3.794-1.396,11.759
				L395.249,368.789z"/>
		</g>
		<g>
			<path fill="#67200A" d="M477.188,358.646c-1.02-4.554,2.929-9.863,2.929-9.863c-0.03,0.054-3.102,5.439-2.149,9.689
				L477.188,358.646z"/>
		</g>
		<g>
			<path fill="#67200A" d="M453.981,348.382c-0.893-3.4,2.604-8.732,2.604-8.732c-0.025,0.054-2.649,5.419-1.832,8.53
				L453.981,348.382z"/>
		</g>
		<circle fill="#FFFFFF" cx="334.216" cy="158.623" r="2.35"/>
		<circle fill="#FFFFFF" cx="302.088" cy="153.176" r="1.38"/>
	</g>
	
		<ellipse transform="matrix(0.9734 -0.2291 0.2291 0.9734 -45.9547 72.7099)" fill="#E57279" cx="290.134" cy="234.25" rx="1.828" ry="0.699"/>
</g>
</svg>
