<svg version="1.1" id="Layer_1" xmlns="http://www.w3.org/2000/svg" xmlns:xlink="http://www.w3.org/1999/xlink" viewBox="0 0 768 430" enable-background="new 0 0 768 430" xml:space="preserve">
<g>
	<g>
		<g>
			<path fill="#DB9977" stroke="#000000" stroke-width="3.2628" stroke-linecap="round" stroke-linejoin="round" d="
				M312.361,125.731c44.711,2.641,64.167-1.543,124.095,2.337c23.173,1.5,43.887,38.009,47.785,60.9
				c2.676,15.706,9.496,31.001,14.26,48.169c1.263,4.547-4.922,10.856-9.251,12.731c-3.422,1.483-8.865-0.25-12.353-1.571
				c-9.993-3.789-16.609-18.395-20.413-22.32c-3.137-3.242,2.851,11.248,0.383,15.022c-8.269,12.653-21.725,25.335-33.146,34.672
				c-2.967,2.425-9.295-0.548-12.732,1.146c-3.817,1.877-13.04,13.91-16.883,15.738c-8.84,1.694-5.555-1.197-13.164,7.01
				c-5.216,3.893-13.924,7.889-20.411,7.345c-12.949-1.086-33.8-23.37-37.772-21.222c-18.3,7.938-41.402,8.229-56.692,14.132
				l-58.709,32.273c-7.243,3.379-37.802-15.73-54.712-39.001c-16.909-23.27-4.545-55.486,0.838-58.632
				c15.159-8.851,70.203-45.165,84.097-55.888c8.65-6.674,19.051-17.064,28.137-23.13
				C281.457,144.938,295.807,124.746,312.361,125.731L312.361,125.731z M368.207,240.232l-11.541,17.312l20.794-3.862l3.48-5.771
				L368.207,240.232z"/>
			<g>
				<path fill="none" stroke="#000000" stroke-width="2.576" stroke-linecap="round" stroke-linejoin="round" d="M390.73,230.168
					l-13.875,24.666l-24.281,3.468l-11.176,6.552l-4.239,10.793l0.77,11.562c1.029,3.469,2.057,6.938,3.084,10.407l51.578-4.243"/>
				<path fill="none" stroke="#000000" stroke-width="2.576" stroke-linecap="round" d="M437.652,228.068
					c0,0-10.629-2.562-16.883,4.818c-3.338,3.941-10.631,6.639-13.103,11.178c-2.51,4.608-2.882,12.123-2.313,17.343
					c0.547,5.009,5.756,15.78,5.756,15.78"/>
			</g>
		</g>
		<path fill="#FFFFFF" stroke="#F44D8D" stroke-width="6.8676" d="M622.012,169.219L593.016,58.573L388.52,110.461l32.811,111.402
			l200.682-52.65V169.219z"/>
		<g>
			<path fill="#DB9977" stroke="#000000" stroke-width="2.576" stroke-linecap="round" d="M297.235,285.186
				c9.235-6.633,30.32-24.055,39.547-30.703c8.228-5.928,20.465-11.941,29.675-16.186c17.981-8.285,44.225-14.143,61.663-23.509
				c9.271-4.979,22.718-11.646,28.521-20.426c2.938-4.447,4.479-12.05,3.854-17.343c-0.588-4.981-3.729-11.532-7.324-15.032
				c-3.001-2.922-8.586-5.075-12.716-5.78c-7.78-1.331-16.725,2.345-24.281,4.625c-7.182,2.167-16.895,6.933-23.895,9.635
				c-4.108,1.585-10.097,2.034-14.259,3.468c-5.039,1.737-11.271,5.266-16.187,7.323c-12.46,5.213-28.641,14.271-42.009,16.186
				c-11.025,1.581-36.998-3.083-36.998-3.083"/>
			<g>
				<g>
					<path fill="none" stroke="#000000" stroke-width="2.576" stroke-linecap="round" d="M386.052,180.968
						c6.867,10.301,12.208,22.128,12.208,22.128l2.29,8.775"/>
					<path fill="none" stroke="#000000" stroke-width="2.576" stroke-linecap="round" d="M377.321,254.236l9.156-2.289l7.631,4.576
						l-8.774-2.287H377.321L377.321,254.236z"/>
				</g>
				<path fill="none" stroke="#000000" stroke-width="2.576" d="M455.096,224.798l-2.696-12.332"/>
			</g>
		</g>
		<path fill="#6D594E" stroke="#000000" stroke-width="1.2884" d="M388.41,232.404l-7.014,13.49l-14.029-7.015L388.41,232.404
			L388.41,232.404z"/>
	</g>
	<path fill="#53443B" d="M366.59,239.664l-23.742,9.712l-3.776,4.856l8.26,3.228l8.7-0.14L366.59,239.664L366.59,239.664z"/>
</g>
<g>
	<g>
		<path fill="none" stroke="#000000" stroke-width="2.576" d="M350.618,259.199l-12.971-4.579"/>
		<path fill="none" stroke="#000000" stroke-width="2.576" stroke-linecap="round" d="M324.655,284.918l-11.446-6.868"/>
		<path fill="none" stroke="#000000" stroke-width="2.576" d="M425.098,228.898l-1.349-7.42"/>
	</g>
	<g>
		<path fill="none" stroke="#000000" stroke-width="2.576" stroke-linecap="round" d="M321.888,167.469
			c0.465,1.396,1.3,3.53,2.79,6.742c1.749,3.772,3.841,7.616,5.347,11.158c1.266,2.979,1.976,5.566,2.092,7.207
			c0.049,0.695,0,1.162,0,1.394v0.232"/>
		<path fill="none" stroke="#000000" stroke-width="2.576" stroke-linecap="round" d="M340.716,173.28
			c0.464,0.697,1.597,3.62,2.325,5.347c0.657,1.559,1.569,3.99,2.325,5.115c0.648,0.964,0.93,1.627,1.395,2.324v0.232v-0.232"/>
	</g>
</g>
</svg>
