<svg version="1.1" id="Layer_1" xmlns="http://www.w3.org/2000/svg" xmlns:xlink="http://www.w3.org/1999/xlink" viewBox="0 0 768 430" enable-background="new 0 0 768 430" xml:space="preserve">
<g>
	<path fill="#F44D8D" stroke="#FFFFFF" stroke-width="6.1886" d="M301.328,162.352c0.343-3.939,0.968-7.843,1.715-11.725
		c0.746-3.884,1.661-7.738,2.713-11.57c2.138-7.652,4.845-15.207,8.643-22.478c1.924-3.623,4.113-7.189,6.897-10.52
		c1.391-1.663,2.915-3.289,4.693-4.755c1.768-1.469,3.77-2.819,6.062-3.852c2.279-1.042,4.888-1.699,7.545-1.787
		c2.66-0.1,5.31,0.374,7.683,1.219c2.373,0.832,4.526,2.083,6.371,3.354c1.883,1.3,3.695,2.812,5.33,4.583
		c1.621,1.778,3.046,3.823,4.14,6.067c1.096,2.242,1.848,4.676,2.198,7.133c0.678,4.943-0.159,9.795-1.792,14.032
		c-1.657,4.25-3.997,8.024-6.744,11.337c-1.371,1.66-2.829,3.224-4.365,4.683c-1.547,1.45-3.161,2.806-4.832,4.072
		c-6.702,5.03-14.34,8.604-22.32,10.457c-3.99,0.913-8.056,1.407-12.097,1.38C309.133,163.964,305.125,163.449,301.328,162.352z
		 M301.328,162.352c3.949-0.094,7.804-0.537,11.539-1.345c3.731-0.815,7.345-1.963,10.794-3.426
		c6.896-2.915,13.211-6.978,18.532-11.921c1.332-1.23,2.594-2.523,3.774-3.869c1.187-1.339,2.305-2.723,3.312-4.16
		c2.001-2.878,3.675-5.916,4.672-9.019c1.008-3.091,1.396-6.201,0.892-9.005c-0.449-2.811-1.736-5.346-3.778-7.548
		c-1.002-1.114-2.189-2.141-3.508-3.074l-0.477-0.329l-0.526-0.344c-0.324-0.207-0.648-0.401-0.974-0.581
		c-0.65-0.363-1.305-0.66-1.946-0.917c-2.585-1.019-4.99-1.009-7.614-0.019c-2.623,0.989-5.266,3.065-7.688,5.542
		c-1.213,1.247-2.362,2.617-3.48,4.045c-1.122,1.426-2.193,2.927-3.217,4.477c-4.127,6.203-7.653,13.043-10.961,20.021
		C307.368,147.873,304.327,155.056,301.328,162.352z"/>
	<path fill="#F44D8D" stroke="#FFFFFF" stroke-width="6.1886" d="M302.473,168.699c-5.755-0.736-11.442-1.885-17.089-3.211
		c-5.651-1.323-11.248-2.895-16.804-4.667c-11.093-3.59-22.009-8.008-32.445-14.01c-5.197-3.036-10.297-6.458-15.015-10.738
		c-2.355-2.139-4.65-4.471-6.694-7.163c-2.048-2.682-3.91-5.696-5.287-9.118c-1.392-3.405-2.202-7.268-2.171-11.17
		c0.011-3.904,0.864-7.762,2.243-11.192c1.362-3.429,3.322-6.512,5.296-9.142c2.02-2.685,4.344-5.251,7.037-7.542
		c2.703-2.271,5.786-4.24,9.143-5.709c3.353-1.473,6.966-2.432,10.59-2.8c7.288-0.7,14.353,0.816,20.467,3.464
		c6.134,2.681,11.527,6.336,16.223,10.562c2.353,2.109,4.559,4.338,6.606,6.679c2.035,2.354,3.927,4.801,5.684,7.325
		c6.977,10.127,11.764,21.541,14.006,33.351c1.101,5.904,1.583,11.896,1.302,17.818
		C305.303,157.351,304.308,163.197,302.473,168.699z M302.473,168.699c0.099-5.797-0.322-11.475-1.287-16.999
		c-0.972-5.52-2.441-10.886-4.382-16.031c-3.863-10.286-9.445-19.786-16.377-27.882c-1.725-2.026-3.545-3.954-5.449-5.764
		c-1.894-1.82-3.854-3.542-5.903-5.104c-4.102-3.104-8.456-5.74-12.947-7.386c-4.473-1.663-9.008-2.415-13.15-1.844
		c-4.148,0.491-7.942,2.229-11.292,5.09c-1.692,1.404-3.27,3.084-4.714,4.962l-0.512,0.681l-0.536,0.751
		c-0.321,0.462-0.625,0.927-0.909,1.393c-0.571,0.932-1.045,1.874-1.46,2.797c-1.648,3.731-1.776,7.259-0.481,11.164
		c1.293,3.905,4.182,7.903,7.669,11.602c1.755,1.853,3.697,3.617,5.724,5.342c2.024,1.73,4.161,3.389,6.372,4.985
		c8.85,6.42,18.67,11.995,28.706,17.261C281.604,158.983,291.955,163.869,302.473,168.699z"/>
	
		<rect x="217.208" y="159.98" transform="matrix(1 -0.0077 0.0077 1 -1.7659 2.3075)" fill="#F44D8D" stroke="#FFFFFF" stroke-width="6.1886" width="165.875" height="143.091"/>
	
		<rect x="227.862" y="221.302" transform="matrix(-0.0077 -1 1 -0.0077 70.1809 532.6422)" fill="#F44D8D" stroke="#FFFFFF" stroke-width="6.1886" width="143.026" height="20.395"/>
	<path fill="#F44D8D" stroke="#FFFFFF" stroke-width="6.1886" d="M396.415,159.24l-84.327,0.647l0.38,49.622l88.976-0.683
		l-0.345-44.973C401.08,161.288,398.979,159.22,396.415,159.24z"/>
	<path fill="#F44D8D" stroke="#FFFFFF" stroke-width="6.1886" d="M313.187,302.973l73.696-0.564c2.566-0.02,4.627-2.119,4.607-4.686
		l-0.622-81.199l-78.341,0.602L313.187,302.973z"/>
	<path fill="#F44D8D" stroke="#FFFFFF" stroke-width="6.1886" d="M196.415,165.424l0.345,44.972l88.975-0.683l-0.38-49.622
		l-84.326,0.646C198.464,160.758,196.396,162.859,196.415,165.424z"/>
	<path fill="#F44D8D" stroke="#FFFFFF" stroke-width="6.1886" d="M208.07,299.131c0.02,2.564,2.12,4.633,4.685,4.613l73.698-0.564
		l-0.659-85.85l-78.346,0.6L208.07,299.131z"/>
</g>
<path fill-rule="evenodd" clip-rule="evenodd" fill="#D8B577" d="M578.553,352.371l41.904-75.234c-72.03-18.961,0.875,0.197,0,0
	c-30.345-7.785,8.462,3.066-20.838-6.344c-18.539-6.502-37.091-13.021-55.632-19.533c-9.279-3.996-61.203-27.234-99.93-26.426
	c-18.799,0.947-39.807,6.648-43.672,7.879c-6.837,2.174-13.988,6.146-20.986,9.207c-9.067,4.195-32.449,7.4-42.987,6.742
	c-17.26-1.064-43.918,2.506-49.465,13.51c-4.782,9.467,3.389,18.422,8.939,21.291c17.19,8.873,58.628,0.459,80.397-3.562
	c0.009,0.096,0.016,0.193,0.021,0.291c-0.533,1.018-6.621,3.604-9.632,4.385c-5.19,1.246-10.38,2.494-15.571,3.738
	c-5.944,1.826-12.153,4.332-17.099,6.506c-6.518,0.771-8.749-0.557-19.569,0.727c-10.819,1.285-13.378,3.168-20.069,3.957
	c-14.593-7.938-39.126-7.154-41.272-6.967c-9.229-4.979-26.953-6.674-32.873-5.344c-6.233-1.48-32.902-4.057-50.485,7.455
	c-4.068,4.158-8.209,10.344-7.089,15s32.371,1.668,41.097,1.131c-3.596,1.438-9.966,3.389-12.946,7.191
	c-2.98,3.801-7.397,13.768-5.619,15.906c1.779,2.139,8.214,2.201,13.133,2.09c4.077-0.102,51.737,1.178,59.425,2.408
	c9.038,1.453,42.733,5.838,46.149,5.648c4.713,1.16,34.545,2.158,44.235,4.047c10.191,1.986,17.363,8.553,29.141,9.793
	c5.189,0.555,8.434-2.324,12.386-3.15c11.039-2.303,23.378-4.74,34.034-8.311c29.721-9.957,71.33-18.119,103.166-12.344
	c5.327,1.299,10.644,2.6,15.957,3.902"/>
<path fill-rule="evenodd" clip-rule="evenodd" fill="#D8B577" d="M578.144,353.73"/>
</svg>
