<?xml version="1.0" encoding="utf-8"?>
<!-- Generator: Adobe Illustrator 16.0.0, SVG Export Plug-In . SVG Version: 6.00 Build 0)  -->
<!DOCTYPE svg PUBLIC "-//W3C//DTD SVG 1.1//EN" "http://www.w3.org/Graphics/SVG/1.1/DTD/svg11.dtd">
<svg version="1.1" id="Layer_1" xmlns="http://www.w3.org/2000/svg" xmlns:xlink="http://www.w3.org/1999/xlink" x="0px" y="0px"
	 width="768px" height="430px" viewBox="0 0 768 430" enable-background="new 0 0 768 430" xml:space="preserve">
<g>
	<path fill="#E2A029" d="M405.946,324.46c0,0-4.386,28.056,0.291,31.271c2.487,3.506,15.491,0.705,15.491-7.007
		c0-7.957-2.038-16.671-3.98-19.007C412.778,332.054,405.946,324.46,405.946,324.46z"/>
	<path fill="#E2A029" d="M456.013,281.201c0,0,13.649,13.737,25.635,8.185c-7.602,4.089-19.178,5.966-26.893,1.321
		C455.928,284.124,456.013,281.201,456.013,281.201z"/>
	<path fill="#F4B631" d="M456.013,281.201c0,0,13.649,13.737,25.635,8.185c-7.602,4.089-17.923,2.574-25.635-2.071
		C457.183,280.73,456.013,281.201,456.013,281.201z"/>
	<path fill="#CE8E28" d="M331.822,291.756c0,0-10.376,61.379-15.638,80.379c-2.042,7.887,27.477,9.938,28.059,0
		c0.881-21.92,0.938-55.536,2.661-60.794C339.567,299.357,331.822,291.756,331.822,291.756z"/>
	<path fill="#E2A029" d="M331.822,291.756c0,0-10.376,61.379-15.638,80.379c-2.042,7.887,19.388,7.546,19.388-5.076
		c0.877-21.92,1.776-40.277,3.501-45.539C331.738,309.536,331.822,291.756,331.822,291.756z"/>
	<path fill="#CE8E28" d="M405.946,324.46c0,0-4.386,28.056,0.291,31.271c2.487,3.506,21.926,1.46,24.846-4.386
		c1.754-5.553-3.801-27.472-9.354-33.024C416.762,320.657,405.946,324.46,405.946,324.46z"/>
	<path fill="#E2A029" d="M405.946,324.46c0,0-4.386,28.056,0.291,31.271c2.487,3.506,15.491,0.705,15.491-7.007
		c0-7.957-2.038-16.671-3.98-19.007C412.778,332.054,405.946,324.46,405.946,324.46z"/>
	<path fill="#F6C55A" d="M320.531,77.34c0,0-23.156-0.438-22.538-21.482c3.467-4.823,14.202-10.555,39.293,11.822
		C330.175,71.641,320.531,77.34,320.531,77.34z"/>
	<path fill="#F4B631" d="M320.531,77.34c0,0-20.606-3.288-19.508-20.167c3.467-4.824,12.307-7.346,36.264,10.507
		C330.175,71.641,320.531,77.34,320.531,77.34z"/>
	<path fill="#DBC463" d="M325.79,72.438c2.054,0.107-14.123,2.146-19.067-12.416C315.269,58.785,321.093,61.486,325.79,72.438z"/>
	<path fill="#E9D66F" d="M322.484,70.247c0.845,1.871-10.393-2.115-15.762-10.224C315.269,58.785,318.558,61.559,322.484,70.247z"/>
	<path fill="#E2A029" d="M375.47,86.764c0,0,18.714-10.679,29.895-1.612c11.175,9.064,8.986,15.065,8.986,20.941
		c-8.769,2.591-19.071,5.224-30.032-7.056c-3.507-4.431-7.231-6.135-10.085-2.847C374.017,92.685,375.47,86.764,375.47,86.764z"/>
	<path fill="#F4B631" d="M375.47,86.764c0,0,18.714-10.679,29.895-1.612c11.175,9.064,6.796,14.585,6.796,20.465
		c-8.77,2.587-18.633,0.726-29.596-11.556c-3.505-4.43-5.477-1.159-8.331,2.129C374.017,92.685,375.47,86.764,375.47,86.764z"/>
	<path fill="#DBC463" d="M381.469,90.929c0,0,18.46-4.334,26.574,10.134C392.478,103.691,385.465,90.577,381.469,90.929z"/>
	<path fill="#E9D66F" d="M381.469,90.929c0,0,14.869-3.723,22.36,7.453C388.264,101.015,385.465,90.577,381.469,90.929z"/>
	<path fill="#E2A029" d="M341.013,141.458c0.648,3.274-11.124,42.854-14.161,92.395c-3.031,26.742-6.979,87.242,37.3,90.752
		c12.277,3.962,54.801,13.153,92.066-27.183c6.576-7.015,4.24-30.542-15.784-41.941c-41.502-17.244-72.492,10.377-76.72-38.724
		c-7.64-82.228,23.139-122.695,11.756-135.254C365.239,97.809,341.013,141.458,341.013,141.458z"/>
	<path fill="#F4C931" d="M343.904,158.375c0.649,3.275-6.904,27.691-9.941,77.229c-3.036,26.748-1.308,76.579,31.651,76.579
		c12.274,3.962,60.791,10.666,90.604-14.761c6.576-7.015,4.24-30.542-15.784-41.941c-41.502-17.244-72.492,10.377-76.72-38.724
		c-7.64-82.228,23.139-122.695,11.756-135.254C368.099,135.919,343.904,158.375,343.904,158.375z"/>
	<path fill="#F4B631" d="M343.904,158.375c0.649,3.275-6.904,27.691-9.941,77.229c-3.036,26.748-1.308,76.579,31.651,76.579
		c12.274,3.962,60.791,10.666,90.604-14.761c6.576-7.015,5.202-24.699-14.816-36.096c-41.502-17.245-78.574,10.23-82.801-38.872
		c-7.64-82.225,28.252-128.393,16.869-140.951C368.099,135.919,343.904,158.375,343.904,158.375z"/>
	<path fill="#E2A029" d="M357.396,306.079c0,0-2.339,66.346-2.923,79.788c0,4.614,26.303,8.771,27.766,1.757
		c0.876-12.57-2.632-69.268-2.926-76.283C374.348,308.708,357.396,306.079,357.396,306.079z"/>
	<path fill="#F4B631" d="M357.396,306.079c0,0-2.339,66.346-2.923,79.788c0,4.614,18.301,0.828,19.761-6.187
		c-2.881-38.237,5.374-61.324,5.079-68.34C374.348,308.708,357.396,306.079,357.396,306.079z"/>
	<path fill="#E2A029" d="M437.805,297.861c0,0,11.984,70.146,14.323,75.699c1.167,2.628,27.763,1.067,27.763-8.186
		c-2.63-19.287-17.283-63.717-21.794-87.973C444.819,285.196,437.805,297.861,437.805,297.861z"/>
	<path fill="#F4B631" d="M437.805,297.861c0,0,11.984,70.146,14.323,75.699c1.167,2.628,19.876-4.24,16.073-17.104
		c-8.453-28.071-5.594-54.798-10.104-79.054C444.819,285.196,437.805,297.861,437.805,297.861z"/>
	<path fill="#E2A029" d="M285.24,160.201c0,0-39.46-24.115,6.135-66.64c17.539-13.59,22.439-20.781,47.864-31.302
		c2.685-1.359,2.554-15.609,1.677-22.621c7.893,0.438,7.893,0.438,7.893,0.438s-2.63,21.483,8.33,24.55
		c7.014,1.753,10.961,2.629,21.921-15.782c3.505,3.505,5.259,5.701,5.259,5.701s-12.148,14.247-7.89,22.796
		c4.162,9.866,0.438,28.984-20.354,57.188C336.093,163.71,306.281,188.255,285.24,160.201z"/>
	<path fill="#F6C55A" d="M289.843,153.917c0,0-44.063-17.832,1.532-60.356c17.539-13.59,22.439-20.781,47.864-31.302
		c2.685-1.359,2.554-15.609,1.677-22.621c4.482,1.235,4.482,1.235,4.482,1.235s0.78,20.686,11.74,23.753
		c7.014,1.753,10.961,2.629,21.921-15.782c3.505,3.505,5.259,5.701,5.259,5.701s-14.362,13.07-10.105,21.62
		c4.165,9.865,2.654,30.16-18.139,58.364C336.093,163.71,310.883,181.977,289.843,153.917z"/>
	<path fill="#F4B631" d="M289.843,153.917c0,0-40.991-16.503,4.604-59.03c17.535-13.588,22.047-21.711,47.477-32.234
		c2.685-1.36-0.13-16.003-1.008-23.015c4.482,1.235,4.482,1.235,4.482,1.235s0.78,20.686,11.74,23.753
		c7.014,1.753,10.961,2.629,21.921-15.782c3.505,3.505,5.259,5.701,5.259,5.701s-14.362,13.07-10.105,21.62
		c4.165,9.865,2.654,30.16-18.139,58.364C336.093,163.71,310.883,181.977,289.843,153.917z"/>
	<ellipse fill="#873A13" cx="346.116" cy="38.322" rx="10.145" ry="7.454"/>
	<ellipse fill="#99481B" cx="344.446" cy="37.095" rx="8.474" ry="6.225"/>
	
		<ellipse transform="matrix(0.6928 0.7212 -0.7212 0.6928 154.0161 -261.852)" fill="#873A13" cx="384.32" cy="49.829" rx="10.145" ry="7.452"/>
	<path fill="#99481B" d="M389.1,54.803c-2.494,2.394-7.16,1.587-10.421-1.809c-3.257-3.395-3.878-8.087-1.387-10.482
		c2.493-2.395,7.159-1.587,10.42,1.808C390.969,47.715,391.594,52.407,389.1,54.803z"/>
	<path fill="#EABC54" d="M290.85,94.062c-44.746,42.213-5.61,66.139-5.61,66.139c16.493,21.99,38.373,11.662,56.681-7.878
		C342.228,103.458,307.216,95.235,290.85,94.062z"/>
	<path fill="#FDDB81" d="M290.85,94.062c-12.99,12.622-18.853,22.884-20.488,31.29c-3.268,16.786,10.306,26.179,17.597,32.175
		c0.749,0.615,18.736,6.839,43.314-7.85c-17.944,16.659-38.423,13.105-38.423,13.105c8.172,11.507,30.762,9.081,49.07-10.459
		C342.228,103.458,307.216,95.235,290.85,94.062z"/>
	<path fill="#FCD262" d="M270.362,125.351c-3.268,16.786,10.306,26.179,17.597,32.175c0.749,0.615,18.736,6.839,43.314-7.85
		c-17.944,16.659-38.423,13.105-38.423,13.105c8.172,11.507,30.762,9.081,49.07-10.459c0.286-45.476-30.019-55.752-47.417-57.902
		C289.332,99.917,271.997,116.945,270.362,125.351z"/>
	<path fill="#EABC54" d="M286.772,130.596c0,6.636-3.203,12.011-7.157,12.011c-3.955,0-7.16-5.375-7.16-12.011
		c0-6.635,3.205-12.019,7.16-12.019C283.569,118.577,286.772,123.961,286.772,130.596z"/>
	<path fill="#C9A74F" d="M285.24,129.305c0,5.925-2.864,10.728-6.391,10.728c-3.533,0-6.394-4.803-6.394-10.728
		c0-5.924,2.86-10.728,6.394-10.728C282.376,118.577,285.24,123.38,285.24,129.305z"/>
	<path fill="#BB9123" d="M283.197,127.594c0,4.979-2.404,9.012-5.369,9.012c-2.967,0-5.373-4.032-5.373-9.012
		s2.405-9.017,5.373-9.017C280.793,118.577,283.197,122.614,283.197,127.594z"/>
	<path fill="#EABC54" d="M311.077,147.771c-3.751,4.458-9.288,5.969-12.367,3.378c-3.077-2.592-2.529-8.306,1.222-12.759
		c3.754-4.459,9.288-5.97,12.366-3.383C315.376,137.601,314.827,143.314,311.077,147.771z"/>
	<path fill="#C9A74F" d="M310.525,145.55c-3.274,3.892-8.109,5.209-10.793,2.95c-2.688-2.263-2.208-7.246,1.063-11.138
		c3.278-3.889,8.109-5.21,10.796-2.946C314.275,136.674,313.799,141.662,310.525,145.55z"/>
	<path fill="#BB9123" d="M309.869,142.924c-2.708,3.22-6.708,4.316-8.934,2.443c-2.222-1.87-1.828-6,0.883-9.22
		c2.713-3.215,6.712-4.309,8.934-2.439C312.975,135.582,312.578,139.708,309.869,142.924z"/>
	<circle fill="#E2A029" cx="358.672" cy="88.627" r="11.29"/>
	<circle cx="358.672" cy="87.534" r="10.192"/>
	<circle fill="#BFBFBF" cx="358.673" cy="86.764" r="9.427"/>
	<circle fill="#FFFFFF" cx="358.671" cy="85.122" r="7.782"/>
	<path d="M363.714,87.206c0,2.057-1.67,3.723-3.728,3.723c-2.06,0-3.726-1.667-3.726-3.723c0-2.06,1.666-3.73,3.726-3.73
		C362.043,83.476,363.714,85.146,363.714,87.206z"/>
	<path fill="#E2A029" d="M347.265,77.593c0,6.235-5.055,11.293-11.293,11.293c-6.234,0-11.293-5.058-11.293-11.293
		c0-6.234,5.059-11.293,11.293-11.293C342.209,66.299,347.265,71.358,347.265,77.593z"/>
	<circle cx="335.974" cy="76.54" r="10.238"/>
	<circle fill="#BFBFBF" cx="335.973" cy="75.726" r="9.425"/>
	<path fill="#FFFFFF" d="M343.573,73.9c0,4.2-3.402,7.603-7.601,7.603c-4.198,0-7.6-3.402-7.6-7.603c0-4.194,3.402-7.601,7.6-7.601
		C340.171,66.299,343.573,69.706,343.573,73.9z"/>
	<circle cx="337.286" cy="76.165" r="3.726"/>
	<path d="M371.167,79.891c0,0-1.752-5.78-7.453-7.453C369.851,72.517,374.233,73.017,371.167,79.891z"/>
	<path d="M343.108,65.05c0,0,4.523,2.654,6.138,5.931C349.246,66.299,347.493,62.873,343.108,65.05z"/>
	<path fill="#7E4A18" d="M315.928,89.835c0,1.698-1.718,3.067-3.837,3.067s-3.837-1.37-3.837-3.067c0-1.694,1.718-3.071,3.837-3.071
		S315.928,88.141,315.928,89.835z"/>
	<path fill="#7E4A18" d="M349.246,104.303c0,2.418-1.843,4.382-4.117,4.382c-2.271,0-4.116-1.963-4.116-4.382
		c0-2.422,1.846-4.386,4.116-4.386C347.403,99.917,349.246,101.881,349.246,104.303z"/>
	<ellipse fill="#7E4A18" cx="349.513" cy="120.085" rx="4.115" ry="5.7"/>
	<ellipse fill="#7E4A18" cx="363.964" cy="105.618" rx="3.978" ry="5.7"/>
	<path fill="#7E4A18" d="M357.347,188.698c0,6.701-4.036,12.132-9.018,12.132c-4.983,0-9.02-5.431-9.02-12.132
		c0-6.697,4.037-12.131,9.02-12.131C353.311,176.566,357.347,182,357.347,188.698z"/>
	<path fill="#7E4A18" d="M358.601,222.454c0,5.007-4.317,9.061-9.645,9.061c-5.327,0-9.647-4.054-9.647-9.061
		c0-5.005,4.321-9.062,9.647-9.062C354.283,213.392,358.601,217.449,358.601,222.454z"/>
	<path fill="#7E4A18" d="M363.862,251.534c0,5.409-3.795,9.792-8.479,9.792c-4.678,0-8.473-4.383-8.473-9.792
		c0-5.407,3.794-9.792,8.473-9.792C360.067,241.742,363.862,246.127,363.862,251.534z"/>
	<path fill="#7E4A18" d="M341.355,251.684c0,3.549-2.593,6.428-5.783,6.428c-3.195,0-5.786-2.879-5.786-6.428
		c0-3.552,2.591-6.433,5.786-6.433C338.762,245.251,341.355,248.132,341.355,251.684z"/>
	<path fill="#7E4A18" d="M356.553,283.831c0,4.84-4.699,8.767-10.489,8.767c-5.797,0-10.493-3.927-10.493-8.767
		c0-4.841,4.696-8.769,10.493-8.769C351.854,275.062,356.553,278.99,356.553,283.831z"/>
	<path fill="#7E4A18" d="M382.856,290.845c0,3.875-3.857,7.017-8.623,7.017c-4.761,0-8.619-3.142-8.619-7.017
		c0-3.873,3.858-7.014,8.619-7.014C378.999,283.831,382.856,286.972,382.856,290.845z"/>
	<ellipse fill="#7E4A18" cx="390.895" cy="306.921" rx="4.239" ry="5.262"/>
	<ellipse fill="#7E4A18" cx="412.521" cy="308.381" rx="9.207" ry="8.478"/>
	<path fill="#7E4A18" d="M429.331,288.216c0,3.873-3.402,7.015-7.603,7.015c-4.194,0-7.597-3.142-7.597-7.015
		c0-3.875,3.402-7.015,7.597-7.015C425.929,281.201,429.331,284.341,429.331,288.216z"/>
	<path fill="#7E4A18" d="M446.28,279.815c0,4.637-2.812,8.4-6.283,8.4s-6.284-3.764-6.284-8.4c0-4.642,2.812-8.406,6.284-8.406
		S446.28,275.174,446.28,279.815z"/>
	<path fill="#7E4A18" d="M410.04,275.211c0,4.763-5.233,8.62-11.689,8.62c-6.461,0-11.694-3.857-11.694-8.62
		c0-4.761,5.233-8.622,11.694-8.622C404.807,266.589,410.04,270.45,410.04,275.211z"/>
	<path fill="#7E4A18" d="M371.353,271.409c0,2.019-2.394,3.653-5.35,3.653c-2.961,0-5.356-1.635-5.356-3.653
		s2.395-3.655,5.356-3.655C368.958,267.754,371.353,269.391,371.353,271.409z"/>
	<path fill="#7E4A18" d="M462.939,309.988c0,4.599-3.101,8.333-6.927,8.333c-3.822,0-6.928-3.734-6.928-8.333
		c0-4.6,3.105-8.33,6.928-8.33C459.839,301.658,462.939,305.389,462.939,309.988z"/>
	<ellipse fill="#7E4A18" cx="458.847" cy="337.82" rx="4.092" ry="4.464"/>
	<path fill="#7E4A18" d="M372.629,324.46c0,4.192-2.684,7.594-5.993,7.594c-3.306,0-5.99-3.401-5.99-7.594
		c0-4.199,2.684-7.602,5.99-7.602C369.945,316.858,372.629,320.261,372.629,324.46z"/>
	<ellipse fill="#7E4A18" cx="365.324" cy="345.793" rx="4.677" ry="5.553"/>
	<path fill="#7E4A18" d="M338.143,329.718c0,2.906-1.871,5.263-4.179,5.263c-2.304,0-4.178-2.356-4.178-5.263
		c0-2.905,1.874-5.258,4.178-5.258C336.271,324.46,338.143,326.812,338.143,329.718z"/>
	<path fill="#7E4A18" d="M334.34,348.571c0,1.531-1.505,2.774-3.357,2.774c-1.861,0-3.366-1.243-3.366-2.774
		c0-1.535,1.505-2.778,3.366-2.778C332.835,345.793,334.34,347.036,334.34,348.571z"/>
	<path fill="#562A09" d="M320.4,354.762c-1.536,7.438-2.992,13.915-4.183,18.212c-2.046,7.892,27.476,9.938,28.06,0
		c0.2-5.004,0.359-10.621,0.504-16.368C334.41,362.902,324.75,357.851,320.4,354.762z"/>
	<path fill="#6A3910" d="M335.572,367.059c0.104-2.557,0.204-5.062,0.307-7.504c-6.717,0.524-12.415-2.619-15.479-4.793
		c-1.536,7.438-2.992,13.915-4.183,18.212c-0.076,0.307-0.093,0.6-0.082,0.887C317.446,379.885,335.572,378.67,335.572,367.059z"/>
	<path fill="#562A09" d="M355.266,367.059c-0.324,8.793-0.604,16.087-0.758,19.654c0,4.61,26.303,8.77,27.766,1.753
		c0.263-3.765,0.13-11.484-0.19-20.642C372.382,372.772,360.719,369.254,355.266,367.059z"/>
	<path fill="#6A3910" d="M374.233,379.681c-0.244-3.281-0.406-6.443-0.5-9.499c-7.341,0.726-14.525-1.539-18.467-3.123
		c-0.313,8.457-0.583,15.521-0.742,19.221C355.609,390.243,372.822,386.475,374.233,379.681z"/>
	<path fill="#562A09" d="M404.426,337.73c-0.597,7.74-0.646,16.308,1.812,18.001c2.487,3.506,21.926,1.46,24.846-4.386
		c0.942-2.989-0.23-10.717-2.38-18.084C419.573,340.349,409.855,339.241,404.426,337.73z"/>
	<path fill="#E2A029" d="M404.26,349.883c-0.021-0.22-0.037-0.449-0.057-0.676C404.223,349.434,404.239,349.663,404.26,349.883z"/>
	<path fill="#E2A029" d="M404.387,351.004c-0.027-0.207-0.054-0.41-0.079-0.624C404.333,350.594,404.359,350.797,404.387,351.004z"
		/>
	<path fill="#E2A029" d="M404.087,346.115c-0.004-0.277-0.004-0.553-0.004-0.833C404.083,345.562,404.083,345.838,404.087,346.115z"
		/>
	<path fill="#E2A029" d="M404.171,348.686c-0.019-0.237-0.028-0.482-0.039-0.729C404.143,348.203,404.152,348.448,404.171,348.686z"
		/>
	<path fill="#E2A029" d="M404.116,347.426c-0.012-0.256-0.018-0.514-0.021-0.777C404.099,346.912,404.104,347.17,404.116,347.426z"
		/>
	<path fill="#E2A029" d="M404.551,352.039c-0.036-0.187-0.07-0.371-0.097-0.569C404.48,351.668,404.515,351.853,404.551,352.039z"/>
	<path fill="#E2A029" d="M405.321,354.555c-0.064-0.131-0.13-0.255-0.192-0.403C405.191,354.3,405.257,354.424,405.321,354.555z"/>
	<path fill="#E2A029" d="M405.696,355.168c-0.087-0.113-0.173-0.22-0.25-0.355C405.523,354.948,405.609,355.055,405.696,355.168z"/>
	<path fill="#E2A029" d="M404.761,352.985c-0.046-0.167-0.087-0.335-0.126-0.516C404.674,352.65,404.715,352.818,404.761,352.985z"
		/>
	<path fill="#E2A029" d="M406.237,355.731c-0.149-0.106-0.288-0.236-0.417-0.391C405.949,355.495,406.088,355.625,406.237,355.731z"
		/>
	<path fill="#E2A029" d="M405.015,353.826c-0.055-0.147-0.109-0.298-0.153-0.458C404.905,353.528,404.96,353.679,405.015,353.826z"
		/>
	<path fill="#E2A029" d="M404.091,344.762c0.005-0.299,0.008-0.598,0.014-0.898C404.099,344.164,404.096,344.463,404.091,344.762z"
		/>
	<path fill="#E2A029" d="M406.237,355.731c0.596,0.838,1.794,1.312,3.271,1.449C407.923,356.907,406.735,356.433,406.237,355.731z"
		/>
	<path fill="#E2A029" d="M404.236,340.549c0.023-0.387,0.045-0.77,0.068-1.156C404.281,339.779,404.26,340.162,404.236,340.549z"/>
	<path fill="#E2A029" d="M404.168,341.972c0.017-0.349,0.032-0.705,0.052-1.057C404.2,341.267,404.185,341.619,404.168,341.972z"/>
	<path fill="#E2A029" d="M404.119,343.383c0.006-0.328,0.021-0.651,0.029-0.978C404.14,342.731,404.125,343.055,404.119,343.383z"/>
	<path fill="#E2A029" d="M404.321,339.124c0.033-0.441,0.065-0.881,0.097-1.314C404.387,338.243,404.354,338.683,404.321,339.124z"
		/>
	<path fill="#6A3910" d="M404.426,337.73l-0.008,0.079L404.426,337.73z"/>
	<path fill="#6A3910" d="M404.861,353.368c-0.038-0.121-0.07-0.255-0.101-0.383C404.791,353.113,404.823,353.247,404.861,353.368z"
		/>
	<path fill="#6A3910" d="M405.82,355.341l-0.124-0.173L405.82,355.341z"/>
	<path fill="#6A3910" d="M404.635,352.47c-0.03-0.141-0.057-0.286-0.084-0.431C404.578,352.184,404.604,352.329,404.635,352.47z"/>
	<path fill="#6A3910" d="M405.129,354.151c-0.042-0.102-0.075-0.218-0.114-0.325C405.054,353.936,405.087,354.05,405.129,354.151z"
		/>
	<path fill="#6A3910" d="M405.446,354.812l-0.125-0.258L405.446,354.812z"/>
	<path fill="#6A3910" d="M404.203,349.207c-0.012-0.169-0.023-0.347-0.032-0.521C404.18,348.86,404.191,349.034,404.203,349.207z"/>
	<path fill="#6A3910" d="M404.132,347.957c-0.007-0.176-0.013-0.352-0.016-0.531C404.119,347.605,404.125,347.781,404.132,347.957z"
		/>
	<path fill="#6A3910" d="M404.148,342.405c0.008-0.145,0.013-0.29,0.02-0.434C404.161,342.115,404.156,342.261,404.148,342.405z"/>
	<path fill="#6A3910" d="M404.305,339.393l0.017-0.269L404.305,339.393z"/>
	<path fill="#6A3910" d="M404.083,345.282c0-0.172,0.004-0.348,0.008-0.521C404.087,344.938,404.083,345.11,404.083,345.282z"/>
	<path fill="#6A3910" d="M404.096,346.648c0-0.178-0.009-0.355-0.009-0.533C404.087,346.293,404.096,346.471,404.096,346.648z"/>
	<path fill="#6A3910" d="M404.104,343.863c0.003-0.161,0.008-0.324,0.015-0.48C404.112,343.539,404.107,343.702,404.104,343.863z"/>
	<path fill="#6A3910" d="M404.308,350.38c-0.017-0.162-0.033-0.332-0.048-0.497C404.274,350.048,404.291,350.218,404.308,350.38z"/>
	<path fill="#6A3910" d="M404.454,351.47c-0.028-0.151-0.045-0.312-0.067-0.466C404.409,351.158,404.426,351.318,404.454,351.47z"/>
	<path fill="#6A3910" d="M404.22,340.915c0.005-0.12,0.013-0.244,0.017-0.366C404.232,340.671,404.225,340.795,404.22,340.915z"/>
	<path fill="#6A3910" d="M421.729,348.725c0-3.8-0.468-7.763-1.166-11.133c-6.364,2.05-12.313,1.201-16.137,0.139l-0.008,0.079
		c-0.031,0.434-0.063,0.873-0.097,1.314l-0.017,0.269c-0.023,0.387-0.045,0.77-0.068,1.156c-0.004,0.122-0.012,0.246-0.017,0.366
		c-0.02,0.352-0.035,0.708-0.052,1.057c-0.007,0.144-0.012,0.289-0.02,0.434c-0.009,0.326-0.023,0.649-0.029,0.978
		c-0.007,0.156-0.012,0.319-0.015,0.48c-0.006,0.301-0.009,0.6-0.014,0.898c-0.004,0.173-0.008,0.349-0.008,0.521
		c0,0.28,0,0.556,0.004,0.833c0,0.178,0.009,0.355,0.009,0.533c0.003,0.264,0.009,0.521,0.021,0.777
		c0.003,0.18,0.009,0.355,0.016,0.531c0.011,0.246,0.021,0.491,0.039,0.729c0.009,0.175,0.021,0.353,0.032,0.521
		c0.02,0.227,0.036,0.456,0.057,0.676c0.015,0.165,0.031,0.335,0.048,0.497c0.025,0.214,0.052,0.417,0.079,0.624
		c0.022,0.154,0.039,0.314,0.067,0.466c0.026,0.198,0.061,0.383,0.097,0.569c0.027,0.145,0.054,0.29,0.084,0.431
		c0.039,0.181,0.08,0.349,0.126,0.516c0.03,0.128,0.062,0.262,0.101,0.383c0.044,0.16,0.099,0.311,0.153,0.458
		c0.039,0.107,0.072,0.224,0.114,0.325c0.062,0.148,0.128,0.272,0.192,0.403l0.125,0.258c0.077,0.136,0.163,0.242,0.25,0.355
		l0.124,0.173c0.129,0.154,0.268,0.284,0.417,0.391c0.498,0.701,1.686,1.176,3.271,1.449
		C414.204,357.612,421.729,354.592,421.729,348.725z"/>
	<path fill="#562A09" d="M447.745,353.419c1.963,10.296,3.649,18.398,4.383,20.142c1.167,2.628,27.763,1.067,27.763-8.186
		c-0.677-4.97-2.156-11.618-4.052-19.154C464.596,353.809,453.404,353.992,447.745,353.419z"/>
	<path fill="#F4B631" d="M451.6,371.869c-0.061-0.231-0.123-0.474-0.189-0.737C451.477,371.393,451.539,371.638,451.6,371.869z"/>
	<path fill="#F4B631" d="M449.766,363.669c-0.081-0.385-0.16-0.775-0.243-1.179C449.605,362.894,449.685,363.284,449.766,363.669z"
		/>
	<path fill="#F4B631" d="M449.471,362.235c-0.103-0.51-0.204-1.031-0.314-1.566C449.267,361.204,449.368,361.726,449.471,362.235z"
		/>
	<path fill="#F4B631" d="M449.154,360.649c-0.104-0.513-0.208-1.039-0.312-1.571C448.946,359.61,449.051,360.137,449.154,360.649z"
		/>
	<path fill="#F4B631" d="M450.656,367.885c-0.167-0.758-0.345-1.574-0.525-2.446C450.312,366.311,450.489,367.127,450.656,367.885z"
		/>
	<path fill="#F4B631" d="M450.9,368.975c-0.061-0.26-0.121-0.525-0.181-0.805C450.779,368.449,450.84,368.715,450.9,368.975z"/>
	<path fill="#F4B631" d="M450.056,365.086c-0.07-0.336-0.138-0.676-0.212-1.023C449.918,364.41,449.985,364.75,450.056,365.086z"/>
	<path fill="#F4B631" d="M451.78,372.511c-0.041-0.138-0.084-0.286-0.125-0.442C451.696,372.225,451.739,372.373,451.78,372.511z"/>
	<path fill="#F4B631" d="M451.404,371.097c-0.065-0.259-0.136-0.531-0.204-0.822C451.269,370.565,451.339,370.838,451.404,371.097z"
		/>
	<path fill="#F4B631" d="M451.945,373.052c-0.033-0.11-0.071-0.222-0.11-0.348C451.874,372.83,451.912,372.941,451.945,373.052z"/>
	<path fill="#F4B631" d="M448.095,355.238c-0.113-0.591-0.228-1.188-0.345-1.791C447.867,354.05,447.981,354.647,448.095,355.238z"
		/>
	<path fill="#F4B631" d="M451.135,369.991c-0.057-0.224-0.107-0.46-0.161-0.7C451.027,369.531,451.078,369.768,451.135,369.991z"/>
	<path fill="#F4B631" d="M452.128,373.561c-0.045-0.102-0.09-0.226-0.138-0.367C452.038,373.335,452.083,373.459,452.128,373.561z"
		/>
	<path fill="#F4B631" d="M448.427,356.952c-0.087-0.451-0.178-0.911-0.266-1.369C448.249,356.041,448.34,356.501,448.427,356.952z"
		/>
	<path fill="#F4B631" d="M448.768,358.698c-0.083-0.42-0.169-0.848-0.252-1.279C448.599,357.851,448.685,358.278,448.768,358.698z"
		/>
	<path fill="#F4B631" d="M452.309,373.79l-0.181-0.229L452.309,373.79z"/>
	<path fill="#6A3910" d="M451.2,370.274c-0.021-0.093-0.041-0.186-0.065-0.283C451.159,370.089,451.18,370.182,451.2,370.274z"/>
	<path fill="#6A3910" d="M451.655,372.068l-0.056-0.199L451.655,372.068z"/>
	<path fill="#6A3910" d="M451.99,373.193l-0.045-0.142L451.99,373.193z"/>
	<path fill="#6A3910" d="M451.835,372.704l-0.055-0.193L451.835,372.704z"/>
	<path fill="#6A3910" d="M451.41,371.132l-0.006-0.035L451.41,371.132z"/>
	<path fill="#6A3910" d="M448.516,357.419c-0.031-0.156-0.058-0.312-0.089-0.467C448.458,357.107,448.484,357.263,448.516,357.419z"
		/>
	<path fill="#6A3910" d="M448.161,355.583c-0.021-0.118-0.045-0.231-0.066-0.345C448.116,355.352,448.14,355.465,448.161,355.583z"
		/>
	<path fill="#6A3910" d="M447.745,353.419l0.005,0.028L447.745,353.419z"/>
	<path fill="#6A3910" d="M448.843,359.078c-0.026-0.123-0.05-0.252-0.075-0.38C448.793,358.826,448.816,358.955,448.843,359.078z"/>
	<path fill="#6A3910" d="M450.974,369.291c-0.024-0.102-0.049-0.209-0.073-0.316C450.925,369.082,450.949,369.189,450.974,369.291z"
		/>
	<path fill="#6A3910" d="M450.72,368.17c-0.023-0.093-0.039-0.186-0.063-0.285C450.681,367.984,450.696,368.077,450.72,368.17z"/>
	<path fill="#6A3910" d="M449.156,360.669l-0.002-0.02L449.156,360.669z"/>
	<path fill="#6A3910" d="M450.131,365.438c-0.023-0.115-0.049-0.235-0.075-0.353C450.082,365.203,450.107,365.323,450.131,365.438z"
		/>
	<path fill="#6A3910" d="M449.844,364.062c-0.026-0.133-0.051-0.261-0.078-0.394C449.793,363.802,449.817,363.93,449.844,364.062z"
		/>
	<path fill="#6A3910" d="M449.522,362.49l-0.052-0.255L449.522,362.49z"/>
	<path fill="#6A3910" d="M468.201,356.456c-0.557-1.847-1.059-3.688-1.521-5.524c-7.827,2.904-14.832,2.9-18.936,2.487l0.005,0.028
		c0.117,0.603,0.231,1.2,0.345,1.791c0.021,0.113,0.045,0.227,0.066,0.345c0.088,0.458,0.179,0.918,0.266,1.369
		c0.031,0.155,0.058,0.311,0.089,0.467c0.083,0.432,0.169,0.859,0.252,1.279c0.025,0.128,0.049,0.257,0.075,0.38
		c0.104,0.532,0.208,1.059,0.312,1.571l0.002,0.02c0.11,0.535,0.212,1.057,0.314,1.566l0.052,0.255
		c0.083,0.403,0.162,0.794,0.243,1.179c0.027,0.133,0.052,0.261,0.078,0.394c0.074,0.348,0.142,0.688,0.212,1.023
		c0.026,0.117,0.052,0.237,0.075,0.353c0.181,0.872,0.358,1.688,0.525,2.446c0.024,0.1,0.04,0.192,0.063,0.285
		c0.06,0.279,0.12,0.545,0.181,0.805c0.024,0.107,0.049,0.215,0.073,0.316c0.054,0.24,0.104,0.477,0.161,0.7
		c0.024,0.098,0.045,0.19,0.065,0.283c0.068,0.291,0.139,0.563,0.204,0.822l0.006,0.035c0.066,0.264,0.129,0.506,0.189,0.737
		l0.056,0.199c0.041,0.156,0.084,0.305,0.125,0.442l0.055,0.193c0.039,0.126,0.077,0.237,0.11,0.348l0.045,0.142
		c0.048,0.142,0.093,0.266,0.138,0.367l0.181,0.229C454.543,375.718,471.871,368.883,468.201,356.456z"/>
	<path fill="#893C15" d="M518.181,275.062c-1.433,2.243-3.709,4.753-10.814,8.769c3.8,0,6.43-1.754,9.645-2.63
		c-2.337,4.386-11.106,7.306-15.783,7.015c4.969,2.046,4.386,2.629,7.016,2.629c-4.679,1.753-17.997,6.006-33.376,1.25
		C487.493,266.589,507.366,283.831,518.181,275.062z"/>
	<path fill="#99481B" d="M518.181,275.062c-1.433,2.243-11.234,4.753-18.339,8.769c3.799,0,4.31,0.875,7.524,0
		c-1.829,2.646-10.083,3.777-14.761,3.483c4.968,2.048,5.263,3.311,7.896,3.311c-4.681,1.751-11.624,3.649-25.635,1.47
		C487.493,266.589,507.366,283.831,518.181,275.062z"/>
	<path fill="#F6C55A" d="M380.373,85.152c0,0,21.043-6.936,28.717,5.777c1.975,5.482-0.875,5.7-6.796,0
		C396.377,85.232,388.264,84.852,380.373,85.152z"/>
	<path fill="#B75327" d="M351.219,35.408c0,0.932-2.793,1.688-6.248,1.688c-3.447,0-6.246-0.756-6.246-1.688
		c0-0.936,2.798-1.691,6.246-1.691C348.425,33.717,351.219,34.472,351.219,35.408z"/>
	<path fill="#B75327" d="M388.442,52.939c-0.7,0.618-3.116-0.987-5.394-3.578c-2.276-2.595-3.552-5.193-2.853-5.807
		c0.701-0.618,3.113,0.987,5.394,3.578C387.863,49.726,389.145,52.325,388.442,52.939z"/>
	<path fill="#FFFFFF" d="M338.726,72.849c0,1.028-0.835,1.859-1.863,1.859c-1.031,0-1.864-0.831-1.864-1.859
		c0-1.032,0.833-1.867,1.864-1.867C337.891,70.981,338.726,71.816,338.726,72.849z"/>
	<path fill="#FFFFFF" d="M361.071,83.476c0,1.031-0.833,1.863-1.86,1.863c-1.032,0-1.864-0.832-1.864-1.863
		c0-1.028,0.832-1.859,1.864-1.859C360.239,81.616,361.071,82.447,361.071,83.476z"/>
	<path fill="#7E4A18" d="M334.34,271.409c0-3.309-3.076-5.994-6.867-5.994c-0.787,0-1.535,0.124-2.238,0.336
		c0.109,3.812,0.354,7.677,0.785,11.515c0.471,0.085,0.954,0.137,1.454,0.137C331.265,277.402,334.34,274.717,334.34,271.409z"/>
	<path fill="#7E4A18" d="M336.679,207.109c0-3.446-2.901-6.242-6.5-6.279c-0.552,4.003-1.07,8.144-1.538,12.4
		c0.468,0.104,0.959,0.162,1.462,0.162C333.731,213.392,336.679,210.581,336.679,207.109z"/>
	<path fill="#7E4A18" d="M349.514,161.077c0,5.003,5.107,9.061,11.412,9.061c0.803,0,1.587-0.069,2.346-0.197
		c0.472-6.09,1.128-11.842,1.904-17.27c-1.315-0.417-2.748-0.656-4.25-0.656C354.621,152.016,349.514,156.074,349.514,161.077z"/>
	<path fill="#7E4A18" d="M371.353,251.038c0,5.682,4.609,10.288,10.29,10.288c5.684,0,10.289-4.606,10.289-10.288
		c0-0.936-0.135-1.84-0.369-2.701c-6.784-0.398-12.543-1.415-17.063-4.693C372.565,245.517,371.353,248.136,371.353,251.038z"/>
	<path fill="#7E4A18" d="M416.762,261.326c5.326,0,9.644-4.319,9.644-9.643c0-0.198-0.017-0.397-0.028-0.592
		c-6.672-1.447-12.978-1.996-18.836-2.253c-0.272,0.899-0.424,1.854-0.424,2.845C407.117,257.007,411.436,261.326,416.762,261.326z"
		/>
	<path fill="#7E4A18" d="M442.34,265.415c2.732,0,5.165-1.276,6.745-3.263c-2.413-2.479-5.272-4.748-8.651-6.672
		c-2.01-0.837-4.001-1.566-5.962-2.203c-0.482,1.076-0.759,2.263-0.759,3.518C433.713,261.557,437.575,265.415,442.34,265.415z"/>
</g>
</svg>
