<svg version="1.1" xmlns="http://www.w3.org/2000/svg" xmlns:xlink="http://www.w3.org/1999/xlink" viewBox="0 0 768 430" enable-background="new 0 0 768 430" xml:space="preserve">
<g id="Layer_2">
</g>
<g id="Layer_1">
	<g>
		<ellipse opacity="0.6" fill="#C4C6C8" cx="395.759" cy="370.389" rx="91.439" ry="9.559"/>
		<g>
			<g>
				<g>
					<defs>
						
							<filter id="Adobe_OpacityMaskFilter" filterUnits="userSpaceOnUse" x="285.399" y="118.606" width="220.224" height="258.589">
							<feFlood  style="flood-color:white;flood-opacity:1" result="back"/>
							<feBlend  in="SourceGraphic" in2="back" mode="normal"/>
						</filter>
					</defs>
					<mask maskUnits="userSpaceOnUse" x="285.399" y="118.606" width="220.224" height="258.589" id="SVGID_1_">
						<g filter="url(#Adobe_OpacityMaskFilter)">
							<defs>
								
									<filter id="Adobe_OpacityMaskFilter_1_" filterUnits="userSpaceOnUse" x="286.161" y="223.627" width="218.699" height="152.805">
									<feFlood  style="flood-color:white;flood-opacity:1" result="back"/>
									<feBlend  in="SourceGraphic" in2="back" mode="normal"/>
								</filter>
							</defs>
							<mask maskUnits="userSpaceOnUse" x="286.161" y="223.627" width="218.699" height="152.805" id="SVGID_1_">
								<g filter="url(#Adobe_OpacityMaskFilter_1_)">
								</g>
							</mask>
							<linearGradient id="SVGID_2_" gradientUnits="userSpaceOnUse" x1="296.3433" y1="300.0293" x2="493.1347" y2="300.0293">
								<stop  offset="0" style="stop-color:#FFFFFF"/>
								<stop  offset="0.0758" style="stop-color:#F9F9F9"/>
								<stop  offset="0.2932" style="stop-color:#EDEDED"/>
								<stop  offset="0.5177" style="stop-color:#EAEAEA"/>
								<stop  offset="0.7248" style="stop-color:#EEEEEE"/>
								<stop  offset="0.9545" style="stop-color:#FBFBFB"/>
								<stop  offset="1" style="stop-color:#FFFFFF"/>
							</linearGradient>
							<path mask="url(#SVGID_1_)" fill="url(#SVGID_2_)" d="M395.513,237.182c-58.182,0-105.749-5.992-109.352-13.555
								c2.676,10.102,26.938,101.691,31.007,117.287c4.306,16.5-0.746,35.518,78.344,35.518l2.208-0.01
								c76.787-0.35,71.867-19.164,76.142-35.508c4.07-15.596,28.32-107.186,30.998-117.287
								C501.263,231.189,453.694,237.182,395.513,237.182z"/>
						</g>
					</mask>
					<g>
						<path fill="#FBFBFB" d="M395.513,132.921c-58.182,0-105.749-5.99-109.352-13.552c2.676,10.099,26.938,205.95,31.007,221.545
							c4.306,16.5-0.746,35.518,78.344,35.518l2.208-0.01c76.787-0.35,71.867-19.164,76.142-35.508
							c4.07-15.596,28.32-211.446,30.998-221.545C501.263,126.931,453.694,132.921,395.513,132.921z"/>
						<path fill="#CEEBF0" d="M395.516,377.195h-0.002c-71.742,0-74.912-15.807-77.979-31.09c-0.332-1.652-0.673-3.357-1.102-5.002
							c-2.253-8.627-10.682-72.365-18.12-128.599c-6.014-45.483-11.696-88.446-12.888-92.942c-0.101-0.378,0.105-0.774,0.473-0.909
							c0.365-0.134,0.78,0.03,0.949,0.389c3.009,6.309,45.408,13.118,108.666,13.118c63.264,0,105.659-6.809,108.66-13.118
							c0.17-0.356,0.584-0.52,0.95-0.389c0.369,0.135,0.574,0.531,0.475,0.909c-1.193,4.498-6.876,47.479-12.891,92.983
							c-7.433,56.216-15.858,119.933-18.108,128.558c-0.431,1.645-0.774,3.354-1.106,5.008c-3.04,15.121-6.184,30.756-75.769,31.074
							L395.516,377.195z M287.411,121.755c1.84,10.613,6.782,47.979,12.412,90.548c7.431,56.19,15.854,119.878,18.082,128.417
							c0.44,1.684,0.787,3.414,1.124,5.086c2.945,14.682,5.991,29.863,76.485,29.863l2.205-0.008
							c68.343-0.312,71.362-15.328,74.281-29.852c0.337-1.672,0.685-3.404,1.126-5.094c2.227-8.531,10.645-72.199,18.07-128.37
							c5.63-42.585,10.573-79.971,12.416-90.591c-11.073,7.765-61.912,11.926-108.099,11.926
							C349.328,133.681,298.483,129.519,287.411,121.755z"/>
					</g>
					<defs>
						
							<filter id="Adobe_OpacityMaskFilter_2_" filterUnits="userSpaceOnUse" x="285.399" y="118.606" width="220.224" height="258.589">
							<feFlood  style="flood-color:white;flood-opacity:1" result="back"/>
							<feBlend  in="SourceGraphic" in2="back" mode="normal"/>
						</filter>
					</defs>
					<mask maskUnits="userSpaceOnUse" x="285.399" y="118.606" width="220.224" height="258.589" id="SVGID_3_">
						<g filter="url(#Adobe_OpacityMaskFilter_2_)">
							<defs>
								
									<filter id="Adobe_OpacityMaskFilter_3_" filterUnits="userSpaceOnUse" x="286.161" y="223.627" width="218.699" height="152.805">
									<feFlood  style="flood-color:white;flood-opacity:1" result="back"/>
									<feBlend  in="SourceGraphic" in2="back" mode="normal"/>
								</filter>
							</defs>
							<mask maskUnits="userSpaceOnUse" x="286.161" y="223.627" width="218.699" height="152.805" id="SVGID_3_">
								<g filter="url(#Adobe_OpacityMaskFilter_3_)">
								</g>
							</mask>
							<linearGradient id="SVGID_4_" gradientUnits="userSpaceOnUse" x1="296.3433" y1="300.0293" x2="493.1347" y2="300.0293">
								<stop  offset="0" style="stop-color:#FFFFFF"/>
								<stop  offset="0.0758" style="stop-color:#F9F9F9"/>
								<stop  offset="0.2932" style="stop-color:#EDEDED"/>
								<stop  offset="0.5177" style="stop-color:#EAEAEA"/>
								<stop  offset="0.7248" style="stop-color:#EEEEEE"/>
								<stop  offset="0.9545" style="stop-color:#FBFBFB"/>
								<stop  offset="1" style="stop-color:#FFFFFF"/>
							</linearGradient>
							<path mask="url(#SVGID_3_)" fill="url(#SVGID_4_)" d="M395.513,237.182c-58.182,0-105.749-5.992-109.352-13.555
								c2.676,10.102,26.938,101.691,31.007,117.287c4.306,16.5-0.746,35.518,78.344,35.518l2.208-0.01
								c76.787-0.35,71.867-19.164,76.142-35.508c4.07-15.596,28.32-107.186,30.998-117.287
								C501.263,231.189,453.694,237.182,395.513,237.182z"/>
						</g>
					</mask>
					<g>
						<path fill="#FBFBFB" d="M395.513,132.921c-58.182,0-105.749-5.99-109.352-13.552c2.676,10.099,26.938,205.95,31.007,221.545
							c4.306,16.5-0.746,35.518,78.344,35.518l2.208-0.01c76.787-0.35,71.867-19.164,76.142-35.508
							c4.07-15.596,28.32-211.446,30.998-221.545C501.263,126.931,453.694,132.921,395.513,132.921z"/>
						<path fill="#C0DCE1" d="M395.516,377.195h-0.002c-71.742,0-74.912-15.807-77.979-31.09c-0.332-1.652-0.673-3.357-1.102-5.002
							c-2.253-8.627-10.682-72.365-18.12-128.599c-6.014-45.483-11.696-88.446-12.888-92.942c-0.101-0.378,0.105-0.774,0.473-0.909
							c0.365-0.134,0.78,0.03,0.949,0.389c3.009,6.309,45.408,13.118,108.666,13.118c63.264,0,105.659-6.809,108.66-13.118
							c0.17-0.356,0.584-0.52,0.95-0.389c0.369,0.135,0.574,0.531,0.475,0.909c-1.193,4.498-6.876,47.479-12.891,92.983
							c-7.433,56.216-15.858,119.933-18.108,128.558c-0.431,1.645-0.774,3.354-1.106,5.008c-3.04,15.121-6.184,30.756-75.769,31.074
							L395.516,377.195z M287.411,121.755c1.84,10.613,6.782,47.979,12.412,90.548c7.431,56.19,15.854,119.878,18.082,128.417
							c0.44,1.684,0.787,3.414,1.124,5.086c2.945,14.682,5.991,29.863,76.485,29.863l2.205-0.008
							c68.343-0.312,71.362-15.328,74.281-29.852c0.337-1.672,0.685-3.404,1.126-5.094c2.227-8.531,10.645-72.199,18.07-128.37
							c5.63-42.585,10.573-79.971,12.416-90.591c-11.073,7.765-61.912,11.926-108.099,11.926
							C349.328,133.681,298.483,129.519,287.411,121.755z"/>
					</g>
					<defs>
						
							<filter id="Adobe_OpacityMaskFilter_4_" filterUnits="userSpaceOnUse" x="291.856" y="122.087" width="207.311" height="232.799">
							<feFlood  style="flood-color:white;flood-opacity:1" result="back"/>
							<feBlend  in="SourceGraphic" in2="back" mode="normal"/>
						</filter>
					</defs>
					<mask maskUnits="userSpaceOnUse" x="291.856" y="122.087" width="207.311" height="232.799" id="SVGID_5_">
						<g filter="url(#Adobe_OpacityMaskFilter_4_)">
							<defs>
								
									<filter id="Adobe_OpacityMaskFilter_5_" filterUnits="userSpaceOnUse" x="289.965" y="206.639" width="211.092" height="147.486">
									<feFlood  style="flood-color:white;flood-opacity:1" result="back"/>
									<feBlend  in="SourceGraphic" in2="back" mode="normal"/>
								</filter>
							</defs>
							<mask maskUnits="userSpaceOnUse" x="289.965" y="206.639" width="211.092" height="147.486" id="SVGID_5_">
								<g filter="url(#Adobe_OpacityMaskFilter_5_)">
								</g>
							</mask>
							<linearGradient id="SVGID_6_" gradientUnits="userSpaceOnUse" x1="299.793" y1="280.3818" x2="489.7395" y2="280.3818">
								<stop  offset="0" style="stop-color:#FFFFFF"/>
								<stop  offset="0.0758" style="stop-color:#F9F9F9"/>
								<stop  offset="0.2932" style="stop-color:#EDEDED"/>
								<stop  offset="0.5177" style="stop-color:#EAEAEA"/>
								<stop  offset="0.7248" style="stop-color:#EEEEEE"/>
								<stop  offset="0.9545" style="stop-color:#FBFBFB"/>
								<stop  offset="1" style="stop-color:#FFFFFF"/>
							</linearGradient>
							<path mask="url(#SVGID_5_)" fill="url(#SVGID_6_)" d="M395.513,219.721c-56.157,0-102.071-5.783-105.547-13.082
								c2.584,9.748,25.999,98.156,29.929,113.203c4.155,15.93-0.72,34.283,75.618,34.283l2.131-0.006
								c74.115-0.338,69.366-18.5,73.491-34.277c3.93-15.047,27.338-103.455,29.923-113.203
								C497.584,213.938,451.672,219.721,395.513,219.721z"/>
						</g>
					</mask>
					<g>
						<path fill="#FBFBFB" d="M292.618,122.851c6.887,48.643,23.971,184.333,27.277,196.991c4.155,15.93-0.72,34.283,75.618,34.283
							l2.131-0.006c74.115-0.338,69.366-18.5,73.491-34.277c3.307-12.658,20.385-148.349,27.271-196.991H292.618z"/>
						<path fill="#C0DCE1" d="M395.514,354.887L395.514,354.887c-69.269,0-72.331-15.264-75.292-30.025
							c-0.32-1.596-0.649-3.242-1.062-4.826c-2.178-8.334-10.318-69.893-17.5-124.205c-3.814-28.841-7.417-56.079-9.795-72.874
							c-0.031-0.219,0.036-0.439,0.179-0.608c0.146-0.164,0.355-0.262,0.575-0.262h205.788c0.22,0,0.429,0.098,0.575,0.262
							c0.144,0.169,0.21,0.389,0.179,0.608c-2.381,16.818-5.989,44.104-9.81,72.995c-7.171,54.257-15.304,115.757-17.478,124.083
							c-0.414,1.586-0.747,3.236-1.065,4.832c-2.938,14.604-5.975,29.707-73.159,30.014L395.514,354.887z M293.493,123.612
							c2.381,16.861,5.927,43.667,9.674,72.02c7.177,54.267,15.312,115.778,17.463,124.019c0.426,1.629,0.76,3.297,1.085,4.912
							c2.84,14.162,5.777,28.803,73.797,28.803l2.13-0.006c65.942-0.301,68.854-14.785,71.67-28.793
							c0.325-1.615,0.661-3.287,1.088-4.916c2.149-8.234,10.272-69.684,17.441-123.898c3.754-28.402,7.305-55.255,9.688-72.141
							H293.493z"/>
					</g>
					<defs>
						<filter id="Adobe_OpacityMaskFilter_6_" filterUnits="userSpaceOnUse" x="285.155" y="117.681" width="1.767" height="2.449">
							<feFlood  style="flood-color:white;flood-opacity:1" result="back"/>
							<feBlend  in="SourceGraphic" in2="back" mode="normal"/>
						</filter>
					</defs>
					<mask maskUnits="userSpaceOnUse" x="285.155" y="117.681" width="1.767" height="2.449" id="SVGID_7_">
						<g filter="url(#Adobe_OpacityMaskFilter_6_)">
							<defs>
								
									<filter id="Adobe_OpacityMaskFilter_7_" filterUnits="userSpaceOnUse" x="285.916" y="118.442" width="0.246" height="0.926">
									<feFlood  style="flood-color:white;flood-opacity:1" result="back"/>
									<feBlend  in="SourceGraphic" in2="back" mode="normal"/>
								</filter>
							</defs>
							<mask maskUnits="userSpaceOnUse" x="285.916" y="118.442" width="0.246" height="0.926" id="SVGID_7_">
								<g filter="url(#Adobe_OpacityMaskFilter_7_)">
								</g>
							</mask>
							<linearGradient id="SVGID_8_" gradientUnits="userSpaceOnUse" x1="285.9155" y1="118.9053" x2="286.1611" y2="118.9053">
								<stop  offset="0" style="stop-color:#FFFFFF"/>
								<stop  offset="0.0232" style="stop-color:#FAFAFA"/>
								<stop  offset="0.1034" style="stop-color:#EEEEEE"/>
								<stop  offset="0.2161" style="stop-color:#E7E7E7"/>
								<stop  offset="0.5293" style="stop-color:#E6E6E6"/>
								<stop  offset="0.8079" style="stop-color:#E7E7E7"/>
								<stop  offset="0.9081" style="stop-color:#EEEEEE"/>
								<stop  offset="0.9794" style="stop-color:#FAFAFA"/>
								<stop  offset="1" style="stop-color:#FFFFFF"/>
							</linearGradient>
							<path mask="url(#SVGID_7_)" fill="url(#SVGID_8_)" d="M286.161,119.369c-0.146-0.597-0.246-0.926-0.246-0.926
								C285.916,118.756,286.015,119.062,286.161,119.369z"/>
						</g>
					</mask>
					<g>
						<path fill="#FBFBFB" d="M286.161,119.369c-0.146-0.597-0.246-0.926-0.246-0.926
							C285.916,118.756,286.015,119.062,286.161,119.369z"/>
						<path fill="#CEEBF0" d="M286.161,120.13c-0.286,0-0.557-0.165-0.686-0.436c-0.219-0.458-0.32-0.855-0.32-1.251
							c0-0.378,0.277-0.697,0.65-0.753c0.391-0.057,0.733,0.176,0.841,0.536c0,0,0.101,0.342,0.253,0.96
							c0.094,0.379-0.114,0.769-0.482,0.9C286.333,120.113,286.245,120.13,286.161,120.13z"/>
					</g>
					<defs>
						<filter id="Adobe_OpacityMaskFilter_8_" filterUnits="userSpaceOnUse" x="504.099" y="117.68" width="1.766" height="2.45">
							<feFlood  style="flood-color:white;flood-opacity:1" result="back"/>
							<feBlend  in="SourceGraphic" in2="back" mode="normal"/>
						</filter>
					</defs>
					<mask maskUnits="userSpaceOnUse" x="504.099" y="117.68" width="1.766" height="2.45" id="SVGID_9_">
						<g filter="url(#Adobe_OpacityMaskFilter_8_)">
							<defs>
								
									<filter id="Adobe_OpacityMaskFilter_9_" filterUnits="userSpaceOnUse" x="504.86" y="118.442" width="0.242" height="0.926">
									<feFlood  style="flood-color:white;flood-opacity:1" result="back"/>
									<feBlend  in="SourceGraphic" in2="back" mode="normal"/>
								</filter>
							</defs>
							<mask maskUnits="userSpaceOnUse" x="504.86" y="118.442" width="0.242" height="0.926" id="SVGID_9_">
								<g filter="url(#Adobe_OpacityMaskFilter_9_)">
								</g>
							</mask>
							<linearGradient id="SVGID_10_" gradientUnits="userSpaceOnUse" x1="504.8604" y1="118.9053" x2="505.1025" y2="118.9053">
								<stop  offset="0" style="stop-color:#FFFFFF"/>
								<stop  offset="0.0232" style="stop-color:#FAFAFA"/>
								<stop  offset="0.1034" style="stop-color:#EEEEEE"/>
								<stop  offset="0.2161" style="stop-color:#E7E7E7"/>
								<stop  offset="0.5293" style="stop-color:#E6E6E6"/>
								<stop  offset="0.8079" style="stop-color:#E7E7E7"/>
								<stop  offset="0.9081" style="stop-color:#EEEEEE"/>
								<stop  offset="0.9794" style="stop-color:#FAFAFA"/>
								<stop  offset="1" style="stop-color:#FFFFFF"/>
							</linearGradient>
							<path mask="url(#SVGID_9_)" fill="url(#SVGID_10_)" d="M505.103,118.442c0,0-0.086,0.33-0.242,0.926
								C505.009,119.062,505.103,118.756,505.103,118.442z"/>
						</g>
					</mask>
					<g>
						<path fill="#FBFBFB" d="M505.103,118.442c0,0-0.086,0.33-0.242,0.926C505.009,119.062,505.103,118.756,505.103,118.442z"/>
						<path fill="#CEEBF0" d="M504.86,120.13c-0.088,0-0.177-0.017-0.265-0.048c-0.368-0.136-0.571-0.527-0.472-0.906l0.243-0.925
							c0.095-0.371,0.434-0.619,0.832-0.562c0.381,0.048,0.665,0.371,0.665,0.754c0,0.405-0.104,0.815-0.318,1.259
							C505.414,119.97,505.146,120.13,504.86,120.13z"/>
					</g>
				</g>
				<defs>
					
						<filter id="Adobe_OpacityMaskFilter_10_" filterUnits="userSpaceOnUse" x="285.155" y="103.207" width="220.709" height="30.475">
						<feFlood  style="flood-color:white;flood-opacity:1" result="back"/>
						<feBlend  in="SourceGraphic" in2="back" mode="normal"/>
					</filter>
				</defs>
				<mask maskUnits="userSpaceOnUse" x="285.155" y="103.207" width="220.709" height="30.475" id="SVGID_11_">
					<g filter="url(#Adobe_OpacityMaskFilter_10_)">
						<defs>
							
								<filter id="Adobe_OpacityMaskFilter_11_" filterUnits="userSpaceOnUse" x="285.916" y="103.968" width="219.187" height="28.953">
								<feFlood  style="flood-color:white;flood-opacity:1" result="back"/>
								<feBlend  in="SourceGraphic" in2="back" mode="normal"/>
							</filter>
						</defs>
						<mask maskUnits="userSpaceOnUse" x="285.916" y="103.968" width="219.187" height="28.953" id="SVGID_11_">
							<g filter="url(#Adobe_OpacityMaskFilter_11_)">
							</g>
						</mask>
						<linearGradient id="SVGID_12_" gradientUnits="userSpaceOnUse" x1="306.147" y1="118.4443" x2="488.5331" y2="118.4443">
							<stop  offset="0" style="stop-color:#FFFFFF"/>
							<stop  offset="0.0232" style="stop-color:#FAFAFA"/>
							<stop  offset="0.1034" style="stop-color:#EEEEEE"/>
							<stop  offset="0.2161" style="stop-color:#E7E7E7"/>
							<stop  offset="0.5293" style="stop-color:#E6E6E6"/>
							<stop  offset="0.8079" style="stop-color:#E7E7E7"/>
							<stop  offset="0.9081" style="stop-color:#EEEEEE"/>
							<stop  offset="0.9794" style="stop-color:#FAFAFA"/>
							<stop  offset="1" style="stop-color:#FFFFFF"/>
						</linearGradient>
						<path mask="url(#SVGID_11_)" fill="url(#SVGID_12_)" d="M505.103,118.442c0,7.997-49.062,14.479-109.59,14.479
							s-109.597-6.482-109.597-14.479s49.07-14.475,109.597-14.475S505.103,110.446,505.103,118.442z"/>
					</g>
				</mask>
				<g>
					<path fill="#FBFBFB" d="M505.103,118.442c0,7.997-49.062,14.479-109.59,14.479s-109.597-6.482-109.597-14.479
						s49.07-14.475,109.597-14.475S505.103,110.446,505.103,118.442z"/>
					<path fill="#C0DCE1" d="M395.513,133.681c-29.308,0-56.865-1.506-77.596-4.246c-21.739-2.873-32.762-6.57-32.762-10.993
						c0-4.421,11.022-8.12,32.762-10.99c20.731-2.739,48.288-4.246,77.596-4.246c29.31,0,56.865,1.507,77.593,4.246
						c21.736,2.87,32.759,6.569,32.759,10.99c0,4.422-11.022,8.12-32.759,10.993C452.376,132.175,424.821,133.681,395.513,133.681z
						 M395.513,104.728c-29.243,0-56.731,1.504-77.397,4.232c-23.18,3.062-31.439,6.905-31.439,9.482s8.259,6.422,31.439,9.482
						c20.667,2.732,48.154,4.235,77.397,4.235s56.729-1.503,77.393-4.235c23.179-3.06,31.437-6.905,31.437-9.482
						s-8.258-6.421-31.437-9.482C452.243,106.232,424.757,104.728,395.513,104.728z"/>
				</g>
				<defs>
					
						<filter id="Adobe_OpacityMaskFilter_12_" filterUnits="userSpaceOnUse" x="290.333" y="105.847" width="210.35" height="24.28">
						<feFlood  style="flood-color:white;flood-opacity:1" result="back"/>
						<feBlend  in="SourceGraphic" in2="back" mode="normal"/>
					</filter>
				</defs>
				<mask maskUnits="userSpaceOnUse" x="290.333" y="105.847" width="210.35" height="24.28" id="SVGID_13_">
					<g filter="url(#Adobe_OpacityMaskFilter_12_)">
						<defs>
							
								<filter id="Adobe_OpacityMaskFilter_13_" filterUnits="userSpaceOnUse" x="291.096" y="106.607" width="208.826" height="22.756">
								<feFlood  style="flood-color:white;flood-opacity:1" result="back"/>
								<feBlend  in="SourceGraphic" in2="back" mode="normal"/>
							</filter>
						</defs>
						<mask maskUnits="userSpaceOnUse" x="291.096" y="106.607" width="208.826" height="22.756" id="SVGID_13_">
							<g filter="url(#Adobe_OpacityMaskFilter_13_)">
							</g>
						</mask>
						<linearGradient id="SVGID_14_" gradientUnits="userSpaceOnUse" x1="310.3716" y1="117.9854" x2="484.136" y2="117.9854">
							<stop  offset="0" style="stop-color:#FFFFFF"/>
							<stop  offset="0.0232" style="stop-color:#FAFAFA"/>
							<stop  offset="0.1034" style="stop-color:#EEEEEE"/>
							<stop  offset="0.2161" style="stop-color:#E7E7E7"/>
							<stop  offset="0.5293" style="stop-color:#E6E6E6"/>
							<stop  offset="0.8079" style="stop-color:#E7E7E7"/>
							<stop  offset="0.9081" style="stop-color:#EEEEEE"/>
							<stop  offset="0.9794" style="stop-color:#FAFAFA"/>
							<stop  offset="1" style="stop-color:#FFFFFF"/>
						</linearGradient>
						<path mask="url(#SVGID_13_)" fill="url(#SVGID_14_)" d="M499.922,117.983c0,6.285-46.743,11.38-104.409,11.38
							c-57.669,0-104.417-5.096-104.417-11.38c0-6.283,46.748-11.376,104.417-11.376C453.179,106.607,499.922,111.7,499.922,117.983
							z"/>
					</g>
				</mask>
				<g>
					<path fill="#FBFBFB" d="M499.922,117.983c0,6.285-46.743,11.38-104.409,11.38c-57.669,0-104.417-5.096-104.417-11.38
						c0-6.283,46.748-11.376,104.417-11.376C453.179,106.607,499.922,111.7,499.922,117.983z"/>
					<path fill="#C0DCE1" d="M395.513,130.127c-50.988,0-105.179-4.258-105.179-12.144c0-7.883,54.191-12.136,105.179-12.136
						c50.983,0,105.171,4.253,105.171,12.136C500.684,125.869,446.496,130.127,395.513,130.127z M395.513,107.372
						c-66.744,0-103.656,6.275-103.656,10.612c0,4.34,36.913,10.619,103.656,10.619c66.738,0,103.648-6.279,103.648-10.619
						C499.161,113.646,462.251,107.372,395.513,107.372z"/>
				</g>
				<defs>
					
						<filter id="Adobe_OpacityMaskFilter_14_" filterUnits="userSpaceOnUse" x="291.096" y="111.433" width="20.072" height="13.26">
						<feFlood  style="flood-color:white;flood-opacity:1" result="back"/>
						<feBlend  in="SourceGraphic" in2="back" mode="normal"/>
					</filter>
				</defs>
				<mask maskUnits="userSpaceOnUse" x="291.096" y="111.433" width="20.072" height="13.26" id="SVGID_15_">
					<g filter="url(#Adobe_OpacityMaskFilter_14_)">
						<defs>
							
								<filter id="Adobe_OpacityMaskFilter_15_" filterUnits="userSpaceOnUse" x="291.096" y="106.607" width="208.826" height="22.756">
								<feFlood  style="flood-color:white;flood-opacity:1" result="back"/>
								<feBlend  in="SourceGraphic" in2="back" mode="normal"/>
							</filter>
						</defs>
						<mask maskUnits="userSpaceOnUse" x="291.096" y="106.607" width="208.826" height="22.756" id="SVGID_15_">
							<g filter="url(#Adobe_OpacityMaskFilter_15_)">
							</g>
						</mask>
						<linearGradient id="SVGID_16_" gradientUnits="userSpaceOnUse" x1="310.3716" y1="117.9854" x2="484.136" y2="117.9854">
							<stop  offset="0" style="stop-color:#FFFFFF"/>
							<stop  offset="0.0232" style="stop-color:#FAFAFA"/>
							<stop  offset="0.1034" style="stop-color:#EEEEEE"/>
							<stop  offset="0.2161" style="stop-color:#E7E7E7"/>
							<stop  offset="0.5293" style="stop-color:#E6E6E6"/>
							<stop  offset="0.8079" style="stop-color:#E7E7E7"/>
							<stop  offset="0.9081" style="stop-color:#EEEEEE"/>
							<stop  offset="0.9794" style="stop-color:#FAFAFA"/>
							<stop  offset="1" style="stop-color:#FFFFFF"/>
						</linearGradient>
						<path mask="url(#SVGID_15_)" fill="url(#SVGID_16_)" d="M499.922,117.983c0,6.285-46.743,11.38-104.409,11.38
							c-57.669,0-104.417-5.096-104.417-11.38c0-6.283,46.748-11.376,104.417-11.376C453.179,106.607,499.922,111.7,499.922,117.983
							z"/>
					</g>
				</mask>
				<path opacity="0.2" fill="#B0CFDE" d="M310.164,111.433c-11.999,1.853-19.067,4.113-19.067,6.55
					c0,2.509,7.459,4.825,20.072,6.709C310.754,120.296,310.469,115.864,310.164,111.433z"/>
				<defs>
					
						<filter id="Adobe_OpacityMaskFilter_16_" filterUnits="userSpaceOnUse" x="461.82" y="109.315" width="38.102" height="17.459">
						<feFlood  style="flood-color:white;flood-opacity:1" result="back"/>
						<feBlend  in="SourceGraphic" in2="back" mode="normal"/>
					</filter>
				</defs>
				<mask maskUnits="userSpaceOnUse" x="461.82" y="109.315" width="38.102" height="17.459" id="SVGID_17_">
					<g filter="url(#Adobe_OpacityMaskFilter_16_)">
						<defs>
							
								<filter id="Adobe_OpacityMaskFilter_17_" filterUnits="userSpaceOnUse" x="291.096" y="106.607" width="208.826" height="22.756">
								<feFlood  style="flood-color:white;flood-opacity:1" result="back"/>
								<feBlend  in="SourceGraphic" in2="back" mode="normal"/>
							</filter>
						</defs>
						<mask maskUnits="userSpaceOnUse" x="291.096" y="106.607" width="208.826" height="22.756" id="SVGID_17_">
							<g filter="url(#Adobe_OpacityMaskFilter_17_)">
							</g>
						</mask>
						<linearGradient id="SVGID_18_" gradientUnits="userSpaceOnUse" x1="310.3716" y1="117.9854" x2="484.136" y2="117.9854">
							<stop  offset="0" style="stop-color:#FFFFFF"/>
							<stop  offset="0.0232" style="stop-color:#FAFAFA"/>
							<stop  offset="0.1034" style="stop-color:#EEEEEE"/>
							<stop  offset="0.2161" style="stop-color:#E7E7E7"/>
							<stop  offset="0.5293" style="stop-color:#E6E6E6"/>
							<stop  offset="0.8079" style="stop-color:#E7E7E7"/>
							<stop  offset="0.9081" style="stop-color:#EEEEEE"/>
							<stop  offset="0.9794" style="stop-color:#FAFAFA"/>
							<stop  offset="1" style="stop-color:#FFFFFF"/>
						</linearGradient>
						<path mask="url(#SVGID_17_)" fill="url(#SVGID_18_)" d="M499.922,117.983c0,6.285-46.743,11.38-104.409,11.38
							c-57.669,0-104.417-5.096-104.417-11.38c0-6.283,46.748-11.376,104.417-11.376C453.179,106.607,499.922,111.7,499.922,117.983
							z"/>
					</g>
				</mask>
				<path opacity="0.2" fill="#B0CFDE" d="M463.089,109.315c-0.395,5.82-0.819,11.642-1.269,17.459
					c23.267-2.085,38.102-5.248,38.102-8.791C499.922,114.512,485.614,111.4,463.089,109.315z"/>
			</g>
			<path opacity="0.2" fill="#B0CFDE" d="M395.513,132.921c-58.182,0-105.749-5.99-109.352-13.552
				c2.676,10.099,26.938,205.95,31.007,221.545c4.306,16.5-0.746,35.518,78.344,35.518l2.208-0.01
				c76.787-0.35,71.867-19.164,76.142-35.508c4.07-15.596,28.32-211.446,30.998-221.545
				C501.263,126.931,453.694,132.921,395.513,132.921z M461.617,165.107c0,0-15.228,174.738-17.512,183.115
				c-2.284,8.375-6.853,10.807-6.853,10.807c-17.512,13.473-79.946,5.943-94.032,2.896c-14.085-3.049-19.035-31.596-19.035-31.596
				s-22.08-170.172-22.842-182.734c-0.761-12.562,6.092-11.041,6.092-11.041c48.348,12.562,140.475,1.903,140.475,1.903
				C462.76,136.174,461.617,165.107,461.617,165.107z"/>
			<ellipse opacity="0.2" fill="#B0CFDE" cx="395.757" cy="339.33" rx="63.704" ry="12.629"/>
			<g>
				<path fill="none" d="M343.221,361.926c14.086,3.047,76.521,10.576,94.032-2.896c0,0,4.568-2.432,6.853-10.807
					c2.284-8.377,17.512-183.115,17.512-183.115s1.143-28.933-13.706-26.649c0,0-92.127,10.659-140.475-1.903
					c0,0-6.853-1.521-6.092,11.041c0.762,12.562,22.842,182.734,22.842,182.734S329.135,358.877,343.221,361.926z"/>
				<path opacity="0.2" fill="#B0CFDE" d="M481.342,127.439l-27.973,226.686c0,0-1.521,13.363-24.873,16.264
					c-18.236,2.266-89.955,4.703-109.44-20.787l-0.007-0.008c3.196,13.832,11.061,26.838,76.463,26.838l2.208-0.01
					c76.787-0.35,71.867-19.164,76.142-35.508c4.07-15.596,28.32-211.446,30.998-221.545
					C503.414,122.41,494.842,125.193,481.342,127.439z"/>
			</g>
			<path opacity="0.2" fill="#B0CFDE" d="M326.47,293.146l5.583,30.568c0,0,1.017,5.523,7.107,4.229
				c6.091-1.293,51.268-8.688,87.307-4.229c0,0-31.979-10.26-75.124-4.168c0,0-12.692,2.537-12.692-1.525
				c0-4.057-27.484-119.794-27.484-119.794L326.47,293.146z"/>
		</g>
	</g>
</g>
</svg>
