<?xml version="1.0" encoding="utf-8"?>
<!-- Generator: Adobe Illustrator 16.0.0, SVG Export Plug-In . SVG Version: 6.00 Build 0)  -->
<!DOCTYPE svg PUBLIC "-//W3C//DTD SVG 1.1//EN" "http://www.w3.org/Graphics/SVG/1.1/DTD/svg11.dtd">
<svg version="1.1" id="Layer_1" xmlns="http://www.w3.org/2000/svg" xmlns:xlink="http://www.w3.org/1999/xlink" x="0px" y="0px"
	 width="768px" height="430px" viewBox="0 0 768 430" enable-background="new 0 0 768 430" xml:space="preserve">
<g>
	<g>
		<path fill="#388BAF" d="M456.002,40.549c-28.942,2.662-48.159,21.913-53.698,26.969c0,0,26.729,11.197,45.27,42.139
			c4.215-1.324,5.058-9.15,6.743-12.341c1.686-3.191-0.241-6.14-0.241-6.622c0-0.481,3.854,0.241,4.094-0.301
			c0.964-1.564,5.479-6.501,7.465-7.585c1.986-1.083,1.444-3.852,0.36-4.936c4.576,2.167,7.345-0.161,8.309-1.927
			c10.755-10.756,30.982-3.853,30.821-5.619C500.629,61.338,483.935,37.98,456.002,40.549z"/>
		<path fill="#529CC6" d="M456.002,40.549c-28.942,2.662-48.159,21.913-53.698,26.969c0,0,12.406-6.064,30.523,23.417
			c5.784,1.053,16.993,2.428,16.757-3.4c-1.391-3.195-3.538-6.367-3.375-6.614c0.352-0.531,9.312,5.438,9.552,4.896
			c1.566-1.204,4.733-5.319,6.661-6.983c1.714-1.478-1.725-8.066-2.809-9.15c4.575,2.168,10.757,0.883,11.72-0.882
			c10.756-10.755,33.952,3.291,33.791,1.525C500.629,61.338,483.935,37.98,456.002,40.549z"/>
		<path fill="#96CFE2" d="M456.002,40.549c-28.942,2.662-48.159,21.913-53.698,26.969c0,0,2.466-1.205,6.801,0.07
			c10.417-14.518,28.887-22.281,48.223-23.957c18.9-1.638,31.423,10.161,42.499,20.755c1.072,1.339,2.44,2.232,3.776,3.175
			C497.514,57.321,481.406,38.213,456.002,40.549z"/>
		<path fill="#1C4658" d="M460.237,40.112c-1.403,0-2.836,0.066-4.258,0.197c-27.423,2.521-45.855,19.628-52.795,26.068
			c-0.389,0.361-0.737,0.684-1.043,0.963l-0.277,0.254l0.348,0.146c0.267,0.112,26.87,11.527,45.156,42.041l0.097,0.163l0.182-0.057
			c3.078-0.967,4.424-5.258,5.506-8.706c0.454-1.451,0.885-2.821,1.377-3.752c1.396-2.641,0.428-5.074-0.038-6.244
			c-0.056-0.141-0.118-0.294-0.151-0.396c0.077-0.014,0.221-0.029,0.482-0.029c0.312,0,0.698,0.021,1.092,0.042
			c0.422,0.022,0.858,0.047,1.237,0.047c0.777,0,1.123-0.101,1.223-0.329c0.935-1.519,5.438-6.443,7.375-7.5
			c0.796-0.435,1.288-1.156,1.422-2.085c0.119-0.819-0.072-1.76-0.472-2.5c0.971,0.368,1.907,0.553,2.795,0.553
			c2.506,0,4.223-1.49,5.003-2.895c4.064-4.05,10.136-6.102,18.045-6.102c3.34,0,6.409,0.353,8.649,0.61
			c1.337,0.153,2.393,0.275,3.083,0.275c0.533,0,0.826-0.072,0.98-0.241c0.082-0.09,0.12-0.205,0.108-0.329l-0.023-0.085
			C499.748,59.037,483.959,40.112,460.237,40.112z M504.274,70.394c-0.662,0-1.707-0.12-3.028-0.271
			c-2.251-0.26-5.335-0.614-8.704-0.614c-8.058,0-14.251,2.109-18.41,6.268l-0.04,0.055c-0.707,1.293-2.285,2.675-4.598,2.675
			c-1.061,0-2.203-0.286-3.396-0.851l-1.257-0.595l0.982,0.983c0.555,0.555,1.032,1.703,0.87,2.824
			c-0.077,0.539-0.345,1.278-1.176,1.73c-2.035,1.11-6.574,6.078-7.552,7.673c-0.02,0.016-0.151,0.096-0.815,0.096
			c-0.365,0-0.796-0.022-1.212-0.045c-0.403-0.022-0.796-0.043-1.117-0.043c-0.37,0-0.987,0-0.987,0.417
			c0,0.144,0.077,0.341,0.208,0.669c0.438,1.102,1.352,3.396,0.061,5.84c-0.513,0.97-0.948,2.361-1.41,3.833
			c-1.08,3.44-2.301,7.331-5.013,8.33c-17.237-28.651-41.77-40.48-44.943-41.92c0.238-0.218,0.495-0.457,0.775-0.716
			c6.907-6.41,25.252-23.435,52.512-25.941c1.407-0.13,2.823-0.196,4.213-0.196c23.412,0,39.033,18.642,44.619,29.739
			C504.791,70.357,504.634,70.394,504.274,70.394z"/>
	</g>
	<g>
		<g>
			<path fill="#151A1C" d="M478.203,44.206c4.447,6.362,9.309,16.086,8.674,25.928c9.248-1.351,18.355,1.38,18.247,0.193
				C501.986,64.052,492.901,50.778,478.203,44.206z"/>
			<path fill="#242A2D" d="M478.203,44.206c3.688,5.275,7.655,12.862,8.545,20.91c6.518,0.656,12.718,1.559,17.984,4.454
				C501.277,63.038,492.338,50.525,478.203,44.206z"/>
			<path fill="#3A4144" d="M478.203,44.206c1.024,1.466,2.067,3.114,3.063,4.897c6.825,4.049,16.333,12.274,22.335,18.458
				C499.533,60.72,490.996,49.926,478.203,44.206z"/>
			<path fill="#040607" d="M478.3,43.986l-0.793-0.354l0.497,0.712c3.521,5.034,9.321,15.077,8.634,25.774l-0.02,0.297l0.294-0.043
				c1.738-0.254,3.633-0.382,5.631-0.382c3.341,0,6.409,0.353,8.648,0.61c1.337,0.153,2.393,0.275,3.083,0.275l0,0
				c0.534,0,0.826-0.072,0.98-0.241c0.082-0.09,0.12-0.204,0.108-0.329l-0.023-0.085C504.408,68.355,495.727,51.777,478.3,43.986z
				 M504.274,70.394L504.274,70.394c-0.662,0-1.707-0.12-3.027-0.271c-2.252-0.259-5.336-0.614-8.704-0.614
				c-1.91,0-3.729,0.117-5.408,0.347c0.549-10.243-4.697-19.832-8.24-25.066c16.466,7.73,24.822,23.293,25.962,25.543
				C504.791,70.357,504.634,70.394,504.274,70.394z"/>
		</g>
	</g>
	<g>
		<path fill="#1C4658" d="M444.203,49.163c-10.867,2.564-28.173,12.014-30.425,24.917l0.446,0.182
			c5.63-13.843,19.165-20.811,29.818-23.759c11.568-3.203,22.28-2.57,22.39-2.569C466.433,47.933,459.794,45.485,444.203,49.163z"/>
	</g>
	<g>
		<path fill="#BAC7E2" d="M303.738,209.026c0.743,3.09,20.006-3.111,30.36-3.591c6.517-0.303,20.708,1.144,25.264,4.279
			c-4.415-12.005-16.053-41.302-16.053-41.302C329.985,171.301,301.089,199.474,303.738,209.026z"/>
		<path fill="#E4E9F7" d="M303.738,209.026c0.743,1.706,20.229-7.064,30.542-8.107c11.678-1.181,19.765,0.718,24.32,3.853
			c-4.415-12.003-15.291-36.36-15.291-36.36C329.985,171.301,301.089,199.474,303.738,209.026z"/>
		<path fill="#FFFFFF" d="M344.188,170.484c-0.556-1.315-0.879-2.073-0.879-2.073c-13.324,2.89-42.22,31.063-39.571,40.615
			c0.058,0.133,0.23,0.196,0.501,0.198C311.11,191.213,328.448,176.605,344.188,170.484z"/>
		<path fill="#5D6471" d="M343.533,168.322l-0.076-0.189l-0.199,0.042c-10.649,2.31-29.852,19.677-36.963,31.451
			c-2.462,4.075-3.399,7.259-2.791,9.455c0.225,0.935,1.614,1.043,2.64,1.043c2.739,0,7.481-0.962,12.501-1.98
			c5.503-1.118,11.194-2.273,15.465-2.472c0.558-0.025,1.18-0.038,1.846-0.038c7.151,0,19.216,1.486,23.27,4.275l0.624,0.428
			l-0.261-0.71C355.224,197.76,343.649,168.615,343.533,168.322z M335.956,205.153c-0.674,0-1.302,0.014-1.868,0.041
			c-4.308,0.199-10.017,1.358-15.538,2.479c-4.996,1.014-9.714,1.972-12.405,1.972c-1.315,0-2.066-0.234-2.174-0.684
			c-0.566-2.042,0.38-5.182,2.737-9.084c7.021-11.624,25.871-28.727,36.455-31.185c0.995,2.505,11.396,28.732,15.732,40.447
			C354.279,206.536,342.846,205.153,335.956,205.153z"/>
	</g>
	<g>
		<g>
			<path fill="#151A1C" d="M314.323,189.591c-6.914,7.593-11.737,15.278-10.585,19.435c0.436,1.813,7.254,0.426,14.903-1.125
				C311.92,204.007,312.508,196.024,314.323,189.591z"/>
			<path fill="#242A2D" d="M314.538,189.591c-6.914,7.593-11.471,14.458-10.97,17.98c0.436,1.813,4.314,1.024,12.26-1.986
				C312.397,201.611,312.723,196.024,314.538,189.591z"/>
			<path fill="#3D4244" d="M314.539,189.591c-6.914,7.593-11.472,14.458-10.971,17.98c0.109,0.451-0.436,0.316,0.109,0.451
				c0.936-3.961,6.253-10.369,10.038-15.03C313.932,191.889,314.21,190.754,314.539,189.591z"/>
			<path d="M314.555,189.656l0.277-0.981l-0.687,0.754c-7.839,8.608-11.716,15.775-10.641,19.653
				c0.225,0.935,1.614,1.043,2.64,1.043l0,0c2.741,0,7.484-0.962,12.545-1.989l0.622-0.126l-0.549-0.319
				C313.46,204.62,312.044,198.553,314.555,189.656z M306.145,209.646c-1.315,0-2.066-0.235-2.174-0.685
				c-0.986-3.558,2.689-10.423,9.859-18.462c-2.129,8.316-0.73,14.125,4.164,17.287
				C313.206,208.757,308.735,209.646,306.145,209.646z"/>
		</g>
	</g>
	<g>
		<path fill="#BAC7E2" d="M358.239,263.927c0.662,1.344,9.993-4.976,14.046-2.086c0.16-6.02-1.766-22.555-1.766-22.555
			C367.389,241.372,356.232,256.061,358.239,263.927z"/>
		<path fill="#E4E9F7" d="M358.097,263.226c0.122,0.892,8.397-8.309,14.718-5.358c0.161-6.021-2.295-18.581-2.295-18.581
			C367.389,241.372,356.09,255.36,358.097,263.226z"/>
		<path fill="#FFFFFF" d="M370.972,241.932c-0.266-1.615-0.452-2.646-0.452-2.646c-2.922,1.947-12.66,15.03-12.521,23.488
			C360.165,255.579,364.737,246.901,370.972,241.932z"/>
		<path fill="#5D6471" d="M370.713,238.956l-0.327,0.219c-3.241,2.159-14.423,16.894-12.38,24.9l0.017,0.046
			c0.073,0.149,0.245,0.325,0.649,0.325c0.663,0,1.832-0.456,3.312-1.035c2.291-0.894,5.142-2.006,7.516-2.006
			c1.084,0,1.974,0.241,2.645,0.72l0.368,0.263l0.013-0.452c0.159-5.969-1.748-22.423-1.768-22.589L370.713,238.956z
			 M372.052,261.499c-0.696-0.383-1.552-0.576-2.552-0.576c-2.465,0-5.363,1.131-7.691,2.04c-1.377,0.537-2.566,1.002-3.138,1.002
			c-0.103,0-0.181-0.016-0.209-0.044c-1.848-7.415,8.408-21.35,11.865-24.106C370.615,242.346,372.111,255.816,372.052,261.499z"/>
	</g>
	<g>
		<path fill="#529CC6" d="M317.785,63.424c0,0,32.588-4.013,41.096-4.655c0,0-14.368-11.077-20.95-11.077
			C330.466,48.013,322.119,57.806,317.785,63.424z"/>
		<path fill="#96CFE2" d="M343.011,49c-1.905-0.797-3.671-1.307-5.079-1.307c-7.465,0.321-15.812,10.113-20.146,15.732
			c0,0,0.33-0.32,2.794-0.619C324.965,56.188,334.992,48.527,343.011,49z"/>
		<path fill="#1C4658" d="M337.922,47.452c-5.573,0.239-12.411,5.564-20.327,15.825l-0.353,0.457l0.572-0.071
			c0.327-0.04,32.68-4.019,41.085-4.654l0.626-0.046l-0.498-0.384C358.438,58.124,344.52,47.452,337.922,47.452z M318.33,63.115
			c7.572-9.709,14.347-14.956,19.602-15.182c5.736,0,17.7,8.703,20.299,10.646C349.645,59.291,322.62,62.589,318.33,63.115z"/>
	</g>
	<g>
		<path fill="#388BAF" d="M396.766,55.559c-20.227-10.595-26.327-5.137-36.44-1.124c-10.917-0.964-47.838,7.865-59.878,12.2
			c-29.698,9.632-38.659,21.39-38.607,25.203c0.241,17.738,26.207,25.284,29.377,28.654c0.864,1.325,19.104,18.903,23.077,19.023
			c0.12,5.297,5.096,8.428,9.993,8.789c4.689,0.346,17.096-2.367,32.828-14.247c15.732-11.879,19.745-32.427,18.301-36.762
			c0,0,8.829-0.481,12.682,0.642c4.655,19.424-1.445,42.621-15.732,54.741c-19.264,15.411-36.842,10.996-39.49,3.21
			c-3.693,8.187,3.04,15.669,9.15,17.337c-1.766,5.78,16.535,44.146,20.548,48.48c0.642,6.261,6.743,22.154,7.385,44.949
			s-12.441,31.905-13.284,31.183c-2.89-5.778-14.689-22.514-25.404-31.784c-10.715-9.271-27.089-8.308-24.682-6.261
			c2.408,2.047,8.668,16.735,9.03,21.069c2.167,21.671,12.521,30.46,17.699,35.638c-12.04,6.382-19.304,29.537-20.027,33.229
			c-0.561-1.044-3.531-1.364-5.939-0.562c-2.408,0.802-1.123,26.527,1.285,26.006c38.527-11.719,57.068-63.73,58.273-64.693
			c17.096-3.37,61.964-48.32,81.549-91.984c19.584-43.665,11.88-84.439,1.775-110.972C440.127,80.993,416.992,66.153,396.766,55.559
			z"/>
		<path fill="#529CC6" d="M396.766,55.559c-20.227-10.595-26.327-5.137-36.44-1.124c-10.917-0.964-47.838,7.865-59.878,12.2
			c-29.698,9.632-38.659,21.39-38.607,25.203c0.241,17.738,26.207,25.284,29.377,28.654c0.864,1.325,19.104,18.903,23.077,19.023
			c0.12,5.297,5.096,8.428,9.993,8.789c4.689,0.346,17.096-2.367,32.828-14.247c15.732-11.879,19.745-32.427,18.301-36.762
			c0,0,8.829-0.481,12.682,0.642c4.655,19.424-1.445,42.621-15.732,54.741c-19.264,15.411-36.842,10.996-39.49,3.21
			c-3.693,8.187,3.04,15.669,9.15,17.337c-1.766,5.78,16.535,44.146,20.548,48.48c0.642,6.261,6.743,22.154,7.385,44.949
			s-12.441,31.905-13.284,31.183c-2.89-5.778-14.689-22.514-25.404-31.784c-10.715-9.271-27.365-7.932-24.682-6.261
			c3.6,2.242,13.605,6.06,14.408,16.654c1.646,21.719,11.654,32.709,16.831,37.885c-14.503,6.983-23.814,31.705-24.537,35.397
			c-0.561-1.044-3.531-1.364-5.939-0.562c-2.408,0.802,0.812,17.217,3.221,16.696c28.404-7.386,46.333-50.567,47.187-59.116
			c20.105-0.12,66.214-60.414,82.348-94.455c17.823-37.603,12.85-74.53,2.746-101.062C432.746,84.699,416.992,66.153,396.766,55.559
			z"/>
		<path fill="#96CFE2" d="M356.553,300.127c0.06-1.023,0.26-2.008-0.011-2.54c-3.09-5.995-14.705-22.391-25.273-31.532
			c-10.641-9.206-26.86-8.321-24.726-6.304C326.935,262.157,338.654,276.448,356.553,300.127z"/>
		<path fill="#96CFE2" d="M391.854,53.177c-15.649-6.95-21.736-2.824-30.301,0.756C371.559,52.638,380.071,50.983,391.854,53.177z"
			/>
		<path fill="#96CFE2" d="M285.519,74.982c19.986-9.511,48.48-15.897,72.945-20.619c-12.745-0.005-46.588,8.157-58.017,12.272
			c-29.698,9.632-38.659,21.39-38.607,25.203c0.028,2.1,0.421,4.055,1.09,5.878C261.599,89.31,275.642,79.683,285.519,74.982z"/>
		<path fill="#1C4658" d="M396.878,55.345c-8.052-4.217-14.362-6.182-19.86-6.182c-5.104,0-9.001,1.702-13.127,3.503
			c-1.157,0.505-2.352,1.027-3.601,1.524c-0.542-0.046-1.158-0.069-1.833-0.069c-12.869,0-46.851,8.242-58.083,12.285
			c-29.428,9.544-38.831,21.257-38.774,25.435c0.185,13.617,15.054,21.133,23.937,25.624c2.666,1.348,4.771,2.413,5.479,3.159
			c0.722,1.108,18.478,18.399,23.044,19.11c0.25,5.31,5.291,8.447,10.209,8.81c0.257,0.019,0.536,0.029,0.838,0.029
			c6.082,0,18.152-3.752,32.153-14.324c8.63-6.517,13.286-15.188,15.671-21.315c2.668-6.853,3.414-12.912,2.8-15.413
			c0.625-0.028,2.155-0.088,3.971-0.088c2.594,0,6.094,0.122,8.193,0.697c4.695,19.818-1.89,42.661-15.679,54.36
			c-8.268,6.614-17.243,10.257-25.271,10.257c-6.867,0-12.43-2.787-13.842-6.936l-0.196-0.578l-0.25,0.556
			c-1.457,3.231-1.432,6.627,0.072,9.82c1.717,3.642,5.234,6.675,9.007,7.785c-1.311,6.665,16.408,43.725,20.606,48.416
			c0.205,1.888,0.887,4.626,1.746,8.082c2.063,8.291,5.18,20.818,5.629,36.769c0.464,16.484-6.29,25.262-9.216,28.271
			c-1.928,1.984-3.3,2.678-3.651,2.722c-3.115-6.169-15.045-22.804-25.423-31.782c-6.555-5.672-15.44-7.683-21.058-7.683
			c-1.158,0-3.888,0.099-4.227,1.021c-0.067,0.181-0.071,0.461,0.289,0.767c2.319,1.973,8.589,16.626,8.946,20.911
			c2.034,20.336,11.207,29.338,16.688,34.717c0.295,0.29,0.58,0.57,0.852,0.84c-11.71,6.496-18.665,28.169-19.76,32.769
			c-0.659-0.534-1.892-0.734-2.957-0.734c-1.006,0-2.018,0.158-2.926,0.461c-2.051,0.684-1.61,15.335-0.532,21.964
			c0.659,4.051,1.354,4.521,1.82,4.521h0c0.041,0,0.082-0.005,0.142-0.019c14.256-4.337,27.449-14.649,39.212-30.65
			c9.424-12.819,15.309-25.795,17.822-31.337c0.625-1.377,1.125-2.479,1.293-2.717c8.606-1.749,23.879-13.592,39.894-30.938
			c17.694-19.166,32.912-41.461,41.751-61.167c19.718-43.96,11.852-84.711,1.78-111.156
			C440.384,80.989,417.72,66.262,396.878,55.345z M448.237,218.398c-19.866,44.29-64.77,88.571-81.376,91.847l-0.058,0.011
			l-0.046,0.036c-0.194,0.157-0.504,0.829-1.457,2.926c-15.524,34.23-34.613,54.998-56.716,61.722
			c-0.007,0.001-0.014,0.002-0.021,0.002c-0.028,0-0.682-0.046-1.344-4.116c-1.325-8.141-1.2-20.959,0.208-21.428
			c0.848-0.282,1.833-0.438,2.774-0.438c1.436,0,2.592,0.355,2.877,0.885l0.319,0.593l0.129-0.661
			c0.612-3.13,7.891-26.696,19.903-33.063l0.287-0.151l-0.23-0.231c-0.34-0.339-0.703-0.694-1.084-1.069
			c-5.433-5.333-14.529-14.259-16.545-34.417c-0.373-4.478-6.676-19.161-9.114-21.233c-0.042-0.035-0.176-0.158-0.148-0.234
			c0.1-0.273,1.213-0.705,3.774-0.705c5.535,0,14.288,1.981,20.743,7.565c10.376,8.978,22.307,25.633,25.346,31.711l0.059,0.074
			c0.076,0.065,0.175,0.098,0.296,0.098c0.627,0,2.214-0.979,4.034-2.851c2.968-3.052,9.821-11.953,9.352-28.618
			c-0.451-16.005-3.576-28.562-5.643-36.872c-0.868-3.486-1.553-6.239-1.743-8.095l-0.008-0.08l-0.055-0.06
			c-1.949-2.104-7.51-12.706-12.397-23.633c-5.811-12.989-8.837-22.19-8.097-24.613l0.074-0.238l-0.24-0.065
			c-3.729-1.017-7.231-3.997-8.924-7.589c-1.359-2.884-1.459-5.941-0.299-8.875c1.766,4.031,7.315,6.7,14.079,6.7
			c8.137,0,17.218-3.681,25.577-10.367c13.958-11.841,20.608-34.964,15.811-54.981l-0.033-0.136l-0.134-0.039
			c-2.137-0.623-5.783-0.754-8.464-0.754c-2.384,0-4.28,0.102-4.299,0.104l-0.315,0.017l0.1,0.299
			c1.459,4.379-2.821,24.866-18.217,36.493c-13.907,10.501-25.855,14.227-31.863,14.227c-0.289,0-0.556-0.009-0.803-0.028
			c-4.766-0.352-9.653-3.402-9.77-8.554l-0.005-0.228l-0.228-0.007c-3.91-0.119-22.166-17.815-22.908-18.948
			c-0.792-0.841-2.825-1.869-5.638-3.292c-8.787-4.442-23.493-11.876-23.673-25.201c-0.053-3.9,9.553-15.603,38.448-24.973
			c11.212-4.037,45.103-12.259,57.927-12.259c0.686,0,1.307,0.024,1.848,0.072l0.057,0.005l0.053-0.021
			c1.276-0.506,2.493-1.037,3.669-1.551c4.078-1.78,7.931-3.462,12.934-3.462c5.417,0,11.657,1.946,19.637,6.126
			c20.762,10.875,43.336,25.539,53.353,51.84C460.045,133.971,467.888,174.589,448.237,218.398z"/>
	</g>
	<g>
		<g>
			<path fill="#151A1C" d="M313.932,368.514c-4.412-4.242-1.622-12.954-0.667-18.818c-0.61-1.014-3.535-1.319-5.915-0.526
				c-2.408,0.802-1.123,26.527,1.285,26.006c10.769-3.275,19.975-9.701,27.68-17.277
				C328.38,362.471,314.976,369.516,313.932,368.514z"/>
			<path fill="#242A2D" d="M312.075,365.479c-1.63-4.598,0.417-11.028,1.19-15.783c-0.61-1.014-3.535-1.319-5.915-0.526
				c-1.278,0.426-1.515,7.87-1.097,14.687C307.739,365.344,309.859,366.024,312.075,365.479z"/>
			<path d="M314.288,368.368c-0.148,0-0.188-0.029-0.188-0.029c-3.579-3.44-2.254-10.099-1.189-15.449
				c0.223-1.116,0.432-2.17,0.593-3.155l0.014-0.088l-0.045-0.074c-0.406-0.675-1.661-1.093-3.275-1.093
				c-1.004,0-2.015,0.158-2.922,0.46c-2.087,0.697-1.638,15.15-0.534,21.95c0.66,4.063,1.356,4.534,1.822,4.534
				c0.042,0,0.083-0.005,0.142-0.019c9.752-2.966,19.098-8.799,27.778-17.337l1.344-1.321l-1.633,0.941
				C328.722,361.995,316.594,368.368,314.288,368.368z M308.583,374.939c-0.007,0.001-0.014,0.002-0.021,0.002
				c-0.027,0-0.684-0.047-1.346-4.129c-1.321-8.138-1.195-20.947,0.21-21.415c0.846-0.282,1.831-0.438,2.77-0.438
				c1.339,0,2.449,0.315,2.816,0.791c-0.158,0.95-0.36,1.969-0.574,3.046c-1.088,5.464-2.441,12.267,1.327,15.89
				c0.115,0.11,0.286,0.163,0.522,0.163c2.429,0,13.888-6.074,20.47-9.788C326.528,366.818,317.725,372.157,308.583,374.939z"/>
		</g>
	</g>
	<g>
		<g>
			<path fill="#151A1C" d="M306.588,259.794c2.408,2.047,8.668,16.735,9.03,21.069c0.198,1.981,0.467,3.856,0.792,5.63
				c-0.027-7.284-1.485-19.954-0.149-21.442c1.186-1.321,9.003-0.104,15.688,1.604c-0.227-0.202-0.453-0.405-0.679-0.6
				C320.555,256.783,304.18,257.747,306.588,259.794z"/>
			<path fill="#242A2D" d="M331.948,266.654c-0.227-0.202-0.453-0.405-0.679-0.6c-10.715-9.271-27.089-8.308-24.682-6.261
				c0.438,0.371,1.003,1.164,1.636,2.232c2.991,0.459,5.551,1.782,7.681,3.965c0.086-0.443,0.201-0.77,0.355-0.94
				C317.446,263.729,325.264,264.947,331.948,266.654z"/>
			<path fill="#3D4244" d="M331.27,266.055c-10.449-9.04-26.274-8.35-24.824-6.412c5.319-0.331,11.781,2.118,15.964,5.054
				c3.022,0.324,5.998,1.055,9.539,1.958C331.722,266.452,331.496,266.249,331.27,266.055z"/>
			<path d="M331.427,265.872c-6.555-5.672-15.44-7.683-21.058-7.683c-1.158,0-3.889,0.099-4.227,1.021
				c-0.066,0.181-0.07,0.461,0.29,0.767c2.319,1.973,8.589,16.626,8.946,20.911c0.192,1.917,0.459,3.817,0.795,5.649l0.478-0.045
				c-0.009-2.503-0.189-5.67-0.362-8.733c-0.31-5.457-0.66-11.644,0.151-12.547c0.161-0.179,0.687-0.479,2.408-0.479
				c2.837,0,7.835,0.825,13.042,2.153l0.958,0.244l-0.838-0.746C331.814,266.212,331.621,266.039,331.427,265.872z M318.847,264.252
				c-1.476,0-2.38,0.209-2.766,0.638c-0.881,0.982-0.691,5.527-0.273,12.896c0.092,1.636,0.187,3.302,0.256,4.878
				c-0.076-0.605-0.145-1.212-0.206-1.82c-0.373-4.478-6.676-19.161-9.114-21.233c-0.042-0.035-0.176-0.159-0.149-0.234
				c0.1-0.273,1.213-0.705,3.775-0.705c5.517,0,14.23,1.969,20.679,7.511C327.059,265.208,322.022,264.252,318.847,264.252z"/>
		</g>
	</g>
	<g>
		<g>
			<path fill="#BAC7E2" d="M404.472,104.521c1.124-13.324-5.618-24.882-16.694-25.043c-17.499,0.803-15.171,14.047-22.315,17.819
				c-27.129,11.397-63.329-8.588-80.486-10.395c-10.197-1.073-18.358,1.708-23.073,4.299c-0.044,0.231-0.066,0.445-0.063,0.637
				c0.241,17.738,26.207,25.284,29.377,28.654c0.864,1.325,19.104,18.903,23.077,19.023c0.12,5.297,5.096,8.428,9.993,8.789
				c4.689,0.346,17.096-2.367,32.828-14.247c15.732-11.879,19.745-32.427,18.301-36.762c0,0,8.829-0.481,12.682,0.642
				c4.655,19.424-1.445,42.621-15.732,54.741c-19.264,15.411-36.842,10.996-39.49,3.21c-3.693,8.187,3.04,15.669,9.15,17.337
				c-1.766,5.78,16.535,44.146,20.548,48.48c0.642,6.261,6.743,22.154,7.385,44.949c0.432,15.322-5.335,24.453-9.42,28.579
				c10.118,5.264,22.108-21.426,32.136-34.599c12.279-16.134,24.561-56.144,27.691-75.009c3.007-18.124-13.646-53.978-15.771-60.078
				C402.468,119.45,403.348,117.844,404.472,104.521z"/>
			<path fill="#E4E9F7" d="M404.593,125.55c-2.125-6.1-1.245-7.706-0.121-21.029c1.124-13.324-5.618-24.882-16.694-25.043
				c-17.499,0.803-15.171,14.047-22.315,17.819c-27.129,11.397-63.329-8.588-80.486-10.395c-10.197-1.073-18.358,1.708-23.073,4.299
				c-0.044,0.231-0.066,0.445-0.063,0.637c0.241,17.738,26.207,25.284,29.377,28.654c0.864,1.325,19.104,18.903,23.077,19.023
				c0.001,0.067,3.845-0.348,5.899-0.722c8.541-1.558,16.253-4.427,23.364-9.817c-7.05,7.709-17.043,11.783-28.952,12.658
				c0.74,4.331,5.068,6.33,9.682,6.669c4.689,0.346,17.096-2.367,32.828-14.247c15.732-11.879,19.745-32.427,18.301-36.762
				c0,0,8.829-0.481,12.682,0.642c4.655,19.424-1.445,42.621-15.732,54.741c-19.264,15.411-36.842,10.996-39.49,3.21
				c-0.668,1.481-0.691,0.752-0.742,2.158c1.785,18.973,21.141,13.841,30.167,11.327c28.387-7.908,29.649-42.515,30.682-53.336
				c2.219,22.526-1.514,42.099-21.259,56.227c-8.198,5.865-19.562,7.15-29.458,4.659c2.457,11.372,16.809,41.006,20.307,44.783
				c0.642,6.261,6.743,22.154,7.385,44.949c0.432,15.322-5.335,24.453-9.42,28.579c10.118,5.264,22.108-21.426,32.136-34.599
				c12.279-16.134,24.561-56.144,27.691-75.009C423.371,167.504,406.719,131.65,404.593,125.55z"/>
			<path fill="#5D6471" d="M404.82,125.47c-1.663-4.773-1.472-6.717-0.757-13.952c0.184-1.866,0.412-4.188,0.647-6.978
				c0.668-7.91-1.479-15.441-5.742-20.146c-3-3.312-6.869-5.095-11.204-5.157c-11.436,0.524-14.49,6.272-17.186,11.345
				c-1.421,2.674-2.763,5.2-5.209,6.492c-5.487,2.305-11.812,3.475-18.803,3.475c-14.292,0.001-29.54-4.83-41.79-8.711
				c-7.847-2.485-14.624-4.632-19.774-5.175c-1.5-0.158-3.017-0.238-4.509-0.238c-9.052,0-15.605,2.86-18.705,4.565l-0.099,0.054
				l-0.021,0.111c-0.048,0.247-0.071,0.478-0.068,0.686c0.185,13.617,15.054,21.133,23.938,25.624
				c2.665,1.348,4.771,2.413,5.479,3.159c0.722,1.108,18.478,18.399,23.044,19.11c0.25,5.31,5.291,8.447,10.209,8.81
				c0.257,0.019,0.536,0.029,0.838,0.029c6.082,0,18.152-3.752,32.153-14.324c8.63-6.517,13.286-15.188,15.671-21.315
				c2.668-6.853,3.414-12.912,2.8-15.413c0.625-0.028,2.156-0.088,3.971-0.088c2.594,0,6.094,0.122,8.193,0.697
				c4.695,19.818-1.89,42.661-15.679,54.36c-8.268,6.614-17.243,10.256-25.271,10.257c-6.867,0-12.43-2.787-13.842-6.936
				l-0.196-0.578l-0.25,0.556c-1.458,3.231-1.433,6.627,0.072,9.82c1.716,3.642,5.233,6.675,9.007,7.785
				c-1.311,6.665,16.407,43.725,20.605,48.416c0.205,1.888,0.887,4.626,1.746,8.082c2.063,8.29,5.18,20.818,5.629,36.769
				c0.469,16.639-6.383,25.406-9.351,28.404l-0.229,0.232l0.289,0.15c0.9,0.467,1.848,0.705,2.819,0.705c0,0,0,0,0,0
				c6.884,0,14.236-11.674,21.347-22.961c2.896-4.599,5.63-8.941,8.272-12.411c11.921-15.662,24.391-54.949,27.738-75.114
				c2.54-15.312-8.918-43.291-13.81-55.238C405.878,128.197,405.156,126.434,404.82,125.47z M420.126,185.589
				c-3.338,20.117-15.768,59.297-27.646,74.901c-2.654,3.488-5.396,7.839-8.296,12.445c-7.042,11.18-14.322,22.738-20.939,22.737
				c-0.789,0-1.562-0.171-2.303-0.508c3.122-3.252,9.718-12.113,9.256-28.515c-0.451-16.005-3.576-28.562-5.643-36.872
				c-0.868-3.486-1.553-6.239-1.743-8.095l-0.008-0.08l-0.055-0.06c-1.949-2.104-7.51-12.706-12.397-23.633
				c-5.811-12.989-8.837-22.19-8.097-24.613l0.074-0.238l-0.24-0.065c-3.729-1.017-7.231-3.997-8.924-7.589
				c-1.359-2.884-1.459-5.941-0.299-8.875c1.766,4.031,7.315,6.7,14.079,6.7c8.137,0,17.219-3.681,25.577-10.367
				c13.958-11.841,20.608-34.964,15.811-54.981l-0.033-0.136l-0.134-0.039c-2.137-0.623-5.783-0.754-8.464-0.754
				c-2.384,0-4.28,0.102-4.299,0.104l-0.315,0.017l0.1,0.299c1.459,4.379-2.821,24.866-18.217,36.493
				c-13.907,10.501-25.855,14.227-31.863,14.227c-0.289,0-0.556-0.009-0.803-0.028c-4.766-0.352-9.653-3.402-9.77-8.554
				l-0.005-0.228l-0.228-0.007c-3.91-0.118-22.166-17.815-22.908-18.947c-0.792-0.842-2.825-1.87-5.638-3.292
				c-8.787-4.442-23.493-11.876-23.673-25.201c-0.002-0.145,0.011-0.305,0.039-0.478c3.1-1.688,9.526-4.451,18.373-4.451
				c1.476,0,2.976,0.079,4.458,0.235c5.102,0.537,11.857,2.677,19.68,5.156c12.282,3.891,27.568,8.734,41.935,8.733
				c7.054,0,13.443-1.182,19.009-3.521c2.597-1.371,3.973-3.96,5.429-6.701c2.635-4.958,5.622-10.578,16.77-11.09
				c4.182,0.06,7.93,1.79,10.839,4.999c4.175,4.608,6.276,12.004,5.619,19.783c-0.235,2.787-0.464,5.107-0.648,6.971
				c-0.721,7.317-0.916,9.285,0.783,14.158c0.339,0.975,1.027,2.656,1.98,4.982C411.224,142.522,422.646,170.412,420.126,185.589z"
				/>
		</g>
	</g>
	<g>
		<path fill="#3282A5" d="M365.529,59.166c-5.955-1.631-16.457,22.077-24.665,17.119c-2.496,9.054,4.853,17.07,13.915,17.07
			c6.174,0,19.234-2.721,19.234-25.987C374.013,65.712,371.483,60.796,365.529,59.166z"/>
		<path d="M365.153,60.36c-5.816-1.572-12.507,4.229-14.946,12.955c-2.438,8.727,0.3,17.076,6.117,18.647
			c5.817,1.572,12.509-4.228,14.947-12.955C373.709,70.281,370.97,61.932,365.153,60.36z"/>
		
			<ellipse transform="matrix(0.265 -0.9643 0.9643 0.265 191.0845 403.6625)" fill="#E0E1E2" cx="360.319" cy="76.492" rx="16.049" ry="10.52"/>
		<path fill="#FFFFFF" d="M364.571,61.017c-5.603-1.54-11.625,4.27-14.397,12.688c-2.899,8.801,2.044,15.666,8.907,15.605
			c6.2-0.054,9.809-4.718,11.382-10.03C372.887,71.096,370.174,62.556,364.571,61.017z"/>
		<path d="M364.635,60.785c-0.628-0.172-1.281-0.26-1.942-0.26c-5.3,0-10.663,5.516-12.75,13.116
			c-1.149,4.178-1.16,8.403-0.033,11.897c1.139,3.529,3.302,5.895,6.093,6.662c0.629,0.173,1.282,0.261,1.941,0.261
			c5.3,0,10.663-5.517,12.751-13.117c1.148-4.178,1.16-8.403,0.033-11.897C369.59,63.917,367.426,61.552,364.635,60.785z
			 M370.231,79.216c-2.033,7.395-7.2,12.762-12.288,12.762c-0.617,0-1.227-0.082-1.814-0.243c-2.629-0.723-4.675-2.976-5.762-6.345
			c-1.099-3.405-1.085-7.533,0.039-11.622c2.032-7.395,7.199-12.762,12.286-12.762c0.617,0,1.227,0.082,1.814,0.243
			c2.629,0.722,4.676,2.976,5.762,6.346C371.368,71,371.354,75.127,370.231,79.216z"/>
	</g>
	<g>
		<path fill="#529CC6" d="M361.449,43.197c-12.931,1.992-26.128,21.807-26.128,21.807s17.389-7.812,25.592-9.446
			c7.921-1.578,25.422,0.138,25.422,0.138S376.298,40.91,361.449,43.197z"/>
		<path fill="#96CFE2" d="M373.276,44.854c-3.427-1.501-7.412-2.336-11.827-1.656c-12.931,1.992-26.128,21.807-26.128,21.807
			S353.302,41.753,373.276,44.854z"/>
		<path fill="#1C4658" d="M361.412,42.96c-12.885,1.985-26.091,22.044-26.091,22.044c0.134-0.196,13.484-19.615,26.165-21.568
			c14.525-2.238,24.748,12.115,24.849,12.26C386.335,55.696,376.241,40.675,361.412,42.96z"/>
	</g>
	<g>
		
			<ellipse transform="matrix(0.2693 -0.9631 0.9631 0.2693 110.5582 370.8109)" fill="#545F72" cx="299.645" cy="112.547" rx="2.649" ry="4.455"/>
		
			<ellipse transform="matrix(0.2693 -0.9631 0.9631 0.2693 110.5582 370.8109)" fill="#3C4756" cx="299.645" cy="112.547" rx="2.649" ry="4.455"/>
		<path fill="#636D7C" d="M298.827,109.741c-1.736-0.098-3.165,0.509-3.472,1.606c-0.394,1.408,1.207,3.087,3.577,3.751
			c0.674,0.188,1.335,0.271,1.949,0.265C302.765,114.112,301.291,110.921,298.827,109.741z"/>
		<path fill="#5D6471" d="M300.423,109.764c-0.659-0.185-1.316-0.277-1.957-0.277c-1.752,0-3.034,0.687-3.343,1.795
			c-0.437,1.561,1.207,3.338,3.743,4.048c0.659,0.184,1.317,0.277,1.957,0.277c1.752,0,3.034-0.688,3.343-1.795
			C304.604,112.251,302.959,110.473,300.423,109.764z M303.703,113.682c-0.245,0.877-1.375,1.443-2.88,1.443
			c-0.596,0-1.21-0.087-1.827-0.26c-2.238-0.626-3.767-2.176-3.41-3.454c0.246-0.878,1.375-1.444,2.88-1.444
			c0.595,0,1.21,0.087,1.827,0.26C302.531,110.854,304.061,112.403,303.703,113.682z"/>
	</g>
	<g>
		<path fill="#5D6471" d="M304.013,112.394l-0.372,0.306c1.204,1.464,3.642,1.973,3.642,1.973
			C307.261,114.663,305.142,113.767,304.013,112.394z"/>
	</g>
	<g>
		<path fill="#5D6471" d="M296.642,105.324c-4.31,0.238-4.802,4.755-4.802,4.755c0-0.041,0.572-4.039,4.829-4.275
			c4.148-0.231,6.286,2.151,6.306,2.175C302.975,107.979,301.048,105.078,296.642,105.324z"/>
	</g>
	<g>
		<path fill="#5D6471" d="M314.28,139.275l0.027,0.48c18.13-1.036,29.25-10.779,29.25-10.779
			C343.445,129.069,332.243,138.249,314.28,139.275z"/>
	</g>
	<g>
		<path fill="#5D6471" d="M341.949,173.456c1.229,0.41,5.502,0.254,5.502,0.254c-0.042-0.003-4.177-0.319-5.35-0.711
			L341.949,173.456z"/>
	</g>
	<g>
		<path fill="#BAC7E2" d="M440.471,153c-12.521-2.89-32.628,4.214-32.628,4.214l3.606,31.497c0,0,1.69,9.8,13.971,12.93
			c9.779,2.492,21.472-2.408,28.655-5.859c13.003-6.663,30.58-7.646,34.272-6.743c3.532,0.864,5.398,0.864,4.978-2.327
			C489.713,165.763,452.992,155.89,440.471,153z"/>
		<path fill="#E4E9F7" d="M440.471,153c-12.521-2.89-32.628,4.214-32.628,4.214s-0.745,8.172-0.292,16.524
			c0.372,6.873,3.664,15.02,3.664,15.02s6.118,8.813,18.781,8.308c10.033-0.401,14.203-6.45,22.956-9.371
			c18.821-6.28,32.425-1.886,36.119-0.983c3.531,0.862,4.675,3.19,4.254,0C489.713,165.763,452.992,155.89,440.471,153z"/>
		<path fill="#FAFBFD" d="M443.48,156.152c2.899,0.264,24.729,6.369,27.524,7.079c-9.889-4.237-25.088-8.973-30.534-10.23
			c-7.435-1.715-23.243,1.939-30.229,3.69C424.234,156.31,427.601,154.705,443.48,156.152z"/>
		<path fill="#5D6471" d="M440.524,152.766c-12.446-2.873-32.602,4.675-32.602,4.675c0.2-0.071,20.184-7.048,32.494-4.206
			c14.683,3.389,49.209,13.438,52.669,33.508c0.145,1.091,0.015,1.802-0.398,2.172c-0.681,0.611-2.204,0.397-4.282-0.11
			c-3.694-0.903-21.278,0.02-34.435,6.76c-7.65,3.675-18.929,8.279-28.491,5.843c-11.98-3.054-14.01-12.601-14.03-12.697
			c0,0,1.626,10.032,13.912,13.163c1.9,0.485,3.862,0.696,5.851,0.696c8.176,0,16.76-3.589,22.973-6.575
			c13.056-6.689,30.457-7.615,34.106-6.723c2.29,0.559,3.877,0.755,4.718,0.001c0.548-0.491,0.725-1.315,0.554-2.604
			C490.052,166.306,455.302,156.176,440.524,152.766z"/>
	</g>
	<g>
		<g>
			<path fill="#151A1C" d="M474.723,165.433c4.437,6.331,8.243,15.365,3.653,23.68c4.765-0.492,8.488-0.435,9.972-0.073
				c3.532,0.864,5.398,0.864,4.978-2.327C491.766,177.661,484.022,170.679,474.723,165.433z"/>
			<path fill="#242A2D" d="M493.325,186.712c-1.56-9.052-9.303-16.034-18.603-21.28c3.956,5.647,7.386,12.351,5.308,19.387
				c3.583,0.148,11.087,1.893,13.158,3.79C493.285,188.397,493.602,188.804,493.325,186.712z"/>
			<path fill="#040607" d="M474.841,165.223l-0.926-0.522l0.61,0.87c4.229,6.035,8.292,14.998,3.639,23.424l-0.223,0.404
				l0.458-0.047c2.252-0.232,4.408-0.355,6.237-0.355c1.625,0,2.924,0.098,3.654,0.277c1.426,0.348,2.343,0.497,3.072,0.497
				c0.825,0,1.406-0.206,1.777-0.628c0.437-0.5,0.576-1.305,0.422-2.471C492.183,178.668,485.884,171.453,474.841,165.223z
				 M492.778,188.824c-0.273,0.312-0.736,0.464-1.415,0.464c-0.68,0-1.591-0.149-2.958-0.482c-0.778-0.19-2.082-0.291-3.769-0.291
				c-1.723,0-3.732,0.107-5.838,0.312c4.225-8.125,0.725-16.642-3.284-22.663c10.347,6.034,16.258,12.957,17.571,20.58
				C493.22,187.754,493.118,188.435,492.778,188.824z"/>
		</g>
	</g>
	<g>
		<path fill="#1C4658" d="M418.819,114.795c-5.021,5.649-11.207,7.055-11.269,7.068c0,0,6.975,0,12.813-5.945
			c5.448-5.548,4.419-13.853,4.419-13.853C424.768,102.143,423.173,109.897,418.819,114.795z"/>
	</g>
	<g>
		<path fill="#1C4658" d="M423.34,121.49c-5.021,5.649-11.207,7.055-11.27,7.069c0,0,6.976,0,12.814-5.946
			c5.448-5.547,4.419-13.853,4.419-13.853C429.288,108.838,427.694,116.591,423.34,121.49z"/>
	</g>
	<g>
		<path fill="#1C4658" d="M427.475,127.298c-5.021,5.648-11.207,7.055-11.269,7.068c0,0,6.974,0,12.812-5.946
			c5.448-5.547,4.42-13.853,4.42-13.853C433.423,114.646,431.829,122.399,427.475,127.298z"/>
	</g>
	<g>
		<path fill="#BAC7E2" d="M385.931,246.429c-2.97,1.847-4.255,21.11-2.97,21.592c4.146,0.751,6.944,10.675,7.666,9.832
			C400.98,267.379,387.073,245.719,385.931,246.429z"/>
		<path fill="#E4E9F7" d="M385.931,246.429c-1.995,1.24-3.161,8.86-3.368,14.848c6.626,0.544,10.711,9.533,10.153,13.765
			C398.763,263.946,386.979,245.777,385.931,246.429z"/>
		<path fill="#5D6471" d="M385.994,246.171c-0.068,0-0.135,0.019-0.191,0.054c-2.669,1.659-3.956,15.753-3.492,20.438
			c0.125,1.255,0.355,1.503,0.606,1.595c2.558,0.463,4.699,4.825,5.977,7.432c0.895,1.824,1.225,2.455,1.634,2.455
			c0.106,0,0.205-0.048,0.268-0.121c6.433-6.508,3.462-16.891,1.12-22.502C389.812,250.486,386.903,246.171,385.994,246.171z
			 M390.509,277.629c-0.24-0.23-0.738-1.247-1.182-2.151c-1.397-2.846-3.503-7.14-6.278-7.685c-0.284-0.302-0.521-2.82-0.175-7.596
			c0.419-5.792,1.579-12.463,3.142-13.536c0.777,0.268,4.614,5.773,6.755,12.595C394.512,264.801,395.527,272.476,390.509,277.629z"
			/>
	</g>
	<g>
		<g>
			<path fill="#400505" d="M375.416,97.296c1.444,4.334-2.569,24.882-18.301,36.762c-14.719,11.114-26.527,14.205-31.827,14.273
				c1.526,3.324,5.563,6.52,7.587,7.559c2.648,7.786,20.227,12.2,39.49-3.21c14.287-12.12,20.388-35.317,15.732-54.741
				C384.245,96.815,375.416,97.296,375.416,97.296z"/>
			<path fill="#540505" d="M388.098,97.938c-3.853-1.124-12.682-0.642-12.682-0.642c1.444,4.334-2.569,24.882-18.301,36.762
				c-0.402,0.303-0.8,0.598-1.198,0.89c-1.358,9.97-5.959,19.719-12.366,27.81c7.431,1.041,17.848-1.306,28.814-10.078
				C386.652,140.56,392.753,117.362,388.098,97.938z"/>
			<path fill="#7F0A0A" d="M337.53,160.706c0.006,0.051-0.043,0.094-0.065,0.14c6.967,3.797,20.46,3.386,34.9-8.166
				c11.125-9.437,17.283-25.59,17.269-41.447C371.203,126.821,335.675,144.974,337.53,160.706z"/>
			<path fill="#9B1515" d="M343.125,162.692c7.455,1.193,18.062-1.071,29.24-10.013c6.981-5.923,12.006-14.489,14.777-23.968
				C369.797,130.195,349.581,142.896,343.125,162.692z"/>
			<g>
				<g>
					<path fill="#E8E6E6" d="M353.904,149.629c-2.337,0.531-0.737,9.326-0.412,12.613c4.429-0.977,9.311-2.971,14.389-6.303
						C360.929,154.239,354.756,149.417,353.904,149.629z"/>
					<path fill="#FFFFFF" d="M355.32,150.204c-1.145,0.629,0.076,8.43,1.504,11.135c3.043-1.123,7.782-3.25,11.057-5.399
						C360.929,154.239,355.899,149.886,355.32,150.204z"/>
					<path fill="#747373" d="M356.754,150.74c-1.596-0.917-2.38-1.358-2.787-1.358c-0.043,0-0.084,0.004-0.116,0.013
						c-1.999,0.454-1.538,5.396-0.84,10.858c0.1,0.78,0.188,1.472,0.242,2.013l0.027,0.27l0.265-0.059
						c4.81-1.062,9.678-3.193,14.469-6.336l0.463-0.303l-0.538-0.132C363.495,154.618,359.438,152.285,356.754,150.74z
						 M353.704,161.948c-0.055-0.498-0.13-1.096-0.215-1.756c-0.443-3.471-1.268-9.933,0.479-10.328
						c0.296,0,1.339,0.599,2.547,1.294c2.601,1.497,6.479,3.727,10.776,4.879C362.784,158.928,358.217,160.916,353.704,161.948z"/>
				</g>
				<g>
					<path fill="#E8E6E6" d="M377.583,127.315c-0.546,2.319,2.559,9.967,4.489,13.445c2.323-4.077,4.136-8.557,5.403-13.243
						C384.134,126.998,378.046,126.213,377.583,127.315z"/>
					<path fill="#FFFFFF" d="M379.389,126.859c-0.095,2.829,2.475,9.43,4.535,10.289c1.106-2.558,2.812-6.893,3.551-9.631
						C384.331,127.028,380.979,126.679,379.389,126.859z"/>
					<path fill="#747373" d="M379.987,126.517c-1.611,0-2.421,0.217-2.639,0.743c-0.586,2.492,2.674,10.302,4.515,13.617
						l0.207,0.375l0.213-0.373c2.31-4.056,4.135-8.53,5.425-13.298l0.07-0.26l-0.266-0.042
						C385.276,126.931,382.156,126.517,379.987,126.517z M382.076,140.263c-2.072-3.873-4.736-10.865-4.271-12.854
						c0.029-0.068,0.269-0.41,2.182-0.41c2.054,0,4.99,0.38,7.185,0.716C385.937,132.199,384.224,136.417,382.076,140.263z"/>
				</g>
				<g>
					<path fill="#E8E6E6" d="M325.288,148.332c1.526,3.324,5.563,6.52,7.587,7.559c0,0,3.587,1.382,3.963,1.264
						c0.473-0.148-0.391-7.447-0.976-11.134C331.268,147.675,327.638,148.301,325.288,148.332z"/>
					<path fill="#FFFFFF" d="M328.401,148.031c1.123,3.334,4.514,6.655,8.567,7.838c-0.072-2.289-0.667-7.084-1.106-9.849
						C332.964,147.064,330.452,147.697,328.401,148.031z"/>
					<path fill="#747373" d="M336.099,145.983l-0.045-0.288l-0.274,0.099c-5.418,1.95-8.901,2.276-10.496,2.296l-0.37,0.004
						l0.155,0.337c1.525,3.322,5.494,6.542,7.719,7.683c0.342,0.132,3.359,1.288,3.988,1.288c0.051,0,0.095-0.006,0.133-0.019
						c0.239-0.075,0.509-0.159,0.077-4.493C336.773,150.758,336.417,147.982,336.099,145.983z M336.7,156.915
						c-0.548-0.073-2.542-0.788-3.714-1.239c-1.791-0.919-5.677-3.902-7.318-7.113c1.731-0.066,5.06-0.468,10.001-2.218
						C336.313,150.487,336.894,156.05,336.7,156.915z"/>
				</g>
				<g>
					<path fill="#E8E6E6" d="M357.115,134.058c-2.563,1.935-5.035,3.622-7.402,5.097c2.915,5.482,12.125,8.457,12.739,7.284
						c0.993-1.417-0.462-10.882-1.397-15.761C359.832,131.862,358.522,132.996,357.115,134.058z"/>
					<path fill="#FFFFFF" d="M361.19,130.678c-1.224,1.184-2.534,2.318-3.94,3.38c-1.568,1.184-3.097,2.265-4.595,3.271
						c1.505,3.432,5.463,6.638,10.13,7.334C363.222,141.963,362.022,135.021,361.19,130.678z"/>
					<path fill="#747373" d="M361.208,130.195l-0.32,0.31c-1.262,1.22-2.58,2.35-3.918,3.36c-2.43,1.835-4.914,3.546-7.385,5.085
						l-0.191,0.119l0.106,0.198c2.536,4.769,9.707,7.666,12.184,7.666h0c0.525,0,0.847-0.125,0.966-0.356
						c1.314-1.879-1.248-15.37-1.358-15.944L361.208,130.195z M362.24,146.327c-0.023,0.043-0.168,0.125-0.556,0.125h0
						c-2.287,0-9.145-2.793-11.65-7.213c2.419-1.515,4.849-3.193,7.227-4.988c1.241-0.937,2.465-1.975,3.642-3.091
						C362.144,137.765,363.027,145.199,362.24,146.327z"/>
				</g>
				<g>
					<path fill="#E8E6E6" d="M370.147,118.445c3.722,1.929,11.828,0.787,11.93,0.122c0.048-0.915-5.059-7.792-7.57-11.251
						C373.623,110.686,372.209,114.542,370.147,118.445z"/>
					<path fill="#FFFFFF" d="M381.23,116.849c-1.55-2.494-4.854-6.959-6.723-9.533c-0.713,2.716-1.776,5.749-3.238,8.865
						C373.438,117.604,377.923,118.125,381.23,116.849z"/>
					<path fill="#747373" d="M374.403,106.763l-0.128,0.492c-0.977,3.723-2.478,7.553-4.34,11.078l-0.114,0.215l0.216,0.111
						c1.747,0.906,4.271,1.096,6.081,1.096l0,0c2.161,0,6.081-0.385,6.201-1.175c0.039-0.753-2.314-4.135-6.673-10.109
						L374.403,106.763z M376.117,119.272c-1.681,0-3.99-0.165-5.641-0.935c1.745-3.342,3.167-6.947,4.133-10.473l0.647,0.889
						c2.277,3.121,6.485,8.892,6.581,9.742C381.479,118.781,378.996,119.272,376.117,119.272z"/>
				</g>
			</g>
			<g>
				<g>
					<path fill="#E8E6E6" d="M339.096,151.375c-0.33,0.156-0.173,6.204,0.242,10.328c3.828,1.456,7.253,2.133,13.771,0.623
						C349.002,158.77,339.76,151.06,339.096,151.375z"/>
					<path fill="#FFFFFF" d="M353.108,162.326c-4.092-3.543-11.825-10.258-12.545-10.171c-0.384,2.441,0.579,8.641,1.813,10.381
						C344.52,162.695,349.863,163.078,353.108,162.326z"/>
					<path fill="#747373" d="M339.145,151.125c-0.056,0-0.107,0.011-0.153,0.033c-0.674,0.32-0.074,8.78,0.105,10.569
						c0,0,4.492,1.211,7.511,1.211l7.014-0.483l-0.357-0.311C353.138,162.034,340.507,151.125,339.145,151.125z M346.609,162.938
						c-2.874,0-5.088-0.669-7.047-1.407c-0.383-3.914-0.506-8.996-0.318-9.9c1.209,0.421,8.404,6.303,13.346,10.566
						C350.329,162.695,348.368,162.938,346.609,162.938z"/>
				</g>
				<g>
					<path fill="#E8E6E6" d="M367.028,139.516c-2.354,1.251-0.252,11.326,1.111,16.251c1.396-0.927,2.807-1.952,4.226-3.088
						c3.296-2.796,6.149-6.186,8.542-9.978C375.099,141.828,368.167,139.02,367.028,139.516z"/>
					<path fill="#FFFFFF" d="M380.907,142.778c-5.808-0.874-11.291-3.32-12.254-3.142c-1.445,1.615,0.21,9.986,2.588,14.057
						C374.254,151.014,378.679,146.31,380.907,142.778z"/>
					<path fill="#747373" d="M372.346,140.382c-2.26-0.651-4.044-1.165-4.937-1.165c-0.201,0-0.357,0.025-0.496,0.086
						c-3.086,1.642,0.825,15.921,0.993,16.528l0.089,0.32l0.276-0.184c1.434-0.953,2.862-1.996,4.249-3.105
						c3.227-2.737,6.117-6.113,8.59-10.033l0.198-0.311l-0.365-0.055C378.079,142.032,374.9,141.117,372.346,140.382z
						 M372.215,152.492c-1.282,1.025-2.603,1.996-3.932,2.89c-1.583-5.833-3.146-14.587-1.159-15.645
						c0.032-0.015,0.113-0.039,0.286-0.039c0.824,0,2.667,0.531,4.803,1.146c2.46,0.708,5.497,1.583,8.294,2.038
						C378.104,146.63,375.313,149.863,372.215,152.492z"/>
				</g>
				<g>
					<path fill="#E8E6E6" d="M382.719,113.35c-0.276,3.811,2.854,10.608,5.059,13.017c1.063-4.263,1.679-8.677,1.821-13.092
						C387.205,112.641,382.719,112.354,382.719,113.35z"/>
					<path fill="#FFFFFF" d="M388.659,122.419c0.405-2.561,0.857-6.553,0.94-9.145c-2.016-0.533-4.579-1.092-5.636-0.576
						C383.43,114.834,385.81,122.098,388.659,122.419z"/>
					<path fill="#747373" d="M384.994,112.457c-1.692,0-2.515,0.292-2.515,0.875c-0.282,3.886,2.896,10.766,5.121,13.197
						l0.303,0.331l0.109-0.435c1.07-4.287,1.686-8.709,1.828-13.143l0.007-0.191l-0.186-0.049
						C388.341,112.692,386.467,112.457,384.994,112.457z M387.655,125.855c-2.143-2.623-4.958-8.888-4.695-12.506
						c0-0.106,0.374-0.411,2.034-0.411c1.366,0,3.088,0.208,4.358,0.521C389.204,117.638,388.634,121.806,387.655,125.855z"/>
				</g>
				<g>
					<path fill="#E8E6E6" d="M335.675,146.089c3.652,2.548,13.137,8.35,14.216,7.474c0.477-0.358-0.829-9.045-1.742-13.454
						C343.491,142.882,339.28,144.806,335.675,146.089z"/>
					<path fill="#FFFFFF" d="M349.901,151.366c-0.15-2.638-1.036-7.799-1.752-11.257c-2.741,1.632-6.084,3.228-8.482,4.313
						C341.373,147.879,346.5,151.125,349.901,151.366z"/>
					<path fill="#747373" d="M348.316,139.729l-0.291,0.173c-4.257,2.534-8.439,4.54-12.431,5.96l-0.44,0.156l0.383,0.268
						c3.103,2.165,11.826,7.605,14.014,7.605l0,0c0.212,0,0.373-0.046,0.484-0.138c0.802-0.602-1.378-12.377-1.651-13.694
						L348.316,139.729z M349.718,153.387c-0.025,0.011-0.075,0.024-0.167,0.024l0,0c-1.778,0-9.419-4.558-13.354-7.254
						c3.796-1.386,7.756-3.292,11.784-5.668C348.923,145.148,349.983,152.606,349.718,153.387z"/>
				</g>
				<g>
					<path fill="#E8E6E6" d="M360.866,130.856c3.539,2.913,13.411,3.258,13.627,2.339c0.541-2.841-2.397-10.174-4.462-14.535
						C367.778,122.875,364.77,127.126,360.866,130.856z"/>
					<path fill="#FFFFFF" d="M363.113,128.533c2.619,1.954,7.034,3.7,11.342,2.618c-0.502-3.465-2.75-8.954-4.424-12.491
						C368.233,122.024,365.944,125.406,363.113,128.533z"/>
					<path fill="#747373" d="M370.043,118.125l-0.226,0.422c-2.479,4.64-5.546,8.723-9.118,12.136l-0.196,0.187l0.209,0.173
						c2.535,2.086,8.104,2.845,11.229,2.845c0.001,0,0.001,0,0.001,0c2.634,0,2.744-0.463,2.787-0.646
						c0.689-3.62-3.95-13.562-4.481-14.685L370.043,118.125z M374.271,133.11c-0.071,0.082-0.627,0.295-2.328,0.295h-0.001
						c-2.969,0-8.18-0.688-10.709-2.568c3.416-3.305,6.368-7.218,8.783-11.644C371.925,123.3,374.774,130.43,374.271,133.11z"/>
				</g>
				<g>
					<path fill="#E8E6E6" d="M375.416,97.296c0.552,1.656,0.303,5.679-1.086,10.679c3.571-0.013,10.457-2.035,10.457-2.471
						c0-0.364-4.589-5.11-7.645-8.274C376.089,97.26,375.416,97.296,375.416,97.296z"/>
					<path fill="#FFFFFF" d="M383.506,103.926c-1.582-1.746-4.315-4.574-6.365-6.696c-1.053,0.03-1.726,0.066-1.726,0.066
						c0.461,1.385,0.36,4.43-0.498,8.314C377.743,106.136,382.078,105.474,383.506,103.926z"/>
					<path fill="#747373" d="M377.241,96.986l-0.105,0.003c-1.057,0.03-1.733,0.067-1.733,0.067l-0.315,0.017l0.1,0.299
						c0.499,1.498,0.356,5.336-1.089,10.537l-0.085,0.307l0.318-0.001c2.904-0.009,10.697-1.84,10.697-2.711
						c0-0.323-1.061-1.556-7.633-8.359L377.241,96.986z M374.647,107.728c1.147-4.242,1.567-8.235,1.083-10.205
						c0.277-0.013,0.731-0.032,1.312-0.048l0.005,0.006c2.433,2.518,6.866,7.107,7.45,7.977
						C383.677,105.944,378.052,107.615,374.647,107.728z"/>
				</g>
			</g>
			<path fill="#5D6471" d="M388.299,97.746l-0.134-0.039c-2.137-0.623-5.783-0.754-8.464-0.754c-2.384,0-4.28,0.102-4.299,0.104
				l-0.315,0.017l0.1,0.299c1.459,4.379-2.821,24.866-18.217,36.493c-13.739,10.375-25.655,14.147-31.685,14.226l-0.37,0.004
				l0.155,0.337c1.506,3.279,5.393,6.46,7.61,7.627c1.527,4.292,7.241,7.17,14.265,7.171c0,0,0,0,0.002,0
				c8.135,0,17.217-3.681,25.575-10.367c13.958-11.841,20.608-34.964,15.811-54.981L388.299,97.746z M372.215,152.492
				c-8.269,6.614-17.242,10.257-25.269,10.257h-0.002c-6.868,0-12.43-2.788-13.842-6.936l-0.031-0.092l-0.086-0.044
				c-1.791-0.919-5.677-3.902-7.318-7.112c6.213-0.227,18.04-4.08,31.592-14.313c8.63-6.517,13.286-15.188,15.671-21.315
				c2.668-6.853,3.414-12.912,2.8-15.413c0.625-0.028,2.155-0.088,3.971-0.088c2.594,0,6.094,0.122,8.193,0.697
				C392.59,117.95,386.005,140.792,372.215,152.492z"/>
		</g>
	</g>
	<g>
		<g>
			<g>
				<g>
					<g>
						<g>
							<g>
								<g>
									<g>
										<g>
											<g>
												<g>
													<g>
														<g>
															<g>
																<path fill="#128DDD" d="M360.695,69.855c-4.166,0.009-7.714,4.202-7.917,9.362
																	c-0.209,5.159,2.999,9.334,7.163,9.322c4.167-0.009,7.713-4.201,7.921-9.36
																	C368.069,74.021,364.861,69.846,360.695,69.855z"/>
															</g>
														</g>
													</g>
												</g>
											</g>
										</g>
										<path fill="#30BCEC" d="M363.055,84.132c3.018-2.156,4.484-6.24,3.725-10.182c-1.257-2.476-3.484-4.102-6.084-4.096
											c-4.166,0.009-7.714,4.202-7.917,9.362c-0.097,2.395,0.548,4.57,1.677,6.22C357.262,86.416,360.558,86.075,363.055,84.132
											z"/>
									</g>
								</g>
							</g>
						</g>
					</g>
				</g>
				<g>
					<g>
						<g>
							<g>
								<g>
									<g>
										<g>
											<path fill="#124CDD" d="M361.655,69.728c-0.314-0.046-0.634-0.07-0.954-0.071c-2.064,0.005-4.046,1.006-5.581,2.819
												c-1.523,1.802-2.423,4.197-2.524,6.742c-0.194,4.812,2.553,8.875,6.386,9.453c0.312,0.046,0.63,0.067,0.951,0.067
												c2.068-0.003,4.049-1.003,5.582-2.816c1.528-1.803,2.424-4.2,2.524-6.744C368.24,74.369,365.489,70.304,361.655,69.728z
												 M367.682,79.18c-0.097,2.447-0.961,4.751-2.426,6.482c-1.461,1.724-3.345,2.676-5.307,2.681
												c-0.302,0-0.604-0.021-0.901-0.065c-3.658-0.552-6.277-4.446-6.089-9.062c0.097-2.447,0.959-4.75,2.424-6.483
												c1.458-1.723,3.342-2.674,5.302-2.679c0.307,0,0.606,0.02,0.904,0.063C365.249,70.671,367.867,74.565,367.682,79.18z"/>
										</g>
									</g>
								</g>
							</g>
						</g>
					</g>
				</g>
			</g>
			<g>
				<g>
					<g>
						<g>
							<g>
								<g>
									<g>
										<path fill="#000100" d="M360.738,73.971c-2.8,0.008-5.186,2.911-5.332,6.483c-0.145,3.572,2.008,6.463,4.811,6.455
											c2.802-0.006,5.188-2.909,5.333-6.479C365.693,76.854,363.541,73.963,360.738,73.971z"/>
									</g>
								</g>
							</g>
						</g>
					</g>
				</g>
			</g>
			<g>
				<g>
					<g>
						<g>
							<g>
								<g>
									<path fill="#F1F8FB" d="M355.017,75.292c-0.489,1.603-0.199,3.226,0.648,3.627c0.848,0.4,1.937-0.572,2.428-2.171
										c0.493-1.602,0.2-3.226-0.648-3.626C356.595,72.72,355.507,73.694,355.017,75.292z"/>
								</g>
							</g>
						</g>
					</g>
				</g>
			</g>
			<g>
				<g>
					<g>
						<g>
							<g>
								<g>
									<g>
										<path fill="#F1F8FB" d="M363.798,72.542c-0.682-0.106-1.343,0.454-1.475,1.243c-0.131,0.79,0.315,1.515,0.997,1.614
											c0.682,0.105,1.343-0.452,1.474-1.242C364.925,73.365,364.481,72.645,363.798,72.542z"/>
									</g>
								</g>
							</g>
						</g>
					</g>
				</g>
			</g>
		</g>
	</g>
	<g>
		<path fill="#5D6471" d="M375.396,96.991c-2.158,0.203-2.61,2.292-2.61,2.292c0.03-0.067,0.78-1.637,2.655-1.814
			c2.157-0.204,10.829-0.025,12.601,0.703c2.438,0.585,4.916,2.199,4.941,2.215c0,0-2.309-2.078-4.793-2.671
			C386.267,96.923,377.347,96.805,375.396,96.991z"/>
	</g>
	<g>
		<path fill="#529CC6" d="M354.779,93.355c0,0,4.583-2.489,6.923-2.876c2.34-0.386,4.167-0.01,4.167-0.01s-2.966,1.682-5.237,2.499
			C358.163,93.855,354.779,93.355,354.779,93.355z"/>
		<path d="M354.779,93.355c0,0,4.537-2.726,6.884-3.113c2.341-0.387,4.292,0.231,4.292,0.231c-0.019-0.001-1.932-0.133-4.214,0.244
			C359.461,91.094,354.825,93.332,354.779,93.355z"/>
	</g>
	<g>
		<path fill="#529CC6" d="M340.864,76.285c0,0,2.746,2.432,7.141-0.88c2.402-1.637,7.395-13.586,14.778-14.088
			c3.924-0.002,8.204,4.904,9.239,5.377c1.598,0.733,2.651,0.04,2.651,0.04s-3.672-9.571-14.105-9.13
			C353.786,57.892,340.864,76.285,340.864,76.285z"/>
		<path d="M343.563,77.376c-1.795,0-2.54-1.272-2.54-1.272c0.107,0.094,2.665,2.252,6.836-0.892
			c0.693-0.473,1.673-1.933,2.809-3.624c2.715-4.043,6.817-10.153,12.098-10.512c0.001,0,0.002,0,0.003,0
			c3.007,0,6.134,2.709,8.003,4.328c0.596,0.516,1.11,0.961,1.348,1.071c1.46,0.669,2.41,0.064,2.419,0.059
			c0,0-0.92,1.158-2.62,0.379c-0.301-0.138-0.788-0.56-1.463-1.145c-1.818-1.575-4.861-4.21-7.673-4.21c-0.001,0-0.002,0-0.002,0
			c-5.029,0.342-9.053,6.334-11.715,10.299c-1.211,1.803-2.168,3.228-2.928,3.746C346.331,76.968,344.776,77.376,343.563,77.376z"/>
	</g>
	<path fill="#FAFBFD" d="M333.356,159.261c0,0,4.566,10.176,19.059,6.421c14.493-3.754,21.716-8.651,31.474-24.922
		c-9.036,18.26-19.214,26.141-33.988,27.882C338.721,169.961,334.641,163.596,333.356,159.261z"/>
</g>
</svg>
