<svg version="1.1" id="Layer_1" xmlns="http://www.w3.org/2000/svg" xmlns:xlink="http://www.w3.org/1999/xlink" viewBox="0 0 768 430" enable-background="new 0 0 768 430" xml:space="preserve">
<g transform="translate(0,-924.36217)">
	
		<linearGradient id="SVGID_1_" gradientUnits="userSpaceOnUse" x1="76.1123" y1="293.0961" x2="74.0822" y2="389.9626" gradientTransform="matrix(3.3594 0 0 -3.3594 129.6406 2290.751)">
		<stop  offset="0" style="stop-color:#0E232E"/>
		<stop  offset="1" style="stop-color:#CCCCCC"/>
	</linearGradient>
	<path fill="url(#SVGID_1_)" d="M378.549,952.394c-7.033,0.146-17.603,4.147-18.014,11.498c-1.606,28.742-15.443,92.238-7.056,99.27
		l0.776,4.924l-2.352,4.924l0.776-10.66l-3.903-26.271c0,0,0.495-36.463-6.271-52.49c-2.389-5.661-2.776-12.371-8.64-13.148
		c-6.623-0.877-17.86,3.757-17.238,10.686c2.333,25.99-0.776,92.696-0.776,92.696l-1.576,8.224c0,0-0.467-0.537-1.552-4.924
		c-3.58-14.49-11.465-42.236-2.557-65.639c1.711-4.495-3.081-9.118-7.65-9.848c-5.429-0.868-14.241,1.676-14.886,7.386
		c-2.116,18.725-4.197,37.194-3.127,55.79c3.35,58.26,13.385,77.597,22.719,148.5c3.35,25.444-25.847,92.706-25.847,92.706
		c54.099,29.114,101.521,23.292,147.335,9.036c0,0-14.202-42.121-14.11-64.014c0.059-14.062,4.62-27.878,9.407-41.018
		c8.455-23.209,33.7-65.638,33.7-65.638s6.866-29.834,13.31-43.48c3.244-6.87,10.759-11.432,12.56-18.859
		c1.163-4.801,1.597-11.099-1.576-14.772c-2.509-2.904-7.537-3.986-10.983-2.462c-17.321,7.663-45.461,46.346-46.234,45.941
		l11.064-64.397c0.607-3.532-1.304-37.884-0.082-57.868c0.392-6.396-8.012-11.741-14.11-12.285
		c-5.715-0.51-20.168,3.01-20.372,9.011c-1.681,29.24-5.591,57.029-3.145,82.873l-3.904,4.111
		c-5.271-35.59-5.275-88.45-1.576-111.605C393.621,955.052,383.926,952.283,378.549,952.394L378.549,952.394z"/>
	
		<linearGradient id="SVGID_2_" gradientUnits="userSpaceOnUse" x1="45.9761" y1="341.9374" x2="95.3919" y2="341.9374" gradientTransform="matrix(3.3594 0 0 -3.3594 129.6406 2290.751)">
		<stop  offset="0" style="stop-color:#2D2D2D"/>
		<stop  offset="1" style="stop-color:#364E59"/>
	</linearGradient>
	<path fill="url(#SVGID_2_)" d="M377.332,956.586c-7.294,0.145-18.257,4.108-18.683,11.391
		c-1.666,28.474-16.017,91.378-7.317,98.345l0.805,4.878l-2.439,4.878l0.805-10.561l-4.048-26.026c0,0,0.514-41.154-6.503-57.032
		c-2.478-5.607,2.152-6.387-3.931-7.156c-6.869-0.869-22.606,2.831-22.909,9.748c-1.264,28.909-0.805,91.832-0.805,91.832
		l-1.634,8.147c0,0-3.656-0.838-1.609-4.878c6.013-11.868-13.431-39.327-4.192-62.512c1.774-4.453-1.656-11.548-6.394-12.271
		c-5.631-0.86-15.609,3.337-16.278,8.994c-2.195,18.55-3.515,35.17-2.406,53.593c3.475,57.717,13.882,76.874,23.563,147.116
		c3.474,25.208-26.807,91.843-26.807,91.843c56.11,28.843,105.293,23.074,152.81,8.951c0,0-14.729-41.729-14.635-63.417
		c0.062-13.932,4.792-27.617,9.757-40.635c8.77-22.992,34.952-65.026,34.952-65.026s7.122-29.556,13.805-43.074
		c3.364-6.806,11.158-11.325,13.026-18.684c1.207-4.756,1.656-10.995-1.635-14.635c-2.602-2.877-7.817-3.949-11.392-2.439
		c-17.965,7.592-47.15,45.915-47.952,45.513l11.476-63.798c0.629-3.498-1.353-37.53-0.085-57.328
		c0.406-6.336-8.309-11.632-14.635-12.171c-5.927-0.505-20.917,2.982-21.129,8.927c-1.743,28.968-5.798,56.498-3.262,82.101
		l-4.049,4.073c-5.468-35.258-5.471-87.625-1.634-110.565C392.964,959.22,382.91,956.475,377.332,956.586L377.332,956.586z"/>
	<g opacity="0.2098" enable-background="new    ">
		<path fill="#0E232E" d="M368.773,957.786c-6.261,0.142-15.671,4.034-16.037,11.186c-1.429,27.96-13.748,89.729-6.281,96.57
			l0.691,4.79l-2.094,4.791l0.691-10.371l-3.475-25.556c0,0,0.441-35.472-5.582-51.063c-2.127-5.506-2.472-12.035-7.692-12.791
			c-5.896-0.853-13.701,3.862-15.346,10.396c-7.562,30.033-0.691,90.175-0.691,90.175l-1.403,8c0,0-3.138-0.823-1.381-4.79
			c5.161-11.654-7.93-41.087,0-63.854c1.523-4.373-5.02-8.87-9.087-9.581c-4.833-0.844-12.678,1.631-13.252,7.186
			c-1.884,18.215-3.736,36.183-2.784,54.273c2.982,56.676,11.916,75.486,20.226,144.462c2.982,24.753-23.01,90.186-23.01,90.186
			c48.162,28.321,90.378,22.657,131.165,8.79c0,0-12.643-40.976-12.562-62.273c0.053-13.68,4.112-27.119,8.374-39.901
			c7.527-22.578,30.002-63.854,30.002-63.854s6.113-29.022,11.85-42.297c2.887-6.683,9.577-11.121,11.18-18.346
			c1.037-4.67,12.983,7.808,10.158,4.233c-2.233-2.825-4.932,35.191-24.006,16.209c-12.308-12.248-37.805,7.878-38.492,7.484
			l6.971-50.297c-3.02-0.502,1.718-49.203,2.807-68.644c0.348-6.221-7.133-11.422-12.562-11.951
			c-5.087-0.496-17.954,2.928-18.136,8.766c-1.497,28.445-4.978,55.479-2.8,80.619l-3.475,4
			c-4.693-34.622-4.697-86.044-1.404-108.57C382.191,960.371,373.561,957.677,368.773,957.786L368.773,957.786z"/>
	</g>
	<path fill="#999999" d="M299.917,1146.325c7.998,14.836,1.438,45.335,8.069,41.15c33.744-21.297,110.257-5.327,110.548-9.317
		l3.322-45.437C422.385,1125.488,291.918,1131.49,299.917,1146.325z"/>
	<path fill="#999999" stroke="#B2B2B2" stroke-width="0.5243" stroke-dasharray="0.5243,0.5243" d="M302.365,1145.992
		c-2.123,14.973-0.296,41.979,7.674,37.46c32.796-18.598,104.973-4.843,105.125-8.481l1.605-38.396
		C417.046,1129.978,304.489,1131.02,302.365,1145.992L302.365,1145.992z"/>
	<path fill="#999999" d="M295.662,1242.979c-5.324-10.838-1.807-33.117,8.078-30.061c36.778,11.373,117.544,3.916,117.103,6.806
		l-5.63,36.868C414.413,1261.831,300.986,1253.817,295.662,1242.979L295.662,1242.979z"/>
	
		<linearGradient id="SVGID_3_" gradientUnits="userSpaceOnUse" x1="109.5063" y1="1148.7831" x2="259.5461" y2="1137.3217" gradientTransform="matrix(0.8055 0 0 0.5878 215.6045 563.8129)">
		<stop  offset="0" style="stop-color:#666666"/>
		<stop  offset="1" style="stop-color:#666666;stop-opacity:0"/>
	</linearGradient>
	<path fill="url(#SVGID_3_)" stroke="#B2B2B2" stroke-width="0.4484" stroke-dasharray="0.4484,0.4484" d="M298.114,1243.223
		c-5.063-9.866-1.719-30.148,7.682-27.365c34.974,10.354,112.07,3.564,111.674,6.196c-1.593,10.594-2.05,18.914-5.669,33.562
		C410.644,1260.298,303.177,1253.089,298.114,1243.223z"/>
	<path fill="#999999" d="M306.442,1030.457c0,3.064-6.856,72.655-0.184,54.693c1.267-3.411,0.812-6.131,0.812-6.131
		s2.235,1.167,1.758-0.766C306.031,1066.919,306.442,1030.456,306.442,1030.457L306.442,1030.457z"/>
	<path fill="#999999" d="M345.234,1042.297c0.943,2.604-4.981,33.132,3.394,41.985c2.487,2.63,1.625-1.685,1.625-1.685
		s2.503-3.09,1.902-4.927C347.917,1064.705,345.778,1041.934,345.234,1042.297L345.234,1042.297z"/>
	
		<linearGradient id="SVGID_4_" gradientUnits="userSpaceOnUse" x1="184.0371" y1="993.9169" x2="190.943" y2="1057.7198" gradientTransform="matrix(0.4856 0 0 -0.6756 260.0652 1738.248)">
		<stop  offset="0" style="stop-color:#CCCCCC"/>
		<stop  offset="1" style="stop-color:#999999;stop-opacity:0"/>
	</linearGradient>
	<path fill="url(#SVGID_4_)" d="M351.441,1026.367c0,2.73,8.139,46.373-1.266,52.902c-2.233,1.55-6.377-5.46-6.377-5.46
		s4.191,0.874,3.925-0.683C344.929,1056.83,351.011,1026.022,351.441,1026.367L351.441,1026.367z"/>
	<path fill="#CCCCCC" d="M395.203,1033.907c3.938,17.005-1.777,49.387,0.627,41.675c0,0-4.811-4.222-4.467-5.814
		C393.621,1059.308,394.205,1033.094,395.203,1033.907z"/>
	<path fill="#CCCCCC" d="M427.46,1096.874l-4.191,29.344c63.931-34.266,72.175-78.078,35.213-55.335
		c-6.707,4.896-13.415,13.307-20.122,22.637l-6.707,7.546L427.46,1096.874z"/>
</g>
</svg>
