<svg version="1.1" id="Layer_1" xmlns="http://www.w3.org/2000/svg" xmlns:xlink="http://www.w3.org/1999/xlink" viewBox="0 0 768 430" enable-background="new 0 0 768 430" xml:space="preserve">
<g transform="translate(0,-924.36217)">
	
		<linearGradient id="SVGID_1_" gradientUnits="userSpaceOnUse" x1="68.0166" y1="1085.5502" x2="65.9865" y2="988.6837" gradientTransform="matrix(3.3594 0 0 3.3594 91.4609 -2342.7729)">
		<stop  offset="0" style="stop-color:#0E232E"/>
		<stop  offset="1" style="stop-color:#CCCCCC"/>
	</linearGradient>
	<path fill="url(#SVGID_1_)" d="M313.172,950.294c-7.033,0.146-17.603,4.147-18.014,11.498c-1.606,28.742-15.443,92.238-7.056,99.27
		l0.776,4.924l-2.352,4.924l0.776-10.66l-3.903-26.271c0,0,0.495-36.463-6.271-52.49c-2.389-5.661-2.776-12.371-8.64-13.148
		c-6.623-0.877-17.86,3.757-17.238,10.686c2.333,25.99-0.776,92.696-0.776,92.696l-1.576,8.224c0,0-0.467-0.537-1.552-4.924
		c-3.58-14.49-11.465-42.236-2.557-65.639c1.711-4.495-3.081-9.118-7.65-9.848c-5.429-0.868-14.241,1.676-14.886,7.386
		c-2.116,18.725-4.197,37.194-3.127,55.79c3.35,58.26,13.385,77.597,22.719,148.499c3.35,25.445-25.847,92.707-25.847,92.707
		c54.099,29.113,101.521,23.291,147.335,9.035c0,0-14.202-42.121-14.11-64.014c0.06-14.062,4.621-27.877,9.407-41.018
		c8.455-23.209,33.701-65.639,33.701-65.639s6.865-29.833,13.309-43.479c3.244-6.87,10.76-11.432,12.561-18.859
		c1.164-4.801,1.598-11.099-1.576-14.771c-2.508-2.904-7.537-3.986-10.982-2.462c-17.32,7.663-45.461,46.346-46.234,45.941
		l11.063-64.396c0.607-3.532-1.304-37.884-0.082-57.868c0.393-6.396-8.012-11.741-14.109-12.285
		c-5.715-0.51-20.168,3.01-20.372,9.011c-1.681,29.24-5.591,57.029-3.146,82.873l-3.904,4.111
		c-5.271-35.59-5.274-88.45-1.575-111.605C328.245,952.952,318.549,950.183,313.172,950.294L313.172,950.294z"/>
	
		<linearGradient id="SVGID_2_" gradientUnits="userSpaceOnUse" x1="37.8804" y1="1036.7113" x2="87.2958" y2="1036.7113" gradientTransform="matrix(3.3594 0 0 3.3594 91.4609 -2342.7729)">
		<stop  offset="0" style="stop-color:#2D2D2D"/>
		<stop  offset="1" style="stop-color:#364E59"/>
	</linearGradient>
	<path fill="url(#SVGID_2_)" d="M311.956,954.486c-7.294,0.145-18.257,4.108-18.683,11.391
		c-1.666,28.474-16.017,91.378-7.317,98.345l0.805,4.878l-2.439,4.878l0.805-10.561l-4.048-26.026c0,0,0.514-41.154-6.503-57.032
		c-2.478-5.607,2.152-6.387-3.931-7.156c-6.869-0.869-22.606,2.831-22.909,9.748c-1.264,28.909-0.805,91.832-0.805,91.832
		l-1.634,8.147c0,0-3.656-0.838-1.609-4.878c6.013-11.868-13.431-39.327-4.192-62.512c1.774-4.453-1.656-11.548-6.394-12.271
		c-5.631-0.86-15.609,3.337-16.278,8.994c-2.195,18.55-3.515,35.17-2.406,53.593c3.475,57.717,13.882,76.875,23.563,147.117
		c3.474,25.207-26.807,91.842-26.807,91.842c56.11,28.844,105.293,23.074,152.811,8.951c0,0-14.729-41.729-14.636-63.416
		c0.062-13.934,4.793-27.617,9.758-40.637c8.77-22.99,34.952-65.025,34.952-65.025s7.121-29.556,13.805-43.074
		c3.363-6.806,11.158-11.325,13.025-18.684c1.207-4.756,1.656-10.995-1.635-14.635c-2.602-2.877-7.816-3.949-11.391-2.439
		c-17.965,7.592-47.151,45.915-47.953,45.513l11.476-63.798c0.629-3.498-1.353-37.53-0.086-57.328
		c0.406-6.336-8.308-11.632-14.634-12.171c-5.927-0.505-20.917,2.982-21.129,8.927c-1.743,28.968-5.798,56.498-3.263,82.101
		l-4.049,4.073c-5.468-35.258-5.471-87.625-1.634-110.565C327.587,957.12,317.534,954.375,311.956,954.486L311.956,954.486z"/>
	<g opacity="0.2098" enable-background="new    ">
		<path fill="#0E232E" d="M303.396,955.686c-6.261,0.142-15.671,4.034-16.037,11.186c-1.429,27.96-13.748,89.729-6.281,96.57
			l0.691,4.79l-2.094,4.791l0.691-10.371l-3.475-25.556c0,0,0.441-35.472-5.582-51.063c-2.127-5.506-2.472-12.035-7.692-12.791
			c-5.896-0.853-13.701,3.862-15.346,10.396c-7.562,30.033-0.691,90.175-0.691,90.175l-1.403,8c0,0-3.138-0.823-1.381-4.79
			c5.161-11.654-7.93-41.087,0-63.854c1.523-4.373-5.02-8.87-9.087-9.581c-4.833-0.844-12.678,1.631-13.252,7.186
			c-1.884,18.215-3.736,36.183-2.784,54.273c2.982,56.676,11.916,75.486,20.226,144.463c2.982,24.752-23.01,90.186-23.01,90.186
			c48.162,28.32,90.378,22.656,131.166,8.789c0,0-12.644-40.975-12.562-62.271c0.053-13.682,4.111-27.119,8.374-39.902
			c7.526-22.578,30.001-63.854,30.001-63.854s6.113-29.022,11.85-42.297c2.889-6.683,9.578-11.121,11.182-18.346
			c1.035-4.67,12.982,7.808,10.156,4.233c-2.232-2.825-4.932,35.191-24.006,16.209c-12.307-12.248-37.804,7.878-38.491,7.484
			l6.971-50.297c-3.021-0.502,1.718-49.203,2.807-68.644c0.348-6.221-7.133-11.422-12.562-11.951
			c-5.086-0.496-17.953,2.928-18.135,8.766c-1.498,28.445-4.979,55.479-2.801,80.619l-3.475,4
			c-4.693-34.622-4.697-86.044-1.404-108.57C316.814,958.271,308.185,955.577,303.396,955.686L303.396,955.686z"/>
	</g>
	<path fill="#999999" d="M234.541,1144.224c7.998,14.836,1.438,45.336,8.069,41.15c33.744-21.297,110.257-5.328,110.548-9.316
		l3.322-45.438C357.008,1123.388,226.542,1129.39,234.541,1144.224z"/>
	<path fill="#999999" stroke="#B2B2B2" stroke-width="0.5243" stroke-dasharray="0.5243,0.5243" d="M236.989,1143.892
		c-2.123,14.973-0.296,41.979,7.674,37.459c32.796-18.598,104.973-4.844,105.125-8.48l1.605-38.396
		C351.669,1127.878,239.113,1128.92,236.989,1143.892L236.989,1143.892z"/>
	<path fill="#999999" d="M230.286,1240.879c-5.324-10.838-1.807-33.117,8.078-30.061c36.778,11.373,117.544,3.916,117.103,6.805
		l-5.63,36.869C349.037,1259.73,235.609,1251.717,230.286,1240.879L230.286,1240.879z"/>
	
		<linearGradient id="SVGID_3_" gradientUnits="userSpaceOnUse" x1="74.1606" y1="70.1044" x2="224.2014" y2="81.5659" gradientTransform="matrix(0.8055 0 0 -0.5878 178.7017 1278.2014)">
		<stop  offset="0" style="stop-color:#666666"/>
		<stop  offset="1" style="stop-color:#666666;stop-opacity:0"/>
	</linearGradient>
	<path fill="url(#SVGID_3_)" stroke="#B2B2B2" stroke-width="0.4484" stroke-dasharray="0.4484,0.4484" d="M232.738,1241.123
		c-5.063-9.865-1.719-30.148,7.682-27.365c34.974,10.354,112.07,3.564,111.675,6.195c-1.594,10.596-2.051,18.914-5.67,33.562
		C345.268,1258.197,237.8,1250.988,232.738,1241.123z"/>
	<path fill="#999999" d="M241.065,1028.357c0,3.064-6.856,72.655-0.184,54.693c1.267-3.411,0.812-6.131,0.812-6.131
		s2.235,1.167,1.758-0.766C240.655,1064.819,241.065,1028.356,241.065,1028.357L241.065,1028.357z"/>
	<path fill="#999999" d="M279.857,1040.197c0.943,2.604-4.981,33.132,3.394,41.985c2.487,2.63,1.625-1.685,1.625-1.685
		s2.503-3.09,1.902-4.927C282.541,1062.605,280.401,1039.834,279.857,1040.197L279.857,1040.197z"/>
	
		<linearGradient id="SVGID_4_" gradientUnits="userSpaceOnUse" x1="125.0625" y1="479.2089" x2="131.9684" y2="415.4055" gradientTransform="matrix(0.4856 0 0 0.6756 223.3229 740.903)">
		<stop  offset="0" style="stop-color:#CCCCCC"/>
		<stop  offset="1" style="stop-color:#999999;stop-opacity:0"/>
	</linearGradient>
	<path fill="url(#SVGID_4_)" d="M286.064,1024.267c0,2.73,8.139,46.373-1.266,52.902c-2.233,1.55-6.377-5.46-6.377-5.46
		s4.191,0.874,3.925-0.683C279.553,1054.73,285.634,1023.922,286.064,1024.267L286.064,1024.267z"/>
	<path fill="#CCCCCC" d="M329.827,1031.807c3.938,17.005-1.777,49.387,0.627,41.675c0,0-4.811-4.222-4.467-5.814
		C328.245,1057.208,328.829,1030.994,329.827,1031.807z"/>
	<path fill="#CCCCCC" d="M362.083,1094.774l-4.191,29.344c63.931-34.266,72.175-78.078,35.214-55.335
		c-6.707,4.896-13.416,13.307-20.123,22.637l-6.707,7.546L362.083,1094.774z"/>
</g>
<g transform="translate(0,-924.36217)">
	
		<linearGradient id="SVGID_5_" gradientUnits="userSpaceOnUse" x1="53.2212" y1="1085.5653" x2="51.1911" y2="988.6989" gradientTransform="matrix(-3.3594 0 0 3.3594 668.2539 -2342.7729)">
		<stop  offset="0" style="stop-color:#0E232E"/>
		<stop  offset="1" style="stop-color:#CCCCCC"/>
	</linearGradient>
	<path fill="url(#SVGID_5_)" d="M496.247,950.344c-5.377-0.111-15.072,2.658-14.11,8.198c3.699,23.155,3.695,76.015-1.575,111.605
		l-3.904-4.111c2.445-25.844-1.465-53.633-3.146-82.873c-0.204-6.001-14.657-9.521-20.372-9.011
		c-6.098,0.544-14.502,5.889-14.109,12.285c1.222,19.984-0.689,54.336-0.082,57.868l11.063,64.396
		c-0.772,0.405-28.913-38.278-46.233-45.941c-3.446-1.524-8.475-0.442-10.983,2.462c-3.173,3.673-2.739,9.971-1.576,14.771
		c1.801,7.427,9.316,11.989,12.561,18.859c6.443,13.646,13.31,43.479,13.31,43.479s25.245,42.43,33.7,65.639
		c4.786,13.141,9.348,26.955,9.407,41.018c0.092,21.893-14.11,64.014-14.11,64.014c45.814,14.256,93.236,20.078,147.335-9.035
		c0,0-29.196-67.262-25.847-92.707c9.334-70.902,19.369-90.239,22.719-148.499c1.07-18.596-1.012-37.065-3.127-55.79
		c-0.645-5.71-9.457-8.254-14.887-7.386c-4.568,0.73-9.36,5.353-7.649,9.848c8.908,23.403,1.022,51.149-2.558,65.639
		c-1.084,4.387-1.551,4.924-1.551,4.924l-1.576-8.224c0,0-3.109-66.706-0.776-92.696c0.622-6.929-10.615-11.563-17.238-10.686
		c-5.864,0.777-6.251,7.487-8.64,13.148c-6.766,16.027-6.271,52.49-6.271,52.49l-3.902,26.271l0.775,10.66l-2.352-4.924l0.775-4.924
		c8.388-7.032-5.449-70.528-7.056-99.27C513.85,954.491,503.279,950.49,496.247,950.344L496.247,950.344z"/>
	
		<linearGradient id="SVGID_6_" gradientUnits="userSpaceOnUse" x1="23.0845" y1="1036.7264" x2="72.5007" y2="1036.7264" gradientTransform="matrix(-3.3594 0 0 3.3594 668.2539 -2342.7729)">
		<stop  offset="0" style="stop-color:#2D2D2D"/>
		<stop  offset="1" style="stop-color:#364E59"/>
	</linearGradient>
	<path fill="url(#SVGID_6_)" d="M497.464,954.536c-5.578-0.111-15.632,2.634-14.636,8.122c3.837,22.94,3.834,75.307-1.634,110.565
		l-4.049-4.073c2.535-25.603-1.52-53.133-3.263-82.101c-0.212-5.945-15.202-9.432-21.129-8.927
		c-6.326,0.539-15.041,5.835-14.635,12.171c1.268,19.798-0.714,53.83-0.085,57.328l11.476,63.798
		c-0.802,0.402-29.987-37.921-47.952-45.513c-3.574-1.51-8.79-0.438-11.392,2.439c-3.291,3.64-2.842,9.879-1.635,14.635
		c1.868,7.359,9.662,11.878,13.025,18.684c6.684,13.518,13.806,43.074,13.806,43.074s26.182,42.035,34.951,65.025
		c4.965,13.02,9.695,26.703,9.758,40.637c0.094,21.688-14.636,63.416-14.636,63.416c47.518,14.123,96.7,19.893,152.811-8.951
		c0,0-30.281-66.635-26.807-91.842c9.681-70.242,20.088-89.4,23.562-147.117c1.109-18.423-0.211-35.043-2.406-53.593
		c-0.669-5.657-10.646-9.854-16.277-8.994c-4.738,0.723-8.168,7.818-6.395,12.271c9.239,23.185-10.205,50.644-4.191,62.512
		c2.047,4.04-1.609,4.878-1.609,4.878l-1.635-8.147c0,0,0.459-62.923-0.805-91.832c-0.303-6.917-16.039-10.617-22.908-9.748
		c-6.084,0.769-1.453,1.549-3.932,7.156c-7.017,15.878-6.503,57.032-6.503,57.032l-4.048,26.026l0.805,10.561l-2.439-4.878
		l0.806-4.878c8.7-6.967-5.651-69.871-7.317-98.345C515.721,958.644,504.758,954.681,497.464,954.536L497.464,954.536z"/>
	<g opacity="0.2098" enable-background="new    ">
		<path fill="#0E232E" d="M506.023,955.736c-4.789-0.109-13.418,2.585-12.563,7.977c3.293,22.526,3.289,73.948-1.403,108.57
			l-3.476-4c2.178-25.14-1.303-52.174-2.801-80.619c-0.182-5.838-13.049-9.262-18.135-8.766c-5.43,0.529-12.91,5.73-12.562,11.951
			c1.089,19.441,5.827,68.142,2.807,68.644l6.971,50.297c-0.687,0.394-26.184-19.732-38.491-7.484
			c-19.074,18.982-21.773-19.034-24.006-16.209c-2.825,3.575,9.121-8.903,10.157-4.233c1.604,7.225,8.293,11.663,11.181,18.346
			c5.736,13.275,11.85,42.297,11.85,42.297s22.476,41.275,30.002,63.854c4.263,12.783,8.321,26.221,8.374,39.902
			c0.081,21.297-12.562,62.271-12.562,62.271c40.788,13.867,83.004,19.531,131.165-8.789c0,0-25.991-65.434-23.01-90.186
			c8.311-68.977,17.244-87.787,20.227-144.463c0.951-18.09-0.9-36.058-2.784-54.273c-0.574-5.555-8.419-8.03-13.252-7.186
			c-4.067,0.711-10.61,5.208-9.087,9.581c7.93,22.767-5.161,52.2,0,63.854c1.757,3.967-1.381,4.79-1.381,4.79l-1.403-8
			c0,0,6.871-60.142-0.69-90.175c-1.646-6.534-9.451-11.249-15.347-10.396c-5.22,0.756-5.565,7.285-7.692,12.791
			c-6.022,15.591-5.582,51.063-5.582,51.063l-3.475,25.556l0.691,10.371l-2.094-4.791l0.69-4.79c7.467-6.841-4.853-68.61-6.28-96.57
			C521.693,959.77,512.283,955.878,506.023,955.736L506.023,955.736z"/>
	</g>
	<path fill="#999999" d="M452.939,1130.671l3.322,45.438c0.291,3.988,76.805-11.98,110.549,9.316
		c6.631,4.186,0.07-26.314,8.068-41.15C582.878,1129.44,452.411,1123.438,452.939,1130.671z"/>
	<path fill="#999999" stroke="#B2B2B2" stroke-width="0.5243" stroke-dasharray="0.5243,0.5243" d="M572.431,1143.942
		c-2.124-14.973-114.681-16.015-114.404-9.417l1.605,38.396c0.152,3.637,72.329-10.117,105.125,8.48
		C572.727,1185.921,574.554,1158.915,572.431,1143.942L572.431,1143.942z"/>
	<path fill="#999999" d="M579.134,1240.929c-5.323,10.838-118.751,18.852-119.551,13.613l-5.63-36.869
		c-0.441-2.889,80.324,4.568,117.103-6.805C580.941,1207.811,584.458,1230.091,579.134,1240.929L579.134,1240.929z"/>
	
		<linearGradient id="SVGID_7_" gradientUnits="userSpaceOnUse" x1="12.4526" y1="70.0194" x2="162.4924" y2="81.4808" gradientTransform="matrix(-0.8055 0 0 -0.5878 581.0121 1278.2014)">
		<stop  offset="0" style="stop-color:#666666"/>
		<stop  offset="1" style="stop-color:#666666;stop-opacity:0"/>
	</linearGradient>
	<path fill="url(#SVGID_7_)" stroke="#B2B2B2" stroke-width="0.4484" stroke-dasharray="0.4484,0.4484" d="M462.995,1253.565
		c-3.619-14.648-4.076-22.967-5.67-33.562c-0.396-2.631,76.7,4.158,111.675-6.195c9.4-2.783,12.745,17.5,7.682,27.365
		C571.619,1251.038,464.151,1258.247,462.995,1253.565z"/>
	<path fill="#999999" d="M568.354,1028.407c0-0.001,0.411,36.462-2.386,47.796c-0.478,1.933,1.759,0.766,1.759,0.766
		s-0.455,2.72,0.812,6.131C575.21,1101.062,568.354,1031.471,568.354,1028.407L568.354,1028.407z"/>
	<path fill="#999999" d="M529.562,1040.246c-0.545-0.363-2.684,22.408-6.922,35.373c-0.601,1.837,1.902,4.927,1.902,4.927
		s-0.862,4.315,1.625,1.685C534.543,1073.379,528.619,1042.851,529.562,1040.246L529.562,1040.246z"/>
	
		<linearGradient id="SVGID_8_" gradientUnits="userSpaceOnUse" x1="22.7026" y1="479.2821" x2="29.6085" y2="415.4795" gradientTransform="matrix(-0.4856 0 0 0.6756 536.391 740.903)">
		<stop  offset="0" style="stop-color:#CCCCCC"/>
		<stop  offset="1" style="stop-color:#999999;stop-opacity:0"/>
	</linearGradient>
	<path fill="url(#SVGID_8_)" d="M523.355,1024.317c0.43-0.345,6.512,30.463,3.717,46.759c-0.266,1.557,3.926,0.683,3.926,0.683
		s-4.145,7.01-6.377,5.46C515.216,1070.69,523.355,1027.047,523.355,1024.317L523.355,1024.317z"/>
	<path fill="#CCCCCC" d="M483.433,1067.718c0.344,1.592-4.467,5.814-4.467,5.814c2.404,7.712-3.311-24.67,0.627-41.675
		C480.591,1031.044,481.175,1057.258,483.433,1067.718z"/>
	<path fill="#CCCCCC" d="M443.143,1099.016l-6.707-7.546c-6.707-9.33-13.415-17.741-20.122-22.637
		c-36.962-22.743-28.718,21.069,35.214,55.335l-4.191-29.344L443.143,1099.016z"/>
</g>
</svg>
