<svg version="1.1" id="Layer_1" xmlns="http://www.w3.org/2000/svg" xmlns:xlink="http://www.w3.org/1999/xlink" viewBox="0 0 768 430" enable-background="new 0 0 768 430" xml:space="preserve">
<g transform="translate(0,-924.36217)">
	
		<linearGradient id="SVGID_1_" gradientUnits="userSpaceOnUse" x1="89.5903" y1="1078.8339" x2="87.7018" y2="988.7214" gradientTransform="matrix(3.3594 0 0 3.3594 91.4609 -2342.7729)">
		<stop  offset="0" style="stop-color:#0E232E"/>
		<stop  offset="1" style="stop-color:#CCCCCC"/>
	</linearGradient>
	<path fill="url(#SVGID_1_)" d="M386.122,952.393c-6.542,0.136-16.375,3.858-16.758,10.697
		c-1.494,26.738-14.366,85.806-6.564,92.348l0.722,4.581l-2.188,4.581l0.722-9.917l-3.631-24.439c0,0,0.46-33.92-5.834-48.83
		c-2.222-5.267-2.583-11.508-8.037-12.231c-6.162-0.815-16.615,3.496-16.037,9.941c2.17,24.178-0.722,86.233-0.722,86.233
		l-1.466,7.65c0,0-0.434-0.5-1.443-4.581c-3.331-13.479-10.666-39.291-2.379-61.062c1.592-4.182-2.866-8.482-7.117-9.161
		c-5.05-0.808-13.248,1.559-13.848,6.871c-1.968,17.419-3.904,34.601-2.909,51.9c3.116,54.198,12.452,72.187,21.135,138.145
		c3.116,23.671-24.045,86.243-24.045,86.243c50.327,27.084,94.442,21.667,137.062,8.405c0,0-13.212-39.184-13.127-59.55
		c0.056-13.082,4.299-25.935,8.751-38.158c7.866-21.591,31.351-61.062,31.351-61.062s6.388-27.753,12.382-40.448
		c3.018-6.391,10.01-10.635,11.685-17.544c1.082-4.466,1.485-10.325-1.466-13.742c-2.334-2.702-7.012-3.708-10.218-2.291
		c-16.112,7.128-42.291,43.114-43.01,42.737l10.292-59.906c0.565-3.286-1.213-35.243-0.076-53.833
		c0.365-5.95-7.453-10.922-13.126-11.428c-5.316-0.474-18.762,2.8-18.951,8.383c-1.563,27.201-5.201,53.052-2.927,77.095
		l-3.632,3.824c-4.903-33.108-4.906-82.283-1.465-103.823C400.144,954.867,391.124,952.29,386.122,952.393L386.122,952.393z"/>
	
		<linearGradient id="SVGID_2_" gradientUnits="userSpaceOnUse" x1="61.5557" y1="1033.4003" x2="107.5261" y2="1033.4003" gradientTransform="matrix(3.3594 0 0 3.3594 91.4609 -2342.7729)">
		<stop  offset="0" style="stop-color:#2D2D2D"/>
		<stop  offset="1" style="stop-color:#364E59"/>
	</linearGradient>
	<path fill="url(#SVGID_2_)" d="M384.99,956.293c-6.786,0.135-16.984,3.822-17.38,10.597c-1.55,26.489-14.9,85.007-6.807,91.488
		l0.749,4.538l-2.269,4.538l0.749-9.825l-3.766-24.211c0,0,0.478-38.284-6.049-53.056c-2.306-5.216,2.001-5.941-3.657-6.657
		c-6.39-0.809-21.03,2.634-21.312,9.068c-1.175,26.893-0.749,85.429-0.749,85.429l-1.52,7.579c0,0-3.401-0.779-1.497-4.538
		c5.594-11.041-12.495-36.585-3.899-58.153c1.65-4.143-1.541-10.743-5.948-11.416c-5.238-0.8-14.521,3.104-15.143,8.367
		c-2.042,17.257-3.27,32.718-2.238,49.856c3.233,53.692,12.914,71.514,21.92,136.858c3.232,23.45-24.938,85.438-24.938,85.438
		c52.198,26.832,97.952,21.466,142.156,8.327c0,0-13.702-38.819-13.615-58.995c0.059-12.961,4.459-25.691,9.077-37.803
		c8.158-21.388,32.515-60.491,32.515-60.491s6.625-27.495,12.843-40.071c3.129-6.331,10.38-10.535,12.117-17.381
		c1.123-4.424,1.541-10.229-1.521-13.615c-2.42-2.676-7.272-3.673-10.598-2.269c-16.712,7.062-43.862,42.713-44.608,42.339
		l10.676-59.35c0.585-3.254-1.259-34.913-0.079-53.331c0.378-5.894-7.729-10.821-13.614-11.323
		c-5.514-0.47-19.459,2.774-19.656,8.305c-1.621,26.949-5.394,52.559-3.035,76.376l-3.767,3.789
		c-5.086-32.8-5.089-81.516-1.52-102.856C399.532,958.744,390.18,956.19,384.99,956.293L384.99,956.293z"/>
	<g opacity="0.2098" enable-background="new    ">
		<path fill="#0E232E" d="M377.028,957.41c-5.824,0.132-14.578,3.752-14.919,10.406c-1.329,26.011-12.789,83.473-5.843,89.836
			l0.643,4.456l-1.948,4.457l0.643-9.648l-3.233-23.774c0,0,0.41-32.999-5.193-47.502c-1.979-5.123-2.3-11.196-7.156-11.899
			c-5.485-0.794-12.746,3.592-14.276,9.671c-7.035,27.938-0.643,83.887-0.643,83.887l-1.305,7.442c0,0-2.919-0.766-1.285-4.456
			c4.801-10.841-7.377-38.222,0-59.402c1.417-4.068-4.67-8.251-8.453-8.913c-4.496-0.785-11.794,1.518-12.328,6.685
			c-1.752,16.945-3.476,33.66-2.59,50.489c2.774,52.725,11.085,70.223,18.815,134.39c2.774,23.027-21.405,83.897-21.405,83.897
			c44.804,26.347,84.076,21.077,122.02,8.177c0,0-11.762-38.118-11.687-57.931c0.05-12.727,3.825-25.228,7.79-37.119
			c7.002-21.004,27.91-59.401,27.91-59.401s5.688-26.999,11.023-39.348c2.687-6.217,8.91-10.346,10.401-17.067
			c0.964-4.344,12.077,7.264,9.449,3.938c-2.077-2.628-4.588,32.737-22.332,15.079c-11.449-11.394-35.169,7.329-35.808,6.962
			l6.484-46.79c-2.81-0.467,1.599-45.772,2.611-63.858c0.323-5.787-6.636-10.625-11.687-11.118
			c-4.731-0.461-16.701,2.724-16.87,8.155c-1.394,26.461-4.632,51.611-2.605,74.998l-3.233,3.721
			c-4.365-32.208-4.369-80.044-1.306-101C389.51,959.814,381.482,957.308,377.028,957.41L377.028,957.41z"/>
	</g>
	<path fill="#999999" d="M312.973,1132.803c7.44,13.802,1.338,42.174,7.506,38.281c31.392-19.812,102.57-4.956,102.84-8.668
		l3.091-42.269C426.901,1113.419,305.532,1119.002,312.973,1132.803z"/>
	<path fill="#999999" stroke="#B2B2B2" stroke-width="0.4877" stroke-dasharray="0.4877,0.4877" d="M315.25,1132.493
		c-1.975,13.929-0.276,39.053,7.139,34.848c30.509-17.301,97.654-4.506,97.795-7.889l1.493-35.719
		C421.935,1117.596,317.227,1118.565,315.25,1132.493L315.25,1132.493z"/>
	<path fill="#999999" d="M309.015,1222.718c-4.953-10.082-1.681-30.808,7.515-27.965c34.213,10.58,109.348,3.643,108.937,6.331
		l-5.237,34.297C419.485,1240.255,313.967,1232.8,309.015,1222.718L309.015,1222.718z"/>
	
		<linearGradient id="SVGID_3_" gradientUnits="userSpaceOnUse" x1="171.1943" y1="100.5399" x2="310.7726" y2="111.2022" gradientTransform="matrix(0.8055 0 0 -0.5878 178.7017 1278.2014)">
		<stop  offset="0" style="stop-color:#666666"/>
		<stop  offset="1" style="stop-color:#666666;stop-opacity:0"/>
	</linearGradient>
	<path fill="url(#SVGID_3_)" stroke="#B2B2B2" stroke-width="0.4171" stroke-dasharray="0.4171,0.4171" d="M311.296,1222.945
		c-4.71-9.179-1.6-28.047,7.146-25.457c32.536,9.631,104.256,3.314,103.888,5.763c-1.482,9.856-1.908,17.596-5.274,31.223
		C415.979,1238.829,316.005,1232.122,311.296,1222.945z"/>
	<path fill="#999999" d="M319.043,1025.014c0,2.851-6.378,67.589-0.171,50.88c1.179-3.173,0.755-5.704,0.755-5.704
		s2.08,1.085,1.636-0.713C318.661,1058.933,319.043,1025.013,319.043,1025.014L319.043,1025.014z"/>
	<path fill="#999999" d="M355.13,1036.028c0.877,2.423-4.633,30.822,3.158,39.058c2.314,2.447,1.512-1.567,1.512-1.567
		s2.328-2.875,1.77-4.584C357.626,1056.874,355.636,1035.69,355.13,1036.028L355.13,1036.028z"/>
	
		<linearGradient id="SVGID_4_" gradientUnits="userSpaceOnUse" x1="279.4702" y1="470.5145" x2="285.8946" y2="411.1605" gradientTransform="matrix(0.4856 0 0 0.6756 223.3229 740.903)">
		<stop  offset="0" style="stop-color:#CCCCCC"/>
		<stop  offset="1" style="stop-color:#999999;stop-opacity:0"/>
	</linearGradient>
	<path fill="url(#SVGID_4_)" d="M360.904,1021.209c0,2.54,7.572,43.14-1.178,49.213c-2.077,1.442-5.933-5.079-5.933-5.079
		s3.899,0.813,3.652-0.636C354.847,1049.548,360.504,1020.888,360.904,1021.209L360.904,1021.209z"/>
	<path fill="#CCCCCC" d="M401.615,1028.224c3.663,15.819-1.653,45.943,0.583,38.769c0,0-4.475-3.927-4.155-5.408
		C400.144,1051.853,400.687,1027.467,401.615,1028.224z"/>
	<path fill="#CCCCCC" d="M431.623,1086.8l-3.899,27.298c59.474-31.877,67.144-72.634,32.759-51.477
		c-6.239,4.555-12.479,12.379-18.719,21.059l-6.24,7.02L431.623,1086.8z"/>
</g>
</svg>
