
<svg version="1.1" id="Layer_1" xmlns="http://www.w3.org/2000/svg" xmlns:xlink="http://www.w3.org/1999/xlink" viewBox="0 0 768 430" enable-background="new 0 0 768 430" xml:space="preserve">
<g>
	<g>
		<path fill="#B67746" d="M572.01,242.042c-0.151,4.514-4.257,18.072-8.335,23.842s-12.36,9.281-16.138,10.773
			c-3.778,1.492-3.844,1.576-6.529-1.822c-2.685-3.4-8.606-11.982-9.585-18.574c-0.978-6.594,1.673-17.564,3.72-20.982
			c2.049-3.416,3.662-0.105,8.57,0.48c4.905,0.587,16.151,1.993,20.868,3.041c4.717,1.047,7.58-1.273,7.431,3.242H572.01z"/>
		<path fill="#805331" d="M554.838,230.153c0.489,0.197,3.697-5.368,3.851-6.678c0.155-1.311-2.281-2.293-2.924-1.18
			C555.124,223.408,554.352,229.958,554.838,230.153L554.838,230.153z"/>
		<path fill="#805331" d="M576.145,242.398c0.183-2.026,0.057-4.326-2.427-6.619c-2.484-2.293-9.024-5.631-12.476-7.141
			c-3.452-1.509-4.873-1.437-8.234-1.915c-3.36-0.48-8.666-1.311-11.931-0.961c-3.263,0.352-5.915,1.802-7.655,3.062
			c-1.74,1.26-2.562,2.834-2.784,4.498c-0.222,1.663-0.263,4.326,1.452,5.482s5.254,0.87,8.838,1.452
			c3.585,0.582,8.945,1.173,12.67,2.039s6.51,2.222,9.681,3.161c3.17,0.939,7.198,2.986,9.343,2.477
			S575.961,244.423,576.145,242.398L576.145,242.398z"/>
		<path fill-opacity="0" d="M573.538,246.229c-4.876-3.152-24.379-15.762-29.255-18.914"/>
		
			<path fill="none" stroke="#644026" stroke-width="1.9924" stroke-linecap="round" stroke-linejoin="round" stroke-miterlimit="10" d="
			M573.538,246.229c-4.876-3.152-24.379-15.762-29.255-18.914"/>
		<path fill-opacity="0" d="M562.848,244.35c-4.129-2.575-20.647-12.875-24.777-15.45"/>
		
			<path fill="none" stroke="#644026" stroke-width="1.9924" stroke-linecap="round" stroke-linejoin="round" stroke-miterlimit="10" d="
			M562.848,244.35c-4.129-2.575-20.647-12.875-24.777-15.45"/>
		<path fill-opacity="0" d="M546.818,239.715c-2.207-1.372-11.037-6.855-13.243-8.228"/>
		
			<path fill="none" stroke="#644026" stroke-width="1.9924" stroke-linecap="round" stroke-linejoin="round" stroke-miterlimit="10" d="
			M546.818,239.715c-2.207-1.372-11.037-6.855-13.243-8.228"/>
		<path fill-opacity="0" d="M574.836,241.839c-3.675-2.242-18.37-11.209-22.042-13.452"/>
		
			<path fill="none" stroke="#644026" stroke-width="1.9924" stroke-linecap="round" stroke-linejoin="round" stroke-miterlimit="10" d="
			M574.836,241.839c-3.675-2.242-18.37-11.209-22.042-13.452"/>
		<path fill-opacity="0" d="M573.788,237.966c-6.622-0.23-33.112-1.146-39.736-1.377"/>
		
			<path fill="none" stroke="#644026" stroke-width="1.9924" stroke-linecap="round" stroke-linejoin="round" stroke-miterlimit="10" d="
			M573.788,237.966c-6.622-0.23-33.112-1.146-39.736-1.377"/>
		<path fill-opacity="0" d="M568.189,233.337c-5.853-0.05-29.264-0.252-35.115-0.301"/>
		
			<path fill="none" stroke="#644026" stroke-width="1.9924" stroke-linecap="round" stroke-linejoin="round" stroke-miterlimit="10" d="
			M568.189,233.337c-5.853-0.05-29.264-0.252-35.115-0.301"/>
		<path fill-opacity="0" d="M559.788,229.409c-4.312,0.107-21.565,0.533-25.877,0.639"/>
		
			<path fill="none" stroke="#644026" stroke-width="1.9924" stroke-linecap="round" stroke-linejoin="round" stroke-miterlimit="10" d="
			M559.788,229.409c-4.312,0.107-21.565,0.533-25.877,0.639"/>
		<path fill-opacity="0" d="M574.967,241.268c-3.642-0.091-18.207-0.454-21.849-0.544"/>
		
			<path fill="none" stroke="#644026" stroke-width="1.9924" stroke-linecap="round" stroke-linejoin="round" stroke-miterlimit="10" d="
			M574.967,241.268c-3.642-0.091-18.207-0.454-21.849-0.544"/>
		<path fill-opacity="0" d="M574.801,243.802c-2.163,0.027-10.811,0.133-12.973,0.16"/>
		
			<path fill="none" stroke="#644026" stroke-width="1.9924" stroke-linecap="round" stroke-linejoin="round" stroke-miterlimit="10" d="
			M574.801,243.802c-2.163,0.027-10.811,0.133-12.973,0.16"/>
		<path fill="#B67746" d="M561.771,317.606c4.627,3.023,22.576,9.641,30.807,10.229s14.807-4.5,18.579-6.703
			s4.302-2.703,4.054-6.514c-0.247-3.809,0.028-10.393-5.537-16.346c-5.566-5.951-22.902-17.52-27.856-19.365
			c-4.953-1.844,0.964,3.17-1.868,8.303c-2.834,5.133-12.103,17.426-15.132,22.492S557.145,314.585,561.771,317.606L561.771,317.606
			z"/>
		<path fill="#805331" d="M565.531,294.112c-0.495,0.717-9.849-2.596-11.225-3.975s1.097-4.963,2.969-4.301
			C559.146,286.499,566.024,293.396,565.531,294.112L565.531,294.112z"/>
		<path fill="#805331" d="M556.678,322.944c-1.897-1.49-3.768-3.5-3.627-7.764s2.832-13.271,4.468-17.818
			c1.638-4.545,2.909-5.85,5.355-9.463c2.444-3.613,6.24-9.379,9.316-12.217c3.078-2.842,6.579-4.189,9.144-4.822
			c2.563-0.631,4.614-0.125,6.232,1.029c1.62,1.154,3.945,3.303,3.48,5.895c-0.464,2.594-3.719,5.75-6.266,9.662
			c-2.548,3.912-6.599,9.533-9.021,13.814s-3.625,8.062-5.513,11.873c-1.889,3.809-3.555,9.35-5.815,10.986
			C562.17,325.755,558.574,324.433,556.678,322.944L556.678,322.944z"/>
		<path fill-opacity="0" d="M561.92,322.468c1.594-7.17,7.966-35.859,9.56-43.031"/>
		
			<path fill="none" stroke="#644026" stroke-width="1.9924" stroke-linecap="round" stroke-linejoin="round" stroke-miterlimit="10" d="
			M561.92,322.468c1.594-7.17,7.966-35.859,9.56-43.031"/>
		<path fill-opacity="0" d="M569.344,310.659c1.424-6,7.118-30.004,8.542-36.004"/>
		
			<path fill="none" stroke="#644026" stroke-width="1.9924" stroke-linecap="round" stroke-linejoin="round" stroke-miterlimit="10" d="
			M569.344,310.659c1.424-6,7.118-30.004,8.542-36.004"/>
		<path fill-opacity="0" d="M579.054,291.53c0.765-3.203,3.825-16.018,4.591-19.221"/>
		
			<path fill="none" stroke="#644026" stroke-width="1.9924" stroke-linecap="round" stroke-linejoin="round" stroke-miterlimit="10" d="
			M579.054,291.53c0.765-3.203,3.825-16.018,4.591-19.221"/>
		<path fill-opacity="0" d="M557.409,320.315c1.306-5.301,6.523-26.502,7.828-31.803"/>
		
			<path fill="none" stroke="#644026" stroke-width="1.9924" stroke-linecap="round" stroke-linejoin="round" stroke-miterlimit="10" d="
			M557.409,320.315c1.306-5.301,6.523-26.502,7.828-31.803"/>
		<path fill-opacity="0" d="M555.25,316.292c5.331-6.592,26.656-32.957,31.986-39.549"/>
		
			<path fill="none" stroke="#644026" stroke-width="1.9924" stroke-linecap="round" stroke-linejoin="round" stroke-miterlimit="10" d="
			M555.25,316.292c5.331-6.592,26.656-32.957,31.986-39.549"/>
		<path fill-opacity="0" d="M556.291,307.272c4.83-5.707,24.153-28.533,28.984-34.24"/>
		
			<path fill="none" stroke="#644026" stroke-width="1.9924" stroke-linecap="round" stroke-linejoin="round" stroke-miterlimit="10" d="
			M556.291,307.272c4.83-5.707,24.153-28.533,28.984-34.24"/>
		<path fill-opacity="0" d="M560.218,296.081c3.671-4.094,18.358-20.471,22.032-24.564"/>
		
			<path fill="none" stroke="#644026" stroke-width="1.9924" stroke-linecap="round" stroke-linejoin="round" stroke-miterlimit="10" d="
			M560.218,296.081c3.671-4.094,18.358-20.471,22.032-24.564"/>
		<path fill-opacity="0" d="M556.85,319.999c2.959-3.598,14.795-17.984,17.755-21.58"/>
		
			<path fill="none" stroke="#644026" stroke-width="1.9924" stroke-linecap="round" stroke-linejoin="round" stroke-miterlimit="10" d="
			M556.85,319.999c2.959-3.598,14.795-17.984,17.755-21.58"/>
		<path fill-opacity="0" d="M558.974,321.802c1.819-2.072,9.099-10.363,10.919-12.438"/>
		
			<path fill="none" stroke="#644026" stroke-width="1.9924" stroke-linecap="round" stroke-linejoin="round" stroke-miterlimit="10" d="
			M558.974,321.802c1.819-2.072,9.099-10.363,10.919-12.438"/>
		<path fill="#A3467B" d="M585.402,166.761c-4.924-2.855-18.686-7.773-25.795-7.951c-7.108-0.177-12.503,1.795-16.858,6.887
			c-4.354,5.092-6.545,17.045-9.271,23.665c-2.728,6.619-7.114,13.094-7.092,16.054c0.024,2.961,2.565,1.146,7.233,1.709
			c4.667,0.564,12.928,2.593,20.773,1.674c7.844-0.92,20.5-1.713,26.292-7.189c5.794-5.476,7.681-19.858,8.467-25.667
			C589.937,170.135,590.326,169.616,585.402,166.761L585.402,166.761z"/>
		<path fill="#743157" d="M544.629,197.073c-3.052,2.589,7.361-2.461,14.945-6.606c7.586-4.145,22.627-14.471,30.562-18.259
			s14.297-3.103,17.053-4.469c2.756-1.367,0.183-2.167-0.516-3.731s-2.28-5.167-3.682-5.658c-1.4-0.492-0.542-0.056-4.726,2.708
			c-4.185,2.765-11.439,7.875-20.38,13.878C568.948,180.939,547.681,194.486,544.629,197.073L544.629,197.073z"/>
		<path fill="#B67746" d="M539.989,136.291c-2.363,3.944-12.759,15.936-18.114,19.848c-5.354,3.913-10.969,3.436-14.019,3.626
			c-3.049,0.19-3.521,0.093-4.274-2.482c-0.751-2.576-2.518-6.726-0.231-12.972c2.284-6.246,11.078-21.185,13.944-24.505
			c2.863-3.322,0.117,2.468,3.244,4.579c3.126,2.111,12.272,6.104,15.513,8.088C539.295,134.457,542.352,132.347,539.989,136.291
			L539.989,136.291z"/>
		<path fill="#805331" d="M531.826,122.671c0.502,0.252,5.952-5.907,6.538-7.392c0.588-1.484-1.927-2.746-3.017-1.515
			C534.259,114.996,531.323,122.419,531.826,122.671L531.826,122.671z"/>
		<path fill="#805331" d="M544.672,137.566c0.907-1.779,1.672-3.885,0.555-6.589c-1.12-2.704-5.084-7.388-7.271-9.633
			c-2.188-2.245-3.351-2.544-5.853-3.837s-6.424-3.402-9.16-3.922c-2.738-0.521-5.401,0.108-7.266,0.798
			c-1.863,0.689-3.11,1.899-3.914,3.342c-0.804,1.442-1.841,3.833-0.906,5.314c0.935,1.482,3.866,2.13,6.509,3.574
			c2.642,1.443,6.698,3.349,9.346,5.085c2.646,1.735,4.36,3.671,6.536,5.33c2.178,1.66,4.624,4.538,6.527,4.627
			S543.763,139.346,544.672,137.566L544.672,137.566z"/>
		<path fill-opacity="0" d="M541.06,139.506c-2.789-3.966-13.945-19.828-16.734-23.793"/>
		
			<path fill="none" stroke="#644026" stroke-width="1.9924" stroke-linecap="round" stroke-linejoin="round" stroke-miterlimit="10" d="
			M541.06,139.506c-2.789-3.966-13.945-19.828-16.734-23.793"/>
		<path fill-opacity="0" d="M533.26,135.033c-2.395-3.279-11.969-16.395-14.363-19.674"/>
		
			<path fill="none" stroke="#644026" stroke-width="1.9924" stroke-linecap="round" stroke-linejoin="round" stroke-miterlimit="10" d="
			M533.26,135.033c-2.395-3.279-11.969-16.395-14.363-19.674"/>
		<path fill-opacity="0" d="M522.176,126.802c-1.281-1.749-6.406-8.741-7.688-10.49"/>
		
			<path fill="none" stroke="#644026" stroke-width="1.9924" stroke-linecap="round" stroke-linejoin="round" stroke-miterlimit="10" d="
			M522.176,126.802c-1.281-1.749-6.406-8.741-7.688-10.49"/>
		<path fill-opacity="0" d="M543.553,136.175c-2.146-2.876-10.731-14.381-12.875-17.257"/>
		
			<path fill="none" stroke="#644026" stroke-width="1.9924" stroke-linecap="round" stroke-linejoin="round" stroke-miterlimit="10" d="
			M543.553,136.175c-2.146-2.876-10.731-14.381-12.875-17.257"/>
		<path fill-opacity="0" d="M544.028,132.64c-5.146-1.985-25.728-9.928-30.873-11.914"/>
		
			<path fill="none" stroke="#644026" stroke-width="1.9924" stroke-linecap="round" stroke-linejoin="round" stroke-miterlimit="10" d="
			M544.028,132.64c-5.146-1.985-25.728-9.928-30.873-11.914"/>
		<path fill-opacity="0" d="M541.161,127.238c-4.598-1.627-22.992-8.135-27.592-9.761"/>
		
			<path fill="none" stroke="#644026" stroke-width="1.9924" stroke-linecap="round" stroke-linejoin="round" stroke-miterlimit="10" d="
			M541.161,127.238c-4.598-1.627-22.992-8.135-27.592-9.761"/>
		<path fill-opacity="0" d="M535.848,121.669c-3.437-1.079-17.185-5.393-20.621-6.471"/>
		
			<path fill="none" stroke="#644026" stroke-width="1.9924" stroke-linecap="round" stroke-linejoin="round" stroke-miterlimit="10" d="
			M535.848,121.669c-3.437-1.079-17.185-5.393-20.621-6.471"/>
		<path fill-opacity="0" d="M543.85,135.73c-2.842-1.062-14.205-5.311-17.047-6.373"/>
		
			<path fill="none" stroke="#644026" stroke-width="1.9924" stroke-linecap="round" stroke-linejoin="round" stroke-miterlimit="10" d="
			M543.85,135.73c-2.842-1.062-14.205-5.311-17.047-6.373"/>
		<path fill-opacity="0" d="M542.868,137.808c-1.714-0.563-8.57-2.815-10.282-3.378"/>
		
			<path fill="none" stroke="#644026" stroke-width="1.9924" stroke-linecap="round" stroke-linejoin="round" stroke-miterlimit="10" d="
			M542.868,137.808c-1.714-0.563-8.57-2.815-10.282-3.378"/>
		<path fill="#B67746" d="M295.12,305.321c0.516,3.945,6.167,14.891,11.191,18.969c5.026,4.078,14.597,5.121,18.956,5.5
			c4.358,0.381,4.438,0.438,7.193-3.229c2.757-3.666,8.75-12.707,9.341-18.766c0.594-6.059-3.225-15.082-5.788-17.588
			c-2.562-2.508-4.121,0.814-9.587,2.549c-5.467,1.734-17.992,5.766-23.21,7.861C297.999,302.712,294.604,301.376,295.12,305.321
			L295.12,305.321z"/>
		<path fill="#805331" d="M312.599,288.376c-0.532,0.295-4.562-3.818-4.836-4.936s2.387-2.59,3.193-1.768
			C311.764,282.497,313.132,288.083,312.599,288.376L312.599,288.376z"/>
		<path fill="#805331" d="M290.093,305.659c-0.488-2.053-0.663-4.453,1.846-7.352c2.507-2.898,9.485-7.738,13.204-10.033
			s5.346-2.523,9.102-3.734c3.757-1.211,9.677-3.199,13.439-3.533c3.762-0.334,6.979,0.6,9.135,1.531
			c2.153,0.93,3.306,2.381,3.789,4.053c0.482,1.67,0.898,4.412-0.894,5.971c-1.791,1.561-5.856,2.02-9.854,3.383
			c-3.998,1.365-10.013,3.117-14.131,4.807c-4.117,1.689-7.099,3.682-10.576,5.328c-3.478,1.646-7.776,4.621-10.288,4.549
			C292.354,310.558,290.58,307.714,290.093,305.659L290.093,305.659z"/>
		<path fill-opacity="0" d="M339.26,289.948c-6.71,0.525-33.553,2.629-40.264,3.154"/>
		
			<path fill="none" stroke="#644026" stroke-width="1.9924" stroke-linecap="round" stroke-linejoin="round" stroke-miterlimit="10" d="
			M339.26,289.948c-6.71,0.525-33.553,2.629-40.264,3.154"/>
		<path fill-opacity="0" d="M327.735,295.345c-5.623,0.523-28.115,2.625-33.74,3.15"/>
		
			<path fill="none" stroke="#644026" stroke-width="1.9924" stroke-linecap="round" stroke-linejoin="round" stroke-miterlimit="10" d="
			M327.735,295.345c-5.623,0.523-28.115,2.625-33.74,3.15"/>
		<path fill-opacity="0" d="M309.304,301.899c-3.002,0.287-15.012,1.428-18.015,1.711"/>
		
			<path fill="none" stroke="#644026" stroke-width="1.9924" stroke-linecap="round" stroke-linejoin="round" stroke-miterlimit="10" d="
			M309.304,301.899c-3.002,0.287-15.012,1.428-18.015,1.711"/>
		<path fill-opacity="0" d="M337.737,285.396c-4.972,0.51-24.859,2.543-29.83,3.051"/>
		
			<path fill="none" stroke="#644026" stroke-width="1.9924" stroke-linecap="round" stroke-linejoin="round" stroke-miterlimit="10" d="
			M337.737,285.396c-4.972,0.51-24.859,2.543-29.83,3.051"/>
		<path fill-opacity="0" d="M334.273,282.808c-6.547,4.133-32.738,20.666-39.286,24.799"/>
		
			<path fill="none" stroke="#644026" stroke-width="1.9924" stroke-linecap="round" stroke-linejoin="round" stroke-miterlimit="10" d="
			M334.273,282.808c-6.547,4.133-32.738,20.666-39.286,24.799"/>
		<path fill-opacity="0" d="M325.927,282.558c-5.689,3.781-28.45,18.908-34.141,22.689"/>
		
			<path fill="none" stroke="#644026" stroke-width="1.9924" stroke-linecap="round" stroke-linejoin="round" stroke-miterlimit="10" d="
			M325.927,282.558c-5.689,3.781-28.45,18.908-34.141,22.689"/>
		<path fill-opacity="0" d="M315.319,284.735c-4.103,2.908-20.512,14.537-24.615,17.445"/>
		
			<path fill="none" stroke="#644026" stroke-width="1.9924" stroke-linecap="round" stroke-linejoin="round" stroke-miterlimit="10" d="
			M315.319,284.735c-4.103,2.908-20.512,14.537-24.615,17.445"/>
		<path fill-opacity="0" d="M337.505,284.825c-3.579,2.303-17.889,11.512-21.467,13.814"/>
		
			<path fill="none" stroke="#644026" stroke-width="1.9924" stroke-linecap="round" stroke-linejoin="round" stroke-miterlimit="10" d="
			M337.505,284.825c-3.579,2.303-17.889,11.512-21.467,13.814"/>
		<path fill-opacity="0" d="M338.944,287.073c-2.072,1.436-10.367,7.176-12.438,8.609"/>
		
			<path fill="none" stroke="#644026" stroke-width="1.9924" stroke-linecap="round" stroke-linejoin="round" stroke-miterlimit="10" d="
			M338.944,287.073c-2.072,1.436-10.367,7.176-12.438,8.609"/>
		<path fill="#F38E3F" d="M362.344,152.648c-5.868-0.351-14.443-2.44-19.422-3.571c-4.979-1.131-7.591-1.17-10.453-3.213
			c-2.863-2.042-4.997-6.259-6.725-9.043c-1.728-2.783-5.397-5.619-3.643-7.658c1.754-2.041,9.49-3.951,14.172-4.583
			c4.684-0.633,9.167-0.78,13.926,0.791c4.756,1.57,10.194,6.076,14.622,8.636c4.426,2.559,9.718,3.858,11.937,6.72
			c2.22,2.861,3.779,8.464,1.376,10.451c-2.402,1.987-9.92,1.82-15.789,1.47H362.344z"/>
		<path fill="#F38E3F" d="M369.3,144.376c-4.635,0.424-13.167-6.964-17.155-12.707c-3.989-5.744-6.651-15.472-6.775-21.757
			c-0.125-6.285,4.614-12.76,6.028-15.955c1.414-3.194-0.097-3.845,2.456-3.213c2.554,0.633,9.226,4.062,12.866,7.007
			c3.64,2.945,6.773,5.438,8.977,10.667c2.205,5.229,5.317,14.714,4.25,20.707C378.88,135.119,373.933,143.953,369.3,144.376
			L369.3,144.376z"/>
		<path fill="#F38E3F" d="M384.393,146.371c4.365-4.075,9.698-11.231,12.85-15.322c3.153-4.092,5.171-5.816,6.064-9.229
			c0.895-3.411-0.513-8.039-0.702-11.24c-0.188-3.201,2.582-7.452-0.431-7.965c-3.013-0.513-13.268,2.365-17.646,4.887
			c-4.377,2.522-6.23,5.865-8.625,10.25c-2.396,4.384-3.972,11.238-5.749,16.057c-1.775,4.819-5.062,9.242-4.91,12.858
			c0.151,3.616,2.627,8.886,5.819,8.838C374.254,155.454,380.031,150.446,384.393,146.371L384.393,146.371z"/>
		<path fill="#F38E3F" d="M373.566,137.859c4.968-1.635,13.742-4.092,19.176-4.164c5.436-0.073,9.803,2.672,13.431,3.729
			c3.63,1.058,8.691,0.61,8.343,2.616c-0.348,2.006-5.515,6.696-10.43,9.418c-4.914,2.722-13.06,6.327-19.059,6.916
			c-5.997,0.589-13.248-1.237-16.931-3.381c-3.683-2.145-6.073-6.963-5.162-9.486C363.846,140.985,368.598,139.495,373.566,137.859
			L373.566,137.859z"/>
		<path fill="#F38E3F" d="M364.725,139.721c-4.626,1.097-12.586,3.465-16.803,6.384s-6.229,8.073-8.502,11.129
			c-2.272,3.057-6.387,5.395-5.133,7.212c1.251,1.817,7.533,3.671,12.652,3.693c5.118,0.022,13.159-0.851,18.063-3.562
			c4.905-2.711,9.587-8.531,11.368-12.707c1.779-4.175,1.251-10.319-0.688-12.343C373.74,137.502,369.352,138.625,364.725,139.721
			L364.725,139.721z"/>
		<path fill="#D07936" d="M366.884,131.153c1.425,5.66,3.79,12.533,5.192,19.944c1.405,7.411,2.071,19.857,3.23,24.521
			c1.159,4.665,2.607,2.774,3.722,3.464c1.114,0.69,3.308,5.221,2.959,0.678c-0.349-4.542-2.929-19.199-5.055-27.937
			c-2.126-8.736-5.469-18.704-7.705-24.483c-2.235-5.781-5.315-10.837-5.707-10.202
			C363.131,117.774,365.458,125.493,366.884,131.153L366.884,131.153z"/>
		<path fill="#F3BE16" d="M397.857,308.915c-1.563-0.096-4.243-3.545-7.343-3.348c-3.101,0.195-8.309,3.771-11.258,4.52
			c-2.951,0.748-4.455,0.803-6.442-0.031c-1.989-0.832-4.825-3.23-5.487-4.969c-0.665-1.74,0.75-3.85,1.5-5.467
			c0.751-1.613,2.696-3.059,3.001-4.229c0.305-1.168-0.375-2.297-1.169-2.783c-0.796-0.484-1.736-0.668-3.604-0.131
			c-1.868,0.539-5.091,3.338-7.604,3.363c-2.514,0.023-6.125-1.588-7.478-3.217c-1.355-1.627-1.537-4.67-0.647-6.547
			c0.89-1.879,4.562-3.467,5.983-4.723c1.421-1.254,2.015-1.775,2.547-2.805c0.532-1.031,0.867-2.395,0.647-3.373
			c-0.221-0.98-1.122-2.109-1.966-2.508c-0.842-0.4-1.361-0.297-3.097,0.107c-1.733,0.406-4.966,2.346-7.306,2.322
			c-2.339-0.025-5.418-0.969-6.734-2.469c-1.315-1.5-2.16-4.627-1.163-6.531s5.264-3.344,7.15-4.893
			c1.885-1.547,3.594-2.961,4.166-4.398s0.279-2.801-0.738-4.227c-1.018-1.424-4.068-2.562-5.373-4.318
			c-1.304-1.756-2.647-3.999-2.453-6.217c0.193-2.219,1.815-5.463,3.616-7.097c1.802-1.633,5.054-2.927,7.193-2.702
			c2.14,0.225,4.012,2.283,5.641,4.054c1.63,1.77,2.871,5.384,4.138,6.565c1.266,1.18,2.107,1.041,3.459,0.521
			c1.352-0.52,3.142-2.88,4.651-3.643c1.51-0.766,2.854-1.248,4.408-0.94c1.553,0.309,3.64,1.376,4.917,2.79
			c1.275,1.416,2.564,3.646,2.741,5.701c0.178,2.057-1.042,4.674-1.675,6.631c-0.632,1.957-2.256,3.635-2.12,5.111
			c0.134,1.477,1.454,3.246,2.936,3.752c1.482,0.504,4.138-0.941,5.955-0.727c1.818,0.215,3.979,0.91,4.948,2.016
			c0.968,1.105,1.095,3.02,0.861,4.619c-0.232,1.6-1.592,3.363-2.256,4.975c-0.664,1.613-1.951,3.227-1.729,4.701
			s1.604,3.486,3.061,4.145c1.456,0.656,3.949-0.463,5.679-0.201c1.729,0.262,3.69,0.664,4.7,1.768
			c1.009,1.102,1.702,3.139,1.356,4.848s-2.349,3.498-3.432,5.404s-2.714,4.068-3.07,6.035c-0.355,1.967,1.119,4.342,0.935,5.766
			c-0.183,1.424-0.477,2.873-2.04,2.777H397.857z"/>
		<path fill="#D2A73D" d="M400.428,318.999c-3.712-3.947-6.446-14.826-14.523-27.447c-8.079-12.621-30.067-41.975-33.946-48.279
			c-3.877-6.307,4.79,3.287,10.676,10.447c5.886,7.156,18.552,23.848,24.638,32.502c6.084,8.654,8.388,14.586,11.872,19.424
			c3.483,4.838,8.819,7.377,9.032,9.604C408.39,317.474,404.139,322.948,400.428,318.999L400.428,318.999z"/>
		<path fill="#A3467B" d="M401.809,221.782c-2.935-4.463-8.206-17.386-8.669-24.409c-0.463-7.023,1.202-12.663,5.894-17.729
			c4.691-5.066,16.035-8.993,22.254-12.669c6.221-3.676,12.231-8.977,15.065-9.389s1.202,2.375,1.935,6.92
			c0.73,4.545,3.012,12.439,2.457,20.353c-0.557,7.914-0.793,20.579-5.792,27.128c-5,6.549-18.682,10.531-24.205,12.164
			S404.743,226.245,401.809,221.782L401.809,221.782z"/>
		<path fill="#743157" d="M429.124,176.905c2.351-3.407-2.053,7.661-5.704,15.79c-3.65,8.13-12.911,24.561-16.207,32.986
			c-3.298,8.426-2.379,14.633-3.572,17.566c-1.194,2.934-2.064,0.5-3.591,0.036c-1.525-0.464-5.036-1.501-5.564-2.818
			s-0.075-0.528,2.396-5.084c2.474-4.556,7.062-12.501,12.436-22.247c5.375-9.747,17.457-32.823,19.806-36.229H429.124z"/>
		<path fill="#B67746" d="M453.951,125.116c0.932-5.098,0.786-22.974-1.082-30.263c-1.867-7.288-7.448-11.046-10.123-13.468
			s-3.191-2.69-5.927-1.062c-2.734,1.627-7.656,3.837-10.479,10.829c-2.825,6.992-6.496,26.183-6.469,31.124
			s2.063-2.006,6.632-1.479c4.569,0.527,16.205,3.92,20.779,4.64C451.858,126.156,453.021,130.212,453.951,125.116L453.951,125.116z
			"/>
		<path fill="#805331" d="M435.609,130.619c0.665,0.159,0.841,9.423,0.21,11.118c-0.63,1.694-3.959,0.901-3.994-0.952
			C431.791,138.932,434.943,130.461,435.609,130.619L435.609,130.619z"/>
		<path fill="#805331" d="M459.3,127.505c-0.566,2.183-1.522,4.536-4.7,6c-3.177,1.463-10.558,2.499-14.36,2.781
			c-3.805,0.283-5.118-0.325-8.461-1.082c-3.343-0.758-8.646-1.877-11.595-3.465c-2.949-1.587-4.921-4.095-6.103-6.062
			c-1.181-1.967-1.381-3.917-0.984-5.737c0.397-1.82,1.328-4.615,3.366-5.18c2.037-0.564,5.269,1.059,8.861,1.794
			c3.591,0.735,8.858,2.125,12.686,2.615c3.828,0.49,6.946,0.118,10.277,0.325s7.875-0.422,9.711,0.913
			C459.833,121.743,459.866,125.323,459.3,127.505L459.3,127.505z"/>
		<path fill-opacity="0" d="M457.485,123.182c-5.724,1.296-28.617,6.48-34.34,7.776"/>
		
			<path fill="none" stroke="#644026" stroke-width="1.9924" stroke-linecap="round" stroke-linejoin="round" stroke-miterlimit="10" d="
			M457.485,123.182c-5.724,1.296-28.617,6.48-34.34,7.776"/>
		<path fill-opacity="0" d="M446.716,121.195c-4.812,1.007-24.067,5.034-28.881,6.04"/>
		
			<path fill="none" stroke="#644026" stroke-width="1.9924" stroke-linecap="round" stroke-linejoin="round" stroke-miterlimit="10" d="
			M446.716,121.195c-4.812,1.007-24.067,5.034-28.881,6.04"/>
		<path fill-opacity="0" d="M429.926,119.958c-2.571,0.533-12.855,2.665-15.426,3.198"/>
		
			<path fill="none" stroke="#644026" stroke-width="1.9924" stroke-linecap="round" stroke-linejoin="round" stroke-miterlimit="10" d="
			M429.926,119.958c-2.571,0.533-12.855,2.665-15.426,3.198"/>
		<path fill-opacity="0" d="M457.163,127.857c-4.264,0.849-21.324,4.243-25.59,5.092"/>
		
			<path fill="none" stroke="#644026" stroke-width="1.9924" stroke-linecap="round" stroke-linejoin="round" stroke-miterlimit="10" d="
			M457.163,127.857c-4.264,0.849-21.324,4.243-25.59,5.092"/>
		<path fill-opacity="0" d="M454.803,131.206c-6.341-2.13-31.703-10.651-38.044-12.781"/>
		
			<path fill="none" stroke="#644026" stroke-width="1.9924" stroke-linecap="round" stroke-linejoin="round" stroke-miterlimit="10" d="
			M454.803,131.206c-6.341-2.13-31.703-10.651-38.044-12.781"/>
		<path fill-opacity="0" d="M447.877,133.667c-5.549-2.03-27.749-10.146-33.297-12.175"/>
		
			<path fill="none" stroke="#644026" stroke-width="1.9924" stroke-linecap="round" stroke-linejoin="round" stroke-miterlimit="10" d="
			M447.877,133.667c-5.549-2.03-27.749-10.146-33.297-12.175"/>
		<path fill-opacity="0" d="M438.541,134.451c-4.038-1.633-20.194-8.165-24.233-9.797"/>
		
			<path fill="none" stroke="#644026" stroke-width="1.9924" stroke-linecap="round" stroke-linejoin="round" stroke-miterlimit="10" d="
			M438.541,134.451c-4.038-1.633-20.194-8.165-24.233-9.797"/>
		<path fill-opacity="0" d="M457.087,128.455c-3.474-1.205-17.368-6.027-20.843-7.232"/>
		
			<path fill="none" stroke="#644026" stroke-width="1.9924" stroke-linecap="round" stroke-linejoin="round" stroke-miterlimit="10" d="
			M457.087,128.455c-3.474-1.205-17.368-6.027-20.843-7.232"/>
		<path fill-opacity="0" d="M457.818,125.963c-2.034-0.793-10.17-3.964-12.205-4.757"/>
		
			<path fill="none" stroke="#644026" stroke-width="1.9924" stroke-linecap="round" stroke-linejoin="round" stroke-miterlimit="10" d="
			M457.818,125.963c-2.034-0.793-10.17-3.964-12.205-4.757"/>
		<path fill="#B67746" d="M325.891,224.775c5.092,2.146,23.937,5.448,32.14,4.554c8.203-0.894,13.763-7.074,17.081-9.916
			c3.318-2.841,3.75-3.429,2.826-7.133s-1.832-10.231-8.373-15.092c-6.541-4.86-25.666-13.145-30.87-14.073
			c-5.205-0.929,1.515,2.946-0.355,8.502c-1.87,5.556-8.791,19.309-10.864,24.835C325.4,221.978,320.799,222.629,325.891,224.775
			L325.891,224.775z"/>
		<path fill="#805331" d="M325.385,200.983c-0.357,0.794-10.153-0.793-11.751-1.903c-1.603-1.111,0.189-5.08,2.149-4.763
			C317.743,194.634,325.744,200.189,325.385,200.983L325.385,200.983z"/>
		<path fill="#805331" d="M321.834,230.939c-2.133-1.127-4.332-2.771-4.956-6.99c-0.625-4.22,0.413-13.564,1.211-18.33
			c0.797-4.767,1.815-6.276,3.576-10.269c1.759-3.993,4.463-10.343,6.982-13.688c2.519-3.344,5.724-5.297,8.134-6.376
			c2.407-1.081,4.518-0.949,6.318-0.103c1.798,0.846,4.471,2.544,4.477,5.178c0.006,2.634-2.631,6.321-4.438,10.625
			c-1.807,4.306-4.787,10.56-6.406,15.205c-1.616,4.646-2.124,8.581-3.302,12.667c-1.175,4.086-1.824,9.836-3.757,11.85
			C327.742,232.722,323.967,232.065,321.834,230.939L321.834,230.939z"/>
		<path fill-opacity="0" d="M326.902,229.528c0.287-7.341,1.428-36.707,1.712-44.048"/>
		
			<path fill="none" stroke="#644026" stroke-width="1.9924" stroke-linecap="round" stroke-linejoin="round" stroke-miterlimit="10" d="
			M326.902,229.528c0.287-7.341,1.428-36.707,1.712-44.048"/>
		<path fill-opacity="0" d="M332.097,216.582c0.328-6.158,1.638-30.791,1.966-36.949"/>
		
			<path fill="none" stroke="#644026" stroke-width="1.9924" stroke-linecap="round" stroke-linejoin="round" stroke-miterlimit="10" d="
			M332.097,216.582c0.328-6.158,1.638-30.791,1.966-36.949"/>
		<path fill-opacity="0" d="M338.23,196.027c0.181-3.289,0.901-16.443,1.081-19.732"/>
		
			<path fill="none" stroke="#644026" stroke-width="1.9924" stroke-linecap="round" stroke-linejoin="round" stroke-miterlimit="10" d="
			M338.23,196.027c0.181-3.289,0.901-16.443,1.081-19.732"/>
		<path fill-opacity="0" d="M322.083,228.22c0.337-5.447,1.68-27.24,2.016-32.688"/>
		
			<path fill="none" stroke="#644026" stroke-width="1.9924" stroke-linecap="round" stroke-linejoin="round" stroke-miterlimit="10" d="
			M322.083,228.22c0.337-5.447,1.68-27.24,2.016-32.688"/>
		<path fill-opacity="0" d="M319.24,224.65c4.067-7.438,20.333-37.193,24.399-44.632"/>
		
			<path fill="none" stroke="#644026" stroke-width="1.9924" stroke-linecap="round" stroke-linejoin="round" stroke-miterlimit="10" d="
			M319.24,224.65c4.067-7.438,20.333-37.193,24.399-44.632"/>
		<path fill-opacity="0" d="M318.646,215.584c3.732-6.479,18.662-32.395,22.395-38.873"/>
		
			<path fill="none" stroke="#644026" stroke-width="1.9924" stroke-linecap="round" stroke-linejoin="round" stroke-miterlimit="10" d="
			M318.646,215.584c3.732-6.479,18.662-32.395,22.395-38.873"/>
		<path fill-opacity="0" d="M320.513,203.875c2.881-4.685,14.403-23.424,17.285-28.109"/>
		
			<path fill="none" stroke="#644026" stroke-width="1.9924" stroke-linecap="round" stroke-linejoin="round" stroke-miterlimit="10" d="
			M320.513,203.875c2.881-4.685,14.403-23.424,17.285-28.109"/>
		<path fill-opacity="0" d="M321.477,228.007c2.269-4.068,11.341-20.34,13.61-24.409"/>
		
			<path fill="none" stroke="#644026" stroke-width="1.9924" stroke-linecap="round" stroke-linejoin="round" stroke-miterlimit="10" d="
			M321.477,228.007c2.269-4.068,11.341-20.34,13.61-24.409"/>
		<path fill-opacity="0" d="M323.888,229.403c1.419-2.364,7.097-11.824,8.517-14.189"/>
		
			<path fill="none" stroke="#644026" stroke-width="1.9924" stroke-linecap="round" stroke-linejoin="round" stroke-miterlimit="10" d="
			M323.888,229.403c1.419-2.364,7.097-11.824,8.517-14.189"/>
		<path fill="#B67746" d="M407.692,258.267c-0.28,3.094,2.29,12.34,5.562,16.242s10.682,6.195,14.07,7.166s3.444,1.027,6.269-1.344
			c2.828-2.369,9.161-8.342,10.688-12.879c1.529-4.537,0.077-12.029-1.516-14.346c-1.596-2.314-3.412-0.02-8.05,0.451
			c-4.639,0.471-15.275,1.594-19.78,2.379c-4.504,0.785-6.962-0.766-7.241,2.33H407.692z"/>
		<path fill="#805331" d="M424.514,248.052c-0.475,0.141-2.952-3.633-2.975-4.529c-0.022-0.897,2.346-1.605,2.841-0.852
			C424.876,243.426,424.985,247.909,424.514,248.052z"/>
		<path fill="#805331" d="M403.646,257.743c-0.027-1.646,0.254-3.51,2.749-5.332c2.496-1.82,8.875-4.43,12.223-5.603
			c3.351-1.172,4.683-1.092,7.873-1.43c3.191-0.339,8.232-0.933,11.275-0.601c3.042,0.334,5.431,1.55,6.976,2.598
			c1.546,1.047,2.207,2.336,2.297,3.688c0.091,1.354-0.058,3.514-1.751,4.426c-1.692,0.91-4.998,0.625-8.406,1.045
			c-3.409,0.418-8.485,0.816-12.046,1.463c-3.561,0.648-6.273,1.705-9.318,2.418c-3.047,0.715-6.975,2.314-8.954,1.869
			C404.586,261.839,403.676,259.388,403.646,257.743L403.646,257.743z"/>
		<path fill-opacity="0" d="M445.384,253.417c-5.414-0.646-27.067-3.234-32.482-3.883"/>
		
			<path fill="none" stroke="#644026" stroke-width="1.9924" stroke-linecap="round" stroke-linejoin="round" stroke-miterlimit="10" d="
			M445.384,253.417c-5.414-0.646-27.067-3.234-32.482-3.883"/>
		<path fill-opacity="0" d="M435.306,255.737c-4.552-0.477-22.758-2.387-27.308-2.865"/>
		
			<path fill="none" stroke="#644026" stroke-width="1.9924" stroke-linecap="round" stroke-linejoin="round" stroke-miterlimit="10" d="
			M435.306,255.737c-4.552-0.477-22.758-2.387-27.308-2.865"/>
		<path fill-opacity="0" d="M419.539,257.872c-2.432-0.25-12.155-1.256-14.587-1.506"/>
		
			<path fill="none" stroke="#644026" stroke-width="1.9924" stroke-linecap="round" stroke-linejoin="round" stroke-miterlimit="10" d="
			M419.539,257.872c-2.432-0.25-12.155-1.256-14.587-1.506"/>
		<path fill-opacity="0" d="M444.973,249.698c-4.031-0.389-20.158-1.941-24.189-2.33"/>
		
			<path fill="none" stroke="#644026" stroke-width="1.9924" stroke-linecap="round" stroke-linejoin="round" stroke-miterlimit="10" d="
			M444.973,249.698c-4.031-0.389-20.158-1.941-24.189-2.33"/>
		<path fill-opacity="0" d="M442.676,247.182c-5.914,2.136-29.572,10.675-35.488,12.81"/>
		
			<path fill="none" stroke="#644026" stroke-width="1.9924" stroke-linecap="round" stroke-linejoin="round" stroke-miterlimit="10" d="
			M442.676,247.182c-5.914,2.136-29.572,10.675-35.488,12.81"/>
		<path fill-opacity="0" d="M436.103,245.688c-5.173,2-25.867,10-31.04,12"/>
		
			<path fill="none" stroke="#644026" stroke-width="1.9924" stroke-linecap="round" stroke-linejoin="round" stroke-miterlimit="10" d="
			M436.103,245.688c-5.173,2-25.867,10-31.04,12"/>
		<path fill-opacity="0" d="M427.309,245.694c-3.761,1.58-18.807,7.902-22.569,9.484"/>
		
			<path fill="none" stroke="#644026" stroke-width="1.9924" stroke-linecap="round" stroke-linejoin="round" stroke-miterlimit="10" d="
			M427.309,245.694c-3.761,1.58-18.807,7.902-22.569,9.484"/>
		<path fill-opacity="0" d="M444.884,249.228c-3.238,1.201-16.197,6.002-19.438,7.203"/>
		
			<path fill="none" stroke="#644026" stroke-width="1.9924" stroke-linecap="round" stroke-linejoin="round" stroke-miterlimit="10" d="
			M444.884,249.228c-3.238,1.201-16.197,6.002-19.438,7.203"/>
		<path fill-opacity="0" d="M445.634,251.175c-1.896,0.771-9.475,3.861-11.37,4.635"/>
		
			<path fill="none" stroke="#644026" stroke-width="1.9924" stroke-linecap="round" stroke-linejoin="round" stroke-miterlimit="10" d="
			M445.634,251.175c-1.896,0.771-9.475,3.861-11.37,4.635"/>
		<path fill="#B67746" d="M455.689,146.808c-1.437,3.118-2.878,13.735-1.658,19.051c1.219,5.315,6.515,10.535,8.968,12.841
			c2.456,2.306,2.477,2.386,5.758,0.995c3.278-1.392,10.885-5.196,13.921-9.341c3.038-4.145,4.732-12.506,4.299-15.528
			c-0.432-3.022-2.839-1.325-6.895-2.606c-4.057-1.279-13.376-4.172-17.44-5.074C458.576,146.244,457.124,143.689,455.689,146.808
			L455.689,146.808z"/>
		<path fill="#805331" d="M473.27,144.609c-0.451-0.033-1.056-4.912-0.725-5.854c0.329-0.943,2.58-0.778,2.701,0.198
			C475.368,139.929,473.72,144.643,473.27,144.609z"/>
		<path fill="#805331" d="M452.321,145.635c0.555-1.439,1.444-2.958,4.185-3.667s9.026-0.739,12.258-0.583
			c3.23,0.155,4.321,0.691,7.127,1.516c2.807,0.823,7.259,2.074,9.702,3.429c2.444,1.355,4.028,3.248,4.962,4.7
			c0.933,1.451,1.037,2.802,0.638,4.008c-0.398,1.207-1.282,3.03-3.027,3.228c-1.745,0.199-4.427-1.206-7.443-2.037
			c-3.017-0.832-7.43-2.264-10.656-2.949c-3.224-0.686-5.877-0.718-8.691-1.165c-2.814-0.446-6.685-0.434-8.193-1.514
			S451.766,147.074,452.321,145.635L452.321,145.635z"/>
		<path fill-opacity="0" d="M453.053,149.134c4.914-0.474,24.576-2.369,29.492-2.842"/>
		
			<path fill="none" stroke="#644026" stroke-width="1.9924" stroke-linecap="round" stroke-linejoin="round" stroke-miterlimit="10" d="
			M453.053,149.134c4.914-0.474,24.576-2.369,29.492-2.842"/>
		<path fill-opacity="0" d="M462.097,151.512c4.13-0.337,20.65-1.684,24.78-2.021"/>
		
			<path fill="none" stroke="#644026" stroke-width="1.9924" stroke-linecap="round" stroke-linejoin="round" stroke-miterlimit="10" d="
			M462.097,151.512c4.13-0.337,20.65-1.684,24.78-2.021"/>
		<path fill-opacity="0" d="M476.281,153.844c2.205-0.176,11.029-0.882,13.235-1.058"/>
		
			<path fill="none" stroke="#644026" stroke-width="1.9924" stroke-linecap="round" stroke-linejoin="round" stroke-miterlimit="10" d="
			M476.281,153.844c2.205-0.176,11.029-0.882,13.235-1.058"/>
		<path fill-opacity="0" d="M453.541,145.707c3.657-0.267,18.288-1.333,21.946-1.599"/>
		
			<path fill="none" stroke="#644026" stroke-width="1.9924" stroke-linecap="round" stroke-linejoin="round" stroke-miterlimit="10" d="
			M453.541,145.707c3.657-0.267,18.288-1.333,21.946-1.599"/>
		<path fill-opacity="0" d="M455.694,143.433c5.281,2.109,26.407,10.549,31.689,12.659"/>
		
			<path fill="none" stroke="#644026" stroke-width="1.9924" stroke-linecap="round" stroke-linejoin="round" stroke-miterlimit="10" d="
			M455.694,143.433c5.281,2.109,26.407,10.549,31.689,12.659"/>
		<path fill-opacity="0" d="M461.686,142.201c4.615,1.968,23.075,9.841,27.689,11.809"/>
		
			<path fill="none" stroke="#644026" stroke-width="1.9924" stroke-linecap="round" stroke-linejoin="round" stroke-miterlimit="10" d="
			M461.686,142.201c4.615,1.968,23.075,9.841,27.689,11.809"/>
		<path fill-opacity="0" d="M469.64,142.41c3.354,1.548,16.76,7.74,20.109,9.288"/>
		
			<path fill="none" stroke="#644026" stroke-width="1.9924" stroke-linecap="round" stroke-linejoin="round" stroke-miterlimit="10" d="
			M469.64,142.41c3.354,1.548,16.76,7.74,20.109,9.288"/>
		<path fill-opacity="0" d="M453.636,145.272c2.892,1.184,14.46,5.921,17.352,7.104"/>
		
			<path fill="none" stroke="#644026" stroke-width="1.9924" stroke-linecap="round" stroke-linejoin="round" stroke-miterlimit="10" d="
			M453.636,145.272c2.892,1.184,14.46,5.921,17.352,7.104"/>
		<path fill-opacity="0" d="M452.897,147.051c1.69,0.758,8.447,3.789,10.137,4.547"/>
		
			<path fill="none" stroke="#644026" stroke-width="1.9924" stroke-linecap="round" stroke-linejoin="round" stroke-miterlimit="10" d="
			M452.897,147.051c1.69,0.758,8.447,3.789,10.137,4.547"/>
		<path fill="#F38E3F" d="M492.589,210.943c-4.441-3.201-11.737-6.773-15.932-8.905c-4.193-2.132-6.109-3.638-9.232-3.888
			c-3.123-0.249-6.829,1.453-9.507,2.39c-2.676,0.936-6.79,0.769-6.56,3.23c0.233,2.461,4.873,8.344,7.949,11.537
			c3.079,3.193,6.259,5.931,10.517,7.624c4.259,1.692,10.511,1.728,15.033,2.533c4.521,0.807,9.029,3.004,12.104,2.301
			s7.07-3.714,6.342-6.518c-0.729-2.805-6.275-7.103-10.716-10.304H492.589z"/>
		<path fill="#F38E3F" d="M493.415,220.825c-3.147-3.02-13.12-2.852-18.953-1.168c-5.832,1.685-12.736,6.94-16.038,11.273
			c-3.305,4.332-3.172,11.656-3.777,14.727c-0.605,3.068-2.037,2.637,0.141,3.693c2.179,1.057,8.774,2.572,12.925,2.646
			c4.149,0.072,7.698,0.164,11.971-2.205c4.274-2.371,11.381-7.194,13.67-12.021C495.641,232.942,496.563,223.844,493.415,220.825
			L493.415,220.825z"/>
		<path fill="#F38E3F" d="M505.392,228.292c1.085,5.42,1.302,13.568,1.5,18.288c0.197,4.72,0.782,7.114-0.313,10.03
			c-1.095,2.916-4.481,5.334-6.256,7.467c-1.772,2.133-1.933,6.742-4.383,5.332c-2.451-1.41-8.427-9.449-10.316-13.791
			c-1.891-4.34-1.526-7.77-1.025-12.251c0.502-4.48,2.86-10.21,4.033-14.632s1.047-9.453,3.006-11.898
			c1.957-2.447,6.449-4.688,8.742-2.778C502.671,215.968,504.307,222.872,505.392,228.292L505.392,228.292z"/>
		<path fill="#F38E3F" d="M493.177,227.899c2.772,4.064,7.89,10.941,11.799,14.184s8.483,3.883,11.659,5.273
			c3.176,1.389,6.622,4.676,7.396,3.066c0.772-1.611-0.583-7.934-2.761-12.729c-2.178-4.796-6.25-12.107-10.305-16.043
			c-4.056-3.937-10.254-6.915-14.024-7.574c-3.771-0.659-7.969,1.314-8.597,3.619C487.717,219.999,490.404,223.835,493.177,227.899
			L493.177,227.899z"/>
		<path fill="#F38E3F" d="M487.709,221.401c-2.8-3.484-7.369-9.82-8.939-14.344c-1.571-4.523-0.398-9.318-0.486-12.795
			c-0.088-3.478-1.882-7.533-0.043-8.072c1.84-0.538,7.349,1.851,11.076,4.842c3.729,2.992,9.121,8.325,11.297,13.107
			c2.177,4.781,2.603,11.611,1.76,15.584c-0.841,3.972-4.364,7.97-6.809,8.249S490.508,224.887,487.709,221.401L487.709,221.401z"/>
		<path fill="#D07936" d="M484.902,228.679c3.927-3.131,9.156-6.561,13.963-10.932c4.808-4.372,11.652-12.706,14.877-15.296
			c3.226-2.589,3.313-0.412,4.475-0.241c1.162,0.17,5.072-1.717,2.496,1.263c-2.575,2.98-11.94,11.74-17.95,16.616
			c-6.009,4.877-13.53,9.9-18.106,12.639c-4.579,2.74-9.4,4.476-9.359,3.801c0.042-0.676,5.677-4.72,9.604-7.85H484.902z"/>
		<path fill="#B67746" d="M154.841,174.013c3.771-4.965,19.796-19.322,27.813-23.555c8.017-4.233,15.938-2.278,20.287-1.843
			c4.35,0.434,5.013,0.679,5.807,4.449c0.796,3.77,2.867,9.97-1.036,18.168c-3.904,8.197-17.968,27.039-22.386,31.018
			c-4.418,3.979,0.092-3.475-4.125-7.142s-16.781-11.344-21.175-14.86C155.633,176.733,151.068,178.978,154.841,174.013
			L154.841,174.013z"/>
		<path fill="#805331" d="M164.99,194.908c-0.687-0.468-9.074,6.883-10.065,8.821c-0.99,1.938,2.445,4.278,4.123,2.808
			C160.726,205.067,165.677,195.376,164.99,194.908L164.99,194.908z"/>
		<path fill="#805331" d="M148.324,171.158c-1.478,2.276-2.786,5.041-1.482,9.073c1.304,4.033,6.438,11.485,9.306,15.123
			c2.868,3.637,4.488,4.322,7.904,6.704c3.417,2.381,8.761,6.226,12.594,7.583c3.833,1.356,7.681,1.091,10.399,0.555
			c2.719-0.535,4.62-1.937,5.913-3.767c1.293-1.83,3.017-4.93,1.847-7.214c-1.169-2.283-5.265-3.864-8.865-6.486
			c-3.599-2.623-9.158-6.216-12.733-9.249c-3.576-3.033-5.804-6.128-8.721-8.946c-2.917-2.818-6.085-7.398-8.779-7.961
			C153.015,166.009,149.803,168.881,148.324,171.158L148.324,171.158z"/>
		<path fill-opacity="0" d="M153.66,169.277c3.542,6.179,17.71,30.894,21.252,37.072"/>
		
			<path fill="none" stroke="#644026" stroke-width="1.9924" stroke-linecap="round" stroke-linejoin="round" stroke-miterlimit="10" d="
			M153.66,169.277c3.542,6.179,17.71,30.894,21.252,37.072"/>
		<path fill-opacity="0" d="M164.261,177.315c3.053,5.129,15.267,25.646,18.319,30.774"/>
		
			<path fill="none" stroke="#644026" stroke-width="1.9924" stroke-linecap="round" stroke-linejoin="round" stroke-miterlimit="10" d="
			M164.261,177.315c3.053,5.129,15.267,25.646,18.319,30.774"/>
		<path fill-opacity="0" d="M179.134,191.363c1.635,2.736,8.176,13.679,9.812,16.415"/>
		
			<path fill="none" stroke="#644026" stroke-width="1.9924" stroke-linecap="round" stroke-linejoin="round" stroke-miterlimit="10" d="
			M179.134,191.363c1.635,2.736,8.176,13.679,9.812,16.415"/>
		<path fill-opacity="0" d="M149.765,173.358c2.745,4.51,13.72,22.549,16.464,27.058"/>
		
			<path fill="none" stroke="#644026" stroke-width="1.9924" stroke-linecap="round" stroke-linejoin="round" stroke-miterlimit="10" d="
			M149.765,173.358c2.745,4.51,13.72,22.549,16.464,27.058"/>
		<path fill-opacity="0" d="M148.72,178.184c7.097,3.955,35.485,19.775,42.582,23.73"/>
		
			<path fill="none" stroke="#644026" stroke-width="1.9924" stroke-linecap="round" stroke-linejoin="round" stroke-miterlimit="10" d="
			M148.72,178.184c7.097,3.955,35.485,19.775,42.582,23.73"/>
		<path fill-opacity="0" d="M152.215,186.388c6.358,3.329,31.791,16.642,38.148,19.97"/>
		
			<path fill="none" stroke="#644026" stroke-width="1.9924" stroke-linecap="round" stroke-linejoin="round" stroke-miterlimit="10" d="
			M152.215,186.388c6.358,3.329,31.791,16.642,38.148,19.97"/>
		<path fill-opacity="0" d="M159.173,195.384c4.766,2.296,23.831,11.479,28.598,13.775"/>
		
			<path fill="none" stroke="#644026" stroke-width="1.9924" stroke-linecap="round" stroke-linejoin="round" stroke-miterlimit="10" d="
			M159.173,195.384c4.766,2.296,23.831,11.479,28.598,13.775"/>
		<path fill-opacity="0" d="M149.296,173.912c3.922,2.136,19.611,10.68,23.534,12.815"/>
		
			<path fill="none" stroke="#644026" stroke-width="1.9924" stroke-linecap="round" stroke-linejoin="round" stroke-miterlimit="10" d="
			M149.296,173.912c3.922,2.136,19.611,10.68,23.534,12.815"/>
		<path fill-opacity="0" d="M150.913,171.235c2.374,1.18,11.871,5.9,14.244,7.08"/>
		
			<path fill="none" stroke="#644026" stroke-width="1.9924" stroke-linecap="round" stroke-linejoin="round" stroke-miterlimit="10" d="
			M150.913,171.235c2.374,1.18,11.871,5.9,14.244,7.08"/>
		<path fill="#B67746" d="M148.841,118.304c-0.83,2.996,0.045,12.552,2.566,16.976c2.522,4.423,9.4,8.004,12.562,9.566
			c3.162,1.561,3.205,1.627,6.409-0.2c3.205-1.826,10.503-6.57,12.818-10.761c2.315-4.191,2.227-11.821,1.072-14.385
			c-1.154-2.563-3.353-0.631-8-0.996c-4.647-0.365-15.314-1.163-19.886-1.196C151.811,117.274,149.669,115.308,148.841,118.304
			L148.841,118.304z"/>
		<path fill="#805331" d="M167.217,111.26c-0.491,0.055-2.254-4.1-2.115-4.986c0.138-0.886,2.594-1.161,2.947-0.33
			C168.402,106.776,167.709,111.206,167.217,111.26L167.217,111.26z"/>
		<path fill="#805331" d="M144.954,117.062c0.267-1.624,0.876-3.406,3.657-4.752c2.781-1.347,9.524-2.772,13.029-3.327
			c3.505-0.554,4.8-0.237,8,0c3.201,0.237,8.267,0.554,11.2,1.426c2.934,0.872,5.067,2.495,6.4,3.802
			c1.333,1.307,1.752,2.693,1.6,4.04c-0.152,1.346-0.686,3.445-2.514,4.04c-1.829,0.594-5.029-0.277-8.457-0.475
			c-3.429-0.198-8.496-0.713-12.115-0.713s-6.476,0.555-9.6,0.713c-3.124,0.159-7.277,1.029-9.143,0.238
			C145.144,121.259,144.687,118.686,144.954,117.062L144.954,117.062z"/>
		<path fill-opacity="0" d="M186.793,120.272c-5.211-1.604-26.054-8.022-31.265-9.626"/>
		
			<path fill="none" stroke="#644026" stroke-width="1.9924" stroke-linecap="round" stroke-linejoin="round" stroke-miterlimit="10" d="
			M186.793,120.272c-5.211-1.604-26.054-8.022-31.265-9.626"/>
		<path fill-opacity="0" d="M176.458,120.754c-4.393-1.283-21.963-6.418-26.355-7.702"/>
		
			<path fill="none" stroke="#644026" stroke-width="1.9924" stroke-linecap="round" stroke-linejoin="round" stroke-miterlimit="10" d="
			M176.458,120.754c-4.393-1.283-21.963-6.418-26.355-7.702"/>
		<path fill-opacity="0" d="M160.566,120.032c-2.347-0.682-11.735-3.41-14.082-4.091"/>
		
			<path fill="none" stroke="#644026" stroke-width="1.9924" stroke-linecap="round" stroke-linejoin="round" stroke-miterlimit="10" d="
			M160.566,120.032c-2.347-0.682-11.735-3.41-14.082-4.091"/>
		<path fill-opacity="0" d="M187.05,116.542c-3.897-1.103-19.486-5.515-23.383-6.618"/>
		
			<path fill="none" stroke="#644026" stroke-width="1.9924" stroke-linecap="round" stroke-linejoin="round" stroke-miterlimit="10" d="
			M187.05,116.542c-3.897-1.103-19.486-5.515-23.383-6.618"/>
		<path fill-opacity="0" d="M185.242,113.654c-6.201,1.042-31.006,5.215-37.207,6.258"/>
		
			<path fill="none" stroke="#644026" stroke-width="1.9924" stroke-linecap="round" stroke-linejoin="round" stroke-miterlimit="10" d="
			M185.242,113.654c-6.201,1.042-31.006,5.215-37.207,6.258"/>
		<path fill-opacity="0" d="M179.041,111.007c-5.448,1.042-27.237,5.215-32.686,6.257"/>
		
			<path fill="none" stroke="#644026" stroke-width="1.9924" stroke-linecap="round" stroke-linejoin="round" stroke-miterlimit="10" d="
			M179.041,111.007c-5.448,1.042-27.237,5.215-32.686,6.257"/>
		<path fill-opacity="0" d="M170.386,109.442c-3.984,0.883-19.917,4.413-23.901,5.295"/>
		
			<path fill="none" stroke="#644026" stroke-width="1.9924" stroke-linecap="round" stroke-linejoin="round" stroke-miterlimit="10" d="
			M170.386,109.442c-3.984,0.883-19.917,4.413-23.901,5.295"/>
		<path fill-opacity="0" d="M187.05,116.062c-3.401,0.601-17.009,3.007-20.413,3.609"/>
		
			<path fill="none" stroke="#644026" stroke-width="1.9924" stroke-linecap="round" stroke-linejoin="round" stroke-miterlimit="10" d="
			M187.05,116.062c-3.401,0.601-17.009,3.007-20.413,3.609"/>
		<path fill-opacity="0" d="M187.438,118.107c-2.003,0.421-10.013,2.106-12.016,2.527"/>
		
			<path fill="none" stroke="#644026" stroke-width="1.9924" stroke-linecap="round" stroke-linejoin="round" stroke-miterlimit="10" d="
			M187.438,118.107c-2.003,0.421-10.013,2.106-12.016,2.527"/>
		<path fill="#F3BE16" d="M255.561,158.634c0.913,1.241-0.331,5.03,1.805,7.297c2.137,2.268,8.502,4.433,11.014,6.305
			c2.514,1.873,3.515,2.993,4.068,4.931c0.55,1.939,0.302,5.315-0.759,6.702c-1.065,1.386-3.766,1.374-5.622,1.619
			c-1.856,0.244-4.326-0.509-5.517-0.151c-1.192,0.359-1.724,1.448-1.634,2.301c0.091,0.853,0.532,1.663,2.178,2.815
			c1.647,1.153,6.084,2.198,7.702,4.104c1.618,1.906,2.534,5.476,2.005,7.333c-0.53,1.856-3.012,3.534-5.181,3.805
			c-2.168,0.272-5.857-1.727-7.832-2.177c-1.975-0.451-2.796-0.639-4.014-0.524s-2.593,0.548-3.292,1.212
			c-0.697,0.664-1.088,1.921-0.894,2.768c0.195,0.845,0.614,1.189,2.06,2.308c1.449,1.119,5.159,2.604,6.625,4.403
			c1.465,1.798,2.615,4.625,2.17,6.387s-2.578,3.989-4.837,4.19c-2.26,0.202-6.197-2.326-8.719-2.981
			c-2.521-0.656-4.813-1.245-6.405-0.954c-1.589,0.291-2.57,1.202-3.14,2.7c-0.568,1.497,0.397,4.401-0.274,6.284
			c-0.67,1.885-1.731,4.043-3.75,5.018c-2.018,0.975-5.818,1.379-8.357,0.829c-2.539-0.548-5.709-2.376-6.876-4.122
			c-1.167-1.746-0.599-4.217-0.123-6.355c0.476-2.139,2.772-4.913,2.978-6.477c0.204-1.563-0.448-2.134-1.752-2.903
			c-1.302-0.769-4.455-0.941-6.066-1.708c-1.611-0.766-2.877-1.546-3.602-2.888c-0.724-1.342-1.138-3.474-0.742-5.164
			c0.397-1.69,1.485-3.801,3.127-4.976c1.642-1.174,4.654-1.568,6.726-2.075c2.073-0.507,4.538-0.115,5.712-0.966
			c1.175-0.852,1.85-2.752,1.336-4.138c-0.509-1.386-3.432-2.683-4.403-4.179c-0.971-1.495-1.75-3.497-1.421-4.794
			c0.33-1.298,1.884-2.362,3.397-2.994c1.514-0.632,3.884-0.486,5.682-0.795c1.8-0.309,3.994-0.143,5.113-1.057
			c1.116-0.916,1.957-2.988,1.593-4.432c-0.364-1.444-2.903-2.78-3.779-4.232c-0.875-1.452-1.776-3.151-1.475-4.479
			c0.3-1.329,1.598-2.889,3.277-3.488c1.679-0.601,4.477,0.022,6.794-0.115s5.199,0.014,7.105-0.71
			c1.906-0.723,2.995-3.05,4.329-3.629C253.225,157.901,254.648,157.392,255.561,158.634L255.561,158.634z"/>
		<path fill="#D2A73D" d="M262.545,151.566c-1.014,4.831-8.565,12.417-14.211,24.965c-5.646,12.549-16.741,44.175-19.664,50.323
			c-2.919,6.15-0.234-5.318,2.14-13.43c2.374-8.112,8.579-26.22,12.104-35.24c3.525-9.021,7.126-13.779,9.044-18.885
			s0.696-10.462,2.461-11.75c1.765-1.289,9.143-0.814,8.128,4.016H262.545z"/>
		<path fill="#F38E3F" d="M239.873,96.794c-2.559-3.533-12.4-5.151-18.439-4.537c-6.039,0.614-13.772,4.551-17.797,8.223
			c-4.024,3.673-5.203,10.9-6.348,13.812c-1.145,2.913-2.475,2.232-0.522,3.662c1.954,1.428,8.174,4.098,12.243,4.912
			c4.07,0.814,7.544,1.541,12.172-0.028c4.629-1.569,12.483-5.043,15.6-9.383C239.894,109.114,242.429,100.327,239.873,96.794
			L239.873,96.794z"/>
		<path fill="#F38E3F" d="M250.325,106.282c0.099,5.527-1.145,13.583-1.794,18.262c-0.65,4.679-0.502,7.139-2.102,9.812
			c-1.597,2.674-5.362,4.447-7.488,6.229c-2.125,1.782-3.108,6.287-5.266,4.461c-2.16-1.826-6.602-10.804-7.685-15.412
			c-1.084-4.608-0.113-7.918,1.183-12.237c1.293-4.319,4.639-9.535,6.583-13.675s2.72-9.113,5.083-11.169
			c2.363-2.056,7.184-3.458,9.099-1.17C249.852,93.67,250.228,100.754,250.325,106.282L250.325,106.282z"/>
		<path fill="#F38E3F" d="M238.378,103.712c2,4.495,5.806,12.175,9.073,16.064c3.266,3.89,7.652,5.337,10.528,7.273
			c2.876,1.936,5.68,5.786,6.728,4.339c1.047-1.447,0.845-7.909-0.439-13.017c-1.287-5.107-3.985-13.028-7.271-17.626
			c-3.285-4.597-8.852-8.636-12.443-9.958c-3.591-1.323-8.076-0.132-9.105,2.023C234.418,94.963,236.377,99.218,238.378,103.712
			L238.378,103.712z"/>
		<path fill="#D07936" d="M230.091,102.996c4.425-2.377,10.182-4.818,15.694-8.259c5.51-3.441,13.735-10.417,17.372-12.388
			c3.635-1.971,3.333,0.187,4.444,0.562c1.112,0.375,5.296-0.782,2.23,1.689c-3.067,2.471-13.846,9.416-20.631,13.139
			c-6.783,3.723-15.081,7.321-20.076,9.198c-4.994,1.877-10.048,2.722-9.886,2.065S225.666,105.374,230.091,102.996L230.091,102.996
			z"/>
		<path fill="#B67746" d="M323.471,114.588c-0.667,6.2-6.972,26.772-11.65,34.538c-4.677,7.766-12.47,10.183-16.418,12.058
			c-3.949,1.875-4.644,2.007-7.271-0.811c-2.628-2.817-7.604-7.058-8.494-16.095c-0.892-9.037,1.417-32.436,3.146-38.125
			c1.728-5.69,1.716,3.023,7.221,3.985c5.502,0.962,20.226,1.047,25.804,1.789c5.578,0.742,8.325-3.538,7.66,2.662H323.471z"/>
		<path fill="#805331" d="M303.984,101.936c0.831,0.046,4.216-10.581,4.062-12.751c-0.152-2.171-4.303-2.4-4.979-0.275
			C302.39,91.034,303.155,101.89,303.984,101.936L303.984,101.936z"/>
		<path fill="#805331" d="M330.526,113.669c0.09-2.713-0.218-5.756-3.417-8.536c-3.198-2.781-11.444-6.511-15.779-8.145
			c-4.333-1.634-6.074-1.384-10.229-1.658c-4.155-0.275-10.718-0.807-14.701,0.011c-3.981,0.818-7.138,3.033-9.19,4.896
			s-2.955,4.044-3.117,6.28c-0.163,2.235-0.036,5.78,2.146,7.132c2.18,1.351,6.502,0.589,10.94,0.975
			c4.438,0.387,11.051,0.594,15.68,1.343c4.627,0.75,8.134,2.251,12.087,3.158c3.952,0.907,9.031,3.193,11.627,2.284
			C329.168,120.5,330.436,116.382,330.526,113.669L330.526,113.669z"/>
		<path fill-opacity="0" d="M326.927,118.033c-6.224-3.461-31.12-17.309-37.343-20.771"/>
		
			<path fill="none" stroke="#644026" stroke-width="1.9924" stroke-linecap="round" stroke-linejoin="round" stroke-miterlimit="10" d="
			M326.927,118.033c-6.224-3.461-31.12-17.309-37.343-20.771"/>
		<path fill-opacity="0" d="M313.695,116.625c-5.263-2.815-26.317-14.078-31.58-16.894"/>
		
			<path fill="none" stroke="#644026" stroke-width="1.9924" stroke-linecap="round" stroke-linejoin="round" stroke-miterlimit="10" d="
			M313.695,116.625c-5.263-2.815-26.317-14.078-31.58-16.894"/>
		<path fill-opacity="0" d="M293.71,112.283c-2.813-1.499-14.064-7.493-16.878-8.991"/>
		
			<path fill="none" stroke="#644026" stroke-width="1.9924" stroke-linecap="round" stroke-linejoin="round" stroke-miterlimit="10" d="
			M293.71,112.283c-2.813-1.499-14.064-7.493-16.878-8.991"/>
		<path fill-opacity="0" d="M328.152,112.529c-4.677-2.445-23.392-12.224-28.07-14.668"/>
		
			<path fill="none" stroke="#644026" stroke-width="1.9924" stroke-linecap="round" stroke-linejoin="round" stroke-miterlimit="10" d="
			M328.152,112.529c-4.677-2.445-23.392-12.224-28.07-14.668"/>
		<path fill-opacity="0" d="M326.559,107.855c-8.12,0.279-40.597,1.392-48.717,1.671"/>
		
			<path fill="none" stroke="#644026" stroke-width="1.9924" stroke-linecap="round" stroke-linejoin="round" stroke-miterlimit="10" d="
			M326.559,107.855c-8.12,0.279-40.597,1.392-48.717,1.671"/>
		<path fill-opacity="0" d="M319.323,102.636c-7.164,0.433-35.813,2.167-42.979,2.601"/>
		
			<path fill="none" stroke="#644026" stroke-width="1.9924" stroke-linecap="round" stroke-linejoin="round" stroke-miterlimit="10" d="
			M319.323,102.636c-7.164,0.433-35.813,2.167-42.979,2.601"/>
		<path fill-opacity="0" d="M308.721,98.525c-5.266,0.496-26.334,2.479-31.599,2.974"/>
		
			<path fill="none" stroke="#644026" stroke-width="1.9924" stroke-linecap="round" stroke-linejoin="round" stroke-miterlimit="10" d="
			M308.721,98.525c-5.266,0.496-26.334,2.479-31.599,2.974"/>
		<path fill-opacity="0" d="M328.271,111.813c-4.461,0.197-22.307,0.982-26.769,1.18"/>
		
			<path fill="none" stroke="#644026" stroke-width="1.9924" stroke-linecap="round" stroke-linejoin="round" stroke-miterlimit="10" d="
			M328.271,111.813c-4.461,0.197-22.307,0.982-26.769,1.18"/>
		<path fill-opacity="0" d="M328.265,114.94c-2.642,0.215-13.211,1.079-15.853,1.294"/>
		
			<path fill="none" stroke="#644026" stroke-width="1.9924" stroke-linecap="round" stroke-linejoin="round" stroke-miterlimit="10" d="
			M328.265,114.94c-2.642,0.215-13.211,1.079-15.853,1.294"/>
		<path fill="#B67746" d="M301.504,218.79c2.119-4.075,6.906-19.163,7.457-25.734c0.549-6.572-2.749-11.036-4.158-13.698
			c-1.411-2.663-1.738-3.009-4.306-2.275c-2.567,0.734-6.989,1.449-11.095,6.679c-4.108,5.229-12.215,20.534-13.548,24.7
			c-1.333,4.167,2.149-1.208,5.547,0.299s11.492,7.074,14.842,8.746c3.351,1.672,3.14,5.359,5.259,1.284L301.504,218.79z"/>
		<path fill="#805331" d="M285.773,219.153c0.473,0.288-1.931,8.131-2.884,9.41s-3.317-0.162-2.835-1.73
			C280.534,225.264,285.302,218.865,285.773,219.153L285.773,219.153z"/>
		<path fill="#805331" d="M304.996,222.044c-1.037,1.707-2.424,3.465-5.289,3.958c-2.864,0.493-8.871-0.354-11.898-1.001
			c-3.027-0.647-3.88-1.466-6.264-2.882c-2.384-1.417-6.191-3.594-8.041-5.617c-1.852-2.024-2.694-4.594-3.071-6.525
			c-0.376-1.931,0.002-3.621,0.809-5.061c0.806-1.44,2.295-3.577,4.031-3.578c1.734,0,3.795,2.12,6.378,3.574
			c2.584,1.455,6.287,3.853,9.121,5.156c2.833,1.304,5.354,1.717,7.88,2.667c2.526,0.949,6.223,1.479,7.279,3.029
			C306.989,217.317,306.033,220.339,304.996,222.044L304.996,222.044z"/>
		<path fill-opacity="0" d="M304.775,217.981c-4.791-0.242-23.965-1.208-28.759-1.449"/>
		
			<path fill="none" stroke="#644026" stroke-width="1.9924" stroke-linecap="round" stroke-linejoin="round" stroke-miterlimit="10" d="
			M304.775,217.981c-4.791-0.242-23.965-1.208-28.759-1.449"/>
		<path fill-opacity="0" d="M296.97,213.804c-4.008-0.273-20.043-1.366-24.051-1.639"/>
		
			<path fill="none" stroke="#644026" stroke-width="1.9924" stroke-linecap="round" stroke-linejoin="round" stroke-miterlimit="10" d="
			M296.97,213.804c-4.008-0.273-20.043-1.366-24.051-1.639"/>
		<path fill-opacity="0" d="M284.292,208.854c-2.139-0.15-10.7-0.749-12.84-0.899"/>
		
			<path fill="none" stroke="#644026" stroke-width="1.9924" stroke-linecap="round" stroke-linejoin="round" stroke-miterlimit="10" d="
			M284.292,208.854c-2.139-0.15-10.7-0.749-12.84-0.899"/>
		<path fill-opacity="0" d="M303.241,221.843c-3.541-0.279-17.699-1.393-21.24-1.672"/>
		
			<path fill="none" stroke="#644026" stroke-width="1.9924" stroke-linecap="round" stroke-linejoin="round" stroke-miterlimit="10" d="
			M303.241,221.843c-3.541-0.279-17.699-1.393-21.24-1.672"/>
		<path fill-opacity="0" d="M300.493,224.115c-4.333-3.271-21.665-16.351-25.997-19.622"/>
		
			<path fill="none" stroke="#644026" stroke-width="1.9924" stroke-linecap="round" stroke-linejoin="round" stroke-miterlimit="10" d="
			M300.493,224.115c-4.333-3.271-21.665-16.351-25.997-19.622"/>
		<path fill-opacity="0" d="M294.448,224.573c-3.748-3.001-18.737-15.004-22.483-18.004"/>
		
			<path fill="none" stroke="#644026" stroke-width="1.9924" stroke-linecap="round" stroke-linejoin="round" stroke-miterlimit="10" d="
			M294.448,224.573c-3.748-3.001-18.737-15.004-22.483-18.004"/>
		<path fill-opacity="0" d="M286.999,223.062c-2.684-2.315-13.421-11.577-16.105-13.892"/>
		
			<path fill="none" stroke="#644026" stroke-width="1.9924" stroke-linecap="round" stroke-linejoin="round" stroke-miterlimit="10" d="
			M286.999,223.062c-2.684-2.315-13.421-11.577-16.105-13.892"/>
		<path fill-opacity="0" d="M303.021,222.331c-2.362-1.825-11.816-9.12-14.179-10.943"/>
		
			<path fill="none" stroke="#644026" stroke-width="1.9924" stroke-linecap="round" stroke-linejoin="round" stroke-miterlimit="10" d="
			M303.021,222.331c-2.362-1.825-11.816-9.12-14.179-10.943"/>
		<path fill-opacity="0" d="M304.271,220.403c-1.36-1.143-6.8-5.707-8.159-6.848"/>
		
			<path fill="none" stroke="#644026" stroke-width="1.9924" stroke-linecap="round" stroke-linejoin="round" stroke-miterlimit="10" d="
			M304.271,220.403c-1.36-1.143-6.8-5.707-8.159-6.848"/>
		<path fill="#F38E3F" d="M267.044,247.337c-3.953,2.193-9.194,6.439-12.264,8.85c-3.072,2.412-4.869,3.311-6.164,5.617
			c-1.295,2.307-1.347,5.805-1.604,8.221s-1.842,5.516,0.066,6.277s7.92-0.562,11.382-1.711c3.462-1.148,6.623-2.549,9.391-5.178
			c2.767-2.627,5.014-7.42,7.219-10.592c2.204-3.17,5.435-5.797,6.006-8.428c0.57-2.633-0.245-6.855-2.584-7.365
			c-2.339-0.509-7.498,2.115-11.45,4.307V247.337z"/>
		<path fill="#F38E3F" d="M274.666,250.478c-3.358,1.27-6.775,9-7.598,14.129c-0.82,5.127,0.625,12.443,2.667,16.637
			c2.042,4.193,7.521,6.885,9.583,8.523c2.062,1.637,1.233,2.572,2.791,1.301c1.557-1.27,5.024-5.766,6.552-8.93
			c1.528-3.162,2.857-5.855,2.617-10.045c-0.241-4.191-1.296-11.498-4.064-15.1S278.024,249.21,274.666,250.478L274.666,250.478z"/>
		<path fill="#F38E3F" d="M284.458,244.112c4.407,1.233,10.528,4.176,14.101,5.826c3.571,1.648,5.555,2.113,7.331,4.068
			c1.774,1.955,2.365,5.48,3.317,7.658c0.954,2.178,4.313,4.061,2.398,5.406c-1.916,1.346-10.003,2.873-13.896,2.67
			c-3.89-0.203-6.306-1.791-9.453-3.887c-3.145-2.096-6.559-6.096-9.422-8.686s-6.641-4.412-7.76-6.852s-1.187-6.749,1.044-7.783
			c2.23-1.034,7.933,0.343,12.338,1.576L284.458,244.112z"/>
		<path fill="#F38E3F" d="M279.83,253.356c3.999-0.58,10.917-1.891,14.712-3.658c3.794-1.77,5.894-5.042,8.053-6.953
			c2.158-1.912,5.822-3.309,4.901-4.518c-0.92-1.208-6.092-2.578-10.423-2.734c-4.332-0.154-11.201,0.186-15.563,1.803
			c-4.359,1.615-8.771,5.246-10.599,7.893c-1.828,2.648-1.854,6.631-0.369,7.992c1.487,1.361,5.288,0.758,9.285,0.176H279.83z"/>
		<path fill="#F38E3F" d="M273.07,255.083c-3.58,0.822-9.903,1.918-13.816,1.4s-7.054-3.25-9.665-4.51s-6.257-1.428-6.004-3.047
			c0.254-1.619,3.982-4.943,7.526-6.67c3.544-1.726,9.415-3.836,13.735-3.686c4.32,0.152,9.539,2.432,12.187,4.594
			c2.648,2.164,4.362,6.396,3.701,8.383C280.075,253.534,276.65,254.261,273.07,255.083L273.07,255.083z"/>
		<path fill="#D07936" d="M277.468,260.021c-0.927-4.215-1.615-9.545-3.151-14.91c-1.534-5.363-5.287-13.809-6.062-17.277
			c-0.775-3.467,0.872-2.703,1.411-3.531c0.537-0.828,0.527-4.555,1.823-1.438c1.296,3.118,4.468,13.662,5.951,20.144
			c1.484,6.481,2.538,14.183,2.945,18.749c0.408,4.564-0.018,8.934-0.505,8.645C279.394,270.112,278.394,264.235,277.468,260.021
			L277.468,260.021z"/>
		<path fill="#B67746" d="M242.364,283.409c4.085,1.41,14.755,9.578,18.275,15.562c3.517,5.984,3.12,15.865,2.837,20.344
			c-0.284,4.479-0.233,4.572-4.536,6.523c-4.303,1.949-14.789,5.947-21.28,5.176s-15.419-6.656-17.664-9.805
			c-2.245-3.148,1.506-3.971,4.195-9.086c2.689-5.119,8.908-16.832,11.937-21.617c3.03-4.785,2.152-8.51,6.236-7.1V283.409z"/>
		<path fill="#805331" d="M221.738,297.194c0.393-0.471-3.32-5.461-4.456-5.99c-1.137-0.527-3.108,1.822-2.366,2.82
			C215.659,295.022,221.343,297.665,221.738,297.194L221.738,297.194z"/>
		<path fill="#805331" d="M243.513,278.417c-2.092-0.955-4.601-1.674-8.053,0.199c-3.452,1.873-9.657,7.814-12.664,11.043
			c-3.003,3.229-3.5,4.818-5.368,8.33c-1.868,3.512-4.896,9.029-5.837,12.746c-0.942,3.717-0.461,7.17,0.183,9.551
			c0.646,2.381,1.998,3.871,3.685,4.734c1.689,0.863,4.521,1.902,6.447,0.449c1.927-1.455,3.049-5.447,5.118-9.166
			c2.067-3.723,4.86-9.391,7.289-13.158c2.429-3.77,5-6.322,7.284-9.455c2.282-3.133,6.096-6.797,6.416-9.342
			C248.331,281.804,245.605,279.372,243.513,278.417L243.513,278.417z"/>
		<path fill-opacity="0" d="M219.214,324.425c1.607-6.645,8.035-33.221,9.643-39.865"/>
		
			<path fill="none" stroke="#644026" stroke-width="1.9924" stroke-linecap="round" stroke-linejoin="round" stroke-miterlimit="10" d="
			M219.214,324.425c1.607-6.645,8.035-33.221,9.643-39.865"/>
		<path fill-opacity="0" d="M226.716,314.026c1.437-5.549,7.181-27.744,8.616-33.293"/>
		
			<path fill="none" stroke="#644026" stroke-width="1.9924" stroke-linecap="round" stroke-linejoin="round" stroke-miterlimit="10" d="
			M226.716,314.026c1.437-5.549,7.181-27.744,8.616-33.293"/>
		<path fill-opacity="0" d="M236.535,296.933c0.771-2.961,3.859-14.809,4.631-17.77"/>
		
			<path fill="none" stroke="#644026" stroke-width="1.9924" stroke-linecap="round" stroke-linejoin="round" stroke-miterlimit="10" d="
			M236.535,296.933c0.771-2.961,3.859-14.809,4.631-17.77"/>
		<path fill-opacity="0" d="M214.647,321.862c1.315-4.896,6.581-24.48,7.897-29.377"/>
		
			<path fill="none" stroke="#644026" stroke-width="1.9924" stroke-linecap="round" stroke-linejoin="round" stroke-miterlimit="10" d="
			M214.647,321.862c1.315-4.896,6.581-24.48,7.897-29.377"/>
		<path fill-opacity="0" d="M212.459,317.786c5.39-5.666,26.952-28.33,32.342-33.996"/>
		
			<path fill="none" stroke="#644026" stroke-width="1.9924" stroke-linecap="round" stroke-linejoin="round" stroke-miterlimit="10" d="
			M212.459,317.786c5.39-5.666,26.952-28.33,32.342-33.996"/>
		<path fill-opacity="0" d="M213.503,309.313c4.884-4.881,24.423-24.404,29.307-29.285"/>
		
			<path fill="none" stroke="#644026" stroke-width="1.9924" stroke-linecap="round" stroke-linejoin="round" stroke-miterlimit="10" d="
			M213.503,309.313c4.884-4.881,24.423-24.404,29.307-29.285"/>
		<path fill-opacity="0" d="M217.469,299.116c3.712-3.479,18.564-17.391,22.276-20.869"/>
		
			<path fill="none" stroke="#644026" stroke-width="1.9924" stroke-linecap="round" stroke-linejoin="round" stroke-miterlimit="10" d="
			M217.469,299.116c3.712-3.479,18.564-17.391,22.276-20.869"/>
		<path fill-opacity="0" d="M214.082,321.491c2.99-3.084,14.958-15.43,17.95-18.514"/>
		
			<path fill="none" stroke="#644026" stroke-width="1.9924" stroke-linecap="round" stroke-linejoin="round" stroke-miterlimit="10" d="
			M214.082,321.491c2.99-3.084,14.958-15.43,17.95-18.514"/>
		<path fill-opacity="0" d="M216.23,323.45c1.84-1.766,9.2-8.828,11.041-10.594"/>
		
			<path fill="none" stroke="#644026" stroke-width="1.9924" stroke-linecap="round" stroke-linejoin="round" stroke-miterlimit="10" d="
			M216.23,323.45c1.84-1.766,9.2-8.828,11.041-10.594"/>
	</g>
</g>
</svg>
