
<svg version="1.1" id="Layer_1" xmlns="http://www.w3.org/2000/svg" xmlns:xlink="http://www.w3.org/1999/xlink" viewBox="0 0 768 430" enable-background="new 0 0 768 430" xml:space="preserve">
<g>
	<g>
		<path fill="#FCC0C0" stroke="#000000" stroke-width="2" d="M350.727,187.556l6.015,3.758l0.752,4.511
			c0.501,3.007-0.501,5.763-3.007,8.269l-3.76,3.759l-6.766,3.759c-4.51,2.506-8.018,2.756-10.523,0.752l-3.76-3.007l-9.771-10.524
			c-6.516-7.016-15.035-17.29-25.561-30.821l-15.786-20.297l33.829-33.829c22.552-22.553,38.088-35.082,46.607-37.587
			s14.534-1.002,18.043,4.51l5.262,8.27v1.503c0,1.002-1.002,3.007-3.007,6.014c-2.005,3.007-7.267,4.26-15.787,3.759
			c-8.52-0.501-18.292,4.761-29.317,15.787c-11.026,11.026-17.792,19.295-20.298,24.808l-3.759,8.269l17.29,17.29
			C338.949,178.034,346.718,185.05,350.727,187.556z"/>
		<path fill="#FCC0C0" stroke="#000000" stroke-width="2" d="M400.343,188.308h1.503v1.503c0,1.002,2.256,2.506,6.766,4.511
			c4.512,2.004,7.018,3.508,7.518,4.51l0.752,1.503l-4.51,3.759c-3.008,2.506-11.026,5.513-24.057,9.021l-19.545,5.262l-0.752-4.51
			c-0.502-3.007,0.25-7.017,2.256-12.028c2.004-5.012,2.756-8.019,2.254-9.021l-0.751-1.504l2.255-3.007
			c1.504-2.004,1.002-4.009-1.504-6.014c-2.506-2.005-4.009-4.01-4.51-6.014c-0.502-2.005-0.502-8.52,0-19.545l0.752-16.539
			l6.014-1.503l6.014-1.503l3.008,5.262c2.004,3.508,4.761,6.515,8.269,9.021c3.509,2.506,5.764,6.766,6.767,12.78
			c1.002,6.014,1.252,11.526,0.751,16.538l-0.751,7.518H400.343z"/>
		<path fill="#FCC0C0" stroke="#000000" stroke-width="2" d="M437.93,249.199l-3.007,2.256l-1.503,0.751
			c-1.003,0.501-3.508,2.005-7.518,4.511l-6.014,3.759l-1.504-3.759c-1.002-2.506,0.25-8.52,3.759-18.042
			c3.508-9.522,6.515-16.789,9.021-21.801l3.759-7.518h3.007l28.566,7.518l28.566,7.518l-3.758-28.566
			c-2.506-19.044-4.762-31.573-6.766-37.587c-2.006-6.014-3.76-9.522-5.263-10.524l-2.255-1.503v-1.504
			c0-1.002-1.754-2.505-5.263-4.51c-3.509-2.004-5.513-4.009-6.015-6.014c-0.5-2.004,0-3.508,1.504-4.51s2.757-3.508,3.759-7.518
			l1.504-6.014l3.759-2.255c2.506-1.504,6.515-1.504,12.027,0c5.514,1.503,9.773,11.276,12.78,29.318s7.017,36.585,12.027,55.629
			c5.012,19.045,7.769,31.574,8.27,37.588l0.752,9.021l-3.007,0.752c-2.005,0.501-15.536,0.751-40.595,0.751
			C453.467,246.943,439.935,247.695,437.93,249.199z"/>
	</g>
	<path stroke="#000000" stroke-width="2" d="M427.406,132.678l4.51,10.524l0.752,10.524l0.752,10.525l-2.256,7.517l-2.255,7.518
		l8.269-3.007c5.514-2.005,8.521-5.012,9.021-9.021c0.502-4.009,1.754-6.515,3.759-7.518l3.007-1.503l12.779,4.51
		c8.521,3.007,12.529,1.002,12.029-6.014l-0.752-10.524l2.255,1.503c1.503,1.002,3.257,4.51,5.263,10.524
		c2.004,6.014,4.26,18.543,6.766,37.587l3.758,28.566l-28.566-7.518l-28.566-7.518v-12.028l-4.51-6.766
		c-3.008-4.511-9.021-6.014-18.043-4.511l-13.531,2.255h-3.006l0.751-7.518c0.501-5.012,0.251-10.524-0.751-16.538
		c-1.003-6.014-3.258-10.274-6.767-12.78c-3.508-2.506-6.265-5.513-8.269-9.021l-3.008-5.262l-6.014,1.503l-6.014,1.503v-1.503
		c0-1.002-1.002-1.503-3.008-1.503c-2.004,0-3.006-1.002-3.006-3.007c0-2.004,0.751-3.508,2.255-4.51
		c1.503-1.002,2.255-2.506,2.255-4.511v-3.007l3.759-2.255c2.506-1.503,11.777-1.503,27.815,0l24.055,2.255L427.406,132.678z"/>
	<g>
		<path fill="#FF4F4F" stroke="#000000" stroke-width="2" d="M365.762,190.563l6.015,0.751l0.751,1.504
			c0.502,1.002-0.25,4.009-2.254,9.021c-2.006,5.011-2.758,9.021-2.256,12.028l0.752,4.51l19.545-5.262
			c13.03-3.508,21.049-6.515,24.057-9.021l4.51-3.759l1.504-0.751c1.002-0.501,4.51-1.002,10.524-1.503l9.021-0.752v12.028h-3.007
			l-3.759,7.518c-2.506,5.012-5.513,12.278-9.021,21.801c-3.509,9.522-4.761,15.536-3.759,18.042l1.504,3.759l6.014-3.759
			c4.01-2.506,6.515-4.01,7.518-4.511l1.503-0.751l-0.751,3.006c-0.502,2.006-1.755,5.012-3.76,9.021
			c-2.004,4.01-3.758,8.27-5.262,12.779c-1.504,4.512-4.511,10.525-9.021,18.043c-4.51,7.518-5.512,16.287-3.006,26.311
			l3.758,15.035l-24.056-2.256c-16.037-1.503-33.578-2.004-52.622-1.503l-28.566,0.752l5.262-12.028
			c3.508-8.019,6.265-21.55,8.27-40.594c2.004-19.045,4.01-32.075,6.014-39.092c2.005-7.016,2.256-14.032,0.752-21.049
			l-2.256-10.524l3.76,3.007c2.506,2.004,6.014,1.754,10.523-0.752l6.766-3.759l3.76-3.759c2.506-2.506,3.508-5.262,3.007-8.269
			l-0.752-4.511l0.752-1.503l0.751-1.503l0.752,0.752C359.498,189.561,361.753,190.062,365.762,190.563z"/>
		<path fill="#FF4F4F" stroke="#000000" stroke-width="2" d="M432.668,153.727l-0.752-10.524l5.262,3.007
			c3.509,2.004,5.514,4.51,6.015,7.517c0.501,3.007,2.255,4.511,5.263,4.511h4.51l-3.007,1.503
			c-2.005,1.002-3.257,3.508-3.759,7.518c-0.501,4.009-3.508,7.016-9.021,9.021l-8.269,3.007l2.255-7.518l2.256-7.517
			L432.668,153.727z"/>
	</g>
</g>
</svg>
