<svg xmlns="http://www.w3.org/2000/svg" viewBox="0 0 768 430"><style>.a{fill:none;}.b{fill:#E0CEC3;}.c{fill:#71665D;}.d{fill:#69100C;}.e{fill:#350806;}.f{fill:#914800;}.g{fill:#492400;}.h{fill:#DDDBDB;}.i{fill:#2E3191;}.j{fill:#00079F;}.k{fill:#560000;}.l{fill:#FF4343;}.m{fill:#6F2800;}.n{fill:#381400;}.o{fill:#96100C;}.p{fill:#170D00;}</style><path d="M382.2 356.7c-0.4-1.3-0.5-2.7-0.2-4.3 0.5-2.5 1.8-5.1 3.8-7.7 -0.9-1.4-1.8-2.8-2.7-4.2 -4.8 11.4-6.1 15.2-5.2 17.4 0.1 0.2 0.2 0.4 0.3 0.6 1.3-0.6 2.6-1.2 4-1.8C382.1 356.7 382.2 356.7 382.2 356.7z" class="a"/><path d="M347.2 332.5c-2.3 4.1-1.6 13.2 0.1 16 0.8 1.3 0.8 2.7 0.2 3.9 -0.7 1.2-1.9 1.9-3.2 1.9 -0.2 0-0.4 0-0.6 0 1.7 11 0.3 17.7-2.1 21.9 1.5-0.3 3.4-0.4 5.7-0.3 0.4 0 0.9-0.4 1.4-1 2.4-3.2 3.3-12.4 2.4-16.1 -0.5-2.3-1.9-10.9 1.3-24.6 1.8-7.5 1.8-15 1.3-20 -0.9 2.2-1.9 4.8-2.1 6C351.5 322.7 349.6 328.3 347.2 332.5z" class="a"/><path d="M396.4 379.2c2.2-2.1 4.6-4.4 7.6-3 2.3 1.1 5.8 2 9.4 2.4 -3.9-1.4-6-3-7.9-4.5 -1.7-1.3-3.1-2.5-5.7-3.3 -5.5-0.3-9.5-4.6-13.7-9.2 -0.8-0.8-1.5-1.7-2.3-2.5 -0.4-0.5-0.8-1-1.1-1.6 0 0 0 0 0 0 -1.4 0.6-2.8 1.2-4 1.8 0.7 1.4 1.3 3 0.7 4.7 -0.6 1.5-2.1 2.8-4.7 3.9 0 1 0 2.1 0 3.4 0.1 3 0.1 6.8-0.2 10.7 1.4 0.2 2.9 0.4 4.6 0.4 2.4 0 5.1-0.2 8-0.7 2.3-0.4 5-0.7 7.9-0.9C395.3 380.3 395.8 379.8 396.4 379.2z" class="b"/><path d="M485.7 371.7c-0.2 2.2-5.2 3.6-2.3 6.8 1.9 2.1-0.5 2.6-2.8 3.4 -2.2 0.8 1.4 3.3-1.1 3.8 -3.6 0.7-7.2 0.9-10.6 0.7 0 0 0 0 0 0 3.7 1.9 7.8 3.4 11.7 3.6 3.2 0.1 5.8 0.2 8 0.2l1.5 0c4.9 0 8.4 0.1 13.2 1.5 -1.4-1.6-2.5-2.4-2.5-2.4l0 0c-2.8-1.7-3.5-4.3-3.5-4.3 0 0 1.2 2 4 3.5v0c5 2.5 10.4 2.8 14.7 2.8 2.2 0 4.5-0.1 6.6-0.2 2.1-0.1 4.1-0.2 6-0.2 2.6 0 4.6 0.2 6.4 0.6 -10.9-8.3-13.2-7.8-13.2-7.8 0 0 2.9-1.7 16.1 8.7 3.5 1.8 6.7 2.7 10 2.7 4.1 0 8.1-1.5 11.9-4.4 -2.9-0.1-5.9-0.7-8-1.3 -5.4-1.5-15.2-7.8-15.2-7.8 0.1 0.1 10.2 5.3 15.5 6.8 2.6 0.7 6.9 1.5 10.2 1.2v0c2.3-0.2 4.2-0.4 5.9-0.4 5.1 0 7.6 1.1 9.5 3 0.1-1-0.1-1.6-0.1-1.7 -5.5-7.9-19.9-10.2-20-10.2 0 0 14.9 1.4 20.8 9.5 3.3 0.1 6.9-0.7 8.8-1.4 -4-1.1-10.4-4.6-17.5-11.7 -5.8-5.8-20.9-13.9-36.7-13.9 -3.7 0-7.3 0.5-10.5 1.4 -3 0.9-5.7 1.7-8.1 2.4 -10.8 3.2-17.3 5.2-26.2 5.2 -0.8 0-1.6 0-2.4 0v0C485.7 371.7 485.7 371.7 485.7 371.7z" class="b"/><path d="M588.7 387.6c-3.5-0.5-10.5-3.8-18.4-11.7 -5.9-5.9-21.4-14.2-37.4-14.2 -3.8 0-7.5 0.5-10.8 1.5 -3 0.9-5.7 1.7-8.1 2.4 -10.7 3.2-17.2 5.1-25.9 5.1 -1.6 0-3.2-0.1-5-0.2 0.7 0.1 1.4 0.1 2.1 0.1l0.5 0 0 1c0.8 0 1.6 0 2.4 0 8.9 0 15.4-1.9 26.2-5.2 2.4-0.7 5.1-1.5 8.1-2.4 3.3-0.9 6.8-1.4 10.5-1.4 15.7 0 30.9 8.1 36.7 13.9 7.1 7.1 13.5 10.6 17.5 11.7 -1.9 0.7-5.5 1.5-8.8 1.4 -5.9-8.1-20.8-9.5-20.8-9.5 0.1 0 14.5 2.4 20 10.2 0 0.1 0.2 0.7 0.1 1.7 -1.9-1.9-4.3-3-9.5-3 -1.7 0-3.6 0.1-5.9 0.4v0c-3.3 0.3-7.5-0.5-10.2-1.2 -5.3-1.5-15.4-6.7-15.5-6.8 0 0 9.8 6.3 15.2 7.8 2.1 0.6 5.1 1.2 8 1.3 -3.8 2.9-7.8 4.4-11.9 4.4 -3.3 0-6.5-0.9-10-2.7 -13.2-10.4-16.1-8.7-16.1-8.7 0 0 2.3-0.5 13.2 7.8 -1.8-0.4-3.8-0.6-6.4-0.6 -1.9 0-3.9 0.1-6 0.2 -2.2 0.1-4.4 0.2-6.6 0.2 -4.2 0-9.7-0.3-14.7-2.8v0c-2.8-1.5-4-3.4-4-3.5 0 0 0.6 2.6 3.5 4.3l0 0c0 0 1.1 0.8 2.5 2.4 -4.8-1.4-8.3-1.5-13.2-1.5l-1.5 0c-2.2 0-4.8 0-8-0.2 -3.9-0.2-8-1.7-11.7-3.6 -1 0.3-1.5 0.4-1.5 0.4l-0.1-0.1c-2.1-1.1-4-2.3-5.6-3.5 0-0.2 0-0.3 0-0.5 0-0.3-0.1-0.6-0.1-0.9 -0.1-0.4-0.1-0.8-0.2-1.1 -0.3 0.1-0.6 0.1-0.8 0.1 -0.1 0-0.1 0-0.2 0 0-0.1 0-0.1 0-0.2 0 0 0 0.1 0 0.1 0.1 0.7 0.2 1.4 0.3 2.1 0.8 6.4-12.3 10.6-27.4 15.5l-2.5 0.8c-14.2 4.6-23.8 2.8-26.9 1.2 -0.9-0.5-1.1-0.8-1.1-0.9l-0.1-0.3 0 0c-0.2-0.7-0.5-3.7 6.4-10 0 0-7.5 5-7.3 10 -6.1-0.5-9.5-2.9-9.5-4.5 0.5-1.1 4.7-9.9 11.6-11.1 0 0-6.6 0-12.4 10.4 -1.3-0.6-2.1-1.4-2.3-2.5 -0.5-3.2 3.9-8 6-9.7 0.6-0.5 1.3-1.1 1.9-1.7 2.1-2 4.1-3.9 6.4-2.9 3.5 1.7 10 2.9 15.1 2.9v0c0.1 0 2.5 0.2 6 0.2 0.9 0 1.7 0 2.5 0 -0.3 0-1.8-1-1.7-1 0 0 0 0 0.1 0 0 0 0 0 0 0 -3.7 0-6.3-0.2-6.6-0.2 -7.4-1.5-10.2-3.7-12.7-5.7 -1.7-1.3-3.3-2.6-6.1-3.5l-0.1 0c-5.1-0.2-8.8-4.2-13-8.8 -0.8-0.8-1.5-1.7-2.3-2.5 -1.4-1.4-1.9-3.5-1.4-5.9 1.2-6.4 8.3-13.6 17.2-17.6 5.9-2.4 11.4-3.5 16.3-3.7 0 0 0 0 0 0 0 0 0 0-0.1 0 -0.1 0 0.5-0.9 0.5-0.9 0.7 0 1.4 0 2 0 -0.7 0-1.4 0-2.1 0 -5.1 0.1-11 1-17.2 3.6 -5.3 2.4-10 6-13.3 9.9 -0.9-1.5-1.9-3-3-4.5 0.7-1.5 1.4-3.2 2.2-5 0 0 0 0 0 0 0.6-1.5 1.3-3.1 2.1-4.8l0.4-0.9c4-9 6.2-15.6 7.2-20.6 0.3-1.3 0.4-2.5 0.5-3.6 0.8-9.1-3.5-9.4-3.5-9.4 0 0 0.4 0.1 0.9 0.5 0.3 0.2 0.6 0.6 0.9 1.1 1.5 2.7 2.5 10.4-7 31.5l-0.4 0.9c-9.1 21-11.2 25.9-10 29.1 0.2 0.4 0.4 0.9 0.6 1.3 0.7 1.5 1.3 2.8 0.8 4.2 -0.5 1.3-2 2.4-4.5 3.4l-0.3 0.1 0 0.3c0 1.1 0 2.3 0 3.7 0.1 8.1 0.4 21.7-7.2 26.6 -7 3.6-14.7 4.3-21.7 1.9 -1.2-0.8-1.9-1.8-2.1-3.2 -0.6-4.3 4-10 4.1-10.1 0 0-5.8 5.5-5.1 10.2 0.2 1 0.5 1.9 1.2 2.7 -4.5-0.9-9.8-3.2-11.3-5.7 -0.4-0.7-0.5-1.4-0.2-2 0.5-0.6 4.7-6.4 7.9-9.7 0 0-6.1 6.4-8.2 8.5 -0.4-2.3 1.7-5.4 3.9-8.4 0.2-0.2 0.3-0.4 0.5-0.6 2.1-3 3.5-4.9 12.3-4.8 0.8-0.1 1.5-0.5 2.2-1.4 2.6-3.5 3.5-13 2.6-16.9 -0.5-2.3-1.9-10.7 1.3-24.2 3.3-16.3 0.1-23.7-0.8-25.3 -0.1-0.2-0.2-0.3-0.2-0.3 0.2 0.4 0.4 1 0.6 1.8 -25.2-7.9-29.1-26.6-30.6-33.9 -0.2-1-0.4-1.8-0.5-2.4 -1.6-5.4 2-13.6 5.1-16.5 1.8-1.7 2.8-5.5 3.6-9.7 -0.4-0.4-0.6-0.7-0.9-1.1 -0.8 4.4-1.7 8.5-3.5 10.1 -3.7 3.4-7 12.1-5.4 17.6 0.2 0.6 0.3 1.3 0.5 2.3 0.7 3.2 1.7 8.5 4.7 14.1 0.1 5.3-0.5 14.9-3.2 31.3 -2.8 17.9-2.2 21.5-1.7 23.6 0.1 0.6 0.2 1 0.2 1.7 0 0.7 0.1 1.7 0.2 2.9 0.4 3.9 1.1 9.9-3 10.9 -0.9 0.2-1.8 0.3-3 0.3 -0.7 0-1.3 0-2-0.1 -0.6 0-1.3-0.1-2-0.1 -2.7 0-5.7 0.5-8.7 4.5 -2.9 3.8-4.2 8.4-3.1 10.9 0.4 1 1.2 1.5 2.3 1.7 1.1 1.7 5.5 4 9.7 4 0.7 0 1.4-0.1 2.1-0.2 1.7 1.6 6.1 2.3 10 2.3 2 0 5.3-0.2 8.4-1.2 -2 3-3.5 5.8-2.5 8.2 -0.3 0.9-0.2 1.9 0.4 2.8 1.9 3.2 8.6 5.8 13.8 6.4 2.9 1 5.8 1.4 8.8 1.4 4.6 0 9.3-1.1 13.7-3.4l0 0c4.8-3.2 6.7-9.5 7.3-15.8 1.4 0.2 2.9 0.4 4.7 0.4 2.4 0 5.2-0.2 8.2-0.7 1.9-0.3 4.1-0.6 6.4-0.8 -2.2 2.2-5.7 6.3-5.2 9.7 0.2 1.5 1.3 2.6 3 3.4 0.3 2.6 4.9 4.8 10.8 5.3 0.3 0.4 0.7 0.8 1.4 1.1 1.7 0.9 5.3 1.8 10.4 1.8 4.6 0 10.4-0.7 17.3-3l2.5-0.8c15.8-5.1 28.4-9.2 28.2-16.1 5 3.4 12.1 7.5 18.8 7.8 3.2 0.1 5.8 0.2 8 0.2l1.5 0c5.3 0 8.9 0.1 14.5 1.9l1.6 0.5 -1-1.3c-0.5-0.7-1.1-1.4-1.6-1.9 4.3 1.5 8.8 1.7 12.3 1.7 2.3 0 4.5-0.1 6.7-0.2 2.1-0.1 4.1-0.2 6-0.2 3.9 0 6.6 0.4 8.8 1.3 3.6 1.9 7.1 2.9 10.6 2.9 4.7 0 9.2-1.8 13.5-5.3 2.6-0.3 4.8-0.5 6.7-0.5 5.5 0 7.6 1.3 9.4 3.5l0.7 0.9 0.2-1.2c0.2-1.3 0.2-2.1 0.1-2.7 0 0 0.1 0 0.1 0 4.1 0 9-1.2 10.2-2.2l0.9-0.8L588.7 387.6zM352.6 334.1c-3.3 13.7-1.8 22.3-1.3 24.6 0.8 3.7 0 12.9-2.4 16.1 -0.5 0.6-0.9 0.9-1.4 1 -2.4 0-4.2 0.1-5.7 0.3 2.4-4.2 3.7-10.9 2.1-21.9 0.2 0 0.4 0 0.6 0 1.3 0 2.6-0.8 3.2-1.9 0.7-1.2 0.6-2.6-0.2-3.9 -1.7-2.8-2.4-11.9-0.1-16 2.4-4.2 4.2-9.8 4.5-12.4 0.1-1.2 1.1-3.8 2.1-6C354.4 319.1 354.4 326.5 352.6 334.1zM324.2 383.6c-4.4 0-8.4-0.9-9.4-2.2l-0.2-0.3 0 0c-3.2-3 2.2-10.4 2.3-10.5 0 0-6.2 7-3.5 10.8 -0.4 0-0.8 0.1-1.2 0.1 -4.2 0-8.1-2.4-8.8-3.6 0.7-7.1 6.3-11.1 6.3-11.2 0 0-6.4 3.4-7.3 10.7 -0.5-0.1-0.9-0.5-1.2-1 -0.8-1.8 0.1-6 3-9.8 2.6-3.4 5-4.1 7.9-4.1 0.6 0 1.3 0 1.9 0.1 0.7 0 1.4 0.1 2 0.1 1.2 0 2.3-0.1 3.2-0.3 5-1.2 4.2-7.7 3.7-12.1 -0.1-1.1-0.2-2.1-0.2-2.7 0-0.7-0.1-1.3-0.2-1.9 -0.4-2.1-1.1-5.5 1.8-23.2 2.4-14.7 3.1-24 3.2-29.6 4.3 7.2 12 14.7 26.1 18.9 0 0.1 0 0.2 0.1 0.4 -1.1 2.4-2.6 6.2-2.8 7.9 -0.3 2.5-2.1 7.9-4.4 12 -2.5 4.4-1.7 14 0.1 17.1 0.6 0.9 0.6 1.9 0.1 2.8 -0.5 0.8-1.4 1.4-2.3 1.4 -0.3 0-0.7-0.1-1-0.2l-0.9-0.4 0.2 1c2 12 0.4 18.8-2.3 22.9 -3.3 0.9-4.5 2.5-5.9 4.6 -0.1 0.2-0.3 0.4-0.4 0.6 -0.1 0.1-0.2 0.2-0.3 0.4C331.1 383 327.8 383.6 324.2 383.6zM377.8 357.9c-0.9-2.2 0.4-6 5.3-17.4 1 1.4 1.9 2.8 2.7 4.2 -2 2.5-3.3 5.2-3.8 7.7 -0.3 1.6-0.2 3 0.2 4.3 0 0 0 0 0 0 -1.4 0.6-2.8 1.2-4 1.8C378 358.3 377.9 358.1 377.8 357.9zM386.8 381.7c-2.9 0.5-5.6 0.7-8 0.7 -1.7 0-3.2-0.1-4.6-0.4 0.3-3.8 0.3-7.6 0.2-10.7 0-1.3 0-2.4 0-3.4 2.6-1.1 4.2-2.4 4.7-3.9 0.6-1.6 0-3.2-0.7-4.7 1.2-0.6 2.6-1.2 4-1.8 0 0 0 0 0 0 0.3 0.6 0.6 1.1 1.1 1.6 0.8 0.8 1.6 1.7 2.3 2.5 4.2 4.6 8.2 8.9 13.7 9.2 2.6 0.8 4.1 2 5.7 3.3 1.9 1.5 3.9 3.1 7.9 4.5 -3.6-0.5-7.1-1.4-9.4-2.4 -2.9-1.4-5.4 1-7.6 3 -0.5 0.5-1.1 1.1-1.7 1.5C391.9 381 389.2 381.3 386.8 381.7z" class="c"/><path d="M334.4 381c1.5-2 2.7-3.7 5.9-4.6 2.7-4.1 4.3-10.9 2.3-22.9l-0.2-1 0.9 0.4c0.3 0.1 0.6 0.2 1 0.2 0.9 0 1.8-0.5 2.3-1.4 0.5-0.9 0.4-1.9-0.1-2.8 -1.9-3.1-2.6-12.6-0.1-17.1 2.3-4.1 4.1-9.5 4.4-12 0.2-1.7 1.7-5.4 2.8-7.9 0-0.1 0-0.2-0.1-0.4 -14-4.2-21.7-11.7-26.1-18.9 -0.1 5.7-0.8 14.9-3.2 29.6 -2.8 17.7-2.2 21.2-1.8 23.2 0.1 0.6 0.2 1.2 0.2 1.9 0 0.6 0.1 1.6 0.2 2.7 0.5 4.3 1.2 10.8-3.7 12.1 -1 0.2-2 0.3-3.2 0.3 -0.7 0-1.4 0-2-0.1 -0.7 0-1.3-0.1-1.9-0.1 -2.9 0-5.3 0.7-7.9 4.1 -2.9 3.8-3.8 8-3 9.8 0.3 0.5 0.6 0.9 1.2 1 0.9-7.3 7.3-10.7 7.3-10.7 -0.1 0-5.7 4.1-6.3 11.2 0.7 1.1 4.6 3.6 8.9 3.6 0.4 0 0.8 0 1.2-0.1 -2.7-3.8 3.5-10.7 3.5-10.7 -0.1 0.1-5.5 7.6-2.3 10.5l0 0 0.2 0.3c1 1.2 5.1 2.2 9.4 2.2 3.6 0 6.9-0.6 9.4-1.7 0.1-0.1 0.2-0.2 0.3-0.4C334.1 381.4 334.2 381.2 334.4 381z" class="b"/><path d="M386.1 212c0.4 1.7 0.9 3.5 1.5 5.5 1.1-1 1.9-2.1 2.5-3.1C389.3 213.4 387.9 212.6 386.1 212z" class="d"/><path d="M330.6 229c0.5 0.7 1.3 1.3 2.4 1.8 0.2-1.7 0.3-3.3 0.2-5C332 226.9 331.2 228 330.6 229z" class="d"/><path d="M329.2 229.8c0 0.2-0.1 0.3-0.1 0.5l0 0C329.1 230.2 329.1 230 329.2 229.8z" class="e"/><path d="M390 214.4c0-0.1 0.1-0.2 0.1-0.3l0.4-0.8c-1-1.1-2.6-1.9-4.7-2.5 0.1 0.4 0.2 0.8 0.3 1.2C387.9 212.6 389.3 213.4 390 214.4z" class="e"/><path d="M330.6 229c0.5-1 1.4-2.1 2.6-3.2 0-0.5 0-0.9-0.1-1.4 -1.4 1.2-2.4 2.4-3.1 3.6l0.5 0.8C330.5 228.8 330.6 228.9 330.6 229z" class="e"/><path d="M307.8 109.5c-0.4-2.1-2.2-5.6-8.6-6.9 -1.7 0.9-3.6 2.1-5.5 3.6 3.3 1.5 9 4.3 11.9 7.3 0.7-0.4 1.5-0.9 2.2-1.3C308 111.3 308 110.4 307.8 109.5z" class="b"/><path d="M292.8 106.9c-1.6 1.3-3.3 2.7-5 4.2 4.1 0.4 10.5 1.4 15.2 4.3 0.6-0.5 1.2-0.9 1.8-1.3C301.8 111.1 295.9 108.2 292.8 106.9z" class="f"/><path d="M302.8 101.3c-0.2 0-0.4 0-0.6 0.1 -0.5 0.1-0.9 0.3-1.4 0.5 5.9 1.7 7.6 5.2 8.1 7.4 0.2 0.8 0.2 1.6 0.2 2.3 0.7-0.3 1.4-0.6 2.1-0.9 0.4-0.2 0.8-0.3 1.2-0.4C310.1 106.7 305.9 101.3 302.8 101.3z" class="f"/><path d="M302.8 100.2c4 0 8.6 6.6 10.6 9.7 3.4-1.1 7-1.6 10.8-1.7 -3.6-2.7-9.9-7.7-16.3-13.8 -4.4-4.7-9.6-7.1-15.3-7.1 -3.5 0-6.6 0.9-8.9 1.8 -11.1 4.8-15.7 17.1-15.7 17.3 0 0 2.8-9.7 10.9-15.6 -0.7 0-1.4-0.1-2.1-0.1 -19.5 0-23.6 13.9-27 25.1 -1.1 3.6-2.1 7-3.5 9.3 -0.2 0.4-0.4 0.8-0.7 1.1 -1.3 2.1-2.4 3.9-1.9 5 0.3 0.7 1.2 1.1 2.8 1.4 0.1 0 0.2 0 0.4 0h0c14.5 0 27.4-11.2 37.8-20.3 6.6-5.7 12.2-10.6 17.2-12.1C302.2 100.2 302.5 100.2 302.8 100.2z" class="f"/><path d="M404.2 316.9c-5.6-2-6.5-4.6-8.3-12.4 -0.1 1.1-0.3 2.2-0.5 3.6 -1 5-3.2 11.6-7.2 20.6l-0.4 0.9c-0.7 1.7-1.4 3.3-2.1 4.8 0 0 0 0 0 0 -0.8 1.8-1.5 3.5-2.2 5 1 1.4 2 2.9 3 4.5 3.3-3.9 8-7.4 13.3-9.8 6.2-2.6 12.1-3.5 17.2-3.6C415.9 320.8 409.9 318.9 404.2 316.9z" class="b"/><path d="M371.4 300.7c-2.3-1.9-3.1-5.4-1.7-10.3 3.5-8.9 0.8-15.6-1.9-18.9 -2.8-3.3-3.9-4.6-4.5-7.6 -3.4-5.5-3.4-10.6-3.4-14.7 -5.9 1.3-11.5 1.9-16.3 1.9 -6.3 0-10.7-1.1-12.7-3.1 -0.8 4.3-1.8 8.1-3.6 9.7 -3.1 2.9-6.6 11.1-5.1 16.5 0.2 0.6 0.3 1.4 0.5 2.4 1.5 7.4 5.3 26.1 30.6 33.9 -0.2-0.8-0.4-1.4-0.6-1.8 0 0 0.1 0.1 0.2 0.3 0.9 1.6 4.1 9 0.8 25.3 -3.2 13.5-1.8 21.9-1.3 24.2 0.9 3.9 0 13.4-2.6 16.9 -0.6 0.9-1.4 1.3-2.2 1.4 -8.8-0.1-10.1 1.8-12.3 4.8 -0.2 0.2-0.3 0.4-0.5 0.6 -2.2 3-4.3 6.1-3.9 8.4 2-2.1 8.2-8.5 8.2-8.5 -3.2 3.4-7.4 9.1-7.9 9.7 -0.3 0.7-0.2 1.3 0.2 2 1.5 2.5 6.8 4.8 11.3 5.7 -0.6-0.8-1-1.7-1.2-2.7 -0.7-4.8 5.1-10.2 5.1-10.2 -0.1 0.1-4.7 5.8-4.1 10.1 0.2 1.3 0.9 2.4 2.1 3.2 7 2.4 14.7 1.7 21.7-1.9 7.5-4.9 7.3-18.5 7.2-26.6 0-1.4 0-2.7 0-3.7l0-0.3 0.3-0.1c2.5-1 4-2.2 4.5-3.4 0.5-1.3-0.1-2.7-0.8-4.2 -0.2-0.4-0.4-0.9-0.6-1.3 -1.2-3.2 0.9-8.2 10-29.1l0.4-0.9c9.4-21.1 8.4-28.8 7-31.5 -0.3-0.5-0.6-0.9-0.9-1.1l-20.7 6.9C372.3 301.8 371.9 301.2 371.4 300.7z" class="b"/><path d="M346.9 219.7c0.1-2.8-1.9-4.7-4.7-6 -0.7 0.1-1.3 0.1-2 0.1 -1.7 0-3.4-0.1-5-0.5 -0.9 0.8-1.7 1.5-2.5 2.1 1.3 4.6 2.1 10.2 1.4 15.9 2.3 0.8 5.4 1.2 9.1 1.2 2.3 0 4.9-0.2 7.6-0.5 -0.4-1.8-0.4-3.3-0.5-4.1C348.6 227 346.8 223.9 346.9 219.7z" class="b"/><path d="M333 230.8c0.3 0.1 0.6 0.3 1 0.4 0.7-5.7-0.1-11.3-1.4-15.9 0.8-0.6 1.6-1.3 2.5-2.1 0 0 0.1 0 0.1-0.1l0 0c0.2-0.3 0.4-0.5 0.6-0.8 1.1-1.4 1.8-3.1 2.2-5 -0.1-0.1-0.4 0.3-0.8 0.9 -0.7 1.2-1.9 3.2-2.8 4.2 -4.7 4.2-8.4 5.8-10.8 6.9 -0.8 0.4-1.5 0.7-2 1 1.3-3.2 3.3-8.1 3.3-8.1 -0.8 1.1-1.7 2.3-5.3 10.2 -1.7 2.1-5.9 5.4-15 5.4 -1.8 0-3.8-0.1-5.9-0.4 -7.2-1.1-11.4-2.9-12.6-5.6 -0.9-1.9-0.4-4.3 1.4-7.3 1.4-2.3 2.4-4.9 3-7.7 0.9 0.2 1.9 0.3 2.9 0.3 0.4 2.5 0.4 6.5-3.6 10.1 -0.9 0.9-1.2 2.1-0.7 3.1 0.8 2 3.9 3.2 8.6 3.5 0.1 0 0.3 0 0.4 0 0.5 0 0.9 0 1.4 0 0 0 0 0 0 0 1.7 0 3.7-0.1 5.8-0.3 7.2-1 9.6-6 11.6-10.7 0.1-0.3 0.3-0.6 0.4-0.9 0.7-1.8 1.4-3.5 2.3-4.9 0.2-0.3 0.4-0.7 0.7-1.1 0-0.1 0.1-0.1 0.1-0.2 0.2-0.3 0.5-0.7 0.7-1 0 0 0 0 0 0 0.3-0.4 0.6-0.9 1-1.4 0.2-0.3 0.5-0.7 0.7-1 0.2-0.2 0.3-0.4 0.5-0.6 3-4 6.3-8.1 7.3-9.3 0.4 0.4 0.9 0.8 1.2 1.2 0 0-0.9-2.3-5.2-5.1 -3.6-1.9-7.6-2.1-7.6-2.1 0 0 2.6 0.8 5.5 2.2 -9.1 11.3-18.6 17.2-28.4 17.6 -12.1 0.5-21.2-7.7-24.5-11.2l-0.2-0.3 0 0c-3.5-3.5-3.3-7.7-3.3-7.7 0 0-1.2 4.4 2.2 8.1 -6.2 2.1-10.7 1.6-13-1.5 -2.8-3.7-2.3-10.7 0-17.2 -0.2-0.4-0.5-0.8-0.7-1.1 -2.7 7-3.4 14.7-0.2 19 1.9 2.5 6 4.8 14.7 1.7 2.9 3 9.5 8.9 18.4 10.7 -0.6 2.7-1.6 5.1-2.9 7.4 -2.1 3.4-2.6 6.1-1.5 8.3 1.4 3.1 5.8 5.1 13.4 6.2 2.1 0.3 4.1 0.4 6 0.4 9.6 0 14-3.7 15.8-5.9l0 0c0 0 0 0 0 0 0.4-0.4 0.6-0.8 0.8-1.1 0.5-0.5 1.5-0.9 2.8-1.5 1.8-0.8 4.4-1.9 7.6-4.2 0.7 2.6 1.2 5.5 1.4 8.5 0 0.5 0.1 0.9 0.1 1.4C333.2 227.4 333.2 229.1 333 230.8zM295.2 207c0.4 0 0.8 0 1.1 0 1.6-0.1 3.2-0.3 4.7-0.6 0.7-0.2 1.5-0.3 2.2-0.6 1.9-0.6 3.8-1.4 5.7-2.3 0.5-0.3 1-0.5 1.5-0.8 5.2-3 10.3-7.6 15.2-13.8 1.5 0.7 3 1.6 4.3 2.7 -1 1.3-4.4 5.4-7.4 9.4 -0.7 0.9-1.4 1.9-2 2.8 0 0 0 0 0 0.1 -0.3 0.4-0.5 0.8-0.8 1.1 -0.1 0.1-0.1 0.2-0.2 0.2 -0.3 0.4-0.5 0.8-0.7 1.1 -1 1.5-1.7 3.2-2.4 5.1 -2 4.9-4.1 10-11.2 11 -1.5 0.2-3 0.3-4.3 0.3 0 0 0 0 0 0 -0.2 0-0.5 0-0.7 0 -0.2 0-0.4 0-0.6 0 0 0 0 0 0 0 -0.2 0-0.4 0-0.7 0 -0.2 0-0.4 0-0.6 0 -0.4 0-0.9 0-1.3-0.1 -5.5-0.4-6.7-2.2-6.9-2.8 -0.3-0.7-0.1-1.4 0.5-2 4.2-3.7 4.4-8.1 3.9-10.8C294.8 207 295 207 295.2 207z" class="c"/><path d="M380.6 206.2c0.1-0.1 0.2-0.3 0.3-0.4 7.6-10.7 15.8-33 8-52.4 -3.8-10.8-7.6-17.5-13.3-22.9 -3.4 1.8-6.5 2.3-6.5 2.3 0.2-0.1 0.5-0.2 0.7-0.3 8.8-3.5 15.6-10.9 18.9-20.3 3.1-8.9 2.4-18-1.8-25.1 -7.6-12.2-20.8-23.3-39.3-32.9 3 3.4 6.4 6.5 6.4 6.5 0 0-5.6-3.9-9-7.9l0 0c-1.4-1.7-3.1-3.4-4.8-3.2 -1.4 0.2-2.8 1.6-4.3 4.4 -3.1 7.9 1.2 17.4 5.3 26.6 1.2 2.7 2.4 5.3 3.3 7.7 2.7 8.1 3.6 13.9 3.6 18 -0.3 8.6-4.3 8.9-4.3 8.9 0 0 1-0.4 1.9-2 -13.2-4.9-24.7-5.5-34.3-1.7 -11.4 4.5-16.9 14-19.2 19.3 -0.5 1.5-0.8 3-1 4.6 2.1-2.1 4.3-3.1 6.2-2.5 3.7 1.1 4.9 7.7 3.2 15.4 2-2.4 3.7-5.1 5.1-8.2 8.7-19.6 14.4-25.5 15.6-25.2 1.7 0.4-5.6 13.4-8.7 29.3 -3.1 15.9-0.7 23.9 5.4 30.8 6 6.8 13.4 6.7 16.8 13.5 2.6 5.3 4.2 13.5 2.4 19.6 0.4-0.6 0.7-1 0.8-0.9 -0.4 1.9-1.1 3.6-2.2 5 7.6 1.4 16.9-1.7 17-1.8 0 0-0.1 0.1-0.3 0.2 -1.2 0.6-5.6 2.5-10.4 3 2.9 1.3 4.8 3.3 4.7 6 -0.1 4.3 1.7 7.3 3.3 8.1 0 0.8 0.1 2.4 0.5 4.1 4-0.5 8.2-1.3 12.4-2.5 10.1-2.8 18.8-7 23.7-11.1 -1.8-5.8-2.7-10-3.1-15.6C382.1 204.6 380.6 206.2 380.6 206.2zM340.5 56.8l0.1-1.2 0.8 0.8c2.6 2.7 5.1 4 8.5 5.8 3.7 2 8.4 4.5 15.4 9.9 10.5 8.1 17.4 22.4 17.1 35.4 -0.8 13.5-11 17.8-14.8 18.3l-1 0.1 0.5-0.9c0.6-1.2 1.3-2.5 1.8-3.5 -1.4 1.2-3.3 2.8-4.3 3l-1.2 0.2 0.7-1c0.6-1 2-5.9 1.9-9.3 -0.8 2-2.3 5-4.4 5.9l-0.9 0.4 0.2-1c2.7-15.2-6.5-37.8-12.2-43.3C339.9 67.5 340.5 57.2 340.5 56.8zM307 121.7c-6.6 0.1-13.7 8.5-13.8 8.6l1.2-2.2c4.3-7.3 7.7-8.8 9.9-8.8 1.3 0 2.4 0.6 3.1 1.6l0.5 0.8L307 121.7zM332.9 128c0.6-1.1 2.3-1.9 4.2-1.9 2.3 0 7.8 1.1 10.2 11.8l0.4 2.2c0-0.1-4.3-10.3-14.4-11.4l-0.8-0.1L332.9 128zM346.2 171.5c0.4-0.1 0.8-0.3 1.2-0.4 0 0-0.3 0.2-0.8 0.5 -1.5 0.8-5.2 2.5-10.2 2.5 -5.5 0-8.3-1.2-9.5-1.9 -0.4-0.2-0.6-0.4-0.7-0.4 0 0-0.1-0.1-0.1-0.1 0 0 0.5 0.2 1.4 0.4 -3-3.2-4.9-8.1-4.9-13.5 0-3.4 0.8-6.6 2.1-9.3 2.3-5.9 7-10 12.5-10 7.7 0 14 8.1 14 18.2C351.2 163.2 349.3 168.2 346.2 171.5z" class="f"/><path d="M410 252.9c0.4 2.2-0.3 4.7-0.4 4.7 0 0 1.1-1.7 1.4-3.6 9.7 8.1 26.3 27.6 36.3 39.4 2.7 3.1 4.8 5.6 6.1 7.1 5.4 6.1 8.1 26.2 8.8 43 0 0.6 0.1 1.2 0.1 1.8l0 0c0 0 0 0 0 0 0.3 2 0.5 3.9 0.7 5.8 1.2 12.7-0.3 19.9-4.7 21.8l-0.4 0.2c-1 0.4-2.3 0.9-3.5 1.4 0 0 0 0 0 0 -2.9 0.9-7.9 1.9-12.6 2.8 -7.2 1.3-12.4 1.9-16.4 2 0 0 0 0-0.1 0 -0.1 0 1.4 1 1.7 1 0 0 0 0 0 0 0 0 0 0 0 0 0.1 0 0.3 0 0.4 0 2.4-0.1 5.3-0.5 8.2-0.9 4.1-0.6 8.3-1.5 11.1-2 4.3-0.9 7.8-2 7.8-2 0.2 0 0.3-0.1 0.5-0.2 1.2-0.3 2.4-0.6 3.2-1.1 0.2 0.5 0.6 1.5 1.1 3 0 0 0 0 0 0.1 0 0.2 0.1 0.3 0.1 0.5 0 0.1 0 0.1 0.1 0.2 0 0.2 0.1 0.3 0.1 0.5 0 0.1 0.1 0.2 0.1 0.3 0 0.1 0.1 0.3 0.1 0.4 0 0.2 0.1 0.4 0.1 0.5 0 0.1 0 0.2 0.1 0.3 0.1 0.3 0.1 0.6 0.2 0.9 0 0 0 0 0 0 0 0.1 0 0.1 0 0.2 0.1 0 0.1 0 0.2 0 0.3 0 0.6-0.1 0.9-0.1 0 0 0 0 0 0 -0.1-0.4-0.2-0.8-0.2-1.2 0-0.2-0.1-0.5-0.1-0.7 -0.1-0.3-0.1-0.6-0.2-0.8 -0.1-0.2-0.1-0.4-0.2-0.6 -0.1-0.2-0.1-0.4-0.2-0.6 -0.1-0.2-0.1-0.4-0.2-0.5 -0.1-0.2-0.1-0.4-0.2-0.5 0-0.1-0.1-0.3-0.1-0.4 -0.1-0.2-0.1-0.4-0.2-0.5 0-0.1-0.1-0.2-0.1-0.2 -0.1-0.2-0.2-0.4-0.2-0.6 0 0 0-0.1 0-0.1 -0.1-0.2-0.2-0.4-0.2-0.5 1.7-0.9 3.5-2.7 4.5-6.9 4 1.8 10.8 4.3 19.3 5 0.6 0 1.1 0.1 1.7 0.1 0.3 0 0.7 0.1 1 0 0 0 0 0 0 0v0l0-1 -0.5 0c-0.7 0-1.4-0.1-2.1-0.1 -8.4-0.6-15.2-3.2-19.1-5 0.8-4.2 0.8-10.6-0.6-20.3 0-0.6-0.1-1.3-0.1-1.9 -0.3-8.2-2-35.7-9.1-43.6 -1.3-1.5-3.4-3.9-6.1-7.1 -10.3-12.1-27.5-32.3-37.1-40.1 0 0 0-0.1 0-0.1 0-0.2-0.1-0.3-0.1-0.5l0 0c-2-7.9-7.9-16.2-14.9-21.4 -0.1 0.3-0.3 0.7-0.5 1C402.3 236.8 408.2 245.2 410 252.9z" class="g"/><path d="M462.3 345.6l0 0c0-0.1 0-0.1 0-0.2C462.3 345.4 462.3 345.5 462.3 345.6z" class="g"/><path d="M291.3 135.5c0 0 0 0 0 0 0.2-1.5 0.6-3.1 1-4.6 2.3-5.3 7.8-14.8 19.2-19.3 9.6-3.8 21.1-3.2 34.3 1.7 -0.9 1.6-1.8 2-1.9 2 0 0 4-0.3 4.3-8.9 0-4.1-1-9.9-3.6-18 -1-2.5-2.1-5-3.3-7.7 -4.2-9.2-8.5-18.8-5.3-26.6 1.4-2.8 2.9-4.2 4.3-4.4 1.7-0.2 3.4 1.5 4.8 3.2l0 0c3.4 4 9 7.9 9 7.9 0 0-3.4-3.2-6.4-6.5 18.5 9.6 31.7 20.6 39.3 32.9 4.2 7 4.9 16.2 1.8 25.1 -3.3 9.4-10.2 16.8-18.9 20.3 -0.2 0.1-0.5 0.2-0.7 0.3 0 0 3.1-0.5 6.5-2.3 5.7 5.4 9.5 12.1 13.3 22.9 7.8 19.4-0.4 41.7-8 52.4 -0.1 0.1-0.2 0.3-0.3 0.4 0 0 1.4-1.5 2.9-3.4 0.4 5.6 1.3 9.7 3.1 15.6 0.3-0.3 0.6-0.5 0.9-0.8 -0.6-2-1.1-3.8-1.5-5.5 -0.1-0.4-0.2-0.8-0.3-1.2 -0.6-3-1-5.9-1.3-9.4 0.7-1 1.4-2 1.8-2.9 5.9-12 9.9-29.8 3.6-45.6 -3.8-10.8-7.6-17.6-13.3-23.1 0.5-0.3 1.1-0.7 1.6-1.1 5.2-4.1 9.2-9.7 11.5-16.3 3.2-9.2 2.5-18.6-1.9-26 -8-12.9-22.2-24.5-42.1-34.5 -1.6-1.9-3.5-3.7-5.7-3.5 -1.8 0.2-3.4 1.8-5.1 5 -3.3 8.3 1.3 18.5 5.3 27.5 1.2 2.7 2.4 5.2 3.3 7.7 4.5 13.6 3.9 20.4 2.7 23.6 -7.3-2.7-14.1-4.1-20.4-4.2 -3.2-2.4-10.2-7.8-17.3-14.5 -4.6-4.9-10-7.4-16.1-7.4 -5.7 0-10.3 2.2-12.6 3.5 -1.1-0.1-2.3-0.1-3.3-0.1 -20.3 0-24.7 14.9-28 25.8 -1 3.5-2 6.8-3.4 9.1 -0.2 0.4-0.4 0.7-0.7 1.1 -1.4 2.3-2.7 4.4-1.9 5.9 0.5 1 1.6 1.7 3.6 2l0.1 0c0.1 0 0.3 0 0.4 0h0c14.9 0 28-11.4 38.5-20.5 0.5-0.4 0.9-0.8 1.4-1.2 3.8 0.3 10.6 1.1 15.4 4 -5.8 4.8-9.1 10.7-10.7 14.5l0 0.1c-0.6 2-1 4-1.3 6.1C290.5 136.2 290.9 135.9 291.3 135.5zM305.7 113.4c-2.9-3-8.7-5.8-11.9-7.3 1.9-1.5 3.8-2.7 5.5-3.6 6.4 1.4 8.2 4.9 8.6 7 0.2 0.9 0.2 1.9 0.1 2.7C307.2 112.6 306.4 113 305.7 113.4zM311.2 110.7c-0.7 0.3-1.5 0.6-2.1 0.9 0-0.8 0-1.5-0.2-2.3 -0.5-2.2-2.2-5.8-8.1-7.4 0.5-0.2 0.9-0.4 1.4-0.5 0.2-0.1 0.4-0.1 0.7-0.1 3.1 0 7.3 5.5 9.6 9C312 110.4 311.6 110.5 311.2 110.7zM284.7 112.4c-10.4 9-23.3 20.3-37.8 20.3h0c-0.1 0-0.2 0-0.4 0 -1.5-0.3-2.5-0.8-2.8-1.4 -0.5-1.1 0.6-2.9 1.9-5 0.2-0.4 0.4-0.7 0.7-1.1 1.4-2.4 2.4-5.8 3.5-9.3 3.3-11.2 7.5-25.1 27-25.1 0.7 0 1.4 0 2.1 0.1 -8.1 5.9-10.9 15.6-10.9 15.6 0-0.1 4.6-12.4 15.7-17.3 2.3-0.9 5.4-1.8 8.9-1.8 5.8 0 11 2.4 15.3 7.1 6.4 6 12.7 11 16.3 13.8 -3.8 0.1-7.4 0.6-10.8 1.7 -2-3.1-6.7-9.7-10.6-9.7 -0.3 0-0.6 0-0.9 0.1C296.9 101.7 291.2 106.7 284.7 112.4zM287.8 111c1.7-1.5 3.4-2.9 5-4.2 3 1.3 9 4.2 12 7.2 -0.6 0.4-1.3 0.9-1.8 1.3C298.3 112.4 291.9 111.4 287.8 111z" class="g"/><path d="M342.1 213.6c4.9-0.5 9.3-2.4 10.4-3 0.2-0.1 0.3-0.2 0.3-0.2 -0.1 0-9.5 3.2-17 1.8 -0.2 0.3-0.4 0.6-0.6 0.8l0 0c0 0-0.1 0-0.1 0.1 1.6 0.4 3.3 0.5 5 0.5C340.8 213.7 341.5 213.7 342.1 213.6z" class="g"/><path d="M337.2 139.4c-5.5 0-10.2 4.1-12.5 10 -1.3 2.7-2.1 5.9-2.1 9.3 0 5.4 1.9 10.3 4.9 13.5 0.2 0.1 0.5 0.1 0.7 0.2 0.1 0 0.3 0.1 0.4 0.1 0.2 0 0.5 0.1 0.8 0.1 -0.7-0.6-1.4-1.3-2-2.2 -2.4-3.1-3.7-7.3-3.6-11.7 0.1-7.8 4.4-14.5 10.3-16.1 0.8-0.2 1.6-0.3 2.4-0.3h0.1c3.4 0 6.5 1.7 8.9 4.8 0.9 1.2 1.6 2.5 2.2 3.9 0 0 0 0 0 0 0.2 0.4 0.3 0.8 0.4 1.2 0.1 0.4 0.2 0.7 0.3 1.1 0 0.1 0.1 0.2 0.1 0.3 0.4 1.5 0.6 3.2 0.6 4.9 0 1.1-0.1 2.1-0.2 3.2 -0.1 0.4-0.1 0.7-0.2 1.1 0 0.1 0 0.2 0 0.2 -0.8 3.7-2.7 7-5.1 9.2 0.3-0.1 0.5-0.1 0.8-0.2 0.2 0 0.3-0.1 0.5-0.1 0.3-0.1 0.6-0.2 0.8-0.2 0.2-0.1 0.4-0.1 0.6-0.2 3.1-3.3 5-8.3 5-14C351.2 147.5 345 139.4 337.2 139.4z"/><path d="M343.5 172.3c2.5-2.2 4.3-5.4 5.1-9.2 0-0.1 0-0.2 0-0.2 0.1-0.4 0.1-0.7 0.2-1.1 0.2-1 0.2-2.1 0.2-3.2 0-1.7-0.2-3.3-0.6-4.9 0-0.1-0.1-0.2-0.1-0.3 -0.1-0.4-0.2-0.7-0.3-1.1 -0.1-0.4-0.3-0.8-0.4-1.2 0 0 0 0 0 0 -0.6-1.4-1.3-2.7-2.2-3.9 -2.4-3.1-5.5-4.8-8.9-4.8h-0.1c-0.8 0-1.6 0.1-2.4 0.3 -5.9 1.5-10.3 8.3-10.3 16.1 0 4.4 1.2 8.5 3.6 11.7 0.6 0.8 1.3 1.5 2 2.2C332.7 173.1 338 173.5 343.5 172.3zM327.8 159.3c0.6-6.2 4.9-10.7 9.7-10.1 4.8 0.6 8.2 6.1 7.6 12.3 -0.6 6.2-4.9 10.7-9.7 10.1C330.6 171 327.2 165.5 327.8 159.3z" class="h"/><path d="M345.1 161.5c0.6-6.2-2.8-11.7-7.6-12.3 -4.8-0.6-9.1 3.9-9.7 10.1 -0.6 6.2 2.8 11.7 7.6 12.3C340.2 172.2 344.5 167.7 345.1 161.5zM328.1 159.4c0.6-6 4.7-10.4 9.4-9.8 4.6 0.6 7.9 5.9 7.4 11.9 -0.5 6-4.7 10.4-9.4 9.8C330.8 170.7 327.5 165.3 328.1 159.4z" class="i"/><path d="M344.8 161.5c0.6-6-2.7-11.3-7.4-11.9 -4.6-0.6-8.8 3.8-9.4 9.8 -0.6 6 2.7 11.3 7.4 11.9C340.1 171.9 344.3 167.5 344.8 161.5zM331.1 160.4c0-4.2 2.6-7.6 5.7-7.6 3.1 0 5.6 3.4 5.5 7.6 -0.1 4.2-2.6 7.6-5.7 7.6C333.6 168 331.1 164.6 331.1 160.4z" class="j"/><path d="M342.4 160.5c0.1-4.2-2.4-7.6-5.5-7.6 -3.1 0-5.7 3.4-5.7 7.6 -0.1 4.2 2.4 7.6 5.5 7.6C339.8 168.1 342.3 164.7 342.4 160.5z"/><path d="M344.8 171.9c-0.2 0-0.3 0.1-0.5 0.1 -0.3 0.1-0.5 0.1-0.8 0.2 -5.6 1.3-10.8 0.8-14.1 0.2 -0.3 0-0.5-0.1-0.8-0.1 -0.1 0-0.3-0.1-0.4-0.1 -0.3-0.1-0.5-0.1-0.7-0.2 -0.9-0.2-1.4-0.4-1.4-0.4 0 0 0 0 0.1 0.1 0.1 0.1 0.3 0.2 0.7 0.4 1.2 0.7 4 1.9 9.5 1.9 5-0.1 8.6-1.7 10.2-2.5 0.5-0.3 0.8-0.5 0.8-0.5 -0.4 0.1-0.8 0.3-1.2 0.4 -0.2 0.1-0.4 0.1-0.6 0.2C345.4 171.8 345.1 171.9 344.8 171.9z" class="g"/><path d="M289.2 147.1c2.4-4.8 6-6.9 8-4.9 1.6 1.6 1.8 5.3 0.7 9.1 0.4-0.3 0.7-0.7 1-1 1-3.7 1.3-7.2 0.9-10 -0.4-1.7-1.1-3.1-2-3.9 -0.1-0.1-0.3-0.2-0.4-0.3 -0.4-0.3-0.8-0.5-1.3-0.5 -2.3-0.4-5 1.4-7.3 4.5 -1.3 2-2.5 4.5-3.3 7.2 -1.2 3.9-1.6 7.6-1.2 10.6 0.9 0.1 1.7 0.2 2.5 0.3 0.4 0.1 0.7 0.1 1 0.2C286.7 155.9 287.2 151.2 289.2 147.1z" class="h"/><path d="M284 157.9c0.1 0 0.2 0 0.3 0 0 0 0 0 0 0 -0.3-3 0-6.8 1.2-10.6 0.8-2.7 2-5.2 3.3-7.2 2.3-3.2 5-5 7.3-4.5 0.5 0.1 0.9 0.3 1.3 0.5 0.2 0.1 0.3 0.2 0.5 0.3 0.9 0.8 1.6 2.2 2 3.9 0.4 2.8 0.1 6.3-0.9 10 0.1-0.1 0.3-0.3 0.4-0.4 0.1-0.1 0.2-0.2 0.3-0.4 0.1-0.1 0.1-0.2 0.2-0.2 0.2-0.2 0.4-0.4 0.5-0.6 0.1-0.1 0.2-0.2 0.3-0.3 1.7-7.6 0.4-14.2-3.2-15.4 -1.9-0.6-4.1 0.4-6.2 2.5 0 0 0 0 0 0 -0.4 0.3-0.8 0.7-1.2 1.1 -2.2 2.4-4.2 6-5.6 10.3 -1.2 4-1.6 7.8-1.3 10.8 0.2 0 0.4 0 0.6 0C283.9 157.9 284 157.9 284 157.9z"/><path d="M289.4 147.3c2.3-4.6 5.8-6.7 7.8-4.7 1.6 1.6 1.7 5.2 0.6 8.9 0.1-0.1 0.1-0.1 0.2-0.2 1.1-3.8 0.9-7.5-0.7-9.1 -2-2.1-5.6 0.1-8 4.9 -2.1 4.1-2.6 8.8-1.4 11.3 0 0 0.1 0 0.1 0 0 0 0.1 0 0.1-0.1C286.9 156 287.3 151.3 289.4 147.3z" class="i"/><path d="M297.2 142.6c-2-2-5.5 0.1-7.8 4.7 -2 4-2.5 8.7-1.3 11.1 0.9-0.5 1.7-0.9 2.6-1.5 -1.1-1.3-1.1-4.5 0.1-7.6 1.4-3.4 3.7-5.4 5.2-4.4 1.5 1 1.6 4.5 0.3 7.9 0.5-0.4 1-0.9 1.5-1.4C298.9 147.8 298.7 144.2 297.2 142.6z" class="j"/><path d="M296 145c-1.5-1-3.8 1-5.2 4.4 -1.2 3.1-1.2 6.3-0.1 7.6 1.9-1.2 3.8-2.5 5.6-4C297.6 149.5 297.5 146 296 145z"/><path d="M334.9 188.6c-3.4-6.8-10.7-6.7-16.8-13.5 -6-6.9-8.5-14.9-5.4-30.8 3.1-15.9 10.4-28.9 8.7-29.3 -1.1-0.3-6.8 5.6-15.6 25.2 -1.4 3.1-3.1 5.8-5.1 8.2 -0.1 0.1-0.2 0.2-0.3 0.3 -0.2 0.2-0.4 0.4-0.5 0.6 -0.1 0.1-0.1 0.2-0.2 0.2 -0.1 0.1-0.2 0.2-0.3 0.4 -0.1 0.1-0.3 0.3-0.4 0.4 -0.3 0.4-0.7 0.7-1 1 -0.1 0.1-0.1 0.1-0.2 0.2 -0.5 0.5-1 0.9-1.5 1.4 -1.8 1.5-3.7 2.9-5.6 4 -0.9 0.5-1.7 1-2.6 1.5 0 0-0.1 0-0.1 0.1 4.8 1 8.2 3.2 9.2 3.9 0 0 0 0 0 0 0.2 0.1 0.3 0.2 0.3 0.2 0 0-0.1 0-0.1-0.1 -1.1-0.5-8.5-3.8-16.8-3.8 4.5 2.3 6.8 5.6 6.8 10 0 0.2 0 0.4 0 0.6 0 0 0 0.1 0 0.1 0 0.2-0.1 0.3-0.1 0.5 0 0 0 0 0 0.1 -0.1 0.2-0.2 0.5-0.3 0.7 0 0.1-0.1 0.2-0.1 0.3 0 0.1-0.1 0.1-0.1 0.2 -2.1 4.3-9.1 9.5-15.3 11.5 0 0 0 0 0 0 0 0-0.1 0-0.1 0 -0.3 0.1-0.7 0.2-1 0.3 -0.1 0-0.2 0.1-0.4 0.1 -0.4 0.1-0.7 0.2-1.1 0.2 -0.1 0-0.1 0-0.2 0 -0.3 0.1-0.6 0.1-0.9 0.1 -0.1 0-0.2 0-0.3 0 -0.3 0-0.7 0-1 0 -2.7 0-6.3-3.3-9-7.5 -2.3 6.5-2.8 13.5 0 17.2 2.3 3.1 6.8 3.6 13 1.5 -3.4-3.7-2.2-8.1-2.2-8.1 0 0-0.3 4.3 3.3 7.7l0 0 0.2 0.3c3.3 3.5 12.4 11.7 24.5 11.2 9.8-0.4 19.3-6.3 28.4-17.6 -2.9-1.4-5.5-2.2-5.5-2.2 0 0 4 0.2 7.6 2.1 4.3 2.8 5.2 5.1 5.2 5.1 -0.4-0.4-0.8-0.8-1.2-1.2 -1 1.3-4.3 5.4-7.3 9.3 -0.2 0.2-0.3 0.4-0.5 0.6 -0.3 0.3-0.5 0.7-0.7 1 -0.3 0.5-0.7 0.9-1 1.4 0 0 0 0 0 0 -0.3 0.4-0.5 0.7-0.7 1 0 0.1-0.1 0.1-0.1 0.2 -0.3 0.4-0.5 0.7-0.7 1.1 -0.9 1.4-1.6 3.1-2.3 4.9 -0.1 0.3-0.3 0.6-0.4 0.9 -2 4.7-4.4 9.7-11.6 10.7 -2.1 0.2-4 0.4-5.8 0.4 0 0 0 0 0 0s0 0 0 0c-0.5 0-0.9 0-1.4 0 0 0-0.1 0-0.1 0l-0.3 0 0 0c-4.7-0.2-7.8-1.5-8.6-3.5 -0.4-1.1-0.2-2.2 0.7-3.1 4-3.5 4-7.6 3.6-10.1 -1-0.1-1.9-0.2-2.9-0.3 -0.6 2.8-1.6 5.4-3 7.7 -1.9 3-2.3 5.4-1.4 7.3 1.3 2.7 5.4 4.5 12.6 5.6 2.1 0.3 4 0.4 5.9 0.4 9.1 0 13.2-3.4 15-5.4 3.6-7.9 4.5-9.1 5.3-10.2 0 0-2 4.9-3.3 8.1 0.6-0.3 1.2-0.6 2-1 2.4-1.1 6.1-2.7 10.8-6.9 0.9-1 2-3 2.8-4.2C339 202.2 337.5 193.9 334.9 188.6z" class="b"/><path d="M361.8 118.8c2.2-1.9 3.6-6.6 3.6-6.7l0.5-1.6 0.5 1.6c0.9 2.7-0.2 8.1-1.1 10.8 1.3-0.9 3.1-2.5 4.2-3.6l0.9-0.9v1.2c0 0.9-1.2 3.4-2 4.9 4.1-1 12.2-5.4 12.9-17.1 0.3-12.7-6.4-26.6-16.7-34.6 -6.9-5.4-11.5-7.8-15.2-9.8 -3-1.6-5.4-2.9-7.8-5.1 0.1 3 1.1 10.8 7.6 17.7C354.9 81.4 364 103.1 361.8 118.8z" class="b"/><path d="M360.6 119.8l-0.2 1 0.9-0.4c2.1-0.9 3.6-3.9 4.4-5.9 0.1 3.4-1.3 8.3-1.9 9.3l-0.7 1 1.2-0.2c1-0.2 3-1.8 4.3-3 -0.5 1-1.1 2.4-1.8 3.5l-0.5 0.9 1-0.1c3.9-0.5 14-4.8 14.8-18.3 0.3-13.1-6.6-27.3-17.1-35.4 -7-5.4-11.6-7.9-15.4-9.9 -3.4-1.8-5.8-3.1-8.5-5.8l-0.8-0.8 -0.1 1.2c0 0.4-0.6 10.7 7.9 19.7C354.1 82 363.3 104.6 360.6 119.8zM349.4 63.2c3.7 2 8.3 4.4 15.2 9.8 10.3 8 17 21.9 16.7 34.6 -0.7 11.7-8.7 16-12.9 17.1 0.8-1.5 2-4 2-4.9v-1.2l-0.9 0.9c-1.1 1.1-2.9 2.7-4.2 3.6 0.9-2.7 2-8.1 1.1-10.8l-0.5-1.6 -0.5 1.6c0 0.1-1.4 4.8-3.6 6.7 2.2-15.7-6.9-37.4-12.7-43.1 -6.5-6.9-7.5-14.7-7.6-17.7C344 60.3 346.4 61.6 349.4 63.2z" class="g"/><path d="M290.7 217.8c-0.6 0.6-0.8 1.3-0.5 2 0.2 0.6 1.4 2.4 6.9 2.8 -1.4-2.4-2.7-7.3 2.1-14 0.6-0.8 1.2-1.5 1.8-2.2 -1.6 0.3-3.1 0.6-4.7 0.6 -0.4 0-0.8 0-1.1 0 -0.2 0-0.4 0-0.6 0C295.1 209.7 294.9 214.1 290.7 217.8z" class="k"/><path d="M322.6 200.9c3-4 6.3-8.1 7.4-9.4 -1.3-1-2.8-1.9-4.3-2.6 -4.9 6.1-10 10.7-15.2 13.8 0.5 0.2 1 0.4 1.4 0.7C314.9 201.9 319.3 200.9 322.6 200.9z" class="k"/><path d="M300.1 209.1c-4.8 6.7-3.2 11.3-1.7 13.5 0.2 0 0.4 0 0.6 0 0.2 0 0.4 0 0.7 0 0.2 0 0.4 0 0.6 0 0.2 0 0.5 0 0.7 0 0 0 0 0 0 0 1.3 0 2.8-0.1 4.3-0.3 7-1 9.1-6.1 11.2-11 0.8-1.8 1.5-3.6 2.4-5.1 0.2-0.3 0.5-0.7 0.7-1.1 0.1-0.1 0.1-0.2 0.2-0.2 0.2-0.4 0.5-0.7 0.8-1.1 0 0 0 0 0 0 0.4-0.5 0.8-1.1 1.2-1.7 -3.7 0.2-7.6 1.4-9.8 2.5 -8.7 5.2-7.7 10.9-7.6 11.1 0 0-2.2-6.1 6.4-11.6 -0.5-0.3-1.1-0.5-1.9-0.5 -1.9 1-3.8 1.8-5.7 2.3C302.2 206.6 301.2 207.7 300.1 209.1z" fill="#FF6D6D"/><path d="M298.1 223.6c0 0 0.1 0 0.1 0 -0.1 0-0.3 0-0.4 0l0 0L298.1 223.6z" class="l"/><path d="M317 212.6c-2 4.7-4.4 9.7-11.6 10.7C312.6 222.3 315.1 217.3 317 212.6z" class="l"/><path d="M305.4 223.3c-2.1 0.2-4 0.4-5.8 0.4 0 0 0 0 0 0C301.4 223.7 303.3 223.6 305.4 223.3z" class="l"/><path d="M322.3 203.1c0.2-0.3 0.5-0.7 0.7-1C322.8 202.4 322.5 202.8 322.3 203.1z" class="l"/><path d="M297.1 222.5c0.4 0 0.8 0.1 1.3 0.1 -1.5-2.2-3.1-6.8 1.7-13.5 1-1.4 2.1-2.5 3.2-3.3 -0.7 0.2-1.5 0.4-2.2 0.6 -0.6 0.6-1.2 1.3-1.8 2.2C294.4 215.3 295.8 220.1 297.1 222.5z" class="l"/><path d="M305.3 222.3c-1.5 0.2-3 0.3-4.3 0.3C302.3 222.6 303.8 222.5 305.3 222.3z" class="l"/><path d="M299.7 222.6c0 0 0 0 0 0 -0.2 0-0.4 0-0.7 0C299.2 222.6 299.4 222.6 299.7 222.6z" class="l"/><path d="M319.6 205.1c-0.3 0.4-0.5 0.8-0.7 1.1C319.1 205.8 319.4 205.5 319.6 205.1z" class="l"/><path d="M320.6 203.7c-0.3 0.4-0.5 0.8-0.8 1.1C320.1 204.5 320.3 204.1 320.6 203.7z" class="l"/><path d="M304.4 215.5c0-0.2-1.1-5.9 7.6-11.1 2.2-1.1 6.2-2.3 9.8-2.5 -0.4 0.6-0.8 1.2-1.2 1.7 0.6-0.9 1.3-1.8 2-2.8 -3.4 0-7.7 1-10.8 2.4 -0.4-0.3-0.9-0.6-1.4-0.7 -0.5 0.3-1 0.6-1.5 0.8 0.8 0 1.4 0.2 1.9 0.5C302.2 209.4 304.4 215.5 304.4 215.5z" class="l"/><path d="M345.1 134.3c-2.5-6.3-6.3-7-8-7 -1.1 0-2 0.3-2.6 0.7C339.8 128.8 343.1 131.8 345.1 134.3z" class="m"/><path d="M347.7 140.2l-0.4-2.2c-2.4-10.6-8-11.8-10.2-11.8 -1.9 0-3.6 0.8-4.2 1.9l-0.4 0.7 0.8 0.1C343.3 129.9 347.6 140.1 347.7 140.2zM337.1 127.2c1.7 0 5.5 0.8 8 7 -1.9-2.5-5.3-5.5-10.7-6.3C335.1 127.5 336 127.2 337.1 127.2z" class="n"/><path d="M298.8 123.8c1.9-1.4 4.3-2.7 7-3.1 -0.4-0.2-0.9-0.4-1.5-0.4C303.2 120.4 301.3 120.9 298.8 123.8z" class="m"/><path d="M304.3 119.3c-2.1 0-5.6 1.5-9.9 8.8l-1.2 2.2c0.1-0.1 7.2-8.5 13.8-8.6l1 0 -0.5-0.8C306.8 119.9 305.6 119.3 304.3 119.3zM298.8 123.8c2.5-2.9 4.5-3.5 5.5-3.5 0.5 0 1 0.1 1.5 0.4C303 121.1 300.6 122.4 298.8 123.8z" class="n"/><path d="M468.9 386.4c3.3 0.2 7 0 10.6-0.7 2.5-0.5-1.2-3 1.1-3.8 2.2-0.8 4.6-1.3 2.8-3.4 -2.9-3.2 2.2-4.6 2.3-6.8 -0.3 0-0.7 0-1 0 -0.5 0-1.1-0.1-1.7-0.1 -8.4-0.6-15.2-3.1-19.3-5 -1 4.3-2.8 6-4.5 6.9 0.1 0.1 0.1 0.3 0.2 0.5 0 0 0 0.1 0 0.1 0.1 0.2 0.1 0.4 0.2 0.6 0 0.1 0.1 0.2 0.1 0.2 0.1 0.2 0.1 0.3 0.2 0.5 0 0.1 0.1 0.3 0.1 0.4 0.1 0.2 0.1 0.3 0.2 0.5 0.1 0.2 0.1 0.3 0.2 0.5 0.1 0.2 0.1 0.4 0.2 0.6 0.1 0.2 0.1 0.4 0.2 0.6 0.1 0.3 0.1 0.6 0.2 0.8 0.1 0.2 0.1 0.4 0.1 0.7 0.1 0.4 0.2 0.8 0.2 1.2 0 0 0 0 0 0 0.1 0.4 0.1 0.8 0.2 1.1 1.8 1.3 3.9 2.7 6.2 3.9C468.2 386 468.4 386.2 468.9 386.4z" class="f"/><path d="M467.7 385.8c-2.3-1.3-4.4-2.7-6.2-3.9 0 0.3 0.1 0.6 0.1 0.9 0 0.2 0 0.3 0 0.5 1.7 1.2 3.6 2.4 5.6 3.5l0.1 0.1c0 0 0.5-0.1 1.5-0.4 0 0 0 0 0 0C468.4 386.2 468.2 386 467.7 385.8z" class="g"/><path d="M415.9 367c-1.8-4.6-3.7-4.5-5.1-7.6s0.1-8.1 1.4-10.5c0 0-3.5-0.3-3.5-2.9 0-2.8 3.6-11.3 7.8-14.8 -4.9 0.3-10.4 1.3-16.3 3.7 -8.9 4-16 11.3-17.2 17.6 -0.5 2.4 0 4.5 1.4 5.9 0.8 0.8 1.6 1.7 2.4 2.5 4.2 4.6 7.9 8.6 13 8.8l0.1 0c2.8 0.9 4.4 2.1 6.2 3.5 2.5 1.9 5.3 4.1 12.7 5.7 0.3 0 2.9 0.2 6.6 0.2C419.5 375.4 417.1 370 415.9 367z" class="b"/><path d="M438.1 383.2c-4.5-0.4-8.1-1.5-11-3 0 0 0 0 0 0 -0.8 0-1.6 0-2.5 0 -3.5 0-5.9-0.2-6-0.2v0c-5.1 0-11.6-1.3-15.1-2.9 -2.3-1.1-4.3 0.8-6.4 2.9 -0.6 0.6-1.3 1.2-1.9 1.7 -2.1 1.7-6.5 6.5-6 9.7 0.2 1.1 0.9 1.9 2.3 2.5 5.8-10.4 12.4-10.4 12.4-10.4 -6.9 1.3-11.1 10.1-11.6 11.1 0.1 1.6 3.4 3.9 9.5 4.5 -0.2-5 7.3-10 7.3-10 -6.9 6.3-6.6 9.3-6.4 10l0 0 0.1 0.3c0 0 0.1 0.4 1.1 0.9 3.1 1.6 12.6 3.4 26.9-1.2l2.5-0.8c15.1-4.9 28.2-9.1 27.4-15.5 -0.1-0.8-0.2-1.5-0.3-2.1C453.4 383.2 445.3 383.8 438.1 383.2z" class="b"/><path d="M454.4 374.4c0 0 0 0 0 0 1.2-0.5 2.5-1 3.5-1.4l0.4-0.2c4.4-2 5.9-9.1 4.7-21.8 -0.2-1.7-0.4-3.5-0.6-5.4l0 0c0-0.1 0-0.1 0-0.2 0 0 0-0.1 0-0.1h0c0 0 0 0 0 0l0 0c0-0.6-0.1-1.2-0.1-1.8 -0.7-16.8-3.4-36.9-8.8-43 -1.3-1.5-3.4-3.9-6.1-7.1 -10.1-11.8-26.7-31.3-36.3-39.4 -0.2 1.9-1.4 3.6-1.4 3.6 0 0 0.8-2.5 0.4-4.7 -1.7-7.7-7.6-16.1-14.5-21.3 -3 5.6-14.6 12.1-29.6 16.2 -2 0.5-4 1-6 1.5 0 4.1 0 9.2 3.4 14.7 0.5 3 1.7 4.3 4.5 7.6 2.8 3.3 5.4 10 1.9 18.9 -1.4 4.9-0.7 8.4 1.7 10.3 0.6 0.5 1 1.1 1.2 1.8l20.8-6.9c-0.5-0.4-0.9-0.5-0.9-0.5 0 0 4.3 0.3 3.5 9.4 1.8 7.8 2.7 10.4 8.3 12.4 5.7 2.1 11.6 3.9 12.8 13.5 0.7 0 1.4 0 2.1 0 0.1 0 0.2 0 0.2 0 0.6 0 1.1 0.1 1.7 0.1 0.1 0 0.2 0 0.4 0 0.5 0 1 0.1 1.5 0.1 0.1 0 0.2 0 0.3 0 0.5 0.1 1 0.1 1.5 0.2 0.1 0 0.1 0 0.2 0 0.5 0.1 1.1 0.2 1.6 0.3 0 0 0 0 0 0 1.2 0.2 2.3 0.5 3.4 0.8 0.8 0.2 1.6 0.5 2.3 0.7 0 0 0.1 0 0.1 0 0.4 0.1 0.7 0.2 1 0.4 0 0 0.1 0 0.1 0 0.3 0.1 0.6 0.2 0.9 0.3 0 0 0.1 0 0.1 0 0.3 0.1 0.5 0.2 0.8 0.3 0 0 0 0 0.1 0 0.2 0.1 0.5 0.2 0.7 0.3 0 0 0 0 0 0 0.6 0.3 1.1 0.5 1.2 0.6 0 0 0 0 0 0 0 0 0.1 0 0.1 0 0 0-0.1 0-0.2-0.1 0 0 0 0 0 0 -0.2-0.1-0.5-0.2-0.9-0.4 -0.1 0-0.1 0-0.2-0.1 -0.1-0.1-0.3-0.1-0.4-0.2 -0.1 0-0.1 0-0.2-0.1 -0.3-0.1-0.5-0.2-0.8-0.3 -0.1 0-0.3-0.1-0.4-0.1 -0.2-0.1-0.3-0.1-0.5-0.2 -0.2-0.1-0.4-0.1-0.6-0.2 -0.2-0.1-0.4-0.1-0.7-0.2 -0.2-0.1-0.5-0.1-0.8-0.2 -0.2 0-0.3-0.1-0.5-0.1 -0.3-0.1-0.6-0.1-0.8-0.2 -0.1 0-0.3-0.1-0.4-0.1 -0.4-0.1-0.9-0.2-1.3-0.3 -0.1 0-0.3-0.1-0.5-0.1 -0.4-0.1-0.7-0.1-1.1-0.2 -0.1 0-0.3-0.1-0.4-0.1 -0.5-0.1-1.1-0.2-1.6-0.2 -0.1 0-0.2 0-0.3 0 -0.5-0.1-1-0.1-1.5-0.2 -0.1 0-0.3 0-0.4 0 -1.2-0.1-2.5-0.1-3.8-0.1 -0.1 0-0.3 0-0.4 0 -0.7 0-1.3 0-2 0.1 0 0 0 0 0 0 -4.2 3.5-7.8 12-7.8 14.8 0 2.6 3.5 2.9 3.5 2.9 -1.3 2.4-2.9 7.3-1.4 10.5s3.3 3 5.1 7.6c1.2 3 3.6 8.5 9.5 12.3 0 0 0 0 0 0 4-0.1 9.2-0.7 16.4-2C446.4 376.3 451.5 375.2 454.4 374.4z" class="f"/><path d="M460.1 379.8c0-0.1 0-0.2-0.1-0.3 0-0.2-0.1-0.4-0.1-0.5 0-0.1-0.1-0.3-0.1-0.4 0-0.1-0.1-0.2-0.1-0.3 0-0.2-0.1-0.3-0.1-0.5 0-0.1 0-0.1-0.1-0.2 0-0.2-0.1-0.4-0.1-0.5 0 0 0 0 0-0.1 -0.4-1.4-0.8-2.4-1.1-3 -0.9 0.5-2.1 0.8-3.2 1.1 -0.1 0.1-0.3 0.1-0.5 0.2 0 0-3.4 1.2-7.8 2 -2.8 0.6-7 1.4-11.1 2 -2 0.4-4.7 0.8-8.2 0.9 -0.1 0-0.3 0-0.4 0 0 0 0 0 0 0 2.9 1.5 6.5 2.6 11 3 7.2 0.6 15.4 0 22.2-2.4 0 0 0-0.1 0-0.1 0 0 0 0 0 0C460.2 380.4 460.2 380.1 460.1 379.8z" class="f"/><path d="M462.3 345.3c0 0.1 0 0.1 0 0.2 0.3 1.9 0.5 3.7 0.6 5.4 -0.2-1.8-0.4-3.7-0.7-5.7h0C462.3 345.3 462.3 345.3 462.3 345.3z" class="c"/><path d="M424.9 331c0.5 0.1 1.1 0.2 1.6 0.3C426 331.1 425.5 331 424.9 331z" class="c"/><path d="M429.9 332c-1-0.3-2.1-0.6-3.3-0.8 2.2 0.4 4.1 1 5.6 1.5C431.5 332.5 430.7 332.3 429.9 332z" class="c"/><path d="M436 334.2c0.6 0.3 1.1 0.5 1.2 0.6C437 334.8 436.6 334.5 436 334.2z" class="c"/><path d="M435.3 333.9c0.2 0.1 0.5 0.2 0.7 0.3C435.7 334.1 435.5 334 435.3 333.9z" class="c"/><path d="M433.4 333.2c0.3 0.1 0.6 0.2 0.9 0.3C434 333.4 433.7 333.3 433.4 333.2z" class="c"/><path d="M432.3 332.8c0.4 0.1 0.7 0.2 1 0.4C433 333 432.6 332.9 432.3 332.8z" class="c"/><path d="M434.4 333.6c0.3 0.1 0.5 0.2 0.8 0.3C435 333.8 434.7 333.7 434.4 333.6z" class="c"/><path d="M423.2 330.7c0.5 0.1 1 0.1 1.5 0.2C424.2 330.8 423.7 330.8 423.2 330.7z" class="c"/><path d="M419.3 330.4c0.6 0 1.1 0 1.7 0.1C420.5 330.5 419.9 330.4 419.3 330.4z" class="c"/><path d="M421.4 330.5c0.5 0 1 0.1 1.5 0.1C422.4 330.6 421.9 330.6 421.4 330.5z" class="c"/><path d="M437.3 334.9c0 0-0.1 0-0.2-0.1C437.2 334.9 437.3 334.9 437.3 334.9z" class="c"/><path d="M418.9 331.2c1.3 0 2.6 0 3.9 0.1 0.1 0 0.3 0 0.4 0 0.5 0 1 0.1 1.5 0.2 0.1 0 0.2 0 0.3 0 0.6 0.1 1.1 0.1 1.6 0.2 0.1 0 0.3 0 0.4 0.1 0.4 0.1 0.8 0.1 1.1 0.2 0.2 0 0.3 0.1 0.5 0.1 0.5 0.1 0.9 0.2 1.3 0.3 0.1 0 0.3 0.1 0.4 0.1 0.3 0.1 0.6 0.1 0.9 0.2 0.2 0 0.3 0.1 0.5 0.1 0.3 0.1 0.5 0.1 0.8 0.2 0.2 0.1 0.5 0.1 0.7 0.2 0.2 0.1 0.4 0.1 0.6 0.2 0.2 0.1 0.3 0.1 0.5 0.2 0.1 0 0.3 0.1 0.4 0.1 0.3 0.1 0.6 0.2 0.8 0.3 0.1 0 0.1 0 0.2 0.1 0.1 0.1 0.3 0.1 0.4 0.2 0.1 0 0.1 0 0.2 0.1 0.4 0.2 0.7 0.3 0.9 0.4 0 0 0 0 0 0 0.1 0.1 0.2 0.1 0.2 0.1 0 0 0 0-0.1 0 0 0 0 0 0 0 -0.2-0.1-0.6-0.3-1.2-0.6 0 0 0 0 0 0 -0.2-0.1-0.4-0.2-0.7-0.3 0 0-0.1 0-0.1 0 -0.2-0.1-0.5-0.2-0.8-0.3 0 0-0.1 0-0.1 0 -0.3-0.1-0.6-0.2-0.9-0.3 0 0-0.1 0-0.1 0 -0.3-0.1-0.7-0.2-1-0.4 0 0-0.1 0-0.1 0 -1.6-0.5-3.5-1.1-5.6-1.5 0 0 0 0 0 0 -0.5-0.1-1-0.2-1.6-0.3 -0.1 0-0.1 0-0.2 0 -0.5-0.1-1-0.1-1.5-0.2 -0.1 0-0.2 0-0.3 0 -0.5-0.1-1-0.1-1.5-0.1 -0.1 0-0.2 0-0.4 0 -0.6 0-1.1-0.1-1.7-0.1 -0.1 0-0.2 0-0.2 0 -0.7 0-1.3 0-2 0 -0.1 0-0.6 0.9-0.5 0.9 0 0 0 0 0.1 0 0.7 0 1.3-0.1 2-0.1C418.7 331.2 418.8 331.2 418.9 331.2z" class="g"/><path d="M427.5 380.2c3.4-0.1 6.1-0.5 8.2-0.9C432.8 379.8 429.9 380.1 427.5 380.2z" class="c"/><path d="M343.1 236.6c5.8 0 12.9-1.1 19.9-3 8.2-2.2 15.5-5.4 20.7-8.9 3.8-2.6 6.3-5.9 6.9-8.8 0-0.1 0-0.3-0.1-0.4 -3.4 5.4-14.1 11.3-27.3 14.9 -7.1 1.9-14.3 3-20.2 3 -6.4 0-10.9-1.2-12.9-3.4 -0.2 0.7-0.2 1.4-0.1 2C330.9 235 335.7 236.6 343.1 236.6z" class="o"/><path d="M297.4 162.5c0.1 0 0.1 0.1 0.1 0.1 0 0-0.1-0.1-0.3-0.2 0 0 0 0 0 0 -1-0.7-4.5-2.9-9.2-3.9 0 0-0.1 0-0.1 0 -0.3-0.1-0.7-0.1-1-0.2 -0.8-0.1-1.7-0.3-2.5-0.3 0 0 0 0 0 0 -0.1 0-0.2 0-0.3 0 -0.1 0-0.1 0-0.2 0 -0.2 0-0.4 0-0.6 0 -1.6-0.1-3.2-0.1-4.9 0 0.8 0.3 1.5 0.6 2.2 1C288.9 158.8 296.3 162 297.4 162.5z" class="c"/><path d="M280.1 173.8c-0.4-0.7-1.5-0.8-2.2-0.8 -0.2 0-0.5 0-0.7 0 -1.9 0.2-4.1 0.9-4.4 4.9 0 0.4 0 0.8 0 1.1 0 0.7 0 1.5-0.2 2.1 2.3-0.9 4.6-2.3 6.7-3.7C280.2 175.8 280.5 174.5 280.1 173.8z" fill="#492906"/><path d="M286.8 171c0.1-0.1 0.1-0.2 0.1-0.3C286.9 170.8 286.8 170.9 286.8 171z" class="p"/><path d="M286.7 171.3c-1.3 2.5-4 5.1-6.7 7l-1.6 1.1 0.9-1.8c0-0.1 0.1-0.1 0.1-0.2 -2.1 1.5-4.4 2.8-6.7 3.7 -0.2 0.7-0.5 1.3-1.2 1.6C277.6 180.7 284.5 175.6 286.7 171.3z" class="p"/><path d="M263.7 181.4c-1.3-3.6 0.9-10.3 0.9-10.3 -0.6 2.7-1.6 10.1 1.3 11.3 0.2 0.1 0.4 0.1 0.7 0.1 1.3 0 2.9-0.3 4.5-0.8 0.6-0.2 0.7-1.2 0.7-2.7 0-0.4 0-0.8 0-1.2 0.2-3.6 2-5.5 5.3-5.9 0.3 0 0.6 0 0.8 0 1.5 0 2.6 0.5 3.1 1.4 0.4 0.7 0.4 1.7 0 2.9 3.3-2.7 5.3-5.5 5.3-7.4 0-7.7-8.1-10.6-15-11.6 -1.1-0.2-2.2-0.2-3.3-0.2 -7.6 0-13.3 3.8-13.3 8.9C254.7 171.2 259.6 178.6 263.7 181.4z" fill="#4F1C00"/><path d="M266.5 183.6c0.3 0 0.7 0 1 0 0.1 0 0.2 0 0.3 0 0.3 0 0.6-0.1 0.9-0.1 0.1 0 0.1 0 0.2 0 0.3-0.1 0.7-0.1 1.1-0.2 0.1 0 0.2-0.1 0.4-0.1 0.3-0.1 0.7-0.2 1-0.3 0 0 0.1 0 0.1 0 0 0 0 0 0 0 0.7-0.3 1.1-0.8 1.2-1.6 0.1-0.6 0.2-1.4 0.2-2.1 0-0.4 0-0.8 0-1.1 0.2-3.9 2.5-4.7 4.4-4.9 0.3 0 0.5 0 0.7 0 0.6 0 1.7 0.1 2.2 0.8 0.4 0.7 0.1 2-0.8 3.7 0 0.1-0.1 0.1-0.1 0.2l-0.9 1.8 1.6-1.1c2.7-1.9 5.5-4.5 6.7-7 0-0.1 0.1-0.1 0.1-0.2 0.1-0.1 0.1-0.2 0.1-0.3 0.1-0.2 0.2-0.5 0.3-0.7 0 0 0 0 0-0.1 0-0.2 0.1-0.3 0.1-0.5 0 0 0-0.1 0-0.1 0-0.2 0-0.4 0-0.6 0-4.4-2.3-7.8-6.8-10 -0.7-0.3-1.4-0.7-2.2-1 -2-0.7-4.2-1.3-6.8-1.7 -1.2-0.2-2.3-0.3-3.5-0.3 -8.3 0-14.3 4.2-14.3 10 0 2.7 1.3 6.1 3.1 9.2 0.2 0.4 0.5 0.8 0.7 1.1C260.2 180.3 263.8 183.6 266.5 183.6zM254.7 165.8c0-5.1 5.7-8.9 13.3-8.9 1.1 0 2.2 0.1 3.3 0.3 6.8 1 15 3.9 15 11.6 0 1.9-2 4.7-5.3 7.4 0.4-1.2 0.4-2.1 0-2.9 -0.5-0.9-1.6-1.4-3.1-1.4 -0.3 0-0.6 0-0.8 0 -3.4 0.4-5.1 2.3-5.3 5.9 0 0.4 0 0.8 0 1.2 0 1.5-0.1 2.5-0.7 2.7 -1.7 0.5-3.2 0.8-4.5 0.8 -0.2 0-0.4 0-0.6-0.1 -3-1.3-2-8.6-1.3-11.3 0 0-2.2 6.6-0.9 10.3C259.6 178.6 254.7 171.2 254.7 165.8z" fill="#280E00"/><path d="M343.5 250.1c6.4 0 14.2-1.2 22-3.3 17.5-4.8 31-13.4 29.5-18.7 0-0.2-0.1-0.3-0.2-0.5 -0.5-1.3-1.9-5.2-3.5-9.6 -0.8 2.4-3.2 5-7.1 7.6 -5.3 3.6-12.8 6.8-21 9.1 -7.1 2-14.3 3-20.2 3 -6.3 0-10.9-1.2-12.9-3.4l0.3 9.9 0 0v0.7c0 0.3 0 0.6 0.1 0.8C331.4 248.5 336.2 250.1 343.5 250.1z" class="o"/><path d="M343.5 251.1c4.8 0 10.5-0.7 16.3-1.9 2-0.4 4-0.9 6-1.5 15-4.1 26.6-10.6 29.6-16.2 0.2-0.3 0.3-0.7 0.5-1 0.4-1 0.4-1.9 0.2-2.8 -0.1-0.2-0.1-0.4-0.2-0.6 -0.6-1.5-2.5-6.7-4.4-12 0 0-0.1-0.3-0.2-0.5 0 0 0 0 0 0 -0.1-0.2-0.1-0.3-0.2-0.4 -0.1-0.2-0.3-0.5-0.5-0.7 -0.1-0.1-0.1-0.1-0.1-0.1 0 0 0 0 0 0l0 0 -0.4 0.8c0 0.1-0.1 0.2-0.1 0.3 -0.5 1-1.4 2-2.5 3.1 -0.3 0.3-0.6 0.5-0.9 0.8 -4.8 4.2-13.6 8.4-23.7 11.1 -4.2 1.2-8.4 2-12.4 2.5 -2.7 0.3-5.2 0.5-7.6 0.5 -3.8 0-6.9-0.4-9.1-1.2 -0.4-0.1-0.7-0.3-1-0.4 -1.1-0.5-1.9-1.1-2.4-1.8 -0.1-0.1-0.1-0.1-0.2-0.2l-0.5-0.8 0-0.1 -0.4 0.8 0 0 0 0c0 0 0 0 0 0 -0.1 0.3-0.2 0.5-0.3 0.8 0 0.1 0 0.1-0.1 0.2 0 0.2-0.1 0.3-0.1 0.5l0 0 0 0c0 0 0 0.1-0.1 0.3 0 0 0 0 0 0 0 0.3-0.1 0.6 0 1 0.4 3.3 0.5 13.3 0.5 13.3l0 0.7 0 0c0 0.2 0.1 0.3 0.1 0.4 0.1 0.3 0.2 0.6 0.3 0.8 0.2 0.4 0.5 0.8 0.9 1.1C332.9 250 337.3 251.1 343.5 251.1zM330.2 230.1c2.1 2.2 6.6 3.4 12.9 3.4 5.9 0 13.1-1.1 20.2-3 13.2-3.6 23.8-9.5 27.3-14.9 0 0.1 0 0.3 0.1 0.4 -0.5 2.9-3.1 6.2-6.9 8.8 -5.2 3.5-12.6 6.7-20.7 8.9 -7 1.9-14.1 3-19.9 3 -7.4 0-12.2-1.7-13-4.5C329.9 231.5 330 230.8 330.2 230.1zM330.5 244.9v-0.7l0 0 -0.3-9.9c2.1 2.2 6.6 3.4 12.9 3.4 5.9 0 13.1-1.1 20.2-3 8.3-2.3 15.7-5.5 21-9.1 3.9-2.6 6.3-5.2 7.1-7.6 1.6 4.4 3 8.3 3.5 9.6 0.1 0.2 0.1 0.3 0.2 0.5 1.5 5.3-12.1 13.9-29.5 18.7 -7.9 2.2-15.7 3.3-22 3.3 -7.3 0-12.2-1.6-12.9-4.3C330.5 245.5 330.5 245.2 330.5 244.9z" fill="#4B0806"/></svg>