<svg version="1.1" id="Layer_1" xmlns="http://www.w3.org/2000/svg" xmlns:xlink="http://www.w3.org/1999/xlink" viewBox="0 0 768 430" enable-background="new 0 0 768 430" xml:space="preserve">
<g>
	<g>
		<path fill="#2D9562" d="M586.766,293.619c0.95-0.275,1.614-0.776,2.046-1.398c-0.254-2.562-2.156-5.549-4.216-6.578
			c1.084-0.299,1.812-0.866,2.287-1.574c0.648-1.918-0.678-4.311-2.52-5.189c0.428-0.458,0.729-0.915,0.924-1.37
			c-0.419-0.327-0.885-0.587-1.393-0.765c0.772-0.749,1.059-1.694,0.996-2.652c-1.169-1.826-3.643-3.231-5.637-3.641
			c3.076-1.735,3.203-4.661,1.989-7.138c-1.383-1.211-3.226-2.098-4.796-2.413c0.639-0.357,1.17-0.745,1.612-1.15
			c-1.509-0.95-3.199-1.27-4.589-0.468c4.087-5.471-2.411-8.314-6.6-5.769c2.965-3.413-2.015-7.941-5.296-5.593
			c1.019-1.852,0.337-4.813-1.607-6.109c-4.9-3.282-7.836,0.608-8.039,5.168c-1.519-4.72-8.385-3.64-8.701,1.361
			c-0.627-5.188-8.799-5.304-7.239,2.091c-5.095-5.51-10.973,3.449-7.364,7.267c-5.15-2.291-7.905,2.717-5.28,6.946
			c-6.004-5.991-11.246,5.558-5.77,9.246c-2.416-0.239-5.201-0.119-6.549,2.203c-1.306,2.242-0.208,5.884,2.131,6.916
			c-3.666,0.04-4.644,8.329-1.071,8.657c-3.995,0.091-5.37,6.839-1.685,8.288c-6.672,0.454-2.182,7.35,1.767,7.517
			c-3.751,0.774-3.156,8.028,1.51,6.686c-2.441,0.59-0.141,3.636,1.477,4.232c-1.492,3.585,2.361,7.643,5.618,4.438
			c-0.39,0.639-0.669,1.257-0.85,1.851c0.086,1.741,1.015,3.196,2.898,3.534c1.118,0.204,4.539,0.179,4.729-1.274
			c0.16,0.666,0.271,1.405,0.866,1.852c1.465,1.116,3.91-0.068,4.27-1.729c0.219,0.241,0.178,0.577,0.249,0.719
			c0.699,1.415,1.304,2.804,2.781,3.771c2.83,1.855,6.474-0.634,6.616-3.622c0.405,1.08,0.397,2.139,1.172,3.15
			c1.028,1.338,3.009,2.171,4.689,1.972c1.715-0.194,3.477-1.279,4.401-2.72c0.257-0.398,0.511-1.471,0.459-2.376
			c1.942,1.752,5.445,2.271,7.691,1.354c2.544-1.047,3.131-2.621,2.778-5.074c2.026,1.404,4.459,2.477,6.853,0.967
			c1.628-1.029,2.299-3.445,1.443-5.161c1.991,0.802,4.216,1.114,5.936-0.503c1.429-1.346,0.887-3.204,0.026-4.687
			c-0.585-1.009-0.954-1.073,0.225-1.452c0.706-0.234,1.416-0.353,2.075-0.706c1.065-0.58,1.827-1.477,1.975-2.686
			c0.066-0.572-0.364-3.835-1.112-3.876c6.232,0.334,6.473-5.708,4.014-9.789c1.712-0.034,2.776-0.62,3.351-1.5
			C587.824,294.321,587.301,293.893,586.766,293.619z"/>
		<path fill="#695049" d="M591.108,305.168c0.977,0.466-0.125,4.323-0.472,5.081c-0.723,1.584-1.75,3.038-2.505,4.604
			c-1.164,2.417-2.713,4.352-4.19,6.582c-1.252,1.888-1.462,6.148-2.233,7.718c-1.898,3.891-0.199,5.884-0.426,10.146
			c-0.063,1.208,0.284,3.276,0.253,4.485c-0.01,0.363-0.166,43.165-0.166,43.165l-12.383,0.208c0,0,0.239-42.568,0.239-43.215
			c0-1.136,0.814-3.262,0.789-4.408c-0.081-2.8-1.054-2.723-0.801-6.192c0.199-2.731,0.213-5.535,0.289-8.273
			c0.058-1.975-1.127-3.52-2.05-5.262c-3.042-5.744-5.842-11.611-8.978-17.319c-0.744-1.359-1.886-2.311-0.587-3.299
			c0.761-0.576,2.326-1.262,3.324-1.272c1.128-0.009-0.084,0.398,0.514,1.357c3.278,5.253,6.759,11.25,9.564,16.666
			c1.146-1.524,1.165-3.778,2.157-5.428c0.638-1.051,1.61-3.62,2.713-4.253c0.658,0.469,2.186,1.15,2.572,1.814
			c0.551,0.948-0.361,2.475-0.689,3.466c-0.521,1.551-1.072,3.073-1.99,4.468c-0.413,0.624-1.299,1.37-1.326,2.144
			c-0.037,0.93,0.931,2.673,1.411,3.54c0.693,1.258,1.604,2.464,2.005,3.848c0.754-0.729,1.26-2.336,1.774-3.303
			c0.688-1.28,1.403-2.247,2.288-3.399c1.146-1.503,1.592-2.786,1.64-4.613c0.064-2.358,0.09-4.873,0.615-7.195
			c0.252-1.106,0.523-1.093,1.615-1.279c0.965-0.163,1.938-0.42,2.919-0.488C589.384,305.231,590.766,305.004,591.108,305.168z"/>
		<path fill="#3BA466" d="M612.371,255.371c4.76-1.479,3.223-8.482-0.708-9.989c2.188-2.358,0.558-6.385-1.933-7.685
			c3.918-4.515-1.708-9.225-5.613-10.096c7.627-4.715,0.432-13.927-4.23-11.799c2.241-5.334-4.786-11.567-9.4-8.509
			c3.265-4.1-3.169-10.083-7.385-6.601c2.637-1.917,0.454-5.73-1.858-6.96c-3.218-1.714-6.967,0.249-7.188,5.718
			c-1.677-5.654-9.229-4.366-9.576,1.623c-1.22-6.494-10.446-5.71-7.961,2.512c-10.133-4.527-10.79,4.646-8.1,8.717
			c-5.667-2.746-8.696,3.257-5.813,8.325c-6.601-7.174-12.37,6.667-6.343,11.088c-2.659-0.287-5.719-0.139-7.209,2.643
			c-1.434,2.688-0.227,7.056,2.352,8.29c-4.03,0.058-5.114,9.989-1.179,10.381c-4.396,0.11-5.912,8.197-1.854,9.936
			c-7.341,0.549-2.406,8.816,1.941,9.023c-4.13,0.919-3.475,9.621,1.66,8.002c-2.688,0.718-1.345,5.873,1.626,5.078
			c-1.641,4.305,2.596,9.171,6.179,5.321c-3.628,6.467,1.354,11.118,7.066,8.373c-0.042,2.139,0.91,3.966,2.948,4.38
			c1.136,0.229,4.601,0.202,4.791-1.436c0.165,0.749,0.278,1.571,0.878,2.078c1.485,1.25,3.965-0.079,4.323-1.944
			c0.229,0.272,0.183,0.653,0.252,0.81c0.708,1.588,1.325,3.147,2.823,4.232c2.865,2.085,6.559-0.712,6.701-4.064
			c0.412,1.217,0.401,2.405,1.183,3.534c1.042,1.508,3.05,2.442,4.755,2.221c1.735-0.221,3.518-1.442,4.458-3.06
			c0.264-0.447,0.515-1.648,0.461-2.668c1.969,1.971,5.519,2.547,7.793,1.517c2.575-1.167,3.171-2.938,2.815-5.688
			c2.054,1.572,4.519,2.779,6.944,1.089c1.648-1.16,2.324-3.871,1.454-5.791c2.024,0.901,4.278,1.244,6.022-0.567
			c1.442-1.513,0.894-3.596,0.023-5.262c-0.594-1.135-0.965-1.197,0.227-1.633c0.713-0.259,1.43-0.39,2.097-0.79
			c1.083-0.651,1.857-1.658,2.002-3.009c0.067-0.644-0.364-4.306-1.126-4.356c6.314,0.378,6.562-6.403,4.068-10.985
			C619.594,267.204,616.24,257.501,612.371,255.371z"/>
		<path fill="#2D9562" d="M635.402,286.895c0.81-0.258,1.374-0.729,1.746-1.32c-0.223-2.413-1.839-5.229-3.592-6.201
			c0.92-0.279,1.547-0.817,1.948-1.486c0.549-1.809-0.576-4.063-2.15-4.899c0.369-0.429,0.622-0.859,0.787-1.293
			c-0.354-0.302-0.749-0.553-1.185-0.715c0.662-0.714,0.904-1.604,0.854-2.505c-0.999-1.724-3.104-3.048-4.8-3.433
			c2.618-1.637,2.722-4.398,1.688-6.737c-1.174-1.141-2.743-1.976-4.082-2.275c0.546-0.341,0.993-0.701,1.372-1.092
			c-1.286-0.886-2.725-1.193-3.905-0.436c3.477-5.159-2.054-7.842-5.624-5.438c2.529-3.223-1.712-7.495-4.505-5.278
			c0.863-1.749,0.286-4.541-1.369-5.765c-4.178-3.096-6.673,0.575-6.848,4.878c-1.292-4.453-7.142-3.433-7.407,1.279
			c-0.536-4.89-7.493-4.999-6.166,1.973c-4.338-5.193-9.347,3.258-6.267,6.857c-4.39-2.159-6.735,2.565-4.499,6.55
			c-5.112-5.646-9.577,5.247-4.916,8.727c-2.058-0.226-4.422-0.115-5.576,2.079c-1.111,2.114-0.177,5.55,1.815,6.521
			c-3.118,0.038-3.954,7.857-0.911,8.168c-3.403,0.084-4.572,6.453-1.434,7.816c-5.68,0.434-1.86,6.933,1.505,7.1
			c-3.199,0.725-2.689,7.571,1.282,6.301c-2.077,0.561-0.114,3.431,1.258,3.99c-1.271,3.389,2.01,7.213,4.785,4.186
			c-0.333,0.611-0.567,1.191-0.726,1.748c0.072,1.648,0.867,3.012,2.468,3.34c0.958,0.192,3.866,0.17,4.028-1.203
			c0.139,0.628,0.234,1.317,0.739,1.742c1.247,1.054,3.329-0.065,3.635-1.631c0.188,0.225,0.152,0.546,0.212,0.678
			c0.597,1.335,1.109,2.645,2.368,3.554c2.408,1.758,5.515-0.594,5.635-3.411c0.349,1.021,0.338,2.021,0.997,2.969
			c0.872,1.267,2.562,2.057,3.992,1.869c1.461-0.189,2.961-1.212,3.749-2.573c0.222-0.373,0.438-1.387,0.391-2.242
			c1.651,1.656,4.635,2.143,6.55,1.277c2.163-0.983,2.664-2.473,2.361-4.786c1.73,1.328,3.805,2.34,5.842,0.913
			c1.386-0.97,1.955-3.249,1.225-4.873c1.698,0.765,3.594,1.053,5.058-0.472c1.217-1.271,0.754-3.018,0.021-4.42
			c-0.496-0.954-0.81-1.006,0.195-1.373c0.598-0.222,1.199-0.323,1.764-0.665c0.91-0.545,1.557-1.395,1.679-2.529
			c0.061-0.538-0.306-3.619-0.945-3.659c5.305,0.313,5.513-5.389,3.421-9.233c1.458-0.034,2.361-0.588,2.851-1.42
			C636.309,287.56,635.861,287.152,635.402,286.895z"/>
		<path fill="#7E665F" d="M577.581,334.501l0.146-0.389c0.052-0.6-0.361-0.887-0.88-0.701c-0.779,0.285-0.804,1.634-0.798,2.344
			c0.005,1.183,0.409,3.054,1.837,1.893C578.812,336.897,578.429,335.118,577.581,334.501z"/>
	</g>
	<rect x="297.053" y="176.937" fill="#EADAD2" width="257.627" height="207.485"/>
	<polygon fill="#CF6F4A" points="299.973,120.656 559.293,121.663 578.053,177.302 277.456,177.302 	"/>
	<g>
		<defs>
			<polygon id="SVGID_1_" points="299.973,120.656 559.293,121.663 578.053,177.302 277.456,177.302 			"/>
		</defs>
		<clipPath id="SVGID_2_">
			<use xlink:href="#SVGID_1_"  overflow="visible"/>
		</clipPath>
		<rect x="275.382" y="131.608" clip-path="url(#SVGID_2_)" fill="#D47C58" width="309.792" height="2.694"/>
		<rect x="275.382" y="142.381" clip-path="url(#SVGID_2_)" fill="#D47C58" width="309.792" height="2.688"/>
		<rect x="275.382" y="153.141" clip-path="url(#SVGID_2_)" fill="#D47C58" width="309.792" height="2.688"/>
		<rect x="275.382" y="163.907" clip-path="url(#SVGID_2_)" fill="#D47C58" width="309.792" height="2.686"/>
	</g>
	<polygon fill="#CDCECF" points="475.871,391.415 228.557,391.415 228.557,106.796 332.24,56.693 369.443,56.693 475.871,106.796 	
		"/>
	<g>
		<polygon fill="#E0B489" points="367.868,62.986 480.563,117.171 480.563,107.465 367.868,53.28 		"/>
		<polygon fill="#EAC8AA" points="367.868,60.965 480.563,115.153 480.563,105.452 367.868,51.261 		"/>
	</g>
	<g>
		<rect x="477.396" y="175.704" fill="#989AA1" width="100.951" height="2.514"/>
		<rect x="477.396" y="178.218" fill="#6E6459" width="100.951" height="2.522"/>
	</g>
	<g>
		<rect x="388.586" y="172.775" fill="#DCDFE0" width="72.636" height="29.082"/>
		<rect x="391.592" y="175.422" fill="#67BEDA" width="67.116" height="29.076"/>
		<rect x="391.592" y="175.422" fill="#008CBE" width="35.062" height="29.076"/>
		<rect x="424.657" y="172.775" fill="#DCDFE0" width="3.504" height="29.082"/>
	</g>
	<rect x="388.082" y="164.323" fill="#9197A0" width="73.14" height="8.982"/>
	<polygon fill="#DACCC6" points="477.139,189.03 477.139,377.885 519.499,377.885 519.499,221.146 	"/>
	<g>
		<rect x="398.79" y="260.852" fill="#A57E71" width="51.503" height="109.324"/>
		<rect x="400.682" y="260.852" fill="#AA8E7B" width="47.727" height="109.324"/>
		<rect x="420.387" y="268.98" fill="#F1DAD4" width="7.231" height="94.868"/>
		<rect x="396.785" y="284.103" fill="#967468" width="3.314" height="12.919"/>
		<rect x="396.785" y="341.564" fill="#967468" width="3.314" height="12.921"/>
		<g>
			<rect x="435.998" y="312.921" fill="#967468" width="10.346" height="2.647"/>
			<path fill="#7E5E53" d="M443.373,314.193c0,1.119,0.902,2.021,2.015,2.021c1.118,0,2.019-0.902,2.019-2.021
				c0-1.106-0.9-2.007-2.019-2.007C444.275,312.187,443.373,313.087,443.373,314.193z"/>
			<path fill="#967468" d="M443.958,314.193c0,0.8,0.638,1.44,1.43,1.44c0.793,0,1.441-0.641,1.441-1.44
				c0-0.782-0.648-1.423-1.441-1.423C444.596,312.771,443.958,313.411,443.958,314.193z"/>
		</g>
	</g>
	<g>
		<rect x="509.199" y="200.743" fill="#9197A0" width="16.72" height="45.412"/>
		<rect x="511.886" y="202.606" fill="#CEECF5" width="11.338" height="41.68"/>
	</g>
	<polygon fill="#B78167" points="362.711,393.674 251.457,393.674 251.457,90.834 324.116,61.989 362.711,54.433 	"/>
	<rect x="331.478" y="53.28" fill="#E0B489" width="38.009" height="9.706"/>
	<rect x="331.478" y="51.261" fill="#EAC8AA" width="38.009" height="9.705"/>
	<g>
		<polygon fill="#E0B489" points="333.502,62.986 225.124,115.153 225.124,105.452 333.502,53.28 		"/>
		<polygon fill="#EAC8AA" points="333.502,60.965 225.124,113.133 225.124,103.425 333.502,51.261 		"/>
	</g>
	<g>
		<polygon fill="#A27763" points="369.487,48.988 331.478,49.172 218.259,103.197 218.259,107.108 333.502,52.111 367.868,52.111 
			483.259,107.586 483.259,103.677 		"/>
	</g>
	<rect x="272.958" y="145.322" fill="#9E7A6E" width="16.725" height="223.631"/>
	<rect x="275.647" y="147.189" fill="#7FD3E7" width="11.342" height="219.895"/>
	<g>
		<defs>
			<rect id="SVGID_3_" x="275.647" y="147.189" width="11.342" height="219.895"/>
		</defs>
		<clipPath id="SVGID_4_">
			<use xlink:href="#SVGID_3_"  overflow="visible"/>
		</clipPath>
		<polygon clip-path="url(#SVGID_4_)" fill="#3FBDD4" points="293.35,233.669 272.749,201.395 270.688,140.273 289.227,140.962 		
			"/>
	</g>
	<rect x="296.999" y="145.322" fill="#9E7A6E" width="16.725" height="223.631"/>
	<rect x="299.685" y="147.189" fill="#7FD3E7" width="11.343" height="219.895"/>
	<g>
		<defs>
			<rect id="SVGID_5_" x="299.685" y="147.189" width="11.343" height="219.895"/>
		</defs>
		<clipPath id="SVGID_6_">
			<use xlink:href="#SVGID_5_"  overflow="visible"/>
		</clipPath>
		<polygon clip-path="url(#SVGID_6_)" fill="#3FBDD4" points="317.388,233.669 296.783,201.395 294.724,140.273 313.268,140.962 		
			"/>
	</g>
	<rect x="321.036" y="145.322" fill="#9E7A6E" width="16.723" height="223.631"/>
	<rect x="323.722" y="147.189" fill="#7FD3E7" width="11.345" height="219.895"/>
	<g>
		<defs>
			<rect id="SVGID_7_" x="323.722" y="147.189" width="11.345" height="219.895"/>
		</defs>
		<clipPath id="SVGID_8_">
			<use xlink:href="#SVGID_7_"  overflow="visible"/>
		</clipPath>
		<polygon clip-path="url(#SVGID_8_)" fill="#3FBDD4" points="341.424,233.669 320.82,201.395 318.76,140.273 337.301,140.962 		"/>
	</g>
	<g>
		<rect x="292.615" y="340.074" fill="#C0CFD1" width="2.487" height="32.322"/>
		<rect x="303.835" y="340.074" fill="#C0CFD1" width="2.497" height="32.322"/>
		<rect x="315.056" y="340.074" fill="#C0CFD1" width="2.495" height="32.322"/>
		<rect x="326.281" y="340.074" fill="#C0CFD1" width="2.486" height="32.322"/>
		<rect x="337.499" y="340.074" fill="#C0CFD1" width="2.499" height="32.322"/>
		<rect x="348.722" y="340.074" fill="#C0CFD1" width="2.492" height="32.322"/>
		<rect x="359.94" y="340.074" fill="#C0CFD1" width="2.495" height="32.322"/>
		<rect x="371.162" y="340.074" fill="#C0CFD1" width="2.491" height="32.322"/>
		<rect x="382.38" y="340.074" fill="#C0CFD1" width="2.503" height="32.322"/>
		<rect x="393.607" y="340.074" fill="#C0CFD1" width="2.494" height="32.322"/>
		<rect x="404.83" y="340.074" fill="#C0CFD1" width="2.496" height="32.322"/>
		<rect x="416.047" y="340.074" fill="#C0CFD1" width="2.497" height="32.322"/>
		<rect x="427.266" y="340.074" fill="#C0CFD1" width="2.497" height="32.322"/>
		<rect x="438.49" y="340.074" fill="#C0CFD1" width="2.496" height="32.322"/>
		<g>
			<rect x="294.48" y="339.236" fill="#C0CFD1" width="144.63" height="1.671"/>
			<rect x="294.48" y="343.014" fill="#C0CFD1" width="144.63" height="1.678"/>
			<rect x="294.48" y="346.789" fill="#C0CFD1" width="144.63" height="1.68"/>
			<rect x="294.48" y="350.561" fill="#C0CFD1" width="144.63" height="1.684"/>
			<rect x="294.48" y="354.345" fill="#C0CFD1" width="144.63" height="1.688"/>
			<rect x="294.48" y="358.119" fill="#C0CFD1" width="144.63" height="1.686"/>
			<rect x="294.48" y="361.901" fill="#C0CFD1" width="144.63" height="1.679"/>
			<rect x="294.48" y="365.686" fill="#C0CFD1" width="144.63" height="1.679"/>
		</g>
	</g>
	<g>
		<rect x="439.99" y="340.439" fill="#C0CFD1" width="1.908" height="32.327"/>
		<rect x="448.567" y="340.439" fill="#C0CFD1" width="1.901" height="32.327"/>
		<rect x="457.154" y="340.439" fill="#C0CFD1" width="1.892" height="32.327"/>
		<rect x="465.727" y="340.439" fill="#C0CFD1" width="1.907" height="32.327"/>
		<rect x="474.306" y="340.439" fill="#C0CFD1" width="1.899" height="32.327"/>
		<rect x="482.882" y="340.439" fill="#C0CFD1" width="1.903" height="32.327"/>
		<rect x="491.456" y="340.439" fill="#C0CFD1" width="1.908" height="32.327"/>
		<rect x="500.032" y="340.439" fill="#C0CFD1" width="1.912" height="32.327"/>
		<rect x="508.611" y="340.439" fill="#C0CFD1" width="1.908" height="32.327"/>
		<rect x="517.189" y="340.439" fill="#C0CFD1" width="1.905" height="32.327"/>
		<rect x="525.769" y="340.439" fill="#C0CFD1" width="1.907" height="32.327"/>
		<rect x="534.341" y="340.439" fill="#C0CFD1" width="1.914" height="32.327"/>
		<rect x="542.923" y="340.439" fill="#C0CFD1" width="1.904" height="32.327"/>
		<rect x="551.501" y="340.439" fill="#C0CFD1" width="1.912" height="32.327"/>
		<g>
			<rect x="441.419" y="339.604" fill="#C0CFD1" width="110.56" height="1.679"/>
			<rect x="441.419" y="343.384" fill="#C0CFD1" width="110.56" height="1.682"/>
			<rect x="441.419" y="347.16" fill="#C0CFD1" width="110.56" height="1.685"/>
			<rect x="441.419" y="350.941" fill="#C0CFD1" width="110.56" height="1.678"/>
			<rect x="441.419" y="354.722" fill="#C0CFD1" width="110.56" height="1.678"/>
			<rect x="441.419" y="358.495" fill="#C0CFD1" width="110.56" height="1.678"/>
			<rect x="441.419" y="362.278" fill="#C0CFD1" width="110.56" height="1.666"/>
			<rect x="441.419" y="366.057" fill="#C0CFD1" width="110.56" height="1.675"/>
		</g>
	</g>
	<g>
		<path fill="#FFFFFF" d="M388.121,273.495c0,3.8-3.078,6.875-6.874,6.875c-3.79,0-6.866-3.075-6.866-6.875
			c0-3.788,3.076-6.863,6.866-6.863C385.043,266.632,388.121,269.707,388.121,273.495z"/>
		<path fill="#D0D4D4" d="M386.957,273.495c0,3.158-2.554,5.71-5.709,5.71c-3.146,0-5.699-2.552-5.699-5.71
			c0-3.144,2.552-5.699,5.699-5.699C384.403,267.796,386.957,270.352,386.957,273.495z"/>
		<path fill="#E3E1DD" d="M382.319,272.254c0,1.328-1.071,2.4-2.396,2.4c-1.322,0-2.4-1.072-2.4-2.4c0-1.321,1.078-2.392,2.4-2.392
			C381.248,269.862,382.319,270.933,382.319,272.254z"/>
	</g>
	<g>
		<path fill="#FFC974" d="M580.255,385.289c-0.15,0-0.329,0.042-0.513,0.114c0.073-0.185,0.112-0.365,0.112-0.513
			c0-0.428-0.348-0.776-0.776-0.776c-0.427,0-0.773,0.349-0.773,0.776c0,0.147,0.042,0.328,0.112,0.513
			c-0.185-0.072-0.371-0.114-0.515-0.114c-0.428,0-0.775,0.352-0.775,0.779c0,0.429,0.348,0.778,0.775,0.778
			c0.144,0,0.33-0.046,0.515-0.118c-0.07,0.184-0.112,0.37-0.112,0.515c0,0.433,0.347,0.779,0.773,0.779
			c0.429,0,0.776-0.347,0.776-0.779c0-0.145-0.039-0.331-0.112-0.515c0.184,0.072,0.362,0.118,0.513,0.118
			c0.43,0,0.777-0.35,0.777-0.778C581.032,385.641,580.685,385.289,580.255,385.289z"/>
	</g>
	<rect x="369.517" y="202.324" fill="#E3E1DD" width="125.188" height="56.612"/>
	<g>
		<rect x="410.726" y="208.371" fill="#787C7B" width="4.12" height="13.036"/>
		<rect x="428.065" y="208.371" fill="#787C7B" width="4.113" height="13.036"/>
		<rect x="445.397" y="208.371" fill="#787C7B" width="4.115" height="13.036"/>
	</g>
	<polygon fill="#D0D4D4" points="371.382,204.14 371.382,258.051 413.746,258.051 413.746,236.253 	"/>
	<rect x="369.517" y="199.561" fill="#94989D" width="125.188" height="3.737"/>
	<g>
		<g>
			<path fill="#AFADAA" d="M316.581,361.388c-3.573-0.046-7.164,0.02-10.606-0.103c-6.854-0.245-13.884-0.188-20.738-0.087
				c-7.745,0.123-7.882,6.166-7.558,11.521c0.254,4.199-0.712,7.954-0.744,12.057c-0.014,2.433,0.11,4.941,2.203,6.766
				c4.065,3.52,13.855,2.932,19.215,3.546c8.826,1.021,20.516,3.67,29.061,0.027c5.454-2.332,6.108-7.597,6.088-12.435
				c-0.034-5.44-2.55-10.438-2.528-15.968c0.005-3.212-0.947-4.126-4.9-4.71C323.006,361.566,319.792,361.431,316.581,361.388z"/>
			<path fill="#AFADAA" d="M352.555,396.701c3.566,0.045,7.152-0.022,10.598,0.097c6.861,0.246,13.878,0.197,20.732,0.097
				c7.751-0.119,7.883-6.166,7.571-11.525c-0.26-4.198,0.71-7.954,0.736-12.055c0.006-2.436-0.109-4.951-2.205-6.766
				c-4.066-3.52-13.852-2.932-19.215-3.548c-8.821-1.023-20.509-3.669-29.064-0.025c-5.454,2.324-6.096,7.598-6.08,12.421
				c0.028,5.461,2.547,10.455,2.527,15.98c-0.003,3.205,0.944,4.128,4.9,4.703C346.126,396.524,349.327,396.658,352.555,396.701z"/>
			<path fill="#BEBCB7" d="M297.36,364.438c4.854-0.434,5.292,0.632,8.645,3.444c3.051,2.554,8.953,7.671,1.44,8.983
				c-2.499,0.441-5.164,0.422-7.703,0.541c-2.294,0.108-6.202,0.99-8.313,0c-3.981-1.898-1.776-7.035,0.039-9.569
				c1.808-2.545,6.589-6.154,10.401-4.962c2.934,0.924,2.805,4.03,4.521,5.521"/>
			<path fill="#A49B9B" d="M290.294,361.507c0.759-0.158,4.345,0.027,4.312,1.52c-0.032,1.081-3.634,2.389-4.526,3.308
				c-1.294,1.336-1.64,3.854-3.314,4.855c-2.671,1.594-5.973-1.311-7.083-3.353c-3.921-7.237,6.575-5.73,10.807-6.33"/>
			<path fill="#A49B9B" d="M281.27,375.947c3.462-1.042,4.561-3.983,7.14,0.52c0.817,1.418,0.87,3.509-0.258,4.82
				c-1.55,1.808-3.665,1.233-5.901,0.9c-1.735-0.26-7.166,0.016-8.479-1.059c-1.709-1.396-0.378-4.292,1.387-4.995
				C276.998,375.394,279.421,376.52,281.27,375.947z"/>
			<path fill="#A9A7A4" d="M310.315,362.541c-1.651-0.585-4.195-0.913-4.329,1.021c-0.113,1.557,3.003,3.069,3.544,4.51
				c0.704,1.843,1.406,5.229,3.885,6.235c2.031,0.847,4.677-1.774,6.542-2.98c2.098-1.364,4.291-2.331,3.68-4.96
				c-0.718-3.131-3.504-3.043-6.443-3.141c-3.066-0.092-6.489-2.815-8.643-0.507"/>
			<path fill="#A9A7A4" d="M313.067,377.87c-0.087-3.892-5.259-1.321-7.025-0.689c-2.923,1.065-8.126-0.312-7.139,4.004
				c1.12,4.933,7.641,6.674,11.44,3.07c0.947-0.899,4.78-6.309,2.527-6.724"/>
			<path fill="#A9A7A4" d="M261.747,391.112c-0.053-2.622-3.552-0.888-4.735-0.455c-1.976,0.709-5.474-0.212-4.819,2.692
				c0.758,3.325,5.152,4.49,7.72,2.072c0.633-0.607,3.216-4.259,1.695-4.538"/>
			<path fill="#A9A7A4" d="M296.91,389.23c-0.659-1.864,1.682-3.741,1.237-5.403c-0.397-1.474-3.25-2.392-4.714-2.742
				c-2.888-0.685-3.169,0.281-5.662,1.362c-3.566,1.559-7.369-0.746-8.887,3.75c-2.282,6.824,10.428,13.464,15.517,7.894
				c1.71-1.878,1.179-4.225,2.54-6.117"/>
			<path fill="#A49B9B" d="M299.723,386.318c-1.015,1.803-4.702,7.381-1.758,8.939c1.814,0.961,5.903-0.477,7.793-0.646
				c1.501-0.129,5.259,0.536,6.356-0.772c0.974-1.156-0.111-3.424-1.014-4.396c-1.45-1.55-2.917-1.327-5.059-1.858
				c-2.159-0.538-4.755-2.618-6.713-0.919"/>
			<path fill="#BEBCB7" d="M316.408,385.11c-3.333-1.142-5.981,1.143-4.328,3.806c0.318,0.503,1.055,0.864,1.428,1.376
				c0.674,0.943,0.638,2.451,1.348,3.254c1.911,2.162,6.206,0.111,8.222-1.202c3.2-2.091,7.715-7.869,0.985-9.514
				c-3.49-0.854-7.28,3.754-9.82,2.797"/>
			<path fill="#9F9692" d="M322.883,372.188c-1.798,0.024-6.051,2.236-6.877,3.294c-0.521,0.684-1.861,5.19-1.583,5.86
				c0.265,0.656,3.241,1.495,4.349,1.505c1.654,0.007,5.102-1.418,6.349-2.317c2.068-1.508,1.101-3.396,0.683-5.589
				c-0.418-2.276-0.527-4.268-3.707-2.573"/>
			<path fill="#9F9692" d="M272.43,382.184c1.114-0.013,4.972-0.048,5.497,1.036c0.29,0.607-1.518,3.082-1.584,4.036
				c-0.142,1.95,2.873,5.504,1.769,7.15c-1.22,1.824-5.323,0.642-7.226,0.147c-2.052-0.532-6.787-1.469-7.104-3.563
				c-0.389-2.566,2.768-4.214,4.178-5.887c2.142-2.555,2.24-3.221,5.889-3.267c-0.213,0-0.417,0-0.635,0"/>
			<path fill="#9F9692" d="M276.36,367.707c3.716-0.883,3.857,5.302,3.683,7.224c-2.739,0.1-5.346-0.304-7.202,1.914
				c-1.047,1.256-0.336,2.511-1.001,3.617c-0.617,1.038-1.057,1.239-2.893,1.345c-2.974,0.177-3.143-0.784-3.958-3.109
				c-1.178-3.351-2.216-5.568,0.54-8.413c1.368-1.429,2.929-2.528,4.998-3.073c1.13-0.286,5.991-0.169,5.445,0.671"/>
			<path fill="#B5ABAA" d="M277.731,362.72c-1.215,2.772-7.387,0.891-5.277-0.705c1.435-1.077,7.012,0.388,4.297,1.045"/>
			<path fill="#A49B9B" d="M266.739,363.746c1.084-1.238,5.149,0.51,1.641,2.743c-1.355,0.847-2.461,0.838-3.61,1.946
				c-0.73,0.688-0.601,1.762-1.844,1.816c-1.496,0.067-1.783-1.579-2.862-2.075c-0.928-0.421-1.891-0.253-2.897-0.253
				c-2.483-0.008-3.818,0.639-5.288-1.186c-2.329-2.892,1.055-3.589,3.79-3.703c1.646-0.072,3.359,0.265,4.984,0.136
				c1.674-0.126,4.736-1.531,6.087,0.056"/>
			<path fill="#BEBCB7" d="M261.833,382.523c1.082-1.236,5.148,0.515,1.637,2.742c-1.351,0.852-2.456,0.84-3.612,1.942
				c-1.003,0.954-0.424,2.154-2.333,1.655c-2.623-0.682-3.3-5.589-1.36-6.909c1.149-0.783,4.87-0.883,5.668,0.057"/>
			<path fill="#A9A7A4" d="M236.705,362.541c-1.646-0.585-4.199-0.913-4.328,1.021c-0.11,1.557,3,3.069,3.541,4.51
				c0.702,1.843,1.406,5.229,3.882,6.235c2.036,0.847,4.684-1.774,6.541-2.98c2.103-1.364,4.294-2.331,3.687-4.96
				c-0.716-3.131-3.501-3.043-6.452-3.141c-3.06-0.092-6.484-2.815-8.637-0.507"/>
			<path fill="#A9A7A4" d="M239.452,377.87c-0.082-3.892-5.26-1.321-7.018-0.689c-2.931,1.065-8.126-0.312-7.149,4.004
				c1.122,4.933,7.651,6.674,11.454,3.07c0.936-0.899,4.77-6.309,2.517-6.724"/>
			<path fill="#A49B9B" d="M226.7,386.318c-1.019,1.803-4.701,7.381-1.76,8.939c1.813,0.961,5.907-0.477,7.791-0.646
				c1.513-0.129,5.265,0.536,6.362-0.772c0.974-1.156-0.109-3.424-1.017-4.396c-1.446-1.55-2.91-1.327-5.062-1.858
				c-2.152-0.538-4.749-2.618-6.716-0.919"/>
			<path fill="#BEBCB7" d="M242.795,385.11c-3.327-1.142-5.986,1.143-4.333,3.806c0.316,0.503,1.056,0.864,1.428,1.376
				c0.681,0.943,0.645,2.451,1.349,3.254c1.91,2.162,6.205,0.111,8.225-1.202c3.193-2.091,7.724-7.869,0.983-9.514
				c-3.49-0.854-7.274,3.754-9.817,2.797"/>
			<path fill="#9F9692" d="M249.267,372.188c-1.795,0.024-6.045,2.236-6.875,3.294c-0.519,0.684-1.856,5.19-1.586,5.86
				c0.275,0.656,3.253,1.495,4.348,1.505c2.275,0.014,4.346-1.99,6.619-2.409c2.55-0.458,7.025,1.249,9.097-0.309
				c2.075-1.563,0.529-6.142-0.608-7.914c-3.274-5.112-7.877-1.921-11.777,0.152"/>
			<path fill="#A49B9B" d="M397.088,376.603c0.691,1.906,0.707,4.8-0.502,5.396c-0.862,0.414-3.949-0.298-4.639-0.87
				c-2.175-1.773,0.972-7.121,3.875-6.188C396.342,375.121,396.781,375.763,397.088,376.603z"/>
			<path fill="#A9A7A4" d="M379.916,391.112c-0.058-2.622-3.546-0.888-4.729-0.455c-1.974,0.709-5.483-0.212-4.814,2.692
				c0.754,3.325,5.15,4.49,7.711,2.072c0.636-0.607,3.222-4.259,1.704-4.538"/>
			<path fill="#9F9692" d="M390.604,382.184c1.113-0.013,4.977-0.048,5.489,1.036c0.292,0.607-1.511,3.082-1.576,4.036
				c-0.144,1.95,2.878,5.504,1.768,7.15c-1.216,1.824-5.323,0.642-7.222,0.147c-2.055-0.532-6.795-1.469-7.112-3.563
				c-0.379-2.566,2.781-4.214,4.187-5.887c2.135-2.555,2.246-3.221,5.883-3.267c-0.208,0-0.419,0-0.633,0"/>
			<path fill="#9F9692" d="M394.529,367.707c3.715-0.883,3.861,5.302,3.69,7.224c-2.746,0.1-5.355-0.304-7.203,1.914
				c-1.044,1.256-0.335,2.511-1.003,3.617c-0.617,1.038-1.057,1.239-2.896,1.345c-2.977,0.177-3.141-0.784-3.957-3.109
				c-1.177-3.351-2.223-5.568,0.533-8.413c1.372-1.429,2.932-2.528,5.009-3.073c1.118-0.286,5.993-0.169,5.437,0.671"/>
			<path fill="#B5ABAA" d="M395.904,362.72c-1.209,2.772-7.393,0.891-5.277-0.705c1.438-1.077,7.009,0.388,4.297,1.045"/>
			<path fill="#A49B9B" d="M384.912,363.746c1.076-1.238,5.146,0.51,1.633,2.743c-1.349,0.847-2.447,0.838-3.609,1.946
				c-0.724,0.688-0.593,1.762-1.844,1.816c-1.49,0.067-1.769-1.579-2.853-2.075c-0.931-0.421-1.894-0.253-2.897-0.253
				c-2.492-0.008-3.812,0.639-5.297-1.186c-2.322-2.892,1.059-3.589,3.793-3.703c1.644-0.072,3.356,0.265,4.985,0.136
				c1.673-0.126,4.739-1.531,6.088,0.056"/>
			<path fill="#BEBCB7" d="M380.004,382.523c1.081-1.236,5.152,0.515,1.632,2.742c-1.347,0.852-2.452,0.84-3.604,1.942
				c-1.002,0.954-0.431,2.154-2.336,1.655c-2.621-0.682-3.298-5.589-1.365-6.909c1.151-0.783,4.878-0.883,5.672,0.057"/>
			<path fill="#BEBCB7" d="M341.917,364.438c4.857-0.434,5.305,0.632,8.664,3.444c3.042,2.554,8.935,7.671,1.427,8.983
				c-2.506,0.441-5.158,0.422-7.706,0.541c-2.296,0.108-6.198,0.99-8.311,0c-3.987-1.898-1.787-7.035,0.031-9.569
				c1.814-2.545,6.598-6.154,10.417-4.962c2.924,0.924,2.796,4.03,4.514,5.521"/>
			<path fill="#A9A7A4" d="M354.88,362.541c-1.653-0.585-4.197-0.913-4.334,1.021c-0.105,1.557,3,3.069,3.546,4.51
				c0.699,1.843,1.414,5.229,3.882,6.235c2.031,0.847,4.679-1.774,6.542-2.98c2.091-1.364,4.29-2.331,3.682-4.96
				c-0.711-3.131-3.501-3.043-6.452-3.141c-3.068-0.092-6.486-2.815-8.631-0.507"/>
			<path fill="#A9A7A4" d="M357.625,377.87c-0.079-3.892-5.257-1.321-7.024-0.689c-2.922,1.065-8.116-0.312-7.149,4.004
				c1.129,4.933,7.649,6.674,11.453,3.07c0.948-0.899,4.778-6.309,2.524-6.724"/>
			<path fill="#BEBCB7" d="M341.833,387.227c-0.458-2.028,1.178-4.065,0.861-5.868c-0.271-1.601-2.259-2.602-3.283-2.983
				c-2.01-0.749-2.205,0.312-3.942,1.485c-2.484,1.679-5.126-0.818-6.178,4.079c-1.599,7.41,7.257,14.628,10.792,8.571
				c1.192-2.037,0.826-4.593,1.772-6.655"/>
			<path fill="#A49B9B" d="M344.277,386.318c-1.006,1.803-4.693,7.381-1.753,8.939c1.812,0.961,5.898-0.477,7.786-0.646
				c1.518-0.129,5.276,0.536,6.364-0.772c0.977-1.156-0.111-3.424-1.014-4.396c-1.444-1.55-2.911-1.327-5.068-1.858
				c-2.145-0.538-4.741-2.618-6.708-0.919"/>
			<path fill="#BEBCB7" d="M360.967,385.11c-3.33-1.142-5.993,1.143-4.332,3.806c0.312,0.503,1.057,0.864,1.434,1.376
				c0.68,0.943,0.633,2.451,1.351,3.254c1.908,2.162,6.194,0.111,8.214-1.202c3.201-2.091,7.722-7.869,0.989-9.514
				c-3.49-0.854-7.274,3.754-9.818,2.797"/>
			<path fill="#9F9692" d="M367.448,372.188c-1.805,0.024-6.057,2.236-6.884,3.294c-0.516,0.684-1.862,5.19-1.579,5.86
				c0.264,0.656,3.251,1.495,4.346,1.505c2.267,0.014,4.345-1.99,6.614-2.409c2.553-0.458,7.018,1.249,9.097-0.309
				c2.073-1.563,0.527-6.142-0.605-7.914c-3.275-5.112-7.872-1.921-11.779,0.152"/>
			<path fill="#A9A7A4" d="M334.423,367.924c-0.7,1.352-0.7,5.544-3.299,4.289c-1.467-0.721-0.931-5.359-0.782-6.921
				c0.152-1.721,0.643-1.708,2.182-2.247c0.708-0.243,3.962-0.952,4.6-0.435C338.628,363.834,335.035,366.75,334.423,367.924z"/>
		</g>
		<g>
			<path fill="#CDCAC5" d="M582.183,396.178c-0.341,0.329-0.752,0.593-1.232,0.767c-1.46,0.551-5.127-0.059-6.771-0.059
				c-6.479,0-12.955,0-19.444,0c-19.267,0-38.532,0-57.804,0c-20.289,0-40.576,0-60.877,0c-10.678,0-21.362-0.006-32.045,0
				c-3.302,0-6.557,0.497-7.828-2.782c-0.865-2.218-0.189-4.814-0.189-7.101c0-4.98,0-9.968,0-14.962
				c0-2.625-1.359-9.795,1.104-10.99c3.626-1.787,9.759-0.239,13.713-0.239c6.801,0,13.602,0,20.405,0c19.988,0,39.982,0,59.961,0
				c19.762,0,39.526,0,59.285,0c7.01,0,14.019,0,21.028,0c2.3,0,4.612-0.09,6.905,0c5.951,0.249,4.696,6.384,4.696,10.253
				c0,3.807,0,7.623,0,11.429C583.09,385.475,585.199,393.326,582.183,396.178z"/>
			<path fill="#AFADAA" d="M501.978,361.388c-3.571-0.046-7.167,0.02-10.605-0.103c-6.853-0.245-13.885-0.188-20.734-0.087
				c-7.747,0.123-7.883,6.166-7.56,11.521c0.251,4.199-0.712,7.954-0.745,12.057c-0.01,2.433,0.114,4.941,2.204,6.766
				c4.062,3.52,13.857,2.932,19.213,3.546c8.828,1.021,20.521,3.67,29.062,0.027c5.455-2.332,6.104-7.597,6.089-12.435
				c-0.031-5.44-2.547-10.438-2.526-15.968c0.004-3.212-0.954-4.126-4.9-4.71C508.405,361.566,505.189,361.431,501.978,361.388z"/>
			<path fill="#AFADAA" d="M419.976,396.701c3.569,0.045,7.157-0.022,10.602,0.097c6.85,0.246,13.884,0.197,20.73,0.097
				c7.749-0.119,7.888-6.166,7.561-11.525c-0.249-4.198,0.717-7.954,0.741-12.055c0.012-2.436-0.104-4.951-2.206-6.766
				c-4.062-3.52-13.854-2.932-19.203-3.548c-8.831-1.023-20.518-3.669-29.068-0.025c-5.455,2.324-6.099,7.598-6.083,12.421
				c0.033,5.461,2.543,10.455,2.529,15.98c-0.006,3.205,0.951,4.128,4.896,4.703C413.554,396.524,416.752,396.658,419.976,396.701z"
				/>
			<path fill="#AFADAA" d="M537.948,396.701c3.573,0.045,7.156-0.022,10.607,0.097c6.853,0.246,13.878,0.197,20.73,0.097
				c7.75-0.119,7.88-6.166,7.562-11.525c-0.254-4.198,0.717-7.954,0.739-12.055c0.015-2.436-0.105-4.951-2.204-6.766
				c-4.061-3.52-13.852-2.932-19.209-3.548c-8.822-1.023-20.519-3.669-29.062-0.025c-5.456,2.324-6.102,7.598-6.085,12.421
				c0.025,5.461,2.545,10.455,2.526,15.98c-0.008,3.205,0.943,4.128,4.896,4.703C531.523,396.524,534.729,396.658,537.948,396.701z"
				/>
			<path fill="#BEBCB7" d="M482.763,364.438c4.851-0.434,5.29,0.632,8.646,3.444c3.043,2.554,8.946,7.671,1.435,8.983
				c-2.5,0.441-5.16,0.422-7.705,0.541c-2.295,0.108-6.2,0.99-8.312,0c-3.979-1.898-1.773-7.035,0.04-9.569
				c1.806-2.545,6.592-6.154,10.396-4.962c2.939,0.924,2.809,4.03,4.521,5.521"/>
			<path fill="#A49B9B" d="M475.695,361.507c0.752-0.158,4.348,0.027,4.311,1.52c-0.028,1.081-3.636,2.389-4.531,3.308
				c-1.289,1.336-1.64,3.854-3.309,4.855c-2.678,1.594-5.975-1.311-7.082-3.353c-3.928-7.237,6.577-5.73,10.803-6.33"/>
			<path fill="#A49B9B" d="M466.668,375.947c3.457-1.042,4.562-3.983,7.14,0.52c0.814,1.418,0.873,3.509-0.259,4.82
				c-1.552,1.808-3.656,1.233-5.898,0.9c-1.738-0.26-7.166,0.016-8.48-1.059c-1.707-1.396-0.374-4.292,1.387-4.995
				C462.4,375.394,464.815,376.52,466.668,375.947z"/>
			<path fill="#A9A7A4" d="M495.713,362.541c-1.65-0.585-4.193-0.913-4.327,1.021c-0.11,1.557,3.004,3.069,3.545,4.51
				c0.702,1.843,1.412,5.229,3.881,6.235c2.037,0.847,4.686-1.774,6.544-2.98c2.096-1.364,4.289-2.331,3.678-4.96
				c-0.716-3.131-3.502-3.043-6.445-3.141c-3.061-0.092-6.484-2.815-8.642-0.507"/>
			<path fill="#A9A7A4" d="M498.467,377.87c-0.087-3.892-5.265-1.321-7.027-0.689c-2.921,1.065-8.121-0.312-7.136,4.004
				c1.117,4.933,7.638,6.674,11.44,3.07c0.947-0.899,4.78-6.309,2.523-6.724"/>
			<path fill="#A9A7A4" d="M447.146,391.112c-0.059-2.622-3.554-0.888-4.734-0.455c-1.974,0.709-5.473-0.212-4.818,2.692
				c0.754,3.325,5.149,4.49,7.724,2.072c0.627-0.607,3.213-4.259,1.69-4.538"/>
			<path fill="#A9A7A4" d="M482.309,389.23c-0.657-1.864,1.684-3.741,1.234-5.403c-0.395-1.474-3.249-2.392-4.709-2.742
				c-2.895-0.685-3.178,0.281-5.666,1.362c-3.565,1.559-7.364-0.746-8.883,3.75c-2.281,6.824,10.426,13.464,15.517,7.894
				c1.705-1.878,1.175-4.225,2.537-6.117"/>
			<path fill="#A49B9B" d="M485.118,386.318c-1.004,1.803-4.697,7.381-1.759,8.939c1.814,0.961,5.905-0.477,7.795-0.646
				c1.51-0.129,5.265,0.536,6.358-0.772c0.975-1.156-0.108-3.424-1.013-4.396c-1.449-1.55-2.916-1.327-5.061-1.858
				c-2.157-0.538-4.758-2.618-6.707-0.919"/>
			<path fill="#BEBCB7" d="M501.805,385.11c-3.331-1.142-5.985,1.143-4.326,3.806c0.316,0.503,1.058,0.864,1.43,1.376
				c0.672,0.943,0.636,2.451,1.345,3.254c1.913,2.162,6.21,0.111,8.224-1.202c3.196-2.091,7.72-7.869,0.984-9.514
				c-3.494-0.854-7.274,3.754-9.818,2.797"/>
			<path fill="#9F9692" d="M508.276,372.188c-1.792,0.024-6.046,2.236-6.867,3.294c-0.527,0.684-1.865,5.19-1.587,5.86
				c0.27,0.656,3.247,1.495,4.347,1.505c1.651,0.007,5.101-1.418,6.351-2.317c2.072-1.508,1.104-3.396,0.688-5.589
				c-0.424-2.276-0.531-4.268-3.712-2.573"/>
			<path fill="#9F9692" d="M457.826,382.184c1.114-0.013,4.979-0.048,5.501,1.036c0.286,0.607-1.52,3.082-1.588,4.036
				c-0.14,1.95,2.874,5.504,1.773,7.15c-1.226,1.824-5.322,0.642-7.227,0.147c-2.058-0.532-6.79-1.469-7.105-3.563
				c-0.385-2.566,2.771-4.214,4.177-5.887c2.14-2.555,2.243-3.221,5.893-3.267c-0.213,0-0.42,0-0.635,0"/>
			<path fill="#9F9692" d="M461.759,367.707c3.717-0.883,3.856,5.302,3.688,7.224c-2.742,0.1-5.359-0.304-7.203,1.914
				c-1.049,1.256-0.342,2.511-1.009,3.617c-0.616,1.038-1.056,1.239-2.895,1.345c-2.972,0.177-3.139-0.784-3.952-3.109
				c-1.177-3.351-2.219-5.568,0.534-8.413c1.373-1.429,2.927-2.528,4.999-3.073c1.132-0.286,5.992-0.169,5.447,0.671"/>
			<path fill="#B5ABAA" d="M463.131,362.72c-1.217,2.772-7.392,0.891-5.278-0.705c1.436-1.077,7.007,0.388,4.294,1.045"/>
			<path fill="#A49B9B" d="M452.138,363.746c1.083-1.238,5.15,0.51,1.64,2.743c-1.355,0.847-2.46,0.838-3.61,1.946
				c-0.732,0.688-0.6,1.762-1.844,1.816c-1.494,0.067-1.776-1.579-2.861-2.075c-0.925-0.421-1.888-0.253-2.898-0.253
				c-2.483-0.008-3.816,0.639-5.286-1.186c-2.326-2.892,1.051-3.589,3.792-3.703c1.644-0.072,3.353,0.265,4.983,0.136
				c1.67-0.126,4.734-1.531,6.085,0.056"/>
			<path fill="#BEBCB7" d="M447.227,382.523c1.081-1.236,5.148,0.515,1.639,2.742c-1.349,0.852-2.449,0.84-3.608,1.942
				c-1.002,0.954-0.43,2.154-2.335,1.655c-2.627-0.682-3.308-5.589-1.36-6.909c1.151-0.783,4.878-0.883,5.665,0.057"/>
			<path fill="#BEBCB7" d="M409.15,364.438c4.854-0.434,5.294,0.632,8.649,3.444c3.047,2.554,8.943,7.671,1.436,8.983
				c-2.511,0.441-5.162,0.422-7.709,0.541c-2.294,0.108-6.195,0.99-8.312,0c-3.974-1.898-1.778-7.035,0.037-9.569
				c1.812-2.545,6.593-6.154,10.405-4.962c2.93,0.924,2.799,4.03,4.523,5.521"/>
			<path fill="#A9A7A4" d="M422.104,362.541c-1.646-0.585-4.202-0.913-4.33,1.021c-0.112,1.557,2.997,3.069,3.544,4.51
				c0.698,1.843,1.403,5.229,3.881,6.235c2.037,0.847,4.678-1.774,6.536-2.98c2.108-1.364,4.297-2.331,3.692-4.96
				c-0.721-3.131-3.506-3.043-6.454-3.141c-3.064-0.092-6.489-2.815-8.637-0.507"/>
			<path fill="#A9A7A4" d="M424.853,377.87c-0.081-3.892-5.265-1.321-7.022-0.689c-2.926,1.065-8.123-0.312-7.146,4.004
				c1.124,4.933,7.648,6.674,11.45,3.07c0.938-0.899,4.774-6.309,2.517-6.724"/>
			<path fill="#BEBCB7" d="M409.844,387.908c-0.465-2.021,1.178-4.059,0.866-5.863c-0.277-1.606-2.273-2.6-3.288-2.983
				c-2.012-0.747-2.21,0.311-3.939,1.489c-2.484,1.678-5.131-0.818-6.18,4.074c-1.592,7.409,7.253,14.625,10.794,8.577
				c1.188-2.039,0.817-4.592,1.766-6.655"/>
			<path fill="#A49B9B" d="M412.099,386.318c-1.015,1.803-4.7,7.381-1.759,8.939c1.804,0.961,5.901-0.477,7.789-0.646
				c1.518-0.129,5.266,0.536,6.362-0.772c0.973-1.156-0.11-3.424-1.013-4.396c-1.453-1.55-2.918-1.327-5.066-1.858
				c-2.156-0.538-4.747-2.618-6.711-0.919"/>
			<path fill="#BEBCB7" d="M428.193,385.11c-3.329-1.142-5.984,1.143-4.331,3.806c0.316,0.503,1.058,0.864,1.433,1.376
				c0.679,0.943,0.642,2.451,1.348,3.254c1.904,2.162,6.203,0.111,8.218-1.202c3.198-2.091,7.726-7.869,0.988-9.514
				c-3.495-0.854-7.276,3.754-9.82,2.797"/>
			<path fill="#9F9692" d="M434.664,372.188c-1.793,0.024-6.042,2.236-6.871,3.294c-0.518,0.684-1.856,5.19-1.591,5.86
				c0.278,0.656,3.255,1.495,4.353,1.505c2.272,0.014,4.343-1.99,6.618-2.409c2.55-0.458,7.019,1.249,9.094-0.309
				c2.08-1.563,0.527-6.142-0.604-7.914c-3.277-5.112-7.879-1.921-11.779,0.152"/>
			<path fill="#A9A7A4" d="M401.65,367.924c-0.693,1.352-0.706,5.544-3.299,4.289c-1.471-0.721-0.938-5.359-0.787-6.921
				c0.158-1.721,0.648-1.708,2.191-2.247c0.701-0.243,3.956-0.952,4.59-0.435C405.849,363.834,402.261,366.75,401.65,367.924z"/>
			<path fill="#A49B9B" d="M582.486,376.603c0.689,1.906,0.703,4.8-0.504,5.396c-0.863,0.414-3.943-0.298-4.638-0.87
				c-2.172-1.773,0.972-7.121,3.874-6.188C581.742,375.121,582.183,375.763,582.486,376.603z"/>
			<path fill="#A9A7A4" d="M565.318,391.112c-0.06-2.622-3.549-0.888-4.734-0.455c-1.975,0.709-5.477-0.212-4.814,2.692
				c0.752,3.325,5.146,4.49,7.716,2.072c0.639-0.607,3.213-4.259,1.701-4.538"/>
			<path fill="#9F9692" d="M576.001,382.184c1.113-0.013,4.981-0.048,5.492,1.036c0.29,0.607-1.513,3.082-1.577,4.036
				c-0.143,1.95,2.877,5.504,1.766,7.15c-1.215,1.824-5.318,0.642-7.219,0.147c-2.057-0.532-6.799-1.469-7.108-3.563
				c-0.385-2.566,2.772-4.214,4.175-5.887c2.146-2.555,2.247-3.221,5.887-3.267c-0.207,0-0.421,0-0.627,0"/>
			<path fill="#9F9692" d="M579.926,367.707c3.714-0.883,3.862,5.302,3.689,7.224c-2.739,0.1-5.354-0.304-7.199,1.914
				c-1.046,1.256-0.338,2.511-1.002,3.617c-0.617,1.038-1.063,1.239-2.897,1.345c-2.979,0.177-3.142-0.784-3.957-3.109
				c-1.176-3.351-2.22-5.568,0.535-8.413c1.375-1.429,2.929-2.528,5.006-3.073c1.12-0.286,5.994-0.169,5.436,0.671"/>
			<path fill="#B5ABAA" d="M581.301,362.72c-1.206,2.772-7.394,0.891-5.272-0.705c1.436-1.077,7.008,0.388,4.294,1.045"/>
			<path fill="#A49B9B" d="M570.309,363.746c1.082-1.238,5.147,0.51,1.636,2.743c-1.35,0.847-2.451,0.838-3.609,1.946
				c-0.721,0.688-0.593,1.762-1.848,1.816c-1.487,0.067-1.765-1.579-2.849-2.075c-0.933-0.421-1.896-0.253-2.896-0.253
				c-2.496-0.008-3.821,0.639-5.294-1.186c-2.324-2.892,1.055-3.589,3.786-3.703c1.647-0.072,3.355,0.265,4.992,0.136
				c1.67-0.126,4.738-1.531,6.082,0.056"/>
			<path fill="#BEBCB7" d="M565.4,382.523c1.087-1.236,5.148,0.515,1.637,2.742c-1.349,0.852-2.454,0.84-3.604,1.942
				c-1,0.954-0.433,2.154-2.342,1.655c-2.621-0.682-3.293-5.589-1.358-6.909c1.148-0.783,4.878-0.883,5.667,0.057"/>
			<path fill="#BEBCB7" d="M527.318,364.438c4.855-0.434,5.301,0.632,8.656,3.444c3.047,2.554,8.942,7.671,1.428,8.983
				c-2.5,0.441-5.156,0.422-7.699,0.541c-2.299,0.108-6.194,0.99-8.316,0c-3.981-1.898-1.782-7.035,0.036-9.569
				c1.814-2.545,6.593-6.154,10.41-4.962c2.927,0.924,2.794,4.03,4.522,5.521"/>
			<path fill="#A9A7A4" d="M540.277,362.541c-1.654-0.585-4.195-0.913-4.325,1.021c-0.118,1.557,2.995,3.069,3.541,4.51
				c0.696,1.843,1.409,5.229,3.878,6.235c2.032,0.847,4.678-1.774,6.542-2.98c2.099-1.364,4.287-2.331,3.688-4.96
				c-0.715-3.131-3.507-3.043-6.461-3.141c-3.062-0.092-6.481-2.815-8.626-0.507"/>
			<path fill="#A9A7A4" d="M543.027,377.87c-0.08-3.892-5.262-1.321-7.033-0.689c-2.917,1.065-8.11-0.312-7.141,4.004
				c1.126,4.933,7.646,6.674,11.448,3.07c0.95-0.899,4.779-6.309,2.526-6.724"/>
			<path fill="#BEBCB7" d="M527.233,387.227c-0.459-2.028,1.175-4.065,0.858-5.868c-0.276-1.601-2.257-2.602-3.279-2.983
				c-2.014-0.749-2.21,0.312-3.942,1.485c-2.482,1.679-5.13-0.818-6.18,4.079c-1.6,7.41,7.254,14.628,10.788,8.571
				c1.196-2.037,0.824-4.593,1.772-6.655"/>
			<path fill="#A49B9B" d="M529.676,386.318c-1.006,1.803-4.688,7.381-1.756,8.939c1.813,0.961,5.896-0.477,7.791-0.646
				c1.514-0.129,5.274,0.536,6.361-0.772c0.978-1.156-0.111-3.424-1.01-4.396c-1.446-1.55-2.915-1.327-5.07-1.858
				c-2.146-0.538-4.738-2.618-6.709-0.919"/>
			<path fill="#BEBCB7" d="M546.362,385.11c-3.324-1.142-5.983,1.143-4.327,3.806c0.307,0.503,1.062,0.864,1.431,1.376
				c0.683,0.943,0.639,2.451,1.347,3.254c1.918,2.162,6.201,0.111,8.22-1.202c3.199-2.091,7.723-7.869,0.991-9.514
				c-3.496-0.854-7.272,3.754-9.821,2.797"/>
			<path fill="#9F9692" d="M552.849,372.188c-1.803,0.024-6.06,2.236-6.879,3.294c-0.523,0.684-1.865,5.19-1.594,5.86
				c0.271,0.656,3.257,1.495,4.354,1.505c2.268,0.014,4.344-1.99,6.618-2.409c2.55-0.458,7.011,1.249,9.092-0.309
				c2.079-1.563,0.528-6.142-0.605-7.914c-3.276-5.112-7.873-1.921-11.774,0.152"/>
			<path fill="#A9A7A4" d="M519.821,367.924c-0.699,1.352-0.699,5.544-3.293,4.289c-1.473-0.721-0.936-5.359-0.788-6.921
				c0.156-1.721,0.642-1.708,2.183-2.247c0.706-0.243,3.959-0.952,4.596-0.435C524.026,363.834,520.436,366.75,519.821,367.924z"/>
		</g>
	</g>
	<g>
		<path fill="#75BB80" d="M283.029,375.368c1.977-1.171,3.624-3.233,5.706-4.221c-2.019-0.596-5.5,0.245-7.665,0.544
			c2.364-1.639,4.254-3.472,5.872-5.824c-1.361-0.096-2.947,0.649-4.259,1.002c-1.264,0.342-2.711,0.521-3.864,1.176
			c1.202-1.949,2.24-4.069,3.318-6.033c-2.781,0.419-6.077,2.896-8.401,4.42c0.144-2.341-1.585-5.001-3.097-6.675
			c-1.673,1.052-2.391,4.204-3.626,5.833c-0.862-1.025-5.176-5.926-5.176-5.926s-3.849,3.087-2.118,6.307
			c-1.512-2.091-5.628-3.071-8.152-2.97c0.949,1.031,2.206,4.701,2.206,4.701s-2.941-0.066-4.203-0.121
			c-1.397-0.066-2.832-0.03-4.228,0.009c1.628,2.199,3.679,4.078,4.272,6.929c-1.711-0.256-5.31-1.866-6.75-0.621
			c1.746,1.197,3.718,2.593,4.948,4.322c-1.686-0.062-3.432-0.19-5.17-0.236c1.832,0.809,3.836,2.642,4.919,4.2
			c-0.59,0.264-1.39,0.34-2.079,0.298c0.3,1.158,2.197,2.475,3.196,3.113c2.826,1.804,6.243,1.644,9.45,2.1
			c6.277,0.886,15.04,2.936,21.19,0.188c0.785-0.348,1.535-1.023,1.662-1.915c0.208-1.412-0.921-1.49-1.346-2.591
			c-0.862-2.231,2.019-2.867,3.48-3.466c0.92-0.374,6.742-3.529,7.223-3.057C288.903,375.446,285.103,375.446,283.029,375.368z"/>
		<path fill="#4AB380" d="M286.189,387.857c1.581-0.931,2.896-2.583,4.561-3.377c-1.614-0.477-4.399,0.2-6.133,0.439
			c1.893-1.312,3.406-2.78,4.702-4.656c-1.096-0.078-2.355,0.516-3.409,0.8c-1.006,0.271-2.174,0.415-3.091,0.935
			c0.96-1.555,1.792-3.249,2.658-4.821c-2.226,0.334-4.864,2.316-6.724,3.532c0.116-1.87-1.267-3.994-2.474-5.344
			c-1.34,0.845-1.918,3.377-2.904,4.674c-0.687-0.825-4.143-4.743-4.143-4.743s-3.075,2.468-1.688,5.052
			c-1.211-1.674-4.504-2.461-6.524-2.377c0.758,0.818,1.765,3.763,1.765,3.763s-2.355-0.055-3.362-0.102
			c-1.119-0.055-2.267-0.022-3.386,0.009c1.305,1.756,2.949,3.258,3.417,5.542c-1.367-0.208-4.243-1.491-5.395-0.499
			c1.4,0.955,2.974,2.078,3.956,3.459c-1.35-0.057-2.748-0.152-4.134-0.191c1.458,0.646,3.07,2.115,3.929,3.36
			c-0.468,0.213-1.107,0.272-1.656,0.234c0.236,0.932,1.757,1.985,2.557,2.494c2.26,1.445,4.99,1.314,7.557,1.675
			c5.021,0.715,12.032,2.351,16.954,0.156c0.626-0.274,1.224-0.823,1.321-1.537c0.174-1.125-0.738-1.188-1.075-2.065
			c-0.688-1.788,1.615-2.296,2.783-2.776c0.734-0.296,5.398-2.818,5.783-2.437C290.886,387.921,287.845,387.925,286.189,387.857z"/>
		<path fill="#75BB80" d="M327.208,375.368c1.976-1.171,3.622-3.233,5.703-4.221c-2.019-0.596-5.502,0.245-7.665,0.544
			c2.363-1.639,4.252-3.472,5.87-5.824c-1.366-0.096-2.94,0.649-4.259,1.002c-1.259,0.342-2.713,0.521-3.862,1.176
			c1.202-1.949,2.237-4.069,3.321-6.033c-2.779,0.419-6.082,2.896-8.403,4.42c0.135-2.341-1.589-5.001-3.101-6.675
			c-1.674,1.052-2.391,4.204-3.624,5.833c-0.865-1.025-5.18-5.926-5.18-5.926s-3.846,3.087-2.114,6.307
			c-1.513-2.091-5.633-3.071-8.152-2.97c0.945,1.031,2.204,4.701,2.204,4.701s-2.942-0.066-4.203-0.121
			c-1.4-0.066-2.834-0.03-4.232,0.009c1.63,2.199,3.683,4.078,4.275,6.929c-1.712-0.256-5.309-1.866-6.748-0.621
			c1.746,1.197,3.716,2.593,4.948,4.322c-1.689-0.062-3.435-0.19-5.166-0.236c1.827,0.809,3.829,2.642,4.911,4.2
			c-0.59,0.264-1.389,0.34-2.075,0.298c0.298,1.158,2.198,2.475,3.196,3.113c2.827,1.804,6.24,1.644,9.452,2.1
			c6.276,0.886,15.04,2.936,21.193,0.188c0.777-0.348,1.528-1.023,1.657-1.915c0.208-1.412-0.924-1.49-1.349-2.591
			c-0.861-2.231,2.02-2.867,3.476-3.466c0.926-0.374,6.745-3.529,7.228-3.057C333.078,375.446,329.278,375.446,327.208,375.368z"/>
		<path fill="#4AB380" d="M324.261,387.88c1.581-0.931,2.897-2.583,4.561-3.377c-1.612-0.477-4.398,0.2-6.126,0.439
			c1.887-1.312,3.4-2.78,4.694-4.656c-1.093-0.078-2.354,0.516-3.406,0.8c-1.013,0.271-2.169,0.415-3.091,0.935
			c0.962-1.555,1.791-3.249,2.656-4.821c-2.224,0.334-4.861,2.316-6.722,3.532c0.116-1.87-1.268-3.994-2.476-5.344
			c-1.343,0.845-1.917,3.377-2.904,4.674c-0.69-0.825-4.142-4.743-4.142-4.743s-3.078,2.468-1.687,5.052
			c-1.212-1.674-4.509-2.461-6.524-2.377c0.758,0.818,1.766,3.763,1.766,3.763s-2.357-0.055-3.363-0.102
			c-1.121-0.055-2.269-0.022-3.386,0.009c1.303,1.756,2.95,3.258,3.419,5.542c-1.363-0.208-4.244-1.491-5.398-0.499
			c1.399,0.955,2.973,2.078,3.958,3.459c-1.348-0.057-2.747-0.152-4.135-0.191c1.466,0.646,3.067,2.115,3.93,3.36
			c-0.471,0.213-1.11,0.272-1.659,0.234c0.24,0.932,1.759,1.985,2.558,2.494c2.261,1.445,4.993,1.314,7.557,1.675
			c5.024,0.715,12.034,2.351,16.955,0.156c0.624-0.274,1.222-0.823,1.323-1.537c0.171-1.125-0.739-1.188-1.077-2.065
			c-0.687-1.788,1.614-2.296,2.784-2.776c0.737-0.296,5.394-2.818,5.778-2.437C328.959,387.943,325.917,387.947,324.261,387.88z"/>
	</g>
</g>
</svg>
