<svg version="1.1" xmlns="http://www.w3.org/2000/svg" xmlns:xlink="http://www.w3.org/1999/xlink" viewBox="0 0 768 430" enable-background="new 0 0 768 430" xml:space="preserve">
<g id="Layer_2">
</g>
<g id="Layer_1">
	<g>
		<g>
			<polygon fill="#EDCC7F" points="386.199,356.727 386.18,356.829 386.031,357.558 385.63,359.562 385.281,361.31 385.264,361.396 
				385.143,361.996 384.657,364.416 370.082,378.992 369.911,378.139 369.166,374.423 383.729,359.862 383.79,359.802 
				375.929,351.941 376.278,350.208 376.845,347.372 			"/>
			<path fill="#EDA54B" d="M418.795,188.767c0.363-0.046,0.727-0.094,1.08-0.144l-0.203,1.021l-0.02,0.098l-0.894,4.473l-0.02,0.099
				l-7.087,35.368l-9.355-9.354l5.254-26.226l0.895-4.458c0.197-0.009,0.398-0.02,0.596-0.031c1.629-0.09,3.227-0.201,4.786-0.331
				C415.543,189.138,417.207,188.967,418.795,188.767z"/>
			<path fill="#EEB55E" d="M412.93,167.275l-0.521,2.601l-0.025,0.127l-0.164,0.816l-0.979,4.891l-0.024,0.126l-0.133,0.649
				l-0.618,3.089l-1.136,5.663l-7.605,37.956l-0.024,0.127l-1.145,5.71l-0.024,0.126l-4.349,21.703l-1.136,5.664l-0.616,3.089
				l-1.134,5.663l-2.255,11.239l-0.024,0.128l-1.145,5.701l-0.025,0.127l-9.486,47.362l-0.025,0.129l-0.189,0.931l-0.954,4.771
				l-0.025,0.133l-0.154,0.765l-0.622,3.09l-1.133,5.663L374.314,360c0,0-1.582,5.881-6.821,6.078l-5.658-28.23l-0.124-0.624
				l-0.916-4.568l-0.333-1.664l-7.121-35.538l-0.916-4.569l-3.152-15.734l-1.375-6.86l-2.45-12.235l-0.476-2.372l-0.916-4.567
				l-7.344-36.667l-0.107-0.537l-0.916-4.568l-0.352-1.754l-3.375-16.844l-1.056-5.278l-2.671-13.326l-0.575-2.865H412.93z"/>
			<path fill="#EDA54B" d="M434.194,176.533c0,0.635-0.177,1.224-0.512,1.769c-1.526,2.492-6.364,4.054-12.745,5.027
				c-0.775,0.122-1.576,0.231-2.396,0.333c-0.206,0.024-0.415,0.052-0.624,0.074c-1.086,0.129-2.202,0.245-3.345,0.346
				c-0.085,0.009-0.17,0.017-0.255,0.022c-0.058,0.006-0.112,0.008-0.171,0.014c-0.035,0.002-0.072,0.005-0.11,0.008
				c-0.517,0.047-1.04,0.088-1.567,0.126c-0.199,0.017-0.396,0.031-0.595,0.044c-0.786,0.058-1.584,0.11-2.39,0.154
				c-0.154,0.011-0.309,0.019-0.462,0.028c-0.039,0.002-0.075,0.002-0.112,0.005h-0.025c-0.027,0-0.053,0.003-0.074,0.006
				c-0.009,0-0.014,0-0.02,0.003c-0.041,0.002-0.08,0.005-0.118,0.005c-1.175,0.064-2.362,0.116-3.556,0.163
				c-11.148,0.424-22.818,0.124-29.645,0.124c-2.277,0-5.093,0.033-8.249,0.06c-0.135,0.003-0.272,0.003-0.411,0.003l-0.071-0.072
				l-0.074,0.074c-0.627,0.006-1.265,0.012-1.914,0.017h-0.121c-0.325,0.003-0.655,0.003-0.985,0.006
				c-0.641,0.005-1.29,0.008-1.948,0.011h-0.333l-0.107-0.108l-0.107,0.108c-0.613,0.002-1.238,0.005-1.865,0.002h-0.118
				c-0.338,0-0.677,0-1.018-0.002c-16.916-0.042-37.422-0.927-40.893-6.582c-0.336-0.544-0.512-1.133-0.512-1.769
				c0-3.028,1.021-5.069,2.44-6.447c0.236-0.231,0.483-0.443,0.742-0.635c3.221-2.44,7.731-2.175,7.731-2.175h96.45
				c0.014,0,0.03,0,0.043,0.002c1.629,0.058,5.19,0.471,7.601,2.808C433.174,171.464,434.194,173.504,434.194,176.533z"/>
			<path fill="#EEB55E" d="M413.916,178.708c0,0.636-0.176,1.224-0.513,1.77c-0.626,1.02-1.81,1.886-3.427,2.618
				c-0.044,0.002-0.085,0.005-0.129,0.008c-0.039,0.002-0.074,0.002-0.113,0.005l0.066,0.066c-1.31,0.575-2.891,1.067-4.684,1.485
				c-11.148,0.424-22.818,0.124-29.645,0.124c-2.277,0-5.093,0.033-8.249,0.06c-0.135,0.003-0.272,0.003-0.411,0.003l-0.071-0.072
				l-0.074,0.074c-0.627,0.006-1.265,0.012-1.914,0.017h-0.121c-0.325,0.003-0.655,0.003-0.985,0.006
				c-0.641,0.005-1.29,0.008-1.948,0.011h-0.333l-0.107-0.108l-0.107,0.108c-0.613,0.002-1.238,0.005-1.865,0.002h-0.118
				c-0.338,0-0.677,0-1.018-0.002c-16.916-0.042-37.422-0.927-40.893-6.582c-0.336-0.544-0.512-1.133-0.512-1.769
				c0-3.028,1.021-5.069,2.44-6.447c0.236-0.231,0.483-0.443,0.742-0.635h83.073c0,0,5.256-0.309,8.472,2.81
				C412.895,173.639,413.916,175.68,413.916,178.708z"/>
			<path fill="#EEB55E" d="M361.261,184.775l0.107,0.108c-0.071,0.002-0.143,0.002-0.214,0L361.261,184.775z"/>
			<path fill="#EEB55E" d="M366.743,184.775l0.071,0.072c-0.049,0.002-0.098,0.002-0.145,0.002L366.743,184.775z"/>
			<path fill="#EEB55E" d="M409.977,183.096c-0.058,0.027-0.115,0.055-0.176,0.08l-0.066-0.066c0.039-0.003,0.074-0.003,0.113-0.005
				C409.892,183.101,409.933,183.098,409.977,183.096z"/>
			<path fill="#D99744" d="M431.756,170.085c-9.28,5.87-42.563,4.66-56.283,4.66c-13.718,0-47.004,1.209-56.284-4.66
				c3.215-3.119,8.474-2.81,8.474-2.81h95.621C423.283,167.275,428.54,166.966,431.756,170.085z"/>
			<path fill="#D47C9F" d="M392.412,167.259c-0.232-0.042-0.493-0.079-0.795-0.105C391.944,167.258,392.213,167.297,392.412,167.259
				z"/>
			<path fill="none" d="M358.5,190.021l-19.365,19.363l1.774,1.777l20.551,20.551l22.329-22.328l-19.379-19.38
				C362.517,190.017,360.536,190.025,358.5,190.021z"/>
			<polygon fill="none" points="386.529,256.782 408.797,234.514 408.857,234.454 388.305,213.9 386.529,212.126 364.202,234.454 
							"/>
			<path fill="none" d="M375.473,189.919c-1.625,0-3.527,0.017-5.628,0.037l16.685,16.685l16.785-16.783
				C392.729,190.187,381.933,189.919,375.473,189.919z"/>
			<polygon fill="none" points="402.297,220.329 407.553,194.104 391.811,209.843 			"/>
			<polygon fill="none" points="391.811,259.982 391.811,259.983 393.932,262.103 394.429,259.612 394.989,256.804 391.871,259.923 
							"/>
			<polygon fill="none" points="366.744,335.19 377.192,345.641 377.258,345.313 378.392,339.65 379.014,336.561 379.167,335.796 
				379.191,335.663 380.146,330.893 380.336,329.962 380.361,329.833 382.429,319.505 366.804,335.131 			"/>
			<polygon fill="#EDA54B" points="393.65,319.524 393.631,319.623 386.546,354.994 377.192,345.641 377.257,345.313 
				378.391,339.65 379.013,336.561 379.167,335.796 379.191,335.663 380.146,330.893 380.335,329.962 380.36,329.833 
				382.428,319.505 388.031,313.902 388.307,314.178 			"/>
			<polygon fill="#EDA54B" points="394.429,259.612 393.932,262.103 403.282,271.449 408.893,243.451 409.03,242.763 
				394.989,256.804 			"/>
			<polygon fill="#D99744" points="395.045,256.523 394.989,256.804 409.03,242.763 409.781,239.015 395.74,253.056 			"/>
			<path fill="#D99744" d="M330.908,183.467l1.056,5.278c6.308,0.814,13.834,1.13,21.094,1.234l5.094-5.094
				C349.037,184.861,338.881,184.593,330.908,183.467z"/>
			<path fill="#D99744" d="M360.937,184.885c0.256,0,0.512,0,0.765-0.001c0.054,0,0.106,0,0.16-0.001
				c-0.653,0.003-1.317,0.003-1.985,0.004C360.232,184.886,360.586,184.886,360.937,184.885z"/>
			<path fill="#D99744" d="M360.937,184.885c0.376,0,0.75-0.001,1.123-0.003c-0.065,0-0.132,0-0.198,0
				c-0.053,0.001-0.106,0.001-0.16,0.001C361.449,184.884,361.193,184.885,360.937,184.885z"/>
			<path fill="#D99744" d="M362.09,184.881c0.202-0.001,0.403-0.001,0.603-0.003C362.492,184.879,362.292,184.88,362.09,184.881z"/>
			<path fill="#D99744" d="M360.937,184.885c-0.351,0.001-0.705,0.001-1.061,0.001c-0.012,0-0.025,0-0.039,0
				C360.207,184.886,360.573,184.886,360.937,184.885z"/>
			<path fill="#D99744" d="M362.692,184.878c-0.2,0.001-0.401,0.002-0.603,0.003c-0.011,0-0.021,0-0.03,0
				c-0.372,0.002-0.746,0.003-1.123,0.003c-0.364,0.001-0.73,0.001-1.099,0.001c-0.183,0-0.364,0-0.548,0l2.173,2.172l2.185-2.185
				C363.333,184.875,363.012,184.877,362.692,184.878z"/>
			<polygon fill="#EDA54B" points="391.871,310.061 396.469,305.459 396.469,305.464 396.332,306.152 394.912,313.223 
				391.811,310.121 			"/>
			<polygon fill="#EDA54B" points="402.02,277.757 402,277.855 398.593,294.858 387.572,305.882 387.297,305.606 385.561,303.872 
				389.846,282.471 389.871,282.344 391.016,276.643 391.04,276.515 392.668,268.402 			"/>
			<polygon fill="#D99744" points="403.282,271.449 393.932,262.103 393.584,263.835 402.936,273.185 403.282,271.45 			"/>
			<g>
				<polygon fill="#EDCC7F" points="402.936,273.186 402.916,273.284 402.365,276.021 402.02,277.757 392.668,268.402 
					393.015,266.673 393.295,265.275 393.584,263.836 				"/>
			</g>
			<polygon fill="#EDA54B" points="400.555,229.03 400.529,229.156 397.115,246.196 408.797,234.514 408.857,234.454 
				401.035,226.631 			"/>
			<polygon fill="#D99744" points="411.652,229.682 402.297,220.329 401.95,222.062 411.305,231.417 			"/>
			<g>
				<polygon fill="#EDCC7F" points="411.305,231.418 411.286,231.517 411.156,232.155 410.389,235.985 410.369,236.085 
					410.268,236.594 409.781,239.014 395.74,253.055 396.181,250.859 396.365,249.947 397.115,246.195 408.797,234.514 
					408.857,234.454 401.035,226.632 401.381,224.899 401.698,223.32 401.723,223.193 401.951,222.061 				"/>
			</g>
			<path fill="none" d="M361.837,337.848l5.657,28.23c5.24-0.197,6.821-6.078,6.821-6.078l1.615-8.059l-12.41-12.41L361.837,337.848
				z"/>
			<path fill="#EDA54B" d="M383.79,359.802l-0.06,0.061l-14.563,14.561l-1.672-8.345c5.239-0.197,6.821-6.078,6.821-6.078
				l1.615-8.059L383.79,359.802z"/>
			<path fill="#EDA54B" d="M383.906,368.166l-0.138,0.688l-2.305,11.505c0,0-1.281,4.767-5.556,4.767
				c-3.006,0-4.532-2.363-5.173-3.76L383.906,368.166z"/>
			<path fill="#D99744" d="M408.673,184.5l-5.358,5.358c-10.586,0.327-21.381,0.061-27.842,0.061c-1.073,0-2.271,0.008-3.567,0.019
				c-0.663,0.005-1.351,0.011-2.06,0.02l-5.091-5.091c0.11,0,0.217-0.002,0.324-0.002c0.588-0.006,1.169-0.008,1.738-0.014
				c3.32-0.03,6.282-0.065,8.656-0.065C383.031,184.784,396.523,185.15,408.673,184.5z"/>
			<path fill="#D99744" d="M365.081,184.864c-0.124,0.001-0.247,0.002-0.372,0.002h0.045
				C364.864,184.866,364.971,184.865,365.081,184.864z"/>
			<path fill="#EDA54B" d="M423.283,167.275h0.828C423.594,167.256,423.283,167.275,423.283,167.275z"/>
			<polygon fill="#EDA54B" points="365.979,336.506 376.845,347.372 377.192,345.641 366.743,335.19 366.804,335.131 
				382.428,319.505 383.179,315.757 364.204,334.731 			"/>
			<polygon fill="#EDA54B" points="410.39,235.985 410.405,235.906 410.357,235.954 			"/>
			<polygon fill="#EDA54B" points="391.045,211.158 401.951,222.061 402.297,220.328 391.811,209.843 407.551,194.102 
				408.301,190.354 389.271,209.384 			"/>
			<path fill="#EDA54B" d="M366.813,184.847l-0.071-0.072l-0.074,0.074c-0.521,0.005-1.052,0.009-1.588,0.014
				c0.587-0.005,1.167-0.009,1.736-0.015L366.813,184.847z"/>
			<polygon fill="#EDA54B" points="361.401,287.395 353.342,295.453 353.843,297.949 362.961,288.833 361.462,287.333 			"/>
			<polygon fill="#EDA54B" points="362.958,238.695 345.449,256.054 344.973,253.682 361.459,237.195 			"/>
			<polygon fill="#EDA54B" points="362.501,280.812 362.227,280.538 347.377,265.688 347.899,268.289 361.462,281.852 			"/>
			<path fill="#EDA54B" d="M362.224,230.397l0.275,0.274l-1.04,1.04l-20.551-20.551l-1.774-1.777l19.366-19.363
				c1.015,0.003,2.016,0,3-0.003l-19.825,19.825L362.224,230.397z"/>
			<polygon fill="#EDA54B" points="361.366,184.88 361.157,184.88 361.261,184.775 			"/>
			<path fill="#EDA54B" d="M387.568,205.602l-1.039,1.039l-16.684-16.684c0.709-0.008,1.397-0.014,2.06-0.02L387.568,205.602z"/>
			<path fill="#D99744" d="M363.237,188.833l-0.276-0.275l-1.498-1.499l-2.963,2.962c1.015,0.002,2.017,0.001,3-0.002
				c0.988-0.003,1.959-0.008,2.909-0.015L363.237,188.833z"/>
			<polygon fill="#EDA54B" points="386.469,262.327 364.204,284.594 365.979,286.368 385.215,305.604 385.561,303.872 
				366.743,285.054 366.804,284.992 388.028,263.766 386.529,262.266 			"/>
			<polygon fill="#EDA54B" points="364.201,234.454 386.529,256.782 387.568,255.742 366.74,234.913 388.028,213.625 
				386.529,212.126 			"/>
			<polygon fill="#EDA54B" points="391.045,261.298 393.584,263.836 393.931,262.102 391.811,259.983 391.871,259.923 
				394.989,256.804 395.045,256.523 395.74,253.055 389.271,259.524 			"/>
			<polygon fill="#D99744" points="386.546,354.993 377.192,345.641 376.846,347.372 386.199,356.727 386.546,354.994 			"/>
			<polygon fill="#D99744" points="387.297,305.606 387.572,305.882 386.532,306.922 385.215,305.604 385.561,303.872 			"/>
			<polygon fill="#D99744" points="397.221,301.709 397.221,301.716 396.469,305.459 391.871,310.061 391.811,310.121 
				394.912,313.223 394.566,314.956 389.271,309.661 390.311,308.621 			"/>
			<polygon fill="#D99744" points="388.031,313.902 382.428,319.505 383.179,315.757 386.471,312.464 386.532,312.403 			"/>
			<path fill="#D99744" d="M384.657,364.416l-0.751,3.75l-13.172,13.199c-0.267-0.589-0.379-1.007-0.379-1.007l-0.272-1.366
				L384.657,364.416z"/>
			<path fill="#EDCC7F" d="M418.76,194.215l0.913-4.571l-0.878-0.878c-1.588,0.202-3.252,0.372-4.969,0.516L418.76,194.215z"/>
			<g>
				<path fill="#F9D685" d="M362.09,184.881c0.203-0.001,0.402-0.002,0.603-0.003c0.32-0.001,0.64-0.003,0.956-0.005
					c0.356-0.002,0.71-0.004,1.061-0.007h-0.075c-0.325,0.003-0.654,0.003-0.985,0.006c-0.587,0.005-1.185,0.008-1.787,0.01
					c0.065,0,0.133,0,0.198,0C362.069,184.881,362.079,184.881,362.09,184.881z"/>
				<polygon fill="#F9D685" points="410.389,235.985 410.369,236.085 410.268,236.594 409.781,239.014 409.781,239.015 
					409.781,239.014 410.268,236.594 410.371,236.085 410.391,235.985 410.39,235.985 				"/>
				<path fill="#F9D685" d="M414.147,184.119c-1.665,0.146-3.38,0.264-5.124,0.36c-0.115,0.005-0.234,0.014-0.35,0.019l-0.002,0.002
					c0.118-0.007,0.234-0.013,0.353-0.02c1.745-0.097,3.462-0.215,5.126-0.358c0.141-0.012,0.28-0.024,0.42-0.037l0.003-0.002
					C414.43,184.097,414.29,184.107,414.147,184.119z"/>
				<path fill="#F9D685" d="M408.301,190.354l-19.029,19.03l1.773,1.774l10.906,10.903l-0.229,1.133l-0.024,0.127l-0.317,1.579
					l-0.346,1.732l-13.007-13.007l-1.499-1.499l-22.328,22.328l22.328,22.328l1.039-1.04l9.547-9.547l-0.75,3.752l-0.185,0.912
					l-0.44,2.195l-6.469,6.47l1.773,1.773l2.539,2.538l-0.289,1.439l-0.28,1.397l-0.347,1.729l-4.64-4.637l-1.499-1.5l-0.061,0.062
					l-22.265,22.267l1.774,1.774l19.236,19.236l-0.57,2.833l-0.091,0.462l-0.255,1.271l-0.495,2.476l-0.625,3.111l-18.975,18.975
					l1.774,1.774l10.867,10.866l-0.567,2.836l-0.349,1.733l-12.41-12.41l-1.684-1.684l-0.124-0.624l-0.916-4.568l-0.333-1.664
					l0.999,0.998l22.267-22.268l0.06-0.061l-20.554-20.554l-1.773-1.774l-0.061,0.062l-8.059,8.059l-0.916-4.569l6.293-6.292
					l-7.762-7.76l-1.683-1.683l-1.375-6.86l3.062,3.062l10.501,10.5l1.039-1.039l21.225-21.228l0.061-0.061l-20.829-20.829
					l-1.499-1.5l-16.486,16.486l-0.916-4.567l14.66-14.66L338.166,213.9l-1.452-1.452l-0.321-0.322l0.214-0.215l-0.916-4.568
					l-0.352-1.754l1.054,1.053l16.665-16.662c0.996,0.014,1.986,0.025,2.967,0.031c0.834,0.005,1.659,0.01,2.476,0.01
					l-19.366,19.363l1.774,1.777l20.551,20.551l22.328-22.328l-19.379-19.379c0.701-0.006,1.389-0.011,2.062-0.017
					c1.171-0.011,2.3-0.022,3.375-0.03l16.684,16.684l1.039-1.039l15.746-15.743c1.043-0.033,2.083-0.072,3.117-0.119
					c0.674-0.027,1.345-0.061,2.014-0.096L408.301,190.354z"/>
				<path fill="#F9D685" d="M409.041,189.614l-0.74,0.74l0.145-0.709C408.643,189.636,408.844,189.625,409.041,189.614z"/>
				<path fill="#F9D685" d="M359.838,184.886c0.013,0,0.026,0,0.039,0c-0.195,0-0.39,0-0.586,0c-0.377,0-0.757,0-1.136-0.002
					l-0.001,0.001c0.381,0,0.761,0.001,1.138,0.002C359.474,184.886,359.655,184.886,359.838,184.886z"/>
				<polygon fill="#F9D685" points="411.305,231.418 411.286,231.517 411.156,232.155 411.156,232.155 411.157,232.155 
					411.286,231.517 411.307,231.418 411.305,231.417 				"/>
			</g>
			<path fill="#EDCC7F" d="M369.845,189.958c-0.212,0.003-0.426,0.003-0.641,0.005c-0.217,0.003-0.435,0.003-0.655,0.006
				c-0.396,0.002-0.8,0.008-1.21,0.011c-0.267,0.003-0.539,0.005-0.813,0.008h-0.056c-0.673,0.005-1.361,0.011-2.062,0.017
				l-1.172-1.172l-0.275-0.275l-1.499-1.499l-2.962,2.962c-0.702,0-1.411-0.003-2.126-0.008c-0.116,0-0.231-0.002-0.35-0.002
				c-0.981-0.006-1.972-0.017-2.967-0.031l5.097-5.096c0.379,0.002,0.759,0.002,1.136,0.002c0.138-0.002,0.93-0.005,1.868-0.005
				h0.209l0.002,0.003h0.493c0.066,0,0.135,0,0.198-0.003h0.03c0.244,0,0.486,0,0.729-0.003c0.132,0,0.264,0,0.396-0.002
				c0.771-0.006,1.377-0.009,1.496-0.009h0.044L369.845,189.958z"/>
			<path fill="#EDCC7F" d="M363.214,184.875c-0.132,0.002-0.264,0.002-0.396,0.002c-0.242,0.003-0.484,0.003-0.729,0.003h-0.03
				c-0.063,0.003-0.132,0.003-0.198,0.003h-0.493l-0.002-0.003C361.982,184.877,362.642,184.875,363.214,184.875z"/>
			<path fill="#D99744" d="M420.938,183.334l-1.062,5.289c-0.354,0.05-0.717,0.097-1.08,0.144l-4.478-4.662
				C416.553,183.904,418.948,183.64,420.938,183.334z"/>
			<path fill="#D99744" d="M409.043,189.613c1.627-0.09,3.227-0.2,4.783-0.331l-2.226-2.227L409.043,189.613z"/>
			<path fill="#EDCC7F" d="M418.795,188.767c-1.588,0.201-3.252,0.372-4.968,0.517l-2.228-2.227l-2.559,2.558
				c-1.884,0.105-3.801,0.184-5.727,0.245l5.358-5.358c0.009,0,0.05-0.003,0.118-0.008c0.006-0.003,0.011-0.003,0.02-0.003
				c0.024,0,0.049-0.003,0.074-0.006h0.025c0.037-0.002,0.073-0.002,0.112-0.005c0.96-0.052,1.913-0.113,2.852-0.182
				c0.198-0.014,0.396-0.028,0.595-0.044c0.527-0.038,1.051-0.08,1.567-0.126c0.038-0.002,0.075-0.005,0.11-0.008
				c0.059-0.006,0.113-0.008,0.171-0.014L418.795,188.767z"/>
			<polygon fill="#EDCC7F" points="398.593,294.858 397.705,299.296 397.221,301.709 390.311,308.621 389.271,309.661 
				394.566,314.956 394.547,315.058 393.999,317.792 393.65,319.524 388.307,314.178 386.532,312.403 386.471,312.464 
				383.179,315.757 383.804,312.646 384.299,310.17 384.554,308.899 384.645,308.438 385.215,305.604 386.532,306.922 
				387.572,305.882 			"/>
			<polygon fill="#EDCC7F" points="397.221,301.709 397.221,301.716 390.311,308.621 			"/>
		</g>
		<path fill="#FF95C0" d="M435.589,157.258c-2.75,4.035-4.4,5.501-9.352,8.251c-0.146,0.082-0.306,0.165-0.476,0.248l-12.506,3.672
			c-6.032,1.235-12.314,1.98-15.164,1.4c-5.41-1.1-3.209-2.201-9.441-2.019c-6.236,0.185-19.253,5.718-23.472,2.217
			c-4.216-3.499-11.002,5.268-21.269,1.161c-10.268-4.109-14.303-1.358-18.153-4.293c-3.851-2.935-3.485-5.686-6.967-7.335
			c-1.04-0.493-1.623-1.15-1.994-1.878c-0.88-1.706-0.608-3.801-2.406-5.089c-0.116-0.083-0.231-0.165-0.347-0.247
			c-2.479-1.766-5.163-3.669-5.338-5.069c-0.185-1.469,1.65-2.019,2.385-3.851c0.731-1.834-0.735-3.485-1.469-7.52
			c-0.242-1.345-0.446-2.517-0.564-3.523c-0.239-2.014-0.154-3.361,0.564-4.084c0,0,3.026-2.751,2.476-3.76
			c-0.551-1.01-2.567-0.459-1.651-3.851c0.16-0.594,0.27-1.156,0.341-1.684c0.344-2.495-0.132-4.235,0.107-4.917
			c0.286-0.825,1.295,0,1.846-2.109c0.55-2.107,0.366-4.492,0-6.051c-0.369-1.557,0.641-4.307,1.65-5.958
			c1.007-1.65,2.476-3.394,2.751-4.4c0.274-1.009,1.557-3.485,3.666-5.776c2.109-2.293,4.86-4.86,5.317-6.51
			c0.459-1.65,2.476-3.21,4.219-4.216c1.741-1.009,10.727-6.235,12.468-7.61c1.741-1.375,5.028-3.851,6.73-3.942
			c1.705-0.093,5.372-1.65,6.931-2.294c1.557-0.641,4.126,0,5.592-0.731c1.466-0.734,1.009-1.375,3.576-1.559
			s6.785-0.275,8.342-0.55c1.56-0.275,4.035,0.185,7.151,0.459c3.119,0.275,3.76,0.55,4.951,0.366
			c0.294-0.044,0.71-0.05,1.213-0.017h0.011c1.543,0.107,3.903,0.58,6.07,1.4c2.883,1.092,6.092,1.276,7.928,1.917
			c1.328,0.465,2.125,0.833,3.303,1.733c0.447,0.343,0.948,0.762,1.554,1.293c0.644,0.563,1.351,1.086,2.073,1.551l11.48,9.007
			c1.184,1.219,2.159,2.253,3.317,3.469c1.551,1.631,5.138,6.747,6.928,10.111c0.324,0.61,0.589,1.163,0.773,1.628
			c1.19,3.023,2.565,7.605,3.757,8.98c0.523,0.603,1.329,2.563,2.076,4.866c0.955,2.954,1.815,6.471,1.867,8.43
			c0.091,3.482-0.918,8.708,0.366,10.727c1.285,2.016,0.366,3.3,1.561,3.941c1.19,0.641,1.741,1.925,2.703,7.013
			C444.023,145.341,438.339,153.226,435.589,157.258z"/>
		<path fill="#C47294" d="M372.651,101.746c-4.401-1.1-8.526-5.363-10.864-7.288c-2.338-1.926-8.939-1.375-11.689-1.65
			c-2.75-0.275-6.601-6.051-6.601-6.051s0.468,0.144,1.196,0.358c2.121,0.624,6.447,1.843,7.88,1.843c1.926,0,10.177-1.788,12.515,0
			c2.338,1.788,7.289,4.125,9.764,6.601c2.34,2.34,1.854,5.787,3.42,6.736c0.092,0.058,0.187,0.101,0.292,0.14
			C380.489,103.121,377.052,102.847,372.651,101.746z"/>
		<path fill="#C47294" d="M388.465,119.852c-2.75,1.285-8.617,0-10.267-1.171c-1.65-1.172-6.235-0.66-7.885-0.38
			c-1.65,0.281-6.417,1.186-9.011-1.43c-2.591-2.613-5.292-2.335-9.508-1.601c-4.219,0.732-6.969-1.1-6.969-1.1
			c-0.424-0.385-0.413-0.751-0.129-1.092c1.059-1.279,5.946-2.225,6.032-2.709c0.113-0.616,4.918-0.783,8.584,0.867
			c3.667,1.65,4.767,2.2,8.617,2.935c3.851,0.731,6.785-0.369,11.183,0c3.385,0.283,8.732,2.739,9.758,4.439
			C389.178,119.118,389.098,119.558,388.465,119.852z"/>
		<path fill="#D47C9F" d="M378.272,102.294c-1.188-0.146-2.986-0.476-4.98-0.974c-4.4-1.1-8.526-5.364-10.864-7.289
			c-2.338-1.925-8.939-1.375-11.69-1.65c-2.115-0.212-4.881-3.681-6.045-5.267c2.121,0.624,6.447,1.843,7.88,1.843
			c1.926,0,10.177-1.788,12.515,0c2.338,1.788,7.289,4.125,9.764,6.601C377.192,97.898,376.705,101.345,378.272,102.294z"/>
		<path fill="#C47294" d="M408.635,120.771c-4.032,0.55-20.17-7.335-20.17-7.335s0.152-0.303,0.534-0.432
			c0.344-0.118,0.88-0.091,1.667,0.432c1.65,1.1,10.086-1.284,9.901,0.734c-0.143,1.565,7.226,4.346,8.644,5.768
			C409.621,120.35,409.539,120.647,408.635,120.771z"/>
		<path fill="#D47C9F" d="M409.211,119.938c-0.131,0.063-0.32,0.11-0.576,0.146c-3.596,0.489-16.811-5.724-19.636-7.08
			c0.344-0.118,0.88-0.091,1.667,0.432c1.65,1.1,10.086-1.284,9.901,0.734C400.425,115.735,407.793,118.516,409.211,119.938z"/>
		<path fill="#D47C9F" d="M388.869,118.609c-0.09,0.107-0.225,0.201-0.404,0.287c-2.75,1.284-8.617,0-10.267-1.172
			c-1.65-1.171-6.235-0.66-7.885-0.379c-1.65,0.281-6.417,1.186-9.011-1.43c-2.591-2.613-5.292-2.336-9.508-1.601
			c-4.219,0.731-6.969-1.1-6.969-1.1c-0.05-0.044-0.093-0.091-0.129-0.135c1.059-1.279,5.946-2.225,6.032-2.709
			c0.113-0.616,4.918-0.783,8.584,0.867c3.667,1.65,4.767,2.2,8.617,2.935c3.851,0.731,6.785-0.369,11.183,0
			C382.497,114.453,387.844,116.909,388.869,118.609z"/>
		<path fill="#C47294" d="M338.821,109.932c-1.331,0.754-2.062,2.344-5.913,3.015c-3.851,0.674-10.086,0.979-11.92,0
			c-1.405-0.748-6.246-3.567-6.043-4.549c0.061-0.3,0.592-0.429,1.827-0.278c0,0,10.817,1.832,14.118,0
			c3.301-1.834,7.335-5.32,9.72-2.935c0.119,0.118,0.226,0.236,0.317,0.35C342.713,107.726,340.083,109.217,338.821,109.932z"/>
		<path fill="#D47C9F" d="M338.315,109.06c-1.329,0.753-2.063,2.343-5.913,3.015c-3.851,0.673-10.083,0.979-11.918,0
			c-1.097-0.586-4.288-2.429-5.54-3.677c0.061-0.3,0.592-0.429,1.827-0.278c0,0,10.817,1.832,14.118,0
			c3.301-1.834,7.335-5.32,9.72-2.935c0.119,0.118,0.226,0.236,0.317,0.35C341.505,107.253,339.404,108.444,338.315,109.06z"/>
		<path fill="#C47294" d="M321.538,146.075c-3.3-3.119-4.789-3.21-4.767-3.669c0.005-0.08,0.132-0.088,0.352-0.033
			c1.023,0.264,4.041,1.89,5.699,3.702c0.666,0.723,1.109,1.309,1.29,1.656v0.002C324.478,148.44,323.749,148.163,321.538,146.075z"
			/>
		<path fill="#D47C9F" d="M324.112,147.731c-0.371-0.168-1.147-0.77-2.401-1.956c-2.624-2.481-4.106-3.042-4.588-3.402
			c1.023,0.264,4.041,1.89,5.699,3.702C323.487,146.798,323.931,147.384,324.112,147.731z"/>
		<path fill="#C47294" d="M333.565,150.8c0.066,1.006-1.419,1.219-4.143-0.509c-2.677-1.699-2.566-2.208-2.566-2.208l-0.206-1.642
			c0,0,0.132,0.027,0.36,0.083c0.979,0.239,3.744,1.031,5.528,2.654C333.205,149.785,333.538,150.363,333.565,150.8z"/>
		<path fill="#D47C9F" d="M333.565,150.8c-0.547,0.388-1.861,0.134-3.87-1.127c-2.697-1.693-2.566-2.209-2.566-2.209l-0.119-0.94
			c0.979,0.239,3.744,1.031,5.528,2.654C333.205,149.785,333.538,150.363,333.565,150.8z"/>
		<path fill="#D47C9F" d="M381.109,98.737c-0.192-0.027-0.369-0.074-0.528-0.154C380.581,98.583,380.614,98.487,381.109,98.737z"/>
		<path fill="#C47294" d="M396.35,107.751c-3.117,0.369-3.482-0.182-9.533-4.943c-3.493-2.747-5.031-3.729-5.708-4.07
			c0.308,0.044,0.657,0.028,1.031-0.008c1.004-0.104,2.176-0.382,3.208-0.165c1.65,0.35,5.5,0.936,8.801,2.77
			c1.425,0.792,2.61,2.03,3.248,3.208C398.236,106.092,398.12,107.542,396.35,107.751z"/>
		<path fill="#D47C9F" d="M395.978,106.882c-3.116,0.365-3.481-0.185-9.533-4.942c-2.016-1.587-3.38-2.586-4.304-3.21
			c1.004-0.104,2.176-0.382,3.208-0.165c1.65,0.35,5.5,0.936,8.801,2.77c1.425,0.792,2.61,2.03,3.248,3.208
			C397.76,105.732,397.41,106.713,395.978,106.882z"/>
		<path fill="#C47294" d="M350.326,78.046c-5.135,1.469-6.829,0-6.829,0s0.099-0.261,0.217-0.638
			c0.597,0.328,2.503,1.034,6.612-0.141c0.429-0.124,0.731-0.25,0.921-0.376C351.74,77.285,351.603,77.683,350.326,78.046z"/>
		<path fill="#D47C9F" d="M351.248,76.891c-0.19,0.126-0.492,0.253-0.921,0.376c-4.109,1.174-6.015,0.468-6.612,0.141
			c0.204-0.658,0.459-1.667,0.347-2.289c-0.031-0.165-0.088-0.302-0.179-0.401c0.063,0.013,0.129,0.027,0.204,0.044
			C345.78,75.139,350.131,76.002,351.248,76.891z"/>
		<path fill="#C47294" d="M395.65,93.729c0.039,0.432-0.239,0.707-0.951,0.729c-3.117,0.091-4.4-1.926-5.457-2.291
			c-1.059-0.369-2.61-2.019-8.661-7.335c-3.78-3.32-3.411-3.854-2.599-3.785c0.484,0.042,1.13,0.3,1.13,0.3s6.785,4.77,10.13,6.406
			C391.822,89.015,395.525,92.269,395.65,93.729z"/>
		<path fill="#D47C9F" d="M395.65,93.729c-0.141,0.055-0.319,0.085-0.539,0.091c-3.117,0.091-4.4-1.925-5.457-2.291
			c-1.059-0.366-2.609-2.016-8.661-7.335c-1.87-1.645-2.726-2.604-3.011-3.147c0.484,0.042,1.13,0.3,1.13,0.3
			s6.785,4.77,10.13,6.406C391.822,89.015,395.525,92.269,395.65,93.729z"/>
		<path fill="#D47C9F" d="M424.037,140.023c-1.185,0.527,3.851-3.484,8.436,0c4.583,3.484,6.233,6.163,4.4,6.29
			C435.039,146.44,425.688,139.29,424.037,140.023z"/>
		<path fill="#C47294" d="M404.133,103.163c0.068-0.195,0.141-0.371,0.217-0.528c0.848-1.793,2.086-1.485,2.086-1.485
			s7.052,7.835,8.301,11.348c0.057,0.16,0.104,0.308,0.134,0.448C415.602,116.187,403.293,105.545,404.133,103.163z"/>
		<path fill="#D47C9F" d="M414.736,112.498c-1.877-0.11-9.848-7.209-10.387-9.863c0.848-1.793,2.086-1.485,2.086-1.485
			S413.487,108.985,414.736,112.498z"/>
		<path fill="#C47294" d="M331.808,94.458c-2.979,0.088-8.631-0.074-7.778-1.686c0.039-0.078,0.094-0.157,0.165-0.24
			c0,0,8.529-3.85,11.096-2.2c0.313,0.201,0.544,0.415,0.704,0.633C337.138,92.532,334.541,94.378,331.808,94.458z"/>
		<path fill="#D47C9F" d="M335.994,90.965c-0.069,1.312-2.22,2.565-4.462,2.632c-2.327,0.068-6.29-0.014-7.503-0.825
			c0.039-0.078,0.094-0.157,0.165-0.24c0,0,8.529-3.85,11.096-2.2C335.604,90.533,335.834,90.748,335.994,90.965z"/>
		<path fill="#C47294" d="M355.563,138.283c-1.851-0.171-5.242-0.429-7.252-1.378c-2.82-1.326-7.138-2.503-6.175-3.936
			c0.102-0.151,0.262-0.308,0.49-0.465c1.758-1.216,6.771,0,8.887,2.019c1.009,0.965,2,2.024,2.877,2.824
			C354.81,137.733,355.205,138.058,355.563,138.283z"/>
		<path fill="#D47C9F" d="M354.389,137.348c-1.892-0.182-4.442-0.495-6.078-1.267c-2.261-1.062-5.482-2.03-6.175-3.111
			c0.102-0.151,0.262-0.308,0.49-0.465c1.758-1.216,6.771,0,8.887,2.019C352.521,135.489,353.511,136.547,354.389,137.348z"/>
		<path fill="#C47294" d="M328.234,134.523c-2.296-0.185-9.263-0.55-8.713-4.219c0.008-0.046,0.014-0.094,0.022-0.137
			c0.405-2.508,1.155-1.661,4.659,0.137c2.014,1.034,3.769,2.302,4.503,3.177C329.274,134.16,329.236,134.603,328.234,134.523z"/>
		<path fill="#D47C9F" d="M328.706,133.481c-0.125,0.022-0.278,0.028-0.471,0.011c-2.093-0.168-8.072-0.487-8.691-3.325
			c0.405-2.508,1.155-1.661,4.659,0.137C326.216,131.338,327.971,132.606,328.706,133.481z"/>
		<path fill="#C47294" d="M413.402,95.559c-4.143-0.993-7.402-3.348-5.773-3.362c0.027,0,0.057,0.003,0.09,0.003
			c4.043,0.154,15.037-0.729,17.97,2.277c0.161,0.165,0.28,0.319,0.362,0.462C427.432,97.381,417.387,96.513,413.402,95.559z"/>
		<path fill="#D47C9F" d="M426.051,94.939c-1.131,1.421-9.182,0.657-12.648-0.173c-2.605-0.622-4.863-1.785-5.773-2.569
			c0.027,0,0.057,0.003,0.09,0.003c4.043,0.154,15.037-0.729,17.97,2.277C425.85,94.642,425.969,94.796,426.051,94.939z"/>
		<path fill="#C47294" d="M400.844,135.323c-2.613,0.528-4.812,1.601-10.59-0.792c-5.775-2.393-5.921-4.227-11.144-2.965
			c-4.576,1.105-12.753-2.495-10.526-4.17c0.314-0.236,0.831-0.435,1.593-0.575c0,0,28.054,1.878,32.042,3.666
			c0.974,0.435,1.543,0.914,1.812,1.397C404.876,133.384,402.818,134.925,400.844,135.323z"/>
		<path fill="#D47C9F" d="M404.031,131.885c-0.492,0.941-1.856,1.724-3.188,1.994c-2.613,0.528-4.812,1.601-10.59-0.792
			c-5.775-2.393-5.921-4.227-11.144-2.967c-3.479,0.841-9.041-1.037-10.526-2.723c0.314-0.236,0.831-0.435,1.593-0.575
			c0,0,28.054,1.878,32.042,3.666C403.192,130.923,403.762,131.401,404.031,131.885z"/>
		<path fill="#C47294" d="M381.494,153.854c0.022,0.044,0.046,0.087,0.071,0.132c-0.258,0.066-0.517,0.129-0.776,0.192
			c-0.52,0.129-1.045,0.256-1.573,0.38c-0.266,0.063-0.531,0.126-0.8,0.187c-0.804,0.187-1.62,0.368-2.448,0.547
			c-0.273,0.058-0.545,0.115-0.817,0.173c-0.941-1.067-1.621-1.975-1.907-2.607c-1.65-3.666-8.066-4.767-11.942-7.333
			c-2.91-1.928-3.4-4.062-1.998-3.996c0.463,0.021,1.137,0.286,1.998,0.877c3.46,2.384,16.527,2.935,19.008,3.485
			c2.479,0.55,1.371,1.834,0.085,4.4C380.102,150.88,380.581,152.192,381.494,153.854z"/>
		<path fill="#C47294" d="M325.74,160.496c-0.363,0.008-0.726,0.014-1.092,0.019c-1.023-1.771,0.008-2.522,0.008-2.522
			c-0.038,0.393,0.052,0.924,0.446,1.604C325.262,159.871,325.468,160.171,325.74,160.496z"/>
		<path fill="#C47294" d="M398.051,148.762c-0.258,0.102-0.516,0.204-0.777,0.303c-2.316-1.59-4.233-3.227-2.756-2.624
			c0,0,0.293,0.151,0.8,0.374c0.553,0.432,1.235,0.93,1.956,1.425C397.529,148.416,397.79,148.592,398.051,148.762z"/>
		<path fill="#C47294" d="M430.957,124.493c-0.27,0.423-0.558,0.853-0.857,1.285c-3.273,0.575-7.041,1.045-8.263,1.045
			c-1.68,0-3.234-2.178-3.174-2.894c0.566,0.861,1.637,1.84,2.762,1.84c1.221,0,4.989-0.471,8.262-1.042
			C430.121,124.649,430.548,124.572,430.957,124.493z"/>
		<path fill="#E384AB" d="M443.062,140.252c-0.962-5.088-1.513-6.373-2.703-7.013c-1.194-0.641-0.275-1.925-1.561-3.941
			c-1.284-2.02-0.275-7.245-0.366-10.727c-0.052-1.959-0.912-5.476-1.867-8.43l-0.274-0.209c0,0-0.041,4.754-3.466,11.348
			c1.995,0.524,3.827,2.669,2.215,3.341c-0.869,0.362-2.799,0.781-4.938,1.157c-5.021,7.224-14.116,15.65-30.591,22.4
			c1.689,0.352,3.54,0.466,5.092-0.095c4.033-1.458,9.215-0.703,9.649,0.936c0.435,1.64-10.567,2.233-12.033,2.578
			c-0.679,0.159-2.958-1.168-4.945-2.532c-4.658,1.793-9.87,3.453-15.707,4.921c3.1,5.582,10.872,14.976,10.872,14.976
			c-0.002,0-0.003,0-0.004,0c1.812,0.333,1.886,1.099,5.658,1.866c5.41,1.1,23.194-2.569,28.146-5.319
			c4.951-2.75,6.602-4.216,9.352-8.251C438.339,153.226,444.023,145.341,443.062,140.252z"/>
		<path fill="#E384AB" d="M375.152,155.466c-12.288,2.593-27.047,4.375-44.769,4.917c3.549,1.431,7.895,3.081,10.409,3.66
			c4.768,1.101,10.085,1.284,7.701,3.851c-2.384,2.567-3.117,3.266-8.801,1.083c-5.685-2.184-8.252-2.184-12.652-5.851
			c-1.252-1.043-1.983-1.908-2.391-2.612c-1.92,0.028-3.871,0.044-5.859,0.044c3.482,1.65,3.116,4.4,6.967,7.335
			c3.85,2.935,7.885,0.184,18.153,4.293c10.267,4.107,17.053-4.659,21.269-1.161c4.219,3.501,17.236-2.032,23.472-2.217
			c1.328-0.039,2.271-0.019,2.988,0.047C388.373,167.809,379.259,160.122,375.152,155.466z"/>
		<path fill="#8F536C" d="M392.435,168.961c-0.233-0.042-0.495-0.077-0.797-0.104c-3.265-1.048-12.38-8.736-16.486-13.392
			c0.271-0.058,0.544-0.115,0.817-0.173c0.828-0.179,1.644-0.36,2.448-0.547c0.269-0.061,0.534-0.124,0.8-0.187
			c0.528-0.124,1.054-0.25,1.573-0.38c0.259-0.063,0.518-0.126,0.776-0.192c2.651,4.775,8.722,12.339,10.421,14.426
			C392.259,168.747,392.418,168.939,392.435,168.961z"/>
		<path fill="#D47C9F" d="M381.494,153.854c-1.826,0.451-3.71,0.883-5.655,1.292c-0.94-1.067-1.62-1.978-1.906-2.607
			c-1.65-3.669-8.067-4.77-11.942-7.335c-2.187-1.45-3.008-3.014-2.685-3.674c0.463,0.021,1.137,0.286,1.998,0.877
			c3.46,2.384,16.527,2.935,19.008,3.485c2.479,0.55,1.371,1.834,0.085,4.4C380.102,150.88,380.581,152.192,381.494,153.854z"/>
		<path fill="#C47294" d="M391.986,168.412c-3.479-1.409-11.991-8.604-16.018-13.12c0.828-0.179,1.644-0.36,2.448-0.547
			c0.269-0.061,0.534-0.124,0.8-0.187c0.528-0.124,1.054-0.25,1.573-0.38c0.259-0.063,0.518-0.126,0.776-0.192
			C384.217,158.76,390.287,166.324,391.986,168.412z"/>
		<path fill="#8F536C" d="M349.077,166.833v0.003c-0.021,0.299-0.203,0.649-0.585,1.059c-2.382,2.566-3.117,3.264-8.801,1.083
			c-5.683-2.184-8.251-2.184-12.652-5.85c-1.251-1.045-1.983-1.909-2.39-2.613c0.366-0.005,0.729-0.011,1.092-0.019
			c1.57-0.027,3.116-0.066,4.643-0.113c3.548,1.43,7.896,3.081,10.408,3.66C344.795,164.967,349.187,165.245,349.077,166.833z"/>
		<path fill="#D47C9F" d="M330.383,160.383c-1.527,0.046-3.072,0.085-4.643,0.113c-0.272-0.325-0.479-0.625-0.638-0.899
			c-0.394-0.679-0.484-1.21-0.446-1.604c0,0,1.507,0.655,3.656,1.543C328.953,159.8,329.651,160.085,330.383,160.383z"/>
		<path fill="#C47294" d="M349.077,166.833v0.003c-0.047,0.046-0.084,0.093-0.132,0.143c-2.382,2.566-3.116,3.265-8.801,1.08
			c-5.682-2.18-8.251-2.18-12.652-5.85c-0.762-0.635-1.334-1.204-1.752-1.713c1.57-0.027,3.116-0.066,4.643-0.113
			c3.548,1.43,7.896,3.081,10.408,3.66C344.795,164.967,349.187,165.245,349.077,166.833z"/>
		<path fill="#8F536C" d="M402.218,151.598c-0.679,0.157-2.959-1.168-4.944-2.533c0.262-0.099,0.52-0.201,0.777-0.303
			c0.01-0.002,0.015-0.006,0.02-0.008c0.24-0.094,0.479-0.19,0.715-0.284c0.243-0.099,0.484-0.195,0.724-0.294
			c1.692,0.352,3.54,0.467,5.091-0.094c3.719-1.342,8.408-0.809,9.465,0.566c0.09,0.115,0.154,0.239,0.187,0.369
			C414.686,150.657,403.684,151.251,402.218,151.598z"/>
		<path fill="#D47C9F" d="M399.509,148.177c-0.239,0.099-0.48,0.195-0.724,0.294c-0.236,0.096-0.475,0.189-0.715,0.284
			c-0.005,0.002-0.01,0.005-0.02,0.008c-0.261-0.17-0.521-0.347-0.777-0.522c-0.721-0.495-1.403-0.993-1.956-1.425
			c0.675,0.292,1.717,0.707,2.924,1.048C398.648,147.979,399.075,148.085,399.509,148.177z"/>
		<path fill="#C47294" d="M414.064,148.649c-1.467,1.299-10.525,1.81-11.847,2.123c-0.591,0.138-2.397-0.852-4.167-2.01
			c0.01-0.002,0.015-0.006,0.02-0.008c0.24-0.094,0.479-0.188,0.715-0.284c0.243-0.099,0.484-0.195,0.724-0.294
			c1.692,0.352,3.54,0.467,5.091-0.094C408.318,146.741,413.008,147.274,414.064,148.649z"/>
		<path fill="#8F536C" d="M435.039,124.622c-0.869,0.36-2.8,0.781-4.939,1.155c0.3-0.432,0.588-0.861,0.857-1.285
			c0.091-0.141,0.18-0.278,0.264-0.416c0.089-0.137,0.174-0.275,0.254-0.41c0.388-0.629,0.739-1.249,1.065-1.851
			c0.098-0.179,0.19-0.357,0.285-0.536c0.968,0.256,1.899,0.894,2.415,1.559C435.787,123.541,435.867,124.275,435.039,124.622z"/>
		<path fill="#D47C9F" d="M432.825,121.28c-0.095,0.179-0.188,0.357-0.285,0.536c-0.326,0.603-0.678,1.222-1.065,1.851
			c-0.08,0.135-0.165,0.272-0.254,0.41c-0.084,0.138-0.173,0.275-0.264,0.416c-0.409,0.08-0.836,0.157-1.271,0.234
			c-3.272,0.572-7.041,1.042-8.262,1.042c-1.125,0-2.195-0.979-2.762-1.84c0.008-0.143,0.085-0.229,0.239-0.226
			c2.391,0.055,9.544-0.731,11.833-2.2c0.354-0.228,0.753-0.33,1.171-0.338C432.209,121.156,432.52,121.2,432.825,121.28z"/>
		<path fill="#C47294" d="M435.24,122.839c-0.024,0.303-0.213,0.563-0.614,0.729c-0.693,0.289-2.06,0.613-3.669,0.924
			c0.091-0.141,0.18-0.278,0.264-0.416c0.089-0.137,0.174-0.275,0.254-0.41c0.388-0.629,0.739-1.249,1.065-1.851
			c0.098-0.179,0.19-0.357,0.285-0.536C433.793,121.536,434.725,122.174,435.24,122.839z"/>
	</g>
</g>
</svg>
