<?xml version="1.0" encoding="utf-8"?>
<!-- Generator: Adobe Illustrator 16.0.0, SVG Export Plug-In . SVG Version: 6.00 Build 0)  -->
<!DOCTYPE svg PUBLIC "-//W3C//DTD SVG 1.1//EN" "http://www.w3.org/Graphics/SVG/1.1/DTD/svg11.dtd">
<svg version="1.1" id="Layer_1" xmlns="http://www.w3.org/2000/svg" xmlns:xlink="http://www.w3.org/1999/xlink" x="0px" y="0px"
	 width="768px" height="430px" viewBox="0 0 768 430" enable-background="new 0 0 768 430" xml:space="preserve">
<g>
	<path fill="#DBDBDB" d="M261.03,91.064c0,0,0.484-15.24-10.887-22.256c-11.369-7.016-22.256-5.323-22.256-5.323
		c1.935,2.419,1.935,2.419,1.935,2.419c-4.113,0-14.272,3.387-18.628,8.952c4.355-0.969,4.355-0.969,4.355-0.969
		c-4.597,3.87-7.983,8.708-7.017,13.305c1.694-0.967,3.871-1.934,3.871-1.934c-3.388,6.774-4.597,11.128-2.418,16.209
		c0.241-1.452,2.66-3.63,2.66-3.63c-0.241,3.63,1.21,10.644,3.871,13.306c-0.241-1.935,0-4.838,0-4.838
		c2.178,4.838,6.29,8.708,9.193,9.919c-0.484-2.419-0.967-3.63-0.967-3.63c4.354,3.63,13.547,6.772,20.078,3.63
		C251.354,113.08,261.03,91.064,261.03,91.064z"/>
	<path fill="#EFEFEF" d="M261.03,91.064c0,0,0.484-15.24-10.887-22.256c-11.369-7.016-22.256-5.323-22.256-5.323
		c1.935,2.419,1.935,2.419,1.935,2.419c-4.113,0-14.272,3.387-18.628,8.952c4.355-0.969,4.355-0.969,4.355-0.969
		c-4.597,3.87-7.983,8.708-7.017,13.305c1.694-0.967,3.871-1.934,3.871-1.934c-3.388,6.774-4.597,11.128-2.418,16.209
		c0.241-1.452,2.66-3.63,2.66-3.63c-0.241,3.63,0,6.412,2.663,9.072c-0.244-1.934,0.482-6.351,0.482-6.351
		c2.177,4.838,5.021,11.793,7.923,13.004c-0.484-2.419-1.392-5.323-1.392-5.323c4.355,3.63,15.543,9.254,22.075,6.109
		C250.931,111.204,261.03,91.064,261.03,91.064z"/>
	<path fill="#F7F7F7" d="M261.03,91.064c0,0,0.484-15.24-10.887-22.256c-11.369-7.016-22.256-5.323-22.256-5.323
		c1.935,2.419,1.935,2.419,1.935,2.419c-4.113,0-14.272,3.387-18.628,8.952c4.355-0.969,4.355-0.969,4.355-0.969
		c-4.597,3.87-7.983,8.708-7.017,13.305c1.694-0.967,3.871-1.934,3.871-1.934c-3.388,6.774-4.597,11.128-2.418,16.209
		c0.241-1.452,4.143-8.135,4.143-8.135c-0.242,3.628-2.299,8.316,0.362,10.976c-0.243-1.934,0.726-10.253,0.726-10.253
		c2.178,4.838,3.539,15.029,6.44,16.239c-0.482-2.419-0.643-5.44-0.643-5.44c4.354,3.628,14.139,10.766,20.67,7.62
		C248.217,109.329,261.03,91.064,261.03,91.064z"/>
	<path fill="#A8A0A3" d="M238.687,117.878L238.687,117.878c-5.097,0-10.11-2.048-13.235-4.279c0.174,0.606,0.394,1.456,0.613,2.553
		l0.133,0.669l-0.628-0.262c-2.707-1.13-6.431-4.46-8.769-8.855c-0.039,0.996-0.055,2.349,0.077,3.395l0.132,1.048l-0.748-0.746
		c-2.58-2.58-3.995-8.843-4.004-12.679c-0.767,0.787-1.777,1.985-1.915,2.804l-0.202,1.223l-0.489-1.14
		c-2.155-5.028-1.011-9.44,1.975-15.592c-0.784,0.371-1.936,0.935-2.912,1.492l-0.434,0.248l-0.102-0.489
		c-0.823-3.906,1.324-8.387,6.064-12.717l-3.959,0.878l0.624-0.798c4.173-5.332,13.648-8.708,18.184-9.059l-1.879-2.348l0.619-0.097
		c0.049-0.006,1.204-0.185,3.159-0.185c3.863,0,11.51,0.722,19.345,5.558c11.418,7.045,11.062,22.422,11.059,22.576l-0.031,0.135
		c-0.396,0.904-9.805,22.174-16.383,25.342C243.15,117.431,241.033,117.878,238.687,117.878z M223.875,111.401l1.099,0.914
		c2.794,2.33,8.277,4.836,13.713,4.836c2.236,0,4.249-0.421,5.978-1.255c6.163-2.967,15.411-23.577,16.005-24.912
		c0.012-1.113-0.045-15.285-10.717-21.869c-7.68-4.738-15.177-5.448-18.963-5.448c-1.062,0-1.887,0.055-2.409,0.104l1.995,2.497
		h-0.754c-3.833,0-13.067,3.015-17.651,7.999l4.743-1.052l-1.131,0.951c-2.956,2.49-7.701,7.356-6.979,12.462
		c1.604-0.876,3.434-1.691,3.454-1.701l0.925-0.41l-0.453,0.904c-3.106,6.213-4.42,10.361-2.75,15.043
		c0.746-1.375,2.34-2.82,2.423-2.896l0.665-0.598l-0.058,0.893c-0.209,3.128,0.906,9.128,3.058,12.174
		c-0.075-1.758,0.081-3.665,0.088-3.762l0.116-1.398l0.577,1.279c1.991,4.423,5.638,8.005,8.357,9.429
		c-0.416-1.882-0.797-2.843-0.801-2.855L223.875,111.401z"/>
	<path fill="#CCCCCC" d="M247.965,98.141c0,0-1.413-18.791-17.417-21.411c-10.704,4.719-18.144,33.387,8.709,34.655
		C245.97,104.308,247.965,98.141,247.965,98.141z"/>
	<path fill="#DBDBDB" d="M247.965,98.141c0,0-0.687-14.255-16.692-16.875c-10.705,4.719-18.869,28.851,7.983,30.119
		C245.97,104.308,247.965,98.141,247.965,98.141z"/>
	<path fill="#E8E8E8" d="M247.965,98.141c0,0,0.039-10.265-15.965-12.882c-10.706,4.716-19.596,24.857,7.257,26.126
		C245.97,104.308,247.965,98.141,247.965,98.141z"/>
	<path fill="#AAA9A9" d="M239.405,111.756l-0.164-0.008c-14.046-0.665-17.605-8.624-18.477-13.31
		c-1.574-8.454,3.111-19.166,9.637-22.041l0.097-0.042l0.108,0.016c16.1,2.636,17.708,21.552,17.722,21.743l0.004,0.071l-0.02,0.067
		c-0.083,0.255-2.099,6.329-8.792,13.383L239.405,111.756z M230.597,77.107c-5.59,2.548-10.773,12.308-9.119,21.199
		c1.43,7.683,7.687,12.192,17.63,12.708c6.112-6.485,8.249-12.235,8.49-12.919C247.478,96.832,245.534,79.632,230.597,77.107z"/>
	<path fill="#AAA9A9" d="M221.014,79.212c0,0,5.158-4.181,11.611-2.404l-0.193,0.699C226.305,75.822,221.065,79.178,221.014,79.212z
		"/>
	<path fill="#DBDBDB" d="M303.368,284.573c0,0,6.531,46.223,5.564,49.978c-0.969,3.755-25.887-0.356-21.05,21.421
		c-1.487,4.712,8.227,7.495,12.099,4.712c3.266,4.599,30.118,6.173,37.256-7.259c7.136-13.423,9.313-30.48,9.313-30.48
		S339.536,289.756,303.368,284.573z"/>
	<path fill="#EFEFEF" d="M303.368,284.573c0,0,6.531,46.223,5.564,49.978c-0.969,3.755-25.887-0.356-21.05,21.421
		c-1.487,4.712,8.227,7.495,12.099,4.712c3.266,4.599,21.188,0.009,30.723-21.696c6.118-13.917,4.514-33.1,4.514-33.1
		S339.536,289.756,303.368,284.573z"/>
	<path fill="#F7F7F7" d="M303.368,284.573c0,0,6.531,46.223,5.564,49.978c-0.969,3.755-23.173,0-19.579,17.788
		c-1.489,4.719,7.841,6.479,11.711,3.697c3.267,4.6,16.957,0.219,26.494-21.485c6.117-13.926,5.564-32.045,5.564-32.045
		S339.536,289.756,303.368,284.573z"/>
	<path fill="#A8A0A3" d="M313.209,364.351h-0.002c-6.22,0-11.568-1.29-13.301-3.181c-1.045,0.649-2.449,0.99-4.083,0.99
		c-3.202,0-6.382-1.289-7.731-3.131c-0.693-0.94-0.893-2.004-0.583-3.073c-1.131-5.168-0.675-9.359,1.36-12.466
		c3.269-5.006,9.823-6.286,14.611-7.228c2.62-0.52,4.883-0.957,5.099-1.8c0.753-2.92-3.315-33.871-5.571-49.833l-0.067-0.479
		l0.479,0.064c36,5.15,43.414,38.323,43.484,38.656l0.014,0.057l-0.007,0.064c-0.023,0.171-2.27,17.275-9.354,30.603
		C332.252,363.58,317.579,364.351,313.209,364.351z M300.065,360.182l0.21,0.292c1.297,1.824,6.736,3.154,12.931,3.154
		c8.798,0,19.643-2.725,23.709-10.373c6.807-12.808,9.111-29.15,9.265-30.293c-0.361-1.566-8.02-32.76-42.387-37.959
		c0.73,5.199,6.42,46.02,5.488,49.637c-0.333,1.282-2.565,1.729-5.663,2.337c-4.659,0.908-11.043,2.166-14.144,6.909
		c-1.935,2.953-2.352,6.993-1.238,12.005l0.021,0.098l-0.028,0.088c-0.281,0.885-0.131,1.736,0.447,2.523
		c1.202,1.639,4.208,2.83,7.146,2.83c1.609,0,3.011-0.364,3.943-1.037L300.065,360.182z"/>
	<path fill="#A8A0A3" d="M288.239,356.036l-0.711-0.139c1.964-10.316,9.935-10.812,10.014-10.818
		C297.542,345.079,290.096,346.296,288.239,356.036z"/>
	<path fill="#A8A0A3" d="M299.616,360.692c-0.248-10.989,10.285-11.493,10.391-11.501c0,0-9.896,1.217-9.664,11.483L299.616,360.692
		z"/>
	<path fill="#DBDBDB" d="M440.654,351.252c0,0,1.006,10.341-17.547,13.609c-18.554,3.261-25.635,0.907-27.265-2.182
		c-4.539,0.907-14.698-3.626-7.984-11.428c3.264-7.438,5.806-9.077,14.878-9.254c-5.985-3.991-9.254-16.515-9.254-16.515
		C406.184,319.677,434.489,318.589,440.654,351.252z"/>
	<path fill="#EFEFEF" d="M422.032,346.296c-8.159-0.543-15.103-2.589-19.653-4.291c-8.771,0.219-11.298,1.906-14.521,9.247
		c-6.713,7.802,3.445,12.335,7.984,11.428c1.168,2.214,5.125,4.047,14.093,3.715C423.224,361.997,425.913,350.991,422.032,346.296z"
		/>
	<path fill="#F7F7F7" d="M419.489,347.698c-8.155-0.534-13.964-3.933-18.513-5.637c-8.776,0.219-9.896,1.85-13.118,9.19
		c-6.713,7.802,3.928,9.683,8.463,8.774c1.167,2.215,2.474,4.657,11.436,4.324C421.046,359.954,423.37,352.402,419.489,347.698z"/>
	<path fill="#A8A0A3" d="M407.892,366.8c-8.14,0-11.162-1.972-12.236-3.715c-0.336,0.048-0.697,0.072-1.073,0.072
		c-3.266,0-7.463-1.8-8.846-4.809c-0.705-1.533-0.962-4.047,1.809-7.292c3.2-7.268,5.824-9.1,14.137-9.394
		c-5.482-4.532-8.422-15.595-8.548-16.082l-0.081-0.3l0.279-0.122c4.457-2.044,10.118-3.212,15.524-3.212
		c8.01,0,27.175,2.847,32.155,29.239c0.016,0.138,0.825,10.747-17.845,14.03C417.218,366.264,412.08,366.8,407.892,366.8z
		 M396.037,362.273l0.122,0.235c0.705,1.331,3.163,3.561,11.732,3.561c4.144,0,9.241-0.527,15.153-1.564
		c17.967-3.163,17.26-13.115,17.252-13.222c-4.704-24.892-21.72-28.606-31.44-28.606c-5.196,0-10.616,1.096-14.944,3.009
		c0.544,1.906,3.727,12.475,9.027,16.012l0.962,0.64l-1.156,0.025c-8.887,0.178-11.332,1.695-14.555,9.034l-0.057,0.09
		c-2.056,2.386-2.642,4.599-1.739,6.562c1.248,2.709,5.219,4.388,8.188,4.388c0.433,0,0.831-0.04,1.188-0.112L396.037,362.273z"/>
	<path fill="#A8A0A3" d="M395.736,363.191c-1.815-5.144,5.783-10.853,5.783-10.853c-0.065,0.063-6.749,5.937-5.094,10.608
		L395.736,363.191z"/>
	<path fill="#A8A0A3" d="M387.812,351.867l-0.527-0.494c2.551-2.677,9.369-3.675,9.369-3.675
		C396.592,347.716,390.219,349.353,387.812,351.867z"/>
	<path fill="#DBDBDB" d="M511.857,234.451c-7.088,8.528-19.748,9.695-28.273,2.604c-8.529-7.089-9.696-19.748-2.608-28.276
		c7.094-8.526,19.751-9.694,28.278-2.603C517.782,213.261,518.947,225.922,511.857,234.451z"/>
	<path fill="#EFEFEF" d="M483.584,237.055c-8.529-7.089-9.696-19.748-2.608-28.276c7.094-8.526,19.751-9.694,28.278-2.603
		C517.782,213.261,492.109,244.146,483.584,237.055z"/>
	<path fill="#F7F7F7" d="M482.812,233.632c-8.523-7.089-8.925-16.325-1.837-24.854c7.094-8.526,17.018-9.467,25.545-2.376
		C515.046,213.488,491.346,240.721,482.812,233.632z"/>
	<path fill="#A8A0A3" d="M496.42,242.059c-11.271,0-20.444-9.173-20.444-20.442c0-11.272,9.173-20.444,20.444-20.444
		c11.269,0,20.441,9.172,20.441,20.444C516.861,232.886,507.688,242.059,496.42,242.059z M496.42,201.898
		c-10.874,0-19.717,8.845-19.717,19.718c0,10.872,8.843,19.717,19.717,19.717c10.871,0,19.717-8.845,19.717-19.717
		C516.137,210.744,507.291,201.898,496.42,201.898z"/>
	<path fill="#DBDBDB" d="M359.492,196.3c0,0,25.645,5.096,35.563,10.048c12.579-4.968,52.22-9.729,79.833,10.758
		c33.145,24.588,21.283,68.992,21.283,68.992c-14.031-9.189-54.959,40.838-68.118,44.715c-13.159,3.868-82.835,11.85-112.349-21.048
		c-29.515-32.905-8.301-69.098-29.31-91.038C315.219,207.428,359.492,196.3,359.492,196.3z"/>
	<path fill="#EFEFEF" d="M471.863,218.254c-27.612-20.486-64.229-16.875-76.808-11.906c-0.454-0.228-0.956-0.456-1.477-0.684
		c-18.739,16.012-44.436,21.459-70.133,23.296c-9.471,0.791-19.584,1.586-28.709,4.708c6.156,21.526-2.569,49.858,20.969,76.097
		c29.514,32.897,103.362,8.468,116.521,4.591c13.164-3.869,38.916-21.785,52.704-28.785
		C484.931,285.57,505.009,242.841,471.863,218.254z"/>
	<path fill="#F7F7F7" d="M466.058,223.193c-27.609-20.485-52.98-18.436-65.56-13.47c-0.455-0.228-1.265-1.633-1.784-1.86
		c-18.745,16.013-46.909,24.235-72.605,26.068c-9.473,0.791-20.73,3.694-29.856,6.817c3.762,20.386-4.084,42.777,19.453,69.016
		c29.514,32.897,102.863,4.348,116.026,0.479c13.155-3.868,27.431-15.126,41.22-22.134
		C472.951,288.109,499.206,247.781,466.058,223.193z"/>
	<path fill="#A8A0A3" d="M391.498,334.908c-20.062,0-56.624-3.236-76.063-24.9c-16.076-17.924-17.19-36.993-18.173-53.812
		c-0.82-14.02-1.595-27.261-11.128-37.219l-0.375-0.391l0.504-0.197c28.518-11.177,72.699-22.331,73.141-22.44l0.082-0.02
		l0.078,0.016c0.256,0.049,25.557,5.111,35.509,10.006c5.118-1.985,15.639-4.272,28.737-4.272c14.097,0,34.438,2.626,51.299,15.135
		c17.229,12.782,22.135,30.97,23.215,43.98c1.167,14.069-1.771,25.286-1.802,25.4l-0.129,0.479l-0.423-0.275
		c-1.078-0.706-2.376-1.063-3.865-1.063c-9.655,0-25.795,14.526-40.029,27.35c-10.131,9.116-18.883,16.992-23.92,18.476
		C423.022,332.67,409.03,334.908,391.498,334.908z M287.03,218.87c9.365,10.1,10.138,23.311,10.955,37.28
		c0.978,16.703,2.083,35.633,17.99,53.371c19.253,21.462,55.584,24.665,75.524,24.665c17.328,0,31.556-2.288,36.455-3.724
		c4.874-1.436,13.986-9.636,23.635-18.321c14.335-12.904,30.585-27.528,40.516-27.528c1.441,0,2.722,0.309,3.833,0.917
		c0.536-2.255,2.685-12.369,1.659-24.699c-1.075-12.852-5.918-30.817-22.927-43.436c-16.698-12.388-36.873-14.99-50.86-14.99
		c-13.127,0-23.619,2.305-28.619,4.28l-0.149,0.058l-0.147-0.072c-9.488-4.736-33.801-9.681-35.39-9.999
		C357.379,197.208,314.938,208,287.03,218.87z"/>
	<path fill="#A8A0A3" d="M409.613,214.985c-0.113-0.075-11.442-7.537-18.225-9.835l0.229-0.687
		C398.494,206.791,409.613,214.985,409.613,214.985z"/>
	<path fill="#DBDBDB" d="M496.787,283.251l-67.379,14.656c-16.695,34.835,5.686,58.3,11.488,62.654
		c0.608,2.539-7.376,5.687-11.128,8.226c-3.746,2.546-8.345,9.683-6.046,13.796c0.971,3.146,3.629,5.686,8.469,6.043
		c4.354,5.319,20.924,6.294,36.168,1.451c15.24-4.834,14.394-12.701,7.982-27.576c-6.416-14.876-4.112-26.854,7.136-45.363
		C494.728,298.637,496.787,283.251,496.787,283.251z"/>
	<path fill="#EFEFEF" d="M472.229,313.147c11.248-18.509,12.701-27.577,12.701-27.577l-55.522,12.337
		c-16.695,34.835,5.686,58.3,11.488,62.654c0.608,2.539-7.376,5.687-11.128,8.226c-3.746,2.546-8.345,9.683-6.046,13.796
		c0.971,3.146,3.629,5.686,8.469,6.043c4.354,5.319,17.686,2.376,32.778-2.905c10.407-3.633,10.041-10.153,3.63-25.037
		C462.188,345.81,460.979,331.655,472.229,313.147z"/>
	<path fill="#F7F7F7" d="M460.798,311.882c11.248-18.509,12.153-23.772,12.153-23.772l-43.543,9.798
		c-16.695,34.835,5.686,58.3,11.488,62.654c0.608,2.539-7.376,5.687-11.128,8.226c-3.746,2.546-8.345,9.683-6.046,13.796
		c0.971,3.146,3.629,5.686,8.469,6.043c4.354,5.319,15.871-0.934,30.961-6.213c10.406-3.634,6.416-9.765,0-24.648
		C456.745,342.889,449.548,330.382,460.798,311.882z"/>
	<path fill="#A8A0A3" d="M448.586,393.557c-7.648,0-13.975-1.564-16.579-4.583c-5.943-0.502-7.952-4.104-8.62-6.253
		c-2.292-4.186,2.156-11.508,6.181-14.234c1.119-0.753,2.578-1.549,4.119-2.385c3.135-1.71,7.016-3.819,6.878-5.336
		c-7.737-5.881-23.428-25.663-15.247-53.336c1.37-4.624,4.42-9.369,4.42-9.369c-15.523,32.395,2.952,55.891,11.379,62.21
		l0.105,0.081l0.032,0.129c0.486,2.062-3.257,4.097-7.223,6.254c-1.523,0.836-2.965,1.614-4.059,2.353
		c-3.812,2.587-8.082,9.474-5.934,13.317l0.028,0.065c1.055,3.423,3.949,5.482,8.152,5.799l0.153,0.009l0.098,0.12
		c4.392,5.369,21.111,5.993,35.775,1.339c6.141-1.947,9.701-4.396,11.209-7.705c2.101-4.606,0.235-10.828-3.447-19.385
		c-6.317-14.655-4.445-26.611,7.158-45.695c11.075-18.225,13.245-33.595,13.266-33.749l0.722,0.098
		c-0.024,0.153-2.206,15.67-13.366,34.032c-11.457,18.85-13.318,30.626-7.113,45.022c3.763,8.743,5.652,15.127,3.439,19.977
		c-1.599,3.505-5.301,6.084-11.647,8.095C461.839,392.525,454.783,393.557,448.586,393.557z"/>
	<path fill="#A8A0A3" d="M432.349,389.299c-3.536-8.403,9.278-13.772,9.278-13.772c-0.117,0.057-11.878,5.727-8.614,13.488
		L432.349,389.299z"/>
	<path fill="#A8A0A3" d="M424.085,382.592l-0.724-0.025c0.31-7.363,8.865-10.755,8.865-10.755
		C432.15,371.844,424.376,375.673,424.085,382.592z"/>
	<path fill="#DBDBDB" d="M392.059,303.349l-60.628-10.526c9.918,10.405,20.079,63.871,10.159,65.809
		c-9.918,1.931-19.595,10.399-19.835,18.403c-3.872,6.06,5.322,11.834,11.613,10.382c16.209,7.746,39.678,0,42.577-10.382
		c2.903-10.389-3.144-10.908,7.016-27.551C393.118,332.84,392.059,303.349,392.059,303.349z"/>
	<path fill="#EFEFEF" d="M392.059,303.349l-60.628-10.526c9.918,10.405,20.079,63.871,10.159,65.809
		c-9.918,1.931-15.242,5.72-15.665,13.181c-3.872,6.06,0.398,11.137,6.687,9.684c16.209,7.746,36.798,2.328,39.703-8.062
		c2.903-10.38-4.599-6.997,5.564-23.65C388.04,333.14,392.059,303.349,392.059,303.349z"/>
	<path fill="#F7F7F7" d="M392.059,303.349l-60.628-10.526c9.918,10.405,20.079,63.871,10.159,65.809
		c-9.918,1.931-13.787,5.72-13.629,11.616c-3.87,6.066,0.47,8.768,6.761,7.316c16.209,7.736,30.458,4.63,33.359-5.752
		c2.903-10.391-3.264-8.816,6.894-25.459C385.137,329.709,392.059,303.349,392.059,303.349z"/>
	<path fill="#A8A0A3" d="M348.186,390.904c-5.051,0-10.219-0.908-14.862-3.106c-4.05,0.868-9.374-1.135-11.693-4.42
		c-1.458-2.06-1.54-4.356-0.235-6.457c0.313-7.915,9.686-16.61,20.125-18.646c1.206-0.234,2.143-1.379,2.783-3.391
		c3.964-12.457-4.628-52.891-13.134-61.812c0,0,4.206,4.29,7.197,12.409c5.852,15.889,9.569,40.391,6.628,49.622
		c-0.729,2.285-1.849,3.592-3.336,3.884c-10.179,1.987-19.311,10.423-19.542,18.055l-0.004,0.098l-0.053,0.088
		c-1.526,2.386-0.753,4.438,0.163,5.736c2.189,3.097,7.254,4.979,11.062,4.104l0.122-0.032l0.115,0.057
		c10.338,4.939,23.373,3.325,31.704-0.454c5.571-2.53,9.351-6.068,10.368-9.709c1.019-3.65,0.921-6.067,0.82-8.412
		c-0.184-4.329-0.357-8.417,6.232-19.222c9.993-16.358,9.059-45.639,9.052-45.931c0,0,2.392,27.926-8.428,46.312
		c-6.31,10.715-6.31,14.592-6.131,18.809c0.097,2.4,0.203,4.883-0.844,8.646c-1.078,3.837-5,7.544-10.767,10.162
		C360.802,389.444,354.587,390.904,348.186,390.904z"/>
	<path fill="#A8A0A3" d="M333.057,387.61c-1.28-2.051-1.667-4.169-1.149-6.292c1.144-4.688,6.844-7.26,6.844-7.26
		c-0.051,0.032-5.069,3.05-6.141,7.437c-0.468,1.924-0.111,3.854,1.061,5.735L333.057,387.61z"/>
	<path fill="#A8A0A3" d="M321.858,377.563l-0.689-0.229c3.911-7.332,8.531-7.583,8.531-7.583
		C329.243,369.776,324.448,372.119,321.858,377.563z"/>
	<path fill="#DBDBDB" d="M232.618,166.375c0,0-6.174-47.441,15.066-70.675c26.743-29.251,91.456-25.842,112.502-5.229
		c21.048,20.611,16.332,40.932,22.5,49.642c6.169,8.709,19.961,42.457-9.433,64.231c-29.395,21.773-64.596,17.417-83.466,23.588
		c-9.072,7.982-31.751,8.931-35.743-5.988c-3.992-14.918-10.506-24.375-19.253-31.873
		C226.043,182.57,232.618,166.375,232.618,166.375z"/>
	<path fill="#EFEFEF" d="M232.618,166.375c0,0-6.174-47.441,15.066-70.675c26.743-29.251,91.456-25.842,112.502-5.229
		c21.048,20.611,13.701,40.963,19.867,49.671c6.169,8.711,14.88,38.06-14.513,59.833c-29.394,21.773-52.798,13.654-71.67,19.824
		c-9.072,7.983-35.833,17.062-39.825,2.144c-3.992-14.918-10.506-24.375-19.253-31.873
		C226.043,182.57,232.618,166.375,232.618,166.375z"/>
	<path fill="#F7F7F7" d="M300.818,183.75c0.036-0.142,0.073-0.284,0.106-0.423C300.824,183.46,300.776,183.604,300.818,183.75z"/>
	<path fill="#F7F7F7" d="M374.973,137.717c-6.163-8.709,6.262-26.634-14.786-47.245c-21.046-20.613-85.759-24.022-112.502,5.229
		c-21.24,23.233-15.066,70.675-15.066,70.675s-6.575,16.195,2.174,23.696c8.747,7.498,15.261,16.955,19.253,31.873
		c3.992,14.919,31.111,2.781,40.183-5.201c18.87-6.17,35.871,1.33,65.265-20.443C388.884,174.527,381.145,146.425,374.973,137.717z
		 M300.818,183.75l0.129,0.211L300.818,183.75c-4.354,17.44-10.955,44.469-31.079,43.032c-15.24-0.726-14.514-23.225-22.5-34.838
		C264.66,185.413,300.854,183.609,300.818,183.75z"/>
	<path fill="#A8A0A3" d="M272.404,233.932c-9.77,0-16.798-4.469-18.801-11.955c-3.67-13.715-9.573-23.491-19.139-31.69
		c-8.604-7.376-2.877-22.576-2.308-24.018c-0.29-2.407-5.487-48.279,15.169-70.872c12.456-13.625,34.278-21.438,59.871-21.438
		c22.588,0,42.958,6.205,53.155,16.193c13.998,13.708,16.69,27.417,18.653,37.426c0.99,5.032,1.842,9.38,3.886,12.266
		c5.661,7.991,20.639,42.398-9.514,64.731c-20.152,14.927-43.06,17.626-61.467,19.794c-8.633,1.017-16.092,1.895-22.027,3.824
		C285.817,231.733,279.128,233.932,272.404,233.932z M307.196,74.683c-25.391,0-47.017,7.729-59.335,21.203
		c-20.879,22.84-15.035,69.91-14.973,70.383l0.013,0.095l-0.037,0.089c-0.065,0.158-6.375,16.04,2.072,23.281
		c9.684,8.302,15.658,18.188,19.369,32.056c1.914,7.149,8.68,11.416,18.099,11.416c6.587,0,13.123-2.149,17.055-5.607l0.127-0.072
		c6.017-1.967,13.532-2.854,22.236-3.879c18.324-2.158,41.125-4.845,61.124-19.657c29.677-21.982,14.928-55.858,9.352-63.727
		c-2.134-3.014-3-7.432-4.007-12.546c-1.943-9.915-4.607-23.496-18.447-37.047C349.927,80.958,329.262,74.683,307.196,74.683z"/>
	<ellipse fill="#E0DEDF" cx="309.293" cy="141.263" rx="11.25" ry="19.232"/>
	<path fill="#A8A0A3" d="M303.124,148.401c8.905,5.762,14.031,0.557,17.284-6.333c0.088-0.971,0.134-1.967,0.134-2.983
		c0-10.62-5.037-19.232-11.25-19.232c-6.212,0-11.25,8.612-11.25,19.232c0,0.937,0.042,1.857,0.118,2.76
		C299.257,144.436,300.684,146.772,303.124,148.401z"/>
	<path fill="#F7F7F7" d="M303.124,150.576c8.905,5.762,14.031,0.56,17.284-6.33c0.088-0.972,0.134-1.97,0.134-2.983
		c0-10.621-5.037-19.232-11.25-19.232c-6.212,0-11.25,8.611-11.25,19.232c0,0.936,0.042,1.857,0.118,2.757
		C299.257,146.614,300.684,148.95,303.124,150.576z"/>
	<path fill="#A8A0A3" d="M309.292,160.858c-6.4,0-11.612-8.79-11.612-19.595c0-10.806,5.212-19.596,11.612-19.596
		c6.404,0,11.612,8.79,11.612,19.596C320.905,152.068,315.696,160.858,309.292,160.858z M309.292,122.393
		c-6.002,0-10.886,8.465-10.886,18.87c0,10.406,4.883,18.869,10.886,18.869c6.004,0,10.888-8.463,10.888-18.869
		C320.18,130.858,315.297,122.393,309.292,122.393z"/>
	<path fill="#F7F7F7" d="M323.93,158.317c-13.064-7.014-28.306,0-28.306,0s5.478,6.775,15.076,7.138
		C320.302,165.818,323.93,158.317,323.93,158.317z"/>
	<path fill="#A8A0A3" d="M295.776,158.648c0,0,4.289-2.729,10.475-3.498c3.31-0.411,7.101-0.46,10.95,0.351
		c2.309,0.487,6.558,3.138,6.558,3.138C311.008,151.792,295.928,158.579,295.776,158.648z"/>
	
		<ellipse transform="matrix(0.9751 0.2216 -0.2216 0.9751 36.9498 -51.497)" fill="#E0DEDF" cx="247.966" cy="138.914" rx="10.403" ry="18.145"/>
	<path fill="#A8A0A3" d="M252.712,119.044c-5.556-1.262-11.835,5.503-14.106,15.145c1.513,7.827,4.462,15.118,16.1,14.567
		c1.804-2.608,1.306-6.073,2.161-9.841C259.088,129.144,258.315,120.316,252.712,119.044z"/>
	<path fill="#F7F7F7" d="M251.987,121.221c-5.556-1.261-11.836,5.503-14.107,15.143c1.513,7.829,4.463,15.12,16.102,14.568
		c1.803-2.607,3.272-5.945,4.128-9.713C260.333,131.449,257.59,122.495,251.987,121.221z"/>
	<path fill="#A8A0A3" d="M245.304,157.123c-0.484,0-0.97-0.055-1.438-0.16c-2.843-0.647-5.067-3.153-6.264-7.061
		c-1.174-3.838-1.222-8.587-0.135-13.375c2.05-9.02,7.708-15.822,13.161-15.822c0.487,0,0.97,0.055,1.44,0.162
		c2.84,0.646,5.064,3.153,6.261,7.061c1.176,3.837,1.223,8.585,0.135,13.373C256.415,150.321,250.758,157.123,245.304,157.123z
		 M250.628,121.432c-5.122,0-10.477,6.56-12.452,15.258c-1.06,4.666-1.018,9.281,0.122,12.999c1.116,3.648,3.15,5.98,5.729,6.564
		c0.417,0.095,0.845,0.144,1.277,0.144c5.124,0,10.477-6.56,12.454-15.258c1.061-4.664,1.016-9.281-0.122-13
		c-1.118-3.646-3.152-5.978-5.73-6.564C251.49,121.481,251.061,121.432,250.628,121.432z"/>
	
		<ellipse transform="matrix(0.9759 0.218 -0.218 0.9759 36.8928 -50.916)" fill="#0393F9" cx="249.198" cy="141.74" rx="6.6" ry="10.74"/>
	<path fill="#035EFF" d="M247.763,152.685c-0.333,0-0.663-0.036-0.986-0.107c-1.847-0.414-3.315-1.949-4.132-4.324
		c-0.797-2.313-0.882-5.166-0.244-8.031c1.201-5.373,4.739-9.427,8.231-9.427c0.333,0,0.663,0.037,0.985,0.107
		c1.848,0.414,3.316,1.949,4.133,4.323c0.797,2.313,0.882,5.167,0.243,8.032C254.792,148.631,251.255,152.685,247.763,152.685z
		 M250.632,131.522c-3.159,0-6.393,3.807-7.521,8.858c-0.612,2.735-0.533,5.448,0.221,7.636c0.732,2.128,2.012,3.496,3.603,3.853
		c0.27,0.059,0.548,0.089,0.828,0.089c3.161,0,6.393-3.809,7.523-8.859c0.61-2.736,0.531-5.449-0.221-7.636
		c-0.732-2.13-2.014-3.497-3.605-3.854C251.19,131.552,250.912,131.522,250.632,131.522z"/>
	<ellipse transform="matrix(0.976 0.2179 -0.2179 0.976 36.866 -50.8865)" cx="249.198" cy="141.74" rx="4.956" ry="8.067"/>
	<path fill="#F7F7F7" d="M256.007,119.557c0,0,3.838,25.293-14.324,36.825c0,0,23.907,1.853,24.27-13.57
		C266.316,127.392,256.007,119.557,256.007,119.557z"/>
	<path fill="#A8A0A3" d="M242.155,157.037l-0.471-0.554c18.22-15.483,14.3-32.974,14.247-33.152c0,0,1.713,3.306,0.509,10.735
		C255.377,140.623,251.632,148.982,242.155,157.037z"/>
	<path fill="#A8A0A3" d="M246.104,110.294c0,0,0.684-7.798,6.309-12.21c4.58-3.592,9.706,0.237,9.706,0.237
		C253.001,98.321,246.173,110.174,246.104,110.294z"/>
	<path fill="#A8A0A3" d="M326.93,117.675c-6.375-12.967-18.865-16.068-18.99-16.098c0,0,6.639-3.609,10.546-1.306
		C326.918,105.239,326.93,117.675,326.93,117.675z"/>
	<path fill="#420003" d="M299.664,183.236c0,0-8.697,22.083-12.702,29.576c-6.351,11.882-20.502,18.87-26.49,5.805
		c-5.987-13.063-3.447-17.598-12.518-25.945C238.882,184.325,299.664,183.236,299.664,183.236z"/>
	<path fill="#570003" d="M247.954,192.671c9.071,8.348,6.531,12.882,12.518,25.945c3.672,8.016,10.418,8.477,16.551,4.897
		c-5.794-10.832-1.826-25.658,8.684-31.569c3.63-2.016,7.709-3.357,11.987-3.779c1.192-2.956,1.97-4.929,1.97-4.929
		S238.882,184.325,247.954,192.671z"/>
	<path fill="#6A0003" d="M273.368,202.831c2.489-10.578,14.581-19.545,25.757-18.231c0.341-0.864,0.539-1.364,0.539-1.364
		s-60.782,1.089-51.71,9.435c9.071,8.348,6.531,12.882,12.518,25.945c3.735,8.15,10.648,8.495,16.86,4.72
		C272.837,217.704,271.509,210.271,273.368,202.831z"/>
	<path fill="#ED5A84" d="M286.977,212.812c1.353-2.53,3.239-6.726,5.148-11.172c-5.979-0.597-12.015,1.588-16.096,5.185
		c-9.034-1.163-13.799,6.672-15.786,11.249c0.082,0.183,0.159,0.358,0.243,0.543C266.472,231.682,280.626,224.693,286.977,212.812z"
		/>
	<path fill="#F97A98" d="M286.977,212.812c1.353-2.53,1.332-2.279,3.239-6.726c-5.976-0.596-12.258,0.636-16.34,4.231
		c-9.034-1.161-11.646,3.179-13.633,7.756c0.082,0.183,0.159,0.358,0.243,0.543C266.472,231.682,280.626,224.693,286.977,212.812z"
		/>
	<path fill="#D33368" d="M269.986,226.018L269.986,226.018c-2.969,0-7.085-1.257-9.831-7.249l-0.31-0.691l0.065-0.147
		c1.877-4.327,6.241-11.586,14.341-11.586c0.543,0,1.101,0.034,1.661,0.1c4.312-3.733,10.56-5.731,16.246-5.165l0.493,0.048
		l-0.194,0.457c-2.228,5.188-3.962,8.958-5.161,11.199C283.195,220.657,276.075,226.018,269.986,226.018z M260.639,218.073
		l0.177,0.394c2.048,4.465,5.219,6.825,9.171,6.825c5.833,0.002,12.687-5.201,16.67-12.653c1.153-2.155,2.811-5.749,4.935-10.682
		c-5.442-0.401-11.276,1.575-15.321,5.138l-0.124,0.11l-0.164-0.022c-0.582-0.075-1.165-0.114-1.73-0.114
		C266.655,207.069,262.482,213.895,260.639,218.073z"/>
	<path fill="#D33368" d="M271.809,214.587c0.071-0.27,1.807-6.625,4.581-8.538l0.412,0.597
		C274.249,208.407,271.809,214.587,271.809,214.587z"/>
	<path fill="#A8A0A3" d="M269.986,226.018c-2.969,0-7.085-1.257-9.831-7.249c-2.204-4.805-3.24-8.4-4.152-11.571
		c-1.57-5.443-2.606-9.036-8.283-14.259c-0.925-0.851-1.237-1.699-0.925-2.521c2.494-6.567,50.37-7.498,52.428-7.534l0.303,0.353
		l0.488,0.134c-0.087,0.221-8.75,22.188-12.717,29.612C283.195,220.657,276.075,226.018,269.986,226.018z M299.139,183.609
		c-14.25,0.284-49.763,2.06-51.664,7.067c-0.074,0.192-0.295,0.778,0.736,1.728c5.828,5.36,6.943,9.233,8.488,14.59
		c0.908,3.15,1.936,6.716,4.116,11.473c2.048,4.465,5.219,6.825,9.171,6.825c5.833,0,12.689-5.201,16.67-12.653
		C290.269,205.881,297.814,186.952,299.139,183.609z"/>
	<path fill="#DBDBDB" d="M267.018,153.843c0,0-21.41-9.435-37.921,9.435c-16.511,18.869,6.531,37.921,21.956,33.566
		c10.341,4.536,31.752,5.625,49.896-12.336L267.018,153.843z"/>
	<path fill="#EFEFEF" d="M267.018,153.843c0,0-22.817-8.624-37.921,9.435c-12.711,15.199-2.533,29.677,12.89,25.321
		c10.344,4.536,40.818,13.869,58.962-4.092L267.018,153.843z"/>
	<path fill="#F7F7F7" d="M267.018,153.843c0,0-22.817-8.624-37.921,9.435c-12.711,15.199-3.447,25.643,11.976,21.289
		c10.341,4.538,40.799,16.766,58.942-1.197L267.018,153.843z"/>
	<path fill="#A8A0A3" d="M265.964,199.977c-6.244,0-11.505-1.265-14.94-2.748c-8.605,2.35-19.833-2.458-25.086-10.773
		c-4.692-7.423-3.64-15.96,2.885-23.417c10.623-12.142,23.377-12.634,31.17-11.424c4.304,0.671,6.879,2.561,6.879,2.561
		c-0.213-0.093-21.364-9.102-37.501,9.341c-8.624,9.856-5.469,18.359-2.819,22.552c5.118,8.103,16.066,12.778,24.401,10.427
		l0.125-0.034l0.118,0.05c8.896,3.903,30.687,6.36,49.496-12.264l0.511,0.518C289.351,196.499,276.311,199.977,265.964,199.977z"/>
	<ellipse fill="#63220B" cx="237.384" cy="166.315" rx="16.569" ry="11.115"/>
	<path fill="#6D2B11" d="M249.963,166.315c0,3.858-4.126,8.575-13.278,8.575c-9.15,0-15.871-2.436-15.871-8.575
		c0-6.138,7.417-11.114,16.568-11.114C246.534,155.201,249.963,160.178,249.963,166.315z"/>
	<path fill="#7A3016" d="M248.164,166.159c0,3.38-3.617,7.517-11.639,7.517c-8.023,0-13.912-2.135-13.912-7.517
		s6.503-9.743,14.524-9.743S248.164,160.777,248.164,166.159z"/>
	<path fill="#591D07" d="M237.383,177.793c-9.335,0-16.93-5.147-16.93-11.478c0-6.329,7.595-11.478,16.93-11.478
		c9.338,0,16.934,5.148,16.934,11.478C254.316,172.646,246.721,177.793,237.383,177.793z M237.383,155.564
		c-8.936,0-16.205,4.822-16.205,10.751c0,5.929,7.269,10.752,16.205,10.752c8.938,0,16.208-4.823,16.208-10.752
		C253.59,160.386,246.321,155.564,237.383,155.564z"/>
	<path fill="#A8A0A3" d="M305.069,189.842c-3.504-6.833-9.833-7.96-9.897-7.971c0,0,3.515-0.113,6.682,2.65
		C303.232,185.724,305.069,189.842,305.069,189.842z"/>
	<path fill="#DBDBDB" d="M418.342,105.488c-0.094-5.716,0-6.622-3.269-11.429c0,0,1.451-0.092,3.269,0
		c-1.996-3.721-4.538-8.8-9.798-12.513c0,0,1.087,0.083,2.903,0c0,0-1.816-5.722-13.066-6.812c0,0,1.27-1.27,3.812-1.995
		c0,0-5.442-3.086-15.426-1.997c0,0,0.186-0.906,2.359-2.721c-10.519-1.27-18.145,4.898-22.135,11.792
		C363,86.71,356.106,95.236,356.106,95.236l21.289,37.681c0.725-1.937,9.918-1.937,19.595-3.389
		c9.68-1.45,13.548-11.067,15.001-15.06c0,0,1.086,1.815,2.722,3.045c2.63-4.213,2.176-8.851,1.447-13.568
		C416.16,103.946,417.161,105.126,418.342,105.488z"/>
	<path fill="#EFEFEF" d="M416.889,102.405c-0.088-5.716-3.22-6.125-6.488-10.932c0,0,2.588,0.226,4.4,0.316
		c-1.994-3.719-5.414-7.778-10.674-11.491c0,0,2.421-0.036,4.234-0.121c0,0-2.45-3.901-13.7-4.988c0,0,4.989-1.724,7.532-2.45
		c0,0-5.442-3.086-15.426-1.997c0,0,0.186-0.906,2.359-2.721c-10.519-1.27-18.145,4.898-22.135,11.792
		C363,86.71,356.106,95.236,356.106,95.236l21.289,37.681c0.725-1.937,8.407-5.475,18.083-6.927
		c9.674-1.45,13.787-13.411,15.238-17.402c0,0,1.906,5.015,3.541,6.244c2.631-4.211,0.183-11.521-0.544-16.237
		C413.714,98.595,415.71,102.042,416.889,102.405z"/>
	<path fill="#F7F7F7" d="M413.926,97.96c-0.115-2.632-3.752-3.66-7.016-8.468c0,0,3.872,0.998,5.685,1.089
		c-1.995-3.721-7.803-6.57-13.062-10.283c0,0,2.783-1.488,4.595-1.573c0,0-2.599-2.297-13.849-3.386c0,0,9.372-1.875,11.915-2.6
		c0,0-5.442-3.086-15.426-1.997c0,0,0.186-0.906,2.359-2.721c-10.519-1.27-18.145,4.898-22.135,11.792
		C363,86.71,356.106,95.236,356.106,95.236l7.721,39.963c0.727-1.936,21.188-11.717,30.864-13.169
		c9.675-1.453,12.339-17.654,13.792-21.646c0,0,2.355,5.658,3.991,6.888c2.63-4.214-2.423-7.5-3.145-12.217
		C409.33,95.056,412.744,97.597,413.926,97.96z"/>
	<path fill="#A8A0A3" d="M377.734,133.044c0,0-0.521-2.305,9.98-2.782c2.823-0.127,5.999-0.608,9.222-1.093
		c6.542-0.979,11.494-5.968,14.714-14.825l0.26-0.713l0.389,0.65c0.013,0.017,0.932,1.538,2.311,2.691
		c2.329-4.002,1.896-8.421,1.194-12.971l-0.195-1.268l0.831,0.978c0.008,0.008,0.678,0.793,1.529,1.23
		c-0.081-5.18-0.097-6.121-3.196-10.682l-0.357-0.525l0.634-0.041c0.056-0.004,1.168-0.071,2.673-0.027l-0.006-0.01
		c-1.987-3.717-4.455-8.339-9.383-11.817l-1.074-0.758l1.31,0.099c0.007,0.002,0.875,0.065,2.32,0.02
		c-0.715-1.338-3.558-5.237-12.541-6.106l-0.766-0.075l0.543-0.543c0.046-0.047,1.067-1.05,3.078-1.799
		c-1.841-0.771-6.812-2.403-14.396-1.575l-0.491,0.055l0.097-0.486c0.021-0.096,0.22-0.889,1.847-2.375
		c-8.477-0.698-16.278,3.624-20.951,11.7c-3.962,6.839-10.853,15.383-10.921,15.468c0,0,6.36-9.041,10.292-15.832
		c4.977-8.595,13.38-13.073,22.493-11.974l0.834,0.102l-0.644,0.537c-1.112,0.925-1.676,1.598-1.964,2.016
		c9.555-0.886,14.754,1.983,14.974,2.108l0.755,0.426l-0.837,0.239c-1.395,0.397-2.392,0.969-2.993,1.381
		c10.576,1.301,12.419,6.73,12.491,6.967l0.146,0.45l-0.471,0.023c-0.709,0.032-1.305,0.038-1.775,0.036
		c4.461,3.498,6.878,8.016,8.671,11.371l0.607,1.136l-0.645-0.033c-1.06-0.053-1.995-0.041-2.583-0.026
		c2.862,4.299,2.88,5.506,2.956,10.561l0.016,1.028l-0.474-0.146c-0.602-0.183-1.145-0.55-1.558-0.891
		c0.633,4.453,0.831,8.771-1.662,12.762l-0.207,0.335l-0.316-0.238c-1.095-0.825-1.943-1.885-2.413-2.542
		c-3.326,8.709-8.379,13.628-15.037,14.628c-3.241,0.484-6.436,0.809-9.254,1.097C382.824,131.49,378.138,131.966,377.734,133.044z"
		/>
	<path fill="#CCCCCC" d="M373.887,119.49c0,0,22.62,1.693,29.027-11.976c6.416-13.669-4.473-19.717-8.463-20.805
		c-3.994-1.089-12.397-1.089-16.392,6.531c-3.99,7.62-10.946,17.662-10.946,17.662s3.869-2.843,7.981,1.934
		C377.552,115.691,373.887,119.49,373.887,119.49z"/>
	<path fill="#DBDBDB" d="M373.887,119.49c0,0,22.62,1.693,29.027-11.976c6.416-13.669-3.021-17.54-7.016-18.629
		c-3.99-1.088-11.244-0.362-15.24,7.259c-3.991,7.621-13.545,14.758-13.545,14.758s4.075-3.014,7.981,1.934
		C376.912,115.136,373.887,119.49,373.887,119.49z"/>
	<path fill="#E8E8E8" d="M388.162,93.363c-6.338,5.28-9.425,12.356-15.553,17.286c0.808,0.438,1.651,1.128,2.486,2.188
		c1.817,2.299-1.208,6.653-1.208,6.653s22.62,1.693,29.027-11.976c3.229-6.884,2.442-11.28,0.349-14.09
		C399.144,90.567,391.742,90.226,388.162,93.363z"/>
	<path fill="#AAA9A9" d="M376.081,119.912c-1.354,0-2.171-0.783-2.171-0.783c0.228,0.017,22.452,1.515,28.681-11.769
		c2.258-4.821,2.55-9.118,0.863-12.766c-2.113-4.575-6.874-6.929-9.101-7.534c-3.824-1.042-12.088-1.059-15.974,6.351
		c-3.959,7.553-10.9,17.598-10.965,17.7c0,0,6.391-10.524,10.325-18.037c4.095-7.821,12.787-7.811,16.805-6.714
		c2.511,0.683,7.348,3.125,9.57,7.929c1.78,3.854,1.488,8.355-0.868,13.38C398.008,118.845,381.99,119.912,376.081,119.912z"/>
	<path fill="#AAA9A9" d="M404.772,87.594c-0.094-0.033-9.376-3.346-15.143-1.001l-0.276-0.673
		C395.385,83.47,404.772,87.594,404.772,87.594z"/>
	<ellipse fill="#0393F9" cx="309.93" cy="142.656" rx="7.711" ry="11.5"/>
	<path fill="#035EFF" d="M309.929,154.52c-4.452,0-8.075-5.323-8.075-11.864c0-6.542,3.623-11.864,8.075-11.864
		c4.452,0,8.075,5.321,8.075,11.864C318.004,149.197,314.381,154.52,309.929,154.52z M309.929,131.516
		c-4.052,0-7.35,4.998-7.35,11.14c0,6.142,3.297,11.138,7.35,11.138s7.35-4.996,7.35-11.138
		C317.279,136.514,313.981,131.516,309.929,131.516z"/>
	<ellipse cx="309.929" cy="142.656" rx="5.766" ry="8.598"/>
	<path fill="#A8A0A3" d="M287.802,229.738l-0.417-0.596c4.611-3.206,6.842-10.819,6.842-10.819
		C294.167,218.649,292.656,226.36,287.802,229.738z"/>
	<path fill="#A8A0A3" d="M255.8,198.825c-9.736-2.908-13.814-10.226-13.814-10.226c0.045,0.066,4.548,6.699,14.021,9.53
		L255.8,198.825z"/>
	<circle fill="#F7F7F7" cx="306.595" cy="137.717" r="2.518"/>
	<circle fill="#F7F7F7" cx="304.871" cy="141.665" r="1.428"/>
	<circle fill="#F7F7F7" cx="247.137" cy="136.469" r="2.344"/>
	<circle fill="#F7F7F7" cx="245.53" cy="140.143" r="1.33"/>
	
		<ellipse transform="matrix(0.9267 -0.3758 0.3758 0.9267 -43.5555 98.4036)" fill="#CC927F" cx="230.487" cy="160.859" rx="6.564" ry="3.587"/>
	<ellipse fill="#FFBBCD" cx="269.744" cy="223.384" rx="1.562" ry="1.107"/>
	
		<ellipse transform="matrix(0.8883 -0.4593 0.4593 0.8883 -70.9373 151.479)" fill="#FFBBCD" cx="275.951" cy="221.577" rx="4.035" ry="1.462"/>
</g>
</svg>
