<svg version="1.1" xmlns="http://www.w3.org/2000/svg" xmlns:xlink="http://www.w3.org/1999/xlink" viewBox="0 0 768 430" enable-background="new 0 0 768 430" xml:space="preserve">
<g id="Layer_3">
	<path opacity="0.7" fill="#C8C8C8" d="M530.031,335.94L254.07,383.12c-15.195,2.597-29.752-7.708-32.349-22.904
		c0,0-27.024-279.427-2.386-283.639c0,0,289.861-28.808,294.075-4.169l39.523,231.184
		C555.532,318.785,545.226,333.343,530.031,335.94z"/>
	<path opacity="0.7" fill="#EDEDED" d="M514.389,345.851l-278.691,26.684c-15.344,1.47-29.101-9.883-30.569-25.228
		c0,0-6.329-280.66,18.554-283.042c0,0,291.197-7.337,293.58,17.545l22.354,233.472
		C541.086,330.625,529.732,344.383,514.389,345.851z"/>
	<path opacity="0.7" fill="#EDEDED" d="M227.018,335.842l252.045,36.692c15.344,1.47,29.102-9.883,30.571-25.228
		c0,0,6.327-280.66-18.555-283.042c0,0-249.279-6.368-251.661,18.514L213.24,295.885
		C211.771,311.229,211.674,334.372,227.018,335.842z"/>
	<path opacity="0.7" fill="#FFFFFF" d="M506.08,353.354H226.115c-15.415,0-28.027-12.611-28.027-28.027V95.544
		c0-24.996,20.453-45.447,45.447-45.447H488.66c24.995,0,45.447,20.451,45.447,45.447v229.782
		C534.107,340.742,521.494,353.354,506.08,353.354z"/>
	<path opacity="0.7" fill="#F995BE" d="M534.107,128.917h-336.02V95.544c0-24.996,20.452-45.447,45.447-45.447h245.124
		c24.996,0,45.448,20.451,45.448,45.447V128.917z"/>
	<path opacity="0.7" fill="#F64B8D" d="M252.769,73.03L252.769,73.03c-3.76,0-6.836-3.077-6.836-6.835V50.097h13.67v16.099
		C259.604,69.954,256.529,73.03,252.769,73.03z"/>
	<path opacity="0.7" fill="#F64B8D" d="M333.656,73.03L333.656,73.03c-3.759,0-6.835-3.077-6.835-6.835V50.097h13.671v16.099
		C340.491,69.954,337.415,73.03,333.656,73.03z"/>
	<path opacity="0.7" fill="#F64B8D" d="M409.311,73.03L409.311,73.03c-3.76,0-6.836-3.077-6.836-6.835V50.097h13.671v16.099
		C416.146,69.954,413.069,73.03,409.311,73.03z"/>
	<path opacity="0.7" fill="#F64B8D" d="M485.495,73.03L485.495,73.03c-3.758,0-6.834-3.077-6.834-6.835c0,0,0-14.919,0-16.099
		c0-1.081,13.67,0.147,13.67,0.147v15.951C492.331,69.954,489.255,73.03,485.495,73.03z"/>
	<path opacity="0.7" fill="#EBEBEB" d="M330.958,70.729L330.958,70.729c-3.759,0-6.835-3.077-6.835-6.835v-17.62
		c0-3.759,3.076-6.835,6.835-6.835l0,0c3.759,0,6.835,3.076,6.835,6.835v17.62C337.793,67.653,334.717,70.729,330.958,70.729z"/>
	<path opacity="0.7" fill="#EBEBEB" d="M406.992,70.729L406.992,70.729c-3.76,0-6.836-3.077-6.836-6.835v-17.62
		c0-3.759,3.076-6.835,6.836-6.835l0,0c3.76,0,6.834,3.076,6.834,6.835v17.62C413.826,67.653,410.752,70.729,406.992,70.729z"/>
	<path opacity="0.7" fill="#EBEBEB" d="M483.024,70.729L483.024,70.729c-3.759,0-6.834-3.077-6.834-6.835v-17.62
		c0-3.759,3.075-6.835,6.834-6.835l0,0c3.76,0,6.837,3.076,6.837,6.835v17.62C489.861,67.653,486.784,70.729,483.024,70.729z"/>
	<path opacity="0.7" fill="#BABABA" d="M505.76,268.926l-79.481,83.573c0,0,3.007-14.714,3.03-23.959
		c0.014-5.875-1.186-10.996-1.591-19.432c-1.133-23.661,12.569-29.688,19.038-33.189c9.921-5.374,26.189-1.397,35.998-2.034
		C486.897,273.615,502.668,272.925,505.76,268.926z"/>
	<path opacity="0.7" fill="#E7E6E6" d="M532.09,263.667l-105.812,88.832c0,0,5.262-16.893,6.297-27.72
		c0.658-6.877-0.244-13.016,0.184-22.94c1.201-27.844,18.527-33.341,26.779-36.708c12.655-5.16,32.016,1.351,44.021,1.722
		C508.627,267.009,527.891,268,532.09,263.667z"/>
	<rect x="232.765" y="173.021" opacity="0.7" fill="#EBEBEB" width="44.822" height="29.059"/>
	<rect x="232.765" y="224.741" opacity="0.7" fill="#EBEBEB" width="44.822" height="29.06"/>
	<rect x="304.093" y="224.741" opacity="0.7" fill="#EBEBEB" width="44.821" height="29.06"/>
	<rect x="375.42" y="224.741" opacity="0.7" fill="#EBEBEB" width="44.822" height="29.06"/>
	<rect x="445.371" y="224.741" opacity="0.7" fill="#EBEBEB" width="44.822" height="29.06"/>
	<rect x="232.765" y="276.462" opacity="0.7" fill="#EBEBEB" width="44.822" height="29.058"/>
	<rect x="304.093" y="276.462" opacity="0.7" fill="#EBEBEB" width="44.821" height="29.058"/>
	<rect x="375.42" y="276.462" opacity="0.7" fill="#EBEBEB" width="44.822" height="29.058"/>
	<rect x="304.093" y="173.021" opacity="0.7" fill="#EBEBEB" width="44.821" height="29.059"/>
	<rect x="375.42" y="173.021" opacity="0.7" fill="#EBEBEB" width="44.822" height="29.059"/>
	<rect x="446.748" y="173.021" opacity="0.7" fill="#EBEBEB" width="44.821" height="29.059"/>
	<path opacity="0.7" fill="#EBEBEB" d="M250.056,70.729L250.056,70.729c-3.758,0-6.834-3.077-6.834-6.835v-17.62
		c0-3.759,3.076-6.835,6.834-6.835l0,0c3.76,0,6.836,3.076,6.836,6.835v17.62C256.892,67.653,253.815,70.729,250.056,70.729z"/>
	<g opacity="0.7">
		<g>
			<path fill="#DC4844" d="M325.577,192.675c-0.168,0.218-0.101,0.726,0.356,0.652l0.367-0.842L325.577,192.675z"/>
			<path fill="#DC4844" d="M328.489,194.483c0.28-0.185,0.592-0.43,0.807-0.742c0.214-0.311,0.332-0.681,0.206-1.094
				c-0.316,0.377-0.492,0.477-0.676,0.596c-0.184,0.12-0.376,0.267-0.703,0.731c-0.455,0.06-0.756-0.345-0.656-0.655
				c-0.089,0.105-0.259,0.036-0.445,0.021c-0.186-0.018-0.386,0.003-0.522,0.267c0.547,0.688,1.255,0.79,2.083,0.309
				C328.726,194.12,328.542,194.328,328.489,194.483z"/>
			<path fill="#DC4844" d="M363.232,216.984l-0.066-0.28C363.159,216.796,363.186,216.891,363.232,216.984z"/>
			<path fill="#DC4844" d="M370.344,241.603c-0.029-0.197-0.117-0.278-0.196-0.284C370.211,241.5,370.271,241.647,370.344,241.603z"
				/>
			<path fill="#DC4844" d="M369.311,245.955c0.032-0.091,0.047-0.168,0.072-0.251C369.297,245.796,369.248,245.892,369.311,245.955z
				"/>
			<path fill="#DC4844" d="M363.232,216.984c0,0,0.04,0.183,0.081,0.363c0.035,0.183,0.07,0.366,0.07,0.366
				C363.646,217.604,363.374,217.298,363.232,216.984z"/>
			<path fill="#DC4844" d="M334.848,193.458c-0.162,0.006-0.307,0.055-0.446,0.132c0.134-0.009,0.262-0.012,0.392-0.005
				C334.81,193.54,334.825,193.502,334.848,193.458z"/>
			<path fill="#DC4844" d="M355.294,208.794l-0.153-0.142c-0.112,0.031-0.235,0.082-0.365,0.146c0,0,0.13-0.003,0.26-0.005
				C355.167,208.794,355.294,208.794,355.294,208.794z"/>
			<path fill="#DC4844" d="M348.299,203.645c0.149,0.132,0.598-0.449,0.835-0.677c-0.258,0.193-0.459,0.236-0.635,0.19
				C348.423,203.275,348.356,203.43,348.299,203.645z"/>
			<path fill="#DC4844" d="M336.105,196.839c0,0-0.066,0.007-0.134,0.013c-0.067,0.008-0.134,0.017-0.134,0.017
				C335.908,196.855,336.022,196.854,336.105,196.839z"/>
			<path fill="#DC4844" d="M359.478,213.388c-0.074,0.081-0.128,0.166-0.15,0.228C359.397,213.557,359.445,213.478,359.478,213.388z
				"/>
			<path fill="#DC4844" d="M321.106,197.709c-0.003,0.052,0.011,0.084,0.011,0.13C321.166,197.761,321.178,197.708,321.106,197.709z
				"/>
			<path fill="#DC4844" d="M331.851,200.742l-0.144,0.045c-0.009,0.14-0.02,0.276-0.014,0.412L331.851,200.742z"/>
			<path fill="#DC4844" d="M367.231,253.565c0.013-0.012,0.014-0.018,0.022-0.031C367.22,253.317,367.207,253.434,367.231,253.565z"
				/>
			<path fill="#DC4844" d="M310.021,278.253c0.324,0.42-0.058,0.544-0.394,0.678c-0.334,0.137-0.627,0.294-0.1,0.812
				c-0.021-0.153,0.332-0.353,0.574-0.606C310.344,278.883,310.472,278.588,310.021,278.253z"/>
			<path fill="#DC4844" d="M335.065,193.605c0.126,0.018,0.254,0.045,0.378,0.085C335.278,193.623,335.161,193.596,335.065,193.605z
				"/>
			<path fill="#DC4844" d="M309.527,279.742l0,0.008l0.11,0.101C309.591,279.806,309.566,279.78,309.527,279.742z"/>
			<path fill="#DC4844" d="M360.148,269.812c0.125,0.05,0.245,0.053,0.364,0.05C360.449,269.823,360.351,269.799,360.148,269.812z"
				/>
			<path fill="#DC4844" d="M367.365,258.418l-0.204,0.288C367.269,258.602,367.326,258.506,367.365,258.418z"/>
			<path fill="#DC4844" d="M356.165,275.506c-0.175,0.069-0.286,0.028-0.416,0.257c0.042,0.015,0.076,0.021,0.115,0.023
				C355.87,275.652,355.933,275.544,356.165,275.506z"/>
			<path fill="#DC4844" d="M350.111,279.273c0.057,0.037,0.121,0.056,0.181,0.085c0.06-0.041,0.132-0.086,0.194-0.125
				L350.111,279.273z"/>
			<path fill="#DC4844" d="M297.242,202.508c0.237,0.139,0.415,0.318,0.569,0.503C297.522,202.561,298.599,202.006,297.242,202.508z
				"/>
			<path fill="#DC4844" d="M334.758,193.858c0.088-0.169,0.176-0.243,0.307-0.253c-0.092-0.013-0.183-0.019-0.272-0.021
				C334.746,193.685,334.717,193.784,334.758,193.858z"/>
			<path fill="#DC4844" d="M359.593,280.156c0,0-0.287,0.195-0.574,0.391c-0.144,0.097-0.286,0.195-0.398,0.264
				c-0.111,0.068-0.185,0.114-0.185,0.114C358.796,280.757,359.205,280.464,359.593,280.156z"/>
			<path fill="#DC4844" d="M269.23,248.897l-0.167-0.271C269.08,248.744,269.129,248.842,269.23,248.897z"/>
			<path fill="#DC4844" d="M355.021,283.275c-0.346-0.105-0.648-0.111-0.931-0.069c-0.024,0.078-0.06,0.151-0.054,0.244
				L355.021,283.275z"/>
			<path fill="#DC4844" d="M297.816,203.019c-0.003-0.002-0.005-0.007-0.005-0.007S297.812,203.017,297.816,203.019z"/>
			<path fill="#DC4844" d="M280.654,213.386c-0.004-0.006-0.008-0.009-0.009-0.011c0.173-0.178,0.318-0.333,0.415-0.427
				C280.972,213.035,280.856,213.163,280.654,213.386z M278.911,215.062c0.229-0.188,0.488-0.448,0.768-0.715
				c0.236,0.124,0.349,0.375,0.167,0.531c-0.011-0.105-0.145-0.089-0.325-0.03C279.341,214.908,279.114,215.007,278.911,215.062z
				 M285.865,215.632c-0.197,0.294-0.375,0.253-0.505,0.166c0.116-0.11,0.244-0.25,0.407-0.442
				c-0.009-0.028-0.013-0.064-0.024-0.095C285.804,215.392,285.855,215.517,285.865,215.632z"/>
			<path fill="#DC4844" d="M285.762,214.5c0.03-0.043,0.034-0.084,0.082-0.13c-0.096-0.008-0.183-0.01-0.265-0.004
				c0.014,0.089,0.027,0.176,0.043,0.257C285.669,214.581,285.718,214.538,285.762,214.5z"/>
			<path fill="#DC4844" d="M363.153,216.654l0.013,0.05c0.002-0.05,0.005-0.095,0.03-0.142
				C363.184,216.609,363.166,216.622,363.153,216.654z"/>
			<polygon fill="#DC4844" points="268.246,246.273 268.428,246.234 268.226,246.051 			"/>
			<path fill="#DC4844" d="M356.599,205.5c0.023-0.065,0.031-0.147-0.006-0.254C356.566,205.288,356.579,205.386,356.599,205.5z"/>
			<path fill="#DC4844" d="M352.245,201.905l-0.517-0.666C351.934,201.557,352.103,201.757,352.245,201.905z"/>
			<path fill="#DC4844" d="M348.755,199.263c-0.112,0.083-0.173,0.159-0.23,0.229c0.002,0.003,0.004,0.004,0.005,0.008
				L348.755,199.263z"/>
			<path fill="#DC4844" d="M372.093,259.727c-0.017,0.06-0.025,0.118-0.024,0.176C372.07,260.33,372.107,260.05,372.093,259.727z"/>
			<path fill="#DC4844" d="M372.996,239.086c0.147,0.207,0.292,0.409,0.392,0.631C373.417,239.35,373.41,239.064,372.996,239.086z"
				/>
			<path fill="#DC4844" d="M359.72,280.07c-0.001-0.005-0.004-0.005-0.005-0.012c-0.041,0.036-0.08,0.063-0.122,0.098L359.72,280.07
				z"/>
			<path fill="#DC4844" d="M373.421,240.671c0.128-0.371,0.092-0.677-0.033-0.954C373.362,240.02,373.294,240.375,373.421,240.671z"
				/>
			<path fill="#DC4844" d="M330.995,192.645l-0.206-0.063c-0.003,0.048-0.021,0.085-0.042,0.112L330.995,192.645z"/>
			<path fill="#DC4844" d="M330.748,192.694l-0.246,0.049C330.609,192.76,330.703,192.77,330.748,192.694z"/>
			<path fill="#DC4844" d="M329.985,192.863c0,0,0.129-0.03,0.258-0.061c0.064-0.015,0.129-0.03,0.177-0.042
				c0.049-0.01,0.081-0.017,0.081-0.017C330.333,192.717,330.124,192.67,329.985,192.863z"/>
			<path fill="#DC4844" d="M336.623,194.186l0.135-0.24C336.708,193.991,336.664,194.068,336.623,194.186z"/>
			<path fill="#DC4844" d="M338.338,194.608c-0.382-0.178-0.854-0.842-1.47-0.851l-0.11,0.188c0.188-0.153,0.458,0.095,0.743,0.336
				C337.785,194.526,338.081,194.763,338.338,194.608z"/>
			<path fill="#DC4844" d="M343.772,200.268c0,0-0.292-0.197-0.582-0.394c-0.144-0.101-0.294-0.192-0.405-0.263
				c-0.111-0.071-0.186-0.118-0.186-0.118c0.108,0.356,0.239,0.828-0.36,0.641c0.312,0.365,0.459,0.501,0.533,0.52
				c0.076,0.016,0.081-0.095,0.096-0.226C342.9,200.167,342.976,199.827,343.772,200.268z"/>
			<path fill="#DC4844" d="M347.354,202.639c-0.701-0.262-0.199,0.36-0.315,0.476C347.568,203.129,347.703,203.134,347.354,202.639z
				"/>
			<path fill="#DC4844" d="M367.109,225.446l-0.648,0.176C366.755,226.11,366.706,225.533,367.109,225.446z"/>
			<polygon fill="#DC4844" points="372.238,230.194 372.486,229.515 371.825,229.398 			"/>
			<polygon fill="#DC4844" points="368.346,234.658 368.212,234.438 368.603,235.308 			"/>
			<path fill="#DC4844" d="M350.974,278.159l0.515,0.663c0.135-0.144,0.104-0.439-0.005-0.626c-0.055-0.094-0.131-0.162-0.216-0.177
				C351.18,278.005,351.079,278.039,350.974,278.159z"/>
			<path fill="#DC4844" d="M329.671,282.092c-0.233-0.419-0.855-0.704-1.265-0.324C328.911,281.853,329.407,282.188,329.671,282.092
				z"/>
			<polygon fill="#DC4844" points="276.224,250.391 276.625,250.694 276.139,250.02 			"/>
		</g>
	</g>
</g>
<g id="Layer_5">
	<g opacity="0.8">
		<path fill="#00A27A" d="M548.046,128.677c1.807-0.522,6.035-1.747,8-7.527l4.05-11.909l1.629,0.554
			c0.745,0.253,1.563-0.149,1.816-0.895l2.173-6.389c0.253-0.746-0.149-1.563-0.896-1.816L512.32,82.844
			c-0.745-0.253-1.563,0.149-1.816,0.895l-2.173,6.389c-0.253,0.745,0.15,1.563,0.896,1.816l1.629,0.554l-4.122,12.125
			c-1.947,5.725-0.659,7.658,1.783,10.583l10.623,12.722l-1.184,3.482c-4.064,0.882-14.688,3.197-16.118,3.61
			c-1.805,0.522-6.034,1.746-8,7.527l-3.486,10.253l-1.629-0.554c-0.745-0.253-1.563,0.149-1.817,0.895l-2.172,6.389
			c-0.254,0.746,0.149,1.562,0.895,1.816l52.498,17.85c0.746,0.254,1.562-0.149,1.816-0.895l2.172-6.388
			c0.255-0.746-0.148-1.563-0.895-1.816l-1.628-0.554l3.56-10.471c1.947-5.724,0.66-7.657-1.783-10.582l-10.623-12.721l1.184-3.482
			C535.993,131.405,546.615,129.091,548.046,128.677z M525.86,137.962l11.552,13.833c0.887,1.062,1.355,1.642,1.483,2.172
			c0.153,0.637-0.052,1.765-0.624,3.447l-3.561,10.47l-39.479-13.424l3.486-10.253c1.101-3.237,3.096-3.814,4.553-4.235
			c1.139-0.329,10.91-2.472,17.2-3.832c0.884-0.192,1.604-0.833,1.896-1.689l2.119-6.234c0.289-0.851,0.114-1.792-0.461-2.482
			l-11.518-13.79l-0.034-0.042c-0.887-1.062-1.356-1.641-1.483-2.171c-0.152-0.637,0.051-1.764,0.623-3.447l4.123-12.125
			l39.48,13.424l-4.05,11.909c-1.101,3.236-3.096,3.814-4.552,4.235c-1.139,0.329-10.91,2.472-17.201,3.832
			c-0.884,0.191-1.604,0.832-1.895,1.689l-2.119,6.233C525.109,136.332,525.285,137.272,525.86,137.962z"/>
		<path fill="#00A27A" d="M528.907,125.923c2.354-0.292,16.647-3.225,16.647-3.225s1.139-0.467-0.278-0.706
			c-3.358-0.566-9.614,0.79-16.471-0.976s-8.263-7.826-12.718-8.239c-0.971-0.09-1.11,0.294-0.261,1.278
			c0.847,0.984,8.568,9.521,9.632,10.695C526.521,125.925,527.29,126.124,528.907,125.923z"/>
		<path fill="#00A27A" d="M502.493,153.104c-1.47,0.65-2.262,1.215,0.314,2.09c2.1,0.714,23.122,7.862,25.795,8.771
			c2.671,0.908,1.943-0.349,1.096-1.968c-1.635-3.126-5.078-8.066-11.219-10.154C512.049,149.656,505.768,151.655,502.493,153.104z"
			/>
		
			<ellipse transform="matrix(0.3222 -0.9467 0.9467 0.3222 234.3684 585.2886)" fill="#00A27A" cx="525.92" cy="128.973" rx="0.88" ry="0.69"/>
		
			<ellipse transform="matrix(0.3216 -0.9469 0.9469 0.3216 230.6819 586.6675)" fill="#00A27A" cx="524.774" cy="132.342" rx="0.881" ry="0.689"/>
		
			<ellipse transform="matrix(-0.3221 0.9467 -0.9467 -0.3221 820.7803 -316.2899)" fill="#00A27A" cx="523.628" cy="135.711" rx="0.881" ry="0.69"/>
		
			<ellipse transform="matrix(-0.3222 0.9467 -0.9467 -0.3222 822.4961 -310.7262)" fill="#00A27A" cx="522.484" cy="139.08" rx="0.88" ry="0.689"/>
		
			<ellipse transform="matrix(-0.3222 0.9467 -0.9467 -0.3222 824.1714 -305.1864)" fill="#00A27A" cx="521.338" cy="142.449" rx="0.88" ry="0.689"/>
		
			<ellipse transform="matrix(-0.3222 0.9467 -0.9467 -0.3222 825.8445 -299.647)" fill="#00A27A" cx="520.192" cy="145.818" rx="0.88" ry="0.689"/>
		
			<ellipse transform="matrix(-0.3215 0.9469 -0.9469 -0.3215 827.2076 -294.3259)" fill="#00A27A" cx="519.047" cy="149.187" rx="0.881" ry="0.688"/>
		<path fill="#00A27A" d="M557.049,187.113c-1.151,0.653-2.34,1.278-3.529,1.858c-0.192,0.094-0.378,0.197-0.557,0.308
			c-0.191,0.067-0.382,0.144-0.569,0.231c-5.161,2.406-10.543,4.101-16.088,5.083c-0.07,0.011-0.142,0.015-0.213,0.027
			c-1.307,0.231-2.637,0.423-3.953,0.574c-0.014,0.002-0.028,0.005-0.043,0.008c-2.416,0.267-4.859,0.402-7.328,0.402
			c-28.463,0-52.738-18.264-61.731-43.687c-0.137-0.388-0.272-0.775-0.401-1.164c-2.155-6.483-3.326-13.412-3.326-20.609
			c0-7.214,1.175-14.157,3.341-20.652c0.047-0.142,0.092-0.283,0.141-0.425c0.129-0.378,0.264-0.755,0.399-1.131
			c0.063-0.176,0.128-0.352,0.193-0.527c7.474-20.116,24.569-35.591,45.665-40.812c0.013-0.003,0.026-0.004,0.04-0.007
			c0.312-0.077,0.626-0.152,0.94-0.225c0.036-0.008,0.069-0.021,0.104-0.029c4.602-1.055,9.388-1.622,14.299-1.647l0.056,6.73
			c0.018,2.09,1.337,2.693,2.93,1.343l14.217-12.051c1.593-1.351,1.575-3.54-0.042-4.864l-14.416-11.811
			c-1.615-1.323-2.924-0.697-2.906,1.392l0.057,6.717c-20.671,0.115-40.086,8.213-54.715,22.842c-1.441,1.441-2.817,2.93-4.129,4.46
			c-0.008,0.009-0.017,0.017-0.024,0.025c-0.049,0.056-0.094,0.116-0.143,0.172c-11.515,13.512-18.006,30.353-18.516,48.218
			c-0.013,0.139-0.027,0.277-0.031,0.418c-0.014,0.597-0.021,1.202-0.021,1.801c0,0.982,0.02,1.979,0.057,2.959
			c0.004,0.115,0.02,0.227,0.03,0.34c0.66,16.278,6.289,31.667,16.164,44.415c0.032,0.044,0.06,0.091,0.094,0.134
			c0.965,1.246,1.984,2.479,3.027,3.666c0.067,0.076,0.141,0.143,0.211,0.215c1.055,1.19,2.146,2.357,3.28,3.492
			c11.581,11.582,26.164,19.07,41.994,21.745c0.048,0.009,0.097,0.019,0.146,0.028c0.035,0.005,0.07,0.008,0.106,0.013
			c4.227,0.701,8.542,1.062,12.911,1.062c11.501,0,22.577-2.447,32.926-7.27c0.224-0.104,0.435-0.222,0.639-0.349
			c0.23-0.081,0.459-0.174,0.684-0.284c1.42-0.693,2.838-1.438,4.214-2.216c3.013-1.708,4.074-5.535,2.367-8.549
			C563.892,186.466,560.063,185.407,557.049,187.113z"/>
		<path fill="#00A27A" d="M579.126,93.636c1.21,1.802,3.192,2.774,5.211,2.774c1.203,0,2.42-0.345,3.493-1.067
			c2.875-1.932,3.64-5.83,1.707-8.705c-0.881-1.312-1.813-2.613-2.773-3.866c-2.105-2.752-6.042-3.275-8.794-1.171
			c-2.751,2.105-3.275,6.042-1.17,8.793C577.604,91.447,578.388,92.537,579.126,93.636z"/>
		<path fill="#00A27A" d="M587.092,110.108c0.403,1.26,0.774,2.552,1.102,3.84c0.724,2.837,3.275,4.725,6.074,4.725
			c0.513,0,1.034-0.063,1.555-0.196c3.355-0.855,5.384-4.271,4.528-7.627c-0.391-1.531-0.832-3.068-1.312-4.567
			c-1.057-3.299-4.587-5.118-7.887-4.061C587.854,103.279,586.034,106.81,587.092,110.108z"/>
		<path fill="#00A27A" d="M583.096,172.368c-2.621-2.266-6.581-1.979-8.848,0.642c-0.867,1.003-1.775,1.992-2.701,2.938
			c-2.421,2.479-2.375,6.45,0.103,8.872c1.221,1.192,2.803,1.786,4.384,1.786c1.63,0,3.259-0.632,4.487-1.89
			c1.102-1.128,2.184-2.305,3.217-3.5C586.004,178.595,585.716,174.634,583.096,172.368z"/>
		<path fill="#00A27A" d="M596.673,126.071c-3.469-0.104-6.354,2.62-6.457,6.082c-0.039,1.327-0.121,2.668-0.242,3.987
			c-0.316,3.45,2.223,6.503,5.673,6.82c0.195,0.018,0.388,0.026,0.581,0.026c3.204,0,5.939-2.444,6.238-5.699
			c0.145-1.574,0.242-3.174,0.289-4.758C602.858,129.066,600.136,126.175,596.673,126.071z"/>
		<path fill="#00A27A" d="M593.883,150.395c-3.228-1.264-6.865,0.328-8.128,3.554c-0.483,1.234-1.012,2.471-1.569,3.675
			c-1.456,3.143-0.089,6.871,3.055,8.329c0.854,0.395,1.751,0.583,2.633,0.583c2.368,0,4.635-1.348,5.696-3.637
			c0.664-1.433,1.291-2.905,1.867-4.375C598.699,155.297,597.109,151.658,593.883,150.395z"/>
		<path fill="#00A27A" d="M572.521,76.245c2.062-2.784,1.476-6.712-1.309-8.774c-1.268-0.938-2.583-1.851-3.907-2.712
			c-2.903-1.888-6.789-1.065-8.678,1.839c-1.888,2.905-1.065,6.79,1.838,8.678c1.113,0.723,2.217,1.49,3.282,2.278
			c1.122,0.831,2.431,1.232,3.729,1.232C569.396,78.786,571.291,77.907,572.521,76.245z"/>
	</g>
</g>
<g id="Layer_2">
	<g>
		<path fill="#F64B8D" d="M319.717,261.402c0.093,2.859,0.17,5.625,0.229,8.297c0.058,2.672,0.1,5.209,0.123,7.611
			c0.023,2.402,0.023,4.641,0,6.715c-0.023,2.074-0.059,3.932-0.105,5.572c-0.118,4.57-0.452,8.637-1.002,12.199
			c-0.551,3.562-1.459,6.621-2.725,9.176c-1.383,2.789-3.287,4.957-5.713,6.504s-5.549,2.426-9.369,2.637
			c-1.195,0.07-2.473,0-3.832-0.211c-1.359-0.211-2.66-0.521-3.902-0.932c-1.242-0.41-2.367-0.908-3.375-1.494
			c-1.007-0.586-1.758-1.23-2.25-1.934l6.012-9.07c0.938,0.656,1.84,1.137,2.707,1.441c1.289,0.469,2.473,0.668,3.551,0.598
			c1.078-0.07,2.045-0.369,2.9-0.896c0.856-0.527,1.582-1.277,2.18-2.25s1.06-2.127,1.389-3.463c0.398-1.617,0.673-3.48,0.826-5.59
			c0.152-2.109,0.264-4.406,0.334-6.891c0.093-3.117,0.111-7.014,0.053-11.689c-0.059-4.676-0.229-10.119-0.51-16.33H319.717z
			 M313.564,257.254c-1.617,0.047-2.959-0.252-4.025-0.896c-1.067-0.645-1.875-1.459-2.426-2.443
			c-0.551-0.984-0.832-2.062-0.844-3.234c-0.012-1.172,0.24-2.262,0.756-3.27c0.515-1.008,1.295-1.852,2.338-2.531
			c1.042-0.68,2.35-1.02,3.92-1.02c1.429,0,2.637,0.322,3.621,0.967s1.74,1.459,2.268,2.443s0.809,2.045,0.844,3.182
			s-0.176,2.203-0.633,3.199s-1.166,1.834-2.127,2.514C316.294,256.844,315.064,257.207,313.564,257.254z"/>
		<path fill="#F64B8D" d="M369.428,305.312h-12.48v-2.777c-2.906,1.922-6.059,2.906-9.457,2.953
			c-2.414,0.023-4.618-0.27-6.609-0.879c-1.992-0.609-3.785-1.459-5.379-2.549c-1.594-1.09-2.983-2.379-4.166-3.867
			c-1.184-1.488-2.174-3.1-2.971-4.834c-0.797-1.734-1.412-3.551-1.846-5.449c-0.434-1.898-0.686-3.809-0.756-5.73
			c-0.07-2.039,0.076-4.078,0.439-6.117c0.363-2.039,0.937-3.984,1.723-5.836c0.785-1.852,1.793-3.574,3.023-5.168
			s2.677-2.977,4.342-4.148c1.664-1.172,3.539-2.086,5.625-2.742c2.086-0.656,4.382-0.984,6.891-0.984
			c1.828,0.023,3.527,0.229,5.098,0.615c1.57,0.387,3.035,0.943,4.395,1.67c0-0.094,0-0.281,0-0.562s0.005-0.574,0.018-0.879
			c0.012-0.305,0.018-0.586,0.018-0.844s0-0.422,0-0.492h11.883L369.428,305.312z M346.436,269.102
			c-1.406,0.047-2.678,0.393-3.814,1.037c-1.137,0.645-2.104,1.529-2.9,2.654c-0.797,1.125-1.401,2.449-1.811,3.973
			c-0.41,1.523-0.58,3.176-0.51,4.957c0.023,0.82,0.123,1.688,0.299,2.602s0.434,1.816,0.773,2.707
			c0.339,0.891,0.756,1.74,1.248,2.549s1.072,1.523,1.74,2.145s1.424,1.119,2.268,1.494s1.781,0.562,2.812,0.562
			c1.71,0,3.222-0.387,4.535-1.16c1.312-0.773,2.414-1.787,3.305-3.041c0.891-1.254,1.57-2.666,2.039-4.236
			c0.469-1.57,0.703-3.141,0.703-4.711c0-1.5-0.234-2.959-0.703-4.377c-0.469-1.418-1.16-2.672-2.074-3.762
			s-2.034-1.951-3.357-2.584C349.664,269.277,348.146,269.008,346.436,269.102z"/>
		<path fill="#F64B8D" d="M418.646,305.312h-12.48v-2.777c-2.906,1.922-6.059,2.906-9.457,2.953
			c-2.414,0.023-4.617-0.27-6.609-0.879s-3.785-1.459-5.379-2.549c-1.594-1.09-2.983-2.379-4.166-3.867
			c-1.184-1.488-2.174-3.1-2.971-4.834c-0.797-1.734-1.412-3.551-1.846-5.449c-0.434-1.898-0.686-3.809-0.756-5.73
			c-0.07-2.039,0.076-4.078,0.439-6.117c0.363-2.039,0.937-3.984,1.723-5.836c0.785-1.852,1.793-3.574,3.023-5.168
			s2.677-2.977,4.342-4.148c1.664-1.172,3.539-2.086,5.625-2.742s4.383-0.984,6.891-0.984c1.828,0.023,3.527,0.229,5.098,0.615
			s3.035,0.943,4.395,1.67c0-0.094,0-0.281,0-0.562s0.006-0.574,0.018-0.879s0.018-0.586,0.018-0.844s0-0.422,0-0.492h11.883
			L418.646,305.312z M395.654,269.102c-1.406,0.047-2.678,0.393-3.814,1.037s-2.104,1.529-2.9,2.654s-1.4,2.449-1.811,3.973
			s-0.58,3.176-0.51,4.957c0.023,0.82,0.123,1.688,0.299,2.602s0.434,1.816,0.773,2.707s0.756,1.74,1.248,2.549
			s1.072,1.523,1.74,2.145s1.424,1.119,2.268,1.494s1.781,0.562,2.812,0.562c1.711,0,3.223-0.387,4.535-1.16
			s2.414-1.787,3.305-3.041s1.57-2.666,2.039-4.236s0.703-3.141,0.703-4.711c0-1.5-0.234-2.959-0.703-4.377s-1.16-2.672-2.074-3.762
			s-2.033-1.951-3.357-2.584S397.365,269.008,395.654,269.102z"/>
		<path fill="#F64B8D" d="M436.119,261.684c0.984-0.609,2.162-1.137,3.533-1.582s2.842-0.762,4.412-0.949s3.205-0.229,4.904-0.123
			s3.369,0.387,5.01,0.844s3.205,1.102,4.693,1.934s2.83,1.893,4.025,3.182l-5.133,9.035c-1.219-1.008-2.543-1.781-3.973-2.32
			s-2.871-0.902-4.324-1.09s-2.877-0.211-4.271-0.07s-2.672,0.404-3.832,0.791s-2.156,0.879-2.988,1.477s-1.412,1.26-1.74,1.986
			l0.387,30.727h-12.48c0.023-0.938,0.035-2.244,0.035-3.92s0-3.586,0-5.73s0-4.453,0-6.926s0-4.969,0-7.488s0-4.992,0-7.418
			s-0.006-4.658-0.018-6.697s-0.018-3.814-0.018-5.326s0-2.619,0-3.322h11.883L436.119,261.684z"/>
	</g>
</g>
</svg>
