<svg version="1.1" xmlns="http://www.w3.org/2000/svg" xmlns:xlink="http://www.w3.org/1999/xlink" viewBox="0 0 768 430" enable-background="new 0 0 768 430" xml:space="preserve">
<g id="Layer_2">
</g>
<g id="Layer_1">
	<g>
		<path fill="#C3DBE2" d="M464.344,259.461c0.012,0.885,0.102,1.695,0.495,2.499c0.39,0.795,1.464,1.05,2.225,0.729
			c0.342-0.144,0.672-0.39,0.852-0.729c0.236-0.448,0.258-0.873,0.18-1.372c-0.029-0.178-0.079-0.332-0.144-0.502
			c-0.217-0.568-0.387-1.282-0.982-1.559c-0.66-0.305-1.291-0.241-1.84,0.238c-0.512,0.443-0.487,1.156-0.537,1.774
			c-0.014,0.181-0.019,0.343,0.005,0.522c1.105-0.3,2.213-0.6,3.318-0.898c0.247,0.542,0.035,0.021,0.006-0.158
			c0.021,0.158,0.042,0.316,0.062,0.474c-0.042-0.338-0.036-0.679-0.03-1.019c0.013-0.943-0.84-1.848-1.806-1.805
			S464.328,258.449,464.344,259.461z"/>
	</g>
	<g>
		<path fill="#8BC53F" d="M347.301,321.047c-1.843-1.741-16.232-9.415-15.378-12.032c1.114-3.415,12.611,0.428,13.875,2.55
			c-1.104-1.874-9.273-9.873-7.429-11.947c2.287-2.57,9.033,8.094,10.603,9.411c-0.508-2.216-5.606-13.355-2.362-14.516
			c3.634-1.299,6.505,11.511,7.243,14.002c-0.231-4.578-1.286-12.601,1.868-16.187c4.542,3.718,3.484,11.84,4.372,16.784
			c0.283-2.319,1.089-4.399,2.424-6.345c0.39,0.136,0.751,0.368,1.146,0.501c1.124-3.173,4.9-5.785,8.341-6.471
			c0.205,4.933-6.89,14.248-10.484,17.344c-3.259,2.806-9.363,6.755-13.211,8.576L347.301,321.047z"/>
		<g>
			<path fill="#00B74E" d="M449.309,248.055c-1.995,1.219-2.045,4.298-1.902,6.451c0.142,2.15,0.414,5.576,2.829,6.104
				c0.42,0.092,0.934,0.03,1.175-0.431c0.916-1.751,0.2-3.44-0.137-5.235c-0.376-2.009,0.298-4.602-0.61-6.414
				C450.413,248.03,449.807,247.751,449.309,248.055L449.309,248.055z"/>
			<path fill="#00B74E" d="M455.009,251.446c-0.119,1.803-0.236,3.605-0.355,5.407c-0.101,1.507-0.383,2.961,0.601,4.159
				c0.343,0.418,0.952,0.457,1.351,0.082c1.141-1.07,1.063-2.544,1.173-4.051c0.132-1.801,0.264-3.603,0.397-5.403
				C458.336,249.439,455.154,249.245,455.009,251.446L455.009,251.446z"/>
			<path fill="#00B74E" d="M430.301,275.551c2.069-0.552,4.117-0.531,6.222-0.414c1.548,0.09,1.729-2.499,0.18-2.587
				c-2.309-0.132-4.597-0.139-6.865,0.467C428.328,273.42,428.784,275.956,430.301,275.551L430.301,275.551z"/>
			<path fill="#00B74E" d="M433.658,279.896c0,0,1.228,0.075,2.077,0.128c0.821,0.05,1.549,0.134,2.092-0.658
				c0.17-0.246,0.184-0.44,0.049-0.705c-0.428-0.852-1.172-0.71-1.991-0.76c-0.852-0.053-2.078-0.127-2.078-0.127
				C431.838,277.654,431.69,279.776,433.658,279.896C433.658,279.896,431.69,279.776,433.658,279.896z"/>
			<path fill="#00B74E" d="M429.126,302.787c-0.153,1.542-0.299,3.083-0.374,4.631c-0.062,1.296-0.232,2.517,0.515,3.565
				c0.296,0.415,1.057,0.395,1.299-0.1c0.549-1.124,0.304-2.09,0.27-3.34c-0.041-1.546,0.031-3.099,0.092-4.646
				C430.976,301.644,429.25,301.539,429.126,302.787L429.126,302.787z"/>
			<path fill="#00B74E" d="M433.556,302.05c-0.582,2.365-1.124,5.754,0.743,7.578c1.363,1.333,3.32,0.3,3.153-1.712
				c-0.056-0.667-0.292-1.298-0.328-1.962c-0.044-0.837,0.097-1.682,0.295-2.49c0.288-1.168-0.12-2.393-1.24-2.801
				C435.194,300.304,433.843,300.88,433.556,302.05L433.556,302.05z"/>
		</g>
	</g>
	<g>
		<path fill="#FF7F95" d="M464.102,336.28c-2.992,28.596-5.37,51.532-37.445,57.628c-16.78,3.186-36.241,5.031-54.025,6.502
			c-16.008,1.339-32.408-0.09-48.484-0.304c-5.295-0.07-10.72-0.104-16.146-0.389c-7.061-0.349-14.082-1.121-20.761-2.898
			c-14.071-3.77-29.984-11.638-32.529-26.961c-1.65-9.858-1.971-20.571-1.769-31.081c0.069-4.711,0.264-9.4,0.465-13.932
			c1.341-28.945,3.248-57.873,3.928-86.84c0.232-9.654,0.321-19.303,0.222-28.962c-0.051-4.813-0.149-9.63-0.31-14.434
			c-0.848-25.224,0.914-42.172,29.854-45.09c24.245-2.451,48.223-6.021,72.515-9.542c25.167-3.659,52.338-3.857,76.945,2.91
			c11.906,3.265,21.304,9.555,22.555,22.183c1.513,15.183,2.428,30.599,3.164,46.101c0.562,11.452,1.026,22.962,1.587,34.446
			C465.298,275.197,467.178,306.774,464.102,336.28z"/>
		<path fill="#FF577B" d="M462.28,211.171c-7.426-8.982-25.058-9.569-35.212-7.748c-13.246,2.383-27.808,2.701-41.168-0.255
			c-9.687-2.142-27.939-15.888-36.695-10.168c-5.001,3.257-7.152,9.851-13.118,12.627c-6.195,2.903-16.396,4.455-23.143,4.375
			c-7.645-0.083-12.395-2.22-18.577-6.005c-5.909-3.625-10.041-7.43-16.404-5.672c-4.649,1.275-9.368,5.638-13.708,7.86
			c-2.163,1.104-4.466,1.932-6.696,2.859c-0.051-4.813-0.149-9.63-0.31-14.434c-0.848-25.224,0.914-42.172,29.854-45.09
			c24.245-2.451,48.223-6.021,72.515-9.542c25.167-3.659,52.338-3.857,76.945,2.91c11.906,3.265,21.304,9.555,22.555,22.183
			C460.629,180.253,461.544,195.669,462.28,211.171z"/>
		<path fill="#FFFFFF" d="M442.8,278.914c4.456,42.512-33.642,81.728-75.507,80.945c-22.761-0.426-43.691-5.798-60.9-21.669
			c-29.191-26.923-27.488-81.216,0.647-108.023c27.8-26.493,84.853-25.622,112.988-0.706
			C434.179,241.989,440.85,260.301,442.8,278.914z"/>
		<path fill="#E90029" d="M487.15,165.44c-4.503,15.148-20.988,23.069-35.318,23.792c-13.415,0.678-21.305-5.321-32.563-8.676
			c-4.094,10.802-23.997,16.156-35.886,13.417c-11.369-2.614-20.817-11.323-26.785-20.975c-5.968,13.353-16.896,27.998-33.84,25.73
			c-12.078-1.638-27.226-19.227-23.257-30.722c-8.314,7.165-11.999,18.359-24.958,20.486c-9.511,1.543-25.683,2.095-33.099-5.338
			c-10.298-10.345-4.866-22.093,2.614-33.792c0.551-0.851,1.102-1.7,1.669-2.55c9.668-14.645,20.974-29.068,6.975-40.438
			c-8.109-6.613-16.911-13.211-20.643-21.982c-2-4.677-2.567-9.983-0.834-16.234c3.715-13.4,18.958-16.864,30.878-19.242
			c34.659-6.913,70.167-8.676,105.581-6.929c27.036,1.339,59.05-4.094,84.811,4.724c15.431,5.259,18.218,20.99,13.353,35.004
			c-0.599,1.748-1.322,3.464-2.157,5.134c-3.434,6.88-13.574,14.266-12.046,22.107c1.606,8.282,13.431,12.298,19.1,17.116
			c0.692,0.583,1.37,1.181,2.032,1.78C483.468,137.553,491.765,149.931,487.15,165.44z"/>
		<path fill="#AA001D" d="M480.097,141.018c-7.684,6.141-12.628,18.989-24.28,17.353c-6.141-0.866-10.991-9.574-17.321-10.094
			c-6.015-0.488-7.621,7.055-14.172,6.346c-18.692-2.016,2.425-28.517-11.023-29.163c-3.716-0.173-8.361,3.464-11.809,4.566
			c-5.497,1.748-11.496,2.394-17.148,3.134c-13.841,1.795-27.998,1.134-41.902,2.534c-25.824,2.583-53.617-6.581-78.103,2.362
			c-6.487,2.378-12.565,5.496-18.612,8.756c9.668-14.645,20.974-29.068,6.975-40.438c-8.109-6.613-16.911-13.211-20.643-21.982
			c4.015,3.748,10.833,4.268,15.904,4.85c12.03,1.37,24.234,2.362,36.39,2.362c32.596,0,64.356-4,96.715-5.464
			c29.036-1.323,56.876-0.063,84.779-4.425c-0.599,1.748-1.322,3.464-2.157,5.134c-3.434,6.88-13.574,14.266-12.046,22.107
			c1.606,8.282,13.431,12.298,19.1,17.116c0.692,0.583,1.37,1.181,2.032,1.78C474.365,132.436,476.916,136.797,480.097,141.018z"/>
		<g>
			<path fill="#008C36" d="M339.198,268.074c-11.345,2.084-33.766-5.156-29.572-20.651c3.813-14.087,16.174-7.349,24.456-2.6
				c-0.112-6.575-5.07-22.309,5.545-24.693c9.234-2.077,11.989,10.801,13.814,17.025c0.241-5.5,4.57-22.956,12.493-21.188
				c6.228,1.388,5.824,13.825,5.189,18.239c1.312-5.379,6.464-23.748,13.62-13.2c7.831,11.544-16.633,38.538-24.095,44.376
				L339.198,268.074z"/>
			<path fill="#E90029" d="M401.673,346.599c-11.125,15.602-45.05,1.901-58.302-4.506c-17.584-8.501-35.562-23.548-35.051-44.86
				c0.604-25.184,38.158-42.971,58.61-48.24c18.923-4.874,44.656-2.426,51.741,19.18c5.518,16.826-0.878,40.974-7.261,56.913
				C408.749,331.726,405.67,340.995,401.673,346.599z"/>
			<path d="M336.042,301.439c1.434,3.45,3.505,7.628,6.397,10.076c1.293,1.094,2.981,1.483,4.519,0.583
				c1.366-0.801,2.265-2.649,1.714-4.212c-1.221-3.463-4.133-6.037-5.741-9.352C341.081,294.72,334.401,297.491,336.042,301.439
				L336.042,301.439z"/>
			<path d="M364.131,289.736c0.838,4.653,5.006,10.961,10.507,9.341c2.054-0.605,3.047-2.976,1.974-4.852
				c-0.909-1.588-2.354-2.567-3.371-3.596c-0.855-0.865,0.336,0.568-0.354-0.422c-0.225-0.324-0.412-0.674-0.598-1.021
				c-0.572-1.073,0.21,0.668-0.191-0.467c-0.127-0.358-0.215-0.729-0.301-1.098c-0.497-2.108-2.86-3.334-4.89-2.775
				C364.68,285.46,363.748,287.605,364.131,289.736L364.131,289.736z"/>
			<path d="M390.782,274.812c1.483,3.912,1.314,8.588,4.927,11.275c1.49,1.108,3.401,0.127,4.335-1.137
				c2.821-3.826,0.179-9.626-1.523-13.4C396.554,267.19,389.088,270.335,390.782,274.812L390.782,274.812z"/>
			<path d="M386.644,315.199c-0.203-1.408-0.071,0.228-0.044,0.495c0.113,1.051,0.375,2.056,0.554,3.093
				c-0.081-0.479,0.096,1.205,0.11,1.435c0.107,1.704,0.885,2.719,1.911,3.981c1.806,2.224,4.981,1.075,6.387-0.822
				c1.63-2.201,1.126-4.577,0.641-7.088c-0.382-1.972-1.157-3.729-2.636-5.124c-1.358-1.28-3.378-1.609-5.02-0.648
				C386.795,311.549,386.373,313.325,386.644,315.199L386.644,315.199z"/>
			<path d="M361.532,326.648c0.553,0.232,1.06,0.514,1.561,0.842c0.991,0.652-0.546-0.491,0.375,0.313
				c0.298,0.262,0.575,0.55,0.851,0.835c0.185,0.196,0.365,0.396,0.54,0.6c0.851,0.972-0.395-0.581,0.365,0.459
				c0.783,1.072,1.868,2.042,3.214,2.307c1.836,0.361,3.756-0.494,4.265-2.423c0.712-2.698-0.974-4.778-2.661-6.665
				c-1.204-1.346-2.733-2.583-4.392-3.312c-2.035-0.895-4.361-0.617-5.579,1.462C359.056,322.796,359.482,325.782,361.532,326.648
				L361.532,326.648z"/>
		</g>
		<path d="M253.474,119.536c6.675-0.159,13.229-1.435,19.992-1.427c7.203,0.008,14.359,0.224,21.561-0.066
			c17.508-0.704,34.985-2.011,52.489-2.807c34.159-1.553,68.6-1.925,102.79-1.495c5.192,0.065,5.192-8.125,0-8.053
			c-34.973,0.475-70.037,0.458-104.978,2.133c-17.503,0.839-34.979,2.177-52.488,2.924c-7.06,0.302-14.108,0.019-21.171,0.028
			c-6.062,0.008-14.431,0.089-19.577,3.664C249.978,115.907,250.576,119.606,253.474,119.536L253.474,119.536z"/>
		<path d="M452.061,105.778c-0.143-7.707-5.146-21.977,6.904-22.395c8.976-0.311,3.834,9.027,0.893,12.701
			c-3.038,3.796-6.729,7.235-10.947,9.669c-2.656,1.533-0.872,6.141,2.129,5.049c3.236-1.178,6.122-3.063,9.164-4.656
			c2.86-1.498,5.883-2.5,8.959-0.876c3.427,1.809,2.566,4.984,0.528,7.368c-8.146,9.532-15.486-2.564-21.424-7.972
			c-1.804-1.643-5.568-0.065-4.487,2.612c5.004,12.395,24.221,20.147,32.647,6.87c3.788-5.969-0.197-12.167-5.685-14.944
			c-7.146-3.615-16.009,3.151-21.832,6.55c1.116,1.446,2.232,2.893,3.349,4.338c7.868-6.452,24.966-24.982,8.683-31.702
			c-16.417-6.773-22.085,19.842-11.878,28.628C450.171,107.972,452.09,107.405,452.061,105.778L452.061,105.778z"/>
		<path d="M449.21,110.199c-2.49,7.961-4.253,15.829-2.762,24.279c1.072,6.078,4.26,17.165,11.318,18.458
			c0.87,0.16,2.105-0.413,1.961-1.494c-0.399-2.977-1.966-4.569-3.654-7.04c-2.335-3.416-3.508-7.386-4.24-11.409
			c-1.311-7.2-0.436-15.212-0.392-22.492C451.449,109.192,449.587,108.991,449.21,110.199L449.21,110.199z"/>
		<path d="M448.969,108.51c-6.993,2.631-10.936,10.659-13.864,17.057c-2.525,5.515-7.542,15.736-4.721,21.751
			c0.345,0.734,1.336,0.705,1.865,0.24c4.025-3.545,4.981-12.035,6.765-16.943c2.655-7.312,6.456-13.229,11.964-18.653
			C452.376,110.584,450.966,107.758,448.969,108.51L448.969,108.51z"/>
		<path fill="#FF577B" d="M255.145,74.609c0.357-1.279,0.685-1.875,1.579-3.133c-0.093,0.132,0.745-0.75,0.934-0.934
			c0.569-0.549,1.202-1.05,1.801-1.564c1.377-1.182,1.512-3.455,0.639-4.947c-1.2-2.047-3.57-2.409-5.585-1.464
			c-3.744,1.753-6.397,5.929-7.433,9.818C245.691,77.605,253.695,79.798,255.145,74.609L255.145,74.609z"/>
		<path fill="#FF577B" d="M271.07,77.45c2.417-1.479,5.185-2.589,7.345-4.394c2.412-2.015,0.459-6.315-2.552-6.16
			c-3.295,0.17-5.91,2.354-8.493,4.223c-1.615,1.169-2.398,3.165-1.315,5.016C267.05,77.831,269.365,78.493,271.07,77.45
			L271.07,77.45z"/>
		<path fill="#FF577B" d="M440.227,368.112c2.342-2.44,5.541-4.729,7.004-7.853c0.853-1.822-0.839-3.376-2.614-2.613
			c-3.313,1.42-6.729,3.011-9.428,5.428C431.774,366.134,437.03,371.446,440.227,368.112L440.227,368.112z"/>
		<path fill="#FF577B" d="M274.94,363.811c1.865,1.517,3.581,3.177,5.251,4.902c1.821,1.883,3.569,4.499,6.026,5.541
			c1.771,0.752,4.656-0.512,3.736-2.872c-0.995-2.551-3.097-4.37-4.937-6.346c-1.82-1.954-3.707-3.831-5.769-5.533
			C276.235,357.019,271.896,361.338,274.94,363.811L274.94,363.811z"/>
		<path fill="#FF577B" d="M292.097,356.713c1.477,2.354,3.206,4.517,5.373,6.271c1.981,1.604,4.958,3.648,7.62,2.628
			c0.988-0.379,1.56-1.434,0.988-2.428c-1.073-1.863-3.284-2.617-4.912-3.896c-1.838-1.443-3.237-3.299-4.432-5.286
			C294.949,351.038,290.254,353.776,292.097,356.713L292.097,356.713z"/>
	</g>
</g>
</svg>
