<svg version="1.1" id="Layer_1" xmlns="http://www.w3.org/2000/svg" xmlns:xlink="http://www.w3.org/1999/xlink" viewBox="0 0 768 430" enable-background="new 0 0 768 430" xml:space="preserve">
<linearGradient id="SVGID_1_" gradientUnits="userSpaceOnUse" x1="427.9473" y1="225.9287" x2="428.3756" y2="250.4677">
	<stop  offset="0" style="stop-color:#FFDC69"/>
	<stop  offset="1" style="stop-color:#FFFBC4"/>
</linearGradient>
<path fill-rule="evenodd" clip-rule="evenodd" fill="url(#SVGID_1_)" d="M445.631,236.507c-0.173-9.627-8.155-17.258-17.781-16.907
	c-9.627,0.295-17.314,8.397-17.197,18.08c0.177,9.627,8.154,17.258,17.781,16.965C438.056,254.293,445.804,246.189,445.631,236.507z
	"/>
<linearGradient id="SVGID_2_" gradientUnits="userSpaceOnUse" x1="401.8369" y1="269.9561" x2="402.1815" y2="289.6947">
	<stop  offset="0" style="stop-color:#FFDC69"/>
	<stop  offset="1" style="stop-color:#FFE687"/>
</linearGradient>
<path fill-rule="evenodd" clip-rule="evenodd" fill="url(#SVGID_2_)" d="M416.403,278.473c-0.119-7.748-6.696-13.852-14.616-13.613
	c-7.925,0.229-14.321,6.805-14.203,14.553c0.176,7.748,6.749,13.908,14.674,13.617C410.18,292.797,416.517,286.221,416.403,278.473z
	"/>
<linearGradient id="SVGID_3_" gradientUnits="userSpaceOnUse" x1="393.1797" y1="278.6836" x2="406.5155" y2="278.4508">
	<stop  offset="0" style="stop-color:#FFCA00"/>
	<stop  offset="1" style="stop-color:#F1B200"/>
</linearGradient>
<path fill-rule="evenodd" clip-rule="evenodd" fill="url(#SVGID_3_)" d="M413.231,278.178c0.061,5.811-4.869,10.744-11.033,10.918
	c-6.222,0.178-11.328-4.402-11.39-10.213c-0.113-5.812,4.814-10.682,11.034-10.92C408.007,267.789,413.115,272.365,413.231,278.178z
	"/>
<linearGradient id="SVGID_4_" gradientUnits="userSpaceOnUse" x1="264.3013" y1="224.1816" x2="508.9161" y2="224.1816">
	<stop  offset="0" style="stop-color:#FFC400"/>
	<stop  offset="0.7" style="stop-color:#F46100"/>
	<stop  offset="1" style="stop-color:#FFCB2D"/>
</linearGradient>
<path fill-rule="evenodd" clip-rule="evenodd" fill="url(#SVGID_4_)" d="M387.584,81.262l118.322,245.686
	c13.622,30.586-1.584,40.154-24.236,40.154h-94.086H277.823c-17.723-1.174-36.445-8.748-22.828-39.383L387.584,81.262"/>
<path fill-rule="evenodd" clip-rule="evenodd" fill="#FFE687" d="M387.229,72.985l103.946,250.622
	c13.679,30.576-1.116,34.572-23.711,34.572h-94.146l-76.771,0.412c-22.654,0-54.703-4.408-41.085-34.984L370.677,80.084"/>
<linearGradient id="SVGID_5_" gradientUnits="userSpaceOnUse" x1="387.1562" y1="313.9834" x2="387.1562" y2="88.3773">
	<stop  offset="0" style="stop-color:#FFD54C"/>
	<stop  offset="1" style="stop-color:#FFC400"/>
</linearGradient>
<path fill-rule="evenodd" clip-rule="evenodd" fill="url(#SVGID_5_)" d="M387.584,72.34l117.86,251.267
	c13.613,30.576-1.122,34.572-23.774,34.572h-94.086h-98.196c-22.654,0-33.338-3.996-19.72-34.572L387.584,72.34"/>
<linearGradient id="SVGID_6_" gradientUnits="userSpaceOnUse" x1="490.3906" y1="337.5723" x2="429.1208" y2="149.003">
	<stop  offset="0" style="stop-color:#FFE687"/>
	<stop  offset="1" style="stop-color:#FFD54C"/>
</linearGradient>
<path fill-rule="evenodd" clip-rule="evenodd" fill="url(#SVGID_6_)" d="M388.641,74.626l116.804,248.981
	c13.613,30.576-1.122,34.572-23.774,34.572h-4.7L387.466,74.336"/>
<g>
	<linearGradient id="SVGID_7_" gradientUnits="userSpaceOnUse" x1="453.3438" y1="280.5469" x2="453.5737" y2="293.7192">
		<stop  offset="0" style="stop-color:#FFDC69"/>
		<stop  offset="1" style="stop-color:#FFFBC4"/>
	</linearGradient>
	<path fill-rule="evenodd" clip-rule="evenodd" fill="url(#SVGID_7_)" d="M463.067,285.811c-0.122-5.17-4.523-9.277-9.806-9.1
		c-5.285,0.174-9.51,4.523-9.448,9.688c0.112,5.221,4.457,9.271,9.739,9.094C458.894,295.32,463.118,290.973,463.067,285.811z"/>
	<linearGradient id="SVGID_8_" gradientUnits="userSpaceOnUse" x1="447.7744" y1="286.1982" x2="456.6867" y2="286.0427">
		<stop  offset="0" style="stop-color:#FFCB2D"/>
		<stop  offset="1" style="stop-color:#F1B200"/>
	</linearGradient>
	<path fill-rule="evenodd" clip-rule="evenodd" fill="url(#SVGID_8_)" d="M460.894,285.865c0.061,4.053-3.229,7.455-7.341,7.572
		c-4.107,0.115-7.566-3.053-7.628-7.1c-0.06-3.99,3.286-7.393,7.394-7.576C457.431,278.65,460.832,281.818,460.894,285.865z"/>
	<linearGradient id="SVGID_9_" gradientUnits="userSpaceOnUse" x1="447.8145" y1="292.084" x2="458.659" y2="282.9843">
		<stop  offset="0" style="stop-color:#FFD54C"/>
		<stop  offset="1" style="stop-color:#FFCB2D"/>
	</linearGradient>
	<path fill-rule="evenodd" clip-rule="evenodd" fill="url(#SVGID_9_)" d="M460.832,287.1c-0.527,3.463-3.578,6.221-7.279,6.338
		c-3.697,0.115-6.805-2.408-7.511-5.867c0.585-3.463,3.642-6.164,7.276-6.336C457.016,281.113,460.184,283.697,460.832,287.1z"/>
</g>
<g>
	<linearGradient id="SVGID_10_" gradientUnits="userSpaceOnUse" x1="385.708" y1="197.395" x2="386.0122" y2="214.8203">
		<stop  offset="0" style="stop-color:#FFDC69"/>
		<stop  offset="1" style="stop-color:#FFE687"/>
	</linearGradient>
	<path fill-rule="evenodd" clip-rule="evenodd" fill="url(#SVGID_10_)" d="M398.557,205.163
		c-0.114-6.869-5.927-12.267-12.911-12.033c-6.981,0.238-12.62,5.986-12.501,12.856c0.117,6.865,5.928,12.263,12.912,12.034
		C393.043,217.785,398.674,211.972,398.557,205.163z"/>
	<linearGradient id="SVGID_11_" gradientUnits="userSpaceOnUse" x1="380.1367" y1="207.5342" x2="391.5577" y2="207.3348">
		<stop  offset="0" style="stop-color:#FFCA00"/>
		<stop  offset="1" style="stop-color:#F1B200"/>
	</linearGradient>
	<path fill-rule="evenodd" clip-rule="evenodd" fill="url(#SVGID_11_)" d="M397.737,207.098c0.058,4.991-4.169,9.16-9.508,9.337
		c-5.282,0.172-9.627-3.758-9.741-8.688c-0.062-4.99,4.163-9.215,9.447-9.393C393.218,198.182,397.618,202.112,397.737,207.098z"/>
	<linearGradient id="SVGID_12_" gradientUnits="userSpaceOnUse" x1="380.9233" y1="215.4028" x2="394.8444" y2="203.7217">
		<stop  offset="0" style="stop-color:#FFC609"/>
		<stop  offset="1" style="stop-color:#FFC400"/>
	</linearGradient>
	<path fill-rule="evenodd" clip-rule="evenodd" fill="url(#SVGID_12_)" d="M397.618,209.037c-0.701,4.459-4.636,7.982-9.332,8.1
		c-4.754,0.172-8.745-3.052-9.622-7.455c0.7-4.458,4.577-7.982,9.327-8.159C392.748,201.411,396.737,204.635,397.618,209.037z"/>
</g>
<g>
	<linearGradient id="SVGID_13_" gradientUnits="userSpaceOnUse" x1="406.3359" y1="291.9395" x2="406.9737" y2="328.4764">
		<stop  offset="0" style="stop-color:#FFDC69"/>
		<stop  offset="1" style="stop-color:#FFFBC4"/>
	</linearGradient>
	<path fill-rule="evenodd" clip-rule="evenodd" fill="url(#SVGID_13_)" d="M431.545,307.938
		c-0.233-13.912-11.621-24.945-25.356-24.479c-13.675,0.473-24.71,12.211-24.476,26.123c0.235,13.965,11.622,24.941,25.359,24.475
		C420.741,333.641,431.779,321.906,431.545,307.938z"/>
	<linearGradient id="SVGID_14_" gradientUnits="userSpaceOnUse" x1="392.4375" y1="314.4512" x2="417.098" y2="314.0207">
		<stop  offset="0" style="stop-color:#F98900"/>
		<stop  offset="1" style="stop-color:#F46100"/>
	</linearGradient>
	<path fill-rule="evenodd" clip-rule="evenodd" fill="url(#SVGID_14_)" d="M429.728,313.512
		c0.174,10.857-8.925,20.016-20.197,20.367c-11.323,0.41-20.656-8.16-20.831-19.016c-0.238-10.861,8.863-20.076,20.19-20.428
		C420.162,294.086,429.551,302.656,429.728,313.512z"/>
	<linearGradient id="SVGID_15_" gradientUnits="userSpaceOnUse" x1="396.9629" y1="332.5547" x2="422.1057" y2="302.5906">
		<stop  offset="0" style="stop-color:#FFC609"/>
		<stop  offset="1" style="stop-color:#FB9500"/>
	</linearGradient>
	<path fill-rule="evenodd" clip-rule="evenodd" fill="url(#SVGID_15_)" d="M429.484,317.27c-1.52,9.506-9.856,17.02-19.954,17.311
		c-10.15,0.354-18.722-6.627-20.48-16.02c1.47-9.506,9.803-17.021,19.9-17.314C419.101,300.891,427.672,307.82,429.484,317.27z"/>
	<linearGradient id="SVGID_16_" gradientUnits="userSpaceOnUse" x1="393.917" y1="318.0762" x2="405.7465" y2="317.8697">
		<stop  offset="0" style="stop-color:#FFEDA4"/>
		<stop  offset="1" style="stop-color:#FFC400"/>
	</linearGradient>
	<path fill-rule="evenodd" clip-rule="evenodd" fill="url(#SVGID_16_)" d="M406.778,317.742c-0.062-3.352-3.174-6.047-6.926-5.936
		c-3.818,0.121-6.81,2.996-6.81,6.398c0.056,3.35,3.225,6.047,6.982,5.93C403.782,324.018,406.834,321.139,406.778,317.742z"/>
</g>
<g>
	<linearGradient id="SVGID_17_" gradientUnits="userSpaceOnUse" x1="357.5913" y1="234.8877" x2="358.1123" y2="264.7346">
		<stop  offset="0" style="stop-color:#FFDC69"/>
		<stop  offset="1" style="stop-color:#FFFBC4"/>
	</linearGradient>
	<path fill-rule="evenodd" clip-rule="evenodd" fill="url(#SVGID_17_)" d="M379.072,247.602
		c-0.176-11.744-9.859-21.016-21.597-20.605c-11.741,0.412-21.133,10.272-20.897,22.008c0.176,11.744,9.861,21.02,21.598,20.604
		C369.917,269.258,379.309,259.336,379.072,247.602z"/>
	<linearGradient id="SVGID_18_" gradientUnits="userSpaceOnUse" x1="344.3149" y1="248.5381" x2="364.8271" y2="248.18">
		<stop  offset="0" style="stop-color:#FFB200"/>
		<stop  offset="1" style="stop-color:#FB9500"/>
	</linearGradient>
	<path fill-rule="evenodd" clip-rule="evenodd" fill="url(#SVGID_18_)" d="M374.846,247.773c0.176,9.156-7.337,16.904-16.726,17.197
		c-9.392,0.352-17.201-6.924-17.314-16.08c-0.179-9.215,7.336-16.963,16.725-17.258
		C366.922,231.338,374.729,238.562,374.846,247.773z"/>
	<linearGradient id="SVGID_19_" gradientUnits="userSpaceOnUse" x1="345.5464" y1="261.4863" x2="370.2451" y2="240.7616">
		<stop  offset="0" style="stop-color:#FFD54C"/>
		<stop  offset="1" style="stop-color:#FFCA00"/>
	</linearGradient>
	<path fill-rule="evenodd" clip-rule="evenodd" fill="url(#SVGID_19_)" d="M374.67,250.592c-1.234,7.865-8.157,14.143-16.55,14.379
		c-8.457,0.295-15.555-5.457-17.025-13.262c1.234-7.926,8.16-14.146,16.554-14.44C366.041,236.975,373.145,242.787,374.67,250.592z"
		/>
	<linearGradient id="SVGID_20_" gradientUnits="userSpaceOnUse" x1="345.0103" y1="249.9668" x2="354.3967" y2="249.8029">
		<stop  offset="0" style="stop-color:#FFEDA4"/>
		<stop  offset="1" style="stop-color:#FFCB2D"/>
	</linearGradient>
	<path fill-rule="evenodd" clip-rule="evenodd" fill="url(#SVGID_20_)" d="M355.065,249.709c-0.059-2.697-2.523-4.809-5.516-4.691
		c-2.991,0.061-5.459,2.346-5.401,5.047c0.062,2.645,2.524,4.752,5.515,4.691C352.661,254.645,355.065,252.354,355.065,249.709z"/>
</g>
<g>
	<linearGradient id="SVGID_21_" gradientUnits="userSpaceOnUse" x1="424.7285" y1="222.6709" x2="425.1354" y2="245.9833">
		<stop  offset="0" style="stop-color:#FFDC69"/>
		<stop  offset="1" style="stop-color:#FFFBC4"/>
	</linearGradient>
	<path fill-rule="evenodd" clip-rule="evenodd" fill="url(#SVGID_21_)" d="M441.285,232.576
		c-0.113-9.159-7.627-16.436-16.666-16.141c-8.978,0.289-16.257,8.037-16.085,17.192c0.179,9.216,7.633,16.437,16.67,16.142
		C434.246,249.479,441.462,241.728,441.285,232.576z"/>
	<linearGradient id="SVGID_22_" gradientUnits="userSpaceOnUse" x1="414.3916" y1="233.0508" x2="430.629" y2="232.7673">
		<stop  offset="0" style="stop-color:#F98900"/>
		<stop  offset="1" style="stop-color:#F46100"/>
	</linearGradient>
	<path fill-rule="evenodd" clip-rule="evenodd" fill="url(#SVGID_22_)" d="M438.411,232.455c0.121,7.16-5.87,13.15-13.264,13.381
		c-7.454,0.297-13.618-5.338-13.733-12.502c-0.117-7.16,5.864-13.203,13.267-13.439C432.135,219.66,438.294,225.296,438.411,232.455
		z"/>
	<linearGradient id="SVGID_23_" gradientUnits="userSpaceOnUse" x1="416.5625" y1="245.3574" x2="433.11" y2="225.6368">
		<stop  offset="0" style="stop-color:#FFD54C"/>
		<stop  offset="1" style="stop-color:#F98900"/>
	</linearGradient>
	<path fill-rule="evenodd" clip-rule="evenodd" fill="url(#SVGID_23_)" d="M438.294,234.918
		c-0.996,6.225-6.515,11.215-13.146,11.393c-6.692,0.23-12.328-4.346-13.501-10.51c1-6.281,6.455-11.211,13.151-11.444
		C431.424,224.123,437.06,228.698,438.294,234.918z"/>
	<linearGradient id="SVGID_24_" gradientUnits="userSpaceOnUse" x1="415.1162" y1="235.0195" x2="425.4971" y2="234.8383">
		<stop  offset="0" style="stop-color:#FFEDA4"/>
		<stop  offset="1" style="stop-color:#FFC400"/>
	</linearGradient>
	<path fill-rule="evenodd" clip-rule="evenodd" fill="url(#SVGID_24_)" d="M426.85,234.689c0-2.939-2.758-5.285-6.108-5.17
		c-3.28,0.117-5.921,2.646-5.921,5.58c0.057,2.992,2.813,5.338,6.1,5.221C424.266,240.203,426.905,237.68,426.85,234.689z"/>
</g>
<g>
	<linearGradient id="SVGID_25_" gradientUnits="userSpaceOnUse" x1="386.9717" y1="142.7852" x2="387.3541" y2="164.6939">
		<stop  offset="0" style="stop-color:#FFDC69"/>
		<stop  offset="1" style="stop-color:#FFFBC4"/>
	</linearGradient>
	<path fill-rule="evenodd" clip-rule="evenodd" fill="url(#SVGID_25_)" d="M402.726,152.047
		c-0.116-8.393-7.218-15.029-15.849-14.734c-8.568,0.294-15.436,7.397-15.317,15.791c0.117,8.393,7.278,15.025,15.848,14.73
		C395.977,167.539,402.898,160.497,402.726,152.047z"/>
	<linearGradient id="SVGID_26_" gradientUnits="userSpaceOnUse" x1="376.8999" y1="152.7529" x2="392.3641" y2="152.483">
		<stop  offset="0" style="stop-color:#F98900"/>
		<stop  offset="1" style="stop-color:#F46100"/>
	</linearGradient>
	<path fill-rule="evenodd" clip-rule="evenodd" fill="url(#SVGID_26_)" d="M400.025,152.164c0.116,6.926-5.575,12.734-12.675,12.973
		c-7.048,0.229-12.916-5.229-13.031-12.15c-0.119-6.93,5.577-12.74,12.62-12.977C394.038,139.78,399.908,145.238,400.025,152.164z"
		/>
	<linearGradient id="SVGID_27_" gradientUnits="userSpaceOnUse" x1="379.3389" y1="164.0669" x2="395.0888" y2="145.2968">
		<stop  offset="0" style="stop-color:#FFD54C"/>
		<stop  offset="1" style="stop-color:#F98900"/>
	</linearGradient>
	<path fill-rule="evenodd" clip-rule="evenodd" fill="url(#SVGID_27_)" d="M399.853,154.276c-0.94,5.986-6.164,10.683-12.502,10.86
		c-6.344,0.229-11.684-4.112-12.799-10.042c0.938-5.922,6.105-10.623,12.444-10.856
		C393.335,144.061,398.735,148.407,399.853,154.276z"/>
	<linearGradient id="SVGID_28_" gradientUnits="userSpaceOnUse" x1="377.6206" y1="153.8657" x2="386.4638" y2="153.7114">
		<stop  offset="0" style="stop-color:#FFEDA4"/>
		<stop  offset="1" style="stop-color:#FFC609"/>
	</linearGradient>
	<path fill-rule="evenodd" clip-rule="evenodd" fill="url(#SVGID_28_)" d="M387.701,153.571c0-2.523-2.346-4.458-5.164-4.398
		c-2.817,0.113-5.107,2.229-5.049,4.752c0,2.52,2.346,4.52,5.163,4.459C385.47,158.268,387.76,156.155,387.701,153.571z"/>
</g>
<g>
	<linearGradient id="SVGID_29_" gradientUnits="userSpaceOnUse" x1="316.1035" y1="297.6592" x2="316.5227" y2="321.6721">
		<stop  offset="0" style="stop-color:#FFDC69"/>
		<stop  offset="1" style="stop-color:#FFE687"/>
	</linearGradient>
	<path fill-rule="evenodd" clip-rule="evenodd" fill="url(#SVGID_29_)" d="M333.818,308.287
		c-0.174-9.449-8.159-16.902-17.784-16.547c-9.684,0.289-17.372,8.271-17.255,17.721c0.177,9.393,8.159,16.846,17.844,16.553
		C326.246,325.658,333.994,317.742,333.818,308.287z"/>
	<linearGradient id="SVGID_30_" gradientUnits="userSpaceOnUse" x1="305.1655" y1="308.54" x2="321.5565" y2="308.2539">
		<stop  offset="0" style="stop-color:#FFCA00"/>
		<stop  offset="1" style="stop-color:#FB9500"/>
	</linearGradient>
	<path fill-rule="evenodd" clip-rule="evenodd" fill="url(#SVGID_30_)" d="M329.944,307.938c0.12,7.043-5.927,13.029-13.442,13.264
		c-7.512,0.232-13.732-5.342-13.847-12.385c-0.119-7.1,5.925-13.029,13.439-13.324C323.608,295.26,329.827,300.834,329.944,307.938z
		"/>
	<linearGradient id="SVGID_31_" gradientUnits="userSpaceOnUse" x1="306.4565" y1="319.4102" x2="326.232" y2="302.8166">
		<stop  offset="0" style="stop-color:#FFC609"/>
		<stop  offset="1" style="stop-color:#FFC400"/>
	</linearGradient>
	<path fill-rule="evenodd" clip-rule="evenodd" fill="url(#SVGID_31_)" d="M329.769,310.695
		c-0.998,6.275-6.517,11.328-13.267,11.504c-6.689,0.234-12.382-4.4-13.613-10.625c0.996-6.338,6.573-11.328,13.263-11.562
		C322.903,299.777,328.596,304.414,329.769,310.695z"/>
</g>
</svg>
