<?xml version="1.0" encoding="utf-8"?>
<!-- Generator: Adobe Illustrator 16.0.0, SVG Export Plug-In . SVG Version: 6.00 Build 0)  -->
<!DOCTYPE svg PUBLIC "-//W3C//DTD SVG 1.1//EN" "http://www.w3.org/Graphics/SVG/1.1/DTD/svg11.dtd">
<svg version="1.1" id="Layer_1" xmlns="http://www.w3.org/2000/svg" xmlns:xlink="http://www.w3.org/1999/xlink" x="0px" y="0px"
	 width="768px" height="430px" viewBox="0 0 768 430" enable-background="new 0 0 768 430" xml:space="preserve">
<g>
	<path fill="#9E644E" d="M120.2,225.387l57.442-23.313c10.481,0.952,20.771,0.495,31.253,1.447
		c15.395,9.636,30.98,20.683,46.376,30.32c6.804,1.954,13.671,3.828,20.47,5.712c22.768-5.457,45.544-10.844,68.311-16.298
		c17.855-2.995,36.569-8.118,51.672-2.758c21.689,0.372,38.795,8.84,51.399,25.467c-0.848,4.359,107.591,41.733,118.867,24.674
		c9.963-9.76,57.634-21.901,57.634-21.901l17.313,13.188c-23.119,9.749-46.252,19.424-69.303,29.161
		c-17.893,0.051-35.715,0.093-53.538,0.135c0,0-45.731-14.947-55.957-17.733c-10.305-2.849-36.613-20.354-36.613-20.354
		c-8.228-4.996-16.383-10.004-24.606-15.002c-17.944,2.86-35.807,5.782-53.681,8.637c-21.141,6.314-39.978,14.26-70.026,13.729
		c-13.184-3.395-26.296-6.796-39.47-10.117c-9.031-7.766-18.053-15.458-27.073-23.154c1.996-5.949-31.821-9.352-55.909,3.33
		c-20.755,2.812-34.56-5.169-34.56-5.169"/>
	<path fill="#A46A53" d="M120.2,225.387l57.442-23.313c10.481,0.952,20.771,0.495,31.253,1.447
		c15.395,9.636,30.98,20.683,46.376,30.32c6.804,1.954,13.671,3.828,20.47,5.712c22.768-5.457,45.544-10.844,68.311-16.298
		c17.855-2.995,36.569-8.118,51.672-2.758c21.689,0.372,38.795,8.84,51.399,25.467c-0.848,4.359,107.591,41.733,118.867,24.674
		c9.963-9.76,57.634-21.901,57.634-21.901c5.772,4.397,8.205,8.023,13.976,12.417c-23.121,9.748-42.143,16.856-65.205,26.521
		c-17.893,0.051-36.082,0.572-53.895,0.684c0,0-44.206-12.708-54.44-15.564c-10.235-2.856-36.096-22.867-36.096-22.867
		c-8.224-4.999-18.878-7.222-27.102-12.22c-17.935,2.933-36.777,1.815-54.639,4.738c-21.083,6.234-39.099,14.93-69.149,14.4
		c-13.112-3.401-25.287-5.708-38.469-9.099c-9.022-7.695-17.62-15.446-26.643-23.141c1.998-5.953-34.537-8.194-58.615,4.559
		C132.595,231.976,120.199,225.387,120.2,225.387"/>
	<path fill="#AB715C" d="M120.2,225.387l57.442-23.313c10.481,0.952,20.771,0.495,31.253,1.447
		c15.395,9.636,30.98,20.683,46.376,30.32c6.804,1.954,13.671,3.828,20.47,5.712c22.768-5.457,45.544-10.844,68.311-16.298
		c17.855-2.995,36.569-8.118,51.672-2.758c21.689,0.372,38.795,8.84,51.399,25.467c-0.848,4.359,107.591,41.733,118.867,24.674
		c9.963-9.76,57.634-21.901,57.634-21.901c5.772,4.397,5.168,7.355,10.938,11.753c-23.132,9.674-38.368,14.47-61.496,24.146
		c-17.812,0.111-36.38,1.045-54.201,1.087c0,0-42.779-10.672-53.088-13.52c-10.233-2.855-35.683-25.151-35.683-25.151
		c-8.154-5.008-21.054-4.698-29.278-9.696c-17.934,2.932-37.615-1.735-55.479,1.184c-21.153,6.245-38.295,15.542-68.344,15.011
		c-13.113-3.403-24.428-4.673-37.541-8.076c-9.022-7.692-17.336-15.484-26.367-23.249c2.007-5.88-36.905-7.08-60.991,5.6
		c-20.826,2.82-31.889-2.438-31.889-2.438"/>
	<path fill="#B27763" d="M120.2,225.387l57.442-23.313c10.481,0.952,20.771,0.495,31.253,1.447
		c15.395,9.636,30.98,20.683,46.376,30.32c6.804,1.954,13.671,3.828,20.47,5.712c22.768-5.457,45.544-10.844,68.311-16.298
		c17.855-2.995,36.569-8.118,51.672-2.758c21.689,0.372,38.795,8.84,51.399,25.467c-0.848,4.359,107.591,41.733,118.867,24.674
		c9.963-9.76,57.634-21.901,57.634-21.901c5.772,4.397,2.421,6.722,8.19,11.115c-23.132,9.679-34.987,12.361-58.118,22.038
		c-17.883,0.119-36.621,1.365-54.505,1.485c0,0-41.534-8.898-51.841-11.745c-10.235-2.856-35.235-27.155-35.235-27.155
		c-8.226-4.998-23.125-2.476-31.348-7.475c-17.937,2.935-38.402-4.865-56.273-2.015c-21.072,6.306-37.495,16.152-67.545,15.619
		c-13.113-3.398-23.668-3.839-36.78-7.24c-9.092-7.685-16.987-15.534-26.007-23.229c1.996-5.951-39.157-6.2-63.241,6.551
		c-20.752,2.812-30.728-1.3-30.728-1.3"/>
	<path fill="#BD846F" d="M120.2,225.387l57.442-23.313c10.481,0.952,20.771,0.495,31.253,1.447
		c15.395,9.636,30.98,20.683,46.376,30.32c6.804,1.954,13.671,3.828,20.47,5.712c22.768-5.457,45.544-10.844,68.311-16.298
		c17.855-2.995,36.569-8.118,51.672-2.758c21.689,0.372,38.795,8.84,51.399,25.467c-0.848,4.359,107.591,41.733,118.867,24.674
		c9.963-9.76,57.634-21.901,57.634-21.901c5.772,4.397-0.104,6.128,5.667,10.525c-23.121,9.746-31.94,10.438-55.062,20.183
		c-17.823,0.041-36.866,1.688-54.688,1.727c0,0-40.438-7.176-50.674-10.035c-10.307-2.847-34.99-29.056-34.99-29.056
		c-8.153-5.008-24.924-0.365-33.147-5.363c-17.935,2.932-39.093-7.864-56.958-4.94c-21.081,6.235-36.852,16.64-66.899,16.108
		c-13.113-3.401-22.908-3.009-36.091-6.402c-9.022-7.693-16.632-15.579-25.734-23.334c2.078-5.89-41.036-5.229-65.2,7.464
		c-20.753,2.812-29.649-0.226-29.649-0.226"/>
	<path fill="#44944E" d="M254.42,176.067c-13.717,9.121-27.956,13.854-42.342,18.031c-5.466-2.136-10.667-1.792-15.533,1.024
		c-2.541,3.005-4.953,7.502-7.271,12.131c2.185,2.867,3.393,1.698,6.76,1.098c-0.728-3.786,1.984-3.937,5.013-4.923
		c2.179-0.366,4.462,0.043,6.932,1.292c1.832,4.498,3.144,8.347,1.788,13.203c-2.755,3.537-0.014,4.676,8.218,3.346
		c1.57-5.391,3.061-10.84,4.551-16.292c13.398-4.042,25.44-10.133,36.838-17.284c5.903,0.062,9.538-5.463,12.919-11.818
		C266.339,175.962,260.375,175.979,254.42,176.067"/>
	<path fill="#44944E" d="M392.354,192.911c4.082,6.782,8.782,12.831,9.578,24.014c-3.443-1.546-6.543-2.133-7.147,3.485
		c7.149,1.837,13.237,4.319,11.639,11.078l1.52,11.228c5.612,2.691,9.204-1.03,11.41-9.165c-1.504-5.263-3.076-10.514-4.662-15.837
		c-2.383-14.419-4.778-28.908-7.171-43.395C402.469,180.54,397.405,186.69,392.354,192.911"/>
	<path fill="#FDD605" d="M251.725,103.593c5.984-5.702,11.979-11.332,17.964-17.032c2.625-7.688,158.17,26.686,163.535,38.682
		c5.896,10.636,24.333,34.745,47.121,100.042c15.868,65.155,49.495,96.335,63.492,104.151
		c-10.907,6.511,50.716,50.151,95.501,22.512c33.951-21.064,22.049-24.558,27.337-22.686c0,0,10.34,20.102-30.424,37.056
		c-38.209,7.689-70.369,13.34-100.014-18.168c-60.231-45.049-113.382-126.443-112.186-126.605
		c-4.913-8.683-12.172-24.596-17.146-33.2c-14.101,7.879-29.074,12.496-50.179-5.858c0.784,5.789-74.214,12.566-79.812-0.625
		c-9.451,5.594-40.459-8.397-37.57-15.19c4.132-20.979,8.254-42.031,12.377-63.082"/>
	<path fill="#D5CA15" d="M251.725,103.593c5.984-5.702,11.979-11.332,17.964-17.032c2.625-7.688,158.17,26.686,163.535,38.682
		c5.896,10.636,24.489,33.787,47.289,99.155c15.737,65.246,48.164,95.013,63.324,105.038c-5.008,8.657,50.716,50.151,95.501,22.512
		c33.951-21.064,22.049-24.558,27.337-22.686c0,0,10.34,20.102-30.424,37.056c-38.209,7.689-70.005,11.782-99.641-19.655
		c-60.163-45.062-111.314-127.085-110.111-127.249c-4.975-8.601-13.887-26.088-18.861-34.691
		c-14.173,7.887-29.591,11.342-50.695-7.011c0.784,5.788-74.531,12.322-80.129-0.869c-9.381,5.584-37.585-7.352-34.686-14.071
		c4.122-21.052,5.475-38.132,9.597-59.184"/>
	<path fill="#B1BD25" d="M251.725,103.593c5.984-5.702,11.979-11.332,17.964-17.032c2.625-7.688,158.17,26.686,163.535,38.682
		c5.896,10.636,24.665,32.972,47.465,98.338c15.615,65.404,46.854,93.823,63.148,105.854c0.438,10.653,50.716,50.151,95.501,22.512
		c33.951-21.064,22.049-24.558,27.337-22.686c0,0,10.34,20.102-30.424,37.056c-38.209,7.689-69.694,10.374-99.252-21.073
		C476.766,300.192,427.482,217.631,428.68,217.47c-4.976-8.604-15.438-27.462-20.422-36.136
		c-14.172,7.888-30.016,10.32-51.042-7.972c0.784,5.791-74.923,12.089-80.446-1.111c-9.46,5.522-35.074-6.323-32.175-13.046
		c4.121-21.049,3.01-34.561,7.133-55.612"/>
	<path fill="#8EB233" d="M251.725,103.593c5.984-5.702,11.979-11.332,17.964-17.032c2.625-7.688,158.17,26.686,163.535,38.682
		c5.896,10.636,24.782,32.238,47.574,97.537c15.634,65.55,45.771,92.743,63.039,106.656c5.432,12.494,50.716,50.151,95.501,22.512
		c33.951-21.064,22.049-24.558,27.337-22.686c0,0,10.34,20.102-30.424,37.056c-38.209,7.689-69.357,9.105-98.932-22.411
		c-60.233-45.052-107.847-128.054-106.649-128.216c-4.974-8.604-16.837-28.785-21.812-37.386
		c-14.184,7.816-30.363,9.363-51.469-8.992c0.784,5.79-75.161,11.905-80.689-1.295c-9.458,5.523-32.723-5.421-29.751-12.15
		c4.05-21.042,0.658-31.224,4.781-52.276"/>
	<path fill="#68A241" d="M251.725,103.593c5.984-5.702,11.979-11.332,17.964-17.032c2.625-7.688,158.17,26.686,163.535,38.682
		c5.896,10.636,24.969,31.493,47.688,96.799c15.504,65.638,44.711,91.811,62.925,107.394c10.043,14.169,50.716,50.151,95.501,22.512
		c33.951-21.064,22.049-24.558,27.337-22.686c0,0,10.34,20.102-30.424,37.056c-38.209,7.689-69.021,7.908-98.666-23.597
		c-60.162-45.062-106.254-128.488-105.057-128.65c-4.975-8.603-18.159-30.043-23.134-38.644
		c-14.174,7.886-30.769,8.481-51.804-9.883c0.793,5.862-75.405,11.722-81.003-1.468c-9.39,5.515-30.443-4.506-27.554-11.297
		c4.121-21.051-1.438-28.134,2.685-49.186"/>
	<path fill="#44944E" d="M251.725,103.593c5.984-5.702,11.979-11.332,17.964-17.032c2.625-7.688,158.17,26.686,163.535,38.682
		c5.896,10.636,25.093,30.829,47.813,96.137c15.443,65.717,43.721,90.867,62.8,108.056c14.352,15.743,50.716,50.151,95.501,22.512
		c33.951-21.064,22.049-24.558,27.337-22.686c0,0,10.34,20.102-30.424,37.056c-38.209,7.689-68.74,6.792-98.386-24.716
		c-60.161-45.061-104.8-128.896-103.598-129.059c-4.976-8.602-19.392-31.168-24.365-39.771c-14.172,7.888-31.095,7.663-52.13-10.701
		c0.785,5.791-75.644,11.54-81.241-1.653c-9.39,5.517-28.404-3.774-25.504-10.495c4.123-21.051-3.424-25.277,0.699-46.328"/>
	<path fill="#429B4B" d="M251.725,103.593c5.984-5.702,11.656-8.411,17.65-14.04c2.625-7.69,156.936,26.059,162.311,38.127
		c5.888,10.564,24.428,31.208,47.228,96.576c15.563,65.558,45.313,92.013,62.881,106.534c7.098,13.134,54.41,50.372,99.271,22.797
		c33.872-21.126,20.319-26.193,25.605-24.322c0,0,10.341,20.102-30.422,37.057c-38.21,7.689-68.741,6.793-98.386-24.715
		c-60.162-45.063-104.802-128.897-103.598-129.06c-4.977-8.603-19.393-31.168-24.367-39.772c-14.17,7.888-31.094,7.663-52.127-10.7
		c0.784,5.791-75.645,11.54-81.242-1.653c-9.39,5.516-28.404-3.775-25.505-10.495c4.124-21.051-3.424-25.277,0.7-46.329"/>
	<path fill="#43A547" d="M251.725,103.593c5.984-5.702,11.374-5.713,17.369-11.343c2.616-7.759,155.862,25.56,161.227,37.557
		c5.896,10.635,23.851,31.716,46.641,97.01c15.616,65.405,46.768,93.186,63.06,105.218c0.518,10.715,57.747,50.566,102.529,22.928
		c33.884-21.054,18.839-27.573,24.125-25.702c0,0,10.341,20.102-30.422,37.055c-38.209,7.69-68.741,6.793-98.386-24.713
		c-60.161-45.063-104.801-128.896-103.599-129.06c-4.975-8.603-19.391-31.169-24.365-39.772
		c-14.171,7.888-31.095,7.663-52.13-10.701c0.785,5.792-75.643,11.54-81.24-1.653c-9.391,5.517-28.405-3.775-25.504-10.495
		c4.123-21.051-3.424-25.277,0.699-46.329"/>
	<path fill="#40AE42" d="M251.725,103.593c5.984-5.702,11.054-3.295,17.049-8.924c2.625-7.692,154.928,25.035,160.372,37.098
		c5.828,10.645,23.252,32.083,46.044,97.383c15.746,65.312,48.118,94.152,63.182,103.979c-5.454,8.574,60.727,50.812,105.577,23.163
		c33.884-21.056,17.438-28.896,22.724-27.024c0,0,10.342,20.101-30.422,37.057c-38.209,7.689-68.741,6.793-98.385-24.716
		c-60.162-45.061-104.802-128.896-103.599-129.059c-4.976-8.604-19.391-31.168-24.367-39.772
		c-14.169,7.889-31.094,7.664-52.127-10.7c0.784,5.791-75.644,11.54-81.242-1.653c-9.39,5.516-28.404-3.775-25.504-10.495
		c4.123-21.051-3.424-25.278,0.699-46.33"/>
	<path fill="#40B93C" d="M251.725,103.593c5.984-5.702,10.855-1.04,16.843-6.741c2.623-7.69,154.012,24.659,159.457,36.719
		c5.817,10.575,22.715,32.374,45.515,97.746c15.871,65.154,49.393,95.058,63.32,102.877c-10.907,6.509,63.476,50.943,108.324,23.293
		c33.884-21.055,16.199-30.093,21.485-28.222c0,0,10.342,20.102-30.424,37.055c-38.208,7.689-68.74,6.793-98.384-24.713
		c-60.163-45.063-104.802-128.898-103.6-129.062c-4.975-8.602-19.391-31.167-24.366-39.771c-14.169,7.888-31.094,7.663-52.128-10.7
		c0.785,5.791-75.643,11.541-81.242-1.653c-9.389,5.516-28.404-3.775-25.504-10.496c4.124-21.051-3.424-25.277,0.7-46.329"/>
	<path fill="#FDD605" d="M205.876,114.335c-5.92,5.118-18.863,19.958-18.863,19.958l-7.765,1.052c0,0-5.986,3.04-3.75,7.339
		c2.305,4.288,1.955,1.172,2.538,2.818l1.332,3.99c0,0,9.93,17.063,24.04,20.402c14.121,3.409,36.993-2.35,36.993-2.35
		s11.37-25.917,13.66-35C258.2,116.383,241.815,83.51,205.876,114.335"/>
	<path fill="#E1CC10" d="M205.74,113.347c-5.949,4.903-18.914,20.105-18.914,20.105c-2.604,0.424-5.195,0.921-7.718,1.406
		c0,0-6.048,3.12-3.759,7.269c2.286,4.148,2.115,1.295,2.58,2.599c0.314,1.252,0.626,2.504,1.009,3.746
		c0,0,10.033,15.684,24.056,18.385c14.025,2.703,36.84-3.479,36.84-3.479s11.543-24.646,13.9-33.232
		C257.987,114.826,241.774,83.227,205.74,113.347"/>
	<path fill="#C6C51C" d="M205.597,112.286c-5.958,4.834-19.028,20.338-19.028,20.338c-2.502,0.627-5.086,1.193-7.588,1.818
		c0,0-6.109,3.202-3.779,7.128c2.337,3.996,2.204,1.426,2.641,2.517c0.224,1.121,0.457,2.313,0.689,3.501
		c0,0,10.133,14.304,24.07,16.372c13.938,2.066,36.715-4.397,36.715-4.397s11.686-23.586,14.11-31.682
		C257.786,113.344,241.726,82.873,205.597,112.286"/>
	<path fill="#ADBB27" d="M205.472,111.368c-5.968,4.765-19.07,20.56-19.07,20.56c-2.493,0.699-5.057,1.404-7.55,2.102
		c0,0-6.169,3.28-3.791,7.057c2.379,3.776,2.357,1.479,2.695,2.367c0.073,1.07,0.217,2.128,0.37,3.258
		c0,0,10.251,13.065,24.112,14.567c13.854,1.432,36.582-5.386,36.582-5.386s11.839-22.457,14.311-30.198
		C257.595,111.932,241.688,82.59,205.472,111.368"/>
	<path fill="#92B132" d="M205.357,110.52c-5.987,4.623-19.121,20.711-19.121,20.711c-2.482,0.769-5.04,1.545-7.512,2.384
		c0,0-6.23,3.361-3.799,6.986c2.431,3.626,2.517,1.6,2.746,2.216c-0.009,1.009,0.054,2.006,0.057,3.085
		c0,0,10.382,11.896,24.167,12.833c13.777,0.866,36.457-6.305,36.457-6.305s11.982-21.397,14.512-28.714
		C257.422,110.66,241.65,82.309,205.357,110.52"/>
	<path fill="#77A83C" d="M205.243,109.673c-5.997,4.553-19.172,20.862-19.172,20.862c-2.464,0.909-5,1.828-7.464,2.737
		c0,0-6.291,3.439-3.809,6.915c2.483,3.476,2.598,1.662,2.797,2.064c-0.089,0.948-0.176,1.895-0.192,2.833
		c0,0,10.45,10.807,24.158,11.182c13.708,0.374,36.352-7.081,36.352-7.081s12.106-20.48,14.684-27.445
		C257.25,109.389,241.611,82.025,205.243,109.673"/>
	<path fill="#5E9E45" d="M205.137,108.897c-6.016,4.41-19.224,21.012-19.224,21.012c-2.454,0.98-4.981,1.969-7.435,2.949
		c0,0-6.344,3.591-3.809,6.915c2.465,3.335,2.749,1.713,2.849,1.917c-0.169,0.885-0.336,1.77-0.502,2.654
		c0,0,10.597,9.783,24.238,9.661c13.644-0.122,36.238-7.927,36.238-7.927s12.231-19.561,14.866-26.101
		C257.097,108.259,241.583,81.814,205.137,108.897"/>
	<path fill="#44944E" d="M205.035,108.118c-6.026,4.339-19.205,21.153-19.205,21.153l-7.46,3.311c0,0-6.343,3.591-3.826,6.776
		c2.526,3.252,2.91,1.834,2.91,1.834l-0.746,2.473c0,0,10.677,8.765,24.252,8.15c13.573-0.615,36.131-8.707,36.131-8.707
		s12.355-18.641,15.028-24.901C256.947,107.127,241.546,81.528,205.035,108.118"/>
	<path fill="#479B49" d="M205.243,109.673c-8.553,4.251-21.172,21.491-17.448,23.504c-2.527,0.99-6.827-0.513-9.264,0.607
		c-0.512-0.074-5.751,2.649-4.027,5.291c1.692,2.935,2.644,3.597,2.987,3.479c-0.116,0.735,0.069,1.572-0.065,2.166
		c0.604,0.205,8.313,6.711,18.632,6.464c9.644-0.444,27.229-3.831,31.41-3.75c4.252,0.071,16.73-13.411,21.275-19.133
		c4.39-5.269,4.662-16.522-1.021-21.865C241.932,100.318,228.961,92.656,205.243,109.673"/>
	<path fill="#4BA342" d="M205.434,111.085c-10.872,4.134-22.866,21.723-15.871,25.593c-2.536,0.919-8.442-2.883-10.889-1.834
		c-0.937-0.016-5.211,1.858-4.2,4.02c0.938,2.678,2.493,5.128,3.107,4.902c0.015,0.645,0.564,1.503,0.471,1.875
		c1.205,0.413,6.27,4.905,13.624,5.06c6.137-0.329,19.189,0.492,27.188,0.632c8.005,0.209,20.594-8.758,26.928-14.001
		c6.154-5.003,9.048-18.125,5.204-24.22C247.012,105.454,234.083,90.667,205.434,111.085"/>
	<path fill="#52AD39" d="M205.606,112.356c-12.964,4.059-24.418,21.931-14.395,27.479c-2.614,0.855-9.957-5.053-12.403-4.002
		c-1.308-0.11-4.742,1.074-4.433,2.829c0.255,2.411,2.401,6.58,3.35,6.163c0.006,0.574,0.997,1.52,0.945,1.67
		c1.73,0.556,4.401,3.287,9.051,3.664c2.933-0.111,11.887,4.431,23.349,4.674c11.394,0.255,24.062-4.408,31.955-9.289
		c7.833-4.798,13.087-19.605,10.951-26.362C251.603,110.154,238.731,88.888,205.606,112.356"/>
	<path fill="#5AB930" d="M205.759,113.488c-14.91,4.032-25.831,22.121-13.067,29.309c-2.626,0.788-11.313-7.096-13.759-6.045
		c-1.671-0.135-4.333,0.369-4.586,1.698c-0.348,2.205,2.219,7.897,3.452,7.444c0.137,0.485,1.411,1.39,1.411,1.39
		c2.182,0.713,2.687,1.793,4.859,2.436c0,0,5.261,8.058,19.826,8.387c14.564,0.33,27.387-0.546,36.618-5.103
		c9.313-4.497,16.796-20.9,16.153-28.292C255.844,114.397,242.974,87.306,205.759,113.488"/>
	<path fill="#44944E" d="M224.371,111.323c0,0-0.121-12.567,11.168-14.672c11.301-2.031,18.783-4.629,18.783-4.629
		s1.548,3.46,2.036,7.06c0.497,3.67-1.425,12.847-1.425,12.847l-4.526,9.027l-9.749,6.067c0,0-5.509,5.492-8.125,2.105
		C229.999,125.806,224.371,111.323,224.371,111.323"/>
	<path fill="#3E994C" d="M225.998,111.102c0,0-0.13-11.557,10.191-13.388c10.31-1.9,17.249-4.277,17.249-4.277
		s1.367,3.194,1.816,6.514c0.44,3.249-1.293,11.68-1.293,11.68c-1.35,2.772-2.781,5.48-4.201,8.263
		c-2.914,1.833-5.901,3.675-8.815,5.507c0,0-5.074,5.003-7.418,2.013C231.17,124.352,225.998,111.102,225.998,111.102"/>
	<path fill="#35A14A" d="M227.479,110.901c0,0-0.066-10.56,9.335-12.267c9.464-1.782,15.786-3.934,15.786-3.934
		s1.26,2.92,1.671,5.958c0.411,3.035-1.208,10.733-1.208,10.733c-1.246,2.471-2.553,5.02-3.792,7.562
		c-2.723,1.661-5.442,3.324-8.155,5.058c0,0-4.627,4.582-6.734,1.776C232.208,122.989,227.479,110.901,227.479,110.901"/>
	<path fill="#2BA748" d="M228.807,110.651c0,0-0.081-9.625,8.546-11.223c8.695-1.61,14.473-3.543,14.473-3.543
		s1.148,2.648,1.522,5.405c0.373,2.755-1.108,9.856-1.108,9.856c-1.125,2.31-2.321,4.628-3.456,6.867
		c-2.521,1.564-4.968,3.119-7.418,4.67c0,0-4.321,4.183-6.249,1.64C233.119,121.789,228.807,110.651,228.807,110.651"/>
	<path fill="#1EAF46" d="M230.01,110.488c0,0-0.045-8.839,7.875-10.341c7.929-1.435,13.22-3.229,13.22-3.229s1.05,2.445,1.394,4.987
		c0.345,2.542-0.94,8.972-0.94,8.972l-3.229,6.407l-6.832,4.233c0,0-3.866,3.832-5.693,1.49S230.01,110.488,230.01,110.488"/>
	<path fill="#231F20" d="M233.322,123.273c-0.084-4.878-0.25-9.818-0.407-14.688c-0.003-2.156-1.402-3.98,4.244-7.405
		c2.747,0.636,6.046,0.043,9.386-0.767c1.933-1.124,3.936-2.26,5.869-3.384c-1.31,2.551-2.786,4.908-5.515,5.997
		c-2.276,1.241-4.751,2.081-7.621,2.108c-2.724,0.587-3.479,2.989-3.33,6.205c-0.179,2.396-0.371,5.227-0.434,8.471
		c0.207,2.057,1.549,2.955,4.021,2.62c1.179-0.306,2.352-0.679,3.533-0.982C243.069,121.449,233.954,127.933,233.322,123.273"/>
	<path fill="#348F54" d="M174.263,145.819c0.162,0.212,1.398,1.816,3.891,3.416c2.483,1.598,6.272,3.161,11.243,3.155
		c1.645,0,3.415-0.168,5.3-0.549c5.894-1.19,9.964-1.846,12.538-2.203c1.287-0.179,2.2-0.282,2.779-0.341
		c0.29-0.029,0.496-0.047,0.624-0.057l0.133-0.01l0.024-0.001l-0.045-0.712l0.041,0.713l0.004,0l-0.045-0.712l0.041,0.713
		l-0.179-3.102l-1.437,2.754c0.094,0.049,1.468,0.762,3.63,1.537c2.165,0.772,5.113,1.616,8.414,1.867l0.233-3.098l-0.27,3.095
		c0.466,0.041,0.937,0.058,1.416,0.058c1.798-0.002,3.714-0.244,5.661-0.614c2.915-0.558,5.873-1.412,8.334-2.318
		c1.232-0.455,2.336-0.92,3.282-1.4c0.475-0.242,0.91-0.486,1.325-0.761c0.417-0.283,0.812-0.567,1.254-1.066l0.003-0.003
		l1.553-1.793l-4.698-4.067l-1.553,1.793l0.003-0.003l0.938,0.815l-0.832-0.925l-0.106,0.11l0.938,0.815l-0.832-0.925l0.197,0.219
		l-0.187-0.228l-0.01,0.009l0.197,0.219l-0.187-0.228c-0.009,0.012-0.25,0.182-0.607,0.37c-0.633,0.34-1.637,0.781-2.813,1.214
		c-1.769,0.654-3.948,1.308-6.084,1.784c-2.131,0.479-4.244,0.773-5.774,0.769c-0.323,0-0.619-0.012-0.877-0.035l-0.02-0.002
		l-0.017-0.001c-2.509-0.186-4.981-0.872-6.784-1.521c-0.902-0.323-1.64-0.634-2.138-0.858c-0.25-0.112-0.44-0.203-0.562-0.262
		l-0.13-0.064l-0.025-0.013l-0.002-0.001l-0.835,1.613l0.84-1.611l-0.005-0.002l-0.835,1.613l0.84-1.611l-0.76-0.396l-0.856,0.049
		c-0.19,0.012-4.959,0.301-16.966,2.726c-1.497,0.302-2.849,0.426-4.071,0.426c-3.677-0.006-6.213-1.108-7.893-2.175
		c-0.835-0.534-1.443-1.063-1.823-1.435c-0.19-0.186-0.322-0.332-0.397-0.419l-0.069-0.082l-0.004-0.005l-1.086,0.859l1.107-0.832
		l-0.021-0.027l-1.086,0.859l1.107-0.832L174.263,145.819z"/>
	<path fill="#44944E" d="M176.451,148.173c0.034,0.102,0.356,1.16,1.005,2.432c0.33,0.639,0.737,1.336,1.323,2.033
		c0.295,0.348,0.638,0.698,1.071,1.027c0.432,0.327,0.962,0.637,1.615,0.837l0.003,0.001l0.037-0.12l-0.053,0.114l0.017,0.006
		l0.037-0.12l-0.053,0.114c0.003,0.001,0.06,0.03,0.223,0.134c0.237,0.147,0.727,0.486,1.439,0.762
		c0.711,0.279,1.581,0.437,2.483,0.432c1.594-0.01,3.37-0.386,6.018-1.239l-0.028,0.009c3.417-1.077,5.166-1.714,6.186-2.142
		c0.517-0.221,0.841-0.373,1.211-0.604c0.188-0.125,0.395-0.256,0.694-0.568c0.148-0.16,0.327-0.371,0.506-0.711
		c0.088-0.17,0.175-0.374,0.242-0.617c0.033-0.121,0.062-0.252,0.081-0.391l0.022-0.213l0.006-0.11l0.001-0.056l-3.106-0.056l0,0
		l3.068,0.489l0.013-0.091l-6.163-0.797l-0.025,0.199v0.2h3.092l-2.743-1.428c-0.171,0.325-0.349,0.822-0.349,1.428h3.092
		l-2.743-1.428l2.689,1.4l-2.235-2.049c-0.129,0.143-0.291,0.338-0.454,0.649l2.689,1.4l-2.235-2.049l1.99,1.824l-1.505-2.245
		c-0.089,0.063-0.239,0.159-0.484,0.421l1.99,1.824l-1.505-2.245l0.707,1.054l-0.599-1.121l-0.108,0.067l0.707,1.054l-0.599-1.121
		c-0.018,0.013-0.435,0.214-1.364,0.554c-0.935,0.345-2.402,0.847-4.633,1.549l-0.016,0.005l-0.012,0.004
		c-2.328,0.765-3.623,0.945-4.097,0.935c-0.21-0.001-0.255-0.021-0.255-0.019l-0.021,0.073l0.029-0.07l-0.008-0.002l-0.021,0.073
		l0.029-0.07l-0.063-0.034c-0.084-0.047-0.276-0.179-0.613-0.381c-0.334-0.199-0.821-0.449-1.4-0.623l0.003,0.001l-0.3,0.984
		l0.629-0.829c-0.025-0.018-0.126-0.093-0.329-0.155l-0.3,0.984l0.629-0.829l-0.102,0.134l0.109-0.128l-0.007-0.006l-0.102,0.134
		l0.109-0.128c-0.006,0-0.161-0.161-0.316-0.407c-0.241-0.369-0.498-0.906-0.666-1.321c-0.085-0.208-0.15-0.388-0.192-0.507
		l-0.044-0.129l-0.008-0.024l-0.864,0.275l0.867-0.268l-0.002-0.007l-0.864,0.275l0.867-0.268L176.451,148.173z"/>
	<path fill="#348F54" d="M216.6,143.083c-8.472,1.148-16.234-3.625-17.19-10.687c-0.947-6.989,5.266-13.656,13.738-14.804
		c8.543-1.157,16.305,3.617,17.251,10.607C231.355,135.261,225.143,141.926,216.6,143.083"/>
	<path fill="#2F9551" d="M216.899,142.107c-8.118,1.1-15.501-3.509-16.41-10.216c-0.908-6.708,4.983-13.115,13.102-14.214
		c8.188-1.109,15.569,3.5,16.478,10.208C230.977,134.592,225.088,140.999,216.899,142.107"/>
	<path fill="#2C9E4E" d="M217.133,141.212c-7.766,1.052-14.895-3.304-15.775-9.802c-0.87-6.424,4.845-12.519,12.61-13.571
		c7.837-1.062,14.898,3.303,15.768,9.728C230.615,134.064,224.969,140.15,217.133,141.212"/>
	<path fill="#26A64B" d="M217.393,140.46c-7.484,1.014-14.314-3.239-15.156-9.453c-0.832-6.143,4.62-12.06,12.104-13.074
		c7.484-1.013,14.312,3.241,15.144,9.383C230.327,133.531,224.875,139.448,217.393,140.46"/>
	<path fill="#1EAF46" d="M217.575,139.714c-7.199,0.975-13.79-3.096-14.593-9.025c-0.812-6.002,4.457-11.679,11.657-12.654
		c7.271-0.985,13.791,3.095,14.604,9.097C230.045,133.062,224.847,138.729,217.575,139.714"/>
	<path fill="#38B744" d="M217.798,137.601c-6.354,0.861-12.011-2.689-12.708-7.842c-0.708-5.226,3.8-10.153,10.154-11.014
		c6.281-0.851,12.009,2.69,12.716,7.916C228.658,131.814,224.079,136.75,217.798,137.601"/>
	<path fill="#57C042" d="M217.967,135.708c-5.435,0.736-10.449-2.326-11.061-6.842c-0.603-4.45,3.417-8.732,8.853-9.468
		c5.507-0.746,10.451,2.322,11.054,6.771C227.424,130.686,223.476,134.962,217.967,135.708"/>
	<path fill="#76CA41" d="M218.162,133.953c-4.73,0.641-8.962-1.948-9.489-5.833c-0.526-3.885,2.854-7.579,7.586-8.219
		c4.658-0.631,8.9,2.031,9.426,5.915S222.82,133.322,218.162,133.953"/>
	<path fill="#99D543" d="M218.307,132.354c-3.953,0.535-7.563-1.709-8.004-4.958c-0.439-3.248,2.444-6.371,6.397-6.906
		c3.951-0.536,7.563,1.708,8.003,4.956C225.144,128.695,222.261,131.818,218.307,132.354"/>
	<path fill="#BFE145" d="M218.461,130.823c-3.319,0.45-6.297-1.376-6.67-4.131c-0.364-2.684,2.021-5.235,5.34-5.685
		c3.245-0.439,6.225,1.386,6.588,4.069C224.093,127.832,221.706,130.384,218.461,130.823"/>
	<path fill="#231F20" d="M218.618,129.364c-2.118,0.287-4.102-1.1-4.36-3.006c-0.258-1.907,1.295-3.698,3.413-3.985
		c2.119-0.287,4.023,1.04,4.281,2.943C222.209,127.22,220.736,129.078,218.618,129.364"/>
	<path fill="#FFFFFF" d="M218.644,124.757c-0.352,0.047-0.783-0.47-0.859-1.034c-0.086-0.636,0.192-1.247,0.544-1.295
		s0.712,0.477,0.798,1.113C219.203,124.105,218.998,124.709,218.644,124.757"/>
	<path fill="#44944E" d="M275.796,136.433c1.099-1.443,42.62-3.255,50.446-1.726c11.661,6.475-27.958,75.406-43.083,79.97
		c-9.807,11.467-6.56,30.66-6.56,30.66c-2.946,9.025-7.273,13.71-13.545,11.971c-17.677-6.306-10.321-5.074-9.87-7.581
		c6.794,0.808,9.297-2.478,7.507-9.86c-3.008-4.696-5.43-12.494-10.796-4.865c0,0-13.695,1.855-5.854-5.534
		c7.902-7.469,16.757-7.374,16.757-7.374c12.605-19.468,25.146-38.855,37.75-58.324c-7.882-5.116-16.356-9.29-28.739-6.247
		C269.811,157.522,274.768,137.867,275.796,136.433"/>
	<path fill="#3F984C" d="M275.785,137.441c1.1-1.444,41.111-2.189,48.927-0.732c11.66,6.475-27.389,73.246-42.585,77.82
		c-9.804,11.467-5.843,30.631-5.843,30.631c-2.937,9.099-7.121,13.765-13.404,11.953c-17.667-6.234-9.901-4.625-9.511-7.052
		c6.795,0.807,10.62-2.804,8.82-10.254c-3.009-4.698-6.932-12.437-12.298-4.807c0,0-12.829,1.883-4.988-5.509
		c7.841-7.39,16.099-6.926,16.099-6.926c12.605-19.468,25.446-38.25,37.977-57.708c-7.881-5.116-16.79-10.379-29.173-7.336
		C269.806,157.521,274.676,138.813,275.785,137.441"/>
	<path fill="#389D4B" d="M275.76,138.307c1.036-1.363,39.732-1.21,47.552,0.249c11.659,6.475-26.944,71.239-42.069,75.802
		c-9.874,11.477-5.259,30.697-5.259,30.697c-3.007,9.11-6.989,13.675-13.266,11.937c-17.665-6.236-9.551-4.171-9.17-6.668
		c6.794,0.807,11.801-3.107,10.001-10.559c-3.08-4.688-8.292-12.396-13.658-4.765c0,0-12.103,1.927-4.264-5.465
		c7.912-7.397,15.645-6.576,15.645-6.576c12.542-19.387,25.591-37.692,38.131-57.08c-7.819-5.198-17.216-11.403-29.598-8.36
		c0,0,4.854-17.771,5.953-19.214"/>
	<path fill="#32A349" d="M275.735,139.169c1.099-1.444,38.478-0.395,46.297,1.064c11.598,6.555-26.546,69.392-41.671,73.956
		c-9.804,11.468-4.676,30.761-4.676,30.761c-2.938,9.102-6.84,13.728-13.124,11.918c-17.664-6.237-9.21-3.789-8.831-6.282
		c6.797,0.803,12.839-3.394,11.04-10.845c-3.008-4.696-9.51-12.374-14.876-4.743c0,0-11.379,1.972-3.538-5.417
		c7.841-7.392,15.118-6.217,15.118-6.217c12.532-19.459,25.807-37.15,38.341-56.608c-7.813-5.126-17.624-12.281-30.007-9.238
		C269.81,157.518,274.638,140.612,275.735,139.169"/>
	<path fill="#29A848" d="M275.695,139.968c1.099-1.444,37.292,0.412,45.111,1.87c11.66,6.475-26.07,67.599-41.266,72.172
		c-9.803,11.467-4.162,30.836-4.162,30.836c-2.938,9.099-6.699,13.706-12.982,11.898c-17.667-6.237-8.951-3.463-8.5-5.969
		c6.805,0.878,13.808-3.669,12.018-11.048c-3.007-4.696-10.659-12.361-16.025-4.732c0,0-10.725,2.028-2.882-5.36
		c7.841-7.39,14.581-5.932,14.581-5.932c12.612-19.396,26.027-36.6,38.629-56.067c-7.88-5.117-18.03-13.163-30.413-10.119
		C269.805,157.518,274.658,141.327,275.695,139.968"/>
	<path fill="#1EAF46" d="M275.651,140.696c1.1-1.443,36.242,1.13,43.988,2.599c11.669,6.545-25.706,66.041-40.83,70.604
		c-9.805,11.467-3.651,30.913-3.651,30.913c-2.945,9.025-6.565,13.615-12.91,11.885c-17.606-6.314-8.622-3.146-8.24-5.643
		c6.865,0.796,14.776-3.941,12.986-11.321c-3.017-4.768-11.736-12.361-17.102-4.732c0,0-10.141,2.092-2.238-5.376
		c7.841-7.39,14.135-5.509,14.135-5.509c12.534-19.459,26.214-36.27,38.758-55.657c-7.892-5.187-18.357-13.98-30.74-10.938
		C269.807,157.521,274.613,142.057,275.651,140.696"/>
	<path fill="#44944E" d="M393.796,149.428c0,0-2.599,6.823-9.909,9.107c-9.011,0.358-29.518,5.507-26.711,8.725
		c-0.563,18.124,1.046,37.967-8.425,49.246c-6.095,0.107-9.974,2.789-11.583,7.895c-1.913,2.85-2.003,5.377-0.257,7.658
		c4.604-4.219,6.318-8.55,11.918-5.425c2.028,2.242,3.998,4.564,6.025,6.806c-0.282,4.28-0.574,8.491-0.859,12.771
		c1.068,4.173,4.542-0.973,11.697-7.049c2.875,2.634,5.679,4.769,7.3-1.851c-1.126-6.174-3.239-12.218-6.269-18.134
		c4.032-1.553,6.573-14.121,7.61-37.774c11.427-0.542,21.619-2.785,30.714-6.749C399.91,164.849,398.942,159.301,393.796,149.428"/>
	<path fill="#3F984C" d="M393.797,149.425c0,0-2.397,8.305-9.708,10.59c-9.012,0.358-28.513,5.517-25.706,8.731
		c-0.634,18.133,1.034,36.819-8.438,48.095c-6.095,0.107-10.724,2.029-12.394,7.22c-1.924,2.774-2.388,5.713-0.641,7.993
		c4.604-4.218,6.717-9.321,12.326-6.123c2.029,2.237,4.577,5.128,6.535,7.382c-0.212,4.271-0.917,8.104-1.137,12.306
		c0.998,4.178,4.153-1.712,11.3-7.859c2.942,2.623,5.248,5.834,6.866-0.783c-1.194-6.169-3.607-12.312-6.565-18.238
		c3.958-1.545,6.804-14.513,7.769-38.158c11.439-0.47,21.948-1.965,31.043-5.929C399.911,164.847,398.944,159.297,393.797,149.425"
		/>
	<path fill="#389D4B" d="M393.797,149.425c0,0-2.215,9.646-9.526,11.932c-9.012,0.358-27.574,5.532-24.767,8.747
		c-0.635,18.133,1.031,35.743-8.44,47.019c-6.088,0.178-11.457,1.408-13.055,6.586c-1.924,2.777-2.845,6.065-1.098,8.346
		c4.604-4.218,7.063-9.944,12.671-6.749c2.031,2.241,5.078,5.64,7.035,7.894c-0.212,4.271-1.194,7.64-1.477,11.918
		c0.99,4.11,3.979-2.478,11.136-8.553c2.862,2.56,4.726,6.765,6.344,0.147c-1.193-6.168-3.91-12.414-6.94-18.331
		c4.032-1.555,7.12-14.842,8.087-38.488c11.431-0.54,22.184-1.278,31.28-5.242C399.911,164.847,398.944,159.297,393.797,149.425"/>
	<path fill="#32A349" d="M393.797,149.425c0,0-2.053,10.848-9.363,13.132c-9.012,0.358-26.769,5.639-23.971,8.783
		c-0.564,18.125,1.046,34.804-8.425,46.083c-6.095,0.106-12.043,0.766-13.644,5.948c-1.924,2.774-3.229,6.402-1.482,8.683
		c4.604-4.218,7.411-10.567,13.019-7.372c2.029,2.243,5.576,6.148,7.535,8.401c-0.283,4.281-1.604,7.263-1.816,11.533
		c0.997,4.179,3.741-3.169,10.897-9.241c2.874,2.632,4.277,7.69,5.896,1.072c-1.192-6.168-4.21-12.517-7.239-18.437
		c4.029-1.549,7.361-15.16,8.33-38.806c11.426-0.54,22.419-0.59,31.515-4.554C399.911,164.847,398.944,159.297,393.797,149.425"/>
	<path fill="#29A848" d="M393.797,149.425c0,0-1.891,12.048-9.21,14.263c-9.013,0.356-25.973,5.674-23.176,8.818
		c-0.635,18.134,1.063,33.868-8.399,45.216c-6.095,0.105-12.634,0.13-14.303,5.316c-1.925,2.778-3.545,6.735-1.798,9.016
		c4.604-4.218,7.766-11.117,13.375-7.923c1.961,2.252,5.997,6.594,7.885,8.856c-0.213,4.271-1.791,6.931-2.074,11.212
		c0.985,4.106,3.512-3.785,10.67-9.86c2.872,2.632,3.886,8.536,5.506,1.915c-1.125-6.176-4.452-12.699-7.482-18.616
		c4.042-1.484,7.546-15.403,8.584-39.059c11.358-0.53,22.577,0.036,31.672-3.928C399.911,164.847,398.944,159.297,393.797,149.425"
		/>
	<path fill="#1EAF46" d="M393.797,149.425c0,0-1.747,13.108-9.067,15.321c-9.012,0.358-25.258,5.649-22.45,8.867
		c-0.634,18.133,1.089,33-8.442,44.358c-6.096,0.107-13.134-0.378-14.802,4.81c-1.926,2.778-3.871,6.994-2.124,9.274
		c4.604-4.218,8.053-11.66,13.662-8.465c1.958,2.252,6.345,7.05,8.303,9.303c-0.212,4.271-2.123,6.615-2.335,10.886
		c0.99,4.108,3.296-4.327,10.443-10.475c2.874,2.63,3.489,9.307,5.182,2.679c-1.197-6.165-4.745-12.732-7.774-18.65
		c4.039-1.48,7.729-15.642,8.768-39.298c11.427-0.54,22.793,0.581,31.889-3.383C399.911,164.847,398.944,159.297,393.797,149.425"/>
	<path fill="#40B93C" d="M269.44,93.791c0,0-0.148,14.831,1.123,18.903c1.27,4.07,9.873,15.559,13.942,14.29
		c3.998-1.261,14.168-4.724,13.326-10.937s-5.492-24.639-5.492-24.639l-11.554-1.958L269.44,93.791"/>
	<path fill="#3FB23F" d="M269.936,92.64c0,0-0.036,13.523,1.044,17.262c1.151,3.725,9.045,14.233,12.771,13.081
		c3.654-1.143,12.926-4.341,12.152-10.059c-0.765-5.647-4.984-22.479-4.984-22.479c-3.532-0.598-7.063-1.199-10.525-1.81
		L269.936,92.64"/>
	<path fill="#41AB43" d="M270.445,91.636c0,0-0.058,12.305,0.974,15.687c1.031,3.383,8.237,13.05,11.611,11.947
		c3.383-1.034,11.836-3.906,11.128-9.129s-4.578-20.521-4.578-20.521c-3.169-0.579-6.408-1.146-9.64-1.644
		C276.799,89.192,273.659,90.411,270.445,91.636"/>
	<path fill="#43A547" d="M270.96,90.637c0,0-0.122,11.305,0.862,14.336c0.925,3.109,7.5,11.854,10.541,10.941
		c3.1-0.996,10.796-3.62,10.155-8.353c-0.641-4.732-4.125-18.783-4.125-18.783c-2.939-0.464-5.877-0.929-8.826-1.466L270.96,90.637"
		/>
	<path fill="#439C4A" d="M271.339,89.722c0,0-0.043,10.289,0.841,13.12c0.817,2.836,6.783,10.8,9.61,9.914
		c2.826-0.887,9.836-3.273,9.253-7.581s-3.825-17.099-3.825-17.099c-2.646-0.433-5.293-0.865-7.949-1.37
		C276.602,87.715,274.005,88.714,271.339,89.722"/>
	<path fill="#44944E" d="M271.732,88.947c0,0-0.038,9.281,0.741,11.836c0.778,2.554,6.217,9.8,8.77,9.021
		c2.556-0.775,8.939-3.006,8.413-6.89c-0.536-3.955-3.464-15.493-3.464-15.493l-7.286-1.242L271.732,88.947"/>
	<path fill="#40B93C" d="M399.585,155.547c0,0,0.711,7.885,1.429,10.018c0.731,2.201,4.858,8.259,6.486,7.534
		c1.627-0.725,5.611-2.631,4.939-5.991c-0.663-3.29-3.493-13.043-3.493-13.043l-4.868-0.924L399.585,155.547"/>
	<path fill="#3FB23F" d="M400.024,156.134c0,0,0.69,7.24,1.313,9.168c0.701,1.991,4.47,7.521,5.895,6.897
		c1.495-0.634,5.135-2.422,4.583-5.438c-0.577-2.654-2.875-10.614-2.942-11.107c-1.387-0.674-2.772-1.351-4.028-1.611
		C403.289,154.756,401.659,155.481,400.024,156.134"/>
	<path fill="#41AB43" d="M400.461,156.725c0,0,0.608,6.604,1.209,8.393c0.603,1.788,4.022,6.862,5.376,6.246
		c1.354-0.615,4.658-2.212,4.137-5.017c-0.409-1.958-2.196-8.26-2.395-9.168c-1.149-1.067-2.289-2.062-3.174-2.23L400.461,156.725"
		/>
	<path fill="#43A547" d="M400.892,157.238c0,0,0.52,5.97,1.033,7.627c0.582,1.646,3.724,6.255,4.944,5.729
		c1.224-0.524,4.259-2.015,3.771-4.538c-0.263-1.402-1.627-6.178-1.951-7.501c-0.905-1.386-1.804-2.703-2.458-2.76
		C404.497,156.248,402.688,156.708,400.892,157.238"/>
	<path fill="#439C4A" d="M401.241,157.694c0,0,0.455,5.475,0.947,6.992c0.554,1.434,3.355,5.658,4.514,5.211
		c1.085-0.504,3.915-1.896,3.398-4.126c-0.124-0.919-1.088-4.312-1.52-5.906c-0.664-1.708-1.378-3.265-1.68-3.368L401.241,157.694"
		/>
	<path fill="#44944E" d="M401.59,158.152c0,0,0.385,4.98,0.861,6.354c0.462,1.304,3.065,5.124,4.084,4.697
		c1.022-0.425,3.519-1.627,3.09-3.727c-0.104-0.776-2.125-8.268-2.195-8.258L401.59,158.152"/>
	<path fill="#40B93C" d="M257.678,121.553c0,0-0.066,7.992,0.582,10.132c0.731,2.202,5.521,8.384,7.865,7.636
		c2.282-0.669,8.058-2.6,7.608-5.92c-0.45-3.318-3.018-13.253-3.018-13.253l-6.53-0.986L257.678,121.553"/>
	<path fill="#3FB23F" d="M258.269,122.194c0,0-0.092,7.276,0.537,9.276c0.631,2,5.052,7.585,7.122,6.944
		c2.15-0.578,7.374-2.365,6.962-5.399c-0.364-2.684-2.462-10.74-2.52-11.165c-1.757-0.768-3.576-1.458-5.256-1.662L258.269,122.194"
		/>
	<path fill="#41AB43" d="M258.778,122.771c0,0-0.109,6.632,0.493,8.417c0.54,1.869,4.614,6.999,6.471,6.387
		c1.94-0.548,6.757-2.138,6.375-4.961c-0.268-1.978-1.854-8.379-2.048-9.287c-1.435-1.028-2.808-2.137-4.044-2.256
		C263.58,121.617,261.139,122.165,258.778,122.771"/>
	<path fill="#43A547" d="M259.206,123.291c0,0-0.043,6.046,0.467,7.702c0.513,1.657,4.167,6.338,5.962,5.808
		c1.728-0.523,6.131-1.981,5.787-4.524c-0.191-1.412-1.426-6.277-1.668-7.539c-1.057-1.438-2.166-2.726-2.971-2.834
		C264.249,122.318,261.729,122.805,259.206,123.291"/>
	<path fill="#439C4A" d="M259.636,123.808c0,0-0.052,5.473,0.443,6.987c0.492,1.514,3.806,5.811,5.391,5.311
		c1.584-0.505,5.575-1.835,5.269-4.093c-0.125-0.918-0.945-4.332-1.318-6.007c-0.731-1.699-1.456-3.325-1.89-3.338
		C264.92,123.021,262.307,123.374,259.636,123.808"/>
	<path fill="#44944E" d="M260.056,124.255c0,0-0.046,4.97,0.356,6.353c0.475,1.374,3.519,5.275,4.963,4.793
		c1.454-0.414,5.028-1.617,4.742-3.735c-0.096-0.707-1.773-8.315-1.844-8.306L260.056,124.255"/>
	<path fill="#40B93C" d="M333.98,151.491c0,0-0.084,4.686,0.37,5.918c0.393,1.314,3.177,4.89,4.561,4.487
		c1.383-0.403,4.687-1.498,4.419-3.475c-0.268-1.978-1.697-7.752-1.697-7.752l-3.885-0.552L333.98,151.491"/>
	<path fill="#3FB23F" d="M334.315,151.871c0,0-0.072,4.254,0.305,5.423c0.373,1.173,2.979,4.488,4.22,4.104
		c1.172-0.374,4.262-1.44,4.022-3.206c-0.21-1.553-1.424-6.278-1.462-6.561c-1.065-0.43-2.05-0.8-3.075-0.949L334.315,151.871"/>
	<path fill="#41AB43" d="M334.575,152.199c0,0-0.046,3.89,0.309,4.919c0.363,1.102,2.71,4.092,3.82,3.798
		c1.102-0.366,3.919-1.323,3.699-2.946c-0.163-1.201-1.094-4.885-1.17-5.45c-0.873-0.601-1.674-1.211-2.41-1.329
		C337.432,151.526,336.039,151.857,334.575,152.199"/>
	<path fill="#43A547" d="M334.907,152.513c0,0-0.096,3.538,0.249,4.497c0.275,0.971,2.453,3.767,3.481,3.412
		c1.041-0.285,3.585-1.132,3.384-2.615c-0.115-0.849-0.789-3.705-0.964-4.472c-0.609-0.779-1.299-1.623-1.731-1.636L334.907,152.513
		"/>
	<path fill="#439C4A" d="M335.157,152.768c0,0-0.065,3.245,0.202,4.143c0.265,0.898,2.252,3.362,3.149,3.096
		c0.971-0.274,3.313-1.024,3.122-2.436c-0.067-0.493-0.555-2.513-0.762-3.492c-0.415-0.949-0.831-1.9-1.124-1.933L335.157,152.768"
		/>
	<path fill="#44944E" d="M335.336,153.03c0,0-0.031,2.954,0.226,3.782c0.245,0.757,2.063,3.029,2.899,2.844
		c0.828-0.258,2.96-0.977,2.788-2.249c-0.058-0.423-1.021-4.894-1.092-4.884L335.336,153.03"/>
	<path fill="#40B93C" d="M358.493,146.732c0,0-0.65,4.763-0.045,6.047c0.596,1.211,5.228,4.611,7.597,4.075
		c2.442-0.546,8.489-2.084,8.231-3.991c-0.268-1.977-2.333-7.666-2.333-7.666l-6.648-0.251L358.493,146.732"/>
	<path fill="#3FB23F" d="M358.974,147.096c0,0-0.494,4.311,0.021,5.462c0.517,1.153,4.746,4.249,6.975,3.729
		c2.16-0.506,7.661-1.828,7.413-3.664c-0.21-1.553-2.026-6.987-2.097-6.978l-6.043-0.046
		C363.153,146.101,361.063,146.598,358.974,147.096"/>
	<path fill="#41AB43" d="M359.517,147.383c0,0-0.543,3.958-0.037,5.037c0.496,1.014,4.335,3.873,6.354,3.382
		c2.02-0.489,7.035-1.671,6.815-3.295c-0.172-1.271-1.88-6.433-1.88-6.433l-5.59,0.109
		C363.29,146.585,361.404,146.984,359.517,147.383"/>
	<path fill="#43A547" d="M359.917,147.688c0,0-0.449,3.586,0.049,4.596c0.416,0.952,3.923,3.496,5.74,3.106
		c1.875-0.469,6.399-1.586,6.198-3.068c-0.134-0.99-1.652-5.816-1.723-5.807c-1.721,0.016-3.365,0.096-5.079,0.184
		C363.357,147.079,361.673,147.378,359.917,147.688"/>
	<path fill="#439C4A" d="M360.389,147.983c0,0-0.417,3.293-0.021,4.102c0.408,0.879,3.603,3.25,5.279,2.879
		c1.665-0.44,5.844-1.438,5.662-2.78c-0.096-0.706-1.512-5.331-1.583-5.322c-1.563,0.14-3.136,0.209-4.698,0.35
		C363.484,147.493,361.932,147.703,360.389,147.983"/>
	<path fill="#44944E" d="M360.779,148.218c0,0-0.384,3.001-0.065,3.749c0.396,0.809,3.273,2.937,4.807,2.586
		c1.534-0.354,5.286-1.292,5.124-2.493c-0.058-0.424-1.303-4.855-1.444-4.837L360.779,148.218"/>
	<path fill="#40B93C" d="M249.939,146.693c0,0-0.516,4.673,0.018,5.966c0.526,1.223,4.732,4.681,6.892,4.171
		c2.089-0.498,7.438-1.87,7.17-3.847s-2.12-7.693-2.12-7.693l-5.941-0.346L249.939,146.693"/>
	<path fill="#3FB23F" d="M250.41,146.989c0,0-0.423,4.3,0.021,5.462c0.514,1.154,4.32,4.304,6.27,3.823
		c1.946-0.479,6.812-1.713,6.573-3.477c-0.221-1.625-1.893-7.079-1.963-7.069c-1.804-0.042-3.607-0.088-5.409-0.13
		C254.023,146.066,252.216,146.527,250.41,146.989"/>
	<path fill="#41AB43" d="M250.809,147.293c0,0-0.391,4.007,0.034,5.03c0.498,1.01,3.982,3.917,5.72,3.467
		c1.815-0.389,6.256-1.567,6.036-3.192c-0.172-1.271-1.735-6.45-1.806-6.44c-1.652,0.007-3.304,0.015-4.958,0.024L250.809,147.293"
		/>
	<path fill="#43A547" d="M251.212,147.599c0,0-0.369,3.645,0.046,4.596c0.417,0.949,3.57,3.542,5.247,3.171
		c1.594-0.431,5.693-1.49,5.492-2.973c-0.134-0.99-1.582-5.826-1.652-5.816l-4.575,0.189L251.212,147.599"/>
	<path fill="#439C4A" d="M251.611,147.903c0,0-0.345,3.284,0.053,4.092c0.335,0.891,3.251,3.3,4.713,2.958
		c1.534-0.354,5.208-1.353,5.027-2.694c-0.096-0.706-1.443-5.341-1.513-5.332c-1.352,0.108-2.772,0.229-4.133,0.271
		C254.355,147.46,253.014,147.642,251.611,147.903"/>
	<path fill="#44944E" d="M251.933,148.148c0,0-0.243,2.981,0.073,3.729c0.326,0.818,2.922,2.984,4.314,2.652
		c1.321-0.323,4.723-1.215,4.56-2.416c-0.057-0.422-1.305-4.855-1.375-4.846L251.933,148.148"/>
	<path fill="#40B93C" d="M271.712,163.084c0,0-0.273,2.769,0.044,3.519c0.318,0.75,2.75,2.791,4.002,2.478s4.379-1.098,4.217-2.295
		c-0.153-1.131-1.257-4.505-1.257-4.505l-3.474-0.177L271.712,163.084"/>
	<path fill="#3FB23F" d="M271.952,163.27c0,0-0.23,2.546,0.077,3.226c0.238,0.688,2.5,2.537,3.682,2.234
		c1.121-0.226,4.038-0.979,3.895-2.04c-0.134-0.988-1.21-4.15-1.21-4.15c-1.079,0.003-2.095-0.077-3.172-0.074
		C274.112,162.76,273.072,163.046,271.952,163.27"/>
	<path fill="#41AB43" d="M272.192,163.452c0,0-0.187,2.325,0.04,2.942c0.297,0.607,2.332,2.345,3.37,2.061
		c1.048-0.213,3.683-0.931,3.55-1.918c-0.096-0.707-1.012-3.748-1.012-3.748c-1.006-0.007-2.014-0.014-2.942,0.041L272.192,163.452"
		/>
	<path fill="#43A547" d="M272.435,163.635c0,0-0.148,2.105,0.08,2.721c0.217,0.546,2.082,2.093,3.05,1.818
		c0.977-0.205,3.341-0.813,3.217-1.73c-0.077-0.566-0.894-3.401-0.964-3.392c-0.867-0.028-1.795,0.025-2.652,0.07
		C274.259,163.316,273.342,163.439,272.435,163.635"/>
	<path fill="#439C4A" d="M272.674,163.819c0,0-0.175,1.892,0.042,2.438c0.21,0.475,1.912,1.897,2.82,1.703
		c0.828-0.255,3.059-0.772,2.944-1.618c-0.048-0.355-0.854-3.121-0.924-3.112c-0.789,0.035-1.635,0.149-2.42,0.185
		C274.288,163.529,273.521,163.704,272.674,163.819"/>
	<path fill="#44944E" d="M272.904,163.932c0,0-0.192,1.75,0.016,2.227c0.207,0.476,1.75,1.776,2.507,1.53
		c0.837-0.185,2.786-0.664,2.69-1.373c-0.038-0.281-0.755-2.917-0.755-2.917L272.904,163.932"/>
	<path fill="#40B93C" d="M320.797,161.4c0,0-0.271,2.77,0.047,3.517c0.316,0.749,2.74,2.721,3.99,2.407
		c1.261-0.242,4.452-1.106,4.299-2.235c-0.163-1.201-1.266-4.574-1.266-4.574l-3.547-0.167L320.797,161.4"/>
	<path fill="#3FB23F" d="M321.039,161.583c0,0-0.229,2.548,0.078,3.226c0.306,0.677,2.501,2.537,3.68,2.233
		c1.111-0.293,4.027-1.049,3.885-2.107c-0.125-0.92-1.13-4.091-1.201-4.082c-1.015-0.077-2.095-0.075-3.172-0.071
		C323.261,160.995,322.149,161.289,321.039,161.583"/>
	<path fill="#41AB43" d="M321.35,161.755c0,0-0.259,2.338,0.039,2.945c0.227,0.616,2.251,2.282,3.299,2.068
		c1.111-0.293,3.687-0.929,3.553-1.918c-0.105-0.777-1.012-3.745-1.012-3.745c-1.007-0.009-1.945-0.025-2.952-0.032
		C323.308,161.347,322.328,161.551,321.35,161.755"/>
	<path fill="#43A547" d="M321.59,161.94c0,0-0.216,2.114,0.002,2.66c0.217,0.544,2.079,2.09,3.057,1.886
		c0.977-0.205,3.333-0.884,3.218-1.73c-0.077-0.565-0.903-3.472-0.974-3.462l-2.64,0.14
		C323.337,161.558,322.426,161.755,321.59,161.94"/>
	<path fill="#439C4A" d="M321.75,162.062c0,0-0.164,1.963,0.043,2.437c0.218,0.546,1.92,1.971,2.818,1.706
		c0.84-0.188,3.061-0.775,2.955-1.551c-0.058-0.425-0.855-3.121-0.926-3.112c-0.785,0.035-1.572,0.07-2.418,0.185L321.75,162.062"/>
	<path fill="#44944E" d="M321.993,162.244c0,0-0.195,1.753,0.012,2.227c0.207,0.474,1.741,1.706,2.578,1.522
		c0.767-0.176,2.715-0.656,2.61-1.432c-0.029-0.213-0.673-2.858-0.744-2.849L321.993,162.244"/>
	<path fill="#40B93C" d="M417.24,181.847c0,0,0.022,4.958,0.417,6.27c0.402,1.384,3.084,5.263,4.327,4.88
		c1.232-0.455,4.324-1.52,4.037-3.641c-0.277-2.047-1.766-8.244-1.766-8.244l-3.542-0.672L417.24,181.847"/>
	<path fill="#3FB23F" d="M417.507,182.241c0,0,0.037,4.526,0.42,5.769c0.383,1.242,2.798,4.725,3.97,4.351
		c1.1-0.364,3.978-1.401,3.729-3.237c-0.229-1.694-1.48-6.702-1.519-6.986c-0.995-0.438-1.919-0.889-2.875-1.048
		C419.989,181.474,418.747,181.857,417.507,182.241"/>
	<path fill="#41AB43" d="M417.846,182.627c0,0-0.02,4.102,0.272,5.213c0.377,1.17,2.609,4.393,3.642,4.035
		c1.028-0.354,3.636-1.283,3.406-2.977c-0.172-1.271-1.073-5.248-1.22-5.803c-0.74-0.691-1.551-1.371-2.214-1.5
		C420.42,181.992,419.099,182.314,417.846,182.627"/>
	<path fill="#43A547" d="M418.034,182.959c0,0,0.075,3.731,0.358,4.769c0.285,1.038,2.339,4,3.3,3.654
		c0.969-0.277,3.29-1.167,3.079-2.719c-0.124-0.917-0.815-3.917-0.991-4.685c-0.559-0.93-1.177-1.781-1.62-1.865
		C420.84,182.436,419.436,182.698,418.034,182.959"/>
	<path fill="#439C4A" d="M418.294,183.285c0,0,0.026,3.377,0.301,4.345c0.265,0.9,2.14,3.593,3.04,3.329
		c0.817-0.326,3.019-1.057,2.818-2.539c-0.067-0.495-0.574-2.654-0.788-3.705c-0.428-1.02-0.853-2.042-1.075-2.083
		C421.179,182.823,419.768,183.014,418.294,183.285"/>
	<path fill="#44944E" d="M418.544,183.538c0,0-0.012,3.095,0.242,3.922c0.268,0.899,1.961,3.329,2.721,3.083
		c0.827-0.256,2.745-0.948,2.563-2.289c-0.057-0.422-1.06-5.177-1.06-5.177L418.544,183.538"/>
	<path fill="#40B93C" d="M445.339,223.195c0,0,0.015,4.888,0.417,6.271c0.394,1.315,3.146,5.182,4.389,4.799
		c1.243-0.382,4.322-1.52,4.035-3.639c-0.277-2.049-1.755-8.176-1.755-8.176l-3.54-0.67L445.339,223.195"/>
	<path fill="#3FB23F" d="M445.676,223.583c0,0,0.029,4.455,0.345,5.706c0.383,1.242,2.874,4.788,3.978,4.422
		c1.171-0.372,3.979-1.399,3.721-3.307c-0.219-1.626-1.402-6.641-1.441-6.925c-1.004-0.51-2-0.95-2.884-1.119
		C448.152,222.745,446.91,223.13,445.676,223.583"/>
	<path fill="#41AB43" d="M445.937,223.908c0,0,0.053,4.091,0.356,5.272c0.363,1.1,2.598,4.319,3.628,3.965
		c1.04-0.284,3.636-1.282,3.405-2.978c-0.172-1.27-1.14-5.236-1.216-5.802c-0.81-0.682-1.541-1.301-2.205-1.428L445.937,223.908"/>
	<path fill="#43A547" d="M446.198,224.23c0,0,0.002,3.74,0.357,4.77c0.283,1.042,2.339,3.999,3.309,3.725
		c0.887-0.339,3.293-1.166,3.072-2.79c-0.114-0.846-0.818-3.917-0.995-4.684c-0.616-0.85-1.166-1.712-1.608-1.795L446.198,224.23"/>
	<path fill="#439C4A" d="M446.456,224.557c0,0,0.025,3.376,0.302,4.344c0.275,0.973,2.14,3.594,2.969,3.339
		c0.897-0.265,3.02-1.056,2.827-2.47c-0.076-0.562-0.505-2.663-0.719-3.714c-0.435-1.092-0.861-2.111-1.082-2.152
		C449.281,224.174,447.869,224.366,446.456,224.557"/>
	<path fill="#44944E" d="M446.705,224.81c0,0,0,3.164,0.254,3.991c0.256,0.829,1.952,3.259,2.71,3.013
		c0.758-0.247,2.746-0.946,2.564-2.288c-0.058-0.423-1.061-5.175-1.131-5.165L446.705,224.81"/>
	<path fill="#40B93C" d="M448.713,241.725c0,0-0.4,5.017,0.145,6.38c0.534,1.296,4.557,4.991,6.576,4.504
		c2.011-0.562,7.147-1.905,6.86-4.022c-0.276-2.049-2.179-8.117-2.179-8.117l-5.668-0.456L448.713,241.725"/>
	<path fill="#3FB23F" d="M449.684,242.023c0,0-0.384,4.582,0.141,5.806c0.455,1.231,4.147,4.613,5.953,4.155
		c1.879-0.471,6.522-1.746,6.265-3.651c-0.229-1.696-1.951-7.504-1.951-7.504c-1.733-0.053-3.464-0.105-5.198-0.158L449.684,242.023
		"/>
	<path fill="#41AB43" d="M450.52,242.345c0,0-0.303,4.137,0.132,5.229c0.445,1.162,3.811,4.229,5.474,3.788
		c1.738-0.45,5.965-1.598,5.735-3.295c-0.191-1.41-1.783-6.804-1.854-6.794c-1.592-0.072-3.172-0.074-4.684-0.085
		C453.72,241.549,452.122,241.98,450.52,242.345"/>
	<path fill="#43A547" d="M451.343,242.589c0,0-0.279,3.778,0.074,4.809c0.429,1.021,3.469,3.846,4.996,3.422
		c1.604-0.361,5.408-1.453,5.198-3.004c-0.144-1.061-1.566-6.262-1.637-6.253l-4.294,0.153
		C454.208,241.986,452.745,242.328,451.343,242.589"/>
	<path fill="#439C4A" d="M452.097,242.849c0,0-0.327,3.423,0.088,4.374c0.339,0.89,3.13,3.459,4.522,3.127
		c1.463-0.344,4.926-1.314,4.725-2.8c-0.096-0.706-1.41-5.632-1.48-5.623c-1.28,0.103-2.641,0.143-3.92,0.244
		C454.7,242.423,453.357,242.604,452.097,242.849"/>
	<path fill="#44944E" d="M452.771,243.043c0,0-0.225,3.123,0.112,4.013c0.327,0.818,2.799,3.143,4.119,2.821
		c1.251-0.312,4.442-1.178,4.261-2.519c-0.057-0.422-1.273-5.15-1.344-5.141L452.771,243.043"/>
	<path fill="#40B93C" d="M467.212,259.422c0,0-0.294,4.211,0.143,5.303c0.436,1.091,3.728,4.171,5.472,3.788
		c1.668-0.44,5.896-1.589,5.658-3.354c-0.23-1.696-1.784-6.808-1.784-6.808l-4.713-0.294L467.212,259.422"/>
	<path fill="#3FB23F" d="M467.54,259.737c0,0-0.271,3.85,0.155,4.871c0.417,0.949,3.459,3.773,4.992,3.423
		c1.524-0.424,5.412-1.452,5.192-3.077c-0.192-1.412-1.628-6.179-1.628-6.179c-1.45-0.094-2.891-0.112-4.342-0.204
		C470.456,258.985,469.003,259.396,467.54,259.737"/>
	<path fill="#41AB43" d="M467.939,260.045c0,0-0.246,3.484,0.09,4.373c0.348,0.961,3.137,3.529,4.601,3.19
		c1.383-0.404,4.917-1.387,4.726-2.799c-0.153-1.131-1.489-5.696-1.489-5.696c-1.361,0.042-2.659,0.004-3.96-0.039
		C470.585,259.399,469.262,259.722,467.939,260.045"/>
	<path fill="#43A547" d="M468.261,260.287c0,0-0.214,3.195,0.112,4.012c0.337,0.89,2.88,3.207,4.13,2.893
		c1.323-0.323,4.515-1.185,4.333-2.526c-0.116-0.849-1.283-5.219-1.354-5.21c-1.212,0.093-2.433,0.111-3.578,0.123
		C470.642,259.82,469.451,260.054,468.261,260.287"/>
	<path fill="#439C4A" d="M468.583,260.533c0,0-0.254,2.91,0.063,3.657s2.62,2.881,3.809,2.648c1.183-0.303,4.088-1.129,3.926-2.329
		c-0.086-0.636-1.216-4.727-1.286-4.717l-3.274,0.229C470.76,260.167,469.642,260.39,468.583,260.533"/>
	<path fill="#44944E" d="M468.831,260.785c0,0-0.219,2.62,0.088,3.298c0.237,0.687,2.37,2.626,3.417,2.412
		c1.111-0.295,3.746-1.009,3.593-2.139c-0.049-0.355-1.007-4.253-1.146-4.234L468.831,260.785"/>
	<path fill="#40B93C" d="M489.058,291.77c0,0-0.161,4.12,0.202,5.222c0.438,1.093,3.024,4.263,4.273,3.952
		c1.242-0.384,4.415-1.389,4.176-3.155c-0.229-1.694-1.572-6.832-1.572-6.832l-3.584-0.452L489.058,291.77"/>
	<path fill="#3FB23F" d="M489.318,292.095c0,0-0.065,3.749,0.289,4.78c0.284,1.04,2.682,3.878,3.86,3.573
		c1.104-0.363,4-1.259,3.79-2.812c-0.191-1.414-1.425-6.28-1.425-6.28c-1.098-0.138-2.186-0.206-3.282-0.347
		C491.449,291.374,490.42,291.732,489.318,292.095"/>
	<path fill="#41AB43" d="M489.57,292.35c0,0-0.036,3.456,0.229,4.354c0.345,0.96,2.503,3.617,3.542,3.33
		c1.103-0.364,3.728-1.148,3.525-2.634c-0.152-1.128-1.348-5.713-1.348-5.713c-1.009-0.006-1.956-0.095-2.961-0.102
		C491.576,291.79,490.608,292.064,489.57,292.35"/>
	<path fill="#43A547" d="M489.818,292.604c0,0-0.073,3.174,0.255,3.991c0.266,0.899,2.242,3.292,3.21,3.018
		c0.968-0.276,3.384-1.034,3.202-2.375c-0.114-0.849-1.212-5.23-1.212-5.23c-0.928,0.055-1.792,0.028-2.729,0.012L489.818,292.604"
		/>
	<path fill="#439C4A" d="M490.068,292.855c0,0-0.039,2.883,0.206,3.64c0.257,0.83,2.063,3.031,2.961,2.763
		c0.83-0.255,3.031-0.987,2.87-2.184c-0.087-0.638-1.076-4.745-1.076-4.745c-0.855,0.042-1.642,0.077-2.499,0.122
		C491.691,292.637,490.916,292.741,490.068,292.855"/>
	<path fill="#44944E" d="M490.32,293.111c0,0-0.08,2.599,0.156,3.286c0.246,0.756,1.874,2.694,2.641,2.519
		c0.827-0.256,2.828-0.887,2.675-2.019c-0.048-0.352-0.936-4.259-1.005-4.249L490.32,293.111"/>
	<path fill="#40B93C" d="M496.677,301.309c0,0-0.091,4.109,0.273,5.211s2.949,4.273,4.202,3.96c1.313-0.392,4.411-1.387,4.173-3.151
		c-0.23-1.696-1.573-6.835-1.573-6.835l-3.58-0.449L496.677,301.309"/>
	<path fill="#3FB23F" d="M496.937,301.635c0,0-0.067,3.747,0.288,4.778c0.355,1.029,2.682,3.88,3.863,3.574
		c1.173-0.375,3.999-1.262,3.789-2.812c-0.191-1.414-1.426-6.279-1.426-6.279c-1.089-0.068-2.186-0.209-3.283-0.345
		C499.139,300.904,498.037,301.27,496.937,301.635"/>
	<path fill="#41AB43" d="M497.258,301.879c0,0-0.104,3.465,0.169,4.435c0.337,0.889,2.492,3.545,3.604,3.251
		c1.029-0.355,3.655-1.142,3.454-2.625c-0.152-1.131-1.279-5.723-1.349-5.714c-1.007-0.007-1.953-0.095-2.962-0.103
		C499.196,301.329,498.228,301.604,497.258,301.879"/>
	<path fill="#43A547" d="M497.508,302.131c0,0-0.073,3.175,0.183,4.001c0.265,0.9,2.242,3.292,3.213,3.017
		c0.97-0.273,3.383-1.033,3.201-2.374c-0.115-0.848-1.203-5.157-1.203-5.157c-0.937-0.018-1.802-0.044-2.742-0.062
		C499.253,301.752,498.345,301.945,497.508,302.131"/>
	<path fill="#439C4A" d="M497.688,302.395c0,0-0.042,2.883,0.204,3.64c0.257,0.828,2.065,3.029,2.964,2.763
		c0.896-0.265,3.029-0.985,2.867-2.188c-0.087-0.635-1.075-4.744-1.075-4.744l-2.499,0.125
		C499.381,302.166,498.534,302.28,497.688,302.395"/>
	<path fill="#44944E" d="M497.937,302.648c0,0-0.079,2.6,0.159,3.286c0.246,0.757,1.874,2.693,2.713,2.509
		c0.755-0.244,2.755-0.875,2.602-2.006c-0.047-0.353-0.937-4.26-1.007-4.251L497.937,302.648"/>
	<path fill="#40B93C" d="M369.895,109.882c0,0-0.29,10.611,0.716,13.783c1.015,3.24,7.931,13.451,11.317,13.493
		c3.303-0.015,11.689-0.217,11.058-4.878c-0.631-4.661-4.288-18.903-4.288-18.903l-9.461-4.042L369.895,109.882"/>
	<path fill="#3FB23F" d="M370.678,109.847c0,0-0.202,9.662,0.692,12.562c0.906,2.969,7.276,12.316,10.299,12.339
		c3.093,0.011,10.689-0.153,10.105-4.462c-0.574-4.235-3.914-17.231-3.914-17.231c-2.831-1.269-5.725-2.459-8.628-3.72
		L370.678,109.847"/>
	<path fill="#41AB43" d="M371.385,109.751c0,0-0.164,8.866,0.631,11.562c0.858,2.617,6.62,11.185,9.43,11.237
		c2.802-0.021,9.754-0.172,9.229-4.054c-0.526-3.882-3.504-15.777-3.504-15.777c-2.67-1.147-5.261-2.237-7.934-3.384
		L371.385,109.751"/>
	<path fill="#43A547" d="M372.101,109.725c0,0-0.201,8.081,0.561,10.496c0.765,2.485,6.058,10.252,8.577,10.271
		c2.59,0.008,8.896-0.127,8.418-3.658c-0.487-3.602-3.25-14.445-3.25-14.445c-2.36-0.975-4.731-2.02-7.172-3.055
		C376.877,109.438,374.459,109.622,372.101,109.725"/>
	<path fill="#439C4A" d="M372.747,109.711c0,0-0.156,7.353,0.503,9.567c0.657,2.214,5.504,9.32,7.802,9.297
		c2.379,0.036,8.11-0.093,7.67-3.341c-0.44-3.25-2.927-13.121-2.927-13.121c-2.21-0.924-4.351-1.856-6.561-2.78
		C377.099,109.48,374.88,109.565,372.747,109.711"/>
	<path fill="#44944E" d="M373.321,109.708c0,0-0.178,6.638,0.453,8.638c0.639,2.07,5.027,8.453,7.12,8.527
		c2.157-0.003,7.385-0.137,6.984-3.102c-0.392-2.895-2.685-11.861-2.685-11.861l-5.957-2.573L373.321,109.708"/>
	<path fill="#40B93C" d="M393.604,117.24c0,0,0.419,10.512,1.21,13.714c0.804,3.271,5.533,13.775,7.577,14.002
		c2.034,0.154,7.1,0.404,6.469-4.256c-0.631-4.661-3.581-19.003-3.581-19.003l-5.93-4.516L393.604,117.24"/>
	<path fill="#3FB23F" d="M394.107,117.242c0,0,0.365,9.586,1.118,12.503c0.694,3,5.019,12.625,6.909,12.798s6.526,0.411,5.943-3.896
		c-0.574-4.238-3.279-17.316-3.279-17.316c-1.846-1.406-3.68-2.738-5.451-4.151L394.107,117.242"/>
	<path fill="#41AB43" d="M394.543,117.256c0,0,0.391,8.72,1.046,11.435c0.573,2.656,4.571,11.46,6.321,11.656
		c1.671,0.133,5.941,0.346,5.416-3.538c-0.526-3.884-3.008-15.844-3.008-15.844c-1.684-1.282-3.357-2.493-4.969-3.784
		C397.697,117.188,396.115,117.187,394.543,117.256"/>
	<path fill="#43A547" d="M394.967,117.199c0,0,0.293,8.014,0.909,10.446c0.629,2.503,4.228,10.5,5.757,10.654
		c1.602,0.142,5.439,0.343,4.961-3.189c-0.478-3.53-2.757-14.51-2.757-14.51c-1.511-1.09-3.035-2.25-4.487-3.418
		C397.848,117.239,396.405,117.219,394.967,117.199"/>
	<path fill="#439C4A" d="M395.329,117.221c0,0,0.341,7.29,0.858,9.52c0.516,2.229,3.881,9.542,5.258,9.642
		c1.389,0.173,4.936,0.34,4.496-2.909c-0.431-3.178-2.504-13.18-2.504-13.18l-4.088-3.112
		C397.987,117.22,396.688,117.181,395.329,117.221"/>
	<path fill="#44944E" d="M395.69,117.244c0,0,0.315,6.574,0.806,8.592c0.498,2.09,3.473,8.661,4.789,8.843
		c1.24,0.119,4.423,0.264,4.021-2.704c-0.392-2.895-2.188-11.925-2.188-11.925l-3.838-2.859L395.69,117.244"/>
	<path fill="#40B93C" d="M425.042,129.091c0,0-9.178,8.146-10.794,11.6c-1.688,3.466-3.104,17.967,0.341,21.095
		c3.443,3.128,12.233,10.711,15.539,6.451c3.233-4.248,11.54-18.819,11.54-18.819l-6.441-12L425.042,129.091"/>
	<path fill="#3FB23F" d="M425.936,129.828c0,0-8.347,7.388-9.86,10.54c-1.583,3.163-2.808,16.415,0.312,19.3
		c3.123,2.885,11.176,9.776,14.173,5.919c2.991-3.93,10.544-17.175,10.544-17.175c-2.009-3.684-3.937-7.305-5.876-10.998
		C432.154,134.882,429.009,132.361,425.936,129.828"/>
	<path fill="#41AB43" d="M426.749,130.511c0,0-7.637,6.786-9.047,9.638c-1.409,2.852-2.578,14.945,0.295,17.578
		c2.872,2.63,10.202,8.973,12.957,5.434c2.748-3.608,9.585-15.751,9.585-15.751c-1.739-3.288-3.561-6.635-5.307-9.996
		C432.406,135.136,429.572,132.788,426.749,130.511"/>
	<path fill="#43A547" d="M427.47,131.064c0,0-6.926,6.186-8.223,8.808c-1.299,2.621-2.316,13.687,0.305,16.064
		c2.621,2.377,9.301,8.16,11.742,4.954c2.503-3.286,8.771-14.346,8.771-14.346c-1.561-3.025-3.203-6.11-4.832-9.126
		C432.649,135.324,430.064,133.228,427.47,131.064"/>
	<path fill="#439C4A" d="M428.197,131.682c0,0-6.355,5.604-7.542,7.996c-1.114,2.38-2.127,12.438,0.255,14.633
		c2.375,2.125,8.48,7.41,10.738,4.443c2.27-2.897,8.013-13.023,8.013-13.023c-1.449-2.751-2.98-5.562-4.432-8.315L428.197,131.682"
		/>
	<path fill="#44944E" d="M428.838,132.169c0,0-5.78,5.099-6.852,7.257c-1.064,2.23-1.916,11.333,0.225,13.344
		c2.202,1.93,7.74,6.718,9.754,4.072c2.075-2.726,7.31-11.849,7.31-11.849l-4.046-7.577L428.838,132.169"/>
	<path fill="#40B93C" d="M445.594,160.892c0,0-8.764,11.181-10.26,16.058c-1.425,4.868-1.972,25.793,1.691,30.547
		c3.664,4.754,12.991,16.289,15.986,10.275c3.076-5.954,10.498-26.517,10.498-26.517l-7.146-17.729L445.594,160.892"/>
	<path fill="#3FB23F" d="M446.535,161.983c0,0-8.031,10.222-9.373,14.646c-1.333,4.495-1.835,23.618,1.479,27.916
		c3.394,4.357,11.861,14.858,14.651,9.448c2.78-5.482,9.574-24.307,9.574-24.307c-2.165-5.386-4.332-10.773-6.501-16.161
		C453.041,169.661,449.784,165.788,446.535,161.983"/>
	<path fill="#41AB43" d="M447.312,162.961c0,0-7.291,9.328-8.457,13.441c-1.25,4.053-1.689,21.513,1.356,25.415
		c3.053,3.974,10.822,13.562,13.316,8.625c2.563-4.95,8.795-22.117,8.795-22.117c-2.041-4.973-4.001-9.885-6.028-14.788
		C453.297,169.99,450.311,166.51,447.312,162.961"/>
	<path fill="#43A547" d="M448.155,163.854c0,0-6.68,8.526-7.824,12.276c-1.087,3.67-1.514,19.619,1.271,23.197
		c2.794,3.648,9.874,12.396,12.204,7.839c2.34-4.488,7.982-20.137,7.982-20.137c-1.829-4.499-3.662-8.996-5.49-13.494
		C453.628,170.301,450.893,167.077,448.155,163.854"/>
	<path fill="#439C4A" d="M448.853,164.765c0,0-6.069,7.725-7.051,11.095c-1.051,3.379-1.391,17.877,1.145,21.2
		c2.526,3.253,8.995,11.221,11.102,7.125c2.095-4.167,7.216-18.378,7.216-18.378c-1.631-4.093-3.265-8.187-4.968-12.271
		C453.809,170.564,451.331,167.666,448.853,164.765"/>
	<path fill="#44944E" d="M449.53,165.537c0,0-5.512,7.076-6.46,10.152c-0.878,3.066-1.254,16.205,1.091,19.193
		c2.274,3,8.145,10.26,10.078,6.475c1.871-3.705,6.579-16.713,6.579-16.713l-4.523-11.107L449.53,165.537"/>
	<path fill="#40B93C" d="M465.529,197.665c0,0-4.598,5.873-5.331,8.417c-0.805,2.553-1.114,13.526,0.801,16
		c1.917,2.472,6.831,8.494,8.423,5.402c1.585-3.165,5.521-13.908,5.521-13.908l-3.769-9.269L465.529,197.665"/>
	<path fill="#3FB23F" d="M466.039,198.247c0,0-4.238,5.319-4.93,7.644c-0.691,2.326-0.986,12.355,0.831,14.627
		c1.745,2.281,6.159,7.796,7.642,4.935c1.409-2.851,5.038-12.691,5.038-12.691c-1.179-2.859-2.347-5.652-3.453-8.52L466.039,198.247
		"/>
	<path fill="#41AB43" d="M466.472,198.762c0,0-3.863,4.913-4.516,7.015c-0.579,2.089-0.847,11.259,0.729,13.347
		c1.648,2.078,5.701,7.065,7.009,4.515c1.37-2.63,4.609-11.626,4.609-11.626c-1.069-2.587-2.139-5.174-3.137-7.771
		C469.556,202.443,468.008,200.569,466.472,198.762"/>
	<path fill="#43A547" d="M466.886,199.209c0,0-3.485,4.5-4.086,6.45c-0.608,1.88-0.84,10.25,0.638,12.136
		c1.478,1.885,5.192,6.489,6.38,4.1c1.185-2.39,4.174-10.561,4.174-10.561c-0.968-2.388-1.858-4.709-2.827-7.096
		C469.714,202.564,468.267,200.893,466.886,199.209"/>
	<path fill="#439C4A" d="M467.238,199.665c0,0-3.183,4.097-3.74,5.826c-0.477,1.791-0.67,9.367,0.646,11.132
		c1.308,1.693,4.671,5.837,5.816,3.667c1.073-2.159,3.807-9.574,3.807-9.574c-0.872-2.183-1.73-4.298-2.602-6.479
		C469.885,202.757,468.527,201.215,467.238,199.665"/>
	<path fill="#44944E" d="M467.59,200.12c0,0-2.888,3.628-3.384,5.276c-0.433,1.572-0.646,8.502,0.571,10.062
		c1.221,1.563,4.254,5.391,5.276,3.383c1.032-1.937,3.487-8.741,3.487-8.741l-2.374-5.863L467.59,200.12"/>
	<path fill="#40B93C" d="M297.166,98.374c0,0,0.443,15.472,1.598,19.772c1.159,4.303,8.375,16.699,11.585,15.474
		c3.153-1.146,11.044-4.443,10.155-11.011c-0.88-6.497-5.171-25.977-5.171-25.977l-9.25-2.485L297.166,98.374"/>
	<path fill="#3FB23F" d="M297.871,97.201c0,0,0.411,14.183,1.441,18.071c1.039,3.958,7.597,15.222,10.546,14.175
		c2.869-1.107,10.155-4.107,9.342-10.11c-0.813-6.002-4.794-23.728-4.794-23.728c-2.766-0.774-5.593-1.471-8.426-2.238
		C303.28,94.672,300.57,95.901,297.871,97.201"/>
	<path fill="#41AB43" d="M298.44,96.118c0,0,0.39,12.962,1.302,16.505c0.99,3.606,6.992,13.938,9.658,12.93
		c2.667-1.009,9.275-3.7,8.529-9.209c-0.736-5.437-4.375-21.697-4.375-21.697c-2.535-0.664-5.139-1.318-7.682-2.054
		C303.375,93.797,300.938,94.917,298.44,96.118"/>
	<path fill="#43A547" d="M299.025,95.104c0,0,0.307,11.823,1.181,15.084c0.874,3.261,6.386,12.654,8.789,11.825
		c2.465-0.91,8.447-3.447,7.778-8.388c-0.679-5.013-3.976-19.812-3.976-19.812c-2.312-0.621-4.695-1.232-7.008-1.855
		C303.553,92.979,301.259,94.082,299.025,95.104"/>
	<path fill="#439C4A" d="M299.544,94.17c0,0,0.304,10.746,1.07,13.735c0.762,2.987,5.808,11.581,8.002,10.779
		c2.194-0.801,7.697-3.127,7.085-7.647c-0.613-4.52-3.585-17.994-3.585-17.994c-2.163-0.57-4.255-1.148-6.415-1.72
		C303.598,92.253,301.575,93.247,299.544,94.17"/>
	<path fill="#44944E" d="M300.001,93.314c0,0,0.251,9.819,0.978,12.524c0.725,2.706,5.303,10.499,7.284,9.727
		c1.988-0.7,7.022-2.821,6.467-6.917c-0.563-4.166-3.297-16.377-3.297-16.377l-5.821-1.586L300.001,93.314"/>
	<path fill="#40B93C" d="M326.749,100.764c0,0-1.113,14.604,0.516,19.203c1.701,4.588,14.142,20.017,20.412,20.677
		c6.271,0.66,21.979,1.984,21.089-4.583c-0.889-6.567-6.735-26.915-6.735-26.915l-17.597-7.325L326.749,100.764"/>
	<path fill="#3FB23F" d="M328.203,100.354c0,0-0.992,13.364,0.508,17.548c1.501,4.185,12.904,18.314,18.59,18.91
		c5.76,0.585,20.158,1.801,19.345-4.201c-0.813-6.003-6.209-24.613-6.209-24.613c-5.334-2.228-10.667-4.453-16.071-6.669
		C338.998,100.977,333.639,100.698,328.203,100.354"/>
	<path fill="#41AB43" d="M329.585,99.954c0,0-0.934,12.206,0.449,16.044c1.382,3.84,11.758,16.745,16.929,17.267
		c5.258,0.583,18.417,1.676,17.671-3.831c-0.736-5.437-5.629-22.463-5.629-22.463c-4.944-1.991-9.825-4.062-14.705-6.133
		C339.375,100.571,334.521,100.292,329.585,99.954"/>
	<path fill="#43A547" d="M330.838,99.637c0,0-0.866,11.119,0.399,14.616c1.264,3.498,10.688,15.234,15.432,15.743
		c4.811,0.5,16.812,1.535,16.133-3.479c-0.679-5.015-5.14-20.446-5.14-20.446c-4.5-1.905-8.918-3.753-13.409-5.59
		C339.751,100.156,335.33,99.893,330.838,99.637"/>
	<path fill="#439C4A" d="M331.948,99.344c0,0-0.788,10.102,0.366,13.326c1.149,3.153,9.785,13.846,14.093,14.343
		c4.379,0.483,15.284,1.382,14.662-3.208c-0.612-4.52-4.682-18.637-4.682-18.637c-4.037-1.685-8.156-3.426-12.193-5.108
		C340.065,99.829,336.077,99.575,331.948,99.344"/>
	<path fill="#44944E" d="M332.987,99.062c0,0-0.703,9.155,0.344,12.105c1.037,2.879,8.826,12.61,12.831,13.001
		c3.946,0.474,13.835,1.292,13.271-2.875c-0.554-4.095-4.24-16.972-4.24-16.972l-11.048-4.615L332.987,99.062"/>
	<path fill="#40B93C" d="M257.435,100.666c0,0-0.04,5.543,0.373,6.998c0.492,1.514,3.665,5.83,5.18,5.338
		c1.515-0.494,5.221-1.787,4.915-4.045c-0.315-2.331-2.029-9.145-2.029-9.145l-4.265-0.717L257.435,100.666"/>
	<path fill="#3FB23F" d="M257.777,100.544c0,0-0.037,5.041,0.368,6.423c0.473,1.374,3.365,5.224,4.75,4.823
		c1.383-0.405,4.747-1.58,4.46-3.698c-0.287-2.118-1.853-8.376-1.853-8.376c-1.249-0.191-2.577-0.441-3.895-0.623
		C260.375,99.546,259.081,100.082,257.777,100.544"/>
	<path fill="#41AB43" d="M258.122,100.426c0,0-0.024,4.606,0.36,5.849c0.386,1.242,3.018,4.767,4.26,4.383s4.403-1.458,4.145-3.366
		c-0.258-1.906-1.676-7.609-1.676-7.609c-1.179-0.201-2.427-0.391-3.604-0.591C260.445,99.536,259.283,99.982,258.122,100.426"/>
	<path fill="#43A547" d="M258.395,100.318c0,0-0.011,4.172,0.355,5.274c0.374,1.171,2.76,4.444,3.929,4.07
		c1.102-0.367,3.99-1.334,3.751-3.098s-1.583-6.906-1.583-6.906c-1.035-0.217-2.144-0.428-3.239-0.566
		C260.585,99.518,259.486,99.883,258.395,100.318"/>
	<path fill="#439C4A" d="M258.668,100.209c0,0,0.012,3.81,0.296,4.849c0.355,1.032,2.551,3.968,3.59,3.684
		c1.031-0.354,3.646-1.213,3.426-2.836c-0.221-1.625-1.434-6.35-1.434-6.35c-0.957-0.157-1.913-0.316-2.938-0.464
		C260.646,99.438,259.697,99.854,258.668,100.209"/>
	<path fill="#44944E" d="M258.94,100.101c0,0-0.035,3.456,0.312,4.415c0.265,0.9,2.291,3.645,3.249,3.3
		c0.9-0.265,3.303-1.095,3.112-2.506c-0.201-1.482-1.289-5.794-1.289-5.794l-2.716-0.423L258.94,100.101"/>
	<polygon fill="#44944E" points="270.274,242.978 268.169,253.028 260.363,256.835 260.666,257.456 268.775,253.501 270.95,243.118 
			"/>
	<path fill="#44944E" d="M361.703,226.044l0.045,0.043c0.473,0.452,4.34,4.427,4.327,9.383c0,1.437-0.317,2.959-1.13,4.527
		l0.613,0.318c0.865-1.667,1.208-3.308,1.208-4.846c-0.016-5.673-4.572-9.9-4.591-9.93L361.703,226.044z"/>
</g>
</svg>
