<svg version="1.1" id="Layer_1" xmlns="http://www.w3.org/2000/svg" xmlns:xlink="http://www.w3.org/1999/xlink" viewBox="0 0 768 430" enable-background="new 0 0 768 430" xml:space="preserve">
<g>
	<g>
		<path fill="#759B51" d="M363.934,86.27c-54.892-17.79-117.455,26.976-118.335,84.671l0.004,0.006
			c24.881-17.802,84.145-60.206,118.335-84.671L363.934,86.27z"/>
		<path fill="#65894F" d="M245.603,170.946l0.005,0.006c54.891,17.791,117.455-26.975,118.335-84.67l-0.005-0.007
			C329.747,110.74,270.483,153.145,245.603,170.946z"/>
	</g>
	<path fill="#759B51" d="M359.779,112.622c-6.65,39.337-31.112,72.391-55.01,97.641c6.258-1.976,12.685-3.297,19.209-3.956
		c23.439-27.257,38.22-53.534,44.957-80.042c1.866-7.346,11.555-8.877,15.696-2.529c19.915,30.53,42.987,58.582,68.989,83.935
		c1.116,0.129,2.229,0.277,3.336,0.451c2.422,0.381,4.848,0.576,7.212,0.584h0.002c2.396,0,4.697-0.197,6.929-0.552
		c-33.383-30.897-62.053-66.037-85.615-105.017c-4.596-7.602-8.348-15.685-11.316-24.057c-1.6-4.51-6.823-8.2-11.608-8.2h-0.001
		c-4.785,0-7.392,3.69-5.792,8.2C360.579,89.828,361.682,101.378,359.779,112.622z"/>
	<path fill="#86000E" d="M540.215,259.125c-1.262-33.971-28.996-61.52-62.973-62.585c-8.882-0.278-17.371,1.239-25.154,4.193
		c-7.784-2.954-16.274-4.472-25.157-4.193c-33.977,1.066-61.71,28.616-62.971,62.586c-0.163,4.406,0.813,9.882,2.188,15.223
		c2.676,10.397,6.936,20.31,12.25,29.637c3.387,5.944,6.66,11.951,9.959,17.946c12.367,22.477,36.263,37.711,63.73,37.711
		c28.091,0,52.447-15.935,64.555-39.254c2.38-4.584,4.817-9.137,7.475-13.566c6.088-10.147,10.961-21.016,13.91-32.475
		C539.401,269.007,540.379,263.531,540.215,259.125z"/>
	<path fill="#71000E" d="M540.215,259.125c-0.736-19.814-10.487-37.432-25.222-48.896c5.908,9.368,9.499,20.324,9.934,32.046
		c0.164,4.406-0.813,9.883-2.188,15.224c-2.949,11.458-7.822,22.327-13.91,32.475c-2.657,4.429-5.095,8.982-7.475,13.566
		c-12.107,23.319-36.464,39.253-64.555,39.253c-17.234,0-33.062-6-45.518-16.021c12.989,19.792,35.362,32.869,60.806,32.869
		c28.091,0,52.447-15.934,64.555-39.253c2.38-4.584,4.817-9.137,7.475-13.566c6.088-10.147,10.961-21.016,13.91-32.475
		C539.401,269.007,540.379,263.531,540.215,259.125z"/>
	<path fill="#92000E" d="M406.012,263.828c-1.262-33.97-28.996-61.52-62.973-62.585c-8.882-0.278-17.371,1.24-25.154,4.193
		c-7.784-2.954-16.274-4.472-25.156-4.193c-33.977,1.066-61.711,28.616-62.972,62.587c-0.163,4.405,0.813,9.881,2.188,15.222
		c2.675,10.397,6.936,20.31,12.25,29.638c3.387,5.943,6.66,11.951,9.959,17.945c12.367,22.477,36.263,37.711,63.73,37.711
		c28.091,0,52.447-15.935,64.555-39.254c2.38-4.584,4.816-9.137,7.475-13.566c6.088-10.146,10.961-21.016,13.91-32.474
		C405.199,273.71,406.176,268.234,406.012,263.828z"/>
	<path fill="#7D000E" d="M406.012,263.828c-0.735-19.814-10.488-37.432-25.221-48.896c5.908,9.369,9.497,20.324,9.934,32.046
		c0.163,4.406-0.813,9.883-2.188,15.224c-2.949,11.458-7.822,22.327-13.91,32.475c-2.657,4.43-5.095,8.982-7.475,13.566
		c-12.107,23.319-36.464,39.253-64.555,39.253c-17.234,0-33.061-6-45.518-16.021c12.989,19.792,35.362,32.87,60.806,32.87
		c28.091,0,52.447-15.935,64.555-39.254c2.38-4.584,4.816-9.137,7.475-13.566c6.088-10.147,10.961-21.016,13.91-32.475
		C405.199,273.71,406.176,268.234,406.012,263.828z"/>
	<circle fill="#AB2A27" cx="287.771" cy="245.625" r="30.692"/>
</g>
</svg>
