<?xml version="1.0" encoding="utf-8"?>
<!-- Generator: Adobe Illustrator 16.0.0, SVG Export Plug-In . SVG Version: 6.00 Build 0)  -->
<!DOCTYPE svg PUBLIC "-//W3C//DTD SVG 1.1//EN" "http://www.w3.org/Graphics/SVG/1.1/DTD/svg11.dtd">
<svg version="1.1" id="Layer_1" xmlns="http://www.w3.org/2000/svg" xmlns:xlink="http://www.w3.org/1999/xlink" x="0px" y="0px"
	 width="768px" height="430px" viewBox="0 0 768 430" enable-background="new 0 0 768 430" xml:space="preserve">
<g>
	<path fill="#83A505" d="M322.321,268.596c-59.874-42.431-149.687-10.845-149.451,6.6c0.22,16.266,41.017,44.553,64.118,50.445
		c-12.258,1.259-38.046,4.209-41.017,2.829c-3.3-1.53-14.699-13.847-22.887-3.192c-8.701,11.324,4.736,33.248,20.294,29.359
		c3.299,7.307,14.319,14.023,31.351,5.422c23.337-11.786,55.149-6.535,75.434-18.624
		C327.193,325.328,365.459,298.296,322.321,268.596z"/>
	<path fill="#CEEF56" d="M249.783,276.07c24.907,7.627,52.09,8.641,69.107-9.795c-59.811-38.912-146.25-8.195-146.02,8.92
		c6.195,32.579,74.792,49.08,113.958,56.891c-19.837-1.364-33.75-1.391-51.236-6.301c-12.712,1.324-36.759,4.017-39.621,2.685
		c-3.3-1.53-14.699-13.847-22.887-3.192c-2.406,3.135-3.114,7.079-2.556,11.062c0.521,6.561,7.24,8.964,12.072,8.445
		c6.826-0.729,6.674-17.429,27.449-9.524c10.93,1.878,15.69,1.399,27.24-1.556c-3.771,2.831-18.701,7.033-25.88,6.704
		c-2.701-1.281-8.892-6.283-17.906,1.665c-5.424,11.911,12.66,16.146,22.924,12.021c24.673-9.905,50.093-6.765,76.899-22.009
		c6.824-3.929,9.025-10.639,3.367-13.466c-12.257-7.545-22.866-14.852-35.123-23.337c-16.973-10.375-36.511-15.385-53.196-17.052
		C217.641,274.409,234.386,271.354,249.783,276.07z"/>
	<path fill="#99CC03" d="M249.548,278.073c24.906,7.626,50.554,9.043,67.572-9.394c-50.129-37.197-141.823-8.557-141.591,8.56
		c6.195,32.579,72.133,47.036,111.299,54.847c-19.837-1.364-30.444-2.811-47.678-5.466c-15.886,4.022-41.589,4.222-44.645,3.432
		c-3.654-0.942-12.358-10.922-19.297-4.441c-2.272,2.122-4.217,6.014-4.217,12.162c0.766,5.832,6.66,9.062,11.492,8.545
		c6.826-0.732,6.718-17.561,27.493-9.658c10.931,1.88,15.763,0,27.313-2.955c-3.771,2.831-16.882,8.594-24.061,8.265
		c-2.702-1.282-14.913-6.376-19.97,1.549c-5.424,11.909,13.022,15.995,23.287,11.876c24.673-9.908,49.974-6.288,76.78-21.531
		c6.824-3.928,9.025-12.415,3.367-15.242c-12.257-7.545-21.687-16.974-33.944-25.46c-16.972-10.371-34.574-13.807-54.375-14.929
		C217.641,274.409,234.15,273.358,249.548,278.073z"/>
	<path fill="#363F00" d="M209.717,364.569L209.717,364.569c-8.893,0-14.364-4.78-16.603-9.387c-1.127,0.253-2.273,0.382-3.412,0.382
		c-6.94,0-13.81-4.844-17.502-12.334c-3.254-6.604-3.059-13.596,0.511-18.239c2.287-2.977,5.049-4.485,8.21-4.485
		c4.836,0,9.549,3.484,12.668,5.788c1.074,0.794,2.001,1.479,2.58,1.747c0.254,0.12,1.043,0.316,3.486,0.316
		c6.992,0,21.597-1.537,32.26-2.66c0.892-0.095,1.751-0.184,2.571-0.27c-22.84-6.986-61.869-34.006-62.088-50.226
		c-0.029-2.155,1.18-4.49,3.595-6.939c10.333-10.472,40.95-21.306,74.297-21.306c19.303,0,47.517,3.688,72.304,21.252
		c13.354,9.196,19.961,18.935,19.632,28.946c-0.587,17.868-22.659,33.266-41.822,44.686c-10.415,6.206-23.571,7.843-37.499,9.579
		c-13.07,1.629-26.583,3.312-37.963,9.059C219.566,363.191,214.442,364.569,209.717,364.569z M193.646,354.083l0.163,0.357
		c2.004,4.441,7.236,9.187,15.908,9.189h0c4.578,0,9.557-1.345,14.8-3.994c11.526-5.818,25.124-7.513,38.272-9.152
		c13.827-1.723,26.887-3.348,37.132-9.454c18.958-11.294,40.791-26.496,41.362-43.907c0.319-9.667-6.152-19.134-19.23-28.139
		c-24.589-17.426-52.597-21.082-71.763-21.082c-33.101,0-63.428,10.69-73.625,21.025c-2.231,2.262-3.35,4.367-3.324,6.261
		c0.222,16.45,41.625,44.348,63.764,49.997l-0.068,0.925c-1.495,0.154-3.191,0.333-5.022,0.525
		c-10.685,1.125-25.318,2.665-32.359,2.665c-2.702,0-3.51-0.23-3.882-0.402c-0.667-0.311-1.583-0.986-2.743-1.843
		c-3.021-2.232-7.583-5.604-12.109-5.604c-2.893,0-5.335,1.345-7.462,4.115c-3.35,4.359-3.508,10.967-0.414,17.247
		c3.534,7.174,10.073,11.808,16.657,11.808c1.188,0,2.387-0.148,3.562-0.441L193.646,354.083z"/>
	<path fill="#363F00" d="M194.175,357.009c-5.333-8.182-2.595-14.656,1.371-17.712c10.549-7.594,18.62,3.634,18.62,3.634
		c-5.879-6.494-13.527-6.367-18.044-2.888c-3.647,2.812-6.138,8.805-1.156,16.449L194.175,357.009z"/>
	<path fill="#363F00" d="M214.542,340.737c-1.156,0-2.216-0.1-3.133-0.329l-1.433-1.422c5.626,3.324,24.016-3.667,24.174-3.727
		C234.15,335.26,222.184,340.737,214.542,340.737z"/>
	<path fill="#363F00" d="M222.69,320.793l0.46-0.822c17.464,9.769,63.219,12.093,63.678,12.115
		C286.828,332.086,244.95,332.086,222.69,320.793z"/>
	<path fill="#363F00" d="M278.132,300.819c-28.097-29.951-67.685-22.566-68.083-22.489c0,0,40.319-8.481,68.771,21.844
		L278.132,300.819z"/>
	<path fill="#83A505" d="M428.4,264.992c59.874-42.433,156.994-28.928,163.121-7.711c6.131,21.213-54.747,64.004-77.851,69.897
		c12.26,1.255,50.365,6.679,53.337,5.298c3.3-1.53,14.852-8.015,23.573-0.942c11.092,8.996,0.354,22.631-12.848,22.631
		c0.118,8.132-5.408,25.095-41.591,10.941c-21.938-8.585-45.039-5.756-85.645-22.135C421.313,331.2,385.262,294.691,428.4,264.992z"
		/>
	<path fill="#CEEF56" d="M536.664,353.979c8.33,3.981,24.671,8.015,31.272,4.242c8.463-4.733,10.189-19.644-13.033-15.322
		c-5.116,0.234-16.196,0.876-33.796-6.364c23.729,4.783,30.801,0.44,44.002,1.386c6.601,0,7.856,10.232,19.329,5.213
		c10.612-5.854,7.92-10.61,2.764-13.648c-8.1-3.479-17.307,1.652-20.194,2.991c-2.485,1.153-36.516-3.263-52.475-5.205
		c-17.354,2.898-50.703,8.439-52.634,5.691c34.001-7.429,96.923-38.075,113.268-67.958c9.701-17.74-5.783-22.56-14.447-24.392
		c-34.95-7.393-92.055-4.157-132.319,24.379c-12.076,8.311-17.941,17.157-19.495,25.846c56.806-3.1,84.386-44.193,139.775-28.894
		c-35.656,3.061-60.89,29.579-73.149,38.066c-14.436,10.225-31.796,14.472-43.494,26.411c9.489,6.938,19.297,13.143,30.608,16.712
		C490.933,352.564,509.321,343.604,536.664,353.979z"/>
	<path fill="#99CC03" d="M535.564,358.693c8.33,3.982,26.559,5.813,33.162,2.043c8.46-4.735,9.399-22.158-13.823-17.837
		c-5.116,0.234-16.196,0.876-33.796-6.364c23.729,4.783,30.485,2.513,43.688,3.457c6.602,0,8.799,8.801,20.271,3.783
		c8.173-4.96,9.327-8.547,5.216-11.874c-8.1-3.479-20.086,1.723-22.973,3.061c-2.486,1.154-40.703-3.456-52.777-7.69
		c-17.354,2.898-50.703,8.439-52.634,5.691c45.26-7.543,97.982-37.518,113.268-67.958c7.583-15.103,0.978-20.418-7.686-22.251
		c-34.949-7.393-96.627-3.352-136.895,25.185c-12.074,8.312-20.128,14.211-21.682,22.899c56.806-3.1,84.386-39.3,139.775-28.894
		c-35.656,3.061-61.338,27.708-73.598,36.193c-14.436,10.229-31.348,16.345-43.046,28.284c9.489,6.938,19.297,13.143,30.608,16.712
		C490.933,352.564,508.219,348.321,535.564,358.693z"/>
	<path fill="#363F00" d="M559.654,371.024c-6.418,0-14.386-1.845-23.684-5.481c-9.104-3.561-18.396-5.147-29.154-6.98
		c-15.365-2.619-32.779-5.589-56.499-15.153c-19.362-7.812-40.057-25.609-42.141-44.51c-1.398-12.678,5.315-24.215,19.955-34.299
		c34.2-24.234,75.813-27.853,97.578-27.853c34.418,0,62.906,8.769,66.265,20.399c1.148,3.971,0.095,8.837-3.13,14.47
		c-12.249,21.402-52.804,48.956-72.747,55.351c3.343,0.379,7.781,0.93,12.753,1.548c13.309,1.654,29.867,3.712,35.938,3.712
		c1.476,0,1.902-0.124,2.019-0.179c0.238-0.108,0.52-0.246,0.84-0.399c2.561-1.243,7.891-3.825,13.504-3.825
		c3.717,0,6.988,1.124,9.726,3.342c4.312,3.497,5.789,7.961,4.154,12.568c-2.159,6.087-9.338,10.706-16.826,10.896
		c-0.033,2.445-0.609,7.56-4.46,11.468C570.519,369.368,565.78,371.024,559.654,371.024z M525.71,237.69
		c-36.841,0-72.213,10.091-97.039,27.685c-14.336,9.87-20.915,21.115-19.559,33.42c2.043,18.534,22.454,36.033,41.562,43.74
		c23.621,9.525,40.983,12.486,56.301,15.097c10.808,1.845,20.145,3.438,29.343,7.033c17.735,6.941,30.449,7.171,36.755,0.771
		c3.872-3.929,4.221-9.187,4.189-11.266l-0.005-0.479h0.477c7.278,0,14.334-4.415,16.407-10.273
		c1.491-4.201,0.119-8.292-3.857-11.517c-2.565-2.079-5.639-3.136-9.132-3.136c-5.397,0-10.595,2.521-13.093,3.731
		c-0.325,0.157-0.61,0.296-0.854,0.408c-0.245,0.113-0.763,0.268-2.415,0.268c-6.129,0-22.721-2.065-36.054-3.722
		c-6.261-0.777-11.668-1.451-15.109-1.803l-0.071-0.927c18.792-4.794,61.83-33.486,74.472-55.573
		c3.092-5.403,4.115-10.026,3.044-13.738C587.876,246.354,559.165,237.69,525.71,237.69z"/>
	<path fill="#363F00" d="M577.095,360.736l-0.883-0.333c2.334-6.179,0.354-11.93-5.298-15.384
		c-6.526-3.986-17.073-3.919-23.424,3.096c0,0,9.604-12.209,23.915-3.898C577.473,347.925,579.602,354.1,577.095,360.736z"/>
	<path fill="#363F00" d="M552.65,343.775c-12.25,0-29.043-5.854-29.043-5.854c0.181,0.049,19.138,5.243,31.296,4.979l-1.316,0.866
		C553.279,343.771,552.967,343.775,552.65,343.775z"/>
	<path fill="#363F00" d="M463.83,333.783c0.462-0.02,46.217-2.921,63.68-12.688l0.46,0.822
		C509.635,332.844,463.83,333.783,463.83,333.783z"/>
	<path fill="#363F00" d="M479.198,298.138l-0.705-0.625c29.399-33.02,69.06-35.991,69.06-35.991l-0.028,0.471
		C547.12,261.992,508.315,265.436,479.198,298.138z"/>
	<path fill="#83A505" d="M290.734,176.117c16.973,19.089,32.059,40.146,0.63,86.978c-20.666,37.403,20.377,93.21,97.433,90.69
		c82.587-2.703,81.249-67.982,54.218-102.164c-12.838-23.026-33.474-45.258-8.661-75.504
		C390.979,190.574,325.307,191.204,290.734,176.117z"/>
	<path fill="#99CC03" d="M384.115,248.018c-3.444-20.937-4.717-41.696,0.574-62.049c-34.625,3.223-71.09,0.125-93.956-9.852
		c16.973,19.089,32.059,40.146,0.63,86.978c-2.839,5.139-4.506,10.624-5.084,16.259c20.156-10.191,47.471,1.099,70.716-3.4
		C367.863,274.503,373.503,252.812,384.115,248.018z"/>
	<path fill="#363F00" d="M383.78,354.341c-47.749,0-77.961-22.371-90.312-43.308c-9.561-16.204-10.478-33.761-2.518-48.167
		c30.345-45.217,17.695-65.896-0.568-86.436l0.541-0.746c16.317,7.12,40.285,11.042,67.487,11.042
		c27.088,0,54.714-4.031,75.796-11.057l1.548-0.517l-1.036,1.262c-21.092,25.714-8.877,45.798,2.938,65.219
		c1.942,3.194,3.953,6.496,5.771,9.759c13.733,17.357,22.714,45.538,11.721,69.229c-6.764,14.576-23.761,32.241-66.335,33.637
		C387.134,354.312,385.442,354.341,383.78,354.341z M292.457,177.354c7.829,8.932,15.324,18.816,17.209,31.781
		c2.215,15.227-3.644,32.964-17.912,54.222c-7.772,14.074-6.86,31.289,2.525,47.198c12.219,20.711,42.146,42.842,89.5,42.842
		c1.65,0,3.333-0.029,5.001-0.083c42.095-1.378,58.859-18.755,65.512-33.087c10.823-23.328,1.948-51.119-11.647-68.312
		c-1.853-3.31-3.856-6.604-5.793-9.79c-11.798-19.393-23.99-39.433-3.86-65.067c-20.969,6.75-48.037,10.611-74.582,10.611
		C332.12,187.669,308.818,184.016,292.457,177.354z"/>
	<path fill="#EAE8A0" d="M425.884,245.808c-12.835-23.028-31.744-55.632,8.47-69.69c-43.375,14.457-109.046,15.086-143.62,0
		c16.973,19.089,50.407,32.979,32.53,78.118c-23.1,58.334,23.347,101.762,65.533,99.55
		C463.917,349.842,443.802,277.946,425.884,245.808z"/>
	<path fill="#FFFFCD" d="M408.471,237.22c-10.178-18.077-10.855-40.654-17.844-35.53c-16.851,11.56-41.601,11.794-55.274,3.78
		c-4.213-2.47-12.966-2.514-17.592-3.064c9.755,11.934,15.238,27.247,5.502,51.83c-7.022,17.731-7.614,34.086-3.853,48.2
		c18.463,23.852,35.477,33.135,65.279,27.499C435.616,312.335,420.177,258.009,408.471,237.22z"/>
	<path fill="#A59F34" d="M385.696,354.337c-22.292,0-44.243-11.929-57.294-31.131c-13.429-19.761-15.408-44.317-5.576-69.146
		c14.089-35.576-4.273-51.842-20.474-66.192c-4.356-3.859-8.472-7.504-11.97-11.438l0.541-0.746
		c16.317,7.12,40.285,11.042,67.487,11.042c27.088,0,54.714-4.031,75.796-11.057l0.303,0.892
		c-11.83,4.137-19.365,10.276-22.391,18.245c-5.728,15.09,4.992,34.305,13.606,49.746l0.571,1.027
		c10.699,19.191,24.983,58.591,10.656,84.513c-8.174,14.787-24.364,22.917-48.131,24.163
		C387.79,354.31,386.736,354.337,385.696,354.337z M292.544,177.391c3.129,3.303,6.693,6.459,10.434,9.772
		c16.433,14.555,35.059,31.053,20.726,67.244c-9.713,24.53-7.768,48.773,5.479,68.265c12.683,18.664,34.864,30.723,56.514,30.723
		c1.025,0,2.06-0.027,3.075-0.081c23.421-1.228,39.35-9.193,47.355-23.674c14.129-25.564-0.05-64.578-10.652-83.603l-0.574-1.025
		c-8.709-15.611-19.546-35.039-13.662-50.539c2.377-6.269,7.417-11.427,15.014-15.401c-19.856,5.5-44.06,8.597-67.842,8.597
		C332.168,187.669,308.901,184.028,292.544,177.391z"/>
	<path fill="#83A505" d="M360.699,339.416c-7.891-0.102-17.948-5.917-21.562-14.559c-2.933-7.014-9.177-2.176-13.122-9.746
		c-4.873-9.346-15.165-21.526-20.823-25.612c3.771-1.259,10.53-6.288,12.338-12.541l-2.126-45.476
		c-29.544,10.213-47.992,49.443-46.88,60.159c1.466,14.124,38.536,34.835,39.889,38.713c1.179,3.38-13.558,11.765-16.539,9.912
		c-5.069-3.152-26.953-7.894-27.661,7.649c-0.708,15.56,21.806,19.449,29.938,13.319c1.296,10.962,12.234,13.547,21.097,12.847
		c8.958-0.706,18.152-10.606,20.273-23.69c5.539,10.138,28.922,24.367,41.017,15.48
		C389.269,356.521,379.367,337.898,360.699,339.416z"/>
	<path fill="#CEEF56" d="M360.699,339.416c-10.526,3.959-21.599-0.181-25.215-8.824c-2.933-7.011-9.668-4.403-13.614-11.972
		c-4.871-9.35-31.487-28.917-28.543-34.261c11.615,0.764,18.851-1.555,24.205-7.401l-2.886-26.464l0.76-19.012
		c-29.544,10.213-47.992,49.443-46.88,60.159c1.466,14.124,38.536,34.835,39.889,38.713c1.179,3.38-13.558,11.765-16.539,9.912
		c-5.069-3.152-27.02-7.894-27.661,7.649c-0.486,11.839,23.011,12.019,24.307,4.806c1.479-8.492,7.986-9.192,18.073-12.201
		c5.107-1.525,12.448-6.341,15.275-9.172c-3.827,5.71-7.791,8.506-13.29,14.823c-7.25-1.464-12.741,5.261-14.252,8.251
		c-0.717,10.28,9.981,13.401,18.395,10.871c8.361-2.516,19.879-13.215,22.001-26.296c5.538,10.135,24.115,28.275,37.088,20.728
		C381.139,354.304,379.367,337.898,360.699,339.416z"/>
	<path fill="#99CC03" d="M360.699,339.416c-10.526,3.959-19.218-1.938-22.833-10.582c-2.931-7.014-9.569-3.908-13.513-11.478
		c-4.873-9.349-24.345-27.629-30.002-31.716c11.615,0.762,17.827-2.836,23.181-8.683l2.264-30.001l-4.391-15.475
		c-29.125,13.354-43.867,50.058-42.756,60.775c1.466,14.123,37.903,30.573,38.346,37.206c0.628,9.4-16.507,14.564-19.488,12.711
		c-5.069-3.152-22.63-6.915-27.292,5.741c-0.486,11.839,24.871,13.163,26.168,5.95c1.479-8.492,6.204-9.261,16.291-12.271
		c5.107-1.524,12.369-7.416,15.196-10.247c-2.98,7.649-10.926,12.81-8.181,15.968c-7.25-1.464-18.275,4.235-19.338,10.017
		c-0.717,10.282,10.745,13.005,19.158,10.475c8.361-2.514,19.252-11.59,21.373-24.674c5.54,10.138,24.925,25.776,37.901,18.231
		C382.109,355.939,379.367,337.898,360.699,339.416z"/>
	<path fill="#363F00" d="M312.562,374.66c-8.568,0-17.237-3.283-18.77-12.601c-5.24,3.376-14.715,3.242-21.627-0.401
		c-5.697-3.002-8.688-7.892-8.421-13.763c0.203-4.459,2.101-7.665,5.643-9.531c7.259-3.823,19.228-0.681,22.737,1.502
		c1.616,1.005,8.546-1.917,13.006-5.483c2.051-1.644,3.112-3.087,2.838-3.87c-0.384-1.104-4.738-4.261-9.778-7.914
		c-11.594-8.402-29.117-21.099-30.135-30.909c-0.62-5.972,4.974-21.641,15.496-35.927c15.264-20.826,31.853-24.28,31.853-24.28
		c-12.96,4.48-23.642,14.521-31.481,25.274c-10.147,13.92-15.532,29.034-14.93,34.835c0.974,9.393,18.29,21.94,29.75,30.244
		c6.331,4.589,9.654,7.044,10.115,8.364c0.542,1.553-1.408,3.531-3.139,4.917c-4.053,3.244-11.756,6.999-14.093,5.549
		c-3.374-2.096-14.857-5.121-21.801-1.469c-3.224,1.698-4.954,4.641-5.14,8.742c-0.25,5.486,2.563,10.061,7.919,12.885
		c6.795,3.583,16.533,3.6,21.264,0.035l0.655-0.492l0.097,0.815c1.214,10.266,11.427,13.156,20.592,12.431
		c9.125-0.721,17.843-10.953,19.844-23.297l0.22-1.355l0.66,1.206c3.508,6.418,14.662,14.936,25.68,17.38
		c5.948,1.322,11.015,0.611,14.643-2.054c4.992-3.665,6.752-9.121,4.711-14.59c-2.282-6.116-9.425-11.893-20.232-11.017
		c-7.844-0.103-18.204-5.683-22.037-14.848c-1.358-3.248-3.406-3.769-5.776-4.368c-2.454-0.62-5.235-1.325-7.329-5.341
		c-4.947-9.494-15.179-21.479-20.681-25.451l-0.745-0.538l0.872-0.291c3.944-1.315,10.941-6.417,12.552-13.648l0.389,1.688
		c-1.69,5.842-7.672,10.807-11.825,12.546c5.712,4.478,15.466,16.035,20.274,25.259c1.897,3.643,4.35,4.263,6.722,4.861
		c2.398,0.607,4.876,1.236,6.416,4.919c3.637,8.691,13.801,14.174,21.136,14.269c11.25-0.911,18.739,5.181,21.147,11.63
		c2.198,5.886,0.316,11.75-5.037,15.683c-3.854,2.828-9.181,3.595-15.405,2.213c-10.656-2.367-21.458-10.319-25.649-16.759
		c-2.439,12.189-11.248,22.114-20.477,22.843C314.387,374.624,313.474,374.66,312.562,374.66z"/>
	<path fill="#363F00" d="M307.792,292.258c-4.261-5.05-13.351-6.603-13.442-6.617c0,0,9.676,0.691,14.162,6.007L307.792,292.258z"/>
	<path fill="#363F00" d="M308.58,346.172l-1.161-0.354c5.193-3.925,14.451-13.995,14.451-13.995
		C321.546,332.242,313.874,342.174,308.58,346.172z"/>
	<path fill="#363F00" d="M294.314,364.253c-2.065-6-0.861-11.553,3.302-15.23c8.27-7.303,17.662-1.035,17.662-1.035
		c-5.798-2.839-12.645-2.141-17.038,1.743c-3.863,3.41-4.97,8.593-3.035,14.216L294.314,364.253z"/>
	<path fill="#363F00" d="M350.173,342.175c0,0,8.766-3.988,14.979-3.211l-0.116,0.938
		C359.039,339.153,350.262,342.144,350.173,342.175z"/>
	<path fill="#83A505" d="M473.659,352.515c-3.613-8.016-14.38-13.673-13.2-16.265c1.179-2.595,27.978-41.644,25.144-51.075
		c-5.026-16.737-31.432-54.139-63.174-56.023c0,0,12.265,32.887,17.1,49.327c1.99,6.768,10.994,10.396,15.98,12.394
		c-13.908,11.744-19.239,37.629-18.345,48.438c-4.058,1.145-14.344,5.073-20.137,10.194c-5.006-2.771-24.615-7.774-25.874,8.902
		c-1.509,20.03,27.818,20.037,45.025,8.252c-0.708,16.499,8.957,25.222,19.33,23.806c10.375-1.414,16.265-7.307,13.277-19.25
		c7.782,3.896,31.772,3.929,31.748-10.645C500.508,347.375,481.674,346.622,473.659,352.515z"/>
	<path fill="#CEEF56" d="M495.577,351.461c-7.12-5.026-20.204-1.719-25.21,4.54c-0.942-7.542-18.406-16.508-16.836-19.308
		c10.486-15.875,18.242-33.945,22.158-47.303c0-10.554-4.292-18.756-19.487-30.961c-17.444-11.55-20.17,2.28-16.341,10.216
		c0.145,0.445-0.929,2.541-0.787,2.984c3.117,8.197,18.431,15.395,29.546,13.674c-5.29,1.623-10.059,4.045-13.111,5.568
		c-13.908,11.744-19.239,37.629-18.345,48.438c-4.058,1.145-14.344,5.073-20.137,10.194c-5.006-2.771-24.615-7.774-25.874,8.902
		c-0.075,0.994-0.052,1.926,0.02,2.824c0.753,11.606,38.093,7.62,48.372-5.23c-0.942,9.65-0.131,17.937,8.355,21.707
		c5.657,2.829,11.132,3.773,13.96,0c5.718-7.013,2.906-12.298,0.313-13.946c-4.27-2.971-8.603-7.073-9.9-14.969
		c8.486,11.316,17.214,19.907,32.53,16.002C496.825,361.73,502.178,355.234,495.577,351.461z"/>
	<path fill="#99CC03" d="M497.358,354.341c-7.12-5.026-21.985-4.599-26.991,1.66c-0.942-7.542-15.58-17.137-14.007-19.937
		c10.485-15.873,18.215-34.889,22.133-48.247c0-10.551-7.726-20.403-22.919-32.608c-17.444-11.552-22.434,7.157-18.606,15.092
		c0.146,0.445,0.296,0.888,0.436,1.333c3.116,8.197,18.328,16.342,29.442,14.619c-17.401,3.607-28.611,34.843-26.358,54.592
		c0,2.173-10.984,1.798-21.604,11.199c-5.008-2.771-25.777-7.611-27.71,9.188c0.753,11.606,37.299,10.633,47.577-2.218
		c-0.943,9.65-0.463,18.769,8.022,22.539c5.659,2.829,14.229,1.814,17.058-1.959c5.718-7.014,0.937-14.184-1.656-15.832
		c-4.27-2.971-8.603-7.073-9.9-14.969c8.486,11.316,20.593,22.701,35.83,18.502C497.18,364.795,502.206,358.93,497.358,354.341z"/>
	<path fill="#363F00" d="M453.329,391.086c-3.959,0-7.698-1.448-10.71-4.193c-4.655-4.244-7.105-11.085-6.94-19.333
		c-12.004,7.829-28.896,9.936-38.075,4.642c-4.99-2.875-7.385-7.656-6.918-13.828c0.379-5.028,2.414-8.574,6.053-10.536
		c6.839-3.69,16.877-0.609,20.227,1.103c5.996-5.169,16.066-8.893,19.7-9.976c-0.758-11.181,4.513-36.024,17.956-47.946
		c-4.728-1.979-12.45-6.072-16.186-12.79l-0.069-1.66c4.164,7.754,12.81,12.062,17.317,13.867l0.731,0.292l-0.602,0.505
		c-13.785,11.638-19.087,37.071-18.18,48.04l0.031,0.386l-0.374,0.106c-3.251,0.918-13.9,4.744-19.949,10.095l-0.25,0.221
		l-0.292-0.159c-3.657-2.024-13.48-4.568-19.614-1.255c-3.337,1.802-5.208,5.089-5.562,9.778
		c-0.435,5.785,1.795,10.259,6.452,12.942c9.092,5.239,26.067,2.942,37.835-5.116l0.778-0.535l-0.042,0.945
		c-0.357,8.376,1.99,15.307,6.607,19.517c3.363,3.067,7.7,4.415,12.19,3.804c5.584-0.763,9.513-2.771,11.683-5.976
		c2.121-3.132,2.524-7.404,1.203-12.695l-0.25-0.995l0.917,0.461c5.353,2.681,18.548,3.396,25.812-1.101
		c3.493-2.162,5.258-5.231,5.251-9.124c-0.01-5.284-3.148-7.977-5.777-9.304c-5.826-2.941-15.144-2.196-20.345,1.628l-0.471,0.344
		l-0.238-0.53c-1.88-4.173-5.741-7.693-8.844-10.522c-3.043-2.771-5.051-4.602-4.357-6.132c0.235-0.514,1.282-2.166,3.02-4.904
		c6.658-10.497,24.344-38.378,22.105-45.84c-2.775-9.231-11.273-23.218-22.996-34.874c-11.077-11.01-25.031-19.939-39.758-20.813
		c0,0,19.03-1.876,41.976,21.646c11.603,12.101,19.249,25.682,21.682,33.771c2.363,7.875-14.858,35.021-22.213,46.616
		c-1.595,2.515-2.749,4.333-2.956,4.787c-0.412,0.903,1.798,2.916,4.133,5.047c3.042,2.774,6.796,6.197,8.826,10.316
		c5.528-3.724,14.924-4.382,20.86-1.382c4.112,2.074,6.288,5.581,6.296,10.144c0.009,4.242-1.909,7.582-5.696,9.928
		c-7.407,4.586-19.91,3.963-25.842,1.543c1.115,5.136,0.59,9.342-1.557,12.514c-2.326,3.436-6.475,5.582-12.334,6.379
		C454.82,391.035,454.071,391.086,453.329,391.086z"/>
	<path fill="#363F00" d="M452.124,294.888l-0.78-0.529c3.629-5.357,15.502-8.105,15.502-8.105
		C466.732,286.288,455.57,289.805,452.124,294.888z"/>
	<path fill="#363F00" d="M420.265,354.055c-0.017-0.044-1.96-4.349-7.811-5.818l0.229-0.916
		C419.004,348.906,420.265,354.055,420.265,354.055z"/>
	<path fill="#363F00" d="M470.367,356.001c0,0,4.432-5.407,7.8-6.259l0.228,0.916C475.266,351.449,470.415,355.957,470.367,356.001z
		"/>
	<path fill="#363F00" d="M469.975,375.464h-0.942c0-5.256-2.313-9.015-6.688-10.87c-5.488-2.327-12.854-1.022-14.443,0.518
		c0,0,4.461-4.387,14.812-1.386C466.025,365.129,469.975,368.307,469.975,375.464z"/>
	<path fill="#363F00" d="M462.783,364.795c-7.738-4.199-10.208-14.126-10.208-14.126c0.031,0.094,3.25,9.275,10.658,13.298
		L462.783,364.795z"/>
	<path fill="#83A505" d="M442.53,101.229c-10.359-44.317-43.834-43.728-55.148-25.095c-20.271-9.537-59.167-1.463-70.481,7.965
		c-17.602-17.05-51.154-6.914-46.91,45.417c-46.832,34.26-8.486,77.005,61.288,71.661l65.533-5.185
		C502.419,184.676,488.116,115.687,442.53,101.229z"/>
	<path fill="#CEEF56" d="M458.874,129.88c-5.766-18.178-17.757-21.53-20.43-26.61c-3.3-6.198,0.158-20.839-15.928-35.015
		c-13.108-8.132-28.238-3.479-35.135,7.878c-20.271-9.537-59.167-1.463-70.481,7.965c-17.602-17.05-51.154-6.914-46.91,45.417
		c-46.832,34.26-8.486,77.005,61.288,71.661l65.533-5.185c24.398-2.614,42.386-8.311,55.076-15.699
		c1.352-1.654,2.737-3.316,4.156-4.997C467.361,161.152,464.014,146.082,458.874,129.88z"/>
	<path fill="#99CC03" d="M460.709,128.64c-5.763-18.177-19.592-20.29-22.265-25.37c-3.3-6.198,3.185-18.487-11.588-31.174
		c-11.254-9.871-35.229-5.392-40.595,7.641c-17.394-9.888-63.194,0-66.067,9.895c-15.03-19.705-53.675-11.926-45.817,42.106
		c-51.86,34.392-12.873,74.784,56.901,69.44l65.533-5.185c24.398-2.614,42.386-8.311,55.076-15.699
		c1.352-1.654,2.737-3.316,4.156-4.997C467.361,161.152,465.849,144.843,460.709,128.64z"/>
	<path fill="#363F00" d="M264.842,187.911c-6.862-4.774-11.816-10.61-14.283-17.286c-5.136-13.893,1.59-28.563,18.941-41.334
		c-2.883-36.501,12.368-47.796,19.072-50.96c9.298-4.39,20.38-2.366,28.352,5.139c12.239-9.766,50.136-17.098,70.279-7.94
		c5.422-8.612,15.343-13.129,25.39-11.529c14.28,2.275,25.325,15.704,30.335,36.859c21.891,7.056,36.329,26.316,34.36,45.892
		c-1.187,11.797-8.177,22.454-20.22,30.818l-0.537-0.774c11.805-8.203,18.659-18.625,19.818-30.138
		c1.931-19.21-12.354-38.127-33.964-44.981l-0.254-0.081l-0.061-0.26c-4.889-20.913-15.687-34.182-29.628-36.404
		c-9.808-1.565-19.485,2.93-24.658,11.446l-0.221,0.363l-0.383-0.181c-19.563-9.203-58.481-1.684-69.979,7.901l-0.326,0.271
		l-0.304-0.294c-7.708-7.467-18.541-9.53-27.597-5.253c-6.542,3.087-21.444,14.171-18.515,50.293l0.022,0.263l-0.213,0.156
		c-17.136,12.536-23.822,26.883-18.826,40.401c2.397,6.486,7.208,12.164,13.875,16.819L264.842,187.911z"/>
	<path fill="#363F00" d="M321.74,96.207c-0.018-0.098-1.882-9.839-7.479-13.779l0.543-0.771
		C320.717,85.819,321.74,96.207,321.74,96.207z"/>
	<path fill="#363F00" d="M383.366,89.18c0,0,1.411-12.575,6.762-17.446l0.608,0.724C386.15,76.298,383.393,89.051,383.366,89.18z"/>
	
		<ellipse transform="matrix(0.9853 0.171 -0.171 0.9853 22.8329 -55.1555)" fill="#131600" cx="331.672" cy="105" rx="4.007" ry="5.501"/>
	<path fill="#4A5B00" d="M330.874,108.467c-2.396-0.707-2.686-4.071-2.317-6.562c-2.515,4.279,0.091,8.151,2.176,8.514
		c2.181,0.378,4.992-2.148,4.992-6.258C335.253,105.277,333.31,108.978,330.874,108.467z"/>
	<path fill="#363F00" d="M331.239,110.934c-0.195,0-0.392-0.016-0.588-0.051c-2.434-0.422-3.954-3.404-3.393-6.648
		c0.557-3.202,2.979-5.544,5.435-5.119c2.433,0.423,3.956,3.405,3.392,6.65C335.574,108.712,333.49,110.934,331.239,110.934z
		 M332.105,100.008c-1.799,0-3.484,1.887-3.917,4.388c-0.475,2.731,0.704,5.225,2.625,5.558c1.943,0.335,3.875-1.651,4.344-4.35
		c0.473-2.731-0.704-5.226-2.625-5.56C332.389,100.02,332.247,100.008,332.105,100.008z"/>
	
		<ellipse transform="matrix(0.9884 -0.1518 0.1518 0.9884 -11.5156 56.5254)" fill="#131600" cx="364.349" cy="103.662" rx="4.008" ry="5.499"/>
	<path fill="#4A5B00" d="M364.696,107.202c-2.496,0.094-3.842-3.003-4.289-5.48c-1.019,4.858,2.685,7.699,4.775,7.376
		c2.187-0.335,4.047-3.627,2.74-7.522C367.832,102.784,367.167,106.913,364.696,107.202z"/>
	<path fill="#363F00" d="M365.829,109.425c-0.187,0.062-0.378,0.11-0.573,0.139c-2.443,0.376-4.837-1.967-5.336-5.221
		c-0.493-3.212,1.057-6.204,3.521-6.583c2.441-0.376,4.834,1.968,5.334,5.223C369.229,105.937,367.962,108.708,365.829,109.425z
		 M363.167,98.792c-1.702,0.573-2.698,2.898-2.313,5.406c0.42,2.74,2.33,4.729,4.258,4.435c1.951-0.303,3.148-2.801,2.732-5.508
		c-0.423-2.74-2.333-4.73-4.258-4.433C363.441,98.713,363.305,98.747,363.167,98.792z"/>
	<path fill="#363F00" d="M338.19,97.359c-1.442-2.225-3.581-3.45-6.022-3.45h-0.004c-2.552,0-5.166,1.387-6.5,3.45
		c0,0,1.084-4.145,6.5-4.394h0.004C336.709,92.965,338.19,97.359,338.19,97.359z"/>
	<path fill="#363F00" d="M369.455,95.91c-1.445-2.225-3.583-3.45-6.026-3.45h-0.004c-2.55,0-5.164,1.388-6.5,3.45
		c0,0,1.471-4.394,6.5-4.394h0.004C368.66,91.516,369.455,95.91,369.455,95.91z"/>
	<path fill="#363F00" d="M319.817,127.03c0,0,7.708-10.979,26.579-13.699c21.213-3.057,31.802,7.168,31.802,7.168
		C346.629,103.111,322.467,124.531,319.817,127.03z"/>
	<path fill="#EAE8A0" d="M475.638,133.457c-19.292-19.703-37.376,10.04-52.581,14.917c-22.075,7.081-47.775-20.823-74.098-15.48
		c-26.323,5.342-29.309,21.452-46.595,23.966c-15.568,2.265-43.371-12.035-52.648,8.748c3.573,21.899,35.81,39.072,81.563,35.569
		l33.159,4.292l32.374-9.478C463.821,188.812,482.544,158.412,475.638,133.457z"/>
	<path fill="#FFFFCD" d="M452.51,164.005c12.096-13.933,9.987-28.746,7.564-37.219c-13.31,1.558-26.07,18.076-37.018,21.587
		c-22.075,7.081-47.775-20.823-74.098-15.48c-26.323,5.342-29.309,21.452-46.595,23.966c-15.568,2.265-43.371-12.035-52.648,8.748
		c3.573,21.899,37.291,35.115,83.044,31.611c21.176,6.891,38.841,5.421,60.582-4.479C405.6,186.139,430.755,189.058,452.51,164.005z
		"/>
	<path fill="#363F00" d="M279.513,195.391c-16.803-6.338-28.156-16.796-30.262-29.707l-0.022-0.14l0.058-0.127
		c6.518-14.603,22.111-12.254,35.869-10.183c6.343,0.957,12.333,1.859,17.14,1.16c7.801-1.135,12.604-5.054,18.165-9.591
		c6.583-5.37,14.044-11.457,28.403-14.373c13.332-2.705,26.373,2.965,38.986,8.448c12.454,5.413,24.212,10.524,35.062,7.047
		c4.631-1.485,9.554-5.332,14.764-9.405c11.572-9.043,24.688-19.294,38.299-5.394l0.086,0.086l0.033,0.117
		c2.957,10.688,1.141,21.312-5.259,30.72c-3.946,5.806-10.518,12.391-21.446,18.21c-26.697,13.308-52.628,13.261-52.628,13.261
		c24.232-2.596,41.045-8.05,52.709-14.37c10.45-5.661,16.771-12.017,20.585-17.632c6.214-9.138,7.998-19.448,5.16-29.82
		c-12.986-13.167-25.174-3.646-36.958,5.563c-5.278,4.126-10.267,8.023-15.056,9.559c-11.184,3.588-23.106-1.592-35.728-7.078
		c-12.481-5.426-25.383-11.037-38.42-8.388c-14.134,2.869-21.498,8.877-27.997,14.178c-5.67,4.626-10.565,8.621-18.625,9.792
		c-4.944,0.719-11.002-0.193-17.416-1.159c-14.038-2.113-28.552-4.299-34.811,9.504c1.882,11.118,12.035,21.982,29.137,28.702
		c13.303,5.227,30.81,7.948,51.901,6.334C331.243,200.708,305.651,205.077,279.513,195.391z"/>
	<path fill="#A59F34" d="M317.104,175.646c7.115-0.483,12.14-3.241,17.462-6.158c5.997-3.288,12.197-6.687,22.13-7.598
		c10.312-0.945,18.661,1.047,26.03,2.805c6.241,1.489,11.639,2.775,17.012,2.069c0,0-6.572,1.897-17.233-1.152
		c-7.295-1.741-15.565-3.716-25.724-2.782c-9.739,0.892-15.85,4.243-21.761,7.483C324.156,176.417,317.104,175.646,317.104,175.646z
		"/>
	<path fill="#1E0300" d="M348.959,147.746c28.868-4.684,68.497,12.821,81.033-2.934c-2.37,1.571-4.684,2.841-6.936,3.562
		c-22.075,7.081-47.775-20.823-74.098-15.48c-26.323,5.342-29.309,21.452-46.595,23.966c-5.38,0.782-12.219-0.412-19.249-1.454
		C308.648,166.182,331.063,150.649,348.959,147.746z"/>
	<path fill="#6B0A00" d="M320.596,147.306c-5.478,4.466-10.383,8.413-18.232,9.554c-5.38,0.782-12.219-0.412-19.249-1.454
		c13.656,5.763,26.418,4.001,38.076,0.67C319.559,154.14,319.028,150.663,320.596,147.306z"/>
	<path fill="#6B0A00" d="M423.057,148.374c-10.255,3.29-21.294-0.973-32.812-5.943c1.382,2.535,1.997,5.678,0.724,7.41
		c17.007,2.235,32.122,3.645,39.023-5.029C427.622,146.383,425.309,147.652,423.057,148.374z"/>
	<path fill="#363F00" d="M301.78,159.636h-0.002c-6.632-0.001-12.797-1.242-18.847-3.795l0.252-0.901l1.963,0.294
		c4.804,0.723,9.341,1.408,13.375,1.406c1.396,0,2.63-0.08,3.774-0.246c7.801-1.135,12.604-5.054,18.165-9.591
		c6.583-5.37,14.044-11.457,28.403-14.373c2.272-0.46,4.645-0.694,7.057-0.694c10.9,0,21.59,4.647,31.927,9.142
		c9.678,4.208,18.82,8.182,27.532,8.182c2.674,0.035,5.181-0.383,7.532-1.135c1.992-0.64,4.226-1.788,6.82-3.507l0.629,0.688
		c-3.746,4.71-10.059,6.902-19.859,6.902c-6.915,0-14.783-1.052-23.111-2.166c-9.006-1.205-18.319-2.451-27.166-2.451
		c-4.136,0-7.794,0.268-11.19,0.819c-5.121,0.831-10.645,2.715-16.495,4.708C323.308,156.067,312.841,159.636,301.78,159.636z
		 M287.589,156.552c4.566,1.437,9.246,2.14,14.189,2.14h0.002c10.904,0,21.291-3.54,30.455-6.664
		c5.889-2.008,11.448-3.904,16.65-4.748c3.443-0.559,7.153-0.831,11.339-0.831c8.91,0,18.254,1.25,27.29,2.458
		c8.299,1.11,16.134,2.159,22.987,2.159c7.045,0,12.205-1.146,15.855-3.563c-1.115,0.562-2.162,1-3.156,1.319
		c-2.443,0.784-5.073,1.182-7.817,1.182h-0.004c-8.91,0-18.138-4.013-27.906-8.26c-10.25-4.456-20.849-9.063-31.553-9.063
		c-2.35,0-4.659,0.227-6.868,0.675c-14.134,2.869-21.498,8.877-27.997,14.178c-5.67,4.626-10.565,8.621-18.625,9.792
		c-1.189,0.173-2.467,0.257-3.909,0.257C295.154,157.584,291.474,157.121,287.589,156.552z"/>
	<path fill="#171900" d="M316.102,111.154c-0.565,14.506-9.612,25.905-20.417,25.905c-10.806,0-20.037-11.768-20.037-26.284
		c0-14.516,8.027-27.962,20.037-27.962C309.104,82.813,316.652,97.034,316.102,111.154z"/>
	<ellipse fill="#EAAA1B" cx="295.684" cy="110.775" rx="19.565" ry="26.284"/>
	<path fill="#FFE000" d="M315.249,110.775c0,14.516-37.571,20.205-39.13,0c0-14.516,8.76-26.283,19.565-26.283
		C306.49,84.492,315.249,96.259,315.249,110.775z"/>
	<path fill="#171900" d="M295.685,137.53c-11.048,0-20.037-12.002-20.037-26.755s8.988-26.754,20.037-26.754
		c11.049,0,20.038,12.002,20.038,26.754S306.733,137.53,295.685,137.53z M295.685,84.963c-10.529,0-19.094,11.579-19.094,25.812
		c0,14.233,8.565,25.812,19.094,25.812c10.528,0,19.094-11.58,19.094-25.812C314.778,96.542,306.213,84.963,295.685,84.963z"/>
	<path fill="#FF6700" d="M310.532,108.166c0.707,10.283-4.646,19.244-11.955,20.026c-7.309,0.776-13.811-6.922-14.52-17.193
		c-0.716-10.29,4.638-19.25,11.951-20.025C303.322,90.186,309.822,97.882,310.532,108.166z"/>
	<path fill="#FFA669" d="M309.47,108.905c-0.641-9.348-6.557-16.355-13.204-15.641c-6.65,0.715-11.518,8.861-10.869,18.215
		c0.347,5.037,3.446,11.713,6.768,13.794c-4.717-7.328-5.252-13.387-3.236-19.41c2.577-7.026,9.041-9.963,14.607-3.657
		c4.399,5.375,4.469,14.298,0.287,22.008C306.798,120.839,309.877,114.743,309.47,108.905z"/>
	<path fill="#9B2C00" d="M291.816,98.745c-0.569-1.33-1.075-2.365-1.153-2.328c-0.075,0.05,0.315,1.159,0.878,2.5
		c0.554,1.331,1.066,2.365,1.146,2.322C292.76,101.189,292.37,100.075,291.816,98.745z"/>
	<path fill="#9B2C00" d="M296.37,96.288c-0.195-1.497-0.434-2.678-0.518-2.667c-0.084,0.025,0.018,1.233,0.22,2.71
		c0.208,1.478,0.441,2.685,0.533,2.654C296.685,98.979,296.583,97.765,296.37,96.288z"/>
	<path fill="#9B2C00" d="M288.669,102.969c-0.88-0.69-1.626-1.175-1.667-1.084c-0.036,0.08,0.653,0.696,1.535,1.368
		c0.885,0.689,1.63,1.176,1.671,1.083C290.233,104.262,289.55,103.64,288.669,102.969z"/>
	<path fill="#9B2C00" d="M286.921,108.746c-0.879-0.179-1.602-0.259-1.61-0.16c-0.009,0.08,0.696,0.295,1.579,0.474
		c0.876,0.179,1.604,0.251,1.609,0.166C288.509,109.14,287.8,108.918,286.921,108.746z"/>
	<path fill="#9B2C00" d="M287.208,114.09c-0.754,0.062-1.356,0.161-1.354,0.234c-0.002,0.062,0.614,0.062,1.363,0.02
		c0.746-0.056,1.354-0.168,1.353-0.229C288.571,114.041,287.95,114.035,287.208,114.09z"/>
	<path fill="#9B2C00" d="M288.117,118.961c-0.499,0.203-0.888,0.413-0.864,0.487c0.013,0.062,0.432-0.05,0.924-0.259
		c0.5-0.197,0.88-0.406,0.873-0.481C289.027,118.66,288.621,118.759,288.117,118.961z"/>
	<path fill="#9B2C00" d="M301.042,97.586c0.341-1.539,0.684-2.764,0.77-2.732c0.082,0.024-0.131,1.292-0.473,2.832
		c-0.346,1.539-0.689,2.752-0.769,2.729C300.488,100.383,300.698,99.115,301.042,97.586z"/>
	<path fill="#9B2C00" d="M305.068,101.725c0.787-0.997,1.481-1.743,1.531-1.669c0.061,0.055-0.539,0.93-1.33,1.916
		c-0.788,0.997-1.477,1.749-1.542,1.687C303.674,103.579,304.274,102.723,305.068,101.725z"/>
	<path fill="#9B2C00" d="M307.464,107.687c0.892-0.259,1.623-0.388,1.64-0.296c0.022,0.085-0.69,0.381-1.576,0.629
		c-0.884,0.258-1.623,0.394-1.64,0.301C305.866,108.216,306.577,107.939,307.464,107.687z"/>
	<path fill="#9B2C00" d="M307.937,113.536c0.629,0.049,1.139,0.136,1.139,0.209c-0.002,0.062-0.522,0.074-1.149,0.031
		c-0.629-0.031-1.144-0.123-1.138-0.197C306.798,113.524,307.301,113.5,307.937,113.536z"/>
	<path fill="#9B2C00" d="M307.393,117.902c0.406,0.081,0.738,0.222,0.715,0.289c-0.002,0.062-0.341,0.049-0.748-0.042
		c-0.406-0.105-0.737-0.229-0.721-0.285C306.652,117.791,306.989,117.803,307.393,117.902z"/>
	<path fill="#9B2C00" d="M296.923,128.617c-6.855-0.437-12.526-8.004-13.182-17.593c-0.353-5.068,0.725-9.982,3.027-13.843
		c2.312-3.879,5.583-6.22,9.213-6.601c0.56-0.062,1.121-0.075,1.683-0.043c6.857,0.449,12.528,8.011,13.185,17.593
		c0.344,5.068-0.728,9.989-3.038,13.844c-2.307,3.879-5.574,6.231-9.208,6.613C298.045,128.648,297.47,128.654,296.923,128.617z
		 M297.631,91.331c-0.529-0.037-1.067-0.019-1.603,0.024c-3.438,0.381-6.55,2.611-8.75,6.288c-2.212,3.72-3.243,8.442-2.906,13.307
		c0.634,9.2,6.045,16.454,12.583,16.885c0.531,0.025,1.065,0.014,1.591-0.036c3.453-0.37,6.551-2.611,8.757-6.294
		c2.206-3.701,3.25-8.423,2.911-13.3C309.57,99.016,304.169,91.762,297.631,91.331z"/>
	<path d="M306.235,112.359c0.486,7.113-3.096,13.308-8.019,13.825c-4.916,0.529-9.299-4.815-9.787-11.934
		c-0.495-7.113,3.089-13.308,8.009-13.831C301.355,99.89,305.743,105.235,306.235,112.359z"/>
	<path fill="#F2FAFC" d="M295.627,107.206c-2.152,3.412-5.218,4.889-6.831,3.325c-1.618-1.576-1.188-5.628,0.964-9.039
		c2.153-3.412,5.21-4.901,6.831-3.312C298.206,99.755,297.78,103.8,295.627,107.206z"/>
	<path fill="#F2FAFC" d="M304.036,106.683c-0.063,1.595-1.108,2.826-2.327,2.733c-1.214-0.067-2.15-1.434-2.086-3.023
		c0.061-1.582,1.11-2.821,2.333-2.733C303.175,103.739,304.102,105.087,304.036,106.683z"/>
	<path fill="#F2FAFC" d="M305.583,109.644c-0.018,0.616-0.468,1.097-0.986,1.061c-0.517-0.038-0.908-0.568-0.884-1.184
		c0.024-0.628,0.461-1.096,0.984-1.065C305.214,108.486,305.608,109.016,305.583,109.644z"/>
	<path fill="#171900" d="M431.229,98.379c0,14.516-9.23,26.283-20.037,26.283c-10.805,0-20.038-11.349-20.038-25.864
		c0-14.517,6.8-28.695,20.029-28.695C423.748,70.103,431.229,83.863,431.229,98.379z"/>
	<ellipse fill="#EAAA1B" cx="411.191" cy="98.379" rx="19.564" ry="26.283"/>
	<path fill="#FFE000" d="M430.755,98.379c-3.153,23.171-40.019,19.083-39.128,0c0-14.516,8.76-26.283,19.564-26.283
		C421.998,72.096,430.755,83.863,430.755,98.379z"/>
	<path fill="#171900" d="M411.191,125.135c-11.049,0-20.038-12.002-20.038-26.756c0-14.753,8.989-26.755,20.038-26.755
		c11.048,0,20.037,12.002,20.037,26.755C431.229,113.132,422.239,125.135,411.191,125.135z M411.191,72.567
		c-10.529,0-19.096,11.579-19.096,25.812c0,14.233,8.566,25.812,19.096,25.812c10.528,0,19.095-11.579,19.095-25.812
		C430.286,84.146,421.72,72.567,411.191,72.567z"/>
	<path fill="#FF6700" d="M421.483,97.383c0.708,10.284-4.643,19.244-11.952,20.026c-7.311,0.776-13.812-6.922-14.521-17.193
		c-0.716-10.29,4.638-19.25,11.951-20.026C414.276,79.402,420.774,87.1,421.483,97.383z"/>
	<path fill="#FFA669" d="M420.423,98.123c-0.642-9.348-6.559-16.356-13.204-15.642c-6.649,0.715-11.517,8.861-10.869,18.215
		c0.35,5.038,3.447,11.713,6.771,13.794c-4.72-7.328-5.252-13.387-3.238-19.41c2.577-7.026,9.041-9.963,14.608-3.657
		c4.402,5.375,4.468,14.298,0.288,22.008C417.752,110.057,420.83,103.96,420.423,98.123z"/>
	<path fill="#9B2C00" d="M402.771,87.961c-0.569-1.33-1.076-2.365-1.155-2.328c-0.074,0.049,0.314,1.159,0.88,2.5
		c0.553,1.33,1.065,2.365,1.145,2.322C403.714,90.406,403.322,89.292,402.771,87.961z"/>
	<path fill="#9B2C00" d="M407.322,85.504c-0.194-1.497-0.432-2.678-0.518-2.667c-0.084,0.025,0.019,1.233,0.224,2.71
		c0.207,1.478,0.438,2.685,0.531,2.654C407.639,88.195,407.535,86.982,407.322,85.504z"/>
	<path fill="#9B2C00" d="M399.62,92.187c-0.877-0.69-1.625-1.177-1.664-1.084c-0.038,0.081,0.65,0.696,1.533,1.367
		c0.884,0.69,1.63,1.177,1.671,1.084C401.188,93.478,400.503,92.857,399.62,92.187z"/>
	<path fill="#9B2C00" d="M397.874,97.962c-0.88-0.179-1.604-0.259-1.609-0.16c-0.011,0.08,0.697,0.295,1.578,0.474
		c0.877,0.179,1.603,0.251,1.61,0.166C399.462,98.356,398.755,98.135,397.874,97.962z"/>
	<path fill="#9B2C00" d="M398.159,103.307c-0.753,0.061-1.355,0.161-1.352,0.234c-0.004,0.062,0.611,0.062,1.359,0.02
		c0.748-0.057,1.357-0.167,1.356-0.229C399.524,103.257,398.902,103.251,398.159,103.307z"/>
	<path fill="#9B2C00" d="M399.07,108.178c-0.499,0.204-0.89,0.414-0.865,0.487c0.013,0.062,0.433-0.05,0.924-0.259
		c0.499-0.197,0.88-0.406,0.874-0.481C399.98,107.877,399.575,107.976,399.07,108.178z"/>
	<path fill="#9B2C00" d="M411.996,86.803c0.341-1.54,0.683-2.765,0.771-2.732c0.083,0.024-0.131,1.292-0.475,2.832
		c-0.346,1.54-0.687,2.752-0.766,2.729C411.44,89.6,411.65,88.332,411.996,86.803z"/>
	<path fill="#9B2C00" d="M416.02,90.942c0.787-0.998,1.482-1.743,1.532-1.669c0.062,0.055-0.539,0.93-1.33,1.916
		c-0.789,0.998-1.478,1.749-1.542,1.688C414.626,92.795,415.226,91.939,416.02,90.942z"/>
	<path fill="#9B2C00" d="M418.418,96.903c0.891-0.259,1.623-0.388,1.639-0.296c0.021,0.086-0.691,0.382-1.576,0.629
		c-0.883,0.257-1.623,0.393-1.64,0.3C416.819,97.433,417.531,97.156,418.418,96.903z"/>
	<path fill="#9B2C00" d="M418.893,102.753c0.627,0.049,1.135,0.135,1.135,0.209c0,0.061-0.52,0.073-1.148,0.031
		c-0.628-0.031-1.145-0.123-1.135-0.197C417.752,102.741,418.255,102.717,418.893,102.753z"/>
	<path fill="#9B2C00" d="M418.347,107.118c0.403,0.082,0.736,0.223,0.713,0.29c-0.001,0.062-0.339,0.049-0.746-0.042
		c-0.406-0.105-0.739-0.229-0.72-0.284C417.605,107.008,417.942,107.02,418.347,107.118z"/>
	<path fill="#9B2C00" d="M407.876,117.834c-6.855-0.437-12.525-8.006-13.183-17.594c-0.353-5.068,0.725-9.982,3.026-13.843
		c2.312-3.879,5.586-6.22,9.214-6.601c0.56-0.062,1.121-0.074,1.684-0.043c6.858,0.449,12.528,8.011,13.184,17.594
		c0.345,5.068-0.729,9.988-3.038,13.843c-2.306,3.878-5.572,6.231-9.207,6.613C408.998,117.865,408.424,117.871,407.876,117.834z
		 M408.584,80.548c-0.529-0.037-1.067-0.019-1.603,0.024c-3.438,0.382-6.55,2.611-8.751,6.287
		c-2.211,3.721-3.241,8.443-2.904,13.308c0.632,9.2,6.044,16.454,12.582,16.885c0.53,0.025,1.064,0.014,1.592-0.036
		c3.45-0.37,6.551-2.612,8.755-6.294c2.21-3.701,3.251-8.423,2.912-13.3C420.523,88.233,415.122,80.979,408.584,80.548z"/>
	<path d="M417.188,101.576c0.485,7.113-3.097,13.308-8.02,13.825c-4.916,0.53-9.299-4.815-9.785-11.934
		c-0.495-7.113,3.091-13.307,8.011-13.831C412.309,89.106,416.694,94.452,417.188,101.576z"/>
	<path fill="#F2FAFC" d="M406.58,96.422c-2.153,3.412-5.216,4.889-6.83,3.325c-1.618-1.576-1.191-5.627,0.965-9.039
		c2.151-3.412,5.21-4.901,6.829-3.312C409.158,88.972,408.733,93.017,406.58,96.422z"/>
	<path fill="#F2FAFC" d="M414.988,95.9c-0.062,1.594-1.107,2.826-2.327,2.733c-1.212-0.067-2.15-1.434-2.084-3.022
		c0.06-1.583,1.109-2.821,2.332-2.734C414.126,92.956,415.056,94.304,414.988,95.9z"/>
	<path fill="#F2FAFC" d="M416.536,98.861c-0.016,0.616-0.466,1.096-0.985,1.06c-0.518-0.039-0.907-0.568-0.886-1.182
		c0.026-0.629,0.463-1.097,0.985-1.066C416.168,97.703,416.562,98.232,416.536,98.861z"/>
</g>
</svg>
