<?xml version="1.0" encoding="utf-8"?>
<!-- Generator: Adobe Illustrator 16.0.0, SVG Export Plug-In . SVG Version: 6.00 Build 0)  -->
<!DOCTYPE svg PUBLIC "-//W3C//DTD SVG 1.1//EN" "http://www.w3.org/Graphics/SVG/1.1/DTD/svg11.dtd">
<svg version="1.1" id="Layer_1" xmlns="http://www.w3.org/2000/svg" xmlns:xlink="http://www.w3.org/1999/xlink" x="0px" y="0px"
	 width="768px" height="430px" viewBox="0 0 768 430" enable-background="new 0 0 768 430" xml:space="preserve">
<g>
	<path fill="#B30202" d="M441.387,96.408c0,0,12.319-10.554,10.922-23.472c-1.369-12.932-15.7-17.789-21.461-10.861
		c-5.778,6.919-10.864,10.16-14.789,4.387c-3.932-5.77-12.464-5.77-14.78-1.37c-2.315,4.374-0.229,10.147-8.319,8.293
		c-8.073-1.828-10.847-1.85-10.847,4.268c0,6.139-0.458,6.588-6.232,7.531c-5.766,0.907-9.002,4.62-6.927,6.914
		c2.074,2.312,0.933,5.541-2.777,8.545c-3.696,3.007,8.092,9.948,12.712,9.948C383.502,110.59,441.387,96.408,441.387,96.408z"/>
	<path fill="#C10202" d="M441.387,96.408c0,0,12.319-10.554,10.922-23.472c-1.369-12.932-12.54-12.859-18.312-5.922
		c-5.771,6.918-13.161,9.15-17.081,3.376c-3.937-5.757-10.325-6.694-12.641-2.308c-2.305,4.391,1.161,9.393-6.924,7.539
		c-8.068-1.837-12.778-2.368-12.778,3.75c0,6.126,1.77,5.646-4,6.575c-5.774,0.925-9.778,4.154-7.7,6.465
		c2.079,2.312,1.543,4.077-2.151,7.093c-3.691,2.987,3.546,11.085,8.166,11.085C383.502,110.59,441.387,96.408,441.387,96.408z"/>
	<path fill="#D10202" d="M441.387,96.408c0,0,12.319-10.554,10.922-23.472c-1.369-12.932-13.383-9.24-19.162-2.321
		c-5.778,6.928-13.328,8.544-17.257,2.77c-3.921-5.769-7.798-5.769-10.098-1.387c-2.316,4.39-0.356,8.293-8.441,6.457
		c-8.068-1.867-11.302-3.331-11.302,2.792c0,6.125,0.687,6.936-5.079,7.848c-5.781,0.929-8.097,3.317-6.019,5.63
		c2.087,2.312,2.316,3.619-1.375,6.61c-3.691,3.008,0.691,9.256,5.312,9.256C383.502,110.59,441.387,96.408,441.387,96.408z"/>
	<path fill="#950202" d="M364.75,103.064c-0.448-1.209-0.131-2.346,0.846-3.131c2.099-1.718,3.323-3.491,3.45-5.014
		c0.059-0.828-0.191-1.536-0.781-2.185c-0.849-0.954-1.087-2.168-0.656-3.398c0.84-2.388,4.109-4.438,8.115-5.082
		c5.251-0.832,5.472-0.87,5.472-6.602c0-3.093,0.602-6.257,5.062-6.257c1.734,0,4.019,0.449,6.919,1.09
		c0.95,0.229,1.798,0.335,2.49,0.335c2.465,0,2.848-1.247,3.474-4.081c0.298-1.29,0.607-2.745,1.328-4.094
		c1.192-2.265,3.807-3.623,7.005-3.623c3.767,0,7.254,1.846,9.342,4.934c1.191,1.731,2.46,2.571,3.89,2.571
		c2.397,0,5.485-2.303,9.431-7.03c1.876-2.257,4.676-3.491,7.874-3.491c6.698,0,14.228,5.549,15.221,14.822
		c1.427,13.262-10.725,23.851-11.241,24.275l-0.161,0.162l-0.226,0.038c-2.371,0.581-58.039,14.198-62.714,14.198
		C375.104,111.502,366.119,106.95,364.75,103.064z M451.389,73.029c-0.881-8.247-7.492-13.189-13.38-13.189
		c-2.651,0-4.938,1.001-6.461,2.834c-4.374,5.248-7.831,7.704-10.844,7.704c-2.058,0-3.89-1.141-5.409-3.394
		c-2.057-3.041-5.404-4.115-7.822-4.115c-2.461,0-4.521,1.01-5.37,2.643c-0.604,1.137-0.883,2.41-1.154,3.627
		c-0.585,2.605-1.23,5.532-5.282,5.532c-0.852,0-1.804-0.119-2.897-0.373c-2.774-0.624-4.947-1.061-6.512-1.061
		c-2.185,0-3.221,0.662-3.221,4.416c0,6.555-0.721,7.419-7.012,8.43c-3.87,0.615-6.168,2.443-6.669,3.877
		c-0.212,0.586-0.115,1.086,0.284,1.519c0.924,1.019,1.358,2.262,1.248,3.585c-0.162,2.049-1.586,4.242-4.124,6.291
		c-0.303,0.268-0.474,0.552-0.286,1.107c1.034,2.88,9.018,7.204,12.411,7.204c3.546,0,42.008-9.193,62.057-14.097
		C442.362,94.3,452.636,84.542,451.389,73.029z"/>
	<path fill="#F3AB13" d="M387.271,304.868l-3.155,33.106c0,0,29.063-5.587,33.127-1.951c4.061,3.639-2.388,7.267-6.093,8.785
		c9.407,1.978,14.629,5.558,12.774,8.777c-1.858,3.247-21.882-4.08-29.174-3.699c10.066,2.975,12.935,6.958,11.348,9.121
		c-1.612,2.182-25.047-6.693-32.534-9.272c-7.481-2.559-20.771-9.245-16.074-9.877c4.708-0.64,17.852-0.628,17.852-0.628
		c0.865-7.496,1.98-19.133,1.254-24.626C375.88,309.119,387.271,304.868,387.271,304.868z"/>
	<path fill="#F3BA13" d="M387.271,304.868l-3.155,33.106c0,0,29.063-5.587,33.127-1.951c4.061,3.639-2.388,7.267-6.093,8.785
		c9.407,1.978,14.629,5.558,12.774,8.777c-1.858,3.247-21.882-4.08-29.174-3.699c10.066,2.975,12.935,6.958,11.348,9.121
		c-1.612,2.182-21.038-8.314-28.533-10.873c-7.476-2.574-16.621-5.917-11.927-6.554c4.706-0.64,12.704-0.535,12.704-0.535
		c0.869-7.496,2.336-21.016,1.615-26.501C379.249,309.072,387.271,304.868,387.271,304.868z"/>
	<path fill="#F3C913" d="M387.271,304.868l-3.155,33.106c0,0,29.063-5.587,33.127-1.951c4.061,3.639-2.388,7.267-6.093,8.785
		c9.407,1.978,14.629,5.558,12.774,8.777c-1.858,3.247-21.882-4.08-29.174-3.699c10.066,2.975,12.935,6.958,11.348,9.121
		c-1.612,2.182-21.038-8.314-28.533-10.873c-7.476-2.574-16.621-5.917-11.927-6.554c4.706-0.64,14.472,0.034,14.472,0.034
		c0.865-7.497,0.568-21.585-0.153-27.07C379.249,309.072,387.271,304.868,387.271,304.868z"/>
	<path fill="#F39513" d="M377.955,352.251c-1.88-0.663-3.488-1.235-4.684-1.646c-2.364-0.814-18.01-6.948-17.671-10.25
		c0.04-0.449,0.327-1.23,1.766-1.416c4.035-0.53,14.013-0.616,17.16-0.637c0.764-6.869,1.841-18.28,1.155-23.588
		c-0.781-6.02,10.024-10.241,11.267-10.703l1.375-0.526l-3.173,33.358c4.021-0.727,16.969-2.962,25.377-2.962
		c3.886,0,6.216,0.441,7.335,1.455c1.566,1.405,1.702,2.795,1.549,3.712c-0.402,2.33-3.126,4.242-5.456,5.485
		c5.888,1.535,9.818,3.775,10.93,6.25c0.499,1.103,0.429,2.223-0.158,3.254c-0.666,1.175-2.278,1.306-3.423,1.306
		c-3.009,0-7.763-1.089-12.796-2.24c-2.278-0.533-4.603-1.052-6.728-1.479c2.952,1.543,4.871,3.266,5.451,5.019
		c0.353,1.048,0.213,2.073-0.395,2.927c-0.483,0.628-1.349,0.713-1.969,0.713C400.438,360.281,386.893,355.453,377.955,352.251z
		 M405.377,358.414c0.229-0.33,0.264-0.725,0.11-1.188c-0.585-1.728-3.784-4.315-11.006-6.443l-5.17-1.531l5.379-0.281
		c3.228-0.165,8.84,1.095,14.232,2.321c4.704,1.077,9.579,2.206,12.38,2.206c1.332,0,1.756-0.255,1.807-0.364
		c0.313-0.541,0.34-1.024,0.085-1.589c-0.779-1.734-4.399-4.198-12.234-5.833l-2.961-0.628l2.8-1.141
		c2.927-1.175,6.456-3.257,6.788-5.21c0.05-0.244,0.177-1-0.964-2.03c-0.411-0.358-1.748-0.998-6.097-0.998
		c-9.663,0-26.064,3.152-26.237,3.19l-1.21,0.217l3.127-32.806c-3.462,1.531-9.142,4.793-8.693,8.17
		c0.709,5.422-0.292,16.503-1.256,24.876l-0.16,0.795h-0.827c-0.535,0-13.024,0.016-17.577,0.614
		c1.628,1.668,9.567,5.833,16.164,8.094c1.217,0.417,2.834,1.002,4.709,1.664c8.305,2.944,22.186,7.912,26.301,7.912
		c0.246,0,0.399-0.026,0.472-0.026L405.377,358.414z"/>
	<path fill="#F39513" d="M384.946,342.536c0-0.022-0.157-1.939,0.093-4.464l-1.846-0.182
		C382.943,340.597,384.946,342.536,384.946,342.536z"/>
	<path fill="#F39513" d="M412.394,346.03l0.573-1.76c-6.562-2.181-22.727-0.148-22.727-0.148
		C390.409,344.122,406.115,343.943,412.394,346.03z"/>
	<path fill="#F3AB13" d="M366.076,319.622c0,0-0.456,25.844-0.957,35.976c6.786-1.379,30.39-2.163,31.672,2.031
		c1.297,4.175-15.032,5.101-15.032,5.101c15.77,1.803,27.775,8.823,24.458,12.845c-3.335,4.014-23.817-4.882-33.938-5.851
		c12.184,5.325,17.678,10.483,14.668,12.982c-2.991,2.498-24.715-6.521-34.524-7.463c-9.803-0.933-28.49-2.862-19.273-7.08
		c9.223-4.238,22.621-6.974,22.621-6.974c0.575-10.93,1.258-37.622-0.432-42.581C353.648,313.649,364.6,312.386,366.076,319.622z"/>
	<path fill="#F3BA13" d="M366.076,319.622c0,0-0.456,25.844-0.957,35.976c6.786-1.379,30.39-2.163,31.672,2.031
		c1.297,4.175-15.032,5.101-15.032,5.101c15.77,1.803,27.775,8.823,24.458,12.845c-3.335,4.014-23.817-4.882-33.938-5.851
		c12.184,5.325,17.678,10.483,14.668,12.982c-2.991,2.498-21.551-9.474-31.36-10.406c-9.81-0.938-22.482-1.17-13.266-5.405
		c9.219-4.212,17.516-6.308,17.516-6.308c0.58-10.924-0.729-36.276-2.435-41.244C355.714,314.388,364.6,312.386,366.076,319.622z"/>
	<path fill="#F3C913" d="M366.076,319.622c0,0-0.456,25.844-0.957,35.976c6.786-1.379,30.39-2.163,31.672,2.031
		c1.297,4.175-15.032,5.101-15.032,5.101c15.77,1.803,27.775,8.823,24.458,12.845c-3.335,4.014-23.817-4.882-33.938-5.851
		c12.184,5.325,17.678,10.483,14.668,12.982c-2.991,2.498-17.647-10.487-27.453-11.425c-9.799-0.93-22.967-0.151-13.755-4.387
		c9.221-4.212,15.477-4.619,15.477-4.619c0.569-10.92-0.723-37.011-2.416-41.966C357.11,315.355,364.6,312.386,366.076,319.622z"/>
	<path fill="#F39513" d="M369.122,380.309c-6.2-1.841-12.619-3.745-16.785-4.131c-16.228-1.549-22.129-3.004-22.57-5.562
		c-0.269-1.607,1.592-2.644,3.006-3.292c7.989-3.682,19.221-6.267,22.112-6.89c0.621-12.299,1.138-36.984-0.418-41.52
		c-0.404-1.205-0.262-2.342,0.413-3.275c0.891-1.26,2.66-2.006,4.725-2.006c3.064,0,6.552,1.789,7.366,5.815l0.019,0.099v0.097
		c0,0.255-0.413,24.126-0.895,34.848c3.469-0.556,9.152-0.921,14.464-0.921c10.58,0,16.334,1.276,17.113,3.796
		c0.222,0.726,0.112,1.468-0.348,2.142c-1.238,1.766-5.146,2.817-8.773,3.416c9.559,2.07,17.318,5.974,18.861,9.825
		c0.501,1.227,0.332,2.422-0.492,3.403c-0.746,0.924-2.096,1.366-4.059,1.366c-3.898,0-9.873-1.682-16.176-3.484
		c-2.596-0.729-5.253-1.488-7.705-2.091c4.672,2.511,9.236,5.714,9.66,8.727c0.158,1.063-0.232,2.016-1.104,2.745
		c-0.518,0.445-1.314,0.648-2.438,0.648C381.814,384.063,375.651,382.234,369.122,380.309z M372.367,368.788
		c3.959,0.385,9.482,1.959,14.82,3.469c5.914,1.681,12.03,3.433,15.675,3.433c1.344,0,2.265-0.259,2.635-0.713
		c0.391-0.463,0.44-0.934,0.194-1.545c-1.425-3.563-11.429-8.337-24.036-9.79l0.05-1.366c4.735-0.264,12.753-1.888,14.111-3.827
		c0.151-0.229,0.151-0.378,0.093-0.552c-0.264-0.849-3.801-2.481-15.35-2.481c-5.761,0-12.179,0.463-15.259,1.077l-1.167,0.242
		l0.069-1.175c0.472-9.689,0.901-34.028,0.941-35.823c-0.688-3.155-3.407-4.267-5.539-4.267c-1.426,0-2.689,0.487-3.226,1.238
		c-0.32,0.458-0.382,0.976-0.164,1.611c1.822,5.32,0.995,33.304,0.487,42.911l-0.048,0.721l-0.695,0.137
		c-0.125,0.025-13.407,2.783-22.423,6.897c-1.765,0.824-1.929,1.312-1.955,1.312c0.275,0.781,3.333,2.355,20.938,4.031
		c4.343,0.406,10.84,2.337,17.12,4.195c6.397,1.908,12.438,3.69,15.46,3.69c0.949,0,1.213-0.165,1.271-0.221
		c0.364-0.314,0.506-0.637,0.449-1.073c-0.275-1.87-4.349-5.735-14.906-10.368l-5.288-2.305L372.367,368.788z"/>
	<path fill="#F39513" d="M388.047,364.71l0.454-1.798c-4.476-1.146-16.766-0.365-16.766-0.365
		C371.862,362.567,383.716,363.581,388.047,364.71z"/>
	<path fill="#DDDDDB" d="M448.614,142.908c0,0-3.228,26.782,7.399,46.19c10.614,19.388,17.681,78.509-18.014,110.369
		c-36.552,32.636-80.252,32.81-111.636,23.553c-31.421-9.218-49.394-37.243-53.398-62.803c-16.63-10.466-23.091-19.4-2.774-16.932
		c-19.39-8.323-24.016-22.175-2.153-15.09c-18.789-13.851-23.091-33.255,0.917-23.409c-19.706-13.24-40.951-52.337,5.553-24.936
		c-25.259-24.933-29.868-52.029-16.933-49.877c12.933,2.159,40.015,49.563,60.96,58.807c20.94,9.231,39.102-4.926,57.875-5.227
		c5.862-16.015,3.088-33.799-1.535-53.708c-4.607-19.872,4.013-41.13,29.87-48.821c25.856-7.717,52.965,12.926,50.496,34.168
		C452.771,136.435,448.614,142.908,448.614,142.908z"/>
	<path fill="#EBECE6" d="M448.614,142.908c0,0-3.228,26.782,7.399,46.19c10.614,19.388,16.057,74.401-19.629,106.262
		c-36.54,32.641-72.687,32.289-104.088,23.049c-31.412-9.239-48.938-34.944-52.951-60.509
		c-16.617-10.466-18.002-13.999,2.316-11.543c-19.404-8.298-23.706-20.698-1.847-13.609c-18.783-13.868-13.936-27.499,10.069-17.661
		c-19.7-13.235-45.707-52.019,0.776-24.609c-25.23-24.945-46.02-62.655-33.085-60.503c12.933,2.159,40.015,49.563,60.96,58.807
		c20.94,9.231,46.4-3.695,65.181-4.009c5.845-16.011,2.333-34.524-2.283-54.413c-4.641-19.896-2.545-41.643,23.312-49.334
		c25.856-7.717,52.965,12.926,50.496,34.168C452.771,136.435,448.614,142.908,448.614,142.908z"/>
	<path fill="#FFFFFF" d="M448.614,142.908c0,0-3.228,26.782,7.399,46.19c10.614,19.388,16.393,70.961-19.295,102.826
		c-36.552,32.632-72.076,32.198-103.491,22.959c-31.396-9.231-43.339-30.35-47.338-55.905c-16.619-10.47-15.158-12.001,5.169-9.541
		c-19.4-8.319-20.562-18.17,1.305-11.085c-18.785-13.847-8.003-26.175,16.002-16.316c-19.704-13.249-48.335-47.844-1.839-20.448
		c-25.254-24.94-61.887-73.766-48.952-71.614c12.933,2.159,40.015,49.563,60.96,58.807c20.94,9.231,50.49-1.858,69.275-2.16
		c5.85-15.998,2.767-33.672-1.85-53.576c-4.612-19.884-7.072-44.329,18.785-52.02c25.856-7.717,52.965,12.926,50.496,34.168
		C452.771,136.435,448.614,142.908,448.614,142.908z"/>
	<path fill="#B7B7B6" d="M326.092,323.921c-33.911-9.979-50.246-40.155-53.977-63.144c-7.785-4.942-16.624-11.62-15.408-15.841
		c0.622-2.159,3.388-3.135,8.601-2.987c-8.164-4.36-13.386-9.812-12.623-13.553c0.246-1.164,1.279-3.077,5.585-3.077
		c1.579,0,3.456,0.259,5.617,0.76c-8.663-7.458-13.737-16.107-12.078-21.16c0.556-1.693,2.127-3.738,6.442-3.738
		c1.617,0,3.488,0.293,5.611,0.883c-10.161-8.713-19.917-22.896-17.95-29.332c0.452-1.527,1.771-3.326,5.381-3.326
		c3.99,0,10.101,2.214,18.202,6.563c-15.751-17.368-22.232-35.437-19.057-43.161c1.21-2.961,3.823-4.323,7.287-3.751
		c6.518,1.099,15.824,12.324,26.592,25.335c11.19,13.499,23.861,28.809,34.594,33.543c4.639,2.062,9.403,3.042,14.576,3.042
		c7.54,0,14.932-2.143,22.076-4.217c6.586-1.917,13.405-3.903,20.198-4.116c5.213-14.853,3.185-31.181-1.791-52.575
		c-4.085-17.631,1.456-41.287,30.515-49.937c3.751-1.128,7.653-1.68,11.599-1.68c12.117,0,24.096,5.323,32.056,14.253
		c6.067,6.814,8.925,14.853,8.027,22.595c-2.267,19.485-5.932,26.65-6.644,27.897c-0.264,2.439-2.597,27.389,7.287,45.444
		c11.904,21.703,16.247,80.752-18.199,111.518c-21.276,18.997-47.6,29.048-76.135,29.048h-0.016
		C350.279,329.211,338.045,327.445,326.092,323.921z M405.007,81.904c-27.833,8.286-33.136,30.88-29.22,47.743
		c5.112,22.021,7.147,38.775,1.5,54.225l-0.224,0.599h-0.625c-6.766,0.11-13.37,2.045-20.362,4.056
		c-7.271,2.117-14.784,4.306-22.59,4.306c-5.438,0-10.446-1.048-15.322-3.211c-11.134-4.899-23.95-20.397-35.276-34.049
		c-10.081-12.201-19.63-23.706-25.476-24.686c-2.605-0.454-4.382,0.449-5.264,2.617c-2.817,6.843,3.612,26.553,23.001,45.703
		l5.303,5.227l-6.423-3.788c-13.172-7.763-19.635-9.397-22.736-9.397c-3.003,0-3.459,1.519-3.614,2.007
		c-1.845,6.011,10.177,22.972,21.792,30.77l7.549,5.078l-8.413-3.458c-8.354-3.427-13.951-3.462-15.045-0.136
		c-1.391,4.196,3.958,13.775,15.026,21.937l4.571,3.368l-5.411-1.73c-3.905-1.272-7.1-1.923-9.48-1.923
		c-1.29,0-3.493,0.217-3.769,1.601c-0.537,2.617,4.743,8.819,16.062,13.678l5.926,2.531l-6.41-0.78
		c-6.843-0.814-11.145-0.301-11.601,1.248c-0.506,1.794,3.109,6.516,14.982,14.003l0.35,0.226l0.058,0.402
		c3.532,22.515,19.459,52.278,52.744,62.069c11.776,3.475,23.848,5.23,35.85,5.23h0.016c28.068,0,53.973-9.893,74.909-28.567
		c36.118-32.271,27.266-92.007,17.817-109.273c-10.644-19.426-7.538-46.462-7.497-46.739l0.136-0.381
		c0.035-0.063,4.082-6.661,6.479-27.325c0.84-7.212-1.845-14.738-7.563-21.152c-7.607-8.532-19.079-13.64-30.673-13.64
		C412.326,80.292,408.588,80.834,405.007,81.904z"/>
	<path fill="#AE0202" d="M462.469,123.746c0,0-2.536,7.152,1.164,19.845c3.693,12.706,5.488,30.044-13.194,30.384
		c-18.679,0.34-24.214-14.203-19.837-27.609c4.395-13.388,11.327-20.087,11.104-24.245
		C441.462,117.98,462.469,123.746,462.469,123.746z"/>
	<path fill="#C10202" d="M462.469,123.746c0,0-2.536,7.152,1.164,19.845c3.693,12.706,5.488,30.044-13.194,30.384
		c-18.679,0.34-14.279-18.59-9.897-31.991c4.383-13.389,8.073-19.261,7.854-23.417C448.164,114.408,462.469,123.746,462.469,123.746
		z"/>
	<path fill="#D10202" d="M462.469,123.746c0,0-2.536,7.152,1.164,19.845c3.693,12.706,5.488,30.044-13.194,30.384
		c-18.679,0.34-7.229-23.227-2.843-36.611c4.403-13.402,1.019-14.641,0.799-18.798C448.164,114.408,462.469,123.746,462.469,123.746
		z"/>
	<path fill="#950202" d="M431.916,167.052c-3.911-5.384-4.717-13.237-2.188-20.961c2.367-7.229,5.49-12.587,7.777-16.507
		c1.954-3.326,3.363-5.731,3.271-7.416c-0.034-0.547,0.148-1.043,0.517-1.438c0.68-0.713,1.909-1.036,3.896-1.036
		c5.98,0,17.062,3.029,17.545,3.144l0.951,0.271l-0.34,0.929c-0.018,0.072-2.38,7.089,1.18,19.298
		c3.439,11.862,3.216,20.533-0.671,25.811c-2.724,3.716-7.237,5.634-13.388,5.744l-0.637,0.017h-0.009
		C439.726,174.908,434.513,170.632,431.916,167.052z M445.188,121.54c-2.012,0-2.475,0.386-2.571,0.535
		c0.128,2.21-1.403,4.832-3.505,8.438c-2.24,3.856-5.32,9.112-7.627,16.142c-2.359,7.19-1.625,14.402,1.925,19.319
		c3.36,4.637,9.037,7.089,16.41,7.089h0.009h0.599c5.561-0.114,9.573-1.808,11.946-5.006c3.474-4.726,3.602-13.1,0.368-24.207
		c-3.003-10.33-1.978-17.071-1.407-19.455C458.559,123.678,449.973,121.54,445.188,121.54z"/>
	<path fill="#FF9001" d="M431.76,118.439c0,0,6.707,15.692,26.553,11.072c19.862-4.611,32.344-8.09,37.647-6.474
		C483.953,114.735,454.63,112.431,431.76,118.439z"/>
	<path fill="#FFA101" d="M431.76,118.439c0,0,6.584,10.606,26.442,5.99c19.863-4.62,23.841-7.088,29.152-5.468
		C475.342,110.641,454.63,112.431,431.76,118.439z"/>
	<path fill="#FFB001" d="M431.76,118.439c0,0,6.852,8.285,26.723,3.682c19.846-4.616,23.561-4.781,28.872-3.161
		C475.342,110.641,454.63,112.431,431.76,118.439z"/>
	<path fill="#FF7503" d="M430.911,118.778l-0.42-0.967l1.045-0.272c8.467-2.214,18.105-3.406,27.879-3.406
		c15.849,0,29.705,3.042,37.069,8.149l4.857,3.365l-5.654-1.722c-0.781-0.242-1.823-0.36-3.062-0.36
		c-5.167,0-13.755,2.036-25.658,4.857c-2.634,0.624-5.456,1.307-8.443,1.994c-2.484,0.577-4.921,0.861-7.211,0.861
		C436.417,131.276,430.975,118.914,430.911,118.778z M459.415,115.983c-9.202,0-18.268,1.064-26.315,3.054
		c1.537,2.762,6.793,10.389,18.213,10.389c2.151,0,4.446-0.258,6.809-0.818c2.967-0.688,5.783-1.357,8.43-1.977
		c11.429-2.72,19.859-4.714,25.276-4.9C484.263,118.09,472.559,115.983,459.415,115.983z"/>
	<path fill="#FF9001" d="M429.186,117.726c0,0,9.781,6.703,25.355,2.897c15.549-3.805,33.565,0.34,45.579,6.101
		c1.617-12.68-24.457-24.787-45.829-21.508C444.924,111.74,434.687,118.439,429.186,117.726z"/>
	<path fill="#FFA101" d="M429.186,117.726c0,0,10.481,1.278,26.056-2.532c15.564-3.802,36.679,3.373,44.879,11.53
		c1.617-12.68-24.457-24.787-45.829-21.508C444.924,111.74,434.687,118.439,429.186,117.726z"/>
	<path fill="#FFB001" d="M429.186,117.726c0,0,12.803-3.228,28.362-7.029c15.562-3.818,34.372,7.87,42.572,16.027
		c1.617-12.68-24.457-24.787-45.829-21.508C444.924,111.74,434.687,118.439,429.186,117.726z"/>
	<path fill="#FF7503" d="M499.718,127.585c-9.911-4.772-21.699-7.504-32.327-7.504c-4.488,0-8.723,0.471-12.642,1.43
		c-3.245,0.797-6.49,1.205-9.669,1.205c-10.131,0-16.158-4.039-16.421-4.212l-3.156-2.168l3.801,0.483
		c0.224,0.022,0.462,0.035,0.716,0.035c5.198,0,14.484-5.948,23.745-12.4l0.174-0.115l0.208-0.034
		c2.409-0.374,4.93-0.547,7.513-0.547c13.945,0,28.972,5.566,35.742,13.257c2.796,3.182,4.038,6.58,3.631,9.847l-0.169,1.272
		L499.718,127.585z M454.656,106.089c-7.688,5.342-16.164,10.962-22.162,12.315c2.605,1.112,6.939,2.457,12.586,2.457
		c3.025,0,6.122-0.382,9.236-1.15c4.048-0.967,8.45-1.481,13.074-1.481c10.454,0,21.984,2.567,31.878,7.094
		c-0.086-2.355-1.181-4.734-3.268-7.085c-6.44-7.335-20.889-12.646-34.342-12.646C459.246,105.593,456.879,105.759,454.656,106.089z
		"/>
	<path fill="#FFFFFF" d="M398.291,110.696c0,7.594,6.145,13.732,13.738,13.732c7.572,0,13.727-6.139,13.727-13.732
		c0-7.61-6.154-13.745-13.727-13.745C404.436,96.952,398.291,103.086,398.291,110.696z"/>
	<path fill="#B7B7B6" d="M397.351,110.696c0-8.099,6.584-14.669,14.679-14.669c8.073,0,14.647,6.571,14.647,14.669
		c0,8.069-6.574,14.666-14.647,14.666C403.935,125.362,397.351,118.766,397.351,110.696z M399.205,110.696
		c0,7.064,5.738,12.8,12.824,12.8c7.06,0,12.803-5.736,12.803-12.8c0-7.081-5.743-12.815-12.803-12.815
		C404.943,97.881,399.205,103.616,399.205,110.696z"/>
	<path fill="#069AFC" d="M402.195,114.285c0,4.319,3.525,7.836,7.865,7.836c4.336,0,7.848-3.517,7.848-7.836
		c0-4.348-3.512-7.865-7.848-7.865C405.721,106.42,402.195,109.938,402.195,114.285z"/>
	<path fill="#067CFC" d="M405.792,107.697c1.231-0.815,2.682-1.277,4.269-1.277c4.336,0,7.848,3.517,7.848,7.865
		c0,1.426-0.416,2.766-1.098,3.945C411.494,116.912,406.59,113.615,405.792,107.697z"/>
	<path fill="#086AF9" d="M401.278,114.285c0-4.853,3.942-8.794,8.782-8.794c4.837,0,8.773,3.941,8.773,8.794
		c0,4.82-3.937,8.752-8.773,8.752C405.221,123.037,401.278,119.105,401.278,114.285z M403.128,114.285
		c0,3.801,3.114,6.911,6.933,6.911c3.812,0,6.915-3.11,6.915-6.911c0-3.831-3.103-6.94-6.915-6.94
		C406.242,107.345,403.128,110.454,403.128,114.285z"/>
	<path d="M405.768,114.285c0,2.355,1.917,4.281,4.293,4.281c2.359,0,4.275-1.926,4.275-4.281c0-2.371-1.916-4.301-4.275-4.301
		C407.685,109.984,405.768,111.914,405.768,114.285z"/>
	<path fill="#B7B7B6" d="M383.716,184.772c0,0-5.855-2.414-9.223-2.066l0.169,1.836
		C377.883,184.203,383.656,184.772,383.716,184.772z"/>
	<path fill="#DDDDDB" d="M294.824,202.331c14.475-6.147,53.576,14.784,53.576,14.784l52.039,0.615c0,0,28.327,6.466,12.617,44.022
		c-15.705,37.574-60.04,35.109-73.285,32.029c-13.24-3.079-18.774-10.779-2.16-16.616c-14.457,1.526-54.776-13.203-10.288-20.619
		c-23.879-4.641-45.125-25.895,0.453-18.487C293.282,226.355,280.353,208.486,294.824,202.331z"/>
	<path fill="#EBECE6" d="M294.824,202.331c14.475-6.147,53.576,14.784,53.576,14.784l52.039,0.615c0,0,28.327,6.466,12.617,44.022
		c-15.705,37.574-53.485,32.954-66.736,29.87c-13.238-3.084-12.244-11.242,4.391-17.088c-14.477,1.544-53.957-11.637-9.48-19.048
		c-23.856-4.646-42.441-20.716,3.128-13.33C309.88,230.462,280.353,208.486,294.824,202.331z"/>
	<path fill="#FFFFFF" d="M294.824,202.331c14.475-6.147,48.627,12.269,48.627,12.269l56.987,3.13c0,0,28.327,6.466,12.617,44.022
		c-15.705,37.574-53.485,32.954-66.736,29.87c-13.238-3.084-3.443-13.524,13.175-19.371c-14.462,1.532-52.779-8.752-8.295-16.167
		c-23.869-4.646-41.166-18.267,4.401-10.877C321.107,233.508,280.353,208.486,294.824,202.331z"/>
	<path fill="#B7B7B6" d="M355.845,296.336c19.41,0,46.452-6.435,58.068-34.227c5.668-13.55,6.337-24.682,2.01-33.082
		c-5.014-9.744-15.696-10.406-15.696-10.406c0.094,0.034,9.461,2.291,14.068,11.268c4.056,7.903,3.35,18.501-2.092,31.521
		c-15.082,36.072-57.243,34.952-72.212,31.469c-6.986-1.616-11.583-4.514-11.752-7.382c-0.131-2.566,3.298-5.223,9.692-7.471
		l7.466-2.622l-7.879,0.841c-9.567,1.001-28.847-5.006-29.572-10.352c-0.207-1.535,1.278-5.4,19.529-8.438l5.043-0.845l-5.024-0.963
		c-13.835-2.702-26.353-10.983-25.602-15.184c0.48-2.673,7.481-4.463,25.724-1.497l4.541,0.462l-4.087-2.257
		c-25.845-8.773-37.911-20.312-38.174-27.346c-0.095-2.872,1.673-5.108,5.284-6.639c13.925-5.914,52.395,14.53,52.78,14.742
		c0,0-38.774-22.713-53.5-16.439c-5.46,2.317-6.494,5.846-6.397,8.405c0.312,8.382,15.649,19.671,35.222,27.061
		c-12.158-1.238-22.508-0.784-23.21,3.178c-0.925,5.193,10.031,12.774,22.747,16.308c-11.802,2.384-17.273,5.583-16.711,9.689
		c0.86,6.262,16.611,11.222,26.868,11.96c-5.518,2.727-6.687,5.506-6.576,7.504c0.208,3.822,5.134,7.217,13.175,9.1
		C343.479,295.598,349.228,296.336,355.845,296.336z"/>
	<path fill="#DDDDDB" d="M356.038,253.765c-15.463-4.628-14.336-13.176-2.648-15.946c0,0-9.154-0.238-9.842-7.166
		c-0.695-6.924,15.315-6.146,15.315-6.146l32.025,56.023c-46.42,16.867-43.416-7.152-28.64-10.16
		C336.615,270.369,339.854,256.751,356.038,253.765z"/>
	<path fill="#EBECE6" d="M347.705,231.106c-0.697-6.91,11.159-6.601,11.159-6.601l32.025,56.023
		c-46.42,16.867-31.757-8.761-16.982-11.768c-25.611,0-26.217-11.896-10.035-14.903c-15.453-4.607-9.949-13.508,1.733-16.278
		C365.604,237.58,348.4,238.06,347.705,231.106z"/>
	<path fill="#FFFFFF" d="M358.863,224.506l42.754,53.104c-56.22,18.726-37.291-6.308-22.513-9.315
		c-25.63,0-26.004-10.852-9.821-13.852c-15.455-4.619-11.692-13.626,0-16.384c0,0-18.122-0.241-18.807-7.17
		C349.783,223.971,358.863,224.506,358.863,224.506z"/>
	<path fill="#B7B7B6" d="M364.388,287.423c5.804,0,26.188-7.746,26.188-7.746c-26.161,9.499-33.86,4.968-35.608,3.335
		c-1.691-1.57-1.633-3.445-1.263-4.731c0.919-3.262,4.501-6.146,8.734-6.995l8.999-1.832h-9.188
		c-12.758,0-17.599-3.432-17.869-6.377c-0.27-2.957,3.775-6.919,11.821-8.421l3.754-0.688l-3.66-1.103
		c-6.879-2.05-10.924-5.107-10.844-8.124c0.074-2.537,3.199-4.84,8.146-6.041l6.858-1.62l-7.047-0.183
		c-0.337-0.009-8.338-0.31-8.946-6.33c-0.083-0.903,0.174-1.637,0.787-2.295c2.613-2.736,10.683-2.978,13.57-2.847
		c0,0-11.177-2.337-14.902,1.587c-0.995,1.039-1.433,2.3-1.284,3.741c0.422,4.218,3.736,6.39,6.886,7.353
		c-3.686,1.549-5.833,3.906-5.909,6.566c-0.108,3.454,3.173,6.619,9.123,8.918c-6.401,1.947-10.558,5.739-10.188,9.651
		c0.396,4.335,5.916,7.187,15.045,7.887c-2.816,1.595-4.912,3.979-5.669,6.652c-0.706,2.523-0.07,4.878,1.793,6.596
		C355.281,285.828,358.379,287.423,364.388,287.423z"/>
	<path fill="#DDDDDB" d="M332.391,312.567h55.728c0,0-2.698,19.057-30.753,19.532C329.31,332.592,332.391,312.567,332.391,312.567z"
		/>
	<path fill="#EBECE6" d="M332.391,312.567h55.728c0,0-1.265,13.054-29.318,13.55C330.745,326.58,332.391,312.567,332.391,312.567z"
		/>
	<path fill="#FFFFFF" d="M332.296,308.881l55.823,3.687c0,0-0.568,9.689-28.625,10.178
		C331.443,323.22,332.296,308.881,332.296,308.881z"/>
	<path fill="#B7B7B6" d="M356.37,333.045c0.339,0,0.678,0,1.001-0.025c29.824-0.916,29.824-20.579,29.824-20.579
		c-0.099,0.747-2.979,18.28-29.852,18.738c-9.568,0.161-16.432-2.066-20.42-6.588c-4.563-5.227-3.631-11.815-3.625-11.879
		c0,0-2.906,7.187,2.223,13.059C339.729,330.593,346.734,333.045,356.37,333.045z"/>
	<path fill="#FFFFFF" d="M408.567,112.431c0,1.591,1.297,2.894,2.892,2.894c1.597,0,2.877-1.303,2.877-2.894
		c0-1.604-1.28-2.893-2.877-2.893C409.864,109.538,408.567,110.828,408.567,112.431z"/>
	<path fill="#FFFFFF" d="M413.412,115.957c0,0.683,0.542,1.247,1.239,1.247c0.678,0,1.238-0.564,1.238-1.247
		c0-0.67-0.561-1.222-1.238-1.222C413.954,114.735,413.412,115.287,413.412,115.957z"/>
</g>
</svg>
