<svg version="1.1" id="Layer_1" xmlns="http://www.w3.org/2000/svg" xmlns:xlink="http://www.w3.org/1999/xlink" viewBox="0 0 768 430" enable-background="new 0 0 768 430" xml:space="preserve">
<path fill="#E51095" d="M156.279,88.879h8.477v249.954h-8.477V88.879z"/>
<path fill="#0F4C12" d="M164.735,88.879h7.029v249.954h-7.029V88.879z"/>
<path fill="#B2CD76" d="M171.739,88.879h4.032v249.954h-4.032V88.879z"/>
<path fill="#FDC41D" d="M175.749,88.879h5.893v249.954h-5.893V88.879z"/>
<path fill="#386F1E" d="M181.617,88.879h7.753v249.954h-7.753V88.879z"/>
<path fill="#BAE3DC" d="M189.349,88.879h3.101v249.954h-3.101V88.879z"/>
<path fill="#188AC7" d="M192.427,88.879h6.823v249.954h-6.823V88.879z"/>
<path fill="#E60030" d="M199.227,88.879h9.304v249.954h-9.304V88.879z"/>
<path fill="#74B92B" d="M208.508,88.879h9.304v249.954h-9.304V88.879z"/>
<path fill="#5C576B" d="M217.789,88.879h3.516v249.954h-3.516V88.879z"/>
<path fill="#0E6F66" d="M221.281,88.879h3.411v249.954h-3.411V88.879z"/>
<path fill="#B2E9E4" d="M224.669,88.879h1.861v249.954h-1.861V88.879z"/>
<path fill="#D61897" d="M226.507,88.879h8.27v249.954h-8.27V88.879z"/>
<path fill="#135417" d="M234.754,88.879h7.753v249.954h-7.753V88.879z"/>
<path fill="#7DB5B9" d="M242.484,88.879h2.068v249.954h-2.068V88.879z"/>
<path fill="#1C71B9" d="M244.529,88.879h2.792v249.954h-2.792V88.879z"/>
<path fill="#0D25A2" d="M247.297,88.879h5.996v249.954h-5.996V88.879z"/>
<path fill="#36731C" d="M253.27,88.879h7.546v249.954h-7.546V88.879z"/>
<path fill="#649993" d="M260.793,88.879h2.068v249.954h-2.068V88.879z"/>
<path fill="#0B89BA" d="M262.837,88.879h7.03v249.954h-7.03V88.879z"/>
<path fill="#D81247" d="M269.845,88.879h10.131v249.954h-10.131V88.879z"/>
<path fill="#C7CA7E" d="M279.954,88.879h3.102v249.954h-3.102V88.879z"/>
<path fill="#54BB21" d="M283.032,88.879h7.03v249.954h-7.03V88.879z"/>
<path fill="#6C647D" d="M290.04,88.879h3.309v249.954h-3.309V88.879z"/>
<path fill="#1D6D5D" d="M293.322,88.879h4.962v249.954h-4.962V88.879z"/>
<path fill="#AED9DB" d="M298.261,88.879h2.067v249.954h-2.067V88.879z"/>
<path fill="#CC1B8B" d="M300.306,88.879h7.339v249.954h-7.339V88.879z"/>
<path fill="#4C3444" d="M307.622,88.879h1.757v249.954h-1.757V88.879z"/>
<path fill="#0C5907" d="M309.356,88.879h5.789v249.954h-5.789V88.879z"/>
<path fill="#C1CA75" d="M315.122,88.879h2.584v249.954h-2.584V88.879z"/>
<path fill="#FDD21E" d="M317.684,88.879h7.03v249.954h-7.03V88.879z"/>
<path fill="#4F4E0B" d="M324.691,88.879h1.758v249.954h-1.758V88.879z"/>
<path fill="#376E1A" d="M326.426,88.879h1.861v249.954h-1.861V88.879z"/>
<path fill="#024709" d="M328.264,88.879h3.307v249.954h-3.307V88.879z"/>
<path fill="#5E8672" d="M331.549,88.879h2.688v249.954h-2.688V88.879z"/>
<path fill="#0E84B0" d="M334.213,88.879h8.167v249.954h-8.167V88.879z"/>
<path fill="#E0052F" d="M342.359,88.879h10.027v249.954h-10.027V88.879z"/>
<path fill="#DBF298" d="M352.363,88.879h7.96v249.954h-7.96V88.879z"/>
<path fill="#4C7761" d="M360.298,88.879h2.17v249.954h-2.17V88.879z"/>
<path fill="#10796E" d="M362.448,88.879h5.686v249.954h-5.686V88.879z"/>
<path fill="#A5EEEB" d="M368.112,88.879h1.654v249.954h-1.654V88.879z"/>
<path fill="#DA148B" d="M369.741,88.879h8.994v249.954h-8.994V88.879z"/>
<path fill="#4A833C" d="M378.737,88.879h6.617v249.954h-6.617V88.879z"/>
<path fill="#665475" d="M385.33,88.879h2.171v249.954h-2.171V88.879z"/>
<path fill="#195B59" d="M387.477,88.879h4.238v249.955h-4.238V88.879z"/>
<path fill="#BFE3F3" d="M391.695,88.879h2.479v249.955h-2.479V88.879z"/>
<path fill="#E51095" d="M394.15,88.879h8.477v249.955h-8.477V88.879z"/>
<path fill="#0F4C12" d="M402.607,88.879h7.028v249.955h-7.028V88.879z"/>
<path fill="#B2CD76" d="M409.613,88.879h4.031v249.955h-4.031V88.879z"/>
<path fill="#FDC41D" d="M413.62,88.879h5.892v249.955h-5.892V88.879z"/>
<path fill="#386F1E" d="M419.491,88.879h7.753v249.955h-7.753V88.879z"/>
<path fill="#BAE3DC" d="M427.22,88.879h3.102v249.955h-3.102V88.879z"/>
<path fill="#188AC7" d="M430.297,88.879h6.824v249.955h-6.824V88.879z"/>
<path fill="#E60030" d="M437.097,88.879h9.306v249.955h-9.306V88.879z"/>
<path fill="#74B92B" d="M446.381,88.879h9.304v249.955h-9.304V88.879z"/>
<path fill="#5C576B" d="M455.658,88.879h3.516v249.955h-3.516V88.879z"/>
<path fill="#0E6F66" d="M459.152,88.879h3.412v249.955h-3.412V88.879z"/>
<path fill="#B2E9E4" d="M462.54,88.879h1.861v249.955h-1.861V88.879z"/>
<path fill="#D61897" d="M464.377,88.879h8.271v249.955h-8.271V88.879z"/>
<path fill="#135417" d="M472.626,88.879h7.753v249.955h-7.753V88.879z"/>
<path fill="#7DB5B9" d="M480.357,88.879h2.066v249.955h-2.066V88.879z"/>
<path fill="#1C71B9" d="M482.402,88.879h2.791v249.955h-2.791V88.879z"/>
<path fill="#0D25A2" d="M485.167,88.879h5.996v249.955h-5.996V88.879z"/>
<path fill="#36731C" d="M491.14,88.879h7.548v249.955h-7.548V88.879z"/>
<path fill="#649993" d="M498.665,88.879h2.066v249.955h-2.066V88.879z"/>
<path fill="#0B89BA" d="M500.709,88.879h7.03v249.955h-7.03V88.879z"/>
<path fill="#D81247" d="M507.717,88.879h10.131v249.955h-10.131V88.879z"/>
<path fill="#C7CA7E" d="M517.825,88.879h3.102v249.955h-3.102V88.879z"/>
<path fill="#54BB21" d="M520.904,88.879h7.028v249.955h-7.028V88.879z"/>
<path fill="#6C647D" d="M527.91,88.879h3.309v249.955h-3.309V88.879z"/>
<path fill="#1D6D5D" d="M531.192,88.879h4.963v249.955h-4.963V88.879z"/>
<path fill="#AED9DB" d="M536.132,88.879h2.068v249.955h-2.068V88.879z"/>
<path fill="#CC1B8B" d="M538.181,88.879h7.341v249.955h-7.341V88.879z"/>
<path fill="#4C3444" d="M545.497,88.879h1.758v249.955h-1.758V88.879z"/>
<path fill="#0C5907" d="M547.229,88.879h5.788v249.955h-5.788V88.879z"/>
<path fill="#C1CA75" d="M552.997,88.879h2.584v249.955h-2.584V88.879z"/>
<path fill="#FDD21E" d="M555.56,88.879h7.029v249.955h-7.029V88.879z"/>
<path fill="#4F4E0B" d="M562.562,88.879h1.758v249.955h-1.758V88.879z"/>
<path fill="#376E1A" d="M564.297,88.879h1.861v249.955h-1.861V88.879z"/>
<path fill="#024709" d="M566.139,88.879h3.309v249.955h-3.309V88.879z"/>
<path fill="#5E8672" d="M569.421,88.879h2.688v249.955h-2.688V88.879z"/>
<path fill="#0E84B0" d="M572.088,88.879h8.167v249.955h-8.167V88.879z"/>
<path fill="#E0052F" d="M580.23,88.879h10.026v249.955H580.23V88.879z"/>
<path fill="#DBF298" d="M590.233,88.879h7.961v249.955h-7.961V88.879z"/>
<path fill="#4C7761" d="M598.173,88.879h2.171v249.955h-2.171V88.879z"/>
<path fill="#10796E" d="M600.319,88.879h5.686v249.955h-5.686V88.879z"/>
<path fill="#A5EEEB" d="M605.982,88.879h1.653v249.955h-1.653V88.879z"/>
<path fill="#DA148B" d="M607.612,88.879h8.994v249.955h-8.994V88.879z"/>
</svg>
