<?xml version="1.0" encoding="utf-8"?>
<!-- Generator: Adobe Illustrator 16.0.0, SVG Export Plug-In . SVG Version: 6.00 Build 0)  -->
<!DOCTYPE svg PUBLIC "-//W3C//DTD SVG 1.1//EN" "http://www.w3.org/Graphics/SVG/1.1/DTD/svg11.dtd">
<svg version="1.1" id="Layer_1" xmlns="http://www.w3.org/2000/svg" xmlns:xlink="http://www.w3.org/1999/xlink" x="0px" y="0px"
	 width="768px" height="430px" viewBox="0 0 768 430" enable-background="new 0 0 768 430" xml:space="preserve">
<g>
	<path fill="#C6C6C6" d="M467.13,299.601c0,0,12.964,3.585,12.06-9.772c-0.904-13.356-10.854-33.23,13.869-40.071
		c-21.105,12.379-5.125,35.348-7.538,52.125c-1.697,11.807-9.947,18.243-15.677,18.571
		C464.115,315.239,463.503,299.166,467.13,299.601z"/>
	<path fill="#FFFFFF" d="M467.13,299.601c0,0,12.964,3.585,12.06-9.772c-0.904-13.356-10.854-33.23,13.869-40.071
		c-22.914,10.059-8.293,34.044-10.703,50.822c-1.698,11.806-8.142,14.335-13.87,14.66
		C462.756,310.027,463.503,299.166,467.13,299.601z"/>
	<path fill="#3A3A3A" d="M469.688,320.95l-0.135-0.124c-4.576-4.162-6.084-15.23-4.57-19.716c0.56-1.658,1.398-2.006,2.005-2.006
		l0.193,0.012c0.076,0.015,1.617,0.433,3.55,0.433c1.906,0,4.535-0.414,6.234-2.389c1.396-1.624,1.991-4.077,1.773-7.296
		c-0.174-2.585-0.69-5.4-1.233-8.385c-2.278-12.457-4.859-26.578,15.44-32.196l3.536-0.978l-3.207,1.881
		c-13.861,8.13-11.354,21.085-8.929,33.611c1.194,6.17,2.43,12.549,1.622,18.159c-1.808,12.563-10.503,18.666-16.101,18.982
		L469.688,320.95z M466.987,300.082c-0.574,0-0.945,0.74-1.156,1.365c-1.271,3.765-0.155,14.374,4.169,18.505
		c5.155-0.419,13.383-6.391,15.074-18.146c0.782-5.434-0.382-11.444-1.613-17.808c-2.309-11.927-4.69-24.229,6.453-32.716
		c-15.916,5.959-13.59,18.692-11.523,30.01c0.552,3.012,1.07,5.858,1.251,8.501c0.236,3.502-0.441,6.202-2.014,8.031
		c-1.521,1.77-3.906,2.703-6.897,2.703c-2.053,0-3.646-0.434-3.713-0.453L466.987,300.082z"/>
	<path fill="#C6C6C6" d="M309.532,319.344c-18.392,6.633-53.574-2.702-67.838,6.03c-14.774,9.044,8.743,59.095,35.577,51.858
		c21.638-5.835,45.829-22.613,48.844-25.327C323.1,345.876,317.975,322.66,309.532,319.344z"/>
	<path fill="#FFFFFF" d="M321.541,339.178c-2.954-8.406-6.864-17.812-12.009-19.834c-18.392,6.633-53.574-2.702-67.838,6.03
		c-7.982,4.888-4.783,21.742,4.075,35.066C272.741,362.829,300,355.896,321.541,339.178z"/>
	<path fill="#3A3A3A" d="M271.932,378.397L271.932,378.397c-15.304-0.001-29.227-16.955-33.846-33.345
		c-2.708-9.613-1.449-17.113,3.371-20.064c5.883-3.602,15.328-4.064,22.9-4.064c3.893,0,8.034,0.139,12.039,0.271
		c4.068,0.136,8.274,0.275,12.29,0.275c9.417,0,15.8-0.788,20.694-2.553l0.16-0.058l0.158,0.062
		c6.373,2.504,10.747,15.5,13.94,24.988c1.12,3.328,2.087,6.203,2.883,7.793l0.154,0.309l-0.256,0.23
		c-3.284,2.955-27.44,19.604-49.028,25.427C275.597,378.151,273.761,378.397,271.932,378.397z M264.357,321.829
		c-7.453,0-16.738,0.447-22.427,3.931c-4.454,2.728-5.566,9.848-2.973,19.048c4.43,15.719,18.296,32.685,32.975,32.685
		c1.75,0,3.507-0.234,5.222-0.696c20.947-5.648,44.31-21.546,48.404-25.005c-0.791-1.688-1.716-4.438-2.778-7.592
		c-2.934-8.719-7.355-21.857-13.258-24.372c-4.975,1.761-11.414,2.548-20.836,2.548c-4.03,0-8.244-0.141-12.319-0.275
		C272.369,321.967,268.235,321.829,264.357,321.829z"/>
	<path fill="#191919" d="M277.271,377.232c3.596-0.97,7.261-2.246,10.89-3.706c-14.346-16.812-22.059-40.16-25.295-52.139
		c-8.549,0.082-16.156,0.916-21.172,3.986C226.92,334.418,250.437,384.469,277.271,377.232z"/>
	<path fill="#2D2D2D" d="M277.936,358.802c-7.963-13.89-12.709-28.676-15.07-37.414c-8.549,0.082-16.156,0.916-21.172,3.986
		c-7.982,4.888-4.783,21.742,4.075,35.066C256.573,361.397,267.424,360.865,277.936,358.802z"/>
	<path fill="#707070" d="M264.118,325.882c0,0-21.2,0.113-26.683,6.162c-0.735,4.752-0.113,7.462-0.113,7.462
		c3.392-2.147,24.252-8.254,28.888-7.293C265.362,330.065,264.118,325.882,264.118,325.882z"/>
	<path fill="#0C0C0C" d="M271.932,378.397L271.932,378.397c-15.304-0.001-29.227-16.955-33.846-33.345
		c-2.708-9.613-1.449-17.113,3.371-20.064c4.416-2.703,11.017-3.953,21.404-4.053l0.35-0.004l0.092,0.338
		c3.311,12.258,10.989,35.308,25.202,51.964l0.408,0.479l-0.583,0.233c-3.858,1.554-7.54,2.807-10.94,3.724
		C275.597,378.151,273.761,378.397,271.932,378.397z M262.521,321.843c-10.011,0.123-16.371,1.334-20.59,3.917
		c-4.454,2.728-5.566,9.848-2.973,19.048c4.43,15.719,18.296,32.685,32.975,32.685h0c1.75,0,3.506-0.234,5.221-0.696
		c3.195-0.862,6.643-2.023,10.256-3.456C273.472,356.743,265.869,334.137,262.521,321.843z"/>
	<path fill="#C6C6C6" d="M322.346,201.002c0,0-46.047,23.765-38.464,79.596c5.229,38.497,14.33,57.728,17.414,79.119
		c9.065,18.228,92.657,15.404,118.587,9.977c23.669-1.13,55.778,13.87,67.839,20.805c18.09,3.617,46.055-23.293,37.075-41.755
		c-6.332-6.936-40.09-18.849-47.628-20.656c-2.713-18.995-16.432-37.987-36.181-55.176c-16.281-14.171-9.045-40.1-32.262-57.889
		C382.352,194.813,344.809,197.232,322.346,201.002z"/>
	<path fill="#FFFFFF" d="M524.797,348.744c-6.332-6.936-40.09-18.849-47.628-20.656c-2.713-18.995-16.432-37.987-36.181-55.176
		c-15.918-13.854-9.373-38.944-30.77-56.683c-13.182,3.041-27.307,0.562-40.385,3.315c-14.472,3.618-26.232,14.472-40.704,19.899
		c-12.641,4.74-28.042,2.578-36.56-8.294c-6.9,12.326-11.511,28.665-8.688,49.448c5.229,38.497,22.038,48.936,25.122,70.326
		c9.066,18.229,90.321,6.332,116.25,0.905c23.668-1.132,52.819,17.261,64.88,24.195
		C508.224,379.645,533.776,367.206,524.797,348.744z"/>
	<path fill="#3A3A3A" d="M491.173,391.281h-0.002c-1.224,0-2.414-0.114-3.538-0.339l-0.137-0.052
		c-12.517-7.195-42.213-20.805-65.021-20.805c-0.872,0-1.736,0.021-2.57,0.061c-11.654,2.444-33.105,4.095-53.309,4.095
		c-17.614,0-59.276-1.396-65.705-14.322l-0.043-0.137c-1.29-8.945-3.619-17.452-6.315-27.304c-3.777-13.8-8.059-29.44-11.099-51.817
		c-3.939-29.002,6.791-49.225,16.486-61.084c10.501-12.844,22.103-18.917,22.218-18.977l0.133-0.044
		c10.121-1.698,19.935-2.56,29.17-2.56c23.76,0,43.126,5.608,57.561,16.669c12.868,9.859,16.389,21.933,19.795,33.608
		c2.699,9.255,5.249,17.996,12.488,24.297c21.104,18.369,33.646,37.433,36.288,55.15c7.755,1.958,41.105,13.652,47.558,20.718
		l0.072,0.107c3.152,6.481,2.09,14.524-2.992,22.646C515.043,382.646,501.7,391.281,491.173,391.281z M487.882,390.069
		c1.046,0.204,2.15,0.308,3.289,0.308h0.002c10.243,0,23.256-8.453,30.271-19.664c4.896-7.823,5.951-15.531,2.975-21.713
		c-6.259-6.736-39.7-18.636-47.354-20.473l-0.299-0.072l-0.043-0.305c-2.512-17.585-14.972-36.568-36.029-54.897
		c-7.44-6.476-10.026-15.34-12.764-24.726c-3.364-11.536-6.844-23.467-19.477-33.146c-14.272-10.936-33.454-16.48-57.011-16.48
		c-9.163,0-18.902,0.853-28.949,2.534c-0.917,0.491-11.904,6.513-21.896,18.743c-9.569,11.715-20.16,31.696-16.266,60.359
		c3.031,22.319,7.305,37.93,11.075,51.7c2.697,9.854,5.028,18.368,6.328,27.342c4.451,8.743,28.079,13.756,64.862,13.756
		c20.146,0,41.523-1.642,53.194-4.083c0.92-0.05,1.798-0.071,2.685-0.071C445.435,369.182,475.256,382.822,487.882,390.069z"/>
	<path fill="#2D2D2D" d="M426.592,301.177c-4.975,15.377,12.889,3.544,9.949,18.167c-2.939,14.622,10.402,11.174,17.186,2.044
		c5.237-7.048,11.688,2.256,21.639-1.351c-4.618-15.292-15.937-30.415-31.35-44.427
		C439.562,279.861,430.306,289.698,426.592,301.177z"/>
	<path d="M441.155,329.733L441.155,329.733c-1.723-0.002-3.132-0.61-4.076-1.764c-1.457-1.778-1.786-4.711-0.981-8.716
		c1.354-6.739-1.827-7.46-5.194-8.224c-1.985-0.451-4.038-0.917-5.039-2.676c-0.901-1.582-0.807-3.907,0.298-7.317
		c3.67-11.344,12.565-21.006,17.541-25.755l0.307-0.291l0.31,0.284c16.463,14.967,27.055,29.982,31.479,44.631l0.124,0.41
		l-0.402,0.146c-1.654,0.6-3.303,0.892-5.041,0.892c-2.627,0-4.994-0.684-7.084-1.286c-1.692-0.486-3.291-0.948-4.72-0.948
		c-1.866,0-3.281,0.782-4.585,2.536C450.557,326.411,445.238,329.733,441.155,329.733z M444.023,276.229
		c-4.965,4.786-13.466,14.158-17.002,25.087c-1.005,3.106-1.127,5.263-0.37,6.59c0.803,1.413,2.574,1.815,4.451,2.242
		c3.474,0.786,7.411,1.681,5.882,9.284c-0.738,3.674-0.464,6.428,0.794,7.964c0.778,0.949,1.914,1.432,3.376,1.432h0.001
		c3.755,0,8.89-3.242,12.209-7.711c1.471-1.979,3.158-2.901,5.311-2.901c1.557,0,3.215,0.478,4.971,0.983
		c2.03,0.586,4.333,1.25,6.833,1.25c1.488,0,2.908-0.229,4.326-0.696C470.383,305.488,460.029,290.846,444.023,276.229z"/>
	<path fill="#191919" d="M389.732,245.098c11.551,12.428,27.633,12.842,39.946,7.735c-3.857-12.563-6.527-26.758-20.952-37.81
		c-5.221-4.001-10.883-7.103-16.775-9.496C385.615,214.949,377.507,231.944,389.732,245.098z"/>
	<path fill="#2D2D2D" d="M410.231,216.226c-8.052,1.86-16.456,1.665-24.762,1.851c-3.051,8.582-3.573,18.59,4.263,27.021
		c11.551,12.428,27.633,12.842,39.946,7.735C425.96,240.721,423.341,227.094,410.231,216.226z"/>
	<path d="M414.537,256.359h-0.002c-6.822,0-16.72-1.902-25.134-10.954c-12.528-13.479-4.015-30.928,2.175-40.129l0.205-0.304
		l0.341,0.138c6.224,2.526,11.903,5.741,16.88,9.556c12.868,9.858,16.391,21.931,19.796,33.606c0.436,1.494,0.866,2.973,1.313,4.43
		l0.121,0.394l-0.381,0.156C424.949,255.285,419.652,256.359,414.537,256.359z M392.122,206.086
		c-6.02,9.055-14.025,25.828-2.059,38.703c8.191,8.814,17.83,10.665,24.472,10.665h0.002c4.867,0,9.902-0.995,14.589-2.884
		c-0.406-1.332-0.799-2.683-1.196-4.045c-3.365-11.536-6.845-23.465-19.478-33.144C403.631,211.688,398.138,208.562,392.122,206.086
		z"/>
	<path fill="#191919" d="M307.648,259.569c-2.713-11.08,4.749-7.688,6.105-19.899c0.819-7.371-6.437-15.729-12.317-21.196
		c-9.657,11.287-18.905,28.315-18.374,51.868C296.385,275.712,309.971,269.055,307.648,259.569z"/>
	<path fill="#2D2D2D" d="M292.572,231.153c-5.722,10.221-9.871,23.198-9.51,39.188c13.323,5.37,26.908-1.287,24.585-10.772
		c-2.55-10.411,3.883-8.048,5.795-17.852C305.39,241.114,297.723,237.726,292.572,231.153z"/>
	<path d="M292.722,272.71h-0.002c-3.312,0-6.618-0.656-9.827-1.948l-0.276-0.112l-0.007-0.298
		c-0.446-19.762,5.772-37.315,18.482-52.172l0.307-0.359l0.345,0.322c6.143,5.712,13.291,14.092,12.459,21.578
		c-0.643,5.78-2.666,8.198-4.291,10.142c-1.875,2.243-3.23,3.864-1.825,9.6c0.678,2.771,0.096,5.436-1.685,7.706
		C303.679,270.639,298.564,272.71,292.722,272.71z M283.509,270.032c3.014,1.177,6.111,1.773,9.211,1.773h0.002
		c5.484,0,10.453-1.991,12.969-5.197c1.603-2.042,2.127-4.439,1.517-6.932c-1.514-6.18,0.12-8.133,2.01-10.394
		c1.628-1.946,3.473-4.153,4.085-9.663c0.775-6.976-5.92-14.934-11.83-20.492C289.184,233.657,283.141,250.781,283.509,270.032z"/>
	<path fill="#C6C6C6" d="M283.882,280.599c6.655,48.997,19.582,66.784,18.395,97.538c0.321,11.457,47.355,12.683,46.752,0.301
		c0,0,0.006-20.729-7.236-43.567c-7.191-22.679-13.568-18.769-21.708-56.759L283.882,280.599z"/>
	<path fill="#FFFFFF" d="M283.882,280.599c6.655,48.997,24.425,67.045,23.238,97.799c0.32,11.458,37.387,11.929,36.784-0.452
		c0,0,1.513-19.482-5.729-42.322c-7.191-22.678-9.95-21.104-18.09-59.095L283.882,280.599z"/>
	<path fill="#3A3A3A" d="M326.972,387.688c-7.745,0-15.713-1.302-20.602-3.902c-2.955-1.571-4.484-3.468-4.545-5.636
		c0.643-16.687-2.858-29.477-7.292-45.67c-3.778-13.799-8.059-29.44-11.099-51.818l0.896-0.123
		c3.031,22.319,7.305,37.93,11.075,51.703c4.454,16.268,7.972,29.118,7.324,45.913c0.051,1.789,1.418,3.425,4.065,4.832
		c9.513,5.059,30.915,5.12,38.812,0.11c2.058-1.306,3.058-2.866,2.972-4.637c-0.001-0.229-0.081-20.948-7.216-43.453
		c-2.815-8.878-5.444-13.554-8.229-18.505c-2.984-5.308-6.041-10.742-9.338-21.747c-1.34-4.473-3.269-16.737-3.269-16.737
		c4.924,22.977,9.23,30.636,13.395,38.041c2.684,4.773,5.46,9.709,8.303,18.675c7.18,22.644,7.258,43.497,7.258,43.704
		c0.103,2.099-1.038,3.931-3.391,5.423C342.066,386.414,334.627,387.688,326.972,387.688z"/>
	<path fill="#191919" d="M302.277,378.137c0.321,11.457,47.355,12.683,46.752,0.301c0,0,0.002-7.28-1.504-17.964
		c-21.037,7.809-37.093,4.915-45.891,1.841C302.235,367.335,302.494,372.519,302.277,378.137z"/>
	<path fill="#2D2D2D" d="M343.614,361.896c-15.753,5.269-29.482,3.733-37.372,1.795c0.601,5.022,0.266,9.087,0.048,14.706
		c0.229,8.183,22.231,11.011,34.575,7.452C345.026,378.977,343.75,370.018,343.614,361.896z"/>
	<path fill="#707070" d="M338.741,363.249c0,0,2.035,17.242-2.713,23.404c-5.938,0.974-9.912,0.456-9.912,0.456
		c2.224-5.826,3.919-19.281,3.241-22.107C333.05,364.888,338.119,363.249,338.741,363.249z"/>
	<path fill="#0C0C0C" d="M327.125,387.688h-0.002c-12.439,0-25.123-3.276-25.298-9.538c0.205-5.324-0.004-10.477-0.639-15.781
		l-0.086-0.72l0.685,0.239c5.972,2.087,12.471,3.145,19.315,3.145c8.524,0,17.362-1.677,26.269-4.983l0.527-0.194l0.079,0.557
		c1.492,10.592,1.508,17.953,1.508,18.026c0.071,1.447-0.466,2.794-1.595,3.979C344.742,385.717,336.98,387.688,327.125,387.688z
		 M302.167,362.975c0.575,5.101,0.759,10.075,0.562,15.18c0.157,5.594,12.685,8.63,24.394,8.63h0.002
		c9.471,0,17.174-1.913,20.107-4.991c0.951-1,1.405-2.121,1.346-3.333c-0.001-0.092-0.017-7.143-1.423-17.368
		c-8.829,3.215-17.593,4.845-26.056,4.845C314.412,365.938,308.046,364.94,302.167,362.975z"/>
	<path fill="#C6C6C6" d="M423.199,278.111c-6.332,41.232-29.849,46.809-27.407,100.945c-0.32,11.458-47.354,12.683-46.751,0.302
		c0,0-0.006-20.729,7.236-43.568c7.191-22.678,14.462-26.021,22.601-64.01L423.199,278.111z"/>
	<path fill="#FFFFFF" d="M422.753,276.528c-6.332,41.232-35.464,47.28-33.021,101.417c-0.32,11.457-41.294,13.794-40.692,1.413
		c0,0-0.006-20.729,7.236-43.568c7.191-22.678,14.462-26.021,22.601-64.01L422.753,276.528z"/>
	<path fill="#3A3A3A" d="M371.099,388.608c-7.657,0-15.094-1.273-19.12-3.827c-2.353-1.493-3.493-3.325-3.391-5.445
		c0-0.186,0.077-21.038,7.257-43.683c2.692-8.488,5.339-14.159,8.143-20.163c4.6-9.85,9.354-20.036,14.448-43.805
		c0,0-0.915,10.812-4.101,19.927c-3.282,10.884-6.44,17.647-9.527,24.261c-2.791,5.978-5.427,11.623-8.101,20.055
		c-7.138,22.512-7.215,43.224-7.215,43.431c-0.086,1.793,0.914,3.354,2.971,4.658c7.897,5.011,29.299,4.95,38.812-0.109
		c2.646-1.407,4.015-3.044,4.065-4.862c-1.444-31.985,6.03-46.827,13.944-62.539c5.348-10.619,10.877-21.598,13.468-38.463
		c0,0,0,7.062-2.889,16.322c-2.776,8.659-6.312,15.678-9.771,22.546c-7.858,15.604-15.282,30.343-13.849,62.126
		c-0.061,2.201-1.589,4.097-4.545,5.668C386.811,387.305,378.843,388.608,371.099,388.608z"/>
	<path fill="#191919" d="M395.792,379.057c-0.266-5.911-0.223-11.242,0.073-16.104c-18.098,4.877-37.997,0.601-45.35-1.344
		c-1.476,10.564-1.475,17.75-1.475,17.75C348.438,391.739,395.472,390.515,395.792,379.057z"/>
	<path fill="#2D2D2D" d="M389.732,377.945c-0.266-5.912-0.201-8.841,0.094-13.703c-18.098,4.878-31.958-0.689-39.311-2.634
		c-1.476,10.564-1.475,17.75-1.475,17.75C348.438,391.739,389.412,389.402,389.732,377.945z"/>
	<path fill="#707070" d="M353.307,362.321c0,0-2.468,17.719,2.28,23.881c5.938,0.974,10.025,1.658,10.025,1.658
		c-2.223-5.826-3.6-20.959-2.921-23.786C358.998,363.961,353.929,362.321,353.307,362.321z"/>
	<path fill="#0C0C0C" d="M370.95,388.608h-0.002c-9.857,0-17.619-1.971-20.764-5.272c-1.129-1.186-1.667-2.531-1.595-4
		c0-0.05,0.016-7.315,1.479-17.79l0.07-0.506l0.493,0.131c5.057,1.338,15.266,3.581,26.813,3.581c6.64,0,12.797-0.753,18.304-2.237
		l0.606-0.164l-0.037,0.629c-0.304,4.988-0.328,10.39-0.073,16.058C396.069,385.332,383.387,388.608,370.95,388.608z
		 M350.894,362.175c-1.385,10.141-1.401,17.113-1.401,17.184c-0.059,1.233,0.394,2.354,1.345,3.354
		c2.933,3.079,10.639,4.992,20.11,4.992c11.708,0,24.236-3.034,24.394-8.659c-0.247-5.432-0.234-10.651,0.037-15.496
		c-5.427,1.398-11.457,2.106-17.934,2.106C366.159,365.655,356.146,363.532,350.894,362.175z"/>
	<path fill="#191919" d="M524.797,348.744c-2.91-3.188-11.616-7.426-20.904-11.251c-7.467,3.313-16.133,8.827-23.03,17.954
		c-7.032,9.309-9.942,18.47-10.735,26.369c7.375,3.192,13.592,6.381,17.595,8.683C505.812,394.116,533.776,367.206,524.797,348.744z
		"/>
	<path fill="#2D2D2D" d="M518.706,375.29c6.678-8.187,10.139-18.224,6.091-26.546c-2.91-3.188-11.616-7.426-20.904-11.251
		c-7.467,3.313-16.133,8.827-23.03,17.954c-2.931,3.879-5.137,7.73-6.781,11.479C487.894,372.631,503.812,377.95,518.706,375.29z"/>
	<path fill="#707070" d="M499.801,339.394c0,0,12.606,5.37,14.812,7.857c-3.845,0.226-10.911,4.409-10.911,4.409
		c-0.961-1.979-9.296-7.455-10.358-8.222C494.669,341.983,499.801,339.394,499.801,339.394z"/>
	<path fill="#0C0C0C" d="M491.173,391.281h-0.002c-1.224,0-2.414-0.114-3.538-0.339l-0.137-0.052
		c-4.756-2.733-11.152-5.891-17.549-8.66l-0.304-0.132l0.033-0.328c0.942-9.388,4.585-18.336,10.825-26.596
		c5.88-7.783,13.688-13.871,23.206-18.095l0.177-0.079l0.18,0.074c7.815,3.219,17.815,7.803,21.066,11.363l0.072,0.107
		c3.152,6.481,2.09,14.524-2.992,22.646C515.043,382.646,501.7,391.281,491.173,391.281z M487.882,390.069
		c1.046,0.204,2.15,0.308,3.289,0.308h0.002c10.243,0,23.256-8.453,30.271-19.664c4.896-7.823,5.951-15.531,2.975-21.713
		c-2.509-2.702-9.598-6.509-20.519-11.015c-9.297,4.157-16.926,10.124-22.676,17.736c-6.066,8.027-9.636,16.71-10.613,25.812
		C476.907,384.271,483.182,387.372,487.882,390.069z"/>
	<path fill="#161616" d="M524.797,348.744c-0.521-0.572-1.246-1.181-2.109-1.81c-7.999-0.923-17.853,2.438-26.104,9.682
		c-11.129,9.773-15.638,23.363-11.425,32.455c0.931,0.504,1.789,0.982,2.562,1.428C505.812,394.116,533.776,367.206,524.797,348.744
		z"/>
	<path fill="#0C0C0C" d="M491.173,391.281h-0.002c-1.224,0-2.414-0.114-3.538-0.339l-0.137-0.052
		c-0.771-0.442-1.626-0.919-2.552-1.422l-0.132-0.071l-0.063-0.137c-4.36-9.413,0.49-23.284,11.537-32.984
		c7.197-6.318,15.853-9.943,23.744-9.943c0.921,0,1.832,0.051,2.709,0.151l0.118,0.015l0.097,0.07
		c0.948,0.69,1.659,1.303,2.177,1.869l0.072,0.107c3.152,6.481,2.09,14.524-2.992,22.646
		C515.043,382.646,501.7,391.281,491.173,391.281z M487.882,390.069c1.044,0.204,2.15,0.308,3.289,0.308h0.002
		c10.243,0,23.256-8.453,30.271-19.664c4.896-7.823,5.951-15.531,2.975-21.713c-0.449-0.483-1.088-1.031-1.901-1.629
		c-0.807-0.089-1.642-0.134-2.486-0.134c-7.676,0-16.113,3.543-23.147,9.72c-10.698,9.394-15.463,22.733-11.374,31.79
		C486.366,389.213,487.16,389.655,487.882,390.069z"/>
	<path fill="#131313" d="M483.603,256.614c0,0,3.612-25.401,30.301-27.136c17.401-1.13,24.647,3.937,34.146-5.427
		c-0.226,12.437-13.115,20.804-18.994,21.935c4.522,2.035,11.306,0.451,13.567-0.904
		C537.421,251.64,513.225,274.252,483.603,256.614z"/>
	<path fill="#191919" d="M486.552,255.906c0,0,0.663-24.693,27.352-26.428c17.401-1.13,24.647,3.937,34.146-5.427
		c-0.226,12.437-18.871,19.539-24.749,20.669c4.522,2.035,12.964,3.585,19.322,0.361
		C537.421,251.64,510.636,265.977,486.552,255.906z"/>
	<path d="M506.154,263.658c-7.701,0-15.366-2.239-22.783-6.655l-0.259-0.155l0.043-0.297c0.036-0.258,3.974-25.786,30.719-27.523
		c1.829-0.118,3.634-0.177,5.518-0.177c3.162,0,5.982,0.167,8.469,0.315c2.039,0.122,3.964,0.236,5.729,0.236
		c5.179,0,9.351-0.949,14.143-5.673l0.789-0.778l-0.021,1.108c-0.207,11.436-11.051,19.857-17.904,21.999
		c1.081,0.298,2.304,0.448,3.653,0.448c3.325,0,6.675-0.935,8.139-1.813l2.133-1.279l-1.546,1.947
		C537.957,251.69,523.803,263.658,506.154,263.658z M484.101,256.383c7.192,4.228,14.61,6.371,22.054,6.371
		c16,0,29.079-10.042,34.852-16.465c-1.804,0.623-4.295,1.122-6.756,1.122c-2.078,0-3.889-0.342-5.382-1.013l-1.304-0.587
		l1.404-0.271c5.054-0.971,17.621-8.405,18.574-20.386c-4.671,4.265-8.844,5.15-13.953,5.15c-1.794,0-3.73-0.114-5.782-0.236
		c-2.476-0.146-5.279-0.314-8.416-0.314c-1.865,0-3.649,0.058-5.459,0.175C489.476,231.519,484.621,253.562,484.101,256.383z"/>
	<path fill="#E2A05D" d="M315.869,55.56c0,0-19.409-5.879-34.786-21.708c-11.741-12.087-16.055,1.583-13.794,14.472
		c2.261,12.89,12.382,27.489,25.513,30.428C304.577,75.133,312.438,61.665,315.869,55.56z"/>
	<path fill="#F9C07D" d="M315.869,55.56c0,0-19.409-5.879-34.786-21.708c-11.741-12.087-12.989,2.146-8.938,14.59
		c4.221,12.964,15.06,21.89,28.191,24.83C312.111,69.653,312.438,61.665,315.869,55.56z"/>
	<path fill="#BF6E25" d="M292.821,79.219l-0.118-0.026c-13.831-3.096-23.646-18.175-25.86-30.791
		c-1.301-7.417-0.377-14.541,2.3-17.728c1.09-1.297,2.424-1.956,3.967-1.956c2.4,0,5.192,1.622,8.297,4.818
		c15.121,15.565,34.399,21.532,34.592,21.59l0.539,0.163l-0.276,0.492c-3.015,5.366-11.025,19.622-23.327,23.402L292.821,79.219z
		 M273.11,29.623c-1.263,0-2.364,0.55-3.275,1.634c-2.514,2.994-3.358,9.821-2.1,16.989c2.187,12.462,12.145,27.075,25.049,30.039
		c11.547-3.62,19.273-16.88,22.419-22.465c-3.242-1.088-20.58-7.379-34.445-21.652C277.831,31.152,275.257,29.623,273.11,29.623z"/>
	<path fill="#E2A05D" d="M377.829,54.209c0,0,18.171-9.005,30.721-27.158c9.582-13.861,16.096-1.091,15.995,11.994
		c-0.1,13.086-7.669,29.156-20.135,34.226C392.199,71.648,382.221,59.664,377.829,54.209z"/>
	<path fill="#F9C07D" d="M377.829,54.209c0,0,18.171-9.005,30.721-27.158c9.582-13.861,11.585-1.31,11.483,11.775
		c-0.099,13.086-14.046,26.319-26.51,31.388C381.312,68.592,382.221,59.664,377.829,54.209z"/>
	<path fill="#BF6E25" d="M404.47,73.735l-0.118-0.015c-12.76-1.697-23.015-14.433-26.875-19.227l-0.354-0.439l0.505-0.25
		c0.181-0.09,18.215-9.169,30.55-27.01c2.841-4.109,5.606-6.193,8.222-6.193c1.396,0,2.695,0.596,3.86,1.771
		c2.933,2.956,4.792,9.502,4.737,16.677c-0.098,12.808-7.284,29.301-20.416,34.641L404.47,73.735z M378.526,54.355
		c4.026,4.989,13.838,16.79,25.825,18.452c12.238-5.055,19.646-21.113,19.741-33.765c0.054-6.946-1.703-13.24-4.476-16.033
		c-0.99-0.997-2.072-1.503-3.218-1.503c-2.269,0-4.854,2.006-7.478,5.802C397.605,43.676,381.544,52.746,378.526,54.355z"/>
	<path fill="#C6C6C6" d="M282,106.233c0,0-14.171-26.533-25.929-30.15c-11.759-3.618-26.23,9.019-34.673,5.263
		c3.618,6.495,3.919,30.616,20.201,39.058c16.281,8.442,37.386-0.904,40.401-3.618C282.301,111.961,282,106.233,282,106.233z"/>
	<path fill="#FFFFFF" d="M282,106.233c0,0-14.171-26.533-25.929-30.15c-11.759-3.618-26.23,9.019-34.673,5.263
		c7.764,6.344,9.347,27.299,25.628,35.741c16.281,8.442,32.544,0.068,35.559-2.646C282.887,109.617,282,106.233,282,106.233z"/>
	<path fill="#3A3A3A" d="M256.854,124.311L256.854,124.311c-5.776-0.001-10.979-1.18-15.465-3.505
		c-11.973-6.209-15.474-20.919-17.79-30.653c-0.875-3.675-1.629-6.849-2.597-8.586l-0.66-1.184l1.238,0.551
		c1.008,0.448,2.138,0.667,3.451,0.666c3.377,0,7.388-1.464,11.633-3.014c4.868-1.777,9.9-3.614,14.788-3.614
		c1.688,0,3.287,0.228,4.75,0.678c11.801,3.632,25.613,29.28,26.195,30.371l0.053,0.189c0.002,0.058,0.299,5.811-0.001,10.604
		l-0.011,0.184l-0.137,0.124C280.102,119.102,268.945,124.311,256.854,124.311z M222.284,82.147
		c0.786,1.871,1.423,4.549,2.196,7.795c2.278,9.574,5.721,24.042,17.326,30.06c4.355,2.258,9.418,3.403,15.047,3.403
		c11.615,0,22.282-4.842,24.706-6.838c0.256-4.353,0.03-9.435-0.007-10.21c-0.914-1.685-14.504-26.424-25.615-29.843
		c-1.378-0.423-2.887-0.639-4.485-0.639c-4.728,0-9.684,1.809-14.478,3.56c-4.323,1.578-8.406,3.068-11.943,3.068
		C224.03,82.504,223.122,82.386,222.284,82.147z"/>
	<path fill="#F28B8B" d="M235.568,88.055c0,0,13.869-5.134,22.009,2c8.14,7.133,9.95,21.002,18.392,23.415
		C257.879,119.197,238.583,114.408,235.568,88.055z"/>
	<path fill="#FCC5C5" d="M256.975,96.284c-4.011-6.419-13.002-5.72-20.664-3.587c4.274,20.445,19.833,25.383,35.492,21.889
		C265.143,110.481,261.868,102.573,256.975,96.284z"/>
	<path fill="#3A3A3A" d="M262.891,116.076c-9.177,0-24.988-3.634-27.772-27.97l-0.041-0.352l0.333-0.123
		c0.2-0.074,4.97-1.815,10.617-1.815c4.909,0,8.895,1.312,11.848,3.899c3.626,3.178,5.972,7.583,8.241,11.844
		c2.785,5.231,5.416,10.173,9.977,11.476l1.444,0.413l-1.432,0.453C271.548,115.344,267.101,116.076,262.891,116.076z
		 M236.059,88.364c2.819,23.312,18.001,26.807,26.832,26.807c3.722,0,7.636-0.586,11.655-1.744
		c-4.13-1.869-6.612-6.532-9.228-11.443c-2.23-4.189-4.537-8.521-8.039-11.589c-2.783-2.438-6.569-3.674-11.251-3.674
		C241.381,86.72,237.24,87.973,236.059,88.364z"/>
	<path fill="#C6C6C6" d="M344.201,39.395c-27.555,1.429-59.831,18.048-67.704,50.653c-7.873,32.604-7.371,54.723-16.869,65.125
		c0.904,18.09,9.648,42.061,22.613,46.584c12.965,4.521,17.149,28.532,37.085,28.642c22.317,0.125,18.542-7.812,29.523-13.493
		c29.722-15.375,53.651-0.125,72.988-15.149c22.991-17.866,29.851-45.528,8.443-72.965
		C432.393,97.133,405.257,36.229,344.201,39.395z"/>
	<path fill="#FFFFFF" d="M344.201,39.395c-27.555,1.429-59.831,18.048-67.704,50.653c-7.873,32.604-7.371,54.723-16.869,65.125
		c0.904,18.09,11.679,38.745,24.644,43.267c12.965,4.522,16.681,27.135,36.617,27.137c17.04,0,21.365-13.19,32.346-18.872
		c29.722-15.376,37.849-0.729,63.102-11.583c22.069-9.486,31.48-40.753,10.072-68.19C428.521,95.274,405.257,36.229,344.201,39.395z
		"/>
	<path fill="#282828" d="M344.866,39.588c-27.554,1.429-23.143,67.518-13.677,94.281c8.744,24.723,30.918,33.687,43.417,33.768
		c31.055,0.201,66.632-18.09,56.338-38.652C433.057,97.327,405.921,36.422,344.866,39.588z"/>
	<ellipse fill="#141414" cx="360.646" cy="118.91" rx="18.341" ry="27.816"/>
	<ellipse fill="#C6C6C6" cx="296.46" cy="117.777" rx="18.34" ry="27.816"/>
	<path fill="#3A3A3A" d="M319.845,230.853l-0.521-0.001c-11.988-0.068-18.497-8.759-24.238-16.43
		c-4.016-5.365-7.81-10.431-12.993-12.24c-12.929-4.508-21.961-27.9-22.916-46.987l-0.009-0.188l0.127-0.139
		c6.038-6.612,8-18.183,10.718-34.197c1.522-8.973,3.248-19.142,6.046-30.729c7.975-33.026,40.9-49.587,68.119-50.998
		c23.693-1.226,44.856,7.275,60.944,24.472c19.158,20.478,26.7,48.122,25.623,65.234c9.836,12.663,14.183,26.187,12.572,39.121
		c-1.61,12.942-8.942,24.817-21.201,34.343c-9.006,6.999-18.604,7.539-31.176,7.539h-0.002l-2.994-0.002
		c-13.178,0-25.198,0.576-38.885,7.659c-3.598,1.861-5.563,3.95-7.463,5.969C337.771,227.344,334.466,230.853,319.845,230.853z
		 M260.09,155.337c0.995,18.837,10.164,41.759,22.3,45.992c5.445,1.898,9.318,7.073,13.42,12.551
		c5.89,7.869,11.979,16.003,23.519,16.067l0.515,0.003c14.23,0,17.411-3.38,21.092-7.291c1.952-2.076,3.97-4.221,7.706-6.155
		c14.995-7.758,29.043-7.758,39.301-7.758l2.994,0.002c12.394,0,21.844-0.527,30.624-7.348
		c12.065-9.375,19.276-21.043,20.857-33.741c1.585-12.737-2.734-26.081-12.494-38.588l-0.106-0.136l0.013-0.172
		c1.126-16.91-6.332-44.379-25.371-64.729c-15.901-16.998-36.815-25.407-60.236-24.186c-26.894,1.395-59.421,17.732-67.287,50.307
		c-2.791,11.557-4.513,21.71-6.033,30.667C268.18,136.878,266.207,148.509,260.09,155.337z"/>
	<ellipse fill="#B9B9BA" cx="360.595" cy="121.575" rx="15.49" ry="24.743"/>
	<path fill="#FFFFFF" d="M376.085,121.575c0,20.708-31.141,19.473-30.98,0c0.112-13.665,6.935-24.743,15.49-24.743
		C369.149,96.832,376.085,107.91,376.085,121.575z"/>
	<path fill="#505051" d="M360.595,146.771c-8.791,0-15.942-11.303-15.942-25.196c0-13.893,7.152-25.196,15.942-25.196
		c8.791,0,15.942,11.303,15.942,25.196C376.537,135.468,369.386,146.771,360.595,146.771z M360.595,97.284
		c-8.292,0-15.037,10.897-15.037,24.292c0,13.394,6.745,24.291,15.037,24.291c8.291,0,15.038-10.897,15.038-24.291
		C375.633,108.181,368.886,97.284,360.595,97.284z"/>
	<ellipse fill="#2E44FF" cx="361.147" cy="123.93" rx="9.031" ry="12.684"/>
	<path fill="#03147A" d="M361.146,137.065c-5.229,0-9.483-5.893-9.483-13.136s4.254-13.136,9.483-13.136s9.485,5.893,9.485,13.136
		S366.376,137.065,361.146,137.065z M361.146,111.698c-4.731,0-8.578,5.487-8.578,12.232s3.847,12.232,8.578,12.232
		s8.581-5.487,8.581-12.232S365.877,111.698,361.146,111.698z"/>
	<ellipse fill="#010521" cx="361.386" cy="124.118" rx="5.276" ry="7.085"/>
	
		<ellipse transform="matrix(0.997 0.0777 -0.0777 0.997 10.3415 -22.6226)" fill="#B9B9BA" cx="295.869" cy="121.575" rx="15.49" ry="24.744"/>
	<path fill="#FFFFFF" d="M311.312,122.779c-1.062,13.624-31.948,11.217-30.886-2.407c1.062-13.624,8.836-24.13,17.365-23.465
		C306.32,97.571,312.373,109.155,311.312,122.779z"/>
	<path fill="#505051" d="M294.713,146.726c-0.267,0-0.534-0.011-0.803-0.031c-4.286-0.334-8.094-3.289-10.723-8.318
		c-2.592-4.961-3.733-11.368-3.213-18.041c1.077-13.83,9.036-24.559,17.852-23.881c4.286,0.334,8.094,3.289,10.723,8.318
		c2.592,4.961,3.733,11.368,3.214,18.041C310.717,136.223,303.229,146.726,294.713,146.726z M297.023,97.329
		c-8.045,0-15.139,10.138-16.147,23.078c-0.507,6.506,0.599,12.739,3.114,17.551c2.479,4.743,6.026,7.526,9.991,7.834
		c8.322,0.641,15.84-9.716,16.879-23.049c0.507-6.505-0.599-12.739-3.114-17.551c-2.479-4.744-6.027-7.526-9.991-7.835
		C297.511,97.338,297.267,97.329,297.023,97.329z"/>
	
		<ellipse transform="matrix(0.997 0.0777 -0.0777 0.997 10.53 -22.6472)" fill="#2E44FF" cx="296.236" cy="123.966" rx="9.032" ry="12.684"/>
	<path fill="#03147A" d="M295.759,137.083c-0.181,0-0.362-0.007-0.544-0.021c-2.555-0.199-4.838-1.768-6.431-4.417
		c-1.562-2.601-2.274-5.945-2.004-9.416c0.561-7.192,5.226-12.755,10.477-12.359c2.555,0.199,4.839,1.768,6.431,4.417
		c1.562,2.601,2.274,5.945,2.004,9.416C305.15,131.645,300.788,137.083,295.759,137.083z M296.713,111.752
		c-4.559,0-8.526,5.072-9.031,11.546c-0.256,3.285,0.411,6.438,1.877,8.879c1.438,2.392,3.471,3.806,5.726,3.982
		c4.74,0.37,8.982-4.83,9.504-11.528c0.256-3.284-0.411-6.438-1.877-8.879c-1.437-2.392-3.47-3.806-5.726-3.982
		C297.028,111.759,296.871,111.752,296.713,111.752z"/>
	
		<ellipse transform="matrix(0.997 0.0777 -0.0777 0.997 10.5436 -22.6579)" fill="#010521" cx="296.46" cy="124.172" rx="5.276" ry="7.085"/>
	<path d="M361.146,74.897c0,0,10.19,7.236,12.452,17.638c-4.976-7.915-14.472-14.698-18.769-15.376
		C355.055,75.802,358.647,72.839,361.146,74.897z"/>
	<path d="M296.723,74.897c0,0-10.188,7.236-12.45,17.638c4.975-7.915,14.472-14.698,18.769-15.376
		C302.815,75.802,299.224,72.839,296.723,74.897z"/>
	<path fill="#8A1000" d="M289.025,196.781c7.99,4.07,16.902,21.492,25.327,22.764c12.965,1.96,32.11-7.54,38.402-22.764
		C348.874,185.021,289.176,190.75,289.025,196.781z"/>
	<path fill="#B91000" d="M302.141,204.468c-1.139,0-2.368,0.449-3.658,1.148c5.254,6.166,10.655,13.14,15.87,13.928
		c10.054,1.519,23.823-3.857,32.433-13.446C332.427,210.262,316.64,204.468,302.141,204.468z"/>
	<path fill="#5B1000" d="M317.881,220.254L317.881,220.254c-1.245,0-2.455-0.089-3.597-0.262
		c-4.882-0.737-9.837-6.613-14.629-12.293c-3.637-4.309-7.396-8.765-10.835-10.516l-0.254-0.129l0.007-0.286
		c0.109-4.374,22.854-7.276,37.849-7.276c9.114,0,24.709,0.929,26.76,7.147l0.053,0.159l-0.066,0.155
		C347.226,211.342,330.223,220.254,317.881,220.254z M289.535,196.539c3.502,1.916,7.056,6.127,10.811,10.578
		c4.685,5.552,9.528,11.294,14.074,11.981c1.097,0.167,2.262,0.251,3.461,0.251c12.006,0,28.525-8.63,34.388-22.582
		c-1.549-4.051-10.942-6.37-25.846-6.37C308.394,190.396,290.666,193.837,289.535,196.539z"/>
	<ellipse fill="#FFFFFF" cx="298.323" cy="117.077" rx="2.455" ry="2.758"/>
	<ellipse fill="#FFFFFF" cx="363.841" cy="118.133" rx="2.455" ry="2.757"/>
	<path fill="#141414" d="M405.05,102.71c0,0,8.177-7.144,16.93-22.586c8.754-15.443,31.668-27.745,61.412-18.78
		c-2.945,14.846-9.184,37.824-23.984,47.907s-35.185,5.749-42.885,9.758L405.05,102.71z"/>
	<path fill="#282828" d="M405.05,102.71c0,0,8.177-7.144,16.93-22.586c8.754-15.443,33.253-26.886,59.234-19.4
		c-2.944,14.846-9.733,35.316-24.532,45.398c-14.801,10.083-32.811,7.323-41.471,14.64L405.05,102.71z"/>
	<path fill="#3A3A3A" d="M416.712,119.446c0,0,2.971-3.164,13.188-3.136c9.018-0.586,20.237-1.315,29.271-7.469
		c10.933-7.449,18.903-23.311,23.688-47.147c-29.367-8.686-51.928,3.562-60.494,18.676c-8.694,15.34-17.597,21.965-17.597,21.965
		c0.081-0.071,8.223-7.28,16.826-22.457c8.782-15.495,31.907-28.05,61.927-19.003l0.4,0.121l-0.089,0.44
		c-4.83,24.355-12.968,40.581-24.188,48.226c-9.236,6.291-20.588,7.028-29.71,7.621
		C424.376,117.643,419.578,117.954,416.712,119.446z"/>
	<path fill="#F28B8B" d="M419.133,104.852c0,0,18.201-36.946,52.097-35.737c-1.269,8.336-6.012,22.051-17.25,29.197
		C444.744,104.185,432.46,101.452,419.133,104.852z"/>
	<path fill="#FCC5C5" d="M423.035,104.025c11.81-2.105,22.618-0.419,30.944-5.714c10.867-6.909,14.418-17.445,16.426-25.164
		C450.733,74.685,433.552,86.613,423.035,104.025z"/>
	<path fill="#3A3A3A" d="M418.272,105.57l0.46-0.938c0.184-0.373,18.728-37.21,52.521-36.004l0.505,0.018l-0.082,0.537
		c-1.501,9.867-6.879,22.811-17.473,29.547c-5.57,3.541-12.298,4.012-19.425,4.51c-4.994,0.349-10.16,0.71-15.552,2.085
		L418.272,105.57z M470.697,69.586c-29.883-0.725-47.553,28.861-50.669,34.55c5.106-1.197,9.985-1.537,14.715-1.868
		c7.011-0.491,13.634-0.954,19.013-4.375C463.882,91.456,469.119,79.158,470.697,69.586z"/>
	<path fill="#3A3A3A" d="M410.385,112.65c0.068-0.043,6.87-4.303,8.829-8.625l0.823,0.374
		C417.965,108.972,410.385,112.65,410.385,112.65z"/>
	<path fill="#3A3A3A" d="M468.179,66.616l0.003-0.973c3.444-0.072,6.376,1.015,6.376,1.015
		C474.528,66.656,471.597,66.545,468.179,66.616z"/>
	<path fill="#878787" d="M475.656,61.564c0,0-19.995-2.876-30.513,2.102c-10.516,4.979-19.244,11.379-24.165,24.116
		C432.908,65.916,457.694,60.915,475.656,61.564z"/>
	<path fill="#E07070" d="M306.259,199.98c0,0,24.724,17.487,56.382,0c30.819-17.024,17.79-52.462-20.804-61.808
		c-38.593-9.347-82.19-0.343-89.246,31.055C246.561,196.061,284.852,215.961,306.259,199.98z"/>
	<path fill="#F99B9B" d="M298.892,191.932c0,0,28.581,18.115,57.978,4.397c31.904-14.889,23.561-48.811-15.032-58.157
		c-38.593-9.347-82.19-0.343-89.246,31.055C248.628,189.492,277.485,207.912,298.892,191.932z"/>
	<path fill="#CC4040" d="M333.952,208.205c-15.214,0-25.867-6.489-27.68-7.672c-5.04,3.672-11.281,5.61-18.072,5.61h0
		c-11.53,0-23.49-5.633-30.467-14.354c-5.453-6.814-7.383-14.65-5.583-22.662c4.839-21.536,28.097-34.915,60.696-34.915
		c9.666,0,19.456,1.184,29.098,3.519c21.052,5.098,35.991,18.349,38.061,33.756c1.544,11.487-4.706,22.016-17.145,28.887
		C353.455,205.571,343.73,208.205,333.952,208.205z M306.251,199.421l0.268,0.189c0.109,0.077,11.079,7.689,27.433,7.689
		c9.623,0,19.201-2.596,28.469-7.715c12.096-6.682,18.177-16.878,16.687-27.975c-2.02-15.036-16.691-27.989-37.378-32.999
		c-9.571-2.318-19.29-3.494-28.884-3.494c-25.2,0-54.146,8.987-59.813,34.209c-2.196,9.771,1.728,17.301,5.406,21.898
		c6.812,8.513,18.494,14.014,29.761,14.014c6.712,0,12.863-1.943,17.789-5.621L306.251,199.421z"/>
	<path fill="#CC4040" d="M306.962,200.968c-14.359-11.101-16.695-24.757-16.695-24.757c0.03,0.13,3.16,13.15,17.248,24.042
		L306.962,200.968z"/>
	<path fill="#CC4040" d="M280.766,160.806c-2.529-2.486-5.261-3.743-8.112-3.688c-4.736,0.062-8.245,3.644-8.28,3.68
		c0,0,3.159-4.517,8.268-4.585l0.14,0C278.12,156.212,280.766,160.806,280.766,160.806z"/>
	<path fill="#CC4040" d="M323.291,173.8c0,0,0.016-7.404,6.752-12.387c6.324-4.393,13.337-3.646,13.337-3.646
		C325.147,159.227,323.358,173.206,323.291,173.8z"/>
	
		<ellipse transform="matrix(0.72 0.694 -0.694 0.72 216.3276 -185.691)" fill="#CE4A4A" cx="338.262" cy="175.216" rx="6.181" ry="11.464"/>
	<path fill="#E27676" d="M346.218,166.962c-0.176-0.17-0.374-0.313-0.581-0.441c-3.265,6.99-8.787,13.17-15.754,16.452
		c0.125,0.178,0.265,0.344,0.422,0.497c2.458,2.369,8.012,0.594,12.407-3.964C347.106,174.947,348.675,169.332,346.218,166.962z"/>
	<path fill="#BC3131" d="M333.246,184.971c-1.33,0-2.456-0.407-3.255-1.176c-2.677-2.581-1.142-8.372,3.496-13.183
		c3.063-3.178,6.814-5.152,9.79-5.152c1.332,0,2.456,0.407,3.255,1.176c2.677,2.582,1.142,8.372-3.495,13.183
		C339.974,182.998,336.222,184.971,333.246,184.971z M343.277,166.365c-2.738,0-6.24,1.868-9.139,4.875
		c-4.214,4.372-5.792,9.711-3.519,11.903c0.636,0.613,1.52,0.924,2.627,0.924c2.738,0,6.241-1.868,9.14-4.876
		c4.213-4.371,5.792-9.71,3.519-11.903C345.269,166.675,344.384,166.365,343.277,166.365z"/>
	
		<ellipse transform="matrix(0.9813 -0.1925 0.1925 0.9813 -28.519 55.5032)" fill="#CE4A4A" cx="271.413" cy="174.537" rx="5.737" ry="10.612"/>
	<path fill="#E27676" d="M267.728,164.979c-1.989,1.801-2.853,6.037-1.945,10.662c1.128,5.752,4.564,9.92,7.673,9.31
		c0.644-0.126,1.218-0.457,1.722-0.937C269.747,179.269,266.613,172.273,267.728,164.979z"/>
	<path fill="#BC3131" d="M272.844,185.463c-3.189,0-6.416-4.185-7.504-9.734c-1.195-6.088,0.538-11.381,3.943-12.05
		c0.229-0.044,0.464-0.067,0.699-0.067c3.189,0,6.416,4.184,7.505,9.734c1.195,6.088-0.537,11.38-3.943,12.049
		C273.314,185.44,273.079,185.463,272.844,185.463z M269.982,164.517c-0.176,0-0.351,0.017-0.525,0.051
		c-2.86,0.561-4.309,5.491-3.23,10.988c1.055,5.375,4.276,9.519,7.143,8.953c2.811-0.552,4.29-5.583,3.229-10.988
		C275.608,168.471,272.702,164.517,269.982,164.517z"/>
	<path fill="#A0A0A0" d="M393.523,53.961c0,0-7.516-20.562-34.2-23.728c-27.617-3.277-44.282,12.084-55.402,30.301
		c3.883,2.041,9.045,1.543,11.947,0c-8.103,10.628-5.389,22.612-4.484,26.457c2.487-2.261,6.558-6.136,11.533-8.834
		c0,1.598,1.13,13.616-0.905,16.2c3.166,0.323,13.116-9.178,16.282-19.465c0.678,2.602,2.939,7.351,4.748,8.934
		C349.035,61.862,368.422,46.273,393.523,53.961z"/>
	<path fill="#FFFFFF" d="M393.523,53.961c0,0-7.516-20.562-34.2-23.728c-27.617-3.277-44.282,12.084-55.402,30.301
		c3.883,2.041,13.865-3.013,16.766-4.556c-8.102,10.628-8.894,21.742-7.99,25.586c2.487-2.261,7.839-5.596,12.814-8.294
		c0,1.598,1.734,14.106-0.301,16.69c3.166,0.323,8.894-11.887,12.06-22.173c0.678,2.602,3.225,9.381,5.034,10.963
		C348.298,56.788,368.422,46.273,393.523,53.961z"/>
	<path fill="#3A3A3A" d="M322.175,94.817l-0.209-0.01l-0.818-0.083l0.509-0.646c1.584-2.011,1.076-10.923,0.885-14.279
		c-0.019-0.336-0.036-0.634-0.049-0.887c-4.26,2.433-7.813,5.682-10.203,7.866l-1.17,1.065l-0.176-0.748
		c-2.337-9.935-1.122-18.507,3.613-25.509c-1.421,0.484-3.072,0.751-4.734,0.751c-2.252,0-4.366-0.485-6.111-1.402l-0.427-0.225
		l0.251-0.411c12.716-20.833,28.575-30.961,48.482-30.961c2.385,0,4.861,0.15,7.359,0.446c26.652,3.162,34.494,23.813,34.571,24.021
		l0.312,0.854l-0.87-0.267c-4.265-1.306-8.497-1.968-12.578-1.968c-17.456,0-32.109,12.373-37.333,31.52l-0.19,0.697l-0.543-0.476
		c-1.641-1.436-3.521-5.167-4.466-7.813C334.804,85.884,325.847,94.817,322.175,94.817z M323.369,77.397v0.76
		c0,0.267,0.033,0.828,0.076,1.59c0.316,5.543,0.469,11.41-0.612,14.056c3.59-1.067,12.177-9.778,15.028-19.044l0.469-1.521
		l0.401,1.541c0.573,2.202,2.436,6.273,4.086,8.175c5.511-19.122,20.351-31.432,37.994-31.432c3.875,0,7.88,0.583,11.916,1.734
		c-1.798-3.906-10.49-19.847-33.458-22.572c-2.462-0.292-4.902-0.44-7.252-0.44c-19.431,0-34.957,9.848-47.452,30.107
		c1.529,0.709,3.335,1.083,5.256,1.083c2.157,0,4.284-0.473,5.833-1.297l1.825-0.971l-1.253,1.645
		c-5.213,6.838-6.75,15.356-4.575,25.325l0.026-0.024c2.541-2.323,6.38-5.832,11.021-8.35L323.369,77.397z"/>
</g>
</svg>
