<svg version="1.1" id="Layer_1" xmlns="http://www.w3.org/2000/svg" xmlns:xlink="http://www.w3.org/1999/xlink" viewBox="0 0 768 430" enable-background="new 0 0 768 430" xml:space="preserve">
<path fill-rule="evenodd" clip-rule="evenodd" fill="#C16246" d="M261.969,165.363c-5.962,17.516-11.137,28.686-12.02,45.184
	c-0.529,9.897,1.597,25.6,2.912,34.867c0.925,6.489,6.058,15.405,7.895,21.505c4.689,15.586,8.609,27.179,19.32,39.403
	c11.479,13.105,26.461,24.807,44.962,32.688c7.236,3.082,13.126,9.339,21.451,11.469c6,1.538,17.631,1.372,24.197,2.378
	c7.444,1.141,11.789-1.104,19.963-0.689c22.708,1.146,42.083-0.528,58.545-4.456c12.947-3.089,23.515-11.905,33.057-17.501
	c8.423-4.938,16.183-6.408,22.256-12.889c24.966-26.645,31.273-64.715,28.659-100.915c-0.836-11.539-1.528-18.743-3.206-28.151
	c-0.88-4.929,1.645-17.378,0.513-21.809c-1.983-7.766-9.909-19.08-12.721-25.567c-3.191-7.352-4.524-7.279-8.878-13.424
	c-9.972-14.064-14.229-25.084-36.316-32.207c-13.619-4.392-37.382-8.024-51.887-13.817c-16.394-6.544-32.75-3.801-48.39,0.156
	c-8.599,2.18-42.242,4.944-50.402,8.201c-14.826,5.915-18.894,15.376-29.712,27.209
	C280.653,129.599,267.898,144.716,261.969,165.363"/>
<path fill-rule="evenodd" clip-rule="evenodd" fill="#DD8151" d="M404.765,91.76c0,0-50.485-5.548-91.19,11.38
	c-9.393,3.902-13.635,10.452-21.247,17.098c-7.076,6.175-17.696,12.236-21.995,21.355c-12.677,26.873-17.96,60.932-12.81,93.662
	c1.247,7.915,7.749,15.48,10.267,23.738c2.519,8.258,1.054,17.21,4.896,25.582c10.449,22.748,27.908,41.653,50.956,54.033
	c69.422,37.296,164.64-8.054,186.584-35.926c4.361-5.539,3.355-18.449,6.962-29.409c2.425-7.364,9.794-11.624,11.548-20.521
	c3.586-18.218,5.492-38.885,4.565-58.848c-0.547-11.821-5.269-23.352-8.039-34.029c-3.917-15.117-7.498-28.397-17.354-37.982
	c-9.991-9.723-17.888-11.05-28.785-15.806c-6.151-2.68-15.33-10.206-21.277-11.713C429.102,87.081,404.765,91.76,404.765,91.76"/>
<path fill-rule="evenodd" clip-rule="evenodd" fill="#F2B06D" d="M340.843,102.834c0,0-29.076,8.039-51.455,26.41
	c-7.868,6.454-7.669,11.875-12.328,20.989c-3.5,6.853-13.139,16.432-14.634,24.033c-3.074,15.634-2.347,32.63,0.91,50.818
	c1.273,7.118,6.7,13.839,8.672,21.311c7.427,28.157,10.714,58.828,28.767,74.686c4.071,3.576,8.553,6.788,13.365,9.651
	c14.445,8.598,33.921,7.111,52.292,9.834c14.699,2.18,27.962,9.553,42.779,8.418c14.289-1.093,27.276-8.854,39.73-12.665
	c16.291-4.988,31.061-6.939,40.44-15.88c14.493-13.815,21.71-43.407,28.191-68.209c2.903-11.118,10.995-20.03,12.338-30.556
	c3.178-24.93-4.804-49.563-17.051-66.713c-6.334-8.864-5.98-17.618-12.902-24.987c-24.711-26.321-60.506-41.811-96.354-42.72
	C357.719,86.083,340.843,102.834,340.843,102.834"/>
<path fill-rule="evenodd" clip-rule="evenodd" fill="#F5BA70" d="M315.528,149.705c-8.363,13.689-30.472,21.028-33.3,43.344
	c-1.482,11.686,0.819,41.657,4.332,56.321c6.466,26.99,21.538,56.763,44.962,72.385c13.384,8.927,38.757,1.604,59.336,5.265
	c31.671,5.637,66.825,0.107,84.191-13.844c14.384-11.562,13.178-29.83,18.95-48.736c6.574-21.511,16.822-47.42,16.37-70.547
	c-0.424-21.727-11.177-40.873-16.625-55.727c-7.822-21.322-42.439-32.93-68.457-32.378
	C425.097,105.794,325.945,132.661,315.528,149.705"/>
<path fill-rule="evenodd" clip-rule="evenodd" fill="#F6C175" d="M481.147,135.341c-1.738-11.509-22.319-20.782-34.026-18.458
	c-11.705,2.324-51.837,42.422-77.897,54.298c-26.066,11.872-67.414,69.303-62.094,93.795c5.318,24.492,52.247,16.247,75.992,15.091
	c23.748-1.158,49.206,42.789,75.684,21.688c26.473-21.1,49.42-81.927,33.783-105.672
	C476.947,172.339,481.147,135.341,481.147,135.341"/>
<path fill-rule="evenodd" clip-rule="evenodd" fill="#EBAE66" d="M380.371,289.187c0,0,11.581-6.369,15.637-4.341
	c4.056,2.027,4.056,6.949,1.159,14.188c-2.896,7.24,0.074,16.297-6.949,22.589c-7.024,6.292-12.965,9.903-16.798,5.874
	c-3.831-4.024-18.149-13.664-13.803-24.002S380.371,289.187,380.371,289.187 M457.255,287.017c0,0,10.429,1.015,11.152,5.646
	c0.725,4.633-0.936,12.962-4.779,13.031c-3.843,0.068-7.339,1.3-10.62-4.707s-1.088-13.866,0.363-14.301
	C454.82,286.251,457.255,287.017,457.255,287.017z M402.714,226.337c0,0-6.032,2.485-8.633,5.063
	c-2.596,2.579-1.078,9.496,1.895,12.627c2.972,3.13,6.955,2.983,11.957,0.729c4.997-2.261,6.81-5.533,6.375-9.465
	c-0.436-3.934-3.188-4.587-5.002-7.133C407.496,225.607,402.714,226.337,402.714,226.337z M420.912,157.69
	c0,0-14.131-2.042-16.159,0.654c-2.027,2.69-7.463,0.438-7.463,5.967c0,5.536,3.332,12.596,9.348,14.271
	c6.014,1.672,18.113,5.458,22.604,1.528c4.494-3.932,7.55-10.59,3.305-15.525C428.303,159.653,420.912,157.69,420.912,157.69z
	 M405.639,109.348c0.354,1.189-6.952,1.879-7.677,5.646c-0.724,3.764,3.769,7.964,15.641,9.99
	c11.873,2.026,12.164-7.964,6.369-10.713C414.182,111.521,405.639,109.348,405.639,109.348z M333.855,134.18
	c0,0,5.145,10.041,10.941,10.987c5.797,0.949,12.101-4.368,12.68-7.715c0.579-3.35-7.969-13.323-16.518-12.667
	C332.408,125.438,333.855,134.18,333.855,134.18z M295.274,161.911c0,0,8.841-1.604,10.363,0.798
	c1.522,2.404,4.563,3.059,1.45,8.738c-3.116,5.677-8.189,14.416-14.637,13.176c-6.448-1.237-7.103-6.989-3.983-11.138
	C291.579,169.334,295.274,161.911,295.274,161.911z M488.968,141.786c0,0-17.231-3.908-19.257,0.58
	c-2.027,4.487,7.385,25.338,17.518,30.405c10.138,5.07,13.756-4.197,13.611-9.119C500.696,158.729,488.968,141.786,488.968,141.786z
	 M340.843,197.822c0,0-2.465-5.213-5.648-4.631c-3.186,0.576-13.32,4.196-18.966,6.946c-5.65,2.753-7.676,7.241-6.95,13.178
	c0.721,5.938,0.606,18.339,4.92,18.969c4.317,0.631,5.215,10.135,14.337,9.123c9.122-1.015,12.451,0.145,18.243-5.067
	c5.793-5.214,2.751-9.27-0.869-19.404C342.289,206.801,340.843,197.822,340.843,197.822z M450.107,210.829c0,0-6.88,6.772-7.1,13.98
	c-0.215,7.207-5.625,17.95-0.954,19.782c4.671,1.827,6.806,8.543,15.349,2.752c8.544-5.793,22.298-20.851,18.533-28.962
	c-3.765-8.108-12.16-11.518-16.65-10.714C454.791,208.473,450.107,210.829,450.107,210.829z M500.552,236.048
	c0,0-9.703,1.015-11.149,3.477c-1.45,2.461-6.004,8.937-0.612,12.794s17.441,4.868,20.248-3.53
	C511.845,240.392,500.552,236.048,500.552,236.048z M303.752,264.118c0,0-8.405,3.495-9.563,6.043
	c-1.159,2.549-3.188,8.372-0.724,10.921c2.465,2.549,8.549,7.643,13.188,5.385c4.638-2.254,5.956-8.113,6.961-14.394
	C314.622,265.793,303.752,264.118,303.752,264.118z"/>
<path fill-rule="evenodd" clip-rule="evenodd" fill="#86523D" d="M336.788,196.955c0,0-25.195,0.576-26.062,14.77
	c-0.871,14.19,10.134,26.641,17.375,26.35c7.24-0.288,17.662-3.185,17.955-10.135C346.346,220.987,336.788,196.955,336.788,196.955"
	/>
<path fill-rule="evenodd" clip-rule="evenodd" fill="#86523D" d="M448.427,210.157c5.066-4.052,24.183-1.029,26.06,11.48
	c1.87,12.512-27.144,31.216-29.29,23.051C443.047,236.522,448.427,210.157,448.427,210.157"/>
<path fill-rule="evenodd" clip-rule="evenodd" fill="#86523D" d="M397.603,290.49c0,0-34.173-2.318-38.226,11.005
	c-4.055,13.321,17.374,27.221,26.642,20.851C395.284,315.975,397.603,290.49,397.603,290.49"/>
<path fill-rule="evenodd" clip-rule="evenodd" fill="#86523D" d="M453.49,288.172c0,0,15.349,3.188,14.193,8.399
	c-1.161,5.215-4.926,9.271-11.005,9.847C450.595,306.997,453.49,288.172,453.49,288.172"/>
<path fill-rule="evenodd" clip-rule="evenodd" fill="#86523D" d="M314.489,274.273c0,0-1.438,6.871-7.24,10.138
	c-5.803,3.264-15.929-4.344-15.929-7.82s13.323-12.451,16.796-11.584C311.593,265.875,314.489,274.273,314.489,274.273"/>
<path fill-rule="evenodd" clip-rule="evenodd" fill="#86523D" d="M495.74,235.811c0,0-13.902,14.19-6.95,16.508
	c6.95,2.317,20.851,2.317,20.56-2.317C509.062,245.368,495.74,235.811,495.74,235.811"/>
<path fill-rule="evenodd" clip-rule="evenodd" fill="#86523D" d="M393.547,231.704c0,0,7.241-4.344,12.451-3.186
	c5.214,1.159,9.559,9.847,6.083,12.161c-3.474,2.317-11.872,6.082-14.479,4.635C394.993,243.867,393.547,231.704,393.547,231.704"/>
<path fill-rule="evenodd" clip-rule="evenodd" fill="#86523D" d="M306.961,167.561c0,0-7.559-11.839-16.22-5.214
	c-8.66,6.631-10.278,14.772-2.896,17.666c7.384,2.897,8.111,2.173,10.137,0.288C300.009,178.421,306.961,167.561,306.961,167.561"/>
<path fill-rule="evenodd" clip-rule="evenodd" fill="#6A4338" d="M361.178,312.431c5.256,8.612,18.185,14.489,24.84,9.915
	c9.266-6.371,11.584-31.855,11.584-31.855s-8.255,20.994-19.404,25.921C372.72,318.83,366.296,315.966,361.178,312.431
	 M314.079,275.688c-0.754,2.186-2.669,6.382-6.83,8.724c-5.803,3.264-15.929-4.344-15.929-7.82c0-0.516,0.295-1.149,0.802-1.855
	c3.071,3.702,7.598,7.971,11.797,7.358C307.78,281.529,311.47,278.446,314.079,275.688z M413.278,237.21
	c0.189,1.482-0.144,2.771-1.197,3.47c-3.474,2.317-11.872,6.082-14.479,4.635c-1.702-0.945-2.912-6.463-3.546-10.176
	c2.702,2.924,5.901,5.448,9.048,5.688C406.529,241.085,410.22,239.296,413.278,237.21z M473.958,226.244
	c-4.047,11.923-26.867,25.65-28.762,18.443c-1.743-6.625,1.468-25.219,2.741-32.006c-0.114,0.717-3.704,23.667,5.988,24.234
	C459.779,237.261,468.138,231.209,473.958,226.244z M319.79,234.172c2.787,2.545,5.777,4.004,8.311,3.902
	c7.24-0.288,17.662-3.185,17.955-10.135c0.291-6.952-9.268-30.985-9.268-30.985s5.501,23.021,2.027,29.248
	C336.469,230.404,326.215,232.956,319.79,234.172z M471.137,144.894c0,0,18.659-10.264,24.257-1.399
	c5.599,8.861,11.194,24.258,3.732,27.524c-7.464,3.263-20.062-8.867-24.024-13.764C471.137,152.356,471.137,144.894,471.137,144.894
	z M401.602,120.569c0,0-4.056-13.754,9.845-12.452c13.899,1.302,10.57,13.61,4.924,15.781
	C410.724,126.072,401.602,120.569,401.602,120.569z M334.034,134.689c0,0,1.451-10.569,8.112-10.857
	c6.657-0.291,12.74,5.502,13.463,9.555c0.726,4.056-2.315,8.687-5.792,10.569C346.346,145.839,334.034,134.689,334.034,134.689z
	 M306.961,167.561c0,0-1.156-1.807-3.077-3.614c-1.33,3.863-3.425,7.985-6.625,9.984c-3.587,2.24-9.252,2.173-13.899,1.576
	c0.508,1.93,1.979,3.521,4.485,4.506c7.384,2.897,8.111,2.173,10.137,0.288C300.009,178.421,306.961,167.561,306.961,167.561z
	 M433.764,165.24c0,0-28.672-16.219-31.566-0.291c-2.896,15.928,20.705,14.917,24.47,13.613
	C430.435,177.256,433.764,165.24,433.764,165.24z M488.163,245.639c-1.612,3.008-2.114,5.768,0.627,6.68
	c6.95,2.317,20.851,2.317,20.56-2.317c-0.074-1.198-1.021-2.724-2.381-4.326c-1.491,2.339-3.508,4.419-6.084,4.83
	C496.127,251.268,490.64,247.562,488.163,245.639z M467.071,298.609c-1.605,4.205-5.13,7.307-10.393,7.809
	c-3.89,0.372-4.106-7.195-3.759-12.699c1.013,3.826,2.838,8.037,5.885,8.037C461.632,301.756,464.729,300.162,467.071,298.609z"/>
<path fill-rule="evenodd" clip-rule="evenodd" fill="#86523D" d="M334.034,134.689c0,0,1.451-10.569,8.112-10.857
	c5.214-0.225,10.071,3.271,12.283,6.748c-1.296,2.464-3.539,5.838-6.19,6.067C344.037,137.014,334.034,134.689,334.034,134.689"/>
<path fill-rule="evenodd" clip-rule="evenodd" fill="#86523D" d="M401.195,118.534c-0.504-3.777-0.264-11.401,10.251-10.417
	c6.752,0.633,9.436,3.86,9.769,7.264c-1.267,2.287-2.701,4.292-4.073,4.887C414.467,121.434,405.812,119.63,401.195,118.534"/>
<path fill-rule="evenodd" clip-rule="evenodd" fill="#86523D" d="M479.434,141.384c5.73-1.837,12.854-2.81,15.96,2.111
	c3.388,5.364,6.772,13.115,7.269,19.127c-8.261-0.192-20.477-1.06-21.803-4.475C479.604,154.919,479.403,146.968,479.434,141.384"/>
<path fill-rule="evenodd" clip-rule="evenodd" fill="#F8DA99" d="M475.43,166.606c0,0,6.225,9.846,15.06,10.137
	c8.831,0.291,12.161-4.344,12.161-4.344s-3.621,7.529-11.438,7.096C483.393,179.061,475.43,166.606,475.43,166.606 M428.11,117.465
	c0,0-2.75,8.255-8.687,9.414c-5.938,1.155-10.427-0.727-10.427-0.727s7.676,5.358,14.914,2.606
	C431.151,126.008,428.11,117.465,428.11,117.465z M340.486,146.841c0,0,6.16,1.165,9.131,0.655c2.968-0.511,7.316-2.474,9.708-4.731
	c2.389-2.257,3.767-9.684,3.767-9.684s0.508,10.047-3.044,13.322c-3.55,3.278-7.97,5.025-10.359,4.878
	C347.298,151.134,340.486,146.841,340.486,146.841z M308.408,176.827c0,0-8.132,7.358-11.539,8.745
	c-3.404,1.381-7.244-0.729-7.244-0.729s3.695,4.733,10.072,2.257C306.072,184.624,308.408,176.827,308.408,176.827z
	 M394.562,159.597c0,0-2.318,10.857,0.723,14.769c3.042,3.908,6.95,6.517,11.585,9.699c4.631,3.188,14.769,1.159,14.769,1.159
	s-11.296,2.752-18.681-0.721c-7.385-3.476-11.581-6.229-12.451-11.151C389.639,168.431,394.562,159.597,394.562,159.597z
	 M304.932,224.464c0,0,2.317,6.806,6.661,9.846c4.344,3.041,3.185,8.399,12.887,10.426c9.701,2.026,11.873,0.579,18.534-1.882
	c6.66-2.462,11.729-11.584,11.729-11.584s-6.95,16.507-18.39,16.507c-11.438,0-15.637,1.594-21.287-5.067
	c-1.918-2.263-4.427-4.806-5.949-7.562C306.165,229.801,304.932,224.464,304.932,224.464z M437.422,246.618
	c0,0,3.762,0.435,5.645,4.778c1.884,4.344,8.689,5.355,14.188,3.041c5.503-2.317,10.429-12.743,15.204-15.061
	c4.78-2.314,6.083-10.422,6.083-10.422s0,7.696-4.02,11.214c-4.018,3.519-7.853,12.818-13.936,17.742
	c-6.081,4.925-14.479,1.882-17.953-3.618C439.157,248.791,437.422,246.618,437.422,246.618z M464.601,286.758
	c0,0,4.854,0.874,5.577,7.064c0.728,6.186-2.173,11.064-2.173,11.064s5.725-6.406,4.711-11.938
	C471.7,287.415,464.601,286.758,464.601,286.758z M316.102,273.514c0,0-1.158,7.964-4.344,12.161
	c-3.185,4.2-7.093,3.768-7.093,3.768s5.067,2.604,9.412-2.318C318.419,282.202,316.102,273.514,316.102,273.514z M406.434,287.161
	c0,0-7.964,6.661-6.37,13.901c1.592,7.236-3.331,20.125-3.331,20.125s7.819-8.688,6.516-16.652
	C401.946,296.571,406.434,287.161,406.434,287.161z M390.941,239.233c0,0,1.411,8.36,6.34,9.524c4.927,1.164,8.621,0,8.621,0
	s-5.58,3.713-10.723,1.021C390.034,247.083,390.941,239.233,390.941,239.233z"/>
<path fill-rule="evenodd" clip-rule="evenodd" fill="#86523D" d="M433.304,164.988c-3.683-1.993-28.427-14.775-31.106-0.039
	c-0.093,0.501-0.155,0.984-0.197,1.453c6.938,3.911,16.216,8.531,20.07,7.672C425.589,173.294,429.995,168.881,433.304,164.988"/>
<path fill-rule="evenodd" clip-rule="evenodd" fill="#F8DA99" d="M362.079,308.381c0,0-1.81-7.718,2.608-10.63
	c4.419-2.911,7.898-3.784,7.898-3.784s-5.361,2.548-7.754,6.334C362.441,304.085,362.079,308.381,362.079,308.381 M299.186,270.197
	c0,0,5.521-4.953,8.696-3.857c3.176,1.093,3.875,4.224,3.875,4.224s-2.029-2.84-5.614-2.44
	C302.557,268.522,299.186,270.197,299.186,270.197z M397.857,231.726c0,0,3.674-1.997,7.61-1.675
	c3.935,0.317,4.925,4.874,4.925,4.874s-1.336-2.854-5.324-3.638C401.082,230.504,397.857,231.726,397.857,231.726z M456.34,209.959
	c15.646,1.744,18.022,13.28,15.001,15.36C472.565,218.315,460.843,210.862,456.34,209.959z M482.894,142.585
	c0,0,5.923-1.999,9.457-0.147c3.536,1.852,5.434,9.609,5.434,9.609s-2.86-6.007-6.302-7.901
	C488.039,142.255,482.894,142.585,482.894,142.585z M402.651,114.154c0,0,0.763-3.966,5.473-5.202c4.709-1.24,7.823,1.38,7.823,1.38
	s-4.168-0.945-8.079,0.618C403.957,112.518,402.651,114.154,402.651,114.154z M337.409,127.987c0,0,1.918-3.527,5.362-3.569
	c3.443-0.039,4.463,1.6,4.463,1.6s-2.708-1-5.262-0.252C339.42,126.513,337.409,127.987,337.409,127.987z M299.985,162.202
	c0,0-3.224-1.528-6.74-0.072c-3.512,1.456-6.156,5.021-6.156,5.021s3.902-3.284,7.604-4.101
	C298.391,162.238,299.985,162.202,299.985,162.202z M403.993,163.877c0,0,2.282-4.878,7.28-4.95c5.001-0.075,8.552,2.33,8.552,2.33
	s-4.962-1.603-9.456-0.33C405.875,162.202,403.993,163.877,403.993,163.877z M323.026,200.857c0,0-8.476,3.277-9.854,8.882
	c-1.378,5.605,1.378,11.938,1.378,11.938s-0.892-6.652,1.521-12.523C318.482,203.289,323.026,200.857,323.026,200.857z
	 M491.719,242.679c0,0,2.141-4.076,4.821-3.894c2.679,0.181,4.819,3.566,4.819,3.566s-3.044-2.729-5.328-2.183
	C493.749,240.716,491.719,242.679,491.719,242.679z M460.833,291.31c0,0,4.603,1.782,5.398,3.53
	c0.795,1.747-0.256,3.095-0.256,3.095s0.474-1.675-1.918-3.785C461.665,292.038,460.833,291.31,460.833,291.31z"/>
</svg>
