<svg version="1.1" id="Layer_1" xmlns="http://www.w3.org/2000/svg" xmlns:xlink="http://www.w3.org/1999/xlink" viewBox="0 0 768 430" enable-background="new 0 0 768 430" xml:space="preserve">
<g>
	<path fill="#D1A393" d="M483.305,366.147c0,11.318-52.058,20.499-116.267,20.499c-64.215,0-116.275-9.181-116.275-20.499
		c0-11.323,52.06-20.5,116.275-20.5C431.247,345.647,483.305,354.824,483.305,366.147z"/>
	<path fill="#DDB5A4" d="M495.157,356.417c0,12.471-57.364,22.589-128.12,22.589c-70.763,0-128.119-10.118-128.119-22.589
		c0-12.48,57.356-22.588,128.119-22.588C437.793,333.829,495.157,343.937,495.157,356.417z"/>
	<path fill="#DDB5A4" d="M189.387,306.507h353.296c-0.573,1.8-1.461,4.35-2.762,7.319c-6.044,13.771-14.731,22.148-21.178,28.245
		c-12.021,11.363-24.748,18.874-35.439,23.811c-77.514,0-155.026,0-232.542,0c-6.704-3.024-27.15-12.747-42.819-28.526
		c-5.51-5.548-13.396-13.668-17.423-26.621C189.978,308.995,189.616,307.524,189.387,306.507z"/>
	<path fill="#D1A393" d="M264.798,370.173c0.635,0.17,1.589,0.419,2.814,0.655c1.3,0.246,2.399,0.39,3.206,0.472
		c-13.8-7.062-23.038-15.481-28.536-21.327c-3.499-3.719-9.01-9.657-13.937-18.987c-4.896-9.27-7.055-17.767-8.082-23.631
		c-10.296-0.285-20.593-0.562-30.889-0.848c0.113,0.513,0.261,1.133,0.447,1.85c0,0,0.31,1.188,0.685,2.387
		c2.224,7.169,6.28,13.619,6.28,13.619c3.368,5.368,7.115,9.246,11.144,13.001c15.152,14.134,32.454,24.915,42.57,28.556
		C254.787,367.458,263.976,369.947,264.798,370.173z"/>
	<path fill="#EFD3C7" d="M542.684,306.507c0,17.196-79.089,31.142-176.648,31.142c-97.56,0-176.648-13.945-176.648-31.142
		c0-17.204,79.088-31.146,176.648-31.146C463.595,275.36,542.684,289.303,542.684,306.507z"/>
	<ellipse fill="#D1A393" cx="366.036" cy="315.337" rx="118.308" ry="20.858"/>
	<g>
		<path fill="#EACAB9" d="M365.906,117.456H221.544c-0.351,33.785,4.912,60.948,9.831,79.447
			c5.189,19.517,10.411,39.154,24.777,60.866c17.648,26.687,39.642,42.204,53.46,50.367c18.766,0,37.525,0,56.294,0h56.284
			c13.669-7.928,35.159-22.919,52.118-48.75c13.266-20.205,18.026-38.322,24.238-61.946c4.993-18.983,10.482-46.221,11.713-79.985
			H365.906z"/>
		<path fill="#EACAB9" d="M504.875,156.239c2.644-0.526,21.257-3.907,34.34,8.076c13.103,12.003,10.854,30.445,9.692,39.927
			c-3.116,25.57-21.395,44.901-34.338,48.883c-7.93,2.444-16.158,2.225-16.158,2.225c-3.906-0.105-7.177-0.656-9.567-1.189
			c-0.917,0.388-1.495,1.156-1.446,1.897c0.05,0.738,0.695,1.214,0.913,1.369c0.851,0.627,1.804,0.582,2.356,0.611
			c2.237,0.105,4.059,1.624,4.562,2.125c2.176,2.167,1.263,6.79-0.072,9.507c-1.752,3.56-4.843,5.132-5.706,5.556
			c-4.913,2.403-9.788,0.839-11.71,0.229c-1.45-0.465-6.276-2.013-9.352-6.696c-3.238-4.925-2.505-10.223-1.894-14.622
			c0.512-3.703,1.412-10.175,6.866-15.485c1.206-1.173,6.326-6.159,13.2-6.167c4.301,0,5.58,1.947,11.634,2.281
			c0,0,4.373,0.244,8.902-0.83c11.214-2.664,21.981-17.768,23.33-33.733c0.505-5.999,1.247-14.707-4.546-20.202
			c-6.305-5.97-18.254-5.97-29.696,0.407C499.082,172.352,501.98,164.295,504.875,156.239z"/>
	</g>
	<path fill="#DDB5A4" d="M423.358,315.056c0,5.12-25.217,9.275-56.321,9.275c-31.11,0-56.33-4.155-56.33-9.275
		c0-5.119,25.219-9.274,56.33-9.274C398.142,305.781,423.358,309.937,423.358,315.056z"/>
	<rect x="310.708" y="305.781" fill="#DDB5A4" width="112.65" height="9.246"/>
	<path fill="#EACAB9" d="M424.271,305.781c0,5.165-25.421,9.353-56.777,9.353c-31.362,0-56.786-4.188-56.786-9.353
		c0-5.164,25.424-9.352,56.786-9.352C398.851,296.43,424.271,300.617,424.271,305.781z"/>
	<path fill="#DDB5A4" d="M315.531,310.119c0.766,0.085,1.563,0.204,2.404,0.362c1.475,0.273,2.817,0.628,4.011,1.002
		c-6.683-5.596-14.98-13.347-23.439-23.528c-1.768-2.131-8.162-9.877-14.206-19.587c-18.524-29.75-23.135-57.462-25.456-72.315
		c-1.564-10.032-3.414-26.715-2.021-47.268c0.88-12.919,2.802-23.835,4.648-32.115c-13.311,0.167-26.621,0.33-39.932,0.493
		c-0.526,33.952,4.721,61.217,9.608,79.676c5.111,19.302,10.341,39.044,24.781,60.866c17.667,26.719,39.677,42.245,53.438,50.378
		c0.854,0.47,1.929,0.971,3.217,1.374C313.673,309.806,314.674,310.002,315.531,310.119z"/>
	<g>
		<path fill="#EFD3C7" d="M510.263,117.456c0,14.052-64.634,25.448-144.357,25.448c-79.733,0-144.362-11.396-144.362-25.448
			c0-14.06,64.628-25.456,144.362-25.456C445.629,92,510.263,103.396,510.263,117.456z"/>
		<ellipse fill="#DDB5A4" cx="363.41" cy="116.308" rx="126.382" ry="20.267"/>
	</g>
	<g>
		<path fill="#DDB5A4" d="M488.001,232.566l-19.958,35.639c0.337,0.577,0.782,1.237,1.352,1.926
			c0.538,0.645,1.071,1.169,1.557,1.592c2.005-5.326,4.31-10.911,6.956-16.69c3.74-8.149,7.649-15.558,11.52-22.214
			c-0.176-0.057-0.367-0.109-0.583-0.154C488.534,232.604,488.248,232.574,488.001,232.566z"/>
		<path fill="#DDB5A4" d="M473.977,263.74c-0.133,0.945-0.189,2.396,0.421,3.919c1.652,4.13,6.769,5.164,8.133,5.438
			c6.37,1.282,11.567-2.6,12.627-3.426c-0.351,0.724-0.918,1.727-1.825,2.74c-3.193,3.565-7.641,4.021-8.821,4.143
			c-4.344,0.448-7.638-1.156-9.543-2.089c-1.605-0.782-2.815-1.707-2.97-1.824c-1.153-0.893-2.008-1.796-2.604-2.51
			C470.923,268.001,472.45,265.875,473.977,263.74z"/>
		<path fill="#DDB5A4" d="M503.218,177.312c3.73-1.295,6.899-1.491,8.926-1.458c2.88,0.045,8.123,0.126,12.628,3.837
			c0.586,0.485,3.062,2.59,4.646,6.264c1.226,2.843,1.275,5.127,1.312,9.086c0.073,7.89-1.779,13.649-2.321,15.254
			c-0.99,2.911-2.119,5.229-2.986,6.83c2.016-2.799,4.042-6.285,5.607-10.467c2.64-7.035,2.783-12.834,2.795-14.374
			c0.037-4.048,0.069-7.478-1.746-11.449c-2.661-5.812-7.396-8.679-8.888-9.56c-8.171-4.802-16.655-2.798-18.586-2.289
			C504.142,171.765,503.682,174.539,503.218,177.312z"/>
	</g>
	<path fill="#7F4C30" d="M253.716,126.368c0,0,116.088-22.626,214.327,1.311c-1.836,0.457-4.525,1.096-7.79,1.768
		c-4.562,0.938-10.539,1.996-23.425,3.421c-5.182,0.575-10.757,1.186-19.087,1.826c-7.873,0.606-19.008,1.299-35.267,1.653
		c-10.053,0.216-26.634,0.55-48.863-0.261c0,0-33.599-1.222-56.989-4.871c-8.648-1.353-16.566-3.234-16.566-3.234
		C257.442,127.362,255.268,126.787,253.716,126.368z"/>
	<path fill="#D1A393" d="M235.415,342.3c-1.906-2.183-3.845-5.014-2.964-7.005c1.84-4.162,14.867-2.045,21.815-1.075
		c12.805,1.774,31.157,3.258,55.261,1.841c-17.994-0.978-37.447-2.884-58.088-6.15c-11.054-1.752-21.636-3.764-31.712-5.947
		C224.956,330.073,230.186,336.183,235.415,342.3z"/>
	<path fill="#EFD3C7" d="M383.117,142.705c9.801-0.2,19.958-0.615,30.453-1.292c13.608-0.872,26.618-2.109,38.983-3.601
		c1.124,22.06,1.144,58.626-8.277,98.236c-2.81,11.812-10.5,38.371-28.819,68.408c-1.841,3.023-3.441,5.503-4.574,7.223
		c-7.735,1.197-16.19,2.175-25.289,2.745c-7.917,0.492-15.38,0.623-22.32,0.505c1.956-3.494,4.672-8.639,7.479-15.054
		c6.329-14.472,12.391-33.773,14.948-69.888C387.207,208.675,387.688,178.828,383.117,142.705z"/>
</g>
</svg>
