<svg version="1.1" id="Layer_1" xmlns="http://www.w3.org/2000/svg" xmlns:xlink="http://www.w3.org/1999/xlink" viewBox="0 0 768 430" enable-background="new 0 0 768 430" xml:space="preserve">
<g>
	<g>
		<g>
			<defs>
				<polygon id="SVGID_1_" points="647,294.12 177.504,288.16 217.724,114.832 647,109.794 				"/>
			</defs>
			<clipPath id="SVGID_2_">
				<use xlink:href="#SVGID_1_"  overflow="visible"/>
			</clipPath>
			<g clip-path="url(#SVGID_2_)">
				<g>
					<g>
						<g>
							<path fill="#68AC47" d="M638.727,188.241c-0.243,4.331-0.971,8.626-2.221,12.781c-11.695,38.876-47.305,52.693-89.729,62.832
								c-3.3,0.789-7.579,1.503-12.146,2.12c-33.549,4.532-67.382,6.633-101.232,6.154c-55.308-0.784-110.613-1.555-165.919-2.342
								c-35.859-0.511-71.496-5.88-105.865-16.119c-3.348-0.998-6.43-1.964-9.1-2.871c-22.545-7.657-42.718-21.136-58.378-39.073
								c-1.025-1.174-2.032-2.646-3.003-4.301c-14.657-24.977-8.646-57.208,14.124-75.104c12.009-9.438,27.475-14.598,44.019-13.273
								c135.553,10.861,271.991,9.486,407.595-4.582C600.64,109.923,638.727,144.235,638.727,188.241L638.727,188.241z"/>
						</g>
					</g>
					<path fill="#81BF50" d="M546.521,126.559c-1.957,0-3.945,0.104-5.911,0.308c-75.922,7.876-153.334,11.87-230.09,11.87
						c-59.956,0-120.793-2.439-180.823-7.249c-1.224-0.099-2.46-0.148-3.678-0.148c-10.121,0-19.696,3.321-27.688,9.603
						c-1.408,1.106-2.72,2.293-3.939,3.55c0.752,4.852,2.404,9.626,5.009,14.066c0.659,1.122,1.024,1.553,1.025,1.554
						c13.525,15.491,31.005,27.189,50.549,33.828c2.335,0.793,5.177,1.688,8.446,2.663c32.585,9.707,66.548,14.877,100.946,15.367
						c30.808,0.438,61.615,0.872,92.422,1.305c24.5,0.344,48.998,0.688,73.496,1.035c3.055,0.043,6.153,0.066,9.207,0.066
						c29.541,0,59.6-2.038,89.343-6.056c5.482-0.742,8.659-1.381,10.357-1.787c16.993-4.062,36.36-9.433,51.144-18.473
						c0.063-0.039,0.128-0.078,0.19-0.116c11.287-6.946,15.13-21.681,8.536-33.176C585.4,137.925,567.261,126.559,546.521,126.559z"
						/>
					<path fill="#68AC47" d="M441.354,194.491c-3.701,0.146-7.46,0.263-11.17,0.348c-28.308,0.645-56.619,0.724-84.913,0.236
						c-2.621-0.045-5.241-0.096-7.861-0.151c-38.869-0.816-77.704-2.704-116.458-5.667c-40.342-3.08-79.795-11.555-116.577-24.643
						c-3.598-1.279-6.659-2.42-9.099-3.382c-0.105-0.042-0.21-0.083-0.315-0.125c-6.335-2.524-3.534-10.96,3.193-9.798
						c61.506,10.604,124.162,17.021,186.193,18.938c96.807,3.045,194.727-4.869,288.6-23.775c1.344-0.271,2.703-0.485,4.043-0.637
						c13.093-1.492,26.015,2.815,34.126,11.433c-13.675,9.204-34.029,16.335-52.28,21.806c-0.719,0.215-3.539,1.026-9.725,2.303
						C513.573,188.704,477.201,193.079,441.354,194.491z"/>
					<path fill="#579739" d="M546.776,222.987c-3.3,0.789-7.579,1.503-12.146,2.12c-33.549,4.531-67.382,6.632-101.232,6.152
						c-55.308-0.783-110.613-1.553-165.919-2.34c-35.859-0.51-71.496-5.881-105.865-16.121c-3.348-0.997-6.43-1.964-9.1-2.871
						c-22.545-7.657-42.718-21.135-58.378-39.072c-1.025-1.175-2.032-2.646-3.003-4.301c-1.709-2.912-3.134-5.924-4.287-9
						c-5.951,15.962-4.837,34.319,4.287,49.867c0.971,1.655,1.979,3.127,3.003,4.301c15.66,17.937,35.833,31.416,58.378,39.073
						c2.67,0.907,5.752,1.873,9.1,2.871c34.369,10.239,70.006,15.608,105.865,16.119c55.306,0.787,110.611,1.558,165.919,2.342
						c33.851,0.479,67.684-1.622,101.232-6.154c4.566-0.617,8.846-1.331,12.146-2.12c42.425-10.139,78.034-23.955,89.729-62.832
						c1.25-4.154,1.978-8.45,2.221-12.781c-3.549-36.948-18.447-48.548-22.559-53.264
						C629.646,193.127,587.47,213.262,546.776,222.987z"/>
					<path fill="#437E00" d="M626.059,146.769c1.468,5.374,2.359,11.003,2.58,16.832c-0.078,4.338-0.643,8.658-1.734,12.857
						c-10.209,39.293-45.265,54.452-87.273,66.197c-3.27,0.913-7.518,1.789-12.056,2.58c-33.354,5.804-67.083,9.188-100.928,9.996
						c-55.295,1.319-110.592,2.653-165.888,3.969c-35.853,0.854-71.667-3.158-106.401-12.082c-3.384-0.872-6.499-1.719-9.202-2.524
						c-9.631-2.867-18.877-6.792-27.577-11.666c10.674,7.587,22.439,13.623,34.935,17.868c2.67,0.907,5.752,1.873,9.1,2.871
						c34.369,10.239,70.006,15.608,105.865,16.119c55.306,0.787,110.611,1.558,165.919,2.342
						c33.851,0.479,67.684-1.622,101.232-6.154c4.566-0.617,8.846-1.331,12.146-2.12c42.425-10.139,78.034-23.955,89.729-62.832
						c1.25-4.154,1.978-8.45,2.221-12.781C638.727,172.804,634.035,158.562,626.059,146.769z"/>
					<ellipse fill="#579739" cx="388.939" cy="231.381" rx="9.128" ry="5.629"/>
					<ellipse fill="#579739" cx="325.416" cy="231.381" rx="9.129" ry="5.629"/>
					<ellipse fill="#579739" cx="263.88" cy="229.001" rx="9.129" ry="5.628"/>
					<ellipse fill="#579739" cx="462.647" cy="231.381" rx="9.129" ry="5.629"/>
					
						<ellipse transform="matrix(0.9588 -0.284 0.284 0.9588 -41.1319 163.0966)" fill="#579739" cx="541.795" cy="223.372" rx="9.128" ry="5.627"/>
					<ellipse fill="#68AC47" cx="337.525" cy="138" rx="9.129" ry="5.628"/>
					<ellipse fill="#68AC47" cx="275.989" cy="138" rx="9.129" ry="5.628"/>
					<ellipse fill="#68AC47" cx="216.502" cy="136.408" rx="9.129" ry="5.629"/>
					<ellipse fill="#68AC47" cx="151.213" cy="132.372" rx="9.129" ry="5.629"/>
					<ellipse fill="#68AC47" cx="420.456" cy="136.408" rx="9.128" ry="5.629"/>
					<ellipse fill="#68AC47" cx="495.015" cy="132.372" rx="9.129" ry="5.629"/>
					<ellipse fill="#68AC47" cx="555.827" cy="128.467" rx="9.129" ry="5.629"/>
					
						<ellipse transform="matrix(0.9785 0.206 -0.206 0.9785 49.8345 -35.343)" fill="#579739" cx="194.618" cy="221.611" rx="9.129" ry="5.629"/>
					
						<ellipse transform="matrix(0.9448 0.3276 -0.3276 0.9448 72.2535 -31.0979)" fill="#579739" cx="128.447" cy="198.949" rx="9.129" ry="5.629"/>
					
						<ellipse transform="matrix(0.866 -0.5 0.5 0.866 -18.2889 327.2568)" fill="#579739" cx="601.551" cy="197.757" rx="9.129" ry="5.629"/>
					<ellipse fill="#68AC47" cx="358.415" cy="127.605" rx="9.129" ry="5.628"/>
					<ellipse fill="#68AC47" cx="296.879" cy="127.605" rx="9.129" ry="5.628"/>
					<ellipse fill="#68AC47" cx="242.501" cy="127.605" rx="9.129" ry="5.628"/>
					<ellipse fill="#68AC47" cx="181.232" cy="123.963" rx="9.129" ry="5.629"/>
					<ellipse fill="#68AC47" cx="441.347" cy="126.013" rx="9.129" ry="5.628"/>
					<ellipse fill="#68AC47" cx="515.906" cy="121.977" rx="9.129" ry="5.629"/>
					<ellipse fill="#68AC47" cx="398.068" cy="127.605" rx="9.128" ry="5.628"/>
					
						<ellipse transform="matrix(0.9972 -0.0754 0.0754 0.9972 -18.5468 39.8225)" fill="#437E00" cx="517.982" cy="265.474" rx="9.129" ry="5.627"/>
					
						<ellipse transform="matrix(0.9971 -0.0755 0.0755 0.9971 -19.111 34.9997)" fill="#437E00" cx="453.519" cy="270.353" rx="9.129" ry="5.628"/>
					
						<ellipse transform="matrix(0.9971 -0.0755 0.0755 0.9971 -19.2841 30.2354)" fill="#437E00" cx="390.396" cy="270.261" rx="9.129" ry="5.628"/>
					
						<ellipse transform="matrix(0.9972 -0.0754 0.0754 0.9972 -17.4523 44.0172)" fill="#437E00" cx="574.068" cy="253.079" rx="9.129" ry="5.628"/>
					
						<ellipse transform="matrix(0.9913 0.1316 -0.1316 0.9913 38.0951 -38.8156)" fill="#437E00" cx="312.638" cy="268.733" rx="9.129" ry="5.629"/>
					
						<ellipse transform="matrix(0.9913 0.1316 -0.1316 0.9913 37.2806 -30.9911)" fill="#437E00" cx="253.048" cy="266.485" rx="9.129" ry="5.629"/>
					
						<ellipse transform="matrix(0.8192 -0.5736 0.5736 0.8192 -23.4876 393.2501)" fill="#437E00" cx="611.87" cy="233.872" rx="9.128" ry="5.628"/>
					
						<ellipse transform="matrix(0.2321 -0.9727 0.9727 0.2321 297.7641 768.3725)" fill="#437E00" cx="635.518" cy="195.602" rx="9.129" ry="5.63"/>
					
						<ellipse transform="matrix(0.9785 0.2061 -0.2061 0.9785 55.3312 -30.1819)" fill="#437E00" cx="172.504" cy="250.436" rx="9.129" ry="5.627"/>
					<ellipse fill="#437E00" cx="300.836" cy="258.708" rx="9.129" ry="5.629"/>
					<ellipse fill="#437E00" cx="432.218" cy="254.497" rx="9.129" ry="5.631"/>
					<ellipse fill="#437E00" cx="364.32" cy="257.351" rx="9.129" ry="5.63"/>
					
						<ellipse transform="matrix(0.9588 -0.2841 0.2841 0.9588 -49.7375 154.8513)" fill="#437E00" cx="508.898" cy="248.869" rx="9.129" ry="5.628"/>
					
						<ellipse transform="matrix(0.866 -0.5001 0.5001 0.866 -35.1436 322.295)" fill="#437E00" cx="583.688" cy="226.71" rx="9.129" ry="5.629"/>
					<ellipse fill="#68AC47" cx="322.148" cy="171.614" rx="9.129" ry="5.629"/>
					<ellipse fill="#68AC47" cx="260.758" cy="171.614" rx="9.129" ry="5.629"/>
					<ellipse fill="#68AC47" cx="197.527" cy="166.663" rx="9.129" ry="5.629"/>
					<ellipse fill="#68AC47" cx="132.239" cy="160.357" rx="9.129" ry="5.629"/>
					<ellipse fill="#68AC47" cx="387.282" cy="170.021" rx="9.129" ry="5.629"/>
					<ellipse fill="#68AC47" cx="466.912" cy="164.393" rx="9.129" ry="5.628"/>
					<ellipse fill="#68AC47" cx="536.853" cy="155.407" rx="9.128" ry="5.628"/>
					<ellipse fill="#68AC47" cx="364.32" cy="194.551" rx="9.129" ry="5.628"/>
					<ellipse fill="#68AC47" cx="306.008" cy="192.958" rx="9.129" ry="5.629"/>
					<ellipse fill="#68AC47" cx="242.792" cy="189.6" rx="9.129" ry="5.629"/>
					<ellipse fill="#68AC47" cx="177.504" cy="180.638" rx="9.129" ry="5.629"/>
					<ellipse fill="#68AC47" cx="429.584" cy="192.958" rx="9.129" ry="5.629"/>
					<ellipse fill="#68AC47" cx="512.178" cy="185.244" rx="9.129" ry="5.627"/>
					
						<ellipse transform="matrix(0.9049 -0.4256 0.4256 0.9049 -16.6268 263.3175)" fill="#68AC47" cx="580.964" cy="168.868" rx="9.128" ry="5.628"/>
				</g>
				
					<ellipse transform="matrix(0.9988 0.0492 -0.0492 0.9988 13.1171 -11.5775)" fill="#437E00" cx="241.688" cy="260.607" rx="9.129" ry="5.63"/>
			</g>
		</g>
		<path fill="#579739" d="M252.078,222.49c-21.638,32.141-58.735,44.838-82.856,28.364c-24.125-16.471-26.138-55.88-4.501-88.019
			c21.638-32.14,58.736-44.841,82.856-28.368C271.702,150.942,273.717,190.347,252.078,222.49z"/>
		<g>
			<path fill="#579739" d="M248.451,222.275c-22.61,33.584-61.374,46.856-86.581,29.643c-25.207-17.213-27.312-58.393-4.702-91.977
				c22.61-33.584,61.374-46.855,86.581-29.643C268.956,147.512,271.061,188.691,248.451,222.275z"/>
			<path fill="#D3E594" d="M246.054,220.639c-21.422,31.82-58.15,44.396-82.034,28.086c-23.883-16.31-25.878-55.326-4.455-87.146
				c21.423-31.82,58.15-44.395,82.034-28.085C265.483,149.802,267.478,188.818,246.054,220.639z"/>
			<path fill="#E4ECC7" d="M243.813,219.107c-20.313,30.172-55.137,42.095-77.783,26.631c-22.646-15.464-24.537-52.459-4.225-82.629
				c20.313-30.172,55.138-42.094,77.784-26.63C262.235,151.942,264.126,188.937,243.813,219.107z"/>
			<path fill="#C8DA7B" d="M172.289,194.424c-3.836,0.219-7.417,4.465-7.299,8.654c0.304,10.672,4.533,20.081,12.554,25.558
				s18.266,5.952,28.222,2.287c3.908-1.44,6.499-6.362,5.281-10.033l-5.163-15.552c-2.587-7.79-9.196-12.303-17.338-11.839
				L172.289,194.424z"/>
			<path fill="#C8DA7B" d="M213.777,219.166c1.22,3.674,5.609,4.15,8.946,0.979c2.996-2.851,5.782-6.128,8.254-9.801
				c11.9-17.674,12.706-38.755,3.038-51.168c-2.225-2.857-6.885-1.876-9.507,2.019l-11.099,16.486
				c-5.556,8.252-7.386,18.135-4.799,25.924L213.777,219.166z"/>
			<path fill="#C8DA7B" d="M222.372,159.737c2.623-3.896,1.803-8.619-1.656-9.643c-15.028-4.45-34.175,4.105-46.074,21.78
				c-2.473,3.672-4.465,7.493-5.985,11.351c-1.692,4.296,0.374,8.227,4.213,8.008l16.267-0.925
				c8.143-0.464,16.581-5.833,22.137-14.086L222.372,159.737z"/>
			<path fill="#EFF2D3" d="M188.516,215.983c-1.12,2.054-2.441,4.017-3.921,5.824c-0.978,1.196-2.347,1.657-3.21,1.067
				c-0.009-0.006-0.019-0.014-0.028-0.02c-0.862-0.589-0.944-2.039-0.204-3.396c1.12-2.055,2.442-4.017,3.922-5.825
				c0.979-1.196,2.347-1.656,3.209-1.067l0.028,0.019C189.175,213.174,189.257,214.625,188.516,215.983z"/>
			<path fill="#EFF2D3" d="M195.02,222.193c-1.121,2.053-2.442,4.016-3.921,5.824c-0.979,1.196-2.347,1.656-3.209,1.067
				c-0.009-0.007-0.019-0.015-0.028-0.021c-0.863-0.588-0.945-2.039-0.204-3.396c1.12-2.055,2.441-4.018,3.921-5.824
				c0.979-1.197,2.347-1.656,3.209-1.068l0.028,0.02C195.678,219.385,195.761,220.835,195.02,222.193z"/>
			<path fill="#EFF2D3" d="M180.821,212.497c-1.12,2.054-2.442,4.017-3.921,5.824c-0.979,1.196-2.348,1.657-3.209,1.068
				c-0.01-0.008-0.02-0.015-0.029-0.021c-0.862-0.589-0.945-2.039-0.203-3.397c1.12-2.054,2.442-4.017,3.921-5.824
				c0.979-1.196,2.347-1.657,3.209-1.068l0.028,0.02C181.479,209.688,181.562,211.139,180.821,212.497z"/>
			<path fill="#EFF2D3" d="M227.036,187.669c1.948-0.309,3.871-0.349,5.705-0.121c1.213,0.152,1.918,1.218,1.644,2.509
				c-0.003,0.014-0.006,0.028-0.009,0.042c-0.274,1.291-1.44,2.396-2.729,2.6c-1.948,0.309-3.872,0.35-5.706,0.121
				c-1.213-0.152-1.918-1.217-1.643-2.509l0.008-0.042C224.58,188.979,225.746,187.874,227.036,187.669z"/>
			<path fill="#EFF2D3" d="M230.551,176.689c1.948-0.309,3.871-0.349,5.705-0.121c1.214,0.152,1.919,1.218,1.644,2.508
				c-0.002,0.015-0.006,0.029-0.009,0.043c-0.274,1.291-1.44,2.396-2.729,2.6c-1.948,0.309-3.872,0.349-5.705,0.12
				c-1.213-0.151-1.918-1.217-1.644-2.507l0.009-0.042C228.095,177.999,229.262,176.893,230.551,176.689z"/>
			<path fill="#EFF2D3" d="M226.033,197.943c1.948-0.309,3.872-0.349,5.706-0.121c1.213,0.152,1.918,1.217,1.644,2.508
				c-0.003,0.015-0.006,0.029-0.009,0.042c-0.274,1.291-1.44,2.396-2.73,2.601c-1.948,0.309-3.872,0.349-5.705,0.12
				c-1.213-0.151-1.918-1.217-1.644-2.507l0.008-0.043C223.578,199.252,224.744,198.147,226.033,197.943z"/>
			<path fill="#EFF2D3" d="M198.729,158.238c0.698,1.777,1.17,3.715,1.4,5.749c0.152,1.346-0.564,2.808-1.689,3.425
				c-0.013,0.006-0.025,0.014-0.038,0.02c-1.125,0.617-2.3,0.194-2.763-0.982c-0.698-1.777-1.169-3.715-1.399-5.749
				c-0.153-1.347,0.564-2.808,1.689-3.425l0.037-0.02C197.09,156.639,198.267,157.062,198.729,158.238z"/>
			<path fill="#EFF2D3" d="M208.568,154.197c0.699,1.778,1.17,3.715,1.4,5.75c0.152,1.346-0.564,2.808-1.689,3.424
				c-0.012,0.007-0.024,0.013-0.037,0.021c-1.125,0.616-2.3,0.193-2.763-0.983c-0.698-1.776-1.17-3.715-1.401-5.749
				c-0.152-1.346,0.565-2.808,1.689-3.424l0.038-0.021C206.93,152.598,208.105,153.021,208.568,154.197z"/>
			<path fill="#EFF2D3" d="M190.045,164.356c0.698,1.777,1.171,3.716,1.4,5.75c0.152,1.346-0.564,2.808-1.689,3.424
				c-0.013,0.007-0.025,0.014-0.038,0.021c-1.125,0.617-2.3,0.193-2.763-0.982c-0.699-1.777-1.17-3.716-1.4-5.75
				c-0.152-1.345,0.564-2.807,1.689-3.424l0.038-0.02C188.407,162.757,189.583,163.181,190.045,164.356z"/>
		</g>
	</g>
	<g>
		<path fill="#437E00" d="M470.597,304.105c-0.06-0.333-0.127-0.665-0.195-0.995c-0.023-0.206-0.053-0.412-0.089-0.619l-1.951-11.14
			l-2.562,0.321c-11.614-18.79-40.801-29.98-72.415-26.021c-31.615,3.958-55.714,21.819-60.389,42.648l-2.47,0.31l1.807,10.316
			c0.081,0.815,0.192,1.631,0.335,2.45c4.556,26.006,39.124,43.222,77.212,38.453C447.967,355.06,475.149,330.112,470.597,304.105z"
			/>
		<g>
			<path fill="#437E00" d="M408.381,351.285c-38.086,4.769-72.985-14.333-77.948-42.664c-4.962-28.331,21.892-55.165,59.979-59.933
				c38.088-4.77,72.987,14.331,77.949,42.663S446.47,346.517,408.381,351.285z"/>
			<path fill="#C9E594" d="M407.91,348.592c-36.087,4.517-69.153-13.581-73.855-40.425c-4.702-26.843,20.742-52.267,56.83-56.785
				c36.087-4.519,69.152,13.579,73.854,40.422C469.441,318.648,443.998,344.071,407.91,348.592z"/>
			<path fill="#DAE5C7" d="M407.468,346.071c-34.217,4.286-65.568-12.876-70.026-38.328c-4.459-25.452,19.667-49.559,53.884-53.842
				c34.218-4.285,65.569,12.875,70.029,38.327C465.811,317.683,441.687,341.787,407.468,346.071z"/>
			<path fill="#C8DA7B" d="M376.813,280.556c-2.702-2.565-7.998-2.472-10.795,0.191c-7.12,6.783-10.762,15.554-9.183,24.567
				c1.579,9.015,8.071,16.515,17.21,21.263c3.588,1.864,8.691,0.656,10.397-2.46l7.234-13.208
				c3.624-6.614,2.323-14.042-3.413-19.485L376.813,280.556z"/>
			<path fill="#BCD37B" d="M387.442,324.975c-1.708,3.121,0.886,6.503,5.282,6.896c3.949,0.354,8.052,0.297,12.218-0.225
				c20.044-2.511,35.044-14.921,37.129-29.365c0.479-3.324-3.293-5.998-7.713-5.444l-18.694,2.339
				c-9.359,1.173-17.357,5.97-20.981,12.585L387.442,324.975z"/>
			<path fill="#BCD37B" d="M433.938,294.435c4.419-0.553,7.113-4.037,5.514-7.102c-6.946-13.312-25.557-21.516-45.6-19.007
				c-4.166,0.521-8.112,1.472-11.772,2.778c-4.072,1.454-5.396,5.327-2.69,7.895l11.459,10.874
				c5.735,5.443,15.034,8.075,24.394,6.902L433.938,294.435z"/>
			<path fill="#EFF2D3" d="M372.818,305.245c-2.153,0.476-4.381,0.755-6.605,0.827c-1.472,0.047-2.699-0.633-2.868-1.601
				c-0.002-0.012-0.004-0.022-0.005-0.033c-0.171-0.97,0.77-1.92,2.195-2.235c2.154-0.476,4.381-0.753,6.605-0.827
				c1.472-0.048,2.698,0.633,2.867,1.603l0.005,0.032C375.184,303.979,374.244,304.931,372.818,305.245z"/>
			<path fill="#EFF2D3" d="M372.885,313.643c-2.153,0.477-4.38,0.756-6.605,0.826c-1.473,0.049-2.698-0.632-2.868-1.6
				c-0.001-0.011-0.002-0.021-0.005-0.032c-0.169-0.97,0.771-1.921,2.195-2.235c2.155-0.477,4.381-0.756,6.605-0.825
				c1.473-0.05,2.699,0.631,2.869,1.6l0.006,0.031C375.251,312.377,374.311,313.328,372.885,313.643z"/>
			<path fill="#EFF2D3" d="M370.09,297.685c-2.153,0.476-4.381,0.753-6.605,0.827c-1.472,0.048-2.698-0.633-2.868-1.602
				c-0.002-0.01-0.004-0.021-0.006-0.032c-0.169-0.969,0.77-1.92,2.197-2.235c2.154-0.476,4.381-0.755,6.605-0.827
				c1.472-0.047,2.697,0.632,2.867,1.601l0.006,0.033C372.456,296.419,371.514,297.37,370.09,297.685z"/>
			<path fill="#EFF2D3" d="M417.877,314.912c1.507,1.181,2.814,2.509,3.879,3.94c0.704,0.946,0.44,2.098-0.628,2.7
				c-0.011,0.007-0.023,0.015-0.034,0.02c-1.068,0.602-2.603,0.462-3.602-0.319c-1.507-1.181-2.815-2.509-3.878-3.939
				c-0.704-0.946-0.441-2.1,0.628-2.7l0.033-0.021C415.344,313.991,416.879,314.132,417.877,314.912z"/>
			<path fill="#EFF2D3" d="M427.75,310.625c1.508,1.182,2.815,2.508,3.878,3.94c0.704,0.947,0.442,2.099-0.627,2.701
				c-0.01,0.006-0.024,0.013-0.033,0.019c-1.069,0.603-2.604,0.463-3.603-0.319c-1.509-1.181-2.814-2.508-3.878-3.94
				c-0.704-0.946-0.442-2.099,0.626-2.699l0.035-0.021C425.217,309.705,426.752,309.844,427.75,310.625z"/>
			<path fill="#EFF2D3" d="M410.161,320.532c1.508,1.181,2.815,2.509,3.879,3.94c0.704,0.947,0.44,2.098-0.628,2.7
				c-0.011,0.007-0.023,0.014-0.034,0.02c-1.068,0.602-2.604,0.461-3.601-0.319c-1.51-1.18-2.815-2.51-3.879-3.939
				c-0.704-0.946-0.442-2.1,0.627-2.701l0.035-0.02C407.628,319.61,409.163,319.752,410.161,320.532z"/>
			<path fill="#EFF2D3" d="M419.234,276.878c-0.754,1.586-1.769,3.11-3.013,4.525c-0.821,0.937-2.3,1.331-3.473,0.919
				c-0.013-0.004-0.026-0.009-0.04-0.014c-1.171-0.411-1.662-1.499-1.163-2.548c0.754-1.586,1.77-3.111,3.013-4.525
				c0.821-0.936,2.301-1.331,3.474-0.919l0.038,0.014C419.242,274.741,419.734,275.829,419.234,276.878z"/>
			<path fill="#EFF2D3" d="M428.555,281.313c-0.754,1.585-1.771,3.11-3.012,4.524c-0.823,0.935-2.302,1.331-3.474,0.919
				c-0.014-0.003-0.026-0.008-0.04-0.013c-1.172-0.412-1.663-1.501-1.164-2.551c0.755-1.584,1.771-3.108,3.013-4.522
				c0.822-0.936,2.302-1.332,3.475-0.92l0.037,0.013C428.562,279.176,429.055,280.265,428.555,281.313z"/>
			<path fill="#EFF2D3" d="M409.259,274.535c-0.754,1.586-1.771,3.112-3.013,4.525c-0.822,0.936-2.303,1.331-3.474,0.92
				c-0.013-0.005-0.025-0.01-0.039-0.014c-1.173-0.412-1.663-1.499-1.165-2.549c0.756-1.585,1.771-3.11,3.014-4.525
				c0.821-0.936,2.302-1.33,3.474-0.92l0.038,0.015C409.267,272.398,409.759,273.486,409.259,274.535z"/>
		</g>
	</g>
	<g>
		<path fill="#579739" d="M376.714,236.053c-0.335-0.217-0.672-0.426-1.01-0.633c-0.2-0.142-0.404-0.283-0.611-0.417l-11.179-7.239
			l-1.408,2.174c-24.356-5.961-53.574,7.207-70.945,34.033s-17.432,58.874-2.026,78.658l-1.357,2.096c0,0,11.93,7.836,12.751,8.366
			c26.1,16.9,64.225,4.401,85.153-27.917C407.009,292.855,402.814,252.954,376.714,236.053z"/>
		<g>
			
				<ellipse transform="matrix(0.8394 0.5435 -0.5435 0.8394 207.9629 -131.2209)" fill="#579739" cx="326.021" cy="286.284" rx="61.335" ry="69.717"/>
			
				<ellipse transform="matrix(0.8394 0.5435 -0.5435 0.8394 207.9621 -131.2213)" fill="#D3E594" cx="326.021" cy="286.283" rx="58.114" ry="66.056"/>
			
				<ellipse transform="matrix(0.8394 0.5435 -0.5435 0.8394 207.9666 -131.2223)" fill="#E4ECC7" cx="326.021" cy="286.283" rx="55.102" ry="62.633"/>
			<path fill="#C8DA7B" d="M293.849,288.056c-4.062,0.023-7.479,4.074-6.96,8.253c1.32,10.646,6.699,20.231,15.747,26.09
				c9.048,5.859,19.996,6.846,30.249,3.693c4.025-1.237,6.323-6.01,4.684-9.729l-6.947-15.75
				c-3.479-7.888-10.935-12.717-19.557-12.664L293.849,288.056z"/>
			<path fill="#C8DA7B" d="M340.312,314.783c1.641,3.72,6.357,4.415,9.611,1.423c2.924-2.688,5.583-5.814,7.871-9.349
				c11.013-17.008,9.903-37.968-1.544-50.816c-2.635-2.958-7.502-2.216-9.93,1.533l-10.272,15.864
				c-5.143,7.941-6.167,17.694-2.687,25.583L340.312,314.783z"/>
			<path fill="#C8DA7B" d="M343.911,256.016c2.428-3.751,1.114-8.496-2.663-9.69c-16.408-5.187-35.987,2.376-47.001,19.383
				c-2.289,3.535-4.053,7.241-5.309,11.008c-1.399,4.193,1.165,8.213,5.23,8.188l17.226-0.106
				c8.622-0.053,17.102-4.977,22.244-12.919L343.911,256.016z"/>
			<path fill="#EFF2D3" d="M313.131,310.345c-1,1.989-2.224,3.878-3.629,5.606c-0.93,1.141-2.343,1.531-3.315,0.9
				c-0.012-0.007-0.022-0.014-0.032-0.021c-0.973-0.63-1.196-2.079-0.534-3.395c1-1.99,2.224-3.879,3.629-5.604
				c0.93-1.145,2.343-1.532,3.316-0.902l0.033,0.021C313.571,307.58,313.793,309.028,313.131,310.345z"/>
			<path fill="#EFF2D3" d="M320.632,316.855c-1,1.989-2.224,3.88-3.629,5.605c-0.93,1.144-2.343,1.532-3.316,0.902
				c-0.011-0.007-0.022-0.014-0.032-0.02c-0.973-0.63-1.195-2.08-0.534-3.396c1.001-1.987,2.225-3.879,3.63-5.606
				c0.931-1.142,2.344-1.531,3.316-0.901l0.032,0.021C321.071,314.091,321.294,315.542,320.632,316.855z"/>
			<path fill="#EFF2D3" d="M304.615,306.485c-1,1.989-2.224,3.878-3.629,5.605c-0.93,1.143-2.343,1.531-3.316,0.901
				c-0.011-0.006-0.021-0.014-0.032-0.021c-0.973-0.63-1.195-2.079-0.534-3.396c1-1.988,2.224-3.877,3.629-5.604
				c0.93-1.142,2.343-1.531,3.315-0.901l0.033,0.021C305.055,303.722,305.278,305.169,304.615,306.485z"/>
			<path fill="#EFF2D3" d="M351.482,284.073c2.044-0.21,4.087-0.153,6.061,0.167c1.306,0.211,2.155,1.308,1.984,2.58
				c-0.002,0.014-0.004,0.028-0.006,0.042c-0.171,1.272-1.31,2.314-2.663,2.454c-2.044,0.21-4.088,0.152-6.06-0.167
				c-1.306-0.212-2.156-1.31-1.984-2.581l0.005-0.043C348.991,285.254,350.129,284.213,351.482,284.073z"/>
			<path fill="#EFF2D3" d="M354.198,273.312c2.044-0.211,4.088-0.154,6.062,0.166c1.306,0.212,2.155,1.309,1.984,2.581
				c-0.002,0.013-0.004,0.027-0.007,0.042c-0.17,1.272-1.309,2.313-2.662,2.452c-2.044,0.21-4.087,0.155-6.061-0.165
				c-1.305-0.212-2.154-1.309-1.984-2.581l0.006-0.042C351.707,274.493,352.845,273.451,354.198,273.312z"/>
			<path fill="#EFF2D3" d="M351.374,294.257c2.045-0.21,4.089-0.154,6.061,0.166c1.306,0.212,2.156,1.308,1.984,2.58
				c-0.002,0.015-0.004,0.029-0.005,0.042c-0.172,1.272-1.31,2.314-2.663,2.455c-2.045,0.209-4.088,0.153-6.061-0.167
				c-1.306-0.213-2.155-1.309-1.984-2.581l0.006-0.042C348.883,295.438,350.022,294.396,351.374,294.257z"/>
			<path fill="#EFF2D3" d="M318.608,253.335c0.91,1.807,1.593,3.76,2.027,5.798c0.288,1.348-0.338,2.768-1.477,3.325
				c-0.014,0.007-0.026,0.014-0.038,0.019c-1.14,0.559-2.431,0.077-3.033-1.117c-0.909-1.805-1.592-3.76-2.027-5.796
				c-0.287-1.349,0.339-2.77,1.479-3.328l0.037-0.019C316.715,251.659,318.007,252.141,318.608,253.335z"/>
			<path fill="#EFF2D3" d="M328.702,249.804c0.91,1.806,1.593,3.759,2.028,5.798c0.287,1.349-0.339,2.767-1.479,3.325
				c-0.013,0.006-0.024,0.014-0.038,0.019c-1.139,0.559-2.43,0.077-3.031-1.117c-0.91-1.805-1.593-3.76-2.027-5.797
				c-0.288-1.349,0.338-2.769,1.478-3.327l0.038-0.019C326.811,248.127,328.101,248.61,328.702,249.804z"/>
			<path fill="#EFF2D3" d="M309.938,258.994c0.909,1.806,1.592,3.761,2.027,5.797c0.287,1.349-0.339,2.77-1.479,3.326
				c-0.012,0.008-0.026,0.012-0.038,0.02c-1.139,0.557-2.43,0.077-3.032-1.117c-0.909-1.806-1.593-3.76-2.027-5.797
				c-0.288-1.349,0.338-2.769,1.478-3.326l0.037-0.02C308.045,257.319,309.336,257.8,309.938,258.994z"/>
		</g>
	</g>
</g>
</svg>
