<?xml version="1.0" encoding="utf-8"?>
<!-- Generator: Adobe Illustrator 16.0.0, SVG Export Plug-In . SVG Version: 6.00 Build 0)  -->
<!DOCTYPE svg PUBLIC "-//W3C//DTD SVG 1.1//EN" "http://www.w3.org/Graphics/SVG/1.1/DTD/svg11.dtd">
<svg version="1.1" id="Layer_1" xmlns="http://www.w3.org/2000/svg" xmlns:xlink="http://www.w3.org/1999/xlink" x="0px" y="0px"
	 width="768px" height="430px" viewBox="0 0 768 430" enable-background="new 0 0 768 430" xml:space="preserve">
<g>
	<path fill="#7DBBEA" d="M443.926,249.688c-10.918-11.727-23.451-13.467-23.451-13.467l-33.176,4.545c0,0,0.151,14.174,14.252,22.92
		c11.59,7.195,23.062,3.463,25.85,7.861c-2.926,12.391,3.606,22.66,11.473,23.984c7.857,1.338,13.846-6.131,14.65-17.059
		C454.32,267.543,453.134,252.352,443.926,249.688z"/>
	<path fill="#9ACEFC" d="M443.926,249.688c-10.918-11.727-23.451-13.467-23.451-13.467l-33.176,4.545c0,0,0.818,9.502,14.919,18.252
		c11.594,7.195,27.33-1.039,30.127,3.355c-2.927,12.395,0.598,23.902,8.442,25.227c7.879,1.334,10.199-4.529,11.005-15.455
		C452.589,261.213,453.134,252.352,443.926,249.688z"/>
	<path fill="#63A1CE" d="M440.648,296.492c-0.632,0-1.264-0.061-1.914-0.164c-3.632-0.625-6.952-2.953-9.359-6.586
		c-3.269-4.914-4.277-11.467-2.831-18.027c-1.187-1.441-4.026-1.744-7.572-2.115c-4.784-0.512-11.352-1.205-17.841-5.24
		c-14.309-8.875-13.039-23.602-13.039-23.602c0,0.129,0.346,13.844,13.888,22.248c6.183,3.83,12.273,4.484,17.165,5.008
		c4.156,0.441,7.451,0.779,8.932,3.1l0.182,0.291l-0.078,0.324c-1.472,6.234-0.545,12.486,2.528,17.135
		c2.169,3.252,5.108,5.344,8.286,5.875c2.689,0.463,5.265-0.195,7.438-1.896c3.523-2.77,5.822-8.029,6.303-14.43
		c0.407-5.818,1.03-25.039-9.03-27.949l-0.208-0.061l-0.151-0.168c-10.585-11.361-22.854-13.191-22.976-13.209
		c0,0,13.035,0.299,23.997,11.967c10.685,3.342,10.533,21.74,9.944,29.543c-0.493,6.84-3,12.51-6.893,15.559
		C445.394,295.688,443.099,296.492,440.648,296.492z"/>
	<path fill="#63A1CE" d="M427.548,275.92l-1.61-0.088c0.562-10.061,7.092-14.234,7.092-14.234
		C432.977,261.641,428.067,266.516,427.548,275.92z"/>
	<path fill="#63A1CE" d="M434.695,294.207l-1.021-1.23c6.213-5.225,5.927-19.014,5.927-19.135
		C439.601,273.842,441.51,288.475,434.695,294.207z"/>
	<path fill="#63A1CE" d="M444.723,295.531l-1.32-0.9c6-8.686,4.221-19.17,4.199-19.283
		C447.602,275.348,451.091,286.332,444.723,295.531z"/>
	<path fill="#7DBBEA" d="M430.232,350.59c25.205-24.434,7.71-60.545-12.572-67.492c-20.27-6.936-39.834,4.303-39.834,4.303
		l-49.071,31.514c-2.979,21.615,15.334,40.291,27.846,43.02c-1.939,2.727-4.269,9.986,12.567,14.732
		c16.823,4.748,58.164,6.367,69.411-1.936c2.658-0.576,11.884-1.854,12.329-7.889C450.771,358.133,440.648,349.949,430.232,350.59z"
		/>
	<path fill="#9ACEFC" d="M424.361,337.355c14.365-15.768,10.348-42.941-8.39-54.787c-19.663-5.791-38.146,4.832-38.146,4.832
		l-49.071,31.514c-0.84,6.143,0.034,12.047,2.004,17.416c4.832,7.605,12.01,13.619,21.837,16.74
		C377.801,359.508,407.443,357.646,424.361,337.355z"/>
	<path fill="#9ACEFC" d="M436.163,351.158c-14.407,21.117-48.639,12.818-71.038,17.152c-0.52,4.844,5.468,7.562,9.16,9.562
		c18.928,3.75,54.068,4.416,64.294-3.143c2.658-0.576,11.884-1.854,12.329-7.889C450.805,359.82,444.186,353.145,436.163,351.158z"
		/>
	<path fill="#63A1CE" d="M415.296,381.104c-16.455,1.029-36.239-0.811-46.366-3.668c-7.957-2.246-12.693-5.328-14.087-9.152
		c-0.875-2.42-0.19-4.531,0.502-5.848c-13.36-3.701-30.253-22.955-27.404-43.627l1.637,0.205
		c-3.013,21.811,15.91,39.676,27.218,42.141l1.182,0.254l-0.692,0.975c-0.562,0.789-1.774,2.893-0.883,5.359
		c1.187,3.273,5.685,6.096,12.996,8.156c17.603,4.971,58.177,5.949,68.688-1.812l0.328-0.145l0.784-0.154
		c3.139-0.615,10.524-2.061,10.888-6.996c-0.061-3.49-1.957-7.23-5.256-10.17c-3.986-3.59-9.438-5.547-14.555-5.234l-2.156,0.139
		l1.524-1.494c10.416-10.086,14.382-23.295,11.178-37.184c-3.108-13.402-12.745-25.322-23.447-28.988
		c-19.681-6.74-38.929,4.121-39.119,4.225c0,0,19.283-12.719,39.687-5.736c11.2,3.832,21.278,16.23,24.482,30.154
		c3.194,13.805-0.451,26.979-10.243,37.27c4.931,0.221,9.975,2.256,13.767,5.672c3.619,3.238,5.719,7.391,5.793,11.387
		c-0.468,6.211-8.706,7.836-12.222,8.527l-0.58,0.104C434.371,378.73,425.475,380.467,415.296,381.104z"/>
	<path fill="#63A1CE" d="M439.367,374.998l-1.555-0.553c1.524-4.053,1.555-7.568,0.087-10.408c-2.16-4.139-6.767-5.508-6.81-5.516
		c0,0,5.818,0.043,8.277,4.789C441.056,366.564,441.056,370.504,439.367,374.998z"/>
	<path fill="#63A1CE" d="M412.102,359.508c0.146-0.039,15.156-3.887,23.022-15.9l1.395,0.854
		C428.279,357.033,412.102,359.508,412.102,359.508z"/>
	<path fill="#63A1CE" d="M346.98,358.383l0.927-1.328c13.204,8.566,34.05,7.922,34.253,7.918
		C382.16,364.973,360.627,367.24,346.98,358.383z"/>
	<path fill="#7DBBEA" d="M420.734,151.116c-4.529-17.863-6.672-37.587,4-58.099c10.658-20.534,39.435-41.587,47.444-39.985
		c7.991,1.597,0.52,13.589,0,20.789c-0.537,7.195,0.792,27.72-8.265,46.907c-9.065,19.188-27.447,31.179-32.513,32.257
		C429.263,152.986,420.734,151.116,420.734,151.116z"/>
	<path fill="#9ACEFC" d="M420.734,151.116c-4.529-17.863-6.672-37.587,4-58.099c10.658-20.534,39.435-41.587,47.444-39.985
		c7.991,1.597-5.759,9.892-6.286,17.092c-0.541,7.182-3.092,26.534-12.166,45.717c-9.057,19.192-27.287,33.535-32.348,34.6
		C419.253,150.44,420.734,151.116,420.734,151.116z"/>
	<path fill="#63A1CE" d="M431.483,153.774h-0.082c-2.199,0-10.485-1.81-10.841-1.875l-0.477-0.113l-0.121-0.472
		c-4.043-15.915-7.234-36.955,4.062-58.675c10.433-20.083,37.833-40.491,47.206-40.491c0.385,0,0.758,0.039,1.095,0.095
		c1.658,0.338,2.841,1.1,3.559,2.286c1.676,2.814,0.243,7.464-1.13,11.962c-0.81,2.584-1.632,5.265-1.783,7.381
		c-0.091,1.225-0.126,2.879-0.169,4.788c-0.208,9.213-0.593,26.37-8.174,42.41c-8.888,18.845-27.214,31.452-33.071,32.69
		L431.483,153.774z M421.379,150.44c2.61,0.554,8.247,1.697,9.932,1.731c4.523-1.052,22.893-12.741,31.871-31.785
		c7.438-15.733,7.823-32.665,8.019-41.769c0.043-1.931,0.082-3.598,0.182-4.857c0.173-2.303,1.021-5.065,1.836-7.741
		c1.281-4.165,2.614-8.468,1.281-10.672c-0.464-0.792-1.281-1.294-2.494-1.537c-0.237-0.043-0.484-0.065-0.774-0.065
		c-8.814,0-35.786,20.369-45.795,39.634C414.578,114.282,417.244,133.929,421.379,150.44z"/>
	<path fill="#F2ADAD" d="M428.734,147.648c-1.606-25.582,12.477-64.761,34.349-76.225
		C463.641,96.212,455.385,130.062,428.734,147.648z"/>
	<path fill="#FFD2D2" d="M462.896,80.384c-11.789,8.693-21.105,21.01-25.902,34.218c-3.16,8.425-4.212,18.919-0.922,27.4
		C454.225,125.859,461.624,101.234,462.896,80.384z"/>
	<path fill="#63A1CE" d="M428.016,149.072l-0.087-1.376c-1.636-26.309,13.196-65.671,34.786-76.979l1.134-0.593l0.035,1.286
		c0.589,25.711-8.243,59.428-34.726,76.905L428.016,149.072z M462.312,72.765c-20.071,11.603-33.859,48.107-32.868,73.433
		C454.039,129.17,462.559,97.502,462.312,72.765z"/>
	<path fill="#7DBBEA" d="M346.539,365.781c-0.805,10.494-17.031,17.814-36.253,16.352c-19.239-1.463-34.175-11.16-33.379-21.658
		c0.806-10.482,17.031-17.807,36.271-16.348C332.404,345.594,347.331,355.283,346.539,365.781z"/>
	<path fill="#9ACEFC" d="M313.178,344.127c-16.512-1.252-30.781,3.979-35.006,12.109c1.584,3.299,4.442,6.199,6.901,7.822
		c14.391,9.59,30.383,9.59,44.773,4.801c6.061-1.506,11.381-4.117,16.005-7.775C342.694,352.539,329.473,345.373,313.178,344.127z"
		/>
	<path fill="#63A1CE" d="M315.147,383.125c-1.623,0-3.286-0.07-4.922-0.195c-19.642-1.494-34.941-11.598-34.115-22.504
		c0.771-10.018,14.295-17.281,32.192-17.281c1.633,0,3.282,0.068,4.927,0.189c19.638,1.49,34.938,11.59,34.102,22.512
		C346.574,375.848,333.032,383.125,315.147,383.125z M308.303,344.746c-16.754,0-29.91,6.787-30.59,15.797
		c-0.762,10.039,13.866,19.365,32.625,20.793c1.606,0.121,3.212,0.182,4.81,0.182c16.75,0,29.911-6.787,30.587-15.801
		c0.771-10.031-13.863-19.361-32.621-20.797C311.507,344.803,309.888,344.746,308.303,344.746z"/>
	<path fill="#7DBBEA" d="M431.8,231.341c5.194,20.521-7.611,24.776-7.325,37.851c0.26,13.049,19.174,77.551-26.664,99.408
		c-28.794,12.793-67.107,14.504-83.126-7.545c-16.027-22.049-9.352-40.432,2.372-61.221s22.391-30.391,23.988-42.643
		c1.598-12.262,10.836-33.587,28.075-51.973c8.17-11.996,5.503-38.643,19.365-54.371c13.857-15.724,52.501-11.195,63.696,2.139
		c11.199,13.326,7.996,31.443,10.936,38.375c7.459,9.325,14.854,26.374,1.251,31.378c1.212,6.2-9.183,12.2-19.979,6.398
		C440.389,227.93,434.994,230.436,431.8,231.341z"/>
	<path fill="#63A1CE" d="M459.641,220.777c-0.056-0.203-0.151-0.411-0.264-0.637C459.459,220.375,459.532,220.574,459.641,220.777z"
		/>
	<path fill="#9ACEFC" d="M463.117,191.36c-2.939-6.931,0.264-25.049-10.936-38.375c-11.195-13.334-49.839-17.862-63.696-2.139
		c-13.862,15.728-11.195,42.375-19.365,54.371c-17.239,18.386-26.478,39.711-28.075,51.973
		c-1.598,12.252-12.265,21.854-23.988,42.643s-18.399,39.172-2.372,61.221c16.019,22.049,54.332,20.338,83.126,7.545
		c45.838-21.857,26.924-86.359,26.664-99.408c-0.226-10.391,7.818-15.227,8.502-27.102c-27.646,3.486-55.683-22.516-47.154-52.332
		c1.594,28.781,20.876,41.241,51.44,31.985c4.793,0,10.927,9.598,18.919,4.792c1.489-1.484,4.352-2.982,3.459-5.758
		c-0.108-0.203-0.182-0.402-0.264-0.637c0.112,0.226,0.208,0.434,0.264,0.637c1.009,2.238,2.84,2.771,4.797,2.811
		c0-0.273,0-0.568-0.069-0.85C477.971,217.734,470.576,200.686,463.117,191.36z"/>
	<path fill="#63A1CE" d="M355.362,378.783c-18.572,0-33.235-6.131-41.327-17.266c-16.997-23.396-8.598-42.713,2.316-62.09
		c4.454-7.854,8.688-14.062,12.429-19.525c6.096-8.918,10.494-15.377,11.473-22.824c1.676-12.854,11.065-34.036,28.283-52.41
		c3.294-4.84,4.818-12.589,6.438-20.789c2.233-11.412,4.779-24.335,12.919-33.561c5.728-6.511,16.364-10.238,29.136-10.238
		c14.936,0,29.638,5.095,35.768,12.381c7.715,9.195,8.741,20.685,9.503,29.088c0.334,3.892,0.646,7.265,1.507,9.395
		c5.688,7.143,10.494,17.564,8.468,24.824c-0.97,3.45-3.333,5.975-7.018,7.499c0.117,1.645-0.45,3.324-1.654,4.783
		c-2.194,2.654-6.043,4.238-10.303,4.238c-3.074,0-6.261-0.831-9.222-2.407c-0.606-0.182-1.299-0.272-2.052-0.272
		c-2.524,0-5.407,0.975-7.697,1.754c-0.567,0.182-1.083,0.371-1.567,0.52c2.87,12.135-0.58,18.762-3.624,24.615
		c-2.039,3.936-3.979,7.646-3.866,12.664c0.044,2,0.537,5.32,1.161,9.502c3.536,23.361,10.896,71.979-28.279,90.658
		C384.411,375.424,369.225,378.783,355.362,378.783z M417.028,141.678c-12.33,0-22.513,3.533-27.95,9.693
		c-7.84,8.905-10.338,21.607-12.546,32.816c-1.646,8.368-3.195,16.265-6.754,21.486c-16.953,18.104-26.348,39.423-27.949,51.618
		c-1.014,7.832-5.516,14.412-11.732,23.512c-3.724,5.445-7.94,11.615-12.339,19.422c-12.814,22.711-17.316,39.871-2.429,60.361
		c7.789,10.697,21.988,16.59,40.033,16.59c13.646,0,28.607-3.303,42.128-9.307c38.084-18.162,30.842-65.986,27.365-88.963
		c-0.641-4.252-1.143-7.594-1.187-9.711c-0.117-5.424,1.905-9.316,4.039-13.434c3.122-6.014,6.352-12.217,3.312-24.217l-0.195-0.767
		l0.753-0.221c0.663-0.183,1.407-0.438,2.23-0.702c2.415-0.822,5.429-1.844,8.217-1.844c0.935,0,1.81,0.13,2.589,0.363l0.151,0.061
		c2.749,1.473,5.697,2.252,8.533,2.252c3.731,0,7.212-1.407,9.078-3.654c1.073-1.299,1.489-2.736,1.225-4.139l-0.143-0.676
		l0.646-0.233c3.528-1.294,5.753-3.532,6.619-6.654c1.879-6.741-2.779-16.646-8.229-23.478l-0.117-0.178
		c-0.996-2.372-1.316-5.892-1.684-9.983c-0.719-8.187-1.719-19.399-9.118-28.201C445.73,146.54,431.522,141.678,417.028,141.678z"/>
	<path fill="#B2D7ED" d="M411.214,231.723c0.459,15.602-8.009,22.807-9.2,32.195c-1.203,9.395-14.788,23.586-10.199,50.375
		c-4.165,18.33-15.265,42.627-14.447,61.086c7.058-1.609,13.992-3.912,20.443-6.779c45.838-21.857,26.924-86.359,26.664-99.408
		c-0.286-13.074,12.52-17.33,7.325-37.851C431.8,231.341,421.422,235.307,411.214,231.723z"/>
	<path fill="#D4EDFF" d="M391.343,296.215c5.692,6.031,14.806,8.113,23.257,3.883c19.191-9.588,1.605-25.58,4.81-39.98
		c1.745-5.238,4.433-11.445,5.485-17.828c-4.888-0.363-9.65-1.576-14.127-3.516c-1.697,10.953-7.758,17.287-8.754,25.145
		C401.122,270.932,393.316,280.621,391.343,296.215z"/>
	<path fill="#86B8D1" d="M376.61,376.375l-0.044-0.965c-0.554-12.443,4.156-27.201,8.702-41.471
		c2.242-7.014,4.347-13.629,5.731-19.662c-3.203-18.934,2.512-31.535,6.693-40.752c1.706-3.762,3.183-7.018,3.524-9.719
		c0.484-3.797,2.121-7.256,3.849-10.902c2.645-5.559,5.628-11.854,5.355-21.165l-0.039-1.165l1.095,0.391
		c2.745,0.969,5.775,1.463,8.997,1.463c6.16,0,10.987-1.822,11.03-1.832l0.84-0.328l0.233,0.87
		c3.183,12.606-0.337,19.378-3.441,25.36c-2.039,3.936-3.979,7.646-3.866,12.664c0.044,2,0.537,5.32,1.161,9.502
		c3.536,23.361,10.896,71.979-28.279,90.658c-6.555,2.91-13.49,5.217-20.603,6.846L376.61,376.375z M412.032,232.83
		c0.034,9.061-2.918,15.27-5.516,20.764c-1.68,3.537-3.256,6.871-3.715,10.43c-0.372,2.926-1.888,6.285-3.649,10.164
		c-4.104,9.057-9.728,21.447-6.541,39.963l0.017,0.16l-0.034,0.166c-1.395,6.129-3.533,12.84-5.801,19.939
		c-4.382,13.768-8.91,28.002-8.659,39.969c6.693-1.594,13.188-3.781,19.356-6.516c38.084-18.162,30.842-65.986,27.365-88.963
		c-0.641-4.252-1.143-7.594-1.187-9.711c-0.117-5.424,1.905-9.316,4.039-13.434c3.044-5.861,6.204-11.918,3.511-23.387
		c-1.705,0.542-5.766,1.642-10.744,1.642C417.496,234.017,414.651,233.613,412.032,232.83z"/>
	<path fill="#63A1CE" d="M420.734,234.017c-7.94,0-17.223-2.767-25.682-11.104c-13.724-13.516-10.299-29.595-10.299-29.595
		c-0.026,0.156-1.711,15.512,11.411,28.452c12.438,12.238,27.105,11.247,36.379,8.498l0.498,1.52
		C429.665,232.791,424.977,234.017,420.734,234.017z"/>
	<path fill="#63A1CE" d="M451.047,224.938c-0.744,0-1.523-0.111-2.359-0.371c-4.095-1.243-3.429-7.33-3.429-7.33
		c-0.009,0.174-0.052,4.602,3.893,5.806c3.81,1.16,6.489-1.472,8.112-3.048l4.026-7.966l-2.454,7.719
		c0.805,1.144,3.078,3.567,6.9,1.528l0.767,1.402c-3.624,1.939-6.606,0.711-8.399-1.285
		C456.658,222.812,454.303,224.938,451.047,224.938z"/>
	<path fill="#FF9F9C" d="M449.315,204.348c2.736,1.065,8.857,6.537,11.927,6.866c4.131-1.065,6.469-5.723,6.806-8.2
		C467.234,200.088,451.714,197.958,449.315,204.348z"/>
	<path fill="#F9D4D4" d="M449.315,204.348c0.32,0.121,0.692,0.312,1.108,0.559c5.71-2.083,12.455-3.637,17.364-0.784
		c0.122-0.398,0.208-0.771,0.26-1.108C467.234,200.088,451.714,197.958,449.315,204.348z"/>
	<path fill="#EA7F7F" d="M461.29,212.028l-0.125-0.018c-2.039-0.221-4.944-2.234-7.75-4.178c-1.74-1.208-3.372-2.342-4.386-2.74
		l-0.74-0.281l0.282-0.74c1.116-2.987,4.822-4.685,10.165-4.685c3.797,0,9.434,1.057,10.074,3.416l0.043,0.16l-0.026,0.173
		c-0.39,2.901-3.013,7.715-7.386,8.845L461.29,212.028z M450.385,203.972c1.1,0.567,2.429,1.498,3.944,2.541
		c2.333,1.61,5.203,3.611,6.861,3.888c3.594-1.021,5.646-5.113,6.031-7.295c-0.507-0.792-3.866-2.125-8.485-2.125
		C454.632,200.98,451.584,202.08,450.385,203.972z"/>
	<path fill="#FFFFFF" d="M462.762,190.382c-6.359-4.866-11.914-14.875-8.182-22.676
		C462.053,165.376,470.637,177.035,462.762,190.382z"/>
	<path fill="#63A1CE" d="M462.996,191.577l-0.715-0.554c-7.104-5.451-12.195-15.776-8.424-23.664l0.16-0.312l0.324-0.104
		c0.71-0.225,1.45-0.342,2.195-0.342c3.178,0,6.247,2.026,8.182,5.424c3.018,5.282,2.567,12.295-1.269,18.78L462.996,191.577z
		 M455.151,168.372c-2.961,6.753,1.386,15.793,7.382,20.806c3.1-5.745,3.411-11.801,0.796-16.355
		C461.42,169.455,458.112,167.64,455.151,168.372z"/>
	<path fill="#B57400" d="M462.762,190.382c1.987-3.373,2.923-6.641,3.104-9.602c-1.299-3.818-3.697-6.347-5.857-5.922
		c-2.441,0.467-3.724,4.438-3.108,9.078C458.562,186.481,460.606,188.728,462.762,190.382z"/>
	<path fill="#63A1CE" d="M466.672,180.676l-0.053-0.147c-0.406-1.243-0.952-2.312-1.545-3.247c0.186,1.234,0.182,2.416-0.021,3.598
		v0.021c-0.182,2.745-1.022,5.528-2.52,8.277c-0.139-0.112-0.269-0.242-0.381-0.355c0.406,0.684,0.844,1.325,1.307,1.94
		c1.939-3.269,3.014-6.615,3.195-9.932L466.672,180.676z"/>
	<path fill="#190000" d="M464.845,183.992c0,2.818-1.178,5.104-2.598,5.104c-1.446,0-2.606-2.286-2.606-5.104
		c0-2.81,1.16-5.1,2.606-5.1C463.667,178.892,464.845,181.182,464.845,183.992z"/>
	<path fill="#63A1CE" d="M457.688,183.654l-0.018-0.035c-0.632-0.784-1.212-1.645-1.688-2.58c-0.03,0.952,0,1.952,0.139,3.004
		l0.121,0.325c1.688,2.615,3.775,4.918,6.039,6.654l0.715,0.554l0.454-0.771l0.009-0.043c-0.463-0.615-0.9-1.256-1.307-1.94
		C460.511,187.377,458.939,185.594,457.688,183.654z"/>
	<path fill="#7E3B02" d="M460.156,175.645c1.714-0.329,3.728,1.914,4.896,5.234c0.116-0.792,0.073-1.572,0.078-2.152
		c-1.434-2.693-3.325-4.42-5.156-4.061c-2.286,0.442-3.355,3.217-3.494,6.962c0.484,0.948,0.559,1.208,1.19,1.991
		C457.169,179.559,458.269,176.013,460.156,175.645z"/>
	<path fill="#BABABA" d="M407.356,185.395c-0.468,7.992,3.996,14.906,9.957,15.451c5.957,0.55,11.17-5.494,11.633-13.485
		c0.472-7.975-3.987-14.893-9.962-15.43C413.02,171.381,407.807,177.407,407.356,185.395z"/>
	<path fill="#FFFFFF" d="M407.356,185.395c-0.468,7.992,21.127,9.958,21.59,1.966c0.472-7.975-3.987-14.893-9.962-15.43
		C413.02,171.381,407.807,177.407,407.356,185.395z"/>
	<path fill="#63A1CE" d="M417.573,201.491L417.573,201.491l-0.329-0.035c-6.286-0.562-10.996-7.784-10.52-16.096
		c0.493-8.226,5.758-14.416,11.987-14.079l0.333,0.009c6.278,0.589,11.006,7.792,10.521,16.113
		C429.085,195.625,423.825,201.82,417.573,201.491z M418.639,172.528c-5.459-0.299-10.252,5.498-10.685,12.905
		c-0.441,7.646,3.774,14.282,9.411,14.785l0.277,0.026c5.473,0.29,10.27-5.494,10.711-12.918c0.433-7.646-3.793-14.278-9.425-14.789
		L418.639,172.528z"/>
	<path fill="#B57400" d="M411.313,186.771c-0.251,5.191,2.706,9.758,6.598,10.182c3.879,0.424,7.238-3.441,7.473-8.641
		c0.242-5.195-2.719-9.758-6.606-10.191C414.898,177.688,411.556,181.559,411.313,186.771z"/>
	<path fill="#945602" d="M411.278,187.196c0.022,5.19,14.152,5.905,14.131,0.701c0-5.208-3.187-9.585-7.073-9.775
		C414.404,177.918,411.253,181.975,411.278,187.196z"/>
	<path fill="#7E3B02" d="M410.776,186.702c0.112-2.589,1.013-4.953,2.477-6.637c1.515-1.762,3.48-2.598,5.55-2.377
		c0.845,0.091,1.663,0.364,2.434,0.797c2.991,1.684,4.861,5.671,4.658,9.888c-0.242,5.42-3.857,9.473-8.018,9.014
		c-0.832-0.095-1.654-0.346-2.407-0.801C412.465,194.91,410.577,190.932,410.776,186.702z M418.76,178.559
		c-1.688-0.195-3.342,0.524-4.649,2.048c-1.359,1.576-2.169,3.775-2.286,6.217c-0.182,3.918,1.48,7.568,4.147,9.07
		c0.623,0.351,1.281,0.559,1.939,0.636c3.619,0.39,6.719-3.307,6.962-8.269c0.173-3.931-1.485-7.559-4.161-9.065
		C420.093,178.844,419.427,178.632,418.76,178.559z"/>
	<path fill="#190000" d="M414.374,187.464c-0.42,2.996,1.204,5.854,3.589,6.381c2.416,0.52,4.693-1.48,5.092-4.489
		c0.398-3-1.183-5.849-3.59-6.368C417.054,182.459,414.781,184.459,414.374,187.464z"/>
	<path fill="#FFFFFF" d="M414.093,182.208c-0.667,0.97-0.281,2.238,0.861,2.796c1.13,0.559,2.598,0.208,3.26-0.779
		c0.667-0.996,0.265-2.26-0.874-2.805C416.188,180.849,414.738,181.212,414.093,182.208z"/>
	<path fill="#FFFFFF" d="M414.326,186.728c-0.372,0.554-0.139,1.273,0.494,1.593c0.658,0.32,1.484,0.104,1.853-0.45
		c0.381-0.545,0.16-1.282-0.484-1.593C415.521,185.958,414.699,186.166,414.326,186.728z"/>
	<path fill="#9ACEFC" d="M405.399,125.998c-2.991-19.387-11.784-30.989-16.823-41.18c-5.039-10.2-5.758-22.391-13.551-22.988
		c-6.797,1.394-17.395,22.183-19.391,44.574c-1.996,22.391,4.398,42.574,13.797,52.176c9.387,9.585,13.387,19.517,13.387,19.517
		l19.195-12.728C402.014,165.368,408.404,145.384,405.399,125.998z"/>
	<path fill="#63A1CE" d="M382.078,178.394c-0.035-0.104-4.065-9.909-13.222-19.256c-10.273-10.499-15.905-31.703-14.014-52.804
		c2.018-22.582,12.693-43.778,20.019-45.293l0.116-0.021l0.108,0.013c5.888,0.446,8.001,6.637,10.451,13.81
		c1.073,3.195,2.208,6.485,3.749,9.611c1.143,2.286,2.468,4.671,3.884,7.178c4.758,8.507,10.68,19.092,13.035,34.236
		c2.987,19.352-3.377,39.552-3.429,39.738l-1.537-0.48c0.073-0.19,6.316-20.04,3.372-39.006
		c-2.294-14.867-8.143-25.305-12.854-33.703c-1.415-2.528-2.753-4.923-3.9-7.252c-1.593-3.221-2.736-6.572-3.836-9.801
		c-2.333-6.849-4.187-12.278-8.939-12.728c-5.971,1.429-16.594,20.72-18.655,43.838c-1.844,20.651,3.606,41.371,13.577,51.544
		c9.395,9.598,13.386,19.36,13.567,19.785L382.078,178.394z"/>
	<path fill="#F2ADAD" d="M388.576,161.774c-3.55-25.781,8.234-46.176-13.75-79.996C356.163,101.857,363.346,146.977,388.576,161.774
		z"/>
	<path fill="#FFD2D2" d="M370.242,88.056c-9.997,17.49-6.953,45.284,6.194,62.683C376.602,128.872,383.849,105.91,370.242,88.056z"
		/>
	<path fill="#63A1CE" d="M389.598,163.294l-1.429-0.835c-12.386-7.248-21.317-22.192-23.932-39.933
		c-2.425-16.516,1.315-31.95,10-41.284l0.693-0.753l0.571,0.857c15.265,23.486,14.386,40.704,13.542,57.346
		c-0.39,7.368-0.771,15.014,0.329,22.975L389.598,163.294z M374.714,83.094c-7.857,9.057-11.187,23.604-8.896,39.197
		c2.438,16.59,10.516,30.625,21.755,37.924c-0.857-7.507-0.494-14.672-0.139-21.612C388.265,122.426,389.121,105.702,374.714,83.094
		z"/>
	<path fill="#7DBBEA" d="M421.53,258.377c-10.927-11.715-23.447-13.447-23.447-13.447l-33.188,4.537c0,0,0.155,14.17,14.265,22.912
		c11.589,7.193,23.045,3.463,25.858,7.865c-2.939,12.391,3.585,22.654,11.455,23.988c7.849,1.334,13.854-6.131,14.642-17.057
		C431.93,276.24,430.717,261.045,421.53,258.377z"/>
	<path fill="#9ACEFC" d="M421.53,258.377c-10.927-11.715-23.447-13.447-23.447-13.447l-33.188,4.537c0,0,0.822,9.494,14.927,18.254
		c11.594,7.186,27.335-1.057,30.123,3.342c-2.918,12.406,0.598,23.9,8.468,25.238c7.845,1.334,10.187-4.537,10.979-15.463
		C430.197,269.906,430.717,261.045,421.53,258.377z"/>
	<path fill="#63A1CE" d="M418.258,305.186c-0.628,0-1.273-0.061-1.914-0.156c-3.645-0.623-6.957-2.961-9.355-6.584
		c-3.277-4.932-4.299-11.479-2.836-18.041c-1.194-1.428-4.034-1.74-7.584-2.104c-4.78-0.512-11.343-1.203-17.828-5.238
		c-14.321-8.885-13.04-23.611-13.04-23.611c0,0.137,0.338,13.844,13.88,22.252c6.187,3.836,12.269,4.484,17.152,5
		c4.182,0.445,7.464,0.797,8.953,3.107l0.182,0.281l-0.082,0.334c-1.468,6.238-0.55,12.482,2.523,17.131
		c2.156,3.26,5.108,5.348,8.286,5.879c2.702,0.459,5.277-0.199,7.438-1.908c3.541-2.768,5.835-8.014,6.294-14.412
		c0.425-5.824,1.035-25.049-9.021-27.949l-0.208-0.074l-0.147-0.16c-10.585-11.359-22.867-13.188-22.979-13.209
		c0,0,13.04,0.303,24.001,11.961c10.685,3.338,10.512,21.746,9.949,29.553c-0.494,6.84-3.005,12.512-6.901,15.562
		C423.011,304.375,420.69,305.186,418.258,305.186z"/>
	<path fill="#63A1CE" d="M405.157,284.621l-1.61-0.096c0.55-10.064,7.087-14.234,7.087-14.234
		C410.577,270.34,405.668,275.219,405.157,284.621z"/>
	<path fill="#63A1CE" d="M412.317,302.898l-1.039-1.221c6.218-5.229,5.932-19.004,5.932-19.16
		C417.21,282.518,419.106,297.176,412.317,302.898z"/>
	<path fill="#63A1CE" d="M422.318,304.232l-1.303-0.9c5.996-8.684,4.203-19.188,4.199-19.283
		C425.215,284.049,428.699,295.033,422.318,304.232z"/>
	<path fill="#7DBBEA" d="M401.876,366.449c25.871-22.807,11.126-59.953-8.062-68.156c-19.191-8.191-38.772,1.805-38.772,1.805
		l-49.375,28.379c-4.195,21.395,12.395,41.18,24.325,44.682c-2.061,2.594-4.735,9.686,11.257,15.49
		c15.983,5.801,55.864,9.996,67.255,2.395c2.61-0.398,11.598-1.1,12.395-7.082C421.297,375.258,411.997,366.453,401.876,366.449z"/>
	<path fill="#9ACEFC" d="M397.019,352.867c14.841-14.84,12.615-42.201-4.797-55.207c-18.668-7.012-37.18,2.438-37.18,2.438
		l-49.375,28.379c-1.19,6.086-0.715,12.035,0.878,17.508c4.195,7.896,10.78,14.352,20.105,18.074
		C350.644,372.062,379.424,372.062,397.019,352.867z"/>
	<path fill="#9ACEFC" d="M407.59,367.375c-15.208,20.174-47.82,9.754-69.748,12.672c-0.797,4.805,4.836,7.896,8.286,10.121
		c18.074,4.945,52.007,7.793,62.376,0.875c2.61-0.398,11.598-1.1,12.395-7.082C421.219,376.938,415.227,369.859,407.59,367.375z"/>
	<path fill="#63A1CE" d="M385.598,395.957c-15.983,0-34.998-3.066-44.626-6.555c-7.559-2.736-11.953-6.117-13.065-10.023
		c-0.701-2.463,0.078-4.527,0.831-5.791c-12.693-4.541-27.872-24.807-23.854-45.258l1.559,0.311
		c-4.226,21.586,12.996,40.592,23.781,43.752l1.129,0.328l-0.727,0.928c-0.606,0.752-1.896,2.779-1.19,5.299
		c0.948,3.334,5.13,6.434,12.074,8.953c16.728,6.061,55.916,9.576,66.558,2.484l0.32-0.121l0.775-0.113
		c3.073-0.414,10.303-1.402,10.939-6.303c0.165-3.49-1.472-7.338-4.463-10.477c-3.642-3.836-8.784-6.121-13.763-6.131h-2.104
		l1.585-1.395c10.676-9.42,15.316-22.342,13.048-36.4c-2.169-13.584-10.771-26.088-20.901-30.408
		c-18.633-7.957-37.916,1.68-38.106,1.771c0,0,19.43-11.494,38.726-3.252c10.619,4.537,19.594,17.543,21.867,31.635
		c2.251,13.982-2.069,26.896-12.174,36.564c4.779,0.516,9.516,2.861,12.987,6.516c3.299,3.455,5.083,7.723,4.9,11.715
		c-0.817,6.182-8.883,7.277-12.329,7.75l-0.58,0.086C404.179,394.783,395.477,395.957,385.598,395.957z"/>
	<path fill="#63A1CE" d="M409.235,391.371l-1.463-0.641c1.723-3.965,1.956-7.459,0.701-10.389c-1.818-4.262-6.191-5.92-6.247-5.928
		c0,0,5.632,0.412,7.719,5.295C411.374,383.064,411.148,386.99,409.235,391.371z"/>
	<path fill="#63A1CE" d="M383.806,374.201c0.143-0.021,14.901-2.918,23.234-14.424l1.304,0.943
		C399.607,372.734,383.806,374.201,383.806,374.201z"/>
	<path fill="#63A1CE" d="M320.901,369.012l0.97-1.27c12.247,9.387,32.452,10.045,32.66,10.053
		C354.531,377.795,333.543,378.713,320.901,369.012z"/>
	<path fill="#FFFFFF" d="M462.464,179.403c0,0.97-0.775,1.74-1.745,1.74c-0.952,0-1.744-0.771-1.744-1.74s0.792-1.74,1.744-1.74
		C461.688,177.663,462.464,178.433,462.464,179.403z"/>
	<path fill="#FFFFFF" d="M461.762,183.23c0,0.593-0.484,1.065-1.068,1.065c-0.581,0-1.053-0.472-1.053-1.065
		c0-0.571,0.472-1.048,1.053-1.048C461.277,182.182,461.762,182.659,461.762,183.23z"/>
</g>
</svg>
