<?xml version="1.0" encoding="utf-8"?>
<!-- Generator: Adobe Illustrator 16.0.0, SVG Export Plug-In . SVG Version: 6.00 Build 0)  -->
<!DOCTYPE svg PUBLIC "-//W3C//DTD SVG 1.1//EN" "http://www.w3.org/Graphics/SVG/1.1/DTD/svg11.dtd">
<svg version="1.1" id="Layer_2" xmlns="http://www.w3.org/2000/svg" xmlns:xlink="http://www.w3.org/1999/xlink" x="0px" y="0px"
	 width="768px" height="430px" viewBox="0 0 768 430" enable-background="new 0 0 768 430" xml:space="preserve">
<g>
	<g>
		<path fill="#C51A13" d="M493.474,326.618c2.228,6.602,18.133,2.951,28.52,7.697c10.388,4.749,19.483,14.925,20.304,22.819
			c4.232-9.945,0.408-24.775-12.926-31.874c-13.334-7.097-30.062-5.393-32.943-3.271
			C495.07,322.947,493.484,324.561,493.474,326.618z"/>
		<path fill="#D61A13" d="M495.728,325.097c4.683,4.617,18.126,1.021,28.514,5.771c10.385,4.746,18.382,17.959,18.056,26.268
			c4.232-9.945,0.408-24.775-12.926-31.874c-13.334-7.097-30.062-5.393-32.943-3.271
			C495.07,322.947,495.738,323.039,495.728,325.097z"/>
		<path fill="#E81A13" d="M497.521,323.971c3.862,2.985,17.994-0.042,28.383,4.703c10.386,4.75,17.686,15.925,16.393,28.461
			c4.232-9.945,0.408-24.775-12.926-31.874c-13.334-7.097-30.062-5.393-32.943-3.271
			C495.07,322.947,497.521,323.971,497.521,323.971z"/>
		<path fill="#ED6E6E" d="M525.03,325.123c-8.076-3.316-17.818-5.971-26.395-4.039c5.67-1.528,19.422-1.844,30.735,4.177
			c12.942,6.888,16.923,21.059,13.279,30.98C546.281,343.934,538.036,330.104,525.03,325.123z"/>
		<path fill="#7F0007" d="M541.895,357.148c-0.804-7.731-9.812-17.842-20.08-22.534c-2.319-1.059-5.094-1.786-8.735-2.288
			c-2.113-0.29-4.238-0.468-6.297-0.641c-1.907-0.159-3.707-0.311-5.364-0.539c-3.544-0.486-7.303-1.396-8.331-4.448l-0.018-0.097
			c0.013-2.358,1.942-4.067,3.086-4.874c1.9-1.397,9.354-2.673,18.406-1.43c5.572,0.768,10.623,2.341,15.014,4.678
			c13.516,7.193,17.327,22.361,13.104,32.289l-0.618,1.456L541.895,357.148z M496.694,322.257c-1.038,0.732-2.777,2.265-2.816,4.329
			c0.733,2.09,3.021,3.253,7.631,3.888c1.635,0.224,3.423,0.375,5.315,0.532c2.069,0.175,4.209,0.354,6.349,0.647
			c3.736,0.515,6.596,1.266,9,2.365c9.834,4.495,18.54,13.883,20.274,21.584c3.214-9.65-0.74-23.38-13.278-30.056
			c-4.293-2.283-9.239-3.823-14.7-4.574C505.774,319.776,498.444,320.971,496.694,322.257z"/>
	</g>
	<g>
		<path fill="#C51A13" d="M472.576,339.296c0.748,5.318,7.678,5.587,8.732,12.113c1.057,6.526-3.844,16.949-12.301,23.376
			c11.484,1.797,24.406-5.481,25.745-20.847c1.339-15.366-15.447-20.923-19.261-20.236
			C473.267,334.55,472.186,337.863,472.576,339.296z"/>
		<path fill="#D61A13" d="M479.839,370.309c9.904-12.296,6.054-27.529-7.235-32.637c0.312-1.531,1.312-3.369,2.889-3.97
			c3.813-0.687,20.6,4.87,19.261,20.236c-0.384,4.402-1.723,8.138-3.701,11.19C487.974,368.048,484.485,370.354,479.839,370.309z"/>
		<path fill="#E81A13" d="M485.307,367.006c8.323-13.578-0.081-25.373-11.91-31.368c0.503-0.853,1.202-1.596,2.096-1.936
			c3.813-0.687,20.6,4.87,19.261,20.236c-0.238,2.733-0.847,5.209-1.745,7.424C490.945,363.86,488.975,366.472,485.307,367.006z"/>
		<path fill="#ED6E6E" d="M489.864,362.113c1.985-5.9,3.653-17.839-9.708-24.792C492.229,339.665,493.902,353.142,489.864,362.113z"
			/>
		<path fill="#7F0007" d="M468.959,375.102l-0.742-0.117l0.598-0.453c8.752-6.651,13.138-17.154,12.18-23.072
			c-0.533-3.291-2.618-4.935-4.637-6.523c-1.916-1.508-3.725-2.932-4.091-5.556c-0.456-1.675,0.782-5.09,3.168-5.99
			c0.422-0.078,0.967-0.082,1.617-0.017c5.243,0.527,19.257,6.387,18.021,20.593c-0.586,6.717-3.392,12.336-8.113,16.246
			c-4.604,3.816-10.72,5.654-16.774,5.047C469.776,375.217,469.365,375.163,468.959,375.102z M475.604,334.001
			c-2.053,0.784-3.069,3.933-2.713,5.25c0.34,2.409,2.051,3.757,3.861,5.183c2.016,1.588,4.299,3.389,4.872,6.925
			c1.121,6.935-4.04,16.998-11.825,23.214c6.045,0.73,12.163-1.052,16.751-4.851c4.588-3.802,7.315-9.268,7.883-15.811
			c1.196-13.729-12.368-19.393-17.447-19.901C476.404,333.95,475.907,333.953,475.604,334.001z"/>
	</g>
	<g>
		<path fill="#C51A13" d="M322.053,326.735c-4.259,7.239-16.397-2.344-32.793,0c-16.397,2.341-28.536,11.073-32.793,19.164
			c0-22.359,35.775-42.163,61.541-28.108C322.479,320.985,323.078,325.442,322.053,326.735z"/>
		<path fill="#D61A13" d="M322.11,324.385c-4.258,7.239-15.07-4.465-31.467-2.122c-16.396,2.344-28.428,9.218-34.177,23.637
			c0-22.359,35.775-42.163,61.541-28.108C322.479,320.985,323.135,323.091,322.11,324.385z"/>
		<path fill="#E81A13" d="M321.46,322.27c-2.696,2.2-14.419-4.479-30.816-2.136c-16.396,2.342-28.473,9.846-34.177,25.766
			c0-22.359,35.775-42.163,61.541-28.108C322.479,320.985,322.483,320.976,321.46,322.27z"/>
		<path fill="#ED6E6E" d="M286.015,316.314c10.421-3.316,22.732-2.278,32.292,1.691c-0.101-0.074-0.194-0.139-0.3-0.215
			c-24.414-13.316-57.805,3.763-61.247,24.611C261.363,329.492,272.85,320.155,286.015,316.314z"/>
		<path fill="#7F0007" d="M256.146,347.193v-1.294c0-17.03,20.818-33.134,42.837-33.134c6.953,0,13.404,1.596,19.177,4.745
			c2.536,1.809,4.237,4.338,4.583,6.784c0.159,1.124-0.001,2.086-0.439,2.639c-1.145,1.951-2.966,2.876-5.707,2.876
			c-2.198,0-4.816-0.567-7.847-1.228c-4.115-0.894-8.778-1.907-14.062-1.907c-1.828,0-3.639,0.126-5.383,0.376
			c-16.849,2.406-28.492,11.275-32.557,18.997L256.146,347.193z M298.984,313.404c-21.137,0-41.152,14.996-42.159,31.219
			c4.633-7.581,16.128-15.882,32.389-18.206c1.774-0.253,3.616-0.382,5.474-0.382c5.352,0,10.052,1.022,14.197,1.923
			c2.996,0.651,5.583,1.214,7.712,1.214c2.526,0,4.124-0.802,5.182-2.6c0.35-0.446,0.465-1.25,0.332-2.188
			c-0.321-2.279-1.924-4.645-4.288-6.334C312.177,314.975,305.829,313.404,298.984,313.404z"/>
	</g>
	<g>
		<path fill="#C51A13" d="M341.112,321.518c-7.134,1.598-12.671,4.473-17.143,7.56c-4.792,3.088-14.586-10.008-8.411-14.905
			c4.472-2.663,19.59-1.598,22.466-1.598C339.728,313.639,342.603,318.962,341.112,321.518z"/>
		<path fill="#D61A13" d="M340.148,316.726c-7.134,1.598-12.873,4.046-17.345,7.136c-4.791,3.087-13.419-4.792-7.244-9.689
			c4.472-2.663,19.59-1.598,22.466-1.598C339.728,313.639,341.639,314.171,340.148,316.726z"/>
		<path fill="#E81A13" d="M339.515,314.703c-7.134,1.597-13.264,2.933-17.735,6.021c-4.792,3.089-12.396-1.654-6.221-6.552
			c4.472-2.663,19.59-1.598,22.466-1.598C339.728,313.639,341.006,312.147,339.515,314.703z"/>
		<path fill="#ED6E6E" d="M322.531,313.798c5.077,0,10.313-0.696,15.391-1.226c-3.098-0.021-17.939-1.035-22.363,1.6
			c-1.772,1.404-2.406,2.796-2.3,3.995C314.988,314.592,318.89,313.798,322.531,313.798z"/>
		<path fill="#7F0007" d="M322.345,329.863c-3.012,0-6.983-3.819-8.501-8.17c-1.156-3.32-0.618-6.08,1.517-7.771
			c2.128-1.271,6.561-1.877,13.583-1.877c2.643,0,5.092,0.086,6.881,0.148c0.98,0.035,1.744,0.062,2.2,0.062h0.091l0.077,0.048
			c1.729,1.081,4.815,6.6,3.195,9.377l-0.071,0.121l-0.136,0.029c-6.128,1.371-11.699,3.828-17.031,7.51
			C323.611,329.689,323.006,329.863,322.345,329.863z M328.943,312.684c-6.808,0-11.256,0.593-13.221,1.762
			c-2.535,2.016-1.889,5.274-1.274,7.036c1.412,4.052,5.176,7.743,7.897,7.743c0.536,0,1.024-0.142,1.451-0.416
			c5.351-3.695,10.95-6.175,17.105-7.571c1.219-2.403-1.481-7.308-2.974-8.345c-0.467-0.003-1.201-0.028-2.126-0.062
			C334.018,312.769,331.575,312.684,328.943,312.684z"/>
	</g>
	<g>
		<path fill="#C51A13" d="M353.038,332.484c-7.134,1.598-11.838,8.888-16.31,11.975c-4.791,3.09-13.929-8.142-7.753-13.039
			c4.472-2.662,13.735-2.874,20.124-7.559C350.801,324.925,354.527,329.931,353.038,332.484z"/>
		<path fill="#D61A13" d="M351.973,329.979c-7.134,1.596-12.351,7.296-16.824,10.384c-4.791,3.088-12.35-4.046-6.174-8.943
			c4.472-2.662,13.735-2.874,20.124-7.559C350.801,324.925,353.463,327.424,351.973,329.979z"/>
		<path fill="#E81A13" d="M350.482,327.744c-7.134,1.597-11.897,7.082-16.369,10.17c-4.792,3.09-11.314-1.597-5.139-6.494
			c4.472-2.662,13.735-2.874,20.124-7.559C350.801,324.925,351.973,325.189,350.482,327.744z"/>
		<path fill="#ED6E6E" d="M328.975,331.42c-2.843,2.255-2.992,4.463-1.859,5.889c0.343-2.342,2.668-5.438,4.627-5.925
			c7.304-1.828,12.878-2.888,18.226-6.999c-0.264-0.161-0.559-0.329-0.871-0.523C342.71,328.546,333.447,328.758,328.975,331.42z"/>
		<path fill="#7F0007" d="M334.884,345.308c-2.931,0-6.512-3.17-7.819-6.922c-1.017-2.917-0.392-5.547,1.711-7.216
			c1.925-1.149,4.674-1.852,7.587-2.597c4.147-1.059,8.851-2.261,12.546-4.97l0.174-0.129l0.185,0.115
			c1.704,1.065,5.709,6.205,4.046,9.056l-0.07,0.121l-0.137,0.029c-4.693,1.052-8.351,4.649-11.579,7.823
			c-1.605,1.58-3.122,3.07-4.619,4.103C336.304,345.112,335.625,345.308,334.884,345.308z M349.104,324.25
			c-3.765,2.689-8.446,3.886-12.584,4.943c-2.866,0.732-5.572,1.423-7.381,2.501c-2.537,2.016-2.012,4.927-1.471,6.48
			c1.206,3.46,4.577,6.494,7.216,6.494c0.616,0,1.178-0.161,1.67-0.478c1.442-0.997,2.939-2.469,4.525-4.028
			c3.257-3.202,6.944-6.828,11.747-7.957C353.96,329.926,350.85,325.502,349.104,324.25z"/>
	</g>
	<g>
		<path fill="#C51A13" d="M333.766,342.388c-2.449,5.855-14.48,0.425-23.105,3.512c-8.625,3.089-16.823,11.394-18.313,18.635
			c-2.236-9.796,2.343-23.106,13.522-28.003c11.18-4.897,24.062-1.171,26.086,1.171
			C332.914,338.767,333.979,340.471,333.766,342.388z"/>
		<path fill="#D61A13" d="M332.168,340.682c-4.152,3.698-14.267-1.366-22.891,1.721c-8.625,3.088-16.291,14.358-16.93,22.132
			c-2.236-9.796,2.343-23.106,13.522-28.003c11.18-4.897,24.062-1.171,26.086,1.171
			C332.914,338.767,332.382,338.766,332.168,340.682z"/>
		<path fill="#E81A13" d="M330.888,339.404c-3.336,2.284-14.052-2.343-22.676,0.746s-15.527,12.553-15.865,24.384
			c-2.236-9.796,2.343-23.106,13.522-28.003c11.18-4.897,24.062-1.171,26.086,1.171
			C332.914,338.767,330.888,339.404,330.888,339.404z"/>
		<path fill="#ED6E6E" d="M309.277,336.956c6.663-2.051,14.559-3.274,21.05-0.38c-4.264-2.146-14.972-4.201-24.458-0.045
			c-10.85,4.752-15.481,17.429-13.702,27.126C290.655,351.74,298.581,339.926,309.277,336.956z"/>
		<path fill="#7F0007" d="M292.363,366.039l-0.327-1.435c-2.232-9.777,2.374-23.402,13.705-28.366
			c3.681-1.612,7.796-2.43,12.23-2.43c7.204,0,12.891,2.14,14.226,3.685c0.806,0.896,2.13,2.733,1.886,4.93l-0.023,0.088
			c-1.132,2.707-4.166,3.073-6.985,3.073c-1.321,0-2.744-0.09-4.25-0.186c-1.625-0.103-3.306-0.209-4.988-0.209
			c-2.897,0-5.144,0.322-7.069,1.011c-8.525,3.053-16.648,11.307-18.108,18.397L292.363,366.039z M317.972,334.446
			c-4.345,0-8.375,0.8-11.974,2.377c-10.511,4.604-15.077,16.874-13.603,26.264c2.181-6.942,9.993-14.563,18.158-17.487
			c1.997-0.716,4.311-1.048,7.284-1.048c1.703,0,3.393,0.105,5.028,0.209c1.496,0.096,2.908,0.185,4.209,0.185
			c3.669,0,5.581-0.791,6.378-2.639c0.192-1.928-1.001-3.577-1.734-4.391C330.491,336.494,324.894,334.446,317.972,334.446z"/>
	</g>
	<g>
		<path fill="#C51A13" d="M354.741,347.71c-1.278,5.218-8.199,4.792-9.902,11.18c-1.704,6.39,2.13,17.249,9.902,24.489
			c-11.606,0.64-23.736-7.896-23.531-23.317c0.205-15.423,17.462-19.272,21.188-18.207
			C354.527,342.919,355.272,346.324,354.741,347.71z"/>
		<path fill="#D61A13" d="M344.413,377.842c-8.625-13.226-3.271-27.998,10.461-31.751c-0.156-1.553-0.966-3.482-2.476-4.236
			c-3.727-1.065-20.983,2.784-21.188,18.207c-0.059,4.419,0.899,8.271,2.564,11.504
			C336.544,374.779,339.784,377.422,344.413,377.842z"/>
		<path fill="#E81A13" d="M339.302,374.008c-6.924-14.343,2.618-25.237,14.988-30.02c-0.414-0.898-1.036-1.707-1.892-2.134
			c-3.727-1.065-20.983,2.784-21.188,18.207c-0.036,2.743,0.321,5.267,0.993,7.561C334.006,370.313,335.706,373.111,339.302,374.008
			z"/>
		<path fill="#ED6E6E" d="M335.257,368.685c-1.385-6.068-1.851-18.114,12.138-23.696
			C335.149,346.113,332.135,359.354,335.257,368.685z"/>
		<path fill="#7F0007" d="M353.521,383.731c-6.085,0-11.983-2.441-16.185-6.697c-4.307-4.365-6.536-10.235-6.446-16.977
			c0.19-14.26,14.717-18.688,19.988-18.688c0.654,0,1.195,0.061,1.607,0.179c2.284,1.136,3.174,4.656,2.553,6.277
			c-0.627,2.573-2.569,3.81-4.625,5.119c-2.167,1.379-4.408,2.807-5.267,6.028c-1.544,5.792,1.768,16.679,9.812,24.172l0.549,0.512
			l-0.749,0.041C354.348,383.72,353.934,383.731,353.521,383.731z M350.879,342.009c-5.101,0-19.166,4.278-19.35,18.057
			c-0.087,6.566,2.078,12.278,6.262,16.519c4.186,4.24,10.097,6.626,16.182,6.505c-7.124-6.964-11.253-17.493-9.443-24.281
			c0.923-3.462,3.377-5.024,5.541-6.403c1.944-1.237,3.781-2.407,4.359-4.771c0.488-1.273-0.208-4.511-2.174-5.494
			C351.96,342.062,351.465,342.009,350.879,342.009z"/>
	</g>
	<g>
		<path fill="#C51A13" d="M376.354,341.688c-6.387,0.699-18.951,7.62-22.04,10.281c-3.353,0.239-7.134-8.73-4.366-12.139
			c3.514-0.958,14.907,0.106,20.976-2.555C376.462,335.146,378.166,340.564,376.354,341.688z"/>
		<path fill="#D61A13" d="M374.758,339.512c-6.388,0.697-17.716,6.721-20.804,9.381c-3.353,0.241-6.773-5.653-4.005-9.062
			c3.514-0.958,14.907,0.106,20.976-2.555C376.462,335.146,376.569,338.389,374.758,339.512z"/>
		<path fill="#E81A13" d="M374.225,338.854c-6.387,0.699-17.429,4.385-20.516,7.045c-3.353,0.241-6.528-2.66-3.76-6.068
			c3.514-0.958,14.907,0.106,20.976-2.555C376.462,335.146,376.036,337.731,374.225,338.854z"/>
		<path fill="#7F0007" d="M354.182,352.294c-1.472,0-3.055-1.479-4.233-3.954c-1.302-2.738-1.937-6.631-0.248-8.71l0.065-0.079
			l0.099-0.027c1.333-0.363,3.736-0.442,6.521-0.535c4.739-0.156,10.637-0.351,14.411-2.006c0.896-0.345,1.737-0.517,2.51-0.517
			c2.311,0,3.559,1.508,3.928,2.802c0.325,1.143,0.041,2.227-0.711,2.693l-0.134,0.046c-6.391,0.698-18.939,7.683-21.866,10.205
			l-0.081,0.069l-0.105,0.007C354.287,352.292,354.234,352.294,354.182,352.294z M350.134,340.113
			c-1.432,1.887-0.81,5.426,0.392,7.951c1.039,2.182,2.473,3.591,3.657,3.591c0.003,0,0.006,0,0.009,0
			c3.109-2.607,15.587-9.523,22.051-10.275c0.455-0.333,0.612-1.117,0.38-1.938c-0.323-1.13-1.363-2.337-3.315-2.337
			c-0.694,0-1.457,0.157-2.268,0.47c-3.872,1.697-9.837,1.896-14.632,2.053C353.734,339.716,351.417,339.792,350.134,340.113z"/>
	</g>
	<g>
		<path fill="#C51A13" d="M508.973,306.699c7.15,4.407,13.394-9.742,28.982-15.343c15.588-5.6,30.401-3.562,37.949,1.599
			c-10.46-19.763-51.344-20.529-67.54,3.947C505.904,301.816,507.461,306.036,508.973,306.699z"/>
		<path fill="#D61A13" d="M507.82,304.648c7.152,4.407,11.231-10.995,26.818-16.596c15.588-5.601,29.439-5.152,41.266,4.902
			c-10.46-19.763-51.344-20.529-67.54,3.947C505.904,301.816,506.311,303.985,507.82,304.648z"/>
		<path fill="#E81A13" d="M507.408,302.476c3.41,0.683,10.647-10.705,26.233-16.306c15.589-5.6,29.772-4.618,42.263,6.785
			c-10.46-19.763-51.344-20.529-67.54,3.947C505.904,301.816,505.897,301.812,507.408,302.476z"/>
		<path fill="#ED6E6E" d="M535.947,280.63c-10.761,1.944-21.157,8.621-27.749,16.602c0.055-0.111,0.105-0.212,0.166-0.329
			c15.346-23.191,52.849-23.717,65.645-6.9C563.9,280.744,549.38,277.865,535.947,280.63z"/>
		<path fill="#7F0007" d="M575.725,293.218c-7.205-4.923-21.644-7.315-37.662-1.561c-1.658,0.596-3.316,1.332-4.932,2.187
			c-4.671,2.472-8.319,5.55-11.538,8.265c-2.37,2-4.418,3.729-6.361,4.758c-2.421,1.281-4.464,1.315-6.387,0.125
			c-0.648-0.284-1.24-1.059-1.624-2.125c-0.84-2.323-0.52-5.355,0.876-8.14c3.627-5.484,8.583-9.913,14.729-13.166
			c19.46-10.302,45.395-5.809,53.362,9.245l0.604,1.143L575.725,293.218z M508.646,297.045c-1.297,2.599-1.606,5.441-0.826,7.604
			c0.322,0.892,0.801,1.549,1.319,1.778c1.775,1.094,3.562,1.055,5.793-0.127c1.883-0.995,3.907-2.702,6.248-4.679
			c3.245-2.736,6.921-5.838,11.651-8.342c1.64-0.869,3.327-1.617,5.016-2.224c15.458-5.554,29.501-3.595,37.143,0.938
			c-8.48-13.866-33.185-17.758-51.866-7.868C517.074,287.326,512.198,291.687,508.646,297.045z"/>
	</g>
	<g>
		<path fill="#C51A13" d="M486.332,314.259c8.478-2.743,15.832-3.432,22.136-3.312c6.649-0.067,11.057-17.303,2.052-18.024
			c-6.102,0.257-21.965,9.989-25.078,11.662C484.103,306.515,483.508,312.875,486.332,314.259z"/>
		<path fill="#D61A13" d="M485.108,309.477c8.478-2.743,15.852-3.924,22.154-3.805c6.648-0.067,12.262-12.028,3.257-12.75
			c-6.102,0.257-21.965,9.989-25.078,11.662C484.103,306.515,482.284,308.093,485.108,309.477z"/>
		<path fill="#E81A13" d="M484.836,307.327c8.479-2.743,15.748-5.133,22.051-5.014c6.649-0.068,12.638-8.67,3.633-9.392
			c-6.102,0.257-21.965,9.989-25.078,11.662C484.103,306.515,482.012,305.944,484.836,307.327z"/>
		<path fill="#ED6E6E" d="M502.796,296.648c-5.498,2.954-11.497,5.387-17.245,7.874c3.344-1.82,18.933-11.348,24.969-11.601
			c2.582,0.207,3.928,1.065,4.382,2.181C511.336,292.959,506.737,294.53,502.796,296.648z"/>
		<path fill="#7F0007" d="M508.397,311.283c-7.517-0.143-14.709,0.935-21.994,3.291l-0.161,0.053l-0.134-0.065
			c-3.067-1.504-2.34-8.16-0.978-10.118l0.058-0.087l0.101-0.054c0.494-0.267,1.31-0.733,2.353-1.333
			c1.907-1.098,4.521-2.599,7.38-4.134c7.604-4.086,12.688-6.13,15.595-6.25c3.11,0.25,5.001,2.368,5.32,5.963
			c0.418,4.717-2.075,10.392-5.336,12.143C509.885,311.077,509.148,311.275,508.397,311.283z M487.969,303.519
			c-0.984,0.565-1.768,1.017-2.273,1.29c-1.123,1.782-1.725,7.674,0.731,9.081c7.324-2.351,14.56-3.425,22.103-3.281
			c0.593-0.007,1.187-0.166,1.769-0.479c2.947-1.583,5.274-7.022,4.885-11.414c-0.169-1.908-1.013-5.156-4.711-5.455
			c-2.682,0.111-7.776,2.178-15.148,6.14C492.477,300.929,489.87,302.424,487.969,303.519z"/>
	</g>
	<g>
		<path fill="#C51A13" d="M457.864,334.43c7.134,1.597,11.837,8.887,16.308,11.975c4.793,3.087,13.931-8.142,7.756-13.041
			c-4.473-2.661-13.735-2.874-20.124-7.559C460.101,326.87,456.373,331.873,457.864,334.43z"/>
		<path fill="#D61A13" d="M458.929,331.923c7.132,1.599,12.351,7.296,16.821,10.385c4.794,3.089,12.353-4.045,6.178-8.944
			c-4.473-2.661-13.735-2.874-20.124-7.559C460.101,326.87,457.438,329.368,458.929,331.923z"/>
		<path fill="#E81A13" d="M460.42,329.689c7.134,1.597,11.897,7.081,16.368,10.17c4.791,3.087,11.314-1.597,5.14-6.496
			c-4.473-2.661-13.735-2.874-20.124-7.559C460.101,326.87,458.929,327.134,460.42,329.689z"/>
		<path fill="#ED6E6E" d="M481.928,333.363c2.841,2.256,2.988,4.464,1.858,5.891c-0.345-2.342-2.668-5.437-4.628-5.927
			c-7.304-1.826-12.879-2.888-18.226-6.998c0.264-0.16,0.558-0.328,0.871-0.524C468.192,330.489,477.455,330.702,481.928,333.363z"
			/>
		<path fill="#7F0007" d="M473.992,346.667c-1.496-1.033-3.014-2.524-4.618-4.104c-3.229-3.173-6.888-6.771-11.58-7.822
			l-0.138-0.029l-0.068-0.122c-1.663-2.851,2.341-7.99,4.046-9.056l0.183-0.114l0.177,0.127c3.693,2.71,8.396,3.912,12.545,4.972
			c2.913,0.744,5.663,1.448,7.588,2.596c2.104,1.671,2.728,4.299,1.711,7.214c-1.309,3.754-4.89,6.925-7.82,6.925
			C475.275,347.253,474.598,347.058,473.992,346.667z M458.076,334.15c4.803,1.129,8.489,4.755,11.746,7.958
			c1.586,1.559,3.082,3.031,4.523,4.027c0.495,0.317,1.055,0.479,1.671,0.479c2.639,0,6.011-3.035,7.217-6.495
			c0.54-1.554,1.066-4.466-1.469-6.48c-1.812-1.077-4.518-1.769-7.385-2.5c-4.138-1.058-8.818-2.254-12.584-4.944
			C460.052,327.448,456.941,331.87,458.076,334.15z"/>
	</g>
	<g>
		<path fill="#C51A13" d="M476.268,322.667c7.299,0.409,13.129,6.833,18.047,9.149c5.23,2.265,12.411-10.307,5.52-14.131
			c-4.849-1.896-14.021-0.593-21.09-4.171C477.239,314.844,474.38,320.389,476.268,322.667z"/>
		<path fill="#D61A13" d="M476.907,320.019c7.3,0.412,13.379,5.183,18.295,7.498c5.232,2.265,11.523-6.007,4.632-9.831
			c-4.849-1.896-14.021-0.593-21.09-4.171C477.239,314.844,475.021,317.742,476.907,320.019z"/>
		<path fill="#E81A13" d="M478.015,317.572c7.3,0.409,12.894,5.043,17.81,7.36c5.232,2.264,10.901-3.423,4.01-7.247
			c-4.849-1.896-14.021-0.593-21.09-4.171C477.239,314.844,476.127,315.295,478.015,317.572z"/>
		<path fill="#ED6E6E" d="M499.834,317.686c3.173,1.759,3.679,3.914,2.797,5.507c-0.724-2.255-3.521-4.928-5.534-5.091
			c-7.504-0.609-13.177-0.746-19.124-3.929c0.232-0.2,0.496-0.415,0.771-0.658C485.813,317.093,494.985,315.789,499.834,317.686z"/>
		<path fill="#7F0007" d="M494.179,332.104c-1.646-0.774-3.386-1.997-5.228-3.294c-3.702-2.604-7.899-5.556-12.7-5.825l-0.14-0.007
			l-0.088-0.107c-2.108-2.542,1.004-8.268,2.511-9.596l0.161-0.144l0.196,0.097c4.087,2.071,8.922,2.488,13.189,2.857
			c2.993,0.257,5.821,0.501,7.907,1.321c2.349,1.302,3.394,3.794,2.867,6.837c-0.678,3.917-3.692,7.629-6.585,8.108
			C495.541,332.474,494.84,332.391,494.179,332.104z M476.431,322.356c4.924,0.329,9.152,3.305,12.888,5.933
			c1.82,1.278,3.536,2.486,5.122,3.234c0.538,0.232,1.118,0.299,1.725,0.198c2.604-0.431,5.437-3.975,6.062-7.585
			c0.278-1.622,0.321-4.58-2.51-6.154c-1.962-0.767-4.743-1.007-7.689-1.262c-4.257-0.367-9.071-0.783-13.225-2.821
			C477.285,315.421,474.94,320.292,476.431,322.356z"/>
	</g>
	<g>
		<g>
			<path fill="#D61A13" d="M430.656,59.06c-6.176,6.175-6.176,14.906,3.62,12.99c-6.815,7.24-2.129,15.759,8.519,13.629
				c-8.306,6.601-4.897,15.971,4.898,17.036c-7.881,3.194-11.073,14.055,1.914,16.184c-10.433,3.194-9.369,13.416,2.344,15.758
				c8.52-13.416,9.582-31.09,5.75-43.228C453.868,79.29,439.175,63.105,430.656,59.06z"/>
			<path fill="#7F0007" d="M452.103,135.013l-0.214-0.043c-5.742-1.148-9.581-4.414-9.776-8.32c-0.16-3.226,2.212-6.089,6.261-7.661
				c-6.281-1.382-7.614-4.774-7.836-6.745c-0.391-3.51,2.156-7.378,6.036-9.368c-4.286-0.774-7.488-3.27-8.475-6.681
				c-0.975-3.368,0.371-7.044,3.609-10.01c-4.926,0.665-8.942-1.066-10.384-4.404c-1.217-2.816-0.424-6.228,2.113-9.265
				c-3.534,0.486-6.032-0.521-6.963-2.764c-1.198-2.898,0.426-7.387,3.956-10.917l0.159-0.159l0.204,0.097
				c8.778,4.169,23.351,20.336,27.211,32.56c3.609,11.431,3.222,29.312-5.784,43.495L452.103,135.013z M444.027,85.106l-1.034,0.823
				c-3.665,2.913-5.266,6.685-4.281,10.087c0.995,3.439,4.45,5.884,9.015,6.38l1.263,0.137l-1.177,0.476
				c-4.181,1.694-7.034,5.633-6.641,9.162c0.37,3.297,3.385,5.575,8.489,6.412l1.348,0.222l-1.307,0.4
				c-4.447,1.361-7.109,4.202-6.95,7.413c0.176,3.557,3.72,6.557,9.047,7.682c8.782-13.979,9.146-31.534,5.597-42.775
				c-3.684-11.669-18.06-27.84-26.673-32.077c-3.24,3.324-4.743,7.436-3.656,10.06c0.891,2.149,3.447,2.954,7.148,2.229l0.976-0.191
				l-0.681,0.723c-2.832,3.009-3.805,6.47-2.601,9.258c1.128,2.608,4.006,4.165,7.697,4.165c0.99,0,2.042-0.11,3.125-0.326
				L444.027,85.106z"/>
		</g>
		<g>
			<path fill="#D61A13" d="M404.251,110.806c6.814-10.222,13.415-4.046,10.223,6.602c6.812-4.259,12.137,1.917,9.582,9.37
				c7.666-5.111,11.497,0.64,9.795,7.879c4.472-6.389,13.205-2.556,11.712,8.305C438.75,148.71,402.975,125.712,404.251,110.806z"/>
			<path fill="#7F0007" d="M442.449,144.184c-7.5,0-22.401-8.795-31.267-18.453c-3.56-3.878-7.707-9.62-7.249-14.952l0.007-0.082
				l0.046-0.069c2.305-3.458,4.814-5.362,7.067-5.362c1.244,0,2.329,0.576,3.14,1.665c1.578,2.12,1.864,5.746,0.8,9.806
				c1.297-0.693,2.574-1.043,3.809-1.043c1.941,0,3.645,0.885,4.794,2.495c1.446,2.025,1.811,4.913,1.018,7.859
				c1.71-1.022,3.291-1.539,4.708-1.539c1.533,0,2.833,0.617,3.758,1.786c1.295,1.635,1.768,4.251,1.327,7.164
				c1.344-1.441,2.988-2.221,4.733-2.221c1.729,0,3.366,0.785,4.61,2.211c1.916,2.199,2.674,5.592,2.13,9.556l-0.017,0.122
				l-0.093,0.079C444.999,143.854,443.882,144.184,442.449,144.184z M404.562,110.915c-0.306,4.023,2.144,8.996,7.091,14.384
				c8.61,9.379,23.575,18.246,30.796,18.246c1.218,0,2.164-0.253,2.814-0.752c0.486-3.725-0.221-6.89-1.994-8.924
				c-1.121-1.285-2.588-1.993-4.13-1.993c-1.904,0-3.69,1.052-5.028,2.963l-0.953,1.362l0.382-1.618
				c0.759-3.224,0.399-6.174-0.962-7.892c-0.8-1.01-1.926-1.544-3.257-1.544c-1.489,0-3.202,0.637-5.088,1.896l-0.786,0.523
				l0.306-0.894c1.039-3.032,0.786-6.065-0.677-8.112c-1.024-1.437-2.544-2.229-4.274-2.229c-1.33,0-2.731,0.453-4.16,1.346
				l-0.719,0.45l0.244-0.812c1.232-4.11,1.047-7.943-0.486-10.003c-0.684-0.921-1.593-1.408-2.627-1.408
				C409.035,105.904,406.732,107.683,404.562,110.915z"/>
		</g>
		<g>
			<path fill="#C51A13" d="M458.554,138.276c-23.407,3.835-45.148-14.062-51.961-32.69c-5.536-1.807-18.717,9.967-7.47,39.292
				c11.516,30.026,53.467,46.209,83.066,34.71C489.217,164.895,467.923,140.406,458.554,138.276z"/>
			<path fill="#D61A13" d="M448.544,157.441c4.37-7.281-0.482-14.191-6.43-19.894c-16.573-4.112-30.348-17.821-35.521-31.962
				c-5.318-1.736-17.685,9.076-8.667,35.938c2.339,4.152,4.558,8.189,7.816,11.447C415.963,163.191,438.322,172.774,448.544,157.441
				z"/>
			<path fill="#E81A13" d="M437.045,157.441c5.109-1.278,8.305-7.666,7.026-13.416c-0.868-2.9-2.533-5.269-4.624-7.236
				c-15.374-4.848-27.963-17.831-32.854-31.205c-4.827-1.575-15.455,7.185-10.642,28.894
				C403.098,150.178,419.57,162.515,437.045,157.441z"/>
			<path fill="#ED6E6E" d="M397.438,115.278c1.278-3.833,6.388-4.472,8.305-1.917c7.261,9.078,15.97,15.675,25.654,20.035
				c-11.629-6.175-20.798-16.86-24.804-27.811c-4.827-1.575-15.455,7.185-10.642,28.894c0.681,1.495,1.447,2.959,2.289,4.38
				C396.494,130.999,394.815,123.139,397.438,115.278z"/>
			<path fill="#7F0007" d="M461.343,183.625c-0.002,0-0.002,0-0.004,0c-12.869,0-26.201-3.72-37.545-10.474
				c-12.013-7.153-20.646-16.89-24.97-28.159c-8.018-20.904-3.135-31.521-0.665-35.116c2.032-2.955,4.809-4.789,7.249-4.789
				c0.455,0,0.888,0.065,1.285,0.195l0.146,0.048l0.053,0.146c5.854,16,23.694,33.005,45.229,33.004
				c2.134,0,4.279-0.175,6.381-0.519l0.062-0.01l0.062,0.014c5.854,1.331,16.51,11.306,22.004,22.663
				c2.521,5.208,4.887,12.75,1.85,19.099l-0.055,0.113l-0.117,0.046C475.92,182.367,468.865,183.625,461.343,183.625z
				 M405.408,105.726c-1.749,0-4.435,1.186-6.721,4.512c-2.414,3.512-7.176,13.904,0.734,34.525
				c8.494,22.147,34.534,38.222,61.917,38.223h0.004c7.398,0,14.332-1.229,20.613-3.65c2.843-6.096,0.539-13.38-1.903-18.431
				c-5.312-10.981-15.897-20.975-21.51-22.304c-2.117,0.343-4.275,0.517-6.423,0.517c-21.758,0-39.788-17.115-45.771-33.272
				C406.057,105.767,405.742,105.726,405.408,105.726z"/>
		</g>
		<g>
			<path fill="#C51A13" d="M479.275,180.618c-16.676-2.307-29.711-24.614-28.943-46.361c0.767-21.747,0.342-39.634-9.455-52.625
				c-9.794-12.99-16.608-22.358-16.821-28.109c7.878-12.99,49.188-14.48,77.938,10.861c28.749,25.34,28.001,49.932,20.018,72.454
				C514.025,159.358,498.83,183.031,479.275,180.618z"/>
			<path fill="#D61A13" d="M476.653,166.385c11.498-3.194,19.805-10.86,26.832-21.72c16.328-24.974,16.047-57.169-0.3-79.214
				c-0.392-0.355-0.787-0.711-1.191-1.067c-28.751-25.341-70.061-23.851-77.938-10.861c0.213,5.75,7.027,15.119,16.821,28.109
				c9.797,12.991,10.222,30.878,9.455,52.625c-0.35,9.909,2.172,19.927,6.592,28.123
				C462.161,166.701,469.208,168.512,476.653,166.385z"/>
			<path fill="#E81A13" d="M456.21,156.803c12.777,8.305,26.192-0.639,35.137-10.222c22.997-26.832,20.442-67.079-2.556-91.354
				c-0.214-0.214-0.444-0.41-0.664-0.616c-26.705-14.843-57.396-12.096-64.071-1.088c0.213,5.75,7.027,15.119,16.821,28.109
				c9.797,12.991,10.222,30.878,9.455,52.625c-0.144,4.081,0.206,8.179,0.969,12.162
				C453.337,149.929,453.167,154.774,456.21,156.803z"/>
			<path fill="#ED6E6E" d="M430.018,55.227c13.074-8.527,28.677-10.473,42.761-7.198c-22.08-6.928-43.306-3.438-48.723,5.495
				c0.178,4.847,5.05,12.266,12.441,22.257c-1.46-3.772-2.851-7.69-5.201-11.609C429.378,61.616,427.461,56.504,430.018,55.227z"/>
			<path fill="#7F0007" d="M482.029,181.107c-0.923,0-1.863-0.058-2.792-0.172c-16.369-2.264-30.023-24.081-29.225-46.688
				c0.738-20.891,0.54-39.253-9.39-52.421c-10.062-13.344-16.672-22.521-16.888-28.29l-0.003-0.096l0.049-0.082
				c3.487-5.746,13.428-9.316,25.946-9.316c18.579,0,38.197,7.515,52.477,20.103c13.416,11.825,21.229,24.079,23.886,37.461
				c2.144,10.794,0.944,22.023-3.777,35.338C518.639,147.304,504.877,181.107,482.029,181.107z M424.378,53.607
				c0.277,5.59,6.823,14.662,16.756,27.833c10.055,13.334,10.259,31.814,9.519,52.828c-0.788,22.301,12.61,43.811,28.668,46.033
				c0.898,0.111,1.811,0.167,2.709,0.167c22.43,0,36.044-33.478,39.68-43.738c6.86-19.347,10.796-45.027-19.926-72.107
				c-14.168-12.487-33.628-19.942-52.056-19.942C437.492,44.681,427.796,48.099,424.378,53.607z"/>
		</g>
	</g>
	<g>
		<path fill="#C51A13" d="M506.253,220.049c10.647-14.481,9.582-42.905,0-53.501c-5.963-5.486-14.268,4.948-21.72,7.29
			c-7.455,2.343-16.397-0.638-21.083,5.963c-4.686,6.601,7.055,28.535,20.137,34.71C492.412,218.344,502.42,222.178,506.253,220.049
			z"/>
		<path fill="#D61A13" d="M475.374,204.715c7.028,3.833,15.973,3.194,19.806-6.388c0.64-0.639,3.834-0.639,5.749-1.916
			c8.306-8.305,8.631-34.925-5.109-28.748c-0.121-0.041-0.244-0.07-0.364-0.105c-3.603,2.194-7.359,5.161-10.922,6.28
			c-7.455,2.343-16.397-0.638-21.083,5.963c-2.111,2.974-0.881,9.062,2.298,15.417C468.426,198.951,471.227,202.642,475.374,204.715
			z"/>
		<path fill="#E81A13" d="M485.597,200.882c2.555-1.277,2.555-8.305,3.833-8.305c12.776,0,13.415-13.415,10.86-21.72
			c-0.156-0.547-0.381-1.056-0.662-1.526c-1.126-0.721-2.39-1.294-3.809-1.667c-0.121-0.041-0.244-0.07-0.364-0.105
			c-3.603,2.194-7.359,5.161-10.922,6.28c-7.455,2.343-16.397-0.638-21.083,5.963c-2.111,2.974-0.881,9.062,2.298,15.417
			c0.08,0.113,0.16,0.224,0.241,0.336C471.297,201.118,478.732,204.314,485.597,200.882z"/>
		<path fill="#ED6E6E" d="M495.455,167.558c-3.603,2.194-7.359,5.161-10.922,6.28c-7.455,2.343-16.397-0.638-21.083,5.963
			c-2.111,2.974-0.881,9.062,2.298,15.417c0.08,0.113,0.16,0.224,0.241,0.336c1.107,1.162,2.312,2.219,3.581,3.136
			c-4.429-5.967-8.73-15.437-2.34-19.368c6.388-3.833,12.937,0.665,18.047-2.556c4.064-3.752,8.298-5.384,12.657-8.351
			c-0.665-0.3-1.369-0.555-2.115-0.752C495.698,167.623,495.575,167.593,495.455,167.558z"/>
		<path fill="#7F0007" d="M503.304,220.977C503.303,220.977,503.303,220.977,503.304,220.977c-4.993,0-13.228-3.298-19.845-6.173
			c-9.723-4.588-18.321-17.291-20.716-26.432c-1.018-3.883-0.862-6.91,0.446-8.756c3.111-4.381,7.953-4.657,13.08-4.948
			c2.731-0.154,5.558-0.314,8.167-1.134c2.52-0.793,5.193-2.561,7.778-4.272c3.583-2.369,6.967-4.608,10.133-4.608
			c1.562,0,2.907,0.542,4.121,1.658c9.37,10.358,11.089,38.9,0.04,53.925l-0.101,0.09
			C505.632,220.759,504.588,220.977,503.304,220.977z M502.348,165.293c-2.976,0-6.281,2.187-9.779,4.503
			c-2.623,1.733-5.335,3.528-7.94,4.347c-2.684,0.844-5.551,1.006-8.323,1.164c-4.967,0.281-9.662,0.546-12.592,4.68
			c-1.2,1.686-1.319,4.53-0.351,8.223c2.369,9.039,11.115,21.648,20.362,26.012c6.549,2.846,14.705,6.117,19.578,6.117
			c0,0,0,0,0.001,0c1.14,0,2.058-0.182,2.732-0.537c10.847-14.828,9.166-42.882-0.021-53.04
			C504.947,165.78,503.741,165.293,502.348,165.293z"/>
	</g>
	<g>
		<path fill="#C51A13" d="M491.985,251.777c7.879-5.324,19.591-21.778,20.443-31.119c-4.047-9.341-25.254-17.433-37.01-8.063
			c-3.877,3.62,7.623,13.416,5.494,30.452C478.782,251.777,485.81,255.396,491.985,251.777z"/>
		<path fill="#D61A13" d="M490.708,239.852c8.306-5.111,9.582-15.332,8.944-24.275c-0.454-2.49-1.711-4.497-3.396-6.11
			c-7.14-1.85-15.109-1.437-20.837,3.128c-3.726,3.479,6.744,12.665,5.675,28.496C484.207,241.879,487.965,241.376,490.708,239.852z
			"/>
		<path fill="#E81A13" d="M490.708,232.826c3.994-5.991,7.738-14.98,6.55-22.28c-0.315-0.377-0.647-0.74-1.002-1.08
			c-7.14-1.85-15.109-1.437-20.837,3.128c-3.368,3.143,4.854,10.949,5.685,24.104C484.817,237.292,488.36,236.735,490.708,232.826z"
			/>
		<path fill="#ED6E6E" d="M481.104,236.699c1.467,0.234,2.907,0.283,4.26,0.023c-1.769-7.9-8.557-15.801-5.516-23.702
			c0.754-1.618,1.731-2.899,2.873-3.926c-2.645,0.641-5.135,1.772-7.302,3.5C472.051,215.737,480.273,223.544,481.104,236.699z"/>
		<path fill="#7F0007" d="M487.173,253.489L487.173,253.489c-2.234,0-4.162-0.888-5.429-2.502c-1.523-1.94-1.93-4.787-1.141-8.017
			c1.193-9.582-1.954-16.794-4.251-22.06c-1.734-3.97-2.984-6.838-1.15-8.55c3.491-2.786,8.073-4.25,13.266-4.25
			c10.231,0,21.338,5.688,24.254,12.42l0.032,0.074l-0.006,0.08c-0.858,9.401-12.51,25.9-20.585,31.354
			C490.545,252.992,488.823,253.489,487.173,253.489z M488.468,208.75c-5.046,0-9.489,1.417-12.851,4.094
			c-1.481,1.388-0.368,3.943,1.32,7.812c2.328,5.333,5.516,12.639,4.292,22.431c-0.748,3.069-0.384,5.723,1.016,7.506
			c1.146,1.455,2.895,2.257,4.928,2.257c1.538,0,3.146-0.465,4.649-1.348c7.927-5.356,19.378-21.53,20.279-30.792
			C509.227,214.219,498.434,208.75,488.468,208.75z"/>
	</g>
	<g>
		<path fill="#A01313" d="M289.475,253.169c14.9,1.427,55.208,12.876,51.453,27.356c-3.755,14.481-50.178,30.238-77.009,20.017
			C237.087,290.32,252.85,249.663,289.475,253.169z"/>
		<path d="M284.077,304.127c-7.729,0-14.55-1.106-20.272-3.287c-10.075-3.838-15.162-12.595-13.273-22.857
			c2.318-12.595,14.923-25.346,34.531-25.346c1.457,0,2.95,0.073,4.442,0.215c13.036,1.247,42.535,9.568,50.098,20.371
			c1.718,2.453,2.269,4.937,1.635,7.383C338.216,292.255,309.369,304.127,284.077,304.127z M285.063,253.275
			c-19.258,0-31.633,12.487-33.903,24.822c-1.829,9.939,3.104,18.425,12.872,22.146c5.65,2.152,12.395,3.243,20.045,3.243
			c24.575,0,53.637-11.844,56.542-23.042c0.585-2.257,0.066-4.562-1.539-6.857c-7.454-10.646-36.699-18.862-49.636-20.1
			C287.973,253.347,286.5,253.275,285.063,253.275z"/>
	</g>
	<g>
		<path fill="#C51A13" d="M401.057,230.801c-31.547,6.124-79.757,15.281-79.273,61.676c0.484,46.396,77.144,62.804,104.402,59.498
			c27.257-3.308,80.817-39.001,77.307-85.343C499.979,220.291,441.092,223.029,401.057,230.801z"/>
		<path fill="#D61A13" d="M401.057,230.801c-31.547,6.124-79.267,15.28-79.273,61.676c-0.004,28.247,79.396,53.233,106.653,49.926
			c27.258-3.308,66.553-40.852,67.273-76.457C496.648,219.48,441.092,223.029,401.057,230.801z"/>
		<path fill="#E81A13" d="M463.876,248.795c3.833,2.557,8.306,0,11.498-3.832c2.558-3.194,1.919-7.026-0.638-9.583
			c-3.031-2.331-5.894-4.833-8.833-7.163c-17.597-5.516-42.562-1.742-64.847,2.584c-31.547,6.124-79.267,15.28-79.273,61.676
			c0,0.406,0.021,0.812,0.052,1.214c9.509,18.32,46.212,34.788,53.881,27.295c4.141-9.614-15.332-26.831-28.109-36.413
			c-2.556-2.558-4.472-5.111-5.11-8.944c10.86,4.471,18.525-3.195,25.554-10.86c1.278-0.64,4.471,0,4.471,0.638
			c3.194,6.389,2.555,14.056,10.223,15.972c22.357,5.749,45.357,0,62.605-14.055c5.749-4.472,10.22-12.777,7.666-21.082
			C456.848,246.24,460.043,246.88,463.876,248.795z"/>
		<path fill="#ED6E6E" d="M336.312,261.724c34.081-26.342,80.849-34.451,129.442-30.821
			C421.016,233.976,384.381,236.117,336.312,261.724z"/>
		<path fill="#E81A13" d="M481.765,257.101c-5.111-1.916-9.583,1.917-10.861,6.388c-5.75,17.889-8.304,35.776-14.693,53.025
			c1.917,0,3.833,0.639,5.111-0.639c12.615-12.112,20.443-28.607,23.177-45.709c-0.061,0.114-0.115,0.237-0.18,0.351
			c0.064-0.113,0.119-0.236,0.18-0.351c0.448-2.805,0.76-5.623,0.932-8.442C484.863,259.654,483.663,257.915,481.765,257.101z"/>
		<path fill="#E81A13" d="M485.43,261.724c-0.172,2.819-0.483,5.638-0.932,8.442C485.815,267.637,486.161,264.405,485.43,261.724z"
			/>
		<path fill="#7F0007" d="M418.547,352.703c-0.004,0-0.004,0-0.005,0c-14.276,0-38.619-3.671-60.235-14.015
			c-16.671-7.979-36.595-22.472-36.843-46.208c-0.484-46.464,47.425-55.763,79.129-61.916l0.402-0.077
			c15.304-2.97,29.433-4.477,41.991-4.477c17.082,0,30.822,2.823,40.842,8.394c12.151,6.753,18.875,17.588,19.982,32.203
			c1.547,20.428-8.118,41.404-27.218,59.069c-15.264,14.115-35.505,24.812-50.369,26.614
			C423.968,352.566,421.385,352.703,418.547,352.703z M442.986,226.648c-12.518,0-26.605,1.503-41.868,4.467l-0.404,0.076
			c-31.496,6.114-79.09,15.353-78.611,61.283c0.244,23.407,19.972,37.736,36.48,45.637c21.521,10.297,45.75,13.954,59.959,13.954
			c0,0,0.001,0,0.005,0c2.812,0,5.368-0.137,7.599-0.408c14.744-1.788,34.842-12.417,50.015-26.45
			c18.952-17.528,28.545-38.322,27.012-58.551c-1.09-14.389-7.703-25.052-19.655-31.694
			C473.595,229.446,459.957,226.648,442.986,226.648z"/>
	</g>
	<g>
		<path fill="#7F0007" d="M396.1,292.222c-14.249,0-27.77-3.06-38.216-9.048l0.317-0.554c18.104,10.377,45.534,11.875,69.879,3.817
			c18.396-6.09,32.035-16.666,37.421-29.022l0.585,0.255c-5.458,12.522-19.236,23.229-37.804,29.373
			C417.8,290.513,406.746,292.222,396.1,292.222z"/>
	</g>
	<g>
		<g>
			<path fill="#7B1000" d="M367.502,287.256c9.367,20.019,35.77,44.228,59.961,37.729c22.298-5.992,33.299-38.819,33.009-58.782
				C442.639,288.33,398.714,298.637,367.502,287.256z"/>
			<path fill="#8F1000" d="M460.472,266.202c-17.833,22.128-61.758,32.435-92.97,21.054c4.367,9.331,12.436,19.57,22.254,27.188
				c1.461-4.524,4.141-8.634,8.96-11.985c17.036-11.195,39.265-12.746,53.404-0.979C457.834,289.882,460.62,276.372,460.472,266.202
				z"/>
			<g>
				<g>
					<path fill="#EF5050" d="M427.463,324.984c7.624-2.049,13.926-7.235,18.908-13.973c-16.727-4.983-36.462-2.07-47.582,9.362
						C407.892,325.299,417.852,327.565,427.463,324.984z"/>
					<path fill="#FF625E" d="M439.601,312.041c-10.861-3.194-24.276-0.638-31.941,7.666c-1.198,0.959-1.679,2.365-1.641,3.917
						c7.013,2.52,14.324,3.272,21.444,1.36c5.363-1.442,10.069-4.441,14.126-8.436C441.851,314.377,441.617,312.444,439.601,312.041
						z"/>
					
						<ellipse transform="matrix(0.9504 -0.3109 0.3109 0.9504 -78.8736 148.4639)" fill="#F99898" cx="426.293" cy="321.658" rx="5.565" ry="0.975"/>
					<path fill="#BA3232" d="M419.203,326.381L419.203,326.381c-6.625,0-13.544-1.927-20.567-5.728l-0.37-0.199l0.295-0.304
						c7.293-7.497,18.828-11.797,31.644-11.797c5.55,0,11.019,0.79,16.258,2.352l0.437,0.131l-0.271,0.366
						c-5.492,7.425-11.912,12.163-19.082,14.091C424.86,326.014,422.053,326.381,419.203,326.381z M399.316,320.293
						c6.798,3.616,13.488,5.449,19.887,5.449c2.794,0,5.544-0.36,8.176-1.066c6.91-1.857,13.12-6.393,18.461-13.486
						c-5.048-1.458-10.305-2.198-15.636-2.198C417.733,308.991,406.506,313.105,399.316,320.293z"/>
				</g>
			</g>
			<path fill="#7F0007" d="M419.197,326.382c-12.684,0-23.893-6.971-31.062-12.818c-8.915-7.267-16.54-16.807-20.921-26.172
				l-0.329-0.7l0.728,0.265c8.472,3.09,17.984,4.655,28.27,4.655c26.139,0,51.993-10.292,64.339-25.609l0.556-0.689l0.015,0.884
				c0.307,20.948-11.078,53.14-33.246,59.097C424.857,326.016,422.05,326.382,419.197,326.382z M368.124,287.818
				c8.913,18.374,30.742,37.924,51.073,37.924c2.796,0,5.55-0.359,8.182-1.066c12.575-3.378,20.411-14.906,24.771-23.981
				c4.952-10.309,7.989-23.094,8.007-33.61c-12.67,15.084-38.344,25.168-64.274,25.168
				C385.815,292.252,376.483,290.761,368.124,287.818z"/>
		</g>
	</g>
	<g>
		<path fill="#7F0007" d="M422.146,338.854c-7.535,0-12.032-3.079-12.032-3.079c0.069,0.038,7.077,3.699,17.616,1.984
			c10.59-1.727,14.702-6.233,14.743-6.279c0,0-3.802,5.144-14.642,6.909C425.804,338.721,423.897,338.854,422.146,338.854z"/>
	</g>
	<g>
		<path fill="#7F0007" d="M356.17,283.362c-3.79,0-5.946-2.268-5.946-2.268c0.032,0.021,3.324,2.282,8.158,1.432
			c4.856-0.855,7.233-3.103,7.233-3.103c-0.079,0.115-1.98,2.825-7.121,3.732C357.673,283.3,356.896,283.362,356.17,283.362z"/>
	</g>
	<g>
		<path fill="#7F0007" d="M464.269,258.101c-3.79,0-5.947-2.268-5.947-2.268c0.034,0.023,3.329,2.283,8.158,1.433
			c4.879-0.86,6.687-3.438,6.704-3.463c0,0-1.452,3.187-6.594,4.092C465.77,258.038,464.992,258.101,464.269,258.101z"/>
	</g>
	<g>
		<path fill="#E2E0E0" d="M352.292,204.929c-9.248,2.466-13.842,17.248-6.815,32.793c7.027,15.546,21.509,20.347,27.897,17.732
			c6.387-2.613,7.672-16.424,4.471-29.124C374.438,212.808,365.068,201.521,352.292,204.929z"/>
		<path fill="#FFFFFF" d="M352.292,204.929c-9.248,2.466-13.842,17.248-6.815,32.793c7.027,15.546,35.57,1.309,32.368-11.392
			C374.438,212.808,365.068,201.521,352.292,204.929z"/>
		<path fill="#7F7E7E" d="M369.498,256.448c0,0,0,0-0.002,0c-7.659-0.001-18.535-5.821-24.309-18.594
			c-4.108-9.089-4.578-18.698-1.256-25.705c1.863-3.929,4.804-6.603,8.278-7.529c1.554-0.414,3.105-0.624,4.611-0.624
			c9.554,0,17.929,8.736,21.335,22.257c3.099,12.294,2.202,26.689-4.663,29.497C372.363,256.213,371.018,256.448,369.498,256.448z
			 M356.821,204.634c-1.451,0-2.947,0.203-4.447,0.603c-3.291,0.877-6.084,3.43-7.865,7.187c-3.244,6.839-2.773,16.247,1.259,25.166
			c5.657,12.518,16.266,18.218,23.729,18.218l0,0c1.438,0,2.7-0.218,3.755-0.649c6.455-2.639,7.249-16.978,4.283-28.75
			C375.004,216.363,368.061,204.634,356.821,204.634z"/>
	</g>
	
		<ellipse transform="matrix(0.9503 -0.3113 0.3113 0.9503 -52.102 123.1249)" fill="#3C1A00" cx="359.705" cy="224.8" rx="7.896" ry="11.712"/>
	<g>
		<path fill="#E2E0E0" d="M439.809,189.098c9.55,0.621,16.933,14.226,13.062,30.842c-3.87,16.614-17.14,24.139-23.913,22.82
			c-6.774-1.321-10.722-14.618-10.052-27.698C419.616,201.134,426.612,188.241,439.809,189.098z"/>
		<path fill="#FFFFFF" d="M439.809,189.098c9.55,0.621,16.933,14.226,13.062,30.842c-3.87,16.614-34.635,8.202-33.965-4.878
			C419.616,201.134,426.612,188.241,439.809,189.098z"/>
		<path fill="#7F7E7E" d="M430.573,243.227c-0.589,0-1.153-0.052-1.677-0.153c-7.279-1.419-10.958-15.365-10.309-28.029
			c0.688-13.513,7.548-27.155,21.241-26.266c3.588,0.233,6.992,2.285,9.584,5.777c4.622,6.227,6.032,15.742,3.768,25.457
			C449.496,235.849,437.512,243.227,430.573,243.227z M438.574,189.376c-12.459,0-18.696,12.909-19.351,25.701
			c-0.62,12.124,2.949,26.034,9.795,27.369c0.484,0.094,1.006,0.142,1.555,0.142c6.734,0,18.377-7.222,21.987-22.722
			c2.219-9.532,0.853-18.852-3.659-24.929c-2.479-3.34-5.717-5.3-9.115-5.521C439.377,189.39,438.975,189.376,438.574,189.376z"/>
	</g>
	<path fill="#3C1A00" d="M428.565,209.08c-0.779,6.422,2.098,12.052,6.427,12.578c4.328,0.523,8.469-4.255,9.247-10.676
		c0.779-6.422-2.097-12.053-6.425-12.579C433.483,197.879,429.343,202.66,428.565,209.08z"/>
	<ellipse transform="matrix(-0.9927 -0.1205 0.1205 -0.9927 844.327 471.1025)" cx="436.403" cy="210.031" rx="4.627" ry="6.864"/>
	<ellipse transform="matrix(0.9555 -0.2951 0.2951 0.9555 -50.1405 116.1243)" cx="359.704" cy="224.201" rx="4.627" ry="6.862"/>
	<g>
		<g>
			<path fill="#C51A13" d="M260.616,278.97c5.019,7.147,13.619,8.652,13.419-1.327c5.958,7.961,15.156,4.812,14.893-6.042
				c5.071,9.319,14.887,7.577,17.625-1.89c1.789,8.313,11.936,13.33,16.271,0.902c1.349,10.828,11.601,11.543,15.926,0.407
				c-11.746-10.703-28.974-14.797-41.59-13.112C284.543,259.592,266.068,271.276,260.616,278.97z"/>
			<path fill="#7F0007" d="M269.324,285.048L269.324,285.048c-2.934,0-6.456-2.312-8.97-5.896l-0.13-0.183l0.13-0.184
				c5.62-7.93,24.057-19.498,36.762-21.194c1.833-0.245,3.77-0.369,5.76-0.369c13.078,0,26.907,5.196,36.088,13.562l0.163,0.147
				l-0.08,0.203c-1.975,5.084-5.471,8.241-9.125,8.241c-3.548,0-6.301-2.917-7.223-7.534c-2.34,5.685-5.725,6.569-7.603,6.569
				c-3.696,0-7.236-3.186-8.58-7.569c-1.631,4.435-5.034,7.242-8.896,7.242c-3.21,0-6.219-1.927-8.384-5.329
				c-0.127,3.162-1.104,5.814-2.801,7.552c-1.343,1.377-3.036,2.104-4.895,2.104c-2.561,0-5.089-1.362-7.193-3.86
				c-0.083,2.326-0.68,4.069-1.78,5.193C271.731,284.599,270.61,285.048,269.324,285.048z M261.008,278.971
				c2.387,3.312,5.632,5.439,8.316,5.439c1.126,0,2.063-0.375,2.788-1.114c1.101-1.122,1.655-3.075,1.604-5.647l-0.02-0.992
				l0.595,0.795c2.086,2.786,4.661,4.321,7.251,4.321c1.684,0,3.218-0.661,4.438-1.91c1.78-1.823,2.713-4.755,2.628-8.254
				l-0.032-1.322l0.632,1.161c2.074,3.812,5.141,5.998,8.414,5.998c3.865,0,7.25-3.069,8.625-7.821l0.353-1.22l0.266,1.24
				c0.981,4.559,4.597,8.129,8.232,8.129c3.154,0,5.791-2.58,7.426-7.267l0.45-1.29l0.168,1.355c0.618,4.961,3.28,8.167,6.781,8.167
				c3.337,0,6.561-2.918,8.45-7.63c-9.069-8.177-22.646-13.248-35.495-13.248c-1.962,0-3.872,0.122-5.675,0.363
				C285.072,259.844,266.666,271.218,261.008,278.971z"/>
		</g>
		<g>
			<path fill="#C51A13" d="M319.349,293.02c0.925-12.249-8.079-11.449-12.119-1.092c-2.746-7.553-10.743-5.966-13.32,1.481
				c-2.893-8.748-9.453-6.577-12.569,0.177c0.41-7.787-8.83-10.145-14.342-0.67C268.828,301.643,311.178,305.552,319.349,293.02z"/>
			<path fill="#7F0007" d="M294.08,301.329c-0.002,0-0.002,0-0.004,0c-12.604-0.001-26.295-3.122-27.39-8.348l-0.024-0.12
				l0.061-0.104c2.347-4.034,5.588-6.348,8.89-6.348c1.67,0,3.193,0.636,4.29,1.793c0.991,1.045,1.588,2.47,1.735,4.099
				c1.738-3.094,4.196-4.969,6.605-4.969c2.387,0,4.384,1.823,5.678,5.16c1.495-3.518,4.385-5.826,7.395-5.826
				c2.544,0,4.668,1.596,5.918,4.412c1.95-4.522,4.985-7.402,7.867-7.402c1.072,0,2.038,0.43,2.794,1.246
				c1.444,1.557,2.057,4.365,1.773,8.122l-0.006,0.082l-0.044,0.067C316.295,298.288,306.748,301.329,294.08,301.329z
				 M267.339,292.969c1.089,4.196,13.245,7.72,26.737,7.722c0.001,0,0.003,0,0.004,0c12.395,0,21.711-2.905,24.957-7.778
				c0.25-3.482-0.321-6.166-1.611-7.556c-0.641-0.691-1.423-1.042-2.326-1.042c-2.269,0-5.49,2.39-7.572,7.729l-0.308,0.79
				l-0.289-0.797c-1.095-3.006-3.142-4.732-5.616-4.732c-2.964,0-5.818,2.497-7.103,6.208l-0.31,0.894l-0.296-0.896
				c-1.182-3.572-3.086-5.538-5.364-5.538c-2.405,0-5.001,2.256-6.612,5.748l-0.697,1.51l0.088-1.66
				c0.105-1.992-0.457-3.74-1.582-4.928c-0.975-1.028-2.334-1.594-3.827-1.594C272.616,287.048,269.531,289.258,267.339,292.969z"/>
		</g>
		<g>
			<path fill="#C51A13" d="M256.466,278.381c10.167,12.897,36.679,19.766,58.24,11.46c10.7-4.471,13.896,3.811,5.43,11.169
				c-8.465,7.357-36.254,22.091-64.683,16.182c-28.428-5.91-41.524-26.232-34.497-43.002
				C228.303,263.488,249.811,268.997,256.466,278.381z"/>
			<path fill="#D61A13" d="M247.948,309.485c26.831,6.39,56.218,6.39,74.105-15.97c0.859-1.145,0.943-2.803,0.436-4.512
				c-1.751-0.714-4.388-0.582-7.783,0.837c-12.97,4.995-27.725,4.498-39.643,0.502c-12.538,0.191-24.951,1.444-35.421,8.922
				C234.532,303.099,243.476,308.847,247.948,309.485z"/>
			<path fill="#E81A13" d="M250.465,301.329c6.527,8.783,30.703,10.074,45.396,6.241c9.471-2.229,22.827-5.918,26.936-16.571
				c-0.001-0.638-0.104-1.312-0.308-1.995c-1.751-0.714-4.388-0.582-7.783,0.837c-12.97,4.995-27.725,4.498-39.643,0.502
				c-0.732,0.012-1.465,0.026-2.196,0.046C262.116,291.68,244.406,293.175,250.465,301.329z"/>
			<path fill="#ED6E6E" d="M262.215,295.847c8.731,2.992,35.775,7.252,56.857-4.888
				C303.952,303.808,270.307,302.438,262.215,295.847z"/>
			<path fill="#7F0007" d="M269.029,318.877c-4.669,0-9.258-0.463-13.64-1.373c-15.677-3.259-27.877-11.227-33.474-21.858
				c-3.696-7.022-4.141-14.686-1.252-21.578l0.031-0.059c2.654-3.865,7.44-5.994,13.478-5.994c8.742,0,18.438,4.378,22.555,10.182
				c7.046,8.938,22.22,14.951,37.748,14.951c7.142,0,13.911-1.213,20.119-3.604c2.035-0.851,3.892-1.284,5.507-1.284
				c2.439,0,4.223,1.031,4.896,2.831c1.049,2.806-0.776,6.793-4.649,10.16C312.508,308.064,291.644,318.877,269.029,318.877z
				 M221.239,274.344c-2.799,6.705-2.359,14.164,1.241,21.004c5.508,10.463,17.55,18.311,33.04,21.531
				c4.339,0.9,8.885,1.358,13.51,1.358c22.441,0,43.129-10.716,50.899-17.469c3.669-3.19,5.424-6.901,4.469-9.454
				c-0.583-1.558-2.108-2.416-4.297-2.416c-1.531,0-3.304,0.417-5.27,1.238c-6.289,2.422-13.135,3.65-20.356,3.65
				c-15.713,0-31.088-6.112-38.259-15.207c-4.017-5.665-13.489-9.926-22.043-9.926C228.365,268.654,223.773,270.675,221.239,274.344
				z"/>
		</g>
		<g>
			<path fill="#C51A13" d="M257.743,287.553c10.357-5.179,11.712-14.269,25.341-18.314s35.988-1.955,47.7,1.897
				c11.713,3.854,23.637-0.833,14.481-18.295c-9.157-17.461-31.941-34.708-66.226-31.089c-34.285,3.619-53.451,26.192-60.691,43.016
				c-3.127,7.268-3.074,16.932,2.769,21.508C230.273,293.445,243.263,294.792,257.743,287.553z"/>
			<path fill="#D61A13" d="M235.171,284.572c16.61-2.558,21.721-18.527,35.136-26.194c17.887-10.859,38.97-5.11,57.496,1.279
				c4.472,1.915,10.222,3.193,12.777,0.639c3.408-3.125,3.656-7.131,2.435-11.295c-10.33-16.044-32.213-30.603-63.976-27.249
				c-34.285,3.619-53.451,26.192-60.691,43.016c-1.457,3.384-2.21,7.285-2.024,10.954
				C219.455,282.238,227.021,286.287,235.171,284.572z"/>
			<path fill="#E81A13" d="M250.143,268.335c-6.848,9.471-25.276,10.612-28.388,2.801s5.286-22.696,27.188-35.563
				c21.904-12.865,52.61-15.742,70.027-5.563c17.417,10.178,22.568,19.229,17.458,23.16c-5.111,3.932-22.461-8.643-38.97-8.643
				C279.99,244.526,265.115,247.627,250.143,268.335z"/>
			<path fill="#ED6E6E" d="M280.121,223.88c-31.277,3.162-48.76,22.889-55.365,37.588c-0.873,1.942-1.462,4.08-1.72,6.229
				c4.226-9.959,10.229-18.657,19.981-25.209c19.941-13.398,35.549-17.306,54.781-14.515c13.566,1.443,26.154,6.393,36.51,14.386
				C323.751,230.646,305.356,221.326,280.121,223.88z"/>
			<path fill="#7F0007" d="M239.13,292.682c0,0,0,0-0.001,0c-6.771,0-13.067-2.129-18.209-6.156
				c-6.032-4.723-6.008-14.584-2.866-21.885c8.015-18.624,28.236-39.753,60.951-43.207c3.061-0.322,6.118-0.486,9.087-0.486
				c30.087,0,49.407,16.398,57.455,31.746c3.508,6.69,4.218,12.121,2.052,15.702c-1.683,2.786-5.045,4.318-9.467,4.318
				c-2.337,0-4.912-0.441-7.448-1.275c-7.525-2.475-19.01-4.075-29.261-4.075c-7.131,0-13.442,0.755-18.249,2.183
				c-7.727,2.294-11.526,6.287-15.199,10.15c-2.761,2.902-5.617,5.906-10.089,8.143C251.458,291.052,245.148,292.682,239.13,292.682
				z M288.093,221.586c-2.947,0-5.981,0.163-9.021,0.483c-32.441,3.424-52.487,24.366-60.431,42.825
				c-3.045,7.074-3.105,16.605,2.672,21.129c5.028,3.938,11.189,6.019,17.816,6.02c0.001,0,0.001,0,0.001,0
				c5.918,0,12.131-1.606,18.47-4.775c4.373-2.187,7.063-5.016,9.913-8.011c3.73-3.925,7.59-7.98,15.48-10.324
				c4.866-1.444,11.239-2.207,18.431-2.207c10.313,0,21.876,1.612,29.46,4.107c2.472,0.812,4.979,1.242,7.248,1.242
				c4.189,0,7.358-1.423,8.92-4.01c2.045-3.38,1.329-8.593-2.071-15.075C337.021,237.809,317.895,221.586,288.093,221.586z"/>
		</g>
	</g>
	<ellipse fill="#FFFFFF" cx="354.129" cy="219.434" rx="3.754" ry="1.514"/>
	<ellipse fill="#FFFFFF" cx="352.984" cy="223.456" rx="2.609" ry="0.744"/>
	<ellipse fill="#FFFFFF" cx="432.191" cy="203.664" rx="3.754" ry="1.515"/>
	<ellipse fill="#FFFFFF" cx="431.045" cy="207.687" rx="2.609" ry="0.746"/>
</g>
</svg>
