<svg version="1.1" id="Layer_2" xmlns="http://www.w3.org/2000/svg" xmlns:xlink="http://www.w3.org/1999/xlink" viewBox="0 0 768 430" enable-background="new 0 0 768 430" xml:space="preserve">
<path fill="#FFFFFF" d="M359.784,80.487c-1.559-3.818-3.92-6.165-6.646-6.607l-0.089-0.014c-0.658-0.096-1.328-0.079-1.992,0.052
	c-4.962,0.979-9.267,8.096-10.235,16.921c-0.545,4.981,0.018,9.842,1.588,13.687c1.558,3.818,3.919,6.165,6.644,6.607l0.09,0.015
	c0.656,0.096,1.328,0.079,1.994-0.052c4.961-0.979,9.265-8.095,10.232-16.921C361.916,89.194,361.352,84.333,359.784,80.487z
	 M357.336,98.134c-1.17,6.935-4.282,9.984-8.083,8.681c-3.798-1.304-6.848-6.466-5.677-13.4c1.17-6.934,5.199-11.497,8.998-10.194
	C356.375,84.522,358.506,91.2,357.336,98.134z"/>
<g>
	<path fill="none" d="M343.92,92.215c0.917-3.74,2.713-6.73,4.785-8.382c-0.228-2.942-0.312-5.593-0.264-7.987
		c-3.32,2.76-6.062,7.866-7.149,13.846c-0.865,4.751-0.597,9.412,0.752,13.122c0.382,1.05,0.844,1.972,1.363,2.786
		c0.64-0.372,1.275-0.717,1.901-1.018C343.367,101.882,342.722,97.099,343.92,92.215z"/>
	<path fill="#476D0F" d="M438.844,351.47c-0.344,0.228-0.701,0.443-1.052,0.666c-0.514,0.327-1.025,0.656-1.551,0.973
		c-0.579,0.349-1.173,0.681-1.766,1.017c-0.256,0.145-0.505,0.298-0.763,0.439c-0.254,2.442-0.824,4.751-1.355,6.867
		c-1.229,4.891-2.291,9.114,1.091,12.704c3.544,3.592,10.375,5.418,20.291,5.418c10.028,0,20.946-1.856,28.341-3.414l0.066-0.008
		c12.829-0.891,17.257-3.692,18.713-5.886c0.759-1.145,0.912-2.429,0.491-3.811c-10.188-4.382-21.877-2.6-21.995-2.582
		c0,0,11.679-2.699,22.036,1.578c0.437-3.123-2.312-5.447-6.932-8.021c-5.51-2.853-13.421-2.371-13.501-2.367
		c0,0,6.542-1.149,12.034,0.725c-1.957-3.321-7.957-5.493-15.5-5.493c-2.064,0-4.19,0.16-6.322,0.478l-0.038,0.005
		c-7.953,8.928-11.981,11.048-11.981,11.048c4.572-3.265,12.158-12.588,13.197-13.878c3.023-4.029,9.438-13.568,11.388-24.266
		c1.899-10.43-9.073-24.274-14.84-30.704c-0.035,3.928-0.381,8.089-1.139,12.613c-2.574,18.23-11.681,33.489-26.332,44.116
		c-0.779,0.564-1.574,1.108-2.377,1.642c-0.017,0.014-0.031,0.027-0.046,0.041C438.951,351.404,438.896,351.436,438.844,351.47z"/>
	<path fill="#123A12" d="M338.772,285.956c-1.122,3.177,1.112,9.034,2.992,13.068c0.001,0,0.001,0,0.001,0
		c2.4-5.814,4.545-12.264,6.561-18.942C345.134,280.817,339.986,282.511,338.772,285.956z"/>
	<path fill="#091D09" d="M341.764,299.024c-1.88-4.034-4.114-9.892-2.992-13.068c1.214-3.445,6.362-5.139,9.555-5.874
		c0.107-0.35,0.211-0.703,0.314-1.053c-3.296,0.692-9.317,2.495-10.77,6.609c-1.259,3.571,1.168,9.863,3.138,14.035
		C341.362,299.352,341.624,299.137,341.764,299.024z"/>
	<path fill="#123A12" d="M326.032,307.809c-2.201,2.839-0.714,9.587,0.692,14.215c1.98-1.764,3.797-3.66,5.423-5.684
		c1.019-5.336,3.075-9.384,5.041-12.228C333.276,304.367,328.045,305.21,326.032,307.809z"/>
	<path fill="#091D09" d="M326.724,322.023c-1.407-4.628-2.893-11.376-0.692-14.215c2.014-2.599,7.244-3.441,11.157-3.696
		c0.243-0.349,0.483-0.687,0.718-1c-4.453,0.21-10.289,1.092-12.628,4.113c-2.532,3.267-0.847,10.679,0.648,15.48
		C326.193,322.479,326.464,322.257,326.724,322.023z"/>
	<path fill="#123A12" d="M305.863,324.673c-2.417,0.993-2.542,5.708-2.168,9.441c5.748-1.524,11.074-3.809,15.807-6.731
		c-3.154-1.601-7.556-3.159-10.944-3.159C307.498,324.224,306.591,324.375,305.863,324.673z"/>
	<path fill="#091D09" d="M303.695,334.114c-0.374-3.733-0.249-8.448,2.168-9.441c0.728-0.298,1.635-0.449,2.694-0.449
		c3.389,0,7.791,1.559,10.944,3.159c0.317-0.197,0.632-0.396,0.943-0.599c-3.299-1.756-8.119-3.514-11.888-3.514
		c-1.186,0-2.214,0.176-3.057,0.521c-3.143,1.291-3.135,6.806-2.738,10.554C303.074,334.27,303.387,334.195,303.695,334.114z"/>
	<path fill="#123A12" d="M284.877,328.303c-0.282,0-0.569,0.02-0.854,0.056c-4.041,0.521-6.569,4.195-7.989,7.216
		c6.546,0.917,13.05,0.986,19.344,0.17c-0.262-0.289-0.523-0.576-0.789-0.873C291.7,331.642,288.712,328.303,284.877,328.303z"/>
	<path fill="#091D09" d="M276.035,335.574c1.42-3.021,3.949-6.694,7.989-7.216c0.285-0.036,0.571-0.056,0.854-0.056
		c3.835,0,6.823,3.339,9.713,6.568c0.265,0.297,0.526,0.584,0.789,0.873c0.38-0.049,0.758-0.111,1.136-0.169
		c-0.401-0.435-0.805-0.883-1.215-1.34c-2.889-3.228-6.162-6.884-10.422-6.884c-0.323,0-0.651,0.02-0.977,0.061
		c-4.643,0.6-7.4,4.762-8.876,8.029C275.363,335.494,275.698,335.528,276.035,335.574z"/>
	<path fill="#123A12" d="M262.643,325.609c-0.221-0.057-0.455-0.084-0.691-0.084c-2.267,0-4.763,2.421-6.426,4.396
		c4.007,1.663,8.062,3.008,12.131,4.025c-0.074-0.214-0.146-0.419-0.223-0.641C266.343,330.137,264.99,326.195,262.643,325.609z"/>
	<path fill="#091D09" d="M255.525,329.921c1.663-1.975,4.16-4.396,6.426-4.396c0.236,0,0.47,0.027,0.691,0.084
		c2.347,0.586,3.7,4.527,4.791,7.696c0.077,0.222,0.149,0.427,0.223,0.641c0.366,0.091,0.736,0.182,1.104,0.269
		c-0.144-0.4-0.285-0.81-0.425-1.219c-1.226-3.562-2.613-7.6-5.46-8.312c-0.299-0.075-0.607-0.112-0.923-0.112
		c-2.735,0-5.581,2.818-7.354,4.966C254.906,329.671,255.217,329.794,255.525,329.921z"/>
	<path fill="#476D0F" d="M445.776,190.36c0,0,0.897-4.523,4.68-8.036c-2.105,0.567-4.473,0.858-7.094,0.858
		c-3.049,0-6.016-0.389-8.438-0.84c0.555,2.186,1.218,4.516,1.967,6.988c0,0-6.011-12.135-4.269-21.877
		c0.824-2.536,2.361-5.533,3.328-7.305c0.265-0.462,0.544-0.959,0.827-1.473c0.022-0.039,0.035-0.059,0.035-0.059l-0.002,0
		c5.088-9.243,12.69-26.725,12.323-49.236c-1.477-37.386-26.299-42.505-37.676-42.872c0.891,3.044,0.033,5.79,0.033,5.79
		c0.003-0.03,0.137-2.83-1.015-5.814l-0.028-0.001l-0.117-0.298c-2.99-7.645-7.49-12.055-13.371-13.106
		c-7.424-1.328-15.52,3.041-20.391,7.965l0.002,0.001c-0.01,0.007-0.018,0.017-0.027,0.025c-0.318,0.321-0.621,0.645-0.91,0.969
		l-0.014,0.015c-2.394,3.061-2.367,7.827-2.367,7.882c0,0-0.708-4.643,1.331-7.979c-9.521-3.894-16.101-4.325-20.09-1.304
		c-2.897,2.194-4.533,6.228-4.989,12.507c1.895-1.493,3.895-2.251,5.811-1.942l0.092,0.016c2.205,0.39,4.046,2.796,5.473,5.238
		c2.321,3.976,2.666,10.877,1.561,16.954c-0.635,3.494-1.817,6.655-3.327,9.272c3.954,0.784,6.384,2.435,6.384,2.435l32.292,25.324
		c-1.622-0.528-3.234-0.614-4.771-0.452c-0.451,0.047-0.896,0.115-1.333,0.204c-4.765,0.974-8.445,4.167-8.445,4.167
		s6.135-2.243,13.545,1.964c5.01,3.183,6.186,5.505,6.434,6.163c0.037-0.081,0.113-0.25,0.21-0.495
		c0.062,0.122,0.145,0.234,0.199,0.36c2.444-1.121,18.874,0.881,19.408,17.977c-0.367,2.831-0.69,6.158-0.9,8.495
		c-0.024,0.257-0.045,0.501-0.065,0.733c-0.011,0.119-0.02,0.231-0.03,0.342c-0.099,1.145-0.156,1.875-0.156,1.875
		s0.245,0.017,0.667,0.013c0.297,6.062,2.496,11.934,8.015,24.861c1.268,2.969,2.654,6.151,4.121,9.521
		c4.024,9.231,8.793,20.182,13.411,32.121l0.007,0.014l-0.001,0.002c4.56,11.788,8.971,24.541,12.369,37.564
		c5.132,19.669,6.156,47.128-15.771,70.064c11.935-10.095,19.77-23.947,22.111-40.525c3.652-21.803-1.996-35.418-9.151-52.66
		c-3.673-8.854-7.836-18.889-11.322-31.484l-0.511-1.693c-1.998-6.627-2.91-9.653-5.531-14.897c0,0,1.195,0.955,3.1,5.27
		c6.7-1.738,13.277-5.541,17.425-9.146l0.076-0.066l0.095-0.029c7.995-2.458,20.801-9.059,27.199-16.866
		c-0.14,0.004-0.286,0.021-0.422,0.021c-8.641,0-12.14-7.794-12.14-7.794c0.046,0.077,4.519,7.627,13.557,6.774
		c10.002-0.946,16.819-10.024,16.964-22.589c0.726-12.195,5.587-18.772,8.493-22.702c1.463-1.978,2.203-3.035,1.735-3.547
		c-0.971-1.061-3.081-1.497-5.795-1.197c-2.947,0.327-5.826,1.446-7.201,2.706c-0.201,0.216-0.39,0.435-0.571,0.655
		c-0.017,0.026-0.045,0.051-0.06,0.077l-0.006-0.002c-3.104,3.85-3.255,8.327-3.248,9.29c1.16,0.823,2.372,2.512,2.372,2.512
		c-7.336-6.228-22.269-1.588-22.419-1.54c0,0,2.6-1.808,6.151-2.305c0.094-0.013,0.195-0.023,0.292-0.036
		c-0.003-1.647,0.204-7.393,2.955-11.596c0.511-3.824-0.023-6.448-1.508-7.387c-1.357-0.86-3.606-0.315-6.504,1.574
		c-7.28,4.749-9.944,16.527-6.794,30.014c2.784,2.139,3.322,3.811,3.322,3.811c-0.014-0.015-1.318-1.42-4.993-3.831
		c-0.047-0.032-0.093-0.061-0.14-0.094c-0.011-0.007-0.02-0.013-0.029-0.02l0.001-0.002c-1.071-0.757-2.171-1.784-3.319-2.86
		c-3.191-2.99-6.492-6.083-9.629-3.808c-0.777,0.661-0.978,2.672-0.491,5.225c1.129,5.953,6.221,15.967,15.614,19.158
		c0,0-0.863-0.136-2.208-0.653c-6.099,1.889-12.849,4.75-17.485,6.924C447.98,183.674,445.797,190.293,445.776,190.36z
		 M408.637,99.697c-1.587,11.768-9.48,20.555-17.597,19.588l0,0l-0.128-0.017c-3.012-0.397-5.735-2.087-7.876-4.887
		c-3.485-4.559-4.997-11.51-4.041-18.593c1.588-11.768,9.943-22.672,18.058-21.704l0.128,0.016c3.013,0.396,5.713,3.147,7.852,5.946
		C408.521,84.605,409.594,92.613,408.637,99.697z"/>
	<path fill="#183111" d="M488.194,183.854c-6.398,7.807-19.204,14.408-27.199,16.866l-0.095,0.029l-0.076,0.066
		c-4.147,3.605-10.725,7.408-17.425,9.146c-1.904-4.315-3.1-5.27-3.1-5.27c2.621,5.244,3.533,8.27,5.531,14.897l0.511,1.693
		c3.486,12.596,7.649,22.631,11.322,31.484c7.155,17.242,12.804,30.857,9.151,52.66c-2.342,16.578-10.177,30.431-22.111,40.525
		c-1.743,1.821-3.613,3.619-5.655,5.377c0.803-0.533,1.598-1.077,2.377-1.642c14.651-10.627,23.758-25.886,26.332-44.116
		c0.758-4.524,1.104-8.686,1.139-12.613c5.767,6.43,16.739,20.274,14.84,30.704c-1.95,10.697-8.364,20.236-11.388,24.266
		c-1.039,1.29-8.625,10.613-13.197,13.878c0,0,4.028-2.12,11.981-11.048l0.038-0.005c2.132-0.317,4.258-0.478,6.322-0.478
		c7.543,0,13.543,2.172,15.5,5.493c-5.492-1.874-12.034-0.725-12.034-0.725c0.08-0.004,7.991-0.485,13.501,2.367
		c4.62,2.574,7.368,4.898,6.932,8.021c-10.357-4.277-22.036-1.578-22.036-1.578c0.118-0.018,11.808-1.8,21.995,2.582
		c0.421,1.382,0.268,2.666-0.491,3.811c-1.456,2.193-5.884,4.995-18.713,5.886l-0.066,0.008c-7.395,1.558-18.312,3.414-28.341,3.414
		c-9.916,0-16.747-1.826-20.291-5.418c-3.382-3.59-2.32-7.813-1.091-12.704c0.531-2.116,1.102-4.425,1.355-6.867
		c-0.739,0.406-1.494,0.795-2.252,1.177c0.412-0.21,0.83-0.415,1.239-0.633c-0.271,2.103-0.773,4.118-1.269,6.09
		c-1.242,4.948-2.418,9.622,1.33,13.598c3.738,3.79,10.797,5.709,20.978,5.709c10.095,0,21.067-1.861,28.506-3.425
		c10.592-0.738,17.122-2.861,19.407-6.307c0.93-1.401,1.136-3.027,0.597-4.711c0.977-4.286-2.944-7.062-7.317-9.482l0,0
		c0,0,0,0-0.001,0c-0.217-0.121-0.433-0.241-0.652-0.359c-1.575-4.198-8.127-6.9-16.785-6.9c-1.723,0-3.487,0.11-5.264,0.327
		c0.249-0.315,0.563-0.728,0.909-1.188c0.026-0.032,0.052-0.059,0.076-0.09l-0.006-0.006c3.117-4.178,9.504-13.769,11.464-24.532
		c2.084-11.444-10.147-26.228-15.779-32.322c-0.167-14.509-4.8-25.734-10.349-39.108c-3.663-8.828-7.814-18.835-11.289-31.385
		l-0.515-1.701c-1.094-3.648-2.094-6.391-2.966-8.476c6.773-1.789,13.388-5.603,17.598-9.239
		c8.347-2.586,21.775-9.591,28.101-17.827c-0.067,0.007-0.13,0.023-0.196,0.028C488.908,183.837,488.55,183.845,488.194,183.854z"/>
	<path fill="#476D0F" d="M503.837,132.644c1.964-3.086,3.516-5.524,2.236-7.441c-0.465-0.698-1.491-0.86-2.271-0.873
		c-0.036,0-0.073,0-0.108,0c-3.793,0-9.892,3.129-13.795,8.429c-2.747,3.884-3.028,9.571-3.044,11.301
		c3.634-0.401,7.969-0.376,11.696,1.02c0.049-1.636,0.486-5.747,3.441-9.408C502.588,134.611,503.222,133.61,503.837,132.644z"/>
	<path fill="#243708" d="M517.085,133.373c-1.61-1.764-4.828-1.698-6.602-1.502c-2.055,0.229-4.441,0.902-6.223,1.882
		c0.127-0.201,0.255-0.401,0.381-0.599c2.063-3.245,3.848-6.047,2.225-8.481c-0.55-0.825-1.604-1.273-3.048-1.296
		c-3.733-0.045-9.616,2.621-13.859,7.729c0.216-3.398-0.502-5.706-2.104-6.72c-1.721-1.088-4.257-0.557-7.533,1.581
		c-7.55,4.923-10.36,16.352-7.438,29.992c-0.013-0.009-0.021-0.017-0.034-0.025c-1.044-0.723-2.152-1.761-3.312-2.845
		c-3.312-3.104-7.066-6.623-10.866-3.864c-1.115,0.946-1.415,3.131-0.841,6.153c2.918,11.192,9.088,15.861,13.017,17.753
		c0.48,0.231,0.923,0.418,1.326,0.574c1.345,0.518,2.208,0.653,2.208,0.653c-9.394-3.191-14.485-13.206-15.614-19.158
		c-0.486-2.553-0.286-4.564,0.491-5.225c3.137-2.275,6.438,0.818,9.629,3.808c1.148,1.077,2.248,2.103,3.319,2.86l-0.001,0.002
		c0.01,0.007,0.019,0.013,0.029,0.02c0.047,0.033,0.093,0.062,0.14,0.094c3.675,2.41,4.979,3.815,4.993,3.831
		c0,0-0.538-1.671-3.322-3.811c-3.15-13.487-0.486-25.265,6.794-30.014c2.897-1.889,5.146-2.434,6.504-1.574
		c1.484,0.939,2.019,3.563,1.508,7.387c-2.751,4.203-2.958,9.949-2.955,11.596c-0.097,0.013-0.198,0.022-0.292,0.036
		c-3.552,0.498-6.151,2.305-6.151,2.305c0.15-0.048,15.083-4.688,22.419,1.54c0,0-1.212-1.688-2.372-2.512
		c-0.007-0.963,0.144-5.44,3.248-9.29l0.006,0.002c0.015-0.026,0.043-0.051,0.06-0.077c0.182-0.221,0.37-0.439,0.571-0.655
		c1.375-1.26,4.254-2.379,7.201-2.706c2.714-0.3,4.824,0.136,5.795,1.197c0.468,0.512-0.272,1.57-1.735,3.547
		c-2.906,3.93-7.768,10.507-8.493,22.702c-0.145,12.564-6.962,21.643-16.964,22.589c-9.038,0.854-13.511-6.697-13.557-6.774
		c0,0,3.499,7.794,12.14,7.794c0.136,0,0.282-0.017,0.422-0.021c0.355-0.009,0.714-0.017,1.083-0.052
		c0.066-0.005,0.129-0.021,0.196-0.028c10.405-1.096,17.483-10.504,17.631-23.475c0.709-11.891,5.466-18.325,8.307-22.169
		C517.034,135.937,518.104,134.488,517.085,133.373z M498.551,145.079c-3.728-1.396-8.062-1.421-11.696-1.02
		c0.016-1.73,0.297-7.417,3.044-11.301c3.903-5.3,10.002-8.429,13.795-8.429c0.035,0,0.072,0,0.108,0
		c0.78,0.013,1.807,0.174,2.271,0.873c1.279,1.917-0.272,4.355-2.236,7.441c-0.615,0.967-1.249,1.968-1.845,3.027
		C499.037,139.332,498.6,143.442,498.551,145.079z"/>
	<path fill="#123A12" d="M430.893,56.939c-1.125-0.259-2.316-0.395-3.516-0.395c-6.801,0-13.004,4.317-16.823,7.701
		c0.125,0.28,0.245,0.571,0.365,0.861l0.005-0.001c0.069,0.145,0.128,0.291,0.188,0.437c5.886,0.142,15.58,1.521,23.838,8.025
		C435.23,67.283,434.826,58.109,430.893,56.939z"/>
	<path fill="#091D09" d="M410.554,64.246c3.819-3.384,10.022-7.701,16.823-7.701c1.199,0,2.391,0.135,3.516,0.395
		c3.934,1.169,4.338,10.344,4.058,16.629c0.302,0.238,0.606,0.469,0.903,0.722c0.347-6.209,0.192-16.812-4.719-18.271
		c-1.221-0.283-2.485-0.427-3.758-0.427c-7.056,0-13.33,4.275-17.256,7.731C410.268,63.627,410.413,63.93,410.554,64.246z"/>
	<path fill="#123A12" d="M458.102,83.104c-1.717-2.459-5.265-3.716-10.533-3.716c-2.352,0-4.635,0.264-6.425,0.544
		c3.932,5.261,6.996,12.409,8.309,22.104c3.69-4.044,7.737-10.34,8.83-14.859C458.721,85.357,458.66,83.987,458.102,83.104z"/>
	<path fill="#091D09" d="M441.144,79.932c1.79-0.281,4.073-0.544,6.425-0.544c5.269,0,8.816,1.257,10.533,3.716
		c0.559,0.883,0.619,2.253,0.181,4.073c-1.093,4.519-5.14,10.815-8.83,14.859c0.056,0.407,0.104,0.823,0.152,1.238
		c3.954-4.12,8.405-10.916,9.604-15.874c0.503-2.08,0.403-3.697-0.313-4.825c-1.916-2.747-5.729-4.142-11.326-4.142
		c-2.634,0-5.198,0.321-7.092,0.638C440.701,79.354,440.924,79.639,441.144,79.932z"/>
	<path fill="#123A12" d="M462.165,125.661c-1.505-7.525-8.184-12.509-12.093-14.841c0.021,8.631-0.984,16.396-2.562,23.188
		C454.827,131.711,462.667,128.34,462.165,125.661z"/>
	<path fill="#091D09" d="M450.072,110.819c3.909,2.332,10.588,7.316,12.093,14.841c0.502,2.679-7.338,6.05-14.654,8.347
		c-0.088,0.372-0.187,0.719-0.275,1.084c6.466-1.971,16.597-5.71,15.865-9.612c-1.663-8.312-9.059-13.53-13.017-15.782
		C450.087,110.079,450.071,110.442,450.072,110.819z"/>
	<path fill="#123A12" d="M449.483,162.092c1.492-4.596-3.005-10.271-6.493-13.813c-3.213,7.936-6.74,13.575-8.849,16.669
		c-0.35,0.826-0.606,1.722-0.771,2.696c2.997-1.265,5.906-1.513,8.459-1.73C445.602,165.591,448.326,165.358,449.483,162.092z"/>
	<path fill="#091D09" d="M442.99,148.279c3.488,3.542,7.985,9.217,6.493,13.813c-1.157,3.266-3.882,3.499-7.654,3.821
		c-2.553,0.217-5.462,0.466-8.459,1.73c-0.062,0.364-0.106,0.741-0.146,1.125c3.07-1.418,6.072-1.683,8.686-1.906
		c3.813-0.326,7.107-0.607,8.475-4.464c1.703-5.246-3.328-11.447-7.005-15.105C443.249,147.625,443.121,147.957,442.99,148.279z"/>
	<path fill="#476D0F" d="M353.599,265.219c-3.138,11.169-6.35,22.591-10.234,32.405c2.692-2.715,5.638-7.265,5.674-7.319
		c0,0-3.496,7.159-6.588,9.394c-0.149,0.108-14.747,10.996-8.42,35.421c3.661,13.074,10.802,20.876,15.113,24.605
		c0.784,0.587,1.589,1.163,2.369,1.766c0.388,0.301,0.75,0.59,1.106,0.877c0.024,0.015,0.075,0.047,0.08,0.049l0.146,0.13
		c6.474,5.253,7.456,7.979,7.456,7.979c-1.113-2.003-4.433-4.603-7.925-7.205c-7.756,0.833-20.729,5.015-25.154,10.785
		c-1.057,1.38-1.532,2.786-1.482,4.188c9.948-4.824,18.234-5.15,18.234-5.15c-10.434,2.026-16.816,5.385-18.153,6.135l0.002,0.013
		l-0.301,0.16c-4.146,2.202-6.634,4.518-6.338,5.897c0.155,0.725,1.319,1.999,7.326,2.41c12.419-6.266,22.21-6.272,22.21-6.272
		c-15.967,2.461-21.585,6.908-21.822,7.102c-1.113,1.112-2.103,2.239-1.813,2.927c0.58,1.387,5.567,2.042,14.823,1.969
		c16.568,0.472,30.038-1.727,31.593-2.349l0.093-0.026c5.383-0.979,21.379-5.388,24.171-12.555c0.842-2.166,0.373-4.446-1.397-6.781
		c-7.527-9.937-14.613-19.973-11.47-24.007c5.411-7.38,11.503-29.188-5.694-45.861c0,0,0.468,0.248,1.195,0.768
		c-7.329-14.135-8.929-32.427-4.853-56.38c-5.436-1.444-9.781-3.221-12.807-4.75C358.255,248.679,355.979,256.749,353.599,265.219z"
		/>
	<path fill="#476D0F" d="M375.959,186.083l-0.122-4.273c0,0-0.351,2.141-2.958,3.507c-0.23,0.121-0.552,0.261-0.959,0.438
		c-4.312,1.88-17.435,7.602-20.192,31.092c-1.136,12.129,2.437,19.294,5.843,21.741c3.103,2.229,12.556,6.921,26.156,8.757
		c1.899-1.686,4.535-2.219,4.535-2.219c-2.544,1.161-3.971,2.8-4.562,3.605c-2.214,3.124-4.329,9.036,2.191,16.94l0.729,0.884
		l-1.141-0.105c-3.456-0.321-6.596,0.534-7.302,1.983c-0.365,0.75-0.048,1.662,0.941,2.711l0.276,0.294
		c2.486,2.641,5.893,6.259,9.405,6.339c1.56,0.036,3.005-0.611,4.412-1.979v-0.001l0,0c7.747-7.443,3.138-16.098,3.09-16.185
		c0,0,5.656,8.664-2.078,16.515c1.973,1.884,4.542,2.904,6.979,2.735c2.279-0.162,4.255-1.314,5.715-3.336
		c5.622-10.469,2.222-18.331,2.187-18.408c0,0,4.313,7.662-1.049,18.249c3.119,0.257,5.546-0.405,7.39-2.048
		c2.79-2.487,4.187-7.257,4.147-14.171c-0.074-12.583-4.652-19.554-14.409-21.935l-1.256-0.307
		c-6.307-1.533-6.427-1.563-9.355-3.726c-0.274-0.206-0.577-0.429-0.916-0.675l-0.044-0.031c-1.257-0.99-2.599-1.971-3.987-2.914
		l-0.063-0.052c-0.816-0.786-1.547-1.503-2.216-2.164c-4.586-4.516-6.326-6.224-14.311-8.361c-1.163,0.489-2.448,0.659-3.634,0.659
		c-2.121,0-3.757-1.456-3.757-1.456c0.042,0.012,4.2,1.189,7.133-0.12c3.991-2.701,3.709-12.215,3.706-12.311
		c0,0,1.222,9.003-2.444,12.514c2.404,0.668,4.225,1.304,5.741,2.004c7.366-22.545,8.148-36.022,7.132-43.81
		c-0.055-0.005-0.108-0.01-0.163-0.015c-0.256-0.022-0.513-0.043-0.77-0.07c-0.973-0.097-1.941-0.208-2.907-0.347
		c-1.02-0.121-2.022-0.189-3.015-0.235c-0.308-0.014-0.614-0.021-0.923-0.028c-0.611-0.014-1.216-0.008-1.819,0.003
		C377.16,178.19,376.775,181.518,375.959,186.083z"/>
	<path fill="#476D0F" d="M307.211,358.127c12.682-0.001,24.111-2.188,34.003-5.743c-3.067-4.257-6.103-9.868-8.105-17.018
		c-1.737-6.71-1.918-12.422-1.258-17.205c-7.315,8.484-17.923,14.686-30.283,17.467c-17.108,3.848-36.215,0.911-53.8-8.272
		l-0.104-0.073c-0.131-0.124-0.28-0.155-0.443-0.094c-0.277,0.103-0.631,0.519-0.721,1.351c-0.15,1.413,0.228,9.192,22.586,23.541
		c0.065,0.041,0.139,0.081,0.203,0.123c12.955,3.931,25.711,5.924,37.915,5.924C307.205,358.127,307.208,358.127,307.211,358.127z"
		/>
	<path fill="#183111" d="M326.108,367.66c-0.03-0.002-0.057-0.005-0.086-0.008C326.051,367.655,326.079,367.658,326.108,367.66z"/>
	<path fill="#183111" d="M319.042,366.983c0.123,0.014,0.249,0.021,0.372,0.035c-0.318-0.034-0.636-0.067-0.952-0.105
		C318.657,366.936,318.847,366.961,319.042,366.983z"/>
	<path fill="#183111" d="M307.765,365.443c-0.275-0.044-0.554-0.087-0.828-0.133C307.211,365.356,307.49,365.399,307.765,365.443z"
		/>
	<path fill="#183111" d="M311.592,366.032c-0.428-0.062-0.853-0.125-1.276-0.189C310.739,365.907,311.164,365.97,311.592,366.032z"
		/>
	<path fill="#183111" d="M315.674,366.582c-0.433-0.055-0.867-0.11-1.299-0.167C314.808,366.472,315.241,366.527,315.674,366.582z"
		/>
	<path fill="#183111" d="M396.685,364.945c-0.054,0.004-0.105,0.01-0.159,0.014C396.579,364.955,396.633,364.949,396.685,364.945z"
		/>
	<path fill="#183111" d="M427.923,357.432c-0.785,0.351-1.58,0.688-2.382,1.014C426.343,358.117,427.138,357.783,427.923,357.432z"
		/>
	<path fill="#183111" d="M418.772,360.876c-0.779,0.243-1.562,0.475-2.353,0.697C417.21,361.352,417.993,361.118,418.772,360.876z"
		/>
	<path fill="#183111" d="M424.971,358.679c-0.8,0.32-1.606,0.624-2.422,0.921C423.364,359.303,424.171,358.999,424.971,358.679z"/>
	<path fill="#183111" d="M421.922,359.827c-0.797,0.283-1.6,0.553-2.409,0.813C420.322,360.38,421.125,360.11,421.922,359.827z"/>
	<path fill="#183111" d="M430.781,356.089c-0.751,0.372-1.512,0.728-2.278,1.078C429.27,356.816,430.031,356.461,430.781,356.089z"
		/>
	<path fill="#183111" d="M412.126,362.669c-0.685,0.159-1.373,0.312-2.064,0.455C410.753,362.981,411.441,362.827,412.126,362.669z"
		/>
	<path fill="#183111" d="M408.599,363.41c-0.602,0.114-1.202,0.228-1.81,0.331C407.396,363.638,407.997,363.523,408.599,363.41z"/>
	<path fill="#183111" d="M303.562,364.716c-0.182-0.033-0.36-0.068-0.543-0.103C303.202,364.647,303.381,364.683,303.562,364.716z"
		/>
	<path fill="#183111" d="M404.896,364.04c-0.483,0.072-0.968,0.147-1.455,0.215C403.929,364.188,404.412,364.112,404.896,364.04z"/>
	<path fill="#183111" d="M400.974,364.554c-0.317,0.035-0.635,0.074-0.953,0.107C400.341,364.63,400.656,364.589,400.974,364.554z"
		/>
	<path fill="#183111" d="M415.511,361.824c-0.741,0.201-1.486,0.395-2.237,0.577C414.025,362.219,414.77,362.025,415.511,361.824z"
		/>
	<path fill="#183111" d="M270.611,354.109c-0.016-0.008-0.03-0.018-0.047-0.025C270.581,354.092,270.596,354.102,270.611,354.109z"
		/>
	<path fill="#183111" d="M299.811,363.982c-0.058-0.013-0.114-0.023-0.17-0.034C299.697,363.959,299.753,363.97,299.811,363.982z"/>
	<path fill="#183111" d="M272.799,355.28c-0.022-0.011-0.043-0.021-0.065-0.032C272.756,355.259,272.777,355.27,272.799,355.28z"/>
	<path fill="#183111" d="M437.792,352.136c0.351-0.223,0.708-0.438,1.052-0.666C438.5,351.697,438.143,351.913,437.792,352.136z"/>
	<path fill="#183111" d="M434.476,354.125c0.593-0.336,1.187-0.668,1.766-1.017C435.662,353.457,435.068,353.791,434.476,354.125z"
		/>
	<path fill="#FFDC3E" d="M390.009,364.24c18.485-0.182,35.181-4.882,48.409-13.642c7.025-6.043,12.185-12.511,15.898-19.14
		c-10.95,6.952-23.415,9.151-34.751,9.151c-6.166,0-11.996-0.646-17.063-1.521c-5.093-0.878-9.779-2.042-13.816-3.222
		c-1.072,5.385-3.093,9.826-5.032,12.472C381.6,350.973,385.156,357.335,390.009,364.24z"/>
	<path fill="#FFDC3E" d="M390.194,228.797c1.395,0.949,2.744,1.934,4.009,2.931c0.355,0.258,0.66,0.483,0.936,0.688
		c2.773,2.049,2.773,2.049,9.016,3.568l1.257,0.306c6.262,1.528,10.539,4.983,12.909,10.458c10.191-0.784,20.431-3.255,28.605-8.794
		c-3.914-10.073-7.923-19.426-11.483-27.616c-14.064,5.729-30.896,6.869-41.973,6.869c-5.998,0-10.294-0.329-11.561-0.44
		c-0.393,1.281-0.812,2.596-1.252,3.939c2.748,1.428,4.525,3.173,7.358,5.964C388.675,227.318,389.392,228.024,390.194,228.797z"/>
	<path fill="#FFDC3E" d="M388.862,334.927c4.03,1.182,8.722,2.348,13.824,3.227c14.469,2.493,35.725,2.809,52.534-8.356
		c5.984-11.469,7.74-23.353,7.291-34.323c-1.327,0.95-3.579,2.541-4.789,3.321c-18.339,11.818-37.125,14.746-50.018,15.051
		c-0.828,0.02-1.646,0.028-2.445,0.028c-8.616,0-15.516-1.069-19.459-1.866C389.69,319.951,390.05,328.126,388.862,334.927z"/>
	<path fill="#FFDC3E" d="M383.16,307.477c0.775,1.137,1.458,2.287,2.072,3.441c4.047,0.862,12.188,2.222,22.486,1.974
		c12.761-0.306,31.354-3.208,49.499-14.905c1.226-0.79,3.916-2.67,5.234-3.612c-0.355-6.519-1.466-12.696-2.913-18.243
		c-1.069-4.102-2.249-8.171-3.494-12.198c-16.909,14.454-36.409,17.914-51.129,17.914c-1.478,0-2.906-0.033-4.281-0.096
		c-14.212-0.639-25.246-4.199-28.123-5.209c0.744,10.832,3.39,20.001,7.915,27.815C381.299,305.177,382.249,306.197,383.16,307.477z
		"/>
	<path fill="#FFDC3E" d="M421.546,170.152c-6.453,3.072-16.47,6.566-28.97,6.566c-0.987,0-1.976-0.03-2.966-0.075
		c-0.185-0.008-0.372-0.02-0.556-0.03c-0.388-0.021-0.777-0.036-1.166-0.063c0.352,2.824,0.472,6.356,0.153,10.739
		c2.688,0.514,19.298,3.239,35.976-4.336C422.223,177.797,421.52,174.155,421.546,170.152z"/>
	<path fill="#FFDC3E" d="M416.077,274.031c-2.106,1.879-4.981,2.636-8.535,2.257c-1.616,2.132-3.777,3.349-6.271,3.525
		c-0.201,0.015-0.401,0.021-0.604,0.021c-2.524,0-5.126-1.102-7.135-3.032c-1.482,1.317-3.079,1.962-4.754,1.927
		c-3.911-0.086-7.473-3.874-10.077-6.638l-0.274-0.291c-1.608-1.704-1.489-2.998-1.106-3.781c0.936-1.921,4.187-2.65,7.167-2.581
		c-6.088-7.964-3.881-13.991-1.578-17.243c-3.027-0.436-5.839-1.014-8.429-1.668c-1.832,10.779-2.507,20.399-2.013,28.987
		c2.05,0.744,13.384,4.624,28.24,5.284c14.961,0.669,36.603-1.908,55.034-17.844c-2.597-8.308-5.492-16.398-8.461-24.084
		c-8.386,5.65-18.688,7.986-28.617,8.752c1.223,3.197,1.854,7.022,1.88,11.521C420.587,266.347,419.083,271.354,416.077,274.031z"/>
	<path fill="#FFDC3E" d="M329.158,356.809c-6.807,1.457-14.14,2.287-21.947,2.287c-0.003,0-0.006,0-0.008,0
		c-11.074,0-22.593-1.627-34.305-4.841c13.618,7.031,36.764,11.826,62.348,13.013c0.817-0.384,1.657-0.751,2.514-1.097
		C333.215,363.084,329.908,358.02,329.158,356.809z"/>
	<path fill="#FFDC3E" d="M338.873,365.734c4.212-1.598,8.661-2.722,12.253-3.224c-0.638-0.455-1.524-1.129-2.569-2.035
		c-0.065-0.049-0.134-0.1-0.199-0.148l0.014-0.017c-1.86-1.63-4.194-3.981-6.555-7.124c-3.682,1.338-7.573,2.488-11.662,3.408
		C331.191,358.196,334.552,363.021,338.873,365.734z"/>
	<path fill="#FFDC3E" d="M429.678,197.043c-2.336-5.471-4.071-9.677-5.336-13.191c-9.543,4.319-18.811,5.208-25.885,5.208
		c-5.293,0-9.154-0.585-10.489-0.82c-0.588,6.964-2.254,15.981-5.771,27.594c4.267,0.357,31.737,2.232,52.866-6.369
		c-0.425-0.979-0.85-1.95-1.26-2.893C432.333,203.2,430.946,200.015,429.678,197.043z"/>
	<path fill="#806E1F" d="M335.246,367.268c-25.584-1.187-48.73-5.981-62.348-13.013c11.711,3.214,23.231,4.841,34.305,4.841
		c0.002,0,0.005,0,0.008,0c7.807,0,15.14-0.83,21.947-2.287c0.75,1.211,4.057,6.275,8.601,9.362c0.369-0.149,0.74-0.296,1.113-0.437
		c-4.321-2.713-7.682-7.538-8.718-9.14c4.089-0.92,7.98-2.07,11.662-3.408c-0.202-0.269-0.401-0.523-0.602-0.803
		c-9.892,3.556-21.321,5.742-34.003,5.743c-0.003,0-0.006,0-0.008,0c-12.204,0-24.96-1.993-37.915-5.924
		c-0.012-0.005-0.023-0.007-0.037-0.012l-3.219-0.978l-0.222-0.067l3.043,1.918c0.547,0.345,1.123,0.685,1.711,1.02
		c0.017,0.008,0.031,0.018,0.047,0.025c0.678,0.387,1.389,0.765,2.123,1.139c0.022,0.011,0.043,0.021,0.065,0.032
		c6.902,3.505,16.135,6.45,26.842,8.668c0.056,0.011,0.112,0.021,0.17,0.034c1.056,0.218,2.125,0.428,3.208,0.631
		c0.183,0.034,0.361,0.069,0.543,0.103c1.112,0.204,2.237,0.404,3.375,0.595c0.274,0.046,0.553,0.089,0.828,0.133
		c0.844,0.138,1.693,0.271,2.551,0.399c0.423,0.064,0.848,0.127,1.276,0.189c0.92,0.132,1.85,0.261,2.784,0.383
		c0.432,0.057,0.866,0.112,1.299,0.167c0.923,0.115,1.853,0.227,2.788,0.331c0.316,0.038,0.634,0.071,0.952,0.105
		c2.174,0.239,4.377,0.45,6.608,0.634c0.029,0.003,0.057,0.006,0.086,0.008c2.425,0.199,4.882,0.361,7.361,0.493
		C334.047,367.849,334.638,367.554,335.246,367.268z"/>
	<path fill="#806E1F" d="M433.713,354.564c0.258-0.142,0.507-0.295,0.763-0.439c0.593-0.334,1.187-0.668,1.766-1.017
		c0.525-0.316,1.037-0.646,1.551-0.973c0.351-0.223,0.708-0.438,1.052-0.666c0.053-0.034,0.107-0.065,0.159-0.101
		c0.015-0.014,0.029-0.027,0.046-0.041c2.042-1.758,3.912-3.556,5.655-5.377c21.928-22.937,20.903-50.396,15.771-70.064
		c-3.398-13.023-7.81-25.776-12.369-37.564l0.001-0.002l-0.007-0.014c-4.618-11.939-9.387-22.89-13.411-32.121
		c-1.467-3.37-2.854-6.552-4.121-9.521c-5.519-12.927-7.718-18.799-8.015-24.861c-0.422,0.003-0.667-0.013-0.667-0.013
		s0.058-0.73,0.156-1.875c-0.02,0.008-0.04,0.018-0.057,0.026c0.022-0.015,0.055-0.174,0.087-0.368
		c0.021-0.232,0.041-0.476,0.065-0.733c-0.144,0.093-0.278,0.138-0.512,0.248c-6.345,3.071-16.476,6.678-29.051,6.678
		c-3.118,0-6.269-0.228-9.379-0.677c-1.688-0.2-3.397-0.302-5.081-0.302c-16.214,0-29.045,9.335-38.413,16.151l-0.449,0.327
		c-2.59,1.969-5.642,3.01-8.826,3.01c-5.775,0-11.457-3.417-14.825-8.909c-1.488-2.558-1.797-4.968-0.852-6.612
		c0.674-1.171,1.952-1.816,3.597-1.816c0.142,0,0.288,0.005,0.436,0.015c6.683,0.436,13.109,4.145,15.743,6.966
		c0.181,0.203,0.442,0.512,0.745,0.898l0.175,0.245l0.01-0.006c0.635,0.846,1.327,1.934,1.514,2.871c0,0,0.192-1.492-0.81-3.311
		c2.235-1.389,5.783-3.291,9.879-5.485c7.252-3.883,16.279-8.716,24.046-13.868l1.19-0.901c12.021-9.104,24.38-18.493,25.458-26.521
		c-0.3-0.178-0.604-0.37-0.9-0.53c-0.256,3.301-2.681,6.927-6.354,10.722c-0.229,0.236-0.478,0.476-0.717,0.714
		c-0.569,0.568-1.162,1.138-1.778,1.712c-0.234,0.217-0.462,0.433-0.7,0.65c-1.746,1.587-3.656,3.194-5.659,4.811
		c-0.265,0.215-0.525,0.429-0.792,0.644c-1.42,1.134-2.882,2.271-4.362,3.408c-0.114,0.087-0.229,0.175-0.344,0.262
		c-0.636,0.488-1.276,0.977-1.917,1.464c-0.311,0.237-0.623,0.474-0.936,0.711c-0.186,0.141-0.371,0.281-0.557,0.422
		c-0.337,0.256-0.676,0.513-1.014,0.77l-1.167,0.884c-0.664,0.441-1.352,0.876-2.035,1.314c-0.273,0.175-0.541,0.353-0.817,0.529
		c-3.299,2.08-6.752,4.092-10.149,6c-0.314,0.176-0.626,0.351-0.94,0.524c-3.496,1.949-6.913,3.784-10.002,5.438
		c-4.083,2.188-7.639,4.092-9.906,5.494c-0.188-0.232-0.41-0.473-0.648-0.717c-0.021-0.022-0.034-0.045-0.056-0.068l-0.007,0.006
		c-1.141-1.152-2.796-2.399-4.807-3.521c-0.276-0.154-0.563-0.305-0.854-0.454c-2.782-1.434-6.123-2.583-9.609-2.945
		c-0.286-0.03-0.57-0.065-0.859-0.083c-0.28-0.018-0.551-0.021-0.814-0.01c-0.021,0.001-0.044,0.005-0.065,0.006
		c-0.016,0-0.033,0.004-0.049,0.005c-0.222,0.013-0.438,0.033-0.646,0.066c-0.064,0.011-0.123,0.029-0.186,0.041
		c-0.176,0.035-0.353,0.071-0.52,0.121c-0.078,0.023-0.15,0.056-0.225,0.082c-0.143,0.05-0.286,0.099-0.42,0.16
		c-0.086,0.04-0.165,0.088-0.249,0.132c-0.114,0.061-0.23,0.12-0.337,0.188c-0.087,0.057-0.167,0.124-0.251,0.186
		c-0.09,0.069-0.186,0.136-0.271,0.212c-0.082,0.073-0.156,0.155-0.233,0.235c-0.077,0.079-0.155,0.155-0.225,0.24
		c-0.07,0.085-0.133,0.179-0.197,0.271c-0.063,0.09-0.128,0.178-0.186,0.272c-0.015,0.024-0.033,0.045-0.047,0.069
		c-0.061,0.107-0.102,0.227-0.155,0.338c-0.059,0.125-0.125,0.245-0.174,0.375c-0.046,0.125-0.075,0.257-0.112,0.387
		c-0.042,0.151-0.09,0.301-0.121,0.459c-0.022,0.113-0.028,0.232-0.042,0.348c-0.021,0.185-0.049,0.367-0.054,0.559
		c-0.003,0.098,0.008,0.201,0.011,0.3c0.003,0.216,0.005,0.432,0.03,0.655c0.009,0.088,0.032,0.179,0.043,0.269
		c0.036,0.24,0.071,0.479,0.129,0.726c0.023,0.097,0.06,0.195,0.086,0.292c0.065,0.243,0.129,0.486,0.217,0.733
		c0.055,0.151,0.126,0.304,0.188,0.456c0.081,0.199,0.153,0.397,0.248,0.599c0.167,0.356,0.356,0.717,0.566,1.079
		c0.326,0.531,0.678,1.037,1.045,1.531c0.083,0.114,0.166,0.229,0.251,0.339c0.343,0.443,0.698,0.87,1.07,1.278
		c0.132,0.146,0.271,0.288,0.408,0.43c0.283,0.295,0.574,0.581,0.874,0.856c0.238,0.22,0.481,0.433,0.729,0.639
		c0.251,0.212,0.509,0.418,0.772,0.617c0.22,0.167,0.441,0.333,0.667,0.489c0.361,0.249,0.728,0.484,1.1,0.706
		c0.236,0.14,0.477,0.271,0.719,0.4c0.283,0.152,0.569,0.294,0.858,0.431c0.291,0.137,0.583,0.266,0.878,0.386
		c0.354,0.145,0.711,0.278,1.072,0.398c0.18,0.061,0.358,0.122,0.539,0.176c0.498,0.147,0.999,0.271,1.504,0.373
		c0.162,0.032,0.326,0.061,0.489,0.088c0.294,0.05,0.589,0.09,0.886,0.125c0.146,0.017,0.291,0.035,0.438,0.047
		c0.446,0.039,0.894,0.064,1.342,0.064c3.393,0,6.645-1.108,9.395-3.198l0.441-0.321c0.61-0.444,1.238-0.899,1.877-1.361
		c0.185-0.134,0.381-0.273,0.567-0.408c0.446-0.321,0.894-0.642,1.354-0.968c0.325-0.23,0.659-0.462,0.991-0.693
		c0.334-0.233,0.666-0.464,1.005-0.698c0.405-0.278,0.82-0.556,1.233-0.834c0.277-0.186,0.553-0.37,0.832-0.554
		c0.468-0.308,0.944-0.613,1.425-0.918c0.234-0.149,0.468-0.297,0.706-0.445c0.523-0.327,1.056-0.651,1.595-0.972
		c0.197-0.117,0.396-0.232,0.593-0.349c0.58-0.338,1.167-0.673,1.763-1.001c0.159-0.087,0.32-0.172,0.48-0.258
		c0.638-0.345,1.283-0.685,1.94-1.014c0.104-0.052,0.213-0.102,0.317-0.154c2.935-1.449,6.051-2.705,9.339-3.639
		c0.189-0.054,0.372-0.116,0.561-0.167c0.532-0.144,1.078-0.262,1.619-0.389c0.429-0.1,0.854-0.206,1.289-0.293
		c0.468-0.094,0.944-0.167,1.419-0.247c0.524-0.088,1.046-0.176,1.578-0.245c0.443-0.057,0.893-0.098,1.342-0.142
		c0.574-0.056,1.15-0.106,1.732-0.138c0.185-0.01,0.374-0.012,0.558-0.02c0.578-0.025,1.149-0.062,1.735-0.062
		c0.338,0,0.68,0.022,1.019,0.03c0.309,0.007,0.615,0.014,0.923,0.028c1.01,0.046,2.017,0.117,3.015,0.235
		c0.966,0.139,1.935,0.25,2.907,0.347c0.256,0.026,0.514,0.046,0.77,0.07c0.055,0.004,0.108,0.01,0.163,0.015
		c1.016,7.788,0.233,21.265-7.132,43.81c0.305,0.139,0.595,0.283,0.877,0.43c0.44-1.344,0.859-2.658,1.252-3.939
		c1.267,0.111,5.563,0.44,11.561,0.44c11.077,0,27.908-1.14,41.973-6.869c3.561,8.19,7.569,17.543,11.483,27.616
		c-8.175,5.539-18.414,8.01-28.605,8.794c0.123,0.282,0.231,0.582,0.344,0.876c9.93-0.766,20.231-3.102,28.617-8.752
		c2.969,7.686,5.864,15.776,8.461,24.084c-18.432,15.936-40.073,18.513-55.034,17.844c-14.856-0.66-26.19-4.54-28.24-5.284
		c-0.494-8.588,0.182-18.208,2.013-28.987c-0.313-0.079-0.633-0.155-0.938-0.236c-4.076,23.953-2.477,42.245,4.853,56.38
		c0.554,0.394,1.261,0.964,2.032,1.687c-4.524-7.814-7.17-16.983-7.915-27.815c2.877,1.01,13.911,4.57,28.123,5.209
		c1.375,0.062,2.804,0.096,4.281,0.096c14.72,0,34.22-3.46,51.129-17.914c1.245,4.027,2.425,8.097,3.494,12.198
		c1.447,5.547,2.558,11.725,2.913,18.243c-1.318,0.942-4.009,2.822-5.234,3.612c-18.146,11.697-36.738,14.6-49.499,14.905
		c-10.298,0.248-18.439-1.111-22.486-1.974c0.195,0.364,0.39,0.727,0.568,1.09c3.943,0.797,10.843,1.866,19.459,1.866
		c0.8,0,1.617-0.009,2.445-0.028c12.893-0.305,31.679-3.232,50.018-15.051c1.21-0.78,3.462-2.371,4.789-3.321
		c0.449,10.971-1.307,22.854-7.291,34.323c-16.81,11.165-38.065,10.85-52.534,8.356c-5.103-0.879-9.794-2.045-13.824-3.227
		c-0.057,0.318-0.113,0.632-0.177,0.941c4.037,1.18,8.724,2.344,13.816,3.222c5.067,0.874,10.897,1.521,17.063,1.521
		c11.336,0,23.801-2.199,34.751-9.151c-3.714,6.629-8.873,13.097-15.898,19.14c-13.229,8.76-29.924,13.46-48.409,13.642
		c0.222,0.315,0.452,0.635,0.68,0.952c1.964-0.029,3.912-0.102,5.837-0.233c0.054-0.004,0.105-0.01,0.159-0.014
		c1.119-0.077,2.231-0.173,3.336-0.284c0.318-0.033,0.636-0.072,0.953-0.107c0.826-0.093,1.65-0.188,2.467-0.299
		c0.487-0.067,0.972-0.143,1.455-0.215c0.633-0.096,1.266-0.191,1.894-0.299c0.607-0.104,1.208-0.217,1.81-0.331
		c0.488-0.094,0.979-0.187,1.463-0.286c0.691-0.144,1.38-0.296,2.064-0.455c0.384-0.087,0.767-0.176,1.147-0.268
		c0.751-0.183,1.496-0.376,2.237-0.577c0.305-0.083,0.607-0.166,0.909-0.251c0.79-0.223,1.573-0.454,2.353-0.697
		c0.246-0.076,0.495-0.155,0.74-0.235c0.81-0.261,1.612-0.53,2.409-0.813c0.211-0.074,0.419-0.15,0.627-0.228
		c0.815-0.297,1.622-0.601,2.422-0.921c0.192-0.076,0.381-0.157,0.57-0.233c0.802-0.326,1.597-0.663,2.382-1.014
		c0.193-0.085,0.386-0.177,0.58-0.265c0.767-0.351,1.527-0.706,2.278-1.078c0.228-0.112,0.453-0.232,0.68-0.348
		C432.219,355.359,432.974,354.971,433.713,354.564z M424.018,182.953c-16.678,7.576-33.288,4.851-35.976,4.336
		c0.318-4.383,0.198-7.915-0.153-10.739c0.389,0.027,0.778,0.042,1.166,0.063c0.185,0.01,0.369,0.021,0.556,0.03
		c0.99,0.044,1.979,0.075,2.966,0.075c12.5,0,22.517-3.494,28.97-6.566C421.52,174.155,422.223,177.797,424.018,182.953z
		 M382.197,215.834c3.517-11.613,5.183-20.629,5.771-27.594c1.335,0.234,5.196,0.82,10.489,0.82c7.074,0,16.342-0.889,25.885-5.208
		c1.265,3.515,3,7.72,5.336,13.191c1.269,2.972,2.655,6.156,4.126,9.529c0.41,0.943,0.835,1.915,1.26,2.893
		C413.935,218.066,386.464,216.191,382.197,215.834z"/>
	<path fill="#183111" d="M390.009,364.24c-4.853-6.905-8.409-13.268-6.355-15.9c1.939-2.646,3.96-7.087,5.032-12.472
		c0.063-0.31,0.12-0.623,0.177-0.941c1.188-6.801,0.828-14.976-3.062-22.919c-0.179-0.363-0.373-0.726-0.568-1.09
		c-0.614-1.154-1.297-2.305-2.072-3.441c-0.912-1.279-1.861-2.3-2.733-3.119c-0.771-0.723-1.478-1.293-2.032-1.687
		c-0.727-0.52-1.195-0.768-1.195-0.768c17.197,16.673,11.105,38.481,5.694,45.861c-3.143,4.034,3.942,14.07,11.47,24.007
		c1.771,2.335,2.239,4.615,1.397,6.781c-2.792,7.167-18.788,11.576-24.171,12.555l-0.093,0.026
		c-1.555,0.622-15.024,2.82-31.593,2.349c-9.256,0.073-14.243-0.582-14.823-1.969c-0.29-0.688,0.701-1.814,1.813-2.927
		c0.237-0.193,5.854-4.641,21.822-7.102c0,0-9.791,0.007-22.21,6.272c-6.006-0.411-7.17-1.686-7.326-2.41
		c-0.296-1.38,2.192-3.695,6.338-5.897l0.301-0.16l-0.002-0.013c1.337-0.75,7.719-4.108,18.153-6.135c0,0-8.287,0.326-18.234,5.15
		c-0.049-1.402,0.425-2.809,1.482-4.188c4.425-5.771,17.397-9.952,25.154-10.785c3.492,2.603,6.812,5.202,7.925,7.205
		c0,0-0.982-2.726-7.456-7.979l-0.146-0.13c-0.004-0.002-0.055-0.034-0.08-0.049c-0.357-0.287-0.718-0.576-1.106-0.877
		c-0.78-0.603-1.585-1.179-2.369-1.766c-4.311-3.729-11.452-11.531-15.113-24.605c-6.326-24.425,8.271-35.312,8.42-35.421
		c3.092-2.234,6.588-9.394,6.588-9.394c-0.036,0.055-2.981,4.604-5.674,7.319c3.885-9.814,7.096-21.236,10.234-32.405
		c2.38-8.47,4.656-16.54,7.137-23.678c3.026,1.529,7.371,3.306,12.807,4.75c0.305,0.081,0.625,0.157,0.938,0.236
		c2.59,0.654,5.402,1.232,8.429,1.668c-2.303,3.252-4.51,9.279,1.578,17.243c-2.98-0.069-6.231,0.66-7.167,2.581
		c-0.383,0.783-0.502,2.077,1.106,3.781l0.274,0.291c2.604,2.764,6.166,6.552,10.077,6.638c1.675,0.035,3.271-0.609,4.754-1.927
		c2.009,1.931,4.61,3.032,7.135,3.032c0.203,0,0.403-0.007,0.604-0.021c2.493-0.177,4.654-1.394,6.271-3.525
		c3.554,0.379,6.429-0.378,8.535-2.257c3.006-2.678,4.51-7.685,4.467-14.888c-0.026-4.498-0.657-8.323-1.88-11.521
		c-0.112-0.294-0.221-0.594-0.344-0.876c-2.37-5.475-6.647-8.93-12.909-10.458l-1.257-0.306c-6.242-1.52-6.242-1.52-9.016-3.568
		c-0.275-0.204-0.58-0.43-0.936-0.688c-1.265-0.997-2.614-1.981-4.009-2.931c-0.803-0.772-1.52-1.479-2.18-2.128
		c-2.833-2.791-4.61-4.536-7.358-5.964c-0.282-0.146-0.572-0.291-0.877-0.43c-1.516-0.7-3.337-1.336-5.741-2.004
		c3.666-3.511,2.444-12.514,2.444-12.514c0.003,0.096,0.285,9.61-3.706,12.311c-2.933,1.31-7.09,0.132-7.133,0.12
		c0,0,1.636,1.456,3.757,1.456c1.186,0,2.471-0.17,3.634-0.659c7.985,2.138,9.725,3.846,14.311,8.361
		c0.669,0.661,1.399,1.378,2.216,2.164l0.063,0.052c1.389,0.943,2.73,1.924,3.987,2.914l0.044,0.031
		c0.339,0.246,0.642,0.469,0.916,0.675c2.929,2.162,3.049,2.192,9.355,3.726l1.256,0.307c9.757,2.381,14.335,9.352,14.409,21.935
		c0.039,6.914-1.357,11.684-4.147,14.171c-1.844,1.643-4.271,2.305-7.39,2.048c5.362-10.587,1.049-18.249,1.049-18.249
		c0.035,0.077,3.436,7.939-2.187,18.408c-1.46,2.021-3.436,3.174-5.715,3.336c-2.437,0.169-5.006-0.852-6.979-2.735
		c7.734-7.851,2.078-16.515,2.078-16.515c0.048,0.087,4.657,8.741-3.09,16.185l0,0v0.001c-1.407,1.368-2.853,2.016-4.412,1.979
		c-3.513-0.08-6.919-3.698-9.405-6.339l-0.276-0.294c-0.989-1.049-1.306-1.961-0.941-2.711c0.706-1.449,3.846-2.305,7.302-1.983
		l1.141,0.105l-0.729-0.884c-6.52-7.904-4.406-13.816-2.191-16.94c0.591-0.806,2.018-2.444,4.562-3.605c0,0-2.636,0.533-4.535,2.219
		c-13.601-1.836-23.054-6.527-26.156-8.757c-3.406-2.447-6.979-9.612-5.843-21.741c2.757-23.491,15.88-29.212,20.192-31.092
		c0.407-0.177,0.729-0.317,0.959-0.438c2.607-1.366,2.958-3.507,2.958-3.507l0.122,4.273c0.815-4.566,1.201-7.893,1.356-10.31
		c0.603-0.011,1.208-0.018,1.819-0.003c-0.338-0.008-0.68-0.03-1.019-0.03c-0.585,0-1.157,0.038-1.735,0.062
		c-0.105,1.612-0.316,3.648-0.701,6.228c-0.418,0.558-1.213,1.379-3.243,2.442c-0.201,0.104-0.508,0.24-0.899,0.408
		c-4.437,1.934-17.938,7.821-20.758,31.867c-1.174,12.54,2.624,20.021,6.233,22.614c0.669,0.481,1.644,1.078,2.868,1.732
		c-2.505,7.187-4.801,15.322-7.201,23.866c-1.317,4.691-2.65,9.426-4.04,14.068c-0.103,0.35-0.208,0.703-0.314,1.053
		c-2.016,6.679-4.161,13.128-6.561,18.942c0,0,0,0-0.001,0c-0.141,0.112-0.402,0.327-0.755,0.649
		c-0.741,0.675-1.87,1.808-3.103,3.438c-0.235,0.313-0.476,0.651-0.718,1c-1.966,2.844-4.022,6.892-5.041,12.228
		c-1.626,2.023-3.443,3.92-5.423,5.684c-0.26,0.233-0.531,0.456-0.798,0.683c-1.715,1.463-3.544,2.826-5.481,4.078
		c-0.312,0.203-0.626,0.401-0.943,0.599c-4.732,2.923-10.059,5.207-15.807,6.731c-0.309,0.081-0.621,0.155-0.933,0.231
		c-0.468,0.118-0.93,0.245-1.403,0.353c-1.598,0.359-3.216,0.638-4.845,0.877c-0.377,0.058-0.755,0.12-1.136,0.169
		c-6.294,0.816-12.798,0.747-19.344-0.17c-0.337-0.046-0.672-0.08-1.01-0.133c-2.085-0.32-4.176-0.734-6.264-1.227
		c-0.368-0.087-0.738-0.178-1.104-0.269c-4.07-1.018-8.125-2.362-12.131-4.025c-0.309-0.127-0.62-0.25-0.927-0.383
		c-2.13-0.91-4.246-1.907-6.339-2.999c-0.387-0.332-0.896-0.423-1.373-0.244c-0.72,0.271-1.218,1.07-1.333,2.142
		c-0.219,2.039,0.695,9.535,20.479,22.777l3.219,0.978c0.014,0.005,0.025,0.007,0.037,0.012c-0.064-0.042-0.138-0.082-0.203-0.123
		c-22.358-14.349-22.736-22.128-22.586-23.541c0.09-0.832,0.444-1.248,0.721-1.351c0.163-0.062,0.312-0.03,0.443,0.094l0.104,0.073
		c17.585,9.184,36.692,12.12,53.8,8.272c12.36-2.781,22.968-8.982,30.283-17.467c-0.66,4.783-0.479,10.495,1.258,17.205
		c2.002,7.149,5.039,12.761,8.105,17.018c0.201,0.279,0.4,0.534,0.602,0.803c2.36,3.143,4.694,5.494,6.555,7.124l-0.014,0.017
		c0.065,0.049,0.134,0.1,0.199,0.148c1.045,0.906,1.931,1.58,2.569,2.035c-3.592,0.502-8.041,1.626-12.253,3.224
		c-0.374,0.141-0.744,0.287-1.113,0.437c-0.856,0.346-1.696,0.713-2.514,1.097c-0.607,0.286-1.198,0.581-1.776,0.886
		c-2.954,1.562-5.471,3.371-7.006,5.371c-1.308,1.704-1.871,3.466-1.683,5.239c-2.366,1.289-7.083,4.209-6.532,6.783
		c0.358,1.668,2.74,2.683,7.274,3.091c-1.007,1.093-1.753,2.21-1.32,3.245c0.557,1.324,2.857,2.66,15.693,2.553
		c1.574,0.044,3.12,0.065,4.634,0.065c14.371,0,25.64-1.866,27.274-2.465c5.953-1.09,21.889-5.545,24.844-13.14
		c0.972-2.491,0.459-5.082-1.523-7.7c-1.504-1.984-3.014-4.009-4.437-6.004C390.461,364.875,390.23,364.556,390.009,364.24z"/>
	<path fill="#2E0000" d="M368.477,147.962c-0.93,0.144-1.785,0.208-2.583,0.208c-2.779,0-4.871-0.777-6.984-1.651
		c-0.221,0.987-0.519,2.029-0.899,3.039c2.032-0.628,4.122-0.966,6.33-0.966c2.372,0,4.812,0.371,7.452,1.134
		c0.225-0.082,0.451-0.163,0.678-0.242c0.239-0.087,0.477-0.173,0.738-0.264c0.083-0.027,0.157-0.059,0.239-0.085l0.001,0.004
		c1.689-0.58,3.8-1.206,6.027-1.637c0.033-0.039,0.055-0.087,0.088-0.124c0.485-0.554,1.083-0.836,1.784-0.836
		c0.542,0,1.121,0.185,1.709,0.492c0.431-0.027,0.858-0.055,1.278-0.055c2.076,0,3.789,0.358,5.145,1.052
		c3.674-3.795,6.099-7.42,6.354-10.722c-0.552-0.297-1.095-0.565-1.626-0.805C390.467,139.445,378.596,146.388,368.477,147.962z"/>
	<path fill="#6A0000" d="M331.164,167.859c-4.44,3.847-9.187,6.861-11.458,8.226c3.486,0.362,6.827,1.512,9.609,2.945
		c0.665-2.292,1.778-4.929,3.597-7.87C332.362,170.236,331.73,169.093,331.164,167.859z"/>
	<path fill="#6A0000" d="M349.365,154.069c-0.62-0.631-1.186-1.446-1.722-2.382c-1.35,1.334-2.768,2.681-4.218,4.053
		c-1.74,1.646-3.507,3.327-5.173,5.011c0.703,0.447,1.349,0.914,1.891,1.341c0.287-0.295,0.551-0.584,0.851-0.883
		C343.918,158.417,346.661,156.014,349.365,154.069z"/>
	<path fill="#170000" d="M318.033,175.992c0.263-0.011,0.534-0.008,0.814,0.01c0.289,0.018,0.573,0.053,0.859,0.083
		c2.272-1.365,7.019-4.379,11.458-8.226c-0.14-0.3-0.27-0.606-0.397-0.914c-5.719,5.006-12.057,8.635-12.8,9.053
		C317.989,175.997,318.011,175.993,318.033,175.992z"/>
	<path fill="#170000" d="M338.251,160.751c1.666-1.684,3.433-3.366,5.173-5.011c1.45-1.372,2.869-2.719,4.218-4.053
		c-0.16-0.279-0.317-0.573-0.475-0.872c-1.402,1.39-2.882,2.798-4.398,4.232c-1.803,1.705-3.636,3.45-5.361,5.199
		C337.696,160.409,337.979,160.578,338.251,160.751z"/>
	<path fill="#C4C4C4" d="M332.972,159.725c-0.818,0-1.43,0.274-1.869,0.838c-1.504,1.933,0.547,6.523,2.387,9.709
		c1.521-2.329,3.48-4.832,5.988-7.49C337.793,161.47,335.04,159.725,332.972,159.725z"/>
	<path fill="#6B6C6C" d="M331.164,167.859c0.566,1.234,1.198,2.377,1.748,3.301c0.181-0.291,0.384-0.592,0.579-0.888
		c-1.84-3.186-3.891-7.776-2.387-9.709c0.439-0.563,1.051-0.838,1.869-0.838c2.068,0,4.821,1.746,6.506,3.057
		c0.215-0.228,0.441-0.459,0.664-0.689c-0.542-0.428-1.188-0.894-1.891-1.341c-0.273-0.174-0.555-0.342-0.842-0.505
		c-1.45-0.824-3.045-1.476-4.437-1.476c-1.116,0-1.998,0.406-2.621,1.206c-1.259,1.618-0.654,4.379,0.416,6.968
		C330.894,167.252,331.024,167.559,331.164,167.859z"/>
	<path fill="#FF657E" d="M386.985,150.458c0.616-0.575,1.209-1.145,1.778-1.712c-1.162-0.529-2.611-0.802-4.35-0.81
		C385.296,148.635,386.172,149.523,386.985,150.458z"/>
	<path fill="#FF657E" d="M378.911,148.588c-2.071,0.446-4.01,1.047-5.539,1.586c-0.145,0.047-0.281,0.1-0.424,0.15
		c-0.339,0.122-0.667,0.242-0.953,0.352l-0.149,0.057l-0.033-0.01c-14.546,5.279-20.499,13.744-20.56,13.832
		c0,0,5.117-8.76,18.971-14.251c-2.056-0.501-3.999-0.761-5.883-0.761c-2.383,0-4.631,0.418-6.824,1.186
		c-1.039,2.262-2.529,4.167-4.528,4.612c-0.263,0.059-0.527,0.089-0.783,0.089l0,0c-0.777,0-1.469-0.263-2.105-0.72
		c-2.72,1.936-5.485,4.358-8.443,7.181c-7.099,7.068-10.219,13.067-11.49,17.592c2.011,1.122,3.666,2.369,4.807,3.521l0.007-0.006
		c0.021,0.023,0.034,0.045,0.056,0.068c0.238,0.245,0.46,0.485,0.648,0.717c2.267-1.402,5.823-3.306,9.906-5.494
		c3.09-1.654,6.507-3.489,10.002-5.438c-0.189-4.09,0.27-8.819,3.066-10.521c0.607-0.369,1.28-0.557,2.002-0.557
		c2.32,0,4.807,1.918,6.839,4.025c0.684-0.438,1.371-0.873,2.035-1.314l1.169-0.887c0.337-0.255,0.676-0.511,1.012-0.767
		c0.187-0.141,0.372-0.281,0.557-0.422c0.313-0.237,0.625-0.474,0.936-0.711c0.642-0.488,1.282-0.976,1.917-1.464
		c0.116-0.087,0.23-0.175,0.344-0.262c1.48-1.137,2.942-2.274,4.362-3.408C378.84,153.542,378.274,150.556,378.911,148.588z"/>
	<path fill="#FF3D5C" d="M383.058,147.035c0.447,0.233,0.903,0.543,1.356,0.902c1.738,0.008,3.188,0.28,4.35,0.81
		c0.239-0.238,0.488-0.478,0.717-0.714c-1.355-0.694-3.068-1.052-5.145-1.052C383.916,146.98,383.488,147.008,383.058,147.035z"/>
	<path fill="#FF3D5C" d="M370.224,150.305c-13.854,5.491-18.971,14.251-18.971,14.251c0.061-0.088,6.014-8.553,20.56-13.832
		l0.033,0.01l0.149-0.057c0.285-0.11,0.613-0.23,0.953-0.352c0.143-0.05,0.279-0.103,0.424-0.15c1.529-0.539,3.468-1.14,5.539-1.586
		c0.133-0.411,0.324-0.772,0.566-1.085c-2.228,0.431-4.338,1.057-6.027,1.637l-0.001-0.004c-0.083,0.026-0.157,0.058-0.239,0.085
		c-0.262,0.091-0.5,0.177-0.738,0.264c-0.228,0.079-0.453,0.16-0.678,0.242c-2.64-0.763-5.08-1.134-7.452-1.134
		c-2.208,0-4.298,0.338-6.33,0.966c-0.15,0.398-0.317,0.788-0.494,1.172c2.193-0.768,4.441-1.186,6.824-1.186
		C366.226,149.544,368.168,149.803,370.224,150.305z"/>
	<path fill="#FF3D5C" d="M341.658,161.892c2.958-2.823,5.723-5.246,8.443-7.181c-0.254-0.183-0.5-0.399-0.736-0.642
		c-2.704,1.945-5.447,4.348-8.372,7.14c-0.3,0.299-0.564,0.588-0.851,0.883c-0.223,0.23-0.449,0.461-0.664,0.689
		c-2.508,2.658-4.467,5.161-5.988,7.49c-0.194,0.296-0.398,0.597-0.579,0.888c-1.819,2.941-2.932,5.578-3.597,7.87
		c0.29,0.149,0.578,0.3,0.854,0.454C331.439,174.959,334.559,168.96,341.658,161.892z"/>
	<path fill="#C4C4C4" d="M360.662,162.728c-0.552,0-1.045,0.137-1.507,0.418c-2.33,1.417-2.737,5.621-2.621,9.182
		c3.397-1.908,6.851-3.92,10.149-6C364.864,164.471,362.634,162.728,360.662,162.728z"/>
	<path fill="#6B6C6C" d="M360.662,161.774c-0.722,0-1.395,0.188-2.002,0.557c-2.796,1.702-3.255,6.431-3.066,10.521
		c0.313-0.174,0.625-0.348,0.94-0.524c-0.116-3.562,0.292-7.765,2.621-9.182c0.462-0.281,0.955-0.418,1.507-0.418
		c1.973,0,4.202,1.743,6.021,3.6c0.276-0.176,0.544-0.354,0.817-0.529C365.469,163.692,362.981,161.774,360.662,161.774z"/>
	<path fill="#C4C4C4" d="M381.349,147.496c-0.418,0-0.766,0.167-1.064,0.509c-1.042,1.195-0.9,3.988,0.342,7.915
		c2.003-1.617,3.913-3.224,5.659-4.811C384.286,148.809,382.529,147.496,381.349,147.496z"/>
	<path fill="#6B6C6C" d="M384.414,147.937c-0.453-0.359-0.909-0.668-1.356-0.902c-0.588-0.307-1.167-0.492-1.709-0.492
		c-0.701,0-1.299,0.282-1.784,0.836c-0.033,0.037-0.055,0.085-0.088,0.124c-0.243,0.313-0.434,0.675-0.566,1.085
		c-0.637,1.967-0.071,4.953,0.923,7.975c0.268-0.215,0.527-0.429,0.792-0.644c-1.242-3.927-1.384-6.72-0.342-7.915
		c0.298-0.342,0.646-0.509,1.064-0.509c1.181,0,2.938,1.313,4.937,3.613c0.238-0.217,0.466-0.433,0.7-0.65
		C386.172,149.523,385.296,148.635,384.414,147.937z"/>
	<path fill="#FFFFFF" d="M405.718,84.376c-2.135-4.246-5.369-6.855-9.104-7.347l-0.122-0.015c-0.901-0.107-1.819-0.087-2.729,0.058
		c-6.798,1.089-12.694,9.002-14.02,18.817c-0.748,5.539,0.024,10.945,2.175,15.22c2.134,4.246,5.367,6.855,9.102,7.347l0.123,0.016
		c0.899,0.107,1.818,0.087,2.73-0.058c6.797-1.088,12.692-9.001,14.017-18.817C408.638,94.059,407.866,88.653,405.718,84.376z
		 M402.365,104c-1.604,7.711-7.123,12.787-12.329,11.337c-5.202-1.45-8.124-8.875-6.521-16.586
		c1.603-7.71,7.122-12.785,12.326-11.336C401.048,88.864,403.967,96.29,402.365,104z"/>
	<path fill="#FFFFFF" d="M361.143,80.207c-1.34-3.685-3.583-5.979-6.319-6.462l-0.088-0.015c-0.661-0.107-1.341-0.104-2.021,0.006
		c-1.129,0.184-2.241,0.671-3.309,1.388c-0.078,2.397-0.007,5.086,0.212,8.088c1.328-0.779,2.728-1.018,4.054-0.55
		c3.769,1.329,5.509,7.759,3.892,14.364c-0.489,2.005-1.238,3.791-2.143,5.275c1.108,0.021,2.148,0.126,3.105,0.288
		c1.541-2.602,2.739-5.781,3.37-9.261C362.76,88.578,362.492,83.917,361.143,80.207z"/>
	<path fill="#183111" d="M366.844,177.276c-0.189,0.05-0.372,0.113-0.561,0.167C366.473,177.389,366.655,177.327,366.844,177.276z"
		/>
	<path fill="#183111" d="M356.944,181.082c-0.104,0.052-0.214,0.102-0.317,0.154C356.73,181.184,356.84,181.134,356.944,181.082z"/>
	<path fill="#183111" d="M348.125,186.193c-0.279,0.185-0.555,0.369-0.832,0.554C347.569,186.562,347.846,186.377,348.125,186.193z"
		/>
	<path fill="#183111" d="M350.256,184.83c-0.238,0.148-0.472,0.295-0.706,0.445C349.782,185.125,350.018,184.978,350.256,184.83z"/>
	<path fill="#183111" d="M354.687,182.25c-0.16,0.086-0.321,0.171-0.48,0.258C354.366,182.421,354.527,182.336,354.687,182.25z"/>
	<path fill="#FFFFFF" d="M348.705,83.833c0.298-0.239,0.604-0.44,0.912-0.621c-0.219-3.002-0.29-5.691-0.212-8.088
		c-0.326,0.219-0.648,0.459-0.964,0.722C348.393,78.24,348.477,80.891,348.705,83.833z"/>
	<path fill="#183111" d="M352.444,183.509c-0.198,0.116-0.396,0.232-0.593,0.349C352.048,183.741,352.247,183.626,352.444,183.509z"
		/>
	<path fill="#183111" d="M313.363,179.84c0.03-0.158,0.078-0.308,0.121-0.459C313.441,179.532,313.394,179.682,313.363,179.84z"/>
	<path fill="#183111" d="M339.823,192.03l0.442-0.321c0.61-0.445,1.238-0.9,1.876-1.361c-0.64,0.462-1.268,0.917-1.877,1.361
		L339.823,192.03z"/>
	<path fill="#183111" d="M313.596,178.994c0.049-0.13,0.115-0.251,0.174-0.375C313.71,178.743,313.645,178.863,313.596,178.994z"/>
	<path fill="#183111" d="M369.752,176.594c-0.435,0.087-0.86,0.194-1.289,0.293C368.892,176.789,369.317,176.682,369.752,176.594z"
		/>
	<path fill="#183111" d="M314.355,177.667c0.07-0.085,0.148-0.161,0.225-0.24C314.503,177.506,314.425,177.582,314.355,177.667z"/>
	<path fill="#183111" d="M316.082,187.726c-0.086-0.11-0.168-0.225-0.251-0.339C315.914,187.501,315.996,187.615,316.082,187.726z"
		/>
	<path fill="#183111" d="M314,178.155c-0.011,0.018-0.018,0.038-0.029,0.055c0.058-0.095,0.123-0.182,0.186-0.272
		C314.105,178.012,314.047,178.078,314,178.155z"/>
	<path fill="#183111" d="M314.813,177.192c0.085-0.076,0.181-0.143,0.271-0.212C314.994,177.049,314.898,177.115,314.813,177.192z"
		/>
	<path fill="#183111" d="M317.272,176.069c0.208-0.034,0.424-0.053,0.646-0.066C317.698,176.016,317.48,176.036,317.272,176.069z"/>
	<path fill="#183111" d="M375.824,175.822c-0.582,0.032-1.159,0.082-1.732,0.138C374.665,175.904,375.242,175.854,375.824,175.822z"
		/>
	<path fill="#183111" d="M372.749,176.103c-0.532,0.069-1.054,0.157-1.578,0.245C371.695,176.26,372.217,176.172,372.749,176.103z"
		/>
	<path fill="#183111" d="M315.335,176.793c0.107-0.069,0.223-0.127,0.337-0.188C315.559,176.666,315.442,176.725,315.335,176.793z"
		/>
	<path fill="#183111" d="M316.566,176.23c0.167-0.049,0.344-0.085,0.52-0.121C316.91,176.145,316.733,176.181,316.566,176.23z"/>
	<path fill="#183111" d="M315.921,176.473c0.134-0.062,0.278-0.11,0.42-0.16C316.199,176.363,316.055,176.411,315.921,176.473z"/>
	<path fill="#183111" d="M313.309,181.702c-0.025-0.223-0.027-0.438-0.03-0.655C313.281,181.264,313.284,181.479,313.309,181.702z"
		/>
	<path fill="#183111" d="M322.421,193.14c-0.242-0.129-0.483-0.26-0.719-0.4C321.938,192.88,322.179,193.011,322.421,193.14z"/>
	<path fill="#183111" d="M313.481,182.696c-0.058-0.247-0.093-0.485-0.129-0.726C313.388,182.211,313.423,182.45,313.481,182.696z"
		/>
	<path fill="#183111" d="M325.769,194.532c-0.181-0.055-0.359-0.116-0.539-0.176C325.41,194.416,325.588,194.478,325.769,194.532z"
		/>
	<path fill="#183111" d="M349.506,73.161c0.457-6.28,2.092-10.313,4.989-12.507c3.989-3.021,10.569-2.589,20.09,1.304
		c-2.039,3.337-1.331,7.979-1.331,7.979c0-0.055-0.027-4.821,2.367-7.882l0.014-0.015c0.29-0.325,0.592-0.648,0.91-0.969
		c0.009-0.009,0.017-0.018,0.027-0.025l-0.002-0.001c4.871-4.924,12.967-9.293,20.391-7.965c5.881,1.051,10.381,5.461,13.371,13.106
		l0.117,0.298l0.028,0.001c1.151,2.985,1.018,5.784,1.015,5.814c0,0,0.857-2.746-0.033-5.79
		c11.377,0.366,36.199,5.485,37.676,42.872c0.367,22.511-7.235,39.994-12.323,49.236l0.002,0c0,0-0.013,0.021-0.035,0.059
		c-0.283,0.513-0.562,1.01-0.827,1.473c-0.967,1.772-2.504,4.769-3.328,7.305c-1.742,9.742,4.269,21.877,4.269,21.877
		c-0.749-2.472-1.412-4.802-1.967-6.988c2.422,0.451,5.389,0.84,8.438,0.84c2.621,0,4.988-0.291,7.094-0.858
		c-3.782,3.512-4.68,8.036-4.68,8.036c0.021-0.067,2.204-6.687,8.913-9.731c4.637-2.175,11.387-5.035,17.485-6.924
		c-0.403-0.155-0.846-0.343-1.326-0.574c-5.801,1.874-11.996,4.501-16.372,6.545l-0.001-0.003c-0.049,0.021-0.092,0.047-0.141,0.069
		c-0.731,0.343-1.432,0.676-2.047,0.978c-2.459,1-5.463,1.508-8.926,1.508c-3.166,0-6.238-0.428-8.682-0.903
		c-1.204-4.972-1.787-9.166-1.456-12.558c0.039-0.383,0.083-0.761,0.146-1.125c0.165-0.974,0.422-1.87,0.771-2.696
		c2.108-3.094,5.636-8.733,8.849-16.669c0.131-0.323,0.259-0.655,0.39-0.986c1.42-3.622,2.752-7.689,3.855-12.202
		c0.089-0.365,0.188-0.712,0.275-1.084c1.577-6.792,2.582-14.557,2.562-23.188c-0.001-0.377,0.015-0.741,0.012-1.122
		c-0.001-0.117,0.003-0.227,0.002-0.344c-0.085-2.133-0.254-4.146-0.481-6.079c-0.049-0.416-0.097-0.832-0.152-1.238
		c-1.312-9.696-4.377-16.844-8.309-22.104c-0.22-0.293-0.442-0.578-0.667-0.859c-1.45-1.819-3.002-3.412-4.623-4.782
		c-0.297-0.252-0.602-0.484-0.903-0.722c-8.258-6.504-17.952-7.883-23.838-8.025c-0.061-0.146-0.119-0.292-0.188-0.437l-0.005,0.001
		c-0.12-0.29-0.24-0.581-0.365-0.861c-0.141-0.316-0.286-0.619-0.433-0.922c-3.094-6.428-7.452-10.192-12.993-11.182
		c-7.734-1.381-16.115,3.102-21.174,8.18v0c-0.295,0.252-0.552,0.531-0.791,0.82c-0.004,0.004-0.009,0.009-0.014,0.014
		c-9.972-4.112-16.92-4.524-21.229-1.261c-3.26,2.468-5.039,6.999-5.42,14.133C348.832,73.713,349.167,73.429,349.506,73.161z"/>
	<path fill="#183111" d="M327.457,194.95c0.102,0.019,0.202,0.025,0.305,0.043c-0.163-0.028-0.327-0.056-0.489-0.088
		C327.335,194.916,327.395,194.938,327.457,194.95z"/>
	<path fill="#183111" d="M324.158,193.958c-0.295-0.12-0.588-0.249-0.878-0.386C323.57,193.708,323.863,193.837,324.158,193.958z"/>
	<path fill="#183111" d="M317.56,189.434c-0.137-0.142-0.275-0.283-0.408-0.43C317.284,189.151,317.423,189.291,317.56,189.434z"/>
	<path fill="#183111" d="M314.219,184.777c-0.094-0.202-0.167-0.4-0.248-0.599C314.053,184.377,314.124,184.575,314.219,184.777z"/>
	<path fill="#183111" d="M320.602,192.034c-0.226-0.157-0.447-0.323-0.667-0.489C320.154,191.711,320.375,191.877,320.602,192.034z"
		/>
	<path fill="#183111" d="M313.784,183.722c-0.087-0.247-0.152-0.49-0.217-0.733C313.632,183.232,313.697,183.475,313.784,183.722z"
		/>
	<path fill="#183111" d="M319.163,190.928c-0.248-0.206-0.491-0.419-0.729-0.639C318.671,190.51,318.914,190.722,319.163,190.928z"
		/>
	<path fill="#183111" d="M344.062,188.973c-0.46,0.326-0.907,0.647-1.354,0.968C343.155,189.62,343.605,189.297,344.062,188.973z"/>
	<path fill="#183111" d="M329.086,195.164c-0.146-0.012-0.291-0.03-0.438-0.047C328.795,195.133,328.939,195.152,329.086,195.164z"
		/>
	<path fill="#183111" d="M313.268,180.747c0.005-0.191,0.033-0.374,0.054-0.559C313.3,180.373,313.272,180.556,313.268,180.747z"/>
	<path fill="#183111" d="M346.059,187.581c-0.339,0.234-0.671,0.465-1.005,0.698C345.386,188.046,345.72,187.813,346.059,187.581z"
		/>
	<path fill="#183111" d="M380.058,175.798c0.993,0.046,1.995,0.115,3.015,0.235C382.075,175.916,381.067,175.845,380.058,175.798z"
		/>
	<path fill="#183111" d="M385.979,176.381c0.257,0.026,0.514,0.048,0.77,0.07C386.493,176.427,386.235,176.407,385.979,176.381z"/>
	<path fill="#183111" d="M389.055,176.614c0.184,0.01,0.371,0.022,0.556,0.03C389.424,176.635,389.239,176.624,389.055,176.614z"/>
	<path fill="#183111" d="M421.986,169.941c0.017-0.008,0.037-0.018,0.057-0.026c0.011-0.111,0.02-0.223,0.03-0.342
		C422.041,169.767,422.009,169.927,421.986,169.941z"/>
	<path fill="#183111" d="M318.033,175.992c0.263-0.011,0.534-0.008,0.814,0.01C318.566,175.983,318.295,175.981,318.033,175.992z"/>
	<path fill="#183111" d="M369.536,164.485l1.167-0.884c0.338-0.256,0.677-0.513,1.014-0.77c-0.336,0.256-0.675,0.512-1.012,0.767
		L369.536,164.485z"/>
	<path fill="#183111" d="M373.209,161.698c-0.311,0.237-0.623,0.475-0.936,0.711C372.586,162.172,372.898,161.936,373.209,161.698z"
		/>
	<path fill="#183111" d="M375.471,159.972c-0.114,0.087-0.229,0.175-0.344,0.262C375.243,160.146,375.357,160.059,375.471,159.972z"
		/>
	<path fill="#FFDC3E" d="M423.039,160.345c-0.534-17.095-16.964-19.098-19.408-17.977c-0.055-0.126-0.137-0.238-0.199-0.36
		c-0.097,0.245-0.173,0.415-0.21,0.495c0.045,0.123,0.063,0.195,0.063,0.195c-0.107-0.113-0.216-0.204-0.322-0.313
		c0.236,0.437,0.289,0.678,0.289,0.678c-2.204-2.308-4.409-3.978-6.517-5.223c-1.078,8.027-13.437,17.416-25.458,26.521l-1.19,0.901
		c-7.767,5.152-16.793,9.985-24.046,13.868c-4.096,2.195-7.644,4.096-9.879,5.485c1.002,1.819,0.81,3.311,0.81,3.311
		c-0.188-0.938-0.879-2.025-1.514-2.871l-0.01,0.006l-0.175-0.245c-0.302-0.387-0.564-0.696-0.745-0.898
		c-2.634-2.821-9.061-6.53-15.743-6.966c-0.148-0.01-0.294-0.015-0.436-0.015c-1.646,0-2.923,0.646-3.597,1.816
		c-0.946,1.645-0.637,4.055,0.852,6.612c3.368,5.491,9.05,8.909,14.825,8.909c3.184,0,6.236-1.041,8.826-3.01l0.449-0.327
		c9.368-6.816,22.199-16.151,38.413-16.151c1.684,0,3.394,0.102,5.081,0.302c3.11,0.45,6.261,0.677,9.379,0.677
		c12.575,0,22.706-3.607,29.051-6.678c0.233-0.11,0.368-0.155,0.512-0.248C422.349,166.503,422.672,163.176,423.039,160.345z"/>
	<path d="M343.406,105.601c-0.519-0.814-0.981-1.736-1.363-2.786c-1.349-3.71-1.617-8.371-0.752-13.122
		c1.087-5.98,3.83-11.086,7.149-13.846c0.316-0.263,0.639-0.503,0.964-0.722c1.068-0.717,2.18-1.205,3.309-1.388
		c0.681-0.111,1.36-0.113,2.021-0.006l0.088,0.015c2.736,0.483,4.979,2.778,6.319,6.462c1.349,3.711,1.617,8.371,0.752,13.122
		c-0.631,3.48-1.83,6.66-3.37,9.261c0.2,0.034,0.396,0.071,0.591,0.109c1.51-2.618,2.692-5.779,3.327-9.272
		c1.104-6.076,0.76-12.978-1.561-16.954c-1.427-2.442-3.268-4.849-5.473-5.238l-0.092-0.016c-1.916-0.309-3.916,0.449-5.811,1.942
		c-0.339,0.268-0.675,0.552-1.006,0.866c-3.57,3.373-6.619,9.305-7.757,15.568c-1.105,6.075-0.377,12.076,1.943,16.051
		c0.056,0.095,0.117,0.179,0.174,0.271C343.043,105.805,343.224,105.707,343.406,105.601z"/>
	<path fill="#2E3191" d="M353.671,82.663c-1.327-0.468-2.726-0.229-4.054,0.55c-0.308,0.18-0.614,0.381-0.912,0.621
		c-2.071,1.651-3.868,4.642-4.785,8.382c-1.198,4.884-0.553,9.667,1.387,12.368c0.09-0.042,0.178-0.08,0.267-0.121
		c-1.948-2.595-2.607-7.307-1.43-12.113c1.569-6.402,5.801-10.547,9.453-9.26c3.654,1.288,5.341,7.521,3.774,13.924
		c-0.497,2.021-1.259,3.816-2.183,5.289c0.078,0.001,0.156-0.001,0.232,0.001c0.905-1.484,1.653-3.27,2.143-5.275
		C359.18,90.422,357.439,83.991,353.671,82.663z"/>
	<path fill="#00079F" d="M353.597,83.088c-3.652-1.288-7.884,2.857-9.453,9.26c-1.178,4.807-0.519,9.519,1.43,12.113
		c1.039-0.483,2.056-0.87,3.046-1.176c-2.146-0.93-3.255-4.668-2.497-8.835c0.826-4.536,3.545-7.852,6.078-7.404
		c2.531,0.447,3.915,4.486,3.09,9.022c-0.514,2.829-1.766,5.182-3.249,6.445c1.097-0.156,2.149-0.221,3.146-0.212
		c0.924-1.472,1.687-3.267,2.183-5.289C358.938,90.61,357.251,84.376,353.597,83.088z"/>
	<path d="M355.291,96.068c0.825-4.536-0.559-8.575-3.09-9.022c-2.533-0.448-5.252,2.868-6.078,7.404
		c-0.758,4.167,0.351,7.905,2.497,8.835c1.182-0.366,2.325-0.617,3.422-0.772C353.524,101.25,354.776,98.897,355.291,96.068z"/>
	<path fill="#476D0F" d="M286.36,96.727c0.622-0.5,1.25-0.955,1.888-1.371c-1.013-0.407-2.343-0.793-3.764-0.793
		c-2.327,0-4.265,1.023-5.763,3.04c-2.229,3.003-2.622,6.367-2.551,8.702C279.351,102.793,283.129,99.249,286.36,96.727z"/>
	<path fill="#C4C4C4" d="M296.698,151.305c0.081,0.006,0.161,0.009,0.241,0.009c0.001,0,0.001,0,0.001,0
		c2.92,0,5.371-4.499,7.535-8.47c0.298-0.547,0.588-1.078,0.878-1.596c-5.15,0.526-9.856,0.235-14.097-0.881
		C291.877,144.883,293.443,151.041,296.698,151.305z"/>
	<path fill="#6B6C6C" d="M305.354,141.248c-0.29,0.519-0.58,1.049-0.878,1.596c-2.164,3.971-4.615,8.47-7.535,8.47c0,0,0,0-0.001,0
		c-0.08,0-0.16-0.003-0.241-0.009c-3.255-0.264-4.821-6.421-5.442-10.938c-0.335-0.088-0.663-0.19-0.993-0.289
		c0.539,4.299,2.087,11.831,6.358,12.178c0.106,0.008,0.213,0.012,0.317,0.012c0.001,0,0.001,0,0.001,0
		c3.485,0,5.969-4.559,8.371-8.967c0.413-0.758,0.813-1.486,1.212-2.184C306.13,141.165,305.74,141.208,305.354,141.248z"/>
	<path fill="#C4C4C4" d="M326.218,154.4l0.046,0c1.264,0,3.05-1.81,4.776-4.842c0.725-1.271,1.338-2.583,1.784-3.706
		c-2.883-0.538-5.713-1.527-8.497-2.503c-1.59-0.557-3.2-1.112-4.823-1.59c1.083,1.924,1.943,4.148,2.731,6.198
		C323.501,151.245,324.696,154.348,326.218,154.4z"/>
	<path fill="#6B6C6C" d="M332.824,145.854c-0.446,1.123-1.059,2.434-1.784,3.706c-1.726,3.032-3.512,4.842-4.776,4.842l-0.046,0
		c-1.522-0.053-2.717-3.156-3.982-6.441c-0.789-2.05-1.648-4.274-2.731-6.198c-0.44-0.13-0.882-0.25-1.325-0.365
		c1.287,2.021,2.272,4.58,3.168,6.906c1.44,3.744,2.685,6.977,4.838,7.052l0.079,0c2.127,0,4.222-2.895,5.605-5.323
		c0.752-1.32,1.429-2.763,1.915-4.018C333.464,145.966,333.143,145.914,332.824,145.854z"/>
	<path fill="#C4C4C4" d="M345.345,144.714c0.356,0.744,0.703,1.5,1.042,2.246c1.756,3.866,3.417,7.517,5.818,7.517l0,0
		c0.187,0,0.38-0.022,0.575-0.064c2.679-0.597,4.475-4.77,5.241-8.263C354.819,144.816,351.435,143.531,345.345,144.714z"/>
	<path fill="#6B6C6C" d="M347.643,151.688c0.536,0.936,1.103,1.75,1.722,2.382c0.236,0.242,0.481,0.459,0.736,0.642
		c0.636,0.457,1.328,0.72,2.105,0.72l0,0c0.256,0,0.52-0.03,0.783-0.089c1.999-0.445,3.489-2.351,4.528-4.612
		c0.177-0.384,0.344-0.773,0.494-1.172c0.38-1.01,0.678-2.052,0.899-3.039c-0.193-0.08-0.385-0.159-0.579-0.24
		c-0.102-0.043-0.206-0.085-0.31-0.129c-0.766,3.493-2.562,7.666-5.241,8.263c-0.195,0.042-0.388,0.064-0.575,0.064l0,0
		c-2.402,0-4.062-3.651-5.818-7.517c-0.34-0.747-0.687-1.502-1.042-2.246c-0.312,0.061-0.63,0.128-0.958,0.202
		c0.388,0.802,0.763,1.627,1.131,2.438c0.548,1.204,1.087,2.385,1.649,3.461C347.326,151.114,347.483,151.408,347.643,151.688z"/>
	<path fill="#6B6C6C" d="M283.672,137.197c-0.296,0.459-0.627,1.023-1.027,1.72c-1.418,2.482-3.411,5.923-5.489,5.469
		c-6.236-2.551-4.685-12.687-3.633-17.244c-0.25-0.397-0.487-0.791-0.71-1.18c-1.078,4.127-3.532,16.286,4.019,19.327l0.068,0.021
		c0.213,0.051,0.432,0.078,0.65,0.078h0.001c0.593,0,1.151-0.198,1.681-0.52c2.066-0.642,3.694-3.479,5.032-5.817
		c0.219-0.382,0.449-0.78,0.67-1.149C284.508,137.676,284.086,137.444,283.672,137.197z"/>
	<path fill="#C4C4C4" d="M277.156,144.386c2.078,0.455,4.071-2.986,5.489-5.469c0.4-0.697,0.731-1.261,1.027-1.72
		c-2.151-1.284-4.143-2.844-5.957-4.7c-1.701-1.744-3.078-3.579-4.192-5.355C272.471,131.7,270.92,141.835,277.156,144.386z"/>
	<linearGradient id="SVGID_1_" gradientUnits="userSpaceOnUse" x1="350.2178" y1="100.0732" x2="347.637" y2="146.8512">
		<stop  offset="0.6341" style="stop-color:#476D0F"/>
		<stop  offset="1" style="stop-color:#2B4209"/>
	</linearGradient>
	<path fill="url(#SVGID_1_)" d="M348.362,109.276l0.089,0.015c0.66,0.107,1.34,0.105,2.021-0.006c1.87-0.305,3.7-1.409,5.346-3.095
		c-0.543-0.73-1.063-1.484-1.554-2.263c-1.926,2.319-4.289,3.415-6.455,2.651c-0.71-0.25-1.348-0.683-1.904-1.263
		c-0.651,0.314-1.309,0.669-1.975,1.061C345.154,107.975,346.663,108.977,348.362,109.276z"/>
	<linearGradient id="SVGID_2_" gradientUnits="userSpaceOnUse" x1="332.3193" y1="99.0854" x2="329.7383" y2="145.8666">
		<stop  offset="0.6341" style="stop-color:#476D0F"/>
		<stop  offset="1" style="stop-color:#2B4209"/>
	</linearGradient>
	<path fill="url(#SVGID_2_)" d="M382.386,125.166c-8.587-4.234-19.278-9.515-26.208-18.501c-2.396,2.466-5.158,3.759-7.845,3.325
		h-0.001l-0.095-0.016c-1.862-0.329-3.519-1.458-4.85-3.271c-1.193,0.737-2.405,1.61-3.633,2.625
		c9.804,3.724,10.013,7.181,10.013,7.181c-2.002-3.709-8.628-5.984-11.509-6.822c-6.713-1.859-10.857-1.411-15.117-0.001
		c2.205,4.75,2.585,9.571,2.585,9.571c-0.284-3.767-3.945-10.201-4.489-11.143c-3.089-4.75-10.461-12.704-19.442-14.53
		c-4.049-0.825-7.912-0.25-11.528,1.687c0.2,0.117,0.345,0.208,0.367,0.222l0.489,0.324l-0.417,0.412
		c-0.091,0.09-9.242,9.116-14.318,13.483l-0.572,0.491l-0.198-0.727c-0.016-0.056-0.097-0.371-0.185-0.87
		c-3.327,3.923-5.496,7.375-5.151,8.751c0.287,1.148,1.119,3.991,2.9,7.306c0.005-0.02,0.014-0.046,0.018-0.057l0.234-0.734
		l0.555,0.535c0.001,0.002,0.024,0.024,0.035,0.035c0.011-0.034,0.022-0.067,0.028-0.084l0.231-0.73l0.552,0.531
		c0.062,0.06,6.263,6.03,11.337,11.54l0.423,0.459l-0.557,0.287c-0.153,0.08-0.357,0.32-0.585,0.648
		c1.488,0.781,3.05,1.437,4.692,1.954c-0.107-1.045-0.148-1.77-0.153-1.895l-0.025-0.5h0.501c0.099,0,9.915,0.023,16.81,2.044
		l0.61,0.18l-0.344,0.535c-0.134,0.208-0.267,0.449-0.401,0.669c0.758-0.105,1.522-0.224,2.298-0.364
		c2.663-0.385,5.285-0.11,7.865,0.476c-0.164-0.202-0.328-0.409-0.502-0.591l-0.897-0.941l1.292,0.139
		c4.716,0.507,12.126,2.372,17.011,3.951l0.33,0.107v0.346c0,0.424-0.159,1.097-0.425,1.896c2.484,0.35,4.993,0.308,7.516-0.447
		c0.815-0.244,1.579-0.437,2.319-0.609c-0.251-0.493-0.507-0.978-0.772-1.434l-0.335-0.574l0.651-0.133
		c0.648-0.132,1.26-0.266,1.851-0.396c2.212-0.484,4.122-0.902,6.359-0.902c1.033,0,2.101,0.101,3.224,0.289l0.031-0.071
		l0.307-0.002c14.22-0.098,24.668-3.134,32.296-5.352c0.633-0.183,1.241-0.36,1.834-0.53c-3.743-0.77-6.261-0.259-6.312-0.249
		c0,0,0.848-0.308,2.287-0.483c-1.31,0.013-2.1,0.164-2.127,0.17c0,0,3.681-3.193,8.445-4.167
		C389.301,128.579,385.997,126.949,382.386,125.166z M303.897,120.377c-0.506,1.401-1.682,2.432-3.093,2.815
		c-0.584,0.261-1.225,0.414-1.892,0.414c-1.303,0-2.455-0.564-3.161-1.549c-0.656-0.915-1.234-2.614-0.254-5.503
		c0.221-0.829,2.325-8.299,5.649-8.487c0.241-0.087,0.487-0.15,0.743-0.157h0.071c0.805,0,1.487,0.366,1.974,1.06
		C305.791,111.615,304.534,118.615,303.897,120.377z M307.35,105.264c-1.474-1.361-3.094-1.983-4.817-1.849
		c-7.695,0.679-11.578,12.068-11.616,12.184c0,0,3.221-12.399,11.537-13.133c2.001-0.16,3.867,0.549,5.541,2.099
		c2.739,2.53,3.197,7.786,3.197,7.786C311.192,111.443,309.871,107.595,307.35,105.264z"/>
	<linearGradient id="SVGID_3_" gradientUnits="userSpaceOnUse" x1="301.0312" y1="97.3579" x2="298.4502" y2="144.1403">
		<stop  offset="0.6341" style="stop-color:#476D0F"/>
		<stop  offset="1" style="stop-color:#2B4209"/>
	</linearGradient>
	<path fill="url(#SVGID_3_)" d="M302.333,120.275c0.766-2.12,1.639-8.486,0.153-10.602c-0.301-0.43-0.666-0.635-1.138-0.652
		c-2.019,0.894-3.707,5.663-4.23,7.61c-0.852,2.518-0.406,3.909,0.117,4.639c0.518,0.724,1.383,1.139,2.368,1.139
		c0.276,0,0.569-0.042,0.859-0.113C301.255,121.93,301.973,121.272,302.333,120.275z"/>
	<path fill="#2E0000" d="M358.323,141.705c0.245,0.073,0.476,0.13,0.729,0.21l0.311,0.099l0.021,0.324
		c0.049,0.753-0.044,1.91-0.282,3.229c2.653,1.102,5.241,2.075,9.227,1.453c9.192-1.429,20.616-7.761,24.856-10.931
		c-0.669-0.264-1.319-0.495-1.945-0.679c-1.066,0.294-2.201,0.622-3.414,0.974C380.7,138.455,371.128,141.235,358.323,141.705z"/>
	<linearGradient id="SVGID_4_" gradientUnits="userSpaceOnUse" x1="377.8125" y1="101.5967" x2="375.2316" y2="148.3761">
		<stop  offset="0.6341" style="stop-color:#476D0F"/>
		<stop  offset="1" style="stop-color:#2B4209"/>
	</linearGradient>
	<path fill="url(#SVGID_4_)" d="M358.323,141.705c0.245,0.073,0.476,0.13,0.729,0.21l0.311,0.099l0.021,0.324
		c0.049,0.753-0.044,1.91-0.282,3.229c2.653,1.102,5.241,2.075,9.227,1.453c9.192-1.429,20.616-7.761,24.856-10.931
		c-0.669-0.264-1.319-0.495-1.945-0.679c-1.066,0.294-2.201,0.622-3.414,0.974C380.7,138.455,371.128,141.235,358.323,141.705z"/>
	<path fill="#170000" d="M355.265,140.82l-0.307,0.002l-0.031,0.071c1.063,0.178,2.192,0.454,3.396,0.811
		c12.806-0.47,22.377-3.25,29.503-5.321c1.213-0.352,2.348-0.68,3.414-0.974c-0.64-0.19-1.26-0.351-1.846-0.471
		c-0.593,0.17-1.201,0.347-1.834,0.53C379.933,137.686,369.484,140.723,355.265,140.82z"/>
	<linearGradient id="SVGID_5_" gradientUnits="userSpaceOnUse" x1="375.1094" y1="101.4463" x2="372.5284" y2="148.2271">
		<stop  offset="0.6341" style="stop-color:#476D0F"/>
		<stop  offset="1" style="stop-color:#2B4209"/>
	</linearGradient>
	<path fill="url(#SVGID_5_)" d="M355.265,140.82l-0.307,0.002l-0.031,0.071c1.063,0.178,2.192,0.454,3.396,0.811
		c12.806-0.47,22.377-3.25,29.503-5.321c1.213-0.352,2.348-0.68,3.414-0.974c-0.64-0.19-1.26-0.351-1.846-0.471
		c-0.593,0.17-1.201,0.347-1.834,0.53C379.933,137.686,369.484,140.723,355.265,140.82z"/>
	<path fill="#476D0F" d="M356.479,105.462c0.635-0.734,1.239-1.548,1.797-2.447c-1.008-0.104-2.102-0.142-3.266-0.086
		c-0.04,0.059-0.078,0.12-0.118,0.177C355.392,103.918,355.921,104.704,356.479,105.462z"/>
	<linearGradient id="SVGID_6_" gradientUnits="userSpaceOnUse" x1="356.7295" y1="100.4321" x2="354.1486" y2="147.2121">
		<stop  offset="0.6341" style="stop-color:#476D0F"/>
		<stop  offset="1" style="stop-color:#2B4209"/>
	</linearGradient>
	<path fill="url(#SVGID_6_)" d="M356.479,105.462c0.635-0.734,1.239-1.548,1.797-2.447c-1.008-0.104-2.102-0.142-3.266-0.086
		c-0.04,0.059-0.078,0.12-0.118,0.177C355.392,103.918,355.921,104.704,356.479,105.462z"/>
	<path fill="#476D0F" d="M382.807,124.312c4.196,2.07,7.766,3.847,10.215,5.694c1.536-0.163,3.148-0.076,4.771,0.452L365.5,105.133
		c-0.054-0.033-2.584-1.513-6.609-2.044c-0.633,1.051-1.318,2.011-2.046,2.854C363.657,114.859,374.283,120.109,382.807,124.312z"/>
	<linearGradient id="SVGID_7_" gradientUnits="userSpaceOnUse" x1="378.2334" y1="101.6187" x2="375.6524" y2="148.4">
		<stop  offset="0.6341" style="stop-color:#476D0F"/>
		<stop  offset="1" style="stop-color:#2B4209"/>
	</linearGradient>
	<path fill="url(#SVGID_7_)" d="M382.807,124.312c4.196,2.07,7.766,3.847,10.215,5.694c1.536-0.163,3.148-0.076,4.771,0.452
		L365.5,105.133c-0.054-0.033-2.584-1.513-6.609-2.044c-0.633,1.051-1.318,2.011-2.046,2.854
		C363.657,114.859,374.283,120.109,382.807,124.312z"/>
	<path fill="#183111" d="M354.265,103.928c0.491,0.779,1.011,1.533,1.554,2.263c0.224-0.23,0.443-0.477,0.66-0.728
		c-0.558-0.758-1.087-1.544-1.586-2.356C354.688,103.396,354.479,103.668,354.265,103.928z"/>
	<linearGradient id="SVGID_8_" gradientUnits="userSpaceOnUse" x1="355.6104" y1="100.3706" x2="353.0292" y2="147.1551">
		<stop  offset="0.6341" style="stop-color:#476D0F"/>
		<stop  offset="1" style="stop-color:#2B4209"/>
	</linearGradient>
	<path fill="url(#SVGID_8_)" d="M354.265,103.928c0.491,0.779,1.011,1.533,1.554,2.263c0.224-0.23,0.443-0.477,0.66-0.728
		c-0.558-0.758-1.087-1.544-1.586-2.356C354.688,103.396,354.479,103.668,354.265,103.928z"/>
	<path fill="#183111" d="M356.846,105.943c-0.219,0.253-0.443,0.489-0.668,0.721c6.93,8.987,17.621,14.267,26.208,18.501
		c3.611,1.783,6.915,3.413,9.303,5.043c0.437-0.089,0.882-0.157,1.333-0.204c-2.449-1.847-6.019-3.624-10.215-5.694
		C374.283,120.109,363.657,114.859,356.846,105.943z"/>
	<linearGradient id="SVGID_9_" gradientUnits="userSpaceOnUse" x1="375.5293" y1="101.4688" x2="372.9483" y2="148.2502">
		<stop  offset="0.6341" style="stop-color:#476D0F"/>
		<stop  offset="1" style="stop-color:#2B4209"/>
	</linearGradient>
	<path fill="url(#SVGID_9_)" d="M356.846,105.943c-0.219,0.253-0.443,0.489-0.668,0.721c6.93,8.987,17.621,14.267,26.208,18.501
		c3.611,1.783,6.915,3.413,9.303,5.043c0.437-0.089,0.882-0.157,1.333-0.204c-2.449-1.847-6.019-3.624-10.215-5.694
		C374.283,120.109,363.657,114.859,356.846,105.943z"/>
	<path d="M348.236,109.974l0.095,0.016h0.001c2.687,0.434,5.449-0.858,7.845-3.325c0.225-0.232,0.45-0.468,0.668-0.721
		c0.728-0.843,1.413-1.803,2.046-2.854c-0.202-0.027-0.405-0.053-0.615-0.074c-0.558,0.899-1.163,1.712-1.797,2.447
		c-0.217,0.251-0.436,0.498-0.66,0.728c-1.646,1.687-3.476,2.791-5.346,3.095c-0.681,0.111-1.361,0.113-2.021,0.006l-0.089-0.015
		c-1.7-0.3-3.208-1.302-4.431-2.9c-0.181,0.106-0.361,0.214-0.544,0.327C344.718,108.516,346.374,109.645,348.236,109.974z"/>
	<linearGradient id="SVGID_10_" gradientUnits="userSpaceOnUse" x1="351.4014" y1="100.1387" x2="348.8205" y2="146.9172">
		<stop  offset="0.6341" style="stop-color:#476D0F"/>
		<stop  offset="1" style="stop-color:#2B4209"/>
	</linearGradient>
	<path fill="url(#SVGID_10_)" d="M348.236,109.974l0.095,0.016h0.001c2.687,0.434,5.449-0.858,7.845-3.325
		c0.225-0.232,0.45-0.468,0.668-0.721c0.728-0.843,1.413-1.803,2.046-2.854c-0.202-0.027-0.405-0.053-0.615-0.074
		c-0.558,0.899-1.163,1.712-1.797,2.447c-0.217,0.251-0.436,0.498-0.66,0.728c-1.646,1.687-3.476,2.791-5.346,3.095
		c-0.681,0.111-1.361,0.113-2.021,0.006l-0.089-0.015c-1.7-0.3-3.208-1.302-4.431-2.9c-0.181,0.106-0.361,0.214-0.544,0.327
		C344.718,108.516,346.374,109.645,348.236,109.974z"/>
	<path fill="#2E3191" d="M347.81,106.579c2.166,0.764,4.529-0.332,6.455-2.651c0.214-0.259,0.424-0.532,0.628-0.821
		c0.04-0.058,0.078-0.118,0.118-0.177c-0.085,0.004-0.167,0.006-0.253,0.011c-1.958,2.764-4.515,4.151-6.84,3.332
		c-0.632-0.223-1.201-0.603-1.709-1.098c-0.101,0.047-0.201,0.093-0.301,0.142C346.462,105.896,347.1,106.328,347.81,106.579z"/>
	<linearGradient id="SVGID_11_" gradientUnits="userSpaceOnUse" x1="350.6807" y1="100.0977" x2="348.0994" y2="146.883">
		<stop  offset="0.6341" style="stop-color:#476D0F"/>
		<stop  offset="1" style="stop-color:#2B4209"/>
	</linearGradient>
	<path fill="url(#SVGID_11_)" d="M347.81,106.579c2.166,0.764,4.529-0.332,6.455-2.651c0.214-0.259,0.424-0.532,0.628-0.821
		c0.04-0.058,0.078-0.118,0.118-0.177c-0.085,0.004-0.167,0.006-0.253,0.011c-1.958,2.764-4.515,4.151-6.84,3.332
		c-0.632-0.223-1.201-0.603-1.709-1.098c-0.101,0.047-0.201,0.093-0.301,0.142C346.462,105.896,347.1,106.328,347.81,106.579z"/>
	<path fill="#00079F" d="M354.757,102.94c-2.563,0.153-5.461,0.785-8.55,2.233c0.509,0.495,1.078,0.875,1.709,1.098
		C350.242,107.091,352.799,105.704,354.757,102.94z"/>
	<linearGradient id="SVGID_12_" gradientUnits="userSpaceOnUse" x1="350.7002" y1="100.0981" x2="348.1187" y2="146.888">
		<stop  offset="0.6341" style="stop-color:#476D0F"/>
		<stop  offset="1" style="stop-color:#2B4209"/>
	</linearGradient>
	<path fill="url(#SVGID_12_)" d="M354.757,102.94c-2.563,0.153-5.461,0.785-8.55,2.233c0.509,0.495,1.078,0.875,1.709,1.098
		C350.242,107.091,352.799,105.704,354.757,102.94z"/>
	<path fill="#476D0F" d="M289.592,95.985c-0.083-0.046-0.185-0.097-0.285-0.149c-0.796,0.486-1.585,1.015-2.354,1.638
		c-3.779,2.948-7.634,6.688-10.691,10.167c0.036,0.313,0.075,0.587,0.115,0.815C280.841,104.542,287.783,97.76,289.592,95.985z"/>
	<linearGradient id="SVGID_13_" gradientUnits="userSpaceOnUse" x1="283.2275" y1="96.3765" x2="280.6464" y2="143.1608">
		<stop  offset="0.6341" style="stop-color:#476D0F"/>
		<stop  offset="1" style="stop-color:#2B4209"/>
	</linearGradient>
	<path fill="url(#SVGID_13_)" d="M289.592,95.985c-0.083-0.046-0.185-0.097-0.285-0.149c-0.796,0.486-1.585,1.015-2.354,1.638
		c-3.779,2.948-7.634,6.688-10.691,10.167c0.036,0.313,0.075,0.587,0.115,0.815C280.841,104.542,287.783,97.76,289.592,95.985z"/>
	<path fill="#183111" d="M275.814,110.202l0.572-0.491c5.076-4.367,14.227-13.393,14.318-13.483l0.417-0.412l-0.489-0.324
		c-0.022-0.015-0.167-0.105-0.367-0.222c-0.322,0.173-0.64,0.372-0.958,0.567c0.1,0.052,0.201,0.103,0.285,0.149
		c-1.81,1.775-8.751,8.557-13.215,12.471c-0.04-0.229-0.079-0.502-0.115-0.815c-0.284,0.324-0.561,0.646-0.831,0.965
		c0.087,0.499,0.169,0.814,0.185,0.87L275.814,110.202z"/>
	<linearGradient id="SVGID_14_" gradientUnits="userSpaceOnUse" x1="283.5967" y1="96.3965" x2="281.0156" y2="143.1798">
		<stop  offset="0.6341" style="stop-color:#476D0F"/>
		<stop  offset="1" style="stop-color:#2B4209"/>
	</linearGradient>
	<path fill="url(#SVGID_14_)" d="M275.814,110.202l0.572-0.491c5.076-4.367,14.227-13.393,14.318-13.483l0.417-0.412l-0.489-0.324
		c-0.022-0.015-0.167-0.105-0.367-0.222c-0.322,0.173-0.64,0.372-0.958,0.567c0.1,0.052,0.201,0.103,0.285,0.149
		c-1.81,1.775-8.751,8.557-13.215,12.471c-0.04-0.229-0.079-0.502-0.115-0.815c-0.284,0.324-0.561,0.646-0.831,0.965
		c0.087,0.499,0.169,0.814,0.185,0.87L275.814,110.202z"/>
	<path fill="#C4C4C4" d="M290.971,137.609c0.034,0.506,0.086,1.089,0.157,1.72c4.413,1.224,9.36,1.522,14.816,0.892
		c0.153-0.261,0.304-0.533,0.458-0.782C300.59,137.872,292.983,137.643,290.971,137.609z"/>
	<linearGradient id="SVGID_15_" gradientUnits="userSpaceOnUse" x1="300.9575" y1="97.3496" x2="298.3762" y2="144.1371">
		<stop  offset="0.6341" style="stop-color:#476D0F"/>
		<stop  offset="1" style="stop-color:#2B4209"/>
	</linearGradient>
	<path fill="url(#SVGID_15_)" d="M290.971,137.609c0.034,0.506,0.086,1.089,0.157,1.72c4.413,1.224,9.36,1.522,14.816,0.892
		c0.153-0.261,0.304-0.533,0.458-0.782C300.59,137.872,292.983,137.643,290.971,137.609z"/>
	<path fill="#6B6C6C" d="M307.887,138.875l-0.61-0.18c-6.896-2.021-16.711-2.044-16.81-2.044h-0.501l0.025,0.5
		c0.005,0.125,0.046,0.85,0.153,1.895c0.325,0.101,0.653,0.192,0.984,0.283c-0.071-0.631-0.123-1.214-0.157-1.72
		c2.012,0.033,9.62,0.262,15.431,1.83c-0.153,0.249-0.304,0.521-0.458,0.782c0.4-0.046,0.795-0.086,1.198-0.142
		c0.134-0.22,0.267-0.461,0.401-0.669L307.887,138.875z"/>
	<linearGradient id="SVGID_16_" gradientUnits="userSpaceOnUse" x1="301.1553" y1="97.3623" x2="298.5741" y2="144.1472">
		<stop  offset="0.6341" style="stop-color:#476D0F"/>
		<stop  offset="1" style="stop-color:#2B4209"/>
	</linearGradient>
	<path fill="url(#SVGID_16_)" d="M307.887,138.875l-0.61-0.18c-6.896-2.021-16.711-2.044-16.81-2.044h-0.501l0.025,0.5
		c0.005,0.125,0.046,0.85,0.153,1.895c0.325,0.101,0.653,0.192,0.984,0.283c-0.071-0.631-0.123-1.214-0.157-1.72
		c2.012,0.033,9.62,0.262,15.431,1.83c-0.153,0.249-0.304,0.521-0.458,0.782c0.4-0.046,0.795-0.086,1.198-0.142
		c0.134-0.22,0.267-0.461,0.401-0.669L307.887,138.875z"/>
	<path fill="#C4C4C4" d="M318.301,139.896c0.15,0.2,0.279,0.439,0.424,0.652c1.997,0.537,3.971,1.221,5.917,1.903
		c2.796,0.979,5.642,1.973,8.521,2.492c0.193-0.564,0.334-1.054,0.391-1.403C329.224,142.163,322.798,140.535,318.301,139.896z"/>
	<linearGradient id="SVGID_17_" gradientUnits="userSpaceOnUse" x1="328.2915" y1="98.8721" x2="325.711" y2="145.6443">
		<stop  offset="0.6341" style="stop-color:#476D0F"/>
		<stop  offset="1" style="stop-color:#2B4209"/>
	</linearGradient>
	<path fill="url(#SVGID_17_)" d="M318.301,139.896c0.15,0.2,0.279,0.439,0.424,0.652c1.997,0.537,3.971,1.221,5.917,1.903
		c2.796,0.979,5.642,1.973,8.521,2.492c0.193-0.564,0.334-1.054,0.391-1.403C329.224,142.163,322.798,140.535,318.301,139.896z"/>
	<path fill="#6B6C6C" d="M334.54,142.856l-0.33-0.107c-4.885-1.579-12.295-3.444-17.011-3.951l-1.292-0.139l0.897,0.941
		c0.174,0.183,0.338,0.389,0.502,0.591c0.474,0.109,0.947,0.23,1.42,0.357c-0.145-0.213-0.274-0.452-0.424-0.652
		c4.497,0.638,10.923,2.267,15.252,3.644c-0.057,0.349-0.198,0.839-0.391,1.403c0.316,0.057,0.633,0.11,0.952,0.155
		c0.267-0.8,0.425-1.472,0.425-1.896V142.856z"/>
	<linearGradient id="SVGID_18_" gradientUnits="userSpaceOnUse" x1="327.5464" y1="98.8276" x2="324.9657" y2="145.6031">
		<stop  offset="0.6341" style="stop-color:#476D0F"/>
		<stop  offset="1" style="stop-color:#2B4209"/>
	</linearGradient>
	<path fill="url(#SVGID_18_)" d="M334.54,142.856l-0.33-0.107c-4.885-1.579-12.295-3.444-17.011-3.951l-1.292-0.139l0.897,0.941
		c0.174,0.183,0.338,0.389,0.502,0.591c0.474,0.109,0.947,0.23,1.42,0.357c-0.145-0.213-0.274-0.452-0.424-0.652
		c4.497,0.638,10.923,2.267,15.252,3.644c-0.057,0.349-0.198,0.839-0.391,1.403c0.316,0.057,0.633,0.11,0.952,0.155
		c0.267-0.8,0.425-1.472,0.425-1.896V142.856z"/>
	<path fill="#C4C4C4" d="M351.703,141.557c-2.134,0-3.998,0.408-6.155,0.88c-0.397,0.087-0.803,0.176-1.223,0.266
		c0.199,0.362,0.383,0.75,0.573,1.128c6.436-1.298,10.108,0.037,13.313,1.365c0.161-0.941,0.243-1.801,0.233-2.473
		C355.879,141.927,353.729,141.557,351.703,141.557z"/>
	<linearGradient id="SVGID_19_" gradientUnits="userSpaceOnUse" x1="353.7358" y1="100.2744" x2="351.1553" y2="147.0472">
		<stop  offset="0.6341" style="stop-color:#476D0F"/>
		<stop  offset="1" style="stop-color:#2B4209"/>
	</linearGradient>
	<path fill="url(#SVGID_19_)" d="M351.703,141.557c-2.134,0-3.998,0.408-6.155,0.88c-0.397,0.087-0.803,0.176-1.223,0.266
		c0.199,0.362,0.383,0.75,0.573,1.128c6.436-1.298,10.108,0.037,13.313,1.365c0.161-0.941,0.243-1.801,0.233-2.473
		C355.879,141.927,353.729,141.557,351.703,141.557z"/>
	<path fill="#6B6C6C" d="M359.384,142.338l-0.021-0.324l-0.311-0.099c-0.253-0.081-0.484-0.137-0.729-0.21
		c-1.204-0.357-2.333-0.633-3.396-0.811c-1.123-0.188-2.19-0.289-3.224-0.289c-2.238,0-4.147,0.417-6.359,0.902
		c-0.591,0.129-1.202,0.263-1.851,0.396l-0.651,0.133l0.335,0.574c0.266,0.456,0.521,0.94,0.772,1.434
		c0.32-0.074,0.641-0.15,0.948-0.211c-0.19-0.378-0.375-0.767-0.573-1.128c0.42-0.089,0.826-0.179,1.223-0.266
		c2.157-0.472,4.021-0.88,6.155-0.88c2.025,0,4.176,0.371,6.741,1.167c0.01,0.672-0.072,1.532-0.233,2.473
		c0.163,0.068,0.327,0.135,0.488,0.204c0.136,0.057,0.27,0.111,0.404,0.167C359.34,144.248,359.434,143.091,359.384,142.338z"/>
	<linearGradient id="SVGID_20_" gradientUnits="userSpaceOnUse" x1="353.4531" y1="100.2544" x2="350.8723" y2="147.0327">
		<stop  offset="0.6341" style="stop-color:#476D0F"/>
		<stop  offset="1" style="stop-color:#2B4209"/>
	</linearGradient>
	<path fill="url(#SVGID_20_)" d="M359.384,142.338l-0.021-0.324l-0.311-0.099c-0.253-0.081-0.484-0.137-0.729-0.21
		c-1.204-0.357-2.333-0.633-3.396-0.811c-1.123-0.188-2.19-0.289-3.224-0.289c-2.238,0-4.147,0.417-6.359,0.902
		c-0.591,0.129-1.202,0.263-1.851,0.396l-0.651,0.133l0.335,0.574c0.266,0.456,0.521,0.94,0.772,1.434
		c0.32-0.074,0.641-0.15,0.948-0.211c-0.19-0.378-0.375-0.767-0.573-1.128c0.42-0.089,0.826-0.179,1.223-0.266
		c2.157-0.472,4.021-0.88,6.155-0.88c2.025,0,4.176,0.371,6.741,1.167c0.01,0.672-0.072,1.532-0.233,2.473
		c0.163,0.068,0.327,0.135,0.488,0.204c0.136,0.057,0.27,0.111,0.404,0.167C359.34,144.248,359.434,143.091,359.384,142.338z"/>
	<path fill="#6B6C6C" d="M286.037,136.443l0.557-0.287l-0.423-0.459c-5.074-5.51-11.276-11.48-11.337-11.54l-0.552-0.531
		l-0.231,0.73c-0.005,0.017-0.017,0.05-0.028,0.084c-0.011-0.01-0.034-0.033-0.035-0.035l-0.555-0.535l-0.234,0.734
		c-0.004,0.011-0.013,0.038-0.018,0.057c0.208,0.388,0.429,0.78,0.664,1.179c0.017-0.059,0.036-0.136,0.051-0.19
		c1.613,1.568,6.343,6.209,10.45,10.643c-0.035,0.037-0.071,0.089-0.105,0.129c0.397,0.235,0.803,0.453,1.212,0.668
		C285.68,136.764,285.884,136.523,286.037,136.443z"/>
	<linearGradient id="SVGID_21_" gradientUnits="userSpaceOnUse" x1="281.7686" y1="96.2939" x2="279.1874" y2="143.0782">
		<stop  offset="0.6341" style="stop-color:#476D0F"/>
		<stop  offset="1" style="stop-color:#2B4209"/>
	</linearGradient>
	<path fill="url(#SVGID_21_)" d="M286.037,136.443l0.557-0.287l-0.423-0.459c-5.074-5.51-11.276-11.48-11.337-11.54l-0.552-0.531
		l-0.231,0.73c-0.005,0.017-0.017,0.05-0.028,0.084c-0.011-0.01-0.034-0.033-0.035-0.035l-0.555-0.535l-0.234,0.734
		c-0.004,0.011-0.013,0.038-0.018,0.057c0.208,0.388,0.429,0.78,0.664,1.179c0.017-0.059,0.036-0.136,0.051-0.19
		c1.613,1.568,6.343,6.209,10.45,10.643c-0.035,0.037-0.071,0.089-0.105,0.129c0.397,0.235,0.803,0.453,1.212,0.668
		C285.68,136.764,285.884,136.523,286.037,136.443z"/>
	<path fill="#C4C4C4" d="M273.895,125.651c-0.015,0.054-0.034,0.131-0.051,0.19c1.16,1.963,2.646,4.036,4.554,5.99
		c1.774,1.816,3.726,3.342,5.842,4.592c0.034-0.04,0.071-0.093,0.105-0.129C280.238,131.86,275.508,127.219,273.895,125.651z"/>
	<linearGradient id="SVGID_22_" gradientUnits="userSpaceOnUse" x1="281.0156" y1="96.2549" x2="278.4346" y2="143.0363">
		<stop  offset="0.6341" style="stop-color:#476D0F"/>
		<stop  offset="1" style="stop-color:#2B4209"/>
	</linearGradient>
	<path fill="url(#SVGID_22_)" d="M273.895,125.651c-0.015,0.054-0.034,0.131-0.051,0.19c1.16,1.963,2.646,4.036,4.554,5.99
		c1.774,1.816,3.726,3.342,5.842,4.592c0.034-0.04,0.071-0.093,0.105-0.129C280.238,131.86,275.508,127.219,273.895,125.651z"/>
	<path fill="#183111" d="M345.345,144.714c6.089-1.183,9.474,0.102,12.677,1.436c0.104,0.043,0.208,0.086,0.31,0.129
		c0.194,0.081,0.385,0.16,0.579,0.24c2.113,0.875,4.205,1.651,6.984,1.651c0.798,0,1.653-0.064,2.583-0.208
		c10.119-1.575,21.99-8.518,25.732-11.457c0.531,0.239,1.074,0.508,1.626,0.805c0.297,0.16,0.601,0.352,0.9,0.53
		c2.107,1.245,4.312,2.915,6.517,5.223c0,0-0.053-0.241-0.289-0.678c0.106,0.109,0.215,0.201,0.322,0.313
		c0,0-0.019-0.072-0.063-0.195c-0.248-0.658-1.424-2.98-6.434-6.163c-7.41-4.207-13.545-1.964-13.545-1.964
		c0.027-0.006,0.817-0.157,2.127-0.17c-1.439,0.175-2.287,0.483-2.287,0.483c0.051-0.011,2.568-0.521,6.312,0.249
		c0.586,0.121,1.206,0.281,1.846,0.471c0.626,0.185,1.276,0.416,1.945,0.679c-4.24,3.17-15.664,9.502-24.856,10.931
		c-3.986,0.622-6.574-0.351-9.227-1.453c-0.134-0.056-0.268-0.11-0.404-0.167c-0.161-0.068-0.325-0.136-0.488-0.204
		c-3.205-1.328-6.877-2.664-13.313-1.365c-0.308,0.062-0.628,0.138-0.948,0.211c-0.741,0.173-1.504,0.366-2.319,0.609
		c-2.523,0.754-5.032,0.797-7.516,0.447c-0.319-0.045-0.636-0.099-0.952-0.155c-2.879-0.519-5.724-1.513-8.521-2.492
		c-1.946-0.682-3.919-1.366-5.917-1.903c-0.473-0.127-0.946-0.249-1.42-0.357c-2.58-0.586-5.202-0.861-7.865-0.476
		c-0.776,0.14-1.54,0.258-2.298,0.364c-0.403,0.055-0.798,0.095-1.198,0.142c-5.456,0.63-10.403,0.332-14.816-0.892
		c-0.331-0.091-0.659-0.182-0.984-0.283c-1.642-0.517-3.204-1.173-4.692-1.954c-0.409-0.215-0.815-0.434-1.212-0.668
		c-2.116-1.25-4.068-2.776-5.842-4.592c-1.908-1.954-3.394-4.026-4.554-5.99c-0.235-0.398-0.457-0.791-0.664-1.179
		c-1.781-3.315-2.613-6.158-2.9-7.306c-0.345-1.376,1.824-4.828,5.151-8.751c0.27-0.319,0.547-0.641,0.831-0.965
		c3.057-3.478,6.912-7.218,10.691-10.167c0.769-0.623,1.558-1.151,2.354-1.638c0.318-0.195,0.636-0.394,0.958-0.567
		c3.617-1.938,7.479-2.512,11.528-1.687c8.981,1.826,16.353,9.78,19.442,14.53c0.544,0.942,4.205,7.376,4.489,11.143
		c0,0-0.38-4.821-2.585-9.571c4.26-1.409,8.404-1.858,15.117,0.001c2.88,0.837,9.506,3.113,11.509,6.822
		c0,0-0.208-3.457-10.013-7.181c1.229-1.015,2.44-1.887,3.633-2.625c0.183-0.113,0.364-0.221,0.544-0.327
		c0.666-0.392,1.324-0.746,1.975-1.061c0.1-0.049,0.2-0.095,0.301-0.142c3.088-1.449,5.987-2.081,8.55-2.233
		c0.086-0.004,0.168-0.007,0.253-0.011c1.164-0.055,2.258-0.018,3.266,0.086c0.21,0.021,0.413,0.047,0.615,0.074
		c4.025,0.531,6.555,2.011,6.609,2.044c0,0-2.431-1.65-6.384-2.435c-0.194-0.038-0.391-0.075-0.591-0.109
		c-0.957-0.162-1.997-0.267-3.105-0.288c-0.076-0.002-0.154,0-0.232-0.001c-0.997-0.008-2.049,0.056-3.146,0.212
		c-1.097,0.155-2.241,0.406-3.422,0.772c-0.99,0.306-2.007,0.693-3.046,1.176c-0.089,0.041-0.176,0.079-0.267,0.121
		c-0.626,0.301-1.261,0.646-1.901,1.018c-0.182,0.106-0.363,0.205-0.545,0.316c-1.319,0.807-2.664,1.772-4.027,2.927
		c-0.542-0.154-1.038-0.267-1.547-0.394c-0.066-0.021-0.12-0.042-0.186-0.063l-0.003,0.017c-6.158-1.491-10.181-0.991-14.324,0.39
		c-0.207-0.366-0.459-0.77-0.733-1.19c-0.021-0.033-0.038-0.067-0.058-0.1l-0.007,0.005c-3.227-4.906-10.785-12.986-19.992-14.86
		c-4.49-0.913-8.752-0.185-12.721,2.106c-1.135-0.528-2.859-1.145-4.78-1.145c-2.646,0-4.84,1.151-6.527,3.423
		c-2.757,3.713-2.917,7.847-2.69,10.294c-3.722,4.261-6.395,8.321-5.911,10.26c0.32,1.28,1.293,4.601,3.458,8.375
		c0.223,0.389,0.459,0.782,0.71,1.18c1.115,1.776,2.491,3.611,4.192,5.355c1.813,1.856,3.805,3.416,5.957,4.7
		c0.415,0.247,0.836,0.479,1.263,0.704c1.681,0.89,3.458,1.616,5.329,2.176c0.33,0.099,0.658,0.201,0.993,0.289
		c4.241,1.117,8.947,1.407,14.097,0.881c0.387-0.04,0.777-0.083,1.169-0.132c1.008-0.126,2.028-0.271,3.071-0.459
		c2.877-0.417,5.748-0.001,8.585,0.739c0.443,0.115,0.885,0.235,1.325,0.365c1.623,0.478,3.232,1.033,4.823,1.59
		c2.784,0.976,5.614,1.965,8.497,2.503c0.318,0.06,0.64,0.112,0.96,0.16c2.662,0.398,5.366,0.373,8.119-0.449
		c0.878-0.262,1.697-0.47,2.484-0.648C344.715,144.843,345.033,144.775,345.345,144.714z M278.721,97.602
		c1.498-2.016,3.436-3.04,5.763-3.04c1.421,0,2.751,0.386,3.764,0.793c-0.638,0.416-1.266,0.871-1.888,1.371
		c-3.231,2.522-7.009,6.067-10.19,9.577C276.099,103.969,276.491,100.604,278.721,97.602z"/>
	<path fill="#183111" d="M302.455,102.466c-8.316,0.733-11.537,13.133-11.537,13.133c0.038-0.116,3.92-11.505,11.616-12.184
		c1.723-0.134,3.343,0.488,4.817,1.849c2.521,2.332,3.842,6.179,3.842,7.086c0,0-0.458-5.256-3.197-7.786
		C306.322,103.015,304.456,102.306,302.455,102.466z"/>
	<path fill="#183111" d="M301.959,107.91h-0.071c-0.255,0.007-0.502,0.07-0.743,0.157c-3.324,0.188-5.428,7.658-5.649,8.487
		c-0.979,2.889-0.402,4.588,0.254,5.503c0.706,0.984,1.857,1.549,3.161,1.549c0.667,0,1.308-0.153,1.892-0.414
		c1.412-0.383,2.587-1.414,3.093-2.815c0.637-1.762,1.894-8.762,0.036-11.407C303.447,108.276,302.764,107.91,301.959,107.91z
		 M299.603,122.409c-0.985,0-1.85-0.415-2.368-1.139c-0.522-0.729-0.968-2.121-0.117-4.639c0.523-1.947,2.211-6.716,4.23-7.61
		c0.472,0.018,0.837,0.222,1.138,0.652c1.486,2.116,0.613,8.482-0.153,10.602c-0.36,0.997-1.078,1.655-1.871,2.02
		C300.172,122.367,299.879,122.409,299.603,122.409z"/>
	<path d="M397.182,74.1l-0.128-0.016c-8.115-0.968-16.47,9.937-18.058,21.704c-0.956,7.083,0.556,14.035,4.041,18.593
		c2.141,2.8,4.864,4.49,7.876,4.887l0.128,0.017l0,0c8.116,0.967,16.01-7.82,17.597-19.588c0.957-7.084-0.115-15.092-3.604-19.651
		C402.895,77.247,400.194,74.497,397.182,74.1z M393.873,118.414c-0.912,0.146-1.831,0.165-2.73,0.058l-0.123-0.016
		c-3.734-0.492-6.968-3.102-9.102-7.347c-2.151-4.275-2.922-9.681-2.175-15.22c1.325-9.814,7.222-17.728,14.02-18.817
		c0.909-0.145,1.827-0.165,2.729-0.058l0.122,0.015c3.735,0.492,6.97,3.101,9.104,7.347c2.148,4.276,2.92,9.682,2.172,15.221
		C406.565,109.413,400.67,117.326,393.873,118.414z"/>
	<path fill="#2E3191" d="M395.842,87.415c-5.204-1.449-10.724,3.626-12.326,11.336c-1.604,7.711,1.318,15.136,6.521,16.586
		c5.206,1.449,10.726-3.626,12.329-11.337C403.967,96.29,401.048,88.864,395.842,87.415z M402.104,103.989
		c-1.554,7.474-6.903,12.394-11.949,10.989c-5.044-1.405-7.876-8.602-6.323-16.077c1.555-7.473,6.903-12.394,11.947-10.989
		C400.826,89.317,403.657,96.514,402.104,103.989z"/>
	<path fill="#00079F" d="M395.778,87.912c-5.044-1.405-10.393,3.516-11.947,10.989c-1.553,7.475,1.279,14.672,6.323,16.077
		c5.046,1.405,10.396-3.515,11.949-10.989C403.657,96.514,400.826,89.317,395.778,87.912z M399.213,102.943
		c-0.715,5.29-4.096,9.207-7.555,8.751s-5.684-5.112-4.97-10.401s4.096-9.206,7.554-8.75
		C397.699,92.999,399.926,97.655,399.213,102.943z"/>
	<path d="M394.242,92.543c-3.458-0.456-6.84,3.461-7.554,8.75s1.511,9.945,4.97,10.401s6.84-3.461,7.555-8.751
		C399.926,97.655,397.699,92.999,394.242,92.543z"/>
</g>
</svg>
