<?xml version="1.0" encoding="utf-8"?>
<!-- Generator: Adobe Illustrator 16.0.0, SVG Export Plug-In . SVG Version: 6.00 Build 0)  -->
<!DOCTYPE svg PUBLIC "-//W3C//DTD SVG 1.1//EN" "http://www.w3.org/Graphics/SVG/1.1/DTD/svg11.dtd">
<svg version="1.1" id="Layer_1" xmlns="http://www.w3.org/2000/svg" xmlns:xlink="http://www.w3.org/1999/xlink" x="0px" y="0px"
	 width="768px" height="430px" viewBox="0 0 768 430" enable-background="new 0 0 768 430" xml:space="preserve">
<g>
	<path fill="#FFA100" d="M430.597,305.745l10.146,30.151c-4.181,3.881-20.896,14.928-20.896,14.928
		c-3.881-10.747-9.553-26.57-9.553-26.57C416.266,319.18,430.597,305.745,430.597,305.745z"/>
	<path fill="#FFC400" d="M425.817,314.104l10.745,25.673c-4.18,3.883-16.715,11.047-16.715,11.047
		c-3.881-10.747-9.553-26.57-9.553-26.57C416.266,319.18,425.817,314.104,425.817,314.104z"/>
	<path fill="#FF6F00" d="M419.693,351.279l-0.126-0.354c-3.882-10.747-9.557-26.57-9.557-26.57l-0.069-0.194l0.161-0.131
		c5.896-5.013,20.143-18.367,20.288-18.502l0.336-0.317l10.361,30.773l-0.142,0.133c-4.151,3.854-20.77,14.845-20.936,14.956
		L419.693,351.279z M410.644,324.348c0.652,1.815,5.732,15.985,9.354,26.018c2.298-1.527,16.401-10.932,20.398-14.56l-9.938-29.526
		C428.272,308.324,416.121,319.674,410.644,324.348z"/>
	<path fill="#FFDDA3" d="M418.657,355.873c3.756,6.608,14.188,7.762,23.307,2.585c9.117-5.181,13.462-14.738,9.709-21.346
		c-3.757-6.605-14.191-7.764-23.307-2.584C419.252,339.71,414.902,349.263,418.657,355.873z"/>
	<path fill="#FFF4E0" d="M440.065,341.864c0-4.434-2.639-7.874-6.441-9.601c-1.762,0.532-3.532,1.288-5.258,2.265
		c-9.114,5.182-13.464,14.734-9.709,21.345c2.174,3.827,6.59,5.819,11.692,5.817C436.451,356.709,440.874,349.975,440.065,341.864z"
		/>
	<path fill="#BF954D" d="M430.344,361.995h-0.002c-5.434,0-9.787-2.178-11.945-5.975c-1.862-3.282-1.857-7.358,0.018-11.477
		c1.86-4.092,5.344-7.738,9.807-10.274c3.77-2.146,7.842-3.278,11.766-3.278c5.434,0,9.789,2.179,11.946,5.974
		c3.829,6.739-0.578,16.497-9.823,21.75C438.337,360.859,434.267,361.995,430.344,361.995z M439.986,331.588
		c-3.821,0-7.789,1.107-11.473,3.201c-4.354,2.475-7.747,6.024-9.557,9.999c-1.792,3.941-1.806,7.825-0.041,10.938
		c2.05,3.603,6.213,5.669,11.426,5.669h0.002c3.818,0,7.785-1.105,11.471-3.199c8.962-5.09,13.265-14.481,9.598-20.937
		C449.362,333.654,445.199,331.588,439.986,331.588z"/>
	<path fill="#FFA100" d="M302.149,280.074c0,0,13.732-5.375,22.687,8.956c0.895-4.479,1.493-9.942,1.493-9.942
		c-9.254-7.073-16.119-9.76-24.18-7.97C302.149,275.896,302.149,280.074,302.149,280.074z"/>
	<path fill="#FFC400" d="M303.608,277.447c0,0,18.152-5.134,21.228,11.583c0.895-4.479,1.493-9.942,1.493-9.942
		c-9.254-7.073-16.119-9.76-24.18-7.97C302.149,275.896,303.608,277.447,303.608,277.447z"/>
	<path fill="#FF6F00" d="M324.981,289.826l-0.396-0.639c-5.064-8.1-11.674-9.804-16.325-9.804c-3.491,0-5.977,0.957-6.002,0.968
		l-0.407,0.161v-9.634l0.234-0.053c1.65-0.367,3.22-0.545,4.795-0.545c5.902,0,11.773,2.562,19.632,8.566l0.134,0.103l-0.021,0.168
		c-0.006,0.056-0.608,5.53-1.494,9.969L324.981,289.826z M308.26,278.787c4.678,0,11.273,1.661,16.426,9.454
		c0.721-3.816,1.226-8.127,1.329-9.021c-7.679-5.846-13.407-8.342-19.135-8.342c-1.457,0-2.91,0.157-4.43,0.48v8.295
		C303.308,279.374,305.451,278.787,308.26,278.787z"/>
	<path fill="#FFA100" d="M326.33,305.745l-10.149,30.151c4.18,3.881,20.898,14.928,20.898,14.928
		c3.879-10.747,9.551-26.57,9.551-26.57C340.657,319.18,326.33,305.745,326.33,305.745z"/>
	<path fill="#FFC400" d="M331.212,310.293c-2.852-2.645-4.882-4.548-4.882-4.548l-10.149,30.151
		c2.459,2.284,9.263,7.052,14.444,10.587C334.247,348.954,335.834,322.294,331.212,310.293z"/>
	<path fill="#FF6F00" d="M337.227,351.279l-0.315-0.207c-0.168-0.111-16.786-11.103-20.935-14.956l-0.142-0.133l0.063-0.182
		l10.297-30.592l0.338,0.317c0.143,0.135,14.392,13.489,20.29,18.502l0.155,0.131l-0.069,0.194c0,0-5.672,15.823-9.554,26.57
		L337.227,351.279z M316.523,335.806c4.002,3.628,18.104,13.032,20.401,14.56c3.621-10.032,8.702-24.202,9.354-26.018
		c-5.477-4.674-17.629-16.023-19.815-18.068L316.523,335.806z"/>
	<path fill="#FFDDA3" d="M338.265,355.873c-3.753,6.608-14.189,7.762-23.305,2.585c-9.116-5.181-13.463-14.738-9.709-21.346
		c3.754-6.605,14.188-7.764,23.306-2.584C337.674,339.71,342.018,349.263,338.265,355.873z"/>
	<path fill="#FFF4E0" d="M333.035,337.75c-1.323-1.191-2.82-2.281-4.479-3.222c-9.118-5.18-19.551-4.021-23.306,2.584
		c-3.754,6.607,0.593,16.165,9.709,21.346c0.64,0.362,1.288,0.69,1.938,0.992C325.112,355.071,332.953,347.498,333.035,337.75z"/>
	<path fill="#BF954D" d="M326.58,361.995c-3.924,0-7.994-1.136-11.768-3.28c-9.246-5.253-13.65-15.011-9.821-21.75
		c2.157-3.795,6.51-5.974,11.944-5.974c3.923,0,7.994,1.133,11.768,3.278c9.247,5.254,13.652,15.01,9.822,21.751
		C336.367,359.817,332.014,361.995,326.58,361.995z M316.935,331.588c-5.212,0-9.376,2.066-11.424,5.672
		c-3.667,6.455,0.638,15.847,9.596,20.937c3.685,2.094,7.652,3.199,11.473,3.199c5.213,0,9.378-2.066,11.425-5.669
		c3.666-6.455-0.64-15.85-9.597-20.938C324.723,332.695,320.756,331.588,316.935,331.588z"/>
	<path fill="#FFA100" d="M434.476,275.896c-4.075-33.165-53.486-23.243-56.013-22.712c-2.528-0.531-51.942-10.453-56.013,22.712
		c-1.172,21.766-7.148,55.44,55.903,63.256v0.028l0.11-0.013l0.109,0.013v-0.028C441.621,331.337,435.645,297.662,434.476,275.896z"
		/>
	<path fill="#FFC400" d="M414.526,318.077c20.212-13.318,17.777-45.467,5.487-55.144c-15.635-11.62-39.641-10.151-41.551-9.749
		c-2.528-0.531-51.942-10.453-56.013,22.712c-0.486,9.018-1.792,20.083,1.327,30.505c2.553,10.389,30.096,20.2,47.083,21.846
		C385.785,329.439,402.585,325.841,414.526,318.077z"/>
	<path fill="#FF6F00" d="M378.082,339.417c-26.296-3.29-42.939-11.296-50.884-24.47c-6.819-11.311-5.966-24.595-5.278-35.271
		c0.084-1.298,0.164-2.567,0.231-3.798c2.516-20.491,21.978-24.784,37.866-24.784c9.446,0,17.305,1.551,18.446,1.786
		c1.139-0.235,8.998-1.786,18.446-1.786c15.885,0,35.349,4.293,37.862,24.764c0.066,1.251,0.151,2.521,0.232,3.818
		c0.686,10.677,1.54,23.961-5.28,35.271c-7.939,13.166-24.577,21.172-50.855,24.468L378.082,339.417z M360.017,251.688
		c-15.646,0-34.811,4.205-37.272,24.242c-0.064,1.212-0.146,2.48-0.23,3.782c-1.407,21.865-3.331,51.807,55.876,59.143l0.072,0.011
		l0.071-0.011c59.203-7.336,57.277-37.277,55.874-59.143c-0.081-1.302-0.165-2.57-0.229-3.804
		c-2.464-20.016-21.63-24.221-37.271-24.221c-9.58,0-17.513,1.604-18.384,1.787l-0.062,0.012l-0.063-0.012
		C377.526,253.293,369.598,251.688,360.017,251.688z"/>
	<path fill="#FFA100" d="M510.598,140.069c0,0,38.807-17.912,17.312-49.853c-19.701-25.674-56.12-7.463-59.702,3.581
		C475.668,101.56,510.598,140.069,510.598,140.069z"/>
	<path fill="#FFC400" d="M505.487,134.886c0,0,37.867-17.654,19.508-43.221c-19.704-25.675-53.206-8.912-56.788,2.132
		C475.668,101.56,505.487,134.886,505.487,134.886z"/>
	<path fill="#FF6F00" d="M510.521,140.431l-0.145-0.162c-0.351-0.383-35.009-38.595-42.385-46.264l-0.122-0.127l0.054-0.171
		c2.2-6.786,17.227-16.85,33.475-16.85c7.589,0,18.39,2.286,26.749,13.178c6.018,8.941,7.897,17.631,5.598,25.844
		c-4.397,15.707-22.838,24.375-23.021,24.462L510.521,140.431z M468.549,93.722c7.381,7.698,39.63,43.236,42.119,45.98
		c1.992-0.973,18.424-9.416,22.501-23.989c2.25-8.034,0.396-16.557-5.506-25.331c-8.201-10.683-18.81-12.929-26.266-12.929
		C485.536,77.453,470.885,87.105,468.549,93.722z"/>
	<path fill="#FF7D7D" d="M503.729,128.126c0,0,25.078-6.032,10.451-27.344c-10.747-14.746-30.45,3.762-30.45,3.762L503.729,128.126z
		"/>
	<path fill="#FF6F00" d="M503.803,128.417l-0.143-0.58c0.108-0.026,11.016-2.736,14.025-10.583
		c1.769-4.611,0.507-10.096-3.754-16.303c-2.412-3.313-5.5-5.17-9.167-5.514c-9.78-0.914-20.722,9.222-20.829,9.324l-0.41-0.435
		c0.454-0.425,11.228-10.43,21.297-9.483c3.846,0.358,7.074,2.298,9.598,5.763c4.385,6.386,5.668,12.057,3.823,16.862
		C515.117,125.611,503.913,128.391,503.803,128.417z"/>
	<path fill="#FFA100" d="M246.326,140.069c0,0-38.807-17.912-17.314-49.853c19.702-25.674,56.121-7.463,59.704,3.581
		C281.253,101.56,246.326,140.069,246.326,140.069z"/>
	<path fill="#FFC400" d="M250.488,135.041c0,0-39.983-18.107-21.476-44.825c19.702-25.674,56.121-7.463,59.704,3.581
		C281.253,101.56,250.488,135.041,250.488,135.041z"/>
	<path fill="#FF6F00" d="M246.4,140.431l-0.199-0.091c-0.186-0.087-18.624-8.755-23.022-24.462
		c-2.3-8.213-0.421-16.903,5.585-25.828c8.37-10.908,19.172-13.194,26.76-13.194c16.248,0,31.276,10.064,33.476,16.85l0.055,0.171
		l-0.123,0.127c-7.375,7.669-42.035,45.881-42.384,46.264L246.4,140.431z M255.523,77.453c-7.454,0-18.065,2.246-26.273,12.943
		c-5.896,8.76-7.748,17.283-5.498,25.316c4.079,14.574,20.511,23.016,22.501,23.989c2.489-2.745,34.741-38.283,42.12-45.98
		C286.036,87.105,271.386,77.453,255.523,77.453z"/>
	<path fill="#FF7D7D" d="M253.192,128.126c0,0-25.076-6.032-10.448-27.344c10.747-14.746,30.449,3.762,30.449,3.762L253.192,128.126
		z"/>
	<path fill="#FF6F00" d="M253.122,128.417c-0.113-0.026-11.317-2.807-14.442-10.949c-1.846-4.805-0.561-10.476,3.819-16.856
		c2.529-3.471,5.76-5.411,9.604-5.769c10.062-0.947,20.842,9.058,21.295,9.483l-0.408,0.435
		c-0.111-0.102-11.034-10.243-20.834-9.324c-3.666,0.343-6.751,2.2-9.171,5.519c-4.255,6.202-5.518,11.688-3.747,16.299
		c3.013,7.851,13.915,10.556,14.024,10.582L253.122,128.417z"/>
	<path fill="#4C1400" d="M490.298,106.038c0,0,11.94-3.882,16.418-5.256c-18.806-35.704-58.81-38.33-68.062-36.538
		c3.283-1.493,10.748-8.358,11.204-10.448c-45.233-19.534-69.622,5.157-71.396,7.047c-1.777-1.89-26.167-26.582-71.398-7.047
		c0.458,2.09,7.921,8.955,11.205,10.448c-9.252-1.792-49.255,0.833-68.062,36.538c4.478,1.374,16.417,5.256,16.417,5.256
		c-7.462,3.581-33.731,24.584-29.253,56.771c5.97-0.352,17.612-2.741,17.612-2.741c-3.284,7.166-13.433,37.614,6.567,65.377
		c4.775-5.076,13.433-15.26,13.433-15.26c0.597,8.692,5.672,39.439,39.106,48.992c0.599-1.492,0.896-12.836,0.896-12.836
		c4.878,16.623,47.865,20.562,60.768,35.661c1.098,1.286,2.673,4.466,2.709,4.378c0.035,0.088,1.47-2.877,2.45-4.073
		c12.577-15.353,56.115-19.229,61.025-35.966c0,0,0.297,11.344,0.895,12.836c33.434-9.553,38.51-40.3,39.107-48.992
		c0,0,8.655,10.184,13.432,15.26c20.002-27.763,9.854-58.211,6.571-65.377c0,0,11.64,2.39,17.609,2.741
		C524.028,130.623,497.763,109.619,490.298,106.038z"/>
	<path fill="#601802" d="M242.111,155.577c11.037-1.84,22.076-9.2,34.955-7.36c-23.918,9.2-23.918,44.156-14.719,64.393
		c11.039-5.518,12.878-18.398,22.079-25.756c-5.52,23.916-1.841,47.833,22.077,60.712c0-9.199-5.518-18.398-3.681-29.438
		c16.56,29.438,48.924,47.293,78.194,46.456c16.555-1.84,41.394-9.659,59.792-22.538c5.519-5.52,11.038-12.879,12.878-20.238
		c0,7.359,0,14.719,0,22.078c23.918-5.52,23.918-31.276,22.078-51.513c3.68,9.196,16.559,7.359,18.398,18.396
		c5.52-18.396,7.356-42.314-7.359-57.033c9.198,0,20.236-1.841,29.437,3.68c-12.878-18.399-22.077-40.475-44.156-47.835
		c9.201-1.84,16.556-7.359,25.756-9.199c-23.915-18.397-53.353-29.437-82.79-29.437c15.662-1.38,25.203-7.01,23.605-6.701
		c3.283-1.493,10.748-8.358,11.204-10.448c-45.233-19.534-69.622,5.157-71.396,7.047c-1.777-1.89-26.167-26.582-71.398-7.047
		c0.458,2.09,7.921,8.955,11.205,10.448c-9.068-1.754-47.656,0.753-66.897,34.463c9.177,0.472,18.356,1.986,27.534,3.515
		C264.187,118.781,240.27,131.658,242.111,155.577z"/>
	<path fill="#7C200A" d="M294.909,142.992c1.412-0.065,2.823-0.152,4.234-0.293C297.673,142.698,296.272,142.813,294.909,142.992z"
		/>
	<path fill="#7C200A" d="M245.79,150.058c15.287-10.193,32.143-6.279,49.119-7.066c1.363-0.178,2.764-0.293,4.234-0.293
		c-1.412,0.142-2.823,0.229-4.234,0.293c-25.905,3.372-32.562,37.696-32.562,60.418c12.878-11.037,23.918-22.076,38.637-27.596
		c-7.359,16.559-16.559,38.634-3.681,55.192c3.681-11.038-5.519-29.438,11.039-33.114c5.519,40.473,45.075,68.094,85.552,58.899
		c25.755-5.521,56.111-22.105,61.633-49.701c7.359,7.357,9.197,14.716,7.359,23.916c14.718-16.559,14.718-36.796,7.358-55.192
		c9.199,3.68,20.235,5.52,23.918,16.559c3.677-16.559-3.683-33.116-18.398-42.315c9.199-1.841,20.237-1.841,29.438-1.841
		c-14.722-20.237-36.797-27.597-60.715-31.275c12.878-7.36,29.438-11.038,42.316-18.397c-27.598-11.04-57.034-16.559-86.473-16.559
		c9.199-12.879,27.598-16.559,38.637-27.598c-22.077-1.839-47.835-1.839-62.552,18.399c-11.04-22.077-40.477-18.399-60.714-18.399
		c3.68,3.681,9.199,5.521,11.038,9.2c-12.879,5.519-27.596,7.359-40.474,12.878c-13.072,4.793-21.847,13.196-22.998,15.201
		c13.206-3.674,15.667,3.198,28.517,3.198C278.905,115.101,249.468,126.139,245.79,150.058z"/>
	<path fill="#280B00" d="M378.462,286.681h-0.203l-0.052-0.133c-0.087-0.117-0.208-0.337-0.438-0.759
		c-0.529-0.957-1.515-2.739-2.246-3.593c-5.808-6.8-17.943-11.383-29.677-15.812c-13.831-5.222-26.938-10.174-30.61-18.489
		c-0.107,3.175-0.391,10.195-0.871,11.394l-0.101,0.249l-0.258-0.073c-33.742-9.64-38.581-40.647-39.265-48.537
		c-1.87,2.192-8.883,10.376-12.975,14.724l-0.247,0.263l-0.211-0.294c-20.937-29.059-8.796-60.534-6.83-65.144
		c-2.408,0.478-11.918,2.327-17.091,2.631l-0.275,0.016l-0.038-0.273c-2.41-17.318,4.217-30.944,10.203-39.328
		c6.447-9.03,14.357-15.176,18.568-17.423c-2.606-0.844-11.921-3.862-15.728-5.03l-0.343-0.105l0.167-0.32
		c7.124-13.523,17.905-23.661,32.045-30.128c13.776-6.303,26.094-6.982,30.75-6.982c1.468,0,2.837,0.066,4.002,0.189
		c-3.619-2.337-9.533-7.88-9.968-9.86l-0.053-0.241l0.225-0.098c11.529-4.979,22.706-7.502,33.219-7.502
		c23.15,0,36.078,12.12,38.299,14.393c2.222-2.273,15.144-14.393,38.297-14.393c10.514,0,21.689,2.524,33.217,7.502l0.227,0.098
		l-0.053,0.241c-0.436,1.98-6.35,7.523-9.969,9.86c1.164-0.123,2.533-0.189,4.003-0.189c4.657,0,16.974,0.68,30.75,6.982
		c14.142,6.468,24.92,16.606,32.046,30.128l0.168,0.32l-0.348,0.105c-3.803,1.168-13.118,4.186-15.725,5.03
		c4.211,2.248,12.121,8.393,18.569,17.423c5.984,8.384,12.611,22.01,10.202,39.328l-0.038,0.273l-0.277-0.016
		c-5.168-0.305-14.681-2.153-17.089-2.631c1.966,4.61,14.106,36.084-6.829,65.144l-0.21,0.294l-0.251-0.263
		c-4.091-4.348-11.105-12.532-12.972-14.724c-0.687,7.89-5.524,38.897-39.267,48.537l-0.261,0.073l-0.097-0.249
		c-0.48-1.198-0.768-8.219-0.872-11.394c-3.67,8.315-16.777,13.268-30.61,18.489c-11.912,4.497-24.225,9.147-29.932,16.113
		c-0.636,0.777-1.485,2.343-1.99,3.279c-0.231,0.428-0.354,0.654-0.438,0.771l-0.053,0.133h-0.15H378.462z M314.737,244.435
		l0.535,1.824c2.621,8.931,16.302,14.096,30.786,19.565c11.807,4.457,24.016,9.069,29.922,15.984c0.769,0.9,1.734,2.648,2.312,3.691
		l0.116,0.211l0.052-0.135l0.053,0.128l0.116-0.209c0.518-0.957,1.38-2.559,2.056-3.378c5.805-7.089,18.195-11.768,30.18-16.293
		c14.482-5.47,28.165-10.635,30.786-19.565l0.536-1.824l0.048,1.897c0.078,2.97,0.369,10.646,0.799,12.479
		c34.247-9.958,38.171-42.26,38.607-48.646l0.053-0.734l0.473,0.56c0.085,0.099,8.414,9.89,13.173,14.983
		c21.665-30.417,6.968-63.39,6.327-64.779l-0.242-0.538l0.575,0.119c0.113,0.023,11.337,2.315,17.296,2.717
		c4.047-30.254-19.908-51.763-29.127-56.188l-0.671-0.323l0.706-0.23c0.119-0.037,11.41-3.707,16.08-5.15
		c-18.899-35.447-57.723-36.474-62.099-36.474c-2.169,0-4.113,0.145-5.476,0.408l-2.476,0.48l2.295-1.045
		c3.167-1.439,10.085-7.801,10.965-10.007c-11.364-4.877-22.377-7.349-32.733-7.349c-23.839,0-36.693,12.954-38.082,14.432
		l-0.215,0.231l-0.22-0.231c-1.385-1.479-14.238-14.432-38.079-14.432c-10.356,0-21.369,2.472-32.733,7.349
		c0.881,2.206,7.797,8.568,10.962,10.007l2.298,1.045l-2.479-0.48c-1.361-0.264-3.305-0.408-5.474-0.408
		c-4.376,0-43.199,1.027-62.099,36.474c4.668,1.444,15.96,5.113,16.078,5.15l0.709,0.23l-0.671,0.323
		c-9.219,4.425-33.174,25.933-29.126,56.188c5.958-0.402,17.18-2.694,17.294-2.717l0.578-0.119l-0.244,0.538
		c-0.641,1.389-15.34,34.362,6.326,64.779c4.765-5.094,13.089-14.885,13.175-14.983l0.474-0.56l0.05,0.734
		c0.439,6.386,4.362,38.688,38.607,48.646c0.432-1.832,0.72-9.509,0.799-12.479L314.737,244.435z"/>
	<path fill="#FFA100" d="M457.163,191.015c-4.778-15.523-6.372-49.752-3.98-59.303c-5.573-2.79-21.097-19.107-29.454-34.231
		c-24.477,0.626-38.554-7.399-43.418-10.825c-0.878-0.617-1.784-1.476-1.848-1.417c-0.065-0.058-0.925,0.762-1.743,1.343
		c-4.766,3.383-18.873,11.531-43.524,10.9c-8.359,15.124-23.882,31.442-29.454,34.231c2.388,9.551,0.797,43.779-3.98,59.303
		c-3.583,15.325,1.592,50.55,62.093,50.154c4.335,0.787,9.062,9.378,16.499,9.543v0.008l0.11-0.005l0.109,0.005v-0.008
		c7.435-0.165,12.163-8.756,16.5-9.543C455.57,241.564,460.742,206.34,457.163,191.015z"/>
	<path fill="#FFC400" d="M446.932,187.832c-4.776-15.523-6.877-46.243-4.489-55.795c-5.573-2.785-14.235-13.86-22.595-28.984
		c-16.976-1.287-30.123-7.35-41.263-11.387c-0.069-0.058-24.534,11.685-45.389,5.815c-8.359,15.124-23.882,31.442-29.454,34.231
		c2.388,9.551,0.797,43.779-3.98,59.303c-3.583,15.325,1.592,50.55,62.093,50.154c4.335,0.787,9.062,9.378,16.499,9.543v0.008
		l0.11-0.005l0.109,0.005v-0.008c7.435-0.165,12.163-8.756,16.5-9.543C455.57,241.564,450.512,203.155,446.932,187.832z"/>
	<path fill="#280B00" d="M378.571,251.02l-0.076-0.006l-0.035-0.294l-0.04,0.294l-0.367,0.006v-0.021
		c-4.37-0.221-7.746-3.209-10.738-5.849c-2.056-1.816-3.83-3.383-5.516-3.689c-0.285,0.009-0.621,0.009-0.96,0.009
		c-25.87,0-44.116-6.461-54.222-19.201c-8.239-10.389-9.094-22.989-7.147-31.319c4.707-15.294,6.442-49.328,3.984-59.166
		l-0.06-0.231l0.214-0.108c5.717-2.859,21.13-19.276,29.328-34.107l0.087-0.159l0.181,0.003c0.913,0.025,1.804,0.036,2.684,0.036
		h0.005c22.864,0,36.05-7.608,40.654-10.879c0.39-0.275,0.787-0.607,1.107-0.875c0.389-0.325,0.552-0.458,0.673-0.504l0.023-0.021
		l0.071-0.002h0.032l0.138,0.021c0.125,0.046,0.285,0.18,0.689,0.513c0.348,0.285,0.775,0.642,1.201,0.941
		c4.792,3.375,18.84,11.395,43.239,10.769l0.182-0.003l0.087,0.159c8.198,14.831,23.609,31.25,29.327,34.107l0.213,0.108
		l-0.059,0.231c-2.457,9.837-0.723,43.871,3.98,59.145c1.949,8.353,1.095,20.958-7.143,31.344
		c-10.105,12.738-28.346,19.197-54.217,19.197c-0.354,0.011-0.684,0-1.023-0.004c-1.631,0.302-3.407,1.868-5.46,3.685
		c-2.988,2.64-6.369,5.628-10.74,5.849v0.011L378.571,251.02z M361.85,240.868c1.91,0.342,3.739,1.958,5.861,3.833
		c2.981,2.633,6.355,5.616,10.647,5.711l0.104,0.002l0.1-0.002c4.296-0.095,7.67-3.078,10.65-5.711
		c2.12-1.875,3.953-3.491,5.803-3.83c0.392,0,0.734,0,1.065,0h0.01c25.682,0,43.762-6.382,53.747-18.971
		c8.108-10.22,8.949-22.62,7.032-30.815c-4.681-15.213-6.428-49.029-4.036-59.216c-5.919-3.167-21.111-19.385-29.279-34.085
		c-24.486,0.581-38.589-7.484-43.417-10.884c-0.444-0.313-0.887-0.676-1.239-0.968c-0.142-0.12-0.294-0.245-0.401-0.329l-0.035,0.03
		l-0.037-0.03c-0.104,0.082-0.255,0.205-0.392,0.319c-0.325,0.273-0.737,0.615-1.144,0.902
		c-4.652,3.305-17.961,10.989-40.999,10.989h-0.005c-0.829,0-1.667-0.011-2.518-0.029c-8.168,14.701-23.36,30.918-29.282,34.085
		c2.393,10.187,0.646,44.003-4.041,59.234c-1.911,8.175-1.068,20.572,7.039,30.791c9.987,12.593,28.073,18.977,53.754,18.977
		C361.176,240.871,361.513,240.871,361.85,240.868z"/>
	<path fill="#351101" d="M304.087,131.869c5.921-3.167,21.113-19.385,29.282-34.085c0.852,0.018,1.689,0.029,2.518,0.029h0.005
		c23.038,0,36.347-7.684,40.999-10.989c0.407-0.288,0.819-0.629,1.144-0.902c0.137-0.114,0.287-0.237,0.392-0.319l0.037,0.03
		l0.035-0.03c0.107,0.084,0.26,0.209,0.401,0.329c0.352,0.292,0.794,0.655,1.239,0.968c4.828,3.4,18.931,11.465,43.417,10.884
		c8.168,14.701,23.36,30.918,29.279,34.085c-0.048,0.202,0.547,0.273,0.636-0.086l-0.154-0.34
		c-5.718-2.856-21.129-19.276-29.327-34.107l-0.087-0.159l-0.182,0.003c-24.398,0.626-38.447-7.394-43.239-10.769
		c-0.426-0.3-0.854-0.656-1.201-0.941c-0.404-0.333-0.564-0.467-0.689-0.513l-0.138-0.021h-0.032l-0.071,0.002l-0.023,0.021
		c-0.121,0.047-0.284,0.179-0.673,0.504c-0.32,0.267-0.717,0.6-1.107,0.875c-4.604,3.271-17.79,10.879-40.654,10.879h-0.005
		c-0.88,0-1.771-0.011-2.684-0.036l-0.181-0.003l-0.087,0.159c-7.563,13.684-21.268,28.716-27.833,33.207
		c-0.55,0.378-1.648,1.24-1.648,1.24C303.525,132.083,304.12,132.005,304.087,131.869z"/>
	<path fill="#280B00" d="M420.175,97.892c-1.288,0-2.55-0.057-3.765-0.187l0.063-0.594c10.884,1.166,25.821-3.551,25.969-3.598
		C442.442,93.514,430.56,97.892,420.175,97.892z"/>
	<path fill="#280B00" d="M449.538,129.561l0.472-0.375c5.234,4.087,18.907,11.331,19.046,11.402
		C469.056,140.587,454.953,133.948,449.538,129.561z"/>
	<path fill="#FFA100" d="M411.415,318.619l14.402,43.547c-9.851,2.687-35.206,9.554-35.206,9.554
		c-1.812-18.212-5.07-47.268-5.07-47.268L411.415,318.619z"/>
	<path fill="#FFC400" d="M410.295,314.104l4.396,49.257c-9.853,2.688-24.08,8.358-24.08,8.358
		c-1.812-18.212-5.07-47.268-5.07-47.268L410.295,314.104z"/>
	<path fill="#FF6F00" d="M390.349,372.099l-0.035-0.35c-0.99-9.99-2.533-23.604-3.714-33.793
		c-0.945-8.168-1.083-14.333-1.083-14.333c0.031,0.296,3.554,29.678,5.356,47.716c3.01-0.817,25.196-6.822,34.563-9.38
		l-14.229-43.882l3.971,10.322l11.021,33.976l-0.305,0.08c-9.849,2.684-35.204,9.552-35.204,9.552L390.349,372.099z"/>
	<path fill="#FFDDA3" d="M388.851,373.202c1.923,8.312,12.775,12.897,24.24,10.245c11.468-2.651,19.202-11.538,17.281-19.846
		c-1.921-8.312-12.773-12.897-24.241-10.242C394.667,356.008,386.931,364.892,388.851,373.202z"/>
	<path fill="#FFF4E0" d="M414.505,352.67c-2.666-0.19-5.498,0.021-8.374,0.689c-11.464,2.648-19.2,11.532-17.28,19.843
		c0.82,3.543,3.266,6.407,6.69,8.327c7.044-0.944,13.803-3.302,19.448-8.616C419.866,367.547,419.162,358.192,414.505,352.67z"/>
	<path fill="#BF954D" d="M406.609,384.499L406.609,384.499c-9.241,0-16.498-4.513-18.052-11.229
		c-1.951-8.457,5.898-17.52,17.508-20.203c2.179-0.506,4.381-0.763,6.55-0.763c9.241,0,16.495,4.514,18.049,11.229
		c1.953,8.457-5.897,17.52-17.505,20.206C410.98,384.241,408.774,384.499,406.609,384.499z M412.615,352.904
		c-2.12,0-4.282,0.248-6.415,0.743c-11.286,2.61-18.938,11.352-17.059,19.489c1.489,6.438,8.508,10.763,17.468,10.763
		c2.124,0,4.279-0.247,6.412-0.74c11.287-2.611,18.94-11.353,17.059-19.493C428.592,357.228,421.572,352.904,412.615,352.904z"/>
	
		<ellipse transform="matrix(-0.9984 0.0564 -0.0564 -0.9984 844.307 265.5799)" fill="#FFA100" cx="418.409" cy="144.694" rx="20.497" ry="37.099"/>
	
		<ellipse transform="matrix(-0.9984 0.0563 -0.0563 -0.9984 844.9617 273.3763)" fill="#EFEFEF" cx="418.629" cy="148.592" rx="18.34" ry="33.194"/>
	<path d="M400.283,140.428c0.697-15.515,7.499-27.631,16.479-28.138c10.112-0.569,19.147,13.806,20.179,32.11
		c0.347,6.147-0.256,11.953-1.588,16.976C433.425,167.658,399.142,152.049,400.283,140.428z"/>
	<path fill="#FFFFFF" d="M400.283,143.588c0.697-15.515,7.499-27.632,16.479-28.138c10.112-0.57,19.147,13.806,20.179,32.109
		c0.347,6.148-0.256,11.954-1.588,16.977C433.425,170.818,399.142,155.208,400.283,143.588z"/>
	<path d="M400.021,149.641c-1.041-18.437,6.461-33.908,16.721-34.488c10.396-0.587,19.451,13.861,20.496,32.391
		c1.04,18.438-6.461,33.908-16.724,34.487c-0.2,0.013-0.4,0.018-0.597,0.018C409.783,182.048,401.043,167.813,400.021,149.641z
		 M416.777,115.749c-9.933,0.56-17.183,15.749-16.162,33.858c0.99,17.561,9.652,31.845,19.303,31.845
		c0.188,0,0.375-0.005,0.562-0.016c9.936-0.56,17.184-15.748,16.161-33.86c-0.988-17.557-9.647-31.842-19.3-31.842
		C417.152,115.733,416.967,115.738,416.777,115.749z"/>
	
		<ellipse transform="matrix(-0.9956 0.0937 -0.0937 -0.9956 845.8347 256.8902)" cx="416.885" cy="148.306" rx="11.168" ry="19.302"/>
	<path d="M405.467,149.378c-1.011-10.76,3.287-19.996,9.581-20.59c6.338-0.594,12.245,7.723,13.254,18.443
		c1.012,10.762-3.285,19.999-9.579,20.59c-0.216,0.021-0.432,0.031-0.647,0.031C411.981,167.853,406.442,159.737,405.467,149.378z
		 M415.105,129.385c-5.969,0.56-10.025,9.506-9.045,19.938c0.98,10.395,6.595,18.461,12.604,17.905
		c5.97-0.562,10.025-9.506,9.041-19.941c-0.944-10.053-6.221-17.93-12.011-17.93C415.497,129.356,415.303,129.363,415.105,129.385z"
		/>
	<path fill="#FFFFFF" d="M416.725,137.765c0.767,1.996,2.549,3.168,3.976,2.62c1.431-0.551,1.965-2.614,1.194-4.613
		c-0.768-1.995-2.549-3.166-3.976-2.616C416.489,133.706,415.953,135.77,416.725,137.765z"/>
	<ellipse fill="#FFFFFF" cx="422.248" cy="150.185" rx="4.192" ry="7.566"/>
	<path fill="#591B02" d="M429.842,113.426c0,0-7.55-8.36-24.225-9.255C409.841,97.903,420.288,98.499,429.842,113.426z"/>
	<path fill="#351101" d="M405.602,104.469l-0.526-0.028l0.298-0.437c1.689-2.511,4.295-3.895,7.333-3.895
		c5.7,0,12.037,4.796,17.387,13.154l0.942,1.872C430.963,115.053,421.944,105.348,405.602,104.469z M406.178,103.904
		c11.773,0.757,18.994,5.277,22.104,7.734c-4.938-6.977-10.535-10.931-15.576-10.931
		C410.052,100.707,407.754,101.837,406.178,103.904z"/>
	
		<ellipse transform="matrix(0.9984 0.0563 -0.0563 0.9984 8.7112 -18.866)" fill="#FFA100" cx="338.956" cy="145.067" rx="20.497" ry="37.098"/>
	
		<ellipse transform="matrix(0.9984 0.0563 -0.0563 0.9984 8.9324 -18.8509)" fill="#EFEFEF" cx="338.736" cy="148.966" rx="18.34" ry="33.193"/>
	<path d="M357.082,140.803c-0.697-15.515-7.499-27.632-16.479-28.138c-10.112-0.571-19.146,13.806-20.178,32.108
		c-0.347,6.149,0.256,11.955,1.588,16.978C323.94,168.032,358.225,152.422,357.082,140.803z"/>
	<path fill="#FFFFFF" d="M357.082,143.961c-0.697-15.515-7.499-27.631-16.479-28.138c-10.112-0.569-19.146,13.806-20.178,32.109
		c-0.347,6.148,0.256,11.954,1.588,16.977C323.94,171.191,358.225,155.582,357.082,143.961z"/>
	<path d="M337.448,182.422c-0.197,0-0.396-0.005-0.596-0.018c-10.263-0.578-17.764-16.048-16.725-34.486
		c1.045-18.53,10.102-32.978,20.497-32.392c10.261,0.58,17.762,16.05,16.721,34.489
		C356.322,168.188,347.583,182.422,337.448,182.422z M340.023,116.107c-9.652,0-18.31,14.285-19.3,31.842
		c-1.022,18.112,6.226,33.302,16.161,33.861c0.187,0.009,0.376,0.016,0.563,0.016c9.651,0,18.312-14.285,19.303-31.845
		c1.019-18.109-6.23-33.298-16.162-33.858C340.399,116.111,340.212,116.107,340.023,116.107z"/>
	<path d="M351.599,149.727c-0.996,10.613-6.783,18.75-12.927,18.172c-6.139-0.578-10.309-9.651-9.31-20.266
		c0.997-10.616,6.785-18.75,12.926-18.171C348.429,130.038,352.597,139.111,351.599,149.727z"/>
	<path d="M339.29,168.226c-0.215,0-0.431-0.01-0.646-0.031c-6.295-0.591-10.592-9.827-9.58-20.59
		c1.009-10.721,6.915-19.036,13.255-18.442c6.293,0.594,10.591,9.829,9.58,20.589C350.923,160.11,345.385,168.226,339.29,168.226z
		 M341.671,129.729c-5.791,0-11.066,7.877-12.013,17.93c-0.981,10.435,3.075,19.379,9.043,19.941
		c6.009,0.557,11.622-7.509,12.603-17.904c0.981-10.433-3.074-19.379-9.044-19.939C342.063,129.736,341.868,129.729,341.671,129.729
		z"/>
	
		<ellipse transform="matrix(0.9331 0.3597 -0.3597 0.9331 71.968 -112.4309)" fill="#FFFFFF" cx="338.056" cy="137.143" rx="2.771" ry="3.873"/>
	<ellipse fill="#FFFFFF" cx="335.118" cy="150.559" rx="4.192" ry="7.567"/>
	<path fill="#591B02" d="M327.523,113.799c0,0,7.55-8.36,24.225-9.255C347.525,98.276,337.078,98.873,327.523,113.799z"/>
	<path fill="#351101" d="M326.33,115.509l0.943-1.872c5.35-8.36,11.687-13.155,17.387-13.155c3.038,0,5.643,1.384,7.333,3.896
		l0.297,0.436l-0.526,0.028C335.421,105.721,326.403,115.426,326.33,115.509z M344.66,101.081c-5.041,0-10.639,3.954-15.576,10.931
		c3.109-2.458,10.33-6.978,22.104-7.734C349.611,102.211,347.314,101.081,344.66,101.081z"/>
	<path fill="#280B00" d="M336.748,97.892c-10.385,0-22.268-4.378-22.268-4.378c0.148,0.047,15.089,4.76,25.97,3.598l0.062,0.594
		C339.298,97.835,338.034,97.892,336.748,97.892z"/>
	<path fill="#280B00" d="M288.01,140.947c0.138-0.074,13.81-7.617,18.954-11.814l0.377,0.462
		C302.155,133.828,288.01,140.947,288.01,140.947z"/>
	<path fill="#4C1400" d="M239.461,269.328c0,0,14.03,41.194,53.136,27.463c17.314-8.061,16.717-24.181,11.046-31.344
		c-3.881-3.583-13.434-12.539-34.033,0C256.475,273.507,247.819,274.699,239.461,269.328z"/>
	<path fill="#601802" d="M239.461,269.328c0,0,10.989,37.204,50.095,23.473c12.593-5.134,16.335-18.899,10.664-26.065
		c-3.881-3.583-10.011-13.827-30.61-1.288C256.475,273.507,247.819,274.699,239.461,269.328z"/>
	<path fill="#7C200A" d="M239.461,269.328c0,0,8.758,29.884,42.591,18.339c13.234-5.932,14.537-12.45,13.033-18.76
		c-2.19-4.281-7.365-15.336-25.476-3.46C256.475,273.507,247.819,274.699,239.461,269.328z"/>
	<path fill="#351101" d="M277.34,299.894c-27.466,0-38.059-30.163-38.164-30.471l-0.275-0.813l0.721,0.467
		c3.381,2.174,6.791,3.229,10.428,3.229c5.329,0,11.495-2.261,19.405-7.114c7.088-4.31,13.578-6.5,19.29-6.5
		c8.021,0,12.592,4.221,15.048,6.489l0.052,0.047c3.233,4.079,4.443,10.321,3.114,15.936c-1.128,4.755-4.513,11.373-14.237,15.896
		C287.367,298.943,282.202,299.894,277.34,299.894z M240.05,270.043c1.9,4.804,12.789,29.253,37.29,29.253
		c4.794,0,9.893-0.938,15.158-2.789c9.479-4.412,12.782-10.854,13.878-15.483c1.291-5.439,0.125-11.485-2.969-15.391l-0.018-0.014
		c-2.396-2.213-6.857-6.331-14.645-6.331c-5.602,0-11.987,2.16-18.979,6.413c-8.006,4.912-14.271,7.201-19.715,7.201
		C246.565,272.902,243.285,271.964,240.05,270.043z"/>
	<path fill="#FFA100" d="M345.542,318.619l-14.437,43.547c9.852,2.687,35.203,9.554,35.203,9.554
		c1.812-18.212,5.099-47.365,5.099-47.365L345.542,318.619z"/>
	<path fill="#FFC400" d="M345.542,318.619l-14.437,43.547c9.852,2.687,28.417,6.237,28.417,6.237
		c1.813-18.212,13.091-46.939,13.091-46.939L345.542,318.619z"/>
	<path fill="#FF6F00" d="M366.573,372.099l-0.34-0.092c0,0-25.356-6.868-35.207-9.552l-0.302-0.08l11.021-33.979l3.973-10.319
		l-14.233,43.882c9.366,2.558,31.554,8.562,34.561,9.38c1.805-18.038,5.328-47.42,5.362-47.716c0,0-0.12,6.022-1.052,14.036
		c-1.183,10.22-2.746,24.003-3.747,34.09L366.573,372.099z"/>
	<path fill="#FFDDA3" d="M368.071,373.202c-1.923,8.312-12.774,12.897-24.24,10.245c-11.467-2.651-19.203-11.538-17.281-19.846
		c1.921-8.312,12.773-12.897,24.242-10.242C362.257,356.008,369.994,364.892,368.071,373.202z"/>
	<path fill="#FFF4E0" d="M355.882,374.106c3.925-4.903,5.023-10.615,4.632-16.469c-2.723-1.924-6.028-3.427-9.722-4.278
		c-11.468-2.655-22.321,1.93-24.242,10.242c-1.528,6.604,3.052,13.572,10.752,17.486
		C344.313,381.508,350.965,379.944,355.882,374.106z"/>
	<path fill="#BF954D" d="M350.313,384.499c-2.168,0-4.371-0.258-6.549-0.76c-11.607-2.687-19.461-11.749-17.504-20.206
		c1.551-6.715,8.807-11.229,18.048-11.229c2.167,0,4.371,0.257,6.549,0.763c11.606,2.68,19.46,11.746,17.506,20.203
		C366.808,379.987,359.557,384.499,350.313,384.499z M344.308,352.904c-8.958,0-15.978,4.323-17.468,10.762
		c-1.881,8.141,5.771,16.882,17.057,19.493c2.134,0.493,4.294,0.74,6.416,0.74c8.96,0,15.978-4.325,17.469-10.763
		c1.881-8.138-5.772-16.879-17.059-19.489C348.586,353.152,346.429,352.904,344.308,352.904z"/>
	<path fill="#FFDDA3" d="M457.163,191.015c-1.393-5.43-7.443-13.529-13.433-16.917c-17.607-9.951-41.105-2.667-65.268,16.435
		c-24.165-19.102-47.662-26.386-65.268-16.435c-5.991,3.388-11.746,10.069-13.433,16.917c-3.583,15.325,1.592,50.55,62.093,50.154
		c4.335,0.787,9.062,9.378,16.499,9.543v0.008l0.11-0.005l0.109,0.005v-0.008c7.435-0.165,12.163-8.756,16.5-9.543
		C455.57,241.564,460.742,206.34,457.163,191.015z"/>
	<path fill="#FFF4E0" d="M443.535,173.998c-10.716-5.968-23.603-5.58-37.483-0.062c2.475,3.445,2.348,8.726,0.579,12.7
		c-5.97,10.153-19.702,12.54-29.853,9.553c-7.856-1.847-11.421-9.417-14.842-16.897c-18.149-10.292-35.191-12.853-48.742-5.194
		c-5.991,3.388-11.746,10.069-13.433,16.917c-1.804,7.719-1.383,20.484,7.208,31.206c10.405,10.711,35.008,13.482,55.182,14.545
		c3.583,0,8.062,5.992,11.645,7.187c2.387,0.599,5.372,0.599,7.761-0.595c4.179-2.389,8.359-6.567,13.134-7.167
		c12.537-1.193,27.761-2.388,37.316-11.343C445.806,211.047,449.598,193.353,443.535,173.998z"/>
	<path fill="#BF954D" d="M378.571,251.02l-0.076-0.006l-0.035-0.294l-0.04,0.294l-0.367,0.006v-0.021
		c-4.37-0.221-7.746-3.209-10.738-5.849c-2.056-1.816-3.83-3.383-5.516-3.689c-0.285,0.009-0.621,0.009-0.96,0.009
		c-25.87,0-44.116-6.461-54.222-19.201c-8.239-10.389-9.094-22.989-7.147-31.319c1.616-6.557,7.073-13.43,13.578-17.11
		c5.27-2.976,11.203-4.486,17.637-4.486c13.991,0,30.507,7.19,47.778,20.803c17.268-13.612,33.784-20.803,47.776-20.803
		c6.434,0,12.369,1.51,17.639,4.486c6.334,3.583,12.236,11.889,13.574,17.105c1.948,8.337,1.094,20.942-7.144,31.328
		c-10.105,12.738-28.349,19.197-54.217,19.197c-0.323,0.016-0.684,0-1.023-0.004c-1.631,0.302-3.407,1.868-5.46,3.685
		c-2.988,2.64-6.369,5.628-10.74,5.849v0.011L378.571,251.02z M361.85,240.868c1.91,0.342,3.739,1.958,5.861,3.833
		c2.981,2.633,6.355,5.616,10.647,5.711l0.104,0.002l0.1-0.002c4.296-0.095,7.67-3.078,10.65-5.711
		c2.12-1.875,3.953-3.491,5.803-3.83c0.392,0,0.734,0,1.065,0h0.01c25.682,0,43.762-6.382,53.747-18.971
		c8.108-10.22,8.949-22.62,7.032-30.815c-1.302-5.094-7.083-13.218-13.291-16.727c-5.175-2.926-11.013-4.41-17.341-4.41
		c-13.905,0-30.362,7.199-47.591,20.821l-0.185,0.145l-0.187-0.145c-17.228-13.623-33.687-20.821-47.591-20.821
		c-6.33,0-12.165,1.484-17.343,4.41c-6.372,3.604-11.713,10.324-13.292,16.729c-1.915,8.191-1.072,20.588,7.035,30.807
		c9.987,12.593,28.073,18.977,53.754,18.977C361.176,240.871,361.513,240.871,361.85,240.868z"/>
	<path fill="#5B0000" d="M374.097,204.259l-20.046,10.739c0,0,17.474,18.314,24.412,17.616c6.937,0.698,24.41-17.616,24.41-17.616
		l-20.047-10.739H374.097z"/>
	<path fill="#950000" d="M402.872,214.998l-20.047-10.739h-8.728l-20.046,10.739c0,0,6.05,6.34,12.445,11.417
		c3.509-9.909,11.026-14.4,20.672-7.969c1.366,2.05,4.35,4.036,5.173,6.405C397.978,220.127,402.872,214.998,402.872,214.998z"/>
	<path fill="#F2618B" d="M367.439,227.153c4.172,3.207,8.368,5.728,11.023,5.46c2.705,0.273,7.013-2.351,11.262-5.647
		C378.88,217.337,370.378,224.105,367.439,227.153z"/>
	<path fill="#FF6B8F" d="M387.168,224.968c-9.612-6.559-17.026-0.618-19.729,2.186c0.817,0.629,1.632,1.229,2.439,1.788
		C374.791,231.482,384.64,232.932,387.168,224.968z"/>
	<path fill="#B64968" d="M378.062,232.932c-2.39,0-6.025-1.863-10.804-5.541l-0.263-0.202l0.231-0.243
		c1.89-1.962,5.861-5.256,11.221-5.256c3.84,0,7.702,1.7,11.478,5.052l0.269,0.24l-0.285,0.218
		c-4.898,3.806-8.617,5.732-11.045,5.732c-0.147,0-0.292-0.005-0.435-0.021C378.349,232.927,378.208,232.932,378.062,232.932z
		 M367.892,227.123c4.796,3.655,8.321,5.408,10.537,5.195c0.183,0.011,0.305,0.016,0.435,0.016c2.246,0,5.745-1.812,10.394-5.386
		c-3.576-3.093-7.211-4.661-10.81-4.661C373.519,222.287,369.798,225.212,367.892,227.123z"/>
	<path fill="#BF954D" d="M378.063,232.932L378.063,232.932c-7.233,0-23.537-17.006-24.23-17.729l-0.269-0.284l20.458-10.96h8.877
		l0.066,0.034l20.391,10.926l-0.269,0.284c-0.704,0.738-17.677,18.411-24.659,17.707
		C378.349,232.927,378.21,232.932,378.063,232.932z M354.54,215.071c2.2,2.264,17.036,17.261,23.522,17.263
		c0.141,0.008,0.249-0.005,0.366-0.016c0.183,0.011,0.308,0.016,0.435,0.016c6.48,0,21.322-14.999,23.52-17.263l-19.634-10.516
		h-8.576L354.54,215.071z"/>
	<path fill="#FFDDA3" d="M344,198.066c0,0-8.416,18.425,13.076,20.811c9.554,0.896,17.016-5.075,21.495-12.837
		c0,0,8.208,13.884,21.275,12.837c21.493-2.386,13.044-20.903,13.044-20.903L344,198.066z"/>
	<path fill="#FFF4E0" d="M344.216,197.511c0,0-8.267,15.098,13.226,17.486c9.553,0.893,16.532-5.375,21.011-13.137
		c0,0,8.26,12.863,21.327,11.818c16.663-2.263,13.111-15.705,13.111-15.705L344.216,197.511z"/>
	<path fill="#BF954D" d="M358.936,219.264c-0.625,0-1.253-0.028-1.886-0.09c-6.578-0.729-11.063-3.09-13.328-7.015
		c-3.696-6.395,0.494-14.647,0.494-14.647c-0.034,0.082-3.523,8.222,0.023,14.354c2.168,3.748,6.497,6.008,12.872,6.715
		c8.366,0.788,16.095-3.841,21.2-12.687l0.256-0.445l0.26,0.439c0.08,0.136,8.278,13.709,20.994,12.692
		c6.366-0.707,10.694-2.967,12.864-6.715c3.545-6.132,0.061-14.272,0.022-14.354c0,0,4.189,8.253,0.497,14.647
		c-2.269,3.925-6.752,6.286-13.326,7.015c-0.476,0.037-0.948,0.055-1.41,0.055c-11.03,0.003-18.42-10.375-19.887-12.615
		C373.743,214.739,366.682,219.264,358.936,219.264z"/>
	<path fill="#BF954D" d="M392.24,242.937l-0.387-0.454c4.033-3.438,11.09-5.717,11.09-5.717
		C402.877,236.795,396.198,239.56,392.24,242.937z"/>
	<path fill="#BF954D" d="M364.682,242.937c-3.96-3.377-10.636-6.142-10.705-6.171c0,0,7.062,2.278,11.091,5.717L364.682,242.937z"/>
	<path fill="#440A01" d="M377.787,169.659c-4.287,0.092-24.766,0.991-23.694,9.813c1.183,9.749,21.064,18.032,24.37,17.912
		c3.302,0.12,23.187-8.164,24.368-17.912c1.074-8.851-19.545-9.727-23.736-9.813C378.873,169.653,378.029,169.653,377.787,169.659z"
		/>
	<path fill="#520E00" d="M385.734,189.621c7.644-2.547,13.108-9.013,11.947-16.79c-6.135-2.723-15.856-3.117-18.588-3.172
		c-0.221-0.006-1.065-0.006-1.307,0c-4.287,0.092-24.766,0.991-23.694,9.813c0.336,2.795,2.216,5.467,4.799,7.859
		C366.995,193.301,376.357,192.476,385.734,189.621z"/>
	<path fill="#1C0300" d="M378.534,197.685L378.534,197.685l-0.081-0.002l-0.066,0.002c-3.36,0-23.384-8.221-24.593-18.175
		c-0.187-1.569,0.26-2.991,1.335-4.229c4.458-5.141,18.466-5.83,22.651-5.919c0.248-0.005,1.097-0.005,1.319-0.002
		c4.193,0.087,18.222,0.768,22.697,5.921c1.074,1.238,1.523,2.66,1.332,4.229C401.92,189.465,381.901,197.685,378.534,197.685z
		 M378.453,197.086l0.081,0.002c3.285,0,22.83-7.979,24.002-17.652c0.168-1.394-0.234-2.66-1.193-3.767
		c-4.421-5.093-19.316-5.651-22.254-5.711c-0.221-0.009-1.054-0.006-1.292,0c-2.939,0.06-17.808,0.631-22.216,5.714
		c-0.958,1.104-1.361,2.37-1.192,3.764c1.171,9.667,20.716,17.652,23.998,17.652L378.453,197.086z"/>
	<path fill="#976E66" d="M388.946,174.258c0.044,1.493-5.735,2.894-12.913,3.123c-7.181,0.231-13.04-0.794-13.089-2.289
		c-0.048-1.496,5.734-2.894,12.912-3.122C383.038,171.737,388.898,172.763,388.946,174.258z"/>
	<ellipse fill="#FFA6BC" cx="376.991" cy="227.974" rx="3.12" ry="1.558"/>
</g>
</svg>
