<svg version="1.1" id="Layer_1" xmlns="http://www.w3.org/2000/svg" xmlns:xlink="http://www.w3.org/1999/xlink" viewBox="0 0 768 430" enable-background="new 0 0 768 430" xml:space="preserve">
<g>
	<g opacity="0.15">
		<path opacity="0" fill="#FFFFFF" d="M369.621,55.136c-18.547,3.059-27.156,44.583-21.797,77.146
			c3.652,22.161,12.84,34.447,24.18,39.071h-0.016c0,0,11.387,4.737,12.186,10.773c0.029,0.234,0.064,0.481,0.096,0.719
			l12.436-2.045c-0.055-0.278-0.111-0.567-0.164-0.837c-1.178-5.971,8.113-13.988,8.113-13.988l-0.021,0.004
			c9.264-8.017,14.023-22.6,10.373-44.766C409.646,88.66,388.174,52.084,369.621,55.136z"/>
		<path opacity="0.0278" fill="#F8F8F8" d="M370.189,55.018c-18.554,2.974-27.347,44.445-22.137,77.02
			c3.551,22.169,12.679,34.492,23.994,39.166l-0.016,0c0,0,11.388,4.783,12.133,10.824c0.029,0.234,0.062,0.481,0.092,0.719
			l12.44-1.988c-0.054-0.278-0.109-0.567-0.161-0.837c-1.15-5.974,8.174-13.946,8.174-13.946l-0.021,0.005
			c9.297-7.973,14.12-22.529,10.571-44.703C410.049,88.71,388.749,52.051,370.189,55.018z"/>
		<path opacity="0.0556" fill="#F1F1F1" d="M370.757,54.899c-18.561,2.889-27.538,44.306-22.477,76.892
			c3.449,22.178,12.519,34.538,23.809,39.261l-0.017,0c0,0,11.354,4.833,12.08,10.875c0.028,0.234,0.06,0.481,0.089,0.719
			l12.445-1.931c-0.053-0.278-0.106-0.567-0.156-0.838c-1.123-5.977,8.233-13.904,8.233-13.904l-0.021,0.004
			c9.329-7.928,14.217-22.457,10.77-44.639C410.45,88.76,389.324,52.018,370.757,54.899z"/>
		<path opacity="0.0833" fill="#EAEAEA" d="M371.325,54.781c-18.568,2.804-27.73,44.167-22.817,76.766
			c3.348,22.186,12.358,34.583,23.624,39.355l-0.016,0c0,0,11.334,4.882,12.027,10.926c0.027,0.234,0.058,0.481,0.086,0.72
			l12.449-1.875c-0.05-0.278-0.104-0.568-0.152-0.838c-1.096-5.98,8.294-13.862,8.294-13.862l-0.021,0.004
			c9.361-7.883,14.313-22.385,10.968-44.576C410.852,88.81,389.898,51.984,371.325,54.781z"/>
		<path opacity="0.1111" fill="#E3E3E3" d="M371.893,54.663c-18.575,2.719-27.921,44.028-23.157,76.639
			c3.246,22.194,12.198,34.628,23.438,39.45l-0.016,0c0,0,11.308,4.933,11.974,10.977c0.026,0.234,0.055,0.482,0.083,0.72
			l12.454-1.818c-0.05-0.278-0.101-0.568-0.148-0.839c-1.068-5.983,8.354-13.82,8.354-13.82l-0.022,0.004
			c9.396-7.838,14.411-22.314,11.167-44.513C411.254,88.86,390.474,51.951,371.893,54.663z"/>
		<path opacity="0.1389" fill="#DCDCDC" d="M372.46,54.545c-18.582,2.634-28.112,43.889-23.497,76.512
			c3.146,22.203,12.039,34.673,23.253,39.545l-0.017,0c0,0,11.281,4.982,11.921,11.027c0.025,0.234,0.053,0.482,0.079,0.721
			l12.459-1.761c-0.049-0.278-0.099-0.568-0.146-0.839c-1.04-5.986,8.414-13.779,8.414-13.779l-0.021,0.004
			c9.428-7.793,14.508-22.242,11.364-44.449C411.655,88.91,391.049,51.917,372.46,54.545z"/>
		<path opacity="0.1667" fill="#D5D5D5" d="M373.028,54.426c-18.588,2.549-28.303,43.75-23.837,76.385
			c3.044,22.21,11.878,34.719,23.068,39.64l-0.017,0c0,0,11.255,5.032,11.868,11.078c0.024,0.234,0.051,0.482,0.076,0.721
			l12.464-1.704c-0.048-0.278-0.096-0.568-0.142-0.839c-1.013-5.989,8.474-13.737,8.474-13.737l-0.021,0.004
			c9.46-7.749,14.604-22.17,11.562-44.385C412.057,88.96,391.623,51.884,373.028,54.426z"/>
		<path opacity="0.1944" fill="#CDCDCD" d="M373.596,54.308c-18.596,2.464-28.495,43.611-24.177,76.258
			c2.942,22.219,11.718,34.764,22.882,39.735l-0.016-0.001c0,0,11.233,5.082,11.814,11.13c0.022,0.234,0.048,0.482,0.073,0.721
			l12.468-1.647c-0.046-0.278-0.094-0.569-0.138-0.84c-0.985-5.992,8.533-13.695,8.533-13.695l-0.021,0.004
			c9.492-7.704,14.701-22.099,11.761-44.322C412.459,89.01,392.198,51.85,373.596,54.308z"/>
		<path opacity="0.2222" fill="#C6C6C6" d="M374.165,54.19c-18.603,2.379-28.686,43.472-24.517,76.131
			c2.841,22.228,11.558,34.81,22.697,39.83l-0.017-0.001c0,0,11.201,5.132,11.762,11.18c0.021,0.234,0.046,0.483,0.069,0.721
			l12.474-1.59c-0.045-0.279-0.091-0.569-0.134-0.84c-0.958-5.996,8.594-13.654,8.594-13.654l-0.021,0.005
			c9.525-7.66,14.799-22.028,11.959-44.259C412.861,89.061,392.773,51.817,374.165,54.19z"/>
		<path opacity="0.25" fill="#BFBFBF" d="M374.732,54.072c-18.61,2.294-28.877,43.333-24.857,76.004
			c2.739,22.236,11.397,34.854,22.512,39.924l-0.017-0.001c0,0,11.181,5.182,11.709,11.232c0.021,0.234,0.044,0.483,0.066,0.721
			l12.478-1.534c-0.044-0.278-0.088-0.569-0.13-0.841c-0.931-5.998,8.654-13.611,8.654-13.611l-0.021,0.005
			c9.559-7.616,14.895-21.956,12.157-44.196C413.263,89.11,393.348,51.784,374.732,54.072z"/>
		<path opacity="0.2778" fill="#B8B8B8" d="M375.3,53.954c-18.617,2.209-29.068,43.194-25.197,75.877
			c2.638,22.245,11.236,34.9,22.326,40.02l-0.017-0.001c0,0,11.16,5.231,11.656,11.283c0.019,0.234,0.041,0.483,0.062,0.722
			l12.482-1.477c-0.043-0.279-0.086-0.569-0.127-0.842c-0.903-6.001,8.715-13.569,8.715-13.569l-0.021,0.004
			c9.591-7.57,14.992-21.884,12.355-44.132C413.664,89.16,393.923,51.75,375.3,53.954z"/>
		<path opacity="0.3056" fill="#B1B1B1" d="M375.868,53.835c-18.624,2.125-29.259,43.056-25.537,75.751
			c2.536,22.252,11.076,34.945,22.141,40.114l-0.018-0.002c0,0,11.127,5.281,11.604,11.333c0.019,0.234,0.039,0.484,0.059,0.722
			l12.487-1.421c-0.041-0.278-0.082-0.569-0.122-0.842c-0.876-6.004,8.774-13.527,8.774-13.527l-0.022,0.005
			c9.624-7.526,15.09-21.813,12.555-44.069C414.066,89.211,394.498,51.717,375.868,53.835z"/>
		<path opacity="0.3333" fill="#AAAAAA" d="M376.437,53.717c-18.631,2.039-29.451,42.917-25.878,75.624
			c2.435,22.261,10.916,34.99,21.956,40.209l-0.018-0.002c0,0,11.101,5.332,11.55,11.385c0.018,0.234,0.037,0.484,0.056,0.722
			l12.491-1.363c-0.039-0.278-0.08-0.57-0.118-0.843c-0.849-6.007,8.835-13.485,8.835-13.485l-0.022,0.005
			c9.657-7.481,15.187-21.742,12.753-44.006C414.469,89.261,395.072,51.683,376.437,53.717z"/>
		<path opacity="0.3611" fill="#A3A3A3" d="M377.004,53.599c-18.638,1.955-29.642,42.778-26.218,75.497
			c2.333,22.269,10.755,35.036,21.77,40.304l-0.018-0.002c0,0,11.081,5.38,11.497,11.436c0.016,0.234,0.035,0.484,0.053,0.722
			l12.496-1.307c-0.038-0.279-0.077-0.57-0.114-0.843c-0.821-6.01,8.895-13.444,8.895-13.444l-0.022,0.004
			c9.689-7.437,15.283-21.67,12.951-43.942C414.87,89.311,395.648,51.649,377.004,53.599z"/>
		<path opacity="0.3889" fill="#9C9C9C" d="M377.572,53.48c-18.645,1.87-29.833,42.639-26.558,75.37
			c2.232,22.277,10.595,35.081,21.585,40.398l-0.018-0.002c0,0,11.047,5.431,11.444,11.486c0.015,0.234,0.033,0.484,0.05,0.723
			l12.501-1.25c-0.037-0.279-0.075-0.57-0.111-0.843c-0.793-6.014,8.954-13.402,8.954-13.402l-0.021,0.005
			c9.722-7.392,15.379-21.599,13.148-43.879C415.271,89.36,396.223,51.616,377.572,53.48z"/>
		<path opacity="0.4167" fill="#959595" d="M378.14,53.362c-18.651,1.784-30.023,42.5-26.897,75.243
			c2.131,22.286,10.436,35.126,21.399,40.494l-0.018-0.002c0,0,11.027,5.48,11.391,11.537c0.014,0.234,0.03,0.485,0.046,0.723
			l12.505-1.192c-0.036-0.279-0.072-0.571-0.106-0.844c-0.767-6.017,9.014-13.36,9.014-13.36l-0.021,0.005
			c9.756-7.348,15.478-21.527,13.348-43.815C415.674,89.411,396.798,51.582,378.14,53.362z"/>
		<path opacity="0.4444" fill="#8E8E8E" d="M378.708,53.244c-18.659,1.7-30.216,42.361-27.238,75.116
			c2.029,22.294,10.275,35.172,21.215,40.588l-0.018-0.002c0,0,11.007,5.529,11.338,11.587c0.013,0.235,0.027,0.485,0.042,0.724
			l12.51-1.136c-0.034-0.279-0.069-0.571-0.104-0.844c-0.738-6.02,9.074-13.318,9.074-13.318l-0.021,0.004
			c9.788-7.302,15.573-21.456,13.546-43.752C416.075,89.461,397.373,51.549,378.708,53.244z"/>
		<path opacity="0.4722" fill="#878787" d="M379.276,53.126c-18.666,1.614-30.407,42.222-27.578,74.989
			c1.928,22.303,10.115,35.217,21.029,40.684l-0.018-0.002c0,0,10.981,5.579,11.285,11.638c0.012,0.235,0.025,0.486,0.039,0.724
			l12.516-1.08c-0.034-0.279-0.067-0.571-0.1-0.845c-0.711-6.022,9.134-13.276,9.134-13.276l-0.021,0.005
			c9.821-7.258,15.671-21.384,13.744-43.689C416.477,89.511,397.947,51.516,379.276,53.126z"/>
		<path opacity="0.5" fill="#808080" d="M379.844,53.008c-18.673,1.529-30.598,42.083-27.918,74.862
			c1.826,22.311,9.954,35.262,20.844,40.778l-0.019-0.002c0,0,10.954,5.628,11.232,11.69c0.011,0.234,0.023,0.485,0.036,0.724
			l12.52-1.022c-0.032-0.28-0.064-0.572-0.096-0.846c-0.684-6.025,9.194-13.234,9.194-13.234l-0.021,0.005
			c9.854-7.213,15.768-21.312,13.942-43.626C416.879,89.561,398.522,51.482,379.844,53.008z"/>
		<path opacity="0.5278" fill="#787878" d="M380.412,52.89c-18.68,1.445-30.789,41.944-28.258,74.735
			c1.725,22.319,9.793,35.308,20.659,40.873l-0.019-0.002c0,0,10.927,5.679,11.179,11.741c0.01,0.234,0.021,0.485,0.033,0.724
			l12.523-0.966c-0.031-0.279-0.062-0.571-0.092-0.845c-0.655-6.029,9.255-13.193,9.255-13.193l-0.021,0.004
			c9.886-7.168,15.864-21.241,14.141-43.562C417.281,89.611,399.098,51.449,380.412,52.89z"/>
		<path opacity="0.5556" fill="#717171" d="M380.979,52.771C362.293,54.131,350,94.576,352.382,127.38
			c1.623,22.327,9.633,35.353,20.473,40.968l-0.019-0.003c0,0,10.907,5.728,11.126,11.792c0.008,0.234,0.019,0.486,0.029,0.725
			l12.529-0.909c-0.029-0.28-0.06-0.572-0.088-0.846c-0.629-6.032,9.314-13.151,9.314-13.151l-0.021,0.005
			c9.919-7.124,15.961-21.17,14.339-43.5C417.683,89.661,399.672,51.415,380.979,52.771z"/>
		<path opacity="0.5833" fill="#6A6A6A" d="M381.548,52.653c-18.694,1.274-31.172,41.666-28.938,74.481
			c1.521,22.336,9.474,35.397,20.288,41.063l-0.019-0.003c0,0,10.88,5.778,11.074,11.842c0.007,0.234,0.017,0.487,0.026,0.725
			l12.534-0.852c-0.029-0.28-0.057-0.572-0.085-0.847c-0.601-6.035,9.375-13.109,9.375-13.109l-0.021,0.005
			c9.952-7.08,16.058-21.098,14.537-43.436C418.084,89.711,400.247,51.382,381.548,52.653z"/>
		<path opacity="0.6111" fill="#636363" d="M382.115,52.535c-18.701,1.189-31.362,41.527-29.278,74.354
			c1.421,22.344,9.313,35.443,20.103,41.158l-0.019-0.003c0,0,10.854,5.828,11.021,11.894c0.006,0.234,0.014,0.487,0.023,0.724
			l12.538-0.795c-0.027-0.28-0.054-0.572-0.08-0.847c-0.574-6.038,9.435-13.067,9.435-13.067l-0.021,0.005
			c9.984-7.035,16.155-21.026,14.735-43.373C418.486,89.762,400.822,51.349,382.115,52.535z"/>
		<path opacity="0.6389" fill="#5C5C5C" d="M382.684,52.417c-18.708,1.104-31.554,41.388-29.618,74.228
			c1.318,22.353,9.152,35.488,19.917,41.253l-0.02-0.003c0,0,10.833,5.876,10.968,11.944c0.005,0.234,0.012,0.487,0.02,0.725
			l12.543-0.738c-0.026-0.28-0.052-0.573-0.077-0.848c-0.547-6.041,9.495-13.025,9.495-13.025l-0.021,0.005
			c10.017-6.99,16.252-20.955,14.934-43.309C418.888,89.812,401.396,51.315,382.684,52.417z"/>
		<path opacity="0.6667" fill="#555555" d="M383.251,52.299c-18.714,1.02-31.744,41.249-29.958,74.101
			c1.218,22.361,8.992,35.534,19.732,41.348l-0.02-0.003c0,0,10.801,5.927,10.915,11.995c0.004,0.234,0.01,0.487,0.017,0.725
			l12.547-0.682c-0.024-0.28-0.049-0.573-0.072-0.848c-0.52-6.044,9.555-12.983,9.555-12.983l-0.021,0.005
			c10.05-6.945,16.349-20.884,15.132-43.246C419.29,89.861,401.972,51.281,383.251,52.299z"/>
		<path opacity="0.6944" fill="#4E4E4E" d="M383.819,52.181c-18.722,0.935-31.937,41.11-30.299,73.974
			c1.116,22.369,8.832,35.579,19.547,41.442l-0.02-0.003c0,0,10.78,5.977,10.861,12.046c0.003,0.234,0.008,0.487,0.013,0.725
			l12.552-0.625c-0.023-0.28-0.047-0.573-0.069-0.849c-0.491-6.047,9.614-12.941,9.614-12.941l-0.021,0.005
			c10.084-6.901,16.446-20.812,15.331-43.183C419.691,89.912,402.547,51.248,383.819,52.181z"/>
		<path opacity="0.7222" fill="#474747" d="M384.387,52.062c-18.729,0.85-32.127,40.972-30.639,73.847
			c1.015,22.377,8.671,35.624,19.361,41.537l-0.02-0.003c0,0,10.76,6.026,10.809,12.097c0.002,0.234,0.005,0.488,0.009,0.726
			l12.557-0.568c-0.021-0.28-0.043-0.573-0.064-0.849c-0.465-6.05,9.674-12.9,9.674-12.9l-0.021,0.005
			c10.116-6.856,16.543-20.741,15.529-43.119C420.094,89.962,403.122,51.214,384.387,52.062z"/>
		<path opacity="0.75" fill="#404040" d="M384.955,51.944c-18.736,0.765-32.318,40.832-30.979,73.72
			c0.913,22.386,8.511,35.669,19.176,41.633l-0.02-0.004c0,0,10.727,6.076,10.756,12.148c0.001,0.234,0.003,0.488,0.006,0.726
			l12.562-0.512c-0.021-0.28-0.041-0.573-0.062-0.849c-0.437-6.053,9.734-12.858,9.734-12.858l-0.021,0.005
			c10.148-6.812,16.641-20.669,15.728-43.056C420.495,90.012,403.697,51.181,384.955,51.944z"/>
		<path opacity="0.7778" fill="#393939" d="M385.523,51.826c-18.743,0.68-32.51,40.694-31.319,73.594
			c0.812,22.394,8.351,35.714,18.99,41.727l-0.02-0.004c0,0,10.7,6.125,10.703,12.199c0,0.234,0,0.488,0.003,0.726l12.566-0.455
			c-0.021-0.281-0.039-0.574-0.059-0.85c-0.408-6.056,9.795-12.816,9.795-12.816l-0.021,0.005
			c10.182-6.767,16.737-20.598,15.926-42.992C420.896,90.062,404.271,51.147,385.523,51.826z"/>
		<path opacity="0.8056" fill="#323232" d="M386.091,51.708c-18.75,0.595-32.7,40.555-31.658,73.466
			c0.71,22.402,8.19,35.76,18.805,41.822l-0.021-0.004c0,0,10.674,6.176,10.65,12.25c-0.001,0.234-0.001,0.488,0,0.726l12.571-0.398
			c-0.019-0.28-0.036-0.574-0.054-0.85c-0.395-6.058,9.854-12.774,9.854-12.774l-0.021,0.005
			c10.214-6.722,16.833-20.526,16.123-42.929C421.299,90.112,404.847,51.114,386.091,51.708z"/>
		<path opacity="0.8333" fill="#2B2B2B" d="M386.659,51.589c-18.757,0.51-32.893,40.416-31.999,73.34
			c0.608,22.411,8.03,35.805,18.62,41.917l-0.02-0.004c0,0,10.653,6.226,10.597,12.301c-0.002,0.234-0.004,0.489-0.003,0.727
			l12.576-0.341c-0.018-0.281-0.034-0.575-0.051-0.851c-0.369-6.061,9.915-12.732,9.915-12.732l-0.021,0.005
			c10.247-6.677,16.931-20.455,16.322-42.866C421.7,90.162,405.422,51.081,386.659,51.589z"/>
		<path opacity="0.8611" fill="#232323" d="M387.227,51.471c-18.764,0.425-33.083,40.277-32.339,73.213
			c0.508,22.418,7.871,35.85,18.435,42.011l-0.021-0.004c0,0,10.627,6.276,10.544,12.352c-0.003,0.234-0.006,0.489-0.007,0.727
			l12.58-0.284c-0.016-0.281-0.03-0.575-0.046-0.852c-0.327-6.065,9.975-12.69,9.975-12.69l-0.021,0.005
			c10.28-6.633,17.027-20.383,16.521-42.803C422.103,90.212,405.996,51.047,387.227,51.471z"/>
		<path opacity="0.8889" fill="#1C1C1C" d="M387.795,51.353c-18.771,0.34-33.274,40.139-32.679,73.086
			c0.405,22.427,7.709,35.896,18.249,42.106l-0.021-0.004c0,0,10.601,6.325,10.491,12.403c-0.004,0.234-0.008,0.489-0.01,0.727
			l12.585-0.227c-0.015-0.281-0.028-0.575-0.043-0.852c-0.299-6.068,10.035-12.648,10.035-12.648l-0.021,0.005
			c10.312-6.588,17.124-20.312,16.719-42.739C422.504,90.262,406.571,51.014,387.795,51.353z"/>
		<path opacity="0.9167" fill="#151515" d="M388.362,51.235c-18.777,0.255-33.465,39.999-33.019,72.959
			c0.305,22.436,7.549,35.941,18.064,42.201l-0.021-0.004c0,0,10.575,6.375,10.438,12.454c-0.005,0.234-0.011,0.49-0.014,0.727
			l12.589-0.17c-0.013-0.281-0.025-0.575-0.038-0.852c-0.272-6.071,10.095-12.607,10.095-12.607l-0.021,0.005
			c10.345-6.543,17.221-20.24,16.917-42.676C422.906,90.312,407.146,50.98,388.362,51.235z"/>
		<path opacity="0.9444" fill="#0E0E0E" d="M388.931,51.116c-18.785,0.17-33.657,39.86-33.359,72.833
			c0.203,22.444,7.389,35.986,17.878,42.296l-0.021-0.004c0,0,10.553,6.425,10.385,12.504c-0.006,0.235-0.013,0.49-0.017,0.728
			l12.594-0.114c-0.013-0.281-0.023-0.576-0.035-0.853c-0.262-6.074,10.155-12.565,10.155-12.565l-0.021,0.005
			c10.378-6.499,17.318-20.168,17.115-42.613C423.308,90.362,407.722,50.947,388.931,51.116z"/>
		<path opacity="0.9722" fill="#070707" d="M389.499,50.999c-18.792,0.085-33.849,39.721-33.7,72.705
			c0.102,22.452,7.229,36.031,17.693,42.391l-0.021-0.005c0,0,10.528,6.475,10.333,12.556c-0.007,0.234-0.015,0.49-0.021,0.728
			l12.599-0.057c-0.011-0.281-0.02-0.576-0.03-0.853c-0.218-6.077,10.215-12.523,10.215-12.523l-0.021,0.005
			c10.41-6.454,17.415-20.097,17.313-42.549C423.71,90.413,408.296,50.914,389.499,50.999z"/>
		<path d="M390.066,50.88c-18.799,0-34.039,39.583-34.039,72.579c0,22.46,7.068,36.077,17.508,42.486l-0.021-0.005
			c0,0,10.469,6.523,10.279,12.606c-0.01,0.234-0.018,0.49-0.023,0.728h12.604c-0.01-0.281-0.018-0.576-0.027-0.854
			c-0.189-6.08,10.275-12.481,10.275-12.481l-0.021,0.005c10.443-6.409,17.512-20.025,17.512-42.486
			C424.111,90.462,408.871,50.88,390.066,50.88z"/>
	</g>
	<g opacity="0.35">
		<path opacity="0" fill="#FFFFFF" d="M427.322,123.458c0-32.996-15.24-72.579-34.045-72.579c-18.797,0-34.039,39.583-34.039,72.579
			c0,22.46,7.064,36.077,17.508,42.486l-0.021-0.005c0,0,10.471,6.523,10.277,12.606c-0.006,0.234-0.016,0.49-0.02,0.728
			c-1.535,49.533-2.982,194.68-2.982,194.68c-0.039,3.706,4.127,6.726,9.277,6.726c5.154,0,9.322-3.02,9.283-6.726
			c0,0-1.443-145-2.977-194.68c-0.01-0.281-0.018-0.576-0.025-0.854c-0.195-6.08,10.275-12.481,10.275-12.481l-0.02,0.005
			C420.254,159.535,427.322,145.919,427.322,123.458z"/>
		<path opacity="0.0278" fill="#F8F8F8" d="M427.233,123.459c0-32.996-15.24-72.579-34.045-72.579
			c-18.797,0-34.039,39.583-34.039,72.579c0,22.46,7.064,36.076,17.508,42.486l-0.021-0.005c0,0,10.45,6.522,10.277,12.607
			c-0.007,0.234-0.014,0.49-0.02,0.728c-1.175,49.542-2.982,194.68-2.982,194.68c-0.04,3.706,4.127,6.726,9.277,6.726
			c5.154,0,9.322-3.02,9.283-6.726c0,0-1.443-145-2.977-194.68c-0.01-0.281-0.017-0.576-0.025-0.854
			c-0.184-6.08,10.275-12.481,10.275-12.481l-0.021,0.005C420.165,159.535,427.233,145.919,427.233,123.459z"/>
		<path opacity="0.0556" fill="#F1F1F1" d="M427.145,123.458c0-32.996-15.24-72.579-34.046-72.579
			c-18.796,0-34.039,39.583-34.039,72.579c0,22.46,7.064,36.077,17.508,42.486l-0.021-0.005c0,0,10.45,6.522,10.277,12.606
			c-0.007,0.234-0.014,0.49-0.02,0.728c-1.175,49.542-2.982,194.68-2.982,194.68c-0.04,3.706,4.126,6.726,9.277,6.726
			c5.154,0,9.323-3.02,9.283-6.726c0,0-1.261-145.006-2.976-194.68c-0.01-0.281-0.018-0.576-0.026-0.854
			c-0.194-6.081,10.275-12.481,10.275-12.481l-0.02,0.005C420.075,159.535,427.145,145.919,427.145,123.458z"/>
		<path opacity="0.0833" fill="#EAEAEA" d="M427.055,123.458c0-32.996-15.24-72.579-34.045-72.579
			c-18.797,0-34.039,39.583-34.039,72.579c0,22.46,7.064,36.077,17.508,42.486l-0.022-0.005c0,0,10.451,6.522,10.278,12.606
			c-0.007,0.234-0.014,0.49-0.02,0.728c-1.174,49.542-2.982,194.68-2.982,194.68c-0.04,3.706,4.127,6.726,9.277,6.726
			c5.154,0,9.322-3.02,9.283-6.726c0,0-1.443-145-2.977-194.68c-0.01-0.281-0.018-0.576-0.025-0.854
			c-0.195-6.081,10.275-12.481,10.275-12.481l-0.02,0.005C419.986,159.535,427.055,145.918,427.055,123.458z"/>
		<path opacity="0.1111" fill="#E3E3E3" d="M426.965,123.458c0-32.996-15.24-72.578-34.045-72.578
			c-18.796,0-34.039,39.583-34.039,72.578c0,22.46,7.065,36.077,17.508,42.486l-0.021-0.004c0,0,10.45,6.522,10.277,12.606
			c-0.007,0.234-0.014,0.49-0.02,0.728c-1.175,49.543-2.982,194.681-2.982,194.681c-0.04,3.706,4.126,6.726,9.277,6.726
			c5.155,0,9.322-3.02,9.283-6.726c0,0-1.443-145-2.977-194.681c-0.009-0.281-0.018-0.576-0.025-0.854
			c-0.194-6.08,10.275-12.48,10.275-12.48l-0.02,0.004C419.896,159.535,426.965,145.918,426.965,123.458z"/>
		<path opacity="0.1389" fill="#DCDCDC" d="M426.877,123.459c0-32.997-15.24-72.579-34.045-72.579
			c-18.798,0-34.04,39.583-34.04,72.579c0,22.46,7.065,36.076,17.508,42.485l-0.021-0.005c0,0,10.47,6.523,10.278,12.607
			c-0.007,0.234-0.015,0.49-0.021,0.728c-1.274,49.54-2.982,194.68-2.982,194.68c-0.039,3.706,4.127,6.726,9.278,6.726
			c5.153,0,9.322-3.02,9.283-6.726c0,0-1.262-145.006-2.977-194.68c-0.01-0.281-0.018-0.576-0.026-0.854
			c-0.194-6.08,10.275-12.481,10.275-12.481l-0.02,0.005C419.808,159.535,426.877,145.919,426.877,123.459z"/>
		<path opacity="0.1667" fill="#D5D5D5" d="M426.787,123.458c0-32.996-15.24-72.578-34.045-72.578
			c-18.797,0-34.039,39.583-34.039,72.578c0,22.461,7.065,36.077,17.508,42.486l-0.021-0.005c0,0,10.45,6.522,10.277,12.606
			c-0.007,0.234-0.014,0.49-0.02,0.728c-1.175,49.542-2.982,194.68-2.982,194.68c-0.039,3.706,4.127,6.726,9.277,6.726
			c5.154,0,9.322-3.02,9.283-6.726c0,0-1.443-145-2.977-194.68c-0.01-0.281-0.018-0.576-0.025-0.854
			c-0.195-6.081,10.275-12.481,10.275-12.481l-0.021,0.005C419.719,159.535,426.787,145.919,426.787,123.458z"/>
		<path opacity="0.1944" fill="#CDCDCD" d="M426.697,123.458c0-32.996-15.24-72.579-34.044-72.579
			c-18.798,0-34.04,39.583-34.04,72.579c0,22.46,7.065,36.077,17.508,42.486l-0.021-0.005c0,0,10.47,6.523,10.278,12.606
			c-0.007,0.234-0.015,0.49-0.021,0.728c-1.174,49.542-2.982,194.68-2.982,194.68c-0.039,3.706,4.126,6.726,9.278,6.726
			c5.153,0,9.321-3.02,9.282-6.726c0,0-1.442-145-2.977-194.68c-0.01-0.281-0.018-0.576-0.025-0.854
			c-0.194-6.081,10.275-12.481,10.275-12.481l-0.02,0.005C419.629,159.535,426.697,145.919,426.697,123.458z"/>
		<path opacity="0.2222" fill="#C6C6C6" d="M426.609,123.459c0-32.997-15.24-72.579-34.045-72.579
			c-18.797,0-34.04,39.583-34.04,72.579c0,22.46,7.065,36.077,17.508,42.486l-0.021-0.005c0,0,10.47,6.523,10.278,12.607
			c-0.007,0.234-0.015,0.49-0.021,0.728c-1.277,49.54-2.982,194.68-2.982,194.68c-0.039,3.706,4.126,6.726,9.278,6.726
			c5.154,0,9.322-3.02,9.283-6.726c0,0-1.443-145-2.977-194.68c-0.01-0.281-0.018-0.576-0.026-0.853
			c-0.194-6.08,10.275-12.481,10.275-12.481l-0.02,0.005C419.541,159.536,426.609,145.919,426.609,123.459z"/>
		<path opacity="0.25" fill="#BFBFBF" d="M426.52,123.458c0-32.996-15.24-72.579-34.045-72.579
			c-18.797,0-34.039,39.583-34.039,72.579c0,22.46,7.065,36.077,17.508,42.486l-0.021-0.005c0,0,10.471,6.523,10.278,12.606
			c-0.007,0.234-0.015,0.49-0.021,0.729c-1.174,49.542-2.982,194.68-2.982,194.68c-0.039,3.706,4.127,6.726,9.277,6.726
			c5.154,0,9.322-3.02,9.283-6.726c0,0-1.443-145-2.977-194.68c-0.01-0.281-0.018-0.576-0.025-0.854
			c-0.194-6.08,10.275-12.481,10.275-12.481l-0.021,0.005C419.451,159.535,426.52,145.919,426.52,123.458z"/>
		<path opacity="0.2778" fill="#B8B8B8" d="M426.43,123.458c0-32.996-15.24-72.579-34.045-72.579
			c-18.797,0-34.038,39.583-34.038,72.579c0,22.46,7.065,36.077,17.508,42.486l-0.021-0.005c0,0,10.47,6.523,10.277,12.606
			c-0.007,0.234-0.015,0.49-0.021,0.728c-1.275,49.54-2.981,194.68-2.981,194.68c-0.04,3.706,4.126,6.726,9.276,6.726
			c5.155,0,9.323-3.02,9.284-6.726c0,0-1.444-145-2.978-194.68c-0.009-0.281-0.018-0.576-0.025-0.853
			c-0.193-6.081,10.275-12.481,10.275-12.481l-0.02,0.005C419.361,159.535,426.43,145.919,426.43,123.458z"/>
		<path opacity="0.3056" fill="#B1B1B1" d="M426.342,123.458c0-32.995-15.24-72.578-34.046-72.578
			c-18.797,0-34.039,39.583-34.039,72.578c0,22.461,7.066,36.077,17.508,42.486l-0.021-0.005c0,0,10.469,6.523,10.278,12.606
			c-0.007,0.234-0.016,0.49-0.021,0.728c-1.276,49.54-2.981,194.681-2.981,194.681c-0.04,3.706,4.125,6.726,9.277,6.726
			c5.155,0,9.323-3.02,9.283-6.726c0,0-1.443-145-2.976-194.681c-0.01-0.281-0.018-0.575-0.026-0.854
			c-0.193-6.08,10.274-12.48,10.274-12.48l-0.02,0.005C419.273,159.535,426.342,145.919,426.342,123.458z"/>
		<path opacity="0.3333" fill="#AAAAAA" d="M426.252,123.458c0-32.997-15.24-72.579-34.045-72.579
			c-18.798,0-34.039,39.582-34.039,72.579c0,22.46,7.065,36.077,17.508,42.486l-0.021-0.005c0,0,10.47,6.523,10.277,12.606
			c-0.007,0.234-0.014,0.49-0.02,0.729c-1.173,49.542-2.982,194.68-2.982,194.68c-0.039,3.706,4.126,6.726,9.277,6.726
			c5.154,0,9.322-3.02,9.283-6.726c0,0-1.443-145-2.977-194.68c-0.01-0.281-0.018-0.576-0.026-0.854
			c-0.192-6.08,10.276-12.48,10.276-12.48l-0.021,0.005C419.184,159.535,426.252,145.919,426.252,123.458z"/>
		<path opacity="0.3611" fill="#A3A3A3" d="M426.162,123.459c0-32.997-15.24-72.579-34.045-72.579
			c-18.797,0-34.039,39.583-34.039,72.579c0,22.46,7.066,36.076,17.508,42.485l-0.021-0.005c0,0,10.47,6.522,10.278,12.606
			c-0.007,0.234-0.015,0.49-0.021,0.728c-1.276,49.541-2.981,194.68-2.981,194.68c-0.04,3.706,4.126,6.726,9.276,6.726
			c5.155,0,9.322-3.02,9.284-6.726c0,0-1.444-145-2.978-194.68c-0.009-0.281-0.018-0.576-0.025-0.854
			c-0.193-6.08,10.275-12.481,10.275-12.481l-0.021,0.005C419.095,159.535,426.162,145.919,426.162,123.459z"/>
		<path opacity="0.3889" fill="#9C9C9C" d="M426.074,123.458c0-32.996-15.24-72.579-34.045-72.579
			c-18.798,0-34.04,39.583-34.04,72.579c0,22.46,7.066,36.077,17.508,42.486l-0.021-0.005c0,0,10.47,6.522,10.278,12.606
			c-0.008,0.234-0.016,0.49-0.021,0.728c-1.276,49.54-2.981,194.681-2.981,194.681c-0.039,3.706,4.127,6.726,9.278,6.726
			c5.153,0,9.322-3.02,9.282-6.726c0,0-1.261-145.006-2.976-194.681c-0.01-0.281-0.018-0.575-0.027-0.853
			c-0.192-6.081,10.275-12.481,10.275-12.481l-0.02,0.005C419.005,159.535,426.074,145.919,426.074,123.458z"/>
		<path opacity="0.4167" fill="#959595" d="M425.984,123.459c0-32.997-15.24-72.579-34.045-72.579
			c-18.798,0-34.039,39.582-34.039,72.579c0,22.46,7.066,36.076,17.508,42.485l-0.021-0.005c0,0,10.47,6.523,10.278,12.606
			c-0.008,0.234-0.016,0.49-0.021,0.729c-1.274,49.54-2.981,194.68-2.981,194.68c-0.039,3.706,4.126,6.726,9.277,6.726
			c5.154,0,9.322-3.02,9.283-6.726c0,0-1.443-145-2.977-194.68c-0.01-0.281-0.018-0.576-0.026-0.854
			c-0.192-6.08,10.275-12.481,10.275-12.481l-0.021,0.005C418.916,159.535,425.984,145.919,425.984,123.459z"/>
		<path opacity="0.4444" fill="#8E8E8E" d="M425.895,123.458c0-32.996-15.24-72.578-34.044-72.578
			c-18.798,0-34.039,39.583-34.039,72.578c0,22.461,7.066,36.077,17.508,42.486l-0.022-0.005c0,0,10.47,6.523,10.279,12.606
			c-0.008,0.234-0.016,0.49-0.021,0.728c-1.275,49.54-2.982,194.68-2.982,194.68c-0.039,3.706,4.126,6.726,9.278,6.726
			c5.153,0,9.321-3.02,9.283-6.726c0,0-1.443-145-2.978-194.68c-0.01-0.281-0.018-0.576-0.025-0.854
			c-0.193-6.08,10.275-12.481,10.275-12.481l-0.021,0.005C418.826,159.535,425.895,145.919,425.895,123.458z"/>
		<path opacity="0.4722" fill="#878787" d="M425.807,123.458c0-32.996-15.24-72.579-34.045-72.579
			c-18.798,0-34.04,39.583-34.04,72.579c0,22.46,7.066,36.077,17.508,42.486l-0.021-0.005c0,0,10.47,6.523,10.278,12.606
			c-0.008,0.234-0.016,0.49-0.021,0.728c-1.275,49.54-2.981,194.68-2.981,194.68c-0.039,3.706,4.126,6.726,9.278,6.726
			c5.153,0,9.321-3.02,9.282-6.726c0,0-1.261-145.006-2.976-194.68c-0.01-0.281-0.018-0.576-0.027-0.853
			c-0.192-6.08,10.275-12.481,10.275-12.481l-0.02,0.005C418.738,159.535,425.807,145.919,425.807,123.458z"/>
		<path opacity="0.5" fill="#808080" d="M425.717,123.458c0-32.996-15.24-72.579-34.045-72.579
			c-18.798,0-34.039,39.583-34.039,72.579c0,22.46,7.066,36.077,17.508,42.486l-0.021-0.005c0,0,10.47,6.523,10.278,12.606
			c-0.008,0.234-0.016,0.49-0.021,0.728c-1.275,49.54-2.981,194.68-2.981,194.68c-0.039,3.706,4.126,6.726,9.277,6.726
			c5.154,0,9.322-3.02,9.283-6.726c0,0-1.443-145-2.977-194.68c-0.01-0.281-0.018-0.576-0.026-0.854
			c-0.192-6.08,10.275-12.481,10.275-12.481l-0.021,0.005C418.648,159.535,425.717,145.919,425.717,123.458z"/>
		<path opacity="0.5278" fill="#787878" d="M425.628,123.458c0-32.996-15.24-72.579-34.046-72.579
			c-18.797,0-34.038,39.583-34.038,72.579c0,22.46,7.066,36.077,17.508,42.486l-0.021-0.005c0,0,10.47,6.523,10.278,12.606
			c-0.008,0.234-0.016,0.49-0.021,0.728c-1.174,49.542-2.982,194.68-2.982,194.68c-0.039,3.706,4.126,6.726,9.277,6.726
			c5.154,0,9.323-3.02,9.283-6.726c0,0-1.261-145.006-2.976-194.68c-0.01-0.281-0.018-0.576-0.026-0.853
			c-0.192-6.081,10.275-12.481,10.275-12.481l-0.021,0.005C418.56,159.535,425.628,145.919,425.628,123.458z"/>
		<path opacity="0.5556" fill="#717171" d="M425.538,123.458c0-32.996-15.24-72.578-34.045-72.578
			c-18.797,0-34.039,39.583-34.039,72.578c0,22.461,7.067,36.077,17.508,42.486l-0.022-0.005c0,0,10.47,6.523,10.278,12.606
			c-0.008,0.234-0.015,0.49-0.021,0.728c-1.377,49.538-2.981,194.68-2.981,194.68c-0.04,3.706,4.125,6.726,9.277,6.726
			c5.155,0,9.322-3.02,9.284-6.726c0,0-1.444-145-2.978-194.68c-0.009-0.281-0.018-0.576-0.026-0.854
			c-0.191-6.08,10.275-12.481,10.275-12.481l-0.021,0.005C418.471,159.535,425.538,145.919,425.538,123.458z"/>
		<path opacity="0.5833" fill="#6A6A6A" d="M425.449,123.458c0-32.997-15.24-72.579-34.045-72.579
			c-18.798,0-34.039,39.582-34.039,72.579c0,22.46,7.067,36.077,17.508,42.486l-0.021-0.005c0,0,10.47,6.523,10.278,12.606
			c-0.008,0.234-0.016,0.49-0.021,0.729c-1.274,49.54-2.981,194.68-2.981,194.68c-0.039,3.706,4.126,6.726,9.277,6.726
			c5.154,0,9.322-3.02,9.283-6.726c0,0-1.443-145-2.977-194.68c-0.01-0.281-0.018-0.576-0.026-0.854
			c-0.192-6.081,10.275-12.481,10.275-12.481l-0.021,0.005C418.381,159.535,425.449,145.919,425.449,123.458z"/>
		<path opacity="0.6111" fill="#636363" d="M425.36,123.458c0-32.996-15.24-72.579-34.045-72.579
			c-18.798,0-34.04,39.583-34.04,72.579c0,22.46,7.067,36.077,17.508,42.486l-0.021-0.005c0,0,10.469,6.522,10.279,12.606
			c-0.008,0.234-0.016,0.49-0.021,0.728c-1.174,49.543-2.981,194.681-2.981,194.681c-0.039,3.706,4.125,6.726,9.277,6.726
			c5.154,0,9.321-3.02,9.282-6.726c0,0-1.442-145-2.976-194.681c-0.01-0.281-0.018-0.575-0.026-0.853
			c-0.192-6.08,10.275-12.481,10.275-12.481l-0.021,0.005C418.292,159.535,425.36,145.919,425.36,123.458z"/>
		<path opacity="0.6389" fill="#5C5C5C" d="M425.271,123.459c0-32.997-15.24-72.579-34.045-72.579
			c-18.798,0-34.039,39.583-34.039,72.579c0,22.46,7.067,36.076,17.508,42.485l-0.021-0.005c0,0,10.488,6.523,10.279,12.606
			c-0.008,0.234-0.016,0.49-0.022,0.728c-1.326,49.539-2.981,194.68-2.981,194.68c-0.039,3.706,4.126,6.726,9.277,6.726
			c5.154,0,9.323-3.02,9.284-6.726c0,0-1.444-145-2.978-194.68c-0.01-0.281-0.018-0.576-0.026-0.854
			c-0.191-6.08,10.275-12.481,10.275-12.481l-0.021,0.005C418.202,159.535,425.271,145.919,425.271,123.459z"/>
		<path opacity="0.6667" fill="#555555" d="M425.182,123.458c0-32.997-15.24-72.579-34.045-72.579
			c-18.798,0-34.039,39.582-34.039,72.579c0,22.46,7.067,36.077,17.508,42.486l-0.021-0.005c0,0,10.47,6.523,10.278,12.606
			c-0.008,0.234-0.015,0.49-0.021,0.729c-1.274,49.54-2.981,194.68-2.981,194.68c-0.039,3.706,4.126,6.726,9.277,6.726
			c5.154,0,9.322-3.02,9.283-6.726c0,0-1.443-145-2.977-194.68c-0.01-0.281-0.018-0.576-0.026-0.854
			c-0.191-6.08,10.275-12.48,10.275-12.48l-0.021,0.005C418.113,159.535,425.182,145.919,425.182,123.458z"/>
		<path opacity="0.6944" fill="#4E4E4E" d="M425.093,123.458c0-32.995-15.24-72.578-34.045-72.578
			c-18.799,0-34.04,39.583-34.04,72.578c0,22.461,7.067,36.077,17.508,42.486l-0.021-0.005c0,0,10.488,6.523,10.278,12.606
			c-0.008,0.234-0.016,0.49-0.022,0.728c-1.327,49.539-2.981,194.681-2.981,194.681c-0.039,3.706,4.126,6.726,9.278,6.726
			c5.153,0,9.322-3.02,9.282-6.726c0,0-1.261-145.006-2.976-194.681c-0.01-0.281-0.018-0.575-0.027-0.854
			c-0.19-6.08,10.275-12.48,10.275-12.48l-0.021,0.005C418.023,159.535,425.093,145.919,425.093,123.458z"/>
		<path opacity="0.7222" fill="#474747" d="M425.003,123.458c0-32.996-15.24-72.579-34.044-72.579
			c-18.799,0-34.04,39.583-34.04,72.579c0,22.46,7.067,36.077,17.508,42.486l-0.021-0.005c0,0,10.489,6.523,10.279,12.606
			c-0.008,0.234-0.016,0.49-0.022,0.728c-1.326,49.539-2.981,194.68-2.981,194.68c-0.039,3.706,4.125,6.726,9.278,6.726
			c5.154,0,9.321-3.02,9.283-6.726c0,0-1.443-145-2.978-194.68c-0.009-0.281-0.018-0.576-0.026-0.853
			c-0.191-6.08,10.275-12.481,10.275-12.481l-0.021,0.005C417.935,159.535,425.003,145.919,425.003,123.458z"/>
		<path opacity="0.75" fill="#404040" d="M424.914,123.458c0-32.996-15.24-72.579-34.045-72.579
			c-18.798,0-34.039,39.583-34.039,72.579c0,22.46,7.067,36.077,17.508,42.486l-0.021-0.005c0,0,10.488,6.523,10.279,12.606
			c-0.008,0.234-0.016,0.49-0.022,0.728c-1.326,49.539-2.981,194.68-2.981,194.68c-0.039,3.706,4.125,6.726,9.277,6.726
			c5.154,0,9.322-3.02,9.283-6.726c0,0-1.443-145-2.977-194.68c-0.01-0.281-0.018-0.576-0.027-0.854
			c-0.19-6.08,10.275-12.481,10.275-12.481l-0.021,0.005C417.846,159.535,424.914,145.919,424.914,123.458z"/>
		<path opacity="0.7778" fill="#393939" d="M424.825,123.458c0-32.996-15.24-72.579-34.046-72.579
			c-18.798,0-34.038,39.583-34.038,72.579c0,22.46,7.067,36.077,17.508,42.486l-0.021-0.005c0,0,10.488,6.523,10.278,12.606
			c-0.008,0.234-0.016,0.49-0.022,0.728c-1.327,49.539-2.981,194.681-2.981,194.681c-0.039,3.706,4.125,6.726,9.277,6.726
			c5.154,0,9.323-3.02,9.283-6.726c0,0-1.261-145.006-2.976-194.681c-0.01-0.281-0.018-0.575-0.027-0.853
			c-0.19-6.08,10.275-12.481,10.275-12.481l-0.021,0.005C417.757,159.535,424.825,145.919,424.825,123.458z"/>
		<path opacity="0.8056" fill="#323232" d="M424.735,123.458c0-32.996-15.24-72.579-34.045-72.579
			c-18.798,0-34.039,39.583-34.039,72.579c0,22.46,7.067,36.077,17.508,42.486l-0.022-0.005c0,0,10.488,6.523,10.279,12.606
			c-0.008,0.234-0.016,0.49-0.022,0.728c-1.326,49.539-2.981,194.68-2.981,194.68c-0.04,3.706,4.125,6.726,9.277,6.726
			c5.154,0,9.322-3.02,9.284-6.726c0,0-1.444-145-2.978-194.68c-0.01-0.281-0.018-0.576-0.026-0.854
			c-0.191-6.08,10.275-12.481,10.275-12.481l-0.021,0.005C417.668,159.535,424.735,145.919,424.735,123.458z"/>
		<path opacity="0.8333" fill="#2B2B2B" d="M424.646,123.459c0-32.997-15.24-72.579-34.045-72.579
			c-18.799,0-34.039,39.583-34.039,72.579c0,22.46,7.068,36.076,17.508,42.485l-0.021-0.005c0,0,10.494,6.524,10.279,12.606
			c-0.008,0.234-0.016,0.49-0.022,0.728c-1.325,49.539-2.981,194.68-2.981,194.68c-0.039,3.706,4.125,6.726,9.277,6.726
			c5.154,0,9.322-3.02,9.283-6.726c0,0-1.443-145-2.977-194.68c-0.01-0.281-0.018-0.576-0.027-0.854
			c-0.19-6.08,10.275-12.481,10.275-12.481l-0.021,0.005C417.578,159.535,424.646,145.919,424.646,123.459z"/>
		<path opacity="0.8611" fill="#232323" d="M424.558,123.458c0-32.997-15.24-72.579-34.045-72.579
			c-18.799,0-34.04,39.582-34.04,72.579c0,22.46,7.068,36.077,17.508,42.486l-0.021-0.005c0,0,10.488,6.523,10.279,12.606
			c-0.008,0.234-0.016,0.49-0.022,0.729c-1.324,49.538-2.98,194.68-2.98,194.68c-0.039,3.706,4.125,6.726,9.277,6.726
			c5.154,0,9.321-3.02,9.282-6.726c0,0-1.442-145-2.976-194.68c-0.01-0.281-0.018-0.576-0.027-0.854
			c-0.19-6.08,10.275-12.481,10.275-12.481l-0.021,0.005C417.489,159.535,424.558,145.919,424.558,123.458z"/>
		<path opacity="0.8889" fill="#1C1C1C" d="M424.468,123.458c0-32.996-15.24-72.579-34.045-72.579
			c-18.798,0-34.039,39.583-34.039,72.579c0,22.46,7.067,36.077,17.508,42.486l-0.021-0.005c0,0,10.495,6.524,10.279,12.606
			c-0.008,0.234-0.016,0.49-0.023,0.728c-1.376,49.538-2.981,194.68-2.981,194.68c-0.039,3.706,4.126,6.726,9.277,6.726
			c5.154,0,9.322-3.02,9.284-6.726c0,0-1.444-145-2.978-194.68c-0.01-0.281-0.018-0.576-0.027-0.854
			c-0.189-6.08,10.276-12.48,10.276-12.48l-0.021,0.005C417.399,159.535,424.468,145.919,424.468,123.458z"/>
		<path opacity="0.9167" fill="#151515" d="M424.379,123.458c0-32.996-15.24-72.579-34.045-72.579
			c-18.798,0-34.039,39.583-34.039,72.579c0,22.46,7.068,36.077,17.508,42.486l-0.021-0.005c0,0,10.495,6.524,10.279,12.606
			c-0.008,0.234-0.017,0.49-0.023,0.728c-1.376,49.538-2.98,194.68-2.98,194.68c-0.039,3.706,4.125,6.726,9.277,6.726
			c5.154,0,9.322-3.02,9.283-6.726c0,0-1.443-145-2.977-194.68c-0.01-0.281-0.018-0.576-0.027-0.854
			c-0.189-6.08,10.275-12.481,10.275-12.481l-0.021,0.005C417.311,159.535,424.379,145.919,424.379,123.458z"/>
		<path opacity="0.9444" fill="#0E0E0E" d="M424.29,123.458c0-32.996-15.24-72.579-34.045-72.579
			c-18.799,0-34.04,39.583-34.04,72.579c0,22.46,7.068,36.077,17.508,42.486l-0.021-0.005c0,0,10.501,6.524,10.279,12.606
			c-0.008,0.234-0.017,0.49-0.023,0.728c-1.325,49.539-2.981,194.68-2.981,194.68c-0.039,3.706,4.125,6.726,9.278,6.726
			c5.154,0,9.322-3.02,9.282-6.726c0,0-1.442-145-2.976-194.68c-0.01-0.281-0.018-0.576-0.027-0.854
			c-0.189-6.08,10.275-12.481,10.275-12.481l-0.021,0.005C417.222,159.535,424.29,145.919,424.29,123.458z"/>
		<path opacity="0.9722" fill="#070707" d="M424.2,123.458c0-32.996-15.24-72.579-34.045-72.579
			c-18.798,0-34.039,39.583-34.039,72.579c0,22.46,7.068,36.077,17.508,42.486l-0.021-0.005c0,0,10.501,6.524,10.28,12.606
			c-0.008,0.234-0.017,0.49-0.023,0.728c-1.376,49.538-2.98,194.68-2.98,194.68c-0.039,3.706,4.125,6.726,9.277,6.726
			c5.155,0,9.322-3.02,9.284-6.726c0,0-1.444-145-2.978-194.68c-0.009-0.281-0.018-0.576-0.026-0.854
			c-0.19-6.08,10.274-12.481,10.274-12.481l-0.021,0.005C417.132,159.535,424.2,145.919,424.2,123.458z"/>
		<path d="M424.111,123.458c0-32.996-15.24-72.579-34.045-72.579c-18.799,0-34.039,39.583-34.039,72.579
			c0,22.46,7.068,36.077,17.508,42.486l-0.021-0.005c0,0,10.469,6.523,10.279,12.606c-0.01,0.234-0.018,0.49-0.023,0.728
			c-1.531,49.533-2.98,194.68-2.98,194.68c-0.039,3.706,4.125,6.726,9.277,6.726c5.154,0,9.322-3.02,9.283-6.726
			c0,0-1.443-145-2.977-194.68c-0.01-0.281-0.018-0.576-0.027-0.854c-0.189-6.08,10.275-12.481,10.275-12.481l-0.021,0.005
			C417.043,159.535,424.111,145.919,424.111,123.458z"/>
	</g>
	<g opacity="0.35">
		<path opacity="0" fill="#FFFFFF" d="M419.41,123.458c0-32.996-15.246-72.579-34.045-72.579c-18.803,0-34.045,39.583-34.045,72.579
			c0,22.46,7.068,36.077,17.512,42.486l-0.02-0.005c0,0,10.469,6.523,10.273,12.606c-0.004,0.234-0.014,0.49-0.021,0.728
			c-1.535,49.533-2.982,194.68-2.982,194.68c-0.037,3.706,4.131,6.726,9.283,6.726c5.154,0,9.322-3.02,9.277-6.726
			c0,0-1.441-145-2.977-194.68c-0.01-0.281-0.016-0.576-0.025-0.854c-0.189-6.08,10.279-12.481,10.279-12.481l-0.023,0.005
			C412.342,159.535,419.41,145.919,419.41,123.458z"/>
		<path opacity="0.0278" fill="#F8F8F8" d="M419.541,123.459c0-32.996-15.246-72.579-34.045-72.579
			c-18.803,0-34.045,39.583-34.045,72.579c0,22.46,7.068,36.076,17.512,42.486l-0.02-0.005c0,0,10.422,6.521,10.273,12.607
			c-0.006,0.234-0.014,0.49-0.021,0.728c-1.535,49.533-2.982,194.68-2.982,194.68c-0.038,3.706,4.13,6.726,9.283,6.726
			c5.154,0,9.322-3.02,9.277-6.726c0,0-1.441-145-2.977-194.68c-0.01-0.281-0.016-0.576-0.025-0.854
			c-0.189-6.08,10.279-12.481,10.279-12.481l-0.023,0.005C412.473,159.535,419.541,145.919,419.541,123.459z"/>
		<path opacity="0.0556" fill="#F1F1F1" d="M419.672,123.458c0-32.996-15.246-72.579-34.046-72.579
			c-18.802,0-34.044,39.583-34.044,72.579c0,22.46,7.068,36.077,17.512,42.486l-0.02-0.005c0,0,10.428,6.522,10.274,12.606
			c-0.006,0.234-0.014,0.49-0.022,0.728c-1.535,49.533-2.982,194.68-2.982,194.68c-0.038,3.706,4.13,6.726,9.282,6.726
			c5.154,0,9.323-3.02,9.278-6.726c0,0-1.441-145-2.977-194.68c-0.01-0.281-0.017-0.576-0.026-0.854
			c-0.212-6.08,10.28-12.481,10.28-12.481l-0.023,0.005C412.603,159.535,419.672,145.919,419.672,123.458z"/>
		<path opacity="0.0833" fill="#EAEAEA" d="M419.802,123.458c0-32.996-15.246-72.579-34.045-72.579
			c-18.802,0-34.044,39.583-34.044,72.579c0,22.46,7.068,36.077,17.511,42.486l-0.02-0.005c0,0,10.428,6.521,10.274,12.606
			c-0.006,0.234-0.014,0.49-0.021,0.728c-1.535,49.533-2.982,194.68-2.982,194.68c-0.038,3.706,4.13,6.726,9.283,6.726
			c5.154,0,9.322-3.02,9.277-6.726c0,0-1.441-145-2.977-194.68c-0.009-0.281-0.016-0.576-0.024-0.854
			c-0.19-6.081,10.278-12.481,10.278-12.481l-0.023,0.005C412.733,159.535,419.802,145.918,419.802,123.458z"/>
		<path opacity="0.1111" fill="#E3E3E3" d="M419.933,123.458c0-32.996-15.246-72.578-34.045-72.578
			c-18.802,0-34.044,39.583-34.044,72.578c0,22.46,7.068,36.077,17.511,42.486l-0.02-0.004c0,0,10.428,6.521,10.274,12.606
			c-0.006,0.234-0.014,0.49-0.022,0.728c-1.535,49.533-2.982,194.681-2.982,194.681c-0.037,3.706,4.13,6.726,9.283,6.726
			c5.154,0,9.322-3.02,9.277-6.726c0,0-1.441-145-2.977-194.681c-0.01-0.281-0.016-0.576-0.025-0.854
			c-0.189-6.08,10.279-12.48,10.279-12.48l-0.023,0.004C412.863,159.535,419.933,145.918,419.933,123.458z"/>
		<path opacity="0.1389" fill="#DCDCDC" d="M420.063,123.459c0-32.997-15.245-72.579-34.045-72.579
			c-18.803,0-34.044,39.583-34.044,72.579c0,22.46,7.068,36.076,17.511,42.485l-0.02-0.005c0,0,10.436,6.522,10.274,12.607
			c-0.006,0.234-0.014,0.49-0.022,0.728c-1.534,49.532-2.981,194.68-2.981,194.68c-0.038,3.706,4.13,6.726,9.282,6.726
			c5.154,0,9.321-3.02,9.278-6.726c0,0-1.442-145-2.977-194.68c-0.01-0.281-0.017-0.576-0.026-0.854
			c-0.189-6.08,10.279-12.481,10.279-12.481l-0.023,0.005C412.995,159.535,420.063,145.919,420.063,123.459z"/>
		<path opacity="0.1667" fill="#D5D5D5" d="M420.193,123.458c0-32.996-15.244-72.578-34.045-72.578
			c-18.802,0-34.043,39.583-34.043,72.578c0,22.461,7.068,36.077,17.511,42.486l-0.021-0.005c0,0,10.436,6.522,10.275,12.606
			c-0.006,0.234-0.015,0.49-0.022,0.728c-1.535,49.533-2.982,194.68-2.982,194.68c-0.038,3.706,4.13,6.726,9.282,6.726
			c5.154,0,9.322-3.02,9.279-6.726c0,0-1.261-145.006-2.977-194.68c-0.01-0.281-0.017-0.576-0.026-0.854
			c-0.189-6.081,10.278-12.481,10.278-12.481l-0.022,0.005C413.125,159.535,420.193,145.919,420.193,123.458z"/>
		<path opacity="0.1944" fill="#CDCDCD" d="M420.324,123.458c0-32.996-15.245-72.579-34.045-72.579
			c-18.802,0-34.044,39.583-34.044,72.579c0,22.46,7.068,36.077,17.511,42.486l-0.02-0.005c0,0,10.435,6.522,10.274,12.606
			c-0.006,0.234-0.014,0.49-0.021,0.728c-1.535,49.533-2.982,194.68-2.982,194.68c-0.038,3.706,4.13,6.726,9.282,6.726
			c5.154,0,9.322-3.02,9.278-6.726c0,0-1.441-145-2.977-194.68c-0.01-0.281-0.016-0.576-0.025-0.854
			c-0.189-6.081,10.278-12.481,10.278-12.481l-0.023,0.005C413.256,159.535,420.324,145.919,420.324,123.458z"/>
		<path opacity="0.2222" fill="#C6C6C6" d="M420.455,123.459c0-32.997-15.245-72.579-34.045-72.579
			c-18.802,0-34.043,39.583-34.043,72.579c0,22.46,7.068,36.077,17.511,42.486l-0.02-0.005c0,0,10.442,6.522,10.275,12.607
			c-0.006,0.234-0.015,0.49-0.022,0.728c-1.534,49.533-2.982,194.68-2.982,194.68c-0.038,3.706,4.129,6.726,9.282,6.726
			c5.154,0,9.322-3.02,9.279-6.726c0,0-1.442-145-2.978-194.68c-0.009-0.281-0.017-0.576-0.025-0.853
			c-0.202-6.08,10.278-12.481,10.278-12.481l-0.023,0.005C413.387,159.536,420.455,145.919,420.455,123.459z"/>
		<path opacity="0.25" fill="#BFBFBF" d="M420.586,123.458c0-32.996-15.245-72.579-34.045-72.579
			c-18.802,0-34.044,39.583-34.044,72.579c0,22.46,7.068,36.077,17.511,42.486l-0.02-0.005c0,0,10.441,6.522,10.275,12.606
			c-0.006,0.234-0.015,0.49-0.022,0.729c-1.534,49.532-2.982,194.68-2.982,194.68c-0.038,3.706,4.129,6.726,9.282,6.726
			c5.154,0,9.322-3.02,9.278-6.726c0,0-1.442-145-2.977-194.68c-0.01-0.281-0.018-0.576-0.026-0.854
			c-0.202-6.08,10.279-12.481,10.279-12.481l-0.023,0.005C413.518,159.535,420.586,145.919,420.586,123.458z"/>
		<path opacity="0.2778" fill="#B8B8B8" d="M420.716,123.458c0-32.996-15.244-72.579-34.045-72.579
			c-18.801,0-34.043,39.583-34.043,72.579c0,22.46,7.068,36.077,17.511,42.486l-0.021-0.005c0,0,10.442,6.522,10.275,12.606
			c-0.006,0.234-0.015,0.49-0.022,0.728c-1.534,49.533-2.982,194.68-2.982,194.68c-0.038,3.706,4.129,6.726,9.281,6.726
			c5.154,0,9.322-3.02,9.279-6.726c0,0-1.442-145-2.977-194.68c-0.01-0.281-0.018-0.576-0.026-0.853
			c-0.202-6.081,10.278-12.481,10.278-12.481l-0.022,0.005C413.648,159.535,420.716,145.919,420.716,123.458z"/>
		<path opacity="0.3056" fill="#B1B1B1" d="M420.847,123.458c0-32.995-15.244-72.578-34.045-72.578
			c-18.802,0-34.043,39.583-34.043,72.578c0,22.461,7.068,36.077,17.511,42.486l-0.021-0.005c0,0,10.448,6.522,10.275,12.606
			c-0.007,0.234-0.016,0.49-0.022,0.728c-1.534,49.533-2.981,194.681-2.981,194.681c-0.038,3.706,4.129,6.726,9.281,6.726
			c5.154,0,9.322-3.02,9.279-6.726c0,0-1.442-145-2.977-194.681c-0.01-0.281-0.017-0.575-0.026-0.854
			c-0.189-6.08,10.278-12.48,10.278-12.48l-0.022,0.005C413.778,159.535,420.847,145.919,420.847,123.458z"/>
		<path opacity="0.3333" fill="#AAAAAA" d="M420.977,123.458c0-32.997-15.244-72.579-34.044-72.579
			c-18.802,0-34.043,39.582-34.043,72.579c0,22.46,7.068,36.077,17.51,42.486l-0.02-0.005c0,0,10.441,6.522,10.275,12.606
			c-0.006,0.234-0.015,0.49-0.022,0.729c-1.534,49.532-2.981,194.68-2.981,194.68c-0.038,3.706,4.129,6.726,9.281,6.726
			c5.154,0,9.322-3.02,9.278-6.726c0,0-1.441-145-2.977-194.68c-0.009-0.281-0.016-0.576-0.025-0.854
			c-0.189-6.08,10.277-12.48,10.277-12.48l-0.022,0.005C413.909,159.535,420.977,145.919,420.977,123.458z"/>
		<path opacity="0.3611" fill="#A3A3A3" d="M421.107,123.459c0-32.997-15.244-72.579-34.045-72.579s-34.042,39.583-34.042,72.579
			c0,22.46,7.069,36.076,17.51,42.485l-0.02-0.005c0,0,10.455,6.522,10.276,12.606c-0.007,0.234-0.016,0.49-0.022,0.728
			c-1.534,49.533-2.982,194.68-2.982,194.68c-0.038,3.706,4.128,6.726,9.281,6.726c5.154,0,9.322-3.02,9.28-6.726
			c0,0-1.442-145-2.978-194.68c-0.01-0.281-0.016-0.576-0.025-0.854c-0.189-6.08,10.277-12.481,10.277-12.481l-0.022,0.005
			C414.039,159.535,421.107,145.919,421.107,123.459z"/>
		<path opacity="0.3889" fill="#9C9C9C" d="M421.238,123.458c0-32.996-15.244-72.579-34.045-72.579
			c-18.801,0-34.042,39.583-34.042,72.579c0,22.46,7.068,36.077,17.51,42.486l-0.021-0.005c0,0,10.448,6.522,10.275,12.606
			c-0.007,0.234-0.015,0.49-0.022,0.728c-1.534,49.533-2.981,194.681-2.981,194.681c-0.038,3.706,4.128,6.726,9.281,6.726
			c5.154,0,9.322-3.02,9.279-6.726c0,0-1.441-145-2.977-194.681c-0.01-0.281-0.016-0.575-0.025-0.853
			c-0.189-6.081,10.277-12.481,10.277-12.481l-0.022,0.005C414.17,159.535,421.238,145.919,421.238,123.458z"/>
		<path opacity="0.4167" fill="#959595" d="M421.369,123.459c0-32.997-15.244-72.579-34.045-72.579
			c-18.802,0-34.043,39.582-34.043,72.579c0,22.46,7.068,36.076,17.511,42.485l-0.021-0.005c0,0,10.455,6.522,10.276,12.606
			c-0.007,0.234-0.016,0.49-0.022,0.729c-1.534,49.532-2.982,194.68-2.982,194.68c-0.037,3.706,4.129,6.726,9.281,6.726
			c5.154,0,9.322-3.02,9.279-6.726c0,0-1.441-145-2.977-194.68c-0.01-0.281-0.017-0.576-0.026-0.854
			c-0.212-6.079,10.278-12.481,10.278-12.481l-0.022,0.005C414.301,159.535,421.369,145.919,421.369,123.459z"/>
		<path opacity="0.4444" fill="#8E8E8E" d="M421.5,123.458c0-32.996-15.244-72.578-34.045-72.578
			c-18.802,0-34.043,39.583-34.043,72.578c0,22.461,7.068,36.077,17.51,42.486l-0.02-0.005c0,0,10.448,6.522,10.276,12.606
			c-0.007,0.234-0.015,0.49-0.022,0.728c-1.534,49.533-2.982,194.68-2.982,194.68c-0.038,3.706,4.128,6.726,9.281,6.726
			c5.154,0,9.322-3.02,9.279-6.726c0,0-1.442-145-2.977-194.68c-0.01-0.281-0.016-0.576-0.025-0.854
			c-0.19-6.08,10.277-12.481,10.277-12.481l-0.023,0.005C414.432,159.535,421.5,145.919,421.5,123.458z"/>
		<path opacity="0.4722" fill="#878787" d="M421.631,123.458c0-32.996-15.244-72.579-34.045-72.579
			c-18.802,0-34.043,39.583-34.043,72.579c0,22.46,7.068,36.077,17.51,42.486l-0.021-0.005c0,0,10.469,6.523,10.276,12.606
			c-0.007,0.234-0.016,0.49-0.022,0.728c-1.533,49.533-2.981,194.68-2.981,194.68c-0.038,3.706,4.128,6.726,9.281,6.726
			c5.153,0,9.321-3.02,9.279-6.726c0,0-1.441-145-2.977-194.68c-0.01-0.281-0.018-0.576-0.026-0.853
			c-0.202-6.08,10.278-12.481,10.278-12.481l-0.023,0.005C414.562,159.535,421.631,145.919,421.631,123.458z"/>
		<path opacity="0.5" fill="#808080" d="M421.761,123.458c0-32.996-15.243-72.579-34.045-72.579
			c-18.801,0-34.042,39.583-34.042,72.579c0,22.46,7.068,36.077,17.51,42.486l-0.021-0.005c0,0,10.469,6.523,10.276,12.606
			c-0.007,0.234-0.016,0.49-0.022,0.728c-1.533,49.533-2.981,194.68-2.981,194.68c-0.038,3.706,4.128,6.726,9.28,6.726
			c5.154,0,9.322-3.02,9.28-6.726c0,0-1.442-145-2.977-194.68c-0.01-0.281-0.017-0.576-0.026-0.854
			c-0.189-6.08,10.277-12.481,10.277-12.481l-0.022,0.005C414.692,159.535,421.761,145.919,421.761,123.458z"/>
		<path opacity="0.5278" fill="#787878" d="M421.892,123.458c0-32.996-15.243-72.579-34.046-72.579
			c-18.8,0-34.041,39.583-34.041,72.579c0,22.46,7.068,36.077,17.51,42.486l-0.021-0.005c0,0,10.469,6.523,10.276,12.606
			c-0.007,0.234-0.016,0.49-0.022,0.728c-1.428,49.536-2.981,194.68-2.981,194.68c-0.038,3.706,4.128,6.726,9.279,6.726
			c5.154,0,9.323-3.02,9.281-6.726c0,0-1.442-145-2.977-194.68c-0.01-0.281-0.018-0.576-0.027-0.853
			c-0.212-6.08,10.278-12.481,10.278-12.481l-0.022,0.005C414.823,159.535,421.892,145.919,421.892,123.458z"/>
		<path opacity="0.5556" fill="#717171" d="M422.021,123.458c0-32.996-15.242-72.578-34.045-72.578
			c-18.8,0-34.041,39.583-34.041,72.578c0,22.461,7.068,36.077,17.51,42.486l-0.021-0.005c0,0,10.468,6.523,10.277,12.606
			c-0.007,0.234-0.016,0.49-0.022,0.728c-1.533,49.533-2.981,194.68-2.981,194.68c-0.039,3.706,4.127,6.726,9.279,6.726
			c5.154,0,9.322-3.02,9.281-6.726c0,0-1.443-145-2.977-194.68c-0.01-0.281-0.017-0.576-0.026-0.854
			c-0.19-6.08,10.276-12.481,10.276-12.481l-0.021,0.005C414.953,159.535,422.021,145.919,422.021,123.458z"/>
		<path opacity="0.5833" fill="#6A6A6A" d="M422.152,123.458c0-32.997-15.242-72.579-34.045-72.579
			c-18.801,0-34.042,39.582-34.042,72.579c0,22.46,7.069,36.077,17.509,42.486l-0.021-0.005c0,0,10.469,6.523,10.277,12.606
			c-0.008,0.234-0.016,0.49-0.023,0.729c-1.426,49.535-2.981,194.68-2.981,194.68c-0.038,3.706,4.127,6.726,9.28,6.726
			c5.154,0,9.322-3.02,9.281-6.726c0,0-1.442-145-2.977-194.68c-0.01-0.281-0.018-0.576-0.027-0.854
			c-0.189-6.081,10.277-12.481,10.277-12.481l-0.022,0.005C415.084,159.535,422.152,145.919,422.152,123.458z"/>
		<path opacity="0.6111" fill="#636363" d="M422.283,123.458c0-32.996-15.242-72.579-34.045-72.579
			c-18.801,0-34.042,39.583-34.042,72.579c0,22.46,7.069,36.077,17.509,42.486l-0.021-0.005c0,0,10.469,6.522,10.277,12.606
			c-0.007,0.234-0.016,0.49-0.023,0.728c-1.532,49.533-2.98,194.681-2.98,194.681c-0.039,3.706,4.127,6.726,9.279,6.726
			c5.154,0,9.322-3.02,9.281-6.726c0,0-1.443-145-2.977-194.681c-0.01-0.281-0.018-0.575-0.027-0.853
			c-0.189-6.08,10.277-12.481,10.277-12.481l-0.022,0.005C415.215,159.535,422.283,145.919,422.283,123.458z"/>
		<path opacity="0.6389" fill="#5C5C5C" d="M422.414,123.459c0-32.997-15.242-72.579-34.045-72.579
			c-18.801,0-34.042,39.583-34.042,72.579c0,22.46,7.068,36.076,17.509,42.485l-0.021-0.005c0,0,10.469,6.522,10.277,12.606
			c-0.007,0.234-0.016,0.49-0.023,0.728c-1.533,49.533-2.981,194.68-2.981,194.68c-0.038,3.706,4.128,6.726,9.28,6.726
			c5.154,0,9.322-3.02,9.281-6.726c0,0-1.262-145.006-2.977-194.68c-0.01-0.281-0.018-0.576-0.027-0.854
			c-0.189-6.08,10.277-12.481,10.277-12.481l-0.022,0.005C415.346,159.535,422.414,145.919,422.414,123.459z"/>
		<path opacity="0.6667" fill="#555555" d="M422.544,123.458c0-32.997-15.242-72.579-34.045-72.579
			c-18.8,0-34.041,39.582-34.041,72.579c0,22.46,7.068,36.077,17.509,42.486l-0.021-0.005c0,0,10.469,6.523,10.277,12.606
			c-0.007,0.234-0.016,0.49-0.022,0.729c-1.533,49.532-2.981,194.68-2.981,194.68c-0.039,3.706,4.127,6.726,9.279,6.726
			c5.155,0,9.322-3.02,9.281-6.726c0,0-1.442-145-2.977-194.68c-0.009-0.281-0.017-0.576-0.026-0.854
			c-0.189-6.08,10.276-12.48,10.276-12.48l-0.021,0.005C415.476,159.535,422.544,145.919,422.544,123.458z"/>
		<path opacity="0.6944" fill="#4E4E4E" d="M422.675,123.458c0-32.995-15.242-72.578-34.045-72.578
			c-18.8,0-34.041,39.583-34.041,72.578c0,22.461,7.068,36.077,17.509,42.486l-0.021-0.005c0,0,10.469,6.523,10.277,12.606
			c-0.008,0.234-0.016,0.49-0.022,0.728c-1.378,49.538-2.981,194.681-2.981,194.681c-0.038,3.706,4.127,6.726,9.279,6.726
			c5.154,0,9.322-3.02,9.281-6.726c0,0-1.442-145-2.977-194.681c-0.01-0.281-0.017-0.575-0.026-0.854
			c-0.189-6.08,10.276-12.48,10.276-12.48l-0.022,0.005C415.606,159.535,422.675,145.919,422.675,123.458z"/>
		<path opacity="0.7222" fill="#474747" d="M422.806,123.458c0-32.996-15.242-72.579-34.045-72.579
			c-18.8,0-34.041,39.583-34.041,72.579c0,22.46,7.068,36.077,17.509,42.486l-0.021-0.005c0,0,10.469,6.523,10.278,12.606
			c-0.008,0.234-0.016,0.49-0.022,0.728c-1.428,49.536-2.981,194.68-2.981,194.68c-0.038,3.706,4.127,6.726,9.279,6.726
			c5.154,0,9.321-3.02,9.281-6.726c0,0-1.442-145-2.977-194.68c-0.01-0.281-0.018-0.576-0.026-0.853
			c-0.202-6.08,10.276-12.481,10.276-12.481l-0.022,0.005C415.737,159.535,422.806,145.919,422.806,123.458z"/>
		<path opacity="0.75" fill="#404040" d="M422.936,123.458c0-32.996-15.241-72.579-34.045-72.579
			c-18.799,0-34.04,39.583-34.04,72.579c0,22.46,7.068,36.077,17.509,42.486l-0.021-0.005c0,0,10.481,6.523,10.278,12.606
			c-0.008,0.234-0.016,0.49-0.023,0.728c-1.427,49.536-2.981,194.68-2.981,194.68c-0.039,3.706,4.126,6.726,9.278,6.726
			c5.154,0,9.322-3.02,9.282-6.726c0,0-1.442-145-2.977-194.68c-0.01-0.281-0.017-0.576-0.026-0.854
			c-0.189-6.08,10.275-12.481,10.275-12.481l-0.021,0.005C415.867,159.535,422.936,145.919,422.936,123.458z"/>
		<path opacity="0.7778" fill="#393939" d="M423.066,123.458c0-32.996-15.241-72.579-34.045-72.579
			c-18.799,0-34.04,39.583-34.04,72.579c0,22.46,7.068,36.077,17.509,42.486l-0.021-0.005c0,0,10.481,6.523,10.278,12.606
			c-0.008,0.234-0.016,0.49-0.023,0.728c-1.378,49.538-2.981,194.681-2.981,194.681c-0.039,3.706,4.126,6.726,9.279,6.726
			c5.154,0,9.322-3.02,9.282-6.726c0,0-1.443-145-2.977-194.681c-0.01-0.281-0.019-0.575-0.027-0.853
			c-0.201-6.08,10.276-12.481,10.276-12.481l-0.021,0.005C415.998,159.535,423.066,145.919,423.066,123.458z"/>
		<path opacity="0.8056" fill="#323232" d="M423.197,123.458c0-32.996-15.241-72.579-34.045-72.579
			c-18.799,0-34.04,39.583-34.04,72.579c0,22.46,7.068,36.077,17.509,42.486l-0.021-0.005c0,0,10.488,6.523,10.278,12.606
			c-0.008,0.234-0.017,0.49-0.023,0.728c-1.532,49.533-2.98,194.68-2.98,194.68c-0.039,3.706,4.126,6.726,9.278,6.726
			c5.154,0,9.322-3.02,9.282-6.726c0,0-1.443-145-2.977-194.68c-0.01-0.281-0.018-0.576-0.027-0.854
			c-0.189-6.08,10.276-12.481,10.276-12.481l-0.021,0.005C416.129,159.535,423.197,145.919,423.197,123.458z"/>
		<path opacity="0.8333" fill="#2B2B2B" d="M423.328,123.459c0-32.997-15.241-72.579-34.045-72.579
			c-18.8,0-34.041,39.583-34.041,72.579c0,22.46,7.069,36.076,17.508,42.485l-0.021-0.005c0,0,10.487,6.523,10.278,12.606
			c-0.008,0.234-0.016,0.49-0.023,0.728c-1.427,49.536-2.981,194.68-2.981,194.68c-0.039,3.706,4.126,6.726,9.279,6.726
			c5.154,0,9.322-3.02,9.282-6.726c0,0-1.262-145.006-2.977-194.68c-0.01-0.281-0.018-0.576-0.027-0.854
			c-0.189-6.08,10.276-12.481,10.276-12.481l-0.022,0.005C416.26,159.535,423.328,145.919,423.328,123.459z"/>
		<path opacity="0.8611" fill="#232323" d="M423.458,123.458c0-32.997-15.241-72.579-34.044-72.579
			c-18.8,0-34.041,39.582-34.041,72.579c0,22.46,7.069,36.077,17.508,42.486l-0.021-0.005c0,0,10.488,6.523,10.279,12.606
			c-0.008,0.234-0.016,0.49-0.023,0.729c-1.375,49.537-2.981,194.68-2.981,194.68c-0.039,3.706,4.125,6.726,9.279,6.726
			c5.154,0,9.321-3.02,9.281-6.726c0,0-1.442-145-2.977-194.68c-0.009-0.281-0.017-0.576-0.026-0.854
			c-0.189-6.08,10.275-12.481,10.275-12.481l-0.021,0.005C416.391,159.535,423.458,145.919,423.458,123.458z"/>
		<path opacity="0.8889" fill="#1C1C1C" d="M423.589,123.458c0-32.996-15.241-72.579-34.045-72.579
			c-18.799,0-34.04,39.583-34.04,72.579c0,22.46,7.068,36.077,17.508,42.486l-0.021-0.005c0,0,10.495,6.524,10.279,12.606
			c-0.008,0.234-0.017,0.49-0.023,0.728c-1.427,49.536-2.98,194.68-2.98,194.68c-0.039,3.706,4.126,6.726,9.278,6.726
			c5.154,0,9.322-3.02,9.283-6.726c0,0-1.443-145-2.978-194.68c-0.01-0.281-0.017-0.576-0.026-0.854
			c-0.19-6.08,10.275-12.48,10.275-12.48l-0.021,0.005C416.521,159.535,423.589,145.919,423.589,123.458z"/>
		<path opacity="0.9167" fill="#151515" d="M423.72,123.458c0-32.996-15.241-72.579-34.045-72.579
			c-18.799,0-34.04,39.583-34.04,72.579c0,22.46,7.068,36.077,17.508,42.486l-0.022-0.005c0,0,10.495,6.524,10.279,12.606
			c-0.008,0.234-0.017,0.49-0.023,0.728c-1.376,49.538-2.98,194.68-2.98,194.68c-0.039,3.706,4.125,6.726,9.278,6.726
			c5.154,0,9.322-3.02,9.282-6.726c0,0-1.443-145-2.977-194.68c-0.01-0.281-0.018-0.576-0.026-0.854
			c-0.19-6.08,10.275-12.481,10.275-12.481l-0.021,0.005C416.651,159.535,423.72,145.919,423.72,123.458z"/>
		<path opacity="0.9444" fill="#0E0E0E" d="M423.851,123.458c0-32.996-15.241-72.579-34.045-72.579
			c-18.8,0-34.04,39.583-34.04,72.579c0,22.46,7.068,36.077,17.508,42.486l-0.021-0.005c0,0,10.494,6.524,10.279,12.606
			c-0.008,0.234-0.016,0.49-0.023,0.728c-1.376,49.538-2.981,194.68-2.981,194.68c-0.039,3.706,4.125,6.726,9.278,6.726
			c5.153,0,9.322-3.02,9.282-6.726c0,0-1.442-145-2.977-194.68c-0.01-0.281-0.018-0.576-0.027-0.854
			c-0.189-6.08,10.276-12.481,10.276-12.481l-0.022,0.005C416.781,159.535,423.851,145.919,423.851,123.458z"/>
		<path opacity="0.9722" fill="#070707" d="M423.98,123.458c0-32.996-15.24-72.579-34.045-72.579
			c-18.799,0-34.039,39.583-34.039,72.579c0,22.46,7.068,36.077,17.508,42.486l-0.021-0.005c0,0,10.507,6.524,10.28,12.606
			c-0.009,0.234-0.017,0.49-0.024,0.728c-1.427,49.536-2.98,194.68-2.98,194.68c-0.039,3.706,4.125,6.726,9.277,6.726
			c5.154,0,9.322-3.02,9.283-6.726c0,0-1.443-145-2.977-194.68c-0.01-0.281-0.018-0.576-0.027-0.854
			c-0.189-6.08,10.275-12.481,10.275-12.481l-0.021,0.005C416.912,159.535,423.98,145.919,423.98,123.458z"/>
		<path d="M424.111,123.458c0-32.996-15.24-72.579-34.045-72.579c-18.799,0-34.039,39.583-34.039,72.579
			c0,22.46,7.068,36.077,17.508,42.486l-0.021-0.005c0,0,10.469,6.523,10.279,12.606c-0.01,0.234-0.018,0.49-0.023,0.728
			c-1.531,49.533-2.98,194.68-2.98,194.68c-0.039,3.706,4.125,6.726,9.277,6.726c5.154,0,9.322-3.02,9.283-6.726
			c0,0-1.443-145-2.977-194.68c-0.01-0.281-0.018-0.576-0.027-0.854c-0.189-6.08,10.275-12.481,10.275-12.481l-0.021,0.005
			C417.043,159.535,424.111,145.919,424.111,123.458z"/>
	</g>
	<path fill="#FFFFFF" d="M422.785,123.458c0-32.996-15.246-72.579-34.045-72.579c-18.803,0-34.043,39.583-34.043,72.579
		c0,22.46,7.068,36.077,17.512,42.486l-0.021-0.005c0,0,10.471,6.523,10.275,12.606c-0.004,0.234-0.014,0.49-0.023,0.728
		c-1.533,49.533-2.98,194.68-2.98,194.68c-0.039,3.706,4.131,6.726,9.281,6.726c5.154,0,9.318-3.02,9.279-6.726
		c0,0-1.443-145-2.973-194.68c-0.01-0.281-0.021-0.576-0.031-0.854c-0.189-6.08,10.281-12.481,10.281-12.481l-0.023,0.005
		C415.713,159.535,422.785,145.919,422.785,123.458z"/>
	<linearGradient id="SVGID_1_" gradientUnits="userSpaceOnUse" x1="380.7886" y1="279.9766" x2="399.3496" y2="279.9766">
		<stop  offset="0" style="stop-color:#FFFFFF"/>
		<stop  offset="1" style="stop-color:#D9D9D9"/>
	</linearGradient>
	<path fill="url(#SVGID_1_)" d="M380.789,373.954c-0.039,3.706,4.125,6.726,9.277,6.726c5.154,0,9.322-3.02,9.283-6.726
		c0,0-1.443-145-2.977-194.68H383.77C382.238,228.807,380.789,373.954,380.789,373.954z"/>
	<linearGradient id="SVGID_2_" gradientUnits="userSpaceOnUse" x1="356.0273" y1="115.0771" x2="424.1113" y2="115.0771">
		<stop  offset="0" style="stop-color:#FFFFFF"/>
		<stop  offset="1" style="stop-color:#BFBFBF"/>
	</linearGradient>
	<path fill="url(#SVGID_2_)" d="M390.066,50.88c-18.799,0-34.039,39.583-34.039,72.579c0,22.46,7.068,36.077,17.508,42.486
		l-0.021-0.005c0,0,10.469,6.523,10.279,12.606c-0.01,0.234-0.018,0.49-0.023,0.728h12.604c-0.01-0.281-0.018-0.576-0.027-0.854
		c-0.189-6.08,10.275-12.481,10.275-12.481l-0.021,0.005c10.443-6.409,17.512-20.025,17.512-42.486
		C424.111,90.462,408.871,50.88,390.066,50.88z"/>
	
		<radialGradient id="SVGID_3_" cx="387.1963" cy="124.7783" r="31.6685" gradientTransform="matrix(0.8815 0 0 1.7341 48.7568 -103.8486)" gradientUnits="userSpaceOnUse">
		<stop  offset="0" style="stop-color:#FFFFFF"/>
		<stop  offset="1" style="stop-color:#B0B0B0"/>
	</radialGradient>
	<path opacity="0.08" fill="url(#SVGID_3_)" d="M362.156,112.529c0-30.33,12.496-54.918,27.91-54.918
		c15.42,0,27.918,24.588,27.918,54.918c0,30.331-12.498,54.919-27.918,54.919C374.652,167.448,362.156,142.86,362.156,112.529z"/>
	<path fill="#2A2A2A" d="M397.768,372.347c0.031,3.684-3.621,6.677-8.154,6.677h-0.023c-3.137,0-5.871-1.455-7.223-3.562
		c1.482,1.261,3.58,2.055,5.893,2.055h0.021c4.529,0,8.188-2.995,8.156-6.679l-2.752-192.682l1.447,0.061
		c-0.029,0.399-0.096,1.85-0.096,2.271v0.125L397.768,372.347z"/>
	<linearGradient id="SVGID_4_" gradientUnits="userSpaceOnUse" x1="420.8799" y1="122.3833" x2="364.145" y2="122.3833">
		<stop  offset="0" style="stop-color:#101010"/>
		<stop  offset="0.1134" style="stop-color:#1B1B1B"/>
		<stop  offset="0.4623" style="stop-color:#363636"/>
		<stop  offset="0.7694" style="stop-color:#474747"/>
		<stop  offset="1" style="stop-color:#4D4D4D"/>
	</linearGradient>
	<path fill="url(#SVGID_4_)" d="M405.967,64.288c0.451,30.933,15.311,60.505-2.625,86.871c-8.473,12.688-23.947,12.688-36.416,4.255
		c-0.941-0.316-1.877-0.347-2.781-0.173c5.607,6.599,12.754,10.877,18.006,16.987c1.529,1.482,3.521,5.148,3.73,7.618
		c1.514-0.606,3.029,0.134,4.537,0.633h3.428c0.43-0.221,0.793-0.494,1.223-0.983c0.359-8.173,7.982-12.516,7.982-12.516
		s0.404-0.248,0.533-0.338c14.287-10.227,16.613-18.188,17.248-39.769C421.473,104.919,415.578,79.183,405.967,64.288z"/>
</g>
</svg>
