<?xml version="1.0" encoding="utf-8"?>
<!-- Generator: Adobe Illustrator 16.0.0, SVG Export Plug-In . SVG Version: 6.00 Build 0)  -->
<!DOCTYPE svg PUBLIC "-//W3C//DTD SVG 1.1//EN" "http://www.w3.org/Graphics/SVG/1.1/DTD/svg11.dtd">
<svg version="1.1" id="Layer_2" xmlns="http://www.w3.org/2000/svg" xmlns:xlink="http://www.w3.org/1999/xlink" x="0px" y="0px"
	 width="768px" height="430px" viewBox="0 0 768 430" enable-background="new 0 0 768 430" xml:space="preserve">
<path fill="none" stroke="#000000" stroke-width="1.7669" stroke-miterlimit="10" d="M-91.601,231.789"/>
<g>
	<g>
		<g>
			<g>
				<path fill="#141414" d="M508.452,332.919c0,0,0,0.162,0.022,0.469c0.173,2.455,1.745,14.059,15.879,24.266
					c3.24,3.534,7.362,13.251-21.202,12.661c-28.562-0.588-29.442-3.09-23.853-11.188c4.27-6.185,15.019-8.099,32.982-4.417
					c-3.093-4.564-11.781-14.136-9.424-17.228C505.065,335.272,508.452,332.919,508.452,332.919z"/>
			</g>
			<g>
				<path fill="#202020" d="M520.231,361.775c-5.493-8.787-14.033-16.044-15.478-26.015c-0.659,0.555-1.318,1.141-1.896,1.721
					c-2.357,3.092,6.331,12.663,9.424,17.228c-17.964-3.682-28.713-1.768-32.982,4.417c-0.83,1.203-1.513,2.278-1.987,3.247
					C489.771,368.159,525.015,367.629,520.231,361.775z"/>
			</g>
			<g>
				<path fill="#070707" d="M505.58,370.781c-0.785,0-1.595-0.008-2.438-0.024c-18.423-0.381-25.155-1.51-26.674-4.48
					c-0.94-1.838,0.193-4.105,2.469-7.402c4.457-6.453,15.502-8.108,32.347-4.816c-0.605-0.838-1.338-1.793-2.099-2.79
					c-3.88-5.075-8.708-11.39-6.679-14.055c2.25-2.254,5.556-4.561,5.696-4.657l0.691-0.481l0.001,0.845
					c0,0.008,0,0.159,0.021,0.438c0.156,2.219,1.658,13.8,15.699,23.938c2.029,1.756,3.192,4.839,2.056,7.425
					C524.9,368.741,517.806,370.781,505.58,370.781z M496.317,353.283c-8.26,0-13.863,2.049-16.655,6.093
					c-2.032,2.944-3.145,5.061-2.408,6.499c1.307,2.553,8.328,3.637,25.906,3.999c0.836,0.017,1.641,0.024,2.42,0.024
					c14.751,0,19.172-3.01,20.281-5.538c0.968-2.193,0.077-4.941-1.832-6.408c-13.716-9.896-15.688-21.288-15.968-24.21
					c-1.085,0.789-3.31,2.469-4.892,4.051c-1.582,2.085,3.412,8.617,6.716,12.938c1.06,1.387,2.058,2.694,2.762,3.729l0.608,0.899
					l-1.063-0.217C506.177,353.91,500.837,353.283,496.317,353.283z"/>
			</g>
		</g>
		<g>
			<g>
				<path fill="#141414" d="M444.845,327.616c0,0-16.049,10.748-18.109,20.17c0.148,7.511,15.313,15.659,26.944,22.555
					c5.007,3.36,6.183,11.019-14.429,15.436c-20.613,4.417-35.485,4.27-32.246-3.682s15.166-14.872,27.829-14.577
					c-5.891-4.417-26.21-13.251-15.608-29.153c7.067-9.717,11.484-13.546,16.344-14.43
					C437.336,324.673,444.845,327.616,444.845,327.616z"/>
			</g>
			<g>
				<path fill="#202020" d="M447.79,375.909c2.539-0.993,3.312-5.128-1.767-7.065c-10.602-5.301-22.969-10.824-22.969-21.203
					c0-9.985,8.061-16.515,15.816-22.378c-1.418-0.563-2.696-1.075-3.302-1.328c-4.859,0.884-9.276,4.713-16.344,14.43
					c-10.602,15.902,9.718,24.736,15.608,29.153c-11.814-0.274-22.979,5.732-27.056,12.993
					C427.36,385.297,443.704,378.782,447.79,375.909z"/>
			</g>
			<g>
				<path fill="#070707" d="M417.193,389.128c-5.611,0-9.136-1.006-10.469-2.991c-0.761-1.133-0.806-2.547-0.131-4.21
					c3.338-8.188,15.043-14.634,26.836-14.854c-0.675-0.448-1.452-0.938-2.3-1.475c-5.382-3.396-13.513-8.523-15.088-15.913
					c-0.787-3.691,0.161-7.582,2.818-11.565c7.084-9.745,11.592-13.703,16.631-14.619l0.127-0.022l0.122,0.049
					c1.743,0.726,9.192,3.65,9.267,3.68l0.787,0.305l-0.703,0.472c-0.158,0.106-15.924,10.758-17.926,19.899
					c0.141,6.474,12.545,13.749,23.489,20.164c1.105,0.649,2.191,1.286,3.251,1.915c2.448,1.642,3.639,3.95,3.21,6.189
					c-0.573,2.973-4.121,7.132-17.773,10.055C430.426,388.118,422.767,389.128,417.193,389.128z M434.052,367.95
					c-11.669,0-23.367,6.287-26.638,14.312c-0.567,1.387-0.554,2.497,0.044,3.383c1.144,1.7,4.51,2.598,9.735,2.598
					c5.514,0,13.109-1.004,21.966-2.899c13.871-2.973,16.66-7.142,17.087-9.36c0.36-1.881-0.689-3.852-2.812-5.273
					c-1.038-0.615-2.125-1.254-3.227-1.899c-11.145-6.535-23.778-13.941-23.915-21.014c1.864-8.563,14.471-17.865,17.618-20.073
					c-1.914-0.752-6.823-2.685-8.389-3.33c-4.737,0.914-9.076,4.795-15.938,14.233c-2.509,3.761-3.412,7.424-2.678,10.874
					c1.498,7.025,9.438,12.034,14.693,15.352c1.396,0.881,2.602,1.639,3.499,2.311l1.102,0.83l-1.377-0.033
					C434.565,367.952,434.309,367.95,434.052,367.95z"/>
			</g>
		</g>
		<g>
			<g>
				<path fill="#141414" d="M406.562,296.843c0,0-8.093,16.138-9.272,18.258c-1.259,2.26-1.033,3.682-10.455,2.504
					c-9.423-1.178-18.884-1.547-23.301-0.994c-4.418,0.552-12.479,10.601-14.907,12.369c-2.43,1.766-7.621,0.665,0.662-10.713
					c-2.207,0.963-11.927,7.399-16.123,6.515c-2.873-0.883-1.252-5.113,12.81-13.141c-4.38,0.295-11.043,0.993-12.589-0.662
					c-1.546-1.657-0.846-7.619,21.203-6.625c-1.973-1.812-11.154-14.688,1.324-10.381c4.749,1.989,8.945,8.614,8.504,13.693
					c3.093,0.332,20.761,1.543,24.514,2.098c1.878,0.074,1.21-1.838,1.215-2.54c0.075-8.687,4.087-21.202,5.964-21.424
					C399.864,290.549,406.562,296.843,406.562,296.843z"/>
			</g>
			<g>
				<path fill="#202020" d="M401.184,294.929c0,0-5.217,14.223-6.399,16.345c-1.257,2.258,0,4.418-9.422,3.237
					c-9.426-1.178-18.111-0.993-22.527-0.44c-4.417,0.554-10.088,8.099-12.518,9.864c-2.43,1.767-5.632,2.838,2.651-8.539
					c-2.206,0.963-9.202,6.184-13.399,5.301c-2.871-0.883-1.987-3.019,12.074-11.043c-4.38,0.295-10.164,0.371-12.369-0.147
					c-2.501-0.59-6.735-6.146,15.314-5.152c-1.973-1.812-11.154-14.688,1.324-10.381c4.749,1.989,8.945,8.614,8.504,13.693
					c3.093,0.332,20.761,1.543,24.514,2.098c1.878,0.074,1.21-1.838,1.215-2.54c0.075-8.687,4.087-21.202,5.964-21.424
					C399.864,290.549,401.184,294.929,401.184,294.929z"/>
			</g>
			<g>
				<path fill="#070707" d="M346.657,330.096c-0.929,0-1.65-0.412-2.03-1.16c-0.886-1.739,0.234-4.982,3.247-9.428
					c-0.272,0.151-0.569,0.321-0.883,0.498c-3.518,1.982-9.405,5.302-12.958,5.302c-0.346,0-0.666-0.032-0.959-0.092
					c-0.917-0.281-1.446-0.845-1.529-1.597c-0.266-2.425,4.175-6.449,12.557-11.398c-1.793,0.127-3.771,0.262-5.551,0.262
					c-2.979,0-4.721-0.381-5.486-1.202c-0.522-0.56-0.897-1.576-0.387-2.75c0.768-1.766,4.028-4.73,17.239-4.73
					c1.15,0,2.365,0.022,3.625,0.067c-1.828-2.163-5.301-7.295-4.324-9.801c0.251-0.644,0.907-1.411,2.612-1.411
					c1.074,0,2.499,0.303,4.228,0.899c4.85,2.03,9.014,8.582,8.828,13.714c1.387,0.131,4.282,0.354,7.582,0.61
					c6.307,0.49,14.155,1.099,16.528,1.448c0.339-0.004,0.545-0.067,0.659-0.194c0.238-0.272,0.158-0.899,0.102-1.358
					c-0.029-0.215-0.053-0.409-0.052-0.553c0.071-8.296,3.929-21.575,6.354-21.858l0.245-0.03l0.153,0.192
					c3.691,4.669,10.341,10.934,10.408,10.995l0.24,0.226l-0.146,0.295c-0.332,0.66-8.114,16.169-9.285,18.275
					c-0.107,0.192-0.202,0.377-0.296,0.557c-0.829,1.61-1.521,2.598-5.154,2.598c-1.364,0-3.145-0.141-5.444-0.428
					c-6.312-0.789-12.847-1.244-17.926-1.244c-2.175,0-3.948,0.087-5.264,0.25c-2.936,0.367-7.895,5.487-11.178,8.88
					c-1.545,1.594-2.764,2.854-3.525,3.407C348.223,329.817,347.408,330.096,346.657,330.096z M350.603,317.211l-0.958,1.315
					c-4.951,6.804-4.607,9.267-4.23,10.01c0.285,0.558,0.832,0.675,1.243,0.675c0.562,0,1.2-0.222,1.708-0.591
					c0.7-0.508,1.956-1.807,3.411-3.307c3.569-3.688,8.459-8.735,11.701-9.141c1.355-0.171,3.164-0.257,5.375-0.257
					c5.114,0,11.688,0.455,18.036,1.25c2.263,0.283,4.008,0.42,5.334,0.42c3.278,0,3.688-0.795,4.368-2.116
					c0.098-0.188,0.198-0.383,0.311-0.584c1.075-1.932,8.015-15.749,9.118-17.947c-1.209-1.149-6.698-6.433-10.053-10.608
					c-1.463,1.115-5.305,12.028-5.379,20.897c-0.002,0.115,0.019,0.265,0.044,0.435c0.078,0.625,0.19,1.483-0.315,2.053
					c-0.285,0.325-0.718,0.491-1.279,0.491h-0.124c-2.392-0.352-10.222-0.958-16.513-1.444c-3.689-0.286-6.876-0.534-8.029-0.655
					l-0.433-0.047l0.039-0.433c0.422-4.859-3.579-11.299-8.235-13.247c-1.611-0.555-2.937-0.842-3.913-0.842
					c-1.457,0-1.706,0.637-1.787,0.848c-0.873,2.237,3.312,8.236,4.845,9.642l0.894,0.821l-1.211-0.053
					c-1.629-0.076-3.195-0.113-4.653-0.113c-13.181,0-15.88,2.937-16.428,4.2c-0.342,0.783-0.11,1.44,0.222,1.793
					c0.571,0.614,2.201,0.924,4.841,0.924c1.894,0,4.034-0.155,5.922-0.295l3.392-0.231l-1.669,0.95
					c-10.432,5.956-13.952,9.845-13.77,11.502c0.016,0.144,0.063,0.588,0.87,0.834c0.193,0.041,0.456,0.063,0.739,0.063
					c3.323,0,9.083-3.247,12.522-5.188c1.136-0.64,2.032-1.147,2.555-1.375L350.603,317.211z"/>
			</g>
		</g>
		<g>
			<g>
				<path fill="#141414" d="M387.496,255.212c0,0-15.755,21.166-20.319,22.969c-1.655,0.774-23.521-9.606-26.061-9.388
					c-2.54,0.222-8.12,4.971-9.14,5.964c-0.975,0.951-13.818,10.248-11.209,3.397c1.531-2.858,2.164-3.03,6.73-8.919
					c-2.337-0.717-13.381,4.528-17.411,4.088c-1.546,0.053-5.853-2.485,14.06-10.823c-0.303,0.018-14.889,1.712-16.268-0.847
					c-0.884-1.233-1.141-9.719,20.283-7.068c-2.137-3.163-5.229-14.281,1.914-10.747c7.141,3.534,11.41,15.976,11.41,15.976
					c0.075,0.81,14.798,2.43,21.276,8.687c1.472-0.147,10.676-22.82,26.283-28.049C388.896,244.794,387.496,255.212,387.496,255.212
					z"/>
			</g>
			<g>
				<path fill="#202020" d="M382.748,254.549c0,0-11.448,17.633-16.012,19.436c-1.657,0.772-23.302-7.399-25.841-7.179
					c-2.539,0.222-7.899,4.528-8.919,5.523c-0.975,0.949-8.662,8.324-6.982,3.209c1.531-2.858,0.626-1.959,5.189-7.847
					c-2.339-0.72-6.589,1.45-11.264,2.098c-1.546,0.056-8.16,0.207,10.601-8.705c-0.304,0.019-14.024,0.975-16.011-0.664
					c-0.907-0.569-4.75-4.766,14.651-5.835c-2.137-3.163-5.229-14.281,1.914-10.747c7.141,3.534,11.41,15.976,11.41,15.976
					c0.075,0.81,14.798,2.43,21.276,8.687c1.472-0.147,10.676-22.82,26.283-28.049C388.896,244.794,382.748,254.549,382.748,254.549
					z"/>
			</g>
			<g>
				<path fill="#070707" d="M321.448,281.096c-0.7,0-1.055-0.299-1.229-0.551c-0.363-0.526-0.318-1.36,0.134-2.549
					c1.005-1.883,1.614-2.618,3.084-4.402c0.761-0.922,1.773-2.149,3.197-3.969c-1.415,0.112-3.944,0.942-6.612,1.819
					c-3.824,1.256-7.805,2.573-9.985,2.317c-0.003,0-0.005,0-0.009,0c-0.643,0-1.654-0.341-1.84-1.272
					c-0.428-2.127,4.012-5.247,13.204-9.289c-3.023,0.25-5.21,0.308-6.612,0.308c-5.74,0-6.911-0.938-7.291-1.644
					c-0.379-0.524-0.604-2.016,0.18-3.544c1.097-2.137,4.244-4.686,13.006-4.686c2.004,0,4.238,0.137,6.646,0.407
					c-1.442-2.688-2.896-7.828-1.681-10.11c0.748-1.407,2.357-1.616,4.628-0.489c6.997,3.46,11.191,14.968,11.606,16.146
					c0.34,0.177,1.659,0.494,2.936,0.804c4.663,1.125,13.274,3.198,18.012,7.56c0.344-0.422,1.192-1.86,2.085-3.376
					c3.935-6.675,12.128-20.567,23.995-24.544l0.604-0.201l-0.021,0.638c-0.147,4.314-1.537,14.699-1.552,14.804l-0.015,0.127
					l-0.084,0.099c-1.917,2.28-16.314,21.764-20.469,23.083c-0.127,0.041-0.266,0.084-0.441,0.084c-1.56,0-7.23-2.34-13.23-4.816
					c-5.244-2.164-11.189-4.614-12.491-4.614c-2.259,0.193-7.542,4.499-8.919,5.842
					C331.723,275.622,324.384,281.096,321.448,281.096z M326.941,268.728c0.269,0,0.493,0.029,0.683,0.086l0.613,0.188l-0.393,0.504
					c-1.708,2.203-2.874,3.618-3.727,4.651c-1.432,1.735-2.022,2.452-2.963,4.206c-0.434,1.151-0.29,1.561-0.207,1.682
					c0.076,0.11,0.245,0.168,0.5,0.168c2.502,0,9.511-5.079,10.221-5.771c0.777-0.758,6.582-5.843,9.409-6.087l0.125-0.006
					c1.478,0,6.991,2.274,12.828,4.684c5.395,2.227,11.51,4.749,12.894,4.749c4.966-2.241,12.686-13.878,20.151-22.756
					c0.152-1.141,1.268-9.647,1.495-13.941c-11.229,4.139-19.09,17.474-22.902,23.941c-1.764,2.993-2.299,3.858-2.864,3.915
					l-0.204,0.019l-0.146-0.144c-4.505-4.349-13.186-6.44-17.85-7.563c-2.953-0.713-3.51-0.864-3.559-1.397
					c-0.02-0.021-4.273-12.208-11.167-15.621c-1.776-0.879-2.93-0.882-3.457,0.112c-1.16,2.18,0.721,7.94,2.105,9.994l0.542,0.803
					l-0.963-0.119c-2.717-0.336-5.216-0.506-7.43-0.506c-8.754,0-11.415,2.637-12.22,4.208c-0.673,1.306-0.393,2.43-0.22,2.67
					c0.224,0.401,1.241,1.229,6.544,1.229c1.747,0,4.739-0.092,9.073-0.538c0.156-0.017,0.247-0.027,0.27-0.027l2.569-0.145
					l-2.374,0.993c-15.062,6.306-15.359,8.942-15.265,9.408c0.079,0.385,0.631,0.567,0.982,0.567
					c0.246,0.017,0.406,0.024,0.573,0.024c2.128,0,5.853-1.224,9.138-2.303C322.817,269.597,325.468,268.728,326.941,268.728z"/>
			</g>
		</g>
		<g>
			<g>
				<path fill="#141414" d="M474.625,187.85c0,0,10.71-5.631,17.227-6.625c1.766-0.331,0.39-4.604,0-6.073
					c-1.901-7.161-2.163-21.644-2.982-29.485c-0.727-1.969-4.968-6.404-13.141-7.288c-10.38-0.552-14.356-14.245,4.307-6.515
					c-0.663-2.65-4.369-25.289,0.632-25.51c2.57,0,5.553,9.828,8.202,17.668c2.209-9.165,4.417-20.98,11.816-17.668
					c3.202,1.656-1.324,11.395-0.883,17.337c2.984-2.362,14.688-10.712,12.258-1.657c-1.326,4.417-9.388,8.834-11.375,9.829
					c-1.988,0.994-5.854,5.19-4.859,11.374c0.993,6.184,9.276,38.761,2.762,43.288c-6.517,4.528-12.038,8.724-12.038,8.724
					L474.625,187.85z"/>
			</g>
			<g>
				<path fill="#202020" d="M474.625,187.85c0,0,10.71-5.631,17.227-6.625c1.766-0.331,0.39-4.604,0-6.073
					c-1.901-7.161-2.163-21.644-2.982-29.485c-0.727-1.969-1.987-6.516-10.6-8.061c-6.893,0.161-13.583-8.945,4.195-3.866
					c-0.662-2.65-5.301-21.533-1.215-21.533c2.571,0,5.08,8.945,7.73,16.786c3.202-8.503,2.865-17.319,8.835-15.571
					c2.487,1.427-0.442,8.965,0,14.908c2.983-2.362,12.773-10.856,11.483-4.307c-1.325,2.983-7.67,5.762-9.718,6.627
					c-3.755,1.582-6.295,7.508-5.301,13.693c0.994,6.184,8.283,36.109,1.767,40.637c-6.515,4.527-9.497,10.27-9.497,10.27
					L474.625,187.85z"/>
			</g>
			<g>
				<path fill="#070707" d="M486.576,195.784l-12.841-7.964l0.684-0.361c0.44-0.231,10.853-5.677,17.367-6.67
					c0.129-0.025,0.228-0.094,0.308-0.224c0.557-0.891-0.212-3.65-0.539-4.828l-0.13-0.474c-1.306-4.919-1.842-13.196-2.311-20.497
					c-0.217-3.376-0.422-6.562-0.683-9.053c-0.654-1.729-4.814-6.038-12.749-6.894c-5.227-0.278-9.209-3.907-9.132-6.842
					c0.049-1.825,1.658-2.915,4.305-2.915c2.211,0,5.094,0.702,8.58,2.081c-0.773-4.083-3.314-20.415-0.416-24.299
					c0.438-0.59,0.986-0.903,1.627-0.932c2.46,0,4.688,6.131,7.807,15.479l0.345,1.025l0.086-0.357
					c1.851-7.835,3.951-16.718,9.398-16.718c0.812,0,1.682,0.207,2.584,0.61c2.214,1.143,1.397,4.99,0.452,9.446
					c-0.545,2.563-1.105,5.204-1.105,7.418c1.976-1.493,7.354-5.343,10.376-5.343c0.786,0,1.377,0.256,1.765,0.758
					c0.59,0.769,0.634,2.054,0.134,3.92c-1.479,4.923-10.571,9.591-11.604,10.107c-1.847,0.925-5.577,4.954-4.619,10.908
					c0.162,1.019,0.529,2.775,0.993,4.999c2.537,12.156,7.256,34.782,1.582,38.722c-6.433,4.471-11.966,8.672-12.021,8.714
					L486.576,195.784z M475.521,187.886l11.006,6.828c1.138-0.859,6.124-4.599,11.81-8.551c5.193-3.609,0.19-27.581-1.942-37.817
					c-0.466-2.236-0.836-4.001-1.003-5.037c-1.033-6.436,3.066-10.826,5.098-11.841c0.398-0.199,9.758-4.924,11.148-9.559
					c0.518-1.932,0.296-2.776,0.017-3.141c-0.215-0.275-0.562-0.412-1.064-0.412c-2.637,0-8.03,3.717-10.513,5.682l-0.651,0.516
					l-0.062-0.83c-0.186-2.494,0.464-5.552,1.092-8.509c0.834-3.931,1.621-7.644,0.029-8.469c-0.766-0.342-1.513-0.52-2.201-0.52
					c-4.748,0-6.762,8.519-8.54,16.037l-0.8,3.349l-1.325-3.939c-2.095-6.278-4.965-14.876-6.95-14.876
					c-0.348,0.015-0.662,0.205-0.941,0.577c-2.806,3.762,0.087,21.779,0.74,24.384l0.212,0.85l-0.812-0.334
					c-3.674-1.522-6.788-2.326-9.011-2.326c-2.139,0-3.387,0.749-3.421,2.053c-0.059,2.184,3.229,5.666,8.318,5.939
					c8.448,0.91,12.763,5.497,13.531,7.574c0.287,2.616,0.493,5.812,0.712,9.195c0.468,7.263,0.997,15.492,2.283,20.332l0.126,0.462
					c0.581,2.084,1.143,4.403,0.439,5.532c-0.21,0.336-0.525,0.555-0.912,0.627C486.495,182.488,477.989,186.642,475.521,187.886z"
					/>
			</g>
		</g>
		<g>
			<g>
				<path fill="#EA0001" d="M424.82,193.041c0,0,56.098-36.221,106.896,32.686c50.797,68.907-13.823,126.036-35.842,110.281
					C473.853,320.256,370.049,209.826,424.82,193.041z"/>
			</g>
			<g>
				<path fill="#CF0001" d="M526.645,273.137c-5.325-33.889-33.264-56.832-65.708-71.704c-6.014,27.061-19.927,28.215-45.87,35.076
					c17.212,38.589,66.43,89.215,80.808,99.499c5.799,4.151,14.556,3.237,23.379-1.607
					C532.028,315.731,531.504,304.059,526.645,273.137z"/>
			</g>
			<g>
				<path fill="#700107" d="M504.784,339.088c-3.562,0-6.646-0.914-9.167-2.719c-19.253-13.774-92.51-91.46-86.666-127.262
					c1.329-8.131,6.606-13.673,15.686-16.473c1-0.626,15.674-9.55,36.124-9.55c26.588,0,50.581,14.26,71.311,42.38
					c27.75,37.646,19.303,68.192,11.796,83.05C533.729,328.588,516.53,339.088,504.784,339.088z M460.761,183.968
					c-20.829,0-35.555,9.349-35.7,9.443l-0.109,0.051c-8.766,2.687-13.855,7.998-15.125,15.788
					c-5.792,35.47,67.143,112.688,86.305,126.398c2.368,1.694,5.28,2.555,8.653,2.555c11.477,0,28.316-10.336,38.294-30.087
					c7.414-14.678,15.752-44.866-11.718-82.128C510.806,198.106,487.053,183.968,460.761,183.968z"/>
			</g>
		</g>
		<g>
			<path fill="#262626" d="M468.496,220.261c6.47,11.176,16.08,7.604,14.341-5.8c-1.816-9.274-12.69-16.408-25.87-16.408
				c-1.531,0-3.024,0.118-4.48,0.301C452.486,208.134,451.71,211.753,468.496,220.261z"/>
		</g>
		<g>
			<g>
				<path fill="#EA0001" d="M410.244,205.851c0,0-62.281,37.547,0,104.686c21.865,28.108,103.582,54.773,113.521,13.398
					C527.741,313.63,521.997,202.758,410.244,205.851z"/>
			</g>
			<path fill="#262626" d="M430.8,217.984c0,0,23.617,21.545,49.951,6.738c-7.216-5.207-27.841-14.994-27.841-14.994L430.8,217.984z
				"/>
			<path opacity="0.32" fill="#FFFFFF" d="M428.655,206.438c55.283,15.211,92.423,68.116,92.492,124.366
				c1.121-2.045,2.007-4.327,2.618-6.87C527.51,314.227,522.618,215.317,428.655,206.438z"/>
			<g>
				<path fill="#CF0001" d="M391.147,228.109c-10.727,7.656-16.75,45.027,19.097,82.427c9.479,12.187,30.201,24.094,51.45,30.312
					c-53.817-35.018-62.493-88.452-52.604-116.704C405.491,221.317,400.024,222.151,391.147,228.109z"/>
			</g>
			<g>
				<path fill="#070707" d="M489.706,345.731c-0.004,0-0.005,0-0.009,0c-27.55-0.002-65.585-16.647-79.802-34.925
					c-20.937-22.566-30.12-44.259-27.271-64.443c3.718-26.34,27.156-40.749,27.392-40.892l0.099-0.06l0.117-0.004
					c1.546-0.042,3.054-0.064,4.561-0.064c39.627,0,69.629,14.447,89.175,42.935c21.475,31.301,22.476,69.941,20.21,75.813
					C519.889,341.968,503.063,345.731,489.706,345.731z M410.375,206.288c-1.641,1.034-23.346,15.143-26.877,40.209
					c-2.805,19.905,6.303,41.35,27.069,63.74c14.102,18.125,51.806,34.609,79.13,34.611c0.004,0,0.005,0,0.009,0
					c13.039,0,29.458-3.646,33.63-21.018c2.25-5.842,1.199-44.012-20.097-75.052c-19.372-28.233-49.13-42.551-88.446-42.551
					C413.336,206.229,411.872,206.249,410.375,206.288z"/>
			</g>
		</g>
		<g>
			<path fill="#141414" d="M391.251,215.126c0,0-8.688,20.32,15.311,16.786c28.171-4.148,60.429-14.723,65.081-39.755
				c0.688-7.665,1.767-8.392-26.503-11.927C428.355,188.182,406.269,190.391,391.251,215.126z"/>
			<path fill="#4D4D4D" d="M445.14,180.23c-2.182,1.034-4.451,1.969-6.784,2.87c1.506,2.642,2.862,5.548,3.777,8.592
				c9.831-0.272,18.749,3.248,28.682,3.801c0.326-1.086,0.615-2.19,0.828-3.336C472.331,184.493,473.409,183.765,445.14,180.23z"/>
			<path fill="#202020" d="M471.27,190.378c1.768-1.767-11.849-5.66-13.615-5.66c-16.882,21.945-40.938,41.177-67.929,38.032
				c0.019,1.842,0.381,3.743,1.422,5.359C421.383,232.002,469.709,215.543,471.27,190.378z"/>
			<path fill="#070707" d="M401.409,232.767L401.409,232.767c-5.125,0-8.684-1.457-10.579-4.331
				c-3.449-5.225-0.13-13.148,0.016-13.484c11.608-19.127,27.559-24.971,41.631-30.129c4.403-1.613,8.561-3.137,12.477-4.99
				l0.114-0.055l0.127,0.015c26.959,3.37,27.665,4.159,26.959,11.646l-0.07,0.759c-4.817,25.938-38.256,36.146-65.457,40.151
				C404.745,232.627,402.989,232.767,401.409,232.767z M445.212,180.685c-3.915,1.847-8.053,3.363-12.43,4.968
				c-13.938,5.105-29.734,10.894-41.154,29.704c-0.005,0.022-3.248,7.769-0.061,12.598c1.726,2.605,5.034,3.927,9.842,3.927l0,0
				c1.538,0,3.25-0.135,5.088-0.405c26.918-3.965,59.995-14.016,64.713-39.4l0.063-0.722
				C471.897,184.732,471.965,184.032,445.212,180.685z"/>
		</g>
		<g>
			<g>
				<g>
					<path fill="#EFC197" d="M336.037,150.586c0,0,5.189-51.084,53.681-51.188c50.121-0.108,71.765,34.012,73.091,64.049
						c4.182,29.815-48.294,61.397-76.858,56.98c-11.631-3.092-24.294,4.859-30.037-14.135
						C345.312,203.2,308.208,173.504,336.037,150.586z"/>
				</g>
			</g>
			<g>
				<path fill="#F9E1BD" d="M357.68,202.758c1.281,16.454,20.32,14.577,29.485,13.031c25.704,2.982,47.836-8.909,60.294-29.671
					c3.533-7.067-3.092-16.725-11.927-14.958c5.301-14.135,3.424-28.475-1.877-40.844c-7.067-15.901-31.804-10.6-42.404,3.535
					c0-11.69-0.965-23.378-4.277-34.367c-45.636,2.01-50.937,51.102-50.937,51.102c-4.787,3.941-7.616,8.086-9.027,12.259
					C330.537,179.901,338.288,195.485,357.68,202.758z"/>
			</g>
			<g>
				<path fill="#BD7F4C" d="M391.657,221.285c-2.026,0-3.97-0.144-5.774-0.422c-3.482-0.922-6.912-0.859-10.148-0.824
					c-8.486,0.095-16.037,0.013-20.174-13.394c-7.327-2.31-26.272-16.17-29.619-32.458c-1.838-8.949,1.415-16.965,9.67-23.825
					c0.79-2.737,8.817-50.86,54.106-51.407c48.827-0.588,72.116,32.381,73.532,64.471c1.244,8.857-2.421,18.536-10.604,27.948
					C438.062,208.145,411.272,221.285,391.657,221.285z M377.684,219.143c2.676,0,5.543,0.102,8.38,0.857
					c1.715,0.263,3.612,0.402,5.594,0.402c19.39,0,45.888-13.007,60.32-29.608c8.012-9.214,11.605-18.648,10.395-27.288
					c-1.401-31.709-24.405-63.667-72.654-63.667c-49.124,0-53.206,50.268-53.242,50.778l-0.014,0.188l-0.145,0.121
					c-8.088,6.662-11.288,14.43-9.511,23.084c3.172,15.442,21.859,29.708,29.229,31.857l0.232,0.067l0.069,0.23
					c3.943,13.045,11.226,13.079,19.387,12.989C376.374,219.148,377.029,219.143,377.684,219.143z"/>
			</g>
		</g>
		<g>
			<g>
				<path fill="#230000" d="M352.691,176.255c0,0,7.639,16.344,8.081,22.748c0.442,6.405,1.546,18.774,19.657,13.693
					c8.538-2.208,18.053-12.259,19.599-28.603C383.244,190.72,364.526,187.224,352.691,176.255z"/>
			</g>
			<g>
				<g>
					<g>
						<path fill="#FC9090" d="M377.778,201.433c-6.871-3.323-13.117-1.178-16.708,0.771c0.856,6.518,3.959,14.811,19.359,10.492
							c4.363-1.541,9.882-4.03,12.918-10.215C389.373,199.979,381.384,199.716,377.778,201.433z"/>
					</g>
					<g>
						<path fill="#FF9F9F" d="M390.067,201.114c-4.141-1.146-9.514-1.003-12.289,0.319c-6.871-3.323-13.117-1.178-16.708,0.771
							c0.256,1.938,0.721,4.029,1.636,5.903C372.87,209.739,382.995,208.412,390.067,201.114z"/>
					</g>
					<g>
						<path fill="#FC6D6D" d="M372.838,214.332L372.838,214.332c-7.146,0-11.137-3.947-12.205-12.07l-0.038-0.3l0.267-0.145
							c2.146-1.166,5.537-2.556,9.507-2.556c2.543,0,5.036,0.566,7.413,1.685c1.659-0.737,3.901-1.101,6.635-1.157
							c8.381,0.706,9.456,2.666,9.456,2.666s-2.676,6.736-13.241,10.636C377.684,213.926,375.089,214.332,372.838,214.332z
							 M361.55,202.45c0.677,4.812,2.647,11,11.288,11l0,0c2.171,0,4.684-0.396,7.472-1.177c3.706-0.886,9.864-4.407,12.708-9.652
							c-1.785-0.895-5.775-1.948-8.602-1.948c-2.55,0-4.901,0.422-6.448,1.158l-0.191,0.093l-0.19-0.094
							c-2.313-1.119-4.743-1.686-7.218-1.686C366.743,200.145,363.613,201.366,361.55,202.45z"/>
					</g>
				</g>
			</g>
			<g>
				<path fill="#FC6D6D" d="M373.901,205.892c0,0-0.678-3.768,7.012-5.827l0.219,0.856
					C381.069,200.938,374.71,202.594,373.901,205.892z"/>
			</g>
			<g>
				<path fill="#3C0000" d="M394.784,197.458c0.348,0.231,0.669,0.497,0.975,0.787c2.148-3.87,3.735-8.522,4.27-14.15
					c-16.784,6.625-35.502,3.13-47.337-7.839c0,0,6.45,13.809,7.831,21.01C368.995,189.497,384.779,191.74,394.784,197.458z"/>
			</g>
			<g>
				<path fill="#BD7F4C" d="M372.838,214.332c-11.451,0-12.164-10.33-12.505-15.297c-0.433-6.251-7.966-22.428-8.042-22.593
					l-0.957-2.046l1.658,1.536c7.592,7.039,18.328,11.074,29.453,11.074c5.976,0,11.837-1.117,17.42-3.321l0.671-0.265l-0.069,0.717
					c-2.59,18.842-10.982,26.353-19.836,28.955C377.684,213.926,375.089,214.332,372.838,214.332z M353.947,177.945
					c2.023,4.505,6.909,15.842,7.266,21.027c0.348,5.062,0.998,14.478,11.625,14.478c2.171,0,4.684-0.396,7.472-1.177
					c7.409-1.417,16.785-10.618,19.204-27.508c-5.483,2.072-11.222,3.124-17.068,3.124
					C371.842,187.889,361.576,184.285,353.947,177.945z"/>
			</g>
		</g>
		<g>
			<g>
				<g>
					<path fill="#4D4D4D" d="M462.809,163.446c-1.326-30.037-22.97-64.049-73.091-64.049c-42.878,0-52.034,40.363-53.681,51.188
						c1.672-0.894,3.135-1.979,3.754-2.048c0.22-3.976,6.405-29.264,28.049-40.528c4.417-2.208,20.318-5.792,23.411,21.287
						c3.755-8.035,26.723-27.912,47.042-4.722c7.067,8.834,10.16,33.35,1.987,43.067c7.802-1.561,16.756,4.346,15.892,18.476
						C461.203,178.87,463.882,171.102,462.809,163.446z"/>
				</g>
				<g>
					<path fill="#202020" d="M462.809,163.446c-1.326-30.037-23.419-62.553-73.541-62.553c-42.881,0-51.584,38.867-53.231,49.693
						c1.672-0.894,3.135-1.979,3.754-2.048c0.22-3.976,6.405-29.264,28.049-40.528c4.417-2.208,20.318-5.792,23.411,21.287
						c3.755-8.035,26.723-27.912,47.042-4.722c7.067,8.834,10.16,33.35,1.987,43.067c7.802-1.561,16.756,4.346,15.892,18.476
						C461.203,178.87,463.882,171.102,462.809,163.446z"/>
				</g>
				<g>
					<path fill="#141414" d="M446.797,163.207c3.644-14.227,2.34-30.231-6.074-41.724c-8.679-11.852-33.57-14.135-47.705-3.534
						c-1.113-8.904-9.471-12.287-16.269-15.141c-34.978,5.325-39.191,37.781-40.712,47.778c1.672-0.894,3.135-1.979,3.754-2.048
						c0.22-3.976,6.405-29.264,28.049-40.528c4.417-2.208,20.318-5.792,23.411,21.287c3.755-8.035,26.723-27.912,47.042-4.722
						c7.067,8.834,10.16,33.35,1.987,43.067c7.802-1.561,16.756,4.346,15.892,18.476c0.154-0.225,0.286-0.455,0.439-0.68
						C460.746,171.948,456.244,163.207,446.797,163.207z"/>
				</g>
				<g>
					<path fill="#070707" d="M455.635,187.667l0.096-1.577c0.473-7.714-2.024-12.098-4.204-14.414
						c-2.328-2.473-5.449-3.836-8.788-3.836c-0.792,0-1.591,0.078-2.372,0.234l-1.234,0.246l0.811-0.963
						c8.3-9.869,4.765-34.061-1.993-42.507c-6.225-7.104-13.209-10.713-20.747-10.713c-12.239,0-22.979,9.837-25.552,15.347
						l-0.66,1.417l-0.18-1.553c-2.223-19.484-11.171-22.393-16.304-22.393c-3.312,0-5.788,1.108-6.469,1.449
						c-21.478,11.176-27.577,36.045-27.807,40.156l-0.021,0.375l-0.37,0.041c-0.281,0.031-1.034,0.487-1.761,0.93
						c-0.553,0.337-1.179,0.716-1.834,1.069l-0.777,0.413l0.132-0.872c0.774-5.081,3.437-18.16,11.452-29.836
						c9.896-14.416,24.25-21.727,42.667-21.727c48.831,0,72.116,32.381,73.532,64.471c1.026,7.31-1.23,15.043-6.716,22.944
						L455.635,187.667z M442.738,166.957c3.585,0,6.935,1.462,9.431,4.115c2.145,2.282,4.586,6.44,4.5,13.515
						c4.728-7.266,6.647-14.351,5.703-21.081c-1.401-31.709-24.405-63.667-72.654-63.667c-41.222,0-50.975,37.062-53.104,49.915
						c0.354-0.205,0.69-0.411,1.006-0.6c0.733-0.448,1.312-0.799,1.755-0.961c0.5-5.022,6.914-29.465,28.262-40.574
						c0.73-0.366,3.362-1.546,6.87-1.546c5.302,0,14.445,2.871,17.012,21.803c3.526-5.808,13.941-14.622,25.684-14.622
						c7.804,0,15.013,3.712,21.424,11.029c6.742,8.427,10.321,32.11,2.685,42.753C441.785,166.983,442.264,166.957,442.738,166.957z
						"/>
				</g>
			</g>
		</g>
		<g>
			<g>
				<path fill="#F9E1BD" d="M348.312,171.16c0,0,16.764,26.264,52.378,12.366L348.312,171.16z"/>
			</g>
			<g>
				<path fill="#BD7F4C" d="M380.924,187.992c-22.071,0-32.849-16.383-32.983-16.593l0.745-0.477
					c0.165,0.261,17.004,25.788,51.847,12.194l0.32,0.821C393.409,186.842,386.771,187.992,380.924,187.992z"/>
			</g>
		</g>
		<g>
			<g>
				<path fill="#F9E1BD" d="M359.3,162.856c0,0,14.533-15.459,35.169,1.472L359.3,162.856z"/>
			</g>
			<g>
				<path fill="#BD7F4C" d="M394.187,164.671c-20.084-16.481-34.424-1.662-34.565-1.512c0,0,2.13-3.474,6.81-5.392
					c5.153-2.111,12.695-3.149,21.718,1.731C391.196,161.152,394.187,164.671,394.187,164.671z"/>
			</g>
		</g>
		<g>
			<g>
				<path fill="#EFC197" d="M370.474,147.577c-4.183,11.065-12.471,18.521-18.509,16.651c-6.043-1.87-7.548-12.356-3.365-23.421
					c4.183-11.068,12.47-18.521,18.51-16.651C373.149,126.024,374.657,136.509,370.474,147.577z"/>
			</g>
			<g>
				<path fill="#E6E8E7" d="M368.468,147.247c-3.514,9.733-10.475,16.29-15.549,14.646c-5.073-1.645-6.338-10.869-2.825-20.601
					c3.514-9.733,10.475-16.289,15.55-14.644C370.717,128.292,371.98,137.514,368.468,147.247z"/>
			</g>
			<g>
				<path fill="#FCFEFD" d="M367.645,149.311c0.29-0.671,0.568-1.356,0.823-2.064c3.513-9.733,2.249-18.955-2.824-20.599
					c-5.075-1.645-12.036,4.911-15.55,14.644c-1.429,3.955-2.054,7.816-1.968,11.13
					C354.824,154.464,361.296,152.618,367.645,149.311z"/>
			</g>
			<g>
				<path fill="#A56332" d="M354.549,162.563c-0.613,0-1.21-0.093-1.774-0.276c-5.293-1.714-6.685-11.194-3.099-21.132
					c3.175-8.795,9.203-15.18,14.335-15.18c0.614,0,1.212,0.091,1.773,0.276c5.298,1.717,6.688,11.196,3.102,21.131
					C365.709,156.18,359.68,162.563,354.549,162.563z M364.011,126.812c-4.689,0-10.492,6.285-13.5,14.615
					c-3.428,9.501-2.284,18.502,2.551,20.07c0.473,0.152,0.973,0.229,1.487,0.229c4.688,0,10.494-6.282,13.502-14.616
					c3.428-9.497,2.281-18.501-2.553-20.068C365.029,126.89,364.528,126.812,364.011,126.812z"/>
			</g>
		</g>
		<g>
			<g>
				
					<ellipse transform="matrix(0.9587 0.2843 -0.2843 0.9587 57.2748 -95.5972)" fill="#05DBFA" cx="357.938" cy="149.494" rx="5.82" ry="10.431"/>
			</g>
			<g>
				<path fill="#05B3FA" d="M363.655,150.631c1.417-5.329,0.231-10.252-2.753-11.137c-3.082-0.914-6.909,2.823-8.545,8.345
					c-0.432,1.46-0.663,2.892-0.722,4.235C355.45,153.48,360.149,152.905,363.655,150.631z"/>
			</g>
			<g>
				<path fill="#059AC9" d="M355.931,160.024c-0.363,0-0.724-0.051-1.067-0.155c-1.633-0.483-2.823-2.041-3.35-4.386
					c-0.509-2.269-0.343-5.02,0.469-7.754c1.503-5.079,4.855-8.766,7.962-8.766c0.366,0,0.725,0.051,1.067,0.154
					c3.286,0.974,4.578,6.418,2.882,12.141C362.389,156.338,359.041,160.024,355.931,160.024z M359.944,139.746
					c-2.724,0-5.826,3.527-7.213,8.206c-0.771,2.608-0.933,5.222-0.453,7.358c0.463,2.057,1.458,3.409,2.805,3.81
					c0.273,0.079,0.558,0.121,0.848,0.121c2.728,0,5.827-3.527,7.215-8.204c1.57-5.308,0.516-10.317-2.355-11.17
					C360.52,139.788,360.234,139.746,359.944,139.746z"/>
			</g>
		</g>
		<g>
			<g>
				<ellipse fill="#EFC197" cx="411.182" cy="155.147" rx="16.995" ry="24.369"/>
			</g>
			<g>
				<ellipse fill="#E6E8E7" cx="411.128" cy="156.321" rx="13.839" ry="21.871"/>
			</g>
			<g>
				<path fill="#FCFEFD" d="M424.893,154.03c-0.726-11.001-6.611-19.577-13.765-19.577c-7.643,0-13.839,9.79-13.839,21.868
					c0,5.021,1.08,9.633,2.882,13.323C410.86,167.887,420.744,163.751,424.893,154.03z"/>
			</g>
			<g>
				<path fill="#A56332" d="M411.128,178.611c-7.875,0-14.281-10-14.281-22.29c0-12.29,6.406-22.289,14.281-22.289
					s14.281,9.999,14.281,22.289C425.409,168.612,419.003,178.611,411.128,178.611z M411.128,134.874
					c-7.389,0-13.398,9.622-13.398,21.447c0,11.827,6.01,21.447,13.398,21.447c7.388,0,13.398-9.621,13.398-21.447
					C424.526,144.496,418.516,134.874,411.128,134.874z"/>
			</g>
		</g>
		<g>
			<g>
				<ellipse fill="#05DBFA" cx="411.127" cy="161.777" rx="8.061" ry="12.797"/>
			</g>
			<g>
				<path fill="#05B3FA" d="M419.175,162.305c0.002-0.176,0.014-0.35,0.014-0.528c0-7.067-3.607-12.797-8.061-12.797
					c-4.452,0-8.062,5.729-8.062,12.797c0,1.957,0.284,3.806,0.78,5.463C409.57,169.238,415.923,167.899,419.175,162.305z"/>
			</g>
			<g>
				<path fill="#059AC9" d="M411.128,175.014c-4.688,0-8.503-5.938-8.503-13.237c0-7.3,3.814-13.239,8.503-13.239
					c4.688,0,8.503,5.939,8.503,13.239C419.631,169.076,415.815,175.014,411.128,175.014z M411.128,149.421
					c-4.201,0-7.619,5.543-7.619,12.356s3.418,12.355,7.619,12.355s7.619-5.542,7.619-12.355S415.329,149.421,411.128,149.421z"/>
			</g>
		</g>
		<g>
			<ellipse cx="410.962" cy="164.771" rx="5.466" ry="7.177"/>
		</g>
		<g>
			<ellipse fill="#FFFFFF" cx="411.055" cy="158.868" rx="3.282" ry="3.337"/>
		</g>
		<g>
			<ellipse fill="#FFFFFF" cx="405.721" cy="162.096" rx="2.052" ry="2.233"/>
		</g>
		<g>
			<ellipse transform="matrix(0.9787 0.2053 -0.2053 0.9787 38.8568 -70.0512)" cx="356.933" cy="152.185" rx="3.66" ry="5.672"/>
		</g>
		<g>
			<ellipse fill="#FFFFFF" cx="357.758" cy="147.291" rx="2.413" ry="2.202"/>
		</g>
		<g>
			<ellipse fill="#FFFFFF" cx="354.396" cy="149.989" rx="1.222" ry="1.291"/>
		</g>
		<g>
			<g>
				<path fill="#141414" d="M411.569,110.771c0,0,9.056-17.337,31.582-22.195c5.744-1.326,11.485,1.213,8.504,7.398
					C449.005,101.606,421.729,94.539,411.569,110.771z"/>
			</g>
			<g>
				<path fill="#202020" d="M411.569,110.771c0.439-0.704,0.923-1.349,1.425-1.969c-0.203,0.212-0.422,0.406-0.621,0.621
					C411.833,110.269,411.569,110.771,411.569,110.771z"/>
				<path fill="#202020" d="M443.151,88.576c-18.725,4.039-28.135,16.689-30.778,20.848c0.199-0.215,0.418-0.409,0.621-0.621
					c1.31-1.617,2.808-2.972,4.448-4.083c9.588-7.768,21.712-11.833,34.047-14.512C449.885,88.363,446.525,87.796,443.151,88.576z"
					/>
				<path fill="#C1C1C1" d="M450.832,89.597c-1.555-1.191-4.036-1.599-6.64-1.209C444.919,91.942,450.832,90.618,450.832,89.597z"/>
			</g>
			<g>
				<path fill="#070707" d="M411.944,111.006l-0.767-0.439c0.092-0.175,9.411-17.576,31.881-22.423
					c1.01-0.233,2.027-0.352,3.016-0.352c2.859,0,5.107,0.972,6.171,2.663c0.662,1.053,1.165,2.897-0.191,5.71
					c-1.093,2.326-5.418,2.658-11.402,3.116C431.178,100.006,418.204,101.002,411.944,111.006z M446.074,88.675
					c-0.922,0-1.87,0.112-2.822,0.33c-13.657,2.946-22.365,10.601-27.036,16.046c6.999-5.318,16.783-6.07,24.367-6.651
					c5.257-0.402,9.796-0.75,10.675-2.614c0.934-1.943,1.017-3.622,0.239-4.863C450.611,89.516,448.585,88.675,446.074,88.675z"/>
			</g>
		</g>
		<g>
			<g>
				<path fill="#141414" d="M380.028,105.471c0,0-9.055-17.337-31.582-22.196c-5.743-1.326-11.485,1.215-8.504,7.398
					C342.594,96.305,369.868,89.237,380.028,105.471z"/>
			</g>
			<g>
				<path fill="#2D2D2D" d="M378.817,103.498c-3.124-4.682-12.51-16.37-30.371-20.223c-4.458-1.029-8.899,0.284-9.273,3.812
					C354.174,88.991,368.742,92.433,378.817,103.498z"/>
				<path fill="#C1C1C1" d="M351.273,83.98c-0.921-0.255-1.856-0.497-2.827-0.706c-4.435-1.023-8.843,0.275-9.259,3.759
					C343.592,87.229,348.289,86.506,351.273,83.98z"/>
				<path fill="#202020" d="M339.173,87.086c-0.109,1.014,0.104,2.205,0.769,3.587c2.651,5.632,29.926-1.436,40.086,14.798
					c0,0-0.396-0.751-1.211-1.973C368.742,92.433,354.174,88.991,339.173,87.086z"/>
			</g>
			<g>
				<path fill="#070707" d="M379.654,105.706c-6.26-10.003-19.234-11.001-28.709-11.725c-5.983-0.459-10.307-0.79-11.401-3.12
					c-1.356-2.809-0.852-4.655-0.189-5.708c1.062-1.692,3.309-2.663,6.169-2.663c0.987,0,2.007,0.12,3.02,0.354
					c22.467,4.845,31.785,22.246,31.878,22.42L379.654,105.706z M345.523,83.374c-2.511,0-4.537,0.841-5.422,2.249
					c-0.778,1.241-0.696,2.919,0.239,4.859c0.879,1.866,5.418,2.215,10.674,2.617c7.585,0.582,17.368,1.332,24.368,6.652
					c-4.67-5.443-13.377-13.099-27.03-16.045C347.395,83.487,346.446,83.374,345.523,83.374z"/>
			</g>
		</g>
		<g>
			
				<ellipse transform="matrix(0.7751 -0.6318 0.6318 0.7751 -18.2155 362.8814)" fill="#212121" cx="500.649" cy="207.029" rx="7.214" ry="9.275"/>
		</g>
		<g>
			
				<ellipse transform="matrix(0.8502 -0.5264 0.5264 0.8502 -50.5228 312.9081)" fill="#212121" cx="524.612" cy="245.238" rx="11.042" ry="16.494"/>
		</g>
		<g>
			<ellipse fill="#262626" cx="542.149" cy="284.175" rx="6.312" ry="11.039"/>
		</g>
		<g opacity="0.32">
			<path fill="#FFFFFF" d="M531.716,225.727c-20.635-27.991-43.312-39.267-61.578-42.037c2.167,2.428,1.9,3.157,2.566,4.415
				c51.419,27.438,71.765,55.167,75.22,109C553.759,277.476,551.446,252.489,531.716,225.727z"/>
		</g>
		<g>
			<g>
				<path fill="#202020" d="M413.904,119.203c1.084-4.682,18.32,2.564,14.271,12.879
					C422.09,119.711,413.431,121.243,413.904,119.203z"/>
			</g>
			<g>
				<path fill="#070707" d="M428.222,133.174l-0.441-0.899c-4.069-8.27-9.279-10.197-12.078-11.231
					c-1.433-0.529-2.467-0.913-2.229-1.941c0.27-1.158,1.321-1.795,2.965-1.795c3.227,0,8.38,2.449,11.079,6.407
					c1.834,2.69,2.204,5.639,1.07,8.528L428.222,133.174z M416.438,118.19c-0.842,0-1.891,0.192-2.103,1.114
					c-0.063,0.268,0.743,0.567,1.674,0.91c2.802,1.039,7.931,2.934,12.076,10.722c0.745-2.847-0.257-5.196-1.299-6.722
					C424.329,120.611,419.451,118.19,416.438,118.19z"/>
			</g>
		</g>
		<g>
			<g>
				<path fill="#202020" d="M376.735,115.308c0.556-4.777-18.114-3.749-17.77,7.327
					C368.856,113.032,376.496,117.385,376.735,115.308z"/>
			</g>
			<g>
				<path fill="#070707" d="M358.556,123.65l-0.032-1.001c-0.079-2.511,0.759-4.688,2.487-6.468
					c2.872-2.966,7.481-4.016,10.554-4.016c2.357,0,4.205,0.556,5.07,1.524c0.424,0.477,0.611,1.055,0.541,1.669
					c-0.122,1.049-1.225,1.062-2.752,1.079c-2.984,0.034-8.539,0.096-15.151,6.514L358.556,123.65z M371.564,113.047
					c-2.899,0-7.238,0.98-9.921,3.748c-1.313,1.354-2.054,2.963-2.209,4.792c6.522-5.94,11.99-6,14.98-6.035
					c0.993-0.01,1.851-0.021,1.881-0.297c0.045-0.366-0.061-0.687-0.321-0.978C375.288,113.506,373.639,113.047,371.564,113.047z"/>
			</g>
		</g>
		<g>
			<g>
				<path fill="#F9E1BD" d="M344.431,156.984c0,0,12.395-1.451,13.206,8.414h-8.884L344.431,156.984z"/>
			</g>
			<g>
				<path fill="#BD7F4C" d="M357.461,165.839c-0.766-9.321-13.079-8.752-13.597-8.726c0,0,5.105-1.469,9.957,1.396
					C359.3,162.856,357.461,165.839,357.461,165.839z"/>
			</g>
		</g>
		<g>
			<g>
				<path fill="#F9E1BD" d="M401.079,176.544c0,0,13.679-5.147,18.829,1.625l-9.995,4.915L401.079,176.544z"/>
			</g>
			<g>
				<path fill="#BD7F4C" d="M420.054,178.436c-4.903-6.44-19.079-1.81-19.222-1.761c0,0,4.495-2.564,10.297-2.564
					C418.12,174.11,420.054,178.436,420.054,178.436z"/>
			</g>
		</g>
		<g>
			<g>
				<path fill="#F9E1BD" d="M339.791,169.63c0,0,7.067,3.975,11.484,0H339.791z"/>
			</g>
			<g>
				<path fill="#BD7F4C" d="M346.008,171.847c-4.008-0.155-6.002-2.602-6.002-2.602c0.068,0.037,6.846,3.771,10.975,0.055
					C350.98,169.3,350.501,171.396,346.008,171.847z"/>
			</g>
		</g>
		<g>
			<g>
				<path fill="#F9E1BD" d="M399.201,181.999c0,0,4.417,5.742,12.59,5.962L399.201,181.999z"/>
			</g>
			<g>
				<path fill="#BD7F4C" d="M404.127,186.443c-4.647-2.456-4.575-4.714-4.575-4.714c0.042,0.055,4.396,5.578,12.25,5.79
					C411.802,187.519,407.595,188.367,404.127,186.443z"/>
			</g>
		</g>
		<ellipse fill="#FCC5DD" cx="368.574" cy="202.824" rx="4.268" ry="1.391"/>
		
			<ellipse transform="matrix(0.9951 0.0985 -0.0985 0.9951 18.155 -36.1758)" fill="#F9EEE1" cx="375.569" cy="165.838" rx="9.573" ry="5.077"/>
	</g>
	<path fill="#262626" d="M496.589,259.427c7.211,7.785,7.927,18.851,1.6,24.707c-6.328,5.862-17.303,4.301-24.513-3.482
		c-7.211-7.789-7.928-18.851-1.601-24.71S489.38,251.642,496.589,259.427z"/>
	
		<ellipse transform="matrix(0.9487 -0.3163 0.3163 0.9487 -60.8264 146.1007)" fill="#202020" cx="419.631" cy="260.418" rx="15.616" ry="19.214"/>
	
		<ellipse transform="matrix(0.917 -0.3988 0.3988 0.917 -85.4718 224.6015)" fill="#262626" cx="497.026" cy="317.707" rx="10.787" ry="13.273"/>
	<path fill="#202020" d="M463.043,301.362c6.609,6.677,7.562,16.445,2.136,21.812c-5.426,5.374-15.185,4.311-21.788-2.364
		c-6.609-6.679-7.567-16.447-2.139-21.816C446.681,293.626,456.436,294.688,463.043,301.362z"/>
</g>
</svg>
