<svg version="1.1" id="Layer_1" xmlns="http://www.w3.org/2000/svg" xmlns:xlink="http://www.w3.org/1999/xlink" viewBox="0 0 768 430" enable-background="new 0 0 768 430" xml:space="preserve">
<g transform="translate(-233.55 -333.18)">
	<g transform="matrix(-.59503 -.8037 .8037 -.59503 485.54 839.44)">
		<path fill="#FFFFFF" stroke="#FFFFFF" stroke-width="3.5216" stroke-linecap="round" d="M26.676,476.817
			c35.601,34.1,147.339,24.826,171.952,4.047c-3.948-65.02-4.669-133.505-19.198-198.527c-9.532-3.741-19.516-6.597-29.861-8.465
			c-30.72-5.553-64.65-2.429-99.517,11.93c-22.726,57.231-22.583,125.272-23.374,191.013L26.676,476.817z"/>
		<path fill="#FFFFFF" stroke="#FFFFFF" stroke-width="3.4453" stroke-linecap="round" d="M77.917,273.889l4.29-44.478
			c24.493-8.799,39.826-3.244,60.039-0.754l6.861,45.233C124.042,270.114,100.701,271.645,77.917,273.889L77.917,273.889z"/>
		<path fill="#70B8B6" stroke="#FFFFFF" stroke-width="3.6619" stroke-linecap="round" d="M95.136,225.899
			c3.246-19.762,0.85-40.455,18.804-58.117c12.877,10.566,15.844,21.541,17.948,57.263L95.136,225.899L95.136,225.899z"/>
		<path fill="#70B8B6" stroke="#FFFFFF" stroke-width="3.6619" stroke-linecap="round" d="M54.109,337.863l-7.692,95.727
			l129.054-10.255l-5.983-82.904l-115.381-2.565L54.109,337.863z"/>
		<path opacity="0.461" fill="#F2F2F2" enable-background="new    " d="M105.814,187.252l-4.1,31.813l8.374-1.519l2.389-39.934
			L105.814,187.252L105.814,187.252z"/>
		<path fill="#F2F2F2" d="M85.11,233.963l0.206,32.668l9.868-1.519l-0.204-32.667L85.11,233.963z"/>
	</g>
	<path fill="#FFDD55" d="M399.813,663.662c3.781-12.607,42.312-19.273,64.101-17.096c9.99,1,18.27,5.77,27.35,9.402
		c13.399,5.361,29.397,4.273,43.589,4.273c1.782,0,8.451,1.047,9.402-0.854c0.566-1.133,5.923-12.027,6.838-11.111
		c0.77,0.77,0,7.602,0,8.547c0,19.459-29.336,22.221-46.153,22.221c-16.65,0-42.961-9.326-58.119-4.273
		c-15.26,5.088,8.632,29.914-25.641,29.914C394.833,704.686,374.032,663.662,399.813,663.662L399.813,663.662z"/>
</g>
</svg>
