<svg version="1.1" id="Layer_1" xmlns="http://www.w3.org/2000/svg" xmlns:xlink="http://www.w3.org/1999/xlink" viewBox="0 0 768 430" enable-background="new 0 0 768 430" xml:space="preserve">
<g>
	<g>
		<g>
			<path fill="#FDD25E" d="M512.466,128.254c-4.104-12.416,14.386-17.482,14.396-17.765c23.221-5.464,26.15,13.432,5.276,33.346
				c-8.5,7.616-4.002,15.106-8.436,20.953c-13.614,17.353-34.329,16.763-34.045,16.639c-0.096,0.06-11.981-3.895-18.718,1.958
				c-6.031,5.296-15.867,8.608-24.087,6.316c-5.704-1.585-9.711-4.686-14.774-6.806c-9.172-3.91-18.706,1.229-27.325-2.809
				c-7.397-3.562-5.898-9.596-2.354-14.805c3.132-4.831-1.23-11.402-11.126-8.526c-16.974,4.47-27.42-13.289-13.579-19.194
				c2.057-0.967,5.033-0.727,6.665-2.134c11.763-10.563-3.218-14.286-1.662-20.596c0.007-0.032,0.014-0.068,0.025-0.115
				c1.505-5.656,8.322-9.614,14.445-8.791c1.8,0.372,3.604,0.717,5.413,1.037c0.04,0.025,5.297-3.557,5.318,3.974
				c-0.062,7.56,0.841,30.115,3.701,32.373c2.476,1.738,11.514,23.589,46.98,20.879c36.943-4.783,40.045-3.827,51.027-17.667
				C520.194,131.425,512.26,128.24,512.466,128.254z"/>
		</g>
		<g>
			<path fill="#D7A438" d="M433.776,116.925c2.161-4.534-1.987-9.342-8.681-11.184c-6.592-1.794-13.578-0.262-16.168,3.796
				c-2.56,4.021,0.567,9.419,7.577,11.686C423.631,123.542,431.642,121.425,433.776,116.925z"/>
		</g>
		<g>
			<path fill="#FDD25E" d="M522.495,111.143c-1.827-5.866-10.555-6.429-19.647-2.349c-8.889,4.022-15.662,11.223-15.057,17.087
				c0.072,0.707,0.27,1.361,0.568,1.962c-0.092,0.018-0.181,0.043-0.271,0.062c-0.088-0.09,6.271,11.513-7.881,16.152
				c-28.316,8.693-52.773-3.007-41.614-26.074c-0.06-0.012-0.12-0.028-0.178-0.042c2.487-5.517-3.584-11.254-12.569-13.693
				c-8.13-2.175-16.376-1.164-20.074,2.737c-0.061-0.027-0.122-0.05-0.183-0.077c0.026,0.042,0.007,0.152-0.054,0.326
				c-0.211,0.246-0.415,0.499-0.592,0.766c-0.608,0.911-0.924,1.906-0.981,2.939c-3.822,9.277-11.085,32.582,15.542,49.946
				c39.619,23.541,84.955,4.014,95.847-13.812c8.608-12.664,5.554-20.811,3.004-24.607
				C521.825,118.638,523.509,114.395,522.495,111.143z"/>
		</g>
		<g opacity="0.75">
			<path fill="#FFFBD6" d="M455.058,155.917c0,0,0.825,0.47,2.395,1.084c1.574,0.606,3.913,1.322,6.917,1.789
				c2.991,0.454,6.651,0.656,10.686,0.244c1.011-0.113,2.039-0.231,3.082-0.438c1.046-0.176,2.106-0.396,3.168-0.69
				c1.06-0.264,2.145-0.606,3.197-0.966c1.059-0.42,2.12-0.79,3.156-1.29c2.067-0.949,4.039-2.157,5.802-3.488
				c0.848-0.712,1.72-1.373,2.415-2.159c0.361-0.382,0.716-0.761,1.07-1.135c0.34-0.384,0.61-0.79,0.907-1.186
				c1.18-1.573,1.928-3.209,2.432-4.715c0.457-1.521,0.646-2.941,0.616-4.196c-0.006-1.259-0.24-2.36-0.483-3.293
				c-0.327-0.925-0.576-1.712-0.935-2.316c-0.697-1.218-1.196-1.844-1.196-1.844s-0.38,0.82-0.904,2.134
				c-0.242,0.655-0.668,1.437-1.031,2.292c-0.178,0.432-0.453,0.87-0.693,1.331c-0.256,0.456-0.46,0.93-0.804,1.401
				c-1.145,1.902-2.711,3.846-4.693,5.529c-0.945,0.873-2.126,1.619-3.276,2.403c-1.258,0.71-2.497,1.47-3.945,2.077
				c-1.387,0.67-2.895,1.239-4.431,1.786c-1.531,0.545-3.119,1.013-4.688,1.474c-3.151,0.877-6.283,1.586-9.051,2.179
				c-2.772,0.579-5.189,1.06-6.928,1.408C456.105,155.684,455.062,155.914,455.058,155.917z"/>
		</g>
		<g opacity="0.75">
			<path fill="#FFFBD6" d="M416.008,115.025c0,0-0.687-0.039-1.8,0.192c-0.531,0.135-1.211,0.305-1.891,0.617
				c-0.708,0.288-1.441,0.703-2.202,1.225c-0.73,0.536-1.502,1.18-2.172,1.98c-0.344,0.391-0.65,0.831-0.988,1.271
				c-0.311,0.454-0.538,0.967-0.82,1.475c-0.123,0.255-0.275,0.511-0.391,0.784c-0.092,0.279-0.185,0.561-0.277,0.842
				c-0.185,0.569-0.362,1.152-0.511,1.758c-0.171,1.223-0.357,2.498-0.286,3.798c0.131,1.3,0.171,2.621,0.578,3.892
				c0.173,0.642,0.367,1.271,0.581,1.894c0.104,0.308,0.21,0.615,0.315,0.922c0.125,0.296,0.277,0.597,0.423,0.888
				c0.578,1.171,1.167,2.285,1.833,3.3c0.718,0.994,1.453,1.91,2.167,2.729c0.363,0.404,0.697,0.794,1.054,1.148
				c0.382,0.342,0.733,0.668,1.088,0.963c0.7,0.593,1.329,1.087,1.877,1.474c1.089,0.778,1.78,1.164,1.78,1.164
				s0.023-0.678-0.052-1.768c-0.037-0.545-0.105-1.184-0.206-1.896c-0.118-0.708-0.24-1.491-0.307-2.332
				c-0.1-0.835-0.234-1.708-0.407-2.611c-0.124-0.896-0.193-1.825-0.365-2.758c-0.221-0.938-0.168-1.859-0.338-2.797
				c-0.195-0.947-0.118-1.84-0.258-2.767c-0.094-0.92-0.05-1.786-0.135-2.694c0.072-0.846-0.054-1.765,0.047-2.583
				c0.017-0.421,0.045-0.839,0.048-1.265c0.04-0.407,0.108-0.799,0.122-1.213c0.003-0.424,0.095-0.793,0.139-1.179
				c0.048-0.386,0.081-0.784,0.154-1.137c0.127-0.734,0.237-1.438,0.384-2.059c0.112-0.649,0.281-1.191,0.383-1.688
				c0.141-0.464,0.215-0.893,0.306-1.142C415.963,115.173,416.008,115.028,416.008,115.025z"/>
		</g>
		<g opacity="0.44">
			<g>
				<path fill="#CAC0A6" d="M400.528,124.436c0,0-0.25,0.59-0.596,1.759c-0.334,1.164-0.818,2.889-1.148,5.144
					c-0.335,2.247-0.627,5.028-0.464,8.243c0.148,3.207,0.63,6.879,1.999,10.717c1.356,3.836,3.53,7.862,6.768,11.599
					c3.221,3.738,7.49,7.158,12.594,9.827c5.084,2.683,10.966,4.621,17.196,5.727c1.549,0.319,3.136,0.511,4.732,0.694
					c1.593,0.199,3.197,0.366,4.833,0.407c1.669,0.059,3.173,0.145,4.993,0.129c1.589-0.031,3.177-0.079,4.771-0.144
					c1.551-0.045,3.281-0.24,4.96-0.416c1.678-0.198,3.382-0.352,5.033-0.667c1.659-0.291,3.314-0.606,4.965-0.935
					c1.647-0.407,3.294-0.834,4.926-1.273c6.524-1.865,12.856-4.559,18.55-7.995c5.706-3.42,10.715-7.605,14.648-12.075
					c3.939-4.473,6.806-9.184,8.599-13.578c1.81-4.407,2.625-8.46,2.907-11.923c0.31-3.476,0.021-6.363-0.398-8.637
					c-0.413-2.281-1.062-3.927-1.571-4.995c-0.259-0.529-0.52-0.906-0.702-1.137c-0.211-0.221-0.33-0.307-0.33-0.307
					s0.375,0.492,0.577,1.683c0.245,1.166,0.39,2.958,0.35,5.271c-0.144,4.598-1.26,11.526-5.487,19.112
					c-2.086,3.777-5.015,7.637-8.709,11.218c-3.693,3.587-8.182,6.861-13.222,9.579c-5.038,2.726-10.622,4.848-16.415,6.406
					c-1.453,0.364-2.917,0.712-4.388,1.048c-1.479,0.278-2.97,0.54-4.458,0.789c-1.492,0.289-2.954,0.397-4.431,0.573
					c-1.481,0.156-2.917,0.323-4.503,0.375c-1.552,0.084-3.101,0.149-4.648,0.199c-1.308,0.027-2.901-0.029-4.331-0.061
					c-1.475-0.018-2.912-0.142-4.344-0.267c-1.434-0.117-2.869-0.242-4.246-0.49c-5.577-0.81-10.816-2.247-15.433-4.281
					c-4.607-2.035-8.592-4.65-11.766-7.604c-3.196-2.954-5.615-6.225-7.36-9.485c-3.494-6.559-4.343-12.882-4.608-17.25
					C400.154,127.007,400.531,124.436,400.528,124.436z"/>
			</g>
		</g>
		<g opacity="0.44">
			<path fill="#CAC0A6" d="M431.508,113.338c-0.012,0.014-0.121-0.009-0.467,0.119c-0.345,0.124-0.82,0.279-1.336,0.516
				c-0.54,0.242-1.166,0.551-1.85,0.979c-0.668,0.443-1.41,0.962-2.12,1.659c-0.761,0.649-1.406,1.526-2.104,2.457
				c-0.571,1.017-1.257,2.08-1.603,3.376c-0.486,1.24-0.649,2.66-0.775,4.118c-0.062,1.458,0.089,3.008,0.369,4.521
				c0.176,0.754,0.41,1.506,0.628,2.258c0.113,0.373,0.229,0.744,0.344,1.119c0.165,0.354,0.331,0.707,0.499,1.062
				c0.335,0.707,0.67,1.397,1.036,2.075c0.345,0.69,0.744,1.323,1.196,1.918c0.883,1.199,1.712,2.377,2.639,3.363
				c0.957,0.964,1.882,1.84,2.754,2.618c0.855,0.798,1.738,1.409,2.532,1.932c0.785,0.524,1.499,0.952,2.078,1.292
				c1.163,0.686,1.867,1.01,1.867,1.01c1.194,0.55,2.442,0.187,2.78-0.796c0.148-0.436,0.101-0.918-0.104-1.367
				c-0.033-0.072-0.064-0.143-0.098-0.215c0.005,0-0.288-0.637-0.837-1.638c-0.274-0.502-0.603-1.11-0.995-1.77
				c-0.395-0.66-0.854-1.383-1.227-2.2c-0.409-0.796-0.856-1.636-1.34-2.502c-0.457-0.866-0.773-1.784-1.224-2.681
				c-0.511-0.902-0.653-1.832-1.045-2.728c-0.085-0.226-0.169-0.454-0.255-0.682c-0.05-0.22-0.101-0.441-0.149-0.665
				c-0.111-0.443-0.203-0.884-0.34-1.324c-0.149-0.443-0.115-0.859-0.19-1.286c-0.034-0.418-0.212-0.863-0.159-1.261
				c0.013-0.403-0.023-0.815-0.04-1.223c-0.043-0.42,0.064-0.784,0.064-1.186c-0.007-0.802,0.22-1.524,0.295-2.28
				c0.22-0.694,0.32-1.436,0.577-2.059c0.187-0.658,0.446-1.239,0.649-1.786c0.233-0.516,0.416-1.022,0.605-1.39
				c0.098-0.183,0.173-0.362,0.243-0.518c0.055-0.139,0.102-0.253,0.142-0.348c0.055-0.183,0.187-0.346,0.171-0.333
				c1.058-0.727,1.181-2.234,0.305-3.367C434.15,112.998,432.586,112.644,431.508,113.338z"/>
		</g>
		<g opacity="0.62">
			<g>
				<path fill="#FFFBD6" d="M376.921,149.193c0,0,0.113-0.042,0.255-0.059c0.133-0.026,0.368-0.05,0.643-0.138
					c0.551-0.149,1.307-0.378,2.145-0.655c0.825-0.285,1.734-0.62,2.626-0.997c0.458-0.172,0.899-0.369,1.343-0.565
					c0.458-0.169,0.874-0.409,1.322-0.576c0.425-0.197,0.858-0.389,1.278-0.584c0.412-0.208,0.832-0.4,1.234-0.587
					c0.396-0.22,0.804-0.396,1.192-0.583c0.379-0.214,0.765-0.409,1.138-0.568c0.366-0.17,0.71-0.387,1.037-0.552
					c0.322-0.133,0.621-0.294,0.868-0.425c0.503-0.267,0.814-0.47,0.814-0.47c0.09-0.056,0.177-0.113,0.268-0.17
					c0.893-0.582,0.974-1.659,0.201-2.41c-0.124-0.119-0.266-0.228-0.412-0.316c0,0-0.357-0.215-1.028-0.509
					c-0.337-0.144-0.755-0.327-1.243-0.48c-0.487-0.16-1.049-0.286-1.675-0.407c-0.316-0.052-0.646-0.105-0.987-0.167
					c-0.336-0.018-0.688-0.042-1.05-0.064c-0.73-0.037-1.506-0.049-2.271,0.046c-0.781,0.066-1.593,0.17-2.353,0.375
					c-0.801,0.154-1.542,0.403-2.27,0.69c-0.747,0.259-1.399,0.611-2.06,0.956c-0.632,0.362-1.221,0.741-1.745,1.153
					c-1.039,0.82-1.844,1.694-2.381,2.528c-0.542,0.836-0.847,1.596-0.999,2.17c-0.087,0.269-0.116,0.531-0.162,0.707
					c-0.039,0.181-0.004,0.238-0.014,0.247c0.107,0.294,0.217,0.588,0.324,0.883c0.421,1.131,1.926,1.901,3.346,1.689
					C376.521,149.325,376.736,149.26,376.921,149.193z"/>
			</g>
		</g>
		<g opacity="0.62">
			<g>
				<path fill="#FFFBD6" d="M389.309,116.511c0,0,0.064-0.079,0.166-0.133c0.091-0.056,0.25-0.12,0.419-0.267
					c0.16-0.132,0.404-0.28,0.603-0.457c0.218-0.151,0.454-0.328,0.724-0.519c0.25-0.178,0.502-0.344,0.749-0.489
					c0.227-0.181,0.499-0.242,0.689-0.38c0.23-0.059,0.392-0.183,0.57-0.207c0.144-0.095,0.335-0.075,0.467-0.179
					c0.211-0.003,0.346-0.125,0.613-0.176c0.283,0,0.486-0.193,0.853-0.183c0.338-0.022,0.666-0.149,1.046-0.172
					c0.375-0.029,0.758-0.07,1.129-0.129c0.745-0.131,1.461-0.135,1.982-0.258c0.521-0.093,0.861-0.185,0.861-0.185
					c0.081-0.021,0.162-0.042,0.238-0.062c1.018-0.275,1.557-1.263,1.236-2.195c-0.043-0.118-0.094-0.237-0.162-0.343
					c0,0-0.176-0.292-0.548-0.735c-0.186-0.224-0.421-0.491-0.712-0.764c-0.286-0.283-0.599-0.613-1.039-0.88
					c-0.427-0.278-0.904-0.567-1.429-0.851c-0.53-0.271-1.204-0.459-1.873-0.66c-0.644-0.23-1.498-0.249-2.286-0.305
					c-0.806-0.056-1.726,0.124-2.581,0.289c-0.859,0.291-1.749,0.558-2.47,1.062c-0.775,0.445-1.376,1.004-1.917,1.567
					c-0.478,0.573-0.924,1.165-1.17,1.738c-0.295,0.568-0.464,1.126-0.582,1.632c-0.122,0.507-0.137,0.983-0.152,1.396
					c-0.016,0.412,0.03,0.774,0.08,1.078c0.037,0.283,0.111,0.563,0.151,0.739c0.042,0.178,0.1,0.225,0.1,0.225
					c0.258,0.283,0.53,0.555,0.801,0.829c0.843,0.855,2.27,0.956,3.176,0.234C389.135,116.694,389.232,116.599,389.309,116.511z"/>
			</g>
		</g>
		<g opacity="0.62">
			<g>
				<path fill="#FFFBD6" d="M409.29,177.101c0.006,0.013,0.018-0.099,0.104-0.159c0.067-0.061,0.206-0.187,0.293-0.359
					c0.23-0.337,0.488-0.802,0.796-1.304c0.269-0.502,0.588-1.035,0.84-1.555c0.162-0.257,0.24-0.522,0.396-0.773
					c0.114-0.257,0.23-0.513,0.352-0.77c0.078-0.265,0.265-0.506,0.316-0.789c0.12-0.268,0.237-0.535,0.312-0.828
					c0.11-0.28,0.237-0.565,0.321-0.865c0.065-0.313,0.23-0.583,0.316-0.879c0.101-0.288,0.151-0.601,0.262-0.855
					c0.115-0.25,0.175-0.502,0.238-0.717c0.121-0.429,0.163-0.73,0.163-0.73c0.016-0.084,0.03-0.174,0.046-0.264
					c0.16-1.004-0.835-1.938-2.208-2.099c-0.064-0.009-0.135-0.012-0.196-0.018c0,0-0.419-0.021-1.122,0.017
					c-0.7,0.051-1.709,0.121-2.785,0.462c-0.531,0.172-1.146,0.337-1.701,0.619c-0.552,0.281-1.153,0.585-1.704,0.958
					c-0.514,0.402-1.07,0.816-1.521,1.304c-0.431,0.497-0.895,1.003-1.178,1.577c-0.309,0.561-0.586,1.139-0.715,1.736
					c-0.179,0.589-0.226,1.178-0.222,1.75c0.007,0.569,0.106,1.123,0.252,1.633c0.153,0.511,0.354,0.984,0.609,1.413
					c0.491,0.854,1.114,1.507,1.631,1.944c0.237,0.208,0.496,0.388,0.666,0.535c0.177,0.145,0.255,0.138,0.258,0.152
					c0.524,1.02,2.137,1.602,3.571,1.279C409.121,179.194,409.828,178.107,409.29,177.101z"/>
			</g>
		</g>
		<g opacity="0.62">
			<g>
				<path fill="#FFFBD6" d="M438.728,175.119c0.003,0.009-0.075,0.046-0.197,0.192c-0.108,0.147-0.314,0.382-0.474,0.633
					c-0.377,0.52-0.779,1.273-1.072,2.213c-0.245,0.938-0.391,2.061-0.107,3.307c0.091,0.617,0.372,1.258,0.687,1.909
					c0.336,0.645,0.822,1.297,1.387,1.912c0.652,0.603,1.255,1.214,2.162,1.684c0.425,0.248,0.839,0.484,1.284,0.696
					c0.474,0.187,0.947,0.362,1.435,0.513c0.94,0.342,1.942,0.482,2.879,0.589c0.47,0.043,0.923,0.106,1.356,0.104
					c0.432-0.018,0.859-0.04,1.259-0.061c0.797-0.073,1.515-0.124,2.113-0.291c0.597-0.14,1.105-0.309,1.51-0.445
					c0.814-0.281,1.234-0.489,1.234-0.489c1.177-0.587,1.484-1.67,0.721-2.413c-0.099-0.093-0.204-0.175-0.322-0.251
					c-0.132-0.079-0.262-0.158-0.392-0.238c0,0-0.337-0.205-0.854-0.484c-0.257-0.136-0.555-0.303-0.885-0.445
					c-0.342-0.148-0.614-0.405-0.931-0.587c-0.322-0.186-0.641-0.37-0.867-0.614c-0.266-0.203-0.537-0.38-0.709-0.617
					c-0.093-0.112-0.218-0.191-0.328-0.281c-0.071-0.124-0.176-0.226-0.272-0.325c-0.22-0.17-0.361-0.446-0.61-0.634
					c-0.119-0.096-0.196-0.251-0.305-0.37c-0.108-0.129-0.261-0.22-0.343-0.376c-0.213-0.277-0.471-0.536-0.695-0.847
					c-0.527-0.649-1.019-1.259-1.433-1.785c-0.201-0.291-0.486-0.558-0.671-0.807c-0.184-0.251-0.418-0.472-0.566-0.653
					c-0.152-0.194-0.322-0.309-0.412-0.4c-0.102-0.091-0.158-0.181-0.158-0.181c-0.746-1.038-2.574-1.431-4.1-0.875
					c-0.23,0.081-0.441,0.184-0.631,0.298C439.188,174.839,438.957,174.979,438.728,175.119z"/>
			</g>
		</g>
		<g opacity="0.62">
			<g>
				<path fill="#FFFBD6" d="M485.178,174.377c0.016,0.007-0.014,0.066,0.152,0.274c0.178,0.208,0.33,0.452,0.607,0.737
					c0.276,0.264,0.604,0.624,1.071,0.934c0.449,0.343,1.015,0.655,1.679,0.979c0.675,0.284,1.437,0.613,2.325,0.811
					c0.873,0.235,1.842,0.401,2.883,0.489c1.032,0.124,2.144,0.077,3.268,0.056c1.115-0.108,2.279-0.201,3.393-0.443
					c1.115-0.25,2.253-0.468,3.283-0.857c1.038-0.359,2.078-0.708,2.977-1.169c0.913-0.443,1.784-0.888,2.551-1.349
					c0.744-0.484,1.424-0.966,2.029-1.419c0.613-0.446,1.109-0.902,1.52-1.327c0.429-0.404,0.762-0.789,1.038-1.098
					c0.542-0.619,0.798-1.01,0.798-1.01c0.63-0.97,0.169-1.943-1.005-2.183c-0.27-0.052-0.555-0.066-0.844-0.041
					c-0.079,0.007-0.156,0.015-0.235,0.021c0,0-0.518,0.051-1.346,0.19c-0.829,0.111-1.929,0.407-3.202,0.615
					c-0.626,0.119-1.283,0.259-1.96,0.423c-0.679,0.142-1.365,0.256-2.059,0.419c-0.689,0.192-1.387,0.25-2.073,0.418
					c-0.698,0.164-1.357,0.24-2.03,0.377c-0.674,0.148-1.305,0.181-1.955,0.324c-0.621,0.058-1.258,0.178-1.851,0.233
					c-0.294,0.03-0.602,0.059-0.896,0.108c-0.29,0.03-0.564,0.03-0.855,0.071c-0.581,0.072-1.101,0.073-1.628,0.127
					c-1.079,0.05-1.98,0.091-2.607,0.111c-0.298-0.005-0.603,0.018-0.714,0.047c-0.133,0.041-0.302,0.001-0.288,0.007
					c-1.024-0.656-2.729-0.495-3.841,0.355C484.255,172.463,484.158,173.701,485.178,174.377z"/>
			</g>
		</g>
		<g opacity="0.44">
			<g>
				<path fill="#CAC0A6" d="M521.666,152.2c-0.005-0.002,0.615-0.549,1.605-1.505c0.961-0.956,2.337-2.322,3.812-3.945
					c1.496-1.616,3.132-3.504,4.843-5.372c0.87-0.918,1.713-1.857,2.575-2.633c0.409-0.403,0.828-0.742,1.196-1.017
					c0.089-0.058,0.181-0.12,0.265-0.188c0.172-0.133,0.343-0.264,0.515-0.398c0.155-0.119,0.309-0.235,0.462-0.354
					c0.181-0.147,0.36-0.296,0.539-0.445c1.391-1.182,2.608-2.399,3.664-3.786c1.061-1.365,1.91-2.843,2.479-4.322
					c0.567-1.484,0.845-2.976,0.773-4.32c-0.047-1.349-0.418-2.547-0.99-3.481c-0.547-0.951-1.288-1.639-2.013-2.133
					c-0.718-0.495-1.461-0.778-2.081-0.954c-0.607-0.192-1.132-0.255-1.483-0.287c-0.355-0.041-0.549-0.032-0.549-0.032
					s0.227,0.646,0.494,1.632c0.119,0.509,0.22,1.103,0.262,1.749c0.051,0.646-0.002,1.358-0.132,2.066
					c-0.139,0.724-0.372,1.441-0.7,2.189c-0.326,0.742-0.769,1.494-1.28,2.281c-0.527,0.783-1.157,1.593-1.857,2.43
					c-0.71,0.815-1.547,1.709-2.371,2.52c-0.1,0.099-0.194,0.199-0.294,0.299c-0.134,0.124-0.264,0.246-0.397,0.368
					c-0.306,0.285-0.614,0.571-0.922,0.855c-0.724,0.705-1.355,1.388-1.88,2.048c-1.059,1.334-1.861,2.587-2.537,3.804
					c-1.352,2.423-2.223,4.637-2.821,6.549C521.636,149.633,521.659,152.202,521.666,152.2z"/>
			</g>
		</g>
		<g opacity="0.44">
			<g>
				<path fill="#CAC0A6" d="M382.235,155.992c0,0,0.615,0.113,1.562,0.228c0.957,0.124,2.246,0.251,3.654,0.319
					c2.816,0.156,6.131,0.07,8.453,0.156c0.594,0.002,1.084,0.06,1.57,0.079c0.461,0.045,0.9,0.063,1.355,0.139
					c0.454,0.059,0.94,0.171,1.465,0.324c0.511,0.164,1.061,0.374,1.6,0.615c0.511,0.255,1.076,0.506,1.546,0.773
					c0.461,0.269,0.985,0.492,1.341,0.717c0.355,0.227,0.72,0.392,0.937,0.514c0.244,0.118,0.375,0.185,0.375,0.185
					s0.063-0.101,0.148-0.292c0.072-0.187,0.231-0.479,0.318-0.836c0.121-0.366,0.177-0.81,0.203-1.336
					c0.037-0.527-0.089-1.116-0.265-1.784c-0.117-0.327-0.272-0.666-0.438-1.03c-0.199-0.354-0.458-0.705-0.718-1.084
					c-0.295-0.36-0.668-0.717-1.047-1.085c-0.42-0.346-0.866-0.696-1.382-1.006c-1.023-0.642-2.231-1.138-3.494-1.494
					c-1.251-0.317-2.554-0.524-3.758-0.551c-1.224-0.044-2.374,0.043-3.437,0.205c-1.069,0.164-2.038,0.418-2.932,0.712
					c-1.775,0.592-3.186,1.388-4.253,2.195c-1.071,0.803-1.787,1.639-2.215,2.272c-0.232,0.296-0.361,0.589-0.461,0.77
					C382.267,155.881,382.233,155.992,382.235,155.992z"/>
			</g>
		</g>
		<g opacity="0.44">
			<g>
				<path fill="#CAC0A6" d="M387.064,119.106c0,0,0.026,0.088,0.086,0.247c0.064,0.152,0.127,0.421,0.261,0.673
					c0.269,0.545,0.585,1.247,0.943,1.938c0.181,0.355,0.404,0.698,0.603,1.045c0.2,0.343,0.423,0.669,0.622,0.981
					c0.218,0.312,0.386,0.606,0.612,0.867c0.173,0.272,0.393,0.511,0.565,0.735c0.216,0.219,0.379,0.429,0.595,0.63
					c0.214,0.202,0.418,0.401,0.68,0.614c0.211,0.222,0.516,0.44,0.756,0.697c0.277,0.251,0.552,0.515,0.818,0.794
					c0.563,0.547,1.113,1.137,1.527,1.58c0.184,0.219,0.416,0.413,0.54,0.542c0.135,0.135,0.205,0.203,0.205,0.203
					s0.088-0.044,0.253-0.125c0.149-0.083,0.437-0.21,0.675-0.395c0.267-0.183,0.596-0.41,0.845-0.715
					c0.28-0.299,0.611-0.655,0.816-1.09c0.118-0.214,0.212-0.439,0.321-0.689c0.08-0.245,0.132-0.507,0.196-0.783
					c0.123-0.543,0.1-1.157,0.023-1.781c-0.089-0.628-0.288-1.277-0.6-1.896c-0.309-0.612-0.707-1.227-1.184-1.742
					c-0.467-0.542-1.015-0.982-1.567-1.393c-0.569-0.366-1.152-0.717-1.75-0.93c-1.174-0.499-2.334-0.67-3.35-0.692
					c-0.507-0.02-1.013,0.044-1.431,0.093c-0.422,0.025-0.774,0.163-1.078,0.242c-0.291,0.072-0.56,0.194-0.725,0.253
					C387.155,119.068,387.061,119.107,387.064,119.106z"/>
			</g>
		</g>
		<g opacity="0.44">
			<g>
				<path fill="#CAC0A6" d="M418.863,178.12c0,0,0.118-0.002,0.341-0.005c0.205-0.009,0.57,0.009,0.919-0.025
					c0.749-0.034,1.695-0.137,2.689-0.298c1.962-0.34,3.86-1.055,5.064-1.944c0.601-0.446,1.074-0.902,1.34-1.381
					c0.145-0.224,0.232-0.466,0.3-0.683c0.057-0.224,0.089-0.459,0.116-0.68c0.039-0.231,0.09-0.48,0.253-0.703
					c0.136-0.188,0.405-0.403,0.67-0.517c0.257-0.122,0.555-0.217,0.754-0.265c0.207-0.052,0.324-0.068,0.324-0.068
					s0-0.086,0.01-0.239c-0.013-0.149,0.021-0.436-0.154-0.686c-0.14-0.282-0.417-0.626-0.916-0.91
					c-0.476-0.287-1.174-0.556-1.916-0.674c-0.768-0.131-1.548-0.151-2.323-0.104c-0.768,0.055-1.501,0.175-2.182,0.354
					c-1.369,0.34-2.513,0.894-3.431,1.529c-0.908,0.646-1.604,1.374-2.019,2.161c-0.437,0.771-0.629,1.582-0.636,2.333
					c0.003,0.759,0.17,1.451,0.376,1.965c0.069,0.246,0.233,0.479,0.297,0.62C418.817,178.042,418.865,178.12,418.863,178.12z"/>
			</g>
		</g>
		<g opacity="0.44">
			<g>
				<path fill="#CAC0A6" d="M467.667,184.017c0,0-0.003-0.087,0.021-0.244c0.019-0.142,0.117-0.402,0.183-0.626
					c0.085-0.248,0.257-0.53,0.411-0.78c0.193-0.264,0.438-0.509,0.724-0.708c0.24-0.186,0.575-0.346,0.826-0.46
					c0.129-0.054,0.265-0.111,0.398-0.17c0.14-0.05,0.274-0.124,0.391-0.178c0.187-0.093,0.545-0.276,0.683-0.423
					c0.271-0.192,0.483-0.389,0.688-0.621c0.27-0.25,0.477-0.515,0.668-0.802c0.255-0.296,0.465-0.615,0.633-0.956
					c0.153-0.338,0.394-0.688,0.539-1.051c0.159-0.36,0.28-0.734,0.381-1.105c0.235-0.73,0.365-1.435,0.413-1.987
					c0.042-0.258,0.017-0.517,0.024-0.673c0.004-0.159,0-0.251,0-0.251s-0.108-0.013-0.324-0.032
					c-0.207-0.013-0.548-0.072-0.907-0.072c-0.759-0.031-1.782-0.005-2.924,0.135c-0.557,0.095-1.143,0.228-1.737,0.394
					c-0.588,0.181-1.207,0.347-1.785,0.644c-0.599,0.272-1.177,0.59-1.732,0.942c-0.549,0.398-1.065,0.832-1.549,1.286
					c-0.465,0.5-0.87,1.044-1.218,1.6c-0.295,0.644-0.593,1.188-0.633,1.885c-0.116,0.635-0.014,1.306,0.196,1.897
					c0.26,0.597,0.626,1.123,1.143,1.512c0.463,0.402,1.094,0.648,1.621,0.804c0.513,0.172,1.068,0.206,1.484,0.213
					c0.413,0.021,0.798-0.058,1.034-0.092C467.553,184.056,467.667,184.018,467.667,184.017z"/>
			</g>
		</g>
		<g opacity="0.44">
			<g>
				<path fill="#CAC0A6" d="M520.306,164.251c0,0-0.059-0.072-0.155-0.217c-0.092-0.128-0.184-0.393-0.328-0.61
					c-0.132-0.25-0.248-0.552-0.383-0.852c-0.129-0.299-0.205-0.678-0.309-0.991c-0.064-0.359-0.169-0.662-0.185-1.015
					c-0.072-0.307-0.058-0.667-0.122-0.955c0.008-0.342-0.074-0.602-0.109-0.925c-0.035-0.316-0.151-0.593-0.195-0.938
					c-0.047-0.16-0.095-0.318-0.173-0.47c-0.026-0.177-0.083-0.35-0.141-0.523c-0.06-0.169-0.136-0.341-0.227-0.506
					c-0.062-0.187-0.12-0.371-0.207-0.55c-0.136-0.37-0.405-0.705-0.541-1.089c-0.18-0.372-0.396-0.726-0.626-1.071
					c-0.474-0.687-0.879-1.329-1.299-1.784c-0.163-0.231-0.403-0.419-0.518-0.545c-0.128-0.133-0.193-0.199-0.193-0.199
					s-0.11,0.062-0.305,0.179c-0.185,0.117-0.527,0.292-0.829,0.521c-0.321,0.231-0.739,0.515-1.112,0.849
					c-0.395,0.333-0.875,0.719-1.233,1.16c-0.38,0.441-0.754,0.927-1.11,1.455c-0.371,0.518-0.607,1.106-0.839,1.711
					c-0.122,0.301-0.223,0.611-0.314,0.925c-0.055,0.321-0.096,0.646-0.124,0.972c-0.027,0.325-0.045,0.655-0.039,0.981
					c0.038,0.336,0.104,0.662,0.174,0.989c0.111,0.654,0.439,1.28,0.808,1.871c0.362,0.581,0.921,1.101,1.502,1.529
					c0.626,0.418,1.281,0.768,2.029,0.978c0.703,0.238,1.493,0.323,2.185,0.368c0.731,0.016,1.414-0.05,2.031-0.17
					c0.581-0.074,1.151-0.282,1.565-0.423c0.423-0.144,0.777-0.35,0.997-0.461C520.2,164.325,520.306,164.251,520.306,164.251z"/>
			</g>
		</g>
		<g opacity="0.44">
			<g>
				<path fill="#FFFBD6" d="M524.774,117.451c0,0,0.332,0.054,0.957,0.091c0.619,0.04,1.491,0.088,2.521,0.086
					c2.043,0.05,4.754-0.08,6.961,0.043c1.086,0.066,1.991,0.211,2.498,0.393c0.282,0.083,0.488,0.167,0.688,0.312
					c0.099,0.071,0.216,0.139,0.284,0.256c0.105,0.091,0.202,0.205,0.257,0.345c0.155,0.244,0.225,0.577,0.332,0.861
					c0.031,0.315,0.132,0.588,0.149,0.848c0.042,0.514,0.104,0.834,0.104,0.834c0.012,0.05,0.023,0.103,0.03,0.152
					c0.118,0.602,0.814,0.897,1.552,0.643c0.303-0.102,0.568-0.28,0.766-0.499c0,0,0.301-0.33,0.757-0.972
					c0.226-0.315,0.45-0.742,0.688-1.231c0.205-0.513,0.456-1.094,0.51-1.793c0.119-0.687,0.072-1.491-0.209-2.278
					c-0.278-0.783-0.828-1.547-1.554-2.097c-0.721-0.586-1.575-0.95-2.438-1.219c-0.866-0.268-1.752-0.386-2.611-0.456
					c-3.454-0.209-6.599,0.54-8.878,1.326c-1.142,0.38-2.063,0.794-2.71,1.106c-0.63,0.308-1.016,0.545-1.016,0.545
					c-0.827,0.5-1.157,1.438-0.724,2.105c0.204,0.316,0.549,0.509,0.938,0.576C524.676,117.437,524.724,117.443,524.774,117.451z"/>
			</g>
		</g>
	</g>
	<g>
		<g>
			<path fill="#EBB858" d="M507.676,237.964c-3.531,16.424,18.39,18.079,18.39,18.079c27.055-1.756,23.038-24.898,0.507-41.948
				c-9.131-6.908-5.022-17.254-9.398-23.307c-12.895-17.845-31.15-15.773-31.15-15.773s-11.777,5.373-17.023-2.229
				c-4.647-6.734-12.56-11.557-20.453-9.955c-5.49,1.116-9.965,4.182-15.184,5.69c-9.597,2.771-16.186-6.148-25.135-4.261
				c-7.794,1.643-9.221,9.214-8.194,16.759c0.936,6.871-6.104,13.2-13.933,5.496c-12.727-12.52-31.397,1.072-22.325,15.367
				c1.4,2.207,4.37,3.498,5.216,5.929c6.298,18.146-10.827,14.627-13.006,22.362c-0.011,0.04-0.023,0.088-0.037,0.143
				c-1.756,7.168,3.562,15.629,11.225,17.871l6.883,1.522c0,0,4.709,6.707,8.118-2.18c3.416-8.9,13.984-35.267,17.674-36.961
				c3.713-1.706,20.054-22.448,53.669-14.791c36.078,8.218,38.978,4.095,50.166,20.205
				C515.201,232.57,507.676,237.964,507.676,237.964z"/>
		</g>
		<g>
			<path fill="#FDD25E" d="M377.531,251.214c0,0-4.771-44.399,36.788-59.165c44.853-15.936,81.948,3.288,95.193,22.189
				c13.711,19.568,3.286,33.081,3.286,33.081l-32.119-5.661c0,0,6.85-14.569-7.86-19.875c-28.399-10.24-57.221-3.484-51.512,27.863
				L377.531,251.214z"/>
		</g>
		<g>
			<path fill="#F5E68F" d="M421.095,249.694c1.646,7.338-7.236,13.181-19.574,13.005c-12.042-0.174-22.758-6.045-24.178-13.071
				c-1.411-6.977,6.837-12.703,18.664-12.835C408.115,236.656,419.463,242.409,421.095,249.694z"/>
		</g>
		<g>
			<path fill="#D7A438" d="M415.24,249.686c1.356,6.139-5.047,11.049-14.16,10.938c-8.953-0.11-17.089-5.043-18.307-10.986
				c-1.211-5.907,4.848-10.736,13.665-10.819C405.412,238.734,413.89,243.586,415.24,249.686z"/>
		</g>
		<g>
			<path fill="#F5E68F" d="M521.08,256.532c-0.812,7.662-10.888,10.91-22.272,7.311c-11.137-3.522-19.312-12.29-18.482-19.636
				c0.828-7.328,10.336-10.705,21.454-7.493C513.145,239.996,521.889,248.891,521.08,256.532z"/>
		</g>
		<g>
			<path fill="#D7A438" d="M516.711,255.211c-0.654,6.141-8.199,8.931-16.718,6.259c-8.382-2.628-14.533-9.559-13.868-15.509
				c0.666-5.938,7.889-8.797,16.258-6.356C510.895,242.083,517.366,249.083,516.711,255.211z"/>
		</g>
		<g opacity="0.62">
			<g>
				<path fill="#FFFBD6" d="M447.604,197.842c0,0,0.233-0.068,0.672-0.197c0.438-0.109,1.137-0.309,2.009-0.464
					c1.746-0.352,4.263-0.727,7.32-0.824c1.529-0.041,3.193-0.034,4.96,0.097c1.768,0.11,3.638,0.353,5.57,0.708
					c1.936,0.368,3.931,0.861,5.943,1.555c2.016,0.653,4.034,1.56,6.007,2.602c0.984,0.558,1.952,1.112,2.888,1.783
					c0.468,0.331,0.941,0.637,1.395,0.988l1.322,1.106c0.88,0.723,1.681,1.583,2.465,2.396c0.712,0.909,1.499,1.716,2.087,2.686
					c0.614,0.942,1.216,1.86,1.663,2.85c0.232,0.488,0.476,0.962,0.679,1.442c0.179,0.493,0.357,0.979,0.531,1.458
					c0.358,0.953,0.565,1.915,0.765,2.833c0.22,0.918,0.304,1.813,0.378,2.664c0.202,1.704,0.03,3.24-0.044,4.57
					c-0.21,1.32-0.395,2.451-0.645,3.353c-0.524,1.797-0.917,2.765-0.917,2.765c-0.485,1.203-1.858,1.785-3.062,1.299
					c-0.684-0.276-1.164-0.836-1.364-1.489l-0.081-0.262c0,0-0.281-0.931-0.614-2.459c-0.173-0.762-0.515-1.651-0.769-2.648
					c-0.179-0.477-0.368-0.984-0.565-1.521c-0.166-0.534-0.404-1.065-0.676-1.597c-0.24-0.539-0.47-1.101-0.814-1.619
					c-0.302-0.534-0.577-1.094-0.976-1.594c-0.172-0.261-0.348-0.523-0.524-0.793c-0.192-0.257-0.415-0.495-0.618-0.748
					c-0.38-0.52-0.846-0.993-1.312-1.472c-0.436-0.495-1.001-0.922-1.482-1.401c-0.585-0.409-1.075-0.902-1.697-1.3
					c-1.173-0.846-2.49-1.626-3.863-2.361c-5.576-2.897-12.399-4.749-17.623-6.105c-2.665-0.675-4.887-1.24-6.442-1.634
					c-0.796-0.178-1.404-0.377-1.86-0.477c-0.451-0.122-0.693-0.187-0.693-0.187c-1.658-0.445-2.642-2.15-2.196-3.809
					c0.292-1.083,1.118-1.877,2.119-2.175L447.604,197.842z"/>
			</g>
		</g>
		<g opacity="0.62">
			<g>
				<path fill="#FFFBD6" d="M389.743,230.588c0.006-0.022-0.088-0.1-0.21-0.563c-0.118-0.467-0.287-1.006-0.413-1.724
					c-0.096-0.699-0.274-1.586-0.269-2.566c-0.057-1.002,0.031-2.111,0.177-3.336c0.064-0.613,0.24-1.221,0.369-1.874
					c0.124-0.659,0.327-1.314,0.571-1.973c0.23-0.665,0.483-1.352,0.779-2.032c0.321-0.665,0.676-1.333,1.05-2.01
					c0.344-0.702,0.797-1.326,1.262-1.962c0.474-0.626,0.911-1.312,1.445-1.901c1.102-1.121,2.167-2.403,3.449-3.322
					c1.259-0.958,2.496-1.975,3.863-2.64c1.332-0.737,2.648-1.473,3.992-1.909c1.336-0.466,2.618-0.959,3.861-1.232
					c1.253-0.247,2.437-0.446,3.526-0.597c1.089-0.176,2.097-0.186,2.993-0.17c0.896,0.008,1.68,0.063,2.317,0.106
					c1.277,0.087,2.011,0.231,2.011,0.231c1.341,0.258,2.217,1.557,1.956,2.896c-0.103,0.547-0.383,1.017-0.765,1.363l-0.169,0.152
					c0,0-0.545,0.493-1.505,1.198c-0.478,0.352-1.053,0.782-1.716,1.216c-0.666,0.435-1.418,0.886-2.174,1.471
					c-0.771,0.545-1.604,1.101-2.486,1.652c-0.879,0.552-1.698,1.245-2.612,1.831c-0.945,0.554-1.74,1.3-2.632,1.928
					c-0.918,0.617-1.684,1.349-2.516,2.02l-0.629,0.495l-0.544,0.553c-0.38,0.35-0.762,0.699-1.14,1.043
					c-0.664,0.744-1.4,1.434-2.003,2.167c-0.294,0.371-0.595,0.733-0.918,1.077c-0.286,0.363-0.52,0.743-0.807,1.091
					c-0.298,0.348-0.526,0.712-0.756,1.067c-0.242,0.358-0.474,0.703-0.696,1.036c-0.403,0.686-0.822,1.329-1.129,1.927
					c-0.35,0.595-0.607,1.124-0.85,1.574c-0.188,0.439-0.414,0.811-0.51,0.965c-0.127,0.158-0.181,0.41-0.182,0.39
					c0.1,1.654-1.16,3.077-2.816,3.177C391.266,233.504,389.844,232.242,389.743,230.588z"/>
			</g>
		</g>
		<g opacity="0.44">
			<g>
				<path fill="#CAC0A6" d="M378.587,233.744c0,0-0.083-0.775-0.055-2.236c0.044-1.458,0.131-3.619,0.623-6.331
					c0.479-2.71,1.258-6.003,2.698-9.629c1.414-3.631,3.539-7.569,6.501-11.458c2.965-3.869,6.799-7.681,11.471-10.861
					c4.658-3.187,10.067-5.801,15.884-7.669c2.903-0.968,5.914-1.69,8.977-2.31c1.534-0.264,3.08-0.556,4.635-0.796
					c1.562-0.172,3.13-0.348,4.702-0.523c3.148-0.212,6.331-0.477,9.508-0.409l2.386,0.002l0.598,0.001l0.396,0.005l0.289,0.012
					l1.151,0.052l4.614,0.208c1.531,0.072,3.192,0.289,4.781,0.428c1.607,0.151,3.21,0.307,4.773,0.565
					c1.573,0.239,3.148,0.444,4.705,0.73c1.557,0.323,3.105,0.646,4.651,0.967c6.161,1.413,12.139,3.396,17.656,5.997
					c5.518,2.591,10.552,5.854,14.777,9.583c4.232,3.727,7.629,7.915,10.128,12.114c2.519,4.198,4.082,8.417,5.043,12.201
					c0.963,3.793,1.266,7.186,1.295,9.951c0.042,2.771-0.294,4.935-0.626,6.37c-0.176,0.72-0.375,1.254-0.533,1.6
					c-0.187,0.341-0.299,0.491-0.299,0.491s0.075-0.186,0.164-0.536c0.072-0.365,0.116-0.911,0.139-1.623
					c0.03-1.426-0.183-3.523-0.685-6.117c-0.52-2.59-1.437-5.667-2.862-8.994c-1.44-3.313-3.391-6.896-6.102-10.328
					c-2.683-3.443-6.057-6.769-10.063-9.688c-4-2.932-8.635-5.447-13.694-7.475c-5.061-2.038-10.544-3.559-16.229-4.728
					c-1.431-0.258-2.865-0.517-4.306-0.776c-1.458-0.201-2.917-0.402-4.381-0.605c-1.468-0.231-2.923-0.355-4.38-0.479
					c-1.477-0.117-2.876-0.296-4.419-0.368l-4.612-0.248l-1.151-0.063l-0.287-0.016c-0.112-0.006,0.071,0.001,0.028,0.001
					c-0.069-0.001-0.207-0.001-0.207-0.001l-0.556-0.006l-2.218-0.02c-2.963-0.074-5.886,0.049-8.787,0.176
					c-5.796,0.341-11.416,1.188-16.688,2.54c-5.267,1.363-10.171,3.272-14.496,5.688c-4.34,2.398-8.041,5.348-11.112,8.456
					c-3.068,3.113-5.511,6.394-7.351,9.523c-1.846,3.129-3.195,6.055-4.133,8.54c-0.921,2.491-1.541,4.516-1.872,5.918
					C378.713,232.977,378.587,233.744,378.587,233.744z"/>
			</g>
		</g>
		<g opacity="0.44">
			<g>
				<path fill="#CAC0A6" d="M412.987,236.579c0,0-0.423-0.697-0.796-2.05c-0.185-0.674-0.352-1.51-0.437-2.485
					c-0.044-0.486-0.051-1.005-0.073-1.566c0.003-0.554,0.078-1.124,0.125-1.74c0.033-0.623,0.176-1.244,0.331-1.895
					c0.165-0.646,0.305-1.341,0.574-2.007c0.255-0.675,0.571-1.347,0.878-2.054c0.31-0.708,0.795-1.325,1.217-2.014
					c0.223-0.335,0.439-0.684,0.679-1.017c0.252-0.321,0.542-0.61,0.82-0.918c0.557-0.614,1.137-1.229,1.747-1.826
					c0.661-0.512,1.34-1.024,2.038-1.514l1.054-0.733c0.362-0.217,0.747-0.384,1.119-0.578c1.511-0.733,3.039-1.47,4.608-1.795
					c1.557-0.414,3.096-0.774,4.58-0.798c0.743-0.036,1.468-0.101,2.178-0.102c0.714-0.018,1.399-0.041,2.062,0.076
					c1.327,0.159,2.568,0.358,3.698,0.577c1.133,0.181,2.133,0.581,3.017,0.905c0.88,0.339,1.635,0.66,2.249,0.952
					c1.226,0.587,1.894,1.012,1.894,1.012s-0.746,0.366-1.995,0.853c-0.625,0.244-1.375,0.506-2.219,0.775
					c-0.842,0.277-1.79,0.483-2.776,0.888c-0.992,0.35-2.05,0.691-3.15,1.001c-0.561,0.136-1.105,0.325-1.649,0.556
					c-0.545,0.224-1.109,0.39-1.671,0.588c-0.551,0.227-1.166,0.309-1.692,0.578c-0.539,0.252-1.082,0.487-1.634,0.704
					c-1.151,0.364-2.13,0.969-3.175,1.46c-0.258,0.126-0.537,0.226-0.781,0.368l-0.703,0.455c-0.471,0.299-0.955,0.576-1.448,0.845
					c-0.81,0.712-1.829,1.223-2.564,1.989c-0.393,0.357-0.829,0.683-1.203,1.056c-0.366,0.38-0.711,0.77-1.1,1.128
					c-0.399,0.355-0.653,0.791-1.008,1.164c-0.352,0.377-0.664,0.766-0.94,1.164c-0.299,0.398-0.585,0.78-0.859,1.143
					c-0.258,0.38-0.487,0.752-0.74,1.101c-0.471,0.707-0.866,1.365-1.202,1.919c-0.318,0.561-0.619,1.01-0.773,1.329
					C413.085,236.403,412.987,236.579,412.987,236.579z"/>
			</g>
		</g>
		<g opacity="0.62">
			<g>
				<path fill="#FFFBD6" d="M369.269,188.222c-0.001-0.014,0.076,0.111,0.194,0.196c0.1,0.091,0.298,0.24,0.49,0.477
					c0.416,0.44,0.975,1.078,1.572,1.813c0.287,0.36,0.599,0.751,0.925,1.166c0.294,0.419,0.661,0.816,0.947,1.263
					c0.352,0.407,0.627,0.872,0.962,1.296c0.331,0.425,0.615,0.89,0.948,1.306c0.168,0.207,0.295,0.448,0.45,0.664
					c0.171,0.2,0.327,0.414,0.471,0.636c0.29,0.45,0.608,0.85,0.898,1.282c0.271,0.458,0.592,0.84,0.869,1.261
					c0.262,0.443,0.551,0.837,0.827,1.214c0.269,0.383,0.501,0.799,0.741,1.133c0.243,0.328,0.448,0.657,0.627,0.929
					c0.353,0.545,0.552,0.936,0.552,0.936l0.155,0.305c0.564,1.114,0.121,2.473-0.993,3.041c-0.159,0.08-0.336,0.143-0.504,0.185
					c0,0-0.445,0.104-1.219,0.147c-0.387,0.021-0.866,0.046-1.41,0.024c-0.541-0.021-1.121-0.152-1.774-0.285
					c-0.323-0.081-0.659-0.165-1.005-0.253c-0.339-0.111-0.671-0.26-1.027-0.4c-0.688-0.309-1.441-0.633-2.115-1.112
					c-0.686-0.462-1.412-0.947-2.02-1.563c-0.658-0.574-1.248-1.232-1.776-1.928c-0.56-0.682-1.011-1.426-1.432-2.169
					c-0.419-0.742-0.739-1.515-1.027-2.263c-0.25-0.762-0.487-1.499-0.608-2.221c-0.147-0.716-0.227-1.402-0.252-2.043
					c-0.071-1.275,0.07-2.357,0.235-3.122c0.066-0.368,0.174-0.696,0.227-0.933c0.059-0.242,0.121-0.292,0.115-0.305
					c-0.186-1.37,0.771-2.63,2.142-2.817C367.822,185.894,369.082,186.854,369.269,188.222z"/>
			</g>
		</g>
		<g opacity="0.62">
			<g>
				<path fill="#FFFBD6" d="M363.885,231.918c0.003-0.016,0.021,0.135,0.102,0.24c0.064,0.104,0.195,0.266,0.294,0.522
					c0.111,0.23,0.247,0.511,0.404,0.833c0.174,0.302,0.298,0.639,0.498,0.949c0.162,0.324,0.37,0.622,0.551,0.902
					c0.199,0.268,0.377,0.52,0.565,0.707c0.104,0.088,0.183,0.183,0.246,0.282c0.102,0.068,0.205,0.128,0.259,0.218
					c0.041,0.101,0.173,0.142,0.255,0.213c0.093,0.07,0.111,0.187,0.242,0.251c0.252,0.137,0.353,0.381,0.696,0.565
					c0.295,0.188,0.527,0.488,0.942,0.68c0.18,0.122,0.364,0.234,0.541,0.369c0.172,0.146,0.358,0.276,0.578,0.373
					c0.416,0.229,0.815,0.479,1.197,0.737c0.369,0.288,0.783,0.467,1.128,0.69c0.353,0.21,0.669,0.438,0.934,0.62
					c0.531,0.368,0.854,0.651,0.854,0.651l0.209,0.185c0.963,0.851,1.057,2.32,0.207,3.286c-0.096,0.108-0.213,0.217-0.323,0.303
					c0,0-0.347,0.268-0.99,0.605c-0.321,0.169-0.718,0.379-1.182,0.568c-0.468,0.186-0.983,0.419-1.605,0.519
					c-0.614,0.121-1.291,0.219-2.017,0.287c-0.713,0.092-1.554-0.05-2.388-0.14c-0.827-0.068-1.747-0.386-2.648-0.748
					c-0.91-0.273-1.812-0.967-2.68-1.557c-0.821-0.699-1.645-1.51-2.235-2.432c-0.308-0.461-0.566-0.949-0.823-1.418
					c-0.213-0.485-0.379-0.98-0.533-1.466c-0.177-0.484-0.251-0.958-0.31-1.424c-0.052-0.463-0.147-0.92-0.114-1.344
					c-0.004-0.857,0.079-1.641,0.248-2.322c0.13-0.696,0.381-1.278,0.586-1.792c0.235-0.507,0.477-0.922,0.699-1.26
					c0.197-0.321,0.433-0.608,0.577-0.81c0.149-0.2,0.225-0.208,0.224-0.226c0.382-1.329,1.768-2.097,3.097-1.717
					C363.497,229.204,364.264,230.589,363.885,231.918z"/>
			</g>
		</g>
		<g opacity="0.62">
			<g>
				<path fill="#FFFBD6" d="M410.872,169.409c0,0-0.027,0.128,0.024,0.228c0.038,0.091,0.101,0.287,0.105,0.522
					c0.062,0.477,0.102,1.115,0.176,1.804c0.046,0.603,0.098,1.306,0.155,2.061c0.041,0.341,0.03,0.669,0.066,0.998
					c-0.014,0.326,0.046,0.653,0.024,0.981c-0.014,0.329,0.047,0.662-0.006,1.01c0.017,0.346,0.012,0.704-0.028,1.078
					c0.021,0.369,0.01,0.753-0.021,1.144c-0.03,0.395,0.005,0.782-0.023,1.173c-0.02,0.389-0.07,0.784-0.062,1.131
					c0.009,0.341-0.023,0.68-0.043,0.959c-0.007,0.272-0.061,0.529-0.077,0.693c-0.019,0.166-0.033,0.256-0.033,0.256l-0.048,0.404
					c-0.153,1.255-1.299,2.146-2.554,1.992c-0.125-0.016-0.258-0.045-0.376-0.079c0,0-0.092-0.027-0.267-0.08
					c-0.166-0.056-0.443-0.12-0.738-0.257c-0.305-0.127-0.683-0.285-1.068-0.514c-0.42-0.203-0.832-0.504-1.258-0.869
					c-0.414-0.371-0.885-0.764-1.293-1.273c-0.392-0.52-0.791-1.09-1.159-1.716c-0.306-0.662-0.617-1.365-0.856-2.109
					c-0.177-0.766-0.369-1.554-0.412-2.362c-0.111-1.617,0.104-3.266,0.625-4.67c0.236-0.71,0.577-1.351,0.91-1.933
					c0.359-0.572,0.724-1.089,1.127-1.517c0.375-0.441,0.812-0.784,1.172-1.083c0.367-0.307,0.737-0.515,1.045-0.697
					c0.289-0.174,0.583-0.294,0.79-0.409c0.213-0.113,0.272-0.076,0.282-0.093c0.891-1.055,2.471-1.187,3.525-0.294
					C411.633,166.776,411.766,168.354,410.872,169.409z"/>
			</g>
		</g>
		<g opacity="0.62">
			<g>
				<path fill="#FFFBD6" d="M437.199,179.454c0,0-0.056-0.069-0.12-0.281c-0.056-0.208-0.172-0.547-0.239-0.896
					c-0.184-0.739-0.32-1.771-0.271-3.029c0.062-0.625,0.103-1.31,0.288-2.023c0.158-0.716,0.386-1.473,0.737-2.233
					c0.281-0.775,0.806-1.534,1.287-2.297c0.587-0.734,1.164-1.493,1.943-2.122c0.761-0.642,1.558-1.247,2.485-1.655
					c0.868-0.497,1.826-0.737,2.735-0.947c0.905-0.256,1.791-0.183,2.605-0.191c0.826-0.015,1.539,0.203,2.195,0.376
					c0.644,0.205,1.237,0.354,1.69,0.652c0.462,0.259,0.847,0.53,1.155,0.75c0.615,0.437,0.925,0.758,0.925,0.758
					c0.863,0.908,0.83,2.344-0.076,3.21c-0.095,0.09-0.193,0.169-0.298,0.24l-0.376,0.25c0,0-0.352,0.235-0.89,0.521
					c-0.268,0.144-0.581,0.321-0.919,0.477c-0.35,0.128-0.675,0.411-1.023,0.608c-0.34,0.215-0.716,0.36-1.001,0.644
					c-0.293,0.26-0.64,0.384-0.866,0.67c-0.256,0.235-0.522,0.407-0.736,0.664c-0.109,0.125-0.243,0.195-0.362,0.31
					c-0.114,0.125-0.216,0.264-0.351,0.36c-0.139,0.084-0.254,0.228-0.37,0.371l-0.406,0.376c-0.246,0.321-0.56,0.554-0.834,0.899
					c-0.142,0.161-0.291,0.313-0.448,0.468c-0.142,0.168-0.276,0.34-0.436,0.498c-0.312,0.314-0.574,0.671-0.885,0.972
					c-0.549,0.641-1.111,1.214-1.507,1.62c-0.192,0.22-0.376,0.333-0.482,0.432c-0.115,0.095-0.19,0.203-0.19,0.203
					c-0.926,1.21-2.668,1.447-3.889,0.521c-0.167-0.128-0.315-0.27-0.447-0.424L437.199,179.454z"/>
			</g>
		</g>
		<g opacity="0.62">
			<g>
				<path fill="#FFFBD6" d="M481.124,183.875c0.016-0.008,0-0.088,0.203-0.362c0.212-0.277,0.398-0.592,0.723-0.971
					c0.314-0.348,0.697-0.818,1.194-1.234c0.489-0.456,1.082-0.864,1.76-1.314c0.686-0.382,1.453-0.83,2.305-1.13
					c0.848-0.352,1.768-0.597,2.738-0.792c0.963-0.203,1.974-0.271,2.992-0.315c1.001,0.036,2.058,0.016,3.037,0.217
					c0.991,0.183,2,0.33,2.903,0.682c0.919,0.306,1.833,0.611,2.622,1.051c0.802,0.423,1.576,0.833,2.254,1.296
					c0.658,0.488,1.263,0.971,1.804,1.435c0.546,0.456,0.992,0.935,1.366,1.387c0.38,0.441,0.685,0.859,0.932,1.198
					c0.499,0.68,0.732,1.125,0.732,1.125c0.565,1.076,0.149,2.407-0.926,2.97c-0.264,0.14-0.541,0.219-0.821,0.244l-0.204,0.019
					c0,0-0.491,0.042-1.266,0.02c-0.386-0.013-0.853-0.021-1.358-0.07c-0.505-0.051-1.062-0.118-1.664-0.145
					c-0.596-0.05-1.219-0.124-1.857-0.225c-0.639-0.086-1.305-0.124-1.963-0.237c-0.659-0.142-1.331-0.144-1.987-0.264
					c-0.667-0.118-1.312-0.154-1.958-0.247c-0.322-0.064-0.644-0.097-0.955-0.103L492.79,188c-0.61-0.048-1.212-0.095-1.796-0.14
					c-0.576-0.018-1.151-0.086-1.689-0.086c-0.557-0.047-1.055-0.015-1.564-0.052c-1.025,0.008-1.879,0.015-2.478,0.018
					c-0.28,0.022-0.578,0.011-0.672-0.021c-0.111-0.046-0.278,0.011-0.267,0.003c-1.062,0.883-2.64,0.739-3.523-0.323
					C479.918,186.335,480.062,184.758,481.124,183.875z"/>
			</g>
		</g>
		<g opacity="0.44">
			<g>
				<path fill="#FFFBD6" d="M517.173,205.833c0,0,0.437,0.579,1.205,1.591c0.764,1.019,1.841,2.486,3.165,4.188
					c1.292,1.715,2.862,3.666,4.573,5.563c0.862,0.937,1.762,1.87,2.687,2.648c0.459,0.394,0.914,0.739,1.358,1.031l0.803,0.478
					c0.318,0.191,0.616,0.365,0.998,0.618c1.446,0.926,2.727,1.925,3.953,3.098c1.221,1.154,2.302,2.475,3.189,3.9
					c1.801,2.83,2.6,6.269,2.19,9.08c-0.2,1.4-0.573,2.633-1.087,3.617c-0.491,0.989-1.042,1.754-1.54,2.326
					c-0.493,0.575-0.929,0.965-1.232,1.216c-0.309,0.244-0.474,0.375-0.474,0.375c-0.582,0.465-1.431,0.366-1.893-0.219
					c-0.305-0.384-0.367-0.885-0.205-1.312l0.054-0.139c0,0,0.061-0.163,0.176-0.467c0.115-0.297,0.265-0.738,0.427-1.278
					c0.138-0.549,0.298-1.194,0.364-1.915c0.048-0.725,0.078-1.503-0.07-2.318c-0.27-1.624-1.035-3.363-2.405-5.08
					c-0.677-0.857-1.482-1.707-2.401-2.524c-0.903-0.808-1.965-1.618-2.977-2.328l-1.921-1.294
					c-0.755-0.562-1.435-1.144-2.043-1.738c-1.208-1.196-2.203-2.417-3.083-3.631c-1.768-2.413-3.039-4.793-4.084-6.837
					c-1.005-2.068-1.729-3.825-2.188-5.081c-0.455-1.252-0.677-2.007-0.677-2.007c-0.274-0.944,0.266-1.932,1.21-2.208
					c0.728-0.213,1.482,0.06,1.915,0.631L517.173,205.833z"/>
			</g>
		</g>
		<g opacity="0.44">
			<g>
				<path fill="#CAC0A6" d="M377.596,183.238c0,0,0.142,0.04,0.405,0.111c0.246,0.083,0.644,0.167,1.071,0.327
					c0.899,0.282,2.094,0.71,3.385,1.239c1.291,0.524,2.676,1.157,4.015,1.783c0.643,0.292,1.303,0.592,1.977,0.898
					c0.633,0.294,1.244,0.556,1.812,0.782c0.569,0.257,1.087,0.411,1.578,0.606c0.48,0.131,0.939,0.323,1.403,0.421
					c0.473,0.129,0.964,0.196,1.514,0.246c0.54,0.025,1.13,0.017,1.721-0.053c0.594-0.065,1.193-0.165,1.75-0.284
					c0.536-0.145,1.114-0.208,1.536-0.348c0.419-0.134,0.823-0.199,1.075-0.269c0.274-0.056,0.42-0.086,0.42-0.086
					s0.011,0.15,0,0.418c-0.022,0.26-0.016,0.678-0.104,1.157c-0.149,0.982-0.538,2.362-1.577,3.82
					c-0.273,0.354-0.567,0.723-0.915,1.085c-0.366,0.34-0.761,0.686-1.205,1.019c-0.912,0.616-2.006,1.19-3.239,1.485
					c-1.234,0.362-2.552,0.404-3.848,0.308c-1.268-0.148-2.528-0.45-3.635-0.921c-2.253-0.927-4.021-2.332-5.357-3.833
					c-1.341-1.498-2.246-3.101-2.831-4.564c-0.589-1.461-0.836-2.801-0.923-3.775c-0.067-0.467-0.041-0.886-0.049-1.146
					C377.574,183.39,377.596,183.238,377.596,183.238z"/>
			</g>
		</g>
		<g opacity="0.44">
			<g>
				<path fill="#CAC0A6" d="M362.987,227.786c0,0,0.08-0.085,0.228-0.242c0.15-0.144,0.368-0.422,0.643-0.642
					c0.264-0.246,0.633-0.546,0.962-0.825c0.345-0.302,0.708-0.635,1.091-0.927c0.781-0.626,1.635-1.188,2.41-1.71
					c0.402-0.24,0.765-0.485,1.13-0.68c0.343-0.217,0.713-0.369,1.012-0.547c0.339-0.14,0.622-0.294,0.955-0.396
					c0.295-0.134,0.638-0.218,0.973-0.338c0.352-0.102,0.721-0.225,1.111-0.365c0.382-0.147,0.812-0.295,1.204-0.488
					c0.42-0.173,0.847-0.366,1.233-0.563c0.372-0.197,0.778-0.376,1.078-0.55c0.289-0.175,0.621-0.298,0.803-0.398
					c0.198-0.099,0.304-0.151,0.304-0.151s0.065,0.094,0.188,0.27c0.11,0.174,0.332,0.454,0.482,0.791
					c0.178,0.342,0.39,0.776,0.486,1.267c0.139,0.499,0.273,1.084,0.262,1.716c0.027,0.64-0.071,1.323-0.257,2.051
					c-0.206,0.704-0.502,1.472-0.956,2.166c-0.439,0.717-1.015,1.365-1.668,1.958c-0.665,0.547-1.399,1.06-2.169,1.411
					c-0.77,0.395-1.568,0.606-2.346,0.78c-0.78,0.146-1.549,0.208-2.271,0.155c-0.729-0.012-1.402-0.186-2.037-0.335
					c-0.628-0.18-1.197-0.434-1.716-0.684c-0.524-0.267-0.996-0.604-1.39-0.895c-0.409-0.258-0.681-0.62-0.947-0.877
					c-0.255-0.242-0.452-0.537-0.587-0.692C363.06,227.876,362.987,227.786,362.987,227.786z"/>
			</g>
		</g>
		<g opacity="0.44">
			<g>
				<path fill="#CAC0A6" d="M419.901,171.036c0,0,0.102,0.03,0.293,0.089c0.181,0.063,0.507,0.131,0.798,0.257
					c0.308,0.118,0.708,0.248,1.063,0.428c0.381,0.171,0.811,0.357,1.204,0.582c0.808,0.439,1.583,0.988,2.265,1.591
					c0.678,0.606,1.226,1.282,1.649,1.959c0.414,0.685,0.698,1.366,0.82,2.023c0.062,0.306,0.082,0.652,0.084,0.94
					c0.004,0.325-0.032,0.605-0.047,0.918c-0.014,0.305-0.019,0.642,0.074,0.961c0.082,0.266,0.255,0.604,0.454,0.811
					c0.195,0.217,0.427,0.409,0.588,0.518c0.17,0.111,0.261,0.17,0.261,0.17s-0.024,0.104-0.073,0.298
					c-0.067,0.178-0.141,0.547-0.387,0.821c-0.228,0.318-0.592,0.685-1.122,0.929c-0.254,0.113-0.562,0.237-0.887,0.325
					c-0.309,0.075-0.684,0.111-1.024,0.122c-0.703,0.009-1.458-0.118-2.125-0.34c-0.689-0.231-1.316-0.533-1.903-0.911
					c-1.142-0.745-2.021-1.718-2.652-2.751c-1.282-2.073-1.444-4.462-0.948-6.378c0.254-0.965,0.624-1.799,0.972-2.4
					c0.145-0.291,0.358-0.551,0.463-0.71C419.839,171.122,419.901,171.036,419.901,171.036z"/>
			</g>
		</g>
		<g opacity="0.44">
			<g>
				<path fill="#CAC0A6" d="M466.105,171.866c0,0-0.031,0.11-0.044,0.312c-0.021,0.181,0.006,0.52,0.007,0.807
					c0.016,0.314,0.102,0.692,0.191,1.006c0.119,0.337,0.294,0.649,0.521,0.886c0.107,0.115,0.193,0.205,0.339,0.301
					c0.143,0.098,0.189,0.127,0.348,0.217c0.105,0.052,0.214,0.107,0.322,0.163c0.143,0.076,0.245,0.14,0.337,0.199
					c0.067,0.042,0.199,0.146,0.299,0.231c0.104,0.093,0.164,0.169,0.254,0.278c0.243,0.246,0.347,0.477,0.55,0.788
					c0.21,0.316,0.337,0.647,0.502,1.022c0.189,0.375,0.334,0.784,0.448,1.214c0.108,0.433,0.263,0.888,0.351,1.347
					c0.098,0.462,0.151,0.945,0.205,1.411c0.068,0.458,0.087,0.932,0.104,1.363c0.037,0.409,0.01,0.839,0.001,1.184
					c0.006,0.328-0.059,0.665-0.07,0.862c-0.019,0.208-0.029,0.319-0.029,0.319s-0.107,0.02-0.31,0.054
					c-0.19,0.027-0.519,0.111-0.851,0.118c-0.345,0.02-0.781,0.061-1.214,0.022c-0.452-0.02-0.966-0.049-1.474-0.142
					c-0.501-0.108-1.019-0.278-1.543-0.486c-0.514-0.231-1.06-0.445-1.556-0.811c-0.494-0.358-0.983-0.766-1.434-1.221
					c-0.446-0.477-0.844-1.075-1.209-1.655c-0.358-0.594-0.632-1.37-0.858-2.061c-0.187-0.807-0.328-1.567-0.284-2.443
					c0.023-0.436,0.061-0.858,0.14-1.261c0.118-0.438,0.225-0.857,0.388-1.241c0.339-0.778,0.791-1.475,1.347-1.958
					c0.512-0.511,1.144-0.791,1.653-0.963c0.505-0.19,1.008-0.194,1.383-0.179c0.371,0.007,0.695,0.13,0.895,0.189
					C466.013,171.812,466.105,171.866,466.105,171.866z"/>
			</g>
		</g>
		<g opacity="0.44">
			<g>
				<path fill="#CAC0A6" d="M513.959,192.18c0,0-0.053,0.111-0.148,0.319c-0.092,0.178-0.195,0.506-0.337,0.812
					c-0.252,0.693-0.544,1.566-0.724,2.435c-0.075,0.45-0.178,0.846-0.203,1.278c-0.064,0.393-0.064,0.805-0.109,1.164
					c-0.003,0.389-0.048,0.729-0.088,1.094c-0.018,0.382-0.128,0.705-0.161,1.124c-0.041,0.196-0.082,0.392-0.15,0.583
					c-0.027,0.217-0.071,0.436-0.124,0.653c-0.057,0.217-0.123,0.435-0.206,0.653c-0.051,0.237-0.102,0.476-0.184,0.714
					c-0.119,0.479-0.365,0.947-0.487,1.451c-0.161,0.497-0.355,0.988-0.567,1.467c-0.237,0.479-0.387,0.943-0.595,1.369
					c-0.188,0.426-0.418,0.824-0.592,1.156c-0.157,0.326-0.36,0.613-0.465,0.799c-0.128,0.196-0.196,0.3-0.196,0.3
					s-0.121-0.045-0.314-0.142c-0.183-0.103-0.499-0.24-0.804-0.452c-0.316-0.208-0.725-0.463-1.113-0.79
					c-0.39-0.326-0.84-0.694-1.2-1.167c-0.373-0.466-0.742-0.995-1.088-1.58c-0.364-0.568-0.59-1.267-0.813-1.977
					c-0.116-0.359-0.211-0.729-0.295-1.106c-0.05-0.395-0.085-0.8-0.104-1.209c-0.017-0.411-0.034-0.825-0.017-1.241
					c0.046-0.432,0.122-0.864,0.198-1.296c0.125-0.854,0.48-1.724,0.851-2.537c0.4-0.807,0.932-1.574,1.534-2.207
					c0.612-0.646,1.273-1.181,1.981-1.569c0.677-0.415,1.421-0.641,2.071-0.805c0.679-0.135,1.293-0.185,1.854-0.139
					c0.541,0.017,1.045,0.169,1.418,0.272C513.559,191.853,513.959,192.18,513.959,192.18z"/>
			</g>
		</g>
		<g opacity="0.44">
			<g>
				<path fill="#CAC0A6" d="M522.497,249.9c0,0,0.402-0.262,1.079-0.622c0.678-0.373,1.633-0.847,2.744-1.323
					c1.109-0.48,2.383-0.967,3.69-1.438c0.649-0.243,1.315-0.473,1.964-0.704c0.654-0.235,1.286-0.465,1.889-0.71
					c0.598-0.229,1.167-0.48,1.646-0.718c0.497-0.247,0.9-0.474,1.23-0.697c0.362-0.219,0.579-0.438,0.85-0.718
					c0.22-0.289,0.46-0.661,0.571-1.109c0.17-0.438,0.2-0.93,0.281-1.391c0.008-0.457,0.085-0.911,0.075-1.279
					c-0.008-0.736,0.03-1.233,0.03-1.233s0.419,0.201,1.074,0.686c0.325,0.242,0.678,0.59,1.074,1.02
					c0.348,0.469,0.764,1.013,1.033,1.769c0.305,0.727,0.455,1.668,0.376,2.707c-0.118,1.018-0.483,2.161-1.13,3.054
					c-0.618,0.922-1.407,1.702-2.245,2.271c-0.832,0.624-1.718,1.027-2.589,1.402c-3.53,1.347-7.004,1.22-9.527,0.653
					c-1.265-0.278-2.297-0.675-3.01-1.014C522.891,250.177,522.497,249.9,522.497,249.9z"/>
			</g>
		</g>
	</g>
	<g>
		<g>
			<path fill="#FDD25E" d="M228.027,196.652c-4.575-16.164-24.716-7.354-24.716-7.354c-23.08,14.229-8.686,32.79,19.211,37.293
				c11.3,1.824,12.52,12.889,19.222,16.187c19.753,9.721,34.91-0.663,34.91-0.663s7.888-10.264,16.083-6.006
				c7.261,3.771,16.51,4.323,22.733-0.789c4.33-3.559,6.843-8.365,10.748-12.142c7.179-6.946,17.18-2.153,24.2-8.013
				c6.118-5.104,3.828-12.462-0.614-18.646c-4.046-5.629-0.792-14.521,9.736-11.385c17.107,5.099,27.232-15.658,12.519-24.035
				c-2.27-1.293-5.5-1.042-7.385-2.795c-14.067-13.077,2.711-17.995,1.012-25.85c-0.01-0.039-0.02-0.086-0.035-0.144
				c-1.807-7.154-10.47-12.138-18.292-10.525l-6.791,1.877c0,0-7.304-3.72-6.153,5.73c1.154,9.463,4.172,37.709,1.708,40.934
				c-2.481,3.247-7.199,29.228-40.484,38.216c-35.722,9.645-36.352,14.646-53.783,5.656
				C223.907,204.943,228.027,196.652,228.027,196.652z"/>
		</g>
		<g>
			<path fill="#FDD25E" d="M336.794,123.964c0,0,25.018,36.988-4.777,69.505c-32.157,35.095-73.937,35.497-94.496,25.002
				c-21.281-10.861-18.401-27.685-18.401-27.685l31.025-10.049c0,0,0.776,16.082,16.258,13.875
				c29.887-4.261,52.181-23.733,32.45-48.752L336.794,123.964z"/>
		</g>
		<g>
			<path fill="#F5E68F" d="M299.021,145.72c-4.893-5.712,0.215-15.036,11.196-20.66c10.722-5.491,22.937-5.326,27.486,0.216
				c4.516,5.503-0.088,14.428-10.474,20.086C316.596,151.155,303.875,151.389,299.021,145.72z"/>
		</g>
		<g>
			<path fill="#D7A438" d="M304.197,142.983c-4.077-4.786-0.72-12.125,7.383-16.296c7.961-4.098,17.461-3.553,21.322,1.126
				c3.837,4.652,0.749,11.758-7.003,15.961C318.012,148.051,308.248,147.74,304.197,142.983z"/>
		</g>
		<g>
			<path fill="#F5E68F" d="M207.488,186.529c-2.873-7.148,4.506-14.74,16.25-16.894c11.488-2.107,22.82,1.806,25.529,8.686
				c2.703,6.863-4.116,14.301-15.442,16.673C222.246,197.42,210.353,193.659,207.488,186.529z"/>
		</g>
		<g>
			<path fill="#D7A438" d="M211.964,185.65c-2.298-5.732,3.059-11.733,11.837-13.364c8.636-1.605,17.319,1.634,19.518,7.204
				c2.195,5.558-2.847,11.467-11.385,13.234C223.256,194.52,214.258,191.369,211.964,185.65z"/>
		</g>
		<g opacity="0.44">
			<g>
				<path fill="#CAC0A6" d="M298.487,201.298c0,0-0.6,0.866-1.815,2.197c-1.221,1.316-3.086,3.063-5.58,4.813
					c-1.251,0.866-2.65,1.749-4.202,2.566c-1.544,0.827-3.25,1.586-5.071,2.254c-1.828,0.656-3.776,1.23-5.834,1.613
					c-2.047,0.41-4.216,0.594-6.408,0.617c-2.205-0.041-4.442-0.237-6.63-0.786c-2.183-0.519-4.301-1.338-6.196-2.414
					c-0.94-0.558-1.869-1.074-2.67-1.765c-0.409-0.326-0.822-0.633-1.201-0.967c-0.368-0.351-0.731-0.696-1.069-1.052
					c-0.707-0.685-1.292-1.431-1.832-2.163c-0.56-0.715-1.002-1.461-1.397-2.19c-0.85-1.413-1.293-2.855-1.723-4.061
					c-0.304-1.272-0.571-2.34-0.659-3.256c-0.15-1.842-0.108-2.87-0.108-2.87s0.835,0.703,2.071,1.889
					c0.625,0.588,1.443,1.232,2.265,1.987c0.44,0.339,0.909,0.697,1.402,1.078c0.466,0.389,0.979,0.752,1.533,1.089
					c0.537,0.357,1.053,0.746,1.664,1.037c0.585,0.319,1.136,0.688,1.781,0.934c0.316,0.133,0.615,0.287,0.918,0.439
					c0.314,0.135,0.648,0.238,0.97,0.362c0.638,0.253,1.303,0.468,1.983,0.656c0.662,0.218,1.398,0.321,2.081,0.519l1.095,0.163
					c0.36,0.069,0.721,0.14,1.106,0.162c1.484,0.208,3.061,0.258,4.657,0.288c6.427,0.008,13.511-1.174,19.098-1.965
					c2.792-0.407,5.217-0.728,6.962-0.92c0.865-0.111,1.582-0.146,2.058-0.205C298.221,201.303,298.487,201.298,298.487,201.298z"/>
			</g>
		</g>
		<g opacity="0.44">
			<g>
				<path fill="#CAC0A6" d="M333.106,149.472c0,0,0.746,0.31,1.823,1.191c0.504,0.447,1.141,1.022,1.716,1.771
					c0.625,0.736,1.182,1.644,1.75,2.693c0.483,1.055,1.045,2.256,1.329,3.58c0.173,0.66,0.312,1.353,0.431,2.064
					c0.085,0.708,0.134,1.44,0.176,2.191c0.07,0.759-0.006,1.505-0.065,2.271c-0.081,0.76-0.129,1.551-0.283,2.313
					c-0.174,0.751-0.362,1.514-0.578,2.269l-0.328,1.137l-0.448,1.075c-0.627,1.418-1.255,2.858-2.138,4.065
					c-0.837,1.241-1.666,2.468-2.683,3.433c-0.986,0.991-1.935,1.957-2.948,2.713c-1.037,0.741-2.043,1.393-2.99,1.952
					c-0.933,0.58-1.881,0.972-2.741,1.287c-0.855,0.318-1.616,0.565-2.257,0.737c-1.284,0.345-2.068,0.445-2.068,0.445
					s0.181-0.811,0.582-2.059c0.202-0.624,0.467-1.343,0.786-2.134c0.325-0.784,0.719-1.626,1.057-2.583
					c0.372-0.929,0.792-1.89,1.269-2.855c0.474-0.964,0.828-2.032,1.333-3.024c0.542-0.984,0.888-2.053,1.375-3.059
					c0.534-0.995,0.858-2.043,1.312-3.042l0.347-0.749c0.077-0.256,0.173-0.505,0.261-0.758c0.176-0.504,0.38-0.999,0.592-1.492
					c0.187-0.495,0.313-0.994,0.494-1.485c0.177-0.492,0.386-0.979,0.496-1.467c0.14-0.488,0.284-0.974,0.464-1.458
					c0.148-0.482,0.215-0.959,0.371-1.438c0.069-0.242,0.137-0.481,0.205-0.713c0.044-0.235,0.081-0.467,0.14-0.702
					c0.105-0.466,0.225-0.932,0.31-1.38c0.158-0.899,0.343-1.776,0.442-2.57c0.147-0.811,0.191-1.522,0.287-2.158
					c0.043-0.611,0.136-1.15,0.14-1.492C333.094,149.67,333.106,149.472,333.106,149.472z"/>
			</g>
		</g>
		<g opacity="0.44">
			<g>
				<path fill="#CAC0A6" d="M245.423,224.205c0,0-0.115,0.313-0.319,0.864c-0.186,0.497-0.419,1.092-0.654,1.645
					c-0.229,0.539-0.448,0.995-0.63,1.312c-0.183,0.313-0.318,0.45-0.41,0.433c-0.088-0.027-0.13-0.216-0.117-0.574
					c0.016-0.362,0.077-0.865,0.175-1.443c0.06-0.334,0.115-0.637,0.166-0.906c0.064-0.325,0.122-0.607,0.169-0.841
					c0.125-0.575,0.197-0.905,0.197-0.905s0.117-0.316,0.32-0.87c0.087-0.223,0.19-0.491,0.31-0.8
					c0.104-0.253,0.22-0.54,0.348-0.852c0.231-0.542,0.448-0.998,0.63-1.312c0.182-0.312,0.316-0.447,0.406-0.422
					c0.086,0.035,0.129,0.223,0.113,0.585c-0.016,0.366-0.078,0.867-0.174,1.445c-0.1,0.592-0.223,1.22-0.332,1.739
					C245.495,223.877,245.423,224.205,245.423,224.205z"/>
			</g>
		</g>
		<g opacity="0.44">
			<g>
				<path fill="#CAC0A6" d="M340.08,128.394c0,0,0.336,0.479,0.88,1.435c0.533,0.958,1.325,2.375,2.142,4.265
					c1.674,3.757,3.687,9.387,4.674,16.537c0.483,3.569,0.722,7.509,0.493,11.693c-0.243,4.178-0.905,8.607-2.2,13.052
					c-1.296,4.437-3.136,8.916-5.602,13.119c-2.412,4.24-5.439,8.189-8.784,11.779c-3.362,3.579-7.08,6.775-10.956,9.55
					c-3.885,2.766-7.898,5.152-11.903,7.159c-2.123,1.062-3.844,1.882-5.909,2.764c-1.004,0.425-1.993,0.866-2.973,1.258
					c-0.985,0.367-1.959,0.731-2.92,1.09c-3.862,1.379-7.619,2.412-11.128,3.113c-7.039,1.442-12.986,1.396-17.04,1.314
					c-2.033-0.03-3.629-0.136-4.716-0.158c-1.091-0.044-1.674-0.067-1.674-0.067s2.252-0.651,6.215-1.528
					c1.978-0.431,4.357-1.019,7.034-1.718c2.675-0.717,5.635-1.623,8.773-2.815c3.14-1.189,6.455-2.655,9.887-4.36
					c1.713-0.882,3.452-1.793,5.17-2.765c1.681-0.921,3.689-2.146,5.361-3.146c3.537-2.206,7.073-4.621,10.456-7.29
					c1.691-1.331,3.354-2.717,4.934-4.191c1.617-1.435,3.141-2.968,4.609-4.542c2.945-3.146,5.558-6.552,7.797-10.104
					c2.234-3.558,4.057-7.285,5.467-11.051c1.422-3.76,2.408-7.566,3.065-11.253c0.676-3.688,0.984-7.265,1.092-10.594
					c0.118-3.334-0.006-6.424-0.213-9.171c-0.208-2.746-0.501-5.156-0.81-7.14c-0.335-1.973-0.604-3.546-0.849-4.602
					C340.221,128.962,340.08,128.394,340.08,128.394z"/>
			</g>
		</g>
		<g opacity="0.62">
			<g>
				<path fill="#FFFBD6" d="M317.857,154.551c0.007,0.027,0.127,0.059,0.432,0.428c0.303,0.366,0.721,0.832,1.141,1.442
					c0.426,0.622,0.945,1.38,1.411,2.322c0.236,0.47,0.458,0.982,0.706,1.526c0.228,0.549,0.394,1.15,0.604,1.777
					c0.229,0.624,0.357,1.298,0.484,2.005c0.124,0.71,0.289,1.445,0.319,2.217c0.048,0.773,0.053,1.573,0.064,2.396
					c0.012,0.823-0.15,1.655-0.252,2.509c-0.061,0.427-0.123,0.857-0.184,1.291c-0.088,0.429-0.236,0.841-0.354,1.268
					c-0.258,0.844-0.509,1.711-0.817,2.562c-0.398,0.798-0.799,1.604-1.203,2.411l-0.648,1.191
					c-0.234,0.382-0.507,0.723-0.764,1.085c-1.06,1.413-2.109,2.862-3.4,3.92c-0.618,0.569-1.225,1.135-1.851,1.661
					c-0.612,0.552-1.288,0.927-1.933,1.357c-1.311,0.793-2.537,1.673-3.809,2.174c-1.264,0.531-2.463,0.997-3.573,1.393
					c-1.102,0.435-2.168,0.606-3.101,0.793c-0.933,0.179-1.759,0.286-2.434,0.375c-1.349,0.176-2.136,0.187-2.136,0.187
					c-1.348,0.018-2.455-1.06-2.474-2.409c-0.007-0.593,0.198-1.14,0.544-1.569l0.156-0.19c0,0,0.49-0.602,1.375-1.499
					c0.443-0.446,0.975-0.994,1.596-1.562c0.614-0.581,1.358-1.15,2.027-1.906c0.702-0.712,1.465-1.449,2.277-2.188
					c0.431-0.347,0.804-0.754,1.165-1.18c0.378-0.4,0.765-0.81,1.158-1.226c0.366-0.426,0.863-0.764,1.173-1.227
					c0.33-0.45,0.692-0.87,1.052-1.295l0.543-0.636c0.206-0.199,0.37-0.416,0.502-0.646c0.297-0.445,0.577-0.9,0.905-1.321
					c0.154-0.216,0.336-0.419,0.471-0.641l0.345-0.681c0.246-0.443,0.509-0.877,0.774-1.308c0.303-0.923,0.87-1.765,1.083-2.681
					c0.127-0.452,0.337-0.886,0.443-1.336c0.098-0.454,0.192-0.9,0.324-1.344c0.143-0.44,0.125-0.889,0.23-1.325
					c0.093-0.438,0.149-0.866,0.176-1.29c0.042-0.428,0.082-0.841,0.122-1.231c0.013-0.396,0.016-0.777,0.045-1.145
					c0.019-0.725,0.039-1.392,0.025-1.926c-0.015-0.264-0.019-0.507-0.013-0.727c0.005-0.187,0.01-0.345,0.014-0.474
					c0.029-0.233-0.039-0.502-0.024-0.479c-0.788-1.46-0.245-3.281,1.216-4.069C315.248,152.548,317.069,153.091,317.857,154.551z"
					/>
			</g>
		</g>
		<g opacity="0.62">
			<g>
				<path fill="#FFFBD6" d="M373.608,175.742c0,0-0.118-0.063-0.262-0.083c-0.132-0.032-0.376-0.073-0.656-0.192
					c-0.574-0.195-1.366-0.496-2.239-0.864c-0.421-0.185-0.881-0.386-1.365-0.597c-0.454-0.231-0.964-0.41-1.426-0.67
					c-0.5-0.196-0.965-0.477-1.458-0.694c-0.492-0.22-0.961-0.498-1.449-0.71c-0.246-0.104-0.469-0.258-0.711-0.375
					c-0.243-0.098-0.48-0.213-0.713-0.343c-0.465-0.264-0.935-0.466-1.394-0.712c-0.453-0.278-0.914-0.462-1.357-0.706
					c-0.441-0.267-0.879-0.483-1.3-0.686c-0.419-0.213-0.816-0.471-1.185-0.655c-0.368-0.174-0.706-0.369-0.988-0.527
					c-0.568-0.313-0.928-0.568-0.928-0.568l-0.279-0.195c-1.021-0.717-1.267-2.129-0.549-3.149c0.104-0.147,0.231-0.285,0.358-0.4
					c0,0,0.345-0.301,1.009-0.703c0.331-0.199,0.743-0.446,1.233-0.681c0.489-0.235,1.061-0.392,1.7-0.58
					c0.325-0.081,0.66-0.163,1.008-0.249c0.352-0.06,0.714-0.083,1.094-0.125c0.753-0.05,1.571-0.117,2.389-0.009
					c0.824,0.086,1.692,0.174,2.518,0.434c0.852,0.199,1.681,0.504,2.476,0.871c0.814,0.339,1.558,0.786,2.278,1.245
					c0.721,0.458,1.362,0.991,1.969,1.519c0.579,0.556,1.132,1.094,1.578,1.677c0.467,0.563,0.858,1.133,1.181,1.686
					c0.659,1.093,1.043,2.114,1.256,2.869c0.116,0.355,0.173,0.695,0.238,0.929c0.061,0.241,0.03,0.314,0.041,0.325
					c0.805,1.121,0.551,2.685-0.572,3.491C375.979,177.119,374.416,176.864,373.608,175.742z"/>
			</g>
		</g>
		<g opacity="0.62">
			<g>
				<path fill="#FFFBD6" d="M357.891,134.616c0.004,0.016-0.084-0.108-0.203-0.164c-0.107-0.061-0.298-0.142-0.505-0.323
					c-0.208-0.152-0.458-0.337-0.746-0.549c-0.296-0.182-0.563-0.423-0.887-0.604c-0.295-0.212-0.617-0.376-0.909-0.54
					c-0.3-0.142-0.577-0.282-0.831-0.358c-0.132-0.029-0.247-0.077-0.349-0.135c-0.121-0.012-0.24-0.016-0.332-0.068
					c-0.084-0.07-0.217-0.046-0.324-0.072c-0.117-0.018-0.187-0.113-0.331-0.108c-0.29-0.001-0.491-0.172-0.88-0.174
					c-0.35-0.029-0.695-0.183-1.149-0.159c-0.218-0.022-0.434-0.036-0.655-0.072c-0.22-0.048-0.443-0.077-0.684-0.059
					c-0.474-0.009-0.945-0.042-1.403-0.09c-0.461-0.082-0.909-0.046-1.321-0.08c-0.41-0.022-0.795-0.074-1.115-0.111
					c-0.641-0.076-1.059-0.176-1.059-0.176l-0.273-0.064c-1.25-0.3-2.021-1.555-1.722-2.805c0.034-0.142,0.086-0.292,0.144-0.42
					c0,0,0.181-0.399,0.59-1c0.203-0.298,0.456-0.669,0.776-1.055c0.328-0.382,0.672-0.83,1.175-1.21
					c0.487-0.393,1.039-0.796,1.648-1.198c0.586-0.416,1.396-0.683,2.175-0.996c0.762-0.326,1.723-0.477,2.69-0.581
					c0.932-0.183,2.054,0.007,3.097,0.122c1.053,0.231,2.16,0.562,3.115,1.101c0.486,0.262,0.943,0.57,1.39,0.866
					c0.415,0.328,0.795,0.688,1.157,1.045c0.383,0.345,0.67,0.727,0.94,1.112c0.264,0.384,0.562,0.742,0.73,1.131
					c0.405,0.757,0.702,1.489,0.872,2.17c0.207,0.675,0.259,1.308,0.321,1.856c0.03,0.558,0.011,1.037-0.028,1.44
					c-0.023,0.377-0.099,0.743-0.129,0.984c-0.04,0.25-0.1,0.291-0.093,0.307c0.286,1.353-0.58,2.68-1.932,2.965
					C359.506,136.832,358.177,135.967,357.891,134.616z"/>
			</g>
		</g>
		<g opacity="0.62">
			<g>
				<path fill="#FFFBD6" d="M345.67,211.854c-0.003,0.02-0.036-0.124-0.129-0.187c-0.076-0.064-0.223-0.208-0.339-0.414
					c-0.276-0.391-0.609-0.937-0.998-1.51c-0.323-0.511-0.7-1.108-1.101-1.749c-0.198-0.281-0.342-0.576-0.527-0.851
					c-0.14-0.296-0.346-0.554-0.482-0.855c-0.143-0.297-0.35-0.563-0.468-0.893c-0.177-0.297-0.34-0.617-0.479-0.965
					c-0.191-0.318-0.362-0.662-0.519-1.022c-0.155-0.362-0.371-0.689-0.528-1.045c-0.165-0.354-0.304-0.727-0.475-1.03
					c-0.169-0.296-0.298-0.61-0.414-0.868c-0.121-0.245-0.193-0.497-0.255-0.648c-0.06-0.157-0.092-0.24-0.092-0.24l-0.146-0.38
					c-0.45-1.182,0.14-2.505,1.322-2.957c0.118-0.045,0.249-0.083,0.369-0.106c0,0,0.095-0.02,0.272-0.054
					c0.174-0.029,0.45-0.104,0.773-0.12c0.328-0.029,0.737-0.067,1.186-0.047c0.465-0.016,0.971,0.056,1.516,0.179
					c0.542,0.133,1.142,0.26,1.741,0.519c0.587,0.274,1.209,0.594,1.827,0.974c0.581,0.439,1.185,0.914,1.745,1.459
					c0.516,0.594,1.056,1.2,1.471,1.896c0.858,1.375,1.44,2.93,1.636,4.418c0.125,0.735,0.125,1.462,0.103,2.132
					c-0.049,0.676-0.13,1.302-0.286,1.869c-0.124,0.565-0.349,1.073-0.528,1.507c-0.18,0.441-0.409,0.802-0.596,1.104
					c-0.173,0.289-0.378,0.535-0.505,0.732c-0.136,0.201-0.205,0.196-0.205,0.213c-0.295,1.35-1.627,2.208-2.977,1.914
					C346.232,214.537,345.376,213.206,345.67,211.854z"/>
			</g>
		</g>
		<g opacity="0.62">
			<g>
				<path fill="#FFFBD6" d="M317.706,215.318c0,0,0.081,0.034,0.239,0.19c0.146,0.16,0.407,0.405,0.63,0.68
					c0.509,0.564,1.114,1.414,1.659,2.55c0.237,0.579,0.523,1.203,0.692,1.923c0.195,0.706,0.35,1.479,0.396,2.316
					c0.112,0.816,0.007,1.733-0.059,2.633c-0.177,0.924-0.33,1.862-0.727,2.785c-0.369,0.924-0.791,1.83-1.419,2.626
					c-0.533,0.847-1.266,1.508-1.971,2.118c-0.68,0.652-1.497,1.003-2.213,1.392c-0.724,0.399-1.455,0.542-2.113,0.695
					c-0.667,0.12-1.261,0.268-1.798,0.217c-0.533-0.014-1-0.071-1.375-0.12c-0.75-0.098-1.171-0.238-1.171-0.238
					c-1.189-0.396-1.833-1.68-1.438-2.871c0.041-0.121,0.093-0.24,0.151-0.352l0.215-0.396c0,0,0.202-0.373,0.54-0.878
					c0.169-0.252,0.365-0.557,0.589-0.853c0.25-0.275,0.403-0.678,0.619-1.017c0.199-0.348,0.465-0.652,0.583-1.037
					c0.136-0.365,0.386-0.64,0.452-1c0.116-0.327,0.271-0.604,0.341-0.929c0.036-0.163,0.12-0.287,0.173-0.445
					c0.042-0.163,0.067-0.332,0.141-0.48c0.082-0.14,0.118-0.323,0.154-0.504l0.181-0.522c0.069-0.397,0.234-0.751,0.318-1.186
					c0.047-0.208,0.106-0.412,0.174-0.622c0.046-0.217,0.084-0.43,0.152-0.646c0.129-0.423,0.193-0.861,0.325-1.271
					c0.187-0.825,0.415-1.595,0.576-2.14c0.065-0.285,0.174-0.468,0.221-0.604c0.059-0.14,0.075-0.271,0.075-0.271
					c0.25-1.503,1.677-2.528,3.189-2.281c0.208,0.034,0.407,0.09,0.595,0.165L317.706,215.318z"/>
			</g>
		</g>
		<g opacity="0.62">
			<g>
				<path fill="#FFFBD6" d="M276.829,231.995c-0.009,0.011,0.042,0.075-0.009,0.416c-0.059,0.343-0.076,0.707-0.185,1.195
					c-0.113,0.452-0.233,1.049-0.477,1.647c-0.217,0.633-0.551,1.271-0.938,1.987c-0.425,0.658-0.893,1.414-1.507,2.076
					c-0.584,0.711-1.282,1.358-2.045,1.984c-0.757,0.631-1.618,1.163-2.497,1.682c-0.9,0.436-1.826,0.948-2.786,1.23
					c-0.959,0.303-1.921,0.646-2.882,0.76c-0.957,0.158-1.907,0.317-2.811,0.3c-0.906,0.002-1.782,0.002-2.597-0.089
					c-0.812-0.123-1.573-0.267-2.266-0.424c-0.697-0.147-1.315-0.36-1.856-0.583c-0.542-0.214-1.006-0.439-1.386-0.622
					c-0.758-0.368-1.172-0.651-1.172-0.651c-1.003-0.686-1.261-2.056-0.575-3.058c0.168-0.246,0.376-0.447,0.611-0.6l0.172-0.11
					c0,0,0.416-0.269,1.11-0.611c0.346-0.169,0.764-0.381,1.232-0.574c0.471-0.189,0.994-0.394,1.539-0.651
					c0.548-0.234,1.135-0.463,1.745-0.674c0.604-0.223,1.211-0.501,1.845-0.711c0.648-0.183,1.243-0.496,1.879-0.697
					c0.644-0.206,1.23-0.479,1.846-0.699c0.317-0.095,0.613-0.215,0.892-0.357l0.878-0.344c0.564-0.244,1.118-0.484,1.654-0.718
					c0.518-0.256,1.057-0.464,1.531-0.717c0.515-0.219,0.94-0.48,1.408-0.688c0.902-0.487,1.653-0.893,2.18-1.177
					c0.238-0.15,0.504-0.281,0.603-0.296c0.12-0.01,0.242-0.139,0.234-0.127c0.524-1.278,1.985-1.891,3.264-1.364
					C276.744,229.255,277.354,230.717,276.829,231.995z"/>
			</g>
		</g>
		<g opacity="0.44">
			<g>
				<path fill="#CAC0A6" d="M235.715,228.064c0,0-0.787-0.173-2.11-0.497c-1.316-0.334-3.152-0.847-5.28-1.475
					c-1.047-0.31-2.18-0.649-3.378-1.006c-1.178-0.354-2.411-0.694-3.64-1.022c-1.236-0.299-2.473-0.62-3.631-0.768
					c-0.572-0.095-1.112-0.138-1.594-0.146l-0.333,0.013l-0.564-0.004c-0.373,0.001-0.712,0.011-1.193-0.025
					c-1.779-0.095-3.428-0.354-5.126-0.839c-1.675-0.479-3.32-1.188-4.802-2.144c-1.493-0.925-2.822-2.133-3.854-3.465
					c-1.029-1.341-1.756-2.817-2.113-4.238c-0.379-1.411-0.409-2.744-0.271-3.85c0.138-1.112,0.459-2.012,0.768-2.703
					c0.326-0.692,0.67-1.178,0.908-1.499c0.238-0.321,0.39-0.475,0.39-0.475s0.09,0.208,0.21,0.57
					c0.127,0.362,0.34,0.884,0.611,1.483c0.272,0.597,0.627,1.275,1.071,1.938c0.445,0.665,1.002,1.298,1.613,1.868
					c0.629,0.563,1.336,1.049,2.111,1.492c0.798,0.425,1.648,0.818,2.618,1.162c0.971,0.327,2.011,0.651,3.148,0.911
					c1.109,0.269,2.381,0.509,3.539,0.708c0.252,0.052,0.65,0.104,1.013,0.16l1.305,0.191c0.976,0.185,1.874,0.426,2.708,0.705
					c1.653,0.597,3.097,1.293,4.41,2.075c1.319,0.755,2.489,1.593,3.563,2.41c1.069,0.825,2.023,1.663,2.875,2.46
					C234.084,225.267,235.715,228.064,235.715,228.064z"/>
			</g>
		</g>
		<g opacity="0.44">
			<g>
				<path fill="#CAC0A6" d="M368.588,184.045c0,0-0.143,0.032-0.409,0.093c-0.255,0.041-0.648,0.154-1.1,0.213
					c-0.926,0.172-2.183,0.354-3.571,0.49c-1.385,0.142-2.905,0.231-4.382,0.306c-0.703,0.043-1.428,0.088-2.166,0.133
					c-0.699,0.038-1.359,0.091-1.967,0.158c-0.624,0.041-1.15,0.146-1.678,0.204c-0.485,0.108-0.981,0.157-1.439,0.286
					c-0.476,0.106-0.943,0.279-1.45,0.492c-0.49,0.231-1.008,0.514-1.497,0.853c-0.493,0.336-0.976,0.707-1.413,1.072
					c-0.407,0.38-0.887,0.703-1.193,1.024c-0.309,0.316-0.637,0.563-0.826,0.743c-0.214,0.177-0.328,0.272-0.328,0.272
					s-0.081-0.127-0.198-0.368c-0.102-0.241-0.304-0.606-0.449-1.073c-0.328-0.936-0.63-2.336-0.396-4.114
					c0.076-0.441,0.161-0.902,0.3-1.387c0.163-0.472,0.35-0.962,0.586-1.463c0.516-0.972,1.214-1.993,2.168-2.831
					c0.917-0.898,2.065-1.553,3.254-2.076c1.189-0.461,2.444-0.786,3.641-0.888c2.423-0.237,4.646,0.176,6.531,0.875
					c1.885,0.694,3.435,1.686,4.638,2.706c1.204,1.016,2.051,2.082,2.583,2.904c0.279,0.38,0.452,0.762,0.583,0.99
					C368.536,183.9,368.588,184.045,368.588,184.045z"/>
			</g>
		</g>
		<g opacity="0.44">
			<g>
				<path fill="#CAC0A6" d="M360.619,137.847c0,0-0.03,0.111-0.088,0.319c-0.064,0.196-0.128,0.545-0.265,0.87
					c-0.119,0.339-0.305,0.777-0.467,1.18c-0.162,0.427-0.328,0.892-0.528,1.329c-0.397,0.92-0.89,1.815-1.327,2.64
					c-0.241,0.399-0.449,0.785-0.681,1.13c-0.201,0.352-0.456,0.66-0.639,0.956c-0.233,0.284-0.41,0.553-0.657,0.798
					c-0.198,0.256-0.461,0.491-0.702,0.753c-0.262,0.256-0.532,0.536-0.809,0.843c-0.269,0.31-0.579,0.642-0.836,0.997
					c-0.29,0.348-0.575,0.721-0.825,1.074c-0.236,0.35-0.511,0.698-0.693,0.992c-0.174,0.288-0.409,0.554-0.524,0.729
					c-0.127,0.179-0.196,0.274-0.196,0.274s-0.102-0.05-0.292-0.149c-0.178-0.102-0.506-0.244-0.796-0.471
					c-0.32-0.218-0.708-0.504-1.022-0.891c-0.357-0.377-0.751-0.831-1.036-1.394c-0.324-0.553-0.557-1.204-0.734-1.932
					c-0.147-0.721-0.246-1.537-0.17-2.362c0.052-0.839,0.254-1.683,0.556-2.511c0.33-0.796,0.739-1.592,1.255-2.265
					c0.496-0.708,1.1-1.27,1.708-1.788c0.619-0.493,1.269-0.909,1.93-1.2c0.652-0.333,1.328-0.495,1.959-0.66
					c0.638-0.136,1.262-0.179,1.835-0.201c0.59-0.011,1.163,0.068,1.646,0.14c0.483,0.038,0.894,0.228,1.249,0.331
					c0.338,0.095,0.651,0.263,0.845,0.337C360.512,137.8,360.619,137.847,360.619,137.847z"/>
			</g>
		</g>
		<g opacity="0.44">
			<g>
				<path fill="#CAC0A6" d="M336.933,214.65c0,0-0.106,0.019-0.304,0.057c-0.188,0.029-0.508,0.123-0.822,0.147
					c-0.328,0.04-0.743,0.113-1.141,0.12c-0.416,0.027-0.884,0.063-1.337,0.052c-0.918-0.012-1.86-0.13-2.746-0.346
					c-0.883-0.217-1.685-0.557-2.374-0.958c-0.688-0.411-1.256-0.878-1.673-1.402c-0.199-0.24-0.379-0.538-0.515-0.791
					c-0.155-0.285-0.255-0.549-0.39-0.832c-0.129-0.278-0.286-0.578-0.514-0.816c-0.198-0.196-0.509-0.414-0.781-0.502
					c-0.273-0.101-0.569-0.164-0.762-0.186c-0.205-0.018-0.313-0.026-0.313-0.026s-0.026-0.104-0.073-0.297
					c-0.026-0.187-0.132-0.551-0.043-0.908c0.052-0.388,0.201-0.881,0.555-1.347c0.172-0.217,0.386-0.47,0.633-0.702
					c0.237-0.209,0.548-0.417,0.847-0.588c0.616-0.337,1.343-0.577,2.036-0.694c0.716-0.118,1.413-0.145,2.107-0.086
					c1.357,0.12,2.589,0.568,3.633,1.186c2.104,1.232,3.365,3.268,3.826,5.192c0.229,0.97,0.292,1.881,0.267,2.575
					c0.009,0.325-0.059,0.655-0.076,0.845C336.948,214.542,336.933,214.65,336.933,214.65z"/>
			</g>
		</g>
		<g opacity="0.44">
			<g>
				<path fill="#CAC0A6" d="M295.727,235.566c0,0-0.027-0.111-0.108-0.299c-0.067-0.168-0.249-0.455-0.387-0.708
					c-0.16-0.271-0.413-0.565-0.638-0.798c-0.264-0.242-0.565-0.436-0.876-0.54c-0.15-0.052-0.267-0.089-0.442-0.107
					c-0.172-0.02-0.227-0.023-0.409-0.027c-0.117,0.002-0.238,0.004-0.362,0.006c-0.161,0-0.281-0.009-0.389-0.019
					c-0.081-0.005-0.245-0.035-0.374-0.064c-0.133-0.033-0.223-0.071-0.355-0.127c-0.329-0.102-0.53-0.259-0.853-0.438
					c-0.333-0.18-0.603-0.414-0.922-0.667c-0.345-0.242-0.664-0.536-0.966-0.864c-0.298-0.33-0.649-0.66-0.942-1.024
					c-0.302-0.364-0.576-0.764-0.841-1.149c-0.276-0.373-0.515-0.785-0.731-1.156c-0.224-0.345-0.4-0.737-0.554-1.045
					c-0.16-0.286-0.262-0.614-0.345-0.796c-0.079-0.193-0.122-0.296-0.122-0.296s0.086-0.068,0.247-0.193
					c0.159-0.111,0.408-0.34,0.698-0.501c0.294-0.181,0.662-0.421,1.062-0.588c0.409-0.195,0.874-0.411,1.366-0.565
					c0.496-0.141,1.032-0.232,1.594-0.296c0.559-0.035,1.144-0.104,1.75-0.01c0.607,0.084,1.229,0.215,1.839,0.407
					c0.617,0.211,1.25,0.552,1.846,0.895c0.595,0.356,1.198,0.915,1.722,1.416c0.542,0.629,1.025,1.234,1.396,2.027
					c0.184,0.396,0.35,0.787,0.468,1.179c0.102,0.44,0.205,0.862,0.239,1.278c0.065,0.847-0.006,1.671-0.272,2.361
					c-0.213,0.693-0.639,1.234-1.01,1.627c-0.357,0.402-0.8,0.641-1.137,0.804c-0.333,0.169-0.676,0.211-0.88,0.251
					C295.833,235.569,295.727,235.566,295.727,235.566z"/>
			</g>
		</g>
		<g opacity="0.44">
			<g>
				<path fill="#CAC0A6" d="M251.519,241.02c0,0-0.091,0.034-0.258,0.095c-0.164,0.049-0.433,0.169-0.739,0.223
					c-0.631,0.154-1.522,0.284-2.568,0.272c-1.045-0.011-2.234-0.199-3.463-0.583c-0.609-0.22-1.236-0.442-1.845-0.77
					c-0.606-0.33-1.218-0.668-1.786-1.128c-0.579-0.418-1.118-0.923-1.61-1.479c-0.508-0.509-0.909-1.191-1.284-1.792
					c-0.368-0.623-0.596-1.358-0.81-1.979c-0.146-0.69-0.202-1.359-0.23-1.937c0.05-0.615,0.179-1.164,0.296-1.616
					c0.074-0.448,0.378-0.823,0.529-1.112c0.161-0.288,0.357-0.492,0.459-0.629c0.113-0.133,0.172-0.205,0.172-0.205
					s0.055,0.085,0.156,0.24c0.094,0.153,0.275,0.372,0.42,0.623c0.18,0.247,0.309,0.54,0.572,0.825
					c0.258,0.287,0.525,0.577,0.766,0.866c0.327,0.274,0.618,0.549,0.907,0.823c0.375,0.256,0.652,0.534,1.02,0.805
					c0.394,0.26,0.688,0.562,1.117,0.836c0.378,0.295,0.764,0.601,1.192,0.902c0.8,0.631,1.676,1.284,2.476,1.987
					c0.829,0.676,1.596,1.403,2.269,2.08c0.664,0.695,1.229,1.334,1.623,1.827c0.203,0.231,0.344,0.465,0.454,0.604
					C251.46,240.944,251.519,241.02,251.519,241.02z"/>
			</g>
		</g>
		<g opacity="0.44">
			<g>
				<path fill="#FFFBD6" d="M209.421,194.802c0.014-0.001-0.113,0.045-0.206,0.125c-0.096,0.069-0.25,0.203-0.488,0.337
					c-0.447,0.287-1.083,0.682-1.753,1.179c-0.347,0.226-0.683,0.505-1.034,0.773c-0.339,0.279-0.683,0.57-1.007,0.874
					c-0.153,0.163-0.312,0.319-0.482,0.46c-0.164,0.151-0.279,0.35-0.44,0.5c-0.33,0.3-0.542,0.707-0.844,1.037
					c-0.253,0.388-0.506,0.775-0.754,1.157c-0.186,0.441-0.472,0.829-0.675,1.275c-0.185,0.457-0.397,0.902-0.622,1.333
					c-0.164,0.462-0.333,0.913-0.513,1.334c-0.199,0.417-0.363,0.824-0.481,1.201c-0.12,0.373-0.265,0.705-0.38,0.983
					c-0.231,0.558-0.415,0.893-0.415,0.893l-0.089,0.162c-0.389,0.712-1.28,0.976-1.991,0.586c-0.235-0.127-0.424-0.313-0.554-0.527
					c0,0-0.203-0.336-0.47-0.958c-0.132-0.311-0.298-0.694-0.443-1.141c-0.077-0.226-0.158-0.466-0.246-0.721
					c-0.047-0.264-0.095-0.54-0.148-0.83c-0.086-0.583-0.167-1.226-0.217-1.914c0.03-0.697,0.084-1.443,0.176-2.219
					c0.122-0.773,0.391-1.578,0.647-2.383c0.325-0.794,0.748-1.587,1.22-2.337c0.548-0.712,1.063-1.459,1.75-2.024
					c0.636-0.618,1.343-1.114,2.058-1.531c0.707-0.421,1.439-0.723,2.129-0.961c0.7-0.221,1.364-0.388,1.984-0.458
					c0.613-0.109,1.193-0.084,1.688-0.097c0.504,0.013,0.932,0.059,1.295,0.12c0.345,0.046,0.65,0.131,0.87,0.178
					c0.222,0.05,0.264,0.099,0.278,0.095c0.967-0.045,1.784,0.703,1.828,1.67C211.135,193.939,210.387,194.759,209.421,194.802z"/>
			</g>
		</g>
		<g opacity="0.62">
			<g>
				<path fill="#FFFBD6" d="M217.216,196.913c0,0,0.164,0.217,0.421,0.489c0.273,0.301,0.677,0.746,1.189,1.311
					c0.551,0.562,1.186,1.256,1.977,2.011c0.763,0.774,1.689,1.582,2.673,2.477c0.476,0.46,1.038,0.878,1.593,1.331
					c0.577,0.43,1.092,0.952,1.726,1.382c1.228,0.896,2.478,1.878,3.883,2.751c0.701,0.436,1.354,0.959,2.104,1.361
					c0.731,0.426,1.474,0.856,2.221,1.291c0.723,0.473,1.525,0.827,2.307,1.218l2.344,1.199c1.626,0.691,3.253,1.378,4.853,2.056
					c1.653,0.583,3.278,1.156,4.853,1.711c1.616,0.446,3.179,0.907,4.667,1.366c0.737,0.261,1.492,0.354,2.205,0.536
					c0.716,0.176,1.41,0.347,2.075,0.508c1.337,0.323,2.564,0.666,3.678,0.836c1.109,0.192,2.08,0.405,2.883,0.577
					c1.608,0.345,2.54,0.601,2.54,0.601l0.124,0.033c0.803,0.221,1.275,1.049,1.055,1.851c-0.158,0.575-0.629,0.981-1.179,1.083
					c0,0-0.959,0.18-2.662,0.388c-0.851,0.104-1.888,0.234-3.084,0.333c-0.598,0.042-1.238,0.147-1.91,0.142
					c-0.673-0.012-1.381-0.023-2.118-0.035c-1.481-0.042-3.101-0.019-4.799-0.196c-1.691-0.228-3.481-0.487-5.333-0.79
					c-1.832-0.404-3.708-0.934-5.618-1.464c-1.882-0.619-3.751-1.4-5.625-2.153c-1.795-0.94-3.654-1.764-5.335-2.851
					c-1.685-1.073-3.351-2.12-4.809-3.357c-1.528-1.133-2.846-2.43-4.098-3.637c-1.222-1.245-2.302-2.494-3.237-3.688
					c-0.457-0.607-0.911-1.174-1.309-1.741c-0.388-0.574-0.734-1.138-1.068-1.656c-0.687-1.017-1.145-2.018-1.564-2.794
					c-0.393-0.807-0.66-1.454-0.855-1.946c-0.199-0.488-0.245-0.696-0.245-0.696l-0.047-0.213c-0.237-1.072,0.439-2.132,1.51-2.369
					C215.983,195.995,216.763,196.312,217.216,196.913z"/>
			</g>
		</g>
	</g>
	<g>
		<g>
			<path fill="#EBB858" d="M445.23,340.091c-12.598,17.582,10.156,24.042,10.156,24.042c28.857,3.583,36.928-22.135,22.803-46.194
				c-5.921-10.082,4.033-20.69,2.699-28.764c-4.021-24.333-25.271-27.553-25.271-27.553s-16.331,2.699-18.117-8.115
				c-1.604-9.709-8.156-18.33-18.461-19.119c-7.256-0.556-14.451,1.689-21.727,1.727c-13.561,0.07-16.811-13.712-29.41-14.659
				c-11.152-0.837-17.392,8.477-20.355,18.629c-2.677,9.188-15.653,14.878-21.849,2.082c-10.345-21.365-44.798-10.365-39.921,12.182
				c0.742,3.425,4.226,6.177,4.042,9.672c-1.37,25.739-23.77,15.601-31.286,25.083c-0.038,0.049-0.083,0.105-0.134,0.175
				c-6.579,8.865-3.558,21.538,6.208,26.684l8.896,3.92c0,0,2.896,9.822,12.524-0.475c9.629-10.3,38.665-40.569,44.538-41.539
				c5.872-0.971,38.739-21.774,75.902-1.473c37.163,20.302,42.653,16.319,46.213,37.869
				C456.241,335.812,445.23,340.091,445.23,340.091z"/>
		</g>
		<g>
			<path fill="#FDD25E" d="M277.54,322.772c0,0,18.153-58.761,82.389-63.606c64.237-4.845,95.854,29.349,100.029,54.617
				c4.175,25.267-14.152,37.91-14.152,37.91l-32.687-13.777c0,0,15.633-15.064,1.714-25.034
				c-28.095-20.128-67.97-20.401-77.9,19.696L277.54,322.772z"/>
		</g>
		<g>
			
				<ellipse transform="matrix(0.98 0.199 -0.199 0.98 71.1549 -54.6412)" fill="#F5E68F" cx="307.393" cy="326.644" rx="29.837" ry="17.18"/>
		</g>
		<g>
			
				<ellipse transform="matrix(0.98 0.199 -0.199 0.98 71.1647 -54.6469)" fill="#D7A438" cx="307.393" cy="326.645" rx="22.145" ry="14.46"/>
		</g>
		<g>
			<path fill="#F5E68F" d="M449.833,363.637c-4.889,8.225-17.469,9.771-28.097,3.452s-15.28-18.106-10.391-26.332
				c4.889-8.226,17.468-9.771,28.095-3.453C450.071,343.622,454.724,355.41,449.833,363.637z"/>
		</g>
		<g>
			
				<ellipse transform="matrix(0.8596 0.5109 -0.5109 0.8596 240.775 -170.9241)" fill="#D7A438" cx="431.433" cy="352.697" rx="16.775" ry="13.953"/>
		</g>
		<g opacity="0.62">
			<g>
				<path fill="#FFFBD6" d="M397.4,277.31c0,0,0.283-0.011,0.815-0.034c0.521,0,1.374-0.028,2.401,0.041
					c2.08,0.095,5.039,0.388,8.54,1.167c1.75,0.388,3.637,0.896,5.608,1.569c1.973,0.663,4.038,1.491,6.127,2.517
					c2.097,1.027,4.221,2.238,6.297,3.727c1.042,0.718,2.058,1.552,3.071,2.389c0.98,0.894,1.968,1.803,2.89,2.813
					c0.466,0.508,0.918,1.026,1.358,1.551c0.434,0.539,0.837,1.122,1.252,1.681c0.856,1.089,1.517,2.394,2.208,3.604
					c0.572,1.317,1.246,2.555,1.604,3.938c0.203,0.677,0.415,1.345,0.591,2.015c0.137,0.684,0.264,1.363,0.369,2.039
					c0.123,0.672,0.206,1.343,0.221,2.008c0.032,0.666,0.074,1.322,0.083,1.971c-0.022,1.289-0.176,2.529-0.287,3.725
					c-0.24,1.168-0.496,2.286-0.75,3.353c-0.346,1.034-0.708,2.006-1.055,2.932c-0.35,0.927-0.829,1.722-1.216,2.508
					c-0.416,0.776-0.791,1.51-1.245,2.126c-0.879,1.256-1.6,2.36-2.347,3.14c-1.421,1.614-2.304,2.439-2.304,2.439
					c-1.116,1.045-2.872,0.986-3.917-0.133c-0.589-0.632-0.828-1.466-0.723-2.263l0.041-0.28c0,0,0.158-1.131,0.562-2.943
					c0.249-0.894,0.303-2.027,0.543-3.233c0.129-0.605,0.178-1.248,0.23-1.916c0.04-0.664,0.196-1.349,0.175-2.055
					c0.014-0.685,0.03-1.4,0.045-2.141c-0.046-0.7-0.097-1.422-0.146-2.166c-0.148-0.708-0.205-1.434-0.374-2.137
					c-0.238-0.685-0.282-1.411-0.609-2.071c-0.406-1.381-1.184-2.654-1.919-3.971c-0.912-1.259-1.812-2.57-3.036-3.782
					c-1.186-1.227-2.493-2.434-3.94-3.555c-1.402-1.154-2.951-2.192-4.463-3.229c-3.078-2.01-6.183-3.816-8.934-5.323
					c-2.807-1.529-5.147-2.803-6.782-3.695c-0.851-0.427-1.475-0.827-1.967-1.071c-0.494-0.259-0.732-0.41-0.732-0.41l-0.087-0.057
					c-1.719-1.077-2.239-3.346-1.161-5.066C395.101,277.972,396.239,277.366,397.4,277.31z"/>
			</g>
		</g>
		<g opacity="0.62">
			<g>
				<path fill="#FFFBD6" d="M306.646,299.585c0.014-0.02-0.031-0.199,0.093-0.834c0.125-0.644,0.249-1.39,0.521-2.375
					c0.301-0.926,0.617-2.123,1.189-3.352c0.512-1.288,1.27-2.608,2.119-4.077c0.441-0.713,0.967-1.403,1.488-2.149
					c0.504-0.767,1.12-1.463,1.758-2.179c0.635-0.719,1.29-1.475,2.018-2.169c0.732-0.684,1.506-1.362,2.301-2.047
					c0.771-0.724,1.646-1.306,2.53-1.914c0.887-0.592,1.76-1.261,2.705-1.797c1.914-0.986,3.832-2.154,5.88-2.881
					c1.008-0.405,2.042-0.751,3.058-1.124c1.01-0.408,2.05-0.641,3.081-0.875c1.029-0.24,2.046-0.487,3.059-0.686
					c1.009-0.233,2.007-0.373,2.999-0.445c1.973-0.181,3.879-0.368,5.674-0.385c1.797,0.064,3.487,0.165,5.035,0.294
					c0.776,0.082,1.516,0.128,2.215,0.233c0.694,0.142,1.355,0.275,1.976,0.403c1.234,0.264,2.301,0.552,3.174,0.784
					c1.745,0.468,2.72,0.839,2.72,0.839c1.456,0.556,2.185,2.185,1.631,3.641c-0.281,0.739-0.841,1.291-1.516,1.583l-0.224,0.095
					c0,0-0.947,0.408-2.566,0.936c-0.808,0.262-1.784,0.589-2.89,0.894c-0.552,0.146-1.14,0.305-1.759,0.47
					c-0.612,0.179-1.246,0.403-1.904,0.615c-1.321,0.416-2.741,0.826-4.23,1.22c-1.475,0.445-2.978,1.011-4.55,1.467
					c-1.601,0.389-3.099,1.13-4.699,1.63c-1.616,0.494-3.099,1.246-4.66,1.847c-0.386,0.156-0.787,0.284-1.159,0.463l-1.094,0.56
					c-0.741,0.348-1.481,0.693-2.214,1.037c-1.383,0.792-2.817,1.493-4.103,2.297c-0.637,0.41-1.27,0.812-1.915,1.181
					c-0.63,0.386-1.168,0.844-1.767,1.223c-1.206,0.76-2.173,1.644-3.205,2.376c-0.92,0.809-1.857,1.522-2.586,2.228
					c-0.786,0.683-1.413,1.302-1.969,1.823c-0.475,0.524-0.963,0.949-1.167,1.146c-0.244,0.188-0.437,0.466-0.428,0.446
					c-0.675,1.826-2.702,2.763-4.529,2.089C306.906,303.438,305.972,301.41,306.646,299.585z"/>
			</g>
		</g>
		<g opacity="0.44">
			<g>
				<path fill="#CAC0A6" d="M288.693,300.797c0,0,0.308-0.938,1.07-2.631c0.775-1.681,1.939-4.157,3.768-7.121
					c1.817-2.97,4.191-6.511,7.387-10.225c3.167-3.729,7.071-7.729,11.905-11.454c4.799-3.76,10.451-7.353,16.903-10.24
					c6.438-2.898,13.633-5.135,21.249-6.413c7.613-1.299,15.628-1.675,23.671-1.171c8.047,0.53,16.091,1.976,23.958,3.922
					l5.851,1.624l0.848,0.243l0.698,0.229l1.391,0.46l2.781,0.918l2.777,0.922l2.86,1.113c1.885,0.771,3.839,1.434,5.643,2.296
					c1.826,0.833,3.644,1.664,5.452,2.49c1.765,0.943,3.519,1.883,5.261,2.814c1.728,0.969,3.391,2.053,5.065,3.066
					c1.679,1.012,3.222,2.254,4.81,3.359c6.218,4.661,11.7,10.107,15.662,16.223c3.99,6.078,6.497,12.647,7.522,18.844
					c1.059,6.207,0.778,11.967-0.125,16.854c-0.877,4.905-2.376,8.96-3.826,12.152c-1.443,3.204-2.967,5.512-4.086,7.005
					c-0.57,0.744-1.064,1.269-1.413,1.602c-0.373,0.313-0.572,0.45-0.572,0.45s0.17-0.189,0.446-0.56
					c0.122-0.2,0.274-0.45,0.456-0.748c0.157-0.308,0.34-0.668,0.549-1.072c0.798-1.636,1.711-4.159,2.574-7.41
					c0.846-3.257,1.516-7.29,1.721-11.876c0.157-4.587-0.374-9.734-1.839-15.011c-0.4-1.31-0.854-2.633-1.367-3.95
					c-0.591-1.292-1.082-2.643-1.83-3.911c-0.342-0.643-0.687-1.295-1.034-1.948c-0.396-0.629-0.796-1.262-1.2-1.9
					c-0.746-1.302-1.754-2.482-2.66-3.731c-3.79-4.918-8.857-9.275-14.584-13.113c-5.757-3.82-12.211-7.121-19.096-9.867
					c-1.693-0.762-3.436-1.288-5.154-1.949l-2.591-0.954l-2.776-0.896l-2.79-0.895l-1.395-0.447l-0.697-0.224
					c-0.139-0.044,0.088,0.027,0.034,0.012c-0.087-0.022-0.258-0.068-0.258-0.068l-0.341-0.093l-5.479-1.477
					c-7.316-1.868-14.728-3.231-22.056-3.952c-7.333-0.631-14.57-0.599-21.491,0.185c-6.92,0.788-13.513,2.313-19.555,4.449
					c-6.04,2.135-11.559,4.804-16.392,7.762c-4.815,2.984-9.001,6.166-12.512,9.249c-3.484,3.108-6.374,6.038-8.612,8.59
					c-2.224,2.563-3.906,4.666-4.973,6.156C289.223,299.965,288.693,300.797,288.693,300.797z"/>
			</g>
		</g>
		<g opacity="0.44">
			<g>
				<path fill="#CAC0A6" d="M333.365,314.357c0,0-0.022-0.273,0.012-0.771c0.045-0.493,0.083-1.244,0.273-2.155
					c0.344-1.835,1.132-4.416,2.729-7.245c1.582-2.827,4.022-5.872,7.31-8.46c0.821-0.641,1.685-1.268,2.602-1.829
					c0.463-0.28,0.927-0.562,1.392-0.848c0.475-0.271,0.974-0.494,1.465-0.745c0.983-0.504,2.007-0.93,3.051-1.323
					c1.049-0.371,2.119-0.699,3.188-1.008c2.167-0.503,4.354-0.914,6.511-1.002c1.078-0.074,2.145-0.123,3.192-0.05
					c1.047,0.041,2.079,0.057,3.078,0.223c2.009,0.203,3.894,0.651,5.652,1.094c1.74,0.544,3.363,1.062,4.791,1.728
					c0.715,0.329,1.4,0.622,2.039,0.943c0.626,0.353,1.219,0.668,1.767,0.999c1.1,0.635,2.022,1.241,2.753,1.815
					c1.471,1.113,2.247,1.84,2.247,1.84s-1.086,0.153-2.875,0.262c-1.723,0.085-4.186,0.206-7.142,0.354
					c-1.427,0.021-2.952,0.174-4.527,0.228c-1.573,0.138-3.206,0.229-4.854,0.423c-3.298,0.348-6.668,0.879-9.9,1.715
					c-1.619,0.409-3.208,0.897-4.744,1.458c-1.551,0.541-3.022,1.203-4.477,1.856c-2.867,1.367-5.522,2.944-7.801,4.505
					c-2.278,1.55-4.201,3.05-5.559,4.164C334.162,313.633,333.365,314.357,333.365,314.357z"/>
			</g>
		</g>
		<g opacity="0.62">
			<g>
				<path fill="#FFFBD6" d="M300.523,238.498c0,0,0.026,0.169,0.106,0.347c0.061,0.177,0.196,0.458,0.286,0.856
					c0.221,0.77,0.516,1.864,0.809,3.096c0.145,0.604,0.3,1.257,0.464,1.948c0.13,0.681,0.346,1.366,0.477,2.074
					c0.166,0.685,0.337,1.393,0.513,2.111c0.22,0.685,0.318,1.419,0.558,2.084c0.114,0.337,0.175,0.69,0.262,1.036
					c0.118,0.33,0.232,0.656,0.32,0.995c0.17,0.688,0.407,1.324,0.619,1.973c0.162,0.679,0.438,1.277,0.65,1.905
					c0.178,0.652,0.42,1.248,0.664,1.812c0.233,0.568,0.392,1.171,0.613,1.662c0.225,0.484,0.401,0.957,0.555,1.351
					c0.307,0.787,0.457,1.33,0.457,1.33l0.111,0.396c0.375,1.353-0.417,2.753-1.771,3.126c-0.306,0.084-0.624,0.107-0.922,0.081
					c0,0-0.585-0.058-1.568-0.319c-0.49-0.131-1.097-0.296-1.771-0.541c-0.675-0.246-1.347-0.665-2.119-1.102
					c-0.376-0.239-0.768-0.484-1.174-0.742c-0.381-0.286-0.738-0.622-1.128-0.955c-0.752-0.69-1.567-1.433-2.21-2.351
					c-0.682-0.896-1.376-1.848-1.868-2.916c-0.273-0.524-0.547-1.057-0.775-1.607c-0.194-0.558-0.413-1.11-0.581-1.682
					c-0.404-1.128-0.574-2.285-0.771-3.424c-0.117-0.566-0.099-1.133-0.147-1.689c-0.028-0.556-0.075-1.108-0.034-1.643
					c0.044-1.073,0.118-2.105,0.313-3.059c0.155-0.959,0.404-1.845,0.664-2.648c0.527-1.606,1.195-2.863,1.752-3.723
					c0.249-0.42,0.531-0.773,0.701-1.028c0.181-0.254,0.277-0.297,0.277-0.313c0.43-1.565,2.049-2.483,3.613-2.053
					C300.035,235.316,300.954,236.934,300.523,238.498z"/>
			</g>
		</g>
		<g opacity="0.62">
			<g>
				<path fill="#FFFBD6" d="M268.169,294.101c-0.02,0.02,0.012,0.101,0.012,0.293c-0.017,0.188-0.009,0.515-0.055,0.872
					c-0.044,0.749-0.141,1.783-0.157,2.84c-0.02,0.527,0.009,1.057,0.046,1.541c0.028,0.491,0.146,0.913,0.232,1.253
					c0.102,0.348,0.224,0.571,0.339,0.768c0.102,0.198,0.208,0.37,0.377,0.615c0.122,0.259,0.424,0.545,0.704,0.924
					c0.162,0.183,0.378,0.352,0.541,0.566c0.207,0.201,0.445,0.38,0.649,0.605c0.483,0.397,0.951,0.846,1.491,1.243
					c0.497,0.439,1.049,0.831,1.542,1.237c0.49,0.422,1.001,0.773,1.427,1.146c0.445,0.379,0.835,0.708,1.155,0.981
					c0.655,0.559,1.032,0.968,1.032,0.968l0.125,0.135c0.987,1.074,0.917,2.746-0.157,3.734c-0.229,0.209-0.496,0.376-0.768,0.49
					c0,0-0.528,0.221-1.456,0.453c-0.464,0.111-1.033,0.271-1.689,0.337c-0.659,0.069-1.397,0.167-2.223,0.149
					c-0.824-0.022-1.715-0.051-2.686-0.232c-0.955-0.142-1.991-0.436-3.056-0.812c-0.544-0.213-1.076-0.464-1.63-0.727
					c-0.56-0.305-1.104-0.626-1.657-1.005c-1.108-0.788-2.197-1.749-3.131-3.02c-0.477-0.596-0.871-1.321-1.258-2.011
					c-0.332-0.741-0.643-1.487-0.843-2.265c-0.416-1.541-0.543-3.117-0.377-4.502c0.137-1.388,0.476-2.639,0.923-3.681
					c0.44-1.052,0.958-1.949,1.497-2.69c1.069-1.497,2.204-2.434,3.044-3.036c0.408-0.31,0.786-0.502,1.034-0.656
					c0.26-0.156,0.439-0.252,0.419-0.231c1.025-1.257,2.876-1.446,4.134-0.419C269.009,290.991,269.197,292.844,268.169,294.101z"/>
			</g>
		</g>
		<g opacity="0.62">
			<g>
				<path fill="#FFFBD6" d="M368.301,228.837c0.014-0.011-0.086,0.131-0.114,0.289c-0.04,0.144-0.087,0.407-0.234,0.712
					c-0.246,0.621-0.61,1.479-1.03,2.401c-0.205,0.442-0.423,0.923-0.658,1.432c-0.257,0.472-0.427,1.002-0.699,1.468
					c-0.181,0.518-0.479,0.975-0.67,1.473c-0.211,0.486-0.47,0.952-0.651,1.437c-0.083,0.244-0.265,0.458-0.339,0.703
					c-0.078,0.244-0.183,0.479-0.303,0.71c-0.264,0.461-0.377,0.958-0.63,1.43c-0.144,0.233-0.227,0.479-0.31,0.726
					c-0.106,0.25-0.209,0.495-0.308,0.734c-0.267,0.48-0.393,0.984-0.589,1.463c-0.179,0.481-0.453,0.945-0.567,1.381
					c-0.146,0.435-0.32,0.838-0.454,1.177c-0.276,0.683-0.511,1.126-0.511,1.126l-0.205,0.386c-0.693,1.311-2.319,1.81-3.629,1.115
					c-0.149-0.08-0.301-0.181-0.43-0.283c0,0-0.406-0.33-0.983-1c-0.286-0.336-0.641-0.754-0.996-1.262
					c-0.388-0.495-0.634-1.135-0.962-1.828c-0.291-0.705-0.631-1.479-0.774-2.359c-0.143-0.873-0.381-1.814-0.343-2.805
					c0.036-0.98-0.007-2.037,0.254-3.054c0.185-1.035,0.465-2.073,0.885-3.047c0.211-0.484,0.396-0.99,0.643-1.451
					c0.267-0.45,0.531-0.898,0.795-1.342c0.247-0.457,0.578-0.843,0.884-1.233c0.306-0.394,0.619-0.772,0.949-1.121
					c0.68-0.671,1.34-1.316,2.053-1.806c0.686-0.522,1.384-0.94,2.052-1.277c1.328-0.687,2.543-1.027,3.438-1.19
					c0.419-0.095,0.827-0.127,1.104-0.176c0.284-0.045,0.359,0.007,0.359,0.007c1.417-0.83,3.216-0.355,4.034,1.047
					C370.176,226.221,369.703,228.02,368.301,228.837z"/>
			</g>
		</g>
		<g opacity="0.62">
			<g>
				<path fill="#FFFBD6" d="M396.189,250.82c0,0-0.018-0.118,0.021-0.391c0.05-0.266,0.099-0.714,0.213-1.155
					c0.19-0.954,0.584-2.232,1.284-3.68c0.365-0.711,0.783-1.476,1.313-2.238c0.545-0.754,1.117-1.557,1.866-2.29
					c0.687-0.774,1.539-1.479,2.442-2.163c0.867-0.706,1.974-1.253,2.997-1.826c0.562-0.252,1.147-0.451,1.718-0.668
					c0.569-0.221,1.142-0.42,1.772-0.515c1.225-0.252,2.422-0.452,3.643-0.372c0.6,0.025,1.185,0.046,1.747,0.096
					c0.565,0.098,1.111,0.243,1.634,0.376c0.51,0.154,1.008,0.306,1.488,0.452c0.466,0.178,0.878,0.433,1.281,0.641
					c0.787,0.464,1.498,0.866,2.037,1.334c0.526,0.489,0.943,0.958,1.275,1.335c0.665,0.758,0.959,1.251,0.959,1.251
					c0.717,1.198,0.324,2.751-0.876,3.467c-0.227,0.135-0.466,0.229-0.707,0.289l-0.555,0.129c0,0-0.524,0.122-1.296,0.231
					c-0.384,0.052-0.84,0.127-1.312,0.165c-0.481,0.075-0.996,0.249-1.505,0.346c-0.51,0.054-1.026,0.248-1.522,0.435
					c-0.25,0.084-0.496,0.125-0.739,0.217c-0.244,0.126-0.486,0.223-0.725,0.325c-0.48,0.121-0.956,0.443-1.447,0.631
					c-0.487,0.187-0.997,0.54-1.521,0.729l-0.792,0.463c-0.274,0.127-0.556,0.254-0.825,0.448c-0.268,0.18-0.562,0.317-0.845,0.472
					c-0.278,0.165-0.559,0.357-0.847,0.515c-1.221,0.725-2.36,1.401-3.338,1.98c-1.031,0.624-2.004,1.133-2.689,1.49
					c-0.345,0.199-0.62,0.278-0.802,0.366c-0.188,0.08-0.327,0.164-0.327,0.164c-1.547,0.92-3.56,0.411-4.485-1.145
					c-0.222-0.371-0.36-0.77-0.424-1.171L396.189,250.82z"/>
			</g>
		</g>
		<g opacity="0.62">
			<g>
				<path fill="#FFFBD6" d="M444.768,270.667c0.021-0.002,0.028-0.097,0.305-0.325c0.278-0.221,0.603-0.534,1.031-0.842
					c0.437-0.309,0.961-0.697,1.608-1.039c0.64-0.353,1.392-0.705,2.239-0.995c0.848-0.331,1.796-0.523,2.82-0.731
					c1.021-0.12,2.128-0.29,3.265-0.213c1.151-0.014,2.319,0.162,3.5,0.402c1.194,0.197,2.32,0.667,3.472,1.061
					c1.085,0.516,2.181,1.04,3.162,1.68c0.946,0.673,1.874,1.359,2.674,2.097c0.762,0.772,1.458,1.553,2.088,2.301
					c0.576,0.791,1.039,1.587,1.461,2.313c0.197,0.369,0.386,0.725,0.566,1.062c0.158,0.35,0.279,0.694,0.395,1.017
					c0.232,0.645,0.389,1.23,0.515,1.704c0.256,0.949,0.316,1.528,0.316,1.528c0.15,1.417-0.878,2.688-2.295,2.838
					c-0.322,0.034-0.637,0.008-0.935-0.073l-0.298-0.079c0,0-0.55-0.148-1.362-0.47c-0.405-0.163-0.896-0.349-1.407-0.589
					c-0.5-0.257-1.085-0.496-1.704-0.74c-0.607-0.253-1.216-0.569-1.852-0.862c-0.655-0.258-1.312-0.538-1.948-0.86
					c-0.652-0.287-1.332-0.504-1.958-0.834c-0.664-0.237-1.305-0.491-1.938-0.768l-0.967-0.323
					c-0.312-0.132-0.624-0.267-0.948-0.338c-0.321-0.08-0.632-0.21-0.943-0.321c-0.314-0.098-0.632-0.164-0.941-0.273
					c-0.621-0.221-1.241-0.327-1.847-0.534c-0.603-0.116-1.2-0.328-1.762-0.429c-0.567-0.146-1.097-0.258-1.587-0.369
					c-0.499-0.115-0.933-0.214-1.289-0.296c-0.362-0.058-0.659-0.167-0.794-0.222c-0.143-0.076-0.348-0.065-0.328-0.072
					c-1.492,0.64-3.218-0.053-3.856-1.545C442.584,273.033,443.274,271.308,444.768,270.667z"/>
			</g>
		</g>
		<g opacity="0.44">
			<g>
				<path fill="#FFFBD6" d="M472.678,306.743c0,0,0.154,0.775,0.423,2.139c0.264,1.368,0.615,3.325,1.1,5.623
					c0.445,2.291,1.055,4.953,1.845,7.555c0.411,1.284,0.863,2.584,1.419,3.619c0.263,0.52,0.554,0.983,0.808,1.269l0.742,0.929
					l0.883,1.212c2.152,3.137,3.635,7.116,3.562,11.055c-0.004,1.953-0.397,3.838-1.017,5.486c-0.624,1.652-1.473,3.07-2.397,4.217
					c-1.844,2.31-3.826,3.605-5.232,4.337c-0.7,0.379-1.276,0.612-1.671,0.761c-0.394,0.142-0.606,0.22-0.606,0.22
					c-0.827,0.298-1.742-0.132-2.042-0.963c-0.196-0.542-0.08-1.121,0.258-1.541l0.066-0.081c0,0,0.505-0.627,1.288-1.676
					c0.76-1.062,1.784-2.569,2.493-4.4c0.336-0.924,0.63-1.896,0.776-2.914c0.139-1.021,0.172-2.073,0.035-3.152
					c-0.12-1.078-0.429-2.179-0.841-3.302c-0.45-1.115-1.025-2.249-1.736-3.362l-0.511-0.772l-0.721-0.996
					c-0.727-0.994-1.206-1.951-1.609-2.874c-0.781-1.857-1.208-3.583-1.52-5.237c-0.626-3.297-0.685-6.271-0.693-8.805
					c0.049-2.533,0.231-4.616,0.418-6.075c0.194-1.453,0.367-2.306,0.367-2.306c0.233-1.133,1.34-1.864,2.476-1.631
					c0.851,0.173,1.476,0.843,1.635,1.645L472.678,306.743z"/>
			</g>
		</g>
		<g opacity="0.44">
			<g>
				<path fill="#CAC0A6" d="M315.892,234.712c0,0,0.598,0.499,1.519,1.323c0.913,0.831,2.127,1.993,3.451,3.308
					c2.636,2.635,5.742,5.86,8.405,7.748c0.678,0.434,1.312,0.89,1.969,1.206c0.321,0.201,0.662,0.302,0.991,0.495
					c0.349,0.104,0.682,0.307,1.054,0.404c0.724,0.24,1.515,0.483,2.352,0.601c0.832,0.179,1.709,0.225,2.57,0.315
					c0.856,0.018,1.715,0.112,2.489,0.086c0.783,0.005,1.516,0.049,2.12,0.031c1.222,0.004,2.023,0.069,2.023,0.069
					s-0.276,0.707-0.935,1.834c-0.318,0.582-0.797,1.181-1.381,1.869c-0.566,0.714-1.347,1.361-2.231,2.086
					c-0.932,0.646-1.998,1.334-3.301,1.818c-0.63,0.294-1.337,0.452-2.07,0.635c-0.726,0.216-1.516,0.264-2.32,0.332
					c-0.806,0.082-1.644-0.02-2.491-0.064c-0.831-0.146-1.704-0.266-2.523-0.542c-1.686-0.482-3.221-1.321-4.629-2.267
					c-1.341-0.997-2.557-2.118-3.513-3.323c-0.976-1.2-1.76-2.455-2.362-3.709c-0.626-1.244-1.037-2.5-1.379-3.686
					c-0.305-1.196-0.51-2.335-0.603-3.4c-0.199-2.125-0.017-3.924,0.233-5.186c0.111-0.627,0.284-1.134,0.377-1.466
					C315.809,234.892,315.892,234.712,315.892,234.712z"/>
			</g>
		</g>
		<g opacity="0.44">
			<g>
				<path fill="#CAC0A6" d="M269.993,288.222c0,0,0.142-0.089,0.397-0.218c0.251-0.111,0.636-0.339,1.093-0.504
					c0.45-0.18,0.996-0.398,1.622-0.649c0.593-0.24,1.215-0.449,1.889-0.683c0.678-0.243,1.39-0.417,2.104-0.641
					c0.714-0.205,1.446-0.384,2.156-0.578c0.726-0.148,1.416-0.363,2.119-0.472c0.675-0.181,1.37-0.271,2.015-0.427
					c0.671-0.098,1.29-0.258,1.941-0.345c0.31-0.069,0.629-0.12,0.956-0.159c0.319-0.052,0.626-0.127,0.955-0.166
					c0.647-0.098,1.3-0.207,1.958-0.324c0.649-0.13,1.336-0.224,1.969-0.381c0.669-0.111,1.299-0.259,1.891-0.396
					c0.6-0.127,1.19-0.223,1.646-0.347c0.451-0.125,0.894-0.176,1.165-0.237c0.296-0.047,0.454-0.072,0.454-0.072
					s0.03,0.16,0.052,0.444c0.007,0.274,0.064,0.721,0.025,1.225c-0.015,0.524-0.059,1.163-0.229,1.841
					c-0.072,0.35-0.181,0.7-0.287,1.091c-0.12,0.377-0.298,0.74-0.468,1.146c-0.345,0.803-0.855,1.59-1.464,2.396
					c-0.285,0.429-0.674,0.755-1.037,1.149c-0.369,0.387-0.77,0.763-1.218,1.083c-0.443,0.329-0.905,0.666-1.393,0.963
					c-0.496,0.276-1.011,0.54-1.539,0.79c-1.064,0.442-2.192,0.835-3.326,1.023c-1.14,0.241-2.273,0.273-3.384,0.277
					c-1.092-0.064-2.17-0.166-3.154-0.436c-1.001-0.219-1.913-0.59-2.76-0.958c-0.849-0.367-1.588-0.853-2.267-1.292
					c-0.674-0.466-1.273-0.978-1.77-1.44c-0.515-0.45-0.853-0.954-1.173-1.339c-0.314-0.37-0.536-0.761-0.7-0.98
					C270.072,288.369,269.993,288.222,269.993,288.222z"/>
			</g>
		</g>
		<g opacity="0.44">
			<g>
				<path fill="#CAC0A6" d="M379.008,234.468c0,0,0.099,0.092,0.286,0.263c0.155,0.166,0.452,0.414,0.704,0.712
					c0.58,0.604,1.287,1.435,1.921,2.376c0.646,0.941,1.209,1.996,1.65,3.065c0.434,1.068,0.699,2.16,0.844,3.172
					c0.13,1.018,0.135,1.951-0.019,2.748c-0.064,0.372-0.194,0.756-0.32,1.057c-0.14,0.353-0.309,0.597-0.458,0.94
					c-0.155,0.317-0.255,0.68-0.233,1.069c0.024,0.363,0.169,0.791,0.368,1.085c0.184,0.312,0.416,0.572,0.574,0.746
					c0.175,0.188,0.265,0.291,0.265,0.291s-0.055,0.127-0.195,0.331c-0.144,0.174-0.352,0.562-0.73,0.804
					c-0.187,0.137-0.411,0.287-0.68,0.439c-0.274,0.134-0.585,0.21-0.95,0.301c-0.362,0.073-0.75,0.062-1.194,0.053
					c-0.409-0.042-0.865-0.147-1.315-0.287c-0.862-0.305-1.756-0.838-2.444-1.449c-0.725-0.637-1.316-1.33-1.811-2.086
					c-0.964-1.486-1.479-3.092-1.684-4.631c-0.418-3.091,0.577-5.944,2.041-7.921c0.364-0.495,0.744-0.938,1.123-1.321
					c0.368-0.384,0.777-0.705,1.097-0.967c0.299-0.264,0.64-0.458,0.827-0.592C378.878,234.533,379.008,234.468,379.008,234.468z"/>
			</g>
		</g>
		<g opacity="0.44">
			<g>
				<path fill="#CAC0A6" d="M434.661,251.444c0,0-0.055,0.124-0.161,0.358c-0.093,0.198-0.196,0.574-0.325,0.908
					c-0.116,0.377-0.218,0.821-0.282,1.27c-0.077,0.431-0.087,0.909-0.061,1.325c0.03,0.429,0.109,0.819,0.229,1.166
					c0.044,0.156,0.114,0.337,0.179,0.491c0.06,0.146,0.12,0.294,0.18,0.444c0.066,0.154,0.11,0.291,0.137,0.416
					c0.062,0.169,0.11,0.333,0.134,0.485c0.005,0.263,0.146,0.717,0.11,1.066c-0.01,0.384,0.055,0.872-0.016,1.318
					c-0.051,0.459-0.035,1.003-0.136,1.52c-0.107,0.518-0.197,1.08-0.289,1.635c-0.116,0.557-0.27,1.114-0.442,1.657
					c-0.161,0.547-0.307,1.071-0.486,1.56c-0.166,0.485-0.383,0.949-0.544,1.332c-0.143,0.372-0.343,0.711-0.44,0.927
					c-0.125,0.229-0.192,0.352-0.192,0.352s-0.143-0.023-0.377-0.087c-0.22-0.069-0.602-0.147-0.973-0.309
					c-0.809-0.29-1.871-0.774-2.905-1.529c-0.491-0.396-0.988-0.858-1.468-1.381c-0.469-0.52-0.947-1.094-1.294-1.796
					c-0.352-0.7-0.733-1.387-0.939-2.222c-0.192-0.852-0.394-1.672-0.412-2.612c0.032-0.971,0.006-1.856,0.304-2.873
					c0.124-0.491,0.273-0.968,0.434-1.43c0.227-0.482,0.463-0.946,0.724-1.383c0.235-0.433,0.564-0.85,0.915-1.223
					c0.356-0.367,0.638-0.739,1.061-1.015c0.402-0.282,0.763-0.559,1.159-0.763c0.417-0.183,0.802-0.355,1.185-0.476
					c0.787-0.211,1.502-0.301,2.142-0.242c0.622,0.022,1.184,0.217,1.595,0.357c0.421,0.146,0.746,0.371,0.957,0.502
					C434.564,251.335,434.661,251.444,434.661,251.444z"/>
			</g>
		</g>
		<g opacity="0.44">
			<g>
				<path fill="#CAC0A6" d="M476.706,289.864c0,0-0.096,0.114-0.278,0.324c-0.165,0.177-0.395,0.529-0.665,0.84
					c-0.538,0.725-1.186,1.668-1.791,2.631c-0.291,0.521-0.607,0.965-0.876,1.492c-0.3,0.468-0.551,0.995-0.834,1.462
					c-0.278,0.477-0.543,0.968-0.853,1.413c-0.261,0.517-0.63,0.894-0.925,1.415c-0.326,0.48-0.717,0.913-1.063,1.43
					c-0.366,0.491-0.82,0.931-1.212,1.451c-0.399,0.504-0.923,0.939-1.353,1.432c-0.443,0.489-0.918,0.952-1.4,1.383
					c-0.512,0.422-0.948,0.852-1.387,1.228c-0.428,0.38-0.888,0.704-1.249,0.984c-0.344,0.283-0.713,0.495-0.923,0.648
					c-0.24,0.149-0.369,0.229-0.369,0.229s-0.101-0.118-0.249-0.335c-0.134-0.218-0.391-0.548-0.593-0.954
					c-0.446-0.829-1.073-2.03-1.333-3.478c-0.138-0.725-0.236-1.516-0.281-2.354c-0.033-0.832,0.085-1.716,0.229-2.621
					c0.117-0.907,0.441-1.823,0.819-2.732c0.336-0.918,0.89-1.8,1.472-2.649c0.544-0.861,1.353-1.606,2.084-2.324
					c0.804-0.677,1.661-1.284,2.567-1.737c0.916-0.456,1.837-0.793,2.763-0.982c0.896-0.229,1.816-0.245,2.615-0.24
					c0.828,0.06,1.559,0.169,2.209,0.377c0.635,0.169,1.194,0.479,1.613,0.696c0.427,0.227,0.748,0.507,0.96,0.673
					C476.613,289.739,476.706,289.864,476.706,289.864z"/>
			</g>
		</g>
		<g opacity="0.44">
			<g>
				<path fill="#CAC0A6" d="M454.838,356.652c0,0,0.514-0.21,1.36-0.475c0.851-0.277,2.032-0.615,3.388-0.926
					c1.358-0.314,2.896-0.615,4.465-0.888c0.786-0.132,1.573-0.284,2.361-0.405c0.755-0.146,1.522-0.29,2.29-0.438
					c0.754-0.132,1.434-0.319,2.105-0.472c0.629-0.203,1.262-0.352,1.786-0.577c0.563-0.196,1.021-0.44,1.512-0.698
					c0.441-0.284,0.892-0.602,1.283-0.987c0.404-0.381,0.745-0.819,1.066-1.245c0.288-0.438,0.574-0.865,0.795-1.234
					c0.385-0.75,0.691-1.245,0.691-1.245s0.33,0.421,0.757,1.276c0.175,0.432,0.395,0.981,0.534,1.65
					c0.058,0.338,0.088,0.701,0.129,1.099c0.029,0.396-0.028,0.813-0.055,1.267c-0.111,0.896-0.419,1.873-0.928,2.851
					c-0.546,0.928-1.264,1.881-2.157,2.611c-0.879,0.775-1.878,1.366-2.918,1.84c-1.029,0.45-2.107,0.805-3.161,1.002
					c-4.265,0.831-8.241-0.032-10.988-1.229c-1.381-0.598-2.469-1.279-3.201-1.83c-0.371-0.251-0.645-0.521-0.834-0.676
					C454.93,356.757,454.838,356.652,454.838,356.652z"/>
			</g>
		</g>
	</g>
	<g>
		<path fill="#F5E68F" d="M449.833,363.637c-4.889,8.225-17.469,9.771-28.097,3.452s-15.28-18.106-10.391-26.332
			c4.889-8.226,17.468-9.771,28.095-3.453C450.071,343.622,454.724,355.41,449.833,363.637z"/>
	</g>
	<g>
		
			<ellipse transform="matrix(0.8596 0.5109 -0.5109 0.8596 240.775 -170.9241)" fill="#D7A438" cx="431.433" cy="352.697" rx="16.775" ry="13.953"/>
	</g>
</g>
</svg>
