<svg version="1.1" id="Layer_1" xmlns="http://www.w3.org/2000/svg" xmlns:xlink="http://www.w3.org/1999/xlink" viewBox="0 0 768 430" enable-background="new 0 0 768 430" xml:space="preserve">
<g>
	<linearGradient id="SVGID_1_" gradientUnits="userSpaceOnUse" x1="386.207" y1="367.8867" x2="386.207" y2="393.0908">
		<stop  offset="0" style="stop-color:#90ABE0"/>
		<stop  offset="1" style="stop-color:#1456B9"/>
	</linearGradient>
	<path fill-rule="evenodd" clip-rule="evenodd" fill="url(#SVGID_1_)" d="M339.268,154.195
		c13.688-20.817,21.324-25.217,21.324-66.817c0-27.8,0,5.705,0-22.092h25.615h25.617c0,27.797,0-5.708,0,22.092
		c0,41.6,7.637,46,21.322,66.817c12.41,18.884,13.463,44.58,13.744,66.613c0.51,41.348,0.881,91.068-1.309,131.733
		c-0.708,13.121-1.617,21.782-11.639,28.938c-19.707,14.027-75.763,14.027-95.471,0c-10.023-7.155-10.961-15.816-11.642-28.938
		c-2.187-40.665-1.816-90.386-1.307-131.733C325.809,198.775,326.83,173.08,339.268,154.195z"/>
	<linearGradient id="SVGID_2_" gradientUnits="userSpaceOnUse" x1="386.1924" y1="258.6406" x2="386.1924" y2="142.3586">
		<stop  offset="0" style="stop-color:#C2D1F0"/>
		<stop  offset="1" style="stop-color:#C2D1F0"/>
	</linearGradient>
	<path fill-rule="evenodd" clip-rule="evenodd" fill="url(#SVGID_2_)" d="M327.058,201.02c0.37-21.95,4.967-38.506,14.311-54.975
		c17.152-30.242,17.066-48.928,17.066-80.956h27.772h27.772c0,32.028-0.116,50.714,17.038,80.956
		c9.345,16.469,13.941,33.025,14.312,54.975c-0.425,10.621-0.568,74.427-1.961,110.348c-0.851,22.69-1.217,37.654-3.658,47.225
		c-2.017,7.892-7.611,13.117-14.684,16.33c-20.93,9.538-56.708,9.538-77.664,0c-7.042-3.213-12.638-8.438-14.653-16.33
		c-2.471-9.57-2.811-24.534-3.694-47.225C327.625,275.446,327.51,211.64,327.058,201.02z"/>
	<path fill-rule="evenodd" clip-rule="evenodd" fill="#90ABE0" d="M414.8,96.434c-4.713,2.614-15.758,4.433-28.622,4.433
		c-12.806,0-23.851-1.819-28.595-4.433c0.172-1.73,0.285-3.464,0.397-5.253c0.796,0.088,1.677,0.34,2.557,0.626
		c5.594,1.903,15.021,3.153,25.641,3.153c10.453,0,19.705-1.194,25.359-3.039c0.966-0.312,1.988-0.652,2.897-0.74
		C414.518,92.944,414.66,94.704,414.8,96.434z"/>
	<path fill-rule="evenodd" clip-rule="evenodd" fill="#B8CAED" d="M417.244,94.96c0,3.975-13.941,7.211-31.066,7.211
		c-17.095,0-31.036-3.237-31.036-7.211c0-3.208,2.755-2.727,5.395-1.847c5.594,1.902,15.021,3.182,25.641,3.182
		c10.453,0,19.705-1.221,25.359-3.069C414.205,92.347,417.244,91.493,417.244,94.96z"/>
	<linearGradient id="SVGID_3_" gradientUnits="userSpaceOnUse" x1="356.7739" y1="319.7686" x2="356.7739" y2="82.9382">
		<stop  offset="0" style="stop-color:#CBDAF2"/>
		<stop  offset="1" style="stop-color:#CEDCF4"/>
	</linearGradient>
	<path fill-rule="evenodd" clip-rule="evenodd" fill="url(#SVGID_3_)" d="M340.886,176.683c4.97-24.192,16.413-32.085,22.206-55.571
		c2.074-8.433,4.089-18.371,4.004-32.372c-0.031-2.042-0.031-3.747,0-5.195h7.128c-0.031,1.818,1.021,1.023,1.021,4.117
		c-0.113,49.408-13.517,59.036-22.773,78.543c-8.319,17.491-9.825,45.89-10.279,78.628c-0.371,28.567-0.939,56.823-1.874,85.36
		c-1.45-28.281-2.3-68.378-1.932-102.906C338.615,207.918,337.734,192.133,340.886,176.683z"/>
	<linearGradient id="SVGID_4_" gradientUnits="userSpaceOnUse" x1="413.8252" y1="218.0449" x2="359.0052" y2="218.0449">
		<stop  offset="0" style="stop-color:#CEDCF4"/>
		<stop  offset="1" style="stop-color:#E7ECF9"/>
	</linearGradient>
	<path fill-rule="evenodd" clip-rule="evenodd" fill="url(#SVGID_4_)" d="M331.713,201.104
		c0.853-49.805,31.493-63.268,31.493-110.403c0-22.942,0,0,0-22.942l23,6.243l22.975-6.243c0,22.942,0,0,0,22.942
		c0,47.136,30.668,60.598,31.488,110.403c-0.279,7.215-1.359,110.095-1.589,139.171c-0.172,23.513-30.187,27.83-52.874,28.059
		c-22.716-0.229-52.731-4.546-52.901-28.059C333.107,311.198,332.025,208.319,331.713,201.104z"/>
	<linearGradient id="SVGID_5_" gradientUnits="userSpaceOnUse" x1="359.3159" y1="142.292" x2="359.3159" y2="105.2945">
		<stop  offset="0" style="stop-color:#E9F0FA"/>
		<stop  offset="1" style="stop-color:#FFFFFF"/>
	</linearGradient>
	<path fill-rule="evenodd" clip-rule="evenodd" fill="url(#SVGID_5_)" d="M339.979,200.679c0.111-5.537,0.566-10.651,1.249-15.391
		c5.621-38.734,27.517-54.267,27.771-97.03c0.171-23.372,0.029,0,0.171-23.372l9.484,2.329c-0.142,19.423,0-1.504-0.142,21.043
		c-0.141,21.095-5.537,35.581-11.643,49.464c-3.776,8.605-8.063,17.066-11.668,25.729c-3.438,8.264-5.823,16.156-7.357,26.151
		c-1.277,8.491-2.017,17.209-2.583,26.238c-1.932,30.866-4.346,61.82-5.14,92.744L339.979,200.679z"/>
	<path fill-rule="evenodd" clip-rule="evenodd" fill="#C2D1F0" d="M409.492,98.396c-5.705,1.503-14.056,2.472-23.314,2.472
		c-9.229,0-17.549-0.939-23.256-2.446c0.144-1.899,0.228-3.832,0.284-5.818c5.679,1.448,13.886,2.357,22.972,2.357
		c9.117,0,17.352-0.909,23.031-2.386C409.234,94.59,409.353,96.522,409.492,98.396z"/>
	<linearGradient id="SVGID_6_" gradientUnits="userSpaceOnUse" x1="439.0664" y1="257.5146" x2="338.7336" y2="257.5146">
		<stop  offset="0" style="stop-color:#EADBCA"/>
		<stop  offset="0.65" style="stop-color:#FBF4F0"/>
		<stop  offset="1" style="stop-color:#F4EDE6"/>
	</linearGradient>
	<path fill-rule="evenodd" clip-rule="evenodd" fill="url(#SVGID_6_)" d="M331.713,201.104c0.428-23.937,7.726-39.5,15.194-54.406
		h78.597c7.473,14.906,14.77,30.47,15.165,54.406c-0.279,7.215-1.359,110.095-1.589,139.171
		c-0.172,23.513-30.187,27.83-52.874,28.059c-22.716-0.229-52.731-4.546-52.901-28.059
		C333.107,311.198,332.025,208.319,331.713,201.104z"/>
	<linearGradient id="SVGID_7_" gradientUnits="userSpaceOnUse" x1="422.2285" y1="219.9883" x2="422.2285" y2="343.1936">
		<stop  offset="0" style="stop-color:#F2EADD"/>
		<stop  offset="1" style="stop-color:#FFFFFF"/>
	</linearGradient>
	<path fill-rule="evenodd" clip-rule="evenodd" fill="url(#SVGID_7_)" d="M425.96,147.577c7.3,14.65,14.313,30.07,14.709,53.526
		c-0.279,7.215-1.359,110.095-1.589,139.171c-0.113,17.689-17.183,24.505-35.293,26.893c13.968-4.26,27.401-12.494,27.484-26.893
		c0.229-29.076,1.592-131.956,1.592-139.171C432.863,183.527,430.704,163.111,425.96,147.577z"/>
	<path fill-rule="evenodd" clip-rule="evenodd" fill="#FFFFFF" d="M339.979,211.014c0.111-6.614,0.596-12.693,1.305-18.342
		c2.357-18.485,7.411-32.515,12.665-45.974h9.826c-2.728,6.618-5.454,13.231-7.896,19.963c-3.605,9.854-6.104,19.25-7.695,31.151
		c-1.335,10.137-2.102,20.501-2.698,31.266c-2.017,36.771-4.514,73.656-5.366,110.458L339.979,211.014z"/>
	<linearGradient id="SVGID_8_" gradientUnits="userSpaceOnUse" x1="392.1357" y1="78.6978" x2="357.0899" y2="78.6978">
		<stop  offset="0" style="stop-color:#ABB7D2"/>
		<stop  offset="1" style="stop-color:#C2CADF"/>
	</linearGradient>
	<path fill-rule="evenodd" clip-rule="evenodd" fill="url(#SVGID_8_)" d="M353.92,85.077c0-6.104,0-11.329,0-18.544h32.258h32.288
		c0,7.156,0,12.923,0,18.969C398.445,92.86,374.904,92.574,353.92,85.077z"/>
	<linearGradient id="SVGID_9_" gradientUnits="userSpaceOnUse" x1="373.8257" y1="86.2886" x2="373.8257" y2="74.704">
		<stop  offset="0" style="stop-color:#CED3E4"/>
		<stop  offset="1" style="stop-color:#BCC6DC"/>
	</linearGradient>
	<path fill-rule="evenodd" clip-rule="evenodd" fill="url(#SVGID_9_)" d="M368.998,89.139c0-0.286,0-0.569,0-0.88
		c0.171-22.774,0.029-1.136,0.144-21.726h6.813l2.698,0.682c-0.142,19.423,0-1.504-0.142,21.043c0,0.737-0.026,1.474-0.026,2.214
		C375.302,90.162,372.149,89.732,368.998,89.139z"/>
	<path fill-rule="evenodd" clip-rule="evenodd" fill="#98A6C5" d="M407.959,66.533v22.066c3.578-0.824,7.098-1.847,10.507-3.097
		c0-6.046,0-11.813,0-18.969H407.959z"/>
	<linearGradient id="SVGID_10_" gradientUnits="userSpaceOnUse" x1="386.1934" y1="59.8633" x2="386.1934" y2="73.3639">
		<stop  offset="0" style="stop-color:#C2CADF"/>
		<stop  offset="1" style="stop-color:#CED3E4"/>
	</linearGradient>
	<path fill-rule="evenodd" clip-rule="evenodd" fill="url(#SVGID_10_)" d="M386.206,73.803c17.833,0,32.4-3.208,32.4-7.183
		c0-3.977-14.567-7.215-32.4-7.215c-17.86,0-32.427,3.238-32.427,7.215C353.779,70.596,368.346,73.803,386.206,73.803z"/>
	<linearGradient id="SVGID_11_" gradientUnits="userSpaceOnUse" x1="360.2114" y1="66.7607" x2="398.5331" y2="62.733">
		<stop  offset="0" style="stop-color:#E4E8F2"/>
		<stop  offset="1" style="stop-color:#CED3E4"/>
	</linearGradient>
	<path fill-rule="evenodd" clip-rule="evenodd" fill="url(#SVGID_11_)" d="M384.901,61.051c11.7,0,21.636,1.65,25.104,3.92
		c-4.832-1.391-12.522-2.299-21.186-2.299c-14.54,0-26.406,2.556-26.406,5.708c0,0.594,0.479,1.191,1.333,1.761
		c-3.295-0.964-5.252-2.131-5.252-3.41C358.493,63.611,370.362,61.051,384.901,61.051z"/>
	<linearGradient id="SVGID_12_" gradientUnits="userSpaceOnUse" x1="392.5293" y1="86.6665" x2="355.9908" y2="86.6665">
		<stop  offset="0" style="stop-color:#889ABC"/>
		<stop  offset="1" style="stop-color:#B7BFD7"/>
	</linearGradient>
	<path fill-rule="evenodd" clip-rule="evenodd" fill="url(#SVGID_12_)" d="M419.229,85.047c-3.146,3.894-16.78,6.815-33.023,6.815
		c-14.511,0-26.947-2.329-31.691-5.591c-2.469-1.704-3.037-6.361,2.214-3.637c0.684,0.34,0.882,0.568,1.62,0.821
		c6.077,2.245,16.299,3.751,27.857,3.751c11.33,0,21.383-1.449,27.517-3.634c1.077-0.37,2.243-1.081,3.236-1.591
		C420.481,80.193,420.453,83.544,419.229,85.047z"/>
	<path fill-rule="evenodd" clip-rule="evenodd" fill="#7B90B4" d="M407.959,85.165v4.685c5.679-1.225,9.738-2.9,11.271-4.802
		c1.224-1.503,1.252-4.854-2.271-3.065c-0.993,0.51-2.159,1.221-3.236,1.591C412.075,84.167,410.144,84.706,407.959,85.165z"/>
	<linearGradient id="SVGID_13_" gradientUnits="userSpaceOnUse" x1="438.2822" y1="362.8799" x2="334.3016" y2="362.8799">
		<stop  offset="0" style="stop-color:#C4D5F1"/>
		<stop  offset="1" style="stop-color:#FFFFFF"/>
	</linearGradient>
	<path fill-rule="evenodd" clip-rule="evenodd" fill="url(#SVGID_13_)" d="M440.361,347.517
		c-2.159,24.474-25.359,30.385-54.155,30.726c-28.793-0.341-51.992-6.252-54.151-30.726c4.601,20.673,26.893,25.842,54.151,26.154
		C413.438,373.358,435.755,368.189,440.361,347.517z"/>
	<g>
		<path fill-rule="evenodd" clip-rule="evenodd" fill="#FFFFFF" d="M386.206,138.745c25.756,0,39.472,3.92,39.472,8.718
			c0,4.799-13.716,8.718-39.472,8.718c-25.783,0-39.47-3.919-39.47-8.718C346.736,142.665,360.423,138.745,386.206,138.745z"/>
		<path fill-rule="evenodd" clip-rule="evenodd" fill="#F2EAE0" d="M353.694,150.276c6.955,1.789,15.475,2.98,33.25,2.98
			c17.774,0,31.858-3.124,31.858-6.332s-12.291-5.367-28.933-6.104c12.948,0.935,21.864,2.442,21.864,5.166
			c0,2.728-10.279,5.767-31.86,5.767C369.821,151.753,360.648,151.186,353.694,150.276z"/>
	</g>
	<path fill-rule="evenodd" clip-rule="evenodd" fill="#CEDCF4" d="M362.808,99.701c0.171-1.874,0.285-3.806,0.342-5.792
		c5.708,1.447,13.914,2.386,23.028,2.386c9.143,0,17.377-0.939,23.057-2.416c0.059,2.017,0.172,3.949,0.346,5.822
		c-5.684,1.507-14.086,2.47-23.402,2.47C376.894,102.171,368.517,101.208,362.808,99.701z"/>
	<path fill-rule="evenodd" clip-rule="evenodd" fill="#DFE8F7" d="M368.771,95.045c2.841,0.455,6.02,0.795,9.428,0.994
		c-0.14,2.016-0.342,3.974-0.567,5.851c-3.407-0.227-6.56-0.572-9.372-1.052C368.486,98.964,368.658,97.032,368.771,95.045z"/>
	<linearGradient id="SVGID_14_" gradientUnits="userSpaceOnUse" x1="372.4155" y1="95.6655" x2="414.2508" y2="95.6655">
		<stop  offset="0" style="stop-color:#FFFFFF"/>
		<stop  offset="1" style="stop-color:#D5E1F5"/>
	</linearGradient>
	<path fill-rule="evenodd" clip-rule="evenodd" fill="url(#SVGID_14_)" d="M416.336,95.782c0,0.114-0.029,0.198-0.029,0.286
		c-0.311-2.442-3.068-1.734-5.535-1.023c-5.451,1.617-14.457,2.668-24.594,2.668c-10.307,0-19.451-1.107-24.877-2.753
		c-2.412-0.74-4.911-1.136-5.224,1.108c-0.027-0.088-0.027-0.172-0.027-0.286c0-2.782,2.668-2.357,5.251-1.591
		c5.426,1.679,14.57,2.786,24.877,2.786c10.137,0,19.143-1.081,24.594-2.669C413.384,93.538,416.336,92.801,416.336,95.782z"/>
	<linearGradient id="SVGID_15_" gradientUnits="userSpaceOnUse" x1="362.5537" y1="88.4272" x2="414.5431" y2="88.4272">
		<stop  offset="0" style="stop-color:#C9D1E2"/>
		<stop  offset="1" style="stop-color:#7B90B4"/>
	</linearGradient>
	<path fill-rule="evenodd" clip-rule="evenodd" fill="url(#SVGID_15_)" d="M415.737,86.213c-5.762,2.64-16.837,4.429-29.531,4.429
		c-12.665,0-23.711-1.789-29.477-4.399c6.674,2.1,17.41,3.464,29.449,3.464C398.272,89.707,409.066,88.343,415.737,86.213z"/>
	<g>
		<linearGradient id="SVGID_16_" gradientUnits="userSpaceOnUse" x1="376.7534" y1="226.7607" x2="431.8795" y2="226.7607">
			<stop  offset="0" style="stop-color:#D5DEF7"/>
			<stop  offset="1" style="stop-color:#B8C8EC"/>
		</linearGradient>
		<path fill-rule="evenodd" clip-rule="evenodd" fill="url(#SVGID_16_)" d="M386.206,194.519c13.717,0,25.787,6.357,32.344,15.787
			c4.345-0.711,8.436-1.562,12.183-2.585c6.644-1.79,6.589,1.28,6.388,8.575c-0.14,5.764-0.283,1.024-0.456,11.076
			c-0.079,5.422,0.199,7.553-5.194,9.396c-3.321,1.165-6.954,2.159-10.818,3.01c-5.852,11.302-19.108,19.225-34.445,19.225
			c-15.362,0-28.595-7.923-34.471-19.225c-3.833-0.851-7.471-1.845-10.821-3.01c-5.368-1.844-5.111-3.975-5.167-9.396
			c-0.171-10.052-0.341-5.312-0.483-11.076c-0.172-7.295-0.253-10.364,6.418-8.575c3.747,1.022,7.838,1.874,12.153,2.585
			C360.423,200.876,372.462,194.519,386.206,194.519z"/>
		<linearGradient id="SVGID_17_" gradientUnits="userSpaceOnUse" x1="359.0054" y1="226.7617" x2="414.7154" y2="226.7617">
			<stop  offset="0" style="stop-color:#C0D0F4"/>
			<stop  offset="1" style="stop-color:#90ABE0"/>
		</linearGradient>
		<path fill-rule="evenodd" clip-rule="evenodd" fill="url(#SVGID_17_)" d="M386.235,254.49c17.804,0,32.34-12.439,32.34-27.716
			c0-15.278-14.536-27.742-32.34-27.742c-17.833,0-32.373,12.464-32.373,27.742C353.863,242.051,368.402,254.49,386.235,254.49z"/>
		<g>
			<linearGradient id="SVGID_18_" gradientUnits="userSpaceOnUse" x1="381.0913" y1="215.9902" x2="408.4059" y2="215.9902">
				<stop  offset="0" style="stop-color:#FFFFFF"/>
				<stop  offset="1" style="stop-color:#D9E0F4"/>
			</linearGradient>
			<path fill-rule="evenodd" clip-rule="evenodd" fill="url(#SVGID_18_)" d="M363.461,221.096l43.273-6.332l2.925,2.955
				c-0.025-4.576-3.005-6.364-7.008-5.684c-3.553,0.598-5.169,1.534-9.09,1.167c-3.577-0.341-7.185-1.478-10.591-1.958
				c-6.617-0.938-13.15,0-20.39,2.354C361.729,215.614,364.313,219.049,363.461,221.096z"/>
			<path fill-rule="evenodd" clip-rule="evenodd" fill="#5182CF" d="M399.498,229.557c1.363,1.081,2.13,2.075,2.808,3.381
				c1.759,3.409,2.274,7.695,0.029,11.101c-0.624,0.998,0.401,1.25,1.107,1.166c0.568-0.056,1.138-0.113,1.306-0.825
				c0.088-0.312,0.172-0.623,0.257-0.935c1.221-0.144,0.854,0.085,1.25-1.053c0.735-2.045-0.284-4.655-0.143-7.156
				c0.088-1.275,0.652-1.646,0.058-2.782c-0.967-1.845-1.165-3.776-0.997-5.821l-5.621,0.143L399.498,229.557z"/>
			<g>
				<path fill-rule="evenodd" clip-rule="evenodd" fill="#5182CF" d="M392.368,231.034l-0.281,0.029
					c0.479,0,1.046,0.228,1.501,0.539c0.71,0.51,1.226,1.022,1.877,1.36c1.903,0.997,4.033,1.025,6.078-0.312
					c0.683-0.425,1.306-0.904,1.815-0.964c2.98-0.312-1.616-5.877-4.8-5.877C396.514,225.81,392.368,229.216,392.368,231.034z"/>
				<path fill-rule="evenodd" clip-rule="evenodd" fill="#5182CF" d="M395.01,231.855c0.969-0.026,0.455,0.572,0.455,1.393
					c0,0.144,0,0.624,0,0.767c-0.113,1.107-0.796,1.082-0.88-0.026c0-0.116-0.029-0.626-0.029-0.74
					C394.556,232.428,394.072,231.885,395.01,231.855z"/>
				<path fill-rule="evenodd" clip-rule="evenodd" fill="#5182CF" d="M401.173,232.027c0.935-0.029,0.455,0.598,0.455,1.39
					c0,0.143,0,0.656,0,0.771c-0.113,1.133-0.795,1.078-0.883,0c-0.031-0.144-0.031-0.628-0.031-0.771
					C400.714,232.625,400.234,232.057,401.173,232.027z"/>
				<path fill-rule="evenodd" clip-rule="evenodd" fill="#5182CF" d="M396.968,232.882c0.939-0.028,0.455,0.594,0.455,1.39
					c0,0.144,0,0.623-0.029,0.766c-0.081,1.107-0.763,1.078-0.852-0.028c-0.028-0.114-0.028-0.594-0.028-0.737
					C396.514,233.476,396.029,232.907,396.968,232.882z"/>
				<path fill-rule="evenodd" clip-rule="evenodd" fill="#5182CF" d="M399.212,232.882c0.967-0.028,0.454,0.594,0.454,1.39
					c0,0.144,0,0.623,0,0.766c-0.114,1.107-0.791,1.078-0.879-0.028c0-0.114-0.03-0.594-0.03-0.737
					C398.757,233.476,398.272,232.907,399.212,232.882z"/>
			</g>
			<path fill-rule="evenodd" clip-rule="evenodd" fill="#5182CF" d="M375.302,230.668c1.42,1.106,2.868,1.76,4.06,1.418
				c0.709,3.89,1.42,9.03-0.511,12.521c-0.198,0.34-0.312,0.566,0.425,0.74c0.457,0.084,1.167,0.028,1.592-0.115
				c0.967-0.311,0.938-1.249,0.995-2.188c1.219,1.478,0.964-8.491,0.994-12.011c0.511-0.028,1.077-0.084,1.673-0.084l-0.424-4.433
				l-9.203,0.202L375.302,230.668z"/>
			<linearGradient id="SVGID_19_" gradientUnits="userSpaceOnUse" x1="381.8794" y1="229.541" x2="408.1971" y2="229.541">
				<stop  offset="0" style="stop-color:#FFFFFF"/>
				<stop  offset="1" style="stop-color:#D9E0F4"/>
			</linearGradient>
			<path fill-rule="evenodd" clip-rule="evenodd" fill="url(#SVGID_19_)" d="M363.602,222.658c1.194,0.538,2.301,0.256,2.985,1.052
				c1.787,2.126,5.791,9.425,9.026,8.461c0.484,3.974,0.913,7.043-0.425,10.818c-0.198,0.599-0.454,1.078-0.765,1.618
				c-0.229,0.429-0.285,0.74,0.48,0.909c0.483,0.113,1.221,0.113,1.648-0.027c0.994-0.315,0.852-1.362,0.994-2.327
				c1.563,2.126,1.99-8.806,2.047-10.793c1.929,0.622,9.538,0.736,13.459-0.881c2.468-1.022,3.747-2.925,4.913-3.776
				c1.533-1.106,2.947,0.258,3.861,1.532c0.794,1.108,1.532,2.611,2.016,3.466c2.101,3.637,3.548,7.694,1.331,11.357
				c-0.652,1.081,0.483,1.334,1.254,1.25c0.595-0.085,1.192-0.113,1.359-0.909c0.085-0.311,0.145-0.652,0.232-0.994
				c0.623-0.055,0.85-0.028,0.989-0.964c0.37-2.243-0.199-6.73-0.253-7.809c-0.056-1.394,0.623-1.76-0.084-2.955
				c-1.991-3.435-1.481-7.071-0.855-11.244l-5.079-6.731c-1.766,0.144-3.437,0.969-5.171,1.365
				c-0.627,0.172-1.279,0.256-1.933,0.228c-5.962-0.199-11.386-1.845-16.867-1.818c-2.754,0-4.343,0.428-6.5,0.598
				c-2.016,0.198-4.801,2.185-6.705,2.075C364.711,218.199,364.455,220.641,363.602,222.658z"/>
			<path fill-rule="evenodd" clip-rule="evenodd" fill="#5182CF" d="M363.602,222.658c5.54,2.469,4.46,10.106,12.071,10.675
				c0.198,1.023,0.139,1.053,0.339,2.559c1.676-0.058,1.28-2.475,0.994-3.438c-0.369-1.306-0.623-2.156,0.91-2.497
				c1.732-0.369,1.249-1.646,0.882-2.669c-0.512-1.334,0.623-2.303,1.816-1.734c0.254,0.115,0.512,0.283,0.823,0.514
				c1.363,1.021,1.988-0.711,1.39-1.817c-0.454-0.881,0.795-1.335,0.854-0.031c0.056,1.933,2.755-0.054,2.015,1.592
				c-0.341,0.767,0.342,1.192,0.994,0.935c1.362-0.566,1.761-0.479,2.271,0.797c0.511,1.249,2.755,1.105,2.698-0.569
				c0-0.623,0.197-1.216,0.767-1.447c1.279-0.54,1.388-1.588,0.707-2.694c-0.651-1.081-0.536-1.646-0.197-2.046
				c0.197-0.229,0.228-0.426,0.969-0.569c0.541-0.084,0.938,0.03,1.615-0.228c0.741-0.285,1.309-1.25,0.51-2.017
				c-0.51-0.454-2.216-0.879-1.503-1.813c0.116-0.144,0.91-0.144,1.106-0.854c-3.546-0.085-6.757-0.881-9.938-1.507
				c-0.396-0.085-1.675-0.139-0.993,0.513c0.227,0.257,0.624,0.341,0.91,0.484c1.191,0.594,0.536,1.874-0.371,1.702
				c-1.334-0.254-1.761,0.825-0.852,1.304c0.879,0.484,1.223,0.4,2.017,1.28c0.965,1.077-0.711,1.817-1.393,1.136
				c-0.509-0.538-0.624-1.62-2.387-0.37c-0.992,0.711-3.746,0.624-3.746-1.305c0-0.766,1.448-3.436-0.569-2.838
				c-1.135,0.338-2.357-0.315-1.107-1.537c0.482-0.509,0.086-1.078-0.966-1.047c-3.52,0.312-7.271,1.221-12.183,2.185
				C363.206,217.349,364.455,220.641,363.602,222.658L363.602,222.658z M375.73,213.143c-0.03,0.029-0.03,0.029-0.057,0.029l0,0
				C375.7,213.172,375.73,213.143,375.73,213.143z"/>
			<path fill-rule="evenodd" clip-rule="evenodd" fill="#5182CF" d="M407.307,224.56c0.168-2.299,0.652-4.744,0.935-7.413
				c0.567,2.757,0.114,5.881,0.228,8.832c0.085,1.991,0.484,3.894,1.477,5.54c0.316,0.509,0.427,1.022,0.595,1.531
				c0.484,1.395,1.254,1.395,2.017,2.357c0.314,0.368,0.484,1.137,0.029,2.046c1.308-1.478,1.308-3.38,0.622-4.234
				c-0.337-0.425-0.79-0.707-1.246-0.963c-3.89-2.273-2.609-9.426-2.303-13.29c0.572-7.438-6.13-6.134-10.586-4.371
				c-0.572,0.224-1.138,0.366-1.65,0.535c-0.168,0.74,0.938,1.138,1.249,1.537c0.115,0.143,0.229,0.51-0.34,1.275
				c-0.796,1.081,0.028,1.338,1.022,1.591c0.37,0.085,0.736,0.228,0.935,0.539c0.228,0.342,0.228,0.768,0.316,1.111
				c0.168,0.565,0.82,0.762,1.334,0.622c0.396-0.084,0.681-0.454,0.766-0.854c0.057-0.366,0.031-0.796,0-1.221
				c-0.085-1.049,0.144-1.904,1.279-2.186c1.42-0.341,2.071,1.959,0.881,2.753c-0.682,0.426-0.682,1.676,0.623,1.307
				c0.454-0.11,0.682,0.315,0.682,0.598c0,0.286-0.058,0.512-0.114,0.711C405.686,224.361,406.793,224.589,407.307,224.56z"/>
			<path fill-rule="evenodd" clip-rule="evenodd" fill="#5182CF" d="M366.812,216.183c0.484,3.89-1.021,4.487-2.469,6.588
				c-0.286,0.396-0.712,1.335-0.369,2.214c0.537,1.364-0.711,2.131-2.189,2.159c-1.248,0.031-2.64-0.454-2.498-1.873
				c0.115-1.531,0.426-3.01-0.171-4.431c-0.228-0.595-0.652-1.079-0.908-1.676c-0.256-0.624-0.454-1.39-0.398-2.156
				c-0.852-0.315-1.959,0.594-3.664-0.228c-0.652-0.312-3.096-2.017-0.993-2.757c1.931-0.653,2.725-0.367,3.775,0.542
				c0.994,0.795,1.224,0.114,0.511-0.312c-1.134-0.685-1.702-3.24,0.086-4.374c-0.738,1.133-0.027,2.951,1.138,3.179
				c1.615-1.479,4.938-1.646,6.699-0.312c1.167-0.484,1.478-2.129,0.854-3.208c1.619,1.079,1.561,3.208,0.652,4.059
				c-0.625,0.598-0.481,1.166,0.342,0.454c1.221-1.021,1.59-1.476,3.464-1.275c2.244,0.254,0,2.471-0.596,2.838
				C368.685,216.523,367.608,216.04,366.812,216.183z"/>
			<path fill-rule="evenodd" clip-rule="evenodd" fill="#5182CF" d="M395.04,222.631c0.479,0.51,0.682,0.737,0.255,1.391
				c-0.85,1.279,0.764,1.418,1.533,0.651c0.03-0.029,0.03-0.029,0.056-0.058c1.221-1.307,0.371-2.81-1.022-2.922
				C395.149,221.605,394.445,221.945,395.04,222.631z"/>
			<path fill-rule="evenodd" clip-rule="evenodd" fill="#FFFFFF" d="M363.888,223.906c0.709,2.018,0.112,3.181-2.103,3.237
				c-1.306,0.031-2.244-0.256-2.556-1.077c-0.198-0.567-0.056-1.423,0.173-2.188c0.736-0.198,1.188-1.163,1.134-2.298
				c-0.086-2.729-1.819-5.169-1.334-7.3c0.454-1.903,3.833-2.046,4.97-0.91c1.021,0.994-0.086,3.297-1.107,5.852
				C362.156,221.406,362.156,223.537,363.888,223.906z"/>
			<path fill-rule="evenodd" clip-rule="evenodd" fill="#FFFFFF" d="M364.938,217.177c0.229,0.112,0.283,0.454,0.144,0.794
				c-0.172,0.312-0.456,0.51-0.711,0.399c-0.229-0.087-0.285-0.452-0.114-0.769C364.397,217.265,364.711,217.062,364.938,217.177z"
				/>
			<path fill-rule="evenodd" clip-rule="evenodd" fill="#FFFFFF" d="M358.52,217.517c-0.227,0.114-0.255,0.485-0.086,0.796
				c0.172,0.341,0.484,0.515,0.711,0.37c0.229-0.114,0.258-0.454,0.084-0.796C359.059,217.576,358.748,217.403,358.52,217.517z"/>
			<path fill-rule="evenodd" clip-rule="evenodd" fill="#FFFFFF" d="M357.045,216.468c-0.684,0.225-2.871,0.342-4.12-1.392
				C354.943,214.537,357.128,216.38,357.045,216.468z"/>
			<path fill-rule="evenodd" clip-rule="evenodd" fill="#FFFFFF" d="M367.097,215.644c0.738,0.172,2.897,0.114,4.004-1.705
				C369.056,213.54,367.041,215.585,367.097,215.644z"/>
		</g>
	</g>
	<path fill-rule="evenodd" clip-rule="evenodd" fill="#EEEFF9" d="M339.979,211.014c0.027-1.247,0.055-2.439,0.111-3.634
		c0.484,0.088,0.996,0.198,1.591,0.341c1.676,0.455,3.435,0.88,5.252,1.28c-0.623,6.558-1.078,13.23-1.447,20.076
		c-0.169,2.979-0.34,5.989-0.513,8.971c-1.391-0.396-2.753-0.825-4.06-1.279c-0.312-0.111-0.624-0.225-0.908-0.338L339.979,211.014z
		"/>
</g>
</svg>
