<svg version="1.1" id="Layer_1" xmlns="http://www.w3.org/2000/svg" xmlns:xlink="http://www.w3.org/1999/xlink" viewBox="0 0 768 430" enable-background="new 0 0 768 430" xml:space="preserve">
<g>
	<path fill="#395718" d="M433.274,74.385c-16.295,5.967-26.082,23.02-22.629,40.355c-1.827,0.363-3.655,0.728-5.484,1.092
		c-4.02-20.191,6.148-42.719,25.085-49.782c1.728-0.644,3.646,0.259,4.281,1.989c0.246,0.668,0.507,1.367,0.757,2.042
		C435.926,71.826,435.02,73.746,433.274,74.385z"/>
	<g>
		<circle fill="#7C9A24" cx="420.39" cy="236.874" r="144.962"/>
		<path fill="#395718" d="M469.013,359.086c8.932-6.403,4.848-17.97,3.828-27.497c-0.34-3.061-3.401-2.72-5-4.243
			c-0.345-0.647-0.993-1.389-1.76-2.07c-2.298-2.041-5.487-3.123-7.527-5.932c-5.783-7.145-3.741-17.349,2.722-22.791
			c-1.021,0-2.041,0.34-2.816-0.631c-0.813-0.677-1.59-1.465-2.297-2.321c-2.825-3.437-4.413-7.82-3.731-12.356
			c0.17-1.021,0.446-1.999,0.802-2.945c0.355-0.944,0.792-1.859,1.281-2.752c0.74-2.331,1.209-4.659,1.484-6.982
			c0.136-1.161,0.265-2.87,0.393-3.894c-0.898-11.322-1.24-22.548-3.882-33.271c-0.185-0.683-0.31-1.012-0.508-1.415
			c-0.345-0.923-0.719-1.842-1.123-2.76c-0.141-0.646-0.249-1.283-0.317-1.794c-0.14-1.02-0.307-2.022-0.511-3.007
			c-0.056-0.537-0.129-1.256-0.129-1.256c-0.093-0.882,0.005-1.857,0.243-2.772c2.606-10.972,5.669-21.857,4.707-33.072
			c-0.164-0.57-0.335-1.302-0.514-1.997c-3.044-11.826-8.263-32.097-8.263-32.097c-0.151-0.585-0.227-1.188-0.227-1.792v-16.476
			c0-0.653-0.089-1.304-0.265-1.932l-6.204-22.214l-4.917-16.226c-4.637-0.447-9.338-0.679-14.093-0.679
			c-0.318,0-0.638,0.004-0.956,0.006c0.04,0.491,0.131,0.984,0.278,1.475l7.614,25.496c0.062,0.207,0.133,0.411,0.214,0.612
			l6.945,17.365c0.597,1.491,0.677,3.139,0.226,4.681l-4.251,14.568c-0.419,1.437-0.38,2.971,0.116,4.384l4.427,12.659
			c0.267,0.762,0.403,1.564,0.403,2.372c0,0,0,14.074,0,21.111c0,2.346,0,3.91,0,3.91c0,1.125-0.266,2.236-0.773,3.242
			c0,0-0.814,1.612-1.903,3.762c-0.542,1.076-1.154,2.288-1.777,3.578c-3.696,6.838,2.089,13.984,2.089,20.786
			c0,4.536-4.017,8.6-5.781,13.374c-0.353,0.954-0.615,1.937-0.737,2.956c0.014,0.719,0,1.559,0,2.327c0,6.166,0,12.329,0,12.329
			c0,1.592,0.528,3.138,1.502,4.397l12.647,16.34c1.226,1.584,1.735,3.606,1.405,5.581l-2.587,15.519
			c-0.061,0.368-0.15,0.725-0.258,1.051c-0.142,1.151-0.379,2.307-0.688,3.464c-0.307,1.16-0.683,2.319-1.103,3.479
			c7.504,10.015,7.844,23.96-4.743,30.083c-0.68,0.341,0.681,2.042,0.501,3.465c0.315,1.337,0.619,2.624,0.885,3.748
			c0.531,2.243,0.906,3.827,0.906,3.827c0.271,1.151,0.256,2.351-0.047,3.495l-4.723,17.83c-0.071,0.263-0.124,0.532-0.164,0.802
			l-0.814,5.583c10.219-0.616,20.154-2.29,29.695-4.916c2.987-5.211,6.115-10.664,8.371-14.596
			C467.958,360.927,468.533,359.922,469.013,359.086z"/>
		<path fill="#395718" d="M408.853,371.45c0,0-0.156-0.487-0.417-1.3c-0.26-0.814-0.631-2.064-1.043-3.255
			c-1.228-6.729-8.711-11.831-9.051-17.276c-0.341-5.102,6.803-10.206,7.842-16.653c0.161-0.871,0.256-1.394,0.256-1.394
			c0.239-1.312,0.109-2.663-0.375-3.904c0,0-0.951-2.442-2.264-5.804c-0.225-1.095-0.479-2.013-0.739-2.944
			c-0.978-7.74-11.184-10.802-13.905-15.562c-2.04-4.083,4.082-11.568,3.339-18.1c-0.062-0.796-0.021-1.502,0.074-1.984
			c0.19-0.959,0.577-1.883,1.147-2.704l11.793-16.969c0.909-1.308,1.357-2.88,1.275-4.47c0,0-0.02-0.386-0.054-1.057
			c0.062-0.647,0.064-1.646,0.121-2.408c-2.389-10.821-5.449-20.687-1.795-31.819c0.017-1.423-0.138-3.162-0.304-4.229
			c-1.023-6.53-3.514-12.691-7.66-18.18c-0.594-0.784-1.22-1.555-1.879-2.311c0.745-7.69-5.038-14.154-5.377-21.298
			c-0.341-4.763-4.992-11.223-2.777-16.418c0.199-0.977,6.42-4.368,6.56-4.844c0.558-1.906,1.346-3.372,1.346-3.372
			c0.421-1.437,1.163-4.074,0.671-5.488l-3.258-9.352c-0.528-1.517-0.534-3.167-0.016-4.687l6.046-17.698
			c0.069-0.205,0.131-0.413,0.184-0.622l5.486-22.526c-5.243,0.587-10.401,1.455-15.46,2.585l-2.602,10.501l-5.056,22.503
			c-0.144,0.637-0.2,1.291-0.166,1.943l0.847,16.454c0.03,0.603-0.015,1.208-0.135,1.8c0,0-1.169,5.75-2.631,12.936
			c-0.163,0.799-0.329,1.615-0.496,2.443c-0.791,5.336,5.674,9.079,4.312,13.161c-1.36,3.402-7.145,5.103-8.878,9.312
			c-0.228,1.784-0.621,3.032-0.621,3.032c-0.25,1.223-0.174,2.49,0.215,3.675l7.516,22.87c0.277,0.842,0.396,1.729,0.351,2.614
			c0,0-0.526,10.147-0.854,16.49c-0.556,1.348-0.757,2.164-0.881,2.743c-2.631,6.617,1.792,14.104,1.111,20.566
			c-0.681,4.763-4.764,9.186-6.478,14.164c-0.138,0.988-0.468,2.516-0.625,3.644c-0.312,2.256-0.584,4.517-0.805,6.779
			c0.016,0.731,0.011,2.231,0.016,3.94c0.006,1.711-0.004,3.834-0.053,6.222c-0.024,1.195-0.024,2.479,0.094,3.859
			c0.353,2.467,0.359,4.891,0.131,7.314c-0.161,0.981-0.461,2.197-0.581,2.977c-3.947,7.571,3.196,15.396,1.836,22.198
			c-1.021,4.764-9.185,7.484-10.685,13.602c0.145,1.297,0.396,2.54,0.705,3.7c1.239,4.634,3.406,7.922,3.406,7.922l14.058,21.831
			c9.396,2.597,19.174,4.274,29.231,4.924l-1.846-9.284C409.005,371.977,408.937,371.709,408.853,371.45z"/>
		<path fill="#395718" d="M359.41,362.433l-5.134-16.749l-7.176-24.954c-0.196-0.682-0.314-1.381-0.355-2.09l-0.532-9.447
			c-0.055-0.959,0.038-1.922,0.272-2.855l3.795-15.058c0.493-1.955,0.35-4.02-0.408-5.89l-5.215-12.865
			c-0.393-0.968-0.622-1.993-0.682-3.036c0,0-0.028-0.51-0.077-1.36c-0.047-0.85-0.114-2.041-0.191-3.401
			c-0.051-3.196-0.204-5.914-0.498-8.839c-0.077-1.36-0.144-2.552-0.191-3.4c-0.049-0.85-0.078-1.36-0.078-1.36l-1.699-30.153
			c-0.093-1.665-0.624-3.276-1.538-4.671l-1.952-2.979c-1.976-3.015-2.074-6.888-0.254-10l9.021-15.426
			c1.3-2.227,1.642-4.886,0.944-7.368l-2.118-7.526c-0.643-2.284-0.408-4.727,0.661-6.846l9.978-19.803
			c0.26-0.518,0.473-1.059,0.636-1.615l4.781-16.398c0.436-1.5,1.237-2.869,2.329-3.985l20.728-21.184
			c1.072-1.096,1.862-2.435,2.305-3.902c0.354-1.171,0.468-2.363,0.371-3.523c-9.955,2.337-19.515,5.7-28.562,9.971l-10.797,26.737
			c-0.438,1.086-1.074,2.082-1.874,2.937l-12.263,13.094c-1.516,1.618-2.417,3.714-2.548,5.926l-1.644,27.517
			c-0.078,1.299-0.422,2.568-1.009,3.728l-12.248,24.161c-1.203,2.375-1.354,5.144-0.419,7.634l4.495,11.968
			c0.339,0.9,0.538,1.847,0.593,2.806l1.085,19.285l2.052,36.406c0.04,0.714,0.16,1.418,0.359,2.105l6.235,21.547
			c0.198,0.687,0.319,1.394,0.359,2.107l1.188,21.072c0.095,1.687-0.262,3.366-1.031,4.868l-4.149,8.092
			c9.764,8.24,20.632,15.214,32.351,20.667C359.946,366.571,360.053,364.53,359.41,362.433z"/>
		<path fill="#395718" d="M507.695,329.561v-21.107c0-0.713,0.08-1.427,0.24-2.123l5.014-21.864c0.159-0.697,0.24-1.408,0.24-2.122
			v-36.465v-19.314c0-0.962,0.145-1.918,0.432-2.835l3.815-12.2c0.794-2.541,0.486-5.297-0.849-7.6l-13.586-23.433
			c-0.652-1.126-1.066-2.373-1.219-3.665l-3.188-27.38c-0.257-2.202-1.274-4.244-2.878-5.774l-12.98-12.383
			c-0.848-0.809-1.538-1.767-2.037-2.826l-13.59-28.861c-8.877-3.021-18.143-5.204-27.7-6.456c-0.174,1.441-0.026,2.937,0.497,4.377
			l0,0c0.525,1.44,1.391,2.732,2.521,3.766l21.887,19.984c1.153,1.054,2.029,2.375,2.549,3.848l5.696,16.103
			c0.193,0.547,0.436,1.075,0.726,1.577l11.076,19.21c1.185,2.057,1.558,4.481,1.046,6.798l-1.691,7.634
			c-0.559,2.517-0.068,5.153,1.357,7.302l9.873,14.895c1.991,3.004,2.11,6.877,0.309,9.999l-1.781,3.084
			c-0.835,1.443-1.273,3.083-1.273,4.75v30.199v18.392c0,1.045-0.171,2.081-0.509,3.069l-4.484,13.14
			c-0.651,1.907-0.678,3.976-0.076,5.904l4.636,14.818c0.287,0.918,0.434,1.874,0.434,2.835v9.463c0,0.708-0.079,1.416-0.236,2.107
			l-5.761,25.315l-4.185,17.014c-0.796,3.238,0.125,6.255,1.992,8.426c11.547-5.649,22.232-12.788,31.805-21.166l-6.817-11.634
			C508.146,332.905,507.695,331.249,507.695,329.561z"/>
		<path fill="#395718" d="M296.306,237.709c2.022-5.451,4.063-10.894,4.522-16.608c0-0.755,0-1.493,0-2.211
			c0-7.186,0-12.412,0-12.412v-23.96l25.422-23.96v-18.371l15.493-18.369l2.38-8.242c-41.232,25.559-68.695,71.221-68.695,123.299
			c0,33.738,11.526,64.784,30.855,89.415v-31.157c0,0-0.928-5.979-2.02-13.006c-0.077-1.001-0.177-1.901-0.279-2.804
			c-1.574-6.242-7.017-11.004-7.358-16.789c-0.338-5.442,2.381-11.224,2.254-17.097c-0.258-0.765-0.555-1.768-0.835-2.622
			C297.489,241.107,296.896,239.407,296.306,237.709L296.306,237.709z"/>
		<path fill="#395718" d="M505.561,119.561l7.673,19.828c0,0,6.075,13.81,10.325,23.477c0.334,0.767,0.652,1.506,0.961,2.231
			c0.403,0.988,0.832,1.963,1.273,2.929c0.479,1.251,1.012,2.833,1.444,3.739c1.395,7.084,6.836,12.528,8.197,19.331
			c1.021,5.102-2.042,10.885-2.219,16.77c0.16,1.017,0.3,1.911,0.415,2.652c0.233,1.481,0.369,2.35,0.369,2.35l11.98,10.382
			l-3.195,39.936l1.598,23.161l-11.98,23.962v18.588c20.588-25.031,32.949-57.083,32.949-92.022
			C565.352,188.642,541.796,145.913,505.561,119.561z"/>
		<path opacity="0.16" d="M526.324,137.922c7.879,17.872,12.256,37.636,12.256,58.422c0,80.062-64.9,144.962-144.96,144.962
			c-41.807,0-79.479-17.698-105.936-46.01c22.468,50.961,73.432,86.539,132.705,86.539c80.06,0,144.962-64.902,144.962-144.962
			C565.352,198.62,550.533,163.828,526.324,137.922z"/>
	</g>
	<g>
		<path fill="#D3382D" d="M326.343,222.127c4.222,2.281,7.091,6.746,7.091,11.882c0,6.761-4.976,12.346-11.461,13.329
			c1.233,3.088,1.919,6.454,1.919,9.982c0,14.865-12.049,26.914-26.914,26.914c-3.202,0-6.274-0.562-9.123-1.59
			c-4.179,6.232-11.286,10.333-19.352,10.333c-3.78,0-7.347-0.906-10.504-2.505l-50.419,50.418
			c46.606,40.147,117.008,38.12,161.208-6.08c44.201-44.202,46.228-114.604,6.082-161.21L326.343,222.127z"/>
		<path fill="#7C9A24" d="M372.894,338.914c-46.44,46.44-120.495,48.425-169.302,5.963l-8.203,8.204
			c53.266,48.267,135.608,46.708,186.994-4.678c51.385-51.385,52.942-133.728,4.678-186.993l-8.203,8.203
			C421.317,218.421,419.333,292.475,372.894,338.914z"/>
		<path fill="#CEF0A4" d="M372.894,338.914c46.439-46.439,48.424-120.493,5.964-169.301l-3.987,3.987
			c40.146,46.605,38.119,117.008-6.082,161.21c-44.2,44.2-114.603,46.228-161.208,6.08l-3.988,3.986
			C252.399,387.339,326.454,385.354,372.894,338.914z"/>
		<path fill="#3B1A1A" d="M358.886,317.19c2.131,2.133,2.131,5.586,0,7.718c-2.13,2.129-5.585,2.129-7.716,0
			c-2.131-2.132-6.412-10.446-4.283-12.578C349.02,310.201,356.756,315.062,358.886,317.19z"/>
		<path fill="#3B1A1A" d="M376.63,283.978c2.813,1.08,4.219,4.234,3.139,7.049c-1.082,2.812-4.236,4.219-7.05,3.138
			c-2.812-1.08-10.107-6.936-9.028-9.748C364.771,281.604,373.818,282.897,376.63,283.978z"/>
		<path fill="#3B1A1A" d="M379.329,246.415c3.01-0.156,5.577,2.154,5.735,5.164s-2.155,5.576-5.164,5.733
			c-3.008,0.158-12.055-2.224-12.211-5.233C367.531,249.071,376.321,246.574,379.329,246.415z"/>
		<path fill="#3B1A1A" d="M366.519,211.005c2.685-1.368,5.97-0.301,7.339,2.384c1.368,2.686,0.3,5.97-2.384,7.339
			c-2.686,1.367-11.917,2.87-13.286,0.186C356.821,218.229,363.833,212.372,366.519,211.005z"/>
		<path fill="#3B1A1A" d="M255.538,342.746c-1.369,2.687-4.654,3.754-7.338,2.384c-2.686-1.366-3.753-4.653-2.385-7.338
			s7.954-9.326,10.638-7.958C259.138,331.201,256.906,340.062,255.538,342.746z"/>
		<path fill="#3B1A1A" d="M292.61,349.358c-0.158,3.009-2.726,5.319-5.734,5.162c-3.009-0.158-5.321-2.724-5.164-5.734
			c0.158-3.009,3.472-11.757,6.481-11.596C291.204,337.345,292.768,346.348,292.61,349.358z"/>
		<path fill="#3B1A1A" d="M329.167,340.318c1.079,2.814-0.326,5.969-3.139,7.049c-2.813,1.08-5.969-0.324-7.048-3.138
			c-1.08-2.814-1.61-12.151,1.202-13.231C322.997,329.918,328.087,337.506,329.167,340.318z"/>
		<path fill="#3B1A1A" d="M292.61,349.358c-0.158,3.009-2.726,5.319-5.734,5.162c-3.009-0.158-5.321-2.724-5.164-5.734
			c0.158-3.009,3.472-11.757,6.481-11.596C291.204,337.345,292.768,346.348,292.61,349.358z"/>
		<path fill="#3B1A1A" d="M255.538,342.746c-1.369,2.687-4.654,3.754-7.338,2.384c-2.686-1.366-3.753-4.653-2.385-7.338
			s7.954-9.326,10.638-7.958C259.138,331.201,256.906,340.062,255.538,342.746z"/>
		<path fill="#3B1A1A" d="M349.521,232.041c2.977,0.471,5.007,3.265,4.535,6.242c-0.471,2.978-3.265,5.006-6.241,4.534
			c-2.977-0.471-11.33-4.681-10.857-7.657C337.429,232.185,346.544,231.568,349.521,232.041z"/>
		<path fill="#3B1A1A" d="M339.072,268.218c2.526,1.643,3.245,5.022,1.604,7.549s-5.02,3.244-7.547,1.604
			c-2.528-1.643-8.445-8.886-6.805-11.411C327.965,263.432,336.544,266.578,339.072,268.218z"/>
		<path fill="#3B1A1A" d="M314.808,297.021c1.642,2.526,0.923,5.904-1.604,7.546c-2.526,1.641-5.905,0.922-7.547-1.604
			c-1.641-2.527-4.101-11.551-1.573-13.191C306.61,288.129,313.168,294.492,314.808,297.021z"/>
		<path fill="#3B1A1A" d="M280.931,313.463c0.47,2.976-1.56,5.771-4.536,6.24c-2.976,0.473-5.77-1.559-6.242-4.533
			c-0.471-2.978,0.952-12.223,3.929-12.694C277.057,302.006,280.459,310.485,280.931,313.463z"/>
		<path fill="#3B1A1A" d="M366.519,211.005c2.685-1.368,5.97-0.301,7.339,2.384c1.368,2.686,0.3,5.97-2.384,7.339
			c-2.686,1.367-11.917,2.87-13.286,0.186C356.821,218.229,363.833,212.372,366.519,211.005z"/>
		<path fill="#3B1A1A" d="M379.329,246.415c3.01-0.156,5.577,2.154,5.735,5.164s-2.155,5.576-5.164,5.733
			c-3.008,0.158-12.055-2.224-12.211-5.233C367.531,249.071,376.321,246.574,379.329,246.415z"/>
		<path fill="#3B1A1A" d="M376.63,283.978c2.813,1.08,4.219,4.234,3.139,7.049c-1.082,2.812-4.236,4.219-7.05,3.138
			c-2.812-1.08-10.107-6.936-9.028-9.748C364.771,281.604,373.818,282.897,376.63,283.978z"/>
	</g>
</g>
</svg>
