<svg version="1.1" id="Layer_1" xmlns="http://www.w3.org/2000/svg" xmlns:xlink="http://www.w3.org/1999/xlink" viewBox="0 0 768 430" enable-background="new 0 0 768 430" xml:space="preserve">
<g>
	<g opacity="0.35">
		<path opacity="0" fill="#FFFFFF" d="M395.408,227.338v-3.671l-0.004-181.488c0-1.929-1.408-3.501-3.174-3.562
			c-2.088-0.056-3.283,1.655-3.393,1.816c-4.788,6.028-8.471,17.23-12.124,33.337c-3.992,17.642-10.371,60.358-11.697,81.714
			c-1.222,19.591-1.543,22.573-1.058,39.769l0.019,0.615c0.138,5.01,2.98,9.495,7.348,12.255
			c7.545,4.762,9.846,10.552,10.475,15.544c0.165,1.286,0.221,2.522,0.221,3.671l-2.977,167.599
			c-0.038,3.542,4.316,6.423,9.704,6.423l0,0c5.385,0,9.741-2.881,9.702-6.423L395.408,227.338z"/>
		<path opacity="0.0278" fill="#F8F8F8" d="M395.481,227.338v-3.671l-0.003-181.488c0-1.929-1.407-3.509-3.17-3.563
			c-2.086-0.064-3.28,1.655-3.389,1.816c-4.782,6.028-8.461,17.23-12.109,33.338c-3.987,17.642-10.358,60.358-11.683,81.713
			c-1.22,19.591-1.542,22.573-1.057,39.77l0.019,0.615c0.138,5.01,2.977,9.495,7.339,12.255c7.536,4.763,9.834,10.552,10.461,15.544
			c0.165,1.286,0.221,2.522,0.221,3.671l-2.974,167.599c-0.038,3.542,4.312,6.423,9.691,6.423l0,0c5.38,0,9.73-2.881,9.69-6.423
			L395.481,227.338z"/>
		<path opacity="0.0556" fill="#F1F1F1" d="M395.555,227.338v-3.671l-0.002-181.488c0-1.929-1.406-3.508-3.167-3.562
			c-2.083-0.064-3.276,1.655-3.384,1.816c-4.777,6.028-8.451,17.23-12.096,33.337c-3.982,17.642-10.346,60.358-11.668,81.714
			c-1.219,19.591-1.539,22.573-1.055,39.769l0.018,0.615c0.138,5.01,2.973,9.495,7.331,12.255
			c7.526,4.762,9.822,10.552,10.449,15.544c0.164,1.286,0.22,2.522,0.22,3.671l-2.97,167.599c-0.038,3.542,4.306,6.423,9.679,6.423
			l0,0c5.373,0,9.719-2.881,9.68-6.423L395.555,227.338z"/>
		<path opacity="0.0833" fill="#EAEAEA" d="M395.629,227.338v-3.671l-0.004-181.489c0-1.928-1.404-3.508-3.162-3.562
			c-2.08-0.064-3.271,1.656-3.38,1.816c-4.771,6.028-8.441,17.23-12.081,33.338c-3.977,17.642-10.333,60.358-11.654,81.714
			c-1.217,19.591-1.538,22.573-1.054,39.769l0.019,0.615c0.138,5.01,2.969,9.495,7.322,12.255
			c7.517,4.763,9.81,10.552,10.436,15.545c0.164,1.286,0.219,2.522,0.219,3.671l-2.966,167.599
			c-0.038,3.542,4.301,6.423,9.668,6.423l0,0c5.366,0,9.707-2.881,9.668-6.423L395.629,227.338z"/>
		<path opacity="0.1111" fill="#E3E3E3" d="M395.701,227.338v-3.671l-0.002-181.489c0-1.929-1.402-3.508-3.158-3.562
			c-2.078-0.064-3.27,1.655-3.377,1.816c-4.764,6.028-8.43,17.23-12.065,33.337c-3.973,17.642-10.321,60.358-11.64,81.713
			c-1.216,19.591-1.536,22.574-1.053,39.77l0.019,0.615c0.138,5.01,2.966,9.495,7.313,12.255
			c7.508,4.762,9.798,10.552,10.424,15.544c0.163,1.286,0.219,2.522,0.219,3.671l-2.962,167.598
			c-0.038,3.543,4.296,6.424,9.657,6.424l0,0c5.359,0,9.694-2.881,9.655-6.424L395.701,227.338z"/>
		<path opacity="0.1389" fill="#DCDCDC" d="M395.775,227.338v-3.671l-0.002-181.488c0-1.929-1.401-3.508-3.155-3.562
			c-2.075-0.064-3.265,1.656-3.372,1.816c-4.759,6.027-8.42,17.229-12.051,33.337c-3.968,17.642-10.309,60.358-11.626,81.714
			c-1.215,19.592-1.534,22.573-1.052,39.769l0.018,0.615c0.138,5.01,2.962,9.495,7.305,12.255
			c7.499,4.762,9.786,10.552,10.411,15.544c0.163,1.286,0.219,2.522,0.219,3.671l-2.959,167.599
			c-0.038,3.542,4.29,6.423,9.645,6.423l0,0c5.354,0,9.683-2.881,9.644-6.423L395.775,227.338z"/>
		<path opacity="0.1667" fill="#D5D5D5" d="M395.85,227.338v-3.671l-0.003-181.488c0-1.929-1.399-3.508-3.151-3.562
			c-2.072-0.064-3.26,1.655-3.368,1.816c-4.753,6.028-8.41,17.23-12.036,33.337c-3.963,17.642-10.296,60.358-11.612,81.714
			c-1.213,19.591-1.532,22.573-1.05,39.769l0.019,0.615c0.138,5.01,2.958,9.495,7.296,12.255c7.49,4.762,9.773,10.552,10.397,15.544
			c0.163,1.286,0.219,2.522,0.219,3.671l-2.955,167.599c-0.038,3.542,4.285,6.423,9.633,6.423l0,0c5.347,0,9.671-2.881,9.632-6.423
			L395.85,227.338z"/>
		<path opacity="0.1944" fill="#CDCDCD" d="M395.922,227.338v-3.671L395.92,42.179c0-1.929-1.398-3.508-3.147-3.562
			c-2.069-0.064-3.256,1.655-3.364,1.815c-4.746,6.028-8.399,17.23-12.021,33.338c-3.958,17.642-10.283,60.358-11.598,81.714
			c-1.211,19.591-1.529,22.573-1.049,39.769l0.019,0.615c0.138,5.01,2.955,9.495,7.287,12.255
			c7.48,4.763,9.762,10.553,10.385,15.545c0.163,1.286,0.218,2.522,0.218,3.671l-2.952,167.599c-0.038,3.542,4.28,6.423,9.621,6.423
			l0,0c5.341,0,9.66-2.881,9.621-6.423L395.922,227.338z"/>
		<path opacity="0.2222" fill="#C6C6C6" d="M395.996,227.338v-3.671l-0.002-181.488c0-1.929-1.396-3.508-3.144-3.562
			c-2.067-0.064-3.253,1.655-3.36,1.815c-4.741,6.028-8.389,17.23-12.006,33.337c-3.954,17.642-10.271,60.358-11.584,81.714
			c-1.21,19.591-1.528,22.573-1.047,39.77l0.018,0.614c0.137,5.01,2.952,9.495,7.278,12.256c7.472,4.762,9.75,10.552,10.373,15.544
			c0.162,1.286,0.218,2.522,0.218,3.671l-2.948,167.599c-0.038,3.542,4.274,6.423,9.609,6.423l0,0c5.334,0,9.648-2.881,9.609-6.423
			L395.996,227.338z"/>
		<path opacity="0.25" fill="#BFBFBF" d="M396.07,227.338v-3.671l-0.003-181.488c0-1.929-1.395-3.508-3.14-3.562
			c-2.065-0.064-3.248,1.655-3.355,1.816c-4.735,6.027-8.38,17.229-11.992,33.337c-3.949,17.642-10.258,60.358-11.57,81.714
			c-1.208,19.592-1.525,22.573-1.046,39.77l0.019,0.614c0.137,5.01,2.947,9.495,7.269,12.255c7.462,4.762,9.738,10.552,10.36,15.544
			c0.162,1.286,0.218,2.522,0.218,3.671l-2.945,167.599c-0.038,3.542,4.27,6.423,9.598,6.423l0,0c5.327,0,9.637-2.881,9.598-6.423
			L396.07,227.338z"/>
		<path opacity="0.2778" fill="#B8B8B8" d="M396.144,227.338v-3.671l-0.002-181.488c0-1.929-1.394-3.508-3.137-3.562
			c-2.062-0.064-3.244,1.655-3.352,1.816c-4.729,6.028-8.369,17.23-11.978,33.337c-3.943,17.642-10.246,60.358-11.556,81.714
			c-1.207,19.591-1.523,22.573-1.044,39.769l0.018,0.615c0.137,5.01,2.944,9.495,7.261,12.256
			c7.454,4.762,9.726,10.552,10.347,15.544c0.162,1.286,0.217,2.522,0.217,3.671l-2.941,167.599
			c-0.037,3.542,4.264,6.423,9.587,6.423l0,0c5.32,0,9.624-2.881,9.585-6.423L396.144,227.338z"/>
		<path opacity="0.3056" fill="#B1B1B1" d="M396.217,227.338v-3.671l-0.002-181.488c0-1.929-1.392-3.508-3.133-3.562
			c-2.06-0.064-3.24,1.655-3.348,1.816c-4.723,6.028-8.358,17.23-11.963,33.337c-3.938,17.642-10.232,60.358-11.541,81.714
			c-1.205,19.591-1.522,22.573-1.043,39.769l0.018,0.615c0.137,5.01,2.941,9.495,7.252,12.255
			c7.445,4.762,9.714,10.552,10.334,15.544c0.162,1.286,0.217,2.522,0.217,3.671l-2.938,167.599
			c-0.037,3.542,4.259,6.423,9.575,6.423l0,0c5.314,0,9.613-2.881,9.573-6.423L396.217,227.338z"/>
		<path opacity="0.3333" fill="#AAAAAA" d="M396.291,227.338v-3.671l-0.002-181.488c0-1.929-1.391-3.508-3.129-3.562
			c-2.058-0.064-3.237,1.655-3.344,1.816c-4.718,6.028-8.349,17.23-11.948,33.337c-3.935,17.642-10.221,60.358-11.527,81.714
			c-1.204,19.591-1.52,22.573-1.042,39.77l0.019,0.614c0.136,5.01,2.937,9.495,7.242,12.256c7.436,4.762,9.702,10.552,10.322,15.544
			c0.161,1.286,0.216,2.522,0.216,3.671l-2.934,167.599c-0.037,3.542,4.254,6.423,9.562,6.423l0,0c5.309,0,9.602-2.881,9.562-6.423
			L396.291,227.338z"/>
		<path opacity="0.3611" fill="#A3A3A3" d="M396.364,227.338v-3.671l-0.002-181.488c0-1.929-1.389-3.508-3.125-3.562
			c-2.056-0.064-3.232,1.655-3.339,1.815c-4.712,6.028-8.339,17.23-11.934,33.338c-3.929,17.642-10.208,60.358-11.513,81.714
			c-1.202,19.591-1.518,22.573-1.04,39.769l0.018,0.615c0.137,5.01,2.933,9.495,7.234,12.255
			c7.426,4.762,9.689,10.552,10.309,15.544c0.161,1.286,0.216,2.522,0.216,3.671l-2.931,167.599
			c-0.036,3.542,4.249,6.423,9.552,6.423l0,0c5.302,0,9.59-2.881,9.551-6.423L396.364,227.338z"/>
		<path opacity="0.3889" fill="#9C9C9C" d="M396.438,227.338v-3.671l-0.002-181.488c0-1.929-1.387-3.509-3.121-3.562
			c-2.053-0.063-3.229,1.655-3.335,1.816c-4.706,6.027-8.329,17.229-11.919,33.337c-3.924,17.642-10.195,60.358-11.499,81.714
			c-1.2,19.591-1.516,22.573-1.039,39.769l0.018,0.615c0.137,5.01,2.93,9.495,7.226,12.256c7.417,4.762,9.678,10.552,10.296,15.544
			c0.161,1.286,0.216,2.522,0.216,3.671l-2.927,167.599c-0.037,3.542,4.244,6.423,9.54,6.423l0,0c5.295,0,9.578-2.881,9.539-6.423
			L396.438,227.338z"/>
		<path opacity="0.4167" fill="#959595" d="M396.512,227.338v-3.671L396.51,42.179c0-1.929-1.386-3.508-3.117-3.562
			c-2.051-0.064-3.225,1.655-3.332,1.816c-4.699,6.028-8.318,17.23-11.904,33.337c-3.919,17.642-10.183,60.358-11.485,81.714
			c-1.198,19.591-1.514,22.573-1.037,39.77l0.018,0.614c0.136,5.01,2.926,9.495,7.216,12.255
			c7.408,4.762,9.666,10.552,10.283,15.544c0.161,1.286,0.216,2.522,0.216,3.671l-2.923,167.599
			c-0.037,3.542,4.238,6.423,9.527,6.423l0,0c5.289,0,9.566-2.881,9.527-6.423L396.512,227.338z"/>
		<path opacity="0.4444" fill="#8E8E8E" d="M396.585,227.338v-3.671l-0.002-181.488c0-1.929-1.384-3.508-3.113-3.562
			c-2.048-0.064-3.221,1.655-3.327,1.816c-4.693,6.028-8.308,17.23-11.89,33.337c-3.915,17.642-10.17,60.358-11.471,81.714
			c-1.198,19.591-1.513,22.573-1.037,39.769l0.018,0.615c0.136,5.01,2.922,9.495,7.208,12.256
			c7.399,4.762,9.653,10.552,10.27,15.544c0.161,1.286,0.216,2.522,0.216,3.671l-2.92,167.599c-0.036,3.542,4.233,6.423,9.517,6.423
			l0,0c5.282,0,9.555-2.881,9.516-6.423L396.585,227.338z"/>
		<path opacity="0.4722" fill="#878787" d="M396.658,227.338v-3.671l-0.002-181.488c0-1.929-1.382-3.509-3.109-3.562
			c-2.045-0.063-3.217,1.655-3.323,1.816c-4.688,6.028-8.298,17.23-11.875,33.337c-3.909,17.642-10.157,60.358-11.457,81.714
			c-1.196,19.591-1.511,22.573-1.035,39.769l0.018,0.615c0.136,5.01,2.918,9.495,7.199,12.255
			c7.39,4.762,9.641,10.552,10.258,15.544c0.159,1.286,0.215,2.522,0.215,3.671l-2.917,167.599
			c-0.037,3.542,4.228,6.423,9.504,6.423l0,0c5.276,0,9.543-2.881,9.504-6.423L396.658,227.338z"/>
		<path opacity="0.5" fill="#808080" d="M396.731,227.338v-3.671L396.73,42.179c0-1.929-1.381-3.508-3.105-3.562
			c-2.043-0.064-3.213,1.655-3.319,1.816c-4.683,6.028-8.288,17.23-11.861,33.337c-3.905,17.642-10.145,60.358-11.443,81.714
			c-1.194,19.591-1.508,22.573-1.033,39.769l0.018,0.615c0.136,5.01,2.915,9.495,7.19,12.255
			c7.381,4.762,9.629,10.552,10.245,15.544c0.16,1.286,0.215,2.522,0.215,3.671l-2.913,167.599
			c-0.036,3.542,4.223,6.423,9.493,6.423l0,0c5.27,0,9.531-2.881,9.492-6.423L396.731,227.338z"/>
		<path opacity="0.5278" fill="#787878" d="M396.805,227.338v-3.671l-0.001-181.488c0-1.929-1.379-3.508-3.102-3.562
			c-2.04-0.064-3.209,1.655-3.315,1.815c-4.676,6.028-8.277,17.23-11.846,33.338c-3.899,17.643-10.133,60.358-11.429,81.714
			c-1.192,19.591-1.506,22.573-1.032,39.769l0.018,0.615c0.135,5.01,2.912,9.495,7.182,12.255
			c7.371,4.762,9.617,10.552,10.232,15.544c0.159,1.286,0.214,2.522,0.214,3.671l-2.909,167.599
			c-0.037,3.542,4.218,6.423,9.48,6.423l0,0c5.264,0,9.521-2.881,9.481-6.423L396.805,227.338z"/>
		<path opacity="0.5556" fill="#717171" d="M396.879,227.338v-3.671l-0.001-181.488c0-1.929-1.378-3.508-3.099-3.562
			c-2.037-0.064-3.205,1.655-3.311,1.816c-4.671,6.028-8.268,17.23-11.832,33.337c-3.896,17.643-10.12,60.358-11.415,81.714
			c-1.191,19.591-1.504,22.573-1.031,39.769l0.018,0.615c0.136,5.01,2.908,9.495,7.173,12.256
			c7.362,4.762,9.605,10.552,10.219,15.544c0.159,1.286,0.213,2.522,0.213,3.671l-2.905,167.599
			c-0.037,3.542,4.212,6.423,9.469,6.423l0,0c5.257,0,9.508-2.881,9.469-6.423L396.879,227.338z"/>
		<path opacity="0.5833" fill="#6A6A6A" d="M396.952,227.338v-3.671l-0.001-181.488c0-1.929-1.376-3.508-3.095-3.562
			c-2.034-0.064-3.2,1.655-3.307,1.816c-4.664,6.028-8.257,17.23-11.816,33.337c-3.891,17.642-10.107,60.358-11.4,81.714
			c-1.189,19.591-1.502,22.573-1.029,39.77l0.018,0.614c0.136,5.01,2.904,9.495,7.164,12.255
			c7.353,4.762,9.593,10.552,10.207,15.544c0.159,1.286,0.213,2.522,0.213,3.671l-2.901,167.599
			c-0.036,3.542,4.207,6.423,9.457,6.423l0,0c5.25,0,9.497-2.881,9.458-6.423L396.952,227.338z"/>
		<path opacity="0.6111" fill="#636363" d="M397.025,227.338v-3.671l-0.001-181.488c0-1.929-1.374-3.508-3.09-3.562
			c-2.033-0.064-3.197,1.655-3.303,1.816c-4.659,6.028-8.247,17.23-11.803,33.337c-3.885,17.642-10.095,60.358-11.386,81.714
			c-1.188,19.591-1.501,22.573-1.028,39.769l0.017,0.615c0.136,5.01,2.901,9.495,7.156,12.256
			c7.344,4.762,9.581,10.552,10.194,15.544c0.158,1.286,0.213,2.522,0.213,3.671l-2.897,167.599
			c-0.037,3.542,4.201,6.423,9.445,6.423l0,0c5.243,0,9.484-2.881,9.445-6.423L397.025,227.338z"/>
		<path opacity="0.6389" fill="#5C5C5C" d="M397.1,227.338v-3.671l-0.001-181.488c0-1.929-1.373-3.508-3.087-3.562
			c-2.03-0.064-3.193,1.655-3.299,1.816c-4.652,6.027-8.236,17.229-11.788,33.337c-3.88,17.642-10.082,60.358-11.372,81.714
			c-1.187,19.591-1.499,22.573-1.026,39.769l0.017,0.615c0.136,5.01,2.897,9.495,7.147,12.255
			c7.335,4.762,9.568,10.552,10.181,15.544c0.158,1.286,0.213,2.522,0.213,3.671l-2.895,167.599
			c-0.036,3.542,4.197,6.423,9.435,6.423l0,0c5.237,0,9.473-2.881,9.434-6.423L397.1,227.338z"/>
		<path opacity="0.6667" fill="#555555" d="M397.173,227.338v-3.671l-0.001-181.488c0-1.929-1.37-3.508-3.083-3.562
			c-2.027-0.064-3.189,1.655-3.294,1.815c-4.647,6.028-8.227,17.23-11.773,33.338c-3.876,17.642-10.069,60.358-11.358,81.714
			c-1.185,19.591-1.497,22.573-1.025,39.77l0.018,0.614c0.135,5.01,2.894,9.495,7.138,12.256
			c7.325,4.762,9.557,10.552,10.168,15.544c0.158,1.286,0.213,2.522,0.213,3.671l-2.892,167.599
			c-0.035,3.542,4.192,6.423,9.423,6.423l0,0c5.231,0,9.462-2.881,9.423-6.423L397.173,227.338z"/>
		<path opacity="0.6944" fill="#4E4E4E" d="M397.246,227.338v-3.671V42.179c0-1.929-1.369-3.509-3.08-3.562
			c-2.024-0.063-3.185,1.655-3.29,1.816c-4.641,6.028-8.216,17.23-11.759,33.337c-3.87,17.642-10.057,60.358-11.343,81.714
			c-1.183,19.591-1.495,22.573-1.024,39.769l0.018,0.615c0.135,5.01,2.89,9.495,7.129,12.255
			c7.316,4.762,9.544,10.552,10.155,15.544c0.158,1.286,0.213,2.522,0.213,3.671l-2.888,167.599
			c-0.036,3.542,4.187,6.423,9.411,6.423l0,0c5.224,0,9.45-2.881,9.41-6.423L397.246,227.338z"/>
		<path opacity="0.7222" fill="#474747" d="M397.32,227.338v-3.671l-0.001-181.488c0-1.929-1.367-3.508-3.075-3.562
			c-2.022-0.064-3.182,1.655-3.286,1.816c-4.636,6.028-8.207,17.23-11.744,33.337c-3.866,17.642-10.045,60.358-11.329,81.714
			c-1.182,19.591-1.493,22.573-1.022,39.769l0.017,0.615c0.135,5.01,2.886,9.495,7.121,12.256
			c7.307,4.762,9.533,10.552,10.143,15.544c0.158,1.286,0.212,2.522,0.212,3.671l-2.884,167.599
			c-0.036,3.542,4.181,6.423,9.399,6.423l0,0c5.219,0,9.438-2.881,9.399-6.423L397.32,227.338z"/>
		<path opacity="0.75" fill="#404040" d="M397.394,227.338v-3.671l-0.001-181.488c0-1.929-1.365-3.508-3.071-3.562
			c-2.02-0.064-3.177,1.655-3.282,1.816c-4.629,6.028-8.196,17.23-11.729,33.337c-3.861,17.642-10.032,60.358-11.316,81.714
			c-1.18,19.591-1.49,22.573-1.021,39.769l0.017,0.615c0.135,5.01,2.883,9.495,7.112,12.255c7.298,4.762,9.521,10.552,10.13,15.544
			c0.157,1.286,0.212,2.522,0.212,3.671l-2.881,167.599c-0.035,3.542,4.177,6.423,9.388,6.423l0,0c5.211,0,9.426-2.881,9.387-6.423
			L397.394,227.338z"/>
		<path opacity="0.7778" fill="#393939" d="M397.467,227.338v-3.671V42.179c0-1.929-1.365-3.508-3.068-3.562
			c-2.016-0.064-3.173,1.655-3.277,1.816c-4.623,6.027-8.187,17.229-11.715,33.337c-3.856,17.642-10.02,60.358-11.301,81.714
			c-1.178,19.591-1.489,22.573-1.02,39.769l0.017,0.615c0.136,5.01,2.88,9.495,7.104,12.255c7.289,4.762,9.508,10.552,10.117,15.544
			c0.157,1.286,0.211,2.522,0.211,3.671l-2.876,167.599c-0.036,3.542,4.171,6.423,9.376,6.423l0,0c5.204,0,9.414-2.881,9.375-6.423
			L397.467,227.338z"/>
		<path opacity="0.8056" fill="#323232" d="M397.541,227.338v-3.671V42.179c0-1.929-1.363-3.508-3.064-3.562
			c-2.016-0.064-3.17,1.655-3.273,1.815c-4.619,6.028-8.177,17.23-11.701,33.338c-3.852,17.642-10.007,60.358-11.287,81.714
			c-1.177,19.591-1.487,22.573-1.019,39.769l0.018,0.615c0.134,5.01,2.875,9.495,7.094,12.255
			c7.28,4.762,9.497,10.552,10.104,15.544c0.157,1.286,0.211,2.522,0.211,3.671l-2.873,167.599
			c-0.036,3.542,4.166,6.423,9.365,6.423l0,0c5.197,0,9.402-2.881,9.363-6.423L397.541,227.338z"/>
		<path opacity="0.8333" fill="#2B2B2B" d="M397.614,227.338v-3.671l-0.001-181.488c0-1.929-1.361-3.508-3.06-3.562
			c-2.013-0.064-3.165,1.655-3.27,1.816c-4.612,6.028-8.166,17.23-11.686,33.337c-3.847,17.642-9.994,60.358-11.273,81.714
			c-1.175,19.591-1.485,22.573-1.017,39.769l0.017,0.615c0.134,5.01,2.872,9.495,7.085,12.255
			c7.271,4.762,9.485,10.552,10.092,15.544c0.157,1.286,0.211,2.522,0.211,3.671l-2.87,167.599c-0.035,3.542,4.16,6.423,9.353,6.423
			l0,0c5.191,0,9.392-2.881,9.353-6.423L397.614,227.338z"/>
		<path opacity="0.8611" fill="#232323" d="M397.688,227.338v-3.671V42.179c0-1.929-1.359-3.508-3.057-3.562
			c-2.01-0.064-3.161,1.655-3.266,1.816c-4.605,6.028-8.155,17.23-11.671,33.337c-3.841,17.642-9.981,60.358-11.259,81.714
			c-1.174,19.591-1.483,22.573-1.016,39.769l0.017,0.615c0.135,5.01,2.869,9.495,7.077,12.255
			c7.262,4.762,9.472,10.552,10.079,15.544c0.157,1.286,0.21,2.522,0.21,3.671l-2.866,167.599c-0.036,3.542,4.155,6.423,9.34,6.423
			l0,0c5.186,0,9.38-2.881,9.341-6.423L397.688,227.338z"/>
		<path opacity="0.8889" fill="#1C1C1C" d="M397.762,227.338v-3.671V42.179c0-1.929-1.358-3.508-3.053-3.562
			c-2.008-0.064-3.158,1.655-3.262,1.816c-4.601,6.028-8.146,17.23-11.657,33.337c-3.836,17.642-9.969,60.358-11.245,81.714
			c-1.172,19.591-1.48,22.573-1.014,39.77l0.017,0.614c0.134,5.01,2.865,9.495,7.068,12.255c7.252,4.762,9.46,10.552,10.066,15.544
			c0.156,1.286,0.21,2.522,0.21,3.671l-2.863,167.599c-0.035,3.542,4.151,6.423,9.33,6.423l0,0c5.18,0,9.367-2.881,9.328-6.423
			L397.762,227.338z"/>
		<path opacity="0.9167" fill="#151515" d="M397.835,227.338v-3.671V42.179c0-1.929-1.356-3.508-3.05-3.562
			c-2.004-0.064-3.152,1.655-3.257,1.816c-4.595,6.028-8.135,17.23-11.641,33.337c-3.833,17.642-9.957,60.358-11.231,81.714
			c-1.171,19.591-1.479,22.573-1.013,39.769l0.017,0.615c0.135,5.01,2.862,9.495,7.06,12.255
			c7.244,4.762,9.449,10.552,10.053,15.544c0.156,1.286,0.21,2.522,0.21,3.671l-2.859,167.599c-0.035,3.542,4.146,6.423,9.318,6.423
			l0,0c5.172,0,9.355-2.881,9.316-6.423L397.835,227.338z"/>
		<path opacity="0.9444" fill="#0E0E0E" d="M397.908,227.338v-3.671V42.179c0-1.929-1.354-3.508-3.045-3.562
			c-2.002-0.064-3.15,1.655-3.254,1.816c-4.588,6.028-8.125,17.23-11.626,33.337c-3.828,17.642-9.944,60.358-11.217,81.714
			c-1.169,19.591-1.478,22.573-1.012,39.769l0.017,0.615c0.134,5.01,2.857,9.495,7.05,12.255
			c7.234,4.762,9.437,10.552,10.041,15.544c0.155,1.286,0.21,2.522,0.21,3.671l-2.855,167.599c-0.035,3.542,4.14,6.423,9.307,6.423
			l0,0c5.165,0,9.344-2.881,9.305-6.423L397.908,227.338z"/>
		<path opacity="0.9722" fill="#070707" d="M397.982,227.338v-3.671V42.179c0-1.929-1.354-3.508-3.042-3.562
			c-1.999-0.064-3.146,1.655-3.249,1.816c-4.582,6.028-8.115,17.23-11.612,33.337c-3.822,17.642-9.932,60.358-11.203,81.714
			c-1.167,19.591-1.475,22.573-1.01,39.769l0.017,0.615c0.134,5.01,2.854,9.495,7.042,12.255
			c7.225,4.762,9.424,10.552,10.027,15.544c0.155,1.286,0.209,2.522,0.209,3.671l-2.852,167.599
			c-0.035,3.542,4.134,6.423,9.294,6.423l0,0c5.159,0,9.333-2.881,9.294-6.423L397.982,227.338z"/>
		<path d="M398.056,227.338v-3.671V42.179c0-1.929-1.352-3.501-3.038-3.562c-1.996-0.056-3.141,1.655-3.244,1.816
			c-4.577,6.028-8.105,17.23-11.598,33.337c-3.817,17.642-9.919,60.358-11.188,81.714c-1.166,19.591-1.473,22.573-1.009,39.769
			l0.017,0.615c0.134,5.01,2.851,9.495,7.033,12.255c7.216,4.762,9.412,10.552,10.015,15.544c0.154,1.286,0.209,2.522,0.209,3.671
			l-2.849,167.599c-0.035,3.542,4.13,6.423,9.282,6.423l0,0c5.153,0,9.321-2.881,9.282-6.423L398.056,227.338z"/>
	</g>
	<g opacity="0.35">
		<path opacity="0" fill="#FFFFFF" d="M401.216,227.338v-3.671l-0.004-181.488c0-1.929-1.408-3.501-3.178-3.562
			c-2.085-0.056-3.28,1.655-3.39,1.816c-4.787,6.028-8.476,17.23-12.124,33.337c-3.995,17.642-10.371,60.358-11.701,81.714
			c-1.218,19.591-1.537,22.573-1.053,39.769l0.019,0.615c0.138,5.01,2.977,9.495,7.35,12.255
			c7.545,4.762,9.846,10.552,10.473,15.544c0.161,1.286,0.223,2.522,0.223,3.671l-2.978,167.599
			c-0.044,3.542,4.312,6.423,9.702,6.423l0,0c5.388,0,9.741-2.881,9.702-6.423L401.216,227.338z"/>
		<path opacity="0.0278" fill="#F8F8F8" d="M401.158,227.338v-3.671l-0.004-181.488c0-1.929-1.406-3.509-3.174-3.563
			c-2.082-0.064-3.276,1.655-3.385,1.816c-4.783,6.028-8.467,17.23-12.11,33.338c-3.99,17.642-10.358,60.358-11.687,81.713
			c-1.216,19.591-1.535,22.573-1.052,39.77l0.019,0.615c0.138,5.01,2.973,9.495,7.341,12.255c7.536,4.763,9.833,10.552,10.46,15.544
			c0.16,1.286,0.221,2.522,0.221,3.671l-2.973,167.599c-0.044,3.542,4.307,6.423,9.691,6.423l0,0c5.38,0,9.729-2.881,9.689-6.423
			L401.158,227.338z"/>
		<path opacity="0.0556" fill="#F1F1F1" d="M401.1,227.338v-3.671l-0.004-181.488c0-1.929-1.404-3.508-3.17-3.562
			c-2.079-0.064-3.271,1.655-3.381,1.816c-4.776,6.028-8.455,17.23-12.095,33.337c-3.986,17.642-10.346,60.358-11.673,81.714
			c-1.215,19.591-1.534,22.573-1.051,39.769l0.019,0.615c0.138,5.01,2.969,9.495,7.332,12.255
			c7.526,4.762,9.821,10.552,10.447,15.544c0.161,1.286,0.222,2.522,0.222,3.671l-2.97,167.599
			c-0.044,3.542,4.302,6.423,9.679,6.423l0,0c5.375,0,9.717-2.881,9.679-6.423L401.1,227.338z"/>
		<path opacity="0.0833" fill="#EAEAEA" d="M401.042,227.338v-3.671l-0.004-181.489c0-1.928-1.403-3.508-3.165-3.562
			c-2.078-0.064-3.27,1.656-3.378,1.816c-4.771,6.028-8.444,17.23-12.081,33.338c-3.981,17.642-10.333,60.358-11.659,81.714
			c-1.213,19.591-1.531,22.573-1.049,39.769l0.019,0.615c0.138,5.01,2.966,9.495,7.323,12.255
			c7.517,4.763,9.809,10.552,10.434,15.545c0.162,1.286,0.222,2.522,0.222,3.671l-2.966,167.599
			c-0.043,3.542,4.297,6.423,9.667,6.423l0,0c5.368,0,9.706-2.881,9.667-6.423L401.042,227.338z"/>
		<path opacity="0.1111" fill="#E3E3E3" d="M400.984,227.338v-3.671L400.98,42.178c0-1.929-1.402-3.508-3.162-3.562
			c-2.074-0.064-3.265,1.655-3.373,1.816c-4.766,6.028-8.436,17.23-12.066,33.337c-3.976,17.642-10.321,60.358-11.645,81.713
			c-1.212,19.591-1.53,22.574-1.048,39.77l0.019,0.615c0.137,5.01,2.963,9.495,7.314,12.255c7.508,4.762,9.797,10.552,10.422,15.544
			c0.161,1.286,0.221,2.522,0.221,3.671L384.7,394.936c-0.043,3.543,4.292,6.424,9.656,6.424l0,0c5.361,0,9.693-2.881,9.655-6.424
			L400.984,227.338z"/>
		<path opacity="0.1389" fill="#DCDCDC" d="M400.926,227.338v-3.671l-0.003-181.488c0-1.929-1.4-3.508-3.158-3.562
			c-2.072-0.064-3.261,1.656-3.369,1.816c-4.76,6.027-8.425,17.229-12.051,33.337c-3.971,17.642-10.308,60.358-11.63,81.714
			c-1.21,19.592-1.528,22.573-1.047,39.769l0.019,0.615c0.138,5.01,2.959,9.495,7.306,12.255
			c7.499,4.762,9.786,10.552,10.409,15.544c0.16,1.286,0.221,2.522,0.221,3.671l-2.959,167.599
			c-0.044,3.542,4.286,6.423,9.645,6.423l0,0c5.354,0,9.682-2.881,9.643-6.423L400.926,227.338z"/>
		<path opacity="0.1667" fill="#D5D5D5" d="M400.868,227.338v-3.671l-0.003-181.488c0-1.929-1.399-3.508-3.154-3.562
			c-2.07-0.064-3.257,1.655-3.365,1.816c-4.754,6.028-8.414,17.23-12.037,33.337c-3.967,17.642-10.296,60.358-11.616,81.714
			c-1.209,19.591-1.527,22.573-1.046,39.769l0.019,0.615c0.138,5.01,2.956,9.495,7.297,12.255
			c7.489,4.762,9.773,10.552,10.397,15.544c0.16,1.286,0.219,2.522,0.219,3.671l-2.955,167.599
			c-0.043,3.542,4.282,6.423,9.632,6.423l0,0c5.348,0,9.67-2.881,9.632-6.423L400.868,227.338z"/>
		<path opacity="0.1944" fill="#CDCDCD" d="M400.811,227.338v-3.671l-0.004-181.488c0-1.929-1.396-3.508-3.15-3.562
			c-2.067-0.064-3.253,1.655-3.361,1.815c-4.747,6.028-8.403,17.23-12.021,33.338c-3.961,17.642-10.283,60.358-11.602,81.714
			c-1.208,19.591-1.524,22.573-1.045,39.769l0.019,0.615c0.138,5.01,2.952,9.495,7.288,12.255
			c7.479,4.763,9.762,10.553,10.384,15.545c0.16,1.286,0.22,2.522,0.22,3.671l-2.952,167.599c-0.042,3.542,4.276,6.423,9.622,6.423
			l0,0c5.34,0,9.657-2.881,9.619-6.423L400.811,227.338z"/>
		<path opacity="0.2222" fill="#C6C6C6" d="M400.752,227.338v-3.671L400.75,42.179c0-1.929-1.396-3.508-3.146-3.562
			c-2.065-0.064-3.25,1.655-3.357,1.815c-4.742,6.028-8.395,17.23-12.007,33.337c-3.957,17.642-10.271,60.358-11.588,81.714
			c-1.207,19.591-1.523,22.573-1.044,39.77l0.019,0.614c0.137,5.01,2.949,9.495,7.279,12.256
			c7.471,4.762,9.749,10.552,10.371,15.544c0.16,1.286,0.22,2.522,0.22,3.671l-2.949,167.599c-0.042,3.542,4.271,6.423,9.609,6.423
			l0,0c5.336,0,9.646-2.881,9.609-6.423L400.752,227.338z"/>
		<path opacity="0.25" fill="#BFBFBF" d="M400.694,227.338v-3.671l-0.003-181.488c0-1.929-1.395-3.508-3.143-3.562
			c-2.062-0.064-3.245,1.655-3.354,1.816c-4.736,6.027-8.383,17.229-11.992,33.337c-3.952,17.642-10.258,60.358-11.573,81.714
			c-1.205,19.592-1.521,22.573-1.042,39.77l0.018,0.614c0.137,5.01,2.946,9.495,7.271,12.255
			c7.461,4.762,9.737,10.552,10.358,15.544c0.16,1.286,0.22,2.522,0.22,3.671l-2.945,167.599c-0.042,3.542,4.267,6.423,9.598,6.423
			l0,0c5.329,0,9.635-2.881,9.597-6.423L400.694,227.338z"/>
		<path opacity="0.2778" fill="#B8B8B8" d="M400.637,227.338v-3.671l-0.003-181.488c0-1.929-1.393-3.508-3.139-3.562
			c-2.06-0.064-3.241,1.655-3.349,1.816c-4.731,6.028-8.373,17.23-11.979,33.337c-3.947,17.642-10.246,60.358-11.559,81.714
			c-1.204,19.591-1.519,22.573-1.042,39.769l0.019,0.615c0.137,5.01,2.942,9.495,7.262,12.256
			c7.452,4.762,9.725,10.552,10.346,15.544c0.16,1.286,0.219,2.522,0.219,3.671l-2.941,167.599
			c-0.042,3.542,4.262,6.423,9.586,6.423l0,0c5.322,0,9.623-2.881,9.586-6.423L400.637,227.338z"/>
		<path opacity="0.3056" fill="#B1B1B1" d="M400.578,227.338v-3.671l-0.002-181.488c0-1.929-1.392-3.508-3.135-3.562
			c-2.059-0.064-3.238,1.655-3.346,1.816c-4.725,6.028-8.362,17.23-11.963,33.337c-3.942,17.642-10.233,60.358-11.545,81.714
			c-1.202,19.591-1.518,22.573-1.04,39.769l0.019,0.615c0.137,5.01,2.938,9.495,7.252,12.255
			c7.443,4.762,9.713,10.552,10.333,15.544c0.16,1.286,0.218,2.522,0.218,3.671l-2.938,167.599
			c-0.042,3.542,4.256,6.423,9.574,6.423l0,0c5.315,0,9.611-2.881,9.574-6.423L400.578,227.338z"/>
		<path opacity="0.3333" fill="#AAAAAA" d="M400.521,227.338v-3.671l-0.003-181.488c0-1.929-1.389-3.508-3.131-3.562
			c-2.055-0.064-3.233,1.655-3.341,1.816c-4.72,6.028-8.353,17.23-11.948,33.337c-3.938,17.642-10.221,60.358-11.531,81.714
			c-1.2,19.591-1.516,22.573-1.038,39.77l0.018,0.614c0.137,5.01,2.936,9.495,7.244,12.256c7.434,4.762,9.701,10.552,10.321,15.544
			c0.159,1.286,0.217,2.522,0.217,3.671l-2.934,167.599c-0.041,3.542,4.251,6.423,9.562,6.423l0,0c5.309,0,9.6-2.881,9.562-6.423
			L400.521,227.338z"/>
		<path opacity="0.3611" fill="#A3A3A3" d="M400.463,227.338v-3.671L400.46,42.179c0-1.929-1.388-3.508-3.127-3.562
			c-2.053-0.064-3.229,1.655-3.337,1.815c-4.714,6.028-8.342,17.23-11.934,33.338c-3.934,17.642-10.209,60.358-11.517,81.714
			c-1.199,19.591-1.514,22.573-1.038,39.769l0.019,0.615c0.137,5.01,2.932,9.495,7.235,12.255
			c7.424,4.762,9.689,10.552,10.308,15.544c0.159,1.286,0.217,2.522,0.217,3.671l-2.93,167.599
			c-0.041,3.542,4.246,6.423,9.551,6.423l0,0c5.302,0,9.588-2.881,9.551-6.423L400.463,227.338z"/>
		<path opacity="0.3889" fill="#9C9C9C" d="M400.404,227.338v-3.671l-0.002-181.488c0-1.929-1.387-3.509-3.123-3.562
			c-2.051-0.063-3.227,1.655-3.333,1.816c-4.708,6.027-8.332,17.229-11.919,33.337c-3.928,17.642-10.196,60.358-11.502,81.714
			c-1.198,19.591-1.512,22.573-1.037,39.769l0.019,0.615c0.137,5.01,2.928,9.495,7.227,12.256
			c7.415,4.762,9.677,10.552,10.295,15.544c0.159,1.286,0.217,2.522,0.217,3.671l-2.927,167.599
			c-0.041,3.542,4.241,6.423,9.539,6.423l0,0c5.296,0,9.575-2.881,9.539-6.423L400.404,227.338z"/>
		<path opacity="0.4167" fill="#959595" d="M400.347,227.338v-3.671l-0.002-181.488c0-1.929-1.385-3.508-3.12-3.562
			c-2.047-0.064-3.222,1.655-3.328,1.816c-4.702,6.028-8.322,17.23-11.904,33.337c-3.924,17.642-10.184,60.358-11.488,81.714
			c-1.196,19.591-1.511,22.573-1.035,39.77l0.018,0.614c0.137,5.01,2.925,9.495,7.218,12.255
			c7.406,4.762,9.665,10.552,10.282,15.544c0.159,1.286,0.217,2.522,0.217,3.671l-2.923,167.599
			c-0.041,3.542,4.235,6.423,9.527,6.423l0,0c5.289,0,9.563-2.881,9.527-6.423L400.347,227.338z"/>
		<path opacity="0.4444" fill="#8E8E8E" d="M400.289,227.338v-3.671l-0.002-181.488c0-1.929-1.383-3.508-3.116-3.562
			c-2.045-0.064-3.218,1.655-3.324,1.816c-4.697,6.028-8.312,17.23-11.89,33.337c-3.918,17.642-10.17,60.358-11.474,81.714
			c-1.195,19.591-1.509,22.573-1.034,39.769l0.018,0.615c0.136,5.01,2.921,9.495,7.209,12.256
			c7.396,4.762,9.653,10.552,10.27,15.544c0.159,1.286,0.216,2.522,0.216,3.671l-2.92,167.599c-0.04,3.542,4.231,6.423,9.517,6.423
			l0,0c5.282,0,9.553-2.881,9.516-6.423L400.289,227.338z"/>
		<path opacity="0.4722" fill="#878787" d="M400.23,227.338v-3.671l-0.002-181.488c0-1.929-1.381-3.509-3.111-3.562
			c-2.043-0.063-3.215,1.655-3.32,1.816c-4.691,6.028-8.302,17.23-11.875,33.337c-3.915,17.642-10.159,60.358-11.459,81.714
			c-1.193,19.591-1.508,22.573-1.033,39.769l0.018,0.615c0.137,5.01,2.918,9.495,7.201,12.255
			c7.387,4.762,9.641,10.552,10.257,15.544c0.158,1.286,0.215,2.522,0.215,3.671l-2.916,167.599
			c-0.04,3.542,4.227,6.423,9.505,6.423l0,0c5.276,0,9.54-2.881,9.504-6.423L400.23,227.338z"/>
		<path opacity="0.5" fill="#808080" d="M400.173,227.338v-3.671l-0.002-181.488c0-1.929-1.38-3.508-3.107-3.562
			c-2.04-0.064-3.211,1.655-3.317,1.816c-4.685,6.028-8.29,17.23-11.86,33.337c-3.909,17.642-10.146,60.358-11.445,81.714
			c-1.192,19.591-1.505,22.573-1.031,39.769l0.018,0.615c0.136,5.01,2.915,9.495,7.191,12.255
			c7.378,4.762,9.629,10.552,10.244,15.544c0.159,1.286,0.216,2.522,0.216,3.671l-2.913,167.599
			c-0.04,3.542,4.221,6.423,9.493,6.423l0,0c5.27,0,9.528-2.881,9.492-6.423L400.173,227.338z"/>
		<path opacity="0.5278" fill="#787878" d="M400.115,227.338v-3.671l-0.002-181.488c0-1.929-1.379-3.508-3.104-3.562
			c-2.038-0.064-3.207,1.655-3.312,1.815c-4.68,6.028-8.281,17.23-11.847,33.338c-3.904,17.643-10.133,60.358-11.431,81.714
			c-1.191,19.591-1.503,22.573-1.03,39.769l0.018,0.615c0.136,5.01,2.911,9.495,7.183,12.255c7.369,4.762,9.617,10.552,10.23,15.544
			c0.16,1.286,0.216,2.522,0.216,3.671l-2.909,167.599c-0.04,3.542,4.215,6.423,9.481,6.423l0,0c5.263,0,9.517-2.881,9.48-6.423
			L400.115,227.338z"/>
		<path opacity="0.5556" fill="#717171" d="M400.057,227.338v-3.671l-0.002-181.488c0-1.929-1.376-3.508-3.1-3.562
			c-2.035-0.064-3.203,1.655-3.309,1.816c-4.674,6.028-8.27,17.23-11.831,33.337c-3.899,17.643-10.121,60.358-11.417,81.714
			c-1.189,19.591-1.502,22.573-1.029,39.769l0.018,0.615c0.136,5.01,2.908,9.495,7.174,12.256
			c7.359,4.762,9.605,10.552,10.218,15.544c0.159,1.286,0.215,2.522,0.215,3.671l-2.905,167.599
			c-0.039,3.542,4.211,6.423,9.47,6.423l0,0c5.256,0,9.505-2.881,9.469-6.423L400.057,227.338z"/>
		<path opacity="0.5833" fill="#6A6A6A" d="M399.999,227.338v-3.671l-0.002-181.488c0-1.929-1.375-3.508-3.096-3.562
			c-2.032-0.064-3.199,1.655-3.305,1.816c-4.668,6.028-8.26,17.23-11.816,33.337c-3.895,17.642-10.108,60.358-11.403,81.714
			c-1.188,19.591-1.5,22.573-1.027,39.77l0.018,0.614c0.136,5.01,2.904,9.495,7.165,12.255c7.351,4.762,9.593,10.552,10.206,15.544
			c0.158,1.286,0.214,2.522,0.214,3.671l-2.901,167.599c-0.039,3.542,4.205,6.423,9.458,6.423l0,0c5.25,0,9.493-2.881,9.457-6.423
			L399.999,227.338z"/>
		<path opacity="0.6111" fill="#636363" d="M399.941,227.338v-3.671l-0.002-181.488c0-1.929-1.373-3.508-3.092-3.562
			c-2.03-0.064-3.195,1.655-3.301,1.816c-4.662,6.028-8.25,17.23-11.802,33.337c-3.89,17.642-10.096,60.358-11.389,81.714
			c-1.187,19.591-1.499,22.573-1.026,39.769l0.018,0.615c0.136,5.01,2.9,9.495,7.156,12.256c7.341,4.762,9.581,10.552,10.193,15.544
			c0.158,1.286,0.213,2.522,0.213,3.671l-2.897,167.599c-0.039,3.542,4.2,6.423,9.446,6.423l0,0c5.243,0,9.48-2.881,9.445-6.423
			L399.941,227.338z"/>
		<path opacity="0.6389" fill="#5C5C5C" d="M399.883,227.338v-3.671l-0.001-181.488c0-1.929-1.372-3.508-3.088-3.562
			c-2.028-0.064-3.192,1.655-3.297,1.816c-4.656,6.027-8.239,17.229-11.788,33.337c-3.885,17.642-10.083,60.358-11.375,81.714
			c-1.185,19.591-1.496,22.573-1.025,39.769l0.018,0.615c0.136,5.01,2.897,9.495,7.148,12.255
			c7.332,4.762,9.568,10.552,10.18,15.544c0.158,1.286,0.214,2.522,0.214,3.671l-2.895,167.599
			c-0.039,3.542,4.195,6.423,9.435,6.423l0,0c5.236,0,9.47-2.881,9.434-6.423L399.883,227.338z"/>
		<path opacity="0.6667" fill="#555555" d="M399.825,227.338v-3.671l-0.001-181.488c0-1.929-1.371-3.508-3.085-3.562
			c-2.025-0.064-3.188,1.655-3.292,1.815c-4.65,6.028-8.229,17.23-11.772,33.338c-3.881,17.642-10.071,60.358-11.36,81.714
			c-1.184,19.591-1.495,22.573-1.024,39.77l0.018,0.614c0.136,5.01,2.894,9.495,7.139,12.256
			c7.322,4.762,9.557,10.552,10.168,15.544c0.158,1.286,0.213,2.522,0.213,3.671l-2.891,167.599
			c-0.038,3.542,4.19,6.423,9.423,6.423l0,0c5.23,0,9.457-2.881,9.422-6.423L399.825,227.338z"/>
		<path opacity="0.6944" fill="#4E4E4E" d="M399.768,227.338v-3.671l-0.002-181.488c0-1.929-1.368-3.509-3.08-3.562
			c-2.023-0.063-3.184,1.655-3.288,1.816c-4.646,6.028-8.22,17.23-11.758,33.337c-3.875,17.642-10.058,60.358-11.346,81.714
			c-1.182,19.591-1.493,22.573-1.022,39.769l0.018,0.615c0.135,5.01,2.89,9.495,7.13,12.255c7.313,4.762,9.544,10.552,10.154,15.544
			c0.158,1.286,0.213,2.522,0.213,3.671l-2.887,167.599c-0.038,3.542,4.186,6.423,9.41,6.423l0,0c5.225,0,9.446-2.881,9.412-6.423
			L399.768,227.338z"/>
		<path opacity="0.7222" fill="#474747" d="M399.709,227.338v-3.671V42.179c0-1.929-1.368-3.508-3.077-3.562
			c-2.021-0.064-3.18,1.655-3.284,1.816c-4.64,6.028-8.209,17.23-11.744,33.337c-3.871,17.642-10.045,60.358-11.332,81.714
			c-1.18,19.591-1.491,22.573-1.022,39.769l0.018,0.615c0.136,5.01,2.887,9.495,7.122,12.256
			c7.303,4.762,9.532,10.552,10.142,15.544c0.158,1.286,0.213,2.522,0.213,3.671l-2.884,167.599c-0.038,3.542,4.18,6.423,9.4,6.423
			l0,0c5.217,0,9.434-2.881,9.398-6.423L399.709,227.338z"/>
		<path opacity="0.75" fill="#404040" d="M399.651,227.338v-3.671L399.65,42.179c0-1.929-1.365-3.508-3.072-3.562
			c-2.019-0.064-3.176,1.655-3.281,1.816c-4.633,6.028-8.197,17.23-11.728,33.337c-3.867,17.642-10.034,60.358-11.318,81.714
			c-1.179,19.591-1.489,22.573-1.02,39.769l0.017,0.615c0.136,5.01,2.884,9.495,7.113,12.255c7.294,4.762,9.521,10.552,10.13,15.544
			c0.157,1.286,0.211,2.522,0.211,3.671l-2.879,167.599c-0.038,3.542,4.175,6.423,9.388,6.423l0,0c5.21,0,9.422-2.881,9.388-6.423
			L399.651,227.338z"/>
		<path opacity="0.7778" fill="#393939" d="M399.594,227.338v-3.671l-0.002-181.488c0-1.929-1.363-3.508-3.068-3.562
			c-2.016-0.064-3.172,1.655-3.276,1.816c-4.628,6.027-8.188,17.229-11.714,33.337c-3.861,17.642-10.021,60.358-11.303,81.714
			c-1.178,19.591-1.488,22.573-1.019,39.769l0.017,0.615c0.135,5.01,2.88,9.495,7.104,12.255
			c7.286,4.762,9.508,10.552,10.117,15.544c0.157,1.286,0.212,2.522,0.212,3.671l-2.876,167.599
			c-0.038,3.542,4.169,6.423,9.376,6.423l0,0c5.203,0,9.41-2.881,9.375-6.423L399.594,227.338z"/>
		<path opacity="0.8056" fill="#323232" d="M399.535,227.338v-3.671V42.179c0-1.929-1.363-3.508-3.064-3.562
			c-2.014-0.064-3.169,1.655-3.273,1.815c-4.622,6.028-8.178,17.23-11.699,33.338c-3.856,17.642-10.008,60.358-11.289,81.714
			c-1.176,19.591-1.486,22.573-1.018,39.769l0.017,0.615c0.135,5.01,2.877,9.495,7.095,12.255
			c7.276,4.762,9.497,10.552,10.104,15.544c0.157,1.286,0.211,2.522,0.211,3.671l-2.873,167.599
			c-0.037,3.542,4.165,6.423,9.364,6.423l0,0c5.198,0,9.398-2.881,9.365-6.423L399.535,227.338z"/>
		<path opacity="0.8333" fill="#2B2B2B" d="M399.478,227.338v-3.671l-0.001-181.488c0-1.929-1.36-3.508-3.061-3.562
			c-2.011-0.064-3.164,1.655-3.268,1.816c-4.617,6.028-8.168,17.23-11.686,33.337c-3.852,17.642-9.996,60.358-11.275,81.714
			c-1.174,19.591-1.483,22.573-1.016,39.769l0.017,0.615c0.135,5.01,2.874,9.495,7.086,12.255
			c7.267,4.762,9.484,10.552,10.091,15.544c0.158,1.286,0.211,2.522,0.211,3.671l-2.869,167.599
			c-0.037,3.542,4.16,6.423,9.354,6.423l0,0c5.191,0,9.387-2.881,9.353-6.423L399.478,227.338z"/>
		<path opacity="0.8611" fill="#232323" d="M399.42,227.338v-3.671l-0.001-181.488c0-1.929-1.359-3.508-3.057-3.562
			c-2.009-0.064-3.161,1.655-3.265,1.816c-4.61,6.028-8.157,17.23-11.67,33.337c-3.847,17.642-9.983,60.358-11.261,81.714
			c-1.173,19.591-1.482,22.573-1.016,39.769l0.017,0.615c0.135,5.01,2.87,9.495,7.078,12.255
			c7.257,4.762,9.473,10.552,10.078,15.544c0.157,1.286,0.211,2.522,0.211,3.671l-2.866,167.599
			c-0.036,3.542,4.155,6.423,9.341,6.423l0,0c5.186,0,9.375-2.881,9.342-6.423L399.42,227.338z"/>
		<path opacity="0.8889" fill="#1C1C1C" d="M399.361,227.338v-3.671V42.179c0-1.929-1.357-3.508-3.054-3.562
			c-2.005-0.064-3.157,1.655-3.26,1.816c-4.604,6.028-8.146,17.23-11.655,33.337c-3.842,17.642-9.971,60.358-11.247,81.714
			c-1.172,19.591-1.48,22.573-1.014,39.77l0.017,0.614c0.135,5.01,2.866,9.495,7.068,12.255c7.248,4.762,9.461,10.552,10.066,15.544
			c0.157,1.286,0.209,2.522,0.209,3.671l-2.861,167.599c-0.036,3.542,4.149,6.423,9.33,6.423l0,0c5.178,0,9.363-2.881,9.329-6.423
			L399.361,227.338z"/>
		<path opacity="0.9167" fill="#151515" d="M399.304,227.338v-3.671V42.179c0-1.929-1.356-3.508-3.05-3.562
			c-2.003-0.064-3.152,1.655-3.256,1.816c-4.6,6.028-8.137,17.23-11.641,33.337c-3.838,17.642-9.958,60.358-11.232,81.714
			c-1.17,19.591-1.479,22.573-1.013,39.769l0.017,0.615c0.135,5.01,2.863,9.495,7.06,12.255c7.239,4.762,9.448,10.552,10.054,15.544
			c0.156,1.286,0.209,2.522,0.209,3.671l-2.858,167.599c-0.036,3.542,4.145,6.423,9.318,6.423l0,0c5.171,0,9.351-2.881,9.317-6.423
			L399.304,227.338z"/>
		<path opacity="0.9444" fill="#0E0E0E" d="M399.246,227.338v-3.671V42.179c0-1.929-1.355-3.508-3.046-3.562
			c-2.001-0.064-3.149,1.655-3.252,1.816c-4.594,6.028-8.126,17.23-11.626,33.337c-3.833,17.642-9.946,60.358-11.218,81.714
			c-1.169,19.591-1.477,22.573-1.012,39.769l0.017,0.615c0.135,5.01,2.86,9.495,7.051,12.255c7.23,4.762,9.436,10.552,10.041,15.544
			c0.157,1.286,0.209,2.522,0.209,3.671l-2.855,167.599c-0.036,3.542,4.139,6.423,9.307,6.423l0,0c5.164,0,9.34-2.881,9.306-6.423
			L399.246,227.338z"/>
		<path opacity="0.9722" fill="#070707" d="M399.188,227.338v-3.671V42.179c0-1.929-1.354-3.508-3.041-3.562
			c-1.998-0.064-3.146,1.655-3.248,1.816c-4.588,6.028-8.116,17.23-11.611,33.337c-3.829,17.642-9.934,60.358-11.205,81.714
			c-1.167,19.591-1.475,22.573-1.01,39.769l0.017,0.615c0.134,5.01,2.855,9.495,7.042,12.255c7.22,4.762,9.423,10.552,10.027,15.544
			c0.157,1.286,0.209,2.522,0.209,3.671l-2.851,167.599c-0.035,3.542,4.134,6.423,9.294,6.423l0,0c5.159,0,9.328-2.881,9.295-6.423
			L399.188,227.338z"/>
		<path d="M399.13,227.338v-3.671V42.179c0-1.929-1.352-3.501-3.038-3.562c-1.996-0.056-3.141,1.655-3.244,1.816
			c-4.582,6.028-8.105,17.23-11.596,33.337c-3.823,17.642-9.921,60.358-11.19,81.714c-1.166,19.591-1.473,22.573-1.009,39.769
			l0.017,0.615c0.134,5.01,2.853,9.495,7.034,12.255c7.211,4.762,9.412,10.552,10.015,15.544c0.156,1.286,0.209,2.522,0.209,3.671
			l-2.848,167.599c-0.035,3.542,4.129,6.423,9.284,6.423l0,0c5.151,0,9.315-2.881,9.282-6.423L399.13,227.338z"/>
	</g>
	<path fill="#FFFFFF" d="M398.005,227.338v-3.671V42.179c0-1.929-1.35-3.501-3.044-3.562c-1.992-0.056-3.137,1.655-3.236,1.816
		c-4.58,6.028-8.108,17.23-11.601,33.337c-3.817,17.642-9.919,60.358-11.188,81.714c-1.166,19.591-1.473,22.573-1.006,39.769
		l0.014,0.615c0.134,5.01,2.851,9.495,7.033,12.255c7.214,4.762,9.417,10.552,10.015,15.544c0.156,1.286,0.212,2.522,0.212,3.671
		l-2.847,167.599c-0.04,3.542,4.124,6.423,9.278,6.423l0,0c5.151,0,9.315-2.881,9.28-6.423L398.005,227.338z"/>
	<linearGradient id="SVGID_1_" gradientUnits="userSpaceOnUse" x1="383.4873" y1="312.5137" x2="402.0459" y2="312.5137">
		<stop  offset="0" style="stop-color:#FFFFFF"/>
		<stop  offset="1" style="stop-color:#D9D9D9"/>
	</linearGradient>
	<path fill="url(#SVGID_1_)" d="M386.334,227.338l-2.847,167.599c-0.035,3.542,4.13,6.423,9.282,6.423l0,0
		c5.153,0,9.317-2.881,9.276-6.423l-2.906-167.599v-3.671h-13.013C386.277,224.953,386.334,226.189,386.334,227.338z"/>
	<linearGradient id="SVGID_2_" gradientUnits="userSpaceOnUse" x1="368.853" y1="131.1406" x2="399.1396" y2="131.1406">
		<stop  offset="0" style="stop-color:#FFFFFF"/>
		<stop  offset="1" style="stop-color:#D9D9D9"/>
	</linearGradient>
	<path fill="url(#SVGID_2_)" d="M396.098,38.616c-1.994-0.056-3.137,1.655-3.242,1.816c-4.58,6.028-8.104,17.23-11.597,33.337
		c-3.822,17.642-9.919,60.358-11.188,81.714c-1.171,19.591-1.474,22.573-1.011,39.769l0.018,0.615
		c0.129,5.01,2.851,9.495,7.029,12.255c7.216,4.762,9.417,10.552,10.02,15.544h13.013l-0.004-181.488
		C399.136,40.25,397.788,38.677,396.098,38.616z"/>
	<path fill="#2A2A2A" d="M397.788,223.662h-11.667c-0.511-4.264-2.209-9.113-7.197-13.412c4.917-1.257,10.327,3.731,14.972,1.872
		c0.818-0.407,1.633-0.814,2.503-1.166c0.434-0.182,0.877-0.342,1.34-0.477L397.788,223.662z"/>
	<path fill="#2A2A2A" d="M400.47,393.814c0.031,3.25-3.627,5.889-8.159,5.889h-0.018c-3.143,0-5.873-1.278-7.225-3.137
		c1.633,0.615,2.439,0.72,4.779,0.807l0,0c4.529,0,8.187-2.636,8.157-5.886l-1.621-167.82h1.404
		c-0.031,0.351-0.053,0.698-0.053,1.065v0.113L400.47,393.814z"/>
</g>
</svg>
