<?xml version="1.0" encoding="utf-8"?>
<!-- Generator: Adobe Illustrator 16.0.0, SVG Export Plug-In . SVG Version: 6.00 Build 0)  -->
<!DOCTYPE svg PUBLIC "-//W3C//DTD SVG 1.1//EN" "http://www.w3.org/Graphics/SVG/1.1/DTD/svg11.dtd">
<svg version="1.1" id="Layer_1" xmlns="http://www.w3.org/2000/svg" xmlns:xlink="http://www.w3.org/1999/xlink" x="0px" y="0px"
	 width="768px" height="430px" viewBox="0 0 768 430" enable-background="new 0 0 768 430" xml:space="preserve">
<g>
	<path fill="#EC776B" d="M379.908,347.843c0,0-1.734,13.889-9.26,17.652c-7.521,3.761-26.907,4.918-35.589,8.679
		c-8.682,3.764-11.865,8.682-15.915,9.26c-4.051,0.58-4.919-5.496,2.314-13.889c-8.391,4.34-11.149,8.901-14.18,10.416
		c-5.787,2.895-12.153,0.289-1.446-10.126c-8.391,3.473-16.783,10.707-20.544,8.971c-3.762-1.737,2.894-11.287,9.26-17.074
		c-8.971,3.472-13.312-0.289-7.234-4.339c6.077-4.05,28.646-11.865,57.003-9.55C353.577,349,381.339,341.581,379.908,347.843z"/>
	<path fill="#EC8D79" d="M326.262,366.164c0.492-0.233,0.995-0.433,1.518-0.561C327.261,365.774,326.767,365.975,326.262,366.164z"
		/>
	<path fill="#EC8D79" d="M287.313,357.393c6.077-4.05,28.646-11.865,57.003-9.55c4.316,0.541,12.65-0.783,20.176-1.718
		c4.604,8.191-1.119,15.038-7.2,17.741c-12.151,6.076-26.909,5.208-36.458,17.362c-1.267,1.267-2.993,1.145-4.51,0.649
		c-0.874-2.272,0.355-6.789,5.133-12.333l-0.027,0.015c1.609-1.254,3.404-2.301,5.095-3.11c0.504-0.189,0.973-0.077,1.492-0.248
		c-0.524,0.131-1.265-0.271-1.757-0.037c-7.089,2.644-12.833,6.729-19.315,11.592c-2.171,1.354-4.58,3.535-6.869,1.246
		c-0.225-1.791,1.251-4.785,5.754-9.167c-0.204,0.084-0.409,0.172-0.612,0.263c4.135-3.425,9.743-5.699,14.285-7.972
		c-15.922,3.042-31.385,17.583-34.744,12.352c1.488-3.755,5.695-9.025,9.787-12.746c-0.593,0.229-1.164,0.425-1.714,0.595
		c5.578-2.504,10.131-4.982,16.5-6.575c-8.618,0-15.296,5.414-24.752,4.652C284.843,359.505,285.714,358.458,287.313,357.393z"/>
	<path fill="#ECAA8D" d="M287.313,357.393c6.077-4.05,28.646-11.865,57.003-9.55c4.316,0.541,9.033-2.045,16.559-2.977
		c1.278,7.077-0.322,15.104-6.402,17.807c-12.153,6.077-24.198,4.664-33.746,16.818c-1.268,1.267-2.885,2.882-4.402,2.387
		c-0.874-2.272,0.355-6.789,5.133-12.333l-0.027,0.015c1.609-1.254,3.404-2.301,5.095-3.11c0.504-0.189,0.973-0.077,1.492-0.248
		c-0.524,0.131-1.265-0.271-1.757-0.037c-7.089,2.644-11.965,4.774-18.449,9.638c-2.257,1.469-4.999,4.68-7.289,2.391
		c-0.226-1.788,0.805-3.976,5.308-8.357c-0.204,0.084-0.409,0.172-0.612,0.263c4.135-3.425,9.743-5.699,14.285-7.972
		c-20.534,3.478-31.168,15.846-34.362,11.484c1.488-3.757,5.313-8.158,9.405-11.879c-0.593,0.229-1.164,0.425-1.714,0.595
		c5.578-2.504,10.131-4.982,16.5-6.575c-6.246-0.729-22.524,6.336-24.3,3.741C285.295,358.594,285.714,358.458,287.313,357.393z"/>
	<path fill="#F6D4C6" d="M344.317,347.843c-28.357-2.315-50.927,5.5-57.003,9.55c-1.6,1.065-2.018,1.201-2.28,2.1
		c0.524,0.043-0.954,0.9-0.452,0.911c15.303-11.568,44.529-10.5,60.431-12.506C344.78,347.886,344.549,347.873,344.317,347.843z"/>
	<path fill="#CE5D57" d="M315.989,382.252c-0.876-1.918-0.336-5.922,3.736-11.261c-4.007,2.325-6.558,4.657-8.49,6.421
		c-1.429,1.305-2.556,2.335-3.762,2.938c-1.481,0.741-3.033,1.149-4.367,1.149c-1.663,0-2.832-0.621-3.288-1.744
		c-0.558-1.374-0.222-3.949,4.099-8.589c-2.4,1.153-4.757,2.524-7.054,3.86c-4.129,2.4-7.693,4.476-10.249,4.476
		c-0.562,0-1.07-0.1-1.507-0.304c-0.728-0.336-1.179-0.95-1.307-1.772c-0.495-3.215,4.067-9.753,9.004-14.637
		c-1.645,0.49-3.181,0.745-4.516,0.745c-2.255,0-3.765-0.719-4.144-1.977c-0.413-1.36,0.656-3.012,2.93-4.527
		c4.914-3.275,22.844-10.043,46.9-10.043c3.458,0,6.95,0.144,10.398,0.426c0.646,0.081,1.423,0.121,2.31,0.121
		c3.611,0,8.763-0.674,13.744-1.326c5.06-0.659,10.291-1.343,14.032-1.343c3.03,0,4.791,0.437,5.541,1.379
		c0.374,0.466,0.486,1.037,0.343,1.652c-0.072,0.577-1.854,14.163-9.496,17.984c-3.903,1.95-10.721,3.172-17.942,4.462
		c-6.624,1.186-13.475,2.412-17.671,4.23c-4.404,1.908-7.39,4.123-9.787,5.906c-2.322,1.726-4.156,3.088-6.24,3.383
		c-0.199,0.029-0.391,0.043-0.577,0.043C317.415,383.906,316.481,383.318,315.989,382.252z M360.538,347.071
		c-5.008,0.655-10.188,1.331-13.856,1.331c-0.923,0-1.737-0.043-2.4-0.127c-3.407-0.277-6.874-0.418-10.308-0.418
		c-23.857,0-41.577,6.667-46.419,9.896c-1.906,1.271-2.871,2.601-2.581,3.555c0.253,0.84,1.522,1.358,3.313,1.358
		c1.731,0,3.841-0.461,6.103-1.339l2.173-0.841l-1.724,1.568c-5.308,4.823-10.665,12.099-10.183,15.237
		c0.084,0.538,0.349,0.903,0.813,1.119c0.328,0.15,0.703,0.225,1.144,0.225c2.32,0,5.792-2.02,9.811-4.358
		c2.846-1.654,6.071-3.532,9.243-4.845l2.088-0.864l-1.621,1.577c-6.006,5.845-5.855,8.439-5.513,9.282
		c0.425,1.048,1.739,1.203,2.484,1.203c1.203,0,2.616-0.375,3.979-1.057c1.098-0.549,2.186-1.544,3.564-2.803
		c2.261-2.066,5.358-4.896,10.609-7.61l1.994-1.033l-1.465,1.702c-4.753,5.51-5.939,10.026-5.008,12.057
		c0.404,0.883,1.213,1.277,2.304,1.119c1.864-0.268,3.619-1.572,5.843-3.224c2.435-1.81,5.464-4.058,9.958-6.006
		c4.289-1.857,11.192-3.092,17.865-4.286c6.841-1.223,13.915-2.489,17.706-4.385c7.229-3.613,9.006-17.178,9.033-17.358
		c0.091-0.398,0.035-0.704-0.167-0.962c-0.558-0.698-2.195-1.051-4.863-1.051C370.771,345.734,365.569,346.414,360.538,347.071z"/>
	<path fill="#CE5D57" d="M294.799,362.087c5.369-3.814,15.095-6.311,15.191-6.336c0,0-10.193,1.72-15.694,5.63L294.799,362.087z"/>
	<path fill="#CE5D57" d="M306.108,370.17c5.068-4.184,13.314-8.006,13.397-8.044c0,0-8.792,3.118-13.949,7.373L306.108,370.17z"/>
	<path fill="#CE5D57" d="M321.743,369.873c3.113-2.727,6.245-3.663,6.276-3.672c0,0-3.591,0.166-6.846,3.017L321.743,369.873z"/>
	<path fill="#EC776B" d="M483.772,262.338c0,0,6.69,15.047,27.96,11.141c21.268-3.908,34.146-22.858,34.146-22.858
		s-5.646-5.064-7.525-5.646c-1.734,0-5.057,1.75-5.057,1.75s4.913-5.511,6.215-8.837c0.145-5.065-6.076-7.379-6.076-7.379
		l-5.065,3.183c0,0,3.906-5.934,3.906-12.299c-1.591-6.077-7.956-2.315-7.956-2.315s-2.17,4.195-7.669,7.668
		C511.152,230.217,483.447,258.72,483.772,262.338z"/>
	<path fill="#EC8D79" d="M499.108,265.337c15.395,4.399,34.731-3.516,43.771-17.272c-1.424-1.12-3.733-2.846-4.527-3.09
		c-1.734,0-5.057,1.75-5.057,1.75s4.913-5.511,6.215-8.837c0.145-5.065-6.076-7.379-6.076-7.379l-5.065,3.183
		c0,0,3.906-5.934,3.906-12.299c-1.591-6.077-7.956-2.315-7.956-2.315s-2.17,4.195-7.669,7.668
		c-4.213,2.662-21.459,20.015-29.146,29.609C490.469,260.531,494.218,263.831,499.108,265.337z"/>
	<path fill="#ECAA8D" d="M500.121,261.433c15.393,4.396,33.719,0.389,42.759-13.368c-1.424-1.12-3.733-2.846-4.527-3.09
		c-1.734,0-5.057,1.75-5.057,1.75s4.913-5.511,6.215-8.837c0.145-5.065-6.076-7.379-6.076-7.379l-5.065,3.183
		c0,0,3.906-5.934,3.906-12.299c-1.591-6.077-7.956-2.315-7.956-2.315s-2.17,4.195-7.669,7.668
		c-4.213,2.662-19.921,17.453-27.609,27.05C492.005,257.97,495.229,259.927,500.121,261.433z"/>
	<path fill="#CE5D57" d="M504.968,274.561h-0.003c-16.045-0.003-21.537-11.927-21.59-12.046l-0.035-0.139
		c-0.353-3.924,27.311-32.354,33.078-35.996c5.322-3.362,7.494-7.46,7.516-7.501l0.058-0.109l0.107-0.065
		c0.083-0.05,2.074-1.211,4.179-1.211c1.563,0,3.6,0.657,4.419,3.789l0.015,0.11c0,4.535-1.902,8.794-3.078,10.992l3.751-2.358
		l0.201,0.074c0.266,0.101,6.512,2.484,6.358,7.799l-0.028,0.146c-0.9,2.298-3.421,5.543-4.988,7.437
		c1.101-0.464,2.468-0.939,3.426-0.939l0.13,0.019c1.949,0.601,7.45,5.524,7.684,5.732l0.281,0.257l-0.212,0.312
		c-0.132,0.191-13.224,19.147-34.424,23.042C509.446,274.338,507.143,274.561,504.968,274.561z M484.203,262.232
		c0.473,0.971,5.94,11.458,20.762,11.458h0.003c2.124,0,4.373-0.215,6.687-0.641c19.362-3.555,31.859-19.905,33.643-22.366
		c-1.719-1.52-5.575-4.771-7.011-5.273c-1.63,0.045-4.759,1.68-4.79,1.697l-2.121,1.115l1.596-1.787
		c0.049-0.056,4.809-5.412,6.107-8.637c0.063-4.16-4.587-6.372-5.603-6.806l-6.566,4.128l1.099-1.669
		c0.036-0.059,3.812-5.866,3.832-12.004c-0.552-2.048-1.75-3.088-3.562-3.088c-1.614,0-3.225,0.812-3.637,1.034
		c-0.402,0.728-2.671,4.505-7.759,7.719C510.948,230.86,484.27,258.718,484.203,262.232z"/>
	<path fill="#CE5D57" d="M534.776,246.401l-0.435-0.753c-0.047,0.029-4.521,2.581-8.732,4.228c0.664-2.141,1.207-5.092,0.95-8.729
		c-0.12-1.719-0.621-3.154-1.313-4.373c1.946-1.066,3.579-2.842,3.651-2.923l-0.644-0.583c-0.017,0.02-1.63,1.771-3.463,2.766
		c-2.616-3.812-7.452-4.202-7.452-4.202c0.079,0.021,7.842,2.085,8.355,9.377c0.524,7.448-2.501,12.051-2.532,12.096
		c0,0,1.436-0.6,2.091-2.367C529.712,249.291,534.723,246.433,534.776,246.401z"/>
	<path fill="#B9A89D" d="M543.994,253.083c0,0-2.82-4.768-8.086-7.525c4.76-2.534,13.982-10.392,15.936-10.478
		C553.798,234.994,551.226,246.758,543.994,253.083z"/>
	<path fill="#F7E0D1" d="M541.887,250.312c0,0-2.968-2.947-5.979-4.754c4.76-2.534,13.982-10.392,15.936-10.478
		C553.798,234.994,549.117,243.986,541.887,250.312z"/>
	<path fill="#5D544F" d="M543.887,253.755l-0.267-0.45c-0.027-0.048-2.825-4.697-7.913-7.361l-0.729-0.38l0.726-0.388
		c2.142-1.14,5.184-3.362,8.125-5.511c4.216-3.077,6.86-4.967,7.995-5.018h0.005c0.27,0,0.69,0.094,0.916,0.695
		c0.874,2.328-1.955,12.371-8.467,18.068L543.887,253.755z M536.804,245.556c4.02,2.322,6.481,5.661,7.281,6.863
		c5.446-5.025,8.11-13.253,7.95-16.176c-0.029-0.516-0.143-0.707-0.182-0.733c-0.922,0.046-4.423,2.603-7.514,4.858
		C541.675,242.313,538.926,244.32,536.804,245.556z"/>
	<path fill="#B9A89D" d="M538.613,239.663c0,0,9.651-14.388,7.265-21.735c-0.979-2.466-8.649,9.658-13.881,13.484
		C537.703,235.08,538.613,239.663,538.613,239.663z"/>
	<path fill="#F7E0D1" d="M536.218,235.154c0,0,10.468-11.377,9.66-17.227c-0.979-2.466-8.649,9.658-13.881,13.484
		C535.263,233.445,536.218,235.154,536.218,235.154z"/>
	<path fill="#5D544F" d="M538.394,240.768l-0.205-1.019c-0.011-0.045-0.961-4.459-6.43-7.971l-0.529-0.342l0.511-0.374
		c2.311-1.691,5.138-5.065,7.63-8.043c3.133-3.739,4.958-5.854,6.08-5.854c0.378,0,0.679,0.221,0.829,0.603
		c2.434,7.489-6.907,21.542-7.306,22.137L538.394,240.768z M532.742,231.386c3.922,2.688,5.458,5.745,6.015,7.252
		c1.935-3.078,8.69-14.474,6.706-20.576h-0.012c-0.795,0-3.354,3.057-5.413,5.516C537.681,226.39,535.033,229.553,532.742,231.386z"
		/>
	<path fill="#B9A89D" d="M531.952,225.027c0,0,1.987-15.408-0.401-17.903c-1.193-1.302-8.454,13.731-8.454,13.731
		S527.461,221.338,531.952,225.027z"/>
	<path fill="#F7E0D1" d="M529.138,223.082c0,0,3.807-13.128,2.413-15.958c-1.193-1.302-8.454,13.731-8.454,13.731
		S525.37,221.228,529.138,223.082z"/>
	<path fill="#5D544F" d="M532.283,225.861l-0.605-0.497c-4.332-3.556-8.585-4.072-8.628-4.076l-0.609-0.069l0.269-0.553
		c2.039-4.225,6.969-14.055,8.663-14.055c0.192,0,0.368,0.076,0.499,0.22c2.453,2.563,0.718,16.655,0.513,18.251L532.283,225.861z
		 M523.742,220.523c1.291,0.251,4.48,1.097,7.874,3.684c0.548-4.631,1.339-14.686-0.309-16.705
		C530.291,208.009,526.748,214.351,523.742,220.523z"/>
	<path fill="#EC776B" d="M445.246,355.22c0,0,1.734,13.892,9.257,17.652c7.524,3.761,26.911,4.919,35.592,8.682
		c8.682,3.761,11.865,8.682,15.915,9.258c4.05,0.579,4.92-5.497-2.315-13.89c8.392,4.343,11.149,8.904,14.18,10.419
		c5.788,2.895,12.154,0.289,1.446-10.127c8.392,3.472,16.784,10.705,20.545,8.968c3.761-1.735-2.895-11.283-9.26-17.07
		c8.971,3.472,13.31-0.289,7.233-4.341c-6.077-4.052-28.646-11.863-57.004-9.551C471.576,356.379,443.814,348.957,445.246,355.22z"
		/>
	<path fill="#EC8D79" d="M498.892,373.541c-0.49-0.233-0.995-0.43-1.518-0.562C497.893,373.154,498.387,373.354,498.892,373.541z"/>
	<path fill="#EC8D79" d="M537.839,364.771c-6.077-4.052-28.646-11.863-57.004-9.551c-4.314,0.54-12.65-0.783-20.175-1.715
		c-4.604,8.191,1.119,15.037,7.198,17.739c12.153,6.076,26.911,5.207,36.46,17.359c1.267,1.269,2.993,1.148,4.511,0.652
		c0.875-2.271-0.355-6.79-5.135-12.334l0.028,0.015c-1.61-1.253-3.402-2.301-5.097-3.111c-0.505-0.188-0.973-0.073-1.491-0.249
		c0.523,0.133,1.267-0.269,1.757-0.035c7.087,2.643,12.833,6.729,19.317,11.592c2.169,1.357,4.578,3.534,6.867,1.245
		c0.225-1.79-1.252-4.784-5.756-9.167c0.205,0.086,0.41,0.175,0.613,0.263c-4.134-3.421-9.742-5.696-14.285-7.968
		c15.922,3.038,31.386,17.581,34.745,12.351c-1.489-3.757-5.697-9.025-9.788-12.745c0.593,0.229,1.164,0.425,1.716,0.592
		c-5.58-2.505-10.132-4.982-16.499-6.574c8.616,0,15.295,5.416,24.75,4.652C540.312,366.881,539.439,365.836,537.839,364.771z"/>
	<path fill="#ECAA8D" d="M537.839,364.771c-6.077-4.052-28.646-11.863-57.004-9.551c-4.314,0.54-9.031-2.043-16.557-2.977
		c-1.281,7.08,0.323,15.104,6.402,17.807c12.152,6.076,24.196,4.667,33.747,16.82c1.267,1.266,2.884,2.882,4.401,2.386
		c0.875-2.271-0.355-6.79-5.135-12.334l0.028,0.015c-1.61-1.253-3.402-2.301-5.097-3.111c-0.505-0.188-0.973-0.073-1.491-0.249
		c0.523,0.133,1.267-0.269,1.757-0.035c7.087,2.643,11.964,4.777,18.447,9.639c2.259,1.468,5.001,4.682,7.29,2.393
		c0.225-1.79-0.805-3.979-5.309-8.361c0.205,0.086,0.41,0.175,0.613,0.263c-4.134-3.421-9.742-5.696-14.285-7.968
		c20.535,3.474,31.167,15.844,34.362,11.48c-1.486-3.753-5.314-8.155-9.405-11.875c0.593,0.229,1.164,0.425,1.716,0.592
		c-5.58-2.505-10.132-4.982-16.499-6.574c9.22-0.459,14.844,4.505,24.298,3.742C539.857,365.971,539.439,365.836,537.839,364.771z"
		/>
	<path fill="#F6D4C6" d="M476.539,356.486c17.905,0.324,41.67-0.866,63.581,10.385c-0.263-0.9-0.681-1.035-2.281-2.101
		c-6.077-4.052-28.646-11.863-57.004-9.551c-2.047,0.259-4.193-0.193-6.679-0.834C474.881,355.254,475.576,356.004,476.539,356.486z
		"/>
	<path fill="#CE5D57" d="M506.526,391.286c-0.185,0-0.378-0.015-0.578-0.043c-2.084-0.3-3.917-1.66-6.24-3.386
		c-2.396-1.78-5.382-3.999-9.784-5.905c-4.196-1.818-11.047-3.045-17.671-4.23c-7.223-1.291-14.041-2.511-17.943-4.46
		c-7.643-3.824-9.426-17.41-9.496-17.987c-0.144-0.615-0.031-1.186,0.341-1.653c0.751-0.938,2.512-1.378,5.542-1.378
		c3.741,0,8.973,0.687,14.032,1.345c4.98,0.65,10.131,1.323,13.742,1.323c0.889,0,1.665-0.04,2.312-0.121
		c3.445-0.281,6.938-0.423,10.396-0.423c24.058,0,41.988,6.766,46.901,10.04c2.275,1.518,3.344,3.169,2.931,4.531
		c-0.381,1.255-1.892,1.974-4.145,1.974c-1.333,0-2.869-0.256-4.517-0.745c4.937,4.887,9.499,11.422,9.005,14.637
		c-0.127,0.823-0.579,1.438-1.308,1.772c-0.438,0.203-0.946,0.306-1.507,0.306c-2.556,0-6.121-2.074-10.248-4.476
		c-2.298-1.338-4.656-2.71-7.054-3.859c4.317,4.639,4.655,7.212,4.098,8.586c-0.458,1.126-1.623,1.744-3.29,1.744
		c-1.333,0-2.884-0.409-4.365-1.149c-1.208-0.603-2.335-1.633-3.761-2.936c-1.934-1.767-4.484-4.096-8.491-6.424
		c4.07,5.337,4.612,9.346,3.735,11.259C508.674,390.695,507.737,391.286,506.526,391.286z M450.696,353.112
		c-2.67,0-4.307,0.354-4.863,1.052c-0.205,0.256-0.255,0.562-0.167,0.96c0.025,0.18,1.804,13.748,9.033,17.361
		c3.789,1.894,10.863,3.158,17.704,4.382c6.674,1.194,13.575,2.43,17.864,4.286c4.494,1.948,7.524,4.199,9.96,6.009
		c2.221,1.65,3.978,2.955,5.845,3.221c1.089,0.157,1.899-0.236,2.301-1.116c0.932-2.031-0.256-6.55-5.007-12.06l-1.467-1.702
		l1.995,1.032c5.25,2.717,8.347,5.546,10.608,7.614c1.378,1.256,2.468,2.252,3.564,2.8c1.365,0.684,2.777,1.058,3.979,1.058
		c0.745,0,2.061-0.154,2.485-1.204c0.344-0.843,0.492-3.438-5.513-9.28l-1.62-1.576l2.088,0.864
		c3.172,1.311,6.397,3.187,9.241,4.843c4.019,2.338,7.49,4.358,9.812,4.358c0.44,0,0.814-0.074,1.144-0.226
		c0.463-0.213,0.729-0.579,0.812-1.116c0.482-3.141-4.873-10.417-10.181-15.242l-1.723-1.564l2.171,0.842
		c2.262,0.874,4.373,1.339,6.104,1.339c1.79,0,3.061-0.521,3.314-1.358c0.289-0.958-0.676-2.286-2.581-3.556
		c-4.844-3.23-22.562-9.897-46.421-9.897c-3.432,0-6.901,0.141-10.307,0.421c-0.664,0.083-1.478,0.124-2.401,0.124
		c-3.669,0-8.847-0.676-13.854-1.331C459.583,353.791,454.381,353.112,450.696,353.112z"/>
	<path fill="#CE5D57" d="M530.354,369.464c-5.37-3.813-15.095-6.311-15.192-6.335c0,0,10.193,1.719,15.696,5.628L530.354,369.464z"
		/>
	<path fill="#CE5D57" d="M519.046,377.548c-5.068-4.185-13.316-8.004-13.397-8.042c0,0,8.792,3.117,13.949,7.37L519.046,377.548z"/>
	<path fill="#CE5D57" d="M503.409,377.25c-3.111-2.727-6.243-3.664-6.274-3.674c0,0,3.592,0.17,6.846,3.021L503.409,377.25z"/>
	<path fill="#3A3C47" d="M349.111,173.649c-14.467-6.656-32.409-6.076-44.851-7.234c-12.443-1.158-40.799-11.285-46.008-17.65
		c-5.209-6.366-12.153,10.127-8.682,16.782c3.472,6.657,16.205,26.623,32.987,38.774c16.783,12.154,44.272,16.783,50.349,32.408
		C348.822,222.261,349.111,173.649,349.111,173.649z"/>
	<path fill="#494C57" d="M304.26,166.415c-12.443-1.158-40.799-11.285-46.008-17.65c-4.341-5.306-9.883,5.265-9.6,12.787
		c3.767,6.983,9.204,13.262,14.338,20.451c14.758,20.833,38.197,19.097,59.899,26.042c7.728,2.899,13.841,7.413,19.242,12.787
		c6.816-19.781,6.979-47.182,6.979-47.182C334.644,166.993,316.702,167.573,304.26,166.415z"/>
	<path fill="#535660" d="M286.43,193.286c20.072,6.176,41.511,4.813,58.834,16.032c3.737-17.451,3.846-35.669,3.846-35.669
		c-14.467-6.656-32.409-6.076-44.851-7.234c-12.443-1.158-40.799-11.285-46.008-17.65c-2.982-3.645-6.53,0.201-8.368,5.405
		C255.527,171.481,269.553,188.364,286.43,193.286z"/>
	<path fill="#949594" d="M348.063,176.793c0.326,0.094,0.641,0.197,0.961,0.295c0.078-2.172,0.087-3.44,0.087-3.44
		c-14.467-6.656-32.409-6.076-44.851-7.234c-12.443-1.158-40.799-11.285-46.008-17.65c-1.129-1.38-2.338-1.684-3.505-1.249
		C276.575,174.383,315.392,169.442,348.063,176.793z"/>
	<path fill="#171817" d="M332.732,237.475l-0.23-0.588c-3.737-9.611-15.745-15.004-28.458-20.713
		c-7.582-3.405-15.422-6.925-21.74-11.5c-16.889-12.23-29.632-32.245-33.117-38.926c-2.026-3.882-0.637-11.027,1.932-15.264
		c1.403-2.314,3.038-3.588,4.601-3.588c1.038,0,2.002,0.535,2.868,1.594c5.062,6.185,33.104,16.32,45.713,17.493
		c2.685,0.25,5.626,0.419,8.74,0.597c11.066,0.635,24.84,1.424,36.252,6.676l0.254,0.117l-0.001,0.28
		c-0.012,1.993-0.474,48.967-16.346,63.4L332.732,237.475z M255.72,147.763c-1.249,0-2.621,1.126-3.859,3.17
		c-2.446,4.036-3.795,10.79-1.904,14.412c3.459,6.63,16.104,26.493,32.856,38.624c6.246,4.522,14.044,8.025,21.586,11.411
		c12.622,5.67,24.558,11.031,28.671,20.6c14.538-14.098,15.543-58.11,15.604-62.054c-11.215-5.077-24.773-5.855-35.682-6.48
		c-3.123-0.179-6.073-0.348-8.773-0.599c-12.742-1.187-41.142-11.502-46.303-17.81C257.224,148.192,256.484,147.763,255.72,147.763z
		"/>
	<path fill="#EC776B" d="M254.056,123.734c0,0-6.8,7.234-8.97,13.021c-0.868,2.026-27.199,2.895-35.881,7.958
		c-3.907,3.906,2.604,10.273,2.604,10.273s-5.787,2.748-10.417,5.497c-3.762,5.788,0.29,9.694,2.605,9.838
		c2.314,0.146,15.48-4.34,15.48-4.34s-9.838,5.208-12.588,9.838c-2.749,4.63,0.724,7.668,4.34,8.247
		c3.618,0.579,9.693-2.894,17.506-3.038c7.813-0.145,19.532-2.893,26.767-8.392c7.233-5.499,9.599-13.6,9.429-19.099
		c4.894-10.56-3.72-14.756,0.009-27.488C263.461,123.155,254.056,123.734,254.056,123.734z"/>
	<path fill="#EC8D79" d="M261.545,151.474c4.439-5.845-1.508-12.998,2.76-26.168c-2.573-2.043-10.249-1.572-10.249-1.572
		s-6.8,7.234-8.97,13.021c-0.868,2.026-27.199,2.895-35.881,7.958c-3.907,3.906,2.604,10.273,2.604,10.273
		s-5.787,2.748-10.417,5.497c-3.762,5.788,0.29,9.694,2.605,9.838c2.314,0.146,15.48-4.34,15.48-4.34s-9.838,5.208-12.588,9.838
		c-2.268,3.819-0.298,6.551,2.489,7.717c9.985-5.493,20.621-7.205,31.91-10.215C252.575,170.717,258.941,163.742,261.545,151.474z"
		/>
	<path fill="#ECAA8D" d="M259.786,150.779c4.438-5.845-3.354-13.469,3.314-25.366c-2.574-2.042-9.044-1.679-9.044-1.679
		s-6.8,7.234-8.97,13.021c-0.868,2.026-27.199,2.895-35.881,7.958c-3.907,3.906,2.604,10.273,2.604,10.273
		s-5.787,2.748-10.417,5.497c-3.762,5.788,0.29,9.694,2.605,9.838c2.314,0.146,15.48-4.34,15.48-4.34s-9.838,5.208-12.588,9.838
		c-2.268,3.819-0.298,6.551,2.489,7.717c5.633-6.361,19.753-9.374,31.043-12.385C251.707,168.546,257.181,163.048,259.786,150.779z"
		/>
	<path fill="#F6D4C6" d="M257.238,123.709c-2.172-0.235-3.182,0.024-3.182,0.024s-6.8,7.234-8.97,13.021
		c-0.868,2.026-27.199,2.895-35.881,7.958c-0.442,0.442-0.745,0.917-0.945,1.411c15.865-5.173,36.647-4.632,37.514-7.062
		C249.598,132.271,252.506,128.152,257.238,123.709z"/>
	<path fill="#CE5D57" d="M265.731,140.265c-1.065-3.917-2.167-7.968-0.374-14.093l0.048-0.167l-0.077-0.153
		c-1.099-2.147-5.704-2.598-9.372-2.598c-1.132,0-1.895,0.045-1.926,0.048l-0.172,0.01l-0.119,0.125
		c-0.28,0.297-6.884,7.363-9.045,13.134c-0.466,0.649-5.901,1.39-10.696,2.042c-8.836,1.205-19.833,2.704-25.011,5.725l-0.089,0.068
		c-0.92,0.92-1.382,2.038-1.375,3.325c0.017,2.966,2.532,6.005,3.56,7.123c-1.551,0.752-6.138,3.015-9.912,5.255l-0.087,0.052
		l-0.055,0.085c-2.333,3.589-1.604,6.265-0.963,7.541c0.928,1.847,2.667,2.889,3.904,2.967c1.54,0.098,7.588-1.736,11.71-3.062
		c-3.139,1.961-7.445,5.014-9.163,7.906c-1.45,2.443-1.133,4.284-0.61,5.399c0.83,1.771,2.843,3.111,5.255,3.497
		c0.292,0.046,0.61,0.071,0.944,0.071h0.001c1.626,0,3.599-0.547,5.884-1.181c2.969-0.824,6.663-1.847,10.753-1.922
		c7.831-0.146,19.628-2.862,27.021-8.481c7.305-5.551,9.749-13.615,9.603-19.354C267.875,148.151,266.833,144.319,265.731,140.265z
		 M204.114,169.891l-0.091-0.002c-0.966-0.061-2.409-0.953-3.183-2.491c-0.675-1.342-1.069-3.572,0.861-6.594
		c4.474-2.647,10.046-5.308,10.274-5.418c0.212-0.077,5.218-1.891,8.998-2.73c-1.552,3.698-3.16,8.969-1.987,13.033
		C216.925,166.382,206.387,169.891,204.114,169.891z M264.539,153.355l-0.043,0.093l0.003,0.103
		c0.171,5.527-2.17,13.353-9.258,18.739c-7.239,5.5-18.816,8.16-26.511,8.303c-4.201,0.079-7.955,1.118-10.971,1.955
		c-2.223,0.616-4.143,1.147-5.651,1.147c-0.289,0-0.561-0.019-0.808-0.059c-2.132-0.341-3.897-1.494-4.607-3.008
		c-0.622-1.326-0.424-2.913,0.571-4.588c2.355-3.967,10.22-8.468,12.036-9.47c0.667,1.523,2.828,2.319,2.828,2.319
		c-6.847-5.204,1.688-20.121,1.775-20.271c0,0-1.629,1.095-2.508,3.062c-3.47,0.696-8.303,2.385-9.47,2.802
		c-0.749-0.79-3.519-3.897-3.535-6.757c-0.005-1.042,0.348-1.915,1.083-2.666c5.052-2.916,16.37-4.458,24.642-5.585
		c8.086-1.103,10.952-1.574,11.376-2.566c1.959-5.227,7.854-11.763,8.763-12.75c0.286-0.014,0.905-0.038,1.701-0.038
		c4.604,0,7.685,0.722,8.517,1.986c-1.789,6.263-0.615,10.576,0.421,14.385C266.005,144.583,266.966,148.117,264.539,153.355z"/>
	<path fill="#B9A89D" d="M264.006,131.324c0,0-4.689-5.234-14.409-2.216c3.229-5.519,12.85-16.225,19.867-15.211
		C273.154,114.62,265.709,121.841,264.006,131.324z"/>
	<path fill="#F7E0D1" d="M261.436,129.521c0,0-2.118-3.431-11.838-0.414c3.229-5.519,12.85-16.225,19.867-15.211
		C273.154,114.62,263.138,120.04,261.436,129.521z"/>
	<path fill="#5D544F" d="M264.276,132.271l-0.592-0.656c-0.027-0.031-2.786-3.011-8.313-3.011c-1.784,0-3.683,0.309-5.644,0.919
		l-1.069,0.332l0.565-0.967c3.062-5.233,12.153-15.493,19.288-15.493c0.346,0,0.688,0.024,1.016,0.072
		c0.621,0.121,1.029,0.399,1.235,0.832c0.538,1.123-0.427,2.957-1.886,5.738c-1.54,2.931-3.649,6.945-4.442,11.365L264.276,132.271z
		 M255.371,127.736c4.474,0,7.225,1.797,8.36,2.74c0.908-4.24,2.898-8.031,4.375-10.843c1.192-2.27,2.223-4.231,1.874-4.959
		c-0.031-0.065-0.125-0.26-0.599-0.353c-0.266-0.037-0.566-0.058-0.871-0.058c-6.389,0-14.539,8.84-17.956,14.121
		C252.217,127.953,253.833,127.736,255.371,127.736z"/>
	<path fill="#B9A89D" d="M211.81,154.986c0,0-1.995-5.971,0.883-11.812c-7.178,0.961-20.488,9.278-20.922,11.812
		C191.338,157.517,205.589,155.058,211.81,154.986z"/>
	<path fill="#F7E0D1" d="M211.207,151.715c0,0-0.626-4.274,1.486-8.542c-7.178,0.961-20.905,9.242-20.922,11.812
		C191.762,156.56,204.986,151.788,211.207,151.715z"/>
	<path fill="#5D544F" d="M195.491,156.56L195.491,156.56c-2.234,0-3.444-0.255-3.925-0.823c-0.197-0.235-0.275-0.52-0.222-0.826
		c0.506-2.956,14.175-11.215,21.292-12.167l0.807-0.108l-0.359,0.73c-2.768,5.616-0.881,11.424-0.862,11.482l0.189,0.564
		l-0.595,0.007c-1.92,0.021-4.596,0.272-7.428,0.538C201.211,156.253,197.928,156.56,195.491,156.56z M211.96,143.734
		c-7.541,1.44-19.417,9.317-19.761,11.324l0.029,0.118c0.132,0.156,0.711,0.517,3.261,0.517h0.001c2.397,0,5.659-0.306,8.815-0.601
		c2.584-0.242,5.039-0.471,6.931-0.529C210.832,153,209.956,148.436,211.96,143.734z"/>
	<path fill="#B9A89D" d="M207.234,169.744c0,0-5.552-4.198-2.027-11.406c-6.49,1.638-20.886,12.707-21.32,19.362
		C183.958,179.58,193.111,173.796,207.234,169.744z"/>
	<path fill="#F7E0D1" d="M204.871,166.684c0,0-2.212-3.834,0.335-8.346c-6.49,1.638-20.886,12.707-21.32,19.362
		C183.958,179.58,193.979,169.524,204.871,166.684z"/>
	<path fill="#5D544F" d="M184.392,178.5L184.392,178.5c-0.67,0-0.924-0.405-0.94-0.784c0.463-7.128,15.312-18.199,21.65-19.799
		l0.906-0.228l-0.411,0.84c-3.33,6.808,1.846,10.829,1.898,10.868l0.693,0.524l-0.835,0.239c-7.043,2.021-12.743,4.432-16.905,6.191
		C187.28,177.691,185.367,178.5,184.392,178.5z M184.327,177.629l0.065,0.002c0.799,0,2.971-0.917,5.717-2.079
		c4.036-1.706,9.512-4.021,16.263-6.011c-1.314-1.333-4.162-5.047-1.947-10.518C197.547,161.354,184.85,171.625,184.327,177.629z"/>
	<path fill="#B9A89D" d="M215.012,183.718c0,0-7.257-2.11-5.772-10.684c-8.354,5.823-14.254,15.244-11.609,17.904
		C198.717,192.03,202.808,187.565,215.012,183.718z"/>
	<path fill="#F7E0D1" d="M211.367,181.383c0,0-3.178-2.883-2.127-8.349c-8.354,5.823-14.254,15.244-11.609,17.904
		C198.717,192.03,199.161,185.231,211.367,181.383z"/>
	<path fill="#5D544F" d="M198.075,191.54L198.075,191.54c-0.305,0-0.556-0.101-0.751-0.296c-0.594-0.596-0.844-1.465-0.745-2.58
		c0.388-4.314,5.956-11.485,12.413-15.984l0.853-0.595l-0.177,1.025c-1.397,8.075,5.186,10.11,5.468,10.193l1.366,0.401
		l-1.357,0.429c-6.872,2.167-11.196,4.551-13.779,5.975C199.747,191,198.768,191.54,198.075,191.54z M208.673,173.975
		c-6.572,4.849-10.92,11.337-11.229,14.767c-0.076,0.847,0.091,1.483,0.495,1.89c0.013,0.014,0.04,0.039,0.136,0.039
		c0.47,0,1.477-0.556,2.87-1.324c2.47-1.362,6.513-3.591,12.826-5.683C211.819,182.68,208.065,179.982,208.673,173.975z"/>
	<path fill="#3A3C47" d="M338.694,108.832c-1.157-30.094,18.52-54.399,49.771-56.715c31.25-2.314,71.76,3.907,74.076,117.119
		c16.204,8.464,68.998,15.987,56.779,54.761c-5.853,18.519-29.975,42.697-29.975,42.697s-7.129-15.762-11.071-25.191
		c0-6.727,1.409-14.105,1.409-14.105s-4.774-0.867-7.594-3.473c12.586,41.885,37.9,71.25,31.604,103.084
		c-6.438,32.554-44.192,44.755-77.07,22.462c-20.016-4.833-41.667,0.761-41.667,0.761s-21.525,12.315-43.369,5.099
		c-21.845-7.214-46.696-50.233-26.621-109.92C339.274,173.143,338.694,108.832,338.694,108.832z"/>
	<path fill="#494C57" d="M478.274,241.503c0.035,0.091,0.076,0.185,0.115,0.275c-0.039-0.099-0.077-0.194-0.115-0.292V241.503z"/>
	<path fill="#3A3C47" d="M519.32,223.997c12.033-38.183-38.979-46.061-56.012-54.375c-0.309,18.85,1.189,38.859,9.237,55.763
		c-0.153-0.488-0.309-0.971-0.456-1.461c2.819,2.605,7.594,3.473,7.594,3.473s-1.408,7.367-1.409,14.089
		c0.038,0.098,0.076,0.193,0.115,0.292c3.964,9.455,10.956,24.916,10.956,24.916S513.468,242.516,519.32,223.997z"/>
	<path fill="#494C57" d="M463.309,169.623c-0.192,11.706,0.317,23.855,2.655,35.433c1.911,7.835,8.611,13.732,17.807,12.109
		c-2.457,5.057-3.184,5.635-4.35,10.183c0.429,0.105,0.263,0.05,0.263,0.05s-1.408,7.367-1.409,14.089
		c0.038,0.098,0.076,0.193,0.115,0.292c3.964,9.455,7.239,16.626,7.239,16.626s25.858-17.3,31.71-35.819
		C529.373,184.402,480.341,177.936,463.309,169.623z"/>
	<path fill="#535660" d="M463.309,169.623c-0.192,11.706-0.479,19.474,1.859,31.052c1.911,7.834,15.133,13.339,21.199,13.339
		c-2.456,5.057-5.78,8.786-6.946,13.334c0.429,0.105,0.263,0.05,0.263,0.05s-1.408,7.367-1.409,14.089
		c0.038,0.098,0.076,0.193,0.115,0.292c3.964,9.455,5.068,11.977,5.068,11.977s26.363-15.355,32.504-33.784
		C527.913,184.1,480.341,177.936,463.309,169.623z"/>
	<path fill="#949594" d="M463.309,169.623c-0.031,1.798-0.061,3.496-0.084,5.138c17.821,4.447,36.802,8.447,50.783,20.408
		C499.4,179.977,475.691,175.666,463.309,169.623z"/>
	<path fill="#949594" d="M479.684,227.397v0.01V227.397z"/>
	<path fill="#494C57" d="M351.536,346.067c20.833-6.073,38.195-21.702,61.635-16.492c19.965,5.209,40.799,18.229,57.291,6.077
		c33.856-23.437,17.681-58.162-1.155-98.178c-6.037-13.38-9.55-31.167-11.287-40.715c-5.208-41.667,4.822-70.295-9.936-110.227
		c-1.309-3.928-8.143-13.333-10.026-17.243c-14.586-17.262-33.341-18.375-49.593-17.172c-31.251,2.315-50.928,26.621-49.771,56.715
		c0,0,0.58,64.311-23.727,136.578c-13.385,39.796-6.795,72.18,5.558,91.481c4.689,3.578,8.562,6.855,13.649,8.31
		C339.383,346.938,345.459,347.805,351.536,346.067z"/>
	<path fill="#535660" d="M331.571,340.86c21.702,5.207,38.193-10.417,56.425-16.495c26.909-8.679,48.364,17.005,75.273,3.114
		c19.101-10.415,20.648-40.441,11.967-56.934c-11.061-24.52-14.322-33.855-18.661-52.952c-12.154-50.349,6.97-107.17-19.968-148.442
		c-0.528-0.808-0.681-1.81-1.113-2.683c-14.178-14.556-31.715-15.485-47.029-14.352c-31.251,2.315-50.928,26.621-49.771,56.715
		c0,0,0.58,64.311-23.727,136.578c-12.492,37.144-7.582,67.822,3.17,87.443C320.936,337.714,326.146,339.123,331.571,340.86z"/>
	<path fill="#949594" d="M333.344,196.84c8.42-36.324,6.039-65.813,9.511-102.273c1.737-13.89,13.167-30.045,27.058-35.253
		c12.829-5.133,40.943-12.008,63.947,5.643c-16.06-15.482-37.545-13.42-45.395-12.839c-31.251,2.315-50.928,26.621-49.771,56.715
		c0,0,0.58,64.311-23.727,136.578c-12.286,36.529-7.735,66.798,2.646,86.454C298.875,274.125,320.936,250.363,333.344,196.84z"/>
	<path fill="#171817" d="M461.191,361.241c-11.74,0-23.753-3.929-34.747-11.367c-5.353-1.285-11.322-1.938-17.745-1.938
		c-12.505,0-22.754,2.492-23.583,2.7c-0.928,0.517-13.623,7.396-28.977,7.396c-5.148,0-10.089-0.772-14.688-2.289
		c-9.456-3.126-18.565-12.287-24.989-25.137c-6.835-13.669-16.17-42.929-1.907-85.336c24.003-71.366,23.711-135.793,23.705-136.436
		c-1.206-31.367,19.425-54.874,50.172-57.151c3.153-0.233,5.969-0.348,8.607-0.348c12.094,0,29.749,2.1,43.416,20.249
		c14.169,18.817,21.534,50.674,22.514,97.383c3.253,1.662,7.895,3.287,13.253,5.163c21.255,7.442,53.378,18.689,43.513,49.997
		c-5.588,17.683-27.319,40.07-29.868,42.656c9.438,20.548,18.282,39.946,14.256,60.308
		C500.02,347.839,483.168,361.241,461.191,361.241z M408.699,347.069c6.521,0,12.586,0.666,18.026,1.981l0.142,0.062
		c10.866,7.366,22.737,11.262,34.324,11.262c21.542,0,38.059-13.129,42.078-33.449c3.957-20.002-4.739-39.193-14.059-59.483
		l-1.004-2.187c-5.892-12.812-11.982-26.064-16.533-41.205l-0.459-1.522l1.169,1.077c2.698,2.49,7.334,3.358,7.378,3.365
		l0.432,0.078l-0.082,0.431c-0.015,0.071-1.393,7.354-1.403,13.938c3.489,8.34,9.466,21.628,10.771,24.52
		c3.305-3.397,24.113-25.251,29.428-42.07c9.613-30.505-22.032-41.583-42.975-48.916c-5.513-1.93-10.276-3.598-13.592-5.33
		l-0.229-0.119l-0.004-0.257c-0.942-46.014-8.461-78.695-22.35-97.139c-13.431-17.836-30.812-19.9-42.719-19.9
		c-2.617,0-5.411,0.112-8.543,0.344c-30.255,2.242-50.557,25.379-49.368,56.266c0.007,0.656,0.302,65.223-23.75,136.733
		c-14.165,42.108-4.915,71.123,1.86,84.672c6.229,12.457,15.382,21.691,24.485,24.698c4.511,1.489,9.36,2.243,14.416,2.243
		c15.644,0,28.474-7.235,28.601-7.308l0.105-0.044C384.954,349.784,395.61,347.069,408.699,347.069z M472.912,225.133
		c1.518,4.915,3.194,9.634,4.973,14.208c0.203-5.111,1.039-10.144,1.297-11.604C478.106,227.495,475.232,226.743,472.912,225.133z"
		/>
	<path fill="#171817" d="M471.69,224.095c-6.327-14.748-8.146-34.904-8.146-34.904c0.05,0.252,4.956,25.239,8.943,34.562
		L471.69,224.095z"/>
	<path fill="#171817" d="M480.111,227.481l-0.853-0.167c1.958-9.943,8.884-14.852,8.884-14.852
		C488.08,212.516,482.009,217.847,480.111,227.481z"/>
	<path fill="#686D75" d="M387.018,186.814c19.818-2.417,44.706,4.774,52.52,49.914c7.811,45.142,23.871,76.824,11.719,95.924
		c-12.154,19.098-41.234,3.474-66.41,10.852c-25.173,7.38-54.135-24.741-53.76-70.75
		C331.46,226.745,351.427,191.155,387.018,186.814z"/>
	<path fill="#7D828C" d="M387.018,186.814c19.818-2.417,44.706,4.774,52.52,49.914c7.811,45.142,19.425,70.495,7.271,89.593
		c-12.154,19.097-38.895-0.651-64.068,6.729c-25.175,7.378-52.03-14.287-51.655-60.296
		C331.46,226.745,351.427,191.155,387.018,186.814z"/>
	<path fill="#8F939E" d="M387.018,186.814c19.818-2.417,42.429,5.521,50.242,50.66c7.812,45.141,13.237,57.812,1.085,76.91
		c-12.153,19.098-30.431,4.611-55.604,11.991c-25.175,7.379-52.03-7.613-51.655-53.622
		C331.46,226.745,351.427,191.155,387.018,186.814z"/>
	<path fill="#171817" d="M377.489,344.993c-8.677,0-17.711-4.289-25.437-12.077c-13.596-13.709-21.597-36.2-21.401-60.165
		c0.189-23.255,5.316-43.595,14.824-58.821c9.946-15.924,24.292-25.449,41.488-27.546c2.256-0.276,4.493-0.414,6.651-0.414
		c17.141,0,39.1,8.793,46.35,50.684c2.485,14.364,5.834,27.473,8.791,39.038c6.284,24.595,11.248,44.02,2.864,57.192
		c-5.701,8.959-15.061,10.168-23.467,10.168c-3.898,0-7.969-0.294-12.28-0.603c-4.516-0.322-9.188-0.657-13.873-0.657
		c-6.667,0-12.079,0.674-17.031,2.127C382.539,344.632,380.023,344.993,377.489,344.993z M393.615,186.837
		c-2.123,0-4.326,0.137-6.546,0.407c-33.869,4.132-55.153,36.898-55.55,85.514c-0.193,23.738,7.713,45.997,21.15,59.546
		c7.561,7.621,16.375,11.82,24.819,11.82c2.453,0,4.887-0.351,7.237-1.039c5.032-1.475,10.521-2.162,17.274-2.162
		c4.717,0,9.402,0.337,13.936,0.661c4.293,0.309,8.349,0.6,12.218,0.598c8.169,0,17.259-1.158,22.736-9.765
		c8.18-12.855,3.501-31.166-2.976-56.51c-2.961-11.582-6.312-24.708-8.805-39.105C431.963,195.506,410.424,186.837,393.615,186.837z
		"/>
	<path fill="#171817" d="M300.827,101.322c0.228-0.073,0.468,0.081,0.527,0.314c0.058,0.233-0.083,0.47-0.316,0.527
		c-0.181,0.046-18.287,4.737-25.629,17.162C275.328,119.462,278.943,108.378,300.827,101.322z"/>
	<path fill="#171817" d="M304.357,106.562c0.21-0.117,0.476-0.018,0.582,0.196c0.106,0.215,0.018,0.475-0.198,0.582
		c-0.233,0.116-23.361,11.771-24.644,31.719C280.083,139.289,278.021,121.29,304.357,106.562z"/>
	<path fill="#171817" d="M305.06,113.583c0.13-0.202,0.406-0.248,0.604-0.113c0.198,0.136,0.248,0.406,0.11,0.605
		c-0.106,0.155-10.709,15.787-11.172,32.386C294.597,146.696,292.072,133.883,305.06,113.583z"/>
	
		<ellipse transform="matrix(-0.9697 -0.2441 0.2441 -0.9697 749.4487 294.6085)" fill="#494C57" cx="392.981" cy="100.862" rx="10.603" ry="16.341"/>
	
		<ellipse transform="matrix(-0.9697 -0.2441 0.2441 -0.9697 745.8719 300.8839)" fill="#CACACA" cx="391.581" cy="104.222" rx="9.852" ry="15.184"/>
	<path fill="#FFFFFF" d="M399.16,111.767c0.824-1.542,1.504-3.27,1.975-5.14c2.047-8.132-0.571-15.801-5.848-17.13
		c-5.276-1.328-11.214,4.187-13.26,12.32c-0.225,0.887-0.39,1.77-0.505,2.639c0.27,0.506,0.582,0.992,0.967,1.438
		C386.589,111.486,392.866,112.72,399.16,111.767z"/>
	<path fill="#171817" d="M389.477,119.671c-0.586,0-1.169-0.072-1.731-0.213c-5.551-1.397-8.347-9.371-6.231-17.771
		c1.883-7.485,7.003-12.917,12.172-12.917c0.586,0,1.169,0.072,1.729,0.213c5.552,1.397,8.349,9.37,6.233,17.771
		C399.762,114.24,394.644,119.671,389.477,119.671z M393.686,89.829c-4.617,0-9.408,5.208-11.145,12.116
		c-1.974,7.835,0.475,15.232,5.462,16.487c0.479,0.121,0.973,0.182,1.474,0.182c4.613,0,9.407-5.209,11.146-12.116
		c1.973-7.836-0.479-15.232-5.464-16.488C394.681,89.89,394.186,89.829,393.686,89.829z"/>
	
		<ellipse transform="matrix(-0.9697 -0.2442 0.2442 -0.9697 748.1075 306.4778)" fill="#2A88EC" cx="393.049" cy="106.872" rx="6.496" ry="10.011"/>
	<ellipse transform="matrix(-0.9697 -0.2443 0.2443 -0.9697 748.3372 307.7237)" cx="393.25" cy="107.46" rx="3.51" ry="5.409"/>
	<circle fill="#FFFFFF" cx="393.278" cy="101.999" r="2.222"/>
	<path fill="#FFFFFF" d="M397.827,107.87c0,0.552-0.447,1-0.999,1c-0.549,0-1-0.447-1-1c0-0.55,0.451-0.998,1-0.998
		C397.38,106.872,397.827,107.32,397.827,107.87z"/>
	<path fill="#003CD3" d="M391.662,117.24c-0.401,0-0.8-0.049-1.186-0.147c-1.863-0.468-3.323-1.998-4.111-4.306
		c-0.761-2.229-0.807-4.939-0.127-7.63c1.262-5.013,4.711-8.652,8.2-8.652c0.399,0,0.798,0.049,1.185,0.146
		c1.861,0.469,3.322,1.999,4.111,4.308c0.76,2.228,0.806,4.938,0.127,7.629C398.599,113.601,395.151,117.24,391.662,117.24z
		 M394.438,97.562c-2.962,0-6.049,3.377-7.176,7.854c-0.629,2.495-0.592,4.992,0.103,7.029c0.669,1.958,1.866,3.245,3.37,3.624
		c0.301,0.075,0.611,0.113,0.927,0.113c2.961,0,6.045-3.375,7.173-7.852c0.629-2.496,0.594-4.992-0.102-7.03
		c-0.67-1.957-1.867-3.243-3.368-3.622C395.064,97.6,394.751,97.562,394.438,97.562z"/>
	<path fill="#535660" d="M378.498,114.696c0,0-0.107,2.202,7.262,6.309c7.369,4.107,15.147,1.181,15.147,1.181
		C391.056,111.108,378.498,114.696,378.498,114.696z"/>
	<path fill="#171817" d="M400.907,122.186c-10.177-9.979-22.288-7.516-22.409-7.49c0,0,5.928-2.438,13.06,0.324
		C399.193,117.979,400.907,122.186,400.907,122.186z"/>
	
		<ellipse transform="matrix(-0.9312 -0.3645 0.3645 -0.9312 654.6286 293.1708)" fill="#494C57" cx="354.983" cy="84.803" rx="9.15" ry="14.099"/>
	
		<ellipse transform="matrix(-0.9312 -0.3646 0.3646 -0.9312 651.2476 297.003)" fill="#FFFFFF" cx="353.658" cy="87.03" rx="8.611" ry="13.273"/>
	<path fill="#171817" d="M350.129,100.194c-0.509-0.064-1.005-0.191-1.479-0.376c-4.658-1.824-6.203-9.044-3.442-16.096
		c2.459-6.282,7.498-10.427,11.979-9.857c0.508,0.064,1.005,0.191,1.478,0.376c4.66,1.823,6.204,9.044,3.445,16.096
		C359.647,96.619,354.61,100.764,350.129,100.194z M357.071,74.782c-4.001-0.509-8.732,3.478-11,9.276
		c-2.575,6.577-1.266,13.26,2.918,14.898c0.401,0.157,0.824,0.265,1.256,0.32c4.002,0.508,8.733-3.479,11.001-9.277
		c2.575-6.577,1.265-13.259-2.918-14.899C357.927,74.944,357.504,74.837,357.071,74.782z"/>
	
		<ellipse transform="matrix(-0.9312 -0.3646 0.3646 -0.9312 652.2523 302.105)" fill="#2A88EC" cx="354.641" cy="89.489" rx="5.678" ry="8.749"/>
	<ellipse transform="matrix(-0.9311 -0.3647 0.3647 -0.9311 652.2365 303.2175)" cx="354.749" cy="90.022" rx="3.069" ry="4.73"/>
	<circle fill="#FFFFFF" cx="355.374" cy="85.289" r="1.942"/>
	<circle fill="#FFFFFF" cx="357.807" cy="90.772" r="0.873"/>
	<path fill="#003CD3" d="M352.292,98.326c-0.347-0.044-0.688-0.131-1.011-0.257c-1.562-0.612-2.661-2.1-3.089-4.188
		c-0.413-2.017-0.153-4.37,0.73-6.63c1.647-4.208,5.041-6.983,8.066-6.598c0.347,0.044,0.688,0.13,1.01,0.257
		c1.564,0.612,2.661,2.1,3.09,4.188c0.414,2.017,0.154,4.371-0.73,6.629C358.71,95.936,355.317,98.711,352.292,98.326z
		 M356.871,81.571c-2.569-0.327-5.617,2.259-7.089,6.017c-0.819,2.095-1.062,4.263-0.686,6.106c0.365,1.772,1.26,3.02,2.521,3.514
		c0.252,0.099,0.52,0.166,0.791,0.201c2.569,0.327,5.617-2.261,7.089-6.019c0.819-2.094,1.062-4.263,0.685-6.106
		c-0.363-1.771-1.259-3.018-2.521-3.513C357.409,81.672,357.143,81.605,356.871,81.571z"/>
	<path fill="#535660" d="M361.555,70.588c0,0,2.351,23.978-19.277,25.664c8.102,7.333,16.328,10.446,22.356,6.198
		C379.965,91.646,361.555,70.588,361.555,70.588z"/>
	<path fill="#171817" d="M344.143,96.252l-0.087-0.864c17.961-1.81,17.505-22.612,17.498-22.821c0,0,1.022,6.94-2.154,13.266
		C356.911,90.787,352.383,95.421,344.143,96.252z"/>
	<path fill="#EC776B" d="M325.384,139.721c4.774,6.294,0.512,21.702,7.96,29.515c7.447,7.812,19.818,1.736,27.632-5.859
		c7.812-7.595,23.004-11.936,25.39-25.609c2.389-13.672-14.829-38.629-37.255-41.667c-8.101-1.52-28.357,4.339-50.236-11.864
		C285.163,92.049,303.682,131.836,325.384,139.721z"/>
	<path fill="#EC8D79" d="M349.111,96.101c-8.101-1.52-28.357,4.339-50.236-11.864c-5.832,3.323-4.984,12.649-0.415,22.877
		c10.974,23.025,37.835,39.769,78.251,25.408c-12.227,12.226-30.41,10.747-46.654,8.4l0.012,0.003
		c0.645,5.539-0.992,17.783,4.85,25.018c6.782,8.398,18.643,1.373,26.456-6.222c7.812-7.596,22.136-10.232,24.992-21.954
		C389.652,124.284,371.538,99.138,349.111,96.101z"/>
	<path fill="#ECAA8D" d="M349.111,96.101c-8.101-1.52-28.357,4.339-50.236-11.864c-4.508,2.569-4.91,8.749-2.648,16.169
		c4.499,10.474,14.969,20.24,24.111,26.945c16.495,11.285,37.191,9.012,56.29,4.672c-10.299,12.358-29.199,12.939-45.277,9.792
		c0.711,6.904-1.083,15.273,4.271,21.339c7.145,8.092,17.507,1.307,25.319-6.288c7.812-7.597,21.161-11.262,23.148-22.983
		C386.409,120.2,371.538,99.138,349.111,96.101z"/>
	<path fill="#F6D4C6" d="M376.882,112.777c-7.239-9.879-20.652-15.712-27.771-16.677c-8.101-1.52-28.357,4.339-50.236-11.864
		c-1.331,0.758-2.293,1.835-2.946,3.161c29.337,16.152,45.277,8.047,57.729,11.694C359.891,101.03,371.867,106.872,376.882,112.777z
		"/>
	<path fill="#CE5D57" d="M341.976,173.311h-0.001c-3.548,0-6.558-1.27-8.945-3.775c-4.264-4.474-4.79-11.417-5.253-17.542
		c-0.359-4.738-0.697-9.218-2.664-11.909c-15.788-5.825-30.01-28.539-31.282-43.536c-0.527-6.201,1.143-10.588,4.829-12.688
		l0.247-0.141l0.226,0.168c13.924,10.312,27.172,11.632,37.158,11.632c1.75,0,3.361-0.038,4.917-0.076
		c1.315-0.033,2.535-0.062,3.656-0.062c1.914,0,3.25,0.089,4.329,0.292c11.008,1.49,22.21,8.696,29.948,19.27
		c5.889,8.053,8.752,16.613,7.656,22.899c-1.673,9.576-9.308,14.536-16.692,19.332c-3.294,2.141-6.41,4.164-8.826,6.512
		C355.08,169.713,347.864,173.311,341.976,173.311z M298.848,84.756c-4.036,2.489-4.493,7.724-4.153,11.717
		c1.254,14.786,15.291,37.191,30.836,42.84l0.12,0.043l0.078,0.103c2.188,2.883,2.54,7.539,2.914,12.469
		c0.474,6.274,0.965,12.761,5.015,17.009c2.218,2.326,5.017,3.505,8.317,3.506h0.001c6.673,0,14.032-4.845,18.697-9.377
		c2.477-2.41,5.625-4.455,8.958-6.619c7.228-4.696,14.7-9.55,16.308-18.754c1.042-5.968-1.832-14.488-7.501-22.237
		c-7.601-10.388-18.585-17.463-29.386-18.925c-1.045-0.196-2.332-0.282-4.19-0.282c-1.113,0-2.328,0.029-3.634,0.062
		c-1.489,0.036-3.178,0.077-4.938,0.077C326.225,96.388,312.889,95.062,298.848,84.756z"/>
	<path fill="#1B0000" d="M368.788,136.357c0,0-13.781,21.702-17.797,24.414c-4.015,2.713-12.587,2.93-15.299-1.518
		c-2.713-4.45-0.759-16.276-4.558-20.509C340.25,139.612,368.788,136.357,368.788,136.357z"/>
	<path fill="#450000" d="M343.195,138.616c-4.897,0.278-9.344,0.387-12.062,0.129c3.799,4.232,1.845,16.059,4.558,20.509
		c0.577,0.945,1.429,1.668,2.434,2.212C335.942,150.042,339.048,145.438,343.195,138.616z"/>
	<path fill="#FF809E" d="M350.991,160.771c0.998-0.674,2.596-2.518,4.437-4.911c-4.018-3.708-8.848-2.901-11.164-0.515
		c-1.408-2.45-6.571-0.334-9.345,2.054c0.207,0.7,0.455,1.331,0.773,1.853C338.404,163.701,346.977,163.485,350.991,160.771z"/>
	<path fill="#FF9EB5" d="M349.961,158.6c1.229-1.049,2.84-2.951,3.325-4.263c-3.473-1.848-7.108-0.964-9.022,1.01
		c-1.352-2.353-6.159-0.495-8.999,1.771C337.466,162.721,345.709,162.002,349.961,158.6z"/>
	<ellipse fill="#FFCEDA" cx="348.389" cy="155.581" rx="1.845" ry="0.562"/>
	<circle fill="#FFCEDA" cx="342.15" cy="155.87" r="0.597"/>
	<path fill="#FF416E" d="M343.683,163.154L343.683,163.154c-3.889,0-6.937-1.339-8.361-3.675c-0.317-0.521-0.584-1.161-0.819-1.957
		l-0.08-0.269l0.212-0.183c1.877-1.615,5.013-3.25,7.373-3.25c1.002,0,1.79,0.3,2.314,0.872c1.314-1.156,3.117-1.81,5.029-1.81
		c1.591,0,3.991,0.462,6.373,2.66l0.291,0.269l-0.242,0.316c-2.091,2.718-3.576,4.355-4.537,5.005
		C349.36,162.398,346.537,163.154,343.683,163.154z M335.417,157.548c0.192,0.597,0.405,1.083,0.645,1.48
		c1.245,2.041,4.093,3.259,7.621,3.259c2.688,0,5.331-0.701,7.066-1.873c0.835-0.564,2.209-2.077,4.088-4.497
		c-2.075-1.782-4.115-2.166-5.487-2.166c-1.837,0-3.622,0.71-4.775,1.897l-0.4,0.415l-0.288-0.501
		c-0.332-0.578-0.964-0.872-1.88-0.872C339.969,154.69,337.154,156.13,335.417,157.548z"/>
	<path fill="#CE5D57" d="M343.683,163.154c-3.889,0-6.937-1.339-8.361-3.675c-1.281-2.102-1.556-5.635-1.843-9.376
		c-0.337-4.356-0.685-8.861-2.666-11.069l-0.744-0.827l1.108,0.104c1.011,0.097,2.325,0.146,3.902,0.146
		c11.333,0,33.438-2.507,33.66-2.532l0.903-0.103l-0.488,0.767c-0.565,0.89-13.875,21.81-17.919,24.542
		C349.36,162.398,346.537,163.154,343.683,163.154z M332.061,139.25c1.647,2.564,1.969,6.738,2.283,10.788
		c0.28,3.633,0.544,7.065,1.718,8.99c1.246,2.041,4.094,3.259,7.621,3.259c2.688,0,5.331-0.701,7.066-1.873
		c3.473-2.348,14.697-19.654,17.183-23.524c-4.292,0.471-22.783,2.436-32.85,2.436h-0.001
		C333.934,139.325,332.923,139.3,332.061,139.25z"/>
	<path fill="#EC776B" d="M325.384,139.721c37.762,10.635,51-7.379,51-7.379s-22.187-4.475-34.106-2.513
		C327.447,132.271,325.384,139.721,325.384,139.721z"/>
	<path fill="#EC8D79" d="M376.168,132.557l0.215-0.214c0,0-22.187-4.475-34.106-2.513c-6.643,1.093-10.718,3.191-13.201,5.175
		C345.856,139.9,365.209,139.954,376.168,132.557z"/>
	<path fill="#ECAA8D" d="M376.168,132.124c-5.752-2.532-24.344-4.726-34.668-3.027c-4.413,0.727-9.343,1.562-9.343,3.914
		C346.574,135.955,362.519,136.544,376.168,132.124z"/>
	<path fill="#CE5D57" d="M377.083,132.458c-1.789-1.903-3.935-1.798-3.935-1.798c0.021,0.007,1.302,0.416,2.648,1.713
		c-1.91,2.222-15.912,16.613-50.295,6.93l-0.235,0.837c8.562,2.411,15.883,3.343,22.09,3.343c18.739,0,27.297-8.494,29.035-10.472
		c0.843,0.986,1.644,2.344,2.102,4.209C378.492,137.22,378.773,134.257,377.083,132.458z"/>
	<path fill="#171817" d="M362.313,127.088c-5.334-12.351-33.077-15.336-33.357-15.365c-0.238-0.025-0.412-0.237-0.387-0.477
		c0.023-0.238,0.242-0.42,0.475-0.387C361.711,115.485,362.382,127.253,362.313,127.088z"/>
	<path fill="#171817" d="M346.361,156.424c0.426-22.507-26.443-40.541-26.714-40.72c-0.201-0.133-0.255-0.401-0.124-0.602
		c0.133-0.201,0.406-0.261,0.602-0.122C350.234,136.206,346.358,156.663,346.361,156.424z"/>
	<path fill="#171817" d="M324.377,162.649c5.247-31.278-11.84-46.829-12.012-46.981c-0.18-0.159-0.196-0.434-0.037-0.613
		c0.158-0.18,0.444-0.209,0.611-0.037C332.157,134.692,324.337,162.885,324.377,162.649z"/>
	<path fill="#2D2E2D" d="M312.093,101.257c3.19-4.707-1.198-14.95-10.43-19.013c-9.233-4.063-18.201,4.712-13.148,12.838
		C293.567,103.207,307.867,107.494,312.093,101.257z"/>
	<path fill="#3C3D3C" d="M301.663,82.245c-5.319-2.34-10.544-0.417-13.057,3.184c-1.271,2.703-1.917,5.692,0.986,8.425
		c4.929,4.641,11.098,8.72,20.858,6.602c2.39-0.543,2.676-1.974,2.632-3.838C312.641,91.599,308.471,85.241,301.663,82.245z"/>
	<path fill="#464746" d="M289.194,90.163c3.477,4.239,12.469,11.322,22.576,8.123c0.639-0.213,1.301-1.497,1.188-2.608
		c-0.841-4.849-4.905-10.62-11.295-13.433c-4.928-2.168-9.771-0.674-12.456,2.422C288.167,86.116,287.908,88.57,289.194,90.163z"/>
	<ellipse fill="#616161" cx="296.094" cy="86.178" rx="4.588" ry="1.774"/>
	<path fill="#676867" d="M303.155,84.756c4.812,2.625,8.167,6.524,9.703,11.961c0.09-0.339,0.136-0.696,0.101-1.04
		c-0.841-4.849-4.905-10.62-11.295-13.433c-4.928-2.168-9.771-0.674-12.456,2.422c-0.405,0.564-0.689,1.283-0.812,2.042
		C292.028,82.432,297.928,82.144,303.155,84.756z"/>
	<path fill="#161716" d="M305.283,104.65h-0.001c-6.341,0-13.862-4.106-17.121-9.348c-1.873-3.012-2.022-6.404-0.408-9.308
		c1.78-3.203,5.298-5.193,9.182-5.193c1.647,0,3.294,0.357,4.894,1.062c6.472,2.847,10.038,8.232,11.214,12.32
		c0.835,2.901,0.622,5.497-0.605,7.307C311.036,103.559,308.562,104.65,305.283,104.65z M296.935,81.636
		c-3.581,0-6.821,1.825-8.453,4.764c-1.463,2.631-1.322,5.715,0.387,8.461c3.122,5.022,10.332,8.956,16.413,8.956h0.001
		c2.085,0,4.9-0.484,6.464-2.794c1.085-1.602,1.262-3.948,0.496-6.607c-1.414-4.911-5.634-9.539-10.75-11.79
		C300,81.968,298.467,81.636,296.935,81.636z"/>
	<path d="M412.048,84.236c0,0-1.304-7.813-7.526-11.429c-1.444-1.013-2.459,1.301-1.444,1.736
		C404.09,74.977,409.153,77.871,412.048,84.236z"/>
	<path d="M359.788,70.071c0,0,5.024-6.123,12.219-6.155c1.76-0.156,1.485,2.355,0.39,2.226
		C371.303,66.012,365.47,65.996,359.788,70.071z"/>
</g>
</svg>
