<?xml version="1.0" encoding="utf-8"?>
<!-- Generator: Adobe Illustrator 16.0.0, SVG Export Plug-In . SVG Version: 6.00 Build 0)  -->
<!DOCTYPE svg PUBLIC "-//W3C//DTD SVG 1.1//EN" "http://www.w3.org/Graphics/SVG/1.1/DTD/svg11.dtd">
<svg version="1.1" id="Layer_1" xmlns="http://www.w3.org/2000/svg" xmlns:xlink="http://www.w3.org/1999/xlink" x="0px" y="0px"
	 width="768px" height="430px" viewBox="0 0 768 430" enable-background="new 0 0 768 430" xml:space="preserve">
<g>
	<path fill="#2B0F0E" d="M275.647,293.15c0,0-6.856,1.939,1.163,9.959c34.792,0.127,49.409-27.68,40.096-34.018
		C307.595,262.754,279.269,279.697,275.647,293.15z"/>
	<path fill="#C99B89" d="M329.074,234.885c3.147-16.062,17.409-68.195,43.557-106.519c26.15-38.322,66.215-75.979,81.18-69.964
		c14.968,6.013-17.407,61.357-40.506,90.396c-23.099,29.04-69.133,80.01-80.73,87.565
		C329.703,238.473,329.074,234.885,329.074,234.885z"/>
	<path fill="#D8AEA3" d="M376.996,170.96l-5.413,5.212c-1.938,4.013-24.091,43.529-29.46,48.078
		c6.14-5.273,19.875-18.862,19.875-18.862C362.963,199.958,374.062,176.641,376.996,170.96z"/>
	<path fill="#D8AEA3" d="M421.7,132.146c-5.352,4.241-31.082,24.147-33.718,27.72c-4.371,7.562-13.991,27.41-15.214,32.187
		C380.347,183.585,420.634,136.076,421.7,132.146z"/>
	<path fill="#D8AEA3" d="M449.374,83.947c-4.23,2.726-25.452,20.133-27.66,22.353c-2.685,4.753-9.618,22.671-9.902,27.038
		c6.496-4.481,16.358-12.486,18.832-14.065C434.384,114.153,448.73,86.975,449.374,83.947z"/>
	<path fill="#D8AEA3" d="M442.092,62.419c0.252,4.267-3.37,19.239-5.548,24.247c4.386-4.696,14.081-10.319,17.201-11.856
		C456.322,65.916,454.361,56.122,442.092,62.419z"/>
	<path fill="#D8AEA3" d="M435.024,66.656c-0.925,7.277-6.881,25.972-8.914,28.562c-5.283,4.804-22.172,19.049-22.172,19.049
		c4.733-8.09,13.117-28.867,13.063-33.255C420.71,76.327,431.186,68.624,435.024,66.656z"/>
	<path fill="#D8AEA3" d="M408.294,90.069c-2.234,8.477-18.934,45.331-22.555,51.178c0.348-7.337-1.044-20.121-1.344-24.625
		C389.404,109.541,404.781,91.351,408.294,90.069z"/>
	<path fill="#D8AEA3" d="M411.892,114.517c-2.331,4.451-7.203,18.195-6.948,24.417c-5.086,4.391-22.877,19.751-22.877,19.751
		c4.373-6.708,13.194-24.577,14.283-27.312C399.481,127.216,411.892,114.517,411.892,114.517z"/>
	<path fill="#D8AEA3" d="M379.994,122.269c0.197,2.712,0.132,12.489-0.441,15.555c-2.539,5.126-17.628,28.014-17.628,28.014
		c1.136-5.705,2.26-15.724,1.9-18.824C366.998,140.9,377.186,125.318,379.994,122.269z"/>
	<path fill="#D8AEA3" d="M379.318,148.014c0.067,2.727-1.967,9.62-1.967,9.62c-1.572,3.182-21.084,36.946-21.084,36.946
		c1.721-5.177,2.872-16.178,2.872-16.178C360.987,175.364,376.989,152.055,379.318,148.014z"/>
	<path fill="#D8AEA3" d="M357.036,160.941c-0.429,7.264-6.608,39.924-9.465,45.612c-2.855,5.684-14.909,23.505-14.992,22.824
		c2.781-9.367,5.485-21.518,7.812-27.09C342.716,196.715,352.764,168.381,357.036,160.941z"/>
	<path fill="#E8CEC8" d="M444.561,61.241c0.911,0.631-34.651,26.941-64.533,70.077c-29.882,43.138-42.761,86.77-43.672,86.14
		s9.435-46.238,39.314-89.376C405.55,84.944,443.652,60.611,444.561,61.241z"/>
	<path fill="#B27866" d="M331.191,237.4c-1.604,0.193-2.337-1.52-2.499-2.451l-0.014-0.07l0.015-0.07
		c3.268-16.676,17.471-68.341,43.618-106.661c21.982-32.218,57.363-68.394,76.192-70.663c2.079-0.25,3.912-0.063,5.452,0.555
		c1.856,0.747,3.091,2.233,3.669,4.421c3.841,14.53-23.049,60.218-44.017,86.579c-24.16,30.374-69.389,80.197-80.822,87.646
		C332.229,237.096,331.688,237.338,331.191,237.4z M329.469,234.881c0.077,0.34,0.486,1.887,1.627,1.748
		c0.364-0.045,0.783-0.236,1.248-0.58c11.095-7.229,56.824-57.529,80.656-87.492c20.867-26.233,47.652-71.601,43.875-85.896
		c-0.52-1.966-1.569-3.241-3.208-3.9c-1.419-0.568-3.124-0.739-5.07-0.505c-16.616,2.002-50.551,33.552-75.646,70.328
		C346.919,166.74,332.756,218.17,329.469,234.881z"/>
	<path fill="#B27866" d="M330.294,236.926l-0.587-0.508c11.765-13.566,31.707-45.068,50.803-80.256
		c19.803-36.491,32.577-65.823,33.338-76.546l0.775,0.054c-0.779,10.992-13.277,39.726-33.433,76.863
		C362.071,191.766,342.091,223.32,330.294,236.926z"/>
	<path fill="#B27866" d="M370.642,175.43l-0.596-0.496c21.068-25.337,61.759-53.189,62.167-53.466l0.438,0.641
		C432.243,122.386,391.642,150.177,370.642,175.43z"/>
	<path fill="#B27866" d="M348.826,211.31l-0.717-0.299c9.94-23.912,13.061-64.115,13.09-64.518l0.774,0.057
		C361.944,146.955,358.813,187.281,348.826,211.31z"/>
	<path fill="#B27866" d="M365.068,205.018l-0.742-0.225c4.64-15.25,20.835-45.522,20.998-45.828l0.683,0.365
		C385.845,159.634,369.686,189.842,365.068,205.018z"/>
	<path fill="#B27866" d="M395.231,129.489l-0.604-0.49c21.134-26.108,60.342-52.488,60.733-52.751l0.433,0.645
		C455.401,77.156,416.288,103.471,395.231,129.489z"/>
	<path fill="#B27866" d="M428.588,97.244l-0.649-0.427c8.856-13.5,11.494-35.91,11.519-36.136l0.771,0.088
		C440.204,60.997,437.543,83.591,428.588,97.244z"/>
	<path fill="#B27866" d="M379.864,158.951l-0.741-0.227c4.63-15.145,2.717-43.254,2.697-43.538l0.773-0.053
		C382.614,115.416,384.536,143.671,379.864,158.951z"/>
	<path fill="#B27866" d="M407.854,140.425l-0.772-0.058c1.11-14.562,11.963-35.901,12.071-36.113l0.69,0.352
		C419.735,104.819,408.955,126.018,407.854,140.425z"/>
	<path fill="#B27866" d="M358.064,176.277l-0.57-0.528c7.244-7.796,24.39-36.866,24.563-37.159l0.669,0.394
		C382.554,139.279,365.363,168.42,358.064,176.277z"/>
	<path fill="#F4F0B6" d="M290.908,302.57c0,0,1.488-7.502,2.198-9.248c1.747,0.066,6.821,2.518,7.567,3.041
		c0.648-2.33,1.618-8.148,1.618-8.148c2.295,0,6.66,0.646,7.824,0.971c0.194-2.586,2.199-9.312,2.199-9.312
		c1.682,1.229,5.886,3.428,5.95,3.619c0,2.588-6.402,14.875-9.701,17.203C305.266,303.023,291.944,304.512,290.908,302.57z"/>
	<path fill="#FBFAE7" d="M303.456,290.82c-0.131,0.777-2.185,3.395-2.782,5.543l-0.109-0.068c0.468,2.221,0.461,4.441,0.394,6.666
		c2.792-0.432,5.473-1.107,7.011-1.91C307.553,296.318,307.186,294.051,303.456,290.82z"/>
	<path fill="#FBFAE7" d="M290.908,302.57c0.398,0.746,2.608,0.982,5.363,0.865c-0.151-3.67-1.057-7.25-3.196-10.023
		C292.352,295.293,290.908,302.57,290.908,302.57z"/>
	<path fill="#B7B489" d="M294.989,303.854c-3.836,0-4.278-0.826-4.423-1.102l-0.066-0.119l0.029-0.137
		c0.061-0.309,1.501-7.561,2.22-9.318l0.101-0.254l0.271,0.01c1.622,0.062,5.786,1.992,7.307,2.832
		c0.628-2.521,1.47-7.561,1.479-7.615l0.055-0.324h0.329c2.12,0,5.897,0.535,7.484,0.877c0.351-2.83,2.089-8.68,2.167-8.941
		l0.157-0.527l0.443,0.324c0.934,0.682,2.726,1.707,4.035,2.455c1.925,1.1,1.987,1.152,2.055,1.357l0.02,0.121
		c0,2.564-6.406,15.078-9.865,17.52C306.484,302.639,299.603,303.854,294.989,303.854z M291.323,302.479
		c0.312,0.295,1.411,0.598,3.666,0.598c4.406,0,11.198-1.178,13.351-2.697c3.158-2.23,9.254-13.943,9.527-16.709
		c-0.288-0.189-1.018-0.607-1.675-0.982c-1.203-0.686-2.657-1.52-3.657-2.188c-0.469,1.617-1.875,6.611-2.033,8.713l-0.034,0.473
		l-0.457-0.127c-1.051-0.293-5.066-0.896-7.393-0.951c-0.216,1.271-1.006,5.83-1.57,7.859l-0.146,0.529l-0.449-0.316
		c-0.673-0.469-5.222-2.668-7.086-2.943C292.708,295.641,291.537,301.416,291.323,302.479z"/>
	<path fill="#F4F0B6" d="M278.486,292.611c0.846,1.422,5.632,4.59,10.417,4.396c1.228-2.133,0.776-8.793,0.582-10.346
		c1.811,2.004,6.402,4.535,8.472,5.18c1.681-2.203,2.845-9.836,2.845-11.58c1.616,1.809,5.497,3.814,6.726,4.33
		c1.94-3.297,2.781-14.357,1.552-16.168C305.458,266.809,281.972,279.031,278.486,292.611z"/>
	<path fill="#FBFAE7" d="M278.486,292.611c0.837,1.408,5.536,4.521,10.272,4.396c-1.106-4.555-3.627-8.094-6.725-11.447
		C280.37,287.822,279.106,290.193,278.486,292.611z"/>
	<path fill="#FBFAE7" d="M285.741,281.305c1.604,1.545,2.882,3.396,3.853,5.469c1.835,1.945,5.826,0.77,7.913,1.459
		c-0.33-5.691-2.618-7.385-5.508-12.193C289.808,277.627,287.665,279.398,285.741,281.305z"/>
	<path fill="#FBFAE7" d="M296.776,272.906c2.127,2.127,2.055,3.461,3.996,5.207c0.871,0.777,2.036,1.684,2.036,1.648
		c1.616,1.812,2.845,1.324,4.075,1.846c0.452-4.498,3.239-9.701-0.194-13.938C305.023,268.414,298.676,271.781,296.776,272.906z"/>
	<path fill="#B7B489" d="M288.481,297.404c-4.636,0-9.388-3.018-10.329-4.594l-0.082-0.139l0.041-0.156
		c3.332-12.982,24.623-24.623,30.113-24.623c0.409,0,0.751,0.061,1.016,0.18l0.1,0.045l0.063,0.092
		c1.397,2.059,0.348,13.371-1.539,16.58l-0.172,0.293l-0.314-0.133c-1.108-0.465-4.355-2.121-6.239-3.811
		c-0.243,2.611-1.307,8.883-2.874,10.938l-0.164,0.215l-0.258-0.08c-1.864-0.58-5.708-2.643-7.872-4.535
		c0.186,2.41,0.376,7.605-0.732,9.525l-0.105,0.188l-0.214,0.01C288.773,297.402,288.627,297.404,288.481,297.404z M278.904,292.545
		c0.969,1.344,5.271,4.084,9.577,4.084h0.184c0.996-2.121,0.67-8.045,0.437-9.918l-0.153-1.225l0.826,0.918
		c1.654,1.828,5.884,4.223,8.032,4.977c1.507-2.344,2.609-9.371,2.609-11.119v-1.02l0.677,0.758c1.45,1.623,4.838,3.438,6.265,4.092
		c1.705-3.426,2.461-13.467,1.461-15.35c-0.156-0.049-0.358-0.074-0.596-0.074C302.894,268.668,282.294,279.936,278.904,292.545z"/>
	<path fill="#542E2C" d="M265.85,243.301c-6.111,2.619-15.424,10.865-15.812,16.199c-0.388,5.336,4.753,14.744,11.64,14.455
		C268.178,270.559,268.856,245.629,265.85,243.301z"/>
	<path fill="#603939" d="M262.055,247.18c-4.271,2.258-10.363,7.641-10.562,12.494s2.466,7.969,6.859,8.408
		C262.842,264.738,264.179,247.566,262.055,247.18z"/>
	<path fill="#2B0F0E" d="M261.367,274.35h-0.001c-2.518,0-4.99-1.227-7.146-3.547c-2.898-3.117-4.819-7.883-4.568-11.33
		c0.414-5.686,10.019-13.947,16.046-16.529l0.209-0.09l0.181,0.139c1.815,1.404,2.188,8.971,1.619,15.373
		c-0.361,4.061-1.654,13.742-5.848,15.934l-0.165,0.043C261.585,274.348,261.476,274.35,261.367,274.35z M265.768,243.758
		c-5.889,2.633-14.967,10.602-15.343,15.771c-0.236,3.252,1.599,7.773,4.365,10.748c1.398,1.502,3.675,3.293,6.577,3.295h0.001
		l0.206-0.002c2.638-1.467,4.637-7.158,5.36-15.273C267.584,250.986,266.869,245.072,265.768,243.758z"/>
	<path fill="#D8D8D8" d="M300.479,301.699c-1.551,6.207,0.97,17.459,6.597,21.533c5.626,4.074,21.147,0.775,20.176-7.857
		c2.716-3.299,2.416-10.09,0.043-12.125c0.927-3.299,0.636-9.992-1.887-11.061C321.53,291.705,302.614,296.846,300.479,301.699z"/>
	<path fill="#F0ECEC" d="M306.3,319.061c5.296,5.295,15.105,4.377,20.766-1.305c0.162-0.607,0.244-1.25,0.213-1.928
		c-5.146,2.947-11.615,4.045-16.323,0.904c7.583,1.264,15.165-2.617,18.139-9.131c-0.197-1.742-0.751-3.289-1.616-4.164
		c-3.371,5.436-10.161,9.02-16.523,7.863c8.714-0.672,16.84-9.447,15.396-18.324c-0.272-0.357-0.582-0.633-0.942-0.787
		c-3.879-0.484-22.796,4.656-24.93,9.51c-0.657,2.629-0.576,6.162,0.155,9.676C301.779,314.555,303.666,317.305,306.3,319.061z"/>
	<path fill="#ADADAD" d="M313.764,325.354h-0.001c-2.848,0-5.303-0.643-6.914-1.807c-5.577-4.039-8.371-15.441-6.746-21.943
		c2.238-5.1,20.142-9.832,24.708-9.832c0.245,0,0.462,0.012,0.648,0.033l0.103,0.029c2.744,1.16,3.033,7.873,2.17,11.289
		c2.278,2.275,2.63,8.91-0.078,12.369c0.181,1.979-0.44,3.777-1.844,5.348C323.359,323.582,318.63,325.354,313.764,325.354z
		 M324.811,292.549c-4.841,0-22.057,4.945-23.977,9.303c-1.546,6.211,1.121,17.193,6.469,21.064c1.48,1.072,3.772,1.662,6.459,1.662
		h0.001c4.584,0,9.192-1.709,11.466-4.254c1.291-1.443,1.841-3.094,1.638-4.904l-0.02-0.166l0.105-0.125
		c2.607-3.168,2.276-9.709,0.091-11.586l-0.188-0.162l0.066-0.236c0.928-3.307,0.551-9.57-1.616-10.576
		C325.162,292.555,324.996,292.549,324.811,292.549z"/>
	<path fill="#ADADAD" d="M311.556,311.592c0.119,0.002,11.789,0.457,15.38-8.488l0.721,0.291c-1.429,3.557-4.049,5.711-6.767,7.01
		C317.081,312.225,311.556,311.592,311.556,311.592z"/>
	<path fill="#ADADAD" d="M313.604,318.287c0.091,0.006,9.106,0.613,13.679-3.586l0.524,0.572c-2.109,1.938-5.03,2.91-7.681,3.389
		C318.114,319.025,313.604,318.287,313.604,318.287z"/>
	<path fill="#4D0000" d="M559.41,126.612c1.456,14.349-27.671,51.212-66.643,74.094c-45.106,26.487-89.021,35.19-97.557,20.349
		c-8.537-14.842,20.563-49.341,66.643-74.094C502.638,125.052,544.933,116.516,559.41,126.612z"/>
	<path fill="#630000" d="M410.289,216.627c34.146,6.982,62.083-11.643,90.021-28.716c22.504-13.191,53.545-32.593,47.338-58.978
		c-0.43-2.578-4.188-4.917-8.907-6.49c-19.943,0.669-48.771,9.414-76.887,24.518c-28.94,15.545-51.179,34.932-61.606,50.884
		C399.983,206.588,402.68,214.834,410.289,216.627z"/>
	<path fill="#7F0B0B" d="M540.994,148.722c-1.302,11.641-59.31,57.814-101.215,64.023
		C459.761,203.044,532.402,157.258,540.994,148.722z"/>
	<path fill="#200000" d="M413.854,228.652c-9.631,0-16.192-2.561-18.979-7.402c-1.795-3.119-2.02-7.099-0.672-11.826
		c5.271-18.474,33.015-44.299,67.467-62.806c28.258-15.181,58.72-24.608,79.499-24.608c8.174,0,14.386,1.44,18.462,4.284
		l0.146,0.102l0.019,0.176c1.52,14.965-29.021,52.267-66.832,74.468C463.961,218.072,433.646,228.652,413.854,228.652z
		 M541.169,122.787c-20.659,0-50.98,9.393-79.132,24.515c-34.282,18.415-61.869,44.048-67.088,62.335
		c-1.289,4.516-1.088,8.294,0.599,11.226c2.64,4.586,8.968,7.014,18.306,7.014c19.664,0,49.826-10.541,78.717-27.505
		c37.43-21.978,67.709-58.686,66.471-73.543C555.093,124.146,549.084,122.787,541.169,122.787z"/>
	<path fill="#442221" d="M559.41,126.612c-9.435,17.454-136.354,100.992-164.199,94.443c-8.537-14.842,20.563-49.341,66.643-74.094
		C502.638,125.052,544.933,116.516,559.41,126.612z"/>
	<path fill="#542E2C" d="M431.087,166.683c-8.253,6.296-15.373,12.721-21.116,18.93c9.061,3.329,17.724,8.526,25.151,14.716
		c5.433,4.655,18.624-2.329,20.953-9.312C456.466,183.5,444.156,169.035,431.087,166.683z"/>
	<path fill="#603939" d="M431.824,168.121c3.782,0.776,18.654,10.195,21.05,17.417c2.396,7.22-7.642,14.886-14.491,11.976
		c-6.85-2.91-18.006-12.472-25.185-13.558C415.939,180.078,427.071,169.385,431.824,168.121z"/>
	<path fill="#542E2C" d="M464.183,145.725c-0.776,0.408-1.555,0.818-2.329,1.235c-8.781,4.716-16.933,9.79-24.335,15.011
		c9.768,3.326,19.127,10.404,25.541,18.956c5.433,6.984,20.39,0.831,22.506-7.76C488.088,162.918,476.258,149.696,464.183,145.725z"
		/>
	<path fill="#603939" d="M463.06,147.907c5.626,1.202,17.751,11.085,19.691,18.173c1.94,7.086-5.919,15.853-14.162,13.682
		c-8.244-2.17-13.486-16.728-27.6-19.713C443.562,157.646,459.644,148.742,463.06,147.907z"/>
	<path fill="#542E2C" d="M496.033,132.095c-8.962,3.123-17.069,6.247-26.419,10.868c9.121,4.139,15.857,12.685,25.263,18.563
		c8.535,6.207,24.057-1.552,21.729-13.194C509.445,139.492,505.556,134.347,496.033,132.095z"/>
	<path fill="#603939" d="M495.266,133.268c5.044,1.389,15.132,10.312,17.267,15.454c2.134,5.142-5.239,13.386-12.417,11.253
		c-7.179-2.135-17.364-14.356-26.192-17.656C476.64,139.797,490.026,134.5,495.266,133.268z"/>
	<path fill="#542E2C" d="M524.013,124.112c-6.445,1.16-13.395,2.897-20.654,5.182c7.15,3.439,12.922,9.481,19.455,14.384
		c4.657,3.103,13.971-0.776,13.971-6.209C535.28,132.273,529.887,126.411,524.013,124.112z"/>
	<path fill="#603939" d="M522.621,125.57c4.009,1.423,10.104,6.531,11.356,10.023c1.254,3.493-3.92,8.019-8.511,6.466
		c-4.592-1.553-13.192-11.188-17.656-12.933C512.019,127.187,519.841,125.571,522.621,125.57z"/>
	<path fill="#542E2C" d="M547.804,129.661c-0.051-0.243-0.099-0.485-0.156-0.728c-0.43-2.578-4.188-4.917-8.907-6.49
		c-2.778,0.093-5.754,0.364-8.854,0.767c3.93,2.59,7.394,6.228,11.553,8.827C543.587,133.468,546.062,132.091,547.804,129.661z"/>
	<path fill="#603939" d="M538.845,123.306c2.788,1.036,6.929,3.687,7.058,4.721s-1.23,3.557-4.141,2.457
		c-2.909-1.099-6.445-5.429-8.987-6.58C534.051,123.12,538.845,123.306,538.845,123.306z"/>
	<path fill="#542E2C" d="M407.82,187.996c-2.961,3.382-5.503,6.683-7.573,9.849c-0.22,7.235,1.6,14.119,6.542,17.297
		c0.901,0.12,1.812,0.114,2.724-0.069c6.209-1.551,13.703-4.101,15.521-10.088C427.096,198.194,416.972,189.052,407.82,187.996z"/>
	<path fill="#FFFFFF" d="M427.637,202.811c3.701-2.094,8.042-0.115,10.746,5.393c-1.859,0.89-6.708,3.137-6.708,3.137
		C431.091,209.708,429.932,206.536,427.637,202.811z"/>
	<path fill="#ADADAD" d="M431.454,211.872l-0.146-0.398c-0.5-1.4-1.673-4.682-4.001-8.458l-0.212-0.343l0.351-0.198
		c1.017-0.577,2.09-0.867,3.187-0.867c3.143,0,6.094,2.343,8.098,6.427l0.173,0.353l-0.354,0.168
		c-1.86,0.892-6.711,3.139-6.711,3.139L431.454,211.872z M428.184,202.961c2.033,3.375,3.158,6.315,3.714,7.849
		c1.099-0.508,4.278-1.985,5.961-2.784c-1.861-3.592-4.479-5.643-7.226-5.643C429.798,202.382,428.975,202.576,428.184,202.961z"/>
	<path fill="#FFFFFF" d="M466.967,193.04l-5.509,3.11c-0.627-1.547-2.812-6.665-4.992-9.825
		C458.209,184.371,463.696,185.85,466.967,193.04z"/>
	<path fill="#ADADAD" d="M461.263,196.705l-0.166-0.409c-0.259-0.638-2.593-6.332-4.95-9.749l-0.172-0.252l0.202-0.228
		c0.527-0.592,1.353-0.918,2.322-0.918c2.641,0,6.394,2.39,8.822,7.729l0.146,0.325L461.263,196.705z M456.973,186.381
		c2.066,3.097,4.062,7.74,4.677,9.215l4.814-2.717c-2.283-4.801-5.624-6.954-7.965-6.954
		C457.882,185.925,457.352,186.085,456.973,186.381z"/>
	<path fill="#FFFFFF" d="M498.107,174.128l-5.463,3.475c-1.011-2.462-4.637-9.89-6.42-12.507
		C489.152,162.834,494.693,165.727,498.107,174.128z"/>
	<path fill="#ADADAD" d="M492.461,178.179l-0.177-0.43c-1.04-2.537-4.648-9.896-6.381-12.434l-0.206-0.303l0.29-0.224
		c0.706-0.545,1.537-0.819,2.473-0.819c2.739,0,7.002,2.621,10.007,10.012l0.121,0.3L492.461,178.179z M486.757,165.198
		c1.727,2.675,4.881,9.07,6.066,11.832l4.802-3.055c-2.672-6.374-6.511-9.23-9.165-9.23
		C487.829,164.745,487.259,164.897,486.757,165.198z"/>
	<path fill="#FFFFFF" d="M528.205,153.679l-6.26,4.461c-1.077-2.237-4.919-9.567-8.126-13.262
		C517.673,142.077,525.155,146.218,528.205,153.679z"/>
	<path fill="#ADADAD" d="M521.794,158.724l-0.199-0.415c-1.087-2.26-4.902-9.531-8.067-13.177l-0.278-0.319l0.343-0.248
		c0.871-0.633,1.918-0.956,3.115-0.956c4.449,0,9.545,4.267,11.856,9.923l0.116,0.283L521.794,158.724z M514.401,144.963
		c2.982,3.59,6.418,10.022,7.69,12.595l5.636-4.015c-2.461-5.739-7.499-9.158-11.021-9.158
		C515.837,144.385,515.064,144.579,514.401,144.963z"/>
	<path fill="#FFFFFF" d="M546.96,139.244c0,0-4.803,3.911-5.279,4.286c-1.846-3.704-4.562-8.343-6.652-10.615
		C537.705,130.581,544.431,135.056,546.96,139.244z"/>
	<path fill="#ADADAD" d="M541.547,144.13l-0.213-0.426c-1.69-3.387-4.43-8.177-6.591-10.525l-0.271-0.292l0.3-0.263
		c0.562-0.49,1.289-0.737,2.168-0.737c3.451,0,8.312,3.779,10.352,7.159l0.175,0.29l-0.262,0.212
		c-0.195,0.16-4.811,3.917-5.284,4.291L541.547,144.13z M535.605,132.979c2.07,2.393,4.562,6.704,6.207,9.949
		c1.041-0.842,3.773-3.065,4.638-3.768c-2.183-3.379-6.714-6.499-9.51-6.499C536.419,132.662,535.972,132.77,535.605,132.979z"/>
	<path fill="#603939" d="M408.252,189.559c3.686,1.262,13.871,6.412,13.969,12.277c0.097,5.864-9.604,10.82-13.969,9.504
		c-4.365-1.313-6.888-10.478-6.499-12.442C402.14,196.933,405.729,191.598,408.252,189.559z"/>
	<path fill="#2B0F0E" d="M398.759,221.809c-1.354,0-2.578-0.127-3.636-0.375l-0.164-0.037l-0.084-0.146
		c-1.795-3.119-2.02-7.099-0.672-11.826c5.271-18.474,33.015-44.299,67.467-62.806c28.258-15.181,58.72-24.608,79.499-24.608
		c8.174,0,14.386,1.441,18.462,4.284l0.284,0.197l-0.164,0.305c-4.473,8.279-35.102,31.426-71.24,53.85
		c-14.249,8.839-27.49,16.624-39.419,22.819C426.24,215.332,408.387,221.809,398.759,221.809z M395.465,220.715
		c0.964,0.211,2.07,0.318,3.294,0.318c14.518,0,47.916-15.346,89.344-41.048c35.012-21.721,65.851-44.938,70.793-53.254
		c-3.947-2.62-9.909-3.945-17.727-3.945c-20.659,0-50.98,9.393-79.132,24.515c-34.282,18.415-61.869,44.048-67.088,62.335
		C393.682,214.079,393.855,217.805,395.465,220.715z"/>
	<path fill="#200000" d="M433.548,225.57c-0.152-24.695-17.783-35.875-25.802-37.185l0.124-0.766
		c4.269,0.697,10.869,3.768,16.592,10.296c4.453,5.079,9.779,14.001,9.862,27.648L433.548,225.57z"/>
	<path fill="#200000" d="M464.688,214.879c-0.091-7.759-2.083-14.679-4.733-20.761c-6.934-15.91-20.134-25.732-28.685-27.251
		l0.136-0.763c12.048,2.143,33.731,20.272,34.058,48.767L464.688,214.879z"/>
	<path fill="#200000" d="M496.241,198.898l-0.77-0.099c0.852-6.701-0.754-14.202-3.94-21.996c-1.522-3.723-3.272-7.365-5.625-11.01
		c-6.615-10.258-15.228-18.123-22.091-19.534l0.155-0.761c7.166,1.476,15.859,8.968,22.687,19.551
		C494.031,176.48,497.523,188.817,496.241,198.898z"/>
	<path fill="#200000" d="M526.423,175.372c-0.655-6.176-2.764-12.092-5.411-17.678c-6.271-13.228-16.57-23.775-24.979-25.599
		l0.164-0.76c12.21,2.649,28.757,22.847,30.997,43.955L526.423,175.372z"/>
	<path fill="#200000" d="M544.982,156.449l-0.776-0.003c0.018-4.457-1.243-8.792-3.235-13.108
		c-4.169-9.028-11.638-16.966-17.999-18.684l0.201-0.749C533.035,126.565,545.036,142.107,544.982,156.449z"/>
	<path fill="#442221" d="M404.832,219.072c7.526,18.076-6.986,33.35-27.818,45.408c-22.34,12.932-44.46,4.301-52.158-10.746
		c-10.248-20.037-3.77-36.334,27.819-45.41C375.808,201.678,398.338,203.469,404.832,219.072z"/>
	<path fill="#542E2C" d="M389.336,234.473c5.308-7.078,7.47-19.977,2.073-27.466c-10.207-3.682-24.354-2.815-38.735,1.318
		c-30.113,8.652-37.396,23.869-29.131,42.631c3.11,2.314,6.748,3.906,10.694,4.471C355.19,257.756,375.367,251.545,389.336,234.473z
		"/>
	<path fill="#603939" d="M385.068,207.783c4.403,2.68,4.655,23.579-9.507,30.956c-14.163,7.377-37.523,14.316-46.538,7.1
		c-9.015-7.219-7.276-18.887,2.498-26.393C341.296,211.942,372.457,200.104,385.068,207.783z"/>
	<path fill="#2B0F0E" d="M354.824,271.178c-13.048,0-24.948-6.777-30.312-17.268c-4.912-9.602-5.833-18.088-2.738-25.229
		c3.905-9.006,14.266-15.982,30.793-20.731c8.342-2.396,16.559-3.662,23.763-3.662c14.683,0,24.933,5.195,28.862,14.633
		c6.61,15.879-2.804,31.322-27.984,45.895C369.918,269.039,362.388,271.178,354.824,271.178z M376.329,205.063
		c-7.134,0-15.274,1.256-23.547,3.632c-16.296,4.685-26.489,11.512-30.297,20.295c-2.999,6.916-2.084,15.184,2.717,24.568
		c5.233,10.23,16.861,16.844,29.622,16.844c7.424,0,14.826-2.105,21.996-6.256c24.787-14.35,34.093-29.465,27.655-44.926
		C400.674,210.092,390.678,205.063,376.329,205.063z"/>
	<path fill="#3D1C1A" d="M392.731,275.408c-1.94,1.941-8.439,10.381-11.059,14.26c0.678,1.941,5.431,5.143,5.529,5.143
		c2.036-2.521,14.356-17.268,14.551-20.662c0.194-3.396-22.715-21.646-27.355-24.639c-6.014-3.881-11.737,3.104-7.275,8.438
		C371.02,262.607,389.821,272.4,392.731,275.408z"/>
	<path fill="#542E2C" d="M392.731,275.408c-1.94,1.941-8.439,10.381-11.059,14.26c0.678,1.941,1.871,3.744,1.969,3.744
		c2.036-2.521,15.461-15.318,15.652-18.713c0.196-3.396-20.789-19.078-25.43-22.074c-6.014-3.881-11.204-0.012-6.742,5.322
		C371.02,262.607,389.821,272.4,392.731,275.408z"/>
	<path fill="#806161" d="M390.692,271.172c-0.102,0.168-5.259-2.781-11.521-6.584c-6.26-3.803-11.256-7.018-11.154-7.184
		c0.101-0.166,5.258,2.781,11.519,6.586C385.798,267.791,390.792,271.01,390.692,271.172z"/>
	<path fill="#2B0F0E" d="M387.386,295.199h-0.184c-0.534,0-5.236-3.516-5.896-5.402l-0.064-0.184l0.109-0.16
		c2.464-3.652,8.553-11.604,10.829-14.031c-1.474-1.314-5.409-3.719-9.56-6.248c-6.333-3.863-13.51-8.24-15.797-10.977
		c-1.741-2.084-2.16-4.648-1.123-6.871c0.96-2.055,2.94-3.332,5.168-3.332c1.261,0,2.52,0.4,3.739,1.189
		c4.068,2.623,27.745,21.262,27.531,24.986c-0.164,2.877-7.979,12.742-13.841,19.91c-0.34,0.414-0.609,0.744-0.795,0.975
		L387.386,295.199z M382.109,289.715c0.721,1.543,4.021,3.947,5.003,4.588c0.16-0.197,0.357-0.436,0.585-0.713
		c8.957-10.953,13.556-17.5,13.667-19.465c0.17-2.955-21.798-20.82-27.178-24.291c-1.093-0.705-2.209-1.061-3.317-1.061
		c-1.924,0-3.635,1.105-4.465,2.883c-0.907,1.939-0.526,4.199,1.015,6.045c2.206,2.635,9.325,6.979,15.606,10.809
		c4.678,2.854,8.718,5.32,9.985,6.629l0.265,0.273l-0.269,0.273C391.101,277.59,384.709,285.9,382.109,289.715z"/>
	<path fill="#C4C4C4" d="M350.631,300.34c-5.044,2.811-2.426,13.193,4.752,14.648c0.873,4.268,5.239,8.537,12.708,7.275
		c1.067,2.812,7.179,4.559,12.416,0.775c5.239-3.783,11.642-12.9,9.41-23.863c1.746-2.33,1.649-7.18-2.231-11.836
		c-3.879-4.656-7.761-4.656-10.864-2.715c-2.91-1.746-11.253-5.529-14.938-5.24c-2.51,0.199-10.797,5.691-13.29,11.934
		C347.426,294.242,350.6,298.605,350.631,300.34z"/>
	<path fill="#D8D8D8" d="M373.915,317.453c0.763-0.459,1.507-0.955,2.229-1.496C375.15,316.203,374.477,316.77,373.915,317.453z"/>
	<path fill="#D8D8D8" d="M389.744,290.48c-0.513-1.035-1.185-2.092-2.058-3.141c-3.879-4.656-7.761-4.656-10.864-2.715
		c-2.91-1.746-11.253-5.529-14.938-5.24c-2.51,0.199-10.797,5.691-13.29,11.934c-0.655,1.641,0.056,3.738,0.814,5.566
		c7.057,1.57,14.409-5.887,15.094-12.744c2.921,10.953-5.154,21.904-16.464,21.863c0.091,1.438,0.53,2.938,1.278,4.301
		c8.426,5.18,19.758-0.549,26.051-7.541c-1.252,8.146-9.083,13.76-16.954,17.256c0.663,0.568,1.415,1.072,2.28,1.465
		c4.684-0.334,9.886-1.615,13.898-4.031c-0.396,0.924-2.546,3.408-4.656,3.938c6.208,3.104,12.513-1.844,15.424-7.275
		c2.62-5.553,4.946-12.32,1.843-19.305C388.608,294.373,389.744,293.113,389.744,290.48z"/>
	<path fill="#F0ECEC" d="M387.783,305.092c0.776-4.656,0-10.09-3.88-13.969c2.384,0.398,3.951-0.633,4.916-2.25
		c-0.337-0.512-0.71-1.023-1.133-1.533c-3.879-4.656-7.761-4.656-10.864-2.715c-2.91-1.746-11.253-5.529-14.938-5.24
		c-2.51,0.199-10.797,5.691-13.29,11.934c-0.451,1.129-0.253,2.471,0.16,3.795c6.373,1.895,12.876-3.133,14.973-9.424
		c0,8.111-6.476,12.688-13.273,14.762c-2.23,1.379-2.851,4.307-2.166,7.191c0.437,0.549,0.901,1.043,1.47,1.332
		c10.089,2.326,20.178,0,25.609-8.539c-2.485,9.32-10.938,14.158-19.785,15.322c0.56,1.84,1.776,3.609,3.608,4.877
		c8.549,0.281,16.785-5.363,20.056-13.215c-0.46,5.535-3.396,10.51-7.653,13.803c0.546,0.16,1.082,0.168,1.446,0.168
		C379.895,321.434,385.456,312.854,387.783,305.092z"/>
	<path fill="#ADADAD" d="M374.034,325.6c-2.841,0-5.316-1.182-6.177-2.904c-0.802,0.117-1.589,0.18-2.346,0.18h-0.001
		c-6.023,0-9.559-3.756-10.453-7.561c-4.28-0.998-6.787-5.021-7.312-8.396c-0.469-3.012,0.455-5.527,2.477-6.787
		c-0.088-0.553-0.445-1.387-0.82-2.264c-0.886-2.07-1.985-4.646-1.169-6.691c2.595-6.502,10.996-11.969,13.62-12.176
		c3.835-0.312,12.134,3.529,14.966,5.174c1.298-0.771,2.632-1.162,3.968-1.162c2.52,0,4.942,1.373,7.198,4.08
		c3.893,4.67,4.124,9.611,2.347,12.174c2.022,10.324-3.539,19.713-9.596,24.086C378.166,325.207,375.673,325.6,374.034,325.6z
		 M368.341,321.826l0.114,0.299c0.593,1.562,2.938,2.697,5.579,2.697c1.524,0,3.846-0.365,6.248-2.098
		c4.23-3.059,11.611-11.898,9.255-23.471l-0.034-0.174l0.104-0.139c1.704-2.273,1.49-6.904-2.219-11.352
		c-3.261-3.914-6.885-4.811-10.359-2.637l-0.204,0.125l-0.203-0.123c-3.05-1.83-11.227-5.455-14.708-5.182
		c-2.413,0.189-10.511,5.561-12.959,11.688c-0.699,1.75,0.333,4.162,1.161,6.102c0.478,1.117,0.892,2.084,0.903,2.77l0.004,0.232
		l-0.203,0.111c-1.879,1.051-2.742,3.338-2.308,6.125c0.496,3.182,2.88,6.982,6.949,7.805l0.252,0.053l0.051,0.25
		c0.732,3.58,4.028,7.189,9.746,7.189c0.808,0,1.654-0.072,2.517-0.219L368.341,321.826z"/>
	<path fill="#ADADAD" d="M350.751,300.707l-0.242-0.736c10.012-3.297,11.797-8.525,11.813-8.578
		C362.323,291.393,361.136,297.291,350.751,300.707z"/>
	<path fill="#ADADAD" d="M356.156,315.389c-0.259,0-0.521-0.002-0.786-0.014l0.028-0.775c12.418,0.445,18.408-10.045,18.466-10.15
		C373.864,304.449,368.517,315.389,356.156,315.389z"/>
	<path fill="#ADADAD" d="M367.556,322.732l-0.157-0.758c6.589-1.373,10.81-10.066,10.853-10.156
		C378.251,311.818,374.518,321.283,367.556,322.732z"/>
	<path fill="#ADADAD" d="M389.847,301.205c-0.379-3.633-2.744-6.314-2.768-6.34c0,0,3.133,2.381,3.539,6.26L389.847,301.205z"/>
	<path fill="#3D1C1A" d="M381.963,246.891c4.819,2.578,41.131,8.535,53.935,9.506c12.806,0.969,69.067-3.996,84.201-8.014
		c3.298-0.91,3.298-3.822-1.746-3.045c-5.046,0.777-71.784,7.564-81.679,7.76c-15.714-4.27-45.01-11.447-50.636-12.998
		C380.411,238.547,376.532,243.98,381.963,246.891z"/>
	<path fill="#542E2C" d="M381.963,246.891c4.819,2.578,41.131,8.535,53.935,9.506c12.806,0.969,69.067-3.996,84.201-8.014
		c3.298-0.91,3.298-3.822-1.746-3.045c-5.046,0.777-71.776,7.955-81.671,8.148c-15.715-4.268-44.823-9.08-50.449-10.633
		C380.605,241.303,376.532,243.98,381.963,246.891z"/>
	<path fill="#806161" d="M415.519,252.105c-0.054,0.285-6.262-0.674-13.862-2.135c-7.602-1.461-13.721-2.877-13.667-3.158
		c0.054-0.283,6.262,0.674,13.864,2.135C409.454,250.41,415.574,251.826,415.519,252.105z"/>
	<path fill="#2B0F0E" d="M440.113,256.906c-1.73,0-3.159-0.041-4.243-0.123c-12.912-0.979-49.122-6.891-54.091-9.553
		c-2.133-1.141-3.147-2.85-2.717-4.566c0.477-1.898,2.543-3.227,5.021-3.227c0.674,0,1.366,0.098,2.058,0.289
		c2.232,0.613,8.126,2.1,15.586,3.98c11.375,2.867,25.524,6.43,34.994,9.002c10.351-0.223,76.583-6.988,81.57-7.754
		c2.57-0.396,4.31,0.148,4.473,1.348c0.137,1.006-0.894,1.994-2.563,2.455C506.647,252.355,458.879,256.906,440.113,256.906z
		 M384.084,240.213c-2.089,0-3.885,1.109-4.268,2.639c-0.344,1.371,0.505,2.719,2.33,3.695c4.783,2.562,41.255,8.514,53.781,9.461
		c1.067,0.082,2.475,0.123,4.186,0.123c18.729,0,66.38-4.537,79.885-8.121c1.386-0.383,2.063-1.113,1.998-1.605
		c-0.051-0.373-0.63-0.811-2.095-0.811c-0.447,0-0.949,0.045-1.491,0.127c-5.002,0.77-71.543,7.564-81.729,7.766h-0.056
		l-0.053-0.014c-9.464-2.57-23.642-6.145-35.033-9.014c-7.467-1.883-13.364-3.369-15.606-3.984
		C385.311,240.303,384.688,240.213,384.084,240.213z"/>
	<path fill="#FFFFFF" d="M436.674,253.098c-1.559-0.424-3.255-0.875-5.043-1.346v4.236c1.604,0.178,3.043,0.314,4.267,0.408
		c1.415,0.107,3.363,0.141,5.725,0.111v-3.682C439.427,252.98,437.727,253.076,436.674,253.098z"/>
	<path fill="#ADADAD" d="M440.105,256.906c-1.726,0-3.149-0.041-4.235-0.123c-1.196-0.09-2.637-0.229-4.283-0.408l-0.345-0.039
		v-5.09l0.486,0.127c1.77,0.467,3.448,0.916,4.993,1.336c1.003-0.021,2.643-0.111,4.872-0.27l0.415-0.029v4.482l-0.384,0.006
		C441.099,256.902,440.59,256.906,440.105,256.906z M432.019,255.641c1.492,0.16,2.808,0.287,3.909,0.367
		c1.296,0.1,3.101,0.135,5.305,0.119v-2.885c-2.071,0.145-3.602,0.225-4.551,0.244h-0.056l-0.053-0.014
		c-1.417-0.385-2.946-0.793-4.555-1.219V255.641z"/>
	<path fill="#3D1C1A" d="M571.025,245.436c-12.514,6.014-47.047,4.074-50.927,0.58c-2.194-1.973,2.618-7.531,9.119-6.383
		C535.717,240.779,559.461,245.92,571.025,245.436z"/>
	<path fill="#542E2C" d="M571.025,245.436c-12.514,6.014-47.047,4.074-50.927,0.58c-2.194-1.973,2.618-4.766,9.119-3.615
		C535.717,243.545,556.291,248.383,571.025,245.436z"/>
	<path fill="#2B0F0E" d="M544.573,249.695c-11.953,0-22.587-1.455-24.735-3.389c-0.687-0.619-0.849-1.57-0.448-2.619
		c0.869-2.262,4.127-4.596,8.08-4.596c0.602,0,1.211,0.051,1.814,0.156c1.092,0.193,2.667,0.498,4.59,0.871
		c8.962,1.732,25.643,4.959,35.526,4.959h0.001c0.56,0,1.095-0.008,1.608-0.031l1.883-0.078l-1.699,0.814
		C566.02,248.27,556.318,249.695,544.573,249.695z M527.47,239.867c-3.57,0-6.598,2.129-7.354,4.1
		c-0.202,0.523-0.322,1.254,0.242,1.76c1.955,1.762,12.82,3.193,24.216,3.193c10.349,0,19.073-1.107,24.444-3.066
		c-9.998-0.08-26.417-3.256-35.291-4.973c-1.918-0.371-3.489-0.674-4.578-0.867C528.592,239.914,528.026,239.867,527.47,239.867z"/>
	<path fill="#3D1C1A" d="M614.599,173.228c-10.701,8.846-44.688,15.263-49.295,12.806c-2.604-1.388,0.732-7.941,7.317-8.39
		C579.205,177.194,603.492,176.477,614.599,173.228z"/>
	<path fill="#542E2C" d="M614.599,173.228c-10.701,8.846-44.688,15.263-49.295,12.806c-2.604-1.388,2.146-5.393,8.729-5.843
		C580.617,179.741,603.492,176.477,614.599,173.228z"/>
	<path fill="#2B0F0E" d="M569.044,186.95c-1.888,0-3.207-0.195-3.923-0.576c-0.911-0.486-1.277-1.504-1.003-2.789
		c0.52-2.424,3.494-5.989,8.478-6.329c1.104-0.076,2.709-0.158,4.666-0.259c9.794-0.507,28.028-1.449,37.229-4.141l1.809-0.53
		l-1.452,1.2C605.465,181.281,579.165,186.95,569.044,186.95z M612.764,174.113c-9.714,2.329-26.282,3.183-35.462,3.658
		c-1.951,0.102-3.551,0.184-4.654,0.258c-4.531,0.311-7.315,3.594-7.771,5.716c-0.115,0.543-0.191,1.517,0.61,1.944
		c0.413,0.221,1.366,0.483,3.557,0.483C578.543,186.173,602.412,181.151,612.764,174.113z"/>
	<path fill="#3D1C1A" d="M398.131,232.533c5.692,2.414,57.557,7.887,79.803,0.645c15.521-7.24,80.319-41.202,87.563-45.692
		c3.879-2.938,1.552-5.264-2.587-3.196c-4.14,2.069-78.378,39.599-87.175,45.402c-16.944,3.102-70.608-5.322-75.395-5.201
		C394.489,224.645,390.525,229.307,398.131,232.533z"/>
	<path fill="#542E2C" d="M398.131,232.533c5.692,2.414,57.557,7.887,79.803,0.645c15.521-7.24,80.319-41.202,87.563-45.692
		c3.879-2.938,1.552-5.264-2.587-3.196c-4.14,2.069-77.544,41.664-86.343,47.468c-16.941,3.1-70.029-5.133-74.812-5.01
		C395.901,226.9,390.525,229.307,398.131,232.533z"/>
	
		<ellipse transform="matrix(0.9917 0.1282 -0.1282 0.9917 33.2477 -51.1998)" fill="#806161" cx="414.223" cy="232.59" rx="14.484" ry="0.441"/>
	<path fill="#2B0F0E" d="M444.979,237.182h-0.003c-21.67,0-43.441-2.783-46.995-4.291c-4.29-1.82-4.589-3.896-4.385-4.971
		c0.403-2.121,3.236-3.727,6.736-3.816h0.122c1.468,0,6.225,0.576,12.812,1.377c13.889,1.686,37.135,4.51,52.22,4.51
		c4.246,0,7.646-0.225,10.104-0.666c9.433-6.168,86.391-45.004,87.148-45.382c1.086-0.542,2.125-0.83,3.006-0.83
		c1.057,0,1.803,0.413,2.044,1.136c0.339,1.009-0.41,2.302-2.057,3.546c-7.127,4.422-72.029,38.456-87.633,45.737
		C470.75,235.926,459.313,237.182,444.979,237.182z M400.454,224.879l-0.103,0.002c-3.036,0.076-5.669,1.477-5.993,3.182
		c-0.273,1.441,1.157,2.939,3.925,4.113c3.503,1.486,25.114,4.23,46.692,4.232h0.003c14.255,0,25.606-1.244,32.834-3.6
		c15.548-7.258,80.391-41.258,87.479-45.653c1.551-1.176,1.933-2.149,1.761-2.66c-0.128-0.381-0.617-0.608-1.31-0.608
		c-0.531,0-1.423,0.13-2.661,0.748c-6.409,3.206-78.478,39.67-87.134,45.381l-0.143,0.057c-2.509,0.459-5.983,0.691-10.32,0.691
		c-15.133,0-38.406-2.824-52.313-4.516C406.613,225.453,401.875,224.879,400.454,224.879z"/>
	<path fill="#FFFFFF" d="M475.735,229.691c-1.517,0.277-3.332,0.463-5.373,0.568c-0.192,1.518-0.058,3.17,0.518,4.646
		c2.573-0.471,4.946-1.041,7.054-1.729c1.442-0.672,3.312-1.576,5.521-2.664c-0.215-1.412-0.887-2.814-2.15-4.059
		C478.698,227.895,476.765,229.016,475.735,229.691z"/>
	<path fill="#ADADAD" d="M470.633,235.348l-0.114-0.301c-0.56-1.441-0.754-3.158-0.542-4.834l0.04-0.322l0.323-0.018
		c2.057-0.107,3.82-0.291,5.249-0.549c1.008-0.66,2.866-1.736,5.527-3.209l0.254-0.139l0.205,0.203
		c1.258,1.238,2.019,2.676,2.261,4.273l0.044,0.281l-0.255,0.127c-2.271,1.119-4.13,2.018-5.527,2.67
		c-2.095,0.686-4.485,1.27-7.147,1.76L470.633,235.348z M470.711,230.629c-0.124,1.332,0.023,2.672,0.421,3.838
		c2.499-0.471,4.745-1.025,6.683-1.658c1.296-0.605,3.06-1.457,5.206-2.516c-0.242-1.232-0.843-2.359-1.788-3.357
		c-2.563,1.422-4.341,2.457-5.284,3.082l-0.143,0.057C474.409,230.33,472.696,230.518,470.711,230.629z"/>
	<path fill="#C99B89" d="M338.506,234.906c5.044-15.566,25.438-65.62,55.983-100.542c30.545-34.922,74.824-67.514,88.965-59.756
		c14.139,7.763-24.622,58.838-51.028,84.906c-26.405,26.067-78.205,71.167-90.623,77.28
		C338.7,238.547,338.506,234.906,338.506,234.906z"/>
	<path fill="#D8AEA3" d="M393.728,177.176l-5.996,4.525c-2.404,3.753-29.125,40.337-34.999,44.21
		c6.727-4.502,21.988-16.35,21.988-16.35C376.329,204.289,390.136,182.464,393.728,177.176z"/>
	<path fill="#D8AEA3" d="M442.754,143.987c-5.822,3.57-33.748,20.255-36.793,23.489c-5.242,6.982-17.168,25.54-18.953,30.136
		C395.544,190.11,441.225,147.758,442.754,143.987z"/>
	<path fill="#D8AEA3" d="M475.993,99.443c-4.526,2.198-27.678,16.943-30.135,18.883c-3.235,4.397-12.262,21.357-13.064,25.661
		c6.985-3.674,17.735-10.441,20.378-11.713C457.498,127.639,474.99,102.37,475.993,99.443z"/>
	<path fill="#D8AEA3" d="M471.338,77.198c-0.26,4.267-5.648,18.697-8.407,23.409c4.914-4.139,15.214-8.562,18.496-9.714
		C485.046,82.372,484.271,72.412,471.338,77.198z"/>
	<path fill="#D8AEA3" d="M463.815,80.559c-1.79,7.115-9.938,24.963-12.267,27.292c-5.82,4.138-24.292,16.261-24.292,16.261
		c5.667-7.466,16.477-27.092,16.947-31.453C448.445,88.449,459.767,82.053,463.815,80.559z"/>
	<path fill="#D8AEA3" d="M434.476,100.607c-3.233,8.148-24.218,42.741-28.515,48.115c1.224-7.244,1.37-20.102,1.611-24.61
		C413.393,117.68,430.835,101.459,434.476,100.607z"/>
	<path fill="#D8AEA3" d="M435.122,125.312c-2.846,4.138-9.328,17.202-9.817,23.41c-5.573,3.75-25.073,16.871-25.073,16.871
		c5.144-6.136,16.036-22.82,17.445-25.408C421.283,136.434,435.122,125.312,435.122,125.312z"/>
	<path fill="#D8AEA3" d="M402.529,129.191c-0.13,2.715-1.366,12.416-2.298,15.391c-3.135,4.786-20.855,25.704-20.855,25.704
		c1.812-5.527,4.126-15.34,4.14-18.462C387.396,146.135,399.375,131.882,402.529,129.191z"/>
	<path fill="#D8AEA3" d="M398.778,154.671c-0.259,2.714-3.104,9.316-3.104,9.316c-1.941,2.97-25.35,34.158-25.35,34.158
		c2.326-4.933,4.785-15.716,4.785-15.716C377.308,179.632,395.982,158.405,398.778,154.671z"/>
	<path fill="#D8AEA3" d="M375.109,164.84c-1.295,7.162-11.334,38.85-14.851,44.154c-3.518,5.302-17.613,21.555-17.613,20.865
		c3.879-8.967,8.019-20.706,10.994-25.958C356.614,198.646,369.979,171.717,375.109,164.84z"/>
	<path fill="#E8CEC8" d="M473.929,76.323c0.829,0.736-37.626,22.604-72.45,61.859c-34.825,39.254-52.832,81.031-53.659,80.297
		c-0.829-0.734,14.896-44.778,49.72-84.031C432.365,95.19,473.103,75.588,473.929,76.323z"/>
	<path fill="#B27866" d="M340.307,237.66c-1.617,0-2.138-1.785-2.189-2.732l-0.004-0.07l0.021-0.068
		c5.238-16.162,25.52-65.761,56.062-100.68c25.677-29.357,65.131-61.043,84.097-61.043c2.092,0,3.892,0.406,5.345,1.203
		c1.756,0.964,2.804,2.588,3.115,4.829c2.075,14.883-30.085,57.03-54.055,80.693c-27.62,27.266-78.481,71.326-90.724,77.352
		C341.375,237.482,340.806,237.66,340.307,237.66z M338.899,234.955c0.035,0.346,0.258,1.928,1.408,1.928
		c0.365,0,0.805-0.143,1.306-0.426c11.88-5.852,63.297-50.322,90.542-77.219c23.854-23.55,55.873-65.389,53.831-80.033
		c-0.28-2.014-1.17-3.405-2.718-4.256c-1.341-0.734-3.015-1.107-4.974-1.107c-16.736,0-54.2,27.265-83.513,60.778
		C364.372,169.387,344.161,218.754,338.899,234.955z"/>
	<path fill="#B27866" d="M339.472,237.082l-0.521-0.574c13.303-12.061,36.869-40.952,60.035-73.605
		c24.026-33.861,40.216-61.454,42.254-72.01l0.764,0.148c-2.09,10.818-17.933,37.851-42.384,72.313
		C376.423,196.046,352.813,224.986,339.472,237.082z"/>
	<path fill="#B27866" d="M386.885,180.854l-0.533-0.564c23.949-22.637,67.677-45.421,68.116-45.648l0.358,0.688
		C454.388,135.556,410.754,158.29,386.885,180.854z"/>
	<path fill="#B27866" d="M360.936,213.863l-0.677-0.38c12.729-22.551,20.635-62.093,20.712-62.489l0.761,0.149
		C381.654,151.541,373.726,191.204,360.936,213.863z"/>
	<path fill="#B27866" d="M377.814,209.562l-0.711-0.313c6.43-14.585,26.129-42.704,26.327-42.988l0.635,0.446
		C403.866,166.99,384.212,195.046,377.814,209.562z"/>
	<path fill="#B27866" d="M416.792,138.182l-0.541-0.559c24.104-23.393,66.185-44.895,66.605-45.108l0.353,0.691
		C482.788,93.419,440.81,114.869,416.792,138.182z"/>
	<path fill="#B27866" d="M453.766,110.157l-0.594-0.5c10.407-12.344,15.705-34.279,15.759-34.499l0.753,0.18
		C469.632,75.559,464.289,97.674,453.766,110.157z"/>
	<path fill="#B27866" d="M398.013,165.592l-0.709-0.313c6.408-14.479,7.869-42.618,7.882-42.9l0.775,0.037
		C405.947,122.701,404.478,150.984,398.013,165.592z"/>
	<path fill="#B27866" d="M428.018,150.549l-0.761-0.15c2.845-14.325,16.168-34.211,16.303-34.41l0.645,0.433
		C444.07,116.619,430.833,136.378,428.018,150.549z"/>
	<path fill="#B27866" d="M374.296,180.19l-0.502-0.592c8.123-6.875,28.624-33.685,28.831-33.953l0.616,0.469
		C403.033,146.386,382.482,173.262,374.296,180.19z"/>
	<path fill="#442221" d="M296.73,306.645c8.276,2.33,31.558-6.598,40.482-19.014c8.924-12.414,10.607-33.648-6.339-39.457
		c-3.49-9.562-12.933-21.461-29.488-22.236c-16.555-0.777-51.606,16.555-40.742,41.518c2.07,7.373-9.959,26.127-21.858,37.184
		c-11.9,11.061-67.773,63.83-77.085,76.246c15.779-9.053,87.951-76.955,107.352-86.074c1.811,2.779,8.924,3.977,13.387-1.357
		c4.461-5.336,10.864-16.881,19.4-21.148c8.536-4.268,17.751,5.627,12.611,15.035c-5.143,9.41-24.154,13.484-29.78,12.512
		c-5.627-0.969-5.918-2.715-8.148-1.258c-2.231,1.453,0.29,6.312,5.141,8.635C286.511,309.555,293.368,309.086,296.73,306.645z"/>
	<path fill="#542E2C" d="M327.657,249.299c-3.492-9.561-9.717-22.586-26.272-23.361c-16.555-0.777-51.606,16.555-40.742,41.518
		c2.07,7.373-9.959,26.127-21.858,37.184c-11.9,11.061-67.773,63.83-77.085,76.246c16.924-14.684,82.783-75.756,105.023-88.48
		c4.008-2.201,8.986-1.877,12.416-0.504c-1.746,0.258-4.563,1.486-5.432,2.328c1.358,0.789,6.172,2.279,8.731-0.775
		c4.461-5.336,10.864-16.881,19.4-21.148c8.536-4.268,17.751,5.627,12.611,15.035c-5.143,9.41-24.154,13.484-29.78,12.512
		c-5.627-0.969-5.918-2.715-8.148-1.258c-2.231,1.453,0.872,3.533,5.723,5.855c4.85,2.326,11.364,1.391,14.724-1.053
		c8.278,2.328,26.895-5.842,36.3-17.898C340.639,276.047,341.834,256.906,327.657,249.299z"/>
	<path fill="#603939" d="M265.752,247.664c6.596-4.363,16.297-9.02,30.362-3.197c14.065,5.818,20.667,5.387,27.742,4.08
		c-0.677-5.537-5.911-16.207-14.201-19.215c-3.782-1.373-13.207-2.064-21.689,0.527
		C277.864,232.945,268.653,240.072,265.752,247.664z"/>
	<path fill="#603939" d="M302.154,267.695c7.121-0.758,13.944,1.15,16.159,7.439c2.214,6.287,0.093,15.393-4.796,18.277
		c9.984-2.16,19.039-9.555,20.85-17.885c1.81-8.332-1.553-20.557-9.054-22.527C317.812,251.027,304.656,261.346,302.154,267.695z"/>
	<path fill="#603939" d="M296.271,254.455c1.202,2.135,2.963,9.992,1.549,14.65c3.92-6.018,9.45-12.135,13.814-13.928
		C306.883,254.842,299.896,250.096,296.271,254.455z"/>
	<path fill="#603939" d="M273.566,287.438c5.58-0.26,7.329-4.463,1.891-5.432c-5.438-0.971-12.286-3.096-14.362-4.666
		c-4.85,9.32-46.144,52.926-63.717,68.373C213.565,332.252,259.263,288.107,273.566,287.438z"/>
	<path fill="#3D1C1A" d="M299.941,250.082c-4.506,1.271-11.069,4.029-12.946,8.061c-1.875,4.029-2.166,16.145-8.794,19.713
		c-6.629,3.57-15.359-0.797-17.106-3.627c1.683-4.77,13.879-15.336,17.391-18.615C281.997,252.336,290.802,247.58,299.941,250.082z"
		/>
	<path fill="#2B0F0E" d="M160.259,382.158l1.13-1.506c9.429-12.572,66.322-66.25,77.132-76.299
		c11.523-10.707,23.794-29.51,21.749-36.795c-3.318-7.613-2.681-15.053,1.912-22.061c7.833-11.947,26.026-19.975,38.106-19.975
		c0.381,0,0.752,0.008,1.115,0.025c16.129,0.756,25.938,11.99,29.772,22.316c5.942,2.092,10.063,6.275,11.923,12.109
		c2.661,8.342,0.421,19.545-5.572,27.883c-7.78,10.83-26.957,19.547-37.646,19.547c-1.171,0-2.205-0.115-3.076-0.338
		c-1.907,1.316-4.792,2.066-7.957,2.066h-0.001c-2.65,0-5.261-0.551-7.354-1.553c-3.826-1.834-6.036-5.039-6.174-7.123
		c-0.062-0.955,0.288-1.732,0.99-2.189c1.366-0.893,2.2-0.682,3.726-0.102c1.012,0.381,2.399,0.908,4.7,1.305
		c0.515,0.09,1.154,0.135,1.897,0.135c7.42,0,22.947-4.162,27.476-12.451c1.925-3.52,1.921-7.41-0.012-10.666
		c-1.761-2.971-4.846-4.818-8.051-4.818c-1.374,0-2.73,0.33-4.032,0.98c-6.278,3.141-11.375,10.254-15.471,15.969
		c-1.369,1.908-2.662,3.713-3.807,5.08c-2.811,3.363-6.257,3.863-8.062,3.863c-2.447,0-4.654-0.877-5.747-2.262
		c-11.096,5.402-38.785,29.213-63.243,50.242c-18.967,16.311-36.881,31.713-43.791,35.678L160.259,382.158z M300.288,226.299
		c-11.877,0-29.764,7.887-37.457,19.625c-4.44,6.775-5.057,13.969-1.833,21.375c2.17,7.713-10.024,26.541-21.95,37.623
		c-10.354,9.625-62.998,59.285-75.627,74.426c7.89-5.271,24.381-19.453,41.757-34.395c24.708-21.248,52.714-45.326,63.707-50.494
		l0.306-0.143l0.184,0.281c0.852,1.309,2.983,2.189,5.298,2.189c1.668,0,4.858-0.465,7.466-3.584
		c1.127-1.348,2.411-3.139,3.771-5.037c4.147-5.783,9.305-12.982,15.755-16.207c1.411-0.707,2.883-1.064,4.379-1.064
		c3.476,0,6.818,1.992,8.72,5.199c2.075,3.498,2.084,7.664,0.025,11.432c-4.676,8.561-20.571,12.855-28.157,12.855
		c-0.787,0-1.47-0.047-2.03-0.145c-2.374-0.41-3.801-0.949-4.844-1.344c-1.391-0.529-1.891-0.717-3.027,0.027
		c-0.466,0.305-0.682,0.805-0.637,1.484c0.124,1.893,2.303,4.832,5.734,6.477c1.99,0.953,4.481,1.477,7.019,1.477
		c3.045,0,5.907-0.756,7.654-2.025l0.152-0.111l0.181,0.051c0.841,0.236,1.864,0.354,3.046,0.354
		c10.508,0,29.364-8.572,37.017-19.221c5.856-8.146,8.051-19.076,5.463-27.193c-1.802-5.648-5.817-9.684-11.611-11.67l-0.175-0.062
		l-0.064-0.172c-3.703-10.141-13.304-21.24-29.143-21.982C301.017,226.307,300.655,226.299,300.288,226.299z"/>
	<ellipse fill="#FF9E52" cx="280.934" cy="264.592" rx="14.211" ry="17.414"/>
	<path fill="#FFBD61" d="M290.244,252.469c-2.441,0.541-4.009,2.615-4.897,4.508c-4.414,9.428-7.393,17.422-15.152,19.004
		c0.612,0.865,1.289,1.662,2.027,2.363c5.729,3.367,13.479,3.271,17.588-2.893C294.68,269.363,294.177,259.793,290.244,252.469z"/>
	<path fill="#FFDB6B" d="M279.915,273.273c-0.724,1.811-2.296,3.439-4.311,4.439c2.904,2.16,7.524,1.586,10.136-0.373
		c6.373-5.391,8.317-14.443,4.297-22.162C284.847,259.713,283.217,267.33,279.915,273.273z"/>
	<path fill="#2B0F0E" d="M280.933,282.395c-8.048,0-14.598-7.988-14.598-17.803s6.55-17.801,14.598-17.801
		c8.05,0,14.6,7.986,14.6,17.801S288.982,282.395,280.933,282.395z M280.933,247.566c-7.621,0-13.822,7.639-13.822,17.025
		c0,9.391,6.201,17.025,13.822,17.025c7.623,0,13.824-7.635,13.824-17.025C294.756,255.205,288.556,247.566,280.933,247.566z"/>
	
		<ellipse transform="matrix(0.7312 -0.6822 0.6822 0.7312 -111.5059 264.1655)" fill="#730000" cx="279.43" cy="273.565" rx="5.433" ry="5.53"/>
	<path fill="#930000" d="M283.402,269.859c2.083,2.232,1.994,5.703-0.2,7.75c-2.193,2.047-5.662,1.896-7.744-0.338
		C278.812,277.525,284.188,275.451,283.402,269.859z"/>
	<path fill="#490000" d="M283.468,277.893c-2.349,2.188-6.068,2.031-8.293-0.357c-2.226-2.385-2.127-6.107,0.219-8.295
		c2.346-2.189,6.066-2.031,8.292,0.355C285.911,271.982,285.814,275.703,283.468,277.893z M275.922,269.809
		c-2.033,1.895-2.116,5.125-0.181,7.197c1.935,2.074,5.162,2.219,7.196,0.318c2.033-1.896,2.115-5.127,0.181-7.199
		C281.185,268.053,277.956,267.91,275.922,269.809z"/>
	<ellipse fill="#130000" cx="278.486" cy="275.451" rx="2.904" ry="2.889"/>
	<ellipse fill="#FFFFFF" cx="278.508" cy="271.934" rx="1.601" ry="1.633"/>
	<ellipse fill="#FFFFFF" cx="280.749" cy="274.229" rx="0.64" ry="0.662"/>
	<path fill="#3D1C1A" d="M277.846,243.301c0,0-16.265,5.82-21.503,17.752s9.895,20.08,16.879,11.316
		c5.32-6.674,6.887-16.459,13.095-20.436c6.209-3.977,13.625-1.852,13.625-1.852"/>
	<path fill="#542E2C" d="M279.43,242.854c0,0-17.849,6.268-23.087,18.199s8.052,15.357,15.036,6.596
		c5.32-6.674,6.338-12.773,12.545-16.75c6.208-3.977,16.106-1.197,16.106-1.197"/>
	<path fill="#603939" d="M292.132,246.248c-3.39-0.521-10.635,1.311-13.852,6.41c-3.215,5.098-5.899,11.977-11.785,15.521
		c-5.885,3.543-11.938-0.605-8.96-7.314c1.972-4.445,9.862-12.893,19.372-15.787C281.752,243.604,287.017,243.572,292.132,246.248z"
		/>
	<path fill="#2B0F0E" d="M265.763,276.432c-2.073,0-4.093-0.621-5.736-1.609c-3.994-2.414-6.791-7.656-4.039-13.926
		c2.623-5.973,8.014-10.449,12.769-13.439c4.757-2.988,9.22-3.789,9.22-3.789c-0.162,0.055-16.168,5.902-21.278,17.541
		c-2.739,6.238,0.297,10.875,3.73,12.947c3.535,2.135,8.952,2.412,12.491-2.027c2.174-2.73,3.727-6.014,5.227-9.186
		c2.176-4.602,4.231-8.947,7.962-11.336c6.274-4.02,13.833-1.525,13.833-1.525c-0.073-0.018-7.423-1.66-13.416,2.18
		c-3.542,2.268-5.551,6.516-7.678,11.012c-1.52,3.215-3.091,6.539-5.323,9.34C271.344,275.35,268.506,276.432,265.763,276.432z"/>
	<path fill="#2B0F0E" d="M265.779,297.043l-0.427-0.646c4.671-3.064,9.223-3.408,9.223-3.408
		C274.534,292.998,270.332,294.059,265.779,297.043z"/>
	<path d="M251.448,258.826c-11.641-19.811-10.113-41.312-6.78-55.857c1.159-5.058,2.583-9.503,3.895-13.054
		c2.053-5.562,4.541-8.612,4.541-8.612c-0.047,0.087-4.73,8.967-7.68,21.838c-3.301,14.409-4.82,35.7,6.694,55.294L251.448,258.826z
		"/>
	<path d="M250.557,186.869l-0.606-0.483c1.718-2.159,5.117-1.842,5.117-1.842C255.039,184.55,252.077,184.96,250.557,186.869z"/>
	<path d="M247.587,193.584l-0.024-0.775c-0.08-2.486-1.727-5.455-1.744-5.485c0,0,2.145,2.262,2.46,4.736
		c3.26-2.343,5.551-1.056,5.551-1.056c-0.022-0.004-2.404-0.486-5.638,2.096L247.587,193.584z"/>
	<path d="M244.404,205.72l-0.121-0.893c-0.561-4.114-3.566-7.705-3.596-7.741c0,0,3.39,2.838,4.222,6.806
		c3.075-3.451,6.709-3.577,6.709-3.577c-0.036,0.01-3.606,0.932-6.648,4.704L244.404,205.72z"/>
	<path d="M243.012,215.01l-0.224-0.749c-1.144-3.813-3.794-6.452-3.823-6.479c0,0,3.048,1.931,4.334,5.549
		c2.609-3.215,5.489-2.79,5.489-2.79c-0.027,0.006-2.787,0.367-5.315,3.837L243.012,215.01z"/>
	<path d="M242.578,226.363l-0.29-0.811c-1.113-3.119-4.181-4.887-4.211-4.904c0,0,3.271,0.988,4.641,3.914
		c1.93-2.939,4.649-2.51,4.649-2.51c-0.105,0.016-2.615,0.361-4.373,3.559L242.578,226.363z"/>
	<path d="M243.713,237.162l-0.385-0.762c-1.88-3.703-5.171-5.045-5.204-5.061c0,0,3.473,0.58,5.509,4.006
		c1.836-3.873,4.638-3.461,4.638-3.461c-0.103,0.012-2.585,0.381-4.239,4.484L243.713,237.162z"/>
	<path d="M245.888,245.643l-0.503-0.645c-1.921-2.455-5.016-3.551-5.045-3.561c0,0,3.121,0.275,5.166,2.506
		c1.205-3.896,4.627-4.184,4.627-4.184c-0.128,0.039-3.145,1.035-4.064,5.086L245.888,245.643z"/>
	<path d="M248.573,252.354l-0.568-0.396c-2.573-1.793-5.302-2.686-5.329-2.693c0,0,2.737,0.078,5.22,1.686
		c0.431-3.988,2.931-4.701,2.931-4.701c-0.016,0.01-1.97,1.336-2.213,5.412L248.573,252.354z"/>
	<path d="M258.628,255.613c-4.208-22.59,4.543-42.286,12.628-54.832c2.809-4.359,5.661-8.057,8.102-10.948
		c3.825-4.532,7.201-6.555,7.201-6.555c-0.073,0.067-7.499,6.823-14.652,17.924c-8.007,12.425-16.678,31.932-12.518,54.27
		L258.628,255.613z"/>
	<path d="M282.271,187.647l-0.406-0.662c2.348-1.445,5.438,0.011,5.438,0.011C287.274,186.989,284.349,186.37,282.271,187.647z"/>
	<path d="M277.192,192.951l0.24-0.736c0.773-2.366,0.232-5.718,0.229-5.751c0,0,1.248,2.857,0.701,5.29
		c3.863-1.095,5.58,0.897,5.58,0.897c-0.02-0.011-2.098-1.276-6.016,0.053L277.192,192.951z"/>
	<path d="M270.072,203.28l0.188-0.88c0.874-4.061-0.73-8.458-0.746-8.503c0,0,2.222,3.822,1.652,7.836
		c4.066-2.199,7.527-1.079,7.527-1.079c-0.038-0.005-3.708-0.353-7.853,2.157L270.072,203.28z"/>
	<path d="M265.6,211.544l0.045-0.782c0.221-3.976-1.373-7.359-1.39-7.393c0,0,2.209,2.853,2.187,6.692
		c3.548-2.135,6.111-0.755,6.111-0.755c-0.028-0.004-2.745-0.604-6.304,1.801L265.6,211.544z"/>
	<path d="M261.33,222.072l0.003-0.861c0.014-3.316-2.268-6.02-2.292-6.047c0,0,2.741,2.042,3.035,5.26
		c2.813-2.107,5.224-0.775,5.224-0.775c-0.104-0.027-2.581-0.553-5.323,1.855L261.33,222.072z"/>
	<path d="M258.725,232.609l-0.104-0.848c-0.507-4.119-3.145-6.504-3.172-6.523c0,0,3.069,1.723,3.818,5.641
		c3.045-3.02,5.54-1.68,5.54-1.68c-0.102-0.023-2.562-0.521-5.511,2.773L258.725,232.609z"/>
	<path d="M257.883,241.324l-0.253-0.777c-0.972-2.963-3.507-5.045-3.533-5.064c0,0,2.841,1.324,4.006,4.117
		c2.457-3.256,5.773-2.361,5.773-2.361c-0.133-0.008-3.309-0.096-5.551,3.398L257.883,241.324z"/>
	<path d="M258.125,248.547l-0.398-0.564c-1.811-2.561-4.073-4.326-4.096-4.346c0,0,2.546,1.006,4.334,3.361
		c1.763-3.604,4.357-3.424,4.357-3.424c-0.02,0.006-2.308,0.586-3.923,4.34L258.125,248.547z"/>
</g>
</svg>
