<svg xmlns="http://www.w3.org/2000/svg" viewBox="0 0 768 430" style="enable-background:new 0 0 768 430;version:1"><style>.a{fill:#2B0F0E;}.b{fill:#C99B89;}.c{fill:#D8AEA3;}.d{fill:#E8CEC8;}.e{fill:#B27866;}.f{fill:#F4F0B6;}.g{fill:#FBFAE7;}.h{fill:#B7B489;}.i{fill:#542E2C;}.j{fill:#603939;}.k{fill:#D8D8D8;}.l{fill:#F0ECEC;}.m{fill:#ADADAD;}.n{fill:#200000;}.o{fill:#442221;}.p{fill:#FFF;}.q{fill:#3D1C1A;}.r{fill:#806161;}</style><g><path d="M275.6 293.2c0 0-6.9 1.9 1.2 10 34.8 0.1 49.4-27.7 40.1-34C307.6 262.8 279.3 279.7 275.6 293.2z" class="a"/><path d="M329.1 234.9c3.1-16.1 17.4-68.2 43.6-106.5 26.2-38.3 66.2-76 81.2-70 15 6-17.4 61.4-40.5 90.4 -23.1 29-69.1 80-80.7 87.6C329.7 238.5 329.1 234.9 329.1 234.9z" class="b"/><path d="M377 171l-5.4 5.2c-1.9 4-24.1 43.5-29.5 48.1 6.1-5.3 19.9-18.9 19.9-18.9C363 200 374.1 176.6 377 171z" class="c"/><path d="M421.7 132.1c-5.4 4.2-31.1 24.1-33.7 27.7 -4.4 7.6-14 27.4-15.2 32.2C380.3 183.6 420.6 136.1 421.7 132.1z" class="c"/><path d="M449.4 83.9c-4.2 2.7-25.5 20.1-27.7 22.4 -2.7 4.8-9.6 22.7-9.9 27 6.5-4.5 16.4-12.5 18.8-14.1C434.4 114.2 448.7 87 449.4 83.9z" class="c"/><path d="M442.1 62.4c0.3 4.3-3.4 19.2-5.5 24.2 4.4-4.7 14.1-10.3 17.2-11.9C456.3 65.9 454.4 56.1 442.1 62.4z" class="c"/><path d="M435 66.7c-0.9 7.3-6.9 26-8.9 28.6 -5.3 4.8-22.2 19-22.2 19 4.7-8.1 13.1-28.9 13.1-33.3C420.7 76.3 431.2 68.6 435 66.7z" class="c"/><path d="M408.3 90.1c-2.2 8.5-18.9 45.3-22.6 51.2 0.3-7.3-1-20.1-1.3-24.6C389.4 109.5 404.8 91.4 408.3 90.1z" class="c"/><path d="M411.9 114.5c-2.3 4.5-7.2 18.2-6.9 24.4 -5.1 4.4-22.9 19.8-22.9 19.8 4.4-6.7 13.2-24.6 14.3-27.3C399.5 127.2 411.9 114.5 411.9 114.5z" class="c"/><path d="M380 122.3c0.2 2.7 0.1 12.5-0.4 15.6 -2.5 5.1-17.6 28-17.6 28 1.1-5.7 2.3-15.7 1.9-18.8C367 140.9 377.2 125.3 380 122.3z" class="c"/><path d="M379.3 148c0.1 2.7-2 9.6-2 9.6 -1.6 3.2-21.1 36.9-21.1 36.9 1.7-5.2 2.9-16.2 2.9-16.2C361 175.4 377 152.1 379.3 148z" class="c"/><path d="M357 160.9c-0.4 7.3-6.6 39.9-9.5 45.6 -2.9 5.7-14.9 23.5-15 22.8 2.8-9.4 5.5-21.5 7.8-27.1C342.7 196.7 352.8 168.4 357 160.9z" class="c"/><path d="M444.6 61.2c0.9 0.6-34.7 26.9-64.5 70.1 -29.9 43.1-42.8 86.8-43.7 86.1s9.4-46.2 39.3-89.4C405.6 84.9 443.7 60.6 444.6 61.2z" class="d"/><path d="M331.2 237.4c-1.6 0.2-2.3-1.5-2.5-2.5l0-0.1 0-0.1c3.3-16.7 17.5-68.3 43.6-106.7 22-32.2 57.4-68.4 76.2-70.7 2.1-0.2 3.9-0.1 5.5 0.6 1.9 0.7 3.1 2.2 3.7 4.4 3.8 14.5-23 60.2-44 86.6 -24.2 30.4-69.4 80.2-80.8 87.6C332.2 237.1 331.7 237.3 331.2 237.4zM329.5 234.9c0.1 0.3 0.5 1.9 1.6 1.7 0.4 0 0.8-0.2 1.2-0.6 11.1-7.2 56.8-57.5 80.7-87.5 20.9-26.2 47.7-71.6 43.9-85.9 -0.5-2-1.6-3.2-3.2-3.9 -1.4-0.6-3.1-0.7-5.1-0.5 -16.6 2-50.6 33.6-75.6 70.3C346.9 166.7 332.8 218.2 329.5 234.9z" class="e"/><path d="M330.3 236.9l-0.6-0.5c11.8-13.6 31.7-45.1 50.8-80.3 19.8-36.5 32.6-65.8 33.3-76.5l0.8 0.1c-0.8 11-13.3 39.7-33.4 76.9C362.1 191.8 342.1 223.3 330.3 236.9z" class="e"/><path d="M370.6 175.4l-0.6-0.5c21.1-25.3 61.8-53.2 62.2-53.5l0.4 0.6C432.2 122.4 391.6 150.2 370.6 175.4z" class="e"/><path d="M348.8 211.3l-0.7-0.3c9.9-23.9 13.1-64.1 13.1-64.5l0.8 0.1C361.9 147 358.8 187.3 348.8 211.3z" class="e"/><path d="M365.1 205l-0.7-0.2c4.6-15.2 20.8-45.5 21-45.8l0.7 0.4C385.8 159.6 369.7 189.8 365.1 205z" class="e"/><path d="M395.2 129.5l-0.6-0.5c21.1-26.1 60.3-52.5 60.7-52.8l0.4 0.6C455.4 77.2 416.3 103.5 395.2 129.5z" class="e"/><path d="M428.6 97.2l-0.6-0.4c8.9-13.5 11.5-35.9 11.5-36.1l0.8 0.1C440.2 61 437.5 83.6 428.6 97.2z" class="e"/><path d="M379.9 159l-0.7-0.2c4.6-15.1 2.7-43.3 2.7-43.5l0.8-0.1C382.6 115.4 384.5 143.7 379.9 159z" class="e"/><path d="M407.9 140.4l-0.8-0.1c1.1-14.6 12-35.9 12.1-36.1l0.7 0.4C419.7 104.8 409 126 407.9 140.4z" class="e"/><path d="M358.1 176.3l-0.6-0.5c7.2-7.8 24.4-36.9 24.6-37.2l0.7 0.4C382.6 139.3 365.4 168.4 358.1 176.3z" class="e"/><path d="M290.9 302.6c0 0 1.5-7.5 2.2-9.2 1.7 0.1 6.8 2.5 7.6 3 0.6-2.3 1.6-8.1 1.6-8.1 2.3 0 6.7 0.6 7.8 1 0.2-2.6 2.2-9.3 2.2-9.3 1.7 1.2 5.9 3.4 6 3.6 0 2.6-6.4 14.9-9.7 17.2C305.3 303 291.9 304.5 290.9 302.6z" class="f"/><path d="M303.5 290.8c-0.1 0.8-2.2 3.4-2.8 5.5l-0.1-0.1c0.5 2.2 0.5 4.4 0.4 6.7 2.8-0.4 5.5-1.1 7-1.9C307.6 296.3 307.2 294.1 303.5 290.8z" class="g"/><path d="M290.9 302.6c0.4 0.7 2.6 1 5.4 0.9 -0.2-3.7-1.1-7.2-3.2-10C292.4 295.3 290.9 302.6 290.9 302.6z" class="g"/><path d="M295 303.9c-3.8 0-4.3-0.8-4.4-1.1l-0.1-0.1 0-0.1c0.1-0.3 1.5-7.6 2.2-9.3l0.1-0.3 0.3 0c1.6 0.1 5.8 2 7.3 2.8 0.6-2.5 1.5-7.6 1.5-7.6l0.1-0.3h0.3c2.1 0 5.9 0.5 7.5 0.9 0.4-2.8 2.1-8.7 2.2-8.9l0.2-0.5 0.4 0.3c0.9 0.7 2.7 1.7 4 2.5 1.9 1.1 2 1.2 2.1 1.4l0 0.1c0 2.6-6.4 15.1-9.9 17.5C306.5 302.6 299.6 303.9 295 303.9zM291.3 302.5c0.3 0.3 1.4 0.6 3.7 0.6 4.4 0 11.2-1.2 13.4-2.7 3.2-2.2 9.3-13.9 9.5-16.7 -0.3-0.2-1-0.6-1.7-1 -1.2-0.7-2.7-1.5-3.7-2.2 -0.5 1.6-1.9 6.6-2 8.7l0 0.5 -0.5-0.1c-1.1-0.3-5.1-0.9-7.4-1 -0.2 1.3-1 5.8-1.6 7.9l-0.1 0.5 -0.4-0.3c-0.7-0.5-5.2-2.7-7.1-2.9C292.7 295.6 291.5 301.4 291.3 302.5z" class="h"/><path d="M278.5 292.6c0.8 1.4 5.6 4.6 10.4 4.4 1.2-2.1 0.8-8.8 0.6-10.3 1.8 2 6.4 4.5 8.5 5.2 1.7-2.2 2.8-9.8 2.8-11.6 1.6 1.8 5.5 3.8 6.7 4.3 1.9-3.3 2.8-14.4 1.6-16.2C305.5 266.8 282 279 278.5 292.6z" class="f"/><path d="M278.5 292.6c0.8 1.4 5.5 4.5 10.3 4.4 -1.1-4.6-3.6-8.1-6.7-11.4C280.4 287.8 279.1 290.2 278.5 292.6z" class="g"/><path d="M285.7 281.3c1.6 1.5 2.9 3.4 3.9 5.5 1.8 1.9 5.8 0.8 7.9 1.5 -0.3-5.7-2.6-7.4-5.5-12.2C289.8 277.6 287.7 279.4 285.7 281.3z" class="g"/><path d="M296.8 272.9c2.1 2.1 2.1 3.5 4 5.2 0.9 0.8 2 1.7 2 1.6 1.6 1.8 2.8 1.3 4.1 1.8 0.5-4.5 3.2-9.7-0.2-13.9C305 268.4 298.7 271.8 296.8 272.9z" class="g"/><path d="M288.5 297.4c-4.6 0-9.4-3-10.3-4.6l-0.1-0.1 0-0.2c3.3-13 24.6-24.6 30.1-24.6 0.4 0 0.8 0.1 1 0.2l0.1 0 0.1 0.1c1.4 2.1 0.3 13.4-1.5 16.6l-0.2 0.3 -0.3-0.1c-1.1-0.5-4.4-2.1-6.2-3.8 -0.2 2.6-1.3 8.9-2.9 10.9l-0.2 0.2 -0.3-0.1c-1.9-0.6-5.7-2.6-7.9-4.5 0.2 2.4 0.4 7.6-0.7 9.5l-0.1 0.2 -0.2 0C288.8 297.4 288.6 297.4 288.5 297.4zM278.9 292.5c1 1.3 5.3 4.1 9.6 4.1h0.2c1-2.1 0.7-8 0.4-9.9l-0.2-1.2 0.8 0.9c1.7 1.8 5.9 4.2 8 5 1.5-2.3 2.6-9.4 2.6-11.1v-1l0.7 0.8c1.5 1.6 4.8 3.4 6.3 4.1 1.7-3.4 2.5-13.5 1.5-15.3 -0.2 0-0.4-0.1-0.6-0.1C302.9 268.7 282.3 279.9 278.9 292.5z" class="h"/><path d="M265.9 243.3c-6.1 2.6-15.4 10.9-15.8 16.2 -0.4 5.3 4.8 14.7 11.6 14.5C268.2 270.6 268.9 245.6 265.9 243.3z" class="i"/><path d="M262.1 247.2c-4.3 2.3-10.4 7.6-10.6 12.5s2.5 8 6.9 8.4C262.8 264.7 264.2 247.6 262.1 247.2z" class="j"/><path d="M261.4 274.4h0c-2.5 0-5-1.2-7.1-3.5 -2.9-3.1-4.8-7.9-4.6-11.3 0.4-5.7 10-13.9 16-16.5l0.2-0.1 0.2 0.1c1.8 1.4 2.2 9 1.6 15.4 -0.4 4.1-1.7 13.7-5.8 15.9l-0.2 0C261.6 274.3 261.5 274.4 261.4 274.4zM265.8 243.8c-5.9 2.6-15 10.6-15.3 15.8 -0.2 3.3 1.6 7.8 4.4 10.7 1.4 1.5 3.7 3.3 6.6 3.3h0l0.2 0c2.6-1.5 4.6-7.2 5.4-15.3C267.6 251 266.9 245.1 265.8 243.8z" class="a"/><path d="M300.5 301.7c-1.6 6.2 1 17.5 6.6 21.5 5.6 4.1 21.1 0.8 20.2-7.9 2.7-3.3 2.4-10.1 0-12.1 0.9-3.3 0.6-10-1.9-11.1C321.5 291.7 302.6 296.8 300.5 301.7z" class="k"/><path d="M306.3 319.1c5.3 5.3 15.1 4.4 20.8-1.3 0.2-0.6 0.2-1.2 0.2-1.9 -5.1 2.9-11.6 4-16.3 0.9 7.6 1.3 15.2-2.6 18.1-9.1 -0.2-1.7-0.8-3.3-1.6-4.2 -3.4 5.4-10.2 9-16.5 7.9 8.7-0.7 16.8-9.4 15.4-18.3 -0.3-0.4-0.6-0.6-0.9-0.8 -3.9-0.5-22.8 4.7-24.9 9.5 -0.7 2.6-0.6 6.2 0.2 9.7C301.8 314.6 303.7 317.3 306.3 319.1z" class="l"/><path d="M313.8 325.4h0c-2.8 0-5.3-0.6-6.9-1.8 -5.6-4-8.4-15.4-6.7-21.9 2.2-5.1 20.1-9.8 24.7-9.8 0.2 0 0.5 0 0.6 0l0.1 0c2.7 1.2 3 7.9 2.2 11.3 2.3 2.3 2.6 8.9-0.1 12.4 0.2 2-0.4 3.8-1.8 5.3C323.4 323.6 318.6 325.4 313.8 325.4zM324.8 292.5c-4.8 0-22.1 4.9-24 9.3 -1.5 6.2 1.1 17.2 6.5 21.1 1.5 1.1 3.8 1.7 6.5 1.7h0c4.6 0 9.2-1.7 11.5-4.3 1.3-1.4 1.8-3.1 1.6-4.9l0-0.2 0.1-0.1c2.6-3.2 2.3-9.7 0.1-11.6l-0.2-0.2 0.1-0.2c0.9-3.3 0.6-9.6-1.6-10.6C325.2 292.6 325 292.5 324.8 292.5z" class="m"/><path d="M311.6 311.6c0.1 0 11.8 0.5 15.4-8.5l0.7 0.3c-1.4 3.6-4 5.7-6.8 7C317.1 312.2 311.6 311.6 311.6 311.6z" class="m"/><path d="M313.6 318.3c0.1 0 9.1 0.6 13.7-3.6l0.5 0.6c-2.1 1.9-5 2.9-7.7 3.4C318.1 319 313.6 318.3 313.6 318.3z" class="m"/><path d="M559.4 126.6c1.5 14.3-27.7 51.2-66.6 74.1 -45.1 26.5-89 35.2-97.6 20.3 -8.5-14.8 20.6-49.3 66.6-74.1C502.6 125.1 544.9 116.5 559.4 126.6z" fill="#4D0000"/><path d="M410.3 216.6c34.1 7 62.1-11.6 90-28.7 22.5-13.2 53.5-32.6 47.3-59 -0.4-2.6-4.2-4.9-8.9-6.5 -19.9 0.7-48.8 9.4-76.9 24.5 -28.9 15.5-51.2 34.9-61.6 50.9C400 206.6 402.7 214.8 410.3 216.6z" fill="#630000"/><path d="M541 148.7c-1.3 11.6-59.3 57.8-101.2 64C459.8 203 532.4 157.3 541 148.7z" fill="#7F0B0B"/><path d="M413.9 228.7c-9.6 0-16.2-2.6-19-7.4 -1.8-3.1-2-7.1-0.7-11.8 5.3-18.5 33-44.3 67.5-62.8 28.3-15.2 58.7-24.6 79.5-24.6 8.2 0 14.4 1.4 18.5 4.3l0.1 0.1 0 0.2c1.5 15-29 52.3-66.8 74.5C464 218.1 433.6 228.7 413.9 228.7zM541.2 122.8c-20.7 0-51 9.4-79.1 24.5 -34.3 18.4-61.9 44-67.1 62.3 -1.3 4.5-1.1 8.3 0.6 11.2 2.6 4.6 9 7 18.3 7 19.7 0 49.8-10.5 78.7-27.5 37.4-22 67.7-58.7 66.5-73.5C555.1 124.1 549.1 122.8 541.2 122.8z" class="n"/><path d="M559.4 126.6c-9.4 17.5-136.4 101-164.2 94.4 -8.5-14.8 20.6-49.3 66.6-74.1C502.6 125.1 544.9 116.5 559.4 126.6z" class="o"/><path d="M431.1 166.7c-8.3 6.3-15.4 12.7-21.1 18.9 9.1 3.3 17.7 8.5 25.2 14.7 5.4 4.7 18.6-2.3 21-9.3C456.5 183.5 444.2 169 431.1 166.7z" class="i"/><path d="M431.8 168.1c3.8 0.8 18.7 10.2 21.1 17.4 2.4 7.2-7.6 14.9-14.5 12 -6.8-2.9-18-12.5-25.2-13.6C415.9 180.1 427.1 169.4 431.8 168.1z" class="j"/><path d="M464.2 145.7c-0.8 0.4-1.6 0.8-2.3 1.2 -8.8 4.7-16.9 9.8-24.3 15 9.8 3.3 19.1 10.4 25.5 19 5.4 7 20.4 0.8 22.5-7.8C488.1 162.9 476.3 149.7 464.2 145.7z" class="i"/><path d="M463.1 147.9c5.6 1.2 17.8 11.1 19.7 18.2 1.9 7.1-5.9 15.9-14.2 13.7 -8.2-2.2-13.5-16.7-27.6-19.7C443.6 157.6 459.6 148.7 463.1 147.9z" class="j"/><path d="M496 132.1c-9 3.1-17.1 6.2-26.4 10.9 9.1 4.1 15.9 12.7 25.3 18.6 8.5 6.2 24.1-1.6 21.7-13.2C509.4 139.5 505.6 134.3 496 132.1z" class="i"/><path d="M495.3 133.3c5 1.4 15.1 10.3 17.3 15.5 2.1 5.1-5.2 13.4-12.4 11.3 -7.2-2.1-17.4-14.4-26.2-17.7C476.6 139.8 490 134.5 495.3 133.3z" class="j"/><path d="M524 124.1c-6.4 1.2-13.4 2.9-20.7 5.2 7.2 3.4 12.9 9.5 19.5 14.4 4.7 3.1 14-0.8 14-6.2C535.3 132.3 529.9 126.4 524 124.1z" class="i"/><path d="M522.6 125.6c4 1.4 10.1 6.5 11.4 10 1.3 3.5-3.9 8-8.5 6.5 -4.6-1.6-13.2-11.2-17.7-12.9C512 127.2 519.8 125.6 522.6 125.6z" class="j"/><path d="M547.8 129.7c-0.1-0.2-0.1-0.5-0.2-0.7 -0.4-2.6-4.2-4.9-8.9-6.5 -2.8 0.1-5.8 0.4-8.9 0.8 3.9 2.6 7.4 6.2 11.6 8.8C543.6 133.5 546.1 132.1 547.8 129.7z" class="i"/><path d="M538.8 123.3c2.8 1 6.9 3.7 7.1 4.7s-1.2 3.6-4.1 2.5c-2.9-1.1-6.4-5.4-9-6.6C534.1 123.1 538.8 123.3 538.8 123.3z" class="j"/><path d="M407.8 188c-3 3.4-5.5 6.7-7.6 9.8 -0.2 7.2 1.6 14.1 6.5 17.3 0.9 0.1 1.8 0.1 2.7-0.1 6.2-1.6 13.7-4.1 15.5-10.1C427.1 198.2 417 189.1 407.8 188z" class="i"/><path d="M427.6 202.8c3.7-2.1 8-0.1 10.7 5.4 -1.9 0.9-6.7 3.1-6.7 3.1C431.1 209.7 429.9 206.5 427.6 202.8z" class="p"/><path d="M431.5 211.9l-0.1-0.4c-0.5-1.4-1.7-4.7-4-8.5l-0.2-0.3 0.4-0.2c1-0.6 2.1-0.9 3.2-0.9 3.1 0 6.1 2.3 8.1 6.4l0.2 0.4 -0.4 0.2c-1.9 0.9-6.7 3.1-6.7 3.1L431.5 211.9zM428.2 203c2 3.4 3.2 6.3 3.7 7.8 1.1-0.5 4.3-2 6-2.8 -1.9-3.6-4.5-5.6-7.2-5.6C429.8 202.4 429 202.6 428.2 203z" class="m"/><path d="M467 193l-5.5 3.1c-0.6-1.5-2.8-6.7-5-9.8C458.2 184.4 463.7 185.9 467 193z" class="p"/><path d="M461.3 196.7l-0.2-0.4c-0.3-0.6-2.6-6.3-4.9-9.7l-0.2-0.3 0.2-0.2c0.5-0.6 1.4-0.9 2.3-0.9 2.6 0 6.4 2.4 8.8 7.7l0.1 0.3L461.3 196.7zM457 186.4c2.1 3.1 4.1 7.7 4.7 9.2l4.8-2.7c-2.3-4.8-5.6-7-8-7C457.9 185.9 457.4 186.1 457 186.4z" class="m"/><path d="M498.1 174.1l-5.5 3.5c-1-2.5-4.6-9.9-6.4-12.5C489.2 162.8 494.7 165.7 498.1 174.1z" class="p"/><path d="M492.5 178.2l-0.2-0.4c-1-2.5-4.6-9.9-6.4-12.4l-0.2-0.3 0.3-0.2c0.7-0.5 1.5-0.8 2.5-0.8 2.7 0 7 2.6 10 10l0.1 0.3L492.5 178.2zM486.8 165.2c1.7 2.7 4.9 9.1 6.1 11.8l4.8-3.1c-2.7-6.4-6.5-9.2-9.2-9.2C487.8 164.7 487.3 164.9 486.8 165.2z" class="m"/><path d="M528.2 153.7l-6.3 4.5c-1.1-2.2-4.9-9.6-8.1-13.3C517.7 142.1 525.2 146.2 528.2 153.7z" class="p"/><path d="M521.8 158.7l-0.2-0.4c-1.1-2.3-4.9-9.5-8.1-13.2l-0.3-0.3 0.3-0.2c0.9-0.6 1.9-1 3.1-1 4.4 0 9.5 4.3 11.9 9.9l0.1 0.3L521.8 158.7zM514.4 145c3 3.6 6.4 10 7.7 12.6l5.6-4c-2.5-5.7-7.5-9.2-11-9.2C515.8 144.4 515.1 144.6 514.4 145z" class="m"/><path d="M547 139.2c0 0-4.8 3.9-5.3 4.3 -1.8-3.7-4.6-8.3-6.7-10.6C537.7 130.6 544.4 135.1 547 139.2z" class="p"/><path d="M541.5 144.1l-0.2-0.4c-1.7-3.4-4.4-8.2-6.6-10.5l-0.3-0.3 0.3-0.3c0.6-0.5 1.3-0.7 2.2-0.7 3.5 0 8.3 3.8 10.4 7.2l0.2 0.3 -0.3 0.2c-0.2 0.2-4.8 3.9-5.3 4.3L541.5 144.1zM535.6 133c2.1 2.4 4.6 6.7 6.2 9.9 1-0.8 3.8-3.1 4.6-3.8 -2.2-3.4-6.7-6.5-9.5-6.5C536.4 132.7 536 132.8 535.6 133z" class="m"/><path d="M408.3 189.6c3.7 1.3 13.9 6.4 14 12.3 0.1 5.9-9.6 10.8-14 9.5 -4.4-1.3-6.9-10.5-6.5-12.4C402.1 196.9 405.7 191.6 408.3 189.6z" class="j"/><path d="M398.8 221.8c-1.4 0-2.6-0.1-3.6-0.4l-0.2 0 -0.1-0.1c-1.8-3.1-2-7.1-0.7-11.8 5.3-18.5 33-44.3 67.5-62.8 28.3-15.2 58.7-24.6 79.5-24.6 8.2 0 14.4 1.4 18.5 4.3l0.3 0.2 -0.2 0.3c-4.5 8.3-35.1 31.4-71.2 53.9 -14.2 8.8-27.5 16.6-39.4 22.8C426.2 215.3 408.4 221.8 398.8 221.8zM395.5 220.7c1 0.2 2.1 0.3 3.3 0.3 14.5 0 47.9-15.3 89.3-41 35-21.7 65.9-44.9 70.8-53.3 -3.9-2.6-9.9-3.9-17.7-3.9 -20.7 0-51 9.4-79.1 24.5 -34.3 18.4-61.9 44-67.1 62.3C393.7 214.1 393.9 217.8 395.5 220.7z" class="a"/><path d="M433.5 225.6c-0.2-24.7-17.8-35.9-25.8-37.2l0.1-0.8c4.3 0.7 10.9 3.8 16.6 10.3 4.5 5.1 9.8 14 9.9 27.6L433.5 225.6z" class="n"/><path d="M464.7 214.9c-0.1-7.8-2.1-14.7-4.7-20.8 -6.9-15.9-20.1-25.7-28.7-27.3l0.1-0.8c12 2.1 33.7 20.3 34.1 48.8L464.7 214.9z" class="n"/><path d="M496.2 198.9l-0.8-0.1c0.9-6.7-0.8-14.2-3.9-22 -1.5-3.7-3.3-7.4-5.6-11 -6.6-10.3-15.2-18.1-22.1-19.5l0.2-0.8c7.2 1.5 15.9 9 22.7 19.6C494 176.5 497.5 188.8 496.2 198.9z" class="n"/><path d="M526.4 175.4c-0.7-6.2-2.8-12.1-5.4-17.7 -6.3-13.2-16.6-23.8-25-25.6l0.2-0.8c12.2 2.6 28.8 22.8 31 44L526.4 175.4z" class="n"/><path d="M545 156.4l-0.8 0c0-4.5-1.2-8.8-3.2-13.1 -4.2-9-11.6-17-18-18.7l0.2-0.7C533 126.6 545 142.1 545 156.4z" class="n"/><path d="M404.8 219.1c7.5 18.1-7 33.4-27.8 45.4 -22.3 12.9-44.5 4.3-52.2-10.7 -10.2-20-3.8-36.3 27.8-45.4C375.8 201.7 398.3 203.5 404.8 219.1z" class="o"/><path d="M389.3 234.5c5.3-7.1 7.5-20 2.1-27.5 -10.2-3.7-24.4-2.8-38.7 1.3 -30.1 8.7-37.4 23.9-29.1 42.6 3.1 2.3 6.7 3.9 10.7 4.5C355.2 257.8 375.4 251.5 389.3 234.5z" class="i"/><path d="M385.1 207.8c4.4 2.7 4.7 23.6-9.5 31 -14.2 7.4-37.5 14.3-46.5 7.1 -9-7.2-7.3-18.9 2.5-26.4C341.3 211.9 372.5 200.1 385.1 207.8z" class="j"/><path d="M354.8 271.2c-13 0-24.9-6.8-30.3-17.3 -4.9-9.6-5.8-18.1-2.7-25.2 3.9-9 14.3-16 30.8-20.7 8.3-2.4 16.6-3.7 23.8-3.7 14.7 0 24.9 5.2 28.9 14.6 6.6 15.9-2.8 31.3-28 45.9C369.9 269 362.4 271.2 354.8 271.2zM376.3 205.1c-7.1 0-15.3 1.3-23.5 3.6 -16.3 4.7-26.5 11.5-30.3 20.3 -3 6.9-2.1 15.2 2.7 24.6 5.2 10.2 16.9 16.8 29.6 16.8 7.4 0 14.8-2.1 22-6.3 24.8-14.3 34.1-29.5 27.7-44.9C400.7 210.1 390.7 205.1 376.3 205.1z" class="a"/><path d="M392.7 275.4c-1.9 1.9-8.4 10.4-11.1 14.3 0.7 1.9 5.4 5.1 5.5 5.1 2-2.5 14.4-17.3 14.6-20.7 0.2-3.4-22.7-21.6-27.4-24.6 -6-3.9-11.7 3.1-7.3 8.4C371 262.6 389.8 272.4 392.7 275.4z" class="q"/><path d="M392.7 275.4c-1.9 1.9-8.4 10.4-11.1 14.3 0.7 1.9 1.9 3.7 2 3.7 2-2.5 15.5-15.3 15.7-18.7 0.2-3.4-20.8-19.1-25.4-22.1 -6-3.9-11.2 0-6.7 5.3C371 262.6 389.8 272.4 392.7 275.4z" class="i"/><path d="M390.7 271.2c-0.1 0.2-5.3-2.8-11.5-6.6 -6.3-3.8-11.3-7-11.2-7.2 0.1-0.2 5.3 2.8 11.5 6.6C385.8 267.8 390.8 271 390.7 271.2z" class="r"/><path d="M387.4 295.2h-0.2c-0.5 0-5.2-3.5-5.9-5.4l-0.1-0.2 0.1-0.2c2.5-3.7 8.6-11.6 10.8-14 -1.5-1.3-5.4-3.7-9.6-6.2 -6.3-3.9-13.5-8.2-15.8-11 -1.7-2.1-2.2-4.6-1.1-6.9 1-2.1 2.9-3.3 5.2-3.3 1.3 0 2.5 0.4 3.7 1.2 4.1 2.6 27.7 21.3 27.5 25 -0.2 2.9-8 12.7-13.8 19.9 -0.3 0.4-0.6 0.7-0.8 1L387.4 295.2zM382.1 289.7c0.7 1.5 4 3.9 5 4.6 0.2-0.2 0.4-0.4 0.6-0.7 9-11 13.6-17.5 13.7-19.5 0.2-3-21.8-20.8-27.2-24.3 -1.1-0.7-2.2-1.1-3.3-1.1 -1.9 0-3.6 1.1-4.5 2.9 -0.9 1.9-0.5 4.2 1 6 2.2 2.6 9.3 7 15.6 10.8 4.7 2.9 8.7 5.3 10 6.6l0.3 0.3 -0.3 0.3C391.1 277.6 384.7 285.9 382.1 289.7z" class="a"/><path d="M350.6 300.3c-5 2.8-2.4 13.2 4.8 14.6 0.9 4.3 5.2 8.5 12.7 7.3 1.1 2.8 7.2 4.6 12.4 0.8 5.2-3.8 11.6-12.9 9.4-23.9 1.7-2.3 1.6-7.2-2.2-11.8 -3.9-4.7-7.8-4.7-10.9-2.7 -2.9-1.7-11.3-5.5-14.9-5.2 -2.5 0.2-10.8 5.7-13.3 11.9C347.4 294.2 350.6 298.6 350.6 300.3z" fill="#C4C4C4"/><path d="M373.9 317.5c0.8-0.5 1.5-1 2.2-1.5C375.2 316.2 374.5 316.8 373.9 317.5z" class="k"/><path d="M389.7 290.5c-0.5-1-1.2-2.1-2.1-3.1 -3.9-4.7-7.8-4.7-10.9-2.7 -2.9-1.7-11.3-5.5-14.9-5.2 -2.5 0.2-10.8 5.7-13.3 11.9 -0.7 1.6 0.1 3.7 0.8 5.6 7.1 1.6 14.4-5.9 15.1-12.7 2.9 11-5.2 21.9-16.5 21.9 0.1 1.4 0.5 2.9 1.3 4.3 8.4 5.2 19.8-0.5 26.1-7.5 -1.3 8.1-9.1 13.8-17 17.3 0.7 0.6 1.4 1.1 2.3 1.5 4.7-0.3 9.9-1.6 13.9-4 -0.4 0.9-2.5 3.4-4.7 3.9 6.2 3.1 12.5-1.8 15.4-7.3 2.6-5.6 4.9-12.3 1.8-19.3C388.6 294.4 389.7 293.1 389.7 290.5z" class="k"/><path d="M387.8 305.1c0.8-4.7 0-10.1-3.9-14 2.4 0.4 4-0.6 4.9-2.2 -0.3-0.5-0.7-1-1.1-1.5 -3.9-4.7-7.8-4.7-10.9-2.7 -2.9-1.7-11.3-5.5-14.9-5.2 -2.5 0.2-10.8 5.7-13.3 11.9 -0.5 1.1-0.3 2.5 0.2 3.8 6.4 1.9 12.9-3.1 15-9.4 0 8.1-6.5 12.7-13.3 14.8 -2.2 1.4-2.9 4.3-2.2 7.2 0.4 0.5 0.9 1 1.5 1.3 10.1 2.3 20.2 0 25.6-8.5 -2.5 9.3-10.9 14.2-19.8 15.3 0.6 1.8 1.8 3.6 3.6 4.9 8.5 0.3 16.8-5.4 20.1-13.2 -0.5 5.5-3.4 10.5-7.7 13.8 0.5 0.2 1.1 0.2 1.4 0.2C379.9 321.4 385.5 312.9 387.8 305.1z" class="l"/><path d="M374 325.6c-2.8 0-5.3-1.2-6.2-2.9 -0.8 0.1-1.6 0.2-2.3 0.2h0c-6 0-9.6-3.8-10.5-7.6 -4.3-1-6.8-5-7.3-8.4 -0.5-3 0.5-5.5 2.5-6.8 -0.1-0.6-0.4-1.4-0.8-2.3 -0.9-2.1-2-4.6-1.2-6.7 2.6-6.5 11-12 13.6-12.2 3.8-0.3 12.1 3.5 15 5.2 1.3-0.8 2.6-1.2 4-1.2 2.5 0 4.9 1.4 7.2 4.1 3.9 4.7 4.1 9.6 2.3 12.2 2 10.3-3.5 19.7-9.6 24.1C378.2 325.2 375.7 325.6 374 325.6zM368.3 321.8l0.1 0.3c0.6 1.6 2.9 2.7 5.6 2.7 1.5 0 3.8-0.4 6.2-2.1 4.2-3.1 11.6-11.9 9.3-23.5l0-0.2 0.1-0.1c1.7-2.3 1.5-6.9-2.2-11.4 -3.3-3.9-6.9-4.8-10.4-2.6l-0.2 0.1 -0.2-0.1c-3-1.8-11.2-5.5-14.7-5.2 -2.4 0.2-10.5 5.6-13 11.7 -0.7 1.8 0.3 4.2 1.2 6.1 0.5 1.1 0.9 2.1 0.9 2.8l0 0.2 -0.2 0.1c-1.9 1.1-2.7 3.3-2.3 6.1 0.5 3.2 2.9 7 6.9 7.8l0.3 0.1 0.1 0.3c0.7 3.6 4 7.2 9.7 7.2 0.8 0 1.7-0.1 2.5-0.2L368.3 321.8z" class="m"/><path d="M350.8 300.7l-0.2-0.7c10-3.3 11.8-8.5 11.8-8.6C362.3 291.4 361.1 297.3 350.8 300.7z" class="m"/><path d="M356.2 315.4c-0.3 0-0.5 0-0.8 0l0-0.8c12.4 0.4 18.4-10 18.5-10.1C373.9 304.4 368.5 315.4 356.2 315.4z" class="m"/><path d="M367.6 322.7l-0.2-0.8c6.6-1.4 10.8-10.1 10.9-10.2C378.3 311.8 374.5 321.3 367.6 322.7z" class="m"/><path d="M389.8 301.2c-0.4-3.6-2.7-6.3-2.8-6.3 0 0 3.1 2.4 3.5 6.3L389.8 301.2z" class="m"/><path d="M382 246.9c4.8 2.6 41.1 8.5 53.9 9.5 12.8 1 69.1-4 84.2-8 3.3-0.9 3.3-3.8-1.7-3 -5 0.8-71.8 7.6-81.7 7.8 -15.7-4.3-45-11.4-50.6-13C380.4 238.5 376.5 244 382 246.9z" class="q"/><path d="M382 246.9c4.8 2.6 41.1 8.5 53.9 9.5 12.8 1 69.1-4 84.2-8 3.3-0.9 3.3-3.8-1.7-3 -5 0.8-71.8 8-81.7 8.1 -15.7-4.3-44.8-9.1-50.4-10.6C380.6 241.3 376.5 244 382 246.9z" class="i"/><path d="M415.5 252.1c-0.1 0.3-6.3-0.7-13.9-2.1 -7.6-1.5-13.7-2.9-13.7-3.2 0.1-0.3 6.3 0.7 13.9 2.1C409.5 250.4 415.6 251.8 415.5 252.1z" class="r"/><path d="M440.1 256.9c-1.7 0-3.2 0-4.2-0.1 -12.9-1-49.1-6.9-54.1-9.6 -2.1-1.1-3.1-2.8-2.7-4.6 0.5-1.9 2.5-3.2 5-3.2 0.7 0 1.4 0.1 2.1 0.3 2.2 0.6 8.1 2.1 15.6 4 11.4 2.9 25.5 6.4 35 9 10.4-0.2 76.6-7 81.6-7.8 2.6-0.4 4.3 0.1 4.5 1.3 0.1 1-0.9 2-2.6 2.5C506.6 252.4 458.9 256.9 440.1 256.9zM384.1 240.2c-2.1 0-3.9 1.1-4.3 2.6 -0.3 1.4 0.5 2.7 2.3 3.7 4.8 2.6 41.3 8.5 53.8 9.5 1.1 0.1 2.5 0.1 4.2 0.1 18.7 0 66.4-4.5 79.9-8.1 1.4-0.4 2.1-1.1 2-1.6 -0.1-0.4-0.6-0.8-2.1-0.8 -0.4 0-0.9 0-1.5 0.1 -5 0.8-71.5 7.6-81.7 7.8h-0.1l-0.1 0c-9.5-2.6-23.6-6.1-35-9 -7.5-1.9-13.4-3.4-15.6-4C385.3 240.3 384.7 240.2 384.1 240.2z" class="a"/><path d="M436.7 253.1c-1.6-0.4-3.3-0.9-5-1.3v4.2c1.6 0.2 3 0.3 4.3 0.4 1.4 0.1 3.4 0.1 5.7 0.1v-3.7C439.4 253 437.7 253.1 436.7 253.1z" class="p"/><path d="M440.1 256.9c-1.7 0-3.1 0-4.2-0.1 -1.2-0.1-2.6-0.2-4.3-0.4l-0.3 0v-5.1l0.5 0.1c1.8 0.5 3.4 0.9 5 1.3 1 0 2.6-0.1 4.9-0.3l0.4 0v4.5l-0.4 0C441.1 256.9 440.6 256.9 440.1 256.9zM432 255.6c1.5 0.2 2.8 0.3 3.9 0.4 1.3 0.1 3.1 0.1 5.3 0.1v-2.9c-2.1 0.1-3.6 0.2-4.6 0.2h-0.1l-0.1 0c-1.4-0.4-2.9-0.8-4.6-1.2V255.6z" class="m"/><path d="M571 245.4c-12.5 6-47 4.1-50.9 0.6 -2.2-2 2.6-7.5 9.1-6.4C535.7 240.8 559.5 245.9 571 245.4z" class="q"/><path d="M571 245.4c-12.5 6-47 4.1-50.9 0.6 -2.2-2 2.6-4.8 9.1-3.6C535.7 243.5 556.3 248.4 571 245.4z" class="i"/><path d="M544.6 249.7c-12 0-22.6-1.5-24.7-3.4 -0.7-0.6-0.8-1.6-0.4-2.6 0.9-2.3 4.1-4.6 8.1-4.6 0.6 0 1.2 0.1 1.8 0.2 1.1 0.2 2.7 0.5 4.6 0.9 9 1.7 25.6 5 35.5 5h0c0.6 0 1.1 0 1.6 0l1.9-0.1 -1.7 0.8C566 248.3 556.3 249.7 544.6 249.7zM527.5 239.9c-3.6 0-6.6 2.1-7.4 4.1 -0.2 0.5-0.3 1.3 0.2 1.8 2 1.8 12.8 3.2 24.2 3.2 10.3 0 19.1-1.1 24.4-3.1 -10-0.1-26.4-3.3-35.3-5 -1.9-0.4-3.5-0.7-4.6-0.9C528.6 239.9 528 239.9 527.5 239.9z" class="a"/><path d="M614.6 173.2c-10.7 8.8-44.7 15.3-49.3 12.8 -2.6-1.4 0.7-7.9 7.3-8.4C579.2 177.2 603.5 176.5 614.6 173.2z" class="q"/><path d="M614.6 173.2c-10.7 8.8-44.7 15.3-49.3 12.8 -2.6-1.4 2.1-5.4 8.7-5.8C580.6 179.7 603.5 176.5 614.6 173.2z" class="i"/><path d="M569 187c-1.9 0-3.2-0.2-3.9-0.6 -0.9-0.5-1.3-1.5-1-2.8 0.5-2.4 3.5-6 8.5-6.3 1.1-0.1 2.7-0.2 4.7-0.3 9.8-0.5 28-1.4 37.2-4.1l1.8-0.5 -1.5 1.2C605.5 181.3 579.2 187 569 187zM612.8 174.1c-9.7 2.3-26.3 3.2-35.5 3.7 -2 0.1-3.6 0.2-4.7 0.3 -4.5 0.3-7.3 3.6-7.8 5.7 -0.1 0.5-0.2 1.5 0.6 1.9 0.4 0.2 1.4 0.5 3.6 0.5C578.5 186.2 602.4 181.2 612.8 174.1z" class="a"/><path d="M398.1 232.5c5.7 2.4 57.6 7.9 79.8 0.6 15.5-7.2 80.3-41.2 87.6-45.7 3.9-2.9 1.6-5.3-2.6-3.2 -4.1 2.1-78.4 39.6-87.2 45.4 -16.9 3.1-70.6-5.3-75.4-5.2C394.5 224.6 390.5 229.3 398.1 232.5z" class="q"/><path d="M398.1 232.5c5.7 2.4 57.6 7.9 79.8 0.6 15.5-7.2 80.3-41.2 87.6-45.7 3.9-2.9 1.6-5.3-2.6-3.2 -4.1 2.1-77.5 41.7-86.3 47.5 -16.9 3.1-70-5.1-74.8-5C395.9 226.9 390.5 229.3 398.1 232.5z" class="i"/><ellipse transform="matrix(0.9917 0.1282 -0.1282 0.9917 33.2477 -51.1998)" cx="414.2" cy="232.6" rx="14.5" ry="0.4" class="r"/><path d="M445 237.2h0c-21.7 0-43.4-2.8-47-4.3 -4.3-1.8-4.6-3.9-4.4-5 0.4-2.1 3.2-3.7 6.7-3.8h0.1c1.5 0 6.2 0.6 12.8 1.4 13.9 1.7 37.1 4.5 52.2 4.5 4.2 0 7.6-0.2 10.1-0.7 9.4-6.2 86.4-45 87.1-45.4 1.1-0.5 2.1-0.8 3-0.8 1.1 0 1.8 0.4 2 1.1 0.3 1-0.4 2.3-2.1 3.5 -7.1 4.4-72 38.5-87.6 45.7C470.8 235.9 459.3 237.2 445 237.2zM400.5 224.9l-0.1 0c-3 0.1-5.7 1.5-6 3.2 -0.3 1.4 1.2 2.9 3.9 4.1 3.5 1.5 25.1 4.2 46.7 4.2h0c14.3 0 25.6-1.2 32.8-3.6 15.5-7.3 80.4-41.3 87.5-45.7 1.6-1.2 1.9-2.1 1.8-2.7 -0.1-0.4-0.6-0.6-1.3-0.6 -0.5 0-1.4 0.1-2.7 0.7 -6.4 3.2-78.5 39.7-87.1 45.4l-0.1 0.1c-2.5 0.5-6 0.7-10.3 0.7 -15.1 0-38.4-2.8-52.3-4.5C406.6 225.5 401.9 224.9 400.5 224.9z" class="a"/><path d="M475.7 229.7c-1.5 0.3-3.3 0.5-5.4 0.6 -0.2 1.5-0.1 3.2 0.5 4.6 2.6-0.5 4.9-1 7.1-1.7 1.4-0.7 3.3-1.6 5.5-2.7 -0.2-1.4-0.9-2.8-2.1-4.1C478.7 227.9 476.8 229 475.7 229.7z" class="p"/><path d="M470.6 235.3l-0.1-0.3c-0.6-1.4-0.8-3.2-0.5-4.8l0-0.3 0.3 0c2.1-0.1 3.8-0.3 5.2-0.5 1-0.7 2.9-1.7 5.5-3.2l0.3-0.1 0.2 0.2c1.3 1.2 2 2.7 2.3 4.3l0 0.3 -0.3 0.1c-2.3 1.1-4.1 2-5.5 2.7 -2.1 0.7-4.5 1.3-7.1 1.8L470.6 235.3zM470.7 230.6c-0.1 1.3 0 2.7 0.4 3.8 2.5-0.5 4.7-1 6.7-1.7 1.3-0.6 3.1-1.5 5.2-2.5 -0.2-1.2-0.8-2.4-1.8-3.4 -2.6 1.4-4.3 2.5-5.3 3.1l-0.1 0.1C474.4 230.3 472.7 230.5 470.7 230.6z" class="m"/><path d="M338.5 234.9c5-15.6 25.4-65.6 56-100.5 30.5-34.9 74.8-67.5 89-59.8 14.1 7.8-24.6 58.8-51 84.9 -26.4 26.1-78.2 71.2-90.6 77.3C338.7 238.5 338.5 234.9 338.5 234.9z" class="b"/><path d="M393.7 177.2l-6 4.5c-2.4 3.8-29.1 40.3-35 44.2 6.7-4.5 22-16.3 22-16.3C376.3 204.3 390.1 182.5 393.7 177.2z" class="c"/><path d="M442.8 144c-5.8 3.6-33.7 20.3-36.8 23.5 -5.2 7-17.2 25.5-19 30.1C395.5 190.1 441.2 147.8 442.8 144z" class="c"/><path d="M476 99.4c-4.5 2.2-27.7 16.9-30.1 18.9 -3.2 4.4-12.3 21.4-13.1 25.7 7-3.7 17.7-10.4 20.4-11.7C457.5 127.6 475 102.4 476 99.4z" class="c"/><path d="M471.3 77.2c-0.3 4.3-5.6 18.7-8.4 23.4 4.9-4.1 15.2-8.6 18.5-9.7C485 82.4 484.3 72.4 471.3 77.2z" class="c"/><path d="M463.8 80.6c-1.8 7.1-9.9 25-12.3 27.3 -5.8 4.1-24.3 16.3-24.3 16.3 5.7-7.5 16.5-27.1 16.9-31.5C448.4 88.4 459.8 82.1 463.8 80.6z" class="c"/><path d="M434.5 100.6c-3.2 8.1-24.2 42.7-28.5 48.1 1.2-7.2 1.4-20.1 1.6-24.6C413.4 117.7 430.8 101.5 434.5 100.6z" class="c"/><path d="M435.1 125.3c-2.8 4.1-9.3 17.2-9.8 23.4 -5.6 3.8-25.1 16.9-25.1 16.9 5.1-6.1 16-22.8 17.4-25.4C421.3 136.4 435.1 125.3 435.1 125.3z" class="c"/><path d="M402.5 129.2c-0.1 2.7-1.4 12.4-2.3 15.4 -3.1 4.8-20.9 25.7-20.9 25.7 1.8-5.5 4.1-15.3 4.1-18.5C387.4 146.1 399.4 131.9 402.5 129.2z" class="c"/><path d="M398.8 154.7c-0.3 2.7-3.1 9.3-3.1 9.3 -1.9 3-25.3 34.2-25.3 34.2 2.3-4.9 4.8-15.7 4.8-15.7C377.3 179.6 396 158.4 398.8 154.7z" class="c"/><path d="M375.1 164.8c-1.3 7.2-11.3 38.9-14.9 44.2 -3.5 5.3-17.6 21.6-17.6 20.9 3.9-9 8-20.7 11-26C356.6 198.6 370 171.7 375.1 164.8z" class="c"/><path d="M473.9 76.3c0.8 0.7-37.6 22.6-72.4 61.9 -34.8 39.3-52.8 81-53.7 80.3 -0.8-0.7 14.9-44.8 49.7-84C432.4 95.2 473.1 75.6 473.9 76.3z" class="d"/><path d="M340.3 237.7c-1.6 0-2.1-1.8-2.2-2.7l0-0.1 0-0.1c5.2-16.2 25.5-65.8 56.1-100.7 25.7-29.4 65.1-61 84.1-61 2.1 0 3.9 0.4 5.3 1.2 1.8 1 2.8 2.6 3.1 4.8 2.1 14.9-30.1 57-54.1 80.7 -27.6 27.3-78.5 71.3-90.7 77.4C341.4 237.5 340.8 237.7 340.3 237.7zM338.9 235c0 0.3 0.3 1.9 1.4 1.9 0.4 0 0.8-0.1 1.3-0.4 11.9-5.9 63.3-50.3 90.5-77.2 23.9-23.5 55.9-65.4 53.8-80 -0.3-2-1.2-3.4-2.7-4.3 -1.3-0.7-3-1.1-5-1.1 -16.7 0-54.2 27.3-83.5 60.8C364.4 169.4 344.2 218.8 338.9 235z" class="e"/><path d="M339.5 237.1l-0.5-0.6c13.3-12.1 36.9-41 60-73.6 24-33.9 40.2-61.5 42.3-72l0.8 0.1c-2.1 10.8-17.9 37.9-42.4 72.3C376.4 196 352.8 225 339.5 237.1z" class="e"/><path d="M386.9 180.9l-0.5-0.6c23.9-22.6 67.7-45.4 68.1-45.6l0.4 0.7C454.4 135.6 410.8 158.3 386.9 180.9z" class="e"/><path d="M360.9 213.9l-0.7-0.4c12.7-22.6 20.6-62.1 20.7-62.5l0.8 0.1C381.7 151.5 373.7 191.2 360.9 213.9z" class="e"/><path d="M377.8 209.6l-0.7-0.3c6.4-14.6 26.1-42.7 26.3-43l0.6 0.4C403.9 167 384.2 195 377.8 209.6z" class="e"/><path d="M416.8 138.2l-0.5-0.6c24.1-23.4 66.2-44.9 66.6-45.1l0.4 0.7C482.8 93.4 440.8 114.9 416.8 138.2z" class="e"/><path d="M453.8 110.2l-0.6-0.5c10.4-12.3 15.7-34.3 15.8-34.5l0.8 0.2C469.6 75.6 464.3 97.7 453.8 110.2z" class="e"/><path d="M398 165.6l-0.7-0.3c6.4-14.5 7.9-42.6 7.9-42.9l0.8 0C405.9 122.7 404.5 151 398 165.6z" class="e"/><path d="M428 150.5l-0.8-0.1c2.8-14.3 16.2-34.2 16.3-34.4l0.6 0.4C444.1 116.6 430.8 136.4 428 150.5z" class="e"/><path d="M374.3 180.2l-0.5-0.6c8.1-6.9 28.6-33.7 28.8-34l0.6 0.5C403 146.4 382.5 173.3 374.3 180.2z" class="e"/><path d="M296.7 306.6c8.3 2.3 31.6-6.6 40.5-19 8.9-12.4 10.6-33.6-6.3-39.5 -3.5-9.6-12.9-21.5-29.5-22.2 -16.6-0.8-51.6 16.6-40.7 41.5 2.1 7.4-10 26.1-21.9 37.2 -11.9 11.1-67.8 63.8-77.1 76.2 15.8-9.1 88-77 107.4-86.1 1.8 2.8 8.9 4 13.4-1.4 4.5-5.3 10.9-16.9 19.4-21.1 8.5-4.3 17.8 5.6 12.6 15 -5.1 9.4-24.2 13.5-29.8 12.5 -5.6-1-5.9-2.7-8.1-1.3 -2.2 1.5 0.3 6.3 5.1 8.6C286.5 309.6 293.4 309.1 296.7 306.6z" class="o"/><path d="M327.7 249.3c-3.5-9.6-9.7-22.6-26.3-23.4 -16.6-0.8-51.6 16.6-40.7 41.5 2.1 7.4-10 26.1-21.9 37.2 -11.9 11.1-67.8 63.8-77.1 76.2 16.9-14.7 82.8-75.8 105-88.5 4-2.2 9-1.9 12.4-0.5 -1.7 0.3-4.6 1.5-5.4 2.3 1.4 0.8 6.2 2.3 8.7-0.8 4.5-5.3 10.9-16.9 19.4-21.1 8.5-4.3 17.8 5.6 12.6 15 -5.1 9.4-24.2 13.5-29.8 12.5 -5.6-1-5.9-2.7-8.1-1.3 -2.2 1.5 0.9 3.5 5.7 5.9 4.9 2.3 11.4 1.4 14.7-1.1 8.3 2.3 26.9-5.8 36.3-17.9C340.6 276 341.8 256.9 327.7 249.3z" class="i"/><path d="M265.8 247.7c6.6-4.4 16.3-9 30.4-3.2 14.1 5.8 20.7 5.4 27.7 4.1 -0.7-5.5-5.9-16.2-14.2-19.2 -3.8-1.4-13.2-2.1-21.7 0.5C277.9 232.9 268.7 240.1 265.8 247.7z" class="j"/><path d="M302.2 267.7c7.1-0.8 13.9 1.2 16.2 7.4 2.2 6.3 0.1 15.4-4.8 18.3 10-2.2 19-9.6 20.9-17.9 1.8-8.3-1.6-20.6-9.1-22.5C317.8 251 304.7 261.3 302.2 267.7z" class="j"/><path d="M296.3 254.5c1.2 2.1 3 10 1.5 14.7 3.9-6 9.5-12.1 13.8-13.9C306.9 254.8 299.9 250.1 296.3 254.5z" class="j"/><path d="M273.6 287.4c5.6-0.3 7.3-4.5 1.9-5.4 -5.4-1-12.3-3.1-14.4-4.7 -4.8 9.3-46.1 52.9-63.7 68.4C213.6 332.3 259.3 288.1 273.6 287.4z" class="j"/><path d="M299.9 250.1c-4.5 1.3-11.1 4-12.9 8.1 -1.9 4-2.2 16.1-8.8 19.7 -6.6 3.6-15.4-0.8-17.1-3.6 1.7-4.8 13.9-15.3 17.4-18.6C282 252.3 290.8 247.6 299.9 250.1z" class="q"/><path d="M160.3 382.2l1.1-1.5c9.4-12.6 66.3-66.2 77.1-76.3 11.5-10.7 23.8-29.5 21.7-36.8 -3.3-7.6-2.7-15.1 1.9-22.1 7.8-11.9 26-20 38.1-20 0.4 0 0.8 0 1.1 0 16.1 0.8 25.9 12 29.8 22.3 5.9 2.1 10.1 6.3 11.9 12.1 2.7 8.3 0.4 19.5-5.6 27.9 -7.8 10.8-27 19.5-37.6 19.5 -1.2 0-2.2-0.1-3.1-0.3 -1.9 1.3-4.8 2.1-8 2.1h0c-2.6 0-5.3-0.6-7.4-1.6 -3.8-1.8-6-5-6.2-7.1 -0.1-1 0.3-1.7 1-2.2 1.4-0.9 2.2-0.7 3.7-0.1 1 0.4 2.4 0.9 4.7 1.3 0.5 0.1 1.2 0.1 1.9 0.1 7.4 0 22.9-4.2 27.5-12.5 1.9-3.5 1.9-7.4 0-10.7 -1.8-3-4.8-4.8-8.1-4.8 -1.4 0-2.7 0.3-4 1 -6.3 3.1-11.4 10.3-15.5 16 -1.4 1.9-2.7 3.7-3.8 5.1 -2.8 3.4-6.3 3.9-8.1 3.9 -2.4 0-4.7-0.9-5.7-2.3 -11.1 5.4-38.8 29.2-63.2 50.2 -19 16.3-36.9 31.7-43.8 35.7L160.3 382.2zM300.3 226.3c-11.9 0-29.8 7.9-37.5 19.6 -4.4 6.8-5.1 14-1.8 21.4 2.2 7.7-10 26.5-21.9 37.6 -10.4 9.6-63 59.3-75.6 74.4 7.9-5.3 24.4-19.5 41.8-34.4 24.7-21.2 52.7-45.3 63.7-50.5l0.3-0.1 0.2 0.3c0.9 1.3 3 2.2 5.3 2.2 1.7 0 4.9-0.5 7.5-3.6 1.1-1.3 2.4-3.1 3.8-5 4.1-5.8 9.3-13 15.8-16.2 1.4-0.7 2.9-1.1 4.4-1.1 3.5 0 6.8 2 8.7 5.2 2.1 3.5 2.1 7.7 0 11.4 -4.7 8.6-20.6 12.9-28.2 12.9 -0.8 0-1.5 0-2-0.1 -2.4-0.4-3.8-0.9-4.8-1.3 -1.4-0.5-1.9-0.7-3 0 -0.5 0.3-0.7 0.8-0.6 1.5 0.1 1.9 2.3 4.8 5.7 6.5 2 1 4.5 1.5 7 1.5 3 0 5.9-0.8 7.7-2l0.2-0.1 0.2 0.1c0.8 0.2 1.9 0.4 3 0.4 10.5 0 29.4-8.6 37-19.2 5.9-8.1 8.1-19.1 5.5-27.2 -1.8-5.6-5.8-9.7-11.6-11.7l-0.2-0.1 -0.1-0.2c-3.7-10.1-13.3-21.2-29.1-22C301 226.3 300.7 226.3 300.3 226.3z" class="a"/><ellipse cx="280.9" cy="264.6" rx="14.2" ry="17.4" fill="#FF9E52"/><path d="M290.2 252.5c-2.4 0.5-4 2.6-4.9 4.5 -4.4 9.4-7.4 17.4-15.2 19 0.6 0.9 1.3 1.7 2 2.4 5.7 3.4 13.5 3.3 17.6-2.9C294.7 269.4 294.2 259.8 290.2 252.5z" fill="#FFBD61"/><path d="M279.9 273.3c-0.7 1.8-2.3 3.4-4.3 4.4 2.9 2.2 7.5 1.6 10.1-0.4 6.4-5.4 8.3-14.4 4.3-22.2C284.8 259.7 283.2 267.3 279.9 273.3z" fill="#FFDB6B"/><path d="M280.9 282.4c-8 0-14.6-8-14.6-17.8s6.6-17.8 14.6-17.8c8.1 0 14.6 8 14.6 17.8S289 282.4 280.9 282.4zM280.9 247.6c-7.6 0-13.8 7.6-13.8 17 0 9.4 6.2 17 13.8 17 7.6 0 13.8-7.6 13.8-17C294.8 255.2 288.6 247.6 280.9 247.6z" class="a"/><ellipse transform="matrix(0.7312 -0.6822 0.6822 0.7312 -111.5059 264.1655)" cx="279.4" cy="273.6" rx="5.4" ry="5.5" fill="#730000"/><path d="M283.4 269.9c2.1 2.2 2 5.7-0.2 7.8 -2.2 2-5.7 1.9-7.7-0.3C278.8 277.5 284.2 275.5 283.4 269.9z" fill="#930000"/><path d="M283.5 277.9c-2.3 2.2-6.1 2-8.3-0.4 -2.2-2.4-2.1-6.1 0.2-8.3 2.3-2.2 6.1-2 8.3 0.4C285.9 272 285.8 275.7 283.5 277.9zM275.9 269.8c-2 1.9-2.1 5.1-0.2 7.2 1.9 2.1 5.2 2.2 7.2 0.3 2-1.9 2.1-5.1 0.2-7.2C281.2 268.1 278 267.9 275.9 269.8z" fill="#490000"/><ellipse cx="278.5" cy="275.5" rx="2.9" ry="2.9" fill="#130000"/><ellipse cx="278.5" cy="271.9" rx="1.6" ry="1.6" class="p"/><ellipse cx="280.7" cy="274.2" rx="0.6" ry="0.7" class="p"/><path d="M277.8 243.3c0 0-16.3 5.8-21.5 17.8s9.9 20.1 16.9 11.3c5.3-6.7 6.9-16.5 13.1-20.4 6.2-4 13.6-1.9 13.6-1.9" class="q"/><path d="M279.4 242.9c0 0-17.8 6.3-23.1 18.2s8.1 15.4 15 6.6c5.3-6.7 6.3-12.8 12.5-16.7 6.2-4 16.1-1.2 16.1-1.2" class="i"/><path d="M292.1 246.2c-3.4-0.5-10.6 1.3-13.9 6.4 -3.2 5.1-5.9 12-11.8 15.5 -5.9 3.5-11.9-0.6-9-7.3 2-4.4 9.9-12.9 19.4-15.8C281.8 243.6 287 243.6 292.1 246.2z" class="j"/><path d="M265.8 276.4c-2.1 0-4.1-0.6-5.7-1.6 -4-2.4-6.8-7.7-4-13.9 2.6-6 8-10.4 12.8-13.4 4.8-3 9.2-3.8 9.2-3.8 -0.2 0.1-16.2 5.9-21.3 17.5 -2.7 6.2 0.3 10.9 3.7 12.9 3.5 2.1 9 2.4 12.5-2 2.2-2.7 3.7-6 5.2-9.2 2.2-4.6 4.2-8.9 8-11.3 6.3-4 13.8-1.5 13.8-1.5 -0.1 0-7.4-1.7-13.4 2.2 -3.5 2.3-5.6 6.5-7.7 11 -1.5 3.2-3.1 6.5-5.3 9.3C271.3 275.4 268.5 276.4 265.8 276.4z" class="a"/><path d="M265.8 297l-0.4-0.6c4.7-3.1 9.2-3.4 9.2-3.4C274.5 293 270.3 294.1 265.8 297z" class="a"/><path d="M251.4 258.8c-11.6-19.8-10.1-41.3-6.8-55.9 1.2-5.1 2.6-9.5 3.9-13.1 2.1-5.6 4.5-8.6 4.5-8.6 0 0.1-4.7 9-7.7 21.8 -3.3 14.4-4.8 35.7 6.7 55.3L251.4 258.8z"/><path d="M250.6 186.9l-0.6-0.5c1.7-2.2 5.1-1.8 5.1-1.8C255 184.6 252.1 185 250.6 186.9z"/><path d="M247.6 193.6l0-0.8c-0.1-2.5-1.7-5.5-1.7-5.5 0 0 2.1 2.3 2.5 4.7 3.3-2.3 5.6-1.1 5.6-1.1 0 0-2.4-0.5-5.6 2.1L247.6 193.6z"/><path d="M244.4 205.7l-0.1-0.9c-0.6-4.1-3.6-7.7-3.6-7.7 0 0 3.4 2.8 4.2 6.8 3.1-3.5 6.7-3.6 6.7-3.6 0 0-3.6 0.9-6.6 4.7L244.4 205.7z"/><path d="M243 215l-0.2-0.7c-1.1-3.8-3.8-6.5-3.8-6.5 0 0 3 1.9 4.3 5.5 2.6-3.2 5.5-2.8 5.5-2.8 0 0-2.8 0.4-5.3 3.8L243 215z"/><path d="M242.6 226.4l-0.3-0.8c-1.1-3.1-4.2-4.9-4.2-4.9 0 0 3.3 1 4.6 3.9 1.9-2.9 4.6-2.5 4.6-2.5 -0.1 0-2.6 0.4-4.4 3.6L242.6 226.4z"/><path d="M243.7 237.2l-0.4-0.8c-1.9-3.7-5.2-5-5.2-5.1 0 0 3.5 0.6 5.5 4 1.8-3.9 4.6-3.5 4.6-3.5 -0.1 0-2.6 0.4-4.2 4.5L243.7 237.2z"/><path d="M245.9 245.6l-0.5-0.6c-1.9-2.5-5-3.6-5-3.6 0 0 3.1 0.3 5.2 2.5 1.2-3.9 4.6-4.2 4.6-4.2 -0.1 0-3.1 1-4.1 5.1L245.9 245.6z"/><path d="M248.6 252.4l-0.6-0.4c-2.6-1.8-5.3-2.7-5.3-2.7 0 0 2.7 0.1 5.2 1.7 0.4-4 2.9-4.7 2.9-4.7 0 0-2 1.3-2.2 5.4L248.6 252.4z"/><path d="M258.6 255.6c-4.2-22.6 4.5-42.3 12.6-54.8 2.8-4.4 5.7-8.1 8.1-10.9 3.8-4.5 7.2-6.6 7.2-6.6 -0.1 0.1-7.5 6.8-14.7 17.9 -8 12.4-16.7 31.9-12.5 54.3L258.6 255.6z"/><path d="M282.3 187.6l-0.4-0.7c2.3-1.4 5.4 0 5.4 0C287.3 187 284.3 186.4 282.3 187.6z"/><path d="M277.2 193l0.2-0.7c0.8-2.4 0.2-5.7 0.2-5.8 0 0 1.2 2.9 0.7 5.3 3.9-1.1 5.6 0.9 5.6 0.9 0 0-2.1-1.3-6 0.1L277.2 193z"/><path d="M270.1 203.3l0.2-0.9c0.9-4.1-0.7-8.5-0.7-8.5 0 0 2.2 3.8 1.7 7.8 4.1-2.2 7.5-1.1 7.5-1.1 0 0-3.7-0.4-7.9 2.2L270.1 203.3z"/><path d="M265.6 211.5l0-0.8c0.2-4-1.4-7.4-1.4-7.4 0 0 2.2 2.9 2.2 6.7 3.5-2.1 6.1-0.8 6.1-0.8 0 0-2.7-0.6-6.3 1.8L265.6 211.5z"/><path d="M261.3 222.1l0-0.9c0-3.3-2.3-6-2.3-6 0 0 2.7 2 3 5.3 2.8-2.1 5.2-0.8 5.2-0.8 -0.1 0-2.6-0.6-5.3 1.9L261.3 222.1z"/><path d="M258.7 232.6l-0.1-0.8c-0.5-4.1-3.1-6.5-3.2-6.5 0 0 3.1 1.7 3.8 5.6 3-3 5.5-1.7 5.5-1.7 -0.1 0-2.6-0.5-5.5 2.8L258.7 232.6z"/><path d="M257.9 241.3l-0.3-0.8c-1-3-3.5-5-3.5-5.1 0 0 2.8 1.3 4 4.1 2.5-3.3 5.8-2.4 5.8-2.4 -0.1 0-3.3-0.1-5.6 3.4L257.9 241.3z"/><path d="M258.1 248.5l-0.4-0.6c-1.8-2.6-4.1-4.3-4.1-4.3 0 0 2.5 1 4.3 3.4 1.8-3.6 4.4-3.4 4.4-3.4 0 0-2.3 0.6-3.9 4.3L258.1 248.5z"/></g></svg>