<svg version="1.1" id="Layer_1" xmlns="http://www.w3.org/2000/svg" xmlns:xlink="http://www.w3.org/1999/xlink" viewBox="0 0 768 430" enable-background="new 0 0 768 430" xml:space="preserve">
<g transform="matrix(1.5427 0 0 1.5427 -478.79 589.22)">
	<g>
		<path fill="#70B8B6" stroke="#FFFFFF" stroke-width="4.8733" d="M452.025-205.332c4.979-15.542,13.505-28.832,20.982-43.2
			c7.378-14.182,20.385-24.666,33.726-33.255c12.842-8.272,27.085-18.804,42.93-19.083c16.377-0.29,31.661,3.7,46.35,10.188
			c9.876,4.364,17.968,8.621,26.829,14.757c7.501,5.188,13.314,13.343,18.757,20.529c5.628,7.412,8.758,16.87,12.089,25.471
			c2.769,7.159,5.655,17.375,5.973,25.031C590.448-205.042,521.234-205.183,452.025-205.332"/>
		<path fill="#70B8B6" stroke="#FFFFFF" stroke-width="4.8733" d="M571.348-353.121c-4.916,0.4-9.338,2.254-13.928,3.709
			c-4.544,1.433-7.894,3.27-11.4,7.061l-3.048,4.745c-8.701,5.733-14.404,15.489-13.181,26.706
			c1.799,16.507,15.789,28.998,32.697,27.155c0.165-0.018,0.327-0.047,0.491-0.064c-0.295-0.23-0.59-0.454-0.877-0.685
			c16.517,0.554,28.464-16.119,26.748-31.863c-0.612-5.62-2.862-10.803-6.185-15.107c2.213,0.123,4.459,0.061,6.869-0.557
			c-2.53-1.315-5.046-2.644-7.575-3.959c3.873-0.955,7.746-1.899,11.62-2.846c-3.895-0.784-8.691-0.359-12.689-1.22
			c-2.135-0.458-4.721,0.659-6.913,0.921c-0.591-0.343-1.225-0.598-1.84-0.899c3.911-1.879,7.838-3.749,11.748-5.628
			c0.567-0.276-0.531,0.001-0.62-0.021c-4.726-2.277-12.065,1.315-16.885,1.84c-1.476,0.161-3.251,0.632-4.964,1.027
			c-1.441-0.074-2.884-0.161-4.366,0c-1.368,0.149-2.682,0.495-4.001,0.813c4.315-3.779,15.82-9.529,18.296-11.128H571.348z"/>
	</g>
	<path fill="#70B8B6" stroke="#FFFFFF" stroke-width="4.2973" d="M550.929-239.596l15.145-12.95l17.097,13.848l16.622-14.24
		l14.82,14.328l14.524-13.416l13.438,14.825l5.657-5.85c4.245,9.821,6.224,15.42,8.38,25.636l-101.925-2.995
		c-6.621-1.779-89.47,13.721-101.752,15.953c1.941-10.809,6.552-20.474,12.689-31.283l15.741-15.26l14.215,12.587l13.834-15.261
		l13.507,14.892l16.172-13.353c3.594,4.317,12.123,13.394,11.832,12.538H550.929z"/>
	<path fill="#70B8B6" stroke="#FFFFFF" stroke-width="4.8733" d="M446.286-205.135c-7.824,11.773-17.765,26.966-14.496,42.143
		c1.565,7.282,8.636,12.533,15.162,15.051c1.477,0.57,7.473,2.597,8.529,2.148c4.63-1.959,8.93-3.518,13.783-4.819
		c31.779-8.498,64.487-7.831,97.049-8.42c17.099-0.304,34.197,0.767,51.295,1.338c9.531,0.313,19.044,0.685,28.567,1.143
		c7.532,0.364,15.642-0.608,23.079,0.411c14.921,2.049,3.364-37.224,0.915-43.844c-1.285-3.479-2.612-6.906-4.362-10.175
		c-1.92-3.608-5.738-4.186-9.689-5.855c-7.42-3.128-15.483-5.814-23.448-7.085c-31.969-5.082-65.115-6.385-97.362-2.871
		c-15.06,1.641-30.245,1.41-45.039,5.202c-7.622,1.952-14.985,4.227-22.315,7.109c-6.033,2.376-18.117,4.401-22.329,9.608"/>
</g>
</svg>
