<?xml version="1.0" encoding="utf-8"?>
<!-- Generator: Adobe Illustrator 16.0.0, SVG Export Plug-In . SVG Version: 6.00 Build 0)  -->
<!DOCTYPE svg PUBLIC "-//W3C//DTD SVG 1.1//EN" "http://www.w3.org/Graphics/SVG/1.1/DTD/svg11.dtd">
<svg version="1.1" id="Layer_1" xmlns="http://www.w3.org/2000/svg" xmlns:xlink="http://www.w3.org/1999/xlink" x="0px" y="0px"
	 width="768px" height="430px" viewBox="0 0 768 430" enable-background="new 0 0 768 430" xml:space="preserve">
<g>
	<path fill="#8798A1" d="M317.539,135.292c0,0-13.474-25.23-24.655-28.67c-11.182-3.44-24.942,8.577-32.97,5.006
		c3.44,6.175,3.728,29.11,19.208,37.138c15.482,8.028,35.55-0.86,38.417-3.44C317.826,140.738,317.539,135.292,317.539,135.292z"/>
	<path fill="#AFC2CB" d="M317.539,135.292c0,0-13.474-25.23-24.655-28.67c-11.182-3.44-24.942,8.577-32.97,5.006
		c7.382,6.033,8.888,25.958,24.368,33.985c15.482,8.028,30.946,0.064,33.813-2.516C318.383,138.509,317.539,135.292,317.539,135.292
		z"/>
	<path fill="#354852" d="M293.629,152.481L293.629,152.481c-5.493,0-10.44-1.122-14.705-3.333
		c-11.384-5.903-14.714-19.892-16.916-29.147c-0.832-3.495-1.551-6.513-2.469-8.165l-0.627-1.126l1.177,0.525
		c0.959,0.426,2.032,0.633,3.282,0.633c3.21,0,7.024-1.392,11.062-2.865c4.628-1.689,9.414-3.437,14.061-3.437
		c1.605,0,3.125,0.216,4.517,0.645c11.222,3.453,24.355,27.842,24.908,28.878l0.051,0.181c0.003,0.054,0.285,5.524-0.002,10.083
		l-0.01,0.175l-0.13,0.118C315.736,147.527,305.126,152.481,293.629,152.481z M260.757,112.389c0.748,1.779,1.353,4.324,2.088,7.412
		c2.167,9.104,5.441,22.861,16.475,28.584c4.143,2.146,8.956,3.235,14.31,3.235c11.043,0,21.187-4.604,23.491-6.503
		c0.246-4.139,0.03-8.97-0.006-9.708c-0.87-1.602-13.793-25.126-24.358-28.377c-1.309-0.403-2.744-0.607-4.263-0.607
		c-4.497,0-9.209,1.721-13.767,3.384c-4.111,1.5-7.994,2.918-11.356,2.918C262.418,112.729,261.554,112.616,260.757,112.389z"/>
	<path fill="#F28B8B" d="M273.389,118.006c0,0,13.187-4.881,20.929,1.902c7.739,6.782,9.46,19.972,17.488,22.264
		C294.604,147.619,276.254,143.064,273.389,118.006z"/>
	<path fill="#FCC5C5" d="M293.745,125.83c-3.815-6.102-12.365-5.437-19.65-3.41c4.064,19.442,18.861,24.138,33.75,20.815
		C301.51,139.331,298.396,131.811,293.745,125.83z"/>
	<path fill="#354852" d="M299.368,144.65c-8.725,0-23.759-3.456-26.408-26.596l-0.037-0.334l0.317-0.116
		c0.19-0.07,4.725-1.728,10.095-1.728c4.668,0,8.458,1.248,11.265,3.708c3.449,3.022,5.679,7.21,7.836,11.262
		c2.649,4.975,5.15,9.674,9.488,10.912l1.373,0.393l-1.361,0.43C307.601,143.956,303.373,144.65,299.368,144.65z M273.856,118.301
		c2.681,22.167,17.118,25.489,25.512,25.489c3.541,0,7.262-0.557,11.084-1.658c-3.927-1.777-6.289-6.211-8.774-10.881
		c-2.121-3.982-4.314-8.103-7.644-11.02c-2.647-2.319-6.246-3.495-10.699-3.495C278.917,116.737,274.978,117.928,273.856,118.301z"
		/>
	<path fill="#8798A1" d="M498.123,296.781c0,0,12.327,3.154,11.467-8.602c-0.86-11.754-10.321-29.242,13.188-35.264
		c-20.068,10.893-4.873,31.107-7.166,45.871c-1.614,10.391-9.46,16.055-14.908,16.342
		C495.256,310.541,494.674,296.396,498.123,296.781z"/>
	<path fill="#AFC2CB" d="M498.123,296.781c0,0,12.327,3.154,11.467-8.602c-0.86-11.754-10.321-29.242,13.188-35.264
		c-21.788,8.854-7.885,29.959-10.177,44.725c-1.615,10.391-7.741,12.615-13.189,12.9
		C493.963,305.955,494.674,296.396,498.123,296.781z"/>
	<path fill="#354852" d="M500.555,315.568l-0.128-0.109c-4.352-3.664-5.785-13.402-4.348-17.35c0.534-1.459,1.331-1.766,1.908-1.766
		l0.183,0.01c0.074,0.014,1.538,0.381,3.375,0.381c1.814,0,4.313-0.363,5.93-2.102c1.326-1.428,1.895-3.588,1.687-6.422
		c-0.166-2.273-0.656-4.752-1.174-7.377c-2.165-10.963-4.62-23.391,14.684-28.334l3.361-0.859l-3.049,1.652
		c-13.181,7.156-10.798,18.557-8.492,29.58c1.138,5.428,2.31,11.043,1.544,15.979c-1.719,11.059-9.986,16.428-15.31,16.705
		L500.555,315.568z M497.987,297.203c-0.547,0-0.899,0.652-1.1,1.201c-1.208,3.314-0.148,12.65,3.964,16.285
		c4.902-0.367,12.727-5.623,14.334-15.969c0.743-4.783-0.364-10.07-1.535-15.672c-2.195-10.494-4.458-21.322,6.138-28.791
		c-15.136,5.246-12.924,16.451-10.957,26.41c0.523,2.65,1.018,5.154,1.188,7.48c0.226,3.08-0.42,5.459-1.914,7.068
		c-1.446,1.555-3.715,2.377-6.561,2.377c-1.95,0-3.466-0.379-3.529-0.396L497.987,297.203z"/>
	<path fill="#8798A1" d="M456.264,249.764c0,0,24.945,5.16,42.718,36.695c17.775,31.537,4.875,79.988-30.101,93.178
		c-25.23,1.432-49.599-11.859-53.325-20.408C411.828,350.678,444.223,251.195,456.264,249.764z"/>
	<path fill="#AFC2CB" d="M498.981,286.459c-13.438-22.074-29.812-30.842-38.691-35.453c4.373,22.139,9.424,47.061-2.88,67.562
		c-8.892,14.824-17.135,30.289-20.348,47.488c7.292,0.051,16.074-0.488,25.89-1.047C497.93,351.82,517.807,317.381,498.981,286.459z
		"/>
	<path fill="#EBF8FC" d="M453.721,252.916c0,0,22.502,4.711,38.993,28.971c-9.32-10.703-29.517-22.42-40.054-24.355
		C450.94,256.24,452.066,252.48,453.721,252.916z"/>
	<path fill="#354852" d="M465.078,380.172c-23.703,0-46.271-12.406-49.918-20.771c-3.066-7.031,18.108-75.404,32.59-100.666
		c3.475-6.061,6.243-9.133,8.465-9.398l0.068-0.006l0.069,0.012c0.251,0.051,25.338,5.562,43.005,36.906
		c9.302,16.502,10.616,38.016,3.521,57.547c-6.375,17.545-18.397,30.418-33.848,36.244l-0.127,0.025
		C467.646,380.137,466.359,380.172,465.078,380.172z M456.246,250.199c-1.323,0.207-3.731,1.955-7.752,8.965
		c-14.409,25.135-35.561,92.975-32.546,99.891c3.557,8.158,25.754,20.258,49.13,20.258c1.242,0,2.489-0.035,3.712-0.104
		c15.185-5.746,27-18.424,33.279-35.707c7.014-19.299,5.718-40.545-3.461-56.834C481.589,256.471,457.71,250.535,456.246,250.199z"
		/>
	<path fill="#354852" d="M450.612,341.439l-0.736-0.441c6.841-11.402,26.154-25.91,26.154-25.91
		C475.843,315.236,457.375,330.168,450.612,341.439z"/>
	<path fill="#67808C" d="M473.346,378.83c-14.077,11.303-32.518,11.711-41.186,0.916c-8.671-10.801-4.286-28.715,9.792-40.018
		c14.077-11.303,32.516-11.707,41.185-0.912C491.807,349.615,487.421,367.529,473.346,378.83z"/>
	<path fill="#8798A1" d="M435.049,371.895c15.481,7.742,32.683,1.719,43.005-10.32c5.111-5.109,7.367-11.646,7.49-18.896
		c-0.646-1.361-1.442-2.656-2.407-3.861c-8.669-10.795-27.107-10.391-41.185,0.912c-8.793,7.061-13.804,16.699-14.215,25.572
		C429.798,367.943,432.423,370.143,435.049,371.895z"/>
	<path fill="#354852" d="M450.058,388.014c-7.617,0-14.093-2.84-18.233-8c-8.804-10.965-4.382-29.188,9.858-40.621
		c7.104-5.703,15.47-8.844,23.553-8.844c7.619,0,14.095,2.84,18.236,7.998c4.28,5.332,5.599,12.502,3.717,20.193
		c-1.872,7.648-6.692,14.902-13.573,20.428C466.511,384.871,458.145,388.014,450.058,388.014z M465.235,331.408
		c-7.888,0-16.062,3.074-23.013,8.656c-13.87,11.135-18.233,28.814-9.729,39.41c3.977,4.951,10.213,7.68,17.563,7.68
		c7.892,0,16.065-3.074,23.019-8.658c6.734-5.408,11.451-12.496,13.277-19.961c1.816-7.426,0.555-14.332-3.551-19.447
		C478.826,334.135,472.588,331.408,465.235,331.408z"/>
	<path fill="#FDD4A8" d="M470.024,339.5c5.57,1.391,9.025-0.584,10.852-3.043c-4.444-3.955-10.553-5.756-17.135-5.432
		C463.691,333.957,464.626,338.148,470.024,339.5z"/>
	<path fill="#FDF7EB" d="M470.024,337.922c5.57,1.391,9.025,0.994,10.852-1.465c-4.444-3.955-10.553-5.756-17.135-5.432
		C463.691,333.957,464.626,336.572,470.024,337.922z"/>
	<path fill="#354852" d="M473.528,340.389L473.528,340.389c-1.136,0-2.349-0.158-3.606-0.473c-5.862-1.467-6.658-6.205-6.61-8.9
		l0.007-0.4l0.402-0.02c0.508-0.027,1.012-0.039,1.514-0.039c6.316,0,11.824,1.93,15.928,5.58l0.296,0.262l-0.234,0.316
		C479.975,338.391,477.627,340.389,473.528,340.389z M464.172,331.436c0.046,2.91,1.164,6.447,5.957,7.645
		c1.193,0.299,2.334,0.449,3.399,0.449c3.487,0,5.577-1.572,6.759-3.016C476.145,332.98,470.534,331.213,464.172,331.436z"/>
	<path fill="#FDD4A8" d="M480.062,352.973c-0.3,4.949,2.934,7.443,5.829,8.605c1.942-5.539,2.25-11.176,0.729-16.141
		C484.007,346.328,480.335,348.391,480.062,352.973z"/>
	<path fill="#FDF7EB" d="M486.621,345.438c-2.614,0.891-6.286,2.953-6.559,7.535c-0.16,2.646,0.127,3.879,1.396,5.295
		c2.748-3.863,5.12-7.553,5.249-12.486C486.677,345.668,486.653,345.549,486.621,345.438z"/>
	<path fill="#354852" d="M486.148,362.143l-0.416-0.166c-2.424-0.973-6.438-3.436-6.102-9.029c0.298-4.953,4.419-7.086,6.852-7.916
		l0.42-0.143l0.131,0.422c1.529,5,1.274,10.672-0.736,16.408L486.148,362.143z M486.337,345.998c-2.627,0.986-5.607,2.986-5.848,7
		c-0.274,4.557,2.551,6.857,5.144,8.002C487.392,355.756,487.635,350.586,486.337,345.998z"/>
	<path fill="#FDD4A8" d="M475.761,366.305c-2.904,2.709-2.86,7.83-1.074,11.404c3.884-3.385,6.942-7.285,9.109-11.367
		C481.293,365.047,478.065,364.154,475.761,366.305z"/>
	<path fill="#354852" d="M474.55,378.398l-0.249-0.498c-1.788-3.578-1.987-8.969,1.166-11.91c1.995-1.863,4.964-1.873,8.525-0.029
		l0.387,0.199l-0.204,0.385c-2.271,4.277-5.366,8.143-9.207,11.488L474.55,378.398z M479.159,365.438
		c-1.224,0-2.268,0.396-3.107,1.182c-2.702,2.523-2.642,7.104-1.22,10.387c3.446-3.084,6.26-6.605,8.375-10.477
		C481.71,365.805,480.352,365.438,479.159,365.438z"/>
	<path fill="#8798A1" d="M336.785,319.215c0,0-43.436-4.301-52.036,13.979c-8.148,17.314,16.126,51.174,42.144,43.648
		c13.08-3.785,19.353-16.988,22.792-24.084C350.546,343.514,343.021,322.869,336.785,319.215z"/>
	<path fill="#AFC2CB" d="M336.785,319.215c0,0-43.436-4.301-52.036,13.979c-2.116,4.494-2.041,10.109-0.321,15.822
		c4.677,2.824,9.765,4.854,15.335,5.598c17.527,2.021,35.051-4.41,47.609-16.396C344.799,329.855,340.557,321.428,336.785,319.215z"
		/>
	<path fill="#354852" d="M319.355,378.346L319.355,378.346c-13.658-0.002-24.785-9.865-30.644-19.1
		c-5.914-9.318-7.581-19.373-4.352-26.238c6.004-12.758,28.669-14.662,41.646-14.662c6.278,0,10.776,0.436,10.821,0.439l0.176,0.059
		c6.51,3.814,13.95,24.936,13.112,33.953l-0.042,0.148l-0.117,0.24c-3.433,7.084-9.825,20.273-22.943,24.068
		C324.509,377.977,321.933,378.346,319.355,378.346z M326.006,319.203c-12.772,0-35.065,1.842-40.867,14.172
		c-3.105,6.6-1.458,16.336,4.299,25.41c5.736,9.039,16.608,18.699,29.918,18.699c2.496,0,4.992-0.355,7.418-1.057
		c12.751-3.689,19.034-16.654,22.41-23.619l0.081-0.17c0.838-9.549-6.772-29.439-12.617-33.006
		C335.97,319.57,331.737,319.203,326.006,319.203z"/>
	<path fill="#67808C" d="M325.021,338.041c-10.76-11.885-26.269-15.779-36.573-9.818c-1.546,1.439-2.812,3.082-3.699,4.971
		c-8.148,17.314,16.126,51.174,42.144,43.648c1.606-0.467,3.109-1.074,4.516-1.793C338.053,365.357,335.65,349.781,325.021,338.041z
		"/>
	<path fill="#8798A1" d="M288.449,328.223c-1.546,1.439-2.812,3.082-3.699,4.971c-0.571,1.213-0.978,2.51-1.24,3.871
		c3.465,13.457,17.586,21.512,31.129,23.648c6.718,0.674,14.477,0.277,20.015-3.611c-1.132-6.508-4.374-13.252-9.632-19.061
		C314.262,326.156,298.753,322.262,288.449,328.223z"/>
	<path fill="#354852" d="M319.355,378.346L319.355,378.346c-13.658-0.002-24.785-9.865-30.644-19.1
		c-5.914-9.318-7.581-19.373-4.352-26.238c0.873-1.855,2.15-3.57,3.796-5.1l0.076-0.059c3.231-1.867,6.954-2.814,11.066-2.814
		c9.099,0,18.833,4.754,26.043,12.715c10.603,11.717,13.305,27.502,6.423,37.543l-0.062,0.086l-0.099,0.053
		c-1.477,0.754-3.023,1.367-4.591,1.822C324.509,377.977,321.933,378.346,319.355,378.346z M288.706,328.572
		c-1.547,1.445-2.749,3.062-3.567,4.803c-3.105,6.6-1.458,16.336,4.299,25.41c5.736,9.039,16.608,18.699,29.918,18.699
		c2.496,0,4.992-0.355,7.418-1.057c1.482-0.43,2.942-1.004,4.343-1.715c6.58-9.719,3.894-24.996-6.413-36.383
		c-7.048-7.787-16.546-12.434-25.405-12.434C295.357,325.896,291.793,326.795,288.706,328.572z"/>
	<path fill="#FDF7EB" d="M312.917,335.484c3.186,2.152,6.577,1.045,8.841-0.68c-3.82-3.398-8.053-5.908-12.34-7.467
		C309.351,329.988,309.928,333.465,312.917,335.484z"/>
	<path fill="#354852" d="M316.686,337.102L316.686,337.102c-1.421,0-2.771-0.424-4.009-1.262c-3.171-2.143-3.755-5.811-3.688-8.512
		l0.014-0.598l0.562,0.205c4.416,1.602,8.73,4.213,12.479,7.549l0.39,0.348l-0.416,0.316
		C320.364,336.408,318.471,337.102,316.686,337.102z M309.846,327.957c0.038,2.404,0.69,5.398,3.312,7.172
		c1.095,0.74,2.281,1.113,3.528,1.113c1.448,0,2.987-0.52,4.383-1.469C317.662,331.82,313.802,329.477,309.846,327.957z"/>
	<path fill="#FDF7EB" d="M291.989,334.051c2.668-1.629,2.997-5.135,2.693-8.145c-2.215,0.439-4.315,1.207-6.233,2.316
		c-1.546,1.439-2.812,3.082-3.699,4.971c-0.072,0.15-0.135,0.305-0.201,0.461C286.671,335.006,289.384,335.643,291.989,334.051z"/>
	<path fill="#354852" d="M288.734,335.418L288.734,335.418c-1.449,0-2.976-0.484-4.417-1.402l-0.309-0.195l0.203-0.471
		c0.048-0.113,0.097-0.229,0.149-0.342c0.873-1.855,2.15-3.57,3.796-5.1l0.076-0.059c1.926-1.111,4.069-1.908,6.367-2.363
		l0.464-0.094l0.048,0.471c0.419,4.182-0.582,7.139-2.898,8.555C291.126,335.084,289.954,335.418,288.734,335.418z M285.091,333.48
		c2.29,1.338,4.663,1.432,6.674,0.203c2.396-1.463,2.726-4.658,2.532-7.256c-2.012,0.445-3.89,1.166-5.591,2.145
		c-1.547,1.445-2.749,3.062-3.567,4.803L285.091,333.48z"/>
	<path fill="#FDD4A8" d="M292.168,350.461c-1.333-3.088-5.195-3.803-8.362-3.828c0.926,4.203,2.802,8.539,5.409,12.596
		C291.61,357.324,293.724,354.061,292.168,350.461z"/>
	<path fill="#354852" d="M289.11,359.861l-0.258-0.4c-2.647-4.121-4.538-8.525-5.466-12.736l-0.116-0.525l0.539,0.002
		c4.588,0.039,7.615,1.453,8.753,4.088c2.036,4.715-1.843,8.291-3.08,9.275L289.11,359.861z M284.348,347.072
		c0.912,3.811,2.621,7.77,4.967,11.512c1.355-1.188,4.085-4.186,2.457-7.955C290.595,347.904,287.197,347.172,284.348,347.072z"/>
	<path fill="#8798A1" d="M361.512,213.21c0,0-38.652,22.362-39.753,68.805c-1.101,46.445,21.358,59.49,19.876,86.152
		c3.68,15.193,33.782,13.188,40.949,7.168c6.88,7.74,35.55,10.033,44.724,0c6.309-16.629,0.573-23.795,13.188-37.846
		c12.617-14.047,27.524-43.863,24.943-75.688c-2.58-31.822-24.367-50.457-60.206-52.751
		C391.186,209.625,372.55,208.766,361.512,213.21z"/>
	<path fill="#AFC2CB" d="M460.079,261.803c-1.657-20.453-9.052-35.449-23.631-44.17c-18.842-1.24-38.371,5.537-53.864,17.51
		c-11.334,9.066-30.629,8.836-42.148-3.016c-9.251,11.375-18.156,27.939-18.677,49.889c-1.101,46.445,26.415,56.332,24.933,82.994
		c3.679,15.193,28.45,10.547,35.617,4.525c6.881,7.742,35.825,15.834,44.999,5.801c6.309-16.629,0.573-23.795,13.188-37.846
		C453.112,323.443,462.659,293.627,460.079,261.803z"/>
	<path fill="#354852" d="M351.912,301.396c-6.31-9.197-11.919-31.541-11.919-31.541c0.064,0.219,6.398,21.971,12.629,31.055
		L351.912,301.396z"/>
	<path fill="#354852" d="M405.843,382.459c-10.048,0-19.519-2.672-23.302-6.541c-3.387,2.568-10.828,4.338-18.357,4.338h-0.001
		c-12.563,0-21.147-4.48-22.965-11.986l-0.015-0.062l0.004-0.062c0.644-11.611-3.291-20.617-7.845-31.045
		c-5.93-13.572-12.652-28.957-12.032-55.092c1.093-46.154,39.58-68.946,39.968-69.171c8.763-3.529,22.291-3.768,34.226-3.975
		c3.414-0.059,6.637-0.115,9.694-0.24c36.535,2.335,58.061,21.21,60.651,53.147c2.459,30.318-11.265,60.652-25.052,76.008
		c-7.701,8.58-8.466,14.4-9.428,21.775c-0.587,4.467-1.248,9.527-3.679,15.934l-0.083,0.137
		C423.656,379.969,415.717,382.459,405.843,382.459z M382.629,374.738l0.277,0.311c3.427,3.857,12.858,6.549,22.937,6.549
		c9.586,0,17.267-2.365,21.094-6.492c2.37-6.275,3.021-11.264,3.599-15.668c0.944-7.219,1.76-13.457,9.642-22.234
		c13.669-15.223,27.272-45.301,24.835-75.365c-2.552-31.457-23.79-50.053-59.806-52.358c-3.019,0.127-6.249,0.182-9.669,0.242
		c-11.86,0.207-25.304,0.441-33.866,3.885c-0.328,0.198-38.401,22.762-39.482,68.418c-0.616,25.947,6.064,41.24,11.959,54.73
		c4.592,10.51,8.558,19.59,7.92,31.371c2.589,10.455,17.576,11.27,22.114,11.27c7.593,0,15.045-1.805,18.124-4.391L382.629,374.738z
		"/>
	<path fill="#FDD4A8" d="M364.809,372.611c-5.088-0.678-6.963,3.008-7.085,6.756c4.865,0.719,10.091,0.551,14.599-0.223
		C371.769,376.641,370.041,373.309,364.809,372.611z"/>
	<path fill="#FDF7EB" d="M358.854,375.107c3.662,0.629,7.565,0.643,11.33-0.041c-1.154-1.172-2.856-2.119-5.375-2.455
		C361.796,372.211,359.917,373.344,358.854,375.107z"/>
	<path fill="#354852" d="M364.195,380.256L364.195,380.256c-2.258,0-4.457-0.156-6.534-0.463l-0.379-0.055l0.012-0.387
		c0.162-5.006,3.039-7.768,7.572-7.166c5.416,0.723,7.272,4.133,7.876,6.865l0.099,0.441l-0.445,0.078
		C369.777,380.018,366.941,380.256,364.195,380.256z M358.172,378.996c4.271,0.588,9.179,0.514,13.624-0.199
		c-0.647-2.381-2.411-5.143-7.043-5.758c-0.385-0.053-0.762-0.08-1.116-0.08C359.168,372.959,358.312,376.914,358.172,378.996z"/>
	<path fill="#FDD4A8" d="M380.721,369.215c-6.42-0.855-7.727,5.236-6.844,9.633c3.797-0.801,6.946-2.033,8.708-3.512
		c1.26,1.416,3.258,2.652,5.729,3.66c0.055-0.121,0.119-0.24,0.149-0.365C388.462,378.631,389.322,370.363,380.721,369.215z"/>
	<path fill="#FDF7EB" d="M380.721,369.215c-4.254-0.566-6.255,1.922-6.868,4.939c3.101-0.988,5.995-2.512,8.448-4.621
		C381.811,369.4,381.288,369.291,380.721,369.215z"/>
	<path fill="#354852" d="M388.562,379.473l-0.412-0.076c-2.455-1.004-4.34-2.172-5.609-3.477c-1.821,1.383-4.842,2.564-8.576,3.348
		l-0.424,0.09l-0.087-0.426c-0.499-2.488-0.381-5.943,1.451-8.176c1.337-1.633,3.335-2.303,5.874-1.967
		c8.913,1.189,8.121,9.803,8.111,9.887c-0.041,0.184-0.096,0.307-0.152,0.428L388.562,379.473z M382.629,374.738l0.277,0.311
		c1.109,1.248,2.842,2.383,5.145,3.371c0.062-0.967,0.242-7.762-7.387-8.777c-2.227-0.301-3.954,0.264-5.096,1.658
		c-1.54,1.879-1.715,4.785-1.349,7.033c3.621-0.805,6.483-1.98,8.087-3.328L382.629,374.738z"/>
	<path fill="#CFDAE0" d="M382.584,349.963c0,0-13.547-29.672-30.318-48.811c-12.041-21.5-2.365-49.455,23.868-53.539
		c26.232-4.086,44.08,34.402,43.003,46.873C403.227,308.68,383.229,343.297,382.584,349.963z"/>
	<path fill="#DFE7EA" d="M394.625,311.688c13.04-5.07,18.756-18.072,21.778-30.783c-5.905-15.838-20.769-36.328-40.27-33.291
		c-25.796,4.016-35.566,31.109-24.436,52.457C362.888,310.863,379.811,317.078,394.625,311.688z"/>
	<path fill="#354852" d="M382.858,351.598l-0.665-1.457c-0.135-0.295-13.714-29.836-30.25-48.705l-0.052-0.074
		c-6.334-11.309-6.914-24.637-1.553-35.654c4.927-10.127,14.064-16.703,25.73-18.52c9.594-1.494,19.213,2.609,27.574,11.721
		c10.23,11.152,16.605,27.721,15.924,35.617l-0.015,0.168l-0.127,0.115c-16.327,14.562-35.81,48.971-36.411,55.195L382.858,351.598z
		 M352.62,300.902c14.713,16.803,27.077,41.969,29.798,47.695c2.521-9.312,21.533-41.055,36.306-54.316
		c0.559-7.781-5.706-23.883-15.715-34.791c-8.163-8.896-17.506-12.902-26.81-11.453c-11.377,1.773-20.288,8.182-25.088,18.045
		C345.879,276.834,346.443,289.848,352.62,300.902z"/>
	<path fill="#8798A1" d="M415.258,265.816c0,0-4.004,11.037,1.301,31.111c-11.898,12.039-26.234,26.857-33.395,49.738
		c-4.351,13.895-4.738,22.469-0.58,28.67c6.88,7.74,35.55,10.033,44.724,0c6.309-16.629,0.573-23.795,13.188-37.846
		c12.617-14.047,27.524-43.863,24.943-75.688L415.258,265.816z"/>
	<path fill="#AFC2CB" d="M415.258,265.816c0,0-4.004,11.037,1.301,31.111c-11.898,12.039-26.234,26.857-33.395,49.738
		c-4.351,13.895-3.66,18.885,0.497,25.084c6.88,7.742,24.581,7.418,33.757-2.615c6.309-16.629,5.23-21.465,17.846-35.514
		c12.614-14.047,27.309-41.283,24.729-73.105L415.258,265.816z"/>
	<path fill="#354852" d="M405.862,382.459c-0.137,0-0.276,0-0.414-0.002c-10.298-0.072-19.614-2.818-23.185-6.838
		c-4.182-6.229-4.031-14.641,0.488-29.082c7.302-23.324,22.304-38.584,33.33-49.736c-5.188-19.822-0.419-30.838-0.419-30.838
		c-0.041,0.109-3.891,11.172,1.313,30.855l0.062,0.236l-0.173,0.176c-10.979,11.107-26.016,26.316-33.291,49.564
		c-4.434,14.16-4.616,22.361-0.632,28.301c3.328,3.738,12.601,6.432,22.511,6.5c0.138,0.002,0.277,0.002,0.413,0.002
		c9.578,0,17.236-2.355,21.07-6.492c2.37-6.275,3.021-11.264,3.599-15.668c0.944-7.219,1.76-13.457,9.642-22.234
		c13.669-15.223,27.272-45.301,24.835-75.365l0.856-0.068c2.459,30.318-11.265,60.652-25.052,76.008
		c-7.701,8.58-8.466,14.4-9.428,21.775c-0.587,4.467-1.248,9.527-3.679,15.934l-0.083,0.137
		C423.646,379.977,415.731,382.459,405.862,382.459z"/>
	<path fill="#FDD4A8" d="M405.807,372.18c-5.287,0.061-6.432,5.539-6.467,9.469c4.548,0.527,9.394,0.514,13.872-0.148
		C412.838,377.93,411.373,372.121,405.807,372.18z"/>
	<path fill="#FDF7EB" d="M405.807,372.18c-3.357,0.037-5.041,2.262-5.833,4.883c3.773,0.02,7.609-0.709,11.185-2.039
		C410.04,373.363,408.357,372.154,405.807,372.18z"/>
	<path fill="#354852" d="M405.826,382.453L405.826,382.453c-2.179,0-4.377-0.127-6.536-0.375l-0.383-0.047l0.004-0.387
		c0.025-2.951,0.746-9.826,6.891-9.895h0.093c5.852,0,7.364,6.082,7.746,9.705l0.043,0.41l-0.408,0.061
		C410.912,382.277,408.405,382.453,405.826,382.453z M399.776,381.266c4.373,0.473,8.902,0.43,12.961-0.133
		c-0.419-3.365-1.873-8.521-6.843-8.521C400.82,372.666,399.867,377.885,399.776,381.266z"/>
	<path fill="#FDD4A8" d="M387.953,369.135c-3.516,0.039-5.197,2.479-5.941,5.262c0.184,0.316,0.368,0.633,0.572,0.939
		c2.332,2.621,7.168,4.615,12.898,5.721C395.508,379.822,395.52,369.051,387.953,369.135z"/>
	<path fill="#FDF7EB" d="M387.953,369.135c-1.779,0.021-3.09,0.656-4.045,1.641c3.122,3.148,7.01,5.016,11.172,5.818
		C394.407,373.168,392.625,369.082,387.953,369.135z"/>
	<path fill="#354852" d="M395.902,381.576l-0.503-0.096c-6.169-1.191-10.835-3.271-13.136-5.861
		c-0.246-0.357-0.438-0.682-0.624-1.01l-0.089-0.152l0.046-0.172c0.966-3.615,3.162-5.543,6.354-5.58h0.091
		c1.893,0,3.486,0.65,4.74,1.932c3.122,3.188,3.157,9.246,3.132,10.43L395.902,381.576z M382.475,374.338
		c0.148,0.256,0.3,0.512,0.467,0.758c2.047,2.297,6.457,4.283,12.113,5.439c-0.025-1.693-0.322-6.676-2.887-9.297
		c-1.086-1.111-2.476-1.674-4.127-1.674C385.206,369.596,383.362,371.201,382.475,374.338z"/>
	<path fill="#354852" d="M415.206,298.912l-0.662-0.551c5.636-6.756,16.932-10.211,16.932-10.211
		C431.369,288.191,420.695,292.332,415.206,298.912z"/>
	<path fill="#8798A1" d="M385.594,50.653c-26.2,1.36-56.89,17.163-64.376,48.165c-7.486,31.004-7.01,52.035-16.041,61.926
		c0.86,17.202,9.175,39.994,21.501,44.295c12.329,4.3,16.308,27.129,35.265,27.234c21.222,0.121,17.632-7.429,28.073-12.828
		c28.263-14.622,51.015-0.12,69.402-14.406c21.86-16.988,28.384-43.29,8.027-69.382C469.452,105.556,443.65,47.643,385.594,50.653z"
		/>
	<path fill="#AFC2CB" d="M385.594,50.653c-26.2,1.36-56.89,17.163-64.376,48.165c-7.486,31.004-7.01,52.035-16.041,61.926
		c0.86,17.202,11.106,36.841,23.434,41.142c12.328,4.3,15.861,25.8,34.819,25.802c16.202,0,20.315-12.54,30.756-17.941
		c28.264-14.622,35.991-0.695,60.001-11.016c20.987-9.02,29.936-38.751,9.579-64.84C465.771,103.788,443.65,47.643,385.594,50.653z"
		/>
	<ellipse fill="#8798A1" cx="401.232" cy="126.264" rx="17.439" ry="26.449"/>
	<ellipse fill="#8798A1" cx="340.199" cy="125.185" rx="17.439" ry="26.451"/>
	<path fill="#354852" d="M362.435,232.705l-0.496-0.002c-11.399-0.062-17.586-8.328-23.046-15.619
		c-3.82-5.102-7.427-9.919-12.355-11.64c-12.294-4.287-20.883-26.53-21.79-44.678l-0.008-0.18l0.12-0.131
		c5.741-6.288,7.606-17.291,10.191-32.519c1.447-8.531,3.088-18.202,5.748-29.219c7.584-31.404,38.893-47.152,64.772-48.493
		c22.529-1.165,42.652,6.918,57.951,23.269c18.217,19.472,25.389,45.758,24.364,62.03c9.353,12.04,13.486,24.9,11.955,37.199
		c-1.531,12.306-8.504,23.597-20.159,32.656c-8.563,6.656-17.69,7.17-29.644,7.17h-0.003l-2.848-0.001
		c-12.531,0-23.959,0.546-36.975,7.279c-3.42,1.771-5.289,3.758-7.096,5.676C379.48,229.369,376.337,232.705,362.435,232.705z
		 M305.616,160.9c0.945,17.912,9.665,39.707,21.204,43.732c5.178,1.806,8.861,6.727,12.762,11.936
		c5.6,7.479,11.391,15.215,22.362,15.275l0.491,0.004c13.531,0,16.554-3.215,20.056-6.936c1.854-1.973,3.774-4.012,7.327-5.852
		c14.26-7.374,27.617-7.374,37.369-7.374l2.848,0.001c11.783,0,20.769-0.501,29.118-6.988c11.474-8.916,18.331-20.01,19.835-32.085
		c1.507-12.111-2.602-24.797-11.882-36.691l-0.103-0.13l0.012-0.165c1.073-16.079-6.02-42.198-24.124-61.549
		c-15.119-16.161-35.005-24.159-57.274-22.997c-25.573,1.326-56.503,16.861-63.982,47.836c-2.652,10.989-4.292,20.643-5.735,29.161
		C313.307,143.348,311.431,154.408,305.616,160.9z"/>
	<path fill="#611000" d="M335.52,202.495c6.999,3.565,14.803,18.821,22.183,19.938c11.355,1.716,28.125-6.601,33.635-19.938
		C387.939,192.197,335.651,197.213,335.52,202.495z"/>
	<path fill="#B91000" d="M347.007,209.227c-0.996,0-2.073,0.396-3.202,1.008c4.601,5.399,9.331,11.507,13.898,12.197
		c8.807,1.331,20.866-3.374,28.408-11.775C373.533,214.305,359.706,209.227,347.007,209.227z"/>
	<path fill="#FB4757" d="M357.703,222.433c10.21,1.544,24.79-5.03,31.636-16.061c-3.645-0.423-8.978-0.922-13.766-0.922
		c-8.277,0-14.107,3.721-14.107,3.721s-5.699-2.231-10.497-2.033c-3.845,0.157-6.15,1.402-7.528,2.671
		C348.156,215.309,353.016,221.725,357.703,222.433z"/>
	<path fill="#FB526E" d="M353.346,219.527c6.336,3.963,14.26,2.377,19.013-3.168c4.51-6.015-2.389-8.461-7.845-8.695
		c-1.937,0.798-3.047,1.506-3.047,1.506s-5.587-2.184-10.355-2.034C347.508,210.63,349.785,216.679,353.346,219.527z"/>
	<path fill="#D1303D" d="M360.793,223.055h-0.001c-1.09-0.004-2.149-0.08-3.149-0.232c-4.275-0.644-8.616-5.787-12.813-10.763
		c-0.564-0.669-1.13-1.338-1.69-1.993l-0.249-0.288l0.28-0.26c1.848-1.706,4.467-2.641,7.782-2.777
		c4.387-0.181,9.434,1.601,10.472,1.99c1.044-0.625,6.539-3.676,14.148-3.676c4.818,0,10.169,0.5,13.811,0.92l0.62,0.075l-0.33,0.53
		C382.967,217.393,370.067,223.055,360.793,223.055z M343.996,209.848c0.478,0.562,0.959,1.131,1.439,1.702
		c4.103,4.862,8.347,9.89,12.327,10.493c0.961,0.143,1.98,0.218,3.031,0.218c10.188,0,22.048-6.656,27.872-15.568
		c-3.592-0.402-8.582-0.846-13.091-0.846c-8.066,0-13.836,3.622-13.895,3.657l-0.169,0.109l-0.188-0.073
		c-0.054-0.021-5.664-2.209-10.337-2.007C348.033,207.656,345.684,208.432,343.996,209.848z"/>
	<path fill="#91363D" d="M360.793,223.055L360.793,223.055c-1.09,0-2.151-0.08-3.15-0.232c-4.275-0.645-8.616-5.787-12.812-10.763
		c-3.186-3.777-6.479-7.678-9.49-9.212l-0.223-0.114l0.006-0.247c0.096-3.833,20.017-6.375,33.15-6.375
		c7.983,0,21.644,0.814,23.438,6.257l0.045,0.142l-0.055,0.137C386.495,215.25,371.604,223.055,360.793,223.055z M335.966,202.283
		c3.067,1.679,6.18,5.369,9.47,9.267c4.101,4.862,8.346,9.89,12.325,10.493c0.961,0.143,1.98,0.218,3.032,0.218
		c10.515,0,24.984-7.557,30.118-19.777c-1.356-3.549-9.582-5.58-22.637-5.58C352.485,196.904,336.957,199.918,335.966,202.283z"/>
	<path fill="#D1303D" d="M361.136,209.17c0,0-2.773,2.653-3.698,6.773c2.244-4.051,4.491-6.716,4.491-6.716L361.136,209.17z"/>
	<ellipse fill="#B9B9BA" cx="401.183" cy="128.796" rx="14.729" ry="23.527"/>
	<path fill="#FFFFFF" d="M415.912,128.796c0,19.691-29.61,18.518-29.459,0c0.107-12.993,6.597-23.527,14.729-23.527
		C409.318,105.27,415.912,115.802,415.912,128.796z"/>
	<path fill="#505051" d="M401.183,152.754c-8.357,0-15.157-10.747-15.157-23.958c0-13.209,6.8-23.958,15.157-23.958
		c8.36,0,15.16,10.749,15.16,23.958C416.343,142.008,409.543,152.754,401.183,152.754z M401.183,105.7
		c-7.884,0-14.298,10.361-14.298,23.097c0,12.737,6.414,23.098,14.298,23.098s14.301-10.361,14.301-23.098
		C415.483,116.061,409.066,105.7,401.183,105.7z"/>
	<ellipse fill="#2E44FF" cx="401.708" cy="131.036" rx="8.588" ry="12.061"/>
	<path fill="#03147A" d="M401.709,143.527c-4.973,0-9.02-5.605-9.02-12.491c0-6.888,4.047-12.491,9.02-12.491
		c4.972,0,9.018,5.603,9.018,12.491C410.727,137.922,406.681,143.527,401.709,143.527z M401.709,119.405
		c-4.5,0-8.16,5.216-8.16,11.631c0,6.413,3.66,11.631,8.16,11.631c4.498,0,8.158-5.218,8.158-11.631
		C409.867,124.621,406.207,119.405,401.709,119.405z"/>
	<ellipse fill="#010521" cx="401.937" cy="131.215" rx="5.016" ry="6.737"/>
	
		<ellipse transform="matrix(0.997 0.0777 -0.0777 0.997 11.0296 -25.9904)" fill="#B9B9BA" cx="339.636" cy="128.797" rx="14.73" ry="23.529"/>
	<path fill="#FFFFFF" d="M354.321,129.941c-1.01,12.956-30.378,10.666-29.37-2.288c1.01-12.956,8.404-22.945,16.513-22.313
		S355.331,116.987,354.321,129.941z"/>
	<path fill="#505051" d="M338.538,152.713c-0.254,0-0.508-0.011-0.764-0.03c-4.075-0.318-7.696-3.126-10.195-7.91
		c-2.464-4.718-3.55-10.809-3.056-17.155c1.024-13.15,8.592-23.353,16.975-22.707c4.075,0.318,7.696,3.126,10.195,7.91
		c2.465,4.717,3.551,10.809,3.057,17.153C353.756,142.725,346.635,152.713,338.538,152.713z M340.735,105.741
		c-7.651,0-14.396,9.64-15.355,21.944c-0.481,6.188,0.569,12.114,2.96,16.69c2.357,4.51,5.732,7.155,9.5,7.45
		c7.915,0.607,15.062-9.239,16.051-21.917c0.481-6.188-0.57-12.113-2.961-16.689c-2.357-4.511-5.731-7.156-9.5-7.45
		C341.197,105.75,340.966,105.741,340.735,105.741z"/>
	
		<ellipse transform="matrix(0.997 0.0776 -0.0776 0.997 11.2029 -26.0015)" fill="#2E44FF" cx="339.985" cy="131.07" rx="8.587" ry="12.061"/>
	<path fill="#03147A" d="M339.532,143.543c-0.172,0-0.343-0.007-0.517-0.021c-2.43-0.189-4.601-1.68-6.115-4.201
		c-1.486-2.474-2.163-5.652-1.905-8.954c0.532-6.839,4.969-12.128,9.961-11.751c2.43,0.189,4.6,1.68,6.115,4.201
		c1.485,2.473,2.163,5.652,1.905,8.954C348.462,138.372,344.313,143.543,339.532,143.543z M340.438,119.456
		c-4.334,0-8.106,4.823-8.586,10.98c-0.244,3.123,0.39,6.121,1.784,8.442c1.369,2.275,3.301,3.62,5.446,3.787
		c4.507,0.353,8.54-4.593,9.036-10.961c0.244-3.124-0.39-6.121-1.785-8.443c-1.366-2.275-3.3-3.62-5.445-3.787
		C340.739,119.462,340.588,119.456,340.438,119.456z"/>
	
		<ellipse transform="matrix(0.997 0.0778 -0.0778 0.997 11.2392 -26.0603)" fill="#010521" cx="340.198" cy="131.266" rx="5.016" ry="6.737"/>
	<path fill="#354852" d="M401.709,84.411c0,0,9.688,6.881,11.838,16.772c-4.729-7.525-13.76-13.978-17.846-14.622
		C395.915,85.272,399.331,82.455,401.709,84.411z"/>
	<path fill="#354852" d="M340.45,84.411c0,0-9.689,6.881-11.84,16.772c4.73-7.525,13.763-13.978,17.848-14.622
		C346.243,85.272,342.826,82.455,340.45,84.411z"/>
	<path fill="#8798A1" d="M434.695,149.97c0,0-20.502-7.501-43.08-0.406c-19.137-11.396-64.507-16.988-86.439,4.729
		c-21.932,21.718,3.231,56.361,28.169,50.746c8.749-1.97,12.399-3.87,23.579-0.861c20.035,5.394,42.959,6.176,61.138-22.792
		L434.695,149.97z"/>
	<path fill="#AFC2CB" d="M436.732,150.559c0,0-22.539-8.09-45.117-0.995c-19.137-11.396-64.507-16.988-86.439,4.729
		c-21.932,21.718,2.58,49.051,27.516,43.435c8.75-1.97,14.198-3.862,25.379-0.853c20.036,5.393,43.864,4.078,59.991-15.489
		L436.732,150.559z"/>
	<path fill="#EBF8FC" d="M388.051,150.987c0,0.696-15.625-6.337-37.674-6.337c-22.05,0-37.08,8.327-37.08,7.632
		c0-0.696,15.03-10.15,37.08-10.15C372.426,142.132,388.051,150.293,388.051,150.987z"/>
	<path fill="#354852" d="M376.423,207.554c-6.849,0-13.502-1.316-19.61-2.96c-9.412-2.536-13.307-1.579-19.76,0.003
		c-1.119,0.277-2.309,0.568-3.613,0.86c-12.473,2.808-26.101-4.2-33.137-17.051c-6.646-12.136-4.938-25.002,4.571-34.417
		c21.393-21.182,66.304-16.976,86.797-4.893c22.381-6.962,43.025,0.874,43.025,0.874c-0.206-0.07-20.777-6.967-42.951,0.003
		l-0.185,0.059l-0.165-0.099c-20.188-12.022-64.749-16.293-85.915,4.667c-9.222,9.13-10.874,21.612-4.423,33.394
		c6.854,12.514,20.093,19.35,32.193,16.626c1.298-0.293,2.484-0.583,3.598-0.857c6.359-1.56,10.562-2.592,20.188,0.001
		c18.51,4.981,42.135,6.918,60.662-22.606l0.729,0.457C405.716,201.868,390.651,207.553,376.423,207.554z"/>
	<path fill="#354852" d="M352.026,203.517c-12.762-2.896-18.535-13.286-18.535-13.286c0.061,0.098,6.319,9.632,18.727,12.448
		L352.026,203.517z"/>
	<path fill="#354852" d="M420.717,190.385c0.548-7.421-7.35-13.469-7.428-13.53c0,0,3.936,1.93,6.171,5.675
		C421.718,186.547,420.717,190.385,420.717,190.385z"/>
	<path fill="#8798A1" d="M369.683,187.119c0,0,4.874-10.463,9.317-11.18c4.444-0.716,6.164,4.3,3.584,6.881
		C380.004,185.4,373.267,186.976,369.683,187.119z"/>
	<path fill="#354852" d="M368.994,187.578l0.299-0.639c0.204-0.436,5.022-10.681,9.641-11.424c2.231-0.359,4.141,0.648,4.934,2.564
		c0.725,1.747,0.34,3.728-0.979,5.045c-2.65,2.648-9.362,4.274-13.189,4.426L368.994,187.578z M379.838,176.299
		c-0.248,0-0.506,0.021-0.77,0.063c-3.546,0.572-7.532,8.006-8.674,10.283c3.692-0.305,9.582-1.827,11.886-4.131
		c1.071-1.07,1.382-2.684,0.792-4.107C382.525,177.088,381.316,176.299,379.838,176.299z"/>
	<path fill="#354852" d="M365.337,185.016c0,0,4.658-11.259,13.274-13.365c6.682-1.631,9.336,4.437,9.336,4.437
		c-0.123-0.208-3.084-5.079-9.132-3.602C370.593,174.495,365.39,184.911,365.337,185.016z"/>
	<path fill="#8798A1" d="M313.347,183.105c0,0,0.215-6.9-2.687-9.793c-2.904-2.892-4.435-0.355-3.871,2.558
		C307.65,180.311,313.347,183.105,313.347,183.105z"/>
	<path fill="#354852" d="M313.757,183.786l-0.599-0.293c-0.24-0.118-5.901-2.943-6.792-7.541c-0.285-1.476-0.062-2.877,0.583-3.658
		c0.895-1.085,2.421-0.871,4.014,0.714c3,2.991,2.823,9.824,2.814,10.113L313.757,183.786z M308.367,172.467
		c-0.3,0-0.547,0.123-0.754,0.373c-0.479,0.58-0.637,1.737-0.402,2.947c0.645,3.331,4.239,5.736,5.704,6.591
		c-0.04-1.806-0.357-6.565-2.56-8.759C309.402,172.667,308.748,172.467,308.367,172.467z"/>
	<path fill="#354852" d="M317.218,182.559c0.002-0.102,0.157-10.319-4.892-14.384c-1.181-0.95-2.351-1.333-3.484-1.135
		c-2.006,0.347-3.287,2.4-3.298,2.421c0,0,0.753-2.85,3.144-3.269c1.388-0.243,2.793,0.199,4.177,1.311
		C318.244,171.835,317.218,182.559,317.218,182.559z"/>
	<path fill="#354852" d="M403.923,158.39c-0.102-0.082-10.345-8.326-17.621-11.076l0.305-0.805
		C394.01,149.31,403.923,158.39,403.923,158.39z"/>
	<ellipse fill="#FFFFFF" cx="341.971" cy="124.521" rx="2.334" ry="2.622"/>
	<ellipse fill="#FFFFFF" cx="404.27" cy="125.524" rx="2.334" ry="2.622"/>
	<path fill="#E8DA97" d="M328.147,178.009c-10.493-3.394-16.054-39.199-8.314-48.987c3.977-0.348,13.045,7.129,26.161,13.58
		c9.071,4.461,16.126,9.449,14.731,19.2C359.177,172.617,347.642,184.317,328.147,178.009z"/>
	<path fill="#FFFBE3" d="M333.491,169.561c-10.609-3.019-17.728-30.053-13.658-40.539c3.977-0.348,13.045,7.129,26.161,13.58
		c9.071,4.461,15.815,9.41,14.731,19.2C359.971,168.62,350.293,174.345,333.491,169.561z"/>
	<path fill="#BFAA51" d="M338.635,180.215c-3.363,0-6.935-0.604-10.62-1.797c-3.657-1.182-6.973-6.138-9.342-13.952
		c-3.654-12.054-4.379-29.134,0.823-35.71l0.115-0.145l0.184-0.017c2.422-0.21,6.431,2.195,12.061,5.589
		c3.926,2.369,8.811,5.318,14.329,8.031c8.035,3.953,16.482,9.057,14.966,19.648C359.847,170.983,351.692,180.215,338.635,180.215z
		 M320.053,129.442c-4.743,6.278-4.135,22.977-0.557,34.776c2.251,7.425,5.453,12.304,8.784,13.383
		c3.599,1.164,7.083,1.754,10.355,1.754c12.567,0,20.413-8.86,21.664-17.614c1.295-9.043-4.586-13.88-14.495-18.753
		c-5.55-2.729-10.454-5.688-14.393-8.065C326.291,131.834,322.3,129.396,320.053,129.442z"/>
	<path fill="#8798A1" d="M453.289,125.185c0,0,6.666-7.311,12.687-21.932c6.021-14.622,25.802-28.382,55.044-24.512
		c-0.643,13.331-3.225,34.188-15.695,44.939c-12.471,10.751-32.254,9.675-38.919,14.19L453.289,125.185z"/>
	<path fill="#AFC2CB" d="M451.784,126.264c0,0,8.171-8.39,14.191-23.011c6.021-14.622,27.415-27.845,52.91-24.764
		c-0.646,13.332-4.102,32.074-16.57,42.827c-12.473,10.751-31.977,11.92-39.073,19.447L451.784,126.264z"/>
	<path fill="#354852" d="M466.647,138.227c0,0,2.34-3.15,11.948-4.481c8.392-1.706,18.836-3.829,26.449-10.391
		c9.212-7.942,14.437-22.825,15.527-44.239c-28.851-3.677-48.307,9.991-54.199,24.302c-5.98,14.522-13.402,21.478-13.402,21.478
		c0.066-0.072,6.69-7.435,12.606-21.805c6.041-14.671,25.985-28.682,55.5-24.775l0.393,0.051l-0.02,0.396
		c-1.058,21.871-6.39,37.092-15.846,45.244c-7.781,6.709-18.348,8.857-26.838,10.583
		C473.596,135.64,469.127,136.548,466.647,138.227z"/>
	<path fill="#F28B8B" d="M466.835,125.185c0,0,11.827-34.617,43.866-38.058c0,7.435-2.5,20.02-12.044,27.737
		C490.816,121.208,478.877,120.456,466.835,125.185z"/>
	<path fill="#FCC5C5" d="M470.386,123.948c10.801-3.402,21.203-3.365,28.271-9.084c9.229-7.463,11.062-17.118,11.845-24.113
		C492.229,94.701,477.78,107.375,470.386,123.948z"/>
	<path fill="#354852" d="M466.127,125.925l0.302-0.879c0.119-0.349,12.284-34.917,44.225-38.346l0.477-0.052v0.479
		c0,8.8-3.205,20.795-12.201,28.071c-4.729,3.826-10.987,5.129-17.614,6.507c-4.646,0.967-9.45,1.968-14.322,3.88L466.127,125.925z
		 M510.267,87.608c-28.194,3.33-40.576,31.463-42.691,36.835c4.628-1.72,9.167-2.664,13.565-3.58
		c6.52-1.357,12.68-2.639,17.248-6.334C506.986,107.576,510.151,96.162,510.267,87.608z"/>
	<path fill="#354852" d="M458.652,131.629c0.066-0.041,6.533-4.09,8.398-8.201l0.782,0.355
		C465.863,128.132,458.652,131.629,458.652,131.629z"/>
	<path fill="#354852" d="M509.974,87.647l-0.137-0.849c3.229-0.52,6.141,0.039,6.141,0.039
		C515.948,86.84,513.177,87.131,509.974,87.647z"/>
	<path fill="#EBF8FC" d="M431.571,66.915c0,0.767-19.234-11.08-44.288-11.08c-25.054,0-38.563,13.127-39.106,12.585
		c-1.719-1.72,14.052-15.368,39.106-15.368C412.337,53.052,431.571,66.147,431.571,66.915z"/>
	<path fill="#EBF8FC" d="M513.781,79.959c0,0-19.208,0.144-28.382,5.877c-9.175,5.733-16.465,12.47-19.272,24.225
		C474.219,89.42,496.804,81.773,513.781,79.959z"/>
	<path fill="#EBF8FC" d="M311.806,131.266c0,0-7.869-16.149-18.553-21.777c-8.827-4.65-15.994,2.867-24.022,4.301
		c4.875,1.002,16.944-5.558,24.425-1.652C301.636,116.307,310.945,129.676,311.806,131.266z"/>
	<path fill="#EBF8FC" d="M432.32,150.229c0,0.357-7.787-1.034-17.396-1.034s-17.397,1.33-17.397,0.973
		c0-0.356,7.789-2.264,17.397-2.264S432.32,149.873,432.32,150.229z"/>
</g>
</svg>
