<svg xmlns="http://www.w3.org/2000/svg" viewBox="0 0 768 430"><style>.a{fill:#8798A1;}.b{fill:#AFC2CB;}.c{fill:#354852;}.d{fill:#F28B8B;}.e{fill:#FCC5C5;}.f{fill:#EBF8FC;}.g{fill:#67808C;}.h{fill:#FDD4A8;}.i{fill:#FDF7EB;}.j{fill:#D1303D;}.k{fill:#B9B9BA;}.l{fill:#FFF;}.m{fill:#505051;}.n{fill:#2E44FF;}.o{fill:#03147A;}.p{fill:#010521;}</style><path d="M317.5 135.3c0 0-13.5-25.2-24.7-28.7 -11.2-3.4-24.9 8.6-33 5 3.4 6.2 3.7 29.1 19.2 37.1 15.5 8 35.6-0.9 38.4-3.4C317.8 140.7 317.5 135.3 317.5 135.3z" class="a"/><path d="M317.5 135.3c0 0-13.5-25.2-24.7-28.7 -11.2-3.4-24.9 8.6-33 5 7.4 6 8.9 26 24.4 34 15.5 8 30.9 0.1 33.8-2.5C318.4 138.5 317.5 135.3 317.5 135.3z" class="b"/><path d="M293.6 152.5L293.6 152.5c-5.5 0-10.4-1.1-14.7-3.3 -11.4-5.9-14.7-19.9-16.9-29.1 -0.8-3.5-1.6-6.5-2.5-8.2l-0.6-1.1 1.2 0.5c1 0.4 2 0.6 3.3 0.6 3.2 0 7-1.4 11.1-2.9 4.6-1.7 9.4-3.4 14.1-3.4 1.6 0 3.1 0.2 4.5 0.6 11.2 3.5 24.4 27.8 24.9 28.9l0.1 0.2c0 0.1 0.3 5.5 0 10.1l0 0.2 -0.1 0.1C315.7 147.5 305.1 152.5 293.6 152.5zM260.8 112.4c0.7 1.8 1.4 4.3 2.1 7.4 2.2 9.1 5.4 22.9 16.5 28.6 4.1 2.1 9 3.2 14.3 3.2 11 0 21.2-4.6 23.5-6.5 0.2-4.1 0-9 0-9.7 -0.9-1.6-13.8-25.1-24.4-28.4 -1.3-0.4-2.7-0.6-4.3-0.6 -4.5 0-9.2 1.7-13.8 3.4 -4.1 1.5-8 2.9-11.4 2.9C262.4 112.7 261.6 112.6 260.8 112.4z" class="c"/><path d="M273.4 118c0 0 13.2-4.9 20.9 1.9 7.7 6.8 9.5 20 17.5 22.3C294.6 147.6 276.3 143.1 273.4 118z" class="d"/><path d="M293.7 125.8c-3.8-6.1-12.4-5.4-19.6-3.4 4.1 19.4 18.9 24.1 33.8 20.8C301.5 139.3 298.4 131.8 293.7 125.8z" class="e"/><path d="M299.4 144.7c-8.7 0-23.8-3.5-26.4-26.6l0-0.3 0.3-0.1c0.2-0.1 4.7-1.7 10.1-1.7 4.7 0 8.5 1.2 11.3 3.7 3.4 3 5.7 7.2 7.8 11.3 2.6 5 5.2 9.7 9.5 10.9l1.4 0.4 -1.4 0.4C307.6 144 303.4 144.7 299.4 144.7zM273.9 118.3c2.7 22.2 17.1 25.5 25.5 25.5 3.5 0 7.3-0.6 11.1-1.7 -3.9-1.8-6.3-6.2-8.8-10.9 -2.1-4-4.3-8.1-7.6-11 -2.6-2.3-6.2-3.5-10.7-3.5C278.9 116.7 275 117.9 273.9 118.3z" class="c"/><path d="M498.1 296.8c0 0 12.3 3.2 11.5-8.6 -0.9-11.8-10.3-29.2 13.2-35.3 -20.1 10.9-4.9 31.1-7.2 45.9 -1.6 10.4-9.5 16.1-14.9 16.3C495.3 310.5 494.7 296.4 498.1 296.8z" class="a"/><path d="M498.1 296.8c0 0 12.3 3.2 11.5-8.6 -0.9-11.8-10.3-29.2 13.2-35.3 -21.8 8.9-7.9 30-10.2 44.7 -1.6 10.4-7.7 12.6-13.2 12.9C494 306 494.7 296.4 498.1 296.8z" class="b"/><path d="M500.6 315.6l-0.1-0.1c-4.4-3.7-5.8-13.4-4.3-17.3 0.5-1.5 1.3-1.8 1.9-1.8l0.2 0c0.1 0 1.5 0.4 3.4 0.4 1.8 0 4.3-0.4 5.9-2.1 1.3-1.4 1.9-3.6 1.7-6.4 -0.2-2.3-0.7-4.8-1.2-7.4 -2.2-11-4.6-23.4 14.7-28.3l3.4-0.9 -3 1.7c-13.2 7.2-10.8 18.6-8.5 29.6 1.1 5.4 2.3 11 1.5 16 -1.7 11.1-10 16.4-15.3 16.7L500.6 315.6zM498 297.2c-0.5 0-0.9 0.7-1.1 1.2 -1.2 3.3-0.1 12.7 4 16.3 4.9-0.4 12.7-5.6 14.3-16 0.7-4.8-0.4-10.1-1.5-15.7 -2.2-10.5-4.5-21.3 6.1-28.8 -15.1 5.2-12.9 16.5-11 26.4 0.5 2.7 1 5.2 1.2 7.5 0.2 3.1-0.4 5.5-1.9 7.1 -1.4 1.6-3.7 2.4-6.6 2.4 -1.9 0-3.5-0.4-3.5-0.4L498 297.2z" class="c"/><path d="M456.3 249.8c0 0 24.9 5.2 42.7 36.7 17.8 31.5 4.9 80-30.1 93.2 -25.2 1.4-49.6-11.9-53.3-20.4C411.8 350.7 444.2 251.2 456.3 249.8z" class="a"/><path d="M499 286.5c-13.4-22.1-29.8-30.8-38.7-35.5 4.4 22.1 9.4 47.1-2.9 67.6 -8.9 14.8-17.1 30.3-20.3 47.5 7.3 0.1 16.1-0.5 25.9-1C497.9 351.8 517.8 317.4 499 286.5z" class="b"/><path d="M453.7 252.9c0 0 22.5 4.7 39 29 -9.3-10.7-29.5-22.4-40.1-24.4C450.9 256.2 452.1 252.5 453.7 252.9z" class="f"/><path d="M465.1 380.2c-23.7 0-46.3-12.4-49.9-20.8 -3.1-7 18.1-75.4 32.6-100.7 3.5-6.1 6.2-9.1 8.5-9.4l0.1 0 0.1 0c0.3 0.1 25.3 5.6 43 36.9 9.3 16.5 10.6 38 3.5 57.5 -6.4 17.5-18.4 30.4-33.8 36.2l-0.1 0C467.6 380.1 466.4 380.2 465.1 380.2zM456.2 250.2c-1.3 0.2-3.7 2-7.8 9 -14.4 25.1-35.6 93-32.5 99.9 3.6 8.2 25.8 20.3 49.1 20.3 1.2 0 2.5 0 3.7-0.1 15.2-5.7 27-18.4 33.3-35.7 7-19.3 5.7-40.5-3.5-56.8C481.6 256.5 457.7 250.5 456.2 250.2z" class="c"/><path d="M450.6 341.4l-0.7-0.4c6.8-11.4 26.2-25.9 26.2-25.9C475.8 315.2 457.4 330.2 450.6 341.4z" class="c"/><path d="M473.3 378.8c-14.1 11.3-32.5 11.7-41.2 0.9 -8.7-10.8-4.3-28.7 9.8-40 14.1-11.3 32.5-11.7 41.2-0.9C491.8 349.6 487.4 367.5 473.3 378.8z" class="g"/><path d="M435 371.9c15.5 7.7 32.7 1.7 43-10.3 5.1-5.1 7.4-11.6 7.5-18.9 -0.6-1.4-1.4-2.7-2.4-3.9 -8.7-10.8-27.1-10.4-41.2 0.9 -8.8 7.1-13.8 16.7-14.2 25.6C429.8 367.9 432.4 370.1 435 371.9z" class="a"/><path d="M450.1 388c-7.6 0-14.1-2.8-18.2-8 -8.8-11-4.4-29.2 9.9-40.6 7.1-5.7 15.5-8.8 23.6-8.8 7.6 0 14.1 2.8 18.2 8 4.3 5.3 5.6 12.5 3.7 20.2 -1.9 7.6-6.7 14.9-13.6 20.4C466.5 384.9 458.1 388 450.1 388zM465.2 331.4c-7.9 0-16.1 3.1-23 8.7 -13.9 11.1-18.2 28.8-9.7 39.4 4 5 10.2 7.7 17.6 7.7 7.9 0 16.1-3.1 23-8.7 6.7-5.4 11.5-12.5 13.3-20 1.8-7.4 0.6-14.3-3.6-19.4C478.8 334.1 472.6 331.4 465.2 331.4z" class="c"/><path d="M470 339.5c5.6 1.4 9-0.6 10.9-3 -4.4-4-10.6-5.8-17.1-5.4C463.7 334 464.6 338.1 470 339.5z" class="h"/><path d="M470 337.9c5.6 1.4 9 1 10.9-1.5 -4.4-4-10.6-5.8-17.1-5.4C463.7 334 464.6 336.6 470 337.9z" class="i"/><path d="M473.5 340.4L473.5 340.4c-1.1 0-2.3-0.2-3.6-0.5 -5.9-1.5-6.7-6.2-6.6-8.9l0-0.4 0.4 0c0.5 0 1 0 1.5 0 6.3 0 11.8 1.9 15.9 5.6l0.3 0.3 -0.2 0.3C480 338.4 477.6 340.4 473.5 340.4zM464.2 331.4c0 2.9 1.2 6.4 6 7.6 1.2 0.3 2.3 0.4 3.4 0.4 3.5 0 5.6-1.6 6.8-3C476.1 333 470.5 331.2 464.2 331.4z" class="c"/><path d="M480.1 353c-0.3 4.9 2.9 7.4 5.8 8.6 1.9-5.5 2.3-11.2 0.7-16.1C484 346.3 480.3 348.4 480.1 353z" class="h"/><path d="M486.6 345.4c-2.6 0.9-6.3 3-6.6 7.5 -0.2 2.6 0.1 3.9 1.4 5.3 2.7-3.9 5.1-7.6 5.2-12.5C486.7 345.7 486.7 345.5 486.6 345.4z" class="i"/><path d="M486.1 362.1l-0.4-0.2c-2.4-1-6.4-3.4-6.1-9 0.3-5 4.4-7.1 6.9-7.9l0.4-0.1 0.1 0.4c1.5 5 1.3 10.7-0.7 16.4L486.1 362.1zM486.3 346c-2.6 1-5.6 3-5.8 7 -0.3 4.6 2.6 6.9 5.1 8C487.4 355.8 487.6 350.6 486.3 346z" class="c"/><path d="M475.8 366.3c-2.9 2.7-2.9 7.8-1.1 11.4 3.9-3.4 6.9-7.3 9.1-11.4C481.3 365 478.1 364.2 475.8 366.3z" class="h"/><path d="M474.6 378.4l-0.2-0.5c-1.8-3.6-2-9 1.2-11.9 2-1.9 5-1.9 8.5 0l0.4 0.2 -0.2 0.4c-2.3 4.3-5.4 8.1-9.2 11.5L474.6 378.4zM479.2 365.4c-1.2 0-2.3 0.4-3.1 1.2 -2.7 2.5-2.6 7.1-1.2 10.4 3.4-3.1 6.3-6.6 8.4-10.5C481.7 365.8 480.4 365.4 479.2 365.4z" class="c"/><path d="M336.8 319.2c0 0-43.4-4.3-52 14 -8.1 17.3 16.1 51.2 42.1 43.6 13.1-3.8 19.4-17 22.8-24.1C350.5 343.5 343 322.9 336.8 319.2z" class="a"/><path d="M336.8 319.2c0 0-43.4-4.3-52 14 -2.1 4.5-2 10.1-0.3 15.8 4.7 2.8 9.8 4.9 15.3 5.6 17.5 2 35.1-4.4 47.6-16.4C344.8 329.9 340.6 321.4 336.8 319.2z" class="b"/><path d="M319.4 378.3L319.4 378.3c-13.7 0-24.8-9.9-30.6-19.1 -5.9-9.3-7.6-19.4-4.4-26.2 6-12.8 28.7-14.7 41.6-14.7 6.3 0 10.8 0.4 10.8 0.4l0.2 0.1c6.5 3.8 14 24.9 13.1 34l0 0.1 -0.1 0.2c-3.4 7.1-9.8 20.3-22.9 24.1C324.5 378 321.9 378.3 319.4 378.3zM326 319.2c-12.8 0-35.1 1.8-40.9 14.2 -3.1 6.6-1.5 16.3 4.3 25.4 5.7 9 16.6 18.7 29.9 18.7 2.5 0 5-0.4 7.4-1.1 12.8-3.7 19-16.7 22.4-23.6l0.1-0.2c0.8-9.5-6.8-29.4-12.6-33C336 319.6 331.7 319.2 326 319.2z" class="c"/><path d="M325 338c-10.8-11.9-26.3-15.8-36.6-9.8 -1.5 1.4-2.8 3.1-3.7 5 -8.1 17.3 16.1 51.2 42.1 43.6 1.6-0.5 3.1-1.1 4.5-1.8C338.1 365.4 335.7 349.8 325 338z" class="g"/><path d="M288.4 328.2c-1.5 1.4-2.8 3.1-3.7 5 -0.6 1.2-1 2.5-1.2 3.9 3.5 13.5 17.6 21.5 31.1 23.6 6.7 0.7 14.5 0.3 20-3.6 -1.1-6.5-4.4-13.3-9.6-19.1C314.3 326.2 298.8 322.3 288.4 328.2z" class="a"/><path d="M319.4 378.3L319.4 378.3c-13.7 0-24.8-9.9-30.6-19.1 -5.9-9.3-7.6-19.4-4.4-26.2 0.9-1.9 2.2-3.6 3.8-5.1l0.1-0.1c3.2-1.9 7-2.8 11.1-2.8 9.1 0 18.8 4.8 26 12.7 10.6 11.7 13.3 27.5 6.4 37.5l-0.1 0.1 -0.1 0.1c-1.5 0.8-3 1.4-4.6 1.8C324.5 378 321.9 378.3 319.4 378.3zM288.7 328.6c-1.5 1.4-2.7 3.1-3.6 4.8 -3.1 6.6-1.5 16.3 4.3 25.4 5.7 9 16.6 18.7 29.9 18.7 2.5 0 5-0.4 7.4-1.1 1.5-0.4 2.9-1 4.3-1.7 6.6-9.7 3.9-25-6.4-36.4 -7-7.8-16.5-12.4-25.4-12.4C295.4 325.9 291.8 326.8 288.7 328.6z" class="c"/><path d="M312.9 335.5c3.2 2.2 6.6 1 8.8-0.7 -3.8-3.4-8.1-5.9-12.3-7.5C309.4 330 309.9 333.5 312.9 335.5z" class="i"/><path d="M316.7 337.1L316.7 337.1c-1.4 0-2.8-0.4-4-1.3 -3.2-2.1-3.8-5.8-3.7-8.5l0-0.6 0.6 0.2c4.4 1.6 8.7 4.2 12.5 7.5l0.4 0.3 -0.4 0.3C320.4 336.4 318.5 337.1 316.7 337.1zM309.8 328c0 2.4 0.7 5.4 3.3 7.2 1.1 0.7 2.3 1.1 3.5 1.1 1.4 0 3-0.5 4.4-1.5C317.7 331.8 313.8 329.5 309.8 328z" class="c"/><path d="M292 334.1c2.7-1.6 3-5.1 2.7-8.1 -2.2 0.4-4.3 1.2-6.2 2.3 -1.5 1.4-2.8 3.1-3.7 5 -0.1 0.2-0.1 0.3-0.2 0.5C286.7 335 289.4 335.6 292 334.1z" class="i"/><path d="M288.7 335.4L288.7 335.4c-1.4 0-3-0.5-4.4-1.4l-0.3-0.2 0.2-0.5c0-0.1 0.1-0.2 0.1-0.3 0.9-1.9 2.2-3.6 3.8-5.1l0.1-0.1c1.9-1.1 4.1-1.9 6.4-2.4l0.5-0.1 0 0.5c0.4 4.2-0.6 7.1-2.9 8.6C291.1 335.1 290 335.4 288.7 335.4zM285.1 333.5c2.3 1.3 4.7 1.4 6.7 0.2 2.4-1.5 2.7-4.7 2.5-7.3 -2 0.4-3.9 1.2-5.6 2.1 -1.5 1.4-2.7 3.1-3.6 4.8L285.1 333.5z" class="c"/><path d="M292.2 350.5c-1.3-3.1-5.2-3.8-8.4-3.8 0.9 4.2 2.8 8.5 5.4 12.6C291.6 357.3 293.7 354.1 292.2 350.5z" class="h"/><path d="M289.1 359.9l-0.3-0.4c-2.6-4.1-4.5-8.5-5.5-12.7l-0.1-0.5 0.5 0c4.6 0 7.6 1.5 8.8 4.1 2 4.7-1.8 8.3-3.1 9.3L289.1 359.9zM284.3 347.1c0.9 3.8 2.6 7.8 5 11.5 1.4-1.2 4.1-4.2 2.5-8C290.6 347.9 287.2 347.2 284.3 347.1z" class="c"/><path d="M361.5 213.2c0 0-38.7 22.4-39.8 68.8 -1.1 46.4 21.4 59.5 19.9 86.2 3.7 15.2 33.8 13.2 40.9 7.2 6.9 7.7 35.6 10 44.7 0 6.3-16.6 0.6-23.8 13.2-37.8 12.6-14 27.5-43.9 24.9-75.7 -2.6-31.8-24.4-50.5-60.2-52.8C391.2 209.6 372.6 208.8 361.5 213.2z" class="a"/><path d="M460.1 261.8c-1.7-20.5-9.1-35.4-23.6-44.2 -18.8-1.2-38.4 5.5-53.9 17.5 -11.3 9.1-30.6 8.8-42.1-3 -9.3 11.4-18.2 27.9-18.7 49.9 -1.1 46.4 26.4 56.3 24.9 83 3.7 15.2 28.5 10.5 35.6 4.5 6.9 7.7 35.8 15.8 45 5.8 6.3-16.6 0.6-23.8 13.2-37.8C453.1 323.4 462.7 293.6 460.1 261.8z" class="b"/><path d="M351.9 301.4c-6.3-9.2-11.9-31.5-11.9-31.5 0.1 0.2 6.4 22 12.6 31.1L351.9 301.4z" class="c"/><path d="M405.8 382.5c-10 0-19.5-2.7-23.3-6.5 -3.4 2.6-10.8 4.3-18.4 4.3h0c-12.6 0-21.1-4.5-23-12l0-0.1 0-0.1c0.6-11.6-3.3-20.6-7.8-31 -5.9-13.6-12.7-29-12-55.1 1.1-46.2 39.6-68.9 40-69.2 8.8-3.5 22.3-3.8 34.2-4 3.4-0.1 6.6-0.1 9.7-0.2 36.5 2.3 58.1 21.2 60.7 53.1 2.5 30.3-11.3 60.7-25.1 76 -7.7 8.6-8.5 14.4-9.4 21.8 -0.6 4.5-1.2 9.5-3.7 15.9l-0.1 0.1C423.7 380 415.7 382.5 405.8 382.5zM382.6 374.7l0.3 0.3c3.4 3.9 12.9 6.5 22.9 6.5 9.6 0 17.3-2.4 21.1-6.5 2.4-6.3 3-11.3 3.6-15.7 0.9-7.2 1.8-13.5 9.6-22.2 13.7-15.2 27.3-45.3 24.8-75.4 -2.6-31.5-23.8-50.1-59.8-52.4 -3 0.1-6.2 0.2-9.7 0.2 -11.9 0.2-25.3 0.4-33.9 3.9 -0.3 0.2-38.4 22.8-39.5 68.4 -0.6 25.9 6.1 41.2 12 54.7 4.6 10.5 8.6 19.6 7.9 31.4 2.6 10.5 17.6 11.3 22.1 11.3 7.6 0 15-1.8 18.1-4.4L382.6 374.7z" class="c"/><path d="M364.8 372.6c-5.1-0.7-7 3-7.1 6.8 4.9 0.7 10.1 0.6 14.6-0.2C371.8 376.6 370 373.3 364.8 372.6z" class="h"/><path d="M358.9 375.1c3.7 0.6 7.6 0.6 11.3 0 -1.2-1.2-2.9-2.1-5.4-2.5C361.8 372.2 359.9 373.3 358.9 375.1z" class="i"/><path d="M364.2 380.3L364.2 380.3c-2.3 0-4.5-0.2-6.5-0.5l-0.4-0.1 0-0.4c0.2-5 3-7.8 7.6-7.2 5.4 0.7 7.3 4.1 7.9 6.9l0.1 0.4 -0.4 0.1C369.8 380 366.9 380.3 364.2 380.3zM358.2 379c4.3 0.6 9.2 0.5 13.6-0.2 -0.6-2.4-2.4-5.1-7-5.8 -0.4-0.1-0.8-0.1-1.1-0.1C359.2 373 358.3 376.9 358.2 379z" class="c"/><path d="M380.7 369.2c-6.4-0.9-7.7 5.2-6.8 9.6 3.8-0.8 6.9-2 8.7-3.5 1.3 1.4 3.3 2.7 5.7 3.7 0.1-0.1 0.1-0.2 0.1-0.4C388.5 378.6 389.3 370.4 380.7 369.2z" class="h"/><path d="M380.7 369.2c-4.3-0.6-6.3 1.9-6.9 4.9 3.1-1 6-2.5 8.4-4.6C381.8 369.4 381.3 369.3 380.7 369.2z" class="i"/><path d="M388.6 379.5l-0.4-0.1c-2.5-1-4.3-2.2-5.6-3.5 -1.8 1.4-4.8 2.6-8.6 3.3l-0.4 0.1 -0.1-0.4c-0.5-2.5-0.4-5.9 1.5-8.2 1.3-1.6 3.3-2.3 5.9-2 8.9 1.2 8.1 9.8 8.1 9.9 0 0.2-0.1 0.3-0.2 0.4L388.6 379.5zM382.6 374.7l0.3 0.3c1.1 1.2 2.8 2.4 5.1 3.4 0.1-1 0.2-7.8-7.4-8.8 -2.2-0.3-4 0.3-5.1 1.7 -1.5 1.9-1.7 4.8-1.3 7 3.6-0.8 6.5-2 8.1-3.3L382.6 374.7z" class="c"/><path d="M382.6 350c0 0-13.5-29.7-30.3-48.8 -12-21.5-2.4-49.5 23.9-53.5 26.2-4.1 44.1 34.4 43 46.9C403.2 308.7 383.2 343.3 382.6 350z" fill="#CFDAE0"/><path d="M394.6 311.7c13-5.1 18.8-18.1 21.8-30.8 -5.9-15.8-20.8-36.3-40.3-33.3 -25.8 4-35.6 31.1-24.4 52.5C362.9 310.9 379.8 317.1 394.6 311.7z" fill="#DFE7EA"/><path d="M382.9 351.6l-0.7-1.5c-0.1-0.3-13.7-29.8-30.2-48.7l-0.1-0.1c-6.3-11.3-6.9-24.6-1.6-35.7 4.9-10.1 14.1-16.7 25.7-18.5 9.6-1.5 19.2 2.6 27.6 11.7 10.2 11.2 16.6 27.7 15.9 35.6l0 0.2 -0.1 0.1c-16.3 14.6-35.8 49-36.4 55.2L382.9 351.6zM352.6 300.9c14.7 16.8 27.1 42 29.8 47.7 2.5-9.3 21.5-41.1 36.3-54.3 0.6-7.8-5.7-23.9-15.7-34.8 -8.2-8.9-17.5-12.9-26.8-11.5 -11.4 1.8-20.3 8.2-25.1 18C345.9 276.8 346.4 289.8 352.6 300.9z" class="c"/><path d="M415.3 265.8c0 0-4 11 1.3 31.1 -11.9 12-26.2 26.9-33.4 49.7 -4.4 13.9-4.7 22.5-0.6 28.7 6.9 7.7 35.6 10 44.7 0 6.3-16.6 0.6-23.8 13.2-37.8 12.6-14 27.5-43.9 24.9-75.7L415.3 265.8z" class="a"/><path d="M415.3 265.8c0 0-4 11 1.3 31.1 -11.9 12-26.2 26.9-33.4 49.7 -4.4 13.9-3.7 18.9 0.5 25.1 6.9 7.7 24.6 7.4 33.8-2.6 6.3-16.6 5.2-21.5 17.8-35.5 12.6-14 27.3-41.3 24.7-73.1L415.3 265.8z" class="b"/><path d="M405.9 382.5c-0.1 0-0.3 0-0.4 0 -10.3-0.1-19.6-2.8-23.2-6.8 -4.2-6.2-4-14.6 0.5-29.1 7.3-23.3 22.3-38.6 33.3-49.7 -5.2-19.8-0.4-30.8-0.4-30.8 0 0.1-3.9 11.2 1.3 30.9l0.1 0.2 -0.2 0.2c-11 11.1-26 26.3-33.3 49.6 -4.4 14.2-4.6 22.4-0.6 28.3 3.3 3.7 12.6 6.4 22.5 6.5 0.1 0 0.3 0 0.4 0 9.6 0 17.2-2.4 21.1-6.5 2.4-6.3 3-11.3 3.6-15.7 0.9-7.2 1.8-13.5 9.6-22.2 13.7-15.2 27.3-45.3 24.8-75.4l0.9-0.1c2.5 30.3-11.3 60.7-25.1 76 -7.7 8.6-8.5 14.4-9.4 21.8 -0.6 4.5-1.2 9.5-3.7 15.9l-0.1 0.1C423.6 380 415.7 382.5 405.9 382.5z" class="c"/><path d="M405.8 372.2c-5.3 0.1-6.4 5.5-6.5 9.5 4.5 0.5 9.4 0.5 13.9-0.1C412.8 377.9 411.4 372.1 405.8 372.2z" class="h"/><path d="M405.8 372.2c-3.4 0-5 2.3-5.8 4.9 3.8 0 7.6-0.7 11.2-2C410 373.4 408.4 372.2 405.8 372.2z" class="i"/><path d="M405.8 382.5L405.8 382.5c-2.2 0-4.4-0.1-6.5-0.4l-0.4 0 0-0.4c0-3 0.7-9.8 6.9-9.9h0.1c5.9 0 7.4 6.1 7.7 9.7l0 0.4 -0.4 0.1C410.9 382.3 408.4 382.5 405.8 382.5zM399.8 381.3c4.4 0.5 8.9 0.4 13-0.1 -0.4-3.4-1.9-8.5-6.8-8.5C400.8 372.7 399.9 377.9 399.8 381.3z" class="c"/><path d="M388 369.1c-3.5 0-5.2 2.5-5.9 5.3 0.2 0.3 0.4 0.6 0.6 0.9 2.3 2.6 7.2 4.6 12.9 5.7C395.5 379.8 395.5 369.1 388 369.1z" class="h"/><path d="M388 369.1c-1.8 0-3.1 0.7-4 1.6 3.1 3.1 7 5 11.2 5.8C394.4 373.2 392.6 369.1 388 369.1z" class="i"/><path d="M395.9 381.6l-0.5-0.1c-6.2-1.2-10.8-3.3-13.1-5.9 -0.2-0.4-0.4-0.7-0.6-1l-0.1-0.2 0-0.2c1-3.6 3.2-5.5 6.4-5.6h0.1c1.9 0 3.5 0.7 4.7 1.9 3.1 3.2 3.2 9.2 3.1 10.4L395.9 381.6zM382.5 374.3c0.1 0.3 0.3 0.5 0.5 0.8 2 2.3 6.5 4.3 12.1 5.4 0-1.7-0.3-6.7-2.9-9.3 -1.1-1.1-2.5-1.7-4.1-1.7C385.2 369.6 383.4 371.2 382.5 374.3z" class="c"/><path d="M415.2 298.9l-0.7-0.6c5.6-6.8 16.9-10.2 16.9-10.2C431.4 288.2 420.7 292.3 415.2 298.9z" class="c"/><path d="M385.6 50.7c-26.2 1.4-56.9 17.2-64.4 48.2 -7.5 31-7 52-16 61.9 0.9 17.2 9.2 40 21.5 44.3 12.3 4.3 16.3 27.1 35.3 27.2 21.2 0.1 17.6-7.4 28.1-12.8 28.3-14.6 51-0.1 69.4-14.4 21.9-17 28.4-43.3 8-69.4C469.5 105.6 443.7 47.6 385.6 50.7z" class="a"/><path d="M385.6 50.7c-26.2 1.4-56.9 17.2-64.4 48.2 -7.5 31-7 52-16 61.9 0.9 17.2 11.1 36.8 23.4 41.1 12.3 4.3 15.9 25.8 34.8 25.8 16.2 0 20.3-12.5 30.8-17.9 28.3-14.6 36-0.7 60-11 21-9 29.9-38.8 9.6-64.8C465.8 103.8 443.7 47.6 385.6 50.7z" class="b"/><ellipse cx="401.2" cy="126.3" rx="17.4" ry="26.4" class="a"/><ellipse cx="340.2" cy="125.2" rx="17.4" ry="26.5" class="a"/><path d="M362.4 232.7l-0.5 0c-11.4-0.1-17.6-8.3-23-15.6 -3.8-5.1-7.4-9.9-12.4-11.6 -12.3-4.3-20.9-26.5-21.8-44.7l0-0.2 0.1-0.1c5.7-6.3 7.6-17.3 10.2-32.5 1.4-8.5 3.1-18.2 5.7-29.2 7.6-31.4 38.9-47.2 64.8-48.5 22.5-1.2 42.7 6.9 58 23.3 18.2 19.5 25.4 45.8 24.4 62 9.4 12 13.5 24.9 12 37.2 -1.5 12.3-8.5 23.6-20.2 32.7 -8.6 6.7-17.7 7.2-29.6 7.2h0l-2.8 0c-12.5 0-24 0.5-37 7.3 -3.4 1.8-5.3 3.8-7.1 5.7C379.5 229.4 376.3 232.7 362.4 232.7zM305.6 160.9c0.9 17.9 9.7 39.7 21.2 43.7 5.2 1.8 8.9 6.7 12.8 11.9 5.6 7.5 11.4 15.2 22.4 15.3l0.5 0c13.5 0 16.6-3.2 20.1-6.9 1.9-2 3.8-4 7.3-5.9 14.3-7.4 27.6-7.4 37.4-7.4l2.8 0c11.8 0 20.8-0.5 29.1-7 11.5-8.9 18.3-20 19.8-32.1 1.5-12.1-2.6-24.8-11.9-36.7l-0.1-0.1 0-0.2c1.1-16.1-6-42.2-24.1-61.5 -15.1-16.2-35-24.2-57.3-23 -25.6 1.3-56.5 16.9-64 47.8 -2.7 11-4.3 20.6-5.7 29.2C313.3 143.3 311.4 154.4 305.6 160.9z" class="c"/><path d="M335.5 202.5c7 3.6 14.8 18.8 22.2 19.9 11.4 1.7 28.1-6.6 33.6-19.9C387.9 192.2 335.7 197.2 335.5 202.5z" fill="#611000"/><path d="M347 209.2c-1 0-2.1 0.4-3.2 1 4.6 5.4 9.3 11.5 13.9 12.2 8.8 1.3 20.9-3.4 28.4-11.8C373.5 214.3 359.7 209.2 347 209.2z" fill="#B91000"/><path d="M357.7 222.4c10.2 1.5 24.8-5 31.6-16.1 -3.6-0.4-9-0.9-13.8-0.9 -8.3 0-14.1 3.7-14.1 3.7s-5.7-2.2-10.5-2c-3.8 0.2-6.1 1.4-7.5 2.7C348.2 215.3 353 221.7 357.7 222.4z" fill="#FB4757"/><path d="M353.3 219.5c6.3 4 14.3 2.4 19-3.2 4.5-6-2.4-8.5-7.8-8.7 -1.9 0.8-3 1.5-3 1.5s-5.6-2.2-10.4-2C347.5 210.6 349.8 216.7 353.3 219.5z" fill="#FB526E"/><path d="M360.8 223.1h0c-1.1 0-2.1-0.1-3.1-0.2 -4.3-0.6-8.6-5.8-12.8-10.8 -0.6-0.7-1.1-1.3-1.7-2l-0.2-0.3 0.3-0.3c1.8-1.7 4.5-2.6 7.8-2.8 4.4-0.2 9.4 1.6 10.5 2 1-0.6 6.5-3.7 14.1-3.7 4.8 0 10.2 0.5 13.8 0.9l0.6 0.1 -0.3 0.5C383 217.4 370.1 223.1 360.8 223.1zM344 209.8c0.5 0.6 1 1.1 1.4 1.7 4.1 4.9 8.3 9.9 12.3 10.5 1 0.1 2 0.2 3 0.2 10.2 0 22-6.7 27.9-15.6 -3.6-0.4-8.6-0.8-13.1-0.8 -8.1 0-13.8 3.6-13.9 3.7l-0.2 0.1 -0.2-0.1c-0.1 0-5.7-2.2-10.3-2C348 207.7 345.7 208.4 344 209.8z" class="j"/><path d="M360.8 223.1L360.8 223.1c-1.1 0-2.2-0.1-3.1-0.2 -4.3-0.6-8.6-5.8-12.8-10.8 -3.2-3.8-6.5-7.7-9.5-9.2l-0.2-0.1 0-0.2c0.1-3.8 20-6.4 33.2-6.4 8 0 21.6 0.8 23.4 6.3l0 0.1 -0.1 0.1C386.5 215.3 371.6 223.1 360.8 223.1zM336 202.3c3.1 1.7 6.2 5.4 9.5 9.3 4.1 4.9 8.3 9.9 12.3 10.5 1 0.1 2 0.2 3 0.2 10.5 0 25-7.6 30.1-19.8 -1.4-3.5-9.6-5.6-22.6-5.6C352.5 196.9 337 199.9 336 202.3z" fill="#91363D"/><path d="M361.1 209.2c0 0-2.8 2.7-3.7 6.8 2.2-4.1 4.5-6.7 4.5-6.7L361.1 209.2z" class="j"/><ellipse cx="401.2" cy="128.8" rx="14.7" ry="23.5" class="k"/><path d="M415.9 128.8c0 19.7-29.6 18.5-29.5 0 0.1-13 6.6-23.5 14.7-23.5C409.3 105.3 415.9 115.8 415.9 128.8z" class="l"/><path d="M401.2 152.8c-8.4 0-15.2-10.7-15.2-24 0-13.2 6.8-24 15.2-24 8.4 0 15.2 10.7 15.2 24C416.3 142 409.5 152.8 401.2 152.8zM401.2 105.7c-7.9 0-14.3 10.4-14.3 23.1 0 12.7 6.4 23.1 14.3 23.1s14.3-10.4 14.3-23.1C415.5 116.1 409.1 105.7 401.2 105.7z" class="m"/><ellipse cx="401.7" cy="131" rx="8.6" ry="12.1" class="n"/><path d="M401.7 143.5c-5 0-9-5.6-9-12.5 0-6.9 4-12.5 9-12.5 5 0 9 5.6 9 12.5C410.7 137.9 406.7 143.5 401.7 143.5zM401.7 119.4c-4.5 0-8.2 5.2-8.2 11.6 0 6.4 3.7 11.6 8.2 11.6 4.5 0 8.2-5.2 8.2-11.6C409.9 124.6 406.2 119.4 401.7 119.4z" class="o"/><ellipse cx="401.9" cy="131.2" rx="5" ry="6.7" class="p"/><ellipse transform="matrix(0.997 0.0777 -0.0777 0.997 11.0296 -25.9904)" cx="339.6" cy="128.8" rx="14.7" ry="23.5" class="k"/><path d="M354.3 129.9c-1 13-30.4 10.7-29.4-2.3 1-13 8.4-22.9 16.5-22.3S355.3 117 354.3 129.9z" class="l"/><path d="M338.5 152.7c-0.3 0-0.5 0-0.8 0 -4.1-0.3-7.7-3.1-10.2-7.9 -2.5-4.7-3.5-10.8-3.1-17.2 1-13.1 8.6-23.4 17-22.7 4.1 0.3 7.7 3.1 10.2 7.9 2.5 4.7 3.6 10.8 3.1 17.2C353.8 142.7 346.6 152.7 338.5 152.7zM340.7 105.7c-7.7 0-14.4 9.6-15.4 21.9 -0.5 6.2 0.6 12.1 3 16.7 2.4 4.5 5.7 7.2 9.5 7.5 7.9 0.6 15.1-9.2 16.1-21.9 0.5-6.2-0.6-12.1-3-16.7 -2.4-4.5-5.7-7.2-9.5-7.4C341.2 105.8 341 105.7 340.7 105.7z" class="m"/><ellipse transform="matrix(0.997 0.0776 -0.0776 0.997 11.2029 -26.0015)" cx="340" cy="131.1" rx="8.6" ry="12.1" class="n"/><path d="M339.5 143.5c-0.2 0-0.3 0-0.5 0 -2.4-0.2-4.6-1.7-6.1-4.2 -1.5-2.5-2.2-5.7-1.9-9 0.5-6.8 5-12.1 10-11.8 2.4 0.2 4.6 1.7 6.1 4.2 1.5 2.5 2.2 5.7 1.9 9C348.5 138.4 344.3 143.5 339.5 143.5zM340.4 119.5c-4.3 0-8.1 4.8-8.6 11 -0.2 3.1 0.4 6.1 1.8 8.4 1.4 2.3 3.3 3.6 5.4 3.8 4.5 0.4 8.5-4.6 9-11 0.2-3.1-0.4-6.1-1.8-8.4 -1.4-2.3-3.3-3.6-5.4-3.8C340.7 119.5 340.6 119.5 340.4 119.5z" class="o"/><ellipse transform="matrix(0.997 0.0778 -0.0778 0.997 11.2392 -26.0603)" cx="340.2" cy="131.3" rx="5" ry="6.7" class="p"/><path d="M401.7 84.4c0 0 9.7 6.9 11.8 16.8 -4.7-7.5-13.8-14-17.8-14.6C395.9 85.3 399.3 82.5 401.7 84.4z" class="c"/><path d="M340.5 84.4c0 0-9.7 6.9-11.8 16.8 4.7-7.5 13.8-14 17.8-14.6C346.2 85.3 342.8 82.5 340.5 84.4z" class="c"/><path d="M434.7 150c0 0-20.5-7.5-43.1-0.4 -19.1-11.4-64.5-17-86.4 4.7 -21.9 21.7 3.2 56.4 28.2 50.7 8.7-2 12.4-3.9 23.6-0.9 20 5.4 43 6.2 61.1-22.8L434.7 150z" class="a"/><path d="M436.7 150.6c0 0-22.5-8.1-45.1-1 -19.1-11.4-64.5-17-86.4 4.7 -21.9 21.7 2.6 49.1 27.5 43.4 8.8-2 14.2-3.9 25.4-0.9 20 5.4 43.9 4.1 60-15.5L436.7 150.6z" class="b"/><path d="M388.1 151c0 0.7-15.6-6.3-37.7-6.3 -22 0-37.1 8.3-37.1 7.6 0-0.7 15-10.1 37.1-10.1C372.4 142.1 388.1 150.3 388.1 151z" class="f"/><path d="M376.4 207.6c-6.8 0-13.5-1.3-19.6-3 -9.4-2.5-13.3-1.6-19.8 0 -1.1 0.3-2.3 0.6-3.6 0.9 -12.5 2.8-26.1-4.2-33.1-17.1 -6.6-12.1-4.9-25 4.6-34.4 21.4-21.2 66.3-17 86.8-4.9 22.4-7 43 0.9 43 0.9 -0.2-0.1-20.8-7-43 0l-0.2 0.1 -0.2-0.1c-20.2-12-64.7-16.3-85.9 4.7 -9.2 9.1-10.9 21.6-4.4 33.4 6.9 12.5 20.1 19.4 32.2 16.6 1.3-0.3 2.5-0.6 3.6-0.9 6.4-1.6 10.6-2.6 20.2 0 18.5 5 42.1 6.9 60.7-22.6l0.7 0.5C405.7 201.9 390.7 207.6 376.4 207.6z" class="c"/><path d="M352 203.5c-12.8-2.9-18.5-13.3-18.5-13.3 0.1 0.1 6.3 9.6 18.7 12.4L352 203.5z" class="c"/><path d="M420.7 190.4c0.5-7.4-7.3-13.5-7.4-13.5 0 0 3.9 1.9 6.2 5.7C421.7 186.5 420.7 190.4 420.7 190.4z" class="c"/><path d="M369.7 187.1c0 0 4.9-10.5 9.3-11.2 4.4-0.7 6.2 4.3 3.6 6.9C380 185.4 373.3 187 369.7 187.1z" class="a"/><path d="M369 187.6l0.3-0.6c0.2-0.4 5-10.7 9.6-11.4 2.2-0.4 4.1 0.6 4.9 2.6 0.7 1.7 0.3 3.7-1 5 -2.6 2.6-9.4 4.3-13.2 4.4L369 187.6zM379.8 176.3c-0.2 0-0.5 0-0.8 0.1 -3.5 0.6-7.5 8-8.7 10.3 3.7-0.3 9.6-1.8 11.9-4.1 1.1-1.1 1.4-2.7 0.8-4.1C382.5 177.1 381.3 176.3 379.8 176.3z" class="c"/><path d="M365.3 185c0 0 4.7-11.3 13.3-13.4 6.7-1.6 9.3 4.4 9.3 4.4 -0.1-0.2-3.1-5.1-9.1-3.6C370.6 174.5 365.4 184.9 365.3 185z" class="c"/><path d="M313.3 183.1c0 0 0.2-6.9-2.7-9.8 -2.9-2.9-4.4-0.4-3.9 2.6C307.7 180.3 313.3 183.1 313.3 183.1z" class="a"/><path d="M313.8 183.8l-0.6-0.3c-0.2-0.1-5.9-2.9-6.8-7.5 -0.3-1.5-0.1-2.9 0.6-3.7 0.9-1.1 2.4-0.9 4 0.7 3 3 2.8 9.8 2.8 10.1L313.8 183.8zM308.4 172.5c-0.3 0-0.5 0.1-0.8 0.4 -0.5 0.6-0.6 1.7-0.4 2.9 0.6 3.3 4.2 5.7 5.7 6.6 0-1.8-0.4-6.6-2.6-8.8C309.4 172.7 308.7 172.5 308.4 172.5z" class="c"/><path d="M317.2 182.6c0-0.1 0.2-10.3-4.9-14.4 -1.2-0.9-2.4-1.3-3.5-1.1 -2 0.3-3.3 2.4-3.3 2.4 0 0 0.8-2.8 3.1-3.3 1.4-0.2 2.8 0.2 4.2 1.3C318.2 171.8 317.2 182.6 317.2 182.6z" class="c"/><path d="M403.9 158.4c-0.1-0.1-10.3-8.3-17.6-11.1l0.3-0.8C394 149.3 403.9 158.4 403.9 158.4z" class="c"/><ellipse cx="342" cy="124.5" rx="2.3" ry="2.6" class="l"/><ellipse cx="404.3" cy="125.5" rx="2.3" ry="2.6" class="l"/><path d="M328.1 178c-10.5-3.4-16.1-39.2-8.3-49 4-0.3 13 7.1 26.2 13.6 9.1 4.5 16.1 9.4 14.7 19.2C359.2 172.6 347.6 184.3 328.1 178z" fill="#E8DA97"/><path d="M333.5 169.6c-10.6-3-17.7-30.1-13.7-40.5 4-0.3 13 7.1 26.2 13.6 9.1 4.5 15.8 9.4 14.7 19.2C360 168.6 350.3 174.3 333.5 169.6z" fill="#FFFBE3"/><path d="M338.6 180.2c-3.4 0-6.9-0.6-10.6-1.8 -3.7-1.2-7-6.1-9.3-14 -3.7-12.1-4.4-29.1 0.8-35.7l0.1-0.1 0.2 0c2.4-0.2 6.4 2.2 12.1 5.6 3.9 2.4 8.8 5.3 14.3 8 8 4 16.5 9.1 15 19.6C359.8 171 351.7 180.2 338.6 180.2zM320.1 129.4c-4.7 6.3-4.1 23-0.6 34.8 2.3 7.4 5.5 12.3 8.8 13.4 3.6 1.2 7.1 1.8 10.4 1.8 12.6 0 20.4-8.9 21.7-17.6 1.3-9-4.6-13.9-14.5-18.8 -5.5-2.7-10.5-5.7-14.4-8.1C326.3 131.8 322.3 129.4 320.1 129.4z" fill="#BFAA51"/><path d="M453.3 125.2c0 0 6.7-7.3 12.7-21.9 6-14.6 25.8-28.4 55-24.5 -0.6 13.3-3.2 34.2-15.7 44.9 -12.5 10.8-32.3 9.7-38.9 14.2L453.3 125.2z" class="a"/><path d="M451.8 126.3c0 0 8.2-8.4 14.2-23 6-14.6 27.4-27.8 52.9-24.8 -0.6 13.3-4.1 32.1-16.6 42.8 -12.5 10.8-32 11.9-39.1 19.4L451.8 126.3z" class="b"/><path d="M466.6 138.2c0 0 2.3-3.1 11.9-4.5 8.4-1.7 18.8-3.8 26.4-10.4 9.2-7.9 14.4-22.8 15.5-44.2 -28.9-3.7-48.3 10-54.2 24.3 -6 14.5-13.4 21.5-13.4 21.5 0.1-0.1 6.7-7.4 12.6-21.8 6-14.7 26-28.7 55.5-24.8l0.4 0.1 0 0.4c-1.1 21.9-6.4 37.1-15.8 45.2 -7.8 6.7-18.3 8.9-26.8 10.6C473.6 135.6 469.1 136.5 466.6 138.2z" class="c"/><path d="M466.8 125.2c0 0 11.8-34.6 43.9-38.1 0 7.4-2.5 20-12 27.7C490.8 121.2 478.9 120.5 466.8 125.2z" class="d"/><path d="M470.4 123.9c10.8-3.4 21.2-3.4 28.3-9.1 9.2-7.5 11.1-17.1 11.8-24.1C492.2 94.7 477.8 107.4 470.4 123.9z" class="e"/><path d="M466.1 125.9l0.3-0.9c0.1-0.3 12.3-34.9 44.2-38.3l0.5-0.1v0.5c0 8.8-3.2 20.8-12.2 28.1 -4.7 3.8-11 5.1-17.6 6.5 -4.6 1-9.4 2-14.3 3.9L466.1 125.9zM510.3 87.6c-28.2 3.3-40.6 31.5-42.7 36.8 4.6-1.7 9.2-2.7 13.6-3.6 6.5-1.4 12.7-2.6 17.2-6.3C507 107.6 510.2 96.2 510.3 87.6z" class="c"/><path d="M458.7 131.6c0.1 0 6.5-4.1 8.4-8.2l0.8 0.4C465.9 128.1 458.7 131.6 458.7 131.6z" class="c"/><path d="M510 87.6l-0.1-0.8c3.2-0.5 6.1 0 6.1 0C515.9 86.8 513.2 87.1 510 87.6z" class="c"/><path d="M431.6 66.9c0 0.8-19.2-11.1-44.3-11.1 -25.1 0-38.6 13.1-39.1 12.6 -1.7-1.7 14.1-15.4 39.1-15.4C412.3 53.1 431.6 66.1 431.6 66.9z" class="f"/><path d="M513.8 80c0 0-19.2 0.1-28.4 5.9 -9.2 5.7-16.5 12.5-19.3 24.2C474.2 89.4 496.8 81.8 513.8 80z" class="f"/><path d="M311.8 131.3c0 0-7.9-16.1-18.6-21.8 -8.8-4.6-16 2.9-24 4.3 4.9 1 16.9-5.6 24.4-1.7C301.6 116.3 310.9 129.7 311.8 131.3z" class="f"/><path d="M432.3 150.2c0 0.4-7.8-1-17.4-1s-17.4 1.3-17.4 1c0-0.4 7.8-2.3 17.4-2.3S432.3 149.9 432.3 150.2z" class="f"/></svg>