<?xml version="1.0" encoding="utf-8"?>
<!-- Generator: Adobe Illustrator 16.0.0, SVG Export Plug-In . SVG Version: 6.00 Build 0)  -->
<!DOCTYPE svg PUBLIC "-//W3C//DTD SVG 1.1//EN" "http://www.w3.org/Graphics/SVG/1.1/DTD/svg11.dtd">
<svg version="1.1" id="Layer_1" xmlns="http://www.w3.org/2000/svg" xmlns:xlink="http://www.w3.org/1999/xlink" x="0px" y="0px"
	 width="768px" height="430px" viewBox="0 0 768 430" enable-background="new 0 0 768 430" xml:space="preserve">
<g>
	<path fill="#667EB2" d="M527.784,302.73c6.528-1.549,12.713-10.311,12.027-19.934c-0.689-9.621-15.459-24.48-12.027-43.293
		c0.859-0.518,5.999,0.686,5.999,0.686c-2.222,12.713,3.394,20.834,8.261,29.379c10.909,19.156,9.556,39.387-16.135,47.635
		C521.523,311.703,527.784,302.73,527.784,302.73z"/>
	<path fill="#7388BF" d="M527.784,302.73c6.528-1.549,12.713-10.311,12.027-19.934c-0.689-9.621-15.459-24.48-12.027-43.293
		c0.859-0.518,4.268,0.32,4.268,0.32c-2.222,12.715,1.689,20.258,6.556,28.805c10.909,19.156,5.02,36.361-14.255,41.719
		C519.964,304.848,527.784,302.73,527.784,302.73z"/>
	<path fill="#28466B" d="M525.729,317.801l-0.224-0.277c-4.571-5.734,1.59-14.711,1.854-15.09l0.114-0.162l0.19-0.045
		c6.055-1.434,12.321-9.75,11.632-19.391c-0.241-3.381-2.307-7.492-4.698-12.25c-4.251-8.467-9.542-19.004-7.322-31.176l0.042-0.23
		l0.201-0.119c0.23-0.137,0.569-0.203,1.068-0.203c1.749,0,5.168,0.797,5.313,0.828l0.473,0.111l-0.084,0.48
		c-1.993,11.426,2.337,18.9,6.924,26.816c0.43,0.74,0.856,1.479,1.278,2.221c6.477,11.371,8.19,22.387,4.83,31.021
		c-3.111,7.988-10.26,13.83-21.256,17.355L525.729,317.801z M528.101,303.182c-0.769,1.176-5.389,8.648-2.001,13.416
		c10.485-3.439,17.302-9.035,20.261-16.637c3.246-8.336,1.555-19.041-4.766-30.137c-0.421-0.74-0.848-1.477-1.274-2.213
		c-4.415-7.619-8.976-15.494-7.128-27.025c-1-0.217-3.34-0.695-4.605-0.695c-0.156,0-0.271,0.006-0.353,0.016
		c-2.012,11.703,3.14,21.959,7.284,30.215c2.441,4.861,4.549,9.057,4.806,12.641C541.043,292.814,534.497,301.52,528.101,303.182z"
		/>
</g>
<g>
	<path fill="#0C1119" d="M530.874,249.811c8.795,0.418,21.307-13.4,20.962-32.301c-0.344-18.901-14.434-32.473-24.055-34.191
		c4.469,5.325,5.499,14.088,3.093,22.336c-0.343-2.748-2.274-7.712-4.529-9.064c1.354,2.836-1.383,9.155-4.189,14.433
		C511.331,231.385,517.312,249.166,530.874,249.811z"/>
	<path fill="#0F151E" d="M531.047,242.594c8.795,0.418,15.034-7.246,14.689-26.146c-0.344-18.9-8.334-31.411-17.955-33.128
		c4.469,5.325,5.499,14.088,3.093,22.336c-0.343-2.748-2.274-7.712-4.529-9.064c1.354,2.836-1.383,9.155-4.189,14.433
		C511.331,231.385,517.484,241.951,531.047,242.594z"/>
	<path fill="#141B26" d="M532.052,186.614c1.959,5.08,3.506,16.164-2.681,24.926c0.129-1.937-0.08-8.405-1.673-11.212
		c-0.904,10.308-8.771,17.812-8.378,29.896c0.394,12.08,18.748,9.289,21.648-2.162C544.044,215.918,543.748,197.383,532.052,186.614
		z"/>
	<path fill="#06090D" d="M531.267,250.336L531.267,250.336c-0.14,0-0.279-0.004-0.416-0.01c-5.144-0.246-9.415-2.912-12.032-7.51
		c-4.51-7.93-3.408-20.203,2.881-32.036c4.725-8.882,4.879-12.499,4.18-13.967l-0.738-1.545l1.468,0.88
		c1.878,1.127,3.509,4.436,4.309,7.242c1.644-7.566,0.332-15.138-3.529-19.741l-0.912-1.088l1.396,0.249
		c9.991,1.784,24.137,15.846,24.479,34.689c0.189,10.4-3.571,20.553-10.06,27.158C538.75,248.266,534.731,250.336,531.267,250.336z
		 M527.207,198.06c0.164,2.756-1.354,7.106-4.598,13.204c-6.124,11.523-7.234,23.417-2.896,31.041
		c2.436,4.283,6.408,6.764,11.185,6.992c0.122,0.004,0.245,0.008,0.368,0.008l0,0c3.191,0,6.942-1.955,10.289-5.367
		c6.301-6.416,9.949-16.289,9.765-26.42c-0.317-17.469-12.752-30.695-22.265-33.376c3.716,5.379,4.638,13.686,2.313,21.656
		l-0.697,2.392l-0.31-2.472C530.095,203.576,528.802,199.992,527.207,198.06z"/>
</g>
<g>
	<path fill="#7694C1" d="M336.727,270.686c-1.289,11.338-4.702,25.668-18.556,34.533c-12.887,8.248-21.392,20.361-22.165,45.104
		c-1.804,2.834-4.638,8.889-2.664,12.113c10.396,9.791,31.527,7.473,43.728,0.516c3.951-11.342,11.254-37.984,22.593-44.377
		c11.34-6.395,22.422-30.879,24.482-43.25C382.6,263.471,343.427,271.201,336.727,270.686z"/>
	<path fill="#85A5DD" d="M317.655,324.033c3.093,0,6.185-2.062,8.247-4.125c1.031-2.061,0-4.121-1.032-6.184
		c20.229-4.598,15.037-27.23,13.678-43.043c-0.74,0.031-1.363,0.039-1.821,0.004c-1.289,11.338-4.702,25.668-18.556,34.533
		c-12.887,8.248-21.392,20.361-22.165,45.104c-1.804,2.834-4.638,8.889-2.664,12.113c4.339,4.086,10.549,6.059,17.199,6.469
		c0.688-11.506,1.564-23.297,8.144-33.529C320.748,332.281,320.748,327.127,317.655,324.033z"/>
	<path fill="#28466B" d="M313.238,369.508c-5.994,0-14.373-1.162-20.248-6.697l-0.087-0.107c-2.06-3.361,0.626-9.402,2.593-12.539
		c0.72-22.223,7.422-35.793,22.396-45.379c13.958-8.934,17.142-23.771,18.322-34.158l0.055-0.494l0.495,0.039
		c0.212,0.018,0.454,0.023,0.729,0.023c0.001,0,0.001,0,0.001,0c1.786,0,4.952-0.32,8.617-0.688
		c5.927-0.6,13.302-1.342,20.079-1.342c11.804,0,17.845,2.32,18.466,7.092l0.011,0.076l-0.012,0.076
		c-2.198,13.184-13.555,37.305-24.739,43.611c-9.629,5.428-16.474,26.268-20.564,38.721c-0.662,2.018-1.26,3.838-1.796,5.377
		l-0.064,0.184l-0.168,0.094C330.618,367.225,321.613,369.508,313.238,369.508z M293.749,362.109
		c5.627,5.26,13.699,6.367,19.489,6.367c8.134,0,16.868-2.195,23.408-5.879c0.519-1.494,1.094-3.246,1.727-5.176
		c4.137-12.594,11.062-33.676,21.037-39.297c10.915-6.156,22.021-29.803,24.215-42.807c-0.598-4.062-6.462-6.121-17.434-6.121
		c-6.725,0-14.072,0.738-19.976,1.336c-3.846,0.387-6.884,0.691-8.721,0.691c0,0,0,0-0.001,0c-0.107,0-0.212,0-0.312,0
		c-1.249,10.566-4.62,25.396-18.734,34.43c-14.685,9.398-21.243,22.76-21.928,44.684l-0.003,0.139l-0.076,0.121
		C294.733,353.279,291.993,359.113,293.749,362.109z"/>
</g>
<g>
	<path fill="#28466B" d="M329.413,318.094c-0.095-0.088-9.635-8.971-19.052-6.158l-0.294-0.99
		C320.065,307.967,329.413,318.094,329.413,318.094z"/>
</g>
<g>
	<path fill="#28466B" d="M304.463,317.996l0.867-0.553c5.426,8.506,17.409,6.744,17.528,6.727
		C322.858,324.17,310.066,327.129,304.463,317.996z"/>
</g>
<g>
	<path fill="#28466B" d="M322.561,319.746c-0.047-0.051-4.952-5.164-15.024-4.939l-0.019-1.031
		C318.123,313.568,322.561,319.746,322.561,319.746z"/>
</g>
<g>
	<g>
		<path fill="#DDD878" d="M300.517,351.482c-2.634-0.572-5.108,1.225-7.015,4.006c-0.869,2.5-1.255,5.16-0.159,6.947
			c3.344,3.15,7.806,5.043,12.72,5.934C306.42,361.533,304.141,352.264,300.517,351.482z"/>
		<path fill="#FCFFA2" d="M300.461,351.473c-2.613-0.531-5.066,1.252-6.959,4.016c-0.869,2.5-1.255,5.16-0.159,6.947
			c1.282,1.207,2.73,2.225,4.302,3.078C301.159,361.553,302.594,356.379,300.461,351.473z"/>
		<path fill="#C1BC5F" d="M306.546,368.982l-0.575-0.105c-5.376-0.975-9.744-3.018-12.981-6.066l-0.087-0.107
			c-1.04-1.693-1.001-4.178,0.111-7.385l0.062-0.121c2.254-3.289,4.934-4.791,7.548-4.219c4.143,0.895,6.293,10.912,5.953,17.418
			L306.546,368.982z M293.749,362.109c2.968,2.771,6.943,4.67,11.822,5.641c0.198-6.697-2.062-15.094-5.163-15.766
			c-2.159-0.461-4.468,0.885-6.442,3.738C293.291,357.689,292.723,360.357,293.749,362.109z"/>
	</g>
	<g>
		<path fill="#DDD878" d="M318.589,356.109c-4.616-0.014-7.33,6.648-7.559,12.822c5.143,0.258,10.525-0.402,15.496-1.742
			C324.779,361.559,321.541,356.115,318.589,356.109z"/>
		<path fill="#FCFFA2" d="M316.827,356.461c-3.538,1.436-5.599,7.129-5.797,12.471c2.412,0.121,4.876,0.031,7.327-0.227
			C319.245,364.5,318.913,360.084,316.827,356.461z"/>
		<path fill="#C1BC5F" d="M313.249,369.502L313.249,369.502c-0.752,0-1.5-0.02-2.244-0.057l-0.51-0.025l0.02-0.51
			c0.241-6.455,3.148-13.318,8.062-13.318c3.37,0.01,6.735,5.939,8.441,11.445l0.159,0.512l-0.517,0.137
			C322.254,368.875,317.616,369.502,313.249,369.502z M311.57,368.439c4.629,0.174,9.566-0.389,14.299-1.611
			c-1.908-5.848-4.995-10.199-7.28-10.203C314.578,356.625,311.922,362.543,311.57,368.439z"/>
	</g>
</g>
<g>
	<path fill="#7694C1" d="M438.524,195.174c8.248,17.524,32.215,21.908,59.276,42.654c27.06,20.746,42.657,43.939,37.093,85.176
		c-5.562,41.234-47.146,58.76-90.783,43.982c-16.245-5.5-37.48,0.303-52.919-8.59c-26.04-14.996-44.144-46.891-52.439-65.633
		c-15.813-35.736,15.499-57.043-8.985-82.471C343.427,195.516,423.319,190.363,438.524,195.174z"/>
	<path fill="#85A5DD" d="M534.821,292.393c-3.953-23.361-17.503-39.602-37.021-54.564c-27.062-20.746-51.028-25.129-59.276-42.654
		c-15.205-4.811-95.098,0.342-108.757,15.118c21.845,22.688-0.724,42.094,5.388,71.395c10.129,18.869,37.014,23.824,56.722,32.037
		c2.152,1.613,4.579,2.947,6.851,4.439c0.823-1.166,1.632-2.312,2.429-3.41c6.185-9.275,8.246-20.615,5.154-30.924
		c8.246,7.215,9.277,17.523,17.525,23.711c10.308,8.246,23.709,6.184,34.02,13.4c10.635,9.572,17.689,22.168,21.473,35.797
		C512.359,351.393,533.951,322.854,534.821,292.393z"/>
	<path fill="#96B0EA" d="M531.047,281.768c-0.824-4.117-2.17-8.008-3.859-11.744c-6.651-12.316-16.771-22.525-29.387-32.195
		c-3.484-2.67-6.915-5.066-10.271-7.26c-25.36-9.721-53.711-8.484-80.188,2.748c-13.399,6.188-28.863-6.186-44.327-6.186
		c-9.613,0.875-17.004,6.197-24.056,12.822c-1.093,7.496-3.494,15.287-4.47,23.863c1.433,10.691,4.716,20.84,14.093,26.197
		c14.433,9.279,29.896,6.188,45.36,7.217c3.104,0.443,5.44,1.844,7.264,3.787c2.169-7.559,0.981-16.793,0.981-25.436
		c4.124,1.033,8.248,4.123,9.278,7.215c10.309,22.682,36.08,21.65,54.636,28.865c12.569,4.525,16.062,16.652,17.304,30.754
		c6.079-3.092,11.652-8.381,16.718-9.104C526.923,327.127,535.171,305.479,531.047,281.768z"/>
	<path fill="#28466B" d="M474.232,372.682c-9.899,0-20.089-1.754-30.289-5.205c-6.995-2.369-15.132-2.625-23.002-2.875
		c-10.41-0.33-21.176-0.67-30.007-5.758c-29.268-16.855-47.701-54.68-52.654-65.871c-7.5-16.951-4.462-30.83-1.784-43.074
		c3.052-13.938,5.685-25.971-7.1-39.249l-0.337-0.35l0.33-0.357c10.273-11.114,58.022-17.032,88.542-17.032
		c9.771,0,17.141,0.63,20.749,1.772l0.216,0.067l0.096,0.203c4.854,10.317,15.379,16.09,28.701,23.398
		c9.138,5.012,19.497,10.691,30.421,19.066c22.991,17.627,43.422,40.201,37.291,85.654
		C531.338,353.207,507.327,372.682,474.232,372.682z M330.482,210.294c12.775,13.532,10.107,25.725,7.021,39.825
		c-2.646,12.092-5.645,25.793,1.72,42.436c4.92,11.119,23.229,48.695,52.226,65.396c8.608,4.957,19.242,5.295,29.525,5.619
		c7.943,0.252,16.16,0.512,23.299,2.928c10.093,3.42,20.174,5.152,29.959,5.152c32.547,0,56.157-19.123,60.151-48.715
		c6.062-44.932-14.15-67.262-36.896-84.699c-10.862-8.328-21.184-13.988-30.289-18.98c-13.401-7.351-24.001-13.167-29.041-23.657
		c-3.587-1.067-10.748-1.657-20.226-1.657C387.923,193.942,341.229,199.624,330.482,210.294z"/>
</g>
<g>
	<path fill="#7694C1" d="M411.207,296.201l-40.318-27.52c0,0-1.121,11.049-8.562,21.506c-6.019,8.457-17.756,15.705-23.918,22.852
		c-13.781,15.977-11.862,43.211-13.022,48.35c-1.16,5.139-5.282,9.551-3.995,14.445c13.788,13.66,47.292,13.016,55.419,2.965
		c-4.759-12.758,5.017-17.781,1.159-29.918C417.155,339.949,411.207,296.201,411.207,296.201z"/>
	<path fill="#85A5DD" d="M362.326,290.188c-6.019,8.457-17.756,15.705-23.918,22.852c-13.781,15.977-11.862,43.211-13.022,48.35
		c-1.16,5.139-5.282,9.551-3.995,14.445c7.086,7.02,19.375,10.252,30.754,10.383c10.681-14.455,22.398-31.4,14.991-50.842
		c16.495,7.215,25.772-9.279,34.02-20.621c4.228-6.34,6.526-13.648,6.571-20.928l-36.839-25.145
		C370.889,268.682,369.768,279.73,362.326,290.188z"/>
	<path fill="#96B0EA" d="M362.326,290.188c-6.019,8.457-17.756,15.705-23.918,22.852c-13.781,15.977-11.862,43.211-13.022,48.35
		c-1.16,5.139-5.282,9.551-3.995,14.445c5.484,5.432,14.089,8.596,22.973,9.812c0.513-2.604,2.015-4.773,3.185-5.945
		c12.373-13.402,21.649-35.051,10.311-50.514c16.494,1.033,30.926-9.279,40.204-21.646c3.545-4.729,4.378-10.812,4.444-17.279
		l-29.474-27.969C373.034,262.293,369.768,279.73,362.326,290.188z"/>
	<path fill="#28466B" d="M353.047,386.738c-10.499,0-24.101-2.693-32.018-10.535l-0.1-0.102l-0.036-0.135
		c-0.861-3.268,0.568-6.355,1.95-9.338c0.798-1.725,1.624-3.51,2.04-5.355c0.23-1.021,0.341-3.068,0.48-5.66
		c0.565-10.523,1.616-30.113,12.655-42.914c2.69-3.119,6.369-6.203,10.264-9.469c5.037-4.227,10.246-8.596,13.625-13.342
		c7.269-10.217,8.458-21.15,8.47-21.26c0,0,0.427,5.637-2.441,12.471c-1.251,2.977-2.933,6.215-5.188,9.387
		c-3.454,4.854-8.716,9.268-13.802,13.533c-3.861,3.236-7.51,6.297-10.146,9.354c-10.809,12.535-11.848,31.893-12.407,42.295
		c-0.147,2.744-0.254,4.725-0.504,5.834c-0.44,1.951-1.289,3.785-2.11,5.559c-1.344,2.906-2.614,5.648-1.921,8.51
		c8.525,8.344,23.804,10.629,34.319,10.053c9.293-0.512,16.749-3.094,20.048-6.926c-2.377-6.607-0.929-11.219,0.473-15.684
		c1.335-4.252,2.598-8.266,0.782-13.977l-0.171-0.533l0.547-0.123c38.266-8.727,32.899-51.68,32.842-52.111
		c0,0,2.426,11.033-1.016,23.09c-3.445,12.09-11.731,25.287-31.058,29.898c1.669,5.746,0.341,9.973-0.942,14.066
		c-1.432,4.561-2.784,8.869-0.388,15.293l0.103,0.277l-0.185,0.229c-3.377,4.178-11.22,6.992-20.977,7.531
		C355.214,386.711,354.146,386.738,353.047,386.738z"/>
</g>
<g>
	<path fill="#28466B" d="M378.293,352.924c-0.563-8.279-5.211-11.543-5.259-11.576c0,0,5.689,2.732,6.288,11.508L378.293,352.924z"
		/>
</g>
<g>
	<path fill="#28466B" d="M353.685,327.729c-0.069-0.111-7.067-11.109-18.633-9.498l-0.141-1.021
		C347.138,315.5,353.685,327.729,353.685,327.729z"/>
</g>
<g>
	<path fill="#28466B" d="M348.263,336.77c-4.284,0-13.44-1.008-18.28-9.047l0.883-0.533c6.075,10.092,19.45,8.467,19.582,8.447
		C350.447,335.637,349.665,336.77,348.263,336.77z"/>
</g>
<g>
	<path fill="#28466B" d="M348.089,328.652c-0.062-0.062-6.278-6.109-15.648-5.635l-0.052-1.029
		C342.228,321.473,348.089,328.652,348.089,328.652z"/>
</g>
<g>
	<g>
		<path fill="#DDD878" d="M330.424,365.967c-4.29-0.344-7.888,5.031-9.04,9.828c0.003,0.016,0.003,0.027,0.007,0.039
			c3.498,3.469,8.268,6.008,13.57,7.713C335.914,377.994,335.105,366.34,330.424,365.967z"/>
		<path fill="#FCFFA2" d="M330.521,365.984c-0.031-0.004-0.062-0.012-0.097-0.018c-4.29-0.344-7.888,5.031-9.04,9.828
			c0.003,0.016,0.003,0.027,0.007,0.039c1.541,1.529,3.339,2.863,5.309,4.039C330.601,376.816,331.868,371.146,330.521,365.984z"/>
		<path fill="#C1BC5F" d="M335.367,384.219l-0.563-0.182c-5.763-1.854-10.396-4.488-13.775-7.834l-0.098-0.098l-0.071-0.262
			l0.024-0.168c1.231-5.127,5.05-10.605,9.581-10.221c1.031,0.082,1.942,0.623,2.708,1.609c2.712,3.49,3.08,12.014,2.296,16.57
			L335.367,384.219z M321.949,375.662c3.132,3.029,7.364,5.451,12.596,7.205c0.635-4.564,0.146-12.168-2.186-15.17
			c-0.582-0.75-1.246-1.158-1.975-1.217C326.631,366.197,323.163,370.951,321.949,375.662z"/>
	</g>
	<g>
		<path fill="#DDD878" d="M346.256,370.316c-5.265,0.471-8.312,8.412-8.127,14.131c5.282,1.326,10.919,1.889,16.266,1.754
			C353.747,379.578,350.827,369.906,346.256,370.316z"/>
		<path fill="#FCFFA2" d="M346,370.361c-5.104,0.705-8.051,8.461-7.871,14.086c2.328,0.582,4.728,1.012,7.138,1.305
			C347.813,380.652,348.822,375.014,346,370.361z"/>
		<path fill="#C1BC5F" d="M352.858,386.736c-5.06,0-10.195-0.617-14.856-1.789l-0.376-0.096l-0.012-0.389
			c-0.182-5.66,2.773-14.141,8.595-14.662c0.109-0.01,0.218-0.014,0.326-0.014c4.936,0,7.755,10.039,8.372,16.365l0.054,0.553
			l-0.555,0.014C353.894,386.73,353.377,386.736,352.858,386.736z M338.638,384.039c4.773,1.166,10.058,1.74,15.186,1.66
			c-0.726-6.326-3.507-15.209-7.521-14.871C341.42,371.266,338.607,378.686,338.638,384.039z"/>
	</g>
	<g>
		<path fill="#DDD878" d="M363.153,372.893c-4.181,1.574-5.412,7.857-4.667,13.066c5.871-0.559,11.12-1.996,14.788-4.211
			C370.532,376.568,366.508,371.635,363.153,372.893z"/>
		<path fill="#FCFFA2" d="M364.187,372.711c-0.35,0.008-0.696,0.057-1.033,0.182c-4.181,1.574-5.412,7.857-4.667,13.066
			c2.454-0.232,4.787-0.631,6.954-1.164C366.877,380.922,366.902,376.67,364.187,372.711z"/>
		<path fill="#C1BC5F" d="M358.047,386.52l-0.07-0.486c-0.768-5.369,0.469-11.922,4.995-13.621c0.41-0.154,0.842-0.232,1.28-0.232
			c4.099,0,7.993,6.525,9.479,9.326l0.226,0.432l-0.416,0.252c-3.673,2.217-8.861,3.697-15.004,4.283L358.047,386.52z
			 M364.252,373.207c-0.315,0-0.623,0.061-0.918,0.17c-3.695,1.389-4.988,7.004-4.399,12.02c5.466-0.572,10.273-1.924,13.649-3.844
			C369.774,376.395,366.604,373.207,364.252,373.207z"/>
	</g>
</g>
<g>
	<path fill="#7694C1" d="M491.358,309.602c0,0-15.806-3.607-30.926-2.232c-15.121,1.373-25.602,12.414-41.58,9.643
		c-12.542-1.053-17.523,11.488-17.008,26.951c0.515,15.463,3.266,38.789,15.979,40.441c12.713,1.654,13.509-10.295,31.441-8.654
		c27.489,2.512,65.806-3.057,80.338-34.83L491.358,309.602z"/>
	<path fill="#85A5DD" d="M519.928,333l-28.569-23.398c0,0-15.806-3.607-30.926-2.232c-15.121,1.373-25.602,12.414-41.58,9.643
		c-12.542-1.053-17.523,11.488-17.008,26.951c0.205,6.184,0.771,13.621,2.185,20.428c23.646-6.842,48.875-3.982,73.412-7.367
		C495.271,354.643,509.899,345.561,519.928,333z"/>
	<path fill="#96B0EA" d="M475.38,344.65c9.276,0,17.525-10.309,24.742-11.338c5.258-1.217,9.795-3.031,13.674-5.338l-22.438-18.373
		c0,0-15.806-3.607-30.926-2.232c-15.121,1.373-25.602,12.414-41.58,9.643c-12.542-1.053-17.523,11.488-17.008,26.951
		c0.091,2.754,0.256,5.762,0.534,8.848C426.024,341.582,449.677,345.68,475.38,344.65z"/>
	<path fill="#28466B" d="M420.155,385.078c-0.754,0-1.551-0.053-2.398-0.16c-12.504-1.627-15.835-23.16-16.428-40.938
		c-0.366-10.969,2.015-19.465,6.703-23.924c2.867-2.725,6.527-3.926,10.863-3.557c9.19,1.592,16.405-1.379,24.046-4.521
		c5.426-2.232,11.035-4.541,17.444-5.123c15.024-1.363,30.856,3.248,30.856,3.248c-0.155-0.037-15.905-3.572-30.764-2.223
		c-6.252,0.568-11.79,2.848-17.145,5.053c-7.441,3.059-15.133,6.227-24.569,4.586c-3.983-0.33-7.377,0.771-10.021,3.285
		c-4.473,4.252-6.74,12.471-6.384,23.141c0.578,17.379,3.743,38.418,15.529,39.949c5.709,0.746,8.875-1.309,12.542-3.682
		c4.256-2.754,9.077-5.873,18.881-4.98c14.41,1.324,62.781,2.729,79.823-34.525l0.938,0.432
		c-17.324,37.865-66.267,36.453-80.858,35.123c-9.448-0.861-14.108,2.154-18.224,4.816
		C427.824,383.127,424.808,385.078,420.155,385.078z"/>
</g>
<g>
	
		<ellipse transform="matrix(0.9968 -0.0801 0.0801 0.9968 -26.7326 34.1329)" fill="#6685B2" cx="412.106" cy="350.293" rx="19.996" ry="34.93"/>
	<path fill="#1A3856" d="M413.966,385.662c-10.991,0-20.789-14.816-22.306-33.729c-1.563-19.48,6.336-36.064,17.608-36.969
		c11.383-0.928,21.72,14.217,23.282,33.686c0.755,9.389-0.633,18.393-3.907,25.35c-3.319,7.053-8.186,11.18-13.703,11.621
		C414.616,385.648,414.289,385.662,413.966,385.662z M410.244,315.957c-0.296,0-0.595,0.012-0.893,0.033
		c-10.708,0.861-18.183,16.947-16.664,35.861c1.516,18.9,11.334,33.582,22.172,32.744c5.134-0.414,9.697-4.33,12.85-11.033
		c3.2-6.799,4.557-15.615,3.816-24.826C430.049,330.354,420.701,315.957,410.244,315.957z"/>
</g>
<g>
	<g>
		<path fill="#DDD878" d="M440.503,347.83c-0.773-3.867-7.133-6.615-9.595-6.91c-0.003,0.004-0.005,0.004-0.006,0.008
			c0.53,2.482,0.92,5.078,1.136,7.764c0.313,3.912,0.241,7.697-0.156,11.258c0,0,0.002,0,0.005,0
			C437.017,359.871,441.274,351.695,440.503,347.83z"/>
		<path fill="#FCFFA2" d="M440.384,347.43c-1.112-3.652-7.1-6.223-9.476-6.51c-0.003,0.004-0.005,0.004-0.006,0.008
			c0.53,2.482,0.92,5.078,1.136,7.764c0.023,0.309,0.031,0.611,0.051,0.916C435.284,349.807,438.425,349.197,440.384,347.43z"/>
		<path fill="#C1BC5F" d="M431.89,360.465h-0.585l0.064-0.572c0.406-3.631,0.459-7.385,0.156-11.156
			c-0.208-2.586-0.588-5.174-1.129-7.703l-0.083-0.389l0.496-0.248l0.158,0.016c2.627,0.309,9.211,3.178,10.039,7.318
			c0.487,2.438-0.871,6.414-3.162,9.25c-1.788,2.217-3.901,3.453-5.951,3.484H431.89z M431.561,341.564
			c0.467,2.334,0.802,4.715,0.99,7.086c0.293,3.625,0.259,7.232-0.092,10.736c1.562-0.234,3.168-1.299,4.585-3.055
			c2.082-2.578,3.378-6.27,2.951-8.4C439.341,344.654,434.233,342.191,431.561,341.564z"/>
	</g>
	<g>
		<path fill="#DDD878" d="M432.038,348.691c-0.216-2.686-0.605-5.281-1.136-7.764c-5.977,2.975-4.145,19.09,0.979,19.021
			C432.279,356.389,432.352,352.604,432.038,348.691z"/>
		<path fill="#C1BC5F" d="M431.851,360.465c-2.063,0-3.812-2.201-4.68-5.893c-1.28-5.439-0.319-12.203,3.501-14.107l0.595-0.299
			l0.14,0.652c0.549,2.57,0.936,5.207,1.145,7.832c0.31,3.84,0.256,7.662-0.157,11.359l-0.051,0.449L431.851,360.465z
			 M430.545,341.746c-2.823,2.074-3.462,7.955-2.37,12.59c0.671,2.85,1.889,4.721,3.248,5.049c0.356-3.475,0.391-7.053,0.103-10.648
			C431.336,346.393,431.008,344.045,430.545,341.746z"/>
	</g>
	<g>
		<path fill="#DDD878" d="M429.102,334.449c0.001,0,0.003,0,0.004,0c4.756-1.699,6.069-8.094,3.698-11.189
			c-2.37-3.092-10.258-3.779-12.37-3.213c-0.002,0-0.002,0.002-0.003,0.004C423.97,323.402,426.999,328.402,429.102,334.449z"/>
		<path fill="#FCFFA2" d="M432.401,322.822c-2.747-2.715-9.961-3.312-11.968-2.775c-0.002,0-0.002,0.002-0.003,0.004
			c2.108,1.998,4.031,4.59,5.689,7.633C428.858,327.062,431.221,325.711,432.401,322.822z"/>
		<path fill="#C1BC5F" d="M429.195,334.963h-0.461l-0.121-0.344c-2.071-5.961-5.024-10.867-8.537-14.193l-0.278-0.264l0.367-0.578
			l0.136-0.035c0.609-0.164,1.466-0.197,2.077-0.197c3.246,0,8.812,0.959,10.834,3.598c1.271,1.652,1.608,4.203,0.888,6.652
			c-0.757,2.564-2.515,4.508-4.821,5.332L429.195,334.963z M421.526,320.408c3.206,3.305,5.914,7.893,7.881,13.365
			c1.76-0.799,3.095-2.4,3.703-4.467c0.631-2.135,0.355-4.334-0.715-5.73c-1.782-2.326-7.091-3.195-10.018-3.195
			C422.07,320.381,421.783,320.393,421.526,320.408z"/>
	</g>
	<g>
		<path fill="#DDD878" d="M429.102,334.449c-2.103-6.047-5.132-11.047-8.671-14.398
			C416.604,325.939,423.147,335.195,429.102,334.449z"/>
		<path fill="#C1BC5F" d="M428.413,335.008L428.413,335.008c-3.038,0-6.352-2.34-8.238-5.816c-1.794-3.309-1.86-6.828-0.176-9.42
			l0.338-0.52l0.447,0.424c3.633,3.439,6.677,8.488,8.804,14.604l0.208,0.602l-0.631,0.08
			C428.915,334.99,428.664,335.008,428.413,335.008z M420.543,320.881c-1.133,2.211-0.948,5.084,0.537,7.82
			c1.709,3.143,4.64,5.26,7.306,5.273C426.422,328.57,423.727,324.07,420.543,320.881z"/>
	</g>
	<g>
		<path fill="#DDD878" d="M409.49,321.973c2.791,0.172,6.18-1.666,7.85-4.348c-2.541-1.592-5.258-2.371-8.03-2.148
			c-2.293,0.186-4.438,1.047-6.387,2.455C404.274,320.289,406.72,321.803,409.49,321.973z"/>
		<path fill="#C1BC5F" d="M409.855,322.5L409.855,322.5c-0.135,0-0.268-0.004-0.396-0.014c-2.932-0.178-5.54-1.783-6.982-4.299
			l-0.23-0.402l0.377-0.273c2.08-1.502,4.316-2.361,6.646-2.547c2.834-0.229,5.639,0.527,8.345,2.223l0.437,0.273l-0.272,0.438
			C416.116,320.564,412.784,322.5,409.855,322.5z M403.617,318.074c1.308,1.982,3.48,3.234,5.904,3.385
			c2.507,0.162,5.46-1.416,7.09-3.674c-2.375-1.383-4.805-1.984-7.26-1.795C407.357,316.15,405.432,316.852,403.617,318.074z"/>
	</g>
</g>
<g>
	<path fill="#28466B" d="M454.078,322.631c-0.011-0.094-1.098-9.262-7.097-11.307l0.332-0.977
		C453.938,312.605,454.078,322.631,454.078,322.631z"/>
</g>
<g>
	<path fill="#28466B" d="M463.024,322.695c-0.024-0.102-2.602-10.121-12.288-12.717l0.268-0.998
		C461.289,311.74,463.024,322.695,463.024,322.695z"/>
</g>
<g>
	<path fill="#7694C1" d="M316.625,69.664c-7.99-0.257-20.618-9.792-28.092-17.524c-7.474-7.731-17.784-12.886-31.957-6.442
		c-14.175,6.442-30.669,26.287-32.987,28.864c-2.32,2.578-16.237,17.783-8.764,27.061c7.474,9.278,1.804,18.04,6.958,28.35
		c5.156,10.308,9.279,7.731,12.114,15.979c2.834,8.247,14.948,21.132,39.174,18.041c24.226-3.093,45.358-28.864,49.998-39.947
		C327.706,112.96,319.458,74.303,316.625,69.664z"/>
	<path fill="#85A5DD" d="M288.79,110.642c-7.215-4.124-21.647,0-22.678,10.31c-1.032-10.31,5.153-18.557,8.246-26.804
		c2.062-5.154-5.154-8.247-9.278-5.154c-5.154,4.124-11.34,7.217-14.432,13.402c2.062-10.309,8.246-17.525,15.464-24.741
		c1.03-2.063,0-6.186-1.032-6.186c-16.495-5.155-29.896,6.186-38.142,20.618c4.124-20.618,21.647-38.144,43.296-34.02
		c13.401,2.062,17.525,16.494,27.833,24.742c7.452,6.623,15.572,13.903,25.421,17.584c-1.7-13.665-5.207-28.016-6.864-30.729
		c-7.99-0.257-20.618-9.792-28.092-17.524c-7.474-7.731-17.784-12.886-31.957-6.442c-14.175,6.442-30.669,26.287-32.987,28.864
		c-2.32,2.578-16.237,17.783-8.764,27.061c7.474,9.278,1.804,18.04,6.958,28.35c5.156,10.308,9.279,7.731,12.114,15.979
		c2.834,8.247,14.948,21.132,39.174,18.041c12.006-1.533,23.249-8.639,32.105-16.762
		C304.703,132.565,302.187,116.502,288.79,110.642z"/>
	<path fill="#28466B" d="M265.923,164.975c-0.001,0-0.001,0-0.001,0c-20.591,0-30.271-12.335-32.513-18.859
		c-1.361-3.958-2.962-5.281-4.989-6.954c-2.089-1.725-4.455-3.677-7.098-8.961c-2.375-4.75-2.5-9.151-2.622-13.406
		c-0.144-5.087-0.281-9.892-4.277-14.851c-4.933-6.123-1.85-15.932,8.682-27.619l0.1-0.11c0.196-0.218,0.494-0.56,0.883-1.008
		c12.743-14.625,23.603-24.04,32.275-27.981c12.068-5.484,23.021-3.295,32.54,6.553c8.168,8.45,20.319,17.129,27.738,17.368
		l0.278,0.009l0.146,0.238c2.961,4.845,11.122,43.754,6.478,54.847c-4.257,10.17-25.503,37.08-50.407,40.259
		C270.672,164.814,268.246,164.975,265.923,164.975z M268.917,43.292c-3.854,0-7.935,0.968-12.127,2.873
		c-8.539,3.881-19.28,13.208-31.924,27.72c-0.394,0.454-0.696,0.8-0.896,1.021l-0.098,0.11c-5.881,6.525-14.821,18.615-8.646,26.282
		c4.213,5.229,4.354,10.202,4.504,15.469c0.119,4.143,0.241,8.427,2.514,12.973c2.544,5.088,4.821,6.968,6.83,8.626
		c2.067,1.707,3.852,3.179,5.308,7.416c2.161,6.281,11.531,18.16,31.538,18.16h0.003c2.28,0,4.662-0.154,7.08-0.464
		c24.49-3.125,45.397-29.619,49.587-39.635c4.491-10.726-3.257-48.017-6.274-53.678c-8.6-0.498-21.506-10.792-28.154-17.668
		C282.175,46.304,275.88,43.292,268.917,43.292z"/>
</g>
<g>
	<path fill="#28466B" d="M304.175,86.583c-6.149-0.946-10.814-6.726-15.752-12.845c-6.151-7.62-12.511-15.5-22.483-15.5
		c-13.702,0.001-27.657,15.226-27.795,15.381l-0.764-0.693c0.581-0.643,14.403-15.717,28.559-15.718
		c10.466,0,17.276,8.438,23.286,15.883c4.809,5.958,9.352,11.586,15.107,12.472L304.175,86.583z"/>
</g>
<g>
	<path fill="#28466B" d="M269.031,112.193c0,0,8.347-25.325,29.123-25.472c-21.86-15.427-37.178,0.735-37.334,0.904
		c0,0,15.98-18.365,39.278-0.761l1.349,1.019l-1.688-0.093C278.559,86.613,269.125,111.937,269.031,112.193z"/>
</g>
<g>
	<path fill="#7694C1" d="M366.106,51.195c-41.236-7.217-74.224,19.243-82.127,60.821c-13.745,8.936-6.528,38.573-4.208,55.066
		c2.32,16.495,10.567,29.466,17.268,31.7c6.701,2.233,11.266,8.006,13.745,17.353c3.392,12.801,17.18,15.119,27.833,5.5
		c12.026-5.158,33.675-6.701,45.529-4.123c11.856,2.576,48.452,4.465,69.327-17.699c10.309-1.546,22.425,12.37,33.592,12.37
		s11.51-7.904,24.052-8.935c12.543-1.03,10.653-16.495,18.9-22.681c8.245-6.185,25.084-9.276,26.629-15.806
		c1.548-6.529-7.901-11.51-5.84-24.053c2.062-12.542,12.543-19.242,9.794-30.41c-2.75-11.168-13.401-9.45-24.227-23.195
		c-10.824-13.745-20.104-24.57-36.769-23.881c-16.666,0.687-35.05,25.943-48.108,32.472
		C440.33,70.952,414.042,45.868,366.106,51.195z"/>
	<path fill="#85A5DD" d="M556.646,164.762c1.548-6.529-7.901-11.51-5.84-24.053c2.062-12.542,12.543-19.242,9.794-30.41
		c-2.75-11.168-13.401-9.45-24.227-23.195c-10.824-13.745-20.104-24.57-36.769-23.881c-16.666,0.687-35.05,25.943-48.108,32.472
		c-11.166-24.742-37.454-49.826-85.39-44.499c-41.236-7.217-74.224,19.243-82.127,60.821c-13.745,8.936-6.528,38.573-4.208,55.066
		c2.32,16.495,11.783,25.106,18.484,27.34s11.473,9.193,13.952,18.544c3.394,12.798,15.156,13.226,25.81,3.605
		c20.473-12.153,32.395-8.253,44.249-5.675c5.062,1.101,14.985,3.276,26.311,3.688c30.69-6.162,54.387-33.509,48.248-66.828
		c7.215,12.369,6.186,27.832,6.186,42.265c0,5.155,15.722,10.668,19.846,10.668c13.401,0,11.596-4.018,31.696-5.514
		c4.125-1.033,4.125-10.309,8.249-14.434c7.264-5.81,16.573-5.994,25.048-8.842C552.373,169.813,555.972,167.616,556.646,164.762z"
		/>
	<path fill="#96B0EA" d="M550.806,140.708c2.062-12.542,12.543-19.242,9.794-30.41c-2.75-11.168-13.401-9.45-24.227-23.195
		c-10.824-13.745-20.139-25.207-36.769-23.881c-23.71,1.889-36.079,37.139-61.425,35.135c-4.207-21.218-24.138-52.489-72.073-47.162
		c-41.236-7.217-74.224,19.243-82.127,60.821c-13.745,8.936-6.528,38.573-4.208,55.066c0.064,0.459,0.135,0.913,0.208,1.367
		c1.141,1.223,2.329,2.374,3.542,3.489c0.723,0.19,1.444,0.387,2.177,0.558c24.74,5.153,54.636,12.371,76.285-3.093
		c4.124-4.124,11.339,4.124,8.247,9.278c-12.488,21.853-36.199,24.799-59.509,25.833c1.202,3.546,2.482,6.826,4.873,9.217
		c3.092,4.126,12.369,5.154,16.493,1.031c11.34-9.278,26.803-17.525,41.234-12.369c22.681,8.245,51.545,5.152,64.946-15.464
		c7.837-12.735,14.372-29.819,8.938-45.394c3.023-7.191,4.964-12.054,8.587-17.49c2.062-5.155,10.308-2.062,11.339,3.093
		c3.762,22.569,7.089,64.171,18.428,61.982c12.073-2.335,17.782,3.792,25.643-2.504c3.559-2.849,3.221-11.028,13.658-14.12
		c11.057-2.949,26.32-4.32,31.114-12.77C553.989,155.059,549.29,149.927,550.806,140.708z"/>
	
		<ellipse transform="matrix(0.9987 -0.0509 0.0509 0.9987 -5.7732 19.1859)" fill="#7694C1" cx="373.708" cy="122.912" rx="17.306" ry="28.871"/>
	
		<ellipse transform="matrix(0.9648 0.263 -0.263 0.9648 41.3097 -75.1488)" fill="#7694C1" cx="301.331" cy="116.715" rx="14.06" ry="28.319"/>
	<path fill="#85A5DD" d="M447.206,141.533c0,0,1.385-5.859,9.302-3.471c7.916,2.385,2.72,33.745,36.397,32.887
		c33.675-0.858,21.99-21.475,34.361-28.521s-5.843-20.218,0-26.69c5.842-6.47,28.515-1.181,29.377,9.746
		c0.756-8.482-4.837-11.753-10.893-16.646c-6.057-4.893-23.981-13.402-31.972-19.072S497.053,84.378,487.247,93
		S453.823,125.004,447.206,141.533z"/>
	<path fill="#7694C1" d="M447.206,141.533c0,0,8.759-12.212,13.912-9.955c5.156,2.259,1.548,40.891,34.536,36.008
		c-8.076,0.268-15.979-10.517-16.495-20.328c-0.515-9.813-5.84-18.785-2.577-21.774c3.264-2.987,22.85,0.083,31.784,10.661
		c-0.686-6.603-9.62-23.271-18.726-27.394c-4.64-3.436-0.688-15.009,8.075-15.752c8.762-0.742,23.539,0.001,29.035,7.361
		c5.499,7.359,30.718,13.04,30.306,24.375c1.823-7.221-1.495-13.14-9.554-17.675c-8.059-4.536-13.134-7.133-21.11-15.499
		c-7.974-8.367-21.771-14.837-33.944-9.153C480.277,88.091,457.338,116,447.206,141.533z"/>
	<path fill="#28466B" d="M324.755,228.062c-6.998,0-12.542-4.518-14.47-11.797c-2.452-9.246-6.839-14.804-13.411-16.994
		c-6.61-2.203-15.223-15.108-17.614-32.117c-0.313-2.227-0.718-4.702-1.145-7.324c-2.764-16.936-6.546-40.102,5.399-48.124
		c7.269-37.8,34.43-62.21,69.245-62.21c4.375,0,8.869,0.396,13.363,1.178c4.305-0.475,8.56-0.717,12.647-0.717
		c46.954,0,66.552,31.087,72.972,45.03c4.751-2.516,10.253-7.477,16.065-12.721c9.939-8.964,21.206-19.124,31.776-19.56
		c16.421-0.675,25.72,9.507,37.194,24.078c4.971,6.31,9.798,9.26,14.059,11.862c4.883,2.984,8.737,5.34,10.264,11.527
		c1.625,6.605-1.249,11.718-4.293,17.131c-2.275,4.045-4.628,8.229-5.493,13.489c-1.146,6.962,1.302,11.452,3.46,15.414
		c1.653,3.042,3.086,5.668,2.373,8.674c-0.979,4.142-7.444,6.863-14.284,9.742c-4.549,1.916-9.254,3.895-12.538,6.359
		c-3.24,2.43-4.904,6.449-6.516,10.335c-2.406,5.805-4.893,11.807-12.652,12.447c-6.116,0.503-9.243,2.659-12.266,4.747
		c-3.121,2.153-6.069,4.188-11.827,4.188c-5.512,0-11.213-3.283-16.727-6.458c-5.384-3.104-10.468-6.031-15.222-6.031
		c-0.473,0-0.94,0.029-1.393,0.089c-15.869,16.729-40.034,19.231-53.046,19.231c-8.73,0-14.545-1.059-16.641-1.514
		c-3.649-0.795-8.35-1.215-13.592-1.215c-11.831,0-23.907,2.02-31.548,5.273C334.595,225.936,329.575,228.062,324.755,228.062z
		 M352.76,50.526c-34.363,0-61.163,24.174-68.274,61.586l-0.042,0.216l-0.185,0.121c-11.602,7.542-7.86,30.473-5.127,47.215
		c0.428,2.628,0.833,5.108,1.148,7.346c2.336,16.618,10.603,29.176,16.92,31.283c6.832,2.277,11.569,8.235,14.081,17.71
		c1.831,6.904,6.867,11.027,13.474,11.027c4.589,0,9.388-2.053,13.516-5.779l0.143-0.094c7.754-3.322,20.028-5.389,32.031-5.389
		c5.315,0,10.09,0.428,13.811,1.238c4.296,0.934,10.434,1.492,16.422,1.492c12.879,0,36.818-2.475,52.419-19.041l0.123-0.129
		l0.176-0.027c0.558-0.084,1.136-0.126,1.721-0.126c5.029,0,10.23,2.995,15.736,6.167c5.395,3.109,10.976,6.324,16.212,6.324
		c5.437,0,8.254-1.948,11.242-4.006c3.134-2.164,6.375-4.402,12.768-4.929c7.13-0.584,9.391-6.038,11.782-11.813
		c1.664-4.014,3.386-8.164,6.851-10.765c3.386-2.54,8.149-4.546,12.755-6.482c6.595-2.778,12.822-5.398,13.684-9.031
		c0.621-2.622-0.659-4.97-2.276-7.942c-2.127-3.905-4.773-8.762-3.573-16.075c0.895-5.437,3.292-9.703,5.613-13.827
		c3.066-5.458,5.718-10.172,4.189-16.378c-1.422-5.775-4.938-7.922-9.8-10.894c-4.121-2.518-9.245-5.649-14.331-12.105
		c-11.288-14.333-20.405-24.357-36.341-23.686c-10.198,0.421-21.32,10.449-31.131,19.296c-6.061,5.467-11.784,10.63-16.768,13.123
		l-0.48,0.24l-0.222-0.489c-6.096-13.505-25.34-44.917-72.256-44.917c-4.073,0-8.316,0.241-12.607,0.719l-0.073,0.008l-0.073-0.013
		C361.559,50.922,357.098,50.526,352.76,50.526z"/>
</g>
<g>
	<path fill="#28466B" d="M438.18,98.356c0.102,0,10.145-0.095,16.798-5.357l0.641,0.809C448.682,99.295,438.18,98.356,438.18,98.356
		z"/>
</g>
<g>
	<path fill="#28466B" d="M447.206,141.533c0,0,3.368-9.377,9.824-20.043c4.321-7.139,9.641-15.122,15.379-21.92
		c14.82-17.556,24.192-22.17,37.138-18.287c7.913,2.375,15.361,8.904,21.936,14.666c4.239,3.718,7.904,6.928,10.955,8.388
		c13.458,6.435,18.521,14.209,14.641,22.483l-0.936-0.437c4.544-9.688-5.187-16.831-14.149-21.116
		c-3.181-1.521-6.893-4.774-11.19-8.542c-6.495-5.693-13.856-12.144-21.554-14.453c-12.458-3.741-21.558,0.794-36.054,17.965
		C458.972,117.082,447.322,141.29,447.206,141.533z"/>
</g>
<g>
	<path fill="#28466B" d="M506.246,133.47c-0.235-0.297-23.895-29.437-49.63-9.369l-0.637-0.815
		c16.115-12.565,31.401-6.467,40.977,0.33C503.151,128.017,506.246,133.47,506.246,133.47z"/>
</g>
<g>
	<path fill="#28466B" d="M474.884,154.074c-0.43-1.57-0.848-3.233-1.279-4.936c-2.341-9.251-4.992-19.735-10.812-22.914
		c-2.132-1.166-4.531-1.277-7.331-0.342l-0.325-0.979c3.044-1.017,5.787-0.877,8.151,0.417c6.216,3.396,8.926,14.112,11.316,23.565
		c0.429,1.696,0.848,3.353,1.274,4.917c3.452,12.658,11.049,13.012,11.369,13.021C487.247,166.825,478.551,167.521,474.884,154.074z
		"/>
</g>
<g>
	<path fill="#28466B" d="M449.316,204.417l-0.656-0.794c18-14.835,15.414-34.467,15.386-34.664
		C464.046,168.96,467.778,189.202,449.316,204.417z"/>
</g>
<g>
	<path fill="#4F0200" d="M306.96,186.283c7.087,4.768,4.638,27.036,15.849,28.091c11.212,1.057,40.849-32.988,40.461-43.425
		C355.669,173.653,319.588,182.673,306.96,186.283z"/>
	<g>
		<g>
			<path fill="#FC6060" d="M322.809,214.374c7.484,0.705,23.169-14.227,32.664-27.343c-4.411-0.256-10.756,0.282-16.427,4.149
				c-6.412-2.519-18.309,5.278-22.963,18.145C317.591,212.109,319.661,214.078,322.809,214.374z"/>
			<path fill="#FC8B8B" d="M328.995,210.636c8.375-5.041,16.689-13.009,19.775-23.27c-3.147,0.521-6.542,1.642-9.725,3.813
				c-6.412-2.519-18.309,5.278-22.963,18.145c0.417,0.768,0.882,1.466,1.394,2.094C320.632,213.458,325.33,212.835,328.995,210.636z
				"/>
			
				<ellipse transform="matrix(0.9799 -0.1994 0.1994 0.9799 -35.2132 69.0721)" fill="#FFB6B6" cx="325.392" cy="209.398" rx="3.738" ry="0.967"/>
			<path fill="#FFB6B6" d="M320.846,209.979c0,0.491-0.399,0.89-0.891,0.89c-0.494,0-0.892-0.398-0.892-0.89
				c0-0.494,0.398-0.894,0.892-0.894C320.447,209.085,320.846,209.485,320.846,209.979z"/>
			<path fill="#F94141" d="M323.335,214.914h-0.001c-0.195,0-0.387-0.01-0.573-0.027c-3.016-0.282-5.349-2.022-7.132-5.314
				l-0.11-0.204l0.079-0.219c4.237-11.709,14.087-18.957,20.785-18.957c0.933,0,1.804,0.138,2.595,0.413
				c5.143-3.42,10.783-4.145,14.633-4.145c0.662,0,1.294,0.021,1.892,0.057l0.94,0.054l-0.554,0.761
				C346.288,200.598,331.113,214.914,323.335,214.914z M316.648,209.282c1.609,2.876,3.587,4.332,6.21,4.578
				c6.906,0.688,21.897-13.174,31.63-26.355c-0.286-0.007-0.58-0.013-0.878-0.013c-3.761,0-9.288,0.714-14.274,4.113l-0.226,0.155
				l-0.253-0.102c-0.736-0.288-1.569-0.434-2.475-0.434C330.049,191.224,320.648,198.469,316.648,209.282z"/>
		</g>
	</g>
	<g>
		<path fill="#F94141" d="M329.22,203.86c0,0,2.334-8.903,11.644-14.378l0.523,0.886C332.389,195.662,329.25,203.78,329.22,203.86z"
			/>
	</g>
	<path fill="#28466B" d="M323.335,214.914c0,0,0,0-0.001,0c-0.195,0-0.387-0.01-0.573-0.027c-6.832-0.643-8.782-8.429-10.669-15.958
		c-1.33-5.304-2.584-10.311-5.42-12.217l-0.919-0.62l1.066-0.303c4.939-1.411,13.448-3.646,22.455-6.011
		c13.692-3.596,29.213-7.673,33.824-9.313l0.662-0.236l0.026,0.702c0.23,6.237-9.215,19.424-18.667,29.23
		C340.844,204.596,330.161,214.914,323.335,214.914z M308.062,186.506c2.585,2.421,3.776,7.169,5.029,12.171
		c1.8,7.182,3.661,14.609,9.767,15.183c0.155,0.016,0.314,0.022,0.476,0.022h0.001c4.461,0,12.327-5.396,21.042-14.438
		c10.208-10.59,17.881-22.254,18.359-27.767c-5.316,1.774-19.481,5.492-33.201,9.096
		C321.093,182.989,313.089,185.091,308.062,186.506z"/>
</g>
<g>
	<g>
		<g>
			<g>
				<g>
					<g>
						<g>
							<g>
								<g>
									<g>
										<g>
											<g>
												<path fill="#C9C5C5" d="M313.52,122.091c-3.665,12.901-11.758,22.287-18.076,20.964
													c-6.317-1.326-8.463-12.86-4.798-25.762c3.667-12.902,11.759-22.289,18.075-20.964
													C315.038,97.656,317.187,109.189,313.52,122.091z"/>
											</g>
											<g>
												<g>
													<g>
														<g>
															<g>
																<g>
																	<g>
																		<g>
																			<path fill="#FFFFFF" d="M313.52,122.091c-3.665,12.901-26.539,8.104-22.874-4.797
																				c3.667-12.902,11.759-22.289,18.075-20.964C315.038,97.656,317.187,109.189,313.52,122.091z"/>
																		</g>
																	</g>
																</g>
															</g>
														</g>
													</g>
												</g>
											</g>
											<g>
												<path fill="#28466B" d="M296.661,143.695c-0.443,0-0.882-0.048-1.304-0.137c-1.971-0.412-3.645-1.785-4.844-3.971
													c-2.72-4.961-2.841-13.562-0.318-22.449c3.475-12.228,10.917-21.449,17.308-21.449c0.443,0,0.882,0.045,1.306,0.134
													c1.972,0.414,3.646,1.789,4.845,3.977c2.72,4.961,2.84,13.562,0.316,22.443
													C310.498,134.472,303.055,143.695,296.661,143.695z M307.502,96.72c-5.897,0-13.105,9.104-16.408,20.725
													c-2.445,8.613-2.358,16.893,0.226,21.61c1.072,1.954,2.489,3.132,4.213,3.492c0.364,0.077,0.744,0.116,1.127,0.116
													c5.9,0,13.108-9.104,16.41-20.725c2.446-8.608,2.36-16.889-0.225-21.608c-1.072-1.957-2.491-3.132-4.216-3.493
													C308.266,96.759,307.886,96.72,307.502,96.72z"/>
											</g>
										</g>
									</g>
								</g>
							</g>
						</g>
					</g>
				</g>
			</g>
		</g>
	</g>
	<g>
		<g>
			<g>
				<g>
					<g>
						<g>
							<g>
								<g>
									<g>
										<g>
											<g>
												<path fill="#137FFF" d="M311.014,121.666c-2.39,8.418-7.591,14.557-11.614,13.713c-4.022-0.845-5.347-8.35-2.955-16.767
													c2.391-8.415,7.59-14.555,11.616-13.713C312.084,105.743,313.406,113.251,311.014,121.666z"/>
											</g>
											<g>
												<g>
													<g>
														<g>
															<g>
																<g>
																	<g>
																		<g>
																			<path fill="#13ABFF" d="M311.014,121.666c-2.39,8.418-16.961,5.364-14.569-3.053
																				c2.391-8.415,7.59-14.555,11.616-13.713C312.084,105.743,313.406,113.251,311.014,121.666z"/>
																		</g>
																	</g>
																</g>
															</g>
														</g>
													</g>
												</g>
											</g>
											<g>
												<path fill="#0031FF" d="M300.157,135.971c-0.286,0-0.571-0.028-0.846-0.086c-1.279-0.268-2.368-1.16-3.146-2.579
													c-1.783-3.255-1.848-8.943-0.169-14.847c2.292-8.069,7.154-14.153,11.308-14.153c0.287,0,0.571,0.03,0.846,0.086
													c1.28,0.27,2.368,1.161,3.145,2.582c1.783,3.256,1.849,8.942,0.17,14.846
													C309.173,129.886,304.313,135.971,300.157,135.971z M307.303,105.336c-3.697,0-8.27,5.898-10.408,13.429
													c-1.578,5.545-1.547,11.043,0.079,14.01c0.646,1.176,1.492,1.882,2.515,2.095c0.216,0.047,0.442,0.07,0.668,0.07
													c3.698,0,8.27-5.899,10.408-13.427c1.576-5.545,1.545-11.044-0.079-14.011c-0.646-1.176-1.49-1.882-2.515-2.097
													C307.755,105.36,307.531,105.336,307.303,105.336z"/>
											</g>
										</g>
									</g>
								</g>
							</g>
						</g>
					</g>
				</g>
			</g>
		</g>
	</g>
	<g>
		<g>
			<g>
				<g>
					<g>
						<g>
							<g>
								<g>
									<g>
										<path d="M308.041,122.67c-1.341,4.722-4.58,8.102-7.233,7.542c-2.652-0.556-3.713-4.836-2.372-9.559
											c1.343-4.722,4.582-8.1,7.233-7.541C308.319,113.671,309.382,117.945,308.041,122.67z"/>
									</g>
								</g>
							</g>
						</g>
					</g>
				</g>
			</g>
		</g>
	</g>
	<g>
		<g>
			<g>
				<g>
					<g>
						<g>
							<g>
								<g>
									<g>
										<path fill="#FFFFFF" d="M306.317,114.942c-0.515,1.81-2.077,3.034-3.498,2.739c-1.418-0.297-2.149-2.006-1.636-3.817
											c0.516-1.81,2.081-3.037,3.499-2.739C306.101,111.422,306.832,113.129,306.317,114.942z"/>
									</g>
								</g>
							</g>
						</g>
					</g>
				</g>
			</g>
		</g>
	</g>
	<g>
		<g>
			<g>
				<g>
					<g>
						<g>
							<g>
								<g>
									<g>
										<path fill="#FFFFFF" d="M300.934,118.743c-0.263,0.93-1.06,1.562-1.775,1.411c-0.717-0.151-1.083-1.027-0.818-1.951
											c0.265-0.934,1.057-1.564,1.775-1.413C300.832,116.941,301.197,117.814,300.934,118.743z"/>
									</g>
								</g>
							</g>
						</g>
					</g>
				</g>
			</g>
		</g>
	</g>
</g>
<g>
	<g>
		<g>
			<g>
				<g>
					<g>
						<g>
							<g>
								<g>
									<g>
										<g>
											<g>
												<path fill="#C9C5C5" d="M389.672,123.685c1.855,14.374-3.427,27.572-11.793,29.474
													c-8.367,1.904-16.651-8.208-18.508-22.583c-1.855-14.372,3.424-27.568,11.791-29.471
													C379.528,99.202,387.817,109.312,389.672,123.685z"/>
											</g>
											<g>
												<g>
													<g>
														<g>
															<g>
																<g>
																	<g>
																		<g>
																			<path fill="#FFFFFF" d="M389.672,123.685c1.855,14.374-28.444,21.265-30.301,6.891
																				c-1.855-14.372,3.424-27.568,11.791-29.471C379.528,99.202,387.817,109.312,389.672,123.685z"/>
																		</g>
																	</g>
																</g>
															</g>
														</g>
													</g>
												</g>
											</g>
											<g>
												<path fill="#28466B" d="M376.947,153.839c-8.34,0.965-16.283-9.226-18.088-23.195
													c-1.884-14.609,3.583-28.085,12.187-30.042c8.706-1.979,17.256,8.462,19.138,23.017
													c1.886,14.607-3.584,28.083-12.189,30.041C377.645,153.738,377.295,153.799,376.947,153.839z M372.212,101.447
													c-0.312,0.035-0.626,0.089-0.937,0.16c-8.104,1.843-13.213,14.809-11.394,28.903
													c1.801,13.946,9.778,24.01,17.883,22.146c8.104-1.844,13.214-14.81,11.396-28.902
													C387.431,110.346,379.986,100.547,372.212,101.447z"/>
											</g>
										</g>
									</g>
								</g>
							</g>
						</g>
					</g>
				</g>
			</g>
		</g>
	</g>
	<g>
		<g>
			<g>
				<g>
					<g>
						<g>
							<g>
								<g>
									<g>
										<g>
											<g>
												<path fill="#137FFF" d="M385.286,128.869c1.211,9.377-2.131,17.962-7.457,19.173c-5.331,1.212-10.631-5.406-11.84-14.78
													c-1.213-9.377,2.126-17.96,7.456-19.175C378.774,112.874,384.077,119.494,385.286,128.869z"/>
											</g>
											<g>
												<g>
													<g>
														<g>
															<g>
																<g>
																	<g>
																		<g>
																			<path fill="#13ABFF" d="M385.286,128.869c1.211,9.377-18.088,13.767-19.297,4.393
																				c-1.213-9.377,2.126-17.96,7.456-19.175C378.774,112.874,384.077,119.494,385.286,128.869z"/>
																		</g>
																	</g>
																</g>
															</g>
														</g>
													</g>
												</g>
											</g>
											<g>
												<path fill="#0031FF" d="M377.271,148.659c-5.424,0.627-10.604-6.107-11.794-15.332
													c-1.242-9.618,2.284-18.474,7.854-19.744c5.678-1.286,11.228,5.614,12.466,15.219c1.242,9.62-2.282,18.477-7.854,19.742
													C377.721,148.596,377.496,148.635,377.271,148.659z M374.123,114.492c-0.188,0.024-0.375,0.054-0.562,0.098
													c-5.069,1.154-8.236,9.5-7.062,18.604c1.158,8.993,6.153,15.503,11.215,14.344c5.071-1.152,8.235-9.499,7.061-18.604
													C383.659,120.275,378.981,113.93,374.123,114.492z"/>
											</g>
										</g>
									</g>
								</g>
							</g>
						</g>
					</g>
				</g>
			</g>
		</g>
	</g>
	<g>
		<g>
			<g>
				<g>
					<g>
						<g>
							<g>
								<g>
									<g>
										<path d="M382.146,131.343c0.68,5.261-1.617,10.177-5.133,10.975c-3.513,0.797-6.91-2.82-7.59-8.081
											c-0.677-5.261,1.619-10.174,5.135-10.97C378.068,122.47,381.465,126.082,382.146,131.343z"/>
									</g>
								</g>
							</g>
						</g>
					</g>
				</g>
			</g>
		</g>
	</g>
	<g>
		<g>
			<g>
				<g>
					<g>
						<g>
							<g>
								<g>
									<g>
										<path fill="#FFFFFF" d="M376.247,124.712c0.262,2.017-1.049,3.996-2.929,4.424c-1.876,0.428-3.61-0.862-3.872-2.877
											c-0.257-2.016,1.053-3.996,2.93-4.427C374.253,121.407,375.986,122.694,376.247,124.712z"/>
									</g>
								</g>
							</g>
						</g>
					</g>
				</g>
			</g>
		</g>
	</g>
	<g>
		<g>
			<g>
				<g>
					<g>
						<g>
							<g>
								<g>
									<g>
										<path fill="#FFFFFF" d="M382.962,137.669c0.133,1.035-0.529,2.052-1.478,2.267c-0.949,0.214-1.826-0.449-1.959-1.481
											c-0.134-1.038,0.526-2.052,1.477-2.269C381.949,135.971,382.825,136.631,382.962,137.669z"/>
									</g>
								</g>
							</g>
						</g>
					</g>
				</g>
			</g>
		</g>
	</g>
</g>
<g>
	<g>
		<g>
			<g>
				<g>
					<g>
						<path fill="#96B0EA" d="M376.629,147.652c-12.511,0.709-16.511,8.567-16.511,8.567l32.944-4.399
							C393.062,151.82,389.141,146.939,376.629,147.652z"/>
					</g>
				</g>
			</g>
		</g>
		<g>
			<g>
				<g>
					<g>
						<g>
							<path fill="#28466B" d="M392.801,152.031c-0.039-0.044-4.002-4.739-16.16-4.048c-12.178,0.691-16.818,8.093-16.818,8.093
								c0.041-0.081,4.235-8.042,16.799-8.754C389.155,146.609,392.801,152.031,392.801,152.031z"/>
						</g>
					</g>
				</g>
			</g>
		</g>
	</g>
</g>
<g>
	<g>
		<path d="M320.875,68.536c0,0-12.038,4.94-16.266,14.83c4.93-5.445,14.175-10.028,21.314-10.352
			C326.152,71.861,320.875,68.536,320.875,68.536z"/>
	</g>
</g>
<g>
	<g>
		<path d="M376.125,71.084c0,0,10.934,7.055,13.282,17.551c-3.852-6.254-12.104-12.449-19.065-14.07
			C370.328,73.39,376.125,71.084,376.125,71.084z"/>
	</g>
</g>
<g>
	<path fill="#7694C1" d="M317.14,103.619c0,0-3.007,20.547-17.354,26.413c-4.811-0.061-10.824,1.485-17.354,2.775
		c-4.381-1.89-11.325-3.066-17.61-9.648c-13.917-14.579-15.871-33.562-17.214-52.274c-1.341-18.71-10.942-27.169-25.857-24.479
		c-8.214,1.481-14.341,8.321-14.787,17.331c-0.644,13.015,14.176,24.354,24.785,10.823c-3.266,21.306-9.278,65.415,16.495,95.186
		c31.847,36.79,94.153,29.896,120.27,0.345L317.14,103.619z"/>
	<path fill="#85A5DD" d="M317.14,103.619c0,0-3.007,20.547-17.354,26.413c-4.811-0.061-10.824,1.485-17.354,2.775
		c-4.381-1.89-11.325-3.066-17.61-9.648c-13.917-14.579-15.871-33.562-17.214-52.274c-1.341-18.71-10.942-27.169-25.857-24.479
		c-8.214,1.481-14.341,8.321-14.787,17.331c-0.644,13.015,14.176,24.354,24.785,10.823c-3.266,21.306-3.978,61.108,22.885,89.9
		c29.545,31.666,89.996,26.247,113.879,5.63L317.14,103.619z"/>
	<path fill="#96B0EA" d="M317.14,103.619c0,0-3.007,20.547-17.354,26.413c-4.811-0.061-10.824,1.485-17.354,2.775
		c-4.381-1.89-11.325-3.066-17.61-9.648c-13.917-14.579-15.871-33.562-17.214-52.274c-1.341-18.71-10.942-27.169-25.857-24.479
		c-7.359,1.327-13.026,6.959-14.453,14.593c0.543,5.92,4.251,12.83,10.619,14.952c9.278,2.062,15.43-4.056,12.112-14.792
		c2.576,4.121,4.64,7.992,1.291,13.91c0.143-0.171,0.287-0.329,0.428-0.509c-1.689,11.029,0.297,27.731,1.923,45.827
		c7.798,25.441,24.537,47.626,52.352,56.232c24.143,7.468,54.311,8.248,75.959-7.217c1.934-1.933,4.548-1.148,6.459,0.766
		c0.023-0.027,5.244-1.181,5.267-1.208L317.14,103.619z"/>
	<path fill="#28466B" d="M307.172,195.37c-0.162,0-0.321,0-0.481,0c-23.933-0.121-44.828-9.104-58.837-25.286
		c-25.777-29.775-19.974-73.497-16.889-93.811c-4.159,4.481-9.264,5.993-14.225,4.142c-6.222-2.323-10.647-9.504-10.291-16.704
		c0.451-9.094,6.562-16.253,15.21-17.813c6.99-1.259,12.8-0.141,17.266,3.327c5.373,4.174,8.467,11.45,9.197,21.624
		c1.446,20.154,3.727,37.975,17.073,51.953c4.802,5.032,9.982,6.841,14.144,8.298c1.128,0.393,2.198,0.768,3.151,1.17
		c1.33-0.265,2.638-0.537,3.918-0.806c4.86-1.019,9.47-2.019,13.278-1.948c13.831-5.742,16.914-25.77,16.942-25.972
		c0,0,0.168,5.694-2.567,11.784c-2.625,5.844-7.001,12.286-14.08,15.183l-0.098,0.039l-0.104-0.002
		c-3.729-0.049-8.312,0.91-13.161,1.926c-1.333,0.28-2.699,0.565-4.086,0.837l-0.157,0.031l-0.147-0.062
		c-0.956-0.414-2.06-0.798-3.23-1.208c-4.266-1.493-9.575-3.349-14.549-8.56c-13.582-14.225-15.895-32.233-17.354-52.591
		c-0.708-9.87-3.67-16.895-8.803-20.883c-4.224-3.28-9.758-4.333-16.45-3.125c-8.166,1.472-13.937,8.243-14.362,16.85
		c-0.336,6.771,3.799,13.514,9.621,15.687c4.991,1.862,10.185-0.034,14.242-5.207l1.213-1.546l-0.299,1.943
		c-2.955,19.285-9.875,64.446,16.374,94.771c13.813,15.956,34.435,24.81,58.064,24.929c0.159,0.003,0.318,0.003,0.477,0.003
		c24.207,0,47.527-9.4,60.954-24.593l0.771,0.683C355.282,185.838,331.665,195.37,307.172,195.37z"/>
</g>
<g>
	<path fill="#28466B" d="M228.214,78.657l-0.504-0.898c4.653-2.62,6.307-8.538,3.688-13.19c-2.069-3.675-6.738-4.98-10.411-2.913
		c-1.401,0.788-2.409,2.074-2.842,3.621c-0.433,1.546-0.238,3.169,0.55,4.568c0.617,1.096,1.624,1.886,2.834,2.224
		c1.213,0.34,2.482,0.186,3.576-0.431c1.759-0.991,2.385-3.229,1.396-4.989c-0.766-1.358-2.493-1.841-3.852-1.077
		c0,0,2.87-2.266,4.75,0.571c1.429,2.158,0.466,5.123-1.789,6.392c-1.335,0.753-2.885,0.939-4.36,0.526
		c-1.475-0.413-2.702-1.376-3.453-2.711c-0.923-1.64-1.154-3.541-0.646-5.353c0.507-1.812,1.689-3.318,3.33-4.241
		c4.168-2.347,9.469-0.863,11.814,3.306C235.194,69.211,233.364,75.759,228.214,78.657z"/>
</g>
<g>
	<path fill="#28466B" d="M245.302,117.036c0.083-0.034,8.331-3.428,8.301-10.615l1.031-0.004
		C254.667,114.311,245.302,117.036,245.302,117.036z"/>
</g>
<g>
	<path fill="#28466B" d="M255.741,139.046c0.103-0.052,10.292-5.348,8.573-15.805l1.017-0.168
		C267.175,134.288,255.741,139.046,255.741,139.046z"/>
</g>
<g>
	<path fill="#28466B" d="M283.369,151.63c0.05-0.083,5.066-8.479-1.37-18.547l0.869-0.556
		C289.664,143.158,283.369,151.63,283.369,151.63z"/>
</g>
<g>
	<path fill="#28466B" d="M313.72,145.479c-0.031-0.119-3.162-11.667-14.083-14.954l0.297-0.987
		C311.419,132.994,313.72,145.479,313.72,145.479z"/>
</g>
<g>
	<path fill="#28466B" d="M372.292,179.42c-0.004-0.062-0.422-6.237-4.084-8.915c-3.72-2.717-8.687-2.697-8.734-2.714
		c0,0,5.345-1.041,9.342,1.883C372.874,172.639,372.292,179.42,372.292,179.42z"/>
</g>
<g>
	<path fill="#28466B" d="M354.827,56.024c0,0,5.215-5.302,18.871-5.946l0.047,1.029C360.463,51.734,354.882,55.981,354.827,56.024z"
		/>
</g>
</svg>
