<svg version="1.1" id="Layer_1" xmlns="http://www.w3.org/2000/svg" xmlns:xlink="http://www.w3.org/1999/xlink" viewBox="0 0 768 430" enable-background="new 0 0 768 430" xml:space="preserve">
<path fill="#FDBE2A" d="M548.764,359.931L400.366,96.728c-2.291-4.058-5.301-6.293-8.478-6.293s-6.186,2.233-8.476,6.29
	c-0.001,0.002-148.399,263.208-148.399,263.208c-3.091,5.478-1.948,9.045-0.993,10.684c0.961,1.64,3.505,4.384,9.795,4.384h296.146
	c6.296,0,8.84-2.75,9.794-4.388C550.709,368.986,551.858,365.418,548.764,359.931z"/>
<path fill="none" stroke="#231F20" stroke-width="13.8778" d="M276.72,334.839c-5.012,8.887-0.764,16.157,9.438,16.157H497.62
	c10.202,0,14.449-7.271,9.438-16.157l-106.06-188.112c-5.011-8.887-13.212-8.887-18.223,0L276.72,334.839z"/>
<g>
	<path fill="#231F20" d="M405.256,316.461c0,7.967-6.402,14.372-14.177,14.372c-7.77,0-14.02-6.405-14.02-14.372
		c0-8.119,6.403-14.366,14.02-14.366C398.854,302.095,405.256,308.342,405.256,316.461z"/>
	<path fill="#231F20" d="M399.028,281.578c-0.609,4.532-2.863,7.346-7.771,7.346c-5.108,0-7.562-2.658-8.176-7.346l-8.38-67.495
		c-1.021-7.656,0.409-18.749,16.356-18.749c14.919,0,17.782,9.374,16.555,18.749L399.028,281.578z"/>
</g>
</svg>
