<svg xmlns="http://www.w3.org/2000/svg" viewBox="0 0 768 430"><style>.a{fill:#38120D;}.b{fill:#333;}.c{fill:#FFBE8E;}.d{fill:#CF956B;}.e{fill:#FFF;}</style><path d="M359.1 237.4c3-4 6.7-8 11.2-10.3C359.1 223.9 358.6 225.8 359.1 237.4 362.4 233.1 358.9 234 359.1 237.4z" fill="#618EA2"/><path d="M358.7 238.8c-0.5-14.3-0.6-15.4 12.9-11.8C366.3 229.6 362 234 358.7 238.8zM359.1 227.8c0.2 2.8 0.3 5.5 0.4 8.3 2.7-3.4 5.8-6.6 9.6-8.9C363.9 225.7 363.3 223.4 359.1 227.8 359.2 230.7 360.2 226.7 359.1 227.8z" class="a"/><path d="M418 224.4c-3.1 1.3-6.4 2.4-9.7 3.2 2.5 7 4.9 14.1 7.2 21.2 3.3 10.4 2.4 11.5 12.9 9.1 8.6-2 9.8-3.8 5.7-12C430.3 237.9 424.5 230.5 418 224.4 414.9 225.7 424.7 230.7 418 224.4z" fill="#A2CCE4"/><path d="M418.9 260c-1.6 0-8.4-24.7-9.3-27.2 -3.6-10.2 7.9-9.9 13.3-3.9 2.4 2.7 18.3 22.5 14.4 25.9C433.2 258.4 424.4 260 418.9 260zM409 227.9c3.1 8.7 6 17.4 8.8 26.2 2.3 7.5 10.2 4.5 17 1.7 5.9-2.4-2.7-13.6-5.1-17.1 -2.6-3.8-5.6-7.4-8.8-10.8C416.5 223.3 414.6 226.5 409 227.9 413 239.3 412 227.2 409 227.9z" class="a"/><path d="M374.1 387.1c0.2 1.8-26.9 17.2-28.3 5.8C344.3 381.6 370.6 385.9 374.1 387.1z" class="b"/><path d="M351.3 397.6c-6.5 0-8.3-7.7-2.7-10.7 6.6-3.6 16.5-2.2 23.5-0.7C379.6 387.7 355.3 397.6 351.3 397.6zM359.4 385.8c-3.4 0-7.3 0.2-10.3 1.8 -4.7 2.5-3.4 9 2.2 9 6.7 0 17.4-4.2 22.1-9.2C368.9 386.2 364 385.8 359.4 385.8z" class="a"/><path d="M405.6 387.1c-0.2 1.8 26.9 17.2 28.3 5.8C435.3 381.6 409.1 385.9 405.6 387.1z" class="b"/><path d="M428.3 397.6c-3.9 0-24.1-5.9-22.9-10.9 6.6-2.4 16.1-2.8 22.8-0.9C435 387.6 437.3 397.6 428.3 397.6zM406.2 387.4c4.1 4.5 20 12.5 25.7 8.3 6.8-5-4.2-9.4-7.5-9.7C418.5 385.4 411.9 385.8 406.2 387.4 407.9 389.3 408.5 386.8 406.2 387.4z" class="a"/><path d="M358.9 321.7c-1.2 6.2 2.6 16.2 4 22.7 2.7 12.9 5.2 26.1 9.3 38.6 3.5 10.8 8.1-9.2 9.3-12.8 3.1-9.4 5.9-18.9 8.5-28.5 3.6 12.9 7.2 26 12 38.5 6.3 16.4 9-8.7 10.6-15.5 3.3-14 6.2-28.2 9-42.3 -0.2 1-22.7 2.3-25.4 2.4C384 325.2 370.6 325.3 358.9 321.7z" fill="#5F7AA3"/><path d="M405.7 387.6c-6.8 0-14.1-39.4-15.8-45.2 -1.4 4.9-15.3 46.4-16.5 44.8 -4.2-5.5-5-15.8-6.5-22.2 -1.1-4.6-12.2-40.1-8.9-43 1.6-1.7 9.7 1.2 11.9 1.4 10.1 1.2 20.4 1.4 30.6 0.8 6.8-0.4 13.8-0.9 20.4-2.9 2.2-0.7-0.4 8.8-0.4 9.1 -3.2 16.1-6.4 32.4-10.8 48.2C408.7 381.7 408 385.4 405.7 387.6zM389.9 341.2c5.7 0 8.3 42.6 15.8 45.4 4.4-2.9 5.9-19.1 7-23.7 3.2-13.5 6.2-27.1 8.9-40.8 -20.8 3.4-42.4 4.9-63.2-0.1 2.7 13.6 5.5 27.1 8.6 40.6 1.1 4.8 2.5 20.9 7.2 23.9C382.3 384.4 384.3 341.2 389.9 341.2z" class="a"/><path d="M443.9 311.6c-3.6-18.3-7.3-36.6-10.9-54.9 -4.5 1.6-9.4 2.3-14.1 2.8 4.8 15.8 6.8 31.9 11.1 47.7 1.5 5.5-5.6 18.1 2.6 19.1 -1.1 1.3-1 3.5-2.1 4.8 7.1 1.2 10.8 4 15-2.1C450.9 321 448.6 320.1 443.9 311.6z" class="c"/><path d="M442.7 333.6c-4.9 0-16.4-0.1-10.7-7.1 -5.8-0.8-4.4-6.8-2.6-10.6 2.8-5.9-1.1-14.2-2.1-20.7 -0.6-4-7.5-36.4-8.3-36.3 5.9-0.6 13.5-6.3 14.9 0.7 3.2 16.3 6.4 32.5 9.6 48.8 1 4.9 4 8.9 6.6 13.2C450.8 323.2 444.2 333.6 442.7 333.6zM431.2 330.7c11.4 1.9 11.1 2.2 17.6-7.5 1.5-2.2-5.1-10.7-5.9-14.6 -3.3-17.3-6.6-34.5-9.9-51.8 -4.3 1.4-8.9 2.6-13.4 3.1 3.4 11.3 6.6 22.8 8.5 34.5 0.8 4.8 4.3 13.4 3.9 18.1 0.7 2.4-3.3 7.2-2.8 10.8C429.7 327.2 436.2 324.6 431.2 330.7z" class="a"/><path d="M418.9 259.5v0V259.5z" class="c"/><path d="M418.9 259C420.6 259 417.2 259 418.9 259 419.2 259 418.7 259 418.9 259z" class="a"/><path d="M435.6 326.7c-1.6 0.1-2.8 0.6-3-0.9 3-1.6 1.2-0.4 3.5-3.5C436.2 322.7 436.6 326.7 435.6 326.7z" class="a"/><path d="M441 330.6c-3.5-0.3-6.8 0.1-8.8-2.2 -0.3 0.8-0.7 1.5-1 2.3 8 1.4 10.1 3.6 14.7-3.1 5.4-7.9-0.3-7.5-2.4-15.9C445.3 320.9 445.8 322.7 441 330.6z" class="d"/><path d="M408.4 227.6c-8.6 2.2-17.5 2.8-26.3 1.8 1 3.7-9.3 13.2-11 16.7 -4.6 9.4-1.9 22.9-9.3 30.4 -3.9 3.9-6 2.6-7.2 8.5 -1 4.9-1.9 9.9-2.6 14.8 -0.6 5-2.4 15.5 2 19.5 6.2 5.6 19.9 5.1 27.6 5.4 16.4 0.7 48.3 4.8 47.5-18.5C427.9 279.6 417.2 252.5 408.4 227.6 402.6 229.1 415.8 248.4 408.4 227.6z" fill="#FDFFE9"/><path d="M389.8 325.3c-10.4 0-26.5 1-35.6-5.2 -9.2-6.2-1.2-31.3 0.7-39.6 0.6-2.7 9-6 10.3-10.2 1.3-4.1 0.5-8.9 1.3-13.1 1.4-7.3 4.8-14.9 10-20.3 0.5-0.5 5.9-8 5.4-8 7.2 0.8 14.6 0.5 21.7-0.8 8.3-1.6 7.5 6.5 9.9 13.6 5.2 15.4 10.1 31.1 13.3 47 1.7 8.2 5.4 22.4 0 30C421.1 327.1 398.4 325.3 389.8 325.3zM355.8 281c-2.3 10-8.1 27.6-2.2 37.2 4.8 8 28.8 6.1 36.2 6.1 10.2 0 26.3 1 35.3-5.1 4.8-3.3 3.4-13.2 2.9-18 -1.1-11-3.9-21.8-6.9-32.4 -2.3-8.1-4.8-16.2-7.4-24.2 -1.2-3.6-2.4-7.2-3.7-10.8 -2.9-8.2-3.5-4.9-10.8-4 -3 0.4-6 0.5-9 0.5 -6.4 0-5.6-1.5-9.3 3.3 -5.2 6.8-10 12-12.6 20.5C365.1 265.3 368.5 274.9 355.8 281 354.4 287.2 358.4 279.8 355.8 281z" class="a"/><path d="M458.8 158.5c3.3 0-1.9 9.2-5.1 10.1 -3.5-11-7.1-21.9-10.6-32.9 -10.3 5.2-9.1 0.8-14.4-8.9 -4.5-8.4-8.1-3.4-16.5 0 -2.3 0.9-20.8 10.1-22.2 8.6 -5.5-6.1-10.9-12.2-16.4-18.3 -6.4 6.5-12.8 12.9-19.2 19.4 -5.8 5.9-10.9 0.3-18-3 -1.6 7-3.1 13.9-4.7 20.9 -2.1 9.5-0.7 11.7-10.1 14.1 -0.4-7.2 1.8-12.4-7.1-14.3 -5.3-1.1-10.1 2-12.3 6.7 -5.6 11.7 4.5 22.1 15.3 25.1 0.8-5.8 10-20.8 11.5-7.1 0.4-3.7 2.7-9.6 7.2-9.9 7-0.4 5.1 13.2 5.2 16.8 0-0.1 0-0.1 0-0.2 0 0.1 0 0.1 0 0.2 -0.1-7.3 8.2-14.8 12.7-5.6 5 10.2-2.3 39.6 8.2 44 6 2.5 11.3-0.2 16.4 2 6.2 2.7 8.5 4 16.4 3.5 14.7-0.9 29-6.3 40.4-15.5 4.4-3.5 8.3-7.6 11.6-12.1 1.4-1.9 7.3-14.5 8.6-14.6 9.2-0.9 20-4.5 23.6-13.9C484.3 160 470.3 148.2 458.8 158.5 458.7 158.5 478.9 140.4 458.8 158.5z" class="c"/><path d="M390.3 230.4c-1.2 0-8.1 0.5-8.7-1 -4.4-5.9-6.6-0.4-11.4-1.8 -1.6-0.4-12.2-3.2-12.4-5 -0.5-6.9-1.1-13.7-1.7-20.5 -0.5-5.5 1.4-25.5-8-25.5 -6.2 0-5 10-6.9 10 -0.3 0-0.6-13.6-2.6-15.7 -5.9-6.5-8.7 8.8-9.8 8.8 -2.1 0.3-1.6-10.1-7.1-4.3 -1.8 1.9-2.8 10.4-4.1 11.3 -2.9 1.9-12.1-6.1-13.5-7.8 -5.4-6.6-5.7-17.7 1.8-23 4-2.8 8.9-2.4 13 0 5.4 3.2 2.9 6.8 3.1 12.4 10.4-0.1 9.4-14.6 11.2-22.4 2.9-12.7 0.8-13.6 13.1-8 8.5 3.8 15.9-9.5 21.8-15.5 8.8-8.9 10.3-0.4 18.1 8.3 7 7.8 14 0.8 23.3-3 10.1-4.1 14.7-10.3 20.2-0.1 1.1 2.1 5 12.2 7.3 11 2.2-1.1 6-4.8 7-1.5 3.3 10.4 6.7 20.7 10 31.1 8-2.1 2.3-19.6 18.3-13.6 15.6 5.9 7.1 25.5-3.8 30.4 -6.5 3-11.8 0.6-14.9 7.2 -3.7 7.7-8.9 14.6-15.2 20.3C425.3 223.9 407.8 230.4 390.3 230.4zM382.4 229c24.2 2.6 49.2-7.3 63.9-26.9 3.4-4.5 6.1-9.5 8.2-14.7 0.4-0.9 8.6-1.7 9.8-2.1 8.2-2.6 15.7-9 15.3-18.3 -0.6-11.7-12.2-15.7-20.5-8.3 0.2 2.2 1.6 6.1-0.7 7.4 -0.4 0.3-4.9 3.6-5.2 2.5 -3.6-1.1-9-27.8-10.4-32.3 -9.9 5-8.8 1.2-13.9-8.2 -4.9-9.1-7.5-4.6-16.8-0.8 -2 0.8-20.9 10.1-22.2 8.7 -5-1.3-12.7-14.2-16.3-18.2 -6.3 6.4-12.6 12.7-18.9 19.1 -6 6-10.7 0.6-18-2.7 -2.6 11.4-1.6 31.3-13.9 34.5 -3.5 0.9-1.8-4.5-1.7-6.6 0.5-7.9-10.6-9.7-15.9-4.7 -4 3.9-5 10.1-3.3 15.3 1 3 2.9 5.7 5.4 7.8 1.9 1.6 8.7 3.3 9.7 4.9 0.6-4.2 7.9-20.5 11.8-8.9 3.5-13.4 13.4-6.4 12.9 3.9 2.4-5.7 9-6.6 12.2-1.1 4.2 7.2 2.8 19.3 3.5 27.4 0.4 5.1 0.9 10.3 1.2 15.4 3.7 1.8 7.6 3.3 11.5 4.4C373.7 224.9 380.6 224.2 382.4 229 385 229.3 382.4 229 382.4 229z" class="a"/><path d="M313.6 164.6c2.1 0.4-3.6 3.9-3.4 3.7 -2.5 2.7 5 6.1 6.3 7.5 -1.4-1.5-2.3-3.5-3.9-4.9 -3.7-3.4 5-4.3 3.1-6.5 -1.3-1.5-5.2-0.6-6.8-0.4C310.1 163.8 312.3 164.4 313.6 164.6 315.3 164.9 312 164.4 313.6 164.6z" class="a"/><path d="M472.3 163.9c-1.1-0.1-8.8-1-7.1 1.9 3.7 6.6 3.5 3.1-2.4 9.7 1.4-1.6 4.7-2.3 6.4-4 4.2-4-1.6-3.6-2.6-6.7C466.6 164.7 471.9 163.9 472.3 163.9z" class="a"/><path d="M458.7 158.5c-1.9 0 6.8-3.8 6.3-3.7 3.2-0.8 6.5 0.4 9.5 1.2 2.5-9.5-10.7-32.5 5.7-34.7 -1.2-5.8-16.3-12-21.1-14.8 8.7-6.6 5.1-7.3-3-12.4 -6.7-4.2-13.7-8.1-20.6-11.9 3.1-0.8 27.3-10.4 20.4-11.8 -11.3-2.2-24.3-0.2-35.7 0.3 -14.9 0.7-29.9 1.8-44.9 2 -3.4 0-7.9 0.6-11.1-0.7 -4.1-1.7 7.7-15.7 4.4-17.2 -3.2-1.5-17.9 18.1-19.8 20.3 -4 4.7-11.6 19.3-18.3 19.6 -4.4 0.2-27.7-4.4-29.9-0.5 -2.8 4.9 7.8 6.9 3.6 13.6 -1 1.6-9.9 12.3-8.4 14 3 3.5 15.7-21.6 13.5 0.3 -0.7 6.5-7.8 28.8-3.4 34.1 3.5-2.5 7.7-2.7 11.5-0.9 6.6 3.2 3.8 7.2 4.1 13.2 8.6-2.2 7.6-2.8 9.5-11.4 1.8-7.9 3.5-15.8 5.3-23.6 7.1 3.2 12.2 8.9 18 3 6.4-6.5 12.8-12.9 19.2-19.4 5.5 6.1 10.9 12.2 16.4 18.3 1.4 1.5 19.9-7.7 22.2-8.6 8.5-3.4 12-8.4 16.5 0 5.3 9.8 4.1 14.1 14.4 8.9 3.5 11 7.1 21.9 10.6 32.9C459.5 167 459.3 163.6 458.7 158.5 458.7 158.5 458.9 160.7 458.7 158.5z" fill="#612E0F"/><path d="M321.5 169.1c-1.2 0-0.6-5-0.6-3.5 0-6.3 0.5-9.9-7.4-10.9 -8.9-1.2-9.5 4.4-8-8.6 1.2-9.9 3.5-19.9 3.6-29.8 0.1-9.8-10.3 6.1-13.1 6.1 -2.5 0 6.9-13.6 7.9-15.2 3.5-5.6-10.2-14.3 1-14.3 8.9 0 18.1 2.3 26.9 1.2 3-0.4 5.4-5.7 7.1-7.8 8.1-10.1 16.3-20.5 25.7-29.3 1.6-1.5 6.5-5.2 4.3 0.7 -2.3 6.6-9.8 14.1 0.4 14.5 25.5 1 51.1-2.8 76.6-2.8 24.6 0 1.1 10.2-9.3 13 7.1 3.9 14.3 7.9 21.1 12.3 7.7 4.9 9.9 5.6 2.1 11.8 4.8 2.8 9.6 5.7 14.2 8.9 5.9 4.1 8.2 4.4 2.4 7.5 -9.3 4.9-1.6 22-1.3 29.6 0.3 8.2-6.3 0.8-11.9 3.5 -7.3 3.5-0.8 7.9-6.7 11.5 -3.3 2-3.1 2.2-4.2-1.3 -3.2-9.9-6.4-19.8-9.6-29.7 -9.9 5-8.8 1.2-13.9-8.2 -4.9-9.1-7.5-4.6-16.8-0.8 -2.1 0.8-20.9 10.2-22.2 8.7 -5-1.3-12.7-14.2-16.3-18.2 -6.3 6.4-12.6 12.7-18.9 19.1 -6 6-10.7 0.6-18-2.7C334.4 144.3 335.1 169.1 321.5 169.1zM312.3 153.6c11.1 0 9.4 6.6 9.7 14.4 10.4-0.1 9.4-14.6 11.2-22.4 2.9-12.7 0.8-13.6 13.1-8 8.5 3.8 15.9-9.5 21.8-15.5 8.8-8.9 10.3-0.4 18.1 8.3 7 7.8 14 0.8 23.3-3 10.1-4.1 14.7-10.3 20.2-0.1 1.1 2.1 5 12.2 7.3 11 2.2-1.1 6-4.8 7-1.5 3.3 10.4 6.7 20.7 10 31.1 7.4-2 1.3-6.3 4.3-9.7 4.4-4.9 10.1-4.4 15.8-2.8 1.9-9.6-10.5-31.7 5.4-34.5 -3.6-5.2-12-8.9-17.3-12.1 -6.2-3.7-1.7-3.6 2.6-7.8 -2.2-6.7-30.5-14.2-29.9-19 0.5-4.2 22-3 22.4-10.7 -2.8-6.3-53.4 0.6-59.9 1 -10.3 0.5-21.3 1.9-31.6 0.5 -8.4-1.1 4.1-13.5 2.7-17.5 0.5 1.4-29.9 32.4-33.1 37 -5.7 8.2-24.9-0.2-33.7 1.9 -3.4 0.8 5.4 8.2 4.9 10 -1.4 5.7-10.6 11.6-10.4 17.3 2.9-0.7 13.7-16.4 13.9-5.5 0.2 12.1-7.5 28-4 39.6C308 154.3 310 153.7 312.3 153.6z" class="a"/><path d="M395.6 181.4c-4 0-6.1-4.4-10.7 0C382 181.4 398.5 170.4 395.6 181.4zM390.3 177.4c-2.3-0.2-4 0.6-5.1 2.5 2.4-2.4 7.8-2.4 10.2 0C394.3 178.1 392.6 177.2 390.3 177.4z" class="a"/><path d="M356.6 161c7.5 0 7.5 11.7 0 11.7C349 172.7 349 161 356.6 161z" class="a"/><path d="M358.4 163c2.4 0 2.4 3.7 0 3.7C356 166.7 356 163 358.4 163z" class="e"/><path d="M417.9 166.8c0 7.5 11.7 7.5 11.7 0C429.6 159.3 417.9 159.3 417.9 166.8 417.9 170.1 417.9 163.6 417.9 166.8z" class="a"/><path d="M425.9 163c2.4 0 2.4 3.7 0 3.7S423.5 163 425.9 163z" class="e"/><path d="M370.8 163.4c-1.8-4.4-6.4-8.3-10.3-10.7 -4-2.4-22.8-8.5-25.8-2.5 2.4-4.7 23.2 4.3 26.2 6.3 4 2.6 7.7 5.8 10.6 9.6C371.4 165.2 371.2 164.3 370.8 163.4 369.8 161.1 371.5 165.2 370.8 163.4z" class="a"/><path d="M409.5 163.4c1.8-4.4 6.4-8.3 10.3-10.7 4-2.4 22.8-8.5 25.8-2.5 -2.4-4.7-23.2 4.3-26.2 6.3 -4 2.6-7.7 5.8-10.6 9.6C408.9 165.2 409.1 164.3 409.5 163.4 410.5 161.1 408.8 165.2 409.5 163.4z" class="a"/><path d="M390.1 195c7.8 0 7.8 17.6 0 17.6C382.3 212.6 382.3 195 390.1 195z" fill="#EE6767"/><path d="M390.1 213c-8.3 0-8.3-18.4 0-18.4C398.4 194.6 398.4 213 390.1 213zM390.1 195.4c-7.3 0-7.3 16.9 0 16.9C397.5 212.3 397.5 195.4 390.1 195.4z" class="a"/><path d="M394.2 198.4c-2-3.8-6.2-3.8-8.2 0C388.8 199.2 391.5 199.2 394.2 198.4 393.3 196.6 393.2 198.8 394.2 198.4z" class="e"/><path d="M381.9 229.1c-6.9-9.5-18.5 2.4-22.9 8.3 -0.7-16.8-2.6-33.5-3.6-50.3 -0.7-12.5-14.4-14.8-14.3-1.2 0-0.3 0-0.3 0 0 -0.1-4.2 1.7-14.5-3.7-16.6 -5.1-2-8.4 6-8.7 9.7 -0.2-4.4-4.3-7.9-7.8-3.8 -3.1 3.7-3.6 9.4-4 13.9 -0.9-11.1-8.6 4.2-9.2 8.4 -1.2 8.4-2.2 16.9-2.8 25.4 -1.2 15.9-4.6 42.8 8.7 54.9 12.2 11 39.5 9.9 49.8-3.5 3.8-5 2.3-11.2 3.5-17 1.1-5.8 3.7-11.2 6.6-16.2C375.3 238.3 383.7 233.1 381.9 229.1 376.1 221.1 383.4 232.4 381.9 229.1z" class="c"/><path d="M335.7 285.4c-28.8 0.1-31.8-26.2-31.5-48.9 0.2-10.8 1-21.6 2.3-32.3 0.3-2.8 5.6-26.5 10.4-18.8 0.6-4.2 7.9-20.5 11.8-8.9 3.4-13.5 13.4-6.3 12.9 4 6.5-15.7 14.2 5.9 14.6 11.7 1 14.6 2.6 29.2 3.2 43.9 4.6-5.9 15.9-16.7 22.8-7.2 1.9 2.4-11.4 18.5-12.7 21.7 -2.6 6.7-1.3 13.6-3.4 20.1C362.5 282.1 346 285.4 335.7 285.4zM315.2 185.4c-10.7 0-10.3 45.9-10.4 52.3 -0.3 22.7 2.7 46.8 30.9 46.8 9.8 0 26-3 29.6-14.1 3.4-10.4 2.6-19.3 8.5-29.6 2.2-3.8 12.4-9.8 5.1-13.9 -4.4-2.4-9.4 0.8-12.7 3.6 -4.5 3.8-14.7 15.1-14.7 21.4 4.3-9.8 7.3-14.7 6.6-25.7 -0.8-12.7 1.4-34.9-4.8-46.1 -2.8-5.1-9-4.1-10.9 1.5 -2 5.9-0.6 14.1-0.5 20.1 0.1 10 0.8 20.3 0.7 30.2 0-1.3-0.8-0.1-0.5-0.2 -1.6 0 0-57.4-3.3-61 -8.4-9.1-10 18.7-10 20.8 0 3.4-0.8 40.8-0.8 40.8 0.9 0.3-0.8-2.5-0.8-0.3 -0.1-11.8 0.4-24.3 0.4-36.3 0-5.5-0.1-11.2 0.9-16.7 -1.1-10.2-8.5-2.4-9.7 2.9 -1.5 6.2-1.3 48.1-0.6 48.1 0.6 0-0.7-1.3-0.6-0.1C316.8 223.6 317.9 185.4 315.2 185.4z" class="a"/><path d="M353.1 236.5c-7.4-5.9-41.6-1.8-44.3 1.1C324.1 233.5 342.7 233 353.1 236.5z" class="a"/><path d="M344.2 243.9c-27.7 5.8-18.4 26.9-16 31.4C327 268.6 329.9 248.7 344.2 243.9z" class="d"/><path d="M329 277.4c-4.8 0 5.5-26.5 8.8-29.3 0.6-0.5 11.8-6.8 12.2-5.2 -9.4 0.3-16.1 6.9-19.4 15.4C329.3 261.6 325.1 274.4 329 277.4 329 277.4 326 275.2 329 277.4z" class="a"/><path d="M365.9 264.7c0.2-8.4 3.3-18.3 8.5-24.9 -7 4.8-8.8 15.1-11.9 22.4 -5 11.9-13.3 20.6-26.7 22.2C348.4 284.4 365.6 279.7 365.9 264.7 366 259.9 365.9 269 365.9 264.7z" class="d"/></svg>