<svg version="1.1" id="Layer_2" xmlns="http://www.w3.org/2000/svg" xmlns:xlink="http://www.w3.org/1999/xlink" viewBox="0 0 768 430" enable-background="new 0 0 768 430" xml:space="preserve">
<g>
	<g>
		<path fill="#9D5127" d="M280.781,97.001c0,0-10.131-7.447-10.858-23.794c-0.004-9.264,5.812-5.351,8.145-4.734
			c0.904,0.239,10.911,3.645,14.733,7.277C291.719,81.199,280.781,97.001,280.781,97.001z"/>
		<path fill="#A95B27" d="M284.118,90.093c0,0-8.949,0.739-12.681-17.186c-1.514-8.389,4.299-5.052,6.631-4.435
			c0.904,0.239,10.911,3.645,14.733,7.277C291.719,81.199,284.118,90.093,284.118,90.093z"/>
		<path fill="#A96A33" d="M278.068,68.473c-1.694-0.448-5.221-2.327-6.447-0.11c0.275,0.71,0,0.888,1.707,1.938
			c2.903,1.649,8.667,1.271,10.609,6.718c1.247,3.498,3.363,6.965,2.835,9.716c2.305-3.087,5.372-7.671,6.029-10.984
			C288.979,72.117,278.972,68.712,278.068,68.473z"/>
		<path fill="#4F2914" d="M280.823,97.258l-0.15-0.111c-0.102-0.075-10.209-7.686-10.931-23.933
			c-0.001-2.304,0.342-3.925,1.051-4.961c0.592-0.867,1.452-1.307,2.554-1.307c1.193,0,2.486,0.504,3.526,0.91
			c0.483,0.188,0.9,0.351,1.242,0.441c0.959,0.253,10.997,3.695,14.812,7.321l0.073,0.069l-0.02,0.098
			c-1.076,5.424-11.602,20.673-12.049,21.319L280.823,97.258z M273.347,67.31c-0.989,0-1.727,0.376-2.254,1.149
			c-0.656,0.96-0.988,2.558-0.988,4.749c0.666,14.979,9.387,22.527,10.636,23.532c1.139-1.659,10.754-15.783,11.862-20.927
			c-3.817-3.551-13.637-6.914-14.581-7.164c-0.362-0.096-0.788-0.262-1.281-0.454C275.729,67.8,274.471,67.31,273.347,67.31z"/>
	</g>
	<g>
		<path fill="#FF5E53" d="M281.362,92.097c0,0-9.623-11.261-7.806-20.525c3.179,2.271,10.898,2.543,10.354,12.896
			C283.273,90.462,281.362,92.097,281.362,92.097z"/>
		<path fill="#FF7C73" d="M280.276,83.742c0.727-2.906-1.453-3.996-3.27-5.812c-1.396-1.396-0.258-3.088,1.503-3.935
			c-1.837-0.97-3.732-1.549-4.955-2.422c-0.929,4.738,1.135,9.996,3.373,14.005C278.354,85.549,279.765,85.276,280.276,83.742z"/>
		<path fill="#FF8E86" d="M277.733,83.742c0.363-0.726,1.09-1.816,0-2.543c-2.968-1.781-3.51-5.986-1.033-8.059
			c-1.203-0.527-2.326-0.982-3.145-1.567c-0.875,4.464,0.907,9.389,2.987,13.296C276.984,84.594,277.386,84.228,277.733,83.742z"/>
		<path fill="#C73D30" d="M281.342,92.354l-0.119-0.138c-0.097-0.113-9.659-11.436-7.846-20.678l0.054-0.277l0.23,0.164
			c0.699,0.5,1.649,0.912,2.656,1.348c3.461,1.5,8.202,3.556,7.773,11.706c-0.637,6.007-2.53,7.688-2.61,7.757L281.342,92.354z
			 M273.684,71.879c-1.441,8.436,6.567,18.578,7.688,19.946c0.433-0.497,1.834-2.451,2.357-7.375
			c0.415-7.888-4.005-9.804-7.556-11.344C275.254,72.708,274.382,72.329,273.684,71.879z"/>
	</g>
	<g>
		<path fill="#542A15" d="M335.155,95.367c0,0,21.046,5.588,28.069,37.91c5.57,27.237,9.201,54.436,26.76,65.297
			c6.54,9.529,19.86-3.308,22.282,7.955c1.453-2.786,1.452-10.172-10.898-13.2c-15.257-7.659,0.605-19.994-8.84-31.468
			c3.27,1.801,6.66,3.375,7.508,6.16c0.206-1.286,0.242-6.16-3.027-9.929c-0.484-10.898-3.479-18.363-8.84-21.252
			c4.724,0.545,6.419,0,6.419,0c-1.938-2.603-1.333-9.021-8.598-12.653c5.207,0.242,7.87-2.926,7.629-4.551
			c-11.989-5.379-9.238-28.16-28.457-32.239c5.57-1.233,8.873-5.562,8.873-5.562c-13.474,2.271-14.685-17.286-29.458-4.631
			C338.642,82.064,335.155,95.367,335.155,95.367z"/>
		<path fill="#5E3115" d="M378.36,176.376c0.726,3.27,6.539,4.36,7.991,8.718c1.816,6.539,6.176,16.348,13.078,11.625
			c1.09-0.727-3.269-0.727-4.359-2.543c-1.452-1.453-2.543-3.27-3.633-5.086c-2.18-2.18-1.815-5.812-0.362-8.718
			c2.543-5.086,2.543-12.715-0.727-15.984c-4.724-4.723-8.356-9.445-12.352-14.531c5.812,1.816,10.171,6.176,15.621,8.355
			c0.726-9.809-6.902-17.074-10.172-25.429c1.816-0.363,4.722,0.727,4.359-0.363c-1.816-5.449-9.083-5.812-12.715-10.535
			c-1.09-0.726-1.816-2.18-2.18-3.632c3.632,2.543,12.742,3.199,16.739,1.383c0.363,0-3.661-2.836-4.025-3.199
			c-1.453-1.09-3.632-1.09-4.722-2.543c-6.175-8.355-6.175-20.707-18.164-23.25c-2.906-0.363-5.449-0.727-7.629-2.543
			c3.997-0.363,8.355-2.542,9.445-6.539c-4.359,0.363-7.266-3.996-10.898-5.812c-1.905-1.172-3.927-1.28-5.973-0.873
			c-0.967,0.61-2,1.375-3.109,2.326c-5.934,4.861-9.421,18.164-9.421,18.164s21.046,5.588,28.069,37.91
			c1.772,8.664,3.348,17.323,5.238,25.455C373.167,163.423,376.902,169.086,378.36,176.376z"/>
		<path fill="#2A150B" d="M412.193,207.059l-0.105-0.493c-0.913-4.245-3.416-4.818-5.742-4.818c-1.24,0-2.584,0.186-4.006,0.382
			c-1.515,0.209-3.082,0.426-4.622,0.426c-0.001,0-0.001,0-0.001,0c-3.548-0.001-6.047-1.224-7.861-3.847
			c-15.823-9.814-20.358-32.803-25.161-57.143c-0.533-2.702-1.084-5.496-1.648-8.252c-3.617-16.646-11.029-26.033-16.611-30.977
			c-6.038-5.347-11.275-6.781-11.327-6.794l-0.175-0.047l0.045-0.175c0.036-0.134,3.571-13.415,9.482-18.258
			c3.406-2.917,6.351-4.337,8.999-4.337c3.223,0,5.635,2.04,8.19,4.199c2.857,2.416,5.813,4.914,10.236,4.914
			c0.685,0,1.397-0.061,2.118-0.183l0.454-0.076l-0.279,0.366c-0.032,0.042-3.109,4.012-8.236,5.444
			c10.554,2.584,14.349,11.089,17.706,18.613c2.571,5.762,5,11.205,10.043,13.468l0.091,0.041l0.015,0.099
			c0.1,0.668-0.226,1.495-0.895,2.271c-0.637,0.739-2.5,2.441-6.161,2.5c4.6,2.583,5.797,6.397,6.682,9.216
			c0.401,1.277,0.747,2.38,1.31,3.135l0.151,0.203l-0.242,0.078c-0.031,0.01-0.802,0.251-2.71,0.251
			c-0.887,0-1.875-0.052-2.949-0.155c4.894,3.141,7.725,10.341,8.204,20.913c3.201,3.731,3.273,8.5,3.028,10.029l-0.124,0.776
			l-0.229-0.752c-0.739-2.432-3.501-3.928-6.425-5.511c-0.076-0.041-0.151-0.082-0.228-0.123c3.715,5.042,2.842,10.139,1.996,15.077
			c-1.059,6.18-1.974,11.517,6.226,15.64c7.137,1.754,9.896,4.91,10.954,7.249c1.124,2.485,0.726,4.896,0.042,6.206L412.193,207.059
			z M406.346,201.385c2.234,0,4.902,0.536,5.973,4.583c0.5-1.297,0.681-3.323-0.265-5.412c-1.026-2.268-3.721-5.333-10.73-7.051
			l-0.038-0.013c-8.457-4.247-7.477-9.973-6.438-16.036c0.871-5.083,1.771-10.34-2.459-15.479l-0.603-0.732l0.83,0.457
			c0.331,0.183,0.663,0.362,0.994,0.542c2.699,1.462,5.265,2.852,6.314,5c0.078-1.925-0.347-5.913-3.053-9.034l-0.042-0.047
			l-0.002-0.063c-0.488-10.984-3.513-18.281-8.745-21.101l-0.833-0.449l0.94,0.109c1.386,0.16,2.645,0.241,3.742,0.241
			c1.252,0,2.001-0.107,2.354-0.177c-0.508-0.785-0.835-1.828-1.209-3.019c-0.957-3.05-2.149-6.846-7.169-9.356l-0.768-0.384
			l0.857,0.04c0.187,0.009,0.371,0.013,0.552,0.013c3.638,0,5.463-1.661,6.078-2.375c0.557-0.646,0.858-1.342,0.821-1.885
			c-5.105-2.344-7.548-7.816-10.132-13.608c-3.566-7.991-7.253-16.253-18.193-18.576l-0.82-0.174l0.818-0.181
			c4.502-0.996,7.532-4.075,8.464-5.133c-0.577,0.077-1.147,0.116-1.7,0.116c-4.557,0.001-7.563-2.542-10.471-5
			c-2.502-2.115-4.866-4.113-7.956-4.113c-2.558,0-5.425,1.391-8.766,4.252c-5.461,4.475-8.885,16.338-9.317,17.902
			c0.969,0.3,5.819,1.969,11.299,6.822c5.622,4.979,13.087,14.429,16.726,31.174c0.564,2.76,1.116,5.554,1.649,8.257
			c4.79,24.275,9.315,47.204,25.029,56.923l0.054,0.052c1.743,2.539,4.152,3.721,7.584,3.721h0.001c1.516,0,3.069-0.214,4.572-0.422
			C403.726,201.572,405.081,201.385,406.346,201.385z"/>
	</g>
	<g>
		<path fill="#2A150B" d="M389.33,174.767c-0.025-0.049-2.706-4.949-9.109-7.913c-6.522-3.02-13.898-18.055-14.209-18.693
			l0.327-0.159c0.075,0.155,7.63,15.558,14.035,18.523C386.893,169.542,389.33,174.767,389.33,174.767z"/>
	</g>
	<g>
		<path fill="#2A150B" d="M362.585,116.411c-6.667-10.715-15.216-13.301-15.301-13.326l0.102-0.349
			c0.087,0.025,8.769,2.651,15.508,13.483c6.987,11.229,10.727,15.455,14.29,16.144C377.184,132.363,372.23,133.192,362.585,116.411
			z"/>
	</g>
	<g>
		<path fill="#2A150B" d="M359.4,100.257c-4.595-1.896-7.154-1.955-10.117-2.024c-3.25-0.075-6.933-0.161-14.188-2.695l0.12-0.343
			c7.201,2.516,10.854,2.6,14.077,2.675C356.564,98.182,359.4,100.257,359.4,100.257z"/>
	</g>
	<g>
		<path fill="#9D5127" d="M328.834,219.989c0,0-17.836,2.16-39.191-2.018c-1.556,2.905-5.552,21.251-1.738,30.515
			c1.271,3.088,7.992,5.631,3.451,10.353c2.543,2.544,13.078,5.269,5.086,20.707c-5.812,9.445-13.986,19.617-16.892-2.906
			c-2.18-4.904-0.182-10.171-1.816-11.624s-6.539-4.36-3.451-15.44c1.635-7.81,3.451-33.42,3.451-34.51
			c-2.361-3.27-2.725-7.084,1.816-10.353c3.632-2.544,8.174-1.09,8.174-1.09c6.403-1.286,37.81-9.086,37.81-9.086L328.834,219.989z"
			/>
		<path fill="#A95B27" d="M283.909,262.835c7.319-3.867,1.642-9.187-0.397-18.952c-1.88-9.003,1.975-23.894,5.847-29.726
			c9.082,3.632,23.872,0.679,27.608-1.816c3.088-2.725,3.729-13.217,4.791-16.869c-8.542,2.11-29.004,7.141-34.034,8.151
			c0,0-4.542-1.454-8.174,1.09c-4.541,3.269-4.178,7.083-1.816,10.353c0,1.09,0.332,26.337-1.304,34.148
			C273.396,260.099,279.364,265.075,283.909,262.835z"/>
		<path fill="#4F2914" d="M285.909,290.412c-3.203,0-5.341-4.488-6.536-13.723c-1.178-2.668-1.141-5.42-1.111-7.634
			c0.024-1.837,0.044-3.289-0.649-3.904c-0.126-0.113-0.273-0.234-0.434-0.367c-1.931-1.601-5.949-4.931-3.072-15.257
			c1.624-7.761,3.39-32.805,3.443-34.406c-1.374-1.921-1.924-3.798-1.634-5.582c0.296-1.83,1.483-3.504,3.527-4.975
			c1.458-1.02,3.217-1.537,5.231-1.537c1.601,0,2.807,0.333,3.058,0.408c6.425-1.297,37.444-8.998,37.757-9.075l0.198-0.049
			l3.35,25.837l-0.182,0.022c-0.046,0.005-4.705,0.559-11.968,0.559c-9.172,0-18.556-0.883-27.145-2.553
			c-1.595,3.251-5.416,21.143-1.669,30.241c0.378,0.918,1.263,1.793,2.2,2.72c2.072,2.051,4.418,4.371,1.34,7.696
			c0.417,0.38,1.016,0.775,1.698,1.225c3.741,2.472,10.005,6.606,3.292,19.571C293.751,284.265,289.548,290.411,285.909,290.412z
			 M284.675,203.391c-1.938,0-3.627,0.494-5.021,1.47c-1.961,1.412-3.099,3.006-3.379,4.738c-0.275,1.7,0.265,3.504,1.606,5.361
			l0.034,0.047v0.059c0,0.888-1.799,26.64-3.455,34.548c-2.817,10.111,1.079,13.34,2.951,14.892c0.164,0.136,0.313,0.26,0.443,0.375
			c0.817,0.726,0.797,2.251,0.771,4.181c-0.03,2.185-0.066,4.903,1.091,7.505l0.014,0.051c1.15,8.914,3.229,13.433,6.179,13.432
			c3.458,0,7.579-6.048,10.378-10.597c6.555-12.664,0.463-16.687-3.177-19.089c-0.772-0.511-1.438-0.95-1.882-1.395l-0.126-0.126
			l0.124-0.128c3.017-3.139,0.869-5.263-1.208-7.319c-0.964-0.953-1.874-1.854-2.28-2.839c-3.834-9.312,0.173-27.734,1.746-30.67
			l0.063-0.119l0.132,0.026c8.603,1.683,18.012,2.573,27.209,2.573c6.437,0,10.818-0.437,11.743-0.537l-3.25-25.067
			c-2.684,0.666-31.552,7.82-37.621,9.038l-0.046,0.01l-0.045-0.014C287.655,203.791,286.38,203.391,284.675,203.391z"/>
	</g>
	<g>
		<path fill="#9D5127" d="M400.52,297.831c0,0-8.719,7.266-5.328,13.804c1.938,4.117-6.274,6.845-11.625,8.962
			c-5.812,2.3-17.921,9.444-23.249,19.858c-1.938,3.391,1.937,8.84-5.812,8.84c0.605,3.995,1.816,9.566-7.266,9.688
			s-25.792-2.544-25.914-5.813c0.363-2.905,9.203-9.324,11.867-11.019c3.754-2.482,8.719-12.957,16.832-12.957
			c4.723-2.422,23.855-17.195,23.371-21.675c-2.422-2.059-21.159-22.863-19.177-33.471
			C366.009,282.331,400.52,297.831,400.52,297.831z"/>
		<path fill="#A95B27" d="M373.032,291.654c1.265,3.003,2.008,4.459-0.121,6.056c-1.192,1.021-2.783,1.165-4.511,0.88
			c3.553,3.591,6.591,6.223,7.417,6.926c3.933,2.837-18.505,21.498-23.228,23.919c-0.884,0-11.525,2.423-8.638,10.415
			c1.453,4.359,8.92,5.934,11.146,2.083c5.904-9.106,16.109-18.709,29.908-26.665C393.348,309.518,388.289,303.643,373.032,291.654z
			"/>
		<path fill="#4F2914" d="M346.632,359.168c-8.649,0-25.36-2.53-25.488-5.991c0.399-3.213,10.064-9.979,11.951-11.181
			c1.153-0.762,2.431-2.305,3.91-4.09c3.273-3.953,7.346-8.868,12.975-8.894c5.016-2.598,23.504-16.991,23.24-21.405
			c-3.182-2.768-21.118-23.227-19.181-33.593l0.052-0.278l0.231,0.163c11.642,8.179,45.926,23.611,46.271,23.766l0.266,0.119
			l-0.224,0.187c-0.086,0.072-8.566,7.248-5.283,13.581c0.375,0.797,0.409,1.586,0.104,2.351c-1.078,2.693-6.241,4.695-10.391,6.304
			c-0.493,0.191-0.973,0.378-1.431,0.559c-5.655,2.238-17.771,9.251-23.155,19.772c-0.626,1.097-0.626,2.429-0.626,3.717
			c0,1.351,0,2.627-0.678,3.605c-0.741,1.07-2.161,1.586-4.458,1.616l0.037,0.239c0.363,2.346,0.815,5.265-0.84,7.221
			c-1.23,1.456-3.413,2.185-6.671,2.228C347.043,359.166,346.839,359.168,346.632,359.168z M350.024,329.375
			c-5.481,0-9.505,4.859-12.739,8.763c-1.498,1.808-2.791,3.37-3.992,4.163c-2.905,1.85-11.44,8.114-11.787,10.892
			c0.112,2.976,15.739,5.612,25.126,5.612c0.205,0,0.407-0.002,0.605-0.005c3.147-0.042,5.24-0.728,6.399-2.099
			c1.548-1.83,1.128-4.54,0.758-6.931l-0.101-0.657h0.211c2.292,0,3.682-0.464,4.371-1.46c0.614-0.886,0.614-2.107,0.614-3.399
			c0-1.336,0-2.718,0.669-3.89c5.429-10.61,17.642-17.682,23.34-19.937c0.46-0.183,0.941-0.368,1.434-0.56
			c4.084-1.583,9.166-3.554,10.185-6.1c0.271-0.679,0.241-1.35-0.091-2.056c-3.11-5.997,3.827-12.637,5.16-13.832
			c-3.172-1.434-34.499-15.662-45.838-23.52c-1.552,10.372,16.195,30.495,19.164,33.019l0.055,0.047l0.008,0.071
			c0.517,4.779-19.095,19.614-23.469,21.857l-0.039,0.02H350.024z"/>
	</g>
	<g>
		<path fill="#9D5127" d="M325.055,157.123c0,0,3.003,4.775,0,20.551c-3.002,15.776-7.41,36.604,3.755,49.923
			c2.688,14.786,28.878,77.951,91.54,74.136c17.437-0.544,27.244-51.219,3.269-62.116c-20.704-10.353-28.911-27.277-32.06-32.604
			c-0.242-4.602-2.179-17.074-13.804-26.096c-4.117-10.958-7.265-27.255-10.171-42.84c-2.906-15.586-9.93-36.898-30.636-45.132
			C334.072,100.815,325.055,157.123,325.055,157.123z"/>
		<path fill="#A95B27" d="M325.055,157.123c0,0,3.003,4.775,0,20.551c-3.002,15.776-3.911,33.213,10.1,52.831
			c2.688,14.784,21.115,51.826,77.758,49.815c17.436-0.544,34.681-29.806,10.705-40.703c-20.704-10.353-28.911-27.277-32.06-32.604
			c-0.242-4.602-2.179-17.074-13.804-26.096c-4.117-10.958-7.265-27.255-10.171-42.84c-2.906-15.586-9.93-36.898-30.636-45.132
			C334.072,100.815,325.055,157.123,325.055,157.123z"/>
		<path fill="#A96A33" d="M423.618,239.617c-20.704-10.353-28.911-27.277-32.06-32.604c-0.242-4.602-2.179-17.074-13.804-26.096
			c-4.117-10.958-7.265-27.255-10.171-42.84c-2.906-15.586-9.93-36.898-30.636-45.132c-1.502,4.113-4.682,21.455-7.376,37.075
			c4.914,2.615,11.04,4.275,16.128,6.819c1.584,12.17-4.03,20.912-6.209,24.545c-8.719,13.804-11.925,18.788-12.651,34.409
			c-0.363,9.082,2.504,16.063,8.316,23.328c1.09,1.091,5.73,33.422,38.857,39.718c18.516-21.553,42.033-12.901,60.827-2.308
			C436.718,250.801,434.132,244.396,423.618,239.617z"/>
		<path fill="#4F2914" d="M414.958,302.082c-0.003,0-0.004,0-0.006,0c-13.599-0.002-26.375-3.236-37.974-9.616
			c-9.656-5.311-18.504-12.786-26.297-22.22c-13.332-16.139-20.585-34.647-22.041-42.568c-10.847-12.986-7.071-32.731-4.038-48.6
			l0.274-1.438c2.948-15.486,0.054-20.373,0.024-20.42l-0.036-0.058l0.01-0.067c0.09-0.563,9.052-56.415,11.9-64.212l0.064-0.175
			l0.173,0.069c9.262,3.683,16.692,10.375,22.084,19.889c3.942,6.956,6.776,15.257,8.664,25.379
			c3.069,16.462,6.156,32.121,10.145,42.762c12.003,9.341,13.623,22.319,13.832,26.154c0.264,0.447,0.562,0.974,0.899,1.57
			c3.644,6.428,12.174,21.48,31.062,30.926c13.438,6.107,16.346,24.367,13.264,39.753c-2.226,11.114-8.226,22.445-16.609,22.708
			C418.552,302.025,416.732,302.082,414.958,302.082z M325.245,157.087c0.351,0.623,2.828,5.705-0.011,20.621l-0.274,1.437
			c-3.022,15.809-6.783,35.483,3.99,48.336l0.031,0.036l0.008,0.048c1.429,7.857,8.657,26.331,21.973,42.449
			c11.947,14.462,32.747,31.702,63.991,31.703c0.002,0,0.003,0,0.006,0c1.769,0,3.578-0.056,5.381-0.165
			c8.189-0.256,14.07-11.442,16.269-22.416c3.054-15.244,0.198-33.325-13.063-39.354c-18.994-9.497-27.562-24.618-31.221-31.075
			c-0.347-0.612-0.652-1.149-0.921-1.604l-0.021-0.039l-0.003-0.044c-0.197-3.743-1.77-16.676-13.734-25.961l-0.041-0.032
			l-0.018-0.047c-4.008-10.669-7.103-26.368-10.18-42.871c-4.375-23.463-14.585-38.577-30.35-44.927
			C334.196,101.45,325.595,154.906,325.245,157.087z"/>
	</g>
	<g>
		<path fill="#4F2914" d="M341.85,170.383c-0.827-7.517-1.296-17.44-0.689-29.969l0.363,0.018
			c-1.613,33.314,4.389,48.133,4.45,48.279C345.973,188.711,343.228,182.913,341.85,170.383z"/>
	</g>
	<g>
		<path fill="#542A15" d="M441.812,258.355c0,0,4.655-4.846,7.871-7.266c3.693-2.778,13.198-3.391,9.324,10.535
			c-3.875,13.925-5.934,22.28-5.207,29.667s2.846,21.493,17.739,27.306c6.721,3.814,16.711,7.58,27.791,0
			c10.354-6.176,9.99-22.467,16.893-10.416c1.635-6.477-4.723-21.188-17.256-15.376c-2.725,1.09-10.535-1.065-7.811-9.888
			c2.725-8.821,5.268-24.079,4.359-27.349c1.09-3.269,6.539-30.695-12.896-38.506c-13.259-4.178-28.335,0.362-32.694,14.712
			c-4.359,12.896-6.562,18.971-10.172,21.252C439.936,255.389,441.812,258.355,441.812,258.355z"/>
		<path fill="#5E3115" d="M501.441,300.419c3.826-3.498,7.334-4.162,10.482-3.921c-7.266-7.386-9.808-1.412-20.223,0.242
			c-13.804,1.897-13.587-12.229-13.587-12.229c1.693,3.003,2.205,12.905,15.161,9.324c-8.96-3.27-6.863-11.326-5.955-12.961
			c6.176-10.898,5.909-27.733,1.913-38.995c-2.906-8.355-12.79-12.463-23.324-16.824c5.448-3.632,21.411,0.038,26.519,11.09
			c0-16.155-11.714-19.806-18.367-20.548c-10.611-0.341-20.7,4.872-24.136,16.179c-4.359,12.896-6.562,18.971-10.172,21.252
			c0.183,2.361,2.059,5.328,2.059,5.328s4.655-4.846,7.871-7.266c3.693-2.778,13.198-3.391,9.324,10.535
			c-3.875,13.925-5.934,22.28-5.207,29.667c0.017,0.17,0.035,0.348,0.054,0.525c0.799,2.366,0.673,8.602,6.364,8.602
			c1.09-0.362-1.938-9.248-1.574-11.791c6.176,14.894,11.988,36.946,36.691,28.349c4.34-1.51,7.628-7.642,8.718-12.364
			c-4.723,3.632-9.007,4.238-14.819,2.785c-2.18-0.363-4.556-1.575-5.645-3.755c-0.313-0.547-0.617-1.063-0.914-1.562
			c0,0,0,0.001,0.001,0.001C491.45,305.969,498.454,303.523,501.441,300.419z"/>
		<path fill="#2A150B" d="M486.013,323.163c-4.637,0-9.265-1.4-14.563-4.407c-14.101-5.501-16.93-18.299-17.83-27.446
			c-0.745-7.58,1.472-16.29,5.213-29.733c1.294-4.648,1.188-8.145-0.303-10.108c-1.128-1.483-2.786-1.795-3.979-1.795
			c-1.654,0-3.478,0.599-4.757,1.562c-3.169,2.384-7.804,7.197-7.851,7.246l-0.159,0.167l-0.125-0.196
			c-0.077-0.122-1.903-3.032-2.086-5.411l-0.008-0.109l0.092-0.059c3.586-2.266,5.807-8.466,10.097-21.155
			c3.059-10.066,12.001-16.323,23.336-16.323c3.212,0,6.437,0.503,9.586,1.495c10.293,4.137,13.44,13.762,14.27,21.109
			c0.95,8.411-0.735,16.008-1.239,17.576c0.899,3.497-1.782,19.001-4.375,27.396c-0.914,2.961-0.696,5.478,0.632,7.276
			c1.436,1.945,3.82,2.636,5.427,2.636c0.584,0,1.106-0.085,1.511-0.246c1.92-0.892,3.801-1.346,5.582-1.346
			c4.197,0,6.994,2.46,8.602,4.524c2.776,3.563,4.201,8.898,3.315,12.41l-0.11,0.437l-0.224-0.391
			c-1.655-2.892-2.938-4.237-4.037-4.237c-1.33,0-2.479,2.006-3.935,4.544c-1.941,3.387-4.357,7.603-8.67,10.175
			C495.15,321.678,490.635,323.163,486.013,323.163z M454.55,249.31c1.275,0,3.051,0.336,4.269,1.938
			c1.585,2.087,1.707,5.595,0.363,10.426c-3.729,13.402-5.94,22.083-5.201,29.6c0.891,9.053,3.687,21.716,17.625,27.155
			c5.265,2.986,9.835,4.371,14.407,4.371c4.548,0,8.993-1.464,13.215-4.353c4.241-2.529,6.63-6.698,8.551-10.049
			c1.572-2.744,2.708-4.726,4.249-4.726c1.203,0,2.48,1.241,4.117,4.015c0.641-3.407-0.751-8.313-3.349-11.649
			c-1.557-1.999-4.264-4.382-8.314-4.382c-1.728,0-3.558,0.442-5.438,1.314c-0.455,0.182-1.024,0.276-1.654,0.276
			c-1.691,0.001-4.203-0.729-5.72-2.783c-1.398-1.896-1.636-4.524-0.687-7.599c2.817-9.12,5.22-24.145,4.358-27.246l-0.016-0.054
			l0.019-0.053c0.477-1.43,2.194-9.029,1.24-17.473c-0.819-7.249-3.918-16.744-14.032-20.808c-3.101-0.978-6.289-1.475-9.463-1.475
			c-11.169,0-19.979,6.158-22.99,16.07c-4.282,12.67-6.52,18.914-10.155,21.292c0.189,1.924,1.496,4.254,1.902,4.939
			c0.856-0.882,4.877-4.97,7.728-7.114C450.914,249.937,452.821,249.31,454.55,249.31z"/>
	</g>
	<g>
		<path fill="#9D5127" d="M345.699,136.839c0,0,1.541,16.167-20.982,24.885c-2.422,6.539-3.875,9.687-4.117,11.382
			c1.211,4.117,3.148,16.953-9.688,21.312c-9.203,3.148-14.046,0.484-14.289-13.32c5.086-37.538-27.638-40.749-12.109-69.264
			c13.775-25.25,40.687-26.64,56.914-19.132L345.699,136.839z"/>
		<path fill="#A95B27" d="M345.699,136.839c0,0-2.312,16.834-24.835,25.553c0.551,2.632-0.9,6.174-2.133,7.595
			c1.211,4.117,3.806,17.188-9.03,21.546c-9.203,3.149-9.163-0.055-9.405-13.859c5.085-37.539-32.371-34.798-15.782-65.839
			c13.775-25.25,40.687-26.64,56.914-19.132L345.699,136.839z"/>
		<path fill="#A96A33" d="M345.699,136.839c0,0,3.977-7.901,2.264-24.944c-1.383-13.768-6.536-19.193-6.536-19.193
			c-16.227-7.508-43.138-6.117-56.914,19.132c-3.846,7.062-4.504,12.36-3.399,16.908c7.964-0.175,9.13,8.148,9.824,15.73
			c5.845,7.546,11.586,16.747,9.357,33.201c8.02-9.736,11.401-11.877,12.529-11.106c0.405,1.332,3.556,11.053-1.046,20.853
			c8.162-3.796,6.035-15.525,4.824-19.642c1.232-1.421,1.999-5.36,1.448-7.992C340.574,151.069,345.699,136.839,345.699,136.839z"/>
		<path fill="#A95B27" d="M287.068,128.969c0,0,16.02,2.147,18.972-8.188c9.451-2.627,4.54-25.979,17.496-23.055
			c2.52-2.052,3.272-6.9,3.272-6.9s-15.916-5.727-19.431,14.079C303.163,121.704,295.675,127.516,287.068,128.969z"/>
		<path fill="#4F2914" d="M304.957,195.793c-1.696,0-3.091-0.405-4.246-1.215c-2.786-1.955-4.143-6.237-4.27-13.476
			c2.436-17.994-3.787-28.011-9.277-36.849c-5.865-9.441-10.931-17.594-2.81-32.505c7.894-14.47,19.395-19.917,27.653-21.939
			c9.807-2.401,20.557-1.406,29.496,2.729l-0.153,0.33c-17.915-8.289-43.866-4.428-56.677,19.054
			c-8.019,14.725-3.006,22.795,2.799,32.139c5.523,8.89,11.782,18.966,9.331,37.062c0.125,6.989,1.471,11.301,4.116,13.158
			c2.2,1.543,5.356,1.532,9.934-0.033c13.939-4.735,10.06-19.43,9.572-21.09l-0.011-0.038l0.006-0.04
			c0.16-1.118,0.829-2.838,1.938-5.688c0.595-1.527,1.335-3.429,2.188-5.732l0.028-0.077l0.077-0.029
			c11.567-4.478,16.647-11.102,18.873-15.872c2.411-5.167,2.085-9.331,2.082-9.373c0,0,0.701,4.255-1.743,9.506
			c-2.246,4.826-7.367,11.522-19.003,16.047c-0.842,2.271-1.573,4.149-2.162,5.661c-1.086,2.792-1.748,4.49-1.912,5.569
			c0.543,1.87,4.344,16.689-9.814,21.497C308.629,195.392,306.644,195.793,304.957,195.793z"/>
	</g>
	<g>
		<path fill="#4F2914" d="M320.708,174.244c-0.447-2.707-2.635-4.86-2.657-4.882c0,0,2.549,1.996,3.015,4.823L320.708,174.244z"/>
	</g>
	<g>
		<path fill="#4F2914" d="M320.864,162.392c0.029-0.004,2.925-0.384,5.193-1.407l0.149,0.332
			C323.888,162.361,320.864,162.392,320.864,162.392z"/>
	</g>
	<g>
		<path fill="#6B0800" d="M311.155,166.568c0,0,5.086,19.435-5.449,23.794c-4.287,1.998-3.996-7.993-3.996-9.264
			C304.797,175.287,311.155,166.568,311.155,166.568z"/>
		<g>
			<g>
				<path fill="#F36962" d="M311.155,166.568c0,0-5.495,7.537-8.749,13.267c1.417,5.652,3.999,7.986,5.853,8.945
					C315.337,182.553,311.155,166.568,311.155,166.568z"/>
				<path fill="#F58983" d="M310.064,177.83c-0.544-1.59-3.906,4.599-6.722,4.917c1.194,2.956,2.741,4.609,4.085,5.533
					C309.936,185.503,311.423,181.362,310.064,177.83z"/>
				<path fill="#A12A22" d="M308.285,188.999l-0.11-0.058c-1.926-0.995-4.52-3.376-5.945-9.062l-0.018-0.071l0.036-0.062
					c3.221-5.674,8.705-13.209,8.76-13.285l0.226-0.309l0.097,0.371c0.042,0.161,4.129,16.165-2.952,22.395L308.285,188.999z
					 M302.6,179.862c1.368,5.394,3.793,7.708,5.632,8.699c6.19-5.604,3.405-19.125,2.839-21.566
					C309.998,168.483,305.437,174.879,302.6,179.862z"/>
			</g>
		</g>
		<path fill="#4F2914" d="M304.652,190.808c-0.519,0-0.983-0.203-1.379-0.602c-1.197-1.207-1.784-4.193-1.746-8.874l0.001-0.278
			l0.021-0.04c3.059-5.757,9.395-14.466,9.459-14.553l0.226-0.309l0.097,0.371c0.052,0.195,5.004,19.639-5.555,24.008
			C305.383,190.713,305.003,190.808,304.652,190.808z M301.891,181.145l-0.001,0.19c-0.046,5.706,0.867,7.834,1.641,8.615
			c0.561,0.566,1.248,0.645,2.098,0.248c9.469-3.918,6.074-20.474,5.442-23.204C309.904,168.614,304.612,176.036,301.891,181.145z"
			/>
	</g>
	<g>
		<path d="M284.384,186.897c-1.74-0.732-3.091-2.103-3.147-2.161l0.26-0.254c0.013,0.014,1.358,1.377,3.028,2.08L284.384,186.897z"
			/>
	</g>
	<g>
		<path fill="#A95B27" d="M281.851,183.642c0,0-8.658,0.795-10.716-8.304c-1.09-5.588,5.267-8.832,6.72-8.195
			C278.339,170.564,281.851,183.642,281.851,183.642z"/>
		<path fill="#4F2914" d="M281.326,183.842c-1.983,0-8.592-0.611-10.369-8.464c-0.496-2.541,0.533-4.447,1.482-5.6
			c1.723-2.092,4.5-3.233,5.488-2.801l0.093,0.041l0.014,0.1c0.477,3.372,3.956,16.347,3.991,16.478l0.056,0.208l-0.215,0.02
			C281.859,183.824,281.663,183.842,281.326,183.842z M277.396,167.245c-1.154,0-3.27,1.057-4.676,2.764
			c-0.9,1.092-1.875,2.898-1.407,5.294c1.716,7.585,8.098,8.175,10.013,8.175c0.115,0,0.213-0.002,0.292-0.005
			c-0.454-1.7-3.428-12.896-3.926-16.195C277.608,167.256,277.509,167.245,277.396,167.245z"/>
	</g>
	<g>
		<path fill="#A95B27" d="M332.013,124.259c1.694,6.553-2.466,13.294-9.291,15.059s-9.891-0.187-13.729-2.118
			c-2.517-6.719-5.482-17.602,0.77-20.856C316.899,112.631,328.238,119.235,332.013,124.259z"/>
		<path fill="#FFFFFF" d="M328.493,127.194c1.422,5.504-2.071,11.167-7.803,12.648c-5.732,1.481-8.308-0.157-11.532-1.778
			c-2.114-5.644-4.605-14.785,0.647-17.518C315.799,117.428,325.322,122.976,328.493,127.194z"/>
		<path d="M316.59,140.604c-2.853,0-4.798-0.994-6.86-2.045c-0.216-0.11-0.434-0.221-0.654-0.333l-0.063-0.032l-0.025-0.066
			c-2.483-6.628-4.371-15.086,0.733-17.742c1.189-0.618,2.571-0.932,4.107-0.932c5.921,0,12.405,4.433,14.81,7.632l0.031,0.064
			c1.445,5.592-2.114,11.365-7.934,12.869C319.21,140.413,317.855,140.604,316.59,140.604z M309.303,137.934
			c0.2,0.1,0.396,0.201,0.592,0.301c2.021,1.031,3.93,2.005,6.695,2.005c1.234,0,2.56-0.188,4.054-0.574
			c5.614-1.451,9.054-7.004,7.682-12.392c-2.675-3.534-9.271-7.458-14.498-7.458c-1.478,0-2.803,0.3-3.94,0.891
			C305.037,123.232,306.884,131.453,309.303,137.934z"/>
	</g>
	<g>
		
			<ellipse transform="matrix(0.9395 -0.3425 0.3425 0.9395 -24.8419 116.9174)" fill="#3F8FFF" cx="318.579" cy="128.788" rx="6.198" ry="8.265"/>
		<path fill="#1F47A6" d="M319.771,137.021c-2.932,0-5.887-2.487-7.185-6.048c-1.595-4.375-0.204-8.915,3.101-10.12
			c0.542-0.198,1.115-0.298,1.702-0.298c2.932,0,5.887,2.487,7.185,6.048c1.595,4.376,0.204,8.916-3.101,10.12
			C320.93,136.921,320.357,137.021,319.771,137.021z M317.388,120.918c-0.544,0-1.075,0.093-1.577,0.276
			c-3.117,1.136-4.411,5.467-2.884,9.655c1.247,3.42,4.062,5.809,6.844,5.809c0.544,0,1.075-0.093,1.577-0.276
			c3.117-1.137,4.41-5.467,2.884-9.655C322.985,123.307,320.171,120.918,317.388,120.918z"/>
	</g>
	<g>
		
			<ellipse transform="matrix(0.8817 -0.4719 0.4719 0.8817 -31.1361 151.6446)" fill="#FFFFFF" cx="286.791" cy="137.904" rx="5.228" ry="8.174"/>
		<path d="M288.947,145.704c-2.463,0-5.246-2.109-6.926-5.248c-2.173-4.062-1.803-8.512,0.828-9.919
			c0.538-0.288,1.139-0.434,1.786-0.434c2.463,0,5.246,2.109,6.926,5.249c1.046,1.955,1.543,4.057,1.398,5.918
			c-0.147,1.891-0.938,3.312-2.226,4.001C290.195,145.558,289.594,145.704,288.947,145.704z M284.635,130.466
			c-0.586,0-1.13,0.132-1.615,0.391c-2.454,1.313-2.758,5.542-0.679,9.428c1.619,3.024,4.273,5.056,6.605,5.056
			c0.586,0,1.13-0.131,1.615-0.391c1.175-0.628,1.897-1.946,2.035-3.709c0.14-1.792-0.342-3.824-1.356-5.718
			C289.622,132.498,286.967,130.466,284.635,130.466z"/>
	</g>
	<g>
		
			<ellipse transform="matrix(0.9713 -0.2377 0.2377 0.9713 -24.5507 72.5456)" fill="#3F8FFF" cx="288.548" cy="138.077" rx="3.186" ry="4.879"/>
		<path fill="#1F47A6" d="M289.201,143.058c-1.681,0-3.332-1.758-3.924-4.181c-0.663-2.709,0.265-5.274,2.069-5.716
			c0.179-0.043,0.363-0.065,0.549-0.065c1.681,0,3.332,1.758,3.924,4.181c0.663,2.71-0.264,5.274-2.068,5.716
			C289.572,143.036,289.387,143.058,289.201,143.058z M287.895,133.458c-0.157,0-0.312,0.019-0.463,0.056
			c-1.609,0.394-2.417,2.761-1.802,5.276c0.544,2.226,2.08,3.904,3.571,3.904c0.157,0,0.312-0.019,0.463-0.056
			c1.61-0.394,2.417-2.761,1.802-5.277C290.922,135.137,289.387,133.458,287.895,133.458z"/>
	</g>
	<g>
		<ellipse transform="matrix(0.9254 -0.3791 0.3791 0.9254 -30.7954 119.7347)" cx="288.687" cy="138.077" rx="2.657" ry="3.581"/>
		<circle fill="#FFFFFF" cx="287.106" cy="136.858" r="1.161"/>
		<circle fill="#FFFFFF" cx="289.531" cy="136.042" r="0.629"/>
	</g>
	<g>
		<path d="M280.82,134.28c-4.237-1.185-4.453-4.441-4.453-4.441c0.694,3.209,4.493,4.077,4.531,4.086L280.82,134.28z"/>
	</g>
	<g>
		<path d="M281.188,134.706c-4.071,1.667-6.241-0.771-6.241-0.771c2.518,2.107,6.049,0.46,6.085,0.443L281.188,134.706z"/>
	</g>
	<g>
		<path fill="#542A15" d="M326.132,95.912c0,0-8.279-4.178-13.082,3.451c-4.802,7.628-2.804,17.136-9.888,21.373
			c-2.18,4.964-6.196,8.597-16.085,8.052c3.916-1.454,8.653-4.36,1.471-10.717c-5.366-3.602-18.683-18.708-3.306-37.961
			c9.928-11.443,16.858-12.17,16.858-12.17c-2.389-0.868-4.75-3.27-4.75-3.27c2.543,0.545,19.284-4.359,23.537-1.998
			c-1.377-1.998-3.144-3.451-3.144-3.451c2.493-0.545,13.754-1.089,19.203,10.717C336.765,76.839,326.132,95.912,326.132,95.912z"/>
		<path fill="#5E3115" d="M317.744,59.221c0,0,1.766,1.454,3.144,3.451c-4.253-2.361-20.994,2.543-23.537,1.998
			c0,0,2.361,2.401,4.75,3.27c0,0-6.93,0.727-16.858,12.17c-15.377,19.253-2.06,34.359,3.306,37.961
			c7.182,6.357,2.445,9.264-1.471,10.717c0.377,0.021,0.743,0.033,1.103,0.042c5.567-0.969,10.675-3.991,10.986-10.214
			c0.363-5.086-0.727-10.172-1.816-15.258c1.816,3.27,3.996,6.176,6.539,8.719c1.089-8.355,4.359-18.527,14.167-18.891
			c-2.543-4.722-9.99-0.183-12.896-3.089c-1.453-1.453,5.311-4.866,6.764-5.229c9.082-1.09,13.397-2.943,18.483-10.208
			c2.041-2.916,2.91-6.241,3.292-9.764C327.889,58.325,319.809,58.77,317.744,59.221z"/>
		<path fill="#2A150B" d="M288.98,129.023c-0.614,0-1.257-0.018-1.913-0.055l-0.872-0.047l0.818-0.304
			c3.073-1.141,4.715-2.496,5.023-4.144c0.327-1.749-0.888-3.857-3.61-6.267c-2.966-1.989-8.96-8.041-10.278-16.6
			c-1.106-7.181,1.232-14.452,6.951-21.611c8.297-9.563,14.445-11.675,16.361-12.123c-2.182-0.997-4.151-2.984-4.241-3.076
			l-0.425-0.432l0.593,0.127c0.119,0.026,0.282,0.039,0.485,0.039c1.213,0,3.676-0.458,6.528-0.989
			c4.071-0.757,9.137-1.699,12.741-1.699c1.365,0,2.422,0.131,3.208,0.398c-1.271-1.677-2.708-2.867-2.724-2.88l-0.289-0.238
			l0.365-0.08c0.321-0.07,1.22-0.233,2.635-0.233c3.509,0,12.168,1.077,16.772,11.051l0.018,0.039l-0.001,0.042
			C336.948,76.81,326.726,95.22,326.291,96l-0.085,0.152l-0.155-0.078c-0.022-0.011-2.26-1.122-5.026-1.122
			c-3.306,0-5.937,1.517-7.82,4.508c-1.964,3.119-2.776,6.534-3.562,9.835c-1.105,4.645-2.149,9.032-6.337,11.567
			C300.807,126.506,296.386,129.023,288.98,129.023z M287.939,128.644c0.354,0.011,0.702,0.017,1.041,0.017
			c9.311,0,12.381-4.274,14.016-7.997l0.023-0.053l0.05-0.03c4.099-2.451,5.129-6.783,6.22-11.369
			c0.792-3.331,1.612-6.775,3.607-9.945c1.927-3.06,4.737-4.678,8.127-4.678c2.461,0,4.464,0.827,5.031,1.085
			c0.99-1.795,10.498-19.206,10.708-25.699c-4.52-9.747-12.99-10.801-16.424-10.801c-0.791,0-1.58,0.057-2.194,0.156
			c0.562,0.503,1.845,1.721,2.891,3.239l0.44,0.638l-0.678-0.376c-0.746-0.414-1.976-0.624-3.656-0.624
			c-3.571,0-8.619,0.939-12.674,1.693c-2.891,0.537-5.395,0.994-6.622,0.994c0.75,0.694,2.537,2.229,4.315,2.875l0.736,0.268
			l-0.779,0.084c-0.069,0.007-6.987,0.867-16.74,12.108c-5.647,7.071-7.96,14.247-6.87,21.324
			c1.299,8.435,7.201,14.395,10.14,16.369c2.843,2.515,4.097,4.737,3.745,6.621C292.09,126.17,290.63,127.517,287.939,128.644z"/>
	</g>
	<g>
		<path fill="#2A150B" d="M303.338,120.781l-0.352-0.09c1.234-4.82-2.651-9.723-2.69-9.772
			C300.296,110.919,304.618,115.787,303.338,120.781z"/>
	</g>
	<g>
		<path fill="#2A150B" d="M325.981,96.013c-8.621-12.787-18.284-7.2-18.38-7.142c0,0,9.87-6.13,18.682,6.939L325.981,96.013z"/>
	</g>
	<g>
		<path fill="#2A150B" d="M312.018,69.25c-3.086-1.651-9.835-1.134-9.903-1.13l-0.029-0.362
			C310.247,67.128,312.018,69.25,312.018,69.25z"/>
	</g>
	<g>
		<path fill="#2A150B" d="M324.869,66.513c-0.63-1.162-4.054-3.668-4.089-3.694l0.214-0.293
			C325.141,65.851,324.869,66.513,324.869,66.513z"/>
	</g>
	<g>
		<path fill="#2A150B" d="M288.387,118.154c-8.258-19.034,2.152-22.63,2.152-22.63c-10.145,5.898-1.914,22.3-1.829,22.465
			L288.387,118.154z"/>
	</g>
	<g>
		<path fill="#9D5127" d="M319.396,98.616c0,0,3.645-2.705,3.562-12.332c-0.076-8.97,3.212-19.496,18.711-28.214
			c6.781-3.997,10.777-7.917,8.477,9.785c0.242,9.105-0.424,27.339-21.282,35.334L319.396,98.616z"/>
		<path fill="#A95B27" d="M319.396,98.616c0,0,3.645-2.705,3.562-12.332c-0.076-8.97,3.212-19.496,18.711-28.214
			c6.781-3.997,9.13-4.36,6.722,9.571c0.243,9.104,1.558,24.082-19.527,35.548L319.396,98.616z"/>
		<path fill="#A96A33" d="M345.721,60.719c5.079-3.448-0.47-4.76-4.052-2.648c-15.5,8.718-18.788,19.244-18.711,28.214
			c0.083,9.627-3.562,12.332-3.562,12.332s0,2.987,3.615,4.574c2.976,1.307,5.285,0.29,5.759,0.05
			C336.181,98.422,322.826,70.18,345.721,60.719z"/>
		<path fill="#4F2914" d="M328.742,103.19c19.654-7.916,21.525-23.954,21.222-35.329c1.028-7.924,0.853-11.858-0.568-12.781
			c-1.186-0.77-3.307,0.522-5.993,2.158c-0.526,0.321-1.074,0.655-1.642,0.989c-12.632,7.106-18.723,16.282-18.622,28.056
			c0.034,3.943-0.528,6.754-1.212,8.708c-0.982,2.804-2.532,3.625-2.532,3.625c0.035-0.028,3.461-2.926,3.381-12.33
			c-0.102-11.918,6.049-21.2,18.804-28.375c0.563-0.331,1.109-0.665,1.634-0.984c2.795-1.703,5.003-3.047,6.379-2.153
			c1.574,1.023,1.793,4.942,0.732,13.104c0.284,10.604-1.316,25.268-17.311,33.734C331.731,102.293,328.742,103.19,328.742,103.19z"
			/>
	</g>
	<g>
		<path fill="#FF5E53" d="M327.018,100.815c0,0,4.359-2.741,4.723-13.419c0.363-10.678,0.605-20.002,15.257-25.451
			C347.119,67.071,353.597,90.826,327.018,100.815z"/>
		<path fill="#FF7C73" d="M346.998,61.946c-4.77,1.773-8.011,3.958-10.229,6.467c2.276-0.119,4.524,0.758,5.264,2.978
			c1.09,4.723-1.09,7.992-4.722,11.261c-1.09,1.453-1.09,3.27-0.364,4.723c0.704,1.876,3.072,2.842,5.347,2.706
			C350.502,79.133,347.085,65.657,346.998,61.946z"/>
		<path fill="#FF8E86" d="M346.998,61.946c-4.331,1.61-7.398,3.56-9.586,5.783c2.983-0.382,5.993-0.487,6.801,2.209
			c1.816,5.449-3.27,10.172-2.543,15.257c0.188,1.127,1.058,1.96,2.205,2.505C350.024,77.257,347.079,65.392,346.998,61.946z"/>
		<path fill="#C73D30" d="M325.439,101.603l1.481-0.941c0.042-0.027,4.283-2.838,4.638-13.272l0.005-0.165
			c0.365-10.725,0.68-19.987,15.37-25.45l0.239-0.089l0.006,0.254c0.014,0.59,0.113,1.428,0.238,2.489
			c0.483,4.082,1.291,10.914-0.959,17.942c-2.737,8.547-9.256,14.81-19.376,18.614L325.439,101.603z M346.826,62.204
			c-14.231,5.39-14.541,14.497-14.899,25.034l-0.006,0.165c-0.27,7.934-2.705,11.512-4.004,12.869
			c22.316-8.934,20.095-27.715,19.139-35.799C346.947,63.544,346.857,62.785,346.826,62.204z"/>
	</g>
	<g>
		<path fill="#C73D30" d="M346.735,62.238l-0.143-0.334c0.02-0.008,3.356-1.185,3.356-1.185
			C348.897,61.08,346.755,62.229,346.735,62.238z"/>
	</g>
	<g>
		<path fill="#2A150B" d="M399.662,193.889c-7.377,0-10.012-7.065-10.012-7.065c4.703,8.6,12.074,6.478,12.148,6.454l0.105,0.348
			C401.879,193.634,401,193.889,399.662,193.889z"/>
	</g>
	<g>
		<path fill="#2A150B" d="M397.135,202.511c-0.909,0-1.481-0.111-1.5-0.114l0.072-0.356c0.057,0.011,5.645,1.079,9.761-3.743
			C405.468,198.297,402.881,202.511,397.135,202.511z"/>
	</g>
	<g>
		<path fill="#2A150B" d="M392.45,162.025c-12.153-5.871-15.13-14.652-15.13-14.652c4.976,9.265,15.165,14.266,15.286,14.324
			L392.45,162.025z"/>
	</g>
	<g>
		<path fill="#2A150B" d="M386.47,124.412c-6.305,0-14.669-5.947-14.669-5.947c0.1,0.066,10.067,6.633,16.335,5.436l0.068,0.357
			C387.649,124.363,387.066,124.412,386.47,124.412z"/>
	</g>
	<g>
		<path fill="#2A150B" d="M360.985,88.272c0,0,3.066-1.484,5.227-0.815l-0.107,0.347C364.061,87.172,361.016,88.261,360.985,88.272z
			"/>
	</g>
	<g>
		<g>
			<path fill="#2E0200" d="M279.566,276.765c2.921,22.357,11.074,12.209,16.875,2.781c5.463-10.554,2.269-15.165-1.112-17.841
				C289.487,273.462,283.041,276.203,279.566,276.765z"/>
			<path fill="#4D0200" d="M289.678,270.415c-3.996,4.569-7.744,5.967-10.111,6.35c1.833,14.032,5.729,15.259,9.809,11.896
				C291.603,282.718,292.086,276.152,289.678,270.415z"/>
			<path fill="#946766" d="M279.566,276.765c1.225,9.372,3.369,13.027,5.874,13.422c-2.937-2.906-4.125-9.866-4.581-13.71
				C280.395,276.605,279.96,276.7,279.566,276.765z"/>
			<path fill="#0D0D0D" d="M285.91,290.41L285.91,290.41c-3.192,0-5.326-4.456-6.523-13.623l-0.023-0.174l0.174-0.028
				c3.327-0.537,9.782-3.194,15.629-14.96l0.1-0.2l0.176,0.138c3.202,2.533,6.805,7.162,1.16,18.066
				C293.752,284.264,289.549,290.41,285.91,290.41z M279.77,276.914c1.158,8.714,3.224,13.134,6.14,13.134
				c3.458,0,7.579-6.048,10.378-10.597c5.412-10.455,2.158-14.979-0.895-17.464C289.598,273.529,283.193,276.306,279.77,276.914z"/>
		</g>
	</g>
	<g>
		<path fill="#9D5127" d="M362.088,221.615c0,0,5.253,11.795-20.903,16.154c-22.281,3.633-29.628,6.781-28.134,8.961
			c1.495,2.18,22.322,20.827,26.197,21.555c3.875,0.726,6.055-1.938,8.719,3.391c3.148,2.664,12.593-5.812,16.71,0
			c4.117,5.812,7.75,21.069,6.055,24.218c-1.695,2.18-19.859-6.297-26.64-10.172c-5.086-2.664-10.172-0.242-15.257-8.719
			c-4.844-6.054-23.734-24.702-26.398-26.64c-7.023-1.938-7.75-5.812-7.75-9.203s2.421-5.569,7.507-6.055
			c8.234-1.453,22.402-28.804,41.675-34.468L362.088,221.615z"/>
		<path fill="#A95B27" d="M348.935,282.815c5.927-1.956,0.76-8.716-3.236-9.079c-6.389,0.969-28.49-18.154-35.191-27.391
			c4.037-7.172,22.05-9.491,32.948-11.308c7.802-1.673,14.124-2.706,18.886-9.333c0.51-2.368-0.255-4.09-0.255-4.09l-18.219-20.978
			c-19.273,5.664-33.441,33.015-41.675,34.468c-5.086,0.485-7.507,2.664-7.507,6.055s0.726,7.266,7.75,9.203
			c2.664,1.938,21.758,17.631,26.601,23.685C334.123,282.523,345.721,283.855,348.935,282.815z"/>
		<path fill="#A96A33" d="M307.394,243.883c4.988-4.709,8.238-5.405,14.296-7.93c7.992-2.906,38.779-2.156,40.398-14.338
			c1.62-12.181-18.219-20.978-18.219-20.978c-19.273,5.664-33.441,33.015-41.675,34.468c-4.28,0.408-4.132,3.022-4.783,5.543
			C297.411,247.721,303.969,247.115,307.394,243.883z"/>
		<path fill="#4F2914" d="M369.612,296.382c-4.767,0.001-20.142-7.378-25.611-10.502c-1.59-0.833-3.223-1.169-4.801-1.493
			c-3.448-0.709-7.014-1.442-10.522-7.291c-4.93-6.159-23.758-24.667-26.323-26.566c-6.899-1.913-7.851-5.634-7.851-9.369
			c0-3.601,2.653-5.758,7.672-6.235c3.314-0.585,7.8-5.661,12.994-11.537c5.958-6.741,13.043-14.757,21.313-19.723
			c4.051-2.449,7.662-3.116,7.662-3.116c-11.49,3.603-21.034,14.402-28.703,23.079c-5.455,6.172-9.764,11.047-13.217,11.656
			c-4.818,0.46-7.357,2.491-7.357,5.876c0,3.599,0.923,7.182,7.617,9.027l0.058,0.029c2.796,2.032,21.772,20.847,26.433,26.673
			c3.44,5.731,6.771,6.415,10.298,7.142c1.604,0.329,3.262,0.671,4.902,1.529c7.938,4.536,24.923,12.136,26.412,10.221
			c1.574-2.929-1.829-18.028-6.059-24.001c-2.315-3.269-6.446-1.84-10.091-0.58c-2.67,0.924-5.191,1.796-6.588,0.614l-0.045-0.059
			c-1.792-3.584-3.303-3.444-5.394-3.25c-0.93,0.087-1.984,0.186-3.196-0.043c-4.042-0.758-25.006-19.723-26.313-21.63
			c-0.245-0.356-0.284-0.734-0.118-1.123c1.051-2.457,10.862-5.265,28.373-8.119c13.582-2.264,18.531-6.577,20.291-9.796
			c1.823-3.334,0.653-6.151,0.641-6.18c0,0,1.585,2.867-0.322,6.354c-1.799,3.289-6.824,7.691-20.551,9.979
			c-23.118,3.769-27.527,6.569-28.098,7.904c-0.116,0.271-0.088,0.524,0.084,0.774c1.721,2.511,22.369,20.782,26.08,21.478
			c1.162,0.219,2.189,0.123,3.095,0.039c2.144-0.2,3.838-0.357,5.735,3.415c1.248,1.014,3.657,0.181,6.207-0.702
			c3.766-1.302,8.034-2.777,10.506,0.713c4.08,5.76,7.878,21.043,6.066,24.409C370.676,296.257,370.234,296.382,369.612,296.382z"/>
	</g>
	<g>
		<g>
			<path fill="#2E0200" d="M370.731,295.894c1.695-3.148-1.938-18.406-6.055-24.218c-2.725-3.847-7.782-1.436-11.805-0.138
				c1.584,2.411,4.569,8.652,3.398,20.226C363.01,294.76,369.732,297.178,370.731,295.894z"/>
			<path fill="#4D0200" d="M355.627,278.314c0.783,3.299,1.222,7.72,0.643,13.449c6.74,2.996,13.462,5.414,14.461,4.13
				c0.095-0.178,0.172-0.398,0.234-0.649C369.761,286.975,363.354,281.251,355.627,278.314z"/>
			<path fill="#946766" d="M356.494,288.63c-0.041,0.999-0.114,2.042-0.224,3.134c6.74,2.996,13.462,5.414,14.461,4.13
				C370.817,295.733,361.264,293.866,356.494,288.63z"/>
			<path fill="#0D0D0D" d="M369.595,296.428L369.595,296.428c-2.853,0-9.62-2.818-13.399-4.498l-0.12-0.054l0.014-0.13
				c1.185-11.717-1.961-17.965-3.369-20.107l-0.131-0.2l0.227-0.073c0.488-0.157,0.991-0.33,1.503-0.508
				c2.059-0.711,4.188-1.447,6.147-1.447c1.903,0,3.329,0.706,4.358,2.16c4.08,5.76,7.878,21.043,6.066,24.409
				C370.653,296.289,370.235,296.428,369.595,296.428z M356.464,291.651c6.418,2.847,11.079,4.412,13.131,4.412l0,0
				c0.506,0,0.85-0.097,0.993-0.282c1.574-2.929-1.829-18.028-6.059-24.001c-0.957-1.351-2.286-2.007-4.062-2.007
				c-1.899,0-3.999,0.726-6.029,1.427c-0.436,0.151-0.866,0.299-1.285,0.438C354.924,274.43,357.556,280.6,356.464,291.651z"/>
		</g>
	</g>
	<g>
		<g>
			<path fill="#2E0200" d="M333.193,342.15c-2.664,1.694-11.503,8.113-11.867,11.019c0.121,3.27,16.832,5.935,25.914,5.813
				c7.873-0.105,8.01-4.305,7.513-8.024c-7.321-1.06-17.638-6.627-21.517-8.839C333.222,342.13,333.207,342.141,333.193,342.15z"/>
			<path fill="#4D0200" d="M344.012,347.549c-4.499-1.948-8.626-4.203-10.776-5.43c-0.014,0.011-0.029,0.021-0.043,0.031
				c-2.664,1.694-11.503,8.113-11.867,11.019c0.025,0.671,0.748,1.316,1.959,1.916C331.801,355.154,341.047,354.59,344.012,347.549z
				"/>
			<path fill="#946766" d="M333.236,342.119c-0.014,0.011-0.029,0.021-0.043,0.031c-2.32,1.476-9.326,6.537-11.333,9.738
				c4.339-3.365,9.593-5.689,14.322-8.145C335.002,343.114,333.994,342.552,333.236,342.119z"/>
			<path fill="#0D0D0D" d="M346.632,359.168c-8.649,0-25.36-2.53-25.488-5.991c0.399-3.213,10.064-9.979,11.951-11.181l0.094-0.063
				l0.136,0.029c4.037,2.301,14.208,7.768,21.453,8.816l0.136,0.021l0.018,0.136c0.275,2.064,0.367,4.396-1.05,6.037
				c-1.237,1.432-3.409,2.148-6.641,2.191C347.042,359.166,346.839,359.168,346.632,359.168z M333.244,342.333
				c-2.951,1.888-11.392,8.099-11.737,10.858c0.112,2.977,15.739,5.613,25.126,5.613c0.205,0,0.407-0.002,0.605-0.005
				c3.122-0.042,5.206-0.717,6.371-2.065c1.291-1.494,1.246-3.575,0.982-5.616C347.352,350.021,337.337,344.661,333.244,342.333z"/>
		</g>
	</g>
	<g>
		<path fill="#9D5127" d="M399.153,245.532c0,0-21.883,2.779-19.4,30.435c2.119,20.652,22.946,38.091,44.259,49.957
			c2.905,1.938-2.422,11.962-16.227,24.629c-4.117,2.98-6.721,3.23-8.173,8.433c-3.089,3.568-16.349,16.284-11.626,19.189
			c4.724,2.906,25.43,4.541,33.24-5.268c1.816-2.361-3.814-9.354-3.814-9.354c1.635,0.727,5.449,1.362,4.178-6.63
			c-0.908-4.541,13.622-22.341,17.255-22.886c3.634-0.545,10.717-8.174,8.537-12.17s-7.006-12.614-7.811-16.347
			c-1.683-7.811,8.22-17.256,8.219-31.473c0-11.213-5.494-37.187-37.576-37.903L399.153,245.532z"/>
		<path fill="#A95B27" d="M408.996,359.168c7.084,2.724,9.082-2.729,9.809-3.819c5.448-8.354,9.566-16.71,18.284-21.796
			c5.101-3.061,7.933-1.332,10.599-8.997c0.188-0.981,0.121-1.905-0.306-2.688c-2.18-3.996-7.006-12.614-7.811-16.347
			c-1.683-7.811,8.22-17.256,8.219-31.473c0-11.213-5.494-37.187-37.576-37.903l-11.061,9.388c0,0-20.249,2.604-17.766,30.26
			c2.118,20.652,27.366,38.266,42.624,50.132c2.867,1.913-0.035,11.786-13.441,24.219
			C406.539,353.736,405.759,357.425,408.996,359.168z"/>
		<path fill="#A96A33" d="M399.153,245.532c0,0-16.374,0.548-13.891,28.204c2.118,20.653,22.013,35.845,40.808,48.434
			c13.683,6.297,20.343,2.665,18.164-1.332c-2.181-3.996-3.858-11.585-4.663-15.317c-1.683-7.811,8.22-17.256,8.219-31.473
			c0-11.213-5.494-37.187-37.576-37.903L399.153,245.532z"/>
		<path fill="#4F2914" d="M400.467,380.57c-5.651,0-10.607-1.029-12.575-2.241c-0.612-0.377-0.972-0.927-1.066-1.637
			c-0.502-3.728,6.441-11.149,10.59-15.583c0.834-0.892,1.556-1.662,2.032-2.212c1.124-3.988,2.975-5.134,5.53-6.717
			c0.806-0.498,1.717-1.062,2.701-1.774c11.984-10.998,17.169-19.632,16.909-22.994c-0.048-0.619-0.275-1.069-0.678-1.336
			c-15.519-8.642-41.933-26.648-44.338-50.09c-1.29-14.369,4.202-22.003,9.036-25.877c1.819-1.458,3.685-2.507,5.348-3.255
			c3.126-1.406,5.62-1.396,5.62-1.396c-0.056,0.007-5.594,0.803-10.754,4.945c-4.758,3.819-10.162,11.352-8.888,25.548
			c2.388,23.274,28.696,41.201,44.166,49.813c0.512,0.341,0.794,0.883,0.851,1.619c0.275,3.562-4.888,12.149-17.043,23.303
			c-1.01,0.733-1.928,1.302-2.738,1.803c-2.588,1.603-4.298,2.661-5.382,6.545l-0.039,0.07c-0.479,0.556-1.215,1.343-2.067,2.253
			c-3.835,4.099-10.974,11.729-10.496,15.287c0.081,0.604,0.375,1.054,0.897,1.376c4.534,2.79,25.171,4.607,33.002-5.227
			c1.708-2.22-3.758-9.058-3.813-9.128l-0.472-0.584l0.687,0.305c0.565,0.251,1.99,0.75,3.015-0.038
			c1.124-0.863,1.438-3.076,0.91-6.396c-0.453-2.268,2.697-7.19,4.615-9.922c4.179-5.949,10.459-12.823,12.793-13.173
			c2.419-0.362,6.283-3.88,7.952-7.238c0.651-1.311,1.26-3.185,0.452-4.664l-0.561-1.026c-2.439-4.453-6.521-11.906-7.269-15.37
			c-0.811-3.765,1.023-7.892,3.146-12.672c2.376-5.347,5.068-11.407,5.068-18.839c0-3.749-1.057-36.673-37.649-37.913
			c0,0,5.76,0.044,8.394,0.557c9.893,1.926,17.517,6.754,22.731,14.411c6.391,9.387,6.888,19.936,6.888,22.945
			c0.001,7.508-2.709,13.606-5.1,18.987c-2.098,4.721-3.909,8.798-3.123,12.446c0.735,3.414,4.961,11.128,7.23,15.272l0.562,1.026
			c0.698,1.28,0.544,3.01-0.446,5.001c-1.713,3.445-5.709,7.059-8.224,7.435c-1.991,0.299-7.973,6.507-12.549,13.023
			c-3.208,4.567-4.868,8.084-4.556,9.649c0.56,3.517,0.207,5.784-1.047,6.748c-0.892,0.685-2.011,0.54-2.773,0.309
			c1.271,1.676,5.032,6.981,3.424,9.073C416.823,378.729,408.024,380.569,400.467,380.57z"/>
	</g>
	<g>
		<path fill="#4F2914" d="M421.245,324.561l0.182-0.315c0.057,0.033,5.692,3.265,7.188,3.528
			C428.614,327.773,426.948,327.773,421.245,324.561z"/>
	</g>
	<g>
		<g>
			<path fill="#2E0200" d="M396.969,361.854c-4.806,5.146-12.814,13.963-8.982,16.321c4.724,2.906,25.43,4.541,33.24-5.268
				c1.071-1.394-0.45-4.4-1.878-6.631C408.545,368.858,400.19,364.123,396.969,361.854z"/>
			<path fill="#4D0200" d="M408.875,371.454c0.957-1.34,1.304-2.981,1.104-4.607c-6.174-0.721-10.8-3.437-13.01-4.993
				c-4.806,5.146-12.814,13.963-8.982,16.321c0.943,0.58,2.523,1.108,4.509,1.507c1.827-0.006,3.654-0.143,5.482-0.599
				C402.336,377.993,406.332,375.45,408.875,371.454z"/>
			<path fill="#946766" d="M400.185,363.8c-1.347-0.701-2.435-1.397-3.216-1.946c-3.557,3.809-8.861,9.625-9.83,13.349
				C390.755,370.703,395.463,367,400.185,363.8z"/>
			<path fill="#0D0D0D" d="M400.411,380.593c-5.207,0-10.354-0.931-12.52-2.264c-0.612-0.376-0.972-0.927-1.066-1.635
				c-0.501-3.708,6.6-11.312,10.011-14.965l0.107-0.117l0.13,0.092c2.724,1.92,8.423,5.141,15.983,5.141
				c2.079,0,4.183-0.251,6.25-0.745l0.125-0.03l0.069,0.109c1.478,2.308,3.001,5.368,1.87,6.84
				C415.926,379.854,404.899,380.593,400.411,380.593z M396.993,362.092c-3.412,3.655-10.28,11.055-9.809,14.555
				c0.081,0.604,0.375,1.052,0.897,1.374c2.113,1.3,7.184,2.208,12.329,2.208c4.436,0,15.33-0.725,20.673-7.435
				c0.772-1.003,0.126-3.242-1.819-6.311c-2.055,0.481-4.143,0.725-6.208,0.725C405.514,367.208,399.802,364.046,396.993,362.092z"
				/>
		</g>
	</g>
	<g>
		<path fill="#2A150B" d="M471.431,318.743c-10.032-8.683-9.519-18.324-9.519-18.324c0.892,11.227,9.648,17.968,9.737,18.034
			L471.431,318.743z"/>
	</g>
	<g>
		<path fill="#2A150B" d="M488.697,296.006c-1.295,0-2.591-0.185-3.817-0.644c-5.288-2.254-5.812-7.334-5.812-7.334
			c1.153,3.597,3.151,5.949,5.939,6.993c6.124,2.294,14.122-2.473,14.202-2.52l0.188,0.311
			C499.332,292.852,494.039,296.006,488.697,296.006z"/>
	</g>
	<g>
		<path fill="#2A150B" d="M491.722,305.516c-2.694,0-4.401-1.071-4.401-1.071c0.072,0.028,7.253,2.881,14.345-3.061
			c3.512-2.939,6.659-4.255,9.35-3.916c2.275,0.29,3.729,1.715,4.549,2.86l-0.296,0.212c-0.777-1.087-2.154-2.438-4.299-2.712
			c-2.586-0.326-5.64,0.962-9.069,3.835C498.212,304.751,494.497,305.516,491.722,305.516z"/>
	</g>
	<g>
		<path fill="#2A150B" d="M495.335,255.582c-1.079-16.111-8.162-23.534-13.913-26.925c-6.232-3.676-12.295-3.547-12.359-3.542
			c0,0,6.205-0.502,12.529,3.219c5.833,3.435,13.015,10.944,14.105,27.224L495.335,255.582z"/>
	</g>
	<g>
		<g>
			<path fill="#9D5127" d="M323.765,123.03c-4.227-2.732-9.902-4.595-13.96-2.483c-4.2,2.186-3.447,8.469-1.896,13.786
				C308.185,129.117,310.804,121.701,323.765,123.03z"/>
			<path fill="#4F2914" d="M308.034,135.409l-0.299-1.026c-2.179-7.468-1.511-12.178,1.986-13.998
				c1.188-0.618,2.57-0.932,4.105-0.932c3.013,0,6.672,1.248,10.038,3.423l0.635,0.41l-0.752-0.077
				c-1.008-0.103-1.982-0.156-2.897-0.156c-10.052,0-12.487,6.138-12.76,11.287L308.034,135.409z M313.826,119.817
				c-1.477,0-2.802,0.299-3.938,0.891c-3.873,2.015-3.356,7.767-2.077,12.598c0.495-4.374,2.968-10.615,13.038-10.615
				c0.694,0,1.423,0.03,2.174,0.089C319.898,120.891,316.581,119.817,313.826,119.817z"/>
		</g>
	</g>
	<g>
		<g>
			<path fill="#9D5127" d="M291.734,136.112c-0.104-0.226-0.214-0.451-0.334-0.675c-2.129-3.98-5.92-6.102-8.466-4.74
				c-1.161,0.622-1.857,1.864-2.075,3.406C282.854,133.766,287.345,133.44,291.734,136.112z"/>
			<path fill="#A95B27" d="M281.805,133.34c0,0,5.759-0.955,8.896,1.273C289.782,132.42,284,128.507,281.805,133.34z"/>
			<path fill="#4F2914" d="M292.149,136.577l-0.509-0.31c-2.996-1.823-6.038-2.206-8.063-2.206c-1.146,0-2.094,0.12-2.688,0.22
				l-0.245,0.042l0.035-0.246c0.235-1.66,1.005-2.917,2.169-3.541c0.538-0.288,1.139-0.434,1.786-0.434
				c2.463,0,5.246,2.109,6.926,5.249c0.122,0.227,0.232,0.456,0.339,0.685L292.149,136.577z M283.577,133.698
				c1.955,0,4.837,0.349,7.733,1.957c-0.023-0.044-0.046-0.088-0.07-0.132c-1.618-3.024-4.273-5.057-6.605-5.057
				c-0.586,0-1.13,0.132-1.615,0.391c-1.003,0.537-1.687,1.606-1.941,3.026C281.687,133.792,282.555,133.698,283.577,133.698z"/>
		</g>
	</g>
	<g>
		<path fill="#9D5127" d="M313.171,161.688c0,0,1.131,16.125-18.485,27.092c-4.844,2.732-11.504,5.215-12.412-3.322
			c-3.814-3.451-14.349-14.167,0-26.156c4.359-4.904,11.035-16.938,4.197-29.344L313.171,161.688z"/>
		<path fill="#A95B27" d="M313.171,161.688c0,0,0.95,14.017-18.667,24.983c-4.843,2.733-10.716,5.788-11.624-2.749
			c-3.814-3.451-14.955-12.632-0.606-24.62c4.359-4.904,11.035-16.938,4.197-29.344L313.171,161.688z"/>
		<path fill="#A96A33" d="M313.171,161.688c0,0-0.258,10.115-18.768,22.153c-4.844,2.731-8.971,6.279-9.879-2.259
			c-3.814-3.45-12.482-12.835-2.25-22.28c4.359-4.904,11.035-16.938,4.197-29.344c0,0,7.952,1.153,11.969,4.374
			C311.077,144.465,313.171,161.688,313.171,161.688z"/>
		<path fill="#4F2914" d="M287.274,191.534c-0.867,0.001-1.626-0.17-2.286-0.509c-1.604-0.827-2.576-2.669-2.887-5.478
			c-4.948-4.492-7.41-9.1-7.319-13.696c0.087-4.402,2.568-8.671,7.375-12.687c2.005-2.259,11.729-14.372,4.313-29.204
			c0,0,1.351,2.067,1.729,3.156c4.689,13.5-3.892,24.172-5.79,26.308c-4.742,3.964-7.18,8.142-7.265,12.434
			c-0.089,4.502,2.351,9.033,7.251,13.466l0.051,0.047l0.008,0.069c0.289,2.718,1.197,4.488,2.699,5.262
			c2.026,1.043,5.114,0.363,9.443-2.079c19.294-10.787,18.514-27.295,18.504-27.46c0,0,0.48,2.433-0.407,5.974
			c-1.479,5.901-5.737,14.992-17.919,21.803C291.701,190.673,289.22,191.534,287.274,191.534z"/>
	</g>
	<g>
		<path fill="#4F2914" d="M281.076,170.65c1.006-4.082,5-5.007,5-5.007c-2.641,1.248-4.204,2.958-4.644,5.08
			c-0.894,4.301,3.118,8.939,3.159,8.985C284.59,179.708,280.146,175.129,281.076,170.65z"/>
	</g>
	<g>
		<path fill="#9D5127" d="M289.54,180.917c0,0-5.54-9.626,0-14.349c3.633-2.725,8.268,1.907,7.63,6.084
			C296.533,176.831,294.171,179.101,289.54,180.917z"/>
		<path fill="#823B27" d="M289.54,180.917c0,0-5.54-9.626,0-14.349c2.614-2.006,5.431,1.891,5.147,6.107
			C294.504,175.363,293.012,178.597,289.54,180.917z"/>
		<path fill="#4F2914" d="M289.46,181.144l-0.079-0.136c-0.056-0.097-5.55-9.813,0.04-14.578c0.763-0.573,1.587-0.859,2.46-0.859
			c1.368,0,2.777,0.727,3.865,1.993c1.267,1.475,1.866,3.388,1.603,5.116c-0.619,4.057-2.862,6.492-7.744,8.406L289.46,181.144z
			 M291.882,165.934c-0.792,0-1.544,0.262-2.233,0.779c-4.999,4.262-0.666,12.791-0.027,13.977c4.7-1.873,6.771-4.145,7.369-8.064
			c0.248-1.625-0.32-3.43-1.519-4.826C294.453,166.615,293.145,165.934,291.882,165.934z"/>
	</g>
	<g>
		<path fill="#4F2914" d="M288.78,167.064l0.328,0.157c-2.416,5.023,2.05,8.979,2.095,9.018
			C291.203,176.239,286.246,172.334,288.78,167.064z"/>
	</g>
	
		<ellipse transform="matrix(0.5594 -0.8289 0.8289 0.5594 -18.0909 336.6398)" fill="#F9B9B6" cx="307.621" cy="185.337" rx="1.61" ry="0.837"/>
	<path fill="#763D1D" d="M442.901,252.18c0,0,5.207-7.145,7.993-17.68c3.188-10.847,11.503-18.042,24.944-17.679
		c6.473,1.101,14.28,7.391,15.136,15.136c-6.659-8.112-20.222-13.244-28.577-6.864c5.569,3.111,20.827,6.259,25.671,18.853
		c2.906,8.961,2.422,27.245-2.663,35.601c-3.997,5.692-0.429,11.171,1.915,13.078c-2.884-1.332-7.415-3.065-9.206-11.765
		c-2.275,1.956-3.971,20.606,20.49,16.557c-3.736,7.764-13.806,4.624-18.285,3.003c1.21,6.01,11.624,13.153,19.616,8.673
		c-1.453,3.149-8.837,13.088-23.37,4.117c-8.96-5.69-17.479-23.498-17.195-28.456c-2.906,1.211-1.574,9.042-0.605,13.279
		c-2.839-0.874-6.204-10.791-1.816-24.296c4.959-15.26,5.449-25.311-0.484-25.916c-6.643-0.678-12.229,6.902-12.229,6.902
		L442.901,252.18z"/>
	<path fill="#A96A33" d="M276.43,180.917c0,0-4.751-4.885-2.45-11.555C271.787,171.469,269.072,177.345,276.43,180.917z"/>
	<g>
		<ellipse transform="matrix(0.9254 -0.379 0.379 0.9254 -25.2431 130.396)" cx="318.579" cy="129.314" rx="4.55" ry="6.132"/>
		<circle fill="#FFFFFF" cx="315.873" cy="127.226" r="1.989"/>
		<circle fill="#FFFFFF" cx="320.025" cy="125.831" r="1.077"/>
	</g>
	<path fill="#A95B27" d="M307.825,130.103c0,0,0.63-7.844,12.909-8.061C314.727,120.433,305.948,117.977,307.825,130.103z"/>
	<path fill="#763D1D" d="M352.083,100.257c0,0,5.731,2.489,6.296,6.582c3.391,4.027,12.963,28.102,26.583,24.541
		c-2.89-4.53-13.378-6.376-13.805-15.382c1.753,2.255,11.215,3.026,13.805,2.467c-21.364-7.841,1.026-20.739-33.983-30.193
		c2.798-1.624,9.859-2.161,10.005-4.772c-4.3-2.664-8.175-6.199-8.901-5.279c-0.727,1.889-5.197,16.561-6.11,16.975
		c8.774-0.797,16.261,6.408,16.261,6.408C357.449,101.666,352.083,100.257,352.083,100.257z"/>
	<path fill="#763D1D" d="M365.468,124.412c0,0,5.948,16.239,6.333,30.287c1.019,4.252,17.69,15.844,19.092,20.068
		c3.618-10.205-14.712-16.312-15.075-30.722c3.088,2.906,13.598,10.535,16.788,11.443c-3.165-8.173-9.697-19.782-12.603-20.241
		S369.869,132.376,365.468,124.412z"/>
	<path fill="#763D1D" d="M377.671,168.021c0,0,4.751,6.986,4.442,9.548c2.422,1.835,6.09,7.769,6.09,7.769
		C389.622,178.919,387.275,170.201,377.671,168.021z"/>
	<path fill="#763D1D" d="M294.005,125.395c0,0,7.083-3.024,1.309-23.792c4.397-1.332,6.771,6.115,6.771,6.115
		c0.532-8.174,4.567-13.896,9.839-14.773c-7.491-0.303-11.628-2.852-11.628-2.852c2.109-10.666,24.203-6.17,24.203-18.833
		c-0.26-5.654-8.616-7.937-17.447-6.742c4.103,1.241,6.833,6.181,6.833,6.181c-5.264-2.049-17.877-0.94-25.198,8.23
		c4.85-1.364,5.479-1.912,5.479-1.912c-10.654,5.729-20.897,17.856-9.492,34.903c-2.218-8.745-0.5-16.871,7.36-17.076
		c-2.494,1.974-8.197,11.993-1.874,20.413C294.166,121.382,294.005,125.395,294.005,125.395z"/>
	<g>
		<path d="M321.428,122.913l-0.857-0.161c0.026-0.019,3.26-2.07,3.178-4.327C323.749,118.425,324.107,121.066,321.428,122.913z"/>
	</g>
	<g>
		<path d="M318.224,123.21l-0.712-0.298c0.025-0.021,2.695-2.21,2.445-4.456C319.957,118.457,320.758,121.169,318.224,123.21z"/>
	</g>
	<g>
		<path d="M315.873,123.681l-1.069,0.056c0.017-0.027,2.149-2.965,1.232-5.03C316.036,118.708,317.671,120.969,315.873,123.681z"/>
	</g>
	<path d="M324.623,123.381c0,0-14.006-3.001-16.637,11.866C307.953,133.363,308.303,118.578,324.623,123.381z"/>
	<g>
		<path d="M323.747,123.21l-1.258-0.285c0.036-0.006,4.12-0.764,4.347-3.306C326.836,119.62,327.199,122.019,323.747,123.21z"/>
	</g>
	<g>
		<path d="M281.557,134.126c-1.677-0.663-1.687-4.132-1.687-4.132c0.003,0.032,0.348,3.211,1.821,3.794L281.557,134.126z"/>
	</g>
	<g>
		<path d="M283.287,134.092c-1.486-1.021-0.722-4.404-0.722-4.404c-0.004,0.032-0.378,3.208,0.928,4.104L283.287,134.092z"/>
	</g>
	<path d="M288.548,134.748c0,0-6.629-1.688-7.904,0.662c0.035-1.332,0.035-1.332,0.035-1.332S284.726,131.784,288.548,134.748z"/>
</g>
</svg>
