<svg version="1.1" id="Layer_1" xmlns="http://www.w3.org/2000/svg" xmlns:xlink="http://www.w3.org/1999/xlink" viewBox="0 0 768 430" enable-background="new 0 0 768 430" xml:space="preserve">
<path fill="#C51915" d="M556.9,193.4c0.399,10.7,0.1,24.2-5.601,33.7c-0.399-4.399,2.5-9.3,3.3-13.6c1.101-5.7,1.301-11.4,1.4-17.1
	c0.1-6.3-0.9-12.6-2.2-18.7c-1.2-5.7-4.399-11.5-4.6-17.3C555,169,556.6,183.2,556.9,193.4z"/>
<path fill="#FFFFFF" d="M504.3,207.3c11.4-2.9,23.7,5.9,25.4,17.3C531.6,237.1,522.6,249.4,509.6,249.9
	C484.1,250.7,479.2,212.5,504.3,207.3z"/>
<path fill="#F1AAA5" d="M465.1,98.5c1.601,4.8,0.801,10.5-2.399,14.5C464.6,107.9,465.5,104,465.1,98.5
	C466.7,103.3,465.3,101.5,465.1,98.5z"/>
<path fill="#FFFFFF" d="M447.5,83.5c12.1,2.2,21.2,13.6,16.6,25.8c-4,10.6-15.5,15.4-26.399,13.9c-11.3-1.5-21.7-10.7-19.9-22.9
	c0.9-6,5.2-11.1,10.3-14C434.2,82.7,440.7,83.5,447.5,83.5C455.4,84.9,443.4,83.5,447.5,83.5z"/>
<path fill="#FE0000" d="M498.9,247.3c10.1,5.8,23.8,1.3,28.899-9.1c5.601-10.8,0.5-25.4-11.1-29.7c-11.101-3.5-23.8,0.4-28,12.1
	C484.6,230.4,489.3,242.8,498.9,247.3z M481.3,162.1c4.5,14.5,20.101,19.3,33.4,15c15-4.9,19.399-25.7,11.3-38
	c-3.2-4.8-8.3-9.1-14-10.6c-1.2-0.4-2.4-0.3-3.5,0.3c-1.2-0.1-0.9-1.2-2.4-1.3c-2.6-0.3-5.8,0.4-8.3,1.1
	C484.9,132.4,475,149,481.3,162.1z M432.5,77.8c32.9,5.4,64.1,19,88.3,42.2c24.7,23.7,40.7,58.8,33.8,93.5
	c-3.199,15.7-9.699,28.2-24.3,36.1c-16.3,7.7-35.6,8.801-53.5,9.5c-19.3,0.801-38.7-2.199-58-2.199c-9.6,0-19.2-0.601-28.8-0.7
	c-4.4,0-8.9,0-13.2-0.7c-4.8-0.7-10.2-0.1-14.899-1.3c25-4.601,30.8-42.8,3.899-50.4c-12.7-3.6-25.6,2.8-30.6,15
	c-5.8,14.101,1.7,25.7,13.1,33.5c-9.4,0.4-19.1-2.2-28.2-4.2c-8.2-1.8-16.9-3.699-24.4-7.399c-3.4-1.7-6.9-3-10.2-4.8
	c-2.4-1.2-4.2-5.601-6.3-6c-4.8-9-10.1-17.7-16.1-25.9c-2.1-2.8-5.7-5.8-5.9-9.6c-0.2-4.7,0.7-9.3,1.8-13.9
	c2.3-9.6,5.9-19,10.4-27.8c3.9-7.6,8.6-14.9,14-21.6c2.9-3.7,6.1-7.2,9.4-10.5c3-3,6.2-4.5,9.2-7.1c-11.7,19.3,15.2,41.6,32.1,26.8
	c7.7-6.7,10.7-18.2,5.2-27.3c-4.3-7.2-13.9-10.7-21.7-10.8c14.6-11.4,35.3-17.3,53-21.3C391.1,76.3,411.7,75.5,432.5,77.8z
	 M448.8,82.8c-11.8-1.8-26.7,0.9-31.2,14c-4.3,12.6,5.2,23.8,17.101,26.8c10.899,2.7,24.6-1.3,29.8-11.9
	C470.7,99.4,461.6,85.4,448.8,82.8z M433,215.8c10.4,7.7,25.4,3.8,31.4-7.4c0.8-1.5,5-16.3,0.8-15.5c-1.2-4.5-2.101-8.1-6.3-11.4
	c-9.4-7.4-23.9-5.5-30.9,4.4C421.3,195.2,423.1,209.4,433,215.8z M275.7,198.7c8,27.6,48.9,23.7,49.2-5.8
	c0.2-15.4-11.7-26.6-27-25.8C281,167.9,274.4,184,275.7,198.7z M362.2,148.7c7.8,11.1,23,14.5,34.399,6.8
	c12.101-8.2,15-25,6.301-36.9c-7.7-10.5-23.801-13.4-34.301-5.5C357.1,121.6,354.7,136.8,362.2,148.7z"/>
<path fill="#FDBCBC" d="M447.8,83.5c-4.2,0-8.399-0.1-12.6,0C439.3,82.3,443.7,82.3,447.8,83.5z"/>
<path fill="#C69C6C" d="M404.3,257.9c8.3-0.301,16.601,0,24.9,0.399c3.7,0.2,7.399,0.4,11.1,0.7c1.4,3.9,2.7,7.9,3.9,11.9
	c4.399,15.199,5.8,31.399,6,47.1c0.3,27.5-4.9,62.1-36,69.8c-27.7,6.8-60.601-8.399-58.9-40.399c0.8-14.801,8.5-29.101,11.7-43.5
	c1.5-6.801,1.2-16.601,4.6-22.5c3.601-6.2-3.399-6.501,0.4-12.601c-3.9,1.5,3.6-2.1,0,0c0.3-4.2,0.3-8.399,0.6-12.5
	C383,257,393.6,257.5,404.3,257.9z"/>
<path fill="#FFFFFF" d="M440,81.8c11.2-2,25.3,7.7,26.5,19c1.4,12.9-9.6,21.8-21.4,23.3c-11.5,1.5-24.899-4.7-27.899-16.6
	C413.4,92.8,427.2,83.4,440,81.8z M465.1,98.5c-7-26.3-56.399-16.5-46.6,10.5C427.1,132.7,473.7,124.2,465.1,98.5z"/>
<path fill="#F7B9B8" d="M406.2,135.5c0.6-3.1-0.5-6.2-0.5-9.3c1.899,4.9,2,10.6,0.1,15.6C405.8,139.7,405.8,137.6,406.2,135.5
	C406.8,132.4,405.8,137.6,406.2,135.5z"/>
<path fill="#FFFFFF" d="M374.7,110.9c12.6-4.7,26.899,2.6,31,15.3c0,6.5,1.7,13.3-1.4,19.3c-2.8,5.5-7.7,9.8-13.399,11.9
	C361.3,168,345.5,121.4,374.7,110.9z"/>
<path fill="#FFFFFF" d="M375.2,210.4c10.1,9.5,9.8,25.8,0.3,35.6s-25.7,9-34.7-1c-8.4-9.4-8.4-24.2,0.1-33.5
	C349.8,201.8,365.9,201,375.2,210.4z"/>
<path fill="#FFFFFF" d="M360.9,121.7c7.199-10.8,19.6-16.4,32.199-11c13.601,5.8,18.101,22.7,12.101,35.5
	c-6.7,11.9-22,17.4-34.3,10.5C359.5,150.2,353.2,133.4,360.9,121.7z"/>
</svg>
