<svg version="1.1" id="Layer_1" xmlns="http://www.w3.org/2000/svg" xmlns:xlink="http://www.w3.org/1999/xlink" viewBox="0 0 768 430" enable-background="new 0 0 768 430" xml:space="preserve">
<g transform="translate(-88.57143,-53.79075)">
	
		<linearGradient id="SVGID_1_" gradientUnits="userSpaceOnUse" x1="680.4327" y1="536.1355" x2="575.2435" y2="538.6804" gradientTransform="matrix(0.9054 0 0 0.9054 -86.2853 -157.9556)">
		<stop  offset="0" style="stop-color:#844800"/>
		<stop  offset="1" style="stop-color:#B87C00"/>
	</linearGradient>
	<path fill="url(#SVGID_1_)" d="M449.41,211.408h38.02h38.018c0,0-5.056,50.621,0,79.494c5.055,28.871,20.737,52.099,20.737,92.741
		c0,40.642-20.737,57.409-20.737,57.409s-12.289,5.378-38.018,5.378c-25.73,0-38.02-5.378-38.02-5.378s-20.738-17.536-20.738-57.409
		c0-39.875,15.684-63.87,20.738-92.741C454.464,262.029,449.41,211.408,449.41,211.408L449.41,211.408z"/>
	
		<linearGradient id="SVGID_2_" gradientUnits="userSpaceOnUse" x1="633.6603" y1="441.0154" x2="633.6603" y2="479.4044" gradientTransform="matrix(0.9054 0 0 0.9054 -86.2853 -157.9556)">
		<stop  offset="0" style="stop-color:#9C0000"/>
		<stop  offset="1" style="stop-color:#FC0C0C;stop-opacity:0"/>
	</linearGradient>
	<path fill="url(#SVGID_2_)" d="M449.415,211.402c0,0,3.005,41.491,2.066,68.5h71.898c-0.938-27.01,2.067-68.5,2.067-68.5h-38.016
		H449.415z"/>
	
		<linearGradient id="SVGID_3_" gradientUnits="userSpaceOnUse" x1="627.6808" y1="664.0857" x2="637.8602" y2="550.4149" gradientTransform="matrix(0.9054 0 0 0.9054 -86.2853 -157.9556)">
		<stop  offset="0" style="stop-color:#FCFCFC"/>
		<stop  offset="1" style="stop-color:#FCFCFC;stop-opacity:0"/>
	</linearGradient>
	<path opacity="0.692" fill="url(#SVGID_3_)" enable-background="new    " d="M449.41,211.408h38.02h38.018
		c0,0-5.056,50.621,0,79.494c5.055,28.871,20.737,52.099,20.737,92.741c0,40.642-20.737,57.409-20.737,57.409
		s-12.289,5.378-38.018,5.378c-25.73,0-38.02-5.378-38.02-5.378s-20.738-17.536-20.738-57.409c0-39.875,15.684-63.87,20.738-92.741
		C454.464,262.029,449.41,211.408,449.41,211.408L449.41,211.408z"/>
	
		<linearGradient id="SVGID_4_" gradientUnits="userSpaceOnUse" x1="629.8136" y1="435.1931" x2="657.8069" y2="330.0059" gradientTransform="matrix(0.9054 0 0 0.9054 -86.2853 -157.9556)">
		<stop  offset="0" style="stop-color:#AC0000"/>
		<stop  offset="1" style="stop-color:#FC0C0C"/>
	</linearGradient>
	<path fill="url(#SVGID_4_)" d="M285.571,204.408c0,0,29.689-108.618,204.202-108.618s204.202,108.618,204.202,108.618v19.551
		c0,0-66.242,16.129-204.202,16.129c-137.959,0-204.202-16.129-204.202-16.129V204.408L285.571,204.408z"/>
	
		<linearGradient id="SVGID_5_" gradientUnits="userSpaceOnUse" x1="675.1515" y1="460.7029" x2="555.5437" y2="293.5913" gradientTransform="matrix(0.9054 0 0 0.9054 -86.2853 -157.9556)">
		<stop  offset="0" style="stop-color:#880000"/>
		<stop  offset="1" style="stop-color:#FC0C0C;stop-opacity:0"/>
	</linearGradient>
	<path fill="url(#SVGID_5_)" d="M285.571,204.408c0,0,29.689-108.618,204.202-108.618s204.202,108.618,204.202,108.618v19.551
		c0,0-66.242,16.129-204.202,16.129c-137.959,0-204.202-16.129-204.202-16.129V204.408L285.571,204.408z"/>
	<g>
		<path fill="#FCF4F4" d="M456.322,128.46c0,5.089-12.379,9.216-27.65,9.216c-15.27,0-27.649-4.127-27.649-9.216
			c0-5.09,12.379-9.216,27.649-9.216C443.943,119.244,456.322,123.37,456.322,128.46z"/>
		<path fill="#FCF4F4" d="M527.751,109.643c0,1.91-10.832,3.457-24.195,3.457c-13.36,0-24.19-1.547-24.19-3.457
			c0-1.908,10.831-3.456,24.19-3.456C516.919,106.187,527.751,107.735,527.751,109.643z"/>
		<path fill="#FCF4F4" d="M500.102,100.042c0,0.848-8.253,1.535-18.435,1.535c-10.181,0-18.432-0.688-18.432-1.535
			c0-0.85,8.251-1.537,18.432-1.537C491.849,98.506,500.102,99.194,500.102,100.042z"/>
		<path fill="#FCF4F4" d="M589.337,119.882c-1.084,2.898-8.218,3.586-15.932,1.538c-7.715-2.049-13.09-6.06-12.004-8.958
			c1.084-2.898,8.219-3.586,15.933-1.536C585.048,112.974,590.422,116.984,589.337,119.882z"/>
		<path fill="#FCF4F4" d="M530.823,143.438c0,5.302-12.896,9.6-28.802,9.6c-15.907,0-28.803-4.298-28.803-9.6
			c0-5.303,12.896-9.602,28.803-9.602C517.928,133.836,530.823,138.134,530.823,143.438L530.823,143.438z"/>
		<path fill="#FCF4F4" d="M421.76,171.086c0,9.12-14.787,16.513-33.026,16.513c-18.241,0-33.025-7.393-33.025-16.513
			c0-9.12,14.786-16.513,33.025-16.513C406.973,154.573,421.76,161.967,421.76,171.086L421.76,171.086z"/>
		<path fill="#FCF4F4" d="M647.566,177.231c0,10.817-17.537,19.584-39.17,19.584c-21.634,0-39.171-8.768-39.171-19.584
			c0-10.816,17.537-19.585,39.171-19.585C630.028,157.645,647.566,166.414,647.566,177.231z"/>
		<path fill="#FCF4F4" d="M545.073,190.671c0,13.575-17.805,24.579-39.767,24.579c-21.963,0-39.768-11.004-39.768-24.579
			c0-13.573,17.805-24.577,39.768-24.577C527.269,166.094,545.073,177.098,545.073,190.671z"/>
		<path fill="#FCF4F4" d="M382.868,145.357c0,4.242-5.564,7.68-12.428,7.68c-6.863,0-12.427-3.438-12.427-7.68
			s5.563-7.681,12.427-7.681C377.303,137.676,382.868,141.115,382.868,145.357z"/>
		<path fill="#FCF4F4" d="M468.595,157.26c0,4.454-5.842,8.065-13.049,8.065s-13.048-3.611-13.048-8.065
			c0-4.454,5.842-8.064,13.048-8.064C462.753,149.197,468.595,152.807,468.595,157.26z"/>
		<path fill="#FCF4F4" d="M574.601,146.509c0,3.182-5.158,5.76-11.521,5.76c-6.364,0-11.52-2.578-11.52-5.76
			s5.155-5.761,11.52-5.761C569.443,140.749,574.601,143.327,574.601,146.509z"/>
	</g>
	
		<linearGradient id="SVGID_6_" gradientUnits="userSpaceOnUse" x1="625.2316" y1="303.0202" x2="626.6396" y2="378.2542" gradientTransform="matrix(1.091 0 0 0.9099 -190.5459 -169.9093)">
		<stop  offset="0" style="stop-color:#FCFCFC"/>
		<stop  offset="1" style="stop-color:#FCFCFC;stop-opacity:0"/>
	</linearGradient>
	<path fill="url(#SVGID_6_)" d="M596.255,130.754c0,15.984-46.614,28.944-104.112,28.944c-57.501,0-104.115-12.959-104.115-28.944
		c0-15.986,46.613-28.945,104.115-28.945C549.642,101.808,596.255,114.767,596.255,130.754z"/>
	<g>
		
			<linearGradient id="SVGID_7_" gradientUnits="userSpaceOnUse" x1="609.7003" y1="654.9626" x2="656.356" y2="513.2993" gradientTransform="matrix(0.9054 0 0 0.9054 -86.2853 -157.9556)">
			<stop  offset="0" style="stop-color:#FCFCFC"/>
			<stop  offset="1" style="stop-color:#FCFCFC;stop-opacity:0"/>
		</linearGradient>
		<path fill="url(#SVGID_7_)" d="M453.022,272.862c-0.264,7.764-0.859,15.271-1.978,21.666
			c-4.837,27.627-19.849,50.583-19.849,88.739c0,38.155,19.849,54.952,19.849,54.952s11.756,5.139,36.378,5.139
			c24.62,0,36.378-5.139,36.378-5.139s19.849-16.062,19.849-54.952c0-38.892-15.012-61.112-19.849-88.739
			c-1.118-6.395-1.714-13.902-1.979-21.666h-2.751c0.2,8.26,0.753,16.334,1.888,23.099c4.458,26.543,18.282,47.896,18.282,85.261
			c0,37.364-18.282,52.792-18.282,52.792s-10.845,4.936-33.534,4.936s-33.513-4.936-33.513-4.936s-18.302-16.132-18.302-52.792
			c0-36.659,13.845-58.716,18.302-85.261c1.136-6.765,1.688-14.839,1.887-23.099H453.022z"/>
	</g>
	<g>
		
			<linearGradient id="SVGID_8_" gradientUnits="userSpaceOnUse" x1="609.7003" y1="654.9626" x2="656.356" y2="513.2993" gradientTransform="matrix(0.9054 0 0 0.9054 -86.2853 -157.9556)">
			<stop  offset="0" style="stop-color:#FCFCFC"/>
			<stop  offset="1" style="stop-color:#FCFCFC;stop-opacity:0"/>
		</linearGradient>
		<path fill="url(#SVGID_8_)" d="M453.022,272.862c-0.264,7.764-0.859,15.271-1.978,21.666
			c-4.837,27.627-19.849,50.583-19.849,88.739c0,38.155,19.849,54.952,19.849,54.952s11.756,5.139,36.378,5.139
			c24.62,0,36.378-5.139,36.378-5.139s19.849-16.062,19.849-54.952c0-38.892-15.012-61.112-19.849-88.739
			c-1.118-6.395-1.714-13.902-1.979-21.666h-2.751c0.2,8.26,0.753,16.334,1.888,23.099c4.458,26.543,18.282,47.896,18.282,85.261
			c0,37.364-18.282,52.792-18.282,52.792s-10.845,4.936-33.534,4.936s-33.513-4.936-33.513-4.936s-18.302-16.132-18.302-52.792
			c0-36.659,13.845-58.716,18.302-85.261c1.136-6.765,1.688-14.839,1.887-23.099H453.022z"/>
	</g>
	<g>
		
			<linearGradient id="SVGID_9_" gradientUnits="userSpaceOnUse" x1="609.7003" y1="654.9626" x2="656.356" y2="513.2993" gradientTransform="matrix(0.9054 0 0 0.9054 -86.2853 -157.9556)">
			<stop  offset="0" style="stop-color:#FCFCFC"/>
			<stop  offset="1" style="stop-color:#FCFCFC;stop-opacity:0"/>
		</linearGradient>
		<path fill="url(#SVGID_9_)" d="M453.022,272.862c-0.264,7.764-0.859,15.271-1.978,21.666
			c-4.837,27.627-19.849,50.583-19.849,88.739c0,38.155,19.849,54.952,19.849,54.952s11.756,5.139,36.378,5.139
			c24.62,0,36.378-5.139,36.378-5.139s19.849-16.062,19.849-54.952c0-38.892-15.012-61.112-19.849-88.739
			c-1.118-6.395-1.714-13.902-1.979-21.666h-2.751c0.2,8.26,0.753,16.334,1.888,23.099c4.458,26.543,18.282,47.896,18.282,85.261
			c0,37.364-18.282,52.792-18.282,52.792s-10.845,4.936-33.534,4.936s-33.513-4.936-33.513-4.936s-18.302-16.132-18.302-52.792
			c0-36.659,13.845-58.716,18.302-85.261c1.136-6.765,1.688-14.839,1.887-23.099H453.022z"/>
	</g>
	
		<linearGradient id="SVGID_10_" gradientUnits="userSpaceOnUse" x1="720.8644" y1="560.8484" x2="654.699" y2="565.0898" gradientTransform="matrix(0.6788 0 0 0.8274 40.952 -123.472)">
		<stop  offset="0" style="stop-color:#FCFCFC"/>
		<stop  offset="1" style="stop-color:#FCFCFC;stop-opacity:0"/>
	</linearGradient>
	<path fill="url(#SVGID_10_)" d="M490.885,431.159c0,0,24.758,2.809,32.245-12.632c5.835-12.04,10.363-20.356,6.333-54.748
		c-4.032-34.394-12.093-47.027-14.396-67.383c-2.302-20.354-0.575-42.816-0.575-42.816s-28.278,32.63-21.305,65.978
		C508.158,391.151,490.885,431.159,490.885,431.159L490.885,431.159z"/>
	
		<linearGradient id="SVGID_11_" gradientUnits="userSpaceOnUse" x1="635.047" y1="442.5066" x2="635.047" y2="414.6826" gradientTransform="matrix(0.9054 0 0 0.9054 -86.2853 -157.9556)">
		<stop  offset="0" style="stop-color:#FCFCFC"/>
		<stop  offset="1" style="stop-color:#FCFCFC;stop-opacity:0"/>
	</linearGradient>
	<path fill="url(#SVGID_11_)" d="M286.135,206.154c0,0,89.004,15.706,199.044,14.397c110.043-1.31,206.061-16.143,206.061-16.143
		l0.538,17.452c0,0-111.66,14.833-202.282,13.525c-90.622-1.309-203.901-13.961-203.901-13.961L286.135,206.154z"/>
	
		<linearGradient id="SVGID_12_" gradientUnits="userSpaceOnUse" x1="635.046" y1="439.3073" x2="635.046" y2="422.5203" gradientTransform="matrix(0.9054 0 0 0.9054 -86.2853 -157.9556)">
		<stop  offset="0" style="stop-color:#FCFCFC"/>
		<stop  offset="1" style="stop-color:#FCFCFC;stop-opacity:0"/>
	</linearGradient>
	<path fill="url(#SVGID_12_)" d="M366.49,217.751c0,0,53.695,9.476,120.081,8.686c66.388-0.79,124.312-9.739,124.312-9.739
		l0.325,10.528c0,0-67.362,8.949-122.034,8.159c-54.67-0.79-123.01-8.423-123.01-8.423L366.49,217.751z"/>
</g>
</svg>
