<?xml version="1.0" encoding="utf-8"?>
<!-- Generator: Adobe Illustrator 16.0.0, SVG Export Plug-In . SVG Version: 6.00 Build 0)  -->
<!DOCTYPE svg PUBLIC "-//W3C//DTD SVG 1.1//EN" "http://www.w3.org/Graphics/SVG/1.1/DTD/svg11.dtd">
<svg version="1.1" id="Layer_2" xmlns="http://www.w3.org/2000/svg" xmlns:xlink="http://www.w3.org/1999/xlink" x="0px" y="0px"
	 width="768px" height="430px" viewBox="0 0 768 430" enable-background="new 0 0 768 430" xml:space="preserve">
<g>
	<g>
		<path fill="#202020" d="M459.153,140.064c13.99,7.884,34.372-4.382,37.137-21.451c2.769-17.068-4.843-33.676-25.139-37.827
			c-20.301-4.152-29.295,14.071-30.911,20.759C440.24,114.231,445.167,132.18,459.153,140.064z"/>
		<path fill="#141414" d="M468.728,142.856L468.728,142.856c-3.537-0.004-6.812-0.837-9.743-2.489
			c-14.09-7.942-19.091-25.877-19.091-38.823l0.012-0.081c1.452-6.018,8.856-21.632,25.466-21.632c1.886,0,3.853,0.208,5.849,0.617
			c18.588,3.802,28.561,18.804,25.412,38.221C494.508,131.781,481.727,142.856,468.728,142.856z M440.586,101.587
			c0.012,12.754,4.923,30.39,18.741,38.178c2.821,1.59,5.986,2.396,9.4,2.396l0,0c12.681,0,25.146-10.807,27.224-23.602
			c2.34-14.443-2.768-32.913-24.869-37.434c-1.951-0.399-3.871-0.601-5.711-0.601C449.246,80.525,442.026,95.688,440.586,101.587z"
			/>
	</g>
	<path fill="#E5544C" d="M449.238,118.383c0,0,1.728-21.623,17.297-22.489c15.572-0.864,18.859,18.855,10.207,28.37
		c-8.648,9.514-23.698,1.73-24.912,1.384c0.346-2.767,2.827-7.727,6.401-8.881C456.158,115.731,451.771,116.653,449.238,118.383z"/>
	<path fill="#FF8073" d="M449.238,118.383c0,0,5.553-17.036,18.222-18.82c9.455-1.333,17.935,15.187,9.282,24.701
		c-8.648,9.514-23.698,1.73-24.912,1.384c0.346-2.767,2.827-7.727,6.401-8.881C456.158,115.731,451.771,116.653,449.238,118.383z"/>
	<path fill="#141414" d="M465.341,129.323c-5.623,0-10.899-2.219-12.885-3.052c-0.346-0.146-0.618-0.261-0.718-0.291l-0.288-0.08
		l0.038-0.294c0.342-2.75,2.551-7.181,5.76-8.804c-0.379-0.083-0.82-0.125-1.297-0.125c-2.121,0-4.801,0.82-6.521,1.991
		l-0.595,0.407l0.058-0.72c0.019-0.219,1.936-21.936,17.623-22.808c0.338-0.017,0.676-0.029,1.002-0.029
		c5.842,0,10.354,2.929,12.704,8.244c2.964,6.7,1.609,15.42-3.222,20.735C474.089,127.7,470.167,129.323,465.341,129.323z
		 M452.215,125.42c0.13,0.053,0.298,0.125,0.51,0.213c1.951,0.82,7.136,2.996,12.616,2.996c4.624,0,8.372-1.546,11.144-4.597
		c4.659-5.121,5.961-13.527,3.104-19.991c-2.231-5.048-6.521-7.829-12.07-7.829c-0.315,0-0.637,0.009-0.964,0.027
		c-13.521,0.75-16.425,17.781-16.894,21.472c1.816-1.047,4.251-1.725,6.291-1.725c0.99,0,1.809,0.16,2.438,0.472l0.758,0.38
		l-0.807,0.26C455.156,118.125,452.69,122.534,452.215,125.42z"/>
	<g>
		<g>
			<path fill="#181818" d="M342.779,307.409c0,0-31.139,11.306-43.595,20.761c-5.304-4.843-16.375-8.303-23.295-8.303
				c-6.92,0-17.299,8.072-10.611,15.453c-2.156,8.764,6.689,12.224,18.453,18.223c11.763,5.994,28.833,19.144,50.053,8.764
				c8.766-3.461,21.913-21.967,21.22-25.516C352.466,330.247,347.161,309.256,342.779,307.409z"/>
			<path fill="#202020" d="M342.779,307.409c0,0-31.139,11.306-43.595,20.761c-5.304-4.843-16.375-8.303-23.295-8.303
				c-6.92,0-13.115,6.283-7.863,11.709c-2.156,8.764,7.403,10.384,19.166,16.379c11.765,5.999,20.759,12.035,41.98,1.659
				c8.764-3.46,21.539-20.062,20.845-23.607C347.479,319.459,347.161,309.256,342.779,307.409z"/>
			<path fill="#141414" d="M317.692,366.52h-0.001c-11.321,0-21.074-5.453-28.908-9.835c-1.84-1.029-3.577-2.001-5.209-2.835
				c-1.06-0.541-2.095-1.06-3.102-1.563c-10.119-5.077-17.452-8.751-15.572-16.869c-2.774-3.162-2.333-6.153-1.463-8.116
				c2.033-4.584,8.193-7.779,12.452-7.779c6.835,0,17.746,3.287,23.315,8.199c12.504-9.345,43.148-20.523,43.458-20.635l0.127-0.046
				l0.125,0.05c3.391,1.43,7.028,12.927,9.948,22.167c0.972,3.067,1.811,5.722,2.465,7.412c0.783,3.989-12.796,22.558-21.417,25.959
				C328.643,365.205,323.178,366.52,317.692,366.52z M275.888,320.212c-4.046,0-9.895,3.027-11.819,7.37
				c-1.148,2.584-0.641,5.181,1.465,7.505l0.123,0.138l-0.044,0.176c-1.895,7.708,4.893,11.114,15.167,16.268
				c1.008,0.504,2.045,1.026,3.107,1.567c1.644,0.837,3.385,1.812,5.232,2.842c7.765,4.344,17.429,9.747,28.57,9.75h0.001
				c5.378,0,10.742-1.289,15.939-3.832c8.725-3.445,21.667-21.89,21.034-25.139c-0.647-1.651-1.488-4.309-2.462-7.393
				c-2.541-8.03-6.361-20.119-9.439-21.679c-2.237,0.818-31.512,11.655-43.369,20.661l-0.231,0.172l-0.213-0.195
				C293.65,323.584,282.542,320.212,275.888,320.212z"/>
		</g>
		<g>
			<path fill="#141414" d="M265.604,335.436l-0.65-0.23c3.514-9.847,16.647-7.154,16.647-7.154
				C281.474,328.027,268.925,326.135,265.604,335.436z"/>
		</g>
		<g>
			<path fill="#181818" d="M437.81,240.518c5.998,15.458,25.833,38.753,26.755,60.666c10.611,7.15,24.797,29.87,25.838,37.942
				c10.837-7.612,18.104-19.259,31.138-16.261c7.035-2.191,17.412,0.576,20.296,8.304c5.077,2.189,6.806,11.878-1.036,20.181
				c-7.843,8.304-24.103,21.223-40.137,24.566c-15.407,3.215-19.489-3.689-21.221-8.764c-6.455-6.459-30.677-16.148-59.971-9.573
				C416.242,336.012,420.743,246.056,437.81,240.518z"/>
			<path fill="#202020" d="M541.836,331.169c-2.884-7.728-13.261-10.495-20.296-8.304c-13.034-2.998-20.301,8.648-31.138,16.261
				c-1.041-8.072-15.227-30.792-25.838-37.942c-0.922-21.913-20.757-45.208-26.755-60.666
				c-17.066,5.538-20.526,83.658-17.297,105.221c29.29-6.569,49.505,4.444,55.965,10.903c1.248,3.668,5.825,11.18,14.083,13.849
				c-1.617-4.352-1.752-9.183-0.393-13.718c4.847-13.149,18.684-23.53,33.215-22.838c4.109,0.825,4.324,5.061,2.812,8.214
				c2.074-3.46,6.878-8.214,10.338-4.754c1.029,1.033,2.243,3.422,1.559,5.326C540.338,341.115,543.711,335.189,541.836,331.169z"/>
			<path fill="#F3F3F3" d="M470.824,306.694c0,0-39.137,3.944-57.759,36.525c-0.28-10.491,17.536-93.354,27.052-93.354
				c6.312,3.199,25.431,39.268,24.221,51.203C466.572,302.236,470.824,306.694,470.824,306.694z"/>
			<path fill="#141414" d="M493.482,377.084c-9.816,0-12.893-5.538-14.34-9.743c-4.577-4.513-19.401-11.609-40.001-11.609
				c-6.54,0-13.134,0.734-19.593,2.185l-0.361,0.081l-0.058-0.368c-1.544-10.308-1.387-37.95,1.56-64.629
				c2.02-18.318,6.915-49.532,17.016-52.809l0.308-0.1l0.122,0.303c2.013,5.188,5.657,11.372,9.513,17.92
				c7.773,13.187,16.58,28.13,17.255,42.682c10.585,7.246,24.194,29.213,25.754,37.527c2.703-1.943,5.195-4.136,7.611-6.26
				c5.983-5.262,11.636-10.228,19.163-10.228c1.333,0,2.708,0.157,4.094,0.469c1.556-0.472,3.257-0.714,5.051-0.714
				c5.994,0,13.099,2.822,15.533,9.12c2.074,0.957,3.583,3.081,4.156,5.86c0.985,4.777-0.964,10.319-5.212,14.816
				c-7.104,7.52-23.584,21.176-40.315,24.667C498.099,376.804,495.66,377.084,493.482,377.084z M439.142,355.041
				c20.895,0,35.958,7.277,40.547,11.866l0.057,0.057l0.027,0.078c1.366,4.013,4.277,9.351,13.71,9.351
				c2.127,0,4.521-0.276,7.112-0.813c16.563-3.457,32.907-17.006,39.954-24.467c4.095-4.333,5.977-9.644,5.039-14.202
				c-0.541-2.611-1.955-4.589-3.887-5.423l-0.134-0.058l-0.054-0.142c-2.271-6.079-9.141-8.807-14.938-8.807
				c-1.759,0-3.418,0.242-4.933,0.716l-0.091,0.025l-0.089-0.022c-1.367-0.312-2.723-0.473-4.032-0.473
				c-7.267,0-12.822,4.885-18.706,10.055c-2.565,2.254-5.216,4.585-8.127,6.628l-0.468,0.326l-0.073-0.567
				c-0.998-7.762-14.954-30.47-25.685-37.697l-0.142-0.1l-0.012-0.174c-0.606-14.436-9.404-29.362-17.166-42.535
				c-3.795-6.44-7.385-12.53-9.439-17.704c-16.341,6.356-21.071,93.42-17.854,116.201
				C426.154,355.751,432.675,355.041,439.142,355.041z"/>
		</g>
		<g>
			<path fill="#141414" d="M468.624,304.958c-5.308-5.76-15.68-8.256-15.784-8.283c0,0,10.845,1.897,16.295,7.812L468.624,304.958z"
				/>
		</g>
		<g>
			<path fill="#141414" d="M524.688,343.22c0.051-0.03,4.947-3.456,5.504-10.062c0.326-3.905-1.794-8.567-8.722-9.954l0.135-0.68
				c7.377,1.475,9.628,6.49,9.274,10.691C530.296,340.163,524.688,343.22,524.688,343.22z"/>
		</g>
		<g>
			<path fill="#141414" d="M534.289,345.738c0.096-0.049,9.536-5.291,7.213-14.485l0.668-0.169
				C544.632,340.805,534.289,345.738,534.289,345.738z"/>
		</g>
		<g>
			
				<ellipse transform="matrix(0.5373 0.8434 -0.8434 0.5373 537.6995 -264.1769)" fill="#9E686A" cx="509.599" cy="357.926" rx="8.167" ry="14.077"/>
			<path fill="#7A484C" d="M503.771,368.504c-2.922,0-5.173-1.006-6.337-2.825c-1.24-1.951-1.113-4.59,0.362-7.432
				c1.438-2.784,4.004-5.445,7.227-7.5c3.388-2.158,7.178-3.395,10.399-3.395c2.926,0,5.177,1.002,6.341,2.826
				c1.241,1.947,1.113,4.586-0.361,7.431c-1.44,2.78-4.009,5.446-7.228,7.496C510.787,367.264,506.992,368.504,503.771,368.504z
				 M515.422,348.043c-3.092,0-6.747,1.198-10.026,3.288c-3.119,1.989-5.604,4.559-6.986,7.235
				c-1.354,2.614-1.494,5.007-0.392,6.738c1.029,1.617,3.076,2.505,5.753,2.505c3.096,0,6.751-1.198,10.031-3.288
				c3.118-1.984,5.599-4.554,6.985-7.23c1.355-2.615,1.494-5.008,0.392-6.74C520.146,348.935,518.104,348.043,515.422,348.043z"/>
		</g>
		<g>
			<path fill="#141414" d="M479.112,367.249c-1.464-4.946-5.892-10.554-5.938-10.607c0,0,5.1,5.331,6.602,10.411L479.112,367.249z"
				/>
		</g>
		<g>
			<path fill="#181818" d="M354.081,211.226c-23.758,9.689-32.984,45.671-30.909,68.505c2.076,22.835,9.175,58.661,15.313,67.966
				c-14.044,6.076-14.967,23.606-0.551,25.911c3.229,5.308,14.531,6.836,19.261,3.13c5.073,3.1,22.259,1.021,19.722-20.427
				c1.959-1.271,8.534-0.346,8.534-0.346c-8.324,6.021-6.112,22.669,8.186,22.808c2.597,3.955,14.966,4.639,18.107,1.524
				c4.816,3.979,13.726,1.125,16.265-7.266c1.824-6.036,0.115-13.725-2.539-17.872c7.611-12.574,11.38-39.203,11.417-44.407
				c5.884-24.562,13.149-61.583-1.382-84.419C420.973,203.499,379.915,200.615,354.081,211.226z"/>
			<path fill="#202020" d="M428.585,226.453c-2.04-3.203-8.664-12.278-11.395-14.717c-7.873,1.767-11.79,0.142-20.469,1.514
				c-5.534,0.691-15.912,6.524-22.139,7.216c-6.92,0.69-6.44-0.265-11.978-3.034c-7.085-3.779-8.289-0.365-15.204-2.554
				c-18.353,9.497-25.88,46.677-24.229,64.854c2.076,22.835,9.175,58.661,15.313,67.966c-14.044,6.076-10.714,18.477-2.26,17.862
				c3.229,5.308,11.663,6.302,16.39,2.599c5.076,3.1,19.688,2.904,17.151-18.544c-12.485-15.008-17.214-47.278-14.737-64.146
				c1.563,5.204,7.812,35.761,10.853,39.125c7.345,8.13,25.477,6.732,32.601-1.382c3.492-3.979,4.763-26.537,4.524-32.932
				c1.018,8.895,0.845,55.248-13.08,62.038c-8.333,4.062-10.473,18.621,1.432,18.621c2.598,3.955,20.224,5.871,23.365,2.761
				c12.938,5.243,9.248-18.314,6.594-22.465c7.612-12.57,10.338-37.406,10.381-42.605
				C437.579,284.063,443.116,249.289,428.585,226.453z"/>
			<path fill="#D2D2D2" d="M401.69,279.451c-10.356-6.751-36.668-8.479-47.211-2.081c1.542,14.273,3.181,36.603,9.418,49.975
				c6.238,13.372,12.425,24.182,13.02,28.967c4.879-1.072,8.132-0.043,8.132-0.043c2.391-3.904,9.395-4.919,12.536-15.253
				C400.73,330.682,406.514,301.771,401.69,279.451z"/>
			<path fill="#F3F3F3" d="M373.498,321.979c10.383,1.155,20.754-1.548,29.133-7.286c1.233-11.302,1.472-24.094-0.94-35.242
				c-10.356-6.751-36.668-8.479-47.211-2.081c1.025,9.501,2.096,22.562,4.535,34.182
				C362.67,316.587,366.701,321.457,373.498,321.979z"/>
			<path fill="#141414" d="M404.256,382.599c-4.155,0-9.051-1.079-10.799-3.479c-6.14-0.123-10.821-3.399-12.538-8.792
				c-1.661-5.215-0.153-10.887,3.66-14.12c-0.868-0.096-2.308-0.223-3.725-0.223c-2.036,0-3.057,0.262-3.567,0.511
				c0.82,7.284-0.521,12.949-3.982,16.848c-3.919,4.408-9.084,4.885-11.126,4.885c-1.928,0-3.717-0.392-4.958-1.076
				c-1.738,1.271-4.32,1.971-7.309,1.971c-4.439,0-9.895-1.608-12.189-5.196c-5.889-0.998-9.789-4.692-10.443-9.916
				c-0.816-6.501,3.569-13.222,10.697-16.467c-5.946-9.59-12.99-44.029-15.148-67.782c-1.985-21.84,6.532-58.832,31.122-68.855
				c9.322-3.829,20.75-5.937,32.174-5.937c22.663,0,41.23,7.915,49.672,21.18c13.972,21.956,8.111,56.762,1.437,84.646
				c-0.059,5.212-3.807,31.691-11.355,44.355c2.588,4.202,4.315,11.845,2.461,17.981c-1.929,6.378-7.285,9.282-11.444,9.282l0,0
				c-1.939,0-3.706-0.573-5.135-1.664C410.373,381.911,407.605,382.599,404.256,382.599z M380.854,355.294
				c2.287,0,4.622,0.326,4.645,0.326l0.851,0.123l-0.695,0.504c-4,2.891-5.714,8.725-4.076,13.87
				c1.639,5.146,6.15,8.253,12.063,8.311l0.184,0.005l0.104,0.153c1.498,2.281,6.401,3.322,10.326,3.322
				c3.368,0,6.075-0.696,7.247-1.855l0.223-0.219l0.241,0.199c1.341,1.106,3.042,1.689,4.928,1.689c3.913,0,8.956-2.749,10.784-8.79
				c1.819-6.029,0.072-13.564-2.5-17.589l-0.116-0.181l0.111-0.185c7.577-12.515,11.329-39.125,11.368-44.226l0.008-0.08
				c6.647-27.758,12.5-62.405-1.337-84.155c-8.314-13.061-26.664-20.856-49.088-20.856c-11.336,0-22.67,2.089-31.912,5.883
				c-24.267,9.897-32.662,46.52-30.695,68.157c2.177,23.963,9.316,58.807,15.255,67.805l0.229,0.345l-0.38,0.166
				c-8.245,3.563-11.304,10.745-10.657,15.91c0.622,4.942,4.369,8.438,10.025,9.34l0.158,0.026l0.084,0.139
				c1.79,2.942,6.594,4.996,11.68,4.996c2.944,0,5.454-0.694,7.07-1.963l0.188-0.145l0.203,0.123
				c1.139,0.694,2.89,1.094,4.804,1.094c1.947,0,6.876-0.453,10.607-4.65c3.364-3.787,4.637-9.348,3.786-16.537l-0.024-0.214
				l0.182-0.116C377.473,355.539,378.86,355.294,380.854,355.294z"/>
		</g>
		<g>
			<path fill="#141414" d="M393.339,378.943c-4.895-8.787,0.844-16.007,0.844-16.007c-0.05,0.072-4.919,7.269-0.242,15.672
				L393.339,378.943z"/>
		</g>
		<g>
			<path fill="#141414" d="M411.234,381.128l-0.457-0.522c6.302-5.526,3.748-14.244,3.721-14.332
				C414.498,366.273,417.874,375.303,411.234,381.128z"/>
		</g>
		<g>
			<path fill="#141414" d="M356.973,377.003c-2.197-1.828-4.42-5.859-4.42-10.027c0.004-5.902,3.781-8.479,3.781-8.479
				c-0.031,0.027-3.086,2.899-3.088,8.479c-0.001,3.952,2.097,7.77,4.171,9.498L356.973,377.003z"/>
		</g>
		<g>
			<path fill="#141414" d="M338.438,374.853c-6.258-9.946,0.132-18.584,0.132-18.584c-0.056,0.085-5.561,8.657,0.453,18.216
				L338.438,374.853z"/>
		</g>
		<g>
			<path fill="#141414" d="M335.617,349.614l-0.374-0.584c8.145-5.284,18.618-1.271,18.618-1.271
				C353.756,347.725,343.485,344.507,335.617,349.614z"/>
		</g>
		<g>
			<path fill="#141414" d="M377.442,358.262l-0.692-0.042c0.181-3.245-2.348-8.199-5.551-14.466
				c-3.834-7.512-8.608-16.859-11.628-28.415c-4.495-17.196-5.259-41.625-5.259-41.625c0.013,0.241,1.452,24.32,5.93,41.453
				c2.999,11.479,7.755,20.791,11.575,28.271C375.193,350.048,377.632,354.825,377.442,358.262z"/>
		</g>
		<g>
			<path fill="#141414" d="M382.382,360.098l-0.585-0.368c2.147-3.422,4.54-5.373,6.854-7.263c2.306-1.877,4.483-3.655,6.423-6.777
				c3.852-6.194,5.318-17.194,7.389-34.628c2.365-19.901-1.337-34.33-1.375-34.472c0,0,4.447,14.513,2.062,34.551
				c-2.08,17.531-3.56,28.596-7.488,34.913c-2.001,3.223-4.324,5.119-6.57,6.952C386.818,354.855,384.469,356.772,382.382,360.098z"
				/>
		</g>
	</g>
	<g>
		<path fill="#181818" d="M341.75,102.236c0,0-14.993-19.835-37.136-16.375c-22.144,3.458-24.911,43.823-7.151,53.512
			c17.762,9.689,36.215-0.691,38.982-3.46C338.752,128.303,343.365,109.157,341.75,102.236z"/>
		<path fill="#202020" d="M341.75,102.236c0,0-14.993-19.835-37.136-16.375c-22.144,3.458-16.103,41.543,2.066,50.444
			c12.894,6.321,27.893-2.446,30.66-5.211C339.647,123.48,343.365,109.157,341.75,102.236z"/>
		<path fill="#141414" d="M313.491,143.771c0,0,0,0-0.002,0c-5.766,0-11.214-1.379-16.191-4.094
			c-10.062-5.488-13.243-20.333-11.187-32.162c2.139-12.302,9.036-20.524,18.449-21.995c1.74-0.272,3.502-0.411,5.24-0.411
			c19.213,0,32.098,16.751,32.227,16.92l0.059,0.129c1.629,6.972-2.874,25.82-5.309,33.855l-0.025,0.084l-0.062,0.062
			C334.739,138.109,325.24,143.771,313.491,143.771z M309.8,85.802c-1.703,0-3.429,0.134-5.132,0.401
			c-9.105,1.423-15.788,9.434-17.875,21.431c-2.014,11.584,1.062,26.102,10.838,31.436c4.874,2.657,10.209,4.005,15.858,4.005
			c11.502,0,20.855-5.637,22.65-7.346c2.321-7.688,6.814-26.534,5.29-33.34C340.588,101.314,328.104,85.802,309.8,85.802z"/>
	</g>
	<g>
		<path fill="#E5544C" d="M333.908,117.922c0,0-8.886-13.798-17.992-14.992c-14.055-1.846-19.606,18.222-8.074,25.603
			C319.376,135.913,332.984,125.764,333.908,117.922z"/>
		<path fill="#FF8073" d="M332.639,122.304c0,0-7.271-12.182-16.377-13.378c-14.054-1.845-20.166,12.569-8.42,19.607
			C317.779,134.484,329.048,128.012,332.639,122.304z"/>
		<path fill="#141414" d="M316.454,131.438h-0.002c-3.126,0-6.085-0.879-8.796-2.615c-6.152-3.938-7.31-11.16-5.728-16.571
			c1.739-5.945,6.528-9.789,12.201-9.789c0.599,0,1.215,0.042,1.833,0.123c9.157,1.204,17.871,14.58,18.236,15.15l0.069,0.104
			l-0.015,0.123C333.534,124.066,325.434,131.438,316.454,131.438z M314.128,103.156c-6.502,0-10.221,4.798-11.537,9.29
			c-1.509,5.163-0.415,12.049,5.438,15.795c2.598,1.662,5.431,2.506,8.422,2.506c8.579,0,16.317-6.94,17.097-12.743
			c-0.843-1.268-9.249-13.626-17.677-14.732C315.284,103.194,314.697,103.156,314.128,103.156z"/>
	</g>
	<g>
		<path fill="#E2E1E0" d="M385.806,73.635c-17.761,0-39.494,9.185-50.654,24.429c-11.162,15.244-10.802,31.54-12.546,38.08
			c-12.687,9.689-19.377,28.373-13.378,46.364c5.997,17.992,27.831,29.256,46.516,33.176c2.498,3.986,8.81,8.6,16.106,8.688
			c8.276,0.1,13.567-2.193,18.338-7.035c10.496-5.534,47.59,1.397,70.582-23.987c19.95-22.028-1.617-53.285-1.617-53.285
			c-16.109-15.47-13-26.542-18.913-38.52C435.217,91.372,413.944,73.635,385.806,73.635z"/>
		<path fill="#F3F3F3" d="M385.806,73.635c-17.761,0-39.494,9.185-50.654,24.429c-11.162,15.244-10.802,31.54-12.546,38.08
			c-9.115,7.627-14.609,24.098-8.631,43.295c5.659,18.173,22.254,26.871,36.422,30.408c2.5,3.986,14.311,10.668,21.607,10.76
			c8.276,0.1,19.202-5.572,23.973-10.415c10.495-5.534,36.702,0,57.098-21.49c20.462-21.556,3.23-48.02,3.23-48.02
			c-16.114-15.47-10.151-27.16-16.064-39.138C435.217,91.372,413.944,73.635,385.806,73.635z"/>
		<path fill="#878686" d="M372.377,224.721L372.377,224.721l-0.53-0.004c-7.11-0.088-13.558-4.436-16.317-8.725
			c-17.656-3.737-40.406-14.705-46.63-33.377c-5.687-17.062-0.176-36.233,13.401-46.671c0.382-1.482,0.668-3.487,1-5.799
			c1.167-8.157,2.932-20.487,11.571-32.285c10.424-14.238,31.846-24.57,50.934-24.57c28.88,0,49.906,18.303,54.745,28.104
			c1.951,3.948,2.907,7.719,3.922,11.711c2.038,8.047,4.15,16.368,14.923,26.71l0.046,0.054c0.216,0.315,21.49,31.733,1.587,53.711
			c-16.022,17.689-38.427,19.736-54.787,21.233c-7.077,0.645-12.673,1.156-15.846,2.804
			C385.475,222.597,380.082,224.721,372.377,224.721z M385.806,73.981c-18.886,0-40.071,10.215-50.375,24.288
			c-8.538,11.657-10.286,23.883-11.444,31.975c-0.344,2.393-0.639,4.459-1.047,5.988l-0.03,0.115l-0.094,0.073
			c-13.416,10.246-18.867,29.152-13.26,45.976c6.148,18.445,28.764,29.275,46.26,32.95l0.142,0.031l0.079,0.123
			c2.615,4.17,8.889,8.441,15.82,8.525l0.521,0.004c7.521,0,12.774-2.074,17.565-6.936l0.085-0.065
			c3.284-1.732,8.963-2.25,16.149-2.907c16.248-1.486,38.494-3.518,54.336-21.007c19.278-21.287-0.883-51.732-1.624-52.823
			c-10.891-10.469-13.026-18.882-15.089-27.016c-1.002-3.956-1.95-7.692-3.871-11.577C435.158,92.034,414.383,73.981,385.806,73.981
			z"/>
	</g>
	<path fill="#202020" d="M414.103,132.499c2.374,14.278-4.006,27.232-14.248,28.933c-10.245,1.702-20.469-8.491-22.842-22.769
		c-2.372-14.277,4.009-27.231,14.252-28.932C401.506,108.029,411.732,118.223,414.103,132.499z"/>
	
		<ellipse transform="matrix(0.9768 0.214 -0.214 0.9768 36.7616 -70.6759)" fill="#202020" cx="344.869" cy="134.483" rx="18.801" ry="26.204"/>
	
		<ellipse transform="matrix(0.9938 -0.1111 0.1111 0.9938 -12.5507 44.5281)" fill="#161616" cx="393.324" cy="134.895" rx="14.103" ry="20.666"/>
	
		<ellipse transform="matrix(0.9817 0.1905 -0.1905 0.9817 32.3683 -63.8295)" fill="#161616" cx="348.208" cy="136.457" rx="14.104" ry="20.664"/>
	<g>
		<g>
			<g>
				<g>
					
						<ellipse transform="matrix(0.9865 -0.1638 0.1638 0.9865 -17.1616 66.2177)" fill="#B9B9BA" cx="392.856" cy="137.149" rx="11.696" ry="18.024"/>
				</g>
			</g>
			<g>
				<g>
					<path fill="#FFFFFF" d="M404.395,135.233c2.47,14.882-20.872,17.847-23.076,3.833c-1.547-9.834,2.212-18.638,8.586-19.696
						C396.276,118.312,402.762,125.413,404.395,135.233z"/>
				</g>
			</g>
			<g>
				<g>
					<path fill="#505051" d="M395.86,155.252c-6.548,1.087-13.223-6.148-14.879-16.133c-1.657-9.981,2.319-18.988,8.871-20.074
						c6.547-1.089,13.222,6.148,14.88,16.13C406.388,145.16,402.412,154.166,395.86,155.252z M389.958,119.694
						c-6.177,1.025-9.903,9.69-8.303,19.314c1.599,9.624,7.923,16.621,14.099,15.596c6.178-1.026,9.9-9.689,8.302-19.317
						C402.459,125.664,396.134,118.669,389.958,119.694z"/>
				</g>
			</g>
		</g>
		<g>
			<g>
				<g>
					
						<ellipse transform="matrix(0.9865 -0.1639 0.1639 0.9865 -17.4117 66.6633)" fill="#2E44FF" cx="395.393" cy="138.878" rx="6.82" ry="9.238"/>
				</g>
			</g>
			<g>
				<g>
					<path fill="#03147A" d="M396.959,148.317c-3.894,0.645-7.765-3.061-8.631-8.265c-0.863-5.208,1.604-9.966,5.497-10.615
						c3.895-0.645,7.77,3.061,8.634,8.268C403.323,142.91,400.857,147.672,396.959,148.317z M393.934,130.091
						c-3.526,0.584-5.735,5.004-4.931,9.851c0.807,4.842,4.327,8.31,7.849,7.727c3.525-0.587,5.737-5.003,4.932-9.85
						C400.98,132.971,397.459,129.503,393.934,130.091z"/>
				</g>
			</g>
		</g>
		<g>
			<g>
				<g>
					
						<ellipse transform="matrix(0.9865 -0.1635 0.1635 0.9865 -17.4862 66.7277)" fill="#010521" cx="396.721" cy="139.617" rx="3.982" ry="5.16"/>
				</g>
			</g>
		</g>
		<g>
			<g>
				<g>
					<path fill="#FFFFFF" d="M399.663,134.707c0.185,1.095-0.487,2.12-1.498,2.285c-1.01,0.169-1.974-0.583-2.158-1.678
						c-0.18-1.095,0.492-2.116,1.498-2.285C398.519,132.864,399.482,133.612,399.663,134.707z"/>
				</g>
			</g>
		</g>
	</g>
	<g>
		<g>
			<g>
				<g>
					
						<ellipse transform="matrix(0.9859 0.1673 -0.1673 0.9859 28.1555 -56.4717)" fill="#B9B9BA" cx="349.261" cy="138.879" rx="11.695" ry="18.021"/>
				</g>
			</g>
			<g>
				<g>
					<path fill="#FFFFFF" d="M360.792,140.836c-2.521,14.87-25.553,10.05-23.061-3.913c1.748-9.799,8.176-16.895,14.545-15.813
						C358.643,122.188,362.457,131.02,360.792,140.836z"/>
				</g>
			</g>
			<g>
				<g>
					<path fill="#505051" d="M346.193,156.973c-6.546-1.11-10.492-10.131-8.8-20.108c1.694-9.978,8.393-17.192,14.939-16.083
						c6.543,1.11,10.49,10.13,8.798,20.107C359.438,150.867,352.737,158.083,346.193,156.973z M352.221,121.434
						c-6.174-1.049-12.524,5.925-14.154,15.546c-1.632,9.616,2.062,18.295,8.236,19.344c6.171,1.045,12.523-5.929,14.155-15.545
						C362.088,131.159,358.394,122.48,352.221,121.434z"/>
				</g>
			</g>
		</g>
		<g>
			<g>
				<g>
					
						<ellipse transform="matrix(0.9859 0.1672 -0.1672 0.9859 28.1821 -56.9262)" fill="#2E44FF" cx="352.11" cy="138.878" rx="6.819" ry="9.239"/>
				</g>
			</g>
			<g>
				<g>
					<path fill="#03147A" d="M350.508,148.313c-3.893-0.66-6.343-5.43-5.459-10.634c0.883-5.2,4.768-8.894,8.66-8.233
						c3.894,0.66,6.344,5.43,5.46,10.63C358.289,145.279,354.401,148.974,350.508,148.313z M353.6,130.095
						c-3.522-0.6-7.055,2.857-7.877,7.699c-0.822,4.843,1.375,9.271,4.896,9.87c3.522,0.595,7.057-2.861,7.879-7.704
						C359.319,135.118,357.121,130.69,353.6,130.095z"/>
				</g>
			</g>
		</g>
		<g>
			<g>
				<g>
					
						<ellipse transform="matrix(0.9859 0.1673 -0.1673 0.9859 28.1071 -57.1559)" fill="#010521" cx="353.385" cy="138.292" rx="3.984" ry="5.159"/>
				</g>
			</g>
		</g>
		<g>
			<g>
				<g>
					
						<ellipse transform="matrix(0.986 0.1669 -0.1669 0.986 27.4028 -57.515)" fill="#FFFFFF" cx="355.942" cy="134.302" rx="1.854" ry="2.008"/>
				</g>
			</g>
		</g>
	</g>
	<g>
		<path fill="#262626" d="M392.646,96.585c0,0,8.906,2.435,12.247,13.76c-3.575-4.937-10.15-9.78-14.819-10.818
			C389.21,98.142,391.176,96.017,392.646,96.585z"/>
	</g>
	<g>
		<path fill="#262626" d="M351.297,95.506c0,0-8.904,2.433-12.247,13.758c3.578-4.937,10.152-9.779,14.822-10.818
			C354.738,97.063,352.768,94.936,351.297,95.506z"/>
	</g>
	<g>
		<path fill="#878686" d="M376.522,157.058c-8.05-4.616-16.946-0.914-17.036-0.875c0,0,3.7-2.082,8.733-2.116
			C372.774,154.031,376.522,157.058,376.522,157.058z"/>
	</g>
	<g>
		<path fill="#821200" d="M349.592,192.193c4.729,3.46,6.805,13.034,10.611,18.337c3.806,5.308,15.339,6.921,22.949-0.883
			c6.065-6.218,8.765-13.764,9.69-19.644C387.767,188.502,355.934,187.351,349.592,192.193z"/>
		<path fill="#A21200" d="M369.788,188.76c-8.743,0.223-17.239,1.175-20.196,3.433c4.729,3.46,6.805,13.034,10.611,18.337
			c0.307,0.427,0.668,0.83,1.068,1.206C360.836,203.153,363.433,194.125,369.788,188.76z"/>
		<path fill="#5F0000" d="M370.612,215.354h-0.002c-4.549,0-8.643-1.771-10.688-4.62c-1.556-2.169-2.84-5.073-4.083-7.88
			c-1.822-4.113-3.704-8.372-6.452-10.38l-0.374-0.272l0.368-0.281c4.209-3.214,18.674-3.563,24.696-3.563
			c8.083,0,16.368,0.576,18.861,1.313l0.291,0.088l-0.047,0.299c-0.687,4.363-2.864,12.739-9.783,19.832
			C379.963,213.415,375.421,215.354,370.612,215.354z M350.177,192.208c2.687,2.212,4.52,6.356,6.296,10.365
			c1.227,2.777,2.496,5.649,4.012,7.757c1.916,2.673,5.795,4.332,10.125,4.332h0.002c4.622,0,8.987-1.866,12.295-5.257
			c6.621-6.791,8.817-14.79,9.544-19.148c-2.477-0.606-9.785-1.209-18.373-1.209C362.006,189.048,353.371,190.196,350.177,192.208z"
			/>
	</g>
	<g>
		<g>
			<path fill="#E8362D" d="M383.152,209.647c3.488-3.576,5.858-7.585,7.421-11.468c-4.066-0.707-11.267-1.294-17.108,1.74
				c-6.267-1.959-12.448,1.406-15.088,7.55c0.572,1.109,1.173,2.15,1.826,3.06C364.008,215.838,375.542,217.451,383.152,209.647z"/>
			<path fill="#FF5545" d="M375.195,211.802c6.26-1.878,10.811-7.719,13.161-13.94c-4.157-0.48-9.999-0.483-14.892,2.059
				c-5.63-1.759-11.183,0.787-14.17,5.775C362.413,211.591,368.801,214.356,375.195,211.802z"/>
			<path fill="#5F0000" d="M370.612,215.354h-0.002c-4.549,0-8.643-1.771-10.688-4.62c-0.597-0.833-1.204-1.851-1.855-3.107
				l-0.075-0.146l0.065-0.15c2.206-5.126,6.734-8.314,11.817-8.314c1.188,0,2.385,0.181,3.558,0.534
				c2.972-1.517,6.589-2.285,10.753-2.285c2.085,0,4.255,0.192,6.444,0.572l0.423,0.073l-0.157,0.396
				c-1.778,4.408-4.298,8.302-7.495,11.582C379.963,213.415,375.421,215.354,370.612,215.354z M358.759,207.454
				c0.606,1.16,1.171,2.105,1.727,2.876c1.916,2.673,5.795,4.332,10.125,4.332h0.002c4.622,0,8.987-1.866,12.295-5.257
				c3.035-3.115,5.451-6.798,7.182-10.957c-2.007-0.327-3.993-0.492-5.903-0.492c-4.111,0-7.663,0.764-10.561,2.269l-0.127,0.065
				l-0.135-0.042c-1.151-0.357-2.325-0.542-3.488-0.542C365.122,199.708,360.877,202.673,358.759,207.454z"/>
		</g>
	</g>
	<g>
		<path fill="#5F0000" d="M369.379,205.676c0,0,1.112-4.394,5.543-6.801l0.331,0.61
			C371.044,201.771,369.395,205.638,369.379,205.676z"/>
	</g>
	<g>
		<path fill="#878686" d="M356.074,216.768c-2.515-3.898-7.469-8.318-7.519-8.361c0,0,5.536,4.009,8.101,7.988L356.074,216.768z"/>
	</g>
	<g>
		<path fill="#878686" d="M390.53,217.432c2.516-3.898,7.47-8.318,7.521-8.364c0,0-5.534,4.009-8.104,7.987L390.53,217.432z"/>
	</g>
	<g>
		<path fill="#D1D1D1" d="M331.486,179.509c0,0,2.474,12.419,16.721,15.107c12.226,2.308,17.992-4.612,17.992-4.612
			c3.685,3.81,13.355,6.467,22.911,5.123c8.091-1.141,16.098-5.154,20.322-13.775L331.486,179.509z"/>
		<path fill="#F3F3F3" d="M331.486,178.471c0,0,4.743,11.721,18.105,12.224c9.627,0.361,15.592-6.663,15.592-6.663
			c3.685,3.81,14.065,8.702,23.623,7.354c8.088-1.141,16.302-4.397,20.626-10.035L331.486,178.471z"/>
		<path fill="#878686" d="M384.002,195.826c-7.793,0-14.713-2.404-17.793-5.327c-1.264,1.279-7.199,6.51-18.065,4.455
			c-14.311-2.7-16.972-15.254-16.998-15.38l0.68-0.135c0.022,0.123,2.604,12.224,16.446,14.835
			c11.887,2.243,17.604-4.424,17.661-4.493l0.246-0.296l0.269,0.277c3.433,3.552,12.831,6.402,22.611,5.019
			c9.286-1.306,16.413-6.129,20.065-13.58l0.618,0.304c-3.755,7.661-11.062,12.623-20.587,13.963
			C387.42,195.714,385.688,195.826,384.002,195.826z"/>
	</g>
	<g>
		<path fill="#878686" d="M329.048,184.8c0,0,0-2.984,2.556-5.78c2.074-2.266,4.625-1.59,4.625-1.59
			C336.028,177.442,331.249,177.761,329.048,184.8z"/>
	</g>
	<g>
		<path fill="#878686" d="M411.307,184.792c-1.187-4.098-4.953-4.359-4.992-4.362c0,0,1.828-0.684,3.311,0.626
			C411.307,182.542,411.307,184.792,411.307,184.792z"/>
	</g>
	<g>
		<path fill="#878686" d="M365.911,190.192c-2.001-3.061-1.465-11.944-1.44-12.32l0.689,0.042
			c-0.006,0.088-0.545,9.033,1.329,11.897L365.911,190.192z"/>
	</g>
	<g>
		<ellipse fill="#3B0101" cx="365.45" cy="171.724" rx="17.702" ry="10.092"/>
		<path fill="#590000" d="M383.152,171.724c0,5.572-35.403,5.572-35.403,0s7.925-10.093,17.702-10.093
			S383.152,166.152,383.152,171.724z"/>
		<path fill="#1D0101" d="M365.451,182.162c-9.953,0-18.05-4.685-18.05-10.438c0-5.757,8.097-10.438,18.05-10.438
			c9.952,0,18.049,4.681,18.049,10.438C383.5,177.477,375.403,182.162,365.451,182.162z M365.451,161.978
			c-9.57,0-17.356,4.374-17.356,9.747s7.786,9.743,17.356,9.743s17.356-4.37,17.356-9.743S375.021,161.978,365.451,161.978z"/>
	</g>
	<ellipse fill="#964747" cx="365.324" cy="164.112" rx="9.259" ry="0.864"/>
	
		<ellipse transform="matrix(0.9786 -0.2058 0.2058 0.9786 -35.161 81.6697)" fill="#F98B85" cx="374.99" cy="209.847" rx="2.724" ry="1.041"/>
	
		<ellipse transform="matrix(0.9785 -0.2065 0.2065 0.9785 -35.4013 81.1527)" fill="#F98B85" cx="371.123" cy="210.193" rx="0.893" ry="0.608"/>
</g>
</svg>
