<?xml version="1.0" encoding="utf-8"?>
<!-- Generator: Adobe Illustrator 16.0.0, SVG Export Plug-In . SVG Version: 6.00 Build 0)  -->
<!DOCTYPE svg PUBLIC "-//W3C//DTD SVG 1.1//EN" "http://www.w3.org/Graphics/SVG/1.1/DTD/svg11.dtd">
<svg version="1.1" id="Layer_1" xmlns="http://www.w3.org/2000/svg" xmlns:xlink="http://www.w3.org/1999/xlink" x="0px" y="0px"
	 width="768px" height="430px" viewBox="0 0 768 430" enable-background="new 0 0 768 430" xml:space="preserve">
<path d="M321.452,287.539c0,0-16.323,5.826-22.175,2.621c-9.794-5.362-21.75-12.56-47.067-7.123
	c-17.917,3.849-21.097,27.498-21.942,38.558c-3.376,44.147,18.746,57.578,36.007,59.338c55.177,5.626,65.263-33.757,65.263-33.757
	L321.452,287.539z"/>
<path d="M458.874,287.539c0,0,16.322,5.826,22.175,2.621c9.793-5.362,21.742-14.86,47.065-7.123
	c15.343,4.69,21.096,27.498,21.942,38.558c3.376,44.147-18.744,57.578-36.007,59.338c-55.176,5.626-65.265-33.757-65.265-33.757
	L458.874,287.539z"/>
<path d="M389.029,397.248c69.926,3.678,80.728-73.752,81.475-107.459c2.146-96.677-79.368-99.353-79.368-99.353
	s-82.07,3.984-87.729,92.601C301.133,318.651,303.407,392.748,389.029,397.248z"/>
<ellipse cx="317.473" cy="71.495" rx="42.759" ry="45.009"/>
<ellipse cx="489.633" cy="96.25" rx="42.759" ry="45.009"/>
<path fill="#FFFEEE" d="M286.529,132.82c8.623-38.869,36.037-107.836,129.402-92.832c31.507,5.064,114.644,51.682,83.267,143.467
	c-12.94,37.853-45.572,35.444-45.572,35.444s-27.005,27.568-75.39,18.566c-38.421-7.147-54.574-33.194-54.574-33.194
	S274.714,186.081,286.529,132.82z"/>
<ellipse fill="#FFFEEE" cx="390.613" cy="322.901" rx="37.694" ry="42.841"/>
<path fill="#FFFEEE" d="M514.985,380.936c-6.955,0.709-13.19,0.698-18.781,0.158c-4.149-8.114-6.571-17.857-6.571-28.322
	c0-28.278,17.633-51.197,39.383-51.197c7.35,0,14.245,2.621,20.132,7.19c1.092,4.825,1.575,9.417,1.846,12.839
	C554.368,365.744,532.246,379.179,514.985,380.936z"/>
<path fill="#FFFEEE" d="M266.275,380.936c6.955,0.709,13.189,0.698,18.78,0.158c4.151-8.114,6.571-17.857,6.571-28.322
	c0-28.276-17.632-51.197-39.383-51.197c-7.347,0-14.245,2.621-20.13,7.19c-1.093,4.825-1.575,9.417-1.847,12.839
	C226.892,365.744,249.014,379.179,266.275,380.936z"/>
<ellipse transform="matrix(0.3022 -0.9532 0.9532 0.3022 154.9057 532.6509)" cx="441.269" cy="160.52" rx="44.73" ry="35.728"/>
<ellipse fill="#F2E487" cx="441.248" cy="157.708" rx="23.591" ry="25.462"/>
<ellipse cx="441.248" cy="157.708" rx="17.723" ry="19.129"/>
<ellipse fill="#FFFFFF" cx="440.403" cy="149.417" rx="8.721" ry="6.189"/>
<circle fill="#FFFFFF" cx="452.781" cy="155.605" r="3.657"/>
<ellipse transform="matrix(-0.1548 -0.9879 0.9879 -0.1548 251.7103 512.4769)" cx="345.072" cy="148.567" rx="44.73" ry="35.728"/>
<ellipse fill="#F2E487" cx="345.041" cy="146.885" rx="23.589" ry="25.461"/>
<ellipse cx="345.041" cy="146.885" rx="17.722" ry="19.129"/>
<ellipse fill="#FFFFFF" cx="344.197" cy="140.696" rx="8.721" ry="6.189"/>
<circle fill="#FFFFFF" cx="356.574" cy="146.885" r="3.657"/>
<path fill="#FFFEEE" d="M346.166,176.837c0,0,24.192-31.077,54.012-22.638c31.385,8.882,31.506,43.321,31.506,43.321
	s-15.656,38.611-54.574,27.006C345.041,214.961,346.166,176.837,346.166,176.837z"/>
<ellipse transform="matrix(0.1905 -0.9817 0.9817 0.1905 139.4161 529.2509)" cx="390.61" cy="180.093" rx="10.549" ry="17.722"/>
<path d="M448.125,239.272c-38.539-2.932-28.83,71.648-35.133,88.212c-4.314,11.338-24.26,11.814-23.958,42.196
	c0.168,17.083,7.049,34.321,59.091,34.319c37.799,0,47.363-19.412,45.009-33.194c-3.938-23.067-16.393-31.656-20.575-42.759
	c-5.628-14.936-5.868-63.575-5.868-63.575S466.636,240.682,448.125,239.272z"/>
<path d="M344.197,239.272c-38.539-2.932-28.829,71.648-35.131,88.212c-4.314,11.338-24.26,11.814-23.959,42.196
	c0.168,17.083,7.048,34.321,59.09,34.319c37.797,0,47.363-19.412,45.009-33.194c-3.938-23.067-16.393-31.656-20.576-42.759
	c-5.627-14.936-5.867-63.575-5.867-63.575S362.71,240.682,344.197,239.272z"/>
<path d="M383.904,202.107c17.347,3.986,23.506-2.5,23.506-2.5s-7.44,11.412-24.987,7.379c-13.709-3.149-16.364-17.26-16.364-17.26
	S368.9,198.66,383.904,202.107z"/>
</svg>
