<svg version="1.1" id="Layer_1" xmlns="http://www.w3.org/2000/svg" xmlns:xlink="http://www.w3.org/1999/xlink" viewBox="0 0 768 430" enable-background="new 0 0 768 430" xml:space="preserve">
<g>
	<g>
		<path fill="#D1D3D4" d="M386.768,173.533c-127.46,1.156-230.36,49.609-229.828,108.227
			c0.53,58.615,104.288,105.199,231.753,104.047c127.46-1.152,230.359-49.605,229.827-108.223
			C617.989,218.965,514.232,172.381,386.768,173.533z"/>
	</g>
	<g>
		<g>
			<path fill="#E6E7E8" d="M656.739,250.336c0.617,68.318-119.319,124.801-267.889,126.145
				c-148.571,1.346-269.51-52.955-270.129-121.281c-0.618-68.322,119.317-124.798,267.889-126.144
				C535.182,127.709,656.118,182.008,656.739,250.336z"/>
		</g>
		<g>
			<path fill="#BCBEC0" d="M579.271,251.035c0.434,48.646-84.957,88.861-190.741,89.816
				c-105.787,0.957-191.898-37.699-192.339-86.352c-0.442-48.647,84.955-88.861,190.738-89.817
				C492.722,163.723,578.828,202.386,579.271,251.035z"/>
		</g>
	</g>
	<g>
		<path fill="#B23F1B" d="M231.741,256.324c-12.372,4.938-22.918,7.826-18.982,21.008c3.936,13.182,14.266,24.045,36.668,32.947
			c22.4,8.898,60.766,22.668,118.068,25.965c57.305,3.303,94.965-5.293,119.385-10.977c31.481-7.338,76.553-32.604,81.061-53.795
			c4.506-21.188-50.609-10.111-50.609-10.111L231.741,256.324z"/>
	</g>
	<g>
		<g>
			<path fill="#EC902F" d="M278.419,290.148c8.651,3.84,28.695,11.883,41.842,14.895c13.145,3.014,28.827,5.027,37.65,6.123
				c8.819,1.098,23.918,3.111,33.902,3.414c9.985,0.301,19.386,0.408,27.004-2.006c7.612-2.422,25.819-2.779,35.992-3.854
				c10.172-1.072,28.715-7.307,33.98-9.508c5.269-2.201,7.826-0.855,13.282-3.84c5.459-2.99,36.515-22.162,45.516-33.404
				c5.276-6.59,7.081-12.637,7.925-20.127c-0.328-16.711-3.036-20.33-11.066-26.124c-9.231-6.652-165.155-70.706-317.396,1.667
				c-2.253,9.832-3.538,17.9-2.948,24.691c2.687,6.209,6.091,11.607,9.594,17.543C238.867,268.381,269.77,286.316,278.419,290.148z"
				/>
		</g>
		<g>
			<path fill="#FFD477" d="M547.588,261.969c-9.001,11.242-40.057,30.414-45.516,33.404c-5.456,2.984-8.014,1.639-13.282,3.84
				c-5.266,2.201-23.809,8.436-33.98,9.508c-10.173,1.074-28.38,1.432-35.992,3.854c-7.618,2.414-17.019,2.307-27.004,2.006
				c-9.984-0.303-25.083-2.316-33.902-3.414c-8.823-1.096-24.505-3.109-37.65-6.123c-13.147-3.012-33.191-11.055-41.842-14.895
				c-8.649-3.832-39.552-21.768-44.723-30.529c-3.503-5.936-6.908-11.334-9.594-17.543c0.197,2.291,0.611,4.438,1.271,6.455
				c2.618,8.004,1.673,11.734,3.668,16.418c2.004,4.68,16.619,29.414,61.976,43.396c45.355,13.979,45.929,12.213,56.512,13.293
				c10.582,1.078,40.268,3.748,54.073,3.621c13.804-0.129,64.003-2.344,72.507-4.184c8.504-1.838,23.61-9.021,30.644-10.652
				c7.034-1.627,21.809-13.314,27.268-15.711c5.464-2.402,23.12-20.379,23.486-44.469c0.047-3.127,0.055-5.91,0.005-8.402
				C554.669,249.332,552.864,255.379,547.588,261.969z"/>
		</g>
	</g>
	<g>
		<path fill="#DD7C1A" d="M544.63,204.813c-0.683-4.62-2.888-7.971-6.792-10.981c-7.856-6.055-163.852-70.745-295.859-8.28
			c-7.799,9.659-11.706,16.019-13.37,22.099c-1.333,4.871-1.231,9.563-0.537,15.63c1.559,13.634,27.656,35.118,33.544,39.521
			c5.889,4.404,7.858,6.613,13.716,7.674c5.857,1.064,15.58,8.588,20.775,7.979c5.194-0.6,8.947,3.824,13.039,4.344
			c4.088,0.52,15.064,3.023,19.157,4.096c4.095,1.078,15.404-1.064,20.063,0.75c4.658,1.812,10.553,1.848,16.828,2.908
			c6.279,1.061,10.588,0.318,17.417,1.094c6.831,0.775,17.266-0.012,24.508-0.221c7.239-0.205,25.876-2.598,40.194-5.373
			c14.321-2.777,26.399-6.648,32.379-7.818c5.978-1.166,28.987-13.072,34.939-17.305c5.943-4.23,23.064-20.863,27.557-37.242
			C544.451,215.452,545.319,209.483,544.63,204.813z"/>
	</g>
	<g>
		<g>
			<path fill="#FFD477" d="M518.643,244.316c-21.894,14.586-92.626,30.205-129.439,29.949c-36.818-0.254-52.41-3.047-61.823-5.02
				c-9.42-1.971-27.072-5.334-35.621-8.783s-24.455-8.59-35.672-14.947c-11.219-6.359-25.268-19.611-30.651-27.922
				c-4.127-6.37-5.974-13.338-5.842-21.998c-1.409,5.134-1.296,10.082-0.567,16.479c1.645,14.374,29.163,37.036,35.373,41.677
				c6.21,4.645,8.286,6.975,14.464,8.094s16.43,9.057,21.909,8.418c5.477-0.639,9.435,4.027,13.747,4.572
				c4.312,0.555,15.888,3.186,20.206,4.322c4.32,1.137,16.241-1.129,21.154,0.789c4.912,1.914,11.128,1.953,17.747,3.068
				c6.622,1.115,11.166,0.342,18.366,1.154c7.203,0.818,18.21-0.018,25.846-0.23c7.639-0.221,27.292-2.746,42.391-5.672
				c15.099-2.928,27.838-7.008,34.14-8.238s30.568-13.787,36.84-18.254c6.275-4.457,24.33-21.996,29.064-39.272
				c2.384-8.685,3.299-14.979,2.576-19.906C548.981,211.649,537.714,231.607,518.643,244.316z"/>
		</g>
		<g>
			<path fill="#EC902F" d="M225.436,217.594c5.383,8.311,19.433,21.562,30.651,27.922c11.217,6.357,27.124,11.498,35.672,14.947
				s26.2,6.812,35.621,8.783c9.414,1.973,25.005,4.766,61.823,5.02c36.813,0.256,107.546-15.363,129.439-29.949
				c19.071-12.709,30.339-32.667,34.205-51.719c-0.72-4.869-3.05-8.401-7.167-11.578c-8.281-6.386-172.785-74.604-311.993-8.729
				c-8.221,10.183-12.34,16.892-14.095,23.304C219.461,204.255,221.308,211.224,225.436,217.594z"/>
		</g>
	</g>
	<g>
		<path fill="#DD7C1A" d="M546.286,161.507c-5.907-11.454-20.396-20.693-24.781-23.821c-11.146-7.735-59.026-26.356-145.476-28.634
			c-27.809,0.53-89.553,1.92-128.253,28.979c-11.252,7.865-17.134,16.434-19.635,24.783c-6.102,20.368,7.935,39.416,13.3,43.708
			c7.565,6.05,25.839,16.735,31.418,18.721c5.581,1.992,12.321,8.979,15.291,9.135c2.968,0.164,10.375-1.02,15.592,1.529
			c5.216,2.551,7.632,3.084,13.011,3.223c5.38,0.137,10.409,2.312,15.608,3.383c5.205,1.062,12.261,2.486,18.936,2.051
			c6.672-0.43,20.604,1.857,29.133,1.779c8.527-0.08,18.712-1.838,25.206-1.531c6.493,0.314,8.366,1.967,11.415,1.199
			c3.058-0.773,10.135-2.23,11.526-2.238c1.392-0.01,9.733-0.648,13.612-1.789c3.889-1.15,8.447-4.67,13.173-4.713
			c4.729-0.043,14.172-1.793,18.055-3.225c3.88-1.422,7.617-3.686,13.718-5.688c6.106-2.002,19.612-9.87,25.238-13.347
			c5.625-3.483,29.853-21.04,35.629-38.759C549.666,171.146,548.679,166.145,546.286,161.507z"/>
	</g>
	<g>
		<g>
			<path fill="#FFD477" d="M556.062,149.729c0.223,10.008-0.422,16.528-12.957,27.985c-15.146,13.844-63.681,38.268-82.449,41.424
				c-18.77,3.155-88.615,9.074-103.313,7.84c-14.697-1.24-37.238-3.973-53.329-7.742c-16.085-3.772-51.98-10.299-72.567-35.176
				c-9.578-11.571-11.741-23.463-11.279-32.952c-6.444,21.502,8.375,41.61,14.043,46.144c7.988,6.389,27.277,17.669,33.169,19.771
				c5.896,2.1,13.009,9.474,16.144,9.64c3.135,0.17,10.955-1.072,16.462,1.619c5.505,2.691,8.059,3.252,13.738,3.396
				c5.678,0.146,10.986,2.445,16.479,3.568c5.495,1.129,12.947,2.623,19.993,2.172c7.042-0.451,21.751,1.959,30.757,1.873
				c9.001-0.08,19.756-1.941,26.611-1.609c6.854,0.334,8.83,2.074,12.059,1.262c3.219-0.811,10.695-2.348,12.164-2.359
				c1.469-0.018,10.275-0.682,14.371-1.895c4.105-1.215,8.917-4.928,13.91-4.975c4.994-0.041,14.958-1.895,19.059-3.402
				c4.101-1.506,8.043-3.891,14.486-6.002c6.44-2.117,20.706-10.417,26.649-14.096c5.936-3.677,31.512-22.212,37.609-40.919
				C559.63,159.906,558.591,154.626,556.062,149.729z"/>
		</g>
		<g>
			<path fill="#EC902F" d="M231.446,184.061c20.587,24.877,56.482,31.404,72.567,35.176c16.09,3.77,38.632,6.502,53.329,7.742
				c14.698,1.234,84.543-4.685,103.313-7.84c18.769-3.157,67.304-27.58,82.449-41.424c12.535-11.457,13.18-17.977,12.957-27.985
				c-6.238-12.097-21.541-21.85-26.165-25.151c-11.772-8.167-62.322-27.828-153.586-30.233
				c-29.364,0.56-94.552,2.031-135.414,30.597c-11.878,8.303-18.091,17.351-20.729,26.167
				C219.706,160.598,221.869,172.49,231.446,184.061z"/>
		</g>
	</g>
	<g>
		<path fill="#B23F1B" d="M307.112,128.551c-0.039,3.335,2.009,5.854-8.499,13.001c-10.509,7.143-14.791,10.119-19.07,13.095
			c-4.281,2.975-15.386,8.948-21.996,14.296c-6.61,5.346-12.448,13.689-13.874,18.499c-1.422,4.811-0.55,5.03,0.099,11.779
			c0.647,6.75,3.764,10.247,3.806,14.798c0.04,4.553-4.137,11.741-5.732,15.764c-1.594,4.023-2.655,15.15,0.176,19.676
			c2.833,4.527,6.693,9.193,3.968,16.559c-2.722,7.371-1.892,17.957-3.637,19.842c-1.745,1.896-6.473-1.199-5.66,2.125
			c0.813,3.322,23.722,12.766,22.083,10.525c-3.692-5.053-4.925-24.236-2.955-31.533c1.235-4.568-5.951-13.062-6.377-17.168
			c-0.432-4.105,1.089-7.102,4.652-13.498c3.565-6.395,5.466-13.445,5.051-16.133c-0.417-2.687-7.122-12.026-5.982-16.148
			c1.138-4.121,4.654-10.37,6.851-10.976c2.195-0.609,5.109-3.13,9.213-4.344c4.103-1.211,12.552-2.953,20.951-5.574
			c8.395-2.622,26.339-10.223,33.014-8.326c6.673,1.897,16.105,5.584,17.7,8.774c1.596,3.188,8.726,12.132,11.105,15.441
			s12.266,8.503,16.571,13.604c4.306,5.101,9.189,20.43,11.383,24.518c2.191,4.096,3.969,5.645,3.009,8.004
			c-0.958,2.359-4.241,7.086-4.202,11.59c0.042,4.506,3.103,18.377,2.733,20.729c-0.371,2.357-1.103,8.234-0.694,9.602
			c0.4,1.367-2.121,3.609-2.29,6.715c-0.171,3.1-0.308,13.334-1.226,15.834c-2.692,7.285-1.168,11.27-2.938,12.863
			c-1.763,1.592-2.232,0.693-3.968,3.059c-1.743,2.367,29.222,5.219,31.261,3.047c2.034-2.172-4.122-1.346-5.536-5.449
			c-1.404-4.096-1.932-5-0.816-11.08c1.119-6.08,3.729-11.82,4.253-18.41c0.523-6.588-4.448-28.244-3.505-32.365
			c0.941-4.121-0.281-10.631,0.27-14.941c0.549-4.312,2.811-14.617,2.959-17.822c0.145-3.197-2.637-11.22,1.635-19.669
			c4.274-8.446,10.827-30.924,15.261-38.798c4.429-7.871,10.534-12.374,16.214-12.422c5.68-0.054,18.998-1.601,24.176-3.409
			c5.17-1.81,11.216-4.411,15.423-4.937c4.206-0.53,19.671-0.181,24.534,1.098c4.858,1.277,24.545,2.568,28.805,2.677
			c4.261,0.108,8.204-2.131,11.883-1.429c3.676,0.7,16.989,7.311,16.462,13.176c-0.528,5.867-7.946,19.25-11.05,22.213
			c-3.108,2.968-4.884,5.565-4.803,5.495c0.071-0.068,2.788,1.746,5.607,4.802c2.813,3.058,7.404,7.203,6.621,9.853
			c-0.784,2.649-0.332,6.513-2.746,10.355c-2.411,3.836-4.459,10.756-5.787,12.621c2.921,0.816,7.111,3.861,7.864,5.811
			c0.75,1.955,4.202,6.502,5.081,12.225c0.877,5.715-1.733,17.066-2.692,19.332c-0.958,2.256-11.275,19.943-11.747,20.463
			c-0.469,0.516,3.338,2.223,10.75-1.27c7.405-3.49,20.175-20.236,21.362-24.516c1.375-4.961,2.475-10.08-8.405-14.775
			c-1.686-2.027-0.237-4.488-2.529-8.967c-2.29-4.484-7.893-13.098-7.859-16.623c0.044-3.526,3.577-13.006,2.759-16.915
			c-0.816-3.909-1.767-16.578-7.369-21.886c3.7-4.759,9.938-14.483,10.039-23.147c0.099-8.665-7.179-23.923-17.33-28.937
			c-12.828-6.335-18.475-1.94-28.502-3.56c-5.021-0.811-29.145-3.954-35.816-6.146c-6.682-2.191-23.414-12.418-25.395-14.944
			c-1.979-2.529-0.583-7.689-12.327-9.678c-13.387-2.27-22.128-0.504-25.359-0.172c-3.228,0.332-39.007,9.833-49.792,7.973
			c-10.788-1.859-30.192-6.468-62.917-5.427c-7.958,0.253-26.924,3.304-29.225,8.908c-2.299,5.6,17.158,4.271,22.182,7.749
			C299.292,119.125,307.154,124.561,307.112,128.551z"/>
	</g>
	<g>
		<path fill="#DD996B" d="M381.821,233.748c-0.392,0-0.758-0.238-0.907-0.631c-0.413-1.09-1.18-3.865-2.066-7.076
			c-1.328-4.794-3.142-11.358-3.891-12.501c-1.209-1.844-14.386-12.848-18.802-15.701c-2.971-1.918-8.027-8.665-12.089-14.085
			c-2.103-2.805-3.919-5.23-4.912-6.269c-2.688-2.816-16.639-7.373-24.542-6.719c-3.451,0.285-7.587,2.056-13.315,4.504
			c-6.938,2.97-16.442,7.038-29.742,10.438c-0.521,0.13-1.049-0.181-1.178-0.701c-0.132-0.519,0.177-1.047,0.699-1.181
			c13.153-3.362,22.575-7.394,29.459-10.341c5.894-2.52,10.15-4.345,13.919-4.656c8.219-0.675,22.794,3.85,26.103,7.312
			c1.07,1.123,2.921,3.59,5.062,6.447c3.759,5.018,8.91,11.891,11.588,13.619c4.392,2.838,17.902,14.033,19.371,16.265
			c0.855,1.299,2.252,6.228,4.134,13.048c0.843,3.037,1.634,5.902,2.019,6.91c0.186,0.5-0.065,1.061-0.567,1.248
			C382.05,233.723,381.939,233.748,381.821,233.748z"/>
	</g>
	<g>
		<path fill="#DD996B" d="M397.528,204.788c-0.149,0-0.303-0.025-0.447-0.083c-0.674-0.242-1.014-0.988-0.768-1.658
			c1.371-3.736,2.623-7.826,3.948-12.156c4.646-15.171,9.917-32.371,22.285-37.33c0.664-0.266,1.419,0.055,1.682,0.72
			c0.269,0.662-0.056,1.418-0.715,1.682c-11.229,4.499-16.3,21.068-20.778,35.686c-1.333,4.364-2.598,8.486-3.994,12.29
			C398.55,204.464,398.052,204.788,397.528,204.788z"/>
	</g>
	<g>
		<path fill="#DD996B" d="M555.645,159.855c-0.622,0-1.167-0.449-1.278-1.084c-0.975-5.922-9.298-10.981-14.604-11.862
			c-3.465-0.576-6.548,0.325-9.529,1.199c-1.532,0.447-2.971,0.873-4.437,1.09c-2.323,0.342-14.578-0.737-31.635-2.304
			c-10.16-0.933-20.66-1.897-22.465-1.799c-1.926,0.104-4.922,1.436-8.087,2.842c-3.409,1.512-6.937,3.079-10.196,3.672
			c-4.037,0.729-11.097,0.926-16.776,1.086c-3.15,0.085-5.872,0.164-6.967,0.311c-0.706,0.095-1.358-0.405-1.452-1.109
			c-0.097-0.709,0.4-1.36,1.113-1.456c1.226-0.164,3.878-0.239,7.236-0.332c5.289-0.149,12.541-0.354,16.382-1.047
			c2.958-0.537,6.339-2.038,9.609-3.49c3.39-1.507,6.592-2.931,8.992-3.059c2.001-0.111,11.659,0.779,22.848,1.805
			c12.835,1.179,28.818,2.646,31.015,2.319c1.29-0.19,2.653-0.59,4.097-1.014c3.104-0.908,6.625-1.939,10.674-1.266
			c6.067,1.007,15.517,6.569,16.737,13.993c0.116,0.707-0.361,1.371-1.068,1.486C555.785,159.848,555.712,159.855,555.645,159.855z"
			/>
	</g>
	<g>
		<path fill="#DD996B" d="M309.916,131.016c-0.41,0-0.758-0.306-0.803-0.724c-0.509-4.839-2.195-6.809-4.345-8.875
			c-2.608-2.51-10.677-8.071-13.723-8.923c-1.229-0.342-3.801-0.672-6.524-1.024c-5.569-0.715-9.625-1.296-11.031-2.261
			c-0.368-0.255-0.462-0.758-0.206-1.126c0.251-0.366,0.753-0.462,1.121-0.209c1.196,0.819,6.473,1.499,10.325,1.993
			c2.903,0.372,5.409,0.693,6.75,1.071c3.51,0.979,11.925,6.921,14.409,9.312c2.31,2.223,4.268,4.501,4.833,9.872
			c0.047,0.447-0.276,0.846-0.719,0.893C309.973,131.016,309.942,131.016,309.916,131.016z"/>
	</g>
	<g>
		<path fill="#FFD85B" d="M399.521,95.364c-7.357,0.718-11.279,2.691-18.896,5.109c-7.619,2.417-9.815,2.879-15.368,5.719
			c-5.556,2.842-8.935,2.285-12.587,4.52c-3.652,2.235-9.205,5.222-10.062,7.873c-0.855,2.652,0.062,5.514,1.398,7.415
			c1.342,1.895,0.723,3.351,2.054,4.516c1.333,1.163,11.025,5.561,16.019,5.666c4.996,0.099,5.131,1.128,9.158,2.411
			c4.019,1.286,7.395,0.96,11.811,2.389c4.42,1.43,7.791,0.958,11.747-0.104c3.955-1.064,4.896-2.687,10.759-4.062
			c5.86-1.375,5.562-1.52,9.36-4.345c3.789-2.822,4.3-3.415,7.366-5.06c3.073-1.644,3.261-2.134,5.798-3.183
			c2.538-1.052,5.562-2.302,9.215-4.099c3.654-1.794,6.642-1.872,7.801-3.129c1.166-1.261,0.617-13.442-1.89-14.448
			c-2.505-1.004-9.837,0.09-17.496-2.339C418.047,97.785,410.526,94.293,399.521,95.364z"/>
	</g>
	<g>
		<path fill="#FFFFFD" d="M391.286,127.162c-0.319,0-0.601-0.24-0.639-0.564c-0.047-0.355,0.203-0.679,0.557-0.724
			c5.729-0.72,18.353-7.449,24.228-10.907c0.593-0.35,1.193-0.705,1.797-1.066c5.271-3.138,11.249-6.7,20.004-9.084
			c0.35-0.094,0.699,0.11,0.796,0.453c0.09,0.347-0.11,0.703-0.455,0.794c-8.584,2.34-14.478,5.853-19.681,8.948
			c-0.608,0.364-1.209,0.722-1.805,1.071c-5.952,3.505-18.786,10.33-24.722,11.075C391.341,127.162,391.314,127.162,391.286,127.162
			z"/>
	</g>
	<g>
		<path fill="#FFFFFD" d="M384.425,127.742c-11.094,0-34.074-6.298-37.741-8.26c-0.316-0.169-0.433-0.56-0.266-0.875
			c0.169-0.314,0.56-0.436,0.875-0.266c3.167,1.697,29.171,8.996,39.116,8.02c0.358-0.034,0.675,0.226,0.708,0.582
			c0.034,0.355-0.226,0.672-0.579,0.707C385.899,127.709,385.188,127.742,384.425,127.742z"/>
	</g>
	<g>
		<path fill="#DD996B" d="M554.788,240.838c-0.395,0-0.761-0.244-0.91-0.635c-1.675-4.496-5.607-8.666-8.768-10.807l-0.762-0.512
			l0.473-0.791c0.554-0.93,4.684-11.236,5.321-13.287c1.168-3.772,1.227-5.746,1.3-8.243c0.012-0.311,0.02-0.634,0.03-0.964
			c0.089-2.493-3.207-8.314-10.57-12.891c-0.449-0.283-0.59-0.881-0.306-1.336c0.277-0.456,0.878-0.594,1.333-0.312
			c7.35,4.573,11.615,11.018,11.483,14.605c-0.014,0.328-0.021,0.647-0.03,0.956c-0.077,2.542-0.141,4.737-1.387,8.76
			c-0.487,1.566-3.811,10.046-5.105,12.9c3.278,2.426,7.106,6.676,8.81,11.244c0.182,0.508-0.072,1.061-0.57,1.248
			C555.014,240.816,554.898,240.838,554.788,240.838z"/>
	</g>
	<g>
		<path fill="#DD996B" d="M555.546,285.49c-0.246,0-0.493-0.094-0.681-0.281c-0.383-0.379-0.383-0.992-0.003-1.371
			c4.657-4.676,7.564-8.779,9.549-17.078l0.043-0.166l0.094-0.145c2.831-4.279,3.925-7.631,3.258-9.965
			c-0.601-2.104-2.564-3.146-4.522-4.035c-0.49-0.223-0.702-0.797-0.481-1.287c0.218-0.484,0.796-0.697,1.281-0.48
			c1.755,0.797,4.685,2.133,5.588,5.268c0.838,2.912-0.277,6.65-3.411,11.428c-2.086,8.592-5.255,13.055-10.027,17.832
			C556.045,285.396,555.797,285.49,555.546,285.49z"/>
	</g>
	<g>
		<path fill="#DD996B" d="M241.502,302.189c-0.191,0-0.381-0.043-0.561-0.127c-14.238-6.865-22.839-14.49-25.562-22.67
			c-1.512-4.529-1.152-9.162,1.037-13.379c0.328-0.639,1.111-0.885,1.743-0.553c0.637,0.322,0.882,1.107,0.554,1.74
			c-1.296,2.5-2.501,6.502-0.88,11.375c2.496,7.488,10.648,14.607,24.231,21.156c0.643,0.307,0.914,1.078,0.602,1.725
			C242.444,301.916,241.982,302.189,241.502,302.189z"/>
	</g>
	<g>
		<path fill="#DD996B" d="M245.243,251.707c-0.296,0-0.589-0.135-0.78-0.391c-3.898-5.17-3.199-10.078-2.633-14.025
			c0.099-0.689,0.191-1.338,0.261-1.973c0.59-5.428,5.454-15.809,5.504-15.915c0.229-0.485,0.806-0.69,1.292-0.464
			c0.485,0.229,0.692,0.805,0.465,1.289c-1.326,2.823-4.87,11.059-5.332,15.299c-0.072,0.674-0.169,1.338-0.268,2.039
			c-0.567,3.957-1.154,8.053,2.26,12.584c0.326,0.43,0.239,1.037-0.189,1.361C245.646,251.639,245.442,251.707,245.243,251.707z"/>
	</g>
	<g>
		<path fill="#DD996B" d="M381.821,292.949c-0.055,0-0.11,0-0.166-0.012c-0.534-0.094-0.882-0.602-0.788-1.129
			c0.306-1.703,0.689-2.5,1.03-3.203c0.392-0.809,0.698-1.441,0.822-3.664c0.072-1.291,0.303-2.295,0.532-3.275
			c0.554-2.41,1.124-4.904-0.51-12.477c-2.309-10.643-1.845-14.928-0.35-18.385c0.212-0.484,0.783-0.715,1.276-0.502
			c0.496,0.213,0.717,0.783,0.504,1.277c-1.047,2.428-1.967,5.965,0.464,17.201c1.733,7.998,1.077,10.824,0.507,13.318
			c-0.218,0.941-0.422,1.828-0.485,2.951c-0.149,2.605-0.57,3.48-1.014,4.398c-0.314,0.648-0.608,1.262-0.868,2.699
			C382.694,292.627,382.289,292.949,381.821,292.949z"/>
	</g>
	<g>
		<path fill="#DD996B" d="M362.716,139.892c-0.082,0-0.164-0.011-0.248-0.032c-16.475-4.333-19.237-7.203-19.881-8.98
			c-0.303-0.843-0.179-1.687,0.361-2.444c0.311-0.436,0.917-0.536,1.356-0.225c0.434,0.311,0.534,0.919,0.223,1.356
			c-0.194,0.269-0.186,0.458-0.117,0.652c0.35,0.959,2.851,3.638,18.55,7.764c0.52,0.136,0.83,0.666,0.694,1.185
			C363.539,139.602,363.146,139.892,362.716,139.892z"/>
	</g>
</g>
</svg>
