<svg version="1.1" id="Layer_1" xmlns="http://www.w3.org/2000/svg" xmlns:xlink="http://www.w3.org/1999/xlink" viewBox="0 0 768 430" enable-background="new 0 0 768 430" xml:space="preserve">
<g>
	<g>
		<g>
			<path fill="#DF0305" d="M567.095,191.549c-4.786,42.372-14.221,84.967-26.017,126.907c-9.479,33.703-40.246,56.965-75.252,56.965
				h-9.951c-47.854,0-89.747-32.287-101.747-78.606c-9.332-36.019-16.652-72.404-20.531-108.608
				c-0.323-3.002-0.513-5.98-0.577-8.938c-0.271-12.184,1.588-23.959,5.246-34.957c2.944-8.855,9.422-16.139,17.938-19.953
				c5.444-2.438,11.477-3.793,17.828-3.793c1.534,0,3.046,0.077,4.539,0.232c9.672-10.639,23.621-17.319,39.131-17.319
				c15.199,0,28.895,6.415,38.539,16.684c9.644-10.269,23.342-16.684,38.538-16.684c8.581,0,16.678,2.044,23.841,5.67
				c1.801-0.227,3.631-0.344,5.492-0.344c0.277,0,0.556,0.001,0.829,0.007c11.439,0.214,21.962,6.419,27.827,16.242
				c6.853,11.476,11.601,24.31,13.737,37.937C567.947,172.203,568.198,181.782,567.095,191.549z"/>
			<ellipse fill="#C60404" cx="455.126" cy="128.923" rx="62.162" ry="17.284"/>
			<path fill="#E63440" d="M566.505,162.989c-0.406-2.584-0.905-5.138-1.493-7.66c-0.004,0,0.001,0-0.003,0
				c-0.297,2.887-4.202,3.431-5.313,0.807c-4.498-10.635-11.137-17.307-17.531-16.396c-5.668,0.809-9.855,7.399-11.668,16.879
				c-0.952,4.972-6.11,7.88-10.896,6.232c-9.564-3.292-17.746-2.912-21.292,1.815c-5.713,7.616,2.766,23.625,18.937,35.758
				c0.283,0.213,0.568,0.423,0.853,0.631c9.804,7.15,13.852,19.801,9.87,31.263c-1.372,3.948-2.625,8.157-3.717,12.554
				c-2.286,9.218-3.554,18.036-3.862,25.689c-0.038,0.959-0.101,1.912-0.189,2.857c-0.721,7.792-0.141,15.634,1.438,23.299
				c0.854,4.138,1.3,8.427,1.293,12.818c-0.051,34.824-30.89,67.276-70.31,17.408c-1.922-2.43-0.683,30.097-2.233,40.896v7.431
				c1.82,0.096,3.648,0.149,5.488,0.149h9.951c35.006,0,65.773-23.262,75.252-56.965c11.796-41.939,21.23-84.535,26.017-126.907
				C568.198,181.782,567.947,172.203,566.505,162.989z"/>
			<ellipse fill="#6BAC3F" cx="455.126" cy="137.998" rx="62.162" ry="17.282"/>
			<path fill="#6BAC3F" d="M492.631,65.431c-0.234-0.959-0.469-1.918-0.703-2.877c-0.896-3.665-4.773-5.78-8.321-4.495
				c-30.591,11.077-48.548,43.667-40.645,75.992l27.422-1.433c-5.961-24.387-3.104-50.93,18.361-59.736
				C491.706,71.669,493.391,68.537,492.631,65.431z"/>
			<path fill="#8CC63F" d="M471.049,66.697c-20.377,14.982-30.859,41.254-24.479,67.354l7.867-0.412
				C446.404,109.508,453.473,83.538,471.049,66.697z"/>
			<circle fill="#DF0305" cx="415.476" cy="170.922" r="52.699"/>
			<circle fill="#DF0305" cx="490.984" cy="172.176" r="52.698"/>
			<path fill="#D00503" d="M455.126,134.052v241.369c0,0-5.095,0.567-13.459-4.262c0,0-9.616-34.882,11.254-237.107H455.126z"/>
		</g>
		<path fill="#D00503" d="M453.131,197.344c1.104-9.766,0.852-19.345-0.592-28.56c-2.135-13.627-6.883-26.459-13.736-37.937
			c-5.438-9.106-14.881-15.099-25.344-16.095c-3.384,2.324-6.483,5.031-9.237,8.06c-1.492-0.155-3.006-0.232-4.538-0.232
			c-6.351,0-12.385,1.355-17.829,3.794c-8.517,3.814-14.993,11.098-17.938,19.953c-3.657,10.998-5.517,22.773-5.246,34.957
			c0.064,2.958,0.253,5.937,0.577,8.939c3.879,36.203,11.201,72.589,20.532,108.607c5.506,21.251-18.715,38.876,25.436,63.604
			c6.425-8.006,18.99-27.841,21.898-38.182C438.91,282.313,448.345,239.715,453.131,197.344z"/>
	</g>
	<g>
		<path fill="#DF0305" d="M434.784,197.504c-4.787,42.371-14.222,84.969-26.018,126.907c-5.399,19.201-15.243,41.106-33.78,45.067
			c-9.86,2.107-26.307-0.006-37.722-3.975c-8.834-3.073-18.512-2.548-27.005,1.37c-9.63,4.442-17.532,7.451-27.094,6.449
			c-31.973-3.35-52.908-37.979-61.347-70.555c-9.332-36.02-16.653-72.404-20.532-108.608c-0.323-3-0.512-5.98-0.577-8.938
			c-0.271-12.184,1.589-23.959,5.246-34.956c2.945-8.856,9.422-16.14,17.938-19.954c5.443-2.437,11.477-3.793,17.828-3.793
			c1.532,0,3.046,0.079,4.539,0.232c9.67-10.639,23.62-17.319,39.129-17.319c15.2,0,28.896,6.416,38.54,16.684
			c9.644-10.269,23.342-16.684,38.54-16.684c8.578,0,16.675,2.045,23.839,5.671c1.799-0.228,3.631-0.345,5.491-0.345
			c0.277,0,0.555,0.003,0.831,0.007c11.438,0.214,21.961,6.419,27.824,16.242c6.854,11.476,11.604,24.31,13.737,37.936
			C435.637,178.158,435.889,187.736,434.784,197.504z"/>
		<ellipse fill="#C60404" cx="322.816" cy="134.879" rx="62.162" ry="17.282"/>
		<ellipse fill="#6BAC3F" cx="322.816" cy="138.311" rx="62.162" ry="17.282"/>
		<path fill="#6BAC3F" d="M360.32,71.385c-0.235-0.959-0.469-1.917-0.704-2.876c-0.896-3.665-4.773-5.78-8.321-4.495
			c-30.591,11.077-48.548,43.667-40.646,75.992l27.423-1.433c-5.961-24.385-3.104-50.929,18.362-59.737
			C359.394,77.624,361.079,74.492,360.32,71.385z"/>
		<path fill="#8CC63F" d="M338.737,72.652c-20.377,14.982-30.858,41.253-24.478,67.354l7.866-0.412
			C314.094,115.462,321.162,89.492,338.737,72.652z"/>
		<path fill="#DF0305" d="M399.827,142.788c-1.613-2.55-4.613-4.234-7.648-4.287c-0.125-0.003-0.252-0.004-0.379-0.004
			c-0.831,0-1.667,0.049-2.483,0.146l-7.297,0.871l-6.562-3.14c-4.039-1.934-8.409-2.914-12.987-2.914
			c-8.044,0-15.51,3.058-21.024,8.609l-17.516,17.633l-17.515-17.633c-5.515-5.551-12.981-8.609-21.025-8.609
			c-8.107,0-15.888,3.258-21.348,8.937l-8.174,8.503l-12.088-1.187c-0.664-0.064-1.356-0.097-2.058-0.097
			c-2.802,0-5.496,0.539-8.007,1.601c-2.31,0.979-4.118,2.912-4.958,5.301c-2.875,8.172-4.228,16.711-4.024,25.387
			c0.051,2.17,0.2,4.363,0.446,6.523c3.484,30.733,9.992,63.249,19.9,99.407c3.765,13.738,9.984,26.315,17.514,35.416
			c7.242,8.752,15.006,13.596,23.076,14.395c0.396,0.04,0.786,0.059,1.161,0.059c2.774,0,6.271-1.097,13.365-4.19
			c7.892-3.442,16.642-5.261,25.304-5.261c6.716,0,13.33,1.055,19.661,3.137c5.971,1.963,14.258,3.282,20.624,3.282
			c2.644,0,3.95-0.236,4.182-0.283c2.862-0.578,9.819-6.869,15.671-26.545c12.782-42.967,21.048-81.036,25.272-116.383
			c0.838-7.017,0.685-14.062-0.455-20.938C408.827,160.71,405.252,151.379,399.827,142.788z"/>
		<g>
			<path fill="none" d="M399.827,142.788c-1.613-2.55-4.613-4.234-7.648-4.287c-0.125-0.003-0.252-0.004-0.379-0.004
				c-0.831,0-1.667,0.049-2.483,0.146l-7.297,0.871l-6.562-3.14c-2.115-1.013-4.322-1.761-6.6-2.248
				c8.376,5.212,12.792,17.373,9.806,30.901l-2.859,12.958c-1.413,6.404-4.021,12.218-7.446,17.154
				c-16.439,23.69-26.482,51.221-28.375,79.994l-3.558,54.069c2.958,0.519,5.876,1.248,8.735,2.188
				c5.971,1.963,14.258,3.282,20.624,3.282c2.644,0,3.95-0.236,4.182-0.283c2.862-0.578,9.819-6.869,15.671-26.545
				c12.782-42.967,21.048-81.036,25.272-116.383c0.838-7.017,0.685-14.062-0.455-20.938
				C408.827,160.71,405.252,151.379,399.827,142.788z"/>
			<path fill="none" d="M308.648,273.155c-2.814-27.881-13.141-54.442-29.712-77.041c-3.768-5.138-6.634-11.297-8.143-18.129
				c-1.235-5.597-2.53-11.463-3.889-17.62c-1.973-8.938-0.476-17.178,3.337-22.831c-2.277,1.329-4.369,2.959-6.2,4.863l-8.174,8.503
				l-12.088-1.187c-0.664-0.064-1.356-0.097-2.058-0.097c-2.802,0-5.496,0.539-8.007,1.601c-2.31,0.979-4.118,2.912-4.958,5.301
				c-2.875,8.172-4.228,16.711-4.024,25.387c0.051,2.17,0.2,4.363,0.446,6.523c3.484,30.733,9.992,63.249,19.9,99.407
				c3.765,13.738,9.984,26.315,17.514,35.416c7.242,8.752,15.006,13.596,23.076,14.395c0.396,0.04,0.786,0.059,1.161,0.059
				c2.774,0,6.271-1.097,13.365-4.19c4.486-1.957,9.25-3.387,14.116-4.259L308.648,273.155z"/>
			<path fill="#FF6F41" d="M423.642,170.596c-1.892-12.076-6.048-23.554-12.354-34.115c-3.979-6.665-11.205-10.894-18.858-11.037
				c-0.208-0.004-0.417-0.007-0.629-0.007c-1.386,0-2.785,0.088-4.154,0.261l-3.244,0.41l-2.916-1.476
				c-5.926-3-12.324-4.52-19.017-4.52c-11.769,0-22.691,4.728-30.755,13.315l-7.785,8.288l-7.785-8.288
				c-8.064-8.587-18.986-13.315-30.755-13.315c-11.86,0-23.242,5.038-31.226,13.822l-3.633,3.997l-5.372-0.558
				c-1.121-0.115-2.277-0.175-3.437-0.175c-4.695,0-9.225,0.963-13.464,2.861c-5.715,2.559-10.151,7.508-12.169,13.576
				c-3.359,10.101-4.941,20.648-4.702,31.354c0.058,2.672,0.232,5.374,0.519,8.033c3.553,33.162,10.177,68.183,20.25,107.067
				c4.214,16.265,11.289,31.3,19.922,42.335c9.557,12.219,20.391,19.04,32.201,20.278c0.854,0.089,1.712,0.134,2.55,0.134
				c5.622,0,11-1.988,18.958-5.66c6.15-2.837,12.966-4.337,19.711-4.337c5.22,0,10.359,0.867,15.276,2.577
				c7.357,2.559,17.174,4.212,25.009,4.212c2.741,0,5.152-0.205,6.973-0.594c13.349-2.854,21.362-21.976,25.732-37.517
				c12.979-46.145,21.38-87.104,25.687-125.213C425.145,187.696,424.967,179.047,423.642,170.596z M300.193,333.515
				c-7.094,3.094-10.591,4.19-13.365,4.19c-0.375,0-0.765-0.019-1.161-0.059c-8.069-0.799-15.833-5.643-23.076-14.395
				c-7.529-9.101-13.749-21.678-17.514-35.416c-9.908-36.158-16.417-68.674-19.9-99.407c-0.246-2.161-0.395-4.354-0.446-6.523
				c-0.204-8.676,1.149-17.215,4.024-25.387c0.841-2.389,2.648-4.322,4.958-5.301c2.511-1.062,5.205-1.601,8.007-1.601
				c0.702,0,1.394,0.033,2.058,0.097l12.088,1.187l8.174-8.503c1.831-1.904,3.923-3.534,6.2-4.863
				c-3.813,5.653-5.31,13.892-3.337,22.831c1.359,6.157,2.654,12.023,3.889,17.62c1.509,6.832,4.375,12.991,8.143,18.129
				c16.571,22.599,26.898,49.16,29.712,77.041l4.665,46.225c0.544,5.393-2.739,10.422-7.883,12.13
				C303.65,332.102,301.902,332.77,300.193,333.515z M410.908,191.461c-4.225,35.347-12.49,73.417-25.272,116.383
				c-5.853,19.676-12.81,25.967-15.671,26.545c-0.232,0.047-1.538,0.283-4.182,0.283c-6.366,0-14.653-1.319-20.624-3.282
				c-0.028-0.009-0.057-0.02-0.086-0.028c-5.046-1.651-8.366-6.465-8.018-11.763l2.927-44.466
				c1.893-28.773,11.936-56.304,28.375-79.994c3.425-4.936,6.033-10.75,7.446-17.154l2.859-12.958
				c2.987-13.528-1.429-25.688-9.806-30.901c2.278,0.487,4.485,1.234,6.6,2.248l6.562,3.14l7.297-0.871
				c0.816-0.098,1.652-0.146,2.483-0.146c0.127,0,0.254,0.001,0.379,0.004c3.035,0.052,6.035,1.736,7.648,4.287
				c5.425,8.591,9,17.922,10.626,27.735C411.593,177.4,411.746,184.444,410.908,191.461z"/>
		</g>
		<path fill="#FFBFAF" d="M344.165,211.56c-13.895,2.285-27.839,2.285-41.733,0c-14.384-2.364-27.684-15.658-31.639-33.574
			c-1.235-5.597-2.53-11.463-3.889-17.62c-3.354-15.192,3.316-28.368,14.352-30.254c1.272-0.217,2.966-0.14,4.797,0.142
			c5.281,0.811,10.216,3.125,14.311,6.556l7.508,6.292c10.864,7.491,23.522,6.79,34.075-1.945l10.193-8.437
			c18.063-6.262,31.139,11.39,26.521,32.31l-2.859,12.958C371.849,195.901,358.548,209.196,344.165,211.56z"/>
		<path fill="#FAF1E4" d="M323.298,202.594c-6.352,0-12.79-0.53-19.134-1.571c-4.797-0.789-9.683-3.562-13.753-7.809
			c-4.52-4.714-7.698-10.777-9.189-17.53l-3.889-17.62c-1.243-5.629-0.586-11.067,1.755-14.547c1.073-1.598,2.358-2.555,3.82-2.851
			c0.007,0,0.016,0,0.024,0c0.172,0,0.662,0.014,1.501,0.143c3.264,0.5,6.4,1.948,9.071,4.187l7.893,6.613l0.413,0.284
			c6.679,4.605,14.213,7.041,21.788,7.041c8.911,0,17.611-3.303,25.159-9.551l8.491-7.027c0.737-0.158,1.445-0.238,2.118-0.238
			c2.425,0,4.429,1.027,6.125,3.138c3.193,3.975,4.244,10.669,2.744,17.471l-2.86,12.957c-1.491,6.753-4.668,12.816-9.188,17.53
			c-4.072,4.247-8.957,7.02-13.754,7.809C336.089,202.064,329.651,202.594,323.298,202.594z"/>
		<path fill="#FFBFAF" d="M326.522,218.65c0,2.047-1.659,3.707-3.707,3.707c-2.046,0-3.707-1.66-3.707-3.707s1.66-7.885,3.707-7.885
			C324.863,210.765,326.522,216.604,326.522,218.65z"/>
		<path fill="#FFBFAF" d="M341.629,214.882c0.667,1.937-0.362,4.045-2.298,4.712c-1.935,0.667-4.045-0.363-4.711-2.298
			c-0.667-1.936-0.999-7.996,0.938-8.663C337.493,207.966,340.962,212.947,341.629,214.882z"/>
		<path fill="#FFBFAF" d="M297.477,211.413c-1.232,1.636-3.556,1.961-5.19,0.729c-1.634-1.231-1.961-3.556-0.729-5.19
			c1.232-1.635,6.071-5.299,7.706-4.067C300.898,204.117,298.71,209.778,297.477,211.413z"/>
		<path fill="#FFBFAF" d="M311.81,217.495c-0.632,1.946-2.724,3.013-4.67,2.379c-1.947-0.633-3.012-2.723-2.379-4.67
			c0.632-1.946,4.015-6.987,5.961-6.353C312.668,209.483,312.443,215.548,311.81,217.495z"/>
		<path fill="#FFBFAF" d="M296.29,213.716c-1.232,1.634-3.556,1.961-5.191,0.729c-1.635-1.231-1.961-3.556-0.729-5.19
			c1.232-1.636,6.071-5.299,7.706-4.067C299.71,206.42,297.521,212.082,296.29,213.716z"/>
		<path fill="#FFBFAF" d="M281.053,204.373c-1.697,1.145-4.001,0.697-5.145-1.001c-1.146-1.695-0.698-4,0.999-5.145
			c1.698-1.145,7.466-3.034,8.611-1.336C286.662,198.587,282.75,203.228,281.053,204.373z"/>
		<path fill="#FFBFAF" d="M265.669,173.556c-2.042-0.144-3.582-1.914-3.439-3.956c0.144-2.041,1.915-3.581,3.957-3.439
			c2.042,0.144,7.75,2.207,7.607,4.249C273.651,172.45,267.711,173.698,265.669,173.556z"/>
		<path fill="#FFBFAF" d="M272.675,188.544c-1.978,0.529-4.009-0.643-4.54-2.621c-0.529-1.977,0.644-4.01,2.621-4.54
			c1.978-0.529,8.046-0.438,8.577,1.54C279.862,184.9,274.652,188.014,272.675,188.544z"/>
		<path fill="#FFBFAF" d="M262.766,156.668c-1.884-0.8-2.764-2.976-1.964-4.859c0.8-1.885,2.976-2.764,4.86-1.964
			c1.884,0.8,6.61,4.609,5.81,6.493C270.672,158.223,264.649,157.468,262.766,156.668z"/>
		<path fill="#FFBFAF" d="M379.35,142.201c1.871-0.833,4.062,0.008,4.894,1.879c0.833,1.869-0.008,4.061-1.878,4.893
			c-1.869,0.833-7.878,1.692-8.711-0.178C372.822,146.924,377.48,143.034,379.35,142.201z"/>
		<path fill="#FFBFAF" d="M380.813,160.13c2.039-0.179,3.837,1.331,4.016,3.369c0.178,2.04-1.331,3.838-3.369,4.016
			c-2.039,0.179-8-0.965-8.179-3.005C373.104,162.47,378.774,160.309,380.813,160.13z"/>
		<path fill="#FFBFAF" d="M376.25,179.045c1.986,0.495,3.195,2.507,2.699,4.494c-0.494,1.986-2.506,3.194-4.493,2.699
			c-1.986-0.495-7.25-3.518-6.754-5.503C368.197,178.749,374.264,178.551,376.25,179.045z"/>
		<path fill="#FFBFAF" d="M369.527,195.821c1.717,1.115,2.205,3.41,1.09,5.127s-3.411,2.205-5.127,1.09
			c-1.717-1.115-5.71-5.687-4.595-7.403S367.81,194.707,369.527,195.821z"/>
		<path fill="#FFBFAF" d="M356.929,209.169c1.26,1.614,0.974,3.943-0.639,5.203c-1.612,1.26-3.942,0.975-5.203-0.638
			c-1.259-1.613-3.547-7.235-1.934-8.496C350.767,203.978,355.668,207.557,356.929,209.169z"/>
		<path fill="#FFBFAF" d="M341.629,214.882c0.667,1.937-0.362,4.045-2.298,4.712c-1.935,0.667-4.045-0.363-4.711-2.298
			c-0.667-1.936-0.999-7.996,0.938-8.663C337.493,207.966,340.962,212.947,341.629,214.882z"/>
	</g>
</g>
</svg>
