<svg version="1.1" id="Layer_1" xmlns="http://www.w3.org/2000/svg" xmlns:xlink="http://www.w3.org/1999/xlink" viewBox="0 0 768 430" enable-background="new 0 0 768 430" xml:space="preserve">
<g>
	<g>
		<path fill="#E56363" d="M306.541,390.414C307.346,389.857,306.899,390.151,306.541,390.414L306.541,390.414z"/>
		<path fill="#E56363" d="M396.5,355.083c-1.417-0.408-2.877-0.7-4.357-0.898c0.033-0.165,0.061-0.33,0.082-0.491
			c0.187-1.392,0.009-2.948-0.775-4.165c-0.098-0.152-0.203-0.299-0.311-0.442c0.55-1.039,0.852-2.384,0.768-3.621
			c0.567-0.27,1.104-0.636,1.622-1.152c1.133-1.134,1.986-2.992,1.913-4.62c-0.064-1.439-0.601-2.88-1.478-4.04
			c0.812-1.113,1.361-2.582,1.302-3.899c-0.158-3.537-2.87-6.536-6.532-6.532c-0.086,0-0.171-0.001-0.258-0.001
			c0.356-0.796,0.544-1.667,0.503-2.573c-0.088-1.981-0.971-3.778-2.369-4.984c1.294-1.195,2.128-2.869,2.047-4.697
			c-0.162-3.607-2.871-6.448-6.533-6.533c-0.027-0.001-0.054-0.001-0.081-0.001c0.749-0.66,1.342-1.406,1.764-2.406
			c0.547-1.299,0.776-2.876,0.33-4.254c-0.479-1.479-1.464-2.836-2.75-3.728c0.252-0.227,0.5-0.457,0.743-0.697
			c1.874-1.85,2.357-4.751,1.351-7.136c-0.401-0.952-0.948-1.709-1.709-2.365c1.458-1.833,1.85-4.409,0.91-6.634
			c-0.529-1.256-1.434-2.47-2.672-3.125c-0.688-0.362-1.366-0.592-2.056-0.714c0.466-0.438,0.918-0.894,1.353-1.376
			c1.882-2.086,2.638-5.409,1.021-7.916c-0.851-1.32-2.108-2.331-3.539-2.849c0,0,0-0.001,0-0.002
			c0.333-1.461,0.256-2.866-0.329-4.254c-0.033-0.076-0.067-0.152-0.104-0.228c2.409-1.699,3.189-5.136,2.071-7.786
			c-0.53-1.256-1.434-2.47-2.673-3.124c0,0-0.001,0-0.001-0.001c0.577-0.941,1.066-1.946,1.493-3.006
			c0.756-1.872-0.016-4.201-1.169-5.694c-0.896-1.159-2.2-2.101-3.656-2.443c0.181-0.923,0.173-1.877-0.06-2.783
			c1.731-0.725,3.444-1.494,5.132-2.331c1.242-0.615,2.155-1.896,2.673-3.124c0.547-1.297,0.775-2.875,0.33-4.253
			c-0.349-1.077-0.915-2.048-1.68-2.882c-0.242-0.264-0.557-0.525-0.916-0.768c0.458-0.762,0.769-1.609,0.885-2.479
			c0.186-1.381,0.009-2.925-0.769-4.132c-0.853-1.323-2.246-2.73-3.873-2.979c-1.125-0.172-2.252-0.333-3.379-0.488
			c-3.878-0.906-7.479-2.749-11.354-3.701c-2.359-0.579-4.783-0.828-7.208-0.878c-0.968-0.021-1.937-0.028-2.904-0.068
			c-0.104-0.004-0.206-0.004-0.308-0.005c-1.275-0.724-2.546-1.455-3.883-2.062c-1.547-0.702-3.138-1.386-4.818-1.693
			c-0.678-0.575-1.491-1.021-2.422-1.289c-0.587-0.168-1.166-0.359-1.737-0.571c-1.792-0.855-3.442-1.94-5.033-3.126
			c-2.972-2.35-5.816-4.883-8.929-7.045c-1.801-1.25-3.785-2.283-5.877-2.953c-1.176-0.376-2.486-0.571-3.708-0.585
			c-0.079-0.001-0.157,0-0.235,0.002c-0.407-0.361-0.812-0.723-1.217-1.085c-2.322-2.085-4.735-4.114-6.953-6.31
			c-1.897-1.879-3.618-3.925-5.399-5.912c-2.113-2.355-4.326-4.49-6.855-6.399c-1.104-0.833-2.261-1.558-3.532-2.11
			c-2.218-0.963-4.748-1.914-7.21-1.592c-1.908,0.087-3.873,0.478-5.711,0.946c-1.643,0.418-3.34,1.015-4.778,1.919
			c-0.625,0.393-1.225,0.833-1.783,1.321c-0.246,0.015-0.491,0.06-0.736,0.137c-0.667,0.187-1.247,0.525-1.739,1.013
			c-0.708,0.771-1.154,1.719-1.154,2.786c0,0.468,0.097,0.945,0.27,1.395c-0.299,1.086-0.454,2.213-0.521,3.362
			c-0.13,2.207,0.298,4.464,0.612,6.634c0.347,2.399,0.744,4.786,1.229,7.161c0.954,4.676,2.131,9.302,3.228,13.946
			c0.024,0.1,0.048,0.201,0.072,0.3c-0.502,2.235-0.698,4.533-0.608,6.884c0.151,3.959,0.864,7.943,1.709,11.809
			c0.422,1.928,0.898,3.842,1.372,5.758c0.23,1.184,0.519,2.357,0.836,3.504c-0.066,4.859-0.379,9.712-0.18,14.573
			c0.086,2.107,0.263,4.23,0.565,6.328c-0.142,0.505-0.228,1.038-0.247,1.596c-0.126,3.621,0.391,7.239,1.162,10.803
			c0.895,5.194,2.1,10.352,2.868,15.561c0.07,0.572,0.133,1.145,0.189,1.719c0.078,0.839,0.143,1.679,0.192,2.521
			c0.016,0.301,0.034,0.602,0.045,0.901c0.02,0.533,0.108,1.062,0.255,1.575c0.519,12.132,1.935,24.191,3.754,36.201
			c0.977,6.446,2.158,12.854,3.245,19.28c0.279,1.647,0.553,3.296,0.825,4.945c-0.135,0.448-0.219,0.926-0.246,1.426
			c-0.327,6.153,0.531,12.22,1.63,18.258c0.703,3.862,1.783,7.784,3.304,11.483c-0.228,2.425,0.067,4.889,0.594,7.257
			c0.268,1.206,0.604,2.396,1.019,3.561c0.291,0.818,0.628,1.621,0.974,2.417c0.103,0.235,0.207,0.471,0.316,0.704
			c0.036,0.074,0.07,0.148,0.105,0.224c0.567,1.421,1.525,2.533,3.071,2.959c1.61,0.443,3.169-0.066,4.377-1.157
			c0.296-0.267,0.593-0.531,0.896-0.79c0.148-0.127,0.298-0.252,0.448-0.377c-0.88,0.669-0.728,0.549,0.456-0.36
			c0.544-0.512,1.042-1.07,1.597-1.571c0.532-0.479,1.064-0.958,1.616-1.415c0.058-0.048,0.141-0.11,0.23-0.175
			c-0.075,0.052-0.16,0.11-0.258,0.177c0.28-0.191,0.545-0.405,0.823-0.603c1.09-0.771,2.23-1.469,3.407-2.101
			c0.278-0.148,0.559-0.301,0.844-0.438c0.639-0.249,1.278-0.49,1.912-0.746c-0.14,0.059-0.28,0.118-0.42,0.177
			c5.451-2.158,11.116-3.721,16.666-5.596c6.15-2.078,12.309-4.148,18.741-5.137c4.654-0.506,9.706-0.297,13.388-3.527
			c1.458,0.271,2.985,0.061,4.247-0.817c0.923-0.642,1.906-1.183,2.921-1.66c2.326-0.068,4.638-0.339,6.95-0.616
			c2.418-0.291,4.842-0.414,7.263-0.657c2.022-0.203,4.033-0.507,6.052-0.748c1.514-0.182,3.084-0.403,4.621-0.328
			c1.507,0.201,3.004,0.023,4.363-0.771c1.354-0.793,2.647-2.347,3.002-3.904C401.856,359.632,400.015,356.097,396.5,355.083z"/>
	</g>
	<g>
		<path fill="#BF4C4C" d="M441.989,215.406c-0.074-1.117-0.147-2.502-0.463-3.67c-0.142-1.506-0.436-3.091-0.901-4.483
			c-0.298-0.891-0.645-1.816-1.144-2.619c-1.006-1.621-2.196-2.482-3.977-3.211c0.446,0.188,0.894,0.376,1.34,0.565
			c-2.504-1.7-5.809-1.198-8.59-0.794c0.492-0.066,0.985-0.132,1.478-0.198c-8.842,1.167-17.521,4.303-25.56,8.103
			c-1.089,0.514-2.25,1.024-3.238,1.729c-0.557,0.02-1.112,0.029-1.666,0.015c-0.954-0.025-1.881-0.139-2.838-0.114
			c-0.945,0.024-1.891,0.055-2.836,0.086c-3.783,0.126-7.567,0.266-11.353,0.135c-0.603-0.021-1.201,0.065-1.775,0.239
			c-0.553-0.949-1.735-1.638-2.779-1.591c-1.308,0.059-2.815,0.932-3.062,2.332c-0.013,0.074-0.15,0.756-0.169,0.949
			c-0.577,0.744-0.98,1.444-1.115,2.447c-0.077,0.57-0.065,1.086-0.042,1.656c0.062,1.514,0.153,3.027,0.193,4.543
			c0.009,0.348,0.011,0.69-0.006,1.037c-0.001,0.017-0.002,0.033-0.003,0.051c-0.154,0.322-0.316,0.638-0.481,0.955
			c-0.842,1.618-1.269,3.299-1.681,5.053c-0.729,3.098-1.375,6.227-1.246,9.425c0.137,3.405,0.746,6.663,1.816,9.895
			c1.027,3.097,1.589,6.312,2.19,9.514c0.738,6.387,1.035,12.81,1.521,19.22c0.301,3.965,0.9,7.923,1.497,11.854
			c0.527,3.473,1.126,6.944,1.909,10.37c0.753,3.296,1.38,6.592,1.856,9.935c0.692,5.369,1.222,10.762,2.134,16.1
			c0.43,2.513,0.885,5.096,1.681,7.522c0.867,2.634,2.247,5.011,3.412,7.5c0.387,1.129,0.61,2.342,0.785,3.535
			c0.455,3.84,0.382,7.913,1.896,11.502c1.142,2.707,2.86,5.107,4.107,7.755c-1.323,0.272-2.597,0.749-3.658,1.564
			c-0.993,0.762-1.574,1.893-1.027,3.135c0.525,1.195,1.654,1.654,2.9,1.462c0.066-0.002,0.134-0.001,0.16-0.001
			c0.064,0.001,0.676,0.014,0.676,0.013c-0.072-0.011-0.145-0.022-0.216-0.033c-0.479-0.072-0.289-0.049,0.573,0.073
			c0.115,0.009,0.231,0.009,0.348,0.017c-0.04-0.015,0.004-0.018,0.228,0.024c0.033,0.006,0.065,0.012,0.099,0.018
			c0.026,0.001,0.052,0.001,0.073-0.002c-0.017,0.003-0.035,0.004-0.055,0.005c0.09,0.017,0.18,0.034,0.269,0.049
			c0.032,0.006,0.064,0.013,0.097,0.019c0.112,0.015,0.214,0.028,0.306,0.041c0.414,0.692,0.993,1.28,1.716,1.662
			c1.5,0.793,3.053,0.827,4.4,0.252c1.451,0.562,2.952,0.921,4.514,0.976c3.023,0.105,6.266-0.538,8.521-2.688
			c0.054,0.005,0.106,0.012,0.16,0.017c0.195,0.025,0.39,0.052,0.584,0.077l-0.47-0.063c0.229-0.086,0.841,0.163,1.068,0.229
			c0.304,0.089,0.601,0.209,0.896,0.317c0.703,0.256,1.069,0.303,1.938,0.409c0.042,0.005,0.084,0.011,0.125,0.015
			c0.64,0.104,1.281,0.189,1.924,0.271c0.505,0.081,1.007,0.179,1.502,0.308c0.268,0.069,0.533,0.146,0.796,0.23
			c0.086,0.026,0.383,0.14,0.582,0.214c0.112,0.053,0.211,0.099,0.251,0.119c0.262,0.135,0.519,0.278,0.771,0.43
			c0.26,0.157,0.506,0.335,0.765,0.494c0.024,0.018,0.046,0.033,0.067,0.049c0.037,0.031,0.076,0.062,0.113,0.094
			c1.058,0.892,2.335,1.632,3.784,1.567c1.366-0.061,2.851-0.505,3.783-1.567c2.342-2.665,3.379-5.664,3.748-9.146
			c0.244-2.306,0.091-4.626,0.129-6.938c0.046-2.766,0.374-5.539,0.605-8.293c0.247-2.945,0.533-5.888,0.742-8.835
			c0.419-5.923,0.796-11.847,0.97-17.781c0.173-5.861,0.133-11.734,0.09-17.598c-0.088-11.966-0.419-23.938-0.266-35.903
			c0.152-11.749,0.965-23.474,1.507-35.208c0.135-2.918,0.468-5.824,0.692-8.736c0.149-1.937,0.276-3.875,0.353-5.816
			C442.053,217.319,442.053,216.367,441.989,215.406z M429.365,209.545c0.001,0.017,0.003,0.033,0.005,0.05
			c-0.001-0.001-0.002-0.001-0.003-0.002c-0.044-0.328-0.088-0.656-0.132-0.984C429.277,208.922,429.32,209.234,429.365,209.545z
			 M405.997,361.397c-0.048-0.562-0.159-1.131-0.348-1.705c-0.247-0.755-0.542-1.497-0.867-2.227
			c0.109-0.032,0.218-0.068,0.323-0.106c0.361,1.34,0.768,2.671,1.058,4.028C406.108,361.392,406.053,361.395,405.997,361.397z"/>
		<path fill="#BF4C4C" d="M394.657,368.975c-0.007-0.001-0.014-0.001-0.021-0.001c0.048,0.017,0.215,0.051,0.345,0.045
			c-0.006-0.001-0.013-0.002-0.019-0.003C394.865,369.011,394.742,368.981,394.657,368.975z"/>
	</g>
	<path fill="#A53F3F" d="M494.134,172.091c0.403-0.542,0.773-1.117,1.098-1.738c1.271-2.431,0.672-5.627-1.847-7.042
		c-2.624-1.474-5.354-2.055-8.322-1.568c-2.347,0.384-4.207,1.725-5.996,3.194c-1.36,1.118-2.531,2.493-3.64,3.854
		c-1.488,1.826-2.728,3.887-3.863,5.947c-0.81,1.467-1.62,2.95-2.587,4.321c-0.562,0.646-1.183,1.237-1.81,1.82
		c-0.603,0.56-1.22,1.103-1.85,1.632c-0.234,0.197-0.471,0.391-0.708,0.584c-0.143,0.115-0.481,0.364-0.657,0.494
		c-2.229,1.595-4.464,3.152-6.791,4.61c-5.105,3.202-10.329,6.149-15.088,9.858c-0.137,0.104-0.27,0.208-0.396,0.314
		c-0.118,0.092-0.235,0.184-0.352,0.277l0.271-0.209c-0.539,0.456-0.995,0.944-1.357,1.556c-0.44,0.083-0.881,0.161-1.321,0.235
		c-0.869,0.032-1.745,0.158-2.659,0.423c-2.292,0.667-3.998,3.114-3.56,5.503c-0.364,0.57-0.626,1.162-0.729,1.918
		c-0.135,1.01-0.006,2.139,0.562,3.02c0.044,0.068,0.091,0.131,0.137,0.195c-0.069,0.377-0.141,0.754-0.213,1.131
		c-0.55,2.859-1.224,5.723-1.524,8.623c-0.275,2.649-0.116,5.323-0.053,7.979c0.032,1.343,0.029,2.687,0.055,4.029
		c0.023,1.191-0.229,2.495-0.103,3.683c-0.077,0.551-0.149,1.092-0.163,1.655c-0.029,1.188,1.449,1.371,2.052,0.556
		c1.636-2.211,1.858-5.542,1.875-8.204c0.017-2.891-0.252-5.777-0.075-8.668c0.179-2.925,0.932-5.808,1.461-8.683
		c0.004-0.021,0.009-0.044,0.013-0.066c0.602,0.082,1.236,0.063,1.888-0.053c0.028-0.006,0.058-0.012,0.086-0.018
		c-0.815,3.178-0.921,6.606-0.993,9.873c-0.146,6.53,0.386,13.047,0.709,19.564c0.325,6.556,0.182,13.043-0.294,19.587
		c-0.474,6.497-1.317,12.991-1.596,19.499c-0.139,3.241-0.21,6.496-0.545,9.725c-0.335,3.24-0.665,6.481-0.97,9.725
		c-1.136,12.093-2.266,24.333-1.557,36.484c0.303,5.176,0.702,10.355,1.223,15.513c0.264,2.621,0.541,5.289,0.476,7.926
		c-0.029,1.206-0.092,2.41-0.201,3.611c-0.039,0.445,0.025,1.261-0.182,1.665c0.011-0.02,0.185-1.252,0.062-0.482
		c-0.02,0.124-0.038,0.248-0.058,0.372c-0.054,0.326-0.11,0.651-0.172,0.976c-0.201,1.049-0.458,2.085-0.78,3.104
		c-0.713,2.262,0.84,5.047,3.167,5.577c1.466,0.334,2.796,0.029,3.828-0.74c0.446,0.238,0.926,0.399,1.401,0.587
		c-0.007,0.001,0.023,0.026,0.116,0.092c0.467,0.33,1.116,0.512,1.657,0.684c0.677,0.214,1.357,0.407,2.031,0.628
		c2.639,0.861,5.22,1.876,7.825,2.829c0.544,0.198,1.088,0.396,1.634,0.591c0.3,0.106,0.602,0.209,0.9,0.317
		c0.025,0.01,0.051,0.02,0.077,0.03c0.426,0.255,0.946,0.428,1.383,0.66c0.549,0.292,1.088,0.602,1.62,0.924
		c2.12,1.283,4.127,2.74,6.191,4.109c1.037,0.688,2.086,1.366,3.204,1.92c1.448,0.717,3.183,1.573,4.848,1.543
		c1.857-0.034,3.8-1.331,4.229-3.221c0.216-0.948,0.142-1.964-0.211-2.859c0.116-0.592,0.22-1.188,0.319-1.797
		c0.08-0.488,0.166-0.972,0.231-1.462c0.009-0.062,0.016-0.118,0.022-0.171c0,0.009,0,0.018,0,0.025
		c0-0.014,0.003-0.028,0.003-0.043c0.014-0.107,0.024-0.193,0.033-0.259c0.016-0.082,0.033-0.162,0.045-0.235
		c0.173-1.077,0.289-2.155,0.392-3.242c0.29-3.081,0.309-6.205,0.438-9.297c0.263-6.256,1.052-12.493,1.229-18.748
		c0.176-6.198,0.412-12.393,0.675-18.587c0.264-6.232,0.716-12.428,1.208-18.644c0.957-12.104,2.688-24.126,4.083-36.182
		c0.694-6.003,1.304-12.017,1.694-18.047c0.397-6.159,0.352-12.31,0.528-18.475c0.348-12.151,1.825-24.238,2.148-36.39
		c0.03-1.13,0.046-2.262,0.054-3.393c0.877-0.772,1.544-1.792,1.859-2.995c1.727-6.578,3.844-13.244,3.611-20.126
		C495.519,174.589,494.992,173.203,494.134,172.091z"/>
	<path fill="#A53F3F" d="M430.285,250.345c0.006-1.022-1.593-1.023-1.587,0c0.005,1.198,0.011,2.396,0.017,3.596
		c0.006,1.129-0.081,2.296,0.167,3.403c0.136,0.603,1.085,0.603,1.22,0c0.248-1.107,0.162-2.274,0.167-3.403
		C430.274,252.741,430.28,251.543,430.285,250.345z"/>
	<path fill="#A53F3F" d="M427.738,301.579c-0.015-1.407-2.171-1.409-2.186,0c-0.011,0.966-0.057,1.938-0.032,2.903
		c0.021,0.841,0.061,1.859,0.461,2.608c0.269,0.5,1.06,0.5,1.328,0c0.4-0.748,0.438-1.77,0.461-2.608
		C427.795,303.518,427.749,302.545,427.738,301.579z"/>
	<path fill="#A53F3F" d="M427.127,322.643c-0.011-1.353-2.086-1.354-2.101,0c-0.034,3.11-0.835,6.049-1.163,9.125
		c-0.323,3.039-0.597,6.078-0.817,9.127c-0.108,1.491-0.144,2.978-0.184,4.472c-0.04,1.479-0.147,3.145,0.171,4.593
		c0.33,1.499,0.246,2.928,0.214,4.459c-0.017,0.768-0.028,1.534-0.032,2.303c-0.006,0.791-0.07,1.56,0.335,2.264
		c0.354,0.616,1.282,0.614,1.637,0c0.407-0.704,0.344-1.469,0.359-2.264c0.015-0.71,0.033-1.418,0.057-2.126
		c0.052-1.55,0.077-2.998,0.568-4.476c0.472-1.417,0.547-3.095,0.717-4.58c0.177-1.547,0.349-3.092,0.462-4.645
		c0.216-2.983,0.389-5.962,0.396-8.953C427.753,328.828,427.152,325.761,427.127,322.643z"/>
	<path fill="#A53F3F" d="M430.146,356.297c0.011-1.37-0.119-2.696-0.293-4.053c-0.154-1.194-1.708-1.196-1.861,0
		c-0.175,1.357-0.305,2.682-0.294,4.053c0.01,1.182-0.188,2.756,0.473,3.787c0.358,0.562,1.145,0.562,1.504,0
		C430.331,359.057,430.138,357.471,430.146,356.297z"/>
	<g>
		<path fill="#FFD578" d="M376.945,87.101C376.918,87.364,376.9,87.555,376.945,87.101L376.945,87.101z"/>
		<g>
			<path fill="#FFD578" d="M426.078,78.135c-0.01-0.022-0.022-0.046-0.035-0.071C426.054,78.087,426.067,78.11,426.078,78.135
				L426.078,78.135z"/>
			<path fill="#FFD578" d="M500.149,141.613c-0.041-0.308-0.083-0.617-0.124-0.926c-0.165-0.59-0.465-1.103-0.896-1.537
				l-0.705-0.545c-0.265-0.153-0.539-0.269-0.823-0.348c-0.726-1.539-1.467-2.883-2.873-3.97c-1.003-0.774-2.167-1.294-3.384-1.529
				c1.969-4.244,3.675-8.611,5.339-12.979c0.561-1.47,1.131-2.958,1.561-4.473c0.53-1.87,0.736-3.892,0.978-5.81l-0.06,0.442
				c0.094-0.976,0.086-1.935,0.011-2.935c-0.059-0.762-0.161-1.521-0.305-2.272c-0.031-0.167-0.045-0.372-0.109-0.531
				c0.151,1.271,0.13,1.153-0.064-0.353c-0.034-0.082-0.061-0.167-0.08-0.253c-0.105-0.419-0.349-1.771-0.171-0.134
				c-0.07-0.647-0.144-1.298-0.272-1.938c-0.192-0.952-0.582-1.88-1.03-2.736c-1.713-3.271-6.671-2.324-7.637,0.998
				c-0.23,0.793-0.484,1.579-0.769,2.354c-0.142,0.388-0.29,0.773-0.442,1.156c-0.053,0.132-0.107,0.262-0.16,0.393
				c-0.007,0.017-0.014,0.033-0.021,0.05c-0.642,1.429-1.309,2.843-2.003,4.247c-1.593,3.222-3.194,6.435-4.465,9.803
				c-0.809,2.143-1.527,4.321-2.248,6.498c-0.514,0.38-0.945,0.862-1.25,1.447c-0.652,0.284-1.243,0.672-1.596,1.125
				c-1.161,1.492-2.178,2.972-3.016,4.636c-0.704,0.219-1.356,0.595-1.908,1.128c-0.298-0.388-0.604-0.77-0.921-1.146
				c2.315-5.111,3.054-10.681,3.092-16.297c0.019-2.574-0.034-5.149-0.031-7.723c0.004-2.063,0.273-4.238,0.115-6.332
				c0.105-0.08,0.209-0.164,0.309-0.254c1.55-1.393,2.253-4.018,2.189-6.067c-0.016-0.488-0.085-0.958-0.2-1.408
				c0.027-0.027,0.057-0.051,0.083-0.079c0.327-0.304,0.558-0.663,0.692-1.078c0.21-0.399,0.306-0.829,0.288-1.29
				c-0.039-0.296-0.079-0.593-0.12-0.89c-0.158-0.567-0.445-1.059-0.86-1.477c-0.226-0.174-0.451-0.349-0.678-0.523
				c-0.521-0.303-1.085-0.455-1.689-0.458c-0.182-0.007-0.358,0.005-0.53,0.033c-1.6-1.256-3.566-1.853-5.769-1.837
				c-2.156,0.015-4.297,0.536-6.402,0.945c-1.113,0.216-2.062,0.946-2.713,1.899c-0.88-2.324-1.931-4.574-3.259-6.642
				c-0.382-0.595-0.778-1.167-1.192-1.717c-0.514-4.263-1.733-8.522-3.898-12.172c-1.823-3.072-4.414-5.557-7.871-6.284
				c-0.461-0.384-0.965-0.638-1.524-0.811c-0.339-0.119-0.692-0.198-1.051-0.237c-0.135-0.021-0.272-0.042-0.413-0.06
				c0.002,0.012,0.004,0.023,0.005,0.035c-1.073-0.02-2.144,0.34-2.896,1.163c-0.834,0.913-1.404,2.099-1.404,3.358
				c0,0.662,0.188,1.282,0.433,1.885c0,0.05,0.004,0.1,0.006,0.149c-0.475,0.913-0.622,2.007-0.396,3.15
				c0.108,0.546,0.206,1.095,0.296,1.644c-0.062,1.361-0.185,2.716-0.351,4.072c-0.389,2.72-0.872,5.422-1.248,8.144
				c-0.038,0.255-0.085,0.507-0.139,0.759c-0.167,0.226-0.326,0.464-0.471,0.724c-0.407,0.733-0.672,1.63-0.981,2.427
				c-0.346,0.89-0.661,1.782-0.967,2.687c-0.331,0.976-0.697,1.953-1.039,2.938c-0.065-1.152-0.165-2.302-0.286-3.448
				c-0.28-2.625-0.562-5.257-1.467-7.751c-0.431-1.186-0.956-2.571-1.655-3.665c-0.087-0.137-0.187-0.266-0.281-0.396
				c-0.114-0.155-0.232-0.309-0.353-0.46c0.001,0,0.001,0.001,0.001,0.001s0,0-0.001-0.001c-0.076-0.097-0.151-0.194-0.227-0.29
				c-1.009-1.307-0.076-0.271,0.191,0.219c-0.133-0.27-0.31-0.521-0.479-0.766c-1.824-2.619-4.766-4.355-8.004-3.696
				c-0.039-0.848-0.092-1.698-0.155-2.55c-0.159-2.137-0.39-4.235-0.753-6.348c-0.073-0.424-0.136-0.849-0.208-1.272
				c-0.013-0.188-0.025-0.375-0.035-0.563c-0.051-0.887-0.073-1.773-0.066-2.661c0.002-0.332-0.042-0.654-0.122-0.962
				c0.129-0.056,0.252-0.118,0.364-0.184c0.829-0.485,1.619-1.435,1.836-2.387c0.232-1.023,0.183-2.17-0.403-3.078
				c-0.572-0.888-1.361-1.526-2.387-1.836c-0.307-0.093-0.613-0.186-0.921-0.278c-0.631-0.191-1.262-0.223-1.885-0.125
				c-0.891-0.766-2.048-1.21-3.242-1.21c-1.846,0-3.269,0.984-4.278,2.454c-1.963,2.858-2.117,6.304-2.07,9.662
				c-0.578-0.276-1.188-0.502-1.787-0.69c-1.369-0.432-2.687-0.398-4.073-0.221c0.442-0.06,0.885-0.119,1.327-0.178
				c-0.596,0.053-1.157,0.121-1.699,0.228c-0.003,0-0.007,0.001-0.011,0.002c0.003,0,0.007-0.001,0.011-0.002
				c-0.952,0.189-1.844,0.502-2.743,1.085c-1.273,0.824-2.328,1.931-3.086,3.249c-1.197,2.082-1.572,4.45-1.74,6.808
				c-0.124,1.733-0.034,3.48,0.126,5.208c0.155,1.674,0.278,3.347,0.428,5.021c0.079,0.889,0.167,1.78,0.282,2.667
				c-0.066-0.003-0.131-0.005-0.197-0.009c-1.022-0.048-2.021,0.069-3.039,0.174c-1.455,0.149-3.062,0.072-4.463,0.474
				c-0.971,0.279-1.877,0.718-2.79,1.145c-1.007,0.356-2.053,0.708-2.998,1.204c0.026-0.243,0.051-0.486,0.08-0.729
				c0.039-0.328,0.091-0.657,0.124-0.985c-0.016,0.163-0.028,0.29-0.039,0.387c0.017-0.159,0.037-0.342,0.05-0.428
				c0.182-1.248,0.39-2.491,0.618-3.73c0.227-1.236,0.475-2.468,0.735-3.697c0.323-1.522,0.42-3.058,0.619-4.597
				c0.192-1.495,0.433-2.895,0.214-4.395c-0.032-0.215-0.068-0.431-0.1-0.647c0.017,0.041-0.012-0.468-0.01-0.604
				c0-0.003,0.001-0.005,0.001-0.008c0.106-0.137,0.213-0.274,0.318-0.413c0.003-0.003,0.006-0.007,0.011-0.011
				c0.106-0.124,0.206-0.253,0.311-0.377c0.418-0.493,0.882-0.904,1.346-1.342c0.066-0.046,0.133-0.092,0.201-0.135
				c0.288-0.182,0.587-0.341,0.895-0.487c1.949-0.919,2.547-3.586,1.775-5.417c-0.763-1.808-3.104-3.314-5.117-2.512
				c-6.831,2.724-10.207,9.569-14.053,15.369c-0.985,1.485-0.765,3.442,0.181,4.869c-0.183,0.306-0.355,0.617-0.513,0.943
				c-0.043,0.091-0.087,0.182-0.13,0.273c-0.038,0.07-0.064,0.123-0.085,0.166c-0.264,0.297-0.496,0.617-0.691,0.961
				c-0.728,1.303-1.554,2.693-1.783,4.177c-0.251,1.631-0.448,3.269-0.564,4.915c-0.174,2.457-0.219,4.926-0.452,7.378
				c-0.054,0.563,0.07,1.223,0.304,1.861c-0.718-1.006-1.699-1.83-2.785-2.497c-1.592-0.978-3.712-0.934-5.308,0
				c-1.641,0.96-2.279,2.429-2.552,4.175c0.031-0.231,0.062-0.463,0.093-0.694c-0.396,2.854-1.347,5.57-2.139,8.328
				c-0.27,0.94-0.249,1.946,0.007,2.895c-0.975,0.812-1.897,1.684-2.697,2.677c-1.351,1.677-2.666,3.477-3.385,5.524
				c-0.008-0.062-0.016-0.124-0.023-0.185c-0.766-6.009-1.576-12.067-2.746-18.025c0.07-0.298,0.107-0.61,0.104-0.935
				c-0.024-2.171-0.242-4.344-0.652-6.478c-0.182-0.947-0.412-1.948-0.753-2.902c0.128-4.016,0.191-8.037-0.086-12.043
				c-0.126-1.816-0.321-3.648-0.684-5.434c-0.111-0.55-0.247-1.096-0.436-1.625c-0.21-0.592-0.429-1.209-0.733-1.757
				c-0.24-0.433-0.546-0.882-0.895-1.23c-0.515-0.515-1.095-0.853-1.722-1.081c-0.327-0.151-0.659-0.292-1.003-0.387
				c-0.067-0.019-0.136-0.03-0.204-0.048c-0.023-0.003-0.047-0.005-0.07-0.009c-0.905-0.288-1.948-0.265-2.882,0.042
				c-0.099-0.032-0.197-0.061-0.296-0.083c-2.608-0.594-5.427,0.783-6.134,3.483c-1.044,3.983-0.065,8.459,0.478,12.447
				c0.607,4.464,1.362,8.904,2.151,13.339c0.267,1.498,0.55,2.996,0.762,4.503c0.764,5.811,1.472,11.63,2.214,17.444
				c-0.441-0.667-0.91-1.315-1.401-1.953c-0.737-1.104-1.533-2.193-2.46-3.145c-0.479-0.557-1.037-1.052-1.644-1.478
				c-0.143-1.303-0.321-2.603-0.565-3.895c-0.981-5.185-2.221-10.315-2.984-15.54c-0.043-0.353-0.087-0.706-0.132-1.059
				c-0.483-4.084,0.02-8.234-0.469-12.32c-0.347-2.896-0.739-5.6-1.995-8.256c-0.642-1.358-1.562-2.725-2.946-3.38
				c-0.967-0.458-2.017-0.712-2.993-0.658c-0.228-0.083-0.467-0.142-0.716-0.176c-0.82-0.11-1.517,0.059-2.125,0.422
				c-0.277,0.121-0.534,0.268-0.774,0.443c-0.423-0.339-0.919-0.595-1.487-0.724c-1.937-0.441-3.727,0.302-4.859,1.896
				c-0.871,0.841-1.451,1.977-1.34,3.202c0.509,5.629,1.344,11.243,2.407,16.793c0.224,1.168,0.456,2.342,0.702,3.515
				c-1.531,0.539-3.104,0.931-4.708,1.191c-0.171,0.02-0.342,0.043-0.514,0.062c-0.193,0.021-0.386,0.041-0.579,0.062
				c-1.576,0.177-2.748,0.416-4.014,1.394c-0.718,0.555-1.287,1.249-1.755,2.015c-0.068-0.149-0.136-0.299-0.207-0.448
				c0.029-0.095,0.054-0.188,0.075-0.279c0.339-1.487,0.261-2.918-0.335-4.33c-1.279-3.03-4.612-4.714-7.844-3.849
				c-1.606,0.43-2.859,1.211-4.181,2.132c-0.715,0.498-1.344,1.064-1.858,1.7c-0.35,0.223-0.674,0.484-0.94,0.785
				c-0.404,0.346-0.775,0.731-1.106,1.131c-1.582,1.907-2.492,3.594-2.568,6.173c-0.069,2.349,0.345,4.748,0.853,7.035
				c0.024,0.11,0.051,0.221,0.077,0.332c0.019,0.162,0.042,0.324,0.063,0.485c-0.218,0.039-0.431,0.097-0.635,0.181
				c-1.75,0.727-3.487,1.567-5.026,2.688c-1.436,1.046-2.367,2.191-2.609,3.992c-0.236,1.759,0.307,3.283,1.503,4.59
				c0.11,0.12,0.219,0.283,0.337,0.424c0.222,0.329,0.438,0.663,0.64,1.005c0.4,0.678,0.753,1.381,1.079,2.096
				c0.773,2.088,1.075,4.419,1.439,6.595c0.372,2.23,0.836,4.437,1.427,6.619c1.447,5.35,3.604,10.535,4.511,16.02
				c0.143,1.442,0.179,2.885,0.064,4.335c-0.122,1.538,0.808,3.631,1.931,4.662c1.3,1.193,2.867,1.905,4.662,1.931
				c1.803,0.025,3.604,0.038,5.404,0.087c0.376,0.857,0.782,1.699,1.27,2.505c1.681,2.779,3.971,5.285,6.275,7.562
				c2.809,2.776,5.907,5.28,9.134,7.553c2.469,1.739,5.113,3.214,7.681,4.8c5.323,3.289,10.507,6.809,16.053,9.722
				c4.672,2.454,9.631,4.525,14.785,5.695c1.53,1.919,4.159,3.621,6.746,3.32c0.579-0.067,1.153-0.075,1.728-0.044
				c1.637,0.323,3.241,0.792,4.849,1.238c1.87,0.517,3.789,0.823,5.65,1.364c2.165,0.629,4.253,1.483,6.385,2.21
				c2.679,0.914,5.319,1.348,8.123,1.716c9.188,1.21,18.558,1.067,27.686-0.577c9.023-1.627,17.689-4.875,26.049-8.566
				c8.006-3.535,15.696-7.794,22.993-12.622c3.905-2.583,7.766-5.312,11.384-8.285c2.865-2.354,5.279-5.301,7.317-8.385
				c1.287-1.948,2.396-4.059,3.303-6.268c1.115-0.046,2.216-0.354,3.181-0.977c1.454-0.938,2.591-2.102,3.758-3.345
				c0.004-0.004,0.008-0.007,0.011-0.011c0.738,0.308,1.532,0.477,2.368,0.479c6.438,0.015,10.918-5.63,13.075-11.1
				c0.812-2.057,1.185-4.481,0.883-6.729c0.139-0.101,0.271-0.212,0.393-0.342c0.339-0.316,0.579-0.689,0.72-1.122
				C500.067,142.541,500.168,142.093,500.149,141.613z M416.344,99.022c-0.278-0.038-0.558-0.075-0.836-0.112
				c0.32-0.87,0.645-1.739,0.971-2.606C416.444,97.21,416.399,98.117,416.344,99.022z M467.911,87.532
				c-0.152-0.005-0.312,0.01-0.473,0.031c-0.267-0.012-0.321-0.073,0.479-0.032C467.915,87.531,467.914,87.532,467.911,87.532z
				 M485.71,146.982c-0.444-0.175-0.895-0.31-1.349-0.409c0.207-0.443,0.418-0.884,0.632-1.324c0.287,0.387,0.587,0.768,0.89,1.146
				C485.83,146.591,485.772,146.787,485.71,146.982z M489.981,103.494c-0.083-0.295-0.088-0.418-0.064-0.44
				c0.033,0.123,0.058,0.249,0.082,0.376C489.993,103.451,489.987,103.473,489.981,103.494z"/>
		</g>
	</g>
	<path fill="#F4A773" d="M364.813,188.282c-0.247-3.602-0.712-7.184-1.197-10.76c-0.459-3.39-1-6.766-1.479-10.152
		c-0.105-0.746-0.183-1.491-0.355-2.689c-0.111-0.773-0.263-1.543-0.354-2.32c0.043,0.241,0.04,0.171-0.011-0.208
		c-0.023-0.224-0.046-0.449-0.068-0.673c-0.057-0.584-0.079-1.201-0.205-1.773c-0.191-0.87-0.36-1.986-0.894-2.705
		c-0.113-0.152-0.236-0.285-0.363-0.405c0.706-2.936,0.99-5.993,0.617-8.992c-0.085-0.688-0.146-1.418-0.296-2.118
		c0.548-0.39,0.923-1.012,0.894-1.728c-0.047-1.154-0.095-2.308-0.128-3.462c-0.02-0.693-0.372-1.483-1.032-1.8
		c-0.171-0.083-0.332-0.143-0.487-0.188c-0.165-0.579-0.314-1.162-0.432-1.754c-0.061-0.304-0.183-0.552-0.344-0.751
		c0.017-0.118,0.028-0.236,0.028-0.354c0-0.258-0.048-0.508-0.123-0.75c0.17-1.109,0.268-2.221,0.261-3.333
		c-0.016-2.573-3.568-2.924-4.361-0.59c-0.717,2.109-1.343,4.239-2.104,6.335c-0.811,2.233-1.688,4.435-2.536,6.653
		c-0.333,0.875-0.652,1.756-0.961,2.642c-1.693-1.956-3.482-3.832-5.265-5.702c-0.999-1.049-2.022-2.082-2.965-3.183
		c-0.161-0.188-0.344-0.35-0.544-0.489c0.542-2.489,1.081-4.991,1.326-7.505c0.043-0.438,0.056-0.871,0.05-1.299
		c0.6-0.266,1.126-0.657,1.484-1.267c0.396-0.675,0.513-1.522,0.309-2.278c-0.171-0.636-0.415-0.905-0.818-1.405
		c-0.239-0.296-0.667-0.537-1.106-0.68c-0.019-0.15-0.038-0.3-0.056-0.45c-0.03-0.246-0.059-0.492-0.086-0.737
		c0.46-0.355,0.813-0.846,1.003-1.447c0.097-0.307,0.133-0.636,0.112-0.957c-0.044-0.661,0.137-0.459-0.347,0.688
		c0.491-1.161,0.47-2.595-0.467-3.468c-0.032-0.189-0.064-0.377-0.096-0.566c-0.131-0.801-0.255-1.603-0.375-2.405
		c-0.266-1.777-0.513-3.558-0.771-5.335c-0.508-3.495-1.069-6.983-1.894-10.419c-0.325-1.356-1.746-2.185-3.073-2.006
		c-0.103,0.014-0.203,0.033-0.299,0.056c-0.044-0.488-0.092-0.976-0.147-1.463c-0.333-2.913-0.646-6.433-2.252-8.977
		c-0.801-1.269-2.315-1.62-3.637-0.953c0.508-0.256-0.173,0.06-0.262,0.088c-0.21,0.068-0.422,0.128-0.634,0.188
		c-0.555,0.158-1.081,0.353-1.601,0.612c-0.978,0.487-1.325,1.825-0.908,2.772c0.188,0.427,0.473,0.756,0.82,0.982
		c-1.511,5.157-1.063,11.144,0.65,16.174c0.172,0.507,0.479,0.94,0.873,1.247c-0.412,4.08-0.844,8.152-0.237,12.23
		c-0.131,1.268-0.219,2.558-0.205,3.844c-0.071-0.164-0.144-0.328-0.22-0.491c-0.313-0.671-0.975-1.18-1.724-1.458
		c-0.075-1.275-0.104-2.559-0.308-3.812c-0.314-1.921-3.27-2.169-4.12-0.539c-0.395,0.757-0.636,1.598-0.787,2.464
		c-0.504-2.044-1.115-4.053-2.078-5.923c-0.095-0.185-0.211-0.343-0.342-0.48c0.942-0.702,1.508-1.901,1.122-3.095
		c-0.536-1.657-1.953-2.252-3.571-2.028c-1.68,0.233-3.324,1.015-4.869,1.679c-1.532,0.659-3.024,1.391-4.5,2.164
		c-1.505,0.789-3.008,1.583-4.551,2.297c-1.458,0.675-3.477,1.256-4.386,2.655c-0.205,0.314-0.263,0.705-0.203,1.079
		c-0.07,0.125-0.133,0.254-0.186,0.39c-0.483,1.234-0.632,2.562-0.731,3.876c-0.161,2.148,2.305,3.043,3.944,2.264
		c1.283-0.61,2.809-1.085,4.21-1.549c1.548-0.512,3.067-1.086,4.627-1.561c1.485-0.452,2.957-0.95,4.439-1.412
		c0.407-0.126,0.835-0.24,1.255-0.377c0.089,0.449,0.18,0.897,0.264,1.346c0.382,2.051,0.735,4.107,1.131,6.156
		c0.617,3.182,1.194,6.499,2.555,9.471c-0.001,0.003-0.003,0.006-0.004,0.01c-0.516,1.195-0.696,2.366,0,3.554
		c0.64,1.095,1.617,1.52,2.779,1.706c-0.153-0.023-0.236-0.036,0.065,0.018c0.208,0.037,0.416,0.071,0.623,0.112
		c0.376,0.075,0.75,0.161,1.12,0.262c0.371,0.102,0.739,0.217,1.101,0.348c0.021,0.008,0.066,0.025,0.118,0.045
		c0.125,0.058,0.296,0.136,0.313,0.145c0.299,0.151,0.591,0.315,0.872,0.496c0.022,0.014,0.181,0.131,0.291,0.209
		c0.027,0.023,0.05,0.043,0.062,0.055c0.152,0.139,0.288,0.292,0.438,0.433c0.108,0.101,0.154,0.133,0.163,0.127
		c0.162,0.259,0.299,0.608,0.392,0.793c0.881,1.778,2.965,2.105,4.592,1.43c0.135,0.3,0.273,0.6,0.418,0.896
		c0.263,0.538,0.765,0.914,1.34,1.107c0.221,0.227,0.499,0.416,0.844,0.555c0.557,0.224,1.144,0.253,1.683,0.11
		c0.271,0.494,0.552,0.985,0.842,1.472c0.218,0.52,0.477,1.011,0.77,1.484c0.01,0.025,0.019,0.048,0.027,0.069
		c0.274,0.72,0.515,1.449,0.714,2.193c0.375,1.404,0.625,2.85,0.868,4.282c0.449,2.651,0.792,5.315,1.364,7.943
		c0.061,0.279,0.111,0.567,0.187,0.844c0.022,0.118,0.037,0.185,0.044,0.209c0.003,0.029,0.006,0.059,0.009,0.088
		c0.055,0.56,0.108,1.121,0.164,1.681c0.147,1.49,0.317,2.978,0.529,4.461c0.312,2.182,0.895,4.421,2.162,6.265
		c0.886,1.29,3.118,2.039,4.292,0.553c0.125-0.158,0.246-0.318,0.369-0.477c0.009-0.007,0.02-0.015,0.035-0.028
		c0.022-0.019,0.043-0.042,0.065-0.062c-0.143,0.245-0.247,0.513-0.301,0.804c-0.435,2.347-0.581,4.674-0.536,6.99
		c-0.017,0.052-0.032,0.106-0.043,0.163c-0.129,0.661-0.426,1.255-0.571,1.915c-0.187,0.853-0.143,1.765-0.125,2.632
		c0.006,0.275,0.014,0.551,0.021,0.827c-0.333,1.778-0.247,3.534,0.33,5.169c0.111,1.036,0.256,2.069,0.462,3.088
		c0.308,1.524,0.681,2.912,2.091,3.761c0.645,0.388,1.64,0.284,2.246-0.222c0.523,0.164,1.09,0.193,1.662,0.035
		c0.743,0.479,1.479,0.958,2.172,1.472c1.493,1.111,3.818,0.224,4.681-1.228c0.697-1.171,1.201-2.421,1.615-3.704
		c0.699-0.152,1.374-0.55,1.659-1.202c0.08-0.181,0.159-0.362,0.236-0.544c0.088-0.113,0.212-0.274,0.373-0.485
		c0.308-0.496,0.534-1.111,0.672-1.684c0.251-1.04,0.219-2.202,0.244-3.268C365.014,191.639,364.928,189.957,364.813,188.282z
		 M347.058,168.51c-0.027,0.067-0.096,0.233-0.167,0.399c-0.021-0.37-0.039-0.74-0.055-1.11c0.154,0.034,0.312,0.054,0.472,0.06
		C347.227,168.077,347.144,168.295,347.058,168.51z M349.865,176.482c0.575-0.867,1.102-1.759,1.598-2.671
		c-0.005,0.137-0.011,0.272-0.016,0.409c-0.313,0.348-0.543,0.763-0.637,1.225c-0.123,0.606-0.238,1.219-0.348,1.835
		c-0.635,0.095-1.261,0.369-1.753,0.786C349.124,177.559,349.501,177.029,349.865,176.482z M355.021,166.916
		c-0.122-0.034-0.249-0.053-0.379-0.065c0.194-0.566,0.371-1.137,0.523-1.712c0.158-0.599,0.264-1.196,0.324-1.789
		c0.009,1.272,0.034,2.538,0.114,3.81C355.428,167.058,355.235,166.974,355.021,166.916z"/>
	<g>
		<path fill="#F4A773" d="M282.772,162.789c-0.094,0.019-0.188,0.034-0.281,0.046c0.018,0.007,0.118-0.001,0.315-0.048
			c-0.008,0-0.016,0-0.024,0C282.779,162.788,282.776,162.789,282.772,162.789z"/>
		<path fill="#F4A773" d="M287.172,157.775c-2.442-6.581-4.567-13.289-6.029-20.16c-0.671-3.155-1.222-6.332-1.913-9.483
			c-0.67-3.058-1.522-6.062-2.034-9.149c-0.077-0.462-0.149-0.924-0.217-1.387c-0.005-0.04-0.029-0.207-0.046-0.329
			c-0.019-0.161-0.064-0.518-0.062-0.503c-0.101-0.853-0.182-1.708-0.236-2.565c-0.119-1.877,0.32-4.213-0.763-5.843
			c-0.941-1.416-3.022-1.898-4.292-0.553c-1.438,1.525-1.366,3.542-1.325,5.508c0.033,1.565,0.165,3.125,0.351,4.679
			c0.221,1.846,0.503,3.681,0.816,5.513c0.002,0.015,0.013,0.113,0.023,0.196c0.005,0.123,0.015,0.292,0.019,0.333
			c0.041,0.566,0.099,1.13,0.19,1.69c0.141,0.874,0.335,1.742,0.507,2.61c1.305,6.605,2.36,13.221,4.219,19.705
			c0.867,3.023,1.84,6.013,2.885,8.978c-0.718,0.886-1.049,2.087-0.688,3.206c0.547,1.688,2.162,2.834,3.916,2.616
			c-0.022-0.009,0.083-0.04,0.281-0.046c0.079-0.017,0.157-0.031,0.236-0.053c-0.076,0.021-0.143,0.038-0.202,0.051
			c0.438-0.01,0.624,0.022,1.211-0.128c0.855-0.219,1.635-0.734,2.228-1.38C287.065,160.385,287.623,158.989,287.172,157.775z"/>
	</g>
	<path fill="#F4A773" d="M441.677,152.104c-0.764-1.203-1.652-2.357-2.94-3.029c-0.204-0.106-0.413-0.197-0.626-0.275
		c0.026-0.137,0.053-0.279,0.08-0.431c0.266-1.453,0.49-2.926,0.427-4.406c-0.053-1.201-0.872-2.613-2.167-2.845
		c-3.104-0.557-6.018-2.896-9.198-1.85c-0.049,0.015-0.097,0.032-0.145,0.049c-0.055,0.02-0.109,0.042-0.164,0.063
		c-0.009,0.003-0.017,0.007-0.025,0.01c-0.061,0.025-0.121,0.047-0.182,0.074c0.007,0.003,0.014,0.006,0.021,0.009
		c-0.197,0.106-0.379,0.233-0.533,0.387c-1.172,1.173-0.857,3.104,0.513,3.974c1.222,0.775,2.856,1.067,4.197,1.62
		c0.55,0.227,1.096,0.457,1.647,0.667c-0.065,0.38-0.15,0.791-0.256,1.313c-0.292,1.443-0.562,2.898-0.625,4.372
		c-0.077,1.812,2.002,3.585,3.8,2.894c0.215-0.083,0.432-0.162,0.655-0.225c0.008-0.002,0.021-0.005,0.035-0.008
		c0.009,0.008,0.019,0.016,0.025,0.023c0.107,0.107,0.198,0.229,0.304,0.337c-0.438-0.445,0.069,0.104,0.143,0.209
		c0.868,1.243,2.581,1.939,3.973,1.042C441.916,155.249,442.548,153.474,441.677,152.104z"/>
	<g>
		<rect x="444.004" y="161.411" fill="#F4A773" width="0.003" height="0.002"/>
		<path fill="#F4A773" d="M444.712,187.023c-0.119,0.207-0.047,0.329-0.013,0.164c0.001-0.013,0.003-0.025,0.005-0.037
			C444.709,187.117,444.712,187.075,444.712,187.023z"/>
		<path fill="#F4A773" d="M443.974,161.373c0,0,0.001,0.001,0.001,0.001c-0.006-0.008-0.015-0.017-0.02-0.024
			C443.961,161.358,443.968,161.366,443.974,161.373z"/>
		<path fill="#F4A773" d="M474.807,142.014c0.152-3.328,0.388-6.861-0.38-10.126c-0.521-2.22-3.949-2.208-4.479,0
			c-0.688,2.862-0.669,5.891-0.864,8.818c-0.193,2.913-0.43,5.819-0.749,8.72c-0.079,0.717-0.162,1.434-0.25,2.149
			c-0.04,0.331-0.081,0.661-0.123,0.991c-0.014,0.109-0.084,0.65-0.096,0.743c-0.22,1.618-0.533,3.233-0.698,4.857
			c-0.071,0.711-0.073,1.415-0.097,2.127c-0.023,0.706,0.064,1.492-0.02,1.94c-0.254,1.345-0.486,2.791-0.755,4.171
			c-0.297,1.526-0.622,3.046-0.959,4.564c-0.11,0.498-0.201,1.004-0.284,1.515c-0.856-0.55-1.964-0.691-2.881-0.076
			c-3.843,2.575-7.747,5.336-11.137,8.571c0.18-0.834,0.382-1.666,0.592-2.48c0.803-3.094,0.898-6.297,0.839-9.479
			c-0.05-2.659-0.476-5.484-1.228-8.047c-0.417-1.421-1.023-2.72-1.972-3.858c-1.054-1.263-2.381-1.651-3.948-1.796
			c-0.651-0.06-1.267,0.174-1.785,0.549c-0.047,0.026-0.093,0.053-0.137,0.082c-0.04,0.026-0.078,0.055-0.116,0.082
			c-0.11,0.082-0.218,0.166-0.325,0.25c-0.45,0.35-0.395,0.304,0.169-0.14c-0.376,0.2-1.585,1.14-0.641,0.485
			c-1.066,0.739-1.618,2.015-1.069,3.263c0.44,1.001,1.453,1.667,2.538,1.604c0.012-0.008,0.031-0.017,0.058-0.025
			c0.009,0.004,0.019,0.008,0.029,0.012c-0.006-0.005-0.013-0.011-0.018-0.016c0.007-0.001,0.013-0.004,0.02-0.005
			c0.005,0.002,0.009,0.004,0.014,0.007c-0.003-0.002-0.005-0.005-0.007-0.008l0,0c0.002,0.003,0.005,0.006,0.008,0.008
			c0.005,0.002,0.008,0.004,0.012,0.006c0.006,0.003,0.012,0.007,0.018,0.011c0.006,0,0.011-0.002,0.017-0.002
			c0.004,0.006,0.008,0.012,0.012,0.019l0,0l0,0c0.002,0.003,0.004,0.005,0.006,0.009c0.001,0.003,0.003,0.006,0.005,0.009
			c0.017,0.007,0.033,0.014,0.05,0.021c0.006,0.021,0.015,0.042,0.021,0.063c-0.017-0.015-0.034-0.031-0.052-0.047
			c0.001,0.003,0.003,0.006,0.004,0.009c0.018,0.018,0.035,0.034,0.053,0.05c0.001,0.004,0.003,0.009,0.005,0.014
			c-0.016-0.012-0.028-0.023-0.042-0.035c0.032,0.061,0.065,0.121,0.096,0.183c0.005,0.013,0.01,0.025,0.015,0.038
			c0.075,0.221,0.141,0.444,0.2,0.67c0.117,0.443,0.207,0.893,0.281,1.345c0.001,0.008,0.003,0.015,0.005,0.023
			c0.017,0.305,0.034,0.609,0.044,0.915c0.042,1.281-0.024,2.561-0.012,3.842c0.026,2.813-0.312,5.64-0.049,8.445
			c0.243,2.607,0.132,5.248,0.043,7.855c-0.02,0.571-0.052,1.14-0.064,1.711c-0.004,0.12-0.012,0.243-0.01,0.363
			c0,0.014,0,0.025,0,0.038c0.017-0.029,0.036-0.06,0.062-0.092c-0.034,0.044-0.056,0.126-0.069,0.219
			c-0.002,0.013-0.003,0.026-0.005,0.037c-0.022,0.175-0.023,0.384-0.041,0.489c-0.112,0.704-0.227,1.41-0.394,2.103
			c-0.598,2.481,3.002,4.226,4.263,1.797c0.147-0.287,0.307-0.567,0.473-0.844c0.545,0.025,1.104-0.05,1.713-0.247
			c1.004-0.324,1.987-0.774,2.911-1.282c1.966-1.082,3.775-2.484,5.446-3.972c2.358-2.098,4.676-4.515,6.197-7.332
			c0.995,0.746,2.637,0.568,3.202-1.015c0.479-1.334,0.979-2.651,1.411-4.002c0.41-1.283,0.669-2.635,0.952-3.955
			c0.019,0.176,0.038,0.351,0.062,0.525c0.255,1.843,3.466,1.843,3.722,0c0.318-2.299,0.083-4.739,0.062-7.06
			c-0.011-1.091-0.021-2.182-0.03-3.273c-0.012-1.257-0.153-2.46-0.328-3.704c-0.048-0.349-0.223-0.619-0.467-0.811
			c0.118-1.241,0.21-2.482,0.325-3.689C474.459,147.954,474.669,144.986,474.807,142.014z M444.032,161.382
			c-0.016-0.001-0.028-0.001-0.04-0.001c-0.003-0.001-0.007-0.001-0.011-0.002c-0.002-0.001-0.005-0.003-0.007-0.005
			c0.001,0.001,0.003,0.003,0.004,0.005c0,0-0.001,0-0.001,0c-0.002-0.002-0.003-0.004-0.004-0.006
			c-0.04-0.03-0.075-0.057-0.104-0.079C443.802,161.187,443.9,161.211,444.032,161.382z M444.262,161.658
			c-0.013-0.031-0.026-0.061-0.039-0.088c0.058,0.044,0.117,0.09,0.184,0.142C444.637,161.877,444.476,161.824,444.262,161.658z"/>
	</g>
	<path fill="#F4A773" d="M481.31,141.254c-0.039-1.095-0.108-2.189-0.185-3.282c-0.071-1.034-0.148-2.067-0.195-3.102
		c-0.055-1.176-0.24-2.32-0.249-3.503c-0.011-1.417-2.102-1.396-2.187,0c-0.064,1.089-0.198,2.246-0.116,3.33
		c0.084,1.093,0.2,2.184,0.312,3.275c0.105,1.034,0.212,2.069,0.269,3.108c0.058,1.071-0.018,2.231,0.58,3.173
		c0.306,0.483,0.924,0.438,1.237,0C481.398,143.386,481.347,142.271,481.31,141.254z"/>
	<path fill="#F4A773" d="M484.688,132.041c-0.153-1.473-0.237-2.943-0.729-4.353c-0.418-1.194-2.321-0.689-1.911,0.526
		c0.464,1.374,0.555,2.719,0.434,4.155c-0.093,1.107-0.296,2.878,0.737,3.587c0.19,0.13,0.518,0.133,0.707,0
		C485.005,135.198,484.812,133.214,484.688,132.041z"/>
	<g>
		<path fill="#F4A773" d="M379.592,96.966c-0.048,0.017-0.097,0.035-0.146,0.052C379.512,96.996,379.558,96.979,379.592,96.966z"/>
		<path fill="#F4A773" d="M390.4,93.954c0.018-0.199-0.002-0.397-0.059-0.594c0-0.007,0-0.014,0-0.019
			c-0.001-0.032-0.004-0.062-0.006-0.093c0.216-0.469,0.201-0.995-0.148-1.449c-0.403-0.521-1.246-0.771-1.83-0.365
			c-0.094,0.065-0.188,0.134-0.279,0.204c-0.272,0.091-0.51,0.247-0.717,0.447c-0.43-0.388-1.002-0.629-1.622-0.667
			c-1.064-0.067-2.14-0.217-3.207-0.21c-1.212,0.008-2.456,0.194-3.648,0.387c-2.128,0.344-4.479,1.111-6.246,2.374
			c-0.896,0.64-1.433,1.651-1.126,2.768c0.122,0.444,0.414,0.888,0.796,1.225c-0.473,0.834-0.593,1.954-0.882,2.828
			c-0.357,1.078-0.714,2.155-1.076,3.23c-0.714,2.12-1.905,4.809-1.126,7.005c0.496,1.399,2.322,1.707,3.148,0.411
			c0.666-1.044,0.825-2.144,1.176-3.322c0.325-1.091,0.722-2.158,1.118-3.226c0.396-1.066,0.793-2.124,1.072-3.228
			c0.013-0.051,0.026-0.103,0.04-0.154c0.397-0.181,0.75-0.479,0.996-0.887c0.381-0.63,0.698-1.319,0.9-2.027
			c0.122-0.424,0.147-0.867,0.182-1.294c0.15-0.045,0.303-0.089,0.454-0.132c0.109,0.016,0.223,0.025,0.349,0.024
			c0.091,0,1.286-0.355,0.934-0.221c0.089-0.033,0.179-0.066,0.269-0.097c0.274-0.095,0.554-0.174,0.834-0.245
			c1.522-0.258,3.371-0.444,5.043-0.451c0.531-0.002,1.028-0.191,1.431-0.5c0.111,0.105,0.228,0.195,0.34,0.254
			c0.391,0.206,0.792,0.288,1.232,0.229c0.867-0.117,1.775-0.94,1.676-1.898C390.406,94.157,390.404,94.057,390.4,93.954z"/>
	</g>
	<path fill="#F4A773" d="M426.321,88.823c-0.054-0.112-0.117-0.222-0.194-0.326c-1.379-1.869-2.977-3.53-5.403-3.762
		c-0.905-0.086-1.879,0.055-2.681,0.507c-0.172,0.097-0.33,0.235-0.484,0.356c-0.334-0.124-0.691-0.193-1.06-0.208
		c-0.863-0.426-1.915-0.463-2.916,0.125c-0.726,0.428-1.523,0.701-2.26,1.109c-0.775,0.43-1.554,0.855-2.31,1.318
		c-0.602,0.367-1.197,0.76-1.77,1.185c-1.921-0.738-4.101-0.317-6.068-0.002c-1.795,0.288-3.617,0.693-5.388,1.247
		c-0.329-0.11-0.685-0.186-1.063-0.22c-1.364-0.125-2.678,0.358-3.784,1.122c-1.356,0.935-2.007,2.52-1.342,4.095
		c0.101,0.237,0.225,0.452,0.366,0.648c0.126,0.773,0.471,1.504,1.059,2.044c1.354,1.241,3.096,1.391,4.724,0.609
		c0.011-0.005,0.022-0.011,0.033-0.017c0.162-0.062,0.322-0.124,0.485-0.183c0.597-0.214,1.201-0.406,1.809-0.585
		c1.453-0.429,2.931-0.785,4.423-1.049c0.184-0.033,0.366-0.063,0.551-0.093c0.016-0.003,0.036-0.006,0.06-0.009
		c0.225-0.025,0.597-0.067,0.701-0.076c0.3-0.025,0.596-0.041,0.891-0.056c0.612,0.546,1.307,0.85,2.016,0.93
		c0.031,0.401,0.06,0.801,0.07,1.206c0.013,0.49,0.039,0.968,0.123,1.454c0.016,0.088,0.04,0.178,0.06,0.267
		c-0.009,0.028-0.011,0.194-0.014,0.307c-0.052,2.334-0.195,4.765,0.056,7.09c0.253,2.35,3.33,2.904,4.158,0.562
		c0.557-1.571,1.354-3.034,2.044-4.551c0.739-1.626,1.409-3.29,2.057-4.955c0.128-0.328,0.251-0.658,0.375-0.988
		c0.537-0.272,0.942-0.772,1.2-1.41c0.462-1.142,0.874-2.283,1.237-3.449c0.442,0.329,0.984,0.526,1.589,0.514
		c1.919-0.036,3.3,0.091,5.088,0.656c1.406,0.444,3.138-0.522,3.467-1.968C428.563,90.779,427.792,89.292,426.321,88.823z"/>
	<path fill="#F4A773" d="M415.623,80.523c-1.13-0.179-2.238-0.193-3.375-0.256c-1.123-0.062-2.215-0.146-3.338-0.028
		c-2.314,0.244-4.512,0.803-6.723,1.513c-2.126,0.684-4.219,1.463-6.309,2.25c-0.994,0.374-1.994,0.736-2.984,1.119
		c-1.107,0.428-1.981,1.154-3.068,1.582c-1.701,0.67-1.084,3.261,0.771,2.799c1.01-0.251,2.043-0.211,3.044-0.491
		c1.014-0.283,2.009-0.682,3.003-1.026c2.053-0.71,4.107-1.417,6.189-2.039c2.029-0.606,4.09-1.11,6.146-1.614
		c1.03-0.252,2.051-0.54,3.081-0.791c1.047-0.255,2.126-0.268,3.199-0.334C416.695,83.118,417.234,80.778,415.623,80.523z"/>
	<path fill="#F4A773" d="M440.316,136.642c-0.925-1.422-2.015-2.446-3.498-3.323c-1.491-0.881-3.145-1.55-4.894-1.173
		c-1.375,0.296-1.43,2.158-0.371,2.841c1.083,0.697,2.348,1.054,3.442,1.744c1.079,0.681,2.065,1.431,3.178,2.055
		C439.485,139.522,441.199,138,440.316,136.642z"/>
	<path fill="#F4A773" d="M442.674,128.586c-0.625-0.782-1.838-0.932-2.774-1.133c-0.993-0.213-1.998-0.356-3.007-0.469
		c-0.827-0.093-1.538,0.773-1.538,1.537c0,0.918,0.71,1.432,1.538,1.537c0.84,0.107,1.676,0.273,2.499,0.474
		c0.899,0.22,1.751,0.625,2.678,0.348C443.135,130.56,443.31,129.381,442.674,128.586z"/>
	<path fill="#F4A773" d="M433.665,156.897c-0.815-0.328-2.062-0.107-2.454,0.803c-2.416,5.626-2.209,12.03-2.884,18.02
		c-0.321,2.853-1.132,5.562-1.75,8.364c-0.646,2.922-1.066,5.877-1.511,8.834c-0.248,1.654-0.499,3.307-0.867,4.939
		c-0.341,1.51-0.72,3.099-0.696,4.668c0.02,1.297,1.528,1.82,2.449,1.015c2.165-1.896,2.752-5.204,3.339-7.904
		c0.636-2.925,1.023-5.888,1.547-8.833c0.534-3.011,1.391-5.93,1.785-8.968c0.39-3.006,0.499-6.036,0.697-9.058
		c0.211-3.246,0.583-6.427,1.48-9.563C435.068,158.282,434.553,157.255,433.665,156.897z"/>
	<path fill="#2A2A38" d="M396.159,208.561c-0.385-1.858-3.636-2.161-5.13-2.503c-1.703-0.391-4.1-0.766-5.203-2.255
		c-0.639-0.861-2.049-0.108-1.475,0.862c1.151,1.944,3.017,2.93,5.133,3.499c1.037,0.279,2.09,0.493,3.119,0.797
		c0.938,0.277,1.967,0.895,2.959,0.649C396.031,209.496,396.25,209.003,396.159,208.561z"/>
	<path fill="#2A2A38" d="M397.072,202.497c-0.559-0.516-1.026-0.459-1.753-0.487c-0.723-0.027-1.432-0.135-2.141-0.275
		c-1.374-0.272-2.706-0.5-4.105-0.556c-0.903-0.036-1.017,1.264-0.206,1.527c1.403,0.455,2.756,0.952,4.215,1.222
		c1.141,0.211,3.121,0.764,3.99-0.235C397.362,203.359,397.426,202.825,397.072,202.497z"/>
	<path fill="#2A2A38" d="M395.654,195.718c-1.169-0.748-2.979-0.408-4.304-0.394c-1.208,0.013-1.21,1.866,0,1.879
		c1.325,0.015,3.135,0.354,4.304-0.394C396.062,196.548,396.062,195.979,395.654,195.718z"/>
	<path fill="#2A2A38" d="M414.881,199.557c-0.772-0.273-1.655-0.288-2.467-0.384c-0.578-0.069-1.076,0.543-1.076,1.076
		c0,0.528,0.495,1.145,1.076,1.076c0.812-0.097,1.695-0.112,2.467-0.384C415.561,200.701,415.562,199.797,414.881,199.557z"/>
	<path fill="#2E2D35" d="M298.287,393.382c-1.564,0.66-2.925,0.508-4.021-0.855c-1.176-1.464-1.728-3.433-2.169-5.222
		c-1.052-4.269-1.322-8.826-1.914-13.179c-1.125-8.289-2.029-16.608-3.528-24.842c-1.513-8.321-2.891-16.665-4.118-25.032
		c-2.459-16.786-4.376-33.645-6.022-50.526c-0.816-8.374-1.245-16.794-1.805-25.188c-0.559-8.39-1.157-16.773-1.872-25.15
		c-0.704-8.256-1.196-16.613-2.572-24.791c-0.677-4.022-1.437-8.063-2.337-12.041c-0.449-1.985-0.856-3.967-1.174-5.978
		c-0.302-1.915-0.748-3.769-0.936-5.708c-0.164-1.688-0.289-3.368-0.296-5.061c0.442-0.31,0.913-0.638,1.405-0.844
		c0.583-0.243,1.206-0.344,1.804-0.535c1.458-0.465,2.886-1.062,4.335-1.563c1.372-0.476,2.775-0.886,4.205-1.149
		c0.565-0.104,0.819-0.146,1.485-0.172c0.877-0.035,1.68,0.127,2.376-0.587c0.522-0.536,0.675-1.437,0.269-2.088
		c-0.489-0.787-1.354-1.028-2.281-1.041c0.554-6.122-1.746-12.063-3.708-17.772c-1.047-3.046-1.84-6.155-2.837-9.213
		c-1.174-3.6-2.705-7.07-4.123-10.578c-0.797-1.97-1.501-3.957-2.064-6.008c-0.465-1.693-0.919-3.468-1.091-5.235
		c1.325-0.53,2.548-1.309,3.778-2.021c1.146-0.664,2.322-1.103,3.566-1.431c0.387,0.815,1.798,0.684,1.834-0.406
		c0.002-0.075,0.002-0.15,0.004-0.224c0.421-0.46,0.398-1.236,0.004-1.74c-0.075-3.998-0.651-7.99-0.216-11.991
		c0.042-0.388,0.098-0.791,0.222-1.163c0.058-0.175,0.132-0.339,0.218-0.501c0.048-0.089,0.1-0.179,0.155-0.264
		c0.033-0.05,0.048-0.074,0.055-0.085c-0.001,0.003,0.001,0.002,0.015-0.012c0.373-0.414,1.143-0.736,1.721-1.034
		c1.903-0.981,3.851-1.545,5.939-1.953c0.56-0.109,1.111-0.259,1.671-0.365c0.613-0.116,0.828-0.15,1.331-0.192
		c0.423-0.036,0.848-0.021,1.271-0.051c-0.019,0.001,0.699-0.092,0.336-0.044c-0.398,0.052,0.715-0.057,0.109-0.015
		c0.145-0.01,0.286-0.031,0.432-0.027c1.189,0.031,1.88-1.57,0.99-2.391c-1.553-1.434-3.971-0.663-5.771-0.171
		c-1.181,0.323-2.255,0.845-3.383,1.308c-1.118,0.458-2.242,0.893-3.324,1.435c-1.661,0.833-3.04,1.879-3.746,3.641
		c-0.938,2.341-0.946,4.863-0.79,7.348c0.124,1.957,0.41,3.907,0.618,5.858c-3.389-0.073-6.278,2.833-9.101,4.419
		c-0.542,0.304-0.723,0.923-0.61,1.5c0.365,1.863,0.699,3.698,1.252,5.52c0.539,1.774,1.216,3.496,1.852,5.236
		c1.279,3.502,2.758,6.928,3.97,10.455c1.075,3.127,1.782,6.358,2.788,9.508c1.003,3.143,2.068,6.266,2.977,9.438
		c0.505,1.764,0.884,3.536,1.227,5.336c0.146,0.766,0.412,1.519,0.454,2.297c0.034,0.602,0.035,1.203,0.002,1.804
		c-0.186,0.034-0.364,0.067-0.53,0.099c-1.574,0.292-3.114,0.775-4.613,1.332c-1.542,0.572-3.189,1.279-4.548,2.222
		c-0.315,0.219-0.573,0.494-0.865,0.733c-0.189,0.155-0.402,0.288-0.583,0.452c-0.03,0.027-0.169,0.161-0.263,0.255
		c-0.08,0.042-0.297,0.189-0.292,0.187c-0.129,0.086-0.257,0.174-0.385,0.264c-0.131,0.092-0.26,0.188-0.388,0.285
		c-0.6-0.092-1.313,0.278-1.405,1.069c-0.237,2.036-0.393,4.086-0.368,6.137c0.024,1.973-0.001,4.034,0.239,5.99
		c0.512,4.164,1.197,8.282,1.965,12.404c1.548,8.305,2.28,16.665,2.998,25.075c0.73,8.557,1.372,17.121,2.272,25.664
		c0.908,8.606,2.04,17.185,2.996,25.784c1.91,17.175,3.651,34.356,6.079,51.471c1.219,8.595,2.574,17.17,4.105,25.715
		c1.517,8.463,2.563,16.979,3.862,25.475c0.729,4.771,1.349,9.618,2.417,14.328c0.75,3.307,2.209,8.483,6.304,8.855
		c0.924,0.084,1.837-0.12,2.686-0.479C300.028,394.854,299.502,392.869,298.287,393.382z"/>
	<g>
		<path fill="#2E2D35" d="M315.484,117.459c0.03,0.024,0.056,0.048,0.084,0.071C315.555,117.518,315.529,117.496,315.484,117.459z"
			/>
		<path fill="#2E2D35" d="M474.59,98.07c-0.354,1.336,1.542,1.79,2.026,0.559c0.693-1.763,1.533-3.465,2.212-5.232
			c0.569-1.479,0.832-3.066,0.18-4.496c-0.896-1.961-3.118-2.952-5.02-3.663c-2.2-0.823-4.645-1.051-6.973-1.202
			c-1.437-0.093-2.877-0.126-4.315-0.115c-1.106,0.009-2.254-0.014-3.361,0.124c-0.078-0.138-0.156-0.276-0.237-0.413
			c-1.568-2.661-3.671-5.154-6.24-6.926c0.035-0.044,0.066-0.094,0.095-0.152c0.708-1.479,0.133-3.183-0.482-4.605
			c-0.716-1.656-1.586-3.336-2.649-4.796c-2.348-3.224-5.367-6.057-9.037-7.703c-1.504-0.674-3.578-1.466-5.244-0.936
			c-0.379,0.121-0.785,0.436-0.855,0.857c-0.403,2.371-0.893,4.703-1.143,7.101c-0.257,2.458-0.382,4.928-0.434,7.399
			c-0.1,4.942-0.014,9.884,0.448,14.802c0.059,0.625,0.914,0.626,0.973,0c0.457-4.817,0.209-9.649,0.377-14.482
			c0.085-2.432,0.238-4.865,0.558-7.279c0.265-1.987,0.598-4.065,1.249-5.984c0.407,0.01,0.78,0.046,1.233,0.168
			c0.867,0.234,1.68,0.601,2.466,1.031c1.94,1.062,3.675,2.472,5.335,3.922c1.673,1.459,3.278,3.167,4.461,5.054
			c0.932,1.49,1.02,3.063,1.21,4.72c-0.105-0.058-0.209-0.117-0.316-0.172c-1.38-0.71-3.098-1.357-4.668-1.019
			c-0.23-0.25-0.697-0.226-0.93,0.09c-1.265,1.721-1.826,3.95-2.543,5.94c-0.807,2.238-1.63,4.471-2.456,6.701
			c-1.733,4.676-3.479,9.347-5.156,14.043c-1.731,4.847-3.38,9.724-4.856,14.654c-1.51,5.036-3.067,10.148-4.091,15.309
			c-0.935,4.705-0.951,9.747-3.028,14.151c-0.025,0.007-0.05,0.014-0.075,0.021c-2.125,0.62-4.225,1.109-6.394,1.563
			c-1.958,0.41-3.926,0.713-5.517,1.991c-1.733,1.393-2.638,3.51-3.242,5.601c-1.273,4.401-1.138,9.015-1.728,13.511
			c-0.429,3.274-1.085,6.54-1.547,9.817c-0.485,3.446-1.048,6.896-1.643,10.325c-1.177,6.786-4.037,13.644-3.289,20.625
			c-2.567,0.525-5.146,0.947-7.783,1.104c-3.976,0.237-7.966,0.062-11.923-0.359c-7.75-0.822-15.361-2.615-22.943-4.368
			c-7.423-1.716-14.178-4.96-20.818-8.618c-2.115-1.165-4.205-2.375-6.283-3.605c0.046-0.152,0.051-0.328-0.002-0.524
			c-0.494-1.808-1.25-3.531-1.736-5.349c-0.496-1.855-0.877-3.737-1.139-5.639c-0.518-3.766-0.699-7.534-1.422-11.277
			c-1.662-8.601-3.563-17.153-5.255-25.746c-0.835-4.238-1.572-8.489-2.074-12.78c-0.394-3.365-0.199-6.888-1.185-10.161
			c-0.335-1.112-0.636-2.372-1.194-3.4c-0.163-0.299-0.367-0.511-0.617-0.72c0.084,0.083-0.421-0.263-0.528-0.293
			c-0.189-0.056-0.397-0.078-0.596-0.075c-0.188,0.003-0.385,0.028-0.566,0.071c-0.01,0.002-0.018,0.004-0.027,0.007
			c-0.027-0.001-0.056-0.002-0.087-0.003c-0.562-0.018-1.101,0.1-1.647,0.207c-0.206,0.041-0.355,0.05-0.647,0.076
			c-0.234,0.02-0.452,0.05-0.691,0.078c0.066-0.008,0.385-0.059,0.028-0.014c-0.688,0.086-1.309,0.209-1.965,0.431
			c-3.021,1.021-6.077,2.352-8.781,4.051c-0.601,0.378-1.189,0.786-1.754,1.223c-0.099-0.577-0.188-1.155-0.312-1.729
			c-0.324-1.488-0.652-2.975-0.844-4.486c-0.39-3.055-1.298-6.094-2.091-9.069c-1.594-5.984-3.232-12.039-5.386-17.844
			c-0.363-0.978-1.824-0.607-1.581,0.436c0.707,3.039,1.525,6.041,2.279,9.068c0.749,3.005,1.387,6.042,2.08,9.06
			c0.69,3.01,1.272,6.103,2.277,9.023c0.494,1.434,0.854,2.907,1.218,4.376c0.205,0.828,0.398,1.753,0.68,2.629
			c-0.09,0.089-0.181,0.178-0.269,0.27c-0.796,0.827-1.694,1.883-2.215,2.911c-0.363,0.716,0.026,1.377,0.583,1.63
			c-0.018,0.114-0.02,0.237,0.001,0.366c0.623,3.855,1.51,7.649,2.393,11.452c0.89,3.833,1.813,7.662,2.878,11.451
			c0.884,3.147,1.72,6.27,2.348,9.48c0.628,3.211,1.183,6.435,1.939,9.62c0.407,1.718,0.872,3.391,1.521,5.034
			c0.145,0.367,0.282,0.753,0.427,1.142c-2.433-1.723-4.877-3.535-6.875-5.746c-2.655-2.938-5.035-6.69-8.383-8.936
			c-0.002-0.011-0.003-0.021-0.005-0.031c-0.328-1.612-0.934-3.195-1.412-4.769c-0.482-1.59-0.957-3.183-1.43-4.775
			c-0.949-3.193-1.901-6.385-2.833-9.583c-1.867-6.406-3.858-12.776-5.68-19.197c-1.038-3.661-2.119-7.309-3.14-10.974
			c-0.246-0.881-1.568-0.511-1.367,0.377c2.937,13.011,5.901,26.018,9.531,38.859c0.517,1.828,1.058,3.649,1.601,5.469
			c0.287,0.96,0.545,1.949,0.833,2.926c-1.192-0.256-2.381-0.256-3.586-0.051c-1.161,0.197-0.87,2.047,0.275,2.03
			c2.595-0.041,4.523,1.396,6.301,3.142c2.003,1.965,3.663,4.205,5.446,6.362c4.501,5.445,10.772,9.333,16.71,13.036
			c6.481,4.041,13.053,7.979,19.745,11.659c6.752,3.715,13.876,7.132,21.314,9.23c3.598,1.015,7.286,1.772,10.937,2.568
			c3.905,0.853,7.83,1.627,11.787,2.199c7.87,1.136,15.863,1.502,23.699-0.078c8.074-1.629,16.112-3.407,23.988-5.832
			c7.495-2.308,15.138-4.861,22.062-8.591c6.093-3.281,11.793-7.402,16.86-12.112c0.068-0.062,0.134-0.127,0.2-0.19
			c0.491-0.038,0.927-0.343,1.032-0.991c4.468-4.378,8.411-9.483,11.812-14.688c0.946-1.449,1.848-2.925,2.712-4.424
			c0.401-0.697,0.053-1.355-0.493-1.653c0.07-0.134,0.16-0.267,0.279-0.399c0.33-0.369-0.217-0.916-0.544-0.543
			c-0.2,0.229-0.378,0.498-0.511,0.786c-0.319,0.041-0.626,0.216-0.841,0.577c-3.276,5.491-7.098,10.551-11.508,15.164
			c1.147-6.16,2.479-12.284,3.322-18.499c0.533-3.931,1.117-7.85,1.575-11.792c0.46-3.957,0.895-7.917,1.363-11.872
			c0.467-3.937,0.893-7.887,1.475-11.808c0.465-3.136,1.305-6.157,2.146-9.208c0.841-3.051,1.678-6.138,1.918-9.306
			c0.192-2.53,0.024-5.364-1.818-7.294c-1.852-1.94-4.705-2.531-7.281-2.622c-2.009-0.071-4.317,0.058-6.316,0.754
			c0.232-1.348,0.394-2.709,0.424-4.057c0.349-1.305,0.034-3.087-0.301-4.334c-0.218-0.811-0.395-1.658-0.705-2.44
			c1.604-0.007,3.22-0.119,4.824-0.054c2.221,0.091,4.469,0.269,6.627,0.826c1.618,0.417,3.695,1.106,4.766,2.484
			c0.666,0.858,0.363,1.89-0.017,2.938C476.087,94.479,475.092,96.181,474.59,98.07z M316.949,185.07
			c-2.366-1.439-4.719-2.9-7.028-4.428c0.032-0.102,0.049-0.209,0.047-0.317c-0.033-1.406-0.924-2.789-1.322-4.14
			c-0.413-1.403-0.77-2.838-1.111-4.26c-0.75-3.125-1.305-6.295-1.938-9.446c-0.627-3.122-1.285-6.251-2.333-9.263
			c-1.276-3.668-2.444-7.367-3.481-11.11c-1.165-4.205-2.053-8.48-3.083-12.718c-0.065-0.267-0.195-0.455-0.359-0.575
			c0.472-0.641,1.089-1.036,1.804-1.469c1.062-0.643,2.169-1.213,3.271-1.783c2.448-1.266,4.805-2.426,7.321-3.366
			c0.526-0.197,1.057-0.38,1.591-0.556c0.336-0.11,0.645-0.228,0.973-0.37c0.101-0.043,0.637-0.274,0.533-0.232
			c0.464-0.192,0.894-0.362,1.312-0.53c0.322-0.129,0.897-0.348,1.271-0.637c0.292,0.812,0.636,1.896,0.859,2.753
			c0.826,3.192,0.618,6.586,1.006,9.843c0.496,4.17,1.08,8.337,1.692,12.492c1.217,8.276,2.812,16.458,4.436,24.664
			c0.795,4.014,1.671,8.009,2.486,12.018c0.412,2.027,0.818,4.063,1.363,6.06c0.347,1.265,0.713,2.598,1.254,3.828
			C323.981,189.393,320.474,187.212,316.949,185.07z M421.138,203.415c-5.734,1.81-11.568,3.391-17.4,4.726
			c-0.564,0.129-1.126,0.256-1.689,0.381c-0.082-5.915,1.66-11.504,2.873-17.257c0.663-3.146,1.022-6.347,1.654-9.501
			c0.646-3.222,1.438-6.412,2.026-9.646c0.431-2.373,0.778-4.731,0.994-7.133c0.193-2.148,0.357-4.305,0.714-6.434
			c0.337-2.021,0.799-4.113,1.847-5.897c0.42-0.714,0.902-1.53,1.562-2.049c0.459-0.361,1.267-0.649,1.905-0.812
			c2.231-0.571,4.55-0.824,6.749-1.514c2.574-0.808,5.427-1.742,8.183-1.562c0.291,7.895-0.77,15.729-2.724,23.375
			c-0.964,3.771-1.928,7.547-2.941,11.305c-0.513,1.899-1.056,3.793-1.484,5.714c-0.413,1.85-0.627,3.712-0.967,5.572
			C421.793,196.235,421.251,199.806,421.138,203.415z M443.726,193.731c0.109,0.288,0.281,0.499,0.481,0.637
			c-5.48,2.804-11.271,5.038-17.069,7.058c-1.32,0.459-2.648,0.906-3.982,1.342c0.215-2.859,0.779-5.651,1.412-8.475
			c0.434-1.936,1.158-3.798,1.734-5.697c0.54-1.784,1.024-3.585,1.484-5.392c0.963-3.772,1.74-7.541,2.397-11.377
			c0.688-4.017,1.396-8.045,1.928-12.086c0.613-4.665,0.987-9.361,0.741-14.068c-0.024-0.464-0.342-1.05-0.858-1.128
			c-1.926-0.291-3.872-0.119-5.779,0.265c1.23-3.47,1.471-7.333,2.042-10.917c0.798-5.017,2.311-9.964,3.724-14.837
			c2.876-9.921,6.381-19.618,9.901-29.323c0.928-2.556,1.854-5.112,2.761-7.675c0.638-1.803,1.488-3.711,1.805-5.643
			c1.622,0.228,3.041,0.614,4.408,1.636c1.711,1.278,3.133,2.941,4.296,4.728c1.222,1.877,2.212,3.836,3.319,5.769
			c0.796,1.387,1.105,2.864,1.496,4.365c-0.49,2.188-0.907,4.381-1.53,6.541c-0.67,2.321-1.405,4.616-2.232,6.886
			c-1.672,4.588-3.507,9.116-5.119,13.726c-2.928,8.373-4.544,17.107-6.943,25.631c-1.13,4.013-2.218,7.989-3.945,11.768
			c-1.952-1.28-4.213-2.116-6.475-2.506c-1.149-0.198-1.649,1.436-0.49,1.779c2.085,0.617,4.23,1.447,5.988,2.769
			c-0.262,0.934,0.76,1.706,1.531,1.407c0.023,0.027,0.049,0.053,0.073,0.081c1.71,1.978,2.72,4.139,3.298,6.68
			c1.258,5.521,0.537,11.379,0.02,16.945c-0.146,1.566-0.301,3.132-0.421,4.7C443.617,190.662,443.239,192.45,443.726,193.731z
			 M460.661,99.625c1.964-0.285,3.892-0.699,5.9-0.667c1.977,0.031,4.283,0.33,5.886,1.601c1.763,1.399,1.678,3.986,1.529,6.021
			c-0.222,3.032-1.054,6.007-1.872,8.922c-1.824,6.498-2.979,13.14-3.892,19.825c-0.518,3.794-0.994,7.592-1.43,11.396
			c-0.43,3.756-0.746,7.527-1.197,11.278c-0.505,4.199-1.126,8.365-1.938,12.516c-0.768,3.917-1.59,7.823-2.281,11.754
			c-4.133,3.86-8.693,7.333-13.571,10.148c-0.552,0.318-1.108,0.627-1.668,0.932c0.32-1.124,0.195-2.548,0.294-3.676
			c0.126-1.431,0.282-2.858,0.436-4.286c0.327-3.029,0.623-6.059,0.687-9.106c0.12-5.735-0.641-11.95-4.57-16.433
			c-0.284-0.324-0.585-0.632-0.9-0.925c3.731-7.399,5.763-15.487,7.631-23.524c0.992-4.271,1.983-8.548,3.311-12.73
			c1.512-4.762,3.373-9.402,5.032-14.113c0.892-2.532,1.688-5.114,2.328-7.722C460.473,100.436,460.568,100.031,460.661,99.625z"/>
	</g>
	<path fill="#2E2D35" d="M297.99,128.511c-0.012,0-0.012,0.018,0,0.018S298.002,128.511,297.99,128.511z"/>
	<path fill="#2E2D35" d="M333.492,122.264c-0.26-1.128-0.454-2.261-0.475-3.421c-0.02-1.13-1.67-1.112-1.742,0
		c-0.078,1.213-0.002,2.423,0.25,3.614c0.241,1.144,0.459,2.238,1.367,3.04c0.295,0.261,0.832,0.188,0.928-0.245
		C334.06,124.174,333.733,123.31,333.492,122.264z"/>
	<path fill="#2E2D35" d="M435.132,101.971c-0.185-2.053-0.688-4.062-2.014-5.688c-1.044-1.28-2.394-1.951-3.903-2.53
		c-0.37-0.142-0.744-0.275-1.121-0.402c0.488-1.376,0.486-3.054,0.636-4.46c0.191-1.791,0.284-3.618,0.268-5.419
		c-0.015-1.684-0.175-3.44-0.728-5.041c-0.281-0.814-0.634-1.554-1.263-2.138c-0.065-0.085-0.129-0.172-0.195-0.256
		c-0.094-0.117-0.188-0.234-0.289-0.345c-0.279-0.307-0.596-0.573-0.929-0.818c-1.658-1.219-3.783-1.427-5.779-1.287
		c-1.084,0.076-1.111,1.724,0,1.708c1.558-0.022,3.228,0.169,4.521,1.121c0.982,0.721,1.368,1.833,1.687,2.973
		c0.835,2.999,0.369,6.25,0.203,9.305c-0.068,1.258-0.254,2.774-0.005,4.096c-0.676-0.177-1.354-0.329-2.037-0.451
		c-1.552-0.278-3.471-0.707-5.016-0.181c-1.203,0.41-2.281,1.059-3.242,1.884c-2.576,2.213-3.696,5.593-4.746,8.709
		c-0.625,1.853-1.189,3.727-1.837,5.571c-0.315,0.897-0.627,1.792-0.997,2.66c0.031-0.95,0.011-1.906,0.053-2.854
		c0.144-3.258,0.922-7.995-1.803-10.493c-1.536-1.409-3.746-1.691-5.745-1.643c-2.059,0.05-4.184,0.417-5.964,1.508
		c-3.304,2.025-4.301,5.789-5.285,9.282c-0.912,3.235-1.951,6.424-2.975,9.625c-1.075,3.361-2.186,6.741-2.733,10.234
		c-0.126,0.806,1.017,1.168,1.252,0.345c1.58-5.545,3.374-11.003,5.183-16.478c0.67-2.031,1.296-4.075,2.121-6.049
		c0.588-1.408,1.243-2.819,2.325-3.921c1.127-1.149,2.59-1.713,4.155-1.974c1.72-0.287,3.953-0.432,5.527,0.473
		c1.2,0.691,1.637,1.919,1.815,3.232c0.243,1.781,0.092,3.613,0.024,5.4c-0.045,1.181-0.06,2.361-0.054,3.543
		c0.009,1.674,0.23,3.335,0.161,5.011c-0.117,2.845-0.445,5.667-0.563,8.51c-4.56,0.548-9.292,0.806-13.458,2.759
		c-2.248,1.055-3.875,2.959-5.154,5.04c-1.531,2.492-2.702,5.193-3.876,7.866c-0.141,0.322-0.285,0.642-0.43,0.961
		c-0.035-0.762-0.349-1.551-0.566-2.266c-0.276-0.911-0.485-1.829-0.684-2.758c-0.16-0.747-1.273-0.425-1.136,0.312
		c0.174,0.938,0.351,1.87,0.49,2.812c0.122,0.828,0.2,1.768,0.627,2.5c0.202,0.346,0.582,0.399,0.874,0.256
		c-0.914,1.958-1.885,3.873-2.874,5.808c-1.775,3.475-3.177,7.126-4.524,10.784c-2.787,7.57-6.031,14.953-8.551,22.621
		c-0.471,1.432-0.925,2.872-1.372,4.315c-0.065-0.782-0.149-1.551-0.213-2.282c-0.212-2.409-0.529-4.808-0.735-7.218
		c-0.221-2.566-0.055-5.125,0.018-7.696c0.071-2.509,0.084-5.017,0.015-7.526c-0.141-5.093-0.618-10.165-1.141-15.231
		c-0.477-4.62-1.091-9.283-2.685-13.668c-0.752-2.07-1.577-4.119-2.162-6.245c-0.529-1.924-0.907-3.974-0.312-5.912
		c0.115-0.023,0.233-0.063,0.353-0.125c2.5-1.297,4.836-2.881,7.355-4.144c2.213-1.109,4.757-2.1,7.271-1.974
		c1.008,0.051,1.87,1.058,2.421,1.853c0.667,0.964,1.201,2.019,1.608,3.115c0.962,2.589,1.513,5.328,1.918,8.054
		c0.405,2.726,0.538,5.483,1.13,8.174c0.102,0.465,0.893,0.496,0.972,0c0.42-2.639,0.111-5.295-0.261-7.929
		c-0.415-2.93-0.987-5.882-2.007-8.667c-0.443-1.21-0.937-2.458-1.666-3.526c-0.314-0.46-0.66-0.913-1.056-1.306
		c-0.547-0.543-1.079-0.758-1.75-1.077c-0.112-0.053-0.221-0.11-0.329-0.169c0.014-0.062,0.023-0.128,0.025-0.201
		c0-0.002,0.001-0.003,0.002-0.005c0.024-0.067,0.038-0.137,0.062-0.204c0.089-0.251,0.165-0.49,0.228-0.749
		c0.168-0.686,0.359-1.366,0.569-2.041c0.55-1.777,1.056-3.617,1.787-5.33c0.56-1.314,1.167-2.904,2.226-3.91
		c1.434-1.36,3.727-1.694,5.617-1.676c1.23,0.011,2.433,0.102,3.645,0.33c1.199,0.225,2.318,0.787,3.514,0.963
		c1.055,0.155,1.896-0.984,1.08-1.856c-0.466-0.498-1.064-0.822-1.705-1.054c0.049-0.087,0.086-0.184,0.109-0.287
		c0.167-0.278,0.23-0.61,0.135-0.945c-0.896-3.154-0.186-6.541-1.074-9.722c-0.114-0.409-0.402-0.673-0.762-0.806
		c-0.002-5.014-0.278-10.065,0.189-15.046c0.143-1.505,0.531-3.134,1.576-4.282c0.942-1.036,2.263-1.509,3.607-1.775
		c1.802-0.357,3.7-0.345,5.528-0.274c1.353,0.052,3.006,0.294,3.907,1.438c0.786,0.997,0.644,2.729,0.532,3.901
		c-0.174,1.821-0.502,3.623-0.686,5.443c-0.339,3.344-0.471,6.707-0.543,10.066c-0.073,3.374-0.164,6.772,0.001,10.143
		c0.059,1.186,1.786,1.188,1.845,0c0.16-3.257,0.077-6.528,0.153-9.789c0.075-3.243,0.236-6.481,0.484-9.716
		c0.161-2.089,0.504-4.158,0.659-6.246c0.123-1.635,0.164-3.238-0.516-4.763c-0.734-1.65-2.317-2.406-4.033-2.667
		c-2.16-0.328-4.479-0.187-6.638,0.115c-3.533,0.493-6.496,2.249-7.53,5.829c-0.833,2.885-0.613,6.14-0.602,9.107
		c0.011,2.78,0.104,5.555,0.194,8.332c-4.072-0.146-8.447,0.626-12.09,2.378c1.026-3.067,2.139-6.114,3.164-9.173
		c0.75-2.239,1.492-4.479,2.23-6.722c0.595-1.808,1.107-3.655,1.957-5.364c0.97-1.951,2.801-5.156-0.013-6.505
		c-3.037-1.457-5.923,0.472-8.204,2.372c-2.192,1.827-4.422,3.836-6.215,6.059c-0.998,1.237-1.864,2.633-2.651,4.011
		c-0.439,0.769-0.795,1.488-1.372,2.161c-0.271,0.317-0.464,0.681-0.703,1.021c-0.248,0.351-0.584,0.647-0.8,1.02
		c-0.986,1.704-1.482,3.906-1.974,5.797c-0.503,1.938-0.881,3.904-1.15,5.887c-0.367,2.706-0.491,5.466-0.36,8.206
		c-2.131-0.708-4.179-1.652-6.273-2.461c-0.455-0.176-1.12,0.112-1.335,0.543c-4.267,8.558-6.127,17.836-7.92,27.142
		c-0.167-0.798-0.324-1.599-0.469-2.402c-0.507-2.799-0.879-5.618-1.223-8.441c-0.697-5.73-1.223-11.498-1.654-17.254
		c-0.195-2.597-0.528-5.202-0.605-7.806c-0.066-2.225,0.043-4.453,0.018-6.679c-0.025-2.297-0.109-4.615-0.542-6.877
		c-0.381-1.995-1.067-4.134-2.566-5.575c-3.807-3.658-9.736-1.247-13.707,0.805c-0.41,0.212-0.542,0.623-0.484,1.015
		c-0.571-0.061-1.193,0.279-1.196,1.023c-0.029,8.756,1.488,17.372,2.892,25.985c0.59,3.621,0.963,7.188,1.081,10.855
		c0.119,3.71,0.141,7.431,0.528,11.128c0.388,3.699,0.936,8.045,3.252,11.085c0.519,0.681,1.837,0.335,1.514-0.639
		c-0.524-1.58-1.147-3.133-1.586-4.74c-0.458-1.681-0.765-3.402-0.965-5.131c-0.417-3.594-0.46-7.218-0.565-10.831
		c-0.101-3.497-0.326-6.952-0.867-10.41c-0.654-4.184-1.375-8.359-1.957-12.554c-0.679-4.886-1.158-9.812-1.192-14.748
		c0-0.025-0.002-0.048-0.004-0.072c0.111,0.002,0.229-0.016,0.352-0.062c1.843-0.696,3.746-1.406,5.708-1.666
		c1.81-0.24,3.729-0.216,5.253,0.921c1.513,1.128,2.032,2.923,2.342,4.695c0.379,2.167,0.394,4.383,0.446,6.575
		c0.049,2.069,0.044,4.148,0.293,6.206c0.302,2.498,0.6,4.989,0.833,7.495c0.51,5.481,0.759,10.982,1.313,16.461
		c0.31,3.065,0.72,6.123,1.25,9.158c0.253,1.45,0.538,2.896,0.863,4.332c0.211,0.929,0.354,1.927,0.738,2.797
		c-0.812,4.113-1.687,8.209-2.827,12.227c-0.579,2.037-1.199,4.065-1.91,6.06c-0.674,1.896-1.62,3.726-2.217,5.644
		c-0.167-0.212-0.337-0.422-0.51-0.632c-1.73-2.097-3.957-3.652-6.144-5.226c-0.111-0.08-0.224-0.157-0.335-0.236
		c0.015-0.101,0.014-0.21-0.007-0.327c-0.279-1.556-0.954-3.049-1.365-4.581c-0.419-1.567-0.75-3.15-1.041-4.745
		c-0.565-3.112-1.054-6.247-1.87-9.305c-0.431-1.614-0.959-3.203-1.497-4.784c-0.53-1.557-0.974-3.131-1.477-4.695
		c-0.952-2.957-1.815-6.02-2.464-9.06c-0.396-1.853-0.676-3.733-1.137-5.571c-0.517-2.058-0.914-4.194-1.721-6.163
		c-0.682-1.664-1.49-3.436-2.989-4.523c-1.6-1.16-3.766-1.136-5.634-0.869c-1.971,0.282-3.88,0.898-5.755,1.577
		c-0.188-1.121-0.442-2.235-0.636-3.348c-0.324-1.864-0.583-3.738-0.875-5.607c-0.29-1.853-0.433-3.724-0.516-5.597
		c-0.043-0.969-0.069-1.939-0.069-2.909c0-0.521,0.011-1.043,0.038-1.564c0.019-0.368,0.1-0.695,0.183-1.029
		c3.262-0.833,6.302-2.421,9.602-3.18c1.333-0.307,2.679-0.796,3.821-0.014c1.272,0.871,1.958,2.34,2.247,3.819
		c0.347,1.768,0.264,3.721,0.355,5.518c0.092,1.808,0.194,3.594,0.406,5.392c0.324,2.763,0.87,5.502,1.344,8.242
		c0.506,2.925,1.006,5.855,1.582,8.767c1.294,6.541,2.744,13.048,3.92,19.611c0.176,0.985,1.668,0.565,1.498-0.413
		c-1.061-6.101-2.34-12.161-3.545-18.235c-0.601-3.029-1.255-6.048-1.777-9.093c-0.525-3.065-0.865-6.142-1.245-9.228
		c-0.224-1.821-0.317-3.637-0.433-5.467c-0.123-1.949-0.541-3.736-0.976-5.628c-0.367-1.597-0.806-3.392-1.877-4.672
		c-1.038-1.241-2.702-1.922-4.31-1.84c-2.299,0.118-4.495,0.963-6.604,1.828c-1.897,0.778-3.705,1.728-5.486,2.734
		c-0.321,0.182-0.565,0.573-0.544,0.95c0.03,0.538,0.178,1.049,0.188,1.587c0.009,0.463-0.019,0.931-0.027,1.394
		c-0.018,1.03-0.035,2.059-0.02,3.089c0.029,1.961,0.188,3.911,0.286,5.868c0.094,1.87,0.368,3.733,0.671,5.579
		c0.227,1.383,0.419,2.821,0.771,4.198c-2.107,0.799-4.318,1.787-6.563,2.046c-1.498,0.173-1.52,2.544,0,2.374
		c2.613-0.293,5.096-1.234,7.572-2.182c0.478,0.251,1.127,0.112,1.247-0.476c1.239-0.467,2.481-0.909,3.743-1.247
		c1.698-0.454,3.787-0.976,5.503-0.315c1.298,0.5,1.996,2.05,2.413,3.34c0.629,1.941,1.103,3.938,1.325,5.966
		c0.212,1.934,0.414,3.805,0.76,5.719c0.512,2.838,1.555,5.418,2.562,8.1c1.165,3.1,2.456,6.124,3.453,9.289
		c1.025,3.258,1.638,6.626,2.361,9.958c0.377,1.739,0.769,3.48,1.232,5.198c0.24,0.888,0.473,1.837,0.793,2.743
		c-0.144-0.095-0.284-0.193-0.428-0.288c-0.515-0.336-1.032-0.665-1.541-1.011c-0.594-0.403-1.31-0.657-1.843-1.129
		c-0.596-0.528-1.327-0.209-1.567,0.335c-0.432,0.158-0.83,0.414-1.103,0.712c-0.364,0.398-0.615,0.916-0.728,1.441
		c-0.058,0.271-0.103,0.561-0.108,0.837c-0.013,0.642,0.304,0.944,0.822,1.272c0.157,0.099,0.421,0.115,0.577,0
		c0.316-0.234,0.635-0.429,0.746-0.834c0.057-0.208,0.033-0.382,0.065-0.56c0.009-0.05,0.099-0.365,0.083-0.345
		c0.031-0.057,0.14-0.229,0.151-0.258c0.105-0.124,0.238-0.191,0.373-0.235c0.119,0.187,0.244,0.371,0.391,0.544
		c0.332,0.393,0.697,0.757,1.06,1.123c0.905,0.913,1.878,1.773,2.909,2.543c1.846,1.381,3.701,2.753,5.585,4.079
		c1.752,1.233,3.234,2.578,4.252,4.494c0.901,1.697,1.464,3.544,1.942,5.398c1.16,4.501,2.186,9.068,2.969,13.65
		c0.848,4.962,1.462,9.96,2.233,14.935c0.859,5.552,1.729,11.185,4.118,16.31c0.426,0.913,1.726,0.236,1.545-0.651
		c-0.847-4.154-1.813-8.281-2.581-12.452c0.505-0.018,1.027-0.347,1.09-0.986c1.103-11.129,7.676-20.853,12.362-30.722
		c0.488-1.028,0.951-2.063,1.386-3.109c0.032,0.594,0.06,1.188,0.084,1.781c0.206,5.098,0.033,10.236,0.53,15.315
		c0.269,2.754,0.56,5.5,0.867,8.251c0.152,1.364,0.282,2.729,0.349,4.101c0.069,1.453-0.085,2.942,0.09,4.382
		c0.04,0.331,0.221,0.588,0.457,0.748c-1.544,5.343-2.954,10.731-4.276,16.114c-0.252,1.023,1.221,1.41,1.564,0.431
		c2.6-7.418,4.579-15.055,6.914-22.562c1.172-3.769,2.401-7.519,3.788-11.214c1.376-3.667,2.952-7.25,4.306-10.926
		c1.319-3.583,2.554-7.205,4.08-10.707c1.254-2.881,2.851-5.583,4.134-8.448c1.179-2.631,2.267-5.305,3.568-7.878
		c1.032-2.041,2.278-4.688,4.231-6.014c2.368-1.606,5.591-1.891,8.361-2.149c2.377-0.222,4.794-0.253,7.168-0.55
		c-0.231,1.674-0.81,3.304-1.467,4.852c-1.014,2.386-2.271,4.665-3.491,6.95c-1.204,2.255-2.309,4.525-3.264,6.897
		c-1.201,2.982-2.276,6.01-3.54,8.966c-0.606,1.418-1.217,2.833-1.881,4.225c-0.342,0.714-0.67,1.442-1.049,2.137
		c-0.393,0.721-0.887,1.38-1.247,2.118c-0.723,1.479-1.458,2.944-2.22,4.403c-0.734,1.406-1.302,2.917-1.924,4.377
		c-2.557,5.999-4.876,12.089-6.95,18.272c-2.274,6.782-4.211,13.692-5.209,20.785c-0.176,1.256,1.593,1.512,1.728,0.234
		c0.67-6.354,2.506-12.614,5.037-18.464c2.605-6.024,5.28-12.019,7.825-18.069c0.608-1.447,1.225-2.891,1.845-4.334
		c0.66-1.536,1.146-3.131,1.749-4.69c1.138-2.947,2.151-5.939,3.291-8.894c2.108-5.467,4.263-10.945,7.229-16.017
		c1.473-2.518,3.015-5.005,4.277-7.64c1.171-2.442,2.172-5.05,2.224-7.792c0.019-1.006-0.924-1.523-1.808-1.376
		c-0.295,0.049-0.593,0.095-0.891,0.139c-0.002-2.645,0.035-5.294,0.18-7.93c0.054-0.986,0.18-1.963,0.297-2.941
		c0.046-0.022,0.09-0.05,0.132-0.088c2.105-1.931,3.077-4.998,3.968-7.625c1.04-3.071,2.068-6.126,3.615-8.988
		c0.607-1.126,1.344-2.176,2.483-2.807c0.522-0.29,0.833-0.206,1.41-0.139c0.714,0.083,1.434,0.128,2.144,0.236
		c1.606,0.243,3.21,0.644,4.762,1.121c1.244,0.383,2.613,0.792,3.699,1.538c1.56,1.07,2.211,3.051,2.45,4.842
		c0.15,1.129,0.161,2.282,0.161,3.419c0.002,1.067,0.03,2.259,0.584,3.199c0.229,0.391,0.818,0.396,1.047,0
		c0.496-0.856,0.616-1.955,0.635-2.932C435.227,104.257,435.234,103.111,435.132,101.971z M375.683,89.09
		c3.9-1.239,7.845-2.223,11.935-2.071c0.005,0.171,0.011,0.342,0.015,0.514c0.012,0.41,0.246,0.668,0.537,0.779
		c0.256,2.538-0.018,5.145,0.688,7.625c0.004,0.016,0.01,0.032,0.016,0.048c-1.131-0.188-2.248-0.233-3.402-0.194
		c-2.293,0.076-4.885,0.649-6.834,1.907c-1.508,0.973-2.351,2.514-3.101,4.099c-0.902,1.906-1.788,3.875-2.422,5.889
		c-0.283,0.902-0.553,1.813-0.764,2.736c-0.076,0.332-0.151,0.728-0.151,1.11c-0.543-0.084-1.131-0.073-1.656-0.057
		c-0.604,0.019-1.193,0.116-1.77,0.264c1.625-2.859,2.314-6.21,2.96-9.4c0.777-3.84,1.355-7.74,2.476-11.501
		c0.191-0.641,0.39-1.279,0.593-1.917C375.03,89.111,375.337,89.2,375.683,89.09z M345.711,187.931
		c-0.06-0.389-0.118-0.778-0.177-1.166c0.088,0.136,0.203,0.245,0.332,0.326C345.812,187.37,345.76,187.649,345.711,187.931z
		 M346.491,173.43c-0.822,2.119-1.547,4.244-1.95,6.452c-0.284-1.998-0.576-3.994-0.9-5.985c-0.768-4.715-1.838-9.365-2.95-14.009
		c-0.482-2.014-1.053-3.997-1.905-5.889c-0.495-1.098-1.095-2.106-1.767-3.072c0.167-0.061,0.322-0.167,0.442-0.329
		c1.115-1.511,1.778-3.387,2.471-5.123c0.689-1.726,1.322-3.481,1.864-5.259c1.105-3.629,1.965-7.329,2.74-11.042
		c1.555-7.445,2.894-14.95,4.936-22.284c1.045-3.751,2.306-7.462,3.914-11.013c2.034,0.767,4.049,1.599,6.146,2.17
		c0.03,0.292,0.061,0.583,0.098,0.874c0.151,1.227,2.084,1.272,1.964,0c-0.038-0.39-0.067-0.781-0.093-1.173
		c0.222-0.386,0.229-0.897-0.06-1.242c-0.182-5.655,0.831-11.422,2.686-16.729c0.26-0.744,0.548-1.477,0.835-2.21
		c0.303-0.778,0.358-1.568,0.617-2.354c0.232-0.707,0.282-1.326,0.667-1.973c0.423-0.713,0.874-1.409,1.354-2.085
		c1.625-2.289,3.84-3.917,5.884-5.789c1.082-0.991,2.166-1.995,3.354-2.858c0.959-0.698,2.137-1.55,3.363-1.638
		c0.501-0.036,1.271,0.042,1.707,0.331c0.246,0.164,0.269,0.223,0.25,0.547c-0.062,1.079-0.848,2.223-1.289,3.176
		c-0.757,1.637-1.27,3.368-1.834,5.078c-0.684,2.074-1.354,4.153-2.019,6.233c-1.367,4.285-2.824,8.534-4.28,12.788
		c-1.306,3.817-1.924,7.832-2.701,11.778c-0.778,3.954-1.787,7.842-3.242,11.605c-0.002,0.005-0.002,0.009-0.004,0.014
		c-0.183,0.075-0.365,0.151-0.547,0.229c-3.21,1.374-6.129,3.326-9.058,5.203c-0.366,0.234-0.53,0.561-0.548,0.888
		c-0.14,0.101-0.258,0.242-0.337,0.43c-1.503,3.597-0.267,7.702,0.861,11.22c0.578,1.804,1.183,3.597,1.596,5.448
		c0.299,1.333,0.541,2.681,0.748,4.034c-1.119,2.702-2.217,5.405-3.283,8.131c-1.189,3.043-2.214,6.112-3.223,9.215
		c-0.45,1.387-0.803,2.808-1.315,4.172c-0.506,1.348-1.075,2.672-1.66,3.988C348.831,168.054,347.553,170.694,346.491,173.43z
		 M348.855,177.563c-0.021-0.161-0.042-0.322-0.064-0.484c-0.099-0.736-0.183-1.475-0.186-2.218
		c-0.003-0.839,0.208-1.673,0.113-2.507c-0.005-0.047-0.018-0.093-0.033-0.138c0.797-1.96,1.698-3.881,2.554-5.775
		c1.157-2.557,2.212-5.155,3.149-7.8c1.065-3.008,2.322-5.961,3.465-8.943c0.751-1.958,1.48-3.917,2.166-5.891
		c0.347,2.986,0.652,5.989,0.883,8.995C357.505,161.331,352.38,169.087,348.855,177.563z"/>
	<path fill="#2E2D35" d="M499.435,137.711c-1.857-1.883-4.513-3.133-6.845-4.317c-0.31-0.157-0.637-0.125-0.901,0.016
		c0.038-0.116,0.075-0.232,0.114-0.348c0.818-2.492,1.688-4.966,2.512-7.456c0.699-2.113,1.307-4.259,2.04-6.359
		c1.102-3.151,2.398-6.23,3.329-9.441c0.899-3.104,1.476-6.457,0.687-9.658c-0.365-1.484-1.486-2.773-2.608-3.76
		c-1.037-0.91-2.173-1.646-3.566-1.806c-2.728-0.313-4.678,2.008-5.973,4.095c-1.452,2.342-2.421,4.934-3.539,7.441
		c-1.777,3.989-3.622,7.965-5.473,11.921c-1.653,3.535-3.429,7.102-5.77,10.247c-0.378-0.014-0.789,0.178-0.931,0.579
		c-0.182,0.512-0.454,0.981-0.63,1.498c-0.314,0.924,0.99,1.665,1.639,0.954c5.331-5.848,8.136-13.667,11.448-20.724
		c1.159-2.47,2.35-4.944,3.578-7.381c1.041-2.065,2.307-4.566,4.244-5.808c0.8-0.513,1.464-0.751,2.45-0.38
		c1.242,0.467,2.416,1.711,3.051,2.851c1.449,2.606,0.522,5.777-0.238,8.474c-0.902,3.193-2.213,6.239-3.367,9.343
		c-1.488,4.003-2.654,8.132-4.064,12.166c-0.892,2.553-1.894,5.073-2.904,7.581c-0.997,2.472-1.904,4.978-2.959,7.427
		c-1.086,2.526-2.173,5.046-3.199,7.597c-0.522,1.299-0.791,2.695-1.36,3.968c-0.552,1.232-1.123,2.453-1.651,3.695
		c-0.268,0.627,0.603,1.189,0.943,0.552c0.58-1.084,1.146-2.176,1.711-3.269c0.63-1.22,1.521-2.245,2.206-3.43
		c1.259-2.178,2.428-4.405,3.416-6.719c1.751-4.105,3.079-8.337,4.45-12.572c0.044,0.068,0.099,0.134,0.167,0.198
		c2.046,1.881,4.909,2.61,6.704,4.828c0.534,0.661,1.606,1.934,1.573,2.67c-0.017,0.405-0.743,1.364-1.13,1.939
		c-1.758,2.619-3.118,5.487-4.538,8.297c-0.741,1.468-1.482,2.939-2.284,4.375c-0.384,0.688-0.78,1.369-1.2,2.036
		c-0.401,0.64-0.934,1.241-1.144,1.973c-0.104,0.359,0,0.727,0.215,1.012c-1.429-0.279-2.848-0.467-4.301-0.583
		c-1.301-0.104-2.462,0.074-3.728,0.317c-1.128,0.217-0.769,1.821,0.256,1.896c0.517,0.038,0.944,0.198,1.444,0.312
		c0.58,0.132,1.181,0.188,1.767,0.288c1.414,0.239,2.83,0.553,4.233,0.858c1.356,0.295,2.688,0.667,4.032,1.01
		c0.521,0.132,1.059,0.271,1.6,0.355c-0.078,0.114-0.145,0.244-0.194,0.395c-2.132,6.411-2.915,13.168-3.596,19.863
		c-0.686,6.76-1.327,13.508-2.241,20.242c-1.978,14.564-1.858,29.299-2.601,43.955c-0.76,15.01-2.235,29.971-3.755,44.919
		c-1.521,14.966-3.043,29.934-3.938,44.954c-0.447,7.51-0.915,15.024-1.229,22.541c-0.314,7.541-0.68,15.102-0.695,22.65
		c-0.002,0.967,0.01,1.923,0.045,2.879c-0.078,0.005-0.16,0.02-0.244,0.049c-4.677,1.614-9.18-2.053-12.716-4.637
		c-2.084-1.522-4.167-2.909-6.493-4.046c-2.807-1.372-5.737-2.395-8.664-3.472c-11.533-4.243-23.748-6.41-35.96-7.507
		c-12.484-1.12-25.103-1.088-37.583,0.072c-12.521,1.163-24.927,3.485-36.841,7.558c-5.564,1.901-10.999,4.185-16.518,6.216
		c-5.409,1.992-10.797,4.008-15.851,6.814c-1.183,0.657-2.201,1.4-3.217,2.288c-0.606,0.53,0.167,1.312,0.796,1.033
		c2.488-1.103,4.898-2.393,7.436-3.395c2.719-1.075,5.475-2.065,8.241-3.014c5.454-1.872,10.935-3.668,16.396-5.523
		c11.818-4.018,23.965-6.743,36.378-8.077c12.391-1.331,24.905-1.503,37.328-0.517c12.151,0.964,24.071,3.198,35.859,6.269
		c5.64,1.469,10.979,3.44,15.912,6.585c3.887,2.478,8.217,6.141,13.104,5.992c0.985-0.03,1.885-0.286,2.747-0.725
		c0.018,0.232,0.038,0.465,0.06,0.698c0.119,1.249,1.828,1.252,1.947,0c0.356-3.759,0.338-7.541,0.46-11.313
		c0.12-3.702,0.246-7.41,0.475-11.107c0.463-7.527,0.993-15.051,1.439-22.579c0.889-14.951,2.396-29.847,3.928-44.743
		c1.528-14.881,3.102-29.763,4.058-44.693c0.942-14.704,1.171-29.422,2.635-44.093c0.681-6.825,1.726-13.585,2.213-20.433
		c0.481-6.776,1.046-13.569,2.375-20.239c0.315-1.58,0.62-3.156,1.011-4.719c0.139-0.552-0.02-0.998-0.318-1.298
		c0.404-0.25,0.608-0.814,0.327-1.244c-0.72-1.093-1.946-1.558-3.168-1.946c-1.012-0.321-2.056-0.567-3.102-0.789
		c1.011-0.714,1.659-2.082,2.273-3.134c0.691-1.183,1.334-2.395,1.953-3.616c1.267-2.49,2.435-5.03,3.775-7.481
		c0.58-1.062,1.214-2.08,1.88-3.089c0.416-0.633,0.851-1.295,1.004-2.048C502.477,140.969,500.709,139.004,499.435,137.711z"/>
	<path fill="#2E2D35" d="M418.972,52.17c-2.058-0.781-4-1.834-6.076-2.575c-2.086-0.743-4.554-1.336-6.718-0.559
		c-4.31,1.548-3.562,7.408-4.191,10.965c-0.171,0.97,1.214,1.39,1.499,0.413c0.523-1.791,0.945-3.61,1.45-5.406
		c0.398-1.418,0.771-3.069,2.364-3.5c1.831-0.495,3.921,0.297,5.612,0.952c1.424,0.552,2.796,1.23,4.201,1.828
		c-0.973,6.027-0.394,12.162-0.689,18.239c-0.314,6.427-2.707,12.45-3.67,18.771c-0.157,1.031,1.391,1.501,1.598,0.44
		c1.22-6.27,3.947-12.137,4.538-18.542c0.596-6.444-0.27-12.998,1.017-19.38C420.06,53.055,419.689,52.443,418.972,52.17z"/>
	<path fill="#2E2D35" d="M300.661,347.837c-0.773-5.308-1.778-10.561-2.685-15.847c-0.905-5.268-1.982-10.498-2.421-15.831
		c-0.22-2.675-0.347-5.347-0.428-8.028c-0.081-2.696,0.042-5.373,0.003-8.066c-0.078-5.263-0.25-10.564-0.828-15.801
		c-0.316-2.874-1.045-5.698-1.927-8.446c-0.874-2.723-1.545-5.516-1.406-8.395c0.051-1.049-1.686-1.317-1.862-0.253
		c-0.432,2.623-0.271,5.145,0.066,7.765c0.325,2.533,0.938,5.012,1.275,7.54c0.695,5.226,0.661,10.566,0.896,15.824
		c0.239,5.374,0.633,10.746,1.041,16.114c0.415,5.459,0.745,10.945,1.419,16.379c0.754,6.076,1.917,12.062,3.794,17.89
		C298.239,350.676,300.948,349.817,300.661,347.837z"/>
	<path fill="#2E2D35" d="M303.496,362.215c-0.176-1.904-0.43-3.888-1.036-5.707c-0.443-1.33-2.435-0.797-2.108,0.581
		c0.648,2.731,0.022,5.567,0.766,8.294c0.121,0.443,0.509,0.884,0.976,0.977c0.838,0.166,1.611-0.273,1.745-1.162
		C303.973,364.299,303.58,363.13,303.496,362.215z"/>
	<path fill="#2E2D35" d="M312.701,364.404c-0.187-0.65-0.349-1.298-0.462-1.966c-0.239-1.408-0.354-2.833-0.613-4.238
		c-0.273-1.474-2.441-0.828-2.224,0.612c0.23,1.522,0.29,3.063,0.521,4.586c0.199,1.308,0.551,3.176,1.846,3.852
		c0.644,0.336,1.279-0.093,1.349-0.773C313.187,365.814,312.884,365.043,312.701,364.404z"/>
	<path fill="#2E2D35" d="M291.206,244.027c-0.152-1.23-0.194-2.467-0.238-3.705c-0.09-2.554-0.161-5.104-0.193-7.659
		c-0.069-5.346-0.713-10.548-1.654-15.808c-1.587-8.873-3.064-17.864-3.432-26.885c-0.101-2.469-0.156-4.984,0.02-7.451
		c0.155-2.174,0.598-4.272,1.001-6.406c0.25-1.327-1.716-2.42-2.357-0.994c-0.866,1.928-1.212,4.016-1.478,6.101
		c-0.274,2.153-0.447,4.317-0.464,6.488c-0.037,4.609,0.329,9.214,0.852,13.791c0.519,4.537,1.137,9.062,1.945,13.557
		c0.977,5.437,1.901,10.815,2.076,16.349c0.09,2.859,0.041,5.752,0.338,8.603c0.154,1.479,0.406,2.955,0.73,4.407
		c0.303,1.361,0.611,2.713,1.532,3.791c0.616,0.721,1.635,0.074,1.705-0.707C291.694,246.329,291.35,245.188,291.206,244.027z"/>
	<path fill="#2E2D35" d="M295.828,230.96c-0.002-1.198-0.002-2.397-0.006-3.597c-0.008-2.396-0.072-4.793-0.112-7.189
		c-0.024-1.462-2.247-1.465-2.271,0c-0.04,2.396-0.104,4.793-0.112,7.189c-0.004,1.14-0.004,2.277-0.006,3.416
		c-0.002,1.114-0.1,2.522,0.472,3.514c0.338,0.587,1.225,0.587,1.563,0C295.899,233.35,295.83,232.02,295.828,230.96z"/>
	<path fill="#2E2D35" d="M460.846,359.658c-0.669-0.808-1.509-1.45-2.386-2.015c-0.799-0.515-1.983,0.557-1.367,1.366
		c0.604,0.796,1.178,1.616,1.817,2.384c0.588,0.705,1.293,1.741,2.216,1.986c0.627,0.168,1.106-0.299,1.167-0.889
		C462.396,361.483,461.447,360.383,460.846,359.658z"/>
	<path fill="#2E2D35" d="M465.961,358.046c-0.426-1.176-0.913-2.329-1.457-3.455c-0.559-1.153-2.24-0.146-1.711,1
		c0.498,1.079,0.929,2.184,1.304,3.311c0.326,0.982,0.521,2.265,1.262,3.019c0.408,0.417,1.207,0.24,1.341-0.354
		C466.952,360.438,466.343,359.104,465.961,358.046z"/>
	<path fill="#2E2D35" d="M469.858,349.397c-0.096-1.065-0.302-2.109-0.61-3.134c-0.402-1.333-2.486-0.769-2.092,0.576
		c0.262,0.89,0.458,1.791,0.523,2.719c0.06,0.833-0.168,1.844,0.354,2.547c0.319,0.431,0.921,0.602,1.341,0.173
		C470.108,351.532,469.947,350.369,469.858,349.397z"/>
</g>
</svg>
