<svg version="1.1" id="Layer_1" xmlns="http://www.w3.org/2000/svg" xmlns:xlink="http://www.w3.org/1999/xlink" viewBox="0 0 768 430" enable-background="new 0 0 768 430" xml:space="preserve">
<g>
	<rect x="195.755" y="108.349" fill="#D88F3A" width="123.107" height="71.232"/>
	<rect x="195.755" y="108.349" fill="#9E6A2E" width="123.107" height="13.678"/>
	<rect x="188.346" y="89.302" fill="#E42F00" width="137.926" height="27.916"/>
	<path fill="#D88F3A" d="M306.415,135.706h-98.212c-24.818,0-44.937,14.471-44.937,39.288v20.963v119.854v20.964
		c0,24.816,20.119,39.285,44.937,39.285h98.212c24.817,0,44.937-14.469,44.937-39.285v-20.964V195.957v-20.963
		C351.352,150.176,331.232,135.706,306.415,135.706z"/>
	<path fill="#FFFFFF" d="M337.334,186.849c-4.253-1.196-9.301-2.227-14.981-3.124c-4.319-0.663-9.035-1.262-14.019-1.759
		c-4.785-0.533-9.801-0.93-15.016-1.262c-4.551-0.3-9.237-0.532-13.986-0.731c-4.914-0.166-9.965-0.299-15.013-0.365
		c-4.652-0.034-9.369-0.034-14.021,0c-5.048,0.066-10.099,0.199-15.014,0.365c-4.75,0.199-9.434,0.431-13.985,0.731
		c-5.216,0.332-10.232,0.729-15.017,1.262c-4.982,0.497-9.699,1.096-14.018,1.759c-5.681,0.897-10.728,1.928-14.981,3.124
		c-8.772,2.425-14.018,5.447-14.018,9.102v79.427v40.427c0,3.657,5.246,6.678,14.018,9.104c4.253,1.197,9.3,2.226,14.981,3.125
		c4.318,0.664,9.035,1.262,14.018,1.761c4.785,0.532,9.801,0.928,15.017,1.26c4.551,0.301,9.236,0.531,13.985,0.732
		c4.915,0.165,9.966,0.299,15.014,0.363c4.652,0.035,9.369,0.035,14.021,0c5.048-0.064,10.099-0.198,15.013-0.363
		c4.75-0.201,9.435-0.432,13.986-0.732c5.215-0.332,10.231-0.728,15.016-1.26c4.983-0.499,9.699-1.097,14.019-1.761
		c5.68-0.899,10.728-1.928,14.981-3.125c8.772-2.426,14.017-5.446,14.017-9.104v-40.427V195.95
		C351.352,192.295,346.106,189.273,337.334,186.849z"/>
	<ellipse fill="#EAAC5B" cx="210.105" cy="158.616" rx="21.76" ry="8.998"/>
	<path fill="#E42F00" d="M177.284,186.849v138.059c-8.772-2.426-14.018-5.446-14.018-9.104V195.95
		C163.266,192.295,168.512,189.273,177.284,186.849z"/>
	<path fill="#E42F00" d="M206.282,181.965v147.828c-4.982-0.499-9.699-1.097-14.018-1.761V183.725
		C196.583,183.062,201.3,182.462,206.282,181.965z"/>
	<path fill="#E42F00" d="M235.285,179.972v151.813c-4.75-0.201-9.434-0.432-13.985-0.732v-150.35
		C225.851,180.403,230.535,180.171,235.285,179.972z"/>
	<path fill="#E42F00" d="M264.319,179.606v152.542c-4.652,0.035-9.369,0.035-14.021,0V179.606
		C254.951,179.572,259.667,179.572,264.319,179.606z"/>
	<path fill="#E42F00" d="M293.319,180.703v150.35c-4.551,0.301-9.237,0.531-13.986,0.732V179.972
		C284.082,180.171,288.768,180.403,293.319,180.703z"/>
	<path fill="#E42F00" d="M322.354,183.725v144.308c-4.319,0.664-9.035,1.262-14.019,1.761V181.965
		C313.318,182.462,318.034,183.062,322.354,183.725z"/>
	<path fill="#E42F00" d="M351.352,195.95v119.854c0,3.657-5.245,6.678-14.017,9.104V186.849
		C346.106,189.273,351.352,192.295,351.352,195.95z"/>
	<ellipse fill="#FFFFFF" cx="257.309" cy="255.883" rx="75.795" ry="50.78"/>
	<path fill="#E42F00" d="M257.309,308.319c-42.711,0-77.458-23.522-77.458-52.439c0-28.911,34.748-52.436,77.458-52.436
		c42.712,0,77.459,23.524,77.459,52.436C334.768,284.797,300.021,308.319,257.309,308.319z M257.309,206.765
		c-40.878,0-74.137,22.034-74.137,49.115c0,27.085,33.259,49.118,74.137,49.118c40.878,0,74.137-22.033,74.137-49.118
		C331.446,228.799,298.187,206.765,257.309,206.765z"/>
	<ellipse fill="#E42F00" cx="257.309" cy="255.883" rx="69.031" ry="43.234"/>
</g>
<g>
	<path fill="#FFDB82" d="M596.188,139.795c7.741-4.04,13.081-12.045,13.081-21.378c0-25.969-21.051-47.02-47.021-47.02H435.707
		c-25.968,0-47.02,21.051-47.02,47.02c0,9.333,5.341,17.338,13.08,21.378c-0.185,0.177-0.386,0.333-0.567,0.515
		c-7.73,7.73-12.513,18.412-12.513,30.209l3.868,175.534c0.34,15.552,13.044,27.983,28.6,27.983h155.647
		c15.556,0,28.26-12.432,28.6-27.983l3.867-175.534C609.27,158.445,604.241,147.564,596.188,139.795z"/>
	<path fill="#BC7A2F" d="M576.803,376.274H421.155c-16.643,0-30.476-13.534-30.843-30.171l-3.862-175.537
		c0-11.35,4.143-22.018,11.706-30.314c-7.288-4.894-11.706-13.019-11.706-21.838c0-27.159,22.098-49.258,49.257-49.258h126.542
		c27.164,0,49.262,22.099,49.262,49.258c0,8.826-4.427,16.959-11.736,21.853c7.594,8.301,11.736,18.934,11.736,30.25l-3.866,175.587
		C607.274,362.74,593.445,376.274,576.803,376.274z M435.707,73.638c-24.687,0-44.778,20.088-44.778,44.776
		c0,8.14,4.552,15.569,11.878,19.394l2.758,1.44l-2.594,2.478c-7.83,7.814-12.042,17.979-12.042,28.79l3.865,175.487
		c0.312,14.222,12.139,25.787,26.361,25.787h155.647c14.223,0,26.05-11.565,26.358-25.784l3.87-175.541
		c0-11.009-4.402-21.346-12.396-29.059l-2.239-2.159l2.758-1.44c7.326-3.827,11.877-11.257,11.877-19.394
		c0-24.688-20.092-44.776-44.782-44.776H435.707z"/>
	<path fill="#D88F3A" d="M588.487,307.156c1.522,11.113-1.165,22.81-7.347,32.175c-2.603,3.941-5.827,7.572-9.813,10.082
		c-14.787,9.226-33.696,1.389-50.949-0.94c-19.357-2.647-38.893,2.103-58.429,1.881c-19.536-0.228-41.355-7.44-49.288-25.271
		c-2.598-5.916-3.451-12.366-4.257-18.775c-0.091-0.719-0.178-1.48-0.269-2.238c-0.672-5.334-1.21-11.16-0.538-16.536
		c0.672-5.42,2.554-10.397,6.588-13.979c3.628-3.14,8.559-4.704,11.737-8.292c6.142-6.854,3.406-17.787-1.476-25.537
		c-3.99-6.274-9.233-12.01-12.056-18.731c-0.625-1.616-1.163-3.271-1.521-5.019c-2.557-12.593,5.96-25.182,16.669-32.306
		c1.612-1.076,3.315-2.106,4.39-3.674c1.839-2.824,1.254-6.498,0.584-9.768c-2.375-11.919-4.439-25.363,2.461-35.354
		c1.435-2.017,3.138-3.809,4.708-5.69c-10.219-8.872-20.39-19.627-19.896-32.935c14.696-3.808,29.976,2.869,45.167,2.869
		c17.925,0.045,34.456-9.052,51.978-12.458c0.717-0.133,1.435-0.267,2.15-0.402c15.772-2.599,32.305,0.044,46.511,7.304
		c1.881,0.941,3.672,1.971,5.466,3.092c11.965,7.483,22.45,20.701,19.848,34.59c-2.283,12.279-13.755,20.748-18.326,32.397
		c-3.091,7.975-2.644,17.295,1.256,24.958c4.525,8.828,13.175,15.234,16.581,24.509c6.81,18.55-9.905,37.638-10.083,57.397
		C580.241,283.053,586.831,294.702,588.487,307.156z"/>
	<path fill="#CA8637" d="M588.487,307.156c1.522,11.113-1.165,22.81-7.347,32.175c-2.603,3.941-5.827,7.572-9.813,10.082
		c-14.787,9.226-33.696,1.389-50.949-0.94c-19.357-2.647-38.893,2.103-58.429,1.881c-19.536-0.228-41.355-7.44-49.288-25.271
		c-2.598-5.916-3.451-12.366-4.257-18.775c-0.091-0.719-0.178-1.48-0.269-2.238c-0.672-5.334-1.21-11.16-0.538-16.536
		c6.631,8.152,13.938,15.815,21.731,22.852c5.96,5.42,13.892,8.379,21.957,7.841c11.562-0.759,22.987-4.393,32.797-10.575
		c5.02-3.18,10.307-7.171,16.179-6.496c3.225,0.358,6.093,2.106,9.051,3.494c3.987,1.928,8.243,3.184,12.59,3.855
		c16.669,2.462,29.351-14.654,22.044-29.844c-2.105-4.302-4.48-8.466-7.124-12.502c-4.077-6.092-8.96-12.367-9.093-19.714
		c-0.137-7.394,4.749-14.07,10.617-18.638c3.225-2.511,6.81-4.528,10.395-6.544c6.812-3.854,9.905-12.097,7.261-19.491
		c-1.974-5.512-5.064-11.022-6.946-16.58c-5.6-16.489-0.178-35.71,11.965-48.212c4.301-4.392,9.589-8.469,11.023-14.43
		c1.165-4.839-5.379-20.477-6.453-28.989c1.881,0.941,3.672,1.971,5.466,3.092c11.965,7.483,22.45,20.701,19.848,34.59
		c-2.283,12.279-13.755,20.748-18.326,32.397c-3.091,7.975-2.644,17.295,1.256,24.958c4.525,8.828,13.175,15.234,16.581,24.509
		c6.81,18.55-9.905,37.638-10.083,57.397C580.241,283.053,586.831,294.702,588.487,307.156z"/>
	<path fill="#E69E45" d="M557.394,103.73c-4.48,4.212-17.788,1.792-23.701,1.837c-2.6,0.045-5.288,0.089-7.618,1.254
		c-2.15,1.075-3.72,2.958-5.378,4.705c-10.122,10.429-25.564,15.092-39.859,12.873c-6.812-1.057-13.071,3.837-13.32,10.727
		l-0.007,0.149c-0.043,1.836-0.087,3.763,0.717,5.421c0.763,1.479,2.105,2.555,3.273,3.72c4.164,4.077,6.495,9.948,6.271,15.772
		c-0.402,10.172-8.065,19.401-6.631,29.484c0.314,2.061,0.986,4.21,0.36,6.229c-0.762,2.464-3.273,3.941-5.648,4.973
		c-7.394,3.226-15.728,4.345-22.45,8.829c-6.538,4.344-10.753,11.38-16.261,16.98c-0.405,0.401-0.854,0.85-1.302,1.209
		c-0.626-1.612-1.164-3.27-1.525-5.019c-2.553-12.589,5.963-25.182,16.669-32.306c1.615-1.076,3.318-2.105,4.394-3.674
		c1.835-2.822,1.254-6.498,0.584-9.768c-2.375-11.919-4.439-25.361,2.461-35.354c0.017-0.02,0.029-0.041,0.046-0.061
		c2.378-3.325,2.105-7.793-0.827-10.644c-0.976-0.949-1.934-1.917-2.862-2.907c-9.66-10.305-0.979-26.991,12.95-24.665
		c6.868,1.146,13.779,2.52,20.672,2.52c17.921,0.045,34.456-9.051,51.978-12.456c2.015,0.268,4.078,0.583,6.138,0.896
		C542.834,95.353,554.796,96.965,557.394,103.73z"/>
</g>
<g>
	<path fill="#E3C97E" d="M285.441,250.333c0.128-0.257,0.245-0.507,0.348-0.76c0.859-2.069,1.086-4.091,0.935-5.985
		c-0.032-0.356-0.075-0.707-0.129-1.051c-0.37-2.34-1.285-4.438-2.239-6.135c-0.463-0.831-0.938-1.563-1.362-2.181
		c-0.035-0.051-0.072-0.104-0.11-0.155c-0.123-0.179-0.237-0.344-0.354-0.499c-0.103-0.15-0.208-0.286-0.298-0.416
		c-0.02-0.012-0.042-0.029-0.062-0.045c-0.104-0.075-0.213-0.155-0.327-0.24c-0.271-0.188-0.561-0.396-0.89-0.616
		c-1.979-1.34-5.043-3.095-8.616-3.533c-0.35-0.042-0.704-0.071-1.063-0.088c-1.74-0.077-3.576,0.179-5.448,0.958
		c-0.249,0.106-0.502,0.22-0.753,0.344c-1.619,0.791-3.256,1.981-4.878,3.698c-0.075,0.077-0.146,0.159-0.224,0.236
		c-0.195,0.215-0.39,0.422-0.575,0.63c-1.937,2.154-3.303,4.1-4.324,5.858c-0.153,0.263-0.295,0.519-0.435,0.772
		c-1.061,1.965-1.719,3.694-2.304,5.235c-0.117,0.299-0.227,0.591-0.337,0.876c-0.71,1.823-1.415,3.374-2.764,4.724
		c-0.188,0.191-0.396,0.376-0.61,0.559c-0.713,0.6-1.58,1.161-2.667,1.692c-1.025,0.5-2.034,1.025-3.013,1.567
		c-0.26,0.14-0.514,0.288-0.767,0.432c-1.641,0.94-3.208,1.939-4.668,2.981c-0.234,0.169-0.463,0.334-0.694,0.506
		c-1.946,1.44-3.682,2.969-5.165,4.558c-0.188,0.201-0.376,0.409-0.555,0.616c-1.486,1.688-2.67,3.433-3.477,5.217
		c-0.111,0.26-0.225,0.52-0.321,0.775c-0.828,2.132-1.107,4.309-0.707,6.479c0.074,0.415,0.178,0.837,0.304,1.252
		c0.422,1.382,1.132,2.764,2.157,4.12c0.341,0.447,0.714,0.901,1.126,1.343c0.117,0.13,0.237,0.253,0.36,0.377
		c0,0,0.004,0.006,0,0.006c0.211,0.221,0.422,0.422,0.633,0.623c0.071,0.065,0.146,0.134,0.22,0.201
		c0.247,0.228,0.497,0.448,0.75,0.648c0.1,0.085,0.208,0.169,0.308,0.247c0.577,0.454,1.162,0.85,1.746,1.188
		c0.953,0.552,1.914,0.96,2.88,1.227c0.415,0.116,0.83,0.207,1.249,0.269c1.985,0.312,3.98,0.059,5.939-0.658
		c0.26-0.094,0.52-0.198,0.775-0.309c1.798-0.775,3.565-1.937,5.266-3.403c0.208-0.181,0.415-0.362,0.62-0.551
		c1.631-1.492,3.202-3.264,4.684-5.242c0.166-0.228,0.337-0.454,0.5-0.688c1.016-1.414,1.992-2.926,2.91-4.513
		c0.146-0.253,0.292-0.509,0.435-0.762c0.601-1.064,1.174-2.167,1.723-3.29c0.419-0.862,0.86-1.582,1.321-2.199
		c0.172-0.228,0.343-0.44,0.521-0.643c1.386-1.569,2.979-2.349,4.877-3.101c0.281-0.11,0.574-0.221,0.869-0.334
		c1.583-0.604,3.374-1.263,5.411-2.359c0.26-0.136,0.517-0.285,0.782-0.434c1.746-1.007,3.672-2.356,5.808-4.257
		c0.21-0.186,0.421-0.383,0.639-0.584c0.117-0.104,0.237-0.215,0.357-0.327C283.463,253.577,284.649,251.941,285.441,250.333z"/>
	<path fill="#BF9352" d="M254.364,264.658c0.739-1.012,1.408-1.931,2.011-2.728c0.165-0.218,0.145-0.523-0.045-0.718
		c-0.114-0.116-0.228-0.233-0.341-0.351c-0.253-0.26-0.497-0.516-0.739-0.765c-0.198-0.211-0.526-0.231-0.75-0.046
		c-0.646,0.532-1.375,1.122-2.173,1.771c-0.37,0.296-0.752,0.607-1.149,0.929c-0.253,0.204-0.272,0.583-0.044,0.817
		c0.635,0.643,1.248,1.274,1.839,1.898c0.237,0.249,0.642,0.224,0.846-0.056C254.003,265.158,254.185,264.904,254.364,264.658z"/>
	<path fill="#BF9352" d="M249.186,281.482c0.643,0.869,1.23,1.699,1.759,2.479c1.631-1.492,3.202-3.264,4.681-5.246
		c-0.597-0.724-1.25-1.495-1.957-2.312C252.31,278.18,250.817,279.926,249.186,281.482z"/>
	<path fill="#BF9352" d="M254.175,275.728c0.7,0.811,1.356,1.582,1.956,2.304c1.015-1.415,1.989-2.927,2.91-4.511
		c-0.574-0.687-1.19-1.42-1.858-2.189C256.274,272.756,255.272,274.248,254.175,275.728z"/>
	<path fill="#BF9352" d="M256.745,260.454c0.227,0.236,0.613,0.221,0.821-0.032c0.24-0.285,0.463-0.542,0.678-0.766
		c0.727-0.766,1.515-1.485,2.349-2.187c0.247-0.208,0.266-0.584,0.032-0.818v-0.003c-0.314-0.314-0.622-0.622-0.924-0.931
		c-0.234-0.24-0.62-0.217-0.827,0.042c-0.668,0.834-1.375,1.625-2.157,2.368c-0.221,0.211-0.473,0.438-0.75,0.685
		c-0.236,0.207-0.256,0.57-0.036,0.798c0.211,0.221,0.429,0.447,0.653,0.678C256.637,260.344,256.692,260.402,256.745,260.454z"/>
	<path fill="#BF9352" d="M257.691,262.608c-0.237-0.24-0.629-0.218-0.83,0.051c-0.565,0.754-1.177,1.594-1.83,2.486
		c-0.247,0.343-0.502,0.69-0.762,1.044c-0.152,0.215-0.136,0.513,0.042,0.704c0.801,0.866,1.56,1.703,2.274,2.508
		c0.244,0.279,0.691,0.236,0.885-0.078c0.487-0.785,0.945-1.541,1.369-2.238c0.37-0.616,0.717-1.185,1.038-1.706
		c0.136-0.221,0.101-0.507-0.084-0.685c-0.445-0.436-0.912-0.898-1.408-1.393C258.162,263.075,257.932,262.845,257.691,262.608z"/>
	<path fill="#BF9352" d="M283.822,240.616c0.16-2.812-0.435-5.087-0.82-6.238c-0.12,0.993-0.5,2.439-1.505,4.341
		C282.338,239.439,283.112,240.068,283.822,240.616z"/>
	<path fill="#BF9352" d="M250.639,271.799c0.885,0.95,1.719,1.871,2.501,2.754c0.244,0.275,0.682,0.253,0.895-0.045
		c0.844-1.168,1.626-2.337,2.353-3.465c0.132-0.214,0.116-0.493-0.055-0.688c-0.733-0.831-1.521-1.707-2.355-2.612
		c-0.243-0.263-0.668-0.243-0.885,0.049c-0.782,1.055-1.609,2.147-2.485,3.257C250.435,271.27,250.448,271.591,250.639,271.799z"/>
	<path fill="#BF9352" d="M259.543,267.513c-0.574,0.948-1.207,1.992-1.9,3.096c0.652,0.752,1.262,1.473,1.83,2.147
		c0.599-1.067,1.174-2.167,1.722-3.29c0.422-0.856,0.86-1.583,1.32-2.199c-0.542-0.493-1.135-1.051-1.793-1.678
		C260.355,266.174,259.962,266.819,259.543,267.513z"/>
	<path fill="#BF9352" d="M275.803,242.596c0.263,0.243,0.52,0.477,0.779,0.7c0.232,0.204,0.587,0.182,0.787-0.055
		c1.227-1.474,2.155-2.784,2.842-3.938c0.14-0.23,0.094-0.525-0.106-0.7c-0.38-0.338-0.771-0.691-1.171-1.064
		c-0.484-0.447-0.948-0.896-1.396-1.343c-0.012-0.014-0.026-0.026-0.035-0.039c-0.181-0.182-0.464-0.215-0.681-0.078
		c-1.168,0.707-2.476,1.608-3.906,2.758c-0.25,0.2-0.283,0.57-0.064,0.804C273.75,240.627,274.729,241.619,275.803,242.596z"/>
	<path fill="#BF9352" d="M281.029,233.151c-1.171-0.396-3.243-0.898-5.804-0.687c0.648,0.765,1.357,1.55,2.112,2.338
		C278.827,233.969,280.069,233.46,281.029,233.151z"/>
	<path fill="#BF9352" d="M246.451,267.474c0.992,0.983,1.94,1.95,2.838,2.895c0.234,0.243,0.629,0.224,0.837-0.042
		c0.889-1.136,1.735-2.258,2.53-3.332c0.162-0.218,0.143-0.513-0.042-0.707c-0.704-0.743-1.437-1.499-2.196-2.271
		c-0.201-0.202-0.526-0.221-0.746-0.04c-1.019,0.837-2.092,1.735-3.192,2.687C246.237,266.87,246.224,267.247,246.451,267.474z"/>
	<path fill="#BF9352" d="M284.611,241.204c0.743,0.545,1.411,0.999,2.004,1.371c-0.369-2.335-1.283-4.435-2.238-6.134
		C284.62,237.749,284.766,239.387,284.611,241.204z"/>
	<path fill="#BF9352" d="M279.219,252.312c-0.34,0.341-0.69,0.662-1.043,0.979c1.236,0.932,2.313,1.674,3.246,2.268
		c0.117-0.107,0.238-0.217,0.358-0.331c1.706-1.612,2.893-3.247,3.685-4.856c-0.856-0.359-1.96-0.915-3.307-1.765
		C281.4,249.846,280.439,251.091,279.219,252.312z"/>
	<path fill="#BF9352" d="M262.695,262.854c-0.4,0.357-0.913,1.071-1.522,2.021c0.688,0.659,1.304,1.24,1.865,1.749
		c1.385-1.569,2.979-2.349,4.875-3.102c-0.816-0.727-1.709-1.538-2.673-2.433C264.247,261.66,263.385,262.235,262.695,262.854z"/>
	<path fill="#BF9352" d="M282.574,247.887c1.339,0.844,2.417,1.382,3.237,1.726c0.862-2.069,1.09-4.088,0.932-5.982
		c-0.65-0.389-1.396-0.872-2.24-1.479C284.245,243.954,283.667,245.907,282.574,247.887z"/>
	<path fill="#BF9352" d="M261.357,256.214c0.201,0.198,0.51,0.218,0.73,0.045c1.093-0.853,2.245-1.683,3.422-2.54
		c0.157-0.109,0.315-0.227,0.47-0.337c-0.009-0.01-0.012-0.017-0.021-0.022c-0.633-0.61-1.25-1.217-1.843-1.813
		c-0.292-0.289-0.575-0.574-0.854-0.856c-0.373,0.035-0.481,0.045-0.856,0.084c-0.789,1.188-1.554,2.346-2.359,3.455
		c-0.159,0.218-0.143,0.516,0.045,0.71C260.507,255.36,260.933,255.785,261.357,256.214z"/>
	<path fill="#BF9352" d="M268.556,259.338c-0.905,0.461-1.761,0.896-2.553,1.33c1.01,0.935,1.934,1.774,2.784,2.521
		c1.583-0.604,3.371-1.262,5.411-2.358c-0.924-0.769-1.981-1.681-3.188-2.757C270.178,258.514,269.354,258.936,268.556,259.338z"/>
	<path fill="#BF9352" d="M271.784,257.651c1.213,1.08,2.275,1.988,3.193,2.744c1.748-1.006,3.672-2.352,5.807-4.253
		c-0.949-0.606-2.024-1.362-3.254-2.3C275.693,255.37,273.724,256.59,271.784,257.651z"/>
	<path fill="#BF9352" d="M266.321,252.562c0.272,0.02,0.447,0.028,0.713,0.049c1.393-1.02,2.804-2.09,4.208-3.264
		c0.255-0.215,0.263-0.604,0.019-0.831c-0.077-0.071-0.155-0.143-0.237-0.214c-0.643-0.604-1.262-1.204-1.861-1.804
		c-0.564-0.564-1.11-1.129-1.632-1.687c-0.226-0.241-0.614-0.233-0.824,0.019c-1.193,1.422-2.226,2.861-3.199,4.295
		c-0.146,0.222-0.12,0.507,0.062,0.695C264.449,250.722,265.368,251.637,266.321,252.562z"/>
	<path fill="#BF9352" d="M271.593,247.691c0.129,0.123,0.258,0.247,0.389,0.364c0.208,0.194,0.529,0.194,0.743,0.006
		c0.584-0.525,1.168-1.077,1.746-1.661c0.58-0.584,1.116-1.142,1.612-1.687c0.208-0.23,0.19-0.584-0.04-0.792
		c-0.263-0.23-0.525-0.467-0.798-0.717c-0.522-0.477-1.028-0.96-1.511-1.443c-0.537-0.539-1.055-1.077-1.545-1.618
		c-0.201-0.225-0.545-0.247-0.771-0.05c-0.861,0.753-1.758,1.594-2.696,2.531c-0.24,0.239-0.481,0.486-0.707,0.729
		c-0.201,0.211-0.208,0.541-0.008,0.756C269.114,245.298,270.308,246.498,271.593,247.691z"/>
	<path fill="#BF9352" d="M256.145,257.528c0.813-0.766,1.544-1.603,2.242-2.482c0.171-0.214,0.152-0.525-0.039-0.724
		c-0.675-0.707-1.328-1.401-1.95-2.076c-0.247-0.266-0.678-0.227-0.876,0.085c-0.444,0.71-0.901,1.35-1.391,1.9
		c-0.286,0.318-0.733,0.678-1.317,1.091c-0.272,0.188-0.318,0.571-0.101,0.82c0.571,0.639,1.197,1.32,1.885,2.061
		c0.201,0.213,0.545,0.233,0.769,0.035C255.658,257.982,255.921,257.749,256.145,257.528z"/>
	<path fill="#BF9352" d="M261.63,250.449c0.107-0.162,0.217-0.324,0.32-0.486c0.143-0.214,0.121-0.499-0.062-0.688
		c-0.869-0.909-1.7-1.798-2.481-2.654c-0.256-0.278-0.72-0.221-0.898,0.12c-0.25,0.489-0.5,0.977-0.739,1.45
		c-0.432,0.85-0.847,1.654-1.253,2.413c-0.113,0.208-0.084,0.461,0.075,0.633c0.679,0.743,1.392,1.506,2.135,2.284
		c0.237,0.25,0.649,0.224,0.846-0.056C260.271,252.493,260.942,251.484,261.63,250.449z"/>
	<path fill="#BF9352" d="M249.766,262.199c0.201,0.201,0.517,0.215,0.737,0.036c0.451-0.366,0.889-0.721,1.301-1.055
		c0.74-0.6,1.437-1.161,2.066-1.684c0.247-0.204,0.269-0.571,0.055-0.808c-0.743-0.792-1.411-1.525-2.018-2.209
		c-0.178-0.201-0.477-0.244-0.704-0.101c-0.561,0.35-1.184,0.733-1.861,1.148c-0.652,0.401-1.35,0.83-2.083,1.291
		c-0.308,0.191-0.35,0.619-0.091,0.869c0.445,0.422,0.902,0.856,1.373,1.311C248.958,261.401,249.364,261.804,249.766,262.199z"/>
	<path fill="#BF9352" d="M282.172,246.871c0.85-1.716,1.32-3.4,1.531-4.96c0.026-0.194-0.055-0.39-0.214-0.51
		c-0.593-0.45-1.229-0.957-1.907-1.528c-0.257-0.214-0.646-0.152-0.824,0.137c-0.695,1.126-1.597,2.385-2.76,3.776
		c-0.202,0.233-0.172,0.584,0.064,0.778c1.213,1.013,2.313,1.836,3.298,2.521C281.64,247.277,282.022,247.173,282.172,246.871z"/>
	<path fill="#BF9352" d="M240.187,271.354c1.369-1.373,2.774-2.684,4.166-3.919c0.003-0.345,0.006-0.507,0.012-0.851
		c-1.158-1.115-2.228-2.121-3.218-3.03c-0.204-0.191-0.519-0.203-0.739-0.032c-1.418,1.1-2.813,2.291-4.097,3.562
		c-0.237,0.236-0.221,0.63,0.039,0.843c1.12,0.948,2.33,2.019,3.634,3.235C240.051,271.228,240.115,271.289,240.187,271.354z"/>
	<path fill="#BF9352" d="M245.838,266.128c1.08-0.938,2.137-1.823,3.146-2.65c0.26-0.218,0.282-0.613,0.039-0.854
		c-0.347-0.34-0.701-0.685-1.054-1.028c-0.593-0.571-1.162-1.116-1.709-1.628c-0.192-0.182-0.48-0.208-0.708-0.065
		c-1.141,0.74-2.329,1.541-3.523,2.407c-0.291,0.211-0.317,0.639-0.048,0.883c0.944,0.882,1.969,1.849,3.072,2.909
		c0.004,0.004,0.004,0.004,0.004,0.004C245.27,266.312,245.61,266.322,245.838,266.128z"/>
	<path fill="#BF9352" d="M268.138,242.041c0.95-0.954,1.858-1.804,2.731-2.569c0.228-0.198,0.254-0.539,0.059-0.772
		c-0.95-1.136-1.794-2.248-2.536-3.306c-0.172-0.25-0.517-0.314-0.766-0.144c-0.99,0.675-1.986,1.49-2.979,2.489
		c-0.272,0.266-0.532,0.538-0.778,0.813c-0.18,0.198-0.189,0.5-0.026,0.711c0.866,1.096,1.815,2.238,2.852,3.406
		c0.217,0.24,0.593,0.247,0.814,0.017C267.712,242.469,267.924,242.254,268.138,242.041z"/>
	<path fill="#BF9352" d="M266.224,243.384c-1.002-1.122-1.931-2.229-2.778-3.29c-0.22-0.279-0.648-0.285-0.862,0
		c-1.207,1.558-2.209,3.199-3.102,4.827c-0.117,0.205-0.085,0.462,0.071,0.633c0.828,0.915,1.71,1.865,2.641,2.846
		c0.244,0.252,0.662,0.22,0.86-0.072c0.959-1.404,1.989-2.822,3.175-4.217C266.408,243.903,266.405,243.592,266.224,243.384z"/>
	<path fill="#BF9352" d="M276.134,234.734c-0.593-0.648-1.157-1.288-1.686-1.916c-0.126-0.15-0.318-0.225-0.51-0.191
		c-1.436,0.245-2.995,0.739-4.599,1.589c-0.301,0.155-0.389,0.539-0.199,0.811c0.718,1.01,1.522,2.064,2.424,3.141
		c0.194,0.233,0.538,0.26,0.771,0.071c1.34-1.083,2.576-1.96,3.695-2.66C276.323,235.394,276.371,234.987,276.134,234.734z"/>
	<path fill="#BF9352" d="M279.496,236.928c0.467,0.435,0.917,0.844,1.355,1.229c1.119-2.18,1.35-3.676,1.365-4.473
		c-0.924,0.227-2.374,0.713-4.269,1.745C278.441,235.929,278.956,236.432,279.496,236.928z"/>
	<path fill="#BF9352" d="M267.738,253.924c1.126,1.064,2.158,2.021,3.102,2.881c0.175,0.158,0.432,0.188,0.637,0.074
		c1.627-0.898,3.278-1.907,4.843-3.121c0.275-0.213,0.275-0.639,0.003-0.862c-1.106-0.883-2.313-1.901-3.625-3.075
		c-0.208-0.183-0.515-0.188-0.726-0.007c-1.398,1.178-2.797,2.244-4.179,3.264C267.518,253.281,267.492,253.687,267.738,253.924z"/>
	<path fill="#BF9352" d="M235.521,285.446c0.305,0.344,0.604,0.682,0.889,1.019c0.117,0.136,0.285,0.215,0.463,0.204
		c1.719-0.087,3.355-0.489,4.905-1.132c0.341-0.143,0.464-0.564,0.253-0.866c-0.526-0.752-1.104-1.534-1.739-2.335
		c-0.188-0.244-0.539-0.282-0.788-0.107c-1.227,0.883-2.502,1.667-3.815,2.323C235.353,284.72,235.269,285.165,235.521,285.446z"/>
	<path fill="#BF9352" d="M240.971,281.858c0.701,0.889,1.337,1.758,1.915,2.596c0.168,0.239,0.49,0.324,0.75,0.181
		c1.424-0.798,2.774-1.783,4.039-2.899c0.227-0.201,0.26-0.545,0.078-0.781c-0.729-0.951-1.525-1.944-2.391-2.956
		c-0.217-0.256-0.604-0.272-0.843-0.036c-1.106,1.094-2.258,2.132-3.455,3.086C240.812,281.249,240.774,281.608,240.971,281.858z"/>
	<path fill="#BF9352" d="M265.997,254.388c-1.099,0.798-2.173,1.576-3.199,2.368c-0.266,0.204-0.286,0.597-0.042,0.83
		c0.094,0.094,0.19,0.188,0.288,0.279c0.708,0.688,1.386,1.33,2.027,1.94c0.175,0.162,0.435,0.194,0.643,0.077
		c0.773-0.415,1.6-0.837,2.465-1.281c0.487-0.243,0.978-0.496,1.477-0.756c0.34-0.175,0.401-0.636,0.12-0.895
		c-0.882-0.805-1.834-1.694-2.854-2.671c-0.195-0.185-0.493-0.204-0.708-0.049C266.14,254.284,266.067,254.335,265.997,254.388z"/>
	<path fill="#BF9352" d="M262.006,258.015c-0.202-0.197-0.522-0.215-0.74-0.032c-0.866,0.72-1.681,1.463-2.423,2.245
		c-0.237,0.246-0.497,0.545-0.772,0.882c-0.179,0.214-0.162,0.535,0.036,0.739c0.707,0.717,1.369,1.376,1.982,1.979
		c0.243,0.239,0.649,0.201,0.843-0.085c0.457-0.675,0.856-1.184,1.21-1.502c0.535-0.48,1.161-0.928,1.855-1.365
		c0.305-0.191,0.354-0.619,0.091-0.869c-0.522-0.49-1.061-1.006-1.622-1.545C262.312,258.312,262.159,258.163,262.006,258.015z"/>
	<path fill="#BF9352" d="M234.837,276.528c-1.029-0.928-1.989-1.735-2.884-2.442c-0.292-0.23-0.727-0.124-0.882,0.221
		c-0.743,1.653-1.217,3.406-1.331,5.248c-0.009,0.18,0.065,0.351,0.202,0.468c0.464,0.396,0.944,0.817,1.443,1.271
		c0.273,0.247,0.698,0.176,0.882-0.136c0.782-1.305,1.671-2.589,2.638-3.849C234.879,277.012,234.863,276.83,234.837,276.528z"/>
	<path fill="#BF9352" d="M235.444,277.959c-0.999,1.311-1.908,2.647-2.693,4.003c-0.133,0.23-0.088,0.52,0.104,0.704
		c0.441,0.425,0.866,0.854,1.272,1.275c0.172,0.175,0.435,0.23,0.659,0.126c1.424-0.664,2.803-1.489,4.133-2.433
		c0.275-0.194,0.321-0.587,0.1-0.84c-0.827-0.961-1.732-1.934-2.718-2.894C236.053,277.66,235.651,277.689,235.444,277.959z"/>
	<path fill="#BF9352" d="M245.873,277.323c0.873,1.019,1.674,2.015,2.414,2.972c0.211,0.272,0.617,0.306,0.859,0.059
		c1.317-1.314,2.544-2.745,3.676-4.214c0.171-0.218,0.158-0.522-0.023-0.73c-0.798-0.901-1.655-1.855-2.566-2.838
		c-0.237-0.257-0.646-0.244-0.866,0.029c-1.097,1.332-2.254,2.666-3.471,3.954C245.692,276.771,245.682,277.103,245.873,277.323z"/>
	<path fill="#BF9352" d="M239.197,272.366c-0.006-0.324-0.012-0.499-0.019-0.823c-1.239-1.149-2.388-2.161-3.452-3.057
		c-0.237-0.201-0.59-0.176-0.798,0.055c-1.104,1.236-2.093,2.54-2.904,3.923c-0.149,0.246-0.081,0.564,0.146,0.742
		c0.963,0.753,2.008,1.622,3.134,2.631c0.244,0.221,0.616,0.191,0.828-0.058C237.102,274.607,238.136,273.47,239.197,272.366z"/>
	<path fill="#BF9352" d="M275.058,246.984c-0.545,0.545-1.086,1.058-1.632,1.558c-0.246,0.221-0.246,0.604,0,0.82
		c1.356,1.204,2.592,2.241,3.722,3.131c0.21,0.165,0.509,0.155,0.71-0.026c0.263-0.239,0.522-0.486,0.778-0.739
		c1.025-1.025,1.857-2.066,2.535-3.108c0.165-0.253,0.1-0.587-0.146-0.759c-1.051-0.721-2.226-1.603-3.526-2.687
		c-0.23-0.191-0.561-0.168-0.765,0.053C276.215,245.79,275.66,246.378,275.058,246.984z"/>
	<path fill="#BF9352" d="M232.122,283.107c-0.344,0.661-0.655,1.327-0.934,1.995c0.075,0.065,0.149,0.133,0.224,0.201
		c0.739-0.194,1.47-0.438,2.187-0.72C233.13,284.09,232.638,283.598,232.122,283.107z"/>
	<path fill="#BF9352" d="M237.251,287.484c0.386,0.477,0.746,0.943,1.09,1.397c1.989,0.312,3.987,0.062,5.943-0.658
		c-0.399-0.698-0.86-1.46-1.385-2.265C241.13,286.796,239.249,287.341,237.251,287.484z"/>
	<path fill="#BF9352" d="M248.91,256.827c0.782-0.48,1.502-0.925,2.138-1.33c-0.99-1.142-1.774-2.115-2.404-2.936
		c-0.714,0.6-1.58,1.157-2.667,1.69c-1.025,0.499-2.031,1.024-3.017,1.565c0.931,0.825,1.953,1.753,3.069,2.797
		C247.051,257.969,248.021,257.372,248.91,256.827z"/>
	<path fill="#BF9352" d="M234.214,287.387c0.954,0.558,1.917,0.96,2.88,1.226c-0.282-0.356-0.571-0.72-0.872-1.09
		C235.564,287.522,234.892,287.478,234.214,287.387z"/>
	<path fill="#BF9352" d="M253.514,253.681c0.636-0.711,1.22-1.6,1.803-2.615c-1.216-1.356-2.322-2.621-3.298-3.782
		c-0.711,1.819-1.415,3.364-2.764,4.717c0.639,0.837,1.453,1.843,2.495,3.043C252.573,254.497,253.189,254.044,253.514,253.681z"/>
	<path fill="#BF9352" d="M239.804,272.928c-1.081,1.119-2.128,2.28-3.111,3.465c-0.194,0.23-0.169,0.574,0.045,0.781
		c1.09,1.058,2.086,2.122,2.987,3.173c0.201,0.233,0.555,0.272,0.792,0.078c1.217-0.971,2.385-2.028,3.511-3.141
		c0.217-0.214,0.227-0.564,0.022-0.791c-1.055-1.175-2.2-2.375-3.429-3.579C240.394,272.69,240.024,272.697,239.804,272.928z"/>
	<path fill="#BF9352" d="M257.034,247.814c0.402-0.791,0.817-1.602,1.255-2.432c-1.369-1.532-2.583-2.953-3.63-4.219
		c-1.062,1.967-1.72,3.695-2.303,5.236c0.996,1.188,2.125,2.498,3.387,3.899C256.161,249.528,256.585,248.694,257.034,247.814z"/>
	<path fill="#BF9352" d="M234.655,267.601c-1.323-1.073-2.505-1.963-3.542-2.689c-1.483,1.688-2.667,3.438-3.472,5.217
		c0.986,0.558,2.131,1.291,3.455,2.264C232.06,270.686,233.276,269.086,234.655,267.601z"/>
	<path fill="#BF9352" d="M230.701,273.132c-1.298-0.961-2.427-1.681-3.384-2.226c-0.824,2.131-1.106,4.309-0.71,6.476
		c0.704,0.506,1.479,1.103,2.326,1.794C229.105,277.031,229.74,275.017,230.701,273.132z"/>
	<path fill="#BF9352" d="M262.5,238.874c-1.204-1.576-2.232-3.043-3.082-4.341c-1.934,2.154-3.299,4.102-4.325,5.859
		c1.035,1.259,2.242,2.68,3.615,4.218C259.765,242.676,260.981,240.71,262.5,238.874z"/>
	<path fill="#BF9352" d="M240.17,262.659c-1.256-1.138-2.365-2.102-3.332-2.923c-1.947,1.444-3.689,2.97-5.165,4.559
		c1.047,0.733,2.229,1.629,3.552,2.705C236.754,265.424,238.447,263.977,240.17,262.659z"/>
	<path fill="#BF9352" d="M228.884,280.207c-0.704-0.59-1.363-1.109-1.969-1.573c0.421,1.386,1.129,2.764,2.157,4.12
		C228.937,281.888,228.878,281.041,228.884,280.207z"/>
	<path fill="#BF9352" d="M234.208,285.226c-0.672,0.279-1.356,0.526-2.047,0.729c0.104,0.085,0.208,0.166,0.308,0.247
		c1.039,0.27,2.047,0.425,3.034,0.471C235.093,286.196,234.658,285.713,234.208,285.226z"/>
	<path fill="#BF9352" d="M245.312,259.075c-1.139-1.061-2.177-1.998-3.114-2.825c-1.645,0.94-3.209,1.939-4.668,2.984
		c0.97,0.82,2.07,1.787,3.312,2.92C242.354,261.028,243.872,260.004,245.312,259.075z"/>
	<path fill="#BF9352" d="M229.724,280.925c0.036,1.031,0.191,2.089,0.474,3.172c0.117,0.13,0.237,0.253,0.36,0.38
		c0.285-0.655,0.597-1.311,0.941-1.96C230.879,281.942,230.289,281.414,229.724,280.925z"/>
	<path fill="#BF9352" d="M280.978,232.289c-1.981-1.34-5.051-3.095-8.619-3.533c0.661,0.938,1.417,1.943,2.271,2.987
		C277.337,231.433,279.595,231.88,280.978,232.289z"/>
	<path fill="#BF9352" d="M245.02,267.941c-1.278,1.136-2.569,2.335-3.837,3.588c-0.217,0.214-0.214,0.571,0.006,0.788
		c1.22,1.19,2.352,2.378,3.403,3.539c0.217,0.24,0.59,0.247,0.811,0.014c1.23-1.304,2.397-2.66,3.501-4.013
		c0.175-0.218,0.165-0.529-0.026-0.73c-0.977-1.025-2.014-2.083-3.101-3.159C245.568,267.76,245.234,267.75,245.02,267.941z"/>
	<path fill="#BF9352" d="M243.645,285.583c0.536,0.834,1.009,1.615,1.415,2.332c1.797-0.775,3.562-1.934,5.261-3.403
		c-0.522-0.772-1.103-1.596-1.741-2.465C247.051,283.438,245.403,284.655,243.645,285.583z"/>
	<path fill="#BF9352" d="M273.676,231.88c-0.905-1.136-1.7-2.219-2.385-3.211c-1.739-0.078-3.571,0.181-5.443,0.959
		c0.593,1.149,1.411,2.596,2.485,4.215C270.191,232.775,272.005,232.176,273.676,231.88z"/>
	<path fill="#BF9352" d="M264.057,237.155c1.19-1.19,2.384-2.135,3.572-2.881c-1.094-1.654-1.931-3.134-2.535-4.305
		c-1.619,0.792-3.256,1.982-4.876,3.694c-0.078,0.085-0.149,0.162-0.224,0.244c0.837,1.284,1.853,2.747,3.054,4.327
		C263.373,237.869,263.706,237.506,264.057,237.155z"/>
</g>
</svg>
