<svg version="1.1" id="Layer_1" xmlns="http://www.w3.org/2000/svg" xmlns:xlink="http://www.w3.org/1999/xlink" viewBox="0 0 768 430" enable-background="new 0 0 768 430" xml:space="preserve">
<path stroke="#000000" stroke-width="2.1936" d="M258.373,233.266c0,0-1.361,6.662-1.145,13.732
	c2.144,70.111,60.746,127.014,135.596,127.014c74.849,0,134.898-56.566,135.596-127.014c0.083-8.371-2.768-14.877-2.768-14.877
	s16.02,3.435,44.627,24.03c25.175,4.576,16.021-16.021,16.021-16.021s-5.722-16.021-42.339-44.627
	c-36.617-28.606-35.631-38.266-39.62-55.933c-4.021-17.804-9.583-41.329-9.583-41.329s-8.462-36.965-27.69-56.074
	c-19.229-19.109-45.661-30.89-74.815-30.89c-29.37,0-55.975,11.982-75.236,31.348c-19.261,19.366-30.036,48.751-30.036,48.751
	s-6.149,23.312-6.007,42.049c0.139,18.343-4.291,34.617-40.907,63.224c-36.617,28.605-42.338,44.626-42.338,44.626
	s-8.725,19.311,16.449,14.734C242.782,237.129,258.373,233.266,258.373,233.266L258.373,233.266z"/>
<g>
	
		<linearGradient id="SVGID_1_" gradientUnits="userSpaceOnUse" x1="1689.8408" y1="389.1201" x2="1689.8408" y2="742.2451" gradientTransform="matrix(0.4562 0 0 0.4243 -378.8135 -151.9089)">
		<stop  offset="0" style="stop-color:#FFFFFF"/>
		<stop  offset="1" style="stop-color:#FFFFFF;stop-opacity:0"/>
	</linearGradient>
	<path fill="url(#SVGID_1_)" d="M474.73,88.11c0,41.375-36.999,74.916-82.639,74.915c-45.64,0-82.638-33.541-82.638-74.917
		c0-41.375,37-74.916,82.639-74.915c45.641,0,82.638,33.541,82.638,74.915"/>
</g>
<linearGradient id="SVGID_2_" gradientUnits="userSpaceOnUse" x1="708.1514" y1="839.9023" x2="708.1514" y2="976.0045" gradientTransform="matrix(0.4199 0 0 0.4199 95.8701 -163.2809)">
	<stop  offset="0" style="stop-color:#FFFFFF"/>
	<stop  offset="1" style="stop-color:#BEBEBE"/>
</linearGradient>
<path fill="url(#SVGID_2_)" d="M502.502,270.39c0,34.745-12.235,66.95-32.015,89.735c-19.781,22.787-134.745,22.786-154.525,0
	c-19.78-22.785-32.019-54.257-32.019-89.002c0-69.488,48.958-125.886,109.281-125.886
	C453.101,145.237,501.805,201.421,502.502,270.39L502.502,270.39z"/>
<g>
	<path opacity="0.3857" fill="#FFFFFF" enable-background="new    " d="M292.521,225.475c0,0-3.695,34.727,0.738,54.677
		c4.433,19.949,9.605,39.898,9.605,39.898l-10.713,3.324c0,0-5.911-6.649-11.083-14.776c-5.172-8.127-11.453-24.752-11.453-24.752
		l16.625,12.931c0,0-3.325-14.039-1.848-29.556C285.871,251.705,287.349,235.449,292.521,225.475z"/>
</g>
<g>
	<path fill="#A0A0A0" d="M335.078,168.553c0,0,4.829,7.398,8.129,7.5c5.461,0.582,6.994,6.348,12.399,5.961
		c11.585,13.902,21.76,26.792,32.573,32.198c3.853,2.526,8.047,3.143,11.585-2.985c6.179-5.406,20.394-20.635,23.432-26.521
		c4.477-5.167,3.464-12.732,3.464-12.732s7.662-3.042,11.451-3.312c4.279-0.304,0.629-7.744,4.424-8.448
		c-0.955-6.104,4.979-6.004-1.973-6.776c-6.95-0.772-94.995-5.406-101.947-0.772C331.666,157.3,330.445,160.057,335.078,168.553z"/>
</g>
<g>
	<path opacity="0.3857" fill="#FFFFFF" enable-background="new    " d="M493.525,227.308c0,0,3.694,34.727-0.739,54.677
		c-4.432,19.949-9.605,39.898-9.605,39.898l10.714,3.324c0,0,5.911-6.649,11.083-14.776s11.452-24.752,11.452-24.752l-16.624,12.931
		c0,0,3.324-14.039,1.848-29.556C500.176,253.537,498.697,237.282,493.525,227.308z"/>
</g>
<g>
	<path fill="#A0A0A0" d="M532.72,365.79c0,6.77-1.914,9.214-5.374,15.08H401.384c-3.46-5.866-5.374-8.312-5.374-15.08
		c0-27.074,30.622-49.046,68.355-49.046C502.097,316.744,532.719,338.716,532.72,365.79"/>
</g>
<radialGradient id="SVGID_3_" cx="897.6709" cy="1676.5459" r="162.7569" gradientTransform="matrix(0.4199 0 0 0.197 95.8701 28.5599)" gradientUnits="userSpaceOnUse">
	<stop  offset="0" style="stop-color:#DFBE00"/>
	<stop  offset="0.8" style="stop-color:#DEAF00"/>
	<stop  offset="1" style="stop-color:#DEA101"/>
</radialGradient>
<path fill="url(#SVGID_3_)" d="M541.158,368.079c0,6.769-1.914,9.213-5.374,15.08H409.823c-3.461-5.867-5.376-8.312-5.376-15.08
	c0-27.074,30.624-49.047,68.356-49.047S541.157,341.004,541.158,368.079"/>
<g>
	<path fill="#A0A0A0" d="M391.327,366.534c0,6.77-1.914,9.214-5.374,15.081H259.992c-3.46-5.866-5.374-8.312-5.374-15.081
		c0-27.074,30.623-49.047,68.354-49.047C360.704,317.487,391.326,339.46,391.327,366.534"/>
</g>
<radialGradient id="SVGID_4_" cx="520.6143" cy="1672.625" r="162.7673" gradientTransform="matrix(0.4199 0 0 0.197 95.8701 28.5599)" gradientUnits="userSpaceOnUse">
	<stop  offset="0" style="stop-color:#DFBE00"/>
	<stop  offset="0.8" style="stop-color:#DEAF00"/>
	<stop  offset="1" style="stop-color:#DEA101"/>
</radialGradient>
<path fill="url(#SVGID_4_)" d="M382.831,368.079c0,6.769-1.914,9.213-5.374,15.08H251.496c-3.46-5.867-5.374-8.312-5.374-15.08
	c0-27.074,30.623-49.047,68.355-49.047C352.208,319.032,382.83,341.004,382.831,368.079"/>
<g opacity="0.85" enable-background="new    ">
	<path d="M478.342,120.491c0,20.429-20.884,36.991-46.645,36.991c-25.764,0-46.646-16.562-46.646-36.991
		c0-20.43,20.884-36.992,46.646-36.992C457.458,83.5,478.342,100.061,478.342,120.491"/>
</g>
<g opacity="0.85" enable-background="new    ">
	<path d="M391.197,117.845c0,27.017-17.751,48.919-39.65,48.919c-21.898,0-39.65-21.902-39.65-48.919s17.753-48.918,39.651-48.918
		C373.447,68.927,391.197,90.828,391.197,117.845"/>
	<path fill="none" stroke="#000000" stroke-width="2.2551" d="M391.197,117.845c0,27.017-17.751,48.919-39.65,48.919
		c-21.898,0-39.65-21.902-39.65-48.919s17.753-48.918,39.651-48.918C373.447,68.927,391.197,90.828,391.197,117.845"/>
</g>
<radialGradient id="SVGID_5_" cx="593.3105" cy="521.4434" r="73.5684" gradientTransform="matrix(0.513 0 0 0.6495 46.7933 -219.6742)" gradientUnits="userSpaceOnUse">
	<stop  offset="0" style="stop-color:#D2D2D2"/>
	<stop  offset="0.88" style="stop-color:#D2D2D2"/>
	<stop  offset="1" style="stop-color:#808080"/>
</radialGradient>
<path fill="url(#SVGID_5_)" d="M388.902,119.004c0,26.389-16.897,47.781-37.741,47.781s-37.741-21.394-37.741-47.782
	s16.897-47.782,37.742-47.781C372.006,71.222,388.902,92.615,388.902,119.004"/>
<radialGradient id="SVGID_6_" cx="759.2168" cy="659.1797" r="73.5735" gradientTransform="matrix(0.5551 0 0 0.4647 9.0999 -183.1266)" gradientUnits="userSpaceOnUse">
	<stop  offset="0" style="stop-color:#D2D2D2"/>
	<stop  offset="0.88" style="stop-color:#D2D2D2"/>
	<stop  offset="1" style="stop-color:#808080"/>
</radialGradient>
<path fill="url(#SVGID_6_)" d="M471.377,123.195c0,19.354-18.283,35.045-40.836,35.044c-22.554,0-40.837-15.69-40.837-35.045
	c0-19.354,18.282-35.044,40.838-35.044C453.094,88.15,471.377,103.84,471.377,123.195"/>
<path d="M411.439,123.58c0,8.744-4.842,15.833-10.812,15.833c-5.972,0-10.812-7.089-10.812-15.833
	c0-8.744,4.841-15.833,10.812-15.833C406.599,107.748,411.439,114.836,411.439,123.58"/>
<linearGradient id="SVGID_7_" gradientUnits="userSpaceOnUse" x1="619.8623" y1="611.9248" x2="655.6242" y2="668.9405" gradientTransform="matrix(0.4199 0 0 0.4199 95.8701 -163.2809)">
	<stop  offset="0" style="stop-color:#FFFFFF"/>
	<stop  offset="1" style="stop-color:#FFFFFF;stop-opacity:0"/>
</linearGradient>
<path opacity="0.8" fill="url(#SVGID_7_)" enable-background="new    " d="M327.219,87.338c0,0,10.813-20.081,31.666-13.13
	c20.854,6.951,22.253,19.029,27.658,46.833c5.405,27.804-19.162,2.597-19.162,2.597s-3.089-23.942-16.991-30.894
	C336.488,85.793,327.22,88.11,327.219,87.338L327.219,87.338z"/>
<path stroke="#000000" stroke-width="2.1936" d="M388.205,123.252c0,8.744-4.842,15.833-10.812,15.833
	c-5.972,0-10.813-7.089-10.813-15.833s4.841-15.833,10.813-15.833C383.363,107.419,388.205,114.507,388.205,123.252"/>
<linearGradient id="SVGID_8_" gradientUnits="userSpaceOnUse" x1="821.3691" y1="613.7871" x2="851.2704" y2="663.5123" gradientTransform="matrix(0.4199 0 0 0.4199 95.8701 -163.2809)">
	<stop  offset="0" style="stop-color:#FFFFFF"/>
	<stop  offset="1" style="stop-color:#FFFFFF;stop-opacity:0"/>
</linearGradient>
<path opacity="0.8" fill="url(#SVGID_8_)" enable-background="new    " d="M424.532,91.2c0,0,22.397-3.862,34.754,11.585
	c12.357,15.446,8.496,20.852,8.496,20.852l-16.991,0.772C450.792,124.41,439.979,99.695,424.532,91.2L424.532,91.2z"/>
<radialGradient id="SVGID_9_" cx="1433.1631" cy="-756.3418" r="85.431" gradientTransform="matrix(-0.4199 0 0 -0.1516 1033.7402 30.0204)" gradientUnits="userSpaceOnUse">
	<stop  offset="0" style="stop-color:#FFFFFF"/>
	<stop  offset="1" style="stop-color:#FFFFFF;stop-opacity:0"/>
</radialGradient>
<path opacity="0.8" fill="url(#SVGID_9_)" enable-background="new    " d="M396.256,139.662c0,0,20.333,12,38.098,9.682
	c17.763-2.317,26.139-8.902,33.301-15.938c-1.798,8.441-18.508,21.752-33.182,22.524
	C419.799,156.702,396.256,140.434,396.256,139.662z"/>
<radialGradient id="SVGID_10_" cx="1258.374" cy="114.186" r="85.4911" gradientTransform="matrix(-0.3157 -0.3908 0.1509 -0.1041 716.8925 644.8747)" gradientUnits="userSpaceOnUse">
	<stop  offset="0" style="stop-color:#FFFFFF"/>
	<stop  offset="1" style="stop-color:#FFFFFF;stop-opacity:0"/>
</radialGradient>
<path opacity="0.8" fill="url(#SVGID_10_)" enable-background="new    " d="M318.483,105.47c0,0-0.109,26.181,15.552,41.123
	c15.661,14.942,25.067,11.813,37.457,13.647c-9.755,4.124-32.124,4.114-43.924-9.013C315.767,138.099,317.714,106,318.483,105.47z"
	/>
<radialGradient id="SVGID_11_" cx="704.541" cy="897.207" r="86.7085" gradientTransform="matrix(0.4199 0 0 0.3374 95.8701 -128.7769)" gradientUnits="userSpaceOnUse">
	<stop  offset="0" style="stop-color:#DFBE00"/>
	<stop  offset="0.8" style="stop-color:#DEAF00"/>
	<stop  offset="1" style="stop-color:#DEA101"/>
</radialGradient>
<path fill="url(#SVGID_11_)" d="M392.943,203.196l3.808-0.071c0,0,4.141-4.582,18.54-19.636
	c9.599-10.909,12.653-18.108,12.653-18.108s1.965-7.2-7.417-14.618c-12.312-6.113-18.54-6.108-27.644-6.072
	c-9.104,0.037-15.864,1.126-27.645,6.144c-11.781,5.018-9.818,15.054-9.818,15.054s0.873,4.8,15.272,19.854
	C385.092,200.796,392.943,203.196,392.943,203.196L392.943,203.196z"/>
<g>
	
		<linearGradient id="SVGID_12_" gradientUnits="userSpaceOnUse" x1="732.6904" y1="741.4316" x2="703.2336" y2="791.2951" gradientTransform="matrix(0.4199 0 0 0.4199 95.8701 -163.2809)">
		<stop  offset="0" style="stop-color:#FFFFFF"/>
		<stop  offset="1" style="stop-color:#FFFFFF;stop-opacity:0"/>
	</linearGradient>
	<path fill="url(#SVGID_12_)" d="M368.675,151.85c0,0,18.632,1.243,30.875,8.695s16.679,17.744,16.679,17.744
		s7.632-8.34,8.695-11.534c1.064-3.194,3.194-9.582-7.985-15.97c-11.18-6.389-17.566-4.614-28.392-4.437
		C377.725,146.527,368.675,152.027,368.675,151.85L368.675,151.85z"/>
</g>
<g opacity="0.8" enable-background="new    ">
	
		<linearGradient id="SVGID_13_" gradientUnits="userSpaceOnUse" x1="1458.4404" y1="1053.9893" x2="1458.4404" y2="1132.9457" gradientTransform="matrix(0.5599 0 0 0.6211 -513.3024 -329.4172)">
		<stop  offset="0" style="stop-color:#FFFFFF"/>
		<stop  offset="1" style="stop-color:#FFFFFF;stop-opacity:0"/>
	</linearGradient>
	<path fill="url(#SVGID_13_)" d="M344.983,352.634c0,15.143-18.673,27.418-41.706,27.417c-23.033,0-41.705-12.275-41.705-27.418
		c0-15.142,18.672-27.417,41.705-27.417C326.311,325.216,344.982,337.491,344.983,352.634"/>
</g>
<g opacity="0.8" enable-background="new    ">
	
		<linearGradient id="SVGID_14_" gradientUnits="userSpaceOnUse" x1="1442.8496" y1="1053.9893" x2="1442.8496" y2="1132.9457" gradientTransform="matrix(0.5599 0 0 0.6211 -324.6232 -329.4172)">
		<stop  offset="0" style="stop-color:#FFFFFF"/>
		<stop  offset="1" style="stop-color:#FFFFFF;stop-opacity:0"/>
	</linearGradient>
	<path fill="url(#SVGID_14_)" d="M524.933,352.634c0,15.143-18.672,27.418-41.705,27.417c-23.033,0-41.706-12.275-41.705-27.418
		c0-15.142,18.672-27.417,41.706-27.417C506.262,325.216,524.933,337.491,524.933,352.634"/>
</g>
<g>
	
		<linearGradient id="SVGID_15_" gradientUnits="userSpaceOnUse" x1="132.7593" y1="1049.8984" x2="422.6698" y2="823.6757" gradientTransform="matrix(0.4199 0 0 0.4199 95.8701 -163.2809)">
		<stop  offset="0" style="stop-color:#FFFFFF"/>
		<stop  offset="1" style="stop-color:#FFFFFF;stop-opacity:0"/>
	</linearGradient>
	<path fill="url(#SVGID_15_)" d="M201.331,245.665c0,0,64.875-41.706,74.916-49.429c10.041-7.723,0.772-32.437,0.772-32.437
		s-9.269,13.129-22.397,26.259c-11.585,9.269-20.854,16.991-38.617,31.665C198.241,239.487,201.331,246.438,201.331,245.665z"/>
</g>
<g>
	
		<linearGradient id="SVGID_16_" gradientUnits="userSpaceOnUse" x1="770.9541" y1="1005.6553" x2="1060.8687" y2="779.4294" gradientTransform="matrix(-0.4199 0 0 0.4199 956.1436 -145.4655)">
		<stop  offset="0" style="stop-color:#FFFFFF"/>
		<stop  offset="1" style="stop-color:#FFFFFF;stop-opacity:0"/>
	</linearGradient>
	<path fill="url(#SVGID_16_)" d="M582.691,244.894c0,0-64.874-41.706-74.916-49.429c-10.039-7.724-0.771-32.438-0.771-32.438
		s9.268,13.13,22.397,26.259c11.584,9.269,20.852,16.991,38.615,31.666C585.78,238.715,582.691,245.665,582.691,244.894z"/>
</g>
<linearGradient id="SVGID_17_" gradientUnits="userSpaceOnUse" x1="708.998" y1="1278.6445" x2="709.2337" y2="1301.2916" gradientTransform="matrix(0.4199 0 0 0.4199 95.8701 -163.2809)">
	<stop  offset="0" style="stop-color:#3C3C3C"/>
	<stop  offset="1" style="stop-color:#A0A0A0;stop-opacity:0"/>
</linearGradient>
<path fill="url(#SVGID_17_)" d="M382.096,373.703c0,0,8.329,0.717,11.746,0.652c3.853-0.073,8.883-0.416,11.564-0.728
	c0.839,4.133,3.488,7.892,4.362,9.018c1.093,1.017-32.216,0.145-32.216,0.145S381.733,377.005,382.096,373.703L382.096,373.703z"/>
<linearGradient id="SVGID_18_" gradientUnits="userSpaceOnUse" x1="676.5889" y1="652.9004" x2="683.9839" y2="679.7338" gradientTransform="matrix(0.4199 0 0 0.4199 95.8701 -163.2809)">
	<stop  offset="0" style="stop-color:#FFFFFF"/>
	<stop  offset="1" style="stop-color:#FFFFFF;stop-opacity:0"/>
</linearGradient>
<path fill="url(#SVGID_18_)" d="M375.219,108.031c0,0,2.67,7.714,2.868,14.242c5.835-1.978,8.901-3.957,8.901-3.957
	S385.506,108.031,375.219,108.031z"/>
<linearGradient id="SVGID_19_" gradientUnits="userSpaceOnUse" x1="652.2764" y1="681.0215" x2="669.2354" y2="712.8198" gradientTransform="matrix(0.4199 0 0 0.4199 95.8701 -163.2809)">
	<stop  offset="0" style="stop-color:#3C3C3C"/>
	<stop  offset="1" style="stop-color:#3C3C3C;stop-opacity:0"/>
</linearGradient>
<path fill="url(#SVGID_19_)" d="M369.15,113.511c0,0-0.989,8.604,2.67,14.44c3.66,5.835,7.814,7.715,10.979,8.406
	c-0.989,0.891-5.44,3.264-9.593-0.099c-4.155-3.363-6.231-6.626-6.231-11.077C366.975,120.729,367.765,115.191,369.15,113.511z"/>
<linearGradient id="SVGID_20_" gradientUnits="userSpaceOnUse" x1="729.2832" y1="652.1309" x2="739.0685" y2="681.3552" gradientTransform="matrix(0.4199 0 0 0.4199 95.8701 -163.2809)">
	<stop  offset="0" style="stop-color:#FFFFFF"/>
	<stop  offset="1" style="stop-color:#FFFFFF;stop-opacity:0"/>
</linearGradient>
<path fill="url(#SVGID_20_)" d="M398.135,108.533c0,0,2.671,7.714,2.868,14.242c5.835-1.979,8.9-3.956,8.9-3.956
	S408.421,108.533,398.135,108.533z"/>
<linearGradient id="SVGID_21_" gradientUnits="userSpaceOnUse" x1="708.8408" y1="683.0117" x2="725.7984" y2="714.8072" gradientTransform="matrix(0.4199 0 0 0.4199 95.8701 -163.2809)">
	<stop  offset="0" style="stop-color:#3C3C3C"/>
	<stop  offset="1" style="stop-color:#3C3C3C;stop-opacity:0"/>
</linearGradient>
<path fill="url(#SVGID_21_)" d="M392.9,114.347c0,0-0.989,8.604,2.671,14.44c3.659,5.835,7.812,7.715,10.979,8.406
	c-0.989,0.891-5.44,3.264-9.596-0.099c-4.153-3.363-6.229-6.627-6.229-11.078C390.726,121.566,391.518,116.027,392.9,114.347
	L392.9,114.347z"/>
</svg>
