<svg version="1.1" id="Layer_2" xmlns="http://www.w3.org/2000/svg" xmlns:xlink="http://www.w3.org/1999/xlink" viewBox="0 0 768 430" enable-background="new 0 0 768 430" xml:space="preserve">
<g>
	<g>
		<g>
			<polygon fill="#CE5A36" points="344.468,374.629 341.064,371.402 344.919,374.06 			"/>
		</g>
		<g>
			<g>
				<path fill="#F27011" d="M347.363,347.738c0,0,4.91,9.738,4.735,20.926c-0.289,8.467-6.06,9.411-12.647,2.675
					c-6.025-5.48-14.909,10.409-20.566-6.423c-1.859-4.963-23.244,2.401-14.057-11.695c5.337-8.57,9.192-8.487,9.192-8.487
					L347.363,347.738z"/>
				<path fill="#F28A11" d="M347.363,347.738c0,0,4.91,9.738,4.735,20.926c-0.289,8.467-5.314,5.802-11.898-0.937
					c-6.023-5.478-13.076,10.268-18.736-6.563c-1.863-4.962-21.753,6.141-12.567-7.955c5.337-8.567,9.138-8.116,9.138-8.116
					L347.363,347.738z"/>
				<path fill="#F29611" d="M348.422,350.159c1.434,3.568,3.797,10.684,3.676,18.505c-0.289,8.467-4.983,2.374-11.567-4.364
					c-6.025-5.482-10.475,11.64-16.134-5.195c-1.84-4.91-19.261,4.152-13.196-5.913c1.929-2.872,16.461,4.151,33.169-1.52
					C345.843,351.511,347.176,350.886,348.422,350.159z"/>
				<path fill="#C24D11" d="M318.703,364.985c-0.315-0.846-1.276-1.374-3.023-1.669c-1.243-0.215-2.705-0.29-4.252-0.363
					c-1.586-0.079-3.223-0.163-4.651-0.399l0,0c-2.305-0.398-3.627-1.155-4.164-2.381c-0.685-1.574-0.016-3.882,2.053-7.058
					c5.332-8.552,9.195-8.576,9.371-8.57l33.346,2.996l0.102,0.012l0.049,0.098c0.049,0.101,4.931,9.911,4.756,21.025
					c-0.104,3.012-0.911,5.22-2.333,6.378c-0.966,0.787-2.216,1.08-3.62,0.837c-2.124-0.361-4.55-1.893-7.015-4.41
					c-0.656-0.6-1.371-0.957-2.185-1.1c-1.743-0.301-3.636,0.47-5.64,1.279c-2.074,0.836-4.215,1.701-6.272,1.35
					C322.458,372.537,320.388,369.983,318.703,364.985z M339.587,371.205c2.414,2.472,4.77,3.958,6.811,4.306
					c1.311,0.231,2.423-0.026,3.319-0.748c1.334-1.092,2.088-3.202,2.188-6.099c0.165-10.43-4.166-19.716-4.67-20.747l-33.219-2.996
					c-0.037,0-3.831,0.063-9.028,8.403c-1.993,3.058-2.653,5.246-2.023,6.693c0.479,1.101,1.71,1.783,3.879,2.157l0,0
					c1.404,0.238,3.03,0.32,4.604,0.398c1.558,0.077,3.032,0.144,4.297,0.361c1.894,0.328,2.95,0.936,3.317,1.917
					c1.635,4.864,3.615,7.336,6.223,7.781c1.954,0.334,4.045-0.509,6.069-1.327c2.056-0.834,3.997-1.613,5.849-1.298
					C338.088,370.159,338.866,370.547,339.587,371.205z"/>
			</g>
			<g>
				<path fill="#F27011" d="M391.913,340.662c0,0-6.119,15.4,15.168,22.136c16.245,5.687,20.282,8.508,24.746,12.17
					c4.463,3.671,12.003,7.095,13.444-3.59c0.581-6.775,22.736-1.698,11.618-13.593c-4.931-5.094,13.722-5.58-4.492-12.18
					c-13.934-4.515-27.078-2.319-37.523-7.976C407.277,340.199,391.913,340.662,391.913,340.662z"/>
				<path fill="#F28A11" d="M396.396,340.433c0,0-9.289,12.488,12,19.233c16.248,5.683,17.829,6.993,22.294,10.656
					c4.465,3.67,11.646,8.807,13.088-1.879c0.583-6.775,21.624,0.271,10.504-11.616c-4.927-5.102,16.33-4.622-1.884-11.222
					c-13.934-4.515-27.078-2.319-37.523-7.976C407.277,340.199,396.396,340.433,396.396,340.433z"/>
				<path fill="#F29611" d="M401.381,348.666c6.126-2.826,15.206-2.265,17.129-9.407c9.782,3.612,21.523,2.342,33.888,6.347
					c14.745,5.424-7.908,4.38-2.977,9.483c11.119,11.893-7.023,3.334-7.606,10.108c-1.436,10.683-6.832,4.513-11.294,0.849
					c-4.461-3.672-5.384-4.348-21.628-10.031c-3.939-1.146-6.719-2.613-8.664-4.191
					C398.427,350.064,400.181,349.131,401.381,348.666z"/>
				<path fill="#C24D11" d="M431.705,375.117c-4.481-3.685-8.626-6.518-24.679-12.133c-7.441-2.36-12.385-6.018-14.691-10.882
					c-2.781-5.871-0.621-11.454-0.601-11.513l0.046-0.115l0.127-0.006c0.154,0,15.421-0.491,22.906-3.021l0.078-0.023l0.072,0.035
					c3.02,1.638,6.545,2.76,11.104,3.543c2.655,0.455,5.38,0.755,8.264,1.076c3.011,0.331,6.132,0.677,9.31,1.223
					c3.24,0.555,6.124,1.246,8.818,2.116c5.515,2.002,8.069,3.566,8.284,5.056c0.159,1.141-1.004,1.998-2.234,2.896
					c-1.084,0.791-2.206,1.616-2.284,2.59c-0.047,0.536,0.213,1.086,0.802,1.697c2.524,2.706,3.525,4.734,3.06,6.218
					c-0.638,2.021-3.763,2.672-7.067,3.366c-3.605,0.759-7.332,1.544-7.558,4.161c-0.427,3.153-1.418,5.319-2.944,6.444
					c-1.088,0.804-2.447,1.068-4.034,0.799C435.753,378.177,433.066,376.237,431.705,375.117z M434.289,342.459
					c-2.892-0.322-5.617-0.625-8.288-1.083c-4.561-0.783-8.106-1.908-11.146-3.539c-7.193,2.399-21.306,2.96-22.81,3.008
					c-0.284,0.819-1.858,5.844,0.638,11.098c2.262,4.767,7.123,8.354,14.459,10.678c16.126,5.647,20.293,8.494,24.806,12.203
					c1.331,1.091,3.958,2.988,6.604,3.448c1.479,0.251,2.733,0.01,3.736-0.734c1.442-1.052,2.388-3.138,2.794-6.177
					c0.247-2.888,4.114-3.703,7.861-4.489c3.189-0.673,6.202-1.304,6.77-3.111c0.426-1.341-0.541-3.252-2.965-5.841
					c-0.663-0.691-0.957-1.344-0.911-1.99c0.099-1.149,1.293-2.025,2.445-2.867c1.137-0.832,2.213-1.62,2.08-2.53
					c-0.186-1.305-2.813-2.856-8.026-4.742c-2.675-0.868-5.535-1.56-8.759-2.111C440.407,343.134,437.298,342.789,434.289,342.459z"
					/>
			</g>
			<g>
				<path fill="#1E1C1C" d="M426.399,234.935c0,0,14.482,17.862,45.544,26.278c16.829,4.173,34.215,0.54,18.187-12.786
					c-16.033-13.318-47.37-35.194-56.39-56.344C426.842,190.9,416.068,189.828,426.399,234.935z"/>
				<path fill="#30302B" d="M426.85,225.399c0,0,12.662,22.633,43.72,31.049c16.827,4.173,35.589,5.305,19.561-8.021
					c-16.033-13.318-47.37-35.194-56.39-56.344C426.842,190.9,416.515,180.293,426.85,225.399z"/>
				<path fill="#383838" d="M428.37,215.368c0,0,10.971,27.609,42.034,36.025c16.829,4.173,22.756,2.711,12.047-5.568
					c-16.489-12.756-41.195-31.898-50.214-53.047C425.344,191.596,422.898,200.435,428.37,215.368z"/>
				<path d="M471.891,261.4c-30.764-8.339-45.495-26.165-45.64-26.345l-0.026-0.03l-0.012-0.046
					c-5.292-23.112-5.676-36.662-1.177-41.421c2.375-2.509,5.619-2.201,8.734-1.667l0.103,0.017l0.042,0.098
					c7.431,17.429,30.171,35.444,46.774,48.596c3.481,2.76,6.766,5.361,9.561,7.679c5.205,4.328,7.307,8.03,6.074,10.705
					c-1.991,4.329-11.586,4.774-20.214,3.294C474.702,262.04,473.291,261.746,471.891,261.4z M425.315,193.822
					c-4.41,4.656-3.996,18.073,1.261,41.026c0.729,0.875,15.403,18.049,45.415,26.179c1.38,0.346,2.79,0.64,4.186,0.876
					c10.031,1.721,18.176,0.455,19.804-3.077c1.152-2.503-0.916-6.044-5.976-10.247c-2.787-2.318-6.069-4.923-9.549-7.677
					c-16.609-13.156-39.337-31.167-46.849-48.653C430.623,191.746,427.534,191.474,425.315,193.822z"/>
			</g>
			<g>
				<path fill="#1E1C1C" d="M345.989,184.792c0,0-28.301-32.279-1.467-48.386c-3.205-18.542,10.741-52.435,52.005-53.883
					c2.586-9.099,2.933-11.103,2.933-11.103c3.281,4.945,5.307,9.677,5.307,9.677c4.139-9.093,5.898-10.341,11.434-14.037
					c-0.727,2.716,1.369,8.573,0.985,12.335c4.929-7.71,10.094-12.243,29.123-5.886c-3.309,1.239-16.926-0.579-16.928,9.996
					c7.93,1.875,35.348,11.989,34.358,46.386c-0.473,11.785,9.87,26.712,0.671,45.774c-8.422,14.55-17.229,20.781-36.419,21.367
					c2.616,4.312,9.378,25.077,0.758,45.271c-7.807,16.98-4.076,32.835,0.609,41.634c4.683,8.8,14.054,35.428-12,56.504
					c-18.327,13.628-29.083-1.89-55.082,6.82c-20.423,6.299-60.358,9.004-73.807-20.895c-7.112-17.217-6.036-34.057,15.779-60.502
					c14.38-19.207,13.762-30.664,18.508-35.783C327.505,224.962,345.989,184.792,345.989,184.792z"/>
				<path fill="#30302B" d="M350.414,181.848c0,0-25.596-29.813,1.241-45.918c-3.208-18.542,3.608-51.958,44.872-53.407
					c2.586-9.099,2.933-11.103,2.933-11.103c3.281,4.945,5.307,9.677,5.307,9.677c4.139-9.093,5.898-10.341,11.434-14.037
					c-0.727,2.716,1.369,8.573,0.985,12.335c4.929-7.71,10.094-12.243,29.123-5.886c-3.309,1.239-16.926-0.579-16.928,9.996
					c7.93,1.875,35.348,11.989,34.358,46.386c-0.473,11.785,9.87,26.712,0.671,45.774c-8.422,14.55-17.229,20.781-36.419,21.367
					c2.616,4.312,9.378,25.077,0.758,45.271c-7.807,16.98-4.076,32.835,0.609,41.634c4.683,8.8,14.054,35.428-12,56.504
					c-18.327,13.628-29.518-9.113-55.513-0.415c-20.428,6.309-52.761-0.68-62.751-22.228c-5.424-10.666-6.496-26.842,15.319-53.289
					c14.384-19.203,14.678-32.929,19.423-38.049C338.584,221.342,350.414,181.848,350.414,181.848z"/>
				<path d="M288.292,326.44c-3.946-9.548-4.887-18.097-2.969-26.907c2.199-10.086,8.341-21.141,18.769-33.78
					c8.851-11.815,11.965-20.571,14.239-26.961c1.416-3.976,2.438-6.848,4.285-8.836c4.55-4.907,22.067-42.78,23.153-45.132
					c-1.201-1.409-15.062-18.083-12.727-33.001c0.998-6.371,4.786-11.591,11.273-15.513c-1.408-8.396,0.506-22.504,10.533-34.845
					c6.726-8.281,19.387-18.313,41.534-19.126c2.518-8.858,2.886-10.934,2.892-10.954l0.08-0.473l0.266,0.402
					c2.711,4.091,4.596,8.082,5.15,9.319c4.083-8.896,5.943-10.138,11.323-13.73l0.422-0.282l-0.135,0.491
					c-0.355,1.365,0.013,3.587,0.417,5.939c0.327,1.938,0.663,3.933,0.621,5.631c3.644-5.563,7.837-9.853,19.329-7.886
					c2.823,0.484,5.971,1.312,9.621,2.532l0.513,0.169l-0.503,0.188c-0.78,0.29-2.105,0.418-3.636,0.565
					c-5.213,0.499-13.072,1.252-13.175,9.104c2.884,0.697,12.169,3.42,20.461,11.005c9.647,8.821,14.327,20.778,13.9,35.539
					c-0.156,3.847,0.869,8.11,1.961,12.625c2.293,9.546,4.896,20.367-1.315,33.238c-8.913,15.396-18.088,20.835-36.258,21.448
					c3.076,5.461,8.798,25.979,0.609,45.172c-9.239,20.08-1.877,36.813,0.601,41.466c1.788,3.36,5.907,12.395,5.545,23.746
					c-0.4,12.773-6.321,23.879-17.602,32.998c-9.853,7.328-17.572,6.278-26.517,5.062c-7.756-1.054-16.554-2.257-28.618,1.784
					c-4.853,1.498-22.099,6.145-40.34,3.021C305.764,347.675,294.109,339.371,288.292,326.44z M436.681,71.173
					c-11.677-1.999-15.665,2.59-19.337,8.325l-0.435,0.679l0.082-0.801c0.184-1.786-0.201-4.061-0.575-6.258
					c-0.359-2.155-0.708-4.2-0.5-5.642c-5.093,3.404-6.915,4.774-10.973,13.702l-0.184,0.393l-0.169-0.399
					c-0.02-0.045-1.95-4.528-5.038-9.265c-0.215,0.99-0.891,3.805-2.842,10.669l-0.044,0.133l-0.137,0.004
					c-22.085,0.775-34.696,10.754-41.388,18.993c-9.995,12.309-11.867,26.368-10.43,34.669l0.021,0.128l-0.112,0.067
					c-6.447,3.871-10.218,9.02-11.204,15.312c-2.398,15.332,12.565,32.612,12.718,32.784l0.081,0.097l-0.051,0.107
					c-0.758,1.642-18.558,40.259-23.268,45.345c-1.794,1.936-2.808,4.773-4.205,8.704c-2.284,6.415-5.411,15.203-14.3,27.067
					c-22.487,27.26-22.561,43.821-15.751,60.299c5.843,12.992,17.085,21.001,33.419,23.798c18.155,3.108,35.329-1.514,40.157-3.006
					c12.145-4.066,20.988-2.86,28.788-1.798c8.859,1.203,16.507,2.246,26.23-4.986c27.879-22.551,14.851-50.827,11.95-56.263
					c-2.493-4.693-9.921-21.567-0.613-41.803c8.278-19.394,2.261-40.137-0.746-45.098l-0.169-0.283l0.326-0.009
					c18.223-0.552,27.373-5.921,36.254-21.257c6.146-12.733,3.558-23.484,1.279-32.968c-1.096-4.541-2.128-8.83-1.969-12.728
					c1.054-36.791-30.607-45.338-34.217-46.194l-0.149-0.033v-0.153c0.004-8.336,8.14-9.115,13.522-9.634
					c1.163-0.108,2.203-0.21,2.957-0.375C442.279,72.389,439.335,71.627,436.681,71.173z"/>
			</g>
			<g>
				<g>
					<path fill="#DEDADA" d="M462.433,116.038c-6.441-5.944-13.501-7.748-17.678-3.329c-9.45,9.991-6.158,31.447-3.396,39.407
						c0,0-11.47,3.708-17.936,0.796c18.229-47.699-9.933-59.487-28.343-55.931c-28.281,5.472-35.802,32.817-33.96,41.648
						c-9.509,4.303-15.382,16.982-5.236,30.572c20.98,28.103,72.146,27.888,72.106,27.831c19.19-0.585,27.997-6.817,36.419-21.367
						c9.199-19.062-1.144-33.989-0.671-45.774C463.885,124.746,463.39,120.15,462.433,116.038z"/>
					<path fill="#EEECEC" d="M462.433,116.038c-6.441-5.944-13.501-7.748-17.678-3.329c-9.45,9.991-6.158,31.447-3.396,39.407
						c0,0-11.47,3.708-17.936,0.796c18.229-47.699-9.933-59.487-28.343-55.931c-28.281,5.472-35.802,32.817-33.96,41.648
						c-9.509,4.303-9.733,13.751,0.378,27.373c18.099,24.388,64.897,26.996,64.863,26.938c21.437-0.448,29.626-2.725,38.048-17.274
						c9.199-19.062-1.144-33.989-0.671-45.774C463.885,124.746,463.39,120.15,462.433,116.038z"/>
					<path fill="#FFFFFF" d="M462.433,116.038c-6.441-5.944-13.501-7.748-17.678-3.329c-9.45,9.991-6.158,31.447-3.396,39.407
						c0,0-11.47,3.708-17.936,0.796c18.229-47.699-8.736-55.154-27.146-51.598c-28.28,5.474-26.723,31.021-24.88,39.849
						c-9.511,4.305-9.178,12.399-2.026,22.352c17.723,24.668,82.404,37.857,95.038,12.151c9.199-19.062-1.144-33.989-0.671-45.774
						C463.885,124.746,463.39,120.15,462.433,116.038z"/>
					<path fill="#BCBBBB" d="M355.73,169.316c-5.938-7.949-5.876-14.688-4.782-18.94c1.33-5.164,5.047-9.585,9.957-11.856
						c-0.986-5.113,1.048-15.104,6.811-23.769c4.411-6.635,12.733-15.133,27.328-17.958c3.867-0.747,7.979-0.789,11.88-0.12
						c8.264,1.415,14.904,5.858,18.697,12.518c5.744,10.079,5.072,25.159-1.955,43.619c0.795,0.337,1.693,0.596,2.693,0.765
						c5.849,1.003,13.473-1.194,14.751-1.583c-2.844-8.372-5.836-29.538,3.508-39.411c1.959-2.076,4.638-2.89,7.747-2.358
						c3.25,0.558,6.781,2.518,10.194,5.679l0.044,0.037l0.016,0.057c1.008,4.318,1.45,8.997,1.31,13.907
						c-0.156,3.847,0.869,8.11,1.961,12.625c2.293,9.546,4.896,20.365-1.315,33.238c-8.965,15.484-18.196,20.902-36.58,21.457
						v-0.003c-0.171,0.021-0.581,0.019-1.639-0.006c-0.945-0.021-2.486-0.076-4.497-0.203c-3.469-0.225-8.928-0.717-15.242-1.797
						C390.113,192.383,367.888,185.595,355.73,169.316z M427.984,196.838c18.223-0.552,27.373-5.921,36.254-21.257
						c6.146-12.733,3.558-23.484,1.279-32.968c-1.096-4.541-2.128-8.83-1.969-12.728c0.139-4.853-0.296-9.478-1.289-13.747
						c-3.353-3.083-6.79-4.998-9.957-5.541c-2.979-0.51-5.537,0.265-7.411,2.243c-9.293,9.821-6.194,31.041-3.351,39.214
						l0.062,0.183l-0.188,0.06c-0.088,0.025-8.653,2.762-15.125,1.653c-1.096-0.187-2.09-0.48-2.946-0.866l-0.167-0.077l0.066-0.164
						c7.043-18.429,7.751-33.456,2.047-43.464c-3.736-6.555-10.28-10.937-18.43-12.331c-3.859-0.662-7.918-0.621-11.747,0.117
						c-14.462,2.802-22.71,11.225-27.083,17.797c-5.763,8.661-7.764,18.638-6.724,23.625l0.033,0.151l-0.142,0.064
						c-4.873,2.206-8.565,6.565-9.882,11.668c-1.073,4.171-1.127,10.788,4.72,18.619c12.083,16.177,34.209,22.928,50.642,25.743
						c11.65,1.998,20.233,2.017,21.195,2.007L427.984,196.838z"/>
				</g>
			</g>
			<g>
				<g>
					<path fill="#DEDADA" d="M379.968,187.288c-15.712,3.271-22.916,14.206-25.512,18.866c-8.154,14.642-2.944,33.755-8.919,40.623
						c-19.398,19.121-29.68,40.165-31.261,65.948c-0.252,26.239,27.58,34.815,37.524,37.049c3.833-0.687,7.38-1.561,10.475-2.513
						c25.999-8.71,36.755,6.808,55.082-6.82c26.054-21.076,16.683-47.704,12-56.504c-4.686-8.799-8.416-24.653-0.609-41.634
						c8.62-20.194,1.858-40.959-0.758-45.271C428.015,197.072,402.389,197.189,379.968,187.288z"/>
					<path fill="#EEECEC" d="M394.685,331.268c-4.694-1.965-9.271-2.359-14.477-1.318c-17.39,4.375-35.337,3.724-47.307-12.256
						c-17.605-33.687,9.221-61.417,14.35-73.909c3.197-8.419,0.034-24.753,7.206-37.63c2.596-4.661,9.799-15.595,25.512-18.866
						c22.421,9.901,48.047,9.784,48.022,9.744c2.616,4.312,9.378,25.077,0.758,45.271c-7.807,16.98-4.076,32.835,0.609,41.634
						c2.896,5.437,7.566,17.67,4.59,31.199C428.467,336.781,403.315,335.07,394.685,331.268z"/>
					<path fill="#FFFFFF" d="M403.788,314.255c-5.821-2.159-9.989-9.45-15.575-8.467c-7.527,1.03-14.885,5.572-22.412,6.604
						c-9.474,1.086-21.113-3.23-23.266-13.271c-4.504-18.957,3.53-31.897,9.295-45.229c3.672-7.885,3.52-16.034,3.806-24.497
						c0.191-14.67,6.797-32.888,24.229-32.998c0.753,0.128,1.631-0.497,2.384-0.366c12.104-0.633,22.545,6.187,34.463,4.355
						c4.04-0.619,8.11-1.414,12.191-1.534c2.924,6.732,7.584,25.32-0.155,43.452c-7.807,16.98-4.076,32.835,0.609,41.634
						c1.82,3.424,4.351,9.543,5.229,16.991C433.947,315.137,417.416,319.652,403.788,314.255z"/>
					<path fill="#BCBBBB" d="M351.76,349.962c-4.939-1.105-14.443-3.815-22.653-9.554c-10.074-7.036-15.13-16.35-15.018-27.694
						c1.564-25.554,11.515-46.552,31.306-66.063c2.741-3.151,3.096-9.01,3.502-15.795c0.48-7.942,1.022-16.944,5.395-24.795
						c3.913-7.027,11.539-16.027,25.638-18.959l0.062-0.015l0.054,0.025c7.751,3.424,16.715,6.022,26.642,7.722
						c11.62,1.992,20.195,2.017,21.181,2.007l0.109-0.203l0.177,0.292c3.026,5.01,9.106,25.917,0.771,45.454
						c-9.239,20.08-1.877,36.813,0.601,41.466c1.788,3.36,5.907,12.395,5.545,23.746c-0.4,12.773-6.321,23.879-17.602,32.998
						c-9.853,7.328-17.572,6.278-26.512,5.062c-7.761-1.054-16.559-2.257-28.623,1.784c-3.268,1.012-6.803,1.858-10.501,2.523
						l-0.037,0.008L351.76,349.962z M421.866,197.008c-3.471-0.225-8.931-0.717-15.238-1.797h-0.004
						c-9.933-1.702-18.912-4.302-26.675-7.726c-13.92,2.919-21.453,11.81-25.325,18.76c-4.331,7.776-4.868,16.732-5.344,24.634
						c-0.413,6.852-0.767,12.769-3.606,16.031c-19.73,19.452-29.647,40.365-31.207,65.815
						c-0.254,26.336,28.461,34.858,37.335,36.854c3.672-0.658,7.179-1.505,10.416-2.502c12.145-4.066,20.988-2.86,28.788-1.798
						c8.859,1.203,16.507,2.246,26.23-4.986c27.879-22.551,14.851-50.827,11.95-56.263c-2.493-4.693-9.921-21.567-0.613-41.803
						c8.24-19.303,2.319-39.931-0.704-45.025C426.661,197.311,421.919,197.008,421.866,197.008z"/>
				</g>
			</g>
			<g>
				<path fill="#EEECEC" d="M412.458,140.035c-1.603,9.359-8.943,15.914-16.396,14.637c-7.451-1.277-12.191-9.896-10.59-19.26
					c1.604-9.357,8.943-15.911,16.396-14.634C409.321,122.054,414.062,130.676,412.458,140.035z"/>
				<path fill="#FFFFFF" d="M412.086,142.198c-1.397,8.167-7.801,13.882-14.301,12.769c-6.506-1.113-10.641-8.637-9.241-16.801
					c1.394-8.167,7.8-13.885,14.306-12.769C409.352,126.51,413.484,134.031,412.086,142.198z"/>
				<path d="M388.356,138.134c1.413-8.258,7.927-14.057,14.523-12.925c6.596,1.127,10.812,8.767,9.397,17.021
					c-1.418,8.258-7.934,14.057-14.526,12.926C391.159,154.027,386.941,146.391,388.356,138.134z M388.733,138.198
					c-1.378,8.048,2.694,15.488,9.08,16.583c6.39,1.094,12.708-4.566,14.086-12.615c1.38-8.048-2.697-15.485-9.086-16.583
					C396.428,124.49,390.113,130.149,388.733,138.198z"/>
			</g>
			<g>
				<path fill="#3FA1FC" d="M408.72,144.086c-0.704,4.087-3.578,7.006-6.426,6.52c-2.848-0.489-4.589-4.199-3.885-8.289
					c0.701-4.088,3.575-7.011,6.423-6.521C407.674,136.284,409.418,139.994,408.72,144.086z"/>
				<path fill="#3F57E3" d="M398.22,142.287c0.716-4.186,3.698-7.183,6.643-6.68c2.946,0.505,4.761,4.322,4.047,8.51
					c-0.721,4.186-3.697,7.181-6.646,6.678C399.315,150.291,397.504,146.474,398.22,142.287z M398.598,142.35
					c-0.684,3.98,0.991,7.6,3.729,8.07c2.741,0.467,5.521-2.39,6.207-6.369c0.682-3.978-0.996-7.597-3.735-8.067
					C402.061,135.514,399.275,138.371,398.598,142.35z"/>
			</g>
			<g>
				<path fill="#EEECEC" d="M456.81,135.382c0.581,8.253-2.639,15.201-7.193,15.521c-4.556,0.319-8.721-6.109-9.296-14.36
					c-0.585-8.251,2.637-15.2,7.191-15.521C452.067,120.702,456.23,127.131,456.81,135.382z"/>
				<path fill="#FFFFFF" d="M457.191,137.079c0.52,7.358-2.354,13.557-6.421,13.845c-4.059,0.282-7.771-5.451-8.29-12.81
					c-0.519-7.362,2.356-13.558,6.417-13.844C452.96,123.984,456.673,129.719,457.191,137.079z"/>
				<path d="M442.289,138.125c-0.255-3.588,0.286-7.021,1.511-9.665c1.24-2.681,3.049-4.235,5.082-4.38
					c0.352-0.025,0.704-0.007,1.05,0.051c3.774,0.647,6.975,6.205,7.451,12.933c0.251,3.593-0.286,7.027-1.511,9.67
					c-1.242,2.681-3.049,4.233-5.086,4.377c-0.348,0.023-0.7,0.007-1.048-0.053l0,0
					C445.964,150.413,442.766,144.854,442.289,138.125z M448.912,124.459c-1.893,0.134-3.584,1.61-4.767,4.161
					c-1.196,2.583-1.726,5.952-1.474,9.481c0.46,6.555,3.527,11.965,7.133,12.582c0.318,0.055,0.64,0.071,0.953,0.049
					c1.893-0.132,3.582-1.609,4.767-4.158c1.2-2.587,1.722-5.953,1.477-9.483c-0.463-6.556-3.53-11.963-7.134-12.582
					C449.545,124.453,449.226,124.438,448.912,124.459z"/>
			</g>
			<g>
				<path fill="#3FA1FC" d="M455.83,139.727c0.243,3.42-1.291,6.314-3.425,6.463c-2.128,0.15-4.055-2.5-4.294-5.922
					c-0.239-3.418,1.295-6.311,3.425-6.464C453.664,133.657,455.591,136.309,455.83,139.727z"/>
				<path fill="#3F57E3" d="M447.918,140.283c-0.118-1.689,0.186-3.309,0.845-4.56c0.683-1.281,1.659-2.031,2.758-2.108
					c0.213-0.015,0.426-0.002,0.638,0.032c2.017,0.348,3.642,2.896,3.867,6.064c0.243,3.52-1.376,6.51-3.604,6.669
					c-0.211,0.012-0.428,0.004-0.637-0.034l0,0C449.765,146.002,448.142,143.451,447.918,140.283z M451.553,133.997
					c-0.966,0.066-1.834,0.743-2.452,1.904c-0.631,1.19-0.915,2.737-0.802,4.356c0.211,2.948,1.733,5.406,3.549,5.714
					c0.18,0.032,0.364,0.041,0.543,0.027c2.027-0.141,3.485-2.948,3.248-6.258c-0.207-2.947-1.731-5.404-3.543-5.718
					C451.916,133.992,451.733,133.982,451.553,133.997z"/>
			</g>
			<g>
				<path fill="#FA5013" d="M414.23,161.396c0,0,5.697,21.276,23.556,23.64c4.041-7.05,8.157-20.531,5.864-26.725
					C437.6,160.499,414.23,161.396,414.23,161.396z"/>
				<path fill="#F28411" d="M419.387,161.146c0,0-0.358,16.679,18.399,23.89c4.041-7.05,8.157-20.531,5.864-26.725
					C437.6,160.499,419.387,161.146,419.387,161.146z"/>
				<path fill="#C24D11" d="M414.045,161.445l-0.061-0.229l0.233-0.009c0.237-0.012,23.416-0.923,29.364-3.078l0.182-0.062
					l0.066,0.177c2.316,6.27-1.862,19.884-5.881,26.888l-0.066,0.108l-0.125-0.013c-0.304-0.044-0.603-0.087-0.902-0.138
					C419.783,182.163,414.098,161.651,414.045,161.445z M443.536,158.552c-5.991,2.032-26.444,2.918-29.057,3.024
					c0.676,2.265,6.578,20.418,22.438,23.135c0.255,0.044,0.507,0.084,0.764,0.119C441.607,177.928,445.662,164.763,443.536,158.552
					z"/>
			</g>
			<g>
				<g>
					<path fill="#8A0000" d="M434.891,178.438c2.821,2.136,5.599-11.524,4.714-19.178c-4.556,0.771-11.144,1.316-16.463,1.661
						C425.344,165.724,428.254,174.523,434.891,178.438z"/>
					<path fill="#C70000" d="M437.471,159.584c0.75-0.103,1.466-0.213,2.134-0.325c0.885,7.653-1.893,21.314-4.714,19.178
						c-0.103-0.062-0.207-0.13-0.31-0.194C437.983,172.963,437.901,165.78,437.471,159.584z"/>
					<path fill="#C24D11" d="M434.796,178.602c-5.718-3.371-8.658-10.244-10.802-15.258c-0.362-0.843-0.704-1.641-1.025-2.343
						l-0.117-0.252l0.273-0.017c4.928-0.322,11.775-0.867,16.449-1.66l0.199-0.036l0.026,0.201c0.74,6.467-1.12,17.046-3.377,19.181
						c-0.36,0.341-0.732,0.482-1.103,0.418C435.132,178.806,434.953,178.722,434.796,178.602z M423.429,161.092
						c0.288,0.646,0.594,1.354,0.913,2.101c2.124,4.969,5.04,11.773,10.663,15.09c0.376,0.288,0.748,0.242,1.158-0.143
						c2.164-2.054,3.95-12.26,3.274-18.659C434.844,160.245,428.266,160.774,423.429,161.092z"/>
				</g>
			</g>
			<g>
				<path fill="#1E1C1C" d="M341.101,230.67c0,0-54.052,25.867-92.479-4.511c-6.252-4.167,15.637-7.952,32.747-13.485
					c46.422-15.006,60.935-44.089,72.763-26.508L341.101,230.67z"/>
				<path fill="#30302B" d="M341.101,230.67c0,0-51.382,17.615-82.584-2.819c-4.555-3.487,5.742-9.644,22.852-15.176
					c46.422-15.006,60.935-44.089,72.763-26.508L341.101,230.67z"/>
				<path fill="#383838" d="M335.62,225.412c-20.574,12.81-53.081,9.446-68.171,1.649c-4.558-3.493-0.024-6.248,17.09-11.779
					c46.42-15.008,55.115-39.861,65.648-29.738C350.187,185.544,362.388,208.75,335.62,225.412z"/>
				<path d="M279.07,239.914c9.142,1.565,19.17,1.59,29.827,0.073c11.967-1.705,22.111-5.01,27.788-7.134
					c3.063-1.146,4.716-2.316,4.716-2.316c-0.141,0.064-14.199,6.46-32.565,9.07c-16.938,2.411-41.111,2.008-60.095-13.596
					c-0.753-0.506-1.086-0.997-1.01-1.476c0.373-2.309,9.528-4.82,19.221-7.479c4.807-1.319,9.781-2.681,14.475-4.199
					c20.313-6.566,34.58-15.877,44.997-22.677c13.492-8.809,20.922-13.661,27.709-4.014c0,0-1.183-2.36-3.718-4.318
					c-6.013-3.863-13.076,0.751-24.201,8.012c-10.4,6.787-24.64,16.083-44.904,22.635c-4.687,1.514-9.654,2.876-14.461,4.194
					c-10.662,2.923-19.082,5.235-19.494,7.788c-0.103,0.638,0.288,1.259,1.162,1.838c8.416,6.921,18.56,11.476,30.13,13.525
					C278.788,239.865,278.931,239.891,279.07,239.914z"/>
			</g>
			<g>
				<path fill="#FA5013" d="M409.299,158.489c0,0,7.61,11.363,22.38,7.959c14.773-3.405,14.606-3.948,22.492-0.274
					c0.746-7.358,0.169-19.062-16.791-20.935C419.751,145.731,418.59,158.532,409.299,158.489z"/>
				<path fill="#F28411" d="M431.455,163.186c14.774-3.404,16.562-2.485,22.716,2.989c0.746-7.358,0.169-19.062-16.791-20.935
					c-14.1,0.394-17.667,8.66-23.282,11.932C412.693,157.989,416.686,166.59,431.455,163.186z"/>
				<path fill="#F29C11" d="M431.831,160.992c14.774-3.403,16.897-1.104,20.508,1.901c0.742-7.354-2.261-14.773-14.51-16.289
					c-14.097,0.395-18.116,7.295-23.731,10.568C412.693,157.989,417.063,164.396,431.831,160.992z"/>
				<path fill="#C24D11" d="M409.138,158.594l-0.198-0.299h0.359c3.873,0.018,6.345-2.27,9.199-4.92
					c3.861-3.583,8.664-8.043,18.896-8.329c0.706,0.082,1.401,0.176,2.065,0.292c11.248,1.925,16.125,8.747,14.9,20.854
					l-0.032,0.267l-0.237-0.114c-2.621-1.222-4.475-2.044-6.297-2.358c-2.76-0.47-5.528,0.179-12.228,1.75
					c-1.158,0.271-2.43,0.572-3.844,0.898c-3.121,0.717-6.162,0.831-9.046,0.338C413.828,165.455,409.185,158.663,409.138,158.594z
					 M454.004,165.886c1.104-11.701-3.678-18.301-14.608-20.173c-0.654-0.111-1.34-0.205-2.014-0.284
					c-10.063,0.282-14.61,4.501-18.627,8.224c-2.825,2.62-5.272,4.898-9.088,5.018c0.991,1.31,5.434,6.616,13.072,7.923
					c2.836,0.489,5.83,0.376,8.899-0.332c1.409-0.325,2.685-0.623,3.841-0.895c6.749-1.583,9.543-2.239,12.377-1.754
					C449.668,163.923,451.486,164.713,454.004,165.886z"/>
			</g>
			<g>
				<path d="M399.716,143.675c-0.471,2.758,0.644,5.252,2.488,5.569c1.842,0.314,3.725-1.667,4.192-4.426
					c0.478-2.758-0.637-5.252-2.483-5.567C402.069,138.934,400.19,140.917,399.716,143.675z"/>
				<path fill="#FFFFFF" d="M401.794,140.081c-0.172,0.984,0.492,1.921,1.478,2.091c0.987,0.169,1.921-0.493,2.094-1.48
					c0.167-0.985-0.493-1.923-1.479-2.093C402.901,138.433,401.963,139.096,401.794,140.081z"/>
				<path fill="#FFFFFF" d="M399.32,143.449c-0.107,0.654,0.327,1.271,0.98,1.385c0.652,0.11,1.271-0.327,1.384-0.981
					c0.113-0.65-0.323-1.273-0.978-1.385C400.056,142.355,399.435,142.794,399.32,143.449z"/>
			</g>
			<g>
				<path d="M449.197,140.18c-0.084,2.388,1.143,4.367,2.735,4.424c1.603,0.054,2.96-1.836,3.049-4.221
					c0.078-2.388-1.146-4.37-2.741-4.424C450.646,135.901,449.28,137.79,449.197,140.18z"/>
				<path fill="#FFFFFF" d="M450.541,136.901c-0.03,0.855,0.636,1.57,1.492,1.602c0.853,0.027,1.57-0.642,1.599-1.492
					c0.028-0.854-0.638-1.569-1.492-1.6C451.287,135.382,450.567,136.05,450.541,136.901z"/>
				<path fill="#FFFFFF" d="M448.838,140.033c-0.019,0.566,0.424,1.039,0.987,1.059c0.566,0.02,1.037-0.422,1.058-0.988
					c0.021-0.563-0.425-1.037-0.985-1.056C449.33,139.027,448.857,139.468,448.838,140.033z"/>
			</g>
			<path fill="#383838" d="M457.497,108.699c0,0-20.718-16.444-23.96,29.613c-1.486-14.789,6.318-43.981-43.213-51.949
				C398.903,84.477,442.104,76.915,457.497,108.699z"/>
		</g>
	</g>
</g>
</svg>
