<svg version="1.1" id="Layer_1" xmlns="http://www.w3.org/2000/svg" xmlns:xlink="http://www.w3.org/1999/xlink" viewBox="0 0 768 430" enable-background="new 0 0 768 430" xml:space="preserve">
<g id="wolk">
	<g>
		<path fill="#FFFFFF" d="M428.356,90.464c16.127-12.442,33.618-14.946,51.894-6.056c24.033,11.69,33.139,40.948,20.684,64.346
			c-1.943,3.652-1.943,3.652,1.955,4.782c30.23,8.765,50.937,36.418,50.956,68.046c0.014,31.783-20.733,59.729-50.889,68.538
			c-6.36,1.854-12.856,2.72-19.482,2.717c-67.891-0.008-135.778,0.122-203.667-0.05c-40.298-0.104-75.004-30.412-80.978-70.181
			c-5.34-35.569,12.382-70.089,44.477-86.547c1.547-0.794,2.56-1.386,2.447-3.572c-1.938-37.115,13.333-65.882,43.966-85.981
			c44.152-28.966,110.264-15.398,136.9,40.68C427.157,88.329,427.396,89.645,428.356,90.464z"/>
	</g>
</g>
<path fill="#FFFFFF" d="M287.002,282.075c1.488,2.129,1.285,1.978,1.647,4.66c0.169,1.289,0.584,6.139,0.481,7.268
	c-0.12,1.319-2.259,9.042-2.883,10.177l-1.053,1.377l-1-1.496c-0.519-1.262-1.063-9.184-0.91-10.633
	c0.109-1.041,1.358-5.688,1.707-6.938C285.708,283.919,285.415,284.154,287.002,282.075z"/>
<path fill="#FFFFFF" d="M287.002,282.075c0,6.956-1.986,21.009-1.807,23.479"/>
<path fill="#FFFFFF" d="M324.931,287.492c1.282,3.029,0.857,2.498,0.921,5.602c0.069,3.414,0.176,2.312-0.539,5.696
	c-0.584,2.79-0.354,2.739-2.188,4.958c-1.408-1.646-1.144-1-1.744-2.75c-1.282-3.729-1.748-5.314-0.123-8.958
	C322.397,289.479,322.686,289.061,324.931,287.492z"/>
<path fill="#FFFFFF" d="M324.931,287.492c-2.594,8.854-1.807,7.721-1.807,16.256"/>
<path fill="#FFFFFF" d="M310.483,347.096c1.079,2.892,1.222,2.746,1.106,5.533c-0.02,0.491-1,2.979-1.133,3.206l-1.777,2.097h-0.006
	l-1.813-2.032c-0.754-1.215-1.282-3.423-0.681-4.783C307.122,348.979,308.537,348.301,310.483,347.096z"/>
<path fill="#FFFFFF" d="M310.483,347.096c-2.339,7.01-1.807,4.267-1.807,10.837"/>
<path fill="#FFFFFF" d="M258.104,314.584c1.086,3.053,1.093,2.057,0.92,4.963c-0.216,3.613-0.575,3.461-2.212,6.399
	c-1.186,2.13-0.369,0.979-2.318,3.086c-1.452-2.082-1.465-1.497-1.644-3.862c-0.143-1.9-0.034-3.674,0.833-5.395
	C255.028,317.118,255.812,316.451,258.104,314.584z"/>
<path fill="#FFFFFF" d="M258.104,314.584c-1.601,6.403-3.61,9.428-3.61,14.448"/>
<path fill="#FFFFFF" d="M364.665,303.748c0.793,3.152,0.538,2.688,0.548,5.812c0.006,3.148,0.501,7.312,0.206,10.16
	c-0.232,2.213-0.871,9.258-1.484,10.938l-1.076,1.984l-1.101-1.959c-0.677-1.719-1.696-8.84-1.903-10.961
	c-0.342-3.469,0.618-7.482,1.729-10.774C362.608,305.908,362.489,306.008,364.665,303.748z"/>
<path fill="#FFFFFF" d="M364.665,303.748c-2.963,10.115-1.807,18.221-1.807,28.898"/>
<path fill="#FFFFFF" d="M341.184,323.614c1.402,4.429,0.84,1.989,0.998,6c0.035,0.916-0.695,3.514-1.037,4.212l-1.765,2.432h-0.003
	l-1.82-2.346c-0.834-1.516-1.418-3.873-0.761-5.518C337.856,325.754,338.862,325.282,341.184,323.614z"/>
<path fill="#FFFFFF" d="M341.184,323.614c-2.558,7.674-1.807,5.119-1.807,12.644"/>
<path fill="#FFFFFF" d="M371.888,359.737c1.206,3.104,0.724,2.388,0.765,5.464c0.029,2.325,0.377,1.65-0.073,3.906
	c-0.226,1.123-0.722,4.359-1.222,5.298l-1.275,1.588c-1.75-2.093-1.398-1.508-2.156-4.02c-1.093-3.636-1.428-4.343,0.217-7.894
	C369.285,361.61,369.673,361.162,371.888,359.737z"/>
<path fill="#FFFFFF" d="M371.888,359.737c-2.866,8.6-1.807,7.271-1.807,16.256"/>
<path fill="#FFFFFF" d="M379.114,292.91c1.271,2.324,1.205,3.043,1.598,5.623c0.693,4.594,1.83,12.059,1.727,16.398
	c-0.07,2.971-0.205,14.029-0.836,16.194l-0.682,1.521l-0.914-1.396c-1.082-2.298-2.701-12.957-3.111-16.01
	c-0.642-4.77,0.035-11.748,0.674-16.678C377.905,295.979,377.854,295.229,379.114,292.91z"/>
<path fill="#FFFFFF" d="M379.114,292.91c0,15.943,0.561,23.973,1.807,39.736"/>
<path fill="#FFFFFF" d="M400.787,274.85c1.512,3.18,1.291,2.982,1.693,6.494c0.465,4.053,1.061,8.875,0.797,12.9
	c-0.236,3.59-0.279,6.896-0.242,10.484c0.025,2.895,0.152,1.447-0.441,4.436l-1.562-1.822c-1.648-2.656-2.879-9.724-3.262-12.939
	c-0.504-4.27,0.387-8.926,1.105-13.157C399.447,277.857,399.248,277.946,400.787,274.85z"/>
<path fill="#FFFFFF" d="M400.787,274.85c0,11.359-1.406,23.352,1.807,34.314"/>
<path fill="#FFFFFF" d="M462.193,289.299c2.184,3.342,1.793,2.795,2.553,6.773c0.615,3.209,0.303,3.555-0.467,6.771
	c-0.689,2.885-0.363,1.881-2.086,4.516c-1.727-2.635-1.398-1.631-2.088-4.516c-0.771-3.219-1.084-3.562-0.469-6.771
	C460.398,292.094,460.008,292.641,462.193,289.299z"/>
<path fill="#FFFFFF" d="M462.193,289.299v18.062"/>
<path fill="#FFFFFF" d="M447.744,312.777c1.545,2.511,1.275,2.148,1.807,5.081c0.582,3.223,1.332,6.913,0.953,10.157
	c-0.232,2-1.057,8.604-1.717,10.16l-1.043,1.693l-1.043-1.693c-0.662-1.559-1.484-8.16-1.717-10.16
	c-0.381-3.244,0.369-6.937,0.951-10.157C446.465,314.926,446.199,315.288,447.744,312.777z"/>
<path fill="#FFFFFF" d="M447.744,312.777v27.094"/>
<path fill="#FFFFFF" d="M424.264,316.391c1.625,1.934,1.562,2.475,2.09,4.965c0.152,0.729,0.863,4.419,0.863,4.97
	c0,1.093-1.393,7.778-1.906,8.688l-1.047,1.244l-1.043-1.244c-0.516-0.91-1.906-7.598-1.906-8.688c0-0.551,0.713-4.241,0.863-4.97
	C422.705,318.865,422.643,318.324,424.264,316.391z"/>
<path fill="#FFFFFF" d="M424.264,316.391v19.867"/>
<path fill="#FFFFFF" d="M402.594,323.614l2.949,6.321l-2.949,6.322l-2.953-6.322L402.594,323.614z"/>
<path fill="#FFFFFF" d="M402.594,323.614v12.644"/>
<path fill="#FFFFFF" d="M406.203,359.737c1.615,3.292,1.361,2.866,1.842,6.474c0.408,3.104,1.049,7.393,0.883,10.443
	c-0.17,3.103-0.162,5.992-0.207,9.085c-0.043,2.936,0.094,1.627-0.711,4.699l-1.6-2.069c-1.312-2.295-2.672-8.669-3.061-11.463
	c-0.473-3.385,0.312-7.39,0.881-10.762C404.822,362.621,404.576,362.973,406.203,359.737z"/>
<path fill="#FFFFFF" d="M406.203,359.737c0,12.636-0.93,18.053,1.807,30.701"/>
<path fill="#FFFFFF" d="M456.773,354.319c1.545,2.833,1.303,2.558,1.811,5.756c0.578,3.642,1.328,7.863,0.953,11.514
	c-0.24,2.304-1.029,9.688-1.717,11.518l-1.047,1.917l-1.041-1.917c-0.688-1.83-1.48-9.214-1.719-11.518
	c-0.375-3.648,0.373-7.872,0.955-11.514C455.477,356.877,455.232,357.152,456.773,354.319z"/>
<path fill="#FFFFFF" d="M456.773,354.319v30.702"/>
<path fill="#FFFFFF" d="M474.834,314.584c1.549,2.508,1.279,2.149,1.807,5.082c0.582,3.223,1.332,6.909,0.955,10.157
	c-0.23,1.999-1.057,8.603-1.717,10.16l-1.045,1.69l-1.043-1.69c-0.66-1.558-1.48-8.161-1.717-10.16
	c-0.379-3.248,0.373-6.937,0.953-10.157C473.557,316.733,473.289,317.092,474.834,314.584z"/>
<path fill="#FFFFFF" d="M474.834,314.584v27.092"/>
<path fill="#FFFFFF" d="M487.48,300.135c2.125,2.604,1.768,2.125,2.557,5.422c0.617,2.576,0.299,2.838-0.469,5.416
	c-0.701,2.348-0.402,1.549-2.088,3.611c-1.688-2.062-1.389-1.266-2.09-3.611c-0.768-2.578-1.086-2.84-0.469-5.416
	C485.709,302.26,485.352,302.738,487.48,300.135z"/>
<path fill="#FFFFFF" d="M487.48,300.135v14.449"/>
<path fill="#FFFFFF" d="M292.42,352.514c2.029,2.37,1.75,2.031,2.677,5.053c0.896,2.938,1.804,6.095,1.73,9.181
	c-0.04,1.733,0.03,7.985-0.176,9.147l-0.618,1.901l-1.478-1.396c-1.246-1.657-2.667-6.934-3.163-9.1
	c-0.687-3.006-0.272-6.225-0.083-9.281C291.503,354.904,291.24,355.456,292.42,352.514z"/>
<path fill="#FFFFFF" d="M292.42,352.514c1.78,10.002,1.139,16.327,3.614,25.282"/>
<path fill="#FFFFFF" d="M274.36,343.48c1.634,2.971,1.262,2.449,2.01,5.645c0.688,2.942,1.813,6.179,1.847,9.178
	c0.03,2.436-0.08,8.188-0.897,10.287l-1.156,1.982l-1.097-1.982c-0.527-1.323-1.856-7.64-2.338-9.583
	c-0.748-3.017-0.521-6.577-0.196-9.659C272.885,346.039,272.733,346.342,274.36,343.48z"/>
<path fill="#FFFFFF" d="M274.36,343.48c-0.272,11.291,2.119,16.146,1.804,27.092"/>
</svg>
