<svg version="1.1" id="Layer_1" xmlns="http://www.w3.org/2000/svg" xmlns:xlink="http://www.w3.org/1999/xlink" viewBox="0 0 768 430" enable-background="new 0 0 768 430" xml:space="preserve">
<path fill="#FFFFFF" d="M298.207,226.124c1.488,2.129,1.285,1.978,1.647,4.66c0.169,1.289,0.584,6.139,0.481,7.268
	c-0.12,1.319-2.259,9.042-2.883,10.177l-1.053,1.377l-1-1.496c-0.519-1.262-1.063-9.184-0.91-10.633
	c0.109-1.041,1.358-5.688,1.707-6.938C296.912,227.968,296.619,228.203,298.207,226.124z"/>
<path fill="#FFFFFF" d="M298.207,226.124c0,6.956-1.986,21.009-1.807,23.479"/>
<path fill="#FFFFFF" d="M336.136,231.541c1.282,3.029,0.857,2.498,0.92,5.602c0.07,3.414,0.176,2.312-0.538,5.696
	c-0.584,2.79-0.355,2.739-2.189,4.958c-1.408-1.646-1.143-1-1.744-2.75c-1.282-3.729-1.748-5.314-0.123-8.958
	C333.602,233.527,333.891,233.109,336.136,231.541z"/>
<path fill="#FFFFFF" d="M336.136,231.541c-2.594,8.854-1.807,7.721-1.807,16.256"/>
<path fill="#FFFFFF" d="M321.688,291.145c1.079,2.891,1.222,2.746,1.106,5.533c-0.02,0.491-1,2.978-1.133,3.206l-1.777,2.097h-0.006
	l-1.813-2.033c-0.754-1.215-1.282-3.422-0.681-4.783C318.326,293.027,319.741,292.35,321.688,291.145z"/>
<path fill="#FFFFFF" d="M321.688,291.145c-2.339,7.009-1.807,4.266-1.807,10.836"/>
<path fill="#FFFFFF" d="M269.309,258.633c1.086,3.053,1.093,2.057,0.92,4.963c-0.216,3.613-0.575,3.461-2.212,6.399
	c-1.186,2.13-0.369,0.979-2.318,3.086c-1.452-2.082-1.465-1.497-1.644-3.862c-0.143-1.9-0.034-3.674,0.833-5.395
	C266.233,261.167,267.017,260.5,269.309,258.633z"/>
<path fill="#FFFFFF" d="M269.309,258.633c-1.601,6.403-3.61,9.428-3.61,14.448"/>
<path fill="#FFFFFF" d="M274.727,208.062c2.186,3.345,1.794,2.796,2.558,6.772c0.611,3.209,0.299,3.555-0.472,6.773
	c-0.688,2.887-0.362,1.879-2.086,4.518c-1.721-2.639-1.395-1.631-2.086-4.518c-0.771-3.219-1.083-3.563-0.468-6.773
	C272.933,210.858,272.544,211.406,274.727,208.062z"/>
<path fill="#FFFFFF" d="M274.727,208.062v18.062"/>
<path fill="#FFFFFF" d="M356.002,208.062c1.544,2.674,1.289,2.355,1.807,5.42c0.584,3.456,1.332,7.358,0.953,10.834
	c-0.235,2.146-1.046,9.147-1.717,10.838l-1.043,1.805l-1.043-1.805c-0.674-1.689-1.484-8.691-1.717-10.838
	c-0.382-3.478,0.368-7.381,0.953-10.834C354.714,210.417,354.458,210.735,356.002,208.062z"/>
<path fill="#FFFFFF" d="M356.002,208.062v28.897"/>
<path fill="#FFFFFF" d="M321.688,200.837c1.704,2.986,1.342,2.464,2.095,5.729c0.695,2.99,1.728,6.175,1.714,9.245
	c-0.013,2.309-0.179,8.168-0.904,10.127l-1.103,1.994l-1.143-1.947c-0.541-1.278-1.9-7.713-2.329-9.562
	c-0.714-3.092-0.432-6.487-0.099-9.63C320.279,203.411,320.086,203.807,321.688,200.837z"/>
<path fill="#FFFFFF" d="M321.688,200.837c0,11.506,1.803,16.229,1.803,27.095"/>
<path fill="#FFFFFF" d="M375.869,247.797c0.793,3.152,0.538,2.688,0.548,5.812c0.006,3.149,0.501,7.313,0.206,10.16
	c-0.232,2.213-0.871,9.258-1.485,10.938l-1.076,1.985l-1.1-1.959c-0.677-1.719-1.697-8.84-1.903-10.961
	c-0.342-3.469,0.618-7.483,1.728-10.775C373.813,249.957,373.693,250.057,375.869,247.797z"/>
<path fill="#FFFFFF" d="M375.869,247.797c-2.963,10.115-1.807,18.221-1.807,28.898"/>
<path fill="#FFFFFF" d="M352.389,267.663c1.402,4.429,0.84,1.989,0.997,6c0.036,0.916-0.694,3.514-1.037,4.212l-1.764,2.432h-0.003
	l-1.82-2.346c-0.834-1.516-1.418-3.873-0.761-5.518C349.061,269.803,350.067,269.331,352.389,267.663z"/>
<path fill="#FFFFFF" d="M352.389,267.663c-2.558,7.674-1.807,5.119-1.807,12.644"/>
<path fill="#FFFFFF" d="M361.42,309.203c1.183,2.083,1.14,2.841,1.475,5.191c0.532,3.697,1.631,13.477,1.382,16.878
	c-0.239,3.271-1.186,15.797-2.119,18.173l-0.738,1.299l-0.737-1.299c-0.933-2.376-1.88-14.901-2.119-18.173
	c-0.249-3.401,0.85-13.181,1.382-16.878C360.281,312.044,360.237,311.286,361.42,309.203z"/>
<path fill="#FFFFFF" d="M361.42,309.203v41.541"/>
<path fill="#FFFFFF" d="M383.093,303.786c1.206,3.104,0.724,2.388,0.764,5.464c0.03,2.325,0.378,1.65-0.073,3.906
	c-0.226,1.123-0.721,4.36-1.222,5.298l-1.275,1.588c-1.75-2.093-1.398-1.508-2.156-4.02c-1.093-3.635-1.428-4.342,0.216-7.893
	C380.489,305.659,380.878,305.211,383.093,303.786z"/>
<path fill="#FFFFFF" d="M383.093,303.786c-2.866,8.6-1.807,7.272-1.807,16.256"/>
<path fill="#FFFFFF" d="M390.318,236.959c1.271,2.324,1.205,3.043,1.598,5.623c0.693,4.594,1.83,12.059,1.727,16.398
	c-0.07,2.971-0.205,14.03-0.836,16.195l-0.682,1.52l-0.914-1.396c-1.082-2.298-2.701-12.957-3.111-16.01
	c-0.642-4.77,0.035-11.748,0.674-16.678C389.109,240.027,389.059,239.277,390.318,236.959z"/>
<path fill="#FFFFFF" d="M390.318,236.959c0,15.943,0.561,23.973,1.807,39.736"/>
<path fill="#FFFFFF" d="M383.093,206.258c2.083,2.232,1.748,1.787,2.554,4.74c0.619,2.262,0.297,2.498-0.467,4.74
	c-0.708,2.08-0.43,1.388-2.087,3.162c-1.657-1.774-1.378-1.082-2.085-3.162c-0.768-2.242-1.086-2.479-0.469-4.74
	C381.343,208.045,381.008,208.49,383.093,206.258z"/>
<path fill="#FFFFFF" d="M383.093,206.258V218.9"/>
<path fill="#FFFFFF" d="M411.991,218.898c1.512,3.18,1.292,2.983,1.694,6.494c0.465,4.053,1.06,8.875,0.797,12.901
	c-0.236,3.59-0.279,6.896-0.242,10.485c0.025,2.894,0.152,1.447-0.441,4.435l-1.562-1.823c-1.649-2.656-2.879-9.723-3.262-12.939
	c-0.504-4.27,0.387-8.926,1.104-13.157C410.652,221.906,410.453,221.995,411.991,218.898z"/>
<path fill="#FFFFFF" d="M411.991,218.898c0,11.36-1.405,23.352,1.808,34.315"/>
<path fill="#FFFFFF" d="M435.469,213.482c1.624,1.93,1.562,2.471,2.089,4.966c0.152,0.724,0.863,4.417,0.863,4.966
	c0,1.092-1.392,7.781-1.906,8.691l-1.046,1.242l-1.043-1.242c-0.516-0.91-1.907-7.601-1.907-8.691c0-0.549,0.712-4.242,0.863-4.966
	C433.91,215.953,433.848,215.412,435.469,213.482z"/>
<path fill="#FFFFFF" d="M435.469,213.482v19.866"/>
<path fill="#FFFFFF" d="M455.338,190.001c1.365,2.126,1.285,2.621,1.728,5.079c0.608,3.368,1.675,8.789,1.607,12.114
	c-0.05,2.438-0.093,9.008-0.566,10.977l-0.965,2.535l-1.378-2.328c-0.776-1.785-2.137-8.438-2.563-10.723
	c-0.721-3.837-0.104-8.683,0.471-12.532C454.033,192.672,453.999,192.101,455.338,190.001z"/>
<path fill="#FFFFFF" d="M455.338,190.001c0,15.124,0.664,17.034,1.804,30.706"/>
<path fill="#FFFFFF" d="M458.948,166.521c1.382,1.896,1.398,2.604,2.017,4.84c1.017,3.67,3.479,12.625,3.753,16.027
	c0.279,3.404,1.106,14.827,0.264,17.594l-0.614,1.275l-0.831-1.14c-0.856-1.621-3.519-13.04-4.135-15.611
	c-1.22-5.085-1.498-12.502-1.371-17.784C458.082,169.391,457.969,168.644,458.948,166.521z"/>
<path fill="#FFFFFF" d="M458.948,166.521c1.253,13.369,4.317,26.892,5.418,39.736"/>
<path fill="#A9DCF5" d="M478.814,184.584l2.952,4.515l-2.952,4.514l-2.949-4.514L478.814,184.584z"/>
<path fill="none" d="M478.814,184.584v9.029"/>
<path fill="#FFFFFF" d="M473.397,233.348c2.185,3.342,1.794,2.795,2.554,6.773c0.615,3.209,0.303,3.555-0.468,6.771
	c-0.688,2.885-0.362,1.881-2.086,4.516c-1.725-2.635-1.398-1.631-2.087-4.516c-0.771-3.218-1.083-3.562-0.469-6.771
	C471.604,236.143,471.212,236.689,473.397,233.348z"/>
<path fill="#FFFFFF" d="M473.397,233.348v18.062"/>
<path fill="#FFFFFF" d="M458.948,256.826c1.545,2.511,1.277,2.148,1.808,5.081c0.581,3.223,1.332,6.913,0.953,10.157
	c-0.232,2-1.057,8.604-1.717,10.16l-1.044,1.694l-1.042-1.694c-0.662-1.558-1.485-8.16-1.718-10.16
	c-0.38-3.244,0.371-6.936,0.952-10.157C457.67,258.975,457.404,259.337,458.948,256.826z"/>
<path fill="#FFFFFF" d="M458.948,256.826v27.094"/>
<path fill="#FFFFFF" d="M435.469,260.439c1.624,1.934,1.562,2.475,2.089,4.965c0.152,0.729,0.863,4.419,0.863,4.97
	c0,1.093-1.392,7.778-1.906,8.688l-1.046,1.244l-1.043-1.244c-0.516-0.91-1.907-7.597-1.907-8.688c0-0.551,0.712-4.241,0.863-4.97
	C433.91,262.914,433.848,262.373,435.469,260.439z"/>
<path fill="#FFFFFF" d="M435.469,260.439v19.867"/>
<path fill="#FFFFFF" d="M413.799,267.663l2.949,6.321l-2.949,6.322l-2.953-6.322L413.799,267.663z"/>
<path fill="#FFFFFF" d="M413.799,267.663v12.644"/>
<path fill="#FFFFFF" d="M417.408,303.786c1.615,3.292,1.361,2.866,1.841,6.474c0.409,3.104,1.05,7.392,0.884,10.443
	c-0.17,3.103-0.162,5.992-0.207,9.085c-0.043,2.936,0.094,1.627-0.711,4.699l-1.6-2.069c-1.312-2.295-2.672-8.669-3.061-11.463
	c-0.472-3.385,0.312-7.39,0.881-10.762C416.027,306.67,415.781,307.021,417.408,303.786z"/>
<path fill="#FFFFFF" d="M417.408,303.786c0,12.636-0.93,18.053,1.807,30.701"/>
<path fill="#FFFFFF" d="M440.889,303.786c1.242,2.009,1.187,2.62,1.599,4.926c0.764,4.258,2.075,10.936,2.004,15.106
	c-0.047,2.721-0.246,12.579-1.07,14.788l-0.727,1.302l-0.835-1.232c-0.87-1.815-2.504-12.021-2.894-14.469
	c-0.714-4.523-0.155-10.852,0.433-15.429C439.696,306.47,439.677,305.779,440.889,303.786z"/>
<path fill="#FFFFFF" d="M440.889,303.786c0,13.813,1.249,22.477,1.806,36.122"/>
<path fill="#FFFFFF" d="M467.979,298.368c1.543,2.833,1.301,2.558,1.809,5.756c0.578,3.642,1.328,7.863,0.953,11.514
	c-0.239,2.303-1.029,9.687-1.717,11.517l-1.045,1.917l-1.041-1.917c-0.688-1.83-1.482-9.214-1.719-11.517
	c-0.375-3.649,0.372-7.872,0.954-11.514C466.682,300.926,466.438,301.201,467.979,298.368z"/>
<path fill="#FFFFFF" d="M467.979,298.368v30.702"/>
<path fill="#FFFFFF" d="M486.039,258.633c1.548,2.508,1.279,2.149,1.807,5.082c0.582,3.223,1.332,6.909,0.954,10.157
	c-0.231,1.999-1.057,8.603-1.717,10.16l-1.044,1.69l-1.043-1.69c-0.66-1.558-1.48-8.161-1.717-10.16
	c-0.379-3.248,0.372-6.937,0.953-10.157C484.761,260.782,484.494,261.141,486.039,258.633z"/>
<path fill="#FFFFFF" d="M486.039,258.633v27.092"/>
<path fill="#FFFFFF" d="M498.685,244.184c2.126,2.604,1.768,2.125,2.556,5.422c0.617,2.576,0.299,2.838-0.468,5.416
	c-0.701,2.347-0.402,1.549-2.088,3.611c-1.687-2.062-1.388-1.266-2.089-3.611c-0.768-2.578-1.086-2.84-0.469-5.416
	C496.914,246.309,496.556,246.787,498.685,244.184z"/>
<path fill="#FFFFFF" d="M498.685,244.184v14.449"/>
<path fill="#FFFFFF" d="M330.715,316.428c1.169,2.43,1.252,4.501,1.644,7.165c0.777,5.306,1.551,10.601,2.358,15.9
	c0.621,4.082,1.172,22.4,0.223,26.005l-0.611,1.501l-0.797-1.405c-1.093-2.634-3.342-16.93-3.92-20.569
	c-0.99-6.216-0.883-16.487-0.275-22.84C329.576,319.684,329.559,318.666,330.715,316.428z"/>
<path fill="#FFFFFF" d="M330.715,316.428c-0.332,14.536,2.687,35.242,3.614,50.571"/>
<path fill="#FFFFFF" d="M303.625,296.562c2.029,2.371,1.75,2.032,2.677,5.053c0.896,2.938,1.804,6.095,1.73,9.181
	c-0.04,1.733,0.03,7.985-0.176,9.147l-0.618,1.902l-1.478-1.396c-1.246-1.657-2.667-6.933-3.163-9.099
	c-0.687-3.006-0.272-6.225-0.083-9.282C302.708,298.953,302.445,299.505,303.625,296.562z"/>
<path fill="#FFFFFF" d="M303.625,296.562c1.78,10.002,1.139,16.328,3.614,25.283"/>
<path fill="#FFFFFF" d="M285.565,287.529c1.634,2.971,1.262,2.449,2.01,5.645c0.688,2.942,1.813,6.179,1.847,9.178
	c0.03,2.435-0.08,8.188-0.897,10.287l-1.156,1.982l-1.097-1.982c-0.527-1.324-1.856-7.64-2.338-9.583
	c-0.748-3.017-0.521-6.577-0.196-9.659C284.09,290.088,283.938,290.391,285.565,287.529z"/>
<path fill="#FFFFFF" d="M285.565,287.529c-0.272,11.291,2.119,16.146,1.804,27.092"/>
<path fill="#FFFFFF" d="M290.982,325.459c1.372,2.993,1.309,3.578,1.907,6.554c0.73,3.621,1.484,7.212,2.322,10.81
	c0.688,2.953,1.106,10.229,1.381,13.629c0.259,3.151,0.465,3.597-0.192,6.936l-1.465-1.856c-1.458-2.433-3.873-10.984-4.65-14.033
	c-1.196-4.717-1.166-10.387-0.867-15.25C289.621,328.987,289.534,328.572,290.982,325.459z"/>
<path fill="#FFFFFF" d="M290.982,325.459c-0.266,11.031,2.744,27.121,5.417,37.927"/>
<path fill="#FFFFFF" d="M314.463,345.326c1.538,2.833,1.295,2.558,1.807,5.756c0.578,3.641,1.329,7.862,0.953,11.516
	c-0.239,2.3-1.03,9.684-1.717,11.514l-1.043,1.921l-1.043-1.921c-0.691-1.83-1.481-9.214-1.718-11.514
	c-0.378-3.652,0.373-7.875,0.954-11.516C313.164,347.884,312.921,348.159,314.463,345.326z"/>
<path fill="#FFFFFF" d="M314.463,345.326v30.705"/>
<g id="wolk">
	<g>
		<path fill="#FFFFFF" d="M405.876,98.461c10.779-8.317,22.472-9.991,34.687-4.048c16.063,7.814,22.149,27.37,13.824,43.01
			c-1.3,2.441-1.3,2.441,1.308,3.196c20.206,5.858,34.047,24.342,34.059,45.483c0.009,21.243-13.858,39.923-34.014,45.812
			c-4.251,1.24-8.593,1.818-13.022,1.816c-45.379-0.006-90.756,0.08-136.135-0.034c-26.936-0.068-50.134-20.328-54.127-46.909
			c-3.57-23.775,8.276-46.849,29.729-57.85c1.034-0.531,1.71-0.926,1.635-2.387c-1.295-24.809,8.913-44.037,29.388-57.472
			c29.513-19.361,73.702-10.292,91.506,27.191C405.074,97.034,405.233,97.913,405.876,98.461z"/>
	</g>
</g>
</svg>
