<svg version="1.1" id="Layer_1" xmlns="http://www.w3.org/2000/svg" xmlns:xlink="http://www.w3.org/1999/xlink" viewBox="0 0 768 430" enable-background="new 0 0 768 430" xml:space="preserve">
<g>
	<path fill="#FFF8E9" d="M217.258,198.753c0,0-9.706-10.947,2.327-20.149c0,0-2.831-21.944,20.528-19.822
		c0,0-5.661-22.654,18.408-27.61c0,0,17.698-36.102,48.847-18.403c0,0,0-19.823,21.949-18.408c0,0,19.113-20.529,36.808-2.125
		c0,0,28.317-13.452,38.935,11.331c0,0,28.32-10.621,38.938,19.11c0,0,25.488-10.617,34.69,15.576c0,0,19.822,2.125,16.281,25.484
		c0,0,9.202,7.081,3.541,16.993c0,0,9.666,8.827-2.955,16.802C495.555,197.531,392.625,222.447,217.258,198.753z"/>
	<path fill="#F4E7D0" d="M498.51,180.729c5.661-9.912-3.541-16.993-3.541-16.993c3.541-23.359-16.281-25.484-16.281-25.484
		c-3.01-8.564-7.759-13.177-12.791-15.528c7.141,11.153,8.592,25.71-5.557,32.787c12.875-3.959,25.754,7.928,19.81,20.803
		c-4.951,8.92-16.842,6.936-25.758,8.92c4.956,1.979,6.937,7.923,3.964,9.903c-9.908,5.943-23.773,5.943-35.661,6.935
		c-26.609,2.089-52.941,4.177-79.143,6.702c97.4,1.967,152.003-11.243,152.003-11.243
		C508.176,189.556,498.51,180.729,498.51,180.729z"/>
	<path fill="#F4E7D0" d="M266.308,168.692c0,0,5.665-14.158,19.113-4.246c0,0,5.666-19.823,21.947-9.912
		c0,0,9.907-14.867,21.234-0.709c0,0-7.076-21.238-24.069-4.956c0,0-18.403-7.077-21.237,9.206
		C283.297,158.075,269.849,150.995,266.308,168.692z"/>
	<path fill="#F4E7D0" d="M332.144,177.894c0,0,13.452-14.157,23.364,2.125c0,0,12.742-10.617,22.654,3.541
		c0,0,8.496-11.327,16.991-6.371c0,0-9.91-7.786-16.991-0.709c0,0-9.912-12.033-21.944-2.121
		C356.217,174.358,341.346,157.365,332.144,177.894z"/>
	<path fill="#F4E7D0" d="M387.362,148.87c0,0,9.912-11.323,21.948,0c0,0,2.83-13.452,16.278-4.952c0,0,2.835-13.452,14.866-7.081
		c0,0-12.741-7.787-16.987,1.415c0,0-9.911-4.955-14.866,2.831C408.602,141.083,394.442,131.881,387.362,148.87z"/>
	<path fill="#FFFDFA" d="M270.554,130.466c0,0,14.161-17.698,24.068-4.956C304.534,138.252,264.188,141.083,270.554,130.466z"/>
	<path fill="#FFFDFA" d="M326.483,116.309c0,0,5.661-24.779,20.528-9.206C361.878,122.676,324.356,128.341,326.483,116.309z"/>
	<path fill="#FFFDFA" d="M342.055,134.006c0,0,5.666-7.791,13.453,0C363.293,141.793,337.81,142.498,342.055,134.006z"/>
	<path fill="#FFFDFA" d="M247.194,154.535c0,0,3.537-15.573,14.863-8.496C273.388,153.119,240.824,164.446,247.194,154.535z"/>
	<g>
		<path fill="#C6874E" d="M555.805,125.167c0,0,9.758,4.444,7.198,13.178c0,0-204.527,101.53-211.891,102.744
			C336.16,243.553,555.805,125.167,555.805,125.167z"/>
		<path fill="#995B23" d="M560.869,129.039c-48.557,24.254-94.211,53.827-141.675,80.078c62-30.162,143.809-70.771,143.809-70.771
			C564.18,134.329,562.752,131.224,560.869,129.039z"/>
		<path fill="#77120B" d="M563.003,138.345c2.56-8.734-7.198-13.178-7.198-13.178s-19.068,10.275-45.577,24.707
			c2.116,3.875,4.186,7.661,6.273,11.48C543.582,147.982,563.003,138.345,563.003,138.345z"/>
		<path fill="#4C0505" d="M563.003,138.345c1.229-4.193-0.38-7.391-2.388-9.589c1.867,4.165-23.687,14.057-47.182,27.711
			c1.016,1.858,2.052,3.024,3.067,4.887C543.582,147.982,563.003,138.345,563.003,138.345z"/>
	</g>
	<g>
		<path fill="#C6874E" d="M487.151,59.025c0,0,10.685-0.899,12.726,7.968c0,0-128.704,188.616-134.53,193.277
			C353.515,269.734,487.151,59.025,487.151,59.025z"/>
		<path fill="#995B23" d="M493.462,59.924c-30.481,44.908-55.825,93.038-84.381,139.152
			c39.314-56.638,90.796-132.083,90.796-132.083C498.937,62.921,496.176,60.908,493.462,59.924z"/>
		<path fill="#77120B" d="M499.877,66.993c-2.041-8.867-12.726-7.968-12.726-7.968s-11.602,18.29-27.658,43.844
			c3.737,2.342,7.396,4.637,11.084,6.947C487.654,84.9,499.877,66.993,499.877,66.993z"/>
		<path fill="#4C0505" d="M499.877,66.993c-0.984-4.254-3.947-6.258-6.774-7.193c3.67,2.722-13.778,23.847-27.594,47.25
			c1.799,1.129,3.274,1.637,5.068,2.766C487.654,84.9,499.877,66.993,499.877,66.993z"/>
	</g>
	<path fill="#E8E3DA" d="M217.258,198.753c0,0,160.862,18.352,278.296-1.222c0,0,17.129,122.942-81.35,163.31v20.794
		c0,0-42.814,10.396-104.589,0l-0.613-20.186C309.003,361.449,220.315,359.615,217.258,198.753z"/>
	<path fill="#D8D0C3" d="M495.555,197.531c-91.244,15.206-208.706,7.521-256.558,3.339c55.292,16.548,112.482,11.104,170.318,15.621
		c8.916,0,19.798,12.944,21.778,24.831c4.956,33.683-13.734,61.809-31.565,89.546c-12.878,19.814-34.806,22.399-55.613,25.372
		c-6.774,3.375,25.352-0.795,29.315,10.104c3.521,8.448,1.448,12.605-1.703,19.822c26.625-0.637,42.678-4.532,42.678-4.532v-20.794
		C512.684,320.474,495.555,197.531,495.555,197.531z"/>
	<path fill="#F2F1F0" d="M223.126,223.911c0,0,7.081,109.728,87.779,132.385c0,0,14.161,2.125,14.868-2.124
		c0.71-4.247-83.534-25.489-94.86-130.967c0,0,113.268,12.743,115.393,7.787c2.121-4.956-89.909-2.126-123.18-21.242
		C223.126,209.75,222.416,217.54,223.126,223.911z"/>
</g>
</svg>
