<?xml version="1.0" encoding="utf-8"?>
<!-- Generator: Adobe Illustrator 16.0.0, SVG Export Plug-In . SVG Version: 6.00 Build 0)  -->
<!DOCTYPE svg PUBLIC "-//W3C//DTD SVG 1.1//EN" "http://www.w3.org/Graphics/SVG/1.1/DTD/svg11.dtd">
<svg version="1.1" id="Layer_2" xmlns="http://www.w3.org/2000/svg" xmlns:xlink="http://www.w3.org/1999/xlink" x="0px" y="0px"
	 width="768px" height="430px" viewBox="0 0 768 430" enable-background="new 0 0 768 430" xml:space="preserve">
<g>
	<g>
		<g>
			<path fill="#CDEA53" d="M321.961,96.584c0,0-18.052-18.758-36.073-21.404c-14.049-2.062-25.373,1.203-27.776,8.658
				c-2.405,7.456,2.645,12.265,10.1,11.543c7.456-0.721,21.93-3.607,27.318-3.607c5.389,0,13.806-0.48,21.502,6.252
				C318.955,97.787,321.961,96.584,321.961,96.584z"/>
		</g>
		<g>
			<path fill="#A4DB0C" d="M307.022,84.294c-16.162-5.528-35.332-6.178-49.451,2.062c-0.632,5.991,4.064,9.662,10.641,9.026
				c7.456-0.721,21.93-3.607,27.318-3.607c5.389,0,13.806-0.48,21.502,6.252c1.923-0.24,4.93-1.443,4.93-1.443
				S315.769,90.156,307.022,84.294z"/>
		</g>
		<g>
			<path fill="#6E8703" d="M316.858,98.596l-0.184-0.16c-6.152-5.384-12.762-6.127-18.989-6.127l-2.156,0.007
				c-3.077,0-9.279,0.974-15.278,1.915c-4.341,0.68-8.831,1.385-11.989,1.69c-4.256,0.413-7.852-0.94-9.774-3.581
				c-1.649-2.263-1.966-5.342-0.893-8.667c1.947-6.036,9.546-9.64,20.326-9.64c2.566,0,5.273,0.207,8.044,0.613
				c17.996,2.642,36.202,21.375,36.384,21.563l0.558,0.579l-0.746,0.299c-0.125,0.049-3.094,1.23-5.064,1.477L316.858,98.596z
				 M297.686,91.227c6.375,0,13.146,0.76,19.514,6.231c1.23-0.195,2.846-0.74,3.787-1.083c-3.235-3.185-19.339-18.333-35.178-20.657
				c-2.72-0.4-5.373-0.602-7.887-0.602c-10.287,0-17.5,3.324-19.295,8.89c-0.979,3.031-0.724,5.694,0.736,7.699
				c1.718,2.358,4.904,3.514,8.796,3.139c3.126-0.302,7.6-1.004,11.925-1.682c6.04-0.947,12.285-1.927,15.446-1.927L297.686,91.227z
				"/>
		</g>
	</g>
	<g>
		<g>
			<path fill="#96BC0C" d="M391.793,105.761c0,0,13.961-22.171,30.328-27.363c12.759-4.048,23.787-2.121,27.15,5.413
				c3.365,7.533-0.606,13.274-7.652,13.509c-7.045,0.235-20.948-0.873-25.961-0.153c-5.013,0.718-12.917,1.335-19.06,9.457
				C394.772,106.626,391.793,105.761,391.793,105.761z"/>
		</g>
		<g>
			<path fill="#A4DB0C" d="M447.619,91.053c1.011-0.505,2.017-1.371,2.842-2.459c-0.061-1.477-0.428-3.081-1.189-4.783
				c-3.363-7.533-14.392-9.46-27.15-5.413c-16.367,5.192-30.328,27.363-30.328,27.363s2.979,0.865,4.806,0.862
				c1.644-2.172,3.413-3.795,5.219-5.039C412.316,89.249,433.424,98.795,447.619,91.053z"/>
		</g>
		<g>
			<path fill="#CDEA53" d="M449.234,83.741c-3.402-7.473-14.395-9.378-27.113-5.343c-4.018,1.275-7.889,3.575-11.445,6.316
				C423.091,80.188,436.638,79.568,449.234,83.741z"/>
		</g>
		<g>
			<path fill="#6E8703" d="M396.587,107.165c-1.883,0-4.819-0.848-4.943-0.883l-0.69-0.201l0.383-0.607
				c0.574-0.912,14.254-22.398,30.622-27.59c4.383-1.392,8.563-2.097,12.42-2.097c7.675,0,13.141,2.773,15.389,7.805
				c1.691,3.787,1.686,7.373-0.02,10.097c-1.583,2.532-4.538,4.054-8.109,4.172c-2.986,0.098-7.269-0.043-11.415-0.18
				c-3.23-0.109-6.571-0.22-9.338-0.22c-2.336,0-4.02,0.079-5.148,0.241l-0.947,0.132c-5.115,0.704-12.124,1.667-17.758,9.116
				l-0.163,0.215L396.587,107.165z M392.655,105.433c0.905,0.23,2.496,0.596,3.68,0.643c5.882-7.607,13.349-8.634,18.307-9.315
				l0.938-0.13c1.183-0.17,2.917-0.253,5.305-0.253c2.784,0,6.134,0.112,9.371,0.22c4.131,0.138,8.385,0.28,11.346,0.181
				c3.252-0.108,5.817-1.411,7.229-3.665c1.505-2.41,1.487-5.635-0.053-9.083c-2.064-4.619-7.177-7.163-14.4-7.163
				c-3.746,0-7.815,0.688-12.093,2.045C407.812,83.505,395.056,101.825,392.655,105.433z"/>
		</g>
	</g>
	<g>
		<g>
			<path fill="#EBD12E" d="M341.875,344.347c0,0,3.08,8.452-4.684,9.925c-9.916,1.88-9.938,9.018-14.774,8.304
				c-3.894-1.22-6.934-10.463-0.233-17.95C328.884,337.135,339.466,338.503,341.875,344.347z"/>
		</g>
		<g>
			<path fill="#EDE36B" d="M341.875,344.347c0,0,0.778,5.112-6.987,6.584c-9.916,1.881-9.853,10.652-14.689,9.939
				c-1.183-2.151-4.716-8.758,1.985-16.245C328.884,337.135,339.466,338.503,341.875,344.347z"/>
		</g>
		<g>
			<path fill="#D9A624" d="M323.072,363.167c-0.234,0-0.479-0.018-0.735-0.056c-1.88-0.583-3.455-2.595-4.192-5.271
				c-1.255-4.557,0.104-9.632,3.634-13.576c3.029-3.386,7.184-5.326,11.396-5.326c4.286,0,7.897,2.041,9.2,5.204
				c0.072,0.196,1.56,4.371-0.24,7.537c-0.932,1.639-2.562,2.69-4.844,3.123c-5.268,0.999-7.627,3.505-9.523,5.52
				C326.33,361.849,325.089,363.167,323.072,363.167z M333.175,340.019c-3.905,0-7.764,1.811-10.589,4.966
				c-3.283,3.67-4.553,8.367-3.397,12.567c0.631,2.292,1.961,4.059,3.389,4.508c0.119,0.01,0.311,0.024,0.495,0.024
				c1.549,0,2.539-1.052,3.908-2.506c1.897-2.015,4.496-4.774,10.109-5.838c1.955-0.371,3.336-1.244,4.105-2.597
				c1.555-2.734,0.185-6.572,0.171-6.611C340.238,341.799,337.02,340.019,333.175,340.019z"/>
		</g>
	</g>
	<g>
		<g>
			<path fill="#EBD12E" d="M299.372,283.661c0,0,2.705,8.092-4.749,9.173c-9.519,1.381-11.681,8.287-14.656,7.51
				c-3.698-1.146-5.644-10.709,1.324-17.805C288.257,275.445,297.601,277.752,299.372,283.661z"/>
		</g>
		<g>
			<path fill="#EDE36B" d="M299.372,283.661c0,0,0.582,5.328-6.872,6.409c-9.52,1.38-10.764,9.53-13.741,8.754
				c-2.679-1.33-4.436-9.189,2.531-16.285C288.257,275.445,297.601,277.752,299.372,283.661z"/>
		</g>
		<g>
			<path fill="#F4EEA6" d="M281.29,282.539c-6.343,6.459-5.451,13.535-3.219,15.758c-0.806-6.353,8.154-16.22,15.843-19.716
				C290.208,277.479,285.35,278.404,281.29,282.539z"/>
		</g>
		<g>
			<path fill="#D9A624" d="M280.434,300.945c-0.202,0-0.405-0.026-0.604-0.077c-1.543-0.478-2.8-2.146-3.385-4.469
				c-0.941-3.729-0.264-9.428,4.459-14.239c2.888-2.941,6.45-4.561,10.028-4.561c4.3,0,7.9,2.374,8.959,5.907
				c0.052,0.151,1.356,4.153-0.449,7.082c-0.94,1.525-2.537,2.461-4.743,2.781c-5.457,0.791-8.408,3.438-10.563,5.372
				C282.765,299.972,281.679,300.945,280.434,300.945z M290.932,278.682c-3.285,0-6.573,1.505-9.255,4.238
				c-4.414,4.493-5.012,9.928-4.183,13.216c0.493,1.954,1.478,3.333,2.633,3.69c0.087,0.022,0.197,0.037,0.308,0.037
				c0.832,0,1.78-0.851,2.981-1.928c2.257-2.024,5.35-4.798,11.13-5.638c1.873-0.271,3.211-1.037,3.976-2.277
				c1.542-2.503,0.351-6.15,0.339-6.188C297.934,280.745,294.75,278.682,290.932,278.682z"/>
		</g>
	</g>
	<g>
		<g>
			<path fill="#EBD12E" d="M297.913,231.184c0,0-5.069,8.437-17.677-1.606c-15.962-12.717-23.356-5.231-25.46-8.808
				c-2.168-3.646,1.833-18.249,24.662-14.63C295.143,208.628,304.059,223.628,297.913,231.184z"/>
		</g>
		<g>
			<path fill="#EDE36B" d="M297.913,231.184c0,0-4.348,3.937-16.955-6.107c-15.963-12.715-24.079-0.73-26.183-4.307
				c-2.168-3.646,1.833-18.249,24.662-14.63C295.143,208.628,304.059,223.628,297.913,231.184z"/>
		</g>
		<g>
			<path fill="#F4EEA6" d="M297.308,217.44c-3.319-5.283-9.665-10.001-17.871-11.301c-18.869-2.991-24.87,6.462-25.161,11.893
				C264.725,205.567,283.771,210.265,297.308,217.44z"/>
		</g>
		<g>
			<path fill="#D9A624" d="M291.33,235.04c-3.386,0-7.232-1.695-11.43-5.041c-8.701-6.931-14.78-7.733-18.595-7.733
				c-0.869,0-1.647,0.044-2.343,0.082c-0.577,0.03-1.099,0.059-1.566,0.059c-1.187,0-2.382-0.165-3.086-1.363
				c-0.906-1.523-0.878-4.729,0.929-7.908c1.722-3.029,6.272-8.108,17.404-8.108c2.145,0,4.46,0.194,6.881,0.578
				c10.464,1.659,17.54,8.649,19.908,14.842c1.61,4.206,1.209,8.243-1.098,11.078C298.289,231.607,296.172,235.04,291.33,235.04z
				 M261.305,221.185c3.978,0,10.303,0.826,19.27,7.97c4.001,3.187,7.62,4.803,10.755,4.803c4.237,0,6.102-3.021,6.12-3.053
				c2.13-2.627,2.459-6.181,0.972-10.07c-2.259-5.904-9.029-12.57-19.067-14.16c-2.365-0.375-4.623-0.565-6.712-0.565
				c-10.584,0-14.857,4.737-16.462,7.56c-1.586,2.79-1.667,5.599-0.938,6.824c0.361,0.614,0.925,0.831,2.155,0.831
				c0.45,0,0.952-0.027,1.507-0.058C259.616,221.227,260.415,221.185,261.305,221.185z"/>
		</g>
	</g>
	<g>
		<g>
			<g>
				<path fill="#8FC24D" d="M559.205,324.33c0,10.491-7.645,18.998-17.074,18.998c-15.633,0-17.074-8.507-17.074-18.998
					c0-10.493,7.644-18.999,17.074-18.999C551.561,305.331,559.205,313.837,559.205,324.33z"/>
			</g>
		</g>
		<g>
			<path fill="#BDD961" d="M553.133,326.4c7.096-5.919-1.653-17.207-9.768-21.001c-0.409-0.032-0.817-0.068-1.234-0.068
				c-2.076,0-4.056,0.433-5.896,1.188C547.121,315.438,539.245,333.047,553.133,326.4z"/>
		</g>
		<g>
			<path fill="#6B923A" d="M542.131,343.869c-16.269,0-17.616-9.243-17.616-19.539c0-10.774,7.903-19.54,17.616-19.54
				c9.712,0,17.615,8.766,17.615,19.54S551.843,343.869,542.131,343.869z M542.131,305.871c-9.117,0-16.533,8.28-16.533,18.459
				c0,10.097,1.244,18.457,16.533,18.457c9.116,0,16.533-8.28,16.533-18.457C558.664,314.151,551.247,305.871,542.131,305.871z"/>
		</g>
	</g>
	<g>
		<g>
			<g>
				<path fill="#4F9101" d="M559.202,324.39c0-0.021,0.003-0.039,0.003-0.06c0-10.493-7.645-18.999-17.074-18.999
					c-9.431,0-17.074,8.506-17.074,18.999c0,0.407,0.003,0.812,0.008,1.215C541.339,317.697,553.09,321.13,559.202,324.39z"/>
			</g>
		</g>
		<g>
			<path fill="#4FA801" d="M543.365,305.399c-0.409-0.032-0.817-0.068-1.234-0.068c-2.076,0-4.056,0.433-5.896,1.188
				c6.378,0.958,5.701,8.986,7.116,13.624c5.035-0.283,8.812,1.442,12.165,2.596C558.189,317.143,553.613,306.894,543.365,305.399z"
				/>
		</g>
		<g>
			<g>
				<path fill="#4F5E01" d="M524.535,326.4l-0.012-0.849c-0.006-0.403-0.009-0.812-0.009-1.222c0-10.774,7.903-19.54,17.616-19.54
					c9.712,0,17.615,8.766,17.615,19.54v0.901l-0.799-0.364c-3.051-1.626-8.083-3.566-14.721-3.566
					c-6.05,0-12.418,1.592-18.927,4.731L524.535,326.4z M542.131,305.871c-9.117,0-16.533,8.28-16.533,18.459
					c0,0.12,0,0.241,0.001,0.364c6.391-2.97,12.654-4.475,18.628-4.475c6.302,0,11.209,1.692,14.417,3.274
					C558.229,313.674,550.979,305.871,542.131,305.871z"/>
			</g>
		</g>
	</g>
	<g>
		<g>
			<ellipse fill="#8FC24D" cx="519.284" cy="319.734" rx="19.961" ry="19.215"/>
		</g>
		<g>
			<path fill="#BDD961" d="M516.879,329.14c1.443,4.328,10.102,2.886,12.987,0c5.289-6.348,5.129-17.339,0.127-25.601
				c-2.867-1.761-6.231-2.827-9.848-2.977C524.199,310.582,511.646,318.675,516.879,329.14z"/>
		</g>
		<g>
			<path fill="#6B923A" d="M519.284,339.489c-11.306,0-20.502-8.861-20.502-19.755c0-10.893,9.196-19.755,20.502-19.755
				c11.305,0,20.501,8.862,20.501,19.755C539.785,330.628,530.589,339.489,519.284,339.489z M519.284,301.063
				c-10.707,0-19.421,8.376-19.421,18.671c0,10.297,8.714,18.673,19.421,18.673c10.709,0,19.42-8.376,19.42-18.673
				C538.704,309.439,529.993,301.063,519.284,301.063z"/>
		</g>
	</g>
	<g>
		<g>
			<path fill="#4F9101" d="M539.225,320.143c0.003-0.138,0.021-0.271,0.021-0.408c0-10.611-8.938-19.213-19.961-19.213
				c-10.318,0-18.805,7.535-19.85,17.202C522.612,303.395,534.326,313.135,539.225,320.143z"/>
		</g>
		<g>
			<path fill="#4FA801" d="M520.146,300.562c1.392,3.44,0.825,6.655-0.306,9.815c5.924-0.268,10.446,1.547,13.817,4.011
				c-0.397-3.743-1.645-7.514-3.664-10.85C527.126,301.778,523.762,300.712,520.146,300.562z"/>
		</g>
		<g>
			<path fill="#4F5E01" d="M539.729,321.81l-0.948-1.358c-3.05-4.365-8.611-9.566-17.786-9.566c-6.283,0-13.441,2.455-21.275,7.299
				l-0.941,0.582l0.119-1.101c1.089-10.083,9.854-17.686,20.388-17.686c11.305,0,20.501,8.862,20.501,19.755
				c0,0.087-0.004,0.175-0.012,0.261L539.729,321.81z M520.994,309.804c8.703,0,14.307,4.445,17.666,8.675
				c-0.674-9.712-9.105-17.415-19.376-17.415c-9.587,0-17.628,6.632-19.157,15.605C507.756,312.111,514.772,309.804,520.994,309.804
				z"/>
		</g>
	</g>
	<g>
		<g>
			<ellipse fill="#8FC24D" cx="495.146" cy="304.499" rx="22.035" ry="25.379"/>
		</g>
		<g>
			<path fill="#BDD961" d="M496.68,319.038c-0.597,4.266,7.287,3.668,10.1,0c9.382-8.66,9.379-18.401,6.851-28.325
				c-3.363-5.972-8.844-10.193-15.221-11.287C505.604,290.908,500.646,307.495,496.68,319.038z"/>
		</g>
		<g>
			<g>
				<path fill="#6B923A" d="M495.146,330.42c-12.449,0-22.576-11.628-22.576-25.921c0-14.296,10.127-25.924,22.576-25.924
					c12.448,0,22.575,11.628,22.575,25.924C517.721,318.792,507.594,330.42,495.146,330.42z M495.146,279.657
					c-11.853,0-21.493,11.145-21.493,24.842c0,13.696,9.641,24.838,21.493,24.838s21.493-11.142,21.493-24.838
					C516.639,290.802,506.998,279.657,495.146,279.657z"/>
			</g>
		</g>
	</g>
	<g>
		<g>
			<path fill="#4F9101" d="M495.146,279.117c-9.008,0-16.742,6.234-20.157,15.154c12.329-2.984,37.759-6.327,41.711,15.486
				c0.312-1.698,0.481-3.455,0.481-5.259C517.181,290.481,507.315,279.117,495.146,279.117z"/>
		</g>
		<g>
			<path fill="#4FA801" d="M513.63,290.713c-3.363-5.972-8.844-10.193-15.221-11.287c2.616,4.175,3.954,9.094,3.659,14.021
				c5.715,1.507,10.022,4.501,12.806,10.463"/>
		</g>
		<g>
			<path fill="#4F5E01" d="M516.538,312.781l-0.37-2.927c-2.07-11.423-10.339-17.214-24.576-17.214
				c-6.254,0-12.412,1.173-16.478,2.155l-1,0.243l0.368-0.961c3.605-9.417,11.717-15.503,20.663-15.503
				c12.448,0,22.575,11.628,22.575,25.924c0,1.78-0.163,3.583-0.488,5.356L516.538,312.781z M491.592,291.557
				c13.393,0,21.956,5.249,24.953,15.226c0.062-0.763,0.094-1.527,0.094-2.283c0-13.697-9.641-24.842-21.493-24.842
				c-8.188,0-15.651,5.402-19.265,13.847C479.977,292.564,485.736,291.557,491.592,291.557z"/>
		</g>
	</g>
	<g>
		<g>
			<ellipse fill="#8FC24D" cx="461.229" cy="294.758" rx="36.698" ry="35.12"/>
		</g>
		<g>
			<path fill="#BDD961" d="M477.921,307.495c4.327,11.543,18.759-11.543,15.872-21.645c-3.281-11.479-12.62-20.158-24.041-25.252
				c-2.736-0.622-5.586-0.961-8.522-0.961c-9.506,0-18.168,3.46-24.687,9.133C456.746,271.214,470.203,288.202,477.921,307.495z"/>
		</g>
		<g>
			<path fill="#6B923A" d="M461.229,330.42c-20.533,0-37.24-15.998-37.24-35.662s16.707-35.661,37.24-35.661
				c20.535,0,37.239,15.997,37.239,35.661S481.765,330.42,461.229,330.42z M461.229,260.178c-19.937,0-36.157,15.513-36.157,34.58
				s16.221,34.579,36.157,34.579s36.156-15.512,36.156-34.579S481.166,260.178,461.229,260.178z"/>
		</g>
	</g>
	<g>
		<g>
			<path fill="#4F9101" d="M497.75,291.321c-1.804-17.783-17.465-31.684-36.521-31.684c-20.269,0-36.698,15.725-36.698,35.12
				c0,11.27,5.553,21.291,14.174,27.717C446.938,305.293,474.902,253.656,497.75,291.321z"/>
		</g>
		<g>
			<path fill="#4FA801" d="M491.858,283.619c-1.903-9.566-8.722-16.884-17.673-21.708c-4.032-1.458-8.393-2.273-12.956-2.273
				c-10.301,0-19.604,4.065-26.268,10.606c10.904,1.652,22.276,5.899,29.757,14.308
				C473.263,277.247,482.786,274.581,491.858,283.619z"/>
		</g>
		<g>
			<path fill="#4F5E01" d="M438.909,323.304l-0.527-0.395c-9.146-6.817-14.393-17.079-14.393-28.151
				c0-19.664,16.707-35.661,37.24-35.661c19.266,0,35.197,13.83,37.062,32.17l0.164,1.908l-1.165-1.574
				c-5.31-8.748-11.266-13.185-17.708-13.185c-17.301,0-34.009,30.977-40.389,44.293L438.909,323.304z M461.229,260.178
				c-19.937,0-36.157,15.513-36.157,34.58c0,10.515,4.887,20.277,13.432,26.887c6.673-13.81,23.421-44.31,41.078-44.31
				c6.3,0,12.109,3.903,17.297,11.611C493.976,272.384,479.075,260.178,461.229,260.178z"/>
		</g>
	</g>
	<g>
		<g>
			<path fill="#8FC24D" d="M398.799,283.687c0,0,11.543-14.188,28.137-11.303c16.595,2.887,30.612,13.641,33.188,26.213
				c2.405,11.742-0.961,35.763-18.518,44.215c-17.555,8.453-28.377,5.206-37.036,0C404.569,330.341,398.799,283.687,398.799,283.687
				z"/>
		</g>
		<g>
			<path fill="#BDD961" d="M437.518,317.596c4.329,7.215,12.986,1.442,15.872-4.329c10.274-21.69-10.158-36.145-29.859-41.241
				c-7.402-0.303-13.606,2.633-17.948,5.639C425.979,282.071,426.444,305.137,437.518,317.596z"/>
		</g>
		<g>
			<path fill="#6B923A" d="M421.847,348.545c-6.08,0-11.494-1.625-17.556-5.269l-0.262-0.159v-0.306
				c0-12.294-5.71-58.592-5.768-59.06l-0.027-0.227l0.144-0.179c0.098-0.12,9.84-11.891,24.097-11.891
				c1.514,0,3.045,0.134,4.556,0.396c17.195,2.989,31.023,13.943,33.624,26.636c2.322,11.349-0.812,36.144-18.813,44.812
				C434.509,346.829,427.969,348.545,421.847,348.545z M405.11,342.504c5.778,3.429,10.952,4.959,16.736,4.959
				c5.956,0,12.343-1.681,19.523-5.14c17.467-8.408,20.489-32.558,18.224-43.617c-2.474-12.074-16.247-22.92-32.75-25.79
				c-1.448-0.249-2.917-0.378-4.369-0.378c-12.8,0-21.863,9.883-23.11,11.317C399.804,287.44,405.022,330.18,405.11,342.504z"/>
		</g>
	</g>
	<g>
		<g>
			<path fill="#4F9101" d="M459.09,295.161c-4.192-11.056-17.098-20.159-32.154-22.777c-16.594-2.886-28.137,11.303-28.137,11.303
				s5.771,46.654,5.771,59.125c0.896,0.539,1.821,1.049,2.769,1.535C411.464,325.631,426.612,271.122,459.09,295.161z"/>
		</g>
		<g>
			<path fill="#4FA801" d="M452.119,291.06c-0.046-0.29-0.098-0.581-0.173-0.88c-2.793-8.379-10.993-13.145-19.948-16.642
				c-1.654-0.462-3.342-0.855-5.062-1.154c-8.983-1.562-16.482,1.88-21.476,5.366c9.226,2.697,17.622,11.227,21.863,19.719
				C433.827,290.28,442.013,286.679,452.119,291.06z"/>
		</g>
		<g>
			<path fill="#4F5E01" d="M407.717,345.148l-0.625-0.319c-0.991-0.51-1.934-1.031-2.801-1.553l-0.262-0.159v-0.306
				c0-12.294-5.71-58.592-5.768-59.06l-0.027-0.227l0.144-0.179c0.098-0.12,9.838-11.891,24.097-11.891
				c1.514,0,3.045,0.134,4.556,0.396c15.238,2.648,28.326,11.938,32.565,23.116l0.653,1.725l-1.48-1.097
				c-5.3-3.922-10.414-5.912-15.203-5.912c-21.321,0-32.066,38.31-35.699,54.778L407.717,345.148z M405.11,342.503
				c0.587,0.348,1.208,0.694,1.854,1.037c3.831-17.079,14.795-54.937,36.602-54.937c4.546,0,9.342,1.687,14.28,5.015
				c-4.75-10.052-16.928-18.253-31.002-20.702c-1.448-0.249-2.917-0.378-4.369-0.378c-12.801,0-21.863,9.883-23.11,11.317
				C399.804,287.44,405.022,330.178,405.11,342.503z"/>
		</g>
	</g>
	<g>
		<g>
			<path fill="#8FC24D" d="M397.129,284.649c0,0,3.107-7.456,10.805-1.684c7.699,5.771,16.598,19.078,16.598,33.668
				c0,10.1-2.886,35.111-37.757,43.528c-17.556,3.608-42.567-0.469-45.694-18.991C362.004,333.228,401.473,307.255,397.129,284.649z
				"/>
		</g>
		<g>
			<path fill="#BDD961" d="M414.431,314.711c0-1.444-2.692-6.409-5.771,1.44c-9.415,25.553-36.373,38.562-63.358,34.375
				c8.538,10.473,27.397,12.529,41.473,9.636c2.211-0.533,4.291-1.136,6.252-1.795C409.564,349.68,420.408,336.631,414.431,314.711z
				"/>
		</g>
		<g>
			<path fill="#6B923A" d="M374.739,361.896c-14.846,0-31.624-5.42-34.191-20.636l-0.074-0.438l0.415-0.158
				c22.229-8.439,59.854-34.34,55.708-55.913l-0.03-0.16l0.062-0.15c0.073-0.172,1.801-4.208,5.901-4.208
				c1.766,0,3.694,0.772,5.729,2.3c8.356,6.265,16.813,19.988,16.813,34.101c0,13.012-4.96,36.039-38.172,44.056
				C383.046,361.481,378.847,361.896,374.739,361.896z M341.692,341.516c2.704,14.22,18.788,19.299,33.047,19.299
				c4.037,0,8.16-0.407,11.926-1.183c32.475-7.838,37.324-30.305,37.324-42.999c0-13.756-8.24-27.132-16.379-33.234
				c-1.845-1.384-3.555-2.084-5.08-2.084c-2.999,0-4.518,2.749-4.838,3.404C401.699,306.715,364.218,332.818,341.692,341.516z"/>
		</g>
	</g>
	<g>
		<g>
			<path fill="#4F9101" d="M423.082,306.259c-2.585-10.102-9.394-18.979-15.148-23.293c-7.697-5.772-10.805,1.684-10.805,1.684
				c2.064,10.748-5.781,22.255-16.824,32.225h15.367C395.672,316.874,412.026,295.747,423.082,306.259z"/>
		</g>
		<g>
			<path fill="#4FA801" d="M407.207,282.479c-7.157-4.77-10.078,2.171-10.078,2.171c2.064,10.748-5.781,22.255-16.824,32.225h15.367
				c0,0,7.473-10.889,19.067-13.47C415.589,296.111,413.51,289.121,407.207,282.479z"/>
		</g>
		<g>
			<path fill="#4F5E01" d="M395.938,317.416H378.9l1.042-0.943c8.845-7.987,18.913-19.973,16.654-31.722l-0.03-0.16l0.062-0.15
				c0.073-0.172,1.8-4.208,5.901-4.208c1.766,0,3.694,0.772,5.729,2.3c5.735,4.3,12.706,13.263,15.348,23.593l0.466,1.822
				l-1.363-1.297c-1.942-1.846-4.193-2.782-6.693-2.782c-9.479,0-19.812,13.203-19.917,13.337L395.938,317.416z M381.697,316.332
				h13.712c1.43-1.793,11.164-13.547,20.606-13.547c2.218,0,4.256,0.657,6.08,1.957c-2.859-9.373-9.21-17.389-14.485-21.344
				c-1.845-1.384-3.555-2.084-5.08-2.084c-2.999,0-4.518,2.749-4.838,3.404C399.831,296.443,390.435,308.213,381.697,316.332z"/>
		</g>
	</g>
	<g>
		<g>
			<path fill="#8FC24D" d="M397.129,276.713c0,0,8.684,13.017,7.682,26.062c-1.083,14.099-11.304,25.643-17.074,31.175
				c-5.772,5.53-28.619,19.238-52.428,10.822c-23.808-8.419-42.085-31.265-31.504-56.275
				C324.246,283.687,397.129,276.713,397.129,276.713z"/>
		</g>
		<g>
			<path fill="#BDD961" d="M381.243,321.924c5.786-8.494-1.443-12.985-8.658-10.1c-22.207,11.756-55.056,11.687-71.784-6.633
				c0.723,11.926,7.571,22.552,17.44,30.26C339.68,341.504,362.412,338.962,381.243,321.924z"/>
		</g>
		<g>
			<path fill="#6B923A" d="M351.039,347.979c-5.494,0-10.848-0.908-15.911-2.698c-14.581-5.155-26.46-15.431-31.778-27.487
				c-4.183-9.486-4.198-19.689-0.042-29.509l0.106-0.253l0.267-0.062c20.244-4.764,92.667-11.726,93.397-11.796l0.321-0.03
				l0.18,0.27c0.089,0.131,8.775,13.324,7.771,26.403c-1.082,14.09-11.266,25.8-17.24,31.521
				C384.419,337.877,369.684,347.979,351.039,347.979z M304.197,288.959c-3.929,9.461-3.88,19.274,0.142,28.397
				c5.2,11.79,16.846,21.848,31.149,26.904c4.947,1.749,10.179,2.636,15.55,2.636c18.29,0,32.712-9.878,36.323-13.339
				c5.862-5.618,15.855-17.093,16.909-30.823c0.896-11.693-6.207-23.528-7.419-25.45
				C391.522,277.798,324.02,284.381,304.197,288.959z"/>
		</g>
	</g>
	<g>
		<g>
			<path fill="#4F9101" d="M397.129,276.713c0,0-13.6,1.303-30.695,3.167c14.62,3.183,35.884,11.175,36.805,30.789
				c0.8-2.519,1.361-5.156,1.571-7.894C405.812,289.729,397.129,276.713,397.129,276.713z"/>
		</g>
		<g>
			<path fill="#4FA801" d="M396.222,276.801c-3.261,0.315-15.242,1.491-29.788,3.079c10.776,2.346,25.154,7.312,32.341,17.614
				C399.688,290.545,399.404,283.241,396.222,276.801z"/>
		</g>
		<g>
			<path fill="#4F5E01" d="M402.827,313.43l-0.128-2.734c-0.924-19.662-23.19-27.416-36.38-30.288l-3.245-0.706l3.302-0.36
				c16.903-1.845,30.566-3.153,30.702-3.167l0.321-0.03l0.18,0.27c0.089,0.131,8.775,13.324,7.771,26.403
				c-0.202,2.621-0.738,5.317-1.597,8.016L402.827,313.43z M369.636,280.077c12.895,3.259,31.202,10.814,33.852,27.664
				c0.395-1.688,0.657-3.363,0.784-5.007c0.896-11.693-6.207-23.528-7.419-25.45C394.822,277.479,383.637,278.564,369.636,280.077z"
				/>
		</g>
	</g>
	<g>
		<g>
			<path fill="#8FC24D" d="M305.488,241.119c0,0-12.747,2.646-12.987,29.341c-0.24,26.693,20.923,41.615,43.769,44.009
				c19.398,2.032,40.163-2.394,52.667-17.104c12.216-14.366,17.316-28.349,9.861-59.131
				C377.635,240.399,305.488,241.119,305.488,241.119z"/>
		</g>
		<g>
			<path fill="#BDD961" d="M319.196,300.279c18.758,2.887,40.402,7.216,51.945-10.1c7.216-10.1-7.213-23.086-18.758-18.759
				c-20.201,5.772-41.845,2.887-56.274-14.43c-0.904-1.807,0.455-4.745,0.535-7.398c-2.243,4.377-4.053,10.964-4.143,20.867
				c-0.017,1.892,0.084,3.718,0.276,5.491C297.901,287.342,305.503,296.858,319.196,300.279z"/>
		</g>
		<g>
			<path fill="#6B923A" d="M345.099,315.477C345.099,315.477,345.1,315.477,345.099,315.477c-2.927,0-5.916-0.157-8.884-0.469
				c-22.206-2.327-44.502-17.006-44.254-44.554c0.241-26.823,12.879-29.752,13.417-29.864c0.826-0.019,72.469-0.756,93.365-2.894
				l0.47-0.05l0.111,0.461c7.548,31.165,2.058,45.455-9.973,59.607C379.614,309.168,363.897,315.477,345.099,315.477z
				 M398.382,238.818c-21.527,2.107-92.172,2.835-92.889,2.841c-0.017,0.017-12.218,2.939-12.45,28.804
				c-0.242,26.869,21.565,41.192,43.284,43.467c2.932,0.308,5.882,0.465,8.771,0.465c18.478,0,33.899-6.173,43.429-17.382
				C400.557,282.864,405.7,269.37,398.382,238.818z"/>
		</g>
	</g>
	<g>
		<g>
			<path fill="#4F9101" d="M398.799,238.233c-6.26,0.641-16.982,1.154-28.977,1.562c8.525,9.848,25.064,31.448,24.641,50.275
				C402.508,277.821,405.001,263.844,398.799,238.233z"/>
		</g>
		<g>
			<path fill="#4FA801" d="M398.799,238.233c-6.26,0.641-16.982,1.154-28.977,1.562c6.138,7.09,17.838,23.154,22.965,37.006
				c2.174-2.852,9.071-12.648,9.071-21.477C401.343,250.244,400.34,244.599,398.799,238.233z"/>
		</g>
		<g>
			<path fill="#4F5E01" d="M393.88,291.944l0.042-1.887c0.427-18.995-16.998-41.23-24.508-49.909l-0.742-0.857l1.131-0.038
				c13.591-0.459,23.327-0.983,28.94-1.557l0.47-0.05l0.111,0.461c5.725,23.635,4.447,38.775-4.408,52.26L393.88,291.944z
				 M370.967,240.296c9.171,10.742,23.44,30.212,24.027,47.932c6.607-10.771,9.538-23.722,3.388-49.409
				C392.844,239.362,383.628,239.857,370.967,240.296z"/>
		</g>
	</g>
	<g>
		<g>
			<path fill="#8FC24D" d="M292.5,196.749c0,0-8.294,34.63,12.989,52.668c21.283,18.036,57.501,19.841,74.203,11.904
				c16.703-7.937,32.213-21.645,25-51.226C378.718,210.457,292.5,196.749,292.5,196.749z"/>
		</g>
		<g>
			<path fill="#BDD961" d="M356.841,257.518c15.753-1.942,27.287-19.284,18.629-26.5c-25.509-5.941-60.932-0.344-84.551-19.562
				c-0.077,6.346,0.621,13.97,3.265,21.29C309.522,247.819,323.044,261.683,356.841,257.518z"/>
		</g>
		<g>
			<path fill="#6B923A" d="M355.406,266.342c-19.274,0-38.065-6.173-50.268-16.513c-21.29-18.044-13.248-52.856-13.165-53.206
				l0.117-0.486l0.494,0.079c0.851,0.134,86.473,13.761,112.099,13.34l0.431-0.006l0.103,0.418
				c5.856,24.015-2.416,40.973-25.292,51.843C373.77,264.735,365.064,266.342,355.406,266.342z M292.919,197.363
				c-0.886,4.26-6.5,35.185,12.918,51.641c12.012,10.18,30.542,16.258,49.568,16.258c9.5,0,18.043-1.573,24.054-4.43
				c14.189-6.742,32.16-19.272,24.806-50.188C379.171,210.813,300.027,198.483,292.919,197.363z"/>
		</g>
	</g>
	<g>
		<g>
			<path fill="#4F9101" d="M404.69,210.096c-3.829,0.054-8.978-0.201-14.959-0.669c5.215,7.058,11.902,17.732,14.298,28.623
				C406.852,230.742,407.504,221.632,404.69,210.096z"/>
		</g>
		<g>
			<path fill="#4FA801" d="M404.029,238.049c1.807-4.675,2.708-10.103,2.396-16.417c-2.192,1.336-4.78,2.079-7.574,2.432
				C401.082,228.49,402.974,233.247,404.029,238.049z"/>
		</g>
		<g>
			<path fill="#4F5E01" d="M403.887,239.921l-0.386-1.756c-2.38-10.816-9.037-21.424-14.205-28.419l-0.703-0.952l1.181,0.092
				c6.299,0.495,11.272,0.727,14.91,0.669l0.431-0.006l0.103,0.418c2.628,10.781,2.399,20.294-0.684,28.275L403.887,239.921z
				 M390.862,210.055c4.827,6.67,10.677,16.205,13.268,26.099c2.376-7.308,2.424-15.879,0.136-25.51
				C400.873,210.664,396.407,210.472,390.862,210.055z"/>
		</g>
	</g>
	<g>
		<g>
			<path fill="#8FC24D" d="M340.479,217.671c0,0-28.859,1.444-44.731-6.853c-15.872-8.297-34.842-31.384-18.683-53.75
				c-0.796-5.05,12.55-56.274,46.46-64.21c33.909-7.936,63.891-1.804,81.367,10.822c17.476,12.625,26.22,37.517,24.914,57.718
				c6.269,5.772,18.341,33.548-16.915,51.585c-11.447,6.495-35.615,10.461-53.653,2.525
				C348.055,216.229,340.479,217.671,340.479,217.671z"/>
		</g>
		<g>
			<path fill="#BDD961" d="M340.479,217.671c0,0-28.859,1.444-44.731-6.853c-15.872-8.297-34.842-31.384-18.683-53.75
				c-0.796-5.05,12.55-56.274,46.46-64.21c33.909-7.936,63.891-1.804,81.367,10.822c17.476,12.625,23.948,45.256,16.062,62.513
				c6.27,5.772,21.333,23.875-13.923,41.912c-11.446,6.493-24.729,11.274-47.793,7.403
				C348.055,216.229,340.479,217.671,340.479,217.671z"/>
		</g>
		<g>
			<path fill="#D7E8A0" d="M363.226,89.722c-12.141-1.028-25.578-0.17-39.701,3.135c-33.91,7.936-47.256,59.16-46.46,64.21
				c-11.657,16.134-5.03,32.641,5.524,43.704c-2.905-8.401-11.147-25.762-0.578-43.084
				C286.162,118.051,309.683,89.108,363.226,89.722z"/>
		</g>
		<g>
			<path fill="#6B923A" d="M382.302,220.459c-8.554,0-16.558-1.521-23.161-4.402c-10.951,0.715-18.485,2.133-18.56,2.147
				c-0.094,0.009-2.046,0.104-5.148,0.104c-9.905,0-28.265-0.91-39.935-7.012c-9.87-5.159-21.214-16.235-24.308-29.346
				c-2.072-8.778-0.283-17.199,5.317-25.032c-0.345-5.991,12.702-56.586,46.895-64.589c10.107-2.365,20.214-3.564,30.042-3.564
				c20.46,0,38.845,5.141,51.764,14.474c18.884,13.644,26.261,39.534,25.151,57.938c3.773,3.649,8.308,13.208,6.884,23.633
				c-1.092,8.003-6.159,19.472-24.106,28.653C405.54,217.775,393.717,220.459,382.302,220.459z M359.335,214.959l0.12,0.053
				c6.49,2.855,14.391,4.366,22.847,4.366c11.238,0,22.856-2.632,30.322-6.867c13.895-7.11,22.032-16.735,23.548-27.846
				c1.527-11.19-3.876-20.241-6.733-22.871l-0.189-0.175l0.017-0.258c1.173-18.131-6.056-43.779-24.691-57.244
				c-12.737-9.201-30.895-14.27-51.13-14.27c-9.745,0-19.77,1.189-29.796,3.537c-34.079,7.976-46.781,58.959-46.048,63.599
				l0.034,0.221l-0.13,0.181c-5.502,7.614-7.272,15.796-5.262,24.318c3.017,12.78,14.105,23.59,23.757,28.634
				c11.466,5.994,29.628,6.889,39.434,6.889c3.073,0,5.001-0.095,5.02-0.097c0.001-0.004,7.662-1.448,18.75-2.162L359.335,214.959z"
				/>
		</g>
	</g>
	<g>
		<g>
			<path fill="#EBD12E" d="M547.781,333.107c0,0,1.787-4.425,5.293-2.767c7.363,3.488,5.47,16.609,0.72,17.677
				c-1.2,0-1.099-4.044-4.159-6.619C547.92,339.954,546.73,335.813,547.781,333.107z"/>
		</g>
		<g>
			<path fill="#EDE36B" d="M549.718,330.593c-1.282,0.915-1.937,2.515-1.937,2.515c-1.051,2.706,0.139,6.847,1.854,8.291
				c3.03,2.551,2.963,6.536,4.127,6.611C555.375,341.648,554.98,335.461,549.718,330.593z"/>
		</g>
		<g>
			<path fill="#D9A624" d="M553.854,348.558h-0.06c-0.894,0-1.244-0.951-1.688-2.158c-0.5-1.355-1.185-3.212-2.819-4.588
				c-1.854-1.562-3.146-5.977-2.008-8.9c0.062-0.147,1.438-3.483,4.265-3.483c0.574,0,1.167,0.143,1.761,0.424
				c4.484,2.123,5.565,7.44,5.132,11.35c-0.431,3.882-2.249,6.832-4.523,7.345L553.854,348.558z M551.543,330.51
				c-2.094,0-3.247,2.772-3.259,2.801c-0.967,2.485,0.144,6.362,1.698,7.672c1.854,1.561,2.598,3.574,3.139,5.043
				c0.203,0.551,0.475,1.294,0.661,1.438c1.748-0.48,3.21-3.078,3.578-6.38c0.396-3.556-0.552-8.374-4.518-10.253
				C552.393,330.618,551.955,330.51,551.543,330.51z"/>
		</g>
	</g>
	<g>
		<g>
			<path fill="#EBD12E" d="M519.945,333.228c0,0-3.534,4.073,0,7.816c5.111,5.411,3.607,9.019,5.111,9.317
				c1.246,0,6.914-4.19,5.11-11.412C528.362,331.724,522.592,329.92,519.945,333.228z"/>
		</g>
		<g>
			<path fill="#EDE36B" d="M523.823,331.755c-0.62,0.264-3.411,0.892-3.878,1.473c0,0-3.534,4.073,0,7.816
				c4.746,5.025,3.791,8.489,4.835,9.2C526.693,343.985,528.64,336.119,523.823,331.755z"/>
		</g>
		<g>
			<path fill="#D9A624" d="M525.057,350.903l-0.106-0.01c-0.912-0.184-1.108-1.026-1.357-2.094c-0.361-1.545-0.966-4.13-4.04-7.385
				c-3.826-4.051-0.054-8.498-0.017-8.543c0.914-1.143,2.226-1.779,3.682-1.779c2.76,0,6.141,2.388,7.475,7.725
				c1.146,4.599-0.676,7.84-1.865,9.361C527.496,349.885,525.864,350.903,525.057,350.903z M523.218,332.174
				c-1.12,0-2.132,0.494-2.85,1.392c-0.143,0.167-3.178,3.773-0.029,7.105c3.272,3.468,3.92,6.23,4.306,7.883
				c0.189,0.805,0.293,1.175,0.469,1.263c0.394-0.073,1.679-0.79,2.861-2.304c1.304-1.669,2.652-4.488,1.666-8.433
				C528.45,334.309,525.557,332.174,523.218,332.174z"/>
		</g>
	</g>
	<g>
		<g>
			<path fill="#EBD12E" d="M500.723,323.691c0,0-4.964,3.423-1.699,8.159c4.688,6.803,2.841,10.771,3.846,10.949
				c1.476,0.317,8.854-2.72,8.353-10.691C510.719,324.136,504.479,320.873,500.723,323.691z"/>
		</g>
		<g>
			<path fill="#EDE36B" d="M504.509,322.767c-1.337-0.198-2.671,0.09-3.786,0.925c0,0-4.964,3.423-1.699,8.159
				c4.611,6.69,2.906,10.63,3.805,10.929C505.921,336.755,507.762,328.804,504.509,322.767z"/>
		</g>
		<g>
			<path fill="#D9A624" d="M503.113,343.365L503.113,343.365c-0.131,0-0.25-0.012-0.358-0.037c-0.728-0.128-0.77-0.882-0.823-1.839
				c-0.096-1.699-0.273-4.863-3.354-9.333c-3.53-5.121,1.783-8.873,1.837-8.909c0.947-0.711,2.096-1.094,3.303-1.094
				c3.598,0,7.638,3.478,8.044,9.92c0.251,3.969-1.395,6.61-2.819,8.126C506.893,342.382,504.301,343.365,503.113,343.365z
				 M503.087,342.279l0.026,0.002l0,0c0.835,0,3.166-0.828,5.04-2.822c1.279-1.361,2.754-3.734,2.529-7.317
				c-0.366-5.783-3.86-8.906-6.965-8.906c-0.973,0-1.894,0.308-2.672,0.889c-0.199,0.141-4.489,3.192-1.576,7.42
				c3.252,4.718,3.441,8.081,3.54,9.886C503.029,341.75,503.048,342.103,503.087,342.279z"/>
		</g>
	</g>
	<g>
		<g>
			<path fill="#EBD12E" d="M474.643,319.188c0,0-6.833,4.008-2.186,9.177c5.343,5.943,3.358,12.196,4.839,12.717
				c2.103,0.683,11.246-2.522,10.639-11.63C487.325,320.345,479.422,316.224,474.643,319.188z"/>
		</g>
		<g>
			<path fill="#EDE36B" d="M477.529,318.264c-1.024,0.079-2.008,0.38-2.887,0.925c0,0-6.833,4.008-2.186,9.177
				c5.343,5.943,3.358,12.196,4.839,12.715C483.211,337.774,484.335,322.706,477.529,318.264z"/>
		</g>
		<g>
			<path fill="#D9A624" d="M477.983,341.711L477.983,341.711c-0.332,0-0.621-0.039-0.855-0.115c-0.86-0.301-0.964-1.335-1.12-2.899
				c-0.247-2.492-0.619-6.262-3.954-9.969c-1.381-1.538-1.951-3.143-1.7-4.771c0.488-3.135,3.872-5.15,4.016-5.235
				c1.076-0.667,2.361-1.025,3.704-1.025c4.729,0,9.911,4.384,10.401,11.719c0.221,3.301-0.795,6.253-2.934,8.54
				C482.962,340.71,479.608,341.711,477.983,341.711z M478.073,318.777c-1.142,0-2.229,0.302-3.146,0.869
				c-0.041,0.026-3.099,1.856-3.503,4.48c-0.2,1.291,0.283,2.595,1.437,3.877c3.568,3.971,3.98,8.111,4.226,10.585
				c0.071,0.717,0.189,1.912,0.389,1.983c0.076,0.023,0.237,0.057,0.509,0.057c1.382,0,4.439-0.928,6.767-3.414
				c1.957-2.092,2.847-4.692,2.645-7.726C486.947,322.783,482.304,318.777,478.073,318.777z"/>
		</g>
	</g>
	<g>
		<g>
			<path fill="#EBD12E" d="M443.121,327.647c0,0-5.355,6.199,0.793,10.136c7.852,5.028,7.538,11.716,10.107,12.584
				c2.164,0.506,8.9-7.38,5.395-16.531C455.909,324.686,446.853,323.04,443.121,327.647z"/>
		</g>
		<g>
			<path fill="#EDE36B" d="M446.143,325.582c-1.177,0.401-2.226,1.08-3.021,2.065c0,0-5.355,6.199,0.793,10.136
				c7.284,4.664,7.544,10.747,9.594,12.298C457.177,344.347,453.697,331.336,446.143,325.582z"/>
		</g>
		<g>
			<path fill="#D9A624" d="M454.233,350.931c-0.002,0-0.002,0-0.002,0c-0.115,0-0.227-0.013-0.333-0.036
				c-1.261-0.424-1.89-1.768-2.687-3.468c-1.223-2.609-2.896-6.182-7.589-9.188c-1.831-1.173-2.889-2.658-3.146-4.415
				c-0.484-3.338,2.123-6.402,2.234-6.53c1.393-1.719,3.501-2.675,5.924-2.675c3.61,0,8.733,2.363,11.284,9.024
				c2.678,6.987-0.58,12.572-1.645,14.117C456.951,349.688,455.362,350.931,454.233,350.931z M448.636,325.702
				c-2.091,0-3.898,0.811-5.094,2.286c-0.033,0.04-2.409,2.838-1.991,5.685c0.21,1.43,1.103,2.66,2.656,3.654
				c4.956,3.175,6.778,7.066,7.985,9.641c0.714,1.524,1.229,2.627,2.003,2.888l0.038-0.006c0.625,0,1.943-0.948,3.151-2.702
				c0.986-1.436,4.014-6.622,1.525-13.117C456.556,327.882,451.902,325.702,448.636,325.702z"/>
		</g>
	</g>
	<g>
		<g>
			<path fill="#EBD12E" d="M399.69,341.32c0,0-6.151,6.236,0.613,10.321c8.64,5.218,9.256,12.06,10.955,12.933
				c2.812,0.887,10.145-7.39,6.474-16.745C414.062,338.476,403.984,336.685,399.69,341.32z"/>
		</g>
		<g>
			<path fill="#EDE36B" d="M402.187,339.6c-0.946,0.408-1.802,0.971-2.496,1.721c0,0-6.151,6.236,0.613,10.321
				c7.947,4.8,9.106,10.963,10.562,12.599C413.433,354.68,410.273,344.636,402.187,339.6z"/>
		</g>
		<g>
			<path fill="#D9A624" d="M411.706,365.179L411.706,365.179c-0.215,0-0.422-0.029-0.612-0.09c-0.775-0.39-1.215-1.278-1.882-2.624
				c-1.27-2.566-3.396-6.86-9.188-10.359c-2.025-1.226-3.167-2.766-3.395-4.578c-0.425-3.4,2.549-6.459,2.675-6.587
				c1.562-1.683,3.871-2.618,6.495-2.618c4.053,0,9.74,2.438,12.436,9.311c1.804,4.594,1.224,9.769-1.552,13.84
				C415.146,363.725,413.193,365.179,411.706,365.179z M411.518,364.089c0.031,0,0.107,0.008,0.188,0.008
				c0.903,0,2.565-1.012,4.081-3.233c0.966-1.415,3.919-6.521,1.44-12.836c-2.497-6.364-7.719-8.623-11.429-8.623
				c-2.317,0-4.347,0.812-5.711,2.285c-0.039,0.039-2.746,2.831-2.384,5.707c0.186,1.466,1.153,2.739,2.879,3.781
				c6.062,3.664,8.277,8.136,9.599,10.808c0.509,1.026,0.948,1.914,1.323,2.105C411.505,364.089,411.511,364.089,411.518,364.089z"
				/>
		</g>
	</g>
	<g>
		<g>
			<path fill="#EBD12E" d="M379.949,283.077c0,0-7.107,5.118-1.121,10.277c7.643,6.59,7.109,13.438,8.637,14.581
				c2.624,1.347,11.236-5.589,9.182-15.425C394.592,282.676,384.958,279.224,379.949,283.077z"/>
		</g>
		<g>
			<path fill="#EDE36B" d="M388.457,290.18c-1.459-3.649-3.292-6.557-5.864-8.355c-0.961,0.249-1.863,0.651-2.645,1.253
				c0,0-7.107,5.118-1.121,10.277c7.643,6.59,7.109,13.438,8.637,14.581c0.287,0.149,0.658,0.181,1.071,0.135
				C390.334,302.37,390.131,296.035,388.457,290.18z"/>
		</g>
		<g>
			<path fill="#D9A624" d="M388.237,308.646L388.237,308.646c-0.385,0-0.727-0.077-1.019-0.228
				c-0.701-0.514-0.986-1.464-1.418-2.903c-0.824-2.742-2.2-7.33-7.327-11.75c-1.792-1.547-2.66-3.254-2.58-5.081
				c0.148-3.423,3.592-5.94,3.739-6.047c1.392-1.07,3.165-1.643,5.109-1.643c4.995,0,10.871,3.919,12.435,11.406
				c0.924,4.417-0.185,8.963-3.039,12.473C392.305,307.129,389.935,308.646,388.237,308.646z M384.742,282.076
				c-1.705,0-3.248,0.495-4.465,1.429c-0.045,0.033-3.18,2.334-3.304,5.229c-0.062,1.478,0.679,2.894,2.206,4.211
				c5.366,4.624,6.801,9.403,7.657,12.259c0.33,1.099,0.616,2.048,0.95,2.3c0.062,0.022,0.24,0.061,0.45,0.061l0,0
				c1.118,0,3.178-1.057,5.06-3.373c2.647-3.258,3.676-7.475,2.821-11.568C394.671,285.699,389.301,282.076,384.742,282.076z"/>
		</g>
	</g>
	<g>
		<g>
			<path fill="#EBD12E" d="M388.181,236.069c0,0-4.839,8.616,3.713,11.112c10.92,3.187,13.612,10.49,15.713,10.949
				c3.315,0.149,8.834-11.046,2.086-20.207C402.945,228.761,391.475,229.743,388.181,236.069z"/>
		</g>
		<g>
			<path fill="#EDE36B" d="M389.375,234.405c-0.461,0.507-0.876,1.053-1.194,1.664c0,0-4.839,8.616,3.713,11.112
				c10.92,3.187,13.612,10.49,15.713,10.949c0.119,0.004,0.247-0.037,0.371-0.06C408.152,246.239,400.195,238.03,389.375,234.405z"
				/>
		</g>
		<g>
			<path fill="#D9A624" d="M407.673,258.674L407.673,258.674l-0.09-0.003c-0.926-0.193-1.658-1.031-2.771-2.298
				c-2.142-2.443-5.728-6.529-13.07-8.672c-2.537-0.741-4.216-2.076-4.989-3.973c-1.455-3.561,0.857-7.748,0.956-7.925
				c1.655-3.176,5.331-5.162,9.585-5.162c4.898,0,9.577,2.537,12.835,6.962c4.55,6.175,3.714,13.216,1.613,17.368
				C410.57,257.29,409.049,258.674,407.673,258.674z M397.293,231.726c-3.849,0-7.156,1.759-8.634,4.593
				c-0.028,0.054-2.162,3.931-0.904,7.008c0.644,1.569,2.088,2.694,4.289,3.335c7.646,2.231,11.361,6.468,13.582,8.998
				c0.838,0.956,1.566,1.788,2.053,1.931c0.765-0.006,2.016-0.966,3.096-3.107c1.962-3.876,2.741-10.458-1.518-16.238
				C406.205,234.101,401.845,231.726,397.293,231.726z"/>
		</g>
	</g>
	<g>
		<g>
			<path fill="#8FC24D" d="M322.756,208.584c0,0,9.546,14.619,20.249,15.762c10.894,1.162,16.384-3.244,24.681-10.216
				L322.756,208.584z"/>
		</g>
		<g>
			<path fill="#BDD961" d="M322.756,208.584c0,0,9.051,12.159,20.207,13.048c12.187,0.97,14.721-1.173,24.723-7.502L322.756,208.584
				z"/>
		</g>
		<g>
			<path fill="#6B923A" d="M346.427,225.076c-1.105,0-2.261-0.063-3.479-0.192c-5.865-0.626-11.542-5.142-15.58-9.243
				c-5.286-5.184-4.963-7.537-4.963-7.537c0.103,0.145,10.326,14.599,20.658,15.704c10.578,1.137,16.401-3.038,24.726-10.038
				c0,0-0.434,2.219-2.915,3.787C358.96,222.221,353.849,225.076,346.427,225.076z"/>
		</g>
	</g>
	<g>
		<g>
			<path fill="#590106" d="M323.044,190.181c0,0,13.467,21.962,22.005,21.962c10.619,0,17.555-12.509,19.84-16.837
				C354.428,196.028,342.764,197.922,323.044,190.181z"/>
		</g>
		<g>
			<g>
				<g>
					<path fill="#ED8E97" d="M344.448,203.724c-5.205-4.413-8.725-0.862-10.231,1.341c3.651,3.92,7.596,7.079,10.833,7.079
						c4.709,0,8.691-2.464,11.868-5.581C352.009,199.979,346.442,201.839,344.448,203.724z"/>
				</g>
				<g>
					<path fill="#F9AFB3" d="M353.111,203.042c-3.704-2.11-7.176-0.722-8.663,0.682c-5.205-4.413-8.725-0.862-10.231,1.341
						c2.134,2.29,4.366,4.3,6.5,5.592C345.544,209.697,349.9,207.542,353.111,203.042z"/>
				</g>
				<g>
					<path fill="#DD5872" d="M345.048,212.683c-2.969,0-6.747-2.439-11.229-7.25l-0.294-0.317l0.244-0.355
						c1.148-1.681,3.1-3.684,5.873-3.684c1.559,0,3.17,0.652,4.797,1.939c1.04-0.821,2.732-1.6,4.752-1.6
						c2.082,0,5.188,0.837,8.16,4.824l0.282,0.379l-0.337,0.329C353.417,210.754,349.296,212.683,345.048,212.683z M334.913,205.017
						c4.132,4.37,7.542,6.585,10.135,6.585c3.832,0,7.579-1.713,11.145-5.094c-2.609-3.303-5.233-4.01-7.002-4.01
						c-1.959,0-3.544,0.835-4.372,1.619l-0.352,0.332l-0.37-0.312c-1.548-1.313-3.048-1.977-4.456-1.977
						C337.523,202.16,335.935,203.639,334.913,205.017z"/>
				</g>
			</g>
		</g>
		<ellipse fill="#FCE3E6" cx="340.75" cy="206.566" rx="3.276" ry="1.538"/>
		<g>
			<path fill="#870001" d="M323.044,190.181c0,0,2.205,4.549,7.583,10.704c8.774-3.726,22.116-3.325,28.957,2.706
				c3.236-3.612,4.187-6.165,5.305-8.284C354.428,196.028,342.764,197.922,323.044,190.181z"/>
		</g>
		<g>
			<path fill="#6B923A" d="M345.048,212.683c-8.739,0-21.91-21.312-22.465-22.219l-0.845-1.378l1.504,0.591
				c13.304,5.222,22.637,5.825,28.501,5.825c3.63,0,6.912-0.256,10.085-0.507c1.022-0.082,2.028-0.16,3.023-0.229l0.97-0.067
				l-0.453,0.859C357.899,209.712,350.195,212.683,345.048,212.683z M324.382,191.273c3.103,4.777,13.743,20.329,20.667,20.329
				c4.746,0,11.834-2.75,18.9-15.686c-0.673,0.051-1.35,0.105-2.036,0.157c-3.194,0.253-6.498,0.513-10.17,0.513
				C346.02,196.585,337.044,196.021,324.382,191.273z"/>
		</g>
	</g>
	<g>
		<g>
			<ellipse fill="#123301" cx="344.027" cy="169.634" rx="22.065" ry="12.204"/>
		</g>
		<path fill="#194B02" d="M322.238,167.797c3.871,3.518,10.85,5.877,18.842,5.877c11.055,0,20.183-4.5,21.789-10.368
			c-3.871-3.518-10.85-5.877-18.842-5.877C332.973,157.429,323.845,161.93,322.238,167.797z"/>
		<g>
			<path fill="#0C1E01" d="M344.027,182.379c-12.465,0-22.606-5.717-22.606-12.745s10.141-12.747,22.606-12.747
				c12.464,0,22.606,5.72,22.606,12.747S356.492,182.379,344.027,182.379z M344.027,157.97c-11.869,0-21.524,5.233-21.524,11.664
				s9.655,11.664,21.524,11.664c11.869,0,21.522-5.233,21.522-11.664S355.896,157.97,344.027,157.97z"/>
		</g>
	</g>
	<g>
		<g>
			
				<ellipse transform="matrix(0.9989 -0.0469 0.0469 0.9989 -6.5033 18.7644)" fill="#DBD9D9" cx="396.882" cy="148.06" rx="17.773" ry="29.488"/>
		</g>
		<g>
			<path fill="#FFFFFF" d="M413.65,139.602c-2.622-12.456-9.944-21.384-18.15-20.999c-9.806,0.46-17.136,14.021-16.371,30.289
				c0.189,4.032,0.861,7.849,1.908,11.309C399.602,161.315,413.65,151.417,413.65,139.602z"/>
		</g>
		<g>
			<path fill="#8FC24D" d="M397.632,178.068c-10.859,0-20.019-13.755-20.853-31.314c-0.408-8.558,1.249-16.704,4.664-22.943
				c3.465-6.333,8.333-9.957,13.708-10.206c11.089-0.496,20.587,13.429,21.439,31.303c0.844,17.768-7.399,32.637-18.374,33.147
				C398.021,178.065,397.825,178.068,397.632,178.068z M396.012,119.133c-0.162,0-0.325,0.003-0.485,0.011
				c-4.547,0.213-8.701,3.387-11.7,8.935c-3.045,5.635-4.521,13.018-4.157,20.79c0.741,15.775,9.125,28.558,18.571,28.109
				c9.491-0.447,16.604-13.781,15.854-29.725C413.368,131.747,405.256,119.133,396.012,119.133z"/>
		</g>
		<g>
			<path fill="#0C1E01" d="M397.754,178.068c-9.98,0-18.398-12.804-19.165-29.149c-0.375-7.965,1.149-15.549,4.287-21.356
				c3.185-5.895,7.659-9.268,12.599-9.5c10.192-0.462,18.92,12.5,19.702,29.138c0.777,16.539-6.799,30.381-16.887,30.856
				C398.112,178.065,397.932,178.068,397.754,178.068z M396.012,119.133c-0.162,0-0.325,0.003-0.485,0.011
				c-4.547,0.213-8.701,3.387-11.7,8.935c-3.045,5.635-4.521,13.018-4.157,20.79c0.741,15.775,9.125,28.558,18.571,28.109
				c9.491-0.447,16.604-13.781,15.854-29.725C413.368,131.747,405.256,119.133,396.012,119.133z"/>
		</g>
	</g>
	<g>
		<g>
			
				<ellipse transform="matrix(0.9989 -0.0476 0.0476 0.9989 -6.6648 19.1601)" fill="#0067FC" cx="398.979" cy="149.523" rx="8.838" ry="14.339"/>
		</g>
		<g>
			<path fill="#024384" d="M399.398,164.394c-5.102,0-9.401-6.336-9.788-14.423c-0.187-3.926,0.583-7.667,2.168-10.539
				c1.633-2.956,3.938-4.65,6.491-4.771c5.226-0.28,9.687,6.175,10.079,14.416c0.391,8.195-3.495,15.062-8.66,15.31
				C399.591,164.392,399.495,164.394,399.398,164.394z M398.56,135.735l-0.238,0.006c-2.164,0.103-4.15,1.6-5.594,4.214
				c-1.492,2.699-2.215,6.238-2.037,9.963c0.354,7.386,4.26,13.394,8.708,13.394l0.238-0.006c4.57-0.218,7.994-6.579,7.63-14.177
				C406.914,141.743,403.011,135.735,398.56,135.735z"/>
		</g>
	</g>
	<g>
		
			<ellipse transform="matrix(0.9987 -0.0503 0.0503 0.9987 -7.1876 20.2595)" fill="#231F20" cx="399.185" cy="153.027" rx="5.537" ry="8.299"/>
	</g>
	<g>
		<ellipse fill="#FFFFFF" cx="399.61" cy="147.419" rx="3.698" ry="3.576"/>
	</g>
	<g>
		<ellipse fill="#FFFFFF" cx="394.625" cy="153.581" rx="2.258" ry="2.165"/>
	</g>
	<g>
		<g>
			<path fill="#DBD9D9" d="M290.696,134.413c-4.709,14.94-1.521,29.317,7.121,32.111c8.642,2.793,19.465-7.054,24.174-21.994
				s1.521-29.317-7.121-32.111C306.229,109.625,295.405,119.472,290.696,134.413z"/>
		</g>
		<g>
			<path fill="#FFFFFF" d="M314.87,112.419c-8.548-2.763-19.219,6.849-24.008,21.515c1.399,11.111,9.949,20.923,27.798,18.576
				c1.295-2.438,2.427-5.113,3.331-7.98C326.7,129.589,323.512,115.212,314.87,112.419z"/>
		</g>
		<g>
			<path fill="#8FC24D" d="M301.299,167.538L301.299,167.538c-1.14,0-2.256-0.167-3.317-0.498
				c-9.216-2.88-13.231-18.762-8.277-33.96c4.315-13.238,14.253-24.53,22.912-24.53c1.14,0,2.763,0.119,3.825,0.451
				c9.215,2.88,12.204,20.493,7.249,35.693C319.376,157.93,309.958,167.538,301.299,167.538z M312.648,112.486
				c-8.185,0-17.153,9.29-21.326,22.09c-4.77,14.635-1.628,28.736,7.004,31.433c0.95,0.297,1.951,0.447,2.973,0.447
				c8.184,0.001,16.767-9.938,20.939-22.738c4.77-14.634,2.013-28.085-6.618-30.783C314.67,112.637,313.669,112.486,312.648,112.486
				z"/>
		</g>
		<g>
			<path fill="#0C1E01" d="M300.858,167.538L300.858,167.538c-1.102,0-2.18-0.167-3.207-0.498c-8.91-2.88-12.262-17.59-7.472-32.79
				c4.173-13.237,13.277-22.845,21.65-22.845c1.102,0,2.181,0.168,3.206,0.5c8.911,2.88,12.261,17.589,7.471,32.789
				C318.335,157.93,309.23,167.538,300.858,167.538z M311.83,112.486c-7.912,0-16.584,9.29-20.618,22.09
				c-4.611,14.635-1.574,28.736,6.772,31.433c0.918,0.297,1.886,0.447,2.874,0.447c7.913,0.001,16.583-9.289,20.618-22.089
				c4.612-14.633,1.574-28.734-6.771-31.432C313.785,112.637,312.817,112.486,311.83,112.486z"/>
		</g>
	</g>
	<g>
		<g>
			
				<ellipse transform="matrix(-0.9524 -0.3048 0.3048 -0.9524 552.3267 369.6539)" fill="#0067FC" cx="305.017" cy="141.715" rx="8.838" ry="14.34"/>
		</g>
		<g>
			<path fill="#024384" d="M302.367,156.179L302.367,156.179c-0.647,0-1.281-0.099-1.885-0.291
				c-4.925-1.577-6.899-9.217-4.396-17.032c2.151-6.725,7.022-11.605,11.582-11.605c0.647,0,1.281,0.099,1.885,0.292
				c2.435,0.778,4.221,3.012,5.033,6.289c0.788,3.185,0.562,7-0.636,10.741C311.797,151.298,306.926,156.179,302.367,156.179z
				 M307.667,128.334c-4.102,0-8.54,4.564-10.552,10.853c-2.318,7.247-0.66,14.275,3.697,15.67c0.497,0.159,1.021,0.239,1.555,0.239
				c4.102,0,8.54-4.563,10.553-10.852c1.137-3.554,1.356-7.159,0.615-10.151c-0.718-2.898-2.249-4.859-4.312-5.52
				C308.724,128.414,308.2,128.334,307.667,128.334z"/>
		</g>
	</g>
	<g>
		
			<ellipse transform="matrix(-0.9517 -0.3072 0.3072 -0.9517 548.577 376.4258)" fill="#231F20" cx="303.909" cy="145.045" rx="5.537" ry="8.3"/>
	</g>
	<g>
		
			<ellipse transform="matrix(-0.9659 -0.2589 0.2589 -0.9659 563.3793 353.2401)" fill="#FFFFFF" cx="304.952" cy="139.519" rx="3.697" ry="3.577"/>
	</g>
	<g>
		
			<ellipse transform="matrix(-0.9658 -0.2592 0.2592 -0.9658 567.7744 368.385)" fill="#FFFFFF" cx="308.172" cy="146.764" rx="2.259" ry="2.164"/>
	</g>
	<g>
		<path fill="#8FC24D" d="M386.816,190.929c0,0-5.738,6.961-24.531,9.843c0.801-2.821,0.801-2.821,0.801-2.821
			S385.657,194.009,386.816,190.929z"/>
		<path fill="#8FC24D" d="M310.445,180.742c0,0,3.456,9.72,14.701,13.645c-0.418-1.966-0.418-1.966-0.418-1.966
			S317.697,190.493,310.445,180.742z"/>
	</g>
	<path fill="#8FC24D" d="M301.322,183.289c0,0,2.799-6.799,7.09-5.267c0.684,1.171,0.684,1.171,0.684,1.171
		S305.452,179.088,301.322,183.289z"/>
	<g>
		<g>
			<path fill="#BDD961" d="M308.114,177.554c0,0,22.23,37.498,78.702,13.375"/>
		</g>
		<g>
			<path fill="#6B923A" d="M351.701,199.499c-30.746,0-43.883-21.382-44.053-21.669l0.931-0.552
				c0.221,0.371,22.67,36.802,78.024,13.155l0.426,0.995C373.329,197.28,361.598,199.499,351.701,199.499z"/>
		</g>
	</g>
	<g>
		<path fill="#6B923A" d="M387.219,191.732c-3.512-1.618-3.889-3.898-3.889-3.898c0.049,0.049,5.031,5.04,10.463,3.465
			C393.793,191.299,392.126,193.443,387.219,191.732z"/>
	</g>
	<g>
		<g>
			<path fill="#BDD961" d="M286.665,165.662c0,0,14.213-9.411,25.517-0.032c0,0-9.003,6.425-12.61,6.425
				C296.355,172.055,286.665,165.662,286.665,165.662z"/>
		</g>
		<g>
			<path fill="#6B923A" d="M286.162,166.192c0,0,3.634-4.635,12.931-5.062c11.333-0.815,13.746,5.012,13.746,5.012
				C301.961,157.119,286.319,166.102,286.162,166.192z"/>
		</g>
	</g>
	<g>
		<g>
			<path fill="#BDD961" d="M383.132,175.973c0,0,19.44-8.676,30.745,1.02c0,0-11.194,6.544-15.069,6.289
				C394.751,183.014,383.132,175.973,383.132,175.973z"/>
		</g>
		<g>
			<path fill="#6B923A" d="M414.318,177.964c-10.923-9.371-30.985-2.065-31.187-1.991c0,0,3.389-3.918,16.026-3.918
				C413.469,172.628,414.318,177.964,414.318,177.964z"/>
		</g>
	</g>
	<ellipse fill="#A3B79A" cx="342.554" cy="160.286" rx="5.477" ry="1.669"/>
	<path fill="#D7E8A0" d="M412.995,177.747c-0.084,1.589-5.633-2.283-13.562-2.701c-7.93-0.416-15.238,2.778-15.154,1.188
		c0.083-1.586,6.932-3.424,14.861-3.008C407.07,173.643,413.078,176.158,412.995,177.747z"/>
	<path fill="#D7E8A0" d="M311.826,165.95c-0.031,1.59-4.74-2.075-11.344-2.203c-6.604-0.126-12.604,4.037-12.572,2.445
		c0.031-1.59,5.68-4.38,12.285-4.252C306.799,162.066,311.856,164.36,311.826,165.95z"/>
	<g>
		<path fill="#6B923A" d="M301.444,184.49c0,0-1.142-3.343,3.379-6.209c4.903-2.5,7.358-0.593,7.358-0.593
			C311.817,177.661,303.236,177.104,301.444,184.49z"/>
	</g>
</g>
</svg>
