<?xml version="1.0" encoding="utf-8"?>
<!-- Generator: Adobe Illustrator 16.0.0, SVG Export Plug-In . SVG Version: 6.00 Build 0)  -->
<!DOCTYPE svg PUBLIC "-//W3C//DTD SVG 1.1//EN" "http://www.w3.org/Graphics/SVG/1.1/DTD/svg11.dtd">
<svg version="1.1" id="Layer_2" xmlns="http://www.w3.org/2000/svg" xmlns:xlink="http://www.w3.org/1999/xlink" x="0px" y="0px"
	 width="768px" height="430px" viewBox="0 0 768 430" enable-background="new 0 0 768 430" xml:space="preserve">
<g>
	<g>
		<path fill="#3F3E3D" d="M337.176,284.256c0,0,1.854,33.465-1.961,41.268c-3.814,7.109-4.854,9.017-5.896,10.577
			c-2.124,1.431-11.097,6.936-10.403,17.514c2.514,0.433,6.936,0,6.936,0s-0.26,3.165,1.82,3.382
			c2.244,0.231,10.793,0.822,17.253-3.642c3.902-2.602,3.122-10.058-1.213-13.351c5.721,0.432,8.842-2.343,8.41-3.73
			c-0.435-1.386-0.087-14.736,1.646-22.366c1.735-7.631-0.042-14.355,3.447-20.374C350.647,291.156,337.176,284.256,337.176,284.256
			z"/>
		<path fill="#474746" d="M342.612,298.995c-2.417-1.979-3.749-4.233-5.156-7.842c0.317,10.229,0.477,28.812-2.241,34.37
			c-3.814,7.109-4.854,9.017-5.896,10.577c-0.016,0.013-0.038,0.025-0.056,0.038c4.491-1.374,5.996-2.791,9.593-5.081
			C348.219,324.815,347.874,303.302,342.612,298.995z"/>
		<path fill="#1B1919" d="M330.914,357.678c-1.422,0-2.577-0.09-3.295-0.167c-1.753-0.182-2.256-2.011-2.298-3.327
			c-0.74,0.057-2.085,0.144-3.489,0.144c-1.223,0-2.233-0.067-3.004-0.2l-0.404-0.07l-0.027-0.408
			c-0.455-6.939,3.027-12.923,10.349-17.789l0.198-0.134c0.992-1.499,2.03-3.397,5.812-10.447c3.704-7.575,1.919-40.66,1.9-40.993
			l-0.051-0.904l0.807,0.413c0.135,0.069,13.518,6.911,19.98,9.251l0.584,0.211l-0.312,0.539c-2.046,3.527-2.229,7.397-2.424,11.495
			c-0.133,2.787-0.27,5.671-0.966,8.732c-1.728,7.603-2.059,20.815-1.658,22.097c0.162,0.518,0.01,1.129-0.425,1.722
			c-0.908,1.235-3.299,2.673-7.08,2.725c1.849,1.958,2.941,4.802,2.855,7.607c-0.077,2.452-1.08,4.498-2.754,5.614
			C340.564,357.001,334.871,357.678,330.914,357.678z M326.419,353.036l-0.048,0.619c-0.002,0.028-0.192,2.662,1.355,2.823
			c0.695,0.071,1.812,0.158,3.188,0.158c3.809,0,9.279-0.645,13.715-3.709c1.417-0.947,2.231-2.646,2.297-4.788
			c0.093-2.991-1.292-6.021-3.529-7.723l-1.403-1.067l1.757,0.135c0.384,0.028,0.769,0.042,1.142,0.042
			c3.293,0.003,5.618-1.156,6.461-2.302c0.227-0.31,0.329-0.607,0.269-0.796c-0.494-1.582-0.082-15.075,1.638-22.638
			c0.675-2.973,0.811-5.808,0.941-8.55c0.191-4.025,0.372-7.84,2.265-11.431c-5.724-2.165-15.817-7.213-18.726-8.684
			c0.273,5.503,1.465,33.42-2.06,40.626c-3.883,7.239-4.895,9.085-5.929,10.637l-0.057,0.084l-0.374,0.251
			c-2.568,1.707-10.308,6.852-9.909,16.437c0.654,0.083,1.465,0.125,2.419,0.125c2.007,0,3.95-0.188,3.969-0.188L326.419,353.036z"
			/>
	</g>
	<g>
		<path fill="#3F3E3D" d="M362.265,294.659c0,0,3.294,22.504,0.866,40.99c-0.521,4.092-5.874,8.774-7.628,10.011
			c-1.756,1.235-10.6,8.646-12.355,16.45c-0.391,1.496,7.283,1.104,8.388,0.845c0,1.756-0.064,5.071,1.756,5.201
			c1.821,0.13,10.924,0.977,18.077-5.916c2.21-2.861-0.78-9.364-0.91-11.185c1.689,0.26,6.631-1.071,7.932-2.991
			c0.987-1.454,2.399-3.337,1.17-10.923c-1.129-6.977-3.641-27.18,3.775-42.118C377.702,292.632,362.265,294.659,362.265,294.659z"
			/>
		<path fill="#474746" d="M362.265,294.659c0,0,3.294,22.504,0.866,40.99c-0.521,4.092-5.874,8.774-7.628,10.011
			c-1.756,1.235,16.714,0.815,18.639-0.475c2.167-1.454,3.916-1.95,2.688-9.536c-1.129-6.977-6.896-23.319,0.521-38.258
			C371.716,294.998,362.265,294.659,362.265,294.659z"/>
		<path fill="#1B1919" d="M355.658,368.777c-1.021,0-1.802-0.057-2.269-0.092l-0.136-0.01c-2.093-0.149-2.231-3.086-2.239-5.116
			c-0.8,0.09-2.09,0.165-3.379,0.165c-4.098,0-4.627-0.687-4.826-0.944c-0.181-0.234-0.239-0.518-0.166-0.801
			c1.754-7.798,10.352-15.192,12.559-16.746c2.128-1.497,6.948-6.006,7.413-9.65c2.39-18.201-0.833-40.623-0.866-40.848
			l-0.077-0.521l0.523-0.068c0.062-0.01,6.211-0.81,12.111-0.81c4.238,0,7.344,0.406,9.229,1.208l0.51,0.216l-0.246,0.495
			c-7.145,14.393-4.985,34.029-3.727,41.804c1.235,7.636-0.168,9.702-1.193,11.21l-0.061,0.088
			c-1.339,1.975-5.684,3.199-7.741,3.252c0.1,0.432,0.261,0.984,0.438,1.591c0.814,2.808,2.047,7.05,0.263,9.359l-0.05,0.056
			C366.443,367.71,360.071,368.777,355.658,368.777z M352.055,362.299v0.833c-0.001,1.433-0.004,4.415,1.273,4.507l0.138,0.01
			c0.452,0.033,1.208,0.09,2.191,0.09c4.213,0,10.289-1.016,15.32-5.844c1.427-1.904,0.291-5.814-0.462-8.404
			c-0.301-1.037-0.539-1.858-0.578-2.396l-0.046-0.651l0.644,0.099c0.114,0.019,0.252,0.028,0.412,0.028
			c1.973,0,5.983-1.279,7.011-2.795l0.061-0.091c0.928-1.364,2.198-3.232,1.027-10.459c-1.261-7.781-3.406-27.31,3.571-41.918
			c-1.798-0.616-4.589-0.93-8.311-0.93c-4.842,0-9.859,0.546-11.456,0.734c0.471,3.51,2.999,23.822,0.794,40.604
			c-0.562,4.421-6.331,9.303-7.845,10.37c-2.002,1.409-10.438,8.688-12.134,16.086c0.153,0.113,0.91,0.511,3.969,0.511
			c1.727,0,3.366-0.136,3.781-0.232L352.055,362.299z"/>
	</g>
	<g>
		<g>
			<path fill="#1E1E1E" d="M329.319,336.101c-2.124,1.431-11.097,6.936-10.403,17.514c2.514,0.433,6.936,0,6.936,0
				s-0.26,3.165,1.82,3.382c2.244,0.231,10.793,0.822,17.253-3.642c3.902-2.602,3.122-10.058-1.213-13.351
				C336.927,335.126,332.614,335.256,329.319,336.101z"/>
			<path fill="#0F0F0F" d="M329.319,336.101c-2.124,1.431-11.097,6.936-10.403,17.514c2.514,0.433,6.936,0,6.936,0
				s-0.26,3.165,1.82,3.382c2.244,0.231,10.793,0.822,17.253-3.642c3.902-2.602,3.122-10.058-1.213-13.351
				C336.927,335.126,332.614,335.256,329.319,336.101z"/>
			<path fill="#1E1E1E" d="M327.743,347.205c0,1.562-0.687,4.415,1.048,5.455c4.162,1.561,9.544,0.086,12.145-4.074
				c1.561-3.123,3.969-6.665,0.951-9.804c-5.748-3.612-9.58-3.448-12.568-2.682c-2.11,1.422-10.98,6.869-10.411,17.315
				C322.415,351.85,325.098,350.291,327.743,347.205z"/>
			<path fill="#080808" d="M330.916,357.678h-0.001c-1.422-0.002-2.577-0.09-3.295-0.167c-1.753-0.182-2.256-2.011-2.298-3.327
				c-0.74,0.057-2.085,0.144-3.489,0.144c-1.223,0-2.233-0.067-3.004-0.2l-0.404-0.07l-0.027-0.408
				c-0.455-6.939,3.027-12.923,10.349-17.789l0.358-0.24l0.086-0.021c1.246-0.319,2.357-0.47,3.499-0.47
				c3.455,0,7.16,1.457,11.326,4.453c2.508,1.905,4.055,5.276,3.953,8.592c-0.077,2.452-1.08,4.498-2.754,5.614
				C340.564,357.001,334.871,357.678,330.916,357.678z M326.419,353.036l-0.048,0.619c-0.002,0.028-0.192,2.662,1.355,2.823
				c0.695,0.071,1.811,0.158,3.188,0.158h0.001c3.807,0,9.278-0.645,13.714-3.709c1.417-0.947,2.231-2.646,2.297-4.788
				c0.093-2.991-1.292-6.021-3.529-7.723c-3.973-2.856-7.479-4.248-10.708-4.248c-1.025,0-2.03,0.132-3.154,0.413l-0.212,0.143
				c-2.568,1.707-10.308,6.852-9.909,16.437c0.654,0.083,1.465,0.125,2.419,0.125c2.003,0,3.95-0.188,3.969-0.188L326.419,353.036z"
				/>
		</g>
	</g>
	<g>
		<g>
			<path fill="#0F0F0F" d="M355.439,345.705c-1.884,1.351-10.556,8.685-12.292,16.405c-0.391,1.496,7.283,1.104,8.388,0.845
				c0,1.756-0.064,5.071,1.756,5.201c1.821,0.13,10.924,0.977,18.077-5.916c1.352-1.752,0.757-4.866,0.062-7.438
				C365.334,347.245,359.313,345.71,355.439,345.705z"/>
			<path fill="#1E1E1E" d="M354.473,362.264c7.544,2.382,17.458-7.596,14.525-10.172c-5.232-5.225-10.202-6.384-13.559-6.387
				c-1.88,1.348-10.517,8.653-12.279,16.355c3.857-0.423,7.654-3.053,10.984-4.904C352.944,358.665,352.944,361.395,354.473,362.264
				z"/>
			<path fill="#080808" d="M355.658,368.777L355.658,368.777c-1.021,0-1.802-0.057-2.269-0.092l-0.136-0.01
				c-2.093-0.149-2.231-3.086-2.239-5.116c-0.8,0.09-2.09,0.165-3.379,0.165c-4.098,0-4.627-0.687-4.826-0.944
				c-0.181-0.234-0.239-0.518-0.166-0.801c1.986-8.829,12.387-16.623,12.492-16.697l0.137-0.097h0.168
				c4.064,0.003,10.208,1.62,16.394,9.291l0.069,0.087l0.028,0.104c0.717,2.654,1.349,5.947-0.152,7.891l-0.05,0.056
				C366.443,367.71,360.071,368.777,355.658,368.777z M352.055,362.299v0.833c-0.001,1.433-0.004,4.415,1.273,4.507l0.138,0.01
				c0.452,0.033,1.208,0.09,2.191,0.09c4.213,0,10.289-1.016,15.32-5.844c1.174-1.566,0.616-4.462-0.022-6.849
				c-5.82-7.175-11.526-8.771-15.349-8.819c-2.321,1.715-10.292,8.758-11.94,15.945c0.153,0.113,0.91,0.511,3.969,0.511
				c1.727,0,3.366-0.136,3.781-0.232L352.055,362.299z"/>
		</g>
	</g>
	<g>
		<path fill="#CCCACA" d="M529.827,191.361c0,0,15.671-3.446,16.126,9.429c5.006,0.455,8.844,5.005,6.566,12.743
			c2.537,2.991,9.979,9.933,0.673,18.704c3.273,5.551-1.235,16.819-12.158,16.819C530.11,249.057,529.827,191.361,529.827,191.361z"
			/>
		<path fill="#E0DEDE" d="M543.287,218.021c4.683,2.081,4.161,8.843,6.243,10.403c2.217,2.493,5.024,1.443,7.321-1.025
			c2.963-6.455-2.282-11.449-4.332-13.865c2.277-7.738-1.561-12.289-6.566-12.743c-0.455-12.875-16.126-9.429-16.126-9.429
			s0.019,3.695,0.223,9.212C539.105,201.812,548.365,207.864,543.287,218.021z"/>
		<path fill="#666565" d="M541.034,249.576c-4.842,0-8.281-9.861-10.218-29.314c-1.421-14.284-1.509-28.752-1.509-28.899
			l-0.003-0.42l0.411-0.09c0.08-0.019,1.99-0.43,4.518-0.43c4.36,0,11.67,1.299,12.218,9.9c2.403,0.334,4.422,1.55,5.721,3.462
			c1.174,1.727,2.274,4.79,0.926,9.622c0.134,0.153,0.278,0.316,0.43,0.489c2.896,3.284,8.892,10.083,0.313,18.442
			c1.485,2.882,1.171,6.933-0.841,10.458C550.537,247.104,546.177,249.576,541.034,249.576z M530.352,191.791
			c0.111,16.207,2.222,56.747,10.683,56.747c4.758,0,8.791-2.28,11.062-6.257c1.888-3.306,2.149-7.234,0.647-9.779l-0.21-0.357
			l0.303-0.284c8.271-7.797,2.833-13.963-0.091-17.276c-0.227-0.258-0.437-0.496-0.622-0.713l-0.181-0.215l0.08-0.269
			c1.354-4.601,0.36-7.444-0.712-9.018c-1.2-1.768-3.121-2.854-5.405-3.063l-0.456-0.04l-0.016-0.458
			c-0.273-7.726-6.242-9.346-11.2-9.346C532.491,191.462,531.031,191.673,530.352,191.791z"/>
	</g>
	<g>
		<path fill="#3F3E3D" d="M245.744,154.818c0,0-27.656,6.436-37.107-12.518c-7.369-15.572-1.43-18.433,2.125-19.213
			c2.924-0.642,7.716-0.563,14.175,4.812c6.874,5.721,18.076,10.404,27.31,9.104C257.447,139.993,245.744,154.818,245.744,154.818z"
			/>
		<path fill="#474746" d="M247.3,149.856c0,0-26.251,9.983-35.703-8.971c-7.369-15.572-4.39-17.019-0.836-17.799
			c2.924-0.642,7.716-0.563,14.175,4.812c6.874,5.721,18.076,10.404,27.31,9.104C257.447,139.993,247.3,149.856,247.3,149.856z"/>
		<path fill="#474746" d="M247.3,149.856c0,0-26.251,9.983-35.703-8.971c-7.369-15.572-4.39-17.019-0.836-17.799
			c2.924-0.642,7.716-0.563,14.175,4.812c6.874,5.721,18.076,10.404,27.31,9.104C257.447,139.993,247.3,149.856,247.3,149.856z"/>
		<path fill="#898888" d="M219.214,134.791c8.087,11.726,19.691,16.177,31.202,13.164c2.11-2.977,4.622-9.348,1.83-10.953
			c-9.233,1.3-20.436-3.383-27.31-9.104c-6.459-5.375-11.251-5.453-14.175-4.812c-2.78,0.61-8.063,6.113-3.165,9.276
			C211.69,130.973,217.197,131.765,219.214,134.791z"/>
		<path fill="#5E5E5E" d="M219.214,134.791c8.087,11.726,19.691,16.177,31.202,13.164c2.11-2.977,3.517-7.246,0.724-8.851
			c-9.233,1.3-19.07-3.144-25.944-8.864c-6.459-5.375-11.511-7.794-14.435-7.153c-2.78,0.61-8.063,6.113-3.165,9.276
			C211.69,130.973,217.197,131.765,219.214,134.791z"/>
		<path fill="#1B1919" d="M235.206,156.391c-9.181,0-21.322-2.403-27.034-13.858c-3.5-7.397-4.431-12.858-2.769-16.243
			c0.947-1.931,2.664-3.145,5.247-3.711c4.597-1.011,9.502,0.661,14.62,4.92c5.503,4.58,14.981,9.202,23.75,9.202
			c1.086,0,2.147-0.072,3.153-0.214l0.177-0.025l0.156,0.089c0.813,0.468,1.322,1.202,1.511,2.18
			c0.987,5.125-7.503,15.95-7.865,16.408l-0.113,0.145l-0.178,0.042C245.815,155.336,241.209,156.391,235.206,156.391z
			 M213.289,123.332c-0.82,0-1.609,0.086-2.416,0.263c-2.253,0.495-3.736,1.526-4.536,3.155c-1.515,3.085-0.583,8.243,2.77,15.329
			c5.47,10.967,17.212,13.271,26.099,13.271c5.228,0,9.355-0.81,10.243-1.001c1.01-1.308,8.388-11.059,7.547-15.421
			c-0.119-0.616-0.402-1.072-0.865-1.386c-0.999,0.132-2.043,0.198-3.11,0.198c-7.94,0-17.524-3.707-24.417-9.442
			C220.644,125.003,216.838,123.332,213.289,123.332z"/>
	</g>
	<g>
		<path fill="#6D6B6B" d="M210.762,131.8c0,0,4.452,17.686,19.848,14.565C228.968,139.863,215.053,132.06,210.762,131.8z"/>
		<path fill="#888888" d="M216.948,133.99c-2.558-1.288-4.843-2.108-6.186-2.189c0,0,3.131,12.427,13.21,14.606
			C219.868,143.343,216.422,139.479,216.948,133.99z"/>
		<path fill="#1B1919" d="M227.078,147.254L227.078,147.254c-12.813,0-16.782-15.173-16.82-15.327l-0.175-0.69l0.71,0.043
			c4.325,0.262,18.591,8.106,20.32,14.956l0.133,0.531l-0.535,0.108C229.47,147.126,228.247,147.254,227.078,147.254z
			 M211.493,132.427c0.968,2.985,5.192,13.786,15.584,13.788h0.001c0.923,0,1.885-0.086,2.866-0.254
			C227.873,140.096,216.107,133.38,211.493,132.427z"/>
	</g>
	<g>
		<path fill="#474746" d="M207.597,132.363c0,0,6.587-1.04,13.004,7.109c6.416,8.15,10.558,10.568,23.042,9.701
			c0,0-4.06-7.062-15.934-13.783C213.319,127.241,207.597,132.363,207.597,132.363z"/>
		<path fill="#5E5E5E" d="M207.597,132.363c0,0,8.978-2.865,15.395,5.285c6.417,8.148,8.168,12.393,20.652,11.526
			c0,0-3.974-8.613-15.846-15.336C213.406,125.688,207.597,132.363,207.597,132.363z"/>
		<path fill="#1B1919" d="M239.348,149.856c-9.489,0-13.492-2.869-19.155-10.062c-6.086-7.729-12.543-7.446-12.596-7.431
			c0,0,6.85-1.547,13.413,6.788c6.303,8.006,10.243,10.361,22.599,9.503l0.072,1.038C242.116,149.8,240.677,149.856,239.348,149.856
			z"/>
	</g>
	<g>
		<path fill="#3F3E3D" d="M478.784,289.806c0,0,5.377,8.843,3.468,34.157c-1.56,8.67-1.713,8.691-1.907,9.081
			c-2.146,1.756-11.444,9.365-12.549,17.817c-0.26,2.015,8.129,1.171,8.129,1.171c-0.262,1.69-1.236,3.836,3.315,4.031
			c4.551,0.194,17.815,0.911,15.865-14.761c4.423-0.324,8.647-2.341,5.007-13.914c-3.642-11.574-2.586-31.229-0.643-39.805
			C492.57,289.154,478.784,289.806,478.784,289.806z"/>
		<path fill="#474746" d="M486.588,299.688c-0.43-2.143-2.271,1.012-4.655,1.896c0.705,5.302,1.055,12.609,0.319,22.379
			c-1.113,6.195-1.511,7.974-1.716,8.627C491.236,326.52,490.66,309.869,486.588,299.688z"/>
		<path fill="#1B1919" d="M481.647,356.649c-0.886,0-1.673-0.034-2.304-0.062l-0.127-0.005c-1.861-0.08-3.011-0.473-3.615-1.24
			c-0.649-0.824-0.487-1.831-0.312-2.735c-0.687,0.053-1.804,0.119-2.984,0.119l0,0c-3.456,0-4.358-0.57-4.734-0.999
			c-0.235-0.266-0.336-0.589-0.29-0.934c0.513-3.938,3.128-10.267,12.65-18.081c0.151-0.304,0.403-1.029,1.804-8.814
			c1.868-24.842-3.343-33.735-3.395-33.823l-0.454-0.749l0.874-0.04c0.137-0.007,13.816-0.666,20.594-2.208l0.807-0.183
			l-0.185,0.805c-2.062,9.11-2.821,28.556,0.632,39.532c1.782,5.662,1.869,9.561,0.269,11.919c-1.299,1.915-3.479,2.441-5.194,2.622
			c0.496,4.729-0.371,8.394-2.584,10.896C490.733,355.348,486.988,356.649,481.647,356.649z M476.539,351.447l-0.1,0.664
			c-0.03,0.19-0.068,0.385-0.107,0.583c-0.151,0.783-0.296,1.521,0.087,2.005c0.392,0.495,1.348,0.781,2.844,0.845l0.126,0.005
			c0.623,0.027,1.396,0.06,2.259,0.06c5.025,0,8.517-1.186,10.672-3.627c2.09-2.365,2.853-5.936,2.27-10.613l-0.066-0.544
			l0.545-0.039c2.474-0.183,4.047-0.886,4.949-2.218c1.391-2.05,1.256-5.758-0.4-11.024c-3.54-11.249-2.748-29.946-0.824-39.279
			c-6.047,1.229-16.248,1.858-19.176,2.019c1.223,2.609,4.772,12.252,3.155,33.721l-0.007,0.053
			c-1.504,8.35-1.711,8.751-1.931,9.177l-0.05,0.099l-0.109,0.118c-9.326,7.629-11.871,13.717-12.362,17.48
			c-0.006,0.034-0.006,0.062,0.04,0.112c0.133,0.151,0.812,0.646,3.953,0.646l0,0c1.823,0,3.549-0.172,3.567-0.174L476.539,351.447z
			"/>
	</g>
	<g>
		<path fill="#474746" d="M510.906,299.298c0,0,3.25,26.572-2.991,38.71c-4.941,8.496-12.918,10.405-14.911,21.155
			c-0.434,1.906,7.53,0.151,7.53,0.151c-0.347,1.733-0.336,4.53,0.273,4.616c0.605,0.087,13.609,0.087,20.286-3.727
			c4.507-2.602-1.128-9.363,1.299-11.531c2.429-2.169,6.069-2.037,5.29-8.279c-0.781-6.243-1.431-23.019-0.911-26.14
			s1.018-14.956,1.018-14.956S514.938,295.007,510.906,299.298z"/>
		<path fill="#3F3E3D" d="M510.906,299.298c0,0,3.25,26.572-2.991,38.71c-4.941,8.496-12.918,10.405-14.911,21.155
			c-0.434,1.906,7.53,0.151,7.53,0.151c-0.347,1.733-0.336,4.53,0.273,4.616c0.605,0.087,13.609,0.087,20.286-3.727
			c4.507-2.602-1.128-9.363,1.299-11.531c2.429-2.169,6.069-2.037,5.29-8.279c-0.781-6.243-1.431-23.019-0.911-26.14
			s1.018-14.956,1.018-14.956S514.938,295.007,510.906,299.298z"/>
		<path fill="#474746" d="M524.21,298.322c0,0-9.271-3.315-13.304,0.976c0,0,3.25,26.572-2.991,38.71
			c-0.919,1.585-1.946,2.938-3.02,4.163c5.333-0.474,10.463,2.049,15.82,0.896c1.742-0.526,1.32-3.925,0.897-7.312
			c-0.781-6.242-0.52-19.939,0-23.061C522.133,309.571,524.21,298.322,524.21,298.322z"/>
		<path fill="#1B1919" d="M501.642,364.473c-0.27,0-0.748-0.004-0.909-0.027c-0.149-0.02-0.362-0.1-0.539-0.348
			c-0.485-0.687-0.481-2.64-0.292-4.123c-1.128,0.22-3.306,0.598-4.947,0.598c-1.201,0-1.922-0.202-2.269-0.638
			c-0.2-0.249-0.265-0.556-0.188-0.888c1.233-6.654,4.688-9.974,8.346-13.488c2.316-2.224,4.711-4.523,6.623-7.812
			c6.084-11.833,2.956-38.12,2.925-38.385l-0.03-0.242l0.168-0.177c1.289-1.375,3.492-2.07,6.547-2.07
			c5.029,0,10.644,1.854,10.878,1.934l0.373,0.124l-0.018,0.39c-0.02,0.485-0.505,11.903-1.024,15.021
			c-0.523,3.14,0.16,19.953,0.914,25.987c0.627,5.015-1.508,6.257-3.572,7.458c-0.646,0.377-1.315,0.768-1.887,1.275
			c-0.812,0.725-0.39,2.391,0.058,4.153c0.649,2.568,1.459,5.765-1.443,7.439C514.858,364.366,502.976,364.473,501.642,364.473z
			 M501.002,363.423c0.117,0.005,0.32,0.009,0.64,0.009c4.736,0,14.107-0.774,19.192-3.681c2.222-1.281,1.577-3.823,0.954-6.282
			c-0.526-2.077-1.024-4.038,0.259-5.185c0.648-0.581,1.365-0.995,2.057-1.397c1.934-1.127,3.604-2.099,3.063-6.43
			c-0.762-6.087-1.441-23.089-0.907-26.288c0.454-2.733,0.899-12.409,0.994-14.496c-1.339-0.411-6.043-1.762-10.179-1.762
			c-2.619,0-4.509,0.529-5.624,1.576c0.338,2.908,2.916,27.11-3.074,38.759c-1.999,3.438-4.445,5.79-6.812,8.063
			c-3.535,3.396-6.872,6.604-8.05,12.948c-0.015,0.028,0.182,0.273,1.439,0.273c2.156,0,5.436-0.719,5.469-0.725l0.779-0.173
			l-0.157,0.782C500.723,361.033,500.791,362.937,501.002,363.423z"/>
	</g>
	<g>
		<path fill="#E0DEDE" d="M324.198,211.359c0,0-16.42-0.841-10.331,18.688c-8.823,2.537-6.048,16.062,1.234,19.878
			c-3.468,8.323-1.821,14.563,3.772,17.339c1.431,7.63,3.164,11.098,9.406,12.137c0.693,8.323,4.335,11.704,10.707,10.535
			c3.511,5.071,10.795,10.463,28.221,0.224c5.721,5.107,6.762,7.188,19.766,4.066c1.82,3.903,3.642,7.804,14.825,6.243
			c6.502,5.982,11.444,6.242,18.466,4.682c7.024,4.682,9.884,2.861,13.526-1.041c4.68,3.641,11.964,4.941,17.685-0.779
			c6.243,2.859,14.566,2.34,19.509-3.643c5.98,2.342,11.443,1.041,15.345-4.421c6.762,0.779,13.524-4.941,15.085-13.004
			c14.825,0.26,43.955-57.693,31.991-81.256c4.16-12.637-6.416-17.492-16.819-16.624c-1.908-7.109-10.23-8.15-17.338-3.814
			c-6.417-6.936-14.047-7.412-20.463-2.581c-4.854-6.091-14.044-4.704-19.245,0.238c-6.764-4.942-14.739-0.346-16.646,2.515
			c-1.993-2.688-11.098-5.723-16.299,1.732c-4.162-4.854-12.7-3.988-15.821,1.346c-3.903-4.684-14.652-4.554-21.805-1.692
			c0.39-4.031-4.063-12.196-13.823-8.18c0.645-8.206-10.99-8.11-25.711-3.695C334.712,174.665,324.198,211.359,324.198,211.359z"/>
		<path fill="#CCCACA" d="M324.198,211.359c0,0-16.42-0.841-10.331,18.688c-8.823,2.537-6.048,16.062,1.234,19.878
			c-3.468,8.323-1.821,14.563,3.772,17.339c1.431,7.63,3.164,11.098,9.406,12.137c0.693,8.323,4.335,11.704,10.707,10.535
			c3.511,5.071,10.795,10.463,28.221,0.224c5.721,5.107,6.762,7.188,19.766,4.066c1.82,3.903,3.642,7.804,14.825,6.243
			c6.502,5.982,11.444,6.242,18.466,4.682c7.024,4.682,9.884,2.861,13.526-1.041c4.68,3.641,11.964,4.941,17.685-0.779
			c6.243,2.859,14.566,2.34,19.509-3.643c5.98,2.342,11.443,1.041,15.345-4.421c6.762,0.779,13.524-4.941,15.085-13.004
			c14.825,0.26,43.955-57.693,31.991-81.256c4.16-12.637-6.416-17.492-16.819-16.624c-1.908-7.109-10.23-8.15-17.338-3.814
			c-6.417-6.936-14.047-7.412-20.463-2.581c-4.854-6.091-14.044-4.704-19.245,0.238c-6.764-4.942-14.739-0.346-16.646,2.515
			c-1.993-2.688-11.098-5.723-16.299,1.732c-4.162-4.854-12.7-3.988-15.821,1.346c-3.903-4.684-14.652-4.554-21.805-1.692
			c0.39-4.031-4.063-12.196-13.823-8.18c0.645-8.206-10.99-8.11-25.711-3.695C334.712,174.665,324.198,211.359,324.198,211.359z"/>
		<path fill="#E0DEDE" d="M324.198,211.359c0,0-16.42-0.841-10.331,18.688c-8.823,2.537-2.271,15.716,5.011,19.529
			c-3.467,8.325-2.26,12.745,3.333,15.521c1.431,7.629,3.122,9.061,9.363,10.1c0.694,8.324,4.668,9.354,11.039,8.185
			c3.512,5.07,8.903,11.114,26.329,0.875c5.722,5.108,5.813,9.21,18.817,6.089c1.82,3.902,3.115,7.003,14.3,5.441
			c6.501,5.983,11.443,6.318,18.467,4.758c7.022,4.683,9.362,2.786,13.003-1.116c4.682,3.643,12.745,3.687,18.467-2.036
			c6.243,2.861,11.688,2.448,16.63-3.534c5.98,2.34,12.114,1.558,16.016-3.903c6.763,0.779,12.35-3.529,13.91-11.593
			c14.826,0.26,46.817-53.792,34.854-77.355c4.16-12.637-6.416-17.492-16.819-16.624c-1.908-7.109-10.23-8.15-17.338-3.814
			c-6.417-6.936-14.047-7.412-20.463-2.581c-4.854-6.091-14.044-4.704-19.245,0.238c-6.764-4.942-14.739-0.346-16.646,2.515
			c-1.993-2.688-11.098-5.723-16.299,1.732c-4.162-4.854-12.7-3.988-15.821,1.346c-3.903-4.684-14.652-4.554-21.805-1.692
			c0.39-4.031-4.063-12.196-13.823-8.18c0.645-8.206-10.99-8.11-25.711-3.695C334.712,174.665,324.198,211.359,324.198,211.359z"/>
		<g>
			<path fill="#FFFFFF" d="M516.585,184.382c-1.908-7.109-10.23-8.15-17.338-3.814c-6.417-6.936-14.047-7.412-20.463-2.581
				c-4.854-6.091-14.044-4.704-19.245,0.238c-6.764-4.942-14.739-0.346-16.646,2.515c-1.993-2.688-11.098-5.723-16.299,1.732
				c-4.162-4.854-12.7-3.988-15.821,1.346c-3.903-4.684-14.652-4.554-21.805-1.692c0.39-4.031-4.063-12.196-13.823-8.18
				c0.221-2.8-0.992-4.633-3.27-5.658c-4.087,3.655-10.895,3.922-13.252,8.639c-2.601,4.161-3.641,11.962-10.404,9.362
				c0.679,9.503-3.928,9.868-11.517,10.409c-3.178-0.198-10.851,2.854-4.796,8.296c2.649,3.125,6.377,5.433,11.575,5.069
				c-2.58,4.616,3.047,8.217,3.047,8.217c-5.981,3.251-10.663,7.132-7.153,12.021c-7.282,2.153-9.882,7.141-4.42,9.004
				c-1.691,4.985-1.431,17.989,11.573,14.088c-1.561,6.763-0.91,15.865,10.404,11.574c-0.91,6.373,3.121,11.704,11.314,7.542
				c0.911,4.941,14.956,3.641,14.956-8.713c3.9,2.732,17.166-1.82,12.744-12.873c4.985,3.944,6.632,11.053,0.297,18.248
				c5.815,4.509,9.457,4.639,10.888,1.518c4.031,2.21,9.492,1.431,13.524-3.121c3.121,3.772,7.672,8.995,14.823,1.506
				c7.024,4.087,15.087,3.046,18.857-5.147c5.463,3.771,12.969-0.858,14.287-8.688c6.521,2.576,10.161,0.117,10.812-3.334
				c4.16,4.609,8.193,1.111,8.583,0c4.03,4.349,12.613,6.689,15.475-3.454c6.113,0,14.826-1.82,13.958-12.918
				c7.11-1.213,14.393-11.616,7.803-21.674c6.59-4.509,9.711-8.709,8.15-12.852C537.564,188.369,526.988,183.515,516.585,184.382z"
				/>
		</g>
		<path fill="#666565" d="M427.276,308.456c-1.998,0-4.263-0.875-7.116-2.751c-2.455,0.538-4.346,0.776-6.105,0.776
			c-4.484,0-8.212-1.636-12.427-5.464c-1.605,0.215-3.08,0.324-4.387,0.324c-7.238,0-9.026-3.246-10.561-6.512
			c-4.053,0.959-6.871,1.386-9.097,1.386c-4.473,0-6.394-1.742-9.579-4.633c-0.276-0.252-0.563-0.512-0.864-0.783
			c-6.506,3.778-12.179,5.69-16.865,5.69c-4.86,0-8.634-1.96-11.525-5.986c-6.491,1.052-10.172-2.565-10.955-10.659
			c-6.171-1.169-7.992-4.92-9.387-12.232c-5.684-2.973-7.154-9.454-3.964-17.457c-4.218-2.471-7.074-8.227-6.553-13.346
			c0.358-3.521,2.243-6.024,5.327-7.101c-1.877-6.307-1.601-11.171,0.823-14.467c2.949-4.005,8.1-4.392,9.768-4.406
			c1.223-4.143,11.292-36.832,25.475-41.084c6.554-1.964,12.294-3.003,16.602-3.003c3.971,0,6.782,0.862,8.354,2.562
			c0.938,1.016,1.424,2.315,1.451,3.872c1.541-0.556,3.023-0.837,4.418-0.837c3.383,0,5.568,1.624,6.804,2.986
			c1.737,1.915,2.519,4.267,2.592,6.035c3.117-1.129,6.821-1.771,10.29-1.771c4.873,0,8.708,1.194,10.903,3.376
			c1.822-2.613,5.045-4.21,8.583-4.21c2.825,0,5.437,1.051,7.268,2.898c2.777-3.612,6.291-4.39,8.803-4.39
			c3.244,0,6.118,1.29,7.511,2.654c1.655-1.942,5.584-4.399,10.064-4.399c2.376,0,4.585,0.685,6.569,2.036
			c2.887-2.594,6.807-4.131,10.571-4.131c3.528,0,6.636,1.364,8.805,3.854c2.763-1.97,5.785-3.009,8.77-3.009
			c4.132,0,8.169,1.944,11.698,5.636c2.709-1.577,5.676-2.439,8.393-2.439c4.562,0,7.983,2.369,9.234,6.362
			c0.652-0.043,1.307-0.067,1.95-0.067c6.291,0,11.389,2.059,13.985,5.647c2.188,3.024,2.545,6.91,1.064,11.554
			c7.499,15.168-1.301,44.281-13.448,64.074c-6.776,11.042-13.559,17.472-18.679,17.735c-1.628,7.487-7.696,13.085-14.271,13.085
			c-0.33,0-0.664-0.017-0.994-0.045c-2.667,3.604-6.165,5.506-10.136,5.506c-1.693,0-3.473-0.341-5.296-1.015
			c-2.93,3.375-7.166,5.228-11.971,5.228c-2.588,0-5.201-0.546-7.586-1.584c-2.604,2.49-5.737,3.805-9.084,3.805
			c-2.997,0-6.052-1.044-8.653-2.948C432.048,306.701,430.036,308.456,427.276,308.456z M420.368,304.595l0.184,0.123
			c2.763,1.84,4.899,2.697,6.725,2.697c2.271,0,3.97-1.342,6.134-3.66l0.324-0.347l0.375,0.292c2.499,1.943,5.478,3.013,8.392,3.013
			c3.175,0,6.152-1.297,8.606-3.751l0.256-0.256l0.328,0.151c2.335,1.07,4.921,1.635,7.479,1.635c4.621,0,8.675-1.824,11.411-5.135
			l0.238-0.291l0.352,0.138c1.824,0.714,3.597,1.075,5.266,1.075c3.763,0,6.948-1.788,9.467-5.315l0.178-0.249l0.305,0.037
			c0.39,0.043,0.788,0.066,1.181,0.066c6.207,0,11.939-5.44,13.335-12.655l0.083-0.428l0.526,0.008
			c4.717,0,11.49-6.447,18.118-17.247c12.053-19.636,20.812-48.479,13.311-63.253l-0.098-0.193l0.067-0.206
			c1.448-4.398,1.162-8.04-0.852-10.823c-2.398-3.314-7.189-5.216-13.143-5.216c-0.757,0-1.524,0.033-2.287,0.096l-0.434,0.036
			l-0.112-0.42c-1.024-3.817-4.068-6.006-8.352-6.006c-2.652,0-5.57,0.89-8.215,2.503l-0.364,0.22l-0.288-0.311
			c-3.396-3.671-7.275-5.611-11.224-5.611c-2.942,0-5.818,1.041-8.542,3.094l-0.404,0.305l-0.316-0.397
			c-2.533-3.179-5.917-3.845-8.312-3.845c-3.643,0-7.444,1.546-10.171,4.136l-0.313,0.299l-0.35-0.256
			c-1.894-1.384-4.016-2.084-6.307-2.084c-4.32,0-8.353,2.595-9.6,4.467l-0.41,0.614l-0.442-0.592
			c-0.999-1.349-3.937-2.742-7.123-2.742c-2.38,0-5.757,0.774-8.33,4.464l-0.384,0.55l-0.438-0.511
			c-1.641-1.913-4.164-3.011-6.919-3.011c-3.427,0-6.515,1.64-8.06,4.28l-0.375,0.64l-0.475-0.57
			c-1.862-2.235-5.718-3.518-10.577-3.518c-3.617,0-7.494,0.721-10.635,1.977l-0.793,0.318l0.083-0.852
			c0.147-1.527-0.511-4.07-2.307-6.048c-1.096-1.205-3.032-2.643-6.034-2.643c-1.48,0-3.084,0.352-4.765,1.044l-0.783,0.321
			l0.065-0.844c0.127-1.616-0.261-2.926-1.151-3.89c-1.367-1.479-3.921-2.229-7.589-2.229c-4.208,0-9.845,1.023-16.303,2.96
			c-14.284,4.282-24.78,40.39-24.885,40.754l-0.113,0.397l-0.414-0.021c-0.006,0-0.1-0.003-0.264-0.003
			c-1.018,0-6.238,0.191-9.027,3.984c-2.28,3.1-2.454,7.821-0.517,14.034l0.159,0.507l-0.512,0.148
			c-2.947,0.848-4.752,3.107-5.083,6.365c-0.49,4.811,2.389,10.44,6.416,12.551l0.422,0.22l-0.183,0.44
			c-3.276,7.859-1.992,13.938,3.521,16.673l0.233,0.115l0.047,0.255c1.396,7.442,2.953,10.715,8.981,11.721l0.399,0.066l0.034,0.402
			c0.66,7.928,3.952,11.194,10.095,10.065l0.329-0.061l0.191,0.277c2.708,3.91,6.26,5.812,10.862,5.812
			c4.577,0,10.185-1.931,16.667-5.739l0.327-0.193l0.283,0.253c0.405,0.362,0.788,0.709,1.153,1.041
			c3.1,2.813,4.807,4.364,8.878,4.364c2.217,0,5.074-0.448,9.268-1.456l0.412-0.1l0.182,0.385c1.509,3.237,2.937,6.295,9.796,6.295
			c1.325,0,2.833-0.116,4.486-0.348l0.241-0.033l0.182,0.166c4.08,3.754,7.64,5.355,11.904,5.355c1.73,0,3.611-0.246,6.098-0.799
			L420.368,304.595z"/>
	</g>
	<g>
		<path fill="#CCCACA" d="M332.427,224.928c0,0-5.643,6.144-13.911,2.132c-2.895,4.139-12.257,5.871-15.552-4.532
			c-6.416,2.256-16.819-2.08-16.819-12.137c0-10.055,37.106-13.176,48.03-3.641L332.427,224.928z"/>
		<path fill="#E0DEDE" d="M299.323,212.817c-1.217-0.26-2.349-1.146-0.521,2.601c1.561,2.083,4.682,3.123,7.283,1.561
			c-0.521,2.601-1.041,5.202,0,7.282c3.642,4.682,7.803,0,8.322-4.16c2.081,3.641,7.803,6.24,10.925,4.16
			c4.161-2.08,2.601-7.282,0.52-11.444c-3.358-6.235-10.696-4.513-15.897-7.877C309.264,210.083,305.646,214.004,299.323,212.817z"
			/>
		<path fill="#666565" d="M311.822,230.82c-0.446,0-0.891-0.033-1.333-0.102c-2.091-0.321-5.839-1.73-7.856-7.539
			c-3.612,1.055-8.202,0.193-11.601-2.215c-3.487-2.471-5.407-6.225-5.407-10.572c0-2.476,2.005-4.695,5.797-6.418
			c11.346-5.155,34.729-4.92,43.095,2.383l-0.684,0.783c-7.958-6.948-31.135-7.148-41.981-2.219
			c-2.366,1.075-5.188,2.897-5.188,5.471c0,4,1.765,7.455,4.967,9.725c3.297,2.334,7.782,3.105,11.16,1.92l0.506-0.178l0.162,0.514
			c1.335,4.214,3.888,6.812,7.186,7.318c3.201,0.489,6.167-1.104,7.444-2.928l0.255-0.363l0.399,0.191
			c7.854,3.812,13.626-1.609,13.684-1.664c0,0-5.448,6.543-13.749,2.783C317.132,229.642,314.489,230.82,311.822,230.82z"/>
	</g>
	<g>
		<path fill="#3F3E3D" d="M314.754,204.149c0,0,0,5.2-29.13,8.668c-11.097,1.041-12.18,8.371-17.122,15.436
			c-4.942,6.933-20.157,4.982-26.53,2.902c-6.373-2.082-6.892-8.454-4.551-14.176c2.34-5.721,4.854-14.566,1.561-23.582
			c-3.295-9.016,7.109-37.714,5.892-48.623c-0.777-8.164,3.297-8.424,5.205-9.637c1.907-1.214,3.814-5.202,4.681-7.629
			c0.867-2.427,41.612-11.425,53.926,0C324.198,141.899,317.355,194.612,314.754,204.149z"/>
		<path fill="#474746" d="M315.389,201.365c-0.428,2.144-4.099,0.789-6.183,1.449c-3.572,1.132-6.589,5.244-23.446,6.503
			c-11.098,1.039-15.333,8.826-20.274,15.89c-4.941,6.934-17.141,8.028-23.513,5.948c-6.373-2.082-6.892-8.454-4.551-14.176
			c2.34-5.721,4.854-14.566,1.561-23.582c-3.295-9.016,7.109-37.714,5.892-48.623c-0.777-8.164,3.297-8.424,5.205-9.637
			c1.907-1.214,3.814-5.202,4.681-7.629c0.867-2.427,41.612-11.425,53.926,0C323.053,140.839,318.243,187.042,315.389,201.365z"/>
		<path fill="#5E5E5E" d="M308.686,127.509c-12.314-11.425-53.059-2.427-53.926,0c-0.867,2.427-2.774,6.415-4.681,7.629
			c-1.908,1.213-5.982,1.473-5.205,9.637c1.217,10.909-9.188,39.607-5.892,48.623c1.114,3.051,1.562,6.082,1.579,8.981
			c3.104,0.807,6.364,0.848,9.345,0.034c8.324-2.079,20.091-17.028,24.773-4.542c-2.699-0.294-4.387,3.893-4.387,4.413
			c-3.871,10.266-2.57,11.185-7.122,18.958c6.618-4.263,5.661-7.765,11.903-11.925c6.242-4.684,17.741-1.301,23.462-6.503
			c4.162-3.641,0.788-14.445,8.59-14.445c-3.121-1.039-5.722-3.641-7.283-6.762c-2.08-6.243,4.162-11.964,10.405-10.923
			c-1.562-4.162-5.723-9.364-3.122-11.965c3.416-2.959,7.13-5.521,10.444-8.381C316.308,140.593,313.634,132.1,308.686,127.509z"/>
		<path fill="#898888" d="M250.962,137.664c3.179-1.816,7.206-8.265,3.796-10.15c-0.867,2.427-2.773,6.411-4.679,7.625
			c-1.908,1.213-5.982,1.473-5.205,9.637c0.017,0.159,0.024,0.336,0.038,0.501C246.974,141.638,247.31,140.099,250.962,137.664z"/>
		<path fill="#1B1919" d="M254.923,233.612c-5.238,0-10.336-1.057-13.113-1.962c-2.54-0.83-4.333-2.342-5.329-4.496
			c-1.296-2.801-1.133-6.481,0.458-10.371c3.517-8.596,4.039-16.405,1.554-23.207c-1.858-5.084,0.479-16.068,2.741-26.69
			c1.884-8.849,3.663-17.208,3.123-22.053c-0.687-7.213,2.394-8.658,4.432-9.614c0.375-0.176,0.73-0.342,1.011-0.521
			c1.747-1.111,3.631-5.014,4.471-7.365c0.746-2.088,18.228-6.007,32.504-6.007c10.626,0,18.117,1.953,22.265,5.801
			c15.805,14.664,8.875,67.324,6.229,77.11c-0.104,0.897-1.96,5.808-29.583,9.097c-8.314,0.779-10.853,5.23-13.792,10.388
			c-0.899,1.572-1.826,3.199-2.965,4.827C265.945,232.736,259.666,233.612,254.923,233.612z M286.774,122.367
			c-14.983,0-30.654,4.079-31.54,5.351c-0.804,2.263-2.759,6.512-4.877,7.859c-0.337,0.215-0.72,0.395-1.126,0.585
			c-1.985,0.93-4.456,2.089-3.84,8.564c0.559,5.003-1.237,13.442-3.139,22.376c-2.231,10.477-4.537,21.313-2.782,26.117
			c2.578,7.054,2.05,15.114-1.568,23.956c-1.459,3.567-1.633,7.043-0.477,9.541c0.871,1.88,2.455,3.207,4.709,3.943
			c2.703,0.882,7.675,1.913,12.79,1.913c4.498,0,10.432-0.801,13.155-4.623c1.108-1.585,2.025-3.19,2.911-4.744
			c3.083-5.407,5.747-10.077,14.586-10.905c27.636-3.291,28.653-8.141,28.66-8.188l0.016-0.101
			c1.256-4.604,3.643-19.998,3.74-36.366c0.083-13.971-1.525-32.209-9.66-39.757C304.438,124.277,296.984,122.367,286.774,122.367z"
			/>
	</g>
	<g>
		<path fill="#360000" d="M244.877,205.016c0,0,2.774,6.762-1.561,13.697c-3.989,6.07,2.08,9.191,7.108,8.15
			c5.029-1.041,11.271-3.816,14.479-15.432c3.208-11.618,8.45-16.189,8.45-16.189S275.567,182.3,244.877,205.016z"/>
		<path fill="#4F0000" d="M273.354,195.242c0,0,2.214-12.942-28.476,9.773c0,0,2.774,6.762-1.561,13.697
			c-3.166,4.817,0.005,7.775,3.962,8.271c0.513-0.537,0.886-1.141,1.066-1.682c3.121-5.723,0.52-13.005,5.202-17.686
			c1.04-0.521,2.08,0,2.601,1.039c2.347-5.164,7.236-8.631,12.373-6.582C271.023,197.277,273.354,195.242,273.354,195.242z"/>
		<path fill="#6C0000" d="M244.703,220.102c1.815-5.446,6.795-12.474,3.203-17.288c-0.973,0.693-1.98,1.426-3.028,2.202
			c0,0,2.774,6.762-1.561,13.697c-2.322,3.533-1.233,6.062,1.071,7.359C244.036,224.166,244.105,222.135,244.703,220.102z"/>
		<g>
			<g>
				<path fill="#FF9C97" d="M256.668,213.468c-4.881-2.376-9.157,0.063-12.282,3.233c-0.296,0.666-0.648,1.338-1.069,2.012
					c-3.989,6.07,2.08,9.191,7.108,8.15c4.998-1.034,11.193-3.783,14.418-15.223C262.424,210.97,258.991,211.479,256.668,213.468z"
					/>
				<path fill="#FFB2AE" d="M251.986,224.262c4.162-1.561,9.363-5.721,7.283-9.363c-0.521-1.041-3.122,0-4.682,1.56
					c0-1.675-1.083-3.346-2.547-3.909c-2.957,0.246-5.563,2.032-7.653,4.151c-0.296,0.666-0.648,1.338-1.069,2.012
					c-1.489,2.265-1.576,4.117-0.84,5.5C245.574,225.416,248.893,225.638,251.986,224.262z"/>
				<path fill="#FF6860" d="M248.477,227.581L248.477,227.581c-2.945-0.001-5.416-1.189-6.449-3.104
					c-0.642-1.189-1.015-3.205,0.854-6.049c0.384-0.613,0.733-1.27,1.03-1.938l0.039-0.086l0.067-0.068
					c4.09-4.15,8.412-5.352,12.575-3.477c1.633-1.287,3.826-2.019,6.074-2.019c0.823,0,1.602,0.101,2.316,0.299l0.503,0.137
					l-0.142,0.505c-3.361,11.923-10.064,14.608-14.813,15.592C249.863,227.511,249.171,227.581,248.477,227.581z M244.823,216.999
					c-0.309,0.683-0.667,1.352-1.066,1.99c-1.262,1.922-1.542,3.645-0.814,4.993c0.838,1.555,3.01,2.558,5.534,2.558l0,0
					c0.625,0,1.244-0.062,1.843-0.187c4.787-0.99,10.663-3.523,13.872-14.334c-0.481-0.092-0.993-0.139-1.526-0.139
					c-2.126,0-4.188,0.724-5.659,1.983l-0.26,0.222l-0.307-0.15C252.611,212.07,248.671,213.127,244.823,216.999z"/>
			</g>
		</g>
		<path fill="#1B1919" d="M248.477,227.581L248.477,227.581c-2.945-0.001-5.416-1.189-6.449-3.104
			c-0.642-1.189-1.015-3.205,0.854-6.049c4.127-6.605,1.541-13.149,1.514-13.215l-0.152-0.374l0.325-0.242
			c12.144-8.989,20.678-13.546,25.364-13.546c1.413,0,2.478,0.415,3.167,1.23c1.06,1.256,0.78,2.975,0.768,3.049l-0.031,0.18
			l-0.14,0.123c-0.051,0.045-5.17,4.633-8.29,15.935c-3.341,12.099-10.089,14.812-14.875,15.805
			C249.863,227.511,249.171,227.581,248.477,227.581z M245.499,205.203c0.531,1.566,2.145,7.571-1.741,13.786
			c-1.262,1.922-1.542,3.645-0.814,4.993c0.838,1.555,3.01,2.558,5.534,2.558l0,0c0.625,0,1.244-0.062,1.843-0.185
			c4.9-1.016,10.929-3.645,14.083-15.063c2.944-10.667,7.542-15.436,8.454-16.301c0.029-0.382,0.033-1.35-0.558-2.046
			c-0.482-0.566-1.278-0.855-2.367-0.855C266.889,192.09,260.182,194.374,245.499,205.203z"/>
	</g>
	<g>
		<path fill="#474746" d="M215.443,184.729c0,0-4.292,5.853-3.121,13.915c1.17,7.152,7.413,7.542,9.623,7.542
			c4.031,2.212,32.503,6.17,47.935-13.77c0,0-17.752-7.764-24.279-8.9C237.772,182.152,215.443,184.729,215.443,184.729z"/>
		<path fill="#5E5E5E" d="M215.443,184.729c0,0-3.468,4.334-2.296,12.399c1.17,7.152,5.189,6.068,7.4,6.068
			c4.031,2.21,36.381,4.862,49.333-10.781c0,0-15.571-13.808-22.099-14.944C239.953,176.108,215.443,184.729,215.443,184.729z"/>
		<path fill="#474746" d="M228.773,179.805c-1.667,0.926-3.891,2.964-9.032,2.964c-2.845,0-5.218-3.861-6.772-7.316
			c-0.873,3.177-1.08,6.696-0.312,10.559c2.038,10.466,6.298,12.597,15.005,8.893c8.352-3.554,9.71-5.371,11.852-8.88
			C239.02,174.304,230.349,178.93,228.773,179.805z"/>
		<path fill="#1B1919" d="M234.56,208.577c-6.28,0-11.109-1.054-12.742-1.871c-5.62-0.043-9.173-2.872-10.008-7.978
			c-1.189-8.189,3.034-14.061,3.214-14.306l0.84,0.613c-0.042,0.058-4.151,5.788-3.026,13.534c0.959,5.864,5.482,7.096,9.108,7.096
			h0.134l0.117,0.065c3.674,2.014,31.975,6.135,47.272-13.633l0.823,0.637c-8.323,10.755-20.14,14.304-28.588,15.388
			C239.192,208.445,236.785,208.577,234.56,208.577z"/>
	</g>
	<g>
		<path fill="#5E5E5E" d="M265.055,191.029c0,0,6.589,0.426,9.624,6.842c0,0,1.479-5.359-1.29-7.16
			C270.292,188.695,265.055,191.029,265.055,191.029z"/>
		<path fill="#1B1919" d="M274.75,198.302c-2.883-6.096-9.856-7.24-9.926-7.251c0,0,3.544-0.473,6.594,1.725
			C274.419,194.969,274.75,198.302,274.75,198.302z"/>
	</g>
	<g>
		<path fill="#1B1919" d="M221.518,206.48c-5.059-7.321-1.742-14.156-1.599-14.441l0.932,0.464
			c-0.032,0.065-3.176,6.587,1.523,13.387L221.518,206.48z"/>
	</g>
	<g>
		<path fill="#474746" d="M248.302,145.62c0,0-11.401,8.072-19.551,12.319c-8.148,4.247-18.899,13.438-16.125,27.396
			c1.907,9.797,5.896,11.792,14.045,8.323c8.15-3.468,10.516-6.23,12.571-9.708L248.302,145.62z"/>
		<path fill="#898888" d="M228.751,157.939c-5.624,2.932-12.485,8.218-15.287,15.801c3.669,12.284,14.249-2.259,21.16-0.194
			c3.626,1.081,13.677-27.926,13.677-27.926S236.901,153.692,228.751,157.939z"/>
		<path fill="#5E5E5E" d="M229.348,159.933c-5.624,2.932-11.435,7.894-15.884,13.808c3.669,12.284,15.24-0.35,22.151,1.712
			c3.626,1.083,3.898,4.593,3.626,8.496c0,0,5.223-13.905,6.36-18.713c1.139-4.817,2.7-19.616,2.7-19.616
			S237.498,155.684,229.348,159.933z"/>
		<path fill="#1B1919" d="M220.422,195.759c-1.214,0-2.273-0.249-3.207-0.745c-2.462-1.308-4.083-4.352-5.101-9.581
			c-3.244-16.319,11.729-25.524,16.396-27.957c8.033-4.186,20.121-12.117,20.242-12.197c0,0-11.682,8.909-19.761,13.12
			c-4.504,2.348-18.959,11.221-15.855,26.833c0.954,4.898,2.404,7.715,4.567,8.862c2.006,1.064,4.791,0.774,8.763-0.917
			c8.314-3.538,10.428-6.279,12.327-9.496l0.7,0.413c0,0,0.062,0.343-0.006,0.455c-1.894,3.138-4.322,6.057-12.613,9.584
			C224.325,195.222,222.206,195.759,220.422,195.759z"/>
	</g>
	<g>
		<g>
			<path fill="#0E0E0E" d="M227.71,179.527c-1.561,0.868-3.641,2.773-8.455,2.773c-2.662,0-4.883-3.614-6.338-6.847
				c-0.816,2.974-1.011,6.266-0.292,9.882c1.907,9.797,5.896,11.792,14.045,8.323c7.817-3.325,10.312-6.002,12.317-9.286
				C238.525,173.401,229.187,178.707,227.71,179.527z"/>
			<path fill="#737373" d="M227.645,179.565c-1.553,0.884-3.642,2.735-8.389,2.735c-2.662,0-4.883-3.614-6.338-6.847
				c-0.816,2.974-1.011,6.266-0.292,9.882c0.81,4.161,1.491,6.474,2.652,7.56C222.396,191.299,230.002,187.114,227.645,179.565z"/>
			<path fill="#737373" d="M227.71,179.527"/>
			<path fill="#151515" d="M227.71,179.527c-1.561,0.868-2.947,3.589-8.658,3.988c-2.656,0.186-4.129-2.427-5.588-4.789
				c-0.816,2.972-0.3,4.035,0.419,7.65c1.907,9.797,1.834,8.333,10.279,5.664c4.198-1.33,5.251-2.064,10.788-7.298
				C239.349,177.293,229.187,178.707,227.71,179.527z"/>
			<path d="M220.432,195.762L220.432,195.762c-4.361,0-6.926-3.185-8.317-10.328c-0.69-3.471-0.589-6.876,0.301-10.118l0.382-1.395
				l0.594,1.319c1.899,4.216,3.981,6.541,5.864,6.541c3.874,0,5.887-1.271,7.358-2.198c0.302-0.189,0.581-0.364,0.844-0.511
				c2.479-1.38,4.624-2.065,6.419-2.065c2.427,0,5.374,1.273,5.63,7.343l0.006,0.157l-0.083,0.135
				c-2.167,3.551-4.916,6.243-12.556,9.494C224.305,195.229,222.197,195.762,220.432,195.762z M213.085,177.012
				c-0.524,2.654-0.507,5.412,0.051,8.222c1.294,6.65,3.476,9.486,7.295,9.486c1.623,0,3.597-0.503,6.035-1.541
				c7.285-3.1,9.948-5.64,11.994-8.945c-0.209-4.106-1.751-6.188-4.583-6.188c-1.616,0-6.424,2.239-6.709,2.417
				c-1.488,0.94-3.738,2.358-7.913,2.358C217.11,182.822,215.037,180.868,213.085,177.012z"/>
		</g>
	</g>
	<g>
		<ellipse cx="280.902" cy="165.598" rx="11.525" ry="17.917"/>
		<ellipse fill="#D8D6D6" cx="280.531" cy="166.176" rx="11.154" ry="17.339"/>
		<path fill="#FFFFFF" d="M291.668,165.257c-0.307-9.149-5.175-16.422-11.137-16.422c-6.16,0-11.154,7.764-11.154,17.341
			c0,2.362,0.305,4.612,0.855,6.663C277.947,172.844,286.263,170.944,291.668,165.257z"/>
		<path d="M280.531,184.036c-6.437,0-11.674-8.012-11.674-17.86c0-9.85,5.237-17.86,11.674-17.86c6.436,0,11.674,8.011,11.674,17.86
			C292.205,176.023,286.967,184.036,280.531,184.036z M280.531,149.356c-5.863,0-10.634,7.543-10.634,16.819
			c0,9.274,4.771,16.819,10.634,16.819s10.633-7.545,10.633-16.819C291.164,156.9,286.395,149.356,280.531,149.356z"/>
	</g>
	<g>
		<ellipse fill="#0079F0" cx="282.43" cy="167.827" rx="5.101" ry="7.025"/>
		<path fill="#00A4F0" d="M287.441,166.524c-0.444-3.258-2.517-5.723-5.01-5.723c-2.817,0-5.102,3.145-5.102,7.026
			c0,1.4,0.3,2.703,0.814,3.798C281.974,171.197,285.374,169.349,287.441,166.524z"/>
		<path fill="#003D78" d="M282.431,175.372c-3.101,0-5.622-3.384-5.622-7.545s2.521-7.545,5.622-7.545
			c3.1,0,5.621,3.385,5.621,7.545S285.531,175.372,282.431,175.372z M282.431,161.32c-2.526,0-4.581,2.919-4.581,6.506
			s2.055,6.506,4.581,6.506c2.526,0,4.581-2.919,4.581-6.506S284.957,161.32,282.431,161.32z"/>
	</g>
	<g>
		<path fill="#171717" d="M290.826,145.714c0,0-10.294-8.668-20.763-4.312C270.366,136.872,278.082,128.636,290.826,145.714z"/>
		<path d="M293.926,149.001l-3.435-2.888c-0.064-0.054-6.533-5.416-14.227-5.416c-2.095,0-4.115,0.398-6.002,1.185l-0.775,0.321
			l0.056-0.837c0.182-2.723,2.781-6.495,7.186-6.495c3.036,0,8.018,1.828,14.513,10.533L293.926,149.001z M276.265,139.657
			c4.907,0,9.246,2.001,11.958,3.625c-5.145-6.015-9.034-7.371-11.494-7.371c-3.328,0-5.45,2.5-6.009,4.681
			C272.485,139.971,274.346,139.657,276.265,139.657z"/>
	</g>
	<g>
		<path fill="#FF6860" d="M253.519,219.684c0,0,0.732-5.279,3.899-7.397l0.578,0.862
			C255.118,215.076,253.534,219.637,253.519,219.684z"/>
	</g>
	<g>
		<path fill="#CCCACA" d="M393.735,237.603c0,0,9.623,2.915,2.211,13.32c5.071,3.771,6.199,11.658,0.297,18.248
			c1.913,6.416,2.435,14.393-7.97,17.514c1.214,8.322-6.068,18.033-14.738,11.964c-6.762,3.121-14.392-0.347-14.565-8.843
			c-5.027-0.175-10.577-2.082-10.577-11.271c-6.417,0-12.658-8.149-10.924-12.31L393.735,237.603z"/>
		<path fill="#E0DEDE" d="M393.735,237.603c0,0,9.623,2.915,2.211,13.32c5.071,3.771,6.199,11.658,0.297,18.248
			c1.913,6.416-1.793,11.963-12.196,15.085c1.213,8.323-1.07,16.189-9.739,10.121c-6.762,3.122-13.171,1.015-13.344-7.481
			c-5.028-0.175-12.571,0.828-12.571-8.361c-6.417,0-12.658-8.149-10.924-12.31L393.735,237.603z"/>
		<path fill="#666565" d="M378.95,301.063c-1.799,0-3.655-0.609-5.468-1.821c-3.571,1.554-7.433,1.387-10.384-0.458
			c-2.797-1.749-4.43-4.749-4.631-8.482c-6.869-0.398-10.43-4.186-10.589-11.264c-4.091-0.246-7.592-3.383-9.394-6.086
			c-2.685-4.214-0.536-6.527-0.536-6.527c-0.618,1.482-0.094,3.707,1.402,5.95c1.871,2.807,5.393,5.638,9.042,5.638h0.521v0.521
			c0,7.001,3.295,10.518,10.074,10.752l0.493,0.017l0.009,0.492c0.075,3.596,1.553,6.476,4.162,8.106
			c2.728,1.707,6.34,1.81,9.666,0.274l0.272-0.125l0.245,0.172c3.869,2.708,6.941,1.882,8.837,0.714
			c3.59-2.213,5.776-7.449,5.088-12.179l-0.065-0.443l0.431-0.13c7.921-2.376,10.345-7.735,7.62-16.863l-0.083-0.28l0.194-0.217
			c2.803-3.129,4.15-6.789,3.797-10.31c-0.296-2.921-1.722-5.47-4.017-7.175l-0.41-0.305l0.297-0.415
			c2.393-3.357,3.206-6.229,2.421-8.533c-1.004-2.94-4.324-3.979-4.359-3.987c0,0,4.17,0.211,5.343,3.652
			c0.867,2.54,0.103,5.588-2.271,9.062c2.299,1.874,3.724,4.554,4.031,7.597c0.377,3.73-0.994,7.588-3.863,10.89
			c2.704,9.35,0.092,15.162-7.979,17.75c0.551,4.998-1.819,10.423-5.628,12.772C381.871,300.65,380.43,301.063,378.95,301.063z"/>
	</g>
	<g>
		<path fill="#666565" d="M397.985,191.018c-0.811-8.761-8.655-8.391-8.986-8.372l-0.062-1.039
			C398.808,182.062,397.985,191.018,397.985,191.018z"/>
	</g>
	<g>
		<path fill="#CCCACA" d="M532.299,199.114c0,0,16.19,1.122,8.214,19.427c5.724,5.375,6.069,14.043,0.867,17.859
			c4.335,6.067,6.59,16.298-1.733,21.674c1.561,7.455,1.907,12.311-4.854,16.819c0.865,5.201-2.08,13.179-5.724,14.044
			c3.122,4.509-0.174,18.727-10.057,10.75c-3.294,7.803-11.791,8.671-14.044-6.241c-6.243,1.039-12.138-1.214-11.099-11.271
			c-4.333,3.468-15.432-1.388-13.697-11.444c-4.334,1.561-15.086-7.802-10.924-17.339c-2.947-3.122-5.316-12.994-0.562-18.022"/>
		<path fill="#E0DEDE" d="M532.299,199.114c0,0,16.19,1.122,8.214,19.427c5.724,5.375,2.08,12.93-3.121,16.744
			c4.335,6.067,5.948,14.686-2.375,20.062c1.561,7.455,2.548,12.437-4.214,16.945c0.868,5.201-2.773,13.005-6.415,13.871
			c3.121,4.509,3.814,16.126-6.068,8.149c-3.295,7.804-8.324,10.23-10.577-4.682c-6.242,1.041-14.912,2.602-13.873-7.455
			c-4.333,3.468-15.432-1.388-13.697-11.444c-4.334,1.561-15.086-7.802-10.924-17.339c-2.947-3.122-5.316-12.994-0.562-18.022"/>
		<path fill="#FFFFFF" d="M479.436,251.904c4.16,4.609,8.193,1.111,8.583,0c4.03,4.349,12.613,6.689,15.475-3.454
			c6.113,0,14.826-1.82,13.958-12.918c7.11-1.213,14.393-11.616,7.803-21.674c6.59-4.509,9.711-8.709,8.15-12.852
			c0.656-0.155,1.064-0.46,1.612-1.324c-1.188-0.458-4.514-0.568-4.514-0.568l-61.817,36.256c-4.754,5.028-2.385,14.9,0.562,18.022
			c-0.27,0.617-0.474,1.234-0.623,1.846C475.144,257.814,478.784,255.355,479.436,251.904z"/>
		<path fill="#666565" d="M512.623,305.727c-0.204,0-0.406-0.013-0.61-0.038c-3.617-0.453-6.329-4.689-7.479-11.649
			c-3.674,0.51-6.645-0.193-8.615-2.045c-1.999-1.879-2.889-4.845-2.652-8.828c-2.231,1.094-5.479,0.774-8.324-0.906
			c-3.925-2.316-5.902-6.336-5.391-10.86c-2.151,0.225-5.163-1.296-7.648-3.95c-3.908-4.175-5.113-9.366-3.263-13.954
			c-7.541-11.633,0.045-18.125,0.045-18.125c-4.471,4.729-1.999,14.553,0.94,17.665l0.236,0.251l-0.137,0.313
			c-2.763,6.33,1.55,11.658,2.937,13.139c2.452,2.62,5.604,4.125,7.335,3.504l0.841-0.303l-0.153,0.881
			c-0.757,4.386,1.034,8.328,4.786,10.545c2.906,1.716,6.229,1.882,8.074,0.404l0.971-0.775l-0.128,1.235
			c-0.432,4.172,0.322,7.203,2.243,9.007c2.296,2.156,5.753,2.113,8.252,1.696l0.52-0.086l0.079,0.522
			c1.009,6.67,3.498,10.891,6.661,11.287c2.423,0.307,4.937-1.726,6.392-5.171l0.267-0.635l0.537,0.433
			c3.185,2.569,5.906,2.965,7.865,1.143c2.772-2.576,3.175-8.684,1.438-11.191l-0.434-0.626l0.741-0.176
			c3.199-0.761,6.187-8.307,5.329-13.454l-0.055-0.332l0.279-0.186c6.582-4.389,6.142-9.077,4.636-16.28l-0.075-0.35l0.3-0.193
			c2.826-1.826,4.56-4.33,5.152-7.444c0.946-4.95-1.219-10.215-3.559-13.492l-0.298-0.418l0.413-0.303
			c2.05-1.501,3.271-3.882,3.442-6.699c0.226-3.712-1.404-7.588-4.357-10.361l-0.268-0.252l0.146-0.336
			c2.543-5.833,2.821-10.513,0.828-13.91c-2.722-4.641-8.837-5.299-8.898-5.304c0,0,6.81-0.314,9.796,4.777
			c2.13,3.632,1.92,8.516-0.628,14.519c3.009,2.966,4.656,7.025,4.42,10.932c-0.181,2.945-1.404,5.469-3.466,7.16
			c2.353,3.474,4.417,8.814,3.449,13.883c-0.628,3.294-2.414,5.957-5.31,7.924c1.473,7.13,1.842,12.211-4.873,16.826
			c0.673,5.02-1.86,12.476-5.514,14.084c1.588,3.123,1.034,9.213-1.931,11.966c-1.313,1.223-4.158,2.699-8.694-0.683
			C517.658,303.755,515.163,305.727,512.623,305.727z"/>
	</g>
	<g>
		<path fill="#080808" d="M326.362,353.985l-1.041-0.005c0.66-6.339,3.47-7.668,3.47-7.668
			C326.399,349.257,326.362,353.938,326.362,353.985z"/>
	</g>
	<g>
		<path fill="#080808" d="M352.056,363.503l-1.04-0.012c0.238-5.813,3.855-7.043,3.855-7.043
			C352.149,358.61,352.056,363.455,352.056,363.503z"/>
	</g>
	<g>
		<g>
			<path fill="#0F0F0F" d="M480.345,333.044c-2.146,1.756-11.444,9.365-12.549,17.817c-0.26,2.015,8.129,1.171,8.129,1.171
				c-0.262,1.69-1.236,3.836,3.315,4.031c4.533,0.194,17.696,0.897,15.885-14.564C490.398,336.541,482.748,333.957,480.345,333.044z
				"/>
			<path fill="#1E1E1E" d="M478.784,346.504c0,2.602,1.561,4.682,4.162,3.643c5.039-2.749,9.038-11.992,4.645-14.024
				c-3.091-1.593-5.941-2.581-7.246-3.078c-2.127,1.744-11.287,9.242-12.516,17.612
				C471.984,351.644,476.004,349.286,478.784,346.504z"/>
			<path fill="#080808" d="M481.641,356.649L481.641,356.649c-0.885,0-1.671-0.034-2.301-0.062l-0.123-0.005
				c-1.861-0.08-3.011-0.473-3.615-1.24c-0.649-0.824-0.487-1.831-0.312-2.735c-0.687,0.053-1.805,0.119-2.984,0.119
				c-3.456,0-4.358-0.57-4.734-0.999c-0.235-0.266-0.336-0.589-0.29-0.934c0.515-3.948,3.145-10.306,12.735-18.152l0.232-0.188
				l0.898,0.337c2.963,1.101,9.897,3.675,14.353,8.349l0.121,0.126l0.021,0.173c0.576,4.905-0.29,8.692-2.571,11.257
				C490.703,355.355,486.965,356.649,481.641,356.649z M476.539,351.447l-0.1,0.664c-0.03,0.19-0.068,0.385-0.107,0.583
				c-0.151,0.783-0.296,1.521,0.087,2.005c0.392,0.495,1.348,0.781,2.844,0.845l0.121,0.005c0.621,0.027,1.394,0.06,2.257,0.06
				c5.008,0,8.493-1.179,10.651-3.606c2.05-2.302,2.835-5.756,2.335-10.271c-4.295-4.422-10.973-6.901-13.84-7.966l-0.343-0.128
				c-9.138,7.542-11.645,13.56-12.132,17.292c-0.006,0.034-0.006,0.062,0.04,0.112c0.133,0.151,0.812,0.646,3.953,0.646
				c1.825,0,3.549-0.172,3.567-0.174L476.539,351.447z"/>
		</g>
	</g>
	<g>
		<path fill="#080808" d="M476.381,352.446l-1.018-0.222c1.514-4.982,4.626-6.84,4.626-6.84
			C477.41,347.843,476.39,352.4,476.381,352.446z"/>
	</g>
	<g>
		<g>
			<path fill="#0F0F0F" d="M503.527,343.646c-4.352,4.481-9.057,7.606-10.523,15.517c-0.434,1.906,7.53,0.151,7.53,0.151
				c-0.347,1.733-0.336,4.53,0.273,4.616c0.605,0.087,13.609,0.087,20.286-3.727c2.704-1.561,1.757-4.621,1.091-7.286
				C514.724,343.595,507.504,343.007,503.527,343.646z"/>
			<path fill="#1E1E1E" d="M505.835,361.069c6.795,1.274,18.375-7.108,14.246-10.563c-6.691-7.01-12.952-7.439-16.554-6.859
				c-4.136,4.258-8.58,7.3-10.274,14.374c3.153-0.196,6.047-1.433,8.939-2.673C501.673,358.47,503.233,360.55,505.835,361.069z"/>
			<path fill="#080808" d="M501.642,364.473c-0.27,0-0.748-0.004-0.909-0.027c-0.149-0.02-0.362-0.1-0.539-0.348
				c-0.485-0.687-0.481-2.64-0.292-4.123c-1.128,0.22-3.306,0.598-4.947,0.598c-1.201,0-1.922-0.202-2.269-0.638
				c-0.2-0.249-0.265-0.556-0.188-0.888c1.233-6.655,4.688-9.975,8.349-13.492c0.761-0.729,1.545-1.485,2.309-2.27l0.121-0.125
				l0.169-0.026c0.782-0.127,1.587-0.189,2.393-0.189c4.119,0,10.371,1.673,16.754,9.648l0.072,0.089l0.134,0.534
				c0.651,2.567,1.459,5.763-1.443,7.438C514.858,364.366,502.976,364.473,501.642,364.473z M501.002,363.423
				c0.117,0.005,0.32,0.009,0.64,0.009c4.736,0,14.107-0.774,19.192-3.681c2.222-1.281,1.577-3.822,0.954-6.28l-0.079-0.316
				c-6.1-7.576-11.995-9.171-15.872-9.171c-0.692,0-1.384,0.051-2.059,0.151c-0.736,0.753-1.485,1.472-2.212,2.171
				c-3.535,3.397-6.874,6.605-8.052,12.952c-0.015,0.028,0.182,0.273,1.439,0.273c2.152,0,5.436-0.719,5.469-0.725l0.779-0.173
				l-0.157,0.782C500.723,361.033,500.791,362.937,501.002,363.423z"/>
		</g>
	</g>
	<g>
		<path fill="#080808" d="M501.045,359.419l-1.019-0.209c0.475-3.255,2.643-5.293,2.643-5.293
			C501.748,356.018,501.053,359.385,501.045,359.419z"/>
	</g>
	<g>
		<path fill="#5E5E5E" d="M270.043,175.791c0,0,16.393,4.758,22.415-3.52c0,0-1.395,14.198-11.505,14.216
			C269.219,186.508,270.043,175.791,270.043,175.791z"/>
		<path d="M278.889,177.86c-4.509-0.092-8.406-2.12-8.406-2.12c0.159,0.042,15.924,3.654,21.237-3.95l-0.624,2.355
			c-1.16,1.158-4.1,2.814-7.241,3.396C282.196,177.813,280.499,177.892,278.889,177.86z"/>
	</g>
	<g>
		<path fill="#CCCACA" d="M343.518,208.512c0,0-2.841,12.37-11.944,9.249c-2.08,5.462-14.045,6.155-15.085-2.515
			c-5.201,5.202-15.606-0.347-7.629-9.016c-6.243-4.855-3.554-15.259,2.948-17.081c-8.583-2.601-11.184-15.083,0-16.906
			c-2.861-4.94-3.121-13.697,3.468-15.778c-5.375-2.946-9.45-9.188-1.908-16.992c-5.722-1.82-16.125-1.82-13.525-13.005
			c-7.542,5.462-16.385,4.162-18.726-1.3c-4.942,7.022-14.825,4.681-18.466,1.82c-4.941,1.3-13.786,4.942-14.305-1.82
			c-0.521-6.762,3.641-13.005,14.825-12.484c0.78-5.462,8.323-8.583,20.548-4.422c4.162-4.941,14.305-9.623,25.229,4.422
			c6.762-3.381,18.466,1.821,20.547,12.224c5.982-1.82,15.085,3.381,16.385,21.849c6.503,10.403,7.543,34.851-1.3,38.492
			c3.122,5.723-2.159,10.652-7.62,11.432L343.518,208.512z"/>
		<path fill="#E0DEDE" d="M343.518,208.512c0,0-2.451,8.859-11.554,5.737c-2.081,5.461-13.354,6.715-14.395-1.956
			c-5.201,5.204-13.998,2.952-6.022-5.717c-6.242-4.855-6.242-15.605,0.26-17.427c-8.583-2.601-11.184-15.083,0-16.906
			c-2.861-4.94-3.121-13.697,3.468-15.778c-5.375-2.946-9.45-9.188-1.908-16.992c-5.722-1.82-16.125-1.82-13.525-13.005
			c-7.542,5.462-16.385,4.162-18.726-1.3c-4.942,7.022-14.825,4.681-18.466,1.82c-4.941,1.3-13.786,4.942-14.305-1.82
			c-0.521-6.762,3.641-13.005,14.825-12.484c0.78-5.462,8.323-8.583,20.548-4.422c4.162-4.941,14.305-9.623,25.229,4.422
			c6.762-3.381,18.466,1.821,20.547,12.224c5.982-1.82,15.085,3.381,16.385,21.849c6.503,10.403,7.543,34.851-1.3,38.492
			c3.122,5.723-2.159,10.652-7.62,11.432L343.518,208.512z"/>
		<path fill="#FFFFFF" d="M344.925,208.058c0,0-5.034,7.011-13.872,0.52c-2.08,5.463-6.117,8.151-7.157-0.52
			c-5.202,5.204-16.483,1.978-8.507-6.692c-6.242-4.855-3.842-10.914,2.661-12.736c-8.583-2.601-17.427-14.563-6.243-16.386
			c-2.861-4.94-3.121-13.697,3.468-15.778c-5.375-2.946-9.45-9.188-1.908-16.992c-5.722-1.82-16.125-1.82-13.525-13.005
			c-7.542,5.462-16.385,4.162-18.726-1.3c-4.942,7.022-14.825,4.681-18.466,1.82c-4.941,1.3-13.786,4.942-14.305-1.82
			c-0.521-6.762,3.641-13.005,14.825-12.484c0.78-5.462,8.323-8.583,20.548-4.422c4.162-4.941,14.305-9.623,25.229,4.422
			c6.762-3.381,18.466,1.821,20.547,12.224c5.982-1.82,15.085,3.381,16.385,21.849c6.503,10.403,7.543,34.851-1.3,38.492
			c3.122,5.723-2.159,10.652-7.62,11.432L344.925,208.058z"/>
		<path fill="#666565" d="M324.34,222.347c-0.426,0-0.857-0.024-1.289-0.079c-3.636-0.445-6.164-2.668-6.917-6.018
			c-2.962,2.295-6.955,1.824-9.093-0.225c-1.966-1.888-2.674-5.413,1.07-9.74c-2.682-2.342-3.833-5.939-3.086-9.743
			c0.656-3.338,2.678-6.099,5.314-7.387c-4.036-1.808-6.753-5.896-6.479-10.014c0.245-3.68,2.898-6.361,7.149-7.278
			c-1.761-3.473-2.144-7.957-0.904-11.15c0.775-2.003,2.143-3.486,3.985-4.347c-2.958-1.889-4.866-4.496-5.287-7.274
			c-0.461-3.042,0.753-6.187,3.608-9.36c-0.746-0.206-1.555-0.392-2.398-0.588c-2.836-0.658-6.051-1.403-8.28-3.196
			c-2.364-1.901-3.236-4.639-2.646-8.341c-4.118,2.612-8.79,3.525-12.714,2.442c-2.408-0.666-4.276-2.036-5.349-3.902
			c-1.797,2.193-4.285,3.574-7.246,4.009c-4.267,0.626-8.815-0.813-11.241-2.6c-0.574,0.155-1.195,0.338-1.845,0.529
			c-3.777,1.113-8.477,2.497-11.064,0.713c-1.069-0.737-1.676-1.946-1.803-3.592c-0.282-3.652,0.789-6.927,3.015-9.22
			c2.595-2.676,6.709-3.997,11.896-3.842c0.399-1.881,1.555-3.452,3.367-4.563c3.848-2.363,10.194-2.332,17.448,0.075
			c2.742-3.103,6.672-4.905,10.584-4.824c5.167,0.101,10.199,3.195,14.962,9.202c3.238-1.438,7.49-1.15,11.475,0.799
			c4.782,2.339,8.149,6.484,9.312,11.43c2.514-0.582,5.295,0.02,7.717,1.686c2.869,1.974,7.816,7.275,8.786,20.64
			c4.843,7.865,6.613,23.164,3.71,32.202c-1.08,3.363-2.698,5.614-4.813,6.701c1,2.142,0.972,4.374-0.089,6.492
			c-2.699,4.514-8.494,4.712-8.494,4.712c3.2-0.458,6.239-2.538,7.563-5.18c0.688-1.367,1.218-3.523-0.144-6.021l-0.278-0.509
			l0.537-0.22c2.041-0.841,3.677-3.017,4.728-6.293c2.84-8.841,1.09-23.827-3.67-31.444l-0.069-0.11l-0.009-0.128
			c-0.917-13.023-5.623-18.111-8.347-19.984c-2.333-1.606-5.019-2.117-7.368-1.403l-0.549,0.167l-0.112-0.562
			c-0.973-4.863-4.204-8.96-8.866-11.24c-3.855-1.886-7.944-2.119-10.938-0.621l-0.382,0.19l-0.262-0.336
			c-4.637-5.961-9.487-9.032-14.419-9.129c-5.499-0.087-9.045,3.588-10,4.723l-0.229,0.271l-0.337-0.115
			c-7.097-2.416-13.258-2.52-16.9-0.284c-1.687,1.034-2.711,2.517-2.964,4.287l-0.066,0.468l-0.472-0.021
			c-5.107-0.236-9.101,0.976-11.558,3.509c-2.015,2.077-2.982,5.065-2.724,8.415c0.103,1.337,0.546,2.258,1.356,2.816
			c2.179,1.502,6.614,0.195,10.179-0.855c0.754-0.222,1.47-0.433,2.118-0.604l0.251-0.066l0.203,0.161
			c2.191,1.721,6.555,3.15,10.657,2.547c3.009-0.442,5.385-1.875,7.062-4.259l0.537-0.762l0.367,0.857
			c0.843,1.965,2.638,3.416,5.057,4.084c3.963,1.094,8.78-0.026,12.887-3.001l1.126-0.816l-0.314,1.355
			c-0.912,3.919-0.246,6.717,2.037,8.552c2.043,1.645,5.136,2.361,7.864,2.994c1.173,0.271,2.282,0.529,3.275,0.844l0.799,0.255
			l-0.583,0.602c-3.033,3.138-4.348,6.201-3.909,9.103c0.416,2.739,2.49,5.317,5.692,7.072l1.067,0.584l-1.161,0.368
			c-2.083,0.657-3.548,2.046-4.355,4.128c-1.211,3.121-0.726,7.601,1.181,10.894l0.378,0.653l-0.744,0.121
			c-4.217,0.687-6.766,3.038-6.993,6.453c-0.271,4.082,2.764,8.139,7.06,9.44l1.708,0.52l-1.719,0.48
			c-2.898,0.812-5.214,3.594-5.901,7.092c-0.708,3.607,0.462,6.999,3.133,9.075l0.446,0.348l-0.383,0.416
			c-3.094,3.362-3.647,6.612-1.479,8.691c1.963,1.883,5.79,2.174,8.358-0.396l0.757-0.758l0.127,1.065
			c0.404,3.362,2.712,5.625,6.173,6.052c3.491,0.431,6.964-1.181,7.91-3.662l0.179-0.471l0.475,0.164
			c2.094,0.719,4.037,0.614,5.777-0.311c4.25-2.256,6.019-8.632,6.036-8.695c0,0-0.904,7.149-5.549,9.614
			c-1.874,0.996-3.94,1.171-6.144,0.521C330.682,220.785,327.659,222.347,324.34,222.347z"/>
	</g>
	<g>
		<path fill="#E0DEDE" d="M319.74,147.533c0,0,12.614-0.271,21.327-6.883c8.714-6.612,25.879-15.924,39.405-7.647
			c7.281,4.859-8.526,31.232-29.682,39.51c-17.656,4.812-16.615-4.949-27.713-3.881C316.315,164.673,319.74,147.533,319.74,147.533z
			"/>
		<path fill="#3F3E3D" d="M319.74,146.886c0,0,12.614-0.261,21.327-6.633c8.714-6.373,25.879-15.346,39.405-7.369
			c7.281,4.682,2.773,28.437-18.38,36.412c-25.142,8.498-25.142-4.681-39.014-2.079C316.315,163.401,319.74,146.886,319.74,146.886z
			"/>
		<path fill="#474746" d="M319.74,146.886c0,0,12.614-0.261,21.327-6.633c8.714-6.373,20.411-12.838,33.937-4.862
			c7.281,4.681,8.937,20.419-12.218,28.396c-25.143,8.496-25.017-4.217-38.889-1.615C317.133,158.356,319.74,146.886,319.74,146.886
			z"/>
		<path fill="#898888" d="M354.462,135.311c0.167-1.172,0.716-2.073,1.483-2.793c-5.589,1.451-10.594,4.603-14.878,7.735
			c-8.713,6.372-21.327,6.633-21.327,6.633s-1.35,5.94,0.414,10.692C333.655,156.032,350.734,145.048,354.462,135.311z"/>
		<path fill="#5E5E5E" d="M354.462,135.311c0.167-1.172,0.716-2.073,1.483-2.793c-5.589,1.451-10.464,7.377-14.749,10.509
			c-8.713,6.373-21.457,3.859-21.457,3.859s-1.35,5.94,0.414,10.692C336.429,157.64,350.549,147.304,354.462,135.311z"/>
		<path fill="#1B1919" d="M347.336,172.708c-5.358,0-8.874-1.569-11.978-2.957c-2.717-1.214-5.284-2.361-8.754-2.361
			c-1.098,0-2.22,0.11-3.432,0.337l-0.186,0.035l-0.165-0.094c-7.013-3.955-3.735-20.199-3.592-20.888l0.085-0.406l0.414-0.009
			c0.124-0.002,12.556-0.334,21.031-6.533c4.362-3.191,15.798-10.611,27.726-10.611c4.51,0,8.632,1.082,12.249,3.214
			c2.653,1.706,3.909,5.723,3.378,10.756c-1.007,9.517-8.15,21.431-21.839,26.591c-5.831,1.972-10.71,2.926-14.935,2.926
			C347.338,172.708,347.337,172.708,347.336,172.708z M326.604,166.349c3.692,0,6.357,1.192,9.18,2.452
			c3.155,1.411,6.416,2.869,11.552,2.869c0.001,0,0.002,0,0.003,0c4.108,0,8.879-0.938,14.585-2.865
			c13.256-5,20.181-16.523,21.154-25.721c0.49-4.636-0.59-8.284-2.888-9.762c-3.438-2.028-7.381-3.061-11.704-3.061
			c-11.621,0-22.831,7.281-27.112,10.412c-7.952,5.816-18.89,6.612-21.2,6.717c-0.454,2.492-2.59,15.857,3,19.278
			C324.376,166.454,325.5,166.349,326.604,166.349z"/>
	</g>
	<g>
		<path fill="#6D6B6B" d="M325.852,159.76c0,0,9.71-0.694,23.409-10.925c9.189-6.589,16.646-9.016,23.755-7.282
			c-0.868,6.069-0.521,16.061-16.473,21.036C344.578,166,337.123,165.481,325.852,159.76z"/>
		<path fill="#888888" d="M361.744,147.796c-4.681,3.122-10.403,3.122-15.605,5.202c-1.561,1.041-3.642,2.6-3.121,4.682
			c2.601-2.083,6.243-0.52,7.803,1.04c1.507,1.508,1.612,3.366,0.929,5.068c1.525-0.32,3.113-0.72,4.793-1.198
			c15.952-4.975,15.604-14.966,16.473-21.036c-0.274-0.067-0.548-0.115-0.822-0.169
			C368.556,142.759,365.299,145.425,361.744,147.796z"/>
		<path fill="#1B1919" d="M343.609,165.236c-5.691,0-11.073-1.498-17.993-5.012l-1.667-0.847l1.864-0.135
			c0.097-0.007,9.743-0.821,23.135-10.822c7.546-5.413,13.762-7.929,19.565-7.929c1.555,0,3.11,0.188,4.625,0.557l0.458,0.112
			l-0.067,0.467c-0.077,0.543-0.146,1.121-0.215,1.72c-0.711,6.019-1.783,15.112-16.617,19.738
			C351.55,164.554,347.394,165.236,343.609,165.236z M327.574,160.031c6.061,2.91,10.93,4.166,16.035,4.166
			c3.687,0,7.751-0.671,12.791-2.108c14.177-4.422,15.163-12.769,15.88-18.863c0.051-0.439,0.102-0.865,0.154-1.272
			c-1.288-0.28-2.605-0.422-3.921-0.422c-5.576,0-11.598,2.456-18.951,7.726C339.058,157.105,330.942,159.383,327.574,160.031z"/>
	</g>
	<g>
		<path fill="#1B1919" d="M377.742,143.675c-0.031-0.014-3.206-1.443-5.48-1.759l0.145-1.03
			C374.829,141.223,377.742,143.675,377.742,143.675z"/>
	</g>
	<g>
		<path fill="#E0DEDE" d="M321.194,144.043c0,0,11.074,8.087,0.323,16.238c5.723,2.251,6.514,6.628,2.874,11.659l-5.314-4.113
			l-3.022-20.81L321.194,144.043z"/>
		<path fill="#FFFFFF" d="M321.194,144.043c0,0,6.826,9.388-2.118,16.388c5.722,2.253,8.955,6.479,5.314,11.509l-5.314-4.113
			l-3.022-20.81L321.194,144.043z"/>
		<path fill="#666565" d="M324.39,171.94c1.728-2.388,2.335-4.698,1.755-6.683c-0.561-1.917-2.228-3.471-4.82-4.492l-0.86-0.34
			l0.738-0.559c3.006-2.281,4.544-4.787,4.572-7.452c0.046-4.662-4.533-8.335-4.581-8.372c0,0,5.672,3.215,5.621,8.383
			c-0.029,2.784-1.471,5.378-4.292,7.72c2.439,1.144,4.03,2.799,4.621,4.821C328.192,169.036,324.39,171.94,324.39,171.94z"/>
	</g>
	<g>
		<ellipse fill="#000012" cx="282.655" cy="168.169" rx="3.663" ry="5.377"/>
		<circle fill="#FFFFFF" cx="281.03" cy="164.658" r="1.864"/>
		<circle fill="#FFFFFF" cx="285.602" cy="168.841" r="0.888"/>
		<path fill="#FFFFFF" d="M280.469,171.612c0,0.235-0.189,0.422-0.421,0.422c-0.233,0-0.421-0.188-0.421-0.422
			c0-0.23,0.188-0.42,0.421-0.42C280.28,171.191,280.469,171.381,280.469,171.612z"/>
	</g>
	
		<ellipse transform="matrix(0.9485 0.3168 -0.3168 0.9485 82.7097 -66.2547)" fill="#FFC4C1" cx="245.119" cy="221.243" rx="1.323" ry="2.59"/>
	<g>
		<path fill="none" d="M468.623,255.238c-0.006,0.036-0.015,0.072-0.02,0.108c0.007-0.036,0.012-0.072,0.021-0.108H468.623z"/>
		<path fill="none" d="M397.334,267.832c3.99-5.341,3.714-10.526,1.093-14.289C400.958,257.36,401.009,262.851,397.334,267.832z"/>
		<path fill="#FFFFFF" d="M398.427,253.543c-0.664-1.002-1.497-1.89-2.48-2.62C396.909,251.685,397.747,252.565,398.427,253.543z"/>
		<path fill="#FFFFFF" d="M356.933,264.967c-0.91,6.373,3.121,11.704,11.314,7.542c0.911,4.941,14.956,3.641,14.956-8.713
			c3.9,2.732,17.166-1.82,12.744-12.873c7.412-10.405-3.771-15.638-3.771-15.638l-45.887,26.452
			C347.256,265.341,350.214,267.515,356.933,264.967z"/>
		<path fill="#FFFFFF" d="M396.243,269.171c0.396-0.44,0.757-0.888,1.091-1.339C397,268.277,396.637,268.724,396.243,269.171z"/>
		<path fill="#FFFFFF" d="M468.45,256.09c0.057-0.245,0.108-0.492,0.153-0.743C468.544,255.595,468.489,255.843,468.45,256.09z"/>
	</g>
</g>
</svg>
