<?xml version="1.0" encoding="utf-8"?>
<!-- Generator: Adobe Illustrator 16.0.0, SVG Export Plug-In . SVG Version: 6.00 Build 0)  -->
<!DOCTYPE svg PUBLIC "-//W3C//DTD SVG 1.1//EN" "http://www.w3.org/Graphics/SVG/1.1/DTD/svg11.dtd">
<svg version="1.1" id="Layer_2" xmlns="http://www.w3.org/2000/svg" xmlns:xlink="http://www.w3.org/1999/xlink" x="0px" y="0px"
	 width="768px" height="430px" viewBox="0 0 768 430" enable-background="new 0 0 768 430" xml:space="preserve">
<g>
	<g>
		<g>
			<path fill="#E8D0B1" d="M541.568,186.947c0,0,5.213-2.324,7.984-3.199c-1.282,6.307-1.795,9.063-1.795,9.063
				C544.502,190.533,541.568,186.947,541.568,186.947z"/>
			<path fill="#F9EBD7" d="M544.202,185.81c1.06,0.132,2.264,0.952,3.006,1.887c0.593-1.266,1.385-2.721,2.345-3.948
				C548.073,184.216,545.909,185.09,544.202,185.81z"/>
			<path fill="#C6B099" d="M547.985,193.37l-0.414-0.29c-3.257-2.279-6.23-5.893-6.256-5.928l-0.271-0.33l0.392-0.174
				c0.05-0.021,5.261-2.339,8.02-3.211l0.527-0.167l-0.11,0.542c-1.264,6.23-1.784,9.034-1.791,9.061L547.985,193.37z
				 M542.098,187.067c0.763,0.885,2.984,3.368,5.438,5.181c0.192-1.015,0.689-3.604,1.584-8.014
				C546.801,185.028,543.272,186.552,542.098,187.067z"/>
		</g>
		<g>
			<path fill="#E8D0B1" d="M548.735,193.628c0,0,15.766-6.019,2.771,6.681C549.065,195.907,548.735,193.628,548.735,193.628z"/>
			<path fill="#E0E0E0" d="M548.735,193.628h0.005C548.732,193.616,548.735,193.628,548.735,193.628z"/>
			<path fill="#F9EBD7" d="M551.409,192.843c0.824,1.066,1.307,2.168,1.539,3.397C559.081,191.383,554.683,192.005,551.409,192.843z
				"/>
			<path fill="#C6B099" d="M551.432,200.841l-0.21-0.372c-2.443-4.403-2.794-6.7-2.807-6.797l-0.037-0.255l0.245-0.095
				c0.155-0.056,3.815-1.447,6.183-1.447c1.114,0,1.807,0.315,2.063,0.939c0.338,0.833,0.173,2.538-5.135,7.727L551.432,200.841z
				 M549.112,193.837c0.155,0.68,0.715,2.699,2.475,5.938c4.585-4.542,4.905-6.153,4.678-6.714c-0.18-0.441-0.893-0.534-1.459-0.534
				C552.903,192.527,549.992,193.521,549.112,193.837z"/>
		</g>
		<g>
			<path fill="#E8D0B1" d="M551.837,202.591c0,0,8.148,1.142,8.148,2.935c-0.981,1.302-8.969,6.241-8.969,6.241
				C551.507,206.664,551.837,202.591,551.837,202.591z"/>
			<path fill="#F9EBD7" d="M551.837,202.591c0,0,8.148,1.142,8.148,2.935c-1.06,0.542-4.516,1.203-4.516,1.203
				C555.91,203.385,551.837,202.591,551.837,202.591z"/>
			<path fill="#C6B099" d="M550.632,212.389l0.062-0.652c0.482-5.042,0.812-9.134,0.817-9.171l0.024-0.347l0.343,0.047
				c1.977,0.277,8.427,1.334,8.427,3.26v0.106l-0.062,0.086c-1.005,1.339-8.727,6.121-9.054,6.326L550.632,212.389z
				 M552.132,202.963c-0.086,1.035-0.355,4.268-0.725,8.18c2.431-1.52,7.281-4.656,8.233-5.719
				C559.376,204.542,555.683,203.493,552.132,202.963z"/>
		</g>
		<g>
			<g>
				<path fill="#6BAA11" d="M520.055,196.323c0,0,12.55-24.099,28.846-5.573c7.169,8.257,7.754,23.183-2.481,27.808
					C535.376,211.997,520.055,196.323,520.055,196.323z"/>
			</g>
			<g>
				<path fill="#7AC222" d="M544.667,197.048c3.988-6.087-1.635-12.807-10.111-13.149c-4.71,0.754-8.549,4.288-11.09,7.397
					c6.185,0.457,12.308,2.374,17.938,5.752C542.708,197.701,544.667,197.048,544.667,197.048z"/>
			</g>
			<g>
				<path fill="#87C928" d="M543.032,194.239c2.175-3.943,0.168-8.743-8.311-9.086c-1.772,0.34-4.769,1.582-7.311,4.689
					c6.188,0.461,8,1.018,13.633,4.397C542.351,194.893,543.032,194.239,543.032,194.239z"/>
			</g>
			<g>
				<path fill="#2C770A" d="M546.401,218.926l-0.15-0.084c-10.95-6.51-26.273-22.134-26.429-22.291l-0.162-0.167l0.107-0.211
					c0.272-0.52,6.755-12.751,16.618-12.751c4.315,0,8.608,2.394,12.76,7.115c4.32,4.974,6.312,12.462,4.963,18.631
					c-1,4.56-3.608,7.91-7.555,9.691L546.401,218.926z M520.46,196.266c1.693,1.717,15.73,15.783,25.979,21.926
					c4.623-2.154,6.378-6.165,7.032-9.164c1.312-5.98-0.627-13.239-4.815-18.067c-4.021-4.568-8.151-6.886-12.27-6.886
					C527.602,184.075,521.364,194.646,520.46,196.266z"/>
			</g>
		</g>
		<g>
			<g>
				<path fill="#B24B04" d="M431.241,126.324c0,0,43.513-14.177,62.417,31.778c-3.751,14.831-14.831,44.816-14.831,44.816
					l-44.489-19.169L431.241,126.324z"/>
			</g>
			<g>
				<path fill="#CC5700" d="M431.241,126.324l2.829,52.406c14.824-6.46,28.281-2.361,43.06,4.69
					c1.767-9.796,5.506-21.896,10.658-27.437C470.518,112.147,431.241,126.324,431.241,126.324z"/>
			</g>
			<g>
				<path fill="#DD6E0A" d="M431.241,126.324l2.829,52.406c14.824-6.46,24.515-6.553,39.299,0.502
					c1.762-9.797,4.216-19.076,9.371-24.617C469.483,116.808,431.241,126.324,431.241,126.324z"/>
			</g>
			<g>
				<path fill="#823907" d="M479.017,203.353l-44.991-19.386l-3.124-57.875l0.24-0.077c0.062-0.022,6.487-2.081,15.321-2.081
					c15.281,0,35.92,5.908,47.495,34.043l0.043,0.101l-0.03,0.104c-3.706,14.677-14.724,44.547-14.839,44.847L479.017,203.353z
					 M434.652,183.528l43.987,18.952c1.204-3.276,11.157-30.502,14.674-44.354c-11.44-27.715-31.787-33.54-46.851-33.54
					c-7.774,0-13.649,1.609-14.879,1.975L434.652,183.528z"/>
			</g>
		</g>
		<g>
			<g>
				<path fill="#B24B04" d="M376.322,139.361c0,0,18.09-34.384,60.3-14.015c4.235,13.69,11.893,47.421,5.865,61.601
					c-6.521,5.54-29.495,15.971-29.495,15.971l-27.751-25.587L376.322,139.361z"/>
			</g>
			<g>
				<path fill="#CC5700" d="M376.322,139.361c0,0,15.972-32.428,58.181-12.059c4.235,13.688,8.943,37.753,2.914,51.93
					c-6.521,5.542-18.193,10.318-18.193,10.318l-19.434-16.293L376.322,139.361z"/>
			</g>
			<g>
				<path fill="#DD6E0A" d="M376.322,139.361c0,0,16.299-31.777,56.062-11.408c4.238,13.692,7.946,34.863,1.919,49.042
					c-6.522,5.541-15.079,8.157-15.079,8.157l-18.617-14.531L376.322,139.361z"/>
			</g>
			<g>
				<path fill="#823907" d="M412.93,203.303l-0.16-0.147l-27.821-25.65l-8.97-38.186l0.058-0.109
					c0.11-0.207,11.145-20.638,35.356-20.638c7.922,0,16.455,2.18,25.369,6.481l0.128,0.062l0.045,0.137
					c3.763,12.167,12.157,46.996,5.853,61.823l-0.03,0.07l-0.058,0.05c-6.482,5.508-28.636,15.591-29.575,16.021L412.93,203.303z
					 M385.537,177.159l27.515,25.372c2.249-1.031,23-10.596,29.165-15.784c5.463-13.015-0.677-44.339-5.867-61.167
					c-8.776-4.22-17.176-6.358-24.957-6.358c-22.933,0-33.841,18.612-34.72,20.187L385.537,177.159z"/>
			</g>
		</g>
		<g>
			<g>
				<path fill="#B24B04" d="M347.071,177.331c0,0,1.025-25.748,33.126-42.532c6.027,4.562,21.509,17.11,17.111,49.378
					c-11.572,8.962-33.592,15.807-33.592,15.807L347.071,177.331z"/>
			</g>
			<g>
				<path fill="#CC5700" d="M379.907,134.799c-32.102,16.784-33.126,42.532-33.126,42.532l8.634,11.748
					c7.681-9.846,23.906-18.652,38.833-19.407C394.469,148.183,384.986,138.641,379.907,134.799z"/>
			</g>
			<g>
				<path fill="#DD6E0A" d="M379.907,134.799c-32.102,16.784-33.126,42.532-33.126,42.532l8.634,11.748
					c5.646-13.104,22.112-20.171,37.046-20.927C391.697,150.606,384.986,138.641,379.907,134.799z"/>
			</g>
			<g>
				<g>
					<g>
						<path fill="#CC5700" d="M365.298,175.974c4.127-2.5,12.604-8.041,26.399-9.344c-4.237-11.082-6.519-18.36-7.82-19.338
							c-1.229-1.025-6.882-5.354-10.912-8.43c-13.17,8.625-19.724,18.691-22.981,26.363
							C353.452,166.351,359.892,169.217,365.298,175.974z"/>
					</g>
				</g>
			</g>
			<g>
				<g>
					<g>
						<path fill="#B53D00" d="M365.569,174.337c4.127-2.501,10.157-7.597,23.956-8.904c-4.24-11.079-4.99-16.207-6.296-17.184
							c-1.231-1.025-7.441-5.505-11.468-8.58c-11,7.84-17.966,16.611-21.222,24.282
							C354.003,165.079,360.163,167.578,365.569,174.337z"/>
					</g>
				</g>
			</g>
			<g>
				<g>
					<g>
						<path fill="#CC5700" d="M381.638,161.982c-1.455-2.412-3.735-10.343-4.605-12.516c-1.677-0.796-6.797-4.529-10.813-5.611
							c-6.501,5.434-10.829,11.127-13.71,16.247c3.108,0.706,8.71,2.549,14.744,7.29
							C370.295,165.761,377.117,162.22,381.638,161.982z"/>
					</g>
				</g>
			</g>
			<g>
				<g>
					<g>
						<path fill="#DD6E0A" d="M379.423,160.937c-1.457-2.411-2.229-8.403-3.101-10.575c-1.673-0.795-6.909-4.723-10.929-5.805
							c-6.498,5.435-9.281,9.172-12.163,14.292c3.105,0.705,7.809,2.336,13.843,7.075
							C370.116,164.294,374.902,161.177,379.423,160.937z"/>
					</g>
				</g>
			</g>
			<g>
				<g>
					<g>
						<path fill="#CC5700" d="M363.096,160.905c2.606,0.328,7.423,0.031,7.423,0.031c1.031-4.454,0.211-7.397,0.211-7.397
							c-3.707-2.974-6.806-4.325-9.267-5.29c-2.018,2.063-4.25,4.962-5.75,6.99C357.758,156.175,360.841,158.188,363.096,160.905z"
							/>
					</g>
				</g>
			</g>
			<g>
				<g>
					<g>
						<path fill="#B53D00" d="M363.558,159.786c2.607,0.327,6.031,0,6.031,0c1.031-4.454,1.141-6.246,1.141-6.246
							c-3.707-2.974-6.806-4.325-9.267-5.29c-2.018,2.063-3.758,4.133-5.261,6.161C358.246,155.345,361.305,157.067,363.558,159.786
							z"/>
					</g>
				</g>
			</g>
			<g>
				<path fill="#823907" d="M363.303,200.361l-16.85-22.929l0.005-0.113c0.006-0.26,1.396-26.129,33.301-42.808l0.183-0.096
					l0.164,0.125c5.384,4.073,21.765,16.47,17.242,49.68l-0.021,0.132l-0.107,0.081c-11.484,8.896-33.473,15.793-33.694,15.862
					L363.303,200.361z M347.115,177.234l16.437,22.368c2.33-0.745,22.364-7.294,33.164-15.604
					c4.373-32.398-11.377-44.679-16.836-48.814C349.549,151.134,347.245,175.382,347.115,177.234z"/>
			</g>
		</g>
		<g>
			<g>
				<path fill="#B24B04" d="M325.644,230.295c0,0-4.888-31.778,22.978-59.319c3.096,0.652,15.319,6.355,17.437,25.422
					c-1.954,12.548-9.29,49.657-9.29,49.657L325.644,230.295z"/>
			</g>
			<g>
				<path fill="#CC5700" d="M363.096,184.976c-4.448-10.059-12.113-13.502-14.474-14c-20.064,19.831-23.149,41.857-23.299,52.635
					c4.816-4.18,13.794-4.578,22.864-1.713C347.935,211.468,350.759,191.283,363.096,184.976z"/>
			</g>
			<g>
				<path fill="#DD6E0A" d="M359.863,185.504c-2.585-6.449-5.665-11.119-11.979-13.775c-17.664,17.88-21.742,37.394-22.443,48.777
					c7.423-2.953,12.847-3.779,21.012-1.127C346.479,209.274,349.735,192.527,359.863,185.504z"/>
			</g>
			<g>
				<g>
					<g>
						<path fill="#CC5700" d="M344.984,215.627c-0.221-12.709,11.081-27.812,10.104-29.333c-1.567-2.659-6.847-8.754-9.681-11.956
							c-13.705,15.079-18.232,30.975-19.58,41.958C331.167,214.96,340.123,215.185,344.984,215.627z"/>
					</g>
				</g>
			</g>
			<g>
				<g>
					<g>
						<path fill="#B53D00" d="M343.569,214.476c-0.215-12.711,11.488-26.171,10.513-27.691c-1.567-2.661-6.742-8.238-9.578-11.443
							c-12.52,14.209-17.167,28.733-18.51,39.713C331.33,213.718,338.711,214.034,343.569,214.476z"/>
					</g>
				</g>
			</g>
			<g>
				<g>
					<g>
						<path fill="#CC5700" d="M339.549,207.587c1.629-6.191,5.324-16.077,7.932-17.925c-1.718-2.455-4.363-7.128-6.862-9.564
							c-7.488,9.924-11.389,19.883-13.375,28.281C330.748,207.649,336.355,206.737,339.549,207.587z"/>
					</g>
				</g>
			</g>
			<g>
				<g>
					<g>
						<path fill="#DD6E0A" d="M340.694,181.514c-1.227,1.365-1.246,3.936-3.316,4.453c1.305,1.305,1.059,2.363,3.111,5.378
							c0.526,3.636-4.556,12.58-11.41,14.427c-0.022,0.412-0.167,0.829-0.329,1.239c3.211-0.672,6.779-1.347,9.607-0.59
							c1.627-6.192,5.489-14.694,8.097-16.542C344.879,187.634,342.929,183.986,340.694,181.514z"/>
					</g>
				</g>
			</g>
			<g>
				<g>
					<g>
						<path fill="#B53D00" d="M339.767,192.27c-0.789-1.339-2.428-3.756-3.335-6.044c-3.851,6.251-6.405,12.386-8.079,17.998
							C330.206,204.892,333.847,203.768,339.767,192.27z"/>
					</g>
				</g>
			</g>
			<g>
				<path fill="#823907" d="M357.008,246.537l-31.661-16.027l-0.025-0.168c-0.05-0.318-4.595-32.255,23.069-59.598l0.126-0.122
					l0.17,0.035c0.152,0.033,15.261,3.812,17.695,25.705l0.004,0.045l-0.006,0.043c-1.933,12.409-9.215,49.293-9.291,49.666
					L357.008,246.537z M325.945,230.08l30.587,15.484c0.816-4.141,7.367-37.457,9.199-49.174
					c-1.983-17.698-13.034-24.105-17.004-25.057C322.461,197.396,325.629,227.584,325.945,230.08z"/>
			</g>
		</g>
		<g>
			<g>
				<path fill="#B24B04" d="M489.095,241.371c0,0-28.195-36.009,3.094-86.366c6.845,2.282,33.568,12.548,31.127,56.06
					C507.345,231.109,489.095,241.371,489.095,241.371z"/>
			</g>
			<g>
				<path fill="#CC5700" d="M487.956,234.463c0,0-25.1-29.803,2.931-77.31c6.845,2.281,32.587,10.999,29.168,46.74
					C504.084,223.939,487.956,234.463,487.956,234.463z"/>
			</g>
			<g>
				<path fill="#DD6E0A" d="M493.658,227.277c0,0-23.088-35.074-2.116-67.094c6.842,2.283,28.825,7.968,25.639,42.408
					C501.208,222.635,493.658,227.277,493.658,227.277z"/>
			</g>
			<g>
				<path fill="#823907" d="M489.01,241.795l-0.17-0.221c-0.072-0.088-7.134-9.236-10.25-24.436
					c-2.872-14.016-2.896-36.202,13.324-62.305l0.135-0.217l0.242,0.08c7.62,2.54,14.077,6.8,19.192,12.664
					c9.108,10.446,13.202,25.154,12.154,43.719l-0.002,0.107l-0.067,0.08c-15.823,19.864-34.131,30.29-34.313,30.393L489.01,241.795
					z M492.331,155.396c-15.961,25.813-15.945,47.724-13.109,61.578c2.812,13.742,8.869,22.484,9.961,23.973
					c2.231-1.312,19.082-11.551,33.813-30.005C525.118,172.476,504.818,159.638,492.331,155.396z"/>
			</g>
		</g>
		<g>
			<g>
				<path fill="#B24B04" d="M412.992,264.002l3.748-65.485c2.964-2.294,23.465-19.067,31.447-21.186
					c9.291,2.283,28.193,7.662,30.64,15.481c2.443,7.824,16.298,46.631,16.298,46.631
					C479.151,250.014,445.748,267.4,412.992,264.002z"/>
			</g>
			<g>
				<path fill="#CC5700" d="M413.724,256.873l3.017-58.356c2.964-2.294,23.465-19.067,31.447-21.186
					c9.291,2.283,26.501,9.376,28.942,17.198c2.446,7.822,12.82,38.543,12.82,38.543
					C473.979,243.639,446.482,260.271,413.724,256.873z"/>
			</g>
			<g>
				<path fill="#DD6E0A" d="M423.098,254.576l-0.165-57.092c2.964-2.295,16.945-15.1,24.932-17.219
					c9.289,2.281,24.936,10.103,27.382,17.925c2.438,7.824,10.426,34.224,10.426,34.224
					C469.703,242.98,454.435,254.576,423.098,254.576z"/>
			</g>
			<g>
				<path fill="#823907" d="M421.519,264.762c-2.901,0-5.775-0.146-8.56-0.436l-0.31-0.031l3.771-65.945l0.12-0.09
					c0.308-0.244,0.814-0.641,1.478-1.167c5.66-4.493,22.878-18.162,30.092-20.077l0.078-0.02l0.079,0.019
					c12.83,3.152,28.599,8.433,30.873,15.7c2.414,7.729,16.153,46.23,16.29,46.617l0.085,0.24l-0.212,0.143
					C486.429,245.59,454.864,264.762,421.519,264.762z M413.334,263.711c2.664,0.262,5.415,0.396,8.185,0.396
					c32.903,0,64.093-18.787,73.209-24.797c-1.169-3.291-13.894-38.984-16.213-46.401c-1.697-5.435-12.465-10.847-30.32-15.241
					c-7.129,1.958-24.162,15.481-29.77,19.934c-0.59,0.467-1.053,0.833-1.367,1.08L413.334,263.711z"/>
			</g>
		</g>
		<g>
			<g>
				<path fill="#6BAA11" d="M536.7,210.413c0,0,29.801-0.978,42.837,5.539c-8.151,0-35.16,3.588-46.588,20.533
					c-4.256,8.15-20.879,9.73-19.574,2.424C520.872,229.314,536.7,210.413,536.7,210.413z"/>
			</g>
			<g>
				<path fill="#7AC222" d="M579.205,215.793c-13.202-6.339-42.505-5.38-42.505-5.38s-6.547,7.818-13.215,15.955
					C540.849,217.932,559.769,213.373,579.205,215.793z"/>
			</g>
			<g>
				<path fill="#87C928" d="M579.205,215.793c-13.202-6.339-42.505-5.38-42.505-5.38s-6.547,7.818-13.215,15.955
					C543.032,210.7,559.769,213.373,579.205,215.793z"/>
			</g>
			<g>
				<path fill="#2C770A" d="M519.378,243.918c-2.569,0-4.551-0.684-5.593-1.924c-0.708-0.844-0.952-1.902-0.732-3.145l0.018-0.078
					l0.045-0.066c7.417-9.486,23.183-28.313,23.335-28.5l0.096-0.11l0.145-0.007c0.018,0,1.624-0.054,4.201-0.054
					c8.281,0,28.633,0.549,38.793,5.626l1.232,0.623h-1.38c-8.448,0-35.095,3.74-46.315,20.387
					C530.771,241.363,524.258,243.918,519.378,243.918z M513.685,239.043c-0.165,1.01,0.04,1.857,0.605,2.531
					c0.909,1.092,2.721,1.689,5.088,1.689c4.688,0,10.933-2.43,13.284-6.93c10.828-16.062,35.683-20.291,45.464-20.68
					c-10.386-4.47-29.333-4.967-37.234-4.967c-2.127,0-3.587,0.034-4.034,0.048C535.536,212.313,520.812,229.932,513.685,239.043z"
					/>
			</g>
		</g>
		<g>
			<g>
				<path fill="#6BAA11" d="M344.385,268.59c0,0-18.037-6.193-44.789,32.918c-2.794,0.654-16.321,9.453-0.84,19.557
					c7.171,4.072,13.363,5.051,27.703,1.955c7.986-6.848,43.345-56.93,43.345-56.93C360.517,267.287,344.385,268.59,344.385,268.59z
					"/>
			</g>
			<g>
				<path fill="#7AC222" d="M331.359,270.672c-7.813,3.52-18.756,11.826-31.763,30.836c-1.371,0.32-5.32,2.602-7.166,6.029
					c4.357-0.012,8.334,2.613,7.792,7.496c5.217-3.91,8.474,4.562,11.734,4.562c13.688,0,18.252-19.555,24.116-30.637
					c1.958-3.912-2.605-8.477-0.65-13.037c0.107-0.219,0.234-0.43,0.35-0.645C337.595,272.189,333.033,270.164,331.359,270.672z"/>
			</g>
			<g>
				<path fill="#87C928" d="M330.633,273.453c-7.815,3.518-14.69,8.986-27.696,28.004c-1.37,0.314-5.432,1.758-7.277,5.189
					c4.356-0.01,6.804,0.678,6.261,5.564c5.214-3.914,6.232,3.785,9.492,3.785c13.688,0,16.948-15.955,22.814-27.037
					c1.954-3.912-1.849-8.039,0.109-12.604C336.154,273.453,332.303,272.949,330.633,273.453z"/>
			</g>
			<g>
				<path fill="#2C770A" d="M312.603,325.168c-5.176,0-9.231-1.105-14.008-3.818c-5.581-3.645-8.048-7.488-7.352-11.439
					c0.853-4.832,6.32-8.164,8.153-8.688c20.599-30.068,36.222-33.318,41.987-33.318c1.732,0,2.769,0.277,3.04,0.354
					c1.116-0.09,16.459-1.346,25.342-2.494l0.734-0.094l-0.425,0.607c-1.448,2.043-35.479,50.199-43.403,56.988l-0.063,0.053
					l-0.082,0.016C320.748,324.588,316.32,325.168,312.603,325.168z M341.383,268.557c-5.667,0-21.061,3.232-41.519,33.133
					l-0.071,0.107l-0.125,0.029c-1.538,0.355-6.975,3.615-7.782,8.199c-0.647,3.666,1.723,7.291,7.05,10.762
					c4.65,2.646,8.615,3.73,13.667,3.73c3.653,0,8.009-0.574,13.707-1.803c7.502-6.523,38.765-50.51,42.804-56.211
					c-9.288,1.16-24.545,2.398-24.703,2.412l-0.067,0.004l-0.062-0.021C344.269,268.893,343.25,268.557,341.383,268.557z"/>
			</g>
		</g>
		<g>
			<g>
				<path fill="#E8B974" d="M364.756,261.816c0,0-72.288,23.561,14.698,35.293c8.766,7.25,27.997,7.496,40.707,3.26
					c8.944,3.99,26.074,2.607,40.089-7.496c12.385-2.936,19.604-4.064,30.964-13.057c6.845-0.35,33.894-15.863,22.488-38.445
					C493.168,254.412,442.649,292.689,364.756,261.816z"/>
			</g>
			<g>
				<path fill="#F4CA8E" d="M492.868,254.326c-26.509,14.842-69.583,30.689-128.112,7.49c0,0-58.337,21.508,16.73,31.057
					c8.768,7.25,26.895,6.562,39.604,2.328c8.943,3.992,24.39,1.863,38.401-8.242c12.385-2.932,19.659-3.555,31.018-12.545
					c3.156-0.16,10.75-2.398,16.907-6.973C501.226,265.174,496.375,260.408,492.868,254.326z"/>
			</g>
			<g>
				<path fill="#FAD496" d="M387.896,269.24c-7.425-1.814-15.139-4.254-23.14-7.424c0,0-44.234,18.143,10.571,26.578
					C379.911,281.898,381.24,272.867,387.896,269.24z"/>
				<path fill="#FAD496" d="M394.711,281.236c-3.404,4.959-6.547,10.053-4.852,11.277c6.511,4.596,24.329,4.051,28.385-0.486
					c1.665-3.027,2.484-6.324,2.882-9.732C412.452,283.912,403.354,281.947,394.711,281.236z"/>
				<path fill="#FAD496" d="M426.479,282.543c-0.149,3.252,0.05,6.514,0.973,9.719c1.654,4.084,28.028-2.215,28.028-5.9
					c0.032-2.77-0.258-5.465-0.811-8.117C445.568,281.01,436.034,283.412,426.479,282.543z"/>
				<path fill="#FAD496" d="M496.562,261.656c-1.834,2.248-5.04,3.092-7.432,4.4c0.995,2.916,2.117,5.236,3.881,5.111
					c2.632-0.096,5.853-0.666,9.986-3.736C499.608,266.189,497.946,264.199,496.562,261.656z"/>
				<path fill="#FAD496" d="M460.002,277.205c0.562,2.162,1.277,4.232,2.372,6.029c1.569,2.143,15.229-2.713,23.625-8.615
					c0.904-1.211,0.484-3.869-0.375-6.797C477.825,272.551,469.448,276.98,460.002,277.205z"/>
			</g>
			<g>
				<path fill="#D19C4E" d="M401.839,303.475c-9.607,0-17.811-2.207-22.521-6.057c-27.931-3.777-42.414-9.219-43.044-16.182
					c-0.914-10.062,27.185-19.338,28.382-19.729l0.111-0.037l0.11,0.043c19.622,7.777,39.082,11.721,57.829,11.721
					c41.493,0,70.9-19.17,86.701-29.469c1.484-0.969,2.859-1.867,4.121-2.664l0.303-0.195l0.162,0.32
					c3.903,7.727,3.761,15.295-0.417,22.502c-5.625,9.686-17.511,16.08-22.238,16.408c-10.464,8.262-17.495,9.898-28.131,12.377
					c-0.91,0.213-1.847,0.432-2.819,0.662c-8.481,6.096-18.999,9.596-28.86,9.596c-4.386,0-8.316-0.709-11.38-2.057
					C414.759,302.494,408.264,303.475,401.839,303.475z M364.744,262.164c-1.957,0.656-28.659,9.766-27.821,19.016
					c0.602,6.623,14.927,11.875,42.574,15.604l0.096,0.014l0.068,0.059c4.584,3.791,12.667,5.967,22.178,5.967
					c6.407,0,12.872-0.982,18.223-2.766l0.12-0.041l0.112,0.055c3.001,1.342,6.885,2.047,11.232,2.047
					c9.749,0,20.146-3.467,28.533-9.51l0.117-0.055c0.99-0.236,1.952-0.459,2.882-0.676c10.575-2.463,17.562-4.09,27.948-12.314
					l0.082-0.064l0.107-0.004c3.844-0.201,15.906-5.916,21.813-16.096c4.006-6.902,4.191-14.15,0.561-21.553
					c-1.173,0.748-2.447,1.576-3.812,2.465c-15.854,10.338-45.363,29.578-87.054,29.578
					C403.91,273.889,384.409,269.943,364.744,262.164z"/>
			</g>
		</g>
		<g>
			<path fill="#D19C4E" d="M420.474,300.457l-0.627-0.178c0.052-0.189,5.162-18.748,2.936-26.631l0.623-0.18
				C425.688,281.531,420.688,299.688,420.474,300.457z"/>
		</g>
		<g>
			<path fill="#D19C4E" d="M460.577,292.873h-0.652c0-12.158-5.793-22.84-5.853-22.945l0.572-0.314
				C454.704,269.723,460.577,280.543,460.577,292.873z"/>
		</g>
		<g>
			<path fill="#D19C4E" d="M490.887,279.859c-1.594-12.797-8.416-19.93-8.483-20.004l0.465-0.451
				c0.069,0.07,7.042,7.361,8.668,20.371L490.887,279.859z"/>
		</g>
		<g>
			<g>
				<path fill="#6BAA11" d="M372.578,266.797c0,0-16.298,10.637-50.845,0.861c-16.949-3.434-24.769,3.484-24.769,3.484
					c-8.15,9.018-36.179,31.182-67.141,12.604c-16.295,1.953-20.533,1.213-10.104-17.645c-6.191,0.371-19.554-3.217-22.489,1.674
					c-3.259-10.432-19.229-50.844,29.009-70.074c7.168-2.932,20.533-23.139,58.012-11.082
					c36.505,14.017,21.512,48.562,43.673,54.751c14.343,3.916,28.356,8.803,28.356,8.803
					C360.192,254.736,372.578,266.797,372.578,266.797z"/>
			</g>
			<g>
				<path fill="#7AC222" d="M340.545,245.055c-3.921-1.207-8.254-2.486-12.621-3.684c-22.161-6.189-7.168-40.735-43.673-54.751
					c-37.479-12.057-50.844,8.149-58.012,11.082c-48.239,19.23-32.268,59.643-29.009,70.074c2.935-4.891,16.298-1.303,22.489-1.674
					c-10.428,18.857,1.717,17.213,18.015,15.258c30.961,18.576,60.211-16.078,68.359-25.092c0,0,1.976,4.521,18.922,7.957
					c15.143,4.285,27.529,3.842,34.2,2.191C350.975,261.975,346.434,251.926,340.545,245.055z"/>
			</g>
			<path fill="#87C928" d="M301.199,244.668c0,0,11.499,21.707,52.504,20.68c-9.154-7.188-12.26-12.947-14.769-16.654
				c-2.081-3.562-26.044-1.996-31.377-28.188C308.032,237.043,301.199,244.668,301.199,244.668z"/>
			<g>
				<path fill="#87C928" d="M283.382,190.375c-37.482-12.06-45.378,7.055-52.548,9.986c-48.235,19.23-36.864,56.982-33.605,67.414
					c2.935-4.891,16.298-1.303,22.489-1.674c-6.843,18.18,5.09,14.941,21.385,12.984c27.016,16.16,55.268-18.445,60.817-28.402
					C301.921,250.684,327.084,206.67,283.382,190.375z"/>
			</g>
			<g>
				<path fill="#2C770A" d="M254.75,291.275c-8.595,0-17.006-2.416-25-7.193c-3.156,0.379-6.416,0.723-8.965,0.727
					c-3.609,0-5.626-0.691-6.538-2.236c-1.443-2.447-0.022-7.133,4.907-16.125c-1.831,0.045-4.141-0.186-6.6-0.428
					c-2.538-0.252-5.162-0.516-7.557-0.516c-4.111,0-6.491,0.773-7.488,2.438l-0.375,0.621l-0.215-0.689
					c-0.16-0.508-0.347-1.084-0.555-1.729c-4.062-12.449-16.422-50.34,29.751-68.747c1.387-0.567,3.02-1.806,5.088-3.373
					c6.056-4.593,15.206-11.534,31.113-11.534c6.743,0,14.157,1.284,22.033,3.818c20.523,7.879,24.82,21.936,28.612,34.338
					c2.909,9.51,5.418,17.721,15.049,20.412c14.188,3.869,28.236,8.758,28.373,8.809l0.083,0.023l0.06,0.07
					c3.856,4.498,16.153,16.479,16.277,16.602l0.289,0.281l-0.341,0.227c-0.075,0.051-7.916,5.047-23.756,5.047
					c-8.43,0-17.634-1.398-27.354-4.148c-3.086-0.621-6.105-0.941-8.946-0.941c-10.448,0-15.47,4.314-15.519,4.359
					C295.364,273.398,278.523,291.275,254.75,291.275z M229.896,283.408l0.095,0.057c7.918,4.754,16.247,7.16,24.76,7.16
					c23.492,0,40.148-17.684,41.97-19.701c0.233-0.211,5.263-4.549,15.977-4.549c2.886,0,5.948,0.324,9.1,0.961
					c9.686,2.74,18.83,4.131,27.2,4.131c13.761,0,21.37-3.795,23.048-4.734c-1.925-1.877-12.365-12.113-15.956-16.277
					c-1.178-0.41-14.653-5.057-28.249-8.768c-9.978-2.787-12.539-11.156-15.502-20.848c-3.748-12.259-7.994-26.156-28.205-33.915
					c-7.794-2.508-15.141-3.781-21.816-3.781c-15.69,0-24.732,6.86-30.72,11.399c-2.107,1.598-3.77,2.863-5.238,3.462
					c-45.607,18.183-33.391,55.634-29.378,67.938c0.13,0.398,0.251,0.77,0.362,1.115c1.278-1.5,3.741-2.207,7.653-2.207
					c2.428,0,5.068,0.266,7.62,0.518c2.699,0.266,5.219,0.518,7.081,0.408l0.591-0.035l-0.286,0.518
					c-4.959,8.969-6.513,13.746-5.195,15.982c0.78,1.324,2.623,1.91,5.977,1.91c2.542,0,5.828-0.35,8.999-0.732L229.896,283.408z"/>
			</g>
		</g>
		<g>
			<path fill="#2C770A" d="M293.097,275.393l-0.422-0.5c0.124-0.104,12.248-10.541,13.308-19.648
				C305.983,255.244,307.394,262.15,293.097,275.393z"/>
		</g>
		<g>
			<g>
				<path fill="#5F0000" d="M224.419,266.164c-2.163,3.037-4.896,7.602-3.938,10.191c6.234-1.203,15.075,1.611,31.347-17.398
					C239.162,263.848,230.221,265.619,224.419,266.164z"/>
				<path fill="#830000" d="M226.746,265.896c-0.824,0.109-1.6,0.197-2.327,0.268c-2.163,3.037-4.896,7.602-3.938,10.191
					c1.887-0.361,4.016-0.361,6.516-0.705C226.292,272.369,226.135,269.08,226.746,265.896z"/>
				<path fill="#4C6D03" d="M220.269,276.73l-0.094-0.26c-0.984-2.678,1.621-7.184,3.98-10.498l0.087-0.121l0.147-0.016
					c5.241-0.488,14.238-2.133,27.32-7.182l1.205-0.469l-0.841,0.986c-13.649,15.949-22.071,16.625-28.217,17.121
					c-1.181,0.098-2.294,0.188-3.313,0.385L220.269,276.73z M224.598,266.473c-3.002,4.248-4.373,7.598-3.892,9.512
					c0.972-0.166,2.007-0.25,3.098-0.342c5.906-0.473,13.95-1.121,26.927-15.918C238.354,264.393,229.738,265.975,224.598,266.473z"
					/>
			</g>
		</g>
		<g>
			<path fill="#F7669E" d="M239.334,269.926c0,0,5.263-13.992,21.995-11.494c7.388,1.305,10.54,7.939,7.497,12.59
				C258.613,281.354,243.513,266.252,239.334,269.926z"/>
			<path fill="#F991BB" d="M239.334,269.926c0,0,5.263-13.992,21.995-11.494c7.388,1.305,8.902,6.689,5.861,11.338
				C254.001,280.105,244.552,266.09,239.334,269.926z"/>
			<path fill="#E53871" d="M260.026,275.025c-4.252,0-8.491-1.752-12.235-3.297c-2.685-1.109-5.003-2.068-6.652-2.068
				c-0.681,0-1.202,0.164-1.59,0.51l-0.98,0.859l0.46-1.221c0.046-0.121,4.677-12,18.414-12c1.268,0,2.591,0.1,3.936,0.301
				c3.861,0.68,6.947,2.906,8.264,5.955c1.042,2.408,0.846,5.014-0.545,7.135C266.544,273.791,263.591,275.025,260.026,275.025z
				 M241.139,269.01c1.778,0,4.152,0.979,6.902,2.117c3.686,1.521,7.863,3.246,11.985,3.246c3.382,0,6.185-1.172,8.569-3.58
				c1.226-1.887,1.406-4.264,0.449-6.471c-1.229-2.846-4.136-4.928-7.771-5.57c-1.303-0.191-2.595-0.293-3.831-0.293
				c-11.093,0-16.047,8.006-17.403,10.703C240.365,269.061,240.732,269.01,241.139,269.01z"/>
		</g>
		<g>
			<path fill="#E53871" d="M260.666,266.605c-6.041-5.904-15.067-4.242-15.159-4.225l-0.123-0.641
				C256.63,260.066,260.666,266.605,260.666,266.605z"/>
		</g>
		<g>
			<path fill="#2C770A" d="M227.653,284.322l-0.069-0.645c0.086-0.014,8.587-0.934,12.709-3.572
				C240.294,280.105,238.568,283.258,227.653,284.322z"/>
		</g>
		<path fill="#6BAA11" d="M264.45,220.643c3.058,11.295-1.554,22.373-10.302,24.74s-18.32-4.867-21.377-16.164
			c-3.059-11.293,1.554-22.365,10.302-24.737C251.822,202.111,261.393,209.346,264.45,220.643z"/>
		
			<ellipse transform="matrix(0.9652 -0.2614 0.2614 0.9652 -50.6127 72.996)" fill="#D3D3D3" cx="249.107" cy="226.766" rx="14.937" ry="19.288"/>
		<path fill="#FFFFFF" d="M264.058,225.406c-0.136-0.846-0.304-1.695-0.534-2.545c-2.784-10.28-11.495-16.866-19.458-14.71
			c-7.963,2.154-12.161,12.24-9.377,22.519c0.506,1.869,1.211,3.605,2.066,5.201c1.229,1.035,2.492,1.99,3.762,2.838
			C251.421,244.383,259.57,237.297,264.058,225.406z"/>
		<g>
			<g>
				<path fill="#00A3FF" d="M257.459,229.51c1.493,5.855-0.987,11.547-5.54,12.711c-4.555,1.152-9.456-2.654-10.947-8.516
					c-1.493-5.857,0.987-11.547,5.542-12.707C251.066,219.838,255.966,223.646,257.459,229.51z"/>
				<ellipse transform="matrix(0.9691 -0.2467 0.2467 0.9691 -49.7672 68.7841)" cx="249.65" cy="233.024" rx="5.974" ry="7.684"/>
				<path fill="#0469FF" d="M255.975,239.791c-1.06,1.355-2.44,2.277-3.993,2.676c-4.683,1.189-9.735-2.707-11.26-8.693
					c-0.978-3.842-0.33-7.711,1.735-10.348c1.06-1.357,2.44-2.283,3.992-2.676c4.686-1.197,9.734,2.707,11.261,8.695
					C258.688,233.283,258.039,237.146,255.975,239.791z M242.862,223.742c-1.937,2.48-2.564,6.271-1.641,9.9
					c1.455,5.713,6.226,9.449,10.633,8.322c1.44-0.365,2.725-1.229,3.714-2.496c1.938-2.475,2.566-6.268,1.642-9.898
					c-1.455-5.709-6.226-9.445-10.636-8.322C245.137,221.613,243.852,222.477,242.862,223.742z"/>
			</g>
			<path fill="#FFFFFF" d="M248.333,225.846c1.443,1.129,1.699,3.217,0.568,4.66c-1.128,1.445-3.212,1.699-4.658,0.568
				c-1.443-1.131-1.697-3.213-0.57-4.656C244.804,224.971,246.889,224.719,248.333,225.846z"/>
			<path fill="#FFFFFF" d="M245.658,232.363c0.615,0.48,0.724,1.367,0.242,1.979c-0.479,0.615-1.366,0.725-1.979,0.246
				c-0.616-0.482-0.725-1.369-0.245-1.98C244.156,231.99,245.044,231.881,245.658,232.363z"/>
		</g>
		<path fill="#2C770A" d="M251.066,246.115c-7.261,0-14.282-6.461-16.692-15.359c-1.366-5.043-1.127-10.195,0.673-14.518
			c1.81-4.351,4.982-7.333,8.932-8.402c1.032-0.278,2.097-0.423,3.168-0.423c7.262,0,14.283,6.462,16.693,15.364
			c2.827,10.438-1.483,20.721-9.607,22.92C253.204,245.975,252.138,246.115,251.066,246.115z M247.147,208.066
			c-1.015,0-2.021,0.136-2.998,0.397c-3.752,1.016-6.772,3.865-8.501,8.027c-1.744,4.188-1.973,9.193-0.646,14.094
			c2.336,8.623,9.09,14.881,16.063,14.881c1.013,0,2.023-0.133,2.996-0.396c7.778-2.107,11.883-12.031,9.149-22.121
			C260.877,214.325,254.121,208.066,247.147,208.066z"/>
		<g>
			<g>
				<g>
					<path fill="#6BAA11" d="M264.334,230.705c0.164-2.51-0.083-5.172-0.81-7.844c-2.784-10.28-11.495-16.866-19.458-14.71
						c-3.756,1.016-6.676,3.8-8.418,7.535C240.825,215.895,252.745,217.91,264.334,230.705z"/>
				</g>
				<g>
					<path fill="#7AC222" d="M261.589,225.879c0.165-2.514,0.286-2.881,0-5.373c-0.923-8.048-9.56-14.51-17.522-12.355
						c-3.756,1.016-6.676,3.8-8.418,7.535C238.534,215.627,250.001,213.083,261.589,225.879z"/>
				</g>
				<g>
					<path fill="#87C928" d="M260.666,223.492c0.165-2.514-4.803-16.079-15.281-13.839c-3.807,0.812-5.204,1.989-6.816,4.564
						C241.452,214.157,249.079,210.696,260.666,223.492z"/>
				</g>
				<g>
					<path fill="#2C770A" d="M264.609,231.494l-0.516-0.572c-11.669-12.887-23.789-14.719-28.458-14.912l-0.488-0.018l0.206-0.445
						c1.852-3.967,4.917-6.708,8.626-7.71c1.032-0.278,2.097-0.423,3.168-0.423c7.262,0,14.283,6.462,16.693,15.364
						c0.714,2.641,0.991,5.314,0.817,7.949L264.609,231.494z M236.156,215.384c4.991,0.299,16.608,2.395,27.89,14.522
						c0.073-2.311-0.208-4.645-0.834-6.959c-2.334-8.623-9.09-14.881-16.063-14.881c-1.015,0-2.021,0.136-2.998,0.397
						C240.764,209.381,237.94,211.832,236.156,215.384z"/>
				</g>
			</g>
		</g>
		<g>
			<g>
				<path fill="#5B0303" d="M208.141,240.877c-0.935,2.441-2.761,4.008-4.077,3.506c-1.315-0.51-1.623-2.893-0.688-5.332
					c0.936-2.441,2.763-4.012,4.08-3.504C208.771,236.049,209.08,238.438,208.141,240.877z"/>
			</g>
			<g>
				<path fill="#2A0505" d="M207.859,235.789c-0.124-0.104-0.256-0.188-0.404-0.242c-1.317-0.508-3.144,1.062-4.08,3.504
					c-0.604,1.574-0.686,3.125-0.316,4.166C204.585,244.801,209.453,237.24,207.859,235.789z"/>
			</g>
			<g>
				<path fill="#2C770A" d="M204.585,244.801c-0.221,0-0.436-0.041-0.638-0.115c-1.506-0.58-1.891-3.105-0.876-5.752
					c0.861-2.242,2.449-3.809,3.862-3.809c0.222,0,0.436,0.039,0.638,0.117c0.753,0.289,1.25,1.072,1.395,2.199
					c0.138,1.062-0.047,2.324-0.52,3.553C207.586,243.236,206,244.801,204.585,244.801z M206.933,235.777
					c-1.113,0-2.512,1.457-3.254,3.389c-0.854,2.229-0.625,4.48,0.502,4.908c1.113,0.432,2.823-1.135,3.657-3.312
					c0.434-1.131,0.604-2.279,0.481-3.232c-0.115-0.885-0.463-1.48-0.983-1.68C207.211,235.803,207.074,235.777,206.933,235.777z"/>
			</g>
		</g>
		<g>
			<path fill="#2C770A" d="M200.919,238.283c0,0,0.07-3.896,2.12-6.34c0.429-0.51,0.916-0.977,1.476-1.342
				c2.087-1.365,4.098-0.098,4.098-0.098c-1.378-0.307-2.636-0.092-3.737,0.641C201.894,233.123,200.929,238.23,200.919,238.283z"/>
		</g>
		<g>
			
				<ellipse transform="matrix(0.8684 0.4959 -0.4959 0.8684 163.9219 -105.0741)" fill="#2B700F" cx="279.904" cy="256.266" rx="2.607" ry="5.324"/>
		</g>
		<g>
			
				<ellipse transform="matrix(0.8653 0.5012 -0.5012 0.8653 167.8523 -111.1371)" fill="#2B700F" cx="290.739" cy="256.784" rx="4.67" ry="7.828"/>
		</g>
		<g>
			<path fill="#2B700F" d="M302.138,258.877c-0.966,3.297-2.753,5.674-3.991,5.311c-1.239-0.365-1.458-3.328-0.49-6.627
				c0.968-3.293,2.756-5.67,3.992-5.309C302.887,252.615,303.108,255.582,302.138,258.877z"/>
		</g>
		<g>
			<path fill="#2B700F" d="M290.903,270.828c-1.208,1.949-2.948,3.053-3.893,2.471c-0.946-0.584-0.734-2.637,0.471-4.584
				c1.205-1.949,2.946-3.055,3.891-2.473C292.316,266.826,292.104,268.879,290.903,270.828z"/>
		</g>
		<g>
			<path fill="#2B700F" d="M283.006,270.045c-1.419,2.541-3.736,3.949-5.177,3.146c-1.439-0.801-1.462-3.516-0.045-6.057
				c1.418-2.543,3.736-3.949,5.177-3.15C284.402,264.793,284.421,267.504,283.006,270.045z"/>
		</g>
		<g>
			<path fill="#2B700F" d="M252.747,195.094c0,0,7.279,0.217,15.103,15.646C268.5,208.022,261.546,186.837,252.747,195.094z"/>
		</g>
		<g>
			<g>
				<path fill="#6BAA11" d="M520.055,232.25c0,0,11.085,1.629,27.868-3.424c14.177-3.91,27.214-6.844,29.333,18.902
					c1.142,11.736-1.464,21.025-28.601,23.143c-16.051,0.164-51.096-6.672-52.716-14.215
					C501.968,251.641,520.055,232.25,520.055,232.25z"/>
			</g>
			<g>
				<path fill="#7AC222" d="M506.205,257.672c18.902,9.125,46.934,13.035,64.533-1.303c-4.565-1.957-1.959-7.824,1.954-8.473
					c-1.307-0.654-2.352-4.654-1.699-5.963c1.027-7.193-0.504-13.221-5.375-15.232c-5.053-1.223-11.258,0.35-17.695,2.125
					c-7.704,2.318-14.199,3.227-18.981,3.537C527.345,243.225,512.728,249.367,506.205,257.672z"/>
			</g>
			<g>
				<path fill="#87C928" d="M512.976,256.369c18.904,9.127,35.76,8.066,53.635,0c-4.563-1.957-1.225-9.34,2.687-9.994
					c-1.305-0.652-2.037-3.693-1.385-5.004c1.024-7.191,1.177-10.15-3.693-12.164c-5.056-1.223-10.79,0.832-17.235,2.605
					c-7.701,2.322-11.393,2.342-16.168,2.65C529.211,245.326,519.497,248.066,512.976,256.369z"/>
			</g>
			<g>
				<g>
					<path fill="#2B700F" d="M508.159,259.752c-2.206,0-4.128,1.01-5.162,2.504c3.023,1.326,6.812,2.564,10.968,3.662
						c0.107-0.371,0.167-0.756,0.167-1.15C514.132,261.996,511.458,259.752,508.159,259.752z"/>
				</g>
				<g>
					<path fill="#2B700F" d="M527.021,266.066c-2.206,0-4.126,0.686-5.147,1.691c3.674,0.756,7.432,1.395,11.053,1.895
						c0.013-0.08,0.022-0.16,0.022-0.236C532.949,267.566,530.296,266.066,527.021,266.066z"/>
				</g>
			</g>
			<g>
				<path fill="#2C770A" d="M548.088,271.199c-16.253,0-50.796-6.699-52.468-14.477l-0.04-0.191l0.149-0.129
					c5.945-4.941,23.905-24.182,24.09-24.373l0.113-0.125l0.17,0.02c0.02,0.004,1.724,0.25,4.74,0.25
					c4.94,0,12.939-0.635,22.985-3.66c5.11-1.408,9.676-2.572,13.852-2.572c9.759,0,14.664,6.711,15.898,21.762
					c0.473,4.857,0.47,10.406-3.146,14.719c-4.144,4.938-12.323,7.727-25.752,8.773L548.088,271.199z M496.305,256.773
					c2.026,6.865,34.438,13.775,51.783,13.775l0.567-0.002c13.035-1.02,21.312-3.814,25.277-8.543
					c3.463-4.129,3.458-9.516,2.998-14.244c-1.544-18.764-8.958-21.17-15.251-21.17c-4.093,0-8.611,1.158-13.669,2.551
					c-10.116,3.045-18.183,3.686-23.168,3.686c-2.557,0-4.158-0.166-4.666-0.23C518.641,234.244,502.175,251.822,496.305,256.773z"
					/>
			</g>
		</g>
		<g>
			<path fill="#2B700F" d="M530.815,259.137c0,2.52-3.434,4.566-7.664,4.566c-4.229,0-7.657-2.047-7.657-4.566
				c0-2.518,3.429-4.561,7.657-4.561C527.382,254.576,530.815,256.619,530.815,259.137z"/>
		</g>
		<g>
			<path fill="#458C24" d="M548.735,266.234c0,1.688-3.211,1.363-7.167,1.363c-3.961,0-7.17-1.363-7.17-3.051
				c0-1.686,3.209-3.055,7.17-3.055C545.524,261.492,548.735,264.547,548.735,266.234z"/>
		</g>
		<g>
			<path fill="#2B700F" d="M541.568,261.492c-3.961,0-7.17,1.369-7.17,3.055c0,0.363,0.155,0.711,0.425,1.029
				c4.594,0.398,9.207,0.361,13.688-0.207C547.721,263.672,544.914,261.492,541.568,261.492z"/>
		</g>
		<g>
			<path fill="#2B700F" d="M543.032,256.369c0,1.529-2.254,2.768-5.04,2.768s-5.043-1.238-5.043-2.768
				c0-1.533,2.257-2.771,5.043-2.771S543.032,254.836,543.032,256.369z"/>
		</g>
		<g>
			<path fill="#E8D0B1" d="M569.297,266.066c0,0,11.815,2.479,12.465,0.76c0.547-1.658-4.304-6.947-5.955-7.074
				C573.345,260.766,571.934,261.102,569.297,266.066z"/>
			<path fill="#F9EBD7" d="M571.793,264.922c0,0,7.579,2.125,8.231,0.41c0.543-1.664-2.566-5.453-4.218-5.58
				C574.449,259.963,570.146,264.561,571.793,264.922z"/>
			<path fill="#C6B099" d="M579.438,267.758L579.438,267.758c-3.611,0-9.938-1.316-10.206-1.369l-0.427-0.092l0.205-0.385
				c2.536-4.779,4.013-5.379,6.255-6.291l0.492-0.201l0.08,0.008c1.267,0.094,3.888,2.615,5.295,4.723
				c0.824,1.234,1.14,2.172,0.942,2.779C581.856,267.506,581.044,267.758,579.438,267.758z M569.789,265.836
				c1.51,0.299,6.632,1.273,9.648,1.273c1.819,0,2.007-0.355,2.021-0.396c0.12-0.371-0.202-1.199-0.869-2.201
				c-1.359-2.033-3.749-4.256-4.738-4.426l-0.34,0.139C573.39,261.088,572.088,261.615,569.789,265.836z"/>
		</g>
		<g>
			<path fill="#E8D0B1" d="M575.64,256.369c0,0,2.214,1.031,8.459-1.793c-1.63-1.793-5.188-7.01-8.459-4.402
				C573.995,252.131,574.489,255.527,575.64,256.369z"/>
			<path fill="#F9EBD7" d="M577.004,254.326c0,0,3.089,0.555,7.095,0.25c-1.63-1.793-5.188-7.01-8.459-4.402
				C573.995,252.131,576.132,254.326,577.004,254.326z"/>
			<path fill="#C6B099" d="M576.961,256.881L576.961,256.881c-0.975,0-1.412-0.197-1.459-0.215c-0.635-0.457-1.06-1.387-1.2-2.525
				c-0.188-1.576,0.215-3.137,1.085-4.174c0.707-0.568,1.419-0.834,2.169-0.834c2.382,0,4.594,2.633,6.061,4.381
				c0.27,0.32,0.512,0.607,0.725,0.84l0.302,0.332l-0.407,0.186C580.567,256.531,578.256,256.881,576.961,256.881z M575.802,256.084
				c0.268,0.09,2.483,0.686,7.762-1.629c-0.141-0.156-0.287-0.336-0.45-0.523c-1.382-1.652-3.479-4.145-5.558-4.145
				c-0.607,0-1.169,0.209-1.714,0.645c-0.712,0.855-1.06,2.227-0.893,3.631C575.06,254.973,575.395,255.758,575.802,256.084z"/>
		</g>
		<g>
			<path fill="#E8D0B1" d="M576.169,246.045c0,0,5.703-2.607,5.811-3.855c-0.812-1.303-4.262-3.203-6.34-2.607
				C574.922,239.91,573.888,245.938,576.169,246.045z"/>
			<path fill="#F9EBD7" d="M576.504,243.918c0,0,5.447-1.014,5.476-1.729c-0.812-1.303-4.262-3.203-6.34-2.607
				C574.922,239.91,574.222,243.811,576.504,243.918z"/>
			<path fill="#C6B099" d="M576.233,246.375l-0.079-0.002c-0.577-0.025-1.322-0.365-1.597-1.828
				c-0.355-1.826,0.207-4.924,0.946-5.26c0.338-0.1,0.66-0.143,1.005-0.143c2.092,0,4.958,1.605,5.748,2.877l0.06,0.092
				l-0.013,0.109c-0.112,1.33-4.62,3.492-6.002,4.125L576.233,246.375z M575.779,239.885c-0.345,0.344-1.022,3.295-0.478,4.959
				c0.237,0.738,0.612,0.852,0.807,0.873c2.52-1.164,5.238-2.756,5.523-3.461c-0.74-1.012-3.209-2.459-5.123-2.459
				C576.246,239.797,575.996,239.824,575.779,239.885z"/>
		</g>
		<g>
			<g>
				<path fill="#6BAA11" d="M395.717,276.602c0,0-3.515-2.961-16.263,25.232c-5.57,12.713-12.09,49.703-53.973,39.273
					c-9.614-3.262-18.742-10.756-7.171-15.971c9.778-6.844,14.502-29.986,27.051-40.412c8.799-6.684,19.23-14.85,19.395-22.908
					C372.251,263.211,395.717,276.602,395.717,276.602z"/>
			</g>
			<g>
				<path fill="#7AC222" d="M331.61,336.943c1.303-3.914,5.114-4.312,8.374-2.354c7.168,3.912,14.87-3.912,19.231-9.422
					c15.778-20.359,8.256-31.932,25.093-46.266c-14.504-4.066-14.75-5.715-20.216-13.645c-2.437,6.908-11.179,13.734-18.729,19.467
					c-12.549,10.426-17.273,33.568-27.051,40.412c-0.114,0.051,5.813,1.303,4.493,7.547
					C327.167,330.678,332.155,333.791,331.61,336.943z"/>
				<path fill="#87C928" d="M332.155,333.791c1.303-3.912,3.52-4.85,6.78-2.896c7.172,3.908,16.317-4.969,19.581-10.836
					c9.774-16.295,8.196-26.822,20.86-40.242c-9.571-3.697-11.469-6.533-15.271-11.605c-2.44,6.91-9.583,11.869-17.134,17.6
					c-12.55,10.428-14.389,31.43-24.166,38.275c-0.114,0.047,3.072,0.672,1.755,6.918
					C328.918,328.996,332.698,330.643,332.155,333.791z"/>
				<path fill="#85B82B" d="M395.654,276.564c0.038,0.021,0.062,0.037,0.062,0.037S395.694,276.582,395.654,276.564z"/>
			</g>
			<g>
				<path fill="#2C770A" d="M339.189,343.266c-4.246,0-8.884-0.621-13.786-1.842c-6.255-2.119-12.631-6.131-12.832-10.334
					c-0.119-2.422,1.767-4.521,5.604-6.25c4.595-3.225,8.147-10.332,11.907-17.859c4.189-8.391,8.521-17.061,15.072-22.51
					c8.07-6.125,19.111-14.508,19.274-22.66l0.01-0.385l0.375,0.072c7.319,1.359,29.856,14.133,30.988,14.777
					c0.064,0.029,0.105,0.061,0.124,0.074l-0.372,0.537l-0.044-0.031c-0.022-0.008-0.066-0.018-0.139-0.018
					c-0.714,0-4.805,1.211-15.621,25.129c-0.712,1.629-1.435,3.641-2.271,5.967c-4.75,13.213-12.698,35.324-38.284,35.332
					C339.195,343.266,339.193,343.266,339.189,343.266z M365.066,262.213c-0.499,8.336-11.466,16.666-19.508,22.771
					c-6.431,5.348-10.734,13.959-14.894,22.287c-3.797,7.602-7.383,14.787-12.167,18.135c-3.622,1.635-5.38,3.527-5.275,5.648
					c0.186,3.881,6.541,7.771,12.365,9.744c4.826,1.199,9.411,1.811,13.604,1.811h0.006c25.126,0,32.979-21.844,37.67-34.895
					c0.842-2.34,1.566-4.361,2.291-6.014c9.014-19.941,13.52-24.479,15.477-25.338C390.374,273.969,371.926,263.736,365.066,262.213
					z"/>
			</g>
		</g>
		<g>
			<path fill="#2B700F" d="M355.744,288.941c-2.403,3.117-5.265,4.945-6.394,4.076c-1.125-0.867-0.091-4.104,2.312-7.223
				c2.405-3.121,5.268-4.949,6.396-4.08C359.182,282.584,358.149,285.82,355.744,288.941z"/>
		</g>
		<g>
			<path fill="#2B700F" d="M352.506,302.332c-1.265,1.914-3.458,2.695-4.893,1.75c-1.438-0.951-1.579-3.279-0.315-5.189
				c1.263-1.914,3.458-2.699,4.892-1.748C353.628,298.094,353.771,300.412,352.506,302.332z"/>
		</g>
		<g>
			
				<ellipse transform="matrix(0.8978 0.4404 -0.4404 0.8978 169.7314 -118.0993)" fill="#2B700F" cx="339.316" cy="306.645" rx="2.461" ry="3.498"/>
		</g>
		<g>
			<path fill="#2B700F" d="M345.167,297.859c-1.851,3.133-4.341,5.098-5.568,4.373c-1.222-0.723-0.715-3.85,1.136-6.986
				s4.343-5.098,5.566-4.375C347.528,291.592,347.017,294.721,345.167,297.859z"/>
		</g>
		<g>
			<path fill="#2B700F" d="M323.158,286.047c-2.214,2.805-5.011,4.293-6.247,3.316c-1.237-0.971-0.446-4.043,1.767-6.848
				c2.217-2.809,5.013-4.293,6.25-3.32C326.165,280.174,325.373,283.242,323.158,286.047z"/>
		</g>
		<g>
			<path fill="#2B700F" d="M331.736,280.125c-1.009,1.885-2.691,2.941-3.762,2.373c-1.071-0.576-1.124-2.566-0.119-4.449
				c1.007-1.879,2.69-2.941,3.762-2.367C332.688,276.256,332.742,278.244,331.736,280.125z"/>
		</g>
		<g>
			<path fill="#2B700F" d="M326.996,292.002c-1.314,2.299-3.2,3.695-4.218,3.115c-1.015-0.584-0.773-2.916,0.54-5.219
				c1.311-2.299,3.198-3.689,4.216-3.109C328.549,287.367,328.308,289.701,326.996,292.002z"/>
		</g>
		<g>
			<path fill="#2B700F" d="M314.935,295.285c-0.946,1.568-2.464,2.395-3.389,1.834c-0.926-0.555-0.909-2.283,0.037-3.854
				c0.947-1.572,2.464-2.395,3.389-1.838C315.897,291.984,315.88,293.711,314.935,295.285z"/>
		</g>
		<g>
			<path fill="#E8D0B1" d="M332.49,347.135c0,0-0.165-8.309,1.628-8.473c1.793-0.16,5.692,0.477,6.03,4.225
				C340.482,346.637,332.49,347.135,332.49,347.135z"/>
			<path fill="#F9EBD7" d="M332.49,347.135c0,0,0.126-7.484,1.628-8.473c0.53-0.35,4.158,1.396,4.158,3.996
				C338.276,345.084,332.49,347.135,332.49,347.135z"/>
			<path fill="#C6B099" d="M332.17,347.482l-0.008-0.34c-0.039-2.021-0.016-8.629,1.927-8.807c0.17-0.012,0.356-0.023,0.559-0.023
				c2.499,0,5.522,1.191,5.822,4.547c0.069,0.756-0.157,1.441-0.674,2.047c-1.886,2.191-7.067,2.541-7.287,2.559L332.17,347.482z
				 M334.647,338.965c-0.18,0-0.348,0.01-0.5,0.021c-0.891,0.082-1.378,4.047-1.34,7.795c1.175-0.115,5.046-0.617,6.493-2.299
				c0.404-0.471,0.578-0.984,0.522-1.564C339.48,339.078,335.142,338.965,334.647,338.965z"/>
		</g>
		<g>
			<path fill="#E8D0B1" d="M309.022,336.543c0,0,4.074-6.842,6.846-7.66c1.954-1.301,5.909,7.736,1.954,7.66
				C314.399,336.707,309.022,336.543,309.022,336.543z"/>
			<path fill="#F9EBD7" d="M309.022,336.543c0,0,3.55-5.453,5.479-6.891c1.955-1.301,5.158,5.416,1.203,5.344
				C310.316,335.125,309.022,336.543,309.022,336.543z"/>
			<path fill="#C6B099" d="M314.02,336.943c-2.581,0-4.981-0.07-5.008-0.074l-0.552-0.018l0.284-0.475
				c0.168-0.281,4.128-6.895,6.986-7.789c0.171-0.107,0.357-0.158,0.556-0.158c1.613,0,3.556,3.764,3.556,6.131
				c0,1.469-0.718,2.309-1.972,2.312C316.824,336.92,315.539,336.943,314.02,336.943z M309.595,336.234
				c0.862,0.018,2.6,0.057,4.424,0.057c1.51,0,2.784-0.025,3.789-0.072h0.001c0.395,0,1.379-0.006,1.379-1.658
				c-0.001-2.311-1.852-5.479-2.904-5.479c-0.085,0-0.164,0.025-0.236,0.072l-0.091,0.043
				C313.755,329.848,310.571,334.684,309.595,336.234z"/>
		</g>
		<g>
			<path fill="#E8D0B1" d="M293.54,309.004c0,0-7.168,5.543-7.006,7.66c0.163,1.467,9.289-0.652,10.757-1.957
				C298.756,313.402,296.964,307.861,293.54,309.004z"/>
			<path fill="#F9EBD7" d="M294.356,313.729c1.303-2.201,0.611-4.484-1.114-4.49c-1.352,1.072-6.852,5.566-6.708,7.426
				c0.011,0.1,0.069,0.184,0.16,0.252C289.845,316.688,293.292,314.82,294.356,313.729z"/>
			<path fill="#C6B099" d="M287.969,317.486L287.969,317.486c-0.415,0-1.672,0-1.759-0.789c-0.174-2.24,6.382-7.373,7.131-7.951
				l0.096-0.053c0.34-0.111,0.68-0.17,1.01-0.17c1.666,0,2.805,1.438,3.316,2.777c0.571,1.508,0.466,3.012-0.257,3.65
				C296.333,315.994,290.717,317.486,287.969,317.486z M286.858,316.639c0.005,0,0.16,0.195,1.111,0.195
				c2.715,0,8.138-1.514,9.103-2.369c0.51-0.451,0.542-1.713,0.081-2.93c-0.434-1.145-1.373-2.359-2.706-2.359
				c-0.243,0-0.495,0.043-0.751,0.121C290.976,311.406,286.75,315.232,286.858,316.639L286.858,316.639z"/>
		</g>
		<g>
			<path fill="#E8D0B1" d="M301.688,316.5c0,0-0.115,0.102-0.306,0.283c-1.004,0.955-4.103,4.148-3.579,6.887
				c2.418,0.65,6.98-1.303,7.959-2.605C306.739,319.76,305.6,315.359,301.688,316.5z"/>
			<path fill="#F9EBD7" d="M301.382,316.783c-1.004,0.955-4.103,4.148-3.579,6.887c2.096-0.07,5.674-1.932,6.248-3.453
				C305.212,317.129,301.574,316.602,301.382,316.783z"/>
			<path fill="#C6B099" d="M298.901,324.127L298.901,324.127c-0.436,0-0.836-0.049-1.182-0.139l-0.196-0.055l-0.038-0.201
				c-0.559-2.906,2.669-6.232,3.672-7.184c0.197-0.191,0.317-0.295,0.317-0.295l0.121-0.066c1.912-0.557,3.557,0.121,4.368,1.742
				c0.582,1.164,0.608,2.598,0.06,3.332C305.084,322.508,301.462,324.127,298.901,324.127z M298.093,323.404
				c0.244,0.043,0.512,0.068,0.808,0.068c2.474,0,5.864-1.621,6.601-2.605c0.349-0.461,0.4-1.605-0.121-2.646
				c-0.296-0.59-1.008-1.582-2.475-1.582c-0.329,0-0.688,0.049-1.057,0.154c-0.051,0.045-0.132,0.123-0.244,0.225
				C300.688,317.891,297.789,320.863,298.093,323.404z"/>
		</g>
		<g>
			<g>
				<path fill="#B24B04" d="M349.439,235.834c0,0-1.306-32.102,10.589-47.095c9.941-8.964,24.936-15.481,33.246-16.459
					c7.173,3.586,23.628,16.947,26.887,24.934c0.978,12.714,2.119,53.631-1.954,66.74
					C402.236,264.68,370.948,257.672,349.439,235.834z"/>
			</g>
			<g>
				<path fill="#CC5700" d="M349.439,235.834c0,0-1.306-32.102,10.589-47.095c9.941-8.964,24.936-15.481,33.246-16.459
					c7.173,3.586,22.108,18.994,25.365,26.98c0.979,12.71,1.979,44.749-2.095,57.86
					C400.574,257.846,371.895,249.586,349.439,235.834z"/>
			</g>
			<g>
				<path fill="#DD6E0A" d="M352.478,233.447c0,0-2.335-28.079,9.562-43.072c9.942-8.963,22.432-15.061,30.747-16.038
					c7.171,3.583,20.938,17.66,24.199,25.647c0.972,12.709,0.944,41.479-3.129,54.592
					C397.886,255.301,374.936,247.195,352.478,233.447z"/>
			</g>
			<g>
				<path fill="#823907" d="M415.913,264.33c-14.437,0-44.729-5.953-66.708-28.266l-0.087-0.092l-0.007-0.125
					c-0.013-0.322-1.172-32.396,10.662-47.312c9.972-8.995,25.124-15.599,33.465-16.579l0.097-0.013l0.085,0.045
					c7.04,3.519,23.676,16.843,27.045,25.102l0.022,0.098c1.062,13.811,2.036,53.974-1.967,66.861l-0.07,0.219l-0.229,0.012
					C417.479,264.311,416.703,264.33,415.913,264.33z M349.757,235.695c19,19.223,47.596,27.98,66.156,27.98
					c0.699,0,1.39-0.012,2.049-0.037c3.896-13.023,2.932-52.609,1.882-66.351c-3.236-7.812-19.537-21.085-26.63-24.672
					c-8.263,1.008-23.167,7.529-32.968,16.366C348.969,203.203,349.691,233.492,349.757,235.695z"/>
			</g>
		</g>
		<g>
			<g>
				<path fill="#CC5700" d="M495.939,220.885c0,0,12.168-18.979,19.555-20.063c-4.891-9.886-4.726-20.828-4.835-26.044
					c-6.953-5.323-13.253-10.972-16.296-11.189c-1.845,4.24-5.978,19.343-9.396,22.11
					C487.304,192.053,496.427,210.929,495.939,220.885z"/>
			</g>
		</g>
		<g>
			<g>
				<path fill="#B53D00" d="M496.587,217.826c0,0,9.001-16.918,16.389-18.007c-4.889-9.886-3.321-18.985-3.432-24.197
					c-6.954-5.326-11.378-10.213-14.419-10.431c-1.852,4.237-5.221,17.762-8.642,20.531
					C488.822,192.078,497.077,207.874,496.587,217.826z"/>
			</g>
		</g>
		<g>
			<g>
				<path fill="#CC5700" d="M490.887,185.534c0,0,6.3,13.473,7.717,20.534c2.932-2.935,4.599-8.91,10.355-9.397
					c-3.586-5.164-1.954-11.84-1.562-17.98c-3.581-1.957-8.581-6.52-9.666-7.497C496.97,173.91,492.411,184.557,490.887,185.534z"/>
			</g>
		</g>
		<g>
			<g>
				<path fill="#DD6E0A" d="M492.679,185.723c0,0,4.902,10.948,6.314,18.01c2.934-2.936,2.024-6.987,7.779-7.478
					c-3.581-5.162-0.965-10.417-0.567-16.561c-3.586-1.954-7.062-6.031-8.146-7.006C497.294,175.402,494.2,184.746,492.679,185.723z
					"/>
			</g>
		</g>
		<g>
			<g>
				<path fill="#CC5700" d="M495.558,188.63c0,0,3.586,5.962,3.801,7.624c2.284-2.03,3.206-4.487,3.751-4.379
					c-1.63-1.954,0.162-5.893,0.27-8.126c-2.934-2.017-3.911-3.648-5.105-4.516C498.273,182.057,496.645,187.382,495.558,188.63z"/>
			</g>
		</g>
		<g>
			<g>
				<path fill="#B53D00" d="M496.67,188.322c0,0,2.841,4.13,3.056,5.795c2.281-2.029,1.452-2.716,1.997-2.606
					c-1.63-1.959,0.382-4.938,0.489-7.171c-2.934-2.015-2.131-3.206-3.326-4.074C498.886,183.089,497.757,187.072,496.67,188.322z"
					/>
			</g>
		</g>
		<g>
			<g>
				<path fill="#CC5700" d="M472.524,177.821c0,0,2.937-19.012,10.216-27.703c2.389-2.716-23.033-23.577-38.024-19.122
					c2.062,4.237,7.603,22.272,5.213,36.396C455.252,168.587,464.268,169.455,472.524,177.821z"/>
			</g>
		</g>
		<g>
			<g>
				<path fill="#B53D00" d="M471.819,175.622c0,0,1.765-16.487,9.044-25.179c2.39-2.715-21.346-21.185-34.056-18.414
					c2.064,4.235,6.787,20.179,4.396,34.301C456.528,167.528,463.563,167.255,471.819,175.622z"/>
			</g>
		</g>
		<g>
			<g>
				<path fill="#CC5700" d="M454.058,158.591c0,0,11.952,4.997,14.993,9.561c-0.109-7.497,1.412-19.012,4.886-21.402
					c-7.709-4.455-13.687-8.798-19.337-9.777C455.469,141.752,455.252,152.725,454.058,158.591z"/>
			</g>
		</g>
		<g>
			<g>
				<path fill="#CC6600" d="M455.359,157.694c0,0,9.344,3.504,12.387,8.066c-0.107-7.496,0.76-16.268,4.236-18.659
					c-7.715-4.455-10.486-7.741-16.134-8.719C456.719,143.163,456.554,151.827,455.359,157.694z"/>
			</g>
		</g>
		<g>
			<g>
				<path fill="#DD6E0A" d="M456.993,155.005c0,0,4.233-4.997,3.149-11.623c3.908,2.39,8.039,4.235,8.039,4.235
					c-2.392,2.609-3.321,2.609-4.376,11.734C462.206,157.288,459.41,154.741,456.993,155.005z"/>
			</g>
		</g>
		<g>
			<g>
				<path fill="#B53D00" d="M459.03,154.097c0,0,2.876-2.648,1.789-9.277c3.913,2.391,6.03,3.016,6.03,3.016
					c-2.392,2.608-2.852,0.57-3.911,9.697C461.339,155.468,461.444,153.832,459.03,154.097z"/>
			</g>
		</g>
		<g>
			<g>
				<path fill="#CC5700" d="M390.61,132.408c0,0,11.081,18.252,12.386,36.614c3.695,2.498,14.568,10.551,18.095,14.727
					c2.656-2.886,9.823-8.644,16.128-11.469c1.41-1.085-5.218-43.021-5.978-44C425.704,127.085,409.843,122.739,390.61,132.408z"/>
			</g>
		</g>
		<g>
			<g>
				<path fill="#B53D00" d="M392.461,133.008c0,0,10.51,16.023,11.81,34.384c3.698,2.498,13.294,9.837,16.82,14.013
					c2.656-2.885,8.252-7.387,14.552-10.21c1.412-1.087-4.698-40.468-5.458-41.446C424.642,128.553,411.688,123.336,392.461,133.008
					z"/>
			</g>
		</g>
		<g>
			<g>
				<path fill="#CC5700" d="M402.996,134.799h21.186c2.717,5.107,7.933,17.274,7.06,31.289c-2.389,0.217-8.459,3.911-10.15,6.191
					c-2.451-2.607-8.644-7.061-12.662-9.233C408.971,158.265,409.405,144.142,402.996,134.799z"/>
			</g>
		</g>
		<g>
			<g>
				<path fill="#DD6E0A" d="M405.657,136.429l17.601-0.164c2.716,5.107,7.304,14.423,6.437,28.436
					c-2.389,0.219-6.912,3.261-8.604,5.542c-2.451-2.607-7.744-6.544-11.768-8.718C409.868,156.744,412.069,145.772,405.657,136.429
					z"/>
			</g>
		</g>
		<g>
			<g>
				<path fill="#CC5700" d="M412.992,141.861c0,0,2.451,10.504,0.432,16.73c2.719,0.76,6.303,1.738,8.149,4.997
					c0.649-2.063,2.716-4.888,3.804-6.3c0.76-0.868-3.691-12.168-2.821-15.427C419.074,141.861,412.992,141.861,412.992,141.861z"/>
			</g>
		</g>
		<g>
			<g>
				<path fill="#B53D00" d="M414.156,142.783c0,0,2.646,8.143,0.627,14.37c2.719,0.761,4.461,1.527,6.308,4.787
					c0.652-2.065,2.057-3.523,3.144-4.937c0.763-0.869-3.681-10.796-2.813-14.054C417.944,142.949,414.156,142.783,414.156,142.783z
					"/>
			</g>
		</g>
		<g>
			<g>
				<path fill="#CC5700" d="M410.522,251.965c0,0-24.146,4.562-52.007-20.695c-5.218-4.236,2.817-35.523,6.077-38.13
					c3.256-3.26,10.874-11.452,28.029-15.319c2.933,3.422,17.866,20.939,23.924,24.076
					C414.456,211.23,409.843,237.139,410.522,251.965z"/>
			</g>
		</g>
		<g>
			<g>
				<path fill="#B53D00" d="M408.591,249.768c0,0-20.371,5.457-48.235-19.797c-5.214-4.24,1.875-33.817,5.133-36.424
					c3.259-3.261,9.813-10.446,26.973-14.314c2.932,3.421,16.345,20.139,22.405,23.275
					C412.774,211.836,407.911,234.936,408.591,249.768z"/>
			</g>
		</g>
		<g>
			<g>
				<path fill="#CC5700" d="M403.57,244.668c0,0-26.595-1.781-37.512-17.693c0.489-4.504,5.946-29.027,6.232-32.735
					c4.85-3.058,15.482-9.037,16.908-10.491c2.316,4.122,14.34,19.007,19.393,23.079C406.31,213.019,401.009,229.123,403.57,244.668
					z"/>
			</g>
		</g>
		<g>
			<g>
				<path fill="#DD6E0A" d="M401.563,242.436c0,0-22.876-0.307-33.793-16.213c0.49-4.506,5.742-27.318,6.031-31.024
					c4.849-3.059,13.809-7.517,15.232-8.973c2.318,4.124,13.041,17.584,18.091,21.661
					C404.843,214.079,399.003,226.889,401.563,242.436z"/>
			</g>
		</g>
		<g>
			<g>
				<path fill="#CC5700" d="M395.067,233.936c0,0-15.804-4.426-20.535-15.377c1.306-5.047,5.443-14.927,4.922-17.405
					c2.738-1.334,7.789-4.184,8.766-6.915c2.608,5.255,8.15,14.968,11.57,17.528C397.676,214.649,394.639,224.408,395.067,233.936z"
					/>
			</g>
		</g>
		<g>
			<g>
				<path fill="#B53D00" d="M393.681,231.434c0,0-12.97-2.34-17.702-13.291c1.307-5.054,5.104-14.136,4.585-16.611
					c2.736-1.333,6.68-2.682,7.656-5.416c2.608,5.255,6.485,12.792,9.905,15.353C396.007,214.349,393.252,221.91,393.681,231.434z"
					/>
			</g>
		</g>
		<g>
			<g>
				<path fill="#CC5700" d="M389.198,218.559c0,0,0.378-5.762,1.412-6.792c-1.74-2.656-3.448-7.393-3.448-7.393
					C384.801,207.806,376.322,213.347,389.198,218.559z"/>
			</g>
		</g>
		<g>
			<g>
				<path fill="#DD6E0A" d="M388.22,216.85c0,0,0.437-4.353,1.468-5.381c-1.738-2.657-2.633-5.454-2.633-5.454
					C384.69,209.44,379.375,212.777,388.22,216.85z"/>
			</g>
		</g>
		<g>
			<g>
				<path fill="#CC5700" d="M426.523,253.275c0,0,29.448,1.789,56.112-17.441c-7.07-28.193-7.07-36.777-10.488-39.164
					c-3.424-2.389-23.796-11.518-23.796-11.518c-8.006,3.405-23.627,13.037-23.627,13.037
					C427.823,209.762,428.812,236.646,426.523,253.275z"/>
			</g>
		</g>
		<g>
			<g>
				<path fill="#B53D00" d="M427.983,250.99c0,0,25.974,2.703,52.638-16.527c-7.069-28.19-6.032-33.884-9.456-36.273
					c-3.419-2.389-22.896-11.325-22.896-11.325c-8.004,3.403-22.078,12.302-22.078,12.302
					C429.287,210.74,430.272,234.367,427.983,250.99z"/>
			</g>
		</g>
		<g>
			<g>
				<path fill="#CC5700" d="M435.235,198.167c0,0,4.561,30.147,1.139,43.184c12.386,1.789,31.46-0.701,36.995-7.441
					c-0.327-12.115-2.609-32.322-6.522-33.952c-3.908-1.629-18.412-9.232-18.412-9.232
					C443.706,193.602,438.653,197.027,435.235,198.167z"/>
			</g>
		</g>
		<g>
			<g>
				<path fill="#DD6E0A" d="M436.622,199.25c0,0,4.315,27.868,0.895,40.907c12.388,1.787,28.608-0.762,34.148-7.496
					c-0.333-12.119-1.962-29.987-5.875-31.616c-3.911-1.631-17.11-8.809-17.11-8.809C443.954,195.116,440.04,198.107,436.622,199.25
					z"/>
			</g>
		</g>
		<g>
			<g>
				<path fill="#CC5700" d="M440.205,204.375c0,0,5.378-6.622,6.521-7.704c5.542,2.989,15.318,9.344,17.435,10.485
					c1.143,8.961,0,20.917,0,23.899c-5.213,1.523-18.904,1.633-21.836,2.881C443.304,227.523,443.464,207.628,440.205,204.375z"/>
			</g>
		</g>
		<g>
			<g>
				<path fill="#B53D00" d="M442,205.035c0,0,4.073-5.741,5.213-6.83c5.54,2.989,13.524,8.787,15.644,9.928
					c1.142,8.96-0.402,18.687-0.402,21.673c-5.219,1.516-15.646,0.953-18.583,2.197C444.849,225.596,445.256,208.289,442,205.035z"
					/>
			</g>
		</g>
		<g>
			<g>
				<path fill="#CC5700" d="M449.332,206.068c0,0,0,8.137-1.468,13.168c2.119,2.256,2.282,3.398,3.259,5.516
					c2.282-0.812,3.074-3.441,6.181-3.594c0.827-5.041,0-9.391,0-9.391C453.405,209.599,451.123,207.262,449.332,206.068z"/>
			</g>
		</g>
		<g>
			<g>
				<path fill="#DD6E0A" d="M450.063,207.481c0,0,0.328,6.05-1.142,11.078c2.119,2.26,1.552,2.934,2.529,5.053
					c2.278-0.812,1.779-3.268,4.888-3.42c0.827-5.041,0-7.579,0-7.579C452.438,210.444,451.86,208.675,450.063,207.481z"/>
			</g>
		</g>
		<g>
			<g>
				<g>
					<path fill="#B24B04" d="M403.333,259.779c-18.255-3.191-30.143-12.055-39.906-20.336c-0.741,4.58-2.866,14.137-8.087,18.809
						c5.637,5.141,13.165,10.883,23.539,15.162c5.641,2.834,13.582,5.057,22.685,6.402
						C403.985,274.217,403.69,264.67,403.333,259.779z"/>
				</g>
				<g>
					<path fill="#CC5700" d="M402.931,274.91c0.897-5.258,0.667-11.484,0.402-15.131c-18.255-3.191-30.143-12.055-39.906-20.336
						c-0.577,3.572-2.005,10.154-5.076,15.102C370.027,266.357,386.604,272.629,402.931,274.91z"/>
				</g>
				<g>
					<path fill="#DD6E0A" d="M400.39,271.359c0.902-5.252,0.972-6.785,0.704-10.428c-18.251-3.193-26.685-8.773-36.448-17.059
						c-0.58,3.572-1.219,6.283-2.931,9.443C373.388,265.129,384.062,269.086,400.39,271.359z"/>
				</g>
				<g>
					<path fill="#823907" d="M401.764,280.178l-0.245-0.035c-9.254-1.369-17.132-3.59-22.787-6.434
						c-8.619-3.557-16.131-8.396-23.611-15.211l-0.266-0.246l0.269-0.244c5.239-4.693,7.33-14.582,7.982-18.617l0.095-0.572
						l0.441,0.371c9.559,8.117,21.308,17.047,39.749,20.273l0.249,0.045l0.021,0.25c0.372,5.133,0.637,14.57-1.794,20.188
						L401.764,280.178z M355.822,258.252c7.336,6.641,14.713,11.371,23.181,14.867c5.563,2.789,13.287,4.98,22.358,6.336
						c2.234-5.422,2.02-14.348,1.662-19.398c-18.176-3.24-29.862-11.963-39.367-19.996
						C362.777,245.158,360.649,253.693,355.822,258.252z"/>
				</g>
			</g>
			<g>
				<g>
					<path fill="#B24B04" d="M522.284,190.75c0.212,3.761,0.747,8.054,1.267,11.146c2.736-2.26,6.975-4.602,13.149-5.227
						C532.492,194.372,527.406,192.374,522.284,190.75z"/>
				</g>
				<g>
					<path fill="#CC5700" d="M523.551,201.897c2.074-1.715,5.021-3.475,9.014-4.499c-3.059-1.951-6.47-3.194-10.113-4.328
						C522.709,196.191,523.131,199.426,523.551,201.897z"/>
				</g>
				<g>
					<path fill="#CC6600" d="M523.551,201.897c1.069-2.565,1.555-3.962,5.553-4.986c-2.364-1.003-5.638-3.283-6.652-3.841
						C522.709,196.191,523.131,199.426,523.551,201.897z"/>
				</g>
				<g>
					<path fill="#823907" d="M523.323,202.508l-0.098-0.558c-0.459-2.749-1.039-7.134-1.267-11.185l-0.027-0.47l0.449,0.142
						c5.588,1.774,10.594,3.831,14.477,5.945l0.925,0.502l-1.047,0.108c-5.101,0.52-9.469,2.252-12.979,5.153L523.323,202.508z
						 M522.636,191.204c0.228,3.625,0.72,7.458,1.145,10.087c3.286-2.581,7.268-4.198,11.848-4.823
						C532.035,194.603,527.577,192.792,522.636,191.204z"/>
				</g>
			</g>
			<g>
				<g>
					<path fill="#B24B04" d="M363.427,239.443c-8.408-7.137-15.246-13.838-23.226-16.104c-3.868-0.992-7.067-0.76-9.706,0.152
						c-0.833,3.938-0.752,11.223,6.358,20.891c1.998,0.594,3.782,1.15,5.088,1.672c2.941,1.197,6.93,6.301,13.398,12.197
						C360.561,253.58,362.686,244.023,363.427,239.443z"/>
				</g>
				<g>
					<path fill="#CC5700" d="M340.201,223.34c-3.868-0.992-7.067-0.76-9.706,0.152c-0.565,2.674-0.708,6.896,1.489,12.361
						c12.778-4.582,17.088,14.83,26.366,18.691c3.079-5.916,4.438-11.164,5.076-15.102
						C355.019,232.307,348.181,225.605,340.201,223.34z"/>
				</g>
				<g>
					<path fill="#DD6E0A" d="M340.526,224.641c-1.557-0.398-4.316-1.234-6.952-0.318c-0.566,2.672-0.958,4.148,1.237,9.613
						c10.892-2.123,15.818,13.547,22.348,16.748c3.083-5.916,3.263-7.303,3.902-11.24
						C352.651,232.307,348.559,226.721,340.526,224.641z"/>
				</g>
				<g>
					<path fill="#823907" d="M355.336,258.691l-0.216-0.193c-2.44-2.23-4.512-4.324-6.337-6.166c-2.9-2.936-5.193-5.252-6.967-5.977
						c-1.244-0.5-2.918-1.023-5.057-1.662l-0.104-0.033l-0.066-0.088c-6.989-9.502-7.344-16.744-6.411-21.15l0.037-0.18l0.176-0.061
						c2.962-1.027,6.301-1.076,9.892-0.156c6.895,1.959,12.862,7.119,19.776,13.092c1.163,1.01,2.355,2.037,3.581,3.072l0.139,0.125
						l-0.031,0.18c-0.826,5.096-2.993,14.34-8.19,19.004L355.336,258.691z M337.049,244.1c2.103,0.631,3.765,1.15,5.013,1.648
						c1.9,0.777,4.113,3.018,7.184,6.123c1.766,1.783,3.757,3.801,6.094,5.939c5.003-4.699,7.059-14.154,7.737-18.238
						c-1.177-1.002-2.321-1.99-3.446-2.959c-6.854-5.928-12.771-11.039-19.517-12.961c-3.38-0.863-6.533-0.838-9.335,0.09
						C330.073,227.295,330.032,234.51,337.049,244.1z"/>
				</g>
			</g>
			<g>
				<g>
					<path fill="#B24B04" d="M330.496,223.492c-8.323,2.879-10.993,12.609-10.993,12.609c0.462,3.52,10.253,6.162,17.352,8.281
						C329.743,234.715,329.663,227.43,330.496,223.492z"/>
				</g>
				<g>
					<path fill="#CC5700" d="M331.985,235.854c-2.053-5.295-2.042-9.746-1.489-12.361c-8.323,2.879-10.993,12.609-10.993,12.609
						c0.244,1.869,3.124,3.49,6.833,4.918C327.62,238.656,329.229,236.906,331.985,235.854z"/>
				</g>
				<g>
					<path fill="#DD6E0A" d="M329.802,234.873c-2.049-5.293-1.927-5.764-1.372-8.379c-4.804,2.971-6.589,9.447-6.589,9.447
						c0.96,1.406,3.901,2.715,4.456,2.68C327.579,236.256,328.178,235.633,329.802,234.873z"/>
				</g>
				<g>
					<path fill="#823907" d="M337.692,244.971l-2.45-0.727c-7.316-2.164-15.607-4.619-16.062-8.098l-0.01-0.066l0.018-0.062
						c0.026-0.098,2.815-9.932,11.204-12.836l0.543-0.188l-0.12,0.564c-0.74,3.5-0.909,10.828,6.3,20.629L337.692,244.971z
						 M319.835,236.125c0.517,3.035,9.222,5.607,15.593,7.492l0.603,0.18c-6.167-8.723-6.721-15.482-5.964-19.797
						C322.76,226.879,320.081,235.301,319.835,236.125z"/>
				</g>
			</g>
			<g>
				<g>
					<path fill="#B24B04" d="M445.498,257.568c-0.625,0.191-1.247,0.385-1.871,0.566c-16.291,3.447-29.416,3.553-40.294,1.645
						c0.357,4.891,0.652,14.438-1.77,20.037c16.791,2.484,37.532,1.969,55.083-3.215
						C453.515,263.84,448.802,259.223,445.498,257.568z"/>
				</g>
				<g>
					<path fill="#CC5700" d="M455.396,272.176c-2.988-8.643-7.127-13.219-9.898-14.607c-0.625,0.191-1.247,0.385-1.871,0.566
						c-16.291,3.447-29.416,3.553-40.294,1.645c0.263,3.633,0.495,9.836-0.393,15.078
						C407.124,277.662,439.076,279.135,455.396,272.176z"/>
				</g>
				<g>
					<path fill="#DD6E0A" d="M451.233,270.055c-2.989-8.641-4.565-10.426-8.364-9.559c-16.296,3.447-25.852,3.225-36.722,1.32
						c0.262,3.635,0.89,6.406,0,11.652C423.558,275.242,434.99,275.107,451.233,270.055z"/>
				</g>
				<g>
					<path fill="#823907" d="M421.748,281.582c-0.005,0-0.005,0-0.005,0c-6.939,0-13.747-0.484-20.225-1.439l-0.425-0.062
						l0.173-0.391c2.371-5.494,2.111-14.812,1.742-19.885l-0.03-0.416l0.41,0.074c4.67,0.816,9.636,1.229,14.766,1.229
						c7.829,0,16.381-0.967,25.404-2.879c0.495-0.145,1.02-0.303,1.542-0.463l0.428-0.129l0.117,0.057
						c3.429,1.717,8.18,6.451,11.315,19.244l0.075,0.301l-0.3,0.092C446.397,279.969,434.298,281.582,421.748,281.582z
						 M402.028,279.557c6.325,0.914,12.955,1.373,19.715,1.373c12.372,0,24.295-1.572,34.508-4.555
						c-3.038-12.182-7.512-16.766-10.785-18.455l-0.175,0.051c-0.527,0.164-1.05,0.324-1.574,0.477
						c-9.092,1.922-17.686,2.896-25.562,2.896c-5.015,0-9.878-0.395-14.464-1.17C404.038,265.262,404.221,274.051,402.028,279.557z"
						/>
				</g>
			</g>
			<g>
				<g>
					<path fill="#B24B04" d="M536.7,196.67c-6.175,0.625-10.413,2.966-13.149,5.227c0.013,0.079,0.025,0.164,0.042,0.244
						c-3.82,6.875-8.811,13.254-14.634,19.1c5.179-0.334,14.317,0.141,23.99,5.625c7.312-8.162,12.19-14.611,13.669-16.56
						C548.353,205.169,543.747,200.506,536.7,196.67z"/>
				</g>
				<g>
					<path fill="#CC5700" d="M541.044,207.303c1.988-5.406-3.916-9.098-7.927-10.038c-4.278,1-7.397,2.839-9.566,4.632
						c0.013,0.079,0.025,0.164,0.042,0.244c-3.82,6.875-8.811,13.254-14.634,19.1c4.278-0.277,11.261,0.008,19.013,3.203
						C531.428,226.408,538.375,214.563,541.044,207.303z"/>
				</g>
				<g>
					<path fill="#DD6E0A" d="M538.47,207.887c1.989-5.407-2.842-9.208-5.521-8.555c-4.275,0.998-7.759,3.18-7.749,3.259
						c-3.813,6.875-6.402,11.105-12.225,16.948c4.277-0.275,7.244-1.309,14.996,1.889
						C534.556,217.133,535.798,215.144,538.47,207.887z"/>
				</g>
				<g>
					<path fill="#823907" d="M533.02,227.277l-0.232-0.129c-8.252-4.682-16.121-5.666-21.264-5.666c-0.857,0-1.715,0.031-2.547,0.08
						l-0.856,0.059l0.609-0.613c5.982-6.002,10.868-12.37,14.521-18.927l-0.05-0.316l0.143-0.119
						c3.608-2.986,8.094-4.771,13.324-5.3l0.103-0.013l0.087,0.05c8.182,4.458,11.665,9.306,10.068,14.026l-0.104,0.17
						c-1.584,2.087-6.4,8.44-13.63,16.502L533.02,227.277z M511.523,220.83c5.178,0,13.062,0.98,21.358,5.621
						c7.112-7.949,11.855-14.202,13.417-16.266l0.03-0.035c1.807-5.482-4.243-10.166-9.693-13.146
						c-4.988,0.523-9.274,2.212-12.735,5.025l0.03,0.166l-0.055,0.103c-3.566,6.425-8.307,12.67-14.092,18.569
						C510.358,220.844,510.941,220.83,511.523,220.83z"/>
				</g>
			</g>
			<g>
				<g>
					<path fill="#B24B04" d="M479.854,242.904c-11.103,6.252-22.93,11.186-34.355,14.664c3.304,1.654,8.017,6.271,11.148,19.033
						c0.51-0.152,1.029-0.301,1.539-0.463c15.023-2.178,29.657-9.965,42.572-19.482C493.413,245.32,484.494,243.176,479.854,242.904
						z"/>
				</g>
				<g>
					<path fill="#CC5700" d="M479.854,242.904c-11.103,6.252-22.93,11.186-34.355,14.664c2.889,1.447,6.857,5.162,9.898,14.607
						c15.089-3.547,30.497-9.555,42.433-19.479C491.169,244.795,483.893,243.141,479.854,242.904z"/>
				</g>
				<g>
					<path fill="#DD6E0A" d="M479.854,245.178c-11.103,6.252-17.832,9.359-29.255,12.838c2.889,1.443,3.483,3.477,7.074,10.555
						c15.089-3.549,24.32-6.357,36.258-16.283C487.266,244.393,483.893,245.414,479.854,245.178z"/>
				</g>
				<g>
					<path fill="#823907" d="M456.406,277.008l-0.08-0.33c-3.076-12.553-7.667-17.162-10.973-18.814l-0.732-0.365l0.782-0.24
						c11.815-3.596,23.675-8.658,34.293-14.639l0.083-0.045l0.095,0.006c4.716,0.273,13.734,2.447,21.158,13.898l0.165,0.258
						l-0.247,0.182c-14.966,11.031-29.341,17.604-42.72,19.545c-0.332,0.107-0.725,0.225-1.117,0.34L456.406,277.008z
						 M446.333,257.654c3.326,1.975,7.614,6.816,10.543,18.539l0.053-0.018c0.387-0.113,0.777-0.223,1.162-0.35
						c13.247-1.922,27.436-8.398,42.223-19.25c-7.178-10.91-15.799-13.051-20.38-13.34
						C469.519,249.094,457.916,254.072,446.333,257.654z"/>
				</g>
			</g>
			<g>
				<g>
					<path fill="#B24B04" d="M508.959,221.24c-8.339,8.371-18.387,15.627-29.105,21.664c4.641,0.271,13.56,2.416,20.904,13.752
						c12.875-9.496,24.048-20.701,32.191-29.791C523.276,221.381,514.138,220.906,508.959,221.24z"/>
				</g>
				<g>
					<path fill="#CC5700" d="M528.889,224.836c-8.114-3.562-15.488-3.883-19.93-3.596c-8.339,8.371-18.387,15.627-29.105,21.664
						c4.049,0.236,11.346,1.898,18.021,9.84C510.374,246.152,521.654,236.617,528.889,224.836z"/>
				</g>
				<g>
					<path fill="#DD6E0A" d="M522.451,227.627c-8.114-3.564-9.051-2.75-13.492-2.469c-8.339,8.371-11.737,10.604-22.455,16.637
						c4.048,0.236,7.154,2.123,11.88,6.775C510.884,241.979,514.064,237.432,522.451,227.627z"/>
				</g>
				<g>
					<path fill="#823907" d="M500.67,257.123l-0.189-0.289c-7.26-11.211-16.051-13.336-20.644-13.605l-1.107-0.062l0.967-0.547
						c11.336-6.385,21.106-13.654,29.033-21.611l0.088-0.084l0.122-0.012c0.845-0.051,1.714-0.082,2.584-0.082
						c5.223,0,13.207,0.998,21.586,5.75l0.354,0.203l-0.272,0.299c-10.633,11.869-21.48,21.906-32.241,29.836L500.67,257.123z
						 M480.934,242.67c4.875,0.531,13.047,3.115,19.904,13.52c10.54-7.805,21.171-17.639,31.597-29.238
						c-8.127-4.512-15.841-5.469-20.911-5.469c-0.812,0-1.627,0.027-2.419,0.072C501.362,229.305,491.894,236.404,480.934,242.67z"
						/>
				</g>
			</g>
		</g>
		<g>
			<g>
				<g>
					<path fill="#E8B974" d="M338.682,239.418c-5.227-2.068-8.414,0.518-9.954,2.463c4.793,1.627,10.247,2.988,13.213,4.174
						c1.536,0.623,3.357,2.316,5.667,4.629C346.147,246.508,343.749,241.428,338.682,239.418z"/>
				</g>
				<g>
					<path fill="#FAD496" d="M347.046,250.123c0.187,0.188,0.369,0.371,0.563,0.561c-1.462-4.176-3.861-9.256-8.927-11.266
						c-3.941-1.557-6.72-0.473-8.509,0.986C336.867,241.637,343.685,243.684,347.046,250.123z"/>
				</g>
				<g>
					<path fill="#D19C4E" d="M348.389,251.926l-1.012-1.014c-2.446-2.449-4.142-3.982-5.562-4.557
						c-1.604-0.645-4.013-1.357-6.563-2.111c-2.189-0.648-4.456-1.318-6.629-2.055l-0.439-0.148l0.289-0.365
						c1.209-1.525,3.325-3.346,6.527-3.346c1.204,0,2.485,0.266,3.802,0.785c5.312,2.104,7.746,7.547,9.114,11.461L348.389,251.926z
						 M329.283,241.723c2.022,0.674,4.12,1.297,6.153,1.898c2.565,0.758,4.989,1.475,6.626,2.127c1.302,0.529,2.77,1.76,4.735,3.674
						c-1.403-3.602-3.758-7.926-8.238-9.701c-1.236-0.488-2.438-0.738-3.56-0.738C332.303,238.982,330.438,240.4,329.283,241.723z"
						/>
				</g>
			</g>
		</g>
		<g>
			<g>
				<path fill="#6BAA11" d="M241.467,248.434c0,0,9.126-8.184,24.878-2.965L241.467,248.434z"/>
			</g>
			<g>
				<path fill="#87C928" d="M241.467,248.434c0,0,10.844-5.064,24.878-2.965L241.467,248.434z"/>
			</g>
			<g>
				<path fill="#2C770A" d="M241.104,248.693c0,0,4.498-4.166,12.365-5.143c7.654-0.951,13.625,2.152,13.625,2.152
					C251.702,240.609,241.21,248.611,241.104,248.693z"/>
			</g>
		</g>
		<g>
			<path fill="#E8D0B1" d="M317.497,344.693c0,0,4.399-11.752,8.636-7.75C330.369,340.945,328.579,345.342,317.497,344.693z"/>
			<path fill="#F9EBD7" d="M317.497,344.693c0,0,3.837-10.98,7.415-6.381C327.273,341.352,322.425,343.266,317.497,344.693z"/>
			<path fill="#C6B099" d="M319.598,345.084c-0.674,0-1.385-0.023-2.122-0.064l-0.442-0.031l0.157-0.412
				c0.132-0.357,3.336-8.789,7.097-8.789c0.727,0,1.423,0.309,2.069,0.92c1.902,1.795,2.61,3.629,2,5.164
				C327.535,343.941,324.423,345.084,319.598,345.084z M317.967,344.391c5.404,0.252,8.998-0.77,9.786-2.76
				c0.497-1.25-0.174-2.877-1.843-4.449c-0.52-0.492-1.067-0.744-1.622-0.744C321.409,336.438,318.658,342.697,317.967,344.391z"/>
		</g>
		<g>
			<g>
				<g>
					<path fill="#7AC222" d="M197.623,267.658c0,0,0.179-4.613,20.895-1.33c5.459,0.303,19.617-0.59,45.527-12.566
						c0,0-28.573,7.258-39.436,5.863C197.677,258.52,197.623,267.658,197.623,267.658z"/>
					<path fill="#6BAA11" d="M197.623,267.658c0,0,0.179-4.613,20.895-1.33c5.459,0.303,19.617-0.59,45.527-12.566
						c0,0-28.899,9.449-39.763,8.055C197.351,260.711,197.623,267.658,197.623,267.658z"/>
					<path fill="#2C770A" d="M263.928,253.457c-0.075,0.027-8.202,3.59-9.046,3.934c-0.099,0.094-0.099,0.094,0,0
						c-18.236,7.43-29.323,8.654-34.638,8.654c-0.593,0-1.168-0.014-1.673-0.039c-4.873-0.771-9.038-1.158-12.384-1.158
						c-2.856,0-4.656,0.119-6.201,0.666c-2.828,0.998-2.432,2.312-2.432,2.312c0.002-0.029,0.521-2.33,8.633-2.33
						c3.312,0,7.442,0.387,12.312,1.156c0.551,0.029,1.138,0.047,1.744,0.047c6.196,0,20.142-1.645,43.937-12.645L263.928,253.457z"
						/>
				</g>
			</g>
		</g>
		<g>
			<path fill="#2C770A" d="M263.922,254.084c-1.801-0.492-2.333-2.256-2.333-2.256c0.076,0.1,1.873,2.416,4.871,1.619
				C266.459,253.447,264.325,254.191,263.922,254.084z"/>
		</g>
	</g>
	<path fill="#FCC0DB" d="M257.461,272.145c-1.233,0.055-2.255-0.402-2.282-1.016c-0.03-0.619,0.948-1.158,2.18-1.213
		c1.231-0.059,2.252,0.396,2.28,1.016C259.666,271.541,258.691,272.092,257.461,272.145z"/>
</g>
</svg>
