
<svg version="1.1" id="Layer_1" xmlns="http://www.w3.org/2000/svg" xmlns:xlink="http://www.w3.org/1999/xlink" viewBox="0 0 768 430" enable-background="new 0 0 768 430" xml:space="preserve">
<g transform="matrix(.94503,.10476,-.10476,.94503,-192.77892,660.36534)">
	<g transform="translate(23.27692,5.81923)">
		<g>
			<path fill="#ACACAD" d="M828.869-394.962C820.863-369.437,757.283-351.1,686.856-354
				c-70.425-2.902-121.028-25.945-113.024-51.467c8.006-25.524,71.587-43.865,142.012-40.962
				c70.251,2.894,120.81,25.832,113.076,51.302"/>
		</g>
		<g>
			<path fill="#E3E7F3" d="M246.698-480.795l1.312,39.351c0.42,4.59-0.502,10.57,5.903,13.774c0,0,6.126,6.094,14.836,10.683
				c6.728,3.543,15.609,5.576,20.58,7.023c11.015,3.207,26.574,3.501,38.039,3.934c14.357,0.543,33.511-0.976,47.876-1.312
				c20.658-0.479,48.221-2.233,68.864-1.31c9.094,0.405,21.202,1.7,30.169,3.279c9.773,1.719,22.744,4.661,32.135,7.871
				c14.67,5.009,32.588,15.87,47.221,20.985c9.595,3.356,22.739,7.017,32.793,8.527c13.438,2.017,31.669,2.402,45.252,1.969
				c14.636-0.471,34.071-2.936,48.532-5.248c15.89-2.542,36.867-7.203,52.466-11.15c13.521-3.419,31.849-7.464,44.6-13.116
				c11.381-5.047,27.721-11.851,35.414-21.644c3.192-4.06,4.957-11.238,5.249-16.395c0.224-4.005-1.197-9.368-2.625-13.118
				c-2.353-6.181-8.033-13.185-11.148-19.017c-3.404-6.364-10.496-21.645-10.496-21.645s1.142,12.547-1.311,17.054
				c-4.964,9.125-18.337,16.174-27.545,20.987c-16.49,8.614-59.027,19.019-59.027,19.019s-31.519,7.03-45.252,8.526
				c-18.982,2.069-63.618,1.968-63.618,1.968s-33.65-1.074-47.876-3.28c-16.411-2.543-37.733-8.838-53.78-13.117
				c-13.657-3.643-31.289-10.92-45.253-13.116c-45.501-7.158-108.025,2.937-153.467-4.592c-10.56-1.749-24.99-4.878-34.104-10.493
				C256.633-467.975,246.698-480.795,246.698-480.795L246.698-480.795z"/>
			<path opacity="0.2991" fill="none" stroke="#000000" stroke-width="1.4244" d="M246.698-480.795l1.312,39.351
				c0.42,4.59-0.502,10.57,5.903,13.774c0,0,6.126,6.094,14.836,10.683c6.728,3.543,15.609,5.576,20.58,7.023
				c11.015,3.207,26.574,3.501,38.039,3.934c14.357,0.543,33.511-0.976,47.876-1.312c20.658-0.479,48.221-2.233,68.864-1.31
				c9.094,0.405,21.202,1.7,30.169,3.279c9.773,1.719,22.744,4.661,32.135,7.871c14.67,5.009,32.588,15.87,47.221,20.985
				c9.595,3.356,22.739,7.017,32.793,8.527c13.438,2.017,31.669,2.402,45.252,1.969c14.636-0.471,34.071-2.936,48.532-5.248
				c15.89-2.542,36.867-7.203,52.466-11.15c13.521-3.419,31.849-7.464,44.6-13.116c11.381-5.047,27.721-11.851,35.414-21.644
				c3.192-4.06,4.957-11.238,5.249-16.395c0.224-4.005-1.197-9.368-2.625-13.118c-2.353-6.181-8.033-13.185-11.148-19.017
				c-3.404-6.364-10.496-21.645-10.496-21.645s1.142,12.547-1.311,17.054c-4.964,9.125-18.337,16.174-27.545,20.987
				c-16.49,8.614-59.027,19.019-59.027,19.019s-31.519,7.03-45.252,8.526c-18.982,2.069-63.618,1.968-63.618,1.968
				s-33.65-1.074-47.876-3.28c-16.411-2.543-37.733-8.838-53.78-13.117c-13.657-3.643-31.289-10.92-45.253-13.116
				c-45.501-7.158-108.025,2.937-153.467-4.592c-10.56-1.749-24.99-4.878-34.104-10.493
				C256.633-467.975,246.698-480.795,246.698-480.795L246.698-480.795z"/>
		</g>
		<path fill="#1F3C3D" stroke="#000000" stroke-width="1.4244" stroke-opacity="0.298" d="M248.827-481.761
			c-1.136-2.789,0.571-7.009,0.528-10.018c-0.113-7.776-2.436-18.065-2.111-25.834c0.444-10.574,3.645-24.436,5.8-34.796
			c1.461-7.023,2.688-16.734,5.799-23.197c1.469-3.05,6.223-5.637,6.854-8.963c1.072-5.657-4.049-12.827-5.271-18.453
			c-1.801-8.285-2.739-19.595-4.218-27.943c-1.521-8.582-4.201-19.901-5.799-28.47c-1.561-8.358-3.001-19.621-4.745-27.942
			c-0.803-3.83-3.492-8.754-3.165-12.653c0.232-2.752,1.471-6.791,3.691-8.435c2.175-1.612,6.256-1.097,8.963-1.055
			c7.515,0.116,17.27,3.376,24.779,3.69c4.909,0.204,11.455-0.564,16.343-1.055c6.989-0.701,16.287-1.912,23.198-3.163
			c8.457-1.531,19.508-4.67,27.943-6.326c2.832-0.556,3.008,0.908,5.526-0.501c4.207-2.353,9.688-13.362,14.507-13.207
			c4.175,0.135,4.88,8.884,8.437,11.071c3.699,2.275,10.025,1.567,14.233,2.636c6.448,1.637,15.451,3.322,21.09,6.854
			c4.833,3.028,9.485,9.361,13.18,13.707c9.222,10.845,19.487,26.918,28.47,37.96c7.849,9.649,18.76,22.172,27.415,31.105
			c4.983,5.144,12.203,11.415,17.398,16.344c7.628,7.238,17.337,17.393,25.306,24.252c5.299,4.56,12.482,10.597,18.453,14.234
			c11.48,6.996,28.208,13.754,40.595,18.98c14.02,5.916,33.088,12.897,47.449,17.925c15.531,5.441,36.35,12.432,52.196,16.872
			c13.15,3.685,30.957,7.557,44.285,10.543c15.77,3.532,38.124,4.134,52.721,11.073c3.859,1.833,11.416,4.755,13.524,8.472
			c1.657,2.919,1.236,11.211,0.6,14.505c-0.899,4.663-4.527,7.352-7.829,10.765c-4.791,4.951-14.798,9.247-21.057,12.124
			c-14.317,6.583-32.75,12.441-48.017,16.335c-15.931,4.062-38.472,8.731-54.81,10.542c-17.301,1.92-47.829,1.345-65.232,1.582
			c-9.016,0.125-14.854,0.113-23.848-0.514c-9.083-0.637-21.097-2.578-30.052-4.22c-11.963-2.191-27.862-5.566-39.54-8.961
			c-6.775-1.969-13.815-4.921-20.593-6.876c-7.005-2.019-18.074-5.166-25.275-6.305c-9.886-1.562-23.223-2.562-33.215-3.163
			c-12.635-0.759-29.522-0.83-42.178-1.055c-15.183-0.27-33.893,0.674-49.061-0.011c-7.926-0.358-20.552,0.482-28.403-0.662
			c-7.52-1.095-17.589-2.805-24.779-5.273c-5.487-1.881-12.034-5.066-16.828-8.328C257.644-470.591,250.856-476.788,248.827-481.761
			L248.827-481.761z"/>
		<g opacity="0.99" enable-background="new    ">
			<path fill="#233132" d="M248.584-441.909c0,0,4.711,5.071,7.136,6.74c6.09,4.193,15.192,8.356,22.202,10.706
				c7.476,2.503,17.942,4.213,25.771,5.153c11.347,1.362,26.635,1.716,38.062,1.586c12.991-0.144,30.234-2.26,43.216-2.775
				c15.57-0.619,36.366-1.382,51.937-0.795c9.191,0.348,21.485,1.114,30.529,2.779c9.963,1.832,22.867,6.022,32.512,9.118
				c19.273,6.186,43.941,17.546,63.435,22.995c4.673,1.307,11.04,2.612,15.859,3.173c6.856,0.797,26.445,0.792,26.445,0.792
				l-1.985-4.922c0,0-15.273,0.563-20.495,0.164c-4.232-0.319-9.766-1.717-13.876-2.775c-16.432-4.227-37.829-11.673-53.921-17.048
				c-8.492-2.835-19.545-7.443-28.151-9.911c-7.849-2.254-18.496-4.671-26.563-5.949c-10.03-1.588-23.553-2.782-33.701-3.17
				c-13.551-0.517-31.643,0.34-45.197,0.792c-14.521,0.484-33.842,2.229-48.37,2.38c-8.329,0.084-19.479,0.161-27.754-0.794
				c-7.113-0.818-16.537-2.686-23.391-4.758c-7.252-2.189-18.346-5.243-24.493-9.671c-3.559-2.565-9.515-11.101-9.515-11.101
				L248.584-441.909L248.584-441.909z"/>
		</g>
		<g>
			<path fill="#DDE1EA" d="M248.314-456.558c0,0,4.711,5.069,7.137,6.741c6.09,4.193,15.19,8.354,22.202,10.703
				c7.475,2.507,17.943,4.217,25.772,5.156c11.346,1.362,26.634,1.713,38.061,1.587c12.991-0.148,30.235-2.26,43.216-2.778
				c15.571-0.616,36.365-1.379,51.938-0.792c9.19,0.348,21.484,1.11,30.528,2.775c9.962,1.833,22.867,6.022,32.511,9.119
				c19.274,6.188,46.405,12.921,65.784,18.769c4.487,1.351,11.847,0.968,17.616,1.29c6.892,0.387,19.83,0.325,19.83,0.325
				l-0.251-4.461c0,0-10.16,1.149-15.383,0.751c-4.234-0.322-14.33-0.416-18.442-1.473c-16.43-4.229-37.602-7.449-53.693-12.82
				c-8.49-2.84-19.543-7.445-28.149-9.915c-7.85-2.251-18.498-4.669-26.564-5.945c-10.029-1.587-23.553-2.784-33.7-3.173
				c-13.551-0.517-31.644,0.342-45.197,0.796c-14.521,0.481-33.843,2.229-48.37,2.376c-8.328,0.087-19.479,0.161-27.753-0.791
				c-7.115-0.818-16.537-2.686-23.392-4.757c-7.252-2.193-18.346-5.246-24.493-9.672c-3.559-2.565-9.516-11.104-9.516-11.104
				L248.314-456.558L248.314-456.558z"/>
			<path opacity="0.1709" fill="none" stroke="#020000" stroke-width="0.2849" d="M248.314-456.558c0,0,4.711,5.069,7.137,6.741
				c6.09,4.193,15.19,8.354,22.202,10.703c7.475,2.507,17.943,4.217,25.772,5.156c11.346,1.362,26.634,1.713,38.061,1.587
				c12.991-0.148,30.235-2.26,43.216-2.778c15.571-0.616,36.365-1.379,51.938-0.792c9.19,0.348,21.484,1.11,30.528,2.775
				c9.962,1.833,22.867,6.022,32.511,9.119c19.274,6.188,46.405,12.921,65.784,18.769c4.487,1.351,11.847,0.968,17.616,1.29
				c6.892,0.387,19.83,0.325,19.83,0.325l-0.251-4.461c0,0-10.16,1.149-15.383,0.751c-4.234-0.322-14.33-0.416-18.442-1.473
				c-16.43-4.229-37.602-7.449-53.693-12.82c-8.49-2.84-19.543-7.445-28.149-9.915c-7.85-2.251-18.498-4.669-26.564-5.945
				c-10.029-1.587-23.553-2.784-33.7-3.173c-13.551-0.517-31.644,0.342-45.197,0.796c-14.521,0.481-33.843,2.229-48.37,2.376
				c-8.328,0.087-19.479,0.161-27.753-0.791c-7.115-0.818-16.537-2.686-23.392-4.757c-7.252-2.193-18.346-5.246-24.493-9.672
				c-3.559-2.565-9.516-11.104-9.516-11.104L248.314-456.558L248.314-456.558z"/>
		</g>
		<g>
			<path fill="none" stroke="#000000" stroke-width="3.9882" d="M247.528-481.73c0,0,7.386,10.638,11.718,13.985
				c5.297,4.094,13.821,7.42,20.167,9.552c6.886,2.316,16.498,4.029,23.703,4.955c10.752,1.378,25.251,1.596,36.088,1.767
				c18.151,0.287,42.348-1.153,60.499-1.061c11.468,0.061,26.79,0.031,38.211,1.063c5.561,0.503,12.95,1.599,18.398,2.83
				c9.728,2.195,22.255,6.8,31.841,9.553c13.117,3.764,30.555,9.035,43.87,12.028c7.151,1.608,16.778,3.397,24.058,4.244
				c10.982,1.282,25.743,1.806,36.796,2.123c12.519,0.362,29.227,0.314,41.747,0.001c8.5-0.212,19.875-0.313,28.305-1.415
				c16.678-2.176,38.604-7.276,54.838-11.677c14.028-3.801,32.901-8.901,45.993-15.212c8.567-4.126,20.616-9.892,26.535-17.336
				c2.11-2.655,3.299-7.275,3.892-10.614c0.557-3.135-1.816-10.335-1.816-10.335"/>
		</g>
		<g>
			<path fill="#252E2B" d="M448.725-463.535c-0.398,1.095-2.458,1.555-4.602,1.025c-2.144-0.527-3.561-1.849-3.164-2.943
				c0.398-1.098,2.459-1.556,4.604-1.026c2.144,0.527,3.557,1.846,3.164,2.94"/>
			<path fill="none" stroke="#000000" stroke-width="1.4244" d="M448.725-463.535c-0.398,1.095-2.458,1.555-4.602,1.025
				c-2.144-0.527-3.561-1.849-3.164-2.943c0.398-1.098,2.459-1.556,4.604-1.026c2.144,0.527,3.557,1.846,3.164,2.94"/>
		</g>
		<g>
			<path fill="#4F524F" d="M493.228-453.579c-0.627,1.49-2.715,1.855-4.665,0.812c-1.95-1.048-3.023-3.107-2.399-4.598
				c0.626-1.494,2.714-1.858,4.665-0.812c1.95,1.045,3.02,3.101,2.399,4.595"/>
			<path fill="none" stroke="#000000" stroke-width="1.4238" d="M493.228-453.579c-0.627,1.49-2.715,1.855-4.665,0.812
				c-1.95-1.048-3.023-3.107-2.399-4.598c0.626-1.494,2.714-1.858,4.665-0.812c1.95,1.045,3.02,3.101,2.399,4.595"/>
		</g>
		<g>
			<path fill="#FCFFFF" d="M271.28-582.931c1.228-5.047,3.319-11.858,6.249-16.146c2.092-3.058,5.792-6.697,9.115-8.333
				c3.63-1.788,9.243-2.577,13.281-2.344c4.64,0.268,10.677,2.372,14.844,4.427c5.017,2.475,10.946,7.194,15.104,10.938
				c3.823,3.442,8.406,8.618,11.458,12.76c3.345,4.542,7.928,10.77,9.635,16.145c0.925,2.913,0.969,7.107,0.782,10.156
				c-0.362,5.888-1.555,13.861-3.907,19.271c-1.607,3.698-5.092,7.96-7.811,10.937c-2.503,2.741-6.095,6.336-9.374,8.074
				c-1.861,0.983-4.679,1.611-6.772,1.822c-2.493,0.249-5.924,0.159-8.333-0.522c-2.725-0.77-6.008-2.814-8.335-4.427
				c-4.456-3.09-9.793-8.059-13.542-11.979c-3.608-3.774-7.707-9.438-10.937-13.542c-2.86-3.635-7.459-8.03-9.374-12.241
				c-1.949-4.28-2.907-10.665-3.125-15.364C270.104-576.2,270.594-580.106,271.28-582.931L271.28-582.931z"/>
			<path fill="none" stroke="#000000" stroke-width="0.7122" d="M271.28-582.931c1.228-5.047,3.319-11.858,6.249-16.146
				c2.092-3.058,5.792-6.697,9.115-8.333c3.63-1.788,9.243-2.577,13.281-2.344c4.64,0.268,10.677,2.372,14.844,4.427
				c5.017,2.475,10.946,7.194,15.104,10.938c3.823,3.442,8.406,8.618,11.458,12.76c3.345,4.542,7.928,10.77,9.635,16.145
				c0.925,2.913,0.969,7.107,0.782,10.156c-0.362,5.888-1.555,13.861-3.907,19.271c-1.607,3.698-5.092,7.96-7.811,10.937
				c-2.503,2.741-6.095,6.336-9.374,8.074c-1.861,0.983-4.679,1.611-6.772,1.822c-2.493,0.249-5.924,0.159-8.333-0.522
				c-2.725-0.77-6.008-2.814-8.335-4.427c-4.456-3.09-9.793-8.059-13.542-11.979c-3.608-3.774-7.707-9.438-10.937-13.542
				c-2.86-3.635-7.459-8.03-9.374-12.241c-1.949-4.28-2.907-10.665-3.125-15.364C270.104-576.2,270.594-580.106,271.28-582.931
				L271.28-582.931z"/>
		</g>
		<g>
			<path fill="#FCFFFF" d="M275.479-580.823c1.101-4.527,2.975-10.637,5.606-14.485c1.876-2.743,5.195-6.007,8.177-7.475
				c3.256-1.604,8.291-2.312,11.914-2.102c4.161,0.24,9.576,2.127,13.317,3.971c4.499,2.221,9.818,6.454,13.548,9.812
				c3.431,3.088,7.542,7.731,10.28,11.447c3.001,4.074,7.112,9.662,8.642,14.485c0.83,2.612,0.87,6.374,0.701,9.11
				c-0.326,5.281-1.395,12.434-3.505,17.287c-1.442,3.317-4.57,7.141-7.008,9.812c-2.245,2.458-5.467,5.685-8.409,7.242
				c-1.669,0.883-4.196,1.446-6.074,1.635c-2.236,0.225-5.314,0.144-7.476-0.467c-2.444-0.692-5.389-2.525-7.476-3.972
				c-3.997-2.772-8.785-7.229-12.148-10.745c-3.236-3.386-6.914-8.466-9.811-12.148c-2.565-3.261-6.69-7.203-8.41-10.979
				c-1.747-3.841-2.606-9.569-2.803-13.783C274.423-574.784,274.862-578.289,275.479-580.823L275.479-580.823z"/>
			<path fill="none" stroke="#000000" stroke-width="0.5655" stroke-dasharray="2.2619,0.5655" d="M275.479-580.823
				c1.101-4.527,2.975-10.637,5.606-14.485c1.876-2.743,5.195-6.007,8.177-7.475c3.256-1.604,8.291-2.312,11.914-2.102
				c4.161,0.24,9.576,2.127,13.317,3.971c4.499,2.221,9.818,6.454,13.548,9.812c3.431,3.088,7.542,7.731,10.28,11.447
				c3.001,4.074,7.112,9.662,8.642,14.485c0.83,2.612,0.87,6.374,0.701,9.11c-0.326,5.281-1.395,12.434-3.505,17.287
				c-1.442,3.317-4.57,7.141-7.008,9.812c-2.245,2.458-5.467,5.685-8.409,7.242c-1.669,0.883-4.196,1.446-6.074,1.635
				c-2.236,0.225-5.314,0.144-7.476-0.467c-2.444-0.692-5.389-2.525-7.476-3.972c-3.997-2.772-8.785-7.229-12.148-10.745
				c-3.236-3.386-6.914-8.466-9.811-12.148c-2.565-3.261-6.69-7.203-8.41-10.979c-1.747-3.841-2.606-9.569-2.803-13.783
				C274.423-574.784,274.862-578.289,275.479-580.823L275.479-580.823z"/>
		</g>
		<g>
			<path fill="#FCFFFF" d="M277.356-580.089c1.04-4.281,2.813-10.058,5.301-13.695c1.773-2.594,4.912-5.679,7.73-7.068
				c3.079-1.517,7.84-2.186,11.266-1.988c3.934,0.227,9.056,2.011,12.59,3.755c4.255,2.099,9.284,6.102,12.81,9.277
				c3.244,2.92,7.131,7.31,9.719,10.823c2.838,3.852,6.725,9.135,8.172,13.696c0.785,2.47,0.823,6.027,0.664,8.613
				c-0.309,4.994-1.318,11.757-3.314,16.346c-1.364,3.137-4.32,6.752-6.627,9.277c-2.124,2.325-5.169,5.375-7.951,6.848
				c-1.578,0.835-3.968,1.367-5.744,1.546c-2.113,0.213-5.023,0.136-7.068-0.442c-2.31-0.653-5.094-2.386-7.068-3.755
				c-3.781-2.621-8.307-6.835-11.485-10.161c-3.062-3.2-6.539-8.004-9.278-11.486c-2.426-3.083-6.327-6.811-7.952-10.382
				c-1.651-3.631-2.464-9.047-2.65-13.032C276.356-574.379,276.773-577.693,277.356-580.089L277.356-580.089z"/>
			<path fill="none" stroke="#000000" stroke-width="0.5185" stroke-dasharray="2.0739,0.5185" d="M277.356-580.089
				c1.04-4.281,2.813-10.058,5.301-13.695c1.773-2.594,4.912-5.679,7.73-7.068c3.079-1.517,7.84-2.186,11.266-1.988
				c3.934,0.227,9.056,2.011,12.59,3.755c4.255,2.099,9.284,6.102,12.81,9.277c3.244,2.92,7.131,7.31,9.719,10.823
				c2.838,3.852,6.725,9.135,8.172,13.696c0.785,2.47,0.823,6.027,0.664,8.613c-0.309,4.994-1.318,11.757-3.314,16.346
				c-1.364,3.137-4.32,6.752-6.627,9.277c-2.124,2.325-5.169,5.375-7.951,6.848c-1.578,0.835-3.968,1.367-5.744,1.546
				c-2.113,0.213-5.023,0.136-7.068-0.442c-2.31-0.653-5.094-2.386-7.068-3.755c-3.781-2.621-8.307-6.835-11.485-10.161
				c-3.062-3.2-6.539-8.004-9.278-11.486c-2.426-3.083-6.327-6.811-7.952-10.382c-1.651-3.631-2.464-9.047-2.65-13.032
				C276.356-574.379,276.773-577.693,277.356-580.089L277.356-580.089z"/>
		</g>
		<g>
			<path fill="none" stroke="#900000" stroke-width="1.3699" d="M285.742-590.707c0,0-1.579,1.582-1.972,2.436
				c-0.325,0.708-0.559,1.781-0.465,2.553c0.093,0.758,0.504,1.782,1.044,2.32c0.487,0.484,1.407,0.857,2.089,0.929
				c0.671,0.071,1.703-0.01,2.205-0.464c0.514-0.466,0.654-1.513,0.696-2.205c0.035-0.565-0.349-1.856-0.349-1.856"/>
		</g>
		<g>
			<path fill="none" stroke="#900000" stroke-width="1.3699" d="M288.876-595.697c-0.576,0.462-0.75,1.586-0.813,2.321
				c-0.055,0.633,0.118,1.497,0.348,2.089c0.255,0.657,0.698,1.57,1.277,1.972c0.526,0.367,1.448,0.513,2.088,0.466
				c0.484-0.036,1.194-0.211,1.508-0.581c0.553-0.65,0.636-1.933,0.58-2.785c-0.048-0.736-0.353-1.743-0.813-2.321
				c-0.487-0.612-1.44-1.219-2.205-1.392C290.266-596.06,289.341-596.07,288.876-595.697L288.876-595.697z"/>
		</g>
		<g>
			<polyline fill="none" stroke="#900000" stroke-width="1.3699" points="297.229,-591.404 294.329,-598.714 297.578,-595.929 
				300.71,-592.331 297.926,-600.454 			"/>
		</g>
		<g>
			<polyline fill="none" stroke="#900000" stroke-width="1.3699" points="302.335,-600.57 303.713,-597.321 305.4,-593.527 
				306.744,-599.99 			"/>
		</g>
		<g>
			<path fill="none" stroke="#900000" stroke-width="1.3699" d="M315.446-595.349l-0.858-0.526l-2.74-1.679l-1.855,6.034
				c0,0,1.708,1.292,2.552,1.625c0.526,0.208,1.857,0.348,1.857,0.348"/>
		</g>
		<g>
			<line fill="none" stroke="#900000" stroke-width="1.3699" x1="311.385" y1="-594.304" x2="313.59" y2="-593.144"/>
		</g>
		<g>
			<path fill="none" stroke="#900000" stroke-width="1.3699" d="M316.838-587.342l1.368-2.173c0.182-0.287,0.45-0.658,0.605-0.96
				c0.379-0.736,0.729-1.882,1.536-2.061c1.155-0.257,2.012,1.062,2.41,2.176c0.165,0.465,0.112,1.273-0.232,1.625
				c-0.296,0.303-0.98,0.326-1.393,0.232c-0.827-0.188-2.32-1.624-2.32-1.624"/>
		</g>
		<g>
			<line fill="none" stroke="#900000" stroke-width="1.3699" x1="320.784" y1="-588.27" x2="320.669" y2="-583.862"/>
		</g>
		<g>
			<path fill="none" stroke="#900000" stroke-width="1.3699" d="M330.067-582.004c0,0-1.438-3.381-2.784-3.829
				c-0.45-0.15-1.227,0.083-1.508,0.464c-0.312,0.42-0.148,1.239,0,1.74c0.109,0.364,0.483,0.743,0.69,1.063
				c0.245,0.377,0.69,0.826,0.818,1.257c0.167,0.567,0.408,1.544-0.001,1.972c-0.14,0.148-0.102,0.27-0.304,0.28
				c-0.493,0.025-1.554,0.015-2.016-0.163c-0.689-0.266-1.423-1.075-1.742-1.741c-0.286-0.6-0.231-2.204-0.231-2.204"/>
		</g>
		<path fill="none" stroke="#900000" stroke-width="1.3699" d="M333.432-578.291c-0.719-0.147-1.402,1.016-2.089,1.276
			c-1.124,0.425-3.946,0.696-3.946,0.696s1.681,3.453,2.67,4.758c0.207,0.274,0.811,0.812,0.811,0.812"/>
		<path fill="none" stroke="#00006B" stroke-width="0.8219" d="M284.35-563.788c0,0,0.432-1.636-0.001-2.088
			c-0.505-0.53-1.786-0.451-2.436-0.116c-0.515,0.265-0.822,1.089-1.044,1.624c-0.313,0.757-0.916,1.922-0.58,2.668
			c0.262,0.583,1.221,0.976,1.855,1.045c0.833,0.09,1.995-0.316,2.67-0.813c1.392-1.022,3.248-4.757,3.248-4.757"/>
		<path fill="none" stroke="#00006B" stroke-width="0.8219" d="M283.654-559.378l0.696-2.205l1.74,0.232l0.928,2.553"/>
		<path fill="none" stroke="#00006B" stroke-width="0.8219" d="M287.482-560.423c0,0-0.384,1.523,0,1.973
			c0.298,0.348,1.105,0.447,1.509,0.232c0.509-0.271,0.813-1.74,0.813-1.74"/>
		<path fill="none" stroke="#00006B" stroke-width="0.8219" d="M292.473-559.146c0,0-1.003-0.15-1.392,0
			c-0.438,0.168-0.99,0.608-1.16,1.045c-0.141,0.358-0.188,1.04,0.116,1.275c0.863,0.671,3.596-0.58,3.596-0.58"/>
		<path fill="none" stroke="#00006B" stroke-width="0.8219" d="M293.169-557.406c0,0,2.042-2.264,3.016-3.133
			c0.556-0.496,1.797-0.784,1.973-1.508c0.154-0.636-0.288-1.84-0.928-1.973c-0.725-0.152-1.452,1.004-1.857,1.624
			c-0.379,0.58-0.832,1.525-0.696,2.204c0.169,0.848,1.477,1.428,1.858,2.205c0.219,0.447,0.348,1.624,0.348,1.624"/>
		<path fill="none" stroke="#00006B" stroke-width="0.8219" d="M321.945-555.317l0-1.045l3.712,0l-1.276,2.552
			c0,0-1.048,2.696-2.089,3.133c-0.521,0.221-1.337-0.119-1.856-0.347c-0.319-0.14-0.802-0.372-0.928-0.696
			c-0.143-0.362,0.231-1.276,0.231-1.276"/>
		<path fill="none" stroke="#00006B" stroke-width="0.8219" d="M325.657-551.952c0,0-1.99,0.153-2.321,0.812
			c-0.31,0.62,0.056,1.94,0.696,2.205c0.834,0.344,2.331-0.556,2.669-1.393c0.165-0.408-0.464-1.392-0.464-1.392"/>
		<path fill="none" stroke="#00006B" stroke-width="1.3699" d="M326.238-549.632c0,0,0.764,1.236,1.276,1.16
			c0.803-0.118,0.611-2.537,1.392-2.321c0.671,0.187,0.205,1.656-0.001,2.321c-0.309,1.006-1.971,2.901-1.971,2.901"/>
		<path fill="none" stroke="#00006B" stroke-width="0.8219" d="M330.067-549.748l2.205,0l-0.117,1.625"/>
		<path fill="none" stroke="#00006B" stroke-width="0.8219" d="M333.084-549.98c0,0,2.124-0.731,2.785-1.393
			c0.44-0.439,1.053-1.247,0.928-1.856c-0.119-0.58-0.917-1.328-1.507-1.277c-0.814,0.072-1.521,1.305-1.741,2.089
			c-0.392,1.388,0.696,4.758,0.696,4.758"/>
		<path fill="none" stroke="#00006B" stroke-width="0.8219" d="M336.796-549.749c0,0-1.096-0.294-1.392,0.001
			c-0.443,0.443-0.444,1.646,0.001,2.088c0.418,0.419,1.553,0.419,1.972,0c0.419-0.419-0.351-1.495,0.001-1.972
			c0.345-0.47,1.385-0.926,1.856-0.58c0.73,0.536-0.904,2.958-0.001,3.017c0.807,0.053-0.107-2.003,0.349-2.669
			c0.245-0.359,1.276-0.696,1.276-0.696"/>
		<g>
			<path fill="none" stroke="#900000" stroke-width="1.3699" d="M286.322-550.792c0,0,3.854-1.208,5.338-0.58
				c0.366,0.156,0.808,0.648,0.813,1.044c0.015,1.344-2.668,3.597-2.668,3.597"/>
		</g>
		<g>
			<line fill="none" stroke="#900000" stroke-width="1.3699" x1="289.107" y1="-550.792" x2="291.08" y2="-548.471"/>
		</g>
		<g>
			<path fill="none" stroke="#900000" stroke-width="1.3699" d="M295.372-545.919c0,0-2.124,3.497-1.624,4.989
				c0.31,0.925,2.668,1.857,2.668,1.857"/>
		</g>
		<g>
			<path fill="none" stroke="#900000" stroke-width="1.3699" d="M299.782-541.045c0,0-0.999,4.453-0.115,6.034
				c0.433,0.777,2.552,1.509,2.552,1.509"/>
		</g>
		<g>
			<path fill="none" stroke="#900000" stroke-width="1.3699" d="M312.082-532.807c0,0-0.973-1.911-1.741-2.32
				c-0.583-0.312-1.712-0.56-2.204-0.117c-0.492,0.444-0.418,1.616-0.117,2.205c0.68,1.322,3.52,1.335,4.178,2.669
				c0.355,0.72,1.16,2.901-0.232,2.669c-1.392-0.232-2.294-0.316-3.017-0.928c-0.357-0.302-0.696-1.393-0.696-1.393"/>
		</g>
		<g>
			<line fill="none" stroke="#900000" stroke-width="1.3699" x1="317.999" y1="-526.542" x2="316.142" y2="-534.083"/>
		</g>
		<g>
			<line fill="none" stroke="#900000" stroke-width="1.3699" x1="314.171" y1="-534.199" x2="318.927" y2="-533.967"/>
		</g>
		<g>
			<path fill="none" stroke="#900000" stroke-width="1.3699" d="M323.302-528.427c-0.927-5.094-2.282-5.465-1.242-7.629
				c0.213-0.443,1.183-0.452,1.624-0.232c1.996,0.992,3.598,6.498,3.598,6.498"/>
		</g>
		<g>
			<line fill="none" stroke="#900000" stroke-width="1.3699" x1="322.988" y1="-531.415" x2="325.541" y2="-532.923"/>
		</g>
		<g>
			<path fill="none" stroke="#900000" stroke-width="1.3699" d="M331.344-533.039c0,0-4.633-3.352-5.107-5.57
				c-0.16-0.754,0.196-1.974,0.813-2.436c0.725-0.544,2.237-0.578,3.016-0.116c0.603,0.357,1.103,1.391,1.044,2.089
				c-0.054,0.645-0.812,1.288-1.276,1.74c-0.305,0.297-1.16,0.813-1.16,0.813"/>
		</g>
		<g>
			<line fill="none" stroke="#900000" stroke-width="1.3699" x1="330.762" y1="-538.377" x2="334.824" y2="-535.824"/>
		</g>
		<path fill="#FCFFFF" d="M246.088-708.482c0.868-0.93,2.796-1.209,4.069-1.197c2.861,0.029,6.495-0.044,9.319,0.416
			c4.111,0.671,15.413,3.169,19.577,3.254c6.106,0.125,3.307,0.075,9.406-0.191c4.549-0.198,16.374-1.638,20.887-2.233
			c5.186-0.684,10.151-1.677,15.294-2.626c4.336-0.8,11.602-2.25,15.919-3.149c2.15-0.448,5.416-1.145,7.601-1.362
			c1.429-0.141,4.551-0.12,4.551-0.12s-8.351,9.404-11.591,13.193c-3.15,3.682-7.402,8.559-10.294,12.448
			c-2.626,3.532-5.716,8.533-8.139,12.208c-1.085,1.647-3.029,3.616-3.591,5.506c-0.43,1.445,0.001,5.026,0.001,5.026
			s-9.075,0.215-12.928-0.239c-5.988-0.705-13.847-2.599-19.628-4.309c-6.473-1.913-14.964-5.014-21.066-7.9
			c-4.276-2.022-10.174-4.686-13.644-7.899c-2.047-1.894-4.228-5.073-5.266-7.661c-1.003-2.498-1.515-6.166-1.437-8.857
			C245.169-705.497,245.184-707.515,246.088-708.482z"/>
		<g>
			
				<radialGradient id="SVGID_1_" cx="-201.6617" cy="-142.4273" r="38.0728" gradientTransform="matrix(0.3795 1.8505 1.2727 -0.7308 550.0282 -413.8961)" gradientUnits="userSpaceOnUse">
				<stop  offset="0" style="stop-color:#979797"/>
				<stop  offset="1" style="stop-color:#656565;stop-opacity:0"/>
			</radialGradient>
			<path fill="url(#SVGID_1_)" d="M304.607-667.528c-6.117-0.461-14.253-2.374-20.272-4.169c-6.036-1.802-14.049-4.717-19.802-7.793
				c-1.848-0.987-4.562-2.133-5.893-4.047c-1.354-1.951-3.906-8.203-3.22-10.52c1.12-3.784,5.815-3.589,8.919-4.699
				c4.936-1.764,13.427-0.93,18.637-0.834c6.258,0.115,17.317,2.014,23.576,2.179c4.039,0.106,20.639-3.297,24.661-2.523
				c2.842,0.546,2.174,1.98,3.334,5.332c1.233,3.568-6.194,9.757-7.549,13.074c-0.661,1.621-5.8,7.169-6.082,8.978
				C324.289-662.132,310.449-666.64,304.607-667.528z"/>
		</g>
		<g>
			<path fill="none" stroke="#FFFFFF" stroke-width="2.1365" d="M318.759-667.543c0,0-9.18,0.02-13.084-0.402
				c-5.079-0.55-11.763-2.05-16.682-3.434c-5.571-1.57-12.799-4.34-18.154-6.542c-4.201-1.729-9.95-3.869-13.737-6.379
				c-2.924-1.937-6.648-4.981-8.667-7.85c-1.406-1.997-2.569-5.142-3.108-7.523c-0.401-1.773-0.553-4.247-0.328-6.052
				c0.102-0.816,1.179-1.207,1.179-1.207"/>
		</g>
		<g>
			<path fill="none" stroke="#AEAEAE" stroke-width="0.4273" stroke-dasharray="1.7092,1.7092" d="M247.254-708.888
				c0,0,11.053,2.902,15.881,3.694c6.81,1.116,15.995,2.082,22.896,2.216c5.77,0.112,13.496-0.256,19.204-1.108
				c4.173-0.623,9.549-2.395,13.664-3.324c5.299-1.197,12.443-2.44,17.727-3.693c3.347-0.794,7.729-2.174,11.08-2.954
				c1.1-0.257,3.693-0.739,3.693-0.739s-5.592,7.011-8.864,8.864c-3.18,1.801-8.243,2.194-11.818,2.955
				c-3.741,0.797-8.789,1.551-12.556,2.216c-3.768,0.665-8.774,1.646-12.557,2.216c-2.651,0.399-6.185,1.075-8.864,1.108
				c-4.452,0.055-10.328-1.168-14.772-1.477c-5.641-0.392-13.217-0.092-18.835-0.738c-2.913-0.336-7.068-0.369-9.601-1.847
				C251.021-702.966,247.254-708.888,247.254-708.888L247.254-708.888z"/>
		</g>
		<g>
			<path fill="none" stroke="#FDFDFD" stroke-width="1.7092" d="M319.643-709.401c0,0,7.756-1.793,10.853-2.371
				c3.159-0.588,9.044-2.21,12.209-2.769c1.982-0.35,2.525-0.47,4.488-0.912c1.512-0.342,5.485-0.811,5.566-0.323"/>
		</g>
		<g>
			<path fill="none" stroke="#FFFFFF" stroke-width="0.997" d="M321.247-709.913c0,0-5.028,0.85-7.27,1.158
				c-1.302,0.178-4.353,0.454-4.353,0.454"/>
		</g>
		<g>
			<path fill="none" stroke="#FFFFFF" stroke-width="1.1395" stroke-dasharray="4.5579,2.279" d="M245.812-688.811
				c0,0,6.253,5.2,9.551,7.387c5.105,3.385,12.552,6.873,18.178,9.292c6.023,2.586,14.269,5.588,20.603,7.271
				c3.928,1.043,9.289,1.985,13.33,2.424c3.255,0.354,7.635,0.529,10.907,0.404c4.266-0.164,9.909-1.039,14.138-1.616
				c7.66-1.045,17.857-2.588,25.45-4.04c7.075-1.353,16.43-3.554,23.43-5.251c2.8-0.679,6.419-2.201,9.291-2.424
				c2.429-0.19,5.89-0.261,8.079,0.807c3.313,1.617,6.341,5.888,8.483,8.888c6.427,8.998,11.66,23.019,16.967,32.721
				c3.959,7.24,8.934,17.12,13.734,23.833c5.996,8.383,15.395,18.508,22.621,25.854c5.958,6.055,14.248,13.839,21.006,18.986
				c5.028,3.829,12.261,8.221,17.775,11.311c11.062,6.202,26.38,13.435,37.972,18.583c11.333,5.032,26.772,10.98,38.377,15.352
				c13.952,5.253,33.076,10.869,46.858,16.559c9.92,4.099,22.997,10.028,32.316,15.352c4.32,2.468,9.799,6.246,13.735,9.29
				c3.193,2.469,7.454,5.84,10.1,8.89c2.752,3.171,5.803,7.952,7.674,11.713c1.605,3.228,2.821,7.921,4.039,11.313
				c1.569,4.366,5.066,15.102,5.066,15.102"/>
		</g>
		<g>
			<path fill="none" stroke="#FFFFFF" stroke-width="1.14" stroke-dasharray="4.5601,2.2801" d="M246.313-683.107
				c0,0,6.173,5.133,9.428,7.292c5.037,3.34,12.387,6.783,17.941,9.17c5.944,2.554,14.082,5.516,20.335,7.177
				c3.878,1.03,9.169,1.958,13.158,2.393c3.213,0.35,7.536,0.522,10.765,0.399c4.211-0.161,9.78-1.026,13.955-1.595
				c7.559-1.031,17.625-2.554,25.12-3.987c6.983-1.336,16.216-3.509,23.126-5.184c2.762-0.67,6.336-2.171,9.17-2.392
				c2.397-0.187,5.815-0.257,7.974,0.798c3.27,1.596,6.258,5.811,8.373,8.772c6.344,8.881,11.509,22.721,16.747,32.295
				c3.909,7.146,8.817,16.899,13.557,23.524c5.916,8.275,15.193,18.268,22.327,25.518c5.881,5.976,14.063,13.659,20.733,18.739
				c4.965,3.779,12.102,8.114,17.544,11.164c10.918,6.121,26.038,13.263,37.479,18.342c11.187,4.965,26.425,10.838,37.878,15.151
				c13.773,5.185,32.648,10.731,46.251,16.347c9.793,4.042,22.699,9.894,31.896,15.152c4.263,2.435,9.672,6.166,13.557,9.171
				c3.152,2.436,7.358,5.763,9.968,8.771c2.717,3.131,5.729,7.849,7.576,11.563c1.583,3.186,2.785,7.818,3.987,11.165
				c1.547,4.308,4.999,14.906,4.999,14.906"/>
		</g>
		<g>
			<path fill="none" stroke="#FFFFFF" stroke-width="1.1395" stroke-dasharray="4.5579,2.279" d="M338.975-669.366
				c0,0,6.318,13.098,8.975,18.734c4.627,9.807,10.202,23.172,15.223,32.784c3.011,5.767,7.35,13.3,10.927,18.734
				c5.525,8.391,13.834,18.924,19.904,26.93c6.454,8.509,14.405,20.449,21.857,28.1c5.919,6.08,15.039,12.901,21.856,17.955
				c7.8,5.782,18.834,12.592,26.929,17.953c4.441,2.94,10.217,7.098,14.832,9.757c8.62,4.968,20.575,10.779,29.662,14.831
				c11.954,5.334,28.295,11.512,40.59,16.001c12.069,4.408,28.31,9.882,40.589,13.66c10.807,3.327,25.29,7.564,36.298,10.148
				c4.874,1.143,11.409,2.654,16.392,3.122c2.565,0.243,6.036-0.369,8.585-0.001c6.528,0.949,14.742,4.412,21.077,6.245
				c5.376,1.555,17.953,5.074,17.953,5.074"/>
		</g>
		<g>
			<path fill="none" stroke="#FFFFFF" stroke-width="1.1395" stroke-dasharray="4.5579,2.279" d="M343.522-671.13
				c0,0,6.317,13.097,8.976,18.734c4.626,9.807,9.067,20.53,14.089,30.141c3.012,5.768,7.349,13.299,10.927,18.734
				c5.525,8.391,13.835,18.925,19.905,26.93c6.454,8.51,14.405,20.448,21.857,28.101c5.919,6.079,15.039,12.9,21.856,17.953
				c7.8,5.781,18.834,12.592,26.929,17.952c4.44,2.941,10.217,7.098,14.832,9.757c8.62,4.968,20.576,10.779,29.662,14.831
				c11.954,5.334,28.294,11.515,40.59,16.005c12.068,4.405,28.311,9.879,40.59,13.66c10.807,3.324,25.289,7.565,36.296,10.145
				c4.874,1.144,11.409,2.654,16.393,3.122c2.564,0.244,6.036-0.368,8.585,0.002c6.527,0.946,14.741,4.409,21.076,6.245
				c5.375,1.556,17.953,5.073,17.953,5.073l3.923,1.178"/>
		</g>
		<g>
			<path opacity="0.765" fill="none" stroke="#2C362B" stroke-width="1.9286" d="M317.09-667.535c0,0,9.498-0.157,13.559-0.504
				c5.666-0.483,15.802-1.844,21.396-3.162c6.774-1.597,17.211-3.033,23.929-5.004c4.265-1.25,11.019-3.717,15.382-3.957
				c2.268-0.126,6.855-0.522,9.027,0.368c3.19,1.307,8.298,6.421,8.298,6.421"/>
		</g>
		<path fill="#FBFFFE" d="M703.17-431.94c0,0-4.355-14.248-5.057-20.56c-0.569-5.124-0.488-12.098,0.337-17.188
			c1.034-6.376,3.825-14.637,6.403-20.56c0.851-1.954,2.469-4.318,3.526-6.168c1.37-2.395,2.953-5.745,4.564-7.986
			c1.421-1.977,3.702-5.898,3.702-5.898s19.202,3.047,27.969,4.718c6.797,1.296,18.991,2.914,25.625,4.887
			c4.266,1.27,10.641,3.507,14.496,5.732c3.365,1.941,6.561,4.609,8.418,8.025c1.454,2.676,0.979,7.026,0.336,10.006
			c-0.937,4.34-2.87,7.356-5.893,10.609c-3.914,4.211-10.606,8.064-15.671,10.783c-6.832,3.669-14.361,7.361-21.732,9.775
			c-7.527,2.466-19.987,6.401-27.643,8.434C716.764-435.797,703.17-431.94,703.17-431.94L703.17-431.94z"/>
		<g>
			<path fill="#F3F3F5" d="M481.529-539.828c-0.775,6.542-6.943,11.245-13.776,10.501c-6.831-0.744-11.74-6.651-10.964-13.195
				c0.777-6.544,6.944-11.246,13.777-10.502c6.815,0.742,11.719,6.623,10.969,13.153"/>
		</g>
		<g>
			<path fill="#808C8C" d="M479.381-540.155c-0.641,5.407-5.738,9.292-11.384,8.678c-5.645-0.614-9.701-5.496-9.059-10.903
				c0.641-5.408,5.738-9.293,11.384-8.678c5.632,0.613,9.684,5.473,9.064,10.869"/>
		</g>
		<g>
			<path fill="#F3F3F5" d="M478.304-540.318c-0.575,4.84-5.135,8.316-10.187,7.767c-5.053-0.551-8.684-4.919-8.109-9.758
				c0.575-4.838,5.135-8.316,10.187-7.767c5.04,0.55,8.666,4.899,8.113,9.727"/>
		</g>
		<g>
			<path fill="#151E1F" d="M474.547-540.498c-0.335,2.834-3.006,4.87-5.965,4.548c-2.959-0.322-5.084-2.88-4.747-5.714
				c0.336-2.833,3.007-4.869,5.965-4.548c2.951,0.322,5.075,2.869,4.749,5.696"/>
		</g>
		<g>
			<path fill="#F3F3F5" d="M397.198-644.649c-0.778,6.545-6.945,11.246-13.777,10.502c-6.832-0.743-11.741-6.651-10.964-13.194
				c0.776-6.545,6.945-11.246,13.776-10.502c6.815,0.741,11.72,6.623,10.969,13.152"/>
		</g>
		<g>
			<path fill="#808C8C" d="M395.048-644.974c-0.642,5.406-5.737,9.292-11.383,8.678c-5.646-0.615-9.702-5.496-9.061-10.904
				c0.643-5.408,5.739-9.293,11.384-8.678c5.632,0.613,9.685,5.472,9.065,10.869"/>
		</g>
		<g>
			<path fill="#F3F3F5" d="M393.971-645.138c-0.573,4.839-5.135,8.315-10.187,7.766c-5.052-0.55-8.682-4.919-8.108-9.758
				c0.574-4.839,5.136-8.317,10.188-7.766c5.039,0.549,8.666,4.898,8.111,9.727"/>
		</g>
		<g>
			<path fill="#151E1F" d="M390.216-645.318c-0.336,2.834-3.008,4.869-5.966,4.548c-2.958-0.323-5.084-2.881-4.747-5.714
				c0.336-2.834,3.007-4.87,5.966-4.548c2.95,0.322,5.074,2.869,4.749,5.696"/>
		</g>
		<g>
			<path fill="#F3F3F5" d="M603.716-483.16c-0.777,6.544-6.944,11.246-13.776,10.502c-6.831-0.744-11.741-6.652-10.963-13.194
				c0.776-6.545,6.943-11.246,13.776-10.504c6.815,0.744,11.719,6.624,10.968,13.154"/>
		</g>
		<g>
			<path fill="#808C8C" d="M601.567-483.485c-0.642,5.405-5.739,9.291-11.384,8.677c-5.645-0.616-9.702-5.498-9.06-10.903
				c0.642-5.407,5.737-9.294,11.385-8.68c5.63,0.614,9.683,5.473,9.063,10.87"/>
		</g>
		<g>
			<path fill="#F3F3F5" d="M600.491-483.647c-0.576,4.838-5.136,8.314-10.189,7.765c-5.051-0.55-8.682-4.919-8.107-9.758
				c0.574-4.838,5.136-8.316,10.187-7.763c5.04,0.547,8.666,4.897,8.111,9.724"/>
		</g>
		<g>
			<path fill="#F3F3F5" d="M420.143-603.932c-0.777,6.544-6.945,11.246-13.776,10.502c-6.832-0.744-11.741-6.652-10.965-13.195
				c0.777-6.543,6.944-11.245,13.776-10.502c6.815,0.742,11.72,6.624,10.97,13.153"/>
		</g>
		<g>
			<path fill="#808C8C" d="M417.993-604.258c-0.641,5.407-5.737,9.293-11.383,8.678c-5.647-0.614-9.702-5.496-9.061-10.904
				c0.643-5.407,5.739-9.293,11.384-8.678c5.632,0.614,9.685,5.473,9.065,10.87"/>
		</g>
		<g>
			<path fill="#F3F3F5" d="M416.917-604.421c-0.573,4.84-5.135,8.316-10.187,7.767c-5.052-0.55-8.682-4.919-8.108-9.758
				c0.574-4.839,5.136-8.316,10.188-7.766c5.039,0.549,8.666,4.898,8.111,9.727"/>
		</g>
		<g>
			<path fill="#151E1F" d="M413.162-604.6c-0.337,2.833-3.008,4.869-5.966,4.547c-2.957-0.322-5.084-2.88-4.747-5.713
				c0.336-2.834,3.007-4.869,5.965-4.547c2.951,0.321,5.075,2.867,4.751,5.695"/>
		</g>
		<g>
			<path fill="#F3F3F5" d="M449.275-570.962c-0.776,6.544-6.944,11.246-13.775,10.502c-6.832-0.744-11.741-6.651-10.965-13.194
				c0.777-6.545,6.944-11.247,13.776-10.502c6.815,0.741,11.72,6.623,10.97,13.153"/>
		</g>
		<g>
			<path fill="#808C8C" d="M447.126-571.289c-0.641,5.408-5.737,9.293-11.383,8.679c-5.646-0.615-9.702-5.496-9.061-10.903
				c0.643-5.408,5.739-9.293,11.384-8.678c5.632,0.613,9.684,5.472,9.065,10.869"/>
		</g>
		<g>
			<path fill="#F3F3F5" d="M446.05-571.451c-0.573,4.839-5.135,8.315-10.187,7.766c-5.052-0.551-8.682-4.919-8.108-9.758
				c0.574-4.84,5.136-8.317,10.188-7.767c5.039,0.549,8.666,4.899,8.111,9.727"/>
		</g>
		<g>
			<path fill="#151E1F" d="M442.294-571.631c-0.336,2.834-3.007,4.87-5.966,4.548c-2.957-0.323-5.083-2.881-4.747-5.714
				c0.337-2.834,3.008-4.869,5.965-4.548c2.951,0.322,5.075,2.869,4.751,5.696"/>
		</g>
		<g>
			<path fill="#F3F3F5" d="M520.448-517.489c-0.777,6.545-6.945,11.246-13.776,10.503c-6.833-0.744-11.741-6.652-10.964-13.195
				c0.776-6.545,6.945-11.246,13.775-10.502c6.814,0.74,11.72,6.622,10.969,13.152"/>
		</g>
		<g>
			<path fill="#808C8C" d="M518.299-517.812c-0.643,5.406-5.739,9.291-11.383,8.677c-5.647-0.616-9.703-5.498-9.061-10.903
				c0.643-5.409,5.739-9.294,11.383-8.68c5.631,0.615,9.684,5.474,9.065,10.871"/>
		</g>
		<g>
			<path fill="#F3F3F5" d="M517.222-517.976c-0.573,4.839-5.135,8.314-10.188,7.765c-5.052-0.55-8.681-4.919-8.108-9.757
				c0.574-4.839,5.136-8.318,10.188-7.767c5.04,0.551,8.666,4.9,8.111,9.727"/>
		</g>
		<g>
			<path fill="#151E1F" d="M513.467-518.157c-0.337,2.835-3.008,4.87-5.966,4.548c-2.957-0.323-5.084-2.881-4.747-5.712
				c0.336-2.833,3.007-4.87,5.966-4.55c2.95,0.323,5.074,2.87,4.749,5.696"/>
		</g>
		<g>
			<path fill="#F3F3F5" d="M561.016-499.937c-0.776,6.542-6.945,11.244-13.775,10.5c-6.833-0.744-11.742-6.65-10.966-13.195
				c0.777-6.545,6.945-11.246,13.776-10.502c6.815,0.743,11.721,6.625,10.969,13.155"/>
		</g>
		<g>
			<path fill="#808C8C" d="M558.867-500.264c-0.641,5.408-5.737,9.293-11.382,8.677c-5.647-0.614-9.703-5.495-9.062-10.903
				c0.642-5.408,5.74-9.294,11.385-8.677c5.633,0.613,9.684,5.473,9.065,10.867"/>
		</g>
		<g>
			<path fill="#F3F3F5" d="M557.791-500.428c-0.573,4.839-5.135,8.317-10.187,7.768c-5.053-0.552-8.682-4.918-8.109-9.76
				c0.574-4.839,5.135-8.314,10.187-7.765c5.041,0.548,8.667,4.897,8.113,9.728"/>
		</g>
		<g>
			<path fill="#151E1F" d="M554.036-500.606c-0.337,2.835-3.008,4.87-5.967,4.548c-2.957-0.324-5.084-2.881-4.747-5.715
				c0.336-2.834,3.007-4.87,5.966-4.547c2.951,0.32,5.074,2.867,4.748,5.697"/>
		</g>
		<g>
			<path fill="#F3F3F5" d="M454.403-462.267c-1.174,2.633-6.317,3.622-11.486,2.206c-5.168-1.413-8.407-4.697-7.231-7.329
				c1.174-2.632,6.316-3.62,11.486-2.206c5.157,1.412,8.394,4.681,7.239,7.31"/>
		</g>
		<g>
			<path fill="#808C8C" d="M452.789-462.753c-0.97,2.174-5.22,2.99-9.492,1.821c-4.271-1.167-6.947-3.878-5.976-6.055
				c0.971-2.174,5.221-2.99,9.492-1.821c4.261,1.166,6.936,3.866,5.982,6.04"/>
		</g>
		<g>
			<path fill="#F3F3F5" d="M451.975-462.993c-0.869,1.946-4.672,2.676-8.494,1.631c-3.823-1.046-6.217-3.473-5.349-5.418
				c0.869-1.948,4.672-2.68,8.494-1.631c3.813,1.044,6.207,3.46,5.353,5.406"/>
		</g>
		<g>
			<path fill="#151E1F" d="M449.115-463.676c-0.508,1.139-2.735,1.565-4.974,0.954c-2.239-0.612-3.64-2.034-3.132-3.174
				c0.51-1.14,2.736-1.567,4.975-0.955c2.231,0.612,3.633,2.026,3.134,3.164"/>
		</g>
		<g>
			
				<radialGradient id="SVGID_2_" cx="516.1282" cy="772.7085" r="25.2688" gradientTransform="matrix(0.9748 0.2909 0.2096 -0.8231 -264.1677 -211.6725)" gradientUnits="userSpaceOnUse">
				<stop  offset="0" style="stop-color:#93A0A6;stop-opacity:0.9961"/>
				<stop  offset="1" style="stop-color:#E9EDF6;stop-opacity:0"/>
			</radialGradient>
			<path fill="url(#SVGID_2_)" d="M376.345-718.342c0,0,9.345,1.26,13.289,2.119c4.219,0.919,9.805,2.389,13.868,3.852
				c2.798,1.007,6.603,2.358,9.052,4.045c2.827,1.946,5.797,5.536,8.09,8.089c1.538,1.711,4.814,5.97,4.814,5.97
				s-1.87,6.148-2.31,8.859c-0.417,2.572-0.578,8.667-0.578,8.667s-3.358-4.749-6.821-9.334c-1.925-2.549-3.881-5.047-5.313-6.651
				c-1.225-1.372-2.915-3.194-4.431-4.237c-2.107-1.452-5.322-2.721-7.703-3.66c-2.312-0.911-5.782-1.198-7.896-2.503
				c-2.678-1.652-5.185-5.2-7.319-7.511C381.003-712.893,376.345-718.342,376.345-718.342L376.345-718.342z"/>
			<path fill="none" stroke="#E3E3E3" stroke-width="0.1424" d="M376.345-718.342c0,0,9.345,1.26,13.289,2.119
				c4.219,0.919,9.805,2.389,13.868,3.852c2.798,1.007,6.603,2.358,9.052,4.045c2.827,1.946,5.797,5.536,8.09,8.089
				c1.538,1.711,4.814,5.97,4.814,5.97s-1.87,6.148-2.31,8.859c-0.417,2.572-0.578,8.667-0.578,8.667s-3.358-4.749-6.821-9.334
				c-1.925-2.549-3.881-5.047-5.313-6.651c-1.225-1.372-2.915-3.194-4.431-4.237c-2.107-1.452-5.322-2.721-7.703-3.66
				c-2.312-0.911-5.782-1.198-7.896-2.503c-2.678-1.652-5.185-5.2-7.319-7.511C381.003-712.893,376.345-718.342,376.345-718.342
				L376.345-718.342z"/>
		</g>
		<g>
			<path fill="none" stroke="#DBDBDB" stroke-width="1.4244" d="M376.065-717.188c0,0,4.805,1.471,6.934,1.733
				c1.29,0.159,4.616,0.325,5.907,0.484c1.222,0.151,2.83,0.506,4.408,0.893c1.398,0.343,2.772,0.711,3.829,0.984
				c3.084,0.799,5.469,1.48,8.441,2.624c1.863,0.716,4.287,1.889,5.924,3.033c1.985,1.389,4.426,4.313,6.11,6.055
				c2.714,2.803,8.039,9.822,8.039,9.822l13.272,18.345l14.122,19.914l29.851,32.583l17.891,17.529
				c9.807,7.562,17.654,16.91,26.699,24.471l11.874,9.069l13.173,6.533c12.344,5.643,21.359,9.201,32.921,14.844l48.966,17.983
				l41.564,13.421l38.145,9.046"/>
		</g>
		
			<radialGradient id="SVGID_3_" cx="428.2597" cy="748.4874" r="45.802" gradientTransform="matrix(1.437 0.247 0.0351 -0.8454 -276.7084 -172.2764)" gradientUnits="userSpaceOnUse">
			<stop  offset="0" style="stop-color:#475B5B"/>
			<stop  offset="0.5" style="stop-color:#316356;stop-opacity:0.2987"/>
			<stop  offset="1" style="stop-color:#1F3E39;stop-opacity:0"/>
		</radialGradient>
		<path fill="url(#SVGID_3_)" d="M319.242-667.734c0,0-0.203-5.215,0.533-7.276c1.027-2.88,4.047-5.876,5.856-8.34
			c2.381-3.246,5.659-7.498,8.163-10.649c3.178-3.996,7.456-9.295,10.826-13.131c2.931-3.341,7.664-7.616,10.666-10.894
			c0.918-1.003,2.124-1.556,3.448-3.03c3.417-3.804,4.76-9.88,8.367-9.731c1.389,0.058,2.84,2.766,3.596,3.759
			c2.828,3.712,3.436,9.369,6.399,12.976c2.819,3.432,7.274,7.387,10.293,10.647c3.381,3.654,7.735,8.666,11.002,12.422
			c3.766,4.331,12.423,14.551,12.423,14.551s0.178,3.863-1.065,4.437c-3.307,1.527-6.013-5.301-9.339-6.789
			c-1.877-0.838-4.543-1.959-6.587-2.187c-3.21-0.358-11.048,2.587-11.934,2.587c-0.887,0-11.333,2.384-16.442,3.45
			c-4.845,1.011-10.857,1.759-15.752,2.48c-3.648,0.538-9.576,1.614-13.236,2.056C331.269-669.771,319.242-667.734,319.242-667.734
			L319.242-667.734z"/>
		<g>
			
				<radialGradient id="SVGID_4_" cx="494.3515" cy="428.0167" r="145.6691" gradientTransform="matrix(1.2776 -1.1057 -1.2066 -1.4721 453.9253 579.3126)" gradientUnits="userSpaceOnUse">
				<stop  offset="0" style="stop-color:#93A0A6;stop-opacity:0.9961"/>
				<stop  offset="1" style="stop-color:#E9EDF6;stop-opacity:0"/>
			</radialGradient>
			<path fill="url(#SVGID_4_)" d="M419.828-696.966c0,0,19.689,26.375,26.41,35.158c4.659,6.088,10.87,14.225,15.964,19.954
				c7.517,8.457,18.373,18.963,26.486,26.849c4.694,4.562,11.214,10.371,15.964,14.875c6.257,5.932,14.118,14.365,20.681,19.955
				c4.558,3.882,10.829,8.895,15.964,11.974c6.181,3.706,15.169,7.263,21.769,10.159c11.532,5.059,27.042,11.513,38.822,15.966
				c9.048,3.418,21.335,7.361,30.475,10.519c11.648,4.024,27.095,9.64,38.823,13.426c2.433,0.784,5.177,1.652,8.004,2.525
				c4.708,1.45,9.646,2.907,13.764,4.006c6.481,1.724,21.768,5.079,21.768,5.079c-1.813,2.902,0.107-0.945-1.708,1.954
				c0,0-18.422-2.941-25.398-4.76c-10.381-2.713-17.648-3.558-31.654-8.702c-10.816-3.973-24.881-7.148-35.301-10.997
				c-7.159-2.647-20.325-6.44-26.664-8.931c-18.466-7.248-25.151-7.99-42.348-17.879c-4.794-2.757-23.053-10.746-27.266-14.327
				c-7.096-6.032-19.583-18.031-26.263-24.523c-8.225-7.995-19.52-18.318-27.575-26.486c-6.271-6.362-14.467-15.018-20.316-21.769
				c-8.419-9.71-33.044-42.629-33.044-42.629L419.828-696.966L419.828-696.966z"/>
		</g>
		<path fill="#FAFDFD" d="M386.544-640.53c0,0,0.827-1.134,0.453-2.838c-0.312-1.42-1.483-3.065-2.32-4.255
			c-0.804-1.143-2.766-2.823-2.766-2.823s9.882-5.963,14.369-8.007c5.256-2.396,12.316-5.514,17.793-7.349
			c5.229-1.753,12.32-3.939,17.791-4.642c3.683-0.472,12.377,0,12.377,0l6.577,9.283l-10.83,2.708l-23.209,6.575l-9.773,4.125
			l-11.755,6.006L386.544-640.53z"/>
		<g>
			<polygon fill="#FAFDFD" points="385.77,-651.029 402.525,-659.549 416.725,-664.66 430.641,-668.352 443.422,-668.92 
				447.398,-662.388 428.085,-656.993 413.885,-652.449 401.674,-646.769 394.574,-643.645 389.177,-642.509 388.326,-647.053 
				385.77,-651.029 			"/>
		</g>
		<path fill="#F9FDFD" d="M404.168-691.342c0,0,2.914,5.633,4.479,7.516c1.711,2.057,4.047,4.543,5.344,6.882
			c1.632,2.944,2.663,7.087,2.523,10.45c-0.137,3.307-2.853,7.238-3.362,10.51c-0.506,3.239-0.35,7.67-0.001,10.93
			c0.509,4.747,3.02,10.793,3.364,15.554c0.792,10.969-1.433,25.63-2.523,36.573c-0.291,2.911-0.846,6.774-1.261,9.669
			c-1.16,8.086-4.23,18.735-4.205,26.904c0.017,5.495,0.962,12.953,2.943,18.077c1.086,2.806,2.899,6.836,5.465,8.407
			c4.109,2.518,11.33,2.963,15.974,1.682c3.039-0.839,6.55-3.758,8.41-6.306c2.044-2.803,3.539-7.468,3.782-10.93
			c0.37-5.255-2.308-12.074-3.363-17.235c-1.573-7.707-3.523-18.022-5.464-25.644c-1.201-4.717-4.156-10.709-4.624-15.554
			c-0.635-6.557,1.389-15.311,2.101-21.861c0.453-4.168,1.306-9.697,1.681-13.872c0.193-2.14,0.039-5.033,0.42-7.147
			c0.611-3.377,3.007-7.518,3.364-10.93c0.434-4.157-1.073-9.699-1.261-13.873c-0.132-2.898-0.221-8.562-0.221-8.562l-13.806-17.593
			c0,0-2.674,6.748-3.209,8.918c-0.769,3.121,0.961,9.528-2.101,10.51c-2.636,0.844-4.559-4.586-6.726-6.306
			C409.395-686.548,404.168-691.342,404.168-691.342L404.168-691.342z"/>
		<g>
			<path fill="#263C3A" d="M425.61-578.812c0,0-0.821,6.484-1.261,9.248c-0.444,2.786-1.429,6.44-1.681,9.249
				c-0.216,2.387-0.134,5.595-0.001,7.988c0.126,2.281-0.07,5.472,0.84,7.567c0.464,1.066,2.524,2.942,2.524,2.942
				s2.329-3.098,2.941-4.624c0.72-1.79,1.203-4.377,1.261-6.305c0.111-3.69-1.236-8.526-1.681-12.191
				c-0.292-2.392-0.306-5.638-0.842-7.988C427.296-574.754,425.61-578.812,425.61-578.812L425.61-578.812z"/>
		</g>
		<g>
			
				<linearGradient id="SVGID_5_" gradientUnits="userSpaceOnUse" x1="640.233" y1="426.7359" x2="653.3573" y2="426.7359" gradientTransform="matrix(0.555 -0.1048 -0.0615 -0.945 82.5754 -120.5078)">
				<stop  offset="0" style="stop-color:#9C9C9C"/>
				<stop  offset="1" style="stop-color:#C5C5C5"/>
			</linearGradient>
			<polygon fill="url(#SVGID_5_)" points="415.18,-533.981 412.612,-542.184 410.033,-555.194 413.575,-576.636 415.824,-600.152 
				416.787,-620.387 415.823,-637.34 415.824,-647.731 419.357,-643.356 419.356,-625.308 419.356,-603.433 417.429,-578.278 
				415.503,-558.043 414.54,-541.637 415.18,-533.98 			"/>
		</g>
		<path fill="#FCFFFF" d="M441.161-609.834c-0.92,0-10.353-14.035-10.353-14.035l15.644-6.902
			c4.554-2.004,10.786-4.346,15.185-6.671c1.727-0.913,3.831-3.941,5.77-3.699c1.474,0.059,9.406,10.946,10.103,11.062
			c0,0-5.579,4.264-8.052,5.981c-3.648,2.533-9.716,6.274-13.668,8.301C451.238-613.462,441.161-609.834,441.161-609.834
			L441.161-609.834z"/>
		<path fill="#FCFFFF" d="M467.348-580.544c-0.912,0.132-12.056-12.009-12.056-12.009s10.745-6.751,15.095-9.468
			c4.221-2.636,10.053-5.845,14.072-8.776c1.579-1.151,6.375-4.648,8.328-4.686c1.466-0.151,11.497,11.15,12.205,11.165
			c-7.962,3.891-15.128,8.68-22.59,13.463C478.232-587.893,467.348-580.544,467.348-580.544L467.348-580.544z"/>
		<path fill="#FCFFFF" d="M499.947-555.78c0,0-5.854-3.383-8.71-5.299c-1.587-1.065-6.276-4.274-6.276-4.274
			s10.87-7.373,15.61-10.407c3.516-2.251,8.03-5.625,11.863-7.285c2.614-1.131,11.398-2.818,11.398-2.818l12.073,9.586
			c0,0-7.859,2.682-10.775,4.055c-2.58,1.213-5.904,3.075-8.326,4.578c-4.267,2.651-9.65,6.653-13.736,9.574
			C502.123-557.393,499.947-555.78,499.947-555.78L499.947-555.78z"/>
		<path fill="#FCFFFF" d="M539.321-536.84c0,0-6.214-2.667-9.275-4.231c-1.702-0.87-6.738-3.28-6.738-3.28s6.65-8.141,10.998-11.715
			c3.227-2.652,3.771-3.443,7.381-5.544c2.461-1.433,9.17-5.72,9.17-5.72l17.304,7.779c0,0-3.048,1.693-5.781,3.401
			c-2.417,1.51-5.325,1.515-7.553,3.296c-3.921,3.136-6.729,4.824-10.441,8.208C543.528-543.862,539.321-536.84,539.321-536.84
			L539.321-536.84z"/>
		<path fill="#FCFFFF" d="M564.073-526.422c0,0,4.387-1.087,6.478-2.014c3.419-1.518,8.089-3.464,11.071-5.716
			c1.937-1.46,4.014-4.004,5.536-5.892c1.187-1.468,2.818-3.448,3.573-5.177c0.394-0.907,1.377-4.321,1.377-4.321l14.872,5.705
			c0,0-3.45,4.021-5.001,5.58c-1.868,1.882-4.492,4.257-6.428,6.071c-1.494,1.398-3.343,3.441-4.999,4.643
			c-2.678,1.942-6.578,4.105-9.643,5.357c-1.491,0.61-4.074,0.764-4.074,0.764L564.073-526.422L564.073-526.422z"/>
		<path fill="#FCFFFF" d="M601.391-536.444c0,0,0.329,2.295-0.383,3.76c-0.565,1.166-1.925,2.642-1.785,3.93
			c0.144,1.329,1.664,2.695,2.68,3.571c2.212,1.91,5.872,3.512,8.57,4.644c1.86,0.776,4.485,1.422,6.428,1.963
			c1.489,0.412,5.714-0.357,5,1.251c-0.713,1.606-4.679,0.939-6.606,1.607c-1.836,0.633-4.268,1.618-5.892,2.679
			c-1.146,0.745-2.6,1.712-2.6,1.712l8.203,2.947l7.781,3.4l2.864-1.633l0.129,2.459l7.543,3.368c0,0,2.949-4.118,3.935-6.895
			c0.514-1.447,1.442-3.513,1.072-5.001c-0.423-1.698-2.369-3.393-3.751-4.465c-1.174-0.912-3.049-1.691-4.464-2.142
			c-1.502-0.481-3.649-0.508-5.179-0.895c-1.806-0.453-4.133-1.343-5.892-1.963c-1.455-0.509-3.574-0.876-4.821-1.785
			c-0.771-0.562-1.439-1.704-1.963-2.499c-0.37-0.56-0.966-1.3-1.071-1.966c-0.096-0.591,1.008-2.83,0.622-3.287
			C610.326-533.442,601.123-535.643,601.391-536.444L601.391-536.444z"/>
		<path fill="#FCFFFF" d="M629.107-474.011c0,0-0.391-4.847,0.001-6.871c0.805-4.146,3.547-9.198,5.268-13.055
			c1.653-3.704,4.169-8.496,5.955-12.138c1.649-3.368,3.628-7.974,5.496-11.221c1.235-2.151,3.103-4.884,4.582-6.872
			c1.543-2.076,3.563-3.422,3.563-3.422l13.986,4.676c0,0-3.145,4.382-4.266,7.68c-1.49,4.371-4.147,9.948-5.955,14.199
			c-1.493,3.512-3.253,8.308-5.039,11.68c-1.677,3.167-4.252,7.218-6.413,10.077c-0.997,1.322-2.431,3.019-3.664,4.121
			c-1.066,0.954-3.893,2.748-3.893,2.748s-3.168-1.132-4.581-1.373C632.655-474.033,629.107-474.011,629.107-474.011
			L629.107-474.011z"/>
		<path fill="#FCFFFF" d="M412.837-605.552l-9.453-2.754c0,0,1.974-4.429,2.704-6.373c1.307-3.483,2.07-8.523,3.863-11.781
			c0.614-1.119,0.481-2.496,0.912-3.697c0.391-1.091,1.062-3.572,1.062-3.572l2.768-3.669c0,0,0.963,2.714,1.158,4.077
			c0.279,1.952,0.585,3.99,0.68,5.958c0.094,1.902,0.136,4.44-0.03,6.9c-0.142,2.116,0.156,4.183-0.377,5.734
			c-0.57,1.656-0.224,4.438-1.458,5.68C413.226-607.602,412.837-605.552,412.837-605.552L412.837-605.552z"/>
		<path fill="#FCFFFF" d="M433.944-574.693c0,0,2.626-11.923,5.018-17.196c1.575-3.472,3.522-8.181,4.72-11.801
			c1.118-3.377,2.188-8.008,3.034-11.463c0.986-4.028,2.634-9.359,3.034-13.486c0.351-3.626,0.103-8.522-0.337-12.138
			c-0.287-2.363-0.318-5.805-1.685-7.755c-1.853-2.643-9.103-5.732-9.103-5.732l0.674-1.011c0,0,10.231,3.895,14.161,6.406
			c2.477,1.584,5.943,3.861,7.417,6.406c1.601,2.764,1.764,7.269,2.023,10.452c0.278,3.43-0.191,8.026-0.338,11.464
			c-0.154,3.644-0.049,8.544-0.674,12.138c-0.669,3.846-2.451,8.779-3.709,12.475c-1.362,4.001-3.254,9.327-5.058,13.149
			c-1.139,2.417-2.795,5.606-4.382,7.755c-1.574,2.129-7.319,6.406-7.319,6.406L433.944-574.693L433.944-574.693z"/>
		<path fill="#FCFFFF" d="M464.613-543.013c0,0-0.084-7.766,0.257-10.687c0.396-3.376,1.42-7.814,2.322-11.091
			c0.695-2.525,2.179-5.72,2.837-8.254c0.772-2.967,1.419-7.018,1.806-10.059c0.518-4.08,0.766-9.567,1.032-13.671
			c0.279-4.33,0.878-10.106,0.773-14.445c-0.091-3.81-1.821-14.233-1.821-14.233s5.258,3.001,6.979,4.174
			c1.493,1.017,3.05,2.935,4.127,4.385c1.386,1.865,3.268,4.463,3.87,6.706c1.141,4.26,0.048,10.292-0.001,14.703
			c-0.037,3.404-0.031,7.95-0.258,11.348c-0.373,5.594-1.258,13.025-2.062,18.572c-0.441,3.034-1.004,7.1-1.807,10.06
			c-0.646,2.386-1.842,5.474-2.837,7.737c-1.085,2.472-3.419,6.403-3.419,6.403l-3.192,3.191c0,0-0.994-2.113-1.643-3.403
			c-0.396-0.788-2.429-1.934-3.223-2.322C466.966-544.578,464.613-543.013,464.613-543.013L464.613-543.013z"/>
		<path fill="#FCFFFF" d="M502.451-519.396c0,0-0.608-3.768-0.735-5.417c-0.164-2.161,0.108-5.058,0.258-7.224
			c0.314-4.501,1.225-10.46,1.549-14.96c0.412-5.716,0.542-13.361,0.774-19.088c0.233-5.726,0.351-9.989,0.469-15.718
			c0.046-2.321-1.303-8.644-1.534-10.954c-0.115-1.178-2.916-8.31-2.916-8.31s7.828,6.024,9.826,7.335
			c2.336,1.533,6.867,5.871,8.188,8.334c0.778,1.445,1.07,9.142,1.233,10.775c0.551,5.554,0.516,5.799,0.725,11.376
			c0.148,3.944,0.367,9.209,0.258,13.155c-0.086,3.103-0.513,7.225-0.775,10.318c-0.347,4.104-0.527,9.622-1.29,13.67
			c-0.312,1.662-1.546,5.418-1.546,5.418l-3.91,3.383c0,0-1.413-2.074-2.538-2.865c-0.8-0.565-2.118-1.058-3.096-1.032
			C505.898-521.165,502.451-519.396,502.451-519.396L502.451-519.396z"/>
		<path fill="#FCFFFF" d="M543.994-501.255c0,0-0.966-5.157-1.538-7.412c-0.322-1.269-0.474-3.024-0.855-4.277
			c-0.324-1.062-0.803-3.808-0.981-4.904c-0.547-3.387,0.682-5.563,1.246-8.947c0.335-2.006,1.949-5.799,2.266-7.807
			c0.456-2.88,1.256-6.228,1.406-9.138c0.1-1.966-1.695-4.882-1.941-6.835c-0.37-2.925,0.254-3.822-0.968-6.505
			c-1.134-2.483-4.811-4.979-4.811-4.979s8.78,0.15,10.601,1.052c4.067,2.228,3.911,2.892,6.866,6.44
			c1.368,1.799,3.171,4.363,3.708,6.557c0.566,2.328,0.499,6.701,0.409,9.095c-0.082,2.14-0.489,3.93-0.981,6.013
			c-0.43,1.826-1.941,3.933-2.564,5.704c-0.677,1.914-1.454,4.537-1.712,6.556c-0.261,2.034-0.293,4.81,0,6.841
			c0.216,1.501,1.099,3.367,1.426,4.846c0.373,1.69,1.104,3.99,0.854,5.701c-0.202,1.401-1.183,3.117-1.995,4.275
			c-0.417,0.596-1.711,0.822-1.711,0.822s-0.923-1.519-1.71-2.248c-0.62-0.569-1.736-0.996-2.566-1.139
			C547.344-501.73,543.994-501.255,543.994-501.255L543.994-501.255z"/>
		<path fill="#FCFFFF" d="M586.494-485.25c0,0-1.817-4.454-2.249-6.462c-0.602-2.811-0.423-6.706-0.843-9.552
			c-0.302-2.046-1.014-4.716-1.405-6.745c-0.275-1.43-0.754-3.326-0.844-4.779c-0.097-1.599,0.489-3.748,0.281-5.338
			c-0.32-2.459-1.468-5.628-2.528-7.869c-0.732-1.54-2.18-3.332-3.092-4.776c-0.686-1.087-1.938-2.402-2.248-3.651
			c-0.304-1.232,0.804-3.062,0.283-4.218c-0.569-1.259-2.557-1.968-3.654-2.81c-1.432-1.097-3.846-2.106-4.776-3.653
			c-0.794-1.318-3.139-4.575-3.139-4.575s4.889,1.739,6.269,2.127c1.379,0.389,3.583-0.123,5.019-0.081c1.937,0.057,6.463,0,6.463,0
			c2.511,0.58,2.746,0.243,4.214,0.562c1.264,0.35,2.26,2.077,3.09,3.092c0.965,1.173,2.062,2.892,2.811,4.214
			c0.967,1.705,1.986,4.121,2.811,5.903c0.776,1.677,1.986,3.85,2.529,5.618c0.576,1.882,0.707,4.541,1.124,6.464
			c0.495,2.297,1.617,5.26,1.966,7.585c0.287,1.92,0.136,4.528,0.281,6.464c0.178,2.367,0.63,5.505,0.843,7.87
			c0.206,2.273,0.477,5.304,0.56,7.585c0.051,1.349,0.002,4.498,0.002,4.498l-4.151,5.202c0,0,0.304-1.27-0.338-2.076
			c-0.706-0.887-1.994-2.308-3.098-2.564c-0.885-0.205-2.762-0.052-3.626,0.227C588.059-486.667,586.494-485.25,586.494-485.25
			L586.494-485.25z"/>
		<g>
			
				<radialGradient id="SVGID_6_" cx="390.3116" cy="383.1219" r="18.1998" gradientTransform="matrix(-0.1953 -0.6049 -2.9856 -0.7076 1849.5964 -14.5677)" gradientUnits="userSpaceOnUse">
				<stop  offset="0" style="stop-color:#353535"/>
				<stop  offset="1" style="stop-color:#000000;stop-opacity:0"/>
			</radialGradient>
			<path fill="url(#SVGID_6_)" d="M612.185-531.785c0,0-0.816,1.616-0.862,2.368c-0.051,0.86,0.282,2.018,0.646,2.802
				c0.408,0.876,1.158,2.009,1.937,2.582c1.547,1.142,4.216,1.528,6.032,2.154c1.543,0.532,3.572,1.367,5.168,1.723
				c1.079,0.239,2.582,0.19,3.662,0.43c1.195,0.268,2.774,0.755,3.875,1.292c1.047,0.511,2.396,1.342,3.229,2.153
				c0.964,0.938,2.587,3.661,2.587,3.661c-0.174,0.661-0.064,1.265,0.482,1.782c0,0,1.156-4.067,1.886-5.226
				c0.486-0.775,1.299-1.83,2.153-2.155c0.968-0.367,2.539,0.717,3.446,0.215c0.709-0.391,1.129-2.369,1.129-2.369l-10.605-3.232
				c-2.329-0.704-5.448-1.594-7.752-2.366c-2.676-0.899-6.161-2.323-8.832-3.231C617.931-530.032,612.185-531.785,612.185-531.785
				L612.185-531.785z"/>
		</g>
		<path fill="#FCFFFF" d="M638.374-511.542l2.035,2.583l0.203,2.586l-3.661,7.106l-4.523-1.938l4.069-5.815L638.374-511.542
			L638.374-511.542z"/>
		
			<radialGradient id="SVGID_7_" cx="636.991" cy="433.6872" r="3.6032" gradientTransform="matrix(1.3003 -0.2825 0.8305 -4.764 -545.8813 1733.6062)" gradientUnits="userSpaceOnUse">
			<stop  offset="0" style="stop-color:#FCFFFF"/>
			<stop  offset="1" style="stop-color:#FCFFFF;stop-opacity:0"/>
		</radialGradient>
		<path fill="url(#SVGID_7_)" d="M640.438-508.962c-0.252-0.655-1.321-1.142-1.456-1.835c-0.197-1.007,0.622-2.32,0.971-3.289
			c0.251-0.695,0.561-1.648,0.972-2.265c0.409-0.616,1.069-1.431,1.726-1.781c0.319-0.171,0.825-0.227,1.186-0.214
			c0.718,0.024,2.322,0.593,2.322,0.593s-1.987,3.556-2.753,5.125c-0.475,0.967-1.004,2.31-1.456,3.29
			c-0.392,0.846-1.349,2.804-1.349,2.804S640.703-508.282,640.438-508.962z"/>
		<g>
			<path fill="#F3F3F5" d="M499.128-455.997c-1.993,4.033-7.503,5.553-12.308,3.392c-4.803-2.157-7.082-7.18-5.088-11.213
				c1.993-4.035,7.504-5.553,12.307-3.396c4.792,2.155,7.072,7.158,5.101,11.189"/>
		</g>
		<g>
			<path fill="#808C8C" d="M497.637-456.738c-1.647,3.335-6.2,4.59-10.169,2.805c-3.969-1.785-5.852-5.933-4.204-9.268
				c1.647-3.332,6.201-4.588,10.169-2.802c3.96,1.778,5.844,5.913,4.215,9.244"/>
		</g>
		<g>
			<path fill="#F3F3F5" d="M496.892-457.103c-1.476,2.984-5.55,4.106-9.102,2.509c-3.552-1.596-5.237-5.309-3.761-8.293
				c1.473-2.983,5.549-4.106,9.1-2.51c3.543,1.594,5.231,5.294,3.773,8.276"/>
		</g>
		<g>
			<path fill="#151E1F" d="M494.196-458.15c-0.864,1.748-3.25,2.406-5.329,1.472c-2.08-0.935-3.068-3.111-2.205-4.857
				c0.862-1.747,3.249-2.406,5.33-1.469c2.074,0.934,3.063,3.1,2.207,4.846"/>
		</g>
		<g>
			
				<radialGradient id="SVGID_8_" cx="695.2416" cy="433.8518" r="20.0354" gradientTransform="matrix(1.2419 0.2701 0.4353 -1.5459 -371.636 -26.8698)" gradientUnits="userSpaceOnUse">
				<stop  offset="0" style="stop-color:#222C2C"/>
				<stop  offset="1" style="stop-color:#101414"/>
			</radialGradient>
			<path fill="url(#SVGID_8_)" d="M660.379-506.095c0,0,7.887,1.081,11.289,1.316c3.18,0.216,7.443,0.439,10.624,0.218
				c2.482-0.173,5.748-0.836,8.189-1.315c3.144-0.612,9.08-1.214,9.08-1.214s-7.009-1.681-10.139-2.15
				c-4.503-0.676-9.539-1.826-13.994-2.765c-2.506-0.529-7.083-2.408-8.19-2.409c-1.105-0.002-3.762-0.658-3.762-0.658
				s-0.714,2.779-1.106,3.941C661.851-509.59,660.379-506.095,660.379-506.095L660.379-506.095z"/>
		</g>
		<g>
			
				<linearGradient id="SVGID_9_" gradientUnits="userSpaceOnUse" x1="888.3621" y1="186.158" x2="887.3461" y2="179.8742" gradientTransform="matrix(0.945 -0.1048 -0.1048 -0.945 -212.9343 -259.639)">
				<stop  offset="0" style="stop-color:#7F9096"/>
				<stop  offset="1" style="stop-color:#7F9096;stop-opacity:0"/>
			</linearGradient>
			<path fill="url(#SVGID_9_)" d="M614.363-523.632c0,0-4.22-0.211-6.023-0.392c-1.773-0.174-4.29,0.004-5.89-0.783
				c-1.095-0.544-2.303-1.802-2.878-2.881c-0.285-0.531-0.51-1.374-0.393-1.964c0.163-0.832,1.165-1.609,1.57-2.354
				c0.285-0.527,0.126-1.645,0.263-2.225c0.16-0.689-0.001-2.358-0.001-2.358s4.035,1.121,4.998,1.506
				c1.465,0.583,2.805,1.093,4.211,1.809c0.727,0.373,2.044,1.027,2.334,1.79c0.3,0.793-1.275,1.904-1.202,2.75
				c0.076,0.893,0.722,1.975,1.178,2.748C612.987-525.212,614.363-523.632,614.363-523.632L614.363-523.632z"/>
		</g>
		<g>
			
				<linearGradient id="SVGID_10_" gradientUnits="userSpaceOnUse" x1="888.5089" y1="180.4531" x2="884.7866" y2="160.5528" gradientTransform="matrix(0.945 -0.1048 -0.1048 -0.945 -212.9343 -259.639)">
				<stop  offset="0" style="stop-color:#2E3131"/>
				<stop  offset="1" style="stop-color:#2E3131;stop-opacity:0"/>
			</linearGradient>
			<path fill="url(#SVGID_10_)" d="M618.734-516.273c-2.807-0.015-6.517-0.768-9.325-0.818c-1.966-0.038-4.578,0.31-6.544,0.325
				c-1.472,0.013-3.722,0.71-4.908-0.162c-0.962-0.71-0.502-2.707-0.762-3.872c-0.311-1.397-0.788-3.228-1.038-4.636
				c-0.174-0.995-0.439-2.333-0.817-3.271c-0.295-0.735-1.309-2.29-1.309-2.29s3.213-2.788,4.744-3.765
				c0.37-0.234,0.87-0.682,1.31-0.654c0.352,0.023,0.8,0.349,0.98,0.654c0.301,0.508,0.282,1.385,0.163,1.963
				c-0.209,1.033-1.446,2.073-1.634,3.11c-0.142,0.778-0.051,1.923,0.327,2.616c0.765,1.407,2.742,2.569,4.09,3.435
				c1.922,1.236,4.75,2.429,6.871,3.272c1.485,0.592,3.502,1.34,5.071,1.637c0.773,0.147,1.835,0.096,2.617,0.163
				c0.886,0.078,2.173-0.112,2.945,0.328c0.213,0.123,0.51,0.412,0.492,0.654c-0.035,0.487-0.705,0.944-1.147,1.146
				C620.28-516.17,619.374-516.27,618.734-516.273L618.734-516.273z"/>
		</g>
		<g>
			
				<linearGradient id="SVGID_11_" gradientUnits="userSpaceOnUse" x1="852.7814" y1="207.3946" x2="863.5204" y2="202.8131" gradientTransform="matrix(0.945 -0.1048 -0.1048 -0.945 -212.9343 -259.639)">
				<stop  offset="0" style="stop-color:#939B9D"/>
				<stop  offset="1" style="stop-color:#C1CBCE;stop-opacity:0"/>
			</linearGradient>
			<path fill="url(#SVGID_11_)" d="M573.961-538.275c1.285,0.197,2.802-1.364,3.696-2.349c0.745-0.818,1.697-2.186,1.716-3.317
				c0.02-1.301-0.794-3.19-1.849-3.873c-1.279-0.829-3.512-0.063-5.015,0c-0.991,0.041-2.837-0.387-3.822-0.509
				c-2.152-0.268-6.865-1.958-6.865-1.958s2.429,4.422,3.692,5.785c1.155,1.247,2.555,2.267,3.965,3.179
				c0.74,0.48,2.485,0.95,3.162,1.522C573.101-539.407,573.379-538.363,573.961-538.275L573.961-538.275z"/>
		</g>
		<g>
			
				<linearGradient id="SVGID_12_" gradientUnits="userSpaceOnUse" x1="838.0741" y1="211.5299" x2="871.2316" y2="211.5299" gradientTransform="matrix(0.945 -0.1048 -0.1048 -0.945 -212.9343 -259.639)">
				<stop  offset="0" style="stop-color:#243030"/>
				<stop  offset="1" style="stop-color:#243030;stop-opacity:0"/>
			</linearGradient>
			<path fill="url(#SVGID_12_)" d="M574.186-538.288c0,0-6.529-2.555-9.031-4.188c-1.095-0.713-2.295-2.011-3.271-2.879
				c-0.75-0.664-1.89-1.424-2.488-2.225c-0.494-0.661-0.792-1.758-1.178-2.487c-0.362-0.684-1.309-2.225-1.309-2.225
				s4.495-4.336,6.015-4.086c1.089,0.178,3.271,0.594,4.704,1.811c1.931,0.836,3.28,1.409,5.231,2.265
				c1.991,0.381,3.441,1.508,5.303,2.312c0.821,0.356,2.535,2.162,2.535,2.162s-5.374,0.58-6.51,0.509
				c-1.581-0.098-3.687-0.334-5.237-0.654c-1.24-0.256-2.857-0.771-4.057-1.178c-0.718-0.243-2.356-0.916-2.356-0.916
				s0.974,2.54,1.571,3.534c0.592,0.983,1.51,2.237,2.357,3.01c0.586,0.536,1.537,1.039,2.225,1.439
				c0.879,0.513,2.114,1.088,3.01,1.572c0.712,0.383,1.898,0.643,2.356,1.308c0.158,0.229,0.131,0.919,0.131,0.919L574.186-538.288z
				"/>
		</g>
		<g>
			
				<linearGradient id="SVGID_13_" gradientUnits="userSpaceOnUse" x1="802.6857" y1="234.8925" x2="848.321" y2="242.0013" gradientTransform="matrix(0.945 -0.1048 -0.1048 -0.945 -212.9343 -259.639)">
				<stop  offset="0" style="stop-color:#151C1C"/>
				<stop  offset="1" style="stop-color:#243030;stop-opacity:0"/>
			</linearGradient>
			<path fill="url(#SVGID_13_)" d="M523.478-570.761l8.356-3.916c0,0,2.309,2.272,3.395,3.134c1.854,1.473,4.419,3.36,6.528,4.439
				c1.632,0.835,5.745,2.088,5.745,2.088l-2.612,2.873c0,0-4.602,0.626-6.528,0.261c-2.101-0.397-4.67-1.811-6.528-2.872
				C529.152-566.285,523.478-570.761,523.478-570.761z"/>
		</g>
		<g opacity="0.8482" enable-background="new    ">
			
				<radialGradient id="SVGID_14_" cx="345.8418" cy="547.6219" r="15.3313" gradientTransform="matrix(2.6677 0.1999 0.7598 -4.1523 -939.5974 1574.7719)" gradientUnits="userSpaceOnUse">
				<stop  offset="0" style="stop-color:#1A2926"/>
				<stop  offset="1" style="stop-color:#1A2926;stop-opacity:0"/>
			</radialGradient>
			<polygon fill="url(#SVGID_14_)" points="395.513,-636.921 397.194,-641.542 411.476,-649.103 414.418,-639.862 410.217,-631.46 
				406.016,-618.857 398.455,-615.076 395.934,-610.875 386.692,-617.597 383.751,-628.099 385.431,-632.3 391.733,-633.98 			"/>
		</g>
		<g>
			
				<linearGradient id="SVGID_15_" gradientUnits="userSpaceOnUse" x1="733.2469" y1="299.3012" x2="723.9929" y2="303.012" gradientTransform="matrix(0.945 -0.1048 -0.1048 -0.945 -212.9343 -259.639)">
				<stop  offset="0" style="stop-color:#B0BBB7"/>
				<stop  offset="1" style="stop-color:#B0BBB7;stop-opacity:0"/>
			</linearGradient>
			<path fill="url(#SVGID_15_)" d="M445.526-611.953c0,0,2.303-6.124,3.003-8.834c0.525-2.034,1.127-4.794,1.236-6.891
				c0.075-1.434-0.354-4.771-0.354-4.771s-2.477,1.57-3.003,2.65c-0.396,0.812,0.005,2.119-0.176,3.004
				c-0.251,1.215-0.923,2.747-1.413,3.887c-0.657,1.525-1.961,3.37-2.475,4.947c-0.199,0.614-0.038,1.558-0.352,2.12
				c-0.515,0.918-2.333,1.294-2.651,2.298c-0.329,1.042,0.707,4.241,0.707,4.241l4.063-0.354L445.526-611.953L445.526-611.953z"/>
		</g>
		<g>
			
				<linearGradient id="SVGID_16_" gradientUnits="userSpaceOnUse" x1="763.2665" y1="404.1845" x2="754.012" y2="407.8956" gradientTransform="matrix(0.4717 -0.1335 -0.0776 -0.9411 144.0004 -108.5529)">
				<stop  offset="0" style="stop-color:#B0BBB7"/>
				<stop  offset="1" style="stop-color:#B0BBB7;stop-opacity:0"/>
			</linearGradient>
			<path fill="url(#SVGID_16_)" d="M471.95-584.907c0,0,0.995-6.19,1.274-8.92c0.21-2.048-0.216-3.282-0.216-5.381
				c0-1.435-0.303-4.757-0.303-4.757s-1.203,1.645-1.438,2.74c-0.178,0.823,0.058,2.118-0.01,3.007
				c-0.094,1.221-0.392,2.773-0.606,3.927c-0.29,1.543-0.895,3.427-1.111,5.019c-0.085,0.619,0.022,1.558-0.122,2.129
				c-0.234,0.933-1.137,1.365-1.27,2.376c-0.137,1.052,0.467,4.216,0.467,4.216l2.031-0.477L471.95-584.907L471.95-584.907z"/>
		</g>
		<g>
			
				<linearGradient id="SVGID_17_" gradientUnits="userSpaceOnUse" x1="763.3926" y1="362.6271" x2="754.1374" y2="366.3384" gradientTransform="matrix(0.4585 -0.1609 -0.1552 -0.8113 211.3488 -150.971)">
				<stop  offset="0" style="stop-color:#B0BBB7"/>
				<stop  offset="1" style="stop-color:#B0BBB7;stop-opacity:0"/>
			</linearGradient>
			<path fill="url(#SVGID_17_)" d="M504.839-562.641c0,0,0.478-5.479,0.529-7.88c0.038-1.802-0.276-3.362-0.45-5.188
				c-0.119-1.248-0.378-3.581-0.378-3.581s-1.59,1.544-1.733,2.52c-0.108,0.732,0.234,1.836,0.239,2.616
				c0.008,1.072-0.158,2.45-0.278,3.474c-0.159,1.369-0.606,3.065-0.69,4.471c-0.031,0.547,0.15,1.354,0.055,1.864
				c-0.155,0.834-1.02,1.295-1.067,2.188c-0.05,0.928,0.815,3.623,0.815,3.623l1.981-0.608L504.839-562.641L504.839-562.641z"/>
		</g>
		<g>
			
				<radialGradient id="SVGID_18_" cx="472.4341" cy="447.843" r="6.3402" gradientTransform="matrix(2.4552 -0.1974 -0.1147 -2.5877 -558.163 704.6456)" gradientUnits="userSpaceOnUse">
				<stop  offset="0" style="stop-color:#A7B0AD"/>
				<stop  offset="1" style="stop-color:#BEC8C5;stop-opacity:0"/>
			</radialGradient>
			<polygon fill="url(#SVGID_18_)" points="544.945,-544.899 549.65,-550.324 555.43,-553.323 556.269,-550.946 551.98,-547.653 
				546.683,-543.892 544.424,-541.716 544.945,-544.899 			"/>
		</g>
		<g opacity="0.563" enable-background="new    ">
			
				<linearGradient id="SVGID_19_" gradientUnits="userSpaceOnUse" x1="691.5543" y1="347.157" x2="698.6675" y2="348.173" gradientTransform="matrix(0.945 -0.1133 -0.1048 -1.0225 6.3356 -78.4891)">
				<stop  offset="0" style="stop-color:#B3BBB8"/>
				<stop  offset="1" style="stop-color:#B3BBB8;stop-opacity:0"/>
			</linearGradient>
			<path fill="url(#SVGID_19_)" d="M622.41-518.046c0,0,1.951,0.631,2.678,1.149c0.714,0.507,1.611,1.363,2.032,2.188
				c0.471,0.919,0.724,2.378,0.739,3.44c0.015,0.925-0.185,3.022-0.554,3.022c-0.37,0-1.294,2.395-1.294,2.395l-1.292-0.518
				c0,0,1.447-2.892,1.57-4.275c0.074-0.823-0.14-1.965-0.462-2.71c-0.37-0.856-1.176-1.818-1.848-2.397
				c-0.66-0.569-2.495-1.354-2.495-1.354L622.41-518.046z"/>
		</g>
		<g opacity="0.5222" enable-background="new    ">
			<path fill="#0B1E1C" d="M455.663-466.784c1.939-3.637,9.625-2.159,13.729-2.529c3.612-0.322,8.361,0.773,11.959,0.314
				c3.711-0.473,11.717-5.008,12.4-1.329c0.753,4.054-10.392,0.603-13.286,3.545c-1.153,1.171-1.357,3.67-1.329,5.313
				c0.032,1.933,0.645,4.627,1.772,6.201c1.223,1.707,6.662,2.09,5.757,3.986c-2.03,4.246-10.448-1.385-15.058-2.346
				c-2.096-0.435-4.943-0.885-7.085-0.887c-3.214,0.001-7.494-0.049-10.63-0.753c-1.689-0.38-5.16-1.394-4.871-3.101
				c0.388-2.29,5.752-0.279,7.528-1.771c0.776-0.651,1.406-2.092,1.33-3.101C457.78-464.493,455.073-465.68,455.663-466.784
				L455.663-466.784z"/>
		</g>
		<g opacity="0.5185" enable-background="new    ">
			<path fill="#0B1E1C" d="M487.934-449.028c0,0,8.087,0.753,8.839,0.752c0.752,0.001,9.013-0.879,12.597-2.256
				c3.784-1.455,9.386-3.669,11.471-7.144c0.872-1.454,1.157-4.136,0.375-5.641c-1.401-2.697-5.849-4.087-8.649-5.264
				c-3.811-1.6-10.671-2.396-14.683-3.386c-1.407-0.347-3.369-1.126-3.369-1.126s-0.846,1.521-0.694,2.672
				c0.091,0.694,2.01,2.968,2.01,2.968s4.106,3.01,5.077,4.89c0.525,1.012,0.641,2.623,0.563,3.758
				c-0.093,1.409-0.508,3.357-1.315,4.514c-0.763,1.092-2.354,2.099-3.572,2.63l-6.096,2.64l-2.367-1.698L487.934-449.028
				L487.934-449.028z"/>
		</g>
		<g>
			<path fill="#152D2B" d="M353.209-455.92c0,0-11.45-8.59-16.691-11.759c-4.05-2.451-10.066-4.63-14.038-7.208
				c-5.633-3.658-12.333-9.684-17.449-14.038c-3.499-2.977-7.239-8.252-11.381-10.242c-6.341-3.045-23.141-3.794-23.141-3.794
				s5.436,6.504,7.967,9.105c4.324,4.446,11.759,1.517,15.174,14.038c3.415,12.518,0.77,9.876,3.035,13.276
				c3.256,4.891,10.339,9.59,15.933,11.38c6.286,2.014,15.404,0.135,22.002,0.002C340.201-455.276,353.209-455.92,353.209-455.92z"
				/>
		</g>
		<path fill="#F4F7FF" d="M255.254-425.683c0,0-1.157-10.828-1.94-14.665c-0.55-2.7-1.045-6.35-1.643-9.042
			c-0.526-2.365-2.065-5.385-2.054-7.806c0.006-1.405,0.327-3.708,0.683-5.068c0.385-1.474,2.026-2.877,1.781-4.38
			c-0.257-1.588-1.984-3.183-2.875-4.521c-0.837-1.25-2.877-4.109-2.877-4.109s-0.697,3.725-0.82,5.342
			c-0.103,1.351-0.082,3.165-0.001,4.519c0.186,3.097,1.048,7.172,1.233,10.272c0.118,1.968-0.215,4.613,0,6.573
			c0.373,3.388-1.882,2.458,0.948,13.877c0.581,2.351,1.205,3.582,2.795,5.408C251.537-428.074,255.254-425.683,255.254-425.683
			L255.254-425.683z"/>
		<g>
			
				<radialGradient id="SVGID_20_" cx="201.9936" cy="476.5668" r="2.8871" gradientTransform="matrix(7.0842 6.4397 3.4126 -4.7546 -2804.4543 519.0023)" gradientUnits="userSpaceOnUse">
				<stop  offset="0" style="stop-color:#979797"/>
				<stop  offset="1" style="stop-color:#787878;stop-opacity:0"/>
			</radialGradient>
			<polygon fill="url(#SVGID_20_)" points="255.859,-425.768 254.369,-425.605 253.507,-433.482 252.526,-440.098 251.299,-447.467 
				250.443,-451.496 249.352,-454.999 248.816,-458.299 249.528,-462.46 250.881,-465.046 251.534,-466.669 251.574,-466.667 
				251.594,-466.713 251.702,-466.669 253.033,-466.665 252.971,-466.125 252.233,-464.404 250.911,-461.874 250.333,-458.299 
				250.808,-455.339 251.891,-451.875 252.77,-447.746 254.006,-440.328 254.992,-433.674 			"/>
		</g>
		<g>
			<path fill="#929294" d="M247.047-440.414l0-5.87l0.415-4.462l-0.415-5.868l-0.831-3.994"/>
			
				<radialGradient id="SVGID_21_" cx="267.8239" cy="454.9044" r="0.8144" gradientTransform="matrix(1.6384 -1.0549 -0.1816 -9.5163 -109.6339 4163.5815)" gradientUnits="userSpaceOnUse">
				<stop  offset="0" style="stop-color:#979797"/>
				<stop  offset="1" style="stop-color:#787878;stop-opacity:0"/>
			</radialGradient>
			<polygon fill="url(#SVGID_21_)" points="248.023,-440.416 246.072,-440.415 246.072,-446.284 246.484,-450.753 246.074,-456.547 
				245.261,-460.409 247.171,-460.807 248.003,-456.813 248.435,-450.652 248.019,-446.194 			"/>
		</g>
		<g opacity="0.3741" enable-background="new    ">
			<g>
				
					<radialGradient id="SVGID_22_" cx="331.3146" cy="398.8485" r="3.6887" gradientTransform="matrix(0.945 -0.1285 -0.1048 -1.1588 -22.0863 34.1122)" gradientUnits="userSpaceOnUse">
					<stop  offset="0" style="stop-color:#979797"/>
					<stop  offset="1" style="stop-color:#787878;stop-opacity:0"/>
				</radialGradient>
				<polygon fill="url(#SVGID_22_)" points="251.606,-466.412 249.013,-470.419 246.909,-472.524 245.665,-474.014 
					246.816,-474.971 248.014,-473.532 250.227,-471.301 252.864,-467.226 				"/>
			</g>
		</g>
		<g>
			
				<linearGradient id="SVGID_23_" gradientUnits="userSpaceOnUse" x1="923.6019" y1="104.377" x2="959.3958" y2="104.377" gradientTransform="matrix(0.945 -0.1048 -0.1048 -0.945 -212.9343 -259.639)">
				<stop  offset="0" style="stop-color:#234141"/>
				<stop  offset="1" style="stop-color:#234141;stop-opacity:0"/>
			</linearGradient>
			<polyline fill="url(#SVGID_23_)" points="649.675,-445.727 666.382,-455.75 675.452,-459.09 684.044,-464.341 			"/>
			<polyline fill="none" stroke="#FFFFFF" stroke-width="1.1395" stroke-dasharray="4.5579,2.279" points="649.675,-445.727 
				666.382,-455.75 675.452,-459.09 684.044,-464.341 			"/>
		</g>
		<g>
			
				<linearGradient id="SVGID_24_" gradientUnits="userSpaceOnUse" x1="806.0282" y1="-349.632" x2="841.8214" y2="-349.632" gradientTransform="matrix(0.7762 -0.086 -0.086 -0.7762 -2.3966 -652.7445)">
				<stop  offset="0" style="stop-color:#234141"/>
				<stop  offset="1" style="stop-color:#234141;stop-opacity:0"/>
			</linearGradient>
			<polyline fill="url(#SVGID_24_)" points="659.322,-444.841 667.612,-449.544 675.06,-452.287 682.115,-456.6 			"/>
			<polyline fill="none" stroke="#FFFFFF" stroke-width="1.3128" stroke-dasharray="5.2512,2.6256" points="659.322,-444.841 
				667.612,-449.544 675.06,-452.287 682.115,-456.6 			"/>
		</g>
		<g>
			<polyline fill="none" stroke="#FFFFFF" stroke-width="1.1395" stroke-dasharray="4.5579,2.279" points="649.139,-446.264 
				649.41,-441.375 650.497,-436.486 654.299,-423.719 			"/>
		</g>
		<g>
			<polyline fill="none" stroke="#FFFFFF" stroke-width="1.1395" stroke-dasharray="4.5579,2.279" points="657.288,-445.177 
				657.559,-440.289 658.646,-435.4 661.635,-424.532 			"/>
		</g>
		<g>
			
				<linearGradient id="SVGID_25_" gradientUnits="userSpaceOnUse" x1="1070.8556" y1="124.306" x2="1072.6504" y2="128.3397" gradientTransform="matrix(0.945 -0.1048 -0.1048 -0.945 -212.9343 -259.639)">
				<stop  offset="0" style="stop-color:#353535"/>
				<stop  offset="1" style="stop-color:#000000;stop-opacity:0"/>
			</linearGradient>
			<path fill="url(#SVGID_25_)" d="M793.897-486.474c-0.286,0.032-0.577-0.103-0.73-0.37c-0.011-0.016-0.96-1.638-2.147-2.67
				c-0.984-0.856-3.911-3.137-4.98-3.758c-1.627-0.944-5.636-2.887-5.676-2.906c-0.371-0.18-0.527-0.627-0.346-1.001
				c0.18-0.369,0.63-0.529,0.999-0.346c0.167,0.079,4.099,1.985,5.774,2.957c1.223,0.71,4.288,3.12,5.213,3.924
				c1.377,1.198,2.415,2.973,2.458,3.047c0.207,0.36,0.084,0.818-0.273,1.026C794.097-486.517,793.996-486.485,793.897-486.474z"/>
		</g>
		<g>
			<path fill="#F3F3F5" d="M646.458-472.217c-0.776,6.542-6.945,11.244-13.777,10.5c-6.831-0.743-11.739-6.649-10.964-13.195
				c0.777-6.544,6.944-11.246,13.776-10.502c6.815,0.743,11.72,6.626,10.969,13.155"/>
		</g>
		<g>
			<path fill="#808C8C" d="M644.309-472.544c-0.64,5.408-5.737,9.295-11.382,8.677c-5.647-0.613-9.703-5.495-9.062-10.903
				c0.643-5.408,5.738-9.294,11.385-8.677c5.632,0.613,9.685,5.473,9.063,10.868"/>
		</g>
		<g>
			<path fill="#F3F3F5" d="M643.233-472.707c-0.573,4.838-5.136,8.318-10.187,7.765c-5.052-0.55-8.682-4.916-8.109-9.757
				c0.576-4.839,5.137-8.315,10.189-7.765c5.037,0.547,8.666,4.898,8.111,9.727"/>
		</g>
		<g>
			<path fill="#151E1F" d="M639.477-472.885c-0.336,2.829-3.007,4.869-5.967,4.547c-2.957-0.322-5.083-2.881-4.747-5.715
				c0.337-2.834,3.008-4.869,5.965-4.547c2.952,0.321,5.076,2.867,4.751,5.694"/>
		</g>
		<g>
			<path fill="#151E1F" d="M596.733-483.829c-0.336,2.835-3.007,4.871-5.964,4.548c-2.96-0.32-5.084-2.878-4.747-5.712
				c0.335-2.833,3.006-4.869,5.964-4.547c2.953,0.321,5.075,2.867,4.75,5.694"/>
		</g>
		<g>
			
				<radialGradient id="SVGID_26_" cx="691.5013" cy="-137.2123" r="47.4012" gradientTransform="matrix(2.608 -0.389 -0.3443 -0.3776 -1105.2241 -237.429)" gradientUnits="userSpaceOnUse">
				<stop  offset="0" style="stop-color:#D6D9D9"/>
				<stop  offset="1" style="stop-color:#E0E3E3;stop-opacity:0"/>
			</radialGradient>
			<polygon fill="url(#SVGID_26_)" points="703.813,-433.606 735.542,-442.017 767.269,-453.867 785.998,-465.334 792.879,-475.655 
				772.618,-474.893 740.51,-469.158 711.842,-461.131 698.079,-451.955 699.991,-442.017 703.813,-433.606 			"/>
		</g>
		<path fill="#EFEFFB" d="M609.567-364.122c0,0-2.453-12.124-3.592-17.302c-0.929-4.222-2.234-9.837-3.263-14.036
			c-0.747-3.046-1.822-7.087-2.612-10.12c-0.485-1.863-1.632-6.201-1.632-6.201s29.946-0.352,42.763-0.982
			c3.922-0.19,9.153-0.547,13.057-0.979c8.754-0.964,20.391-2.64,29.053-4.242c10.56-1.953,24.577-4.973,34.929-7.835
			c9.342-2.58,21.629-6.659,30.685-10.118c9.381-3.586,21.898-8.524,30.684-13.384c4.254-2.356,7.712-4.285,11.161-7.713
			c2.198-2.18,5.579-4.802,6.812-7.644c0.919-2.116,1.21-4.454,1.193-6.759c-0.868-1.92-0.527-3.368-0.932-5.446
			c-0.688-3.517-2.034-9.077-4.239-11.711c-1.53-1.732-7.434-5.802-7.434-5.802s8.853,5.916,10.88,7.722
			c3.02,2.697,6.383,8.601,7.986,12.317c2.481,5.76,10.871,22.902,11.964,29.079c1.221,6.879,1.063,4.453,1.653,11.417
			c0.467,5.477-3.301,14.732-3.301,14.732c0.501-0.25-3.726,4.937-6.781,7.427c-2.692,2.195-9.402,5.856-12.313,7.753
			c-5.465,3.567-13.554,6.975-19.586,9.469c-7.184,2.969-17.035,6.259-24.483,8.487c-9.581,2.862-22.581,5.879-32.316,8.159
			c-9.462,2.221-22.116,5.048-31.665,6.857c-7.214,1.365-16.872,3.003-24.156,3.918c-7.708,0.962-18.036,1.807-25.79,2.283
			c-5.771,0.351-13.48,0.556-19.259,0.652C616.194-364.073,609.567-364.122,609.567-364.122L609.567-364.122z"/>
		<g>
			<path fill="none" stroke="#DDDDDD" stroke-width="1.4244" d="M600.489-404.225c0,0,17.777-0.137,25.022-0.326
				c7.642-0.199,17.854-0.244,25.463-0.979c8.878-0.858,20.597-3.011,29.378-4.57c11.8-2.097,27.565-4.86,39.173-7.832
				c8.551-2.194,19.725-5.949,28.074-8.815c6.624-2.273,15.449-5.368,21.871-8.161c5.624-2.446,13.104-5.858,18.281-9.142
				c3.475-2.205,7.965-5.478,10.774-8.486c1.779-1.907,4.405-4.948,5.75-7.182c1.083-1.803,1.906-4.162,2.411-6.202
				c0.282-1.141,0.693-2.933,0.693-2.933"/>
		</g>
		<g>
			
				<linearGradient id="SVGID_27_" gradientUnits="userSpaceOnUse" x1="699.9926" y1="254.6157" x2="715.437" y2="258.4236" gradientTransform="matrix(0.8944 -0.1066 -0.0991 -0.9619 -2.5889 -67.2539)">
				<stop  offset="0" style="stop-color:#B1C7C9"/>
				<stop  offset="1" style="stop-color:#535D5E;stop-opacity:0"/>
			</linearGradient>
			<polygon fill="url(#SVGID_27_)" points="609.119,-364.163 603.806,-368.926 600.265,-385.431 597.904,-400.983 598.495,-412.409 
				600.561,-399.714 604.988,-382.257 607.348,-370.196 609.119,-364.163 			"/>
		</g>
		<g>
			<path fill="none" stroke="#FFFFFF" stroke-width="1.4244" d="M598.819-412.02c0,0,9.262,0.069,13.23,0.002
				c6.508-0.112,15.184-0.42,21.686-0.735c8.718-0.424,20.366-0.823,29.036-1.837c7.776-0.913,18.042-2.909,25.728-4.412
				c5.539-1.082,12.893-2.7,18.377-4.042c6.988-1.711,16.297-4.07,23.155-6.25c8.843-2.807,20.437-7.172,29.036-10.658
				c5.031-2.041,16.538-7.353,16.538-7.353l-0.367,0.002"/>
		</g>
		<g>
			<path fill="none" stroke="#F6F6F6" stroke-width="1.4244" d="M775.742-447.211c0,0,5.767-2.789,8.061-4.283
				c2.66-1.734,6.064-4.307,8.312-6.548c1.981-1.975,4.659-4.751,5.794-7.304c0.746-1.681,0.979-4.207,1.007-6.046
				c0.039-2.287-0.542-5.342-1.116-7.557c-0.574-2.212-0.691-2.988-1.569-5.084c-0.287-0.685-2.1-4.236-2.1-4.236"/>
		</g>
		<g opacity="0.9333" enable-background="new    ">
			<path fill="#D6D9E2" d="M605.065-398.103c0,0,48.537-0.303,69.264-1.855c16.592-1.245,38.641-4.01,55.04-6.805
				c14.601-2.487,33.861-6.959,48.239-10.51c8.783-2.172,20.143-6.546,29.067-8.042c2.932-0.492,9.894-0.617,9.894-0.617
				s-5.739,9.368-9.276,12.368c-7.974,6.763-21.23,12.159-30.922,16.08c-19.919,8.051-47.678,15.723-68.646,20.406
				c-20.512,4.584-69.266,10.513-69.266,10.513s-15.973,1.358-21.644-1.854c-3.585-2.032-8.041-11.132-8.041-11.132L605.065-398.103
				L605.065-398.103z"/>
		</g>
		<g>
			<path fill="none" stroke="#D2D2D2" stroke-width="1.4244" d="M605.608-384.362c0,0,15.778-0.095,22.24-0.326
				c6.959-0.248,16.243-0.651,23.176-1.305c8.163-0.77,19.003-2.263,27.094-3.589c9.06-1.487,21.077-3.859,30.033-5.876
				c8.874-2.003,20.592-5.15,29.377-7.51c6.977-1.873,16.391-4.055,23.179-6.529c7.371-2.686,16.99-6.929,23.829-10.772
				c4.24-2.381,9.609-6.076,13.385-9.141c2.634-2.138,5.87-5.329,8.16-7.834c0.737-0.806,4.172-5.149,6.381-8.641
				c1.589-2.511,2.492-4.969,2.492-4.969"/>
		</g>
		
			<radialGradient id="SVGID_28_" cx="544.1662" cy="441.6986" r="35.0142" gradientTransform="matrix(0.6599 0.8787 0.7865 -0.4924 -394.62 -825.736)" gradientUnits="userSpaceOnUse">
			<stop  offset="0" style="stop-color:#CFCFCF"/>
			<stop  offset="1" style="stop-color:#CFCFCF;stop-opacity:0"/>
		</radialGradient>
		<path opacity="0.737" fill="url(#SVGID_28_)" enable-background="new    " d="M329.172-529.52
			c-18.612,5.732-41.379-5.568-50.852-25.237c-9.474-19.67-2.067-40.261,16.545-45.993c18.611-5.73,41.38,5.569,50.853,25.239
			c9.45,19.62,2.105,40.169-16.428,45.955"/>
		<g>
			<polygon fill="#4B41A9" points="297.485,-547.04 300.592,-563.208 287.101,-578.306 303.482,-573.059 307.444,-589.228 
				312.476,-570.596 320.507,-568.455 330.036,-567.277 315.795,-559.246 321.257,-539.972 308.3,-554.214 297.485,-547.04 			"/>
			<polygon fill="none" stroke="#000096" stroke-width="0.8546" points="297.485,-547.04 300.592,-563.208 287.101,-578.306 
				303.482,-573.059 307.444,-589.228 312.476,-570.596 320.507,-568.455 330.036,-567.277 315.795,-559.246 321.257,-539.972 
				308.3,-554.214 297.485,-547.04 			"/>
		</g>
	</g>
	<g opacity="0.9222" enable-background="new    ">
		<path fill="#142E2B" d="M289.147-587.05c0,0,2.242-12.266,4.465-17.07c1.615-3.492,4.988-7.47,7.353-10.505
			c2.364-3.034,6.149-6.59,8.403-9.716c1.984-2.751,5.605-6.33,5.778-9.717c0.123-2.429-1.894-5.454-3.413-7.353
			c-2.982-3.729-7.458-8.629-11.382-11.35c-2.821-1.956-6.513-4.049-9.309-6.04c-3.057-2.176-7.542-4.754-10.33-7.266
			c-2.235-2.014-9.335-6.478-9.335-6.478s2.323,9.385,3.122,13.452c0.717,3.657,1.409,9.069,2.277,12.693
			c1.261,5.279,2.32,13.765,3.531,19.054c1.151,5.031,2.633,12.731,3.443,17.827c0.497,3.129,1.206,7.441,1.517,10.592
			c0.319,3.23,0.682,3.63,1.488,6.773C287.053-590.992,289.147-587.049,289.147-587.05L289.147-587.05z"/>
	</g>
	<g opacity="0.9333" enable-background="new    ">
		<path fill="#152E2D" d="M328.36-649.932l10.919,17.546l13.415,16.606c0,0,3.119,13.16,4.056,14.413
			c0.935,1.254,16.222,14.413,16.222,14.413l21.84,8.772l8.735-3.133l-12.791-20.68l-13.416-27.258l-8.735-17.547l-2.808-6.266
			l-13.416,2.82l-12.168,1.253L328.36-649.932L328.36-649.932z"/>
	</g>
	<g opacity="0.9444" enable-background="new    ">
		<polygon fill="#142E2D" points="373.105,-653.064 388.123,-656.109 403.46,-659.456 413.367,-661.891 421.994,-659.457 
			424.549,-656.108 413.685,-651.542 409.212,-653.978 402.183,-652.759 395.792,-648.802 393.237,-643.019 393.235,-636.018 
			396.431,-629.93 402.821,-626.277 413.366,-625.973 418.478,-620.493 421.993,-609.23 416.881,-602.838 412.088,-594.314 
			410.491,-588.226 400.266,-601.315 390.36,-617.753 381.413,-635.409 373.105,-653.064 		"/>
	</g>
	<g opacity="0.7815" enable-background="new    ">
		<polyline fill="none" stroke="#000000" stroke-width="1.4244" points="272.39,-495.468 271.545,-511.311 272.389,-520.901 
			273.659,-531.323 275.772,-541.747 277.463,-550.086 279.41,-558.604 281.319,-566.402 283.437,-570.847 288.366,-575.689 
			290.458,-579.884 290.045,-585.495 287.863,-588.99 289.228,-585.763 		"/>
	</g>
	<g opacity="0.781" enable-background="new    ">
		<path fill="none" stroke="#111111" stroke-width="1.4244" d="M278.51-555.766c0,0,0.687-5.287,1.3-7.482
			c0.324-1.161,2.024-2.666,2.567-3.742c0.701-1.389,1.783-3.183,2.765-4.391c1.198-1.473,3.542-2.786,4.554-4.392
			c0.824-1.305,1.379-3.356,1.627-4.879c0.203-1.254,0.301-2.998-0.001-4.23c-0.325-1.335-2.114-4.066-2.114-4.066"/>
	</g>
	<g>
		<path fill="#1A3A3A" d="M343.774-662.752c-0.786-0.436-0.256-2.135,0.001-2.997c1.406-4.732,6.145-9.748,8.989-13.783
			c3.252-4.614,7.674-10.729,11.387-14.982c2.675-3.064,6.864-6.568,9.588-9.588c2.482-2.753,5.485-6.688,7.79-9.589
			c2.553-3.209,4.774-9.015,8.857-9.39c2.156-0.198,3.926,3.583,4.229,5.725c0.565,4.001-4.139,5.774-6.492,9.058
			c-2.83,3.947-7.125,8.814-10.188,12.585c-3.948,4.86-9.507,11.112-13.184,16.181c-3.514,4.844-5.535,13.912-10.787,16.779
			C351.676-662.877,346.146-661.436,343.774-662.752L343.774-662.752z"/>
	</g>
</g>
<g>
	<polyline fill="none" stroke="#1A3434" stroke-width="1.4244" points="498.235,272.41 507.166,279.285 514.122,285.25 
		521.535,293.342 525.906,300.752 528.835,308.693 531.309,317.623 532.602,324.69 533.972,334.191 	"/>
</g>
<g opacity="0.9481" enable-background="new    ">
	<path fill="#1F2828" d="M490.942,285.104c-0.961,1.714,0.271,4.682-0.378,6.535c-0.706,2.006-2.562,4.313-4.104,5.777
		c-0.961,0.91-3.868,1.043-3.724,2.356c0.244,2.217,4.903,1.733,6.991,2.507c2.303,0.854,5.192,2.757,7.641,2.924
		c1.856,0.128,4.194-1.183,6.042-1.407c2.478-0.301,5.854,0.27,8.321-0.115c0.778-0.122,2.335,0.006,2.509-0.762
		c0.31-1.368-2.238-2.459-3.46-3.152c-2.465-1.399-6.513-1.46-9.043-2.734c-1.282-0.646-3.111-1.614-3.84-2.849
		c-1.3-2.2,0.007-6.156-1.142-8.438c-0.531-1.049-1.641-2.638-2.815-2.734C492.85,282.923,491.478,284.147,490.942,285.104
		L490.942,285.104z"/>
</g>
</svg>
