
<svg version="1.1" id="Layer_1" xmlns="http://www.w3.org/2000/svg" xmlns:xlink="http://www.w3.org/1999/xlink" viewBox="0 0 768 430" enable-background="new 0 0 768 430" xml:space="preserve">
<g transform="matrix(.94503,.10476,-.10476,.94503,-192.77892,660.36534)">
	<g transform="translate(23.27692,5.81923)">
		<g>
			<path fill="#E3E7F3" d="M282.123-473.879l1.233,36.977c0.394,4.312-0.471,9.931,5.547,12.942c0,0,5.756,5.725,13.94,10.039
				c6.322,3.328,14.667,5.239,19.338,6.599c10.35,3.013,24.97,3.29,35.743,3.697c13.49,0.51,31.488-0.918,44.986-1.234
				c19.411-0.45,45.31-2.098,64.707-1.231c8.545,0.381,19.923,1.597,28.348,3.08c9.183,1.616,21.372,4.381,30.195,7.396
				c13.785,4.707,30.622,14.914,44.371,19.719c9.015,3.154,21.366,6.594,30.813,8.012c12.627,1.896,29.758,2.258,42.521,1.85
				c13.753-0.443,32.014-2.757,45.602-4.931c14.93-2.389,34.642-6.768,49.299-10.476c12.706-3.213,29.926-7.015,41.907-12.324
				c10.693-4.742,26.048-11.136,33.277-20.337c3-3.815,4.658-10.561,4.932-15.405c0.211-3.764-1.124-8.804-2.466-12.327
				c-2.21-5.808-7.548-12.389-10.475-17.869c-3.198-5.98-9.862-20.339-9.862-20.339s1.073,11.791-1.232,16.025
				c-4.665,8.574-17.23,15.198-25.883,19.719c-15.494,8.094-55.463,17.872-55.463,17.872s-29.618,6.607-42.521,8.012
				c-17.837,1.943-59.778,1.848-59.778,1.848s-31.619-1.01-44.986-3.082c-15.42-2.389-35.455-8.305-50.533-12.325
				c-12.833-3.423-29.4-10.261-42.521-12.325c-42.755-6.726-101.504,2.76-144.204-4.315c-9.923-1.643-23.482-4.583-32.046-9.86
				C291.458-461.833,282.123-473.879,282.123-473.879L282.123-473.879z"/>
			<path opacity="0.2991" fill="none" stroke="#000000" stroke-width="1.3384" enable-background="new    " d="M282.123-473.879
				l1.233,36.977c0.394,4.312-0.471,9.931,5.547,12.942c0,0,5.756,5.725,13.94,10.039c6.322,3.328,14.667,5.239,19.338,6.599
				c10.35,3.013,24.97,3.29,35.743,3.697c13.49,0.51,31.488-0.918,44.986-1.234c19.411-0.45,45.31-2.098,64.707-1.231
				c8.545,0.381,19.923,1.597,28.348,3.08c9.183,1.616,21.372,4.381,30.195,7.396c13.785,4.707,30.622,14.914,44.371,19.719
				c9.015,3.154,21.366,6.594,30.813,8.012c12.627,1.896,29.758,2.258,42.521,1.85c13.753-0.443,32.014-2.757,45.602-4.931
				c14.93-2.389,34.642-6.768,49.299-10.476c12.706-3.213,29.926-7.015,41.907-12.324c10.693-4.742,26.048-11.136,33.277-20.337
				c3-3.815,4.658-10.561,4.932-15.405c0.211-3.764-1.124-8.804-2.466-12.327c-2.21-5.808-7.548-12.389-10.475-17.869
				c-3.198-5.98-9.862-20.339-9.862-20.339s1.073,11.791-1.232,16.025c-4.665,8.574-17.23,15.198-25.883,19.719
				c-15.494,8.094-55.463,17.872-55.463,17.872s-29.618,6.607-42.521,8.012c-17.837,1.943-59.778,1.848-59.778,1.848
				s-31.619-1.01-44.986-3.082c-15.42-2.389-35.455-8.305-50.533-12.325c-12.833-3.423-29.4-10.261-42.521-12.325
				c-42.755-6.726-101.504,2.76-144.204-4.315c-9.923-1.643-23.482-4.583-32.046-9.86
				C291.458-461.833,282.123-473.879,282.123-473.879L282.123-473.879z"/>
		</g>
		<path fill="#1F3C3D" stroke="#000000" stroke-width="1.3384" stroke-opacity="0.298" d="M284.123-474.787
			c-1.067-2.621,0.537-6.586,0.496-9.412c-0.106-7.308-2.289-16.976-1.983-24.276c0.417-9.935,3.425-22.96,5.45-32.695
			c1.373-6.599,2.526-15.724,5.449-21.797c1.38-2.866,5.847-5.296,6.44-8.422c1.007-5.315-3.805-12.052-4.953-17.339
			c-1.693-7.785-2.574-18.412-3.963-26.256c-1.43-8.064-3.947-18.7-5.449-26.752c-1.467-7.853-2.82-18.437-4.459-26.255
			c-0.754-3.599-3.281-8.226-2.974-11.889c0.218-2.586,1.382-6.381,3.468-7.926c2.044-1.515,5.879-1.031,8.422-0.992
			c7.062,0.109,16.228,3.173,23.284,3.467c4.613,0.192,10.764-0.53,15.357-0.991c6.567-0.658,15.303-1.796,21.798-2.972
			c7.946-1.438,18.33-4.388,26.256-5.944c2.661-0.523,2.826,0.853,5.193-0.471c3.953-2.211,9.103-12.556,13.631-12.411
			c3.922,0.127,4.585,8.348,7.927,10.403c3.476,2.138,9.421,1.472,13.374,2.477c6.059,1.538,14.518,3.121,19.817,6.44
			c4.541,2.845,8.912,8.796,12.385,12.879c8.665,10.191,18.311,25.293,26.751,35.669c7.375,9.067,17.628,20.834,25.76,29.227
			c4.682,4.834,11.466,10.726,16.348,15.358c7.167,6.801,16.291,16.343,23.779,22.787c4.978,4.285,11.729,9.958,17.339,13.375
			c10.787,6.574,26.505,12.924,38.144,17.835c13.175,5.558,31.092,12.118,44.585,16.842c14.595,5.113,34.156,11.681,49.045,15.854
			c12.356,3.463,29.089,7.101,41.612,9.907c14.819,3.32,35.823,3.885,49.539,10.405c3.627,1.721,10.727,4.469,12.707,7.961
			c1.557,2.741,1.162,10.533,0.564,13.63c-0.845,4.381-4.253,6.907-7.356,10.115c-4.501,4.652-13.905,8.689-19.787,11.391
			c-13.453,6.187-30.772,11.691-45.117,15.35c-14.971,3.817-36.15,8.204-51.502,9.906c-16.256,1.804-44.943,1.264-61.295,1.486
			c-8.471,0.118-13.957,0.107-22.408-0.483c-8.535-0.598-19.824-2.423-28.238-3.965c-11.24-2.06-26.179-5.229-37.153-8.42
			c-6.366-1.851-12.981-4.625-19.35-6.462c-6.582-1.897-16.983-4.854-23.749-5.924c-9.289-1.468-21.82-2.408-31.21-2.972
			c-11.872-0.714-27.739-0.779-39.632-0.993c-14.266-0.253-31.847,0.634-46.099-0.01c-7.448-0.336-19.311,0.453-26.689-0.622
			c-7.066-1.029-16.527-2.635-23.283-4.954c-5.156-1.768-11.307-4.76-15.812-7.824C292.408-464.291,286.03-470.115,284.123-474.787
			L284.123-474.787z"/>
		<g opacity="0.99" enable-background="new    ">
			<path fill="#233132" d="M283.895-437.341c0,0,4.426,4.765,6.705,6.333c5.722,3.94,14.275,7.852,20.862,10.06
				c7.024,2.352,16.858,3.958,24.215,4.842c10.662,1.28,25.028,1.612,35.765,1.491c12.207-0.136,28.409-2.124,40.607-2.607
				c14.63-0.582,34.171-1.299,48.802-0.747c8.636,0.327,20.188,1.047,28.686,2.612c9.361,1.721,21.486,5.659,30.549,8.566
				c18.109,5.813,41.288,16.487,59.606,21.608c4.392,1.229,10.373,2.454,14.902,2.982c6.442,0.749,24.848,0.743,24.848,0.743
				l-1.864-4.624c0,0-14.351,0.529-19.258,0.155c-3.977-0.3-9.175-1.614-13.038-2.608c-15.441-3.973-35.547-10.969-50.667-16.019
				c-7.979-2.664-18.365-6.994-26.452-9.314c-7.375-2.117-17.379-4.388-24.96-5.589c-9.425-1.492-22.131-2.614-31.667-2.979
				c-12.733-0.486-29.733,0.319-42.469,0.744c-13.644,0.455-31.799,2.096-45.45,2.237c-7.827,0.079-18.303,0.15-26.079-0.746
				c-6.684-0.769-15.54-2.525-21.979-4.472c-6.815-2.055-17.239-4.926-23.015-9.086c-3.344-2.41-8.941-10.433-8.941-10.433
				L283.895-437.341L283.895-437.341z"/>
		</g>
		<g>
			<path fill="#DDE1EA" d="M283.642-451.105c0,0,4.426,4.763,6.706,6.334c5.722,3.939,14.273,7.849,20.862,10.056
				c7.024,2.357,16.86,3.963,24.216,4.845c10.661,1.281,25.027,1.61,35.764,1.492c12.207-0.139,28.41-2.123,40.607-2.609
				c14.631-0.579,34.17-1.296,48.803-0.744c8.635,0.326,20.186,1.043,28.685,2.607c9.361,1.724,21.486,5.659,30.549,8.569
				c18.11,5.814,43.603,12.142,61.813,17.636c4.216,1.271,11.132,0.91,16.552,1.212c6.477,0.364,18.633,0.306,18.633,0.306
				l-0.236-4.192c0,0-9.546,1.08-14.454,0.705c-3.978-0.302-13.465-0.39-17.328-1.384c-15.439-3.973-35.334-7-50.453-12.046
				c-7.978-2.669-18.363-6.996-26.449-9.316c-7.377-2.115-17.382-4.387-24.961-5.587c-9.424-1.491-22.132-2.615-31.666-2.981
				c-12.733-0.486-29.734,0.321-42.469,0.748c-13.645,0.452-31.8,2.094-45.45,2.233c-7.826,0.081-18.303,0.15-26.078-0.744
				c-6.686-0.769-15.539-2.525-21.98-4.469c-6.814-2.061-17.239-4.93-23.015-9.089c-3.345-2.41-8.941-10.434-8.941-10.434
				L283.642-451.105L283.642-451.105z"/>
			<path opacity="0.1709" fill="none" stroke="#020000" stroke-width="0.2677" enable-background="new    " d="M283.642-451.105
				c0,0,4.426,4.763,6.706,6.334c5.722,3.939,14.273,7.849,20.862,10.056c7.024,2.357,16.86,3.963,24.216,4.845
				c10.661,1.281,25.027,1.61,35.764,1.492c12.207-0.139,28.41-2.123,40.607-2.609c14.631-0.579,34.17-1.296,48.803-0.744
				c8.635,0.326,20.186,1.043,28.685,2.607c9.361,1.724,21.486,5.659,30.549,8.569c18.11,5.814,43.603,12.142,61.813,17.636
				c4.216,1.271,11.132,0.91,16.552,1.212c6.477,0.364,18.633,0.306,18.633,0.306l-0.236-4.192c0,0-9.546,1.08-14.454,0.705
				c-3.978-0.302-13.465-0.39-17.328-1.384c-15.439-3.973-35.334-7-50.453-12.046c-7.978-2.669-18.363-6.996-26.449-9.316
				c-7.377-2.115-17.382-4.387-24.961-5.587c-9.424-1.491-22.132-2.615-31.666-2.981c-12.733-0.486-29.734,0.321-42.469,0.748
				c-13.645,0.452-31.8,2.094-45.45,2.233c-7.826,0.081-18.303,0.15-26.078-0.744c-6.686-0.769-15.539-2.525-21.98-4.469
				c-6.814-2.061-17.239-4.93-23.015-9.089c-3.345-2.41-8.941-10.434-8.941-10.434L283.642-451.105L283.642-451.105z"/>
		</g>
		<g>
			<path fill="none" stroke="#000000" stroke-width="3.7475" d="M282.902-474.758c0,0,6.941,9.997,11.011,13.141
				c4.978,3.846,12.987,6.973,18.95,8.976c6.471,2.175,15.503,3.785,22.273,4.655c10.103,1.295,23.727,1.499,33.909,1.66
				c17.055,0.271,39.792-1.083,56.847-0.996c10.776,0.059,25.173,0.03,35.905,0.999c5.225,0.473,12.169,1.503,17.287,2.659
				c9.141,2.063,20.912,6.39,29.919,8.976c12.325,3.537,28.711,8.489,41.222,11.302c6.719,1.511,15.766,3.192,22.606,3.989
				c10.319,1.204,24.189,1.696,34.574,1.995c11.764,0.339,27.463,0.293,39.228,0c7.986-0.199,18.675-0.294,26.596-1.33
				c15.672-2.045,36.274-6.837,51.528-10.972c13.182-3.571,30.916-8.363,43.217-14.294c8.05-3.877,19.371-9.295,24.934-16.29
				c1.982-2.494,3.1-6.836,3.656-9.974c0.524-2.945-1.706-9.71-1.706-9.71"/>
		</g>
		<g>
			<path fill="#252E2B" d="M471.956-457.66c-0.375,1.027-2.311,1.459-4.325,0.962c-2.015-0.495-3.346-1.738-2.973-2.766
				c0.375-1.03,2.311-1.461,4.327-0.963c2.014,0.495,3.341,1.735,2.972,2.763"/>
			<path fill="none" stroke="#000000" stroke-width="1.3384" d="M471.956-457.66c-0.375,1.027-2.311,1.459-4.325,0.962
				c-2.015-0.495-3.346-1.738-2.973-2.766c0.375-1.03,2.311-1.461,4.327-0.963c2.014,0.495,3.341,1.735,2.972,2.763"/>
		</g>
		<g>
			<path fill="#4F524F" d="M513.772-448.306c-0.59,1.398-2.551,1.743-4.383,0.762c-1.833-0.984-2.841-2.918-2.254-4.321
				c0.588-1.402,2.55-1.745,4.383-0.762c1.833,0.982,2.838,2.914,2.254,4.318"/>
			<path fill="none" stroke="#000000" stroke-width="1.3379" d="M513.772-448.306c-0.59,1.398-2.551,1.743-4.383,0.762
				c-1.833-0.984-2.841-2.918-2.254-4.321c0.588-1.402,2.55-1.745,4.383-0.762c1.833,0.982,2.838,2.914,2.254,4.318"/>
		</g>
		<g>
			<path fill="#FCFFFF" d="M305.221-569.85c1.154-4.743,3.119-11.143,5.872-15.172c1.965-2.874,5.442-6.293,8.565-7.83
				c3.411-1.681,8.685-2.422,12.479-2.203c4.36,0.252,10.033,2.229,13.948,4.161c4.714,2.325,10.285,6.759,14.192,10.277
				c3.592,3.235,7.899,8.098,10.766,11.991c3.143,4.268,7.45,10.12,9.054,15.17c0.869,2.738,0.91,6.678,0.734,9.543
				c-0.341,5.532-1.461,13.024-3.671,18.108c-1.51,3.475-4.785,7.479-7.34,10.276c-2.352,2.575-5.727,5.955-8.808,7.587
				c-1.749,0.924-4.397,1.514-6.364,1.712c-2.342,0.234-5.566,0.149-7.829-0.49c-2.56-0.725-5.645-2.644-7.832-4.16
				c-4.188-2.904-9.203-7.573-12.725-11.256c-3.39-3.546-7.242-8.869-10.277-12.725c-2.687-3.416-7.009-7.545-8.808-11.502
				c-1.832-4.022-2.731-10.022-2.937-14.437C304.116-563.526,304.577-567.196,305.221-569.85L305.221-569.85z"/>
			<path fill="none" stroke="#000000" stroke-width="0.6692" d="M305.221-569.85c1.154-4.743,3.119-11.143,5.872-15.172
				c1.965-2.874,5.442-6.293,8.565-7.83c3.411-1.681,8.685-2.422,12.479-2.203c4.36,0.252,10.033,2.229,13.948,4.161
				c4.714,2.325,10.285,6.759,14.192,10.277c3.592,3.235,7.899,8.098,10.766,11.991c3.143,4.268,7.45,10.12,9.054,15.17
				c0.869,2.738,0.91,6.678,0.734,9.543c-0.341,5.532-1.461,13.024-3.671,18.108c-1.51,3.475-4.785,7.479-7.34,10.276
				c-2.352,2.575-5.727,5.955-8.808,7.587c-1.749,0.924-4.397,1.514-6.364,1.712c-2.342,0.234-5.566,0.149-7.829-0.49
				c-2.56-0.725-5.645-2.644-7.832-4.16c-4.188-2.904-9.203-7.573-12.725-11.256c-3.39-3.546-7.242-8.869-10.277-12.725
				c-2.687-3.416-7.009-7.545-8.808-11.502c-1.832-4.022-2.731-10.022-2.937-14.437C304.116-563.526,304.577-567.196,305.221-569.85
				L305.221-569.85z"/>
		</g>
		<g>
			<path fill="#FCFFFF" d="M309.167-567.87c1.034-4.253,2.795-9.995,5.267-13.61c1.763-2.578,4.882-5.644,7.684-7.024
				c3.06-1.507,7.79-2.173,11.195-1.975c3.91,0.225,8.998,1.998,12.513,3.731c4.227,2.087,9.225,6.065,12.73,9.22
				c3.224,2.901,7.087,7.264,9.66,10.756c2.82,3.828,6.683,9.079,8.12,13.61c0.78,2.455,0.818,5.989,0.659,8.56
				c-0.306,4.962-1.311,11.683-3.293,16.243c-1.355,3.117-4.294,6.71-6.585,9.221c-2.109,2.309-5.137,5.342-7.902,6.804
				c-1.568,0.83-3.942,1.359-5.707,1.536c-2.101,0.211-4.993,0.136-7.024-0.438c-2.297-0.652-5.065-2.374-7.026-3.733
				c-3.755-2.605-8.254-6.793-11.415-10.096c-3.04-3.182-6.496-7.956-9.219-11.416c-2.409-3.063-6.285-6.768-7.902-10.316
				c-1.642-3.609-2.449-8.991-2.634-12.951C308.174-562.195,308.587-565.489,309.167-567.87L309.167-567.87z"/>
			<path fill="none" stroke="#000000" stroke-width="0.5314" stroke-dasharray="2.1254,0.5314" d="M309.167-567.87
				c1.034-4.253,2.795-9.995,5.267-13.61c1.763-2.578,4.882-5.644,7.684-7.024c3.06-1.507,7.79-2.173,11.195-1.975
				c3.91,0.225,8.998,1.998,12.513,3.731c4.227,2.087,9.225,6.065,12.73,9.22c3.224,2.901,7.087,7.264,9.66,10.756
				c2.82,3.828,6.683,9.079,8.12,13.61c0.78,2.455,0.818,5.989,0.659,8.56c-0.306,4.962-1.311,11.683-3.293,16.243
				c-1.355,3.117-4.294,6.71-6.585,9.221c-2.109,2.309-5.137,5.342-7.902,6.804c-1.568,0.83-3.942,1.359-5.707,1.536
				c-2.101,0.211-4.993,0.136-7.024-0.438c-2.297-0.652-5.065-2.374-7.026-3.733c-3.755-2.605-8.254-6.793-11.415-10.096
				c-3.04-3.182-6.496-7.956-9.219-11.416c-2.409-3.063-6.285-6.768-7.902-10.316c-1.642-3.609-2.449-8.991-2.634-12.951
				C308.174-562.195,308.587-565.489,309.167-567.87L309.167-567.87z"/>
		</g>
		<g>
			<path fill="#FCFFFF" d="M310.931-567.18c0.977-4.023,2.643-9.451,4.981-12.869c1.666-2.437,4.616-5.336,7.263-6.641
				c2.893-1.425,7.367-2.054,10.586-1.868c3.696,0.213,8.509,1.89,11.829,3.528c3.999,1.973,8.724,5.734,12.037,8.717
				c3.048,2.744,6.701,6.869,9.132,10.17c2.666,3.619,6.319,8.584,7.679,12.869c0.737,2.321,0.773,5.663,0.623,8.093
				c-0.29,4.693-1.238,11.047-3.113,15.359c-1.282,2.948-4.06,6.344-6.227,8.717c-1.996,2.185-4.856,5.051-7.47,6.435
				c-1.483,0.784-3.729,1.285-5.397,1.453c-1.986,0.199-4.72,0.128-6.642-0.415c-2.17-0.614-4.787-2.243-6.641-3.53
				c-3.552-2.463-7.806-6.422-10.792-9.547c-2.876-3.007-6.144-7.52-8.717-10.792c-2.28-2.897-5.945-6.4-7.472-9.756
				c-1.551-3.412-2.315-8.501-2.49-12.245C309.991-561.815,310.382-564.928,310.931-567.18L310.931-567.18z"/>
			<path fill="none" stroke="#000000" stroke-width="0.4872" stroke-dasharray="1.9487,0.4872" d="M310.931-567.18
				c0.977-4.023,2.643-9.451,4.981-12.869c1.666-2.437,4.616-5.336,7.263-6.641c2.893-1.425,7.367-2.054,10.586-1.868
				c3.696,0.213,8.509,1.89,11.829,3.528c3.999,1.973,8.724,5.734,12.037,8.717c3.048,2.744,6.701,6.869,9.132,10.17
				c2.666,3.619,6.319,8.584,7.679,12.869c0.737,2.321,0.773,5.663,0.623,8.093c-0.29,4.693-1.238,11.047-3.113,15.359
				c-1.282,2.948-4.06,6.344-6.227,8.717c-1.996,2.185-4.856,5.051-7.47,6.435c-1.483,0.784-3.729,1.285-5.397,1.453
				c-1.986,0.199-4.72,0.128-6.642-0.415c-2.17-0.614-4.787-2.243-6.641-3.53c-3.552-2.463-7.806-6.422-10.792-9.547
				c-2.876-3.007-6.144-7.52-8.717-10.792c-2.28-2.897-5.945-6.4-7.472-9.756c-1.551-3.412-2.315-8.501-2.49-12.245
				C309.991-561.815,310.382-564.928,310.931-567.18L310.931-567.18z"/>
		</g>
		<g>
			<path fill="none" stroke="#900000" stroke-width="1.2872" d="M318.81-577.157c0,0-1.483,1.487-1.853,2.289
				c-0.305,0.666-0.525,1.673-0.437,2.399c0.087,0.713,0.474,1.675,0.981,2.18c0.458,0.455,1.322,0.805,1.963,0.873
				c0.63,0.067,1.6-0.009,2.072-0.436c0.483-0.438,0.614-1.421,0.654-2.071c0.033-0.531-0.328-1.744-0.328-1.744"/>
		</g>
		<g>
			<path fill="none" stroke="#900000" stroke-width="1.2872" d="M321.755-581.846c-0.541,0.435-0.705,1.49-0.764,2.181
				c-0.051,0.594,0.11,1.407,0.327,1.963c0.24,0.618,0.656,1.475,1.199,1.853c0.495,0.345,1.361,0.482,1.962,0.438
				c0.456-0.034,1.122-0.198,1.418-0.546c0.519-0.61,0.597-1.816,0.544-2.616c-0.045-0.692-0.331-1.638-0.763-2.182
				c-0.458-0.574-1.354-1.145-2.072-1.307C323.061-582.187,322.192-582.196,321.755-581.846L321.755-581.846z"/>
		</g>
		<g>
			<polyline fill="none" stroke="#900000" stroke-width="1.2872" points="329.604,-577.812 326.879,-584.68 329.932,-582.064 
				332.875,-578.683 330.259,-586.316 			"/>
		</g>
		<g>
			<polyline fill="none" stroke="#900000" stroke-width="1.2872" points="334.401,-586.424 335.696,-583.372 337.282,-579.807 
				338.544,-585.879 			"/>
		</g>
		<g>
			<path fill="none" stroke="#900000" stroke-width="1.2872" d="M346.721-581.519l-0.806-0.494l-2.574-1.578l-1.743,5.67
				c0,0,1.604,1.214,2.397,1.527c0.495,0.195,1.745,0.327,1.745,0.327"/>
		</g>
		<g>
			<line fill="none" stroke="#900000" stroke-width="1.2872" x1="342.905" y1="-580.537" x2="344.977" y2="-579.447"/>
		</g>
		<g>
			<path fill="none" stroke="#900000" stroke-width="1.2872" d="M348.029-573.995l1.286-2.041c0.171-0.27,0.423-0.618,0.568-0.903
				c0.356-0.692,0.685-1.768,1.443-1.937c1.086-0.242,1.891,0.998,2.265,2.045c0.155,0.436,0.105,1.196-0.218,1.527
				c-0.278,0.284-0.921,0.306-1.309,0.217c-0.777-0.176-2.18-1.526-2.18-1.526"/>
		</g>
		<g>
			<line fill="none" stroke="#900000" stroke-width="1.2872" x1="351.737" y1="-574.867" x2="351.629" y2="-570.725"/>
		</g>
		<g>
			<path fill="none" stroke="#900000" stroke-width="1.2872" d="M360.46-568.979c0,0-1.351-3.177-2.616-3.598
				c-0.423-0.141-1.153,0.078-1.416,0.436c-0.294,0.395-0.139,1.164,0,1.635c0.102,0.342,0.454,0.698,0.648,0.999
				c0.23,0.354,0.649,0.776,0.769,1.181c0.157,0.532,0.384,1.451-0.001,1.853c-0.131,0.139-0.095,0.253-0.285,0.263
				c-0.464,0.023-1.46,0.014-1.894-0.154c-0.648-0.25-1.337-1.01-1.637-1.635c-0.269-0.564-0.217-2.071-0.217-2.071"/>
		</g>
		<path fill="none" stroke="#900000" stroke-width="1.2872" d="M363.622-565.49c-0.676-0.138-1.318,0.955-1.963,1.199
			c-1.056,0.399-3.708,0.654-3.708,0.654s1.58,3.245,2.509,4.471c0.195,0.257,0.762,0.762,0.762,0.762"/>
		<path fill="none" stroke="#00006B" stroke-width="0.7723" d="M317.502-551.863c0,0,0.406-1.537-0.001-1.962
			c-0.475-0.498-1.678-0.424-2.289-0.109c-0.484,0.248-0.772,1.023-0.981,1.526c-0.294,0.711-0.861,1.806-0.545,2.507
			c0.247,0.548,1.147,0.917,1.743,0.982c0.783,0.084,1.875-0.297,2.509-0.764c1.309-0.96,3.053-4.47,3.053-4.47"/>
		<path fill="none" stroke="#00006B" stroke-width="0.7723" d="M316.848-547.719l0.654-2.072l1.635,0.218l0.872,2.399"/>
		<path fill="none" stroke="#00006B" stroke-width="0.7723" d="M320.445-548.701c0,0-0.361,1.431,0,1.854
			c0.28,0.326,1.038,0.42,1.418,0.218c0.478-0.255,0.764-1.635,0.764-1.635"/>
		<path fill="none" stroke="#00006B" stroke-width="0.7723" d="M325.135-547.501c0,0-0.943-0.141-1.308,0
			c-0.411,0.158-0.93,0.571-1.09,0.982c-0.133,0.337-0.177,0.978,0.109,1.198c0.81,0.631,3.379-0.545,3.379-0.545"/>
		<path fill="none" stroke="#00006B" stroke-width="0.7723" d="M325.789-545.866c0,0,1.919-2.127,2.834-2.943
			c0.523-0.466,1.689-0.737,1.854-1.417c0.145-0.597-0.271-1.729-0.871-1.854c-0.682-0.143-1.365,0.943-1.745,1.526
			c-0.357,0.545-0.782,1.433-0.654,2.071c0.159,0.796,1.388,1.341,1.746,2.072c0.206,0.42,0.327,1.526,0.327,1.526"/>
		<path fill="none" stroke="#00006B" stroke-width="0.7723" d="M352.828-543.903l0-0.982l3.488,0l-1.198,2.398
			c0,0-0.985,2.533-1.963,2.944c-0.49,0.208-1.257-0.111-1.744-0.326c-0.3-0.132-0.753-0.35-0.872-0.654
			c-0.134-0.34,0.217-1.199,0.217-1.199"/>
		<path fill="none" stroke="#00006B" stroke-width="0.7723" d="M356.316-540.741c0,0-1.87,0.144-2.181,0.763
			c-0.291,0.583,0.052,1.823,0.654,2.072c0.783,0.323,2.19-0.523,2.508-1.309c0.155-0.384-0.435-1.308-0.435-1.308"/>
		<path fill="none" stroke="#00006B" stroke-width="1.2872" d="M356.862-538.561c0,0,0.718,1.161,1.199,1.09
			c0.754-0.111,0.574-2.384,1.308-2.181c0.631,0.175,0.193,1.556-0.001,2.18c-0.29,0.946-1.852,2.726-1.852,2.726"/>
		<path fill="none" stroke="#00006B" stroke-width="0.7723" d="M360.46-538.67l2.072,0l-0.11,1.527"/>
		<path fill="none" stroke="#00006B" stroke-width="0.7723" d="M363.294-538.888c0,0,1.996-0.687,2.617-1.309
			c0.414-0.412,0.99-1.172,0.873-1.744c-0.112-0.545-0.862-1.248-1.417-1.2c-0.765,0.068-1.429,1.226-1.636,1.963
			c-0.367,1.304,0.654,4.471,0.654,4.471"/>
		<path fill="none" stroke="#00006B" stroke-width="0.7723" d="M366.783-538.671c0,0-1.03-0.276-1.308,0.001
			c-0.416,0.417-0.417,1.547,0.002,1.962c0.392,0.394,1.458,0.394,1.852,0c0.393-0.394-0.329-1.405,0.001-1.853
			c0.324-0.441,1.301-0.87,1.744-0.545c0.686,0.504-0.85,2.779-0.001,2.835c0.758,0.05-0.101-1.882,0.328-2.508
			c0.23-0.337,1.199-0.654,1.199-0.654"/>
		<g>
			<path fill="none" stroke="#900000" stroke-width="1.2872" d="M319.355-539.651c0,0,3.621-1.135,5.016-0.545
				c0.344,0.146,0.759,0.609,0.764,0.981c0.014,1.263-2.507,3.38-2.507,3.38"/>
		</g>
		<g>
			<line fill="none" stroke="#900000" stroke-width="1.2872" x1="321.972" y1="-539.651" x2="323.826" y2="-537.47"/>
		</g>
		<g>
			<path fill="none" stroke="#900000" stroke-width="1.2872" d="M327.859-535.073c0,0-1.995,3.286-1.526,4.688
				c0.291,0.869,2.507,1.744,2.507,1.744"/>
		</g>
		<g>
			<path fill="none" stroke="#900000" stroke-width="1.2872" d="M332.003-530.492c0,0-0.938,4.184-0.108,5.669
				c0.406,0.73,2.398,1.418,2.398,1.418"/>
		</g>
		<g>
			<path fill="none" stroke="#900000" stroke-width="1.2872" d="M343.561-522.752c0,0-0.915-1.796-1.636-2.18
				c-0.548-0.293-1.609-0.526-2.071-0.11c-0.463,0.418-0.393,1.52-0.11,2.073c0.639,1.242,3.307,1.254,3.926,2.508
				c0.333,0.677,1.09,2.726-0.219,2.508c-1.308-0.218-2.155-0.297-2.835-0.872c-0.335-0.284-0.654-1.31-0.654-1.31"/>
		</g>
		<g>
			<line fill="none" stroke="#900000" stroke-width="1.2872" x1="349.12" y1="-516.865" x2="347.375" y2="-523.951"/>
		</g>
		<g>
			<line fill="none" stroke="#900000" stroke-width="1.2872" x1="345.523" y1="-524.06" x2="349.992" y2="-523.842"/>
		</g>
		<g>
			<path fill="none" stroke="#900000" stroke-width="1.2872" d="M354.104-518.636c-0.871-4.787-2.145-5.135-1.167-7.168
				c0.2-0.417,1.111-0.425,1.525-0.218c1.876,0.932,3.381,6.105,3.381,6.105"/>
		</g>
		<g>
			<line fill="none" stroke="#900000" stroke-width="1.2872" x1="353.808" y1="-521.444" x2="356.207" y2="-522.861"/>
		</g>
		<g>
			<path fill="none" stroke="#900000" stroke-width="1.2872" d="M361.66-522.97c0,0-4.353-3.15-4.798-5.234
				c-0.151-0.708,0.184-1.855,0.764-2.289c0.682-0.511,2.102-0.543,2.834-0.109c0.567,0.336,1.036,1.307,0.981,1.963
				c-0.051,0.606-0.763,1.21-1.199,1.635c-0.287,0.279-1.09,0.764-1.09,0.764"/>
		</g>
		<g>
			<line fill="none" stroke="#900000" stroke-width="1.2872" x1="361.113" y1="-527.985" x2="364.93" y2="-525.586"/>
		</g>
		<path fill="#FCFFFF" d="M281.55-687.823c0.816-0.874,2.627-1.136,3.823-1.124c2.689,0.027,6.103-0.042,8.757,0.39
			c3.863,0.631,14.482,2.979,18.395,3.058c5.737,0.117,3.107,0.07,8.839-0.179c4.275-0.186,15.386-1.539,19.626-2.098
			c4.873-0.643,9.538-1.576,14.371-2.468c4.074-0.751,10.902-2.114,14.958-2.959c2.021-0.421,5.089-1.076,7.143-1.28
			c1.343-0.132,4.276-0.113,4.276-0.113s-7.847,8.837-10.891,12.397c-2.96,3.46-6.955,8.043-9.673,11.697
			c-2.468,3.318-5.371,8.018-7.648,11.471c-1.019,1.547-2.846,3.398-3.374,5.173c-0.404,1.358,0.001,4.723,0.001,4.723
			s-8.527,0.202-12.148-0.224c-5.626-0.663-13.011-2.442-18.443-4.049c-6.082-1.798-14.06-4.711-19.794-7.423
			c-4.018-1.9-9.56-4.403-12.82-7.422c-1.924-1.78-3.973-4.767-4.948-7.199c-0.942-2.347-1.424-5.794-1.35-8.323
			C280.686-685.018,280.7-686.914,281.55-687.823z"/>
		<g>
			
				<radialGradient id="SVGID_1_" cx="27.1222" cy="-148.3357" r="35.7732" gradientTransform="matrix(0.2253 1.8253 -1.2425 0.4968 134.4872 -639.6796)" gradientUnits="userSpaceOnUse">
				<stop  offset="0" style="stop-color:#979797"/>
				<stop  offset="1" style="stop-color:#656565;stop-opacity:0"/>
			</radialGradient>
			<path fill="url(#SVGID_1_)" d="M336.537-649.341c-5.748-0.433-13.393-2.231-19.048-3.917c-5.672-1.693-13.201-4.432-18.607-7.323
				c-1.737-0.927-4.286-2.004-5.538-3.802c-1.272-1.834-3.67-7.708-3.025-9.885c1.053-3.556,5.464-3.373,8.38-4.415
				c4.638-1.658,12.617-0.874,17.512-0.784c5.88,0.108,16.271,1.893,22.153,2.047c3.795,0.1,19.393-3.098,23.172-2.37
				c2.671,0.512,2.042,1.86,3.133,5.01c1.159,3.353-5.82,9.168-7.093,12.285c-0.621,1.523-5.45,6.737-5.715,8.436
				C355.031-644.271,342.026-648.506,336.537-649.341z"/>
		</g>
		<g>
			<path fill="none" stroke="#FFFFFF" stroke-width="2.0075" d="M349.834-649.355c0,0-8.625,0.019-12.294-0.377
				c-4.773-0.517-11.053-1.927-15.675-3.227c-5.235-1.475-12.027-4.078-17.059-6.147c-3.947-1.625-9.349-3.635-12.908-5.994
				c-2.747-1.82-6.247-4.681-8.144-7.377c-1.321-1.876-2.414-4.832-2.92-7.069c-0.377-1.666-0.519-3.99-0.309-5.686
				c0.096-0.767,1.108-1.135,1.108-1.135"/>
		</g>
		<g>
			<path fill="none" stroke="#AEAEAE" stroke-width="0.4015" stroke-dasharray="1.606,1.606" d="M282.645-688.204
				c0,0,10.386,2.726,14.923,3.471c6.399,1.048,15.03,1.956,21.514,2.082c5.422,0.104,12.682-0.241,18.045-1.041
				c3.921-0.586,8.973-2.251,12.84-3.123c4.979-1.125,11.692-2.293,16.657-3.47c3.145-0.746,7.263-2.043,10.411-2.776
				c1.034-0.242,3.47-0.694,3.47-0.694s-5.254,6.587-8.329,8.328c-2.988,1.693-7.745,2.062-11.105,2.776
				c-3.516,0.749-8.259,1.458-11.798,2.082c-3.541,0.625-8.245,1.547-11.799,2.083c-2.491,0.375-5.812,1.01-8.329,1.042
				c-4.183,0.051-9.705-1.098-13.88-1.388c-5.301-0.368-12.419-0.087-17.698-0.694c-2.737-0.316-6.641-0.346-9.021-1.735
				C286.185-682.64,282.645-688.204,282.645-688.204L282.645-688.204z"/>
		</g>
		<g>
			<path fill="none" stroke="#FDFDFD" stroke-width="1.606" d="M350.665-688.686c0,0,7.288-1.685,10.198-2.228
				c2.969-0.553,8.499-2.077,11.472-2.602c1.862-0.328,2.372-0.441,4.217-0.857c1.421-0.322,5.154-0.763,5.23-0.304"/>
		</g>
		<g>
			<path fill="none" stroke="#FFFFFF" stroke-width="0.9368" d="M352.172-689.167c0,0-4.725,0.798-6.831,1.088
				c-1.224,0.168-4.09,0.427-4.09,0.427"/>
		</g>
		<g>
			<path fill="none" stroke="#FFFFFF" stroke-width="1.0707" stroke-dasharray="4.2828,2.1414" d="M281.29-669.339
				c0,0,5.876,4.886,8.974,6.941c4.797,3.181,11.795,6.458,17.081,8.732c5.659,2.429,13.408,5.251,19.359,6.832
				c3.691,0.98,8.729,1.865,12.525,2.277c3.058,0.333,7.174,0.497,10.248,0.379c4.009-0.154,9.311-0.976,13.285-1.518
				c7.198-0.982,16.779-2.432,23.914-3.796c6.648-1.272,15.438-3.34,22.016-4.934c2.631-0.638,6.031-2.069,8.73-2.278
				c2.282-0.179,5.535-0.245,7.591,0.758c3.114,1.52,5.958,5.533,7.971,8.352c6.039,8.455,10.957,21.629,15.944,30.745
				c3.72,6.804,8.395,16.087,12.905,22.395c5.635,7.877,14.466,17.391,21.256,24.293c5.598,5.69,13.387,13.004,19.738,17.84
				c4.724,3.598,11.521,7.725,16.702,10.629c10.395,5.827,24.788,12.624,35.68,17.461c10.648,4.727,25.156,10.318,36.061,14.424
				c13.109,4.936,31.079,10.214,44.029,15.56c9.321,3.851,21.608,9.422,30.366,14.425c4.059,2.318,9.207,5.869,12.905,8.728
				c3.001,2.32,7.005,5.488,9.491,8.354c2.585,2.98,5.453,7.472,7.21,11.006c1.509,3.034,2.651,7.443,3.796,10.631
				c1.475,4.102,4.759,14.19,4.759,14.19"/>
		</g>
		<g>
			<path fill="none" stroke="#FFFFFF" stroke-width="1.0712" stroke-dasharray="4.2848,2.1425" d="M281.762-663.98
				c0,0,5.8,4.824,8.859,6.852c4.733,3.139,11.639,6.374,16.858,8.617c5.585,2.4,13.232,5.183,19.107,6.743
				c3.644,0.968,8.616,1.84,12.364,2.249c3.019,0.329,7.081,0.49,10.115,0.375c3.957-0.151,9.189-0.964,13.113-1.499
				c7.103-0.969,16.56-2.4,23.604-3.746c6.561-1.256,15.237-3.297,21.73-4.871c2.595-0.629,5.953-2.039,8.617-2.247
				c2.252-0.176,5.463-0.242,7.492,0.749c3.073,1.5,5.881,5.461,7.868,8.243c5.961,8.345,10.814,21.349,15.736,30.345
				c3.673,6.715,8.284,15.88,12.739,22.105c5.559,7.775,14.276,17.165,20.98,23.977c5.526,5.616,13.214,12.835,19.481,17.608
				c4.665,3.551,11.372,7.624,16.485,10.49c10.259,5.751,24.467,12.462,35.216,17.236c10.512,4.665,24.83,10.183,35.592,14.235
				c12.942,4.872,30.677,10.083,43.459,15.36c9.202,3.799,21.329,9.296,29.971,14.237c4.005,2.289,9.088,5.795,12.738,8.618
				c2.963,2.289,6.914,5.415,9.368,8.242c2.552,2.942,5.383,7.376,7.118,10.865c1.487,2.994,2.617,7.347,3.745,10.491
				c1.453,4.048,4.698,14.006,4.698,14.006"/>
		</g>
		<g>
			<path fill="none" stroke="#FFFFFF" stroke-width="1.0707" stroke-dasharray="4.2828,2.1414" d="M368.83-651.068
				c0,0,5.936,12.308,8.433,17.603c4.347,9.215,9.586,21.774,14.304,30.806c2.829,5.418,6.907,12.497,10.267,17.602
				c5.192,7.885,12.999,17.782,18.703,25.305c6.065,7.996,13.535,19.215,20.538,26.404c5.562,5.713,14.131,12.122,20.537,16.872
				c7.329,5.433,17.697,11.833,25.303,16.868c4.173,2.763,9.6,6.669,13.936,9.167c8.1,4.67,19.334,10.13,27.872,13.938
				c11.232,5.012,26.587,10.816,38.14,15.035c11.341,4.141,26.601,9.284,38.138,12.835c10.155,3.124,23.765,7.107,34.107,9.535
				c4.58,1.074,10.72,2.494,15.403,2.933c2.409,0.229,5.672-0.346,8.067,0c6.134,0.892,13.851,4.145,19.804,5.868
				c5.052,1.461,16.87,4.767,16.87,4.767"/>
		</g>
		<g>
			<path fill="none" stroke="#FFFFFF" stroke-width="1.0707" stroke-dasharray="4.2828,2.1414" d="M373.103-652.725
				c0,0,5.936,12.306,8.434,17.603c4.347,9.215,8.52,19.291,13.239,28.322c2.83,5.42,6.905,12.496,10.267,17.603
				c5.192,7.885,13,17.783,18.704,25.304c6.064,7.997,13.535,19.214,20.537,26.405c5.562,5.712,14.132,12.121,20.537,16.869
				c7.329,5.433,17.698,11.832,25.304,16.869c4.173,2.764,9.601,6.668,13.937,9.167c8.1,4.669,19.334,10.128,27.872,13.936
				c11.232,5.012,26.586,10.82,38.139,15.039c11.339,4.139,26.603,9.283,38.14,12.835c10.154,3.124,23.762,7.108,34.105,9.533
				c4.58,1.075,10.721,2.493,15.404,2.933c2.409,0.229,5.671-0.347,8.067,0.003c6.132,0.889,13.852,4.143,19.804,5.868
				c5.05,1.461,16.868,4.766,16.868,4.766l3.687,1.107"/>
		</g>
		<g>
			<path opacity="0.765" fill="none" stroke="#2C362B" stroke-width="1.8122" enable-background="new    " d="M348.266-649.347
				c0,0,8.925-0.148,12.741-0.474c5.324-0.454,14.848-1.732,20.104-2.971c6.366-1.501,16.172-2.85,22.486-4.702
				c4.007-1.174,10.354-3.493,14.453-3.718c2.131-0.118,6.441-0.491,8.482,0.346c2.997,1.228,7.797,6.033,7.797,6.033"/>
		</g>
		<path fill="#FBFFFE" d="M711.042-427.973c0,0-4.092-13.388-4.753-19.319c-0.534-4.815-0.458-11.368,0.317-16.15
			c0.973-5.992,3.595-13.754,6.017-19.319c0.8-1.836,2.321-4.057,3.313-5.796c1.288-2.25,2.775-5.398,4.288-7.504
			c1.336-1.857,3.479-5.541,3.479-5.541s18.043,2.863,26.28,4.434c6.387,1.215,17.846,2.736,24.079,4.591
			c4.008,1.194,9.998,3.295,13.621,5.386c3.162,1.824,6.165,4.332,7.91,7.54c1.366,2.516,0.92,6.602,0.316,9.403
			c-0.88,4.078-2.698,6.912-5.537,9.968c-3.677,3.957-9.966,7.578-14.725,10.133c-6.42,3.448-13.494,6.916-20.421,9.184
			c-7.071,2.317-18.779,6.016-25.973,7.926C723.816-431.597,711.042-427.973,711.042-427.973L711.042-427.973z"/>
		<g>
			<path fill="#F3F3F5" d="M502.779-529.349c-0.729,6.148-6.524,10.566-12.945,9.868c-6.418-0.7-11.031-6.25-10.302-12.399
				c0.73-6.149,6.525-10.567,12.945-9.868c6.404,0.697,11.011,6.223,10.307,12.358"/>
		</g>
		<g>
			<path fill="#808C8C" d="M500.761-529.656c-0.602,5.081-5.392,8.73-10.697,8.154c-5.304-0.577-9.115-5.163-8.512-10.245
				c0.602-5.081,5.392-8.731,10.697-8.154c5.292,0.576,9.099,5.143,8.517,10.212"/>
		</g>
		<g>
			<path fill="#F3F3F5" d="M499.749-529.809c-0.54,4.547-4.825,7.814-9.572,7.297c-4.748-0.517-8.16-4.622-7.62-9.169
				c0.54-4.546,4.825-7.814,9.572-7.298c4.736,0.517,8.143,4.604,7.624,9.14"/>
		</g>
		<g>
			<path fill="#151E1F" d="M496.219-529.979c-0.315,2.663-2.824,4.577-5.605,4.273c-2.781-0.302-4.778-2.706-4.46-5.369
				c0.315-2.662,2.825-4.575,5.605-4.274c2.773,0.303,4.769,2.696,4.462,5.353"/>
		</g>
		<g>
			<path fill="#F3F3F5" d="M423.539-627.843c-0.731,6.15-6.526,10.567-12.946,9.868c-6.419-0.698-11.032-6.249-10.302-12.397
				c0.729-6.15,6.525-10.568,12.945-9.869c6.404,0.697,11.012,6.223,10.306,12.358"/>
		</g>
		<g>
			<path fill="#808C8C" d="M421.518-628.149c-0.603,5.08-5.391,8.732-10.696,8.155c-5.306-0.578-9.117-5.165-8.515-10.246
				c0.604-5.082,5.392-8.732,10.697-8.154c5.293,0.576,9.101,5.142,8.518,10.213"/>
		</g>
		<g>
			<path fill="#F3F3F5" d="M420.506-628.302c-0.539,4.548-4.825,7.813-9.572,7.297c-4.747-0.517-8.158-4.622-7.619-9.169
				c0.539-4.547,4.826-7.815,9.573-7.297c4.735,0.516,8.143,4.602,7.622,9.14"/>
		</g>
		<g>
			<path fill="#151E1F" d="M416.978-628.471c-0.316,2.663-2.826,4.575-5.605,4.273c-2.78-0.304-4.778-2.707-4.461-5.369
				c0.316-2.663,2.826-4.576,5.607-4.274c2.772,0.303,4.768,2.696,4.462,5.352"/>
		</g>
		<g>
			<path fill="#F3F3F5" d="M617.592-476.102c-0.731,6.15-6.526,10.568-12.945,9.869c-6.418-0.7-11.033-6.251-10.302-12.398
				c0.73-6.15,6.524-10.567,12.945-9.87c6.403,0.701,11.011,6.225,10.306,12.361"/>
		</g>
		<g>
			<path fill="#808C8C" d="M615.572-476.406c-0.603,5.078-5.393,8.73-10.697,8.153c-5.304-0.578-9.117-5.166-8.513-10.246
				c0.602-5.081,5.391-8.732,10.698-8.155c5.291,0.577,9.098,5.142,8.517,10.213"/>
		</g>
		<g>
			<path fill="#F3F3F5" d="M614.561-476.558c-0.541,4.545-4.826,7.811-9.575,7.295c-4.746-0.517-8.157-4.622-7.618-9.169
				c0.54-4.546,4.826-7.813,9.572-7.294c4.736,0.514,8.144,4.601,7.622,9.136"/>
		</g>
		<g>
			<path fill="#F3F3F5" d="M445.098-589.583c-0.729,6.149-6.526,10.567-12.944,9.868c-6.42-0.699-11.033-6.25-10.304-12.399
				c0.731-6.148,6.525-10.566,12.944-9.868c6.404,0.697,11.013,6.224,10.308,12.359"/>
		</g>
		<g>
			<path fill="#808C8C" d="M443.078-589.89c-0.602,5.081-5.391,8.732-10.696,8.154c-5.306-0.577-9.117-5.164-8.514-10.245
				c0.604-5.081,5.392-8.732,10.698-8.154c5.291,0.577,9.1,5.143,8.517,10.214"/>
		</g>
		<g>
			<path fill="#F3F3F5" d="M442.067-590.044c-0.538,4.549-4.825,7.814-9.572,7.299c-4.747-0.517-8.158-4.623-7.619-9.169
				c0.54-4.547,4.826-7.814,9.573-7.297c4.735,0.516,8.143,4.602,7.621,9.14"/>
		</g>
		<g>
			<path fill="#151E1F" d="M438.539-590.212c-0.317,2.662-2.827,4.576-5.606,4.273c-2.779-0.303-4.777-2.706-4.46-5.368
				c0.316-2.663,2.825-4.575,5.605-4.272c2.773,0.301,4.769,2.693,4.464,5.351"/>
		</g>
		<g>
			<path fill="#F3F3F5" d="M472.472-558.604c-0.729,6.149-6.525,10.567-12.943,9.868c-6.42-0.699-11.033-6.25-10.304-12.398
				c0.73-6.149,6.525-10.568,12.944-9.868c6.403,0.696,11.013,6.224,10.308,12.359"/>
		</g>
		<g>
			<path fill="#808C8C" d="M470.452-558.911c-0.602,5.082-5.39,8.732-10.695,8.156c-5.305-0.579-9.116-5.165-8.514-10.245
				c0.604-5.081,5.392-8.732,10.696-8.154c5.293,0.576,9.1,5.142,8.518,10.213"/>
		</g>
		<g>
			<path fill="#F3F3F5" d="M469.442-559.063c-0.539,4.546-4.826,7.813-9.572,7.297c-4.747-0.518-8.158-4.622-7.619-9.169
				c0.539-4.548,4.826-7.815,9.573-7.297c4.735,0.515,8.143,4.603,7.622,9.14"/>
		</g>
		<g>
			<path fill="#151E1F" d="M465.912-559.232c-0.316,2.662-2.825,4.575-5.606,4.273c-2.778-0.304-4.776-2.707-4.461-5.369
				c0.317-2.662,2.826-4.575,5.605-4.273c2.774,0.303,4.769,2.696,4.464,5.352"/>
		</g>
		<g>
			<path fill="#F3F3F5" d="M539.35-508.358c-0.731,6.15-6.527,10.567-12.945,9.87c-6.421-0.701-11.032-6.251-10.302-12.4
				c0.729-6.15,6.526-10.567,12.943-9.867c6.403,0.694,11.013,6.221,10.307,12.357"/>
		</g>
		<g>
			<path fill="#808C8C" d="M537.329-508.662c-0.604,5.081-5.392,8.73-10.696,8.154c-5.306-0.58-9.117-5.165-8.514-10.244
				c0.604-5.083,5.393-8.734,10.696-8.157c5.291,0.579,9.1,5.144,8.517,10.215"/>
		</g>
		<g>
			<path fill="#F3F3F5" d="M536.318-508.816c-0.539,4.548-4.825,7.812-9.573,7.297c-4.747-0.516-8.157-4.622-7.619-9.169
				c0.539-4.548,4.826-7.815,9.573-7.299c4.735,0.518,8.143,4.605,7.622,9.142"/>
		</g>
		<g>
			<path fill="#151E1F" d="M532.79-508.986c-0.318,2.664-2.827,4.576-5.607,4.273c-2.778-0.303-4.777-2.707-4.46-5.368
				c0.316-2.662,2.825-4.576,5.606-4.274c2.772,0.302,4.768,2.697,4.462,5.352"/>
		</g>
		<g>
			<path fill="#F3F3F5" d="M577.469-491.866c-0.73,6.148-6.526,10.565-12.945,9.866c-6.419-0.699-11.034-6.248-10.304-12.399
				c0.73-6.15,6.526-10.566,12.945-9.867c6.403,0.699,11.012,6.225,10.306,12.361"/>
		</g>
		<g>
			<path fill="#808C8C" d="M575.448-492.172c-0.601,5.081-5.389,8.731-10.694,8.152c-5.306-0.576-9.117-5.164-8.515-10.245
				c0.603-5.081,5.393-8.734,10.698-8.153c5.294,0.576,9.099,5.142,8.517,10.211"/>
		</g>
		<g>
			<path fill="#F3F3F5" d="M574.439-492.327c-0.54,4.547-4.826,7.815-9.572,7.3c-4.748-0.519-8.158-4.621-7.62-9.172
				c0.539-4.547,4.824-7.813,9.571-7.295c4.737,0.514,8.143,4.601,7.624,9.14"/>
		</g>
		<g>
			<path fill="#151E1F" d="M570.91-492.495c-0.316,2.665-2.826,4.575-5.607,4.274c-2.779-0.305-4.778-2.708-4.461-5.371
				c0.316-2.663,2.827-4.575,5.606-4.272c2.773,0.3,4.768,2.693,4.462,5.353"/>
		</g>
		<g>
			<path fill="#F3F3F5" d="M477.291-456.469c-1.103,2.474-5.936,3.403-10.793,2.072c-4.856-1.328-7.9-4.414-6.794-6.887
				c1.103-2.473,5.935-3.402,10.792-2.072c4.846,1.325,7.887,4.397,6.802,6.868"/>
		</g>
		<g>
			<path fill="#808C8C" d="M475.774-456.926c-0.911,2.042-4.905,2.809-8.918,1.711c-4.013-1.098-6.528-3.644-5.615-5.69
				c0.912-2.042,4.906-2.809,8.918-1.711c4.004,1.096,6.518,3.632,5.621,5.675"/>
		</g>
		<g>
			<path fill="#F3F3F5" d="M475.009-457.152c-0.817,1.828-4.39,2.515-7.981,1.534c-3.592-0.982-5.842-3.265-5.026-5.091
				c0.816-1.832,4.389-2.519,7.981-1.533c3.583,0.98,5.832,3.25,5.03,5.079"/>
		</g>
		<g>
			<path fill="#151E1F" d="M472.322-457.793c-0.477,1.07-2.569,1.47-4.674,0.896c-2.104-0.575-3.42-1.911-2.942-2.983
				c0.479-1.071,2.571-1.472,4.675-0.897c2.096,0.575,3.413,1.903,2.945,2.973"/>
		</g>
		<g>
			
				<radialGradient id="SVGID_2_" cx="711.7806" cy="-1053.2428" r="23.7439" gradientTransform="matrix(0.8993 0.3611 -0.3002 0.7474 -529.2271 -147.4271)" gradientUnits="userSpaceOnUse">
				<stop  offset="0" style="stop-color:#93A0A6;stop-opacity:0.9961"/>
				<stop  offset="1" style="stop-color:#E9EDF6;stop-opacity:0"/>
			</radialGradient>
			<path fill="url(#SVGID_2_)" d="M403.944-697.087c0,0,8.781,1.184,12.487,1.991c3.964,0.864,9.213,2.245,13.031,3.619
				c2.629,0.946,6.204,2.216,8.505,3.801c2.656,1.828,5.447,5.202,7.601,7.6c1.446,1.607,4.524,5.609,4.524,5.609
				s-1.757,5.777-2.171,8.324c-0.392,2.417-0.543,8.144-0.543,8.144s-3.156-4.462-6.409-8.771c-1.809-2.395-3.647-4.742-4.993-6.249
				c-1.151-1.29-2.739-3.002-4.164-3.981c-1.98-1.365-5-2.557-7.238-3.439c-2.173-0.857-5.433-1.126-7.419-2.352
				c-2.516-1.552-4.872-4.886-6.877-7.058C408.321-691.968,403.944-697.087,403.944-697.087L403.944-697.087z"/>
			<path fill="none" stroke="#E3E3E3" stroke-width="0.1338" d="M403.944-697.087c0,0,8.781,1.184,12.487,1.991
				c3.964,0.864,9.213,2.245,13.031,3.619c2.629,0.946,6.204,2.216,8.505,3.801c2.656,1.828,5.447,5.202,7.601,7.6
				c1.446,1.607,4.524,5.609,4.524,5.609s-1.757,5.777-2.171,8.324c-0.392,2.417-0.543,8.144-0.543,8.144s-3.156-4.462-6.409-8.771
				c-1.809-2.395-3.647-4.742-4.993-6.249c-1.151-1.29-2.739-3.002-4.164-3.981c-1.98-1.365-5-2.557-7.238-3.439
				c-2.173-0.857-5.433-1.126-7.419-2.352c-2.516-1.552-4.872-4.886-6.877-7.058C408.321-691.968,403.944-697.087,403.944-697.087
				L403.944-697.087z"/>
		</g>
		<g>
			<path fill="none" stroke="#DBDBDB" stroke-width="1.3384" d="M403.681-696.003c0,0,4.515,1.382,6.516,1.628
				c1.213,0.149,4.337,0.306,5.551,0.455c1.148,0.142,2.659,0.476,4.142,0.839c1.314,0.323,2.604,0.668,3.597,0.924
				c2.898,0.751,5.139,1.391,7.932,2.466c1.751,0.672,4.028,1.774,5.567,2.849c1.865,1.306,4.159,4.053,5.741,5.69
				c2.55,2.633,7.554,9.229,7.554,9.229l12.471,17.238l13.269,18.712l28.049,30.616l16.811,16.471
				c9.214,7.106,16.589,15.889,25.086,22.994l11.158,8.522l12.378,6.138c11.599,5.302,20.071,8.646,30.934,13.948l46.01,16.899
				l39.055,12.61l35.842,8.499"/>
		</g>
		
			<radialGradient id="SVGID_3_" cx="583.0094" cy="-998.256" r="43.0369" gradientTransform="matrix(1.3543 0.322 -0.1837 0.7731 -579.7197 -95.1816)" gradientUnits="userSpaceOnUse">
			<stop  offset="0" style="stop-color:#475B5B"/>
			<stop  offset="0.5" style="stop-color:#316356;stop-opacity:0.2987"/>
			<stop  offset="1" style="stop-color:#1F3E39;stop-opacity:0"/>
		</radialGradient>
		<path fill="url(#SVGID_3_)" d="M350.288-649.534c0,0-0.191-4.9,0.501-6.837c0.964-2.706,3.802-5.521,5.502-7.837
			c2.237-3.049,5.317-7.045,7.67-10.006c2.987-3.755,7.006-8.734,10.172-12.339c2.754-3.139,7.201-7.156,10.023-10.236
			c0.863-0.942,1.996-1.462,3.24-2.847c3.211-3.574,4.473-9.283,7.862-9.143c1.305,0.054,2.668,2.599,3.379,3.533
			c2.657,3.487,3.229,8.803,6.013,12.192c2.648,3.225,6.835,6.941,9.671,10.004c3.177,3.434,7.268,8.143,10.337,11.673
			c3.539,4.069,11.674,13.672,11.674,13.672s0.168,3.63-1.001,4.169c-3.107,1.435-5.65-4.981-8.775-6.379
			c-1.764-0.788-4.269-1.841-6.19-2.055c-3.016-0.336-10.38,2.431-11.213,2.431c-0.834,0-10.649,2.24-15.45,3.241
			c-4.553,0.95-10.202,1.653-14.801,2.331c-3.427,0.506-8.998,1.517-12.437,1.932C361.589-651.449,350.288-649.534,350.288-649.534
			L350.288-649.534z"/>
		<g>
			
				<radialGradient id="SVGID_4_" cx="619.2246" cy="-709.9032" r="136.8772" gradientTransform="matrix(1.3338 -0.8907 1.0064 1.507 473.5938 1037.9561)" gradientUnits="userSpaceOnUse">
				<stop  offset="0" style="stop-color:#93A0A6;stop-opacity:0.9961"/>
				<stop  offset="1" style="stop-color:#E9EDF6;stop-opacity:0"/>
			</radialGradient>
			<path fill="url(#SVGID_4_)" d="M444.803-677.001c0,0,18.5,24.783,24.816,33.035c4.378,5.721,10.215,13.367,15.001,18.75
				c7.064,7.946,17.264,17.818,24.887,25.228c4.411,4.287,10.537,9.745,15,13.977c5.879,5.574,13.265,13.498,19.433,18.75
				c4.282,3.647,10.175,8.358,15,11.251c5.808,3.483,14.253,6.824,20.455,9.546c10.836,4.753,25.41,10.818,36.479,15.002
				c8.501,3.212,20.047,6.917,28.635,9.885c10.944,3.78,25.459,9.056,36.479,12.614c2.287,0.736,4.866,1.552,7.521,2.373
				c4.424,1.362,9.064,2.731,12.934,3.765c6.09,1.62,20.453,4.772,20.453,4.772c-1.704,2.727,0.101-0.889-1.604,1.836
				c0,0-17.31-2.763-23.866-4.472c-9.754-2.55-16.582-3.345-29.743-8.177c-10.163-3.733-23.379-6.716-33.169-10.332
				c-6.727-2.489-19.098-6.053-25.055-8.393c-17.351-6.811-23.632-7.507-39.791-16.799c-4.505-2.591-21.663-10.097-25.621-13.463
				c-6.667-5.668-18.401-16.943-24.677-23.043c-7.729-7.512-18.342-17.212-25.91-24.887c-5.893-5.978-13.594-14.111-19.09-20.455
				c-7.911-9.123-31.05-40.056-31.05-40.056L444.803-677.001L444.803-677.001z"/>
		</g>
		<path fill="#FAFDFD" d="M413.527-623.973c0,0,0.777-1.065,0.426-2.667c-0.293-1.334-1.394-2.88-2.18-3.998
			c-0.756-1.074-2.599-2.652-2.599-2.652s9.285-5.604,13.502-7.524c4.938-2.251,11.573-5.181,16.719-6.906
			c4.913-1.647,11.576-3.701,16.717-4.362c3.461-0.444,11.63,0,11.63,0l6.18,8.723l-10.176,2.544l-21.808,6.177l-9.183,3.876
			l-11.046,5.644L413.527-623.973z"/>
		<g>
			<polygon fill="#FAFDFD" points="412.8,-633.838 428.544,-641.844 441.887,-646.646 454.963,-650.115 466.972,-650.649 
				470.709,-644.511 452.561,-639.442 439.219,-635.172 427.745,-629.835 421.073,-626.9 416.002,-625.832 415.203,-630.102 			"/>
		</g>
		<path fill="#F9FDFD" d="M430.088-671.717c0,0,2.738,5.293,4.209,7.062c1.608,1.932,3.802,4.269,5.021,6.466
			c1.533,2.767,2.502,6.66,2.37,9.82c-0.128,3.108-2.68,6.801-3.159,9.876c-0.476,3.043-0.329,7.207-0.001,10.27
			c0.478,4.46,2.838,10.142,3.161,14.615c0.745,10.307-1.346,24.083-2.371,34.365c-0.273,2.735-0.795,6.365-1.185,9.086
			c-1.09,7.598-3.974,17.603-3.951,25.28c0.016,5.163,0.904,12.171,2.765,16.986c1.02,2.636,2.724,6.424,5.135,7.9
			c3.861,2.366,10.646,2.784,15.01,1.581c2.856-0.789,6.154-3.531,7.902-5.926c1.921-2.634,3.326-7.017,3.554-10.27
			c0.348-4.938-2.169-11.345-3.16-16.194c-1.479-7.242-3.311-16.935-5.134-24.096c-1.129-4.432-3.905-10.064-4.345-14.615
			c-0.597-6.161,1.305-14.387,1.974-20.542c0.426-3.916,1.227-9.111,1.58-13.034c0.181-2.011,0.037-4.73,0.395-6.716
			c0.574-3.173,2.825-7.064,3.161-10.27c0.408-3.906-1.008-9.114-1.185-13.035c-0.124-2.724-0.208-8.045-0.208-8.045l-12.973-16.531
			c0,0-2.512,6.341-3.015,8.38c-0.723,2.932,0.903,8.953-1.974,9.876c-2.476,0.793-4.284-4.31-6.32-5.925
			C435-667.213,430.088-671.717,430.088-671.717L430.088-671.717z"/>
		<g>
			<path fill="#263C3A" d="M450.236-565.98c0,0-0.771,6.092-1.185,8.69c-0.417,2.618-1.343,6.051-1.58,8.691
				c-0.202,2.243-0.126,5.257,0,7.505c0.118,2.144-0.066,5.142,0.789,7.11c0.436,1.002,2.372,2.764,2.372,2.764
				s2.188-2.91,2.763-4.344c0.676-1.682,1.13-4.113,1.185-5.924c0.105-3.468-1.161-8.012-1.579-11.456
				c-0.274-2.247-0.288-5.298-0.791-7.506C451.82-562.167,450.236-565.98,450.236-565.98L450.236-565.98z"/>
		</g>
		<g>
			
				<linearGradient id="SVGID_5_" gradientUnits="userSpaceOnUse" x1="909.7408" y1="-682.8635" x2="922.0734" y2="-682.8635" gradientTransform="matrix(0.5309 -4.095584e-05 -2.245605e-05 0.904 -45.8555 40.7435)">
				<stop  offset="0" style="stop-color:#9C9C9C"/>
				<stop  offset="1" style="stop-color:#C5C5C5"/>
			</linearGradient>
			<polygon fill="url(#SVGID_5_)" points="440.435,-523.856 438.022,-531.563 435.599,-543.787 438.927,-563.935 441.04,-586.032 
				441.945,-605.045 441.039,-620.975 441.04,-630.739 444.36,-626.628 444.359,-609.669 444.359,-589.114 442.549,-565.478 
				440.739,-546.465 439.834,-531.049 440.435,-523.855 			"/>
		</g>
		<path fill="#FCFFFF" d="M464.848-595.13c-0.864,0-9.728-13.188-9.728-13.188l14.7-6.485c4.279-1.883,10.135-4.083,14.268-6.268
			c1.623-0.858,3.6-3.704,5.422-3.476c1.385,0.055,8.838,10.286,9.493,10.395c0,0-5.242,4.006-7.566,5.62
			c-3.428,2.38-9.129,5.895-12.843,7.8C474.317-598.538,464.848-595.13,464.848-595.13L464.848-595.13z"/>
		<path fill="#FCFFFF" d="M489.454-567.608c-0.857,0.124-11.328-11.284-11.328-11.284s10.096-6.344,14.184-8.897
			c3.966-2.477,9.446-5.492,13.223-8.247c1.483-1.081,5.989-4.367,7.825-4.403c1.378-0.142,10.803,10.477,11.468,10.49
			c-7.481,3.657-14.215,8.156-21.226,12.651C499.682-574.513,489.454-567.608,489.454-567.608L489.454-567.608z"/>
		<path fill="#FCFFFF" d="M520.085-544.338c0,0-5.501-3.179-8.184-4.979c-1.492-1.001-5.897-4.016-5.897-4.016
			s10.214-6.928,14.668-9.779c3.304-2.115,7.545-5.285,11.147-6.845c2.456-1.062,10.711-2.648,10.711-2.648l11.344,9.008
			c0,0-7.385,2.52-10.125,3.81c-2.425,1.14-5.547,2.889-7.822,4.302c-4.01,2.491-9.069,6.251-12.908,8.996
			C522.13-545.854,520.085-544.338,520.085-544.338L520.085-544.338z"/>
		<path fill="#FCFFFF" d="M557.084-526.541c0,0-5.84-2.506-8.717-3.976c-1.598-0.817-6.331-3.082-6.331-3.082
			s6.249-7.649,10.334-11.007c3.033-2.492,3.543-3.235,6.936-5.209c2.313-1.347,8.617-5.374,8.617-5.374l16.259,7.309
			c0,0-2.865,1.591-5.432,3.197c-2.271,1.419-5.003,1.423-7.097,3.097c-3.684,2.947-6.322,4.532-9.81,7.712
			C561.036-533.139,557.084-526.541,557.084-526.541L557.084-526.541z"/>
		<path fill="#FCFFFF" d="M580.341-516.753c0,0,4.122-1.02,6.087-1.891c3.213-1.428,7.601-3.256,10.403-5.371
			c1.821-1.372,3.772-3.763,5.202-5.537c1.116-1.379,2.647-3.241,3.357-4.864c0.371-0.853,1.294-4.06,1.294-4.06l13.974,5.36
			c0,0-3.241,3.778-4.699,5.243c-1.754,1.768-4.22,4-6.04,5.704c-1.402,1.314-3.141,3.233-4.697,4.363
			c-2.516,1.825-6.181,3.858-9.06,5.033c-1.403,0.573-3.83,0.719-3.83,0.719L580.341-516.753L580.341-516.753z"/>
		<path fill="#FCFFFF" d="M615.406-526.169c0,0,0.31,2.157-0.36,3.534c-0.532,1.095-1.809,2.482-1.677,3.692
			c0.134,1.249,1.563,2.533,2.518,3.355c2.079,1.795,5.517,3.3,8.052,4.365c1.749,0.728,4.214,1.335,6.04,1.843
			c1.4,0.388,5.37-0.334,4.698,1.177c-0.67,1.508-4.395,0.881-6.208,1.51c-1.724,0.594-4.009,1.52-5.536,2.516
			c-1.077,0.701-2.443,1.61-2.443,1.61l7.708,2.77l7.312,3.194l2.691-1.534l0.121,2.312l7.087,3.164c0,0,2.771-3.87,3.698-6.479
			c0.483-1.36,1.354-3.302,1.006-4.699c-0.397-1.597-2.226-3.188-3.524-4.196c-1.102-0.856-2.865-1.589-4.194-2.013
			c-1.412-0.451-3.43-0.477-4.866-0.841c-1.698-0.426-3.884-1.261-5.537-1.844c-1.369-0.479-3.359-0.822-4.53-1.677
			c-0.725-0.527-1.352-1.601-1.843-2.348c-0.349-0.527-0.909-1.221-1.008-1.848c-0.09-0.555,0.947-2.658,0.586-3.089
			C623.802-523.349,615.154-525.416,615.406-526.169L615.406-526.169z"/>
		<path fill="#FCFFFF" d="M641.449-467.505c0,0-0.367-4.554,0-6.457c0.756-3.896,3.333-8.643,4.951-12.267
			c1.554-3.479,3.917-7.982,5.594-11.404c1.549-3.165,3.41-7.494,5.165-10.545c1.16-2.021,2.916-4.589,4.306-6.456
			c1.449-1.951,3.347-3.217,3.347-3.217l13.143,4.395c0,0-2.956,4.118-4.009,7.216c-1.4,4.107-3.896,9.348-5.595,13.343
			c-1.402,3.299-3.057,7.805-4.736,10.974c-1.575,2.976-3.994,6.781-6.025,9.469c-0.937,1.242-2.285,2.836-3.443,3.87
			c-1.001,0.898-3.658,2.584-3.658,2.584s-2.977-1.064-4.305-1.291C644.784-467.525,641.449-467.505,641.449-467.505
			L641.449-467.505z"/>
		<path fill="#FCFFFF" d="M438.233-591.106l-8.882-2.588c0,0,1.855-4.162,2.541-5.988c1.228-3.273,1.945-8.009,3.63-11.07
			c0.576-1.051,0.452-2.345,0.857-3.473c0.367-1.026,0.998-3.357,0.998-3.357l2.601-3.447c0,0,0.905,2.55,1.089,3.83
			c0.262,1.835,0.549,3.749,0.639,5.599c0.088,1.787,0.127,4.172-0.029,6.483c-0.133,1.989,0.147,3.931-0.354,5.388
			c-0.535,1.556-0.21,4.17-1.37,5.337C438.599-593.032,438.233-591.106,438.233-591.106L438.233-591.106z"/>
		<path fill="#FCFFFF" d="M458.066-562.109c0,0,2.467-11.203,4.715-16.158c1.481-3.263,3.31-7.687,4.436-11.088
			c1.05-3.174,2.056-7.525,2.851-10.771c0.926-3.786,2.475-8.795,2.851-12.672c0.33-3.407,0.097-8.009-0.317-11.406
			c-0.269-2.22-0.298-5.455-1.583-7.286c-1.741-2.484-8.554-5.386-8.554-5.386l0.634-0.95c0,0,9.614,3.659,13.306,6.019
			c2.327,1.488,5.585,3.628,6.969,6.02c1.504,2.596,1.657,6.83,1.901,9.821c0.261,3.223-0.18,7.541-0.318,10.771
			c-0.145,3.425-0.046,8.029-0.633,11.406c-0.629,3.614-2.302,8.249-3.485,11.722c-1.28,3.759-3.058,8.764-4.752,12.355
			c-1.071,2.271-2.627,5.267-4.118,7.287c-1.479,2-6.877,6.019-6.877,6.019L458.066-562.109L458.066-562.109z"/>
		<path fill="#FCFFFF" d="M486.885-532.342c0,0-0.079-7.297,0.242-10.042c0.372-3.172,1.334-7.343,2.181-10.422
			c0.653-2.372,2.048-5.374,2.666-7.756c0.726-2.787,1.333-6.594,1.697-9.452c0.487-3.833,0.72-8.99,0.97-12.845
			c0.262-4.069,0.825-9.496,0.726-13.574c-0.085-3.579-1.71-13.373-1.71-13.373s4.94,2.819,6.557,3.922
			c1.403,0.955,2.866,2.758,3.878,4.12c1.302,1.753,3.071,4.194,3.636,6.301c1.073,4.003,0.045,9.671,0,13.816
			c-0.034,3.198-0.03,7.47-0.242,10.663c-0.35,5.257-1.182,12.239-1.938,17.451c-0.415,2.851-0.943,6.672-1.698,9.453
			c-0.607,2.241-1.731,5.143-2.666,7.27c-1.019,2.322-3.212,6.017-3.212,6.017l-2.999,2.999c0,0-0.934-1.986-1.544-3.199
			c-0.372-0.74-2.282-1.817-3.029-2.18C489.095-533.812,486.885-532.342,486.885-532.342L486.885-532.342z"/>
		<path fill="#FCFFFF" d="M522.438-510.149c0,0-0.571-3.541-0.691-5.092c-0.154-2.029,0.102-4.751,0.242-6.786
			c0.295-4.229,1.151-9.83,1.455-14.058c0.387-5.371,0.509-12.554,0.728-17.935c0.219-5.38,0.33-9.386,0.441-14.77
			c0.043-2.181-1.225-8.122-1.442-10.293c-0.108-1.107-2.74-7.808-2.74-7.808s7.355,5.66,9.233,6.893
			c2.195,1.44,6.452,5.516,7.694,7.83c0.73,1.358,1.005,8.59,1.157,10.125c0.519,5.218,0.485,5.449,0.682,10.69
			c0.139,3.706,0.345,8.653,0.243,12.361c-0.081,2.916-0.483,6.789-0.729,9.695c-0.327,3.857-0.495,9.041-1.212,12.845
			c-0.294,1.562-1.453,5.091-1.453,5.091l-3.674,3.179c0,0-1.328-1.949-2.385-2.692c-0.752-0.532-1.99-0.994-2.909-0.969
			C525.678-511.812,522.438-510.149,522.438-510.149L522.438-510.149z"/>
		<path fill="#FCFFFF" d="M561.474-493.104c0,0-0.908-4.846-1.446-6.965c-0.302-1.192-0.445-2.841-0.803-4.019
			c-0.304-0.999-0.754-3.578-0.921-4.609c-0.515-3.181,0.641-5.227,1.17-8.406c0.315-1.885,1.832-5.448,2.13-7.336
			c0.429-2.705,1.179-5.852,1.322-8.586c0.094-1.848-1.594-4.587-1.825-6.423c-0.347-2.748,0.238-3.591-0.909-6.112
			c-1.067-2.333-4.521-4.679-4.521-4.679s8.25,0.142,9.961,0.989c3.821,2.094,3.675,2.718,6.452,6.051
			c1.285,1.69,2.979,4.099,3.483,6.162c0.533,2.186,0.469,6.296,0.385,8.546c-0.078,2.011-0.46,3.692-0.923,5.65
			c-0.403,1.716-1.823,3.695-2.408,5.358c-0.638,1.799-1.366,4.264-1.61,6.162c-0.245,1.911-0.275,4.519,0.001,6.427
			c0.203,1.411,1.033,3.164,1.341,4.554c0.35,1.588,1.037,3.75,0.801,5.356c-0.19,1.316-1.111,2.929-1.875,4.017
			c-0.392,0.56-1.607,0.772-1.607,0.772s-0.868-1.427-1.606-2.112c-0.583-0.535-1.632-0.936-2.413-1.071
			C564.622-493.55,561.474-493.104,561.474-493.104L561.474-493.104z"/>
		<path fill="#FCFFFF" d="M601.409-478.066c0,0-1.708-4.184-2.113-6.071c-0.566-2.642-0.398-6.302-0.793-8.975
			c-0.282-1.923-0.953-4.432-1.32-6.338c-0.259-1.345-0.708-3.126-0.793-4.491c-0.091-1.503,0.46-3.522,0.264-5.016
			c-0.302-2.309-1.38-5.288-2.375-7.394c-0.688-1.448-2.049-3.13-2.906-4.488c-0.644-1.021-1.821-2.255-2.112-3.429
			c-0.286-1.16,0.756-2.879,0.265-3.964c-0.534-1.183-2.402-1.849-3.432-2.641c-1.346-1.03-3.614-1.978-4.489-3.432
			c-0.746-1.238-2.948-4.299-2.948-4.299s4.594,1.634,5.891,1.999c1.295,0.366,3.366-0.115,4.716-0.076
			c1.82,0.053,6.071,0.001,6.071,0.001c2.361,0.544,2.582,0.228,3.961,0.527c1.188,0.329,2.123,1.952,2.903,2.906
			c0.908,1.102,1.938,2.717,2.641,3.959c0.91,1.603,1.868,3.873,2.641,5.547c0.73,1.576,1.867,3.618,2.377,5.279
			c0.541,1.769,0.664,4.266,1.057,6.074c0.464,2.158,1.519,4.943,1.847,7.127c0.268,1.804,0.128,4.256,0.264,6.074
			c0.167,2.225,0.592,5.174,0.792,7.395c0.193,2.136,0.448,4.985,0.526,7.127c0.048,1.268,0.002,4.228,0.002,4.228l-3.901,4.887
			c0,0,0.286-1.193-0.318-1.951c-0.664-0.833-1.874-2.168-2.911-2.41c-0.833-0.193-2.596-0.048-3.407,0.213
			C602.878-479.396,601.409-478.066,601.409-478.066L601.409-478.066z"/>
		<g>
			
				<radialGradient id="SVGID_6_" cx="373.5628" cy="-686.6967" r="17.1014" gradientTransform="matrix(0.1282 -0.4975 2.8419 0.7321 2545.4958 176.1918)" gradientUnits="userSpaceOnUse">
				<stop  offset="0" style="stop-color:#353535"/>
				<stop  offset="1" style="stop-color:#000000;stop-opacity:0"/>
			</radialGradient>
			<path fill="url(#SVGID_6_)" d="M625.548-521.791c0,0-0.767,1.517-0.81,2.224c-0.049,0.809,0.265,1.897,0.607,2.634
				c0.384,0.823,1.089,1.887,1.82,2.425c1.454,1.075,3.962,1.437,5.667,2.024c1.451,0.501,3.357,1.285,4.857,1.62
				c1.014,0.224,2.426,0.177,3.44,0.403c1.124,0.252,2.607,0.71,3.641,1.214c0.984,0.482,2.252,1.261,3.035,2.023
				c0.906,0.883,2.431,3.441,2.431,3.441c-0.164,0.621-0.06,1.189,0.453,1.674c0,0,1.086-3.821,1.772-4.912
				c0.457-0.727,1.221-1.719,2.023-2.024c0.909-0.345,2.385,0.674,3.237,0.203c0.667-0.368,1.061-2.227,1.061-2.227l-9.965-3.037
				c-2.189-0.662-5.119-1.498-7.285-2.223c-2.515-0.845-5.789-2.183-8.299-3.035C630.948-520.145,625.548-521.791,625.548-521.791
				L625.548-521.791z"/>
		</g>
		<path fill="#FCFFFF" d="M650.156-502.77l1.913,2.427l0.19,2.429l-3.44,6.677l-4.25-1.821l3.823-5.464L650.156-502.77
			L650.156-502.77z"/>
		
			<radialGradient id="SVGID_7_" cx="832.9481" cy="-779.0664" r="3.3857" gradientTransform="matrix(1.1418 0.2321 -0.9211 4.5317 -1014.5435 2833.5725)" gradientUnits="userSpaceOnUse">
			<stop  offset="0" style="stop-color:#FCFFFF"/>
			<stop  offset="1" style="stop-color:#FCFFFF;stop-opacity:0"/>
		</radialGradient>
		<path fill="url(#SVGID_7_)" d="M652.096-500.345c-0.237-0.616-1.241-1.074-1.368-1.725c-0.184-0.945,0.585-2.181,0.913-3.091
			c0.235-0.653,0.527-1.547,0.913-2.128c0.384-0.58,1.005-1.346,1.622-1.674c0.299-0.16,0.775-0.212,1.114-0.201
			c0.675,0.023,2.181,0.558,2.181,0.558s-1.867,3.341-2.587,4.815c-0.445,0.908-0.943,2.171-1.367,3.093
			c-0.369,0.793-1.269,2.633-1.269,2.633S652.346-499.707,652.096-500.345z"/>
		<g>
			<path fill="#F3F3F5" d="M519.316-450.579c-1.872,3.79-7.05,5.219-11.565,3.188c-4.513-2.027-6.654-6.747-4.781-10.536
				c1.873-3.79,7.052-5.217,11.565-3.191c4.503,2.025,6.645,6.725,4.793,10.514"/>
		</g>
		<g>
			<path fill="#808C8C" d="M517.915-451.275c-1.548,3.134-5.826,4.313-9.555,2.637c-3.73-1.679-5.499-5.576-3.951-8.709
				c1.548-3.131,5.827-4.311,9.556-2.633c3.721,1.671,5.491,5.556,3.96,8.686"/>
		</g>
		<g>
			<path fill="#F3F3F5" d="M517.214-451.619c-1.387,2.805-5.214,3.859-8.552,2.359c-3.338-1.498-4.921-4.988-3.533-7.792
				c1.384-2.804,5.214-3.858,8.55-2.358c3.33,1.498,4.915,4.974,3.545,7.776"/>
		</g>
		<g>
			<path fill="#151E1F" d="M514.682-452.602c-0.812,1.643-3.053,2.262-5.008,1.384c-1.954-0.879-2.883-2.923-2.071-4.564
				c0.81-1.642,3.052-2.26,5.008-1.381c1.949,0.878,2.878,2.913,2.074,4.554"/>
		</g>
		<g>
			
				<radialGradient id="SVGID_8_" cx="899.3506" cy="-760.2517" r="18.8266" gradientTransform="matrix(1.128 0.4172 -0.5415 1.4326 -736.2794 212.8352)" gradientUnits="userSpaceOnUse">
				<stop  offset="0" style="stop-color:#222C2C"/>
				<stop  offset="1" style="stop-color:#101414"/>
			</radialGradient>
			<path fill="url(#SVGID_8_)" d="M670.834-497.653c0,0,7.411,1.015,10.607,1.237c2.988,0.204,6.993,0.412,9.982,0.206
				c2.333-0.164,5.401-0.787,7.695-1.236c2.955-0.576,8.533-1.141,8.533-1.141s-6.586-1.579-9.528-2.021
				c-4.229-0.633-8.962-1.715-13.148-2.597c-2.355-0.497-6.657-2.261-7.696-2.262c-1.039-0.002-3.536-0.619-3.536-0.619
				s-0.671,2.61-1.039,3.703C672.217-500.937,670.834-497.653,670.834-497.653L670.834-497.653z"/>
		</g>
		<g>
			
				<linearGradient id="SVGID_9_" gradientUnits="userSpaceOnUse" x1="1126.8104" y1="-465.0608" x2="1125.8557" y2="-459.1558" gradientTransform="matrix(0.904 -4.095584e-05 4.095584e-05 0.904 -398.1061 -98.3873)">
				<stop  offset="0" style="stop-color:#7F9096"/>
				<stop  offset="1" style="stop-color:#7F9096;stop-opacity:0"/>
			</linearGradient>
			<path fill="url(#SVGID_9_)" d="M627.595-514.13c0,0-3.965-0.199-5.659-0.369c-1.666-0.163-4.031,0.005-5.535-0.736
				c-1.029-0.511-2.163-1.692-2.705-2.706c-0.267-0.498-0.479-1.291-0.37-1.846c0.154-0.781,1.096-1.511,1.475-2.211
				c0.267-0.497,0.119-1.547,0.248-2.092c0.151-0.647-0.002-2.216-0.002-2.216s3.793,1.054,4.698,1.416
				c1.376,0.548,2.636,1.026,3.956,1.701c0.684,0.351,1.922,0.965,2.193,1.682c0.282,0.744-1.198,1.788-1.128,2.582
				c0.071,0.84,0.678,1.856,1.107,2.584C626.302-515.615,627.595-514.13,627.595-514.13L627.595-514.13z"/>
		</g>
		<g>
			
				<linearGradient id="SVGID_10_" gradientUnits="userSpaceOnUse" x1="1127.9324" y1="-459.452" x2="1124.4348" y2="-440.7531" gradientTransform="matrix(0.904 -4.095584e-05 4.095584e-05 0.904 -398.1061 -98.3873)">
				<stop  offset="0" style="stop-color:#2E3131"/>
				<stop  offset="1" style="stop-color:#2E3131;stop-opacity:0"/>
			</linearGradient>
			<path fill="url(#SVGID_10_)" d="M631.703-507.216c-2.638-0.014-6.124-0.721-8.762-0.769c-1.848-0.036-4.302,0.292-6.15,0.306
				c-1.382,0.012-3.496,0.667-4.61-0.152c-0.905-0.667-0.472-2.543-0.716-3.639c-0.292-1.312-0.74-3.034-0.976-4.356
				c-0.164-0.935-0.413-2.193-0.767-3.073c-0.278-0.69-1.23-2.153-1.23-2.153s3.018-2.619,4.457-3.538
				c0.347-0.218,0.818-0.64,1.231-0.614c0.331,0.021,0.752,0.329,0.922,0.615c0.282,0.477,0.264,1.301,0.152,1.844
				c-0.196,0.97-1.359,1.948-1.535,2.922c-0.133,0.732-0.048,1.806,0.308,2.458c0.718,1.323,2.577,2.412,3.843,3.227
				c1.806,1.163,4.463,2.284,6.455,3.075c1.396,0.557,3.291,1.26,4.766,1.538c0.725,0.139,1.723,0.09,2.459,0.154
				c0.833,0.073,2.042-0.106,2.767,0.306c0.2,0.116,0.479,0.388,0.462,0.615c-0.032,0.458-0.663,0.888-1.078,1.077
				C633.156-507.118,632.304-507.212,631.703-507.216L631.703-507.216z"/>
		</g>
		<g>
			
				<linearGradient id="SVGID_11_" gradientUnits="userSpaceOnUse" x1="1089.5959" y1="-481.5128" x2="1099.6854" y2="-477.2085" gradientTransform="matrix(0.904 -4.095584e-05 4.095584e-05 0.904 -398.1061 -98.3873)">
				<stop  offset="0" style="stop-color:#939B9D"/>
				<stop  offset="1" style="stop-color:#C1CBCE;stop-opacity:0"/>
			</linearGradient>
			<path fill="url(#SVGID_11_)" d="M589.633-527.889c1.207,0.185,2.633-1.282,3.472-2.208c0.7-0.769,1.594-2.054,1.613-3.118
				c0.019-1.221-0.746-2.997-1.737-3.638c-1.202-0.779-3.301-0.059-4.712,0c-0.932,0.039-2.665-0.364-3.591-0.478
				c-2.022-0.252-6.451-1.839-6.451-1.839s2.282,4.154,3.469,5.435c1.086,1.172,2.401,2.13,3.726,2.987
				c0.695,0.451,2.335,0.892,2.97,1.43C588.824-528.954,589.085-527.972,589.633-527.889L589.633-527.889z"/>
		</g>
		<g>
			
				<linearGradient id="SVGID_12_" gradientUnits="userSpaceOnUse" x1="1075.0074" y1="-483.1487" x2="1106.1609" y2="-483.1487" gradientTransform="matrix(0.904 -4.095584e-05 4.095584e-05 0.904 -398.1061 -98.3873)">
				<stop  offset="0" style="stop-color:#243030"/>
				<stop  offset="1" style="stop-color:#243030;stop-opacity:0"/>
			</linearGradient>
			<path fill="url(#SVGID_12_)" d="M589.843-527.902c0,0-6.134-2.401-8.485-3.936c-1.03-0.669-2.156-1.889-3.074-2.705
				c-0.705-0.624-1.775-1.338-2.338-2.091c-0.464-0.62-0.744-1.651-1.107-2.338c-0.34-0.641-1.229-2.09-1.229-2.09
				s4.223-4.074,5.651-3.839c1.024,0.167,3.074,0.558,4.42,1.702c1.815,0.785,3.082,1.323,4.915,2.128
				c1.871,0.358,3.233,1.417,4.984,2.171c0.771,0.335,2.381,2.032,2.381,2.032s-5.05,0.545-6.116,0.478
				c-1.487-0.091-3.464-0.313-4.921-0.614c-1.165-0.241-2.684-0.724-3.813-1.107c-0.674-0.228-2.214-0.861-2.214-0.861
				s0.916,2.387,1.476,3.321c0.556,0.923,1.419,2.102,2.216,2.828c0.55,0.504,1.445,0.978,2.09,1.354
				c0.826,0.481,1.987,1.023,2.829,1.477c0.668,0.36,1.783,0.604,2.214,1.228c0.148,0.216,0.122,0.864,0.122,0.864L589.843-527.902z
				"/>
		</g>
		<g>
			
				<linearGradient id="SVGID_13_" gradientUnits="userSpaceOnUse" x1="1038.0903" y1="-501.6157" x2="1080.9708" y2="-508.2954" gradientTransform="matrix(0.904 -4.095584e-05 4.095584e-05 0.904 -398.1061 -98.3873)">
				<stop  offset="0" style="stop-color:#151C1C"/>
				<stop  offset="1" style="stop-color:#243030;stop-opacity:0"/>
			</linearGradient>
			<path fill="url(#SVGID_13_)" d="M542.196-558.415l7.852-3.679c0,0,2.169,2.135,3.19,2.945c1.742,1.384,4.153,3.156,6.133,4.171
				c1.535,0.784,5.399,1.962,5.399,1.962l-2.455,2.699c0,0-4.323,0.588-6.134,0.245c-1.974-0.373-4.389-1.702-6.135-2.698
				C547.529-554.209,542.196-558.415,542.196-558.415z"/>
		</g>
		<g opacity="0.8482" enable-background="new    ">
			
				<radialGradient id="SVGID_14_" cx="488.1627" cy="-862.1299" r="14.4062" gradientTransform="matrix(2.4415 0.6239 -0.9975 3.9031 -1626.4902 2446.3552)" gradientUnits="userSpaceOnUse">
				<stop  offset="0" style="stop-color:#1A2926"/>
				<stop  offset="1" style="stop-color:#1A2926;stop-opacity:0"/>
			</radialGradient>
			<polygon fill="url(#SVGID_14_)" points="421.956,-620.581 423.535,-624.924 436.955,-632.028 439.719,-623.344 435.771,-615.45 
				431.824,-603.608 424.72,-600.055 422.351,-596.107 413.667,-602.424 410.903,-612.291 412.482,-616.239 418.404,-617.818 			"/>
		</g>
		<g>
			
				<linearGradient id="SVGID_15_" gradientUnits="userSpaceOnUse" x1="962.4633" y1="-559.7479" x2="953.7682" y2="-563.2346" gradientTransform="matrix(0.904 -4.095584e-05 4.095584e-05 0.904 -398.1061 -98.3873)">
				<stop  offset="0" style="stop-color:#B0BBB7"/>
				<stop  offset="1" style="stop-color:#B0BBB7;stop-opacity:0"/>
			</linearGradient>
			<path fill="url(#SVGID_15_)" d="M468.949-597.12c0,0,2.164-5.755,2.821-8.301c0.494-1.911,1.06-4.505,1.162-6.475
				c0.071-1.347-0.332-4.483-0.332-4.483s-2.327,1.475-2.822,2.491c-0.372,0.762,0.004,1.99-0.166,2.822
				c-0.236,1.142-0.867,2.581-1.328,3.652c-0.618,1.432-1.843,3.167-2.326,4.648c-0.187,0.577-0.036,1.464-0.33,1.992
				c-0.484,0.862-2.192,1.216-2.491,2.159c-0.309,0.979,0.664,3.985,0.664,3.985l3.818-0.333L468.949-597.12L468.949-597.12z"/>
		</g>
		<g>
			
				<linearGradient id="SVGID_16_" gradientUnits="userSpaceOnUse" x1="1050.4811" y1="-670.187" x2="1041.785" y2="-673.6742" gradientTransform="matrix(0.4539 -0.0276 0.0239 0.9034 33.7168 56.7041)">
				<stop  offset="0" style="stop-color:#B0BBB7"/>
				<stop  offset="1" style="stop-color:#B0BBB7;stop-opacity:0"/>
			</linearGradient>
			<path fill="url(#SVGID_16_)" d="M493.778-571.707c0,0,0.935-5.817,1.198-8.382c0.197-1.925-0.203-3.084-0.204-5.056
				c0-1.348-0.285-4.47-0.285-4.47s-1.13,1.546-1.351,2.575c-0.167,0.773,0.054,1.989-0.009,2.826
				c-0.089,1.147-0.369,2.605-0.57,3.689c-0.272,1.449-0.841,3.22-1.044,4.716c-0.08,0.582,0.021,1.464-0.115,2.001
				c-0.22,0.876-1.068,1.282-1.193,2.232c-0.129,0.989,0.438,3.962,0.438,3.962l1.909-0.449L493.778-571.707L493.778-571.707z"/>
		</g>
		<g>
			
				<linearGradient id="SVGID_17_" gradientUnits="userSpaceOnUse" x1="1029.8014" y1="-606.4434" x2="1021.1046" y2="-609.9307" gradientTransform="matrix(0.4496 -0.0671 0.0986 0.7836 121.7877 -11.8714)">
				<stop  offset="0" style="stop-color:#B0BBB7"/>
				<stop  offset="1" style="stop-color:#B0BBB7;stop-opacity:0"/>
			</linearGradient>
			<path fill="url(#SVGID_17_)" d="M524.682-550.785c0,0,0.45-5.148,0.497-7.404c0.036-1.693-0.259-3.159-0.423-4.875
				c-0.111-1.173-0.355-3.365-0.355-3.365s-1.494,1.451-1.629,2.368c-0.101,0.688,0.22,1.725,0.225,2.458
				c0.007,1.007-0.148,2.302-0.261,3.264c-0.149,1.286-0.569,2.88-0.648,4.201c-0.029,0.514,0.141,1.273,0.052,1.752
				c-0.146,0.783-0.959,1.217-1.003,2.055c-0.047,0.872,0.766,3.405,0.766,3.405l1.86-0.572L524.682-550.785L524.682-550.785z"/>
		</g>
		<g>
			
				<radialGradient id="SVGID_18_" cx="624.1663" cy="-754.9359" r="5.9564" gradientTransform="matrix(2.3323 0.0845 -0.1488 2.4661 -1000.5692 1272.4545)" gradientUnits="userSpaceOnUse">
				<stop  offset="0" style="stop-color:#A7B0AD"/>
				<stop  offset="1" style="stop-color:#BEC8C5;stop-opacity:0"/>
			</radialGradient>
			<polygon fill="url(#SVGID_18_)" points="562.367,-534.113 566.788,-539.211 572.219,-542.03 573.008,-539.796 568.978,-536.702 
				564,-533.168 561.877,-531.123 			"/>
		</g>
		<g opacity="0.563" enable-background="new    ">
			
				<linearGradient id="SVGID_19_" gradientUnits="userSpaceOnUse" x1="901.5491" y1="-619.1783" x2="908.2325" y2="-620.1329" gradientTransform="matrix(0.904 4.519522e-05 4.095584e-05 0.9782 -178.8359 102.6527)">
				<stop  offset="0" style="stop-color:#B3BBB8"/>
				<stop  offset="1" style="stop-color:#B3BBB8;stop-opacity:0"/>
			</linearGradient>
			<path fill="url(#SVGID_19_)" d="M635.156-508.882c0,0,1.833,0.592,2.516,1.08c0.672,0.476,1.514,1.281,1.91,2.056
				c0.441,0.863,0.681,2.234,0.693,3.232c0.015,0.868-0.173,2.839-0.52,2.838c-0.347,0-1.216,2.251-1.216,2.251l-1.214-0.486
				c0,0,1.36-2.718,1.476-4.017c0.07-0.774-0.132-1.846-0.434-2.547c-0.348-0.805-1.105-1.709-1.737-2.252
				c-0.619-0.535-2.344-1.274-2.344-1.274L635.156-508.882z"/>
		</g>
		<g opacity="0.5222" enable-background="new    ">
			<path fill="#0B1E1C" d="M478.475-460.713c1.822-3.419,9.044-2.031,12.9-2.378c3.394-0.302,7.857,0.726,11.237,0.295
				c3.487-0.444,11.01-4.706,11.651-1.248c0.707,3.809-9.765,0.565-12.484,3.33c-1.083,1.101-1.275,3.449-1.249,4.992
				c0.03,1.816,0.606,4.348,1.665,5.827c1.149,1.605,6.259,1.964,5.41,3.746c-1.908,3.989-9.818-1.303-14.149-2.205
				c-1.97-0.409-4.645-0.831-6.658-0.833c-3.02,0.001-7.042-0.046-9.989-0.708c-1.586-0.356-4.848-1.309-4.577-2.912
				c0.365-2.153,5.405-0.264,7.074-1.666c0.73-0.611,1.321-1.965,1.25-2.913C480.464-458.562,477.92-459.678,478.475-460.713
				L478.475-460.713z"/>
		</g>
		<g opacity="0.5185" enable-background="new    ">
			<path fill="#0B1E1C" d="M508.798-444.03c0,0,7.599,0.708,8.306,0.707c0.706,0.001,8.468-0.826,11.836-2.12
				c3.556-1.368,8.819-3.448,10.779-6.712c0.82-1.367,1.088-3.887,0.353-5.301c-1.316-2.535-5.496-3.841-8.127-4.946
				c-3.581-1.503-10.027-2.252-13.797-3.183c-1.322-0.326-3.166-1.058-3.166-1.058s-0.794,1.429-0.652,2.511
				c0.086,0.651,1.889,2.788,1.889,2.788s3.858,2.827,4.771,4.596c0.493,0.951,0.603,2.464,0.53,3.531
				c-0.088,1.323-0.478,3.154-1.236,4.241c-0.718,1.026-2.212,1.973-3.357,2.471l-5.728,2.482l-2.224-1.596L508.798-444.03
				L508.798-444.03z"/>
		</g>
		<g>
			<path fill="#152D2B" d="M382.205-450.506c0,0-10.758-8.072-15.683-11.05c-3.805-2.302-9.459-4.35-13.191-6.772
				c-5.293-3.437-11.588-9.101-16.395-13.191c-3.288-2.798-6.802-7.754-10.694-9.625c-5.958-2.859-21.744-3.564-21.744-3.564
				s5.108,6.111,7.486,8.555c4.063,4.177,11.049,1.426,14.258,13.19c3.208,11.762,0.723,9.28,2.852,12.476
				c3.06,4.595,9.714,9.01,14.971,10.691c5.906,1.893,14.474,0.127,20.674,0.002C369.982-449.9,382.205-450.506,382.205-450.506z"/>
		</g>
		<path fill="#F4F7FF" d="M290.163-422.095c0,0-1.088-10.174-1.824-13.779c-0.516-2.537-0.982-5.966-1.543-8.496
			c-0.494-2.223-1.94-5.06-1.93-7.336c0.006-1.319,0.307-3.483,0.642-4.761c0.362-1.385,1.903-2.704,1.673-4.116
			c-0.241-1.491-1.864-2.991-2.701-4.248c-0.786-1.175-2.703-3.861-2.703-3.861s-0.655,3.5-0.77,5.02
			c-0.097,1.27-0.077,2.974-0.002,4.246c0.175,2.91,0.985,6.739,1.159,9.651c0.111,1.85-0.201,4.336,0,6.177
			c0.35,3.183-1.768,2.308,0.891,13.039c0.546,2.209,1.132,3.366,2.626,5.08C286.67-424.341,290.163-422.095,290.163-422.095
			L290.163-422.095z"/>
		<g>
			
				<radialGradient id="SVGID_20_" cx="321.132" cy="-790.024" r="2.7131" gradientTransform="matrix(6.3373 6.5838 -3.9672 3.8186 -4881.3491 461.2505)" gradientUnits="userSpaceOnUse">
				<stop  offset="0" style="stop-color:#979797"/>
				<stop  offset="1" style="stop-color:#787878;stop-opacity:0"/>
			</radialGradient>
			<polygon fill="url(#SVGID_20_)" points="290.731,-422.172 289.331,-422.02 288.521,-429.422 287.6,-435.639 286.446,-442.563 
				285.641,-446.349 284.617,-449.64 284.113,-452.741 284.782,-456.65 286.053,-459.081 286.667,-460.606 286.704,-460.604 
				286.724,-460.648 286.825,-460.606 288.076,-460.602 288.018,-460.095 287.324,-458.478 286.082,-456.101 285.538,-452.741 
				285.985,-449.959 287.002,-446.704 287.829,-442.825 288.99,-435.856 289.916,-429.603 			"/>
		</g>
		<g>
			<path fill="#929294" d="M282.451-435.935l0-5.516l0.39-4.192l-0.39-5.514l-0.781-3.752"/>
			
				<radialGradient id="SVGID_21_" cx="432.3869" cy="-765.563" r="0.7653" gradientTransform="matrix(1.5674 1.540780e-05 -2.139807e-05 9.1037 -395.7316 6526.4307)" gradientUnits="userSpaceOnUse">
				<stop  offset="0" style="stop-color:#979797"/>
				<stop  offset="1" style="stop-color:#787878;stop-opacity:0"/>
			</radialGradient>
			<polygon fill="url(#SVGID_21_)" points="283.368,-435.937 281.534,-435.936 281.535,-441.451 281.922,-445.65 281.537,-451.095 
				280.772,-454.724 282.567,-455.098 283.349,-451.345 283.755,-445.556 283.364,-441.367 			"/>
		</g>
		<g opacity="0.3741" enable-background="new    ">
			<g>
				
					<radialGradient id="SVGID_22_" cx="543.9688" cy="-644.6202" r="3.4659" gradientTransform="matrix(0.904 -4.045665e-05 4.094094e-05 1.1086 -207.2578 250.2798)" gradientUnits="userSpaceOnUse">
					<stop  offset="0" style="stop-color:#979797"/>
					<stop  offset="1" style="stop-color:#787878;stop-opacity:0"/>
				</radialGradient>
				<polygon fill="url(#SVGID_22_)" points="286.735,-460.364 284.298,-464.129 282.321,-466.108 281.152,-467.507 
					282.234,-468.406 283.36,-467.055 285.439,-464.959 287.916,-461.129 				"/>
			</g>
		</g>
		<g>
			
				<linearGradient id="SVGID_23_" gradientUnits="userSpaceOnUse" x1="1170.7609" y1="-386.4833" x2="1204.3942" y2="-386.4833" gradientTransform="matrix(0.904 -4.095584e-05 4.095584e-05 0.904 -398.1061 -98.3873)">
				<stop  offset="0" style="stop-color:#234141"/>
				<stop  offset="1" style="stop-color:#234141;stop-opacity:0"/>
			</linearGradient>
			<polyline fill="url(#SVGID_23_)" points="660.776,-440.928 676.475,-450.346 684.996,-453.484 693.07,-458.418 			"/>
			<polyline fill="none" stroke="#FFFFFF" stroke-width="1.0707" stroke-dasharray="4.2828,2.1414" points="660.776,-440.928 
				676.475,-450.346 684.996,-453.484 693.07,-458.418 			"/>
		</g>
		<g>
			
				<linearGradient id="SVGID_24_" gradientUnits="userSpaceOnUse" x1="1114.3005" y1="122.5363" x2="1147.9327" y2="122.5363" gradientTransform="matrix(0.7425 4.212558e-05 -4.212558e-05 0.7425 -163.0236 -534.866)">
				<stop  offset="0" style="stop-color:#234141"/>
				<stop  offset="1" style="stop-color:#234141;stop-opacity:0"/>
			</linearGradient>
			<polyline fill="url(#SVGID_24_)" points="669.84,-440.097 677.63,-444.514 684.628,-447.092 691.258,-451.145 			"/>
			<polyline fill="none" stroke="#FFFFFF" stroke-width="1.2336" stroke-dasharray="4.9342,2.4671" points="669.84,-440.097 
				677.63,-444.514 684.628,-447.092 691.258,-451.145 			"/>
		</g>
		<g>
			<polyline fill="none" stroke="#FFFFFF" stroke-width="1.0707" stroke-dasharray="4.2828,2.1414" points="660.272,-441.432 
				660.527,-436.839 661.548,-432.244 665.121,-420.249 			"/>
		</g>
		<g>
			<polyline fill="none" stroke="#FFFFFF" stroke-width="1.0707" stroke-dasharray="4.2828,2.1414" points="667.93,-440.412 
				668.184,-435.819 669.204,-431.225 672.015,-421.013 			"/>
		</g>
		<g>
			
				<linearGradient id="SVGID_25_" gradientUnits="userSpaceOnUse" x1="1313.3719" y1="-424.0488" x2="1315.0586" y2="-427.8394" gradientTransform="matrix(0.904 -4.095584e-05 4.095584e-05 0.904 -398.1061 -98.3873)">
				<stop  offset="0" style="stop-color:#353535"/>
				<stop  offset="1" style="stop-color:#000000;stop-opacity:0"/>
			</linearGradient>
			<path fill="url(#SVGID_25_)" d="M796.292-479.216c-0.268,0.031-0.542-0.096-0.684-0.348c-0.01-0.015-0.903-1.54-2.018-2.508
				c-0.924-0.805-3.676-2.947-4.68-3.531c-1.528-0.887-5.296-2.712-5.333-2.731c-0.348-0.17-0.495-0.589-0.324-0.941
				c0.169-0.347,0.592-0.498,0.939-0.325c0.156,0.076,3.849,1.866,5.424,2.779c1.149,0.667,4.029,2.932,4.899,3.687
				c1.294,1.127,2.27,2.794,2.31,2.864c0.194,0.339,0.078,0.769-0.257,0.964C796.48-479.256,796.385-479.226,796.292-479.216z"/>
		</g>
		<g>
			<path fill="#F3F3F5" d="M657.753-465.818c-0.729,6.147-6.524,10.565-12.946,9.865c-6.418-0.699-11.03-6.247-10.301-12.398
				c0.729-6.149,6.524-10.567,12.943-9.868c6.405,0.698,11.013,6.227,10.307,12.362"/>
		</g>
		<g>
			<path fill="#808C8C" d="M655.733-466.127c-0.6,5.081-5.39,8.735-10.695,8.154c-5.305-0.576-9.117-5.163-8.515-10.245
				c0.604-5.082,5.392-8.733,10.698-8.152c5.292,0.575,9.1,5.142,8.516,10.211"/>
		</g>
		<g>
			<path fill="#F3F3F5" d="M654.722-466.279c-0.538,4.546-4.825,7.816-9.573,7.295c-4.747-0.517-8.157-4.619-7.618-9.167
				c0.541-4.547,4.827-7.813,9.573-7.297c4.732,0.514,8.142,4.601,7.621,9.138"/>
		</g>
		<g>
			<path fill="#151E1F" d="M651.193-466.447c-0.316,2.659-2.825,4.575-5.606,4.273c-2.78-0.303-4.777-2.708-4.461-5.371
				s2.827-4.574,5.605-4.273c2.773,0.303,4.77,2.694,4.464,5.351"/>
		</g>
		<g>
			<path fill="#151E1F" d="M611.029-476.731c-0.316,2.665-2.826,4.577-5.604,4.275c-2.781-0.302-4.776-2.706-4.46-5.369
				c0.315-2.662,2.825-4.574,5.605-4.273c2.774,0.303,4.767,2.695,4.462,5.351"/>
		</g>
		<g>
			
				<radialGradient id="SVGID_26_" cx="907.2155" cy="26.6563" r="44.5397" gradientTransform="matrix(2.5007 -0.3281 0.0522 0.3976 -1519.2971 -162.2556)" gradientUnits="userSpaceOnUse">
				<stop  offset="0" style="stop-color:#D6D9D9"/>
				<stop  offset="1" style="stop-color:#E0E3E3;stop-opacity:0"/>
			</radialGradient>
			<polygon fill="url(#SVGID_26_)" points="711.647,-429.539 741.46,-437.442 771.272,-448.576 788.87,-459.352 795.336,-469.049 
				776.297,-468.334 746.129,-462.945 719.191,-455.403 706.258,-446.78 708.055,-437.442 			"/>
		</g>
		<path fill="#EFEFFB" d="M623.089-364.248c0,0-2.305-11.393-3.375-16.258c-0.873-3.967-2.101-9.244-3.067-13.189
			c-0.701-2.863-1.712-6.66-2.454-9.509c-0.456-1.751-1.534-5.828-1.534-5.828s28.139-0.33,40.181-0.922
			c3.686-0.178,8.602-0.514,12.269-0.92c8.227-0.906,19.161-2.481,27.3-3.986c9.922-1.835,23.093-4.672,32.82-7.361
			c8.778-2.425,20.324-6.257,28.833-9.508c8.814-3.369,20.576-8.01,28.832-12.576c3.997-2.213,7.247-4.026,10.487-7.248
			c2.065-2.049,5.242-4.511,6.401-7.182c0.864-1.988,1.137-4.185,1.121-6.351c-0.815-1.804-0.495-3.165-0.875-5.117
			c-0.648-3.304-1.912-8.529-3.984-11.003c-1.437-1.628-6.984-5.453-6.984-5.453s8.318,5.559,10.223,7.257
			c2.837,2.533,5.998,8.081,7.504,11.573c2.332,5.412,10.215,21.52,11.242,27.323c1.147,6.464,0.999,4.185,1.554,10.729
			c0.438,5.146-3.103,13.842-3.103,13.842c0.472-0.234-3.5,4.639-6.371,6.979c-2.529,2.063-8.834,5.503-11.57,7.285
			c-5.135,3.352-12.735,6.554-18.404,8.898c-6.75,2.789-16.006,5.88-23.005,7.975c-9.002,2.689-21.218,5.522-30.365,7.665
			c-8.89,2.088-20.781,4.743-29.754,6.444c-6.778,1.283-15.853,2.822-22.698,3.682c-7.243,0.903-16.947,1.698-24.232,2.145
			c-5.424,0.329-12.667,0.523-18.097,0.613C629.316-364.203,623.089-364.248,623.089-364.248L623.089-364.248z"/>
		<g>
			<path fill="none" stroke="#DDDDDD" stroke-width="1.3384" d="M614.558-401.931c0,0,16.705-0.129,23.512-0.306
				c7.181-0.187,16.776-0.23,23.926-0.92c8.342-0.806,19.353-2.829,27.605-4.294c11.087-1.971,25.901-4.567,36.808-7.359
				c8.034-2.061,18.535-5.59,26.379-8.283c6.225-2.136,14.517-5.043,20.551-7.668c5.285-2.299,12.313-5.506,17.178-8.59
				c3.265-2.072,7.484-5.148,10.124-7.973c1.671-1.792,4.14-4.65,5.403-6.75c1.016-1.693,1.79-3.91,2.264-5.828
				c0.266-1.072,0.652-2.755,0.652-2.755"/>
		</g>
		<g>
			
				<linearGradient id="SVGID_27_" gradientUnits="userSpaceOnUse" x1="926.8741" y1="-525.2389" x2="941.3875" y2="-528.8173" gradientTransform="matrix(0.8556 2.844632e-05 -4.486740e-05 0.9202 -180.4181 98.3253)">
				<stop  offset="0" style="stop-color:#B1C7C9"/>
				<stop  offset="1" style="stop-color:#535D5E;stop-opacity:0"/>
			</linearGradient>
			<polygon fill="url(#SVGID_27_)" points="622.668,-364.287 617.675,-368.762 614.348,-384.271 612.13,-398.885 612.685,-409.621 
				614.627,-397.692 618.786,-381.29 621.004,-369.956 			"/>
		</g>
		<g>
			<path fill="none" stroke="#FFFFFF" stroke-width="1.3384" d="M612.989-409.256c0,0,8.704,0.065,12.433,0.002
				c6.114-0.105,14.267-0.394,20.376-0.691c8.193-0.399,19.137-0.772,27.284-1.726c7.307-0.859,16.953-2.734,24.175-4.145
				c5.205-1.017,12.115-2.538,17.268-3.798c6.566-1.608,15.313-3.824,21.756-5.874c8.309-2.638,19.204-6.738,27.285-10.014
				c4.727-1.918,15.54-6.909,15.54-6.909l-0.345,0.002"/>
		</g>
		<g>
			<path fill="none" stroke="#F6F6F6" stroke-width="1.3384" d="M779.234-442.323c0,0,5.419-2.621,7.574-4.024
				c2.5-1.629,5.698-4.048,7.81-6.152c1.862-1.857,4.377-4.465,5.444-6.864c0.7-1.579,0.921-3.953,0.946-5.681
				c0.037-2.148-0.509-5.019-1.049-7.101c-0.539-2.077-0.649-2.807-1.474-4.777c-0.27-0.644-1.973-3.98-1.973-3.98"/>
		</g>
		<g opacity="0.9333" enable-background="new    ">
			<path fill="#D6D9E2" d="M618.858-396.178c0,0,45.607-0.285,65.082-1.743c15.591-1.17,36.31-3.768,51.719-6.395
				c13.718-2.336,31.816-6.539,45.327-9.876c8.253-2.039,18.926-6.151,27.312-7.556c2.755-0.462,9.297-0.58,9.297-0.58
				s-5.393,8.803-8.717,11.622c-7.492,6.354-19.949,11.425-29.055,15.11c-18.717,7.564-44.8,14.773-64.503,19.174
				c-19.273,4.307-65.084,9.879-65.084,9.879s-15.01,1.274-20.338-1.743c-3.37-1.909-7.556-10.459-7.556-10.459L618.858-396.178
				L618.858-396.178z"/>
		</g>
		<g>
			<path fill="none" stroke="#D2D2D2" stroke-width="1.3384" d="M619.369-383.268c0,0,14.825-0.088,20.898-0.305
				c6.539-0.234,15.261-0.613,21.776-1.227c7.67-0.723,17.858-2.126,25.46-3.372c8.513-1.397,19.803-3.626,28.219-5.521
				c8.339-1.882,19.35-4.84,27.604-7.056c6.556-1.761,15.401-3.81,21.78-6.136c6.926-2.524,15.965-6.512,22.39-10.122
				c3.984-2.237,9.029-5.71,12.578-8.59c2.474-2.008,5.516-5.007,7.668-7.361c0.692-0.757,3.919-4.839,5.996-8.119
				c1.492-2.358,2.341-4.669,2.341-4.669"/>
		</g>
		
			<radialGradient id="SVGID_28_" cx="784.6409" cy="-814.1863" r="32.8915" gradientTransform="matrix(0.5412 0.882 -0.8124 0.3733 -742.7397 -941.1698)" gradientUnits="userSpaceOnUse">
			<stop  offset="0" style="stop-color:#CFCFCF"/>
			<stop  offset="1" style="stop-color:#CFCFCF;stop-opacity:0"/>
		</radialGradient>
		<path opacity="0.737" fill="url(#SVGID_28_)" enable-background="new    " d="M359.619-519.663
			c-17.489,5.386-38.881-5.232-47.782-23.714c-8.903-18.483-1.943-37.831,15.545-43.217c17.488-5.384,38.882,5.233,47.784,23.716
			c8.879,18.436,1.978,37.745-15.437,43.181"/>
		<g>
			<polygon fill="#4B41A9" points="329.844,-536.126 332.764,-551.317 320.087,-565.504 335.479,-560.574 339.202,-575.767 
				343.93,-558.26 351.477,-556.248 360.43,-555.141 347.049,-547.594 352.181,-529.484 340.007,-542.866 			"/>
			<polygon fill="none" stroke="#000096" stroke-width="0.803" points="329.844,-536.126 332.764,-551.317 320.087,-565.504 
				335.479,-560.574 339.202,-575.767 343.93,-558.26 351.477,-556.248 360.43,-555.141 347.049,-547.594 352.181,-529.484 
				340.007,-542.866 			"/>
		</g>
	</g>
	<g opacity="0.9222" enable-background="new    ">
		<path fill="#142E2B" d="M323.415-573.369c0,0,2.107-11.526,4.196-16.039c1.517-3.282,4.686-7.02,6.909-9.871
			c2.221-2.851,5.778-6.192,7.896-9.129c1.864-2.585,5.266-5.948,5.429-9.131c0.115-2.283-1.78-5.125-3.207-6.909
			c-2.802-3.505-7.008-8.108-10.695-10.666c-2.65-1.838-6.12-3.804-8.747-5.675c-2.872-2.044-7.086-4.467-9.706-6.828
			c-2.101-1.892-8.772-6.086-8.772-6.086s2.184,8.818,2.933,12.64c0.674,3.437,1.324,8.522,2.14,11.927
			c1.185,4.96,2.18,12.934,3.318,17.904c1.081,4.728,2.474,11.962,3.235,16.751c0.467,2.94,1.133,6.993,1.426,9.953
			c0.299,3.035,0.641,3.411,1.398,6.364C321.447-577.073,323.415-573.368,323.415-573.369L323.415-573.369z"/>
	</g>
	<g opacity="0.9333" enable-background="new    ">
		<path fill="#152E2D" d="M360.261-632.455l10.26,16.487l12.605,15.603c0,0,2.931,12.366,3.811,13.543
			c0.878,1.179,15.243,13.543,15.243,13.543l20.521,8.243l8.207-2.944l-12.019-19.432l-12.606-25.613l-8.207-16.487l-2.639-5.888
			l-12.606,2.649l-11.433,1.177L360.261-632.455L360.261-632.455z"/>
	</g>
	<g opacity="0.9444" enable-background="new    ">
		<polygon fill="#142E2D" points="402.305,-635.399 416.416,-638.26 430.828,-641.405 440.137,-643.692 448.243,-641.406 
			450.644,-638.259 440.436,-633.968 436.232,-636.258 429.628,-635.112 423.623,-631.394 421.222,-625.96 421.22,-619.382 
			424.223,-613.661 430.227,-610.228 440.136,-609.943 444.939,-604.793 448.242,-594.21 443.438,-588.204 438.935,-580.195 
			437.434,-574.474 427.826,-586.773 418.518,-602.219 410.112,-618.81 		"/>
	</g>
	<g opacity="0.7815" enable-background="new    ">
		<polyline fill="none" stroke="#000000" stroke-width="1.3384" points="307.669,-487.315 306.876,-502.202 307.669,-511.213 
			308.862,-521.006 310.847,-530.801 312.436,-538.637 314.266,-546.64 316.059,-553.968 318.049,-558.144 322.681,-562.694 
			324.647,-566.636 324.259,-571.908 322.208,-575.192 323.49,-572.16 		"/>
	</g>
	<g opacity="0.781" enable-background="new    ">
		<path fill="none" stroke="#111111" stroke-width="1.3384" d="M313.42-543.974c0,0,0.646-4.968,1.222-7.03
			c0.304-1.091,1.901-2.505,2.412-3.517c0.659-1.305,1.675-2.991,2.598-4.126c1.125-1.384,3.328-2.618,4.279-4.127
			c0.775-1.226,1.296-3.153,1.529-4.584c0.191-1.179,0.283-2.817-0.001-3.975c-0.305-1.254-1.986-3.82-1.986-3.82"/>
	</g>
	<g>
		<path fill="#1A3A3A" d="M374.744-644.502c-0.739-0.409-0.241-2.006,0.001-2.816c1.321-4.447,5.774-9.16,8.446-12.952
			c3.055-4.335,7.211-10.081,10.699-14.077c2.514-2.879,6.45-6.171,9.009-9.009c2.332-2.587,5.154-6.284,7.32-9.01
			c2.399-3.015,4.486-8.471,8.322-8.824c2.026-0.186,3.689,3.367,3.974,5.379c0.531,3.759-3.889,5.425-6.1,8.511
			c-2.659,3.709-6.695,8.282-9.573,11.825c-3.709,4.567-8.933,10.441-12.388,15.204c-3.302,4.552-5.201,13.072-10.135,15.766
			C382.169-644.62,376.973-643.265,374.744-644.502L374.744-644.502z"/>
	</g>
</g>
<g>
	<polyline fill="none" stroke="#1A3434" stroke-width="1.3384" points="507.683,280.687 516.073,287.147 522.609,292.753 
		529.575,300.355 533.683,307.318 536.435,314.78 538.759,323.171 539.973,329.811 541.262,338.739 	"/>
</g>
<g opacity="0.9481" enable-background="new    ">
	<path fill="#1F2828" d="M500.829,292.614c-0.903,1.611,0.254,4.4-0.355,6.142c-0.663,1.884-2.408,4.052-3.856,5.429
		c-0.903,0.854-3.635,0.979-3.499,2.214c0.229,2.083,4.606,1.627,6.568,2.355c2.165,0.802,4.879,2.59,7.181,2.747
		c1.743,0.121,3.939-1.112,5.677-1.322c2.328-0.282,5.5,0.254,7.819-0.108c0.73-0.115,2.193,0.007,2.357-0.716
		c0.291-1.285-2.103-2.311-3.251-2.962c-2.316-1.313-6.121-1.372-8.497-2.568c-1.205-0.607-2.924-1.518-3.608-2.678
		c-1.223-2.066,0.007-5.784-1.074-7.928c-0.499-0.985-1.541-2.479-2.644-2.569C502.621,290.566,501.332,291.715,500.829,292.614
		L500.829,292.614z"/>
</g>
</svg>
