<svg version="1.1" id="Layer_1" xmlns="http://www.w3.org/2000/svg" xmlns:xlink="http://www.w3.org/1999/xlink" viewBox="0 0 768 430" enable-background="new 0 0 768 430" xml:space="preserve">
<g>
	<path fill="#749327" d="M329.885,78.954c-0.034-0.014-0.067-0.028-0.101-0.042c-2.86-1.202-6.14,0.256-7.17,3.183
		c-3.952,11.231-5.755,23.039-5.388,34.813c0.291,9.318-9.236,16.939-6.215,25.915c3.427-1.154,19.615-0.542,23.043-1.695
		c-6.069-18.032-7.238-37.606-1.162-55.473C333.803,82.977,332.492,80.05,329.885,78.954z"/>
	<circle fill="#F29100" cx="322.094" cy="243.237" r="111.271"/>
	<circle fill="#FBA105" cx="322.094" cy="230.629" r="98.663"/>
	<path fill="#D76F00" d="M246.23,324.637c19.876,18.532,46.546,29.871,75.863,29.871c29.318,0,55.988-11.339,75.863-29.871
		c-21.5,12.588-47.652,19.973-75.863,19.973C293.884,344.609,267.73,337.225,246.23,324.637z"/>
	<path fill="#F29100" d="M263.709,186.443c12.531-15.548,23.657-32.279,31.245-51.141c-16.629,4.168-31.774,12.078-44.488,22.783
		c-4.101,4.37-8.025,8.944-11.67,13.694c-8.375,10.462-15.364,21.797-20.973,32.537c-3.423,9.164-5.673,18.899-6.565,29.024
		C231.854,221.347,249.083,204.087,263.709,186.443z"/>
	<path fill="#D76F00" d="M268.188,170.546c8.48-10.738,16.295-22.024,22.756-34.157c-38.886,11.317-68.977,43.285-77.609,83.24
		C235.096,207.386,253.068,189.161,268.188,170.546z"/>
	<g>
		<path fill="#76AD45" d="M310.5,100.284c-11.945-5.261-26.838-6.319-41.828-2.62c-14.987,3.61-30.072,11.977-42.331,23.519
			c-12.303,11.491-21.78,26.158-26.542,41.204c-4.851,15.032-4.984,30.443-0.645,43.125c0.002,0.001,0.004,0.002,0.006,0.002
			c7.139-15.084,22.074-39.673,43.12-59.915c20.618-20.666,47.348-36.985,68.222-45.31
			C310.502,100.287,310.501,100.286,310.5,100.284z"/>
		<path fill="#5B8C2F" d="M199.147,205.559C199.149,205.56,199.146,205.558,199.147,205.559
			c25.31-8.735,47.267-25.307,66.055-42.771c18.56-17.734,35.072-37.706,45.3-62.499c0-0.002,0.001,0.002,0,0
			c-20.874,8.325-47.486,24.068-68.105,44.734C221.352,165.266,206.286,190.474,199.147,205.559z"/>
	</g>
	<g>
		<g>
			<path fill="#9DC955" d="M199.568,205.361l-0.414,0.15c0.101-0.217,8.541-22.706,29.4-47.204
				c12.253-14.391,25.754-26.928,40.127-37.263c17.991-12.936,30.079-20.219,50.379-26.025l-0.744,4.182
				c-44.993,12.871-67.872,39.285-86.789,61.481C210.975,184.797,199.667,205.149,199.568,205.361z"/>
		</g>
	</g>
	<circle fill="#F2C14D" cx="304.544" cy="152.968" r="2.702"/>
	<circle fill="#F2C14D" cx="312.761" cy="165.426" r="2.342"/>
	<circle fill="#F2C14D" cx="298.997" cy="161.912" r="1.171"/>
	<circle fill="#F2C14D" cx="299.834" cy="171.449" r="2.008"/>
	<circle fill="#F2C14D" cx="310.325" cy="179.464" r="1.456"/>
	<circle fill="#F2C14D" cx="302.64" cy="185.119" r="0.798"/>
	<circle fill="#F2C14D" cx="288.662" cy="184.372" r="1.544"/>
	<circle fill="#F2C14D" cx="289.03" cy="173.362" r="1.913"/>
	<circle fill="#F2C14D" cx="299.834" cy="189.855" r="2.008"/>
	<circle fill="#F2C14D" cx="300.838" cy="202.237" r="1.004"/>
	<circle fill="#F2C14D" cx="291.062" cy="197.241" r="2.032"/>
	<circle fill="#F2C14D" cx="289.089" cy="207.531" r="1.972"/>
	<circle fill="#F2C14D" cx="281.775" cy="194.552" r="2.689"/>
	<circle fill="#F2C14D" cx="283.119" cy="203.582" r="1.345"/>
	<circle fill="#F2C14D" cx="276.391" cy="206.545" r="0.986"/>
	<circle fill="#F2C14D" cx="278.557" cy="217.473" r="1.18"/>
	<circle fill="#F2C14D" cx="270.367" cy="206.545" r="0.986"/>
	<circle fill="#F2C14D" cx="269.874" cy="199.766" r="0.493"/>
	<circle fill="#F2C14D" cx="275.897" cy="188.34" r="0.493"/>
	<circle fill="#F2C14D" cx="281.428" cy="181.155" r="1.691"/>
	<circle fill="#F2C14D" cx="310.325" cy="196.007" r="1.456"/>
	<circle fill="#F2C14D" cx="308.549" cy="206.229" r="1.303"/>
	<circle fill="#F2C14D" cx="298.412" cy="214.535" r="0.585"/>
	<circle fill="#F2C14D" cx="308.549" cy="216.424" r="1.303"/>
	<circle fill="#F2C14D" cx="292.078" cy="224.67" r="1.016"/>
	<circle fill="#F2C14D" cx="304.943" cy="225.958" r="2.303"/>
	<circle fill="#F2C14D" cx="316.765" cy="201.92" r="1.662"/>
	<circle fill="#F2C14D" cx="318.348" cy="182.738" r="1.583"/>
	<circle fill="#F2C14D" cx="321.083" cy="170.595" r="1.153"/>
	<circle fill="#F2C14D" cx="319.755" cy="154.252" r="1.329"/>
</g>
<path fill="#D76F00" d="M576.056,243.332c0,61.303-49.733,111.176-110.865,111.176s-110.865-49.873-110.865-111.176
	s49.733-111.176,110.865-111.176S576.056,182.029,576.056,243.332"/>
<path fill="#F29100" d="M573.261,243.332c0,59.762-48.479,108.381-108.07,108.381s-108.071-48.619-108.071-108.381
	S405.6,134.951,465.19,134.951S573.261,183.57,573.261,243.332"/>
<path fill="#FFF1DB" d="M563.208,251.186c-0.06,0.812-0.13,1.623-0.212,2.43c-0.449,8.505-4.176,15.958-6.322,24.555
	c-0.28,0.812-0.564,1.619-0.853,2.422c-1.443,4.014-2.992,7.914-4.976,11.523c-0.453,0.824-0.93,1.632-1.433,2.416
	c-5.499,6.718-9.226,16.034-17.229,20.336c-0.719,0.465-1.439,0.923-2.152,1.381c-2.141,1.377-4.218,2.766-5.986,4.391
	c-0.714,0.577-1.423,1.152-2.128,1.723c-6.348,5.133-12.421,9.918-20.326,12.494c-0.859,0.254-1.728,0.494-2.601,0.732
	c-5.233,1.431-10.596,2.82-15.617,5.455c-0.966,0.236-1.977,0.419-2.997,0.582c-8.198,2.479-17.515-0.315-26.086-1.381
	c-0.933-0.139-1.849-0.287-2.766-0.428c-1.527-0.236-3.072-0.432-4.632-0.578c-0.779-0.074-1.564-0.139-2.357-0.202
	c-6.333-0.872-11.885-2.562-17.156-4.966c-0.879-0.4-1.749-0.82-2.609-1.24c-5.943-3.194-11.835-5.979-17.517-9.556
	c-0.812-0.511-1.618-1.038-2.421-1.585c-9.049-4.603-14.639-12.987-20.97-21.099c-0.498-0.513-0.995-1.036-1.485-1.573
	c-0.489-0.536-0.971-1.086-1.443-1.646c-2.253-2.19-4.082-4.562-5.537-7.09c-0.485-0.843-0.93-1.703-1.334-2.578
	c-1.06-1.576-1.758-3.248-2.232-4.979c-0.236-0.864-0.418-1.744-0.566-2.635c-0.635-8.653-2.498-16.106-4.417-24.17
	c-0.14-0.613-0.276-1.229-0.409-1.847s-0.261-1.239-0.385-1.862c-0.17-0.914-0.315-1.841-0.431-2.775
	c-0.693-5.607-0.3-11.525,1.522-17.097c0.242-0.927,0.492-1.851,0.738-2.772c0.984-3.686,1.923-7.35,1.995-10.972
	c0.195-0.858,0.393-1.715,0.593-2.569c1.802-7.686,3.855-15.158,7.69-21.567c0.474-0.792,0.976-1.566,1.509-2.324
	c3.398-3.67,6.495-7.136,9.499-10.635c0.603-0.7,1.2-1.401,1.798-2.105c1.916-2.548,3.814-4.971,5.796-7.226
	c0.495-0.564,0.995-1.117,1.498-1.667c5.907-8.066,13.36-12.725,22.153-17.198c0.794-0.349,1.61-0.657,2.456-0.917
	c0.968-0.339,1.961-0.634,2.966-0.907c3.014-0.812,6.125-1.422,9.253-1.935c0.973-0.188,1.95-0.377,2.928-0.569
	c1.468-0.289,2.938-0.582,4.405-0.882c1.467-0.3,2.931-0.607,4.385-0.922c0.953-0.337,1.914-0.64,2.88-0.913
	c0.965-0.273,1.935-0.515,2.906-0.734c5.603-1.034,11.196-1.782,16.716-1.836c0.919-0.009,1.836,0.001,2.752,0.031
	c9.434,1.014,19.682,1.946,28.517,6.411c0.88,0.4,1.743,0.821,2.591,1.262s1.678,0.902,2.491,1.383
	c0.813,0.48,1.608,0.981,2.387,1.504c4.192,3.216,8.888,5.508,13.256,8.392c0.729,0.48,1.449,0.978,2.164,1.498
	c2.778,1.906,5.46,3.798,7.971,5.812c0.628,0.503,1.246,1.014,1.852,1.534c6.899,6.758,12.489,14.211,18.07,21.219
	c0.47,0.683,0.914,1.383,1.325,2.108c0.389,0.802,0.746,1.625,1.083,2.456c2.024,4.982,3.351,10.247,4.989,15.024
	c0.213,0.851,0.416,1.704,0.617,2.559c0.803,3.42,1.582,6.875,2.385,10.398c0.376,2.01,0.693,4.03,0.948,6.069
	c0.51,4.078,0.772,8.234,0.772,12.451"/>
<path fill="#FBA105" d="M442.449,162.583c7.457-6.535,22.127-14.962,38.764-0.774c2.97,2.533,4.34,6.477,3.536,10.296
	c-3.263,15.493-12.645,57.061-19.093,55.543c-6.306-1.482-20.586-38.408-26.143-53.393
	C437.983,170.129,439.139,165.484,442.449,162.583z"/>
<path fill="#FBA105" d="M494.162,166.934c8.284-0.758,23.145,0.843,30.465,19.843c1.281,3.327,0.359,7.101-2.244,9.537
	c-11.859,11.098-45.724,42.053-47.643,35.528c-1.934-6.57,7.519-44.568,11.725-58.649
	C487.502,169.723,490.557,167.264,494.162,166.934z"/>
<path fill="#FBA105" d="M532.934,199.303c7.7,4.194,23.371,15.351,15.453,33.638c-1.304,3.012-4.21,5.121-7.602,5.508
	c-15.463,1.766-61.583,6.434-62.552-0.594c0,0,30.945-30.219,45.127-38.437C526.293,197.718,529.953,197.68,532.934,199.303z"/>
<path fill="#FBA105" d="M544.146,242.467c0,0,16.67,22.919-7.343,35.305c-2.692,1.39-5.921,1.473-8.731,0.312
	c-13.617-5.625-55.316-23.576-48.675-29.875C479.397,248.209,539.023,236.726,544.146,242.467z"/>
<path fill="#FBA105" d="M529.94,283.282c0,0,2.368,27.495-22.986,24.763c-3.677-0.396-6.943-2.414-8.919-5.375
	c-7.711-11.556-27.908-42.778-22.708-45.209C475.327,257.461,529.989,278.729,529.94,283.282z"/>
<path fill="#FBA105" d="M461.939,328.16c9.08,4.025,25.217,8.143,35.161-6.973c1.862-2.83,2.141-6.42,0.759-9.514
	c-5.86-13.131-23.017-50.602-28.011-50.76c-4.816-0.152-11.254,40.187-13.687,56.703C455.512,322.031,457.86,326.351,461.939,328.16
	z"/>
<path fill="#FBA105" d="M399.974,292.631c0,0,3.105,7.452,8.993,15.423c14.023,18.988,43.929,12.496,49.029-10.552
	c4.188-18.924,8.055-40.881,3.661-41.671C453.889,254.434,397.6,287.748,399.974,292.631z"/>
<path fill="#FBA105" d="M386.752,279.721c-5.082-8.189-10.413-20.407-5.56-30.6c2.005-4.211,6.266-6.895,10.923-7.136
	c15.246-0.789,56.377-2.083,60.73,6.626c0,0-7.217,16.045-49.557,35.933C397.348,287.335,390.213,285.299,386.752,279.721z"/>
<path fill="#FBA105" d="M384.589,232.958c-1.831-7.528-2.734-20.231,7.956-29.468c2.879-2.488,7.017-2.894,10.39-1.133
	c14.087,7.355,52.579,28.361,49.911,36.938c0,0-36.364,3.342-60.156,0.814C388.748,239.691,385.525,236.809,384.589,232.958z"/>
<path fill="#FBA105" d="M399.901,195.042c0,0,5.694-26.446,26.03-27.32c3.713-0.159,7.16,1.925,8.831,5.246
	c6.821,13.557,25.639,51.884,21.81,54.722C451.914,231.143,399.138,197.823,399.901,195.042z"/>
</svg>
