<svg version="1.1" id="Layer_1" xmlns="http://www.w3.org/2000/svg" xmlns:xlink="http://www.w3.org/1999/xlink" viewBox="0 0 768 430" enable-background="new 0 0 768 430" xml:space="preserve">
<path fill="#F44D8D" d="M499.417,301.159c-1.981-8.915-6.936-17.832-10.251-36.655c-3.317-18.822-1.637-73.31-0.151-97.086
	c1.486-23.776-8.42-32.692-12.384-38.636c-3.962-5.943,1.982-9.411,6.44-20.309c4.458-10.897,3.467-17.336-9.907-34.673
	s-62.412-24.767-62.412-24.767h-8.917c0,0-14.859-4.953-23.335-3.963c-8.477,0.99-21.741,13.87-25.703,20.31
	c-3.963,6.438-10.402,13.869-20.805,26.748c-10.402,12.878-11.888,28.729-0.99,45.571c10.897,16.841-0.496,18.823-5.45,25.261
	c-4.953,6.44-8.42,20.805-11.888,29.226c-3.467,8.42-12.878,29.225-12.878,29.225s-5.449,5.448-8.42,7.43
	c-2.972,1.982-35.665,48.544-35.665,48.544l2.477,4.458c0,0,33.683-46.562,37.646-50.524c3.963-3.963,4.458,2.971,2.972,5.943
	c-1.486,2.973-33.187,49.038-33.187,49.038v3.468l31.206-40.618c0,0-27.244,44.581-28.73,45.571
	c-1.486,0.991,2.972,2.973,2.972,2.973s19.318-27.739,23.776-32.197c4.459-4.458,11.888-18.822,12.879-30.215
	c0.99-11.394,5.943-4.458,6.935-2.478c0.99,1.981-6.935,19.813-10.898,26.253c-3.962,6.439-21.3,29.721-24.272,35.664
	c-2.972,5.944,3.963,5.944,5.945,0.496c1.98-5.449,13.374-17.337,18.823-25.263c5.448-7.925,9.907-11.888,11.393-18.327
	s9.411-15.851,9.411-15.851s-3.468,11.888-3.963,17.832c-0.495,5.943-31.701,48.047-31.701,48.047l2.477,4.459
	c0,0,5.943-7.926,9.906-10.897c3.962-2.972,27.739-41.113,27.739-43.095s3.962-9.412,3.962-9.412s0.991,6.439,0,10.898
	c-0.99,4.458-34.177,51.515-35.664,53c-1.485,1.487,2.477,3.468,2.477,3.468l25.758-30.215c0,0-19.814,30.711-20.31,32.196
	c-0.495,1.486,2.477,2.973,2.477,2.973s3.468-1.486,6.935-10.897c3.467-9.412,27.739-37.646,27.739-37.646
	s-4.458,9.411-8.916,17.831c-4.458,8.422-14.86,33.188-15.851,35.17c-0.991,1.981,2.971,1.981,2.971,1.981s1.487-5.944,4.954-13.374
	c3.467-7.431,22.291-27.244,22.291-27.244s-15.852,40.618-15.852,43.59s3.962,1.486,3.962,1.486s4.459-19.813,8.421-28.234
	c3.963-8.421,20.309-35.169,21.764-41.608c1.455-6.439,0.527-12.384,0.031-18.823c-0.496-6.438,4.954-18.823,10.402-30.711
	c5.449-11.888,5.944-28.73,5.944-28.73s2.972,0.496,16.841,1.487c13.869,0.99,35.169-3.963,35.169-3.963s-1.981,7.925-5.449,13.374
	c-3.467,5.449-4.457,30.711-1.485,44.085c2.973,13.374-0.495,19.318-2.477,49.534c-1.982,30.215-15.851,82.226-15.851,82.226
	l3.962,2.478l16.842-70.339l2.972,0.496l-13.374,72.814l5.944,0.496c0,0,0,0,0-8.917c0-8.916,16.346-66.871,16.346-66.871h3.964
	c0,0-2.973,11.394-5.449,19.814c-2.477,8.42-6.935,57.954-6.935,57.954h5.448c0,0,0-18.328,1.486-26.748
	c1.485-8.421,13.566-52.011,13.566-52.011s0.303,10.897,0,20.309c-0.303,9.412-12.575,58.45-12.575,58.45l3.962-2.472l19.318-69.848
	l-10.705,69.848h4.266l10.401-52.511l-3.962,47.553l2.477,0.99l6.439-72.814l3.963,0.99c0,0,0.495,30.712,0.495,37.646
	c0,6.936-6.439,38.142-6.439,38.142s5.449,0.496,9.907-7.926c4.458-8.421,3.467-71.824,3.467-71.824l3.963,0.495l4.458,76.778h4.458
	C499.417,367.535,501.398,310.075,499.417,301.159z M434.032,135.716c-8.421,0.495-38.141,3.467-44.085-3.963
	c-5.944-7.43-11.12-17.842-5.944-20.804c0,0,10.401-8.421,25.261-4.458c14.86,3.963,25.759,11.394,27.74,17.337
	C438.985,129.773,442.453,135.221,434.032,135.716z"/>
</svg>
