<svg version="1.1" id="Layer_1" xmlns="http://www.w3.org/2000/svg" xmlns:xlink="http://www.w3.org/1999/xlink" viewBox="0 0 768 430" enable-background="new 0 0 768 430" xml:space="preserve">
<g>
	<path fill="#F3F1EB" d="M528.496,34.814h-7.027c-43.273,0-78.355,35.081-78.355,78.356v212.229c0,45.216,36.654,81.87,81.869,81.87
		h0.002c45.215,0,81.869-36.654,81.869-81.87V113.171C606.854,69.896,571.771,34.814,528.496,34.814z"/>
	<path fill="#74AF01" d="M497.693,191.526l62.771-149.912c-9.764-4.368-20.58-6.8-31.969-6.8h-7.027
		c-43.273,0-78.355,35.081-78.355,78.356v212.229C443.113,325.399,444.285,200.896,497.693,191.526z"/>
	<path fill="#588801" d="M497.693,191.526l62.543-149.365c-1.051-0.521-2.111-1.026-3.188-1.502
		c-89.289,10.891-96.395,94.473-84.758,167.375C479.066,199.405,487.41,193.331,497.693,191.526z"/>
	<g>
		<g>
			<polygon fill="#F3F1EB" points="477.887,212.923 474.619,214.528 452.684,165.776 			"/>
		</g>
	</g>
	<g>
		<path fill="#C1E36A" d="M481.35,178.423l-3.543,0.835c-3.539-17.672-10.77-34.733-21.188-49.747
			C468.01,143.8,476.514,160.54,481.35,178.423z"/>
	</g>
	<g>
		<path fill="#C1E36A" d="M482.232,128.363l-3.625,0.334c-0.852-15.886-6.162-31.698-15.334-45.109
			C473.42,96.277,480.107,111.914,482.232,128.363z"/>
	</g>
	<g>
		<path fill="#C1E36A" d="M492.982,94.64l-3.631,0.248c-0.23-12.294-3.924-24.695-10.709-35.354
			C486.42,69.492,491.492,81.75,492.982,94.64z"/>
	</g>
	<g>
		<path fill="#C1E36A" d="M506.178,73.226l-3.422-1.239c3.609-8.177,3.684-18.199-0.184-26.844
			C507.512,53.221,508.996,63.629,506.178,73.226z"/>
	</g>
	<g>
		<g>
			<path fill="#F3F1EB" d="M464.936,236.632l-3.479,1.075l-2.248-8.813c-0.756-2.939-1.482-5.872-2.318-8.762
				c-0.832-2.893-1.775-5.747-2.955-8.513c-0.58-1.388-1.25-2.734-1.965-4.062c-0.725-1.323-1.539-2.597-2.412-3.837
				c0.992,1.146,1.938,2.34,2.799,3.598c0.854,1.263,1.668,2.559,2.396,3.902c1.475,2.68,2.725,5.483,3.857,8.319
				c1.139,2.836,2.162,5.703,3.205,8.548L464.936,236.632z"/>
		</g>
	</g>
	<path fill="#95D100" d="M600.465,82.145c-4.045-9.371-9.867-17.795-17.041-24.848c-8.299-8.158-18.402-14.484-29.66-18.317
		c-159.787,33.82-28.781,282.789-28.781,282.789c40.76-104.123,39.355-266.223,39.355-266.223l21.434,129.656
		c8.402,79.362,16.186,103.213,21.082,110.487V113.171C606.854,102.148,604.572,91.659,600.465,82.145z"/>
	<g>
		<g>
			<path fill="#F3F1EB" d="M535.797,307.586l-4.049,1.279c-3.15-11.14-6.332-22.231-10.666-32.904
				c-2.168-5.331-4.627-10.55-7.516-15.54c-2.887-4.988-6.209-9.746-10.041-14.097c4.09,4.108,7.725,8.684,10.941,13.537
				c3.223,4.854,6.033,9.981,8.557,15.24C528.068,285.629,531.969,296.647,535.797,307.586z"/>
		</g>
	</g>
	<g>
		<g>
			<path fill="#F3F1EB" d="M556.607,272.528l-3.582,2.282l-24.824-40.935l-6.205-10.232c-2.068-3.409-4.148-6.804-6.342-10.12
				c-2.188-3.322-4.508-6.555-7.025-9.635c-2.516-3.08-5.275-5.968-8.277-8.596c3.115,2.492,6.014,5.267,8.68,8.25
				c2.668,2.982,5.148,6.133,7.494,9.375c2.355,3.236,4.594,6.552,6.812,9.869l6.654,9.947L556.607,272.528z"/>
		</g>
	</g>
	<g>
		<g>
			<path fill="#F3F1EB" d="M557.234,233.873l-3.777,1.939c-14.65-30.082-33.867-58.06-56.854-82.665
				C520.605,176.766,541.131,204.059,557.234,233.873z"/>
		</g>
	</g>
	<g>
		<g>
			<path fill="#F3F1EB" d="M563.969,195.748l-3.684,2.112c-17.105-31.248-38.672-60.168-63.904-85.598
				C522.598,136.676,545.438,164.856,563.969,195.748z"/>
		</g>
	</g>
	<g>
		<g>
			<path fill="#F3F1EB" d="M567.842,152.044l-3.598,2.257c-1.824-3.085-3.111-6.303-4.387-9.399
				c-0.625-1.555-1.305-3.056-1.971-4.58c-0.322-0.765-0.684-1.513-1.043-2.261l-1.074-2.249
				c-2.945-5.958-6.357-11.698-10.156-17.186c-0.926-1.389-1.941-2.714-2.924-4.063c-0.486-0.681-1.01-1.33-1.525-1.988
				l-1.547-1.973l-1.605-1.928l-0.805-0.962c-0.266-0.323-0.537-0.642-0.818-0.951l-1.67-1.875l-0.836-0.937l-0.863-0.911
				c-4.586-4.884-9.529-9.448-14.795-13.634c5.477,3.902,10.676,8.216,15.549,12.888l0.92,0.872l0.891,0.898l1.783,1.801
				c0.301,0.298,0.592,0.604,0.875,0.915l0.863,0.929l1.725,1.86l1.668,1.911c0.555,0.639,1.121,1.269,1.648,1.931
				c1.066,1.313,2.166,2.604,3.18,3.961c4.145,5.361,7.928,11.021,11.26,16.954l1.221,2.242c0.408,0.746,0.816,1.493,1.189,2.258
				c0.762,1.521,1.549,3.044,2.26,4.574C564.697,146.445,566.092,149.421,567.842,152.044z"/>
		</g>
	</g>
	<g>
		<g>
			<path fill="#F3F1EB" d="M570.096,115.836l-3.721,2.047c-8.615-17.127-19.24-33.335-31.627-48.18
				C548.188,83.602,560.084,99.105,570.096,115.836z"/>
		</g>
	</g>
	<g>
		<g>
			<path fill="#F3F1EB" d="M571.945,132.342l-4.115-1.052c1.244-4.148,2.504-8.348,4.066-12.469
				c1.561-4.116,3.438-8.163,5.871-11.873c2.438-3.714,5.467-7.034,9.029-9.633c3.547-2.594,7.686-4.428,12-4.934
				c-4.258,0.86-8.129,2.99-11.342,5.767c-3.225,2.783-5.852,6.194-7.867,9.892c-2.023,3.717-3.492,7.707-4.67,11.791
				C573.738,123.92,572.844,128.108,571.945,132.342z"/>
		</g>
	</g>
	<g>
		<g>
			<path fill="#F3F1EB" d="M577.318,154.453l-4.213,0.538c-0.408-4.563,0.449-9.08,2.061-13.154
				c1.617-4.088,3.959-7.79,6.734-11.062c2.775-3.266,5.941-6.116,9.246-8.724c3.309-2.61,6.762-4.988,10.213-7.361
				c-3.238,2.656-6.479,5.317-9.521,8.167c-3.039,2.845-5.883,5.888-8.264,9.226c-2.371,3.324-4.254,6.98-5.4,10.803
				C577.025,146.699,576.652,150.692,577.318,154.453z"/>
		</g>
	</g>
	<g>
		<g>
			<path fill="#F3F1EB" d="M579.664,179.176l-3.787-1.92c6.334-10.932,14.842-20.415,24.758-27.767
				C591.627,157.928,584.473,168.123,579.664,179.176z"/>
		</g>
	</g>
	<g>
		<g>
			<path fill="#F3F1EB" d="M581.754,215.735l-2.916-3.088c1.053-0.87,1.98-2.136,2.871-3.555c0.896-1.404,1.729-2.876,2.533-4.381
				c1.611-3.01,3.111-6.159,4.852-9.214c0.871-1.525,1.805-3.027,2.838-4.461c1.031-1.435,2.156-2.793,3.352-4.072
				c2.389-2.564,5.055-4.818,7.85-6.858c-2.572,2.314-4.973,4.812-7.039,7.542c-1.033,1.363-1.98,2.782-2.824,4.252
				c-0.846,1.471-1.59,2.998-2.279,4.557c-1.379,3.119-2.535,6.361-3.865,9.609c-0.666,1.624-1.375,3.25-2.182,4.855
				C584.148,212.511,583.217,214.217,581.754,215.735z"/>
		</g>
	</g>
	<g>
		<g>
			<g>
				<path fill="#F1ECEB" d="M498.574,376.762c-2.6-4.364-5.621-8.645-8.541-12.783l-0.072-0.104
					c-0.674-0.954-1.346-1.908-2.016-2.865c-3.658-5.24-7.436-10.941-10.301-17.131c-1.441-3.126-2.619-6.408-3.498-9.757
					c-0.816-3.101-1.432-6.383-1.877-10.033c-0.758-6.208-0.902-12.451-1.043-18.489l-0.027-1.187
					c-0.107-6.062-0.43-12.273-0.984-19.008c-0.24-2.976-0.512-6.003-0.773-8.931l-0.004-0.033
					c-0.301-3.362-0.613-6.84-0.881-10.278c-0.615-7.868-0.883-13.927-0.867-19.646c0.021-7.28,0.525-13.814,1.541-19.977
					l0.637-3.868l9.51,1.641l-0.682,3.849c-0.998,5.643-1.531,11.674-1.631,18.438c-0.08,5.458,0.109,11.288,0.615,18.903
					c0.225,3.393,0.492,6.844,0.752,10.18c0.232,2.979,0.471,6.033,0.678,9.05c0.488,6.926,0.744,13.322,0.781,19.55l0.014,1.135
					c0.066,5.848,0.135,11.894,0.773,17.694c0.361,3.271,0.869,6.192,1.557,8.933c0.723,2.891,1.701,5.725,2.908,8.424
					c2.529,5.639,6.01,11.019,9.395,15.992c0.672,0.983,1.348,1.969,2.025,2.953c2.959,4.3,6.02,8.746,8.721,13.405l1.492,2.573
					l-6.68,3.926L498.574,376.762z"/>
			</g>
			<g>
				<path fill="#F1ECEB" d="M534.906,384.58c-2.936-3.022-5.207-5.586-7.15-8.069c-1.176-1.489-2.264-3.004-3.23-4.49
					c-1.182-1.826-2.078-3.376-2.826-4.88c-0.854-1.704-1.604-3.463-2.223-5.215c-0.588-1.715-1.084-3.483-1.529-5.436
					c-0.383-1.66-0.711-3.335-1.027-4.954c-0.336-1.723-0.682-3.483-1.08-5.156c-0.689-2.892-1.654-5.958-2.951-9.372
					c-1.068-2.771-2.33-5.717-3.967-9.26l-4.393-9.367c-0.502-1.068-0.98-2.152-1.443-3.199l-0.041-0.092
					c-0.221-0.501-0.443-1.002-0.668-1.502c-0.643-1.41-1.246-2.854-1.828-4.25l-0.258-0.619
					c-10.832-25.928-17.453-53.418-19.68-81.705l-0.307-3.906l5.49-0.395l1.799,4.354c1.85,27.324,10.549,53.185,20.736,78.347
					l0.24,0.595c0.547,1.353,1.111,2.747,1.697,4.07c0.242,0.556,0.473,1.095,0.705,1.634c0.434,1.013,0.883,2.061,1.344,3.066
					l4.301,9.441c1.684,3.756,2.98,6.88,4.088,9.846c1.389,3.783,2.42,7.196,3.158,10.449c0.42,1.851,0.76,3.705,1.092,5.497
					c0.285,1.554,0.58,3.157,0.92,4.704c0.363,1.683,0.768,3.186,1.234,4.602c0.48,1.408,1.08,2.858,1.775,4.283
					c0.605,1.252,1.346,2.56,2.338,4.128c0.816,1.29,1.748,2.614,2.768,3.938c1.75,2.287,3.822,4.674,6.527,7.521l2.051,2.158
					l-5.588,5.368L534.906,384.58z"/>
			</g>
			<g>
				<path fill="#F1ECEB" d="M486.863,389.324c-0.648-2.188-1.797-4.453-3.414-6.733c-1.629-2.302-3.541-4.414-5.367-6.354
					c-0.504-0.537-1.008-1.067-1.51-1.599c-1.539-1.623-3.121-3.29-4.631-5.039c-0.984-1.126-1.986-2.381-2.969-3.718
					c-0.348-0.48-0.65-0.935-0.916-1.336c-0.137-0.206-0.275-0.412-0.414-0.617l-0.045-0.067c-0.318-0.493-0.596-0.966-0.842-1.384
					l-0.029-0.05c-0.117-0.197-0.232-0.396-0.352-0.591l-0.043-0.074c-2.951-5.213-5.02-11.309-6.15-18.12
					c-0.93-5.587-1.246-11.659-0.967-18.564c0.207-5.265,0.705-10.528,1.189-15.617c0.613-6.455,1.246-13.12,1.246-19.592
					c0.02-5.765-0.332-11.52-1.041-17.115c-0.721-5.654-1.812-11.311-3.248-16.809l-0.986-3.784l9.352-2.388l0.941,3.806
					c1.461,5.91,2.555,11.984,3.25,18.054c0.682,6.003,0.979,12.163,0.879,18.313c-0.092,6.919-0.834,13.792-1.551,20.438
					c-0.537,4.972-1.09,10.097-1.35,15.093c-0.336,6.311-0.125,11.814,0.645,16.83c0.893,5.837,2.559,11.012,4.951,15.385
					c0.121,0.203,0.248,0.428,0.377,0.653c0.215,0.376,0.418,0.732,0.625,1.063c0.127,0.19,0.262,0.399,0.396,0.608l0.02,0.03
					c0.244,0.377,0.475,0.732,0.703,1.057c0.816,1.143,1.66,2.228,2.496,3.209c1.383,1.644,2.881,3.264,4.33,4.831
					c0.51,0.552,1.014,1.098,1.516,1.646c1.992,2.174,4.096,4.562,5.967,7.278c2.076,3.01,3.562,6.07,4.416,9.094l0.809,2.863
					l-7.439,2.149L486.863,389.324z"/>
			</g>
			<g>
				<path fill="#F1ECEB" d="M514.807,380.098c-1.67-2.17-3.395-4.414-5.004-6.797c-1.826-2.684-3.26-5.22-4.377-7.745
					c-0.627-1.44-1.156-2.901-1.578-4.357c-0.404-1.431-0.729-2.94-0.975-4.508c-0.359-2.293-0.555-4.571-0.742-6.774l-0.01-0.133
					c-0.043-0.504-0.086-1.008-0.133-1.511c-0.045-0.57-0.115-1.14-0.184-1.689l-0.273-2.257c-0.045-0.352-0.088-0.728-0.133-1.104
					c-0.107-0.914-0.219-1.848-0.379-2.69l-0.703-4.169c-0.057-0.383-0.145-0.787-0.236-1.216l-0.555-2.628
					c-0.359-1.843-0.834-3.731-1.293-5.559c-0.188-0.747-0.373-1.483-0.553-2.22c-0.203-0.784-0.438-1.609-0.664-2.408l-0.031-0.113
					c-0.125-0.442-0.25-0.884-0.373-1.326l-0.549-1.954c-0.109-0.396-0.242-0.822-0.35-1.164l-0.01-0.035
					c-0.072-0.23-0.143-0.461-0.213-0.691l-1.188-3.866l-1.258-3.853c-0.559-1.742-1.164-3.503-1.752-5.206l-0.021-0.063
					c-0.279-0.811-0.557-1.622-0.832-2.434l-5.426-15.449c-3.016-8.593-6.822-19.988-9.531-31.934l-0.871-3.84l9.443-2.022
					l0.809,3.813c2.443,11.513,5.988,22.623,8.803,31.017l5.229,15.577c0.27,0.832,0.539,1.654,0.811,2.476
					c0.576,1.754,1.172,3.567,1.734,5.405l1.229,3.953l1.158,3.957c0.068,0.243,0.133,0.464,0.199,0.684
					c0.125,0.423,0.268,0.902,0.396,1.396l0.523,1.969c0.123,0.475,0.246,0.93,0.369,1.385l0.014,0.056
					c0.229,0.848,0.463,1.724,0.68,2.612l0.01,0.043c0.162,0.708,0.326,1.404,0.492,2.099l0.021,0.097
					c0.461,1.943,0.936,3.945,1.305,5.991l0.389,1.978c0.035,0.184,0.068,0.344,0.1,0.504l0.012,0.057
					c0.102,0.506,0.213,1.066,0.295,1.66l0.615,3.989c0.191,1.1,0.309,2.218,0.41,3.206l0.01,0.091
					c0.033,0.321,0.066,0.644,0.104,0.966l0.246,2.299c0.064,0.597,0.139,1.277,0.184,1.967c0.037,0.471,0.072,0.977,0.109,1.483
					l0.012,0.165c0.146,2.069,0.299,4.203,0.586,6.213c0.18,1.258,0.418,2.45,0.711,3.548c0.303,1.101,0.697,2.235,1.166,3.353
					c0.883,2.074,2.059,4.215,3.584,6.527c1.455,2.218,3.074,4.385,4.641,6.48l1.779,2.382l-6.17,4.676L514.807,380.098z"/>
			</g>
			<g>
				<path fill="#F1ECEB" d="M522.113,355.542l1.934-2.269c2.684-3.146,5.193-6.797,7.461-10.851
					c1.965-3.568,3.828-7.558,5.686-12.181c1.76-4.422,3.355-9.012,4.682-12.917l0.018-0.046c1.449-4.293,2.957-8.754,4.391-13.146
					c2.508-7.716,5.33-16.894,7.242-26.436c1.633-8.086,2.598-16.926,2.947-27.028c0.328-9.297,0.133-18.814-0.055-28.019
					c-0.188-9.098-0.379-18.493-0.08-27.807c0.348-10.728,1.336-20.039,3.023-28.467c0.162-0.887,0.357-1.753,0.547-2.59
					c0.07-0.312,0.141-0.625,0.209-0.937c0.266-1.228,0.576-2.452,0.848-3.531c0.127-0.502,0.256-1.002,0.383-1.501
					c0.432-1.69,0.877-3.438,1.26-5.146c0.381-1.73,0.848-4.012,1.045-6.264c0.189-2.108,0.154-4.079-0.1-5.86l-0.549-3.851
					l9.535-1.363l0.523,3.887c0.34,2.519,0.371,5.234,0.096,8.072c-0.27,2.797-0.836,5.465-1.299,7.477
					c-0.424,1.835-0.9,3.64-1.361,5.385c-0.139,0.523-0.27,1.019-0.398,1.514c-0.262,1-0.559,2.136-0.807,3.238
					c-0.076,0.336-0.152,0.663-0.23,0.989c-0.178,0.761-0.359,1.536-0.498,2.265l-0.01,0.054
					c-1.656,7.929-2.662,16.748-3.076,26.962c-0.365,9.045-0.25,18.316-0.141,27.283c0.115,9.338,0.234,18.991-0.18,28.549
					c-0.453,10.576-1.545,19.864-3.342,28.393c-2.076,9.943-5.064,19.389-7.711,27.315c-1.488,4.435-3.035,8.893-4.531,13.205
					l-0.016,0.043c-1.395,3.999-3.072,8.698-4.939,13.282c-2.025,4.921-4.059,9.183-6.225,13.037
					c-2.562,4.498-5.402,8.553-8.447,12.064l-1.951,2.252L522.113,355.542z"/>
			</g>
			<g>
				<path fill="#F1ECEB" d="M541.307,373.23c-0.906,0-1.803-0.247-2.666-0.734c-1.158-0.669-2.113-1.678-2.713-2.854l-0.088-0.174
					l-0.068-0.175c-0.535-1.376-0.869-2.868-0.994-4.44c-0.205-2.626,0.186-5.415,1.162-8.293c0.742-2.209,1.822-4.417,3.396-6.944
					c0.83-1.339,1.709-2.632,2.561-3.883c0.439-0.647,0.865-1.274,1.285-1.906c0.691-1.044,1.232-1.901,1.697-2.698
					c0.223-0.385,0.484-0.84,0.705-1.279l0.107-0.205c0.225-0.435,0.414-0.798,0.57-1.147l0.025-0.06
					c0.828-1.763,1.561-3.685,2.238-5.875c1.049-3.392,1.836-7.006,2.6-10.502c0.18-0.83,0.357-1.646,0.539-2.461
					c1.939-9.127,4.986-17.806,8.199-26.632l0.799-2.196c2.779-7.615,5.646-15.476,7.609-23.337
					c2.047-8.12,3.354-16.696,3.996-26.225c0.545-8.056,0.619-16.589,0.23-26.857c-0.336-8.912-0.984-17.996-1.613-26.78
					c-0.65-9.094-1.322-18.497-1.658-27.823l-0.141-3.905l9.629-0.306l0.109,3.904c0.252,9.128,0.84,18.444,1.408,27.454
					l-2.984,0.228l2.986-0.188c0.561,8.865,1.139,18.033,1.406,27.109c0.312,10.602,0.16,19.436-0.475,27.804
					c-0.764,10.054-2.227,19.126-4.473,27.737c-2.143,8.285-5.15,16.318-8.057,24.087l-0.832,2.225
					c-3.178,8.507-6.189,16.857-8.1,25.488c-0.193,0.84-0.377,1.646-0.561,2.454c-0.83,3.661-1.686,7.439-2.869,11.154
					c-0.807,2.538-1.684,4.781-2.68,6.857c-0.25,0.549-0.529,1.075-0.775,1.54l-0.076,0.142c-0.324,0.63-0.672,1.226-0.939,1.676
					c-0.557,0.934-1.182,1.91-1.967,3.074c-0.443,0.654-0.893,1.303-1.34,1.952l-2.49-1.664l2.463,1.703
					c-0.811,1.17-1.646,2.38-2.398,3.567c-1.26,1.985-2.104,3.66-2.662,5.275c-0.65,1.867-0.924,3.598-0.816,5.154
					c0.041,0.574,0.133,1.117,0.271,1.621l4,2.257l-1.762,3.157l-0.281,0.315c-0.146,0.167-0.285,0.309-0.428,0.44l-0.211,0.193
					l-0.23,0.156c-0.73,0.5-1.574,0.782-2.434,0.814C541.449,373.229,541.377,373.23,541.307,373.23z"/>
			</g>
			<g>
				<path fill="#F1ECEB" d="M549.357,374.91l2.307-1.887c6.51-5.327,12.545-11.066,17.934-17.059
					c1.477-1.68,2.572-3.111,3.449-4.505c0.936-1.469,1.682-3.081,2.229-4.808c1.197-3.844,1.387-8.089,1.416-11.357
					c0.012-5.619-0.178-11.397-0.359-16.986c-0.09-2.709-0.18-5.495-0.248-8.261c-0.193-7.613-0.281-16.641,0.541-25.865
					c0.506-5.688,1.289-11.376,2.045-16.876c0.383-2.775,0.777-5.646,1.131-8.473c0.592-4.769,0.965-8.689,1.172-12.34
					c0.227-3.783,0.248-7.788,0.07-12.25c-0.145-3.587-0.436-7.524-0.92-12.393c-0.287-2.92-0.617-5.94-0.908-8.604l-0.031-0.286
					c-0.133-1.233-0.268-2.468-0.4-3.702c-0.881-8.217-1.672-17.048-1.492-25.939l0.078-3.919l7.225,0.706l0.76,3.508
					c-0.242,8.354,1.979,16.775,2.756,24.688c0.127,1.284,0.254,2.567,0.383,3.85l0.012,0.126c0.27,2.698,0.576,5.757,0.84,8.702
					c0.457,5.061,0.725,9.172,0.84,12.938c0.148,4.768,0.084,9.066-0.193,13.141c-0.256,3.842-0.682,7.949-1.344,12.916
					c-0.385,2.873-0.811,5.771-1.221,8.573c-0.793,5.405-1.611,10.982-2.146,16.444c-0.861,8.788-0.854,17.509-0.732,24.882
					c0.043,2.739,0.107,5.51,0.172,8.189c0.135,5.659,0.273,11.511,0.209,17.317c-0.07,3.855-0.352,8.878-1.912,13.738
					c-0.404,1.23-0.861,2.384-1.365,3.444c-0.498,1.061-1.086,2.117-1.795,3.221c-1.129,1.762-2.492,3.515-4.285,5.518l-0.021,0.023
					c-5.721,6.25-12.109,12.22-18.984,17.743l-2.324,1.866L549.357,374.91z"/>
			</g>
		</g>
	</g>
	<g>
		<g>
			<path fill="#F3F1EB" d="M588.824,240.188l-3.979-1.485c2.293-5.127,5.135-9.963,8.441-14.404c0.832-1.107,1.678-2.2,2.566-3.256
				c0.883-1.062,1.803-2.09,2.703-3.104c0.898-1.02,1.773-2.046,2.543-3.153c0.771-1.104,1.428-2.296,1.869-3.591
				c-0.27,1.34-0.775,2.641-1.414,3.865c-0.637,1.228-1.393,2.391-2.158,3.527c-0.773,1.137-1.535,2.252-2.256,3.394
				c-0.729,1.137-1.41,2.302-2.072,3.474C592.439,230.152,590.344,235.105,588.824,240.188z"/>
		</g>
	</g>
	<g>
		<g>
			<path fill="#F3F1EB" d="M591.572,268.044l-2.92-3.085c5.871-4.58,11.111-10.152,15.422-16.492
				C601.004,255.49,596.789,262.132,591.572,268.044z"/>
		</g>
	</g>
	<g>
		<g>
			<g>
				<path fill="#E7EAEB" d="M501.145,375.23c-2.658-4.466-5.715-8.796-8.67-12.983c-0.693-0.983-1.387-1.967-2.076-2.953
					c-3.578-5.127-7.27-10.695-10.037-16.673c-1.367-2.965-2.484-6.08-3.32-9.26c-0.781-2.97-1.371-6.122-1.801-9.635
					c-0.738-6.062-0.883-12.23-1.021-18.196l-0.027-1.188c-0.109-6.106-0.434-12.38-0.994-19.183
					c-0.24-2.995-0.514-6.041-0.777-8.986c-0.301-3.354-0.611-6.822-0.879-10.244c-0.609-7.784-0.873-13.769-0.857-19.403
					c0.02-7.118,0.512-13.496,1.5-19.498l0.148-0.893l3.572,0.616l-0.156,0.889c-1.027,5.801-1.574,11.988-1.676,18.916
					c-0.082,5.54,0.109,11.444,0.621,19.146c0.225,3.402,0.494,6.865,0.756,10.214c0.229,2.955,0.467,6.012,0.674,9.023
					c0.484,6.863,0.738,13.197,0.773,19.361l0.014,1.152c0.068,5.919,0.139,12.04,0.793,17.986c0.375,3.407,0.908,6.461,1.629,9.334
					c0.766,3.059,1.801,6.059,3.078,8.917c2.625,5.854,6.191,11.368,9.652,16.454c0.676,0.99,1.355,1.979,2.035,2.966
					c2.926,4.254,5.953,8.652,8.596,13.21L501.145,375.23z"/>
			</g>
			<g>
				<path fill="#E7EAEB" d="M537.053,382.494c-2.859-2.943-5.064-5.431-6.939-7.828c-1.127-1.428-2.162-2.867-3.076-4.275
					c-1.117-1.725-1.961-3.18-2.656-4.581c-0.803-1.602-1.504-3.245-2.082-4.881c-0.545-1.589-1.012-3.256-1.434-5.104
					c-0.373-1.619-0.697-3.271-1.008-4.867c-0.34-1.736-0.691-3.533-1.105-5.271c-0.719-3.018-1.723-6.204-3.064-9.741
					c-1.098-2.845-2.385-5.85-4.049-9.453l-4.398-9.382c-0.494-1.05-0.969-2.126-1.43-3.167c-0.234-0.527-0.467-1.056-0.703-1.582
					c-0.631-1.383-1.225-2.805-1.797-4.18l-0.258-0.615c-10.709-25.637-17.256-52.816-19.457-80.788l-0.07-0.901l3.615-0.26
					l0.061,0.9c1.873,27.642,8.047,54.564,18.355,80.02l0.24,0.595c0.555,1.371,1.127,2.789,1.732,4.158
					c0.234,0.536,0.463,1.069,0.691,1.603c0.443,1.031,0.9,2.098,1.373,3.132l4.299,9.438c1.65,3.679,2.924,6.744,4.008,9.65
					c1.34,3.649,2.336,6.94,3.043,10.064c0.406,1.792,0.742,3.616,1.068,5.38c0.289,1.58,0.592,3.215,0.939,4.801
					c0.385,1.78,0.814,3.382,1.316,4.898c0.527,1.552,1.178,3.121,1.928,4.658c0.65,1.346,1.443,2.748,2.496,4.415
					c0.869,1.37,1.854,2.771,2.93,4.166c1.809,2.364,3.945,4.828,6.729,7.756L537.053,382.494z"/>
			</g>
			<g>
				<path fill="#E7EAEB" d="M489.732,388.475c-0.74-2.503-2.033-5.065-3.842-7.615c-1.732-2.448-3.729-4.654-5.629-6.674
					c-0.506-0.539-1.014-1.076-1.523-1.613c-1.508-1.589-3.066-3.232-4.533-4.93c-0.938-1.076-1.889-2.267-2.82-3.534
					c-0.295-0.407-0.57-0.821-0.836-1.221c-0.145-0.217-0.289-0.434-0.436-0.648c-0.281-0.438-0.535-0.867-0.777-1.281
					c-0.133-0.224-0.266-0.448-0.398-0.671c-2.783-4.914-4.73-10.672-5.803-17.136c-0.896-5.382-1.201-11.255-0.93-17.953
					c0.203-5.181,0.699-10.403,1.18-15.455c0.617-6.519,1.258-13.259,1.26-19.875c0.018-5.884-0.34-11.769-1.064-17.491
					c-0.738-5.783-1.855-11.565-3.322-17.188l-0.227-0.874l3.514-0.896l0.217,0.878c1.432,5.787,2.502,11.733,3.182,17.676
					c0.668,5.873,0.957,11.903,0.861,17.925c-0.09,6.79-0.826,13.597-1.535,20.178c-0.539,4.998-1.098,10.167-1.361,15.247
					c-0.348,6.514-0.127,12.218,0.674,17.438c0.947,6.199,2.734,11.72,5.309,16.409c0.119,0.203,0.25,0.432,0.381,0.659
					c0.238,0.417,0.463,0.812,0.705,1.2c0.135,0.199,0.277,0.423,0.422,0.645c0.26,0.402,0.506,0.781,0.768,1.154
					c0.875,1.223,1.771,2.377,2.664,3.424c1.414,1.682,2.938,3.33,4.41,4.924c0.504,0.543,1.006,1.088,1.506,1.635
					c1.922,2.096,3.943,4.389,5.711,6.955c1.891,2.742,3.238,5.504,4.002,8.21L489.732,388.475z"/>
			</g>
			<g>
				<path fill="#E7EAEB" d="M517.18,378.273c-1.643-2.135-3.34-4.342-4.896-6.647c-1.729-2.54-3.076-4.923-4.119-7.28
					c-0.572-1.311-1.057-2.648-1.443-3.981c-0.365-1.297-0.664-2.687-0.891-4.136c-0.344-2.191-0.533-4.418-0.717-6.57
					c-0.047-0.553-0.094-1.104-0.143-1.654c-0.049-0.596-0.123-1.2-0.193-1.785l-0.273-2.253c-0.047-0.36-0.09-0.726-0.133-1.093
					c-0.113-0.959-0.23-1.95-0.41-2.9l-0.684-4.053c-0.07-0.473-0.168-0.924-0.27-1.401c-0.041-0.191-0.084-0.383-0.123-0.575
					l-0.422-1.995c-0.373-1.927-0.859-3.86-1.33-5.729c-0.186-0.735-0.371-1.47-0.549-2.206c-0.215-0.832-0.459-1.69-0.695-2.521
					c-0.131-0.465-0.264-0.93-0.393-1.396l-0.551-1.965c-0.115-0.416-0.246-0.838-0.373-1.246c-0.072-0.232-0.145-0.465-0.215-0.698
					l-1.201-3.907l-1.266-3.878c-0.566-1.765-1.18-3.548-1.773-5.272c-0.285-0.825-0.568-1.65-0.848-2.478l-5.432-15.465
					c-2.988-8.518-6.762-19.808-9.436-31.604l-0.201-0.887l3.547-0.76l0.188,0.88c2.475,11.661,6.053,22.878,8.893,31.348
					l5.219,15.548c0.271,0.837,0.543,1.662,0.814,2.487c0.574,1.747,1.168,3.553,1.717,5.347l1.217,3.917l1.158,3.957
					c0.066,0.235,0.135,0.465,0.201,0.693c0.127,0.424,0.256,0.862,0.371,1.305l0.527,1.981c0.123,0.47,0.248,0.934,0.373,1.398
					c0.227,0.847,0.461,1.722,0.674,2.593c0.172,0.749,0.346,1.484,0.52,2.219c0.451,1.907,0.92,3.88,1.275,5.855l0.395,2.002
					c0.037,0.193,0.074,0.381,0.111,0.568c0.098,0.487,0.199,0.99,0.268,1.505l0.625,4.045c0.176,1.001,0.283,2.032,0.387,3.029
					c0.037,0.361,0.074,0.723,0.115,1.084l0.244,2.28c0.066,0.602,0.133,1.225,0.174,1.848c0.043,0.549,0.082,1.105,0.121,1.662
					c0.152,2.117,0.307,4.307,0.609,6.424c0.195,1.372,0.459,2.683,0.781,3.895c0.344,1.245,0.781,2.506,1.297,3.738
					c0.963,2.258,2.221,4.556,3.85,7.02c1.498,2.285,3.145,4.491,4.738,6.624L517.18,378.273z"/>
			</g>
			<g>
				<path fill="#E7EAEB" d="M526.324,355.217c2.812-3.297,5.434-7.109,7.795-11.333c2.033-3.69,3.949-7.789,5.852-12.526
					c1.787-4.49,3.398-9.127,4.738-13.068l0.01-0.027c1.461-4.322,2.971-8.793,4.41-13.199c2.535-7.801,5.389-17.083,7.33-26.777
					c1.666-8.244,2.65-17.243,3.006-27.512c0.33-9.384,0.133-18.947-0.055-28.197c-0.186-9.048-0.377-18.403-0.08-27.637
					c0.342-10.569,1.312-19.729,2.971-28c0.15-0.831,0.342-1.676,0.527-2.492c0.072-0.319,0.145-0.639,0.213-0.957
					c0.258-1.184,0.561-2.382,0.826-3.438c0.127-0.499,0.254-0.996,0.381-1.493c0.438-1.718,0.891-3.495,1.279-5.235
					c0.404-1.822,0.895-4.226,1.107-6.653c0.209-2.335,0.168-4.537-0.119-6.545l-0.127-0.889l3.588-0.513l0.121,0.897
					c0.307,2.289,0.336,4.772,0.08,7.382c-0.252,2.628-0.793,5.173-1.234,7.096c-0.416,1.796-0.889,3.587-1.346,5.318
					c-0.133,0.498-0.264,0.995-0.393,1.492c-0.27,1.026-0.572,2.188-0.832,3.34c-0.072,0.322-0.148,0.642-0.223,0.962
					c-0.186,0.784-0.375,1.596-0.525,2.392c-1.691,8.096-2.717,17.069-3.137,27.452c-0.369,9.124-0.254,18.438-0.143,27.443
					c0.113,9.295,0.232,18.907-0.178,28.381c-0.445,10.411-1.518,19.539-3.281,27.904c-2.045,9.8-5,19.141-7.621,26.984
					c-1.477,4.404-3.023,8.861-4.52,13.172l-0.016,0.044c-1.381,3.955-3.039,8.606-4.883,13.134c-1.975,4.8-3.957,8.953-6.062,12.7
					c-2.459,4.314-5.182,8.205-8.1,11.569L526.324,355.217z"/>
			</g>
			<g>
				<path fill="#E7EAEB" d="M541.307,370.238c-0.389,0-0.779-0.114-1.193-0.349c-0.643-0.37-1.18-0.939-1.518-1.605l-0.021-0.04
					l-0.016-0.042c-0.428-1.098-0.695-2.304-0.797-3.585c-0.174-2.217,0.168-4.604,1.012-7.096c0.67-1.989,1.656-3.999,3.104-6.322
					c0.799-1.29,1.66-2.557,2.494-3.783c0.438-0.644,0.875-1.286,1.305-1.934c0.725-1.093,1.293-1.996,1.787-2.845
					c0.248-0.424,0.535-0.928,0.795-1.442l0.088-0.168c0.234-0.451,0.457-0.877,0.65-1.317c0.891-1.894,1.67-3.937,2.389-6.263
					c1.088-3.518,1.891-7.199,2.666-10.76c0.178-0.813,0.354-1.626,0.535-2.438c1.906-8.966,4.914-17.536,8.09-26.257l0.799-2.195
					c2.803-7.679,5.699-15.618,7.701-23.637c2.09-8.291,3.424-17.04,4.078-26.749c0.553-8.162,0.627-16.796,0.236-27.172
					c-0.34-8.96-0.99-18.07-1.619-26.881c-0.648-9.07-1.318-18.449-1.654-27.718l-0.031-0.9l3.621-0.115l0.025,0.901
					c0.254,9.186,0.844,18.534,1.414,27.574c0.559,8.85,1.137,17.999,1.402,27.032c0.309,10.492,0.16,19.227-0.469,27.488
					c-0.748,9.874-2.182,18.774-4.383,27.209c-2.104,8.138-5.084,16.097-7.965,23.794L565,294.85
					c-3.217,8.61-6.266,17.068-8.217,25.889c-0.189,0.818-0.373,1.629-0.557,2.439c-0.814,3.595-1.658,7.312-2.803,10.909
					c-0.77,2.415-1.6,4.54-2.539,6.498c-0.215,0.474-0.467,0.946-0.709,1.402l-0.084,0.159c-0.285,0.555-0.596,1.087-0.861,1.533
					c-0.523,0.881-1.119,1.812-1.873,2.928c-0.439,0.65-0.887,1.296-1.332,1.94c-0.832,1.203-1.693,2.447-2.482,3.696
					c-1.385,2.182-2.326,4.055-2.963,5.896c-0.781,2.245-1.107,4.378-0.971,6.339c0.076,1.084,0.289,2.101,0.633,3.022
					c0.18,0.342,0.453,0.632,0.775,0.821c0.094,0.053,0.162,0.082,0.213,0.097l0.004-0.01l0.033,0.02
					c0.023,0.005,0.039,0.005,0.049,0.005l0.039-0.001c-0.025,0.001-0.049,0.004-0.066,0.008l1.51,0.852l-0.15,0.271l-0.064,0.072
					c-0.068,0.077-0.139,0.153-0.215,0.222l-0.047,0.043l-0.053,0.036c-0.275,0.188-0.566,0.289-0.867,0.299
					C541.371,370.236,541.338,370.238,541.307,370.238z"/>
			</g>
			<g>
				<path fill="#E7EAEB" d="M553.559,375.34c6.633-5.427,12.781-11.275,18.275-17.386c1.588-1.805,2.781-3.364,3.746-4.9
					c1.068-1.675,1.924-3.524,2.549-5.5c1.318-4.228,1.523-8.758,1.555-12.23c0.014-5.698-0.178-11.508-0.361-17.128
					c-0.088-2.693-0.18-5.479-0.246-8.222c-0.191-7.529-0.277-16.45,0.531-25.525c0.498-5.612,1.277-11.267,2.029-16.734
					c0.383-2.79,0.779-5.675,1.133-8.51c0.602-4.835,0.98-8.819,1.191-12.539c0.232-3.879,0.254-7.98,0.072-12.54
					c-0.145-3.647-0.441-7.641-0.932-12.569c-0.283-2.876-0.602-5.803-0.91-8.634c-0.145-1.326-0.289-2.652-0.432-3.98
					c-0.871-8.121-1.652-16.839-1.477-25.562l0.018-0.904l3.623,0.1l-0.025,0.899c-0.25,8.521,0.445,17.109,1.232,25.121
					c0.131,1.327,0.262,2.652,0.395,3.979c0.283,2.84,0.578,5.776,0.838,8.673c0.451,5.001,0.715,9.057,0.828,12.763
					c0.146,4.667,0.084,8.868-0.188,12.844c-0.25,3.78-0.672,7.823-1.324,12.726c-0.383,2.854-0.807,5.745-1.217,8.541
					c-0.797,5.43-1.619,11.045-2.162,16.579c-0.877,8.938-0.869,17.766-0.748,25.223c0.043,2.736,0.109,5.52,0.174,8.212
					c0.135,5.636,0.273,11.464,0.209,17.213c-0.066,3.631-0.328,8.366-1.77,12.855c-0.361,1.097-0.771,2.131-1.221,3.078
					c-0.445,0.948-0.971,1.894-1.609,2.888c-1.041,1.622-2.311,3.254-3.996,5.136c-5.619,6.141-11.893,12.002-18.65,17.43
					L553.559,375.34z"/>
			</g>
		</g>
	</g>
	<path fill="#E7EAEB" d="M527.037,370.391L527.037,370.391c-14.916,2.111-24.83,9.017-38.012,4.84
		c-10.682-3.385-24.256-5.271-32.65-12c-5.035-4.038-7.582-15.83-11.498-20.87c7.811,37.075,40.707,64.909,80.105,64.909h0.002
		c45.215,0,81.869-36.654,81.869-81.87v-20.648c-1.902,10.834-3.244,23.274-9.371,32.478c-7.723,11.602-21.348,19.331-34.232,26.459
		c-8.15,4.508-17.176,1.656-26.83,1.398C532.549,364.982,528.936,367.016,527.037,370.391z"/>
</g>
<g>
	<circle fill="#AEC39A" cx="268.92" cy="265.709" r="113.185"/>
	<circle fill="#A1B06E" cx="284.459" cy="255.544" r="113.185"/>
	<circle fill="#B8C961" cx="278.965" cy="265.709" r="113.185"/>
	<path fill="#C4D48B" d="M192.267,296.742c-12.612-61.226,26.797-121.081,88.021-133.693c15.998-3.296,31.901-3.037,46.894,0.231
		c-14.628-6.897-30.972-10.756-48.217-10.756c-62.511,0-113.185,50.674-113.185,113.185c0,54.279,38.208,99.633,89.196,110.637
		C223.838,361.681,199.746,333.048,192.267,296.742z"/>
	<path fill="#C9D689" d="M317.38,235.931c0,0,18.136-26.869,5.05-60.062c0,0,12.509,10.909,10.193,60.835
		C330.308,286.63,317.38,235.931,317.38,235.931z"/>
	<path fill="#97A464" d="M338.527,169.447c-0.17,11.045-1.396,22.364-3.771,33.778c-16.09,77.328-78.745,129.692-139.944,116.959
		c-6.284-1.308-12.308-3.252-18.042-5.77c18.206,38.132,57.124,64.479,102.197,64.479c62.511,0,113.185-50.674,113.185-113.185
		C392.15,225.053,370.713,189.404,338.527,169.447z"/>
	<path fill="#A5B87B" d="M391.693,255.482c0,0-21.903-42.927-53-42.228c0,0,25.741-8.231,52.353,36.59L391.693,255.482z"/>
	<path fill="#839358" d="M338.527,169.447c0,0-0.777,40.878-13.879,66.483c0,0,10.552,3.172,12.124-2.327
		s-2.097-10.565,0.698-13.186c2.796-2.621,4.893-9.435,4.893-11.88c0-2.446-1.057-18.519,1.043-21.663
		C345.507,183.73,338.527,169.447,338.527,169.447z"/>
	<g>
		<path fill="#C9D689" d="M250.644,230.593v-32.51l19.654-27.193l-19.654,24.991v-17.566l-2.902,51.16l-0.587,10.341l-23.415-28.959
			c0,0,19.222,26.871,23.197,32.807l-0.456,8.026l4.163-1.049v-14.856c5-8.353,16.422-32.641,16.422-32.641L250.644,230.593z
			 M250.033,196.222v0.437V196.222z"/>
		
			<line fill="none" stroke="#C9D689" stroke-width="0" stroke-linecap="round" stroke-linejoin="round" x1="250.033" y1="196.222" x2="250.033" y2="196.658"/>
	</g>
	<path fill="#C9D689" d="M307.073,176.917c0,0-8.786,16.986-11.347,21.25c-0.236,0.393-0.419,0.678-0.537,0.831v0.001
		c2.743-21.068-1.568-29.552-1.568-29.552c5.932,27.041-17.819,75.32-17.819,75.32h6.988c6.021-15.788,9.483-28.705,11.359-39.104
		l-0.004,0.024L307.073,176.917z"/>
	<path fill="#A5B87B" d="M343.696,298.113c-59.489,19.197-123.278-13.466-142.476-72.955c-3.875-12.008-5.636-24.189-5.491-36.146
		c-18.592,20.167-29.949,47.104-29.949,76.696c0,62.511,50.674,113.185,113.185,113.185c62.027,0,112.402-49.895,113.175-111.738
		C379.361,281.035,362.931,291.905,343.696,298.113z"/>
	<path fill="#9FAE6D" d="M402.811,287.868c12.051,62.431-32.12,67.252-74.737,86.401c-18.531,8.327-38.908,11.812-59.11,9.659
		c-38.377-4.087-68.593-24.298-74.568-53.686c-8.151-40.09,31.896-82.074,89.449-93.775
		C341.396,224.766,394.658,247.778,402.811,287.868z"/>
	<polygon fill="#C9D185" points="322.43,376.633 316.091,378.894 286.613,235.931 	"/>
	<path fill="#C9D185" d="M315.683,357.209c0,0,58.292-34.01,54.627-110.296c0,0,11.494,66.142-51.641,114.948L315.683,357.209z"/>
	<path fill="#C9D185" d="M304.521,318.53c0,0,59.504-19.497,45.795-79.97c0,0,18.688,52.961-43.226,84.622L304.521,318.53z"/>
	<path fill="#C9D185" d="M302.496,306.962c-10.614,1.115-56.032,2.645-66.436-51.018c0,0-1.239,51.97,68.183,56.018l0.271-3.007
		C304.618,307.804,303.646,306.841,302.496,306.962z"/>
	<path fill="#C9D185" d="M314.142,356.347c0,0-72.039-8.26-105.496-76.916c0,0,26.29,69.98,105.113,82.431L314.142,356.347z"/>
	<path fill="#C9D185" d="M296.677,275.468c0,0,23.857-13.479,24.201-41.864c0,0,4.865,22.855-23.688,43.881L296.677,275.468z"/>
	<path fill="#C9D185" d="M169.932,298.16c0,0,35.395-8.604,39.709-53.393c0,0,5.825,34.86-37.557,58.277L169.932,298.16z"/>
	<path fill="#C9D185" d="M168.099,242.81c0,0,15.494,7.181,33.122-17.651c0,0-7.211,23.482-34.1,23.085L168.099,242.81z"/>
	<path fill="#A5B87B" d="M201.22,225.158c0,0,33.002-76.776,123.428-62.398l-27.971-4.711c0,0-25.244-1.223-30.485,2.97
		c-5.241,4.193-23.41,8.561-25.506,9.784c-2.097,1.223-12.404,10.308-15.199,12.753c-2.795,2.445-12.476,10.482-15.584,14.675
		c-3.109,4.192-6.342,11.085-8.683,14.85C198.88,216.846,201.22,225.158,201.22,225.158z"/>
	<path fill="#A5B87B" d="M374.064,227.5c0,0,0.968-17.215-14.406-33.288c0,0,14.326,22.026,12.229,33.288H374.064z"/>
</g>
</svg>
