
<svg version="1.1" id="Layer_1" xmlns="http://www.w3.org/2000/svg" xmlns:xlink="http://www.w3.org/1999/xlink" viewBox="0 0 768 430" enable-background="new 0 0 768 430" xml:space="preserve">
<g>
	<path fill="#D4AAFF" d="M148.277,254.142l-12.82-77.834l65.725,19.32l-52.901,58.516l0,0L148.277,254.142z"/>
</g>
<g transform="rotate(.74818 279.74 356.39)">
	<path fill="#FFAAD4" d="M236.706,276.224l-22.229-75.688l67.589,11.15l-45.36,64.54L236.706,276.224z"/>
</g>
<g>
	<path fill="#AA56FF" d="M328.918,286.1l-30.237-72.858l68.396,3.819l-38.161,69.041L328.918,286.1z"/>
</g>
<g>
	<path fill="#FF56AA" d="M425.028,284.388L385.871,216.4l68.333-4.777l-29.177,72.77L425.028,284.388z"/>
</g>
<g>
	<path fill="#D4AAFF" d="M517.961,272.146l-47.756-62.785l67.124-13.683L517.961,272.146L517.961,272.146z"/>
</g>
<g transform="rotate(-.40082 917.67 302.67)">
	<path fill="#FFAAD4" d="M606.416,246.572l-54.385-57.138l65.205-21L606.416,246.572L606.416,246.572z"/>
</g>
<path fill="none" stroke="#000000" stroke-width="0.6292" d="M123.875,172.383c168.271,60.77,333.673,61.628,508.625-9.298"/>
</svg>
