
<svg version="1.1" id="Layer_1" xmlns="http://www.w3.org/2000/svg" xmlns:xlink="http://www.w3.org/1999/xlink" viewBox="0 0 768 430" enable-background="new 0 0 768 430" xml:space="preserve">
<g transform="translate(-7.67539,-6.68045)">
	
		<radialGradient id="SVGID_1_" cx="167.7633" cy="192.7644" r="23.1593" gradientTransform="matrix(0.936 1.2764 -0.9072 0.6653 290.7544 -105.5034)" gradientUnits="userSpaceOnUse">
		<stop  offset="0" style="stop-color:#595FBC"/>
		<stop  offset="1" style="stop-color:#2B306F"/>
	</radialGradient>
	<path fill="url(#SVGID_1_)" d="M303.166,242.838c-2.464-20.199-16.61-27.213-20.938-23.155c-5.027,4.713,8.867,13.795-1.232,15.766
		c-13.302-9.36-42.965-25.23-44.34-0.493c-1.525,27.444,25.619,38.921,41.876,34.979c17.296-4.192,23.647-1.97,23.647-1.97
		L303.166,242.838z"/>
	
		<radialGradient id="SVGID_2_" cx="403.3492" cy="632.6716" r="92.5409" gradientTransform="matrix(1.9669 -0.073 0.0682 1.8374 -452.1258 -869.4922)" gradientUnits="userSpaceOnUse">
		<stop  offset="0" style="stop-color:#F9F9F9"/>
		<stop  offset="0.6846" style="stop-color:#CDF3FB"/>
		<stop  offset="0.8423" style="stop-color:#AFD1D8"/>
		<stop  offset="1" style="stop-color:#CEEBF1"/>
	</radialGradient>
	<path fill="url(#SVGID_2_)" d="M554.755,302.211c0,72.726-59.652,112.869-132.378,112.869
		c-72.727,0-130.985-40.144-130.985-112.869c0-72.727,58.956-131.682,131.681-131.682
		C495.798,170.529,554.755,229.486,554.755,302.211z"/>
	
		<radialGradient id="SVGID_3_" cx="428.0689" cy="553.4216" r="52.3067" gradientTransform="matrix(1.6821 0.0188 -0.0148 1.3241 -309.0427 -616.6907)" gradientUnits="userSpaceOnUse">
		<stop  offset="0" style="stop-color:#F9F9F9"/>
		<stop  offset="0.6846" style="stop-color:#CDF3FB"/>
		<stop  offset="0.8423" style="stop-color:#AFD1D8"/>
		<stop  offset="1" style="stop-color:#CEEBF1"/>
	</radialGradient>
	<path fill="url(#SVGID_3_)" d="M493.443,130.815c0,40.788-22.268,65.571-73.854,66.19c-51.585,0.618-73.853-25.402-73.853-66.19
		s33.065-69.673,73.853-69.673C460.379,61.142,493.443,90.027,493.443,130.815z"/>
	
		<linearGradient id="SVGID_4_" gradientUnits="userSpaceOnUse" x1="173.8365" y1="199.7322" x2="176.9595" y2="214.3168" gradientTransform="matrix(1.4373 0 0 1.4373 105.6905 -166.9417)">
		<stop  offset="0" style="stop-color:#FFBC78"/>
		<stop  offset="1" style="stop-color:#FF6600"/>
	</linearGradient>
	<path fill="url(#SVGID_4_)" d="M390.382,108.665c-12.894-1.588-21.615,0.215-32.521,3.492c-5.356,1.608-13.801,5.785-19.163,7.379
		c-6.375,1.896-10.867,1.655-17.068,4.059c-1.786,0.692-3.389,1.611-8.232,5.325c3.161,2.825,8.929,2.257,13.057,3.467
		c8.791,2.578,11.128,3.506,20.087,5.421c8.503,1.818,15.807,3.521,24.445,4.522c7.589,0.878,14.132,5.498,20.542,1.344
		C403.407,137.975,403.478,113.707,390.382,108.665z"/>
	<path fill="#333333" d="M383.222,95.779c-0.997,4.353-4.287,7.886-7.35,7.89c-3.062,0.004-4.736-3.521-3.739-7.875
		c0.001-0.005,0.002-0.011,0.004-0.016c0.997-4.353,4.287-7.886,7.349-7.89c3.062-0.005,4.736,3.521,3.739,7.875
		C383.224,95.767,383.223,95.774,383.222,95.779z"/>
	<path fill="#333333" d="M412.288,96.517c-0.627,4.761-4.168,8.625-7.909,8.628c-3.742,0.003-6.267-3.854-5.64-8.616
		c0-0.003,0-0.008,0-0.013c0.627-4.761,4.168-8.625,7.91-8.628c3.741-0.003,6.268,3.854,5.641,8.615
		C412.29,96.509,412.289,96.512,412.288,96.517z"/>
	<path fill="#999999" d="M360.033,147.667c0.309,1.575-0.131,3.113-0.983,3.436c-0.852,0.323-1.794-0.692-2.103-2.268
		c-0.001-0.002-0.001-0.005-0.002-0.009c-0.31-1.575,0.131-3.113,0.983-3.436c0.853-0.323,1.794,0.694,2.104,2.268
		C360.032,147.661,360.033,147.664,360.033,147.667z"/>
	<path fill="#999999" d="M436.184,153.666c0,2.041-1.654,3.695-3.694,3.695s-3.695-1.654-3.695-3.695
		c0-2.041,1.655-3.695,3.695-3.695S436.184,151.625,436.184,153.666z"/>
	<path fill="#999999" d="M428.057,161.055c0,2.694-2.196,4.878-4.903,4.878c-2.708,0-4.905-2.185-4.905-4.878
		c0-2.695,2.197-4.879,4.905-4.879C425.861,156.176,428.057,158.36,428.057,161.055z"/>
	<path fill="#999999" d="M364.738,155.142c0.207,2.031-0.723,3.79-2.076,3.932c-1.354,0.142-2.618-1.39-2.824-3.42
		c-0.001-0.008-0.001-0.015-0.002-0.023c-0.207-2.03,0.723-3.791,2.076-3.931c1.353-0.141,2.618,1.39,2.824,3.419
		C364.736,155.127,364.737,155.135,364.738,155.142z"/>
	<path fill="#999999" d="M373.823,161.824c0.434,2.727-1.056,5.208-3.326,5.54c-2.271,0.333-4.463-1.608-4.896-4.336
		c-0.001-0.009-0.002-0.016-0.004-0.025c-0.433-2.727,1.056-5.207,3.327-5.54c2.271-0.333,4.463,1.609,4.896,4.336
		C373.82,161.808,373.821,161.817,373.823,161.824z"/>
	<path fill="#999999" d="M412.388,159.375c2.95,0.921,4.497,4.186,3.458,7.292c-1.041,3.107-4.276,4.879-7.226,3.958
		c-2.95-0.92-4.498-4.186-3.458-7.292C406.203,160.227,409.438,158.454,412.388,159.375L412.388,159.375z"/>
	<path fill="#999999" d="M441.467,146.273c0.003,1.557-1.147,2.824-2.568,2.826c-1.422,0.003-2.575-1.257-2.578-2.814
		c0-0.003,0-0.007,0-0.011c-0.003-1.557,1.147-2.822,2.567-2.825c1.422-0.003,2.576,1.256,2.579,2.814
		C441.467,146.266,441.467,146.27,441.467,146.273z"/>
	<path fill="#999999" d="M380.435,160.481c3.123-0.577,6.275,1.915,7.042,5.565c0.767,3.651-1.144,7.078-4.267,7.655
		c-0.003,0-0.005,0.001-0.008,0.002c-3.123,0.577-6.276-1.916-7.043-5.566c-0.766-3.651,1.145-7.077,4.267-7.655
		C380.429,160.482,380.432,160.481,380.435,160.481z"/>
	<path fill="#999999" d="M396.784,160.479c3.313,0.366,5.665,3.678,5.252,7.396c-0.412,3.718-3.433,6.436-6.746,6.068
		c-0.003,0-0.005,0-0.009-0.001c-3.313-0.366-5.665-3.678-5.252-7.396c0.412-3.718,3.432-6.436,6.746-6.069
		C396.777,160.478,396.781,160.479,396.784,160.479z"/>
	<path fill="#008000" d="M388.934,233.584c0,6.733-5.927,12.19-13.238,12.19s-13.238-5.457-13.238-12.19
		c0-6.735,5.927-12.193,13.238-12.193S388.934,226.848,388.934,233.584z"/>
	<path fill="#008000" d="M369.574,268.127c2.767,6.775-0.206,15.05-6.641,18.485c-6.434,3.433-13.893,0.726-16.66-6.048
		c-2.767-6.775,0.206-15.051,6.64-18.485C359.349,258.644,366.808,261.352,369.574,268.127z"/>
	<path fill="#008000" d="M367.4,317.537c0,6.77-4.864,12.256-10.863,12.256s-10.864-5.485-10.864-12.256
		c0-6.77,4.863-12.257,10.864-12.257C362.537,305.28,367.4,310.767,367.4,317.537z"/>
	<path fill="#008000" d="M377.957,353.069c0,5.288-4.288,9.577-9.577,9.577c-5.289,0-9.577-4.289-9.577-9.577
		c0-5.29,4.288-9.579,9.577-9.579C373.669,343.49,377.957,347.779,377.957,353.069z"/>
	
		<linearGradient id="SVGID_5_" gradientUnits="userSpaceOnUse" x1="191.4234" y1="275.1512" x2="213.4019" y2="254.3065" gradientTransform="matrix(1.4373 0 0 1.4373 105.6905 -166.9417)">
		<stop  offset="0" style="stop-color:#C83737"/>
		<stop  offset="0.5" style="stop-color:#E77C7C"/>
		<stop  offset="1" style="stop-color:#C83737"/>
	</linearGradient>
	<path fill="url(#SVGID_5_)" d="M402.172,266.957c15.618,6.594,27.139,8.536,32.442-0.828c3.385-20.144-2.293-32.03-12.237-48.422
		c-5.057-1.309-10.532-19.493-9.671-23.641s6.512-1.059,7.472-4.199c-0.315-5.534-8.218-11.844-14.896-11.949
		c-6.678-0.104-9.79,2.178-14.3,4.691c-5.733,3.195-15.203,6.302-18.06-0.908c-4.343-10.957-14.672-14.618-19.563-14.812
		c-0.326-0.013-0.615,0.031-0.914,0.087c-2.906,0.541-5.939,5.054-5.345,9.131c0.384,2.633-0.565,5.725-0.926,7.764
		c-0.508,2.877,1.512,6.542-4.787,7.077c-4.261-0.612-7.435,7.912-7.013,12.345c7.562,4.004,21.62-3.691,32.136-2.613
		c13.984,1.434,24.128,11.532,25.098,5.199c2.101-13.731,16.323-16.958,12.261-7.073
		C396.637,216.391,407.656,254.271,402.172,266.957L402.172,266.957z"/>
	
		<linearGradient id="SVGID_6_" gradientUnits="userSpaceOnUse" x1="161.7652" y1="258.282" x2="187.2017" y2="272.3401" gradientTransform="matrix(1.4373 0 0 1.4373 105.6905 -166.9417)">
		<stop  offset="0" style="stop-color:#AA0000"/>
		<stop  offset="0.5" style="stop-color:#840000"/>
		<stop  offset="1" style="stop-color:#AA0000"/>
	</linearGradient>
	<path fill="url(#SVGID_6_)" d="M393.323,181.501c-9.549-3.516-15.47-3.956-22.17-2.71c-8.376,1.557-11.801,12.342-14.533,22.663
		c-4.559,17.219-37.571,14.399-40.152,32.023c-1.186,8.096,7.105,18.749,15.272,19.214c17.622,1.004,28.015-22.521,37.442-37.443
		c4.189-6.63,4.94-17.534,9.853-23.647C382.918,186.771,393.323,181.501,393.323,181.501L393.323,181.501z"/>
	
		<linearGradient id="SVGID_7_" gradientUnits="userSpaceOnUse" x1="234.8658" y1="246.6346" x2="243.4964" y2="269.4174" gradientTransform="matrix(1.4373 0 0 1.4373 105.6905 -166.9417)">
		<stop  offset="0" style="stop-color:#AA0000"/>
		<stop  offset="0.5" style="stop-color:#840000"/>
		<stop  offset="1" style="stop-color:#AA0000"/>
	</linearGradient>
	<path fill="url(#SVGID_7_)" d="M402.191,189.137c5.944-2.871,13.172,2.909,19.707,1.971c21.22-3.046,44.65-8.786,59.61-24.14
		c1.959-2.01,2.279-8.345,5.046-7.882c14.778,2.466,3.327,13.08,4.001,19.851c0.919,9.211,18.003,12.107,16.343,20.617
		c-2.988,15.315-19.811,9.016-38.7,9.118c-7.357,0.04-25.211,17.479-33.49,16.977c-10.646-0.644-13.638-10.528-20.694-11.14
		c-11.564-1-16.245,3.764-24.14-9.607C387.095,200.196,397.269,191.515,402.191,189.137z"/>
	
		<radialGradient id="SVGID_8_" cx="307.9327" cy="-3.5256" r="47.9911" gradientTransform="matrix(0.2487 1.3237 -1.7701 0.3325 379.2746 -351.829)" gradientUnits="userSpaceOnUse">
		<stop  offset="0" style="stop-color:#F95252"/>
		<stop  offset="1" style="stop-color:#D40000"/>
	</radialGradient>
	<path fill="url(#SVGID_8_)" d="M397.991,38.846c36.928-18.114,92.666-18.812,105.902,9.755
		c13.238,28.565,18.812,46.681,19.509,64.099c0.735,18.379,12.542,34.836,12.542,34.836l-8.36,4.876c0,0-4.877,2.788-11.845-18.115
		c-9.044-27.132-14.632-22.295-14.632-22.295"/>
	<path fill="#F9F9F9" d="M545.542,168.864l-7.934-1.106l-4.472,6.387l-5.767-5.559l-7.372,2.539l-1.397-7.887l-7.456-2.279
		l3.505-7.203l-4.693-6.226l7.069-3.768l-0.137-7.796l7.934,1.107l4.471-6.388l5.768,5.559l7.372-2.539l1.398,7.887l7.456,2.279
		l-3.506,7.203l4.693,6.227l-7.069,3.768L545.542,168.864z"/>
	
		<radialGradient id="SVGID_9_" cx="222.878" cy="95.1751" r="49.3222" gradientTransform="matrix(2.1522 1.3868 -1.0059 1.5611 30.848 -393.2295)" gradientUnits="userSpaceOnUse">
		<stop  offset="0" style="stop-color:#FFFFFF"/>
		<stop  offset="0.6544" style="stop-color:#EAEAEA"/>
		<stop  offset="1" style="stop-color:#FFFFFF"/>
	</radialGradient>
	<path fill="url(#SVGID_9_)" d="M406.352,39.544c-11.147-6.967-22.295-8.361-22.295,0.697c0,9.058-8.361,9.057-9.754,13.238
		c-1.395,4.18-23.689,18.812,9.058,20.902c32.745,2.09,18.812-9.754,40.411,13.935c21.599,23.689,20.901,47.377,43.196,48.074
		c22.296,0.696,17.583,19.969,29.96,15.328c11.147-4.181,9.058-4.877,8.36-16.025c-0.696-11.147,2.091-9.057,2.091-13.238
		c0-4.18-5.241-4.209-19.509-32.746c-9.755-19.509-27.208-26.36-48.074-39.017C432.524,46.281,406.352,39.544,406.352,39.544z"/>
	
		<radialGradient id="SVGID_10_" cx="287.4835" cy="271.4617" r="17.3572" gradientTransform="matrix(1.4373 0 0 1.8998 105.6905 -254.6259)" gradientUnits="userSpaceOnUse">
		<stop  offset="0" style="stop-color:#595FBC"/>
		<stop  offset="1" style="stop-color:#2B306F"/>
	</radialGradient>
	<path fill="url(#SVGID_10_)" d="M529.875,268.942c0,0-7.722-1.717-10.432,7.397c-2.709,9.113,0.748,23.214,14.288,23.647
		c13.539,0.434,13.17-28.85,6.874-35.881c-6.295-7.03-14.8-0.924-18.205-9.445c-3.406-8.52-1.82-19.722-7.204-20.517
		c-5.383-0.794-6.408,2.827-8.987,12.811c-1.515,5.863-8.636,7.778-10.102,18.667c-1.468,10.89-6.531,30.917,25.552,27.962"/>
</g>
</svg>
