
<svg version="1.1" id="Layer_1" xmlns="http://www.w3.org/2000/svg" xmlns:xlink="http://www.w3.org/1999/xlink" viewBox="0 0 768 430" enable-background="new 0 0 768 430" xml:space="preserve">
<g transform="translate(-7.67539,-6.68045)">
	
		<radialGradient id="SVGID_1_" cx="103.5943" cy="253.2898" r="23.8872" gradientTransform="matrix(0.936 1.2764 0.9072 -0.6653 -61.7035 277.7884)" gradientUnits="userSpaceOnUse">
		<stop  offset="0" style="stop-color:#595FBC"/>
		<stop  offset="1" style="stop-color:#2B306F"/>
	</radialGradient>
	<path fill="url(#SVGID_1_)" d="M296.258,247.651c-2.541-20.834-17.132-28.068-21.596-23.883
		c-5.185,4.861,9.146,14.229-1.271,16.261c-13.72-9.654-44.315-26.023-45.733-0.508c-1.573,28.307,26.424,40.144,43.192,36.078
		c17.84-4.325,24.391-2.032,24.391-2.032L296.258,247.651z"/>
	
		<radialGradient id="SVGID_2_" cx="375.8727" cy="-153.0705" r="95.4502" gradientTransform="matrix(1.9669 -0.073 -0.0682 -1.8374 -369.7298 15.186)" gradientUnits="userSpaceOnUse">
		<stop  offset="0" style="stop-color:#F9F9F9"/>
		<stop  offset="0.6846" style="stop-color:#CDF3FB"/>
		<stop  offset="0.8423" style="stop-color:#AFD1D8"/>
		<stop  offset="1" style="stop-color:#CEEBF1"/>
	</radialGradient>
	<path fill="url(#SVGID_2_)" d="M555.755,308.89c0,75.012-61.527,116.417-136.539,116.417S284.115,383.902,284.115,308.89
		s60.809-135.82,135.82-135.82S555.755,233.879,555.755,308.89z"/>
	
		<radialGradient id="SVGID_3_" cx="395.4156" cy="-55.4778" r="53.9505" gradientTransform="matrix(1.6821 0.0188 0.0148 -1.3241 -265.2615 44.3335)" gradientUnits="userSpaceOnUse">
		<stop  offset="0" style="stop-color:#F9F9F9"/>
		<stop  offset="0.6846" style="stop-color:#CDF3FB"/>
		<stop  offset="0.8423" style="stop-color:#AFD1D8"/>
		<stop  offset="1" style="stop-color:#CEEBF1"/>
	</radialGradient>
	<path fill="url(#SVGID_3_)" d="M492.516,132.108c0,42.07-22.968,67.632-76.175,68.27c-53.206,0.638-76.174-26.2-76.174-68.27
		s34.104-71.863,76.174-71.863C458.412,60.245,492.516,90.038,492.516,132.108z"/>
	
		<linearGradient id="SVGID_4_" gradientUnits="userSpaceOnUse" x1="136.6114" y1="293.8357" x2="139.8324" y2="278.7934" gradientTransform="matrix(1.4373 0 0 -1.4373 153.9409 543.418)">
		<stop  offset="0" style="stop-color:#FFBC78"/>
		<stop  offset="1" style="stop-color:#FF6600"/>
	</linearGradient>
	<path fill="url(#SVGID_4_)" d="M386.216,109.262c-13.299-1.638-22.294,0.222-33.543,3.601c-5.525,1.659-14.235,5.967-19.765,7.611
		c-6.575,1.955-11.208,1.707-17.604,4.187c-1.842,0.714-3.496,1.661-8.491,5.492c3.26,2.913,9.21,2.328,13.467,3.576
		c9.067,2.659,11.478,3.616,20.718,5.592c8.771,1.875,16.304,3.632,25.214,4.664c7.827,0.906,14.576,5.671,21.188,1.386
		C399.65,139.493,399.723,114.462,386.216,109.262z"/>
	<path fill="#333333" d="M378.831,95.97c-1.028,4.49-4.422,8.134-7.581,8.138c-3.158,0.004-4.885-3.632-3.856-8.122
		c0.001-0.005,0.002-0.011,0.004-0.016c1.028-4.49,4.422-8.134,7.58-8.138c3.158-0.005,4.885,3.632,3.857,8.122
		C378.833,95.959,378.832,95.965,378.831,95.97z"/>
	<path fill="#333333" d="M408.81,96.732c-0.646,4.911-4.299,8.896-8.158,8.899s-6.464-3.975-5.817-8.886
		c0.001-0.004,0.001-0.009,0.001-0.014c0.646-4.911,4.299-8.896,8.158-8.899s6.465,3.975,5.818,8.886
		C408.812,96.723,408.811,96.727,408.81,96.732z"/>
	<path fill="#999999" d="M354.913,149.489c0.319,1.625-0.135,3.211-1.014,3.544c-0.879,0.333-1.851-0.714-2.169-2.339
		c-0.001-0.003-0.001-0.006-0.002-0.009c-0.319-1.625,0.135-3.211,1.014-3.544c0.879-0.333,1.851,0.715,2.17,2.339
		C354.912,149.483,354.913,149.486,354.913,149.489z"/>
	<path fill="#999999" d="M433.458,155.677c0,2.105-1.706,3.811-3.811,3.811s-3.812-1.706-3.812-3.811s1.707-3.811,3.812-3.811
		S433.458,153.572,433.458,155.677z"/>
	<path fill="#999999" d="M425.075,163.298c0,2.779-2.265,5.032-5.058,5.032s-5.058-2.253-5.058-5.032s2.265-5.032,5.058-5.032
		S425.075,160.519,425.075,163.298z"/>
	<path fill="#999999" d="M359.766,157.2c0.213,2.094-0.746,3.909-2.141,4.055c-1.396,0.146-2.7-1.434-2.913-3.528
		c-0.001-0.008-0.001-0.016-0.002-0.024c-0.213-2.094,0.746-3.91,2.141-4.055s2.7,1.434,2.913,3.527
		C359.764,157.184,359.765,157.192,359.766,157.2z"/>
	<path fill="#999999" d="M369.136,164.092c0.447,2.812-1.089,5.371-3.431,5.714c-2.342,0.343-4.603-1.659-5.05-4.472
		c-0.001-0.009-0.002-0.017-0.004-0.026c-0.447-2.812,1.089-5.371,3.431-5.714c2.342-0.343,4.603,1.659,5.05,4.472
		C369.133,164.075,369.134,164.084,369.136,164.092z"/>
	<path fill="#999999" d="M408.914,161.565c3.042,0.95,4.639,4.317,3.566,7.521c-1.073,3.205-4.41,5.033-7.452,4.083
		c-3.043-0.949-4.64-4.317-3.567-7.521C402.534,162.444,405.871,160.616,408.914,161.565L408.914,161.565z"/>
	<path fill="#999999" d="M438.907,148.052c0.003,1.606-1.184,2.912-2.65,2.915c-1.466,0.003-2.656-1.297-2.659-2.903
		c0-0.003,0-0.007,0-0.011c-0.003-1.606,1.184-2.911,2.649-2.914c1.466-0.003,2.657,1.296,2.66,2.903
		C438.907,148.044,438.907,148.048,438.907,148.052z"/>
	<path fill="#999999" d="M375.956,162.706c3.221-0.595,6.473,1.975,7.263,5.74c0.791,3.766-1.18,7.301-4.401,7.896
		c-0.003,0-0.006,0.001-0.009,0.002c-3.221,0.595-6.473-1.976-7.264-5.741c-0.79-3.766,1.18-7.3,4.401-7.896
		C375.95,162.707,375.953,162.706,375.956,162.706z"/>
	<path fill="#999999" d="M392.819,162.704c3.417,0.378,5.842,3.794,5.417,7.629c-0.426,3.835-3.541,6.638-6.958,6.259
		c-0.003,0-0.006,0-0.01-0.001c-3.417-0.378-5.842-3.794-5.417-7.629c0.425-3.835,3.54-6.638,6.957-6.26
		C392.812,162.703,392.816,162.704,392.819,162.704z"/>
	<path fill="#008000" d="M384.722,238.106c0,6.945-6.113,12.575-13.654,12.575s-13.654-5.63-13.654-12.575
		c0-6.946,6.113-12.576,13.654-12.576S384.722,231.16,384.722,238.106z"/>
	<path fill="#008000" d="M364.754,273.735c2.854,6.988-0.212,15.524-6.849,19.066c-6.637,3.542-14.33,0.749-17.184-6.238
		c-2.854-6.988,0.212-15.523,6.849-19.066C354.207,263.955,361.901,266.748,364.754,273.735z"/>
	<path fill="#008000" d="M362.512,324.698c0,6.982-5.017,12.642-11.205,12.642c-6.188,0-11.205-5.659-11.205-12.642
		c0-6.981,5.016-12.642,11.205-12.642C357.495,312.056,362.512,317.717,362.512,324.698z"/>
	<path fill="#008000" d="M373.4,361.347c0,5.455-4.423,9.878-9.878,9.878s-9.878-4.423-9.878-9.878c0-5.456,4.423-9.879,9.878-9.879
		S373.4,355.891,373.4,361.347z"/>
	
		<linearGradient id="SVGID_5_" gradientUnits="userSpaceOnUse" x1="154.7437" y1="216.0447" x2="177.4131" y2="237.5447" gradientTransform="matrix(1.4373 0 0 -1.4373 153.9409 543.418)">
		<stop  offset="0" style="stop-color:#C83737"/>
		<stop  offset="0.5" style="stop-color:#E77C7C"/>
		<stop  offset="1" style="stop-color:#C83737"/>
	</linearGradient>
	<path fill="url(#SVGID_5_)" d="M398.377,272.528c16.109,6.802,27.992,8.805,33.461-0.854c3.492-20.777-2.365-33.036-12.621-49.944
		c-5.215-1.35-10.863-20.105-9.975-24.384c0.888-4.279,6.716-1.092,7.707-4.331c-0.326-5.708-8.477-12.217-15.365-12.325
		c-6.888-0.107-10.098,2.246-14.75,4.839c-5.913,3.295-15.681,6.5-18.628-0.937c-4.479-11.301-15.133-15.077-20.178-15.277
		c-0.336-0.013-0.635,0.032-0.943,0.09c-2.997,0.558-6.126,5.213-5.513,9.418c0.396,2.716-0.583,5.904-0.955,8.008
		c-0.524,2.967,1.559,6.748-4.938,7.299c-4.395-0.631-7.668,8.161-7.233,12.733c7.8,4.13,22.299-3.807,33.146-2.695
		c14.423,1.479,24.886,11.894,25.886,5.362c2.167-14.162,16.836-17.491,12.646-7.295
		C392.667,220.374,404.033,259.444,398.377,272.528L398.377,272.528z"/>
	
		<linearGradient id="SVGID_6_" gradientUnits="userSpaceOnUse" x1="124.1588" y1="233.4519" x2="150.3943" y2="218.9522" gradientTransform="matrix(1.4373 0 0 -1.4373 153.9409 543.418)">
		<stop  offset="0" style="stop-color:#AA0000"/>
		<stop  offset="0.5" style="stop-color:#840000"/>
		<stop  offset="1" style="stop-color:#AA0000"/>
	</linearGradient>
	<path fill="url(#SVGID_6_)" d="M389.249,184.387c-9.849-3.626-15.956-4.08-22.867-2.795c-8.64,1.606-12.172,12.73-14.99,23.375
		c-4.702,17.76-38.752,14.851-41.414,33.03c-1.223,8.35,7.328,19.338,15.752,19.817c18.176,1.036,28.895-23.229,38.619-38.619
		c4.321-6.839,5.096-18.085,10.163-24.391C378.517,189.822,389.249,184.387,389.249,184.387L389.249,184.387z"/>
	
		<linearGradient id="SVGID_7_" gradientUnits="userSpaceOnUse" x1="199.5631" y1="245.4617" x2="208.4651" y2="221.9623" gradientTransform="matrix(1.4373 0 0 -1.4373 153.9409 543.418)">
		<stop  offset="0" style="stop-color:#AA0000"/>
		<stop  offset="0.5" style="stop-color:#840000"/>
		<stop  offset="1" style="stop-color:#AA0000"/>
	</linearGradient>
	<path fill="url(#SVGID_7_)" d="M398.396,192.263c6.131-2.961,13.586,3,20.326,2.033c21.887-3.142,46.054-9.062,61.485-24.899
		c2.02-2.073,2.35-8.607,5.204-8.13c15.243,2.544,3.431,13.491,4.127,20.475c0.947,9.501,18.568,12.487,16.856,21.265
		c-3.082,15.797-20.433,9.3-39.917,9.405c-7.589,0.041-26.003,18.028-34.543,17.511c-10.98-0.665-14.066-10.86-21.344-11.49
		c-11.928-1.032-16.757,3.882-24.899-9.909C382.826,203.669,393.319,194.716,398.396,192.263z"/>
	
		<radialGradient id="SVGID_8_" cx="233.8521" cy="428.2654" r="49.4995" gradientTransform="matrix(0.2487 1.3237 1.7701 -0.3325 -356.0462 -113.6445)" gradientUnits="userSpaceOnUse">
		<stop  offset="0" style="stop-color:#F95252"/>
		<stop  offset="1" style="stop-color:#D40000"/>
	</radialGradient>
	<path fill="url(#SVGID_8_)" d="M394.064,37.249c38.088-18.684,95.578-19.403,109.231,10.061
		c13.654,29.463,19.403,48.148,20.122,66.114c0.758,18.957,12.936,35.931,12.936,35.931l-8.624,5.03c0,0-5.03,2.875-12.217-18.684
		c-9.328-27.985-15.091-22.996-15.091-22.996"/>
	<path fill="#F9F9F9" d="M546.252,171.353l-8.183-1.142l-4.612,6.588l-5.948-5.734l-7.604,2.619l-1.442-8.135l-7.69-2.351
		l3.615-7.429l-4.841-6.422l7.292-3.886l-0.141-8.041l8.183,1.142l4.612-6.588l5.948,5.734l7.604-2.619l1.442,8.135l7.69,2.351
		l-3.615,7.429l4.841,6.423l-7.292,3.886L546.252,171.353z"/>
	
		<radialGradient id="SVGID_9_" cx="184.088" cy="367.8435" r="50.8723" gradientTransform="matrix(2.1522 1.3868 1.0059 -1.5611 -354.8172 382.5909)" gradientUnits="userSpaceOnUse">
		<stop  offset="0" style="stop-color:#FFFFFF"/>
		<stop  offset="0.6544" style="stop-color:#EAEAEA"/>
		<stop  offset="1" style="stop-color:#FFFFFF"/>
	</radialGradient>
	<path fill="url(#SVGID_9_)" d="M402.688,37.968c-11.498-7.186-22.996-8.624-22.996,0.719s-8.624,9.342-10.061,13.654
		c-1.438,4.312-24.434,19.403,9.342,21.559c33.775,2.156,19.403-10.061,41.681,14.373c22.277,24.434,21.559,48.867,44.555,49.585
		s18.134,20.597,30.901,15.81c11.498-4.312,9.342-5.03,8.623-16.528s2.156-9.342,2.156-13.654c0-4.312-5.405-4.341-20.122-33.775
		c-10.061-20.122-28.062-27.189-49.585-40.243C429.682,44.917,402.688,37.968,402.688,37.968z"/>
	
		<radialGradient id="SVGID_10_" cx="253.8243" cy="206.0447" r="17.903" gradientTransform="matrix(1.4373 0 0 -1.8998 153.9409 657.9299)" gradientUnits="userSpaceOnUse">
		<stop  offset="0" style="stop-color:#595FBC"/>
		<stop  offset="1" style="stop-color:#2B306F"/>
	</radialGradient>
	<path fill="url(#SVGID_10_)" d="M530.092,274.576c0,0-7.963-1.771-10.758,7.63c-2.795,9.4,0.771,23.944,14.736,24.391
		s13.584-29.756,7.091-37.008s-15.266-0.953-18.778-9.742c-3.513-8.787-1.878-20.342-7.43-21.162
		c-5.552-0.819-6.61,2.916-9.27,13.213c-1.562,6.047-8.907,8.023-10.42,19.254s-6.736,31.889,26.356,28.84"/>
</g>
</svg>
