<svg version="1.1" id="Layer_1" xmlns="http://www.w3.org/2000/svg" xmlns:xlink="http://www.w3.org/1999/xlink" viewBox="0 0 768 430" enable-background="new 0 0 768 430" xml:space="preserve">
<g transform="translate(-7.67539,-6.68045)">
	
		<radialGradient id="SVGID_1_" cx="293.0279" cy="223.3435" r="22.6492" gradientTransform="matrix(0.936 1.2764 -0.9072 0.6653 202.4502 -290.3725)" gradientUnits="userSpaceOnUse">
		<stop  offset="0" style="stop-color:#595FBC"/>
		<stop  offset="1" style="stop-color:#2B306F"/>
	</radialGradient>
	<path fill="url(#SVGID_1_)" d="M303.701,238.069c-2.41-19.755-16.245-26.615-20.477-22.646c-4.917,4.61,8.671,13.491-1.205,15.419
		c-13.009-9.154-42.02-24.674-43.365-0.481c-1.491,26.84,25.056,38.065,40.955,34.208c16.916-4.1,23.127-1.926,23.127-1.926
		L303.701,238.069z"/>
	
		<radialGradient id="SVGID_2_" cx="453.1363" cy="720.4128" r="90.5062" gradientTransform="matrix(1.9669 -0.073 0.0682 1.8374 -557.2849 -1032.2998)" gradientUnits="userSpaceOnUse">
		<stop  offset="0" style="stop-color:#F9F9F9"/>
		<stop  offset="0.6846" style="stop-color:#CDF3FB"/>
		<stop  offset="0.8423" style="stop-color:#AFD1D8"/>
		<stop  offset="1" style="stop-color:#CEEBF1"/>
	</radialGradient>
	<path fill="url(#SVGID_2_)" d="M549.755,296.136c0,71.127-58.341,110.386-129.467,110.386
		c-71.126,0-128.103-39.261-128.103-110.386c0-71.127,57.659-128.785,128.784-128.785
		C492.095,167.351,549.755,225.011,549.755,296.136z"/>
	
		<radialGradient id="SVGID_3_" cx="487.9039" cy="675.031" r="51.1558" gradientTransform="matrix(1.6821 0.0188 -0.0148 1.3241 -409.5466 -780.9993)" gradientUnits="userSpaceOnUse">
		<stop  offset="0" style="stop-color:#F9F9F9"/>
		<stop  offset="0.6846" style="stop-color:#CDF3FB"/>
		<stop  offset="0.8423" style="stop-color:#AFD1D8"/>
		<stop  offset="1" style="stop-color:#CEEBF1"/>
	</radialGradient>
	<path fill="url(#SVGID_3_)" d="M489.792,128.511c0,39.89-21.776,64.128-72.229,64.733c-50.45,0.604-72.229-24.843-72.229-64.733
		c0-39.891,32.337-68.141,72.229-68.141C457.455,60.37,489.792,88.619,489.792,128.511z"/>
	
		<linearGradient id="SVGID_4_" gradientUnits="userSpaceOnUse" x1="240.547" y1="312.3953" x2="243.6014" y2="326.6593" gradientTransform="matrix(1.4373 0 0 1.4373 9.1896 -330.9427)">
		<stop  offset="0" style="stop-color:#FFBC78"/>
		<stop  offset="1" style="stop-color:#FF6600"/>
	</linearGradient>
	<path fill="url(#SVGID_4_)" d="M388.999,106.847c-12.61-1.553-21.14,0.21-31.806,3.415c-5.238,1.573-13.497,5.658-18.742,7.217
		c-6.234,1.854-10.627,1.619-16.692,3.97c-1.747,0.677-3.314,1.575-8.051,5.208c3.092,2.763,8.732,2.207,12.77,3.391
		c8.598,2.521,10.883,3.429,19.645,5.301c8.316,1.778,15.459,3.444,23.907,4.423c7.422,0.858,13.822,5.377,20.09,1.314
		C401.737,135.512,401.806,111.778,388.999,106.847z"/>
	<path fill="#333333" d="M381.996,94.245c-0.975,4.257-4.192,7.712-7.188,7.717c-2.995,0.004-4.632-3.444-3.657-7.702
		c0.001-0.005,0.002-0.011,0.004-0.016c0.975-4.257,4.192-7.712,7.188-7.716c2.995-0.005,4.631,3.443,3.657,7.702
		C381.998,94.233,381.997,94.24,381.996,94.245z"/>
	<path fill="#333333" d="M410.423,94.967c-0.614,4.656-4.076,8.435-7.736,8.438s-6.129-3.769-5.516-8.426c0-0.003,0-0.007,0-0.013
		c0.612-4.656,4.076-8.435,7.735-8.438c3.658-0.003,6.132,3.769,5.519,8.426C410.425,94.959,410.423,94.962,410.423,94.967z"/>
	<path fill="#999999" d="M359.317,144.991c0.302,1.541-0.128,3.045-0.961,3.361s-1.754-0.677-2.057-2.218
		c-0.001-0.002-0.001-0.005-0.002-0.009c-0.303-1.54,0.128-3.044,0.961-3.36c0.834-0.316,1.754,0.679,2.058,2.218
		C359.316,144.985,359.317,144.988,359.317,144.991z"/>
	<path fill="#999999" d="M433.793,150.858c0,1.996-1.616,3.614-3.611,3.614s-3.614-1.618-3.614-3.614s1.619-3.614,3.614-3.614
		S433.793,148.862,433.793,150.858z"/>
	<path fill="#999999" d="M425.843,158.085c0,2.635-2.146,4.771-4.795,4.771c-2.647,0-4.797-2.137-4.797-4.771
		c0-2.636,2.148-4.771,4.797-4.771C423.697,153.313,425.843,155.449,425.843,158.085z"/>
	<path fill="#999999" d="M363.919,152.302c0.203,1.987-0.707,3.707-2.03,3.846c-1.324,0.139-2.561-1.359-2.762-3.345
		c-0.001-0.007-0.001-0.015-0.002-0.022c-0.203-1.985,0.707-3.708,2.03-3.845c1.323-0.138,2.56,1.36,2.762,3.344
		C363.917,152.287,363.918,152.295,363.919,152.302z"/>
	<path fill="#999999" d="M372.804,158.837c0.424,2.667-1.033,5.094-3.252,5.418c-2.221,0.326-4.365-1.573-4.789-4.241
		c-0.001-0.009-0.002-0.016-0.004-0.024c-0.423-2.667,1.033-5.092,3.253-5.418c2.221-0.326,4.365,1.573,4.789,4.24
		C372.801,158.821,372.802,158.83,372.804,158.837z"/>
	<path fill="#999999" d="M410.52,156.442c2.885,0.901,4.397,4.094,3.382,7.131c-1.018,3.039-4.182,4.772-7.066,3.871
		c-2.886-0.9-4.397-4.094-3.383-7.132C404.47,157.275,407.634,155.541,410.52,156.442L410.52,156.442z"/>
	<path fill="#999999" d="M438.96,143.628c0.003,1.522-1.122,2.762-2.512,2.764c-1.391,0.002-2.519-1.229-2.521-2.752
		c0-0.002,0-0.006,0-0.01c-0.003-1.523,1.122-2.76,2.511-2.763c1.391-0.003,2.52,1.229,2.521,2.752
		C438.96,143.621,438.96,143.625,438.96,143.628z"/>
	<path fill="#999999" d="M379.271,157.524c3.054-0.564,6.137,1.873,6.887,5.442c0.75,3.571-1.119,6.922-4.173,7.486
		c-0.003,0-0.005,0.001-0.008,0.002c-3.054,0.564-6.138-1.874-6.888-5.443c-0.749-3.571,1.12-6.921,4.173-7.486
		C379.264,157.525,379.268,157.524,379.271,157.524z"/>
	<path fill="#999999" d="M395.259,157.522c3.24,0.357,5.539,3.597,5.138,7.233c-0.403,3.636-3.358,6.294-6.599,5.935
		c-0.004,0-0.006,0-0.01-0.001c-3.24-0.358-5.54-3.597-5.137-7.233c0.403-3.636,3.356-6.294,6.598-5.936
		C395.254,157.52,395.255,157.522,395.259,157.522z"/>
	<path fill="#008000" d="M387.583,229.016c0,6.586-5.797,11.924-12.947,11.924c-7.15,0-12.946-5.338-12.946-11.924
		s5.796-11.923,12.946-11.923C381.786,217.093,387.583,222.43,387.583,229.016z"/>
	<path fill="#008000" d="M368.648,262.802c2.706,6.627-0.202,14.719-6.495,18.078c-6.292,3.357-13.587,0.711-16.293-5.914
		c-2.706-6.627,0.202-14.722,6.494-18.08C358.649,253.526,365.943,256.177,368.648,262.802z"/>
	<path fill="#008000" d="M366.522,311.124c0,6.621-4.757,11.986-10.624,11.986s-10.625-5.364-10.625-11.986
		c0-6.62,4.756-11.986,10.625-11.986C361.766,299.137,366.522,304.504,366.522,311.124z"/>
	<path fill="#008000" d="M376.847,345.874c0,5.172-4.193,9.367-9.366,9.367s-9.367-4.195-9.367-9.367
		c0-5.173,4.194-9.368,9.367-9.368S376.847,340.701,376.847,345.874z"/>
	<path fill="#F44D8D" d="M400.529,261.657c15.275,6.449,26.542,8.348,31.729-0.811c3.311-19.7-2.243-31.325-11.97-47.356
		c-4.945-1.28-10.299-19.063-9.457-23.121c0.842-4.058,6.369-1.036,7.308-4.106c-0.308-5.413-8.036-11.583-14.567-11.687
		c-6.531-0.101-9.574,2.13-13.985,4.588c-5.607,3.125-14.869,6.163-17.663-0.888c-4.247-10.716-14.349-14.297-19.132-14.486
		c-0.319-0.013-0.602,0.031-0.894,0.085c-2.842,0.529-5.808,4.943-5.227,8.931c0.375,2.575-0.553,5.599-0.906,7.593
		c-0.497,2.813,1.479,6.398-4.682,6.921c-4.167-0.598-7.271,7.738-6.859,12.073c7.396,3.916,21.145-3.61,31.429-2.556
		c13.677,1.403,23.598,11.279,24.546,5.085c2.055-13.429,15.965-16.585,11.99-6.917C395.115,212.203,405.892,249.25,400.529,261.657
		L400.529,261.657z"/>
	<path fill="#F44D8D" d="M391.875,178.081c-9.339-3.439-15.129-3.869-21.682-2.651c-8.192,1.523-11.541,12.071-14.213,22.165
		c-4.459,16.84-36.745,14.082-39.269,31.319c-1.16,7.917,6.949,18.335,14.936,18.791c17.234,0.981,27.399-22.024,36.619-36.62
		c4.097-6.484,4.831-17.148,9.636-23.126C381.699,183.235,391.875,178.081,391.875,178.081L391.875,178.081z"/>
	<path fill="#F44D8D" d="M400.546,185.549c5.812-2.808,12.883,2.845,19.273,1.928c20.753-2.979,43.668-8.593,58.299-23.609
		c1.916-1.966,2.229-8.162,4.937-7.708c14.452,2.412,3.254,12.792,3.912,19.414c0.898,9.009,17.606,11.841,15.982,20.164
		c-2.922,14.978-19.375,8.818-37.849,8.917c-7.194,0.04-24.656,17.095-32.753,16.604c-10.412-0.63-13.339-10.296-20.239-10.895
		c-11.311-0.978-15.887,3.682-23.608-9.396C385.784,196.365,395.734,187.874,400.546,185.549z"/>
	<path fill="#F44D8D" d="M396.44,38.565c36.115-17.715,90.627-18.398,103.572,9.54c12.946,27.937,18.397,45.654,19.079,62.689
		c0.72,17.975,12.267,34.069,12.267,34.069l-8.177,4.769c0,0-4.771,2.727-11.584-17.716c-8.846-26.536-14.311-21.805-14.311-21.805"
		/>
	<path fill="#F9F9F9" d="M540.745,165.722l-7.76-1.082l-4.373,6.246l-5.641-5.436l-7.21,2.482l-1.365-7.713l-7.292-2.229
		l3.428-7.044l-4.591-6.089l6.914-3.685l-0.134-7.625l7.759,1.083l4.373-6.248l5.642,5.437l7.21-2.483l1.366,7.714l7.292,2.229
		l-3.429,7.045l4.59,6.09l-6.913,3.685L540.745,165.722z"/>
	
		<radialGradient id="SVGID_5_" cx="297.0821" cy="148.2928" r="48.2372" gradientTransform="matrix(2.1522 1.3868 -1.0059 1.5611 -77.3415 -579.9053)" gradientUnits="userSpaceOnUse">
		<stop  offset="0" style="stop-color:#FFFFFF"/>
		<stop  offset="0.6544" style="stop-color:#EAEAEA"/>
		<stop  offset="1" style="stop-color:#FFFFFF"/>
	</radialGradient>
	<path fill="url(#SVGID_5_)" d="M404.617,39.247c-10.9-6.814-21.804-8.177-21.804,0.682s-8.178,8.858-9.54,12.947
		c-1.364,4.088-23.168,18.398,8.859,20.442c32.025,2.044,18.399-9.539,39.522,13.628c21.123,23.168,20.441,46.335,42.246,47.016
		c21.805,0.681,17.196,19.53,29.301,14.991c10.901-4.089,8.858-4.77,8.176-15.672c-0.681-10.902,2.045-8.858,2.045-12.947
		c0-4.087-5.125-4.116-19.079-32.025c-9.54-19.08-26.609-25.781-47.017-38.159C430.213,45.836,404.617,39.247,404.617,39.247z"/>
	
		<radialGradient id="SVGID_6_" cx="351.6935" cy="355.0642" r="16.9756" gradientTransform="matrix(1.4373 0 0 1.8998 9.1896 -418.625)" gradientUnits="userSpaceOnUse">
		<stop  offset="0" style="stop-color:#595FBC"/>
		<stop  offset="1" style="stop-color:#2B306F"/>
	</radialGradient>
	<path fill="url(#SVGID_6_)" d="M525.422,263.598c0,0-7.553-1.68-10.202,7.232c-2.649,8.913,0.73,22.704,13.974,23.127
		c13.241,0.426,12.88-28.216,6.723-35.091c-6.155-6.876-14.475-0.903-17.805-9.237c-3.331-8.332-1.78-19.287-7.046-20.064
		c-5.264-0.777-6.267,2.764-8.789,12.527c-1.48,5.734-8.446,7.607-9.88,18.258c-1.437,10.648-6.388,30.236,24.99,27.347"/>
</g>
</svg>
