<svg version="1.1" id="Layer_1" xmlns="http://www.w3.org/2000/svg" xmlns:xlink="http://www.w3.org/1999/xlink" viewBox="0 0 768 430" enable-background="new 0 0 768 430" xml:space="preserve">
<g>
	<g>
		<path fill="#D84831" d="M549.821,318.479c-11.165-10.534-27.496-32.11-42.251-47.247c-14.549-16.349-27.501-26.251-27.156-41.284
			c-0.345-15.038,12.607-24.939,27.156-41.288c14.755-15.14,31.086-36.719,42.251-47.243c6.894-5.632,12.44-5.378,17.659-0.507
			c10.153-3.574,17.202,10.883,24.149,27.029c8.628,18.973,15.262,37.264-4.471,51.25c0.027,1.329,0.06,2.67,0.077,4.021
			c22.069,17.099,13.834,49.431,7.699,60.666c-3.614,8.241-10.186,20.349-19.142,22.434
			C568.783,321.422,560.508,327.479,549.821,318.479z"/>
		<path fill="#E75437" d="M601.619,257.496c0.184-5.017-0.27-10.219-1.681-15.23c-7.134,0.33-14.992,0.714-22.952,0.626
			c-40.264-0.468-82.172-23.473-82.978-19.885c-0.801,3.588,48.515,26.811,94.722,32.913
			C593.244,256.515,597.571,257.067,601.619,257.496z"/>
		<path fill="#E75437" d="M561.485,174.536c-29.688,27.201-75.994,39.086-74.124,42.256c1.864,3.169,53.726-13.627,91.603-40.786
			c4.39-3.141,8.541-6.155,12.255-9.019c-2.344-5.42-4.706-10.598-7.2-14.929C577.5,158.539,569.907,166.819,561.485,174.536z"/>
		<path fill="#CF0606" d="M485.107,214.664c6.749-5.041,19.563-12.104,33.317-26.356c13.799-13.574,28.544-34.334,40.073-51.039
			c3.194-0.299,6.17,0.995,8.982,3.641c1.621-0.566,3.133-0.64,4.593-0.369c-11.281,18.365-29.019,38.762-45.763,51.64
			c-16.835,13.528-32.668,19.543-42.079,24.031C484.509,215.69,484.798,215.178,485.107,214.664z"/>
		<path fill="#CF0606" d="M480.443,229.009c0.01-0.377,0.038-0.747,0.065-1.116c13.709-0.949,36.163-3.134,53.396-6.071
			c15.319-2.416,40.936-7.151,62.083-11.491c-2.057,3.144-4.959,6.127-8.829,8.857c0.027,1.329,0.06,2.67,0.077,4.021
			c3.412,2.684,6.173,5.846,8.337,9.286C556.959,230.942,503.341,229.317,480.443,229.009z"/>
		<path fill="#CF0606" d="M506.676,255.276c-13.911-9.758-21.506-15.191-25.547-19.479c-0.243-1.006-0.426-2.016-0.546-3.036
			c5.59,3.982,16.927,10.732,32.671,20.061c20.903,11.568,49.205,34.4,66.248,51.978c-1.185,0.672-2.417,1.207-3.708,1.509
			c-2.397,5.337-5.107,9.532-7.98,12.36C551.317,291.7,522.435,264.995,506.676,255.276z"/>
		<path fill="#CF0606" d="M516.584,280.796c-18.311-20.521-36.275-33.803-36.17-50.849c-0.065-15.315,14.327-27.535,30.574-44.771
			c-1.186,4.006-1.432,6.862,0.834,6.603c6.42-0.823,6.447-0.866,6.44-0.854c0.057,0.309-7.152,12.075-2.993,21.614
			c5.075,12.167,20.054,12.136,20.157,12.002c-0.157,0.063-16.588,1.896-16.035,17.437c0.315,9.596,10.641,22.799,10.595,23.159
			c-0.035-0.029-9.923-0.067-13.562,6.788C514.9,274.749,517.2,278.706,516.584,280.796z"/>
		<path fill="#E3492F" d="M575.794,306.308c-7.011,15.114-15.286,21.172-25.973,12.171c-11.165-10.534-27.496-32.11-42.251-47.247
			c-14.549-16.349-27.501-26.251-27.156-41.284c-0.003-5.452,1.875-10.676,5.037-15.818c-0.621,6.909,0.218,12.171,3.524,14.196
			c8.534,3.961,62.327,21.056,104.124,59.46C589.338,295.534,583.386,304.524,575.794,306.308z"/>
	</g>
	<g>
		<path fill="#D84831" d="M202.069,318.479c11.171-10.534,27.507-32.11,42.255-47.247c14.545-16.349,27.507-26.251,27.162-41.284
			c0.345-15.038-12.617-24.939-27.162-41.288c-14.749-15.14-31.084-36.719-42.255-47.243c-6.887-5.632-12.434-5.378-17.654-0.507
			c-10.148-3.574-17.197,10.883-24.155,27.029c-8.621,18.973-15.255,37.264,4.481,51.25c-0.039,1.329-0.06,2.67-0.08,4.021
			c-22.07,17.099-13.832,49.431-7.704,60.666c3.619,8.241,10.187,20.349,19.142,22.434
			C183.11,321.422,191.39,327.479,202.069,318.479z"/>
		<path fill="#E75437" d="M150.282,257.496c-0.183-5.017,0.263-10.219,1.674-15.23c7.141,0.33,14.991,0.714,22.958,0.626
			c40.258-0.468,82.168-23.473,82.97-19.885c0.813,3.588-48.513,26.811-94.715,32.913
			C158.657,256.515,154.331,257.067,150.282,257.496z"/>
		<path fill="#E75437" d="M190.413,174.536c29.687,27.201,75.999,39.086,74.127,42.256c-1.868,3.169-53.733-13.627-91.609-40.786
			c-4.387-3.141-8.533-6.155-12.254-9.019c2.349-5.42,4.713-10.598,7.207-14.929C174.401,158.539,181.992,166.819,190.413,174.536z"
			/>
		<path fill="#CF0606" d="M266.794,214.664c-6.75-5.041-19.564-12.104-33.32-26.356c-13.796-13.574-28.541-34.334-40.075-51.039
			c-3.197-0.299-6.167,0.995-8.983,3.641c-1.619-0.566-3.127-0.64-4.587-0.369c11.277,18.365,29.02,38.762,45.763,51.64
			c16.824,13.528,32.659,19.543,42.079,24.031C267.386,215.69,267.101,215.178,266.794,214.664z"/>
		<path fill="#CF0606" d="M271.458,229.009c-0.018-0.377-0.042-0.747-0.069-1.116c-13.706-0.949-36.16-3.134-53.396-6.071
			c-15.318-2.416-40.933-7.151-62.087-11.491c2.058,3.144,4.964,6.127,8.836,8.857c-0.039,1.329-0.06,2.67-0.08,4.021
			c-3.409,2.684-6.177,5.846-8.341,9.286C194.936,230.942,248.561,229.317,271.458,229.009z"/>
		<path fill="#CF0606" d="M245.225,255.276c13.908-9.758,21.506-15.191,25.547-19.479c0.236-1.006,0.426-2.016,0.543-3.036
			c-5.597,3.982-16.924,10.732-32.668,20.061c-20.911,11.568-49.213,34.4-66.248,51.978c1.185,0.672,2.417,1.207,3.7,1.509
			c2.406,5.337,5.107,9.532,7.988,12.36C200.578,291.7,229.467,264.995,245.225,255.276z"/>
		<path fill="#CF0606" d="M235.316,280.796c18.312-20.521,36.276-33.803,36.17-50.849c0.067-15.315-14.33-27.535-30.578-44.771
			c1.189,4.006,1.436,6.862-0.833,6.603c-6.416-0.823-6.448-0.866-6.441-0.854c-0.056,0.309,7.154,12.075,2.997,21.614
			c-5.076,12.167-20.053,12.136-20.159,12.002c0.155,0.063,16.585,1.896,16.03,17.437c-0.31,9.596-10.637,22.799-10.588,23.159
			c0.028-0.029,9.922-0.067,13.556,6.788C236.998,274.749,234.698,278.706,235.316,280.796z"/>
		<path fill="#E3492F" d="M176.1,306.308c7.01,15.114,15.291,21.172,25.97,12.171c11.171-10.534,27.507-32.11,42.255-47.247
			c14.545-16.349,27.507-26.251,27.162-41.284c0-5.452-1.875-10.676-5.044-15.818c0.626,6.909-0.214,12.171-3.52,14.196
			c-8.531,3.961-62.323,21.056-104.125,59.46C162.557,295.534,168.516,304.524,176.1,306.308z"/>
	</g>
	<path fill="#E7512D" d="M504.643,228.175c0,63.94-57.596,115.777-128.637,115.777c-71.051,0-128.641-51.837-128.641-115.777
		c0-63.938,57.59-115.771,128.641-115.771C447.047,112.403,504.643,164.237,504.643,228.175z"/>
	<path opacity="0.82" fill="#FFED00" d="M313.549,126.966c-26.448,51.883-51.542,100.452-58.083,141.688
		c5.276,12.726,12.986,24.389,22.596,34.541c0.145-53.515,32.441-118.29,60.915-185.899
		C330.049,119.706,321.54,122.963,313.549,126.966z M376.006,112.403c-5.752,0-11.4,0.373-16.951,1.031
		c-25.629,73.494-61.185,146.095-60.692,207.039c6.923,4.729,14.391,8.839,22.312,12.243
		c2.852-67.323,40.264-144.747,60.663-220.194C379.564,112.456,377.792,112.403,376.006,112.403z M483.629,164.796
		c-6.268,50.744-35.674,109.975-61.352,171.407c9.447-3.277,18.357-7.524,26.575-12.617c21.702-42.583,42.579-82.967,53.132-118.916
		C498.67,190.203,492.338,176.738,483.629,164.796z M441.426,128.496c-6.472,66.596-42.856,142.096-61.661,215.371
		c7.574-0.192,14.999-0.948,22.191-2.271c23.74-69.533,57.382-138.505,62.053-197.82C457.14,137.972,449.58,132.844,441.426,128.496
		z M400.344,114.503C384.916,189,346.958,268.031,339.462,339.186c6.946,1.851,14.137,3.184,21.523,3.954
		c13.592-73.47,51.178-151.825,61.253-223.001C415.217,117.705,407.898,115.801,400.344,114.503z"/>
	<path opacity="0.76" fill="#E9600F" d="M376.006,271.06c-56.889,0-105.124-33.251-122.099-79.33
		c-4.221,11.463-6.542,23.711-6.542,36.445c0,63.94,57.59,115.777,128.641,115.777c71.041,0,128.637-51.837,128.637-115.777
		c0-12.734-2.321-24.982-6.542-36.445C481.129,237.809,432.894,271.06,376.006,271.06z"/>
	<path fill="#E50707" d="M411.739,286.778c-44.314,11.437-31.443,38.594-136.996,12.763c23.554,27.023,60.143,44.411,101.262,44.411
		c41.118,0,77.703-17.388,101.25-44.411C466.049,281.063,446.852,277.719,411.739,286.778z"/>
	<path fill="#EA652B" d="M457.344,300.355c-1.234-3.062-15.15,6.805-32.999,13.996c-17.846,7.194-32.863,8.998-31.632,12.051
		c1.234,3.062,18.253,6.217,36.096-0.98C446.657,318.232,458.574,303.41,457.344,300.355z"/>
	<path fill="#EA652B" d="M354.904,322.361c0.703-2.933-8.731-2.877-21.074-5.828c-12.339-2.952-14.474-2.695-15.177,0.247
		c-0.703,2.936,0.289,7.435,12.635,10.387C343.63,330.115,354.196,325.295,354.904,322.361z"/>
	<path fill="#E74C34" d="M276.939,300.068c-0.732-0.18-1.45-0.345-2.196-0.527c23.554,27.023,60.143,44.411,101.262,44.411
		c41.118,0,77.703-17.388,101.25-44.411c-0.204-0.338-0.432-0.638-0.638-0.964c-24.646,23.894-60.577,38.966-100.612,38.966
		C336.799,337.543,301.522,323.096,276.939,300.068z"/>
	<path opacity="0.72" fill="#E8593F" d="M470.341,166.538c0,16.877-42.238,13.401-94.335,13.401
		c-52.104,0-94.336,3.476-94.336-13.401c0-16.87,42.232-47.705,94.336-47.705C428.103,118.833,470.341,149.667,470.341,166.538z"/>
	<g>
		<path fill="#F4AA98" d="M312.834,154.895c2.863,4.137,0.652,10.633-4.942,14.514c-5.597,3.879-12.455,3.671-15.325-0.465
			c-2.871-4.133-0.658-10.629,4.939-14.509C303.104,150.555,309.965,150.762,312.834,154.895z"/>
		<path fill="#F4AA98" d="M389.102,131.986c1.86,6.552-13.393,9.926-31.908,15.177c-18.513,5.249-33.271,10.38-35.128,3.831
			c-1.854-6.55,9.891-22.301,28.403-27.552C368.978,118.189,387.243,125.436,389.102,131.986z"/>
	</g>
	<path fill="#E74C34" d="M254.867,228.175c0-30.761,10.985-58.978,29.273-81.008c-22.737,20.879-36.775,49.466-36.775,81.008
		c0,31.548,14.038,60.13,36.775,81.017C265.852,287.156,254.867,258.938,254.867,228.175z"/>
	<path fill="#E50707" d="M468.881,148.121c15.733,22.405,25.04,50.082,25.04,80.054c0,29.972-9.307,57.653-25.04,80.061
		c22.128-20.795,35.762-48.988,35.762-80.061C504.643,197.105,491.009,168.912,468.881,148.121z"/>
	<path opacity="0.59" fill="#E50707" d="M461.072,158.976c9.774,19.366,15.565,43.292,15.565,69.199
		c0,25.912-5.791,49.835-15.565,69.205c13.757-17.973,22.229-42.343,22.229-69.205C483.302,201.318,474.829,176.949,461.072,158.976
		z"/>
</g>
</svg>
