<svg xmlns="http://www.w3.org/2000/svg" viewBox="0 0 768 430"><style>.a{fill:#F4D9BF;}.b{fill:#FFE754;}.c{fill:#009FE3;}.d{fill:#704594;}.e{fill:#968BC1;}.f{fill:#0062A4;}.g{flood-color:white;flood-opacity:1;}.h{stop-color:#FFF;}.i{stop-color:#FCFCFC;}.j{stop-color:#F2F2F2;}.k{stop-color:#E1E1E1;}.l{stop-color:#C9C9C9;}.m{stop-color:#AAA;}.n{stop-color:#858585;}.o{stop-color:#585858;}.p{stop-color:#252525;}.q{stop-color:#000;}.r{fill:#EC6395;}.s{fill:#F094B0;}.t{fill:#F1C7A4;}.u{fill:#BF946F;}.v{fill:#FFF;}.w{fill:#EC675E;}.x{fill:#F29398;}.y{fill:#413000;}.z{stop-color:#F4F4F4;}.A{stop-color:#D8D8D8;}.B{stop-color:#A9A9A9;}.C{stop-color:#696969;}.D{stop-color:#181818;}.E{fill:#F3903E;}.F{fill:#E63528;}.G{fill:#72C5C7;}.H{fill:#E85924;}.I{fill:#009D9F;}.J{fill:#DB7233;}.K{fill:#A54310;}.L{fill:#8D3B11;}</style><path d="M496.7 298.7c0 0 1 51.7 4.5 73 0 0 1.2 14.7-0.7 15.6 -7.2 3.8-13.4-13.9-17.3-31.9 -3.9-18-8-58.8-8-58.8L496.7 298.7z" class="a"/><path d="M496.7 298.7c0 0 1 51.7 4.5 73 0 0 1.2 14.7-0.7 15.6 -7.2 3.8-13.4-13.9-17.3-31.9 -3.9-18-8-58.8-8-58.8L496.7 298.7z" class="a"/><path d="M489.9 368c1.3-0.2 2.8-0.4 4.2-0.8 0.7-0.2 1.5-0.4 2.2-0.7 1.4-0.6 2.8-1.3 3.9-2.4 0.3 2.8 0.6 5.3 1 7.6 0 0 1.2 14.7-0.7 15.6 -5.4 2.9-10.3-6.6-14-19.1C487.6 368.2 488.8 368.1 489.9 368z" class="b"/><path d="M494.5 381.2c1.9 0.6 3.9-0.2 5.1-1.6 1.1-1.2 1.6-2.6 1.8-4.1 0.2 4.4 0.3 11.1-0.9 11.8 -3.8 2-7.3-2-10.3-8.8C491.4 379.7 492.9 380.7 494.5 381.2z" class="c"/><path d="M527.5 298.2c0 0 13.7 49.9 22.2 69.6 0 0 4.7 13.9 3.2 15.3 -6 5.4-16.4-10.2-24.5-26.7 -8.2-16.5-22.2-55-22.2-55L527.5 298.2z" class="a"/><path d="M527.5 298.2c0 0 13.7 49.9 22.2 69.6 0 0 4.7 13.9 3.2 15.3 -6 5.4-16.4-10.2-24.5-26.7 -8.2-16.5-22.2-55-22.2-55L527.5 298.2z" class="a"/><path d="M537.8 367c1.3-0.5 2.6-1.1 3.9-1.8 0.7-0.4 1.3-0.8 2-1.3 1.3-0.9 2.4-2 3.2-3.2 1 2.6 1.9 5 2.8 7.1 0 0 4.7 13.9 3.2 15.3 -4.6 4.1-11.6-3.8-18.3-15.1C535.7 367.8 536.8 367.5 537.8 367z" class="b"/><path d="M545.6 378.7c2 0.1 3.7-1.1 4.6-2.8 0.8-1.5 0.9-2.9 0.7-4.4 1.3 4.2 3 10.7 2 11.6 -3.2 2.9-7.6-0.1-12.2-6C542.2 378 543.9 378.7 545.6 378.7z" class="c"/><path d="M380.4 264.6c0 0 0 0 0.3 4.6 11.3 4.4 34.5 7.1 34.5 7.1l-0.1-5.9h-1.2l-32.1-5.9L380.4 264.6z" class="d"/><path d="M447.9 216.4c-10.9-5-49.6-12.3-49.6-12.3 -1.7 6.7-3 13.4-7.3 22.9 -4.3 9.5-9.2 37.5-9.2 37.5l32.1 5.9 7.2-26.9 1.1 27.3c0 0 21.2 6.8 37.9-0.2C458.2 258.6 453.4 235.7 447.9 216.4z" fill="#8076B4"/><path d="M422.3 270.7h-0.9l0.2 5.2c0 0 18.5 5 39.4 0.7 -0.1-1.4-0.4-3.5-0.8-6.1C443.5 277.6 422.3 270.7 422.3 270.7z" class="d"/><path d="M394.2 222l18.5 2.8c0 0-2.1 23.7-15.2 22C387.8 244.3 388.5 232.9 394.2 222z" class="e"/><path d="M428.3 226.7l22.8 3.2c0 0 4.7 21-10.4 20.3C425.5 249.4 426.6 235.6 428.3 226.7z" class="e"/><polygon points="478.2 279.5 461 295.6 467.4 299.9 465.3 302.6 476.9 305.9 475.7 308.3 497.3 309.3 497.5 312.1 519.4 306.4 519.4 309.2 536.4 300.5 537.1 302.4 554.3 292 538.4 269.1 " class="c"/><polygon points="465.1 298.4 467.4 299.9 478.1 285.3 " class="f"/><polygon points="476.9 305.9 485.3 287.5 474.1 305.1 " class="f"/><polygon points="497.3 309.3 498.5 285.5 494 309 " class="f"/><polygon points="519.4 306.4 515.7 283.9 515.5 307.4 " class="f"/><polygon points="536.4 300.5 527.4 279.7 533.2 302.1 " class="f"/><defs><filter filterUnits="userSpaceOnUse" x="466.7" y="284.5" width="18.6" height="20.1"><feFlood result="back" class="g"/><feBlend in="SourceGraphic" in2="back" mode="normal"/></filter></defs><mask maskUnits="userSpaceOnUse" x="466.7" y="284.5" width="18.6" height="20.1"><g filter="url(#Adobe_OpacityMaskFilter)"><defs><filter filterUnits="userSpaceOnUse" x="466.7" y="284.5" width="18.6" height="20.1"><feFlood result="back" class="g"/><feBlend in="SourceGraphic" in2="back" mode="normal"/></filter></defs><mask maskUnits="userSpaceOnUse" x="466.7" y="284.5" width="18.6" height="20.1"/><radialGradient cx="458.2" cy="270.1" r="26.6" gradientTransform="matrix(0.9958 -0.0914 0.0914 0.9958 -22.2743 52.1463)" gradientUnits="userSpaceOnUse"><stop offset="0.0022" class="h"/><stop offset="0.1645" class="i"/><stop offset="0.2947" class="j"/><stop offset="0.4138" class="k"/><stop offset="0.5262" class="l"/><stop offset="0.6341" class="m"/><stop offset="0.7384" class="n"/><stop offset="0.8401" class="o"/><stop offset="0.937" class="p"/><stop offset="1" class="q"/></radialGradient><polygon mask="url(#SVGID_1_)" points="480.3 284.5 466.7 302.1 473.9 304.6 485.4 285 " fill="url(#SVGID_2_)"/></g></mask><radialGradient cx="458.2" cy="270.1" r="26.6" gradientTransform="matrix(0.9958 -0.0914 0.0914 0.9958 -22.2743 52.1463)" gradientUnits="userSpaceOnUse"><stop offset="0.0022" class="h"/><stop offset="0.9102" class="h"/><stop offset="1" class="h"/></radialGradient><polygon points="480.3 284.5 466.7 302.1 473.9 304.6 485.4 285 " fill="url(#SVGID_3_)"/><path d="M448.8 215.7c0 0 24.8-2.1 37.2-4.9 8.2-2.5-2.2 16.6-16.8 24.4C461.6 236.9 449.5 226.4 448.8 215.7z" class="r"/><path d="M500.6 205.6c0.7 4.5 1.4 14.5-5.9 15.9 -7.4 1.4-8.1-8.3-8.1-12.5 -1.6 2-13.7 19-9.2 70.4 24.4 8.2 49.7 1 62.3-11.4C530.8 242.9 520.7 207.8 500.6 205.6z" class="s"/><path d="M494.7 221.5c7.3-1.4 6.5-11.4 5.9-15.9 -4.2-0.5-8.7 0.5-13.8 3.2 0 0-0.1 0.1-0.2 0.2C486.6 213.2 487.4 222.9 494.7 221.5z" class="t"/><path d="M601.8 199c0 0-9.2-1.6-14.9-8.7 4.6 10.5 0.7 19.9 0.7 19.9l-10.1 1.1c0 0 2.1-9.6 0-17 -0.5 11.5-3.7 19.2-3.7 19.2h-14.2c0 0 3.7-8.5 2.1-18.1 -2.3 12.1-7.3 17-7.3 17l-8.7-3.4c0 0 9.2-11 5.7-40.3 5.3-16 9.4-34.4-1.6-46.5 0 0 22-6.4 33.9 31 7.3 29.3 9.2 38.7 19 39.7" fill="#FBB925"/><path d="M534.5 179.9c4.2 6.6 13.5 1.2 12.3-10.1 -1.2-11.3-11.5-11.8-14-2.4 -3.7-16.5-17.6-33.6-17.6-33.6 1.7 5.8-0.4 15.3-0.4 15.3l-12.8-0.2c0 0-0.1-5.5-2.5-14.8 -1.3 6.2-2.8 14.2-2.8 14.2l-19.5 0.7c0 0-2.1-8.5 0.5-16.9 -4.3 5.4-5.3 17.5-5.3 17.5l-18.6-0.2c0 0-1.7-12.2 1.8-21.2 -6.9 6.5-6.9 22.6-6.9 22.6l-13 0.5c0 0 1.4 11.1-0.8 22.3 -2.2 10.8 2 20.4 16.8 28.8 12.5 7.8 27.6 8.8 38.5 8.1 1-0.2 2.2-0.4 3.5-0.5C514 207.3 532.6 193.3 534.5 179.9z" class="a"/><path d="M559.9 133c-29.5-52.9-99.1-35.8-109.6-25.3 -33.3 5.1-31.6 43.7-31.6 43.7l11.8 0.4c0 0-3.1-9.5 4.9-20 -3.4 11.1-1.4 19.4-1.4 19.4l1.7-0.1 13-0.5c0 0 0-16.1 6.9-22.6 -3.5 9.1-1.8 21.2-1.8 21.2l18.6 0.3c0 0 1-12.1 5.3-17.5 -2.5 8.4-0.5 16.9-0.5 16.9l19.5-0.7c0 0 1.4-8 2.8-14.2 2.4 9.3 2.5 14.8 2.5 14.8l12.8 0.2c0 0 2.1-9.5 0.4-15.3 0 0 14 17.1 17.6 33.6 2.5-9.4 12.8-8.8 14 2.4 1.2 11.3-8.1 16.7-12.3 10.1 -1.9 13.4-20.5 27.4-41 29.8 -1.3 0.2-2.5 0.3-3.5 0.5 8.8-0.6 14.9-2.2 14.9-2.2C543.2 202.4 575.4 165.5 559.9 133z" fill="#FDCB68"/><path d="M536.7 170.3c0.1-0.3 0.3-0.7 0.4-1 0.9-1.9 3.4-3.4 5.4-2.1 1.5 0.9 2.1 2.2 2.1 3.8 -0.3-0.9-0.7-1.8-1.5-2.4 -1.4-1.1-3.3-0.8-4.3 0.7 -0.9 1.3-0.6 3.3 0.7 4.2 0.3 0.3 0.6 0.5 0.9 0.5 0.2 0 0.5 0 0.7-0.1 0.7 0 1.3-0.3 1.8-0.9 -0.2 1.5-1.6 2.6-3 2.4 -0.8-0.1-1.5-0.5-2.1-1.2 0 1.7 0.5 3.3 2 4.2 0 0 0.1 0.1 0.1 0.1 -1.1 0-2.5-1.9-2.8-2.7C536.2 174.1 536.5 172.2 536.7 170.3z" class="u"/><path d="M493 193.1c0.2-4.1-0.7-7.4-0.7-7.4l-27.2 7.2C466.5 195.2 472.3 200.5 493 193.1z" class="v"/><path d="M475.5 208.3c0.9 0 1.9 0 2.9-0.1 6.9-0.7 10.7-3.8 12.6-7.5C481.5 198.2 477 205.3 475.5 208.3z" class="w"/><path d="M465 192.9l-9.4 2.5c1 2.3 4.9 12.8 19.9 13 1.4-3 6-10.1 15.5-7.6 1.3-2.5 1.8-5.2 1.9-7.7C472.3 200.5 466.5 195.2 465 192.9z" class="x"/><path d="M445.6 172.2c0.3 3.9-0.9 7.1-2.7 7.2 -1.7 0.1-3.4-2.9-3.6-6.8 -0.3-3.8 1-7.1 2.7-7.2C443.7 165.3 445.3 168.3 445.6 172.2z" class="y"/><path d="M442.1 170.3c0.1 1.2-0.3 2.3-0.9 2.3 -0.6 0-1.1-0.9-1.2-2.2 -0.1-1.2 0.3-2.3 0.9-2.3C441.5 168.1 442 169.1 442.1 170.3z" class="v"/><path d="M480.4 170.8c0.3 3.9-0.9 7.1-2.7 7.2 -1.7 0.1-3.4-2.9-3.6-6.8 -0.3-3.9 0.9-7.1 2.7-7.2C478.5 163.9 480.2 166.9 480.4 170.8z" class="y"/><path d="M477 168.9c0.1 1.2-0.3 2.3-0.9 2.3 -0.6 0-1.1-0.9-1.2-2.2 -0.1-1.2 0.3-2.3 0.9-2.3C476.4 166.7 476.9 167.7 477 168.9z" class="v"/><defs><filter filterUnits="userSpaceOnUse" x="440.4" y="180" width="1.8" height="2.4"><feFlood result="back" class="g"/><feBlend in="SourceGraphic" in2="back" mode="normal"/></filter></defs><mask maskUnits="userSpaceOnUse" x="440.4" y="180" width="1.8" height="2.4"><g filter="url(#Adobe_OpacityMaskFilter_2_)"><defs><filter filterUnits="userSpaceOnUse" x="440.4" y="180" width="1.8" height="2.4"><feFlood result="back" class="g"/><feBlend in="SourceGraphic" in2="back" mode="normal"/></filter></defs><mask maskUnits="userSpaceOnUse" x="440.4" y="180" width="1.8" height="2.4"/><radialGradient cx="691.5" cy="219.9" r="4" gradientTransform="matrix(-0.978 -0.2085 -0.2085 0.978 1162.6213 107.7408)" gradientUnits="userSpaceOnUse"><stop offset="0" class="h"/><stop offset="0.0858" class="z"/><stop offset="0.2353" class="A"/><stop offset="0.4306" class="B"/><stop offset="0.6642" class="C"/><stop offset="0.9275" class="D"/><stop offset="1" class="q"/></radialGradient><path mask="url(#SVGID_4_)" d="M441.4 180c1.5 1.2 0.6 2.4 0.6 2.4s-0.6-0.7-1.6-1.5C440.7 180.5 441.1 180.3 441.4 180z" fill="url(#SVGID_5_)"/></g></mask><radialGradient cx="691.5" cy="219.9" r="4" gradientTransform="matrix(-0.978 -0.2085 -0.2085 0.978 1162.6213 107.7408)" gradientUnits="userSpaceOnUse"><stop offset="0" class="h"/><stop offset="1" class="h"/></radialGradient><path d="M441.4 180c1.5 1.2 0.6 2.4 0.6 2.4s-0.6-0.7-1.6-1.5C440.7 180.5 441.1 180.3 441.4 180z" style="fill:url(#SVGID_6_);opacity:0.7"/><path d="M449.4 163.3c0 0-6.9-16.2-11.2 0.1 0 0-0.2-7.8 4.4-9.5C447.2 152.2 449.4 163.3 449.4 163.3z" class="E"/><path d="M483.1 161.4c0 0-8.1-15.7-12.8 1 0 0-0.4-7.8 4.8-9.8C480.3 150.5 483.1 161.4 483.1 161.4z" class="E"/><path d="M453.5 179.7c3.7-1.9 6.2 2.9 6.2 2.9s-2.1-6.5-7.8-3.3c-5.7 3.2-1.1 11 7 9C451.3 189 448.8 182.2 453.5 179.7z" class="u"/><path d="M500.1 239.2c-3.8-9.4-10.1-8.9-10.1-8.9s5.5 18.7 10.6 22.2C500.6 252.5 503.9 248.5 500.1 239.2z" fill="#CE467E"/><path d="M517 216.3c-2.7-6.8-7.8-4.4-13.8 2.4 -5.9 6.8-13.3 11.6-13.3 11.6s6.3-0.5 10.1 8.9c3.8 9.4 0.5 13.3 0.5 13.3C521.7 241.5 519.8 223 517 216.3z" class="r"/><path d="M396.8 209.5c0 0-0.9 2.8-0.3 7.9 0.7 4.4 0.3 4.5-0.6 4.4 0.9 1.8-0.3 2.3-1 2.4 0.9 1.5-1.2 3.4-2.5 3.4 0.7 1.8-3.2 2.2-4.9 0.5 -1.8-1.7-3-8.9 0-14.1C390.5 208.6 396.9 208.8 396.8 209.5z" class="a"/><path d="M391.8 217.2c0 0 0.3 0.3 0.7 0.7 0.2 0.2 0.4 0.5 0.7 0.7 0.2 0.3 0.5 0.5 0.7 0.8l0.4 0.4c0.1 0.1 0.2 0.3 0.3 0.4 0.2 0.2 0.5 0.5 0.6 0.7 0.4 0.4 0.7 0.7 0.7 0.7s-0.4-0.1-1-0.3c-0.3-0.1-0.6-0.3-0.9-0.6 -0.3-0.2-0.6-0.5-0.9-0.8 -0.2-0.3-0.5-0.6-0.7-1 -0.2-0.3-0.4-0.6-0.5-0.9C391.8 217.6 391.8 217.2 391.8 217.2z" class="u"/><path d="M390.1 222c0 0 0.4 0.1 0.8 0.3 0.2 0.1 0.5 0.2 0.8 0.3 0.3 0.1 0.6 0.3 0.8 0.4 0.1 0.1 0.3 0.1 0.4 0.2 0.1 0 0.3 0.1 0.4 0.2 0.3 0.1 0.5 0.2 0.7 0.3 0.4 0.1 0.8 0.3 0.8 0.3s-0.3 0.2-0.9 0.2c-0.3 0-0.6 0-0.9-0.1 -0.3-0.1-0.7-0.2-1-0.3 -0.3-0.2-0.6-0.3-0.9-0.6 -0.3-0.2-0.5-0.4-0.7-0.6C390.2 222.4 390.1 222 390.1 222z" class="u"/><path d="M388.8 225.3c0 0 0.3 0.1 0.7 0.3 0.2 0.1 0.4 0.2 0.6 0.3 0.2 0.1 0.4 0.2 0.6 0.3 0.2 0.1 0.4 0.3 0.6 0.4 0.2 0.1 0.4 0.3 0.5 0.4 0.3 0.2 0.5 0.5 0.5 0.5s-0.3 0.1-0.7 0c-0.2 0-0.4-0.1-0.7-0.1 -0.1 0-0.3-0.1-0.4-0.1l-0.4-0.2c-0.2-0.1-0.5-0.3-0.7-0.5 -0.2-0.2-0.3-0.4-0.5-0.5C388.9 225.6 388.8 225.3 388.8 225.3z" class="u"/><path d="M490 230.3c0 0-12.6 4.6-32.5-2.3 -2-1.1-2.1-2.5-4.2-7.6 -2-5.1-12-11.8-23.5-8.7 -7.2 2.7-8.1 5.3-7.1 7 0.9 1.7 2.8 0.2 5.8-1.4 -4.4 4.6-5 6.9-3.7 8.1s7.5-4.7 11.5-5.7c-6.3 4.5-9.1 10-7 11.3 1.5 0.8 6.9-5.1 9.5-6.3 -5.8 6.4-5.9 9.6-4 10.9 1.9 1.3 5.1-5.8 8.3-6.9 0.1 5.9 3.6 11.5 10.7 7.8 6.2 5.7 28.6 16.5 47.6 6.8C500 236.9 496.5 230.4 490 230.3z" class="a"/><path d="M215.3 368.9c0.4-1 0.9-2 1.4-3 2.3 7.2 6.3 9.7 8.3 10.5 -0.8 0.9-1.6 1.8-2.3 2.6C220.7 378.1 217.1 375.6 215.3 368.9z" class="F"/><path d="M216.7 365.8c2.8-5.9 6.1-12 8.5-16.6 5.8-11.1 7.3-24.2 5-37.3 0 0 9.5 7.9 17.7 3.8 0 0 5.5 21.8-9.6 43.9 -4.2 5.5-8.9 11.7-13.2 16.7C223 375.5 219 373 216.7 365.8z" class="a"/><path d="M213.7 372.8c0.5-1.3 1-2.6 1.6-3.9 1.8 6.8 5.4 9.2 7.4 10.1 -0.8 0.9-1.6 1.7-2.4 2.5C218.1 381.2 214.8 379.7 213.7 372.8z" class="a"/><path d="M213.7 372.8c1.1 7 4.4 8.4 6.6 8.6 -3.8 3.6-6.8 5.4-8.3 3.4C210.5 382.8 211.6 378.3 213.7 372.8z" class="F"/><path d="M252.3 311c0 0 1.5 19.8 1.1 45 -0.2 15.4-0.9 37.1 6.1 35.3 0 0 5-0.2 6.7-14.3 1.7-14.1 6-67 6-67L252.3 311z" class="a"/><path d="M259.5 371.6c2.3 0 4.9 0.3 7.1 1.4 0.1-1 0.2-2.1 0.3-3.3 -4.1-2.3-10-2.7-13.7 0.1 0 1.1 0 2.2 0.1 3.2C255.2 372 257.5 371.6 259.5 371.6z" class="F"/><path d="M253.6 379c0.6 7.7 2.2 13.2 5.8 12.2 0 0 4.9-0.2 6.7-13.9C262.9 381.4 256.5 382.7 253.6 379z" class="F"/><path d="M263.2 207.5c0 0 6.9-0.2 23 7.4 16.1 7.6 19.9 10.9 19.9 10.9l-26.8 6.6C279.3 232.4 267.2 222 263.2 207.5z" class="t"/><path d="M243.4 203.1c0 0-12.1 34.3-29.2 77.3 -9.5 21.5-10.8 25.3-10.8 25.3s30.7 31 80.4 4.4c-4.1-26.6-9.8-86.5-18.4-104L243.4 203.1z" class="G"/><path d="M300.2 231.1c9.9 3.5 24.2 1.5 20.3-14.8 -4.3 4.3-7.8 5.1-18.9 6.4 -12.7 1.6-11.6-1.4-13.9-3.6 0 0-0.1-0.1-0.1-0.1C289.8 223.2 294 228.9 300.2 231.1z" fill="#A73528"/><path d="M350.2 252.2l15-5.1c0 0-9-17.3-17.2-25.4 -7.6-7.4-18.3-13-24.2-8.8 2.7 10 0.8 21.1-13.2 22.9 -17.8 1.3-24-10-26-15.5 -3 3-7.2 10.7-9.4 19.7 -3.1 12.7-7.6 24.3-7.6 24.3 9.4 4.7 22.1 6.1 22.1 6.1l1.7-15.3 4 45.1c0 0 34-1.1 60.3-14.7 -2.8-9.2-17.4-47.4-17.4-47.4L350.2 252.2z" class="b"/><path d="M310.6 235.7c14-1.8 15.9-12.9 13.2-22.9 -0.5 0.3-0.9 0.8-1.4 1.2 -0.7 0.8-1.4 1.6-2 2.2 3.9 16.3-10.4 18.3-20.3 14.8 -6.2-2.2-10.4-7.9-12.7-12 -0.7-0.5-1.7 0-2.9 1.1C286.6 225.8 292.8 237 310.6 235.7z" class="F"/><path d="M321.7 265.9c8.9-5.8 7-14.1 5.8-18.5l-23.6 16C306.9 266 313.9 270.9 321.7 265.9z" class="F"/><path d="M328.7 246.5l-1.2 0.8c1.2 4.4 3.1 12.7-5.8 18.5 -7.8 5.1-14.8 0.2-17.8-2.5l-1.6 1.1c0 0 7.1 11.2 22 2.9C334 261.4 329.3 248.3 328.7 246.5z" fill="#5CBB5E"/><path d="M318.8 261.9c0.2 0.3 0.3 0.7 0.1 0.8 -0.2 0.1-0.5-0.1-0.7-0.4 -0.2-0.3-0.3-0.7-0.1-0.8C318.2 261.4 318.5 261.6 318.8 261.9z"/><path d="M312.8 264c0 0.4-0.2 0.8-0.4 0.8 -0.2 0-0.4-0.3-0.4-0.8 0-0.4 0.2-0.8 0.4-0.8C312.6 263.3 312.8 263.6 312.8 264z"/><path d="M312.9 260.7c0 0.4-0.2 0.8-0.4 0.8 -0.2 0-0.4-0.3-0.4-0.8 0-0.4 0.2-0.8 0.4-0.8C312.7 259.9 312.9 260.3 312.9 260.7z"/><path d="M316.7 258.3c0.2 0.4 0.2 0.8 0 0.8 -0.2 0.1-0.5-0.1-0.7-0.5 -0.2-0.4-0.2-0.8 0-0.8C316.2 257.7 316.5 257.9 316.7 258.3z"/><path d="M320.5 254.7c0.4 0.2 0.5 0.6 0.4 0.7 -0.1 0.2-0.5 0.1-0.8-0.1 -0.4-0.2-0.5-0.6-0.4-0.7C319.8 254.4 320.2 254.5 320.5 254.7z"/><path d="M323.8 256.8c0.4 0.1 0.7 0.3 0.7 0.5 0 0.2-0.4 0.3-0.8 0.2 -0.4-0.1-0.7-0.3-0.7-0.5C323.1 256.8 323.4 256.7 323.8 256.8z"/><path d="M324.5 252.2c0.4 0.1 0.7 0.3 0.7 0.5 0 0.2-0.4 0.3-0.8 0.2 -0.4-0.1-0.7-0.3-0.7-0.5C323.7 252.2 324.1 252.1 324.5 252.2z"/><defs><filter filterUnits="userSpaceOnUse" x="295.3" y="239" width="29.2" height="58.5"><feFlood result="back" class="g"/><feBlend in="SourceGraphic" in2="back" mode="normal"/></filter></defs><mask maskUnits="userSpaceOnUse" x="295.3" y="239" width="29.2" height="58.5"><g filter="url(#Adobe_OpacityMaskFilter_4_)"><defs><filter filterUnits="userSpaceOnUse" x="295.3" y="239" width="29.2" height="58.5"><feFlood result="back" class="g"/><feBlend in="SourceGraphic" in2="back" mode="normal"/></filter></defs><mask maskUnits="userSpaceOnUse" x="295.3" y="239" width="29.2" height="58.5"/><radialGradient cx="255.2" cy="288.8" r="68.9" gradientUnits="userSpaceOnUse"><stop offset="0.0022" class="h"/><stop offset="0.1645" class="i"/><stop offset="0.2947" class="j"/><stop offset="0.4138" class="k"/><stop offset="0.5262" class="l"/><stop offset="0.6341" class="m"/><stop offset="0.7384" class="n"/><stop offset="0.8401" class="o"/><stop offset="0.937" class="p"/><stop offset="1" class="q"/></radialGradient><path mask="url(#SVGID_7_)" d="M295.4 239c0 0-1 40.2 2.3 58 20.4 2 26.7-2.6 26.7-2.6S303.7 281.3 295.4 239z" fill="url(#SVGID_8_)"/></g></mask><radialGradient cx="255.2" cy="288.8" r="68.9" gradientUnits="userSpaceOnUse"><stop offset="0.0022" class="h"/><stop offset="0.9102" class="h"/><stop offset="1" class="h"/></radialGradient><path d="M295.4 239c0 0-1 40.2 2.3 58 20.4 2 26.7-2.6 26.7-2.6S303.7 281.3 295.4 239z" fill="url(#SVGID_9_)"/><path d="M244.5 208.9c0 0-13.8 35.4 0.7 44.2 10.2 4 23.7-7.6 23.7-19.7 0.2-11.1 0.7-16.2 8.7-17.3 7.5-0.5 9.5 1.1 9.5 2.1 0 0.9-6.7 1-10.2 2.6 7.5-0.9 11.8 0 12.2 1.3 0.4 1.3-6.4 1-10.4 3.2 10.2-0.3 12.1 0.9 12.4 2 0.4 1-5.4 2.2-10.1 3 8.4 0.8 10.2 2.6 10.3 3.7 0.1 1-3.9 1.1-10.3 2 -3.2 9.3-5.6 10.7-7.6 8.3 -3.8 9.8-20.9 35.3-42.2 27.4 -21.4-7.9-9.7-41.1-2.4-54.1C236.2 204.4 247.3 201.6 244.5 208.9z" class="a"/><path d="M318 218.7c0 0 0.4-10.6 8.4-11.2 8-0.6 14.9 2.9 16.5 7 1.4 4.2 0.9 6.9-3.3 0 0.9 5.5-0.7 7.4-2.1 5 -1.3-2.4-3.3-6.1-3.3-6.1s1.9 7.2 0.5 8.1c-1.4 0.9-5.8-7.7-5.8-7.7s2 8.7-0.2 9.5c-2.2 0.8-5.6-9-5.6-9S319 221 318 218.7z" class="a"/><path d="M255.2 218.4c8.7 0.6 7.1-8.4 5.8-12.9l-15-2c-0.1 0-0.2 0.1-0.3 0.1C245.6 208.3 246.4 217.8 255.2 218.4z" class="t"/><path d="M265.5 206.1l-4.5-0.6c1.3 4.5 2.9 13.4-5.8 12.9 -8.8-0.6-9.6-10.1-9.5-14.7 -9.4 2.7-5.9 18.9 2.3 21.1 8.3 2.2 7.9-5.9 7.9-5.9s6 6.8 9.6 3.6C269.8 218.1 265.5 206.1 265.5 206.1z" class="F"/><path d="M293.6 147.5c0 0 33.1-0.5 42.2 46.8l-9.7 2.9c0 0-2.3-9.1-5-13.5 3.1 10.6 2.5 13.9 2.5 13.9l-9.1 2.3c0 0-1.2-7.8-3.8-11.6 2.8 10 1.6 11.9 1.6 11.9l-8.4 1.1c0 0 3-20.1-10.3-33.5C293.6 168 295.1 157.5 293.6 147.5z" class="H"/><path d="M292.9 147.1c1 2 3.4 2.8 5.4 1.8 2-1 2.8-3.4 1.8-5.3 -1-2-3.4-2.8-5.4-1.8C292.7 142.7 291.9 145.1 292.9 147.1z" class="G"/><path d="M291.3 156.8c1.3 2.6 4.5 3.7 7.1 2.4 2.6-1.3 3.7-4.5 2.4-7.1 -1.3-2.6-4.5-3.7-7.1-2.4C291.1 151 290 154.1 291.3 156.8z" class="I"/><path d="M189.9 159.5c0 0-31.9 16.7-16 66.6l10.7-2.3c0 0-2.5-9.9-2.2-15.5 2.6 11.8 4.8 14.6 4.8 14.6l9.9-2.5c0 0-2.9-8.1-2.3-13.1 2.5 11 4.7 12.2 4.7 12.2l8.6-3.2c0 0-13.3-17.7-7.5-37.4C200.6 179 193.6 169.8 189.9 159.5z" class="H"/><path d="M190.4 158.8c0.1 2.4-1.8 4.4-4.2 4.5 -2.4 0.1-4.4-1.8-4.5-4.2 -0.1-2.4 1.8-4.4 4.2-4.5C188.3 154.5 190.3 156.4 190.4 158.8z" class="G"/><path d="M196.9 167.2c0.1 3.2-2.4 5.9-5.6 6 -3.2 0.1-5.9-2.4-6-5.6 -0.1-3.2 2.4-5.9 5.6-6C194.1 161.5 196.8 164 196.9 167.2z" class="I"/><path d="M306.4 159c0 0 1.1-2 4.1-2 3 0 7.8 3.7 6.9 11 -0.9 7.2-5.1 8.8-9.4 7.6C306.8 164.9 306.4 159 306.4 159z" class="a"/><path d="M290.7 131.2c-19.8 34-57.1 22.1-57.1 22.1s-2.8 12.2-9.1 26.6c-1.4-18.4-14.5-13.2-16.2-5 -1.7 8.1 3.9 17.5 14.7 13.7 7.3 10.6 16 12.4 16 12.4 31.9 12.5 55.8 1.4 63.4-9.5 7.5-10.9 5.4-23.6 5.4-23.6 -1.7-10.8-2.7-20.7-2.7-20.7S297.7 143.1 290.7 131.2z" class="a"/><path d="M308.3 166.1c0.1-0.3 0.2-0.7 0.3-1 0.6-1.9 2.7-3.6 4.8-2.7 1.5 0.7 2.2 1.8 2.4 3.3 -0.4-0.8-0.9-1.6-1.7-2.1 -1.5-0.9-3.2-0.4-3.9 1.2 -0.7 1.3-0.2 3.2 1.2 3.9 0.3 0.2 0.6 0.4 0.9 0.4 0.2 0 0.5 0 0.7-0.1 0.7-0.1 1.2-0.5 1.6-1.1 0 1.4-1.2 2.6-2.6 2.6 -0.7 0-1.5-0.3-2.1-0.8 0.2 1.6 0.9 3 2.4 3.7 0 0 0.1 0.1 0.1 0.1 -1 0.1-2.6-1.5-3-2.2C308.3 169.8 308.3 168 308.3 166.1z" class="u"/><path d="M293.6 170.4c0.1 3.7 1.6 6.6 3.3 6.6 1.7-0.1 2.9-3.1 2.8-6.8 -0.1-3.7-1.6-6.6-3.3-6.6C294.7 163.6 293.4 166.7 293.6 170.4z" class="y"/><path d="M296.7 168.2c0 1.2 0.5 2.1 1.1 2.1 0.5 0 0.9-1 0.9-2.2 0-1.2-0.5-2.1-1-2.1C297 166.1 296.6 167 296.7 168.2z" class="v"/><path d="M264.4 172.3c0.2 4.1 1.8 7.4 3.7 7.3 1.9-0.1 3.2-3.5 3.1-7.6 -0.2-4.1-1.8-7.4-3.7-7.3C265.7 164.7 264.3 168.2 264.4 172.3z" class="y"/><path d="M267.9 169.9c0.1 1.3 0.6 2.4 1.2 2.4 0.6 0 1-1.1 1-2.4 -0.1-1.3-0.6-2.4-1.2-2.4C268.3 167.5 267.9 168.6 267.9 169.9z" class="v"/><path d="M287.9 179.1c-4.1-1.8-6.8 2.7-6.8 2.7s2.6-6.8 8.6-3c5.9 3.7 0.5 11.7-8 9.2C289.7 189.2 291.9 180.9 287.9 179.1z" class="u"/><path d="M298.7 159.4c0 0-4.3-4.8-8.1-0.1 0 0 0.6-3.7 3.7-4.3C297.4 154.5 298.7 159.4 298.7 159.4z" class="H"/><path d="M270.2 162c0 0-4.3-4.8-8.1-0.1 0 0 0.6-3.7 3.7-4.2C268.9 157.1 270.2 162 270.2 162z" class="H"/><path d="M307.5 119c-12-17.4-30-21-42.4-16 -3.7-2-16.5-9.7-36.6-3.4 -27.9 8.1-50.2 37.9-38.7 66.7 17 38.7 49.1 34.8 49.1 34.8s-8.7-1.8-16-12.4c-10.8 3.8-16.4-5.5-14.7-13.7 1.7-8.1 14.8-13.4 16.2 5 6.3-14.4 9.1-26.6 9.1-26.6s37.3 11.9 57.1-22.1c7.1 11.8 14.3 16 14.3 16s1 9.9 2.7 20.7C307.7 167.9 319.3 136.4 307.5 119z" fill="#ED7B24"/><path d="M219.1 175.9c-0.3-0.3-0.5-0.6-0.8-0.9 -1.7-1.7-4.9-2.3-6.5-0.2 -1.2 1.5-1.3 3.1-0.7 4.8 -0.1-1.1 0.1-2.2 0.6-3.1 1.1-1.7 3.1-2.1 4.8-0.9 1.5 1 1.9 3.3 0.9 4.7 -0.2 0.4-0.4 0.7-0.8 0.9 -0.2 0.1-0.5 0.2-0.8 0.2 -0.8 0.3-1.5 0.2-2.2-0.2 0.8 1.5 2.7 2.1 4.1 1.3 0.8-0.4 1.4-1.2 1.8-2 0.7 1.7 0.8 3.7-0.5 5.2 0 0-0.1 0.1-0.1 0.2 1.1-0.5 1.8-3 1.9-3.9C221.1 179.8 220.1 177.9 219.1 175.9z" class="u"/><path d="M256.8 195.6c0 3.1 1 6.2 4 7.9 1.2 0.7 2.7 1.2 4.2 1.4C264.7 198 259.5 196.1 256.8 195.6z" class="w"/><path d="M278.6 194.3c-13-0.3-19.8-7.6-19.8-7.6 -0.4 0.8-1 2.6-1.5 4.7C260.7 194.5 270.1 201.2 278.6 194.3z" class="v"/><path d="M278.6 194.3c-8.5 6.9-17.8 0.1-21.3-2.9 -0.3 1.3-0.5 2.7-0.4 4.1 2.7 0.5 7.9 2.5 8.2 9.3 6.8 1.1 16.1-2.2 22.9-11.4C284.5 194.1 281.4 194.4 278.6 194.3z" class="x"/><defs><filter filterUnits="userSpaceOnUse" x="261.7" y="178" width="2" height="5.4"><feFlood result="back" class="g"/><feBlend in="SourceGraphic" in2="back" mode="normal"/></filter></defs><mask maskUnits="userSpaceOnUse" x="261.7" y="178" width="2" height="5.4"><g filter="url(#Adobe_OpacityMaskFilter_6_)"><defs><filter filterUnits="userSpaceOnUse" x="259.5" y="178" width="4.2" height="5.4"><feFlood result="back" class="g"/><feBlend in="SourceGraphic" in2="back" mode="normal"/></filter></defs><mask maskUnits="userSpaceOnUse" x="259.5" y="178" width="4.2" height="5.4"/><radialGradient cx="67.9" cy="174.3" r="9" gradientTransform="matrix(-0.9753 -0.2212 -0.2212 0.9753 364.391 19.9691)" gradientUnits="userSpaceOnUse"><stop offset="0" class="h"/><stop offset="0.0858" class="z"/><stop offset="0.2353" class="A"/><stop offset="0.4306" class="B"/><stop offset="0.6642" class="C"/><stop offset="0.9275" class="D"/><stop offset="1" class="q"/></radialGradient><path mask="url(#SVGID_10_)" d="M261.7 178c3.5 2.8 1.3 5.4 1.3 5.4s-1.2-1.6-3.5-3.5C260.2 179.2 260.9 178.6 261.7 178z" fill="url(#SVGID_11_)"/></g></mask><radialGradient cx="65.8" cy="174.3" r="9" gradientTransform="matrix(-0.9753 -0.2212 -0.2212 0.9753 364.391 19.9691)" gradientUnits="userSpaceOnUse"><stop offset="0" class="h"/><stop offset="1" class="h"/></radialGradient><path d="M261.7 178c3.5 2.8 1.3 5.4 1.3 5.4" style="fill:url(#SVGID_12_);opacity:0.7"/><defs><filter filterUnits="userSpaceOnUse" x="299" y="177.1" width="1.8" height="2.6"><feFlood result="back" class="g"/><feBlend in="SourceGraphic" in2="back" mode="normal"/></filter></defs><mask maskUnits="userSpaceOnUse" x="299" y="177.1" width="1.8" height="2.6"><g filter="url(#Adobe_OpacityMaskFilter_8_)"><defs><filter filterUnits="userSpaceOnUse" x="299" y="177.1" width="1.8" height="2.6"><feFlood result="back" class="g"/><feBlend in="SourceGraphic" in2="back" mode="normal"/></filter></defs><mask maskUnits="userSpaceOnUse" x="299" y="177.1" width="1.8" height="2.6"/><radialGradient cx="30.4" cy="156.7" r="4.3" gradientTransform="matrix(0.9041 -0.4273 0.4273 0.9041 205.7535 46.8199)" gradientUnits="userSpaceOnUse"><stop offset="0" class="h"/><stop offset="0.0858" class="z"/><stop offset="0.2353" class="A"/><stop offset="0.4306" class="B"/><stop offset="0.6642" class="C"/><stop offset="0.9275" class="D"/><stop offset="1" class="q"/></radialGradient><path mask="url(#SVGID_13_)" d="M299.6 177.1c-1.3 1.6 0 2.6 0 2.6s0.4-0.9 1.3-2C300.4 177.5 300 177.3 299.6 177.1z" fill="url(#SVGID_14_)"/></g></mask><radialGradient cx="30.4" cy="156.7" r="4.3" gradientTransform="matrix(0.9041 -0.4273 0.4273 0.9041 205.7535 46.8199)" gradientUnits="userSpaceOnUse"><stop offset="0" class="h"/><stop offset="1" class="h"/></radialGradient><path d="M299.6 177.1c-1.3 1.6 0 2.6 0 2.6s0.4-0.9 1.3-2C300.4 177.5 300 177.3 299.6 177.1z" style="fill:url(#SVGID_15_);opacity:0.7"/><path d="M298.9 357.8c0 0-4.8-2.4-4.4-5.3 0.4-2.3 5.1-2.6 19.3-2.5 14.2 0.1 57.5 0.9 45.3 11.3C348.7 360.6 298.9 357.8 298.9 357.8z" class="s"/><path d="M293.7 364.8c0 0-4.7-7.5 8-7.2 12.7 0.3 44.3 1.9 51.4 2 6.7 0.2 8.5 2.4 7.7 7.1C339.1 366.3 293.7 364.8 293.7 364.8z" class="G"/><polygon points="372.2 366.9 279.1 364.1 280.7 390.6 374 394.2 " class="J"/><polygon points="280.7 390.6 281.1 397 374.4 400.4 374 394.2 " class="K"/><polygon points="456.3 363.3 372.2 366.9 374 393.9 455.1 384.9 " class="L"/><polygon points="374 393.9 374.4 400.4 454.7 392 455.1 384.9 " fill="#752E0E"/><polygon points="395.8 380.2 473.1 373 513.6 306.5 429.9 306.2 " class="K"/><path d="M372.2 366.9l23.6 13.3 34.1-74 -31.7-13C383.1 328.9 372.2 366.9 372.2 366.9z" class="J"/><path d="M502.1 293.8c0 0-59.2-13-103.9-0.6l31.7 13 83.7 0.3L502.1 293.8z" fill="#F6A22E"/><path d="M449.8 287.9l2.7 4.9 19.8-1.1 -2.1-4.2C470.2 287.6 456.9 286.2 449.8 287.9z" class="L"/></svg>