<svg version="1.1" id="Layer_1" xmlns="http://www.w3.org/2000/svg" xmlns:xlink="http://www.w3.org/1999/xlink" viewBox="0 0 768 430" enable-background="new 0 0 768 430" xml:space="preserve">
<g>
	<path fill="#DC8944" stroke="#DC8944" stroke-width="0.712" d="M263.638,255.684l3.101-4.65l2.325,3.489
		c1.55,2.065,2.326,3.228,2.326,3.489v0.388l-3.488,4.263c-2.326,2.842-3.618,4.265-3.876,4.265v0.389h-0.388v0.774h-0.388v0.387
		h-0.775v-0.387h-0.388v-0.774h-0.388v-0.389h-0.388v-0.775l-0.387-0.389l-0.388-0.386v-0.39c0-0.258-0.258-0.774-0.775-1.55
		l-0.388-1.163l0.388-0.388v-0.774l0.388-0.391C260.408,260.464,261.57,258.784,263.638,255.684z"/>
	<path fill="#F3F2E6" stroke="#F3F2E6" stroke-width="0.712" d="M319.448,323.508l0.387-0.387h1.163v0.387c0,0,0.129,0,0.388,0
		v0.389h0.387v0.389h0.387v0.387h0.388v1.551l-0.775,1.163c-0.516,0.518-0.904,0.775-1.163,0.775v0.388h-0.388
		c-0.257-0.258-0.517-0.388-0.775-0.388s-0.516-0.647-0.776-1.938l-0.387-1.938h0.387
		C318.672,324.284,318.931,324.024,319.448,323.508z"/>
	<path fill="#0A9CC3" stroke="#0A9CC3" stroke-width="0.712" d="M267.901,262.659l3.488-4.262l1.55,2.324
		c1.034,1.292,1.55,2.066,1.55,2.327h-0.389v0.387h-0.388v0.775h-0.388v0.388h-0.388l-2.326,4.265
		c-1.55,2.843-2.455,4.393-2.713,4.648l-0.388,0.389v0.774h-2.325v-1.549l-0.388-0.39l-0.388-0.387v-0.387
		c0,0-0.387-0.388-1.163-1.164l-0.775-1.163v-0.389c0.259,0,0.388-0.128,0.388-0.389v-0.387h0.387v-0.389h0.388v-0.773h0.388v-0.387
		C264.284,266.925,265.575,265.503,267.901,262.659z"/>
	<path fill="#E9B96D" stroke="#E9B96D" stroke-width="0.712" d="M295.419,228.554v0.388c0,0.26,1.033,1.034,3.101,2.327
		c2.325,1.549,3.616,2.325,3.875,2.325h0.775v0.388c0,0.257-1.034,0.904-3.101,1.938c-2.326,1.033-5.296,2.583-8.914,4.651
		c-3.617,2.066-7.363,4.908-11.239,8.526l-5.427,5.426h-0.388v0.389h-0.388v0.389h-0.388v0.389h-0.387V255.3l-0.388-0.389
		l-0.388-0.389v-0.388h-0.388v-0.388h-0.388v-0.388c0-0.259-0.517-1.164-1.55-2.714l-1.163-2.324h0.387v-0.391h0.389v-0.389h0.387
		v-0.387h0.387c0-0.259,0.646-1.293,1.938-3.101c1.55-1.809,2.713-2.972,3.488-3.488c0.775-0.518,2.584-1.81,5.426-3.877
		c2.842-2.324,5.813-4.134,8.914-5.424l4.263-1.939l0.389-0.388C295.16,228.683,295.419,228.554,295.419,228.554z"/>
	<path fill="#C2CB82" stroke="#C2CB82" stroke-width="0.712" d="M207.053,207.625l0.388-0.388h0.387c0,0,0.775,0.129,2.325,0.388
		h2.713c0,0.258,0.129,0.388,0.388,0.388l0.775,1.162c0.517,0.774,0.775,1.164,0.775,1.164v0.388h-2.325
		c-1.55,0.257-2.712,0.388-3.489,0.388c-0.774,0.258-1.162,0.517-1.162,0.774c0,0.258-0.259,0.517-0.775,0.775h-0.387v-0.388
		l0.387-0.388c0,0,0-0.257,0-0.774v-0.775c0,0,0.258-0.258,0.775-0.775c0.517-0.257,0.388-0.518-0.387-0.776l-0.775-0.774
		C206.666,208.014,206.795,207.884,207.053,207.625z"/>
	<path fill="#78C6E0" stroke="#78C6E0" stroke-width="0.712" d="M220.618,248.321l3.101-1.939v5.038l0.388,4.652v0.774h0.387
		l-0.387,0.774c0,0.518-0.129,0.776-0.388,0.776v0.387h-0.387v0.388h-1.163l-2.713,1.938c-2.067,1.033-3.617,2.066-4.65,3.101
		c-1.033,0.774-1.55,1.292-1.55,1.549h-0.388v0.39h-0.388v0.39h-0.387v0.387h-0.387v0.389h-0.388v0.388h-0.388v0.388v-3.488
		l0.388-0.774c0.258-0.259,0.646-1.549,1.163-3.876s1.162-4.135,1.938-5.427l1.163-1.938c0.258-0.257,0.387-0.387,0.387-0.387h0.388
		v-0.389h0.388v-0.389h0.388v-0.388c0,0,0.129-0.127,0.387-0.39C217.775,250.645,218.809,249.87,220.618,248.321z"/>
	<path fill="#007FFF" stroke="#71C3E7" stroke-width="0.712" d="M195.038,232.817l-2.325-6.588h0.387
		c0,0.258,6.459,0.388,19.378,0.388h18.991l0.387,0.387l-3.489,4.266c-2.325,2.842-3.487,4.391-3.487,4.649l-1.163,1.551
		c-0.775,0.774-1.163,1.29-1.163,1.549h-8.526c-5.685,0-9.819,0.13-12.402,0.388h-4.264
		C197.106,239.406,196.33,237.21,195.038,232.817z"/>
	<path fill="#B6DBE5" stroke="#B6DBE5" stroke-width="0.712" d="M314.022,200.262v-0.389l4.65,1.551
		c3.359,1.291,5.426,2.066,6.202,2.325c0.517,0.518,0.904,0.904,1.163,1.162v0.775h-0.389c0,0-0.258,0-0.774,0
		s-3.101,0.646-7.751,1.938l-6.588,2.325v-0.774c0-0.517-1.163-1.292-3.489-2.325l-3.875-1.164h-1.551v-0.388h-0.388v-0.388h0.776
		v-0.387h0.387v-0.388h0.775l0.388-0.389l0.387-0.387l5.039-1.163C312.341,201.166,314.022,200.521,314.022,200.262z"/>
	<path fill="#C9BE71" stroke="#C9BE71" stroke-width="0.712" d="M199.689,211.502h0.387v0.387h0.387v0.388h0.388v0.774l0.776,0.388
		c0.258,0.517,0.517,0.776,0.774,0.776l0.775,1.163c0.258,0.774,0.517,1.163,0.775,1.163c0,0-1.034,0.129-3.101,0.387
		c-2.066,0.259-4.263,0.646-6.588,1.163l-3.488,1.163v0.775l-0.388-0.389v-0.388l-0.388-0.388v-1.163l-0.387-0.388l-0.388-0.774
		v-1.163h-0.388v-0.776l-0.388-0.386v-0.389h0.388c0.258,0.258,0.646,0.389,1.163,0.389c0.259,0,0.776-0.389,1.55-1.164l1.164-0.775
		h0.387v0.389l3.101-0.776C198.268,211.372,199.431,211.243,199.689,211.502z"/>
	<path fill="#007FFF" stroke="#74C4E7" stroke-width="0.712" d="M191.55,226.229v-0.389l1.938,5.428
		c1.292,3.617,1.938,5.683,1.938,6.201v0.774l0.388,0.388l0.387,0.388v0.775H190c-3.875,0-8.527,0-13.952,0l-8.526,0.388v-1.163
		c0-1.034,0.388-3.23,1.163-6.588l1.162-5.039c0.259,0,0.646-0.258,1.163-0.774l0.775-0.388l9.688,0.388
		C188.191,226.616,191.55,226.487,191.55,226.229z"/>
	<path fill="#F1D692" stroke="#F1D692" stroke-width="0.712" d="M207.44,278.551l0.387-4.65l0.389,3.49
		c0.257,2.324,0.387,3.357,0.387,3.101c0-0.258,0.129,0.517,0.387,2.325v2.712l-0.387,0.775c-0.258,0.518-0.517,0.902-0.775,1.164
		v-1.164c0-1.034-0.129-2.065-0.387-3.101c-0.259-0.774-0.388-0.903-0.388-0.391C207.053,283.33,207.182,281.909,207.44,278.551z"/>
	<path fill="#15ADD7" stroke="#15ADD7" stroke-width="0.712" d="M254.336,255.296v-0.773l1.55,2.712
		c1.035,1.81,1.68,2.843,1.938,3.102l0.388,0.386v0.775l0.388,0.39l0.388,0.388v0.388c0,0.257-1.42,0.775-4.263,1.551
		c-2.843,0.774-5.684,1.938-8.526,3.489c-2.842,1.549-5.297,3.1-7.364,4.649c-2.067,1.81-3.101,2.712-3.101,2.712v0.388h-0.389
		l-4.65,5.428c-3.358,3.359-5.038,5.167-5.038,5.427c0,0.258-0.129,0.387-0.388,0.387v0.39h-1.55l-0.387-0.39l-0.389-0.387h-1.162
		l-0.775-0.388h-0.388v-0.39h-0.387v-0.388h0.387v-0.389h0.776v-0.388h0.388v-0.388h0.775v-0.389c0,0,0.258-0.129,0.775-0.388
		c0.516-0.517,1.55-1.035,3.1-1.551c1.55-0.517,2.325-1.163,2.325-1.937c0-0.776-0.516-2.713-1.55-5.813l-1.55-4.65h0.389v-0.389
		h0.387v-0.773l0.387-0.388l0.388-0.39v-0.387l0.388-0.39c0.258-0.257,1.033-1.422,2.325-3.488l2.325-3.49h0.388
		c0-0.256,0-0.386,0-0.386c0.258,0,0.388-0.13,0.388-0.39h0.387l0.387,0.39h0.388l0.388-0.39c0.258,0,0.387-0.128,0.387-0.389
		c0.258,0,1.292,0.259,3.1,0.776c1.808,0.517,3.23,0.774,4.264,0.774c0.775-0.258,1.938-0.774,3.488-1.551
		c1.292-1.032,2.195-1.548,2.713-1.548c0.517,0,1.034,0,1.55,0c0.516,0,1.291-0.13,2.324-0.389l1.551-0.389h-0.388
		c0,0,0.129-0.13,0.388-0.388h0.387v-0.385h-0.003V255.296z"/>
	<path fill="#C9A27B" stroke="#C9A27B" stroke-width="0.712" d="M190.776,170.031l1.162-0.775l-0.388,0.387
		c0,0.258-0.128,0.516-0.387,0.775c-0.258,0-0.388,0.129-0.388,0.387c0,0.259-0.129,0.517-0.388,0.775l-0.388,0.387l-3.1,6.976
		c-2.584,4.651-4.91,9.561-6.977,14.728c-2.066,5.167-3.099,7.881-3.099,8.139v0.775l-0.388,0.775l-0.388,0.387v1.162l-1.163,2.713
		c-0.775,1.809-1.162,3.101-1.162,3.876v3.487l-0.389,0.775c-0.258,0.258-0.517,0.517-0.775,0.775l-0.388,0.774v3.101h-0.387
		c0,0,0.129,0.13,0.387,0.388h0.388l-0.388,1.162c-0.517,0.776-0.646,1.292-0.387,1.551l-0.388,0.389
		c-0.516,0.258-0.775,0.516-0.775,0.773l-0.387,0.389c-0.258,0.517-0.388,1.034-0.388,1.55v0.775l-1.163,5.039
		c-0.775,3.356-1.163,5.555-1.163,6.588v1.163l-0.775,5.036c-0.516,3.103-1.034,6.978-1.549,11.628
		c-0.517,4.65-0.647,11.369-0.388,20.154c0.258,9.042,0.646,16.019,1.163,20.929c0.517,4.648,0.905,7.363,1.163,8.139v1.161h-5.813
		v-0.774c0-0.257-0.387-3.358-1.162-9.301c-0.774-5.941-1.163-12.79-1.163-20.543s0.516-15.631,1.55-23.643l1.55-11.624v-1.55
		c0,0,0.516-2.326,1.55-6.977c0.775-4.393,1.034-6.588,0.775-6.588c-0.258-0.26-0.646-0.26-1.163,0l-0.775,0.387v-0.387l0.388-0.39
		v-1.162c0-0.774,0.129-1.163,0.388-1.163v-0.387h0.388c0.258,0.257,0.646,0.129,1.162-0.389c0.258-0.257,0.904-1.55,1.938-3.876
		c1.034-2.066,1.55-3.616,1.55-4.649v-1.55c0-0.258,0.129-0.518,0.388-0.776c0.258,0,1.292-2.712,3.101-8.139
		c1.808-5.426,4.264-11.497,7.364-18.215l4.65-10.078v-0.387l0.387-0.388l0.387-0.774v-0.775h-0.387c0,0,0.775-0.388,2.325-1.162
		l2.325-1.163h0.388C189.483,170.807,190,170.549,190.776,170.031z"/>
	<path fill="#B6DCE6" stroke="#B6DCE6" stroke-width="0.712" d="M252.011,218.09l4.65-2.711h0.388v0.387h0.387l0.387,0.388
		l0.388,0.388h0.388v0.388h0.388v0.388h0.776v0.389h0.387v0.388l1.163,0.774c1.034,0.518,1.55,0.904,1.55,1.163l-6.977,4.65
		c-4.65,3.101-7.105,4.78-7.364,5.039c-0.258,0.257-0.517,0.517-0.775,0.774l-0.388,0.388v0.389h-0.387v0.388h-0.388v0.388h-0.775
		v-0.774h0.388v-0.389c0.258,0,0.388-0.13,0.388-0.388c0.516-0.258,0-0.774-1.55-1.551c-1.292-0.517-2.584-1.033-3.876-1.548
		l-1.549-0.39v-0.388h0.388l0.387-0.387l0.388-0.389h0.387v-0.388h0.388v-0.388c0.258,0,1.163-0.775,2.712-2.326
		C246.327,221.449,248.91,219.898,252.011,218.09z"/>
	<path fill="#0BA4CC" stroke="#0BA4CC" stroke-width="0.712" d="M332.625,208.788h0.387l0.388,0.388l0.388,0.389h0.775v0.387h0.388
		v0.775h-0.775l-0.776,0.388h-1.162l-0.775,0.388c-0.517,0.258-1.55,0.645-3.101,1.162c-1.55,0.517-3.488,1.551-5.813,3.101
		c-2.583,1.549-4.65,3.358-6.201,5.427l-2.325,2.712v0.388h-0.388v0.388c-0.258,0-0.388,0.129-0.388,0.389l-1.55,3.874
		c-1.034,2.844-1.551,4.652-1.551,5.427c0,1.034-0.129,1.938-0.389,2.714v1.162h-1.549v-0.389h-0.387v-0.386h-0.388l-0.387-0.389
		l-0.387-0.389h-0.389l-0.387-0.387l-0.387-0.389c0,0-0.389-0.259-1.163-0.774l-1.163-1.163v-0.388l0.388-0.775
		c0.258-0.258,0.387-0.517,0.387-0.774c0-0.519,1.422-2.843,4.263-6.977c2.843-4.135,5.556-7.493,8.139-10.077
		c2.584-2.842,4.91-4.909,6.975-6.202l3.102-2.325h0.775c0.774,0,1.807,0.388,3.1,1.163
		C331.591,208.401,332.366,208.788,332.625,208.788z"/>
	<path fill="#F1DF96" stroke="#F1DF96" stroke-width="0.712" d="M313.634,199.874h0.388c0,0.259,0,0.389,0,0.389h0.387
		c0,0-1.68,0.516-5.038,1.55l-5.427,1.55l-0.387,0.388l-0.388,0.387h-0.775v0.388h-0.387v0.388h-0.776v0.389h-0.387
		c-0.259,0.259-1.163,0.775-2.713,1.55l-2.713,1.163l-0.388,0.388h-0.387v-0.775h-0.388v-0.388h-0.775v-0.389
		c0-0.258,0.258-0.517,0.775-0.775l0.775-0.388l-0.775-0.388c-0.517-0.259-1.42-0.517-2.713-0.775
		c-1.033-0.257-2.454-0.517-4.262-0.774l-2.713-0.388l0.388-0.388l0.387-0.388h0.776v-0.387h0.386v-0.389h0.776l2.712-1.938
		c2.067-1.292,3.101-1.938,3.101-1.938h6.201c4.134,0,7.493,0.258,10.077,0.776C311.954,199.229,313.375,199.615,313.634,199.874z"
		/>
	<path fill="#E0DD99" stroke="#E0DD99" stroke-width="0.712" d="M193.875,200.262h3.875c2.843,0.517,5.168,1.163,6.977,1.938
		c2.067,0.775,3.618,1.549,4.65,2.325c1.293,0.775,1.938,1.292,1.938,1.55h0.388v0.388h0.387v0.388h0.387v0.388h0.775v0.775h-0.775
		l-2.326-0.388c-1.549-0.258-2.325-0.388-2.325-0.388h-0.387c-0.259-0.258-0.518-0.645-0.775-1.163
		c-0.517-0.258-1.55-0.645-3.101-1.164l-2.326-0.387v-0.388c-0.257,0-0.388-0.129-0.388-0.388c-0.258-0.258-0.388-0.387-0.388-0.387
		c0-0.518-0.516-0.905-1.55-1.163c-1.034-0.517-1.55-0.904-1.55-1.163c0-0.26-0.645-0.517-1.938-0.775h-1.55V200.262z"/>
	<path fill="#F1E19E" stroke="#F1E19E" stroke-width="0.712" d="M251.235,210.726h0.388v0.388c0,0.258-0.129,0.388-0.388,0.388
		c-0.258,0-0.387,0.129-0.387,0.387v0.775h0.775v0.388h0.389v0.388h0.773l0.389,0.388l0.388,0.389h0.774l0.775,0.774
		c0.258,0,0.516,0.128,0.774,0.389h0.776l-4.65,2.712c-3.101,1.809-5.685,3.359-7.753,4.65c-1.549,1.55-2.454,2.326-2.712,2.326
		v0.388h-0.389v0.388h-0.387l-0.388,0.389l-0.388,0.387h-0.388c0,0-0.129-0.128-0.387-0.387l-0.389-0.389h-0.388v-0.388h-0.387
		v-0.388h-0.776l-0.388-0.389h-0.387v-0.774h0.387v-0.388h0.388v-0.388h-0.388v-0.388c-0.258,0-0.387,0-0.387,0v-0.389
		c0-0.259,0.646-0.903,1.937-1.938c1.292-1.033,1.938-1.938,1.938-2.713v-0.775l0.388,0.388c0.258,0.519,0.646,0.646,1.163,0.389
		c0.258-0.258,0.388-0.389,0.388-0.389h0.387v-0.388h0.388v-0.387h0.388v-0.389h-0.388v-0.388h-0.388
		c-0.258,0-0.516-0.258-0.775-0.775h-0.387v-0.388h-0.388v-0.386h-0.388v-0.389h-0.388v-0.775h0.388l0.388,0.388h0.388v0.389h0.387
		v0.389h0.388v0.386h0.387v0.388h0.776c0.516,0.517,1.808,0,3.875-1.549C249.686,211.889,250.977,210.983,251.235,210.726z"/>
	<path fill="#E7AF65" stroke="#E7AF65" stroke-width="0.712" d="M219.455,286.302l1.163-0.389h0.388l0.775,0.389h1.162l0.389,0.388
		l0.387,0.389h1.163v2.326c0,1.29-0.129,2.066-0.388,2.326c-0.258,0-0.646,0.128-1.163,0.389l-1.163,0.387h-1.55v0.391h-0.387
		c-0.258,0.255-1.033,0.387-2.326,0.387l-1.937,0.771h-1.163l-0.387,0.387h-0.388v-0.774l0.388-0.388v-0.389h0.387v-0.774h0.388
		v-0.389h0.389v-0.389c0-0.256,0.516-1.035,1.549-2.325C218.164,287.722,218.938,286.818,219.455,286.302z"/>
	<path fill="#007FFF" stroke="#69C2E8" stroke-width="0.712" d="M313.246,224.678h0.387v0.389c-0.258,0.259-0.387,0.517-0.387,0.774
		v0.389h-0.388v0.388H631.05v22.479h-0.386c-0.26,0-0.391,0.129-0.391,0.388c0,0.26-0.127,0.129-0.387-0.388
		c-0.258-0.258-0.776-0.258-1.55,0c-1.034,0-12.402-0.258-34.105-0.775c-21.704-0.519-35.788-0.775-42.244-0.775
		c-6.46,0-13.05-0.256-19.767-0.774c-6.719,0-33.46-0.645-80.227-1.938c-46.766-1.291-74.928-1.938-84.49-1.938
		c-9.56,0-16.407,0.131-20.541,0.39c-4.135,0.258-6.201,0.518-6.201,0.774v0.389h-4.651c-0.775,0-6.33-0.517-16.665-1.551
		l-15.89-1.55l1.55-0.388l1.55-0.388l1.55-0.388c0.776-0.517,1.292-0.904,1.55-1.163v-1.938c0.258-0.774,0.776-2.972,1.55-6.588
		C312.341,226.616,312.988,224.678,313.246,224.678z"/>
	<path fill="#64A0DB" stroke="#85C7E2" stroke-width="0.712" d="M630.665,249.096h0.386v70.149l-0.386,1.549v1.55h-3.103
		c-2.066-0.259-4.264-0.516-6.589-0.775c-2.066-0.257-12.66-1.679-31.778-4.263c-18.862-2.584-35.787-4.781-50.773-6.59
		c-14.985-1.807-26.739-3.228-35.268-4.263c-8.269-1.549-16.535-3.229-24.804-5.038c-8.527-1.809-13.177-2.844-13.952-3.1
		c-0.517,0-0.775-0.13-0.775-0.39c0-0.258-0.775-0.646-2.324-1.163c-1.292-0.773-3.359-1.679-6.202-2.71
		c-3.102-1.035-7.234-2.457-12.402-4.267c-5.168-1.809-8.01-2.841-8.527-3.101c-0.774-0.257-1.165-0.515-1.165-0.773
		c0-0.258-0.645-0.646-1.935-1.163c-1.551-0.257-2.328-0.518-2.328-0.774c0-0.258-0.517-0.519-1.549-0.774
		c-1.035-0.517-1.55-0.776-1.55-0.776c-0.257-0.257-0.518-0.387-0.775-0.387c-0.518-0.259-4.004-1.938-10.465-5.038
		c-6.459-3.618-12.271-7.233-17.442-10.853c-5.167-3.617-9.041-6.201-11.625-7.749c-2.583-1.551-6.588-3.36-12.015-5.429
		c-5.425-2.066-12.273-3.875-20.541-5.427l-12.789-2.326l-1.164-0.386l-1.55-0.39h3.488v-0.388c0-0.259,2.066-0.517,6.201-0.774
		c4.134-0.258,10.98-0.389,20.541-0.389c9.562,0,37.722,0.646,84.49,1.938c46.767,1.292,73.51,1.937,80.227,1.937
		c6.718,0.519,13.307,0.776,19.767,0.776c6.456,0,20.54,0.256,42.244,0.775c21.703,0.515,33.072,0.773,34.104,0.773
		c0.775-0.259,1.293-0.259,1.552,0c0.258,0.517,0.387,0.646,0.387,0.389C630.274,249.223,630.404,249.096,630.665,249.096z"/>
	<path fill="#ECC34F" stroke="#ECC34F" stroke-width="0.712" d="M262.088,205.688h0.775l1.163,0.775
		c0.775,0.258,1.163,0.517,1.163,0.774v0.388c0,0-0.129,0.129-0.388,0.388c-0.258,0-0.387,0-0.387,0v0.388
		c0,0-0.129,0.128-0.388,0.387l-3.101,2.714c-1.809,1.809-2.842,2.713-3.101,2.713v0.386h-0.387v0.388h-0.387v0.389h-1.164
		c-0.258-0.26-0.516-0.389-0.774-0.389l-0.775-0.774h-0.774l-0.388-0.389l-0.389-0.388h-0.773v-0.388h-0.389v-0.387h-0.775v-0.776
		l0.387-0.387v-0.389h0.388v-0.388h0.389v-0.387l4.65-2.326C260.021,206.463,261.829,205.688,262.088,205.688z"/>
	<path fill="#F1E098" stroke="#F1E098" stroke-width="0.712" d="M255.886,224.678l6.977-4.65h0.387v0.389h0.388l3.101,3.101
		c2.066,2.066,3.101,3.101,3.101,3.101h0.388v0.387h0.388v0.389l0.388,0.388l0.388,0.389v0.388h-0.388v0.387h-1.162l-0.388,0.389
		c-0.258,0.258-1.938,1.163-5.038,2.713l-4.651,2.325h-0.388l-0.387,0.389l-0.388,0.389h-0.387l-0.388,0.387l-0.387,0.388
		l-3.1,1.938c-1.809,1.292-2.712,1.938-2.712,1.938h-0.388v0.389h-0.387v0.387h-1.163v-0.774h0.387c0,0-0.129-0.388-0.387-1.162
		c0-0.776-0.518-1.681-1.55-2.714c-0.775-1.032-1.292-1.549-1.549-1.549c-0.258,0-0.518-0.388-0.776-1.162v-1.163
		c0.258,0,0.388-0.131,0.388-0.388h0.388c0-0.259,0-0.388,0-0.388c0.258,0,0.387-0.13,0.387-0.389h0.387c0-0.259,0-0.388,0-0.388
		c0.259,0,0.647-0.258,1.163-0.774C248.781,229.458,251.235,227.779,255.886,224.678z"/>
	<path fill="#DE934D" stroke="#DE934D" stroke-width="0.712" d="M230.694,280.876l4.65-5.429v0.389l0.389,0.389V277h0.388
		l0.388,0.388h0.387v0.387l0.388,0.391v0.387h0.388v-0.387h0.388v0.774l0.775,0.388c0.517,0.518,0.905,0.646,1.163,0.388
		c0.258,0,0.387,0.13,0.387,0.39c0,0.258-0.129,0.387-0.387,0.387l-6.588,6.589c-4.393,4.65-6.718,6.977-6.977,6.977h-1.163
		l-0.387-0.388l-0.775-0.39h-2.325l-0.775-0.388h-0.387v-0.389h1.55l1.163-0.388c0.517-0.258,0.904-0.389,1.163-0.389
		c0.258-0.258,0.388-1.035,0.388-2.326v-2.325h0.387v-0.39c0.259,0,0.388-0.129,0.388-0.387
		C225.656,286.043,227.336,284.234,230.694,280.876z"/>
	<path fill="#B2CA6B" stroke="#B2CA6B" stroke-width="0.712" d="M183.411,207.237l0.388-0.387l0.775,0.387
		c0.517,0.518,0.904,0.904,1.163,1.164c0,0.258,0.517,0.645,1.55,1.163c0.775,0.775,1.421,1.292,1.938,1.55
		c0,0.258,0.129,0.389,0.388,0.389v0.387h1.938l0.775,0.388h0.388l-1.164,0.774c-0.774,0.775-1.292,1.165-1.55,1.165
		c-0.517,0-0.904-0.13-1.163-0.389h-0.388v-0.389c0-0.257-0.775-0.257-2.325,0l-2.714,0.389v1.163l0.388,0.775v2.325h0.388v0.389
		h-1.163c-1.034-0.258-2.326-0.258-3.875,0c-1.292,0.257-2.454,0.517-3.488,0.774l-1.938,0.775v0.388h-0.774v0.388h-0.776v0.389
		v-3.877l0.387-0.774c0.259-0.257,0.517-0.518,0.775-0.774l0.388-0.775h0.388v-0.388h0.388v-0.387h0.775v-0.389h0.387v-0.388h0.387
		c0,0,0.775-0.517,2.325-1.55c1.549-1.033,2.584-1.679,3.1-1.938c0.26-0.517,0.518-0.775,0.776-0.775s0.387-0.129,0.387-0.388
		c-0.258-0.258-0.258-0.516,0-0.774c0.259,0,0.387-0.129,0.387-0.388C183.022,207.367,183.153,207.237,183.411,207.237z"/>
	<path fill="#29B3D9" stroke="#29B3D9" stroke-width="0.712" d="M268.289,205.3h0.388v0.388h0.387V205.3h0.388v0.388l3.101,0.388
		c1.81,0.258,2.712,0.646,2.712,1.163c0,0.517,0.13,0.904,0.387,1.164v0.387l-1.938,1.551c-1.55,0.775-2.842,1.679-3.876,2.712
		c-0.775,0.775-2.067,2.067-3.876,3.875c-1.55,1.809-2.325,2.713-2.325,2.713h-0.388v0.389h-0.387c0-0.259-0.517-0.646-1.55-1.163
		l-1.163-0.775v-0.388h-0.387v-0.388h-0.776v-0.389h-0.388v-0.387h-0.388l-0.388-0.388l-0.387-0.389h-0.387v-0.775h0.387V214.6
		h0.387v-0.387c0.259,0,1.293-0.904,3.101-2.713l3.101-2.713h0.387c0,0,0-0.129,0-0.388c0.258-0.258,0.387-0.388,0.387-0.388h0.388
		c0,0,0-0.129,0-0.388l1.55-1.163C267.771,205.688,268.289,205.3,268.289,205.3z"/>
	<path fill="#42B8DB" stroke="#42B8DB" stroke-width="0.712" d="M233.408,234.367l6.201-7.365l1.55,0.39
		c1.292,0.516,2.584,1.034,3.876,1.549c1.55,0.517,2.325,0.904,2.325,1.163v0.388c0,0-0.129,0-0.387,0v0.388
		c-0.259,0-0.388,0.13-0.388,0.39c0,0-0.129,0-0.388,0v0.387c-0.258,0-0.388,0.128-0.388,0.388l-6.201,6.202
		c-4.134,4.393-7.364,8.139-9.689,11.239c-2.326,3.356-3.488,5.038-3.488,5.038h-0.387v0.388h-0.388v0.775l-0.388,0.389
		l-0.387,0.387v0.39h-0.775v-0.775l-0.389-4.65v-5.427c0.258,0,0.518-0.257,0.776-0.774l0.388-1.164l0.387-0.388h0.388v-0.775h0.388
		v-0.389h0.387v-0.387l0.387-0.389C227.078,241.474,229.273,239.019,233.408,234.367z"/>
	<path fill="#D4C657" stroke="#D4C657" stroke-width="0.712" d="M178.373,203.75v-0.388h1.163l1.163,0.388
		c0.517,0.258,1.163,0.647,1.938,1.162c0.775,0.776,1.163,1.293,1.163,1.551v0.388l-0.388,0.388c-0.258,0-0.388,0.129-0.388,0.388
		c0,0.259-0.129,0.388-0.387,0.388c-0.258,0.258-0.258,0.517,0,0.774c0,0.258-0.129,0.388-0.387,0.388s-0.516,0.258-0.776,0.775
		c-0.516,0.259-1.55,0.905-3.1,1.938c-1.55,1.034-2.325,1.55-2.325,1.55h-0.388v0.388h-0.387v0.389h-0.775v0.387h-0.388v0.388
		h-0.387v-3.488c0-0.776,0.387-2.068,1.162-3.876l1.163-2.713h0.388l0.388-0.388l0.388-0.388h0.775v-0.388L178.373,203.75
		L178.373,203.75z"/>
	<path fill="#99BA72" stroke="#99BA72" stroke-width="0.712" d="M319.834,316.92h0.388v1.936l-0.388,2.327v1.938l-0.387,0.387
		c-0.516,0.517-0.776,0.776-0.776,0.776h-1.55v-1.552l0.388-0.774l0.388-0.388v-0.388c0-0.518-0.128-1.035-0.388-1.55l-0.388-0.388
		h0.388c0.259,0,0.388,0.129,0.388,0.388v0.389l0.388-0.389c0.257-0.257,0.517-0.775,0.775-1.549l0.388-0.776h0.387V316.92z"/>
	<path fill="#EABD71" stroke="#EABD71" stroke-width="0.712" d="M258.987,262.659v-0.388h0.387l0.389,1.164
		c0.516,0.773,0.775,1.292,0.775,1.548v0.391l0.388,0.386l0.387,0.389v0.776h0.387v0.388h0.388v0.774h0.388v0.387h0.387v0.39
		c0,0.256-0.129,0.387-0.387,0.387v0.389l-5.814,1.938c-4.134,1.549-7.751,3.357-10.853,5.426c-3.358,2.066-5.167,3.23-5.426,3.488
		h-0.775c0-0.256-0.258-0.515-0.775-0.776l-0.774-0.772v-0.775h-0.388v0.389h-0.388v-0.389l-0.388-0.387v-0.39h-0.388l-0.388-0.388
		h-0.388v-0.775l-0.388-0.387v-0.39h0.388v-0.388c0,0,1.034-0.902,3.101-2.712c2.067-1.55,4.521-3.102,7.363-4.649
		c2.843-1.551,5.684-2.713,8.527-3.489C257.566,263.436,258.987,262.918,258.987,262.659z"/>
	<path fill="#F5F0C0" stroke="#F5F0C0" stroke-width="0.712" d="M335.725,314.206h2.325l1.163,0.775
		c0.776,0.516,1.292,0.773,1.551,0.773v0.39h0.388v1.938h-1.551l-0.775,0.387c-0.258,0.259-1.292,0.646-3.101,1.163
		c-1.809,0.516-3.488,1.034-5.038,1.55c-1.293,0.775-2.197,1.549-2.713,2.325l-0.774,1.551h-0.775v0.773h0.387v0.389
		c-0.259,0-0.387,0.129-0.387,0.389v0.389h-0.388l-0.389-0.389h-1.55l-0.776-0.389h-0.774v-1.55h-0.388v-0.387h-0.387v-0.39h-0.387
		v-0.389h-0.775v-0.387h-0.388v-0.39h1.55l0.387-0.387l0.388-0.39l2.714-2.712c2.066-1.808,4.005-2.971,5.813-3.49
		C332.883,314.723,334.434,314.206,335.725,314.206z"/>
	<path fill="#F5E74B" stroke="#F5E74B" stroke-width="0.712" d="M348.515,326.609v3.1h-0.388v0.774h-2.325
		c-1.292,0-3.488-0.257-6.589-0.774l-4.65-0.774c0,0-1.421-0.388-4.263-1.163l-3.875-0.773v-0.389h-0.388l0.388-0.389l0.387-0.389
		h-0.387v-0.773h0.775l0.774-1.551c0.517-0.775,1.421-1.55,2.713-2.325c1.55-0.518,3.229-1.035,5.038-1.55
		c1.809-0.516,2.842-0.902,3.101-1.163l0.775-0.387h1.551v-1.938h-0.388v-0.39c-0.259,0-0.775-0.258-1.551-0.773l-1.163-0.775
		h-0.387h1.938c1.551,0,2.325-0.129,2.325-0.389c0.258-0.257,1.163,0.519,2.714,2.327c1.292,1.81,2.195,3.488,2.712,5.038
		C347.868,322.992,348.256,324.8,348.515,326.609z"/>
	<path fill="#E8DB8F" stroke="#E8DB8F" stroke-width="0.712" d="M270.614,202.2h0.388c0,0.257,0,0.388,0,0.388h-0.388v0.388h-0.388
		v0.388h-0.388v0.387h-0.387v0.388h-0.388v0.388h-0.387v0.388h-0.388v0.389l-1.55,1.548c-1.292,1.292-2.067,1.937-2.325,1.937
		h-0.388v-0.387c0.258-0.258,0.517-0.646,0.775-1.164c0.258-0.258,0-0.516-0.775-0.774l-1.163-0.776h-0.387l0.387-0.387l0.388-0.389
		h0.775l2.713-1.548C268.805,202.845,270.097,202.458,270.614,202.2z"/>
	<path fill="#66C0DF" stroke="#66C0DF" stroke-width="0.712" d="M258.987,235.53h0.387v0.388l3.489,1.937
		c2.326,1.294,4.134,2.068,5.426,2.328c1.292,0.257,2.066,0.388,2.325,0.388c0.258,0-0.517,0.387-2.325,1.161l-1.938,1.162h-0.774
		v0.39h-0.388v0.388h-0.775l-0.775,0.774c-0.258,0-0.517,0.13-0.775,0.389l-4.651,3.49c-3.1,2.065-4.65,3.488-4.65,4.263
		c0.516,0.775,0.774,1.291,0.774,1.549v1.551h-0.387c-0.259,0.256-0.388,0.388-0.388,0.388h0.388l-1.551,0.389
		c-1.034,0.258-1.808,0.388-2.325,0.388c-0.517,0-1.033,0-1.55,0s-1.421,0.518-2.714,1.549c-1.55,0.775-2.712,1.293-3.488,1.55
		c-1.033,0-2.454-0.257-4.262-0.774c-1.81-0.517-2.843-0.775-3.101-0.775c0,0.259-0.129,0.39-0.387,0.39l-0.389,0.389h-0.388v-0.389
		h-0.387v0.389h-0.388l-0.388,0.386h-0.388v-0.386l0.388-0.389v-0.39h0.388v-0.387h0.388v-0.39h0.387v-0.388h0.388
		c0-0.259,1.034-1.549,3.101-3.875c1.809-2.326,4.392-5.039,7.752-8.14l5.039-4.65h0.775v-0.387h0.387v-0.389h0.388
		c0,0,0.904-0.646,2.712-1.938l3.1-1.937h1.55V235.53L258.987,235.53z"/>
	<path fill="#18AFD8" stroke="#18AFD8" stroke-width="0.712" d="M276.427,223.129l4.263-4.264h0.776
		c0.517,0,0.775,0.129,0.775,0.388h0.387v0.388h1.163c0.775,0.258,1.163,0.518,1.163,0.775s0.646,0.646,1.938,1.163
		c1.034,0.258,1.808,0.516,2.325,0.774h0.775l-0.775,0.775c-0.516,0.516-0.646,1.034-0.388,1.549c0,0.259,0.905,1.034,2.713,2.325
		c1.809,1.035,2.713,1.681,2.713,1.938v0.388l-4.264,1.939c-3.1,1.292-6.072,3.1-8.914,5.425c-2.842,2.066-4.651,3.359-5.426,3.877
		c-0.775,0.517-1.938,1.68-3.488,3.487c-1.291,1.81-1.937,2.843-1.937,3.102h-0.388v0.387h-0.387v0.389h-0.388v0.39h-0.776v-0.39
		h-0.387v-0.389h-0.388v-0.774h-0.387v-0.388h-0.388v-0.389l-0.388-0.388l-0.388-0.389v-0.388l-0.387-0.389l-0.388-0.388v-0.773
		h0.388v-0.39h0.774l1.938-1.163c1.55-0.774,2.326-1.162,2.326-1.162l3.1-1.55c2.067-1.035,3.359-1.55,3.876-1.55h0.387l0.388-0.388
		h0.388v-0.39l-0.388-0.774v-0.388h-0.388v-0.388c-0.258,0-1.292-1.163-3.1-3.488l-3.101-3.49l0.388-0.388
		C272.164,227.521,273.585,225.97,276.427,223.129z"/>
	<path fill="#C3D444" stroke="#C3D444" stroke-width="0.712" d="M205.891,136.701v0.388c0.257,0.257,0.387,0.387,0.387,0.387
		l0.775,1.55c0.517,1.292,0.904,2.326,1.163,3.101c0,0.516-0.259,0.775-0.776,0.775c-0.259,0.258-0.388,0.516-0.388,0.774
		c0,0.259,0,0.517,0,0.774v0.389h-0.388c-0.258,0-0.388-0.128-0.388-0.388c0-0.258-0.129,0-0.387,0.776
		c-0.258,0.516-1.292,1.034-3.101,1.55c-1.809,0.516-3.101,1.55-3.876,3.101c-0.774,1.809-1.292,3.617-1.55,5.426
		c-0.258,2.066-0.645,3.616-1.163,4.65c-0.516,0.775-1.033,1.809-1.549,3.101c0,1.55,0,2.583,0,3.101c0,0.258,0,0.517,0,0.774v0.775
		c0,0-0.129,0-0.388,0v0.388l-1.162,0.387c-0.517,0.517-0.775,0.776-0.775,0.776h-0.389c-0.258,0-0.388,0-0.388,0v0.387
		c0,0-0.129,0.129-0.387,0.388l-0.776,0.387c-0.517,0.258-0.905,0.387-1.163,0.387h-0.388l-2.325,1.163
		c-1.55,0.776-2.325,1.163-2.325,1.163h-1.163l-0.774,0.388l-0.388,0.388h-0.389c-0.257,0-0.774,0.258-1.55,0.774
		c-0.774,0-4.392,0.647-10.851,1.938l-9.302,1.938h-2.325v-0.388h0.388v-0.387h0.774v-0.388h0.388v-0.387h0.388l0.387-0.388
		c0.258-0.258,1.163-1.033,2.713-2.325c1.292-1.55,3.875-5.425,7.751-11.627l5.813-8.914v-0.389h0.388v-0.387h0.388v-0.775
		l0.387-0.388v-0.387h-2.713c-1.808,0-4.134-0.258-6.977-0.775c-3.101,0-8.269-0.776-15.503-2.325l-10.852-2.326v-5.812l0.388-0.388
		h0.776l0.387-0.388l0.388-0.388c0.258,0,1.55-0.517,3.876-1.55c2.584-1.033,6.847-2.454,12.79-4.263l9.301-2.713h1.938l0.387-0.387
		l0.389-0.388h-0.389l-0.387-0.388l-0.388-0.388h-0.388l-0.388-0.388l-0.387-0.387h-0.388c-0.258,0-0.517-0.13-0.775-0.389
		c-0.258-0.258-2.325-1.033-6.201-2.326l-6.201-1.938l-0.776-0.388l-0.387-0.388h-1.55v-0.775h11.24
		c7.751,0,13.694,0.516,17.828,1.548c4.134,1.034,7.751,2.067,10.852,3.101c2.842,1.551,5.297,3.101,7.363,4.651
		c1.809,1.55,3.231,2.842,4.264,3.876C205.244,135.925,205.632,136.442,205.891,136.701z"/>
	<path fill="#B4DBE7" stroke="#B4DBE7" stroke-width="0.712" d="M271.389,228.167h0.387l3.101,3.488
		c1.808,2.326,2.843,3.489,3.1,3.489v0.388h0.388v0.388l0.388,0.774v0.389h-0.388l-0.388,0.389h-0.388
		c-0.516,0-1.809,0.516-3.875,1.549l-3.101,1.55c-0.259,0-1.034-0.129-2.325-0.388c-1.292-0.258-3.101-1.034-5.426-2.327
		l-3.489-1.937v-0.388h-0.387v0.388h-1.55l0.387-0.388l0.388-0.388h0.388l0.388-0.388l0.387-0.389h0.389l4.65-2.325
		c3.1-1.551,4.78-2.455,5.039-2.714l0.387-0.388h1.162v-0.387h0.388V228.167L271.389,228.167z"/>
	<path fill="#17A8D0" stroke="#17A8D0" stroke-width="0.712" d="M256.662,271.575l5.813-1.938l0.775,1.161
		c0.775,0.776,1.163,1.164,1.163,1.164v0.389l0.387,0.387l0.388,0.39v1.55h0.388l-4.263,1.163c-3.101,0.774-6.33,1.938-9.688,3.488
		c-3.359,2.066-6.201,4.004-8.527,5.813c-2.325,1.81-3.488,2.842-3.488,3.1c0,0.259-0.129,0.39-0.388,0.39
		c-0.258,0-1.162,0.902-2.712,2.711c-1.551,1.809-3.101,3.877-4.651,6.202c-1.55,2.066-2.455,3.229-2.712,3.489l-0.389,0.388v0.388
		h-0.775l-0.388-0.388l-0.388-0.388h-0.775l-0.387-0.39l-0.388-0.387h-0.388l-0.388-0.389v-0.388h1.163v-2.325l-0.388-1.938v-1.163
		h0.775c0.259,0,2.584-2.326,6.977-6.977l6.588-6.587h0.387c0.259-0.258,2.067-1.422,5.426-3.489
		C248.91,274.933,252.528,273.124,256.662,271.575z"/>
	<path fill="#EBC350" stroke="#EBC350" stroke-width="0.712" d="M237.67,221.578l0.389,0.387c0,0,0,0.13,0,0.389
		c-0.518,0.259-0.776,0.517-0.776,0.775v0.388h-0.388v0.388h-0.388v0.774h0.388l0.388,0.389h0.776v0.388h0.387v0.388h0.388
		l0.388,0.389c0.258,0.258,0.388,0.388,0.388,0.388v0.387l-6.201,7.364c-4.134,4.65-6.33,7.105-6.588,7.364l-0.388,0.389v0.389
		h-0.387v0.387h-0.388v0.775h-0.388l-0.387,0.388l-0.388-0.388l-0.387-0.389v-2.326l0.387-1.938
		c0.258-1.033,0.388-1.808,0.388-2.325v-0.774c0-0.259,1.162-1.81,3.488-4.65l3.489-4.265c0-0.258,0.775-1.034,2.325-2.325
		l2.326-1.938c0.258,0,0.387-0.128,0.387-0.389h0.388c0-0.258,0-0.388,0-0.388C237.542,221.965,237.67,221.837,237.67,221.578z"/>
	<path fill="#EBD4A7" stroke="#EBD4A7" stroke-width="0.712" d="M311.696,311.881l-5.039-7.364l1.163,0.388
		c0.775,0.259,1.292,0.646,1.551,1.164c0.516,0.774,6.201,1.42,17.053,1.938c10.852,0.517,19.378,1.033,25.579,1.549
		c6.202,0.518,11.626,1.292,16.278,2.326c4.651,1.035,7.881,1.938,9.69,2.712c1.807,0.518,2.711,0.904,2.711,1.163
		c0,0.26,0.518,0.519,1.55,0.774c1.292,0.517,2.325,1.035,3.101,1.552c1.036,0.516,1.68,0.902,1.938,1.162l0.388,0.388h0.775v0.389
		h0.388v0.388h0.388v0.775h-0.388v0.388h-0.388v0.389h-0.775l-0.774,0.389c-0.259,0.257-0.775,0.517-1.55,0.774
		c-0.517,0.257-1.68,0.902-3.488,1.938c-1.809,1.032-5.425,2.064-10.853,3.1c-5.426,1.549-10.465,2.454-15.115,2.713
		c-4.393,0.518-6.589,0.388-6.589-0.39l-0.387-1.162v0.388c0,0.258-0.129,0.39-0.388,0.39h-0.388v-0.39c0-0.257,0-1.292,0-3.1
		c0-1.811-0.259-3.618-0.775-5.427c-0.517-1.55-1.421-3.229-2.713-5.039c-1.551-1.809-2.455-2.584-2.714-2.326
		c0,0.258-0.774,0.389-2.325,0.389h-3.876c-1.292,0-2.842,0.516-4.65,1.549c-1.809,0.519-3.746,1.682-5.813,3.49l-2.713,2.713
		l-0.389,0.388l-0.387,0.387l-0.387,0.39h-0.388v-0.39h-0.774v0.39h-0.389v-1.938l0.389-2.325v-1.938h-0.389v0.387h-0.387
		l-0.387,0.776c-0.258,0.774-0.517,1.291-0.775,1.548l-0.387,0.39v-0.39h-0.388l-0.388-0.387v-0.388
		C317.122,318.857,315.313,316.531,311.696,311.881z"/>
	<path fill="#D4BD71" stroke="#D4BD71" stroke-width="0.712" d="M183.024,218.477h1.163v1.163c0.258,0.518,0.387,0.775,0.387,0.775
		v2.326h0.388c0.258,0,0.517,0,0.776,0h0.388v0.388c0,0.258-0.518,0.258-1.551,0c-1.034-0.259-2.583-0.259-4.651,0l-2.712,0.388
		v-0.774c-0.258-0.259-0.387-0.389-0.387-0.389c0-0.259-0.775-0.129-2.326,0.389l-2.713,0.774c-0.258-0.259-0.258-0.774,0-1.551
		l0.388-0.773h0.387v-0.389h0.388v-0.388h0.775v-0.388l1.938-0.775c1.033-0.258,2.196-0.518,3.488-0.774
		C180.698,218.22,181.99,218.22,183.024,218.477z"/>
	<path fill="#9BD2E4" stroke="#9BD2E4" stroke-width="0.712" d="M289.992,197.937h3.101c0,0-1.034,0.646-3.101,1.937l-2.712,1.938
		h-0.776v0.388h-0.386v0.388h-0.776l-0.387,0.388l-0.388,0.388c0,0-1.292,0.774-3.876,2.325l-3.875,2.326l-0.388,0.388l-0.387,0.387
		h-0.388v-0.387c-0.257-0.258-0.387-0.646-0.387-1.164c0-0.516-0.903-0.904-2.712-1.163l-3.1-0.388v-0.387h-0.388v0.387h-0.387
		v-0.387h-0.388v-0.389h0.388v-0.387h0.387v-0.388h0.388v-0.387h0.387v-0.388h0.388v-0.388h0.387v-0.388h0.388c0,0,0-0.129,0-0.387
		l1.55-0.775c1.034-0.259,3.747-0.904,8.138-1.937C285.083,198.453,288.184,197.937,289.992,197.937z"/>
	<path fill="#BBC65E" stroke="#BBC65E" stroke-width="0.712" d="M200.852,204.524h0.388l2.325,0.387
		c1.55,0.519,2.584,0.905,3.101,1.164c0.258,0.517,0.516,0.904,0.775,1.163l-0.388,0.388c-0.258,0.258-0.387,0.388-0.387,0.388
		l-1.938,0.388c-1.033,0.258-1.938,0.646-2.713,1.163c-0.774,0.517-1.163,0.776-1.163,0.776v0.387l-0.388,0.389l-0.387,0.388h-0.387
		c-0.259-0.258-1.422-0.129-3.489,0.387l-3.1,0.775v-2.713l-0.387-0.388l-0.388-0.388v-0.388c0-0.516-0.129-0.903-0.388-1.163
		l-0.388-0.388v-0.774l-0.387-0.388v-0.389h0.387l0.388,0.389c0.258,0,0.388-0.129,0.388-0.389c0-0.516,0.258-0.904,0.775-1.163
		c0.517-0.258,1.292-0.127,2.325,0.388c0.775,0.518,1.809,0.518,3.1,0C199.818,204.912,200.594,204.783,200.852,204.524z"/>
	<path fill="#059BC3" stroke="#059BC3" stroke-width="0.712" d="M258.211,248.321l4.651-3.489l0.387,0.387
		c0.258,0.518,0.518,0.906,0.775,1.163l0.387,0.39l1.163,1.938c0.775,1.035,1.163,1.68,1.163,1.937v0.39l-3.101,4.648
		c-2.067,3.103-3.229,4.782-3.489,5.038l-0.387,0.391v0.774l-0.388,0.388h-0.388l-0.387-0.388l-0.388-0.39v-0.775l-0.388-0.386
		c-0.259-0.259-0.904-1.292-1.938-3.102l-1.55-2.712v-0.389c0-0.26-0.258-0.774-0.774-1.55
		C253.562,251.808,255.111,250.388,258.211,248.321z"/>
	<path fill="#EBC24E" stroke="#EBC24E" stroke-width="0.712" d="M239.608,238.244l6.201-6.201v1.163
		c0.258,0.774,0.518,1.162,0.776,1.162s0.774,0.518,1.55,1.55c1.033,1.033,1.549,1.937,1.549,2.714
		c0.258,0.774,0.387,1.163,0.387,1.163h-0.387v0.773h0.387l-5.039,4.65c-3.359,3.101-5.942,5.812-7.752,8.141
		c-2.067,2.324-3.1,3.615-3.1,3.873h-0.389v0.389h-0.387v0.389l-0.387,0.388v0.389c-0.258,0-0.389,0.128-0.389,0.388
		c0,0-0.129,0-0.388,0v0.389l-2.325,3.488c-1.291,2.066-2.067,3.229-2.325,3.489l-0.388,0.388v0.388l-0.388,0.388l-0.387,0.389
		v0.774h-1.163v-1.163l-0.387-1.163v-1.162c0-0.518-0.259-1.549-0.776-3.1v-3.489h-0.388v-0.39c0.258,0,0.388-0.256,0.388-0.775
		l0.387-0.773h0.389v-0.388l0.387-0.389l0.388-0.388v-0.775h0.389v-0.389h0.387c0,0,1.162-1.681,3.487-5.038
		C232.245,246.382,235.474,242.637,239.608,238.244z"/>
	<path fill="#82B36A" stroke="#82B36A" stroke-width="0.712" d="M177.21,222.741v0.774l-1.938,0.775
		c-1.034,0.516-1.55,0.774-1.55,0.774l-1.163,0.388c-0.517,0.258-0.774,0.517-0.774,0.775l-0.775,0.388
		c-0.518,0.517-0.904,0.775-1.163,0.775v-0.775c0-0.517,0.13-1.034,0.388-1.55l0.388-0.389c0-0.258,0.258-0.516,0.775-0.774
		l0.389-0.388l2.712-0.774c1.55-0.517,2.326-0.646,2.326-0.389C176.823,222.353,176.952,222.482,177.21,222.741z"/>
	<path fill="#954D26" stroke="#954D26" stroke-width="0.712" d="M263.638,244.443l0.775-0.775h0.775v0.389l0.388,0.389l0.387,0.388
		v0.39l0.387,0.387l0.389,0.389v0.388h0.388v0.389h0.387v0.775h0.388v0.387h0.388v0.39h0.388l1.162,2.326
		c1.034,1.55,1.551,2.455,1.551,2.713v0.388h0.388v0.389h0.388v0.388l0.388,0.388l0.388,0.389v0.389h0.387v0.388l0.388,0.389v0.388
		l0.388,0.388l0.388,0.388v0.389l0.387,0.388l0.387,0.389v0.389l0.388,0.388l0.388,0.389v0.389h0.387l13.565,19.766
		c9.301,13.435,14.34,20.799,15.115,22.091c0.775,1.291,1.292,1.938,1.551,1.938v0.389c0,0.257,0.129,0.388,0.387,0.388
		c0,0,0,0.129,0,0.389h0.387l4.651,6.587c3.36,4.649,5.038,6.976,5.038,6.976v0.389c0,0.258,0,0.388,0,0.388h0.388v0.389
		c0.259,0.259,0.389,0.646,0.389,1.163v0.389l-0.389,0.388l-0.388,0.775v3.101h-0.774v-0.389l-0.388-0.388l-0.387-0.389v-0.774
		h-0.388v-0.389H314.8c0,0-6.588-9.948-19.766-29.841l-19.765-29.456v-0.39l-0.387-0.388l-0.387-0.388
		c0-0.259-0.518-1.035-1.55-2.327l-1.55-2.325v-0.388c0-0.258-0.775-1.421-2.326-3.489l-2.325-3.488v-0.388
		c0-0.259-0.388-0.905-1.163-1.938l-1.163-1.938l-0.388-0.388c-0.258-0.259-0.517-0.647-0.775-1.163l-0.387-0.388
		C263.121,244.575,263.38,244.443,263.638,244.443z"/>
	<path fill="#63BAE0" stroke="#63BAE0" stroke-width="0.712" d="M321.773,327.384l0.775-1.163h0.774l0.776,0.389h1.938
		c0,0,0.128,0.129,0.388,0.389l3.875,0.773c2.842,0.775,4.263,1.163,4.263,1.163h-1.938l0.774,0.774
		c0.776,0.258,1.163,1.035,1.163,2.327c-0.258,1.29-0.646,2.196-1.163,2.711c-0.774,0.259-1.292,1.164-1.55,2.713
		c0,1.549,0,2.325,0,2.325v0.391h-0.388v0.387h-0.387v0.775h-0.388l-0.388-0.39l-0.387-0.388h-0.775l-0.387-0.387
		c-0.259-0.258-0.776-0.646-1.55-1.165c-0.517-0.518-1.163-1.163-1.938-1.938c-0.776-0.774-1.809-2.454-3.102-5.036l-1.55-3.49
		v-0.388C320.869,328.159,321.257,327.901,321.773,327.384z"/>
	<path fill="#D8D397" stroke="#D8D397" stroke-width="0.712" d="M166.358,215.765l1.938-3.1v1.55c0,1.033-0.517,2.583-1.55,4.649
		c-1.033,2.326-1.679,3.617-1.938,3.876c-0.517,0.516-0.904,0.646-1.163,0.389h-0.387v-0.389c0.258-0.517,0.517-1.292,0.775-2.326
		C164.292,219.383,165.067,217.832,166.358,215.765z"/>
	<path fill="#69A157" stroke="#69A157" stroke-width="0.712" d="M188.449,213.438v0.777l0.388,0.386v0.389l-1.55,0.775
		c-0.775,0.775-1.292,1.162-1.549,1.162v0.389h-0.388v0.388h-0.388v0.388h-1.163v-2.325l-0.388-0.775v-1.163l2.714-0.388
		C187.675,213.181,188.449,213.181,188.449,213.438z"/>
	<path fill="#E2E0A1" stroke="#E2E0A1" stroke-width="0.712" d="M185.349,200.262h0.775v0.388h-0.388v0.387h0.388
		c0,0,0.258,0.129,0.775,0.389l0.775,0.388h0.388v0.388h0.388v0.387h0.388v0.388h0.388v0.774h0.387v0.389H190v0.775h0.388v0.389
		h0.388v0.387h0.388v0.388l0.387,0.388v0.774l0.388,0.388c0.259,0.258,0.388,0.646,0.388,1.163v0.388l0.388,0.388l0.388,0.387v2.326
		h-0.776l-0.775-0.388h-1.938v-0.387c-0.258,0-0.387-0.129-0.387-0.389c-0.517-0.258-1.163-0.774-1.938-1.549
		c-1.034-0.518-1.55-0.905-1.55-1.163c-0.258-0.258-0.646-0.646-1.162-1.164l-0.775-0.387v-0.388c0-0.258-0.388-0.775-1.163-1.551
		c-0.775-0.516-1.42-0.904-1.938-1.163l-1.162-0.387l0.387-0.389v-0.388h1.162l0.387-0.387l0.389-0.388h0.388
		c0.258,0,0.517-0.517,0.775-1.549c0-0.775,0.258-1.034,0.775-0.775C184.057,200.002,184.574,200.262,185.349,200.262z"/>
	<path fill="#88CBE3" stroke="#88CBE3" stroke-width="0.712" d="M223.718,270.024l1.938-0.775l1.549,4.65
		c1.034,3.101,1.55,5.038,1.55,5.813s-0.775,1.42-2.325,1.937c-1.55,0.518-2.584,1.035-3.1,1.551
		c-0.518,0.256-0.776,0.388-0.776,0.388v0.389h-0.775v0.388h-0.388v0.388h-0.775v0.389h-0.388v0.388h0.388v0.39l-1.163,0.388
		c-0.517,0.516-1.292,1.42-2.325,2.712c-1.034,1.293-1.55,2.067-1.55,2.325v0.389h-0.388v0.389h-0.388v0.776h-0.388l-1.163,1.549
		c-1.033,1.033-1.55,1.937-1.55,2.712c-0.517,0.516-0.775,1.033-0.775,1.55v0.388l-0.387,0.388l-0.388,0.388v1.164l-0.388,0.773
		l-0.388,0.39v-1.553l-0.388-1.938c-0.259-1.035-0.388-2.326-0.388-3.877v-1.935l-0.388,2.711v2.712h-0.388v-10.851
		c0.258-0.258,0.517-0.646,0.775-1.163l0.387-0.776h0.388v-1.161h0.388v-0.389h0.388v-0.774l0.387-0.39
		c0.258-0.258,1.163-1.55,2.713-3.874c1.55-2.327,3.359-4.264,5.426-5.813C220.746,271.577,222.427,270.541,223.718,270.024z"/>
	<path fill="#EDD89F" stroke="#EDD89F" stroke-width="0.712" d="M199.302,250.645v-0.774l1.549,4.264
		c1.034,2.843,1.55,4.521,1.55,5.038v0.774l0.388,0.775l0.387,0.389v1.162h1.163v-0.388h0.387v-0.774l-0.387-0.774l-0.388-0.775
		v-0.389c0-0.517-0.517-1.938-1.55-4.264l-1.163-3.488h0.389c0.258,0,0.774,0.388,1.55,1.162c0.517,0.777,1.421,1.164,2.713,1.164
		c1.291,0,2.972-0.26,5.038-0.776c2.067,0,3.231-0.129,3.489-0.388c0.258-0.257,0.517-0.388,0.775-0.388h0.774v0.388
		c0,0.258-0.258,0.648-0.775,1.163c-0.775,0.518-1.55,2.327-2.325,5.427c-0.775,2.842-1.292,4.393-1.55,4.65l-0.388,0.776v3.488
		v-0.388h0.388v-0.39h0.388v-0.387h0.387v-0.39h0.387v-0.388h0.388v-0.388h0.389c0-0.257,0.516-0.774,1.55-1.549
		c1.033-1.036,2.584-2.067,4.65-3.101l2.713-1.938h1.163v-0.389h0.775v3.489c0.517,1.549,0.776,2.584,0.776,3.101v1.164l0.387,1.162
		v1.163h0.775v0.388h-0.388l-1.938,0.775c-1.292,0.517-2.972,1.55-5.038,3.101c-2.068,1.551-3.876,3.487-5.426,5.812
		c-1.55,2.326-2.454,3.619-2.714,3.874l-0.387,0.391v0.774h-0.388v0.388h-0.388v1.163h-0.388v-2.714
		c-0.259-1.807-0.387-2.582-0.387-2.324c0,0.257-0.13-0.775-0.388-3.102l-0.388-3.488v-1.55c0-0.773-0.13-1.421-0.388-1.937
		c-0.258-0.519-1.68-1.035-4.263-1.55c-2.842-0.26-5.942-0.905-9.302-1.938c-3.617-1.036-6.072-2.068-7.364-3.102
		c-1.292-1.035-1.938-2.067-1.938-3.102c0-1.292,0.258-2.324,0.775-3.101c0.517-0.773,1.55-1.548,3.1-2.325
		c1.55-1.034,3.488-1.81,5.814-2.326c2.325-0.516,3.746-1.033,4.263-1.55C198.785,251.42,199.043,251.163,199.302,250.645z"/>
	<path fill="#EDCF70" stroke="#EDCF70" stroke-width="0.712" d="M223.718,237.469l1.163-1.551v0.774
		c0,0.518-0.129,1.293-0.388,2.326l-0.387,1.938v2.325l0.387,0.388l0.388,0.389l-0.388,1.164c-0.258,0.518-0.517,0.773-0.776,0.773
		v0.39l-3.1,1.938c-1.809,1.548-2.843,2.324-3.101,2.324c-0.258,0.26-0.388,0.39-0.388,0.39v0.386h-0.388v0.39h-0.388v0.39h-0.775
		v0.386l-0.388-0.386l0.388-0.39v-1.162l0.388-0.389l0.387-0.389v-0.387c0-0.259,0.259-0.905,0.775-1.938
		c0.517-0.775,1.55-2.325,3.1-4.651l2.326-3.875C222.556,238.759,222.943,238.244,223.718,237.469z"/>
	<path fill="#98532D" stroke="#98532D" stroke-width="0.712" d="M191.55,225.066v-0.389h0.388l0.388,0.389
		c0,0.517,0.129,0.774,0.388,0.774v0.389l2.325,6.588c1.293,4.393,2.068,6.589,2.326,6.589v0.389l0.388,0.773l1.55,5.039
		c1.034,3.358,1.68,5.167,1.938,5.426v0.387c0,0,0.129,0.13,0.388,0.39l1.163,3.49c0.775,2.065,1.162,3.357,1.162,3.874v0.389
		l0.389,0.775l0.387,0.774v0.774h-0.387v0.39h-1.163v-1.164l-0.388-0.391l-0.388-0.773v-0.774c0-0.517-0.517-2.196-1.55-5.039
		l-1.55-4.264v-0.774c0-0.257-0.516-1.808-1.549-4.65l-1.55-4.65c0-0.257-0.129-0.388-0.387-0.388v-0.388l-0.388-0.774v-0.774
		c0-0.518-0.646-2.584-1.938-6.201l-1.938-5.427v-0.775h-0.003V225.066z"/>
	<path fill="#E7B579" stroke="#E7B579" stroke-width="0.712" d="M317.122,325.059v-0.774h1.163l0.387,1.937
		c0.26,1.292,0.518,1.938,0.776,1.938s0.517,0.128,0.775,0.388h0.388l1.55,3.489c1.293,2.582,2.325,4.263,3.102,5.038
		c0.775,0.773,1.421,1.419,1.938,1.937c0.776,0.52,1.292,0.905,1.551,1.165l0.387,0.387h0.775l0.387,0.388l0.388,0.39h0.775
		l0.387,0.387l0.776,0.39h1.163l0.775,0.388h0.775v0.389h-6.201c-1.808,0-2.972-0.128-3.489-0.389
		c-0.258-0.259-1.55-1.422-3.875-3.488c-2.067-2.583-3.36-4.521-3.875-5.814c-0.776-1.55-1.292-2.325-1.55-2.325
		c-0.259,0-0.388-0.129-0.388-0.389c0.258-0.258,0.388-1.033,0.388-2.325l0.388-2.326h0.387L317.122,325.059L317.122,325.059z"/>
	<path fill="#CA8933" stroke="#CA8933" stroke-width="0.712" d="M239.608,211.889v0.776h0.388l0.388,0.387c0,0.259,0,0.388,0,0.388
		h0.388c0,0,0.129,0.129,0.387,0.388c0,0.258,0,0.389,0,0.389h0.389c0,0,0.129,0.128,0.387,0.387c0,0.258,0,0.388,0,0.388h0.388
		c0,0,0.129,0.128,0.388,0.389v0.387c0,0,0.129,0,0.388,0v0.389h0.388v0.388h-0.388v0.388h-0.388v0.389h-0.388
		c0,0-0.128,0.128-0.388,0.388c-0.517,0.257-0.903,0.128-1.163-0.388l-0.388-0.389v-0.388c0-0.258-0.258-0.775-0.775-1.55v-0.774
		l-0.387-0.389l-0.389-0.388v-0.775c0-0.258-0.129-0.517-0.388-0.775c0-0.257,0.129-0.387,0.388-0.387
		C239.092,211.502,239.35,211.63,239.608,211.889z"/>
	<path fill="#DDA054" stroke="#DDA054" stroke-width="0.712" d="M204.728,208.401l1.938-0.388l0.775,0.774
		c0.775,0.258,0.904,0.519,0.387,0.775c-0.517,0.517-0.775,0.775-0.775,0.775v0.387l-1.938,1.55c-1.292,1.034-2.067,1.55-2.325,1.55
		v0.389h-0.388c-0.258,0-0.517-0.259-0.774-0.776l-0.776-0.388v-0.774h-0.388v-0.389h-0.387V211.5l0.387-0.388l0.388-0.389v-0.387
		c0,0,0.388-0.259,1.163-0.775C202.79,209.046,203.694,208.659,204.728,208.401z"/>
	<path fill="#F3E3B7" stroke="#F3E3B7" stroke-width="0.712" d="M190,239.406h5.813c0,0.258,0.129,0.389,0.387,0.389l1.55,4.648
		c1.033,2.843,1.55,4.394,1.55,4.65v1.55c-0.258,0.518-0.517,0.773-0.776,0.773c-0.517,0.518-1.938,1.036-4.262,1.55
		c-2.326,0.519-4.265,1.294-5.814,2.326c-1.55,0.775-2.584,1.55-3.101,2.325s-0.775,1.81-0.775,3.101
		c0,1.036,0.646,2.068,1.938,3.101c1.292,1.035,3.747,2.067,7.364,3.104c3.359,1.031,6.459,1.678,9.302,1.936
		c2.584,0.518,4.005,1.035,4.263,1.552c0.258,0.515,0.388,1.161,0.388,1.936v1.551l-0.388,4.649
		c-0.258,3.358-0.388,4.781-0.388,4.264c0-0.517,0.129-0.389,0.388,0.389c0.258,1.033,0.388,2.066,0.388,3.101v12.015h0.388v2.325
		c0.258,1.551,0.388,2.714,0.388,3.489v1.549l0.388,0.775l0.388,1.163v0.389l0.388-0.389l0.387-0.388v-0.775l0.388-0.387l0.387-0.39
		c0,0,0.517-0.646,1.55-1.938c1.034-1.291,2.196-2.325,3.488-3.101c1.55-0.772,3.488-1.163,5.814-1.163l3.1,0.391
		c0,0.256,0,0.387,0,0.387h0.775l0.388,0.388l0.387,0.389h0.775l0.388,0.388l0.388,0.39h0.775v-0.39l0.388-0.388
		c0.258-0.259,1.163-1.421,2.712-3.489c1.55-2.325,3.101-4.393,4.651-6.201c1.55-1.81,2.454-2.713,2.712-2.713
		c0.259,0,0.388-0.129,0.388-0.388s1.162-1.291,3.488-3.102c2.326-1.808,5.168-3.745,8.527-5.813
		c3.358-1.549,6.588-2.712,9.688-3.488l4.263-1.161h1.938v-0.775l0.388-0.389c0.258-0.258,1.163-1.811,2.712-4.651l2.326-4.262
		h0.387v-0.389h0.388v-0.775h0.388v-0.388h0.388l0.387,0.388l0.388,0.389v0.389l19.765,29.454
		c13.178,19.896,19.766,29.843,19.766,29.843h0.388v0.388h0.387v0.775l0.387,0.387l0.389,0.391v0.387h0.387l-0.387,2.327
		c0,1.292-0.13,2.065-0.389,2.324c0,0.259,0.129,0.39,0.389,0.39c0.258,0,0.774,0.774,1.55,2.325
		c0.516,1.293,1.808,3.23,3.875,5.812c2.326,2.067,3.617,3.23,3.875,3.489c0.517,0.258,1.68,0.389,3.489,0.389h6.2V342.5
		c0.259,0,1.034-0.128,2.326-0.389c1.292-0.517,2.972-1.549,5.039-3.101c2.066-1.55,3.488-3.357,4.263-5.426l1.163-3.102v-0.387
		l0.388-0.389h0.387v-0.387l0.388,1.162c0,0.776,2.196,0.905,6.589,0.39c4.65-0.259,9.689-1.164,15.115-2.712
		c5.426-1.035,9.043-2.068,10.852-3.101c1.809-1.036,2.973-1.682,3.488-1.938c0.775-0.258,1.293-0.519,1.55-0.774l0.776-0.39h0.775
		v-0.388h0.387v-0.388h0.388v-0.775h-0.388v-0.388h-0.387v-0.389h-0.775l-0.39-0.388c-0.258-0.258-0.902-0.646-1.937-1.162
		c-0.776-0.519-1.809-1.036-3.104-1.552c-1.032-0.258-1.548-0.516-1.548-0.774c0-0.258-0.904-0.645-2.713-1.163
		c-1.808-0.774-5.038-1.679-9.689-2.712c-4.652-1.033-10.077-1.809-16.278-2.326c-6.201-0.517-14.728-1.033-25.579-1.549
		c-10.853-0.517-16.537-1.162-17.053-1.938c-0.259-0.518-0.647-0.774-1.163-0.774h-0.775v-0.389c-0.258,0-0.387,0-0.387,0
		c0-0.257-0.128-0.388-0.388-0.388v-0.389c-0.258,0-0.775-0.647-1.551-1.937c-0.774-1.293-5.812-8.658-15.114-22.093l-13.565-19.766
		v-0.388h0.387v-0.389h0.388v-0.388h0.387l4.263-4.264c2.842-2.843,6.072-5.296,9.688-7.364c3.876-2.583,6.719-4.135,8.526-4.65
		c1.551-1.033,2.584-1.549,3.102-1.549h0.387l15.89,1.549c10.335,1.033,15.89,1.55,16.666,1.55h1.163l1.55,0.389l1.164,0.387
		l12.789,2.326c8.269,1.55,15.115,3.358,20.542,5.427c5.425,2.066,9.432,3.875,12.015,5.429c2.584,1.549,6.458,4.133,11.627,7.749
		c5.166,3.617,10.979,7.234,17.44,10.852c6.459,3.101,9.947,4.78,10.466,5.039c0.256,0,0.518,0.128,0.772,0.387
		c0,0,0.519,0.259,1.552,0.776c1.033,0.256,1.549,0.517,1.549,0.772c0,0.259,0.775,0.52,2.327,0.776
		c1.292,0.517,1.937,0.904,1.937,1.163s0.389,0.517,1.163,0.773c0.519,0.26,3.358,1.292,8.527,3.101
		c5.167,1.81,9.303,3.231,12.404,4.265c2.842,1.034,5.812,2.196,8.911,3.489c3.103,1.292,8.657,2.713,16.666,4.265
		c8.268,2.065,16.276,3.617,24.028,4.648c7.494,1.035,18.733,2.456,33.719,4.263c14.988,1.81,31.911,4.006,50.772,6.59
		c19.119,2.584,29.715,4.002,31.779,4.263c2.327,0.26,4.521,0.517,6.589,0.775h3.102v-1.55l0.387-1.549v32.941H141.167V240.957
		l9.302-0.389c5.942,0,9.302-0.129,10.076-0.387h1.55v1.162l-1.55,11.625c-1.034,8.011-1.55,15.89-1.55,23.643
		c0,7.751,0.389,14.6,1.163,20.543c0.775,5.942,1.162,9.042,1.162,9.301v0.774h5.813v-1.162c-0.258-0.774-0.646-3.489-1.163-8.138
		c-0.516-4.91-0.904-11.887-1.163-20.93c-0.258-8.784-0.129-15.503,0.387-20.153c0.518-4.65,1.035-8.527,1.55-11.628l0.775-5.036
		l8.527-0.388C181.473,239.795,186.125,239.664,190,239.406z"/>
	<path fill="#F2E4BD" stroke="#F2E4BD" stroke-width="0.712" d="M214.029,239.019h8.526l-2.325,3.875
		c-1.55,2.325-2.584,3.876-3.101,4.65c-0.517,1.034-0.775,1.681-0.775,1.938v0.388l-0.388,0.389l-0.387,0.387v1.164l-0.388,0.39
		c-0.258,0-0.517,0.127-0.775,0.387c-0.258,0.257-1.422,0.388-3.489,0.388c-2.067,0.517-3.617,0.775-4.65,0.775
		c-1.292,0-2.325-0.387-3.101-1.163l-1.55-0.774v-0.389c0,0-0.13,0-0.388,0v-0.388c-0.257-0.259-0.904-2.065-1.938-5.428
		l-1.55-5.037l-0.388-0.775v-0.388h4.264C204.21,239.148,208.344,239.019,214.029,239.019z"/>
	<path fill="#C2D344" stroke="#C2D344" stroke-width="0.712" d="M212.091,148.327h0.387l3.876,0.388
		c2.583,0.258,4.004,0.388,4.263,0.388l0.388,0.387l0.388,0.389h1.162l4.65,1.938c3.359,1.293,6.072,2.584,8.139,3.876
		c1.809,1.292,3.229,2.196,4.263,2.712c0.775,0.776,1.421,1.55,1.938,2.325c0.258,0.518,0.517,0.775,0.775,0.775v0.388h-0.775
		c-0.775,0-1.292,0.13-1.55,0.387c-0.258,0.517-0.646,0.517-1.163,0c-0.774,0-1.55,0.646-2.325,1.938
		c-0.517,1.292-0.904,1.938-1.163,1.938c-0.258,0-0.387,0.646-0.387,1.938v1.938h-0.387v0.388h-0.389v-0.388h-0.388v-0.388h-0.387
		v-0.775h-0.388v-0.388h-0.388v-0.387c0,0-1.033-0.905-3.101-2.714l-2.326-3.1h-0.387v-0.388h-0.387v-0.388h-0.387v-0.387h-0.388
		v-0.389h-0.388v-0.387h-0.387v-0.776v1.55h0.387v0.387h0.388v0.776h0.388v0.388h0.387l3.1,5.813
		c2.584,3.618,4.393,6.976,5.426,10.077c1.033,3.101,1.42,6.459,1.162,10.076c-0.258,3.875-0.904,7.493-1.938,10.853
		c-1.55,3.357-3.23,6.329-5.039,8.913c-1.809,2.325-3.875,4.781-6.201,7.364c-2.325,2.067-4.263,3.746-5.813,5.038
		c-1.809,1.293-2.842,1.938-3.101,1.938h-0.388l-0.388,0.389l-0.388,0.387h-0.775l-0.387,0.389l-0.775,0.388v-1.55h0.388v-0.389
		h0.388v-0.389c0-0.516,0.646-2.196,1.938-5.038l1.938-4.262v-1.55c0,0,0.13-0.258,0.388-0.775c0.258-0.258,0.646-3.359,1.163-9.302
		c1.033-5.942,1.55-12.918,1.55-20.929v-11.626l-0.388-0.775c-0.258-0.775-0.388-1.421-0.388-1.938v-0.775h-0.388
		c0,0.258-0.129,0.387-0.387,0.387v-1.549c0-1.292-0.516-2.842-1.55-4.65c-1.033-1.809-1.938-3.101-2.713-3.875
		c-0.775-0.776-1.163-1.292-1.163-1.55v-0.388l-0.388-0.387v-0.387l0.388-0.388c0.517,0,0.775,0,0.775,0h0.388l0.388-0.388
		l0.388-0.388h0.388l-0.388-0.387c-0.258,0-0.516-0.259-0.775-0.776l-0.388-1.163h-0.775v-0.388h0.387v-0.387H212.091
		L212.091,148.327z M223.332,158.792c0,0,0.128,0,0.387,0c0,0.258-0.129,0.388-0.387,0.388
		C223.332,159.18,223.332,159.051,223.332,158.792z"/>
	<path fill="#BAD040" stroke="#BAD040" stroke-width="0.712" d="M210.153,135.151h0.775l0.776,0.774
		c0.516,0.517,0.904,1.421,1.163,2.713c0.516,1.292,1.162,2.196,1.938,2.712c1.033,0.516,2.196,1.163,3.489,1.938
		c1.293,0.775,1.938,1.549,1.938,2.326c0.516,0.774,0.775,1.421,0.775,1.938v1.163l-0.388,0.388c-0.259,0-1.679-0.13-4.263-0.388
		l-3.876-0.388h-0.387v0.388h-0.387v0.388h0.774v0.775c0.258,0.258,0.516,0.388,0.775,0.388h0.775v1.163h-0.389l-0.387,0.387
		l-0.388,0.388h-0.388v-0.775h-1.163c-0.516,0-0.904,0-1.163,0h-0.388l-0.388,0.387l-0.388,0.388h-0.775l-0.388,0.388h-0.388v-1.938
		c0.258-1.292,0.388-2.455,0.388-3.488c0-1.034-0.13-1.68-0.388-1.938l-0.388-0.388v-0.388c0,0-0.129,0-0.387,0v-0.774
		c0.258-0.258,0.517-0.517,0.775-0.776c0.516,0,0.516-0.775,0-2.326c-0.517-1.808-0.904-2.712-1.163-2.712s-0.387-0.129-0.387-0.387
		v-0.775h0.775c0.516,0,1.033-0.259,1.55-0.775C208.732,135.409,209.378,135.151,210.153,135.151z"/>
	<path fill="#779555" stroke="#779555" stroke-width="0.712" d="M190,219.64h0.388l0.388,0.389v1.163l0.774,1.162
		c0,0.775,0.129,1.422,0.388,1.938v0.387h-0.388c0,0-0.259-0.646-0.774-1.937c-0.517-1.55-1.034-2.326-1.55-2.326
		c-0.259,0-0.776,0.388-1.55,1.163l-1.55,1.163c0,0-0.129,0-0.388,0v0.388h-0.388c-0.258-0.259-0.388-0.388-0.388-0.388h-0.388
		v-1.938l0.388-0.388l1.938-0.775c1.55-0.517,2.326-0.646,2.326-0.388C189.483,219.51,189.741,219.64,190,219.64z"/>
	<path fill="#7BB167" stroke="#7BB167" stroke-width="0.712" d="M205.115,212.276l1.938-1.55c0,0,0.128,0.129,0.388,0.388v0.774
		c-0.259,0-0.388,0-0.388,0v0.388c0,0-0.129,0.129-0.387,0.388l-1.163,1.938c-1.034,1.292-1.55,1.939-1.55,1.939
		c-0.258,0-0.516-0.389-0.775-1.163l-0.776-1.163h0.389v-0.389C203.048,213.827,203.823,213.311,205.115,212.276z"/>
	<path fill="#67C0DF" stroke="#67C0DF" stroke-width="0.712" d="M300.845,205.3h0.774v0.388h1.551l3.875,1.163
		c2.326,1.034,3.489,1.809,3.489,2.325v0.774h-0.388c0,0.259-1.292,0.905-3.876,1.938c-2.583,1.549-4.262,2.712-5.038,3.49
		l-1.162,1.163c-0.258,0-0.774,0.129-1.55,0.387l-1.55,0.388v0.389c0,0-1.163,0.774-3.489,2.326l-3.488,2.325h-0.775
		c-0.516-0.259-1.291-0.517-2.325-0.774c-1.292-0.519-1.938-0.904-1.938-1.164c0-0.257-0.388-0.517-1.163-0.774h-1.163v-0.388
		h-0.387v0.388h-0.776v-0.775h-0.775v-0.388h0.388v-0.388h0.387v-0.388h0.388v-0.389h0.388v-0.388l5.425-3.875
		c3.618-2.842,5.556-4.264,5.813-4.264c0.258,0,0.517-0.128,0.775-0.387h0.388c0.258-0.258,0.387-0.388,0.387-0.388l2.713-1.163
		C299.553,206.076,300.586,205.559,300.845,205.3z"/>
	<path fill="#20AED6" stroke="#20AED6" stroke-width="0.712" d="M303.169,233.98l1.163,1.163c0.774,0.516,1.162,0.774,1.162,0.774
		l0.387,0.389l0.387,0.387h0.388l0.387,0.389l0.387,0.389h0.388v0.386h0.387v0.39h1.55v0.774c-0.258,0.258-0.774,0.646-1.55,1.163
		l-1.55,0.387l-1.55,0.388l-1.55,0.388h-0.387c-0.517,0-1.551,0.52-3.101,1.55c-1.808,0.519-4.65,2.067-8.526,4.652
		c-3.617,2.065-6.847,4.522-9.689,7.363l-4.264,4.264h-0.387v0.388h-0.388v0.389h-0.388v0.39h-0.387v-0.39l-0.388-0.389
		l-0.387-0.388v-0.388l-0.387-0.389l-0.387-0.388v-0.39l-0.388-0.388l-0.388-0.388v-0.388l-0.388-0.389v-0.775h0.388v-0.388h0.388
		v-0.389h0.388l5.427-5.427c3.875-3.618,7.622-6.458,11.239-8.526c3.618-2.066,6.588-3.618,8.914-4.651
		C302.136,234.885,303.169,234.237,303.169,233.98z"/>
	<path fill="#CFC859" stroke="#CFC859" stroke-width="0.712" d="M191.163,199.874h1.163l0.775,0.389h2.325
		c1.293,0.258,1.938,0.516,1.938,0.774s0.518,0.646,1.55,1.163c1.034,0.257,1.55,0.646,1.55,1.163c0,0,0.13,0.129,0.388,0.387
		c0,0.258,0.13,0.388,0.388,0.388v0.388h-0.388c-0.258,0.258-1.033,0.388-2.325,0.388c-1.291,0.518-2.454,0.518-3.489,0
		c-0.774-0.516-1.291-0.516-1.549,0c-0.258,0.518-0.646,0.775-1.163,0.775h-1.55v-0.387h-0.388v-0.389H190v-0.775h-0.387v-0.388
		h-0.387v-0.774h-0.388v-0.388h0.388l0.387-0.388l0.387-0.388h0.388l0.388-0.388l0.388-0.389h0.388v-0.387h0.388v-0.388h-0.388
		C191.292,200.262,191.163,200.133,191.163,199.874z"/>
	<path fill="#A7C83E" stroke="#A7C83E" stroke-width="0.712" d="M241.546,161.892h0.775l2.325,2.713
		c1.293,1.55,2.713,3.747,4.263,6.589c1.551,2.842,2.842,6.072,3.876,9.689c0.518,3.358,0.905,7.881,1.164,13.565
		c0.258,5.685,0.258,9.302,0,10.852v2.326h-0.775v-0.388l-0.389-0.774V205.3l-0.387-0.775c-0.259-0.517-0.647-1.679-1.163-3.488
		c-0.517-1.809-1.808-4.909-3.876-9.302c-2.067-4.392-4.779-9.042-8.139-13.951l-4.65-7.364v-0.388h0.388v-1.938
		c0-1.292,0.128-1.938,0.387-1.938c0.259,0,0.646-0.646,1.164-1.938c0.774-1.293,1.55-1.938,2.324-1.938
		c0.517,0.517,0.905,0.517,1.163,0C240.255,162.023,240.771,161.892,241.546,161.892z"/>
	<path fill="#A3C63B" stroke="#A3C63B" stroke-width="0.712" d="M210.929,159.18v-7.751h1.55v0.775c0,0-0.258,0-0.774,0
		l-0.388,0.389v0.387l0.388,0.388v0.388c0,0.258,0.387,0.775,1.163,1.549c0.775,0.774,1.68,2.067,2.713,3.876s1.55,3.358,1.55,4.65
		v1.55l-0.775,4.263c-0.517,2.843-1.421,5.555-2.713,8.139c-1.291,2.583-1.938,3.876-1.938,3.876h-0.388v0.388h-0.388v0.387h-0.387
		v0.387h-0.388v0.389h-0.387v0.388h-0.388v-0.388l-0.388-0.389v-0.387h-0.775v-0.775l0.388-0.388v-0.387c0-0.518,0-1.809,0-3.876
		c0.516-2.067,1.034-4.392,1.549-6.977C210.671,167.707,210.929,164.088,210.929,159.18z"/>
	<path fill="#ECC14A" stroke="#ECC14A" stroke-width="0.712" d="M284.566,203.362l2.713,0.388c1.809,0.258,3.23,0.518,4.263,0.774
		c1.292,0.258,2.196,0.517,2.713,0.775l0.774,0.388l-0.387,0.775c-0.258,0.774-0.258,1.163,0,1.163
		c0.258,0.258,0.387,0.388,0.387,0.388c-0.257,0-0.387,0-0.387,0v0.388h-0.388c-0.258,0.257-0.517,0.387-0.776,0.387
		c-0.258,0-2.196,1.422-5.813,4.264l-5.425,3.875v0.388h-0.388v0.389h-0.387v0.388h-0.388v0.388h-0.388v0.388l-4.264,4.265
		c-2.842,2.841-4.263,4.392-4.263,4.649l-0.388,0.389h-0.387l-0.388-0.389l-0.388-0.388v-0.388h-0.388v-0.388h-0.387
		c0,0-1.034-1.034-3.101-3.101l-3.101-3.101h-0.388v-0.775h0.388c0,0,0.775-0.904,2.325-2.713c1.808-1.809,3.101-3.101,3.876-3.875
		c1.033-1.034,2.325-1.937,3.875-2.711l1.938-1.551h0.388l0.388-0.387l0.387-0.388l3.875-2.326
		C283.274,204.137,284.566,203.362,284.566,203.362z"/>
	<path fill="#E4A55C" stroke="#E4A55C" stroke-width="0.712" d="M325.648,205.688h0.389c0.258,0,0.388,0.129,0.388,0.388v0.388
		l-3.102,2.325c-2.065,1.292-4.391,3.359-6.975,6.202c-2.584,2.584-5.297,5.942-8.139,10.077c-2.841,4.135-4.263,6.458-4.263,6.976
		c0,0.259-0.129,0.518-0.387,0.775l-0.388,0.775h-0.775c-0.259,0-1.55-0.775-3.875-2.325c-2.067-1.293-3.101-2.067-3.101-2.327
		v-1.162c0-0.517,0.774-2.454,2.325-5.814l2.326-5.425v-0.388l1.55-1.164c1.034-1.033,2.714-2.066,5.039-3.101
		c2.326-1.033,3.488-1.679,3.488-1.938h0.388l6.588-2.325c4.651-1.292,7.235-1.938,7.751-1.938S325.648,205.688,325.648,205.688z"/>
	<path fill="#007FFF" stroke="#75C5E8" stroke-width="0.712" d="M162.095,239.795v0.388h-1.55
		c-0.775,0.257-4.134,0.388-10.076,0.388l-9.302,0.387v-14.34h21.316l0.775-0.388c0.517-0.259,0.903-0.259,1.163,0
		c0.259,0,0,2.197-0.775,6.588C162.611,237.469,162.095,239.795,162.095,239.795z"/>
	<path fill="#C7813F" stroke="#C7813F" stroke-width="0.712" d="M187.287,215.765l1.55-0.775v0.389h0.388v1.163l0.387,0.774
		l0.387,0.388v1.163l0.388,0.388v0.388H190c-0.258,0-0.517-0.13-0.774-0.388c0-0.258-0.776-0.129-2.326,0.388l-1.938,0.775
		l-0.388,0.387v-0.387c0,0-0.129-0.258-0.387-0.775v-1.55h0.775v-0.388h0.388v-0.389h0.388v-0.388
		C185.995,216.927,186.512,216.54,187.287,215.765z"/>
	<path fill="#179ED0" stroke="#179ED0" stroke-width="0.712" d="M333.399,329.709l-0.774-0.774h1.938l4.65,0.774
		c3.102,0.518,5.297,0.774,6.589,0.774h2.325l-1.162,3.102c-0.775,2.066-2.197,3.875-4.263,5.426
		c-2.067,1.55-3.747,2.584-5.039,3.102c-1.292,0.258-2.067,0.388-2.325,0.388h-0.775l-0.775-0.388h-1.163l-0.775-0.388l-0.388-0.389
		h-0.387v-0.775h0.387v-0.387h0.388v-0.39c0,0,0-0.775,0-2.325c0.258-1.55,0.775-2.455,1.55-2.713
		c0.517-0.518,0.904-1.422,1.163-2.711C334.562,330.742,334.175,329.967,333.399,329.709z"/>
	<path fill="#BBD041" stroke="#BBD041" stroke-width="0.712" d="M206.278,144.451h0.388c0,0,0.129,0.13,0.387,0.388l0.388,0.388
		c0.258,0.258,0.387,0.905,0.387,1.938c0,1.034-0.129,2.196-0.387,3.488v1.938h0.387l0.388-0.388h0.774l0.388-0.389l0.389-0.387
		h0.388c0.258,0,0.646,0,1.163,0h0.775h-1.163v7.751c0,4.909-0.258,8.526-0.774,10.852c-0.518,2.583-1.034,4.909-1.55,6.977
		c0,2.067,0,3.358,0,3.876v0.387l-0.388,0.388v0.775h0.774v0.387c0,0.258,0.13,0.389,0.388,0.389c0.258,0,0.517-0.13,0.776-0.389
		h0.387l-3.488,3.876c-2.325,2.326-5.168,4.78-8.526,7.364c-3.618,2.584-5.555,3.876-5.813,3.876h-0.388l-0.388,0.389l-0.388,0.387
		h-0.388l-0.388,0.387l-0.388,0.389H190v0.775h0.388l0.388-0.389h0.388c0,0.259,0.129,0.389,0.388,0.389h0.388v0.388h-0.388v0.388
		h-0.388l-0.388,0.388l-0.388,0.388H190l-0.387,0.388l-0.387,0.387h-0.776v-0.387h-0.388v-0.388h-2.712v-0.775h0.387v-0.388h0.388
		v-0.776c0-0.257,0.516-1.162,1.55-2.711c0.517-1.551,2.067-6.719,4.65-15.502c2.067-9.044,2.972-13.565,2.712-13.565h-0.774v-0.389
		c0.258-0.258,0.388-0.774,0.388-1.549c0-0.518,0-1.55,0-3.101c0.517-1.292,1.033-2.326,1.549-3.1
		c0.517-1.034,0.904-2.584,1.162-4.651c0.259-1.809,0.775-3.616,1.55-5.425c0.775-1.55,2.067-2.584,3.876-3.101
		c1.809-0.517,2.843-1.034,3.101-1.55C206.148,144.451,206.278,144.193,206.278,144.451z"/>
	<path fill="#0BA3CB" stroke="#0BA3CB" stroke-width="0.712" d="M299.681,215.765h0.387v0.775l-2.326,5.425
		c-1.549,3.36-2.325,5.298-2.325,5.814v0.774c0,0-0.259,0.129-0.775,0.388l-0.388,0.388v-0.388c0-0.258-0.904-0.903-2.713-1.938
		c-1.808-1.291-2.713-2.065-2.713-2.325c-0.258-0.516-0.129-1.033,0.387-1.549l0.775-0.775l3.488-2.325
		c2.326-1.55,3.489-2.326,3.489-2.326v-0.388l1.163-0.774C298.907,216.021,299.423,215.765,299.681,215.765z"/>
	<path fill="#22B0D8" stroke="#22B0D8" stroke-width="0.712" d="M208.216,295.603l0.387-2.711v1.938
		c0,1.549,0.129,2.842,0.387,3.875l0.388,1.938v1.55l0.389-0.388l0.388-0.774v-1.164l0.387-0.389l0.388-0.388v-0.39
		c0-0.517,0.258-1.033,0.775-1.549c0-0.775,0.516-1.679,1.55-2.714l1.163-1.549v0.389l-0.388,0.389v0.773h0.388l0.387-0.387h1.163
		l1.938-0.775c1.292,0,2.067-0.129,2.326-0.389h0.775l0.775,0.389h2.325l0.775,0.389l0.387,0.388h0.388v1.163l0.388,1.938v2.325
		h-0.775v0.775l-1.163-0.39c-1.033-0.257-2.454-0.388-4.263-0.388s-3.359,0.518-4.65,1.551c-1.293,1.032-2.326,2.065-3.101,3.1
		c-0.775,1.034-1.163,1.55-1.163,1.55l-0.387,0.388l-0.387,0.388v0.774l-0.389,0.389l-0.388,0.389v-0.389l-0.388-1.163l-0.387-0.774
		v-1.55c0-0.775-0.129-1.937-0.387-3.487L208.216,295.603L208.216,295.603z"/>
</g>
</svg>
