<svg version="1.1" id="Layer_1" xmlns="http://www.w3.org/2000/svg" xmlns:xlink="http://www.w3.org/1999/xlink" viewBox="0 0 768 430" enable-background="new 0 0 768 430" xml:space="preserve">
<g>
	<g>
		<circle fill="#F7F0C6" cx="397.506" cy="204.291" r="106.993"/>
		<circle fill="#FEE660" cx="397.505" cy="205.9" r="87.535"/>
		<circle fill="#FFB466" cx="397.506" cy="204.827" r="67.057"/>
		<circle fill="#FF9569" cx="397.505" cy="205.363" r="51.742"/>
	</g>
	<path fill="none" stroke="#CFE7EB" stroke-width="6.2937" stroke-miterlimit="10" d="M226.892,218.42"/>
	<path fill="#EDE6D3" d="M401.885,398.449c-36.45,0-71.559-10.838-101.528-31.341c-29.26-20.018-51.794-47.88-65.168-80.576
		c-1.053-2.574,0.18-5.514,2.754-6.566c2.575-1.052,5.514,0.181,6.566,2.754c26.252,64.186,88.026,105.659,157.376,105.659
		c93.715,0,169.958-76.243,169.958-169.959c0-93.715-76.243-169.958-169.958-169.958c-66.702,0-127.539,39.295-154.99,100.11
		c-1.144,2.534-4.125,3.662-6.661,2.518c-2.534-1.144-3.662-4.126-2.518-6.661c14.067-31.164,36.635-57.604,65.267-76.461
		c29.377-19.349,63.576-29.576,98.901-29.576c48.088,0,93.296,18.726,127.299,52.729c34.003,34.002,52.729,79.212,52.729,127.299
		c0,48.089-18.727,93.297-52.729,127.3C495.181,379.722,449.973,398.449,401.885,398.449z"/>
	<path fill="none" stroke="#FFFFFF" stroke-width="6.2937" stroke-miterlimit="10" d="M226.085,231.056"/>
	<g>
		<g>
			<g>
				<g>
					<path fill="#005081" d="M311.664,157.825c0,0,1.263-11.542,19.646-15.077s37.406,6.904,40.268,31.08
						c2.861,24.176-1.657,27.394-1.657,27.394s-6.438-16.328-12.697-20.159c-0.541-2.357-0.282-4.421-0.282-4.421
						s0.658,0.022,1.516-0.143s8.501-4.506,8.319-6.187c-2.429,1.138-9.357,6.46-11.832,5.445c0.851-0.91,7.55-2.794,8.779-5.604
						c-2.479,0.029-6.565,2.642-9.908,3.881c1.073-1.362,3.695-5.559,6.646-6.2c-0.662-0.395-3.859-1.72-8.988,3.984
						c-0.654-3.025-3.756-12.983-10.417-11.646c-0.243-0.792,1.326-8.87,1.326-8.87l-4.36,8.167c0,0-1.939-3.655,1.958-10.11
						c-0.937,1.243-3.478,6.151-3.796,9.289c-2.298-0.957-10.576-3.729-15.158-2.12c0.238-0.829,2.959-4.149,2.959-4.149
						s-0.477-0.747-2.35-0.387C319.76,152.352,312.931,156.686,311.664,157.825z"/>
					<path fill="#005081" d="M371.316,201.625c0,0-5.53-8.82-10.084-11.972c-4.555-3.151-11.982-2.842-13.92-5.603
						c1.424,4.426,1.46,6.358,1.46,6.358l-1.717,0.33c0,0-1.082-6.132-3.723-5.922c-2.642,0.209-9.803,2.034-10.694,0.639
						c0.447,2.301,1.886,8.215,1.886,8.215s-3.653-6.682-5.242-7.57c0.669,1.139,2.179,4.877,2.257,6.279
						c-1.638-2.52-3.547-5.509-4.579-5.385c-1.031,0.124-5.581,4.802-10.33,5.417c-1.327,0.255-1.061,3.188-1.061,3.188
						s-3.438-2.546-4.719-3.866c0.673,1.511,2.737,7.305,2.814,8.708c-2.702-2.539-5.791-4.63-6.571-4.48
						c0.567,0.339,3.08,2.764,3.08,2.764s-11.414,4.955-7.211,22.197c1.542-2.161,9.728-10.522,14.292-10.878
						c0.074,1.029,0.837,2.226,0.837,2.226s1.646-7.03,2.72-9.1c-0.166,2.12-2,7.619-1.032,10.417
						c0.28-1.62,2.435-6.436,2.969-7.657c0.295,2.703,0.347,4.707,3.02,4.455c2.672-0.253,3.108-1.903,5.545-2.297
						c2.436-0.395,4.992-0.438,4.992-0.438l-0.483-5.128l0.982-0.338l1.336,5.822l6.651-0.496l1.451-0.429
						c0,0,0.634-3.626,3.707-4.441c-1.689,1.518-2.886,5.179-2.886,5.179S366.867,200.354,371.316,201.625z"/>
					<path fill="#005081" d="M370.271,201.154c0,0,9.986,5.688,12.915,14.187c-4.972,0.173-5.737,1.104-5.737,1.104
						s4.16,0.543,8.016,1.367c-3.907,1.087-6.446,0.681-6.094,0.612c0.351-0.067,7.03,1.334,7.202,4.21s-0.41,7.798-3.22,8.339
						s-4.763,0.02-4.763,0.02l6.989,2.572l-7.268-0.057l6.309,1.92c0,0-2.821,8.3-4.368,9.194c-1.547,0.895-3.729,0.269-3.729,0.269
						l4.206,1.28l-0.543,1.895c0,0-4.592-0.833-5.027-2.017c1.006,1.895,3.232,2.361,3.461,3.361
						c0.229,1.001-3.414,8.562-12.903,10.538c-0.542-2.358-2.263-11.276-3.1-13.502s-3.231-3.779-3.231-3.779
						s5.793-1.039,8.66-0.621c-3.376-1.216-5.519-4.16-9.415-2.665c0.991-2.428,3.74-11.758,3.74-11.758s3.845-1.709,6.405-2.275
						c-3.607,0.619-7.933,1.301-7.933,1.301s4.052-4.359,5.848-4.705c-3.217,0.545-5.961,1.371-5.961,1.371s7.338-2.828,8.837-3.042
						c-3.065,0.142-9.202,1.098-9.202,1.098S363.797,204.376,370.271,201.154z"/>
					<path fill="#005081" d="M370.271,201.154"/>
					<path fill="#005081" d="M369.862,200.615c7.1-0.973,41.529-1.758,49.384,21.865c6.001,19.992,0.123,24.253-1.553,27.064
						c-1.018-1.266-6.162-8.942-6.162-8.942s1.617-4.759,2.171-7.454c-3.31,5.764-4.573,7.119-4.573,7.119s2.479-7.527,3.57-10.651
						c-4.041,6.088-6.87,9.476-6.87,9.476s-3.122-10.421-7.462-11.198c1.217-2.1,4.233-10.056,2.922-13.516
						c-2.102,6.532-4.256,11.72-4.256,11.72s-1.609-6.254-3.125-6.949s0.107-4.852-0.254-6.123c-0.36-1.271-2.33-4.727-2.33-4.727
						s0.678,5.872-1.334,9.819c-1.66-3.526-3.727-9.069-3.727-9.069s1.316,4.061-0.901,6.7c-1.07-2.612-4.83-8.19-6.225-7.42
						c0.595,1.517,0.41,3.08,0.836,3.817C377.943,212.836,376.375,203.819,369.862,200.615z"/>
					<path fill="#005081" d="M370.271,201.154c0,0,5.372-11.214,21.999-14.411c16.627-3.197,34.962,4.242,37.815,16.671
						s0.329,16.346-1.143,19.166c-0.697-2.328-0.711-9.486-2.045-12.81c0.06,4.165,0.097,6.098-1.071,8.112
						c-0.599-1.898-1.817-4.723-2.101-4.891c-0.283-0.17-4.76-3.338-5.696-3.157c-0.341-1.128,0.684-4.831,0.684-4.831l-2.426,4.345
						l-0.197-4.811l-3.277,3.167c0,0-2.482-6.907-8.895-8.21c-0.168-2.504-1.014-4.057-1.014-4.057s0.154,4.222-0.975,5.334
						c-0.365-1.943-1.826-5.467-2.537-6.076c0.254,1.816,0.436,2.602,0.436,2.602l-0.762,0.146c0,0,0.14,1.763,0.148,2.508
						c-0.949-0.937-7.396-5.59-16.838-3.401s-9.82,3.38-12.388,4.62"/>
				</g>
			</g>
			<path fill="#00A2A1" d="M372.615,201.154c0,0,29.025-3.02,41.594,12.448c12.57,15.469,7.867,29.932,4.172,34.94
				c2.172-12.595,6.622-20.028-6.932-34.806C397.898,198.96,376.257,201.069,372.615,201.154z"/>
			<path fill="#00A2A1" d="M371.316,199.431c0,0,9.251-14.387,30.057-13.429c20.805,0.958,28.646,12.85,29.493,21.382
				c0.848,8.532,0.289,11.942-1.924,15.196c0.604-2.995,4.802-12.764-3.08-25.506c-6.501-10.511-29.258-9.52-33.593-9.123
				C387.936,188.348,373.551,194.748,371.316,199.431z"/>
		</g>
		<path fill="#005081" d="M370.271,200.248c0,0-62.703,38.042-90.763,124.907c12.125,1.585,15.936,0,15.936,0
			S318.307,242.411,370.271,200.248z"/>
		<path fill="#00A2A1" d="M371.316,202.485c0,0,13.911,26.719-3.427,55.478c3.901-12.893,10.645-28.164,3.251-56.327"/>
		<path fill="#00A2A1" d="M367.889,200.356c0,0-11.467-7.452-33.863-4.571c-22.396,2.881-30.417,11.188-31.544,22.849
			c1.961-4.106,3.305-19.873,32.704-21.956C364.583,194.596,363.06,200.356,367.889,200.356z"/>
		<path fill="#00A2A1" d="M315.658,151.309c0,0,15.232-11.662,32.671-6.247c28.267,8.776,21.071,52.683,22.987,53.507
			c1.882-9.775,4.792-49.655-24.39-55.408C326.386,139.112,318.501,148.21,315.658,151.309z"/>
	</g>
	<g>
		<g>
			<path fill="#005081" d="M241.289,172.392c0,0,17.852,1.116,26.168,10.959c-4.768,1.116-4.768,1.116-4.768,1.116
				s4.657-0.914,7.54,0c-1.885,0.913-4.99,0.406-7.873,2.232c3.437-0.406,11.421-0.204,12.973,4.871c-4.99,0-9.757,0-9.757,0
				s9.425,1.217,9.757,2.74c0.333,1.521,2.107,5.581,2.107,5.581l-6.764,0.812h7.651l-7.318,0.913l7.318,1.015h-5.544l6.209,2.942
				c0,0-4.989,9.336-3.327,16.945c-2.994-2.131-9.868-11.061-11.531-11.467c-1.663-0.405-3.991-7.914-3.991-7.914l3.326-1.014
				l-3.326-0.406c0,0,2.106-1.42,2.217-2.638c0.111-1.218-2.772,0.608-2.772,0.608s-1.663-3.145-3.216-3.957
				c0.998-0.71,4.325-3.145,4.325-3.145s-5.212,0.405-6.764,1.014c0.776-1.217,3.77-3.45,3.77-3.45l-4.546,2.131
				C253.153,192.28,251.157,177.567,241.289,172.392z"/>
			<path fill="#005081" d="M275.191,221.998c-0.496,0.791,9.664-39.725,35.427-39.725c8.094,0,14.137,8.98,13.361,13.242
				c0,0-0.333,5.885-1.774,7.205c-0.111-3.552-0.444-8.997-0.444-8.997s-0.222,6.359-2.18,6.359
				c-1.183-2.638-4.62-4.296-5.988-4.262c-0.37-1.726-2.144-5.919-2.144-5.919s0.296,5.04,0.037,5.919
				c-0.518-1.522-1.7-4.262-2.181-4.364c0.37,1.117,0.998,5.006,0.998,5.682c-1.368,0-5.95-1.156-10.386,4.767
				c-1.996-1.215-5.359-3.853-5.359-3.853l5.006,5.412c0,0-6.632-4.262-8.887-4.566c-1.663,0.068,5.174,6.021,5.396,8.693
				c-1.626-0.305-4.953-5.621-7.318-5.686c-0.074,1.119,4.065,5.922,4.62,7.613c-2.033,0.643-6.431,3.247-7.208,3.078
				c-0.776-0.169-1.293-0.305-1.293-0.305l3.142,2.74l-4.214-2.504c0,0,1.849,2.707,1.627,2.707
				C285.208,215.234,277.04,219.055,275.191,221.998z"/>
			<path fill="#005081" d="M275.191,221.998l8.354-4.803c0,0,3.252,1.488,5.174,1.488s3.104-0.812,3.104-0.812v2.976l3.696-5.006
				l-1.035,5.547l4.435-3.922c0,0,9.314,3.787,12.271,6.898c-3.696,1.624-5.322,3.518-5.322,3.518s5.026-1.082,6.801-0.947
				c1.774,1.354,8.723,7.307,8.723,17.725c0,5.345-0.887,7.373-0.887,7.373s-3.844-9.673-8.131-9.605
				c-0.148-1.218-0.666-1.556-0.666-1.556l-0.147,1.285l-4.509-1.691c0,0-0.148-2.503-0.591-3.247
				c-0.222,1.624-0.222,2.977-0.222,2.977s-4.731-6.562-13.527-6.258c-0.074-1.59,0.055-2.807,0.832-3.669
				c-1.663,1.42-2.55,2.942-2.55,2.942s-0.554-2.029,0.222-4.211c-1.275,1.572-2.384,2.232-2.384,2.232s-3.77-2.588-6.487-2.588
				C280.181,228.746,275.58,223.977,275.191,221.998z"/>
			<path fill="#005081" d="M276.427,221.408c0,0,0.37,12.38,2.735,17.114c-2.44-0.067-5.396,0.608-7.022,1.827
				c3.178,0,7.318,0.473,7.54,1.556c-3.622-0.338-7.466-0.473-8.279,0c2.439,0.203,7.835,3.044,8.723,3.044
				c-1.183,1.556-3.252,4.668-2.661,10.147c-1.553-0.474,0,1.082,0,1.082s-3.992-1.488-6.062-1.42
				c-2.07,0.067-2.366,1.42-2.366,1.42s7.54,1.285,7.614,3.314c-0.222,1.15-4.361,0.744-6.061,0.744
				c2.365,1.082,5.248,2.706,5.248,4.06c-2.439-0.406-4.287-1.962-6.505-0.88c2.662,0.135,7.318,1.826,7.245,3.855
				c-1.331,1.15-7.096,7.644-7.835,11.229c-2.07-1.217-12.64-12.312-11.384-21.038c0.074-2.773,0.592-2.097,0.592-2.097l2.587-1.016
				l-2.809-0.473l-1.626-1.353c0,0,4.805-0.711,5.396-0.88c-0.85-0.473-3.289-1.387-3.326-2.536
				c0.148-0.204,0.924-0.407,0.924-0.407l0.111-1.859c0,0-0.592-0.981-0.592-2.639s3.105-0.98,3.105-0.98l0.147-0.98
				c0,0-2.882-0.474-2.846-1.624c0.554-0.102,2.735-0.169,2.735-0.169l0.037-0.541l-2.883-1.725
				C258.908,238.186,265.043,223.572,276.427,221.408z"/>
			<path fill="#005081" d="M235.993,259.899c0,0,0.222-7.813,2.106-10.451c-1.108-0.406-1.053-1.218-1.053-1.218h2.827
				c0,0,1.553-2.232,1.885-3.856c-0.998-2.029-3.77-6.798-3.77-6.798l5.988,4.769c0,0,3.659-4.87,6.542-4.769
				c-1.996-1.928-4.103-7.104-4.103-7.104l5.1,6.596c0,0,1.109-11.669,2.218-11.567c1.109,0.101,3.77,7.001,3.77,7.001l-1.404-5.275
				l2.957,3.551c0,0,7.317-7.272,15.855-9.369c0,0-5.211-2.097-10.644-2.097c-5.434,0-31.712,2.131-31.712,28.006
				c0.456,12.773,2.994,12.581,2.994,12.581"/>
			<path fill="#005081" d="M275.661,222.518c0,0-19.515-17.554-22.508-18.467c-0.222,2.333-0.555,6.291-0.555,6.291l-2.217-6.291
				l-0.776,5.986l-2.55-6.596c0,0-2.218-0.102-5.766,0c-3.548,0.102-14.581,3.196-14.581,3.196l1.83,5.886l-6.32-7.712l4.269,6.343
				l-3.992-3.4l1.829,4.465l-3.271-3.248c0,0-11.254,9.218-18.276,9.285c1.922,2.165,10.238,7.712,16.115,7.458
				c1.774,0.051,2.55,0.009,2.55,0.009l-0.111-3.193l2.329,3.691l0.776-4.312l0.222,2.536c0,0,2.883-1.115,4.158-1.115
				c1.275,0,3.77,0.676,3.77,0.676l-0.555-7.645l2.938,6.766l0.666-7.915l4.38,6.697c0,0,3.271-1.776,5.821-1.776
				c2.55,0,5.543,1.472,5.543,1.472l1.664-4.211l1.497,3.653l2.606-2.893l0.222,3.044
				C257.366,221.198,271.282,220.945,275.661,222.518z"/>
			<path fill="#00A2A1" d="M242.988,172.559c0,0,20.064,2.201,32.363,47.594C271.943,213.768,263.993,181.053,242.988,172.559z"/>
			<path fill="#00A2A1" d="M270.996,219.635c0,0-18.545-13.171-36.523-9.173c-17.977,3.998-25.452,9.841-31.839,8.218
				c6.292,1.322,28.832-6.763,32.407-7.115C243.462,210.736,253.397,211.993,270.996,219.635z"/>
			<path fill="#00A2A1" d="M274.912,222.6c0,0-7.496,3.344-10.16,25.977c-2.664,22.633,2.178,24.419,3.36,28.229
				c-0.521-5.022-5.819-8.562-1.467-29.268C270.996,226.832,273.027,225.279,274.912,222.6z"/>
			<path fill="#00A2A1" d="M277.336,222.01c0,0,11.496-0.22,19.728,3.692c8.232,3.911,20.296,8.718,23.135,21.446
				c-2.98-6.105-7.806-14.812-22.993-19.486S280.612,222.098,277.336,222.01z"/>
			<path fill="#00A2A1" d="M271.943,221.408c0,0-6.707-2.923-17.641,0s-20.301,10.889-20.585,25.09
				c-0.284,14.201,1.966,13.206,1.966,13.206s-4.463-15.964,1.724-25.501C243.594,224.665,253.734,219.312,271.943,221.408z"/>
			<path fill="#00A2A1" d="M322.611,200.714c0,0,5.654-14.612-12.064-18.119c-15.835-3.135-32.665,27.32-34.783,37.039
				c1.288-1.018,16.167-39.844,35.28-36.52C317.261,184.196,324.527,187.466,322.611,200.714z"/>
		</g>
		<path fill="#005081" d="M272.492,221.408c0,0,45.876,31.801,62.743,99.354c-9.341,0.677-12.167-0.7-12.167-0.7
			S309.953,255.884,272.492,221.408z"/>
	</g>
	<g>
		<defs>
			<path id="SVGID_1_" d="M402.287,308.646c-55.167,0-106.185,7.095-147.657,19.126c32.515,42.649,86.52,70.561,147.657,70.561
				c61.136,0,115.141-27.911,147.655-70.561C509.545,316.052,457.786,308.646,402.287,308.646z"/>
		</defs>
		<clipPath id="SVGID_2_">
			<use xlink:href="#SVGID_1_"  overflow="visible"/>
		</clipPath>
		<path clip-path="url(#SVGID_2_)" fill="#00D0D0" d="M310.013,377.431c0,0,59.997-10.066,108.225-2.32
			c48.228,7.745,75.402,9.671,92.377-2.93c16.976-12.6-47.716,45.302-85.017,40.291
			C388.297,407.459,327.321,402.989,310.013,377.431z"/>
		<path clip-path="url(#SVGID_2_)" fill="#00C1C0" d="M290.043,365.7c0,0,74.47-25.767,112.51-21.667
			c38.04,4.101,104.379,35.465,121.791,19.446s-20.15,20.64-46.462,19.225s-79.824,8.253-103.798,0.039
			c-23.974-8.212-49.337,4.662-56.533,3.347C310.355,384.774,296.01,370.501,290.043,365.7z"/>
		<path clip-path="url(#SVGID_2_)" fill="#00A3A2" d="M265.83,345.55c0,0,18.217-15.123,51.281-15.73
			c33.064-0.607,73.37,6.683,86.741,4.557s25.984-7.958,49.218-6.409c23.235,1.549,75.753,13.212,83.645,12.483
			c7.892-0.728,5.434,2.103,5.434,2.103s7.511,33.437-56.549,24.324c-64.062-9.112-90.696-17.617-108.081-13.365
			c-17.384,4.253-47.803,8.827-63.13,10.337c-15.328,1.51-24.953,7.391-29.268,4.603C280.804,365.662,265.83,345.55,265.83,345.55z"
			/>
		<path clip-path="url(#SVGID_2_)" fill="#44938D" d="M269.824,346.68c0,0,16.209-11.645,36.752-13.011
			c20.542-1.367,90.439,6.835,107.52,3.19c17.079-3.646,40.977-9.568,53.424-5.923c12.447,3.645,69.703,13.668,73.188,13.211
			c3.486-0.454,10.693-1.365,13.562-11.39c2.868-10.023-19.535-17.766-28.497-20.956c-8.962-3.192-76.981-8.204-91.017-6.837
			c-14.036,1.367-51.012,0.122-67.526,1.36c-16.514,1.237-75.958,3.199-80.937,5.477c-4.979,2.275-42.68-4.717-35.281,9.486
			C258.411,335.492,261.571,347.616,269.824,346.68z"/>
	</g>
	<path opacity="0.6" fill="#F5F5F5" d="M298.45,330.51c0,0,8.438,4.327,10.011,4.563c1.573,0.236,1.495-1.73,1.809-2.438
		s5.979,0.786,7.788,1.022c1.81,0.235,8.261,1.73,9.834,1.967c1.573,0.235-0.079-3.068,0-4.17
		c0.079-1.101-14.633-0.314-15.026-0.786c-0.394-0.473-4.484-0.158-4.799,0.786C307.753,332.398,298.863,330.393,298.45,330.51z"/>
	<path opacity="0.6" fill="#F5F5F5" d="M256.223,325.858c0,0,3.147,6.251,4.72,5.728c1.574-0.525,8.077-0.525,10.07-0.42
		c1.993,0.104,5.56,3.042,7.133,3.882c1.573,0.839,5.35,0.839,7.133,0.209c1.783-0.629,8.287,0.524,9.335-0.104
		c1.049-0.63,1.469-0.839,1.783-2.832c0.315-1.993-2.727-1.05-4.3-0.63c-1.574,0.419-5.245,1.028-8.182,1.354
		c-2.937,0.325-7.448-2.088-8.707-3.031c-1.258-0.944-7.657-1.049-9.125-0.84c-1.468,0.21-5.874,0.105-5.874-1.048
		C260.209,326.971,257.233,326.154,256.223,325.858z"/>
	<path opacity="0.6" fill="#F5F5F5" d="M328.596,327.683c1.157,0.977,2.85,2.64,4.441,2.671c2.05,0.042,0.759-2.434,0.821-3.456
		c-0.005,0.092,6.548,1.461,7.136,1.589c0.61,0.134,1.139,0.363,1.657,0.052c0.675-0.405,0.852-0.556,1.467-1.076
		c1.24-1.047,2.957,0.255,3.226,0.649c0.269,0.394,3.133,3.354,4.291,1.854c1.157-1.5,0.086-2.049,0.292-2.287
		c0.905-1.047,5.424,0.852,5.369-0.786c-0.055-1.638-3.692-1.357-4.363-1.948c-0.282-0.248-1.137-2.068-1.977-3.029
		c-0.839-0.963-1.34,0.851-1.985,1.308c-1.361,0.962-2.09,0.514-3.616,0.37c-1.507-0.142-1.967,0.557-3.037,1.373
		c-0.716,0.548-1.656,0.632-2.53,0.678c-1.563,0.082-5.634-1.253-6.667,0.33c-0.695,1.066-0.63,1.369-2.005,1.409
		C330.306,327.405,329.339,327.309,328.596,327.683z"/>
	<path opacity="0.6" fill="#F5F5F5" d="M387.471,317.913c0.012,0.43,0.5,0.899,0.931,1.232c1.358,1.052,2.979,1.777,4.414,2.719
		c0.945,0.62,2.216,1.934,3.411,2c1.176,0.066,2.062-1.252,3.038-1.737c2.132-1.061,5.378,0.636,7.457,1.346
		c0.91,0.312,10.46,3.942,10.657,3.282c0.132-0.442-1.725-2.194-1.928-2.694c-1.01-2.474,5.678-2.123,6.436-0.738
		c-0.102-0.186-0.625-1.288-0.813-1.312c0.677,0.087,1.444,0.293,2.129,0.252c0.011,0-0.374-2.171-0.397-2.298
		c0.021,0.125,2.177,1.013,2.398,1.134c0.869,0.475,1.738,0.937,2.735,1.07c1.318,0.176,2.583-0.184,3.89-0.275
		c1.268-0.09,2.399,0.18,3.469,0.874c0.844,0.55,1.583,1.56,2.526,1.925c1.511,0.586,3.038-1.853,4.425-2.336
		c0.954-0.333,1.932-0.315,2.925-0.257c0.279,0.017,1.011,0.216,0.933-0.121c-0.092-0.395-1.833-0.846-2.147-0.969
		c-1.049-0.409-2.251-0.785-3.114-1.537c-2.928-2.549,2.379-3.688,2.963-3.573c1.389,0.27,0.292-2.072-1.033-1.992
		c-1.747,0.105-4.023,0.428-5.063,2.095c-1.245,1.999,0.474,4.353,2.384,5.037c0.495,0.177,1.018,0.279,1.533,0.378
		c-1.329,0.607-2.886,1.8-4.302,0.904c-1.488-0.942-2.53-2.285-4.452-2.316c-1.487-0.024-2.806,0.931-4.304,0.712
		c-1.798-0.264-3.691-0.916-5.475-1.33c-0.438-0.103-1.849-0.767-2.272-0.498c-0.678,0.434,0.451,1.804,0.834,2.114
		c-0.363-0.295-0.943-0.108-1.368-0.176c-0.614-0.098-1.257-0.222-1.88-0.124c-1.911,0.095-2.636,1.249-4.268,1.887
		c-1.826,0.715-3.977-0.189-5.662-0.938c-1.688-0.751-3.258-1.764-5.072-2.204c-1.744-0.424-3.523-0.243-5.297-0.332
		c-1.934-0.097-3.73-0.64-5.566-1.213c-1.209-0.378-3.254-1.236-4.525-0.652C387.613,317.436,387.464,317.668,387.471,317.913z"/>
	<path opacity="0.6" fill="#F5F5F5" d="M452.15,317.877c1.049-0.104,6.294-0.943,6.503,0.525c0.21,1.468,4.931,2.832,5.875,2.832
		s6.608,10.069,7.867,10.279c2.893,0.479,6.169-2.797,9.014-3.102c3.76-0.401,6.635,3.338,9.516,5.135
		c3.936,2.455,8.878,3.596,13.492,3.193c3.078-0.268,4.367-2.151,7.472-2.026c2.971,0.119,7.682,2.726,10.664,2.087
		c2.391-0.512,4.287-2.09,6.161-3.562c4.303-3.381,9.181-5.461,14.138-7.691c-3.097-0.795-6.684-1.63-9.853-0.879
		c-3.094,0.731-5.06,3.092-7.372,5.081c-2.602,2.239-5.051,2.462-8.353,2.071c-4.678-0.555-9.147,0.337-13.767,0.887
		c-3.455,0.411-6.53-1.184-9.474-2.766c-3.172-1.707-6.431-3.228-9.649-4.844c-2.633-1.322-4.282-1.066-7.1-0.053
		c-1.137,0.409-2.888,1.513-4.126,0.995c-1.165-0.488-1.971-2.537-2.659-3.502c-3.209-4.499-13.8-11.798-18.35-4.871"/>
	<path fill="#005081" d="M485.04,156.504c0.493-2.971,4.638-12.604,7.293-13.808c3.229-1.464,6.73-1.756,10.145-2.558
		c3.429-0.804,7.063-2.217,9.09-5.248c0.387-0.577,0.757-1.19,1.06-1.814c-1.154,2.833-7.028,12.535-15.158,13.165
		c-2.435,0-4.97,1.18-7.069,2.305c-0.348,0.186-1.423,0.668-1.233,1.251c0.096,0.293,0.557,0.755,0.761,0.989
		c0.705,0.81,1.663,1.513,2.518,2.16c0.188,0.143,0.361,0.326,0.538,0.477c-2.278,0.582-4.87,0.737-7.209,0.737
		c-1.834,0-4.528-1.692-4.882-3.618c1.112-0.021,2.225-0.034,3.337-0.053c-0.517-0.021-0.833-0.479-1.246-0.725
		c-1.092-0.65-2.554-0.572-3.774-0.724c-3.15-0.392-6.354-0.476-9.525-0.45c-0.934,0.007-1.866,0.028-2.8,0.061
		c-3.129,0.11-5.954-0.43-8.813-1.722c-0.796-0.36-1.578-0.75-2.349-1.161c0.281,0.15,0.837,0.123,1.142,0.167
		c1.002,0.144,2.006,0.271,3.013,0.374c2.34,0.238,4.705,0.403,7.058,0.263c2.312-0.139,4.565-0.707,6.828-1.165
		c1.284-0.26,2.578-0.486,3.887-0.578c2.446-0.171,5.693-0.455,7.562,1.507C486.009,147.176,484.882,155.367,485.04,156.504z"/>
	<path fill="#005081" d="M415.102,120.122c0.367-2.214,2.238-4.1,4.217-4.997c2.407-1.091,5.017-1.309,7.561-1.906
		c2.557-0.6,5.266-1.653,6.776-3.912c0.287-0.43,0.564-0.887,0.79-1.353c-0.861,2.111-5.239,9.343-11.299,9.812
		c-1.815,0-3.704,0.879-5.27,1.718c-0.259,0.139-1.061,0.499-0.919,0.933c0.071,0.219,0.415,0.563,0.566,0.737
		c0.526,0.604,1.239,1.128,1.877,1.61c0.14,0.106,0.27,0.243,0.401,0.355c-1.698,0.434-3.631,0.55-5.373,0.55
		c-1.367,0-3.376-1.261-3.64-2.697c0.829-0.016,1.658-0.025,2.487-0.04c-0.385-0.016-0.621-0.357-0.928-0.541
		c-0.814-0.484-1.904-0.426-2.814-0.54c-2.348-0.292-4.734-0.354-7.1-0.335c-0.696,0.005-1.393,0.021-2.088,0.045
		c-2.332,0.082-4.438-0.32-6.569-1.284c-0.593-0.269-1.175-0.559-1.75-0.865c0.209,0.112,0.624,0.092,0.852,0.125
		c0.746,0.107,1.495,0.202,2.245,0.278c1.744,0.177,3.507,0.3,5.261,0.195c1.724-0.103,3.402-0.526,5.089-0.868
		c0.957-0.194,1.922-0.362,2.897-0.43c1.823-0.128,4.244-0.339,5.637,1.123C414.604,118.464,414.984,119.273,415.102,120.122z"/>
	<path fill="#005081" d="M453.722,119.443c0.31-1.866,1.908,4.982,3.575,4.227c2.028-0.919,4.204-9.54,6.349-10.042
		c2.154-0.506,4.436-1.393,5.709-3.296c0.241-0.362,0.475-0.747,0.665-1.139c-0.726,1.778-4.414,7.872-9.52,8.267
		c-1.529,0-3.121,0.741-4.44,1.447c-0.217,0.117-0.893,0.419-0.773,0.786c0.06,0.184,0.35,0.474,0.478,0.621
		c0.443,0.509,1.044,0.95,1.582,1.357c0.117,0.089,0.226,0.204,0.337,0.299c-1.431,0.366-3.059,0.463-4.527,0.463
		c-1.151,0-2.844-1.062-3.065-2.272c0.698-0.013,1.396-0.021,2.095-0.033c-0.324-0.014-0.522-0.301-0.781-0.455
		c-0.687-0.408-1.604-0.359-2.371-0.455c-1.979-0.246-3.99-0.299-5.981-0.283c-0.587,0.004-1.173,0.018-1.759,0.038
		c-1.965,0.069-3.739-0.27-5.535-1.082c-0.5-0.226-0.99-0.471-1.475-0.729c0.176,0.094,0.525,0.078,0.717,0.105
		c0.629,0.09,1.26,0.17,1.893,0.235c1.469,0.149,2.954,0.253,4.432,0.165c1.452-0.087,2.867-0.444,4.287-0.731
		c0.807-0.163,1.62-0.305,2.441-0.362c1.537-0.108,3.576-0.286,4.749,0.946C453.303,118.046,453.622,118.729,453.722,119.443z"/>
</g>
</svg>
