<svg version="1.1" id="Layer_1" xmlns="http://www.w3.org/2000/svg" xmlns:xlink="http://www.w3.org/1999/xlink" viewBox="0 0 768 430" enable-background="new 0 0 768 430" xml:space="preserve">
<g transform="matrix(1.0561 0 0 1.0561 -498.09 -487.83)">
	<g transform="matrix(.23871 0 0 .23871 505.09 589.63)">
		<path fill="#FF9999" d="M2185.574,649.984c0,112.507-362.124,203.702-808.849,203.702c-446.723,0-808.849-91.194-808.849-203.702
			c0-112.492,362.126-203.694,808.849-203.694C1823.45,446.29,2185.574,537.492,2185.574,649.984z"/>
		<path fill="#FF9A9A" d="M567.95,646.501c0-112.492,362.126-203.694,808.857-203.694c446.717,0,808.841,91.202,808.841,203.694
			c0,112.507-362.124,203.706-808.849,203.706C930.075,850.207,567.95,758.997,567.95,646.501z"/>
		<path fill="#FF9A9B" d="M568.031,642.999c0-112.511,362.128-203.702,808.853-203.702c446.721,0,808.849,91.198,808.849,203.702
			c0,112.496-362.128,203.698-808.849,203.698C930.159,846.697,568.031,755.495,568.031,642.999z"/>
		<path fill="#FF9B9C" d="M568.114,639.517c0-112.511,362.128-203.702,808.855-203.702c446.721,0,808.849,91.198,808.849,203.702
			c0,112.496-362.128,203.694-808.849,203.694C930.242,843.211,568.114,752.013,568.114,639.517z"/>
		<path fill="#FF9C9D" d="M568.198,636c0-112.496,362.124-203.698,808.849-203.698c446.717,0,808.845,91.202,808.845,203.698
			c0,112.511-362.128,203.702-808.845,203.702C930.321,839.701,568.198,748.499,568.198,636z"/>
		<path fill="#FF9C9E" d="M568.281,632.513c0-112.496,362.128-203.694,808.851-203.694c446.721,0,808.849,91.198,808.849,203.694
			c0,112.515-362.128,203.706-808.849,203.706C930.408,836.219,568.281,745.017,568.281,632.513L568.281,632.513z"/>
		<path fill="#FF9D9F" d="M568.36,629.015c0-112.507,362.128-203.706,808.857-203.706c446.721,0,808.849,91.194,808.849,203.706
			c0,112.488-362.128,203.69-808.849,203.69C930.488,832.705,568.36,741.503,568.36,629.015z"/>
		<path fill="#FF9EA0" d="M568.44,625.525c0-112.5,362.126-203.702,808.855-203.702s808.857,91.202,808.857,203.702
			c0,112.496-362.128,203.698-808.857,203.698S568.44,738.021,568.44,625.525z"/>
		<path fill="#FF9FA1" d="M568.523,622.043c0-112.5,362.128-203.69,808.849-203.69c446.725,0,808.853,91.19,808.853,203.69
			c0,112.496-362.128,203.698-808.853,203.698C930.651,825.741,568.523,734.539,568.523,622.043z"/>
		<path fill="#FF9FA2" d="M568.604,618.537c0-112.507,362.128-203.706,808.849-203.706c446.729,0,808.853,91.198,808.853,203.706
			c0,112.5-362.124,203.69-808.853,203.69C930.732,822.227,568.604,731.029,568.604,618.537z"/>
		<path fill="#FFA0A3" d="M568.684,615.055c0-112.507,362.128-203.706,808.851-203.706c446.729,0,808.857,91.198,808.857,203.706
			c0,112.5-362.128,203.69-808.857,203.69C930.811,818.745,568.684,727.543,568.684,615.055z"/>
		<path fill="#FFA1A4" d="M568.771,611.541c0-112.503,362.124-203.694,808.849-203.694s808.845,91.19,808.845,203.694
			c0,112.496-362.12,203.69-808.845,203.69S568.771,724.037,568.771,611.541z"/>
		<path fill="#FFA1A5" d="M568.85,608.059c0-112.507,362.126-203.694,808.851-203.694s808.849,91.198,808.849,203.694
			s-362.124,203.69-808.849,203.69S568.85,720.555,568.85,608.059z"/>
		<path fill="#FFA2A6" d="M568.934,604.576c0-112.503,362.128-203.698,808.849-203.698c446.729,0,808.856,91.202,808.856,203.698
			c0,112.488-362.128,203.69-808.856,203.69C931.061,808.266,568.934,717.064,568.934,604.576z"/>
		<path fill="#FFA3A7" d="M569.011,601.063c0-112.503,362.13-203.702,808.853-203.702c446.721,0,808.849,91.198,808.849,203.702
			s-362.128,203.69-808.849,203.69c-446.723,0-808.851-91.187-808.851-203.69H569.011z"/>
		<path fill="#FFA3A8" d="M569.094,597.581c0-112.5,362.128-203.706,808.855-203.706c446.721,0,808.849,91.202,808.849,203.706
			c0,112.5-362.128,203.702-808.849,203.702C931.222,801.282,569.094,710.076,569.094,597.581z"/>
		<path fill="#FFA4A9" d="M569.174,594.067c0-112.503,362.128-203.69,808.853-203.69c446.729,0,808.857,91.198,808.857,203.69
			c0,112.503-362.128,203.698-808.857,203.698C931.301,797.765,569.174,706.563,569.174,594.067z"/>
		<path fill="#FFA5AA" d="M569.259,590.585c0-112.503,362.126-203.694,808.853-203.694c446.729,0,808.853,91.198,808.853,203.694
			c0,112.507-362.124,203.69-808.853,203.69C931.385,794.275,569.259,703.08,569.259,590.585z"/>
		<path fill="#FFA6AB" d="M569.34,587.102c0-112.503,362.126-203.694,808.853-203.694c446.721,0,808.845,91.198,808.845,203.694
			c0,112.5-362.124,203.694-808.845,203.694C931.466,790.796,569.34,699.598,569.34,587.102z"/>
		<path fill="#FFA6AC" d="M569.424,583.589c0-112.503,362.128-203.702,808.851-203.702c446.729,0,808.856,91.198,808.856,203.702
			c0,112.507-362.128,203.709-808.856,203.709C931.551,787.298,569.424,696.096,569.424,583.589L569.424,583.589z"/>
		<path fill="#FFA7AD" d="M569.503,580.106c0-112.503,362.128-203.702,808.849-203.702c446.725,0,808.861,91.198,808.861,203.702
			c0,112.507-362.135,203.702-808.861,203.702C931.631,783.808,569.503,692.614,569.503,580.106z"/>
		<path fill="#FFA8AE" d="M569.584,576.601c0-112.5,362.124-203.698,808.853-203.698c446.725,0,808.849,91.198,808.849,203.698
			s-362.124,203.69-808.849,203.69C931.708,780.291,569.584,689.089,569.584,576.601z"/>
		<path fill="#FFA8AF" d="M569.664,573.114c0-112.496,362.132-203.694,808.851-203.694c446.729,0,808.857,91.198,808.857,203.694
			c0,112.503-362.128,203.694-808.857,203.694C931.795,776.808,569.664,685.606,569.664,573.114z"/>
		<path fill="#FFA9B0" d="M569.749,569.628c0-112.492,362.126-203.694,808.851-203.694c446.729,0,808.857,91.202,808.857,203.694
			c0,112.507-362.128,203.698-808.857,203.698C931.875,773.326,569.749,682.124,569.749,569.628z"/>
		<path fill="#FFAAB1" d="M569.83,566.13c0-112.515,362.124-203.706,808.855-203.706c446.717,0,808.845,91.19,808.845,203.706
			c0,112.492-362.128,203.694-808.845,203.694C931.954,769.824,569.83,678.622,569.83,566.13z"/>
		<path fill="#FFAAB2" d="M569.914,562.644c0-112.511,362.128-203.702,808.857-203.702c446.721,0,808.845,91.198,808.845,203.702
			c0,112.496-362.124,203.698-808.845,203.698C932.041,766.341,569.914,675.139,569.914,562.644z"/>
		<path fill="#FFABB3" d="M569.993,559.126c0-112.496,362.128-203.698,808.851-203.698c446.721,0,808.849,91.202,808.849,203.698
			c0,112.5-362.128,203.69-808.849,203.69C932.121,762.816,569.993,671.626,569.993,559.126L569.993,559.126z"/>
		<path fill="#FFACB4" d="M570.078,555.64c0-112.492,362.126-203.694,808.851-203.694c446.721,0,808.849,91.202,808.849,203.694
			c0,112.503-362.128,203.694-808.849,203.694C932.204,759.334,570.078,668.144,570.078,555.64z"/>
		<path fill="#FFADB5" d="M570.16,552.142c0-112.515,362.124-203.706,808.847-203.706c446.729,0,808.857,91.198,808.857,203.706
			c0,112.492-362.128,203.69-808.857,203.69C932.283,755.832,570.16,664.634,570.16,552.142z"/>
		<path fill="#FFADB6" d="M570.239,548.656c0-112.511,362.126-203.702,808.853-203.702c446.729,0,808.853,91.198,808.853,203.702
			c0,112.496-362.124,203.694-808.853,203.694C932.365,752.35,570.239,661.152,570.239,548.656z"/>
		<path fill="#FFAEB7" d="M570.322,545.173c0-112.511,362.128-203.706,808.847-203.706c446.725,0,808.849,91.202,808.849,203.706
			c0,112.492-362.124,203.694-808.849,203.694C932.45,748.867,570.322,657.665,570.322,545.173z"/>
		<path fill="#FFAFB8" d="M570.404,541.652c0-112.492,362.124-203.694,808.851-203.694c446.721,0,808.849,91.202,808.849,203.694
			c0,112.515-362.128,203.702-808.849,203.702C932.527,745.354,570.404,654.156,570.404,541.652L570.404,541.652z"/>
		<path fill="#FFAFB8" d="M570.483,538.17c0-112.496,362.128-203.694,808.857-203.694c446.725,0,808.849,91.198,808.849,203.694
			c0,112.507-362.124,203.702-808.849,203.702C932.611,741.871,570.483,650.681,570.483,538.17z"/>
		<path fill="#FFB0B9" d="M570.562,534.668c0-112.503,362.132-203.69,808.855-203.69c446.721,0,808.849,91.198,808.849,203.69
			s-362.128,203.694-808.849,203.694C932.694,738.362,570.562,647.16,570.562,534.668L570.562,534.668z"/>
		<path fill="#FFB1BA" d="M570.646,531.185c0-112.503,362.128-203.694,808.849-203.694c446.729,0,808.856,91.198,808.856,203.694
			s-362.128,203.69-808.856,203.69C932.773,734.876,570.646,643.681,570.646,531.185z"/>
		<path fill="#FFB1BB" d="M570.733,527.672c0-112.5,362.124-203.706,808.847-203.706c446.729,0,808.856,91.206,808.856,203.706
			c0,112.492-362.128,203.706-808.856,203.706C932.857,731.378,570.733,640.176,570.733,527.672z"/>
		<path fill="#FFB2BC" d="M570.807,524.19c0-112.503,362.128-203.698,808.855-203.698c446.721,0,808.849,91.194,808.849,203.698
			s-362.128,203.702-808.849,203.702C932.934,727.891,570.807,636.693,570.807,524.19z"/>
		<path fill="#FFB3BD" d="M570.892,520.707c0-112.503,362.126-203.7,808.851-203.7s808.853,91.196,808.853,203.7
			s-362.128,203.702-808.853,203.702S570.892,633.203,570.892,520.707z"/>
		<path fill="#FFB4BE" d="M570.979,517.198c0-112.503,362.124-203.702,808.849-203.702s808.849,91.198,808.849,203.702
			c0,112.492-362.124,203.694-808.849,203.694S570.979,629.689,570.979,517.198z"/>
		<path fill="#FFB4BF" d="M571.056,513.715c0-112.507,362.128-203.7,808.849-203.7c446.725,0,808.853,91.192,808.853,203.7
			c0,112.492-362.128,203.694-808.853,203.694C933.184,717.409,571.056,626.207,571.056,513.715z"/>
		<path fill="#FFB5C0" d="M571.136,510.202c0-112.503,362.128-203.698,808.855-203.698c446.725,0,808.849,91.194,808.849,203.698
			c0,112.5-362.124,203.702-808.849,203.702C933.263,713.903,571.136,622.701,571.136,510.202z"/>
		<path fill="#FFB6C1" d="M571.217,506.719c0-112.503,362.13-203.7,808.855-203.7s808.853,91.196,808.853,203.7
			s-362.128,203.706-808.853,203.706S571.217,619.223,571.217,506.719z"/>
		<path fill="#FFB6C2" d="M571.302,503.237c0-112.507,362.126-203.7,808.847-203.7c446.725,0,808.849,91.192,808.849,203.7
			c0,112.503-362.124,203.706-808.849,203.706C933.428,706.942,571.302,615.74,571.302,503.237L571.302,503.237z"/>
		<path fill="#FFB7C3" d="M571.382,499.727c0-112.496,362.126-203.702,808.853-203.702c446.721,0,808.849,91.206,808.849,203.702
			c0,112.492-362.128,203.69-808.849,203.69C933.507,703.417,571.382,612.219,571.382,499.727z"/>
		<path fill="#FFB8C4" d="M571.463,496.241c0-112.492,362.126-203.7,808.857-203.7c446.721,0,808.849,91.208,808.849,203.7
			c0,112.503-362.128,203.694-808.849,203.694C933.589,699.935,571.463,608.733,571.463,496.241z"/>
		<path fill="#FFB8C5" d="M571.546,492.731c0-112.503,362.128-203.702,808.851-203.702c446.721,0,808.849,91.198,808.849,203.702
			s-362.128,203.702-808.849,203.702C933.674,696.433,571.546,605.235,571.546,492.731L571.546,492.731z"/>
		<path fill="#FFB9C6" d="M571.626,489.249c0-112.507,362.128-203.702,808.857-203.702c446.721,0,808.849,91.194,808.849,203.702
			c0,112.5-362.128,203.702-808.849,203.702C933.753,692.951,571.626,601.749,571.626,489.249z"/>
		<path fill="#FFBAC7" d="M571.711,485.736c0-112.492,362.126-203.698,808.849-203.698c446.729,0,808.857,91.206,808.857,203.698
			c0,112.503-362.128,203.694-808.857,203.694C933.837,689.429,571.711,598.239,571.711,485.736L571.711,485.736z"/>
		<path fill="#FFBBC8" d="M571.792,482.253c0-112.496,362.126-203.698,808.853-203.698c446.729,0,808.853,91.202,808.853,203.698
			c0,112.503-362.124,203.702-808.853,203.702C933.918,685.955,571.792,594.757,571.792,482.253z"/>
		<path fill="#FFBBC9" d="M571.876,478.771c0-112.496,362.128-203.694,808.847-203.694c446.725,0,808.853,91.198,808.853,203.694
			c0,112.503-362.128,203.702-808.853,203.702C934.003,682.472,571.876,591.274,571.876,478.771z"/>
		<path fill="#FFBCCA" d="M571.955,475.265c0-112.511,362.128-203.7,808.849-203.7c446.729,0,808.853,91.189,808.853,203.7
			c0,112.496-362.124,203.698-808.853,203.698C934.083,678.963,571.955,587.761,571.955,475.265z"/>
		<path fill="#FFBDCB" d="M572.036,471.786c0-112.515,362.128-203.706,808.857-203.706c446.721,0,808.849,91.19,808.849,203.706
			c0,112.492-362.128,203.69-808.849,203.69C934.164,675.476,572.036,584.278,572.036,471.786z"/>
		<path fill="#FFBDCC" d="M572.116,468.261c0-112.488,362.132-203.692,808.855-203.692c446.725,0,808.849,91.204,808.849,203.692
			c0,112.503-362.124,203.706-808.849,203.706C934.247,671.967,572.116,580.765,572.116,468.261z"/>
		<path fill="#FFBECD" d="M572.201,464.783c0-112.496,362.126-203.696,808.851-203.696s808.853,91.2,808.853,203.696
			c0,112.5-362.128,203.702-808.853,203.702S572.201,577.282,572.201,464.783z"/>
		<path fill="#FFBFCE" d="M572.282,461.277c0-112.503,362.124-203.702,808.851-203.702c446.729,0,808.857,91.198,808.857,203.702
			c0,112.496-362.128,203.694-808.857,203.694C934.406,664.971,572.282,573.773,572.282,461.277L572.282,461.277z"/>
		<path fill="#FFBFCF" d="M572.362,457.795c0-112.5,362.126-203.704,808.853-203.704c446.721,0,808.849,91.204,808.849,203.704
			c0,112.492-362.128,203.694-808.849,203.694C934.488,661.489,572.362,570.286,572.362,457.795z"/>
		<path fill="#FFC0D0" d="M572.445,454.312c0-112.503,362.128-203.704,808.855-203.704c446.721,0,808.849,91.2,808.849,203.704
			c0,112.492-362.128,203.694-808.849,203.694C934.573,658.006,572.445,566.804,572.445,454.312L572.445,454.312z"/>
		<path fill="#FFC1D1" d="M572.526,450.791c0-112.492,362.126-203.692,808.855-203.692c446.713,0,808.853,91.2,808.853,203.692
			c0,112.503-362.139,203.702-808.853,203.702C934.652,654.493,572.526,563.294,572.526,450.791z"/>
		<path fill="#FFC2D2" d="M572.612,447.309c0-112.492,362.126-203.694,808.851-203.694c446.721,0,808.853,91.202,808.853,203.694
			c0,112.503-362.124,203.706-808.853,203.706C934.737,651.014,572.612,559.812,572.612,447.309z"/>
		<path fill="#FFC2D3" d="M572.691,443.807c0-112.503,362.126-203.704,808.853-203.704c446.725,0,808.853,91.2,808.853,203.704
			c0,112.496-362.128,203.69-808.853,203.69C934.817,647.497,572.691,556.302,572.691,443.807L572.691,443.807z"/>
		<path fill="#FFC3D4" d="M572.768,440.324c0-112.503,362.128-203.704,808.857-203.704s808.853,91.2,808.853,203.704
			c0,112.492-362.124,203.694-808.853,203.694C934.902,644.018,572.768,552.816,572.768,440.324z"/>
		<path fill="#FFC4D5" d="M572.856,436.842c0-112.503,362.124-203.704,808.847-203.704c446.725,0,808.849,91.2,808.849,203.704
			c0,112.492-362.124,203.694-808.849,203.694C934.979,640.536,572.856,549.334,572.856,436.842L572.856,436.842z"/>
		<path fill="#FFC4D6" d="M572.935,433.328c0-112.5,362.128-203.704,808.853-203.704c446.721,0,808.849,91.204,808.849,203.704
			c0,112.503-362.128,203.702-808.849,203.702C935.063,637.03,572.935,545.832,572.935,433.328z"/>
		<path fill="#FFC5D7" d="M2190.71,429.846c0,112.503-362.124,203.702-808.845,203.702c-446.725,0-808.851-91.21-808.851-203.702
			c0-112.498,362.126-203.704,808.851-203.704C1828.586,226.142,2190.71,317.348,2190.71,429.846z"/>
	</g>
	<g transform="matrix(.23871 0 0 .23871 505.09 589.63)">
		<path fill="#990000" d="M2198.187,366.934c0,124.431-362.631,225.301-809.945,225.301c-447.316,0-809.947-100.871-809.947-225.301
			c0-124.434,362.631-225.311,809.947-225.311C1835.555,141.623,2198.187,242.495,2198.187,366.934z"/>
		<path fill="#9A0000" d="M1388.214,591.545c-447.316,0-809.945-100.879-809.945-225.305c0-124.438,362.629-225.315,809.945-225.315
			c447.306,0,809.945,100.877,809.945,225.315C2198.159,490.667,1835.521,591.545,1388.214,591.545z"/>
		<path fill="#9B0000" d="M1388.214,590.813c-447.316,0-809.945-100.879-809.945-225.309s362.629-225.309,809.945-225.309
			c447.306,0,809.945,100.875,809.945,225.309C2198.159,489.935,1835.521,590.813,1388.214,590.813z"/>
		<path fill="#9C0000" d="M1388.187,590.081c-447.318,0-809.947-100.882-809.947-225.313c0-124.427,362.629-225.297,809.947-225.297
			c447.31,0,809.945,100.869,809.945,225.297C2198.132,489.207,1835.497,590.081,1388.187,590.081z"/>
		<path fill="#9D0000" d="M1388.187,589.38c-447.318,0-809.947-100.879-809.947-225.305c0-124.432,362.629-225.309,809.947-225.309
			c447.31,0,809.945,100.871,809.945,225.309C2198.132,488.502,1835.497,589.38,1388.187,589.38z"/>
		<path fill="#9E0000" d="M1388.187,588.671c-447.318,0-809.947-100.863-809.947-225.297c0-124.431,362.629-225.315,809.947-225.315
			c447.31,0,809.945,100.873,809.945,225.315C2198.132,487.808,1835.497,588.671,1388.187,588.671z"/>
		<path fill="#9F0000" d="M1388.156,587.951c-447.316,0-809.945-100.878-809.945-225.309c0-124.434,362.629-225.307,809.945-225.307
			c447.314,0,809.945,100.873,809.945,225.307C2198.101,487.072,1835.47,587.951,1388.156,587.951z"/>
		<path fill="#A00000" d="M1388.156,587.215c-447.316,0-809.945-100.879-809.945-225.305c0-124.431,362.629-225.301,809.945-225.301
			c447.314,0,809.945,100.871,809.945,225.301C2198.101,486.336,1835.47,587.215,1388.156,587.215z"/>
		<path fill="#A10000" d="M1388.129,586.517c-447.318,0-809.945-100.875-809.945-225.305c0-124.436,362.627-225.309,809.945-225.309
			c447.31,0,809.945,100.867,809.945,225.309C2198.074,485.643,1835.439,586.517,1388.129,586.517z"/>
		<path fill="#A20000" d="M1388.129,585.785c-447.318,0-809.945-100.879-809.945-225.309s362.627-225.305,809.945-225.305
			c447.31,0,809.945,100.871,809.945,225.305C2198.074,484.918,1835.439,585.785,1388.129,585.785z"/>
		<path fill="#A30000" d="M1388.098,585.084c-447.312,0-809.943-100.871-809.943-225.305c0-124.432,362.631-225.313,809.943-225.313
			c447.314,0,809.945,100.88,809.945,225.313C2198.043,484.213,1835.412,585.084,1388.098,585.084L1388.098,585.084z"/>
		<path fill="#A40000" d="M1388.098,584.352c-447.312,0-809.943-100.875-809.943-225.309c0-124.427,362.631-225.305,809.943-225.305
			c447.314,0,809.945,100.873,809.945,225.305C2198.043,483.477,1835.412,584.352,1388.098,584.352L1388.098,584.352z"/>
		<path fill="#A50000" d="M1388.071,583.647c-447.314,0-809.945-100.867-809.945-225.297c0-124.438,362.631-225.319,809.945-225.319
			s809.945,100.875,809.945,225.319C2198.016,482.78,1835.385,583.647,1388.071,583.647z"/>
		<path fill="#A60000" d="M1388.071,582.919c-447.314,0-809.945-100.871-809.945-225.301c0-124.434,362.631-225.315,809.945-225.315
			s809.945,100.873,809.945,225.315C2198.016,482.048,1835.385,582.919,1388.071,582.919z"/>
		<path fill="#A70000" d="M1388.048,582.214c-447.32,0-809.951-100.875-809.951-225.305c0-124.429,362.631-225.301,809.951-225.301
			c447.318,0,809.945,100.873,809.945,225.301C2197.993,481.347,1835.366,582.214,1388.048,582.214z"/>
		<path fill="#A80000" d="M1388.048,581.493c-447.32,0-809.951-100.879-809.951-225.309c0-124.436,362.631-225.307,809.951-225.307
			c447.318,0,809.945,100.869,809.945,225.307C2197.993,480.615,1835.366,581.493,1388.048,581.493z"/>
		<path fill="#A90000" d="M1388.013,580.788c-447.312,0-809.941-100.879-809.941-225.309c0-124.432,362.629-225.309,809.941-225.309
			c447.314,0,809.945,100.873,809.945,225.309C2197.958,479.917,1835.327,580.788,1388.013,580.788z"/>
		<path fill="#AA0000" d="M1388.013,580.048c-447.312,0-809.941-100.875-809.941-225.305s362.629-225.301,809.941-225.301
			c447.314,0,809.945,100.871,809.945,225.301S1835.327,580.048,1388.013,580.048z"/>
		<path fill="#AB0000" d="M1388.013,579.343c-447.312,0-809.941-100.867-809.941-225.297c0-124.434,362.629-225.305,809.941-225.305
			c447.314,0,809.945,100.871,809.945,225.305C2197.958,478.477,1835.327,579.343,1388.013,579.343z"/>
		<path fill="#AC0000" d="M1387.99,578.623c-447.318,0-809.947-100.871-809.947-225.309c0-124.431,362.629-225.307,809.947-225.307
			s809.945,100.877,809.945,225.307C2197.935,477.752,1835.307,578.623,1387.99,578.623z"/>
		<path fill="#AD0000" d="M1387.963,577.918c-447.32,0-809.949-100.871-809.949-225.309c0-124.427,362.629-225.303,809.949-225.303
			c447.318,0,809.945,100.873,809.945,225.303C2197.908,477.055,1835.28,577.918,1387.963,577.918z"/>
		<path fill="#AE0000" d="M1387.963,577.19c-447.32,0-809.949-100.879-809.949-225.309c0-124.432,362.629-225.305,809.949-225.305
			c447.318,0,809.945,100.873,809.945,225.305C2197.908,476.311,1835.28,577.19,1387.963,577.19z"/>
		<path fill="#AF0000" d="M1387.963,576.485c-447.32,0-809.949-100.879-809.949-225.309c0-124.425,362.629-225.301,809.949-225.301
			c447.318,0,809.945,100.875,809.945,225.301C2197.908,475.614,1835.28,576.485,1387.963,576.485z"/>
		<path fill="#B00000" d="M1387.932,575.76c-447.312,0-809.947-100.878-809.947-225.309c0-124.429,362.635-225.309,809.947-225.309
			c447.322,0,809.945,100.869,809.945,225.309C2197.877,474.889,1835.253,575.76,1387.932,575.76L1387.932,575.76z"/>
		<path fill="#B10000" d="M1387.932,575.051c-447.312,0-809.947-100.875-809.947-225.309c0-124.427,362.635-225.305,809.947-225.305
			c447.322,0,809.945,100.875,809.945,225.305C2197.877,474.184,1835.253,575.051,1387.932,575.051L1387.932,575.051z"/>
		<path fill="#B20000" d="M1387.904,574.319c-447.314,0-809.947-100.871-809.947-225.297c0-124.434,362.633-225.309,809.947-225.309
			c447.318,0,809.945,100.875,809.945,225.309C2197.85,473.448,1835.222,574.319,1387.904,574.319z"/>
		<path fill="#B30000" d="M1387.904,573.622c-447.314,0-809.947-100.879-809.947-225.305c0-124.434,362.633-225.309,809.947-225.309
			c447.318,0,809.945,100.875,809.945,225.309C2197.85,472.743,1835.222,573.622,1387.904,573.622z"/>
		<path fill="#B40000" d="M1387.877,572.886c-447.314,0-809.949-100.875-809.949-225.305c0-124.427,362.635-225.303,809.949-225.303
			c447.318,0,809.945,100.875,809.945,225.303C2197.823,472.031,1835.195,572.886,1387.877,572.886z"/>
		<path fill="#B50000" d="M1387.877,572.189c-447.314,0-809.949-100.875-809.949-225.305c0-124.434,362.635-225.305,809.949-225.305
			c447.318,0,809.945,100.871,809.945,225.305C2197.823,471.314,1835.195,572.189,1387.877,572.189z"/>
		<path fill="#B60000" d="M1387.846,571.457c-447.31,0-809.947-100.879-809.947-225.309c0-124.425,362.637-225.301,809.947-225.301
			c447.322,0,809.945,100.875,809.945,225.301C2197.792,470.59,1835.168,571.457,1387.846,571.457z"/>
		<path fill="#B70000" d="M1387.846,570.759c-447.31,0-809.947-100.875-809.947-225.309c0-124.432,362.637-225.309,809.947-225.309
			c447.322,0,809.945,100.871,809.945,225.309C2197.792,469.885,1835.168,570.759,1387.846,570.759z"/>
		<path fill="#B80000" d="M1387.846,570.023c-447.31,0-809.947-100.875-809.947-225.301c0-124.434,362.637-225.311,809.947-225.311
			c447.322,0,809.945,100.871,809.945,225.311C2197.792,469.16,1835.168,570.023,1387.846,570.023z"/>
		<path fill="#B90000" d="M1387.819,569.33c-447.312,0-809.945-100.879-809.945-225.309c0-124.438,362.633-225.313,809.945-225.313
			c447.318,0,809.945,100.875,809.945,225.313C2197.764,468.451,1835.137,569.33,1387.819,569.33z"/>
		<path fill="#BA0000" d="M1387.819,568.594c-447.312,0-809.945-100.875-809.945-225.305c0-124.429,362.633-225.309,809.945-225.309
			c447.318,0,809.945,100.873,809.945,225.309C2197.764,467.719,1835.137,568.594,1387.819,568.594z"/>
		<path fill="#BB0000" d="M1387.788,567.901c-447.308,0-809.943-100.879-809.943-225.309c0-124.434,362.635-225.313,809.943-225.313
			c447.322,0,809.949,100.875,809.949,225.313C2197.737,467.022,1835.11,567.901,1387.788,567.901z"/>
		<path fill="#BC0000" d="M1387.788,567.164c-447.308,0-809.943-100.875-809.943-225.309c0-124.429,362.635-225.307,809.943-225.307
			c447.322,0,809.949,100.875,809.949,225.307C2197.737,466.29,1835.11,567.164,1387.788,567.164z"/>
		<path fill="#BD0000" d="M1387.761,566.459c-447.31,0-809.945-100.878-809.945-225.309c0-124.429,362.635-225.307,809.945-225.307
			c447.318,0,809.945,100.873,809.945,225.307C2197.706,465.589,1835.079,566.459,1387.761,566.459z"/>
		<path fill="#BE0000" d="M1387.761,565.735c-447.31,0-809.945-100.879-809.945-225.309c0-124.436,362.635-225.313,809.945-225.313
			c447.318,0,809.945,100.877,809.945,225.313C2197.706,464.857,1835.079,565.735,1387.761,565.735z"/>
		<path fill="#BF0000" d="M1387.734,565.03c-447.312,0-809.947-100.871-809.947-225.309c0-124.432,362.635-225.309,809.947-225.309
			c447.318,0,809.945,100.871,809.945,225.309S1835.052,565.03,1387.734,565.03z"/>
		<path fill="#C00000" d="M1387.734,564.302c-447.312,0-809.947-100.879-809.947-225.305c0-124.442,362.635-225.313,809.947-225.313
			c447.318,0,809.945,100.871,809.945,225.313C2197.679,463.423,1835.052,564.302,1387.734,564.302z"/>
		<path fill="#C10000" d="M1387.734,563.57c-447.312,0-809.947-100.879-809.947-225.309c0-124.434,362.635-225.307,809.947-225.307
			c447.318,0,809.945,100.873,809.945,225.307C2197.679,462.691,1835.052,563.57,1387.734,563.57z"/>
		<path fill="#C20000" d="M1387.707,562.872c-447.312,0-809.947-100.879-809.947-225.309c0-124.434,362.635-225.311,809.947-225.311
			c447.322,0,809.941,100.865,809.941,225.311C2197.648,461.994,1835.029,562.872,1387.707,562.872z"/>
		<path fill="#C30000" d="M1387.707,562.136c-447.312,0-809.947-100.879-809.947-225.305c0-124.432,362.635-225.313,809.947-225.313
			c447.322,0,809.941,100.877,809.941,225.313C2197.648,461.258,1835.029,562.136,1387.707,562.136z"/>
		<path fill="#C40000" d="M1387.684,561.431c-447.318,0-809.953-100.879-809.953-225.309c0-124.429,362.635-225.305,809.953-225.305
			c447.31,0,809.938,100.871,809.938,225.305C2197.621,460.565,1834.994,561.431,1387.684,561.431z"/>
		<path fill="#C50000" d="M1387.684,560.707c-447.318,0-809.953-100.879-809.953-225.309c0-124.434,362.635-225.311,809.953-225.311
			c447.31,0,809.938,100.877,809.938,225.311C2197.621,459.829,1834.994,560.707,1387.684,560.707z"/>
		<path fill="#C60000" d="M1387.656,560.002c-447.318,0-809.955-100.879-809.955-225.309s362.637-225.309,809.955-225.309
			c447.314,0,809.941,100.875,809.941,225.309C2197.598,459.131,1834.97,560.002,1387.656,560.002z"/>
		<path fill="#C70000" d="M1387.656,559.274c-447.318,0-809.955-100.875-809.955-225.305c0-124.432,362.637-225.315,809.955-225.315
			c447.314,0,809.941,100.875,809.941,225.315C2197.598,458.399,1834.97,559.274,1387.656,559.274z"/>
		<path fill="#C80000" d="M1387.625,558.569c-447.316,0-809.953-100.875-809.953-225.317c0-124.425,362.637-225.297,809.953-225.297
			c447.318,0,809.938,100.867,809.938,225.297C2197.563,457.694,1834.943,558.569,1387.625,558.569L1387.625,558.569z"/>
		<path fill="#C90000" d="M1387.625,557.837c-447.316,0-809.953-100.871-809.953-225.301c0-124.434,362.637-225.317,809.953-225.317
			c447.318,0,809.938,100.88,809.938,225.317C2197.563,456.966,1834.943,557.837,1387.625,557.837L1387.625,557.837z"/>
		<path fill="#CA0000" d="M1387.598,557.128c-447.316,0-809.951-100.867-809.951-225.297c0-124.434,362.635-225.311,809.951-225.311
			c447.314,0,809.949,100.877,809.949,225.311C2197.547,456.261,1834.912,557.128,1387.598,557.128z"/>
		<path fill="#CB0000" d="M1387.598,556.403c-447.316,0-809.951-100.875-809.951-225.309c0-124.429,362.635-225.305,809.951-225.305
			c447.314,0,809.949,100.873,809.949,225.305C2197.547,455.536,1834.912,556.403,1387.598,556.403z"/>
		<path fill="#CC0000" d="M1387.567,555.698c-447.314,0-809.949-100.879-809.949-225.309s362.635-225.307,809.949-225.307
			c447.318,0,809.945,100.877,809.945,225.307S1834.885,555.698,1387.567,555.698L1387.567,555.698z"/>
		<path fill="#CC0000" d="M1387.567,554.974c-447.314,0-809.949-100.878-809.949-225.305c0-124.434,362.635-225.311,809.949-225.311
			c447.318,0,809.945,100.873,809.945,225.311S1834.885,554.974,1387.567,554.974L1387.567,554.974z"/>
		<path fill="#CD0000" d="M1387.567,554.269c-447.314,0-809.949-100.879-809.949-225.309c0-124.425,362.635-225.301,809.949-225.301
			c447.318,0,809.945,100.871,809.945,225.301C2197.513,453.398,1834.885,554.269,1387.567,554.269L1387.567,554.269z"/>
		<path fill="#CE0000" d="M1387.54,553.533c-447.316,0-809.951-100.879-809.951-225.305c0-124.429,362.635-225.305,809.951-225.305
			c447.318,0,809.949,100.871,809.949,225.305C2197.489,452.666,1834.858,553.533,1387.54,553.533z"/>
		<path fill="#CF0000" d="M1387.513,552.836c-447.318,0-809.951-100.875-809.951-225.305s362.633-225.311,809.951-225.311
			c447.314,0,809.953,100.877,809.953,225.311C2197.466,451.961,1834.827,552.836,1387.513,552.836z"/>
		<path fill="#D00000" d="M1387.513,552.104c-447.318,0-809.951-100.867-809.951-225.309c0-124.425,362.633-225.301,809.951-225.301
			c447.314,0,809.953,100.873,809.953,225.301C2197.466,451.244,1834.827,552.104,1387.513,552.104z"/>
		<path fill="#D10000" d="M1387.513,551.406c-447.318,0-809.951-100.879-809.951-225.309c0-124.429,362.633-225.307,809.951-225.307
			c447.314,0,809.953,100.873,809.953,225.307C2197.466,450.528,1834.827,551.406,1387.513,551.406z"/>
		<path fill="#D20000" d="M1387.482,550.67c-447.314,0-809.949-100.875-809.949-225.309c0-124.427,362.635-225.307,809.949-225.307
			c447.318,0,809.949,100.88,809.949,225.307C2197.431,449.796,1834.8,550.67,1387.482,550.67z"/>
		<path fill="#D30000" d="M1387.482,549.977c-447.314,0-809.949-100.882-809.949-225.309c0-124.434,362.635-225.313,809.949-225.313
			c447.318,0,809.949,100.873,809.949,225.313C2197.431,449.095,1834.8,549.977,1387.482,549.977z"/>
		<path fill="#D40000" d="M1387.455,549.241c-447.314,0-809.945-100.879-809.945-225.309c0-124.429,362.631-225.307,809.945-225.307
			c447.318,0,809.953,100.88,809.953,225.307C2197.408,448.37,1834.773,549.241,1387.455,549.241z"/>
		<path fill="#D50000" d="M1387.455,548.544c-447.314,0-809.945-100.879-809.945-225.305c0-124.438,362.631-225.315,809.945-225.315
			c447.318,0,809.953,100.871,809.953,225.315C2197.408,447.665,1834.773,548.544,1387.455,548.544z"/>
		<path fill="#D60000" d="M1387.428,547.812c-447.316,0-809.947-100.879-809.947-225.309S940.112,97.193,1387.428,97.193
			c447.314,0,809.953,100.877,809.953,225.309C2197.381,446.933,1834.742,547.812,1387.428,547.812z"/>
		<path fill="#D70000" d="M1387.428,547.11c-447.316,0-809.947-100.875-809.947-225.309c0-124.436,362.631-225.313,809.947-225.313
			c447.314,0,809.953,100.875,809.953,225.313C2197.381,446.236,1834.773,547.11,1387.428,547.11z"/>
		<path fill="#D80000" d="M1387.397,546.378c-447.312,0-809.945-100.879-809.945-225.305c0-124.432,362.633-225.309,809.945-225.309
			c447.318,0,809.953,100.871,809.953,225.309C2197.35,445.5,1834.715,546.378,1387.397,546.378z"/>
		<path fill="#D90000" d="M1387.397,545.681c-447.312,0-809.945-100.886-809.945-225.313c0-124.429,362.633-225.307,809.945-225.307
			c447.318,0,809.953,100.873,809.953,225.307C2197.35,444.806,1834.715,545.681,1387.397,545.681z"/>
		<path fill="#DA0000" d="M1387.397,544.949c-447.312,0-809.945-100.879-809.945-225.313c0-124.431,362.633-225.307,809.945-225.307
			c447.318,0,809.953,100.871,809.953,225.307C2197.35,444.07,1834.742,544.949,1387.397,544.949z"/>
		<path fill="#DB0000" d="M1387.37,544.24c-447.314,0-809.943-100.867-809.943-225.301S940.056,93.626,1387.37,93.626
			s809.953,100.879,809.953,225.313S1834.684,544.24,1387.37,544.24z"/>
		<path fill="#DC0000" d="M1387.37,543.516c-447.314,0-809.943-100.875-809.943-225.311c0-124.431,362.629-225.309,809.943-225.309
			s809.953,100.877,809.953,225.309C2197.323,442.641,1834.684,543.516,1387.37,543.516z"/>
		<path fill="#DD0000" d="M1387.347,542.811c-447.32,0-809.949-100.875-809.949-225.307c0-124.427,362.629-225.309,809.949-225.309
			c447.31,0,809.949,100.877,809.949,225.309C2197.296,441.944,1834.657,542.811,1387.347,542.811z"/>
		<path fill="#DE0000" d="M1387.347,542.086c-447.32,0-809.949-100.878-809.949-225.319c0-124.429,362.629-225.307,809.949-225.307
			c447.31,0,809.949,100.875,809.949,225.307C2197.296,441.208,1834.684,542.086,1387.347,542.086z"/>
		<path fill="#DF0000" d="M1387.312,541.381c-447.314,0-809.943-100.879-809.943-225.309S939.998,90.765,1387.312,90.765
			c447.322,0,809.953,100.871,809.953,225.307C2197.265,440.514,1834.633,541.381,1387.312,541.381z"/>
		<path fill="#E00000" d="M1387.312,540.645c-447.314,0-809.943-100.875-809.943-225.301c0-124.432,362.629-225.313,809.943-225.313
			c447.322,0,809.953,100.878,809.953,225.313S1834.633,540.645,1387.312,540.645z"/>
		<path fill="#E10000" d="M1387.289,539.921c-447.318,0-809.947-100.879-809.947-225.313c0-124.431,362.629-225.307,809.947-225.307
			c447.31,0,809.949,100.873,809.949,225.307S1834.633,539.921,1387.289,539.921z"/>
		<path fill="#E20000" d="M1387.289,539.216c-447.318,0-809.947-100.879-809.947-225.307c0-124.432,362.629-225.309,809.947-225.309
			c447.31,0,809.949,100.871,809.949,225.309C2197.238,438.349,1834.599,539.216,1387.289,539.216z"/>
		<path fill="#E30000" d="M1387.261,538.511c-447.318,0-809.949-100.879-809.949-225.303c0-124.431,362.631-225.309,809.949-225.309
			c447.314,0,809.945,100.873,809.945,225.309C2197.207,437.64,1834.575,538.511,1387.261,538.511L1387.261,538.511z"/>
		<path fill="#E40000" d="M1387.261,537.783c-447.318,0-809.949-100.875-809.949-225.307c0-124.429,362.631-225.303,809.949-225.303
			c447.314,0,809.945,100.871,809.945,225.303C2197.207,436.916,1834.575,537.783,1387.261,537.783L1387.261,537.783z"/>
		<path fill="#E50000" d="M1387.261,537.058c-447.318,0-809.949-100.875-809.949-225.315c0-124.432,362.631-225.309,809.949-225.309
			c447.314,0,809.945,100.873,809.945,225.309C2197.207,436.184,1834.575,537.058,1387.261,537.058L1387.261,537.058z"/>
		<path fill="#E60000" d="M1387.23,536.345c-447.316,0-809.947-100.879-809.947-225.303c0-124.432,362.631-225.307,809.947-225.307
			c447.318,0,809.949,100.871,809.949,225.307C2197.179,435.475,1834.548,536.345,1387.23,536.345z"/>
		<path fill="#E70000" d="M1387.23,535.617c-447.316,0-809.947-100.867-809.947-225.301S939.915,85.005,1387.23,85.005
			c447.318,0,809.949,100.871,809.949,225.311C2197.179,434.75,1834.575,535.617,1387.23,535.617z"/>
		<path fill="#E80000" d="M1387.203,534.912c-447.318,0-809.945-100.875-809.945-225.303c0-124.427,362.627-225.307,809.945-225.307
			c447.314,0,809.949,100.879,809.949,225.307C2197.152,434.045,1834.548,534.912,1387.203,534.912z"/>
		<path fill="#E90000" d="M1387.203,534.188c-447.318,0-809.945-100.875-809.945-225.309c0-124.431,362.627-225.309,809.945-225.309
			c447.314,0,809.949,100.878,809.949,225.309C2197.152,433.313,1834.517,534.188,1387.203,534.188z"/>
		<path fill="#EA0000" d="M1387.172,533.483c-447.314,0-809.943-100.878-809.943-225.309c0-124.429,362.629-225.307,809.943-225.307
			c447.318,0,809.949,100.88,809.949,225.307C2197.121,432.604,1834.49,533.483,1387.172,533.483z"/>
		<path fill="#EB0000" d="M1387.172,532.758c-447.314,0-809.943-100.879-809.943-225.309S939.858,82.142,1387.172,82.142
			c447.318,0,809.949,100.873,809.949,225.307C2197.121,431.888,1834.517,532.758,1387.172,532.758z"/>
		<path fill="#EC0000" d="M1387.145,532.053c-447.316,0-809.945-100.879-809.945-225.309c0-124.432,362.629-225.309,809.945-225.309
			c447.318,0,809.953,100.875,809.953,225.309C2197.098,431.175,1834.49,532.053,1387.145,532.053z"/>
		<path fill="#ED0000" d="M1387.145,531.317c-447.316,0-809.945-100.879-809.945-225.303c0-124.432,362.629-225.307,809.945-225.307
			c447.318,0,809.953,100.873,809.953,225.307C2197.098,430.447,1834.463,531.317,1387.145,531.317z"/>
		<path fill="#EE0000" d="M1387.118,530.62c-447.318,0-809.947-100.879-809.947-225.307c0-124.431,362.629-225.307,809.947-225.307
			c447.314,0,809.953,100.871,809.953,225.307C2197.071,429.753,1834.432,530.62,1387.118,530.62z"/>
		<path fill="#EF0000" d="M1387.118,529.888c-447.318,0-809.947-100.882-809.947-225.305c0-124.425,362.629-225.307,809.947-225.307
			c447.314,0,809.953,100.871,809.953,225.307C2197.071,429.017,1834.432,529.888,1387.118,529.888z"/>
		<path fill="#F00000" d="M1387.118,529.187c-447.318,0-809.947-100.875-809.947-225.307S939.8,78.571,1387.118,78.571
			c447.314,0,809.953,100.877,809.953,225.309S1834.432,529.187,1387.118,529.187z"/>
		<path fill="#F10000" d="M1387.087,528.455c-447.314,0-809.943-100.879-809.943-225.307c0-124.431,362.629-225.307,809.943-225.307
			c447.318,0,809.949,100.879,809.949,225.307S1834.432,528.455,1387.087,528.455z"/>
		<path fill="#F20000" d="M1387.06,527.758c-447.314,0-809.945-100.875-809.945-225.307c0-124.429,362.631-225.307,809.945-225.307
			s809.953,100.875,809.953,225.307S1834.405,527.758,1387.06,527.758L1387.06,527.758z"/>
		<path fill="#F30000" d="M1387.06,527.021c-447.314,0-809.945-100.875-809.945-225.301c0-124.429,362.631-225.309,809.945-225.309
			s809.953,100.875,809.953,225.309C2197.013,426.147,1834.374,527.021,1387.06,527.021L1387.06,527.021z"/>
		<path fill="#F40000" d="M1387.06,526.328c-447.314,0-809.945-100.879-809.945-225.313c0-124.429,362.631-225.309,809.945-225.309
			s809.953,100.875,809.953,225.309S1834.405,526.328,1387.06,526.328L1387.06,526.328z"/>
		<path fill="#F50000" d="M1387.033,525.592c-447.316,0-809.947-100.875-809.947-225.307c0-124.429,362.631-225.311,809.947-225.311
			c447.314,0,809.949,100.877,809.949,225.311C2196.982,424.717,1834.374,525.592,1387.033,525.592z"/>
		<path fill="#F60000" d="M1387.033,524.895c-447.316,0-809.947-100.875-809.947-225.311c0-124.425,362.631-225.307,809.947-225.307
			c447.314,0,809.949,100.875,809.949,225.307C2196.982,424.02,1834.347,524.895,1387.033,524.895z"/>
		<path fill="#F70000" d="M1387.002,524.163c-447.31,0-809.945-100.879-809.945-225.313c0-124.429,362.635-225.307,809.945-225.307
			c447.318,0,809.953,100.873,809.953,225.307S1834.32,524.163,1387.002,524.163z"/>
		<path fill="#F80000" d="M1387.002,523.458c-447.31,0-809.945-100.879-809.945-225.309c0-124.429,362.635-225.307,809.945-225.307
			c447.318,0,809.953,100.873,809.953,225.307C2196.955,422.587,1834.32,523.458,1387.002,523.458z"/>
		<path fill="#F90000" d="M1386.975,522.729c-447.312,0-809.943-100.875-809.943-225.309c0-124.432,362.631-225.309,809.943-225.309
			c447.314,0,809.953,100.871,809.953,225.309C2196.928,421.855,1834.32,522.729,1386.975,522.729z"/>
		<path fill="#FA0000" d="M1386.975,522.024c-447.312,0-809.943-100.879-809.943-225.305S939.663,71.41,1386.975,71.41
			c447.314,0,809.953,100.877,809.953,225.309C2196.928,421.158,1834.289,522.024,1386.975,522.024z"/>
		<path fill="#FB0000" d="M1386.944,521.3c-447.306,0-809.941-100.875-809.941-225.311S939.638,70.676,1386.944,70.676
			c447.318,0,809.953,100.877,809.953,225.313S1834.289,521.3,1386.944,521.3z"/>
		<path fill="#FC0000" d="M1386.944,520.595c-447.306,0-809.941-100.878-809.941-225.309c0-124.434,362.635-225.311,809.941-225.311
			c447.318,0,809.953,100.877,809.953,225.311C2196.897,419.717,1834.289,520.595,1386.944,520.595z"/>
		<path fill="#FD0000" d="M1386.944,519.871c-447.306,0-809.941-100.879-809.941-225.317c0-124.431,362.635-225.307,809.941-225.307
			c447.318,0,809.953,100.877,809.953,225.307C2196.897,418.992,1834.289,519.871,1386.944,519.871z"/>
		<path fill="#FE0000" d="M1386.924,519.166c-447.316,0-809.951-100.89-809.951-225.309c0-124.431,362.635-225.309,809.951-225.309
			c447.314,0,809.945,100.877,809.945,225.309C2196.87,418.295,1834.262,519.166,1386.924,519.166z"/>
		<path fill="#FF0000" d="M2196.843,293.117c0,124.427-362.604,225.305-809.945,225.305c-447.345,0-809.951-100.879-809.951-225.305
			c0-124.431,362.633-225.307,809.951-225.307C1834.203,67.81,2196.843,168.677,2196.843,293.117z"/>
	</g>
	<path fill="#FF9999" d="M1028.055,659.792c0,26.856-86.443,48.627-193.078,48.627c-106.631,0-193.08-21.771-193.08-48.627
		c0-26.856,86.443-48.624,193.08-48.624C941.614,611.168,1028.055,632.938,1028.055,659.792z"/>
	<path fill="#FF9A9A" d="M641.915,658.949c0-26.853,86.444-48.624,193.082-48.624s193.079,21.769,193.079,48.624
		c0,26.855-86.448,48.626-193.079,48.626C728.364,707.575,641.915,685.806,641.915,658.949z"/>
	<path fill="#FF9A9B" d="M641.942,658.136c0-26.854,86.444-48.625,193.082-48.625c106.638,0,193.078,21.769,193.078,48.625
		c0,26.856-86.446,48.627-193.078,48.627S641.942,684.992,641.942,658.136z"/>
	<path fill="#FF9B9C" d="M641.971,657.292c0-26.854,86.443-48.624,193.081-48.624c106.639,0,193.078,21.769,193.078,48.624
		c0,26.855-86.446,48.627-193.078,48.627S641.971,684.148,641.971,657.292z"/>
	<path fill="#FF9C9D" d="M641.971,656.451c0-26.855,86.443-48.625,193.078-48.625c106.635,0,193.079,21.769,193.079,48.625
		c0,26.855-86.447,48.626-193.079,48.626C728.416,705.077,641.971,683.306,641.971,656.451z"/>
	<path fill="#FF9C9E" d="M641.998,655.608c0-26.854,86.444-48.624,193.079-48.624c106.636,0,193.079,21.769,193.079,48.624
		c0,26.853-86.445,48.628-193.079,48.628C728.446,704.236,641.998,682.464,641.998,655.608z"/>
	<path fill="#FF9D9F" d="M642.027,654.793c0-26.855,86.443-48.625,193.082-48.625s193.079,21.769,193.079,48.625
		c0,26.855-86.448,48.628-193.079,48.628C728.476,703.421,642.027,681.65,642.027,654.793z"/>
	<path fill="#FF9EA0" d="M642.027,653.951c0-26.854,86.443-48.625,193.082-48.625s193.079,21.769,193.079,48.625
		c0,26.854-86.448,48.628-193.079,48.628C728.476,702.578,642.027,680.808,642.027,653.951z"/>
	<path fill="#FF9FA1" d="M642.054,653.108c0-26.854,86.444-48.625,193.082-48.625c106.638,0,193.078,21.769,193.078,48.625
		c0,26.855-86.443,48.627-193.078,48.627C728.504,701.735,642.054,679.964,642.054,653.108z"/>
	<path fill="#FF9FA2" d="M642.084,652.293c0-26.855,86.443-48.625,193.081-48.625s193.079,21.769,193.079,48.625
		c0,26.855-86.448,48.623-193.079,48.623C728.532,700.917,642.084,679.15,642.084,652.293z"/>
	<path fill="#FFA0A3" d="M642.111,651.451c0-26.854,86.444-48.625,193.082-48.625s193.078,21.769,193.078,48.625
		c0,26.856-86.446,48.624-193.078,48.624C728.56,700.073,642.111,678.304,642.111,651.451z"/>
	<path fill="#FFA1A4" d="M642.111,650.608c0-26.854,86.444-48.625,193.082-48.625s193.078,21.769,193.078,48.625
		c0,26.856-86.446,48.624-193.078,48.624C728.56,699.232,642.111,677.464,642.111,650.608z"/>
	<path fill="#FFA1A5" d="M642.14,649.793c0-26.854,86.443-48.624,193.081-48.624c106.639,0,193.079,21.769,193.079,48.624
		c0,26.857-86.447,48.625-193.079,48.625S642.14,676.646,642.14,649.793z"/>
	<path fill="#FFA2A6" d="M642.167,648.951c0-26.854,86.445-48.625,193.084-48.625c106.637,0,193.078,21.771,193.078,48.625
		c0,26.854-86.444,48.625-193.078,48.625C728.616,697.576,642.167,675.805,642.167,648.951z"/>
	<path fill="#FFA3A7" d="M642.167,648.108c0-26.855,86.445-48.624,193.079-48.624c106.637,0,193.083,21.769,193.083,48.624
		c0,26.857-86.445,48.626-193.083,48.626C728.611,696.733,642.167,674.963,642.167,648.108z"/>
	<path fill="#FFA3A8" d="M642.196,647.265c0-26.855,86.443-48.625,193.078-48.625s193.081,21.77,193.081,48.625
		c0,26.854-86.447,48.625-193.081,48.625C728.641,695.89,642.196,674.119,642.196,647.265z"/>
	<path fill="#FFA4A9" d="M642.224,646.451c0-26.854,86.443-48.624,193.081-48.624s193.078,21.769,193.078,48.624
		c0,26.855-86.444,48.627-193.078,48.627C728.673,695.076,642.224,673.306,642.224,646.451z"/>
	<path fill="#FFA5AA" d="M642.224,645.608c0-26.854,86.443-48.624,193.081-48.624s193.078,21.77,193.078,48.624
		c0,26.852-86.444,48.624-193.078,48.624C728.673,694.232,642.224,672.46,642.224,645.608z"/>
	<path fill="#FFA6AB" d="M642.252,644.766c0-26.853,86.444-48.624,193.082-48.624c106.637,0,193.078,21.77,193.078,48.624
		c0,26.855-86.449,48.626-193.078,48.626C728.701,693.392,642.252,671.621,642.252,644.766z"/>
	<path fill="#FFA6AC" d="M642.279,643.951c0-26.854,86.444-48.624,193.083-48.624c106.637,0,193.078,21.769,193.078,48.624
		c0,26.855-86.444,48.625-193.078,48.625S642.279,670.805,642.279,643.951z"/>
	<path fill="#FFA7AD" d="M642.279,643.109c0-26.854,86.444-48.625,193.083-48.625c106.637,0,193.078,21.77,193.078,48.625
		c0,26.853-86.444,48.624-193.078,48.624S642.279,669.962,642.279,643.109z"/>
	<path fill="#FFA8AE" d="M642.308,642.267c0-26.854,86.443-48.625,193.082-48.625c106.638,0,193.078,21.77,193.078,48.625
		c0,26.853-86.446,48.624-193.078,48.624C728.757,690.889,642.308,669.12,642.308,642.267z"/>
	<path fill="#FFA8AF" d="M642.335,641.452c0-26.855,86.444-48.625,193.083-48.625c106.637,0,193.078,21.77,193.078,48.625
		s-86.444,48.622-193.078,48.622C728.785,690.075,642.335,668.307,642.335,641.452z"/>
	<path fill="#FFA9B0" d="M642.364,640.609c0-26.854,86.443-48.624,193.082-48.624c106.639,0,193.079,21.77,193.079,48.624
		c0,26.854-86.449,48.625-193.079,48.625C728.813,689.234,642.364,667.463,642.364,640.609z"/>
	<path fill="#FFAAB1" d="M642.364,639.767c0-26.854,86.443-48.625,193.078-48.625c106.635,0,193.084,21.771,193.084,48.625
		c0,26.855-86.449,48.622-193.084,48.622C728.807,688.389,642.364,666.62,642.364,639.767z"/>
	<path fill="#FFAAB2" d="M642.391,638.953c0-26.855,86.444-48.625,193.083-48.625c106.637,0,193.083,21.77,193.083,48.625
		c0,26.854-86.449,48.622-193.083,48.622C728.839,687.575,642.391,665.806,642.391,638.953z"/>
	<path fill="#FFABB3" d="M642.419,638.109c0-26.854,86.444-48.624,193.083-48.624s193.079,21.77,193.079,48.624
		c0,26.855-86.448,48.624-193.079,48.624C728.869,686.733,642.419,664.964,642.419,638.109z"/>
	<path fill="#FFACB4" d="M642.419,637.267c0-26.854,86.444-48.625,193.083-48.625s193.079,21.771,193.079,48.625
		c0,26.855-86.448,48.624-193.079,48.624C728.869,685.891,642.419,664.122,642.419,637.267z"/>
	<path fill="#FFADB5" d="M642.448,636.424c0-26.855,86.444-48.625,193.083-48.625c106.637,0,193.078,21.77,193.078,48.625
		c0,26.854-86.444,48.624-193.078,48.624C728.897,685.048,642.448,663.278,642.448,636.424z"/>
	<path fill="#FFADB6" d="M642.477,635.609c0-26.854,86.443-48.624,193.081-48.624c106.639,0,193.079,21.77,193.079,48.624
		c0,26.855-86.447,48.625-193.079,48.625C728.925,684.234,642.477,662.464,642.477,635.609z"/>
	<path fill="#FFAEB7" d="M642.477,634.767c0-26.855,86.443-48.625,193.081-48.625c106.639,0,193.079,21.77,193.079,48.625
		c0,26.854-86.447,48.625-193.079,48.625C728.925,683.392,642.477,661.621,642.477,634.767z"/>
	<path fill="#FFAFB8" d="M642.504,633.924c0-26.855,86.444-48.625,193.083-48.625c106.638,0,193.082,21.77,193.082,48.625
		c0,26.854-86.447,48.625-193.082,48.625C728.95,682.549,642.504,660.778,642.504,633.924z"/>
	<path fill="#FFAFB8" d="M642.533,633.109c0-26.854,86.443-48.624,193.082-48.624c106.639,0,193.079,21.769,193.079,48.624
		c0,26.856-86.447,48.624-193.079,48.624C728.981,681.733,642.533,659.965,642.533,633.109z"/>
	<path fill="#FFB0B9" d="M642.533,632.267c0-26.855,86.443-48.624,193.078-48.624c106.636,0,193.083,21.769,193.083,48.624
		s-86.447,48.627-193.083,48.627C728.976,680.894,642.533,659.122,642.533,632.267z"/>
	<path fill="#FFB1BA" d="M642.56,631.425c0-26.855,86.444-48.624,193.082-48.624c106.637,0,193.083,21.769,193.083,48.624
		c0,26.855-86.448,48.623-193.083,48.623S642.56,658.28,642.56,631.425z"/>
	<path fill="#FFB1BB" d="M642.588,630.609c0-26.855,86.445-48.624,193.083-48.624c106.639,0,193.08,21.769,193.08,48.624
		c0,26.856-86.444,48.626-193.08,48.626C729.034,679.235,642.588,657.465,642.588,630.609z"/>
	<path fill="#FFB2BC" d="M642.616,629.767c0-26.855,86.443-48.624,193.082-48.624c106.638,0,193.083,21.769,193.083,48.624
		c0,26.855-86.448,48.624-193.083,48.624C729.063,678.391,642.616,656.622,642.616,629.767z"/>
	<path fill="#FFB3BD" d="M642.616,628.925c0-26.856,86.443-48.625,193.082-48.625c106.638,0,193.083,21.769,193.083,48.625
		c0,26.855-86.448,48.624-193.083,48.624C729.063,677.549,642.616,655.779,642.616,628.925z"/>
	<path fill="#FFB4BE" d="M642.645,628.083c0-26.856,86.443-48.625,193.081-48.625c106.639,0,193.078,21.769,193.078,48.625
		c0,26.854-86.446,48.624-193.078,48.624S642.645,654.936,642.645,628.083z"/>
	<path fill="#FFB4BF" d="M642.672,627.267c0-26.855,86.444-48.624,193.083-48.624c106.638,0,193.078,21.769,193.078,48.624
		c0,26.855-86.446,48.623-193.078,48.623C729.122,675.89,642.672,654.122,642.672,627.267z"/>
	<path fill="#FFB5C0" d="M642.672,626.425c0-26.854,86.444-48.625,193.083-48.625c106.638,0,193.082,21.769,193.082,48.625
		c0,26.855-86.447,48.625-193.082,48.625C729.119,675.05,642.672,653.28,642.672,626.425z"/>
	<path fill="#FFB6C1" d="M642.701,625.583c0-26.855,86.443-48.625,193.082-48.625s193.081,21.768,193.081,48.625
		c0,26.854-86.446,48.622-193.081,48.622C729.147,674.205,642.701,652.437,642.701,625.583z"/>
	<path fill="#FFB6C2" d="M642.729,624.768c0-26.854,86.444-48.624,193.082-48.624c106.638,0,193.083,21.769,193.083,48.624
		c0,26.856-86.448,48.625-193.083,48.625C729.175,673.393,642.729,651.624,642.729,624.768z"/>
	<path fill="#FFB7C3" d="M642.729,623.925c0-26.854,86.444-48.625,193.079-48.625c106.637,0,193.08,21.769,193.08,48.625
		c0,26.854-86.444,48.624-193.08,48.624C729.173,672.549,642.729,650.78,642.729,623.925z"/>
	<path fill="#FFB8C4" d="M642.756,623.083c0-26.855,86.444-48.625,193.083-48.625c106.639,0,193.081,21.769,193.081,48.625
		c0,26.855-86.444,48.625-193.081,48.625C729.203,671.707,642.756,649.938,642.756,623.083z"/>
	<path fill="#FFB8C5" d="M642.785,622.268c0-26.854,86.444-48.625,193.082-48.625s193.083,21.77,193.083,48.625
		c0,26.856-86.448,48.625-193.083,48.625C729.231,670.893,642.785,649.124,642.785,622.268z"/>
	<path fill="#FFB9C6" d="M642.785,621.426c0-26.855,86.444-48.625,193.082-48.625s193.083,21.77,193.083,48.625
		c0,26.855-86.448,48.625-193.083,48.625C729.231,670.051,642.785,648.281,642.785,621.426z"/>
	<path fill="#FFBAC7" d="M642.813,620.583c0-26.855,86.444-48.625,193.083-48.625s193.081,21.769,193.081,48.625
		c0,26.855-86.445,48.624-193.081,48.624C729.26,669.207,642.813,647.438,642.813,620.583z"/>
	<path fill="#FFBBC8" d="M642.841,619.74c0-26.854,86.444-48.624,193.084-48.624c106.637,0,193.081,21.77,193.081,48.624
		c0,26.855-86.447,48.625-193.081,48.625C729.287,668.365,642.841,646.596,642.841,619.74z"/>
	<path fill="#FFBBC9" d="M642.87,618.926c0-26.855,86.443-48.624,193.081-48.624c106.639,0,193.079,21.769,193.079,48.624
		c0,26.854-86.447,48.624-193.079,48.624C729.318,667.548,642.87,645.781,642.87,618.926z"/>
	<path fill="#FFBCCA" d="M642.87,618.082c0-26.854,86.443-48.623,193.081-48.623c106.639,0,193.082,21.77,193.082,48.623
		c0,26.855-86.446,48.625-193.082,48.625C729.316,666.707,642.87,644.938,642.87,618.082z"/>
	<path fill="#FFBDCB" d="M642.897,617.24c0-26.854,86.444-48.624,193.082-48.624c106.639,0,193.083,21.771,193.083,48.624
		c0,26.855-86.446,48.625-193.083,48.625C729.344,665.865,642.897,644.096,642.897,617.24z"/>
	<path fill="#FFBDCC" d="M642.926,616.426c0-26.855,86.443-48.624,193.082-48.624c106.638,0,193.079,21.769,193.079,48.624
		c0,26.854-86.443,48.624-193.079,48.624C729.371,665.05,642.926,643.281,642.926,616.426z"/>
	<path fill="#FFBECD" d="M642.926,615.584c0-26.855,86.443-48.624,193.082-48.624c106.638,0,193.079,21.77,193.079,48.624
		c0,26.854-86.443,48.624-193.079,48.624C729.371,664.208,642.926,642.44,642.926,615.584z"/>
	<path fill="#FFBFCE" d="M642.953,614.741c0-26.856,86.444-48.625,193.082-48.625c106.638,0,193.084,21.77,193.084,48.625
		c0,26.853-86.449,48.624-193.084,48.624C729.4,663.365,642.953,641.597,642.953,614.741z"/>
	<path fill="#FFBFCF" d="M642.982,613.926c0-26.855,86.444-48.624,193.081-48.624c106.64,0,193.082,21.77,193.082,48.624
		c0,26.854-86.445,48.625-193.082,48.625C729.428,662.551,642.982,640.782,642.982,613.926z"/>
	<path fill="#FFC0D0" d="M642.982,613.084c0-26.854,86.444-48.625,193.081-48.625c106.64,0,193.082,21.771,193.082,48.625
		c0,26.854-86.445,48.624-193.082,48.624C729.428,661.708,642.982,639.939,642.982,613.084z"/>
	<path fill="#FFC1D1" d="M643.009,612.242c0-26.855,86.445-48.625,193.083-48.625c106.638,0,193.081,21.77,193.081,48.625
		c0,26.854-86.446,48.624-193.081,48.624C729.456,660.865,643.009,639.096,643.009,612.242z"/>
	<path fill="#FFC2D2" d="M643.038,611.399c0-26.855,86.443-48.625,193.082-48.625c106.638,0,193.081,21.77,193.081,48.625
		c0,26.854-86.445,48.623-193.081,48.623S643.038,638.253,643.038,611.399z"/>
	<path fill="#FFC2D3" d="M643.066,610.584c0-26.855,86.444-48.625,193.082-48.625c106.637,0,193.083,21.77,193.083,48.625
		c0,26.854-86.447,48.624-193.083,48.624S643.066,637.438,643.066,610.584z"/>
	<path fill="#FFC3D4" d="M643.066,609.742c0-26.855,86.444-48.625,193.082-48.625c106.637,0,193.083,21.77,193.083,48.625
		c0,26.854-86.447,48.624-193.083,48.624S643.066,636.596,643.066,609.742z"/>
	<path fill="#FFC4D5" d="M643.094,608.898c0-26.854,86.443-48.624,193.083-48.624c106.639,0,193.079,21.77,193.079,48.624
		c0,26.855-86.443,48.624-193.079,48.624C729.54,657.522,643.094,635.755,643.094,608.898z"/>
	<path fill="#FFC4D6" d="M643.122,608.084c0-26.855,86.444-48.625,193.083-48.625c106.637,0,193.079,21.77,193.079,48.625
		c0,26.854-86.445,48.625-193.079,48.625C729.568,656.709,643.122,634.94,643.122,608.084z"/>
	<path fill="#FFC5D7" d="M1029.291,607.242c0,26.854-86.444,48.624-193.08,48.624c-106.637,0-193.084-21.77-193.084-48.624
		c0-26.856,86.444-48.625,193.084-48.625C942.849,558.617,1029.291,580.387,1029.291,607.242z"/>
	<path fill="none" stroke="#990000" stroke-width="1.6047" d="M784.427,706.951"/>
	<g transform="matrix(.23871 0 0 .23871 505.09 589.63)">
		
			<radialGradient id="SVGID_1_" cx="10524.5283" cy="4349.4082" r="122.9157" gradientTransform="matrix(0.056 0 0 0.0242 563.0704 -163.1626)" gradientUnits="userSpaceOnUse">
			<stop  offset="0.0056" style="stop-color:#FFFFFF"/>
			<stop  offset="0.5354" style="stop-color:#FFFDFD"/>
			<stop  offset="0.7263" style="stop-color:#FFF6F7"/>
			<stop  offset="0.8623" style="stop-color:#FFEBEC"/>
			<stop  offset="0.9715" style="stop-color:#FFDADC"/>
			<stop  offset="1" style="stop-color:#FFD4D7"/>
		</radialGradient>
		<path fill="url(#SVGID_1_)" d="M1261.344-57.901c0,25.822-48.559,46.751-108.454,46.751c-59.901,0-108.459-20.93-108.459-46.751
			c0-25.826,48.559-46.763,108.459-46.763C1212.785-104.664,1261.344-83.733,1261.344-57.901L1261.344-57.901z"/>
		
			<radialGradient id="SVGID_2_" cx="13599.6152" cy="2456.5435" r="122.9428" gradientTransform="matrix(0.0462 0 0 0.0191 525.8402 -151.1206)" gradientUnits="userSpaceOnUse">
			<stop  offset="0.0056" style="stop-color:#FFFFFF"/>
			<stop  offset="0.5354" style="stop-color:#FFFDFD"/>
			<stop  offset="0.7263" style="stop-color:#FFF6F7"/>
			<stop  offset="0.8623" style="stop-color:#FFEBEC"/>
			<stop  offset="0.9715" style="stop-color:#FFDADC"/>
			<stop  offset="1" style="stop-color:#FFD4D7"/>
		</radialGradient>
		<path fill="url(#SVGID_2_)" d="M1243.311-104.023c0,20.447-40.013,37.013-89.378,37.013c-49.36,0-89.37-16.566-89.37-37.013
			s40.007-37.015,89.37-37.015C1203.298-141.038,1243.311-124.471,1243.311-104.023L1243.311-104.023z"/>
		
			<radialGradient id="SVGID_3_" cx="20164.4297" cy="183.042" r="122.9486" gradientTransform="matrix(0.0343 0 0 0.0151 466.8045 -146.9235)" gradientUnits="userSpaceOnUse">
			<stop  offset="0.0056" style="stop-color:#FFFFFF"/>
			<stop  offset="0.5354" style="stop-color:#FFFDFD"/>
			<stop  offset="0.7263" style="stop-color:#FFF6F7"/>
			<stop  offset="0.8623" style="stop-color:#FFEBEC"/>
			<stop  offset="0.9715" style="stop-color:#FFDADC"/>
			<stop  offset="1" style="stop-color:#FFD4D7"/>
		</radialGradient>
		<path fill="url(#SVGID_3_)" d="M1223.931-144.296c0,16.14-29.669,29.225-66.279,29.225c-36.606,0-66.281-13.085-66.281-29.225
			c0-16.138,29.672-29.223,66.281-29.223C1194.259-173.519,1223.931-160.434,1223.931-144.296z"/>
		
			<radialGradient id="SVGID_4_" cx="-16814.6992" cy="3885.5696" r="63.5606" gradientTransform="matrix(-0.0735 -4.480464e-05 4.480464e-05 -0.0735 -96.2176 96.9515)" gradientUnits="userSpaceOnUse">
			<stop  offset="0.0056" style="stop-color:#FFFFFF"/>
			<stop  offset="0.5506" style="stop-color:#FF0000"/>
			<stop  offset="0.6135" style="stop-color:#FC0000"/>
			<stop  offset="0.6637" style="stop-color:#F20000"/>
			<stop  offset="0.7095" style="stop-color:#E10000"/>
			<stop  offset="0.7527" style="stop-color:#C90000"/>
			<stop  offset="0.7941" style="stop-color:#AB0000"/>
			<stop  offset="0.8335" style="stop-color:#860000"/>
			<stop  offset="0.8427" style="stop-color:#7C0000"/>
		</radialGradient>
		<path fill="url(#SVGID_4_)" d="M1104.283-175.661c0.775-51.532,70.067-71.353,93.094-24.1
			C1235.773-133.113,1104.852-101.674,1104.283-175.661"/>
	</g>
	<g transform="matrix(.23871 0 0 .23871 505.09 589.63)">
		
			<radialGradient id="SVGID_5_" cx="24294.0547" cy="6917.3994" r="122.8776" gradientTransform="matrix(0.056 0 0 0.0242 562.9691 -163.3781)" gradientUnits="userSpaceOnUse">
			<stop  offset="0.0056" style="stop-color:#FFFFFF"/>
			<stop  offset="0.5354" style="stop-color:#FFFDFD"/>
			<stop  offset="0.7263" style="stop-color:#FFF6F7"/>
			<stop  offset="0.8623" style="stop-color:#FFEBEC"/>
			<stop  offset="0.9715" style="stop-color:#FFDADC"/>
			<stop  offset="1" style="stop-color:#FFD4D7"/>
		</radialGradient>
		<path fill="url(#SVGID_5_)" d="M2033.117,4.281c-0.008,25.828-48.584,46.748-108.475,46.73
			c-59.899-0.019-108.444-20.966-108.444-46.792c0.012-25.82,48.576-46.744,108.475-46.724
			C1984.561-42.49,2033.129-21.541,2033.117,4.281z"/>
		
			<radialGradient id="SVGID_6_" cx="30306.8398" cy="5695.48" r="123.0333" gradientTransform="matrix(0.0462 0 0 0.0191 525.7292 -151.3567)" gradientUnits="userSpaceOnUse">
			<stop  offset="0.0056" style="stop-color:#FFFFFF"/>
			<stop  offset="0.5354" style="stop-color:#FFFDFD"/>
			<stop  offset="0.7263" style="stop-color:#FFF6F7"/>
			<stop  offset="0.8623" style="stop-color:#FFEBEC"/>
			<stop  offset="0.9715" style="stop-color:#FFDADC"/>
			<stop  offset="1" style="stop-color:#FFD4D7"/>
		</radialGradient>
		<path fill="url(#SVGID_6_)" d="M2015.093-41.843c-0.012,20.443-40.031,37.007-89.385,36.994
			c-49.366-0.016-89.374-16.601-89.374-37.044c0.012-20.445,40.035-37.005,89.393-36.99
			C1975.082-78.87,2015.093-62.286,2015.093-41.843z"/>
		
			<radialGradient id="SVGID_7_" cx="42695.25" cy="4288.1812" r="123.046" gradientTransform="matrix(0.0343 0 0 0.0151 466.6922 -147.1829)" gradientUnits="userSpaceOnUse">
			<stop  offset="0.0056" style="stop-color:#FFFFFF"/>
			<stop  offset="0.5354" style="stop-color:#FFFDFD"/>
			<stop  offset="0.7263" style="stop-color:#FFF6F7"/>
			<stop  offset="0.8623" style="stop-color:#FFEBEC"/>
			<stop  offset="0.9715" style="stop-color:#FFDADC"/>
			<stop  offset="1" style="stop-color:#FFD4D7"/>
		</radialGradient>
		<path fill="url(#SVGID_7_)" d="M1995.74-82.118c-0.011,16.14-29.676,29.221-66.286,29.206
			c-36.606-0.008-66.279-13.105-66.279-29.242c0.008-16.142,29.676-29.215,66.29-29.208
			C1966.076-111.349,1995.748-98.263,1995.74-82.118z"/>
		
			<radialGradient id="SVGID_8_" cx="-27325.4414" cy="3047.145" r="63.559" gradientTransform="matrix(-0.0735 -6.590975e-05 6.590975e-05 -0.0735 -96.414 96.5466)" gradientUnits="userSpaceOnUse">
			<stop  offset="0.0056" style="stop-color:#FFFFFF"/>
			<stop  offset="0.5506" style="stop-color:#FF0000"/>
			<stop  offset="0.6135" style="stop-color:#FC0000"/>
			<stop  offset="0.6637" style="stop-color:#F20000"/>
			<stop  offset="0.7095" style="stop-color:#E10000"/>
			<stop  offset="0.7527" style="stop-color:#C90000"/>
			<stop  offset="0.7941" style="stop-color:#AB0000"/>
			<stop  offset="0.8335" style="stop-color:#860000"/>
			<stop  offset="0.8427" style="stop-color:#7C0000"/>
		</radialGradient>
		<path fill="url(#SVGID_8_)" d="M1876.09-113.516c0.79-51.536,70.083-71.336,93.1-24.071
			C2007.559-70.929,1876.632-39.534,1876.09-113.516"/>
	</g>
	<g transform="matrix(.23871 0 0 .23871 505.09 589.63)">
		
			<radialGradient id="SVGID_9_" cx="4886.7969" cy="9923.877" r="122.8909" gradientTransform="matrix(0.056 0 0 0.0242 563.0705 -163.1627)" gradientUnits="userSpaceOnUse">
			<stop  offset="0.0056" style="stop-color:#FFFFFF"/>
			<stop  offset="0.5354" style="stop-color:#FFFDFD"/>
			<stop  offset="0.7263" style="stop-color:#FFF6F7"/>
			<stop  offset="0.8623" style="stop-color:#FFEBEC"/>
			<stop  offset="0.9715" style="stop-color:#FFDADC"/>
			<stop  offset="1" style="stop-color:#FFD4D7"/>
		</radialGradient>
		<path fill="url(#SVGID_9_)" d="M945.392,76.763c0,25.82-48.557,46.757-108.454,46.757c-59.901,0-108.459-20.937-108.459-46.757
			c0-25.824,48.559-46.761,108.459-46.761C896.836,30.002,945.392,50.939,945.392,76.763z"/>
		
			<radialGradient id="SVGID_10_" cx="6757.9424" cy="9499.6934" r="123.1205" gradientTransform="matrix(0.0462 0 0 0.0191 525.8403 -151.1207)" gradientUnits="userSpaceOnUse">
			<stop  offset="0.0056" style="stop-color:#FFFFFF"/>
			<stop  offset="0.5354" style="stop-color:#FFFDFD"/>
			<stop  offset="0.7263" style="stop-color:#FFF6F7"/>
			<stop  offset="0.8623" style="stop-color:#FFEBEC"/>
			<stop  offset="0.9715" style="stop-color:#FFDADC"/>
			<stop  offset="1" style="stop-color:#FFD4D7"/>
		</radialGradient>
		<path fill="url(#SVGID_10_)" d="M927.331,30.649c0,20.442-40.017,37.019-89.376,37.019c-49.357,0-89.376-16.574-89.376-37.019
			c0-20.443,40.019-37.015,89.376-37.015C887.314-6.366,927.331,10.202,927.331,30.649z"/>
		
			<radialGradient id="SVGID_11_" cx="10942.4844" cy="9100.1016" r="122.9202" gradientTransform="matrix(0.0343 0 0 0.0151 466.8046 -146.9236)" gradientUnits="userSpaceOnUse">
			<stop  offset="0.0056" style="stop-color:#FFFFFF"/>
			<stop  offset="0.5354" style="stop-color:#FFFDFD"/>
			<stop  offset="0.7263" style="stop-color:#FFF6F7"/>
			<stop  offset="0.8623" style="stop-color:#FFEBEC"/>
			<stop  offset="0.9715" style="stop-color:#FFDADC"/>
			<stop  offset="1" style="stop-color:#FFD4D7"/>
		</radialGradient>
		<path fill="url(#SVGID_11_)" d="M907.982-9.62c0,16.136-29.671,29.227-66.283,29.227c-36.608,0-66.279-13.091-66.279-29.227
			c0-16.138,29.671-29.223,66.279-29.223C878.312-38.843,907.982-25.761,907.982-9.62z"/>
		
			<radialGradient id="SVGID_12_" cx="-12514.1455" cy="2049.8064" r="63.5592" gradientTransform="matrix(-0.0735 -4.480464e-05 4.480464e-05 -0.0735 -96.2176 96.9514)" gradientUnits="userSpaceOnUse">
			<stop  offset="0.0056" style="stop-color:#FFFFFF"/>
			<stop  offset="0.5506" style="stop-color:#FF0000"/>
			<stop  offset="0.6135" style="stop-color:#FC0000"/>
			<stop  offset="0.6637" style="stop-color:#F20000"/>
			<stop  offset="0.7095" style="stop-color:#E10000"/>
			<stop  offset="0.7527" style="stop-color:#C90000"/>
			<stop  offset="0.7941" style="stop-color:#AB0000"/>
			<stop  offset="0.8335" style="stop-color:#860000"/>
			<stop  offset="0.8427" style="stop-color:#7C0000"/>
		</radialGradient>
		<path fill="url(#SVGID_12_)" d="M788.33-40.983c0.777-51.536,70.073-71.353,93.098-24.1
			C919.82,1.563,788.901,32.999,788.33-40.983"/>
	</g>
	<g transform="matrix(.23871 0 0 .23871 505.09 589.63)">
		
			<radialGradient id="SVGID_13_" cx="21233.7266" cy="11904.6289" r="123.0891" gradientTransform="matrix(0.056 0.0029 -0.0013 0.0241 548.1772 -200.2354)" gradientUnits="userSpaceOnUse">
			<stop  offset="0.0056" style="stop-color:#FFFFFF"/>
			<stop  offset="0.5354" style="stop-color:#FFFDFD"/>
			<stop  offset="0.7263" style="stop-color:#FFF6F7"/>
			<stop  offset="0.8623" style="stop-color:#FFEBEC"/>
			<stop  offset="0.9715" style="stop-color:#FFDADC"/>
			<stop  offset="1" style="stop-color:#FFD4D7"/>
		</radialGradient>
		<path fill="url(#SVGID_13_)" d="M1830.388,154.872c-1.352,25.787-50.943,44.154-110.753,41.015
			c-59.818-3.14-107.216-26.573-105.868-52.368c1.356-25.793,50.947-44.154,110.76-41.02
			C1784.35,105.638,1831.752,129.083,1830.388,154.872z"/>
		
			<radialGradient id="SVGID_14_" cx="26600.8281" cy="11983.3145" r="123.1718" gradientTransform="matrix(0.0461 0.0024 -0.001 0.0191 510.3831 -190.1708)" gradientUnits="userSpaceOnUse">
			<stop  offset="0.0056" style="stop-color:#FFFFFF"/>
			<stop  offset="0.5354" style="stop-color:#FFFDFD"/>
			<stop  offset="0.7263" style="stop-color:#FFF6F7"/>
			<stop  offset="0.8623" style="stop-color:#FFEBEC"/>
			<stop  offset="0.9715" style="stop-color:#FFDADC"/>
			<stop  offset="1" style="stop-color:#FFD4D7"/>
		</radialGradient>
		<path fill="url(#SVGID_14_)" d="M1814.766,107.883c-1.061,20.416-41.89,34.873-91.179,32.289
			c-49.3-2.59-88.394-21.232-87.321-41.64c1.069-20.414,41.89-34.877,91.19-32.299
			C1776.745,68.817,1815.843,87.464,1814.766,107.883z"/>
		
			<radialGradient id="SVGID_15_" cx="37700.4922" cy="12255.9609" r="123.2249" gradientTransform="matrix(0.0342 0.0018 -7.815151e-04 0.0151 451.1714 -189.0614)" gradientUnits="userSpaceOnUse">
			<stop  offset="0.0056" style="stop-color:#FFFFFF"/>
			<stop  offset="0.5354" style="stop-color:#FFFDFD"/>
			<stop  offset="0.7263" style="stop-color:#FFF6F7"/>
			<stop  offset="0.8623" style="stop-color:#FFEBEC"/>
			<stop  offset="0.9715" style="stop-color:#FFDADC"/>
			<stop  offset="1" style="stop-color:#FFD4D7"/>
		</radialGradient>
		<path fill="url(#SVGID_15_)" d="M1797.52,66.651c-0.837,16.116-31.148,27.629-67.712,25.717
			c-36.56-1.91-65.489-16.539-64.663-32.655c0.837-16.116,31.16-27.629,67.724-25.712
			C1769.432,35.915,1798.368,50.535,1797.52,66.651z"/>
		
			<radialGradient id="SVGID_16_" cx="-24993.6562" cy="1408.5989" r="63.5577" gradientTransform="matrix(-0.0734 -0.0039 0.0039 -0.0734 -123.8378 25.0319)" gradientUnits="userSpaceOnUse">
			<stop  offset="0.0056" style="stop-color:#FFFFFF"/>
			<stop  offset="0.5506" style="stop-color:#FF0000"/>
			<stop  offset="0.6135" style="stop-color:#FC0000"/>
			<stop  offset="0.6637" style="stop-color:#F20000"/>
			<stop  offset="0.7095" style="stop-color:#E10000"/>
			<stop  offset="0.7527" style="stop-color:#C90000"/>
			<stop  offset="0.7941" style="stop-color:#AB0000"/>
			<stop  offset="0.8335" style="stop-color:#860000"/>
			<stop  offset="0.8427" style="stop-color:#7C0000"/>
		</radialGradient>
		<path fill="url(#SVGID_16_)" d="M1679.702,29.063c3.463-51.423,73.705-67.586,94.227-19.19
			C1808.785,78.439,1676.386,102.973,1679.702,29.063"/>
	</g>
	<g transform="matrix(.23871 0 0 .23871 505.09 589.63)">
		
			<radialGradient id="SVGID_17_" cx="17780.0391" cy="3706.5708" r="122.8748" gradientTransform="matrix(0.056 0 0 0.0242 563.0706 -163.1628)" gradientUnits="userSpaceOnUse">
			<stop  offset="0.0056" style="stop-color:#FFFFFF"/>
			<stop  offset="0.5354" style="stop-color:#FFFDFD"/>
			<stop  offset="0.7263" style="stop-color:#FFF6F7"/>
			<stop  offset="0.8623" style="stop-color:#FFEBEC"/>
			<stop  offset="0.9715" style="stop-color:#FFDADC"/>
			<stop  offset="1" style="stop-color:#FFD4D7"/>
		</radialGradient>
		<path fill="url(#SVGID_17_)" d="M1667.965-73.445c0,25.824-48.561,46.761-108.459,46.761c-59.891,0-108.467-20.937-108.467-46.761
			c0-25.826,48.576-46.757,108.467-46.757C1619.404-120.202,1667.965-99.271,1667.965-73.445z"/>
		
			<radialGradient id="SVGID_18_" cx="22399.1211" cy="1644.8396" r="123.05" gradientTransform="matrix(0.0462 0 0 0.0191 525.8404 -151.1228)" gradientUnits="userSpaceOnUse">
			<stop  offset="0.0056" style="stop-color:#FFFFFF"/>
			<stop  offset="0.5354" style="stop-color:#FFFDFD"/>
			<stop  offset="0.7263" style="stop-color:#FFF6F7"/>
			<stop  offset="0.8623" style="stop-color:#FFEBEC"/>
			<stop  offset="0.9715" style="stop-color:#FFDADC"/>
			<stop  offset="1" style="stop-color:#FFD4D7"/>
		</radialGradient>
		<path fill="url(#SVGID_18_)" d="M1649.937-119.561c0,20.442-40.019,37.019-89.374,37.019c-49.37,0-89.385-16.572-89.385-37.019
			s40.015-37.021,89.385-37.021C1609.918-156.582,1649.937-140.008,1649.937-119.561z"/>
		
			<radialGradient id="SVGID_19_" cx="32039.7656" cy="-845.734" r="122.8686" gradientTransform="matrix(0.0343 0 0 0.0151 466.8066 -146.9237)" gradientUnits="userSpaceOnUse">
			<stop  offset="0.0056" style="stop-color:#FFFFFF"/>
			<stop  offset="0.5354" style="stop-color:#FFFDFD"/>
			<stop  offset="0.7263" style="stop-color:#FFF6F7"/>
			<stop  offset="0.8623" style="stop-color:#FFEBEC"/>
			<stop  offset="0.9715" style="stop-color:#FFDADC"/>
			<stop  offset="1" style="stop-color:#FFD4D7"/>
		</radialGradient>
		<path fill="url(#SVGID_19_)" d="M1630.553-159.834c0,16.14-29.68,29.225-66.283,29.225c-36.622,0-66.283-13.085-66.283-29.225
			c0-16.138,29.684-29.229,66.283-29.229C1600.872-189.063,1630.553-175.972,1630.553-159.834z"/>
		
			<radialGradient id="SVGID_20_" cx="-22349.4727" cy="4100.4473" r="63.5604" gradientTransform="matrix(-0.0735 -4.480464e-05 4.480464e-05 -0.0735 -96.2176 96.9513)" gradientUnits="userSpaceOnUse">
			<stop  offset="0.0056" style="stop-color:#FFFFFF"/>
			<stop  offset="0.5506" style="stop-color:#FF0000"/>
			<stop  offset="0.6135" style="stop-color:#FC0000"/>
			<stop  offset="0.6637" style="stop-color:#F20000"/>
			<stop  offset="0.7095" style="stop-color:#E10000"/>
			<stop  offset="0.7527" style="stop-color:#C90000"/>
			<stop  offset="0.7941" style="stop-color:#AB0000"/>
			<stop  offset="0.8335" style="stop-color:#860000"/>
			<stop  offset="0.8427" style="stop-color:#7C0000"/>
		</radialGradient>
		<path fill="url(#SVGID_20_)" d="M1510.891-191.199c0.786-51.53,70.067-71.353,93.104-24.1
			C1642.383-148.651,1511.456-117.212,1510.891-191.199"/>
	</g>
	<path fill="#FF9999" d="M879.336,653.613v143.545c0,0-16.644-0.562-43.113,0l-8.25-92.398l8.25-98.717L879.336,653.613z"/>
	<path fill="#FF6666" d="M793.108,653.613v143.545c0,0,16.644-0.562,43.111,0V606.045L793.108,653.613z"/>
	<g transform="translate(0 49.59)">
		<path fill="#7DCDCB" d="M836.223,694.977l-8.25,42.547l8.25,13.752c26.468-0.562,43.113,0,43.113,0v-8.725L836.223,694.977z"/>
		<path fill="#7DCDCB" d="M793.108,742.55v8.725c0,0,16.644-0.562,43.111,0v-56.292L793.108,742.55z"/>
	</g>
	<g transform="translate(.00781 26.985)">
		
			<linearGradient id="SVGID_21_" gradientUnits="userSpaceOnUse" x1="897.7411" y1="896.211" x2="830.5709" y2="818.5668" gradientTransform="matrix(-0.3066 -0.0146 -0.0051 0.2969 1130.6833 421.7307)">
			<stop  offset="0" style="stop-color:#830000"/>
			<stop  offset="0.1406" style="stop-color:#A80000"/>
			<stop  offset="0.2921" style="stop-color:#C70000"/>
			<stop  offset="0.4499" style="stop-color:#E00000"/>
			<stop  offset="0.6148" style="stop-color:#F10000"/>
			<stop  offset="0.7914" style="stop-color:#FC0000"/>
			<stop  offset="1" style="stop-color:#FF0000"/>
		</linearGradient>
		<path fill="url(#SVGID_21_)" d="M836.235,654.757l43.065,47.936v-22.548l-42.978-47.958L836.235,654.757L836.235,654.757z"/>
		
			<linearGradient id="SVGID_22_" gradientUnits="userSpaceOnUse" x1="1427.9515" y1="938.214" x2="1341.7731" y2="843.0191" gradientTransform="matrix(0.3091 -0.0183 0.0013 0.2908 379.2594 427.618)">
			<stop  offset="0" style="stop-color:#420000"/>
			<stop  offset="0.0822" style="stop-color:#5E0000"/>
			<stop  offset="0.2161" style="stop-color:#840000"/>
			<stop  offset="0.3554" style="stop-color:#A40000"/>
			<stop  offset="0.4991" style="stop-color:#BD0000"/>
			<stop  offset="0.6493" style="stop-color:#CE0000"/>
			<stop  offset="0.8101" style="stop-color:#D90000"/>
			<stop  offset="1" style="stop-color:#DC0000"/>
		</linearGradient>
		<path fill="url(#SVGID_22_)" d="M793.092,702.646l-0.011-22.338l43.255-48.078v22.519L793.092,702.646z"/>
	</g>
</g>
</svg>
