<svg version="1.1" xmlns="http://www.w3.org/2000/svg" xmlns:xlink="http://www.w3.org/1999/xlink" viewBox="0 0 768 430" enable-background="new 0 0 768 430" xml:space="preserve">
<g id="Layer_2">
</g>
<g id="Layer_1">
	<g>
		<path fill="#BBC3EA" d="M210.256,319.606l51.117,32.95c19.936,12.852,42.501,21.071,66.036,24.026
			c28.206,3.541,69.187,7.038,112.551,5.194c37.185-1.581,72.599-16.327,100.038-41.472l15.567-14.264L210.256,319.606z"/>
	</g>
	<path fill="#CFD4F9" d="M198.244,318.211c0.306-22.097,89.02-38.782,198.147-37.269c109.127,1.514,197.343,20.652,197.037,42.75
		c-0.307,22.097-89.021,38.782-198.147,37.269C286.154,359.447,197.937,340.307,198.244,318.211"/>
	<path fill="#E3E8FF" d="M196.518,318.187c0.083-6.003,5.69-11.617,16.666-16.686c10.156-4.689,24.61-8.817,42.961-12.27
		c37.548-7.062,87.363-10.548,140.268-9.813c52.905,0.733,102.604,5.6,139.941,13.7c18.248,3.959,32.582,8.486,42.604,13.456
		c10.83,5.371,16.279,11.139,16.196,17.142c-0.083,6.004-5.69,11.617-16.666,16.686c-10.156,4.689-24.61,8.818-42.96,12.27
		c-37.549,7.062-87.364,10.547-140.269,9.813s-102.603-5.599-139.941-13.7c-18.248-3.959-32.582-8.486-42.604-13.457
		C201.884,329.957,196.435,324.19,196.518,318.187"/>
	<path fill="#E3E8FF" d="M199.969,318.234c-0.135,9.761,20.335,19.816,56.162,27.59c37.094,8.048,86.519,12.882,139.172,13.612
		c52.652,0.73,102.193-2.73,139.495-9.747c36.028-6.776,56.77-16.261,56.904-26.021c0.137-9.761-20.334-19.816-56.161-27.59
		c-37.093-8.048-86.519-12.882-139.171-13.612c-52.653-0.73-102.193,2.731-139.496,9.748
		C220.846,298.989,200.105,308.475,199.969,318.234"/>
	<g>
		<g>
			
				<ellipse transform="matrix(0.9999 0.0139 -0.0139 0.9999 4.4659 -5.5049)" fill="#BBC3EA" cx="399.138" cy="319.243" rx="158.608" ry="28.375"/>
		</g>
	</g>
	<g>
		<g>
			<g>
				<g>
					<g>
						<polygon fill="#512412" points="357.296,236.806 256.592,238.116 260.002,320.557 530.681,341.59 533.732,253.093 						"/>
					</g>
				</g>
				<g>
					<g>
						<polygon fill="#8E554C" points="258.299,279.398 532.297,294.723 531.795,309.298 258.962,295.425 						"/>
					</g>
				</g>
				<g>
					<g>
						<g>
							<path fill="#8B544C" d="M516.715,269.451c-0.013,0.035-0.23,0-0.642-0.103c-0.411-0.099-1.021-0.244-1.823-0.436
								c-1.601-0.364-3.994-0.781-7.102-0.876c-1.553-0.04-3.282-0.002-5.168,0.156c-1.887,0.156-3.928,0.43-6.11,0.815
								c-2.183,0.384-4.505,0.879-6.964,1.443c-2.464,0.576-5.068,1.186-7.804,1.825c-2.748,0.618-5.644,1.243-8.71,1.698
								c-1.531,0.234-3.105,0.421-4.72,0.542c-0.807,0.073-1.624,0.092-2.448,0.122c-0.412,0.011-0.826,0.04-1.241,0.034
								c-0.416-0.004-0.834-0.009-1.253-0.013c-3.354-0.042-6.809-0.381-10.319-0.95c-3.511-0.568-7.077-1.365-10.692-2.29
								c-3.617-0.922-7.283-1.978-11.021-3.029c-3.738-1.055-7.545-2.103-11.457-2.977c-3.91-0.87-7.926-1.562-12.02-1.92
								c-4.092-0.373-8.27-0.323-12.409,0.267c-0.259,0.038-0.52,0.062-0.775,0.111l-0.767,0.147
								c-0.512,0.099-1.021,0.197-1.531,0.295c-0.502,0.128-1.003,0.257-1.503,0.384l-0.75,0.191
								c-0.249,0.066-0.491,0.155-0.737,0.232c-1.971,0.585-3.862,1.369-5.741,2.229c-3.751,1.708-7.462,3.681-11.519,4.803
								c-4.047,1.102-8.21,1.339-12.171,0.971c-3.97-0.362-7.755-1.229-11.359-2.247c-3.609-1.018-7.05-2.182-10.39-3.271
								c-3.337-1.096-6.576-2.115-9.742-2.93c-3.165-0.804-6.259-1.409-9.256-1.674c-2.996-0.268-5.885-0.196-8.636,0.12
								c-2.75,0.316-5.353,0.825-7.806,1.378c-2.453,0.556-4.757,1.155-6.919,1.709c-4.319,1.117-8.079,2.027-11.209,2.509
								c-3.125,0.498-5.585,0.625-7.247,0.621c-0.416-0.003-0.782,0.002-1.097-0.014c-0.316-0.019-0.581-0.036-0.793-0.055
								c-0.425-0.037-0.642-0.074-0.641-0.112c0-0.037,0.218-0.074,0.641-0.111c0.211-0.018,0.474-0.036,0.786-0.054
								c0.312-0.021,0.674-0.062,1.085-0.095c1.64-0.137,4.056-0.397,7.116-1.018c3.061-0.602,6.751-1.621,11.04-2.851
								c2.146-0.609,4.447-1.266,6.917-1.881c2.47-0.612,5.114-1.185,7.94-1.56c2.823-0.376,5.845-0.501,8.961-0.267
								c3.117,0.229,6.313,0.813,9.556,1.597c3.242,0.793,6.533,1.792,9.891,2.858c3.36,1.061,6.791,2.189,10.339,3.161
								c3.545,0.973,7.219,1.783,11.001,2.108c3.776,0.329,7.659,0.08,11.418-0.954c3.756-1.048,7.362-2.961,11.19-4.719
								c1.914-0.879,3.913-1.714,6.001-2.337c0.26-0.08,0.516-0.175,0.779-0.245l0.791-0.203c0.527-0.135,1.057-0.271,1.586-0.405
								c0.537-0.104,1.074-0.208,1.611-0.312l0.807-0.154c0.27-0.053,0.543-0.078,0.814-0.117c4.346-0.621,8.695-0.662,12.913-0.271
								c4.222,0.377,8.329,1.099,12.302,1.998c3.975,0.902,7.82,1.981,11.559,3.057c3.74,1.075,7.384,2.149,10.957,3.089
								c3.571,0.941,7.073,1.755,10.503,2.343c3.429,0.591,6.787,0.954,10.037,1.034c0.406,0.009,0.811,0.018,1.214,0.027
								c0.402,0.01,0.803-0.014,1.202-0.019c0.798-0.021,1.589-0.026,2.371-0.088c1.564-0.097,3.101-0.257,4.604-0.465
								c3.006-0.401,5.877-0.973,8.618-1.538c2.747-0.587,5.362-1.146,7.836-1.675c2.484-0.514,4.843-0.959,7.064-1.291
								c2.223-0.333,4.309-0.553,6.236-0.648c1.929-0.099,3.696-0.074,5.28,0.032c3.171,0.229,5.588,0.794,7.174,1.301
								c0.79,0.267,1.39,0.477,1.779,0.648C516.534,269.31,516.728,269.416,516.715,269.451z"/>
						</g>
						<g>
							<path fill="#8B544C" d="M466.381,274.799c-0.238,0.01-0.475,0.018-0.709,0.026l-0.439,0.016
								c-0.422,0.01-0.835,0.039-1.252,0.033l-1.252-0.012c-3.224-0.041-6.705-0.361-10.349-0.953
								c-3.19-0.516-6.694-1.267-10.712-2.294c-3.012-0.768-5.994-1.61-9.15-2.502l-1.875-0.529
								c-3.606-1.016-7.461-2.082-11.445-2.973c-4.318-0.961-8.242-1.588-11.994-1.916c-4.25-0.388-8.41-0.298-12.363,0.266
								c-0.093,0.014-0.186,0.025-0.279,0.037c-0.163,0.021-0.326,0.041-0.486,0.072l-2.298,0.441l-2.241,0.573
								c-0.154,0.041-0.308,0.092-0.46,0.143c-0.089,0.029-0.178,0.06-0.267,0.087c-1.699,0.505-3.463,1.188-5.719,2.22
								c-0.819,0.373-1.636,0.758-2.455,1.145c-2.904,1.37-5.907,2.787-9.094,3.669c-3.846,1.047-7.965,1.375-12.243,0.978
								c-3.438-0.314-7.06-1.03-11.395-2.254c-2.991-0.843-5.874-1.79-8.663-2.705l-1.735-0.568
								c-3.101-1.018-6.427-2.077-9.729-2.927c-3.469-0.881-6.487-1.427-9.224-1.668c-2.82-0.252-5.711-0.212-8.595,0.119
								c-2.35,0.271-4.824,0.707-7.785,1.375c-2.216,0.502-4.288,1.033-6.292,1.547l-0.622,0.16
								c-4.5,1.164-8.132,2.037-11.228,2.513c-3.272,0.521-5.765,0.627-7.278,0.623l-0.328-0.001c-0.287,0-0.546-0.001-0.779-0.012
								c-0.319-0.019-0.586-0.037-0.8-0.056c-0.59-0.051-0.83-0.081-0.825-0.316c0.005-0.228,0.241-0.257,0.825-0.308
								c0.212-0.018,0.478-0.036,0.792-0.054c0.169-0.012,0.354-0.029,0.554-0.048c0.165-0.015,0.341-0.031,0.526-0.046
								c2.386-0.2,4.706-0.532,7.093-1.016c3.205-0.629,7.204-1.751,11.024-2.847l0.188-0.054c2.131-0.604,4.334-1.23,6.736-1.828
								c3-0.744,5.529-1.241,7.962-1.564c3.006-0.4,6.036-0.49,9.002-0.268c2.862,0.211,5.998,0.734,9.588,1.602
								c3.42,0.837,6.926,1.916,9.904,2.863c0.63,0.198,1.262,0.399,1.897,0.602c2.731,0.869,5.555,1.768,8.434,2.556
								c4.202,1.153,7.687,1.821,10.965,2.103c3.982,0.347,7.799,0.028,11.348-0.948c2.923-0.814,5.724-2.143,8.69-3.549
								c0.815-0.387,1.637-0.775,2.47-1.158c2.355-1.082,4.214-1.806,6.028-2.347c0.088-0.026,0.178-0.057,0.268-0.087
								c0.171-0.057,0.342-0.113,0.516-0.159l2.381-0.61l2.43-0.468c0.178-0.034,0.357-0.058,0.537-0.08
								c0.096-0.013,0.191-0.024,0.286-0.039c4.155-0.593,8.515-0.685,12.96-0.271c3.873,0.346,7.904,1,12.328,2.001
								c4.096,0.931,8.119,2.067,11.569,3.06l2.174,0.628c3.035,0.876,5.903,1.704,8.778,2.46c3.946,1.041,7.377,1.806,10.486,2.34
								c3.53,0.607,6.897,0.954,10.008,1.031l1.214,0.026c0.255,0.007,0.509-0.001,0.763-0.008c0.144-0.005,0.288-0.009,0.432-0.011
								l0.46-0.011c0.626-0.014,1.272-0.027,1.898-0.076c1.491-0.092,3.035-0.248,4.591-0.463c3.045-0.406,5.922-0.982,8.606-1.537
								l7.835-1.673c2.792-0.579,5.04-0.99,7.076-1.294c2.24-0.336,4.345-0.556,6.256-0.65c1.815-0.095,3.6-0.083,5.304,0.032
								c3.343,0.242,5.772,0.846,7.222,1.31c0.821,0.277,1.407,0.483,1.799,0.656c0.542,0.24,0.758,0.346,0.68,0.565
								c-0.077,0.215-0.312,0.167-0.879,0.024l-1.821-0.435c-2.205-0.502-4.582-0.795-7.062-0.871
								c-1.664-0.043-3.396,0.01-5.146,0.155c-1.857,0.154-3.907,0.428-6.092,0.813c-1.976,0.348-4.186,0.806-6.953,1.441
								l-7.803,1.825c-2.569,0.578-5.573,1.234-8.727,1.701c-1.601,0.245-3.195,0.429-4.734,0.544
								C467.257,274.757,466.816,274.78,466.381,274.799z M399.844,263.104c2.419-0.101,4.892-0.036,7.396,0.191
								c3.769,0.33,7.709,0.96,12.045,1.924c3.995,0.894,7.856,1.962,11.468,2.979l1.875,0.529c3.153,0.891,6.133,1.731,9.141,2.499
								c4.006,1.024,7.498,1.772,10.677,2.286c3.624,0.589,7.086,0.907,10.289,0.947l1.251,0.013
								c0.415,0.006,0.826-0.023,1.235-0.033l0.438-0.016c0.657-0.023,1.339-0.047,1.996-0.106c1.533-0.114,3.116-0.296,4.708-0.541
								c3.141-0.465,6.136-1.119,8.696-1.695l7.802-1.825c2.775-0.637,4.991-1.096,6.975-1.445c2.196-0.388,4.259-0.663,6.129-0.817
								c1.764-0.148,3.51-0.201,5.189-0.157c2.508,0.077,4.91,0.374,7.142,0.882l0.404,0.097c-0.126-0.044-0.259-0.089-0.398-0.137
								c-1.427-0.456-3.823-1.051-7.125-1.29c-1.687-0.113-3.452-0.126-5.255-0.032c-1.898,0.096-3.99,0.312-6.217,0.646
								c-2.028,0.303-4.27,0.713-7.054,1.29l-7.835,1.674c-2.693,0.556-5.577,1.134-8.634,1.541
								c-1.565,0.217-3.119,0.374-4.618,0.467c-0.632,0.049-1.285,0.063-1.917,0.076l-0.461,0.011
								c-0.145,0.002-0.286,0.007-0.428,0.01c-0.261,0.009-0.522,0.016-0.785,0.009l-1.213-0.027
								c-3.13-0.076-6.516-0.425-10.066-1.036c-3.121-0.536-6.562-1.304-10.521-2.347c-2.88-0.758-5.749-1.587-8.787-2.464
								l-2.174-0.627c-3.444-0.99-7.462-2.125-11.547-3.054c-4.405-0.997-8.421-1.648-12.275-1.993
								c-4.415-0.409-8.743-0.319-12.866,0.271c-0.098,0.014-0.195,0.026-0.293,0.038c-0.172,0.022-0.343,0.044-0.512,0.076
								l-2.418,0.467l-2.367,0.606c-0.164,0.043-0.328,0.098-0.491,0.152c-0.093,0.03-0.185,0.061-0.276,0.09
								c-1.797,0.535-3.64,1.253-5.978,2.327c-0.831,0.382-1.651,0.771-2.465,1.156c-2.982,1.413-5.799,2.748-8.755,3.572
								c-3.593,0.99-7.458,1.313-11.49,0.961c-3.303-0.283-6.81-0.955-11.036-2.115c-2.887-0.79-5.715-1.689-8.45-2.56
								c-0.635-0.202-1.267-0.403-1.897-0.603c-2.972-0.944-6.47-2.021-9.878-2.855c-3.567-0.86-6.683-1.381-9.523-1.591
								c-2.939-0.221-5.94-0.132-8.919,0.266c-2.417,0.321-4.934,0.815-7.918,1.555c-2.396,0.597-4.595,1.222-6.724,1.826
								l-0.188,0.054c-3.828,1.098-7.836,2.222-11.056,2.854c-2.401,0.485-4.737,0.82-7.138,1.021
								c-0.15,0.012-0.294,0.025-0.431,0.038c0.035,0,0.069,0,0.105,0l0.328,0.001c1.5,0.004,3.969-0.101,7.214-0.618
								c3.081-0.474,6.702-1.344,11.191-2.506l0.622-0.159c2.006-0.515,4.081-1.047,6.303-1.55c2.975-0.671,5.463-1.11,7.828-1.382
								c2.909-0.335,5.828-0.376,8.676-0.121c2.758,0.244,5.796,0.793,9.288,1.68c3.314,0.853,6.647,1.914,9.755,2.934l1.735,0.568
								c2.784,0.914,5.664,1.86,8.646,2.7c4.312,1.217,7.91,1.929,11.323,2.24c4.231,0.395,8.302,0.069,12.1-0.964
								c3.153-0.872,6.141-2.282,9.029-3.646c0.821-0.387,1.639-0.773,2.459-1.146c2.274-1.039,4.053-1.729,5.768-2.238
								c0.084-0.026,0.171-0.055,0.257-0.084c0.161-0.053,0.321-0.106,0.485-0.15l2.255-0.575l2.31-0.445
								c0.17-0.033,0.341-0.054,0.512-0.076c0.092-0.011,0.182-0.022,0.273-0.036C396.438,263.328,398.127,263.175,399.844,263.104z
								"/>
						</g>
					</g>
				</g>
				<g>
					<g>
						<g>
							<path fill="#8B544C" d="M515.867,317.455c-0.016,0.032-0.23-0.029-0.632-0.179c-0.396-0.162-0.997-0.367-1.775-0.649
								c-1.567-0.523-3.925-1.226-7.05-1.434c-1.56-0.11-3.302-0.11-5.198,0.056c-1.897,0.163-3.947,0.49-6.128,0.967
								c-2.182,0.474-4.494,1.096-6.938,1.81c-2.449,0.73-5.038,1.503-7.756,2.313c-2.738,0.784-5.633,1.572-8.727,2.131
								c-1.545,0.281-3.139,0.515-4.779,0.635c-1.64,0.111-3.319,0.155-5.02,0.074c-3.402-0.146-6.887-0.699-10.387-1.546
								c-3.501-0.847-7.023-1.979-10.568-3.268c-3.547-1.287-7.123-2.721-10.772-4.152c-3.65-1.433-7.367-2.864-11.225-4.065
								c-3.854-1.195-7.84-2.197-11.938-2.709c-4.09-0.519-8.303-0.526-12.412,0.287c-2.053,0.406-4.043,1.025-5.947,1.818
								c-1.896,0.804-3.697,1.818-5.478,2.906c-1.782,1.082-3.539,2.233-5.362,3.297c-1.819,1.066-3.715,2.049-5.73,2.772
								c-2.016,0.712-4.111,1.136-6.194,1.296c-2.085,0.162-4.156,0.061-6.163-0.218c-4.012-0.604-7.762-1.829-11.281-3.226
								c-3.529-1.39-6.853-2.948-10.088-4.4c-3.231-1.463-6.372-2.834-9.471-3.947c-1.551-0.549-3.086-1.054-4.616-1.443
								c-1.524-0.417-3.043-0.704-4.536-0.924c-2.991-0.403-5.897-0.35-8.649,0.056c-2.752,0.4-5.344,1.064-7.774,1.783
								c-2.43,0.722-4.705,1.5-6.841,2.219c-2.136,0.719-4.132,1.386-5.994,1.938c-1.861,0.545-3.583,1.006-5.156,1.308
								c-3.139,0.639-5.638,0.784-7.319,0.751c-0.21-0.001-0.407,0.001-0.592-0.004c-0.185-0.013-0.358-0.024-0.517-0.035
								c-0.319-0.023-0.586-0.045-0.8-0.067c-0.214-0.021-0.376-0.041-0.483-0.062c-0.107-0.027-0.161-0.05-0.16-0.069
								c0.001-0.019,0.057-0.033,0.165-0.043c0.109-0.016,0.271-0.033,0.485-0.048c0.214-0.015,0.479-0.029,0.795-0.043
								c0.157-0.005,0.328-0.012,0.51-0.019c0.183-0.016,0.377-0.032,0.584-0.049c1.655-0.108,4.093-0.388,7.148-1.142
								c1.531-0.359,3.203-0.872,5.028-1.47c1.823-0.604,3.786-1.324,5.902-2.097c2.116-0.773,4.384-1.609,6.837-2.395
								c2.453-0.782,5.096-1.516,7.952-1.982c2.85-0.472,5.942-0.582,9.097-0.2c1.572,0.208,3.166,0.488,4.753,0.9
								c1.595,0.385,3.184,0.885,4.783,1.431c6.399,2.191,12.775,5.486,19.69,8.181c3.454,1.344,7.073,2.489,10.839,3.035
								c1.882,0.25,3.797,0.332,5.706,0.175c1.908-0.156,3.808-0.548,5.641-1.202c1.827-0.663,3.603-1.583,5.359-2.621
								c1.76-1.031,3.503-2.178,5.322-3.288c1.812-1.111,3.718-2.193,5.759-3.061c2.04-0.854,4.178-1.518,6.371-1.951
								c4.395-0.87,8.849-0.85,13.109-0.301c4.273,0.541,8.374,1.588,12.307,2.823c3.936,1.241,7.7,2.711,11.35,4.166
								c3.653,1.456,7.203,2.906,10.699,4.203c3.494,1.299,6.938,2.437,10.337,3.292c3.397,0.857,6.753,1.424,10.015,1.602
								c1.631,0.098,3.233,0.074,4.806-0.011c1.571-0.094,3.111-0.298,4.615-0.549c3.01-0.499,5.871-1.228,8.599-1.958
								c2.733-0.759,5.336-1.48,7.798-2.164c2.477-0.666,4.835-1.243,7.069-1.67s4.344-0.702,6.299-0.808
								c1.954-0.107,3.75-0.043,5.349,0.137c3.21,0.347,5.592,1.204,7.133,1.869c0.766,0.354,1.345,0.629,1.712,0.857
								C515.704,317.292,515.885,317.42,515.867,317.455z"/>
						</g>
						<g>
							<path fill="#8B544C" d="M465.499,323.382c-1.293,0.054-2.495,0.052-3.645-0.003c-3.238-0.139-6.745-0.661-10.424-1.552
								c-3.179-0.769-6.644-1.84-10.59-3.273c-2.888-1.048-5.731-2.168-8.743-3.354l-2.035-0.801
								c-3.554-1.395-7.348-2.857-11.21-4.061c-4.476-1.389-8.259-2.247-11.901-2.701c-4.413-0.56-8.566-0.463-12.35,0.284
								c-1.99,0.395-3.979,1.002-5.908,1.808c-2.073,0.878-4.002,2.007-5.451,2.893c-0.701,0.426-1.398,0.862-2.096,1.299
								c-1.062,0.665-2.161,1.353-3.269,1.999c-2.152,1.264-3.984,2.149-5.764,2.789c-1.982,0.7-4.083,1.14-6.246,1.307
								c-1.967,0.152-4.058,0.079-6.206-0.219c-3.482-0.524-7.081-1.553-11.328-3.238c-2.833-1.116-5.542-2.343-8.162-3.53
								c-0.649-0.294-1.294-0.586-1.935-0.874c-3.025-1.369-6.264-2.794-9.457-3.94c-1.851-0.655-3.269-1.1-4.597-1.438
								c-1.358-0.371-2.834-0.672-4.516-0.92c-2.841-0.384-5.732-0.364-8.591,0.056c-2.339,0.341-4.8,0.905-7.746,1.776
								c-2.147,0.639-4.153,1.314-6.092,1.967l-0.743,0.251c-2.284,0.768-4.176,1.398-6,1.939c-2.189,0.641-3.785,1.045-5.175,1.312
								c-3.332,0.678-5.842,0.784-7.36,0.754h-0.184c-0.144,0-0.281,0-0.411-0.004l-0.524-0.035
								c-0.322-0.023-0.591-0.045-0.807-0.067c-0.223-0.022-0.391-0.044-0.502-0.065c-0.123-0.031-0.333-0.085-0.321-0.279
								c0.008-0.198,0.237-0.22,0.347-0.23c0.103-0.015,0.27-0.032,0.49-0.048c0.214-0.015,0.482-0.029,0.8-0.043l0.511-0.02
								l0.575-0.049c2.272-0.148,4.666-0.53,7.117-1.135c1.334-0.313,2.833-0.752,5.013-1.467c1.763-0.584,3.676-1.283,5.701-2.022
								l0.634-0.232c2.024-0.739,4.117-1.504,6.405-2.236c1.893-0.604,4.779-1.467,7.981-1.989c3.031-0.502,6.111-0.57,9.153-0.202
								c1.771,0.235,3.333,0.531,4.779,0.905c1.396,0.338,2.876,0.78,4.798,1.435c3.658,1.254,7.247,2.839,11.046,4.518
								c2.795,1.235,5.685,2.512,8.651,3.668c4.08,1.587,7.511,2.547,10.795,3.022c1.969,0.262,3.876,0.319,5.661,0.174
								c1.941-0.159,3.822-0.56,5.59-1.191c1.624-0.59,3.316-1.417,5.325-2.604c1.05-0.615,2.072-1.258,3.153-1.938
								c0.714-0.449,1.433-0.902,2.166-1.35c1.522-0.934,3.557-2.127,5.786-3.073c2.091-0.875,4.248-1.536,6.411-1.964
								c4.057-0.803,8.489-0.905,13.173-0.304c3.805,0.482,7.727,1.383,12.342,2.831c3.976,1.254,7.793,2.749,11.363,4.172
								c0.769,0.307,1.533,0.612,2.293,0.917c2.902,1.163,5.645,2.262,8.402,3.285c3.859,1.435,7.233,2.509,10.315,3.286
								c3.53,0.89,6.887,1.426,9.977,1.595c1.465,0.087,3.027,0.085,4.784-0.011c1.392-0.083,2.852-0.257,4.593-0.546
								c3.103-0.515,6.056-1.278,8.58-1.954l7.796-2.164c2.799-0.753,5.05-1.285,7.086-1.674c2.27-0.434,4.397-0.707,6.325-0.811
								c1.847-0.1,3.663-0.057,5.382,0.137c2.534,0.274,4.885,0.891,7.189,1.885c0.751,0.348,1.354,0.632,1.738,0.872
								c0.51,0.298,0.715,0.428,0.609,0.64v0.001c-0.1,0.199-0.305,0.135-0.881-0.081c-0.264-0.107-0.611-0.231-1.037-0.384
								c-0.225-0.08-0.471-0.168-0.737-0.265c-1.665-0.556-3.97-1.221-6.995-1.422c-1.662-0.117-3.399-0.099-5.167,0.056
								c-1.856,0.16-3.909,0.483-6.103,0.962c-1.97,0.428-4.17,1.002-6.925,1.807l-7.756,2.313
								c-2.546,0.729-5.529,1.555-8.748,2.136c-1.807,0.328-3.332,0.53-4.8,0.638C466.42,323.337,465.954,323.363,465.499,323.382z
								 M399.826,306.91c2.299-0.095,4.697,0.016,7.174,0.329c3.668,0.457,7.473,1.32,11.973,2.716
								c3.875,1.208,7.676,2.673,11.237,4.07l2.035,0.801c3.009,1.186,5.85,2.305,8.732,3.351c3.933,1.429,7.383,2.495,10.548,3.261
								c3.653,0.884,7.134,1.403,10.348,1.54c1.539,0.074,3.173,0.049,4.998-0.073c1.451-0.106,2.963-0.307,4.757-0.632
								c3.2-0.578,6.172-1.4,8.706-2.126l7.755-2.313c2.765-0.808,4.974-1.384,6.952-1.814c2.21-0.482,4.28-0.808,6.153-0.97
								c1.788-0.155,3.547-0.174,5.229-0.056c3.071,0.204,5.407,0.878,7.1,1.443c0.145,0.052,0.281,0.102,0.411,0.148
								c-0.128-0.061-0.261-0.122-0.399-0.186c-2.262-0.977-4.575-1.583-7.068-1.853c-1.699-0.19-3.487-0.235-5.317-0.135
								c-1.909,0.103-4.02,0.373-6.271,0.805c-2.026,0.386-4.268,0.915-7.055,1.666l-7.797,2.163
								c-2.535,0.679-5.499,1.445-8.62,1.962c-1.754,0.293-3.228,0.469-4.636,0.553c-1.773,0.094-3.352,0.099-4.829,0.01
								c-3.114-0.169-6.497-0.711-10.053-1.606c-3.096-0.78-6.483-1.859-10.357-3.299c-2.762-1.025-5.506-2.125-8.411-3.288
								c-0.761-0.305-1.524-0.61-2.292-0.917c-3.562-1.42-7.373-2.911-11.335-4.161c-4.593-1.442-8.492-2.337-12.271-2.816
								c-4.642-0.596-9.03-0.495-13.046,0.299c-2.136,0.423-4.268,1.075-6.332,1.94c-2.204,0.936-4.221,2.119-5.733,3.047
								c-0.731,0.445-1.449,0.897-2.161,1.345c-1.084,0.683-2.108,1.326-3.164,1.945c-2.03,1.199-3.744,2.037-5.392,2.636
								c-1.803,0.645-3.718,1.052-5.693,1.213c-1.816,0.15-3.749,0.09-5.749-0.175c-3.318-0.481-6.777-1.449-10.886-3.047
								c-2.975-1.16-5.87-2.438-8.668-3.674c-3.792-1.676-7.373-3.258-11.014-4.506c-1.91-0.65-3.379-1.09-4.766-1.425
								c-1.433-0.371-2.98-0.664-4.732-0.896c-3.001-0.363-6.043-0.297-9.038,0.198c-3.176,0.52-6.043,1.377-7.924,1.977
								c-2.28,0.729-4.369,1.492-6.39,2.23l-0.634,0.231c-2.028,0.741-3.943,1.441-5.714,2.027c-2.192,0.719-3.7,1.16-5.044,1.476
								c-2.472,0.61-4.889,0.996-7.181,1.146l-0.447,0.037c0.083,0.001,0.17,0.001,0.26,0.001h0.188
								c1.501,0.029,3.98-0.075,7.278-0.746c1.379-0.266,2.964-0.667,5.14-1.305c1.817-0.538,3.706-1.167,5.986-1.935l0.743-0.25
								c1.942-0.654,3.951-1.331,6.106-1.972c2.964-0.877,5.443-1.446,7.802-1.789c2.896-0.426,5.825-0.444,8.705-0.056
								c1.7,0.251,3.192,0.555,4.562,0.929c1.338,0.342,2.766,0.789,4.63,1.448c3.207,1.152,6.455,2.581,9.487,3.953
								c0.641,0.288,1.286,0.58,1.935,0.875c2.615,1.185,5.319,2.41,8.144,3.522c4.218,1.674,7.788,2.695,11.237,3.214
								c2.117,0.294,4.177,0.366,6.118,0.217c2.128-0.165,4.194-0.597,6.142-1.285c1.754-0.631,3.565-1.507,5.696-2.757
								c1.103-0.644,2.199-1.33,3.258-1.993c0.701-0.438,1.398-0.876,2.101-1.302c1.46-0.893,3.406-2.031,5.504-2.92
								c1.956-0.815,3.971-1.432,5.986-1.831C396.221,307.192,397.992,306.986,399.826,306.91z"/>
						</g>
					</g>
				</g>
				<g>
					<g>
						<path fill="#DBCBA9" d="M533.732,253.093c-6.024-38.246-47.086-61.601-47.086-61.601l-230.055,46.624
							c0,0-4.663,9.081,0.54,13.061c5.203,3.98,10.377-9.702,16.686-6.651c6.309,3.051,10.437,17.451,20.77,11.062
							c10.334-6.389,24.23-12.041,36.213-5.251s23.287,7.868,29.69,2.525c6.402-5.343,32.227-5.528,43.88-1.374
							c11.652,4.154,34.39,9.398,45.471,5.075c11.082-4.323,58.515-5.182,68.01,0.166
							C527.345,262.076,535.241,260.04,533.732,253.093z"/>
					</g>
				</g>
			</g>
			<g>
				<g>
					<path fill="#E2D6BA" d="M256.592,238.116l276.392,11.063c0,0-0.783-28.733-46.337-57.688
						C486.646,191.492,259.394,235.516,256.592,238.116z"/>
				</g>
			</g>
			<g>
				<g>
					<g>
						<path fill="#FFFDFA" d="M511.526,246.526c-0.008,0.076-0.851,0.065-2.449-0.009c-1.599-0.077-3.953-0.224-6.984-0.412
							c-6.062-0.367-14.831-0.95-25.671-1.174c-5.419-0.113-11.354-0.083-17.733,0.058c-6.385,0.161-13.208,0.334-20.388,0.517
							c-3.595,0.073-7.283,0.124-11.054,0.116c-3.77-0.008-7.618-0.073-11.532-0.186c-7.828-0.224-15.922-0.639-24.2-1.107
							c-16.552-0.965-32.312-1.817-46.658-2.498c-14.344-0.694-27.266-1.23-38.119-1.672c-10.854-0.44-19.638-0.798-25.709-1.044
							c-3.035-0.138-5.392-0.248-6.989-0.355c-1.598-0.104-2.436-0.194-2.435-0.27c0.001-0.076,0.842-0.132,2.443-0.17
							c1.601-0.035,3.961-0.062,7-0.055c6.078,0.007,14.873,0.11,25.737,0.35c10.865,0.245,23.801,0.622,38.159,1.206
							c14.357,0.571,30.143,1.363,46.692,2.328c8.273,0.469,16.346,0.898,24.143,1.149c3.898,0.127,7.728,0.209,11.478,0.238
							s7.423,0.003,11.01-0.042c7.172-0.096,13.998-0.261,20.395-0.316c6.395-0.062,12.363-0.003,17.804,0.21
							c10.882,0.422,19.65,1.242,25.698,1.87c3.023,0.319,5.367,0.603,6.954,0.82C510.704,246.295,511.533,246.453,511.526,246.526z
							"/>
					</g>
					<g>
						<path fill="#FFFDFA" d="M511.242,246.776c-0.365,0.016-1.015-0.005-2.174-0.059c-1.596-0.076-3.962-0.224-6.958-0.41
							l-1.779-0.108c-5.941-0.365-14.079-0.864-23.913-1.066c-5.219-0.109-11.018-0.091-17.725,0.057l-20.388,0.518
							c-4.218,0.086-7.731,0.123-11.059,0.115c-3.618-0.007-7.5-0.069-11.538-0.185c-8.271-0.236-16.878-0.693-24.206-1.108
							c-17.311-1.01-33.007-1.85-46.655-2.498c-13.807-0.668-26.479-1.198-38.118-1.672l-25.709-1.043
							c-2.856-0.13-5.352-0.246-6.994-0.355c-2.627-0.172-2.626-0.242-2.622-0.475c0.004-0.234,0.005-0.306,2.639-0.366
							c1.322-0.029,3.61-0.063,7.005-0.055c6.708,0.007,15.85,0.131,25.742,0.35c12.642,0.284,25.482,0.69,38.163,1.206
							c14.141,0.562,29.852,1.346,46.697,2.328c9.105,0.516,16.695,0.909,24.137,1.148c4.026,0.131,7.887,0.211,11.472,0.238
							c3.264,0.025,6.761,0.013,11.006-0.042c3.061-0.041,6.058-0.095,8.985-0.146c3.981-0.071,7.742-0.138,11.41-0.169
							c6.713-0.066,12.54,0.003,17.813,0.21c11.018,0.427,19.951,1.272,25.711,1.871c3.513,0.37,5.724,0.651,6.96,0.821
							c2.612,0.354,2.604,0.439,2.581,0.665l0,0C511.713,246.682,511.705,246.758,511.242,246.776z M273.637,238.532
							c0.13,0.009,0.269,0.019,0.417,0.027c1.638,0.109,4.133,0.226,6.985,0.355l25.708,1.043
							c11.639,0.474,24.312,1.004,38.121,1.673c13.649,0.648,29.348,1.488,46.66,2.498c7.324,0.415,15.927,0.871,24.194,1.106
							c4.035,0.116,7.912,0.179,11.527,0.186c3.324,0.008,6.834-0.029,11.049-0.116l20.387-0.517
							c6.714-0.147,12.518-0.167,17.743-0.058c9.842,0.203,17.984,0.703,23.929,1.067l1.749,0.107
							c3.025,0.188,5.391,0.335,6.982,0.412c0.147,0.007,0.286,0.013,0.417,0.019c-0.129-0.019-0.267-0.037-0.413-0.058
							c-1.234-0.169-3.44-0.449-6.948-0.82c-5.755-0.598-14.679-1.441-25.685-1.869c-5.194-0.203-11.182-0.273-17.794-0.21
							c-3.666,0.032-7.427,0.099-11.406,0.171c-2.929,0.052-5.928,0.105-8.988,0.146c-4.248,0.055-7.748,0.068-11.014,0.042
							c-3.589-0.027-7.453-0.107-11.482-0.237c-7.443-0.24-15.037-0.634-24.147-1.15c-16.841-0.981-32.549-1.766-46.689-2.327
							c-12.679-0.516-25.516-0.922-38.155-1.206c-9.889-0.219-19.028-0.343-25.733-0.35c-3.392-0.008-5.676,0.025-6.995,0.055
							C273.905,238.524,273.767,238.528,273.637,238.532z"/>
					</g>
				</g>
			</g>
			<g>
				<g>
					<g>
						
							<ellipse transform="matrix(0.9991 -0.0414 0.0414 0.9991 -9.6491 10.923)" fill="#FFFDFA" cx="258.997" cy="238.515" rx="1.947" ry="1.091"/>
					</g>
					<g>
						<path fill="#FFFDFA" d="M259.05,239.806c-1.204,0.05-2.169-0.478-2.199-1.202c-0.03-0.724,0.889-1.33,2.092-1.38
							c1.203-0.05,2.169,0.479,2.199,1.202C261.172,239.15,260.253,239.757,259.05,239.806z M258.96,237.625
							c-1.043,0.043-1.725,0.532-1.707,0.962c0.018,0.43,0.737,0.861,1.781,0.817c1.043-0.043,1.725-0.532,1.708-0.962
							C260.723,238.013,260.003,237.582,258.96,237.625z"/>
					</g>
				</g>
			</g>
		</g>
		<g>
			<g>
				<g>
					<g>
						<path fill="#F1BAF9" d="M471.135,187.922c0,0,0.004,0,0.01,0C471.142,187.922,471.139,187.922,471.135,187.922
							L471.135,187.922z"/>
					</g>
				</g>
				<g>
					<g>
						<path fill="#DF97EA" d="M497.759,189.157c-0.706-4.264-3.003-7.833-6.914-10.273c-0.591,1.066-1.327,2.049-2.222,2.924
							c-4.54,4.438-10.839,6.34-16.53,6.164c4.284,0.311,21.251,2.576,15.546,18.875
							C494.984,203.518,499.11,197.312,497.759,189.157z"/>
					</g>
				</g>
				<g>
					<g>
						<path fill="#E9AEF4" d="M472.093,187.971c-0.318-0.01-0.635-0.026-0.948-0.048c-0.006,0-0.01,0-0.01,0l0.001-0.001
							c-6.194-0.451-11.487-3.4-12.704-8.239c-0.013-0.046-0.022-0.092-0.033-0.139c-5.719,3.27-9.092,8.096-8.882,13.177
							c0.596,14.41,11.283,17.419,25.824,16.818c4.657-0.192,8.834-1.124,12.298-2.693
							C493.344,190.546,476.377,188.282,472.093,187.971z"/>
					</g>
				</g>
				<g>
					<g>
						<path fill="#ECABF4" d="M485.185,176.474c1.442-2.311,2.55-5.002,3.007-8.103c1.479-10.048-6.536-17.091-11.052-20.202
							c-1.727-0.765-3.573-1.341-5.527-1.686c0,0,4.972,5.933-0.572,13.223c-5.519,7.254-14.896,10.474-12.642,19.838
							c4.115-2.353,9.444-3.898,15.529-4.15C478.276,175.214,482.023,175.608,485.185,176.474z"/>
					</g>
				</g>
				<g>
					<g>
						<path fill="#ECABF4" d="M471.136,187.921c0.045-0.017,9.057-3.453,14.049-11.448c-3.161-0.865-6.908-1.26-11.257-1.08
							c-6.085,0.251-11.414,1.797-15.529,4.15c0.011,0.047,0.021,0.092,0.033,0.139C459.648,184.521,464.941,187.47,471.136,187.921
							z"/>
					</g>
				</g>
				<g>
					<g>
						<path fill="#ECABF4" d="M472.093,187.971c-0.549-0.04-0.889-0.047-0.948-0.048
							C471.458,187.945,471.774,187.961,472.093,187.971z"/>
					</g>
				</g>
				<g>
					<g>
						<path fill="#DF97EA" d="M477.14,148.169c4.516,3.111,12.53,10.154,11.052,20.202c-0.457,3.101-1.564,5.792-3.007,8.103
							c-4.992,7.995-14.004,11.431-14.049,11.448c0.003,0,0.006,0,0.009,0.001c0.06,0.001,0.399,0.009,0.948,0.048
							c5.691,0.177,11.99-1.725,16.53-6.164c0.895-0.875,1.631-1.858,2.222-2.924C496.021,169.538,489.805,153.776,477.14,148.169z"
							/>
					</g>
				</g>
			</g>
			<g opacity="0.53">
				<g>
					
						<ellipse transform="matrix(0.9991 -0.0413 0.0413 0.9991 -7.5135 19.1337)" fill="#F6D6FB" cx="459.037" cy="191.3" rx="6.339" ry="4.773"/>
				</g>
			</g>
			<g opacity="0.53">
				<g>
					<path fill="#F6D6FB" d="M472.748,148.407c0,0,5.098,1.408,3.147,8.392s-20.601,16.228-13.918,24.424
						C468.661,189.419,491.752,155.258,472.748,148.407"/>
				</g>
			</g>
		</g>
		<g>
			<g>
				<g>
					<g>
						<path fill="#F1BAF9" d="M507.993,220.357c0,0,0.004,0,0.01,0C508,220.357,507.997,220.357,507.993,220.357L507.993,220.357z"
							/>
					</g>
				</g>
				<g>
					<g>
						<path fill="#DF97EA" d="M534.617,221.592c-0.706-4.264-3.003-7.832-6.914-10.273c-0.591,1.066-1.327,2.05-2.222,2.924
							c-4.541,4.438-10.839,6.34-16.531,6.164c4.285,0.311,21.252,2.575,15.547,18.875
							C531.843,235.952,535.97,229.747,534.617,221.592z"/>
					</g>
				</g>
				<g>
					<g>
						<path fill="#E9AEF4" d="M508.95,220.406c-0.317-0.01-0.633-0.026-0.947-0.049c-0.006,0-0.01,0-0.01,0h0.001
							c-6.194-0.452-11.488-3.4-12.705-8.239c-0.012-0.047-0.021-0.092-0.032-0.139c-5.719,3.27-9.092,8.097-8.882,13.177
							c0.596,14.41,11.283,17.42,25.824,16.818c4.658-0.193,8.834-1.124,12.298-2.693
							C530.202,222.981,513.235,220.717,508.95,220.406z"/>
					</g>
				</g>
				<g>
					<g>
						<path fill="#ECABF4" d="M522.042,208.909c1.443-2.312,2.552-5.002,3.008-8.103c1.479-10.048-6.537-17.091-11.052-20.202
							c-1.727-0.765-3.573-1.341-5.528-1.686c0,0,4.974,5.933-0.572,13.222c-5.518,7.254-14.895,10.474-12.641,19.838
							c4.115-2.353,9.445-3.898,15.529-4.15C515.134,207.649,518.881,208.044,522.042,208.909z"/>
					</g>
				</g>
				<g>
					<g>
						<path fill="#ECABF4" d="M507.994,220.357c0.045-0.018,9.057-3.454,14.048-11.448c-3.161-0.865-6.908-1.26-11.256-1.08
							c-6.084,0.252-11.414,1.798-15.529,4.15c0.012,0.047,0.021,0.092,0.032,0.139C496.506,216.957,501.8,219.905,507.994,220.357z
							"/>
					</g>
				</g>
				<g>
					<g>
						<path fill="#ECABF4" d="M508.95,220.406c-0.548-0.04-0.888-0.048-0.947-0.049C508.317,220.38,508.633,220.396,508.95,220.406z
							"/>
					</g>
				</g>
				<g>
					<g>
						<path fill="#DF97EA" d="M513.998,180.604c4.515,3.111,12.531,10.154,11.052,20.202c-0.456,3.101-1.564,5.791-3.008,8.103
							c-4.991,7.994-14.003,11.431-14.048,11.448c0.003,0,0.006,0,0.009,0c0.06,0.001,0.399,0.009,0.947,0.049
							c5.692,0.176,11.99-1.726,16.531-6.164c0.895-0.874,1.631-1.857,2.222-2.924C532.88,201.974,526.663,186.211,513.998,180.604z
							"/>
					</g>
				</g>
			</g>
			<g opacity="0.53">
				<g>
					
						<ellipse transform="matrix(0.9991 -0.0414 0.0414 0.9991 -8.8303 20.7039)" fill="#F6D6FB" cx="495.894" cy="223.735" rx="6.339" ry="4.773"/>
				</g>
			</g>
			<g opacity="0.53">
				<g>
					<path fill="#F6D6FB" d="M509.606,180.842c0,0,5.097,1.408,3.146,8.393c-1.949,6.984-20.6,16.228-13.917,24.424
						C505.52,221.854,528.61,187.693,509.606,180.842"/>
				</g>
			</g>
		</g>
		<g>
			<g>
				<g>
					<g>
						<g>
							<g>
								<g>
									<g>
										<g>
											<path fill="#FF7A00" d="M374.063,62.547c-2.66,4.627-6.467,8.562-7.484,14.124c-1.386,7.572,3.744,15.777,9.995,16.917
												c6.251,1.14,12.552-4.153,14.682-11.44c2.131-7.287,0.4-15.897-3.67-21.937c-0.296,2.235-0.592,4.471-0.887,6.706
												c-2.525-7.342-4.653-15.316-7.748-22.308c-0.94,2.502-0.688,6.026-1.337,8.797
												C376.849,56.677,375.653,59.781,374.063,62.547z"/>
										</g>
									</g>
								</g>
							</g>
						</g>
					</g>
					<g>
						<g>
							<g>
								<g>
									<g>
										<path fill="#FFB600" d="M381.01,57.534c0,0-5.198,12.737-9.435,18.112c-1.483,1.881-1.548,4.783-0.605,7.479
											c3.168,9.061,13.917,7.695,15.637-1.841C387.555,76.029,387.166,67.929,381.01,57.534z"/>
									</g>
								</g>
							</g>
						</g>
					</g>
				</g>
				<g>
					<g>
						<g>
							<g>
								<g>
									<g>
										<g>
											<g>
												<g>
													<path fill="#FEA7E1" d="M370.429,103.023l24.929-2.229c0.163-0.218,0.238-0.429,0.214-0.63
														c-0.183-1.569-6.262-1.908-13.578-0.757c-7.315,1.151-13.097,3.357-12.913,4.926c0.002,0.021,0.01,0.041,0.014,0.061
														C369.256,103.649,369.774,103.082,370.429,103.023z"/>
												</g>
											</g>
										</g>
									</g>
								</g>
								<g>
									<g>
										<g>
											<g>
												<g>
													<path fill="#FEA7E1" d="M382.66,105.089c6.379-1.004,11.59-2.809,12.698-4.295l-24.929,2.229
														c-0.655,0.059-1.173,0.626-1.333,1.37C369.43,105.909,375.441,106.225,382.66,105.089z"/>
												</g>
											</g>
										</g>
									</g>
								</g>
								<g>
									<g>
										<g>
											<g>
												<g>
													<path fill="#FE9BDC" d="M395.358,100.794c-1.108,1.486-6.319,3.292-12.698,4.295c-7.219,1.136-13.23,0.82-13.564-0.696
														c-0.04,0.185-0.063,0.376-0.055,0.578l0.85,20.533l0.495,11.975l0.688,16.629l0.495,11.975l0.694,16.774l0.502,12.147
														l0.602,14.549l0.503,12.147l0.347,8.396c0.091,2.188,6.09,3.717,13.4,3.414c7.309-0.303,13.162-2.321,13.071-4.509
														l-0.667-16.138l-0.572-13.833l-0.533-12.863l-0.572-13.833l-0.594-14.369l-0.561-13.535l-0.623-15.069l-0.561-13.534
														l-0.621-15.035L395.358,100.794z"/>
												</g>
											</g>
										</g>
									</g>
								</g>
							</g>
							<g>
								<g>
									<g>
										<g>
											<g>
												<g>
													<path fill="#FFBD5C" d="M370.112,130.867l0.496,11.975c10.25-1.204,20.034-5.165,26.181-8.118l-0.56-13.534
														C387.855,126.324,377.773,129.25,370.112,130.867z"/>
												</g>
											</g>
										</g>
									</g>
								</g>
								<g>
									<g>
										<g>
											<g>
												<g>
													<path fill="#FFBD5C" d="M371.791,171.445c10.251-1.204,20.034-5.165,26.18-8.118l-0.559-13.535
														c-8.373,5.135-18.456,8.061-26.117,9.678L371.791,171.445z"/>
												</g>
											</g>
										</g>
									</g>
								</g>
								<g>
									<g>
										<g>
											<g>
												<g>
													<path fill="#FFBD5C" d="M372.987,200.366c10.695-1.635,20.638-6.039,26.152-8.837l-0.572-13.833
														c-8.025,5.472-18.075,8.683-26.082,10.523L372.987,200.366z"/>
												</g>
											</g>
										</g>
									</g>
								</g>
								<g>
									<g>
										<g>
											<g>
												<g>
													<path fill="#FFBD5C" d="M374.091,227.062c10.695-1.635,20.639-6.039,26.151-8.837l-0.572-13.833
														c-8.024,5.471-18.073,8.683-26.081,10.522L374.091,227.062z"/>
												</g>
											</g>
										</g>
									</g>
								</g>
							</g>
						</g>
						<g>
							<g>
								<g>
									<g>
										<g>
											<path fill="#4C3A21" d="M383.936,101.815c0,0-6.03-4.278-3.744-17.426c0,0-0.036,13.117,5.35,17.359
												C385.542,101.749,385.311,102.387,383.936,101.815z"/>
										</g>
									</g>
								</g>
							</g>
						</g>
					</g>
					<g>
						<g>
							<g>
								<g>
									<g>
										<path fill="#FEA7E1" d="M366.748,106.435c-0.193,2.006,0.767,3.922,0.976,5.935c0.204,1.953-0.308,3.889-0.39,5.849
											c-0.082,1.96,0.479,4.26,1.968,4.976c1.893,0.909,3.803-1.364,4.465-3.707c0.661-2.343,0.714-5.014,1.871-7.033
											c0.511-0.893,1.64-1.583,2.224-0.737c0.257,0.372,0.282,0.896,0.347,1.376c0.213,1.561,1.307,3.161,2.56,2.882
											c1.09-0.243,1.649-1.683,2.162-2.891c0.513-1.208,1.445-2.498,2.521-2.129c1.058,0.362,1.41,2.059,2.332,2.805
											c0.822,0.666,1.973,0.397,2.702-0.389c0.729-0.786,1.097-1.977,1.262-3.162c0.082-0.592,0.153-1.264,0.546-1.61
											c0.93-0.817,1.979,1.091,3.122,1.277c1.325,0.215,2.019-1.853,2.13-3.492c0.133-1.964,0.023-4.121-1.007-5.651
											c-1.03-1.529-3.255-1.887-4.115-0.245c-0.416,0.794-0.669,1.07-1.2,1.75c-0.534,0.683-1.762,0.895-2.535,0.91
											c-4.414,0.086-8.234,0.82-12.647,0.907c-0.926,0.018-1.912,0.017-2.706-0.592c-1.021-0.783,2.173-1.256,2.725-2.348
											C373.77,101.619,367.044,103.371,366.748,106.435z"/>
									</g>
								</g>
							</g>
						</g>
					</g>
					<g>
						<g>
							<g>
								<g>
									<g>
										<path fill="#FFB9E7" d="M376.077,107.199c1.572-0.126,3.178,0.733,4.703,0.273c0.663-0.2,1.257-0.638,1.895-0.931
											c1.488-0.685,3.137-0.563,4.718-0.807c1.58-0.243,3.275-1.028,3.951-2.801c-2.893-0.705-5.585,1.906-8.509,2.221
											c-0.985,0.107-1.986-0.051-2.968,0.099c-1.131,0.172-2.191,0.747-3.309,1.015c-1.476,0.354-3.004,0.167-4.507-0.022
											c-0.294-0.037-0.599-0.079-0.853-0.271c-0.704-0.535-0.564-1.954,0.058-2.6c1.28-1.33,3.249-0.309,4.529-1.607
											c-1.743-0.109-6.544,0.512-6.852,3.4C368.41,110.113,374.475,107.327,376.077,107.199z"/>
									</g>
								</g>
							</g>
						</g>
					</g>
				</g>
			</g>
		</g>
		<g opacity="0.81">
			<g>
				<g>
					<path fill="#FFFEFD" d="M377.782,173.804c-0.872,0.088-2.24-10.199-3.057-22.978c-0.816-12.779-0.771-23.21,0.101-23.299
						c0.872-0.088,2.24,10.199,3.056,22.978S378.653,173.715,377.782,173.804z"/>
				</g>
				<g>
					<path fill="#FFFEFD" d="M377.784,174.005c-0.063,0.002-0.153-0.013-0.245-0.092c-1.068-0.905-2.325-12.293-3.014-23.074
						c-0.014-0.233-1.469-23.333,0.281-23.511c0.065-0.008,0.162,0.004,0.263,0.09c1.069,0.906,2.326,12.293,3.014,23.075
						c0.015,0.233,1.47,23.333-0.281,23.511l0,0C377.796,174.004,377.79,174.004,377.784,174.005z M374.832,127.742
						c-0.526,0.588-0.814,8.849,0.094,23.071c0.893,13.979,2.201,22.069,2.838,22.763c0.546-0.771,0.817-9.004-0.081-23.058
						C376.784,136.442,375.463,128.337,374.832,127.742z"/>
				</g>
			</g>
		</g>
		<g>
			<g>
				<path fill="#B7A179" d="M521.958,289.098c-1.308,3.283-7.569,5.75-13.328,3.118c-5.759-2.633-8.953-5.149-13.289-3.204
					c-4.335,1.946-56.677,1.573-60.751-0.853c-4.075-2.427-29.562-2.035-39.377-3.174c-9.816-1.14-25.217,2.352-39.516-0.141
					c-14.299-2.49-30.324-5.581-44.43-4.997c-14.106,0.583-14.858-1.576-24.575-1.624c-9.716-0.049-26.038-1.581-28.475-0.818
					l1.008,17.812l-0.263,0.208c0,0-1.014,3.132,3.455,4.41s5.774-4.517,10.53-1.622c4.756,2.894,10.467,7.515,15.832,3.761
					c5.364-3.755,18.368-4.293,20.645-2.621c2.277,1.672,14.594,4.629,18.859,2.222c4.266-2.407,11.75,1.148,16.11,5.163
					c4.361,4.015,9.703,1.497,15.585-2.189c5.882-3.688,8.596-0.355,14.17,0.959c5.574,1.314,7.506-3.844,12.294-3.6
					c4.788,0.243,7.851,3.318,11.141,2.243c3.29-1.074,2.735-1.897,6.413-1.351s6.36,2.699,8.641,1.776
					c2.28-0.922,2.6-1.736,5.072-1.079c2.472,0.657,17.142,12.354,23.579,7.868c6.438-4.487,10.481-2.838,18.074-0.748
					c7.593,2.089,14.911-0.031,16.763-2.043c1.852-2.013,10.496-0.825,12.772,0.821s10.384-1.751,15.189-1.506
					c4.807,0.244,9.596,2.884,12.498,3.646c2.901,0.764,15.209-2.238,15.209-2.238l1.207-22.064
					C533.002,287.233,523.267,285.814,521.958,289.098z"/>
			</g>
		</g>
	</g>
</g>
</svg>
