<svg version="1.1" id="Layer_1" xmlns="http://www.w3.org/2000/svg" xmlns:xlink="http://www.w3.org/1999/xlink" viewBox="0 0 768 430" enable-background="new 0 0 768 430" xml:space="preserve">
<g>
	<path fill="#F2F2F2" d="M490.624,337.45l-28.621-0.924l1.53-23.077l28.944,0.942l0.445,0.004c7.187,0,13.56-6.092,14.173-13.581
		l4.151-50.612c0.334-4.027-0.942-7.985-3.505-10.861c-2.388-2.671-5.657-4.207-9.203-4.322l-29.751-0.96l1.65-25.023l30.104,0.974
		c9.46,0.305,18.145,4.41,24.46,11.557c6.851,7.745,10.208,18.42,9.217,29.296l-4.604,50.594
		c-1.842,20.195-18.476,36.017-37.869,36.017C491.372,337.472,491,337.466,490.624,337.45z"/>
	<path fill="#F2F2F2" d="M442.198,373.659v0.238c-0.135,3.482-4.915,8.603-15.089,12.868c-10.206,4.235-25.876,7.613-47.793,7.613
		c-43.899,0-62.572-13.518-62.879-20.481v-0.238c14.474,4.3,34.649,6.827,62.879,6.827
		C407.55,380.486,427.725,377.959,442.198,373.659z"/>
	<ellipse fill="#FFFFFF" cx="379.317" cy="194.561" rx="108.102" ry="25.603"/>
	<path fill="#F2F2F2" d="M379.316,220.164c-56.79,0-103.318-10.375-107.726-23.557c0.002,0.099-0.016,0.189-0.01,0.288
		l7.543,129.072c1.639,27.688,8.16,54.519,100.192,54.519c92.034,0,98.556-26.831,100.192-54.519l7.547-129.072
		c0.006-0.1-0.014-0.193-0.011-0.292C482.647,209.788,436.114,220.164,379.316,220.164z"/>
	<path fill="#A9BF4F" d="M379.316,213.336c-62.968,0-99.409-12.301-101.287-18.896c1.878-6.354,38.318-18.656,101.287-18.656
		c62.97,0,99.411,12.302,101.288,18.898C478.728,201.035,442.286,213.336,379.316,213.336z"/>
	<path fill="#F2F2F2" d="M283.752,199.195c12.687-6.354,45.849-14.022,95.564-14.022c49.72,0,82.881,7.667,95.568,14.141
		c3.381-1.694,5.324-3.295,5.72-4.631c-1.877-6.596-38.318-18.898-101.288-18.898c-62.968,0-99.409,12.302-101.287,18.656
		C278.425,195.828,280.371,197.469,283.752,199.195z"/>
	<path fill="#E6E6E6" d="M316.419,373.667v0.239c0.053,1.246,0.743,2.706,2.016,4.272c14.328,3.953,33.884,6.288,60.868,6.288
		s46.566-2.335,60.869-6.288c1.299-1.566,1.963-3.026,2.016-4.272v-0.239c32.663-9.736,36.139-28.496,37.279-47.708l7.563-129.057
		c0-0.106,0.025-0.239,0.025-0.345c-1.911,5.838-12.047,11.117-27.646,15.204l-6.661,114.198
		c-1.566,26.271-7.562,51.715-86.632,54.316h-0.212C344.544,379.584,328.492,377.249,316.419,373.667z"/>
</g>
<path opacity="0.1" fill="#FFFFFF" d="M436.837,40.199c0,0-49.118,2.739-45.332,31.044c3.789,28.304,48.073,13.239,36.202,45.197
	c-11.869,31.956-26.751,34.239-36.202,46.565c-9.451,12.327-20.863,35.021-16.298,40.336c0,0-18.718,5.317,0-41.705
	c18.718-47.023,19.857-44.74-7.646-70.763c-27.507-26.021-30.245-37.892,2.168-45.652"/>
<g>
	<g>
		<path fill="#CCCCCC" d="M449.697,355.526c-0.112-0.281-11.03-28.647-15.243-79.214c-1.978-23.719,7.219-48.682,15.332-70.707
			c9.292-25.228,17.317-47.012,5.008-58.058c-22.933-20.585-56.984-1.746-57.324-1.558l-0.898-1.584
			c0.354-0.202,35.543-19.659,59.441,1.784c13.228,11.873,5.003,34.199-4.517,60.046c-8.049,21.846-17.171,46.608-15.229,69.924
			c4.191,50.305,15.017,78.424,15.124,78.701L449.697,355.526z"/>
	</g>
	<g>
		<path fill="#8D9B3B" d="M471.55,378.523l-4.278-29.558c-0.373-2.58-2.767-4.367-5.347-3.995l-29.557,4.278
			c-2.579,0.374-4.367,2.767-3.996,5.346l4.279,29.557c0.372,2.581,2.767,4.367,5.346,3.996l29.557-4.278
			C470.135,383.496,471.922,381.103,471.55,378.523z"/>
		<path fill="#E4EAB0" d="M456.227,350.354l-0.015-0.08c-0.011,0.136,0.802,2.166-5.583,5.36
			c-6.607,3.308-11.731,6.126-9.119,14.582c0.529-1.204,2.134-4.941,6.808-6.948c-9.646,9.158-5.821,19.575-5.821,19.575
			s-0.469-6.348,2.451-8.813C467.669,370.636,456.227,350.354,456.227,350.354z"/>
	</g>
	<g>
		<polygon fill="#F2F2F2" points="433.441,173.253 424.599,204.155 337.746,204.155 353.148,150.294 371.248,136.106 
			398.408,143.881 425.594,151.655 		"/>
		<polygon fill="#8D9B3B" points="406.716,204.155 344.693,204.155 349.382,187.756 		"/>
	</g>
</g>
</svg>
