<svg version="1.1" id="Layer_2" xmlns="http://www.w3.org/2000/svg" xmlns:xlink="http://www.w3.org/1999/xlink" viewBox="0 0 768 430" enable-background="new 0 0 768 430" xml:space="preserve">
<g>
	<g>
		<g>
			<path fill="#F49700" d="M333.982,252.689c-1.319,9.412-5.973,34.804-15.28,47.907c4.856,9.862,26.304,12.058,26.304,12.058
				s13.152-31.938,12.949-43.471C348.648,259.068,333.982,252.689,333.982,252.689z"/>
			<path fill="#FE9900" d="M333.71,254.543c-1.621,10.551-6.256,33.732-15.008,46.054c2.429,4.934,9.012,7.951,14.983,9.729
				c3.104-5.668,4.9-11.938,6.897-18.218C344.881,278.854,339.975,265.93,333.71,254.543z"/>
			<path fill="#FFE89E" d="M333.388,256.555c-1.864,11.257-6.454,32.451-14.687,44.042c0.377,0.766,1.279,2.153,1.841,2.83
				C329.319,288.691,334.421,272.928,333.388,256.555z"/>
			<g>
				<g>
					<path fill="#3D0000" d="M347.097,267.768c-2.114-2.748-9.11-6.654-14.183-8.475c-0.396,2.188-0.874,4.634-1.444,7.227
						C335.202,266.291,342.828,266.08,347.097,267.768z"/>
				</g>
				<g>
					<path fill="#550101" d="M332.914,259.293c-0.396,2.188-0.874,4.634-1.444,7.227c2.007-0.121,5.136-0.241,8.266-0.062
						c-0.449-1.788-1.168-3.516-2.063-5.121C336.035,260.531,334.394,259.824,332.914,259.293z"/>
				</g>
				<g>
					<path fill="#A14949" d="M333.507,259.518c-0.197-0.075-0.399-0.159-0.593-0.225c-0.396,2.188-0.874,4.634-1.444,7.227
						c0.526-0.028,1.128-0.062,1.787-0.088C333.458,264.139,333.545,261.828,333.507,259.518z"/>
				</g>
			</g>
			<g>
				<path fill="#3D0000" d="M348.85,287.19c-7.913-3.337-14.921-11.449-18.446-16.065c-1.095,4.467-2.432,9.179-4.034,13.701
					C334.26,287.411,344.939,288.333,348.85,287.19z"/>
			</g>
			<g>
				<path fill="#550101" d="M330.404,271.125c-1.095,4.467-2.432,9.179-4.034,13.701c4.744,1.554,10.649,2.519,15.331,2.78
					c0.194-1.151,0.377-2.988,0.494-4.367C337.078,279.39,332.916,274.415,330.404,271.125z"/>
			</g>
			<g>
				<path fill="#A14949" d="M330.404,271.125c-1.095,4.467-2.432,9.179-4.034,13.701c0.805,0.267,1.644,0.512,2.502,0.739
					c1.458-3.936,2.605-7.979,3.395-12.089C331.576,272.633,330.949,271.84,330.404,271.125z"/>
			</g>
			<path fill="#722D00" d="M345.255,313.067l-0.29-0.028c-0.885-0.091-21.72-2.326-26.613-12.271l-0.104-0.208l0.135-0.192
				c10.316-14.524,14.74-44.38,15.212-47.733l0.07-0.51l0.472,0.207c0.148,0.062,14.848,6.525,24.104,16.589l0.1,0.109l0.004,0.149
				c0.202,11.479-12.442,42.314-12.979,43.619L345.255,313.067z M319.156,300.626c4.586,8.781,23.058,11.3,25.6,11.603
				c1.27-3.125,12.889-32.016,12.811-42.892c-8.22-8.872-20.707-14.897-23.271-16.078
				C333.353,259.787,328.982,286.604,319.156,300.626z"/>
		</g>
	</g>
	<g>
		<g>
			<path fill="#E5DBAC" d="M307.321,322.711c-4.679,0-7.536-2.29-6.732-6.58c0.615-3.281,7.768-15.954,12.06-17.426
				c4.7-1.607,5.988,1.339,5.988,2.37C316.313,303.71,307.321,322.711,307.321,322.711z"/>
			<path fill="#F9FFFF" d="M312.648,298.705c-3.934,1.348-10.265,12.099-11.771,16.413c1.744,2.73,5.396,3.37,8.806,2.68
				c2.834-5.822,7.395-14.956,8.954-16.723C318.637,300.044,317.349,297.098,312.648,298.705z"/>
			<path fill="#8E7949" d="M307.566,323.102h-0.245c-2.789,0-4.908-0.777-6.13-2.253c-1.005-1.214-1.348-2.868-0.986-4.792
				c0.64-3.421,7.93-16.215,12.319-17.721c0.954-0.322,1.837-0.49,2.625-0.49c2.903,0,3.88,2.216,3.88,3.229v0.146l-0.098,0.111
				c-2.261,2.565-11.167,21.357-11.257,21.544L307.566,323.102z M315.148,298.628c-0.702,0-1.5,0.149-2.373,0.447
				c-4.083,1.397-11.198,13.897-11.805,17.126c-0.32,1.712-0.043,3.105,0.821,4.148c1.035,1.247,2.857,1.924,5.282,1.97
				c1.053-2.22,8.804-18.468,11.162-21.377C318.153,300.307,317.506,298.628,315.148,298.628z"/>
		</g>
		<g>
			<path fill="#E5DBAC" d="M324.037,302.126c-3.763-3.836-8.051-1.865-11.029,1.75c-2.173,2.641-8.667,14.312-5.271,19.628
				c3.395,5.315,12.866,0.848,12.866,0.848L324.037,302.126z"/>
			<path fill="#F9FFFF" d="M313.008,303.876c-1.519,1.846-5.147,8.104-6.034,13.52c2.641,5.091,10.244,2.899,14.771-0.437
				l2.292-14.833C320.274,298.29,315.986,300.261,313.008,303.876z"/>
			<path fill="#8E7949" d="M313.264,326.496L313.264,326.496c-2.706,0-4.678-0.936-5.857-2.785
				c-3.435-5.373,2.838-17.096,5.3-20.084c2.111-2.564,4.555-3.978,6.88-3.978c1.705,0,3.295,0.739,4.73,2.208l0.136,0.137
				l-3.497,22.619l-0.187,0.093C320.613,324.775,316.925,326.496,313.264,326.496z M319.586,300.431
				c-2.086,0-4.316,1.31-6.277,3.695c-2.297,2.785-8.416,14.205-5.245,19.166c1.027,1.608,2.776,2.424,5.199,2.424l0,0
				c3.033,0,6.193-1.289,6.985-1.635l3.371-21.816C322.377,301.046,321.018,300.431,319.586,300.431z"/>
		</g>
		<g>
			<path fill="#E5DBAC" d="M329.328,326.047c-4.526,2.739-9.529,2.623-11.316-0.715c-1.436-2.676-1.192-21.323,7.505-23.825
				c8.696-2.502,14.415,6.654,14.415,6.654C338.384,309.37,329.328,326.047,329.328,326.047z"/>
			<path fill="#F9FFFF" d="M339.931,308.161c0,0-5.718-9.156-14.415-6.654c-5.839,1.68-7.867,10.636-8.135,17.151
				c0.493,1.068,1.261,1.979,2.51,2.73c4.756,2.077,9.286-0.141,13.418-2.527C335.95,314.183,339.079,308.825,339.931,308.161z"/>
			<path fill="#8E7949" d="M323.066,328.37c-2.497,0-4.415-1.014-5.4-2.854c-1.003-1.876-1.29-11.205,1.55-17.935
				c1.489-3.527,3.572-5.697,6.192-6.449c1.033-0.299,2.081-0.448,3.109-0.448c7.123,0,11.56,6.974,11.747,7.273l0.185,0.294
				l-0.276,0.22c-1.091,0.849-6.875,11.089-10.501,17.762l-0.05,0.093l-0.09,0.054C327.412,327.664,325.118,328.37,323.066,328.37z
				 M328.518,301.466c-0.956,0-1.931,0.138-2.893,0.415c-2.383,0.687-4.296,2.705-5.689,6.006
				c-2.705,6.412-2.506,15.535-1.581,17.263c0.844,1.572,2.516,2.44,4.712,2.44c1.881,0,3.999-0.645,5.97-1.821
				c1.089-2.007,8.37-15.351,10.392-17.653C338.562,306.865,334.46,301.466,328.518,301.466z"/>
		</g>
	</g>
	<g>
		<g>
			<path fill="#F9FFFF" d="M382.512,312.474c-5.104-1.993-7.543-4.608-6.48-7.966c1.059-3.357,4.966-12.031,10.052-13.515
				c5.089-1.483,11.417,3.357,15.046,2.854C400.624,296.101,382.512,312.474,382.512,312.474z"/>
			<path d="M382.595,312.927l-0.225-0.087c-5.54-2.168-7.799-5.012-6.712-8.448c0.97-3.075,4.95-12.21,10.318-13.771
				c0.68-0.199,1.424-0.305,2.207-0.305c2.429,0,5.009,0.96,7.286,1.804c1.907,0.706,3.706,1.376,5.1,1.376
				c0.178,0,0.349-0.013,0.506-0.034l0.56-0.079l-0.125,0.55c-0.515,2.31-16.873,17.15-18.736,18.834L382.595,312.927z
				 M388.184,291.097c-0.71,0-1.379,0.092-1.989,0.271c-5.042,1.471-8.854,10.285-9.792,13.257
				c-0.939,2.976,1.033,5.398,6.028,7.397c6.681-6.042,16.324-15.151,18.055-17.746c-1.515-0.025-3.348-0.705-5.286-1.425
				C392.874,291.99,390.473,291.097,388.184,291.097z"/>
		</g>
		<g>
			<path fill="#E5DBAC" d="M385.246,315.675c-5.103-2-7.542-4.608-6.483-7.967c1.062-3.358,4.966-12.03,10.055-13.519
				c5.088-1.483,11.416,2.363,15.046,1.861C403.356,298.308,385.246,315.675,385.246,315.675z"/>
			<path fill="#8E7949" d="M385.336,316.128l-0.23-0.089c-5.54-2.168-7.798-5.011-6.714-8.452
				c0.973-3.075,4.951-12.205,10.319-13.772c0.824-0.241,1.705-0.356,2.685-0.356c2.302,0,4.731,0.673,6.874,1.267
				c1.815,0.508,3.53,0.981,4.889,0.981c0.233,0,0.453-0.014,0.653-0.041l0.557-0.076l-0.121,0.548
				c-0.515,2.305-16.868,18.033-18.73,19.82L385.336,316.128z M391.395,294.238c-0.906,0-1.712,0.109-2.467,0.329
				c-5.041,1.467-8.854,10.285-9.791,13.256c-0.939,2.972,1.028,5.396,6.019,7.398c6.686-6.42,16.335-16.059,18.064-18.734
				c-0.021,0-0.042,0-0.063,0c-1.464,0-3.229-0.491-5.097-1.005C395.862,294.87,393.591,294.238,391.395,294.238z"/>
		</g>
		<g>
			<path fill="#E5DBAC" d="M427.36,314.345c-9.104,3.204-27.552,7.552-39.479,3.15c-5.09-2.494-7.408-7.751,0.636-17.442
				c4.242-5.107,12.847-5.133,16.872-1.164C416.082,309.437,427.36,314.345,427.36,314.345z"/>
			<path fill="#8E7949" d="M400.104,319.751c-4.801,0-8.958-0.636-12.357-1.89l-0.035-0.018c-2.623-1.279-4.198-3.089-4.688-5.37
				c-0.725-3.382,1.023-7.642,5.195-12.671c2.186-2.63,5.626-4.143,9.443-4.143c3.187,0,6.099,1.076,8.003,2.95
				c10.518,10.378,21.737,15.327,21.851,15.377l0.91,0.395l-0.935,0.329C420.567,317.149,409.736,319.751,400.104,319.751z
				 M388.035,317.133c3.308,1.218,7.368,1.838,12.068,1.838c9.122,0,19.341-2.36,26.219-4.68
				c-2.876-1.397-12.302-6.337-21.207-15.124c-1.759-1.733-4.472-2.726-7.454-2.726c-3.581,0-6.806,1.408-8.843,3.86
				c-4.01,4.834-5.704,8.873-5.031,12.011C384.222,314.34,385.652,315.962,388.035,317.133z"/>
		</g>
	</g>
	<g>
		<g>
			<path fill="#E5DBAC" d="M387.738,332.144c-6.266-2.451-9.258-5.66-7.957-9.781c1.301-4.119,6.098-14.767,12.343-16.591
				c6.246-1.819,14.014,4.125,18.469,3.507C409.974,312.046,387.738,332.144,387.738,332.144z"/>
			<path fill="#F9FFFF" d="M385.047,321.546c0.024-0.055,0.039-0.107,0.039-0.157C385.074,321.438,385.059,321.491,385.047,321.546z
				"/>
			<path fill="#F9FFFF" d="M410.593,309.278c-4.455,0.618-12.223-5.326-18.469-3.507c-5.618,1.642-10.061,10.419-11.843,15.163
				c0.712,1.41,2.271,2.1,4.415,1.623c-0.336-0.339,0.197-0.674,0.352-1.012c0.012-0.055,0.027-0.107,0.039-0.157
				c0,0.05-0.015,0.103-0.039,0.157c-0.377,1.51-0.715,3.018,0.039,4.526c1.172,1.949,2.732,0.391,3.904-0.781
				c-0.561,1.866,0.132,3.375,1.344,4.483C396.218,324.377,410.103,311.456,410.593,309.278z"/>
			<path fill="#8E7949" d="M387.82,332.597l-0.225-0.087c-6.749-2.644-9.502-6.097-8.186-10.265
				c1.186-3.766,6.052-14.936,12.604-16.848c0.828-0.241,1.73-0.362,2.687-0.362c2.963,0,6.124,1.173,8.914,2.207
				c2.35,0.869,4.564,1.691,6.288,1.691c0.224,0,0.437-0.013,0.636-0.041l0.558-0.08l-0.126,0.554
				c-0.627,2.805-20.685,21-22.97,23.068L387.82,332.597z M394.7,305.817c-0.881,0-1.712,0.112-2.469,0.332
				c-6.224,1.812-10.923,12.671-12.078,16.332c-1.158,3.662,1.368,6.762,7.503,9.209c8.308-7.518,20.385-18.925,22.305-21.976
				c-0.021,0-0.041,0-0.059,0c-1.865,0-4.146-0.849-6.562-1.742C400.48,306.911,397.525,305.817,394.7,305.817z"/>
		</g>
		<g>
			<path fill="#E5DBAC" d="M391.512,335.394c-6.266-2.452-9.26-5.659-7.957-9.782c1.301-4.123,6.095-14.766,12.341-16.591
				c6.246-1.82,14.011,2.905,18.466,2.287C413.742,314.075,391.512,335.394,391.512,335.394z"/>
			<path fill="#F9FFFF" d="M414.361,311.308c-4.455,0.618-12.22-4.107-18.466-2.287c-4.852,1.417-8.827,8.154-10.97,13.024
				c-0.315,1.342-0.511,2.685,0.16,4.027c1.172,1.949,2.732,0.391,3.904-0.781c-1.154,3.848,3.006,6.18,6.115,6.616
				C401.425,325.743,413.9,313.368,414.361,311.308z"/>
			<path fill="#8E7949" d="M391.601,335.847l-0.233-0.092c-6.749-2.639-9.501-6.092-8.186-10.26
				c1.188-3.767,6.055-14.937,12.604-16.849c1.008-0.294,2.078-0.436,3.272-0.436c2.812,0,5.787,0.826,8.413,1.554
				c2.236,0.624,4.348,1.21,6.026,1.21c0.288,0,0.562-0.021,0.811-0.054l0.562-0.08l-0.126,0.548
				c-0.626,2.803-20.679,22.094-22.962,24.287L391.601,335.847z M399.058,308.992c-1.119,0-2.119,0.133-3.052,0.403
				c-6.226,1.815-10.924,12.675-12.079,16.333c-1.157,3.664,1.365,6.761,7.495,9.208c8.312-7.975,20.393-20.051,22.312-23.185
				c-1.812,0.05-4.081-0.571-6.471-1.235C404.559,309.77,401.766,308.992,399.058,308.992z"/>
		</g>
	</g>
	<g>
		<path fill="#EE6500" d="M390.163,167.963c1.56,15.615,3.773,29.67,16.785,36.698s54.266,15.223,60.122,49.969
			c5.855,33.575,3.901,37.478,9.629,44.504c-2.603,6.247-23.946,29.411-29.149,29.931c-24.727-14.408-59.092-26.547-85.757-52.576
			c-9.889-2.858-36.827-18.605-32.216-54.262c1.691-13.073,10.485-19.91,8.923-36.826"/>
		<path fill="#FE9900" d="M474.828,296.496c-4.098-3.387-4.861-9.533-6.199-14.538c-6.247-24.203-14.051-52.702-40.208-59.731
			c-13.273-3.511-25.767-8.977-34.356-19.129c-2.736-3.368-4.674-6.711-6.435-10.375c-2.901-0.584-5.756-1.491-8.399-2.509
			c-3.514-1.169-7.806-0.779-11.32,0.391c-9.329,2.873-21.625,9.037-29.312,1.229c-0.821,12.471-7.562,19.114-9.021,30.393
			c-4.611,35.656,22.327,51.403,32.216,54.262c24.767,24.176,56.172,36.373,80.33,49.53c2.704-3.512,3.864-8.561,3.474-13.611
			c3.279,4.842,7.938,7.057,13.141,8.251c7.668-7.436,16.361-17.68,17.962-21.524C475.96,298.224,475.348,297.369,474.828,296.496z"
			/>
		<g>
			<path fill="#3D0000" d="M410.538,257.755c0,0,1.288,2.341,5.585,3.121c7.419-23.131,20.909-34.876,27.3-39.359
				c-4.758-3.059-9.762-5.564-14.562-7.696C414.383,228.514,410.538,257.755,410.538,257.755z"/>
		</g>
		<g>
			<path fill="#550101" d="M423.359,220.772c-9.981,15.397-12.821,36.982-12.821,36.982s1.288,2.341,5.585,3.121
				c5.644-17.601,14.8-28.6,21.674-34.834c-2.839-1.599-5.947-2.893-9.376-3.815C426.717,221.778,425.025,221.291,423.359,220.772z"
				/>
		</g>
		<g>
			<path fill="#3D0000" d="M425.1,264.193c16.445-9.708,33.052-10.852,41.771-10.627c-1.438-7.465-4.525-13.678-8.606-18.901
				C436.882,241.527,425.1,264.193,425.1,264.193z"/>
		</g>
		<g>
			<path fill="#550101" d="M425.1,264.193c12.722-7.511,25.534-9.896,34.723-10.485c-2.406-5.761-5.287-11.196-8.877-15.934
				C434.21,246.671,425.1,264.193,425.1,264.193z"/>
		</g>
		<g>
			<path fill="#3D0000" d="M472.53,290.138c-22.487,7.223-24.589,24.938-24.589,24.938c12.699-11.191,22.67-14.2,28.242-14.906
				c0.212-0.383,0.387-0.731,0.516-1.036C474.413,296.334,473.353,294.026,472.53,290.138z"/>
		</g>
		<g>
			<path fill="#550101" d="M470.989,290.664c-21.041,7.515-23.048,24.412-23.048,24.412c12.699-11.191,22.67-14.2,28.242-14.906
				c0.212-0.383,0.387-0.731,0.516-1.036c-0.739-0.905-1.352-1.763-1.867-2.638C473.004,294.987,471.837,292.93,470.989,290.664z"/>
		</g>
		<path fill="#722D00" d="M447.463,329.464l-0.113-0.063c-7.047-4.109-14.855-8.017-23.117-12.154
			c-20.422-10.224-43.564-21.813-62.641-40.407c-5.562-1.635-14.529-6.508-21.641-14.929c-9.02-10.676-12.74-24.414-10.759-39.732
			c0.683-5.283,2.545-9.629,4.347-13.837c2.706-6.317,5.503-12.85,4.574-22.905l0.777-0.071c0.948,10.253-1.889,16.876-4.634,23.284
			c-1.862,4.349-3.619,8.454-4.289,13.629c-1.953,15.094,1.706,28.624,10.581,39.127c7.042,8.336,15.905,13.137,21.354,14.711
			l0.095,0.029l0.069,0.067c19.004,18.551,42.12,30.124,62.516,40.335c8.229,4.122,16.008,8.017,23.049,12.114
			c2.264-0.382,8.186-5.318,15.188-12.683c6.592-6.933,12.048-13.76,13.428-16.781c-3.699-4.613-4.169-8.063-5.677-19.154
			c-0.795-5.848-1.884-13.859-3.886-25.347c-4.671-27.703-31.601-38.237-49.426-45.204c-4.247-1.662-7.917-3.097-10.493-4.489
			c-12.992-7.015-15.383-20.907-16.991-37.001l0.777-0.077c1.586,15.867,3.93,29.559,16.584,36.391
			c2.535,1.369,6.184,2.795,10.411,4.448c8.901,3.48,19.984,7.816,29.681,14.879c11.519,8.396,18.136,18.511,20.226,30.92
			c2.007,11.5,3.097,19.521,3.895,25.376c1.542,11.356,1.957,14.411,5.655,18.949l0.146,0.18l-0.088,0.217
			c-1.245,2.985-6.869,10.072-13.675,17.229c-2.803,2.946-12.216,12.579-15.797,12.937L447.463,329.464z"/>
	</g>
	<g>
		<path fill="#EE6500" d="M408.81,310.492c0.091,2.045,11.54,27.162,32.104,23.908c8.685-2.377,11.839-5.465,8.456-16.137"/>
		<path fill="#FE9900" d="M408.81,310.492c0.066,1.442,5.78,14.362,16.362,20.709c6.062-0.559,12.824-0.021,16.913-5.129
			c1.916-2.468,3.063-5.701,3.44-9.168l-12.812-4.529L408.81,310.492z"/>
		<path fill="#722D00" d="M437.248,335.082c-5.606,0-10.955-2.058-15.95-6.139c-8.315-6.789-12.816-17.047-12.879-18.436
			l0.781-0.031c0.058,1.275,4.608,11.341,12.593,17.864c5.904,4.824,12.312,6.732,19.037,5.677c4.934-1.35,7.438-2.806,8.641-5.016
			c1.263-2.323,1.121-5.603-0.47-10.622c0,0,3.623,6.26,1.154,10.996c-1.275,2.444-3.964,3.984-9.139,5.399l-0.045,0.008
			C439.721,334.983,438.479,335.082,437.248,335.082z"/>
	</g>
	<g>
		<path fill="#E5DBAC" d="M442.597,333.905c-11.176,3.932-33.82,8.31-48.46,2.905c-6.244-3.058-9.095-9.513,0.782-21.407
			c5.206-6.274,15.77-6.303,20.706-1.429C428.753,326.921,442.597,333.905,442.597,333.905z"/>
		<path fill="#F9FFFF" d="M395.236,331.927c14.346,3.92,25.571,2.146,41.468-1.42c-5.254-3.271-13.291-8.852-21.079-16.532
			c-4.937-4.874-15.5-4.846-20.706,1.429c-3.402,4.099-5.292,7.549-6.058,10.44C388.234,329.413,392.347,331.138,395.236,331.927z"
			/>
		<path fill="#8E7949" d="M410.801,339.724c-6.57,0-12.221-0.856-16.798-2.548l-0.038-0.012c-3.189-1.562-5.109-3.761-5.704-6.533
			c-0.883-4.122,1.256-9.329,6.357-15.476c2.666-3.213,6.867-5.055,11.527-5.055c3.881,0,7.439,1.31,9.754,3.596
			c12.933,12.754,26.734,19.79,26.871,19.859l0.818,0.413l-0.863,0.303C435.577,336.785,422.932,339.724,410.801,339.724z
			 M394.291,336.454c4.486,1.649,10.043,2.489,16.51,2.489c11.564,0,23.604-2.693,30.818-5.117
			c-3.149-1.704-15.04-8.502-26.269-19.573c-2.169-2.144-5.526-3.369-9.205-3.369c-4.428,0-8.409,1.735-10.927,4.77
			c-4.942,5.951-7.025,10.938-6.193,14.815C389.566,332.987,391.337,335.003,394.291,336.454z"/>
	</g>
	<g>
		<path fill="#EE6500" d="M450.414,327.672c12.23-0.433,37.604-0.433,39.688,8.159c2.082,8.589-35.467,15.06-46.038,19.715
			c-12.26,5.397-16.296,12.167-14.309,17.37c2.494,6.529,15.647,8.396,32.433,5.856c16.789-2.535,53.774-12.298,57.974-34.548
			c3.707-19.652-5.661-28.695-17.858-33.732c-14.359-5.93-21.569-8.623-25.604-11.358"/>
		<path fill="#FE9900" d="M512.742,322.558c-4.684-8.978-14.051-14.052-24.204-17.177c-0.391-0.392-1.948-1.173-2.729-1.563
			c-0.158-0.104-0.312-0.216-0.466-0.327c-3.948-1.696-6.674-3.021-8.644-4.356l-19.479,21.146
			c8.133,2.248,17.869,1.487,25.854,4.229c4.962,1.908,9.541,7.544,6.832,13.267c-0.025,0.058-0.059,0.116-0.087,0.179
			c-0.038,0.069-0.067,0.146-0.108,0.22c-0.055,0.108-0.121,0.208-0.2,0.303c-4.948,7.286-35.988,12.904-45.447,17.069
			c-10.29,4.533-14.782,10.027-14.786,14.753c2.293,1.371,4.85,2.311,7.729,2.617c24.208,3.517,47.63-3.512,67.932-18.738
			C515.086,346.76,518.603,333.491,512.742,322.558z"/>
		<path fill="#FFE89E" d="M488.56,339.574c-7.099,6.757-35.52,12.019-44.496,15.972c-4.949,2.181-8.557,4.584-10.968,7.019
			c13.498-7.182,28.671-10.298,44.123-14.242C482.404,346.938,487.238,343.186,488.56,339.574z"/>
		<path fill="#FE9900" d="M489.819,337.954c-0.089,0.174-0.188,0.349-0.309,0.522c0.079-0.095,0.146-0.194,0.2-0.303
			C489.752,338.1,489.781,338.023,489.819,337.954z"/>
		<g>
			<path fill="#3D0000" d="M520.638,331.296c-1.267-8.378-5.93-13.859-12.103-17.661c-14.374,3.12-21.102,13.709-23.109,17.542
				c2.257,1.055,3.869,2.404,4.505,4.112C503.981,326.628,515.157,329.04,520.638,331.296z"/>
		</g>
		<g>
			<path fill="#550101" d="M512.742,322.558c-1.687-3.238-3.99-5.969-6.716-8.283c-9.475,2.796-15.253,8.86-18.352,13.243
				c2.048,2.167,2.789,5.18,2.252,7.76c0,0.006,0.004,0.009,0.004,0.012c10.377-6.395,19.184-6.753,25.287-5.593
				C514.791,327.265,513.977,324.859,512.742,322.558z"/>
		</g>
		<g>
			<path fill="#3D0000" d="M489.839,337.912c-0.905,1.87-3.565,3.633-7.209,5.286c5.756,2.369,15.43,8.627,16.427,24.137
				c6.047-3.139,11.5-6.973,15.397-11.6C512.09,350.275,505.64,340.155,489.839,337.912z"/>
		</g>
		<g>
			<path fill="#550101" d="M510.327,348.93c-3.807-4.705-10.141-9.546-20.488-11.018c-0.905,1.87-3.565,3.633-7.209,5.286
				c4.629,1.903,11.79,6.329,14.935,16.058c2.499-1.574,4.958-3.267,7.373-5.078C507.023,352.652,508.823,350.878,510.327,348.93z"
				/>
		</g>
		<g>
			<path fill="#A14949" d="M488.56,339.574c-1.325,1.259-3.387,2.468-5.93,3.624c0.73,0.299,1.521,0.661,2.348,1.098
				C486.444,342.982,487.653,341.411,488.56,339.574z"/>
		</g>
		<g>
			<path fill="#3D0000" d="M474.43,346.323c-3.786,1.255-7.888,2.444-11.882,3.562c3.999,4.434,9.181,12.967,8.803,27.146
				c4.122-0.93,8.669-2.147,13.285-3.69C485.202,365.928,483.983,354.972,474.43,346.323z"/>
		</g>
		<g>
			<path fill="#550101" d="M474.43,346.323c-3.786,1.255-7.888,2.444-11.882,3.562c3.388,3.758,7.622,10.452,8.607,21.033
				c4.538-1.205,9.001-2.78,13.37-4.705C483.813,359.821,481.237,352.486,474.43,346.323z"/>
		</g>
		<g>
			<path fill="#A14949" d="M474.43,346.323c-3.786,1.255-7.888,2.444-11.882,3.562c0.475,0.524,0.965,1.109,1.459,1.75
				c4.156-1.06,8.361-2.078,12.592-3.154C475.93,347.749,475.212,347.025,474.43,346.323z"/>
		</g>
		<path fill="#722D00" d="M448.876,380.26c-10.577,0-17.696-2.518-19.482-7.202c-1.816-4.751,1.047-11.939,14.512-17.87
			c3.221-1.417,8.765-2.959,15.181-4.741c13.507-3.754,32.001-8.897,30.637-14.525c-1.434-5.905-15.389-8.698-39.297-7.861
			l-0.025-0.778c17.201-0.603,38.122,0.374,40.079,8.457c1.542,6.363-15.842,11.195-31.182,15.46
			c-6.125,1.7-11.909,3.307-15.077,4.704c-10.847,4.78-16.249,11.246-14.1,16.877c2.327,6.092,14.591,8.241,32.008,5.611
			c5.395-0.82,52.833-8.707,57.648-34.24c3.105-16.466-2.492-27.047-17.625-33.297c-2.734-1.131-5.21-2.145-7.45-3.059
			c-9.626-3.936-14.925-6.101-18.224-8.336l0.437-0.648c3.233,2.188,8.506,4.347,18.081,8.262c2.245,0.918,4.718,1.929,7.451,3.059
			c7.062,2.917,11.989,6.691,15.078,11.537c3.732,5.858,4.746,13.472,3.021,22.628c-1.857,9.841-10.095,18.234-24.487,24.951
			c-14.124,6.59-29.451,9.255-33.814,9.911C457.361,379.897,452.869,380.26,448.876,380.26z"/>
	</g>
	<g>
		<g>
			<path fill="#E5DBAC" d="M452.695,352.652c-3.559,1.03-6.596,1.995-8.632,2.894c-12.26,5.397-16.296,12.167-14.309,17.37
				c2.494,6.529,15.647,8.396,32.433,5.856c0.182-0.024,0.364-0.055,0.548-0.083C462.153,363.915,456.722,356.297,452.695,352.652z"
				/>
			<path fill="#F9FFFF" d="M452.695,352.652c-3.559,1.03-6.596,1.995-8.632,2.894c-10.29,4.533-14.782,10.027-14.786,14.753
				c2.293,1.371,4.85,2.311,7.729,2.617c8.532,1.239,16.965,1.164,25.201-0.115C460.628,361.829,456.148,355.777,452.695,352.652z"
				/>
			<path fill="#8E7949" d="M448.854,380.256h-0.004c-10.775,0-17.687-2.556-19.457-7.198c-1.816-4.751,1.047-11.939,14.512-17.87
				c1.808-0.793,4.485-1.691,8.682-2.909l0.212-0.062l0.157,0.146c4.322,3.913,9.592,11.652,10.17,26.309l0.013,0.351l-0.894,0.136
				C457.441,379.886,452.932,380.256,448.854,380.256z M452.595,353.089c-4.043,1.177-6.632,2.049-8.374,2.813
				c-10.847,4.78-16.249,11.246-14.1,16.877c1.649,4.318,8.298,6.694,18.729,6.694h0.004c4.04,0,8.507-0.365,13.274-1.087
				l0.203-0.03C461.705,364.377,456.738,356.913,452.595,353.089z"/>
		</g>
		<g>
			<path fill="#550101" d="M496.643,308.165c-7.909-3.232-13.149-5.349-16.739-7.183c-8.803,7.186-11.408,20.655-12.157,26.815
				c3.912,0.236,7.794,0.66,11.205,1.366C482.048,316.676,491.53,310.6,496.643,308.165z"/>
		</g>
		<g>
			<path fill="#550101" d="M485.809,303.817c-0.158-0.104-0.312-0.22-0.47-0.327c-2.149-0.923-3.939-1.742-5.436-2.508
				c-8.803,7.186-11.408,20.655-12.157,26.815c3.912,0.236,7.794,0.66,11.205,1.366c3.038-12.26,12.23-18.335,17.404-20.857
				c-2.502-1.136-5.133-2.099-7.817-2.926C488.147,304.989,486.59,304.208,485.809,303.817z"/>
			<path fill="#550101" d="M485.339,303.49c0.157,0.107,0.312,0.224,0.47,0.327c0.781,0.391,2.339,1.172,2.729,1.563
				c2.685,0.827,5.315,1.79,7.817,2.926c0.097-0.047,0.196-0.096,0.287-0.142C492.033,306.282,488.339,304.777,485.339,303.49z"/>
		</g>
	</g>
	<g>
		<g>
			<path fill="#F49700" d="M405.307,280.396c-35.736-18.739-54.184-29.473-55.094-50.75c-0.736-17.164,9.629-38.519,10.41-53.094
				l-22.019,10.224c0.974,15.921-7.381,22.739-9.027,35.451c-4.611,35.656,22.327,51.403,32.216,54.262
				c12.003,11.721,25.566,20.618,39.108,28.177C405.605,299.642,413.106,289.269,405.307,280.396z"/>
			<path fill="#E5DBAC" d="M405.307,280.396c-35.736-18.739-54.184-29.473-55.094-50.75c-0.736-17.164,9.629-38.519,10.41-53.094
				l-22.019,10.224c0.974,15.921-7.381,22.739-9.027,35.451c-4.611,35.656,22.327,51.403,32.216,54.262
				c12.003,11.721,25.566,20.618,39.108,28.177C405.605,299.642,413.106,289.269,405.307,280.396z"/>
			<path fill="#F9FFFF" d="M338.596,191.832c-0.822,12.471-7.56,19.116-9.019,30.395c-1.71,13.228,0.922,23.713,5.416,31.821
				c3.351,2.161,7.594,2.385,11.835,0.973c4.214-1.637,7.162-4.679,9.018-8.452c-3.477-5.021-5.358-10.49-5.633-16.923
				c-0.476-11.063,3.663-23.869,6.874-35.478C350.358,196.102,343.528,196.844,338.596,191.832z"/>
			<path fill="#871500" d="M355.474,198.471c-2.984,10.544-6.07,21.45-5.652,31.191c0.923,21.569,19.576,32.345,55.24,51.045
				c3.37,3.869,3.766,8.033,2.742,11.915c0.258,0.067,0.516,0.129,0.773,0.194c1.089-4.106,0.665-8.538-2.976-12.678l-0.05-0.055
				l-0.062-0.033c-35.445-18.585-53.982-29.269-54.888-50.422c-0.412-9.618,2.658-20.461,5.623-30.946
				c1.988-7.031,3.881-13.721,4.565-19.555c-0.262,0.047-0.528,0.083-0.802,0.106C359.293,184.962,357.431,191.549,355.474,198.471z
				"/>
			<path fill="#8E7949" d="M407.804,292.622c-1.2,4.554-4.362,8.719-6.978,11.553c-16.17-9.051-28.49-17.94-38.761-27.963
				l-0.069-0.067l-0.095-0.029c-5.45-1.574-14.312-6.375-21.354-14.711c-8.875-10.503-12.534-24.033-10.581-39.127
				c0.669-5.175,2.427-9.28,4.289-13.629c2.589-6.053,5.268-12.31,4.754-21.631l21.182-9.835c-0.047,0.669-0.118,1.355-0.203,2.051
				c0.274-0.023,0.54-0.059,0.802-0.106c0.102-0.872,0.178-1.723,0.222-2.554l0.035-0.648l-22.85,10.608l0.016,0.265
				c0.57,9.286-2.096,15.515-4.677,21.542c-1.799,4.208-3.661,8.554-4.344,13.837c-1.98,15.318,1.739,29.057,10.759,39.732
				c7.112,8.421,16.079,13.294,21.641,14.929c10.362,10.098,22.797,19.054,39.121,28.168l0.266,0.149l0.211-0.224
				c2.726-2.913,6.108-7.291,7.389-12.116C408.319,292.751,408.062,292.689,407.804,292.622z"/>
			<g>
				<path fill="#3D0000" d="M359.77,184.214c3.061,0.349,9.271-4.4,14.382-4.832c4.119-0.347,12.467-0.48,16.813-1.679
					c-0.347-2.746-0.613-5.491-1.035-8.331C384.781,170.159,367.356,173.533,359.77,184.214z"/>
			</g>
			<g>
				<path fill="#550101" d="M359.77,184.214c3.061,0.349,9.271-4.4,14.382-4.832c1.839-0.156,4.678-0.297,7.641-0.516
					c-0.91-2.281-1.619-4.917-2.207-7.071C372.613,173.973,364.345,177.772,359.77,184.214z"/>
			</g>
			<g>
				<path fill="#3D0000" d="M374.709,190.316c-4.868,1.059-17.618,6.558-20.871,18.269c5.154-4.835,14.105-10,21.237-10.379
					c6.059-0.321,16.887-0.999,21.911-3.037c-2.104-3.149-3.347-6.893-4.131-10.958
					C388.785,185.731,378.595,189.476,374.709,190.316z"/>
			</g>
			<g>
				<path fill="#550101" d="M377.051,189.697c-0.905,0.268-1.706,0.482-2.342,0.619c-4.868,1.059-17.618,6.558-20.871,18.269
					c5.154-4.835,14.105-10,21.237-10.379c3.86-0.205,9.766-0.611,14.845-1.406c-0.815-1.312-1.247-3.253-2.264-4.072
					C385.855,191.281,383.135,191.154,377.051,189.697z"/>
			</g>
			<g>
				<path fill="#3D0000" d="M401.66,201.484c-6.109,2.35-17.496,7.083-21.74,9.454c-5.712,3.189-26.094,14.111-25.311,32.255
					c2.857-6.488,10.192-16.129,21.617-20.496c11.422-4.369,24.19-11.928,24.19-11.928s-11.165,13.606-10.538,25.367
					c0.627,11.762,2.23,22.342,2.353,28.729c3.986-6.72,4.738-13.219,6.17-24.586c1.675-13.295,7.346-24.979,16.737-31.618
					c-4.114-1.614-7.044-3.026-9.559-4.489C404.209,203.372,402.784,202.417,401.66,201.484z"/>
			</g>
			<g>
				<path fill="#550101" d="M394.989,204.156c-5.926,2.422-12.016,5.076-15.069,6.782c-5.712,3.189-26.094,14.111-25.311,32.255
					c2.955-6.363,10.192-16.129,21.617-20.496c11.422-4.369,24.19-11.928,24.19-11.928s-11.165,13.606-10.538,25.367
					c0.627,11.762,2.23,22.342,2.353,28.729c3.986-6.72,4.738-13.219,6.17-24.586c1.276-10.133,4.292-18.734,10.288-25.615
					C403.478,212.14,398.898,208.378,394.989,204.156z"/>
			</g>
		</g>
	</g>
	<g>
		<g>
			<path fill="none" d="M472.327,289.119c0.067,0.353,0.132,0.693,0.203,1.019c0.374-0.122,0.757-0.238,1.147-0.353
				C473.262,289.575,472.812,289.352,472.327,289.119z"/>
		</g>
	</g>
	<g>
		<path fill="#F49700" d="M436.425,263.096c-12.883-12.173-28.363-11.827-39.432-2.61c-16.721,13.926-12.948,57.259,33.572,51.337"
			/>
		<path fill="#FE9900" d="M430.565,311.822l0.051-0.42c-1.427,0.207-2.84,0.503-4.248,0.83
			C427.728,312.143,429.128,312.005,430.565,311.822z"/>
		<path fill="#FE9900" d="M430.682,310.866l5.743-47.771c-12.883-12.173-28.363-11.827-39.432-2.61
			c-6.232,5.19-9.616,14.47-9.001,23.76C392.504,310.477,426.676,309.872,430.682,310.866z"/>
		<path fill="#FFE89E" d="M406.166,259.313c9.613-4.118,20.136-1.596,29.17,2.788c-12.658-11.15-27.587-10.572-38.343-1.616
			c-5.125,4.268-8.318,11.296-8.954,18.821C390.488,269.898,397.689,262.846,406.166,259.313z"/>
		<g>
			<path fill="#3D0000" d="M429.755,285.665c17.347-6.604,34.634-0.327,42.572,3.454c-0.727-3.828-1.321-9.139-2.544-17.541
				C442.816,267.737,429.755,285.665,429.755,285.665z"/>
		</g>
		<g>
			<path fill="#550101" d="M465.74,271.154c-24.229-1.622-35.985,14.511-35.985,14.511c15.921-6.059,31.784-1.275,40.419,2.477
				c-0.582-2.077-1.018-4.222-1.545-6.184C467.719,278.421,466.771,274.794,465.74,271.154z"/>
		</g>
		<path fill="#722D00" d="M422.216,312.766c-7.086,0-13.286-1.301-18.514-3.891c-6.198-3.07-10.904-7.979-13.608-14.188
			c-5.188-11.922-2.267-27.075,6.649-34.502c7.101-5.909,15.52-8.145,23.686-6.263c10.107,2.332,15.727,9.454,15.727,9.454
			c-11.961-11.299-27.233-12.316-38.911-2.592c-8.665,7.215-11.49,21.972-6.433,33.591c5.793,13.315,20.267,19.532,39.708,17.059
			C430.52,311.435,424.892,312.766,422.216,312.766z"/>
	</g>
	<g>
		<g>
			<path fill="#550101" d="M427.36,274.149c0,0-1.728-11.304-4.812-19.303c-5.66-1.646-11.35-1.406-16.595,0.468
				C411.769,258.063,421.83,264.005,427.36,274.149z"/>
		</g>
		<g>
			<path fill="#A14949" d="M423.646,257.983c-0.345-1.08-0.71-2.136-1.097-3.137c-5.66-1.646-11.35-1.406-16.595,0.468
				c1.393,0.657,3.03,1.501,4.788,2.54C415.006,256.92,419.374,257.09,423.646,257.983z"/>
		</g>
		<g>
			<path fill="#550101" d="M422.369,287.033c0,0-7.812-16.973-26.658-25.377c-2.657,2.623-4.7,6.035-6.028,9.851
				C399.16,274.092,415.08,279.35,422.369,287.033z"/>
		</g>
		<g>
			<path fill="#A14949" d="M399.104,263.32c-1.09-0.583-2.22-1.14-3.394-1.664c-2.657,2.623-4.7,6.035-6.028,9.851
				c0.482,0.132,0.983,0.271,1.495,0.416C393.234,268.544,395.962,265.65,399.104,263.32z"/>
		</g>
	</g>
	<g>
		<g>
			<path fill="#F49700" d="M388.861,254.958c-0.262,9.105-3.543,24.536-3.254,32.722c0.287,8.193-3.644,32.441-5.205,36.783
				c-14.574-7.372-37.672-11.989-37.672-11.989s16.731-42.538,14.518-73.769"/>
			<path fill="#F49700" d="M388.748,254.681c-0.262,9.108-3.43,24.813-3.141,32.999c0.287,8.193-3.644,32.441-5.205,36.783
				c-14.574-7.372-37.672-11.989-37.672-11.989s16.625-42.488,14.412-73.718"/>
			<path fill="#FE9900" d="M357.161,238.676c2.211,31.229-14.431,73.798-14.431,73.798s12.37,1.623,26.946,8.995
				c4.773-1.718,8.578-21.357,10.604-34.436c1.25-8.096,8.328-23.174,8.588-32.283l-11.687-9.001L357.161,238.676z"/>
			<path fill="#FFE89E" d="M359.711,247.212c-0.252-2.256-1.671-6.862-2.59-8.786c2.2,32.699-14.391,74.048-14.391,74.048
				s1.363,0.184,3.704,0.687C354.651,292.085,360.814,269.994,359.711,247.212z"/>
			<g>
				<g>
					<path fill="#550101" d="M383.253,259.899c0,0-8.814-9.043-25.826-8.436c-0.239,3.433-0.628,6.906-1.131,10.372
						C362.404,260.096,374.281,257.435,383.253,259.899z"/>
				</g>
				<g>
					<path fill="#A14949" d="M359.832,251.446c-0.784-0.013-1.581-0.013-2.404,0.018c-0.239,3.433-0.628,6.906-1.131,10.372
						c0.949-0.27,2.036-0.565,3.231-0.855C359.756,257.818,359.862,254.639,359.832,251.446z"/>
				</g>
				<g>
					<path fill="#550101" d="M383.253,281.347c0,0-13.197-10.608-28.615-9.919c-0.881,4.425-1.891,8.735-2.94,12.792
						C357.356,282.819,371.481,279.811,383.253,281.347z"/>
				</g>
				<g>
					<path fill="#A14949" d="M354.639,271.428c-0.881,4.425-1.891,8.735-2.94,12.792c1.128-0.279,2.599-0.623,4.315-0.98
						c0.922-3.895,1.702-7.817,2.313-11.762C357.115,271.397,355.885,271.375,354.639,271.428z"/>
				</g>
				<g>
					<path fill="#550101" d="M374.547,300.982c0,0-9.947-11.356-24.457-10.837c-1.168,4.117-2.329,7.859-3.375,11.049
						C352.274,300.19,366.112,298.146,374.547,300.982z"/>
				</g>
				<g>
					<path fill="#A14949" d="M350.09,290.146c-1.168,4.117-2.329,7.859-3.375,11.049c1.134-0.202,2.618-0.451,4.326-0.692
						c1.13-3.375,2.184-6.774,3.142-10.19C352.864,290.158,351.501,290.095,350.09,290.146z"/>
				</g>
			</g>
			<path fill="#722D00" d="M380.621,325.009l-0.395-0.195c-14.358-7.265-37.342-11.911-37.573-11.957l-0.458-0.091l0.172-0.433
				c0.169-0.428,16.925-43.29,14.743-74.072c0,0,1.028,8.124,0.755,12.393c-1.726,27.104-13.084,57.558-14.604,61.533
				c3.282,0.687,23.571,5.097,36.914,11.725c1.588-5.154,5.326-28.16,5.042-36.213c-0.155-4.432,0.885-10.972,1.894-17.298
				c0.866-5.439,1.76-11.061,1.88-15.26c0,0-0.24,9.921-1.108,15.38c-1.003,6.294-2.037,12.796-1.886,17.148
				c0.295,8.361-3.718,32.727-5.228,36.925L380.621,325.009z"/>
		</g>
	</g>
	<g>
		<g>
			<path fill="#E5DBAC" d="M340.881,335.538c-6.092,1.589-9.871,0.55-11.456-3.411c-1.145-2.858,1.828-19.895,9.505-23.409
				c7.676-3.52,10.725,3.641,10.725,3.641L340.881,335.538z"/>
			<path fill="#F9FFFF" d="M343.36,328.989l6.295-16.631c0,0-3.048-7.16-10.725-3.641c-5.787,2.651-8.899,12.975-9.591,19.13
				C332.759,331.138,338.286,330.752,343.36,328.989z"/>
			<path fill="#8E7949" d="M336.06,336.641c-3.483,0-5.837-1.467-6.996-4.368c-0.679-1.694-0.038-6.957,1.434-11.72
				c1.127-3.652,3.701-10.098,8.27-12.192c1.461-0.669,2.865-1.005,4.178-1.005c4.948,0,7.049,4.8,7.068,4.85l0.062,0.146
				l-0.056,0.145l-8.846,23.373l-0.195,0.049C339.136,336.399,337.479,336.641,336.06,336.641z M342.946,308.136
				c-1.198,0-2.495,0.312-3.852,0.935c-4.293,1.966-6.762,8.185-7.851,11.712c-1.522,4.938-1.991,9.865-1.455,11.199
				c1.043,2.611,3.094,3.878,6.271,3.878c1.303,0,2.826-0.216,4.528-0.644l8.644-22.846
				C348.867,311.614,346.973,308.136,342.946,308.136z"/>
		</g>
		<g>
			<path fill="#E5DBAC" d="M362.572,337.613c-9.627,3.291-17.914,2.681-21.691-2.075c-3.778-4.749,2.191-24.277,7.554-26.82
				c5.362-2.543,13.226-1.022,15.111,4.367C365.432,318.479,362.572,337.613,362.572,337.613z"/>
			<path fill="#F9FFFF" d="M363.669,328.425c0.54-5.698,0.881-12.468-0.122-15.34c-1.885-5.39-9.75-6.91-15.111-4.367
				c-3.983,1.887-8.303,13.153-8.71,20.771C346.003,336.101,355.873,332.825,363.669,328.425z"/>
			<path fill="#8E7949" d="M351.47,340.069c-4.9,0-8.667-1.483-10.895-4.285c-2.224-2.797-0.996-9.416-0.363-12.131
				c1.485-6.404,4.73-13.714,8.055-15.289c1.708-0.811,3.684-1.239,5.719-1.239c4.794,0,8.692,2.291,9.93,5.832
				c1.893,5.423-0.841,23.929-0.958,24.714l-0.036,0.233l-0.224,0.079C358.649,339.366,354.872,340.069,351.47,340.069z
				 M353.986,307.908c-1.92,0-3.78,0.401-5.382,1.158c-2.695,1.279-5.977,7.626-7.632,14.763c-1.261,5.427-1.18,9.715,0.214,11.469
				c2.075,2.61,5.632,3.989,10.284,3.989c3.251,0,6.869-0.664,10.75-1.97c0.316-2.202,2.677-19.179,0.958-24.104
				C362.051,309.99,358.443,307.908,353.986,307.908z"/>
		</g>
		<g>
			<path fill="#E5DBAC" d="M362.572,337.613c-7.769-3.628-5.793-24.232,0.731-26.963c4.163-1.742,16.658,2.011,18.069,10.323
				c1.413,8.312-1.823,12.912-3.994,15.086C373.905,339.533,366.385,339.393,362.572,337.613z"/>
			<path fill="#F9FFFF" d="M374.514,312.616c-4.104-2.216-8.921-2.922-11.21-1.966c-4.582,1.916-6.92,12.646-5.218,20.123
				c3.046,3.448,9.34,4.392,13.727,2.718C376.604,331.657,380.012,317.772,374.514,312.616z"/>
			<path fill="#8E7949" d="M368.945,339.234c-2.431,0-4.815-0.462-6.539-1.269c-3.429-1.6-5.394-6.5-5.26-13.106
				c0.123-6.044,2.226-12.987,6.005-14.571c0.711-0.295,1.627-0.444,2.722-0.444c5.725,0,14.674,3.939,15.886,11.062
				c1.359,7.999-1.484,12.809-4.106,15.426C375.812,338.179,372.638,339.234,368.945,339.234z M365.874,310.626
				c-0.979,0-1.814,0.132-2.42,0.386c-3.015,1.259-5.393,7.219-5.527,13.864c-0.1,4.853,1.113,10.655,4.812,12.384
				c1.623,0.755,3.886,1.192,6.207,1.192c3.486,0,6.46-0.973,8.158-2.668c2.492-2.493,5.188-7.074,3.886-14.744
				C379.811,314.104,370.664,310.626,365.874,310.626z"/>
		</g>
	</g>
	<g>
		<g>
			<path fill="#550101" d="M383.156,57.298c13.267-0.437,30.334-11.95,34.93-11.976c-8.292,5.276-23.134,22.963-23.134,22.963
				L383.156,57.298z"/>
			<path fill="#A14949" d="M393.318,57.339c8.86-3.256,14.148-7.739,21.642-11.203c-6.868,2.634-20.673,10.796-31.804,11.162
				l1.473,1.371C387.534,59.077,390.394,58.414,393.318,57.339z"/>
			<path fill="#150000" d="M394.977,68.688L382.47,57.04l0.677-0.022c8.2-0.269,17.999-4.865,25.154-8.221
				c4.46-2.092,7.984-3.744,9.784-3.754l0.968-0.006l-0.818,0.521c-8.158,5.193-22.922,22.73-23.069,22.906L394.977,68.688z
				 M383.833,57.545l11.095,10.335c1.684-1.986,14.13-16.531,21.973-22.094c-1.887,0.481-4.825,1.859-8.361,3.518
				C401.531,52.59,392.004,57.059,383.833,57.545z"/>
		</g>
		<g>
			<g>
				<path fill="#CCCCCC" d="M393.772,65.403c5.915-7.294,25.381-30.749,45.707-18.329c19.624,11.989,11.993,46.877-18.012,57.938
					C412.01,78.045,393.772,65.403,393.772,65.403z"/>
				<path fill="#FAF5F3" d="M393.772,65.403c5.915-7.294,25.381-30.749,45.707-18.329c19.624,11.989,8.822,43.909-21.074,53.132
					C408.95,73.241,393.772,65.403,393.772,65.403z"/>
				<path fill="#363535" d="M421.298,105.373l-0.096-0.269c-9.316-26.572-27.407-39.343-27.59-39.47l-0.248-0.172l0.189-0.233
					c4.394-5.417,17.762-21.905,33.625-21.999c4.301-0.025,8.489,1.188,12.447,3.605c7.883,4.819,11.826,13.498,10.816,23.813
					c-0.677,6.898-3.637,13.98-8.337,19.943c-5.169,6.558-12.271,11.634-20.542,14.683L421.298,105.373z M394.175,65.352
					c2.198,1.625,18.649,14.423,27.459,39.299c15.722-5.899,26.802-19.239,28.251-34.059c0.989-10.092-2.854-18.576-10.555-23.28
					c-3.864-2.361-7.95-3.547-12.147-3.522C411.802,43.879,398.707,59.765,394.175,65.352z"/>
			</g>
			<g>
				<path fill="#ED9A9A" d="M406.42,77.888c5.586-7.607,13.273-17.616,19.062-19.838c5.664-2.175,17.139,0.832,15.169,14.577
					c-2.058,14.354-22.005,25.289-22.005,25.289L406.42,77.888z"/>
				<path fill="#F4C6C6" d="M424.12,64.203c-5.258,4.523-11.283,10.93-15.265,17.67l9.791,16.042c0,0,19.495-11.007,22.005-25.289
					C441.462,68.014,432.432,57.059,424.12,64.203z"/>
				<path fill="#363535" d="M418.546,98.288l-12.459-20.415l0.108-0.152c6.351-8.652,13.598-17.789,19.188-19.933
					c1.102-0.422,2.402-0.651,3.761-0.659c3.562-0.021,6.974,1.444,9.135,3.918c2.423,2.781,3.341,6.797,2.647,11.619
					c-2.048,14.327-21.942,25.383-22.146,25.494L418.546,98.288z M406.757,77.9l11.989,19.639
					c2.228-1.282,19.736-11.735,21.626-24.952c0.67-4.655-0.202-8.518-2.518-11.171c-2.053-2.354-5.307-3.747-8.707-3.728
					c-1.292,0.008-2.526,0.222-3.565,0.621C420.159,60.392,413.031,69.358,406.757,77.9z"/>
			</g>
		</g>
		<g>
			<g>
				<path fill="#550101" d="M297.035,43.303c14.838-2.281,31.588,11.68,41.332,11.047c-1.999,3.382-14.951,9.882-14.951,9.882
					L297.035,43.303z"/>
				<path fill="#A14949" d="M297.035,43.303l0.146,0.114c14.605,0.422,19.837,6.86,30.357,9.291
					c3.582,0.829,6.865,1.73,10.761,1.749c0.023-0.037,0.048-0.072,0.067-0.107C328.624,54.983,311.874,41.021,297.035,43.303z"/>
				<path fill="#150000" d="M323.383,64.562l-27.021-21.438l0.632-0.097c1.058-0.162,2.167-0.248,3.296-0.254
					c7.59-0.045,15.534,3.452,22.541,6.538c5.886,2.591,11.416,5.028,15.52,4.761l0.528-0.036l-0.271,0.456
					c-2.017,3.414-14.535,9.725-15.067,9.99L323.383,64.562z M297.723,43.49l25.727,20.412c1.417-0.722,11.833-6.091,14.367-9.253
					c-0.015,0-0.029,0.002-0.044,0.002c-4.145,0.023-9.5-2.334-15.168-4.829c-6.955-3.063-14.841-6.535-22.311-6.492
					C299.418,43.336,298.556,43.391,297.723,43.49z"/>
			</g>
			<g>
				<path fill="#CCCCCC" d="M296.21,112.219c-6.799-11.194-19.745-27.599-17.621-46.607c2.124-19.009,19.925-36.01,46.348-5.927
					C303.15,77.724,296.21,112.219,296.21,112.219z"/>
				<path fill="#FAF5F3" d="M298.7,103.928c-7.383-5.987-21.837-22.942-20.11-38.316c2.134-19.007,19.925-36.01,46.348-5.927
					C303.15,77.724,298.7,103.928,298.7,103.928z"/>
				<path fill="#363535" d="M296.343,112.976l-0.372-0.611c-0.973-1.598-2.07-3.307-3.231-5.111
					c-6.861-10.672-16.259-25.286-14.429-41.672c1.209-10.818,7.908-22.494,19.756-22.562c8.201-0.048,17.567,5.652,27.079,16.482
					l0.189,0.216l-0.22,0.186c-11.21,9.279-18.398,23.025-22.454,32.922c-4.397,10.729-6.161,19.364-6.178,19.451L296.343,112.976z
					 M298.072,43.578c-11.509,0.066-18.022,11.484-19.204,22.064c-1.81,16.189,7.526,30.708,14.342,41.308
					c1.022,1.589,1.992,3.1,2.876,4.53c0.507-2.257,2.354-9.826,6.059-18.868c4.054-9.891,11.221-23.605,22.394-32.958
					C315.2,49.088,306.053,43.529,298.072,43.578z"/>
			</g>
			<g>
				<path fill="#ED9A9A" d="M299.514,100.473c-5.836-10.506-15.04-23.312-12.831-36.027c1.59-9.134,12.848-16.37,24.954,10.473
					C308.277,78.567,299.514,100.473,299.514,100.473z"/>
				<path fill="#F4C6C6" d="M309.257,78.657c-1.67-3.431-6.558-14.302-12.811-16.501c-4.477-1.558-9.794,1.143-10.036,8.006
					c0.748,10.787,8.141,21.38,13.103,30.311C299.514,100.473,305.287,86.041,309.257,78.657z"/>
				<path fill="#363535" d="M299.556,101.123l-0.284-0.515c-0.882-1.584-1.825-3.196-2.822-4.904
					c-5.594-9.567-11.936-20.409-10.041-31.306c0.711-4.081,3.563-8.486,8.152-8.513c3.277-0.019,9.887,2.413,17.332,18.919
					l0.075,0.168l-0.125,0.135c-3.288,3.569-11.981,25.25-12.068,25.469L299.556,101.123z M294.562,56.444
					c-4.266,0.025-6.932,4.191-7.603,8.052c-1.86,10.693,4.426,21.442,9.972,30.925c0.894,1.528,1.741,2.98,2.544,4.406
					c1.383-3.43,8.662-21.255,11.833-24.958C304.025,58.8,297.694,56.426,294.562,56.444z"/>
			</g>
		</g>
		<g>
			<path fill="#EE6500" d="M296.121,117.746c0.071,7.659-6.813,13.17-7.293,26.651c-0.644,18.05,10.979,26.847,15.431,29.594
				c11.536,7.121,26.244,6.219,37.692,10.717c4.241,0.693,8.337,1.619,10.949,1.147c16.744-3.031,22.717-1.91,35.229-2.535
				c20.062-1.001,51.681-15.711,34.961-56.818c-3.994-14.037,9.986-59.466-57.793-74.527c-3.555-2.215-2.471-7.807-2.471-7.807
				s-4.458,1.702-2.836,8.304c-3.186-3.148-5.363-9.467-3.438-14.693c-3.942,2.747-6.38,7.767-4.48,14.18
				c-4.663-1.37-10.373-6.456-12.924-12.776c-0.539,3.45-1.817,7.926,5.389,13.938C334.3,54.484,295.618,63.557,296.121,117.746z"/>
			<path fill="#FE9900" d="M414.499,115.047c0.104-6.165,0.398-12.583-0.901-23.056c-1.098-8.862-4.04-18.298-12.71-24.964
				c-8.174-6.024-19.523-11.179-35.308-14.687c-0.167-0.102-0.318-0.214-0.464-0.331c-1.105-0.621-2.044-1.615-2.818-2.531
				c-0.733-1.267-0.874-2.776-0.425-4.139c-1.183,1.047-2.642,3.264-1.603,7.497c-0.088-0.087-0.175-0.176-0.262-0.268
				c0.021,0.185,0.046,0.37,0.077,0.555c-5.007-2.822-6.794-8.696-4.656-13.843c-3.027,2.841-4.679,7.28-3.154,12.761
				c0.091,0.187,0.183,0.376,0.267,0.569c-6.211-0.919-11.423-5.518-13.359-11.539c-0.484,3.22-0.555,7.251,5.636,12.413
				c-10.234,1.365-48.918,10.436-48.415,64.627c0.07,7.657-6.814,13.167-7.294,26.649c-0.276,7.769,1.72,13.824,4.438,18.421
				c2.164,3.061,4.871,5.731,8.563,7.692c12.891,6.91,26.449,7.156,40.525,8.563c5.831,0.581,12.828-0.115,19.767-0.529
				c17.316-1.032,34.292,0.499,43.894-7.378c5.3-4.345,9.533-14.062,9.659-22.552C416.174,134.356,414.349,124.154,414.499,115.047z
				"/>
			<path fill="#FFD69F" d="M298.748,121.168c2.131-7.09-0.91-12.31,5.961-31.405c3.695-10.265,8.549-19.327,17.172-25.242
				c6.497-4.555,13.083-8.038,20.33-10.61c-12.958,2.465-46.274,13.883-45.809,64.201c0.07,7.657-6.814,13.167-7.294,26.649
				c-0.23,6.509,0.636,13.051,4.293,18.815C287.298,145.742,294.694,134.656,298.748,121.168z"/>
			<g>
				<g>
					<path fill="#550101" d="M313.288,155.562c0.844-0.783-12.912-13.296-17.587-34.375c-0.802,3.298-2.618,6.477-4.187,10.491
						C294.249,139.9,300.678,153.765,313.288,155.562z"/>
				</g>
				<g>
					<path fill="#550101" d="M319.329,169.396c-20.101-4.002-27.142-22.501-29.5-32.423c-0.528,2.194-0.904,4.637-1.002,7.423
						c-0.178,5.008,0.588,9.304,1.883,12.956C303.849,173.885,319.329,169.396,319.329,169.396z"/>
				</g>
			</g>
			<g>
				<g>
					<path fill="#892929" d="M291.514,131.678c0.644,1.938,0.796,2.633,1.885,4.969c0.922-3.622,2.436-6.691,3.674-10.284
						c-0.645-1.976-0.891-3.016-1.372-5.176C294.899,124.485,293.083,127.664,291.514,131.678z"/>
				</g>
				<g>
					<path fill="#892929" d="M288.827,144.397c-0.178,5.008,0.588,9.304,1.883,12.956c0.453,0.569,0.91,1.113,1.367,1.635
						c-0.752-5.215-1.052-11.179-0.366-15.599c-0.869-2.688-1.296-3.958-1.882-6.416
						C289.301,139.167,288.925,141.611,288.827,144.397z"/>
				</g>
			</g>
			<g>
				<path fill="#3D0000" d="M394.3,155.724c4.889,1.374,23.873-4.193,32.616-16.656c-0.748-3.883-1.998-8.066-3.827-12.564
					C417.832,135.333,412.907,145.419,394.3,155.724z"/>
			</g>
			<g>
				<path fill="#550101" d="M415.509,138.336c-4.272,5.259-11.191,11.84-21.209,17.388c3.274,0.919,12.868-1.274,21.475-6.564
					C415.741,148.977,416.115,144.376,415.509,138.336z"/>
			</g>
			<g>
				<path fill="#3F0000" d="M427.785,146.841c-4.347,5.968-18.78,22.831-43.688,23.957c-0.516,0.587,22.78,3.931,41.131-9.763
					C426.966,156.963,427.918,152.251,427.785,146.841z"/>
			</g>
			<g>
				<path fill="#550101" d="M413.473,160.761c-7.277,5.134-16.856,9.471-29.375,10.037c-0.343,0.391,11.291,2.134,24.576-1.652
					C410.409,167.989,412.342,163.788,413.473,160.761z"/>
			</g>
			<path fill="#871500" d="M351.339,186.263L351.339,186.263c-1.989,0.013-4.465-0.419-7.089-0.878
				c-0.769-0.134-1.555-0.272-2.345-0.399l-0.055-0.017c-4.676-1.837-9.814-2.754-15.254-3.724
				c-7.688-1.374-15.638-2.791-22.485-7.017c-4.891-3.018-16.199-11.968-15.563-29.84c0.27-7.57,2.51-12.565,4.484-16.973
				c1.525-3.402,2.841-6.337,2.81-9.665c-0.214-23.163,6.608-40.771,20.28-52.338c10.676-9.035,22.556-11.711,27.761-12.48
				c-6.377-5.554-5.649-9.933-5.116-13.149c0.037-0.218,0.072-0.43,0.106-0.64l0.156-1l0.378,0.937
				c2.569,6.361,8.006,10.988,12.258,12.455c-1.496-5.665,0.252-10.865,4.727-13.984l0.73-0.509l-0.308,0.836
				c-1.73,4.702-0.043,10.394,2.697,13.662c-0.991-5.947,3.173-7.615,3.218-7.631l0.468-0.179l-0.095,0.493
				c-0.011,0.054-0.996,5.39,2.304,7.493c55.291,12.305,56.334,44.692,56.957,64.043c0.138,4.328,0.258,8.069,0.989,10.656
				c6.4,15.734,6.333,28.905-0.195,39.153c-7.912,12.417-23.807,17.475-35.013,18.035c-3.677,0.182-6.776,0.216-9.774,0.247
				c-7.305,0.079-13.613,0.144-25.419,2.282C352.473,186.217,351.946,186.26,351.339,186.263z M342.025,184.439
				c0.782,0.125,1.558,0.261,2.319,0.395c2.6,0.455,5.054,0.883,6.99,0.87h0.002c0.574-0.001,1.068-0.043,1.513-0.124
				c11.853-2.145,18.184-2.211,25.513-2.29c2.992-0.032,6.086-0.065,9.752-0.249c11.074-0.552,26.771-5.54,34.568-17.776
				c6.429-10.088,6.478-23.094,0.145-38.657l-0.009-0.029c-0.757-2.651-0.876-6.429-1.018-10.803
				c-0.615-19.196-1.646-51.324-56.564-63.527l-0.046-0.011l-0.042-0.025c-3.046-1.897-2.857-6.052-2.678-7.551
				c-1.053,0.63-3.455,2.674-2.21,7.744l0.237,0.96l-0.705-0.695c-3.08-3.044-5.216-9.023-3.778-14.138
				c-3.873,3.112-5.249,8.037-3.675,13.348l0.145,0.493l-0.492-0.146c-4.246-1.246-9.85-5.745-12.723-12.054
				c-0.541,3.288-1,7.358,5.446,12.734l0.488,0.407l-0.631,0.083c-4.776,0.638-17.079,3.123-28.089,12.44
				c-13.54,11.456-20.297,28.92-20.083,51.906c0.031,3.452-1.307,6.44-2.857,9.899c-1.956,4.359-4.17,9.303-4.436,16.764
				c-0.626,17.58,10.488,26.379,15.297,29.346c6.755,4.168,14.653,5.578,22.29,6.94
				C332.151,181.667,337.307,182.587,342.025,184.439z"/>
		</g>
		<g>
			<path fill="#EE6500" d="M327.9,162.444c0.78,1.904,4.053,9.727,8.033,12.135c4.064,2.46,11.358,1.879,13.548,0.167
				c2.457-1.92,6.138-9.532,7.186-13.269C354.009,160.522,327.9,162.444,327.9,162.444z"/>
			<path fill="#871500" d="M343.146,176.512h-0.002c-1.686,0.009-4.883-0.198-7.356-1.694c-3.614-2.186-6.655-8.625-8.145-12.27
				l-0.146-0.355l0.382-0.029c0.163-0.01,16.168-1.182,24.294-1.23c2.519-0.015,4.019,0.077,4.588,0.282l0.245,0.088l-0.071,0.25
				c-1.097,3.905-4.795,11.467-7.283,13.412C348.476,175.887,345.922,176.495,343.146,176.512z M328.308,162.693
				c2.458,5.906,5.28,10.141,7.77,11.646c1.745,1.055,4.255,1.63,7.064,1.613l0,0c2.663-0.017,5.083-0.576,6.169-1.425
				c2.31-1.804,5.862-9.025,7.009-12.853c-0.517-0.102-1.662-0.197-4.144-0.183C344.774,161.536,330.801,162.515,328.308,162.693z"
				/>
		</g>
		<g>
			<path fill="#FAF5F3" d="M361.411,135.833c2.381,9.732,10.354,13.938,16.831,13.082c9.492-1.253,10.219-14.238,10.219-14.238
				s-5.896,4.915-13.617,5.378C365.824,140.596,361.411,135.833,361.411,135.833z"/>
		</g>
		<g>
			<path fill="#FAF5F3" d="M362.177,121.202c0,0,4.154-21.874,14.286-21.301c12.41,0.704,12.167,26.803,12.167,26.803
				S378.999,102.777,362.177,121.202z"/>
		</g>
		<g>
			<path fill="#FAF5F3" d="M305.353,123.727c0,0,3.713-24.495,16.579-22.872c10.047,1.268,8.656,25.313,8.656,25.313
				S320.355,102.521,305.353,123.727z"/>
		</g>
		<g>
			<path fill="#FAF5F3" d="M305.017,132.221c1.361,9.072,7.01,13.577,12.986,13.336c8.757-0.354,11.766-12.138,11.766-12.138
				s-5.781,3.987-12.859,3.77C308.645,136.931,305.017,132.221,305.017,132.221z"/>
		</g>
		<g>
			<path fill="#EE6500" d="M325.19,176.797c3.221,1.31,6.214,4.269,9.894,7.905c4.917,4.859,14.651,6.057,20.478,2.441
				c4.731-2.938,6.583-8.339,6.583-8.339"/>
			<path fill="#FE9900" d="M350.25,184.962c4.644-0.848,8.495-2.519,11.768-6.167l-15.276-1.213l-21.551-0.784
				c0.235,0.097,0.466,0.202,0.698,0.314c3.216,0.732,6.09,2.249,8.966,4.378C339.346,184.816,344.45,186.024,350.25,184.962z"/>
			<path fill="#871500" d="M347.511,189.513c-4.682,0.026-9.566-1.59-12.623-4.614c-3.707-3.66-6.635-6.555-9.803-7.842
				c0,0,3.114,0.668,6.881,4.229c1.043,0.987,2.144,2.061,3.314,3.217c4.845,4.79,14.441,5.936,20.131,2.404
				c4.603-2.857,6.711-8.05,6.732-8.102c0,0-0.56,2.863-2.735,5.373c-0.989,1.139-2.217,2.28-3.703,3.203
				C353.412,188.806,350.504,189.496,347.511,189.513z"/>
		</g>
		<g>
			<path fill="#3F0000" d="M331.025,163.262c-0.28,0.287,3.004,7.442,7.682,10.105c2.349,1.336,7.67,0.906,9.152-0.313
				c2.337-1.922,4.411-7.215,4.769-9.918C346.847,162.146,335.355,158.824,331.025,163.262z"/>
			<path fill="#710000" d="M331.025,163.262c-0.241,0.248,2.142,5.538,5.774,8.723c0.204-2.124,1.222-3.782,2.347-5.139
				c2.609-3.144,10.58-3.042,10.611,3.88c1.481-2.4,2.613-5.659,2.87-7.591C346.847,162.146,335.355,158.824,331.025,163.262z"/>
			<g>
				<g>
					<path fill="#FF8080" d="M347.859,173.054c0.823-0.675,1.61-1.771,2.304-3.021c-1.588-1.261-4.368-1.791-6.413-0.116
						c-3.306-2.5-6.302,0.326-7.289,1.761c0.702,0.655,1.454,1.237,2.246,1.69C341.056,174.703,346.377,174.273,347.859,173.054z"/>
					<path fill="#FFB8B8" d="M348.01,170.782c-0.262-1.579-3.792-0.765-5.593,1.504c-0.399-4.06-4.969-2.044-5.956-0.609
						c0.702,0.655,1.454,1.237,2.246,1.69C341.056,174.703,348.644,174.618,348.01,170.782z"/>
					<path fill="#C64242" d="M342.921,174.469L342.921,174.469c-1.816,0.009-3.362-0.296-4.351-0.859
						c-0.763-0.434-1.536-1.014-2.3-1.726l-0.177-0.165l0.137-0.199c0.908-1.319,2.701-2.866,4.771-2.878
						c0.943-0.006,1.866,0.306,2.743,0.923c0.854-0.638,1.878-0.977,2.982-0.985c1.28-0.006,2.63,0.455,3.611,1.234l0.185,0.148
						l-0.114,0.205c-0.78,1.404-1.577,2.447-2.373,3.103C347.179,173.974,345.124,174.457,342.921,174.469z M336.833,171.641
						c0.673,0.606,1.349,1.104,2.014,1.484c0.894,0.509,2.377,0.794,4.073,0.785c2.05-0.012,4.008-0.453,4.761-1.072
						c0.691-0.567,1.421-1.509,2.122-2.729c-0.867-0.616-1.997-0.977-3.074-0.97c-1.047,0.006-2.015,0.35-2.801,0.994l-0.17,0.139
						l-0.174-0.133c-0.832-0.628-1.698-0.943-2.577-0.937C339.15,169.212,337.575,170.655,336.833,171.641z"/>
				</g>
			</g>
			<g>
				<path fill="#C64242" d="M342.417,172.287c0,0,0.519-2.148,1.175-2.602l0.316,0.461
					C343.45,170.464,342.674,171.8,342.417,172.287z"/>
			</g>
			<path fill="#871500" d="M342.921,174.469L342.921,174.469c-1.816,0.009-3.362-0.296-4.351-0.859
				c-4.536-2.582-7.69-9.167-7.834-10.177c-0.008-0.066-0.033-0.241,0.089-0.366c1.513-1.552,3.93-2.315,7.385-2.335
				c3.732-0.021,7.975,0.841,11.385,1.533c1.119,0.227,2.177,0.442,3.076,0.596l0.267,0.046l-0.036,0.266
				c-0.367,2.787-2.448,8.105-4.868,10.096C347.179,173.974,345.124,174.457,342.921,174.469z M331.294,163.389
				c0.147,0.925,3.251,7.286,7.553,9.736c0.894,0.509,2.377,0.794,4.073,0.785c2.05-0.012,4.008-0.453,4.761-1.072
				c2.209-1.814,4.189-6.768,4.629-9.473c-0.846-0.15-1.81-0.347-2.824-0.553c-3.385-0.686-7.597-1.542-11.271-1.521
				C334.97,161.31,332.702,161.997,331.294,163.389z"/>
		</g>
		<g>
			<path fill="#DBDBDB" d="M330.605,163.452c0.756,1.812,4.088,6.122,4.97,5.837c0.883-0.286,1.461-4.917,2.058-6.599
				C336.187,162.162,330.605,163.452,330.605,163.452z"/>
			<path fill="#FFFFFF" d="M330.605,163.452c0.756,1.812,4.046,5.758,4.97,5.837c0.14,0.012,0.198-5.054-0.585-6.039
				C333.542,162.72,330.605,163.452,330.605,163.452z"/>
			<path fill="#A5A5A5" d="M335.488,169.582L335.488,169.582c-1.221,0.006-4.409-4.272-5.139-6.022l-0.128-0.305l0.322-0.075
				c0.156-0.036,3.84-0.882,5.988-0.896c0.532-0.002,0.922,0.046,1.197,0.146l0.259,0.096l-0.094,0.26
				c-0.199,0.562-0.399,1.485-0.613,2.459c-0.553,2.535-0.937,4.089-1.62,4.309C335.607,169.57,335.549,169.582,335.488,169.582z
				 M331.002,163.649c0.966,1.982,3.766,5.378,4.482,5.373h0.008c0.424-0.137,0.957-2.583,1.243-3.896
				c0.186-0.843,0.362-1.647,0.54-2.236c-0.17-0.029-0.407-0.05-0.739-0.047C334.815,162.854,331.971,163.439,331.002,163.649z"/>
		</g>
		<g>
			<path fill="#DBDBDB" d="M345.926,163.733c0.475,1.395,2.361,5.459,2.965,5.49c0.605,0.029,3.094-4.407,3.088-5.524
				C350.439,163.29,345.926,163.733,345.926,163.733z"/>
			<path fill="#FFFFFF" d="M345.926,163.733c0.475,1.395,2.361,5.459,2.965,5.49c0,0,0.841-4.301,0.835-5.419
				C348.189,163.396,345.926,163.733,345.926,163.733z"/>
			<path fill="#A5A5A5" d="M348.899,169.505L348.899,169.505l-0.022-0.003c-0.977-0.047-3.062-5.224-3.215-5.676l-0.114-0.335
				l0.351-0.035c0.019,0,2.039-0.2,3.823-0.21c1.068-0.006,1.85,0.057,2.327,0.184l0.207,0.056l0.002,0.212
				c0.003,0.669-0.69,2.15-1.343,3.317C349.995,168.663,349.315,169.5,348.899,169.505z M346.311,163.979
				c0.617,1.638,2.097,4.625,2.589,4.952c0.563-0.334,2.533-3.777,2.776-5.011c-0.443-0.081-1.097-0.119-1.95-0.115
				C348.411,163.813,346.967,163.924,346.311,163.979z"/>
		</g>
		<g>
			<path fill="#DBCFCC" d="M338.375,162.381c0,0,17.92,6.973,22.973-4.696c3.235-7.475-3.838-19.345-22.318-10.951
				c-15.304-5.683-19.641,0.935-18.076,10.045C321.637,160.765,328.066,166.911,338.375,162.381z"/>
			<path fill="#FAF5F3" d="M338.454,156.881c0,0,11.7,11.53,19.915-0.116c4.5-6.383-0.859-18.424-19.339-10.03
				c-15.304-5.683-19.641,0.935-18.076,10.045C321.637,160.765,334.134,165.432,338.454,156.881z"/>
			<path fill="#6E6866" d="M349.477,164.727c-5.246,0.032-10.294-1.749-11.093-2.044c-2.38,1.032-4.697,1.561-6.891,1.574l0,0
				c-6.5,0.036-10.296-4.411-10.816-7.43c-0.723-4.218-0.151-7.586,1.656-9.743c1.508-1.799,3.824-2.722,6.88-2.738
				c2.706-0.017,6.005,0.686,9.806,2.087c4.165-1.88,7.989-2.842,11.374-2.861c4.573-0.027,8.243,1.697,10.331,4.858
				c1.839,2.783,2.176,6.371,0.879,9.366C359.628,162.361,355.546,164.692,349.477,164.727z M338.369,162.08l0.108,0.042
				c0.054,0.021,5.415,2.08,10.997,2.047c5.83-0.034,9.737-2.252,11.619-6.596c1.222-2.822,0.902-6.208-0.833-8.835
				c-1.98-2.996-5.484-4.634-9.862-4.606c-3.335,0.019-7.121,0.981-11.251,2.857l-0.106,0.047l-0.109-0.039
				c-3.781-1.405-7.05-2.109-9.716-2.095c-2.883,0.019-5.056,0.873-6.453,2.54c-1.699,2.027-2.229,5.24-1.532,9.292
				c0.486,2.828,4.083,7,10.258,6.965h0.002c2.148-0.013,4.425-0.542,6.771-1.573L338.369,162.08z"/>
		</g>
		<g>
			<path fill="#6E6866" d="M338.101,162.423c-0.773-5.097,0.592-15.295,0.652-15.725l0.552,0.075
				c-0.014,0.104-1.413,10.549-0.654,15.568L338.101,162.423z"/>
		</g>
		<g>
			<path fill="#6E6866" d="M348.081,155.624c-2.157,0.012-3.83-0.447-3.865-0.458c0,0-0.33-0.058-0.287-0.348
				c0.046-0.291,0.439-0.189,0.439-0.189c0.072,0.021,7.445,2.044,10.948-2.756C355.315,151.873,353.56,155.624,348.081,155.624z"/>
		</g>
		<g>
			<path fill="#6E6866" d="M349.843,159.111c-3.075,0.019-6.063-1.003-7.31-2.134c0,0-0.349-0.332-0.177-0.529
				c0.174-0.202,0.551,0.115,0.551,0.115c1.346,1.22,4.975,2.282,8.23,1.914c1.844-0.206,4.391-0.952,6.057-3.333
				c0,0-1.839,3.414-5.995,3.89C350.749,159.084,350.293,159.108,349.843,159.111z"/>
		</g>
		<g>
			<path fill="#6E6866" d="M344.185,160.728c0,0-0.407-0.243-0.295-0.482c0.112-0.239,0.573-0.002,0.573-0.002
				c0.043,0.024,4.423,2.472,9.423,0.026C353.886,160.27,350.125,163.432,344.185,160.728z"/>
		</g>
		<g>
			<path fill="#6E6866" d="M332.237,156.917c-7.146,0.041-8.09-6.244-8.09-6.244c0.065,0.28,1.681,6.884,10.238,5.496
				c0,0,0.349-0.036,0.385,0.287c0.045,0.244-0.295,0.267-0.295,0.267C333.673,156.852,332.929,156.913,332.237,156.917z"/>
		</g>
		<g>
			<path fill="#6E6866" d="M330.273,159.793c-5.228,0.03-6.482-4.396-6.482-4.396c0.091,0.229,2.373,5.584,9.919,3.262
				c0,0,0.374-0.106,0.455,0.173c0.082,0.28-0.291,0.361-0.291,0.361C332.523,159.609,331.327,159.786,330.273,159.793z"/>
		</g>
		<g>
			<path fill="#6E6866" d="M331.233,161.91c-2.298,0.014-3.703-1.559-3.703-1.559c0.029,0.017,2.828,1.816,6.176,0.527
				c0,0,0.418-0.222,0.551,0.083c0.13,0.305-0.352,0.439-0.352,0.439C332.956,161.767,332.05,161.906,331.233,161.91z"/>
		</g>
		<g>
			<path d="M330.735,128.946c-1.039,8.885-7.739,11.461-14.99,10.528c-6.647-0.856-11.121-4.744-10.084-13.631
				c1.037-8.885,7.144-18.728,13.86-18.868C326.738,106.825,331.771,120.061,330.735,128.946z"/>
			<path fill="#F28D00" d="M330.626,129.865c-0.958,8.211-7.63,10.537-14.882,9.61c-6.647-0.85-11.152-4.486-10.192-12.7
				c0.958-8.212,6.973-17.266,13.679-17.336C326.444,109.362,331.586,121.652,330.626,129.865z"/>
			<path fill="#FFBF01" d="M330.626,129.865c-0.958,8.211-25.568,9.434-25.074-3.09c0.324-8.262,6.973-17.266,13.679-17.336
				C326.444,109.362,331.586,121.652,330.626,129.865z"/>
			<path d="M318.759,139.944c-0.977,0.006-2.003-0.058-3.05-0.194c-7.705-0.984-11.314-5.483-10.436-13.007
				c0.484-4.149,2.213-8.471,4.738-11.856c2.732-3.661,6.005-5.693,9.217-5.729h0.031c2.214-0.012,4.394,1.109,6.305,3.246
				c3.724,4.157,6.018,11.677,5.34,17.494C330.153,136.335,325.839,139.905,318.759,139.944z M319.264,109.717h-0.029
				c-6.539,0.069-12.472,9.081-13.406,17.091c-0.848,7.269,2.5,11.437,9.951,12.391c1.022,0.128,2.023,0.193,2.978,0.187
				c3.914-0.023,10.626-1.292,11.592-9.554c0.661-5.67-1.574-13.004-5.2-17.054C323.346,110.765,321.311,109.704,319.264,109.717z"
				/>
		</g>
		<g>
			<path fill="#EE6500" d="M337.947,124.487c-8.21,5.635-11.586,13.346-11.803,20.533c0.74,3.273,28.397,9.47,24.253-6.291"/>
			<path fill="#FE9900" d="M350.434,138.87c-0.023-0.083,0.188-0.206,0.166-0.289l-12.652-14.094
				c-8.21,5.635-11.586,13.346-11.803,20.533c0.356,1.574,6.999,3.808,13.338,3.949C344.634,147.562,350.023,144.896,350.434,138.87
				z"/>
			<path fill="#FFD69F" d="M337.305,124.939c-7.743,5.592-10.95,13.085-11.161,20.081c0.125,0.556,1.036,1.193,2.434,1.789
				C328.214,137.837,331.121,132.069,337.305,124.939z"/>
			<path fill="#871500" d="M340.281,149.243c-3.417,0.021-6.951-0.595-9.529-1.363c-1.37-0.41-4.586-1.499-4.879-2.797l-0.008-0.036
				l0.002-0.035c0.179-6.016,2.465-11.552,6.556-16.089c1.538-1.706,5.684-4.206,5.684-4.206
				c-7.279,4.995-11.425,12.192-11.68,20.272c0.17,0.561,1.608,1.496,4.485,2.354c5.172,1.542,14.268,2.481,18.128-1.255
				c1.743-1.688,2.2-4.162,1.358-7.359c0,0,1.172,2.159,0.842,4.357c-0.204,1.344-0.852,2.475-1.812,3.403
				C347.358,148.493,343.886,149.223,340.281,149.243z"/>
		</g>
		<g>
			<path fill="#EAA4BD" d="M338.13,156.052c4.12,0.255,16.829-8.293,12.628-12.204c-3.654-3.399-9.029,4.22-11.857,3.907
				c-3.295-0.368-9.816-5.758-13.072-2.64C323.392,147.45,333.089,155.738,338.13,156.052z"/>
			<path fill="#FFD2D9" d="M337.803,153.492c4.123,0.256,13.34-5.813,11.88-9.343c-1.731-4.181-7.955,3.92-10.782,3.607
				c-3.295-0.368-10.487-6.333-13.072-2.64C323.988,147.747,332.763,153.18,337.803,153.492z"/>
			<path fill="#FFF8F9" d="M338.901,147.755c-3.295-0.368-10.207-6.119-13.072-2.64c-0.083,0.101-0.372,1.297-0.387,1.428
				c2.088-3.389,7.751,0.112,11.592,2.003c1.121,0.46,2.287,0.839,3.217,0.229c3.034-1.63,5.718-4.17,8.726-5.575
				C346.651,141.615,341.423,148.036,338.901,147.755z"/>
			<path fill="#99364C" d="M338.339,156.336h-0.002c-0.077,0-0.152-0.002-0.224-0.006c-4.345-0.271-11.531-5.938-12.758-9.295
				c-0.416-1.134-0.077-1.78,0.28-2.121c0.717-0.688,1.642-1.039,2.75-1.045c2.013-0.012,4.388,1.102,6.485,2.083
				c1.543,0.723,3.004,1.406,4.061,1.525c0.989,0.108,2.424-0.926,3.953-2.025c1.793-1.287,3.823-2.746,5.697-2.756
				c0.888-0.005,1.683,0.315,2.365,0.95c0.958,0.89,1.178,2.087,0.642,3.464C349.943,151.329,341.619,156.316,338.339,156.336z
				 M328.388,144.428c-0.974,0.006-1.748,0.297-2.367,0.889c-0.344,0.331-0.393,0.845-0.141,1.528
				c1.162,3.174,8.203,8.675,12.268,8.927c0.06,0.004,0.123,0.006,0.188,0.006c3.149-0.02,11.15-4.815,12.731-8.873
				c0.454-1.162,0.285-2.119-0.501-2.851c-0.583-0.544-1.229-0.806-1.98-0.802c-1.697,0.01-3.65,1.415-5.375,2.651
				c-1.696,1.218-3.156,2.263-4.341,2.128c-1.149-0.127-2.649-0.832-4.239-1.573C332.588,145.5,330.273,144.418,328.388,144.428z"/>
		</g>
		<g>
			<path fill="#550101" d="M320.821,90.414c1.324-8.761,5.128-11.09,7.728-12.278c2.602-1.191,13.059-4.091,16.611-9.933
				c-1.104,6.386-3.533,8.913-12.682,12.925C325.748,84.078,320.821,90.414,320.821,90.414z"/>
		</g>
		<g>
			<path fill="#550101" d="M330.946,104.08c-0.563-5.284,1.319-7.228,2.67-8.324c1.349-1.096,7.065-4.412,8.259-8.35
				c0.332,3.872-0.712,5.716-5.485,9.471C332.876,99.64,330.946,104.08,330.946,104.08z"/>
		</g>
		<g>
			<path fill="#550101" d="M353.108,103.61c0.502-5.291-1.403-7.21-2.766-8.291c-1.362-1.08-7.117-4.328-8.357-8.253
				c-0.285,3.875,0.779,5.708,5.598,9.405C351.127,99.192,353.108,103.61,353.108,103.61z"/>
		</g>
		<g>
			<path fill="#550101" d="M316.277,76.094c3.088-8.808,7.731-10.47,10.833-11.191c3.101-0.721,15.225-1.666,20.239-7.015
				c-2.402,6.393-5.56,8.534-16.44,10.886C322.907,70.505,316.277,76.094,316.277,76.094z"/>
		</g>
		<g>
			<path fill="#550101" d="M378.63,75.731c-3.188-8.773-7.852-10.381-10.96-11.065c-3.111-0.684-15.246-1.49-20.32-6.778
				c2.477,6.364,5.661,8.467,16.564,10.692C371.937,70.218,378.63,75.731,378.63,75.731z"/>
		</g>
		<g>
			<path fill="#550101" d="M368.136,91.45c-0.943-8.808-4.642-11.3-7.189-12.603c-2.545-1.301-12.493-4.459-15.788-10.448
				c0.825,6.427,2.768,8.862,11.734,13.268C363.488,84.907,368.136,91.45,368.136,91.45z"/>
		</g>
		<g>
			<path d="M389.065,129.808c-0.245,9.702-7.396,13.141-15.511,12.844c-7.442-0.275-12.786-4.038-12.542-13.739
				c0.245-9.701,6.001-20.933,13.415-21.743C382.397,106.301,389.309,120.106,389.065,129.808z"/>
			<path fill="#F28D00" d="M389.039,130.814c-0.225,8.964-7.369,12.128-15.485,11.838c-7.442-0.269-12.794-3.755-12.567-12.721
				c0.227-8.964,5.959-19.331,13.371-20.064C382.327,109.077,389.266,121.848,389.039,130.814z"/>
			<path fill="#FFBF01" d="M389.039,130.814c-0.225,8.964-27.589,11.692-28.052-0.883c-0.331-8.959,5.959-19.331,13.371-20.064
				C382.327,109.077,389.266,121.848,389.039,130.814z"/>
			<path d="M374.718,142.949c-0.384,0.002-0.779-0.004-1.174-0.019c-8.605-0.308-13.043-4.806-12.834-13.006
				c0.113-4.525,1.583-9.358,4.032-13.261c2.643-4.212,6.051-6.727,9.59-7.076c2.69-0.266,5.475,0.966,7.996,3.537
				c4.201,4.283,7.142,11.726,6.993,17.696C389.125,138.476,383.804,142.895,374.718,142.949z M375.023,110.11
				c-0.212,0.001-0.426,0.013-0.638,0.034c-7.239,0.717-12.897,11.042-13.118,19.796c-0.202,7.95,3.936,12.133,12.295,12.432
				c0.389,0.015,0.775,0.021,1.151,0.019c8.743-0.052,13.862-4.273,14.046-11.585c0.147-5.833-2.727-13.103-6.832-17.29
				C379.729,111.273,377.342,110.097,375.023,110.11z"/>
		</g>
		<g>
			<g>
				<g>
					<g>
						<g>
							<g>
								<g>
									<g>
										<g>
											<g>
												<g>
													<g>
														<g>
															<g>
																<g>
																	<g>
																		<g>
																			<path fill="#470A00" d="M377.418,119.481c-4.456-0.047-8.105,4.678-8.148,10.556
																				c-0.042,5.876,3.534,10.678,7.991,10.729c4.459,0.045,8.108-4.68,8.149-10.556
																				C385.453,124.333,381.875,119.529,377.418,119.481z"/>
																		</g>
																	</g>
																</g>
															</g>
														</g>
													</g>
												</g>
											</g>
										</g>
									</g>
								</g>
							</g>
						</g>
					</g>
					<g>
						<g>
							<g>
								<g>
									<g>
										<g>
											<g>
												<g>
													<g>
														<g>
															<g>
																<g>
																	<g>
																		<g>
																			<path fill="#5A1C03" d="M377.418,119.481c-4.456-0.047-8.105,4.678-8.148,10.556
																				c-0.021,2.995,0.899,5.71,2.394,7.659c5.517,0.272,11.015-2.489,13.729-6.851
																				c0.009-0.209,0.019-0.421,0.019-0.636C385.453,124.333,381.875,119.529,377.418,119.481z"/>
																		</g>
																	</g>
																</g>
															</g>
														</g>
													</g>
												</g>
											</g>
										</g>
									</g>
								</g>
							</g>
						</g>
					</g>
					<g>
						<g>
							<g>
								<g>
									<g>
										<g>
											<g>
												<g>
													<g>
														<g>
															<g>
																<g>
																	<g>
																		<g>
																			<path fill="#1C0501" d="M377.423,118.86c-4.821-0.053-8.78,4.958-8.825,11.168
																				c-0.046,6.21,3.838,11.306,8.661,11.358c4.82,0.052,8.779-4.958,8.824-11.168
																				C386.129,124.006,382.244,118.911,377.423,118.86z M377.267,140.142c-4.082-0.044-7.366-4.573-7.325-10.099
																				c0.04-5.525,3.391-9.982,7.473-9.938c4.079,0.043,7.364,4.573,7.324,10.098
																				C384.699,135.728,381.348,140.185,377.267,140.142z"/>
																		</g>
																	</g>
																</g>
															</g>
														</g>
													</g>
												</g>
											</g>
										</g>
									</g>
								</g>
							</g>
						</g>
					</g>
				</g>
				<g>
					<g>
						<g>
							<g>
								<g>
									<g>
										<g>
											<g>
												<g>
													<g>
														<g>
															<g>
																<g>
																	<g>
																		<path d="M378.2,124.506c-2.905-0.031-5.282,3.087-5.312,6.966c-0.026,3.88,2.304,7.051,5.208,7.083
																			c2.905,0.028,5.282-3.088,5.311-6.97C383.435,127.705,381.104,124.537,378.2,124.506z"/>
																	</g>
																</g>
															</g>
														</g>
													</g>
												</g>
											</g>
										</g>
									</g>
								</g>
							</g>
						</g>
					</g>
				</g>
				<g>
					<g>
						<g>
							<g>
								<g>
									<g>
										<g>
											<g>
												<g>
													<g>
														<g>
															<g>
																<g>
																	<g>
																		<path fill="#FFFFFF" d="M374.925,123.811c-1.475-0.016-2.682,1.081-2.69,2.446
																			c-0.011,1.368,1.178,2.49,2.655,2.506c1.475,0.017,2.681-1.08,2.691-2.448
																			C377.591,124.948,376.402,123.828,374.925,123.811z"/>
																	</g>
																</g>
															</g>
														</g>
													</g>
												</g>
											</g>
										</g>
									</g>
								</g>
							</g>
						</g>
					</g>
				</g>
				<g>
					<g>
						<g>
							<g>
								<g>
									<g>
										<g>
											<g>
												<g>
													<g>
														<g>
															<g>
																<g>
																	<g>
																		<path fill="#FFFFFF" d="M379.677,123.063c-0.515-0.006-0.935,0.376-0.939,0.854
																			c-0.004,0.476,0.411,0.867,0.927,0.873c0.515,0.006,0.936-0.377,0.937-0.854
																			C380.608,123.46,380.192,123.067,379.677,123.063z"/>
																	</g>
																</g>
															</g>
														</g>
													</g>
												</g>
											</g>
										</g>
									</g>
								</g>
							</g>
						</g>
					</g>
				</g>
			</g>
		</g>
		<g>
			<g>
				<g>
					<g>
						<g>
							<g>
								<g>
									<g>
										<g>
											<g>
												<g>
													<g>
														<g>
															<g>
																<g>
																	<g>
																		<g>
																			<path fill="#470A00" d="M322.411,118.423c-4.058-0.416-7.778,3.588-8.306,8.943
																				c-0.527,5.353,2.334,10.028,6.392,10.442c4.059,0.416,7.777-3.588,8.306-8.942
																				C329.33,123.514,326.468,118.837,322.411,118.423z"/>
																		</g>
																	</g>
																</g>
															</g>
														</g>
													</g>
												</g>
											</g>
										</g>
									</g>
								</g>
							</g>
						</g>
					</g>
					<g>
						<g>
							<g>
								<g>
									<g>
										<g>
											<g>
												<g>
													<g>
														<g>
															<g>
																<g>
																	<g>
																		<g>
																			<path fill="#5A1C03" d="M322.411,118.423c-4.058-0.416-7.778,3.588-8.306,8.943
																				c-0.268,2.726,0.344,5.277,1.545,7.181c5.005,0.707,10.248-1.353,13.082-5.103
																				c0.027-0.192,0.051-0.385,0.071-0.578C329.33,123.514,326.468,118.837,322.411,118.423z"/>
																		</g>
																	</g>
																</g>
															</g>
														</g>
													</g>
												</g>
											</g>
										</g>
									</g>
								</g>
							</g>
						</g>
					</g>
					<g>
						<g>
							<g>
								<g>
									<g>
										<g>
											<g>
												<g>
													<g>
														<g>
															<g>
																<g>
																	<g>
																		<g>
																			<path fill="#1C0501" d="M322.467,117.856c-4.389-0.448-8.416,3.79-8.973,9.446
																				c-0.559,5.659,2.558,10.627,6.948,11.073c4.389,0.449,8.414-3.788,8.973-9.446
																				C329.972,123.273,326.855,118.305,322.467,117.856z M320.553,137.243c-3.715-0.38-6.333-4.784-5.836-9.814
																				c0.497-5.033,3.922-8.819,7.638-8.438c3.716,0.38,6.333,4.781,5.837,9.814
																				C327.695,133.837,324.268,137.621,320.553,137.243z"/>
																		</g>
																	</g>
																</g>
															</g>
														</g>
													</g>
												</g>
											</g>
										</g>
									</g>
								</g>
							</g>
						</g>
					</g>
				</g>
				<g>
					<g>
						<g>
							<g>
								<g>
									<g>
										<g>
											<g>
												<g>
													<g>
														<g>
															<g>
																<g>
																	<g>
																		<path d="M322.704,123.067c-2.643-0.271-5.07,2.375-5.419,5.908c-0.349,3.535,1.513,6.618,4.158,6.888
																			c2.643,0.27,5.07-2.375,5.419-5.91C327.21,126.422,325.349,123.338,322.704,123.067z"/>
																	</g>
																</g>
															</g>
														</g>
													</g>
												</g>
											</g>
										</g>
									</g>
								</g>
							</g>
						</g>
					</g>
				</g>
				<g>
					<g>
						<g>
							<g>
								<g>
									<g>
										<g>
											<g>
												<g>
													<g>
														<g>
															<g>
																<g>
																	<g>
																		<path fill="#FFFFFF" d="M319.777,122.162c-1.344-0.138-2.532,0.762-2.655,2.007
																			c-0.123,1.245,0.866,2.366,2.21,2.504c1.344,0.137,2.533-0.761,2.656-2.007
																			C322.112,123.421,321.122,122.3,319.777,122.162z"/>
																	</g>
																</g>
															</g>
														</g>
													</g>
												</g>
											</g>
										</g>
									</g>
								</g>
							</g>
						</g>
					</g>
				</g>
				<g>
					<g>
						<g>
							<g>
								<g>
									<g>
										<g>
											<g>
												<g>
													<g>
														<g>
															<g>
																<g>
																	<g>
																		
																			<ellipse transform="matrix(0.0991 -0.9951 0.9951 0.0991 169.9153 433.0055)" fill="#FFFFFF" cx="324.094" cy="122.663" rx="0.791" ry="0.853"/>
																	</g>
																</g>
															</g>
														</g>
													</g>
												</g>
											</g>
										</g>
									</g>
								</g>
							</g>
						</g>
					</g>
				</g>
			</g>
		</g>
		
			<ellipse transform="matrix(0.7785 0.6277 -0.6277 0.7785 184.593 -178.5185)" fill="#FFDEDE" cx="345.211" cy="172.262" rx="0.44" ry="0.766"/>
	</g>
</g>
</svg>
