<svg version="1.1" id="Layer_1" xmlns="http://www.w3.org/2000/svg" xmlns:xlink="http://www.w3.org/1999/xlink" viewBox="0 0 768 430" enable-background="new 0 0 768 430" xml:space="preserve">
<path id="Shade_1_" fill-rule="evenodd" clip-rule="evenodd" fill="#D1D1D1" d="M388.975,378.668
	c38.822,0,69.321-13.732,69.321-26.714s-31.664-23.569-70.486-23.569c-38.823,0-70.486,10.588-70.486,23.569
	S350.153,378.668,388.975,378.668z"/>
<g id="Yogurt_2_">
	<g>
		<path fill-rule="evenodd" clip-rule="evenodd" fill="#FFFFFF" d="M327.951,171.955c-34.801,10.052-21.415,25.708,15.229,33.769
			c38.751,8.523,90.803,2.663,103.319-0.011c12.518-2.673,39.894-15.914,1.81-31.149
			C423.672,164.708,356.992,163.566,327.951,171.955z"/>
		<linearGradient id="SVGID_1_" gradientUnits="userSpaceOnUse" x1="304.6616" y1="169.9492" x2="472.6319" y2="169.9492">
			<stop  offset="0" style="stop-color:#E3ACA9"/>
			<stop  offset="1" style="stop-color:#EECBCA"/>
		</linearGradient>
		<path fill-rule="evenodd" clip-rule="evenodd" fill="url(#SVGID_1_)" d="M322.613,157.832
			c-27.949,7.92-29.815,18.521-13.667,26.146c-0.586-3.959,8.481-10.184,25.941-13.809c28-5.812,95.607-4.115,119.193,7.296
			c9.021,4.365,10.985,6.653,13.238,10.691c12.408-8.305,11.92-17.417-10.99-26.288
			C431.188,152.133,361.051,146.939,322.613,157.832z"/>
	</g>
	<linearGradient id="SVGID_2_" gradientUnits="userSpaceOnUse" x1="289.8359" y1="284.9941" x2="487.2922" y2="284.9941">
		<stop  offset="0" style="stop-color:#F59994"/>
		<stop  offset="1" style="stop-color:#FBD8D6"/>
	</linearGradient>
	<path fill-rule="evenodd" clip-rule="evenodd" fill="url(#SVGID_2_)" d="M475.889,193.981l-0.592,5.368l-16.721,151.737
		c-1.545,12.511-35.464,25.016-70.127,25.016c-34.657,0-70.058-12.516-71.346-25.026l-15.59-154.627l-0.257-2.561l34.799,0.021
		c1.068,0.251,2.157,0.497,3.267,0.738c15.538,3.373,33.024,4.629,49.609,4.718c28.588,0.157,54.505-3.142,63.146-5.011
		c0.513-0.11,1.048-0.241,1.603-0.382L475.889,193.981z"/>
	<path id="Top_xB4_s_shade" fill-rule="evenodd" clip-rule="evenodd" fill="#CC807B" d="M301.257,193.887
		c0,0,1.422,13.68,2.208,21.914c17.379,19.071,86.562,24.613,102.099,23.218c10.953-0.982,64.871-19.291,68.541-28.845
		c0.485-4.593,1.784-16.193,1.784-16.193l-77.308,19.553L301.257,193.887z"/>
	<g id="Top">
		<path fill-rule="evenodd" clip-rule="evenodd" fill="#FFFFFF" d="M448.966,151.083l-3.718,9.473
			c3.252,0.765,6.127,1.587,8.541,2.456c40.528,14.632,14.103,29.337-0.109,33.055c-0.555,0.141-1.09,0.272-1.603,0.382
			c-4.064,0.88-11.94,2.074-22.121,3.074c-0.387,0.042-0.774,0.079-1.173,0.115h-0.005c-0.168,0.016-0.335,0.037-0.508,0.052
			c-0.021,0-0.042,0-0.062,0.005c-4.105,0.382-8.563,0.738-13.266,1.021c-0.052,0.005-0.109,0.005-0.162,0.01
			c-0.026,0-0.047,0.005-0.068,0.005c-0.021,0-0.042,0-0.058,0.005c-0.518,0.026-1.036,0.058-1.555,0.089h-0.053
			c-1.351,0.078-2.713,0.146-4.101,0.209h-0.005c-0.319,0.016-0.634,0.032-0.953,0.047c-6.096,0.267-12.506,0.414-19.057,0.377
			c-16.585-0.089-34.071-1.346-49.609-4.718c-1.11-0.241-2.199-0.487-3.267-0.739c-37.433-8.866-48.771-24.676-13.443-36.076
			c14.469-4.666,39.962-6.226,65.235-5.541c13.548,0.367,27.032,1.383,38.721,2.907c0.006,0,0.016,0.005,0.021,0.005
			c0.01,0,0.021,0,0.031,0.005c1.204-3.88,2.414-7.771,3.618-11.652c-0.01,0-0.021-0.005-0.031-0.01c-0.006,0-0.016,0-0.021-0.005
			c-15.925-4.452-31.195-8.316-42.789-10.762c-8.955-1.885-15.727-2.933-18.9-2.739c-15.093,5.718-108.847,36.663-110.738,44.46
			v0.031l0.016,0.739c0.969,4.744,19.737,12.804,43.738,21.177c29.08,10.139,65.847,20.743,87.957,26.482
			c2.65,0.687,5.091,1.31,7.279,1.844c0.199,0.052,0.393,0.1,0.586,0.146c2.818,0.687,5.2,1.241,7.06,1.634h0.021
			c0.011,0.005,0.021,0.005,0.032,0.011c0.523,0.11,1,0.204,1.435,0.288c0.021,0.005,0.037,0.01,0.053,0.01
			c0.025,0.006,0.052,0.011,0.079,0.016c0.041,0.012,0.083,0.017,0.125,0.021c0.1,0.021,0.193,0.042,0.288,0.058
			c1.299,0.235,5.462-0.922,11.447-3.043c0.026-0.005,0.053-0.016,0.084-0.025c0.194-0.068,0.393-0.142,0.592-0.21
			c0.419-0.152,0.854-0.309,1.293-0.466v-0.005c13.931-5.075,36.066-14.548,55.453-23.859
			c21.193-10.181,39.093-20.177,39.375-24.037C515.002,172.842,483.194,161.347,448.966,151.083z"/>
		
			<linearGradient id="SVGID_3_" gradientUnits="userSpaceOnUse" x1="799.7256" y1="173.6895" x2="-822.0768" y2="201.9982" gradientTransform="matrix(0.9997 -0.023 0.023 0.9997 -3.4717 8.6772)">
			<stop  offset="0" style="stop-color:#FAC8C5"/>
			<stop  offset="0.2285" style="stop-color:#FCE0DE"/>
			<stop  offset="0.4672" style="stop-color:#FEF1F1"/>
			<stop  offset="0.7184" style="stop-color:#FFFCFB"/>
			<stop  offset="1" style="stop-color:#FFFFFF"/>
		</linearGradient>
		<path fill-rule="evenodd" clip-rule="evenodd" fill="url(#SVGID_3_)" d="M446.682,155.173L446.682,155.173
			c-0.741,1.7,0.199,3.665,1.988,4.151c1.877,0.51,3.591,1.042,5.119,1.592c40.528,14.631,14.103,29.336-0.109,33.055
			c-0.555,0.141-1.09,0.272-1.603,0.382c-4.064,0.879-11.94,2.073-22.121,3.074c-0.387,0.042-0.774,0.079-1.173,0.115h-0.005
			c-0.168,0.016-0.335,0.037-0.508,0.052c-0.021,0-0.042,0-0.062,0.005c-4.105,0.382-8.563,0.739-13.266,1.021
			c-0.052,0.005-0.109,0.005-0.162,0.01c-0.026,0-0.047,0.005-0.068,0.005c-0.021,0-0.042,0-0.058,0.005
			c-0.518,0.026-1.036,0.058-1.555,0.089h-0.053c-1.351,0.078-2.713,0.146-4.101,0.209h-0.005c-0.319,0.016-0.634,0.032-0.953,0.047
			c-6.096,0.267-12.506,0.414-19.057,0.377c-16.585-0.089-34.071-1.346-49.609-4.718c-1.11-0.241-2.199-0.487-3.267-0.738
			c-37.433-8.866-48.771-24.676-13.443-36.077c14.469-4.666,39.962-6.227,65.235-5.541c13.548,0.367,27.032,1.383,38.721,2.906
			c0.006,0,0.016,0.005,0.021,0.005c0.01,0,0.021,0,0.031,0.006c1.146-3.691,2.296-3.599,3.441-6.922
			c0.114-0.33,0.173-0.68,0.171-1.028c-0.009-1.108-0.018-3.708-0.025-3.713c-0.001,0-0.002,0.077-0.002,0.209
			c-0.014,2.001-1.925,3.445-3.854,2.914c-14.527-4-28.296-7.449-38.955-9.698c-8.677-1.826-13.054-2.353-18.384-2.705
			c-0.342-0.022-0.685,0.013-1.016,0.104C351.27,139.01,259.631,166.784,257.76,174.5v0.032l0.005,0.215
			c0.011,0.538,0.153,1.068,0.442,1.521c3.079,4.829,20.916,12.367,43.307,20.179c29.08,10.138,65.847,20.742,87.957,26.482
			c2.65,0.686,5.091,1.31,7.279,1.844c0.199,0.052,0.393,0.1,0.586,0.146c2.818,0.686,5.2,1.24,7.06,1.633h0.021
			c0.011,0.006,0.021,0.006,0.032,0.011c0.523,0.11,1,0.205,1.435,0.288c0.021,0.006,0.037,0.011,0.053,0.011
			c0.025,0.006,0.052,0.011,0.079,0.016c0.041,0.011,0.083,0.016,0.125,0.021c0.1,0.021,0.192,0.057,0.288,0.058
			c2.365,0.029,5.462-0.922,11.447-3.043c0.026-0.006,0.053-0.016,0.084-0.026c0.194-0.068,0.393-0.142,0.592-0.209
			c0.419-0.152,0.854-0.309,1.293-0.467v-0.005c13.931-5.074,36.066-14.548,55.453-23.859c21.193-10.18,39.093-20.177,39.375-24.037
			c0.322-4.452-31.048-11.957-64.338-21.841C448.862,153.034,447.296,153.766,446.682,155.173z"/>
	</g>
	<linearGradient id="Label_1_" gradientUnits="userSpaceOnUse" x1="315.3188" y1="293.1963" x2="462.9152" y2="293.1963">
		<stop  offset="0" style="stop-color:#FBD8D6"/>
		<stop  offset="1" style="stop-color:#FFFFFF"/>
	</linearGradient>
	<path id="Label" fill-rule="evenodd" clip-rule="evenodd" fill="url(#Label_1_)" d="M324.809,235.47
		c-1.467-0.624-3.038,0.603-2.879,2.264l8.876,93.005c2.751,26.861,113.249,26.861,115.672,1.591l9.837-91.857
		c0.175-1.637-1.34-2.891-2.804-2.323C422.026,250.347,361.952,251.265,324.809,235.47z"/>
	<g id="Spoon_xB4_s_shade">
		<linearGradient id="SVGID_4_" gradientUnits="userSpaceOnUse" x1="424.6006" y1="166.0303" x2="447.5889" y2="166.0303">
			<stop  offset="0" style="stop-color:#99605C"/>
			<stop  offset="1" style="stop-color:#CC807B"/>
		</linearGradient>
		<path fill-rule="evenodd" clip-rule="evenodd" fill="url(#SVGID_4_)" d="M446.797,174.647c0,0-8.502-2.425-11.384-3.03
			c-2.677-0.561-10.812-1.669-10.812-1.669l4.267-12.536l18.722,3.666L446.797,174.647z"/>
		<polygon fill-rule="evenodd" clip-rule="evenodd" fill="#EFEFEF" points="447.759,159.071 437.508,156.649 428.017,155.187 
			427.689,157.112 436.919,158.94 447.589,161.079 		"/>
		<linearGradient id="SVGID_5_" gradientUnits="userSpaceOnUse" x1="431.3906" y1="154.3574" x2="453.3695" y2="154.3574">
			<stop  offset="0" style="stop-color:#99605C"/>
			<stop  offset="1" style="stop-color:#CC807B"/>
		</linearGradient>
		<polygon fill-rule="evenodd" clip-rule="evenodd" fill="url(#SVGID_5_)" points="453.734,154.475 447.759,159.071 
			430.613,155.798 437.725,149.643 		"/>
		<path id="Shade_2_" fill-rule="evenodd" clip-rule="evenodd" fill="#EFEFEF" d="M434.89,188.182
			c-0.796,0.474-3.142,0.914-6.793,0.914c-7.359,0-13.325-1.277-13.325-2.852c0-1.038,2.59-1.945,6.463-2.444
			c2.004-0.259,5.104-14.349,7.502-13.852c1.554,0.323,17.385,4.248,18.061,4.699C445.713,176.702,435.15,188.027,434.89,188.182z"
			/>
	</g>
</g>
<g id="Spoon_1_">
	<g>
		<linearGradient id="SVGID_6_" gradientUnits="userSpaceOnUse" x1="417.3994" y1="113.7578" x2="487.5703" y2="113.7578">
			<stop  offset="0" style="stop-color:#4D5E84"/>
			<stop  offset="0.0338" style="stop-color:#5A5151"/>
			<stop  offset="1" style="stop-color:#A7A7A7"/>
		</linearGradient>
		<path fill="url(#SVGID_6_)" d="M417.472,184.603c-0.217,0.688,0.071,1.108,0.66,1.525c0.962,0.681,1.876,0.948,5.062,1.635
			c3.267,0.705,7.812,0.393,9.478-0.004c0.606-0.144,1.195-0.319,1.421-0.901c4.751-12.25,40.073-99.007,51.928-132.205
			c1.39-3.893,5.423-7.448-9.569-13.482l0.005-0.014c-0.038-0.012-0.075-0.02-0.113-0.032c-0.039-0.015-0.074-0.031-0.113-0.047
			l-0.005,0.014c-15.204-4.553-14.445,0.736-15.663,4.633C449.204,82.09,422.251,169.43,417.472,184.603z"/>
		<path fill="#DDDDDD" d="M434.951,133.556c6.061-19.563,12.323-39.788,18.691-60.348l4.792-15.477l2.409-7.778
			c1.069-2.372,0.771-5.68,3.427-7.266c5.148-2.345,11.138-0.505,15.784,2.083c2.291,1.367,4.812,3.141,5.484,5.966
			c0.541,2.939-1.641,5.195-2.267,7.833c-15.987,40.753-31.993,81.56-47.018,119.901c-2.997,7.538-3.47,7.579-0.458-0.18
			c15.065-38.324,31.109-79.116,47.141-119.853c0.644-2.616,2.795-4.979,2.259-7.628c-0.605-2.628-3.05-4.401-5.314-5.745
			c-4.573-2.582-10.544-4.333-15.438-2.103c-2.465,1.383-2.365,4.589-3.299,7.086c-0.712,1.906-2.416,7.773-2.416,7.773
			l-4.809,15.471c-6.387,20.556-12.671,40.773-18.753,60.329C423.004,172.736,422.828,172.68,434.951,133.556z"/>
	</g>
	<path id="Shine" fill="#DFDFDF" d="M477.505,51.075c-0.896-3.722-7.028-5.155-10.646-6.146c-0.52-0.142-0.435-0.905,0.103-0.929
		c1.838-0.081,4.249-0.091,6.331,0.21c4.098,0.594,9.95,4.975,9.95,7.332c0,1.852-5.374,14.894-9.334,23.152
		c-0.333,0.696-1.383,0.274-1.141-0.458C475.225,66.823,478.624,55.725,477.505,51.075z"/>
</g>
<g id="Strawberry">
	<g>
		<path fill-rule="evenodd" clip-rule="evenodd" fill="#E7B953" d="M397.892,278.188c-3.88-1.335-9.971-1.272-10.526,1.975
			c-0.057,0.318-0.031,0.606,0.058,0.869c-1.282-0.016-2.54,0.031-3.76,0.173c-0.562,0.075-0.569,0.077-1.11,0.157
			c-5.886,1-10.652,4.508-11.972,14.023c-0.9,6.504,2.775,17.041,8.321,26.724c-0.173,0.104-0.345,0.21-0.524,0.304
			c-0.146,0.084-0.293,0.157-0.439,0.23c-0.209,0.104-0.414,0.199-0.618,0.283c-0.125,0.052-0.251,0.104-0.376,0.146
			c-0.205,0.078-0.414,0.146-0.619,0.204c-0.167,0.047-0.335,0.089-0.502,0.125c-0.084,0.017-0.167,0.032-0.251,0.048
			c-0.089,0.016-0.178,0.031-0.267,0.042c-0.157,0.021-0.314,0.036-0.471,0.047c-0.555,0.031-1.137-0.026-1.739-0.168
			c-0.325-0.078-0.66-0.178-1-0.303c-0.681-0.252-1.383-0.604-2.1-1.032c-0.288-0.168-0.576-0.356-0.864-0.561
			c-0.152-0.1-0.304-0.204-0.456-0.314c-0.288-0.209-0.581-0.429-0.874-0.659c-0.184-0.152-0.372-0.304-0.561-0.456
			c-0.561-0.471-1.126-0.974-1.686-1.519c0-0.005,0-0.005-0.006-0.005c-0.565-0.545-1.136-1.121-1.702-1.733
			c-0.566-0.618-1.137-1.263-1.702-1.938c-7.824-9.296-15.04-23.802-14.831-32.055c0-0.137,0.005-0.272,0.01-0.408
			c0.011-0.235,0.032-0.462,0.058-0.687c0.042-0.346,0.083-0.686,0.136-1.021c0.026-0.162,0.052-0.33,0.083-0.492
			c0.021-0.162,0.052-0.319,0.084-0.476c0.031-0.162,0.062-0.32,0.094-0.473c0.56-2.623,1.461-4.691,2.608-6.305
			c0.068-0.095,0.136-0.188,0.204-0.277c0.068-0.095,0.142-0.184,0.209-0.272c0.236-0.304,0.493-0.586,0.754-0.854
			c0.152-0.156,0.304-0.309,0.46-0.45c3.404-3.157,8.102-3.666,12.443-3.216c-4.955,1.163-6.378,8.698-4.441,9.688
			c3.158,1.781,8.316-4.629,8.332-3.76c0.046,3.09,3.372,9.169,6.844,7.892c3.472-1.272,0.235-8.384,1.566-9.212
			c1.34-0.837,4.305,3.2,7.305,0.687c2.996-2.509,2.22-5.776,1.43-6.049c0.545,0.142,1.079,0.288,1.593,0.45
			c0.178,0.058,0.351,0.115,0.523,0.173c0.209,0.068,0.413,0.142,0.618,0.215c0.24,0.089,0.476,0.179,0.706,0.272
			c0.419,0.168,0.827,0.351,1.221,0.539c0.016,0.005,0.031,0.017,0.042,0.017c0.193,0.099,0.382,0.193,0.565,0.293
			c0.193,0.1,0.388,0.204,0.57,0.314c0.188,0.104,0.372,0.215,0.556,0.329c0.759,0.482,1.461,1.011,2.095,1.598
			c0.125,0.11,0.246,0.23,0.366,0.351c0.246,0.241,0.477,0.492,0.696,0.754c0.089,0.1,0.173,0.204,0.257,0.31
			c0.099,0.12,0.193,0.241,0.283,0.366c0.094,0.126,0.183,0.252,0.267,0.383c0.068,0.089,0.131,0.178,0.188,0.272
			c0.142,0.22,0.277,0.445,0.403,0.676c0.126,0.214,0.241,0.429,0.346,0.654c0.042,0.083,0.084,0.172,0.12,0.256
			c0.073,0.147,0.137,0.294,0.199,0.44c0,0,0.006,0.005,0,0.011c0.063,0.131,0.115,0.267,0.162,0.402
			c0.048,0.115,0.089,0.23,0.131,0.346C397.593,277.057,397.755,277.611,397.892,278.188z"/>
		<path fill-rule="evenodd" clip-rule="evenodd" fill="#79A05E" d="M371.398,267.683c-0.12-0.99-0.209-1.964-0.267-2.912
			c0.482,0.351,0.822,0.733,0.953,1.126c0.142-0.366,0.44-0.76,0.843-1.142c0.047,0.911,0.115,1.844,0.188,2.791
			C373.368,268.725,371.551,268.955,371.398,267.683z"/>
		<path fill-rule="evenodd" clip-rule="evenodd" fill="#79A05E" d="M384.004,270.337c-2.011,4.918-6.421-1.136-8.882,0.199
			c-1.503,0.545,1.901,7.913-0.54,9.243c-2.44,1.336-5.587-5.776-4.194-8.876c-2.032-0.367-8.484,6.195-9.343,5.185
			c-1.44-1.398,1.382-7.405,6.703-7.673c-0.754-1.732-7.389-1.67-6.724-4.341c0.493-1.953,5.761-1.435,8.866-0.011
			c0.058,1.314,0.173,2.655,0.314,3.996c0.293,2.691,4.687,2.021,4.273-0.21c-0.146-1.424-0.304-2.749-0.403-4.011
			c2.676-1.786,7.091-3.012,8.19-0.707c1.226,2.576-6.619,3.174-6.954,5.294C379.516,265.834,386.01,265.42,384.004,270.337z"/>
		<path fill-rule="evenodd" clip-rule="evenodd" fill="#FFFFFF" d="M373.116,267.546c0.251,1.179-1.565,1.409-1.718,0.137
			c-0.12-0.99-0.209-1.964-0.267-2.912c-0.335-5.409,0.288-10.049,1.964-12.84c0.487-0.294,1.618-0.037,2.069,1.183
			c-2.174,2.394-2.493,6.672-2.236,11.642C372.975,265.666,373.043,266.599,373.116,267.546z"/>
		<path fill-rule="evenodd" clip-rule="evenodd" fill="#A5C967" d="M373.116,267.546c0.251,1.179-1.565,1.409-1.718,0.137
			c-0.12-0.99-0.209-1.964-0.267-2.912c-0.335-5.409,0.288-10.049,1.964-12.84c0.487-0.294,1.618-0.037,2.069,1.183
			c-2.174,2.394-2.493,6.672-2.236,11.642C372.975,265.666,373.043,266.599,373.116,267.546z"/>
		<path fill-rule="evenodd" clip-rule="evenodd" fill="#BF4241" d="M397.404,276.532c-0.042-0.115-0.083-0.23-0.131-0.346
			c-0.047-0.136-0.099-0.271-0.162-0.402c0.006-0.006,0-0.011,0-0.011c-0.062-0.146-0.126-0.293-0.199-0.44
			c-0.036-0.084-0.078-0.173-0.12-0.256c-0.104-0.226-0.22-0.44-0.346-0.654c-0.126-0.23-0.262-0.456-0.403-0.676
			c-0.058-0.095-0.12-0.184-0.188-0.272c-0.084-0.131-0.173-0.257-0.267-0.383c-0.09-0.125-0.185-0.246-0.283-0.366
			c-0.084-0.105-0.168-0.21-0.257-0.31c-0.22-0.262-0.45-0.513-0.696-0.754c-0.12-0.12-0.241-0.24-0.366-0.351
			c-0.634-0.587-1.336-1.115-2.095-1.598c-0.184-0.114-0.367-0.226-0.556-0.329c-0.183-0.11-0.377-0.215-0.57-0.314
			c-0.184-0.1-0.372-0.194-0.565-0.293c-0.011,0-0.026-0.012-0.042-0.017c-0.394-0.188-0.802-0.371-1.221-0.539
			c-0.23-0.094-0.466-0.184-0.706-0.272c-0.205-0.073-0.409-0.146-0.618-0.215c-0.173-0.058-0.346-0.115-0.523-0.173
			c-0.514-0.162-1.048-0.309-1.593-0.45c0.79,0.272,1.566,3.54-1.43,6.049c-3,2.514-5.965-1.523-7.305-0.687
			c-1.331,0.828,1.906,7.939-1.566,9.212c-3.472,1.277-6.798-4.802-6.844-7.892c-0.016-0.869-5.174,5.541-8.332,3.76
			c-1.938-0.99-0.514-8.525,4.441-9.688c-4.656-0.424-9.186,0.236-12.443,3.216c-0.157,0.142-0.309,0.294-0.46,0.45
			c-0.262,0.268-0.519,0.55-0.754,0.854c-0.068,0.089-0.141,0.178-0.209,0.272c-0.068,0.09-0.136,0.183-0.204,0.277
			c-1.163,1.619-2.063,3.692-2.608,6.305c-0.032,0.152-0.063,0.311-0.094,0.473c-0.032,0.156-0.063,0.313-0.084,0.476
			c-0.031,0.162-0.058,0.33-0.083,0.492c-0.053,0.336-0.094,0.676-0.136,1.021c-0.026,0.225-0.047,0.451-0.058,0.687
			c-0.005,0.136-0.01,0.271-0.01,0.408c-0.188,8.259,7.018,22.759,14.831,32.055c0.565,0.675,1.136,1.319,1.702,1.938
			c0.571,0.607,1.136,1.188,1.702,1.733c0.006,0,0.006,0,0.006,0.005c0.565,0.54,1.131,1.048,1.686,1.519
			c0.188,0.152,0.377,0.304,0.561,0.456c0.293,0.23,0.586,0.45,0.874,0.659c0.152,0.11,0.304,0.215,0.456,0.314
			c0.288,0.204,0.576,0.388,0.864,0.561c0.717,0.429,1.419,0.78,2.1,1.032c0.34,0.125,0.675,0.225,1,0.303
			c0.602,0.142,1.184,0.199,1.739,0.168c0.157-0.011,0.314-0.026,0.471-0.047c0.089-0.011,0.178-0.026,0.267-0.042
			c0.084-0.016,0.167-0.031,0.251-0.048c0.167-0.036,0.335-0.078,0.502-0.125c0.205-0.058,0.414-0.126,0.619-0.204
			c0.125-0.042,0.251-0.095,0.376-0.146c0.204-0.084,0.409-0.179,0.618-0.283c0.146-0.073,0.293-0.146,0.439-0.23
			c0.179-0.094,0.351-0.199,0.524-0.304c-5.546-9.683-9.222-20.22-8.321-26.724c1.32-9.516,6.085-13.023,11.972-14.023
			c-0.241-0.435-0.435-0.943-0.451-1.126c-0.073-0.744,1.184-1.085,1.498-0.372c0.115,0.267,0.136,0.844,0.062,1.341
			c1.22-0.142,2.478-0.188,3.76-0.173c-0.089-0.263-0.114-0.551-0.058-0.869c0.556-3.247,6.646-3.31,10.526-1.975
			C397.755,277.611,397.593,277.057,397.404,276.532z M355.489,278.946c-0.12,0.331-1.146,1.65-1.565,1.478
			c-0.419-0.168-0.131-1.781,0.209-2.215C354.615,277.596,355.746,278.245,355.489,278.946z M356.694,286.854
			c0.115-0.771,1.414-0.759,1.54-0.026c0.058,0.346-0.189,2-0.634,2.059C357.154,288.944,356.61,287.398,356.694,286.854z
			 M358.354,300.37c-0.43,0.152-1.278-1.251-1.31-1.801c-0.042-0.775,1.231-1.037,1.503-0.347
			C358.678,298.554,358.778,300.224,358.354,300.37z M364.03,282.801c-0.445-0.062-0.57-1.696-0.346-2.199
			c0.309-0.712,1.566-0.366,1.498,0.371C365.146,281.329,364.481,282.858,364.03,282.801z M365.811,304.319
			c-0.43,0.151-1.278-1.252-1.31-1.802c-0.042-0.775,1.231-1.037,1.508-0.346C366.136,302.501,366.235,304.173,365.811,304.319z
			 M365.533,295.4c-0.45,0.043-0.948-1.519-0.848-2.062c0.141-0.766,1.44-0.718,1.545,0.021
			C366.277,293.709,365.979,295.354,365.533,295.4z M373.703,316.086c0.136-0.765,1.44-0.718,1.54,0.021
			c0.047,0.351-0.246,1.995-0.697,2.043C374.096,318.191,373.604,316.631,373.703,316.086z M368.963,312.823
			c-0.398,0.215-1.451-1.047-1.561-1.581c-0.162-0.765,1.063-1.21,1.435-0.57C369.016,310.98,369.361,312.614,368.963,312.823z
			 M369.514,289.53c-0.445,0.058-0.99-1.492-0.906-2.031c0.115-0.771,1.414-0.765,1.54-0.032
			C370.21,287.817,369.964,289.468,369.514,289.53z"/>
	</g>
	<g>
		<path fill-rule="evenodd" clip-rule="evenodd" fill="#BF4241" d="M405.081,289.199c1.441-0.897,4.672,3.552,7.894,0.854
			c3.221-2.697,1.514-6.328,0.663-6.62c8.384,2.134,14.477,4.643,14.797,14.091c0.524,15.497-14.38,43.781-25.308,44.423
			c-10.927,0.641-31.189-31.664-29.483-44.934c1.693-13.17,10.337-13.612,18.96-12.828c-5.322,1.251-7.089,9.401-5.012,10.462
			c3.393,1.912,8.883-5.464,8.898-4.533c0.052,3.323,3.392,10.056,7.122,8.688C407.344,297.435,403.656,290.088,405.081,289.199z"/>
		<g>
			<path fill="#E96559" d="M426.539,298.034c-0.297-8.526-5.095-12.675-12.901-14.601c0.792,0.264,1.567,3.431-1.431,5.864
				c-1.924,1.562-3.833,0.513-5.309-0.227c0.061,0.701,0.379,1.695,1.37,2.943c0.744,0.938,2.017,1.952,3.245,3.315
				c0.068,0.026,0.136,0.053,0.207,0.086c3.134,1.405,10.596,5.302,10.596,5.302c1.487,1.557-4.344-0.187-8.28-1.425
				c0.592,1.515,0.922,3.329,0.769,5.549c3.144,1.637,7.208,3.861,7.208,3.861c1.239,1.277-3.854-0.525-7.464-1.858
				c-0.06,0.325-0.128,0.658-0.207,1c-0.271,1.169-0.553,2.419-0.852,3.715c2.888,1.524,6.01,3.233,6.01,3.233
				c1.123,1.157-2.959-0.216-6.421-1.477c-0.456,1.919-0.951,3.9-1.504,5.841c2.52,1.342,4.888,2.639,4.888,2.639
				c1.009,1.039-2.178,0.038-5.345-1.09c-0.426,1.388-0.883,2.738-1.378,4.01c2.069,1.109,3.791,2.053,3.791,2.053
				c0.9,0.928-1.543,0.229-4.332-0.733c-0.59,1.365-1.232,2.612-1.936,3.685c1.5,0.809,2.603,1.412,2.603,1.412
				c0.791,0.815-0.997,0.376-3.332-0.396c-1.388,1.765-2.996,2.852-4.886,2.883v0.001c-0.014,0-0.026-0.001-0.04-0.001
				s-0.027,0.001-0.041,0.001v-0.001c-1.79-0.029-3.328-1.007-4.665-2.61c-1.896,0.589-3.177,0.836-2.486,0.123
				c0,0,0.736-0.401,1.823-0.99c-0.761-1.083-1.452-2.368-2.085-3.792c-2.369,0.786-4.201,1.241-3.402,0.419
				c0,0,1.256-0.688,2.911-1.58c-0.527-1.306-1.012-2.702-1.461-4.145c-2.809,0.973-5.289,1.685-4.383,0.752
				c0,0,1.819-0.996,3.964-2.146c-0.575-1.977-1.09-4.008-1.562-5.979c-3.197,1.141-6.456,2.172-5.438,1.122
				c0,0,2.478-1.356,5.061-2.73c-0.344-1.476-0.664-2.898-0.97-4.218c-0.049-0.215-0.094-0.426-0.136-0.634
				c-3.472,1.265-7.596,2.655-6.468,1.492c0,0,3.252-1.779,6.189-3.326c-0.231-2.28,0.035-4.148,0.581-5.708
				c-3.805,1.173-8.414,2.453-7.073,1.049c0,0,5.513-2.877,9.051-4.58c1.415-1.787,3.046-3.009,3.93-4.123
				c0.604-0.76,0.907-1.401,1.035-1.93c-1.379,1.044-5.259,4.869-7.822,3.469c-1.935-0.957-0.511-8.262,4.444-9.391
				c-8.03-0.708-15.666,1.458-17.079,13.411c-1.419,11.994,17.277,41.127,27.451,40.548
				C413.151,337.544,427.027,312.019,426.539,298.034z"/>
			<path fill="#F59994" d="M391.018,296.138c-3.538,1.703-9.051,4.58-9.051,4.58c-1.341,1.404,3.269,0.124,7.073-1.049
				c-0.546,1.56-0.812,3.428-0.581,5.708c-2.937,1.547-6.189,3.326-6.189,3.326c-1.128,1.163,2.997-0.228,6.468-1.492
				c0.042,0.208,0.087,0.419,0.136,0.634c0.306,1.319,0.626,2.742,0.97,4.218c-2.583,1.374-5.061,2.73-5.061,2.73
				c-1.018,1.05,2.241,0.019,5.438-1.122c0.472,1.972,0.986,4.003,1.562,5.979c-2.145,1.149-3.964,2.146-3.964,2.146
				c-0.906,0.933,1.574,0.221,4.383-0.752c0.449,1.442,0.934,2.839,1.461,4.145c-1.655,0.893-2.911,1.58-2.911,1.58
				c-0.799,0.822,1.033,0.367,3.402-0.419c0.633,1.424,1.324,2.709,2.085,3.792c-1.087,0.589-1.823,0.99-1.823,0.99
				c-0.69,0.713,0.591,0.466,2.486-0.123c1.337,1.604,2.875,2.581,4.665,2.61v0.001c0.014,0,0.027-0.001,0.041-0.001
				s0.026,0.001,0.04,0.001v-0.001c1.89-0.031,3.498-1.118,4.886-2.883c2.335,0.771,4.123,1.211,3.332,0.396
				c0,0-1.103-0.604-2.603-1.412c0.703-1.072,1.346-2.319,1.936-3.685c2.789,0.963,5.232,1.661,4.332,0.733
				c0,0-1.722-0.943-3.791-2.053c0.495-1.271,0.952-2.622,1.378-4.01c3.167,1.128,6.354,2.129,5.345,1.09
				c0,0-2.368-1.297-4.888-2.639c0.553-1.94,1.048-3.922,1.504-5.841c3.462,1.261,7.544,2.634,6.421,1.477
				c0,0-3.122-1.709-6.01-3.233c0.299-1.296,0.581-2.546,0.852-3.715c0.079-0.342,0.147-0.675,0.207-1
				c3.609,1.333,8.703,3.136,7.464,1.858c0,0-4.064-2.225-7.208-3.861c0.153-2.22-0.177-4.034-0.769-5.549
				c3.937,1.238,9.768,2.981,8.28,1.425c0,0-7.462-3.896-10.596-5.302c-0.071-0.033-0.139-0.06-0.207-0.086
				c-1.229-1.363-2.501-2.378-3.245-3.315c-0.991-1.248-1.31-2.242-1.37-2.943c-0.825-0.413-1.516-0.729-1.996-0.439
				c-0.554,0.334-0.314,1.728-0.098,3.328c3.691,2.717,3.443,10.961,3.443,20.032c0,11.104-3.806,20.104-6.566,20.104
				s-5.969-9.219-5.969-20.322c0-7.888-0.527-15.043,1.683-18.525c-0.556-1.192-0.89-2.406-0.904-3.34
				c-0.003-0.158-0.188-0.066-0.509,0.176c-0.128,0.528-0.432,1.17-1.035,1.93C394.063,293.129,392.433,294.351,391.018,296.138z"/>
			<path fill="#F5C5AD" d="M403.338,297.562c-0.003,0.001-0.005,0.002-0.007,0.002c0.399,3.519,0.649,8.487,0.649,13.994
				c0,10.664-0.936,19.31-2.09,19.31s-2.089-8.646-2.089-19.31c0-5.738,0.271-10.892,0.701-14.428
				c-1.276-0.809-2.382-2.326-3.107-3.881c-2.21,3.482-1.683,10.638-1.683,18.525c0,11.104,3.208,20.322,5.969,20.322
				s6.566-9.001,6.566-20.104c0-9.071,0.248-17.315-3.443-20.032C405.106,294.198,405.363,296.843,403.338,297.562z"/>
			<path fill="#F2A89F" d="M401.891,330.867c1.154,0,2.09-8.646,2.09-19.31c0-5.507-0.25-10.476-0.649-13.994
				c-0.978,0.346-1.944,0.126-2.828-0.434c-0.431,3.536-0.701,8.689-0.701,14.428C399.802,322.222,400.736,330.867,401.891,330.867z
				"/>
		</g>
		<path fill-rule="evenodd" clip-rule="evenodd" fill="#79A05E" d="M412.146,286.66c-2.011,4.918-6.421-1.136-8.882,0.199
			c-1.503,0.545,1.901,7.913-0.54,9.243c-2.439,1.33-5.587-5.776-4.193-8.877c-2.032-0.366-8.484,6.195-9.343,5.185
			c-1.44-1.397,1.382-7.404,6.703-7.677c-0.755-1.729-7.39-1.665-6.725-4.336c0.492-1.953,5.761-1.435,8.866-0.011
			c0.058,1.314,0.173,2.655,0.313,3.99c0.288,2.697,4.688,2.027,4.273-0.204c-0.146-1.424-0.304-2.749-0.402-4.011
			c2.67-1.786,7.091-3.012,8.189-0.708c1.226,2.577-6.618,3.174-6.954,5.295C407.658,282.156,414.152,281.743,412.146,286.66z"/>
		<path fill-rule="evenodd" clip-rule="evenodd" fill="#A5C967" d="M403.309,269.434c-0.452-1.218-1.584-1.476-2.072-1.183
			c-1.969,3.286-2.484,9.118-1.695,15.753c0.152,1.273,1.969,1.041,1.715-0.135C400.759,277.734,400.732,272.263,403.309,269.434z"
			/>
	</g>
</g>
</svg>
