<svg version="1.1" id="Layer_1" xmlns="http://www.w3.org/2000/svg" xmlns:xlink="http://www.w3.org/1999/xlink" viewBox="0 0 768 430" enable-background="new 0 0 768 430" xml:space="preserve">
<g>
	<g>
		<ellipse fill="#FF4640" cx="463.441" cy="224.778" rx="130.983" ry="123.528"/>
		<ellipse fill="#FF5246" cx="455.05" cy="200.703" rx="104.415" ry="98.47"/>
		<path fill="#D63434" d="M591.936,200.703c0.006,0.498,0.02,0.995,0.02,1.494c0,68.223-58.643,123.527-130.984,123.527
			c-63.074,0-115.729-42.046-128.185-98.038c0.85,67.532,59.154,122.034,130.963,122.034c72.341,0,130.983-55.306,130.983-123.528
			C594.732,217.452,593.765,208.929,591.936,200.703z"/>
		
			<ellipse transform="matrix(0.9912 -0.1326 0.1326 0.9912 -11.8488 64.172)" fill="#D63434" cx="475.851" cy="121.041" rx="35.788" ry="13.788"/>
		<path fill="#399C4A" d="M534.783,144.011c-12.367-19.179-38.133-23.702-62.576-13.786c-0.077,0.032-0.148,0.084-0.2,0.151
			c-10.919,13.622-15.694,26.964-8.162,38.106c-2.337-2.199-2.508-3.071-4.027-6.124c-5.606-11.284-3.784-24.833,5.087-35.758
			c0.23-0.285,0.063-0.717-0.3-0.765c-20.037-2.641-38.687,2.828-43.94,17.029c0.413-3.191,1.771-4.408,3.366-7.423
			c6.071-11.447,20.325-16.976,34.821-15.715c0.53,0.046,0.714-0.682,0.227-0.896c-15.757-6.908-32.991-7.87-42.164,1.944
			c1.62-2.777,3.768-3.558,6.405-5.72c12.075-9.888,32.246-7.623,46.342,4.012c-0.049-0.415-0.049-0.842,0.039-1.282
			c4.197-20.367-6.257-41.061-25.229-49.73c-1.683-0.766-2.514-2.675-1.872-4.41c0.013-0.026,0.013-0.038,0.025-0.063
			c0.703-1.872,2.84-2.802,4.673-1.985c20.657,9.269,35.472,30.72,34.105,52.581c-0.025,0.382,0.385,0.629,0.707,0.423
			l22.269-14.219c3.845-2.462,8.229-3.43,12.451-3.04c7.363,0.653,13.607,5.704,16.371,12.564l-0.522-1.191
			c-6.156-8.293-16.865-6.549-25.712-0.907l-14.31,9.147c-0.397,0.254-0.212,0.857,0.261,0.854
			c13.491-0.061,26.843,5.752,35.849,16.761C531.806,138.303,533.1,139.827,534.783,144.011z"/>
		<path fill="#39B54A" d="M534.847,144.108c-12.368-19.179-39.163-26.211-63.606-16.295c-0.079,0.032-0.149,0.084-0.201,0.151
			c-10.92,13.622-14.727,29.377-7.194,40.519c-2.337-2.199-4.347-4.812-5.867-7.865c-5.604-11.284-2.912-25.503,5.959-36.429
			c0.23-0.285,0.064-0.717-0.299-0.765c-20.038-2.641-37.734,5.352-42.989,19.553c0.414-3.191,1.371-6.345,2.965-9.361
			c6.071-11.446,19.773-17.562,34.271-16.302c0.53,0.046,0.714-0.683,0.226-0.896c-15.756-6.907-32.082-5.395-41.255,4.42
			c1.62-2.777,3.719-5.315,6.357-7.476c12.074-9.889,31.385-8.343,45.482,3.292c-0.049-0.415-0.049-0.842,0.039-1.281
			c4.197-20.367-6.258-41.061-25.229-49.73c-1.684-0.766-2.515-2.676-1.873-4.41c0.013-0.025,0.013-0.038,0.026-0.062
			c0.702-1.872,2.839-2.802,4.673-1.986c20.655,9.269,35.472,30.721,34.104,52.582c-0.024,0.382,0.386,0.629,0.708,0.423
			l22.27-14.218c3.843-2.463,8.229-3.43,12.45-3.041c7.363,0.654,13.607,5.704,16.372,12.564l0.967,2.413
			c-6.156-8.293-18.356-10.152-27.201-4.511l-14.311,9.146c-0.397,0.255-0.212,0.857,0.261,0.855
			c13.491-0.061,26.845,5.752,35.85,16.76C530.839,135.891,533.163,139.924,534.847,144.108z"/>
		<circle fill="#FF6C4E" cx="513.317" cy="200.703" r="39.901"/>
		
			<ellipse transform="matrix(0.866 0.5 -0.5 0.866 147.3172 -169.8206)" fill="#FF6C4E" cx="390.556" cy="189.994" rx="20.301" ry="29.835"/>
	</g>
	<g>
		<path fill="#D63434" d="M443.212,255.453c-10.36,67.43-86.469,112.849-154.087,103.583
			c-67.619-9.265-100.043-69.543-90.783-137.134c9.261-67.591,49.375-104.326,119.106-108.072
			C394.71,108.956,456.739,167.4,443.212,255.453z"/>
		<g>
			
				<ellipse transform="matrix(0.9959 0.09 -0.09 0.9959 22.5456 -26.4799)" fill="#FF4640" cx="304.883" cy="236.747" rx="116.086" ry="123.527"/>
			<path fill="#FF8565" d="M314.895,125.962c-57.499-5.196-108.594,40.191-114.123,101.376
				c-5.529,61.184,36.601,114.997,94.099,120.192c57.499,5.196,108.595-40.191,114.123-101.376
				C414.523,184.971,372.394,131.158,314.895,125.962z M394.293,244.827c-0.838,9.263-2.891,18.104-5.977,26.36
				c-2.986,7.991-11.763,10.913-17.959,6.03l-18.634-14.688c-23.756-18.725-36.559-50.519-33.587-83.406l1.87-20.686
				c0.787-8.713,8.613-14.444,15.921-11.677C373.333,160.928,398.285,200.639,394.293,244.827z M304.045,156.995l-1.87,20.686
				c-2.972,32.887-21.268,61.871-47.995,76.034l-20.966,11.109c-6.971,3.693-15.081-0.755-16.587-9.152
				c-1.555-8.676-1.991-17.742-1.154-27.005c3.993-44.188,35.662-78.782,75.001-86.014
				C298.16,141.241,304.833,148.282,304.045,156.995z M296.286,331.887c-23.252-2.102-43.578-13.46-58.082-30.38
				c-5.632-6.569-3.659-17.59,3.82-21.553l18.727-9.923c26.728-14.163,57.827-11.352,81.582,7.371l16.645,13.121
				c6.647,5.239,6.612,16.436-0.106,21.889C341.571,326.458,319.538,333.988,296.286,331.887z"/>
			<g>
				<path fill="none" d="M358.978,290.525l-16.644-13.123c-9.525-7.506-20.231-12.452-31.361-14.774
					c3.245,12.773,6.859,24.2,10.125,31.342c1.182,2.588,0.545,5.787-1.525,7.623c-13.125,11.644-29.94,10.124-40.766-3.683
					c-1.707-2.178-1.761-5.44-0.133-7.773c4.493-6.442,10.097-17.034,15.58-29.02c-11.368,0.289-22.786,3.236-33.503,8.914
					l-18.726,9.924c-7.478,3.962-9.451,14.982-3.821,21.553c14.504,16.92,34.829,28.277,58.083,30.379
					c23.252,2.102,45.285-5.429,62.587-19.475C365.589,306.959,365.625,295.763,358.978,290.525z"/>
				<path fill="none" d="M281.816,230.232c-11.51-2.981-22.173-4.953-29.362-5.205c-2.604-0.093-4.735-2.254-5.073-5.156
					c-2.146-18.406,7.746-34.077,23.983-37.993c2.56-0.618,5.097,0.9,6.048,3.61c2.625,7.482,7.866,18.046,14.241,29.161
					c5.674-11.226,9.331-23.783,10.522-36.969l1.87-20.685c0.788-8.715-5.884-15.755-13.57-14.342
					c-39.34,7.23-71.007,41.825-75.001,86.013c-0.837,9.263-0.402,18.329,1.154,27.005c1.505,8.397,9.615,12.845,16.586,9.153
					l20.965-11.11C264.896,248.034,274.255,239.974,281.816,230.232z"/>
				<path fill="none" d="M335.926,146.761c-7.308-2.769-15.134,2.962-15.921,11.677l-1.87,20.685
					c-1.179,13.056,0.129,25.938,3.62,37.901c8.332-9.858,15.444-19.386,19.392-26.319c1.422-2.496,4.19-3.534,6.598-2.467
					c15.272,6.763,22.194,23.953,16.783,41.675c-0.854,2.796-3.337,4.54-5.915,4.163c-7.181-1.05-18.155-1.011-30.137-0.116
					c5.716,11.15,13.573,20.944,23.248,28.571l18.634,14.688c6.196,4.882,14.972,1.961,17.958-6.03
					c3.086-8.257,5.139-17.1,5.977-26.36C398.285,200.638,373.333,160.927,335.926,146.761z"/>
				<path fill="#FF8565" d="M314.895,125.964c-57.5-5.196-108.593,40.19-114.123,101.375c-5.529,61.184,36.6,114.995,94.1,120.191
					c57.499,5.196,108.593-40.19,114.122-101.375C414.523,184.971,372.394,131.16,314.895,125.964z M216.627,255.672
					c-1.556-8.676-1.991-17.742-1.154-27.005c3.994-44.188,35.661-78.783,75.001-86.013c7.686-1.413,14.358,5.627,13.57,14.342
					l-1.87,20.685c-0.601,6.648-1.829,13.137-3.625,19.375c-2.272,7.89-11.78,9.059-15.295,1.916
					c-2.496-5.07-4.508-9.676-5.844-13.484c-0.952-2.715-3.505-4.224-6.07-3.603c-16.216,3.923-26.096,19.575-23.962,37.96
					c0.337,2.908,2.465,5.09,5.074,5.183c3.658,0.128,8.216,0.701,13.328,1.627c7.201,1.304,9.405,11.704,3.517,16.742
					c-4.657,3.985-9.715,7.454-15.118,10.318l-20.965,11.11C226.243,268.517,218.132,264.069,216.627,255.672z M358.873,312.412
					c-17.302,14.046-39.334,21.576-62.587,19.475c-23.253-2.102-43.579-13.459-58.083-30.379c-5.63-6.57-3.657-17.591,3.821-21.553
					l18.726-9.924c5.403-2.863,10.985-5.032,16.649-6.516c7.163-1.876,12.637,6.792,8.833,13.926
					c-2.699,5.065-5.274,9.418-7.56,12.696c-1.63,2.339-1.562,5.611,0.149,7.792c10.821,13.782,27.616,15.301,40.732,3.681
					c2.074-1.838,2.729-5.047,1.544-7.638c-1.662-3.636-3.414-8.38-5.162-13.848c-2.462-7.699,4.477-15.246,11.187-12.115
					c5.306,2.474,10.408,5.607,15.211,9.393l16.644,13.123C365.625,295.763,365.589,306.959,358.873,312.412z M370.358,277.218
					l-18.634-14.688c-4.99-3.935-9.498-8.445-13.478-13.423c-4.82-6.028-0.85-15.803,6.432-15.818
					c5.415-0.013,10.191,0.239,13.936,0.786c2.583,0.378,5.069-1.39,5.922-4.191c5.393-17.703-1.521-34.87-16.768-41.637
					c-2.412-1.07-5.196-0.045-6.62,2.456c-2.015,3.539-4.854,7.753-8.26,12.343c-4.781,6.444-13.932,3.468-14.714-4.772
					c-0.597-6.281-0.622-12.695-0.039-19.151l1.87-20.685c0.787-8.714,8.613-14.445,15.921-11.677
					c37.407,14.166,62.359,53.877,58.367,98.066c-0.838,9.261-2.891,18.104-5.977,26.36
					C385.33,279.179,376.554,282.1,370.358,277.218z"/>
			</g>
			<g>
				<path fill="#FF8565" d="M349.418,164.046c-0.916-0.721-2.356-0.2-3.217,1.166c-0.862,1.365-2.106,5.096-1.19,5.818
					c0.915,0.722,3.644-1.84,4.505-3.206C350.377,166.459,350.333,164.768,349.418,164.046z"/>
				<path fill="#FF8565" d="M359.405,173.514c-0.787-0.893-2.28-0.658-3.337,0.523c-1.056,1.181-2.852,4.626-2.065,5.519
					c0.786,0.892,3.858-1.106,4.914-2.287C359.973,176.088,360.191,174.407,359.405,173.514z"/>
				<path fill="#FF8565" d="M372.579,201.01c1.344-0.711,2.058-2.22,1.596-3.368c-0.462-1.148-1.926-1.502-3.27-0.791
					c-1.343,0.712-4.064,3.283-3.602,4.432C367.765,202.432,371.236,201.722,372.579,201.01z"/>
				<path fill="#FF8565" d="M364.387,184.692c-1.218,0.96-3.511,4.016-2.877,5.052c0.634,1.036,3.956-0.339,5.174-1.3
					c1.218-0.961,1.691-2.58,1.058-3.616C367.106,183.792,365.605,183.731,364.387,184.692z"/>
				<path fill="#FF8565" d="M371.207,213.826c0.276,1.224,3.791,1.202,5.218,0.761s2.361-1.792,2.084-3.017
					c-0.276-1.226-1.657-1.862-3.085-1.421C373.996,210.589,370.93,212.599,371.207,213.826z"/>
				<path fill="#FF8565" d="M373.103,226.985c0.083,1.267,3.533,1.931,5.001,1.774c1.468-0.156,2.593-1.309,2.511-2.575
					c-0.083-1.266-1.341-2.164-2.809-2.009C376.337,224.333,373.02,225.721,373.103,226.985z"/>
				<path fill="#FF8565" d="M377.98,238.511c-1.466-0.133-4.934,0.59-5.048,1.856c-0.115,1.269,3.167,2.601,4.633,2.732
					c1.465,0.133,2.746-0.788,2.861-2.054C380.539,239.776,379.445,238.644,377.98,238.511z"/>
				<path fill="#FF8565" d="M375.939,252.715c-1.416-0.417-4.931-0.382-5.239,0.849c-0.308,1.23,2.708,3.189,4.125,3.606
					c1.416,0.418,2.815-0.241,3.123-1.472C378.255,254.467,377.356,253.132,375.939,252.715z"/>
				<path fill="#FF8565" d="M333.031,303.577c-1.03,0.546-0.475,4.439,0.128,5.937s1.927,2.269,2.957,1.724
					c1.03-0.546,1.376-2.203,0.772-3.699C336.287,306.04,334.062,303.031,333.031,303.577z"/>
				<path fill="#FF8565" d="M321.808,308.245c-1.095,0.338-1.15,4.296-0.791,5.896c0.361,1.598,1.541,2.62,2.635,2.283
					c1.095-0.34,1.69-1.91,1.329-3.508C324.621,311.317,322.902,307.908,321.808,308.245z"/>
				<path fill="#FF8565" d="M310.076,310.667c-1.126,0.119-1.791,4.021-1.684,5.673c0.107,1.649,1.106,2.89,2.232,2.771
					c1.126-0.119,1.952-1.556,1.845-3.206C312.362,314.254,311.203,310.545,310.076,310.667z"/>
				<path fill="#FF8565" d="M286.522,308.538c-1.086-0.32-2.892,3.119-3.293,4.723c-0.401,1.606,0.154,3.166,1.24,3.485
					c1.086,0.32,2.292-0.721,2.693-2.326S287.608,308.857,286.522,308.538z"/>
				<path fill="#FF8565" d="M298.194,310.765c-1.123-0.102-2.378,3.626-2.528,5.278c-0.149,1.652,0.641,3.075,1.764,3.177
					c1.123,0.101,2.155-1.156,2.304-2.81C299.883,314.758,299.317,310.865,298.194,310.765z"/>
				<path fill="#FF8565" d="M275.415,304.053c-1.016-0.528-3.317,2.519-3.959,4.026c-0.642,1.508-0.337,3.159,0.679,3.688
					c1.017,0.528,2.36-0.265,3.001-1.772C275.777,308.485,276.431,304.582,275.415,304.053z"/>
				<path fill="#FF8565" d="M265.21,297.448c-0.916-0.723-3.643,1.84-4.505,3.203c-0.862,1.366-0.818,3.058,0.097,3.779
					c0.916,0.722,2.356,0.2,3.218-1.165S266.125,298.168,265.21,297.448z"/>
				<path fill="#FF8565" d="M237.117,241.492c-0.082-1.267-3.533-1.932-5.002-1.774c-1.468,0.156-2.592,1.309-2.51,2.574
					c0.082,1.266,1.339,2.165,2.808,2.009C233.882,244.144,237.199,242.757,237.117,241.492z"/>
				<path fill="#FF8565" d="M237.288,228.109c0.114-1.268-3.169-2.6-4.634-2.731c-1.465-0.133-2.745,0.787-2.86,2.054
					c-0.114,1.268,0.98,2.402,2.445,2.535C233.705,230.099,237.173,229.377,237.288,228.109z"/>
				<path fill="#FF8565" d="M234.28,215.763c1.417,0.417,4.932,0.381,5.239-0.849c0.308-1.231-2.708-3.19-4.125-3.608
					c-1.417-0.417-2.814,0.242-3.122,1.472S232.864,215.346,234.28,215.763z"/>
				<path fill="#FF8565" d="M238.473,202.12c1.326,0.69,4.779,1.343,5.271,0.187c0.492-1.157-2.165-3.683-3.49-4.373
					s-2.798-0.312-3.291,0.845C236.471,199.934,237.147,201.43,238.473,202.12z"/>
				<path fill="#FF8565" d="M247.083,185.662c-1.194-0.94-2.698-0.855-3.359,0.192c-0.661,1.046-0.229,2.658,0.966,3.599
					c1.193,0.94,4.481,2.261,5.142,1.215C250.493,189.621,248.277,186.604,247.083,185.662z"/>
				<path fill="#FF8565" d="M262.581,164.765c-0.934,0.737-1.02,2.429-0.192,3.781c0.827,1.351,3.49,3.868,4.424,3.131
					c0.934-0.737-0.215-4.448-1.042-5.799C264.943,164.526,263.515,164.027,262.581,164.765z"/>
				<path fill="#FF8565" d="M255.675,174.868c-1.026-1.164-2.514-1.374-3.324-0.468c-0.809,0.905-0.633,2.583,0.392,3.747
					c1.027,1.164,4.047,3.112,4.857,2.207C258.41,179.448,256.702,176.032,255.675,174.868z"/>
				<path fill="#FF8565" d="M274.103,157.24c-1.03,0.545-1.376,2.202-0.772,3.7c0.603,1.498,2.828,4.507,3.857,3.961
					s0.475-4.439-0.128-5.937C276.457,157.466,275.133,156.694,274.103,157.24z"/>
				<path fill="#FF8565" d="M286.567,152.055c-1.095,0.338-1.689,1.907-1.329,3.506c0.361,1.599,2.079,5.009,3.174,4.671
					c1.094-0.338,1.15-4.296,0.79-5.895C288.841,152.739,287.662,151.717,286.567,152.055z"/>
			</g>
		</g>
	</g>
</g>
</svg>
