<svg xmlns="http://www.w3.org/2000/svg" viewBox="0 0 768 430"><style>.a{fill:#B5915B;}.b{fill:#C49D63;}.c{fill:#E0B87E;}</style><path d="M451.5 61.4c-9.5 4.2-24.1 7.2-50.8 7.2s-40-2.2-50.8-7.2l6.7 121.2h99.4L451.5 61.4z" class="a"/><path d="M400.7 83.3c26.7 0 41.3-3.1 50.8-7.2V61.4c-9.5 4.2-24.1 7.2-50.8 7.2s-40-2.2-50.8-7.2l0.6 15C361.3 81.2 374.6 83.3 400.7 83.3z" fill="#C9A571"/><path d="M489.5 194.1l33.6-103.1c0 0-50.4-21.6-66.4-27.2 -17.6 60.4-47.2 88-56 98.3 -8.8-10.4-38.4-37.9-56-98.3 -16 5.6-66.4 27.2-66.4 27.2l33.6 103.1c0 0 6.6 82.2-6 172.9 2.1 9 1.1 11.5 1.1 11.5s29.7 14.3 93.6 14.3c64 0 91.7-14.3 91.7-14.3s-1-2.5 1.1-11.5C483.3 292.4 489.5 194.1 489.5 194.1z" fill="#CDA467"/><path d="M278.4 91c-25.6 64-36 158.3-38.4 268.6 14.4 1.6 40.8 6.4 40.8 6.4s17.6-111.1 31.2-171.9C316.8 149.3 284.8 92.6 278.4 91z" class="b"/><polygon points="279.9 376.6 239 370.4 240.1 353.3 281.7 360.2 " class="c"/><path d="M523.1 91c25.6 64 36 158.3 38.4 268.6 -14.4 1.6-40.8 6.4-40.8 6.4s-17.6-111.1-31.2-171.9C484.7 149.3 516.7 92.6 523.1 91z" class="b"/><path d="M451.5 61.4c-5.7 21.2-25.7 65.7-50.8 93.8 -25-28.1-45.1-72.6-50.8-93.8l-13.7 5.8c6.3 23.8 30 78 64.4 111.9 34.5-33.9 57.9-88.5 64.2-112.3L451.5 61.4z" class="c"/><polygon points="521.9 376.8 562.8 370.6 561.4 353.3 519.8 360.2 " class="c"/><path d="M493.5 367c-18.3 5-43.4 13.3-92.8 15.1 -49.3-1.8-76.5-10-94.7-15.1l0.1 16.7C324.9 388.9 359.5 399 401.8 399c42.3 0 72.9-10.1 91.6-15.2L493.5 367z" class="c"/><path d="M400.7 392.7c2.8 0 5.6 0 8.3-0.1V155.3h-0.7c-3.1 2.8-5.7 5.1-7.6 6.9 -1.9-1.8-4.5-4-7.6-6.9h-0.7v237.4C395.2 392.7 397.9 392.7 400.7 392.7z" class="c"/><path d="M401.6 201.9c-1.8 0-3.2 1.4-3.2 3.2 0 1.8 1.4 3.2 3.2 3.2 1.8 0 3.2-1.4 3.2-3.2C404.8 203.4 403.4 201.9 401.6 201.9zM401.6 210.3c-2.8 0-5.1-2.3-5.1-5.1s2.3-5.1 5.1-5.1c2.8 0 5.1 2.3 5.1 5.1S404.4 210.3 401.6 210.3z" class="a"/><path d="M401.6 242.7c-1.8 0-3.2 1.4-3.2 3.2 0 1.8 1.4 3.2 3.2 3.2 1.8 0 3.2-1.4 3.2-3.2C404.8 244.2 403.4 242.7 401.6 242.7zM401.6 251.1c-2.8 0-5.1-2.3-5.1-5.1 0-2.8 2.3-5.1 5.1-5.1 2.8 0 5.1 2.3 5.1 5.1C406.8 248.8 404.4 251.1 401.6 251.1z" class="a"/><path d="M401.6 283.5c-1.8 0-3.2 1.4-3.2 3.2s1.4 3.2 3.2 3.2c1.8 0 3.2-1.4 3.2-3.2S403.4 283.5 401.6 283.5zM401.6 291.9c-2.8 0-5.1-2.3-5.1-5.1 0-2.8 2.3-5.1 5.1-5.1 2.8 0 5.1 2.3 5.1 5.1C406.8 289.6 404.4 291.9 401.6 291.9z" class="a"/><path d="M401.6 324.3c-1.8 0-3.2 1.4-3.2 3.2 0 1.8 1.4 3.2 3.2 3.2 1.8 0 3.2-1.4 3.2-3.2C404.8 325.8 403.4 324.3 401.6 324.3zM401.6 332.7c-2.8 0-5.1-2.3-5.1-5.1 0-2.8 2.3-5.1 5.1-5.1 2.8 0 5.1 2.3 5.1 5.1C406.8 330.4 404.4 332.7 401.6 332.7z" class="a"/><path d="M401.6 365.1c-1.8 0-3.2 1.4-3.2 3.2 0 1.8 1.4 3.2 3.2 3.2 1.8 0 3.2-1.4 3.2-3.2C404.8 366.5 403.4 365.1 401.6 365.1zM401.6 373.5c-2.8 0-5.1-2.3-5.1-5.1 0-2.8 2.3-5.1 5.1-5.1 2.8 0 5.1 2.3 5.1 5.1C406.8 371.2 404.4 373.5 401.6 373.5z" class="a"/><path d="M402.3 172c-2.8 0-5.1-2.3-5.1-5.1 0-2.8 2.3-5.1 5.1-5.1 2.8 0 5.1 2.3 5.1 5.1C407.4 169.7 405.1 172 402.3 172zM402.3 163.7c-1.8 0-3.2 1.4-3.2 3.2 0 1.8 1.4 3.2 3.2 3.2 1.8 0 3.2-1.4 3.2-3.2C405.5 165.1 404 163.7 402.3 163.7z" class="a"/></svg>