<?xml version="1.0" encoding="utf-8"?>
<!-- Generator: Adobe Illustrator 16.0.0, SVG Export Plug-In . SVG Version: 6.00 Build 0)  -->
<!DOCTYPE svg PUBLIC "-//W3C//DTD SVG 1.1//EN" "http://www.w3.org/Graphics/SVG/1.1/DTD/svg11.dtd">
<svg version="1.1" id="Layer_2" xmlns="http://www.w3.org/2000/svg" xmlns:xlink="http://www.w3.org/1999/xlink" x="0px" y="0px"
	 width="768px" height="430px" viewBox="0 0 768 430" enable-background="new 0 0 768 430" xml:space="preserve">
<g>
	<g>
		<path fill="#FFAD03" d="M373.707,318.285c0,0-0.113,20.858-4.623,22.204c-8.456,2.419-26.607-4.165-28.412,5.305
			c-0.789,6.314,5.525,7.78,6.878,7.78c-0.677,1.916,0.563,10.033,10.485,8.794c0.226,2.593,3.495,9.81,15.671,0.677
			c5.75-4.962,5.835-10.103,7.892-10.712c1.917-0.566,16.123,8.457,19.619-3.832c1.577-8.012-17.364-2.819-19.28-6.766
			c-0.452-3.043,4.172-12.853,6.539-15.784C382.275,323.584,373.707,318.285,373.707,318.285z"/>
		<path fill="#FFBD00" d="M381.938,341.735c-0.279-1.889-1.126-7.3,0.751-11.139c-4.293-2.715-6.503-4.494-9.072-8.969
			c-0.247,5.95-1.161,17.855-4.532,18.861c-8.456,2.419-22.774-3.676-24.277,4.743c-0.789,6.312,3.515,5.608,4.868,5.608
			c-0.676,1.917,0.039,8.438,9.96,7.198c0.226,2.593,1.558,9.716,13.132,2.944c5.75-4.961,5.759-11.272,7.816-11.88
			c1.918-0.566,13.98,8.004,16.687-0.532C398.85,340.56,383.854,345.682,381.938,341.735z"/>
		<path fill="#E37A00" d="M363.657,367.755c-4.201,0-5.584-3.511-5.818-5.136c-0.611,0.068-1.206,0.103-1.771,0.103
			c-4.134,0-6.301-1.837-7.391-3.378c-1.365-1.929-1.683-4.328-1.418-5.559c-1.196-0.108-3.71-0.824-5.324-2.653
			c-1.253-1.42-1.753-3.225-1.485-5.365c0.931-4.889,6.136-5.514,10.566-5.514c2.063,0,4.297,0.15,6.458,0.297
			c2.119,0.143,4.309,0.291,6.292,0.291c2.2,0,3.918-0.186,5.256-0.568c4.297-1.283,4.458-21.781,4.459-21.988l0.002-0.402
			l0.342,0.213c0.085,0.052,8.621,5.313,14.73,7.647l0.291,0.11l-0.195,0.241c-2.449,3.031-6.883,12.652-6.497,15.574
			c0.762,1.467,4.355,1.546,8.159,1.628c4.354,0.095,8.856,0.193,10.548,2.296c0.617,0.768,0.812,1.76,0.575,2.952
			c-1.261,4.438-4.068,6.681-8.347,6.681c0,0,0,0-0.001,0c-3.046-0.001-6.218-1.104-8.533-1.909
			c-1.255-0.438-2.248-0.782-2.743-0.782c-0.077,0-0.124,0.01-0.15,0.018c-0.771,0.227-1.278,1.268-1.98,2.709
			c-1.04,2.131-2.464,5.053-5.829,7.955C369.834,366.231,366.408,367.755,363.657,367.755z M358.24,362.115l0.021,0.233
			c0.12,1.379,1.323,4.956,5.396,4.956c2.65,0,5.986-1.494,9.915-4.44c3.283-2.833,4.683-5.705,5.706-7.804
			c0.753-1.543,1.297-2.659,2.258-2.943c0.511-0.151,1.572,0.216,3.17,0.771c2.286,0.795,5.415,1.884,8.385,1.884
			c0.001,0,0.001,0,0.002,0c4.108,0,6.695-2.071,7.908-6.333c0.206-1.052,0.048-1.897-0.49-2.565
			c-1.56-1.94-6.152-2.04-10.205-2.127c-4.145-0.091-7.723-0.168-8.57-1.913l-0.02-0.065c-0.464-3.13,4.023-12.573,6.397-15.715
			c-5.421-2.123-12.555-6.381-14.184-7.37c-0.04,2.991-0.461,20.732-4.78,22.021c-1.38,0.395-3.14,0.587-5.382,0.587
			c-1.999,0-4.196-0.149-6.323-0.292c-2.153-0.146-4.38-0.297-6.428-0.297c-6.409,0-9.435,1.535-10.121,5.135
			c-0.249,1.991,0.214,3.679,1.377,4.996c1.825,2.067,4.671,2.514,5.278,2.514h0.318l-0.106,0.301
			c-0.297,0.843-0.227,3.302,1.282,5.436c1.028,1.453,3.083,3.188,7.023,3.188c0.616,0,1.269-0.043,1.94-0.127L358.24,362.115z"/>
	</g>
	<g>
		<path fill="#6D2D01" d="M404.824,320.878c0,0-5.186,27.961,10.485,30.779c3.382,0.676,7.666-1.578,7.666-12.402
			c3.947,6.089,11.951,12.535,18.266,8.748c3.945-2.546,3.156-8.409,2.028-9.311c3.382,2.366,22.774,10.71,29.991-1.805
			c5.749-12.289-19.167-12.74-21.422-17.926C439.437,319.3,404.824,320.878,404.824,320.878z"/>
		<path fill="#7F3401" d="M404.824,320.878c0,0-5.186,22.419,10.485,25.237c3.382,0.678,6.17-3.956,3.934-15.448
			c3.946,6.088,12.302,16.028,18.615,12.241c3.946-2.547,0.51-8.312-0.618-9.214c3.384,2.368,22.733,8.465,29.059-1.125
			c2.531-6.074-12.205-8.422-14.46-13.607C439.437,319.3,404.824,320.878,404.824,320.878z"/>
		<path fill="#471C00" d="M416.397,351.992C416.396,351.992,416.396,351.992,416.397,351.992c-0.374,0-0.754-0.039-1.132-0.114
			c-3.22-0.579-5.813-2.26-7.703-4.994c-6.072-8.786-2.992-25.875-2.961-26.047l0.035-0.176l0.178-0.009
			c0.347-0.015,34.757-1.581,47.018-1.916l0.153-0.005l0.061,0.141c0.767,1.766,4.552,3.039,8.557,4.387
			c5.418,1.824,11.56,3.891,13.277,7.905c0.73,1.709,0.592,3.667-0.415,5.819c-2.626,4.555-7.041,6.854-13.131,6.854
			c-6.754,0-13.617-2.899-16.354-4.443c0.311,0.786,0.48,1.924,0.421,3.075c-0.073,1.453-0.566,4.129-3.037,5.723
			c-1.292,0.775-2.708,1.165-4.215,1.165c-5.229,0-10.676-4.609-13.953-9.368c-0.076,4.099-0.795,7.219-2.14,9.279
			C419.584,351.52,417.712,351.992,416.397,351.992z M405.017,321.096c-0.311,1.831-2.72,17.377,2.917,25.532
			c1.818,2.632,4.314,4.25,7.416,4.807c0.353,0.07,0.704,0.107,1.047,0.107c1.202,0,2.921-0.438,4.281-2.521
			c1.375-2.106,2.073-5.393,2.073-9.767v-0.762l0.414,0.641c3.051,4.706,8.729,9.773,13.983,9.773c1.424,0,2.76-0.369,3.977-1.098
			c2.296-1.481,2.757-3.996,2.826-5.362c0.087-1.734-0.358-3.209-0.821-3.579l0.271-0.36c1.786,1.251,9.423,4.879,16.934,4.879
			c5.918,0,10.201-2.225,12.73-6.611c0.955-2.043,1.089-3.826,0.4-5.435c-1.637-3.828-7.678-5.861-13.007-7.654
			c-4.179-1.407-7.8-2.626-8.76-4.496C439.782,319.521,407.729,320.972,405.017,321.096z"/>
	</g>
	<g>
		<path fill="#F2B370" d="M402.795,321.894c0,0-7.328,7.439-16.911,5.299c-13.417-3.045-15.671-7.893-20.745-32.583
			C367.506,297.541,402.795,321.894,402.795,321.894z"/>
		<path fill="#ED9538" d="M389.384,327.804c-1.189,0-2.384-0.131-3.549-0.392c-13.688-3.105-15.87-8.19-20.918-32.758l-0.186-0.909
			l0.583,0.722c2.321,2.873,37.257,26.998,37.609,27.241l0.222,0.151l-0.188,0.192C402.899,322.109,397.198,327.804,389.384,327.804
			z M365.512,295.308c4.892,23.689,7.133,28.649,20.42,31.665c1.134,0.253,2.295,0.381,3.451,0.381
			c6.823,0,12.005-4.456,13.055-5.432C399.304,319.756,370.334,299.716,365.512,295.308z"/>
	</g>
	<g>
		<path fill="#6D2D01" d="M346.726,236.095c0,0-5.677,21.668-21.009,21.357c-5.713-0.611-3.608-4.521-3.608-4.521
			c-3.607,3.607-21.647,20.745-17.438-3.758c-3.909,5.262-35.176,24.202-18.941-13.079c-3.608,0.602-21.045,1.804-37.28,16.837
			c-11.425,8.118-12.027,4.51-12.327,2.706s-3.307-15.334,16.235-27.059c-8.418,3.307-35.176,18.509-40.588,16.771
			c-1.203-6.55,0.602-17.072,19.542-29.099c-9.921,1.804-15.032,3.007-18.339,4.961c-3.308,1.955-17.438,9.906-18.34,1.57
			c-0.902-8.034,15.032-28.604,66.744-26.437c-3.608-5.649-6.313-25.113,11.726-34.473c-0.601,3.268,2.405,14.993,4.509,17.398
			c2.104,2.404,6.314,12.325,7.517,18.188c4.811,0.753,10.823,1.956,24.353,15.484c8.117-5.411,32.271-14.115,53.495-13.67
			C358.787,212.043,346.726,236.095,346.726,236.095z"/>
		<path fill="#7F3401" d="M309.481,212.944c-13.53-13.528-19.542-14.731-24.353-15.484c-1.203-5.863-5.412-15.783-7.517-18.188
			c-2.104-2.406-5.11-14.131-4.509-17.398c-18.039,9.359-15.333,28.824-11.726,34.473c-51.712-2.167-67.646,18.402-66.744,26.437
			c0.902,8.336,15.032,0.385,18.34-1.57c3.307-1.954,8.418-3.157,18.339-4.961c-18.941,12.026-20.745,22.549-19.542,29.099
			c5.412,1.737,32.169-13.465,40.588-16.771c-19.542,11.725-16.536,25.255-16.235,27.059c0.272,1.636,0.792,4.752,9.399-0.727
			c1.71-3.136,3.888-5.926,6.987-7.993c12.176-7.214,28.11-16.836,38.333-13.979c3.157,0.902-0.452,9.02,2.706,10.823
			c6.313,4.06,13.98-3.157,15.784-10.372c1.804,5.862,4.51,14.432,11.725,10.823c2.706-1.353,3.157-5.412,3.608-8.568
			c2.706,1.803,2.255,6.313,4.961,6.765c6.313,1.353,7.215-6.765,9.47-11.275c2.253-4.13,7.32-4.819,11.816-3.634
			c3.897-8.169,9.48-20.345,12.065-28.226C341.753,198.829,317.599,207.533,309.481,212.944z"/>
		<path fill="#8E3D03" d="M287.232,227.076c5.194-0.941,8.569,1.353,12.627,3.157c5.412,2.254,10.373-0.903,13.079-5.863
			c2.255,2.706,5.412,7.216,9.471,4.96c2.254-1.804,1.353-5.862,3.156-6.764c2.706-0.903,6.313,4.51,9.47,2.254
			c4.961-2.705,5.863-9.921,12.177-10.372c3.176-0.529,6.197,0.185,9.245,1.047c2.569-5.775,5.037-11.703,6.519-16.221
			c-21.224-0.445-45.378,8.259-53.495,13.67c-13.53-13.528-19.542-14.731-24.353-15.484c-1.203-5.863-5.412-15.783-7.517-18.188
			c-2.104-2.406-5.11-14.131-4.509-17.398c-18.039,9.359-15.333,28.824-11.726,34.473c-51.712-2.167-62.66,16.951-62.761,25.035
			c-0.046,3.719,15.183-3.701,18.49-5.655c3.308-1.955,13.078-2.556,19.727,0c-11.049,10.447-20.478,16.526-19.275,23.074
			c5.411,1.738,26.833-13.7,40.699-12.326c-14.124,8.474-20.18,26.457-16.121,24.076
			C257.627,241.464,263.557,231.359,287.232,227.076z"/>
		<path fill="#471C00" d="M307.96,262.347c-1.139,0-2.06-0.408-2.737-1.211c-1.494-1.772-1.799-5.537-0.907-11.199
			c-2.881,3.054-11.906,8.948-17.867,8.949c0,0,0,0-0.001,0c-2.091,0-3.621-0.717-4.548-2.131
			c-2.133-3.254-0.968-10.107,3.459-20.374c-0.231,0.033-0.498,0.069-0.798,0.11c-5.23,0.715-21.145,2.889-35.959,16.605
			c-4.874,3.466-8.225,5.142-10.266,5.142c-2.009,0-2.276-1.605-2.437-2.563l-0.03-0.177c-0.979-5.542-0.344-15.996,13.964-25.586
			c-2.46,1.123-5.627,2.691-9.135,4.428c-10.231,5.067-22.965,11.373-27.877,11.373c-0.436,0-0.813-0.05-1.12-0.148l-0.129-0.042
			l-0.024-0.133c-1.799-9.798,4.487-19.455,18.684-28.71c-8.991,1.654-13.925,2.824-17.145,4.728
			c-2.714,1.604-9.519,5.333-14.089,5.333c-2.763,0-4.307-1.322-4.589-3.934c-0.314-2.795,1.342-6.526,4.43-9.981
			c4.533-5.069,18.978-16.862,55.109-16.862c2.281,0,4.641,0.047,7.019,0.142c-1.767-3.099-3.609-10.374-1.524-18.15
			c1.885-7.027,6.572-12.658,13.555-16.281l0.41-0.212l-0.084,0.453c-0.602,3.275,2.397,14.855,4.458,17.209
			c2.041,2.333,6.249,12.047,7.535,18.139c4.441,0.695,10.552,1.782,24.193,15.394c8.542-5.605,31.755-13.624,51.885-13.624
			c0.531,0,1.059,0.006,1.586,0.017l0.305,0.007l-0.095,0.289c-4.094,12.479-15.841,36.007-16.253,36.831
			c-0.224,0.822-6.033,21.505-20.896,21.505c-0.109,0-0.22-0.002-0.331-0.004c-2.04-0.217-3.349-0.866-3.91-1.931
			c-0.365-0.691-0.339-1.421-0.221-1.978c-3.118,3.031-9.398,8.577-13.619,8.578C307.961,262.347,307.961,262.347,307.96,262.347z
			 M305.053,248.282l-0.16,0.93c-1.026,5.971-0.798,9.886,0.675,11.633c0.596,0.707,1.379,1.05,2.393,1.05c0,0,0.001,0,0.001,0
			c4.514,0,11.847-6.982,13.987-9.122l1.075-1.075l-0.716,1.341c-0.007,0.014-0.71,1.355-0.105,2.501
			c0.487,0.922,1.678,1.489,3.538,1.688c0.088,0.001,0.195,0.002,0.302,0.002c14.743,0,20.41-20.979,20.465-21.191l0.017-0.044
			c0.12-0.237,11.92-23.82,16.143-36.5c-20.47-0.352-44.516,7.942-53.061,13.639l-0.153,0.103l-0.131-0.131
			c-13.788-13.787-19.822-14.731-24.228-15.422l-0.155-0.023l-0.032-0.153c-1.235-6.025-5.438-15.768-7.465-18.086
			c-2.023-2.311-4.933-13.308-4.618-17.145c-6.657,3.569-11.129,9.023-12.945,15.797c-2.133,7.959-0.097,15.358,1.688,18.154
			l0.233,0.365l-0.432-0.019c-2.514-0.105-5.01-0.159-7.419-0.159c-35.95,0-50.28,11.688-54.773,16.713
			c-3.004,3.36-4.619,6.961-4.318,9.632c0.257,2.378,1.612,3.532,4.141,3.531c4.459,0,11.178-3.686,13.86-5.271
			c3.41-2.015,8.654-3.214,18.414-4.989l1.136-0.205l-0.975,0.619c-14.635,9.291-21.183,18.955-19.466,28.729
			c0.239,0.06,0.526,0.09,0.854,0.09c4.806,0,17.488-6.279,27.677-11.326c4.93-2.441,9.189-4.55,11.776-5.565l0.199,0.402
			c-16.414,9.85-17.17,20.923-16.16,26.647l0.031,0.18c0.154,0.924,0.365,2.188,1.992,2.188c1.917,0,5.276-1.696,9.982-5.039
			c14.896-13.796,30.917-15.984,36.182-16.704c0.489-0.066,0.89-0.12,1.192-0.172l0.41-0.066l-0.166,0.38
			c-4.497,10.327-5.728,17.163-3.659,20.321c0.838,1.279,2.241,1.929,4.171,1.929c0.001,0,0.001,0,0.001,0
			c6.274-0.001,16.016-6.673,18.04-9.396L305.053,248.282z"/>
	</g>
	<g>
		<path fill="#7F3401" d="M489.834,221.213c0,0-31.095-32.019-54.783-27.058c6.754,8.004,29.527,41.15,29.527,41.15
			s5.675,29.576,33.108-5.224C492.989,222.783,489.834,221.213,489.834,221.213z"/>
		<path fill="#8E3D03" d="M487.895,225.046c0,0-25.209-31.18-48.897-26.22c6.754,8.005,25.581,36.479,25.581,36.479
			s5.675,29.576,33.108-5.224C492.989,222.783,487.895,225.046,487.895,225.046z"/>
		<path fill="#471C00" d="M475.343,247.256h-0.002c-8.319-0.002-10.801-11.037-10.975-11.859
			c-0.888-1.292-22.921-33.312-29.487-41.097l-0.244-0.289l0.37-0.077c1.671-0.349,3.438-0.525,5.257-0.525
			c22.312,0,48.73,26.628,49.707,27.62c0.38,0.204,3.44,1.99,7.908,8.932l0.088,0.136l-0.101,0.126
			C488.955,241.523,481.377,247.256,475.343,247.256z M435.467,194.301c6.973,8.404,29.072,40.55,29.298,40.877l0.035,0.085
			c0.022,0.116,2.315,11.541,10.541,11.542c5.867,0,13.292-5.63,22.07-16.736c-4.548-7.024-7.647-8.639-7.679-8.654l-0.061-0.044
			c-0.269-0.275-26.98-27.513-49.41-27.513C438.608,193.857,436.997,194.007,435.467,194.301z"/>
	</g>
	<g>
		<path fill="#F2B370" d="M362.395,194.793c0,0-26.156,22.361-19.241,57.839c7.817,35.476,39.091,80.573,89.594,73.028
			c26.457-10.521,38.784-30.037,36.979-73.33c-1.201-35.176-4.809-49.908-46.9-62.233
			C396.357,184.444,362.395,194.793,362.395,194.793z"/>
		<path fill="#FECA8B" d="M418.022,312.21c18.49,2.707,35.62-2.154,41.935-22.449c-11.5-6.088-11.087-19.671-7.479-32.749
			c1.353-4.961,6.849-14.91,9.058-20.917c3.455-9.4,1.635-21.297-2.787-27.207c-6.727-7.684-17.727-13.463-35.922-18.791
			c-26.469-5.652-60.432,4.696-60.432,4.696s-26.156,22.361-19.241,57.839C346.271,266.777,359.755,303.294,418.022,312.21z"/>
		<path fill="#F2B370" d="M364.199,196.843c0,0-22.248,9.274-16.535,27c3.908-1.704,10.222-5.113,10.222-5.113
			c-5.712,7.5-4.377,16.021,1.419,23.862c1.287-4.433,5.084-9.887,9.349-13.636c-0.246,6.477,4.948,20.451,11.071,24.543
			c1.613-4.433,2.52-13.976,2.52-13.976c3.001,9.884,11.719,19.77,14.425,21.474c1.503-5.112,4.802-16.021,4.802-16.021
			c1.512,7.84,7.037,16.021,7.037,16.021c4.696-5.453,13.717-19.088,13.717-19.088c1.804,5.795,3.454,10.226,3.454,10.226
			c5.265-2.386,14.284-10.566,13.382-19.77c2.104,3.749,3.308,7.498,3.308,7.498c3.307-4.09,7.517-12.271,5.411-20.452
			c3.909,2.386,7.516,4.772,7.516,4.772c1.204-4.09,7.288-17.981-18.604-29.103C417.302,188.688,364.199,196.843,364.199,196.843z"
			/>
		<path fill="#ED9538" d="M421.719,326.721c-0.004,0-0.004,0-0.006,0c-19.946,0-38.356-8.541-53.243-24.7
			c-12.249-13.296-21.557-31.279-25.536-49.341c-3.586-18.399,1.855-33.202,7.051-42.383c5.629-9.944,12.198-15.619,12.263-15.676
			l0.081-0.044c0.21-0.064,21.237-6.396,42.84-6.396c6.486,0,12.442,0.569,17.704,1.694c20.885,6.115,32.521,12.887,38.925,22.645
			c6.059,9.233,7.501,20.647,8.155,39.803c1.711,41.071-9.044,62.38-37.123,73.547l-0.05,0.013
			C429.059,326.439,425.336,326.721,421.719,326.721z M362.507,194.994c-0.525,0.461-6.761,6.035-12.138,15.54
			c-5.154,9.11-10.551,23.803-6.994,42.054c6.525,29.613,32.773,73.681,78.338,73.683c0.002,0,0.004,0,0.006,0
			c3.588,0,7.278-0.278,10.97-0.828c27.849-11.087,38.516-32.269,36.812-73.104c-0.651-19.071-2.08-30.428-8.08-39.57
			c-6.341-9.662-17.901-16.378-38.658-22.456c-5.215-1.113-11.14-1.68-17.594-1.68C384.12,188.633,363.617,194.663,362.507,194.994z
			"/>
	</g>
	<path fill="#FEDFB9" d="M364.199,196.347c0,0-22.248,8.18-16.535,23.813c3.908-1.502,10.222-4.51,10.222-4.51
		c-5.712,6.615-4.377,14.131,1.419,21.046c1.287-3.908,5.084-8.72,9.349-12.025c-0.246,5.712,4.948,18.038,11.071,21.646
		c1.613-3.908,2.52-12.327,2.52-12.327c3.001,8.719,11.719,17.438,14.425,18.941c1.503-4.51,4.802-14.131,4.802-14.131
		c1.512,6.916,7.037,14.131,7.037,14.131c4.696-4.811,13.717-16.837,13.717-16.837c1.804,5.112,3.454,9.021,3.454,9.021
		c5.265-2.105,14.284-9.32,13.382-17.438c2.104,3.308,3.308,6.614,3.308,6.614c3.307-3.607,7.517-10.823,5.411-18.039
		c3.909,2.104,7.516,4.21,7.516,4.21c1.204-3.608,7.288-15.86-18.604-25.669C417.302,189.155,364.199,196.347,364.199,196.347z"/>
	<path fill="#FFEAD1" d="M367.055,208.135c0,0.901,0,2.254-0.451,3.157c-1.804,3.156-4.961,4.96-5.412,8.567
		c3.608-2.254,7.666-4.058,11.725-5.862c0.902,5.412-1.353,10.823,0.902,16.236c0.452-4.961,2.706-9.471,6.764-12.628
		c0.452,0,1.805-0.451,1.805,0.45c-0.451,7.217,3.157,13.981,7.216,19.392c-0.451-4.96,1.804-9.471,1.804-14.431
		c3.607,4.06,6.764,9.922,13.077,9.922c0-4.962,0-10.372,0.452-15.333c5.411,4.51,11.274,13.98,17.588,9.471
		c3.156-2.256,0.45-9.021-0.902-13.53c2.706,2.256,6.313,3.608,9.922,3.608c-0.901-5.862-2.255-13.078-7.667-15.333
		c-4.961-1.805-11.726,0-17.589,1.804c-8.567,2.255-18.488,1.353-26.606-1.353c-4.992-1.901-9.86-3.931-14.799-6.017
		c-0.444,0.059-0.686,0.091-0.686,0.091s-21.863,8.043-16.671,23.415C351.472,213.436,359.802,209.344,367.055,208.135z"/>
	<path fill="#ED9538" d="M408.486,253.274l-0.157-0.206c-0.054-0.069-5.174-6.812-6.897-13.459c-0.8,2.338-3.304,9.66-4.549,13.394
		l-0.085,0.258l-0.238-0.133c-2.446-1.358-10.87-9.571-14.201-18.171c-0.288,2.316-1.123,8.284-2.426,11.446l-0.099,0.24
		l-0.224-0.132c-6.122-3.607-11.137-15.557-11.188-21.37c-4.138,3.314-7.688,7.938-8.901,11.626l-0.127,0.385l-0.26-0.312
		c-6.044-7.21-6.755-14.474-2.051-20.562c-1.891,0.886-6.341,2.94-9.336,4.093l-0.213,0.081l-0.08-0.215
		c-5.723-15.663,16.445-24.021,16.67-24.104l0.048-0.012c0.274-0.037,27.681-3.714,50.062-3.714c10.001,0,17.579,0.729,22.524,2.168
		c24.719,9.363,20.553,20.943,18.985,25.303c-0.088,0.241-0.165,0.46-0.23,0.652l-0.088,0.264l-0.239-0.14
		c-0.035-0.021-3.366-1.962-7.048-3.955c1.688,6.729-1.919,13.727-5.601,17.742l-0.252,0.274l-0.126-0.349
		c-0.011-0.031-1.036-2.822-2.811-5.799c0.181,7.916-8.603,14.764-13.582,16.754l-0.206,0.082l-0.086-0.203
		c-0.017-0.039-1.588-3.77-3.319-8.637c-1.498,1.982-9.27,12.206-13.482,16.522L408.486,253.274z M382.131,232.962l0.327,0.955
		c2.942,8.553,11.317,16.928,14.086,18.678c1.524-4.562,4.682-13.772,4.715-13.867l0.26-0.762l0.173,0.787
		c1.342,6.137,5.932,12.597,6.839,13.83c4.683-4.864,13.425-16.504,13.513-16.623l0.254-0.336l0.141,0.396
		c1.549,4.39,3.001,7.93,3.363,8.801c5.096-2.13,13.919-9.169,13.036-17.12l-0.107-0.965l0.522,0.82
		c1.699,2.67,2.825,5.37,3.195,6.312c3.607-4.074,7.028-10.996,5.115-17.553l-0.15-0.517l0.475,0.255
		c3.299,1.776,6.417,3.571,7.285,4.075c0.044-0.126,0.092-0.259,0.144-0.4c1.527-4.246,5.583-15.523-18.705-24.725
		c-4.886-1.421-12.422-2.144-22.38-2.144c-22.055,0-49.003,3.576-49.976,3.706c-0.81,0.307-21.666,8.414-16.457,23.3
		c3.87-1.508,9.929-4.389,9.991-4.419l0.97-0.462l-0.702,0.813c-5.155,5.969-4.736,13.218,1.166,20.445
		c1.392-3.81,5.074-8.48,9.292-11.751l0.384-0.299l-0.02,0.485c-0.232,5.439,4.667,17.507,10.734,21.307
		c1.521-3.933,2.399-11.938,2.409-12.021L382.131,232.962z"/>
	<g>
		<path fill="#FED5A2" d="M326.017,143.796c0,0-12.627,18.34-9.02,27.66c1.504,3.006,4.186-1.503,4.186-1.503
			c-0.277,8.718,1.227,17.137,4.834,18.341c2.706,0.901,2.706-5.112,2.706-5.112c1.503,5.112,5.712,10.823,6.915,10.522
			c1.202-0.3,3.307-4.81,3.307-4.81c3.608,4.81,6.313,15.033,41.189,8.118c6.013,4.811,18.94,10.823,30.365-1.503
			c8.418,1.804,38.783,6.014,56.222-10.824c0.601,2.104,0,5.111,0,5.111c4.811-2.405,11.124-9.853,10.223-16.501
			c2.104,3.874,2.104,3.874,2.104,3.874c3.606-0.602,5.712-6.915,3.307-12.928c1.805,1.203,5.111,1.503,5.111,1.503
			c1.503-1.503-0.301-15.634-15.935-27.058c0-13.83-0.3-48.154-35.478-63.738c-34.574-13.229-61.632-4.811-83.881,4.208
			C331.729,88.777,320.003,106.214,326.017,143.796z"/>
		<path fill="#FEDFB9" d="M378.33,194.155c15.895,8.861,32.082,0.157,35.69-7.51c4.059,7.667,22.711,7.284,27.222,0.519
			c16.911-21.196,32.921-35.853,30.072-57.467c-0.968-16.338-6.27-41.908-35.26-54.75c-34.574-13.229-61.632-4.811-83.881,4.208
			c-20.444,9.622-32.169,27.059-26.156,64.64c0,0-12.627,18.34-9.02,27.66c1.504,3.006,4.186-1.503,4.186-1.503
			c-0.277,8.718,1.227,17.137,4.834,18.341c2.706,0.901,2.706-5.112,2.706-5.112c1.503,5.112,5.712,10.823,6.915,10.522
			c1.202-0.3,3.307-4.81,3.307-4.81c0.978,1.304,1.891,3.005,3.395,4.655C346.73,198.732,361.058,196.367,378.33,194.155z"/>
		<path fill="#FFEAD1" d="M377.367,190.097c15.897,8.862,32.379-0.903,35.987-8.57c4.059,7.667,21.133,4.285,25.643-2.481
			c16.91-21.195,35.165-27.734,32.316-49.348c-0.968-16.338-6.27-41.908-35.26-54.75c-34.574-13.229-61.632-4.811-83.881,4.208
			c-20.444,9.622-32.169,27.059-26.156,64.64c0,0-12.627,18.34-9.02,27.66c1.504,3.006,4.186-1.503,4.186-1.503
			c-0.277,8.718,1.227,17.137,4.834,18.341c2.706,0.901,2.706-5.112,2.706-5.112c1.503,5.112,5.712,10.823,6.915,10.522
			c1.202-0.3,3.307-4.81,3.307-4.81C339.922,190.197,346.73,198.732,377.367,190.097z"/>
		<path fill="#ED9538" d="M395.312,203.017c-7.16,0-12.984-3.979-15.238-5.765c-7.766,1.535-14.466,2.313-19.917,2.313
			c-14.371,0-17.848-5.244-20.387-9.076c-0.27-0.407-0.528-0.796-0.786-1.159c-0.545,1.121-2.185,4.314-3.293,4.591
			c-0.049,0.013-0.099,0.019-0.152,0.019c-1.418,0-4.974-4.895-6.658-9.55c-0.041,0.43-0.106,0.932-0.211,1.438
			c-0.482,2.299-1.422,2.781-2.126,2.781c-0.191,0-0.394-0.035-0.599-0.104c-3.939-1.313-5.153-10.223-5.008-17.783
			c-0.572,0.785-1.619,1.991-2.652,1.991h-0.001c-0.604,0-1.105-0.39-1.49-1.158c-3.538-9.137,7.989-26.354,8.985-27.814
			c-2.865-17.974-1.822-31.99,3.188-42.846c4.391-9.516,11.951-16.694,23.108-21.944c14.213-5.763,29.888-11.09,48.26-11.09
			c11.997,0,23.707,2.249,35.798,6.875c35.52,15.736,35.621,50.574,35.623,63.834c14.877,10.918,16.224,23.086,16.328,24.44
			c0.111,1.434-0.058,2.488-0.461,2.892l-0.075,0.075l-0.104-0.01c-0.124-0.011-2.795-0.264-4.658-1.216
			c1.222,3.498,1.07,7.377-0.427,10.036c-0.823,1.464-1.986,2.388-3.276,2.603l-0.158,0.026l-1.675-3.082
			c0.161,6.423-5.757,13.326-10.43,15.663l-0.412,0.206l0.09-0.452c0.006-0.028,0.518-2.638,0.096-4.634
			c-10.865,10.27-26.526,12.436-37.797,12.436c-8.945,0-16.062-1.341-18.221-1.798C406.073,200.574,400.938,203.017,395.312,203.017
			z M380.192,196.77l0.083,0.064c2.155,1.725,7.931,5.733,15.038,5.733c5.532,0,10.586-2.428,15.021-7.214l0.086-0.093l0.126,0.026
			c1.986,0.425,9.169,1.813,18.252,1.813c11.286,0,26.999-2.182,37.767-12.579l0.27-0.261l0.104,0.362
			c0.476,1.663,0.227,3.829,0.084,4.762c4.745-2.601,10.557-9.73,9.698-16.06l-0.165-1.219l2.612,4.81
			c1.09-0.24,2.079-1.068,2.801-2.348c1.519-2.699,1.587-6.719,0.178-10.244l-0.271-0.674l0.604,0.403
			c1.548,1.032,4.289,1.387,4.889,1.454c0.201-0.302,0.375-1.088,0.269-2.462c-0.375-4.846-4.217-15.393-16.238-24.178l-0.093-0.068
			v-0.114c0-13.093,0-47.874-35.343-63.532c-12.028-4.602-23.684-6.841-35.626-6.841c-18.294,0-33.919,5.312-48.079,11.053
			c-23.357,10.992-31.385,30.854-26.018,64.395l0.014,0.089l-0.051,0.074c-0.126,0.182-12.519,18.349-8.995,27.45
			c0.293,0.584,0.659,0.89,1.078,0.89c1.034,0,2.302-1.751,2.704-2.427l0.447-0.751l-0.028,0.875
			c-0.259,8.154,1.087,16.919,4.68,18.118c0.161,0.053,0.314,0.08,0.457,0.08c0.973,0,1.454-1.317,1.684-2.422
			c0.265-1.264,0.268-2.542,0.268-2.555v-1.566l0.442,1.502c1.487,5.057,5.515,10.372,6.602,10.372
			c0.842-0.204,2.403-2.985,3.199-4.691l0.159-0.341l0.226,0.301c0.341,0.454,0.673,0.955,1.022,1.483
			c2.483,3.744,5.882,8.873,20.011,8.873c5.446,0,12.151-0.781,19.932-2.324L380.192,196.77z"/>
	</g>
	<g>
		<path fill="#ED9538" d="M382.131,198.732c-2.169-1.295-4.764-4.731-4.764-4.731c0.028,0.031,2.88,3.083,4.993,4.345
			L382.131,198.732z"/>
	</g>
	<g>
		<path fill="#ED9538" d="M408.657,197.629l-0.299-0.337c0.03-0.025,2.779-2.649,4.996-5.311
			C413.354,191.981,411.551,195.244,408.657,197.629z"/>
	</g>
	<g>
		<ellipse fill="#EE9D46" cx="398.769" cy="225.121" rx="2.702" ry="4.961"/>
		<path fill="#ED9538" d="M398.77,230.308c-1.642,0-2.927-2.277-2.927-5.187c0-2.908,1.285-5.186,2.927-5.186
			c1.641,0,2.926,2.277,2.926,5.186C401.695,228.03,400.41,230.308,398.77,230.308z M398.77,220.386
			c-1.342,0-2.477,2.169-2.477,4.735c0,2.567,1.135,4.735,2.477,4.735c1.341,0,2.477-2.168,2.477-4.735
			C401.246,222.555,400.11,220.386,398.77,220.386z"/>
	</g>
	<g>
		<ellipse fill="#EE9D46" cx="421.479" cy="221.213" rx="3.301" ry="5.262"/>
		<path fill="#ED9538" d="M421.479,226.699c-1.944,0-3.527-2.461-3.527-5.486s1.583-5.486,3.527-5.486s3.525,2.461,3.525,5.486
			S423.424,226.699,421.479,226.699z M421.479,216.177c-1.696,0-3.076,2.26-3.076,5.036s1.38,5.036,3.076,5.036
			c1.695,0,3.075-2.26,3.075-5.036S423.175,216.177,421.479,216.177z"/>
	</g>
	<g>
		
			<ellipse transform="matrix(0.8951 0.4458 -0.4458 0.8951 139.5522 -170.6338)" fill="#EE9D46" cx="432.446" cy="211.292" rx="4.209" ry="2.254"/>
		<path fill="#ED9538" d="M434.274,214.272c-0.906,0-1.948-0.27-2.934-0.76c-2.226-1.109-3.483-2.952-2.864-4.198
			c0.318-0.639,1.099-1.004,2.143-1.004c0.906,0,1.947,0.271,2.933,0.761c2.227,1.108,3.485,2.951,2.863,4.197
			C436.098,213.906,435.317,214.272,434.274,214.272z M430.619,208.762c-0.867,0-1.5,0.274-1.737,0.755
			c-0.491,0.984,0.727,2.63,2.66,3.591c0.925,0.461,1.894,0.715,2.732,0.715c0.866,0,1.499-0.276,1.738-0.756
			c0.49-0.984-0.729-2.629-2.662-3.591C432.427,209.015,431.456,208.762,430.619,208.762z"/>
	</g>
	<g>
		
			<ellipse transform="matrix(0.9845 0.1756 -0.1756 0.9845 43.8874 -63.3352)" fill="#EE9D46" cx="379.724" cy="216.252" rx="2.521" ry="4.962"/>
		<path fill="#ED9538" d="M379.083,221.382c-0.091,0-0.181-0.008-0.271-0.023c-1.515-0.271-2.303-2.726-1.792-5.588
			c0.502-2.816,2.103-4.895,3.615-4.624c1.517,0.271,2.303,2.726,1.793,5.589C381.955,219.385,380.518,221.382,379.083,221.382z
			 M380.364,211.574c-1.198,0-2.473,1.878-2.901,4.275c-0.45,2.526,0.204,4.846,1.429,5.064c1.248,0.217,2.641-1.733,3.09-4.259
			c0.453-2.527-0.201-4.847-1.427-5.063C380.491,211.58,380.428,211.574,380.364,211.574z"/>
	</g>
	<g>
		<ellipse fill="#EE9D46" cx="405.315" cy="207.869" rx="3.193" ry="5.075"/>
		<path fill="#ED9538" d="M405.314,213.171c-1.886,0-3.418-2.379-3.418-5.302c0-2.924,1.532-5.302,3.418-5.302
			s3.419,2.378,3.419,5.302C408.733,210.792,407.2,213.171,405.314,213.171z M405.314,203.017c-1.636,0-2.967,2.177-2.967,4.853
			c0,2.675,1.331,4.851,2.967,4.851c1.637,0,2.969-2.176,2.969-4.851C408.283,205.193,406.951,203.017,405.314,203.017z"/>
	</g>
	<g>
		
			<ellipse transform="matrix(0.8982 -0.4395 0.4395 0.8982 -52.6633 183.7478)" fill="#EE9D46" cx="370.49" cy="205.605" rx="4.055" ry="2.197"/>
		<path fill="#ED9538" d="M368.768,208.49c-1.038,0-1.811-0.365-2.123-1.003c-0.296-0.605-0.153-1.369,0.402-2.149
			c0.528-0.738,1.372-1.417,2.378-1.909c0.934-0.457,1.924-0.709,2.788-0.709c1.038,0,1.811,0.366,2.123,1.004
			c0.597,1.221-0.623,3.004-2.781,4.059C370.622,208.239,369.631,208.49,368.768,208.49z M372.212,203.171
			c-0.797,0-1.716,0.235-2.589,0.663c-0.94,0.46-1.724,1.086-2.208,1.767c-0.455,0.639-0.584,1.238-0.364,1.688
			c0.233,0.478,0.86,0.751,1.718,0.751c0.796,0,1.715-0.234,2.589-0.662c1.864-0.912,3.043-2.495,2.573-3.455
			C373.697,203.444,373.07,203.171,372.212,203.171z"/>
	</g>
	<g>
		<path fill="#471C00" d="M299.718,221.316c0,0,7.265-7.747,12.459-10.229l0.194,0.406
			C307.245,213.944,299.792,221.243,299.718,221.316z"/>
	</g>
	<g>
		<path fill="#471C00" d="M250.354,230.035l-0.275-0.357c7.09-5.121,15.156-4.559,15.156-4.559
			C255.488,226.153,250.404,229.996,250.354,230.035z"/>
	</g>
	<g>
		<path fill="#471C00" d="M228.987,216.91l-0.109-0.438c11.303-2.551,14.399-0.304,14.399-0.304
			C237.984,214.699,229.077,216.889,228.987,216.91z"/>
	</g>
	<g>
		<path fill="#6D2D01" d="M479.406,226.94c0,0-33.129,23.887-25.613,53.951c1.202,5.111,5.442,9.531,8.719,10.223
			c3.908,6.013,18.34,18.941,68.548,7.216c17.138-4.511,33.673-25.255,0-23.752c10.223-5.11,19.542-16.234,14.732-23.149
			c-4.811-6.915-21.648-0.901-29.766,4.811c5.412-5.412,6.314-15.333,3.608-17.739c-2.706-2.405-8.72-4.811-19.844,3.309
			c3.909-6.615,6.015-10.523-2.104-11.727c-3.494-5.431-6.137-7.691-7.262-8.491C490.039,221.316,479.406,226.94,479.406,226.94z"/>
		<path fill="#7F3401" d="M479.406,226.94c0,0-31.928,22.834-24.411,52.898c1.203,5.112,6.28,8.78,9.557,9.471
			c3.909,6.014,10.191,17.814,60.399,6.088c17.138-4.51,39.781-22.322,6.108-20.819c10.223-5.11,19.542-16.234,14.732-23.149
			c-4.811-6.915-21.648-0.901-29.766,4.811c5.412-5.412,6.314-15.333,3.608-17.739c-2.706-2.405-8.72-4.811-19.844,3.309
			c3.909-6.615,6.015-10.523-2.104-11.727c-3.494-5.431-6.137-7.691-7.262-8.491C490.039,221.316,479.406,226.94,479.406,226.94z"/>
		<path fill="#8E3D03" d="M479.406,226.94c0,0-31.928,22.834-24.411,52.898c1.203,5.112,6.28,8.78,9.557,9.471
			c3.909,6.014,7.806,16.011,53.806,5.412c17.137-4.51,40.267-19.76,6.594-18.257c10.222-5.11,20.54-16.274,15.729-23.19
			c-4.81-6.913-23.226,3.165-31.343,8.877c5.413-5.411,11.074-18.58,7.956-20.419c-12.24-7.216-24.287,15.639-35.411,23.756
			c7.388-6.369,14.279-23.834,10.318-32.776c-1.972-3.723-4.649-8.579-5.773-9.379C486.041,223.057,479.406,226.94,479.406,226.94z"
			/>
		<path fill="#471C00" d="M495.6,303.294c-22.188,0-30.372-7.646-33.227-11.979c-3.265-0.751-7.55-5.06-8.8-10.37
			c-3.903-15.615,3.364-29.648,10.148-38.671c3.509-4.667,7.253-8.51,10.215-11.257c3.233-3,5.846-4.36,5.846-4.36
			c-0.084,0.061-8.409,6.188-15.708,15.897c-6.721,8.942-13.923,22.843-10.063,38.284c1.205,5.119,5.472,9.407,8.548,10.056
			l0.091,0.02l0.051,0.079c2.765,4.252,10.808,11.859,32.861,11.859c9.179,0.001,20.782-1.316,35.448-4.742
			c10.43-2.744,20.176-11.393,19.303-17.133c-0.686-4.504-7.519-6.694-19.242-6.173l-1.061,0.047l0.949-0.475
			c7.715-3.856,14.126-10.563,15.592-16.31c0.637-2.502,0.32-4.691-0.944-6.51c-1.019-1.463-2.657-2.403-4.872-2.794
			c-6.756-1.194-18.02,3.047-24.578,7.66l-0.289-0.343c3.623-3.623,5.129-9.169,5.014-13.059c-0.06-2.03-0.568-3.617-1.396-4.353
			c-2.526-2.246-8.428-4.802-19.56,3.32l-0.884,0.646l0.556-0.942c2.568-4.342,4.061-7.111,3.179-8.964
			c-0.574-1.206-2.25-1.999-5.12-2.423l-0.102-0.016l-0.057-0.087c-4.595-7.139-7.733-8.773-7.765-8.789l0.201-0.403
			c0.13,0.064,3.241,1.669,7.888,8.863c3.01,0.458,4.715,1.306,5.36,2.66c0.911,1.911-0.353,4.521-2.659,8.475
			c10.835-7.557,16.701-4.954,19.262-2.677c0.934,0.829,1.482,2.49,1.548,4.677c0.104,3.542-1.105,8.425-3.982,12.077
			c6.748-4.269,17.069-7.897,23.463-6.768c2.338,0.413,4.074,1.416,5.164,2.981c1.343,1.93,1.682,4.244,1.01,6.878
			c-1.437,5.638-7.508,12.166-14.925,16.136c14.513-0.474,18.195,3.301,18.696,6.596c0.92,6.051-8.809,14.787-19.641,17.639
			C516.45,301.974,504.815,303.293,495.6,303.294z"/>
	</g>
	<g>
		<path fill="#471C00" d="M481.882,265.488c22.421-26.562,15.083-36.119,15.005-36.212l0.35-0.287
			c0.083,0.101,2.003,2.517,1.096,8.299c-0.665,4.233-3.029,11.015-10.052,20.768C486.558,260.448,481.882,265.488,481.882,265.488z
			"/>
	</g>
	<g>
		<path fill="#471C00" d="M511.715,259.119c0.037-0.019,3.661-1.894,5.201-4.218l0.377,0.25
			C515.686,257.574,511.715,259.119,511.715,259.119z"/>
	</g>
	<g>
		<path fill="#471C00" d="M524.951,276.465c0.047-0.012,4.818-1.294,7.153-2.689l0.23,0.387
			C529.947,275.591,524.951,276.465,524.951,276.465z"/>
	</g>
	<g>
		<path fill="#FFAD03" d="M442.819,328.433c0,0,5.862,10.26,9.471,19.392c-6.539,0-20.407,4.059-16.462,11.499
			c2.256,3.495,11.727,3.157,20.746-1.69c2.795-0.564,16.461,21.647,27.059,14.318c2.255-1.805,0.901-4.509,0.901-4.509
			c2.932,0.111,9.695,0.111,7.779-10.148c2.818-3.494,2.593-8.568-4.96-9.921c-6.089-0.677-19.168,1.691-25.932-0.789
			c-2.933-7.78-9.357-24.015-9.357-24.015C448.23,325.162,442.819,328.433,442.819,328.433z"/>
		<path fill="#FFBD00" d="M484.751,348.571c-6.088-0.676-16.565,0.493-23.329-1.987c-4.473-3.456-8.14-12.761-10.4-17.192
			c-2.029,1.132-4.438,1.381-6.886,1.419c1.939,3.564,5.607,10.567,8.154,17.014c-6.539,0-18.829,2.773-14.883,10.215
			c2.255,3.493,10.523,1.792,19.542-3.056c2.796-0.564,15.333,18.452,23.902,12.771c2.255-1.804-0.18-5.501-0.18-5.501
			c2.931,0.113,9.52,2.564,7.603-7.695C491.094,351.064,490.452,349.591,484.751,348.571z"/>
		<path fill="#E37A00" d="M478.977,373.661c-6.306,0-12.992-6.959-17.416-11.564c-2.191-2.28-4.082-4.249-4.877-4.249
			c-0.012,0-0.024,0.001-0.037,0.002c-4.775,2.561-9.996,4.029-14.325,4.029c-0.002,0-0.001,0-0.002,0
			c-3.296,0-5.667-0.864-6.681-2.433c-0.976-1.84-0.973-3.585,0.001-5.203c2.521-4.188,11.107-6.544,16.32-6.642
			c-3.572-8.938-9.279-18.956-9.337-19.058l-0.108-0.19l0.188-0.114c0.055-0.032,5.451-3.296,9.235-5.856l0.232-0.157l0.104,0.262
			c0.064,0.161,6.407,16.189,9.322,23.92c2.129,0.76,5.012,1.113,9.057,1.113c2.533,0,5.146-0.138,7.673-0.27
			c2.252-0.118,4.379-0.23,6.222-0.23c1.128,0,2.054,0.043,2.83,0.128c4.388,0.785,5.966,2.717,6.52,4.199
			c0.685,1.834,0.183,4.071-1.343,6.007c0.67,3.676,0.285,6.413-1.146,8.137c-1.228,1.478-3.173,2.195-5.945,2.195
			c-0.207,0-0.403-0.003-0.59-0.009c0.289,0.817,0.787,2.94-1.099,4.45C482.298,373.148,480.688,373.661,478.977,373.661z
			 M456.684,357.396c0.987,0,2.663,1.745,5.202,4.388c4.372,4.55,10.977,11.427,17.091,11.427c1.617,0,3.141-0.486,4.528-1.445
			c2.074-1.661,0.839-4.198,0.827-4.224l-0.171-0.341l0.383,0.015c0.274,0.012,0.585,0.021,0.918,0.021
			c2.632,0,4.462-0.665,5.599-2.033c1.354-1.631,1.701-4.278,1.031-7.867l-0.02-0.103l0.065-0.081
			c1.474-1.828,1.975-3.939,1.336-5.647c-0.733-1.968-2.865-3.319-6.16-3.909c-0.746-0.082-1.655-0.123-2.767-0.123
			c-1.83,0-3.952,0.11-6.199,0.229c-2.532,0.133-5.15,0.271-7.695,0.271c-4.162,0-7.119-0.374-9.308-1.176l-0.097-0.036
			l-0.037-0.096c-2.694-7.15-8.414-21.628-9.253-23.751c-3.372,2.268-7.869,5.012-8.835,5.599
			c0.817,1.451,6.072,10.867,9.376,19.229l0.122,0.308h-0.331c-5.177,0-13.868,2.446-16.264,6.428
			c-0.886,1.473-0.886,3.068,0.002,4.742c0.916,1.418,3.154,2.21,6.291,2.21c0,0,0.001,0,0.002,0c4.268,0,9.423-1.456,14.146-3.995
			l0.062-0.022C456.579,357.402,456.63,357.396,456.684,357.396z"/>
	</g>
	<g>
		<path fill="#E37A00" d="M484.317,367.504c-1.975-6.911-19.188-12.979-19.362-13.04c0,0,17.758,5.782,19.796,12.915
			L484.317,367.504z"/>
	</g>
	<g>
		<path fill="#E37A00" d="M492.217,358.039c-0.988-2.433-6.314-3.986-11.467-5.488c-5.318-1.553-13.165-1.683-13.244-1.683
			c0,0,7.991-0.319,13.37,1.249c5.255,1.532,10.688,3.117,11.758,5.75L492.217,358.039z"/>
	</g>
	<g>
		<path fill="#471C00" d="M446.619,340.698c-6.393-2.42-11.97-10.102-11.97-10.102c0.06,0.072,6.147,7.26,12.138,9.683
			L446.619,340.698z"/>
	</g>
	<g>
		<path fill="#471C00" d="M423.643,340.615c-2.85-4.266-4.399-9.948-4.399-9.948c0.019,0.055,1.957,5.479,4.775,9.697
			L423.643,340.615z"/>
	</g>
	<g>
		<path fill="#E37A00" d="M347.183,354.983c-0.011-0.054-0.281-1.343,0.853-3.002c1.404-2.055,5.093-4.814,14.701-6.297
			c4.803-0.873,6.939-3.498,6.96-3.525c0,0-1.898,3.063-6.885,3.971c-9.454,1.459-13.05,4.125-14.403,6.105
			c-1.025,1.501-0.788,2.64-0.785,2.65L347.183,354.983z"/>
	</g>
	<g>
		<path fill="#E37A00" d="M357.907,363.002c-0.066-0.219-1.467-5.449,10.74-11.437c1.958-0.918,3.374-2.312,4.622-3.54
			c1.754-1.91,3.118-1.91,3.118-1.91c-0.924,0.383-1.794,1.239-2.801,2.231c-1.273,1.255-2.717,2.677-4.742,3.624
			c-11.865,5.819-10.518,10.853-10.504,10.901L357.907,363.002z"/>
	</g>
	<g>
		<path fill="#F2B370" d="M418.667,308.599c0,0,12.465,25.771,26.294,21.75c9.358-2.931,17.776-17.551,12.972-36.703
			L418.667,308.599z"/>
		<path fill="#FECA8B" d="M418.667,308.599c0,0,11.843,17.648,25.672,13.627c9.358-2.932,14.987-14.581,13.594-29.76
			L418.667,308.599z"/>
		<path fill="#ED9538" d="M442.143,330.972c-7.771,0-15.088-8.527-19.527-15.012c-2.561-3.739-3.948-7.361-3.948-7.361
			c0.131,0.252,13.257,25.273,26.232,21.533c9.678-3.031,17.228-18.418,13.033-36.486c0,0,1.378,4.813,1.547,7.236
			c0.425,6.151-0.438,12.074-2.557,17.179c-2.62,6.317-7.067,10.991-11.894,12.503C444.063,330.842,443.099,330.972,442.143,330.972
			z"/>
	</g>
	<g>
		<g>
			<path fill="#6D2D01" d="M471.531,138.685c0-13.83-0.3-48.154-35.478-63.738c-34.574-13.229-61.632-4.811-83.881,4.208
				c-20.444,9.622-32.169,27.059-26.156,64.64c0,0-12.627,18.34-9.02,27.66c1.504,3.006,4.186-1.503,4.186-1.503
				c-0.277,8.718,1.227,17.137,4.834,18.341c2.706,0.901,2.706-5.112,2.706-5.112c1.503,5.112,5.712,10.823,6.915,10.522
				c1.202-0.3,3.307-4.81,3.307-4.81c1.834,2.445,3.438,6.287,9.148,8.567c7.908-2.641,19.609-11.111,26.329-37.429
				c6.916-19.242,17.136-19.843,17.136-19.843c4.21-1.503,19.242,4.81,24.053,18.64c4.25,12.222,14.608,29.84,37.5,34.396
				c4.937-1.93,9.613-4.682,13.61-8.541c0.601,2.104,0,5.111,0,5.111c4.811-2.405,11.124-9.853,10.223-16.501
				c2.104,3.874,2.104,3.874,2.104,3.874c3.606-0.602,5.712-6.915,3.307-12.928c1.805,1.203,5.111,1.503,5.111,1.503
				C488.969,164.24,487.165,150.109,471.531,138.685z"/>
			<path fill="#7F3401" d="M463.112,167.547c1.354,1.804-0.45,4.059,1.354,5.863c2.255-4.962,4.06-10.374,3.608-15.785
				c0.9,1.353,2.254,3.157,2.254,4.96c1.354-0.901,0.903-2.705,0.903-4.059c0.901-7.215-6.313-14.431-3.157-20.744
				c2.03-4.965,2.479-10.155,2.536-15.344c-2.188-15.917-9.58-36.427-34.557-47.492c-34.574-13.229-61.632-4.811-83.881,4.208
				c-20.444,9.622-32.169,27.059-26.156,64.64c0,0-12.627,18.34-9.02,27.66c1.504,3.006,4.186-1.503,4.186-1.503
				c-0.277,8.718,1.227,17.137,4.834,18.341c2.706,0.901,2.706-5.112,2.706-5.112c1.503,5.112,5.712,10.823,6.915,10.522
				c1.202-0.3,3.307-4.81,3.307-4.81c1.834,2.445,3.438,6.287,9.148,8.567c7.908-2.641,19.609-11.111,26.329-37.429
				c6.916-19.242,17.136-19.843,17.136-19.843c4.21-1.503,19.242,4.81,24.053,18.64c3.408,9.8,10.752,23.063,25.327,30.287
				C450.992,185.03,460.527,178.254,463.112,167.547z"/>
			<path fill="#8E3D03" d="M458.604,155.822c2.705,0.451,1.804,3.157,3.157,4.509c1.804-4.509,1.804-9.019,0.901-13.528
				c0.45,0.901,1.353,1.803,2.256,2.706c-0.452-4.059-1.806-8.569-0.452-12.627c3.945-9.549,4.065-19.481,2.521-29.399
				c-4.473-12.26-13.339-24.741-30.933-32.535c-34.574-13.229-61.632-4.811-83.881,4.208c-20.444,9.622-32.169,27.059-26.156,64.64
				c0,0-12.627,18.34-9.02,27.66c1.504,3.006,4.186-1.503,4.186-1.503c-0.277,8.718,1.227,17.137,4.834,18.341
				c2.706,0.901,2.706-5.112,2.706-5.112c1.503,5.112,5.712,10.823,6.915,10.522c1.202-0.3,3.307-4.81,3.307-4.81
				c1.834,2.445,6.464,5.912,17.417,3.742c2.13-1.857,12.018-8.853,18.061-32.604c6.916-19.242,17.136-19.843,17.136-19.843
				c4.21-1.503,19.242,4.81,24.053,18.64c2.607,7.496,7.522,17.018,16.21,24.313C445.96,179.444,458.604,171.34,458.604,155.822z"/>
			<path fill="#471C00" d="M348.085,197.701l-0.076-0.03c-4.727-1.888-6.674-4.824-8.238-7.184c-0.27-0.406-0.527-0.795-0.785-1.156
				c-0.545,1.121-2.185,4.314-3.293,4.591c-0.049,0.013-0.099,0.019-0.152,0.019c-1.418,0-4.974-4.896-6.658-9.55
				c-0.041,0.43-0.106,0.932-0.211,1.438c-0.482,2.299-1.422,2.781-2.126,2.781c-0.191,0-0.394-0.035-0.599-0.104
				c-3.939-1.313-5.153-10.223-5.008-17.783c-0.572,0.785-1.619,1.991-2.653,1.991c-0.604,0-1.105-0.39-1.49-1.158
				c-3.538-9.137,7.989-26.354,8.985-27.814c-2.865-17.974-1.822-31.99,3.188-42.846c4.391-9.516,11.951-16.694,23.108-21.944
				c14.213-5.763,29.888-11.09,48.26-11.09c11.997,0,23.707,2.249,35.798,6.875c35.52,15.736,35.621,50.574,35.623,63.834
				c14.877,10.918,16.224,23.086,16.328,24.44c0.111,1.434-0.058,2.488-0.461,2.892l-0.075,0.075l-0.104-0.01
				c-0.124-0.011-2.795-0.264-4.658-1.216c1.222,3.498,1.07,7.377-0.427,10.036c-0.823,1.464-1.986,2.388-3.276,2.603l-0.158,0.026
				l-1.675-3.082c0.161,6.423-5.757,13.326-10.43,15.663l-0.412,0.206l0.09-0.452c0.006-0.028,0.518-2.638,0.096-4.634
				c-3.688,3.483-8.193,6.281-13.401,8.318l-0.062,0.024l-0.064-0.014c-23.982-4.772-33.896-23.691-37.67-34.543
				c-4.271-12.281-16.814-18.706-22.341-18.706c-0.564,0-1.044,0.068-1.423,0.204l-0.062,0.013
				c-0.101,0.006-10.164,0.842-16.938,19.694c-6.626,25.952-18.052,34.755-26.47,37.566L348.085,197.701z M338.899,188.457
				l0.226,0.301c0.341,0.454,0.672,0.953,1.022,1.48c1.521,2.294,3.412,5.146,7.953,6.982c8.304-2.804,19.542-11.55,26.104-37.245
				c6.766-18.833,16.554-19.953,17.309-20.01c0.423-0.146,0.943-0.22,1.545-0.22c5.638,0,18.426,6.529,22.767,19.009
				c3.739,10.75,13.552,29.485,37.268,34.236c5.259-2.065,9.792-4.914,13.474-8.469l0.27-0.261l0.104,0.362
				c0.476,1.663,0.227,3.829,0.084,4.762c4.745-2.601,10.557-9.73,9.698-16.06l-0.165-1.219l2.612,4.81
				c1.09-0.24,2.079-1.068,2.801-2.348c1.519-2.699,1.587-6.719,0.178-10.244l-0.271-0.674l0.604,0.403
				c1.548,1.032,4.289,1.387,4.889,1.454c0.201-0.302,0.375-1.088,0.269-2.462c-0.375-4.846-4.217-15.393-16.238-24.178
				l-0.093-0.068v-0.114c0-13.093,0-47.874-35.343-63.532c-12.028-4.602-23.684-6.841-35.626-6.841
				c-18.294,0-33.919,5.312-48.079,11.053c-23.357,10.992-31.385,30.854-26.018,64.395l0.014,0.089l-0.051,0.074
				c-0.126,0.182-12.519,18.349-8.995,27.45c0.293,0.584,0.659,0.89,1.078,0.89c1.034,0,2.302-1.751,2.704-2.427l0.447-0.751
				l-0.028,0.875c-0.259,8.154,1.087,16.919,4.68,18.118c0.161,0.053,0.314,0.08,0.457,0.08c0.973,0,1.454-1.317,1.684-2.422
				c0.265-1.264,0.268-2.542,0.268-2.555v-1.566l0.442,1.502c1.487,5.057,5.515,10.372,6.602,10.372
				c0.842-0.204,2.403-2.985,3.199-4.691L338.899,188.457z"/>
		</g>
	</g>
	<g>
		<path fill="#FFAD03" d="M386.673,162.136c0,0,3.833,20.519-1.354,29.989c7.441-2.028,23.188-2.254,28.862-17.723
			c3.383-9.02,3.608-19.256,3.608-19.256C408.995,158.077,386.673,162.136,386.673,162.136z"/>
		<path fill="#FFBD00" d="M386.673,162.136c0,0,3.833,20.519-1.354,29.989c7.441-2.028,20.924-3.497,26.599-18.965
			c3.382-9.02,1.889-17.038,1.889-17.038C405.012,159.054,386.673,162.136,386.673,162.136z"/>
		<path fill="#E37A00" d="M384.866,192.481l0.257-0.465c5.087-9.291,1.367-29.636,1.327-29.84l-0.04-0.223l0.223-0.041
			c0.223-0.041,22.407-4.089,31.085-6.982l0.305-0.102l-0.007,0.32c-0.002,0.103-0.265,10.378-3.622,19.331
			c-4.775,13.015-16.774,15.368-24.715,16.924c-1.579,0.31-3.071,0.602-4.3,0.937L384.866,192.481z M386.934,162.317
			c0.388,2.222,3.356,20.393-1.178,29.461c1.139-0.286,2.453-0.543,3.835-0.814c7.842-1.538,19.691-3.861,24.38-16.64
			c2.997-7.994,3.509-17.061,3.582-18.862C409.126,158.198,389.255,161.89,386.934,162.317z"/>
	</g>
	<g>
		<g>
			<path fill="#FFC703" d="M411.58,156.896c-10.24,2.572-24.907,5.239-24.907,5.239s3.833,20.519-1.354,29.989
				c1.833-0.499,4.17-0.891,6.734-1.426C405.401,185.712,413.73,167.096,411.58,156.896z"/>
			<path fill="#E36100" d="M384.866,192.481l0.257-0.465c5.087-9.291,1.367-29.636,1.327-29.84l-0.04-0.223l0.223-0.041
				c0.146-0.026,14.776-2.695,24.893-5.235l0.228-0.058l0.048,0.229c1.073,5.093-0.448,12.376-3.973,19.008
				c-3.872,7.286-9.593,12.772-15.695,15.052c-0.866,0.184-1.676,0.342-2.452,0.495c-1.58,0.309-3.072,0.602-4.302,0.937
				L384.866,192.481z M386.934,162.317c0.388,2.222,3.356,20.393-1.178,29.461c1.14-0.286,2.455-0.544,3.838-0.815
				c0.775-0.151,1.583-0.31,2.414-0.483c13.4-5.011,21.258-23.612,19.396-33.306C401.972,159.529,388.796,161.974,386.934,162.317z"
				/>
		</g>
	</g>
	<g>
		<path fill="#6E0000" d="M389.894,162.586c0,0,3.77,14.656-0.966,24.579c5.187-1.353,12.327-0.902,19.58-25.255
			C403.359,161.685,389.894,162.586,389.894,162.586z"/>
		<path fill="#A80000" d="M388.928,187.165c2.052-0.535,4.408-0.789,6.958-2.407c-1.907-0.313-3.519-5.26-4.575-10.663
			C391.365,178.372,390.842,183.154,388.928,187.165z"/>
		<g>
			<g>
				<path fill="#FF4043" d="M408.508,161.91c-2.285-0.1-6.209,0.022-9.866,0.189c-6.546,5.026-3.908,16.959-2.284,22.345
					C400.131,181.817,404.3,176.038,408.508,161.91z"/>
				<path fill="#FF4F52" d="M399.375,170.178c-0.872-2.18-3.833-3.458-4.423-2.028c-1.356,5.569,0.271,12.53,1.405,16.294
					c0.584-0.407,1.178-0.891,1.781-1.468C400.563,179.884,401.229,174.81,399.375,170.178z"/>
				<path fill="#C21C00" d="M396.231,184.807l-0.09-0.297c-1.528-5.073-4.359-17.427,2.361-22.59l0.057-0.042l0.07-0.004
					c4.582-0.208,7.95-0.275,9.888-0.188l0.289,0.013l-0.082,0.276c-3.623,12.166-7.512,19.365-12.238,22.656L396.231,184.807z
					 M398.722,162.321c-6.301,4.918-3.752,16.617-2.238,21.756c4.488-3.284,8.223-10.279,11.726-21.953
					C406.252,162.058,403.03,162.126,398.722,162.321z"/>
			</g>
		</g>
		<path fill="#E36100" d="M388.516,187.504l0.209-0.438c4.646-9.735,0.986-24.278,0.949-24.424l-0.068-0.263l0.272-0.019
			c0.106-0.007,10.716-0.713,16.637-0.713c0.777,0,1.451,0.012,2.003,0.036l0.289,0.013l-0.082,0.276
			c-6.688,22.459-13.191,23.921-18.417,25.096c-0.453,0.102-0.895,0.201-1.323,0.313L388.516,187.504z M390.175,162.794
			c0.468,2,3.235,14.907-0.845,24.038c0.288-0.069,0.581-0.135,0.879-0.202c5.09-1.144,11.417-2.569,18-24.505
			c-0.487-0.017-1.056-0.025-1.694-0.025C401.133,162.099,391.863,162.685,390.175,162.794z"/>
	</g>
	<g>
		<ellipse fill="#F29709" cx="359.755" cy="125.813" rx="32.386" ry="36.061"/>
		<path fill="#B85E00" d="M359.755,162.099c-17.982,0-32.611-16.278-32.611-36.286s14.629-36.285,32.611-36.285
			c17.982,0,32.612,16.277,32.612,36.285S377.738,162.099,359.755,162.099z M359.755,89.98c-17.733,0-32.16,16.075-32.16,35.833
			c0,19.759,14.427,35.835,32.16,35.835c17.734,0,32.162-16.076,32.162-35.835C391.917,106.055,377.489,89.98,359.755,89.98z"/>
	</g>
	<g>
		
			<ellipse transform="matrix(-0.9544 0.2984 -0.2984 -0.9544 867.5654 109.7315)" fill="#F29709" cx="425.405" cy="121.1" rx="35.225" ry="35.936"/>
		<path fill="#B85E00" d="M425.796,157.207C425.795,157.207,425.796,157.207,425.796,157.207c-7.439,0-14.894-2.464-20.989-6.939
			c-6.303-4.626-10.879-11.054-13.235-18.59c-5.949-19.03,4.387-39.257,23.043-45.09c3.384-1.059,6.884-1.595,10.401-1.595
			c7.438,0,14.893,2.464,20.988,6.939c6.304,4.626,10.88,11.054,13.235,18.589c5.949,19.03-4.388,39.258-23.044,45.091
			C432.812,156.67,429.313,157.207,425.796,157.207z M425.016,85.442c-3.474,0-6.928,0.529-10.267,1.574
			c-18.42,5.759-28.625,25.735-22.749,44.528c4.715,15.081,18.297,25.214,33.796,25.214c3.473,0,6.927-0.53,10.267-1.574
			c18.419-5.76,28.624-25.736,22.748-44.529C454.096,95.574,440.514,85.442,425.016,85.442z"/>
	</g>
	<g>
		<ellipse fill="#DD8005" cx="363.264" cy="128.634" rx="15.375" ry="24.031"/>
		<ellipse fill="#E5E4E3" cx="361.305" cy="131.695" rx="13.417" ry="20.97"/>
		<path fill="#FFFFFF" d="M374.221,126.02c-1.585-8.823-6.764-15.295-12.915-15.295c-7.41,0-13.417,9.389-13.417,20.971
			c0,4.659,0.974,8.961,2.618,12.442C360.29,142.253,368.195,134.294,374.221,126.02z"/>
		<path d="M361.306,152.891c-7.522,0-13.642-9.508-13.642-21.196c0-11.687,6.12-21.196,13.642-21.196
			c7.521,0,13.642,9.509,13.642,21.196C374.948,143.382,368.827,152.891,361.306,152.891z M361.306,110.95
			c-7.274,0-13.191,9.306-13.191,20.745c0,11.438,5.917,20.745,13.191,20.745c7.273,0,13.19-9.306,13.19-20.745
			C374.496,120.256,368.579,110.95,361.306,110.95z"/>
	</g>
	<g>
		
			<ellipse transform="matrix(0.955 -0.2967 0.2967 0.955 -16.0079 131.8708)" fill="#DD8005" cx="426.5" cy="118.68" rx="22.053" ry="26.689"/>
		
			<ellipse transform="matrix(0.955 -0.2967 0.2967 0.955 -17.3289 131.5465)" fill="#E5E4E3" cx="424.78" cy="122.872" rx="19.166" ry="23.197"/>
		<path fill="#FFFFFF" d="M441.546,113.298c-4.76-9.852-14.663-15.37-23.646-12.578c-10.11,3.14-15.224,15.604-11.423,27.838
			c1.215,3.915,3.199,7.327,5.662,10.061C425.827,137.435,436.099,125.338,441.546,113.298z"/>
		<path d="M426.883,145.974c-8.969,0-17.449-7.134-20.622-17.349c-3.831-12.333,1.359-24.948,11.571-28.121
			c1.566-0.487,3.197-0.734,4.847-0.734c8.969,0,17.447,7.134,20.62,17.349c3.833,12.333-1.359,24.948-11.57,28.121
			C430.161,145.727,428.531,145.974,426.883,145.974z M422.679,100.222c-1.604,0-3.189,0.24-4.713,0.713
			c-9.975,3.098-15.032,15.46-11.273,27.556c3.114,10.028,11.417,17.031,20.19,17.031c1.603,0,3.188-0.24,4.712-0.713
			c9.975-3.099,15.031-15.46,11.274-27.557C439.753,107.225,431.45,100.222,422.679,100.222z"/>
	</g>
	<g>
		
			<ellipse transform="matrix(0.9541 -0.2994 0.2994 0.9541 -18.8712 132.7753)" fill="#0094E8" cx="423.878" cy="127.974" rx="8.569" ry="11.613"/>
		<path fill="#00BDFF" d="M431.924,125.017c-2.018,5.623-6.926,9.644-12.936,11.22c2.4,2.526,5.521,3.709,8.366,2.817
			c4.515-1.417,6.619-7.526,4.699-13.646C432.012,125.276,431.967,125.146,431.924,125.017z"/>
		<path fill="#006EBF" d="M424.484,139.514c-3.871-0.51-7.485-4.089-8.998-8.906c-0.942-3.006-0.965-6.105-0.061-8.728
			c0.91-2.646,2.653-4.494,4.908-5.201c0.94-0.295,1.93-0.377,2.938-0.244c3.87,0.51,7.484,4.089,8.996,8.906
			c0.944,3.005,0.966,6.105,0.062,8.727c-0.911,2.647-2.654,4.494-4.908,5.202C426.48,139.564,425.493,139.646,424.484,139.514z
			 M423.212,116.881c-0.942-0.125-1.865-0.047-2.742,0.228c-2.115,0.663-3.755,2.409-4.618,4.917
			c-0.872,2.533-0.849,5.531,0.067,8.446c1.459,4.653,4.925,8.106,8.625,8.594c0.942,0.125,1.866,0.048,2.743-0.228
			c2.114-0.664,3.753-2.41,4.617-4.917c0.872-2.532,0.849-5.532-0.066-8.445C430.378,120.823,426.912,117.369,423.212,116.881z"/>
	</g>
	<g>
		<ellipse transform="matrix(0.9541 -0.2994 0.2994 0.9541 -18.871 132.7967)" cx="423.878" cy="127.974" rx="6.676" ry="8.581"/>
	</g>
	<g>
		<path fill="#0094E8" d="M356.041,134.647c-0.043,5.881,3.026,10.758,6.856,10.891c3.831,0.134,6.97-4.526,7.013-10.407
			c0.044-5.882-3.026-10.759-6.855-10.893C359.225,124.105,356.085,128.765,356.041,134.647z"/>
		<path fill="#00BDFF" d="M357.443,141.211c1.25,2.559,3.223,4.25,5.454,4.327c3.831,0.134,6.97-4.526,7.013-10.407
			c0.014-1.813-0.27-3.53-0.779-5.042C366.206,134.894,362.59,139.545,357.443,141.211z"/>
		<path fill="#006EBF" d="M362.896,145.746c-1.912-0.067-3.698-1.267-5.026-3.38c-1.318-2.093-2.032-4.836-2.011-7.726
			c0.035-4.63,1.99-8.688,4.865-10.097c0.75-0.367,1.534-0.539,2.333-0.512c1.912,0.066,3.697,1.267,5.026,3.38
			c1.318,2.093,2.032,4.837,2.011,7.726c-0.035,4.63-1.989,8.688-4.865,10.096C364.479,145.601,363.694,145.773,362.896,145.746z
			 M356.224,134.653c-0.02,2.801,0.668,5.457,1.941,7.478c1.261,2.002,2.942,3.139,4.735,3.201c0.744,0.026,1.477-0.135,2.178-0.479
			c2.749-1.346,4.618-5.256,4.651-9.729c0.02-2.801-0.669-5.457-1.941-7.478c-1.26-2.001-2.941-3.139-4.734-3.201
			c-0.744-0.026-1.477,0.135-2.178,0.478C358.126,126.271,356.257,130.18,356.224,134.653z"/>
	</g>
	<g>
		<path d="M357.573,134.7c-0.032,4.346,2.361,7.955,5.345,8.059c2.984,0.104,5.429-3.335,5.46-7.682
			c0.033-4.346-2.36-7.954-5.345-8.059C360.05,126.915,357.605,130.354,357.573,134.7z"/>
	</g>
	<g>
		<path fill="#6D2D01" d="M391.69,137.153c0,0,0.509-34.014-24.411-43.115c-18.263-4.96-33.878,4.436-40.954,15.07
			c-5.496-1.542-12.035-10.561-13.613-13.943c2.931,0.452,5.186-0.676,5.186-0.676c-5.186-2.706-9.696-9.471-11.5-18.49
			c2.931-0.676,6.99,0,6.99,0c-4.735-4.51-4.961-11.175-4.735-16.636c4.284,2.431,11.5,11.45,26.607,13.48
			c15.107,2.029,42.754,0.677,53.44,34.725c1.804-13.529,9.922-32.695,42.616-36.528c29.539-3.383,41.265-2.932,52.99-16.461
			c3.383,0.451,5.186,9.696,0,19.392c3.383-2.029,4.51-2.931,4.51-2.931c2.48,2.48,3.382,9.019-7.216,17.137
			c4.059-0.902,6.292-0.676,6.292-0.676c-2.458,4.96-2.694,15.696-21.404,18.671c-6.76-9.427-19.963-22.73-48.312-16.417
			C401.273,94.651,390.619,107.886,391.69,137.153z"/>
		<path fill="#7F3401" d="M391.69,137.153c0,0,2.997-37.157-25.312-46.723c-18.265-4.96-32.696,5.436-40.053,18.679
			c-5.496-1.542-12.035-10.561-13.613-13.943c2.931,0.452,5.186-0.676,5.186-0.676c-5.186-2.706-9.696-9.471-11.5-18.49
			c2.931-0.676,6.99,0,6.99,0c-4.735-4.51-4.961-11.175-4.735-16.636c4.284,2.431,11.5,11.45,26.607,13.48
			c15.107,2.029,42.754,0.677,53.44,34.725c1.804-13.529,9.922-32.695,42.616-36.528c29.539-3.383,41.265-2.932,52.99-16.461
			c3.383,0.451-1.804,14.206-6.99,23.901c3.157,0,6.314-1.578,6.314-1.578c2.479,2.48-5.862,16.617-17.362,18.964
			c-7.787-6.825-21.578-14.68-49.927-8.366C399.44,92.397,390.619,107.886,391.69,137.153z"/>
		<path fill="#8E3D03" d="M391.69,137.153c0,0,0.236-2.93-0.051-7.355C391.583,132.148,391.597,134.595,391.69,137.153z"/>
		<path fill="#8E3D03" d="M484.018,54.909c-11.63,13.188-23.404,12.775-52.699,16.13c-32.694,3.833-40.812,23-42.616,36.528
			c-10.687-34.047-38.333-32.695-53.44-34.725c-14.937-2.007-22.157-10.841-26.459-13.391c-1.276,6.852,8.203,15.453,14.733,20.831
			c-3.157-0.451-6.772-0.412-9.929,0.04c4.961,4.96,9.704,12.814,17.37,10.559c14.272-3.568,28.778-5.889,43.745,2.7
			c14.665,8.762,16.271,26.239,16.917,36.216c0.183-7.616,4.255-33.054,16.003-41.172c16.126-11.142,32.242-10.213,51.187-9.921
			C473.485,78.931,487.587,59.363,484.018,54.909z"/>
		<path fill="#471C00" d="M391.465,137.161c-0.028-0.75-0.048-1.492-0.061-2.221c-0.386-7.619-3.278-33.048-24.2-40.69
			c-3.292-0.893-6.649-1.349-9.96-1.349c-14.662,0-25.717,8.798-30.729,16.333l-0.091,0.137l-0.158-0.044
			c-5.731-1.608-12.248-10.831-13.757-14.065l-0.178-0.382l0.417,0.064c0.448,0.069,0.908,0.104,1.368,0.104
			c1.476,0,2.666-0.36,3.263-0.584c-5.316-3.005-9.484-9.844-11.2-18.419l-0.043-0.215l0.213-0.049
			c0.88-0.203,1.946-0.306,3.166-0.306c1.309,0,2.522,0.12,3.24,0.209c-4.21-4.424-4.557-10.716-4.325-16.33l0.015-0.37l0.321,0.183
			c1.048,0.594,2.277,1.584,3.702,2.73c4.545,3.659,11.415,9.189,22.825,10.722c1.675,0.225,3.51,0.409,5.453,0.604
			c15.224,1.526,38.15,3.823,47.874,33.345c2.225-14.517,11.535-32.103,42.675-35.753c3.593-0.412,6.859-0.759,10.021-1.096
			c22.371-2.383,32.583-3.471,42.824-15.288l0.079-0.092l0.121,0.016c0.922,0.123,1.734,0.82,2.347,2.017
			c1.714,3.343,1.604,10.172-1.809,16.992c2.799-1.707,3.791-2.492,3.8-2.5l0.158-0.125l0.143,0.143
			c1.178,1.178,1.78,2.968,1.651,4.913c-0.175,2.662-1.748,6.861-8.127,11.966c2.264-0.439,3.862-0.51,4.663-0.51
			c0.487,0,0.742,0.025,0.751,0.026l0.324,0.033l-0.144,0.292c-0.405,0.817-0.759,1.821-1.133,2.883
			c-1.881,5.341-4.724,13.413-20.438,15.912l-0.138,0.022l-0.081-0.113c-8.666-12.087-19.858-17.963-34.213-17.963
			c-4.332,0-8.998,0.55-13.867,1.634c-18.154,5.26-26.785,19.965-26.37,44.951c0.07,1.397,0.061,2.223,0.061,2.231L391.465,137.161z
			 M357.244,92.45c3.352,0,6.748,0.461,10.096,1.371c17.924,6.545,22.784,25.899,24.096,36.373
			c0.337-11.125,2.618-19.85,6.929-26.579c4.426-6.905,10.887-11.51,19.751-14.078c4.914-1.095,9.612-1.648,13.979-1.648
			c14.465,0,25.752,5.9,34.499,18.038c15.327-2.48,17.995-10.057,19.945-15.594c0.335-0.948,0.651-1.85,1.009-2.627
			c-0.104-0.004-0.231-0.006-0.382-0.006c-0.889,0-2.787,0.09-5.514,0.696l-0.995,0.221l0.811-0.62
			c6.881-5.271,8.536-9.562,8.713-12.234c0.115-1.738-0.389-3.336-1.385-4.422c-0.419,0.312-1.679,1.208-4.371,2.824l-0.699,0.42
			l0.386-0.72c3.699-6.916,3.894-13.931,2.174-17.287c-0.516-1.004-1.166-1.608-1.889-1.755
			c-10.329,11.861-20.602,12.956-43.034,15.346c-3.159,0.337-6.426,0.685-10.017,1.095c-31.55,3.7-40.48,21.801-42.418,36.334
			l-0.135,1.008l-0.306-0.97c-9.454-30.122-32.522-32.434-47.787-33.963c-1.947-0.195-3.785-0.379-5.468-0.605
			c-11.534-1.55-18.462-7.127-23.047-10.817c-1.264-1.018-2.373-1.91-3.319-2.499c-0.204,5.623,0.248,11.864,4.68,16.085
			l0.532,0.506l-0.724-0.121c-0.018-0.002-1.811-0.298-3.838-0.298c-1.087,0-2.044,0.083-2.85,0.249
			c1.738,8.438,6.07,15.368,11.339,18.117l0.391,0.204L318,94.691c-0.066,0.033-1.639,0.807-3.885,0.807
			c-0.339,0-0.68-0.019-1.015-0.055c1.856,3.644,8.015,11.837,13.131,13.403C331.348,101.25,342.493,92.45,357.244,92.45z"/>
	</g>
	<g>
		<path fill="#FFAD03" d="M369.536,167.998c0,0-7.216-29.635,19.617-35.224c15.106-2.433,20.744,20.341,31.567,21.469
			c-4.471,6.331-11.273,15.108-27.96,12.176C377.653,163.714,375.623,164.165,369.536,167.998z"/>
		<path fill="#FFBD00" d="M410.986,147.523c-5.961-6.893-11.815-16.362-21.833-14.749c-26.833,5.589-19.617,35.224-19.617,35.224
			C374.722,152.665,410.986,162.586,410.986,147.523z"/>
		<path fill="#FFC703" d="M379.1,156.372c10.91-2.517,27.835-3.481,27.835-13.731c-4.753-5.707-10.017-11.117-17.782-9.866
			c-24.404,5.083-20.645,30.053-19.765,34.532C369.866,162.39,374.217,157.186,379.1,156.372z"/>
		<path fill="#FFD647" d="M395.846,137.707c1.239-1.243,1.414-2.986-2.922-3.208c-11.269-0.044-19.448,8.782-21.902,17.385
			c0.361-0.467,1-1.981,1.362-2.391C380.495,140.306,391.712,141.854,395.846,137.707z"/>
		<path fill="#E37A00" d="M369.391,168.355l-0.074-0.304c-0.035-0.142-3.381-14.323,3.277-24.866
			c3.472-5.497,9.026-9.074,16.514-10.633c0.771-0.124,1.53-0.187,2.27-0.187c7.445,0,12.41,6.064,17.211,11.927
			c3.894,4.756,7.571,9.248,12.157,9.726l0.382,0.04l-0.222,0.315c-3.396,4.807-9.076,12.853-21.847,12.853
			c-1.994,0-4.126-0.197-6.338-0.585c-5.924-1.061-10.23-1.719-13.392-1.719c-4.044,0-6.148,1.046-9.673,3.266L369.391,168.355z
			 M391.377,132.818c-0.715,0-1.451,0.06-2.188,0.178c-7.35,1.532-12.809,5.041-16.212,10.427
			c-6.015,9.523-3.732,22.096-3.289,24.213c3.44-2.15,5.587-3.165,9.642-3.165c3.194,0,7.523,0.661,13.472,1.727
			c2.184,0.383,4.289,0.578,6.258,0.578c12.271,0,17.894-7.593,21.262-12.357c-4.591-0.69-8.231-5.139-12.081-9.84
			C403.505,138.797,398.608,132.818,391.377,132.818z"/>
	</g>
	<circle fill="#FFFFFF" cx="361.688" cy="129.798" r="2.751"/>
	<circle fill="#FFFFFF" cx="367.256" cy="133.47" r="1.103"/>
	<circle fill="#FFFFFF" cx="364.62" cy="140.261" r="1.644"/>
	<circle fill="#FFFFFF" cx="420.482" cy="124.209" r="3.108"/>
	<circle fill="#FFFFFF" cx="427.794" cy="126.029" r="1.246"/>
	<circle fill="#FFFFFF" cx="427.537" cy="134.255" r="1.856"/>
</g>
</svg>
