<?xml version="1.0" encoding="utf-8"?>
<!-- Generator: Adobe Illustrator 16.0.0, SVG Export Plug-In . SVG Version: 6.00 Build 0)  -->
<!DOCTYPE svg PUBLIC "-//W3C//DTD SVG 1.1//EN" "http://www.w3.org/Graphics/SVG/1.1/DTD/svg11.dtd">
<svg version="1.1" id="Layer_1" xmlns="http://www.w3.org/2000/svg" xmlns:xlink="http://www.w3.org/1999/xlink" x="0px" y="0px"
	 width="768px" height="430px" viewBox="0 0 768 430" enable-background="new 0 0 768 430" xml:space="preserve">
<g>
	<g>
		<path fill="#F9ACAC" d="M337.115,187.051c0,0-35.717,3.858-42.848,48.514c-3.079,19.28,44.796,2.446,44.796,2.446l9.857-42.777
			L337.115,187.051z"/>
		<path fill="#F9ACAC" d="M338.883,189.558c0,0-37.485,1.352-44.616,46.007c-3.079,19.28,44.796,2.446,44.796,2.446l9.857-42.777
			L338.883,189.558z"/>
		<path fill="#F9BBBB" d="M338.883,189.558c0,0-37.485,1.352-44.616,46.007c-3.079,19.28,45.382-4.051,45.382-4.051l9.271-36.28
			L338.883,189.558z"/>
		<path fill="#FFCCCB" d="M341.309,193.184c0,0-38.199-2.274-45.329,42.381c-3.08,19.28,44.52-11.208,44.52-11.208l8.421-29.123
			L341.309,193.184z"/>
		<path fill="#F98080" d="M306.403,245.17c-0.002,0-0.001,0-0.002,0c-5.437,0-9.169-1.143-11.089-3.394
			c-1.337-1.568-1.805-3.678-1.391-6.268c3.703-23.194,15.231-35.228,24.25-41.239c9.779-6.52,18.816-7.559,18.906-7.569
			l0.131-0.014l12.108,8.394l-9.955,43.2l-0.182,0.062C338.985,238.411,319.615,245.17,306.403,245.17z M337.026,187.417
			c-1.125,0.15-9.483,1.441-18.495,7.457c-8.89,5.936-20.256,17.821-23.917,40.745c-0.379,2.379,0.035,4.295,1.233,5.699
			c1.781,2.089,5.332,3.149,10.553,3.149c12.41,0,30.359-6.039,32.363-6.724l9.762-42.358L337.026,187.417z"/>
	</g>
	<g>
		<g>
			<path fill="#F9ACAC" d="M311.875,286.257c0,0-1.114,14.914,4.229,25.373c5.342,10.463,10.406,16.917,13.911,22.76
				c3.505,5.843,7.513,21.37,5.008,28.882c-2.503,5.508-4.006,11.686-2.838,15.022c2.171,0,8.013-6.844,8.013-6.844
				c-1.67,3.006-1.168,7.68-1.168,7.68c3.172,0.501,15.692-1.835,15.525-14.355c0.668-7.683,7.846-28.214,20.532-37.562
				C364.738,319.699,323.616,284.865,311.875,286.257z"/>
			<path fill="#F9BBBB" d="M312.451,299.218c0.594,4.096,1.684,8.558,3.653,12.412c5.342,10.463,10.406,16.917,13.911,22.76
				c3.505,5.843,7.513,21.37,5.008,28.882c-2.503,5.508-4.006,11.686-2.838,15.022c2.171,0,8.013-6.844,8.013-6.844
				c-1.67,3.006-1.168,7.68-1.168,7.68c3.172,0.501,11.95-3.363,11.783-15.883c0.492-5.648,2.079-18.874,7.935-29.195
				C340.089,326.873,322.429,316.269,312.451,299.218z"/>
			<path fill="#F98080" d="M339.959,379.522L339.959,379.522c-0.374,0-0.704-0.021-0.981-0.062l-0.253-0.041l-0.027-0.257
				c-0.017-0.156-0.333-3.25,0.47-6.048c-1.893,2.066-5.304,5.513-6.982,5.513h-0.237l-0.077-0.222
				c-1.313-3.751,0.609-10.351,2.848-15.272c2.389-7.173-1.308-22.431-4.99-28.568c-1.139-1.899-2.466-3.897-3.87-6.012
				c-3.021-4.546-6.443-9.698-10.054-16.77c-5.322-10.426-4.275-25.4-4.264-25.549l0.021-0.274l0.273-0.032
				c0.243-0.031,0.493-0.045,0.761-0.045c10.238,0,37.412,21.335,53.648,34.078c3.932,3.089,7.039,5.526,9.038,6.979l0.37,0.271
				l-0.367,0.27c-13.053,9.62-19.789,30.313-20.398,37.319c0.057,4.072-1.217,7.476-3.778,10.07
				C347.483,378.543,342.396,379.522,339.959,379.522z M339.34,378.833c0.185,0.015,0.391,0.024,0.619,0.024
				c2.171,0,7.196-0.934,10.672-4.452c2.434-2.47,3.641-5.706,3.588-9.629c0.613-7.065,7.319-27.701,20.307-37.561
				c-2.015-1.482-4.986-3.818-8.694-6.726c-15.108-11.863-43.229-33.941-53.236-33.941c-0.14,0-0.273,0.002-0.405,0.016
				c-0.114,2.097-0.627,15.442,4.21,24.917c3.593,7.033,7.005,12.171,10.014,16.701c1.409,2.122,2.739,4.126,3.885,6.036
				c3.333,5.553,7.652,21.315,5.04,29.156c-2.681,5.902-3.805,11.549-2.92,14.559c1.81-0.395,5.998-4.913,7.524-6.7l0.546,0.378
				C339.114,374.088,339.269,377.815,339.34,378.833z"/>
		</g>
		<g>
			<g>
				<path fill="#AD454B" d="M335.031,363.247c-0.002,0.007-0.005,0.015-0.008,0.024c-2.503,5.508-4.006,11.686-2.838,15.022
					c2.171,0,8.013-6.844,8.013-6.844c-1.67,3.006-1.168,7.68-1.168,7.68c3.172,0.501,15.692-1.835,15.525-14.355
					c0.02-0.229,0.046-0.468,0.077-0.72C344.839,367.79,337.889,364.918,335.031,363.247z"/>
				<g>
					<path fill="#C15A5B" d="M335.031,363.247c-0.002,0.007-0.005,0.015-0.008,0.024
						C335.026,363.262,335.028,363.254,335.031,363.247L335.031,363.247z"/>
					<path fill="#C15A5B" d="M350.756,365.237c-7.75,1.782-13.261-0.548-15.726-1.99c-0.002,0.007-0.005,0.015-0.008,0.024
						c-2.503,5.508-2.669,9.432-1.502,12.77c2.171,0,8.431-7.597,8.431-7.597c-1.67,3.006-1.252,9.072-1.252,9.072
						C343.696,377.986,350.023,376.177,350.756,365.237z"/>
				</g>
				<path fill="#934246" d="M339.959,379.522c-0.374,0-0.704-0.021-0.981-0.062l-0.253-0.041l-0.027-0.257
					c-0.017-0.156-0.333-3.25,0.47-6.048c-1.893,2.066-5.304,5.513-6.982,5.513h-0.237l-0.077-0.222
					c-1.313-3.751,0.609-10.351,2.848-15.272l0.12-0.412l0.359,0.236c1.656,0.969,5.165,2.593,10.052,2.593
					c3.002,0,6.118-0.606,9.263-1.808l0.517-0.196l-0.068,0.552c-0.03,0.246-0.055,0.48-0.076,0.704
					c0.057,4.07-1.217,7.474-3.778,10.068C347.483,378.543,342.396,379.522,339.959,379.522z M339.34,378.833
					c0.185,0.015,0.391,0.024,0.619,0.024c2.171,0,7.196-0.934,10.672-4.452c2.434-2.47,3.641-5.71,3.588-9.629
					c0.006-0.075,0.014-0.146,0.02-0.219c-3.048,1.103-6.068,1.662-8.99,1.662c-4.744,0-8.239-1.488-10.063-2.5
					c-2.568,5.76-3.635,11.259-2.767,14.214c1.81-0.395,6.334-4.926,7.861-6.716C340.282,371.218,339.057,375.54,339.34,378.833z"/>
			</g>
		</g>
		<g>
			<path fill="#F9ACAC" d="M450.936,276.126c0,0,2.904-1.375,4.91-4.045c1.259-1.682,1.039-4.969,2.599-4.633
				c1.559,0.332,1.891,9.739-8.567,12.187C450.377,278.411,450.825,276.79,450.936,276.126z"/>
			<path fill="#FFCCCB" d="M450.936,276.126c0,0,2.904-1.375,4.91-4.045c1.259-1.682,1.274-5.523,2.599-4.633
				c0.398,0.268,0.749,8.181-8.017,10.625C450.931,276.851,450.825,276.79,450.936,276.126z"/>
			<path fill="#F98080" d="M449.322,280.107l0.246-0.597c0.506-1.243,0.936-2.821,1.037-3.441l0.029-0.173l0.158-0.073
				c0.028-0.016,2.855-1.371,4.781-3.944c0.482-0.637,0.742-1.57,0.976-2.399c0.346-1.228,0.671-2.386,1.683-2.386
				c0.089,0,0.187,0.011,0.281,0.028c0.651,0.141,1.064,1.104,1.077,2.517c0.029,2.99-1.969,8.525-9.64,10.323L449.322,280.107z
				 M451.233,276.35c-0.123,0.611-0.433,1.751-0.816,2.804c6.748-1.843,8.531-6.799,8.508-9.509
				c-0.013-1.241-0.365-1.828-0.549-1.871c-0.05-0.01-0.101-0.015-0.144-0.015c-0.503,0-0.765,0.923-1.041,1.905
				c-0.249,0.878-0.527,1.88-1.081,2.617C454.324,274.666,451.875,276.02,451.233,276.35z"/>
		</g>
		<g>
			<path fill="#F9ACAC" d="M437.856,282.225c0,0,9.266-1.672,9.933-7.014c0.668-5.341-5.482-11.026-8.71-6.207
				c-2.309,3.452,3.926,8.704,8.318,7.592c-0.528,1.474-2.822,3.039-2.822,3.039c-1.842,0.297-6.167-0.813-8.889-4.73
				c-3.007-4.324-0.98-10.766,3.671-12.019c5.787-1.56,10.635,2.311,12.133,7.455c1.391,4.785,1.112,14.914-11.186,17.361
				C427.183,290.315,437.856,282.225,437.856,282.225z"/>
			<path fill="#FFCCCB" d="M437.856,282.225c0,0,9.266-1.672,9.933-7.014c0.668-5.341-5.855-12.341-9.432-7.147
				c-3.038,4.41,4.647,9.645,9.04,8.532c-0.528,1.474-1.779,1.774-1.779,1.774c-1.842,0.301-6.098-0.853-8.819-4.769
				c-3.005-4.33-2.093-9.463,2.559-10.716c5.787-1.56,9.021,2.087,10.52,7.234c1.391,4.784,1.001,13.244-11.297,15.691
				C425.457,288.424,437.856,282.225,437.856,282.225z"/>
			<path fill="#F98080" d="M436.119,288.555c-1.523,0-2.382-0.352-2.627-1.08c-0.604-1.792,3.362-4.91,4.163-5.52l0.062-0.045
				l0.08-0.018c0.041-0.008,2.912-0.539,5.517-1.911c-2.437-0.23-5.746-1.782-7.903-4.885c-1.566-2.256-1.915-5.198-0.938-7.877
				c0.867-2.369,2.615-4.07,4.799-4.656c0.888-0.239,1.782-0.36,2.662-0.36c4.509,0,8.479,3.234,9.878,8.047
				c0.878,3.031,1.001,7.625-1.309,11.423c-1.991,3.275-5.398,5.417-10.132,6.355C438.616,288.379,437.188,288.555,436.119,288.555z
				 M437.996,282.537c-1.707,1.307-4.217,3.699-3.872,4.727c0.257,0.761,2.486,0.836,6.113,0.11
				c4.545-0.903,7.806-2.938,9.693-6.048c2.195-3.612,2.08-7.994,1.237-10.892c-1.315-4.523-5.024-7.564-9.234-7.564
				c-0.82,0-1.655,0.116-2.487,0.338c-1.971,0.528-3.554,2.079-4.345,4.24c-0.905,2.472-0.583,5.19,0.861,7.266
				c2.543,3.664,6.332,4.633,7.982,4.631c0.183,0,0.352-0.008,0.502-0.027c0.274-0.196,1.398-1.02,2.118-1.949
				c0.077-0.107,0.149-0.213,0.218-0.324c-2.908,0.324-6.553-1.704-7.977-4.367c-0.738-1.384-0.742-2.757-0.004-3.855
				c0.863-1.289,2.001-1.972,3.289-1.972c1.341,0,2.781,0.76,3.947,2.084c1.553,1.758,2.351,4.177,2.079,6.32
				c-0.062,0.507-0.202,1.006-0.417,1.478c-0.107,0.312-0.315,0.672-0.605,1.045C444.651,281.152,438.787,282.386,437.996,282.537z
				 M442.092,267.517c-1.071,0-1.99,0.564-2.735,1.677c-0.759,1.135-0.396,2.351,0.039,3.169c1.193,2.233,4.217,4.051,6.739,4.051
				c0.355,0,0.698-0.033,1.022-0.106c0.153-0.375,0.251-0.756,0.298-1.138c0.246-1.958-0.488-4.176-1.913-5.792
				C444.498,268.194,443.242,267.517,442.092,267.517z"/>
		</g>
		<g>
			<path fill="#F9ACAC" d="M340.364,183.869c0,0-24.039,24.708-31.604,61.432c-7.568,36.728,4.615,64.159,24.35,74.779
				c27.803,14.962,50.881,14.479,79.594,4.685c28.714-9.794,22.038-54.767,19.811-62.106c-2.224-7.342-10.017-23.59-9.57-28.041
				C423.388,230.167,414.264,155.156,340.364,183.869z"/>
			<path fill="#F9BBBB" d="M423,248.023c-24.93,14.18-38.589-0.211-56.203,0.396c-4.674,0.664-11.353,14.118-20.701,8.012
				c-0.667,0,1.225-4.34,1.892-6.346c-3.088,0.448-5.089,1.188-7.949,2.228c-2.456-29.28,50.797-13.912,74.838-20.588
				c1.266-0.317,2.534-0.634,3.795-0.981c-0.132-4.162-1.31-15.283-6.23-26.327c-4.771,0.265-9.636-0.25-14.261-1.406
				c-13.354-2.671-21.774-6.642-36.464-2.634c-9.019,3.155-21.135-2.14-26.888-9.468c-7.703,10.153-20.706,30.259-25.679,54.392
				c-7.569,36.728,6.575,61.159,26.815,70.782c25.751,12.243,47.302,5.451,71.787-6.676c27.185-13.469,22.481-39.861,20.255-47.204
				C427.011,258.913,424.941,253.453,423,248.023z"/>
			<path fill="#F98080" d="M375.874,332.106c-0.003,0,0,0-0.003,0c-14.407,0-28.045-3.73-42.918-11.732
				c-21.875-11.77-31.5-41.264-24.519-75.14c7.5-36.4,31.452-61.351,31.693-61.598l0.119-0.077
				c11.191-4.35,21.563-6.554,30.825-6.554c14.202,0,26.018,5.102,35.125,15.166c14.771,16.315,17.289,40.412,17.08,42.482
				c-0.274,2.754,2.844,10.525,5.593,17.379c1.622,4.041,3.154,7.856,3.966,10.532c2.378,7.843,8.786,52.691-20.021,62.518
				C398.76,329.874,387.019,332.106,375.874,332.106z M340.555,184.153c-1.228,1.292-24.173,25.81-31.47,61.218
				c-6.919,33.578,2.574,62.788,24.183,74.417c14.774,7.949,28.312,11.648,42.603,11.652h0.003c11.072,0,22.742-2.224,36.721-6.994
				c28.312-9.654,21.949-53.944,19.6-61.689c-0.801-2.648-2.328-6.451-3.946-10.479c-2.916-7.262-5.931-14.773-5.638-17.693
				c0.205-2.041-2.295-25.819-16.911-41.969c-8.973-9.915-20.625-14.943-34.63-14.943
				C361.909,177.673,351.642,179.853,340.555,184.153z"/>
		</g>
		<g>
			<path fill="#F9ACAC" d="M457.221,359.709c-6.011-9.794-10.908-36.282-11.131-45.408c-0.222-9.125-3.115-43.847-24.927-52.975
				l-33.61,44.298c0,0-4.229,18.687,8.904,26.148c13.131,7.46,36.946,29.05,41.845,37.507c4.896,8.458,10.821,12.466,13.758,12.466
				c0.487-3.338,0-9.349,0-9.349c2.712,2.895,6.274,5.786,6.274,5.786C461.004,374.846,463.231,369.501,457.221,359.709z"/>
			<path fill="#F9C0C0" d="M454.566,359.485c-6.008-9.794-11.433-36.949-11.654-46.073c-0.224-9.125-4.274-42.974-22.028-52.307
				l-33.331,44.519c0,0-1.78,16.133,11.352,23.591c13.133,7.458,32.275,25.574,37.17,34.032c4.899,8.457,10.616,14.27,13.551,14.27
				c0.489-3.341,0-11.194,0-11.194c2.714,2.893,7.596,6.299,7.596,6.299C459.893,369.279,460.576,369.279,454.566,359.485z"/>
			<path fill="#F98080" d="M452.35,382.077h-0.29c-3.264,0-9.299-4.428-14.049-12.629c-4.964-8.576-29.14-30.237-41.722-37.385
				c-13.192-7.495-8.412-26.369-8.412-26.369c-0.041,0.186-4.018,18.538,8.742,25.788c12.931,7.346,36.856,28.796,41.971,37.629
				c4.993,8.624,10.58,12.042,13.179,12.286c0.409-3.314-0.038-8.918-0.043-8.974l-0.076-0.954l0.654,0.697
				c2.243,2.394,5.106,4.817,5.979,5.54c2.348-3.061,4.552-8.21-1.349-17.823c-5.952-9.699-10.944-36.07-11.177-45.573
				c-0.105-4.378-1.577-43.354-24.595-52.984c0,0,6.512,2.674,10.174,6.802c13.469,15.187,14.999,42.487,15.089,46.167
				c0.229,9.44,5.181,35.628,11.078,45.239c6.295,10.257,3.638,15.674,1.091,18.857l-0.211,0.263l-0.263-0.212
				c-0.032-0.025-3.074-2.507-5.664-5.147c0.117,1.823,0.31,5.912-0.069,8.498L452.35,382.077z"/>
		</g>
		<g>
			<path fill="#F9ACAC" d="M407.426,178.56l-0.508,28.46c0,0-9.572,7.788-15.136,17.59c0,0-28.937-6.463-40.288,1.33
				c-11.351,7.786-12.241,21.588-11.13,24.926c0,0,4.007-1.556,6.456-2.671c0,0-0.89,4.45-1.114,8.236
				c8.459,4.007,17.362-10.907,19.812-12.465c2.447-1.559,17.36,4.453,28.71,6.457c11.353,2,34.118-6.276,40.567-24.932
				C442.912,202.011,407.426,178.56,407.426,178.56z"/>
			<path fill="#F9BBBB" d="M406.497,204.381l0.421,2.639c0,0-9.572,7.788-15.136,17.59c0,0-28.937-6.463-40.288,1.33
				c-11.351,7.786-10.729,17.137-9.618,20.476c0,0,4.401-0.804,6.851-1.918c0,0,0.222,4.586,0,8.374
				c8.457,4.004,10.986-10.907,13.434-12.465c2.448-1.561,19.492,2.089,30.844,4.091c11.353,2.006,26.832-2.563,35.057-20.503
				c4.491-9.8,0.652-15.783-3.359-22.38C419.063,203.974,412.747,204.795,406.497,204.381z"/>
			<path fill="#F98080" d="M348.724,257.453c-1.047,0-2.104-0.219-3.16-0.72l-0.203-0.096l0.014-0.227
				c0.17-2.925,0.748-6.28,0.998-7.651c-2.435,1.076-5.85,2.403-5.886,2.418l-0.327,0.129l-0.111-0.335
				c-1.314-3.939,0.158-17.693,11.257-25.312c10.92-7.494,37.304-2.078,40.309-1.43c5.55-9.644,15.512-16.951,15.512-16.951
				c-0.094,0.076-9.584,7.864-15.054,17.494l-0.124,0.214l-0.24-0.053c-0.288-0.062-28.923-6.341-40.025,1.279
				c-11.128,7.634-11.897,20.761-11.096,24.21c1.023-0.404,4.098-1.625,6.094-2.533l0.592-0.269l-0.127,0.639
				c-0.009,0.045-0.852,4.297-1.091,7.961c6.162,2.689,12.608-4.961,16.476-9.552c1.269-1.503,2.184-2.588,2.807-2.985
				c1.454-0.924,5.919,0.3,13.681,2.542c4.882,1.409,10.42,3.013,15.268,3.867c11.872,2.091,33.964-6.691,40.192-24.709
				c7.939-22.972-26.886-46.313-27.238-46.546l0.366-0.557c0.359,0.238,35.611,23.863,27.502,47.319
				c-6.34,18.343-28.841,27.283-40.936,25.149c-4.887-0.86-10.441-2.466-15.34-3.882c-6.103-1.764-11.865-3.431-13.137-2.62
				c-0.537,0.34-1.472,1.45-2.654,2.852C359.645,251.135,354.317,257.453,348.724,257.453z"/>
		</g>
		<g>
			<path fill="#F98080" d="M389.973,228.631c0,0,0.583-2.961,1.813-4.636l0.539,0.394
				C391.137,226.008,389.984,228.608,389.973,228.631z"/>
		</g>
		<g>
			<g>
				<path fill="#B73B41" d="M345.354,231.887c-5.506,7.493-5.851,16.386-4.989,18.979c0,0,4.007-1.556,6.456-2.671
					c0,0-0.89,4.45-1.114,8.236c5.714,2.706,11.626-3.218,15.619-7.829C355.27,247.644,344.853,244.205,345.354,231.887z"/>
				<path fill="#AD454B" d="M345.354,231.887c-5.506,7.493-5.851,16.386-4.989,18.979c0,0,4.007-1.556,6.456-2.671
					c0,0-0.89,4.45-1.114,8.236c5.714,2.706,11.626-3.218,15.619-7.829C355.27,247.644,344.853,244.205,345.354,231.887z"/>
				<g>
					<path fill="#C15A5B" d="M345.354,231.887c-1.526,2.079-2.646,4.264-3.462,6.394c-0.967,3.539-0.549,6.529-0.016,8.136
						c0,0,4.401-0.804,6.851-1.918c0,0,0.222,4.586,0,8.374c5.273-0.016,7.387-1.175,9.417-4.949
						C352.213,246.315,344.934,242.232,345.354,231.887z"/>
				</g>
				<path fill="#934246" d="M348.701,257.445L348.701,257.445c-1.081,0-2.138-0.239-3.137-0.712l-0.203-0.096l0.014-0.227
					c0.17-2.925,0.748-6.28,0.998-7.651c-2.435,1.076-5.85,2.403-5.886,2.418l-0.327,0.129l-0.111-0.335
					c-0.963-2.89-0.47-11.79,5.036-19.284l0.646-0.879l-0.042,1.091c-0.488,12.006,9.62,15.412,15.689,16.373l0.595,0.097
					l-0.394,0.45C358.102,252.837,353.495,257.445,348.701,257.445z M346.056,256.222c0.846,0.368,1.736,0.557,2.645,0.557
					c4.352,0,8.648-4.15,11.981-7.943c-6.137-1.091-15.555-4.602-15.678-15.871c-4.657,6.93-5.068,14.753-4.418,17.46
					c1.021-0.404,4.1-1.625,6.096-2.533l0.592-0.269l-0.127,0.639C347.138,248.306,346.295,252.558,346.056,256.222z"/>
			</g>
		</g>
		<g>
			<path fill="#FFCCCB" d="M335.893,297.689c0,0-7.705,3.74-3.874,8.155c3.86,4.451,8.792-2.895,8.792-2.895L335.893,297.689z"/>
		</g>
		<g>
			<path fill="#F9ACAC" d="M346.154,72.136c0,0,18.252-16.247,43.179-10.462c24.931,5.786,36.727,19.808,36.727,19.808
				c3.782-0.667,9.291-2.223,11.162-6.543c1.781,4.451,12.43,61.745,12.655,64.86c0.221,3.118,7.307,22.116-6.679,41.399
				c-13.987,19.286-30.729,16.028-44.189,14.913c-13.459-1.113-24.59-2.114-31.601-0.277c-7.511,3.839-28.712,6.51-34.722-12.188
				c-7.678-9.513-14.871-17.291-20.365-24.537c-7.847-10.352-13.689-21.036-12.354-32.219c1.336-11.187,9.014-23.991,21.368-29.714
				C338.137,89.389,342.257,79.811,346.154,72.136z"/>
			<path fill="#F9BBBB" d="M444.2,143.565c-5.29,0.426-10.543,0.859-16.024-0.317c-3.337-0.668-3.337-6.675-2.003-10.684
				c2.697-7.016,8.889-10.541,15.041-13.4c-1.247-17.068-3.158-40.983-4.322-43.893c-1.871,4.319-7.38,5.879-11.163,6.543
				c0,0-11.796-14.021-36.725-19.809c-7.472-1.733-14.335-1.483-20.296-0.289c-7.554,19.554-24.579,35.329-43.363,43.471
				c-5.486,2.743-7.842-0.778-8.782-5.198c-9.745,6.441-15.76,17.457-16.926,27.232c-1.336,11.185,4.507,21.87,12.352,32.218
				c5.494,7.247,11.104,9.608,18.782,19.122c7.247,23.384,30.465,16.519,37.978,12.679c7.01-1.835,16.377,1.617,29.881,1.617
				c15.969,0,27.174,0.008,39.729-20.24C445.846,160.542,445.421,149.882,444.2,143.565z M342.371,167.289
				c-19.363-7.345-20.199-24.875-20.199-24.875l3.889,1.325c0.201-2.556,1.269-5.236,3.378-8.002
				c6.176-8.098,16.526-11.438,19.031-13.439c2.505-2.002,7.763-6.177,12.187-3.838c4.424,2.334,5.091,7.762,6.719,10.935
				c2.024,3.944,14.063,22.657,7.971,30.777c-0.077,0.102-0.165,0.196-0.246,0.301l11.174,3.812
				C386.275,164.285,361.735,174.632,342.371,167.289z"/>
			<path fill="#FFCCCB" d="M427.005,144.608c-5.675-3.65-4.34-10.875-4.673-23.439c-0.337-12.562,3.17-34.011,6.009-37.85
				c0,0-2.17,0.166-4.076,0c-29.781-27.21-54.187-19.431-54.187-19.431c-2.67,8.363-12.77,19.763-15.773,22.52
				c2.162-0.422,6.844,0.417,7.856,9.099c1.012,8.679-4.602,16.609-6.358,18.455c0,0,2.509-0.844,4.569-1.2
				c8.238-7.787,14.299-0.312,15.451,2.101c-5.776-3.848-9.665-3.081-12.003-1.492c9.358,3.312,11.268,8.511,11.434,10.181
				c-3.587-4.84-8.596-7.177-12.602-8.259c2.489,1.297,3.673,4.502,4.716,7.926c1.044,3.421,4.048,7.595,6.718,12.503
				c2.671,4.91,4.924,9.948,4.005,18.26c0.008,0.737-0.053,1.421-0.145,2.082c0.902,0.399,1.661,0.978,2.364,1.62
				c0.042-3.171,1.366-6.471,1.788-10.872c0.667-6.973,2.781-10.573,4.368-11.763c0,0-4.815-2.594-2.81-16.773
				c2.003-14.183,14.91-23.216,22.657-13.535c7.744,9.677-0.177,25.711-3.46,29.077c4.475,1.142,11.74,7.318,13.146,10.417
				c1.408,3.1,3.379,18.602-3.367,25.353c-6.752,8.311-25.413,1.041-28.112-1.741c-3.207,1.603-14.998,10.459-20.556,15.759
				c-5.559,5.298-10.467,7.387-19.481,8.921c15.357,2.422,18.696-2.535,24.929-3.762c6.233-1.228,39.731,5.9,54.852-3.95
				c15.123-9.848,18.601-28.834,18.601-38.744C442.865,146.07,432.68,148.257,427.005,144.608z"/>
			<path fill="#F98080" d="M354.42,198.931c-6.404,0-17.771-1.969-22.033-15.124c-3.396-4.205-6.653-8.02-9.801-11.708
				c-3.844-4.5-7.475-8.756-10.532-12.79c-6.553-8.645-13.889-20.147-12.419-32.459c1.258-10.534,8.412-23.889,21.561-29.979
				c15.84-7.339,20.399-16.411,24.063-23.703l0.673-1.283c0.132-0.12,13.467-11.792,32.596-11.792c3.634,0,7.295,0.423,10.882,1.254
				c23.386,5.427,35.419,18.254,36.776,19.772c5.76-1.046,9.369-3.173,10.729-6.316l0,0l0.615,0.01
				c1.933,4.822,12.477,62.164,12.679,64.961c0.029,0.404,0.193,1.151,0.401,2.097c1.368,6.228,5.009,22.769-7.143,39.524
				c-10.265,14.153-21.903,15.969-30.894,15.969c-3.601,0-7.088-0.326-10.462-0.64c-1.062-0.098-2.106-0.196-3.131-0.28l-1.27-0.106
				c-7.691-0.637-14.33-1.187-20.008-1.187c-4.27,0-7.599,0.325-10.175,0.997C364.874,197.495,360.047,198.931,354.42,198.931z
				 M346.422,72.344l-0.568,1.125c-3.709,7.381-8.325,16.57-24.38,24.007c-12.914,5.984-19.941,19.104-21.177,29.453
				c-1.441,12.074,5.81,23.431,12.288,31.976c3.047,4.019,6.672,8.264,10.509,12.759c3.164,3.708,6.437,7.54,9.851,11.774
				l0.059,0.107c4.117,12.803,15.184,14.717,21.416,14.717c5.532,0,10.259-1.409,12.837-2.726l0.065-0.028
				c2.639-0.688,6.035-1.024,10.381-1.024c5.704,0,12.357,0.552,20.062,1.188l1.271,0.107c1.028,0.084,2.073,0.183,3.137,0.282
				c3.359,0.313,6.832,0.637,10.4,0.637c8.833-0.001,20.265-1.786,30.354-15.695c11.976-16.511,8.383-32.839,7.031-38.987
				c-0.224-1.009-0.385-1.738-0.419-2.193c-0.18-2.514-10.028-55.903-12.383-64.008c-1.687,2.986-5.395,5.001-11.039,5.997
				l-0.19,0.034l-0.125-0.149c-0.115-0.136-12.022-14.004-36.546-19.698c-3.535-0.821-7.146-1.236-10.73-1.236
				C360.225,60.761,347.298,71.588,346.422,72.344z"/>
		</g>
		<g>
			<g>
				<path fill="#F9ACAC" d="M460.673,95.727c0,0,2.444-16.248-10.464-21.368c-12.909-5.119-19.195,3.617-22.927,18.919
					c-3.447,14.157-5.118,48.969,1.559,50.082c6.68,1.112,12.91-6.011,25.152-6.454c12.242-0.444,27.156-10.907,20.699-24.261
					C468.238,99.289,462.674,99.957,460.673,95.727z"/>
				<path fill="#F9BBBB" d="M462.154,103.424c0,0-2.932,0.196-4.1-15.266c-0.412-5.447-3.749-11.465-8.791-13.465
					c-12.909-5.117-18.25,3.283-21.981,18.585c-3.447,14.157-5.118,48.969,1.559,50.082c6.68,1.112,9.56-7.233,21.412-10.023
					c13.202-3.11,23.909-13.27,20.881-21.472C469.681,107.937,466.393,104.262,462.154,103.424z"/>
				<path fill="#F98080" d="M430.287,143.811L430.287,143.811c-0.508,0-1.014-0.043-1.501-0.121
					c-0.771-0.13-1.465-0.648-2.056-1.543c-4.674-7.085-2.734-36.78,0.23-48.948c3.428-14.081,8.65-20.642,16.429-20.642
					c2.111,0,4.447,0.502,6.943,1.492c12.459,4.941,10.859,20.202,10.682,21.623c0.691,1.401,1.847,2.262,3.297,3.348
					c2.753,2.058,6.523,4.877,10.681,13.479c2.268,4.686,2.106,9.42-0.463,13.691c-3.678,6.103-12.31,10.749-20.523,11.047
					c-6.354,0.233-11.005,2.248-15.106,4.03C435.754,142.633,433.036,143.811,430.287,143.811z M443.39,73.227
					c-7.422,0-12.435,6.396-15.782,20.131c-3.196,13.118-4.56,41.997-0.319,48.422c0.484,0.731,1.024,1.154,1.608,1.25
					c0.452,0.076,0.92,0.113,1.391,0.113l0,0c2.611,0,5.27-1.151,8.347-2.489c4.156-1.801,8.868-3.846,15.348-4.08
					c8.005-0.291,16.407-4.804,19.974-10.729c2.448-4.066,2.6-8.579,0.44-13.054c-4.088-8.456-7.785-11.217-10.482-13.236
					c-1.557-1.163-2.784-2.079-3.546-3.683l0,0l-0.025-0.192c0.022-0.159,2.252-16.047-10.258-21.007
					C447.668,73.712,445.417,73.227,443.39,73.227z"/>
			</g>
		</g>
		<g>
			<path fill="#F98080" d="M460.354,95.651l0.666-0.035c0.494,8.946,3.178,11.081,3.204,11.102
				C464.225,106.718,460.867,104.985,460.354,95.651z"/>
		</g>
		<g>
			<g>
				<path fill="#F9ACAC" d="M371.907,60.889c0,0,0.178-16.967-18.688-17.635c-18.863-0.666-20.366,16.073-21.2,17.635
					c-2.839-0.608-15.025-2.278-18.863,7.072c-3.84,9.348,2.311,18.027,3.506,24.539c1.194,6.513-0.836,11.352,2.669,12.354
					c3.506,1.002,18.252-8.792,27.545-19.532c4.327-5.001,12.311-18.145,14-21.593C363.419,62.841,369.778,61.139,371.907,60.889z"
					/>
				<path fill="#F9BBBB" d="M353.219,43.253c-18.863-0.666-20.366,16.073-21.2,17.635c-2.839-0.608-15.025-2.278-18.863,7.072
					c-3.84,9.348,2.311,18.027,3.506,24.539c0.472,2.582,0.44,4.891,0.445,6.812c0.627,0.956,2.44,1.925,3.56,1.925
					c11.687-0.778,31.884-22.113,37.894-40.811c1.335-2.67,2.169-10.105,4.173-10.773c4.972-1.656,6.621,6.692,6.927,11.657
					c0.926-0.206,1.717-0.357,2.245-0.42C371.907,60.889,372.084,43.922,353.219,43.253z"/>
				<path fill="#F98080" d="M319.905,105.257h-0.001c-0.247,0-0.471-0.026-0.664-0.082c-2.458-0.702-2.462-3.041-2.469-6.276
					c-0.001-1.864-0.005-3.975-0.439-6.338c-0.338-1.853-1.097-3.913-1.9-6.096c-2.046-5.562-4.364-11.862-1.586-18.63
					c2.646-6.441,9.057-7.795,13.971-7.795c2.31,0,4.186,0.31,4.996,0.466c0.08-0.238,0.175-0.605,0.281-1.012
					c1.093-4.199,4.447-17.176,21.138-16.574c18.969,0.672,19.012,17.8,19.012,17.974l-0.006,0.293l-0.29,0.034
					c-1.982,0.233-8.146,1.858-10.833,2.78c-1.809,3.613-9.724,16.615-13.986,21.539
					C338.339,95.696,324.343,105.257,319.905,105.257z M326.816,60.709c-4.708,0-10.848,1.281-13.354,7.378
					c-2.679,6.529-0.409,12.699,1.596,18.148c0.812,2.208,1.581,4.297,1.931,6.206c0.446,2.423,0.449,4.661,0.452,6.458
					c0.005,3.33,0.094,5.096,1.982,5.635c0.135,0.037,0.295,0.058,0.48,0.058c4.305,0,18.034-9.45,26.72-19.487
					c4.281-4.949,12.28-18.111,13.954-21.521l0.061-0.125l0.129-0.044c2.353-0.822,8.342-2.452,10.802-2.816
					c-0.062-2.283-1.167-16.402-18.361-17.009c-16.134-0.571-19.297,11.567-20.468,16.07c-0.18,0.692-0.299,1.15-0.426,1.388
					l-0.12,0.221l-0.246-0.052C331.392,61.096,329.382,60.709,326.816,60.709z"/>
			</g>
		</g>
		<g>
			<path fill="#F98080" d="M361.17,63.888l-0.588-0.317c0.75-1.386,1.253-3.698,1.74-5.932c0.741-3.401,1.326-6.088,2.721-6.204
				c2.225-0.19,3.057,3.627,3.057,3.627c-0.014-0.029-1.271-3.109-3-2.961c-0.906,0.074-1.553,3.05-2.125,5.68
				C362.478,60.062,361.964,62.42,361.17,63.888z"/>
		</g>
		<g>
			<path fill="#F98080" d="M327.541,70.66c0.035-0.076,3.505-7.711,4.563-11.211l0.64,0.192
				C331.671,63.183,327.541,70.66,327.541,70.66z"/>
		</g>
		<g>
			<path fill="#F98080" d="M333.178,185.922c-1.669-5.591-4.945-14.424-4.978-14.513c0,0,3.942,8.71,5.618,14.322L333.178,185.922z"
				/>
		</g>
		<g>
			<path fill="#F98080" d="M367.508,196.154l-0.199-0.638c7.218-2.234,8.881-2.984,8.897-2.99
				C376.207,192.525,374.799,193.895,367.508,196.154z"/>
		</g>
		<g>
			<path fill="#730000" d="M328.513,155.769c0,0,5.994,13.886,7.179,18.364c1.41,5.323,1.335,12.35,9.515,14.856
				c8.181,2.504,16.027-5.343,20.199-9.682c4.175-4.341,11.186-10.349,20.034-14.524
				C375.59,162.614,333.187,155.935,328.513,155.769z"/>
			<path fill="#850000" d="M328.513,155.769c0,0,5.994,13.886,7.179,18.364c1.369,5.174,1.34,11.952,8.841,14.631
				c2.236-8.259,4.325-18.09,13.863-20.475c4.985-1.106,9.961,1.926,11.896,6.42c4-3.424,9.148-7.096,15.148-9.926
				C375.59,162.614,333.187,155.935,328.513,155.769z"/>
			<path fill="#9C0000" d="M328.513,155.769c0,0,5.994,13.886,7.179,18.364c0.993,3.75,1.252,8.343,4.176,11.608
				c1.449-12.195,10.547-25.264,23.869-21.457c4.539,1.132,7.868,3.836,10.353,7.386c3.289-2.459,7.104-4.884,11.35-6.888
				C375.59,162.614,333.187,155.935,328.513,155.769z"/>
			<g>
				<g>
					<path fill="#EA4477" d="M345.206,188.989c7.863,2.407,15.417-4.748,19.695-9.16c-4.946-2.727-9.88-2.132-13.963-1.269
						c-6.211-3.93-11.835-2.163-14.462-0.892C337.438,182.218,338.751,187.012,345.206,188.989z"/>
					<path fill="#FF5785" d="M345.206,188.989c7.863,2.407,14.479-3.316,18.759-7.728c-4.946-2.727-12.101-1.984-16.185-1.122
						c-3.4-3.857-8.04-2.401-10.665-1.132C338.075,183.559,338.751,187.012,345.206,188.989z"/>
					<path fill="#DD3A6C" d="M348.44,189.804L348.44,189.804c-1.133,0-2.253-0.166-3.332-0.496
						c-6.434-1.971-7.909-6.597-8.958-11.571l-0.054-0.257l0.234-0.115c1.462-0.707,3.804-1.549,6.646-1.549
						c2.779,0,5.479,0.806,8.027,2.39c1.593-0.336,3.681-0.702,5.904-0.702c3.005,0,5.674,0.663,8.156,2.031l0.383,0.21
						l-0.305,0.316C360.741,184.599,354.866,189.804,348.44,189.804z M336.858,177.855c1.003,4.674,2.469,8.986,8.445,10.813
						c1.016,0.312,2.069,0.467,3.137,0.467c6.03,0,11.64-4.86,15.912-9.223c-2.271-1.173-4.712-1.743-7.445-1.743
						c-2.223,0-4.32,0.384-5.9,0.716l-0.131,0.029l-0.116-0.074c-2.473-1.563-5.092-2.357-7.784-2.357
						C340.407,176.483,338.266,177.205,336.858,177.855z"/>
				</g>
			</g>
			<path fill="#F98080" d="M348.44,189.804h-0.002c-1.131,0-2.251-0.166-3.33-0.496c-7.006-2.146-8.128-7.559-9.118-12.334
				c-0.2-0.967-0.389-1.878-0.622-2.755c-1.165-4.403-7.103-18.177-7.162-18.317l-0.208-0.485l0.527,0.021
				c4.829,0.171,47.435,6.916,56.986,9.023l0.957,0.208l-0.89,0.417c-9.61,4.536-16.615,11.002-19.931,14.454
				C362.442,182.87,355.773,189.804,348.44,189.804z M329.034,156.136c1.096,2.558,5.916,13.888,6.979,17.909
				c0.24,0.896,0.429,1.817,0.632,2.793c1,4.819,2.032,9.801,8.659,11.831c1.016,0.312,2.069,0.467,3.135,0.467
				c7.052,0,13.587-6.795,16.727-10.06c3.25-3.379,9.992-9.619,19.25-14.169C373.64,162.677,335.622,156.657,329.034,156.136z"/>
		</g>
		<g>
			<path fill="#F9ACAC" d="M322.504,142.082c0,0,0.834,17.526,20.199,24.873c19.364,7.345,43.902-3.006,43.902-3.006
				L322.504,142.082z"/>
			<g>
				<path fill="#F9BBBB" d="M346.213,158.672c0,0-5.341,3.69-12.603-2.069c-4.78-3.791-7.605-8.269-7.218-13.197l-3.888-1.325
					c0,0,0.834,17.526,20.199,24.873c19.364,7.345,43.902-3.006,43.902-3.006l-11.175-3.812
					C369.121,167.948,351.486,167.883,346.213,158.672z"/>
			</g>
			<path fill="#FFCCCB" d="M362.161,166.537c-9.755,1.083-15.201-4.425-16.153-6.261c-5.208,1.836-8.229,0.583-14.324-3.838
				c-6.093-4.425-6.26-11.519-6.839-13.559c0,0-0.422,0.37-0.923,0.331c0.75,5.051,5.992,18.886,21.953,23.159
				c14.739,3.947,29.379,0.994,36.114-3.067c-1.292-1.958-1.704-3.766-1.677-5.619c-0.704-0.642-1.462-1.221-2.364-1.62
				C377.007,162.756,371.041,165.549,362.161,166.537z"/>
			<path fill="#F98080" d="M358.368,169.897c-5.272,0-10.712-0.707-15.784-2.631c-19.346-7.337-20.405-24.992-20.415-25.169
				l0.668-0.032c0.009,0.171,1.059,17.397,19.983,24.575c19.021,7.215,43.41-2.896,43.657-2.998l0.259,0.616
				C386.554,164.334,373.128,169.897,358.368,169.897z"/>
		</g>
		<g>
			<path fill="#F9BBBB" d="M310.651,135.568c0,0,4.172,10.185,14.69,6.513L310.651,135.568z"/>
			<path fill="#F98080" d="M320.981,143.209c-4.128,0-6.934-2.271-8.623-4.318c-1.364-1.65-1.398-3.45-1.398-3.45
				c0.165,0.404,4.181,9.846,14.27,6.323C325.23,141.764,322.328,143.209,320.981,143.209z"/>
		</g>
		<g>
			<path fill="#F9BBBB" d="M381.432,153.767c0,0-3.505,15.841,25.374,18.852L381.432,153.767z"/>
			<path fill="#F98080" d="M397.003,171.184c-6.298-1.746-10.821-4.49-13.494-8.202c-3.372-4.676-1.749-9.144-1.749-9.144
				c-0.012,0.042-0.902,4.339,2.299,8.771c3.789,5.241,11.454,8.497,22.784,9.68C406.843,172.289,399.888,171.981,397.003,171.184z"
				/>
		</g>
		<g>
			<path fill="#DD3A6C" d="M346.458,182.672c0,0,1.031-3.863,4.425-4.44l0.112,0.657
				C347.948,179.406,346.473,182.637,346.458,182.672z"/>
		</g>
		<g>
			
				<ellipse transform="matrix(0.9107 0.4131 -0.4131 0.9107 73.7226 -135.2039)" fill="#FCDBDB" cx="349.55" cy="102.898" rx="9.971" ry="15.881"/>
			<path fill="#FFFFFF" d="M358.63,107.017c-3.624,7.987-21.782-0.248-18.16-8.237c3.622-7.987,10.624-12.617,15.638-10.345
				C361.122,90.708,362.253,99.029,358.63,107.017z"/>
			<path fill="#BB6060" d="M345.731,118.275c-1.019,0-1.988-0.207-2.876-0.608c-5.176-2.35-6.381-10.882-2.689-19.024
				c2.969-6.547,8.398-11.121,13.203-11.121c1.02,0,1.989,0.204,2.878,0.608c5.174,2.346,6.38,10.883,2.687,19.024
				C355.964,113.701,350.535,118.275,345.731,118.275z M353.368,88.189c-4.551,0-9.73,4.413-12.594,10.729
				c-3.54,7.807-2.485,15.945,2.354,18.137c0.803,0.365,1.679,0.55,2.603,0.55c4.552,0,9.73-4.413,12.594-10.729
				c3.542-7.807,2.484-15.945-2.353-18.137C355.168,88.375,354.292,88.189,353.368,88.189z"/>
		</g>
		<g>
			
				<ellipse transform="matrix(0.9108 0.4129 -0.4129 0.9108 75.5535 -135.3506)" fill="#0000FC" cx="350.988" cy="107.161" rx="5.76" ry="9.174"/>
			<path fill="#0000E8" d="M348.782,116.186c-0.61,0-1.189-0.122-1.722-0.365c-3.059-1.387-3.788-6.402-1.623-11.179
				c1.739-3.831,4.927-6.507,7.756-6.507c0.611,0,1.191,0.122,1.722,0.365c3.061,1.387,3.79,6.401,1.624,11.177
				C354.801,113.508,351.611,116.186,348.782,116.186z M353.193,98.804c-2.575,0-5.514,2.514-7.147,6.116
				c-2.014,4.438-1.435,9.055,1.291,10.291c0.446,0.206,0.931,0.305,1.445,0.305c2.577,0,5.515-2.515,7.148-6.115
				c2.015-4.439,1.434-9.057-1.29-10.294C354.194,98.904,353.708,98.804,353.193,98.804z"/>
		</g>
		<g>
			<ellipse transform="matrix(0.9107 0.413 -0.413 0.9107 75.9949 -135.0854)" cx="350.466" cy="108.242" rx="4.388" ry="6.988"/>
		</g>
		<g>
			<path fill="#FCDBDB" d="M406.44,123.017c-2.563,9.09-9.324,15.138-15.104,13.508c-5.782-1.628-8.393-10.317-5.832-19.408
				c2.562-9.092,9.326-15.139,15.107-13.51C406.392,105.237,409.002,113.926,406.44,123.017z"/>
			<path fill="#FFFFFF" d="M406.44,123.017c-2.563,9.09-23.496,3.191-20.936-5.899c2.562-9.092,9.326-15.139,15.107-13.51
				C406.392,105.237,409.002,113.926,406.44,123.017z"/>
			<path fill="#BB6060" d="M393.268,137.125c-0.687,0-1.367-0.092-2.021-0.277c-2.912-0.819-5.139-3.353-6.274-7.133
				c-1.12-3.726-1.045-8.229,0.213-12.687c2.287-8.124,7.965-14.019,13.495-14.019c0.687,0,1.368,0.094,2.021,0.278
				c5.946,1.675,8.665,10.568,6.061,19.82C404.473,131.23,398.797,137.125,393.268,137.125z M398.681,103.675
				c-5.239,0-10.644,5.691-12.853,13.532c-1.222,4.334-1.297,8.709-0.217,12.317c1.066,3.552,3.133,5.926,5.815,6.681
				c0.594,0.167,1.214,0.25,1.841,0.25c5.235,0,10.642-5.69,12.853-13.528c2.505-8.899-0.006-17.421-5.598-18.998
				C399.928,103.762,399.308,103.675,398.681,103.675z"/>
		</g>
		<g>
			<path fill="#0000FC" d="M401.531,127.317c-1.564,5.55-5.706,9.242-9.255,8.24c-3.544-0.998-5.152-6.309-3.592-11.862
				c1.567-5.55,5.71-9.242,9.257-8.24C401.489,116.455,403.095,121.765,401.531,127.317z"/>
			<path fill="#0000E8" d="M393.468,136.055c-0.436,0-0.866-0.058-1.282-0.174c-3.717-1.05-5.431-6.556-3.818-12.275
				c1.41-5.012,4.937-8.647,8.384-8.647c0.436,0,0.868,0.058,1.283,0.175c3.716,1.048,5.431,6.555,3.817,12.275
				C400.439,132.419,396.914,136.055,393.468,136.055z M396.751,115.625c-3.154,0-6.408,3.433-7.742,8.163
				c-1.512,5.366-0.005,10.502,3.36,11.447c0.353,0.1,0.724,0.153,1.099,0.153c3.151,0,6.41-3.435,7.741-8.165
				c1.515-5.365,0.005-10.501-3.358-11.446C397.498,115.677,397.127,115.625,396.751,115.625z"/>
		</g>
		<g>
			<path d="M399.852,127.995c-1.3,4.6-4.482,7.726-7.107,6.986c-2.627-0.739-3.706-5.07-2.409-9.668
				c1.294-4.599,4.474-7.731,7.104-6.987C400.065,119.064,401.145,123.394,399.852,127.995z"/>
		</g>
		<g>
			<path fill="#F9BBBB" d="M385.439,137.348l27.043,2.897C397.125,131.452,385.439,137.348,385.439,137.348z"/>
			<path fill="#F98080" d="M412.315,140.532c-15.028-8.603-26.612-2.942-26.726-2.884c0,0,5.56-3.271,14.288-2.219
				C405.804,136.141,412.315,140.532,412.315,140.532z"/>
		</g>
		<g>
			<path fill="#F9BBBB" d="M325.341,110.306l26.822,12.076C339.642,105.257,325.341,110.306,325.341,110.306z"/>
			<path fill="#F98080" d="M350.208,120.277c-11.215-13.831-24.629-9.696-24.764-9.653c0,0,6.032-2.579,13.504,0.327
				C346.689,113.96,350.208,120.277,350.208,120.277z"/>
		</g>
		<path fill="#F98080" d="M360.925,115.052l-0.553-0.378c1.658-2.439,3.7-3.869,6.071-4.249c4.108-0.657,7.439,2.706,7.439,2.706
			c-0.034-0.027-3.521-2.658-7.339-2.045C364.364,111.437,362.474,112.771,360.925,115.052z"/>
		<g>
			<g>
				<path fill="none" d="M374.086,120.963l-1.85-0.676c1.074,0.935,2.093,2.017,3.017,3.263c-0.156-1.548-1.814-6.139-9.535-9.442
					l-2.305,0.343C369.757,115.532,374.086,120.963,374.086,120.963z"/>
				<path fill="#FFCCCB" d="M427.005,144.608c-5.675-3.65-4.34-10.875-4.673-23.439c-0.337-12.562,3.17-34.011,6.009-37.85
					c0,0-2.17,0.166-4.076,0c-29.781-27.21-54.187-19.431-54.187-19.431c-2.67,8.363-12.77,19.763-15.773,22.52
					c2.162-0.422,6.844,0.417,7.856,9.099c1.012,8.679-4.602,16.609-6.358,18.455c0,0,2.509-0.844,4.569-1.2
					c8.238-7.787,14.299-0.312,15.451,2.101c-1.152-0.767-2.226-1.343-3.229-1.773l-6.875,1.02c7.721,3.304,9.379,7.895,9.535,9.442
					c-0.924-1.247-1.943-2.328-3.017-3.263l-7.141-2.61c0.973,1.53,1.648,3.492,2.272,5.541c1.044,3.421,4.048,7.595,6.718,12.503
					c2.671,4.91,4.924,9.948,4.005,18.26c0.008,0.737-0.053,1.421-0.145,2.082c0.902,0.399,1.661,0.978,2.364,1.62
					c0.042-3.171,1.366-6.471,1.788-10.872c0.667-6.973,2.781-10.573,4.368-11.763c0,0-4.815-2.594-2.81-16.773
					c2.003-14.183,14.91-23.216,22.657-13.535c7.744,9.677-0.177,25.711-3.46,29.077c4.475,1.142,11.74,7.318,13.146,10.417
					c1.408,3.1,3.379,18.602-3.367,25.353c-6.752,8.311-25.413,1.041-28.112-1.741c-3.207,1.603-14.998,10.459-20.556,15.759
					c-5.559,5.298-9.41,7.627-20.361,8.602c15.357,2.423,19.576-2.215,25.809-3.442c6.233-1.228,39.731,5.9,54.852-3.95
					c15.123-9.848,18.601-28.834,18.601-38.744C442.865,146.07,432.68,148.257,427.005,144.608z"/>
				<path fill="#F9BBBB" d="M363.414,114.451l2.305-0.343c-0.597-0.253-1.226-0.503-1.899-0.739
					c1.871-1.271,4.743-2.009,8.774-0.281l1.492-0.223c0,0-7.523-5.791-13.005,1.405
					C361.884,114.258,362.663,114.324,363.414,114.451z"/>
				<path fill="#F9BBBB" d="M362.652,115.292c2.973,0.803,6.496,2.299,9.585,4.996l1.85,0.676c0,0-4.329-5.431-10.672-6.512
					l-2.765,0.411c0.141-0.21,0.286-0.403,0.432-0.591c-1.182,0.015-2.415,0.192-3.689,0.591l7.704,2.815
					C364.441,116.647,363.653,115.812,362.652,115.292z"/>
				<path fill="#F9BBBB" d="M363.414,114.451c-0.751-0.127-1.53-0.192-2.333-0.181c-0.146,0.188-0.291,0.381-0.432,0.591
					L363.414,114.451z"/>
			</g>
			<path fill="#F98080" d="M373.825,121.169c-0.071-0.086-7.202-8.86-16.333-5.989l-0.199-0.636
				C366.861,111.532,373.825,121.169,373.825,121.169z"/>
		</g>
		<g>
			<path fill="#F79494" d="M345.875,155.835c0,0-5.342,3.69-12.604-2.069c-7.264-5.76-10.017-13.104-3.84-21.202
				c6.176-8.095,16.526-11.435,19.032-13.437c2.502-2.005,7.761-6.177,12.186-3.842c4.422,2.338,5.091,7.763,6.719,10.936
				c2.024,3.944,14.063,22.659,7.971,30.778C369.247,165.116,351.216,165.164,345.875,155.835z"/>
			<path fill="#FFABAB" d="M345.578,148.387c0,0-4.832,5.593-11.38,1.538c-7.88-4.877-8.968-10.6-4.766-17.361
				c5.373-8.65,16.526-11.435,19.032-13.437c2.502-2.005,7.761-6.177,12.186-3.842c4.422,2.338,3.283,9.208,4.909,12.38
				c2.025,3.946,14.503,20.996,6.924,27.75C362.161,164.617,350.919,157.718,345.578,148.387z"/>
			<path fill="#F98080" d="M360.897,163.301c-6.717,0-12.477-2.676-15.138-7.009c-0.62,0.342-2.15,1.039-4.335,1.039
				c-2.782,0-5.596-1.111-8.359-3.304c-8.208-6.509-9.593-14.203-3.899-21.666c4.508-5.908,11.124-9.263,15.5-11.482
				c1.631-0.828,2.919-1.48,3.587-2.014c2.011-1.61,5.754-4.604,9.551-4.604c1.074,0,2.083,0.244,2.999,0.731
				c3.355,1.772,4.595,5.181,5.688,8.188c0.384,1.061,0.748,2.061,1.173,2.886c0.243,0.473,0.63,1.16,1.121,2.03
				c3.683,6.522,12.305,21.792,6.82,29.101C372.782,160.963,367.143,163.301,360.897,163.301z M345.983,155.351l0.181,0.317
				c2.459,4.297,8.104,6.965,14.733,6.965c6.04,0,11.476-2.236,14.175-5.835c5.223-6.96-3.25-21.965-6.869-28.371
				c-0.493-0.877-0.885-1.571-1.134-2.053c-0.443-0.867-0.813-1.884-1.206-2.961c-1.051-2.896-2.243-6.177-5.371-7.831
				c-0.82-0.434-1.724-0.653-2.688-0.653c-3.562,0-7.187,2.901-9.134,4.457c-0.722,0.579-2.037,1.246-3.701,2.091
				c-4.323,2.189-10.857,5.502-15.273,11.292c-6.969,9.133-1.79,16.316,3.781,20.736c2.645,2.098,5.317,3.16,7.946,3.16
				c2.629,0,4.244-1.093,4.26-1.104L345.983,155.351z"/>
		</g>
		<g>
			<path fill="#F98080" d="M345.566,155.964c-1.528-3.584,0.382-8.798,0.382-8.798c-0.013,0.051-1.207,5.158,0.232,8.536
				L345.566,155.964z"/>
		</g>
		<g>
			<path fill="#730000" d="M345.875,133.817c0,0-2.42,12.686-7.971,13.688C332.354,148.506,332.77,137.822,345.875,133.817z"/>
			<path fill="#850000" d="M343.595,134.631c-10.853,4.464-10.899,13.814-5.691,12.874c2.451-0.441,4.29-3.163,5.582-6.064
				C342.695,139.249,342.702,136.813,343.595,134.631z"/>
			<path fill="#9C0000" d="M342.431,135.148c-9.683,4.629-9.542,13.263-4.527,12.357c1.383-0.248,2.571-1.223,3.577-2.547
				C340.556,141.737,340.845,138.25,342.431,135.148z"/>
			<path fill="#F98080" d="M337.199,147.907c-1.577,0-2.709-1.02-2.954-2.658c-0.454-3.041,2.274-8.922,11.532-11.751l0.529-0.161
				l-0.104,0.544c-0.1,0.526-2.527,12.924-8.239,13.956C337.701,147.882,337.445,147.907,337.199,147.907z M345.428,134.307
				c-7.976,2.631-10.965,7.879-10.522,10.844c0.23,1.543,1.348,2.317,2.939,2.025C342.461,146.345,344.887,136.735,345.428,134.307z
				"/>
		</g>
		<g>
			<path fill="#730000" d="M357.977,135.568c0,0-4.59,13.773,0.751,17.113c5.342,3.338,10.852-2.671,7.012-7.595
				C361.9,140.16,358.478,137.157,357.977,135.568z"/>
			<path fill="#850000" d="M361.583,140.167c-1.907-2.134-3.302-3.632-3.606-4.599c0,0-4.59,13.773,0.751,17.113
				c3.266,2.042,6.591,0.585,7.807-1.977C362.819,149.175,359.48,145.25,361.583,140.167z"/>
			<path fill="#9C0000" d="M361.065,149.592c-2.371-2.964-3.681-7.506-1.144-11.29c-1.027-1.176-1.739-2.078-1.945-2.734
				c0,0-4.59,13.773,0.751,17.113c2.359,1.476,4.752,1.122,6.357-0.152C363.652,151.806,362.313,150.839,361.065,149.592z"/>
			<path fill="#F98080" d="M361.895,153.98h-0.001c-1.14,0-2.264-0.344-3.341-1.017c-5.503-3.438-1.083-16.926-0.893-17.5
				l0.16-0.975l0.476,0.98c0.257,0.819,1.436,2.132,3.065,3.95c1.31,1.46,2.939,3.278,4.643,5.46
				c1.442,1.855,1.747,4.105,0.809,6.026C365.901,152.772,363.97,153.98,361.895,153.98z M358.051,136.468
				c-0.862,2.95-3.486,13.217,0.855,15.929c0.97,0.609,1.976,0.915,2.989,0.915l0,0c1.823,0,3.519-1.06,4.318-2.7
				c0.836-1.71,0.567-3.65-0.736-5.321c-1.689-2.167-3.311-3.973-4.613-5.427C359.562,138.412,358.586,137.323,358.051,136.468z"/>
		</g>
		<g>
			<path fill="#F98080" d="M357.867,136.141c-0.967-1.399-0.558-6.098-0.558-6.098c0.067,1.24,0.53,4.934,1.244,5.966
				L357.867,136.141z"/>
		</g>
		<g>
			<path fill="#F98080" d="M345.944,135.048l-0.647-0.164c0.252-0.998,1.421-5.901,1.421-5.901S346.569,133.093,345.944,135.048z"/>
		</g>
		<g>
			<path fill="#BB6060" d="M355.252,79.528c0,0,5.587-7.392,11.155-7.392c3.589,0,5.291,4.821,5.291,4.821
				C365.673,72.056,355.355,79.451,355.252,79.528z"/>
		</g>
		<g>
			<path fill="#BB6060" d="M410.929,98.461c-0.021-0.121-2.264-11.865-9.47-11.969c0,0,4.515-2.841,6.61-1.266
				C412.407,88.48,410.929,98.461,410.929,98.461z"/>
		</g>
		<g>
			<g>
				<path fill="#AD454B" d="M457.816,360.715c-2.752,3.008-9.163,8.421-19.609,8.414c0.032,0.048,0.066,0.104,0.095,0.15
					c4.896,8.458,10.821,12.466,13.758,12.466c0.487-3.338,0-9.349,0-9.349c2.712,2.895,6.274,5.786,6.274,5.786
					C460.912,374.961,463.073,369.869,457.816,360.715z"/>
				<g>
					<path fill="none" d="M449.646,366.674c0.078-0.035,0.143-0.072,0.22-0.11c-0.08-0.08-0.165-0.163-0.241-0.241
						C449.625,366.322,449.634,366.448,449.646,366.674z"/>
					<path fill="#C15A5B" d="M458.055,375.527c2.389-2.985-0.39-9.205-1.807-13.255c-1.539,1.407-3.659,2.995-6.382,4.291
						C452.614,369.406,458.055,375.527,458.055,375.527z"/>
					<path fill="#C15A5B" d="M450.46,379.58c0.427-2.92-0.728-11.342-0.813-12.906c-2.68,1.244-5.935,2.19-9.775,2.402
						C443.674,374.262,448.264,379.58,450.46,379.58z"/>
				</g>
				<path fill="#934246" d="M452.35,382.077h-0.29c-3.264,0-9.299-4.428-14.049-12.629l-0.395-0.654h0.591
					c10.239,0,16.524-5.2,19.362-8.307l0.309-0.334l0.229,0.395c5.527,9.631,2.927,14.796,0.488,17.844l-0.211,0.263l-0.263-0.212
					c-0.032-0.025-3.074-2.507-5.664-5.147c0.117,1.823,0.31,5.912-0.069,8.498L452.35,382.077z M438.794,369.458
					c4.937,8.367,10.409,11.698,12.975,11.939c0.409-3.318-0.038-8.918-0.043-8.974l-0.076-0.954l0.654,0.697
					c2.243,2.394,5.106,4.817,5.979,5.54c2.215-2.884,4.342-7.688-0.533-16.432C454.758,364.424,448.577,369.277,438.794,369.458z"
					/>
			</g>
		</g>
		<circle fill="#FFFFFF" cx="350.692" cy="102.615" r="2.251"/>
		<path fill="#FFFFFF" d="M348.665,104.74c0,0.555-0.451,1.003-1.006,1.003s-1.007-0.448-1.007-1.003
			c0-0.558,0.452-1.007,1.007-1.007S348.665,104.182,348.665,104.74z"/>
		<circle fill="#FFFFFF" cx="395.997" cy="119.503" r="2.879"/>
		<circle fill="#FFFFFF" cx="392.576" cy="122.255" r="1.295"/>
		<path fill="#FFCCCB" d="M334.856,194.902c0,0-30.438,39.235-25.875,74.882c3.764,29.398,20.575,43.598,39.898,48.078
			c19.324,4.485,36.441-1.669,36.441-1.669c-0.551-5.677-1.217-23.428,9.967-40.813c6.402-9.955,14.69-18.651,30.716-14.054
			c-1.503-3.559-3.671-10.57-3.671-10.57c-3.341,2.504-19.102,8.93-37.012,2.794c-17.913-6.136-21.419-1.6-27.177,3.896
			c-5.759,5.498-14.71,0.823-14.71,0.823c0.938-2.172,0.773-5.396,0.773-5.396c-3.006,1.39-5.844,1.684-5.844,1.684
			c0-4.301-3.005-16.998,6.511-25.925c9.515-8.927,19.267-12.099,46.276-7.088c3.471-4.341,9.894-12.657,14.155-14.859
			c-4.508-0.166-18.751-3.86-23.706-5.069c-8.403-2.053-18.864,2.397-25.875,1.73C348.711,202.676,345.891,204.642,334.856,194.902z
			"/>
		<path fill="#F98080" d="M334.809,307.612c-1.129,0-2.15-0.521-3.043-1.548c-0.958-1.107-1.321-2.277-1.075-3.474
			c0.617-3.016,5.348-4.602,5.348-4.602c-0.042,0.018-4.145,2.042-4.693,4.735c-0.203,0.986,0.108,1.961,0.927,2.901
			c0.808,0.932,1.729,1.372,2.727,1.31c2.82-0.174,5.509-4.131,5.535-4.172c0,0-2.35,4.645-5.495,4.841
			C334.964,307.61,334.885,307.612,334.809,307.612z"/>
		<path fill="#FFCCCB" d="M389.193,234.311c0,0,4.843-11.517,10.1-17.525c5.258-6.012,15.191-15.609,25.041-9.683
			c9.85,5.925-0.75,26.624-8.93,31.467c-8.182,4.841-17.446,6.344-29.215,3.172c-11.771-3.172-21.558-4.257-24.216-2.505
			c-2.661,1.755-4.497,6.844-4.497,6.844c-1.752-0.583-10.349-4.623-10.434-13.828c3.276-5.031,10.226-8.289,21.787-8.257
			c7.764,0.021,20.364,2.319,20.364,2.319C388.443,228.304,388.609,232.811,389.193,234.311z"/>
		<path fill="#FFCCCB" d="M394.118,321.701c-1.963-2.983-7.239-23.639-4.124-36.162c3.671-14.774,16.782-31.64,32.338-21.054
			c10.213,6.953,15.023,29.673,16.86,39.522c1.835,9.851,3.169,39.129,14.021,56.707c-1.169,1.721-6.653,6.151-13.343,5.607
			c-1.849-5.054-15.371-22.418-23.384-28.595C408.474,331.551,398.625,328.547,394.118,321.701z"/>
		<path fill="#FFCCCB" d="M315.882,307.612c0,0,11.796,17.042,39.285,27.612c-2.893,4.896-5.898,18.585-6.231,28.047
			c-2.67,1.447-9.46,1.128-11.909-0.551c0.89-3.459-0.916-21.598-5.245-28.052C327.457,328.213,316.662,311.161,315.882,307.612z"/>
		<path fill="#FFCCCB" d="M313.433,117.207c4.284-5.667,15.07-8.594,23.983-4.674c9.302,4.09,8.89,6.163,8.89,6.163
			c-2.813,1.826-9.946,5.184-14.622,8.97c-4.673,3.786-7.177,10.765-7.623,13.434C318.72,142.323,301.636,132.812,313.433,117.207z"
			/>
		<path fill="#FFCCCB" d="M381.367,141.359c0,0,14.088-10.211,33.117,1.85c19.029,12.058,2.97,28.24-8.169,27.544
			C392.575,169.897,377.043,157.494,381.367,141.359z"/>
		<path fill="#FFCCCB" d="M338.348,99.678c0,0-2.073,6.009-1.656,9.099c-2.253-0.333-10.273-0.458-15.111,3.066
			c-5.087,3.11-11.435,13.612-12.059,17.668c-0.625,4.055-0.541,13.867,11.48,15.097c0.583,3.649,4.187,11.634,6.835,14.165
			c2.346,5.512,6.352,14.292,7.271,19.459c0.917,5.164,2.671,12.501,16.776,13.041c-2.495,1.266-7.399,1.252-7.399,1.252
			c-2.698-0.866-9.117-4.123-10.665-9.714c-1.55-5.59-5.461-13.354-6.803-14.19c0.745,3.089,1.497,5.76,1.497,5.76
			c-2.087-2.42-13.689-13.188-16.443-17.611c-2.753-4.422-12.292-19.596-10.433-30.797c1.486-8.961,7.93-19.702,13.939-23.873
			c0.167,3.003,3.422,6.091,7.345,5.675C326.844,107.358,338.348,99.678,338.348,99.678z"/>
		<path fill="#FFCCCB" d="M364.342,48.208c0,0-2.941-1.015-4.722,3.219c-1.782,4.236-5.638,21.134-18.92,34.397
			c-13.282,13.263-20.235,16.479-22.527,12.637c0.492-4.403-0.621-9.553-2.402-13.711c-1.78-4.158-7.757-23.746,14.373-22.744
			c-1.354,3.339-4.356,10.905-4.356,10.905c4.229-3.782,7.456-10.273,8.013-12.147c0.556-1.875,3.562-12.224,10.684-14.449
			C351.606,44.088,357.936,44.199,364.342,48.208z"/>
		<path fill="#FFCCCB" d="M465.123,109.083c0,0-6.012-4.007-7.348-12.243c-1.334-8.235-2.113-22.702-15.356-21.811
			c-13.245,0.89-14.803,25.645-15.47,32.131c-0.668,6.485-1.997,34.764,3.672,34.199c5.674-0.565,9.054-6.629,15.1-8.267
			c6.048-1.641,20.701-7.807,23.187-14.104c2.48-6.302-1.563-10.738-3.674-12.27C466.235,108.192,465.123,109.083,465.123,109.083z"
			/>
		<path fill="#CC6D72" d="M344.428,235.564c0,0-0.057,5.396,3.227,7.846c-2.003,1.334-5.286,2.114-5.286,2.114
			C342.146,243.855,341.804,238.567,344.428,235.564z"/>
		<path fill="#CC6D72" d="M349.726,245.524v6.513c1.379-0.169,4.829-0.892,6.776-3.256
			C355.445,248.363,351.799,247.64,349.726,245.524z"/>
		<path fill="#CC6D72" d="M342.394,366.753c0,0-4.978,6.812-8.455,8.4c-0.751-2.118-0.444-7.759,1.39-10.521
			C336.386,365.328,338.165,366.134,342.394,366.753z"/>
		<path fill="#CC6D72" d="M342.814,366.748c0,0-1.864,7.01-1.446,10.073c2.058-0.086,7.706-1.088,8.43-10.381
			C348.072,366.914,345.861,366.994,342.814,366.748z"/>
		<path fill="#CC6D72" d="M441.919,370.171c0,0,4.944,0.153,6.732-1.672c0.224,3.173,0.852,9.452,0.852,9.452
			C447.276,376.615,443.318,371.639,441.919,370.171z"/>
		<path fill="#CC6D72" d="M451.88,367.163l5.967,5.963c0-1.275-1.573-6.904-2.018-8.518
			C454.718,365.218,451.88,367.163,451.88,367.163z"/>
		<path fill="#FFEBEA" d="M360.582,47.176c0,0-7.676-4.809-17.212,0c-8.431,4.25-8.347,16.193-13.772,22.536
			c5.51-4.84,8.656-17.627,14.44-20.616C351.882,45.044,355.227,46.294,360.582,47.176z"/>
		<path fill="#FFEBEA" d="M329.097,62.243c0,0-9.681-1.294-13.896,6.345C318.081,65.874,323.022,62.841,329.097,62.243z"/>
		<path fill="#FFEBEA" d="M432.015,84.486c0,0,2.893-8.457,10.071-9.125c7.178-0.668,11.321,4.113,12.395,6.97
			c-3.159-3.187-6.919-6.139-12.339-5.412C436.719,77.646,432.015,84.486,432.015,84.486z"/>
		<path fill="#FFEBEA" d="M370.539,64.122c0,0,16.345-2.95,33.151,5.59C395.787,67.348,384.688,64.344,370.539,64.122z"/>
		<path fill="#FFEBEA" d="M316.576,115.052c0,0,8.514-6.442,20.451-2.02C332.185,112.449,324.088,111.977,316.576,115.052z"/>
		<path fill="#FFEBEA" d="M349.404,119.83c0,0,8.257-8.506,13.477,0C359.699,117.547,357.583,114.71,349.404,119.83z"/>
		<path fill="#FFEBEA" d="M381.298,142.878c0,0,7.3-7.509,21.162-4.098C396.122,138.297,388.675,138.448,381.298,142.878z"/>
		<path fill="#FF9AB6" d="M338.78,182.186c0,0,6.3,9.307,18.196,3.006C354.097,187.821,342.658,191.688,338.78,182.186z"/>
		<path fill="#FFEBEA" d="M348.92,230.349c0,0,5.802-7.722,23.164-5.635C363.847,225.603,356.253,226.632,348.92,230.349z"/>
		<path fill="#FFEBEA" d="M435.49,268.078c0,0,1.171-6.593,9.126-4.45C442.474,263.6,438.372,262.845,435.49,268.078z"/>
	</g>
	<g>
		<path fill="#F9ACAC" d="M295.521,230.834l14.377-0.025c0,0-0.208,7.698,2.502,7.593c2.711-0.108,19.752,4.814,21.118-5.528
			c1.365-10.341-10.023-14.264-15.016-15.037c-12.314-1.902-21.797,8.346-21.797,8.346L295.521,230.834z"/>
		<path fill="#F9BBBB" d="M295.521,230.834l14.377-0.025c0,0-0.208,7.698,2.502,7.593c2.711-0.108,17.856,3.825,19.223-6.515
			c1.366-10.342-8.128-13.277-13.121-14.051c-12.314-1.902-21.797,8.346-21.797,8.346L295.521,230.834z"/>
		<path fill="#FFCCCB" d="M296.658,231.887l13.24-1.078c0,0,3.684,7.317,6.393,7.21c2.711-0.105,11.951,3.131,13.317-7.21
			c1.366-10.342-6.113-12.199-11.106-12.973c-12.314-1.902-20.31,7.435-20.31,7.435L296.658,231.887z"/>
		<path fill="#F98080" d="M318.555,217.489c-12.364-1.908-21.179,8.493-21.266,8.6l1.39-1.055c1.217-0.46,8.401-8.562,19.77-6.851
			c5.648,0.853,15.989,5.057,14.722,14.645c-0.25,1.883-1.069,3.36-2.436,4.388c-3.894,2.925-11.488,1.774-15.568,1.155
			c-1.308-0.199-2.255-0.343-2.778-0.322c-0.384,0.013-0.705-0.113-0.984-0.393c-1.268-1.264-1.155-4.906-1.153-4.944l-0.352-2.873
			l-0.356,3.213c0.005,1.02,0.13,3.872,1.364,5.103c0.422,0.42,0.935,0.634,1.509,0.597c0.463-0.01,1.423,0.129,2.644,0.314
			c2.062,0.312,4.997,0.758,7.939,0.758c3.028,0,6.064-0.473,8.158-2.047c1.523-1.146,2.435-2.778,2.71-4.855
			C335.205,222.794,324.436,218.398,318.555,217.489z"/>
	</g>
	<path fill="#FFEBEA" d="M328.513,225.66c-2.282-2.002-10.922-9.478-21.434-4.95C310.667,216.795,324.456,218.072,328.513,225.66z"
		/>
	<g>
		<g>
			<g>
				<path fill="#B73B41" d="M333.054,233.918c-1.137,9.23-6.987,15.937-9.392,17.229c0,0-1.848-3.881-2.865-6.37
					c0,0-2.408,3.849-4.842,6.755c-6.012-1.949-6.25-10.317-5.992-16.411C315.027,238.58,324.966,243.224,333.054,233.918z"/>
				<path fill="#AD454B" d="M333.054,233.918c-1.137,9.23-6.987,15.937-9.392,17.229c0,0-1.848-3.881-2.865-6.37
					c0,0-2.408,3.849-4.842,6.755c-6.012-1.949-6.25-10.317-5.992-16.411C315.027,238.58,324.966,243.224,333.054,233.918z"/>
				<g>
					<path fill="#C15A5B" d="M333.054,233.918c-0.314,2.56-1,4.916-1.867,7.027c-1.727,3.237-4.083,5.128-5.572,5.931
						c0,0-2.651-3.604-3.668-6.097c0,0-3.308,3.185-5.746,6.089c-3.827-3.627-4.567-5.92-3.455-10.059
						C318.165,239.708,326.26,241.731,333.054,233.918z"/>
				</g>
				<path fill="#934246" d="M309.633,235.105l0.021-0.599l0.499,0.34c5.076,3.464,14.766,7.921,22.648-1.15l0.717-0.823
					l-0.132,1.085c-1.135,9.229-6.886,16.045-9.567,17.484l-0.31,0.166l-0.15-0.316c-0.018-0.035-1.591-3.346-2.623-5.798
					c-0.759,1.171-2.642,4.008-4.525,6.25l-0.145,0.177l-0.215-0.07c-1.05-0.343-1.983-0.892-2.771-1.635l0,0
					C309.594,246.927,309.406,240.412,309.633,235.105z M320.515,244.601l0.346-0.554l0.247,0.602
					c0.828,2.034,2.231,5.034,2.698,6.026c2.329-1.522,7.398-7.496,8.765-15.732c-7.822,8.115-17.083,4.206-22.295,0.788
					c-0.177,5.047,0.1,11.012,3.265,14c0.662,0.622,1.439,1.098,2.306,1.41C318.188,248.312,320.489,244.639,320.515,244.601z"/>
			</g>
		</g>
		<path fill="#CC6D72" d="M320.516,240.838l-4.468,4.739c-0.887-1.069-2.902-3.962-2.696-7.018
			C314.408,238.979,317.557,240.956,320.516,240.838z"/>
	</g>
</g>
</svg>
