<svg version="1.1" id="Layer_1" xmlns="http://www.w3.org/2000/svg" xmlns:xlink="http://www.w3.org/1999/xlink" viewBox="0 0 768 430" enable-background="new 0 0 768 430" xml:space="preserve">
<g transform="translate(-223.32 -414.36)">
	<g transform="matrix(.81263 0 0 .81263 164.54 130.99)">
		<path opacity="0.8982" fill="#4D4D4D" enable-background="new    " d="M500.04,810.755l-0.201,5.921l-47.656,2.449L449.86,813
			L500.04,810.755z"/>
		<g opacity="0.4557" enable-background="new    ">
			<path d="M699.353,731.347c-1.309,37.37-60.824,69.971-133.718,69.971c-72.894,0-131.983-30.31-131.983-67.7
				c0-37.387,65.161-72.999,138.057-72.999C644.601,660.619,701.089,681.838,699.353,731.347z"/>
		</g>
		
			<linearGradient id="SVGID_1_" gradientUnits="userSpaceOnUse" x1="1576.0588" y1="501.815" x2="1740.8665" y2="501.815" gradientTransform="matrix(1.0528 0 0 1.3998 -1221.6576 15.6801)">
			<stop  offset="0" style="stop-color:#DFDFDF"/>
			<stop  offset="0.0625" style="stop-color:#CACACA"/>
			<stop  offset="0.1516" style="stop-color:#666666"/>
			<stop  offset="0.4757" style="stop-color:#E6E6E6"/>
			<stop  offset="0.5498" style="stop-color:#E6E6E6"/>
			<stop  offset="0.7169" style="stop-color:#999999"/>
			<stop  offset="1" style="stop-color:#535353"/>
		</linearGradient>
		<path fill="url(#SVGID_1_)" stroke="#000000" stroke-width="0.5698" d="M700.415,718.532
			c-1.294,42.772-60.144,80.082-132.222,80.082c-72.076,0-130.507-34.689-130.507-77.479c0-42.795,64.43-83.55,136.502-83.55
			c72.075,0,127.929,24.287,126.214,80.95L700.415,718.532z"/>
		<path opacity="0.3496" enable-background="new    " d="M564.521,770.391c-83.423,0-151.05,10.475-151.05,23.4
			c0,12.923,67.627,23.4,151.05,23.4s151.05-10.477,151.05-23.4C715.572,780.867,647.944,770.391,564.521,770.391z M687.786,790.096
			c5.017-0.095,8.856,0.966,8.983,2.579c0.147,1.843-4.61,3.741-10.659,4.235c-6.05,0.493-11.081-0.62-11.229-2.464
			c-0.147-1.845,4.647-3.741,10.698-4.235C686.335,790.15,687.07,790.11,687.786,790.096L687.786,790.096z"/>
		
			<linearGradient id="SVGID_2_" gradientUnits="userSpaceOnUse" x1="1574.0508" y1="406.0984" x2="1755.0032" y2="406.0984" gradientTransform="matrix(1.0484 0 0 1.0599 -1222.0231 166.4797)">
			<stop  offset="0" style="stop-color:#DFDFDF"/>
			<stop  offset="0.0625" style="stop-color:#CACACA"/>
			<stop  offset="0.1516" style="stop-color:#666666"/>
			<stop  offset="0.4757" style="stop-color:#E6E6E6"/>
			<stop  offset="0.5498" style="stop-color:#E6E6E6"/>
			<stop  offset="0.7169" style="stop-color:#999999"/>
			<stop  offset="1" style="stop-color:#535353"/>
		</linearGradient>
		<path fill="url(#SVGID_2_)" stroke="#000000" stroke-width="0.9497" d="M693.147,713.84
			c-16.208,74.446-207.288,107.542-248.236,3.93l-16.1-253.216c61.457-85.259,265.078-57.629,285.999,0.562L693.147,713.84z"/>
		
			<radialGradient id="SVGID_3_" cx="1796.2111" cy="332.967" r="10.5493" gradientTransform="matrix(1.0656 0 0 1.482 -1257.8794 87.3232)" gradientUnits="userSpaceOnUse">
			<stop  offset="0" style="stop-color:#DFDFDF"/>
			<stop  offset="0.0625" style="stop-color:#CACACA"/>
			<stop  offset="0.1516" style="stop-color:#666666"/>
			<stop  offset="0.4757" style="stop-color:#E6E6E6"/>
			<stop  offset="0.5498" style="stop-color:#E6E6E6"/>
			<stop  offset="0.7169" style="stop-color:#999999"/>
			<stop  offset="1" style="stop-color:#535353"/>
		</radialGradient>
		<path fill="url(#SVGID_3_)" stroke="#000000" stroke-width="0.801" d="M672.631,580.778c0.016,12.706-7.299,23.025-16.34,23.049
			c-9.042,0.024-16.384-10.258-16.401-22.964c0-0.029,0-0.057,0-0.085c-0.018-12.707,7.298-23.026,16.34-23.05
			c9.042-0.023,16.383,10.258,16.401,22.964C672.631,580.721,672.631,580.749,672.631,580.778z"/>
		<path fill="#FF9955" d="M384.792,721.281c-0.123,0.811-0.112,1.417-0.223,2.253c-0.112,0.835-4.659-0.317-4.773,0.567
			c-0.114,0.883,0.011,3.986-0.122,4.94c-0.129,0.954,1.98,3.067,1.819,4.114c-0.134,0.882-1.825,1.192-1.566,2.139
			c0.26,0.946,2.652,2.507,3.039,3.492c0.388,0.985-0.987-2.483-0.736-1.484c0.251,1.001,4.139,4.458,3.988,5.444
			c-0.139,0.912-5.271,2.157-5.74,3.377c-0.469,1.219-1.103,1.815-1.682,3.144c-0.579,1.328-0.362,1.008-0.833,2.25
			c-0.472,1.24,2.799,5.619,2.655,6.575c-0.144,0.936-4.709,0.876-4.94,1.518c-0.232,0.643,3.392,2.503,3.131,3.048
			c-0.261,0.544-2.173,1.627-2.405,2.27c-0.231,0.642,0.505,1.243,0.362,2.176c-0.145,0.955-2.913,1.369-3.055,2.52
			c-0.143,1.151,2.795-1.387,2.655-0.179c-0.141,1.21-2.26,6.87-2.4,8.001c-0.138,1.127-1.729,0.96-1.868,1.872
			c-0.15,0.983,3.307-1.483,3.386-0.852c0.081,0.632-2.169,1.042-2.009,1.537c0.16,0.494,1.962,5.571,2.05,6.152
			c0.088,0.579,0.999-3.153,0.864-2.274c-0.16,1.048-3.707,5.625-3.712,7.006c0,1.38,0.376,3.283,0.43,4.735
			c0.055,1.451,3.475,2.989,3.489,4.249c0.013,1.262-3.864,1.524-3.987,2.336c-0.263,1.724,0.382,4.414-0.228,5.66
			c-0.61,1.247,0.836,2.26,0.156,3.06c-0.681,0.803-3.998,1.053-4.477,1.436c-0.478,0.386,1.074,1.146,1.074,1.146
			s-1.776-3.546-0.81-3.241c0.965,0.305,1.97,1.8,3.525,2.276c1.554,0.475,4.308,3.212,6.076,3.721
			c1.768,0.51,2.567-0.648,4.174-0.242c3.754,0.948,9.557,4.463,13.312,5.413c6.426,1.626,11.013,3.07,11.013,3.07
			s5.602-4.157,12.674-4.428c3.329-0.127,4.961,3.253,9.256,3.087c3.609-0.138,8.857-2.441,12.896-2.596
			c3.739-0.144,6.542-3.124,10.461-3.276c3.829-0.147,4.032-1.758,7.862-1.906c15.343,1.577,37.347-10.585,49.017-6.213
			c14.1,0.214-1.304-22.65,0.793-34.397c0.532-3.429,3.253-0.725,3.832-4.443c0.557-3.574-1.788-8.953-1.231-12.528
			c0.579-3.718-1.494-8.757-0.96-12.183c0.618-3.968,7.128-7.359,7.618-10.509c1.015-6.518,2.941-6.069,2.941-6.069l-1.476-3.848
			c0.154-4.082-4.949,0.13-6.738-1.121c-2.401-1.679,1.727-14.459,0.056-16.268c0,0-0.25,2.947-7.227,0.632
			c-3.202-1.062-9.355,0.168-13.759,0.387c-3.645,0.18-8.708,0.452-12.857,0.656c-3.766,0.185-7.435-2.704-11.469-2.506
			c-3.843,0.191-3.576,2.085-7.538,2.281c-3.902,0.195-10.01-1.603-13.913-1.41c-3.963,0.196-8.742-5.535-12.585-5.344
			c-4.035,0.198-8.3,5.19-12.066,5.377c-4.15,0.205-7.409,2.431-11.053,2.611c-4.403,0.216-7.373-4.562-10.74-4.396
			c-7.271,0.358-15.493,4.862-15.493,4.862s4.256-1.338,3.966-0.906c-0.288,0.431-4.46-0.822-4.89,0.041
			c-0.429,0.864-0.391,1.686-0.812,2.98c-0.421,1.293,1.93,6.672,1.667,8.398l0.075-0.1"/>
		<path fill="#B76B37" d="M450.014,812.901c-9.745,0.059-19.475,0.121-29.191,0.184c-11.873-2.646-23.724-5.289-35.551-7.931
			l-18.456-5.011c6.194,1.501,12.386,2.997,18.576,4.498l0,0c11.88,2.311,23.737,4.618,35.572,6.927
			c9.683-0.334,19.35-0.669,29.003-1.007L450.014,812.901z"/>
		<path fill="#B76B37" d="M449.766,808.146c-9.756,0.362-19.493,0.72-29.215,1.082c-9.13-2.007-18.246-4.014-27.349-6.022
			l-28.729-5.44l28.878,4.66l0,0c9.12,1.758,18.225,3.514,27.317,5.271l0,0c9.676-0.63,19.336-1.258,28.979-1.889L449.766,808.146z"
			/>
		<path fill="#B76B37" d="M450.014,812.901c-9.745,0.059-19.475,0.121-29.191,0.184c-11.873-2.646-23.724-5.289-35.551-7.931
			l-18.456-5.011c6.194,1.501,12.386,2.997,18.576,4.498l0,0c11.88,2.311,23.737,4.618,35.572,6.927
			c9.683-0.334,19.35-0.669,29.003-1.007L450.014,812.901z"/>
		<path fill="#B76B37" d="M449.766,808.146c-9.756,0.362-19.493,0.72-29.215,1.082c-9.13-2.007-18.246-4.014-27.349-6.022
			l-28.729-5.44l28.878,4.66l0,0c9.12,1.758,18.225,3.514,27.317,5.271l0,0c9.676-0.63,19.336-1.258,28.979-1.889L449.766,808.146z"
			/>
		<path fill="#B76B37" d="M449.431,804.587c-9.745,0.059-19.476,0.119-29.191,0.18l0,0c-11.873-2.646-23.723-5.289-35.551-7.929
			c-6.153-1.672-12.305-3.342-18.455-5.011c6.194,1.5,12.385,2.996,18.576,4.497c11.882,2.311,23.738,4.618,35.574,6.927
			c9.682-0.334,19.349-0.669,29.001-1.006L449.431,804.587z"/>
		<path fill="#B76B37" d="M449.173,799.831c-9.756,0.359-19.493,0.72-29.215,1.083l0,0c-9.13-2.008-18.246-4.016-27.349-6.022
			l-28.729-5.44c9.624,1.554,19.249,3.105,28.878,4.66c9.119,1.757,18.225,3.514,27.317,5.268l0,0
			c9.676-0.627,19.336-1.257,28.979-1.888L449.173,799.831z"/>
		<path fill="#B76B37" d="M449.431,804.587c-9.731,0.06-19.452,0.125-29.163,0.19c-11.961-1.751-23.91-3.502-35.848-5.25
			c-6.551-0.883-13.104-1.767-19.656-2.649c6.575,0.702,13.15,1.405,19.726,2.107l0,0c11.967,1.42,23.92,2.84,35.864,4.258
			c9.687-0.332,19.363-0.665,29.03-0.999L449.431,804.587z"/>
		<path fill="#B76B37" d="M449.173,799.831c-9.756,0.359-19.493,0.72-29.215,1.083l0,0c-9.13-2.008-18.246-4.016-27.349-6.022
			l-28.729-5.44c9.624,1.554,19.249,3.105,28.878,4.66c9.119,1.757,18.225,3.514,27.317,5.268l0,0
			c9.676-0.627,19.336-1.257,28.979-1.888L449.173,799.831z"/>
		<path fill="#B76B37" d="M450.897,799.528c-9.745,0.061-19.476,0.121-29.191,0.185l0,0c-11.872-2.646-23.723-5.29-35.551-7.931
			c-6.153-1.672-12.305-3.342-18.456-5.012c6.194,1.501,12.386,2.998,18.577,4.498c11.88,2.311,23.737,4.621,35.572,6.927
			c9.682-0.334,19.35-0.669,29.003-1.006L450.897,799.528z"/>
		<path fill="#B76B37" d="M450.563,794.784c-9.619-0.329-19.231-0.66-28.836-0.989c-9.219-1.317-18.429-2.634-27.629-3.948
			c-9.584-1.816-19.166-3.63-28.742-5.445c9.623,1.554,19.245,3.105,28.862,4.657c9.218,1.062,18.426,2.126,27.625,3.186
			c9.596,0.067,19.187,0.132,28.769,0.198L450.563,794.784z"/>
		<path fill="#B76B37" d="M450.736,799.528c-9.458-1.318-18.927-2.638-28.405-3.958c-11.426,0.041-22.87,0.082-34.33,0.12
			c-7.056,0.496-14.114,0.993-21.177,1.489c7.046-0.692,14.094-1.383,21.146-2.077c11.465-0.358,22.945-0.714,34.443-1.071
			c9.528,1.059,19.065,2.115,28.613,3.174L450.736,799.528z"/>
		<path fill="#B76B37" d="M450.499,794.773c-9.298-0.821-18.594-1.64-27.892-2.461c-9.506-0.823-19.007-1.648-28.5-2.471l0,0
			c-9.59-1.817-19.175-3.632-28.753-5.447c9.624,1.554,19.241,3.105,28.852,4.658l0,0c9.512,0.564,19.018,1.126,28.518,1.69l0,0
			c9.316,0.566,18.633,1.132,27.949,1.698L450.499,794.773z"/>
		<path fill="#B76B37" d="M451.146,785.542c-9.654-0.339-19.32-0.673-29.003-1.006c-11.835,2.306-23.692,4.615-35.572,6.927
			c-6.191,1.499-12.383,2.997-18.577,4.497c6.15-1.67,12.303-3.342,18.456-5.012c11.827-2.64,23.678-5.285,35.551-7.93
			c9.715,0.061,19.445,0.125,29.191,0.184L451.146,785.542z"/>
		<path fill="#B76B37" d="M450.822,790.298c-9.641-0.632-19.302-1.263-28.979-1.893c-9.13,1.755-18.256,3.509-27.377,5.265
			c-9.333-1.315-18.645-2.629-27.935-3.945c9.323,1.06,18.624,2.121,27.906,3.185c9.103-2.009,18.198-4.017,27.29-6.027
			c9.721,0.361,19.46,0.72,29.215,1.078L450.822,790.298z"/>
		<path fill="#B76B37" d="M451.146,785.542c-9.654-0.339-19.32-0.673-29.003-1.006c-11.835,2.306-23.692,4.615-35.572,6.927
			c-6.191,1.499-12.383,2.997-18.577,4.497c6.15-1.67,12.303-3.342,18.456-5.012c11.827-2.64,23.678-5.285,35.551-7.93
			c9.715,0.061,19.445,0.125,29.191,0.184L451.146,785.542z"/>
		<path fill="#B76B37" d="M450.822,790.298c-9.673-0.629-19.353-1.258-29.039-1.887c-8.709,0.275-17.423,0.55-26.142,0.827
			c-9.803,0.062-19.604,0.125-29.403,0.19c9.794-0.334,19.587-0.668,29.376-1.001c8.72-0.518,17.444-1.035,26.172-1.55l0,0
			c9.711,0.363,19.429,0.722,29.154,1.084L450.822,790.298z"/>
		<path fill="#B76B37" d="M451.836,778.414c-13.509,0.702-27.029,1.405-40.559,2.108c-7.254,1.263-14.614,1.34-21.927,1.193l0,0
			c-7.265-0.144-14.567,0.353-21.647,2.068c7.03-1.91,14.349-2.616,21.65-2.674c7.315-0.06,14.648-0.342,21.771-1.792
			c13.507-1.078,27.028-2.158,40.558-3.241L451.836,778.414z"/>
		<path fill="#B76B37" d="M451.405,783.169c-9.643-0.63-19.302-1.259-28.978-1.887l0,0c-9.092,1.755-18.198,3.51-27.318,5.267
			c-9.628,1.555-19.254,3.109-28.876,4.661l28.728-5.441c9.102-2.007,18.218-4.015,27.348-6.023
			c9.722,0.363,19.46,0.723,29.215,1.084L451.405,783.169z"/>
		<path fill="#B76B37" d="M451.739,778.414c-9.655-0.338-19.326-0.677-29.009-1.013l0,0c-8.856,1.539-17.844,1.359-26.76,1.268
			c-8.89-0.088-17.851,0.049-26.499,2.14c8.586-2.335,17.595-2.738,26.498-2.899c8.944-0.166,17.943-0.243,26.638-2.013
			c9.713,0.059,19.441,0.118,29.182,0.174L451.739,778.414z"/>
		<path fill="#B76B37" d="M451.405,783.169c-9.666-0.63-19.341-1.261-29.025-1.893c-9.492,0.661-18.991,1.321-28.497,1.979
			c-8.729,0.274-17.456,0.549-26.181,0.823c8.713-0.517,17.424-1.035,26.133-1.553c9.5-0.925,19.007-1.851,28.52-2.776
			c9.714,0.359,19.437,0.72,29.168,1.08L451.405,783.169z"/>
		<path fill="#B76B37" d="M460.603,744.563c-9.745,0.06-19.475,0.12-29.191,0.184c-11.873-2.646-23.724-5.29-35.551-7.93
			l-18.456-5.014l18.576,4.497c11.88,2.312,23.738,4.621,35.572,6.927c9.683-0.333,19.35-0.668,29.003-1.005L460.603,744.563z"/>
		<path fill="#B76B37" d="M460.344,739.807c-9.755,0.36-19.493,0.721-29.214,1.084c-9.131-2.009-18.247-4.015-27.35-6.023
			l-28.728-5.44c9.623,1.554,19.249,3.109,28.877,4.661l0,0c9.12,1.757,18.225,3.514,27.317,5.268l0,0
			c9.676-0.627,19.336-1.257,28.979-1.888L460.344,739.807z"/>
		<path fill="#B76B37" d="M460.603,744.563c-9.745,0.06-19.475,0.12-29.191,0.184c-11.873-2.646-23.724-5.29-35.551-7.93
			l-18.456-5.014l18.576,4.497c11.88,2.312,23.738,4.621,35.572,6.927c9.683-0.333,19.35-0.668,29.003-1.005L460.603,744.563z"/>
		<path fill="#B76B37" d="M460.344,739.807c-9.755,0.36-19.493,0.721-29.214,1.084c-9.131-2.009-18.247-4.015-27.35-6.023
			l-28.728-5.44c9.623,1.554,19.249,3.109,28.877,4.661l0,0c9.12,1.757,18.225,3.514,27.317,5.268l0,0
			c9.676-0.627,19.336-1.257,28.979-1.888L460.344,739.807z"/>
		<path fill="#B76B37" d="M460.01,736.238c-9.745,0.06-19.476,0.121-29.191,0.184c-11.874-2.646-23.723-5.29-35.551-7.93
			l-18.455-5.011c6.194,1.5,12.384,2.998,18.576,4.496c11.88,2.312,23.737,4.622,35.572,6.927c9.684-0.333,19.35-0.667,29.003-1.005
			L460.01,736.238z"/>
		<path fill="#B76B37" d="M459.751,731.483c-9.754,0.359-19.492,0.721-29.215,1.084c-9.13-2.008-18.246-4.016-27.349-6.023
			l-28.728-5.44c9.623,1.553,19.249,3.108,28.877,4.66l0,0c9.12,1.757,18.226,3.514,27.317,5.267l0,0
			c9.676-0.627,19.336-1.256,28.979-1.887L459.751,731.483z"/>
		<path fill="#B76B37" d="M460.01,736.238c-9.731,0.064-19.452,0.127-29.163,0.191c-11.96-1.75-23.91-3.501-35.848-5.25
			c-6.552-0.882-13.104-1.764-19.657-2.646c6.575,0.702,13.149,1.404,19.726,2.104c11.967,1.42,23.92,2.841,35.865,4.259
			c9.687-0.333,19.363-0.663,29.029-0.997L460.01,736.238z"/>
		<path fill="#B76B37" d="M459.751,731.483c-9.754,0.359-19.492,0.721-29.215,1.084c-9.13-2.008-18.246-4.016-27.349-6.023
			l-28.728-5.44c9.623,1.553,19.249,3.108,28.877,4.66l0,0c9.12,1.757,18.226,3.514,27.317,5.267l0,0
			c9.676-0.627,19.336-1.256,28.979-1.887L459.751,731.483z"/>
		<path fill="#B76B37" d="M461.476,731.191c-9.745,0.06-19.475,0.124-29.191,0.185l0,0c-11.872-2.645-23.723-5.291-35.551-7.93
			l-18.455-5.012l18.576,4.497c11.882,2.311,23.738,4.621,35.573,6.927c9.682-0.334,19.35-0.668,29.002-1.005L461.476,731.191z"/>
		<path fill="#B76B37" d="M461.143,726.437c-9.619-0.332-19.231-0.661-28.837-0.99c-9.219-1.316-18.428-2.632-27.629-3.946
			c-9.584-1.816-19.165-3.63-28.742-5.445c9.623,1.553,19.245,3.105,28.861,4.658l0,0c9.218,1.062,18.426,2.123,27.625,3.186l0,0
			c9.596,0.066,19.187,0.131,28.769,0.2L461.143,726.437z"/>
		<path fill="#B76B37" d="M461.315,731.18c-9.458-1.317-18.927-2.638-28.405-3.956c-11.426,0.04-22.87,0.081-34.33,0.119l0,0
			c-7.056,0.495-14.115,0.991-21.177,1.488c7.046-0.691,14.095-1.383,21.146-2.078c11.465-0.357,22.945-0.713,34.443-1.067
			c9.529,1.058,19.066,2.115,28.613,3.174L461.315,731.18z"/>
		<path fill="#B76B37" d="M461.078,726.437l-27.891-2.46c-9.506-0.827-19.007-1.65-28.5-2.473l0,0
			c-9.591-1.816-19.175-3.633-28.753-5.446c9.624,1.553,19.241,3.106,28.852,4.657c9.512,0.565,19.018,1.127,28.518,1.688
			c9.316,0.567,18.633,1.133,27.949,1.699L461.078,726.437z"/>
		<path fill="#B76B37" d="M461.725,717.205c-9.652-0.335-19.32-0.672-29.003-1.006c-11.835,2.306-23.692,4.616-35.572,6.927
			c-6.191,1.5-12.382,2.998-18.576,4.497c6.15-1.669,12.302-3.341,18.456-5.01c11.828-2.641,23.678-5.285,35.551-7.931l0,0
			c9.715,0.061,19.446,0.125,29.191,0.184L461.725,717.205z"/>
		<path fill="#B76B37" d="M461.401,721.949c-9.642-0.632-19.302-1.262-28.979-1.893c-9.13,1.755-18.255,3.509-27.377,5.265
			c-9.333-1.316-18.645-2.632-27.935-3.946c9.322,1.061,18.624,2.121,27.906,3.183c9.101-2.007,18.198-4.016,27.289-6.027
			c9.721,0.362,19.46,0.721,29.215,1.079L461.401,721.949z"/>
		<path fill="#B76B37" d="M461.725,717.205c-9.652-0.335-19.32-0.672-29.003-1.006c-11.835,2.306-23.692,4.616-35.572,6.927
			c-6.191,1.5-12.382,2.998-18.576,4.497c6.15-1.669,12.302-3.341,18.456-5.01c11.828-2.641,23.678-5.285,35.551-7.931l0,0
			c9.715,0.061,19.446,0.125,29.191,0.184L461.725,717.205z"/>
		<path fill="#B76B37" d="M461.401,721.949c-9.673-0.631-19.353-1.258-29.039-1.888c-8.71,0.274-17.424,0.55-26.142,0.828
			c-9.803,0.064-19.604,0.126-29.404,0.186c9.794-0.332,19.587-0.667,29.377-1c8.719-0.517,17.444-1.034,26.172-1.55l0,0
			c9.711,0.363,19.429,0.722,29.154,1.085L461.401,721.949z"/>
		<path fill="#B76B37" d="M462.415,710.065c-13.51,0.701-27.029,1.404-40.56,2.107l0,0c-7.252,1.263-14.612,1.34-21.927,1.196l0,0
			c-7.264-0.144-14.567,0.352-21.647,2.067c7.03-1.91,14.349-2.617,21.65-2.674l0,0c7.315-0.06,14.649-0.34,21.771-1.791
			c13.507-1.079,27.028-2.159,40.558-3.241L462.415,710.065z"/>
		<path fill="#B76B37" d="M461.983,714.822c-9.643-0.631-19.302-1.261-28.978-1.888l0,0c-9.092,1.756-18.198,3.51-27.317,5.268l0,0
			c-9.628,1.554-19.254,3.109-28.878,4.66l28.729-5.44c9.103-2.007,18.218-4.014,27.349-6.023c9.721,0.362,19.46,0.725,29.215,1.084
			L461.983,714.822z"/>
		<path fill="#B76B37" d="M462.318,710.065c-9.656-0.339-19.326-0.678-29.01-1.014l0,0c-8.857,1.538-17.844,1.36-26.759,1.269
			c-8.891-0.089-17.851,0.05-26.499,2.139c8.586-2.334,17.594-2.735,26.497-2.896l0,0c8.945-0.166,17.943-0.245,26.638-2.013
			c9.713,0.059,19.441,0.118,29.182,0.174L462.318,710.065z"/>
		<path fill="#B76B37" d="M461.983,714.822c-9.666-0.632-19.341-1.263-29.024-1.893l0,0c-9.493,0.66-18.992,1.318-28.498,1.979
			c-8.729,0.274-17.456,0.549-26.181,0.823c8.713-0.518,17.424-1.037,26.133-1.551c9.5-0.925,19.007-1.852,28.52-2.777
			c9.714,0.362,19.437,0.721,29.168,1.08L461.983,714.822z"/>
		<g transform="matrix(1.1296 0 0 1.1421 -820.34 493.06)">
			<path fill="#B76B37" d="M1131.048,215.932c-8.54-0.314-17.095-0.623-25.664-0.931c-10.474,1.998-20.972,3.998-31.492,6.002
				c-5.482,1.303-10.965,2.603-16.451,3.906c5.442-1.472,10.886-2.945,16.332-4.42c10.468-2.333,20.959-4.668,31.471-7.006
				c8.602,0.038,17.219,0.075,25.851,0.108c-0.016,0.78-0.031,1.56-0.047,2.34V215.932z"/>
			<path fill="#B76B37" d="M1130.746,220.084c-8.53-0.568-17.077-1.137-25.641-1.705l0,0c-8.047,1.521-16.107,3.043-24.181,4.568
				l0,0l-25.571,4.033l25.425-4.813c8.056-1.773,16.126-3.547,24.212-5.321c8.609,0.302,17.232,0.6,25.875,0.899
				c-0.04,0.78-0.079,1.559-0.118,2.339H1130.746z"/>
			<path fill="#B76B37" d="M1131.048,215.932c-8.54-0.314-17.095-0.623-25.664-0.931c-10.474,1.998-20.972,3.998-31.492,6.002
				c-5.482,1.303-10.965,2.603-16.451,3.906c5.442-1.472,10.886-2.945,16.332-4.42c10.468-2.333,20.959-4.668,31.471-7.006
				c8.602,0.038,17.219,0.075,25.851,0.108c-0.016,0.78-0.031,1.56-0.047,2.34V215.932z"/>
			<path fill="#B76B37" d="M1130.746,220.084c-8.53-0.568-17.077-1.137-25.641-1.705l0,0c-8.047,1.521-16.107,3.043-24.181,4.568
				l0,0l-25.571,4.033l25.425-4.813c8.056-1.773,16.126-3.547,24.212-5.321c8.609,0.302,17.232,0.6,25.875,0.899
				c-0.04,0.78-0.079,1.559-0.118,2.339H1130.746z"/>
			<path fill="#B76B37" d="M1130.531,223.211c-8.54-0.311-17.095-0.623-25.663-0.932c-10.475,1.999-20.972,4.001-31.492,6.004
				c-5.482,1.302-10.966,2.603-16.451,3.904c5.442-1.472,10.886-2.945,16.333-4.42c10.467-2.333,20.958-4.668,31.47-7.006
				c8.602,0.038,17.219,0.076,25.852,0.109L1130.531,223.211z"/>
			<path fill="#B76B37" d="M1130.228,227.374c-8.531-0.569-17.077-1.135-25.641-1.701l0,0c-8.047,1.519-16.107,3.042-24.181,4.563
				l0,0l-25.571,4.034l25.424-4.814c8.057-1.771,16.128-3.545,24.212-5.32c8.608,0.301,17.232,0.601,25.875,0.899L1130.228,227.374z
				"/>
			<path fill="#B76B37" d="M1130.531,223.211c-8.554-0.309-17.117-0.618-25.692-0.924c-10.572,1.222-21.155,2.442-31.75,3.666
				c-5.823,0.604-11.644,1.208-17.465,1.812c5.8-0.784,11.599-1.569,17.398-2.353c10.566-1.552,21.144-3.106,31.732-4.659l0,0
				c8.598,0.04,17.206,0.078,25.823,0.118L1130.531,223.211z"/>
			<path fill="#B76B37" d="M1130.228,227.374c-8.531-0.569-17.077-1.135-25.641-1.701l0,0c-8.047,1.519-16.107,3.042-24.181,4.563
				l0,0l-25.571,4.034l25.424-4.814c8.057-1.771,16.128-3.545,24.212-5.32c8.608,0.301,17.232,0.601,25.875,0.899L1130.228,227.374z
				"/>
			<path fill="#B76B37" d="M1131.825,227.633c-8.54-0.31-17.095-0.622-25.664-0.931l0,0c-10.475,1.998-20.972,4.001-31.492,6.004
				c-5.481,1.301-10.965,2.602-16.451,3.905c5.442-1.473,10.886-2.947,16.332-4.422c10.468-2.332,20.958-4.667,31.471-7.005
				c8.602,0.038,17.219,0.075,25.851,0.109C1131.856,226.072,1131.841,226.852,1131.825,227.633L1131.825,227.633z"/>
			<path fill="#B76B37" d="M1131.609,231.795c-8.48,0.041-16.968,0.082-25.464,0.124l0,0c-8.142,0.912-16.293,1.827-24.455,2.741
				l0,0c-8.516,1.344-17.034,2.685-25.556,4.03c8.476-1.607,16.955-3.211,25.438-4.817c8.144-1.167,16.297-2.335,24.459-3.504l0,0
				c8.503-0.304,17.014-0.61,25.531-0.914C1131.577,230.235,1131.593,231.014,1131.609,231.795L1131.609,231.795z"/>
			<path fill="#B76B37" d="M1131.997,227.622c-8.456,0.91-16.903,1.819-25.34,2.728c-10.182-0.33-20.347-0.663-30.495-0.995
				c-6.243-0.618-12.483-1.236-18.718-1.854c6.253,0.422,12.501,0.844,18.748,1.267c10.145,0.015,20.273,0.029,30.385,0.045l0,0
				c8.387-1.173,16.766-2.344,25.134-3.515C1131.806,226.072,1131.902,226.848,1131.997,227.622L1131.997,227.622z"/>
			<path fill="#B76B37" d="M1131.674,231.795c-8.249,0.48-16.497,0.961-24.746,1.438c-8.409,0.478-16.824,0.953-25.246,1.431l0,0
				c-8.509,1.343-17.023,2.684-25.546,4.028c8.476-1.606,16.959-3.211,25.448-4.817c8.403-0.739,16.813-1.476,25.228-2.215
				c8.229-0.732,16.458-1.468,24.688-2.2L1131.674,231.795z"/>
			<path fill="#B76B37" d="M1132.137,239.884c-8.632,0.035-17.248,0.073-25.851,0.108c-10.513-2.338-21.003-4.673-31.471-7.005l0,0
				c-5.446-1.475-10.89-2.949-16.332-4.421l16.452,3.905l0,0c10.519,2.003,21.016,4.006,31.492,6.003
				c8.569-0.308,17.124-0.62,25.663-0.93L1132.137,239.884z"/>
			<path fill="#B76B37" d="M1131.911,235.721c-8.642,0.296-17.266,0.594-25.874,0.892c-8.046-1.774-16.097-3.549-24.153-5.323
				c-8.213,0.914-16.448,1.829-24.703,2.741c8.223-1.169,16.467-2.337,24.731-3.504l0,0c8.075,1.52,16.156,3.042,24.24,4.561l0,0
				c8.564-0.567,17.111-1.135,25.641-1.708L1131.911,235.721z"/>
			<path fill="#B76B37" d="M1132.137,239.884c-8.632,0.035-17.248,0.073-25.851,0.108c-10.513-2.338-21.003-4.673-31.471-7.005l0,0
				c-5.446-1.475-10.89-2.949-16.332-4.421l16.452,3.905l0,0c10.519,2.003,21.016,4.006,31.492,6.003
				c8.569-0.308,17.124-0.62,25.663-0.93L1132.137,239.884z"/>
			<path fill="#B76B37" d="M1131.911,235.721c-8.611,0.299-17.216,0.6-25.815,0.898c-7.728-0.465-15.451-0.933-23.171-1.399
				c-8.666-0.309-17.334-0.618-26.004-0.926c8.675,0.037,17.353,0.076,26.031,0.113l0,0c7.718,0.227,15.431,0.456,23.141,0.681l0,0
				c8.573-0.567,17.14-1.135,25.699-1.702L1131.911,235.721z"/>
			<path fill="#B76B37" d="M1132.558,246.127c-11.978-0.971-23.946-1.941-35.904-2.909l0,0c-6.298-1.279-12.789-1.539-19.264-1.605
				c-6.465-0.062-12.943-0.694-19.166-2.379c6.273,1.489,12.734,1.912,19.163,1.773c6.474-0.14,12.99-0.085,19.419,1.009l0,0
				c11.98,0.591,23.948,1.184,35.905,1.773L1132.558,246.127z"/>
			<path fill="#B76B37" d="M1132.428,241.965c-8.641,0.298-17.266,0.599-25.875,0.899c-8.085-1.774-16.155-3.548-24.212-5.32
				c-8.473-1.606-16.947-3.208-25.424-4.814c8.521,1.346,17.045,2.688,25.571,4.033l0,0c8.074,1.524,16.134,3.045,24.18,4.567l0,0
				c8.563-0.566,17.11-1.133,25.641-1.702L1132.428,241.965z"/>
			<path fill="#B76B37" d="M1132.655,246.127c-8.628,0.032-17.242,0.065-25.843,0.101c-7.691-1.566-15.655-1.649-23.574-1.811
				c-7.881-0.157-15.855-0.524-23.456-2.583c7.663,1.816,15.59,1.918,23.459,1.827c7.89-0.096,15.844-0.268,23.695,1.065l0,0
				c8.57-0.311,17.129-0.625,25.671-0.94L1132.655,246.127z"/>
			<path fill="#B76B37" d="M1132.428,241.965c-8.619,0.297-17.229,0.597-25.829,0.893l0,0c-8.423-0.827-16.838-1.652-25.248-2.479
				l0,0c-7.709-0.468-15.42-0.936-23.132-1.405c7.724,0.224,15.45,0.448,23.179,0.676c8.415,0.561,16.824,1.122,25.226,1.685
				c8.571-0.569,17.133-1.137,25.686-1.709L1132.428,241.965z"/>
		</g>
		<g transform="matrix(1.2278 0 0 -1.1421 -909.67 874.77)">
			<path fill="#FFD08D" d="M1110.384,73.233c-8.539-0.311-17.094-0.623-25.663-0.932c-10.475,1.999-20.973,4.002-31.492,6.004
				c-5.481,1.302-10.965,2.603-16.451,3.905c5.442-1.472,10.886-2.946,16.332-4.419c10.468-2.333,20.959-4.67,31.471-7.007
				c8.602,0.038,17.219,0.075,25.851,0.109C1110.417,71.673,1110.401,72.452,1110.384,73.233L1110.384,73.233z"/>
			<path fill="#FFD08D" d="M1110.083,77.384c-8.531-0.568-17.077-1.135-25.64-1.702l0,0c-8.046,1.521-16.107,3.043-24.181,4.568l0,0
				l-25.57,4.033l25.424-4.814c8.057-1.773,16.127-3.546,24.212-5.321c8.609,0.302,17.233,0.602,25.875,0.901
				c-0.039,0.78-0.079,1.557-0.118,2.338L1110.083,77.384z"/>
			<path fill="#FFD08D" d="M1110.384,73.233c-8.539-0.311-17.094-0.623-25.663-0.932c-10.475,1.999-20.973,4.002-31.492,6.004
				c-5.481,1.302-10.965,2.603-16.451,3.905c5.442-1.472,10.886-2.946,16.332-4.419c10.468-2.333,20.959-4.67,31.471-7.007
				c8.602,0.038,17.219,0.075,25.851,0.109C1110.417,71.673,1110.401,72.452,1110.384,73.233L1110.384,73.233z"/>
			<path fill="#FFD08D" d="M1110.083,77.384c-8.531-0.568-17.077-1.135-25.64-1.702l0,0c-8.046,1.521-16.107,3.043-24.181,4.568l0,0
				l-25.57,4.033l25.424-4.814c8.057-1.773,16.127-3.546,24.212-5.321c8.609,0.302,17.233,0.602,25.875,0.901
				c-0.039,0.78-0.079,1.557-0.118,2.338L1110.083,77.384z"/>
			<path fill="#FFD08D" d="M1109.867,80.512c-8.539-0.311-17.095-0.622-25.663-0.931c-10.475,1.998-20.973,3.998-31.492,6.003
				c-5.482,1.301-10.965,2.602-16.451,3.905c5.442-1.473,10.886-2.947,16.332-4.419c10.467-2.335,20.959-4.67,31.471-7.008
				c8.602,0.037,17.219,0.076,25.851,0.109L1109.867,80.512z"/>
			<path fill="#FFD08D" d="M1109.565,84.675c-8.53-0.568-17.077-1.136-25.641-1.704l0,0c-8.046,1.52-16.107,3.043-24.181,4.567l0,0
				l-25.57,4.033l25.424-4.813c8.056-1.772,16.127-3.546,24.212-5.321c8.608,0.302,17.233,0.601,25.875,0.9L1109.565,84.675z"/>
			<path fill="#FFD08D" d="M1109.867,80.512c-8.553-0.308-17.117-0.618-25.691-0.924c-10.572,1.221-21.155,2.442-31.75,3.666
				c-5.823,0.604-11.645,1.208-17.466,1.812c5.8-0.785,11.599-1.569,17.398-2.354c10.566-1.552,21.144-3.105,31.733-4.658l0,0
				c8.598,0.04,17.206,0.079,25.823,0.117L1109.867,80.512z"/>
			<path fill="#FFD08D" d="M1109.565,84.675c-8.53-0.568-17.077-1.136-25.641-1.704l0,0c-8.046,1.52-16.107,3.043-24.181,4.567l0,0
				l-25.57,4.033l25.424-4.813c8.056-1.772,16.127-3.546,24.212-5.321c8.608,0.302,17.233,0.601,25.875,0.9L1109.565,84.675z"/>
			<path fill="#FFD08D" d="M1111.161,84.934c-8.539-0.31-17.095-0.622-25.663-0.931l0,0c-10.475,1.998-20.973,3.999-31.492,6.004
				c-5.482,1.301-10.965,2.601-16.451,3.905c5.442-1.473,10.886-2.947,16.332-4.42c10.468-2.334,20.959-4.67,31.471-7.007
				c8.602,0.038,17.218,0.075,25.851,0.108C1111.193,83.373,1111.177,84.153,1111.161,84.934L1111.161,84.934z"/>
			<path fill="#FFD08D" d="M1110.946,89.096c-8.481,0.041-16.969,0.083-25.464,0.125l0,0c-8.142,0.911-16.294,1.827-24.455,2.741
				l0,0c-8.516,1.342-17.034,2.684-25.557,4.029c8.477-1.607,16.956-3.211,25.439-4.817c8.143-1.167,16.297-2.335,24.458-3.504l0,0
				c8.502-0.305,17.014-0.609,25.531-0.915C1110.914,87.536,1110.93,88.317,1110.946,89.096L1110.946,89.096z"/>
			<path fill="#FFD08D" d="M1111.334,84.922c-8.456,0.91-16.903,1.82-25.34,2.729c-10.181-0.331-20.347-0.663-30.495-0.995
				c-6.244-0.619-12.483-1.236-18.718-1.855c6.251,0.424,12.502,0.845,18.747,1.268c10.145,0.015,20.273,0.029,30.385,0.045l0,0
				c8.387-1.173,16.765-2.344,25.134-3.515C1111.143,83.374,1111.239,84.148,1111.334,84.922L1111.334,84.922z"/>
			<path fill="#FFD08D" d="M1111.011,89.096c-8.25,0.48-16.498,0.961-24.746,1.439c-8.409,0.477-16.823,0.952-25.246,1.43l0,0
				c-8.508,1.344-17.023,2.683-25.546,4.028c8.477-1.606,16.96-3.21,25.449-4.818c8.403-0.738,16.812-1.474,25.228-2.213
				c8.229-0.733,16.458-1.469,24.688-2.201L1111.011,89.096z"/>
			<path fill="#FFD08D" d="M1111.474,97.185c-8.632,0.036-17.248,0.07-25.851,0.109c-10.512-2.339-21.003-4.674-31.471-7.007l0,0
				c-5.446-1.474-10.89-2.947-16.332-4.42l16.451,3.905l0,0c10.52,2.004,21.017,4.005,31.492,6.002
				c8.57-0.307,17.124-0.619,25.663-0.93L1111.474,97.185z"/>
			<path fill="#FFD08D" d="M1111.247,93.021c-8.641,0.297-17.266,0.596-25.874,0.894c-8.047-1.775-16.097-3.55-24.153-5.324
				c-8.213,0.913-16.448,1.829-24.702,2.741c8.223-1.169,16.467-2.337,24.73-3.504l0,0c8.075,1.52,16.155,3.043,24.24,4.561l0,0
				c8.563-0.568,17.111-1.135,25.641-1.708L1111.247,93.021z"/>
			<path fill="#FFD08D" d="M1111.474,97.185c-8.632,0.036-17.248,0.07-25.851,0.109c-10.512-2.339-21.003-4.674-31.471-7.007l0,0
				c-5.446-1.474-10.89-2.947-16.332-4.42l16.451,3.905l0,0c10.52,2.004,21.017,4.005,31.492,6.002
				c8.57-0.307,17.124-0.619,25.663-0.93L1111.474,97.185z"/>
			<path fill="#FFD08D" d="M1111.247,93.021c-8.611,0.3-17.216,0.6-25.814,0.9c-7.728-0.467-15.451-0.934-23.171-1.402
				c-8.667-0.309-17.335-0.618-26.004-0.927c8.675,0.038,17.353,0.077,26.032,0.114l0,0c7.717,0.227,15.43,0.455,23.139,0.68l0,0
				c8.574-0.566,17.14-1.134,25.701-1.7L1111.247,93.021z"/>
			<path fill="#FFD08D" d="M1111.895,103.428c-11.979-0.971-23.947-1.941-35.904-2.908l0,0c-6.3-1.282-12.79-1.54-19.265-1.606
				c-6.464-0.061-12.943-0.693-19.166-2.378c6.273,1.488,12.735,1.91,19.163,1.773c6.474-0.141,12.989-0.086,19.419,1.008l0,0
				c11.979,0.591,23.947,1.184,35.905,1.774L1111.895,103.428z"/>
			<path fill="#FFD08D" d="M1111.765,99.266c-8.641,0.298-17.266,0.598-25.875,0.899c-8.085-1.774-16.156-3.547-24.212-5.32
				c-8.473-1.606-16.947-3.208-25.424-4.813c8.521,1.344,17.045,2.686,25.571,4.032l0,0c8.074,1.524,16.134,3.045,24.18,4.568l0,0
				c8.564-0.566,17.11-1.134,25.641-1.705L1111.765,99.266z"/>
			<path fill="#FFD08D" d="M1111.991,103.428c-8.628,0.033-17.242,0.065-25.842,0.101c-7.691-1.566-15.655-1.649-23.575-1.811
				c-7.88-0.156-15.855-0.524-23.456-2.583c7.663,1.815,15.59,1.917,23.459,1.828c7.89-0.097,15.843-0.27,23.694,1.063l0,0
				c8.572-0.31,17.129-0.624,25.672-0.939L1111.991,103.428z"/>
			<path fill="#FFD08D" d="M1111.765,99.266c-8.618,0.297-17.228,0.597-25.828,0.893l0,0c-8.423-0.826-16.838-1.653-25.248-2.479
				l0,0c-7.709-0.468-15.419-0.936-23.132-1.405c7.724,0.224,15.45,0.448,23.178,0.677c8.415,0.561,16.825,1.122,25.226,1.681
				c8.571-0.568,17.134-1.136,25.686-1.708L1111.765,99.266z"/>
		</g>
		<g transform="matrix(1.2278 0 0 1.1421 -910.48 510.97)">
			<path fill="#B76B37" d="M1110.333,217.161c-8.54-0.31-17.095-0.622-25.664-0.93c-10.474,1.998-20.972,3.998-31.492,6.003
				c-5.482,1.301-10.965,2.603-16.451,3.905c5.442-1.472,10.886-2.946,16.332-4.42c10.468-2.332,20.958-4.668,31.471-7.006
				c8.602,0.038,17.219,0.075,25.851,0.109C1110.365,215.6,1110.349,216.38,1110.333,217.161L1110.333,217.161z"/>
			<path fill="#B76B37" d="M1110.031,221.314c-8.53-0.568-17.077-1.136-25.641-1.704l0,0c-8.046,1.52-16.107,3.043-24.18,4.567l0,0
				l-25.571,4.033l25.424-4.814c8.057-1.772,16.127-3.546,24.212-5.32c8.609,0.302,17.233,0.6,25.875,0.899
				C1110.111,219.754,1110.071,220.534,1110.031,221.314L1110.031,221.314z"/>
			<path fill="#B76B37" d="M1110.333,217.161c-8.54-0.31-17.095-0.622-25.664-0.93c-10.474,1.998-20.972,3.998-31.492,6.003
				c-5.482,1.301-10.965,2.603-16.451,3.905c5.442-1.472,10.886-2.946,16.332-4.42c10.468-2.332,20.958-4.668,31.471-7.006
				c8.602,0.038,17.219,0.075,25.851,0.109C1110.365,215.6,1110.349,216.38,1110.333,217.161L1110.333,217.161z"/>
			<path fill="#B76B37" d="M1110.031,221.314c-8.53-0.568-17.077-1.136-25.641-1.704l0,0c-8.046,1.52-16.107,3.043-24.18,4.567l0,0
				l-25.571,4.033l25.424-4.814c8.057-1.772,16.127-3.546,24.212-5.32c8.609,0.302,17.233,0.6,25.875,0.899
				C1110.111,219.754,1110.071,220.534,1110.031,221.314L1110.031,221.314z"/>
			<path fill="#B76B37" d="M1109.816,224.44c-8.54-0.31-17.095-0.622-25.664-0.931c-10.475,1.998-20.973,4-31.492,6.005
				c-5.482,1.301-10.965,2.601-16.451,3.904c5.442-1.472,10.886-2.946,16.332-4.42c10.468-2.333,20.959-4.669,31.471-7.006
				c8.602,0.037,17.219,0.075,25.851,0.107L1109.816,224.44z"/>
			<path fill="#B76B37" d="M1109.514,228.602c-8.531-0.568-17.078-1.136-25.641-1.702l0,0c-8.046,1.52-16.106,3.043-24.18,4.567l0,0
				l-25.571,4.033l25.424-4.814c8.057-1.772,16.127-3.546,24.212-5.32c8.608,0.301,17.233,0.601,25.875,0.899L1109.514,228.602z"/>
			<path fill="#B76B37" d="M1109.816,224.44c-8.554-0.307-17.117-0.616-25.692-0.923c-10.571,1.221-21.154,2.443-31.749,3.666
				c-5.822,0.604-11.645,1.208-17.466,1.811c5.8-0.784,11.599-1.568,17.398-2.352c10.566-1.552,21.144-3.106,31.732-4.659l0,0
				c8.598,0.039,17.206,0.078,25.823,0.116L1109.816,224.44z"/>
			<path fill="#B76B37" d="M1109.514,228.602c-8.531-0.568-17.078-1.136-25.641-1.702l0,0c-8.046,1.52-16.106,3.043-24.18,4.567l0,0
				l-25.571,4.033l25.424-4.814c8.057-1.772,16.127-3.546,24.212-5.32c8.608,0.301,17.233,0.601,25.875,0.899L1109.514,228.602z"/>
			<path fill="#B76B37" d="M1111.109,228.862c-8.54-0.312-17.095-0.623-25.664-0.932l0,0c-10.475,1.998-20.972,4.002-31.492,6.004
				c-5.482,1.302-10.965,2.602-16.45,3.904c5.442-1.471,10.886-2.945,16.332-4.42c10.468-2.332,20.958-4.669,31.47-7.007
				c8.602,0.039,17.219,0.077,25.851,0.112C1111.141,227.301,1111.126,228.081,1111.109,228.862L1111.109,228.862z"/>
			<path fill="#B76B37" d="M1110.894,233.024c-8.481,0.042-16.969,0.083-25.464,0.125l0,0c-8.142,0.913-16.294,1.827-24.455,2.741
				l0,0c-8.515,1.344-17.034,2.686-25.557,4.029c8.477-1.606,16.956-3.209,25.439-4.816c8.142-1.168,16.296-2.335,24.458-3.504l0,0
				c8.503-0.304,17.014-0.61,25.531-0.915C1110.862,231.463,1110.878,232.244,1110.894,233.024L1110.894,233.024z"/>
			<path fill="#B76B37" d="M1111.282,228.851c-8.456,0.91-16.902,1.82-25.34,2.73c-10.182-0.334-20.347-0.664-30.495-0.996
				c-6.243-0.618-12.483-1.235-18.718-1.854c6.252,0.422,12.502,0.844,18.747,1.267c10.145,0.015,20.273,0.029,30.385,0.045l0,0
				c8.388-1.173,16.766-2.343,25.134-3.514C1111.091,227.301,1111.187,228.076,1111.282,228.851L1111.282,228.851z"/>
			<path fill="#B76B37" d="M1110.958,233.024c-8.249,0.481-16.497,0.962-24.746,1.44c-8.409,0.477-16.824,0.953-25.246,1.431l0,0
				c-8.509,1.342-17.024,2.683-25.546,4.027c8.476-1.605,16.959-3.211,25.448-4.818c8.403-0.737,16.812-1.475,25.228-2.213
				c8.229-0.733,16.458-1.468,24.688-2.202L1110.958,233.024z"/>
			<path fill="#B76B37" d="M1111.422,241.112c-8.632,0.035-17.249,0.072-25.851,0.109c-10.512-2.338-21.002-4.674-31.471-7.007l0,0
				c-5.445-1.474-10.889-2.947-16.332-4.419l16.451,3.905l0,0c10.52,2.002,21.017,4.005,31.492,6.002
				c8.569-0.308,17.124-0.619,25.663-0.93L1111.422,241.112z"/>
			<path fill="#B76B37" d="M1111.196,236.949c-8.642,0.297-17.266,0.596-25.874,0.892c-8.046-1.775-16.097-3.549-24.153-5.323
				c-8.213,0.914-16.448,1.83-24.703,2.741c8.223-1.17,16.467-2.337,24.73-3.504l0,0c8.075,1.521,16.155,3.041,24.24,4.562l0,0
				c8.563-0.568,17.111-1.136,25.641-1.709L1111.196,236.949z"/>
			<path fill="#B76B37" d="M1111.422,241.112c-8.632,0.035-17.249,0.072-25.851,0.109c-10.512-2.338-21.002-4.674-31.471-7.007l0,0
				c-5.445-1.474-10.889-2.947-16.332-4.419l16.451,3.905l0,0c10.52,2.002,21.017,4.005,31.492,6.002
				c8.569-0.308,17.124-0.619,25.663-0.93L1111.422,241.112z"/>
			<path fill="#B76B37" d="M1111.196,236.949c-8.611,0.3-17.217,0.6-25.814,0.899c-7.728-0.466-15.451-0.934-23.172-1.402
				c-8.666-0.308-17.335-0.618-26.004-0.926c8.675,0.038,17.353,0.077,26.032,0.114l0,0c7.718,0.226,15.43,0.454,23.14,0.68l0,0
				c8.573-0.567,17.14-1.135,25.7-1.704L1111.196,236.949z"/>
			<path fill="#B76B37" d="M1111.843,247.357c-11.979-0.971-23.946-1.941-35.904-2.909l0,0c-6.299-1.278-12.79-1.538-19.265-1.605
				c-6.464-0.063-12.943-0.693-19.166-2.379c6.273,1.489,12.735,1.912,19.163,1.773c6.474-0.14,12.989-0.085,19.418,1.009l0,0
				c11.98,0.592,23.948,1.184,35.905,1.773L1111.843,247.357z"/>
			<path fill="#B76B37" d="M1111.713,243.194c-8.641,0.298-17.266,0.598-25.875,0.898c-8.085-1.774-16.156-3.548-24.212-5.32
				c-8.473-1.605-16.947-3.208-25.424-4.813c8.522,1.344,17.046,2.688,25.571,4.033l0,0c8.074,1.523,16.135,3.044,24.181,4.566l0,0
				c8.563-0.566,17.11-1.133,25.641-1.704L1111.713,243.194z"/>
			<path fill="#B76B37" d="M1111.939,247.357c-8.628,0.033-17.242,0.066-25.842,0.101c-7.691-1.565-15.656-1.648-23.575-1.81
				c-7.88-0.157-15.854-0.525-23.456-2.584c7.663,1.816,15.59,1.918,23.459,1.828c7.89-0.098,15.844-0.269,23.694,1.063l0,0
				c8.572-0.311,17.129-0.624,25.673-0.939L1111.939,247.357z"/>
			<path fill="#B76B37" d="M1111.713,243.194c-8.619,0.297-17.228,0.596-25.829,0.892l0,0c-8.422-0.826-16.838-1.653-25.248-2.479
				l0,0c-7.708-0.468-15.42-0.938-23.132-1.406c7.723,0.225,15.45,0.45,23.179,0.678c8.415,0.561,16.824,1.122,25.226,1.684
				c8.571-0.569,17.133-1.137,25.686-1.709L1111.713,243.194z"/>
		</g>
		<g transform="matrix(1.2278 0 0 1.1421 -909.67 486.17)">
			<path fill="#FFD08D" d="M1110.384,215.459c-8.539-0.311-17.094-0.623-25.663-0.931c-10.475,1.998-20.973,3.999-31.492,6.003
				c-5.481,1.303-10.965,2.602-16.451,3.906c5.442-1.473,10.886-2.946,16.332-4.421c10.468-2.332,20.959-4.668,31.471-7.006
				c8.602,0.038,17.219,0.075,25.851,0.108C1110.417,213.898,1110.401,214.678,1110.384,215.459L1110.384,215.459z"/>
			<path fill="#FFD08D" d="M1110.083,219.611c-8.53-0.568-17.077-1.136-25.64-1.704l0,0c-8.047,1.522-16.107,3.043-24.181,4.567l0,0
				l-25.57,4.033l25.424-4.813c8.057-1.773,16.127-3.547,24.212-5.321c8.609,0.302,17.233,0.601,25.875,0.9
				C1110.163,218.052,1110.123,218.831,1110.083,219.611L1110.083,219.611z"/>
			<path fill="#FFD08D" d="M1110.384,215.459c-8.539-0.311-17.094-0.623-25.663-0.931c-10.475,1.998-20.973,3.999-31.492,6.003
				c-5.481,1.303-10.965,2.602-16.451,3.906c5.442-1.473,10.886-2.946,16.332-4.421c10.468-2.332,20.959-4.668,31.471-7.006
				c8.602,0.038,17.219,0.075,25.851,0.108C1110.417,213.898,1110.401,214.678,1110.384,215.459L1110.384,215.459z"/>
			<path fill="#FFD08D" d="M1110.083,219.611c-8.53-0.568-17.077-1.136-25.64-1.704l0,0c-8.047,1.522-16.107,3.043-24.181,4.567l0,0
				l-25.57,4.033l25.424-4.813c8.057-1.773,16.127-3.547,24.212-5.321c8.609,0.302,17.233,0.601,25.875,0.9
				C1110.163,218.052,1110.123,218.831,1110.083,219.611L1110.083,219.611z"/>
			<path fill="#FFD08D" d="M1109.867,222.738c-8.539-0.311-17.095-0.622-25.663-0.932c-10.475,1.999-20.973,4.002-31.492,6.004
				c-5.482,1.302-10.965,2.603-16.451,3.906c5.441-1.474,10.886-2.947,16.332-4.42c10.467-2.334,20.959-4.67,31.471-7.008
				c8.602,0.039,17.219,0.076,25.851,0.11L1109.867,222.738z"/>
			<path fill="#FFD08D" d="M1109.565,226.901c-8.531-0.568-17.077-1.135-25.641-1.701l0,0c-8.046,1.519-16.107,3.042-24.181,4.566
				l0,0l-25.57,4.034l25.424-4.814c8.056-1.772,16.127-3.546,24.212-5.321c8.608,0.302,17.233,0.601,25.875,0.9L1109.565,226.901z"
				/>
			<path fill="#FFD08D" d="M1109.867,222.738c-8.553-0.308-17.117-0.618-25.691-0.924c-10.572,1.222-21.155,2.442-31.75,3.667
				c-5.823,0.603-11.645,1.207-17.466,1.811c5.8-0.784,11.599-1.569,17.398-2.353c10.566-1.552,21.144-3.106,31.733-4.659l0,0
				c8.598,0.04,17.206,0.078,25.823,0.118L1109.867,222.738z"/>
			<path fill="#FFD08D" d="M1109.565,226.901c-8.531-0.568-17.077-1.135-25.641-1.701l0,0c-8.046,1.519-16.107,3.042-24.181,4.566
				l0,0l-25.57,4.034l25.424-4.814c8.056-1.772,16.127-3.546,24.212-5.321c8.608,0.302,17.233,0.601,25.875,0.9L1109.565,226.901z"
				/>
			<path fill="#FFD08D" d="M1111.161,227.16c-8.539-0.31-17.095-0.622-25.663-0.93l0,0c-10.475,1.997-20.972,3.998-31.492,6.003
				c-5.482,1.301-10.965,2.603-16.451,3.906c5.442-1.474,10.886-2.948,16.332-4.421c10.468-2.333,20.959-4.669,31.471-7.007
				c8.602,0.038,17.219,0.075,25.851,0.11C1111.193,225.599,1111.177,226.379,1111.161,227.16L1111.161,227.16z"/>
			<path fill="#FFD08D" d="M1110.946,231.322c-8.481,0.041-16.969,0.082-25.464,0.124l0,0c-8.142,0.912-16.293,1.827-24.454,2.742
				l0,0c-8.516,1.343-17.036,2.684-25.557,4.029c8.477-1.607,16.956-3.21,25.439-4.817c8.143-1.167,16.297-2.334,24.458-3.504l0,0
				c8.503-0.304,17.014-0.609,25.531-0.914C1110.914,229.762,1110.93,230.541,1110.946,231.322L1110.946,231.322z"/>
			<path fill="#FFD08D" d="M1111.334,227.149c-8.456,0.91-16.903,1.819-25.34,2.729c-10.181-0.331-20.347-0.664-30.495-0.996
				c-6.244-0.618-12.483-1.236-18.718-1.854c6.251,0.423,12.502,0.844,18.747,1.267c10.145,0.015,20.273,0.029,30.385,0.045l0,0
				c8.387-1.173,16.765-2.344,25.134-3.515C1111.143,225.6,1111.239,226.375,1111.334,227.149L1111.334,227.149z"/>
			<path fill="#FFD08D" d="M1111.011,231.322c-8.25,0.48-16.498,0.961-24.746,1.438c-8.409,0.478-16.824,0.953-25.246,1.431l0,0
				c-8.508,1.343-17.023,2.684-25.546,4.028c8.477-1.606,16.96-3.211,25.449-4.817c8.403-0.739,16.812-1.475,25.228-2.214
				c8.229-0.733,16.458-1.468,24.688-2.201L1111.011,231.322z"/>
			<path fill="#FFD08D" d="M1111.474,239.412c-8.632,0.034-17.248,0.072-25.851,0.108c-10.512-2.339-21.003-4.674-31.471-7.006l0,0
				c-5.446-1.474-10.89-2.949-16.332-4.421l16.451,3.906l0,0c10.52,2.003,21.017,4.005,31.492,6.002
				c8.57-0.308,17.124-0.62,25.663-0.93L1111.474,239.412z"/>
			<path fill="#FFD08D" d="M1111.248,235.248c-8.642,0.296-17.266,0.594-25.874,0.892c-8.046-1.774-16.097-3.549-24.153-5.323
				c-8.213,0.914-16.448,1.829-24.702,2.741c8.223-1.169,16.467-2.336,24.73-3.504l0,0c8.075,1.522,16.155,3.042,24.24,4.562l0,0
				c8.563-0.568,17.111-1.136,25.641-1.709L1111.248,235.248z"/>
			<path fill="#FFD08D" d="M1111.474,239.412c-8.632,0.034-17.248,0.072-25.851,0.108c-10.512-2.339-21.003-4.674-31.471-7.006l0,0
				c-5.446-1.474-10.89-2.949-16.332-4.421l16.451,3.906l0,0c10.52,2.003,21.017,4.005,31.492,6.002
				c8.57-0.308,17.124-0.62,25.663-0.93L1111.474,239.412z"/>
			<path fill="#FFD08D" d="M1111.248,235.248c-8.611,0.299-17.217,0.6-25.815,0.899c-7.728-0.466-15.451-0.934-23.171-1.402
				c-8.667-0.308-17.335-0.618-26.004-0.926c8.675,0.037,17.352,0.076,26.032,0.113l0,0c7.717,0.227,15.43,0.456,23.139,0.682l0,0
				c8.574-0.568,17.14-1.136,25.701-1.705L1111.248,235.248z"/>
			<path fill="#FFD08D" d="M1111.895,245.654c-11.979-0.971-23.947-1.94-35.904-2.908l0,0c-6.3-1.281-12.79-1.54-19.265-1.606
				c-6.464-0.061-12.943-0.694-19.166-2.378c6.273,1.488,12.735,1.911,19.163,1.773c6.474-0.141,12.989-0.086,19.419,1.008l0,0
				c11.98,0.591,23.947,1.184,35.905,1.775L1111.895,245.654z"/>
			<path fill="#FFD08D" d="M1111.765,241.492c-8.641,0.298-17.266,0.599-25.875,0.899c-8.085-1.774-16.156-3.546-24.212-5.32
				c-8.473-1.606-16.947-3.208-25.424-4.813c8.521,1.345,17.045,2.687,25.571,4.032l0,0c8.074,1.524,16.134,3.045,24.18,4.567l0,0
				c8.564-0.566,17.11-1.133,25.641-1.702L1111.765,241.492z"/>
			<path fill="#FFD08D" d="M1111.991,245.654c-8.628,0.033-17.242,0.065-25.843,0.101c-7.691-1.566-15.655-1.648-23.574-1.81
				c-7.881-0.157-15.855-0.524-23.456-2.583c7.663,1.815,15.59,1.918,23.459,1.826c7.89-0.096,15.843-0.268,23.694,1.065l0,0
				c8.572-0.31,17.129-0.625,25.672-0.94L1111.991,245.654z"/>
			<path fill="#FFD08D" d="M1111.765,241.492c-8.618,0.298-17.228,0.597-25.828,0.893l0,0c-8.423-0.826-16.838-1.652-25.248-2.479
				l0,0c-7.709-0.468-15.42-0.936-23.132-1.405c7.724,0.225,15.45,0.449,23.178,0.676c8.415,0.561,16.823,1.123,25.226,1.685
				c8.571-0.569,17.134-1.137,25.686-1.709L1111.765,241.492z"/>
		</g>
		<g transform="matrix(1.2278 0 0 1.1421 -909.67 481.21)">
			<path fill="#B76B37" d="M1110.384,215.12c-8.539-0.311-17.094-0.623-25.663-0.931c-10.475,1.998-20.973,3.998-31.492,6.003
				c-5.481,1.302-10.965,2.603-16.451,3.904c5.442-1.472,10.886-2.945,16.332-4.42c10.468-2.333,20.959-4.668,31.471-7.006
				c8.602,0.038,17.219,0.075,25.851,0.11C1110.417,213.558,1110.401,214.339,1110.384,215.12L1110.384,215.12z"/>
			<path fill="#B76B37" d="M1110.083,219.271c-8.531-0.568-17.077-1.135-25.64-1.704l0,0c-8.047,1.521-16.107,3.043-24.182,4.567
				l0,0l-25.57,4.033l25.424-4.813c8.057-1.772,16.127-3.547,24.212-5.321c8.609,0.301,17.233,0.6,25.875,0.9
				C1110.163,217.711,1110.124,218.491,1110.083,219.271L1110.083,219.271z"/>
			<path fill="#B76B37" d="M1110.384,215.12c-8.539-0.311-17.094-0.623-25.663-0.931c-10.475,1.998-20.973,3.998-31.492,6.003
				c-5.481,1.302-10.965,2.603-16.451,3.904c5.442-1.472,10.886-2.945,16.332-4.42c10.468-2.333,20.959-4.668,31.471-7.006
				c8.602,0.038,17.219,0.075,25.851,0.11C1110.417,213.558,1110.401,214.339,1110.384,215.12L1110.384,215.12z"/>
			<path fill="#B76B37" d="M1110.083,219.271c-8.531-0.568-17.077-1.135-25.64-1.704l0,0c-8.047,1.521-16.107,3.043-24.182,4.567
				l0,0l-25.57,4.033l25.424-4.813c8.057-1.772,16.127-3.547,24.212-5.321c8.609,0.301,17.233,0.6,25.875,0.9
				C1110.163,217.711,1110.124,218.491,1110.083,219.271L1110.083,219.271z"/>
			<path fill="#B76B37" d="M1109.867,222.399c-8.539-0.313-17.095-0.623-25.663-0.931c-10.475,1.998-20.973,3.998-31.492,6.003
				c-5.482,1.301-10.965,2.602-16.451,3.905c5.442-1.473,10.886-2.946,16.332-4.42c10.467-2.334,20.959-4.669,31.471-7.007
				c8.602,0.038,17.219,0.075,25.851,0.109L1109.867,222.399z"/>
			<path fill="#B76B37" d="M1109.565,226.56c-8.53-0.569-17.077-1.136-25.641-1.702l0,0c-8.046,1.521-16.107,3.043-24.181,4.567l0,0
				l-25.57,4.034l25.424-4.815c8.056-1.772,16.127-3.546,24.212-5.32c8.608,0.301,17.233,0.601,25.875,0.9L1109.565,226.56z"/>
			<path fill="#B76B37" d="M1109.867,222.399c-8.553-0.307-17.117-0.618-25.691-0.926c-10.572,1.224-21.155,2.444-31.75,3.668
				c-5.823,0.603-11.645,1.207-17.466,1.811c5.8-0.784,11.599-1.568,17.398-2.353c10.566-1.552,21.144-3.106,31.733-4.659l0,0
				c8.598,0.04,17.206,0.078,25.823,0.118L1109.867,222.399z"/>
			<path fill="#B76B37" d="M1109.565,226.56c-8.53-0.569-17.077-1.136-25.641-1.702l0,0c-8.046,1.521-16.107,3.043-24.181,4.567l0,0
				l-25.57,4.034l25.424-4.815c8.056-1.772,16.127-3.546,24.212-5.32c8.608,0.301,17.233,0.601,25.875,0.9L1109.565,226.56z"/>
			<path fill="#B76B37" d="M1111.161,226.82c-8.539-0.312-17.095-0.623-25.663-0.931l0,0c-10.475,1.998-20.973,3.998-31.492,6.002
				c-5.482,1.302-10.965,2.603-16.451,3.906c5.442-1.473,10.886-2.946,16.332-4.42c10.468-2.334,20.959-4.669,31.471-7.007
				c8.602,0.038,17.219,0.075,25.851,0.109c-0.015,0.78-0.031,1.56-0.047,2.34L1111.161,226.82L1111.161,226.82z"/>
			<path fill="#B76B37" d="M1110.946,230.982c-8.481,0.041-16.969,0.083-25.464,0.124l0,0c-8.142,0.913-16.294,1.829-24.454,2.742
				l0,0c-8.516,1.344-17.036,2.685-25.557,4.029c8.477-1.606,16.956-3.209,25.439-4.817c8.143-1.166,16.297-2.334,24.458-3.503l0,0
				c8.503-0.305,17.014-0.61,25.531-0.914C1110.914,229.421,1110.93,230.202,1110.946,230.982L1110.946,230.982z"/>
			<path fill="#B76B37" d="M1111.334,226.809c-8.456,0.91-16.903,1.819-25.34,2.728c-10.181-0.33-20.347-0.662-30.495-0.995
				c-6.244-0.619-12.483-1.235-18.718-1.854c6.251,0.423,12.502,0.845,18.747,1.267c10.145,0.016,20.273,0.031,30.385,0.044l0,0
				c8.387-1.171,16.765-2.342,25.134-3.513C1111.143,225.26,1111.239,226.034,1111.334,226.809L1111.334,226.809z"/>
			<path fill="#B76B37" d="M1111.011,230.982c-8.25,0.481-16.498,0.962-24.746,1.439c-8.409,0.477-16.823,0.954-25.246,1.431l0,0
				c-8.508,1.342-17.023,2.684-25.546,4.028c8.477-1.606,16.96-3.212,25.449-4.818c8.403-0.738,16.812-1.475,25.228-2.213
				c8.229-0.734,16.458-1.469,24.688-2.202L1111.011,230.982z"/>
			<path fill="#B76B37" d="M1111.474,239.07c-8.632,0.034-17.248,0.073-25.851,0.109c-10.512-2.338-21.003-4.674-31.471-7.008l0,0
				c-5.446-1.473-10.89-2.947-16.332-4.419l16.451,3.905l0,0c10.52,2.003,21.017,4.005,31.492,6.003
				c8.57-0.309,17.124-0.62,25.663-0.931L1111.474,239.07z"/>
			<path fill="#B76B37" d="M1111.248,234.907c-8.641,0.296-17.266,0.592-25.874,0.891c-8.047-1.774-16.097-3.549-24.153-5.322
				c-8.213,0.913-16.448,1.828-24.702,2.74c8.223-1.168,16.467-2.336,24.731-3.504l0,0c8.075,1.521,16.155,3.042,24.24,4.563l0,0
				c8.563-0.568,17.111-1.14,25.641-1.709L1111.248,234.907z"/>
			<path fill="#B76B37" d="M1111.474,239.07c-8.632,0.034-17.248,0.073-25.851,0.109c-10.512-2.338-21.003-4.674-31.471-7.008l0,0
				c-5.446-1.473-10.89-2.947-16.332-4.419l16.451,3.905l0,0c10.52,2.003,21.017,4.005,31.492,6.003
				c8.57-0.309,17.124-0.62,25.663-0.931L1111.474,239.07z"/>
			<path fill="#B76B37" d="M1111.248,234.907c-8.611,0.299-17.217,0.599-25.814,0.898c-7.728-0.466-15.451-0.933-23.171-1.402
				c-8.667-0.308-17.335-0.618-26.004-0.925c8.675,0.037,17.352,0.076,26.032,0.114l0,0c7.717,0.226,15.43,0.451,23.139,0.68l0,0
				c8.574-0.568,17.14-1.135,25.701-1.704L1111.248,234.907z"/>
			<path fill="#B76B37" d="M1111.895,245.314c-11.979-0.971-23.947-1.94-35.904-2.907l0,0c-6.3-1.282-12.79-1.539-19.265-1.607
				c-6.464-0.062-12.943-0.693-19.166-2.378c6.273,1.488,12.735,1.91,19.163,1.773c6.474-0.141,12.989-0.085,19.419,1.008l0,0
				c11.98,0.592,23.947,1.183,35.905,1.775L1111.895,245.314z"/>
			<path fill="#B76B37" d="M1111.765,241.151c-8.641,0.298-17.266,0.598-25.875,0.898c-8.085-1.774-16.156-3.547-24.212-5.319
				c-8.473-1.605-16.947-3.209-25.425-4.814c8.521,1.344,17.045,2.688,25.571,4.034l0,0c8.074,1.52,16.134,3.044,24.18,4.563l0,0
				c8.564-0.565,17.11-1.132,25.641-1.7L1111.765,241.151z"/>
			<path fill="#B76B37" d="M1111.991,245.314c-8.628,0.034-17.242,0.066-25.842,0.102c-7.691-1.566-15.655-1.649-23.575-1.811
				c-7.881-0.157-15.855-0.523-23.456-2.584c7.663,1.816,15.59,1.919,23.459,1.829c7.89-0.098,15.843-0.27,23.694,1.064l0,0
				c8.572-0.311,17.13-0.625,25.672-0.941L1111.991,245.314z"/>
			<path fill="#B76B37" d="M1111.765,241.151c-8.618,0.298-17.228,0.596-25.828,0.893l0,0c-8.423-0.827-16.838-1.653-25.248-2.479
				l0,0c-7.709-0.467-15.419-0.936-23.132-1.406c7.724,0.224,15.45,0.45,23.178,0.677c8.415,0.561,16.823,1.123,25.226,1.684
				c8.571-0.569,17.134-1.137,25.686-1.707L1111.765,241.151z"/>
		</g>
		<g transform="matrix(1.3334 0 0 1.1421 -1000.7 533.01)">
			<path fill="#FFD08D" d="M1091.856,218.673c-8.539-0.311-17.095-0.622-25.663-0.931c-10.475,1.998-20.973,3.998-31.493,6.003
				c-5.481,1.301-10.965,2.603-16.451,3.905c5.442-1.472,10.887-2.946,16.333-4.419c10.468-2.334,20.959-4.67,31.47-7.008
				c8.602,0.038,17.219,0.076,25.851,0.109C1091.888,217.113,1091.873,217.893,1091.856,218.673L1091.856,218.673z"/>
			<path fill="#FFD08D" d="M1091.554,222.825c-8.53-0.568-17.077-1.136-25.64-1.702l0,0c-8.046,1.52-16.108,3.043-24.181,4.567l0,0
				l-25.57,4.033l25.424-4.813c8.056-1.773,16.127-3.547,24.212-5.322c8.608,0.302,17.233,0.602,25.875,0.902
				C1091.634,221.267,1091.595,222.047,1091.554,222.825L1091.554,222.825z"/>
			<path fill="#FFD08D" d="M1091.856,218.673c-8.539-0.311-17.095-0.622-25.663-0.931c-10.475,1.998-20.973,3.998-31.493,6.003
				c-5.481,1.301-10.965,2.603-16.451,3.905c5.442-1.472,10.887-2.946,16.333-4.419c10.468-2.334,20.959-4.67,31.47-7.008
				c8.602,0.038,17.219,0.076,25.851,0.109C1091.888,217.113,1091.873,217.893,1091.856,218.673L1091.856,218.673z"/>
			<path fill="#FFD08D" d="M1091.554,222.825c-8.53-0.568-17.077-1.136-25.64-1.702l0,0c-8.046,1.52-16.108,3.043-24.181,4.567l0,0
				l-25.57,4.033l25.424-4.813c8.056-1.773,16.127-3.547,24.212-5.322c8.608,0.302,17.233,0.602,25.875,0.902
				C1091.634,221.267,1091.595,222.047,1091.554,222.825L1091.554,222.825z"/>
			<path fill="#FFD08D" d="M1091.339,225.953c-8.539-0.31-17.094-0.622-25.663-0.93c-10.475,1.998-20.973,4.001-31.492,6.004
				c-5.481,1.301-10.965,2.601-16.451,3.904c5.442-1.473,10.886-2.946,16.333-4.42c10.468-2.333,20.958-4.669,31.47-7.006
				c8.602,0.037,17.219,0.074,25.851,0.108L1091.339,225.953z"/>
			<path fill="#FFD08D" d="M1091.037,230.115c-8.53-0.568-17.077-1.136-25.641-1.702l0,0c-8.046,1.52-16.107,3.043-24.181,4.567l0,0
				l-25.571,4.033l25.424-4.813c8.056-1.773,16.127-3.546,24.212-5.321c8.608,0.302,17.232,0.602,25.875,0.9L1091.037,230.115z"/>
			<path fill="#FFD08D" d="M1091.339,225.953c-8.554-0.307-17.117-0.617-25.691-0.923c-10.572,1.222-21.155,2.443-31.75,3.666
				c-5.823,0.604-11.645,1.207-17.466,1.811c5.8-0.784,11.599-1.568,17.397-2.352c10.566-1.552,21.144-3.106,31.733-4.66l0,0
				c8.598,0.039,17.206,0.079,25.823,0.118L1091.339,225.953z"/>
			<path fill="#FFD08D" d="M1091.037,230.115c-8.53-0.568-17.077-1.136-25.641-1.702l0,0c-8.046,1.52-16.107,3.043-24.181,4.567l0,0
				l-25.571,4.033l25.424-4.813c8.056-1.773,16.127-3.546,24.212-5.321c8.608,0.302,17.232,0.602,25.875,0.9L1091.037,230.115z"/>
			<path fill="#FFD08D" d="M1092.633,230.375c-8.54-0.313-17.094-0.623-25.664-0.932l0,0c-10.475,1.998-20.973,4.002-31.492,6.004
				c-5.481,1.302-10.965,2.601-16.451,3.905c5.442-1.473,10.886-2.946,16.332-4.42c10.469-2.333,20.959-4.669,31.471-7.006
				c8.602,0.037,17.218,0.074,25.851,0.107C1092.664,228.814,1092.649,229.594,1092.633,230.375L1092.633,230.375z"/>
			<path fill="#FFD08D" d="M1092.417,234.538c-8.481,0.041-16.97,0.082-25.464,0.125l0,0c-8.142,0.912-16.293,1.827-24.454,2.74l0,0
				c-8.516,1.344-17.035,2.686-25.557,4.029c8.476-1.605,16.956-3.209,25.437-4.816c8.144-1.168,16.297-2.336,24.46-3.504l0,0
				c8.503-0.305,17.013-0.609,25.531-0.915C1092.386,232.976,1092.401,233.757,1092.417,234.538L1092.417,234.538z"/>
			<path fill="#FFD08D" d="M1092.805,230.363c-8.456,0.909-16.903,1.819-25.34,2.728c-10.182-0.33-20.347-0.663-30.495-0.994
				c-6.243-0.619-12.483-1.236-18.718-1.855c6.252,0.422,12.502,0.845,18.748,1.267c10.145,0.015,20.272,0.031,30.385,0.045l0,0
				c8.387-1.172,16.766-2.343,25.134-3.514C1092.614,228.815,1092.71,229.589,1092.805,230.363L1092.805,230.363z"/>
			<path fill="#FFD08D" d="M1092.482,234.538c-8.249,0.48-16.497,0.961-24.746,1.442c-8.409,0.476-16.824,0.952-25.246,1.429l0,0
				c-8.509,1.343-17.024,2.684-25.546,4.028c8.477-1.606,16.96-3.21,25.449-4.818c8.403-0.737,16.812-1.474,25.228-2.212
				c8.23-0.734,16.459-1.469,24.688-2.203L1092.482,234.538z"/>
			<path fill="#FFD08D" d="M1092.945,242.625c-8.631,0.035-17.248,0.073-25.851,0.109c-10.513-2.338-21.003-4.673-31.47-7.007l0,0
				c-5.446-1.474-10.89-2.947-16.332-4.419l16.45,3.905l0,0c10.52,2.002,21.017,4.004,31.492,6.002
				c8.57-0.308,17.124-0.619,25.663-0.931L1092.945,242.625z"/>
			<path fill="#FFD08D" d="M1092.719,238.462c-8.642,0.297-17.267,0.596-25.874,0.892c-8.046-1.774-16.097-3.548-24.153-5.322
				c-8.213,0.912-16.448,1.828-24.703,2.74c8.223-1.169,16.467-2.337,24.731-3.505l0,0c8.075,1.524,16.155,3.043,24.24,4.563l0,0
				c8.564-0.568,17.111-1.136,25.641-1.709L1092.719,238.462z"/>
			<path fill="#FFD08D" d="M1092.945,242.625c-8.631,0.035-17.248,0.073-25.851,0.109c-10.513-2.338-21.003-4.673-31.47-7.007l0,0
				c-5.446-1.474-10.89-2.947-16.332-4.419l16.45,3.905l0,0c10.52,2.002,21.017,4.004,31.492,6.002
				c8.57-0.308,17.124-0.619,25.663-0.931L1092.945,242.625z"/>
			<path fill="#FFD08D" d="M1092.719,238.462c-8.611,0.3-17.217,0.6-25.815,0.9c-7.728-0.468-15.452-0.935-23.171-1.403
				c-8.666-0.308-17.336-0.618-26.005-0.926c8.676,0.037,17.352,0.077,26.031,0.114l0,0c7.718,0.226,15.431,0.454,23.141,0.68l0,0
				c8.573-0.567,17.14-1.134,25.7-1.701L1092.719,238.462z"/>
			<path fill="#FFD08D" d="M1093.366,248.869c-11.979-0.97-23.947-1.939-35.904-2.907l0,0c-6.3-1.279-12.79-1.539-19.264-1.606
				c-6.465-0.063-12.943-0.692-19.166-2.379c6.272,1.488,12.734,1.911,19.162,1.773c6.474-0.141,12.99-0.084,19.419,1.008l0,0
				c11.979,0.593,23.948,1.186,35.905,1.774L1093.366,248.869z"/>
			<path fill="#FFD08D" d="M1093.237,244.707c-8.641,0.297-17.266,0.598-25.875,0.898c-8.085-1.774-16.155-3.548-24.212-5.32
				c-8.472-1.605-16.947-3.209-25.424-4.813c8.522,1.344,17.045,2.687,25.571,4.033l0,0c8.074,1.523,16.135,3.044,24.181,4.567l0,0
				c8.563-0.567,17.11-1.133,25.641-1.705L1093.237,244.707z"/>
			<path fill="#FFD08D" d="M1093.463,248.869c-8.628,0.034-17.242,0.066-25.843,0.102c-7.69-1.565-15.654-1.648-23.575-1.81
				c-7.88-0.157-15.854-0.525-23.456-2.584c7.664,1.816,15.59,1.918,23.459,1.828c7.89-0.097,15.844-0.269,23.694,1.063l0,0
				c8.571-0.311,17.129-0.624,25.672-0.939L1093.463,248.869z"/>
			<path fill="#FFD08D" d="M1093.237,244.707c-8.618,0.297-17.228,0.596-25.828,0.893l0,0c-8.423-0.826-16.839-1.653-25.25-2.48l0,0
				c-7.709-0.468-15.419-0.936-23.132-1.406c7.724,0.226,15.45,0.45,23.179,0.678c8.415,0.561,16.824,1.122,25.226,1.684
				c8.571-0.569,17.133-1.137,25.686-1.709L1093.237,244.707z"/>
		</g>
		<path fill="#B76B37" d="M449.992,813.818l-20.279,1.782l-28.509-4.457l-27.333-7.131l-8.229-0.595
			c4.85,3.228,10.358,5.36,15.989,6.85c5.117,1.354,10.353,2.224,15.458,3.624l-30.272-6.76l14.695,6.314l0,0l-14.989-1.114
			l39.677,10.104l0,0l24.982-0.893l0,0l19.692-4.159L449.992,813.818z"/>
		<g transform="matrix(1.2278 0 0 1.1421 -911.57 463.85)">
			<path fill="#FFD08D" d="M1110.264,213.927c-8.54-0.311-17.095-0.623-25.663-0.932c-10.475,1.999-20.973,4.001-31.493,6.004
				c-5.481,1.302-10.965,2.603-16.451,3.906c5.442-1.474,10.886-2.947,16.333-4.421c10.468-2.334,20.958-4.668,31.47-7.006
				c8.602,0.036,17.219,0.074,25.851,0.108C1110.295,212.367,1110.28,213.147,1110.264,213.927L1110.264,213.927z"/>
			<path fill="#FFD08D" d="M1109.962,218.078c-8.531-0.568-17.078-1.135-25.641-1.701l0,0c-8.046,1.52-16.107,3.043-24.181,4.564
				l0,0l-25.57,4.034l25.424-4.814c8.056-1.773,16.127-3.547,24.212-5.321c8.608,0.301,17.233,0.602,25.875,0.901
				C1110.041,216.52,1110.002,217.299,1109.962,218.078L1109.962,218.078z"/>
			<path fill="#FFD08D" d="M1110.264,213.927c-8.54-0.311-17.095-0.623-25.663-0.932c-10.475,1.999-20.973,4.001-31.493,6.004
				c-5.481,1.302-10.965,2.603-16.451,3.906c5.442-1.474,10.886-2.947,16.333-4.421c10.468-2.334,20.958-4.668,31.47-7.006
				c8.602,0.036,17.219,0.074,25.851,0.108C1110.295,212.367,1110.28,213.147,1110.264,213.927L1110.264,213.927z"/>
			<path fill="#FFD08D" d="M1109.962,218.078c-8.531-0.568-17.078-1.135-25.641-1.701l0,0c-8.046,1.52-16.107,3.043-24.181,4.564
				l0,0l-25.57,4.034l25.424-4.814c8.056-1.773,16.127-3.547,24.212-5.321c8.608,0.301,17.233,0.602,25.875,0.901
				C1110.041,216.52,1110.002,217.299,1109.962,218.078L1109.962,218.078z"/>
			<path fill="#FFD08D" d="M1109.746,221.206c-8.54-0.311-17.095-0.622-25.664-0.931c-10.475,1.998-20.972,3.998-31.492,6.003
				c-5.482,1.301-10.965,2.602-16.451,3.905c5.443-1.474,10.886-2.947,16.332-4.419c10.468-2.335,20.959-4.671,31.471-7.008
				c8.602,0.039,17.219,0.075,25.851,0.109L1109.746,221.206z"/>
			<path fill="#FFD08D" d="M1109.444,225.369c-8.53-0.568-17.077-1.136-25.641-1.704l0,0c-8.047,1.52-16.107,3.043-24.181,4.567l0,0
				l-25.571,4.033l25.424-4.813c8.057-1.773,16.127-3.547,24.212-5.321c8.608,0.302,17.233,0.601,25.875,0.9L1109.444,225.369z"/>
			<path fill="#FFD08D" d="M1109.746,221.206c-8.554-0.308-17.118-0.618-25.692-0.924c-10.572,1.221-21.155,2.442-31.75,3.666
				c-5.822,0.604-11.644,1.207-17.466,1.812c5.8-0.785,11.599-1.569,17.398-2.354c10.566-1.552,21.144-3.105,31.733-4.658l0,0
				c8.597,0.038,17.205,0.078,25.823,0.117L1109.746,221.206z"/>
			<path fill="#FFD08D" d="M1109.444,225.369c-8.53-0.568-17.077-1.136-25.641-1.704l0,0c-8.047,1.52-16.107,3.043-24.181,4.567l0,0
				l-25.571,4.033l25.424-4.813c8.057-1.773,16.127-3.547,24.212-5.321c8.608,0.302,17.233,0.601,25.875,0.9L1109.444,225.369z"/>
			<path fill="#FFD08D" d="M1111.04,225.628c-8.54-0.31-17.095-0.622-25.664-0.931l0,0c-10.475,1.998-20.973,3.999-31.492,6.004
				c-5.482,1.301-10.965,2.601-16.451,3.905c5.442-1.474,10.886-2.947,16.332-4.42c10.469-2.334,20.959-4.67,31.471-7.007
				c8.602,0.038,17.219,0.074,25.851,0.108C1111.073,224.067,1111.056,224.847,1111.04,225.628L1111.04,225.628z"/>
			<path fill="#FFD08D" d="M1110.824,229.79c-8.481,0.041-16.969,0.083-25.464,0.124l0,0c-8.141,0.912-16.294,1.828-24.455,2.741
				l0,0c-8.516,1.343-17.034,2.685-25.557,4.03c8.477-1.607,16.956-3.211,25.439-4.818c8.143-1.166,16.297-2.334,24.459-3.503l0,0
				c8.503-0.305,17.013-0.609,25.531-0.915C1110.793,228.23,1110.809,229.01,1110.824,229.79L1110.824,229.79z"/>
			<path fill="#FFD08D" d="M1111.212,225.616c-8.456,0.91-16.903,1.82-25.34,2.728c-10.181-0.33-20.347-0.662-30.495-0.993
				c-6.243-0.62-12.482-1.237-18.717-1.856c6.252,0.424,12.502,0.845,18.747,1.267c10.145,0.016,20.273,0.031,30.385,0.045l0,0
				c8.386-1.171,16.765-2.342,25.134-3.513C1111.022,224.067,1111.119,224.842,1111.212,225.616L1111.212,225.616z"/>
			<path fill="#FFD08D" d="M1110.891,229.79c-8.249,0.48-16.498,0.96-24.746,1.438c-8.409,0.477-16.824,0.953-25.246,1.431l0,0
				c-8.509,1.343-17.024,2.683-25.546,4.028c8.477-1.607,16.96-3.211,25.449-4.818c8.403-0.738,16.812-1.473,25.228-2.213
				c8.229-0.733,16.458-1.469,24.687-2.201L1110.891,229.79z"/>
			<path fill="#FFD08D" d="M1111.353,237.878c-8.632,0.037-17.249,0.073-25.851,0.11c-10.513-2.338-21.003-4.674-31.471-7.007l0,0
				c-5.446-1.474-10.89-2.948-16.332-4.42l16.451,3.905l0,0c10.519,2.003,21.017,4.004,31.492,6.002
				c8.57-0.307,17.124-0.619,25.664-0.93L1111.353,237.878z"/>
			<path fill="#FFD08D" d="M1111.126,233.715c-8.641,0.298-17.266,0.596-25.874,0.895c-8.047-1.776-16.097-3.551-24.153-5.325
				c-8.213,0.913-16.448,1.829-24.703,2.74c8.223-1.168,16.467-2.336,24.73-3.503l0,0c8.074,1.52,16.155,3.042,24.24,4.561l0,0
				c8.563-0.568,17.11-1.136,25.641-1.708L1111.126,233.715z"/>
			<path fill="#FFD08D" d="M1111.353,237.878c-8.632,0.037-17.249,0.073-25.851,0.11c-10.513-2.338-21.003-4.674-31.471-7.007l0,0
				c-5.446-1.474-10.89-2.948-16.332-4.42l16.451,3.905l0,0c10.519,2.003,21.017,4.004,31.492,6.002
				c8.57-0.307,17.124-0.619,25.664-0.93L1111.353,237.878z"/>
			<path fill="#FFD08D" d="M1111.126,233.715c-8.611,0.3-17.217,0.6-25.815,0.9c-7.728-0.468-15.451-0.934-23.171-1.403
				c-8.667-0.308-17.335-0.617-26.004-0.926c8.675,0.037,17.353,0.077,26.032,0.114l0,0c7.718,0.227,15.43,0.455,23.139,0.68l0,0
				c8.573-0.566,17.14-1.134,25.7-1.701L1111.126,233.715z"/>
			<path fill="#FFD08D" d="M1111.774,244.123c-11.979-0.97-23.947-1.94-35.905-2.907l0,0c-6.299-1.282-12.79-1.54-19.264-1.607
				c-6.464-0.061-12.943-0.693-19.166-2.378c6.273,1.49,12.735,1.911,19.163,1.773c6.474-0.141,12.989-0.085,19.419,1.008l0,0
				c11.979,0.592,23.947,1.185,35.905,1.774L1111.774,244.123z"/>
			<path fill="#FFD08D" d="M1111.644,239.96c-8.641,0.298-17.266,0.598-25.875,0.898c-8.085-1.773-16.156-3.546-24.212-5.32
				c-8.473-1.604-16.946-3.208-25.424-4.813c8.522,1.345,17.046,2.688,25.571,4.033l0,0c8.074,1.524,16.135,3.045,24.18,4.568l0,0
				c8.564-0.567,17.11-1.134,25.641-1.705L1111.644,239.96z"/>
			<path fill="#FFD08D" d="M1111.871,244.123c-8.628,0.034-17.243,0.066-25.842,0.101c-7.691-1.565-15.655-1.648-23.576-1.809
				c-7.881-0.157-15.855-0.525-23.456-2.584c7.664,1.815,15.59,1.917,23.46,1.828c7.89-0.097,15.843-0.27,23.694,1.063l0,0
				c8.571-0.311,17.129-0.624,25.672-0.939L1111.871,244.123z"/>
			<path fill="#FFD08D" d="M1111.644,239.96c-8.618,0.297-17.228,0.596-25.828,0.894l0,0c-8.422-0.827-16.838-1.654-25.248-2.48l0,0
				c-7.709-0.468-15.42-0.936-23.133-1.406c7.724,0.225,15.45,0.45,23.179,0.677c8.415,0.561,16.824,1.123,25.226,1.684
				c8.571-0.568,17.133-1.136,25.686-1.708L1111.644,239.96z"/>
		</g>
		<g transform="matrix(1.2278 0 0 -1.1421 -904.22 827.33)">
			<path fill="#B76B37" d="M1110.733,76.489c-8.54-0.311-17.095-0.623-25.664-0.932c-10.475,1.999-20.973,4.001-31.492,6.004
				c-5.482,1.302-10.966,2.603-16.451,3.905c5.441-1.473,10.886-2.946,16.332-4.42c10.468-2.334,20.958-4.669,31.47-7.007
				c8.602,0.037,17.219,0.076,25.852,0.109C1110.766,74.929,1110.749,75.71,1110.733,76.489L1110.733,76.489z"/>
			<path fill="#B76B37" d="M1110.431,80.641c-8.53-0.569-17.077-1.136-25.641-1.705l0,0c-8.047,1.521-16.107,3.043-24.181,4.568l0,0
				l-25.571,4.033l25.424-4.814c8.057-1.773,16.127-3.546,24.212-5.321c8.608,0.301,17.232,0.602,25.875,0.901
				C1110.51,79.082,1110.47,79.862,1110.431,80.641L1110.431,80.641z"/>
			<path fill="#B76B37" d="M1110.733,76.489c-8.54-0.311-17.095-0.623-25.664-0.932c-10.475,1.999-20.973,4.001-31.492,6.004
				c-5.482,1.302-10.966,2.603-16.451,3.905c5.441-1.473,10.886-2.946,16.332-4.42c10.468-2.334,20.958-4.669,31.47-7.007
				c8.602,0.037,17.219,0.076,25.852,0.109C1110.766,74.929,1110.749,75.71,1110.733,76.489L1110.733,76.489z"/>
			<path fill="#B76B37" d="M1110.431,80.641c-8.53-0.569-17.077-1.136-25.641-1.705l0,0c-8.047,1.521-16.107,3.043-24.181,4.568l0,0
				l-25.571,4.033l25.424-4.814c8.057-1.773,16.127-3.546,24.212-5.321c8.608,0.301,17.232,0.602,25.875,0.901
				C1110.51,79.082,1110.47,79.862,1110.431,80.641L1110.431,80.641z"/>
			<path fill="#B76B37" d="M1110.215,83.768c-8.54-0.311-17.095-0.623-25.664-0.931c-10.474,1.998-20.973,3.998-31.492,6.003
				c-5.482,1.302-10.965,2.602-16.451,3.905c5.443-1.474,10.887-2.947,16.332-4.42c10.468-2.334,20.958-4.669,31.471-7.007
				c8.602,0.038,17.219,0.074,25.852,0.109L1110.215,83.768z"/>
			<path fill="#B76B37" d="M1109.913,87.931c-8.53-0.568-17.077-1.137-25.641-1.704l0,0c-8.046,1.52-16.107,3.043-24.18,4.567l0,0
				l-25.571,4.033l25.424-4.812c8.057-1.774,16.128-3.547,24.212-5.322c8.609,0.302,17.233,0.601,25.876,0.9L1109.913,87.931z"/>
			<path fill="#B76B37" d="M1110.215,83.768c-8.554-0.308-17.118-0.619-25.692-0.925c-10.572,1.223-21.155,2.443-31.75,3.666
				c-5.822,0.605-11.644,1.209-17.465,1.812c5.799-0.784,11.599-1.569,17.398-2.353c10.566-1.552,21.144-3.105,31.733-4.659l0,0
				c8.598,0.04,17.206,0.079,25.823,0.118L1110.215,83.768z"/>
			<path fill="#B76B37" d="M1109.913,87.931c-8.53-0.568-17.077-1.137-25.641-1.704l0,0c-8.046,1.52-16.107,3.043-24.18,4.567l0,0
				l-25.571,4.033l25.424-4.812c8.057-1.774,16.128-3.547,24.212-5.322c8.609,0.302,17.233,0.601,25.876,0.9L1109.913,87.931z"/>
			<path fill="#B76B37" d="M1111.51,88.19c-8.541-0.31-17.095-0.622-25.664-0.931l0,0c-10.475,1.998-20.973,3.999-31.492,6.003
				c-5.482,1.303-10.965,2.602-16.451,3.906c5.442-1.474,10.887-2.947,16.332-4.42c10.468-2.334,20.959-4.669,31.47-7.007
				c8.602,0.038,17.219,0.074,25.852,0.108C1111.541,86.629,1111.525,87.41,1111.51,88.19L1111.51,88.19z"/>
			<path fill="#B76B37" d="M1111.293,92.352c-8.481,0.04-16.969,0.082-25.464,0.124l0,0c-8.142,0.912-16.293,1.828-24.454,2.741l0,0
				c-8.516,1.344-17.034,2.685-25.556,4.029c8.476-1.606,16.955-3.21,25.438-4.817c8.143-1.167,16.297-2.335,24.458-3.503l0,0
				c8.504-0.306,17.013-0.609,25.53-0.915C1111.262,90.792,1111.278,91.573,1111.293,92.352L1111.293,92.352z"/>
			<path fill="#B76B37" d="M1111.682,88.178c-8.456,0.911-16.903,1.819-25.339,2.728c-10.182-0.33-20.348-0.663-30.496-0.993
				c-6.243-0.62-12.482-1.237-18.717-1.856c6.253,0.423,12.502,0.845,18.748,1.267c10.145,0.016,20.273,0.031,30.385,0.045l0,0
				c8.387-1.171,16.766-2.343,25.134-3.513C1111.491,86.63,1111.587,87.405,1111.682,88.178L1111.682,88.178z"/>
			<path fill="#B76B37" d="M1111.358,92.352c-8.248,0.48-16.497,0.961-24.746,1.439c-8.409,0.477-16.824,0.952-25.246,1.429l0,0
				c-8.509,1.344-17.024,2.684-25.546,4.03c8.476-1.608,16.96-3.211,25.448-4.82c8.403-0.737,16.812-1.473,25.228-2.212
				c8.229-0.733,16.458-1.469,24.687-2.202L1111.358,92.352z"/>
			<path fill="#B76B37" d="M1111.823,100.441c-8.632,0.035-17.25,0.07-25.852,0.109c-10.513-2.338-21.003-4.674-31.47-7.007l0,0
				c-5.446-1.474-10.889-2.947-16.333-4.42l16.451,3.905l0,0c10.519,2.003,21.017,4.004,31.492,6.002
				c8.569-0.307,17.124-0.619,25.663-0.931L1111.823,100.441z"/>
			<path fill="#B76B37" d="M1111.595,96.278c-8.641,0.296-17.265,0.593-25.874,0.892c-8.046-1.774-16.097-3.549-24.152-5.324
				c-8.213,0.914-16.448,1.829-24.703,2.742c8.223-1.169,16.467-2.337,24.73-3.504l0,0c8.075,1.519,16.156,3.043,24.24,4.561l0,0
				c8.564-0.568,17.111-1.136,25.641-1.708L1111.595,96.278z"/>
			<path fill="#B76B37" d="M1111.823,100.441c-8.632,0.035-17.25,0.07-25.852,0.109c-10.513-2.338-21.003-4.674-31.47-7.007l0,0
				c-5.446-1.474-10.889-2.947-16.333-4.42l16.451,3.905l0,0c10.519,2.003,21.017,4.004,31.492,6.002
				c8.569-0.307,17.124-0.619,25.663-0.931L1111.823,100.441z"/>
			<path fill="#B76B37" d="M1111.595,96.278c-8.611,0.299-17.218,0.599-25.814,0.899c-7.727-0.468-15.451-0.933-23.171-1.403
				c-8.666-0.308-17.335-0.618-26.004-0.926c8.675,0.038,17.352,0.077,26.031,0.114l0,0c7.718,0.227,15.431,0.455,23.14,0.68l0,0
				c8.573-0.567,17.14-1.133,25.7-1.7L1111.595,96.278z"/>
			<path fill="#B76B37" d="M1112.242,106.683c-11.979-0.972-23.948-1.94-35.904-2.908l0,0c-6.3-1.279-12.79-1.538-19.265-1.606
				c-6.464-0.061-12.943-0.692-19.166-2.378c6.273,1.49,12.735,1.911,19.163,1.774c6.474-0.143,12.989-0.086,19.418,1.006l0,0
				c11.98,0.593,23.948,1.185,35.905,1.776L1112.242,106.683z"/>
			<path fill="#B76B37" d="M1112.113,102.522c-8.641,0.297-17.266,0.599-25.875,0.9c-8.085-1.776-16.156-3.548-24.213-5.322
				c-8.472-1.605-16.947-3.207-25.424-4.813c8.522,1.345,17.046,2.687,25.571,4.033l0,0c8.074,1.523,16.135,3.045,24.181,4.568l0,0
				c8.563-0.568,17.11-1.134,25.64-1.705L1112.113,102.522z"/>
			<path fill="#B76B37" d="M1112.34,106.683c-8.629,0.034-17.243,0.065-25.842,0.101c-7.691-1.565-15.655-1.648-23.575-1.81
				c-7.881-0.157-15.855-0.523-23.456-2.584c7.664,1.816,15.591,1.919,23.46,1.829c7.89-0.097,15.844-0.27,23.694,1.063l0,0
				c8.571-0.311,17.129-0.624,25.672-0.939L1112.34,106.683z"/>
			<path fill="#B76B37" d="M1112.113,102.522c-8.619,0.297-17.228,0.597-25.829,0.893l0,0c-8.422-0.827-16.838-1.654-25.248-2.479
				l0,0c-7.709-0.468-15.42-0.936-23.133-1.406c7.724,0.225,15.45,0.449,23.179,0.678c8.415,0.56,16.824,1.122,25.226,1.681
				c8.572-0.568,17.134-1.137,25.686-1.708L1112.113,102.522z"/>
		</g>
		<path fill="#004F00" d="M517.619,709.032c-2.015-0.09-3.879,0.262-5.025,0.191c-12.697,41.412-12.667,67.292-12.714,107.65
			l10.202-0.654c4.803-2.802,5.83-7.2,7.69-9.507c1.889-7.218,4.21-11.384,6.319-14.933c10.683-12.768,20.405-11.546,33.463-10.24
			l79.562,7.967c12.088,2.353,14.257,2.98,41.152-6.081l45.112-18.32c15.959-10.92,10.542-23.076,3.502-26.787l-54.591-7.583
			c-12.241-2.395-20.771-1.768-33.308-0.154l-87.747,19.205c-14.353-0.537-15.426-5.351-21.7-18.627
			c-1.646-4.582-3.07-9.561-3.731-14.357C524.679,710.516,520.977,709.181,517.619,709.032L517.619,709.032z M709.647,750.81
			c-0.13,3.674-4.968,6.668-12.618,6.946s-11.243-2.484-11.115-6.159c6.683-4.856,23.656-6.268,23.734-0.787H709.647z"/>
		
			<linearGradient id="SVGID_4_" gradientUnits="userSpaceOnUse" x1="694.2831" y1="-20.4413" x2="692.6331" y2="-5.5002" gradientTransform="matrix(2.1753 0 0 2.1994 -890.5955 774.5216)">
			<stop  offset="0" style="stop-color:#64A4A2"/>
			<stop  offset="1" style="stop-color:#64A4A2"/>
		</linearGradient>
		<path fill="url(#SVGID_4_)" d="M515.666,703.187c-1.243,0.065-2.319,0.199-3.084,0.154
			c-12.697,41.412-12.666,67.292-12.714,107.651l10.203-0.616c4.803-2.802,5.83-7.239,7.689-9.545
			c1.89-7.218,4.21-11.383,6.319-14.933c10.683-12.767,20.405-11.507,33.462-10.2l79.563,7.967
			c12.087,2.354,14.257,2.98,41.151-6.081l45.112-18.319c15.96-10.92,8.715-18.111,1.675-21.822l-52.763-12.587
			c-12.24-2.395-20.77-1.769-33.308-0.154l-87.748,19.205c-14.352-0.536-15.425-5.351-21.7-18.628
			c-1.646-4.581-3.07-9.56-3.73-14.355C524.444,703.374,519.396,702.985,515.666,703.187L515.666,703.187z M697.482,744.445
			c7.651-0.278,13.757,2.485,13.63,6.16c-0.13,3.675-6.435,6.88-14.086,7.159c-7.651,0.275-13.757-2.485-13.63-6.159
			C683.528,747.93,689.831,744.723,697.482,744.445L697.482,744.445z"/>
		<g transform="matrix(1.2278 0 0 -1.1421 -910.21 895.97)">
			<path fill="#B76B37" d="M1110.351,71.778c-8.54-0.311-17.095-0.623-25.663-0.931c-10.475,1.998-20.973,3.999-31.492,6.003
				c-5.482,1.302-10.966,2.602-16.451,3.905c5.443-1.472,10.887-2.946,16.333-4.419c10.467-2.333,20.958-4.67,31.47-7.008
				c8.602,0.039,17.219,0.075,25.852,0.109C1110.382,70.218,1110.366,70.997,1110.351,71.778L1110.351,71.778z"/>
			<path fill="#B76B37" d="M1110.049,75.929c-8.53-0.568-17.077-1.136-25.641-1.702l0,0c-8.047,1.52-16.107,3.044-24.181,4.567l0,0
				l-25.571,4.033l25.424-4.813c8.057-1.773,16.128-3.546,24.211-5.321c8.609,0.302,17.233,0.602,25.876,0.9
				C1110.128,74.371,1110.088,75.15,1110.049,75.929L1110.049,75.929z"/>
			<path fill="#B76B37" d="M1110.351,71.778c-8.54-0.311-17.095-0.623-25.663-0.931c-10.475,1.998-20.973,3.999-31.492,6.003
				c-5.482,1.302-10.966,2.602-16.451,3.905c5.443-1.472,10.887-2.946,16.333-4.419c10.467-2.333,20.958-4.67,31.47-7.008
				c8.602,0.039,17.219,0.075,25.852,0.109C1110.382,70.218,1110.366,70.997,1110.351,71.778L1110.351,71.778z"/>
			<path fill="#B76B37" d="M1110.049,75.929c-8.53-0.568-17.077-1.136-25.641-1.702l0,0c-8.047,1.52-16.107,3.044-24.181,4.567l0,0
				l-25.571,4.033l25.424-4.813c8.057-1.773,16.128-3.546,24.211-5.321c8.609,0.302,17.233,0.602,25.876,0.9
				C1110.128,74.371,1110.088,75.15,1110.049,75.929L1110.049,75.929z"/>
			<path fill="#B76B37" d="M1109.833,79.056c-8.54-0.311-17.095-0.622-25.663-0.931c-10.476,1.998-20.973,3.999-31.493,6.004
				c-5.481,1.301-10.965,2.602-16.451,3.905c5.441-1.473,10.886-2.947,16.332-4.419c10.468-2.334,20.959-4.67,31.471-7.008
				c8.602,0.038,17.219,0.076,25.851,0.109L1109.833,79.056z"/>
			<path fill="#B76B37" d="M1109.53,83.219c-8.53-0.568-17.077-1.134-25.64-1.7l0,0c-8.045,1.519-16.107,3.043-24.181,4.563l0,0
				l-25.57,4.034l25.423-4.813c8.057-1.773,16.128-3.547,24.212-5.321c8.609,0.301,17.233,0.602,25.876,0.9L1109.53,83.219z"/>
			<path fill="#B76B37" d="M1109.833,79.056c-8.554-0.308-17.117-0.617-25.691-0.923c-10.572,1.222-21.155,2.443-31.75,3.667
				c-5.823,0.604-11.644,1.206-17.465,1.81c5.799-0.784,11.599-1.569,17.397-2.353c10.566-1.552,21.144-3.105,31.733-4.658l0,0
				c8.598,0.039,17.206,0.079,25.823,0.117L1109.833,79.056z"/>
			<path fill="#B76B37" d="M1109.53,83.219c-8.53-0.568-17.077-1.134-25.64-1.7l0,0c-8.045,1.519-16.107,3.043-24.181,4.563l0,0
				l-25.57,4.034l25.423-4.813c8.057-1.773,16.128-3.547,24.212-5.321c8.609,0.301,17.233,0.602,25.876,0.9L1109.53,83.219z"/>
			<path fill="#B76B37" d="M1111.127,83.478c-8.54-0.31-17.095-0.622-25.663-0.93l0,0c-10.476,1.997-20.973,3.998-31.492,6.004
				c-5.482,1.301-10.966,2.601-16.451,3.905c5.442-1.473,10.886-2.948,16.332-4.42c10.468-2.333,20.958-4.669,31.47-7.007
				c8.602,0.038,17.219,0.075,25.851,0.108C1111.158,81.918,1111.143,82.698,1111.127,83.478L1111.127,83.478z"/>
			<path fill="#B76B37" d="M1110.911,87.64c-8.481,0.042-16.969,0.083-25.464,0.125l0,0c-8.142,0.911-16.293,1.828-24.455,2.742l0,0
				c-8.515,1.342-17.034,2.684-25.556,4.028c8.476-1.605,16.955-3.209,25.438-4.816c8.143-1.168,16.296-2.336,24.458-3.504l0,0
				c8.504-0.304,17.014-0.609,25.531-0.915C1110.881,86.081,1110.896,86.859,1110.911,87.64L1110.911,87.64z"/>
			<path fill="#B76B37" d="M1111.299,83.468c-8.457,0.91-16.903,1.819-25.34,2.728c-10.182-0.331-20.347-0.664-30.496-0.994
				c-6.243-0.62-12.482-1.237-18.718-1.856c6.252,0.423,12.501,0.845,18.748,1.268c10.144,0.015,20.273,0.029,30.384,0.045l0,0
				c8.387-1.172,16.766-2.344,25.134-3.514C1111.11,81.918,1111.206,82.693,1111.299,83.468L1111.299,83.468z"/>
			<path fill="#B76B37" d="M1110.976,87.64c-8.249,0.481-16.497,0.961-24.746,1.442c-8.409,0.478-16.824,0.951-25.246,1.43l0,0
				c-8.509,1.343-17.023,2.684-25.546,4.028c8.477-1.606,16.96-3.21,25.449-4.818c8.403-0.738,16.812-1.474,25.228-2.214
				c8.229-0.731,16.458-1.467,24.688-2.2L1110.976,87.64z"/>
			<path fill="#B76B37" d="M1111.44,95.727c-8.632,0.037-17.249,0.074-25.852,0.11c-10.512-2.338-21.003-4.673-31.471-7.007l0,0
				c-5.445-1.474-10.889-2.947-16.332-4.42l16.451,3.905l0,0c10.519,2.003,21.017,4.005,31.492,6.003
				c8.569-0.309,17.124-0.62,25.663-0.931L1111.44,95.727z"/>
			<path fill="#B76B37" d="M1111.213,91.566c-8.641,0.298-17.266,0.594-25.874,0.894c-8.046-1.775-16.097-3.551-24.153-5.324
				c-8.213,0.913-16.447,1.828-24.703,2.74c8.223-1.169,16.467-2.336,24.731-3.503l0,0c8.075,1.52,16.156,3.043,24.24,4.562l0,0
				c8.564-0.569,17.111-1.137,25.641-1.709L1111.213,91.566z"/>
			<path fill="#B76B37" d="M1111.44,95.727c-8.632,0.037-17.249,0.074-25.852,0.11c-10.512-2.338-21.003-4.673-31.471-7.007l0,0
				c-5.445-1.474-10.889-2.947-16.332-4.42l16.451,3.905l0,0c10.519,2.003,21.017,4.005,31.492,6.003
				c8.569-0.309,17.124-0.62,25.663-0.931L1111.44,95.727z"/>
			<path fill="#B76B37" d="M1111.213,91.566c-8.611,0.3-17.216,0.6-25.814,0.9c-7.728-0.467-15.451-0.934-23.171-1.402
				c-8.667-0.308-17.335-0.619-26.004-0.927c8.675,0.038,17.353,0.076,26.031,0.114l0,0c7.718,0.227,15.431,0.455,23.14,0.681l0,0
				c8.574-0.567,17.141-1.135,25.701-1.704L1111.213,91.566z"/>
			<path fill="#B76B37" d="M1111.86,101.972c-11.979-0.97-23.947-1.939-35.904-2.908l0,0c-6.299-1.281-12.79-1.539-19.264-1.605
				c-6.464-0.062-12.943-0.694-19.166-2.379c6.272,1.489,12.735,1.912,19.163,1.773c6.474-0.141,12.989-0.086,19.418,1.008l0,0
				c11.98,0.592,23.948,1.185,35.905,1.775L1111.86,101.972z"/>
			<path fill="#B76B37" d="M1111.731,97.81c-8.641,0.299-17.266,0.598-25.875,0.9c-8.085-1.774-16.156-3.547-24.212-5.32
				c-8.473-1.606-16.947-3.208-25.424-4.814c8.521,1.346,17.045,2.688,25.57,4.032l0,0c8.074,1.525,16.135,3.045,24.181,4.569l0,0
				c8.563-0.566,17.109-1.135,25.641-1.706L1111.731,97.81z"/>
			<path fill="#B76B37" d="M1111.957,101.972c-8.628,0.034-17.242,0.066-25.842,0.101c-7.691-1.565-15.655-1.647-23.575-1.81
				c-7.88-0.156-15.854-0.524-23.456-2.583c7.664,1.816,15.59,1.918,23.459,1.828c7.89-0.096,15.843-0.27,23.695,1.063l0,0
				c8.571-0.31,17.13-0.625,25.672-0.94L1111.957,101.972z"/>
			<path fill="#B76B37" d="M1111.731,97.81c-8.619,0.299-17.228,0.597-25.829,0.894l0,0c-8.422-0.826-16.837-1.653-25.248-2.48l0,0
				c-7.708-0.468-15.418-0.935-23.132-1.405c7.724,0.225,15.45,0.45,23.179,0.677c8.415,0.562,16.825,1.123,25.226,1.685
				c8.571-0.57,17.134-1.14,25.686-1.71L1111.731,97.81z"/>
		</g>
		
			<linearGradient id="SVGID_5_" gradientUnits="userSpaceOnUse" x1="1852.4285" y1="-71.5269" x2="1906.7047" y2="-50.9009" gradientTransform="matrix(0.2546 1.1573 -1.0927 0.4713 -62.732 -1412.884)">
			<stop  offset="0" style="stop-color:#DFDFDF"/>
			<stop  offset="0.0625" style="stop-color:#CACACA"/>
			<stop  offset="0.0625" style="stop-color:#666666"/>
			<stop  offset="0.4445" style="stop-color:#E6E6E6"/>
			<stop  offset="0.5498" style="stop-color:#E6E6E6"/>
			<stop  offset="0.7169" style="stop-color:#999999"/>
			<stop  offset="1" style="stop-color:#535353"/>
		</linearGradient>
		<path fill="url(#SVGID_5_)" d="M512.97,703.401c-6.793,28.195-10.816,70.145-12.229,107.276l-50.737,2.402
			c0.663-35.822,1.972-70.621,11.242-107.236L512.97,703.401z"/>
		
			<linearGradient id="SVGID_6_" gradientUnits="userSpaceOnUse" x1="1893.7297" y1="-35.2641" x2="1902.8615" y2="-59.3509" gradientTransform="matrix(0.2546 1.1573 -1.0927 0.4713 -62.732 -1412.884)">
			<stop  offset="0" style="stop-color:#DFDFDF"/>
			<stop  offset="0.0625" style="stop-color:#CACACA"/>
			<stop  offset="0.0625" style="stop-color:#666666"/>
			<stop  offset="0.4445" style="stop-color:#E6E6E6"/>
			<stop  offset="0.5498" style="stop-color:#E6E6E6"/>
			<stop  offset="0.7169" style="stop-color:#999999"/>
			<stop  offset="1" style="stop-color:#535353"/>
		</linearGradient>
		<path fill="url(#SVGID_6_)" d="M504.743,704.026c-6.761,28.063-10.416,70.162-11.865,106.997c-0.016,0.43,2.643,5.307,2.626,5.738
			l2.394-0.069c0.019-0.508-2.395-5.403-2.375-5.912c1.452-36.664,5.307-78.445,11.961-106.061L504.743,704.026L504.743,704.026z
			 M467.893,706.181c-8.989,35.503-9.875,72.103-10.545,106.495c-0.019,0.883,0.242,1.399,0.533,2.079
			c0.292,0.68,0.674,1.398,1.028,2.078c0.385,0.722,0.737,1.186,1.095,1.89l2.993-0.13l-0.206-0.298
			c-0.047-0.203-0.108-0.28-0.152-0.386c-0.088-0.209-0.178-0.409-0.305-0.654c-0.252-0.49-0.574-1.118-0.913-1.77
			c-0.34-0.654-0.675-1.33-0.915-1.884c-0.238-0.556-0.338-1.127-0.342-0.887c0.669-34.383,1.586-70.715,10.469-105.803
			L467.893,706.181L467.893,706.181z"/>
		
			<linearGradient id="SVGID_7_" gradientUnits="userSpaceOnUse" x1="1896.9995" y1="-44.527" x2="1901.4852" y2="-56.9828" gradientTransform="matrix(0.2546 1.1573 -1.0927 0.4713 -62.732 -1412.884)">
			<stop  offset="0" style="stop-color:#DFDFDF"/>
			<stop  offset="0.0625" style="stop-color:#CACACA"/>
			<stop  offset="0.0625" style="stop-color:#666666"/>
			<stop  offset="0.4445" style="stop-color:#E6E6E6"/>
			<stop  offset="0.5498" style="stop-color:#E6E6E6"/>
			<stop  offset="0.7169" style="stop-color:#999999"/>
			<stop  offset="1" style="stop-color:#535353"/>
		</linearGradient>
		<path fill="url(#SVGID_7_)" d="M480.426,704.026c-9.228,36.451-9.973,72.703-10.637,108.033c-0.011,0.454,3.675,5.647,3.667,6.1
			l4.5-0.351c0.011-0.457-3.495-5.714-3.486-6.172c0.663-35.291,1.407-70.608,10.484-106.459L480.426,704.026z M489.865,706.029
			c-6.835,28.368-10.462,68.971-11.894,106.036c-0.011,0.191,3.145,5.247,3.138,5.438l4.863-0.173
			c0.013-0.316-3.317-5.128-3.304-5.444c1.434-36.785,5.105-77.103,11.765-104.742L489.865,706.029z"/>
		
			<linearGradient id="SVGID_8_" gradientUnits="userSpaceOnUse" x1="1552.7998" y1="83.5204" x2="1711.9551" y2="83.5204" gradientTransform="matrix(1.0484 0 0 1.0599 -1219.4912 558.9695)">
			<stop  offset="0" style="stop-color:#DFDFDF"/>
			<stop  offset="0.0625" style="stop-color:#CACACA"/>
			<stop  offset="0.1516" style="stop-color:#666666"/>
			<stop  offset="0.4757" style="stop-color:#E6E6E6"/>
			<stop  offset="0.5498" style="stop-color:#E6E6E6"/>
			<stop  offset="0.7169" style="stop-color:#999999"/>
			<stop  offset="1" style="stop-color:#535353"/>
		</linearGradient>
		<path fill="url(#SVGID_8_)" stroke="#000000" stroke-width="0.5698" d="M434.227,568.721
			c-11.128,18.804-16.947,29.765-21.659,53.801c-5.021,25.599-6.494,48.515,1.387,65.819
			c22.098,68.238,116.272,32.169,182.55-12.791c35.249-28.397,64.591-67.815,64.591-93.117c-2.884-14.144-8.83-2.994-8.886,0
			c0,23.428-30.78,59.983-65.14,87.664c-41.891,30.931-135.931,73.462-164.497,16.983c-7.326-16.083-6.088-38.55-1.11-63.925
			c4.659-23.762,3.839-22.014,14.716-40.992"/>
		<g>
			<path fill="#483737" d="M436.585,458.711l0.793,104.372c-2.325,30.285,5.674,28.504,6.342,30.33
				c5.372-17.433,10.89-40.209,23.783-37.468c28.115,7.464,19.351,59.769,30.123,89.207c15.839,29.697,32.893,14.736,40.429-10.705
				c6.257-18.076,13.717-33.818,19.026-51.739c10.598-15.473,28.884-3.588,31.89,6.244c4.879,23.214,1.464,45.654,21.22,38.357
				c12.783,0.526,28.703-30.332,31.743-50.846c4.392-20.026,8.271-31.961,25.055-34.896c23.312,6.399,10.42,49.467,13.146,78.606
				c1.416,12.604-4.55,28.647,2.675,29.911c11.502-1.591,5.509-8.362,12.206-28.125c3.492-45.141,6.66-102.509,6.341-151.652
				c-67.821,39.267-212.045,43.294-264.768-11.597L436.585,458.711z"/>
		</g>
		<g>
			<path fill="#E6D3A9" d="M628.475,593.505c-9.091,22.352-18.525,23.493-28.408,20.926c4.082,7.084,6.837,5.672,13.28,5.672
				c7.888-2.723,10.633-6.043,13.445-13.595c5.041-9.873,4.439-25.628,7.077-33.63c-3.531,2.798-3.474,16.557-5.397,20.623
				L628.475,593.505z"/>
		</g>
		<g>
			<path fill="#78C100" d="M697.171,744.22c-3.861,0.328-8.131,1.579-10.611,3.043c-2.48,1.464-3.269,3.207-3.093,5.349l0.912,1.626
				c-0.314-3.509,1.186-4.725,3.478-6.076c2.294-1.353,5.671-2.508,9.39-2.823c3.722-0.317,6.094,0.528,8.676,1.14
				c3.437,0.818,5.058,4.854,4.609,5.848l0.53-2.074c-0.175-2.14-2.073-3.788-4.759-4.812
				C703.617,744.416,701.032,743.892,697.171,744.22L697.171,744.22z"/>
		</g>
		<g>
			<path fill="#64A4A2" d="M730.06,753.68c-4.007,3.472-6.094,6.97-11.991,8.275h-0.037l-0.037,0.037l-41.796,16.744h-0.038
				c-12.216,4.113-26.683,7.79-41.456,4.348h-0.112l-76.961-8.037c-12.308-1.245-21.23-0.091-27.154,3.544
				c-5.898,3.622-9.125,10.848-12.467,20.195c-1.68,3.33-3.165,6.738-5.345,8.625c-2.44,2.014-5.719,3.188-11.154,3.002
				l-0.038,1.232c5.629,0.195,9.31-1.059,11.991-3.271c2.681-2.212,4.35-5.297,6.242-8.699v-0.037l0.039-0.037
				c3.319-9.317,6.85-15.818,12.423-19.24c5.573-3.42,13.331-3.855,25.531-2.622l76.821,6.582
				c15.096,3.48,29.807-0.296,42.063-4.427h0.038l41.72-16.741c0.043-0.011,0.071-0.03,0.114-0.037
				c6.184-1.413,8.583-5.152,12.41-8.467l-0.799-0.964L730.06,753.68z"/>
		</g>
		<path opacity="0.854" fill="#4D4D4D" enable-background="new    " d="M500.04,810.755l-0.201,5.921l-47.656,2.449L449.86,813
			L500.04,810.755z"/>
		
			<linearGradient id="SVGID_9_" gradientUnits="userSpaceOnUse" x1="1635.0029" y1="-53.6451" x2="1662.1809" y2="29.9954" gradientTransform="matrix(1.0484 0 0 1.0599 -1219.4912 558.9695)">
			<stop  offset="0" style="stop-color:#000000"/>
			<stop  offset="1" style="stop-color:#000000;stop-opacity:0"/>
		</linearGradient>
		
			<linearGradient id="SVGID_10_" gradientUnits="userSpaceOnUse" x1="1635.1616" y1="-44.1635" x2="1663.5249" y2="43.145" gradientTransform="matrix(1.0042 0 0 1.0154 -1147.502 546.9235)">
			<stop  offset="0" style="stop-color:#000000"/>
			<stop  offset="1" style="stop-color:#000000;stop-opacity:0"/>
		</linearGradient>
		<path fill="url(#SVGID_9_)" stroke="url(#SVGID_10_)" stroke-width="0.5698" d="M434.227,568.721
			c-11.128,18.804-16.947,29.765-21.659,53.801c-5.021,25.599-6.494,48.515,1.387,65.819
			c22.098,68.238,116.272,32.169,182.55-12.791c35.249-28.397,64.591-67.815,64.591-93.117c-2.884-14.144-8.83-2.994-8.886,0
			c0,23.428-30.78,59.983-65.14,87.664c-41.891,30.931-135.931,73.462-164.497,16.983c-7.326-16.083-6.088-38.55-1.11-63.925
			c4.659-23.762,3.839-22.014,14.716-40.992"/>
		
			<linearGradient id="SVGID_11_" gradientUnits="userSpaceOnUse" x1="1567.2747" y1="565.8572" x2="1734.4028" y2="565.8572" gradientTransform="matrix(1.1133 0 0 1.1208 -1309.675 -190.8517)">
			<stop  offset="0" style="stop-color:#DFDFDF"/>
			<stop  offset="0.0625" style="stop-color:#CACACA"/>
			<stop  offset="0.1516" style="stop-color:#666666"/>
			<stop  offset="0.4757" style="stop-color:#E6E6E6"/>
			<stop  offset="0.5498" style="stop-color:#E6E6E6"/>
			<stop  offset="0.7169" style="stop-color:#999999"/>
			<stop  offset="1" style="stop-color:#535353"/>
		</linearGradient>
		<path fill="url(#SVGID_11_)" d="M714.252,471.569c-1.888,4.08-276.824,10.307-276.004,0
			c-19.992-34.264,40.862-61.264,138.002-62.041C663.704,408.829,732.574,421.585,714.252,471.569z"/>
		<path opacity="0.6681" fill="#550000" enable-background="new    " d="M706.596,471.569c-1.836,4.08-269.275,10.307-268.477,0
			c-19.446-34.264,22.754-63.068,134.24-62.041C672.106,410.447,724.421,421.585,706.596,471.569z"/>
		<path fill="#F44D8D" d="M445.884,470.189c0,0,20.046-30.329,130.367-32.029c101.251-1.559,131.241,32.931,131.241,32.931
			C616.655,502.369,529.308,503.285,445.884,470.189L445.884,470.189z"/>
		<path fill="#4D4D4D" d="M571.776,407.038c-80.735,0-148.064,22.002-148.064,49.135c0,27.133,67.332,49.135,148.064,49.135
			s146.585-22.786,146.585-49.919c0-27.132-65.856-48.352-146.585-48.352V407.038z M572.864,414.913
			c76.233,0,138.043,17.713,138.043,39.574c0,21.861-61.81,39.574-138.043,39.574c-76.231,0-138.001-17.713-138.001-39.574
			C434.863,432.626,496.635,414.913,572.864,414.913z"/>
		<path fill="#F44D8D" stroke="#866142" stroke-width="0.9497" d="M427.67,458.359l0.857,101.426
			c-2.515,29.43,8.681,39.271,9.403,41.045c8.353-0.227,3.574-52.791,23.18-47.979c19.086,2.959,23.055,62.373,34.705,90.981
			c17.132,28.862,33.454,10.027,41.607-14.695c6.767-17.566,9.175-34.294,14.916-51.711c11.466-15.037,27.277-2.056,30.529,7.499
			c5.278,22.561,11.211,44.366,32.583,37.276c16.573-5.737,17.292-29.477,20.577-49.413c4.749-19.46,14.648-39.28,25.723-36.409
			c33.192,10.951,16.996,97.386,30.868,97.958c17.807-14.901,21.617-122.452,21.436-164.713
			c-73.357,38.158-229.352,42.071-286.389-11.269L427.67,458.359z"/>
		
			<linearGradient id="SVGID_12_" gradientUnits="userSpaceOnUse" x1="1571.012" y1="267.8821" x2="1757.2667" y2="271.062" gradientTransform="matrix(1.0303 0 0 1.0599 -1195.7954 166.4795)">
			<stop  offset="0" style="stop-color:#DFDFDF"/>
			<stop  offset="0.0625" style="stop-color:#CACACA"/>
			<stop  offset="0.1516" style="stop-color:#666666"/>
			<stop  offset="0.4757" style="stop-color:#E6E6E6"/>
			<stop  offset="0.5498" style="stop-color:#E6E6E6"/>
			<stop  offset="0.7169" style="stop-color:#999999"/>
			<stop  offset="1" style="stop-color:#535353"/>
		</linearGradient>
		<path fill="url(#SVGID_12_)" d="M572.811,403.911c-81.089,0-148.721,22.002-148.721,49.135c0,27.132,67.627,49.135,148.721,49.135
			c81.087,0,147.231-22.786,147.231-49.919c0-27.132-66.144-48.352-147.231-48.352V403.911z M573.905,411.786
			c76.566,0,138.647,17.712,138.647,39.574c0,21.861-62.08,39.574-138.647,39.574c-76.567,0-138.605-17.713-138.605-39.574
			C435.298,429.497,497.341,411.786,573.905,411.786z"/>
		<g>
			<path fill="#EDA3C1" d="M532.284,623.919c-9.092,22.35-20.296,23.851-30.178,21.285c4.083,7.084,8.606,5.315,15.05,5.315
				c7.889-2.725,9.572-7.117,12.386-14.668c5.041-9.872,10.101-21.691,12.74-29.694
				C538.749,608.955,534.204,619.854,532.284,623.919L532.284,623.919z"/>
		</g>
		<path fill="none" stroke="#4D4D4D" stroke-width="0.9434" d="M575.313,407.685c-81.4,0-144.678,17.275-144.678,44.411
			c0,27.135,59.581,44.41,140.979,44.41c81.397,0,144.104-17.113,144.104-44.248s-59.012-44.572-140.416-44.572L575.313,407.685z
			 M574.564,411.776c76.859,0,139.176,17.714,139.176,39.577c0,21.863-62.321,39.577-139.176,39.577
			c-76.86,0-139.145-17.714-139.145-39.577C435.42,429.49,497.702,411.776,574.564,411.776z"/>
		
			<linearGradient id="SVGID_13_" gradientUnits="userSpaceOnUse" x1="1710.0354" y1="-96.7849" x2="1710.46" y2="-78.0982" gradientTransform="matrix(1.0042 0 0 1.0154 -1147.502 546.9235)">
			<stop  offset="0" style="stop-color:#F44D8D"/>
			<stop  offset="1" style="stop-color:#F44D8D;stop-opacity:0"/>
		</linearGradient>
		<path fill="url(#SVGID_13_)" d="M443.307,465.832c0,0,20.046-18.797,130.367-19.85c101.249-0.966,123.497,24.98,123.497,24.98
			c-86.958,26.568-170.428,15.381-253.852-5.13H443.307z"/>
		<g opacity="0.385" enable-background="new    ">
			<path fill="#333333" d="M439.563,577.84c0.28,18.803,1.112,29.766,10.98,53.799c10.51,25.598,17.083,44.873,35.461,62.175
				c63.495,68.239,88.483,26.704,127.477-18.258c18.02-28.397,62.429-64.123,47.079-89.424c-11.467-14.144-10.647-2.994-8.887,0
				c14.213,23.427-33.37,56.29-50.935,83.971c-23.124,30.93-44.053,78.927-106.889,22.447
				c-17.081-16.083-23.618-34.904-34.035-60.28c-9.756-23.765-9.515-22.016-10.151-40.993"/>
			<path fill="none" stroke="#000000" stroke-width="0.5017" d="M439.563,577.84c0.28,18.803,1.112,29.766,10.98,53.799
				c10.51,25.598,17.083,44.873,35.461,62.175c63.495,68.239,88.483,26.704,127.477-18.258
				c18.02-28.397,62.429-64.123,47.079-89.424c-11.467-14.144-10.647-2.994-8.887,0c14.213,23.427-33.37,56.29-50.935,83.971
				c-23.124,30.93-44.053,78.927-106.889,22.447c-17.081-16.083-23.618-34.904-34.035-60.28
				c-9.756-23.765-9.515-22.016-10.151-40.993"/>
		</g>
		<g>
			<path fill="#EDA3C1" d="M591.035,595.422c-0.27,8.506,6.772,21.342,13.612,23.05c4.541,1.137,10.218,0.472,13.272-2.687
				C599.685,617.289,595.721,605.05,591.035,595.422L591.035,595.422z"/>
		</g>
		
			<linearGradient id="SVGID_14_" gradientUnits="userSpaceOnUse" x1="1663.2605" y1="-86.5894" x2="1664.542" y2="-105.4578" gradientTransform="matrix(0.8891 0 0 0.8891 -1004.7233 889.4781)">
			<stop  offset="0" style="stop-color:#333333"/>
			<stop  offset="1" style="stop-color:#333333;stop-opacity:0"/>
		</linearGradient>
		<path fill="url(#SVGID_14_)" d="M464.282,812.157l35.218-0.578l1.732-25.403l-50.807,1.155v24.828h13.857V812.157z"/>
		<path fill="#B76B37" d="M452.527,784.873c-10.585,0.06-21.155,0.121-31.712,0.184c-12.901-2.645-25.782-5.289-38.641-7.929l0,0
			c-6.692-1.672-13.382-3.343-20.069-5.014l20.179,4.496l0,0c12.908,2.311,25.795,4.621,38.661,6.927
			c10.526-0.334,21.038-0.667,31.536-1.005L452.527,784.873z"/>
		<path fill="#B76B37" d="M452.235,780.118c-10.593,0.362-21.171,0.721-31.733,1.084l0,0c-9.92-2.009-19.827-4.016-29.722-6.023l0,0
			l-31.235-5.44l31.374,4.659c9.911,1.758,19.808,3.514,29.692,5.268l0,0c10.521-0.629,21.025-1.256,31.515-1.887L452.235,780.118z"
			/>
		<path fill="#B76B37" d="M452.527,784.873c-10.585,0.06-21.155,0.121-31.712,0.184c-12.901-2.645-25.782-5.289-38.641-7.929l0,0
			c-6.692-1.672-13.382-3.343-20.069-5.014l20.179,4.496l0,0c12.908,2.311,25.795,4.621,38.661,6.927
			c10.526-0.334,21.038-0.667,31.536-1.005L452.527,784.873z"/>
		<path fill="#B76B37" d="M451.88,776.56c-10.584,0.06-21.155,0.121-31.711,0.184l0,0c-12.902-2.645-25.783-5.289-38.642-7.929l0,0
			c-6.691-1.673-13.382-3.343-20.069-5.015l20.181,4.497c12.908,2.312,25.795,4.622,38.661,6.928
			c10.527-0.334,21.038-0.669,31.536-1.006L451.88,776.56z"/>
		<path fill="#B76B37" d="M451.6,771.803c-10.593,0.361-21.172,0.722-31.734,1.085l0,0c-9.92-2.009-19.827-4.016-29.721-6.024l0,0
			l-31.235-5.441l31.374,4.661c9.911,1.756,19.808,3.511,29.692,5.267c10.52-0.627,21.025-1.256,31.515-1.887L451.6,771.803z"/>
		<path fill="#B76B37" d="M453.486,771.503c-10.584,0.059-21.155,0.119-31.711,0.184c-12.902-2.646-25.782-5.289-38.642-7.93l0,0
			c-6.691-1.673-13.382-3.342-20.069-5.012l20.18,4.496c12.908,2.311,25.795,4.622,38.661,6.928
			c10.527-0.334,21.039-0.668,31.536-1.006L453.486,771.503z"/>
		<path fill="#B76B37" d="M453.12,766.746c-10.451-0.332-20.897-0.661-31.336-0.99c-10.018-1.316-20.028-2.633-30.028-3.946l0,0
			c-10.42-1.816-20.836-3.629-31.25-5.444l31.359,4.657c10.018,1.061,20.026,2.122,30.025,3.185l0,0
			c10.431,0.067,20.856,0.132,31.273,0.199L453.12,766.746z"/>
		<path fill="#B76B37" d="M453.056,766.746c-10.107-0.821-20.213-1.643-30.32-2.461l0,0c-10.332-0.824-20.658-1.648-30.977-2.472
			c-10.426-1.816-20.845-3.632-31.259-5.446c10.456,1.551,20.906,3.104,31.35,4.655c10.337,0.564,20.669,1.126,30.993,1.687
			c10.124,0.567,20.249,1.133,30.373,1.699L453.056,766.746z"/>
		<path fill="#B76B37" d="M453.756,757.515c-10.498-0.335-21.01-0.671-31.536-1.005c-12.866,2.306-25.753,4.615-38.66,6.927
			l-20.181,4.497c6.688-1.669,13.378-3.342,20.069-5.011c12.86-2.641,25.74-5.285,38.642-7.931l0,0
			c10.556,0.062,21.127,0.125,31.711,0.184L453.756,757.515z"/>
		<path fill="#B76B37" d="M453.4,762.271c-10.489-0.632-20.994-1.263-31.515-1.893c-9.92,1.755-19.835,3.509-29.747,5.264
			c-10.139-1.312-20.259-2.629-30.361-3.945c10.131,1.06,20.241,2.12,30.333,3.182c9.894-2.008,19.783-4.016,29.668-6.026l0,0
			c10.562,0.361,21.14,0.72,31.732,1.079L453.4,762.271z"/>
		<path fill="#B76B37" d="M453.756,757.515c-10.498-0.335-21.01-0.671-31.536-1.005c-12.866,2.306-25.753,4.615-38.66,6.927
			l-20.181,4.497c6.688-1.669,13.378-3.342,20.069-5.011c12.86-2.641,25.74-5.285,38.642-7.931l0,0
			c10.556,0.062,21.127,0.125,31.711,0.184L453.756,757.515z"/>
		<path fill="#B76B37" d="M453.4,762.271c-10.518-0.63-21.042-1.259-31.571-1.889c-9.467,0.276-18.939,0.553-28.415,0.829
			c-10.654,0.061-21.306,0.124-31.956,0.186c10.646-0.333,21.29-0.666,31.932-1c9.477-0.518,18.96-1.035,28.443-1.549l0,0
			c10.554,0.359,21.112,0.721,31.677,1.084L453.4,762.271z"/>
		<path fill="#B76B37" d="M454.489,750.375c-14.683,0.703-29.379,1.405-44.082,2.108c-7.888,1.264-15.875,1.339-23.818,1.193l0,0
			c-7.888-0.143-15.812,0.347-23.529,2.069c7.67-1.918,15.611-2.616,23.532-2.675c7.945-0.06,15.908-0.339,23.675-1.792
			c14.683-1.08,29.378-2.158,44.081-3.241L454.489,750.375z"/>
		<path fill="#B76B37" d="M454.392,750.387c-10.501-0.339-21.016-0.677-31.543-1.013c-9.634,1.541-19.388,1.358-29.074,1.265l0,0
			c-9.654-0.088-19.372,0.043-28.801,2.14c9.371-2.342,19.135-2.735,28.798-2.896c9.714-0.166,19.478-0.239,28.961-2.013
			c10.555,0.059,21.122,0.118,31.703,0.174L454.392,750.387z"/>
	</g>
</g>
</svg>
