<svg version="1.1" id="Layer_1" xmlns="http://www.w3.org/2000/svg" xmlns:xlink="http://www.w3.org/1999/xlink" viewBox="0 0 768 430" enable-background="new 0 0 768 430" xml:space="preserve">
<g>
	<polygon fill="#FAC19F" points="179.099,212.283 174.534,214.217 174.193,211.758 178.602,209.814 	"/>
	<path fill="#FAC19F" d="M175.813,213.829c0.318,0.854,1.062,3.563-0.349,5.329c-1.409,1.765-3.779,2.684-5.302,1.392
		c0,0-1.153,0.387-1.851,0.006c-0.694-0.378-3.266-4.623-1.321-7.496C168.937,210.188,173.608,207.902,175.813,213.829z"/>
	<path fill="#D68897" d="M211.918,211.987c0,0-7.311-3.352-17.61-2.689c-2.721,0.176-3.699,3.592-8.736,1.935l-1.938-4.391
		c0,0,0.503-3.749,10.311-5.394c6.101-1.022,10.757,0.38,17.335,1.2L211.918,211.987z"/>
	<polygon fill="#F07B9A" points="185.572,211.232 177.808,213.774 176.297,209.994 184.563,206.443 	"/>
	<polygon fill="#FAC19F" points="204.617,250.521 181.242,268.08 161.054,261 162.588,258.869 179.883,261.359 195.451,240.803 	"/>
	<polygon fill="#FAC19F" points="219.748,198.054 217.482,204.892 211.924,202.833 214.204,196.928 	"/>
	<path fill="#F07B9A" d="M156.315,251.78c0,0,3.839-0.041,5.047,3.721l-3.177,7.123c-0.86,1.439-0.097,7.746-5.282,11.81
		c-5.147,4.032-8.248,0.792-8.248,0.792L156.315,251.78z"/>
	<path fill="#E6E7E7" d="M157.925,262.81c0,0,1.093-0.93,1.557-1.429c0.466-0.502,1.953-0.175,1.953-0.175l1.771-2.229
		c0,0-1.335-0.898-1.418-1.343c-0.08-0.441-0.002-1.563-0.426-2.134C161.362,255.501,156.808,258.889,157.925,262.81z"/>
	<path fill="#FFFFFF" d="M153.291,270.701c0,0,1.399,1.707,3.13,1.22c0,0-0.055-2.005-1.078-3.087c0,0,1.294,0.905,2.026,0.595
		c0,0-1.287-1.624-2.753-1.308c0,0-0.013,2.113,0.896,2.958C155.511,271.079,154.319,270.663,153.291,270.701z"/>
	<polygon fill="#FAC19F" points="183.372,224.535 179.984,228.155 178.674,226.046 181.916,222.481 	"/>
	<path fill="#FAC19F" d="M180.995,227.279c0.637,0.653,2.417,2.829,1.842,5.015c-0.572,2.184-2.366,3.986-4.282,3.422
		c0,0-0.899,0.819-1.688,0.756c-0.79-0.064-4.861-2.9-4.248-6.316C173.233,226.74,176.577,222.758,180.995,227.279z"/>
	<path fill="#F399AA" d="M213.252,210.958c0,0-8.042-0.099-17.188,4.683c-2.415,1.263-1.925,4.782-7.201,5.311l-3.553-3.229
		c0,0-1.059-3.632,7.238-9.109c5.162-3.409,9.988-4.015,16.333-5.933L213.252,210.958z"/>
	<path fill="#FAC19F" d="M206.037,245.855l-3.256,11.737l22.955,33.366l-2.255,0.996c0,0-35.156-32.321-36.577-36.88
		c-1.894-6.084,3.725-14.272,3.725-14.272L206.037,245.855z"/>
	<path fill="#F6D08F" d="M206.038,252.845c0,0,8.687,17.039,13.71,21.993c0,0-8.875-1.571-14.556,2.418
		c-5.68,3.988-30.549,4.833-32.254-19.699c0,0,2.646-2.846,5.062,1.598c0,0,4.23-8.85,11.24-10.058L206.038,252.845z"/>
	<path fill="#F399AA" d="M206.961,254.563l0.482-4.157c0,0,1.875-0.193,2.002-0.753c2.771-12.344,9.042-41.911,9.042-44.464
		c0-1.77-6.86-5.656-9.576-3.004c-2.189,2.138-18.876,21.982-24.983,35.611c-0.739,1.65,2.588,6.866,2.588,6.866l-1.479,3.035
		C189.062,253.111,206.961,254.563,206.961,254.563z"/>
	<path fill="#F399AA" d="M218.487,205.189c0,0-5.235-3.656-12.362-1.722c0,0-3.556-4.405,3.771-7.409
		C209.896,196.059,216.205,196.395,218.487,205.189z"/>
	<path fill="#FAC19F" d="M184.625,166.591c-2.375,19.587,14.728,29.935,31.35,31.929c42.283,5.074,55.201-8.831,57.808-28.25
		c-2.67,0.269-3.896-0.604-4.329-2.183c-2.448-8.903-2.58-18.728-7.611-29.351c-7.45-15.73-23.562-18.14-42.359-12.046
		C194.71,134.722,187.747,140.808,184.625,166.591z"/>
	<path fill="#020000" d="M256.547,165.604c0.196,3.446,1.502,6.118,2.919,5.975c1.416-0.141,2.403-3.05,2.208-6.494
		c-0.198-3.443-1.506-6.119-2.922-5.975C257.335,159.253,256.352,162.161,256.547,165.604z"/>
	<polygon fill="#FAC19F" points="255.668,164.018 259.809,164.918 256.037,167.548 	"/>
	<path fill="#C2986E" d="M263.144,149.188c0,0-1.464-3.046-5.128-2.414c-2.038,0.35-3.615,2.391-4.652,4.853
		C253.363,151.627,258.088,146.104,263.144,149.188z"/>
	<path fill="#F38E86" d="M252.468,172.443c-0.039,0.687-1.671,1.125-3.648,0.98c-1.979-0.143-3.553-0.815-3.517-1.502
		c0.038-0.687,1.672-1.126,3.65-0.983C250.93,171.087,252.504,171.756,252.468,172.443z"/>
	<path fill="#C2986E" d="M219.905,152.434l-7.843,23.938l-10.098,18.32c0,0-21.769-7.839-21.769-27.375
		C180.195,167.317,210.887,152.253,219.905,152.434z"/>
	<path fill="#C2986E" d="M266.926,143.683c0,0-13.563-0.729-26.304-9.969c1.032,3.443,5.838,6.978,5.838,6.978
		s-9.612-0.848-12.581-6.927c0.989,22.619-36.454,49.526-50.716,45.523c0,0-16.853-19.286-8.317-37.562
		c13.025-27.888,33.309-23.06,33.309-23.06s6.595-11.104,26.333-7.724C263.626,115.93,266.926,143.683,266.926,143.683z"/>
	<path fill="#FAC19F" d="M214.344,168.122c0,0-3.808-5.159-9.703-2.412c-4.738,2.208-2.936,11.091,3.435,12.477
		c2.347,0.512,6.269-1.711,6.269-1.711V168.122z"/>
	<path fill="#CE9277" d="M214.344,169.862c0,0-2.728-2.565-6.949-1.2c-3.393,1.099-2.102,5.517,2.459,6.208
		c1.682,0.253,4.489-0.854,4.489-0.854V169.862z"/>
	<path fill="#C2986E" d="M176.576,134.746c-2.065-4.027-8.021-8.901-17.134-1.899c-7.638,5.869,3.136,26.937-4.607,30.181
		c-2.96,1.24-6.501-4.644-6.501-4.644s-1.473,15.973,13.376,8.75C176.561,159.91,180.787,142.952,176.576,134.746z"/>
	<polygon fill="#F07B9A" points="188.864,220.951 182.796,226.424 179.883,223.579 185.999,216.98 	"/>
	<path fill="#EB1A29" d="M260.478,187.181c0.111,0,0.223-0.003,0.338-0.009c3.258-0.167,7.124-3.216,7.287-3.346
		c0.267-0.213,0.312-0.603,0.098-0.871c-0.213-0.267-0.602-0.312-0.871-0.099c-0.036,0.029-3.718,2.932-6.577,3.078
		c-1.178,0.059-2.011-0.248-2.563-0.94c-1.607-2.014-0.362-6.516-0.35-6.561c0.093-0.33-0.098-0.672-0.428-0.765
		c-0.328-0.092-0.671,0.098-0.764,0.428c-0.06,0.209-1.431,5.157,0.571,7.668C257.969,186.705,259.064,187.181,260.478,187.181z"/>
	<path fill="#F07B9A" d="M224.695,301.006c0,0-3.303-1.956-2.385-5.799l6.41-4.441c1.482-0.785,4.1-6.573,10.642-7.356
		c6.492-0.779,7.462,3.6,7.462,3.6L224.695,301.006z"/>
	<path fill="#E6E7E7" d="M229.039,290.741c0,0-1.417,0.228-2.072,0.415c-0.659,0.187-2.008-1.325-2.008-1.325l-2.423,1.447
		c0,0,0.676,1.461,0.517,1.882c-0.162,0.42-0.809,1.339-0.742,2.047C222.31,295.207,227.962,294.673,229.039,290.741z"/>
	<path fill="#FFFFFF" d="M237.095,286.397c0,0-0.311-2.184-2.044-2.666c0,0-0.993,1.742-0.679,3.199c0,0-0.637-1.446-1.424-1.56
		c0,0,0.258,2.056,1.676,2.544c0,0,1.107-1.798,0.769-2.991C235.393,284.924,236.196,285.897,237.095,286.397z"/>
	<path fill="#AD6E7C" d="M200.813,239.789c0.013,0,0.026,0,0.039-0.002c7.66-0.481,9.45-10.243,9.467-10.341
		c0.059-0.338-0.167-0.658-0.503-0.717c-0.34-0.062-0.658,0.166-0.717,0.503c-0.016,0.089-1.643,8.897-8.324,9.318
		c-0.342,0.021-0.601,0.315-0.58,0.656C200.216,239.537,200.489,239.789,200.813,239.789z"/>
</g>
<g>
	<polygon fill="#FAC19F" points="448.646,272.361 440.914,273.336 442.391,276.948 450.245,276.362 	"/>
	<path fill="#FAC19F" d="M442.765,272.913c-0.52-1.335-2.47-5.302-5.972-5.906c-3.498-0.605-7.245,0.786-7.688,3.895
		c0,0-1.758,0.753-2.183,1.923c-0.423,1.17,0.979,8.846,6.265,10.195C438.475,284.369,446.352,282.183,442.765,272.913z"/>
	<path fill="#D0D2D3" d="M492.341,243.173c0,0-6.326,10.979-20.197,19.401c-6.896,4.187-18.248,6.61-25.605,9.069l2.386,6.243
		c0,0,15.795-0.258,29.214-6.543c8.093-3.79,14.127-10.175,21.839-17.187L492.341,243.173z"/>
	<g>
		<path fill="#FFFFFF" d="M586.325,319.674c0,0-6.032-0.065-7.935,5.85l4.996,11.197c1.352,2.264,0.15,12.18,8.304,18.568
			c8.091,6.34,12.966,1.244,12.966,1.244L586.325,319.674z"/>
		<path fill="#A6A8AB" d="M599.487,359.398L599.487,359.398c-2.692,0-5.509-1.138-8.37-3.378
			c-6.222-4.876-7.256-11.732-7.873-15.831c-0.195-1.303-0.381-2.533-0.656-2.994c-0.019-0.03-0.036-0.063-0.051-0.098
			l-4.995-11.196c-0.093-0.209-0.105-0.444-0.036-0.662c2.064-6.422,8.537-6.494,8.811-6.494c0.352,0,0.684,0.199,0.84,0.516
			l18.331,36.859c0.175,0.35,0.11,0.772-0.159,1.056C605.24,357.267,603.158,359.398,599.487,359.398z M584.214,336.296
			c0.44,0.776,0.62,1.974,0.869,3.618c0.613,4.071,1.54,10.224,7.181,14.644c2.526,1.979,4.955,2.983,7.224,2.983l0,0
			c1.969,0,3.333-0.757,4.012-1.249l-17.732-35.654c-1.375,0.146-4.938,0.907-6.38,4.841L584.214,336.296z"/>
	</g>
	<path fill="#E6E7E7" d="M584.434,337.015c0,0-2.357-1.463-3.085-2.248c-0.733-0.79-3.071-0.274-3.071-0.274l-2.785-3.504
		c0,0,2.101-1.411,2.228-2.109c0.127-0.695,0.924-2.751,1.59-3.649C579.31,325.229,584.72,329.036,584.434,337.015z"/>
	<path fill="#020000" d="M590.751,345.11c0,0-3.11,3.718-7.18,2.477c0,0-0.038-4.502,2.25-6.848c0,0-2.936,1.927-4.661,1.165
		c0,0,2.854-3.542,6.292-2.705c0,0,0.211,4.748-1.834,6.571C585.618,345.771,588.355,344.936,590.751,345.11z"/>
	<g>
		<path fill="#FFFFFF" d="M477.376,396.447c0,0,5.12-3.197,3.542-9.201l-10.241-6.75c-2.358-1.179-6.682-10.182-16.993-11.177
			c-10.233-0.986-11.6,5.932-11.6,5.932L477.376,396.447z"/>
		<path fill="#A6A8AB" d="M477.376,397.376c-0.165,0-0.332-0.045-0.479-0.133l-35.292-21.195c-0.335-0.201-0.508-0.594-0.434-0.977
			c0.015-0.068,1.442-6.776,10.584-6.776c0.646,0,1.324,0.032,2.018,0.1c7.865,0.759,12.429,5.98,15.153,9.101
			c0.868,0.993,1.686,1.931,2.167,2.171c0.032,0.016,0.065,0.034,0.096,0.054l10.241,6.75c0.19,0.127,0.328,0.319,0.386,0.54
			c1.733,6.589-3.892,10.188-3.948,10.225C477.717,397.329,477.547,397.376,477.376,397.376z M443.188,374.832l34.141,20.503
			c1.085-0.864,3.678-3.413,2.772-7.516l-9.895-6.521c-0.789-0.418-1.588-1.33-2.68-2.582c-2.709-3.1-6.802-7.786-13.933-8.474
			c-0.636-0.06-1.254-0.091-1.84-0.091C445.694,370.152,443.742,373.447,443.188,374.832z"/>
	</g>
	<path fill="#E6E7E7" d="M469.173,380.515c0,0,3.237,0.263,4.276,0.535c1.04,0.269,2.732-1.424,2.732-1.424l4.237,1.453
		c0,0-1.013,2.322-0.744,2.979c0.269,0.652,0.455,2.805,0.377,3.922C480.052,387.98,471.679,386.649,469.173,380.515z"/>
	<polygon fill="#156096" points="516.012,328.702 546.156,350.651 579.31,335.317 576.258,327.663 549.273,334.733 524.797,302.415 
			"/>
	<path fill="#1B78B9" d="M508.153,310.357l0.562,17.911l-34.162,52.555l7.336,4.632c0,0,54.114-53.434,56.346-60.601
		c2.979-9.565-5.854-22.439-5.854-22.439L508.153,310.357z"/>
	<path fill="#020000" d="M459.702,376.107c0,0,0.515-4.513,3.94-5.583c0,0,2.047,3.542,1.484,6.548c0,0,1.206-3.006,2.76-3.276
		c0,0-0.414,4.242-3.212,5.318c0,0-2.278-3.649-1.658-6.118C463.017,372.996,461.467,375.033,459.702,376.107z"/>
	<g>
		<defs>
			<path id="SVGID_1_" d="M506.7,324.146l-0.757-6.537c0,0-2.946-0.303-3.146-1.182c-4.356-19.406-16.199-68.63-16.199-72.643
				c0,0,14.724-7.881,18.993-3.712c3.441,3.361,27.723,36.285,37.322,57.712c1.163,2.595-4.068,10.796-4.068,10.796l2.326,4.771
				C534.844,321.864,506.7,324.146,506.7,324.146z"/>
		</defs>
		<clipPath id="SVGID_2_">
			<use xlink:href="#SVGID_1_"  overflow="visible"/>
		</clipPath>
		<polygon clip-path="url(#SVGID_2_)" fill="#FFFFFF" points="484.006,243.173 504.069,236.009 546.454,297.974 543.083,315.359 
			506.127,326.532 498.844,312.447 		"/>
		<path clip-path="url(#SVGID_2_)" fill="#F9EA43" d="M498.048,301.432l-1.444-6.339c0.25-0.059,25.203-5.813,38.957-14.599
			l3.502,5.479C524.349,295.372,499.114,301.188,498.048,301.432z"/>
		<path clip-path="url(#SVGID_2_)" fill="#F9EA43" d="M501.662,315.023l-1.457-6.338c0.281-0.063,28.187-6.559,43.585-16.483
			l3.524,5.465C530.951,308.214,502.851,314.752,501.662,315.023z"/>
		<path clip-path="url(#SVGID_2_)" fill="#F9EA43" d="M492.689,289.95l-1.457-6.338c0.264-0.06,26.512-6.172,40.987-15.509
			l3.525,5.465C520.307,283.527,493.811,289.692,492.689,289.95z"/>
	</g>
	<path fill="#D0D2D3" d="M506.29,324.548l-0.766-6.617c-1.103-0.146-2.961-0.532-3.181-1.499c-1.275-5.683-3.215-14.018-5.269-22.84
		c-5.128-22.038-10.941-47.015-10.941-49.903v-0.279l0.245-0.131c0.379-0.203,9.381-4.985,15.392-4.985
		c1.835,0,3.228,0.456,4.146,1.351c3.283,3.205,27.687,36.126,37.421,57.854c1.157,2.582-3.007,9.489-3.961,11.014l2.337,4.796
		l-0.169,0.227c-6.381,8.578-33.647,10.883-34.808,10.978L506.29,324.548z M487.076,243.963c0.312,3.904,6.17,29.081,10.904,49.419
		c2.054,8.823,3.993,17.16,5.271,22.847c0.104,0.285,1.436,0.688,2.74,0.822l0.37,0.038l0.747,6.455
		c3.58-0.335,27.518-2.851,33.52-10.344l-2.313-4.748l0.14-0.22c1.417-2.223,4.904-8.413,4.035-10.354
		c-9.694-21.637-33.96-54.384-37.223-57.57c-0.736-0.719-1.914-1.085-3.496-1.085C496.538,239.223,488.602,243.177,487.076,243.963z
		"/>
	<polygon fill="#FAC19F" points="486.599,235.205 489.113,243.688 497.325,240.518 495.313,233.437 	"/>
	<polygon fill="#829CA8" points="489.113,243.688 488.113,249.354 486.045,243.758 488.195,240.752 	"/>
	<polygon fill="#829CA8" points="496.805,237.588 489.113,243.688 495.159,249.508 499.668,238.562 	"/>
	<polygon fill="#FAC19F" points="559.566,257.342 565.565,262.317 567.194,258.77 560.626,254.605 	"/>
	<path fill="#FAC19F" d="M564.838,259.56c-0.623,1.293-2.182,5.427-0.229,8.396c1.948,2.967,5.526,4.754,8.098,2.946
		c0,0,1.75,0.77,2.894,0.281c1.146-0.493,5.788-6.76,3.159-11.541C576.131,254.859,569.152,250.605,564.838,259.56z"/>
	<g>
		<path fill="#FFFFFF" d="M504.761,239.4c8.027-0.448,24.887-0.495,33.137,0.368c7.776,0.812,25.761,14.12,25.761,14.12
			l-3.727,6.282c0,0-21.896-10.279-27.162-10.542c-5.761-0.288-13.586-0.363-25.033-0.619
			C501.925,248.882,504.761,239.4,504.761,239.4z"/>
		<path fill="#D0D2D3" d="M559.932,260.635c-0.067,0-0.135-0.015-0.198-0.045c-0.218-0.102-21.872-10.242-26.987-10.498
			c-4.001-0.2-9.088-0.298-15.529-0.423c-2.857-0.057-6.006-0.116-9.491-0.194c-1.366-0.031-2.417-0.537-3.121-1.506
			c-2.026-2.785-0.361-8.462-0.29-8.701c0.057-0.187,0.225-0.319,0.419-0.33c3.546-0.197,8.84-0.317,14.165-0.317
			c7.94,0,14.882,0.25,19.046,0.688c7.812,0.816,25.251,13.661,25.989,14.208c0.192,0.142,0.245,0.404,0.124,0.609l-3.728,6.281
			C560.243,260.552,560.089,260.635,559.932,260.635z M505.12,239.847c-0.309,1.193-1.275,5.5,0.235,7.578
			c0.534,0.729,1.314,1.098,2.39,1.121c3.485,0.078,6.634,0.138,9.489,0.194c6.45,0.125,11.544,0.223,15.559,0.424
			c4.972,0.249,23.918,8.992,26.953,10.408l3.297-5.558c-2.506-1.82-18.211-13.054-25.194-13.783
			c-4.136-0.434-11.041-0.683-18.95-0.683C513.755,239.549,508.642,239.66,505.12,239.847z"/>
	</g>
	<path fill="#FAC19F" d="M534.809,207.79c-4.909,16.943-14.299,21.043-35.054,26.004c-33.708,8.057-75.922-3.58-84.869-18.688
		c-11.562-19.517-0.159-62.163,14.929-80.784c12.965-16,33.596-17.622,66.014-8.609C549.637,140.672,540.965,186.538,534.809,207.79
		z"/>
	<path fill="#020000" d="M472.905,187.872c-1.77,5.523-5.059,9.375-7.349,8.605c-2.295-0.769-2.714-5.873-0.952-11.398
		c1.776-5.526,5.069-9.382,7.361-8.609C474.25,177.243,474.676,182.345,472.905,187.872z"/>
	<path fill="#EB1A29" d="M438.474,200.532c0,0,13.8,8.482,23.772,1.702c0.081,14.708-6.799,16.555-11.887,15.557
		C442.979,216.349,438.474,200.532,438.474,200.532z"/>
	<polygon fill="#FAC19F" points="474.652,185.545 467.892,185.505 473.729,191.42 	"/>
	<path fill="#020000" d="M474.271,162.691c0,0,3.206-5.084,7.604-2.809c2.445,1.265,3.558,5.46,3.801,10.251
		C485.677,170.134,480.649,163.286,474.271,162.691z"/>
	<path fill="#F38E86" d="M472.504,199.513c-0.214,1.183,2.524,2.636,6.115,3.241c3.598,0.611,6.684,0.147,6.899-1.033
		c0.218-1.188-2.523-2.642-6.114-3.244C475.809,197.869,472.722,198.33,472.504,199.513z"/>
	<path fill="#020000" d="M440.671,179.799c-1.768,5.528-5.058,9.38-7.347,8.609c-2.292-0.77-2.715-5.874-0.949-11.4
		c1.772-5.527,5.064-9.38,7.357-8.607C442.019,169.17,442.438,174.276,440.671,179.799z"/>
	<polygon fill="#FAC19F" points="442.839,177.845 436.078,177.805 441.911,183.722 	"/>
	<path fill="#020000" d="M447.481,158.451c0,0-1.756-5.594-6.684-4.622c-2.74,0.541-4.853,4.035-4.698,7.047
		C436.1,160.877,441.103,155.497,447.481,158.451z"/>
	<path fill="#F38E86" d="M418.092,184.352c-0.526,1.082,1.728,3.211,5.028,4.752c3.302,1.546,6.401,1.921,6.927,0.84
		c0.524-1.081-1.727-3.213-5.027-4.755C421.716,183.649,418.622,183.269,418.092,184.352z"/>
	<path fill="#020000" d="M448.234,194.951c-0.398,0-0.776-0.235-0.941-0.625l-1.569-3.708l-3.866,2.283
		c-0.486,0.287-1.112,0.125-1.401-0.361c-0.286-0.486-0.125-1.113,0.361-1.401l4.874-2.875c0.256-0.15,0.561-0.183,0.84-0.09
		c0.281,0.091,0.508,0.301,0.622,0.572l2.023,4.785c0.219,0.52-0.023,1.121-0.545,1.34
		C448.503,194.925,448.367,194.951,448.234,194.951z"/>
	<polygon fill="#829CA8" points="561.658,260.99 555.066,259.327 557.855,252.735 560.645,253.749 559.566,250.995 562.292,249.508 
		565.714,253.116 	"/>
	<path fill="#829CA8" d="M444.812,271.338c0,0,4.188-1.743,6.285-2.692l3.563,10.764h-7.259L444.812,271.338z"/>
	<path fill="#020000" d="M550.623,147.681c2.221-5.991,2.197-16.582,2.197-16.582c-5.75-3.63-21.574-5.594-21.574-5.594
		c2.525-5.279-1.662-13.534-1.662-13.534c-5.382-2.06-21.764-4.216-21.764-4.216l-2.943-10.104
		c-12.75-1.374-29.364,2.256-29.364,2.256l-4.443-4.708c-12.979,5.394-19.016,9.438-19.016,9.438l-10.16-4.708
		c-3.825,5.493-8.662,17.062-8.662,17.062l-7.361-2.056c-1.673,8.731,0.568,24.373,0.568,24.373
		c15.132-10.338,33.649,0.541,33.649,0.541s13.94,8.049,30.905,13.282c0,0-2.522-4.024-1.261-7.851c0,0,11.114,10.27,21.779,17.213
		c0,0,1.865-5.081-0.506-11.306c-0.312-0.816,6.92,9.772,14.176,15.562l-6.573,20.459l7.539,10.823l0.887,24.121
		c19.752-10.344,28.338-55.318,32.532-68.438C554.232,148.15,550.623,147.681,550.623,147.681z"/>
	<path fill="#FAC19F" d="M526.035,198.687c0,0,9.103-10.966,17.577-4.527c5.483,4.166,4.312,19.438-7.081,19.311
		c-5.697-0.062-11.756-6.576-11.756-6.576L526.035,198.687z"/>
	<path fill="#CE9277" d="M527.887,200.135c0,0,5.625-7.494,10.686-3.243c3.273,2.749,2.4,13.055-4.494,13.089
		c-3.445,0.02-7.044-4.302-7.044-4.302L527.887,200.135z"/>
</g>
<g transform="translate(120.6 -466.21)">
	<path fill="#A3BA9D" stroke="#696C51" stroke-width="0.5701" d="M100.783,605.167l9.792,0.013l-4.688,173.239l-6.958,2.252
		l1.854-175.507L100.783,605.167z"/>
	<path fill="#A3BA9D" stroke="#696C51" stroke-width="0.5701" d="M110.235,605.6l13.046,0.576l-3.914,170.379l-13.481,2.015
		l4.349-172.966V605.6z"/>
	<path fill="#A3BA9D" stroke="#696C51" stroke-width="0.5701" d="M123.717,606.176l13.046-0.576l-3.915,168.362l-13.481,2.302
		L123.717,606.176L123.717,606.176z"/>
	<path fill="#A3BA9D" stroke="#696C51" stroke-width="0.5701" d="M137.632,605.885h13.046l-3.914,166.06l-13.481,1.728
		L137.632,605.885L137.632,605.885z"/>
	<path fill="#A3BA9D" stroke="#696C51" stroke-width="0.5701" d="M150.027,608.187l13.481-0.575l-3.479,163.467l-14.352,1.15
		L150.027,608.187L150.027,608.187z"/>
	<path fill="#A3BA9D" stroke="#696C51" stroke-width="0.5701" d="M163.508,607.902l13.046-0.288l-3.914,161.165l-13.481,1.439
		L163.508,607.902L163.508,607.902z"/>
	<path fill="#A3BA9D" stroke="#696C51" stroke-width="0.5701" d="M176.989,607.327l13.481,0.863l-4.35,158.002l-13.48,2.303
		l4.349-161.165V607.327z"/>
	<path fill="#A3BA9D" stroke="#696C51" stroke-width="0.5701" d="M190.58,608.187l8.263,0.576l-3.914,155.985l-8.698,1.151
		L190.58,608.187L190.58,608.187z"/>
	<path fill="#A3BA9D" stroke="#696C51" stroke-width="0.5701" d="M199.277,608.478l10.003,0.576l-3.48,154.259l-10.437,1.727
		L199.277,608.478L199.277,608.478z"/>
	<g transform="translate(6.7606)">
		<path fill="#71582F" d="M212.671,595.156l-3.075,1.628l-1.23,5.494l0.217,159.285l12.391,2.048l4.92-166.009l-2.768-2.849
			l-10.456,0.407L212.671,595.156z"/>
		<path fill="none" stroke="#B8A59F" stroke-width="0.5701" d="M220.974,762.845l4.85-165.792l6.529,0.749 M209.904,596.988
			l16.046,0.377l-1.901-2.006"/>
		<path fill="#A6A593" d="M223.719,594.808l4.784,0.288l4.131,2.302l-3.261,163.239l-8.263,2.785l4.131-166.453l-1.522-2.158
			V594.808z"/>
	</g>
	<path fill="#A3BA9D" stroke="#696C51" stroke-width="0.5701" d="M209.279,609.48l9.094,0.288l1.171,151.672l-12.477,1.727
		l2.212-153.683V609.48z"/>
	<path fill="#BFC2B8" d="M98.288,596.535l124.151,6.332l2.609,8.059l-125.545-4.33l-1.209-10.06L98.288,596.535z"/>
	<g transform="matrix(1 0 0 1.1709 -153.13 -91.217)">
		<path fill="#71582F" d="M234.893,581.74l-3.075,1.628l-1.23,5.495l-0.615,158.732l13.223,1.221l4.92-164.635l-2.768-2.849
			L234.893,581.74L234.893,581.74z"/>
		<path fill="none" stroke="#B8A59F" stroke-width="0.5701" d="M243.196,749.43l4.85-165.792l6.528,0.749 M232.126,583.573
			l16.046,0.378l-1.9-2.006"/>
		<path fill="#A6A593" d="M245.941,581.393l4.783,0.289l4.131,2.302l-3.262,161.313l-8.262,3.885l4.131-165.627l-1.522-2.159
			L245.941,581.393z"/>
	</g>
</g>
</svg>
