<svg version="1.1" xmlns="http://www.w3.org/2000/svg" xmlns:xlink="http://www.w3.org/1999/xlink" viewBox="0 0 768 430" enable-background="new 0 0 768 430" xml:space="preserve">
<g id="Layer_2">
</g>
<g id="Layer_1">
	<g>
		<g>
			<polygon fill="#EAEADF" points="414.184,379.165 325.857,367.388 325.857,112.574 414.184,119.218 			"/>
		</g>
		<g>
			<polygon fill="#DDDDCA" points="434.9,80.251 350.543,75.784 350.32,58.5 434.9,60.677 			"/>
		</g>
		<g>
			<polygon fill="#DDDDCA" points="414.184,379.165 452.729,355.077 452.729,105.577 414.184,119.218 			"/>
		</g>
		<g>
			<polygon fill="#EAEADF" points="400.619,110.512 434.9,80.251 452.729,105.577 414.184,119.218 			"/>
		</g>
		<g>
			<polygon fill="#DDDDCA" points="434.9,80.251 452.729,105.577 420.5,98.671 			"/>
		</g>
		<g>
			<polygon fill="#D6D5C5" points="434.9,80.251 350.543,75.784 325.857,112.574 414.184,119.218 			"/>
		</g>
		<g>
			<polygon fill="#FFEB8F" points="414.184,359.644 325.857,348.669 325.857,175.87 414.184,182.856 			"/>
		</g>
		<g>
			<polygon fill="#FFC170" points="414.184,359.644 452.729,337.317 452.729,171.16 414.184,182.856 			"/>
		</g>
		<g>
			<path fill="#F7F0D5" d="M383.361,348.325l-32.209-4.084c-7.66-0.973-13.402-7.486-13.402-15.209V145.064
				c0-8.977,7.679-16.032,16.623-15.275l32.208,2.723c7.938,0.671,14.039,7.309,14.039,15.276v185.329
				C400.619,342.351,392.52,349.487,383.361,348.325z"/>
		</g>
	</g>
</g>
<g id="Layer_4">
	<text transform="matrix(0.5682 0.5487 -0.6947 0.7193 356.3579 171.2734)"><tspan x="0" y="0" fill="#FFC170" font-family="'Noteworthy-Light'" font-size="17.3139">VANILLE </tspan><tspan x="-8.02" y="20.776" fill="#FFC170" font-family="'Noteworthy-Light'" font-size="17.3139">YOGHURT</tspan></text>
</g>
<g id="Layer_3">
	<g>
		<g>
			<path fill="#4F2F24" d="M399.9,250.079c0.807-3.6-1.102-5.637-1.395-3.069c-0.295,2.568,1.213,3.403-0.186,3.742
				c-1.398,0.338-5.814-1.534-22.023-0.567c-16.208,0.968-27.455-5.014-37.189-2.909c-1.264-0.351-1.113-1.609-1.264-0.351
				c-0.15,1.259-0.815,1.347,2.667,1.766c3.482,0.421,30.959,3.626,37.496,2.922C384.542,250.909,398.791,255.026,399.9,250.079z"/>
		</g>
		<g>
			<path fill="#5C362A" d="M404.752,253.712c0.039-1.486-1.146-0.83-1.213-0.306c-0.066,0.525,1.822,1.51-6.83,0.869
				c-8.652-0.643-20.091-1.565-30.459-5.314c-10.368-3.749-22.868-6.908-25.098-6.719c-2.229,0.189-2.783,0.779-2.025,1.401
				c0.758,0.623,6.506,1.009,12.402,3.097c5.896,2.089,17.796,3.146,23.108,5.739c5.312,2.593,17.791,2.852,22.908,2.915
				C402.658,255.459,404.705,255.499,404.752,253.712z"/>
		</g>
		<g>
			<path fill="#61382C" d="M398.297,258.439c2.053-0.921-1.1-2.541-1.945-1.088c-0.848,1.455-31.717-8.017-43.332-9.588
				c-11.615-1.572-11.219,1.783-12.839,2.15c-1.62,0.368,0.45,1.283,0.755,1.243c0.305-0.04,5.672-2.087,10.835-1.578
				c5.162,0.509,28.486,5.396,34.974,7.409C393.23,259.002,397.963,258.589,398.297,258.439z"/>
		</g>
		<g>
			<path fill="#CFCFCF" d="M378.344,254.171c2.685,0.616,8.486,2.041,12.274,3.325c3.788,1.283,4.337,1.037,5.976,0.821
				c1.637-0.215,2.674-0.486,1.838-1.3c0.621,0.341,0.881,0.967-0.135,1.422c-0.236,0.105-2.668,0.341-6.363-0.238
				c-0.834-0.323-1.549-0.598-1.969-0.659c-1.424-0.207-8.606-2.431-11.167-3.14C376.235,253.692,375.659,253.556,378.344,254.171z"
				/>
		</g>
		<g>
			<path fill="#CFCFCF" d="M374.208,253.32c-5.543-1.518-8.522-1.28-12.886-2.837s-7.484-1.883-7.484-1.883s-1.43-0.586-4.47-0.303
				c3.219,0.042,2.61,0.045,5.21,0.787s6.706,1.868,9.168,2.338C366.208,251.894,374.208,253.32,374.208,253.32z"/>
		</g>
		<g>
			<path fill="#CFCFCF" d="M340.936,251.157c-0.305,0.04-2.375-0.875-0.755-1.243c0.25-0.057,0.452-0.185,0.658-0.354
				c0.307,0.088,0.454,0.3,0.242,0.704c-0.451,0.859,0.162,0.03,3.086-0.87c2.926-0.9,8.056-0.128,11.043,0.688l0,0
				c-1.477-0.249-2.664-0.425-3.44-0.502C346.608,249.07,341.24,251.117,340.936,251.157z"/>
		</g>
		<g>
			<path fill="#BFBFBF" d="M404.5,253.88c0.129-1.07-0.166-0.993-0.402-0.749c-0.24,0.244,0.33,1.195-0.299,1.568
				c-0.631,0.373-7.656,0.182-7.656,0.182S404.783,256.425,404.5,253.88z"/>
		</g>
		<g>
			<path fill="#BFBFBF" d="M394.617,254.474c-1.965-0.284-8.672-0.371-10.934-0.849c-2.261-0.478-6.289-1.39-6.289-1.39
				S386.643,255.56,394.617,254.474z"/>
		</g>
		<g>
			<path fill="#CFCFCF" d="M360.996,248.513c-4.745-0.848-5.349-1.07-7.747-2.075c-2.398-1.006-9.563-2.775-10.263-2.954
				c4.901,0.75,7.438,1.269,10.716,2.542C356.98,247.298,360.996,248.513,360.996,248.513z"/>
		</g>
		<g>
			<path fill="#BFBFBF" d="M392.625,251.674c3.764,0.32,5.205-0.294,5.205-0.294s-0.914,0.004-4.871-0.522
				c-3.959-0.525-12.495-0.372-11.381-0.131C391.586,250.961,392.625,251.674,392.625,251.674z"/>
		</g>
		<g>
			<g>
				<path fill="#FFEB8F" d="M371.168,242.183c6.037-9.776,15.289-4.592,18.373-4.79c-3.544,9.187-5.513,10.762-15.158,10.564
					c10.039,2.493,13.648-1.706,15.158,13.647c-6.299-1.246-15.354,0.328-20.538-7.217c-4.199,7.545-11.876,9.186-16.994,9.119
					c-1.902-7.283,3.15-12.467,7.021-13.318c-7.874-1.51-10.274-7.152-11.863-8.137c8.713-4.527,14.291-2.69,16.652,0.131
					c-5.839-6.758-2.23-12.138,0.722-15.353C369.66,227.945,375.171,230.897,371.168,242.183z"/>
			</g>
			<g>
				<path fill="#FFEDC4" d="M366.34,253.275c-3.978,6.922-7.609,9.08-14.751,8.637C357.023,262.219,362.982,259.812,366.34,253.275z
					"/>
			</g>
			<g>
				<path fill="#FFEDC4" d="M365.19,252.844c-1.912,4.688-7.838,6.318-7.838,6.318S362.695,256.988,365.19,252.844z"/>
			</g>
			<g>
				<path fill="#FFEDC4" d="M352.596,258.877c4.065-7.771,10.008-7.993,10.008-7.993S355.311,251.145,352.596,258.877z"/>
			</g>
			<g>
				<path fill="#FFEDC4" d="M374.962,248.979c7.925,0.969,11.325,3.474,13.7,10.225
					C386.827,254.078,382.291,249.527,374.962,248.979z"/>
			</g>
			<g>
				<path fill="#FFEDC4" d="M375.012,250.207c5.062-0.063,8.872,4.76,8.872,4.76S379.8,250.892,375.012,250.207z"/>
			</g>
			<g>
				<path fill="#FFEDC4" d="M385.474,259.458c-8.742-0.718-11.26-6.105-11.26-6.105S377.294,259.969,385.474,259.458z"/>
			</g>
			<g>
				<path fill="#FFEDC4" d="M370.047,242.1c2.067-4.724,1.772-11.744-3.707-13.976C372.016,230.814,372.897,236.406,370.047,242.1z"
					/>
			</g>
			<g>
				<path fill="#FFEDC4" d="M368.982,232.809c1.664,5.167,0.335,10.333,0.335,10.333S369.902,234.85,368.982,232.809z"/>
			</g>
			<g>
				<path fill="#FFEDC4" d="M364.175,228.306c-2.51,5.88,0.148,12.425,1.575,14.344
					C362.501,239.181,361.985,229.904,364.175,228.306z"/>
			</g>
			<g>
				<path fill="#FFEDC4" d="M365.626,231.036c-0.787,4.527,0.566,8.858,0.566,8.858S364.175,234.112,365.626,231.036z"/>
			</g>
			<g>
				<path fill="#FFEDC4" d="M371.064,243.142c5.346-5.929,9.35-7.274,16.239-5.339C382.055,236.358,375.723,237.458,371.064,243.142
					z"/>
			</g>
			<g>
				<path fill="#FFEDC4" d="M372.097,243.806c2.856-4.179,8.993-4.526,8.993-4.526S375.409,240.28,372.097,243.806z"/>
			</g>
			<g>
				<path fill="#FFEDC4" d="M385.68,240.559c-5.61,6.742-11.466,5.708-11.466,5.708S381.398,247.546,385.68,240.559z"/>
			</g>
			<g>
				<path fill="#FFEDC4" d="M362.848,243.142c-2.988-3.42-8.613-2.779-13.781-1.304C356.596,238.049,360.93,240.607,362.848,243.142
					z"/>
			</g>
			<g>
				<path fill="#FFEDC4" d="M358.22,241.937c-4.626-0.788-8.587,0.566-8.587,0.566S355.907,241.543,358.22,241.937z"/>
			</g>
			<g>
				<path fill="#FFEDC4" d="M351.588,243.979c4.615,3.42,8.797,4.552,10.717,4.577C356.178,248.556,351.588,243.979,351.588,243.979
					z"/>
			</g>
			<g>
				<path fill="#FFEDC4" d="M362.848,246.267c-0.985-1.354-6.374-2.288-6.374-2.288S362.529,245.652,362.848,246.267z"/>
			</g>
			<g>
				<path fill="#FFF8E8" d="M365.946,231.036c0,1.107-1.009-0.738-1.131-1.723c-0.123-0.984-0.152-0.872-0.787,0.346
					c-0.635,1.217-0.124-0.495-0.615-0.838c-0.163-0.114-0.35-0.062-0.557,0.071c0.54-0.762,1.125-1.452,1.686-2.062
					c1.85,0.403,3.751,1.047,5.235,2.236c-0.119-0.038-0.242-0.077-0.376-0.121c-3.529-1.157-3.283-1.377-2.2-0.369
					c1.083,1.008,0-0.001-0.861,0.541C365.479,229.659,365.946,229.929,365.946,231.036z"/>
			</g>
			<g>
				<path fill="#FFF8E8" d="M387.008,242.478c0.591-1.919,1.477-3.311,0.295-2.418c-1.181,0.893-1.156-0.019-0.319-1.174
					c0.837-1.157-1.156-0.124-1.87-1.059c-0.713-0.935,2.931-0.517-0.51-1.303c2.115,0.377,3.885,0.936,4.938,0.868
					c-0.939,2.436-1.768,4.334-2.658,5.809C386.832,243.165,386.869,242.927,387.008,242.478z"/>
			</g>
			<g>
				<path fill="#FFF8E8" d="M384.06,260.984c0.086-0.196,0.633-0.312,1.414-0.275c2.075,0.1,2.985,0.52,0.648-0.834
					c-2.337-1.355,1.28,0.909,2.018-0.1c0.739-1.009-0.86-4.865-0.196-3.355c0.414,0.94,0.912,2.115,1.241,2.196
					c0.13,0.904,0.248,1.896,0.356,2.988C387.867,261.273,385.999,261.142,384.06,260.984z"/>
			</g>
			<g>
				<path fill="#FFD780" d="M373.975,248.567c-0.726,2.552-1.477,4.423-4.998,3.049c-3.567,1.374-7.647-1.194-5.453-4.078
					c-2.141-0.634-2.022-2.174-2.022-2.174l8.1,1.231l2.605,0.806L373.975,248.567z"/>
			</g>
			<g>
				<path fill="#FFF2B5" d="M364.172,243.752c5.269-3.337,8.048-0.867,8.544,0.772c2.021,0.381,3.013,4.158,1.259,4.043
					c-0.229,1.946-3.052,3.853-5.492,2.022c-5.111,1.907-6.333-1.335-4.958-3.052C358.984,245.287,362.646,242.255,364.172,243.752z
					"/>
			</g>
			<g>
				<path fill="#FFC170" d="M372.097,247.915c1.498-1.435-0.812-0.869-1.451-2.551c-0.64-1.681-1.117-2.223-2.909-1.386
					s-1.089,0.812-2.547,0.763s-0.343,0.542-0.088,2.066C365.356,248.333,370.351,249.588,372.097,247.915z"/>
			</g>
			<g>
				<path fill="#FFF6CC" d="M369.401,248.556c-0.429-3.272,3.458-8.121,3.458-8.121l0.189,0.271
					C373.049,240.706,369.398,246.004,369.401,248.556z"/>
			</g>
			<g>
				
					<ellipse transform="matrix(-0.9019 -0.432 0.432 -0.9019 605.5844 618.553)" fill="#FFF6CC" cx="373.049" cy="240.493" rx="0.342" ry="0.501"/>
			</g>
			<g>
				<path fill="#FFF6CC" d="M368.391,248.437c-1.708-2.824-0.097-8.825-0.097-8.825l0.282,0.172
					C368.576,239.783,367.363,246.103,368.391,248.437z"/>
			</g>
			<g>
				
					<ellipse transform="matrix(-0.9994 -0.0342 0.0342 -0.9994 728.5591 491.6547)" fill="#FFF6CC" cx="368.49" cy="239.589" rx="0.342" ry="0.5"/>
			</g>
			<g>
				<path fill="#FFF6CC" d="M369.243,248.437c-1.337-3.705,1.02-10.764,1.02-10.764l0.258,0.253
					C370.521,237.926,368.518,245.435,369.243,248.437z"/>
			</g>
			<g>
				<path fill="#FFF6CC" d="M370.122,237.608c-0.044,0.334,0.072,0.636,0.258,0.673c0.187,0.037,0.374-0.205,0.418-0.54
					c0.043-0.334-0.072-0.637-0.259-0.673C370.353,237.031,370.166,237.273,370.122,237.608z"/>
			</g>
		</g>
	</g>
</g>
</svg>
