<svg version="1.1" id="Layer_1" xmlns="http://www.w3.org/2000/svg" xmlns:xlink="http://www.w3.org/1999/xlink" viewBox="0 0 768 430" enable-background="new 0 0 768 430" xml:space="preserve">
<g>
	<g>
		<g>
			<path fill="#F9D1B2" d="M600.741,269.831c-3.781,8.095-8.417,15.942-13.989,23.386c-10.414,13.948-22.979,25.213-36.807,33.673
				c0,0,0,0-0.044,0c-32.167,25.992-78.45,39.654-128.396,41.608c-97.448,3.865-208.724-36.604-255.863-116.484
				c-0.04-0.12-0.082-0.242-0.121-0.365c-9.07-12.281-14.724-26.679-16.717-41.81c-3.292-24.605,3.011-51.123,19.604-73.329
				c30.138-40.469,83.621-52.385,123.559-29.162c0.326-0.204,0.489-0.325,0.489-0.325c25.826,14.397,54.092,18.993,79.636,18.993
				c20.663,0,39.573-3.009,53.891-6.264c16.673-3.741,27.206-7.809,27.206-7.809c37.622-16.105,81.137-13.137,114.65,11.876
				C612.418,157.048,624.779,218.262,600.741,269.831z"/>
		</g>
		<g>
			<path fill="#ED3847" d="M560.809,286.87c35.683-47.845,28.336-113.677-16.403-147.042
				c-29.104-21.708-66.865-24.308-99.526-10.313l0,0c0,0-77.875,30.15-139.54-4.284c0,0-0.16,0.114-0.433,0.306
				c-34.658-20.169-81.082-9.832-107.274,25.288c-23.235,31.155-23.182,71.976-2.495,99.981c0.053,0.091,0.072,0.198,0.126,0.289
				c61.86,104.903,251.259,131.566,333.57,65.015c0.009,0,0.009-0.004,0.017-0.009C540.855,308.763,551.776,298.976,560.809,286.87z
				"/>
		</g>
		<g>
			<path fill="#F9D1B2" d="M183.449,268.735c-0.697-0.851-17.067-20.991-13.397-44.739c2.217-14.342,11.127-26.648,26.48-36.572
				c26.855-17.355,43.854-7.746,58.856,0.735c14.328,8.096,25.642,14.495,46.404,0.697c11.676-7.759,18.019-16.759,18.855-26.754
				c1.631-19.501-17.482-37.675-17.675-37.855l8.325-8.921c0.966,0.899,23.599,22.304,21.515,47.726
				c-1.142,13.925-9.307,26.025-24.268,35.968c-26.997,17.939-44.085,8.279-59.161-0.24c-14.287-8.075-25.568-14.454-46.229-1.108
				c-12.303,7.951-19.383,17.436-21.045,28.192c-2.843,18.394,10.611,34.936,10.748,35.103L183.449,268.735z"/>
		</g>
		<g>
			<path fill="#F9D1B2" d="M480.927,249.186c-65.201,0-141.272-29.168-169.844-59.507l8.881-8.365
				c27.16,28.835,115.896,64.965,187.772,53.709c35.7-5.593,60.332-22.147,73.226-49.197l11.014,5.247
				c-14.517,30.473-42.995,49.841-82.353,56.005C500.444,248.515,490.811,249.186,480.927,249.186z"/>
		</g>
		<g>
			<path fill="#F9D1B2" d="M523.435,243.673l-7.649-9.501c50.974-41.021,10.981-104.301,9.253-106.974l10.248-6.622
				C535.771,121.323,582.871,195.848,523.435,243.673z"/>
		</g>
		<g>
			<path fill="#F9D1B2" d="M403.978,365.21c-0.516-1.23-13.162-30.28-60.59-43.929c-49.687-14.285-70.415,12.567-70.622,12.841
				l-9.783-7.296c1.039-1.391,26.061-33.879,83.777-17.269c53.477,15.386,67.918,49.579,68.511,51.03L403.978,365.21z"/>
		</g>
	</g>
	<g opacity="0.21">
		<path fill="#161616" d="M600.741,269.831c-3.781,8.095-8.417,15.942-13.989,23.386c-10.414,13.948-22.979,25.213-36.807,33.673
			c0,0,0,0-0.044,0c-32.167,25.992-78.45,39.654-128.396,41.608c-97.448,3.865-208.724-36.604-255.863-116.484
			c-0.04-0.12-0.082-0.242-0.121-0.365c-9.07-12.281-14.724-26.679-16.717-41.81c3.864-4.433,10.006-6.792,19.563-4.31
			c31.602,8.133,97.653,79.307,166.834,91.509C432.814,314.283,573.455,267.022,600.741,269.831z"/>
	</g>
</g>
</svg>
