<?xml version="1.0" encoding="utf-8"?>
<!-- Generator: Adobe Illustrator 16.0.0, SVG Export Plug-In . SVG Version: 6.00 Build 0)  -->
<!DOCTYPE svg PUBLIC "-//W3C//DTD SVG 1.1//EN" "http://www.w3.org/Graphics/SVG/1.1/DTD/svg11.dtd">
<svg version="1.1" id="Layer_2" xmlns="http://www.w3.org/2000/svg" xmlns:xlink="http://www.w3.org/1999/xlink" x="0px" y="0px"
	 width="768px" height="430px" viewBox="0 0 768 430" enable-background="new 0 0 768 430" xml:space="preserve">
<g>
	<g>
		<path fill="#46276C" d="M338.719,276.794c0,0-43.177-97.979-41.054-159.95c2.102-33.806,2.871-59.41,34.415-60.214
			c8.822,0.941,19.31,12.095,21.549,31.473c11.948-5.789,28.165,0.023,34.92,33.449c8.845-3.836,37.54-8.478,28.937,67.967
			C411.823,215.606,358.521,319.765,338.719,276.794z"/>
		<path fill="#522D7E" d="M338.719,276.794c0,0-43.177-97.979-41.054-159.95c2.102-33.806,2.908-54.02,34.452-54.824
			c8.822,0.942,18.737,15.487,20.977,34.865c11.947-5.789,26.407,2.214,33.16,35.64c8.847-3.836,31.357-16.062,22.755,60.384
			C403.346,218.995,358.521,319.765,338.719,276.794z"/>
		<path fill="#46276C" d="M310.467,96.765c0,0,18.824-17.05,30.792,15.369c13.129-3.395,28.094-6.97,33.547,29.549
			c8.443-2.067,41.456,15.799,17.068,59.091C368.689,177.367,310.467,96.765,310.467,96.765z"/>
		<g>
			<path fill="#B00600" d="M335.728,123.161c-0.178,0.124-0.351,0.245-0.511,0.356c-10.891-44.1-28.753-26.651-37.022-15.136
				c-0.18,2.755-0.35,5.578-0.53,8.462c-2.123,61.972,41.054,159.95,41.054,159.95c2.75,5.967,6.145,9.094,9.97,9.99
				c0.042-0.029,0.085-0.062,0.128-0.091C341.496,264.724,313.216,172.622,335.728,123.161z"/>
		</g>
		<g>
			<path fill="#CD0700" d="M327.646,128.175c-7.289-45.109-21.182-31.309-29.451-19.793c-0.18,2.755-0.35,5.578-0.53,8.462
				c-2.123,61.972,41.054,159.95,41.054,159.95c2.75,5.967,6.145,9.094,9.97,9.99c0.042-0.029,0.085-0.062,0.128-0.091
				C309.159,158.656,327.807,128.064,327.646,128.175z"/>
		</g>
		<path fill="#DA4540" d="M333.67,256.911c0,0-35.602-102.671-32.188-128.503c3.325-25.156,12.405-19.505,12.302,1.999
			C310.383,176.076,329.422,241.396,333.67,256.911z"/>
		<path d="M349.538,287.503c-3.564-0.491-6.782-2.745-9.446-6.989l0,0c-0.655-1.039-1.28-2.202-1.873-3.489l0,0l0.499-0.229
			l-0.503,0.222c-0.005-0.04-43.212-97.987-41.099-160.207l0,0c0.8-12.851,1.403-24.536,3.596-34.178l0,0
			c2.189-9.632,5.999-17.276,13.257-21.846l0,0c4.569-2.877,10.467-4.511,18.095-4.706l0,0l0.036,0l0.037,0.004
			c5.256,0.568,10.922,4.536,15.26,11.419l0,0c3.185,5.058,5.649,11.702,6.685,19.782l0,0c8.357-3.722,18.721-1.785,26.387,10.464
			l0,0c3.452,5.482,6.398,13.017,8.484,23.042l0,0c2.562-1.014,6.382-1.961,10.504-1.397l0,0c4.472,0.605,9.285,3.045,13.039,9.021
			l0,0c5.909,9.406,9.322,27.445,5.537,61.167l0,0l-0.005,0.024l-0.005,0.031c-2.098,9.632-10.509,29.526-21.334,48.932l0,0
			c-10.836,19.396-24.024,38.25-35.867,45.725l0,0C356.908,286.757,353.101,287.996,349.538,287.503L349.538,287.503z
			 M341.022,279.928c2.566,4.065,5.48,6.039,8.668,6.486l0,0c3.19,0.447,6.756-0.663,10.546-3.051l0,0
			c11.494-7.22,24.72-26.007,35.492-45.331l0,0c10.775-19.3,19.169-39.192,21.213-48.602l0,0c3.784-33.593,0.31-51.424-5.375-60.431
			l0,0c-3.614-5.724-8.066-7.936-12.258-8.518l0,0c-4.189-0.578-8.135,0.528-10.541,1.576l0,0l-0.624,0.27l-0.132-0.666
			c-2.074-10.258-5.041-17.877-8.472-23.327l0,0c-7.731-12.204-17.617-13.6-25.671-9.737l0,0l-0.698,0.337l-0.087-0.769
			c-0.958-8.276-3.431-15.019-6.616-20.078l0,0c-4.196-6.67-9.634-10.39-14.411-10.908l0,0c-7.473,0.196-13.145,1.794-17.5,4.536
			l0,0c-6.915,4.354-10.605,11.653-12.771,21.159l0,0c-2.164,9.498-2.772,21.147-3.571,33.987l0,0
			c-1.597,46.293,22.264,113.025,34.303,143.452l0,0c3.945,9.979,6.609,16.04,6.702,16.252l0,0
			C339.792,277.815,340.395,278.934,341.022,279.928L341.022,279.928z"/>
		<g>
			<path fill="#CB9C1E" d="M369.03,147.905c-0.209,0.054-0.411,0.11-0.593,0.17c-4.204-44.262-25.52-29.916-32.709-24.915
				c-22.511,49.461,5.769,141.562,13.089,163.532c3.29-2.233,6.479-5.006,9.539-8.19
				C356.487,261.014,349.299,181.444,369.03,147.905z"/>
		</g>
		<g>
			<path fill="#EDB623" d="M360.479,152.978c-4.204-44.261-17.562-34.818-24.751-29.817
				c-22.511,49.461,5.769,141.562,13.089,163.532c3.29-2.233,6.479-5.006,9.539-8.19
				C342.026,202.601,360.662,152.917,360.479,152.978z"/>
		</g>
		<g>
			<path fill="#B00600" d="M369.03,147.905c-19.731,33.539-12.542,113.108-10.675,130.598c17.26-17.963,30.418-48.995,34.331-69.904
				C403.957,148.746,377.053,145.834,369.03,147.905z"/>
		</g>
		<g>
			<path fill="#CD0700" d="M369.03,147.905c-19.731,33.539-12.542,113.108-10.675,130.598
				c10.492-19.378,22.678-45.637,26.592-66.546C396.219,152.103,377.053,145.834,369.03,147.905z"/>
		</g>
		<path fill="#DA4540" d="M358.133,268.432c0,0-0.875-85.594,8.146-104.031c8.783-17.955,14.15-11.459,8.687,4.574
			C360.987,202.229,358.847,255.78,358.133,268.432z"/>
		<path fill="#F2C85A" d="M342.88,262.628c0,0-18.475-94.321-12.29-116.521c6.023-21.62,13.277-15.546,10.526,3.272
			C332.488,188.953,341.081,248.514,342.88,262.628z"/>
		<g>
			
				<ellipse transform="matrix(0.2395 -0.9709 0.9709 0.2395 175.6739 378.2755)" fill="#4DAAD0" cx="329.311" cy="76.995" rx="13.377" ry="9.712"/>
		</g>
		<g>
			
				<ellipse transform="matrix(0.2395 -0.9709 0.9709 0.2395 171.5855 377.4252)" fill="#5AC6F3" cx="326.722" cy="79.181" rx="10.635" ry="7.721"/>
		</g>
		<g>
			
				<ellipse transform="matrix(-0.0982 -0.9952 0.9952 -0.0982 298.9219 485.6025)" fill="#4DAAD0" cx="369.48" cy="107.365" rx="10.204" ry="7.409"/>
		</g>
		<g>
			
				<ellipse transform="matrix(-0.0982 -0.9952 0.9952 -0.0982 295.1561 486.7845)" fill="#5AC6F3" cx="368.137" cy="109.659" rx="8.053" ry="5.846"/>
		</g>
		<g>
			
				<ellipse transform="matrix(-0.0982 -0.9952 0.9952 -0.0982 295.0335 561.0078)" fill="#4DAAD0" cx="401.699" cy="146.83" rx="13.497" ry="7.409"/>
		</g>
		<g>
			
				<ellipse transform="matrix(-0.0983 -0.9952 0.9952 -0.0983 291.0956 562.8323)" fill="#5AC6F3" cx="400.545" cy="149.532" rx="10.922" ry="5.995"/>
		</g>
	</g>
	<g>
		<path fill="#46276C" d="M344.179,252.515c0,0,15.668-105.918,50.485-157.229c19.792-27.488,34.085-48.745,61.205-32.619
			c6.965,5.498,9.896,20.524,1.467,38.116c13.194,1.465,23.822,15.026,11.728,46.912c9.529,1.466,36.284,12.827-11.728,72.934
			C438.645,239.688,338.04,299.427,344.179,252.515z"/>
		<path fill="#522D7E" d="M344.179,252.515c0,0,15.668-105.918,50.485-157.229c19.792-27.488,31.244-44.163,58.365-28.037
			c6.964,5.497,7.605,23.089-0.825,40.681c13.194,1.466,21.166,15.942,9.071,47.828c9.529,1.467,35.092,3.116-12.918,63.222
			C429.665,238.038,338.04,299.427,344.179,252.515z"/>
		<path fill="#46276C" d="M416.195,85.115c0,0,25.015-4.398,17.867,29.412c12.92,4.123,27.488,9.071,12.645,42.88
			c8.246,2.749,26.663,35.459-17.042,59.098C422.519,184.346,416.195,85.115,416.195,85.115z"/>
		<g>
			<path fill="#B00600" d="M423.508,120.912c-0.219,0.01-0.427,0.021-0.623,0.029c14.282-43.121-10.13-37.873-23.265-32.534
				c-1.619,2.235-3.267,4.534-4.956,6.879c-34.817,51.31-50.485,157.229-50.485,157.229c-0.853,6.514,0.355,10.968,3.114,13.764
				c0.051-0.002,0.104-0.005,0.155-0.006C352.961,243.779,378.103,150.773,423.508,120.912z"/>
		</g>
		<g>
			<path fill="#CD0700" d="M413.998,120.849c17.865-42.056-1.243-37.781-14.378-32.442c-1.619,2.235-3.267,4.534-4.956,6.879
				c-34.817,51.31-50.485,157.229-50.485,157.229c-0.853,6.514,0.355,10.968,3.114,13.764c0.051-0.002,0.104-0.005,0.155-0.006
				C382.111,136.792,414.192,120.84,413.998,120.849z"/>
		</g>
		<path fill="#DA4540" d="M350.501,232.998c0,0,24.578-105.852,41.231-125.892c16.218-19.516,20.89-9.896,9.345,8.246
			C373.865,152.185,355.173,217.605,350.501,232.998z"/>
		<path d="M347.629,267.341c-2.754-2.315-4.277-5.938-4.271-10.948l0,0c0-1.229,0.09-2.545,0.274-3.949l0,0l0.545,0.071
			l-0.544-0.081c0.018-0.036,15.644-105.942,50.583-157.47l0,0c7.524-10.448,14.261-20.014,21.255-27.006l0,0
			c6.985-6.984,14.281-11.423,22.859-11.423l0,0c5.399,0,11.261,1.759,17.818,5.659l0,0l0.031,0.019l0.029,0.023
			c4.146,3.282,6.825,9.658,6.829,17.794l0,0c0,5.976-1.455,12.913-4.884,20.302l0,0c9.055,1.303,16.793,8.463,16.755,22.915l0,0
			c-0.002,6.479-1.522,14.424-5.1,24.019l0,0c2.711,0.508,6.446,1.741,9.636,4.414l0,0c3.46,2.895,6.233,7.524,6.226,14.582l0,0
			c-0.012,11.107-6.734,28.192-27.906,54.711l0,0l-0.016,0.019l-0.022,0.023c-6.906,7.033-24.625,19.386-44.125,30.039l0,0
			c-19.505,10.641-40.711,19.568-54.715,19.584l0,0C354.262,270.638,350.38,269.657,347.629,267.341L347.629,267.341z
			 M344.458,256.393c0.005,4.808,1.419,8.03,3.879,10.108l0,0c2.461,2.078,6.07,3.038,10.55,3.037l0,0
			c13.574,0.015,34.776-8.836,54.189-19.449l0,0c19.401-10.589,37.103-22.951,43.846-29.824l0,0
			c21.102-26.412,27.662-43.353,27.65-54.003l0,0c-0.008-6.77-2.597-11.013-5.834-13.74l0,0c-3.238-2.722-7.164-3.886-9.76-4.284
			l0,0l-0.671-0.103l0.241-0.634c3.712-9.785,5.263-17.813,5.262-24.254l0,0c-0.039-14.446-7.661-20.894-16.535-21.917l0,0
			l-0.771-0.086l0.337-0.698c3.599-7.514,5.099-14.538,5.099-20.516l0,0c0.004-7.88-2.616-13.925-6.382-16.908l0,0
			c-6.429-3.816-12.079-5.486-17.227-5.486l0,0c-8.171,0-15.184,4.21-22.081,11.1l0,0c-6.892,6.884-13.615,16.418-21.131,26.859l0,0
			c-26.019,38.323-41.383,107.506-47.409,139.669l0,0c-1.978,10.545-2.953,17.095-2.987,17.324l0,0
			C344.543,253.951,344.457,255.217,344.458,256.393L344.458,256.393z"/>
		<g>
			<path fill="#CB9C1E" d="M438.504,159.596c-0.205-0.067-0.405-0.125-0.593-0.172c20.025-39.695-5.654-38.914-14.403-38.512
				c-45.405,29.861-70.547,122.867-76.06,145.36c3.974-0.138,8.15-0.786,12.437-1.85
				C367.624,248.627,403.938,177.464,438.504,159.596z"/>
		</g>
		<g>
			<path fill="#EDB623" d="M428.565,159.332c20.025-39.695,3.691-38.821-5.058-38.419c-45.405,29.861-70.547,122.867-76.06,145.36
				c3.974-0.138,8.15-0.786,12.437-1.85C386.509,191.492,428.752,159.379,428.565,159.332z"/>
		</g>
		<g>
			<path fill="#B00600" d="M438.504,159.596c-34.566,17.868-70.88,89.031-78.619,104.827c24.176-6.004,51.845-25.253,66.297-40.861
				C467.612,178.917,446.398,162.119,438.504,159.596z"/>
		</g>
		<g>
			<path fill="#CD0700" d="M438.504,159.596c-34.566,17.868-70.88,89.031-78.619,104.827c19.202-10.809,43.507-26.535,57.959-42.145
				C459.276,177.634,446.398,162.119,438.504,159.596z"/>
		</g>
		<path fill="#DA4540" d="M365.063,255.781c0,0,44.868-72.897,62.324-83.693c16.999-10.514,18.08-2.158,4.914,8.499
			C402.753,201.28,372.408,245.456,365.063,255.781z"/>
		<path fill="#F2C85A" d="M355.249,242.743c0,0,34.624-89.661,51.685-105.151c16.617-15.085,19.52-6.082,7.164,8.378
			C385.71,174.861,361.245,229.842,355.249,242.743z"/>
		<g>
			
				<ellipse transform="matrix(0.72 -0.694 0.694 0.72 69.5199 329.1605)" fill="#4DAAD0" cx="442.676" cy="78.427" rx="13.377" ry="9.712"/>
		</g>
		<g>
			
				<ellipse transform="matrix(0.72 -0.694 0.694 0.72 68.2523 326.9602)" fill="#5AC6F3" cx="439.32" cy="78.897" rx="10.636" ry="7.721"/>
		</g>
		<g>
			
				<ellipse transform="matrix(0.4471 -0.8945 0.8945 0.4471 142.3194 481.3021)" fill="#4DAAD0" cx="460.485" cy="125.529" rx="10.205" ry="7.408"/>
		</g>
		<g>
			
				<ellipse transform="matrix(0.4472 -0.8944 0.8944 0.4472 139.8783 479.8337)" fill="#5AC6F3" cx="458.127" cy="126.755" rx="8.054" ry="5.846"/>
		</g>
		<g>
			
				<ellipse transform="matrix(0.4471 -0.8945 0.8945 0.4471 100.5349 514.8328)" fill="#4DAAD0" cx="466.723" cy="176.092" rx="13.497" ry="7.409"/>
		</g>
		<g>
			
				<ellipse transform="matrix(0.4472 -0.8945 0.8945 0.4472 97.6855 513.576)" fill="#5AC6F3" cx="464.307" cy="177.764" rx="10.922" ry="5.995"/>
		</g>
	</g>
	<g>
		<g>
			<path fill="#C1134B" d="M350.501,267.083c0,0,18.416-9.62,47.278-31.885c23.914-17.593,70.643-40.682,98.68-20.067
				c13.744,12.094,12.095,32.986-4.123,59.649c-6.046,10.995-6.046,25.562,18.967,42.056c7.696,5.772,13.194,16.492,3.298,27.213
				c-6.597,6.321-18.416,5.772-30.234-11.271c-4.674-6.598-9.622-7.696-32.437-7.146
				C422.243,325.633,359.296,279.453,350.501,267.083z"/>
			<path fill="#E11658" d="M350.501,267.083c0,0,18.416-9.62,47.278-31.885c23.914-17.593,66.521-36.834,94.557-16.219
				c13.744,12.095,4.674,25.839-11.544,52.502c-6.048,10.994-1.1,26.937,23.914,43.431c7.696,5.771,16.767,14.293,6.871,25.013
				c-6.597,6.323-16.491,3.849-28.312-13.194c-4.673-6.596-12.919-9.346-35.734-8.795
				C417.845,317.936,359.296,279.453,350.501,267.083z"/>
			<path fill="#C1134B" d="M455.503,217.88c0,0,28.037,6.048,7.147,29.412c4.948,6.598,15.394,21.166-6.598,34.91
				c5.498,8.795,12.645,35.458-29.412,26.662C434.062,278.903,455.503,217.88,455.503,217.88z"/>
			<g>
				<path fill="#56004B" d="M449.945,245.484c-0.072-0.037-0.143-0.077-0.215-0.117c9.346-2.474,15.118-8.52,14.843-17.866
					c-1.166-11.272-18.544-13.2-28.627-13.362c-14.653,5.671-28.338,13.829-38.167,21.06
					c-18.051,13.924-32.015,22.902-39.944,27.676c2.013,2.694,4.568,5.622,7.536,8.655
					C376.282,265.842,420.597,243.834,449.945,245.484z"/>
			</g>
			<g>
				<path fill="#640057" d="M442.584,241.52c11.82-1.099,14.294-3.574,14.019-12.919c-1.166-11.272-10.573-14.299-20.656-14.462
					c-14.653,5.671-28.338,13.829-38.167,21.06c-18.051,13.924-32.015,22.902-39.944,27.676c2.013,2.694,4.568,5.622,7.536,8.655
					C399.703,243.994,442.655,241.559,442.584,241.52z"/>
			</g>
			<path d="M505.51,348.306c-6.426-0.008-14.053-4.336-21.594-15.209l0,0c-1.976-2.775-3.886-4.466-7.263-5.551l0,0
				c-3.38-1.08-8.264-1.491-15.989-1.489l0,0c-2.576,0-5.468,0.044-8.734,0.124l0,0c-15.1-0.023-38.247-11.615-58.845-24.722l0,0
				c-20.594-13.133-38.505-27.718-43.032-34.058l0,0l0.447-0.318l0.255,0.486l-0.255-0.486l-0.447,0.318l-0.366-0.514l0.559-0.291
				c0.003-0.002,1.138-0.595,3.309-1.843l0,0c2.172-1.245,5.369-3.14,9.469-5.729l0,0c8.197-5.179,20.003-13.142,34.429-24.271l0,0
				c17.287-12.704,46.371-28.276,71.972-28.291l0,0c9.953,0,19.398,2.37,27.36,8.225l0,0l0.021,0.017l0.017,0.014
				c6.33,5.565,9.471,13.015,9.464,21.919l0,0c-0.004,10.804-4.564,23.76-13.468,38.406l0,0c-1.961,3.565-3.263,7.485-3.263,11.712
				l0,0c0,8.576,5.352,18.602,22.076,29.639l0,0c4.824,3.621,8.849,9.167,8.854,15.555l0,0c0.004,3.993-1.598,8.269-5.505,12.496
				l0,0c-2.502,2.399-5.761,3.86-9.463,3.86l0,0C505.516,348.306,505.512,348.306,505.51,348.306L505.51,348.306z M476.987,326.498
				c3.6,1.138,5.794,3.081,7.829,5.967l0,0c7.437,10.722,14.794,14.748,20.693,14.741l0,0c3.413-0.002,6.384-1.329,8.687-3.531l0,0
				c3.732-4.051,5.188-8.03,5.191-11.726l0,0c0.008-5.896-3.771-11.193-8.388-14.655l0,0
				c-16.843-11.099-22.545-21.455-22.545-30.538l0,0c0-4.455,1.373-8.56,3.411-12.263l0,0c8.857-14.562,13.323-27.365,13.32-37.855
				l0,0c-0.008-8.645-2.994-15.712-9.071-21.076l0,0c-7.736-5.68-16.914-7.998-26.691-7.998l0,0
				c-25.161-0.016-54.17,15.448-71.311,28.068l0,0c-25.966,20.032-43.493,29.845-46.793,31.636l0,0
				c4.86,6.312,22.406,20.566,42.358,33.264l0,0c20.494,13.076,43.666,24.572,58.238,24.551l0,0c3.26-0.081,6.158-0.124,8.748-0.124
				l0,0C468.427,324.958,473.39,325.355,476.987,326.498L476.987,326.498z"/>
		</g>
		<g>
			<path fill="#56004B" d="M368.327,274.452c23.13,22.141,65.848,47.496,84.151,28.09c8.248-10.17-4.397-23.364-6.871-25.563
				c0.253,0.014,0.498,0.018,0.744,0.024C415.238,264.861,378.06,272.182,368.327,274.452z"/>
		</g>
		<g>
			<path fill="#640057" d="M368.327,274.452c23.13,22.141,71.508,33.587,78.38,23.691c8.246-10.17,1.374-18.966-1.1-21.165
				c0.253,0.014,0.498,0.018,0.744,0.024C415.238,264.861,378.06,272.182,368.327,274.452z"/>
		</g>
		<g>
			<path fill="#BE671A" d="M449.945,245.484c-29.349-1.65-73.663,20.357-84.574,26.045c0.945,0.965,1.93,1.94,2.956,2.923
				c9.733-2.271,46.911-9.591,78.024,2.551c10.668,0.261,13.836-5.426,14.375-13.219
				C462.086,253.988,456.98,249.312,449.945,245.484z"/>
		</g>
		<g>
			<path fill="#DE781E" d="M449.945,245.484c-29.349-1.65-73.663,20.357-84.574,26.045c0.945,0.965,1.93,1.94,2.956,2.923
				c9.733-2.271,39.846-15.938,70.959-3.796c9.071,4.947,16.505-0.728,17.042-8.521C457.688,252.34,456.98,249.312,449.945,245.484z
				"/>
		</g>
		<g>
			
				<ellipse transform="matrix(0.9766 -0.215 0.215 0.9766 -37.6573 109.5184)" fill="#FFE600" cx="484.618" cy="227.867" rx="9.318" ry="7.091"/>
		</g>
		<g>
			
				<ellipse transform="matrix(0.9766 -0.215 0.215 0.9766 -37.7983 109.1295)" fill="#FFE66B" cx="482.681" cy="228.293" rx="7.335" ry="5.583"/>
		</g>
		<g>
			
				<ellipse transform="matrix(0.9766 -0.215 0.215 0.9766 -44.4425 108.5272)" fill="#FFE600" cx="476.669" cy="258.562" rx="9.318" ry="7.09"/>
		</g>
		<g>
			
				<ellipse transform="matrix(0.9766 -0.215 0.215 0.9766 -44.2885 108.0691)" fill="#FFE66B" cx="474.679" cy="257.641" rx="7.573" ry="5.763"/>
		</g>
		<g>
			
				<ellipse transform="matrix(0.9771 0.213 -0.213 0.9771 73.6691 -93.1195)" fill="#FFE600" cx="469.068" cy="295.391" rx="9.318" ry="7.931"/>
		</g>
		<g>
			
				<ellipse transform="matrix(0.9771 0.213 -0.213 0.9771 73.4858 -92.5757)" fill="#FFE66B" cx="466.467" cy="294.824" rx="6.656" ry="5.666"/>
		</g>
		<g>
			
				<ellipse transform="matrix(0.7901 0.613 -0.613 0.7901 305.4544 -237.5453)" fill="#FFE600" cx="499.542" cy="327.188" rx="14.539" ry="10.184"/>
		</g>
		<g>
			
				<ellipse transform="matrix(0.79 0.6131 -0.6131 0.79 303.8038 -237.6046)" fill="#FFE66B" cx="498.777" cy="324.716" rx="12.42" ry="8.7"/>
		</g>
		<path fill="#8B4081" d="M365.661,260.862c0,0,54.009-39.48,69.831-42.132c15.406-2.582,13.719,3.782,1.043,7.602
			C409.039,232.57,374.027,255.562,365.661,260.862z"/>
		<path fill="#8B4081" d="M373.571,274.94c0,0,53.062-4.353,65.043,0.651c11.667,4.874,7.958,8.625-2.318,5.811
			C414.824,273.852,381.465,274.841,373.571,274.94z"/>
		<path fill="#EAAB72" d="M371.082,269.073c0,0,54.329-21.529,68.488-20.12c13.787,1.37,11.078,6.482-0.6,6.823
			C414.045,254.738,379.337,266.443,371.082,269.073z"/>
	</g>
	<g>
		<path fill="#F4B80A" d="M401.329,304.904c22.739,22.774,35.293,49.19,25.858,56.525c-15.114,11.756-39.441-5.24-57.72-26.177
			c-21.167-24.245-23.576-42.685-15.119-51.127C362.806,275.681,378.591,282.128,401.329,304.904z"/>
		<path fill="#F4B80A" d="M395.306,309.14c22.738,22.775,38.481,47.828,31.882,52.29c-15.86,10.728-39.441-5.24-57.72-26.177
			c-21.167-24.245-24.3-43.477-15.119-51.127C360.946,278.628,372.567,286.364,395.306,309.14z"/>
		<path fill="#F4E60A" d="M395.306,309.14c22.738,22.775,37.886,47.054,31.882,52.29c-11.267,9.831-33.394-8.538-51.673-29.476
			c-21.167-24.244-30.346-40.178-21.166-47.828C360.946,278.628,372.567,286.364,395.306,309.14z"/>
		<g>
			<g>
				<path fill="#ECB818" d="M412.446,317.298c-3.338-4.16-7.064-8.337-11.117-12.394c-3.181-3.188-6.222-6.042-9.128-8.593
					c-1.512,23.709-23.271,25.801-32.97,25.543c2.75,4.229,6.137,8.702,10.236,13.398c3.062,3.507,6.294,6.902,9.625,10.073
					C411.043,339.705,412.931,323.44,412.446,317.298z"/>
			</g>
		</g>
		<g>
			<path fill="#F7F58C" d="M367.731,333.224c-0.2-0.237-0.395-0.474-0.591-0.711C367.336,332.75,367.532,332.986,367.731,333.224z"
				/>
			<path fill="#F7F58C" d="M376.025,342.305c-0.516-0.521-1.031-1.045-1.541-1.575C374.996,341.26,375.509,341.785,376.025,342.305z
				"/>
			<path fill="#F7F58C" d="M366.11,331.258c-0.247-0.305-0.493-0.61-0.733-0.912C365.619,330.647,365.864,330.953,366.11,331.258z"
				/>
			<path fill="#F7F58C" d="M373.964,340.187c-0.696-0.733-1.387-1.472-2.069-2.218C372.579,338.715,373.268,339.455,373.964,340.187
				z"/>
			<path fill="#F7F58C" d="M371.671,337.723c-0.743-0.816-1.479-1.64-2.203-2.47C370.193,336.085,370.929,336.907,371.671,337.723z"
				/>
			<path fill="#ECCA18" d="M374.485,340.729c-0.173-0.182-0.347-0.361-0.521-0.543C374.137,340.368,374.312,340.548,374.485,340.729
				z"/>
			<path fill="#ECCA18" d="M365.377,330.346c-0.236-0.297-0.464-0.592-0.694-0.886C364.913,329.754,365.142,330.049,365.377,330.346
				z"/>
			<path fill="#ECCA18" d="M367.141,332.513c-0.349-0.419-0.692-0.839-1.03-1.255C366.448,331.674,366.792,332.094,367.141,332.513z
				"/>
			<path fill="#ECCA18" d="M371.895,337.969c-0.075-0.082-0.15-0.165-0.224-0.246C371.745,337.804,371.819,337.887,371.895,337.969z
				"/>
			<path fill="#ECCA18" d="M369.468,335.253c-0.595-0.681-1.17-1.355-1.736-2.029C368.296,333.896,368.872,334.571,369.468,335.253z
				"/>
			<path fill="#ECCA18" d="M376.025,342.305c1.012,1.025,2.033,2.036,3.067,3.021c0.006-0.001,0.013-0.003,0.019-0.004
				C378.073,344.339,377.044,343.334,376.025,342.305z"/>
			<path fill="#ECB818" d="M410.944,326.46c-4.603-5.674-9.897-11.57-15.639-17.32c-1.611-1.614-3.161-3.145-4.663-4.607
				c-5.432,15.992-22.978,17.547-31.411,17.322c1.596,2.452,3.413,4.992,5.451,7.605c0.23,0.294,0.458,0.589,0.694,0.886
				c0.241,0.302,0.487,0.607,0.733,0.912c0.338,0.416,0.681,0.836,1.03,1.255c0.196,0.237,0.391,0.474,0.591,0.711
				c0.566,0.674,1.142,1.349,1.736,2.029c0.724,0.83,1.46,1.653,2.203,2.47c0.074,0.081,0.149,0.164,0.224,0.246
				c0.682,0.746,1.373,1.484,2.069,2.218c0.173,0.182,0.347,0.361,0.521,0.543c0.51,0.53,1.024,1.054,1.541,1.575
				c1.019,1.029,2.048,2.034,3.086,3.018C399.982,341.646,408.017,333.428,410.944,326.46z"/>
			<g>
				<path fill="#ECCA18" d="M410.944,326.46c-4.603-5.674-9.897-11.57-15.639-17.32c-0.591-0.593-1.17-1.167-1.746-1.739
					c-0.196-0.194-0.393-0.39-0.586-0.582c-0.433-0.427-0.859-0.845-1.281-1.261c-0.355-0.348-0.702-0.683-1.051-1.024
					c-4.103,12.079-15.116,15.919-23.894,16.979c2.634,3.29,5.561,6.77,8.766,10.441c3.558,4.074,7.262,8.052,11.001,11.741
					C401.954,339.56,408.393,332.535,410.944,326.46z"/>
				<path fill="#ECCA18" d="M390.643,304.532L390.643,304.532c0.348,0.343,0.694,0.678,1.05,1.025
					C391.341,305.213,390.989,304.87,390.643,304.532z"/>
			</g>
		</g>
		<path d="M415.671,365.83c-14.659-0.039-32.419-13.985-46.619-30.217l0,0c-13.893-15.922-19.793-29.382-19.803-39.318l0,0
			c-0.003-5.251,1.671-9.529,4.71-12.559l0,0c2.458-2.464,5.568-3.727,9.198-3.722l0,0c9.34,0.03,22.132,8.067,38.56,24.5l0,0
			l-0.389,0.39l-0.39,0.387c-16.328-16.38-29.079-24.208-37.781-24.177l0,0c-3.38,0.006-6.148,1.137-8.422,3.4l0,0
			c-2.809,2.805-4.384,6.756-4.387,11.78l0,0c-0.011,9.497,5.727,22.793,19.531,38.596l0,0c14.073,16.151,31.823,29.879,45.79,29.84
			l0,0c4.092-0.003,7.852-1.15,11.179-3.734l0,0c1.984-1.548,2.945-4.017,2.951-7.315l0,0c0.036-11.148-11.37-30.902-28.861-48.39
			l0,0l0.39-0.387l0.389-0.39c17.593,17.655,29.146,37.373,29.183,49.166l0,0c0.005,3.497-1.05,6.375-3.374,8.184l0,0
			c-3.521,2.739-7.551,3.966-11.842,3.966l0,0C415.68,365.83,415.676,365.83,415.671,365.83L415.671,365.83z"/>
	</g>
	<g>
		<path fill="#F4B80A" d="M312.934,264.793c0,0-18.691,11.911-40.498,6.414c-3.299,2.198-5.131,4.214-10.079,2.748
			c-3.482,0-7.514,6.964-11.912,1.833c-2.199-3.482,4.581-4.398,5.498-5.681c-3.849-0.366-9.896,0-9.896-4.764
			c0.367-3.116,6.047-3.666,8.796-2.384c-4.214-2.749-8.429-6.229-5.68-10.262c1.832-2.565,9.895,0,14.293,5.681
			c1.283-5.314-3.482-14.294,4.948-14.294c6.963,1.467,1.833,13.744,5.864,17.226c4.031,2.933,22.723,8.247,38.482-3.298
			C312.934,259.296,312.934,264.793,312.934,264.793z"/>
	</g>
	<g>
		<path fill="#F4E60A" d="M312.934,264.793c0,0-17.674,9.525-39.481,4.028c-2.107,3.207-6.148,4.677-11.096,3.21
			c-3.482,0-6.047,7.891-10.445,2.76c-2.199-3.482,3.115-3.401,4.031-4.684c-3.849-0.366-9.896,0-9.896-4.764
			c0.367-3.116,6.047-3.666,8.796-2.384c-4.214-2.749-8.429-6.229-5.68-10.262c1.832-2.565,9.895,0,14.293,5.681
			c1.283-5.314-3.482-14.294,4.948-14.294c6.963,1.467,1.833,13.744,5.864,17.226c4.031,2.933,22.723,8.247,38.482-3.298
			C312.934,259.296,312.934,264.793,312.934,264.793z"/>
	</g>
	<path d="M313.295,257.935l-0.13-0.908l-0.74,0.541c-7.245,5.307-15.112,6.996-21.867,6.998c-7.683,0.013-13.96-2.233-15.95-3.688
		c-0.612-0.531-1.002-1.365-1.238-2.415c-0.009-0.057-0.017-0.118-0.026-0.174l-0.009,0.001c-0.065-0.314-0.119-0.647-0.16-0.997
		c-0.287-2.414-0.037-5.46-0.375-8.101c-0.308-2.612-1.367-5.045-4.285-5.645l-0.056-0.012h-0.057
		c-2.223-0.007-3.724,0.614-4.609,1.729c-0.879,1.111-1.094,2.559-1.096,4.09c0.002,2.169,0.446,4.594,0.442,6.701
		c0,0.359-0.012,0.708-0.04,1.043c-3.361-3.742-8.121-5.926-11.372-5.947c-1.255,0.002-2.371,0.339-3.014,1.229
		c-0.67,0.977-0.981,1.963-0.979,2.921c0.046,2.57,2.065,4.674,4.474,6.488c-0.242-0.016-0.486-0.023-0.731-0.023
		c-1.338,0.002-2.704,0.24-3.818,0.786c-1.107,0.534-2.01,1.445-2.159,2.729l-0.003,0.035v0.029c-0.028,2.66,1.822,4.027,3.908,4.56
		c1.516,0.416,3.24,0.527,4.791,0.625c-0.832,0.366-1.889,0.775-2.8,1.315c-0.986,0.587-1.923,1.394-1.939,2.639
		c0,0.519,0.179,1.055,0.523,1.599l0.023,0.035l0.023,0.029c1.237,1.456,2.568,2.077,3.862,2.077h0.025
		c1.762-0.013,3.3-1.024,4.717-1.949c1.374-0.921,2.659-1.748,3.648-1.769c1.178,0.343,2.206,0.497,3.134,0.498
		c2.618-0.006,4.303-1.236,6.259-2.606c0,0,0.765-0.267,1.025-0.562c3.997,0.971,7.887,1.371,11.574,1.371
		c16.502-0.008,28.911-7.924,28.959-7.949l0.254-0.162v-0.301C313.481,264.771,313.489,259.329,313.295,257.935z M310.497,265.533
		c-4.188,2.189-14.118,6.574-26.226,6.572c-3.479,0-7.139-0.369-10.898-1.245c0.664-1.205-0.195-2.688-0.195-2.688
		s-0.127,0.683-0.449,1.477c-0.145,0.362-0.335,0.738-0.557,1.071l-0.041,0.026c-2.574,1.726-4.111,3.162-6.717,3.156
		c-0.822,0.001-1.766-0.141-2.9-0.476l-0.076-0.022h-0.079c-1.546,0.022-2.92,1.037-4.331,1.95c-1.402,0.934-2.813,1.78-4.112,1.769
		c-0.946-0.008-1.914-0.393-3.026-1.666c-0.247-0.402-0.33-0.719-0.33-0.976c0-0.403,0.201-0.761,0.63-1.146
		c0.637-0.57,1.73-1.066,2.746-1.497c1.023-0.463,1.933-0.756,2.455-1.412l0.558-0.777l-0.953-0.09
		c-1.962-0.184-4.412-0.191-6.296-0.716c-1.891-0.563-3.061-1.391-3.101-3.468c0.107-0.796,0.646-1.39,1.546-1.84
		c0.903-0.444,2.131-0.673,3.335-0.672c1.177-0.001,5.04,0.544,5.839,0.92l-2.173-1.285c-3.28-2.105-6.369-4.697-6.309-7.199
		c0.001-0.722,0.223-1.471,0.782-2.291c0.315-0.456,1.032-0.759,2.112-0.759c3.009-0.021,8.181,2.414,11.292,6.466l0.701,0.906
		l0.269-1.114c0.188-0.778,0.25-1.604,0.25-2.453c-0.003-2.246-0.446-4.679-0.443-6.701c-0.003-1.436,0.226-2.622,0.856-3.404
		c0.618-0.77,1.679-1.298,3.688-1.313c1.53,0.352,2.312,1.195,2.837,2.474c0.784,1.938,0.699,4.855,0.747,7.619
		c0.038,1.389,0.095,2.759,0.368,3.977c0.319,2.166,0.324,6.081,0.324,6.088c0,0.082,1.099-1.594,1.015-3.337
		c0.087,0.093,0.178,0.185,0.275,0.271l0.017,0.014l0.019,0.015c2.327,1.673,8.676,3.896,16.614,3.91
		c6.688,0.001,14.479-1.62,21.722-6.643c0.04,0.786,0.067,1.869,0.081,2.87c0.016,1.093,0.02,2.104,0.022,2.593
		C312.056,264.683,311.419,265.053,310.497,265.533z"/>
	<g>
		
			<ellipse transform="matrix(0.4968 0.8679 -0.8679 0.4968 403.6625 -161.309)" fill="#F4E60A" cx="340.927" cy="267.422" rx="32.72" ry="29.788"/>
		<path fill="#F4B80A" d="M357.181,295.819c-10.529,5.349-30.169-6.95-39.146-22.634c-8.977-15.683-7.639-25.989,6.639-34.161
			s33.129-2.084,42.106,13.601C375.756,268.309,371.849,288.369,357.181,295.819z"/>
		<path fill="#F4E60A" d="M357.181,295.819c-10.529,5.349-29.543-0.254-39.622-15.253c-7.724-11.493-7.681-25.803-4.075-28.788
			c4.398,9.347,34.818-6.411,42.514,4.585C364.976,272.046,371.849,288.369,357.181,295.819z"/>
		<path d="M343.421,299.998c-11.195-0.001-22.458-6.387-28.823-17.507l0,0c-3.223-5.628-4.763-11.727-4.763-17.629l0,0
			c-0.002-10.781,5.148-20.927,14.564-26.315l0,0c4.389-2.513,9.206-3.703,14.034-3.703l0,0
			c11.193,0.001,22.455,6.385,28.823,17.508l0,0c3.222,5.629,4.761,11.728,4.761,17.627l0,0c0.002,10.78-5.147,20.925-14.562,26.317
			l0,0c-4.388,2.512-9.2,3.703-14.027,3.702l0,0C343.426,299.998,343.423,299.998,343.421,299.998L343.421,299.998z
			 M324.946,239.501c-9.04,5.174-14.008,14.923-14.01,25.361l0,0c0,5.711,1.489,11.62,4.615,17.083l0,0
			c6.176,10.791,17.096,16.956,27.87,16.954l0,0c4.648,0,9.27-1.145,13.487-3.557l0,0c9.038-5.176,14.007-14.926,14.009-25.364l0,0
			c0-5.71-1.488-11.617-4.616-17.081l0,0c-6.177-10.794-17.095-16.956-27.868-16.954l0,0
			C333.784,235.943,329.164,237.087,324.946,239.501L324.946,239.501z"/>
	</g>
	<g>
		<path fill="#F4B80A" d="M385.135,227.96c0,0-32.252,26.754-39.949,20.89c-3.665-4.031,35.551-24.188,30.054-36.283
			c-4.032-6.963-8.43-10.079-4.214-13.927c5.498-3.298,10.445,10.262,15.575,5.864c3.666-4.031,7.697-11.361,12.827-8.063
			c3.299,2.932-1.832,9.896-4.397,12.461c6.598-2.931,12.461-7.696,13.928-2.199c1.099,6.414-10.628,8.796-10.996,11.362
			c4.032-1.467,10.263-2.933,10.996,1.099c0.55,7.514-9.53,3.665-11.729,6.598C395.03,228.692,386.967,229.426,385.135,227.96z"/>
	</g>
	<g>
		<path fill="#F4E60A" d="M383.212,224.479c0,0-30.329,30.235-38.026,24.371c-3.665-4.031,35.551-24.188,30.054-36.283
			c-4.032-6.963-8.43-10.079-4.214-13.927c5.498-3.298,10.445,10.262,15.575,5.864c3.666-4.031,5.359-10.298,10.491-7
			c3.299,2.932-1.971,10.527-4.535,13.093c8.189-3.64,12.042-5.716,12.879-3.417c1.374,3.298-6.919,8.834-7.285,11.4
			c4.032-1.466,8.247-2.073,8.522-0.699c0.551,7.513-9.993,3.94-12.191,6.873C392.281,227.685,385.043,225.944,383.212,224.479z"/>
	</g>
	<path d="M409.503,219.093l-0.005-0.029c-0.194-1.111-0.815-1.942-1.654-2.415c-0.836-0.479-1.852-0.648-2.937-0.648
		c-1.634,0.002-3.459,0.39-5.134,0.887c0.11-0.072,0.229-0.146,0.354-0.22c1.536-0.95,3.855-2.037,5.815-3.454
		c1.947-1.412,3.628-3.221,3.637-5.673c0-0.303-0.025-0.613-0.08-0.93l-0.005-0.028l-0.006-0.021
		c-0.479-1.977-1.784-2.975-3.328-2.934c-2.437,0.038-5.534,1.904-8.957,3.632c1.84-2.313,3.812-5.516,3.846-8.257
		c0.007-1.108-0.364-2.187-1.256-2.972l-0.034-0.03l-0.034-0.023c-0.973-0.625-1.951-0.917-2.897-0.917
		c-2.245,0.015-4.137,1.541-5.856,3.375c-1.711,1.836-3.279,4.049-4.752,5.671c-0.645,0.54-1.217,0.731-1.797,0.734
		c-1.541,0.043-3.429-1.646-5.338-3.486c-1.932-1.801-3.899-3.751-6.258-3.788c-0.693,0-1.401,0.191-2.084,0.603l-0.047,0.028
		l-0.04,0.037c-1.286,1.16-1.899,2.382-1.894,3.657c0.069,3.117,3.183,6.022,5.991,10.935c0.316,0.712,0.465,1.449,0.465,2.223
		c0.014,2.65-1.817,5.805-4.678,9.038c-4.279,4.852-10.764,9.881-16.183,14.142c-2.711,2.132-5.155,4.07-6.942,5.724
		c-1.77,1.684-2.958,2.944-3.021,4.264c-0.003,0.359,0.132,0.731,0.386,1.005l0.032,0.037l0.043,0.031
		c0.884,0.672,2.014,0.952,3.275,0.952c5.72-0.037,14.917-5.521,22.867-10.963c6.922-4.759,12.799-9.511,14.181-10.643
		c0.231,0.124,0.495,0.223,0.778,0.303c0.39,0.199,1.308,0.236,1.308,0.236c0.419,0.042,0.864,0.063,1.334,0.069
		c3.207-0.03,7.339-0.929,9.071-3.151c0.362-0.507,1.213-0.824,2.375-0.984c1.735-0.254,4.008-0.188,5.931-0.726
		c1.927-0.495,3.596-1.895,3.553-4.646c0-0.196-0.006-0.4-0.021-0.611L409.503,219.093z M407.126,222.671
		c-1.191,0.857-3.271,1.022-5.279,1.157c-1.995,0.173-3.972,0.24-5.058,1.604c-1.2,1.683-5.209,2.738-8.191,2.709
		c-0.886,0.009-1.684-0.093-2.27-0.246c-0.879-0.48-1.636-1.214-2.208-1.931c-0.403-0.499-0.716-0.983-0.927-1.337
		c-0.209-0.354-0.31-0.569-0.311-0.569c0,0-0.119,2.346,1.512,3.798c-0.628,0.512-1.988,1.612-3.859,3.065
		c-3.928,3.048-10.076,7.623-16.235,11.425c-6.145,3.809-12.37,6.815-16.17,6.794c-1.079,0-1.934-0.231-2.563-0.692
		c-0.053-0.071-0.07-0.125-0.074-0.233c-0.025-0.312,0.363-1.072,1.186-1.97c2.854-3.201,10.251-8.402,16.907-14.026
		c5.652-4.815,10.855-9.887,12.321-14.678c0.676,2.416,2.391,3.393,2.391,3.393h-0.001c0-0.001-0.304-0.604-0.707-1.728
		c-0.404-1.121-0.9-2.742-1.259-4.721l-0.041,0.007c-0.061-0.737-0.235-1.459-0.55-2.152l-0.013-0.029l-0.011-0.019
		c-2.931-4.995-5.925-8.103-5.854-10.401c0.005-0.908,0.381-1.771,1.495-2.808c0.514-0.296,0.99-0.416,1.47-0.416
		c1.665-0.037,3.593,1.651,5.502,3.486c1.929,1.797,3.827,3.746,6.095,3.788c0.861,0.003,1.732-0.326,2.535-1.019l0.023-0.02
		l0.027-0.029c1.545-1.701,3.113-3.919,4.767-5.689c1.653-1.781,3.364-3.039,5.053-3.023c0.711,0,1.453,0.205,2.267,0.719
		c0.604,0.559,0.85,1.248,0.855,2.122c0.046,2.993-3.384,7.622-5.308,9.51l-2.085,2.084c4.427-1.993,11.277-5.915,13.604-5.87
		c1.111,0.042,1.759,0.424,2.259,2.095c0.042,0.247,0.06,0.486,0.061,0.718c0.034,2.507-2.415,4.457-5.131,6.04
		c-1.344,0.79-2.714,1.484-3.8,2.152c-1.064,0.687-1.938,1.261-2.131,2.255l-0.13,0.907l0.862-0.314
		c2.048-0.747,4.683-1.483,6.757-1.481c0.969-0.001,1.802,0.162,2.388,0.504c0.579,0.341,0.953,0.814,1.117,1.636
		c0.011,0.173,0.017,0.338,0.017,0.498C408.414,221.296,407.915,222.101,407.126,222.671z"/>
	<g>
		<path fill="#F7F58C" d="M277.659,223.652c0,0,8.796,45.08,50.027,28.862c15.118-8.246,41.507-22.814,21.166-55.525
			c-9.163-12.278-28.312-20.615-51.402-13.743C286.18,188.194,270.787,198.089,277.659,223.652z"/>
		<path fill="#F4B80A" d="M280.618,231.366c0,0,10.234,34.893,47.067,21.148c15.118-8.246,41.507-22.814,21.166-55.525
			c-9.163-12.278-28.312-20.615-51.402-13.743C286.18,188.194,274.296,209.101,280.618,231.366z"/>
		<path fill="#F4E60A" d="M278.431,226.677c0,0,7.503,39.831,47.084,23.915c15.118-8.246,33.787-27.979,18.394-56.566
			c-9.163-12.278-28.593-16.002-46.46-10.779C280.63,188.606,272.108,204.412,278.431,226.677z"/>
		<path fill="#F4B80A" d="M294.024,241.024c0,0,11.122,4.717,22.529-8.115C310.386,236.447,305.991,239.703,294.024,241.024z"/>
		<path d="M283.728,240.13c-4.92-8.039-6.541-16.033-6.607-16.361l0,0c-1.187-4.422-1.716-8.39-1.717-11.96l0,0
			c-0.005-17.287,12.447-24.97,21.825-29.065l0,0l0.031-0.015l0.033-0.009c5.794-1.726,11.349-2.502,16.568-2.502l0,0
			c15.756,0.001,28.436,7.073,35.431,16.443l0,0l0.016,0.022l0.01,0.016c5.314,8.545,7.491,15.912,7.491,22.29l0,0
			c0.002,9.11-4.451,16.12-10.263,21.563l0,0c-5.811,5.451-12.997,9.388-18.597,12.442l0,0l-0.031,0.018l-0.031,0.014
			c-6.34,2.492-11.939,3.559-16.882,3.559l0,0C297.249,256.588,288.727,248.312,283.728,240.13L283.728,240.13z M278.195,223.531
			l0.002,0.015c0.005,0.006,0.387,1.984,1.392,4.991l0,0c1.005,3.007,2.625,7.019,5.076,11.02l0,0
			c4.917,8.009,13.068,15.923,26.34,15.927l0,0c4.773,0,10.225-1.025,16.442-3.466l0,0c5.593-3.048,12.682-6.949,18.348-12.266l0,0
			c5.678-5.332,9.912-12.03,9.914-20.763l0,0c0-6.121-2.085-13.277-7.316-21.694l0,0c-6.774-9.063-19.121-15.979-34.532-15.979l0,0
			c-5.099,0-10.535,0.756-16.217,2.445l0,0c-9.285,4.1-21.134,11.402-21.14,28.047l0,0c0,3.466,0.514,7.349,1.685,11.701l0,0
			l-0.53,0.143l0.53-0.143L278.195,223.531L278.195,223.531z"/>
	</g>
	<g>
		<path d="M298.374,242.524c-3.755-0.001-5.974-1.894-5.974-1.894c0.001-0.002,0.574,0.193,1.624,0.394l0,0
			c1.047,0.198,2.55,0.401,4.35,0.401l0,0c4.9-0.008,11.956-1.473,18.179-8.517l0,0c0,0-1.664,3.303-2.939,4.307
			c-5.421,4.271-11.077,5.309-15.213,5.309l0,0C298.392,242.524,298.383,242.524,298.374,242.524L298.374,242.524z M292.053,241.675
			C292.053,241.675,292.054,241.675,292.053,241.675L292.053,241.675L292.053,241.675L292.053,241.675L292.053,241.675z"/>
	</g>
	<g>
		<g>
			<path fill="#CC0000" d="M297.588,241.96c2.14,3.561,7.053,10.167,12.781,7.44c3.749-1.875,3.753-8.512,3.318-12.953
				C307.886,241.213,301.794,242.096,297.588,241.96z"/>
			<path fill="#7D0000" d="M297.588,241.96c2.14,3.561,8.21,5.831,11.406,4.232c2.199-1.1,3.637-4.321,4.692-9.745
				C307.886,241.213,301.794,242.096,297.588,241.96z"/>
			<path d="M307.625,250.592c-4.958-0.062-8.674-5.35-10.51-8.348l0,0l-0.514-0.856l0.998,0.023c0.255,0.005,0.515,0.011,0.777,0.01
				l0,0c4.07-0.001,9.63-1.021,14.96-5.399l0,0l0.797-0.653l0.1,1.025c0.111,1.139,0.194,2.423,0.195,3.741l0,0
				c-0.021,3.854-0.654,8.117-3.824,9.762l0,0c-1.005,0.477-2.005,0.695-2.971,0.695l0,0
				C307.63,250.592,307.629,250.592,307.625,250.592L307.625,250.592z M307.625,249.492c0.806-0.001,1.636-0.176,2.498-0.584l0,0
				c2.436-1.161,3.226-5.002,3.206-8.773l0,0c0-0.898-0.041-1.787-0.103-2.623l0,0c-5.229,3.966-10.626,4.979-14.648,5.009l0,0
				C300.479,245.479,303.91,249.548,307.625,249.492L307.625,249.492z M297.575,242.509l0.013-0.549L297.575,242.509
				L297.575,242.509z"/>
		</g>
	</g>
	<g>
		<path fill="#F4B80A" d="M319.042,225.251c0,0-9.547-29.452,3.009-37.332c5.442-3.481,21.404-5.589,28.102,11.637
			C355.383,215.498,349.597,234.964,319.042,225.251z"/>
		<path fill="#DBDBDB" d="M319.532,224.844c0,0-4.582-27.121,6.414-35c4.764-3.482,18.508-7.513,24.372,9.712
			C354.899,215.498,346.286,234.556,319.532,224.844z"/>
		<path fill="#FFFFFF" d="M319.384,222.094c0,0-3.87-22.91,5.418-29.566c4.024-2.941,15.635-6.347,20.588,8.204
			C349.261,214.199,341.985,230.299,319.384,222.094z"/>
		<path d="M332.759,228.031c-3.866,0-8.326-0.822-13.415-2.67l0,0l0.188-0.518l0.541-0.091l-0.541,0.091l-0.188,0.518l-0.302-0.11
			l-0.053-0.315c-0.002-0.019-0.954-5.645-0.954-12.548l0,0c0.021-8.272,1.306-18.436,7.585-22.988l0,0
			c2.127-1.549,5.857-3.163,9.986-3.169l0,0c5.581-0.028,11.838,3.087,15.24,13.174l0,0c0.783,2.731,1.189,5.552,1.189,8.313l0,0
			c-0.001,5.275-1.477,10.346-4.647,14.117l0,0c-3.162,3.771-8.023,6.197-14.602,6.197l0,0
			C332.777,228.031,332.768,228.031,332.759,228.031L332.759,228.031z M332.759,226.932c12.604-0.028,18.129-9.05,18.176-19.215l0,0
			c0-2.653-0.388-5.376-1.138-7.984l0,0c-3.345-9.731-9.024-12.375-14.19-12.403l0,0c-3.831-0.005-7.409,1.543-9.342,2.961l0,0
			c-5.712,4.041-7.152,13.921-7.13,22.097l0,0c0,3.401,0.236,6.497,0.471,8.741l0,0c0.168,1.612,0.337,2.779,0.417,3.308l0,0
			C324.89,226.171,329.125,226.932,332.759,226.932L332.759,226.932z"/>
	</g>
	<g>
		<g>
			
				<ellipse transform="matrix(0.8872 -0.4613 0.4613 0.8872 -58.2433 178.4759)" fill="#CE0600" cx="335.972" cy="208.382" rx="10.959" ry="14.476"/>
			<g>
				
					<ellipse transform="matrix(0.8873 -0.4612 0.4612 0.8873 -57.9106 177.4073)" fill="#F00700" cx="333.989" cy="207.178" rx="9.023" ry="11.919"/>
			</g>
			<path fill="#690600" d="M338.629,222.738c-4.96,0-10.011-3.552-12.869-9.047c-3.822-7.352-2.351-15.714,3.28-18.642
				c1.308-0.68,2.746-1.024,4.275-1.024c4.959,0,10.009,3.551,12.868,9.047c3.822,7.352,2.352,15.715-3.279,18.643
				C341.596,222.395,340.158,222.738,338.629,222.738z M333.316,195.125c-1.351,0-2.618,0.304-3.768,0.901
				c-5.093,2.648-6.354,10.346-2.812,17.158c2.63,5.058,7.409,8.456,11.893,8.456c1.35,0,2.618-0.304,3.768-0.901
				c5.092-2.648,6.354-10.346,2.811-17.159C342.579,198.522,337.799,195.125,333.316,195.125z"/>
		</g>
	</g>
	<g>
		<path fill="#F4B80A" d="M288.73,232.484c0,0,11.288-31.744-5.4-37.425C272.873,191.579,260.479,224.324,288.73,232.484z"/>
		<path fill="#DBDBDB" d="M288.196,232.358c0,0,7.513-31.337-6.231-37.018C273.353,191.859,259.608,226.128,288.196,232.358z"/>
		<path fill="#FFFFFF" d="M286.283,231.66c0,0,6.678-27.853-5.538-32.901C273.09,195.665,260.875,226.123,286.283,231.66z"/>
		<g>
			
				<ellipse transform="matrix(0.9907 -0.1362 0.1362 0.9907 -26.5941 39.814)" fill="#CE0600" cx="277.723" cy="214.296" rx="5.406" ry="12.152"/>
			<path fill="#690600" d="M279.044,226.907c-3.191,0-6.295-5.073-7.22-11.8c-0.97-7.055,0.861-12.938,4.17-13.394
				c3.315-0.457,6.665,4.756,7.63,11.772c0.97,7.054-0.862,12.937-4.17,13.393C279.317,226.898,279.181,226.907,279.044,226.907z
				 M276.404,202.785c-0.087,0-0.174,0.006-0.26,0.018c-2.608,0.359-4.087,5.925-3.23,12.155c0.851,6.186,3.754,11.197,6.391,10.832
				c2.607-0.358,4.086-5.925,3.23-12.156C281.711,207.652,278.961,202.785,276.404,202.785z"/>
		</g>
		
			<ellipse transform="matrix(0.9907 -0.1362 0.1362 0.9907 -26.4016 39.738)" fill="#F00700" cx="277.148" cy="212.774" rx="4.81" ry="9.894"/>
		<ellipse transform="matrix(0.9907 -0.1362 0.1362 0.9907 -26.7188 39.8087)" cx="277.465" cy="215.1" rx="1.975" ry="4.439"/>
		<path d="M288.078,232.894c-13.161-2.836-17.671-11.727-17.635-20.117l0,0c0.002-4.634,1.325-9.133,3.235-12.51l0,0
			c1.918-3.356,4.398-5.688,7.013-5.725l0,0c0.501,0,1.001,0.094,1.484,0.291l0,0c6.947,2.92,8.606,11.749,8.62,20l0,0
			c-0.001,9.057-2.06,17.629-2.064,17.651l0,0l-0.125,0.523L288.078,232.894L288.078,232.894z M288.196,232.357l0.117-0.537
			L288.196,232.357L288.196,232.357z M274.634,200.809c-1.815,3.202-3.094,7.544-3.091,11.968l0,0
			c0.036,7.907,3.95,16.008,16.237,18.92l0,0c0.18-0.818,0.538-2.54,0.896-4.821l0,0c0.509-3.239,1.019-7.597,1.019-12.043l0,0
			c0.013-8.17-1.758-16.479-7.937-18.983l0,0c-0.35-0.142-0.703-0.207-1.068-0.207l0,0c-0.017,0-0.034-0.001-0.051-0.001l0,0
			C278.769,195.643,276.424,197.618,274.634,200.809L274.634,200.809z"/>
	</g>
	<g>
		<path fill="#F4B80A" d="M307.986,194.791c0,0-7.88-35.733,9.712-64.137c7.33-12.095,30.787-21.807,43.981-6.414
			c5.498,6.597,8.979,28.038-7.88,30.603c-10.629,1.282-22.723-13.561-10.629-19.975c3.666-1.1,5.498,1.099,5.131,6.047
			c-1.466,6.231,9.711,11.911,13.194,1.1c0.549-4.581-1.649-22.54-16.126-21.807C306.887,123.69,308.903,171.884,307.986,194.791z"
			/>
		<path fill="#F4E60A" d="M307.986,194.791c0,0-7.88-35.733,9.712-64.137c7.33-12.095,30.787-21.807,43.981-6.414
			c5.498,6.597,5.864,25.471-8.43,28.22c-7.971,1.375-15.209-7.485-10.17-14.019c2.933-1.924,5.461-1.467,5.095,3.481
			c-1.43,4.907,9.84,10.904,13.323,0.092c0.549-4.581-1.649-22.54-16.126-21.807C306.887,123.69,308.903,171.884,307.986,194.791z"
			/>
		<path d="M305.677,175.398c0.002-12.802,2.197-29.924,11.552-45.03l0,0c4.77-7.836,15.958-14.587,27.041-14.605l0,0
			c6.444-0.005,12.87,2.328,17.833,8.125l0,0c2.581,3.117,4.643,9.128,4.654,15.149l0,0c0.039,7.365-3.271,14.909-12.892,16.351l0,0
			c-0.458,0.054-0.919,0.083-1.379,0.083l0,0c-7.412-0.047-14.849-6.764-14.912-13.311l0,0c-0.013-2.95,1.617-5.822,5.341-7.779l0,0
			l0.046-0.024l0.053-0.016c0.66-0.197,1.279-0.3,1.856-0.301l0,0c1.276-0.012,2.373,0.542,3.045,1.555l0,0
			c0.676,1.006,0.979,2.394,0.981,4.133l0,0c0,0.39-0.014,0.799-0.046,1.228l0,0l-0.003,0.042l-0.01,0.044
			c-0.079,0.337-0.117,0.672-0.117,1.003l0,0c-0.002,1.432,0.714,2.808,1.847,3.832l0,0c1.13,1.022,2.66,1.67,4.197,1.667l0,0
			c2.344-0.017,4.793-1.427,6.192-5.649l0,0c0.041-0.361,0.064-0.822,0.064-1.357l0,0c0.003-2.894-0.707-7.927-2.926-12.154l0,0
			c-2.236-4.234-5.858-7.638-11.873-7.649l0,0c-0.27,0-0.543,0.008-0.801,0.021l0,0c-18.978,1.735-27.88,14.363-32.3,29.611l0,0
			c-4.392,15.238-4.127,32.969-4.584,44.446l0,0l-0.366,3.139C308.164,197.925,305.677,186.868,305.677,175.398L305.677,175.398z
			 M318.167,130.942c-9.204,14.852-11.392,31.775-11.39,44.456l0,0c0,5.528,0.415,10.248,0.84,13.633l0,0
			c0.305-11.155,0.685-25.904,4.446-38.967l0,0c4.421-15.447,13.751-28.657,33.277-30.405l0,0c0.298-0.016,0.591-0.024,0.881-0.024
			l0,0c6.479-0.01,10.532,3.785,12.846,8.239l0,0c2.332,4.461,3.048,9.605,3.051,12.663l0,0c0,0.596-0.026,1.115-0.078,1.543l0,0
			l-0.006,0.053l-0.017,0.05c-1.448,4.571-4.399,6.478-7.254,6.461l0,0c-3.673-0.017-7.113-2.985-7.143-6.599l0,0
			c-0.001-0.401,0.044-0.808,0.137-1.216l0,0c0.027-0.386,0.04-0.753,0.04-1.101l0,0c0.002-1.611-0.298-2.792-0.794-3.517l0,0
			c-0.5-0.719-1.142-1.06-2.133-1.071l0,0c-0.434,0-0.933,0.075-1.492,0.24l0,0c-3.416,1.845-4.692,4.251-4.705,6.78l0,0
			c-0.008,2.842,1.715,5.923,4.339,8.269l0,0c2.616,2.349,6.1,3.945,9.473,3.941l0,0c0.417,0,0.835-0.024,1.231-0.071l0,0
			c8.985-1.391,11.899-8.151,11.938-15.262l0,0c0.012-5.759-2.046-11.644-4.393-14.44l0,0c-4.749-5.534-10.805-7.729-16.993-7.735
			l0,0c-0.014,0-0.028,0-0.043,0l0,0C333.608,116.862,322.661,123.493,318.167,130.942L318.167,130.942z"/>
	</g>
	<g>
		<path fill="#F4B80A" d="M292.41,199.006c0,0-12.095-35.185-36.284-49.844c-8.979-6.23-29.87-13.194-42.88,3.665
			c-10.893,16.34,0.183,30.053,12.095,29.504c8.063,0,17.042-7.146,14.293-18.142c-1.832-5.131-9.162-8.613-11.544-3.666
			c-2.016,6.231,9.713,7.879,4.032,14.11c-5.315,4.582-18.692,1.833-19.792-8.796c-0.183-8.247,7.88-26.205,31.886-18.509
			C261.807,154.109,275.368,166.571,292.41,199.006z"/>
		<path fill="#F4E60A" d="M292.41,199.006c0,0-12.095-35.185-36.284-49.844c-8.979-6.23-29.87-13.194-42.88,3.665
			c-10.893,16.34,0.275,27.671,12.186,27.121c8.063,0,14.019-6.872,11.819-12.919c-1.832-5.131-3.848-7.146-7.146-4.398
			c-4.031,5.039,7.697,5.772,2.017,12.003c-5.315,4.582-18.692,1.833-19.792-8.796c-0.183-8.247,7.88-26.205,31.886-18.509
			C261.807,154.109,275.368,166.571,292.41,199.006z"/>
		<path d="M244.047,147.853c-4.032-1.293-7.594-1.85-10.724-1.848l0,0c-7.543,0.005-12.604,3.2-15.847,7.248l0,0
			c-3.237,4.045-4.604,8.983-4.6,12.308l0,0c0,0.084,0.001,0.167,0.003,0.25l0,0c0.727,6.973,7.036,10.392,12.607,10.405l0,0
			c2.467,0.001,4.744-0.688,6.25-1.976l0,0c1.055-1.17,1.402-2.083,1.403-2.843l0,0c0.031-1.378-1.265-2.685-2.752-4.123l0,0
			c-1.449-1.432-3.068-3.029-3.084-5.326l0,0c0-0.508,0.085-1.041,0.263-1.594l0,0l0.01-0.032l0.018-0.036
			c0.878-1.862,2.521-2.719,4.23-2.702l0,0c3.309,0.032,7.01,2.809,8.328,6.419l0,0l0.009,0.025l0.007,0.027
			c0.355,1.422,0.521,2.789,0.521,4.09l0,0c-0.017,9.084-8.042,14.72-15.324,14.734l0,0c-0.24,0.011-0.479,0.016-0.718,0.016l0,0
			c-8.523-0.018-16.4-6.982-16.401-16.895l0,0c0-4.111,1.359-8.703,4.566-13.51l0,0c6.156-7.991,14.129-10.756,21.732-10.749l0,0
			c8.736,0.006,17.009,3.582,21.868,6.95l0,0c25.782,15.863,36.484,50.058,36.484,50.058l0.43,2.364
			C276.294,168.72,261.463,154.575,244.047,147.853L244.047,147.853z M233.323,144.904c3.26,0,6.936,0.579,11.091,1.913l0,0
			c15.989,6.154,28.692,17.023,43.531,42.896l0,0c-1.349-2.897-3.043-6.275-5.083-9.859l0,0
			c-6.02-10.585-15.056-22.974-27.049-30.24l0,0c-4.711-3.274-12.84-6.777-21.269-6.771l0,0
			c-7.348,0.008-14.907,2.612-20.841,10.289l0,0c-3.084,4.628-4.356,9.003-4.358,12.87l0,0c0.016,9.3,7.375,15.792,15.302,15.795
			l0,0c0.223,0,0.446-0.005,0.694-0.015l0,0c3.383,0.002,6.967-1.319,9.681-3.687l0,0c2.715-2.37,4.565-5.755,4.568-9.948l0,0
			c-0.001-1.201-0.154-2.471-0.484-3.803l0,0c-1.114-3.149-4.608-5.69-7.282-5.659l0,0c-1.366,0.017-2.481,0.566-3.222,2.043l0,0
			c-0.14,0.44-0.199,0.842-0.199,1.221l0,0c-0.016,1.705,1.283,3.109,2.753,4.541l0,0c1.429,1.427,3.052,2.841,3.082,4.908l0,0
			c0.001,1.126-0.531,2.316-1.71,3.608l0,0l-0.02,0.022l-0.027,0.024c-1.779,1.527-4.313,2.262-6.994,2.263l0,0
			c-5.97,0.013-12.897-3.724-13.704-11.42l0,0l-0.001-0.019l0-0.024c-0.003-0.095-0.003-0.193-0.003-0.29l0,0
			c0.004-3.604,1.432-8.717,4.84-12.994l0,0c3.401-4.27,8.831-7.663,16.686-7.662l0,0
			C233.309,144.904,233.316,144.904,233.323,144.904L233.323,144.904z"/>
	</g>
	<ellipse transform="matrix(0.8885 -0.4588 0.4588 0.8885 -58.13 177.4742)" cx="336.217" cy="208.382" rx="4.536" ry="6.185"/>
	<ellipse fill="#FFFFFF" cx="275.404" cy="207.014" rx="2.062" ry="2.826"/>
	<circle fill="#FFFFFF" cx="328.401" cy="202.95" r="2.886"/>
	
		<ellipse transform="matrix(0.4527 0.8917 -0.8917 0.4527 431.6212 -153.5958)" fill="#F4F042" cx="340.926" cy="274.791" rx="18.491" ry="12.429"/>
</g>
</svg>
