<?xml version="1.0" encoding="utf-8"?>
<!-- Generator: Adobe Illustrator 16.0.0, SVG Export Plug-In . SVG Version: 6.00 Build 0)  -->
<!DOCTYPE svg PUBLIC "-//W3C//DTD SVG 1.1//EN" "http://www.w3.org/Graphics/SVG/1.1/DTD/svg11.dtd">
<svg version="1.1" id="Layer_1" xmlns="http://www.w3.org/2000/svg" xmlns:xlink="http://www.w3.org/1999/xlink" x="0px" y="0px"
	 width="768px" height="430px" viewBox="0 0 768 430" enable-background="new 0 0 768 430" xml:space="preserve">
<g>
	<g>
		<g>
			<path fill="#71A1D1" d="M408.206,277.225c0,0,6.835,12.218,43.283,9.527c36.448-2.693,52.187-10.176,56.742-4.571
				c4.557,5.605-13.461,18.031-31.063,23.415c9.526-0.62,19.673,1.865,19.881,6.213c0.207,4.35-16.567,12.84-32.928,15.119
				c9.111,6.005,10.285,8.629,6.005,11.113c-4.279,2.485-20.57,4.97-39.624,0c3.176,7.317,5.662,13.669-13.667,6.903
				c-19.328-6.765-29.684-19.604-29.684-19.604S382.734,277.019,408.206,277.225z"/>
			<g>
				<path fill="#82ACDF" d="M428.594,344.292c1.313-2.062-13.856-10.48-25.295-19.065c15.836,8.627,41.193,15.585,54.029,12.523
					c12.835-3.064,3.062-6.856-6.564-7.731c-9.626-0.876-26.119-1.819-38.506-8.268c15.909,2.737,26.812,5.141,52.945,0.878
					c26.136-4.266,23.047-13.904,9.481-11.571c-13.564,2.334-32.788,6.199-59.469-0.73c44.498,5.907,72.45-13.563,83.535-21.294
					c6.498-4.533,3.922-7.258,0.679-8.739c-8.736,0.789-23.788,4.673-47.94,6.458c-36.448,2.69-43.283-9.527-43.283-9.527
					c-22.671-0.185-21.664,38.07-21.169,46.488C405.835,340.908,427.373,346.212,428.594,344.292z"/>
			</g>
			<g>
				<path fill="#91BCE8" d="M422.437,341.796c1.313-2.062-9.533-8.689-20.973-17.271c15.837,8.627,39.382,14.968,52.217,11.906
					c12.836-3.064,2.043-4.808-7.584-5.684c-9.626-0.875-25.744-4.781-38.132-11.231c15.907,2.739,26.875,6.844,53.01,2.581
					c26.135-4.266,22.316-11.856,8.751-9.521c-13.564,2.333-33.559,3.002-60.239-3.926c44.498,5.905,73.366-11.742,84.451-19.471
					c6.499-4.532,8.735-7.404,5.492-8.886c-8.736,0.789-23.788,4.673-47.94,6.458c-36.448,2.69-43.283-9.527-43.283-9.527
					c-22.671-0.185-21.804,34.719-21.309,43.137C405.696,337.557,421.216,343.714,422.437,341.796z"/>
			</g>
			<path fill="#5C7EA0" d="M428.896,348.402c-2.654,0-6.664-0.949-12.254-2.907c-19.263-6.741-29.841-19.659-29.945-19.79
				l-0.111-0.137l-0.015-0.175c-0.114-1.245-2.652-30.63,8.833-43.213c3.357-3.677,7.609-5.54,12.639-5.54l0.507,0.004l0.165,0.296
				c0.054,0.094,5.818,9.614,32.777,9.614c3.14,0,6.486-0.129,9.954-0.386c15.564-1.15,27.435-3.188,36.099-4.679
				c6.499-1.116,11.195-1.924,14.682-1.924c3.203,0,5.195,0.693,6.458,2.247c0.859,1.057,1.066,2.342,0.618,3.813
				c-1.768,5.8-14.509,14.364-28.275,19.3c8.245,0.167,16.397,2.515,16.604,6.855c0.238,4.977-16.466,12.993-31.934,15.497
				c5.357,3.645,7.454,5.914,7.398,7.928c-0.047,1.627-1.55,2.686-2.676,3.338c-2.527,1.468-9.054,2.948-17.938,2.948
				c-6.849,0-14.075-0.896-20.975-2.595c1.324,3.101,2.441,6.158,1.241,7.988C432.081,347.906,430.82,348.402,428.896,348.402z
				 M387.718,325.106c1.172,1.384,11.429,13.028,29.311,19.286c5.465,1.914,9.348,2.844,11.868,2.844
				c1.479,0,2.447-0.334,2.878-0.988c0.995-1.519-0.559-5.099-1.808-7.975l-0.476-1.101l1.159,0.304
				c7.148,1.863,14.698,2.85,21.832,2.85c8.619,0,15.037-1.446,17.352-2.789c1.406-0.817,2.072-1.568,2.096-2.364
				c0.045-1.63-2.462-4.021-8.13-7.759l-1.292-0.852l1.533-0.213c16.642-2.317,32.599-10.866,32.426-14.513
				c-0.151-3.171-7.497-5.751-16.374-5.751c-0.967,0-1.938,0.032-2.888,0.092l-5.002,0.328l4.794-1.469
				c14.528-4.441,29.395-13.855,31.189-19.749c0.334-1.095,0.2-1.99-0.407-2.737c-1.021-1.257-2.733-1.817-5.553-1.817
				c-3.387,0-8.041,0.801-14.483,1.907c-8.689,1.492-20.59,3.539-36.211,4.693c-3.495,0.257-6.873,0.388-10.04,0.388
				c-25.397,0-32.415-8.197-33.605-9.912c-4.619,0.036-8.527,1.771-11.619,5.157C385.58,294.674,387.519,322.597,387.718,325.106z"
				/>
		</g>
		<g>
			<path fill="#82ACDF" d="M292.027,200.601c0,0-17.603,0.621-23.608,20.503c-6.006,19.879,0.415,48.665,26.301,54.465
				C296.375,245.54,292.027,200.601,292.027,200.601z"/>
			<path fill="#91BCE8" d="M292.027,200.601c0,0-17.603,0.621-23.608,20.503c-6.006,19.879,0.415,48.665,26.301,54.465
				C296.375,245.54,292.027,200.601,292.027,200.601z"/>
			<path fill="#5C7EA0" d="M295.264,276.289l-0.672-0.15c-9.841-2.205-17.714-7.946-22.77-16.605
				c-6.351-10.875-7.87-25.666-3.962-38.599c6.057-20.049,23.966-20.91,24.146-20.917l0.548-0.019l0.053,0.546
				c0.044,0.45,4.334,45.327,2.694,75.056L295.264,276.289z M291.5,201.23c-2.985,0.324-17.306,2.77-22.523,20.042
				c-3.816,12.632-2.34,27.068,3.853,37.673c4.771,8.173,12.142,13.657,21.344,15.896C295.61,247.041,291.99,206.521,291.5,201.23z"
				/>
		</g>
		<g>
			<path fill="#FCF1E3" d="M355.328,347.672c0,0,5.66-2.659,9.872,0.586c-0.966-6.074-6.144-8.076-11.667-5.108
				C352.498,345.358,355.328,347.672,355.328,347.672z"/>
			<path fill="#E5C29C" d="M366.006,349.615l-1.163-0.896c-1.284-0.988-2.854-1.49-4.67-1.49c-2.504,0-4.577,0.96-4.598,0.969
				l-0.333,0.156l-0.284-0.233c-0.13-0.106-3.167-2.628-1.954-5.219l0.082-0.177l0.17-0.09c1.733-0.933,3.516-1.424,5.155-1.424
				c3.859,0,6.682,2.664,7.364,6.954L366.006,349.615z M360.174,346.063c1.534,0,2.922,0.317,4.144,0.945
				c-0.89-2.926-3.026-4.631-5.906-4.631c-1.391,0-2.915,0.412-4.42,1.189c-0.482,1.373,0.867,2.859,1.451,3.422
				C356.196,346.688,358.026,346.063,360.174,346.063z"/>
		</g>
		<g>
			<path fill="#FCF1E3" d="M294.512,340.663c0,0-9.25-3.899-14.427,4.437c5.384-1.123,10.423,0,10.423,0L294.512,340.663z"/>
			<path fill="#E5C29C" d="M278.871,345.948l0.719-1.156c2.886-4.646,7-5.623,9.943-5.623c2.902,0,5.113,0.918,5.206,0.956
				l0.757,0.319l-4.781,5.298l-0.333-0.072c-0.022-0.004-2.222-0.486-5.202-0.486c-1.753,0-3.428,0.165-4.977,0.488L278.871,345.948
				z M285.18,344.017c2.456,0,4.37,0.306,5.117,0.446l3.19-3.534c-0.845-0.253-2.286-0.593-3.955-0.593
				c-3.395,0-6.138,1.327-8.172,3.946C282.581,344.105,283.86,344.017,285.18,344.017z"/>
		</g>
		<g>
			<path fill="#EDD8C0" d="M287.298,348.811c0,0-13.012,0.62-11.217,13.46c4.556-5.177,9.588-5.922,13.181-4.618
				C288.575,352.607,287.298,348.811,287.298,348.811z"/>
			<path fill="#FCF1E3" d="M287.298,348.811c0,0-13.012,0.62-11.217,13.46c2.79-6.731,8.119-9.344,11.712-8.04
				C287.106,349.186,287.298,348.811,287.298,348.811z"/>
			<path fill="#E5C29C" d="M275.679,363.612l-0.176-1.26c-0.551-3.945,0.197-7.187,2.223-9.633c3.445-4.156,9.297-4.479,9.543-4.492
				l0.441-0.021l0.141,0.417c0.053,0.159,1.302,3.908,1.989,8.95l0.13,0.956l-0.908-0.329c-0.962-0.348-1.987-0.526-3.045-0.526
				c-2.334,0-5.875,0.866-9.499,4.982L275.679,363.612z M286.884,349.435c-1.381,0.161-5.668,0.899-8.264,4.036
				c-1.59,1.924-2.292,4.433-2.091,7.467c3.605-3.633,7.109-4.43,9.489-4.43c0.868,0,1.716,0.106,2.534,0.314
				C288.007,353.29,287.204,350.479,286.884,349.435z"/>
		</g>
		<g>
			<path fill="#EDD8C0" d="M291.199,359.164c0,0-8.353,3.521-6.075,14.29c4.072-5.109,11.666-5.245,11.666-5.245L291.199,359.164z"
				/>
			<path fill="#FCF1E3" d="M291.199,359.164c0,0-8.353,3.521-6.075,14.29c4.138-8.526,8.795-8.722,8.795-8.722L291.199,359.164z"/>
			<path fill="#E5C29C" d="M284.809,374.785l-0.256-1.211c-2.351-11.11,6.331-14.91,6.419-14.946l0.46-0.194l6.391,10.337
				l-1.023,0.021c-0.073,0.002-7.373,0.201-11.22,5.026L284.809,374.785z M290.98,359.921c-1.582,0.85-6.669,4.241-5.495,12.248
				c3.369-3.426,8.222-4.27,10.299-4.477L290.98,359.921z"/>
		</g>
		<g>
			<path fill="#F7810B" d="M334.377,352.296c0,0,19.467,3.003,22.366-3.211c2.9-6.211-1.967-11.319-7.904-11.319
				s-13.599,3.918-19.053,4.03c-5.453,0.11-15.67-2.028-22.366-4.03s-15.049-3.106-16.913,6.695
				c-6.42,3.384-8.422,9.042-1.588,14.151c0.414,7.801,4.971,12.633,15.601,10.631C315.152,367.24,329.028,354.607,334.377,352.296z
				"/>
			<g>
				<path fill="#F7960B" d="M347.192,338.446c-5.937,0-11.951,3.237-17.405,3.35c-5.453,0.11-15.67-2.028-22.366-4.03
					c-5.679-1.699-12.534-2.725-15.628,2.976c0.405,0.77,1.48,1.235,3.196,0.946c3.263-0.552,6.807,1.263,14.1,3.412
					c0,0-4.133-0.253-10.356-1.613c-3.233-0.708-6.118-0.086-8.15,0.675c-0.022,0.104-0.054,0.193-0.074,0.3
					c-3.579,1.886-5.778,4.479-5.846,7.291c0.273,1.557,1.549,2.189,3.172,1.306c2.691-1.466,8.467-3.348,14.853-2.191
					c-10.196-0.351-13.207,5.135-14.033,7.528c0.093,0.072,0.17,0.146,0.267,0.218c0.414,7.801,3.897,10,14.528,7.998
					c10.63-2.002,23.052-15.488,28.403-17.8c0,0,16.132,4.247,20.868-1.139C357.247,342.522,353.129,338.446,347.192,338.446z"/>
			</g>
			<g>
				<path fill="#F7A60B" d="M347.192,338.446c-5.937,0-11.951,3.237-17.405,3.35c-5.453,0.11-15.67-2.028-22.366-4.03
					c-5.679-1.699-12.534-2.725-15.628,2.976c0.405,0.77,1.48,1.235,3.196,0.946c3.263-0.552,6.807,1.263,14.1,3.412
					c0,0-4.133-0.253-10.356-1.613c-3.233-0.708-6.118-0.086-8.15,0.675c-0.022,0.104-0.054,0.193-0.074,0.3
					c-3.579,1.886-5.778,4.479-5.846,7.291c0.273,1.557,1.549,2.189,3.172,1.306c2.691-1.466,8.467-3.348,14.853-2.191
					c-10.196-0.351-13.207,5.135-14.033,7.528c0.093,0.072,0.17,0.146,0.267,0.218c0.414,7.801,3.751,8.852,14.382,6.85
					c10.631-2.003,22.29-16.722,27.64-19.035c0,0,14.367,5.439,19.69,1.245C356.018,343.427,353.129,338.446,347.192,338.446z"/>
			</g>
			<path fill="#F4750C" d="M300.06,370.279L300.06,370.279c-7.074,0-11.222-4.032-11.706-11.364
				c-3.776-2.907-4.408-5.681-4.264-7.511c0.218-2.776,2.311-5.371,5.9-7.327c1.129-5.47,4.426-8.243,9.804-8.243
				c2.188,0,4.666,0.436,7.794,1.371c6.502,1.946,16.345,4.011,21.779,4.011l0.408-0.004c2.541-0.053,5.58-0.958,8.797-1.916
				c3.489-1.04,7.097-2.114,10.267-2.114c3.394,0,6.52,1.596,8.157,4.166c1.489,2.34,1.587,5.176,0.275,7.984
				c-1.323,2.836-5.719,4.273-13.065,4.273c-4.565,0-8.85-0.578-9.747-0.709c-1.773,0.808-4.529,2.754-7.706,4.996
				c-6.677,4.714-14.987,10.579-22.125,11.923C302.998,370.124,301.46,370.279,300.06,370.279z M299.793,337.001
				c-4.894,0-7.744,2.476-8.712,7.568l-0.053,0.277l-0.249,0.13c-3.373,1.777-5.336,4.093-5.527,6.519
				c-0.177,2.253,1.212,4.553,4.017,6.65l0.219,0.163l0.015,0.273c0.254,4.803,2.293,10.53,10.555,10.53h0.001
				c1.329,0,2.793-0.148,4.354-0.443c6.889-1.296,15.431-7.326,21.668-11.729c3.32-2.344,6.188-4.368,8.065-5.18l0.154-0.065
				l0.166,0.025c0.047,0.006,4.722,0.719,9.741,0.719c6.757,0,10.909-1.244,12.008-3.6c1.137-2.437,1.064-4.872-0.203-6.864
				c-1.424-2.237-4.173-3.627-7.172-3.627s-6.524,1.051-9.933,2.066c-3.296,0.982-6.408,1.908-9.107,1.964l-0.432,0.007
				c-5.545,0-15.532-2.093-22.113-4.061C304.237,337.422,301.866,337.001,299.793,337.001z"/>
		</g>
		<g>
			<path fill="#F7810B" d="M323.352,344.876c0,0,7.09-13.185,8.437-20.33c6.11-1.036,11.39-0.725,11.39-0.725
				s-9.423,14.113-8.905,19.429"/>
			<path fill="#F7960B" d="M323.352,344.876c0,0,7.09-13.185,8.437-20.33c6.11-1.036,8.562-0.361,8.562-0.361
				s-7.633,10.842-6.077,19.065"/>
			<path fill="#F7A60B" d="M323.352,344.876c0,0,7.09-13.185,8.437-20.33c6.11-1.036,6.763-0.166,6.763-0.166
				s-5.834,10.646-4.278,18.87"/>
			<path fill="#F4750C" d="M323.179,345.172c0,0,6.725-13.771,8.037-20.734l0.075-0.399l0.401-0.068
				c6.104-1.034,11.47-0.734,11.521-0.73l1.016,0.058l-0.565,0.848c-0.093,0.141-9.883,14.22-9.392,19.268
				c0,0-0.34-2.932,0.292-4.723c1.842-5.228,6.019-11.931,7.558-14.32c-1.762-0.031-5.588,0.002-9.841,0.688
				C330.738,332.285,323.493,344.64,323.179,345.172z"/>
		</g>
		<g>
			<path fill="#F4750C" d="M289.478,358.784l-1.114-0.345c2.378-7.684,9.784-7.619,16.325-7.564c1.267,0.01,2.465,0.021,3.608-0.024
				c6.67-0.263,9.304-2.964,9.33-2.992c0,0-2.086,3.874-9.285,4.159c-1.168,0.044-2.379,0.034-3.663,0.023
				C298.249,351.989,291.599,351.929,289.478,358.784z"/>
		</g>
		<g>
			<path fill="#F4750C" d="M311.166,345.686c-2.269,0-5.07-0.088-7.222-0.441c-0.934-0.153-1.883-0.372-2.801-0.585
				c-3.254-0.753-6.622-1.528-10.376,0.323l-0.516-1.044c4.13-2.04,7.702-1.215,11.155-0.416c0.941,0.218,1.831,0.422,2.728,0.57
				c4.1,0.671,10.923,0.34,10.99,0.338C315.123,344.431,313.351,345.686,311.166,345.686z"/>
		</g>
		<g>
			<path fill="#71A1D1" d="M300.863,285.302c0,0,1.932,23.816,19.535,35.62c17.603,11.804,27.129,8.49,29.408-3.729
				C352.084,304.976,300.863,285.302,300.863,285.302z"/>
			<path fill="#82ACDF" d="M300.863,285.302c0,0,2.664,21.682,20.267,33.485s22.5,6.53,24.778-5.688
				C348.187,300.881,300.863,285.302,300.863,285.302z"/>
			<path fill="#91BCE8" d="M300.863,285.302c0,0,2.664,19.786,20.267,31.59s19.771,5.004,22.048-7.214
				C345.457,297.459,300.863,285.302,300.863,285.302z"/>
			<path fill="#5C7EA0" d="M338.629,328.842C338.629,328.842,338.629,328.842,338.629,328.842
				c-4.956-0.002-11.199-2.502-18.555-7.437c-17.634-11.823-19.773-35.814-19.793-36.058l-0.074-0.924l0.865,0.334
				c2.11,0.809,51.648,19.99,49.308,32.543C348.972,324.85,344.909,328.842,338.629,328.842z M301.552,286.193
				c0.59,4.506,3.977,24.055,19.171,34.244c7.161,4.802,13.185,7.235,17.906,7.237c5.726,0,9.294-3.562,10.604-10.589
				C350.991,307.654,316.25,291.933,301.552,286.193z"/>
		</g>
		<g>
			<path fill="#71A1D1" d="M412.969,285.509c0,0,8.561-31.134-7.731-63.439c-16.291-32.307-55.225-45.008-90.016-47.77
				c-34.792-2.761-32.859,2.485-32.859,2.485c9.389,10.216,9.941,12.978,4.694,24.851c-5.246,11.874-18.224,40.314,4.142,77.314
				c22.366,37.001,73.172,50.255,97.196,44.181"/>
			<path fill="#82ACDF" d="M412.969,285.509c0,0,3.521-27.811-12.769-60.119c-16.291-32.306-50.188-48.329-84.979-51.09
				c-34.792-2.761-32.859,2.485-32.859,2.485c9.389,10.216,9.941,12.978,4.694,24.851c-5.246,11.874-18.224,40.314,4.142,77.314
				c22.366,37.001,73.172,50.255,97.196,44.181"/>
			<path fill="#91BCE8" d="M412.969,285.509c0,0,0.021-27.618-16.269-59.924c-16.291-32.307-46.688-48.524-81.479-51.285
				c-34.792-2.761-32.859,2.485-32.859,2.485c9.389,10.216,9.941,12.978,4.694,24.851c-5.246,11.874-18.224,40.314,4.142,77.314
				c22.366,37.001,73.172,50.255,97.196,44.181"/>
			<path fill="#5C7EA0" d="M375.357,325.163c-26.796,0-65.916-14.906-84.658-45.912c-22.293-36.879-9.713-65.332-4.34-77.48
				l0.163-0.371c5.147-11.648,4.676-14.138-4.589-24.22l-0.118-0.193c-0.038-0.102-0.2-0.642,0.293-1.292
				c1.503-1.983,8.48-3.935,33.159-1.977c25.771,2.045,71.795,11.014,90.491,48.089c10.025,19.879,10.653,39.482,9.655,51.615
				c-0.616,7.48-3.008,11.932-3.008,11.932c0.085-0.309,8.307-31.302-7.689-63.021c-18.439-36.566-64.015-45.426-89.542-47.452
				c-25.594-2.03-30.921,0.294-32.022,1.389c-0.126,0.125-0.182,0.223-0.207,0.288c9.378,10.232,9.926,13.36,4.644,25.313
				l-0.164,0.371c-5.298,11.984-17.708,40.045,4.272,76.406c21.87,36.183,71.796,50.173,96.554,43.916l0.285,1.131
				C384.682,324.671,380.222,325.163,375.357,325.163z"/>
		</g>
		<g>
			<g>
				<path fill="#D2EAF7" d="M365.337,266.456c13.047-20.708,11.598-37.07,4.901-54.027c-3.202-8.11-0.162-15.854,3.88-21.731
					c-17.628-9.949-38.94-14.814-58.897-16.398c-34.792-2.761-32.859,2.485-32.859,2.485c9.389,10.216,9.941,12.978,4.694,24.851
					c-5.246,11.874-18.224,40.314,4.142,77.314c18.64,30.839,57.023,45.166,83.204,45.574
					C342.702,306.911,353.687,284.95,365.337,266.456z"/>
				<path fill="#E1F0F9" d="M340.351,304.012c5.363-1.193,12.369-7.296,13.822-13.197c1.583-8.346,6.311-16.651,11.165-24.358
					c13.047-20.71,11.598-37.07,4.901-54.027c-3.202-8.11-0.162-15.854,3.88-21.731c-17.628-9.949-38.94-14.814-58.897-16.398
					c-34.792-2.761-32.859,2.485-32.859,2.485c9.389,10.216,9.941,12.978,4.694,24.851c-5.246,11.874-18.224,40.314,4.142,77.314
					c1.033,1.709,2.135,3.357,3.283,4.966C306.199,295.627,323.852,307.676,340.351,304.012z"/>
				<path fill="#F8FDFF" d="M339.038,295.742c5.363-1.191,12.468-6.374,16.614-10.44c1.584-8.344,4.832-11.139,9.686-18.846
					c13.047-20.71,11.598-37.07,4.901-54.027c-3.202-8.11-0.162-15.854,3.88-21.731c-17.628-9.949-38.94-14.814-58.897-16.398
					c-34.792-2.761-32.859,2.485-32.859,2.485c9.389,10.216,9.941,12.978,4.694,24.851c-5.246,11.874-18.224,40.314,4.142,77.314
					c1.033,1.709-0.116,0.103,1.033,1.709C303.948,292.37,322.539,299.409,339.038,295.742z"/>
				<path fill="#8DA5B2" d="M376.719,325.145l-2.326-0.038c-28.08-0.436-65.846-16.326-83.694-45.855
					c-22.293-36.879-9.713-65.332-4.34-77.48l0.163-0.371c5.147-11.648,4.676-14.138-4.589-24.22l-0.118-0.193
					c-0.036-0.096-0.189-0.603,0.244-1.225c1.987-2.848,13.741-3.589,33.208-2.044c15.9,1.262,39.068,5.145,59.138,16.472
					l0.556,0.313l-0.361,0.525c-5.136,7.468-6.42,14.596-3.818,21.186c5.887,14.909,9.362,31.836-4.951,54.552
					c-6.9,10.952-14,23.656-10.891,35.795c2.106,8.224,8.566,15.239,19.746,21.452L376.719,325.145z M282.946,176.558
					c9.378,10.232,9.926,13.36,4.644,25.313l-0.164,0.371c-5.298,11.984-17.708,40.045,4.272,76.406
					c17.143,28.361,52.912,43.984,80.396,45.221c-10.236-6.092-16.227-12.984-18.285-21.019
					c-3.224-12.589,4.005-25.547,11.035-36.706c14.035-22.276,10.626-38.879,4.853-53.5c-2.691-6.816-1.486-14.13,3.583-21.747
					c-19.758-10.985-42.467-14.775-58.105-16.016c-6.698-0.531-12.507-0.801-17.266-0.801c-11.483,0-14.173,1.56-14.797,2.231
					C283.015,176.417,282.968,176.501,282.946,176.558z"/>
			</g>
		</g>
		<g>
			<path fill="#71A1D1" d="M303.9,191.972c0,0-24.299-11.044-31.478-33.687s11.874-26.508,11.874-26.508
				c0-14.082,7.455-47.217,40.59-53.292c-6.075-9.664,0-18.776,0-18.776c4.971,6.075,5.868,7.628,8.353,9.077
				c-0.414-5.902,3.106-9.077,3.106-9.077c2.796,5.35,6.731,9.595,8.594,10.63c0.725-4.97,1.45-6.937,1.45-6.937
				c7.455,7.145,19.467,11.597,33.86,17.396c14.393,5.798,40.384,32.617,41.833,70.723c6.006,18.017-18.845,51.773-77.038,48.045"/>
			<path fill="#82ACDF" d="M303.9,191.972c0,0-24.299-11.044-31.478-33.687s11.874-26.508,11.874-26.508
				c0-14.082,7.455-47.217,40.59-53.292c-6.075-9.664,0-18.776,0-18.776c4.38,9.518,7.342,11.277,9.828,12.727
				c-0.414-5.902,1.631-12.727,1.631-12.727c3.13,10.101,9.136,13.879,11,14.914c0.725-4.969-0.956-11.221-0.956-11.221
				c8.109,13.701,15.449,13.299,29.842,19.097s38.075,28.232,39.525,66.338c6.005,18.018-12.52,54.456-70.713,50.728"/>
			<path fill="#91BCE8" d="M303.9,191.972c0,0-24.299-11.044-31.478-33.687s11.874-26.508,11.874-26.508
				c0-14.082,7.455-47.217,40.59-53.292c-6.075-9.664,0-18.776,0-18.776c4.38,9.518,8.458,13.319,10.943,14.769
				c-0.415-5.902,0.516-14.769,0.516-14.769c3.13,10.101,10.845,15.678,12.708,16.713c0.725-4.969-2.665-13.02-2.665-13.02
				c8.109,13.701,13.06,14.417,27.453,20.216c14.393,5.798,34.198,27.114,35.647,65.219c6.006,18.018-6.252,54.456-64.445,50.728"/>
			<path fill="#5C7EA0" d="M353.458,200.42c-2.775,0-4.952-1.122-7.812-1.304l-0.567-0.134c30.955,1.981,57.254-6.981,70.352-23.98
				c6.059-7.863,8.338-16.573,6.097-23.297l-0.03-0.163c-1.461-38.394-27.729-64.669-41.468-70.203l-3.396-1.363
				c-12.306-4.931-22.988-9.211-29.957-15.508c-0.271,1-0.717,2.91-1.161,5.956l-0.122,0.836l-0.738-0.41
				c-2.032-1.129-5.742-5.26-8.435-10.139c-0.914,1.123-2.693,3.877-2.401,8.035l0.077,1.1l-0.953-0.555
				c-2.058-1.2-3.097-2.495-5.875-5.955c-0.605-0.754-1.295-1.614-2.102-2.604c-1.211,2.271-4.44,9.723,0.413,17.442l0.458,0.729
				l-0.846,0.155c-31.729,5.817-40.112,37.028-40.112,52.718v0.477l-0.466,0.095c-0.071,0.015-7.149,1.528-10.814,7.773
				c-2.724,4.641-2.933,10.693-0.62,17.988c7.015,22.125,30.923,33.223,31.164,33.332l-0.499,0.403
				c-0.245-0.112-24.602-10.755-31.777-33.383c-2.419-7.63-2.172-14.005,0.734-18.944c3.418-5.811,9.395-7.749,11.114-8.201
				c0.162-16.031,8.739-46.97,40.242-53.248c-5.47-9.602,0.382-18.592,0.444-18.684l0.437-0.656l0.5,0.611
				c1.042,1.273,1.905,2.349,2.641,3.266c2.272,2.829,3.301,4.111,4.643,5.086c0.048-5.388,3.191-8.287,3.333-8.416l0.559-0.504
				l0.349,0.667c2.424,4.64,5.703,8.401,7.638,9.9c0.676-4.304,1.312-6.062,1.341-6.139l0.308-0.836l0.643,0.616
				c6.779,6.497,17.667,10.859,30.276,15.912l3.398,1.364c13.973,5.629,40.677,32.277,42.195,71.159
				c2.32,7.083-0.033,16.158-6.307,24.299C404.237,191.442,381.101,200.42,353.458,200.42z"/>
		</g>
		<g>
			<path fill="#5C7EA0" d="M435.962,312.576c-10.053,0-17.337-1.968-17.337-1.968c0.361,0.042,36.411,3.958,59.373-5.884
				l0.461,1.072C465.531,311.337,448.551,312.576,435.962,312.576z"/>
		</g>
		<g>
			<path fill="#5C7EA0" d="M454.105,327.825c-18.706,0-38.773-5.196-38.773-5.196c0.311,0.062,31.415,6.273,52.106,3.16l0.174,1.153
				C463.418,327.572,458.805,327.825,454.105,327.825z"/>
		</g>
		<g>
			<path fill="#5C7EA0" d="M433.58,339.38c-13.426-1.928-31.062-14.645-31.062-14.645c0.179,0.116,18.058,11.599,31.228,13.488
				L433.58,339.38z"/>
		</g>
		<g>
			<path fill="#FCF1E3" d="M374.657,346.395c0,0-5.247-5.04-8.836,3.243c2.899-1.312,4.279-0.688,5.936,0.829
				C374.243,348.049,374.657,346.395,374.657,346.395z"/>
			<path fill="#E5C29C" d="M371.77,351.269l-0.406-0.372c-1.535-1.407-2.773-1.871-5.302-0.727l-1.376,0.622l0.6-1.386
				c1.471-3.394,3.413-5.114,5.771-5.114c2.229,0,3.933,1.612,4.004,1.683l0.244,0.233l-0.082,0.327
				c-0.019,0.074-0.484,1.848-3.059,4.35L371.77,351.269z M368.552,348.341c1.319,0,2.316,0.6,3.18,1.327
				c1.408-1.452,2.006-2.566,2.235-3.091c-0.504-0.39-1.621-1.118-2.91-1.118c-1.555,0-2.92,1.05-4.07,3.12
				C367.551,348.419,368.069,348.341,368.552,348.341z"/>
		</g>
		<g>
			<path fill="#F7810B" d="M377.763,323.199c0,0,4.418,18.798,6.904,24.621c-4.281-4.257-10.355-5.359-13.807,1.817
				c-3.452,7.179,12.978,12.979,12.978,12.979c1.381,6.488,0.967,16.566,10.492,16.566c9.526,0,9.389-4.554,9.389-4.554
				c9.25,4.968,16.413,2.07,14.213-6.075c8.567,0.414,12.296-10.908-1.097-15.601c-13.392-4.695-20.434,0.365-22.78-5.133
				c-2.347-5.5-7.196-26.069-7.196-26.069L377.763,323.199z"/>
			<path fill="#F7960B" d="M377.763,323.199c0,0,4.418,18.798,6.904,24.621c-4.281-4.257-10.355-5.359-13.807,1.817
				c-3.452,7.179,12.978,12.979,12.978,12.979c1.381,6.488,0.967,16.566,10.492,16.566c9.526,0,8.486-8.187,8.486-8.187
				c9.25,4.97,14.487,1.152,12.286-6.992c8.567,0.413,11.579-5.81-1.812-10.503c-13.393-4.692-20.419,1.612-22.767-3.886
				c-2.346-5.498-5.832-27.519-5.832-27.519L377.763,323.199z"/>
			<path fill="#F7A60B" d="M377.763,323.199c0,0,4.418,18.798,6.904,24.621c-4.281-4.257-10.355-5.359-13.807,1.817
				c-3.452,7.179,12.978,12.979,12.978,12.979c1.381,6.488,0.967,16.566,10.492,16.566c9.526,0,8.486-8.187,8.486-8.187
				c9.25,4.97,11.862-1.522,9.66-9.669c8.568,0.415,12.809-2.549-0.583-7.241c-13.393-4.695-20.115,2.681-22.462-2.817
				c-2.348-5.496-5.647-28.64-5.647-28.64L377.763,323.199z"/>
			<path fill="#F4750C" d="M394.33,379.768c-8.413,0-9.551-7.499-10.465-13.522c-0.171-1.127-0.333-2.197-0.532-3.191
				c-1.853-0.69-11.032-4.331-13.108-9.357c-0.602-1.458-0.565-2.908,0.109-4.312c2.198-4.572,5.212-5.53,7.353-5.53
				c1.853,0,3.796,0.713,5.626,2.042c-2.498-7.201-5.956-21.872-6.118-22.563l-0.144-0.61l10.25-1.633l0.125,0.526
				c0.048,0.205,4.863,20.585,7.164,25.976c1.026,2.403,2.94,2.508,7.17,2.514c3.691,0.004,8.748,0.01,15.268,2.297
				c7.616,2.669,9.697,7.326,9.107,10.796c-0.58,3.418-3.629,5.83-7.462,5.946c0.524,2.492,0.193,4.597-0.974,6.121
				c-1.197,1.562-3.158,2.39-5.674,2.39c-2.358,0-5.068-0.739-7.879-2.147c-0.152,0.486-0.455,1.108-1.057,1.729
				C401.462,378.916,398.514,379.768,394.33,379.768z M377.687,345.021c-2.59,0-4.769,1.684-6.301,4.87
				c-0.532,1.106-0.559,2.205-0.083,3.359c2.064,4.998,12.623,8.777,12.729,8.815l0.308,0.11l0.069,0.317
				c0.237,1.119,0.418,2.312,0.61,3.577c0.934,6.16,1.9,12.53,9.311,12.53c4.759,0,6.915-1.165,7.887-2.139
				c0.913-0.918,0.919-1.787,0.919-1.823l-0.005-0.982l0.864,0.458c2.891,1.553,5.669,2.374,8.031,2.374
				c2.138,0,3.778-0.669,4.747-1.934c1.052-1.372,1.258-3.396,0.595-5.848l-0.209-0.775l0.801,0.04
				c3.581,0.169,6.507-1.918,7.026-4.97c0.511-3-1.414-7.069-8.344-9.499c-6.334-2.221-11.274-2.227-14.884-2.23
				c-3.987-0.006-6.868-0.011-8.241-3.224c-2.157-5.054-6.312-22.317-7.102-25.637l-7.94,1.265
				c0.783,3.277,4.541,18.792,6.727,23.915l1.176,2.753l-2.124-2.11C382.171,346.161,379.838,345.021,377.687,345.021z"/>
		</g>
		<g>
			<path fill="#EDD8C0" d="M421.304,364.516c0,0,0.868-4.093,4.343-3.004c3.477,1.088,4.355,7.713,3.839,10.406
				C427.673,368.915,422.703,365.343,421.304,364.516z"/>
			<path fill="#FCF1E3" d="M422.359,362.377c-0.794,0.928-1.056,2.139-1.056,2.139c1.399,0.827,6.369,4.399,8.182,7.402
				c0.06-0.312,0.098-0.679,0.118-1.081C428.909,366.632,425.824,363.309,422.359,362.377z"/>
			<path fill="#E5C29C" d="M429.771,373.522l-0.785-1.302c-1.77-2.932-6.732-6.464-7.979-7.205l-0.359-0.213l0.086-0.409
				c0.032-0.149,0.81-3.649,3.796-3.649c0.411,0,0.846,0.07,1.292,0.209c3.961,1.241,4.765,8.326,4.237,11.075L429.771,373.522z
				 M421.984,364.251c1.562,1.002,4.987,3.542,7.047,6.042c0.001-2.897-1.009-7.428-3.559-8.226
				c-0.333-0.104-0.65-0.156-0.943-0.156C422.941,361.911,422.231,363.495,421.984,364.251z"/>
		</g>
		<g>
			<path fill="#EDD8C0" d="M410.121,372.643c0,0,1.656-4.768,5.799-3.601s3.936,9.4,1.916,13.334
				C416.075,377.872,412.192,373.213,410.121,372.643z"/>
			<path fill="#FCF1E3" d="M412.77,369.348c-1.855,1.021-2.648,3.295-2.648,3.295c2.071,0.57,5.954,5.229,7.715,9.733
				c0.09-0.173,0.171-0.365,0.253-0.557C418.061,376.614,417.671,371.626,412.77,369.348z"/>
			<path fill="#E5C29C" d="M417.764,383.796l-0.472-1.207c-1.707-4.37-5.519-8.886-7.324-9.382l-0.602-0.167l0.204-0.588
				c0.06-0.171,1.492-4.177,5.083-4.177c0.462,0,0.94,0.067,1.426,0.204c1.271,0.357,2.28,1.325,2.92,2.796
				c1.426,3.269,0.818,8.518-0.644,11.367L417.764,383.796z M410.896,372.325c2.164,1.093,5.171,4.813,6.936,8.568
				c0.948-2.702,1.21-6.603,0.099-9.152c-0.503-1.155-1.232-1.874-2.168-2.137c-0.382-0.108-0.754-0.163-1.108-0.163
				C412.561,369.441,411.359,371.377,410.896,372.325z"/>
		</g>
		<g>
			<path fill="#EDD8C0" d="M392.208,374.994c0,0,2.588-4.422,7.508-1.834c4.918,2.589,1.19,10.045-3.754,13.1
				C396.98,379.047,392.208,374.994,392.208,374.994z"/>
			<path fill="#FCF1E3" d="M392.208,374.994c0,0,0.89-3.006,5.807-0.416c4.918,2.589,1.329,7.798-2.053,11.682
				C396.98,379.047,392.208,374.994,392.208,374.994z"/>
			<path fill="#E5C29C" d="M395.21,387.408l0.175-1.231c0.959-6.787-3.511-10.699-3.555-10.737l-0.371-0.319l0.246-0.421
				c0.069-0.119,1.756-2.935,5.032-2.935c1.047,0,2.141,0.296,3.25,0.88c1.649,0.867,2.556,2.306,2.619,4.152
				c0.114,3.32-2.67,7.691-6.339,9.959L395.21,387.408z M392.973,374.916c1.083,1.096,4.008,4.595,3.694,10.145
				c2.793-2.158,4.862-5.637,4.774-8.223c-0.05-1.426-0.722-2.488-1.998-3.161c-0.939-0.494-1.85-0.745-2.706-0.745
				C394.757,372.932,393.489,374.249,392.973,374.916z"/>
		</g>
		<g>
			<path fill="#F4750C" d="M383.561,364.299c-0.896-3.544-0.662-8.081-0.65-8.271c0,0,0.93,4.614,1.782,7.984L383.561,364.299z"/>
		</g>
		<g>
			<path fill="#F4750C" d="M404.26,375.05l-1.162-0.11c0.818-8.735-8.627-16.557-8.722-16.633
				C394.376,358.307,405.136,365.688,404.26,375.05z"/>
		</g>
		<g>
			<path fill="#F4750C" d="M417.493,369.211c-3.067-10.178-20.211-13.927-20.384-13.963c0,0,18.236,2.794,21.5,13.625
				L417.493,369.211z"/>
		</g>
		<g>
			<path fill="#71A1D1" d="M354.293,301.041c0,0,4.348,17.13,21.399,23.505c17.052,6.374,22.503-5.275,27.751-15.908
				c5.246-10.635,6.765-26.649,0-34.52"/>
			<path fill="#82ACDF" d="M354.293,301.041c0,0,4.654,15.551,22.426,19.497c11.675,2.593,18.186-3.125,23.432-13.76
				c5.246-10.633,10.057-24.79,3.292-32.66"/>
			<path fill="#91BCE8" d="M354.293,301.041c0,0,4.654,12.78,22.426,16.726c11.675,2.593,16.049-2.451,21.295-13.087
				c5.248-10.635,12.193-22.691,5.429-30.562"/>
			<path fill="#5C7EA0" d="M384.507,326.938c-2.612,0-5.589-0.563-9.019-1.845c-8.871-3.315-14.377-9.559-17.63-14.832
				c-3.032-4.916-2.999-9.364-2.999-9.364c0.043,0.169,4.483,16.915,21.038,23.102c16.317,6.101,21.646-4.711,26.8-15.165
				l0.224-0.454c5.122-10.38,6.608-26.286,0.08-33.879c0,0,4.153,3.593,5.059,8.733c1.433,8.135-0.374,18.125-4.093,25.664
				l-0.223,0.449C399.628,317.696,395.071,326.938,384.507,326.938z"/>
		</g>
		<g>
			<path fill="#71A1D1" d="M406.342,249.021c0,0,15.325,22.82,36.034,26.754c20.71,3.936,18.225-2.279,1.243-16.982
				c22.988,9.112,43.695,9.319,46.389,6.006c2.692-3.313-27.75-18.845-27.75-18.845c31.685,9.318,59.849,5.591,61.505-2.278
				c1.657-7.87-38.519-12.84-38.519-12.84c34.378-1.45,63.784-18.017,67.305-27.129c3.521-9.112-35.826,2.071-50.737,0
				c31.478-12.218,61.093-40.176,66.27-54.879c5.178-14.704-18.225,7.456-52.187,18.431c28.578-20.501,41.418-44.317,34.79-60.471
				c-6.626-16.154-8.49,9.112-31.891,28.993c-23.402,19.881-50.324,34.584-76.626,38.727c-26.3,4.141-57.156,16.359-63.991,28.371"
				/>
			<g>
				<path fill="#82ACDF" d="M549.363,161.007c-0.291-5.36-22.754,10.903-48.425,9.736c35.006-14.877,42.883-44.34,41.133-51.163
					c-0.596-2.32-3.926-2.103-8.059-0.81c-3.76,5.402-8.638,11.418-15.219,17.01c-23.402,19.881-50.324,34.584-76.626,38.727
					c-7.538,1.187-15.451,3.04-23.064,5.36c-7.517,13.364-23.667,19.554-39.036,20.375c-0.746,0.878-1.39,1.757-1.89,2.637
					l28.165,46.143c0,0,1.737,2.58,4.819,6.15c30.196,21.372,30.96,7.424,25.601-2.167c12.544,7.294,34.422,10.503,39.673,8.169
					c5.252-2.333-7.001-8.46-23.045-21.878c27.421,10.501,58.343,6.418,58.051,2.917c-0.291-3.501-18.961-5.835-49.592-13.42
					c32.965,1.167,77.014-16.335,78.18-22.461c1.167-6.125-30.629,1.458-61.569,0C508.778,202.831,549.655,166.367,549.363,161.007z
					"/>
			</g>
			<g>
				<path fill="#91BCE8" d="M493.549,173.497c35.007-14.877,46.479-42.412,44.729-49.234c-0.595-2.32-6.152,0.118-10.285,1.411
					c-3.759,5.402-2.618,4.516-9.199,10.107c-23.402,19.881-50.324,34.584-76.626,38.727c-6.062,0.955-12.361,2.356-18.559,4.068
					c-9.663,13.99-27.134,22.506-44.267,22.586c-0.436,0.572-0.839,1.145-1.166,1.716l28.165,46.143c0,0,1.737,2.58,4.819,6.15
					c30.196,21.372,27.849,2.408,22.489-7.182c12.543,7.292,24.87,9.879,30.121,7.545c5.251-2.335,0.814-5.337-15.229-18.756
					c27.421,10.502,50.16,9.031,49.868,5.531c-0.292-3.502-15.07-7.585-45.701-15.17c32.964,1.167,74.484-11.765,75.651-17.892
					s-23.933-1.265-54.872-2.723c30.32-3.5,64.109-33.34,63.818-38.7C537.015,162.465,519.22,174.664,493.549,173.497z"/>
			</g>
			<path fill="#71A1D1" d="M399.945,232.079c0,0,8.697,15.015,22.78,15.323c14.082,0.312-2.795-17.912-2.795-17.912
				c17.188,9.318,23.297,8.905,26.818,6.108c3.52-2.795-2.382-12.114-9.526-17.396c16.566,6.835,30.856,8.388,39.036,1.864
				c8.181-6.523-16.878-13.357-16.878-13.357c14.628-1.12,32.096-4.996,45.905-14.6c13.004-9.044,8.56-17.12-4.556-13.392
				s-32.031,3.59-32.031,3.59"/>
			<path fill="#5C7EA0" d="M451.969,277.519c-2.401,0-5.613-0.34-9.702-1.169c-22.083-4.479-35.44-27.653-35.44-27.653
				c0.152,0.227,15.433,22.663,35.659,26.507c10.493,1.994,13.366,1.014,13.936-0.161c1.498-3.094-9.553-12.663-13.184-15.808
				l-2.599-2.251l3.196,1.267c23.881,9.469,43.477,8.94,45.72,6.182c0.021-0.024,0.058-0.072,0.027-0.217
				c-0.638-3.015-28.512-18.891-28.512-18.891c25.314,7.444,50.635,6.679,59.185,1.57c1.696-1.014,2.685-2.138,2.938-3.339
				c0.11-0.526-0.025-1.051-0.419-1.601c-4.557-6.384-38.899-11.265-38.899-11.265c35.037-1.478,64.904-18.837,68.131-27.194
				c0.388-1,0.052-1.426-0.058-1.565c-1.915-2.428-13.273-0.908-24.262,0.56c-9.741,1.302-19.815,2.645-25.953,1.793l-2.226-0.309
				l2.094-0.812c29.983-11.638,60.585-39.348,65.932-54.53c1.004-2.852,0.686-3.677,0.406-3.915
				c-1.274-1.087-7.378,2.234-14.445,6.077c-9.428,5.125-22.341,12.146-37.42,17.019l-3.556,1.149l3.036-2.178
				c27.745-19.905,41.324-43.367,34.592-59.776c-1.287-3.137-2.396-4.701-3.393-4.781c-1.58-0.135-3.749,3.43-6.509,7.932
				c-4.152,6.779-10.43,17.024-21.072,26.065c-25.282,21.479-51.879,34.917-76.912,38.859
				c-25.143,3.959-56.599,15.822-63.575,28.083c0,0,1.85-4.639,6.115-8.093c12.355-10.006,37.018-17.953,57.278-21.144
				c24.467-3.853,51.577-17.56,76.337-38.594c10.502-8.921,16.721-19.07,20.836-25.787c3.31-5.404,5.297-8.673,7.596-8.485
				c1.538,0.124,2.847,1.769,4.378,5.501c6.692,16.31-5.814,39.194-31.964,58.939c13.462-4.746,25.036-11.039,33.675-15.734
				c8.945-4.864,13.876-7.545,15.76-5.94c0.939,0.8,0.92,2.401-0.062,5.19c-5.405,15.348-34.371,41.941-64.343,54.322
				c6.062,0.289,14.775-0.876,23.24-2.008c12.349-1.649,23.009-3.072,25.332-0.125c0.569,0.722,0.646,1.633,0.232,2.708
				c-3.679,9.522-30.794,24.307-62.193,27.13c9.762,1.502,29.144,5.077,32.822,10.229c0.585,0.819,0.79,1.666,0.61,2.52
				c-0.322,1.533-1.494,2.914-3.48,4.101c-8.073,4.823-29.134,6.249-53.534,0.049c7.979,4.267,22.668,12.544,23.404,16.028
				c0.119,0.57-0.076,0.964-0.263,1.192c-2.959,3.644-22.785,3.091-44.027-4.677c8.937,7.982,12.256,12.545,11.037,15.062
				C456.835,276.867,455.068,277.519,451.969,277.519z"/>
		</g>
		<g>
			<path fill="#71A1D1" d="M393.917,232.079c0,0,8.697,15.015,22.78,15.323c14.082,0.312-2.796-17.912-2.796-17.912
				c17.188,9.318,23.298,8.905,26.818,6.108c3.521-2.795-2.382-12.114-9.526-17.396c16.566,6.835,30.856,8.388,39.037,1.864
				s-16.879-13.357-16.879-13.357c14.628-1.12,32.097-4.996,45.906-14.6c13.005-9.044,8.559-17.12-4.557-13.392
				s-32.029,3.59-32.029,3.59"/>
			<g>
				<path fill="#82ACDF" d="M413.291,240.463c3.657-2.918,1.301-6.856-6.867-15.607c0,0,24.212,8.313,27.129,6.418
					c2.918-1.896,1.313-5.542-9.335-17.94c13.127,6.709,33.985,7.876,36.61,4.959c2.625-2.917-2.334-7.584-18.961-12.835
					c40.985-2.042,60.969-19.399,58.343-22.316c-1.251-1.39-8.63-2.018-16.012-2.294c-10.865,1.539-21.526,1.461-21.526,1.461
					l-68.755,49.771c0,0,0.425,0.733,1.238,1.877C399.698,236.701,410.431,242.744,413.291,240.463z"/>
			</g>
			<g>
				<path fill="#91BCE8" d="M409.534,236.779c3.659-2.917,5.058-3.173-3.11-11.924c0,0,18.864,6.321,21.781,4.425
					c2.918-1.896,5.397-4.286-5.249-16.684c13.127,6.708,27.516,6.765,30.142,3.849c2.626-2.917,0.292-6.759-16.336-12.01
					c40.986-2.042,59.023-17.163,56.397-20.08c-1.251-1.39-1.579-3.233-8.961-3.51c-10.865,1.539-21.526,1.461-21.526,1.461
					l-68.755,49.771c0,0,0.425,0.733,1.238,1.877C399.698,236.701,406.675,239.061,409.534,236.779z"/>
			</g>
			<path fill="#5C7EA0" d="M417.041,247.99c-0.117,0-0.236-0.001-0.357-0.003c-14.244-0.313-22.263-16.202-22.263-16.202
				c0.086,0.148,8.705,14.736,22.288,15.035c2.651,0.05,4.219-0.538,4.771-1.769c1.621-3.597-5.229-12.168-8.007-15.166
				l-2.401-2.595l3.108,1.687c17.774,9.638,23.204,8.522,26.178,6.165c0.564-0.448,0.842-1.145,0.826-2.072
				c-0.064-3.709-4.798-10.303-10.337-14.397l-3.807-2.813l4.375,1.805c17.632,7.271,30.928,7.949,38.452,1.947
				c1.117-0.893,1.568-1.775,1.379-2.7c-0.846-4.098-13.314-8.348-18.048-9.639l-3.252-0.887l3.361-0.257
				c12.699-0.972,30.921-4.276,45.618-14.498c6.896-4.796,8.219-8.869,7.257-10.9c-1.182-2.5-5.628-3.069-11.321-1.451
				c-13.042,3.707-32.187,2.445-32.187,2.445c0.19,0.003,18.982,0.095,31.867-3.568c6.369-1.808,11.234-1.014,12.696,2.074
				c1.546,3.267-1.384,8.002-7.647,12.358c-13.771,9.577-30.548,13.165-43.149,14.433c5.167,1.646,15.055,5.333,15.947,9.655
				c0.284,1.375-0.32,2.671-1.794,3.847c-7.373,5.883-19.855,5.716-36.229-0.441c4.54,4.207,7.925,9.557,7.984,12.969
				c0.021,1.29-0.416,2.329-1.269,3.005c-3.251,2.584-8.544,3.759-24.69-4.586c2.983,3.629,7.822,10.354,6.152,14.062
				C421.81,247.164,419.959,247.99,417.041,247.99z"/>
		</g>
		<g>
			<path fill="#5C7EA0" d="M322.882,79.49l-0.318-1.123c5.211-1.474,12.149,0.626,12.149,0.626
				C334.645,78.984,327.855,78.083,322.882,79.49z"/>
		</g>
		<g>
			<g>
				<path fill="#D2EAF7" d="M345.043,199.565c56.242,3.603,81.338-27.806,77.535-46.181c-6.559-12.025-22.48-14.994-34.874-7.663
					c8.49-27.336-11.39-53.222-31.064-48.459c-19.674,4.762-21.952,35.413-21.849,51.151c0,0-7.144-4.556-12.943-11.183
					c10.562-19.674,8.905-45.146-9.112-46.596c-12.19-0.98-21.725,16.05-26.618,27.17c-1.316,5.399-1.823,10.327-1.823,13.973
					c0,0-19.258,3.932-11.874,26.508c9.664,29.545,31.609,34.093,31.609,34.093"/>
				<path fill="#E1F0F9" d="M345.043,199.565c56.242,3.603,72.05-25.422,68.248-43.797c-0.897-11.171-17.617-12.582-30.01-5.251
					c8.491-27.336-6.967-58.018-26.641-53.255c-19.674,4.762-21.952,35.413-21.849,51.151c0,0-7.144-4.556-12.943-11.183
					c10.562-19.674,8.905-45.146-9.112-46.596c-12.19-0.98-21.725,16.05-26.618,27.17c-1.316,5.399-1.823,10.327-1.823,13.973
					c0,0-19.258,3.932-11.874,26.508c9.664,29.545,31.609,34.093,31.609,34.093"/>
				<path fill="#F8FDFF" d="M345.043,199.565c56.242,3.603,68.294-23.387,64.491-41.761c-0.896-11.171-16.085-12.943-28.477-5.611
					c8.49-27.337-4.743-59.694-24.417-54.931c-19.674,4.762-21.952,35.413-21.849,51.151c0,0-7.144-4.556-12.943-11.183
					c10.562-19.674,8.905-45.146-9.112-46.596c-12.19-0.98-21.725,16.05-26.618,27.17c-1.316,5.399-1.823,10.327-1.823,13.973
					c0,0-19.258,3.932-11.874,26.508c9.664,29.545,31.609,34.093,31.609,34.093"/>
				<path fill="#8DA5B2" d="M353.909,200.438c-2.853,0-8.829-1.455-8.829-1.455c42.422,2.716,62.177-14.457,68.704-21.968
					c6.592-7.588,9.67-16.338,8.242-23.427c-2.803-5.088-7.54-8.768-13.35-10.367c-6.766-1.864-14.302-0.767-20.675,3.003
					l-1.304,0.771l0.449-1.446c4.414-14.214,1.201-29.865-8.188-39.872c-6.423-6.846-14.508-9.706-22.182-7.848
					c-18.881,4.571-21.513,33.653-21.401,50.581l0.006,1.072l-0.904-0.576c-0.072-0.046-7.282-4.677-13.069-11.291l-0.266-0.304
					l0.191-0.356c7.054-13.141,8.509-28.693,3.536-37.819c-2.586-4.748-6.799-7.486-12.181-7.919
					c-11.962-0.961-21.447,16.392-26.037,26.822c-1.538,6.353-1.773,11.34-1.773,13.738v0.476l-0.466,0.095
					c-0.072,0.015-7.288,1.566-10.951,7.88c-2.687,4.631-2.85,10.645-0.485,17.875c9.436,28.844,30.818,33.254,31.033,33.295
					c0,0-3.745,0.427-8.476-2.198c-7.341-4.075-17.792-12.778-23.666-30.734c-2.475-7.566-2.275-13.902,0.592-18.835
					c3.422-5.886,9.517-7.858,11.254-8.314c0.046-4.132,0.694-8.958,1.837-13.651c4.748-10.811,14.539-28.638,27.231-27.613
					c5.793,0.466,10.328,3.414,13.113,8.524c5.105,9.369,3.723,25.178-3.342,38.571c4.424,4.971,9.603,8.754,11.652,10.168
					c0.012-17.405,3.046-45.961,22.297-50.622c8.092-1.962,16.589,1.024,23.308,8.184c9.368,9.984,12.774,25.403,8.855,39.637
					c6.365-3.358,13.691-4.246,20.321-2.421c6.146,1.692,11.155,5.603,14.104,11.01l0.059,0.161
					c1.544,7.458-1.628,16.623-8.486,24.514C408.5,184.873,390.76,200.438,353.909,200.438z"/>
			</g>
		</g>
		<g>
			
				<ellipse transform="matrix(0.979 0.2036 -0.2036 0.979 32.0323 -60.2566)" fill="#D2EAF7" cx="308.812" cy="125.521" rx="15.361" ry="22.974"/>
			
				<ellipse transform="matrix(0.979 0.2037 -0.2037 0.979 31.3223 -60.3342)" fill="#466572" cx="308.812" cy="122.021" rx="13.912" ry="20.807"/>
			
				<ellipse transform="matrix(0.979 0.2037 -0.2037 0.979 32.0352 -60.2609)" fill="#FFFFFF" cx="308.812" cy="125.522" rx="13.912" ry="20.806"/>
			<path fill="#466572" d="M306.508,146.675c-0.689,0-1.38-0.071-2.053-0.211c-7.825-1.628-12.237-12.347-9.835-23.895
				c2.158-10.376,9.25-18.201,16.495-18.201c0.689,0,1.38,0.071,2.053,0.21c7.825,1.628,12.237,12.347,9.835,23.895
				C320.845,138.85,313.754,146.675,306.508,146.675z M311.115,105.536c-6.705,0-13.305,7.425-15.353,17.271
				c-2.271,10.917,1.735,21.018,8.931,22.514c0.594,0.124,1.205,0.187,1.815,0.187c6.705,0,13.305-7.425,15.353-17.271
				c2.271-10.917-1.735-21.018-8.931-22.514C312.335,105.599,311.725,105.536,311.115,105.536z"/>
		</g>
		<g>
			
				<ellipse transform="matrix(0.979 0.2036 -0.2036 0.979 32.0335 -60.2584)" fill="#00ABFF" cx="308.812" cy="125.521" rx="8.559" ry="12.8"/>
			<path fill="#0085FF" d="M316.335,117.357c-1.07-2.296-2.769-3.921-4.917-4.368c-4.628-0.963-9.546,3.868-10.986,10.789
				c-0.718,3.452-0.435,6.771,0.604,9.352C309.271,131.768,314.838,125.119,316.335,117.357z"/>
			<path fill="#0065FF" d="M307.395,138.759c-0.439,0-0.879-0.045-1.308-0.134c-4.936-1.027-7.729-7.741-6.227-14.966
				c1.35-6.484,5.807-11.375,10.368-11.375c0.44,0,0.88,0.045,1.309,0.134c2.435,0.506,4.418,2.373,5.583,5.256
				c1.134,2.802,1.361,6.25,0.642,9.709C316.414,133.868,311.957,138.759,307.395,138.759z M310.228,113.451
				c-4.021,0-7.986,4.491-9.224,10.447c-1.372,6.594,1.015,12.688,5.32,13.584c0.351,0.073,0.71,0.11,1.07,0.11
				c4.02,0,7.986-4.491,9.225-10.447c0.673-3.235,0.467-6.444-0.581-9.035c-1.015-2.51-2.699-4.125-4.739-4.55
				C310.949,113.488,310.588,113.451,310.228,113.451z"/>
		</g>
		<g>
			<ellipse transform="matrix(0.979 0.2036 -0.2036 0.979 32.0321 -60.2561)" cx="308.811" cy="125.521" rx="4.808" ry="7.19"/>
		</g>
		<g>
			<path fill="#F78B0B" d="M351.532,163.393c0,0-7.317,32.307-39.348,29.684c4.142-5.937,7.593-18.363,6.903-29.684
				C335.517,163.393,351.532,163.393,351.532,163.393z"/>
			<path fill="#F7960B" d="M347.345,162.81c0,0-3.13,32.89-35.161,30.267c4.142-5.937,7.593-18.363,6.903-29.684
				C335.517,163.393,347.345,162.81,347.345,162.81z"/>
			<path fill="#F7A60B" d="M345.261,162.575c0,0-1.046,33.125-33.077,30.502c4.142-5.937,7.593-18.363,6.903-29.684
				C335.517,163.393,345.261,162.575,345.261,162.575z"/>
			<path fill="#F4750C" d="M315.822,193.811c-1.202,0-2.441-0.052-3.686-0.153l-1.011-0.083l0.581-0.833
				c3.828-5.486,7.512-17.625,6.799-29.314l-0.038-0.618h33.795l-0.161,0.712C352.032,163.825,344.9,193.811,315.822,193.811z
				 M313.22,192.564c0.878,0.053,1.75,0.08,2.602,0.08c25.669,0,33.686-24.172,34.953-28.668h-31.072
				C320.24,175.171,316.884,186.694,313.22,192.564z"/>
		</g>
		<g>
			<path fill="#7C0303" d="M321.124,162.599c0,0-0.518,18.742-6.42,27.336c12.736-4.453,25.679-17.603,28.061-23.816
				C332.203,160.114,321.124,162.599,321.124,162.599z"/>
			<path fill="#5B0303" d="M313.213,191.075l1.009-1.47c5.736-8.353,6.312-26.836,6.317-27.022l0.013-0.454l0.443-0.1
				c0.095-0.021,2.375-0.524,5.867-0.524c4.091,0,10.222,0.713,16.19,4.107l0.436,0.248l-0.18,0.468
				c-2.477,6.461-15.793,19.746-28.413,24.158L313.213,191.075z M321.69,163.084c-0.116,2.851-0.924,17.353-5.589,25.699
				c11.534-4.682,23.215-16.272,25.926-22.406c-5.605-3.053-11.316-3.704-15.165-3.704
				C324.374,162.673,322.5,162.943,321.69,163.084z"/>
		</g>
		<g>
			<path fill="#F7960B" d="M346.872,161.736c0,0-5.695,26.093-34.688,31.34c4.366-9.595,7.386-25.922,5.108-32.031
				c3.106,0,5.177,0,5.177,0c1.656,9.527-1.346,20.709-5.385,27.129c12.012-4.556,24.438-18.845,25.991-26.611
				C345.664,160.217,346.872,161.736,346.872,161.736z"/>
			<path fill="#F7A60B" d="M346.872,161.736c0,0-5.695,26.093-34.688,31.34c4.366-9.595,7.386-25.922,5.108-32.031
				c3.106,0,5.177,0,5.177,0c1.656,9.527-1.346,20.709-5.385,27.129c12.012-4.556,24.438-18.845,25.991-26.611
				C345.664,160.217,346.872,161.736,346.872,161.736z"/>
			<g>
				<g>
					<path fill="#F75757" d="M339.454,169.247c-6.149-0.837-18.977-0.604-17.19,16.385
						C329.125,181.581,335.564,175.096,339.454,169.247z"/>
					<path fill="#FC6060" d="M337.615,171.814c-6.15-0.838-17.137-3.171-15.351,13.818
						C329.125,181.581,333.725,177.663,337.615,171.814z"/>
					<path fill="#FC3535" d="M321.779,186.596l-0.095-0.903c-0.612-5.819,0.418-10.258,3.061-13.193
						c2.41-2.678,6.227-4.093,11.037-4.093c1.209,0,2.472,0.089,3.751,0.262l0.923,0.126l-0.516,0.776
						c-4.259,6.403-10.918,12.75-17.379,16.564L321.779,186.596z M335.782,169.572c-4.534,0-7.955,1.248-10.169,3.708
						c-2.275,2.527-3.233,6.348-2.852,11.369c5.8-3.604,11.676-9.204,15.671-14.937
						C337.529,169.619,336.641,169.572,335.782,169.572z"/>
				</g>
			</g>
			<path fill="#F4750C" d="M311.191,193.848l0.462-1.014c4.174-9.172,7.344-25.548,5.093-31.584l-0.294-0.788h6.508l0.084,0.484
				c1.627,9.363-1.108,19.659-4.581,26.026c11.186-5.015,22.54-18.027,24.04-25.524l0.055-0.274l0.249-0.129
				c0.793-0.412,1.557-0.622,2.268-0.622c1.482,0,2.223,0.911,2.254,0.95l0.173,0.216l-0.059,0.271
				c-0.058,0.265-6.114,26.535-35.154,31.79L311.191,193.848z M318.092,161.63c1.835,6.679-1.026,21.482-4.926,30.663
				c25.629-5.216,32.284-27.42,33.057-30.361c-0.208-0.148-0.586-0.342-1.148-0.342c-0.453,0-0.953,0.125-1.487,0.372
				c-1.859,8.177-14.438,22.262-26.295,26.758l-1.628,0.617l0.927-1.473c3.807-6.053,6.834-16.933,5.384-26.234H318.092z"/>
		</g>
		<g>
			<path fill="#F78B0B" d="M360.057,160.321c0,0-13.771,14.083-32.514,7.559c-18.742-6.523-36.034-7.301-38.312,5.617
				c-4.867-15.765,1.823-32.831,19.052-38.752c17.229-5.921,23.919-1.761,29.717,10.976
				C343.8,158.457,353.223,160.942,360.057,160.321z"/>
			<path fill="#F7960B" d="M339.913,156.74c0.672,0,2.506-0.78,3.941-2.332c-2.155-2.148-4.161-4.971-5.853-8.688
				c-5.799-12.736-12.489-16.896-29.718-10.976c-16.79,5.77-23.566,22.123-19.397,37.542
				C292.338,149.348,319.882,162.089,339.913,156.74z"/>
			<path fill="#F7A60B" d="M334.079,150.906c1.486-0.743,3.442-1.961,4.669-3.65c-0.254-0.496-0.504-1.003-0.746-1.535
				c-5.799-12.736-12.489-16.896-29.718-10.976c-16.198,5.566-23.043,20.982-19.766,35.906
				C291.175,150.556,320.312,159.377,334.079,150.906z"/>
			<path fill="#F4750C" d="M289.386,175.977l-0.712-2.308c-5.304-17.184,2.863-33.786,19.42-39.476
				c5.246-1.803,9.54-2.679,13.125-2.679c7.782,0,12.798,4.046,17.313,13.965c5.683,12.481,14.724,14.345,19.608,14.345h0
				c0.618,0,1.245-0.028,1.863-0.084l1.578-0.144l-1.108,1.133c-0.092,0.095-9.408,9.459-22.942,9.459c0,0-0.001,0-0.003,0
				c-3.403,0.001-6.827-0.591-10.177-1.757c-8.58-2.986-16.317-4.564-22.376-4.564c-8.927,0-14.032,3.275-15.17,9.732
				L289.386,175.977z M321.219,132.681c-3.454,0-7.623,0.856-12.745,2.616c-15.268,5.247-23.122,20.142-19.262,35.941
				c1.946-5.598,7.345-8.539,15.764-8.539c6.188,0,14.059,1.601,22.76,4.629c3.226,1.123,6.521,1.692,9.793,1.692
				c0.001,0,0.002,0,0.002,0c10.303,0,18.063-5.621,20.917-8.032c-0.103,0.001-0.205,0.002-0.307,0.002h0
				c-5.165,0-14.717-1.953-20.67-15.029C333.119,136.405,328.562,132.681,321.219,132.681z"/>
		</g>
		<g>
			
				<ellipse transform="matrix(0.9924 -0.1228 0.1228 0.9924 -13.6943 45.671)" fill="#D2EAF7" cx="363.612" cy="133.916" rx="17.277" ry="26.031"/>
			
				<ellipse transform="matrix(0.9924 -0.1228 0.1228 0.9924 -13.2652 45.6483)" fill="#466572" cx="363.612" cy="130.416" rx="15.532" ry="23.402"/>
			
				<ellipse transform="matrix(0.9924 -0.1228 0.1228 0.9924 -13.6952 45.6748)" fill="#FFFFFF" cx="363.612" cy="133.917" rx="15.532" ry="23.402"/>
			<path fill="#466572" d="M365.197,157.804c-8.476,0-16.033-9.418-17.579-21.908c-0.781-6.316,0.12-12.464,2.54-17.312
				c2.458-4.927,6.19-7.935,10.508-8.469c0.45-0.056,0.908-0.084,1.361-0.084c8.476,0,16.033,9.418,17.579,21.907
				c0.781,6.317-0.12,12.465-2.54,17.313c-2.458,4.927-6.19,7.935-10.508,8.469C366.108,157.775,365.65,157.804,365.197,157.804z
				 M362.027,111.196c-0.405,0-0.815,0.025-1.217,0.075c-3.917,0.485-7.33,3.266-9.607,7.833c-2.318,4.645-3.18,10.557-2.425,16.647
				c1.449,11.711,8.662,20.885,16.42,20.885c0.405,0,0.815-0.025,1.217-0.075c3.917-0.485,7.329-3.267,9.608-7.833
				c2.318-4.645,3.179-10.558,2.425-16.648C376.998,120.37,369.785,111.196,362.027,111.196z"/>
		</g>
		<g>
			
				<ellipse transform="matrix(0.9924 -0.1228 0.1228 0.9924 -13.6951 45.6742)" fill="#00ABFF" cx="363.612" cy="133.917" rx="9.555" ry="14.397"/>
			<path fill="#0085FF" d="M370.729,125.392c-2.175-3.845-5.484-6.183-8.885-5.763c-5.237,0.648-8.691,7.57-7.714,15.461
				c0.472,3.812,1.896,7.145,3.83,9.507C366.209,141.932,371.124,133.992,370.729,125.392z"/>
			<path fill="#0065FF" d="M364.587,148.837c-5.327,0-10.073-5.879-11.037-13.675c-1.015-8.197,2.674-15.426,8.222-16.112
				c5.648-0.697,10.885,5.405,11.902,13.621c1.015,8.197-2.674,15.425-8.222,16.112
				C365.164,148.819,364.875,148.837,364.587,148.837z M362.636,120.163c-0.239,0-0.48,0.015-0.72,0.045
				c-4.91,0.608-8.143,7.251-7.208,14.811c0.923,7.459,5.685,13.217,10.601,12.607c4.909-0.608,8.143-7.251,7.208-14.811
				C371.638,125.721,367.298,120.163,362.636,120.163z"/>
		</g>
		<g>
			<ellipse transform="matrix(0.9924 -0.1227 0.1227 0.9924 -13.6864 45.6372)" cx="363.612" cy="133.917" rx="5.652" ry="8.515"/>
		</g>
		<circle fill="#FFFFFF" cx="309.228" cy="119.164" r="3.118"/>
		<circle fill="#FFFFFF" cx="304.852" cy="122.555" r="1.659"/>
		<circle fill="#FFFFFF" cx="362.126" cy="126.116" r="3.118"/>
		<circle fill="#FFFFFF" cx="357.75" cy="129.507" r="1.659"/>
	</g>
	<path fill="#F4C478" d="M291.683,153.745c0,0,12.124-20.196,35.647-17.716C318.035,130.632,299.024,136.748,291.683,153.745z"/>
</g>
</svg>
