<svg version="1.1" id="Layer_1" xmlns="http://www.w3.org/2000/svg" xmlns:xlink="http://www.w3.org/1999/xlink" viewBox="0 0 768 430" enable-background="new 0 0 768 430" xml:space="preserve">
<g>
	<g>
		<g>
			<path fill="#DEEDF4" d="M349.171,394.182h41.63c21.734,0,39.88-15.272,41.856-35.225l21.233-214.351H286.085l21.234,214.351
				C309.296,378.909,327.441,394.182,349.171,394.182z"/>
			<path fill="#CBD8DF" d="M293.207,149.166c-1.858,0-5.238-1.522-7.036-4.56h165.763
				C402.424,162.538,345.426,149.166,293.207,149.166z"/>
			<path fill="#B0E1F3" d="M442.858,186.62l-17.005,171.666c-1.64,16.564-16.709,29.061-35.052,29.061h-41.63
				c-18.338,0-33.408-12.496-35.049-29.061l-17.016-171.767C342.754,173.036,395.035,184.165,442.858,186.62z"/>
			
				<linearGradient id="SVGID_1_" gradientUnits="userSpaceOnUse" x1="362.832" y1="377.6094" x2="438.002" y2="377.6094" gradientTransform="matrix(-1 0 0 1 770.918 0)">
				<stop  offset="0" style="stop-color:#4B98FC"/>
				<stop  offset="0.5492" style="stop-color:#4C99FA"/>
				<stop  offset="0.7469" style="stop-color:#509CF3"/>
				<stop  offset="0.8874" style="stop-color:#58A2E8"/>
				<stop  offset="1" style="stop-color:#62AAD7"/>
			</linearGradient>
			<path fill="url(#SVGID_1_)" d="M408.086,377.61c0-2.701-16.826-4.893-37.585-4.893c-20.758,0-37.584,2.191-37.584,4.893
				c0,2.699,16.826,4.891,37.584,4.891C391.26,382.501,408.086,380.31,408.086,377.61z"/>
			<path opacity="0.5" fill="#4BBEFC" d="M329.308,180.744c-0.588,68.577,4.206,137.154,11.602,205.727
				c-14.431-3.105-25.399-14.191-26.788-28.186l-17.016-171.767C307.539,183.437,318.316,181.653,329.308,180.744z"/>
			<path fill="#80C6FB" d="M371.842,374.808c-16.75-59.175,17.917-126.002,68.628-164.053l-14.616,147.531
				c-0.398,4.016-1.59,7.79-3.423,11.209c-0.518,0.265-1.044,0.519-1.588,0.755C406.029,378.227,376.399,389.622,371.842,374.808z"
				/>
			<path fill="none" stroke="#48ADF0" stroke-width="0.3744" stroke-miterlimit="10" d="M441.608,187.695"/>
			<g>
				<g>
					<path fill="#48ADF0" d="M299.398,187.048l-1.056,0.324l0.018-0.027c1.798,14.326,3.386,28.674,5.088,43.009l4.752,43.042
						l4.548,43.063l4.39,42.988l-3.392,0.416l-3.855-42.844c-1.216-14.305-2.473-28.596-3.62-42.97l-3.468-43.262L299.398,187.048z
						 M299.398,187.048l4.619,42.587l4.557,43.068c1.527,14.397,2.945,28.888,4.408,43.357l4.17,43.484l-3.392,0.419
						c-0.265-1.943-0.386-3.653-0.576-5.472l-0.523-5.389l-1.046-10.774l-2.083-21.55l-3.989-43.119l-3.784-43.14
						c-1.141-14.39-2.401-28.769-3.447-43.17l-0.003-0.023l0.021-0.003L299.398,187.048z"/>
				</g>
			</g>
			<g>
				<path fill="#13A8EF" d="M299.398,187.048c0.101,0.362,4.399-0.58,10.908-1.552c6.507-0.987,15.236-1.878,24.031-2.149
					c8.796-0.304,17.635-0.057,24.338,0.289c6.705,0.342,11.282,0.725,11.561,0.731c0.282,0.023,4.863,0.199,11.583,0.609
					c6.721,0.395,15.584,1.037,24.431,1.652c8.842,0.618,17.676,1.15,24.301,1.337c6.626,0.199,11.039,0.074,11.058-0.271
					c0.017-0.36-4.349-0.912-10.905-1.718c-6.562-0.805-15.319-1.879-24.109-2.958c-8.798-1.075-17.655-2.098-24.399-2.751
					c-6.745-0.675-11.369-0.996-11.651-1.021c-0.285-0.005-4.917-0.252-11.72-0.335c-6.801-0.086-15.789,0.042-24.704,0.817
					c-8.917,0.74-17.729,2.202-24.2,3.807C303.44,185.13,299.303,186.729,299.398,187.048z"/>
			</g>
			<path opacity="0.5" fill="#F1F8FB" d="M407.168,350.875c-2.276,6.839-14.814,5.697-23.93,6.839
				c8.363-66.918,25.338-135.751,14.004-203.864c13.602-0.357,27.002-1.727,39.987-4.854c-2.021,9.378-3.849,19.472-3.849,28.659
				C429.962,235.775,432.239,297.314,407.168,350.875z"/>
			<path opacity="0.5" fill="#C7EBF9" d="M335.834,163.884c-4.736,68.39-2.285,139.356,22.332,202.946
				c3.475,9.681,8.251,18.82,14.062,27.352h-23.056c-21.73,0-39.875-15.272-41.853-35.225l-19.852-200.402
				C303.104,163.545,319.458,163.031,335.834,163.884z"/>
		</g>
		<g>
			<g>
				
					<linearGradient id="SVGID_2_" gradientUnits="userSpaceOnUse" x1="403.6777" y1="63.6475" x2="435.6387" y2="63.6475" gradientTransform="matrix(-1 0 0 1 770.918 0)">
					<stop  offset="0" style="stop-color:#B0E1F3"/>
					<stop  offset="0.1677" style="stop-color:#A3DDF4"/>
					<stop  offset="0.4816" style="stop-color:#7FD2F8"/>
					<stop  offset="0.9048" style="stop-color:#46C1FE"/>
					<stop  offset="1" style="stop-color:#38BDFF"/>
				</linearGradient>
				<path fill="url(#SVGID_2_)" d="M335.279,63.644c0,5.882,3.174,11.012,7.895,13.794c2.374,1.391,5.138,2.191,8.091,2.191
					c5.593,0,10.518-2.877,13.378-7.237c1.64-2.515,2.597-5.52,2.597-8.748c0-5.725-3.017-10.754-7.544-13.572
					c-0.009,0-0.009,0-0.017-0.012c-1.734-1.076-3.692-1.828-5.79-2.169c-0.854-0.149-1.734-0.223-2.625-0.223
					c-3.128,0-6.041,0.901-8.508,2.449C338.267,52.937,335.279,57.945,335.279,63.644z"/>
				<path fill="#80C6FB" d="M340.151,58.855c0,3.079,0.871,5.956,2.383,8.396c2.81,4.557,7.85,7.588,13.599,7.588
					c3.126,0,6.052-0.901,8.511-2.449c1.64-2.515,2.597-5.52,2.597-8.748c0-5.725-3.017-10.754-7.544-13.572
					c-0.009,0-0.009,0-0.017-0.012c-1.734-1.076-3.692-1.828-5.79-2.169c-0.854-0.149-1.734-0.223-2.625-0.223
					c-3.128,0-6.041,0.901-8.508,2.449C341.105,52.631,340.151,55.636,340.151,58.855z"/>
				<path fill="#80C6FB" d="M335.279,63.644c0,5.882,3.174,11.012,7.895,13.794c-0.381-2.803-0.732-6.456-0.64-10.186
					c0.203-9.936,3.482-20.455,17.146-17.192c-0.223-0.11-2.59-1.299-5.79-2.169c-0.854-0.149-1.734-0.223-2.625-0.223
					c-3.128,0-6.041,0.901-8.508,2.449C338.267,52.937,335.279,57.945,335.279,63.644z"/>
				<g opacity="0.5">
					<path fill="#FFFFFF" d="M360.862,58.623c0.122-2.696-3.805-9.782-10.355-9.701c-6.551-0.081-10.475,7.005-10.355,9.701
						c-0.123,2.854,3.804,0.271,10.355,0.348C357.058,58.894,360.984,61.477,360.862,58.623z"/>
				</g>
			</g>
			<g>
				
					<linearGradient id="SVGID_3_" gradientUnits="userSpaceOnUse" x1="408.3018" y1="226.0986" x2="428.0029" y2="226.0986" gradientTransform="matrix(-0.9016 0.4326 0.4326 0.9016 650.7339 -263.0615)">
					<stop  offset="0" style="stop-color:#B0E1F3"/>
					<stop  offset="0.1677" style="stop-color:#A3DDF4"/>
					<stop  offset="0.4816" style="stop-color:#7FD2F8"/>
					<stop  offset="0.9048" style="stop-color:#46C1FE"/>
					<stop  offset="1" style="stop-color:#38BDFF"/>
				</linearGradient>
				<path fill="url(#SVGID_3_)" d="M362.655,125.939c1.568,3.27,4.698,5.276,8.066,5.565c1.69,0.14,3.441-0.155,5.082-0.942
					c3.109-1.492,5.08-4.405,5.505-7.589c0.244-1.836-0.026-3.763-0.89-5.555c-1.523-3.184-4.544-5.175-7.81-5.535
					c-0.006,0.003-0.006,0.003-0.017,0c-1.25-0.137-2.538-0.033-3.795,0.336c-0.514,0.146-1.021,0.338-1.518,0.577
					c-1.739,0.835-3.118,2.11-4.075,3.632C361.459,119.193,361.136,122.774,362.655,125.939z"/>
				<path fill="#80C6FB" d="M364.084,121.98c0.823,1.712,2.075,3.076,3.564,4.031c2.778,1.783,6.387,2.125,9.585,0.591
					c1.738-0.832,3.121-2.113,4.075-3.629c0.244-1.836-0.026-3.763-0.89-5.555c-1.523-3.184-4.544-5.175-7.81-5.535
					c-0.006,0.003-0.006,0.003-0.017,0c-1.25-0.137-2.538-0.033-3.795,0.336c-0.514,0.146-1.021,0.338-1.518,0.577
					c-1.739,0.835-3.118,2.11-4.075,3.632C362.954,118.265,363.225,120.191,364.084,121.98z"/>
				<path fill="#80C6FB" d="M362.655,125.939c1.568,3.27,4.698,5.276,8.066,5.565c-0.957-1.457-2.128-3.395-3.074-5.493
					c-2.535-5.576-3.52-12.299,4.945-14.127c-0.15-0.003-1.782-0.033-3.795,0.336c-0.514,0.146-1.021,0.338-1.518,0.577
					c-1.739,0.835-3.118,2.11-4.075,3.632C361.459,119.193,361.136,122.774,362.655,125.939z"/>
				<g opacity="0.5">
					<path fill="#FFFFFF" d="M375.536,116.327c-0.653-1.53-4.723-4.422-8.343-2.63c-3.665,1.703-3.957,6.688-3.171,8.153
						c0.695,1.62,2.187-0.865,5.849-2.568C373.491,117.493,376.366,117.882,375.536,116.327z"/>
				</g>
			</g>
			<g>
				
					<linearGradient id="SVGID_4_" gradientUnits="userSpaceOnUse" x1="376.0635" y1="197.5449" x2="386.5459" y2="197.5449" gradientTransform="matrix(-0.9016 0.4326 0.4326 0.9016 650.7339 -263.0615)">
					<stop  offset="0" style="stop-color:#B0E1F3"/>
					<stop  offset="0.1677" style="stop-color:#A3DDF4"/>
					<stop  offset="0.4816" style="stop-color:#7FD2F8"/>
					<stop  offset="0.9048" style="stop-color:#46C1FE"/>
					<stop  offset="1" style="stop-color:#38BDFF"/>
				</linearGradient>
				<path fill="url(#SVGID_4_)" d="M387.681,82.262c0.837,1.742,2.5,2.809,4.293,2.96c0.9,0.075,1.83-0.08,2.705-0.499
					c1.651-0.793,2.702-2.345,2.928-4.04c0.13-0.975-0.016-2.003-0.474-2.954c-0.812-1.694-2.416-2.755-4.155-2.945
					c-0.003,0-0.003,0-0.009,0c-0.666-0.072-1.35-0.018-2.019,0.178c-0.273,0.078-0.547,0.181-0.809,0.307
					c-0.924,0.446-1.657,1.124-2.168,1.932C387.045,78.671,386.872,80.577,387.681,82.262z"/>
				<path fill="#80C6FB" d="M388.442,80.154c0.438,0.913,1.103,1.638,1.896,2.146c1.476,0.948,3.396,1.129,5.101,0.315
					c0.924-0.446,1.66-1.124,2.167-1.932c0.13-0.975-0.016-2.003-0.474-2.954c-0.812-1.694-2.416-2.755-4.155-2.945
					c-0.003,0-0.003,0-0.009,0c-0.666-0.072-1.35-0.018-2.019,0.178c-0.273,0.078-0.547,0.181-0.809,0.307
					c-0.924,0.446-1.657,1.124-2.168,1.932C387.842,78.178,387.984,79.203,388.442,80.154z"/>
				<path fill="#80C6FB" d="M387.681,82.262c0.837,1.742,2.5,2.809,4.293,2.96c-0.509-0.775-1.133-1.803-1.635-2.921
					c-1.35-2.966-1.874-6.544,2.63-7.517c-0.08,0-0.948-0.018-2.019,0.178c-0.273,0.078-0.547,0.181-0.809,0.307
					c-0.924,0.446-1.657,1.124-2.168,1.932C387.045,78.671,386.872,80.577,387.681,82.262z"/>
				<g opacity="0.5">
					<path fill="#FFFFFF" d="M394.536,77.146c-0.349-0.812-2.516-2.351-4.442-1.397c-1.946,0.904-2.104,3.559-1.685,4.337
						c0.368,0.862,1.163-0.46,3.112-1.367C393.448,77.768,394.975,77.976,394.536,77.146z"/>
				</g>
			</g>
		</g>
	</g>
</g>
</svg>
