<?xml version="1.0" encoding="utf-8"?>
<!-- Generator: Adobe Illustrator 16.0.0, SVG Export Plug-In . SVG Version: 6.00 Build 0)  -->
<!DOCTYPE svg PUBLIC "-//W3C//DTD SVG 1.1//EN" "http://www.w3.org/Graphics/SVG/1.1/DTD/svg11.dtd">
<svg version="1.1" id="Layer_2" xmlns="http://www.w3.org/2000/svg" xmlns:xlink="http://www.w3.org/1999/xlink" x="0px" y="0px"
	 width="768px" height="430px" viewBox="0 0 768 430" enable-background="new 0 0 768 430" xml:space="preserve">
<g>
	<g>
		<g>
			<path fill="#657282" d="M371.25,248.096c1.236,0.658,2.154,0.059,3.292,0.241c-1.097-4.171-7.563-9.231-8.561-16.373
				l-18.669-10.021c-1.636,2.217-3.113,2.634-2.789,8.042c-10.457,9.913,2.748,53.964-0.483,67.604
				c-4.469,18.834-16.757,13.088-21.784,18.595c-2.977,3.259-1.203,12.787,8.858,14.602c10.06,1.813,17.46-1.438,19.968-9.736
				c2.534-8.376,10.699-9.456,10.952-25.493c0.359-22.741,12.808-31.6,11.531-40.575c1.277,0.518,1.754,0.168,2.654,0.299
				C374.98,252.105,372.348,251.147,371.25,248.096z"/>
			<path fill="#8898A5" d="M365.98,231.964l-7.806-14.219l-10.863,4.197c-1.636,2.217-3.113,2.634-2.789,8.042
				c-10.457,9.913,2.748,53.964-0.483,67.604c-4.469,18.834-16.757,13.088-21.784,18.595c-2.977,3.259-1.203,12.787,8.858,14.602
				c10.06,1.813,17.46-1.438,19.968-9.736c2.534-8.376,10.699-9.456,10.952-25.493c0.225-14.216,5.173-23.006,8.539-29.791
				C367.892,255.474,362.464,239.352,365.98,231.964z"/>
			<path fill="#BCC7CE" d="M344.713,303.286c1.916-5.744,1.972-10.79,1.513-16.597c-1.513-19.15-7.286-42.591-1.947-56.466
				c-9.842,14.274,2.876,54.207-0.24,67.364c-3.902,16.447-13.767,14.15-19.553,16.971c3.806-0.093,7.694-1.079,10.729-2.495
				C339.044,310.148,342.799,308.074,344.713,303.286z"/>
			<path fill="#B8C6D1" d="M374.542,248.337c-12.867-14.186-19.49,5.525-18.213,15.101c1.117,10.213-1.689,17.652-3.394,23.545
				c-1.915,6.703-6.022,12.922-10.766,16.271c-5.381,11.972-15.476,8.066-19.913,12.929c-2.977,3.259-1.203,12.787,8.858,14.602
				c10.06,1.813,17.46-1.438,19.968-9.736c2.534-8.376,10.699-9.456,10.952-25.493c0.359-22.741,12.808-31.6,11.531-40.575
				c1.277,0.518,1.754,0.168,2.654,0.299c-1.237-3.173-3.87-4.131-4.968-7.183C372.486,248.754,373.404,248.154,374.542,248.337z"/>
			<path fill="#D0DAE3" d="M357.137,301.891c2.873-11.013,2.155-20.947,6.464-31.958c2.394-5.746,0.957-13.406,0.957-20.587
				c1.437,0.478,2.873,1.436,4.309,2.394c-1.847-2.462-3.312-5.705-3.654-8.307c-6.709,0.881-9.808,13.081-8.885,20.005
				c1.117,10.213-1.689,17.652-3.394,23.545c-1.915,6.703-6.022,12.922-10.766,16.271c-5.381,11.972-15.476,8.066-19.913,12.929
				c-2.47,2.705-0.835,7.562,0.719,9.408c3.153,3.631,18.364,1.732,20.599-2.755C346.844,314.992,355.222,308.594,357.137,301.891z"
				/>
			<path fill="#F0F1F2" d="M326.198,314.992c8.346-2.115,14.044-1.732,19.376-14.742c-1.032,1.084-2.282,2.21-3.405,3.004
				c-5.381,11.972-15.476,8.066-19.913,12.929c-1.38,1.511-1.477,3.694-1.024,5.649
				C321.342,319.597,322.987,315.808,326.198,314.992z"/>
			<path fill="#242F3A" d="M336.195,331.503c-1.611,0-3.322-0.16-5.125-0.484c-6.924-1.248-9.183-5.849-9.833-7.77
				c-0.931-2.753-0.594-5.658,0.842-7.229c1.705-1.868,4.236-2.482,6.916-3.129c5.555-1.347,11.85-2.873,14.812-15.356
				c1.078-4.543-0.111-14.42-1.371-24.877c-0.911-7.564-1.905-15.606-2.153-22.705c-0.353-10.055,1.073-15.801,3-17.823
				c-2.319,3.553-2.832,10.155-2.521,17.906c0.282,7.046,1.245,15.045,2.15,22.564c1.32,10.957,2.458,20.419,1.361,25.045
				c-3.029,12.769-9.759,14.399-15.165,15.708c-2.72,0.661-5.068,1.229-6.675,2.989c-1.321,1.448-1.619,4.16-0.742,6.753
				c0.623,1.841,2.791,6.25,9.464,7.452c10.274,1.855,17.272-1.545,19.697-9.567c0.94-3.109,2.631-5.211,4.421-7.434
				c3.127-3.888,6.361-7.906,6.521-17.996c0.209-13.252,4.429-21.655,7.82-28.404c2.368-4.717,4.238-8.44,3.713-12.133l-0.059-0.414
				l0.385,0.158c0.775,0.314,1.224,0.292,1.699,0.264c0.158-0.007,0.317-0.017,0.493-0.013c-0.601-1.342-1.478-2.28-2.327-3.19
				c-0.947-1.014-1.926-2.062-2.493-3.641l-0.21-0.584l0.548,0.293c0.698,0.371,1.288,0.304,1.911,0.233
				c0.301-0.033,0.611-0.068,0.938-0.056c-0.514-1.553-1.769-3.235-3.206-5.163c-2.441-3.271-5.321-8.3-5.024-10.937
				c0.584,4.188,3.147,7.621,5.408,10.652c1.571,2.105,2.928,3.924,3.384,5.659l0.093,0.354l-0.362-0.058
				c-0.404-0.063-0.781-0.022-1.177,0.022c-0.517,0.058-1.047,0.117-1.643-0.061c0.544,1.202,1.343,2.058,2.183,2.956
				c0.954,1.022,1.94,2.079,2.572,3.699l0.15,0.383l-0.406-0.057c-0.295-0.044-0.543-0.029-0.806-0.017
				c-0.431,0.022-0.873,0.048-1.53-0.163c0.369,3.707-1.482,7.396-3.806,12.023c-3.368,6.709-7.561,15.055-7.769,28.2
				c-0.162,10.252-3.596,14.52-6.627,18.285c-1.759,2.188-3.421,4.252-4.335,7.272C349.27,327.868,343.875,331.503,336.195,331.503z
				"/>
		</g>
		<g>
			<path fill="#242F3A" d="M328.229,330.229c-1.852-1.13-3.01-3.209-3.179-5.703c-0.144-2.151,0.499-4.202,1.603-5.1
				c1.018-0.827,2.343-1.093,3.745-1.372c1.985-0.396,4.235-0.845,6.035-3.062c-1.271,1.933-2.745,2.892-5.94,3.531
				c-1.343,0.269-2.611,0.521-3.538,1.275c-0.972,0.791-1.559,2.723-1.426,4.696c0.157,2.335,1.233,4.277,2.95,5.327
				L328.229,330.229z"/>
		</g>
		<g>
			<path fill="#D1D1D1" d="M326.784,323.144c-1.147-0.527-5.406,2.095-6.748,6.119c-0.876,2.63,3.977-0.842,6.958-1.153
				C329.866,327.812,327.891,323.651,326.784,323.144z"/>
			<path fill="#FFFFFF" d="M326.784,323.144c-1.147-0.527-5.406,2.095-6.748,6.119c-0.876,2.63,2.717-1.914,5.699-2.223
				C328.608,326.74,327.891,323.651,326.784,323.144z"/>
			<path fill="#969292" d="M320.436,330.479L320.436,330.479c-0.286,0-0.494-0.085-0.621-0.261c-0.164-0.228-0.165-0.556-0.006-1.03
				c1.292-3.877,5.07-6.352,6.615-6.352c0.176,0,0.331,0.03,0.459,0.091c0.84,0.384,2.049,2.495,1.805,3.973
				c-0.097,0.591-0.466,1.323-1.671,1.448c-1.13,0.118-2.565,0.715-3.83,1.245C322.041,330.067,321.05,330.479,320.436,330.479z
				 M326.424,323.315c-1.459,0-4.982,2.484-6.162,6.024c-0.144,0.431-0.081,0.565-0.059,0.597c0.042,0.058,0.164,0.063,0.232,0.063
				l0,0c0.518,0,1.514-0.412,2.568-0.852c1.296-0.54,2.765-1.151,3.965-1.275c0.736-0.077,1.145-0.422,1.249-1.053
				c0.21-1.275-0.918-3.179-1.533-3.459C326.619,323.332,326.531,323.315,326.424,323.315z"/>
		</g>
		<g>
			<path fill="#D1D1D1" d="M321.922,319.207c-1.075-0.37-4.651,2.361-5.49,6.084c-0.547,2.434,3.484-1.109,6.125-1.655
				C325.102,323.108,322.959,319.562,321.922,319.207z"/>
			<path fill="#FFFFFF" d="M321.922,319.207c-1.075-0.37-4.651,2.361-5.49,6.084c-0.547,2.434,2.284-1.908,4.926-2.455
				C323.903,322.312,322.959,319.562,321.922,319.207z"/>
			<path fill="#969292" d="M316.79,326.376L316.79,326.376c-0.275,0-0.426-0.118-0.504-0.217c-0.156-0.194-0.184-0.486-0.086-0.92
				c0.82-3.644,4.104-6.307,5.501-6.307c0.109,0,0.21,0.016,0.3,0.048c0.793,0.271,2.077,2.062,1.99,3.417
				c-0.048,0.775-0.541,1.297-1.386,1.47c-0.996,0.208-2.225,0.871-3.31,1.455C318.204,325.91,317.343,326.376,316.79,326.376z
				 M321.7,319.411c-1.103,0-4.262,2.505-5.035,5.935c-0.087,0.39-0.021,0.497-0.006,0.516c0.024,0.03,0.084,0.036,0.13,0.036
				c0.432,0,1.329-0.484,2.279-0.996c1.113-0.601,2.374-1.281,3.441-1.503c0.64-0.132,0.967-0.469,1.003-1.03
				c0.073-1.151-1.098-2.74-1.668-2.937C321.806,319.42,321.757,319.411,321.7,319.411z"/>
		</g>
	</g>
	<g>
		<g>
			<path fill="#657282" d="M408.255,192.723c5.196,20.515,32.232,57.167,48.454,75.332c14.036,15.719,14.328,50.237,9.966,62.991
				c-4.364,12.76-48.011,26.188-60.771-18.462c-10.071-15.11-40.959-34.583-53.382-63.794L408.255,192.723z"/>
			<path fill="#8898A5" d="M447.368,311.575c7.556-8.562,4.3-22.145-0.692-33.071c-11.729-25.683-40.641-43.01-47.445-76.701
				l-46.708,46.987c12.422,29.211,43.311,48.684,53.382,63.794c1.117,3.906,2.475,7.36,4.018,10.417
				C423.926,324.525,437.785,322.058,447.368,311.575z"/>
			<path fill="#D0DAE3" d="M421.182,287.904c-2.013-5.034-10.073-4.531-13.095-9.567c-12.415-17.126-41.925-28.868-40.277-44.926
				l-15.287,15.379c12.422,29.211,43.311,48.684,53.382,63.794c10.121,35.42,39.676,34.291,53.643,25.941
				C442.152,326.484,429.358,308.006,421.182,287.904z"/>
			<path fill="#242F3A" d="M441.189,343.638c-7.551,0-14.595-2.317-20.365-6.704c-6.962-5.29-12.06-13.445-15.15-24.245
				c-3.623-5.42-9.883-11.358-17.128-18.234c-12.606-11.961-28.295-26.846-36.256-45.564l-0.065-0.154l0.119-0.122l56.046-56.383
				l0.109,0.431c5.13,20.255,31.392,56.183,48.396,75.227c13.975,15.643,14.435,50.323,10.016,63.241
				C464.846,337.171,454.015,343.638,441.189,343.638z M352.82,248.848c7.94,18.548,23.535,33.347,36.07,45.24
				c7.283,6.91,13.575,12.88,17.223,18.355l0.034,0.069c7.896,27.639,27.136,30.622,35.042,30.622
				c12.423,0,23.276-6.412,25.246-12.169c4.387-12.822,3.937-47.232-9.915-62.743c-16.921-18.947-42.99-54.597-48.397-75.009
				L352.82,248.848z"/>
		</g>
	</g>
	<g>
		<g>
			<path fill="#657282" d="M446.864,278.337c-19.471-21.823-53.55-15.613-62.951-2.856c1.849-0.165,4.114-0.418,5.792,1.178
				c-2.77,0.672-10.638,4.638-13.157,12.443c1.637-1.385,5.519-2.288,6.526-1.531c-4.868,2.097-8.645,9.315-8.813,15.193
				c1.973-2.646,4.07-2.747,6.548-4.031c-1.301,4.471-3.316,4.783-2.015,12.003c0.588-1.426,1.427-3.272,2.434-3.272
				c0.587,9.146,11.415,21.738,18.97,24.257c-8.56,1.679-15.611-3.611-23.166-3.694c-6.89-0.074-20.332,4.537-17.794,16.452
				c3.693,17.338,80.913,35.419,107.604-6.884L446.864,278.337z"/>
			<path fill="#8898A5" d="M443.592,332.601c7.491-16.684-14.855-21.025-29.967-24.551c14.901-1.354,45.922-4.03,33.488-28.976
				l-0.249-0.737c-19.471-21.823-53.55-15.613-62.951-2.856c1.849-0.165,4.114-0.418,5.792,1.178
				c-2.77,0.672-10.638,4.638-13.157,12.443c1.637-1.385,5.519-2.288,6.526-1.531c-4.868,2.097-8.645,9.315-8.813,15.193
				c1.973-2.646,4.07-2.747,6.548-4.031c-1.301,4.471-3.316,4.783-2.015,12.003c0.588-1.426,1.427-3.272,2.434-3.272
				c0.587,9.146,11.415,21.738,18.97,24.257c-8.56,1.679-15.611-3.611-23.166-3.694c-6.89-0.074-20.332,4.537-17.794,16.452
				c1.393,6.541,13.257,13.188,28.923,16.657C411.858,362.053,434.198,353.518,443.592,332.601z"/>
			<path fill="#BCC7CE" d="M403.672,331.334c-12.086-3.526-24.247-18.778-19.137-28.705c-1.006,0-3.021,1.006-3.021,0.502
				c-1.007-2.519,3.021-4.027,3.021-7.049c-2.015,0.503-4.027,0.503-6.043,0.503c1.511-6.043,7.555-8.562,12.59-10.575
				c-3.021-0.504-6.127-1.178-9.651-0.543c2.098-4.326,9.147-6.509,13.177-9.025c-2.013-0.505-3.608-2.938-5.035-3.021
				c16.871-13.675,42.639-6.885,56.125,3.663c-19.64-20.317-52.566-14.107-61.784-1.603c1.849-0.165,4.114-0.418,5.792,1.178
				c-2.77,0.672-10.638,4.638-13.157,12.443c1.637-1.385,5.519-2.288,6.526-1.531c-4.868,2.097-8.645,9.315-8.813,15.193
				c1.973-2.646,4.07-2.747,6.548-4.031c-1.301,4.471-3.316,4.783-2.015,12.003c0.588-1.426,1.427-3.272,2.434-3.272
				c0.587,9.146,11.415,21.738,18.97,24.257c-3.676,0.72-7.072,0.155-10.351-0.729C394.108,332.983,398.809,333.622,403.672,331.334
				z"/>
			<path fill="#B8C6D1" d="M381.228,307.463c0.483,10.219,12.49,22.097,18.97,24.257c-8.56,1.679-15.611-3.611-23.166-3.694
				c-6.89-0.074-20.332,4.537-17.794,16.452c3.693,17.338,74.295,35.33,100.986-6.975c0,0,3.348-9.136-2.834-10.513
				c-12.825-2.857-19.255,1.539-40.171-0.14C398.16,325.321,385.527,318.419,381.228,307.463z"/>
			<path fill="#D0DAE3" d="M437.979,335.951c3.777-2.057,7.058-6.475,7.102-9.85c-8.887,0.801-15.496,1.742-27.862,0.749
				c-19.059-1.529-31.691-8.432-35.991-19.388c0.483,10.219,12.49,22.097,18.97,24.257c-8.56,1.679-15.611-3.611-23.166-3.694
				c-5.447-0.062-14.984,2.815-17.487,9.908C356.368,347.617,420.077,345.695,437.979,335.951z"/>
			<path fill="#F0F1F2" d="M376.981,329.822c9.568-0.503,12.464,5.279,28.707,3.659c-9.696-3.877-17.351-11.447-21.552-20.926
				c-0.917-1.363-2.311-3.568-2.909-5.093c0.483,10.219,12.49,22.097,18.97,24.257c-8.56,1.679-15.611-3.611-23.166-3.694
				c-5.447-0.062-14.984,2.815-17.487,9.908c-0.223,0.68-0.106,1.3,0.292,1.867C363.156,333.348,370.243,329.822,376.981,329.822z"
				/>
			<path fill="#242F3A" d="M410.833,363.862c-6.396,0-12.699-0.602-18.616-1.657c-18.031-3.215-31.694-10.484-33.226-17.675
				c-0.824-3.87-0.065-7.271,2.256-10.105c4.01-4.899,11.473-6.651,15.628-6.651c0.054,0,0.107,0,0.159,0
				c3.201,0.034,6.237,0.974,9.45,1.962c4.033,1.244,8.196,2.53,12.749,1.891c-7.517-3.138-17.47-14.903-18.236-23.866
				c-0.833,0.312-1.617,2.217-1.97,3.072l-0.328,0.796l-0.152-0.847c-0.94-5.22-0.16-6.914,0.829-9.062
				c0.327-0.712,0.692-1.503,1.021-2.501c-0.525,0.244-1.029,0.446-1.522,0.642c-1.632,0.653-3.041,1.218-4.41,3.052l-0.476,0.639
				l0.022-0.796c0.156-5.451,3.555-12.668,8.432-15.165c-1.324-0.237-4.314,0.506-5.729,1.702l-0.673,0.571l0.271-0.838
				c2.557-7.928,10.191-11.63,12.876-12.481c-1.508-1.152-3.414-0.977-5.11-0.824l-0.696,0.064l0.331-0.451
				c4.795-6.508,15.501-11.066,27.274-11.618c15.048-0.708,27.13,4.34,35.691,14.789c-11.89-13.325-27.453-14.671-35.669-14.285
				c-11.352,0.529-21.68,4.814-26.545,10.963c1.756-0.15,3.831-0.214,5.417,1.295l0.336,0.317l-0.451,0.109
				c-2.96,0.717-10.083,4.592-12.717,11.537c1.858-1.123,5.112-1.87,6.179-1.072l0.347,0.261l-0.398,0.172
				c-4.758,2.051-8.178,8.811-8.618,14.2c1.306-1.478,2.683-2.029,4.13-2.607c0.645-0.258,1.312-0.522,2.006-0.884l0.521-0.271
				l-0.164,0.565c-0.381,1.305-0.826,2.271-1.218,3.126c-0.931,2.022-1.621,3.517-0.933,7.92c0.652-1.449,1.392-2.64,2.328-2.64
				h0.237l0.015,0.237c0.579,9.006,11.424,21.575,18.798,24.033l0.906,0.302l-0.939,0.184c-5.035,0.988-9.545-0.402-13.909-1.748
				c-3.176-0.98-6.178-1.905-9.306-1.939c-4.023-0.039-11.443,1.639-15.392,6.464c-2.22,2.712-2.944,5.968-2.153,9.683
				c1.466,6.885,15.27,14.152,32.823,17.286c25.646,4.572,58.639,0.604,74.324-24.251l0.423,0.27
				C454.863,357.049,432.337,363.862,410.833,363.862z"/>
		</g>
		<g>
			<path fill="#242F3A" d="M397.549,330.795l0.287-0.415c3.856,2.688,14.435,3.098,14.54,3.102
				C412.376,333.481,401.525,333.564,397.549,330.795z"/>
		</g>
	</g>
	<g>
		<g>
			<path fill="#657282" d="M472.591,332.979c1.429-1.259,4.112-0.756,5.75,0.755c-2.812-10.492-11.542-11.713-11.542-11.713
				l-6.095,6.07c0.718,1.255,0.897,2.637,0.526,3.748c-1.256,2.511-3.515,3.395-5.962,3.335c-7.105,6.207-23.695,5.336-26.365,4.435
				c0.873,1.266,2.224,2.529,4.364,3.777c-4.028-0.587-17.753-7.008-23.418-5.559c1.512,1.068,2.52,3.083,2.52,4.342
				c-9.885-6.924-25.623-2.203-35.002-8.436c-0.188,1.261,0.923,3.44,1.596,4.869c-14.101-4.534-28.224-0.84-35.336,6.629
				c2.917-0.146,4.91-0.638,7.302,1.22c-6.295,0.71-11.835,11.792-28.832,10.574c3.147,3.525,12.464,6.925,17.751,5.917
				c-4.532,1.889-6.42,5.414-12.212,5.918c20.774,11.08,35.463,3.147,46.71,4.282c-2.014,1.72-4.407,2.054-6.673,5.286
				c7.135-2.728,18.256-0.545,28.078-4.533c-1.932,2.434-1.953,3.586-3.402,5.666c14.062-4.365,35.297-1.761,47.342-9.693
				c-0.252,1.636-0.63,3.022-1.889,3.902c10.7-0.251,22.157-7.932,25.557-11.582c0,1.637-0.63,3.524-1.887,4.909
				c7.553-2.139,14.603-12.463,14.227-19.892c1.006,0,2.392,1.258,2.644,3.021C481.447,342.548,476.578,334.237,472.591,332.979z"/>
			<path fill="#8898A5" d="M368.062,344.428c9.065,3.021,15.676-0.559,25.684,3.147c-1.889-3.873-2.518-3.147-4.029-5.665
				c4.533,2.013,9.569,4.028,14.606,5.035c-1.009-2.014-2.014-3.526-3.525-4.532c7.077,0.659,12.589,4.028,18.129,7.051
				c1.007,0.503,2.52,1.007,4.029,0.503c-1.51-1.007-2.014-2.518-3.022-4.028c6.547,3.525,13.599,3.525,20.649,2.52
				c-2.016,0-3.525-0.504-5.037-2.017c6.654,1.505,12.927,1.764,16.618,0c-3.021-0.546-4.329-1.354-5.035-2.014
				c7.31,0.405,15.792-8.253,13.786-14.522c-1.307,1.696-3.585,5.315-5.646,5.269c-7.105,6.207-23.695,5.336-26.365,4.435
				c0.873,1.266,2.224,2.529,4.364,3.777c-4.028-0.587-17.753-7.008-23.418-5.559c1.512,1.068,2.52,3.083,2.52,4.342
				c-9.885-6.924-25.623-2.203-35.002-8.436c-0.188,1.261,0.923,3.44,1.596,4.869c-14.101-4.534-28.224-0.84-35.336,6.629
				c2.917-0.146,4.91-0.638,7.302,1.22c-6.295,0.71-11.835,11.792-28.832,10.574c2.521,2.824,8.997,5.563,14.193,6.027
				c11.183-6.058,21.058-15.141,33.788-16.611C368.566,346.441,368.062,345.435,368.062,344.428z"/>
			<path fill="#D0DAE3" d="M459.431,328.213c1.606,2.7-1.424,5.237-3.237,6.143c-0.186,0.111-0.373,0.208-0.558,0.308
				c-6.633,6.846-23.979,5.875-26.732,4.945c0.873,1.266,2.224,2.529,4.364,3.777c-2.734-0.398-9.933-3.482-16.049-4.973
				c12.021,4.972,13.53,6.905,22.596,6.652c-3.316-1.134-2.812-2.058-5.035-2.729c5.574,0.993,7.806,2.854,16.367,0.021
				c-3.484,0.231-3.021-0.482-4.849-0.817C457.524,342.515,464.504,330.83,459.431,328.213z"/>
			<path fill="#B8C6D1" d="M381.983,370.916c4.785,0,6.392-2.47,10.7-5.099c-4.533,2.014-8.434,1.911-13.721,0.23
				c6.336-1.217,9.106-4.658,12.129-6.755c-5.541,1.93-9.697-0.842-14.731,2.643c3.776-5.792,7.931-4.238,12.715-7.805
				c-4.028,1.008-9.82,1.637-13.219,0.755c4.071-1.092,3.987-2.705,8.057-3.567c-3.356-0.526-12.421-0.526-17.122,2.056
				c6.337-6.252,13.997-3.627,20.881-7.32c-8.059-0.63-10.472-3.172-15.173-3.129c6.168-2.1,9.316,0.21,13.254-1.513
				c-7.798-1.459-8.37-3.543-12.884-4.273c-11.944-1.924-23.158,1.703-29.243,8.093c2.917-0.146,4.91-0.638,7.302,1.22
				c-6.295,0.71-11.835,11.792-28.832,10.574c3.147,3.525,12.464,6.925,17.751,5.917c-4.532,1.889-6.42,5.414-12.212,5.918
				c20.774,11.08,35.463,3.147,46.71,4.282c-2.014,1.72-4.407,2.054-6.673,5.286c6.483-2.479,18.634-0.296,28.287-4.658
				C392.39,373.896,385.593,373.602,381.983,370.916z"/>
			<path fill="#D0DAE3" d="M349.376,350.352c3.021-2.52,9.621-2.397,13.65-2.397c-2.518-1.009-5.036-3.022-7.553-4.031
				c5.035,0,9.568,2.016,14.604,1.512c-1.007-1.007-2.518-1.007-3.022-2.518c4.399,1.825,8.926,1.961,18.615,2.928
				c-6.637-0.75-8.845-2.958-13.171-2.92c6.168-2.1,9.316,0.21,13.254-1.513c-7.798-1.459-8.37-3.543-12.884-4.273
				c-11.944-1.924-23.158,1.703-29.243,8.093c2.917-0.146,4.91-0.638,7.302,1.22c-6.295,0.71-11.835,11.792-28.832,10.574
				c0.007,0.008,0.016,0.017,0.023,0.023C332.019,359.698,339.995,356.877,349.376,350.352z"/>
			<path fill="#242F3A" d="M391.725,380.02l0.418-0.602c0.613-0.88,0.959-1.58,1.324-2.315c0.393-0.791,0.797-1.605,1.546-2.651
				c-5.191,1.915-10.766,2.232-15.711,2.517c-4.297,0.245-8.354,0.479-11.539,1.697l-0.769,0.294l0.473-0.674
				c1.504-2.147,3.036-3.027,4.518-3.88c0.594-0.342,1.164-0.67,1.707-1.067c-3.22-0.227-6.791,0.245-10.56,0.739
				c-9.384,1.231-21.064,2.767-35.614-4.995l-0.75-0.4l0.846-0.073c3.537-0.306,5.575-1.753,7.734-3.283
				c0.946-0.669,1.916-1.358,3.035-1.962c-5.598,0.287-13.604-2.956-16.474-6.17l-0.413-0.463l0.62,0.043
				c11.002,0.791,17.026-3.521,21.868-6.982c2.274-1.627,4.269-3.053,6.305-3.49c-1.757-1.154-3.317-1.045-5.408-0.896
				c-0.396,0.029-0.809,0.057-1.243,0.08l-0.629,0.032l0.435-0.457c7.678-8.063,22.017-10.854,35.044-6.868
				c-0.675-1.424-1.547-3.306-1.37-4.495l0.059-0.391l0.33,0.219c4.504,2.99,10.408,3.422,16.66,3.878
				c6.307,0.459,12.824,0.936,17.899,4.258c-0.219-1.17-1.113-2.745-2.36-3.629l-0.443-0.315l0.526-0.135
				c3.883-0.995,11.214,1.551,17.106,3.595c1.935,0.671,3.685,1.277,5.002,1.643c-1.383-0.949-2.437-1.959-3.2-3.066l-0.433-0.624
				l0.722,0.243c2.459,0.831,15.901,1.494,23.611-2.671c2.896-1.565,4.698-3.644,5.354-6.176c0.119,1.415-1.14,4.501-5.114,6.618
				c-7.607,4.054-19.735,3.577-23.31,2.879c0.919,1.135,2.19,2.17,3.867,3.146l-0.163,0.469c-1.343-0.198-3.733-1.025-6.502-1.985
				c-5.277-1.831-12.414-4.307-16.299-3.688c1.364,1.188,2.189,3.031,2.189,4.205v0.484l-0.398-0.279
				c-5.021-3.517-11.667-4.001-18.093-4.471c-6.148-0.447-11.967-0.871-16.528-3.72c0.062,1.1,0.828,2.709,1.404,3.922l0.431,0.913
				l-0.552-0.177c-12.742-4.095-26.857-1.58-34.622,6.102c0.199-0.015,0.391-0.027,0.583-0.04c2.303-0.165,4.123-0.294,6.237,1.348
				l0.489,0.379l-0.614,0.069c-2.122,0.243-4.234,1.751-6.68,3.501c-4.557,3.26-10.764,7.701-21.544,7.117
				c3.378,3.202,11.997,6.343,17.069,5.377l0.145,0.481c-1.686,0.701-3.018,1.647-4.307,2.562c-2.045,1.448-3.986,2.826-7.161,3.28
				c14.074,7.255,25.432,5.762,34.589,4.56c4.047-0.53,7.868-1.034,11.304-0.687l0.587,0.059l-0.447,0.384
				c-0.725,0.618-1.478,1.051-2.274,1.51c-1.271,0.731-2.58,1.484-3.862,3.072c3.119-1.005,6.907-1.222,10.899-1.447
				c5.172-0.297,11.034-0.633,16.382-2.806l0.887-0.358l-0.596,0.749c-1.082,1.365-1.561,2.334-2.027,3.272
				c-0.277,0.562-0.564,1.14-0.976,1.796c5.519-1.607,11.938-2.201,18.718-2.829c10.193-0.945,20.733-1.922,27.889-6.634
				l0.476-0.312l-0.086,0.56c-0.238,1.541-0.578,2.718-1.42,3.585c10.267-0.562,21.229-7.794,24.656-11.475l0.436-0.467v0.64
				c0,1.549-0.52,3.142-1.418,4.41c6.934-2.521,13.62-12.152,13.253-19.381l-0.013-0.265h0.265c0.97,0,2.18,0.992,2.689,2.42
				c1.129-3.393,0.854-7.263-0.787-10.745c-1.28-2.716-3.274-4.838-5.083-5.409l-0.425-0.137l0.332-0.294
				c1.42-1.25,3.793-0.884,5.458,0.259c-2.941-9.543-11-11.013-11.083-11.026c0,0,8.964,1.122,11.786,11.647l0.223,0.84
				l-0.638-0.589c-1.487-1.372-3.719-1.784-5.051-1.013c1.825,0.789,3.682,2.847,4.936,5.507c1.825,3.872,2.014,8.213,0.521,11.907
				l-0.351,0.868l-0.135-0.925c-0.218-1.54-1.32-2.578-2.131-2.772c0.19,7.662-7.121,17.78-14.421,19.848l-0.848,0.241l0.593-0.651
				c0.998-1.1,1.643-2.589,1.793-4.09c-4.019,3.938-15.079,10.944-25.27,11.184l-0.832,0.02l0.681-0.479
				c1.004-0.702,1.425-1.746,1.689-3.178c-7.246,4.52-17.608,5.479-27.636,6.406c-7.028,0.65-13.669,1.268-19.284,3.009
				L391.725,380.02z"/>
		</g>
	</g>
	<g>
		<g>
			<path fill="#350D01" d="M346.228,51.544c-21.655,11.751-4.449,36.764-17.542,38.106c3.021,13.094,9.232,15.444,14.436,12.59
				c5.204-2.854,10.576-7.387,7.89-16.787C348.325,76.053,344.213,61.784,346.228,51.544z"/>
			<path fill="#631A00" d="M337.276,88.846c3.861-5.373-0.33-14.088-0.33-22.208c0-4.442,7.33-9.128,9.281-15.094
				c-21.655,11.751-4.449,36.764-17.542,38.106c0.264,1.147,0.554,2.208,0.866,3.195C333.284,93.682,334.859,92.207,337.276,88.846z
				"/>
			<path fill="#242F3A" d="M339.213,103.571L339.213,103.571c-2.828,0-7.99-1.801-10.773-13.864l-0.064-0.277l0.284-0.03
				c5.491-0.563,5.433-5.35,5.353-11.976c-0.104-8.648-0.234-19.411,12.096-26.102l0.469-0.255l-0.103,0.525
				c-1.988,10.106,2.049,24.237,4.721,33.588l0.057,0.204c2.809,9.83-3.227,14.454-8.01,17.077
				C341.9,103.199,340.544,103.571,339.213,103.571z M328.995,89.868c2.018,8.515,5.641,13.2,10.218,13.2l0,0
				c1.246,0,2.519-0.353,3.788-1.048c5.023-2.755,10.447-7.12,7.768-16.497l-0.058-0.204c-2.64-9.236-6.604-23.114-4.829-33.296
				c-11.595,6.564-11.468,16.993-11.366,25.395C334.594,83.944,334.656,89.122,328.995,89.868z"/>
		</g>
		<g>
			<path fill="#E0DEDE" d="M336.26,66.606c-0.816-0.366-4.173,3.518-4.861,6.959c-0.327,1.64,3.442-2.323,5.423-2.787
				C338.731,70.332,337.048,66.96,336.26,66.606z"/>
			<path fill="#FFFFFF" d="M336.26,66.606c-0.816-0.366-4.173,3.518-4.861,6.959c-0.327,1.64,2.255-2.821,4.228-3.808
				C337.379,68.882,337.048,66.96,336.26,66.606z"/>
			<path fill="#969292" d="M331.558,74.213L331.558,74.213c-0.135,0-0.251-0.052-0.328-0.146c-0.135-0.165-0.109-0.393-0.078-0.55
				c0.661-3.307,3.782-7.186,4.985-7.186c0.081,0,0.158,0.017,0.225,0.046c0.656,0.295,1.702,2.12,1.579,3.399
				c-0.065,0.66-0.441,1.103-1.062,1.248c-0.856,0.202-2.15,1.155-3.188,1.923C332.595,73.755,331.955,74.213,331.558,74.213z
				 M331.558,73.708l0,0.252L331.558,73.708C331.558,73.709,331.558,73.709,331.558,73.708z M336.156,66.836
				c-0.805,0-3.859,3.524-4.51,6.779c-0.006,0.033-0.01,0.059-0.013,0.081c0.321-0.095,1.112-0.679,1.758-1.156
				c1.132-0.835,2.416-1.781,3.373-2.005c0.412-0.097,0.633-0.361,0.675-0.808C337.542,68.668,336.603,67.036,336.156,66.836
				C336.156,66.836,336.156,66.836,336.156,66.836z"/>
		</g>
		<g>
			<path fill="#E0DEDE" d="M340.727,68.621c-0.913-0.409-4.663,3.93-5.431,7.775c-0.366,1.832,3.846-2.597,6.059-3.114
				C343.487,72.783,341.607,69.016,340.727,68.621z"/>
			<path fill="#FFFFFF" d="M340.727,68.621c-0.913-0.409-4.663,3.93-5.431,7.775c-0.366,1.832,3.023-3.827,5.237-4.345
				C342.665,71.552,341.607,69.016,340.727,68.621z"/>
			<path fill="#969292" d="M335.473,77.089L335.473,77.089c-0.182,0-0.287-0.083-0.344-0.153c-0.143-0.174-0.114-0.42-0.08-0.59
				c0.736-3.683,4.205-8.005,5.541-8.005c0.087,0,0.168,0.017,0.24,0.049c0.725,0.325,1.884,2.349,1.747,3.767
				c-0.07,0.735-0.473,1.208-1.164,1.369c-0.962,0.226-2.41,1.294-3.574,2.152C336.619,76.579,335.907,77.089,335.473,77.089z
				 M340.622,68.85c-0.92,0-4.351,3.948-5.08,7.595c-0.013,0.061-0.017,0.105-0.018,0.134c0.339-0.068,1.227-0.724,2.015-1.306
				c1.263-0.932,2.694-1.988,3.758-2.236c0.473-0.111,0.728-0.415,0.777-0.928c0.115-1.192-0.947-3.033-1.451-3.26
				C340.624,68.85,340.622,68.85,340.622,68.85z"/>
		</g>
		<g>
			<path fill="#657282" d="M420.1,215.49c-0.377-5.98-4.153-7.555-7.239-13.724c2.645,0.063,4.854,3.054,7.878,0.851
				c-6.485-2.77-5.485-7.397-10.647-11.174c3.273-0.189,4.594,1.574,6.735,0.44c-5.351-3.525-5.538-10.953-11.771-14.856
				c2.58-0.063,3.399-0.945,5.663-0.44c-0.691-4.029-8.266-4.805-12.63-21.592c-4.365-16.787-2.687-46.5-11.584-59.426
				c-8.897-12.926-16.451-12.716-21.151-20.817c-5.581-9.618-11.374-23.165-16.577-23.165c-6.169,0-8.329,3.779-8.329,8.855
				c0,4.822,9.337,30.09,5.056,32.608c-4.281,2.519-14.101-2.14-18.382-10.198c-4.28-8.058-13.597-0.142-9.316,10.883
				c4.279,11.024,18.633,29.406,19.01,45.018c0.378,15.612-1.762,23.67-4.658,27.699c1.984-0.164,2.223,0.271,3.903,0
				c-2.581,2.392-9.002,15.612-7.743,22.977c1.133-1.574,2.958-2.455,3.651-2.518c-2.958,4.722-4.029,13.723-3.399,18.445
				c1.196-1.322,2.741-2.581,4.172-2.581c-1.906,5.54-2.095,15.863-0.836,20.648c1.343-1.154,1.637-2.896,3.085-3.146
				c-2.161,8.331,2.245,14.584,1.489,19.66c1.974-2.183,3.232-1.594,4.281-4.365c2.099,10.912,7.723,11.416,10.912,24.175
				l61.756-36.135c1.573-4.155,0.44-9.884-0.127-12.086C415.63,214.357,418.275,213.854,420.1,215.49z"/>
			<path fill="#8898A5" d="M323.146,98.064c-0.139-0.134-0.267-0.273-0.408-0.405C322.962,97.771,323.082,97.909,323.146,98.064
				c7.25,7.028,10.28,16.868,16.21,24.775c0-1.007,0-2.518,0-3.525c4.533,4.029,6.043,10.576,11.08,14.101c0-1.008,0-2.014,0-3.022
				c2.518,2.519,6.043,4.03,8.561,6.547c0-1.007,2.098-2.644,1.469-4.029c1.51,0.503,2.623,3.714,4.826,5.099
				c0.255-2.041,1.29-3.46,1.069-4.499c2.359,1.162,2.359,4.063,5.226,5.757c0-2.392,2.518-4.344,3.166-7.073
				c0.515,1.882-0.522,4.072,0.611,6.002c9.097-11.435,15.563-30.427,1.781-49.237c-5.555-6.149-10.633-8.308-14.131-14.336
				c-5.581-9.618-6.42-22.285-14.238-23.04c-6.169,0-8.329,3.779-8.329,8.855c0,4.822,9.337,30.09,5.056,32.608
				c-4.281,2.519-14.101-2.14-18.382-10.198c-3.547-6.677-10.542-2.383-10.405,5.555c2.487,3.767,4.212,7.915,6.525,11.77
				C322.85,99.393,323.369,98.611,323.146,98.064z"/>
			<path fill="#8898A5" d="M322.738,97.659c0.141,0.132,0.269,0.271,0.408,0.405C323.082,97.909,322.962,97.771,322.738,97.659z"/>
			<path fill="#8898A5" d="M410.806,208.25c-0.376-5.981-7.312-5.33-10.397-11.498c2.643,0.062,5.552,1.527,8.572-0.677
				c-6.482-2.77-4.964-6.625-10.127-10.403c3.274-0.189,6.213,1.763,8.354,0.63c-5.353-3.525-6.987-8.478-13.223-12.381
				c2.582-0.062,4.869-0.835,5.674-2.357c-13.3,0.755-9.814-7.051-22.405-12.213c0,1.007-1.133,3.777-1.133,4.784
				c-10.827-1.889-11.834-9.506-16.618-9.065c-0.631,0.458,0.076,1.642-1.008,2.014c-3.021-1.007-6.043-2.519-9.065-3.525
				c-0.503,0-0.503,1.511-0.503,2.014c-4.543-5.783-7.397-12.579-12.166-17.893c0.023,0.358,0.047,0.716,0.055,1.072
				c0.378,15.612-1.762,23.67-4.658,27.699c1.984-0.164,2.223,0.271,3.903,0c-2.581,2.392-9.002,15.612-7.743,22.977
				c1.133-1.574,2.958-2.455,3.651-2.518c-2.958,4.722-4.029,13.723-3.399,18.445c1.196-1.322,2.741-2.581,4.172-2.581
				c-1.906,5.54-2.095,15.863-0.836,20.648c1.343-1.154,1.637-2.896,3.085-3.146c-2.161,8.331,2.245,14.584,1.489,19.66
				c1.974-2.183,3.232-1.594,4.281-4.365c2.099,10.912,7.723,11.416,10.912,24.175l43.574-15.402l13.697-18.109
				c-4.759-10.722,1.285-10.093-5.767-18.024C405.506,211.042,408.98,206.614,410.806,208.25z"/>
			<path fill="#B8C6D1" d="M355.964,216.833c-2.141-0.188-6.107,3.337-7.807,10.137c-4.344-7.556-3.776-15.865-1.258-22.916
				c-2.518,0.377-5.792,4.281-6.799,7.302c-1.007-12.591,5.666-16.745,6.987-24.425c-2.706,2.329-5.54,1.951-7.49,4.784
				c0.88-7.428,8.12-11.331,8.058-14.857c-1.768,0.881-5.729,3.148-8.184,5.163c0.566-7.681,8.687-13.094,8.687-16.745
				c-2.014,0.965-3.876,0.418-4.789,0.125c5.986-4.803,1.9-11.442,1.875-16.376c2.602,2.192,5.307,1.772,10.343,0.764
				c-10.576-5.539-14.311-23.879-11.793-30.09c4.029-8.226,10.744-3.021,14.94-9.568c6.211-12.255-7.931-30.973-7.722-42.975
				c0.091-5.147,7.561-3.87,4.863-8.94c-2.664-4.269-4.615-6.63-7.098-6.63c-6.169,0-8.329,3.779-8.329,8.855
				c0,4.822,9.337,30.09,5.056,32.608c-4.281,2.519-14.101-2.14-18.382-10.198c-4.28-8.058-13.597-0.142-9.316,10.883
				c4.279,11.024,18.633,29.406,19.01,45.018c0.378,15.612-1.762,23.67-4.658,27.699c1.984-0.164,2.223,0.271,3.903,0
				c-2.581,2.392-9.002,15.612-7.743,22.977c1.133-1.574,2.958-2.455,3.651-2.518c-2.958,4.722-4.029,13.723-3.399,18.445
				c1.196-1.322,2.741-2.581,4.172-2.581c-1.906,5.54-2.095,15.863-0.836,20.648c1.343-1.154,1.637-2.896,3.085-3.146
				c-2.161,8.331,2.245,14.584,1.489,19.66c1.974-2.183,3.232-1.594,4.281-4.365c2.099,10.912,7.723,11.416,10.912,24.175
				l20.174-12.983c-5.308-3.69-17.164-2.055-19.621-11.268C351.431,229.99,352.522,221.43,355.964,216.833z"/>
			<path fill="#D0DAE3" d="M322.738,97.659c0.141,0.132,0.269,0.271,0.408,0.405C323.082,97.909,322.962,97.771,322.738,97.659z"/>
			<path fill="#D0DAE3" d="M336.815,138.752c0.378,15.612-1.762,23.67-4.658,27.699c1.984-0.164,2.223,0.271,3.903,0
				c-2.581,2.392-9.002,15.612-7.743,22.977c1.133-1.574,2.958-2.455,3.651-2.518c-2.958,4.722-4.029,13.723-3.399,18.445
				c1.196-1.322,2.741-2.581,4.172-2.581c-1.906,5.54-2.095,15.863-0.836,20.648c1.343-1.154,1.637-2.896,3.085-3.146
				c-2.161,8.331,2.245,14.584,1.489,19.66c1.974-2.183,3.232-1.594,4.281-4.365c2.099,10.912,7.723,11.416,10.912,24.175
				l20.174-12.983c-5.308-3.69-17.164-2.055-19.621-11.268c-0.793-5.504,0.298-14.064,3.74-18.661
				c-2.141-0.188-6.107,3.337-7.807,10.137c-4.344-7.556-3.776-15.865-1.258-22.916c-2.518,0.377-5.792,4.281-6.799,7.302
				c-1.007-12.591,5.666-16.745,6.987-24.425c-2.706,2.329-5.54,1.951-7.49,4.784c0.88-7.428,8.12-11.331,8.058-14.857
				c-1.768,0.881-5.729,3.148-8.184,5.163c0.566-7.681,8.687-13.094,8.687-16.745c-2.014,0.965-3.876,0.418-4.789,0.125
				c5.452-4.375,2.549-10.273,1.968-15.019c-2.753-4.386-5.181-8.918-8.577-12.703C336.783,138.039,336.808,138.397,336.815,138.752
				z"/>
			<path fill="#F0F1F2" d="M342.233,230.613c-2.392,0.25-3.526,2.517-5.037,4.026c0-6.043-1.762-12.59,0-18.633
				c-1.51,0.504-4.029,1.512-4.029,1.008c-1.511-6.547,1.763-11.458,2.771-17.5c-1.511,0-2.771-0.126-4.281-0.126
				c0-6.547,1.763-10.324,4.281-15.864c-2.519,0-2.771-0.251-4.785-0.251c0-7.554,3.526-13.598,8.562-19.137
				c-1.008,0-3.588,0.125-4.218-0.441c2.697-5.092,2.252-23.146,1-28.132c1.331,13.524-2.001,27.635-4.34,30.889
				c1.984-0.164,2.223,0.271,3.903,0c-2.581,2.392-9.002,15.612-7.743,22.977c1.133-1.574,2.958-2.455,3.651-2.518
				c-2.958,4.722-4.029,13.723-3.399,18.445c1.196-1.322,2.741-2.581,4.172-2.581c-1.906,5.54-2.095,15.863-0.836,20.648
				c1.343-1.154,1.637-2.896,3.085-3.146c-2.161,8.331,2.245,14.584,1.489,19.66c1.974-2.183,3.232-1.594,4.281-4.365
				c2.099,10.912,7.723,11.416,10.912,24.175l1.3-0.835c-1.773-7.628-4.275-12.45-8.429-19.511
				C343.536,237.385,341.729,232.878,342.233,230.613z"/>
			<path fill="#D0DAE3" d="M323.146,98.064c-0.139-0.134-0.267-0.273-0.408-0.405C322.962,97.771,323.082,97.909,323.146,98.064
				c7.25,7.028,10.28,16.868,16.21,24.775c0-1.007,0-2.518,0-3.525c1.48,1.315,2.637,2.901,3.7,4.559
				c0.059-1.665,0.302-3.103,0.737-4.173c4.029-8.226,10.744-3.021,14.94-9.568c6.211-12.255-7.931-30.973-7.722-42.975
				c0.091-5.147,7.561-3.87,4.863-8.94c-2.664-4.269-4.615-6.63-7.098-6.63c-6.169,0-8.329,3.779-8.329,8.855
				c0,4.822,9.337,30.09,5.056,32.608c-4.281,2.519-14.101-2.14-18.382-10.198c-3.547-6.677-10.542-2.383-10.405,5.555
				c2.487,3.767,4.212,7.915,6.525,11.77C322.85,99.393,323.369,98.611,323.146,98.064z"/>
			<path fill="#242F3A" d="M351.187,259.765c-1.595-6.381-3.769-9.626-5.873-12.766c-1.952-2.913-3.801-5.671-4.881-10.64
				c-0.586,1.162-1.254,1.589-2.007,2.07c-0.58,0.37-1.237,0.788-1.999,1.634l-0.559,0.619l0.122-0.825
				c0.302-2.024-0.234-4.223-0.853-6.769c-0.876-3.608-1.867-7.683-0.739-12.484c-0.519,0.24-0.859,0.755-1.27,1.373
				c-0.344,0.519-0.733,1.107-1.3,1.594l-0.305,0.262l-0.103-0.389c-1.214-4.612-1.144-14.61,0.72-20.431
				c-1.05,0.165-2.321,1.026-3.626,2.469l-0.364,0.403l-0.072-0.539c-0.569-4.271,0.234-12.97,3.118-18.077
				c-0.818,0.316-2.083,1.107-2.916,2.264l-0.352,0.488l-0.101-0.593c-1.22-7.135,4.582-19.359,7.343-22.691
				c-0.518,0.036-0.895-0.004-1.287-0.045c-0.503-0.053-1.024-0.108-1.947-0.031l-0.544,0.044l0.318-0.444
				c3.389-4.713,4.939-13.981,4.612-27.545c-0.255-10.5-7.034-22.555-12.479-32.24c-2.636-4.686-5.124-9.111-6.516-12.692
				c-2.569-6.618-0.321-12.472,3.235-14.1c1.921-0.88,4.648-0.552,6.54,3.008c2.938,5.531,8.346,9.164,12.4,10.309
				c2.298,0.651,4.297,0.576,5.631-0.209c2.667-1.568-0.523-13.422-2.853-22.078c-1.249-4.641-2.328-8.647-2.328-10.314
				c0-5.958,2.967-9.106,8.582-9.106c4.203,0,8.511,8.029,13.072,16.53c1.225,2.28,2.49,4.637,3.722,6.761
				c2.131,3.672,4.88,5.632,8.064,7.901c3.863,2.752,8.241,5.873,13.077,12.898c5.605,8.143,7.022,22.725,8.395,36.826
				c0.819,8.443,1.597,16.417,3.226,22.679c2.858,10.999,7.069,15.048,9.855,17.727c1.47,1.413,2.53,2.432,2.78,3.887l0.063,0.37
				l-0.365-0.082c-1.276-0.284-2.052-0.116-3.03,0.099c-0.524,0.113-1.098,0.237-1.815,0.303c2.893,2.052,4.405,4.878,5.874,7.617
				c1.422,2.661,2.769,5.173,5.27,6.823l0.356,0.233l-0.375,0.2c-1.281,0.676-2.297,0.39-3.472,0.058
				c-0.755-0.212-1.595-0.45-2.659-0.48c1.912,1.557,2.905,3.226,3.869,4.844c1.323,2.228,2.577,4.331,6.151,5.858l0.407,0.174
				l-0.358,0.26c-2.054,1.497-3.745,0.738-5.384,0.003c-0.752-0.337-1.469-0.659-2.208-0.767c1.113,2.135,2.316,3.719,3.385,5.127
				c1.845,2.428,3.437,4.523,3.675,8.291l0.037,0.613l-0.457-0.41c-0.718-0.643-1.591-0.947-2.517-1.268
				c-1.148-0.4-2.425-0.845-3.648-2.012c1.653,7.269-0.577,11.122-0.577,11.122c1.625-4.281,0.311-10.217-0.133-11.933l-0.281-1.144
				l0.721,0.92c1.32,1.608,2.727,2.097,4.084,2.569c0.787,0.274,1.541,0.536,2.221,1.002c-0.342-3.255-1.758-5.121-3.525-7.448
				c-1.148-1.512-2.45-3.227-3.64-5.608l-0.188-0.374l0.418,0.01c1.002,0.023,1.935,0.442,2.839,0.849
				c1.466,0.658,2.859,1.282,4.511,0.297c-3.404-1.573-4.651-3.667-5.967-5.876c-1.029-1.729-2.092-3.519-4.307-5.139l-0.566-0.414
				l0.699-0.041c1.496-0.086,2.581,0.22,3.534,0.488c1.02,0.287,1.788,0.505,2.707,0.159c-2.37-1.712-3.684-4.162-5.067-6.749
				c-1.54-2.874-3.129-5.846-6.328-7.849l-0.711-0.444l0.838-0.021c1.045-0.026,1.808-0.191,2.48-0.337
				c0.903-0.196,1.696-0.369,2.857-0.174c-0.336-1.118-1.282-2.028-2.547-3.244c-2.826-2.719-7.101-6.827-9.995-17.963
				c-1.637-6.301-2.415-14.295-3.238-22.757c-1.365-14.038-2.777-28.554-8.309-36.588c-4.785-6.954-9.125-10.046-12.955-12.775
				c-3.23-2.303-6.02-4.291-8.206-8.058c-1.237-2.131-2.504-4.492-3.73-6.776c-4.291-7.996-8.729-16.264-12.629-16.264
				c-5.36,0-8.079,2.894-8.079,8.603c0,1.599,1.071,5.577,2.311,10.184c2.504,9.303,5.62,20.879,2.621,22.643
				c-1.453,0.854-3.591,0.948-6.022,0.26c-4.159-1.175-9.701-4.895-12.708-10.558c-1.467-2.761-3.667-3.801-5.885-2.786
				c-3.349,1.533-5.439,7.116-2.975,13.459c1.377,3.549,3.858,7.96,6.484,12.629c5.475,9.734,12.288,21.849,12.544,32.475
				c0.322,13.28-1.162,22.5-4.41,27.422c0.669-0.025,1.116,0.022,1.52,0.065c0.536,0.057,0.998,0.105,1.843-0.031l0.821-0.132
				l-0.61,0.565c-2.381,2.209-8.611,14.67-7.747,22.178c1.207-1.388,2.826-2.096,3.46-2.154l0.507-0.045l-0.27,0.43
				c-2.958,4.722-3.872,13.224-3.425,17.743c1.081-1.111,2.548-2.263,3.984-2.263h0.353l-0.115,0.333
				c-1.844,5.361-2.034,15.289-0.932,20.084c0.356-0.374,0.634-0.792,0.903-1.2c0.527-0.794,1.025-1.544,1.998-1.713l0.384-0.067
				l-0.098,0.379c-1.264,4.87-0.255,9.015,0.634,12.674c0.56,2.301,1.051,4.325,0.937,6.23c0.593-0.56,1.116-0.893,1.591-1.196
				c0.887-0.567,1.528-0.977,2.13-2.564l0.315-0.832l0.168,0.873c1.031,5.368,2.942,8.219,4.965,11.237
				c2.127,3.174,4.327,6.458,5.944,12.925L351.187,259.765z"/>
		</g>
		<g>
			<path fill="#1D252D" d="M350.004,50.453c-3.613-0.994-9.246,1.502-7.987,4.608c1.26,3.106,8.994,8.066,12.016,6.724
				C357.055,60.442,355.796,52.048,350.004,50.453z"/>
			<path fill="#2C3642" d="M350.004,50.453c-3.613-0.994-9.246,1.502-7.987,4.608c1.26,3.106,7.538,5.729,10.559,4.387
				C355.598,58.104,355.796,52.048,350.004,50.453z"/>
			
				<ellipse transform="matrix(0.9857 -0.1682 0.1682 0.9857 -3.8376 59.1513)" fill="#4D5863" cx="347.15" cy="52.222" rx="2.911" ry="0.931"/>
			<path fill="#0A0E11" d="M352.82,62.262L352.82,62.262c-3.703,0-9.924-4.364-11.036-7.106c-0.341-0.842-0.239-1.708,0.296-2.501
				c1.043-1.549,3.638-2.674,6.169-2.674c0.653,0,1.267,0.078,1.823,0.23c3.656,1.007,5.559,4.64,5.781,7.59
				c0.154,2.06-0.504,3.675-1.717,4.214C353.767,62.179,353.324,62.262,352.82,62.262z M348.249,50.483
				c-2.337,0-4.81,1.054-5.752,2.453c-0.442,0.658-0.525,1.341-0.246,2.031c1.046,2.58,7.12,6.792,10.569,6.792l0,0
				c0.433,0,0.808-0.069,1.111-0.205c1.013-0.45,1.556-1.874,1.419-3.716c-0.208-2.779-1.991-6.2-5.412-7.142
				C349.425,50.555,348.856,50.483,348.249,50.483z"/>
		</g>
		<g>
			<path fill="#242F3A" d="M335.154,131.033l0.487-0.127c3.115,11.916,13.239,14.879,13.34,14.907
				C348.981,145.812,338.341,143.225,335.154,131.033z"/>
		</g>
		<g>
			<path fill="#0A0E11" d="M366.666,86.315c0.432-0.281,6.584,5.24,7.314,6.539c0.756,1.343,4.299,9.881,2.757,9.074
				c-1.097-0.576-5.401-5.905-6.157-7.165C369.825,93.504,366.069,86.684,366.666,86.315z"/>
		</g>
	</g>
	<g>
		<g>
			<path fill="#657282" d="M380.137,252.465c1.301,0.692,2.267,0.062,3.463,0.25c-1.155-4.385-7.956-9.707-9.004-17.221
				l-19.639-10.541c-1.721,2.332-3.273,2.772-2.934,8.458c-11,10.428,2.892,56.765-0.507,71.112
				c-4.701,19.81-17.626,13.765-22.915,19.557c-3.131,3.429-1.266,13.453,9.317,15.36c10.582,1.908,18.366-1.512,21.005-10.239
				c2.664-8.813,11.252-9.95,11.519-26.817c0.378-23.921,13.471-33.237,12.129-42.68c1.341,0.544,1.846,0.179,2.791,0.314
				C384.061,256.683,381.291,255.674,380.137,252.465z"/>
			<path fill="#8898A5" d="M374.595,235.494l-8.211-14.953l-11.428,4.412c-1.721,2.332-3.273,2.772-2.934,8.458
				c-11,10.428,2.892,56.765-0.507,71.112c-4.701,19.81-17.626,13.765-22.915,19.557c-3.131,3.429-1.266,13.453,9.317,15.36
				c10.582,1.908,18.366-1.512,21.005-10.239c2.664-8.813,11.252-9.95,11.519-26.817c0.236-14.953,5.441-24.198,8.982-31.334
				C376.605,260.222,370.896,243.265,374.595,235.494z"/>
			<path fill="#BCC7CE" d="M352.225,310.518c2.014-6.043,2.073-11.351,1.591-17.458c-1.591-20.144-7.664-44.8-2.048-59.395
				c-10.354,15.014,3.025,57.019-0.252,70.858c-4.105,17.3-14.481,14.883-20.568,17.849c4.003-0.096,8.093-1.133,11.285-2.622
				C346.262,317.736,350.21,315.554,352.225,310.518z"/>
			<path fill="#B8C6D1" d="M383.6,252.715c-13.534-14.918-20.5,5.812-19.158,15.885c1.175,10.745-1.777,18.568-3.569,24.769
				c-2.015,7.049-6.335,13.591-11.325,17.116c-5.661,12.59-16.279,8.483-20.946,13.596c-3.131,3.429-1.266,13.453,9.317,15.36
				c10.582,1.908,18.366-1.512,21.005-10.239c2.664-8.813,11.252-9.95,11.519-26.817c0.378-23.921,13.471-33.237,12.129-42.68
				c1.341,0.544,1.846,0.179,2.791,0.314c-1.301-3.336-4.071-4.345-5.226-7.554C381.438,253.157,382.403,252.527,383.6,252.715z"/>
			<path fill="#D0DAE3" d="M365.293,309.049c3.021-11.582,2.267-22.033,6.798-33.616c2.518-6.042,1.007-14.101,1.007-21.655
				c1.511,0.504,3.021,1.511,4.533,2.52c-1.943-2.591-3.484-6.002-3.844-8.736c-7.058,0.923-10.317,13.758-9.346,21.039
				c1.175,10.745-1.777,18.568-3.569,24.769c-2.015,7.049-6.335,13.591-11.325,17.116c-5.661,12.59-16.279,8.483-20.946,13.596
				c-2.598,2.848-0.879,7.956,0.756,9.898c3.316,3.819,19.317,1.822,21.667-2.896C354.465,322.831,363.278,316.1,365.293,309.049z"
				/>
			<path fill="#F0F1F2" d="M332.748,322.831c8.779-2.225,14.773-1.823,20.382-15.507c-1.086,1.14-2.401,2.324-3.582,3.16
				c-5.661,12.59-16.279,8.483-20.946,13.596c-1.452,1.591-1.554,3.888-1.078,5.942C327.641,327.675,329.37,323.686,332.748,322.831
				z"/>
			<path fill="#242F3A" d="M343.265,340.2c-1.696,0-3.496-0.169-5.392-0.512c-7.285-1.313-9.66-6.153-10.343-8.175
				c-0.98-2.893-0.625-5.949,0.885-7.603c1.794-1.965,4.456-2.611,7.275-3.294c5.842-1.415,12.464-3.021,15.581-16.15
				c1.133-4.779-0.117-15.167-1.442-26.169c-0.958-7.955-2.004-16.414-2.265-23.883c-0.371-10.576,1.129-16.618,3.156-18.748
				c-2.44,3.737-2.979,10.682-2.653,18.836c0.298,7.413,1.31,15.825,2.263,23.735c1.388,11.525,2.585,21.479,1.431,26.343
				c-3.187,13.433-10.265,15.148-15.952,16.525c-2.861,0.694-5.331,1.293-7.021,3.145c-1.39,1.522-1.703,4.376-0.78,7.102
				c0.655,1.938,2.935,6.576,9.955,7.839c10.808,1.952,18.168-1.623,20.72-10.062c0.989-3.271,2.767-5.482,4.649-7.822
				c3.291-4.089,6.692-8.316,6.859-18.928c0.22-13.939,4.659-22.778,8.226-29.879c2.49-4.961,4.458-8.879,3.906-12.763l-0.062-0.433
				l0.405,0.166c0.815,0.328,1.287,0.304,1.786,0.276c0.166-0.01,0.333-0.017,0.519-0.016c-0.634-1.41-1.554-2.397-2.448-3.354
				c-0.996-1.067-2.026-2.168-2.623-3.83l-0.221-0.613l0.578,0.307c0.733,0.391,1.354,0.32,2.009,0.247
				c0.317-0.036,0.644-0.071,0.986-0.059c-0.54-1.634-1.86-3.404-3.373-5.431c-2.567-3.442-5.597-8.731-5.284-11.505
				c0.614,4.403,3.309,8.017,5.688,11.203c1.652,2.217,3.08,4.129,3.559,5.954l0.099,0.373l-0.382-0.059
				c-0.423-0.067-0.819-0.024-1.236,0.021c-0.543,0.061-1.101,0.125-1.727-0.062c0.572,1.264,1.412,2.164,2.294,3.11
				c1.003,1.073,2.042,2.185,2.707,3.892l0.156,0.402l-0.427-0.062c-0.311-0.047-0.57-0.031-0.847-0.017
				c-0.453,0.023-0.918,0.049-1.61-0.171c0.389,3.899-1.559,7.778-4.004,12.646c-3.543,7.056-7.953,15.836-8.171,29.661
				c-0.171,10.784-3.784,15.275-6.971,19.236c-1.851,2.3-3.6,4.473-4.56,7.648C357.017,336.373,351.343,340.197,343.265,340.2z"/>
		</g>
		<g>
			<path fill="#242F3A" d="M334.885,338.857c-1.949-1.19-3.167-3.376-3.344-5.997c-0.152-2.265,0.525-4.42,1.686-5.365
				c1.071-0.87,2.465-1.149,3.939-1.445c2.088-0.415,4.455-0.89,6.349-3.219c-1.337,2.031-2.888,3.043-6.25,3.714
				c-1.412,0.28-2.746,0.549-3.721,1.34c-1.023,0.833-1.639,2.865-1.5,4.942c0.165,2.456,1.296,4.498,3.103,5.604L334.885,338.857z"
				/>
		</g>
		<g>
			<path fill="#D1D1D1" d="M333.364,331.404c-1.206-0.556-5.687,2.204-7.098,6.437c-0.922,2.766,4.183-0.885,7.319-1.211
				C336.606,336.314,334.529,331.939,333.364,331.404z"/>
			<path fill="#FFFFFF" d="M333.364,331.404c-1.206-0.556-5.687,2.204-7.098,6.437c-0.922,2.766,2.859-2.013,5.995-2.34
				C335.283,335.187,334.529,331.939,333.364,331.404z"/>
			<path fill="#969292" d="M326.687,339.122L326.687,339.122c-0.299,0-0.519-0.093-0.652-0.278
				c-0.172-0.239-0.174-0.582-0.007-1.081c1.36-4.078,5.334-6.681,6.958-6.681c0.186,0,0.349,0.031,0.483,0.093
				c0.884,0.406,2.156,2.625,1.899,4.18c-0.102,0.623-0.491,1.394-1.758,1.524c-1.189,0.124-2.699,0.753-4.029,1.308
				C328.375,338.688,327.333,339.122,326.687,339.122z M332.986,331.586c-1.534,0-5.239,2.613-6.48,6.335
				c-0.151,0.454-0.086,0.595-0.062,0.629c0.043,0.06,0.172,0.068,0.244,0.068l0,0c0.545,0,1.592-0.435,2.701-0.897
				c1.363-0.567,2.908-1.211,4.171-1.343c0.773-0.079,1.204-0.441,1.312-1.105c0.221-1.342-0.966-3.343-1.613-3.639
				C333.19,331.602,333.099,331.586,332.986,331.586z"/>
		</g>
		<g>
			<path fill="#D1D1D1" d="M328.25,327.263c-1.129-0.389-4.892,2.486-5.774,6.403c-0.576,2.558,3.664-1.171,6.442-1.747
				C331.595,331.366,329.341,327.636,328.25,327.263z"/>
			<path fill="#FFFFFF" d="M328.25,327.263c-1.129-0.389-4.892,2.486-5.774,6.403c-0.576,2.558,2.402-2.01,5.181-2.584
				C330.334,330.528,329.341,327.636,328.25,327.263z"/>
			<path fill="#969292" d="M322.851,334.804L322.851,334.804c-0.289,0-0.448-0.123-0.53-0.225c-0.164-0.208-0.193-0.514-0.091-0.971
				c0.863-3.831,4.317-6.633,5.787-6.633c0.115,0,0.221,0.016,0.315,0.048c0.835,0.288,2.185,2.173,2.093,3.597
				c-0.05,0.813-0.568,1.362-1.456,1.547c-1.049,0.217-2.342,0.915-3.482,1.529C324.339,334.315,323.433,334.804,322.851,334.804z
				 M328.017,327.479c-1.16,0-4.483,2.635-5.296,6.241c-0.092,0.41-0.021,0.522-0.007,0.542c0.025,0.032,0.089,0.038,0.137,0.038
				c0.455,0,1.398-0.511,2.397-1.048c1.17-0.632,2.498-1.349,3.62-1.579c0.673-0.14,1.018-0.494,1.056-1.087
				c0.076-1.209-1.154-2.88-1.754-3.087C328.127,327.485,328.077,327.479,328.017,327.479z"/>
		</g>
	</g>
	<g>
		<g>
			<path fill="#657282" d="M408.592,159.652c-12.424-17.29-2.52-34.161-24.174-45.324l-8.732,21.277
				c-1.091,6.463,3.192,9.777,3.948,14.73c1.007-0.881,0.923-3.693,1.511-4.785c0.754,4.281,2.519,7.009,5.035,8.479
				c-0.167-1.092,0.589-1.679,0.715-4.114c1.974,2.602,2.098,8.226,8.77,9.736c-1.175-1.007-1.68-2.938-1.68-4.784
				C398.938,161.164,405.736,160.828,408.592,159.652z"/>
			<path fill="#8898A5" d="M386.631,145.086c2.824,3.991,2.263,4.561,4.572,7.498c-0.49-1.756,0.201-2.102,0-3.676
				c2.518,3.525,5.639,4.869,9.668,4.365c-6.887-9.736-1.647-27.979-15.77-38.3c-0.638-0.374-3.179-0.963-3.882-1.326l-9.374,7.898
				l4.125,11.966c-2.18,8.086,2.907,11.871,3.663,16.824c1.007-0.881,0.923-3.693,1.511-4.785c0.739,4.191,1.763,5.309,4.195,6.799
				C385.748,146.404,385.371,148.529,386.631,145.086z"/>
			<path fill="#242F3A" d="M404.724,160.599c-3.247,0-7.235-1.25-10.458-4.996c0.125,1.699,0.689,3.11,1.564,3.858l-0.221,0.437
				c-4.968-1.125-6.409-4.498-7.568-7.208c-0.312-0.732-0.612-1.434-0.957-2.029c-0.105,0.901-0.299,1.513-0.447,1.987
				c-0.161,0.513-0.277,0.884-0.207,1.342l0.08,0.522l-0.457-0.267c-2.48-1.446-4.149-4.04-4.97-7.717
				c-0.07,0.306-0.129,0.646-0.19,0.997c-0.21,1.188-0.427,2.417-1.094,3l-0.344,0.302l-0.069-0.453
				c-0.288-1.887-1.129-3.523-2.018-5.256c-2.55-4.966-2.476-7.787-1.681-9.513c-0.653,3.866,0.762,6.62,2.128,9.283
				c0.822,1.599,1.601,3.118,1.966,4.846c0.312-0.581,0.471-1.481,0.615-2.296c0.139-0.786,0.27-1.529,0.527-2.005l0.344-0.639
				l0.126,0.713c0.671,3.809,2.191,6.516,4.517,8.057c0.022-0.354,0.127-0.683,0.247-1.067c0.188-0.597,0.422-1.34,0.486-2.594
				l0.035-0.689l0.416,0.55c0.562,0.738,0.974,1.705,1.41,2.729c1.103,2.576,2.342,5.477,6.406,6.702
				c-0.746-1.032-1.176-2.579-1.176-4.326v-0.728l0.448,0.572c4.955,6.297,11.519,5.689,14.014,4.819
				c-4.907-6.952-6.244-13.726-7.538-20.279c-1.236-6.252-2.363-11.957-6.41-16.985c-2.244-2.788-5.387-5.367-9.945-7.716
				c0,0,5.844,1.906,10.324,7.442c4.189,5.178,5.321,11.073,6.524,17.163c1.302,6.584,2.646,13.392,7.644,20.35l0.186,0.258
				l-0.294,0.122C407.641,160.316,406.264,160.599,404.724,160.599z"/>
		</g>
		<g>
			<path fill="#8795AA" d="M384.922,124.942c10.689,6.959,8.309,21.197,13.932,27.156c-6.924-1.931-13.051-7.911-15.38-18.171
				C382.158,128.134,383.889,124.271,384.922,124.942z"/>
			<path fill="#C1CAD9" d="M398.854,152.099c-0.41-0.436-5.82-2.505-8.443-15.641c-0.336-3.399-1.845-6.044-3.504-5.519
				c-0.86,0.252,1.154,2.203,0.189,4.197c-0.504-1.008-0.737-2.779-2.456-3c-0.944-0.126-1.448,1.132-0.833,3.091
				C386.345,144.688,392.23,150.251,398.854,152.099z"/>
			<path fill="#242F3A" d="M399.658,152.584l-0.871-0.244c-7.729-2.154-13.4-8.846-15.56-18.358
				c-1.047-4.614-0.186-7.844,0.649-8.889c0.315-0.395,0.609-0.478,0.799-0.478c0.135,0,0.264,0.039,0.383,0.116
				c6.452,4.2,8.206,11.027,9.753,17.051c1.028,4.002,1.997,7.782,4.226,10.143L399.658,152.584z M384.676,125.119
				c-0.111,0-0.26,0.105-0.406,0.289c-0.745,0.933-1.551,4.054-0.55,8.464c2.04,8.984,7.257,15.398,14.382,17.736
				c-1.918-2.455-2.824-5.983-3.778-9.698c-1.524-5.936-3.251-12.662-9.54-16.755C384.747,125.13,384.713,125.119,384.676,125.119z"
				/>
		</g>
	</g>
</g>
</svg>
