<svg version="1.1" id="Layer_1" xmlns="http://www.w3.org/2000/svg" xmlns:xlink="http://www.w3.org/1999/xlink" viewBox="0 0 768 430" enable-background="new 0 0 768 430" xml:space="preserve">
<g id="wolk">
	<g>
		<path fill="#FFFFFF" d="M426.689,137.797c16.127-12.442,33.619-14.946,51.894-6.056c24.033,11.69,33.139,40.948,20.684,64.346
			c-1.944,3.652-1.944,3.652,1.955,4.782c30.23,8.765,50.936,36.418,50.956,68.046c0.013,31.783-20.734,59.729-50.889,68.538
			c-6.36,1.855-12.856,2.72-19.482,2.717c-67.891-0.008-135.778,0.122-203.668-0.05c-40.298-0.104-75.004-30.412-80.978-70.181
			c-5.34-35.569,12.382-70.089,44.477-86.547c1.547-0.794,2.56-1.386,2.447-3.572c-1.938-37.115,13.333-65.882,43.966-85.981
			c44.152-28.966,110.263-15.398,136.9,40.68C425.49,135.662,425.729,136.978,426.689,137.797z"/>
	</g>
</g>
</svg>
