<svg version="1.1" id="Layer_1" xmlns="http://www.w3.org/2000/svg" xmlns:xlink="http://www.w3.org/1999/xlink" viewBox="0 0 768 430" enable-background="new 0 0 768 430" xml:space="preserve">
<g>
	<g>
		<g>
			<g>
				<path fill="#7F0514" d="M340.264,384.937l14.564-21.685c2.052-3.055,0.786-7.224-2.583-8.618l-7.107-2.945l-1.86-0.783
					l-14.784-6.146l-15.311,22.796l11.333,11.423l6.793,6.826C333.877,388.399,338.212,387.991,340.264,384.937z"/>
			</g>
		</g>
		<g>
			<g>
				<path fill="#7F0514" d="M350.287,364.819l-14.156-9.506l-9.684,14.421l14.153,9.506c3.983,2.677,9.378,1.618,12.056-2.368l0,0
					C355.329,372.891,354.269,367.495,350.287,364.819z"/>
			</g>
		</g>
	</g>
	<g>
		<g>
			<g>
				<path fill="#7F0514" d="M413.819,369.441l18.417,18.525c2.594,2.607,6.928,2.186,8.955-0.848l4.278-6.394l1.136-1.671
					l8.918-13.296l-19.357-19.472l-13.425,8.876l-8.021,5.326C411.676,362.501,411.225,366.829,413.819,369.441z"/>
			</g>
		</g>
		<g>
			<g>
				<path fill="#7F0514" d="M431.585,383.204l12.093-12.021l-12.246-12.318l-12.093,12.021c-3.401,3.381-3.421,8.88-0.035,12.281
					l0,0C422.685,386.571,428.184,386.59,431.585,383.204z"/>
			</g>
		</g>
	</g>
	<g>
		<g>
			<path fill="#D33148" d="M472.574,373.494c-4.211,2.639-8.937,3.922-13.591,3.922c-8.279,0-16.411-4.031-21.319-11.396
				c-0.147-0.218-0.294-0.438-0.441-0.658c-1.427-2.308-2.489-4.762-3.115-7.254c-2.525-10.036,1.138-20.881,9.82-27.145
				c0.256-0.187,0.477-0.368,0.733-0.516c2.051-1.28,4.03-2.601,5.972-3.957c31.177-21.505,45.502-51.179,43.781-90.415
				c-2.824-64-53.196-113.898-112.436-111.333c-59.167,2.601-104.998,56.785-102.177,120.749c0.402,9.049,1.796,17.768,4.177,26.046
				c0.44,1.725,0.989,3.445,1.539,5.131c0.073,0.257,0.183,0.512,0.256,0.769c7.327,21.213,21.103,39.236,40.299,52.388
				c7.877,5.425,11.797,14.437,11.064,23.338c-0.036,0.623-0.11,1.28-0.218,1.903c-0.148,1.026-0.405,2.054-0.699,3.08
				c-0.731,2.562-1.905,5.056-3.479,7.362c-0.439,0.623-0.88,1.245-1.354,1.833c-8.355,10.109-23.227,12.381-34.291,4.837
				c-41.911-28.726-66.275-72.906-68.545-124.418c-4.068-92.247,63.745-170.426,151.196-174.271
				c87.409-3.957,161.854,68.069,165.882,160.315C548.264,293.595,523.024,341.915,472.574,373.494z"/>
		</g>
	</g>
	<g opacity="0.25">
		<g>
			<path fill="#161616" d="M450.229,336.934c-10.076,6.337-14.767,18.024-12.565,29.087c0.071,0.516,0.183,1.027,0.329,1.539
				c-0.512-0.659-0.952-1.28-1.392-1.978c-7.326-11.65-4.031-27.001,7.326-34.618c0.256-0.187,0.477-0.368,0.733-0.516
				c2.051-1.28,4.03-2.601,5.972-3.957c31.177-21.505,45.502-51.179,43.781-90.415c-2.824-64-53.196-113.898-112.436-111.333
				c-59.167,2.601-104.998,56.785-102.177,120.749c0.402,9.049,1.796,17.768,4.177,26.046c0.475,1.725,0.989,3.445,1.539,5.131
				c0.073,0.257,0.183,0.512,0.256,0.769c7.218,21.395,20.991,39.601,40.336,52.828c7.73,5.313,11.65,14.144,11.027,22.897
				c-0.036,0.623-0.11,1.28-0.218,1.903c-0.552,3.702-1.944,7.367-4.178,10.66c-0.439,0.623-0.916,1.285-1.429,1.871
				c0.037-0.074,0.037-0.186,0.075-0.256c3.114-11.175-0.99-23.632-11.139-30.629c-30.811-21.102-48.724-53.708-50.409-91.882
				c-3.079-69.715,46.857-134.749,111.332-137.572c64.555-2.783,119.468,57.561,122.51,127.314
				C505.694,279.674,488.221,313.192,450.229,336.934z"/>
		</g>
	</g>
</g>
</svg>
