<svg version="1.1" id="Layer_1" xmlns="http://www.w3.org/2000/svg" xmlns:xlink="http://www.w3.org/1999/xlink" viewBox="0 0 768 430" enable-background="new 0 0 768 430" xml:space="preserve">
<g>
	<g>
		<g>
			<polygon fill="#9AB022" points="321.492,97.368 322.787,97.531 321.494,97.357 			"/>
			<path fill="#9AB022" d="M313.717,125.72c-0.283-3.109-1.969-6.125-1.394-9.193c-0.151,0.128-0.301,0.256-0.452,0.385
				c0.265-0.65,0.119-1.449-0.359-1.964c-0.291-0.313-0.771-0.522-1.146-0.316c-0.157,0.086-0.271,0.232-0.373,0.379
				c-0.361,0.522-0.625,1.111-0.775,1.727c0.284-1.301,0.366-2.647,0.243-3.974c-0.301,0.066-0.602,0.133-0.903,0.198
				c0.482-0.508,0.424-1.426-0.119-1.869s-1.454-0.314-1.854,0.261c-0.124-0.143-0.248-0.284-0.372-0.427
				c-0.172,0.688-0.345,1.377-0.518,2.065c-0.31-0.533-0.733-0.999-1.233-1.357c-0.28,0.128-0.235,0.535-0.14,0.829
				c0.861,2.647,2.123,5.165,3.73,7.439c-2.661-2.679-5.326-5.364-7.717-8.286c-1.033-1.262-2.068-2.897-1.472-4.415
				c-0.238,0-0.476,0-0.715,0c-0.121-0.688-0.305-1.365-0.549-2.02c-0.066-0.177-0.182-0.384-0.371-0.375
				c-0.169,0.008-0.27,0.188-0.336,0.343c-0.324,0.765-0.612,1.566-0.607,2.396c0.005,0.83,0.354,1.7,1.06,2.137
				c-0.08,0.349-0.579,0.442-0.882,0.252c-0.303-0.19-0.453-0.543-0.59-0.875c-1.059-2.573-2.322-5.062-3.775-7.434
				c-0.274,0.259-0.548,0.518-0.821,0.777c-0.411-0.503-0.814-1.152-1.324-1.54c-0.142,0.23-0.214,0.484-0.302,0.747
				c-0.443-0.343-0.887-0.686-1.33-1.03c-0.093-0.071-0.199-0.147-0.315-0.131c-0.112,0.015-0.194,0.111-0.255,0.207
				c-0.299,0.459-0.378,1.056-0.208,1.577c-0.352-0.205-0.704-0.409-1.056-0.614c0.45,1.146,1.166,2.188,2.074,3.018
				c-0.896-0.356-1.857-0.55-2.821-0.569c-0.095,0.249,0.137,0.495,0.347,0.658c2.79,2.165,6.068,3.67,8.702,6.021
				c0.246,0.219,0.504,0.568,0.321,0.841c-0.108,0.164-0.328,0.207-0.523,0.215c-1.04,0.042-1.999-0.504-2.989-0.825
				c-0.991-0.32-2.254-0.336-2.88,0.495c0.293,0.501,0.873,0.819,1.452,0.797c-0.206,0.293-0.488,0.533-0.811,0.688
				c4.941,2.172,9.841,4.438,14.696,6.798c1.744,0.848,3.49,1.712,5.072,2.834c0.226,0.16,0.478,0.414,0.374,0.672
				c-0.092,0.228-0.393,0.269-0.64,0.271c-1.921,0.01-3.843-0.235-5.7-0.726c-0.951-0.252-1.89-0.569-2.867-0.689
				c-0.976-0.119-2.017-0.024-2.851,0.497c0.26,0.095,0.521,0.19,0.781,0.284c-1.085,0.292-2.124,0.762-3.059,1.385
				c-0.094,0.062-0.193,0.137-0.215,0.246c-0.039,0.191,0.17,0.332,0.352,0.403c0.91,0.355,1.936,0.406,2.876,0.143
				c-0.053,0.137-0.104,0.275-0.157,0.414c0.502-0.129,1.005-0.26,1.508-0.389c-0.176,0.205-0.352,0.41-0.528,0.614
				c0.886-0.052,1.773-0.105,2.66-0.158c-0.605,0.173-1.179,0.454-1.686,0.826c-0.114,0.084-0.235,0.191-0.237,0.333
				c-0.004,0.223,0.268,0.329,0.487,0.367c4.469,0.772,8.992-1.175,13.521-0.933C313.74,126.008,313.73,125.864,313.717,125.72z"/>
			<path fill="#9AB022" d="M330.896,142.294c0.736,0.473,1.646,0.668,2.512,0.539c-0.17-1.35-0.695-2.653-1.506-3.745
				c0.436-0.292,0.873-0.582,1.309-0.873c-1.44-1.998-3.241-3.735-5.29-5.1c0.707,0.382,1.599-0.395,1.612-1.197
				c0.014-0.803-0.539-1.5-1.122-2.054c-1.565-1.487-3.573-2.503-5.699-2.885c1.195-0.593,2.537-1.201,3.815-0.821
				c1.143,0.341,1.912,1.382,2.595,2.359c2.045,2.924,4.09,5.846,6.135,8.77c0.026-0.437,0.053-0.873,0.08-1.31
				c0.471,1.354,1.187,2.623,2.104,3.724c0.981-2.209,0.502-4.848-0.666-6.964c-1.168-2.116-2.95-3.816-4.704-5.479
				c4.17,1.008,8.152,2.792,11.681,5.232c0.238-0.834,0.926-1.524,1.758-1.766c-0.92-1.287-2.228-2.292-3.707-2.853
				c2.593-0.033,5.18-0.564,7.577-1.555c-0.294-0.432-0.77-0.737-1.286-0.826c0.815-0.246,1.63-0.492,2.444-0.737
				c-0.299-0.222-0.598-0.444-0.897-0.667c0.204-0.371,0.408-0.741,0.611-1.111c-0.38-0.619-1.195-0.932-1.891-0.727
				c0.271-0.333,0.446-0.745,0.497-1.172c-0.572,0.011-1.144,0.022-1.716,0.034c-0.051-0.34-0.103-0.679-0.153-1.018
				c-1.208,0.501-2.34,1.188-3.345,2.026c-0.156-0.706-0.312-1.411-0.468-2.117c-2.327,2.596-5.732,4.193-9.216,4.322
				c0.969-0.979,2.221-1.673,3.564-1.976c0.249-1.197,0.671-2.358,1.249-3.435c-2.041-0.164-4.123,0.226-5.967,1.116
				c-0.301-0.625-0.603-1.25-0.905-1.875c-1.016,1.85-2.057,3.731-3.595,5.175s-3.684,2.403-5.756,2.003
				c1.652-2.837,2.871-5.927,3.601-9.128c0.153-0.673-0.137-1.737-0.773-1.472c0.514-0.943,1.027-1.886,1.542-2.829
				c-0.874-0.259-1.186-1.572-0.522-2.196c-0.596-0.286-1.015-0.912-1.052-1.572c-0.4,0.421-0.8,0.841-1.201,1.261
				c-0.025-0.51-0.665-0.805-1.155-0.663c-0.491,0.142-0.84,0.568-1.13,0.989c-1.393,2.021-2.154,4.471-2.152,6.926
				c-1.49-0.398-1.512-2.485-1.207-3.996c0.989-4.887,1.978-9.774,2.966-14.661c3.408,0.368,6.554,2.607,8.019,5.706
				c0.453-0.458,1.39-0.155,1.489,0.481c0.671-0.139,1.252-0.651,1.475-1.3c0.071,1.773,0.471,3.532,1.175,5.161
				c0.481-0.368,1.175-0.435,1.718-0.166c0.971-0.796,1.973-1.629,2.515-2.763c0.542-1.133,0.485-2.657-0.474-3.469
				c1.39,2.685,4.408,4.438,7.428,4.313c-0.468-1.135-0.936-2.269-1.404-3.403c1.009,0.657,2.018,1.313,3.026,1.971
				c0.217-0.426,0.29-0.924,0.204-1.394c0.396,0.088,0.792,0.176,1.188,0.264c0.234-0.595,0.751-1.071,1.363-1.255
				c-0.553-0.282-0.889-0.937-0.795-1.55c-1.339-0.17-2.679-0.342-4.019-0.513c0.842-0.19,1.623-0.644,2.205-1.283
				c-4.967-0.486-9.934-0.973-14.9-1.459c1.979-0.938,3.606-2.602,4.503-4.601c-1.636,0.307-3.057-1.355-4.722-1.375
				c-0.839-0.011-1.62,0.401-2.353,0.81c-2.5,1.396-4.943,2.895-7.319,4.494c0.755-4.421,1.51-8.843,2.265-13.264
				c4.459,3.867,11.148,4.95,16.601,2.687c-1.223-0.289-2.445-0.579-3.668-0.868c2.592-0.13,5.143-1.015,7.259-2.519
				c-0.535-0.403-1.223-0.598-1.89-0.533c0.761-0.424,1.353-1.142,1.626-1.969c-1.272-0.462-2.658-0.607-3.998-0.418
				c-0.058-0.521-0.115-1.04-0.172-1.561c-2.433,0.327-4.807,1.097-6.969,2.259c0.664-0.464,0.375-1.617-0.338-2.001
				s-1.593-0.214-2.359,0.05c-2.039,0.699-3.866,2.002-5.192,3.701c0.04-1.353,0.138-2.846,1.094-3.803
				c0.846-0.847,2.13-1.033,3.318-1.175c3.54-0.421,7.08-0.843,10.62-1.265c-0.346-0.337-0.778-0.585-1.245-0.714
				c1.444,0.241,2.933,0.208,4.365-0.093c-1.899-2.146-4.962-3.19-7.776-2.653c-1.936,0.371-3.776,1.431-5.74,1.267
				c3.011-2.978,6.434-5.537,10.141-7.583c-0.609-0.607-0.887-1.527-0.718-2.37c-1.571,0.207-3.077,0.885-4.274,1.923
				c1.226-2.284,1.95-4.835,2.109-7.422c-0.416,0.23-0.833,0.46-1.249,0.691c0.166-0.816,0.331-1.633,0.496-2.449
				c-0.344,0.172-0.688,0.345-1.033,0.518c-0.08-0.55-0.628-0.989-1.183-0.946s-1.029,0.561-1.024,1.116
				c-0.245-0.297-0.49-0.594-0.736-0.891c-0.355,0.454-0.632,0.968-0.813,1.516c-0.328-0.112-0.656-0.224-0.984-0.336
				c-0.115,1.285-0.043,2.586,0.213,3.851c-0.695-0.178-1.391-0.356-2.086-0.534c1.245,3.245,1.011,7.026-0.625,10.093
				c0.403-2.465-0.542-5.109-2.417-6.76c-1.089,1.733-1.721,3.752-1.813,5.797c-0.692-0.027-1.384-0.054-2.076-0.081
				c1.151,1.77,2.32,3.576,2.868,5.614c0.548,2.038,0.382,4.385-0.945,6.025c-1.905-3.16-4.398-5.965-7.313-8.227
				c-0.243,0.244-0.485,0.487-0.728,0.73c-0.583-0.899-1.165-1.798-1.747-2.698c-0.644,0.653-1.96,0.301-2.193-0.586
				c-0.518,0.425-1.289,0.51-1.886,0.208c0.185,0.55,0.37,1.101,0.554,1.651c-0.463-0.22-1.027,0.213-1.127,0.716
				c-0.099,0.504,0.121,1.012,0.361,1.466c1.141,2.145,2.889,3.962,4.988,5.185c-1.705,0.824-3.23,2.017-4.442,3.472
				c3.083,0.885,6.495,0.569,9.363-0.869c1.087-0.545,2.647-1.137,3.301-0.111c0.296,0.464,0.219,1.064,0.13,1.607
				c-0.879,5.423-1.758,10.847-2.638,16.27c-0.831-0.11-1.382-0.964-1.512-1.792c-0.13-0.828,0.042-1.671,0.046-2.51
				c0.01-2.068-1.079-4.111-2.803-5.254c-0.819,1.31-0.781,2.96-0.715,4.503c-1.862-3.16-4.074-6.113-6.583-8.788
				c-0.192,0.919-0.384,1.838-0.576,2.757c-0.809-1.155-1.647-2.338-2.829-3.108c-0.791-0.516-2.856-1.275-3.703-0.44
				c-0.857,0.846,0.545,2.211,1.473,2.361c-0.355-0.014-0.71-0.027-1.065-0.04c1.236,2.39,2.604,4.753,4.497,6.664
				c1.893,1.912,4.379,3.352,7.065,3.523c-2.582,0.621-5.164,1.243-7.746,1.864c0.168,0.306,0.418,0.566,0.717,0.747
				c-0.613,0.125-1.193,0.408-1.667,0.816c0.724,0.239,1.178,1.095,0.971,1.828c1.815,0.044,3.64-0.278,5.33-0.943
				c-0.46,0.899-0.92,1.799-1.38,2.699c1.374,0.74,3.099,0.087,4.338-0.859c1.24-0.947,2.281-2.192,3.699-2.842
				c0.625-0.288,1.516-0.369,1.865,0.223c0.214,0.364,0.118,0.821,0.016,1.23c-0.958,3.838-1.917,7.676-2.875,11.515
				c-0.709-0.25-1.485-0.31-2.225-0.171c1.756,2.985,0.978,6.785-0.177,10.051c-1.154,3.266-2.661,6.611-2.198,10.043
				c0.918-1.928,1.873-3.894,3.393-5.395c1.52-1.5,3.74-2.469,5.81-1.944c-1.295,5.635,0.914,11.924,5.449,15.509
				c-0.331-1.208-0.66-2.416-0.991-3.625c1.354,2.218,3.319,4.058,5.622,5.264C331.438,143.588,331.287,142.862,330.896,142.294z
				 M321.492,97.368c0-0.003,0.001-0.006,0.002-0.011l1.293,0.174L321.492,97.368z M314.898,128.083
				c0.151-0.417,0.293-0.798,0.421-1.119c0.237-0.596,0.87-3.402,1.683-7.266c1.75,1.359,3.893,2.847,3.893,2.847l0.502,3.097
				C320.556,124.945,316.733,127.019,314.898,128.083z"/>
		</g>
	</g>
	<g>
		<g>
			<polygon fill="#A2C722" points="304.672,95.153 305.911,94.74 304.669,95.142 			"/>
			<path fill="#A2C722" d="M309.91,124.08c-1.598-2.682-4.422-4.673-5.229-7.688c-0.08,0.181-0.161,0.362-0.241,0.542
				c-0.042-0.701-0.52-1.358-1.173-1.616c-0.397-0.157-0.922-0.139-1.17,0.21c-0.104,0.145-0.144,0.326-0.172,0.503
				c-0.1,0.627-0.084,1.271,0.047,1.892c-0.306-1.296-0.813-2.545-1.497-3.688c-0.243,0.189-0.486,0.379-0.729,0.568
				c0.216-0.666-0.233-1.469-0.914-1.634c-0.681-0.164-1.447,0.345-1.56,1.037c-0.173-0.075-0.346-0.149-0.52-0.224
				c0.142,0.695,0.283,1.391,0.425,2.085c-0.509-0.346-1.092-0.583-1.698-0.691c-0.197,0.237,0.019,0.584,0.231,0.807
				c1.921,2.016,4.147,3.741,6.579,5.098c-3.557-1.267-7.12-2.536-10.54-4.138c-1.476-0.692-3.117-1.72-3.233-3.346
				c-0.215,0.103-0.43,0.206-0.645,0.309c-0.406-0.569-0.865-1.099-1.368-1.584c-0.136-0.131-0.331-0.267-0.497-0.178
				c-0.149,0.081-0.163,0.286-0.155,0.455c0.038,0.829,0.125,1.677,0.488,2.424c0.364,0.746,1.054,1.38,1.879,1.468
				c0.079,0.35-0.331,0.649-0.686,0.609c-0.356-0.04-0.645-0.294-0.91-0.534c-2.066-1.864-4.281-3.562-6.617-5.074
				c-0.135,0.352-0.27,0.704-0.405,1.056c-0.587-0.276-1.232-0.688-1.859-0.817c-0.028,0.269,0.017,0.529,0.051,0.805
				c-0.548-0.118-1.097-0.236-1.645-0.354c-0.115-0.025-0.243-0.047-0.341,0.017c-0.094,0.062-0.126,0.185-0.141,0.296
				c-0.071,0.544,0.115,1.115,0.494,1.512c-0.406-0.032-0.812-0.064-1.217-0.097c0.901,0.84,1.996,1.469,3.175,1.826
				c-0.962,0.066-1.913,0.306-2.79,0.707c0.021,0.265,0.336,0.386,0.597,0.443c3.451,0.747,7.058,0.688,10.45,1.67
				c0.316,0.092,0.699,0.294,0.653,0.62c-0.027,0.195-0.206,0.328-0.379,0.42c-0.92,0.488-2.021,0.41-3.052,0.548
				c-1.032,0.139-2.178,0.67-2.383,1.691c0.48,0.325,1.141,0.361,1.654,0.091c-0.059,0.354-0.21,0.692-0.434,0.971
				c5.395-0.176,10.793-0.249,16.19-0.218c1.938,0.011,3.887,0.036,5.798,0.364c0.273,0.047,0.609,0.167,0.627,0.444
				c0.016,0.246-0.238,0.413-0.46,0.52c-1.728,0.84-3.567,1.449-5.454,1.808c-0.966,0.184-1.951,0.303-2.883,0.618
				c-0.932,0.313-1.83,0.849-2.356,1.68c0.276-0.027,0.551-0.054,0.827-0.081c-0.853,0.731-1.586,1.604-2.162,2.57
				c-0.057,0.097-0.115,0.207-0.087,0.316c0.048,0.188,0.297,0.225,0.491,0.21c0.974-0.072,1.922-0.47,2.656-1.114
				c0.013,0.147,0.025,0.294,0.038,0.441c0.398-0.334,0.795-0.668,1.193-1.002c-0.071,0.261-0.141,0.522-0.21,0.782
				c0.777-0.431,1.553-0.861,2.33-1.292c-0.471,0.417-0.867,0.919-1.164,1.474c-0.066,0.125-0.129,0.274-0.07,0.403
				c0.093,0.202,0.384,0.18,0.598,0.119c4.363-1.234,7.602-4.944,11.791-6.683C310.056,124.331,309.984,124.205,309.91,124.08z"/>
			<path fill="#A2C722" d="M332.563,131.606c0.868,0.11,1.773-0.108,2.498-0.599c-0.737-1.143-1.773-2.092-2.976-2.726
				c0.268-0.451,0.535-0.903,0.803-1.354c-2.162-1.18-4.536-1.967-6.975-2.313c0.803,0.039,1.271-1.047,0.937-1.777
				s-1.134-1.119-1.898-1.367c-2.055-0.665-4.304-0.714-6.386-0.141c0.821-1.051,1.769-2.18,3.086-2.388
				c1.178-0.187,2.321,0.42,3.36,1.006c3.107,1.753,6.214,3.505,9.322,5.259c-0.165-0.405-0.329-0.811-0.494-1.215
				c1.009,1.018,2.204,1.852,3.506,2.449c-0.07-2.416-1.642-4.589-3.609-5.993c-1.968-1.404-4.31-2.167-6.61-2.91
				c4.197-0.892,8.559-1.003,12.795-0.327c-0.145-0.854,0.176-1.774,0.822-2.353c-1.386-0.763-3-1.105-4.576-0.972
				c2.325-1.15,4.428-2.746,6.162-4.676c-0.453-0.263-1.013-0.332-1.516-0.188c0.628-0.574,1.257-1.147,1.885-1.721
				c-0.365-0.071-0.731-0.143-1.097-0.214c0.024-0.422,0.048-0.845,0.072-1.267c-0.61-0.393-1.48-0.323-2.02,0.162
				c0.101-0.418,0.08-0.865-0.058-1.272c-0.511,0.257-1.022,0.514-1.533,0.771c-0.193-0.283-0.385-0.567-0.578-0.851
				c-0.873,0.975-1.598,2.082-2.141,3.272c-0.445-0.569-0.891-1.138-1.337-1.707c-0.977,3.347-3.358,6.258-6.444,7.879
				c0.45-1.302,1.28-2.469,2.361-3.321c-0.293-1.188-0.414-2.417-0.358-3.638c-1.911,0.735-3.62,1.985-4.898,3.585
				c-0.542-0.433-1.084-0.866-1.626-1.3c-0.117,2.106-0.243,4.253-1.006,6.22c-0.763,1.967-2.285,3.758-4.325,4.294
				c0.264-3.273,0.028-6.585-0.696-9.788c-0.152-0.673-0.874-1.509-1.333-0.994c0.056-1.072,0.112-2.145,0.168-3.218
				c-0.899,0.144-1.749-0.906-1.419-1.754c-0.661-0.001-1.309-0.384-1.628-0.963c-0.179,0.551-0.358,1.104-0.538,1.656
				c-0.243-0.45-0.947-0.439-1.329-0.099c-0.381,0.34-0.513,0.875-0.592,1.381c-0.383,2.424-0.011,4.963,1.051,7.175
				c-1.516,0.285-2.437-1.587-2.814-3.083c-1.22-4.833-2.439-9.668-3.66-14.503c3.233-1.14,7.038-0.48,9.698,1.682
				c0.21-0.609,1.186-0.741,1.55-0.209c0.544-0.416,0.848-1.128,0.768-1.809c0.83,1.568,1.951,2.981,3.289,4.146
				c0.276-0.541,0.873-0.9,1.479-0.892c0.533-1.138,1.075-2.323,1.075-3.578c-0.001-1.256-0.711-2.606-1.926-2.925
				c2.413,1.82,5.892,2.097,8.562,0.681c-0.912-0.821-1.824-1.642-2.736-2.463c1.194,0.156,2.387,0.313,3.581,0.47
				c0.012-0.478-0.137-0.958-0.418-1.345c0.395-0.092,0.791-0.184,1.186-0.275c-0.045-0.638,0.215-1.29,0.687-1.722
				c-0.62-0.015-1.207-0.46-1.387-1.053c-1.282,0.424-2.564,0.849-3.846,1.273c0.678-0.536,1.185-1.283,1.434-2.109
				c-4.689,1.708-9.378,3.415-14.068,5.121c1.38-1.702,2.128-3.904,2.073-6.095c-1.342,0.984-3.342,0.099-4.852,0.8
				c-0.762,0.354-1.288,1.062-1.771,1.748c-1.652,2.339-3.207,4.746-4.66,7.214c-1.229-4.313-2.458-8.626-3.688-12.941
				c5.692,1.562,12.193-0.352,16.131-4.748c-1.228,0.268-2.455,0.535-3.683,0.802c2.282-1.237,4.2-3.137,5.459-5.407
				c-0.657-0.133-1.362-0.011-1.935,0.335c0.503-0.711,0.727-1.614,0.615-2.478c-1.347,0.132-2.659,0.601-3.786,1.35
				c-0.277-0.445-0.554-0.89-0.83-1.334c-2.053,1.346-3.861,3.066-5.309,5.048c0.398-0.706-0.36-1.621-1.169-1.658
				c-0.809-0.039-1.529,0.495-2.106,1.064c-1.536,1.511-2.621,3.475-3.083,5.581c-0.548-1.237-1.105-2.626-0.657-3.902
				c0.396-1.129,1.474-1.852,2.485-2.493c3.01-1.909,6.021-3.82,9.031-5.729c-0.458-0.155-0.955-0.192-1.431-0.106
				c1.406-0.407,2.735-1.079,3.896-1.971c-2.639-1.114-5.854-0.732-8.159,0.968c-1.585,1.169-2.788,2.921-4.629,3.622
				c1.429-3.986,3.41-7.773,5.87-11.22c-0.811-0.284-1.46-0.993-1.672-1.826c-1.327,0.866-2.393,2.128-3.023,3.582
				c0.118-2.589-0.33-5.204-1.304-7.606c-0.276,0.388-0.552,0.776-0.828,1.163c-0.203-0.807-0.407-1.615-0.61-2.422
				c-0.236,0.304-0.472,0.608-0.707,0.913c-0.31-0.461-0.994-0.62-1.476-0.342s-0.686,0.95-0.442,1.449
				c-0.35-0.162-0.699-0.324-1.048-0.485c-0.125,0.562-0.152,1.146-0.079,1.717c-0.344,0.041-0.688,0.082-1.033,0.123
				c0.451,1.209,1.079,2.352,1.856,3.381c-0.704,0.14-1.408,0.28-2.112,0.42c2.525,2.388,3.947,5.899,3.796,9.372
				c-0.701-2.397-2.695-4.373-5.099-5.052c-0.234,2.034,0.069,4.126,0.869,6.012c-0.636,0.275-1.271,0.549-1.907,0.824
				c1.803,1.097,3.638,2.223,5.013,3.824c1.375,1.602,2.239,3.789,1.75,5.842c-3.083-2.026-6.543-3.479-10.15-4.26
				c-0.113,0.325-0.227,0.649-0.34,0.973c-0.914-0.56-1.828-1.119-2.741-1.678c-0.299,0.867-1.639,1.118-2.231,0.418
				c-0.283,0.607-0.942,1.017-1.611,1.003c0.404,0.417,0.809,0.833,1.214,1.25c-0.514,0.002-0.835,0.636-0.708,1.133
				c0.128,0.498,0.546,0.861,0.959,1.166c1.955,1.442,4.316,2.326,6.738,2.522c-1.181,1.479-2.042,3.215-2.506,5.051
				c3.163-0.534,6.104-2.292,8.069-4.828c0.745-0.962,1.896-2.169,2.929-1.527c0.468,0.292,0.657,0.866,0.812,1.394
				c1.55,5.271,3.1,10.542,4.649,15.812c-0.797,0.259-1.663-0.272-2.138-0.963c-0.475-0.691-0.684-1.526-1.042-2.284
				c-0.885-1.87-2.75-3.241-4.799-3.528c-0.173,1.535,0.575,3.006,1.301,4.37c-3.044-2.045-6.315-3.753-9.734-5.082
				c0.225,0.912,0.449,1.824,0.672,2.736c-1.229-0.692-2.496-1.397-3.895-1.582c-0.936-0.124-3.126,0.083-3.529,1.203
				c-0.408,1.133,1.447,1.758,2.349,1.493c-0.326,0.142-0.652,0.282-0.978,0.424c2.147,1.622,4.402,3.162,6.935,4.068
				c2.533,0.906,5.397,1.13,7.893,0.125c-2.06,1.675-4.12,3.352-6.179,5.028c0.283,0.203,0.622,0.33,0.969,0.363
				c-0.499,0.377-0.9,0.883-1.151,1.456c0.755-0.097,1.535,0.478,1.666,1.229c1.656-0.745,3.162-1.825,4.399-3.155
				c-0.026,1.01-0.053,2.021-0.08,3.031c1.559,0.073,2.833-1.26,3.542-2.649c0.709-1.389,1.11-2.961,2.108-4.161
				c0.44-0.529,1.208-0.988,1.779-0.604c0.349,0.235,0.46,0.69,0.545,1.102c0.794,3.875,1.588,7.752,2.382,11.627
				c-0.748,0.082-1.473,0.363-2.081,0.807c2.874,1.933,3.813,5.697,4.183,9.141c0.37,3.444,0.457,7.112,2.356,10.007
				c-0.004-2.135,0.007-4.321,0.729-6.33c0.723-2.009,2.306-3.843,4.4-4.263c1.266,5.64,5.976,10.357,11.614,11.633
				c-0.82-0.947-1.64-1.894-2.459-2.841c2.179,1.415,4.747,2.225,7.343,2.318C333.611,132.538,333.161,131.949,332.563,131.606z
				 M304.672,95.153c-0.001-0.004-0.002-0.007-0.003-0.011l1.242-0.402L304.672,95.153z M311.997,125.702
				c-0.044-0.441-0.081-0.846-0.104-1.191c-0.043-0.64-0.685-3.444-1.621-7.28c2.166,0.471,4.74,0.886,4.74,0.886l1.791,2.576
				C315.743,120.427,313.19,123.948,311.997,125.702z"/>
		</g>
	</g>
	<g>
		<g>
			<path fill="#FF8324" d="M312.465,404.585h-0.11c-3.125,0-5.778-2.293-6.227-5.387c-6.302-43.478-15.215-87.126-21.715-128.434
				c-6.332-40.142-10.427-78.112-9.277-119.023c0.189-6.761,4.255-12.803,10.446-15.527c17.078-7.515,36.581-7.515,53.658,0
				c6.191,2.725,10.257,8.766,10.447,15.527c1.148,40.911-2.946,78.882-9.278,119.022c-6.5,41.309-15.414,84.957-21.715,128.436
				C318.244,402.292,315.59,404.585,312.465,404.585z"/>
		</g>
	</g>
	<path fill="#FF9229" d="M307.56,267.111c-1.847-47.634-0.447-82.864,4.684-117.808c0.527-3.586,3.108-6.589,6.575-7.65
		c2.135-0.653,4.292-1.178,6.464-1.582c-4.199-0.945-8.5-1.427-12.874-1.427c-8.177,0-16.11,1.667-23.579,4.953
		c-3.319,1.461-5.529,4.747-5.631,8.37c-0.991,35.304,1.755,70.456,9.183,117.542c2.821,17.93,6.034,35.934,9.435,54.995
		c3.63,20.344,7.364,41.274,10.592,62.175c0.347-2.244,0.7-4.487,1.058-6.729c-0.762-19.188-1.892-38.397-2.996-57.116
		C309.333,303.504,308.256,285.247,307.56,267.111z"/>
	<path fill="#D17418" d="M349.685,151.741c-0.19-6.761-4.255-12.803-10.447-15.527c-11.624-5.115-24.372-6.745-36.713-4.897
		c4.675,0.611,9.308,1.716,13.817,3.332c6.368,2.281,10.849,8.021,11.516,14.752c4.032,40.728,2.626,78.893-0.858,119.382
		c-3.57,41.662-9.381,85.831-12.6,129.646c-0.198,2.701-2.091,4.918-4.62,5.605c0.79,0.354,1.662,0.552,2.575,0.552h0.11
		c3.125,0,5.779-2.293,6.227-5.386c6.302-43.479,15.215-87.127,21.715-128.436C346.739,230.623,350.833,192.652,349.685,151.741z"/>
	<ellipse fill="#D17418" cx="313.312" cy="136.457" rx="18.942" ry="4.948"/>
	<path fill="#D17418" d="M298.848,232.662l-20.049-2.724c0.242,2.14,0.496,4.282,0.757,6.426l19.292-2.62V232.662z"/>
	<path fill="#D17418" d="M310.766,265.909l-27.49-2.491c0.302,1.988,0.61,3.983,0.923,5.981l26.566-2.407V265.909z"/>
	<path fill="#D17418" d="M300.917,296.528l-12.424-1.127c0.188,1.094,0.377,2.188,0.567,3.284l11.857-1.075V296.528z"/>
	<path fill="#D17418" d="M307.121,327.146l-13.242-1.201c0.204,1.142,0.407,2.284,0.611,3.428l12.63-1.145V327.146z"/>
	<path fill="#D17418" d="M289.208,194.34l-13.521-1.226c0.062,1.172,0.129,2.344,0.199,3.516l13.322-1.208V194.34z"/>
	<path fill="#D17418" d="M306.814,168.796l-31.87-1.945c0.004,1.661,0.019,3.315,0.04,4.969l31.83-1.942V168.796z"/>
	<path fill="#D17418" d="M309.62,353.314l-11.019-0.672c0.139,0.8,0.278,1.6,0.417,2.401l10.602-0.647V353.314z"/>
	<path fill="#D17418" d="M308.768,379.481l-5.716-0.349c0.094,0.588,0.188,1.176,0.281,1.763l5.435-0.331V379.481z"/>
	<path fill="#FF9229" d="M323.51,308.878l10.219,1.388c0.233-1.319,0.466-2.637,0.698-3.953l-10.917,1.483V308.878z"/>
	<path fill="#FF9229" d="M320.64,275.45l18.745,1.699c0.247-1.519,0.489-3.034,0.729-4.547l-19.475,1.765V275.45z"/>
	<path fill="#FF9229" d="M335.541,245.733l8.425,0.764c0.118-0.881,0.235-1.762,0.351-2.641l-8.776,0.795V245.733z"/>
	<path fill="#FF9229" d="M326.201,215.115l21.156,1.918c0.155-1.652,0.305-3.305,0.447-4.958l-21.603,1.957V215.115z"/>
	<path fill="#FF9229" d="M317.551,347.922l9.343,0.848c0.165-0.941,0.33-1.882,0.495-2.821l-9.838,0.892V347.922z"/>
	<path fill="#FF9229" d="M314.288,373.466l8.317,0.508c0.116-0.707,0.232-1.413,0.349-2.118l-8.666,0.527V373.466z"/>
	<path fill="#FF9229" d="M326.837,188.947l22.434,1.369c0.061-1.275,0.118-2.552,0.17-3.83l-22.604,1.378V188.947z"/>
	<path fill="#FF9229" d="M327.689,161.697v1.082l22.184,1.354c-0.003-1.26-0.012-2.522-0.025-3.788L327.689,161.697z"/>
	<g>
		<g>
			<polygon fill="#B3DA22" points="314.04,96.011 315.343,95.92 314.04,96 			"/>
			<path fill="#B3DA22" d="M311.898,125.331c-0.879-2.996-3.117-5.629-3.146-8.75c-0.123,0.155-0.246,0.31-0.369,0.466
				c0.134-0.69-0.164-1.445-0.732-1.858c-0.346-0.251-0.858-0.364-1.186-0.088c-0.137,0.114-0.221,0.28-0.292,0.444
				c-0.253,0.581-0.399,1.209-0.427,1.844c0.027-1.332-0.152-2.668-0.53-3.946c-0.282,0.124-0.564,0.247-0.848,0.369
				c0.375-0.592,0.141-1.48-0.478-1.811c-0.618-0.329-1.487-0.027-1.768,0.615c-0.149-0.115-0.298-0.23-0.448-0.346
				c-0.036,0.709-0.072,1.418-0.108,2.125c-0.407-0.461-0.912-0.836-1.473-1.092c-0.25,0.18-0.127,0.571,0.023,0.839
				c1.357,2.432,3.083,4.657,5.099,6.577c-3.128-2.114-6.263-4.231-9.174-6.636c-1.257-1.039-2.59-2.442-2.298-4.046
				c-0.233,0.046-0.467,0.092-0.701,0.138c-0.252-0.651-0.564-1.28-0.93-1.875c-0.099-0.161-0.253-0.341-0.437-0.296
				c-0.165,0.041-0.229,0.236-0.264,0.402c-0.17,0.813-0.297,1.656-0.131,2.469c0.166,0.813,0.676,1.599,1.453,1.892
				c-0.011,0.357-0.482,0.546-0.816,0.418c-0.334-0.127-0.551-0.446-0.748-0.744c-1.537-2.321-3.258-4.517-5.143-6.564
				c-0.218,0.307-0.437,0.615-0.655,0.922c-0.501-0.415-1.021-0.973-1.597-1.255c-0.094,0.254-0.116,0.517-0.152,0.792
				c-0.501-0.251-1.003-0.502-1.504-0.753c-0.104-0.052-0.224-0.106-0.335-0.068c-0.107,0.036-0.168,0.146-0.211,0.251
				c-0.204,0.509-0.166,1.109,0.102,1.588c-0.385-0.133-0.77-0.265-1.154-0.398c0.664,1.038,1.567,1.921,2.619,2.56
				c-0.948-0.176-1.928-0.181-2.878-0.012c-0.045,0.263,0.229,0.458,0.468,0.578c3.156,1.584,6.664,2.427,9.704,4.224
				c0.283,0.167,0.603,0.459,0.478,0.763c-0.075,0.182-0.281,0.267-0.472,0.312c-1.012,0.242-2.059-0.108-3.093-0.23
				c-1.034-0.123-2.277,0.105-2.729,1.043c0.384,0.434,1.015,0.633,1.579,0.5c-0.146,0.328-0.375,0.617-0.663,0.832
				c5.268,1.174,10.514,2.451,15.733,3.826c1.875,0.495,3.756,1.005,5.524,1.799c0.253,0.114,0.548,0.314,0.497,0.587
				c-0.046,0.241-0.333,0.339-0.575,0.389c-1.882,0.382-3.816,0.514-5.733,0.391c-0.982-0.063-1.965-0.192-2.946-0.121
				c-0.981,0.071-1.983,0.366-2.701,1.039c0.273,0.042,0.547,0.085,0.821,0.128c-1.009,0.497-1.936,1.158-2.734,1.95
				c-0.08,0.08-0.163,0.172-0.164,0.284c-0.001,0.194,0.231,0.292,0.423,0.326c0.961,0.173,1.978,0.024,2.849-0.417
				c-0.024,0.146-0.048,0.291-0.073,0.437c0.468-0.225,0.937-0.449,1.405-0.674c-0.133,0.236-0.266,0.471-0.399,0.706
				c0.86-0.224,1.719-0.446,2.579-0.669c-0.56,0.287-1.068,0.673-1.494,1.137c-0.096,0.104-0.194,0.233-0.169,0.373
				c0.04,0.218,0.327,0.271,0.549,0.265c4.534-0.107,8.595-2.893,13.085-3.531C311.977,125.609,311.939,125.469,311.898,125.331z"/>
			<path fill="#B3DA22" d="M331.628,138.081c1.009,0.445,2.141,0.608,3.234,0.466c-0.397-0.818-1.017-1.527-1.775-2.031
				c0.334-0.026,0.669-0.052,1.003-0.08c-0.725-0.497-1.451-0.994-2.176-1.491c0.629-0.367,1.259-0.732,1.888-1.099
				c-2.148-1.781-4.603-3.189-7.225-4.146c0.79,0.566,2.09,0.404,2.522-0.467c0.432-0.872-0.536-2.113-1.432-1.735
				c0.606-0.75-0.638-1.6-1.587-1.769c-1.886-0.335-3.772-0.669-5.658-1.004c1.711-0.84,3.587-1.345,5.49-1.478
				c3.174,3.226,6.347,6.451,9.521,9.677c0.006-0.782-0.214-1.565-0.628-2.228c0.865,1.619,2.075,3.053,3.527,4.176
				c-0.328-1.434-0.656-2.867-0.984-4.301c0.096-2.803-2.292-5.46-5.089-5.664c-0.921-0.067-2.277-0.365-2.041-1.259
				c0.175-0.662,1.1-0.686,1.772-0.552c3.772,0.747,7.472,1.856,11.034,3.306c-0.144-0.454-0.427-0.863-0.802-1.157
				c0.802-0.175,1.549-0.597,2.114-1.192c-1.397-1.139-3.134-1.855-4.929-2.035c2.799-0.505,5.505-1.523,7.943-2.988
				c-0.566-0.55-1.469-0.723-2.199-0.419c0.989-0.602,2.058-1.073,3.168-1.397c-0.616-0.092-1.232-0.185-1.848-0.277
				c0.305-0.48,0.61-0.962,0.916-1.443c-0.367-0.975-2.046-0.98-2.418-0.007c0.417-0.481,0.683-1.092,0.752-1.725
				c-0.779,0.127-1.522,0.461-2.134,0.961c0.144-0.566,0.134-1.171-0.025-1.733c-1.172,1.002-2.203,2.17-3.054,3.456
				c-0.256-0.948-0.513-1.896-0.769-2.843c-1.505,3.449-4.853,6.027-8.571,6.603c0.849-1.289,2.18-2.252,3.669-2.655
				c-0.403-1.336-0.147-2.854,0.672-3.985c-1.217,0.142-2.387,0.657-3.311,1.46c0.167-0.366,0.335-0.731,0.503-1.098
				c-1.17,0.709-2.261,1.549-3.248,2.498c-0.358-0.82-0.717-1.641-1.076-2.461c-0.768,1.864-1.536,3.73-2.303,5.594
				c-0.262,0.637-0.53,1.283-0.961,1.82c-1.135,1.415-3.108,1.766-4.904,2.021c0.867-1.564,1.292-3.369,1.214-5.155
				c1.109-1.796,1.378-4.088,0.715-6.092c-0.428,0.133-0.856,0.266-1.285,0.399c0.664-1.167,1.21-2.402,1.628-3.678
				c-0.464,0.211-0.927,0.422-1.391,0.634c-0.102-0.93-0.044-1.877,0.171-2.787c-0.333,0.269-0.666,0.537-0.998,0.805
				c0.031-0.732-0.085-1.473-0.339-2.161c-0.311,0.796-0.621,1.592-0.931,2.387c-0.095-0.487-0.19-0.973-0.285-1.459
				c-0.511,0.845-1.46,1.407-2.447,1.45c-0.296,2.595-0.369,5.215-0.217,7.823c-0.677-0.315-1.354-0.63-2.031-0.945
				c0.013-6.053,0.026-12.107,0.039-18.162c3.562-0.576,7.389,1.315,9.094,4.494c0.349-0.373,0.549-0.881,0.55-1.391
				c0.315,0.507,0.63,1.015,0.946,1.523c0.883-0.278,1.433-1.337,1.152-2.22c0.472,1.935,1.195,3.808,2.145,5.558
				c0.555-0.33,0.959-0.901,1.086-1.534c0.215,0.409,0.43,0.817,0.645,1.227c0.698-0.506,0.973-1.52,0.626-2.31
				c0.254,0.244,0.713,0.221,0.942-0.046c-0.774-0.741,0.353-2.303,1.3-1.802c-0.64-1.168-1.574-2.172-2.694-2.893
				c2.296,1.351,4.592,2.701,6.888,4.052c0.658-0.447,1.317-0.893,1.976-1.34c-0.713-1.182-1.583-2.27-2.58-3.224
				c1.312,0.655,2.625,1.311,3.938,1.965c0.203-0.689-0.045-1.488-0.602-1.942c0.639,0.149,1.278,0.298,1.917,0.447
				c-0.148-0.437-0.449-0.82-0.837-1.067c0.664,0.294,1.534-0.033,1.841-0.69c-0.525-0.397-1.227-0.551-1.87-0.412
				c0.417-0.173,0.75-0.542,0.879-0.975c-1.625,0.023-3.248,0.195-4.841,0.514c1.062-0.389,2.029-1.035,2.794-1.868
				c-5.276,0.23-10.537,0.825-15.732,1.776c1.404-1.437,2.807-2.873,4.211-4.31c-0.628,0.204-0.566-0.944-0.133-1.442
				c-0.623-0.132-1.257-0.208-1.894-0.224c-1.027,0.193-2.053,0.386-3.08,0.579c-0.029-0.485-0.057-0.972-0.086-1.458
				c-2.994,2.594-5.843,5.354-8.529,8.266c-0.133-4.745-0.267-9.491-0.4-14.236c1.649,0.86,3.299,1.721,4.948,2.58
				c0.853,0.445,1.742,0.899,2.703,0.936c0.708,0.026,1.401-0.178,2.075-0.396c2.675-0.867,5.268-1.99,7.73-3.349
				c-1.55-0.398-3.199-0.405-4.753-0.021c2.796-0.647,5.405-2.081,7.45-4.095c-0.836-0.369-1.847-0.313-2.637,0.145
				c0.874-0.673,1.555-1.596,1.938-2.631c-0.908-0.032-1.824,0.181-2.624,0.611c0.134-0.307,0.269-0.615,0.403-0.922
				c-0.781,0.406-1.561,0.811-2.341,1.217c-0.027-0.728-0.054-1.455-0.082-2.183c-2.582,1.057-4.981,2.558-7.06,4.419
				c0.874-0.427,1.342-1.652,0.775-2.442c-0.566-0.791-2.113-0.527-2.213,0.44c-0.354-0.883-1.684-0.203-2.272,0.545
				c-1.194,1.518-2.388,3.036-3.582,4.554c0.069-1.91,0.508-3.805,1.287-5.549c4.34-1.279,8.681-2.559,13.021-3.838
				c-0.686-0.377-1.48-0.552-2.261-0.496c1.834,0.001,3.668-0.391,5.34-1.144c-1.407-0.386-2.814-0.771-4.22-1.157
				c-2.505-1.419-6.063-0.487-7.55,1.979c-0.397,0.66-1,1.541-1.699,1.218c-0.759-0.351-0.329-1.503,0.207-2.146
				c2.422-2.906,5.105-5.597,8.006-8.027c-0.468-0.092-0.965-0.033-1.398,0.167c0.223-0.792,0.202-1.65-0.059-2.43
				c-1.659,0.709-3.11,1.898-4.131,3.385c0.958-2.721,1.301-5.657,0.995-8.526c-0.477,0.599-0.954,1.197-1.431,1.796
				c0.133-1.13,0.266-2.26,0.399-3.39c-0.37,0.501-0.741,1.003-1.11,1.506c0.154-0.209-0.562-1.134-0.708-1.272
				c-0.298-0.283-0.512-0.287-0.874-0.062c-0.629,0.391-0.915,1.39-0.39,1.977c-0.225-0.599-0.642-1.125-1.174-1.478
				c-0.255,0.746-0.31,1.56-0.156,2.333c-0.445-0.375-0.976-0.649-1.541-0.794c0.331,1.506,0.874,2.964,1.609,4.319
				c-0.956-0.215-1.912-0.429-2.868-0.644c2.332,2.946,3.029,7.109,1.784,10.655c-0.738-1.355-0.96-2.983-0.613-4.487
				c-1.368-0.275-2.587-1.216-3.2-2.47c-0.447,1.14-0.542,2.416-0.271,3.609c-0.244-0.321-0.488-0.641-0.732-0.961
				c0.075,1.367,0.301,2.725,0.674,4.041c-0.893-0.069-1.786-0.14-2.678-0.209c1.284,1.556,2.567,3.112,3.851,4.667
				c0.438,0.532,0.882,1.072,1.153,1.706c0.712,1.667,0.094,3.574-0.527,5.277c-0.971-1.5-2.362-2.725-3.974-3.497
				c-1.074-1.829-2.965-3.155-5.05-3.544c-0.079,0.455-0.158,0.91-0.237,1.364c-0.72-1.136-1.554-2.2-2.487-3.17
				c-0.029,0.508-0.059,1.016-0.088,1.523c-0.87-0.346-1.68-0.842-2.381-1.462c0.08,0.42,0.16,0.84,0.24,1.26
				c-0.632-0.373-1.338-0.619-2.065-0.72c0.556,0.649,1.111,1.297,1.667,1.946c-0.474-0.145-0.948-0.29-1.422-0.435
				c0.506,0.844,0.556,1.945,0.126,2.832c2.152,1.492,4.432,2.797,6.808,3.897c-1.792,1.065-3.33,2.554-4.453,4.309
				c1.371,0.114,2.775-0.215,3.953-0.926c-0.07,0.471-0.14,0.942-0.21,1.413c1.712-0.44,2.979-1.83,4.385-2.902
				c1.405-1.072,3.378-1.86,4.895-0.953c0.238,6.052,0.477,12.104,0.715,18.156c-1.338-0.242-2.116-1.677-2.368-3.013
				c-0.253-1.336-0.189-2.755-0.75-3.994c-0.122-0.271-0.306-0.554-0.596-0.616c-0.29-0.062-0.626,0.277-0.457,0.521
				c-0.54-0.804-1.226-1.508-2.014-2.068c-0.639,1.64-0.387,3.597,0.646,5.02c-3.328-2.017-4.95-6.831-8.814-7.291
				c-0.149,1.011,0.1,2.076,0.684,2.916c-1.572-1.407-3.262-2.68-5.048-3.801c0.003,0.513,0.162,1.024,0.451,1.449
				c-1.208-0.583-2.498-0.998-3.819-1.229c0.077,0.589,0.153,1.178,0.229,1.767c0.957,0.501,1.914,1.002,2.871,1.504
				c-0.654-0.025-1.309-0.049-1.962-0.074c1.223,1.236,2.658,2.262,4.223,3.021c-0.382,0.122-0.765,0.243-1.147,0.365
				c2.644,3.211,7.053,4.868,11.158,4.19c-1.967,2.214-5.871,1.592-7.913,3.736c0.486,0.25,1.028,0.391,1.574,0.408
				c-0.808,0.178-1.574,0.549-2.213,1.075c0.523,0.506,1.301,0.734,2.014,0.592c-0.255,0.451-0.51,0.902-0.765,1.354
				c2.055-0.463,4.011-1.356,5.707-2.605c-0.468,1.153-0.937,2.307-1.404,3.461c1.331,0.426,2.804-0.198,3.83-1.148
				c1.025-0.949,1.722-2.191,2.536-3.327c0.752-1.05,2.261-2.078,3.183-1.174c-0.145,4.517-0.29,9.035-0.435,13.552
				c-0.791-0.426-1.757-0.514-2.611-0.236c0.713,1.07,1.562,2.047,2.522,2.901c-0.425,0.124-0.851,0.248-1.276,0.371
				c0.903,0.327,1.116,1.49,1.141,2.45c0.07,2.735-0.22,5.478-0.858,8.138c-0.546,2.274-1.219,5.037,0.467,6.657
				c0.566-1.031,0.529-2.272,0.756-3.427c0.628-3.192,3.592-5.77,6.841-5.947c0.013,1.742,0.025,3.486,0.038,5.229
				c0.006,0.931,0.021,1.897,0.425,2.736c0.305,0.633,0.809,1.146,1.315,1.633c2.035,1.958,4.255,3.724,6.621,5.264
				c-0.376-1.556-1.148-3.014-2.223-4.201c1.899,2.135,4.364,3.761,7.074,4.666c-0.007-0.918-0.529-1.816-1.323-2.277
				C331.626,138.08,331.627,138.08,331.628,138.081z M314.04,96.011c0-0.004,0-0.007,0-0.011l1.303-0.08L314.04,96.011z
				 M313.514,127.421c0.068-0.439,0.133-0.84,0.197-1.18c0.117-0.63,0.195-3.506,0.245-7.455c1.979,0.996,4.37,2.041,4.37,2.041
				l1.092,2.941C318.458,123.248,315.108,126.021,313.514,127.421z"/>
		</g>
	</g>
</g>
<g>
	<g>
		<g>
			<path fill="#FF8324" d="M425.53,399.71h-0.109c-3.126,0-5.778-2.292-6.228-5.386c-6.302-43.479-15.215-87.127-21.716-128.434
				c-6.331-40.143-10.426-78.113-9.277-119.024c0.189-6.761,4.256-12.802,10.446-15.527c17.078-7.515,36.581-7.515,53.657,0
				c6.191,2.725,10.258,8.766,10.447,15.527c1.148,40.912-2.945,78.882-9.278,119.024c-6.5,41.307-15.413,84.955-21.716,128.434
				C431.309,397.418,428.656,399.71,425.53,399.71z"/>
		</g>
	</g>
	<path fill="#FF9229" d="M420.626,262.236c-1.848-47.633-0.447-82.864,4.684-117.807c0.526-3.587,3.107-6.59,6.575-7.65
		c2.136-0.653,4.292-1.178,6.464-1.582c-4.199-0.945-8.5-1.426-12.873-1.426c-8.178,0-16.111,1.667-23.579,4.953
		c-3.319,1.461-5.53,4.746-5.632,8.37c-0.991,35.304,1.755,70.456,9.184,117.542c2.821,17.929,6.034,35.933,9.435,54.994
		c3.63,20.344,7.364,41.274,10.593,62.175c0.346-2.244,0.699-4.487,1.058-6.729c-0.763-19.188-1.893-38.397-2.996-57.116
		C422.398,298.63,421.322,280.373,420.626,262.236z"/>
	<path fill="#D17418" d="M462.751,146.866c-0.189-6.761-4.256-12.802-10.447-15.527c-11.624-5.116-24.37-6.745-36.713-4.897
		c4.675,0.61,9.309,1.716,13.816,3.331c6.368,2.281,10.85,8.021,11.516,14.752c4.033,40.728,2.627,78.893-0.857,119.382
		c-3.569,41.662-9.382,85.831-12.601,129.646c-0.198,2.7-2.09,4.917-4.62,5.604c0.79,0.354,1.662,0.552,2.576,0.552h0.109
		c3.126,0,5.778-2.292,6.227-5.386c6.303-43.479,15.216-87.127,21.716-128.434C459.806,225.748,463.899,187.778,462.751,146.866z"/>
	<ellipse fill="#D17418" cx="426.377" cy="131.583" rx="18.942" ry="4.947"/>
	<g>
		<polygon fill="#839F17" points="430.973,128.471 419.466,127.175 431.033,56.934 435.316,57.417 		"/>
		<polygon fill="#9EC317" points="431.87,128.121 420.461,130.097 411.913,59.424 416.16,58.688 		"/>
		<polygon fill="#9EC317" points="428.745,128.471 417.803,124.684 444.492,58.688 448.565,60.099 		"/>
		<polygon fill="#CCE152" points="431.484,128.068 420.968,132.916 393.265,67.402 399.681,64.446 		"/>
		<polygon fill="#B8DA24" points="431.484,128.031 420.968,132.916 419.466,57.342 426.525,57.074 		"/>
	</g>
	<path fill="#D17418" d="M411.913,227.787l-20.048-2.723c0.241,2.14,0.495,4.282,0.756,6.426l19.292-2.62V227.787z"/>
	<path fill="#D17418" d="M423.832,261.035l-27.49-2.492c0.302,1.988,0.61,3.983,0.924,5.982l26.566-2.408V261.035z"/>
	<path fill="#D17418" d="M413.982,291.653l-12.425-1.126c0.189,1.093,0.378,2.188,0.567,3.283l11.857-1.075V291.653z"/>
	<path fill="#D17418" d="M420.187,322.271l-13.242-1.201c0.204,1.143,0.407,2.285,0.612,3.428l12.63-1.144V322.271z"/>
	<path fill="#D17418" d="M402.274,189.464l-13.521-1.225c0.062,1.173,0.13,2.344,0.199,3.516l13.322-1.208V189.464z"/>
	<path fill="#D17418" d="M419.88,163.921l-31.87-1.944c0.004,1.66,0.02,3.315,0.04,4.968l31.83-1.942V163.921z"/>
	<path fill="#D17418" d="M422.686,348.439l-11.019-0.672c0.139,0.8,0.278,1.6,0.417,2.401l10.602-0.647V348.439z"/>
	<path fill="#D17418" d="M421.834,374.607l-5.716-0.349c0.095,0.587,0.188,1.175,0.281,1.763l5.435-0.332V374.607z"/>
	<path fill="#FF9229" d="M436.576,304.003l10.22,1.389c0.233-1.319,0.465-2.638,0.697-3.954l-10.917,1.483V304.003z"/>
	<path fill="#FF9229" d="M433.705,270.575l18.746,1.699c0.246-1.519,0.489-3.034,0.729-4.547l-19.476,1.766V270.575z"/>
	<path fill="#FF9229" d="M448.606,240.858l8.425,0.764c0.118-0.88,0.236-1.761,0.352-2.641l-8.776,0.795V240.858z"/>
	<path fill="#FF9229" d="M439.268,210.24l21.155,1.918c0.155-1.652,0.305-3.305,0.447-4.958l-21.603,1.958V210.24z"/>
	<path fill="#FF9229" d="M430.617,343.048l9.343,0.847c0.165-0.941,0.329-1.882,0.494-2.821l-9.837,0.892V343.048z"/>
	<path fill="#FF9229" d="M427.354,368.591l8.317,0.508c0.115-0.706,0.232-1.413,0.349-2.118l-8.666,0.528V368.591z"/>
	<path fill="#FF9229" d="M439.902,184.072l22.435,1.369c0.062-1.275,0.118-2.552,0.171-3.83l-22.605,1.379V184.072z"/>
	<path fill="#FF9229" d="M440.756,156.822v1.082l22.184,1.354c-0.004-1.261-0.013-2.523-0.025-3.788L440.756,156.822z"/>
</g>
</svg>
