<svg version="1.1" xmlns="http://www.w3.org/2000/svg" xmlns:xlink="http://www.w3.org/1999/xlink" viewBox="0 0 768 430" enable-background="new 0 0 768 430" xml:space="preserve">
<g id="Layer_2">
</g>
<g id="Layer_1">
</g>
<g id="Layer_4">
</g>
<g id="Layer_3">
	<g>
		<path fill="#231F20" d="M261.108,280.948c16.449,1.555,32.894,3.211,49.329,4.934c66.294,6.915,132.507,14.627,198.689,22.616
			c11.858,1.427,23.727,2.865,35.59,4.33c6.368,0.784,13.151,2.366,19.57,2.419c9.013,0.083,14.81-17.825,17.039-24.91
			c3.557-11.288,4.513-23.169,4.704-34.958c0.154-8.752,2.244-20.548-4.329-27.457c-0.039-0.027-0.071-0.045-0.113-0.072
			c-0.058-0.079-0.102-0.164-0.192-0.234c-24.772-19.856-53.829-34.243-82.975-46.465c-35.331-14.804-72.07-26.343-109.296-35.24
			c-36.701-8.772-74.252-15.151-111.986-16.857c-3.439-0.151-6.868-0.312-10.304-0.406c-0.346-0.119-0.731-0.128-1.086-0.022
			c-13.394-0.325-26.679,0.479-39.033,6.55c-15.545,7.637-28.381,21.198-34.244,37.606c-12.189,34.056-6.061,79.543,26.365,99.997
			C231.213,280.593,246.982,279.586,261.108,280.948z M248.155,276.533c-0.752-0.053-1.528-0.109-2.303-0.167
			c12.172-4.905,22.812-12.374,32.208-21.353c0.225-0.148,0.399-0.315,0.529-0.515c6.056-5.856,11.612-12.33,16.706-19.134
			c14.925-19.932,27.455-41.803,38.39-64.167c0.572,0.503,1.146,1.008,1.707,1.52c-15.104,42.802-42.518,82.611-83.329,104.192
			C250.762,276.79,249.454,276.654,248.155,276.533z M255.053,268.403c-3.341,1.896-6.845,3.573-10.466,5.043
			c-0.015-0.048-0.012-0.07-0.028-0.118c-1.573-2.988-3.923-6.703-4.465-10.062c-0.439-2.665,1.699-5.724,3.316-8.233
			c0.104,0.14,0.237,0.318,0.341,0.457C247.059,260.196,250.901,264.426,255.053,268.403z M242.984,248.475
			c-1.583-2.683-3.049-3.907-1.608-6.706c0.951-1.835,2.232-2.453,3.914-3.468c3.199-1.928,6.493-3.648,9.859-5.244
			c1.344,3.772,5.147,5.713,8.987,6.934c-2.348,6.343,1.821,14.865,8.047,16.07c-4.547,4.002-9.382,7.642-14.542,10.791
			c-0.076-0.26-0.195-0.525-0.437-0.744C251.717,260.866,246.851,255.023,242.984,248.475z M228.248,235.207
			c-3.571-3.521,0.831-7.928,3.942-11.117c2.081,4.709,4.471,9.326,6.673,13.986c0.035,0.072,0.095,0.127,0.143,0.191
			c-0.52,0.525-0.995,1.057-1.372,1.615C234.553,238.831,230.434,237.342,228.248,235.207z M248.726,146.273
			c-0.724,6.501,0.255,13.081,2.781,19.796c-1.538,2.987-3.312,6.032-4.339,9.252c-3.525-2.525-7.867-5.43-12.178-6.617
			c-2.331-5.098-5.157-11.153,0.482-15.017C239.634,150.847,244.227,148.555,248.726,146.273z M238.597,147.618
			c-3.1-4.028,2.205-5.603,5.433-6.799c2.195-0.803,4.167-2.172,6.455-2.61c-0.52,1.537-0.928,3.089-1.235,4.645
			c-0.295-0.077-0.613-0.079-0.979,0.096C245.559,144.334,241.979,145.832,238.597,147.618z M246.486,178.742
			c-0.22,3.135,0.739,6.045,2.042,8.937c-1.738,0.938-3.438,1.927-5.078,3.048c-1.78,1.228-4.835,2.87-5.713,4.989
			c-0.861,2.087,0.207,5.729,0.428,7.782c0.111,1.027,0.223,2.053,0.333,3.08c-3.163-2.279-6.696-3.886-9.834-6.183
			c-5.16-3.764-6.522-8.73-5.05-14.68c0.569-2.266,1.25-4.516,2.007-6.744c1.326-3.859,1.006-4.394,5.179-5.758
			c3.721-1.227,4.733-0.773,7.975,0.813C241.497,175.367,244.03,176.986,246.486,178.742z M256.274,197.814
			c2.218,1.834,7.104,3.82,11.761,4.967c-3.558,0.967-6.993,2.257-8.534,5.109c-0.169,0.304-0.298,0.637-0.4,0.952
			c-5.441,1.418-10.881,2.835-16.321,4.252c-0.119,0.029-0.236,0.057-0.366,0.095c-0.551-4.224-1.477-8.685-1.399-12.862
			c0.095-5.855,6.305-8.716,11.137-10.948C252.232,192.545,253.997,195.926,256.274,197.814z M312.847,187.528
			c-2.858,4.725-2.763,10.199,0.89,14.173c-1.824,3.083-3.694,6.158-5.613,9.191c-4.667-7.596-6.157-16.883-1.654-25.012
			c4.601-8.318,13.57-12.284,22.718-12.74c-1.331,2.654-2.681,5.284-4.03,7.914C320.132,179.944,315.409,183.283,312.847,187.528z
			 M324.4,182.509c-3.146,5.988-6.396,11.915-9.807,17.763c-2.905-3.423-2.772-7.978-0.375-11.941
			C316.322,184.881,320.219,181.762,324.4,182.509z M305.007,185.247c-4.814,8.854-3.059,18.976,2.184,27.133
			c-1.549,2.441-3.129,4.866-4.743,7.274c-6.263-9.021-8.017-22.411-3.386-32.416c4.97-10.693,16.498-17.873,27.228-22.161
			c1.661,1.298,3.292,2.638,4.898,3.997c-0.402,0.816-0.806,1.63-1.209,2.446C319.935,171.752,309.985,176.133,305.007,185.247z
			 M297.2,187.556c-4.362,10.577-2.385,24.296,4.304,33.516c-1.114,1.641-2.238,3.271-3.385,4.897
			c-2.09-3.792-3.861-7.899-5.09-12.154c-0.103-0.377-0.219-0.747-0.323-1.126c-0.035-0.153-0.059-0.292-0.107-0.435
			c-1.596-6.397-1.905-12.823-0.792-18.722c0.078-0.454,0.187-0.892,0.297-1.331c0.089-0.384,0.167-0.758,0.279-1.139
			c0.071-0.251,0.129-0.492,0.209-0.73c0.199-0.663,0.42-1.323,0.651-1.97c0.032-0.063,0.042-0.13,0.074-0.193
			c0.558-1.485,1.247-2.929,2.022-4.359c0.125-0.231,0.259-0.45,0.397-0.691c0.197-0.345,0.396-0.691,0.616-1.034
			c3.718-5.938,9.509-11.46,17.472-16.697c1.382-0.911,2.77-1.707,4.145-2.414c1.185-0.565,2.371-1.073,3.564-1.545
			c1.115,0.832,2.231,1.666,3.333,2.508C313.718,168.54,301.865,176.239,297.2,187.556z M317.271,161.556
			c-9.263,4.502-18.121,12.129-23.159,21.189c-0.157,0.295-0.326,0.599-0.482,0.894c-0.125,0.232-0.252,0.486-0.369,0.729
			c-0.287,0.571-0.553,1.146-0.806,1.709c-0.067,0.15-0.122,0.29-0.176,0.429c-0.314,0.749-0.605,1.5-0.853,2.259l-0.012,0.01
			c-0.488,1.473-0.887,2.958-1.175,4.46c0.002,0.057-0.017,0.11-0.023,0.155c-1.076,5.576-0.848,11.308,0.312,16.881
			c0.056,0.236,0.109,0.493,0.153,0.737c0.087,0.331,0.153,0.658,0.241,0.99c1.231,5.242,3.317,10.463,6.191,15.412
			c-0.67,0.937-1.318,1.875-1.998,2.797c-7.283-11.292-11.265-24.193-8.513-37.73c3.059-15.014,15.294-28.424,29.567-33.807
			c0.337-0.132,0.56-0.338,0.72-0.575c1.04,0.731,2.079,1.461,3.106,2.202C319.091,160.675,318.191,161.088,317.271,161.556z
			 M284.013,189.476c-3.84,15.534,0.46,30.456,9.103,43.471c-0.817,1.083-1.634,2.167-2.469,3.226
			c-8.125-13.143-11.729-28.7-9.599-44.111c1.018-7.434,3.097-15.36,8.089-21.157c5.785-6.726,15.974-12.512,24.253-15.171
			c0.013-0.01,0.025-0.019,0.039-0.029c0.196,0.13,0.402,0.275,0.608,0.418C300.102,161.746,287.651,174.841,284.013,189.476z
			 M288.556,238.816c-3.867,4.782-7.983,9.333-12.36,13.563c-6.668,2.827-12.141-7.021-8.606-12.406
			c0.712-1.065,0.179-2.231-1.024-2.546c-14.494-3.902-6.973-13.563,1.143-18.994c1.118-0.734,0.651-2.743-0.708-2.839
			c-3.681-0.29-5.524-4.998-3.068-7.658c0.86-0.919,3.673-1.291,4.867-1.684c2.659-0.871,5.438-1.554,8.005-2.655
			c0.207-0.094,0.373-0.218,0.52-0.366C277.777,215.808,281.745,228.103,288.556,238.816z M237.174,209.505
			c0.569,0.447,1.18,0.389,1.664,0.108c0.157,1.408,0.314,2.816,0.472,4.225c-1.943,0.395-4.073,0.912-5.737,1.735
			c-1.739-1.854-3.656-3.338-5.651-4.98c-2.061-1.675-2.042-2.955-0.961-5.305c0.285-0.628,0.541-1.136,0.768-1.682
			C230.879,205.656,234.363,207.38,237.174,209.505z M237.645,217.771c6.519-2.816,14.342-3.988,21.353-5.664
			c0.532,2.257,2.193,4.328,4.265,5.539c-4.186,2.997-8.532,6.948-8.625,12.168c-0.061,0.025-0.105,0.02-0.166,0.044
			c-2.73,1.28-8.698,3.507-12.958,6.403c-1.508-3.195-3.029-6.381-4.537-9.576C235.004,222.549,232.497,219.98,237.645,217.771z
			 M341.19,285.951c-28.753-3.104-57.515-6.083-86.318-8.775c39.808-21.945,66.757-61.051,81.788-103.282
			c5.93,5.486,11.483,11.373,16.433,17.807c10.919,14.209,18.744,30.487,24.91,47.249c3.043,8.288,5.693,16.714,8.152,25.2
			c2.585,8.87,5.83,18.041,5.382,27.384C374.753,289.636,357.975,287.771,341.19,285.951z M372.084,145.292
			c39.745,8.526,78.938,20.197,116.675,35.331c31.781,12.754,63.658,27.872,90.538,49.387c6.512,7.174,3.833,24.082,3.317,33.122
			c-0.61,11.31-2.352,22.667-6.847,33.145c-2.007,4.646-4.798,8.506-7.396,12.78c0,0-1.966,3.187-2.108,3.234
			c-0.748,0.3-2.679-0.325-3.49-0.432c-15.196-1.895-30.375-3.739-45.557-5.584c-39.272-4.759-78.556-9.393-117.85-13.856
			c-2.201-35.241-13.646-69.381-34.499-98.019c-15.55-21.357-35.825-39.671-59.096-52.247c-7.322-3.955-15.095-7.476-23.192-9.625
			C312.691,134.266,342.641,138.976,372.084,145.292z M330.836,160.861c23.354,18.912,41.955,43.563,53.398,71.348
			c7.882,19.121,12.2,39.438,13.512,60.029c-1.017-0.116-2.031-0.228-3.048-0.343c0.315-7.049-1.306-13.667-3.175-20.433
			c-2.751-9.915-5.663-19.811-9.068-29.514c-6.502-18.49-14.828-36.532-26.813-52.146c-11.494-14.951-26.072-27.266-41.749-37.596
			c-9.71-6.415-20.253-13.338-31.398-18.091C300.246,138.722,316.897,149.593,330.836,160.861z M310.14,153.497
			c-8.999,3.236-16.669,8.255-22.312,15.014c-4.781,5.679-8.109,12.595-9.553,20.682c-0.696,3.905-1.008,7.821-0.998,11.717
			c-0.298-0.294-0.704-0.467-1.216-0.382c-6.882,1.104-27.069-6.48-17.876-15.386c3.385-3.274,5.402-4.42,5.801-9.55
			c0.322-3.983-0.517-7.955-1.867-11.682c2.791-0.296,5.505-0.932,8.542-0.499c5.414,0.78,10.391,3.075,15.317,5.328
			c0.702,0.33,1.312,0.112,1.708-0.341c0.649-0.722,0.686-2.056-0.462-2.587c-4.394-2.016-8.819-4.049-13.571-5.084
			c-2.431-0.526-4.529-0.47-6.598-0.295c-0.42-1.39-0.979-2.618-1.963-3.727c-0.215-0.235-2.418-1.705-2.429-2.014
			c-0.054-1.107,4.073-2.321,4.667-3.653c1.004-2.294-1.079-4.347-1.487-6.439c-0.678-3.595,0.608-8.118,1.511-12.039
			C282.55,135.68,297.25,144.914,310.14,153.497z M256.148,132.011c2.642-0.125,5.316-0.177,8.004-0.158
			c0.031,0.016,0.088,0.013,0.13,0.042c-0.833,3.987-1.985,8.213-2.03,12.167c-0.003,0.953,0.182,1.786,0.496,2.661
			c0.947,2.681,2.284,2.32-0.645,2.937c-7.589,1.592-0.874,7.761,1.453,11.099c-1.231,0.104-2.489,0.171-3.854,0.118
			c-0.013,0.009-0.022-0.003-0.045-0.007c-0.136,0.003-0.26-0.003-0.396-0.001c-1.792-0.012-1.847,3.079-0.052,3.149
			c0.133,0.019,0.26,0.003,0.397,0.001c0.01,0.012,0.01,0.012,0.01,0.012c-0.115,0.085,1.444,10.769,1.167,12.124
			c-1.465,6.915-4.868,4.873-7.576,9.109c-0.144,0.206-0.255,0.428-0.355,0.641c-0.294-0.078-0.613-0.079-0.966,0.086
			c-0.171,0.086-0.344,0.176-0.515,0.265c-1.463-3.348-2.345-6.632-1.043-10.336c1.107-3.142,2.845-6.1,4.346-9.059
			c0.003-0.023,0.003-0.023,0.016-0.032c0.004-0.021,0.004-0.021,0.016-0.031c0.258-0.531,0.191-0.995-0.041-1.358
			c-4.327-11.156-4.064-21.652,1.389-32.309C256.273,132.711,256.271,132.336,256.148,132.011z M227.508,138.448
			c8.127-3.874,16.631-5.594,25.478-6.241c-0.476,0.929-0.887,1.869-1.296,2.807c-0.204-0.086-0.438-0.109-0.702-0.091
			c-2.666,0.223-4.688,1.55-7.093,2.549c-2.371,0.993-4.855,1.458-6.996,2.974c-1.395,0.999-3.071,2.444-3.201,4.264
			c-0.095,1.577,0.92,3.178,2.062,4.525c-2.387,1.501-4.486,3.204-5.799,5.191c-2.656,4.039-0.656,9.383,1.304,13.745
			c-0.102-0.003-0.181-0.003-0.26-0.004c-5.868,0.152-7.152,6.061-8.689,10.75c-1.759,5.351-4.38,11.859-1.761,17.316
			c1.053,2.187,2.64,3.917,4.474,5.422c-0.02,0.054-0.048,0.095-0.058,0.162c-0.545,3.417-3.629,4.941-1.484,8.672
			c0.777,1.362,2,2.233,3.227,3.163c1.638,1.216,3.07,2.447,4.423,3.916c-0.719,1.188-0.647,2.244-0.286,3.341
			c-3.149,3.456-9.123,8.28-7.364,13.486c0.705,2.091,2.489,3.157,4.296,4.228c2.854,1.679,5.825,3.168,8.945,4.272
			c0.009,0.092-0.003,0.181,0.005,0.272c0.315,2.816,2.603,6.262,4.682,9.131c-0.017,0.03-0.042,0.051-0.068,0.068
			c-1.623,2.874-4.848,6.604-4.665,10.092c0.224,4.053,3.078,8.521,4.916,12.026c0.006,0.034,0.038,0.05,0.066,0.088
			c-1.138,0.413-2.299,0.822-3.476,1.184c-13.587-6.914-25.694-16.654-33.755-29.766c-6.857-11.173-10.292-24.162-10.503-37.237
			c-0.39-23.953,9.568-49.571,27.631-65.66C223.428,141.426,225.416,139.867,227.508,138.448z M190.898,196.573
			c1.855-20.992,9.788-39.674,27.113-52.42c0.063-0.047,0.115-0.085,0.179-0.132c-6.426,6.37-11.708,14.066-15.552,21.565
			c-12.1,23.669-14.48,53.211-1.852,77.16c7.464,14.17,19.446,24.913,33.259,32.61c-2.286-0.358-4.519-0.856-6.603-1.659
			c-8.707-3.34-16.417-10.235-22.26-17.31C191.557,239.874,189.06,217.215,190.898,196.573z"/>
		<path fill="#FAD488" d="M364.868,194.4c20.853,28.638,32.297,62.778,34.499,98.019c39.294,4.464,78.577,9.098,117.85,13.856
			c15.182,1.845,30.36,3.689,45.557,5.584c0.812,0.106,2.742,0.731,3.49,0.432c0.143-0.048,2.108-3.234,2.108-3.234
			c2.599-4.274,5.39-8.134,7.396-12.78c4.495-10.478,6.236-21.835,6.847-33.145c0.516-9.04,3.194-25.948-3.317-33.122
			c-26.88-21.516-58.757-36.633-90.538-49.387c-37.737-15.134-76.93-26.805-116.675-35.331
			c-29.443-6.315-59.393-11.026-89.505-12.763c8.098,2.149,15.87,5.67,23.192,9.625C329.043,154.729,349.317,173.042,364.868,194.4z
			 M528.357,239.483c-1.337-1.556,1.221-3.442,2.549-1.896c1.339,1.56,1.333,3.545,1.571,5.487c0.097,0.738,0.144,2.052,1.221,1.663
			c1.261-0.462,1.178-2.618,1.184-3.675c0.01-2.007,3.167-2.397,3.151-0.344c0.003,2.076-0.101,4.255-1.605,5.851
			c-1.157,1.237-2.994,1.831-4.595,1.144C528.235,246.153,530.398,241.85,528.357,239.483z M523.074,245.342
			c-0.287-0.971,1.184-1.553,1.492-0.576c0.809,2.629,2.777,4.608,5.46,5.283c0.987,0.235,0.757,1.812-0.217,1.569
			C526.59,250.806,524.062,248.531,523.074,245.342z M458.709,187.454c-0.59,2.401-2.217,4.285-4.523,5.152
			c-0.959,0.357-1.549-1.125-0.59-1.483c1.767-0.662,3.083-2.058,3.544-3.886C457.375,186.249,458.954,186.479,458.709,187.454z
			 M441.395,182.265c1.692,1.474,3.649,3.224,5.747,4.098c1.046,0.449,1.651-0.12,1.477-1.258c-0.223-1.259-1.546-2.213-2.47-2.974
			c-1.568-1.307,0.386-3.813,1.956-2.506c1.609,1.337,3.372,2.935,3.665,5.133c0.221,1.6-0.389,3.361-1.701,4.339
			c-1.516,1.128-3.312,0.683-4.835-0.163c-2.077-1.166-4.002-2.606-5.795-4.161C437.899,183.423,439.855,180.917,441.395,182.265z
			 M498.416,271.672c0.297-1.173,1.27-2.076,2.498-2.181c0.255-0.03,0.435,0.214,0.345,0.438c-0.322,0.814-0.939,1.451-1.747,1.775
			c-0.048,0.017-0.084,0.023-0.126,0.017c-0.172,0.09-0.348,0.198-0.521,0.286C498.668,272.115,498.371,271.902,498.416,271.672z
			 M500.685,274.477c1.63,0.193,2.944-1.421,2.638-2.976c-0.206-0.993,1.373-1.161,1.579-0.163c0.52,2.582-1.869,5.016-4.446,4.717
			C499.438,275.941,499.677,274.374,500.685,274.477z M408.419,242.795c-0.868,0.111-1.718-0.124-2.389-0.679
			c-0.028-0.037-0.057-0.076-0.085-0.114c-0.154-0.102-0.331-0.208-0.487-0.31c-0.196-0.131-0.154-0.5,0.082-0.557
			c1.181-0.303,2.423,0.118,3.111,1.148C408.781,242.485,408.672,242.765,408.419,242.795z M404.052,191.778
			c1.605-0.425,3.312,0.165,4.233,1.56c0.188,0.277,0.03,0.652-0.316,0.692c-1.17,0.159-2.325-0.17-3.248-0.928
			c-0.051-0.042-0.088-0.092-0.104-0.141c-0.228-0.146-0.456-0.294-0.675-0.428C403.672,192.357,403.734,191.855,404.052,191.778z
			 M392.211,193.268c1.441-2.183,4.219-0.37,5.561,0.928c1.105,1.058,1.884,2.341,2.81,3.533c0.668,0.868,4.106,4.209,4.806,1.451
			c0.516-1.968,3.652-1.532,3.147,0.449c-0.734,2.845-3.619,4.261-6.403,3.343c-1.721-0.581-3.021-1.93-4.098-3.346
			c-0.582-0.755-1.086-1.568-1.694-2.303c-0.368-0.439-0.743-0.892-1.181-1.241c-0.396-0.318-0.618-0.351-0.65-0.446
			c-0.641,0.417-1.545,0.478-2.175-0.261c-0.048-0.063-0.096-0.128-0.146-0.169C391.713,194.648,391.833,193.827,392.211,193.268z
			 M399.625,204.739c1.314,1.021,2.891,1.57,4.557,1.519c1.026-0.032,1.215,1.551,0.188,1.583c-2.096,0.056-4.062-0.56-5.722-1.859
			C397.83,205.363,398.82,204.111,399.625,204.739z M428.927,254.081c-0.769,2.001-2.299,3.535-4.278,4.336
			c-0.107,0.042-0.226,0.07-0.328,0.065c-0.421,0.234-0.839,0.468-1.271,0.689c-0.482,0.28-1.23-0.272-1.093-0.831
			c0.72-2.892,3.128-5.081,6.131-5.356C428.698,252.924,429.149,253.499,428.927,254.081z M399.533,231.687
			c0.716-2.892,3.125-5.081,6.129-5.356c0.609-0.059,1.059,0.518,0.838,1.098c-0.756,1.988-2.29,3.547-4.277,4.336
			c-0.109,0.039-0.214,0.06-0.316,0.054c-0.431,0.245-0.854,0.478-1.272,0.713C400.14,232.798,399.393,232.246,399.533,231.687z
			 M332.148,148.157c0.288-1.185,1.27-2.074,2.5-2.178c0.241-0.021,0.425,0.2,0.332,0.446c-0.311,0.806-0.928,1.443-1.734,1.767
			c-0.048,0.016-0.084,0.023-0.141,0.025c-0.171,0.088-0.334,0.19-0.506,0.278C332.39,148.611,332.094,148.376,332.148,148.157z"/>
		<path opacity="0.5" fill="#FAD488" d="M579.297,230.01c-26.88-21.516-58.757-36.633-90.538-49.387
			c-37.737-15.134-76.93-26.805-116.675-35.331c-13.366-2.867-26.841-5.38-40.384-7.457c9.865,3.124,19.782,6.08,29.648,9.211
			c28.832,9.15,57.84,19.012,84.584,32.887c0.482-0.648,1.374-0.973,2.173-0.308c1.026,0.854,2.112,1.814,2.843,2.968
			c2.392,1.302,4.76,2.645,7.108,4.017c0.246,0.022,0.463,0.141,0.581,0.337c14.191,8.344,27.591,18.04,39.791,29.648
			c9.048,8.612,17.601,17.84,25.333,27.693c0.328-0.062,0.674,0.06,0.806,0.478c0.125,0.402,0.285,0.782,0.459,1.153
			c0.644,0.831,1.275,1.667,1.903,2.506c0.871,0.757,1.909,1.322,3.098,1.624c0.987,0.235,0.757,1.812-0.217,1.569
			c-0.238-0.062-0.464-0.146-0.689-0.221c5.162,7.157,9.886,14.621,14.042,22.409c6.38,11.955,11.593,24.589,15.537,37.553
			c1.359,0.168,2.713,0.332,4.073,0.5c0.812,0.106,2.742,0.731,3.49,0.432c0.143-0.048,2.108-3.234,2.108-3.234
			c2.599-4.274,5.39-8.134,7.396-12.78c4.495-10.478,6.236-21.835,6.847-33.145C583.13,254.092,585.809,237.184,579.297,230.01z
			 M538.033,240.719c0.003,2.076-0.101,4.255-1.605,5.851c-1.157,1.237-2.994,1.831-4.595,1.144
			c-3.598-1.56-1.435-5.863-3.476-8.229c-1.337-1.556,1.221-3.442,2.549-1.896c1.339,1.56,1.333,3.545,1.571,5.487
			c0.097,0.738,0.144,2.052,1.221,1.663c1.261-0.462,1.178-2.618,1.184-3.675C534.892,239.056,538.049,238.665,538.033,240.719z"/>
		<path fill="#231F20" d="M536.428,246.569c1.505-1.596,1.608-3.774,1.605-5.851c0.016-2.054-3.142-1.663-3.151,0.344
			c-0.006,1.057,0.077,3.213-1.184,3.675c-1.077,0.389-1.124-0.925-1.221-1.663c-0.238-1.942-0.232-3.928-1.571-5.487
			c-1.328-1.546-3.886,0.341-2.549,1.896c2.041,2.366-0.122,6.67,3.476,8.229C533.434,248.4,535.271,247.807,536.428,246.569z"/>
		<path fill="#231F20" d="M530.026,250.049c-2.683-0.675-4.651-2.654-5.46-5.283c-0.309-0.977-1.779-0.395-1.492,0.576
			c0.988,3.189,3.516,5.464,6.735,6.276C530.783,251.861,531.014,250.284,530.026,250.049z"/>
		<path fill="#231F20" d="M453.596,191.123c-0.959,0.358-0.369,1.84,0.59,1.483c2.307-0.867,3.934-2.751,4.523-5.152
			c0.245-0.975-1.334-1.205-1.569-0.217C456.679,189.065,455.362,190.461,453.596,191.123z"/>
		<path fill="#231F20" d="M445.233,188.934c1.522,0.846,3.319,1.291,4.835,0.163c1.312-0.978,1.922-2.739,1.701-4.339
			c-0.293-2.199-2.056-3.796-3.665-5.133c-1.57-1.307-3.524,1.199-1.956,2.506c0.924,0.76,2.247,1.714,2.47,2.974
			c0.175,1.138-0.431,1.708-1.477,1.258c-2.098-0.875-4.055-2.625-5.747-4.098c-1.539-1.349-3.495,1.158-1.956,2.508
			C441.231,186.328,443.156,187.768,445.233,188.934z"/>
		<path fill="#231F20" d="M504.901,271.338c-0.206-0.998-1.785-0.83-1.579,0.163c0.307,1.555-1.008,3.169-2.638,2.976
			c-1.008-0.103-1.247,1.465-0.229,1.578C503.032,276.354,505.421,273.92,504.901,271.338z"/>
		<path fill="#231F20" d="M498.864,272.008c0.174-0.088,0.35-0.196,0.521-0.286c0.042,0.007,0.078,0,0.126-0.017
			c0.808-0.324,1.425-0.961,1.747-1.775c0.09-0.225-0.09-0.469-0.345-0.438c-1.229,0.104-2.201,1.008-2.498,2.181
			C498.371,271.902,498.668,272.115,498.864,272.008z"/>
		<path fill="#231F20" d="M404.616,192.96c0.017,0.049,0.054,0.099,0.104,0.141c0.923,0.758,2.078,1.087,3.248,0.928
			c0.347-0.04,0.505-0.415,0.316-0.692c-0.921-1.395-2.628-1.985-4.233-1.56c-0.317,0.077-0.38,0.58-0.11,0.754
			C404.16,192.666,404.389,192.813,404.616,192.96z"/>
		<path fill="#231F20" d="M394.508,195.636c0.032,0.095,0.254,0.128,0.65,0.446c0.438,0.349,0.812,0.801,1.181,1.241
			c0.608,0.735,1.112,1.548,1.694,2.303c1.077,1.416,2.377,2.765,4.098,3.346c2.784,0.918,5.669-0.499,6.403-3.343
			c0.505-1.981-2.632-2.417-3.147-0.449c-0.699,2.758-4.138-0.583-4.806-1.451c-0.926-1.192-1.704-2.475-2.81-3.533
			c-1.342-1.298-4.119-3.111-5.561-0.928c-0.378,0.559-0.498,1.381-0.023,1.938c0.05,0.042,0.098,0.106,0.146,0.169
			C392.963,196.114,393.867,196.053,394.508,195.636z"/>
		<path fill="#231F20" d="M404.37,207.841c1.026-0.032,0.838-1.615-0.188-1.583c-1.666,0.052-3.242-0.497-4.557-1.519
			c-0.805-0.628-1.795,0.624-0.977,1.242C400.309,207.281,402.274,207.896,404.37,207.841z"/>
		<path fill="#231F20" d="M421.957,258.341c-0.138,0.559,0.61,1.111,1.093,0.831c0.432-0.222,0.85-0.455,1.271-0.689
			c0.103,0.005,0.221-0.023,0.328-0.065c1.979-0.801,3.51-2.335,4.278-4.336c0.223-0.582-0.229-1.157-0.839-1.097
			C425.085,253.26,422.677,255.449,421.957,258.341z"/>
		<path fill="#231F20" d="M400.634,232.53c0.419-0.235,0.842-0.468,1.272-0.713c0.103,0.006,0.207-0.015,0.316-0.054
			c1.987-0.789,3.521-2.348,4.277-4.336c0.221-0.58-0.229-1.156-0.838-1.098c-3.004,0.275-5.413,2.465-6.129,5.356
			C399.393,232.246,400.14,232.798,400.634,232.53z"/>
		<path fill="#231F20" d="M405.54,241.136c-0.236,0.057-0.278,0.426-0.082,0.557c0.156,0.102,0.333,0.208,0.487,0.31
			c0.028,0.038,0.057,0.077,0.085,0.114c0.671,0.555,1.521,0.79,2.389,0.679c0.253-0.03,0.362-0.31,0.232-0.511
			C407.963,241.254,406.721,240.833,405.54,241.136z"/>
		<path fill="#231F20" d="M332.599,148.495c0.172-0.088,0.334-0.189,0.506-0.278c0.057-0.002,0.093-0.009,0.141-0.025
			c0.806-0.324,1.423-0.961,1.734-1.767c0.093-0.247-0.091-0.468-0.332-0.446c-1.23,0.104-2.212,0.993-2.5,2.178
			C332.094,148.376,332.39,148.611,332.599,148.495z"/>
		<path fill="#FCE0A9" d="M355.642,189.803c11.985,15.614,20.312,33.656,26.813,52.146c3.405,9.703,6.317,19.599,9.068,29.514
			c1.869,6.766,3.49,13.384,3.175,20.433c1.017,0.115,2.031,0.227,3.048,0.343c-1.312-20.591-5.63-40.908-13.512-60.029
			c-11.443-27.785-30.044-52.436-53.398-71.348c-13.938-11.268-30.59-22.139-48.341-26.745
			c11.145,4.753,21.688,11.676,31.398,18.091C329.569,162.537,344.148,174.852,355.642,189.803z"/>
		<path fill="#FAD488" d="M378.003,238.949c-6.166-16.762-13.991-33.039-24.91-47.249c-4.95-6.434-10.503-12.321-16.433-17.807
			c-15.031,42.231-41.98,81.336-81.788,103.282c28.803,2.692,57.565,5.672,86.318,8.775c16.785,1.82,33.563,3.685,50.347,5.582
			c0.448-9.343-2.797-18.514-5.382-27.384C383.696,255.663,381.046,247.237,378.003,238.949z M338.738,193.757
			c1.158-0.308,2.411,0.125,3.104,1.135c0.139,0.213,0.021,0.479-0.224,0.524c-0.868,0.111-1.719-0.127-2.388-0.679
			c-0.041-0.028-0.07-0.066-0.085-0.114c-0.167-0.093-0.333-0.208-0.497-0.323C338.448,194.191,338.503,193.813,338.738,193.757z
			 M323.466,244.229c0.297-1.172,1.268-2.073,2.499-2.177c0.254-0.031,0.435,0.211,0.345,0.436c-0.312,0.807-0.94,1.453-1.735,1.767
			c-0.06,0.026-0.095,0.033-0.139,0.025c-0.172,0.089-0.347,0.2-0.519,0.288C323.719,244.677,323.412,244.449,323.466,244.229z
			 M324.79,257.922c0.044,2.026-3.109,2.395-3.15,0.345c-0.133-6.535,7.173-6.114,10.227-10.23c1.206-1.652,3.712,0.303,2.497,1.942
			c-1.177,1.61-2.69,2.559-4.472,3.409C328.023,254.285,324.738,255.324,324.79,257.922z M339.547,251.168
			c-0.617,2.124-2.255,3.779-4.351,4.449c-0.964,0.303-1.554-1.182-0.577-1.492c1.75-0.549,2.944-1.817,3.462-3.568
			C338.374,249.566,339.823,250.21,339.547,251.168z M330.005,215.512c-0.469,0.727-1.202,1.231-2.054,1.392
			c-0.058,0.003-0.101-0.003-0.146-0.01c-0.191,0.062-0.369,0.116-0.559,0.179c-0.227,0.07-0.47-0.205-0.37-0.418
			c0.523-1.103,1.644-1.78,2.874-1.645C330.007,215.036,330.139,215.293,330.005,215.512z"/>
		<path opacity="0.5" fill="#FAD488" d="M345.661,221.443c-6.596,9.665-13.273,19.321-21.343,27.838
			c-12.492,13.181-27.354,21.882-42.656,30.521c19.852,1.969,39.694,4.007,59.528,6.148c16.785,1.82,33.563,3.685,50.347,5.582
			c0.448-9.343-2.797-18.514-5.382-27.384c-2.459-8.486-5.109-16.912-8.152-25.2c-5.112-13.896-11.396-27.441-19.606-39.769
			C355.052,207.072,350.517,214.327,345.661,221.443z M324.79,257.922c0.044,2.026-3.109,2.395-3.15,0.345
			c-0.133-6.535,7.173-6.114,10.227-10.23c1.206-1.652,3.712,0.303,2.497,1.942c-1.177,1.61-2.69,2.559-4.472,3.409
			C328.023,254.285,324.738,255.324,324.79,257.922z M339.547,251.168c-0.617,2.124-2.255,3.779-4.351,4.449
			c-0.964,0.303-1.554-1.182-0.577-1.492c1.75-0.549,2.944-1.817,3.462-3.568C338.374,249.566,339.823,250.21,339.547,251.168z"/>
		<path fill="#FCE0A9" d="M335.39,172.719c-0.561-0.512-1.134-1.017-1.707-1.52c-10.935,22.364-23.465,44.235-38.39,64.167
			c-5.094,6.804-10.649,13.277-16.706,19.134c-0.13,0.199-0.304,0.366-0.529,0.515c-9.396,8.979-20.036,16.447-32.208,21.353
			c0.775,0.058,1.551,0.114,2.303,0.167c1.299,0.121,2.607,0.257,3.906,0.378C292.872,255.33,320.287,215.521,335.39,172.719z"/>
		<path fill="#FFFCE3" d="M331.189,169.074c-1.606-1.358-3.238-2.699-4.898-3.997c-10.73,4.288-22.258,11.468-27.228,22.161
			c-4.631,10.005-2.877,23.396,3.386,32.416c1.613-2.408,3.194-4.833,4.743-7.274c-5.243-8.158-6.998-18.28-2.184-27.133
			c4.978-9.114,14.927-13.495,24.973-13.727C330.384,170.704,330.787,169.89,331.189,169.074z"/>
		<path fill="#FDF5CB" d="M317.971,162.975c-1.375,0.707-2.762,1.502-4.145,2.414c-7.963,5.237-13.754,10.758-17.472,16.697
			c-0.22,0.343-0.419,0.688-0.616,1.034c-0.138,0.241-0.272,0.46-0.397,0.691c-0.776,1.43-1.464,2.874-2.022,4.359
			c-0.032,0.063-0.042,0.13-0.074,0.193c-0.23,0.647-0.452,1.307-0.651,1.97c-0.081,0.239-0.138,0.479-0.209,0.73
			c-0.112,0.381-0.19,0.755-0.279,1.139c-0.11,0.439-0.219,0.877-0.297,1.331c-1.114,5.899-0.805,12.325,0.792,18.722
			c0.048,0.143,0.072,0.282,0.107,0.435c0.104,0.38,0.22,0.749,0.323,1.126c1.229,4.254,3,8.362,5.09,12.154
			c1.146-1.626,2.271-3.257,3.385-4.897c-6.689-9.22-8.666-22.939-4.304-33.516c4.665-11.317,16.518-19.017,27.668-23.618
			c-1.102-0.843-2.218-1.676-3.333-2.508C320.342,161.902,319.156,162.41,317.971,162.975z"/>
		<path fill="#FFFCE3" d="M316.172,158.67c-14.273,5.382-26.509,18.793-29.567,33.807c-2.752,13.538,1.23,26.438,8.513,37.73
			c0.679-0.922,1.328-1.86,1.998-2.797c-2.875-4.948-4.96-10.17-6.191-15.412c-0.088-0.332-0.154-0.659-0.241-0.99
			c-0.043-0.244-0.097-0.501-0.153-0.737c-1.161-5.573-1.389-11.305-0.312-16.881c0.006-0.044,0.025-0.098,0.023-0.155
			c0.288-1.501,0.687-2.987,1.175-4.46l0.012-0.01c0.248-0.759,0.538-1.511,0.853-2.259c0.055-0.139,0.109-0.279,0.176-0.429
			c0.253-0.563,0.519-1.138,0.806-1.709c0.116-0.243,0.244-0.498,0.369-0.729c0.157-0.295,0.326-0.599,0.482-0.894
			c5.038-9.06,13.896-16.687,23.159-21.189c0.92-0.467,1.82-0.881,2.727-1.259c-1.027-0.74-2.067-1.471-3.106-2.202
			C316.732,158.332,316.509,158.538,316.172,158.67z"/>
		<path fill="#FDF5CB" d="M313.389,155.732c-8.279,2.659-18.468,8.446-24.253,15.171c-4.992,5.797-7.071,13.724-8.089,21.157
			c-2.13,15.411,1.474,30.968,9.599,44.111c0.835-1.059,1.652-2.143,2.469-3.226c-8.642-13.015-12.942-27.937-9.103-43.471
			c3.639-14.634,16.089-27.729,30.023-33.354c-0.207-0.144-0.413-0.288-0.608-0.418
			C313.414,155.713,313.402,155.722,313.389,155.732z"/>
		<path fill="#231F20" d="M339.145,194.622c0.016,0.048,0.044,0.086,0.085,0.114c0.668,0.552,1.52,0.791,2.388,0.679
			c0.244-0.044,0.362-0.311,0.224-0.524c-0.692-1.009-1.946-1.443-3.104-1.135c-0.235,0.056-0.291,0.434-0.09,0.542
			C338.812,194.415,338.978,194.529,339.145,194.622z"/>
		<path fill="#FDF5CB" d="M329.188,173.141c-9.148,0.456-18.117,4.422-22.718,12.74c-4.503,8.128-3.012,17.416,1.654,25.012
			c1.919-3.034,3.789-6.108,5.613-9.191c-3.653-3.974-3.749-9.448-0.89-14.173c2.562-4.245,7.285-7.584,12.31-6.474
			C326.507,178.424,327.857,175.795,329.188,173.141z"/>
		<path fill="#50AA33" d="M265.841,144.599c0.409,2.093,2.492,4.146,1.487,6.439c-0.593,1.332-4.721,2.545-4.667,3.653
			c0.011,0.309,2.214,1.778,2.429,2.014c0.984,1.108,1.543,2.336,1.963,3.727c2.069-0.174,4.167-0.23,6.598,0.295
			c4.752,1.036,9.178,3.068,13.571,5.084c1.148,0.531,1.111,1.865,0.462,2.587c-0.396,0.454-1.006,0.671-1.708,0.341
			c-4.926-2.253-9.903-4.548-15.317-5.328c-3.037-0.433-5.751,0.203-8.542,0.499c1.351,3.728,2.189,7.699,1.867,11.682
			c-0.399,5.129-2.416,6.275-5.801,9.55c-9.192,8.906,10.994,16.49,17.876,15.386c0.512-0.084,0.918,0.088,1.216,0.382
			c-0.01-3.896,0.302-7.812,0.998-11.717c1.443-8.087,4.771-15.003,9.553-20.682c5.643-6.759,13.313-11.778,22.312-15.014
			c-12.89-8.583-27.59-17.817-42.788-20.937C266.449,136.48,265.163,141.003,265.841,144.599z"/>
		<path fill="#FFFCE3" d="M314.218,188.331c-2.396,3.963-2.529,8.518,0.375,11.941c3.41-5.848,6.661-11.775,9.807-17.763
			C320.219,181.762,316.322,184.881,314.218,188.331z"/>
		<path fill="#231F20" d="M326.876,216.654c-0.1,0.213,0.144,0.488,0.37,0.418c0.19-0.062,0.368-0.116,0.559-0.179
			c0.045,0.007,0.088,0.013,0.146,0.01c0.852-0.16,1.584-0.665,2.054-1.392c0.134-0.218,0.002-0.476-0.255-0.502
			C328.52,214.875,327.399,215.551,326.876,216.654z"/>
		<path fill="#BC5B52" d="M254.664,165.441c0.231,0.363,0.299,0.827,0.041,1.358c-0.012,0.009-0.012,0.009-0.016,0.031
			c-0.013,0.009-0.013,0.009-0.016,0.032c-1.5,2.958-3.239,5.917-4.346,9.059c-1.302,3.704-0.42,6.988,1.043,10.336
			c0.171-0.088,0.344-0.178,0.515-0.265c0.354-0.166,0.672-0.165,0.966-0.086c0.1-0.213,0.211-0.435,0.355-0.641
			c2.708-4.236,6.11-2.194,7.576-9.109c0.277-1.355-1.282-12.039-1.167-12.124c0,0,0,0-0.01-0.012
			c-0.137,0.002-0.264,0.017-0.397-0.001c-1.794-0.07-1.74-3.161,0.052-3.149c0.137-0.002,0.26,0.004,0.396,0.001
			c0.023,0.003,0.032,0.016,0.045,0.007c1.366,0.053,2.624-0.014,3.854-0.118c-2.327-3.337-9.042-9.506-1.453-11.099
			c2.928-0.616,1.592-0.256,0.645-2.937c-0.314-0.875-0.499-1.708-0.496-2.661c0.045-3.955,1.197-8.18,2.03-12.167
			c-0.042-0.029-0.099-0.026-0.13-0.042c-2.688-0.019-5.363,0.033-8.004,0.158c0.123,0.325,0.125,0.7-0.095,1.121
			C250.599,143.789,250.336,154.285,254.664,165.441z"/>
		<path fill="#FAD488" d="M193.929,208.754c0.211,13.075,3.646,26.064,10.503,37.237c8.061,13.111,20.168,22.852,33.755,29.766
			c1.176-0.361,2.338-0.771,3.476-1.184c-0.028-0.038-0.06-0.054-0.066-0.088c-1.837-3.505-4.691-7.974-4.916-12.026
			c-0.183-3.488,3.042-7.218,4.665-10.092c0.026-0.018,0.051-0.038,0.068-0.068c-2.079-2.869-4.367-6.314-4.682-9.131
			c-0.009-0.092,0.004-0.181-0.005-0.272c-3.12-1.104-6.091-2.594-8.945-4.272c-1.808-1.07-3.592-2.137-4.296-4.228
			c-1.759-5.206,4.214-10.03,7.364-13.486c-0.361-1.097-0.433-2.153,0.286-3.341c-1.353-1.469-2.785-2.7-4.423-3.916
			c-1.227-0.93-2.449-1.801-3.227-3.163c-2.145-3.73,0.939-5.255,1.484-8.672c0.01-0.066,0.038-0.107,0.058-0.162
			c-1.834-1.506-3.421-3.236-4.474-5.422c-2.619-5.457,0.002-11.965,1.761-17.316c1.537-4.689,2.821-10.598,8.689-10.75
			c0.079,0,0.158,0,0.26,0.004c-1.96-4.362-3.96-9.707-1.304-13.745c1.313-1.987,3.412-3.69,5.799-5.191
			c-1.142-1.348-2.157-2.949-2.062-4.525c0.13-1.819,1.806-3.265,3.201-4.264c2.14-1.515,4.625-1.98,6.996-2.974
			c2.405-1,4.427-2.327,7.093-2.549c0.264-0.019,0.499,0.005,0.702,0.091c0.409-0.938,0.82-1.878,1.296-2.807
			c-8.847,0.646-17.351,2.367-25.478,6.241c-2.092,1.419-4.081,2.979-5.948,4.646C203.497,159.183,193.54,184.801,193.929,208.754z"
			/>
		<path opacity="0.5" fill="#FAD488" d="M232.542,136.355c-19.496,16.627-36.201,42.196-38.568,68.196
			c-0.046,1.405-0.066,2.807-0.044,4.203c0.104,6.402,0.992,12.78,2.665,18.938c6.68,19.438,23.789,35.178,39.852,47.149
			c0.579,0.308,1.157,0.618,1.743,0.916c1.176-0.361,2.338-0.771,3.476-1.184c-0.028-0.038-0.06-0.054-0.066-0.088
			c-1.837-3.505-4.691-7.974-4.916-12.026c-0.183-3.488,3.042-7.218,4.665-10.092c0.026-0.018,0.051-0.038,0.068-0.068
			c-2.079-2.869-4.367-6.314-4.682-9.131c-0.009-0.092,0.004-0.181-0.005-0.272c-3.12-1.104-6.091-2.594-8.945-4.272
			c-1.808-1.07-3.592-2.137-4.296-4.228c-1.759-5.206,4.214-10.03,7.364-13.486c-0.361-1.097-0.433-2.153,0.286-3.341
			c-1.353-1.469-2.785-2.7-4.423-3.916c-1.227-0.93-2.449-1.801-3.227-3.163c-2.145-3.73,0.939-5.255,1.484-8.672
			c0.01-0.066,0.038-0.107,0.058-0.162c-1.834-1.506-3.421-3.236-4.474-5.422c-2.619-5.457,0.002-11.965,1.761-17.316
			c1.537-4.689,2.821-10.598,8.689-10.75c0.079,0,0.158,0,0.26,0.004c-1.96-4.362-3.96-9.707-1.304-13.745
			c1.313-1.987,3.412-3.69,5.799-5.191c-1.142-1.348-2.157-2.949-2.062-4.525c0.13-1.819,1.806-3.265,3.201-4.264
			c2.14-1.515,4.625-1.98,6.996-2.974c2.405-1,4.427-2.327,7.093-2.549c0.264-0.019,0.499,0.005,0.702,0.091
			c0.409-0.938,0.82-1.878,1.296-2.807C245.947,132.722,239.129,133.937,232.542,136.355z"/>
		<path fill="#231F20" d="M338.082,250.557c-0.518,1.751-1.712,3.02-3.462,3.568c-0.978,0.311-0.388,1.795,0.577,1.492
			c2.096-0.67,3.734-2.325,4.351-4.449C339.823,250.21,338.374,249.566,338.082,250.557z"/>
		<path fill="#231F20" d="M334.363,249.979c1.215-1.64-1.291-3.595-2.497-1.942c-3.054,4.116-10.36,3.695-10.227,10.23
			c0.041,2.05,3.194,1.682,3.15-0.345c-0.051-2.598,3.234-3.637,5.102-4.534C331.673,252.537,333.186,251.589,334.363,249.979z"/>
		<path fill="#231F20" d="M323.917,244.568c0.172-0.088,0.347-0.199,0.519-0.288c0.044,0.008,0.079,0.001,0.139-0.025
			c0.795-0.313,1.423-0.96,1.735-1.767c0.09-0.225-0.091-0.467-0.345-0.436c-1.23,0.104-2.202,1.005-2.499,2.177
			C323.412,244.449,323.719,244.677,323.917,244.568z"/>
		<path fill="#BC5B52" d="M249.25,142.854c0.307-1.556,0.716-3.107,1.235-4.645c-2.289,0.438-4.26,1.807-6.455,2.61
			c-3.228,1.196-8.533,2.771-5.433,6.799c3.383-1.787,6.962-3.284,9.674-4.669C248.637,142.775,248.954,142.777,249.25,142.854z"/>
		<path fill="#E94C5B" d="M234.99,168.705c4.311,1.187,8.653,4.092,12.178,6.617c1.028-3.221,2.801-6.265,4.339-9.252
			c-2.526-6.715-3.505-13.295-2.781-19.796c-4.499,2.282-9.092,4.573-13.253,7.415C229.833,157.552,232.66,163.607,234.99,168.705z"
			/>
		<path fill="#50AA33" d="M268.799,206.253c-1.193,0.393-4.006,0.765-4.867,1.684c-2.456,2.66-0.613,7.368,3.068,7.658
			c1.359,0.096,1.826,2.104,0.708,2.839c-8.116,5.431-15.637,15.092-1.143,18.994c1.203,0.314,1.736,1.48,1.024,2.546
			c-3.535,5.385,1.938,15.233,8.606,12.406c4.376-4.23,8.493-8.781,12.36-13.563c-6.812-10.714-10.779-23.009-11.232-35.584
			c-0.146,0.148-0.312,0.272-0.52,0.366C274.237,204.699,271.458,205.382,268.799,206.253z"/>
		<path fill="#BC5B52" d="M241.013,200.327c-0.078,4.178,0.848,8.639,1.399,12.862c0.13-0.038,0.248-0.065,0.366-0.095
			c5.44-1.417,10.88-2.834,16.321-4.252c0.103-0.315,0.231-0.648,0.4-0.952c1.541-2.852,4.976-4.142,8.534-5.109
			c-4.656-1.147-9.542-3.132-11.761-4.967c-2.277-1.889-4.042-5.269-4.124-8.436C247.318,191.611,241.108,194.472,241.013,200.327z"
			/>
		<path fill="#FCE0A9" d="M234.046,275.356c-13.813-7.697-25.795-18.44-33.259-32.61c-12.628-23.949-10.248-53.491,1.852-77.16
			c3.844-7.499,9.125-15.195,15.552-21.565c-0.064,0.047-0.115,0.085-0.179,0.132c-17.325,12.746-25.258,31.428-27.113,52.42
			c-1.839,20.642,0.659,43.301,14.285,59.814c5.844,7.074,13.553,13.97,22.26,17.31C229.527,274.5,231.76,274.998,234.046,275.356z"
			/>
		<path fill="#BC5B52" d="M230.801,173.212c-4.173,1.365-3.854,1.899-5.179,5.758c-0.757,2.228-1.438,4.478-2.007,6.744
			c-1.473,5.949-0.11,10.916,5.05,14.68c3.138,2.297,6.671,3.904,9.834,6.183c-0.11-1.027-0.222-2.053-0.333-3.08
			c-0.221-2.053-1.289-5.694-0.428-7.782c0.878-2.119,3.933-3.761,5.713-4.989c1.64-1.121,3.34-2.11,5.078-3.048
			c-1.303-2.892-2.262-5.802-2.042-8.937c-2.457-1.755-4.99-3.375-7.711-4.716C235.534,172.439,234.521,171.985,230.801,173.212z"/>
		<path fill="#E94C5B" d="M236.976,226.686c1.508,3.195,3.028,6.381,4.537,9.576c4.26-2.896,10.228-5.123,12.958-6.403
			c0.06-0.024,0.104-0.019,0.166-0.044c0.094-5.22,4.44-9.171,8.625-12.168c-2.071-1.211-3.732-3.282-4.265-5.539
			c-7.011,1.675-14.833,2.847-21.353,5.664C232.497,219.98,235.004,222.549,236.976,226.686z"/>
		<path fill="#BC5B52" d="M226.96,205.288c-1.081,2.35-1.099,3.63,0.961,5.305c1.995,1.643,3.912,3.127,5.651,4.98
			c1.664-0.823,3.794-1.34,5.737-1.735c-0.157-1.409-0.314-2.817-0.472-4.225c-0.484,0.281-1.095,0.339-1.664-0.108
			c-2.811-2.125-6.295-3.849-9.445-5.899C227.501,204.152,227.245,204.66,226.96,205.288z"/>
		<path fill="#BC5B52" d="M257.642,266.852c5.16-3.149,9.995-6.789,14.542-10.791c-6.226-1.205-10.395-9.728-8.047-16.07
			c-3.84-1.221-7.643-3.161-8.987-6.934c-3.367,1.596-6.661,3.316-9.859,5.244c-1.682,1.015-2.963,1.633-3.914,3.468
			c-1.441,2.799,0.025,4.023,1.608,6.706c3.867,6.549,8.733,12.392,14.221,17.633C257.446,266.326,257.566,266.592,257.642,266.852z
			"/>
		<path fill="#BC5B52" d="M239.006,238.268c-0.048-0.064-0.108-0.119-0.143-0.191c-2.202-4.66-4.592-9.277-6.673-13.986
			c-3.111,3.189-7.513,7.597-3.942,11.117c2.186,2.135,6.305,3.624,9.386,4.676C238.011,239.324,238.486,238.793,239.006,238.268z"
			/>
		<path fill="#E94C5B" d="M240.094,263.266c0.542,3.359,2.892,7.074,4.465,10.062c0.016,0.048,0.013,0.07,0.028,0.118
			c3.621-1.47,7.125-3.147,10.466-5.043c-4.152-3.978-7.995-8.207-11.302-12.914c-0.104-0.139-0.237-0.317-0.341-0.457
			C241.793,257.542,239.655,260.601,240.094,263.266z"/>
	</g>
</g>
</svg>
