<svg version="1.1" xmlns="http://www.w3.org/2000/svg" xmlns:xlink="http://www.w3.org/1999/xlink" viewBox="0 0 768 430" enable-background="new 0 0 768 430" xml:space="preserve">
<g id="Layer_2">
</g>
<g id="Layer_1">
	<g>
		<path d="M427.854,108.633c1.044-0.84,2.382-0.994,3.688-1.137c6.769-0.74,12.665,1.232,17.479,6.044
			c1.995,1.994,4.057,3.867,6.423,5.384c3.1,1.989,5.043,4.757,5.86,8.336c0.042,0.182,0.142,0.351,0.261,0.643
			c0.593-0.192,1.144-0.361,1.687-0.548c21.228-7.268,42.6-14.085,64.232-20.05c18.979-5.233,38.049-10.113,57.279-14.349
			c5.082-1.12,10.165-2.234,15.252-3.337c0.813-0.177,1.645-0.285,2.468-0.418c1.358-0.219,2.623,0,3.834,0.689
			c1.421,0.807,2.793,1.657,3.828,2.954c1.056,1.324,1.072,2.388,0.078,3.739c-0.659,0.895-1.47,1.616-2.54,1.932
			c-2.446,0.722-4.892,1.455-7.368,2.07c-30.88,7.675-61.597,15.954-92.114,24.97c-12.952,3.828-25.788,8.013-38.583,12.328
			c-1.317,0.444-2.437,1.002-3.416,2.068c-1.683,1.83-3.889,3.005-6.117,4.047c-9.234,4.318-18.886,7.191-29.04,8.343
			c-7.306,0.83-14.619,1.058-21.944,0.485c-7.068-0.554-14.069-1.571-20.761-4.058c-1.743-0.648-3.458-1.428-5.074-2.344
			c-1.18-0.668-2.312-1.533-3.229-2.529c-2.908-3.154-2.439-7.695,1.039-10.173c0.786-0.56,1.22-1.206,1.523-2.044
			c0.877-2.43,2.181-4.615,3.831-6.595c1.683-2.019,3.775-3.414,6.323-4.123c0.651-0.181,1.282-0.373,1.666-1.077
			c1.732-3.18,4.325-5.584,7.194-7.701c4.007-2.956,8.422-5.049,13.336-5.978c4.469-0.845,8.707-0.319,12.553,2.303
			C427.578,108.562,427.682,108.575,427.854,108.633z M429.301,110.626c-0.319,0.053-0.437,0.113-0.505,0.077
			c-0.434-0.225-0.859-0.468-1.285-0.711c-3.381-1.926-6.977-2.866-10.884-2.355c-5.196,0.678-9.787,2.819-13.981,5.866
			c-2.602,1.891-4.978,4.039-6.594,6.868c-0.631,1.105-1.438,1.789-2.681,2.066c-2.992,0.671-5.222,2.488-6.877,4.975
			c-1.111,1.671-1.946,3.525-3.028,5.218c-0.652,1.021-0.406,1.856,0.157,2.71c0.721,1.094,1.708,1.94,2.908,2.425
			c1.952,0.788,3.912,1.623,5.945,2.133c6.127,1.539,12.406,2.061,18.693,2.323c7.132,0.296,14.259,0.097,21.319-1.117
			c6.211-1.067,12.296-2.6,18.023-5.312c3.47-1.643,6.786-3.538,9.789-6.12c-0.815-3.423-1.91-6.632-4.97-8.75
			c-2.793-1.934-5.343-4.12-7.747-6.549c-4.73-4.777-10.615-6.292-17.196-5.314c-0.516,0.077-1.023,0.214-1.611,0.34
			C428.979,109.873,429.123,110.209,429.301,110.626z M381.795,134.895c-3.012,2.768-2.32,6.397,0.182,8.5
			c0.857,0.721,1.813,1.375,2.824,1.853c1.861,0.876,3.753,1.726,5.707,2.36c5.967,1.937,12.127,2.859,18.371,3.307
			c8.073,0.579,16.126,0.398,24.141-0.728c9.659-1.358,18.843-4.306,27.585-8.617c1.667-0.822,3.356-1.721,4.769-2.904
			c1.249-1.046,2.6-1.635,4.08-2.134c8.561-2.885,17.06-5.958,25.677-8.663c21.405-6.722,42.979-12.881,64.665-18.634
			c12.764-3.385,25.562-6.633,38.358-9.895c3.043-0.776,6.134-1.358,9.201-2.032c1.146-0.251,2.123-2.065,1.489-2.968
			c-1.227-1.752-2.995-2.794-5.023-3.405c-0.179-0.053-0.394-0.013-0.586,0.018c-1.407,0.221-2.828,0.385-4.217,0.688
			c-6.332,1.386-12.659,2.79-18.981,4.227c-22.798,5.18-45.441,10.971-67.833,17.695c-16.927,5.082-33.771,10.438-50.602,15.657
			c-0.994,2.329-2.552,3.991-4.618,5.154c-1.969,1.107-3.924,2.259-5.974,3.196c-9.074,4.143-18.71,5.924-28.592,6.392
			c-8.613,0.408-17.206,0.008-25.73-1.415c-3.352-0.559-6.651-1.299-9.771-2.698C384.662,138.835,382.699,137.522,381.795,134.895z"
			/>
		<path fill="#EDDBC8" d="M455.332,120.923c-2.793-1.934-5.343-4.12-7.747-6.549c-1.602-1.618-3.335-2.86-5.184-3.759
			c0.821,0.683,1.651,1.378,2.278,2.318c0.982,1.472-0.784,2.65-1.667,3.926c-0.1,0.294,0,0.687,0.194,0.883
			c1.656,1.379,1.847,3.62,0.411,5.108c0.861,0.389,1.688,0.878,1.855,2.187c-0.327-0.114-0.556-0.143-0.709-0.246
			c0.366,2.668-2.853,4.714-5.091,6.004c-0.195,0.099-0.392,0.491-0.49,0.785c-0.49,1.276-0.195,2.846-1.276,3.729
			c-8.833,7.263-20.61,4.81-31.014,5.006c-5.987,0.196-11.876-1.08-17.569-3.337c-2.155-0.898-4.888-1.881-6.012-4.074
			c-0.448,0.899-0.201,1.659,0.311,2.436c0.721,1.094,1.708,1.94,2.908,2.425c1.953,0.788,3.912,1.623,5.945,2.133
			c6.127,1.539,12.406,2.061,18.693,2.323c7.132,0.296,14.259,0.097,21.319-1.117c6.211-1.067,12.296-2.6,18.023-5.312
			c3.47-1.643,6.786-3.538,9.789-6.12C459.486,126.25,458.392,123.042,455.332,120.923z"/>
		<path fill="#FFEAD5" d="M389.324,136.979c5.693,2.257,11.582,3.533,17.569,3.337c10.403-0.197,22.181,2.257,31.014-5.006
			c1.081-0.883,0.786-2.453,1.276-3.729c0.099-0.294,0.295-0.687,0.49-0.785c2.238-1.29,5.457-3.336,5.091-6.004
			c-0.012-0.008-0.025-0.016-0.036-0.024c-1.535-1.243-3.357-1.83-5.246-2.174c-0.733-0.134-1.537,0.111-2.309,0.18
			c-0.494,0.043-0.997,0.481-1.623-0.089c2.694-1.872,5.248-1.064,7.777,0.039c0.096,0.042,0.193,0.084,0.29,0.128
			c1.436-1.488,1.245-3.729-0.411-5.108c-0.194-0.197-0.294-0.589-0.194-0.883c0.883-1.276,2.649-2.454,1.667-3.926
			c-0.627-0.94-1.457-1.636-2.278-2.318c-3.611-1.757-7.66-2.202-12.013-1.556c-0.516,0.077-1.023,0.214-1.611,0.34
			c0.202,0.474,0.346,0.81,0.523,1.227c-0.319,0.053-0.437,0.113-0.505,0.077c-0.434-0.225-0.859-0.468-1.285-0.711
			c-3.381-1.926-6.977-2.866-10.884-2.355c-5.196,0.678-9.787,2.819-13.981,5.866c-2.602,1.891-4.978,4.039-6.594,6.868
			c-0.631,1.105-1.438,1.789-2.681,2.066c-2.992,0.671-5.222,2.488-6.877,4.975c-1.111,1.671-1.946,3.524-3.028,5.218
			c-0.059,0.093-0.108,0.185-0.154,0.274C384.437,135.099,387.169,136.081,389.324,136.979z M429.819,135.348
			c-1.429,0.19-2.679-0.388-3.95-0.351c-1.249,0.035-2.494,0.201-4.004,0.333C423.963,133.511,428.428,133.537,429.819,135.348z
			 M395.924,129.92c0.709-1.562,2.03-2.498,3.483-3.257c2.248-1.176,4.681-1.762,7.181-2.043c1.461-0.164,2.937-0.209,4.406-0.261
			c0.451-0.017,0.907,0.121,1.36,0.188c-0.002,0.121-0.004,0.242-0.007,0.362c-0.51,0.072-1.021,0.139-1.529,0.216
			c-2.616,0.402-5.249,0.725-7.842,1.245c-1.231,0.247-2.411,0.819-3.568,1.345c-1.083,0.493-1.996,1.241-2.674,2.252
			c-0.2,0.298-0.484,0.542-0.946,0.701C395.831,130.418,395.822,130.144,395.924,129.92z"/>
		<path fill="#04ABC1" d="M608.844,94.338c-0.067-0.097-0.138-0.192-0.209-0.285l-2.168,0.418c0.015,0.122,0.029,0.244,0.043,0.366
			c-48.037,9.851-95.105,23.18-141.404,39.271c-0.006,0.002-0.015-0.006-0.026-0.02c-1.242,0.469-2.477,0.903-3.681,1.473
			c0.034,0.05,0.068,0.101,0.103,0.151c-0.519,0.409-1.005,0.869-1.561,1.217c-2.552,1.594-5.264,2.857-8.095,3.87
			c-4.92,1.759-9.998,2.911-15.135,3.764c-4.551,0.755-9.131,1.361-13.719,1.853c-4.997,0.536-10.014,0.427-15.023,0.018
			c-6.286-0.516-12.46-1.669-18.539-3.311c-1.837-0.497-3.616-1.253-5.358-2.032c-0.728-0.325-1.324-0.984-1.917-1.557
			c-0.211-0.205-0.375-0.479-0.346-0.791c-0.577-0.687-0.878-1.565-1.199-2.434c-1.55,2.499-0.726,5.326,1.368,7.085
			c0.857,0.721,1.813,1.375,2.824,1.853c1.861,0.876,3.753,1.726,5.707,2.36c5.967,1.937,12.127,2.859,18.371,3.307
			c8.073,0.579,16.126,0.398,24.141-0.728c9.659-1.358,18.843-4.306,27.585-8.617c1.667-0.822,3.356-1.721,4.769-2.904
			c1.249-1.046,2.6-1.635,4.08-2.134c8.561-2.885,17.06-5.958,25.677-8.663c21.405-6.722,42.979-12.881,64.665-18.634
			c12.764-3.385,25.562-6.633,38.358-9.895c3.043-0.776,6.134-1.358,9.201-2.032C608.5,97.055,609.478,95.241,608.844,94.338z"/>
		<path fill="#01B5CC" d="M381.948,138.341c2.746,2.587,6.193,3.55,9.666,4.385c8.29,1.994,16.675,3.259,25.237,3.104
			c6.109-0.11,12.152-0.82,18.159-1.897c4.591-0.823,9.156-1.749,13.63-3.106c4.019-1.22,7.769-3.029,11.481-4.943
			c0.369-0.19,0.745-0.369,1.119-0.554c0.052,0.077,0.105,0.154,0.157,0.231c1.204-0.57,2.438-1.004,3.681-1.473
			c-0.038-0.045-0.105-0.164-0.187-0.28c0.456-0.75,1.275-0.962,2.028-1.227c6.482-2.284,12.943-4.628,19.463-6.804
			c16.395-5.472,33.027-10.152,49.679-14.758c12.252-3.389,24.523-6.71,36.837-9.863c9.701-2.484,19.479-4.668,29.395-6.156
			c1.388-0.208,2.772-0.443,4.157-0.665c0.005,0.045,0.011,0.091,0.016,0.137l2.168-0.418c-1.215-1.581-2.9-2.543-4.814-3.12
			c-0.179-0.053-0.394-0.013-0.586,0.018c-1.407,0.221-2.828,0.385-4.217,0.688c-6.332,1.386-12.659,2.79-18.981,4.227
			c-22.798,5.18-45.441,10.971-67.833,17.695c-16.927,5.082-33.771,10.438-50.602,15.657c-0.994,2.329-2.552,3.991-4.618,5.154
			c-1.969,1.107-3.924,2.259-5.974,3.196c-9.074,4.143-18.71,5.924-28.592,6.392c-8.613,0.408-17.206,0.008-25.73-1.415
			c-3.352-0.559-6.651-1.299-9.771-2.698c-2.254-1.011-4.217-2.324-5.121-4.952c-0.491,0.453-0.883,0.928-1.186,1.415
			c0.321,0.869,0.622,1.748,1.199,2.434C381.819,138.614,381.862,138.48,381.948,138.341z"/>
		<path d="M412.348,124.909c-0.51,0.072-1.021,0.139-1.529,0.216c-2.616,0.402-5.249,0.725-7.842,1.245
			c-1.231,0.247-2.411,0.819-3.568,1.345c-1.083,0.493-1.996,1.241-2.674,2.252c-0.2,0.298-0.484,0.542-0.946,0.701
			c0.043-0.25,0.034-0.524,0.136-0.749c0.709-1.562,2.03-2.498,3.483-3.257c2.248-1.176,4.681-1.762,7.181-2.043
			c1.461-0.164,2.937-0.209,4.406-0.261c0.451-0.017,0.907,0.121,1.36,0.188C412.353,124.667,412.351,124.788,412.348,124.909z"/>
		<path d="M435.551,122.685c2.694-1.872,5.248-1.064,7.777,0.039c0.957,0.418,1.96,0.86,2.146,2.314
			c-0.352-0.124-0.59-0.146-0.745-0.27c-1.535-1.243-3.357-1.83-5.246-2.174c-0.733-0.134-1.537,0.111-2.309,0.18
			C436.68,122.817,436.177,123.255,435.551,122.685z"/>
		<path d="M421.865,135.33c2.098-1.819,6.562-1.793,7.954,0.018c-1.429,0.19-2.679-0.388-3.95-0.351
			C424.62,135.032,423.375,135.198,421.865,135.33z"/>
		<path d="M606.51,94.838c-48.037,9.851-95.105,23.18-141.404,39.271c-0.025,0.009-0.106-0.148-0.213-0.3
			c0.456-0.75,1.275-0.962,2.028-1.227c6.482-2.284,12.943-4.628,19.463-6.804c16.395-5.472,33.027-10.152,49.679-14.758
			c12.252-3.389,24.523-6.71,36.837-9.863c9.701-2.484,19.479-4.668,29.395-6.156c1.388-0.208,2.772-0.443,4.157-0.665
			C606.471,94.502,606.49,94.67,606.51,94.838z"/>
		<path d="M461.501,135.713c-0.519,0.409-1.005,0.869-1.561,1.217c-2.552,1.594-5.264,2.857-8.095,3.87
			c-4.92,1.759-9.998,2.911-15.133,3.764c-4.553,0.755-9.133,1.361-13.721,1.853c-4.997,0.536-10.014,0.427-15.023,0.018
			c-6.286-0.516-12.46-1.669-18.539-3.311c-1.837-0.497-3.616-1.253-5.358-2.032c-0.728-0.325-1.324-0.984-1.917-1.557
			c-0.298-0.289-0.501-0.716-0.207-1.192c2.746,2.587,6.193,3.55,9.666,4.385c8.29,1.994,16.675,3.259,25.237,3.104
			c6.109-0.11,12.152-0.82,18.159-1.897c4.591-0.823,9.156-1.749,13.63-3.106c4.019-1.22,7.769-3.029,11.481-4.943
			c0.369-0.19,0.745-0.369,1.119-0.554C461.328,135.458,461.414,135.586,461.501,135.713z"/>
	</g>
	<g>
		<path d="M260.703,202.08c-1.433-0.265-2.861-0.561-4.299-0.79c-2.424-0.387-4.433-1.58-6.199-3.198
			c-2.799-2.566-3.435-5.842-2.921-9.445c0.554-3.884,1.883-7.535,3.57-11.042c2.002-4.161,4.192-8.233,6.242-12.373
			c1.503-3.039,2.963-6.1,4.346-9.193c1.29-2.89,2.07-5.95,2.446-9.083c0.652-5.44-1.439-9.828-5.532-13.289
			c-1.797-1.519-3.736-2.884-5.685-4.209c-3.659-2.487-7.425-4.821-11.042-7.366c-1.961-1.38-3.813-2.958-5.532-4.634
			c-4.421-4.312-5.635-9.561-3.976-15.437c0.556-1.97,1.498-3.833,2.282-5.737c0.184-0.445,0.441-0.859,0.785-1.516
			c-0.68,0.04-1.183,0.054-1.682,0.103c-2.819,0.275-5.607,0.125-8.314-0.739c-0.928-0.296-1.839-0.71-2.677-1.208
			c-2.582-1.534-3.521-4.115-2.612-6.977c0.484-1.526,1.334-2.839,2.373-4.042c2.453-2.843,5.532-4.86,8.824-6.562
			c5.485-2.837,11.302-4.757,17.323-6.086c7.026-1.549,14.115-2.581,21.327-2.526c1.521,0.012,3.038,0.22,4.559,0.277
			c0.665,0.024,1.37,0.011,1.997-0.182c6.777-2.08,13.671-3.625,20.706-4.488c7.435-0.913,14.893-1.178,22.38-0.701
			c7.771,0.496,15.44,1.577,22.961,3.611c5.71,1.544,11.224,3.601,16.364,6.562c3.9,2.245,7.467,4.909,10.446,8.331
			c4.737,5.439,7.167,11.774,7.581,18.936c0.434,7.489-1.048,14.676-3.424,21.714c-3.316,9.826-8.396,18.721-14.427,27.107
			c-7.604,10.576-16.695,19.734-26.711,28.008c-1.594,1.314-3.218,2.591-4.832,3.879c-0.221,0.176-0.471,0.313-0.708,0.469
			c0.069,0.084,0.137,0.17,0.206,0.256c2.244-0.172,4.486-0.349,6.73-0.515c3.531-0.259,7.059-0.567,10.594-0.751
			c9.194-0.479,18.393-0.525,27.584-0.004c12.526,0.713,24.98,2.042,37.209,4.968c10.891,2.606,21.363,6.352,31.159,11.848
			c2.877,1.615,5.578,3.485,8.119,5.608c2.292,1.914,3.894,4.317,5.121,6.949c0.835,1.79,0.106,3.57-0.879,5.152
			c-1.602,2.567-3.981,4.325-6.449,5.966c-0.98,0.653-2.012,1.231-3.037,1.812c-1.078,0.611-1.567,1.498-1.65,2.748
			c-0.419,6.279-0.822,12.562-1.361,18.832c-0.547,6.369-1.178,12.73-1.899,19.081c-0.753,6.643-1.613,13.273-2.509,19.897
			c-0.974,7.21-1.947,14.422-3.088,21.604c-1.528,9.608-3.155,19.203-4.858,28.784c-1.108,6.239-2.49,12.43-3.624,18.666
			c-0.605,3.332-2.018,6.152-4.145,8.784c-4.398,5.443-9.796,9.642-15.727,13.219c-7.444,4.489-15.566,7.221-24.01,9.093
			c-9.179,2.036-18.48,2.754-27.848,2.285c-21.871-1.097-41.596-8.152-59.055-21.467c-3.725-2.84-6.202-6.331-7.087-10.971
			c-1.233-6.467-2.651-12.9-3.821-19.379c-1.633-9.043-3.182-18.103-4.63-27.177c-1.139-7.134-2.106-14.296-3.084-21.454
			c-0.898-6.575-1.79-13.153-2.538-19.746c-0.824-7.278-1.548-14.571-2.192-21.866c-0.523-5.928-0.89-11.868-1.258-17.807
			c-0.062-1.015-0.425-1.562-1.313-2.018c-2.85-1.464-5.569-3.152-7.935-5.332c-0.749-0.691-1.339-1.554-1.987-2.351
			c-0.931-1.148-0.756-2.601-1.037-3.924c-0.54-2.543,0.387-4.623,2.175-6.385c0.765-0.755,1.552-1.489,2.329-2.23
			C260.799,202.315,260.75,202.197,260.703,202.08z M312.376,63.433c-8.657,0.081-16.957,0.882-25.158,2.658
			c-9.268,2.006-18.176,5.017-26.584,9.427c-7.199,3.775-13.712,8.488-19.224,14.498c-3.288,3.585-5.977,7.555-7.311,12.313
			c-1.477,5.274-0.513,9.971,3.528,13.793c1.851,1.75,3.838,3.389,5.921,4.854c3.417,2.404,6.991,4.583,10.44,6.941
			c2.026,1.386,4.042,2.82,5.883,4.435c4.6,4.031,6.812,9.08,5.866,15.252c-0.311,2.032-0.789,4.055-1.389,6.022
			c-1.324,4.344-3.446,8.352-5.504,12.378c-1.969,3.851-4.001,7.672-5.899,11.56c-1.794,3.673-3.247,7.47-3.833,11.565
			c-0.726,5.08,1.692,8.201,5.775,9.756c3.68,1.401,7.647,1.851,11.618,1.446c6.326-0.645,12.516-2.019,18.543-4.008
			c7.598-2.507,15.109-5.283,22.707-7.79c6.393-2.11,12.098-5.407,17.363-9.513c2.675-2.087,5.256-4.296,7.839-6.497
			c10.577-9.014,20.023-19.046,27.612-30.745c6.066-9.352,10.846-19.258,13.115-30.261c1.082-5.252,1.449-10.531,0.591-15.834
			c-1.21-7.479-5.003-13.462-10.871-18.179c-5.528-4.443-11.876-7.271-18.585-9.363C334.169,64.821,323.21,63.603,312.376,63.433z
			 M277.27,288.737c0.194,1.369,0.364,2.626,0.552,3.883c1.048,7.049,2.029,14.108,3.17,21.144
			c1.236,7.613,2.613,15.207,3.947,22.805c0.476,2.711,0.999,5.412,1.518,8.116c0.205,1.067,0.692,1.514,1.614,1.582
			c3.9,0.29,7.771-0.037,11.603-0.715c6.002-1.061,11.888-2.619,17.693-4.478c18.649-5.968,36.738-13.324,54.344-21.893
			c18.317-8.913,35.676-19.367,51.707-31.969c3.637-2.859,7.161-5.856,10.187-9.384c0.328-0.384,0.625-0.906,0.682-1.396
			c1.005-8.396,2.092-16.783,2.905-25.199c0.831-8.563,1.386-17.154,2.05-25.734c0.049-0.617,0.007-1.24,0.007-1.968
			c-0.339,0.106-0.575,0.157-0.792,0.253c-8.784,3.927-17.975,6.572-27.355,8.593c-1.238,0.266-2.338,0.607-3.063,1.738
			c-0.205,0.319-0.567,0.539-0.862,0.8c-5.904,5.231-12.287,9.829-18.896,14.115c-9.137,5.926-18.818,10.848-28.733,15.31
			c-15.467,6.961-31.185,13.273-47.508,17.972c-10.358,2.982-20.851,5.291-31.615,6.208
			C279.405,288.605,278.384,288.66,277.27,288.737z M433.039,285.77c-0.165,0-0.233-0.021-0.26,0.004
			c-0.322,0.298-0.65,0.593-0.956,0.909c-5.643,5.862-11.776,11.145-18.425,15.851c-16.129,11.42-33.166,21.272-50.949,29.87
			c-15.398,7.444-31.299,13.461-48.011,17.229c-6.952,1.567-13.94,2.84-21.367,2.45c0.632,0.529,1.096,0.942,1.585,1.322
			c9.475,7.344,19.985,12.656,31.518,15.901c8.205,2.308,16.574,3.682,25.094,4.201c6.558,0.399,13.092,0.209,19.571-0.742
			c9.12-1.339,17.97-3.749,26.425-7.479c2.517-1.109,4.999-2.296,7.465-3.513c6.911-3.407,12.636-8.271,17.479-14.234
			c0.618-0.759,1.004-1.526,1.172-2.465c0.433-2.418,0.924-4.825,1.348-7.245c1.445-8.227,2.936-16.446,4.286-24.688
			c1.138-6.935,2.112-13.896,3.143-20.849C432.478,290.128,432.745,287.953,433.039,285.77z M401.434,234.412
			c-0.676,0-0.999-0.034-1.312,0.004c-5.459,0.68-10.903,1.518-16.378,2.017c-7.635,0.698-15.284,1.349-22.941,1.652
			c-14.314,0.567-28.609,0.183-42.847-1.611c-7.607-0.957-15.177-2.119-22.637-3.902c-8.08-1.931-16.056-4.202-23.636-7.683
			c-0.253-0.116-0.533-0.178-1.027-0.335c0.999,18.699,2.971,37.132,5.456,55.628c1.503-0.115,2.866-0.21,4.227-0.329
			c2.497-0.217,5.016-0.303,7.483-0.704c5.184-0.843,10.366-1.729,15.503-2.818c16.947-3.593,33.426-8.734,49.415-15.401
			c12.539-5.227,24.484-11.642,36.184-18.517c3.601-2.114,7.104-4.394,10.643-6.615
			C400.127,235.443,400.639,235.006,401.434,234.412z M294.618,194.925c0.016,0.059,0.03,0.119,0.045,0.177
			c0.229-0.031,0.466-0.034,0.688-0.095c15.604-4.301,31.532-6.568,47.665-7.486c9.438-0.536,18.884-0.467,28.324,0.009
			c2.848,0.144,5.704,0.284,8.533,0.618c5.659,0.67,11.312,1.402,16.949,2.241c8.903,1.326,17.663,3.3,26.189,6.23
			c4.277,1.471,8.494,3.089,12.462,5.291c1.428,0.792,2.75,1.723,3.789,3.008c0.912,1.133,0.983,2.116,0.294,3.393
			c-0.864,1.601-2.271,2.584-3.859,3.293c-3.453,1.543-6.875,3.18-10.421,4.482c-15.229,5.594-31.039,8.544-47.153,9.954
			c-5.484,0.479-10.99,0.74-16.49,1.005c-13.194,0.638-26.356,0.106-39.482-1.315c-7.087-0.769-14.114-1.941-21.067-3.519
			c-6.996-1.588-13.962-3.313-20.581-6.15c-2.479-1.063-4.889-2.3-7.256-3.592c-0.967-0.53-1.872-1.308-2.567-2.167
			c-1.407-1.735-1.106-3.511,0.7-4.814c3.364-2.428,7.044-4.289,10.834-5.948c0.525-0.231,1.046-0.473,1.569-0.707
			c-0.665-0.052-1.267,0.101-1.868,0.256c-5.949,1.527-11.889,3.105-18.101,3.143c-0.395,0.003-0.871,0.201-1.165,0.467
			c-1.239,1.123-2.474,2.259-3.604,3.485c-0.506,0.552-0.952,1.292-1.101,2.014c-0.462,2.241-0.375,4.418,1.474,6.133
			c0.863,0.802,1.68,1.662,2.602,2.391c3.378,2.671,7.163,4.671,11.07,6.422c9.968,4.463,20.472,7.143,31.158,9.166
			c6.52,1.236,13.084,2.196,19.702,2.73c5.145,0.416,10.292,0.901,15.448,1.079c15.013,0.516,29.992-0.087,44.935-1.668
			c6.649-0.702,13.282-1.479,19.863-2.662c12.901-2.317,25.525-5.548,37.324-11.445c3.621-1.811,7.063-3.907,9.675-7.1
			c0.357-0.437,0.631-0.994,0.775-1.541c0.387-1.461,0.144-2.866-0.84-4.027c-1.329-1.572-2.656-3.167-4.143-4.584
			c-2.396-2.288-5.219-4.018-8.103-5.62c-9.558-5.309-19.759-8.959-30.358-11.505c-12.227-2.937-24.683-4.28-37.21-4.992
			c-9.191-0.524-18.392-0.482-27.586-0.002c-3.535,0.187-7.064,0.485-10.594,0.756c-2.646,0.205-5.287,0.524-7.937,0.639
			c-1.029,0.045-1.866,0.288-2.725,0.824c-4.095,2.562-8.415,4.673-12.965,6.31c-4.528,1.628-9.051,3.275-13.576,4.915
			C295.49,194.577,295.056,194.755,294.618,194.925z M416.979,216.978c1.691-0.527,3.236-1.011,4.781-1.488
			c4.516-1.395,8.824-3.307,13.126-5.233c1.212-0.543,2.38-1.18,3.14-2.355c0.708-1.096,0.709-1.235-0.284-2.067
			c-1.823-1.529-3.895-2.652-6.038-3.651c-5.268-2.453-10.748-4.326-16.331-5.894c-11.195-3.14-22.651-4.879-34.179-6.165
			c-7.481-0.833-15.005-1.119-22.529-1.171c-11.912-0.084-23.776,0.631-35.589,2.238c-9.503,1.292-18.887,3.129-28.132,5.676
			c-7.511,2.07-14.746,4.824-21.468,8.813c-0.585,0.349-1.132,0.773-1.642,1.227c-0.528,0.469-0.519,1.033-0.041,1.555
			c0.364,0.398,0.707,0.842,1.146,1.139c1.217,0.824,2.43,1.68,3.732,2.353c4.065,2.105,8.338,3.71,12.721,5.024
			c0.366,0.109,0.743,0.185,1.142,0.279c1.573-1.817,3.548-2.874,5.814-3.354c1.148-0.243,2.328-0.379,3.5-0.462
			c2.988-0.212,5.818-0.87,8.33-2.605c0.969-0.67,1.988-1.268,2.99-1.891c2.657-1.649,5.47-2.971,8.614-3.226
			c2.587-0.21,5.218-0.359,7.794-0.134c4.026,0.352,7.943-0.074,11.852-0.902c5.754-1.218,11.483-1.512,17.183,0.34
			c1.609,0.522,3.292,0.549,4.968,0.346c2.536-0.306,5.062-0.721,7.605-0.933c3.63-0.303,7.257-0.298,10.876,0.317
			c2.981,0.505,5.783,1.548,8.568,2.638c3.153,1.232,6.419,1.777,9.78,1.923c1.57,0.068,3.165,0.104,4.696,0.412
			C408.386,210.79,413.372,212.493,416.979,216.978z M415.146,217.521c-0.53-0.443-0.906-0.75-1.272-1.066
			c-3.671-3.178-8.048-4.608-12.779-5.138c-2.684-0.3-5.429-0.298-8.047-0.878c-2.954-0.658-5.811-1.771-8.684-2.763
			c-2.717-0.937-5.502-1.488-8.359-1.628c-3.891-0.191-7.756,0.119-11.605,0.741c-2.918,0.471-5.848,0.756-8.762-0.16
			c-4.765-1.496-9.589-1.377-14.433-0.425c-4.2,0.828-8.399,1.607-12.719,1.243c-1.713-0.146-3.436-0.204-5.156-0.241
			c-4.102-0.087-7.85,1.08-11.301,3.267c-1.328,0.842-2.657,1.684-4.008,2.49c-1.842,1.099-3.851,1.705-5.981,1.927
			c-1.759,0.181-3.532,0.289-5.271,0.592c-1.688,0.294-3.294,0.884-4.605,2.255c0.523,0.162,0.936,0.308,1.357,0.421
			c8.407,2.246,16.914,3.961,25.549,5.084c8.103,1.054,16.235,1.721,24.393,1.934c14.272,0.372,28.51-0.195,42.695-1.943
			c7.416-0.915,14.771-2.135,22.033-3.899C410.467,218.776,412.725,218.153,415.146,217.521z M287.289,348.398
			c0.015,0.344-0.007,0.591,0.042,0.824c0.412,1.973,0.786,3.954,1.288,5.903c0.176,0.684,0.559,1.394,1.046,1.899
			c1.499,1.555,3.007,3.123,4.67,4.492c3.651,3.006,7.654,5.517,11.739,7.892c14.03,8.161,29.229,12.445,45.366,13.392
			c8.21,0.481,16.415,0.125,24.541-1.372c7.22-1.331,14.286-3.167,20.978-6.242c9.157-4.209,17.201-9.888,23.386-17.971
			c0.382-0.497,0.79-1.052,0.932-1.64c0.468-1.958,0.823-3.942,1.211-5.919c0.039-0.2,0.006-0.416,0.006-0.911
			c-0.477,0.506-0.75,0.771-0.995,1.061c-2.171,2.553-4.438,5.008-7.067,7.103c-4.495,3.578-9.533,6.219-14.723,8.621
			c-9.479,4.392-19.421,7.229-29.744,8.651c-6.934,0.957-13.918,0.962-20.908,0.46c-7.477-0.538-14.84-1.766-22.047-3.769
			C311.991,366.7,298.513,359.737,287.289,348.398z M433.886,279.397c-2.062,1.932-3.797,3.681-5.659,5.281
			c-9.352,8.034-19.499,14.975-30.005,21.38c-19.022,11.594-39.126,20.992-59.905,28.962c-10.456,4.01-20.984,7.829-31.893,10.466
			c-5.646,1.365-11.327,2.503-17.188,2.258c-0.074-0.003-0.152,0.086-0.375,0.22c0.761,0.779,1.481,1.557,2.251,2.28
			c0.185,0.174,0.532,0.237,0.808,0.246c2.26,0.061,4.527,0.239,6.777,0.11c6.149-0.354,12.167-1.579,18.146-3.016
			c15.393-3.698,30.121-9.229,44.384-16.047c20.098-9.608,39.265-20.771,57.08-34.189c5.284-3.979,10.015-8.558,14.487-13.413
			c0.256-0.28,0.547-0.616,0.611-0.964C433.61,281.876,433.712,280.762,433.886,279.397z M407.333,233.221
			c-1.396,0.231-2.469,0.361-3.515,0.603c-0.445,0.104-0.877,0.394-1.246,0.686c-1.19,0.942-2.26,2.066-3.536,2.868
			c-4.868,3.057-9.756,6.086-14.714,8.997c-15.338,9-31.336,16.611-48.194,22.322c-13.408,4.543-27.035,8.297-40.99,10.771
			c-6.007,1.065-12.04,1.898-18.156,1.952c-0.183,0.001-0.364,0.082-0.688,0.159c0.267,1.965,0.528,3.891,0.799,5.885
			c0.505,0,0.891,0.032,1.271-0.005c1.958-0.187,3.918-0.344,5.867-0.596c9.269-1.202,18.402-3.072,27.372-5.703
			c20.843-6.116,40.866-14.297,60.259-24.043c12.043-6.053,23.197-13.471,33.522-22.137
			C405.976,234.484,406.533,233.946,407.333,233.221z M270.107,68.975c-0.028-0.094-0.057-0.188-0.085-0.28
			c-0.487,0-0.975-0.003-1.461,0c-6.907,0.058-13.693,1.075-20.416,2.582c-5.625,1.261-11.062,3.065-16.207,5.69
			c-2.857,1.458-5.547,3.164-7.8,5.484c-1.071,1.103-1.986,2.316-2.529,3.767c-0.861,2.299-0.24,4.202,1.905,5.399
			c1.057,0.589,2.23,1.04,3.405,1.331c2.85,0.704,5.756,0.5,8.653,0.312c0.696-0.045,1.007-0.508,1.362-0.987
			c2.173-2.934,4.683-5.555,7.408-7.981c7.166-6.375,15.322-11.105,24.198-14.65C269.067,69.432,269.585,69.198,270.107,68.975z"/>
		<path fill="#D8E1E7" d="M276.584,144.78c0.818-0.873,1.942-1.189,3.01-1.605c5.031-1.964,10.136-3.756,15.082-5.917
			c22.96-10.025,45.812-20.295,68.483-30.963c0.755-0.355,1.489-0.754,2.246-1.107c0.179-0.084,0.382-0.115,0.582-0.153l8.742-4.685
			c-0.053-1.553-0.199-3.109-0.451-4.666c-1.21-7.479-5.003-13.462-10.871-18.179c-5.528-4.443-11.876-7.271-18.585-9.363
			c-10.651-3.322-21.61-4.54-32.444-4.709c-8.657,0.081-16.957,0.882-25.158,2.658c-9.268,2.006-18.176,5.017-26.584,9.427
			c-7.199,3.775-13.712,8.488-19.224,14.498c-3.288,3.585-5.977,7.555-7.311,12.313c-1.477,5.274-0.513,9.971,3.528,13.793
			c1.851,1.75,3.838,3.389,5.921,4.854c3.417,2.404,6.991,4.583,10.44,6.941c2.026,1.386,4.042,2.82,5.883,4.435
			c4.6,4.031,6.812,9.08,5.866,15.252c-0.052,0.343-0.111,0.686-0.174,1.028l11.23-3.604
			C276.725,144.975,276.654,144.895,276.584,144.78z"/>
		<path fill="#CDD6DB" d="M374.728,100.35l-8.742,4.685c0.059-0.011,0.117-0.022,0.174-0.036c0.047,0.095,0.095,0.19,0.143,0.285
			c-0.638,0.401-1.248,0.861-1.919,1.195c-5.104,2.537-10.155,5.195-15.346,7.542c-19.118,8.637-38.268,17.204-57.445,25.709
			c-3.54,1.571-7.259,2.735-10.894,4.088c-1.013,0.375-2.023,0.758-3.036,1.132c-0.282,0.104-0.578,0.307-0.869,0.08l-11.23,3.604
			c-0.304,1.686-0.717,3.359-1.215,4.994c-1.324,4.344-3.446,8.352-5.504,12.378c-1.969,3.851-4.001,7.672-5.899,11.56
			c-1.794,3.673-3.247,7.47-3.833,11.565c-0.726,5.08,1.692,8.201,5.775,9.756c3.68,1.401,7.647,1.851,11.618,1.446
			c6.326-0.645,12.516-2.019,18.543-4.008c7.598-2.507,15.109-5.283,22.707-7.79c6.393-2.11,12.098-5.407,17.363-9.513
			c2.675-2.087,5.256-4.296,7.839-6.497c10.577-9.014,20.023-19.046,27.612-30.745c6.066-9.352,10.846-19.258,13.115-30.261
			C374.449,107.809,374.856,104.085,374.728,100.35z M266.251,186.896c-0.236-0.985,0.309-1.437,0.66-1.896
			c1.433-1.868,2.87-3.738,4.395-5.531c2.894-3.4,5.849-6.75,8.784-10.114c0.243-0.279,0.531-0.518,0.801-0.776
			c0.098,0.112,0.145,0.144,0.159,0.188c0.014,0.042,0.016,0.11-0.009,0.141c-4.719,5.833-9.441,11.665-14.167,17.492
			C266.762,186.539,266.589,186.63,266.251,186.896z M280.824,180.514c-0.066,0.088-0.253,0.084-0.472,0.149
			c-0.118-0.604,0.267-0.97,0.532-1.324c3.001-4.009,5.866-8.136,9.081-11.969c4.419-5.267,9.106-10.309,13.684-15.44
			c0.216-0.244,0.486-0.438,0.732-0.656c0.102,0.093,0.204,0.185,0.306,0.277C296.413,160.944,288.321,170.485,280.824,180.514z
			 M295.098,173.168c-0.062,0.079-0.254,0.053-0.418,0.082c2.71-5.199,27.248-32.953,30.874-34.761
			C315.213,149.902,304.6,161.046,295.098,173.168z M309.749,167.751c-0.064,0.048-0.181,0.026-0.413,0.05
			c0.915-2.8,15.993-21.531,19.051-23.739c0.038,0.03,0.084,0.055,0.109,0.093c0.02,0.032,0.032,0.097,0.013,0.12
			c-6.066,7.668-12.134,15.334-18.208,22.996C310.152,167.461,309.945,167.607,309.749,167.751z M317.537,170.792
			c-0.211-0.872,0.329-1.176,0.635-1.535c3.249-3.818,6.455-7.673,9.8-11.405c3.673-4.098,7.476-8.079,11.237-12.097
			c0.29-0.309,0.522-0.819,1.333-0.674C332.838,153.692,325.499,162.392,317.537,170.792z"/>
		<path fill="#FFFFFF" d="M426.916,233.948c-0.295-0.687-1.275-1.079-2.062-1.079c-4.515,0.099-8.637,2.062-13.152,2.945
			c-2.446,0.471-4.83,0.942-7.185,1.386c-5.147,4.301-10.61,8.181-16.239,11.831c-9.137,5.926-18.818,10.848-28.733,15.31
			c-15.467,6.961-31.185,13.273-47.508,17.972c-10.358,2.982-20.851,5.291-31.615,6.208c-1.017,0.085-2.038,0.14-3.152,0.217
			c0.194,1.369,0.364,2.626,0.552,3.883c1.048,7.049,2.029,14.108,3.17,21.144c1.236,7.613,2.613,15.207,3.947,22.805
			c0.476,2.711,0.999,5.412,1.518,8.116c0.205,1.067,0.692,1.514,1.614,1.582c3.9,0.29,7.771-0.037,11.602-0.715
			c6.003-1.061,11.889-2.619,17.694-4.478c18.649-5.968,36.738-13.324,54.344-21.893c18.06-8.789,35.186-19.074,51.027-31.439
			c1.88-14.208,3.531-28.393,5.16-42.997C428.289,241.114,428.289,237.385,426.916,233.948z"/>
		<path fill="#EDEDED" d="M439.247,223.532c-0.339,0.106-0.575,0.157-0.792,0.253c-8.784,3.927-17.975,6.572-27.355,8.593
			c-1.238,0.266-2.338,0.607-3.063,1.738c-0.204,0.319-0.567,0.539-0.862,0.8c-0.874,0.775-1.762,1.534-2.656,2.284
			c2.354-0.443,4.738-0.915,7.185-1.386c4.516-0.884,8.638-2.847,13.152-2.945c0.786,0,1.767,0.393,2.062,1.079
			c1.373,3.437,1.373,7.166,0.981,10.797c-1.629,14.604-3.28,28.789-5.16,42.997c0.226-0.177,0.453-0.352,0.68-0.529
			c3.637-2.859,7.161-5.856,10.187-9.384c0.328-0.384,0.625-0.906,0.682-1.396c1.005-8.396,2.092-16.783,2.905-25.199
			c0.831-8.563,1.386-17.154,2.05-25.734C439.289,224.883,439.247,224.26,439.247,223.532z"/>
		<path fill="#82D1E2" d="M415.825,333.077c2.199-12.546,4.078-24.738,5.762-36.847c-2.64,2.203-5.366,4.306-8.188,6.303
			c-16.129,11.42-33.166,21.272-50.949,29.87c-15.398,7.444-31.299,13.461-48.011,17.229c-6.952,1.567-13.94,2.84-21.367,2.45
			c0.632,0.529,1.096,0.942,1.585,1.322c9.475,7.344,19.985,12.656,31.518,15.901c8.205,2.308,16.574,3.682,25.094,4.201
			c6.558,0.399,13.092,0.209,19.571-0.742c9.12-1.339,17.97-3.749,26.425-7.479c2.517-1.109,4.999-2.296,7.465-3.513
			c2.427-1.195,4.705-2.571,6.854-4.113c1.054-5.777,2.02-11.666,3.164-17.516C415.235,337.692,415.432,335.532,415.825,333.077z"/>
		<path fill="#7BC4D5" d="M432.779,285.773c-0.322,0.298-0.65,0.593-0.956,0.909c-3.248,3.375-6.659,6.556-10.236,9.548
			c-1.684,12.108-3.562,24.301-5.762,36.847c-0.394,2.455-0.59,4.615-1.079,7.067c-1.145,5.85-2.11,11.738-3.164,17.516
			c3.969-2.846,7.483-6.252,10.626-10.121c0.618-0.759,1.004-1.526,1.172-2.465c0.433-2.418,0.924-4.825,1.348-7.245
			c1.445-8.227,2.936-16.446,4.286-24.688c1.138-6.935,2.112-13.896,3.143-20.849c0.321-2.164,0.589-4.339,0.883-6.522
			C432.874,285.77,432.806,285.749,432.779,285.773z"/>
		<path fill="#82D1E2" d="M324.547,239.249c-14.035-1.569-27.383-3.828-41.025-7.753c-4.501-1.359-8.635-3.306-12.783-5.396
			c1.023,18.171,2.955,36.096,5.371,54.082c1.503-0.115,2.866-0.21,4.227-0.329c2.497-0.217,5.016-0.303,7.483-0.704
			c5.184-0.843,10.366-1.729,15.503-2.818c16.947-3.593,33.426-8.734,49.415-15.401c12.539-5.227,24.484-11.642,36.184-18.517
			c1.992-1.168,3.951-2.389,5.905-3.621c-2.205,0.289-4.423,0.515-6.68,0.655C366.947,240.722,345.944,241.703,324.547,239.249z"/>
		<path fill="#7BC4D5" d="M401.434,234.412c-0.676,0-0.999-0.034-1.312,0.004c-5.459,0.68-10.903,1.518-16.378,2.017
			c-7.635,0.698-15.284,1.349-22.941,1.652c-14.314,0.567-28.609,0.183-42.847-1.611c-7.607-0.957-15.177-2.119-22.637-3.902
			c-8.08-1.931-16.056-4.202-23.635-7.683c-0.254-0.116-0.534-0.178-1.028-0.335c0.028,0.516,0.056,1.031,0.085,1.546
			c4.147,2.091,8.281,4.037,12.783,5.396c13.642,3.925,26.991,6.184,41.025,7.753c21.396,2.454,42.4,1.473,63.6,0.197
			c2.257-0.141,4.475-0.366,6.68-0.655c1.579-0.997,3.154-2.002,4.737-2.994C400.127,235.443,400.639,235.006,401.434,234.412z"/>
		<path fill="#FFFFFF" d="M294.618,194.925c0.438-0.17,0.873-0.348,1.313-0.509c4.524-1.64,9.047-3.287,13.576-4.915
			c4.55-1.636,8.87-3.747,12.965-6.31c0.859-0.537,1.695-0.779,2.725-0.824c2.65-0.115,5.29-0.434,7.937-0.639
			c3.53-0.271,7.059-0.57,10.594-0.756c9.194-0.48,18.395-0.522,27.586,0.002c12.528,0.712,24.984,2.055,37.21,4.992
			c10.6,2.546,20.801,6.196,30.358,11.505c2.884,1.602,5.706,3.333,8.103,5.62c1.486,1.417,2.813,3.012,4.143,4.584
			c0.983,1.161,1.227,2.565,0.84,4.027c-0.145,0.547-0.418,1.104-0.775,1.541c-2.611,3.193-6.054,5.29-9.675,7.1
			c-11.799,5.897-24.423,9.128-37.324,11.445c-6.581,1.184-13.214,1.96-19.863,2.662c-14.943,1.581-29.921,2.184-44.935,1.668
			c-5.156-0.178-10.303-0.663-15.448-1.079c-6.617-0.534-13.182-1.494-19.702-2.73c-10.686-2.023-21.19-4.703-31.158-9.166
			c-3.907-1.751-7.692-3.751-11.07-6.422c-0.921-0.729-1.738-1.588-2.602-2.391c-1.849-1.715-1.936-3.892-1.474-6.133
			c0.148-0.722,0.594-1.461,1.101-2.014c1.131-1.227,2.365-2.363,3.604-3.485c0.294-0.267,0.771-0.464,1.165-0.467
			c6.212-0.037,12.152-1.615,18.101-3.143c0.602-0.155,1.203-0.308,1.868-0.256c-0.523,0.234-1.044,0.476-1.569,0.707
			c-3.79,1.659-7.47,3.52-10.834,5.948c-1.806,1.304-2.106,3.08-0.7,4.814c0.695,0.859,1.6,1.637,2.567,2.167
			c2.367,1.292,4.777,2.528,7.256,3.592c6.619,2.837,13.585,4.562,20.581,6.15c6.954,1.577,13.98,2.75,21.067,3.519
			c13.126,1.422,26.288,1.953,39.482,1.315c5.5-0.265,11.006-0.525,16.49-1.005c16.114-1.41,31.925-4.36,47.153-9.954
			c3.546-1.302,6.968-2.938,10.421-4.482c1.589-0.709,2.995-1.692,3.859-3.293c0.689-1.277,0.618-2.26-0.294-3.393
			c-1.039-1.285-2.361-2.217-3.789-3.008c-3.968-2.202-8.185-3.82-12.462-5.291c-8.526-2.93-17.286-4.904-26.189-6.23
			c-5.637-0.839-11.29-1.57-16.949-2.241c-2.829-0.334-5.685-0.475-8.533-0.618c-9.44-0.477-18.885-0.545-28.324-0.009
			c-16.133,0.918-32.06,3.185-47.665,7.486c-0.222,0.061-0.459,0.064-0.688,0.095C294.647,195.044,294.633,194.983,294.618,194.925z
			"/>
		<path fill="#CCCCCC" d="M416.979,216.978c-3.607-4.484-8.594-6.188-13.875-7.251c-1.531-0.308-3.126-0.343-4.696-0.412
			c-3.361-0.146-6.627-0.691-9.78-1.923c-2.785-1.09-5.587-2.133-8.568-2.638c-3.619-0.615-7.247-0.62-10.876-0.317
			c-2.543,0.212-5.069,0.627-7.605,0.933c-1.676,0.203-3.359,0.177-4.968-0.346c-5.7-1.853-11.429-1.558-17.183-0.34
			c-3.909,0.828-7.826,1.253-11.852,0.902c-2.576-0.225-5.207-0.076-7.794,0.134c-3.145,0.254-5.958,1.577-8.614,3.226
			c-1.002,0.624-2.021,1.221-2.99,1.891c-2.512,1.736-5.342,2.394-8.33,2.605c-1.172,0.083-2.352,0.219-3.5,0.462
			c-2.266,0.48-4.241,1.536-5.814,3.354c-0.398-0.095-0.776-0.17-1.142-0.279c-4.383-1.314-8.656-2.918-12.721-5.024
			c-1.302-0.673-2.515-1.528-3.732-2.353c-0.438-0.297-0.782-0.74-1.146-1.139c-0.478-0.521-0.487-1.085,0.041-1.555
			c0.51-0.454,1.057-0.878,1.642-1.227c6.723-3.99,13.958-6.743,21.468-8.813c9.245-2.546,18.629-4.383,28.132-5.676
			c11.813-1.607,23.677-2.322,35.589-2.238c7.523,0.053,15.047,0.338,22.529,1.171c11.528,1.285,22.984,3.024,34.179,6.165
			c5.583,1.567,11.063,3.441,16.331,5.894c2.144,0.999,4.215,2.122,6.038,3.651c0.993,0.832,0.992,0.971,0.284,2.067
			c-0.76,1.176-1.928,1.812-3.14,2.355c-4.302,1.926-8.61,3.838-13.126,5.233C420.216,215.967,418.671,216.45,416.979,216.978z"/>
		<path fill="#FFEAD5" d="M415.146,217.521c-2.422,0.632-4.68,1.255-6.955,1.811c-7.262,1.765-14.617,2.984-22.033,3.899
			c-14.185,1.748-28.423,2.315-42.695,1.943c-8.158-0.213-16.29-0.88-24.393-1.934c-8.635-1.123-17.142-2.838-25.549-5.084
			c-0.421-0.113-0.834-0.259-1.357-0.421c1.311-1.371,2.917-1.961,4.605-2.255c1.738-0.303,3.511-0.411,5.271-0.592
			c2.13-0.222,4.139-0.828,5.981-1.927c1.351-0.807,2.68-1.648,4.008-2.49c3.451-2.188,7.199-3.354,11.301-3.267
			c1.72,0.037,3.442,0.095,5.156,0.241c4.32,0.364,8.52-0.416,12.719-1.243c4.844-0.952,9.668-1.071,14.433,0.425
			c2.914,0.916,5.844,0.631,8.762,0.16c3.849-0.622,7.714-0.932,11.605-0.741c2.857,0.141,5.642,0.691,8.359,1.628
			c2.873,0.992,5.729,2.105,8.684,2.763c2.618,0.581,5.363,0.579,8.047,0.878c4.731,0.529,9.108,1.96,12.779,5.138
			C414.24,216.771,414.616,217.078,415.146,217.521z M357.399,215.947c0.223-0.013,0.455,0.01,0.668-0.045
			c0.994-0.26,1.986-0.535,2.976-0.816c3.646-1.042,7.247-1.154,10.783,0.458c0.327,0.148,0.708,0.177,1.178,0.289
			C371.266,212.399,361.322,212.525,357.399,215.947z M337.903,219.033c-4.623-4.228-11.95-2.746-15.319,1.083
			c0.567-0.156,0.928-0.217,1.257-0.354c0.634-0.265,1.26-0.553,1.872-0.866c3.62-1.854,7.278-1.717,10.972-0.24
			C337.079,218.812,337.497,218.909,337.903,219.033z M401.491,218.807c0.179-1.01-0.336-1.262-0.816-1.476
			c-1.828-0.815-3.735-1.242-5.725-0.799c-1.671,0.37-3.317,0.854-4.968,1.313c-0.236,0.064-0.437,0.258-0.653,0.394
			c0.593,0.225,1.112,0.197,1.621,0.113c1.015-0.168,2.035-0.319,3.031-0.565c2.086-0.512,4.081-0.258,6.041,0.551
			C400.451,218.515,400.907,218.621,401.491,218.807z"/>
		<path fill="#FFFFFF" d="M369.963,374.182c-6.934,0.957-13.918,0.962-20.908,0.46c-7.477-0.538-14.84-1.766-22.047-3.769
			c-15.017-4.173-28.496-11.136-39.719-22.475c0.015,0.344-0.007,0.591,0.042,0.824c0.412,1.973,0.786,3.954,1.288,5.903
			c0.176,0.684,0.559,1.394,1.046,1.899c1.499,1.555,3.007,3.123,4.67,4.492c3.651,3.006,7.654,5.517,11.739,7.892
			c14.03,8.161,29.229,12.445,45.366,13.392c8.21,0.481,16.415,0.125,24.541-1.372c7.22-1.331,14.286-3.167,20.978-6.242
			c4.497-2.067,8.725-4.49,12.598-7.377c0.632-2.825,1.201-5.702,1.742-8.611c-3.653,2.47-7.576,4.474-11.591,6.332
			C390.228,369.922,380.286,372.759,369.963,374.182z"/>
		<path fill="#EDEDED" d="M420.344,357.216c0.382-0.497,0.79-1.052,0.932-1.64c0.468-1.958,0.823-3.942,1.211-5.919
			c0.039-0.2,0.006-0.416,0.006-0.911c-0.477,0.506-0.75,0.771-0.995,1.061c-2.171,2.553-4.438,5.008-7.067,7.103
			c-1.018,0.809-2.062,1.568-3.132,2.289c-0.541,2.909-1.11,5.786-1.742,8.611C413.567,364.818,417.196,361.329,420.344,357.216z"/>
		<path fill="#04ABC1" d="M428.227,284.679c-1.872,1.606-3.774,3.17-5.706,4.695c-0.23,1.726-0.465,3.452-0.701,5.179
			c3.902-3.275,7.516-6.862,10.976-10.617c0.256-0.28,0.547-0.616,0.611-0.964c0.204-1.096,0.306-2.21,0.479-3.574
			C431.823,281.329,430.089,283.078,428.227,284.679z"/>
		<path fill="#01B5CC" d="M398.222,306.059c-19.022,11.594-39.126,20.992-59.905,28.962c-10.456,4.01-20.984,7.829-31.893,10.466
			c-5.646,1.365-11.327,2.503-17.188,2.258c-0.074-0.003-0.152,0.086-0.375,0.22c0.761,0.779,1.481,1.557,2.251,2.28
			c0.185,0.174,0.532,0.237,0.808,0.246c2.26,0.061,4.527,0.239,6.777,0.11c6.149-0.354,12.167-1.579,18.146-3.016
			c15.393-3.698,30.121-9.229,44.384-16.047c20.098-9.608,39.265-20.771,57.08-34.189c1.198-0.902,2.366-1.837,3.512-2.796
			c0.236-1.727,0.471-3.453,0.701-5.179C414.799,295.47,406.625,300.936,398.222,306.059z"/>
		<path fill="#01B5CC" d="M384.322,246.374c-15.338,9-31.336,16.611-48.194,22.322c-13.408,4.543-27.035,8.297-40.99,10.771
			c-6.007,1.065-12.04,1.898-18.156,1.952c-0.183,0.001-0.364,0.082-0.688,0.159c0.267,1.965,0.528,3.891,0.799,5.885
			c0.505,0,0.891,0.032,1.271-0.005c1.958-0.187,3.918-0.344,5.867-0.596c9.269-1.202,18.402-3.072,27.372-5.703
			c20.843-6.116,40.866-14.297,60.259-24.043c10.794-5.426,20.874-11.948,30.282-19.482c-1.604,0.288-3.198,0.558-4.795,0.799
			C393.039,241.132,388.707,243.799,384.322,246.374z"/>
		<path fill="#04ABC1" d="M407.333,233.221c-1.396,0.231-2.469,0.361-3.515,0.603c-0.445,0.104-0.877,0.394-1.246,0.686
			c-1.19,0.942-2.26,2.066-3.536,2.868c-0.562,0.353-1.124,0.705-1.688,1.057c1.597-0.241,3.191-0.511,4.795-0.799
			c1.089-0.87,2.169-1.756,3.24-2.654C405.976,234.484,406.533,233.946,407.333,233.221z"/>
		<path fill="#CDD6DB" d="M270.107,68.975c-0.522,0.223-1.041,0.457-1.568,0.667c-8.876,3.545-17.032,8.275-24.198,14.65
			c-2.726,2.426-5.235,5.047-7.408,7.981c-0.355,0.479-0.666,0.941-1.362,0.987c-2.897,0.188-5.803,0.392-8.653-0.312
			c-1.175-0.291-2.348-0.742-3.405-1.331c-2.146-1.197-2.766-3.1-1.905-5.399c0.543-1.451,1.458-2.665,2.529-3.767
			c2.252-2.321,4.942-4.026,7.8-5.484c5.145-2.625,10.583-4.429,16.207-5.69c6.723-1.507,13.509-2.524,20.416-2.582
			c0.487-0.004,0.975,0,1.461,0C270.051,68.788,270.079,68.881,270.107,68.975z"/>
		<path d="M366.303,105.284c-0.638,0.401-1.248,0.861-1.919,1.195c-5.104,2.537-10.155,5.195-15.346,7.542
			c-19.118,8.637-38.268,17.204-57.445,25.709c-3.54,1.571-7.259,2.735-10.894,4.088c-1.013,0.375-2.023,0.758-3.036,1.132
			c-0.351,0.13-0.722,0.414-1.08-0.17c0.818-0.873,1.942-1.189,3.01-1.605c5.031-1.964,10.136-3.756,15.082-5.917
			c22.96-10.025,45.812-20.295,68.483-30.963c0.755-0.355,1.489-0.754,2.246-1.107c0.231-0.107,0.503-0.128,0.755-0.189
			C366.207,105.094,366.255,105.189,366.303,105.284z"/>
		<path d="M325.553,138.489c-10.339,11.413-20.953,22.557-30.455,34.679c-0.062,0.079-0.254,0.053-0.418,0.082
			C297.39,168.052,321.927,140.297,325.553,138.489z"/>
		<path d="M304.686,151.551c-8.273,9.393-16.365,18.934-23.862,28.963c-0.066,0.088-0.253,0.084-0.472,0.149
			c-0.118-0.604,0.267-0.97,0.532-1.324c3.001-4.009,5.866-8.136,9.081-11.969c4.419-5.267,9.106-10.309,13.684-15.44
			c0.216-0.244,0.486-0.438,0.732-0.656C304.482,151.366,304.584,151.458,304.686,151.551z"/>
		<path d="M340.542,145.081c-7.705,8.611-15.043,17.311-23.005,25.711c-0.211-0.872,0.329-1.176,0.635-1.535
			c3.249-3.818,6.455-7.673,9.8-11.405c3.673-4.098,7.476-8.079,11.237-12.097C339.499,145.447,339.731,144.937,340.542,145.081z"/>
		<path d="M309.336,167.801c0.915-2.8,15.993-21.531,19.051-23.739c0.038,0.03,0.085,0.055,0.109,0.093
			c0.02,0.032,0.032,0.097,0.013,0.12c-6.066,7.668-12.134,15.334-18.208,22.996c-0.149,0.189-0.356,0.335-0.553,0.479
			C309.684,167.799,309.568,167.777,309.336,167.801z"/>
		<path d="M266.251,186.896c-0.236-0.985,0.309-1.437,0.66-1.896c1.433-1.868,2.87-3.738,4.395-5.531
			c2.894-3.4,5.849-6.75,8.784-10.114c0.243-0.279,0.531-0.518,0.801-0.776c0.098,0.112,0.145,0.144,0.159,0.188
			c0.014,0.042,0.016,0.11-0.009,0.141c-4.719,5.833-9.441,11.665-14.167,17.492C266.762,186.539,266.589,186.63,266.251,186.896z"
			/>
		<path d="M357.399,215.947c3.922-3.422,13.867-3.548,15.604-0.115c-0.469-0.111-0.851-0.14-1.178-0.289
			c-3.536-1.612-7.137-1.5-10.783-0.458c-0.989,0.282-1.981,0.556-2.976,0.816C357.854,215.958,357.622,215.934,357.399,215.947z"/>
		<path d="M337.903,219.033c-0.407-0.124-0.825-0.222-1.218-0.378c-3.694-1.477-7.352-1.614-10.972,0.24
			c-0.612,0.313-1.237,0.602-1.872,0.866c-0.329,0.138-0.69,0.198-1.257,0.354C325.954,216.287,333.28,214.806,337.903,219.033z"/>
		<path d="M401.491,218.807c-0.584-0.186-1.04-0.292-1.469-0.469c-1.96-0.809-3.955-1.062-6.041-0.551
			c-0.996,0.246-2.017,0.397-3.031,0.565c-0.509,0.084-1.028,0.111-1.621-0.113c0.217-0.136,0.417-0.329,0.653-0.394
			c1.65-0.46,3.297-0.943,4.968-1.313c1.989-0.443,3.896-0.017,5.725,0.799C401.155,217.545,401.67,217.797,401.491,218.807z"/>
	</g>
</g>
</svg>
