<svg version="1.1" id="Layer_2" xmlns="http://www.w3.org/2000/svg" xmlns:xlink="http://www.w3.org/1999/xlink" viewBox="0 0 768 430" enable-background="new 0 0 768 430" xml:space="preserve">
<g>
	<g>
		<g>
			<path fill="#D6D4D4" d="M373.718,91.452c0,0,6.56,10.113,6.288,12.026c-0.275,1.914-3.14,6.56-3.14,6.56s4.626-0.215,5.599,0
				c3.28,1.162,4.88,24.257,3.514,25.896c-0.937,0.796-7.067,3.624-7.067,3.624s6.059,1.434,6.287,3.007
				c1.27,8.746-20.774,56.578-2.46,76.53c-44.024-18.039-26.579-56.575-27.06-68.604c-0.547-13.666-13.667-37.172-16.673-38.812
				c-3.007-1.64,18.859-30.886,18.859-30.886L373.718,91.452z"/>
			<path fill="#828181" d="M383.767,219.812l-1.132-0.465c-35.949-14.73-31.178-42.831-28.327-59.621
				c0.637-3.752,1.187-6.993,1.099-9.225c-0.55-13.713-13.54-36.952-16.532-38.583c-0.14-0.077-0.323-0.237-0.394-0.564
				c-0.85-3.896,18.348-29.632,19.167-30.726l0.155-0.208l16.146,10.884c0.677,1.043,6.607,10.255,6.327,12.214
				c-0.23,1.617-2.187,5.011-2.911,6.226c0.718-0.028,2.069-0.074,3.217-0.074c0.997,0,1.632,0.033,1.943,0.101
				c0.833,0.293,1.532,1.567,2.172,3.903c1.777,6.472,2.74,20.94,1.492,22.436c-0.795,0.681-4.815,2.599-6.464,3.371
				c1.787,0.474,5.541,1.631,5.744,3.045c0.366,2.514-1.138,8.134-3.042,15.251c-4.999,18.675-12.552,46.897,0.514,61.134
				L383.767,219.812z M357.927,81.164c-5.633,7.551-19.569,27.069-18.914,30.075c0.03,0.135,0.083,0.179,0.123,0.199
				c3.045,1.661,16.261,25.189,16.815,39.041c0.091,2.291-0.463,5.557-1.106,9.34c-2.795,16.457-7.454,43.889,26.914,58.57
				c-12.189-14.708-4.793-42.342,0.135-60.755c1.889-7.056,3.381-12.629,3.031-15.031c-0.146-1.012-3.806-2.242-6.077-2.78
				l-0.771-0.183l0.72-0.332c2.108-0.974,6.287-2.973,7.003-3.583c0.906-1.095,0.271-14.969-1.633-21.909
				c-0.762-2.781-1.452-3.4-1.794-3.522c-0.152-0.031-0.617-0.08-1.793-0.08c-1.633,0-3.681,0.094-3.702,0.095l-0.517,0.025
				l0.272-0.442c0.028-0.045,2.839-4.619,3.1-6.455c0.19-1.324-3.601-7.759-6.213-11.792L357.927,81.164z"/>
		</g>
		<g>
			<path fill="#333232" d="M383.3,112.729c0.229-0.191,0.727-0.149,0.586-0.672c-0.428-1.106-0.905-1.836-1.422-2.02
				c-0.973-0.215-5.599,0-5.599,0s2.865-4.646,3.14-6.56c0.131-0.927-1.342-3.78-2.895-6.475
				c-6.752,1.603-20.946,5.887-36.684,16.083c1.745,2.174,4.383,6.518,6.979,11.729C355.563,120.103,371.432,112.023,383.3,112.729z
				"/>
			<path fill="#282727" d="M347.29,125.198l-0.129-0.26c-2.451-4.92-5.113-9.396-6.948-11.681l-0.189-0.236l0.254-0.165
				c15.658-10.145,29.76-14.454,36.77-16.119l0.198-0.047l0.102,0.177c3.107,5.391,2.974,6.338,2.927,6.65
				c-0.23,1.617-2.187,5.011-2.911,6.226c0.718-0.028,2.069-0.074,3.217-0.074c0.997,0,1.632,0.033,1.943,0.101
				c0.61,0.214,1.128,0.927,1.618,2.188l0.05,0.13l0.087,0.237c0.099,0.294,0.188,0.495,0.254,0.783l-1.141-0.1l-0.108-0.007
				c-0.478-0.028-0.975-0.043-1.477-0.043c-11.603,0-26.448,7.576-34.266,12.094L347.29,125.198z M340.827,113.153
				c1.813,2.332,4.344,6.595,6.692,11.28c7.929-4.558,22.683-12.021,34.288-12.021c0.475,0,0.943,0.013,1.398,0.038
				c0.511,0.049,0.581,0.03,0.374-0.426c-0.504-1.25-0.932-1.632-1.206-1.729c-0.152-0.031-0.617-0.08-1.793-0.08
				c-1.633,0-3.681,0.094-3.702,0.095l-0.517,0.025l0.272-0.442c0.028-0.045,2.839-4.619,3.1-6.455
				c0.056-0.395-0.23-1.716-2.757-6.123C369.971,98.998,356.17,103.263,340.827,113.153z"/>
		</g>
		<g>
			<path fill="#333232" d="M378.911,139.558c0,0,6.131-2.828,7.067-3.624c0.475-0.57,0.59-3.734,0.402-7.667
				c-7.156,0.475-19.676,2.107-34.204,7.503c1.668,4.509,2.937,9.021,3.363,12.917c7.269-2.407,19.383-5.763,29.704-5.492
				c-0.005-0.226-0.019-0.441-0.045-0.63C384.97,140.991,378.911,139.558,378.911,139.558z"/>
			<path fill="#282727" d="M355.304,149.052l-0.037-0.335c-0.391-3.586-1.518-7.91-3.346-12.852l-0.095-0.256l0.256-0.095
				c14.21-5.28,26.486-7.004,34.281-7.521l0.278-0.018l0.013,0.277c0.1,2.075,0.254,6.994-0.467,7.856
				c-0.795,0.681-4.815,2.599-6.463,3.371c1.786,0.474,5.54,1.631,5.743,3.045c0.027,0.18,0.043,0.39,0.051,0.663l0.008,0.289
				l-0.289-0.008c-10.048-0.265-21.731,2.871-29.611,5.479L355.304,149.052z M352.528,135.931c1.733,4.726,2.824,8.892,3.243,12.391
				c7.839-2.575,19.265-5.602,29.188-5.407c-0.008-0.109-0.018-0.214-0.033-0.312c-0.146-1.012-3.806-2.242-6.077-2.78l-0.771-0.183
				l0.72-0.332c2.108-0.974,6.287-2.973,7.003-3.583c0.279-0.342,0.518-2.751,0.32-7.169
				C378.397,129.091,366.4,130.811,352.528,135.931z"/>
		</g>
		<g>
			<path fill="#333232" d="M353.059,170.251c6.534-1.555,17.097-3.597,26.702-3.341c1.119-4.513,2.276-8.715,3.241-12.366
				c-6.003,0.031-16.155,0.588-28.097,3.28C354.312,161.398,353.524,165.642,353.059,170.251z"/>
			<path fill="#282727" d="M352.748,170.606l0.039-0.384c0.385-3.814,0.991-7.375,1.523-10.517c0.112-0.662,0.221-1.305,0.325-1.927
				l0.031-0.181l0.179-0.041c11.783-2.656,21.814-3.253,28.156-3.286l0.356-0.002l-0.09,0.345c-0.268,1.007-0.547,2.056-0.837,3.143
				c-0.749,2.792-1.593,5.954-2.404,9.219l-0.052,0.213l-0.219-0.006c-9.453-0.254-19.804,1.708-26.633,3.333L352.748,170.606z
				 M355.145,158.05c-0.094,0.567-0.194,1.148-0.295,1.747c-0.515,3.028-1.095,6.446-1.479,10.099
				c6.806-1.602,16.902-3.479,26.178-3.264c0.795-3.195,1.622-6.284,2.353-9.017c0.256-0.962,0.506-1.895,0.745-2.795
				C376.348,154.873,366.582,155.488,355.145,158.05z"/>
		</g>
		<g>
			<path fill="#333232" d="M362.197,202.437c3.886-0.715,8.41-1.687,13.304-2.99c-0.239-2.841-0.228-5.795-0.026-8.804
				c-5.17,1.479-11.752,3.105-18.322,4.031C358.438,197.325,360.092,199.926,362.197,202.437z"/>
			<path fill="#282727" d="M362.089,202.734l-0.102-0.123c-2.028-2.421-3.739-5.053-5.081-7.819l-0.164-0.337l0.371-0.053
				c5.519-0.778,11.67-2.132,18.286-4.024l0.375-0.107l-0.026,0.388c-0.21,3.124-0.201,6.072,0.026,8.764l0.019,0.228l-0.222,0.059
				c-4.367,1.164-8.851,2.172-13.326,2.996L362.089,202.734z M357.563,194.891c1.273,2.558,2.866,4.994,4.741,7.248
				c4.333-0.802,8.674-1.776,12.906-2.898c-0.201-2.545-0.212-5.312-0.033-8.23C368.828,192.812,362.906,194.117,357.563,194.891z"
				/>
		</g>
		<g>
			<path fill="#333232" d="M353.908,188.961c4.961-0.411,12.941-1.33,22.206-3.348c0.377-3.034,0.888-6.076,1.479-9.064
				c-6.614,1.609-16.092,3.515-24.86,3.818C352.869,183.201,353.228,186.084,353.908,188.961z"/>
			<path fill="#282727" d="M353.695,189.252l-0.054-0.229c-0.638-2.7-1.035-5.609-1.181-8.645l-0.014-0.277l0.276-0.009
				c8.81-0.305,18.351-2.241,24.803-3.811l0.417-0.101l-0.084,0.418c-0.629,3.189-1.125,6.232-1.477,9.046l-0.022,0.193l-0.19,0.041
				c-9.246,2.015-17.198,2.936-22.241,3.354L353.695,189.252z M353.021,180.63c0.15,2.816,0.52,5.519,1.098,8.039
				c5.003-0.423,12.753-1.334,21.747-3.282c0.334-2.649,0.797-5.496,1.376-8.473C370.843,178.455,361.61,180.3,353.021,180.63z"/>
		</g>
	</g>
	<g>
		<g>
			<path fill="#212020" d="M476.038,356.074c9.679-0.505,19.524,9.294,16.782,13.049c-1.912,2.62-9.472,4.7-14.425,4.669
				c-4.1-0.023-14.692-2.515-15.699-4.669C460.715,364.882,468.286,356.475,476.038,356.074z"/>
			<path fill="#3D3D3D" d="M471.3,366.399c3.397-2.717,4.975-6.442,5.226-10.336c-0.16,0.001-0.327,0.001-0.487,0.011
				c-7.211,0.373-14.262,7.674-13.615,12.106C465.525,368.216,468.412,368.05,471.3,366.399z"/>
			<path fill="#353330" d="M478.502,374.081h-0.111c-3.739-0.022-14.814-2.393-15.954-4.836c-0.677-1.453-0.354-3.416,0.919-5.528
				c2.242-3.73,7.312-7.652,12.661-7.931c0.25-0.013,0.495-0.019,0.741-0.019c6.802,0,13.829,4.836,16.125,9.354
				c0.861,1.698,0.919,3.144,0.166,4.173C491.082,371.99,483.611,374.081,478.502,374.081z M476.758,356.341
				c-0.236,0-0.471,0.008-0.707,0.018c-5.153,0.266-10.041,4.051-12.206,7.655c-1.167,1.941-1.483,3.718-0.89,4.993
				c0.908,1.942,11.13,4.475,15.44,4.498h0.106c4.871,0,12.246-2.026,14.082-4.55c0.782-1.068,0.314-2.533-0.211-3.573
				C490.197,361.107,483.249,356.341,476.758,356.341z"/>
		</g>
		<g>
			<path fill="#D6D4D4" d="M475.031,208.335c13.914-6.024,26.678,6.025,26.106,31.842c-0.576,25.818-13.175,41.342-14.06,51.492
				c-0.57,6.598,3.732,10.042-3.153,22.14c-3.3,5.797-3.97,22.948-3.014,26.196c0.954,3.253,3.587,5.164,1.673,9.95
				c-1.911,4.778,2.486,10.063,1.341,11.785c-1.149,1.719-16.595,2.528-17.429-0.504c-0.529-1.923,2.582-4.23,0.6-8.988
				c-1.655-3.97-1.423-7.008,1.146-11.092c4.782-7.602-0.457-18.397,2.632-25.82c1.778-4.274-6.604-8.418-3.778-17.977
				c1.91-6.479-16.831-31.174-11.857-49.344C460.21,229.85,464.223,213.015,475.031,208.335z"/>
			<path fill="#FFFFFF" d="M490.106,211.023c3.007,2.339,5.316,5.028,7.474,7.791c-4.675-10.547-13.361-14.457-22.549-10.479
				c-1.561,0.676-2.974,1.612-4.276,2.761C477.396,209.685,483.751,206.624,490.106,211.023z"/>
			<path fill="#FFFFFF" d="M476.525,356.936c1.641-1.437,3.383-6.604,1.643-11.619c-3.812-10.153-2.851-19.651-1.704-29.406
				c3.444-11.473-0.579-17.793-6.317-27.544c-2.081-3.324-2.887-22.173-11.365-14.388c4.075,10.582,9.373,19.789,8.314,23.382
				c-2.825,9.559,5.557,13.702,3.778,17.977c-3.089,7.423,2.15,18.219-2.632,25.82c-2.569,4.084-2.802,7.122-1.146,11.092
				c1.634,3.926-0.191,6.176-0.584,7.929C470.508,360.437,473.073,359.932,476.525,356.936z"/>
			<path fill="#828181" d="M474.692,363.561c-2.361,0-7.91-0.222-8.47-2.248c-0.222-0.797,0.095-1.608,0.459-2.548
				c0.606-1.561,1.361-3.498,0.147-6.406c-1.714-4.109-1.386-7.294,1.171-11.355c2.566-4.085,2.181-9.185,1.809-14.111
				c-0.32-4.24-0.625-8.244,0.797-11.664c0.688-1.65-0.281-3.311-1.499-5.415c-1.769-3.046-3.969-6.835-2.287-12.535
				c0.691-2.341-1.495-7.303-4.263-13.589c-4.523-10.27-10.721-24.333-7.599-35.746l0.828-3.022
				c4.722-17.373,8.801-32.375,19.133-36.848c2.375-1.028,4.746-1.55,7.054-1.55c4.13,0,7.964,1.689,11.087,4.884
				c5.677,5.802,8.647,16.024,8.364,28.778c-0.365,16.451-5.697,28.966-9.589,38.102c-2.318,5.449-4.151,9.751-4.469,13.408
				c-0.168,1.946,0.089,3.592,0.363,5.336c0.645,4.109,1.313,8.365-3.559,16.918c-3.198,5.625-3.936,22.741-2.982,25.98
				c0.263,0.892,0.661,1.696,1.047,2.475c1.004,2.018,2.039,4.103,0.616,7.654c-1.087,2.72-0.058,5.614,0.77,7.939
				c0.611,1.72,1.092,3.075,0.542,3.901C483.443,362.979,478.75,363.561,474.692,363.561z M481.973,207.096
				c-2.225,0-4.525,0.506-6.829,1.501c-10.073,4.364-14.123,19.245-18.802,36.471l-0.828,3.024
				c-3.07,11.215,3.079,25.174,7.567,35.365c2.816,6.391,5.042,11.439,4.291,13.983c-1.614,5.462,0.517,9.133,2.229,12.079
				c1.25,2.153,2.328,4.016,1.534,5.925c-1.37,3.294-1.07,7.233-0.754,11.4c0.38,5.025,0.774,10.218-1.896,14.463
				c-2.476,3.932-2.775,6.865-1.126,10.828c1.303,3.124,0.469,5.27-0.142,6.835c-0.345,0.882-0.612,1.575-0.444,2.188
				c0.309,1.109,3.417,1.826,7.919,1.826c4.612,0,8.547-0.74,8.994-1.406c0.389-0.59-0.071-1.887-0.604-3.392
				c-0.862-2.418-1.931-5.428-0.764-8.343c1.328-3.313,0.394-5.196-0.596-7.19c-0.401-0.796-0.809-1.626-1.085-2.566
				c-0.997-3.386-0.301-20.558,3.037-26.424c4.769-8.379,4.116-12.534,3.487-16.55c-0.269-1.699-0.543-3.457-0.365-5.469
				c0.325-3.75,2.173-8.091,4.51-13.585c3.875-9.095,9.179-21.55,9.539-37.89c0.283-12.599-2.628-22.674-8.194-28.366
				C489.639,208.725,485.945,207.096,481.973,207.096z"/>
			<g>
				<path fill="#333232" d="M476.475,260.322c7.131-0.446,16.168,1.289,20.447,4.24c0.867-2.65,1.675-5.477,2.352-8.48
					C489.731,255.075,479.66,257.52,476.475,260.322z"/>
				<path fill="#282727" d="M497.069,264.993l-0.301-0.206c-3.642-2.51-11.042-4.262-17.997-4.262c-0.78,0-1.547,0.022-2.279,0.068
					l-0.797,0.052l0.601-0.529c2.939-2.587,10.88-4.539,18.47-4.539c1.548,0,3.073,0.078,4.539,0.235l0.305,0.03l-0.067,0.301
					c-0.639,2.819-1.408,5.602-2.358,8.504L497.069,264.993z M478.771,259.98c6.87,0,14.185,1.695,18.004,4.153
					c0.86-2.659,1.569-5.222,2.163-7.81c-1.351-0.133-2.754-0.201-4.173-0.201c-7.823,0-14.51,1.917-17.426,3.881
					C477.809,259.987,478.287,259.98,478.771,259.98z"/>
			</g>
			<g>
				<path fill="#333232" d="M483.23,245.459c5.551-1.975,12.76-2.879,17.882-2.206c0.064-0.999,0.116-2.008,0.141-3.042
					c0.007-0.338,0.004-0.665,0.007-1.001c0,0,0-0.002,0-0.006c0-0.023,0-0.047,0-0.071c0.006-0.737,0-1.467-0.018-2.188
					c0-0.021,0-0.041,0-0.063c-0.01-0.402-0.029-0.797-0.047-1.194C492.812,237.758,485.294,242.24,483.23,245.459z"/>
				<path fill="#282727" d="M482.568,245.982l0.432-0.67c2.025-3.161,9.36-7.726,18.13-9.89l0.325-0.082l0.027,0.644
					c0.013,0.296,0.026,0.591,0.034,0.891l0.001,0.063c0.015,0.724,0.022,1.454,0.015,2.194l-0.002,0.077h0.002l-0.001,0.389
					c0,0.207-0.001,0.411-0.005,0.62c-0.021,0.904-0.063,1.847-0.14,3.051l-0.021,0.294l-0.291-0.042
					c-1.102-0.143-2.321-0.218-3.63-0.218c-4.598,0-9.878,0.903-14.124,2.413L482.568,245.982z M500.938,236.034
					c-7.757,1.978-14.494,5.949-16.963,8.88c4.145-1.354,9.111-2.156,13.471-2.156c1.217,0,2.364,0.064,3.412,0.188
					c0.065-1.062,0.104-1.916,0.123-2.739c0.004-0.204,0.005-0.405,0.005-0.608l0.001-0.438v-0.031c0.007-0.733,0-1.46-0.016-2.177
					l0.271-0.07l-0.271,0.007C500.963,236.601,500.949,236.317,500.938,236.034z"/>
			</g>
			<g>
				<path fill="#333232" d="M483.23,229.467c5.219-1.856,11.899-2.768,16.938-2.311c-0.48-2.386-1.115-4.601-1.901-6.631
					C491.112,222.808,485.048,226.629,483.23,229.467z"/>
				<path fill="#282727" d="M482.568,229.992L483,229.32c1.965-3.066,8.351-6.874,15.186-9.055l0.243-0.078l0.094,0.238
					c0.786,2.034,1.431,4.28,1.912,6.676l0.073,0.358l-0.366-0.032c-0.841-0.076-1.746-0.116-2.689-0.116
					c-4.603,0-9.885,0.903-14.131,2.415L482.568,229.992z M498.103,220.866c-6.836,2.221-12.042,5.573-14.13,8.058
					c4.146-1.357,9.114-2.158,13.479-2.158c0.823,0,1.62,0.029,2.375,0.087C499.376,224.716,498.799,222.704,498.103,220.866z"/>
			</g>
			<g>
				<path fill="#333232" d="M472.363,278.365c5.954-0.371,13.237,0.778,17.972,2.886c0.391-0.941,0.81-1.918,1.241-2.936
					c0.581-1.365,1.197-2.816,1.822-4.337C484.406,273.42,475.354,275.736,472.363,278.365z"/>
				<path fill="#282727" d="M490.479,281.615l-0.256-0.114c-4.059-1.808-10.021-2.931-15.564-2.931
					c-0.781,0-1.545,0.022-2.277,0.069l-0.797,0.051l0.601-0.528c2.94-2.588,10.881-4.54,18.473-4.54
					c0.927,0,1.855,0.026,2.756,0.084l0.382,0.024l-0.145,0.352c-0.626,1.523-1.24,2.974-1.824,4.341l-0.037,0.094
					c-0.42,0.982-0.822,1.928-1.202,2.839L490.479,281.615z M474.658,278.024c5.499,0,11.413,1.095,15.531,2.864
					c0.351-0.833,0.715-1.694,1.095-2.587l0.04-0.093c0.536-1.259,1.1-2.589,1.675-3.979c-0.771-0.041-1.555-0.061-2.342-0.061
					c-7.824,0-14.515,1.915-17.429,3.882C473.696,278.033,474.174,278.024,474.658,278.024z"/>
			</g>
			<g>
				<path fill="#333232" d="M487.361,296.784c-0.243-1.561-0.439-3.076-0.285-4.834c0.056-0.665,0.166-1.351,0.318-2.064
					c-7.654,0.707-14.597,3.253-17.005,5.706C475.85,294.852,482.53,295.322,487.361,296.784z"/>
				<path fill="#4C4B4B" d="M470.39,295.592c1.231-0.167,2.395-0.19,3.718-0.238c-0.233-0.567-0.601-1.095-0.841-1.682
					C471.986,294.324,471.054,294.912,470.39,295.592z"/>
				<path fill="#282727" d="M487.697,297.173l-0.414-0.128c-3.208-0.968-7.391-1.525-11.477-1.525c-1.891,0-3.7,0.114-5.38,0.343
					l-0.792,0.108l0.56-0.569c2.628-2.677,9.85-5.109,17.174-5.789l0.369-0.032l-0.075,0.363c-0.156,0.732-0.259,1.396-0.317,2.03
					c-0.15,1.735,0.05,3.246,0.287,4.769L487.697,297.173z M475.807,294.973c3.965,0,8.023,0.519,11.22,1.428
					c-0.21-1.414-0.365-2.839-0.224-4.475c0.047-0.55,0.13-1.119,0.248-1.731c-6.442,0.649-12.935,2.73-15.829,5.02
					C472.676,295.053,474.215,294.973,475.807,294.973z"/>
			</g>
			<g>
				<path fill="#333232" d="M469.846,310.603c0.334,0.596,0.774,1.423,0.983,1.963c4.544,0.43,8.629,1.526,12.209,3.149
					c0.242-0.654,0.505-1.245,0.784-1.74c1.047-1.836,1.837-3.471,2.427-4.955C479.754,308.441,473.853,309.121,469.846,310.603z"/>
				<path fill="#4C4B4B" d="M469.846,310.603c0.334,0.596,0.774,1.423,0.983,1.963c2.144,0.203,4.294,0.69,6.229,1.176
					c0.417-1.214,0.598-3.163,0.657-4.756C474.604,309.24,472.04,309.79,469.846,310.603z"/>
				<path fill="#282727" d="M483.191,316.084l-0.267-0.119c-3.669-1.663-7.745-2.714-12.121-3.126l-0.17-0.018l-0.059-0.155
					c-0.234-0.6-0.753-1.55-0.968-1.93l-0.156-0.28l0.3-0.111c4.19-1.548,10.333-2.147,16.522-1.596l0.365,0.032l-0.136,0.34
					c-0.616,1.55-1.438,3.229-2.44,4.989c-0.264,0.462-0.522,1.034-0.769,1.701L483.191,316.084z M471.021,312.309
					c4.27,0.42,8.256,1.441,11.863,3.038c0.228-0.579,0.463-1.085,0.701-1.505c0.918-1.612,1.682-3.15,2.271-4.58
					c-5.839-0.479-11.595,0.076-15.614,1.488C470.489,311.203,470.815,311.824,471.021,312.309z"/>
			</g>
			<g>
				<path fill="#333232" d="M469.846,323.604c0.026,0.547,0.093,1.123,0.133,1.683c3.946,0.346,7.564,1.127,10.946,2.271
					c0.161-1.8,0.383-3.622,0.662-5.356C476.891,322.152,472.984,322.732,469.846,323.604z"/>
				<path fill="#4C4B4B" d="M469.846,323.604c0.026,0.547,0.093,1.123,0.133,1.683c1.82,0.16,3.854,0.5,5.544,0.837
					c0.121-1.195,0.064-2.394,0.247-3.636C473.502,322.734,471.62,323.112,469.846,323.604z"/>
				<path fill="#282727" d="M481.167,327.928l-0.331-0.112c-3.498-1.184-7.059-1.922-10.883-2.257l-0.231-0.022l-0.016-0.233
					c-0.017-0.229-0.038-0.458-0.058-0.69c-0.029-0.337-0.062-0.672-0.075-0.997l-0.01-0.217l0.21-0.058
					c3.389-0.942,7.189-1.418,11.295-1.418l0.84,0.006l-0.051,0.313c-0.271,1.661-0.491,3.459-0.659,5.341L481.167,327.928z
					 M470.233,325.032c3.66,0.339,7.084,1.045,10.451,2.154c0.154-1.65,0.351-3.232,0.581-4.717h-0.197
					c-3.971,0-7.649,0.451-10.939,1.338c0.018,0.249,0.042,0.501,0.065,0.758C470.208,324.722,470.221,324.876,470.233,325.032z"/>
			</g>
			<g>
				<path fill="#333232" d="M470.137,335.767c3.772,0.349,7.273,0.991,10.539,2.062c-0.082-1.414-0.088-3.242-0.015-5.264
					c-4.107,0.028-7.443,0.583-10.32,1.322C470.315,334.496,470.209,335.172,470.137,335.767z"/>
				<path fill="#4C4B4B" d="M470.341,333.887c-0.025,0.609-0.132,1.285-0.204,1.88c1.97,0.182,3.993,0.492,5.819,0.853
					c-0.219-1.121-0.383-3.047-0.396-3.702C473.717,333.154,471.877,333.493,470.341,333.887z"/>
				<path fill="#282727" d="M480.973,338.215l-0.382-0.125c-3.086-1.015-6.512-1.686-10.478-2.052l-0.28-0.025l0.092-0.733
					c0.061-0.47,0.124-0.956,0.144-1.403l0.01-0.204l0.196-0.049c3.381-0.871,6.777-1.306,10.384-1.334h0.288l-0.013,0.285
					c-0.074,2.012-0.066,3.822,0.015,5.24L480.973,338.215z M470.443,335.521c3.73,0.357,6.988,0.99,9.939,1.927
					c-0.062-1.297-0.062-2.876-0.008-4.607c-3.385,0.046-6.589,0.457-9.771,1.261c-0.028,0.409-0.085,0.837-0.139,1.249
					L470.443,335.521z"/>
			</g>
		</g>
	</g>
	<g>
		<g>
			<path fill="#D6D4D4" d="M459.443,201.355c8.703-6.026,21.229-7.651,24.672,10.708c3.441,18.359,9.752,31.938,18.551,33.662
				c8.796,1.72,17.978-2.298,18.743-14.917c0.766-6.314,5.162-4.208,5.162,2.103s-5.546,21.993-23.141,21.036
				c-17.594-0.954-25.243-21.609-26.967-28.878c-1.722-7.268-8.412-17.786-14.724-14.534S454.668,204.66,459.443,201.355z"/>
			<path fill="#FFFFFF" d="M483.537,209.483c0.436,0.535,0.955,4.507,2.604,11.577c-0.757-2.835-1.437-5.842-2.025-8.996
				c-3.442-18.359-15.969-16.734-24.672-10.708c-4.775,3.304-4.015,12.431,2.297,9.18c2.006-1.035,4.918,0.269,6.83,1.475
				C475.462,206.184,482.129,207.865,483.537,209.483z"/>
			<path fill="#E2DFDE" d="M486.141,221.06c-1.648-7.07-2.168-11.042-2.604-11.577c-0.001-0.004-0.006-0.009-0.011-0.014
				c0.218,0.821,0.416,1.677,0.589,2.594C484.704,215.218,485.384,218.225,486.141,221.06z"/>
			<path fill="#828181" d="M504.953,254.276c-0.506,0-1.024-0.014-1.539-0.042c-20.366-1.107-26.956-27.957-27.229-29.099
				c-1.443-6.101-6.55-14.922-12.011-14.922c-0.787,0-1.562,0.194-2.303,0.575c-0.93,0.479-1.79,0.722-2.558,0.722
				c-1.437,0-2.528-0.863-2.998-2.367c-0.739-2.361,0.186-6.101,2.967-8.025c3.883-2.69,8.015-4.172,11.631-4.172
				c4.861,0,11.148,2.615,13.482,15.065c3.746,19.978,10.258,31.852,18.325,33.432c1.266,0.246,2.531,0.373,3.761,0.373
				c8.598,0,14.07-5.619,14.641-15.026c0.31-2.56,1.271-4.081,2.568-4.081c1.555,0,3.168,2.317,3.168,6.202
				C526.858,239.604,521.343,254.276,504.953,254.276z M464.174,209.64c5.751,0,11.082,9.083,12.57,15.367
				c0.266,1.122,6.756,27.57,26.7,28.656c0.509,0.026,1.016,0.04,1.509,0.04c15.959,0,21.332-14.276,21.332-20.792
				c0-3.367-1.343-5.628-2.595-5.628c-0.757,0-1.679,0.934-1.996,3.558c-0.696,11.46-8.312,15.548-15.213,15.548
				c-1.266,0-2.57-0.127-3.869-0.384c-8.318-1.626-14.987-13.662-18.777-33.888c-2.263-12.064-8.275-14.596-12.922-14.596
				c-3.5,0-7.515,1.446-11.305,4.068c-2.567,1.777-3.421,5.215-2.745,7.383c0.23,0.734,0.853,1.963,2.45,1.963
				c0.677,0,1.448-0.222,2.293-0.658C462.433,209.856,463.296,209.64,464.174,209.64z"/>
		</g>
		<g>
			<path fill="#282626" d="M527.387,237.311c2.221-1.639,16.351-16.927,12.381-31.557c-3.892-14.345-22.024-34.348,3.97-50.776
				c-6.456-4.16-24.814,0.43-26.396,19.362c-1.003-1.433-2.003-5.88-1.433-8.175c-4.018,5.021-7.027,19.651-3.01,25.532
				c4.015,5.881,2.151,11.762,0,11.474c-2.154-0.285-5.167-4.875-5.31-9.61c-5.881,25.58,13.819,32.053,12.146,40.784
				c-0.86,2.727,1.29,0.716,3.73,1.386C525.813,236.377,526.229,238.163,527.387,237.311z"/>
			<path fill="#745956" d="M524.712,213.621c-0.012-0.329-0.027-0.657-0.05-0.983C524.662,212.976,524.681,213.3,524.712,213.621z"
				/>
			<path fill="#3D3C3C" d="M524.712,213.621c-0.031-0.321-0.05-0.645-0.05-0.983C524.685,212.964,524.7,213.292,524.712,213.621
				c0.271,2.919,1.668,5.092,1.668,8.198c4.019-5.737,1.721-12.622,0.576-18.933c2.295,2.294,5.164,5.164,5.164,8.605
				c2.868-12.049-6.884-20.654-6.884-32.129c0.568,2.294,2.293,3.442,2.864,5.163c-4.41-13.238,5.496-23.293,15.444-29.658
				c-6.617-3.956-24.64,0.719-26.203,19.473c-1.003-1.433-2.003-5.88-1.433-8.175c-4.018,5.021-7.027,19.651-3.01,25.532
				c4.015,5.881,2.151,11.762,0,11.474c-2.154-0.285-5.167-4.875-5.31-9.61c-4.515,19.631,6.039,28.009,10.436,34.789
				C523.111,225.58,524.931,219.682,524.712,213.621z"/>
			<path fill="#636262" d="M508.595,200.589c0.573,3.443,4.017,5.738,5.733,3.443c5.168-4.59,0-11.475-1.141-17.786
				c-0.576-4.59,0.57-9.181,2.292-13.196c0.573,1.722,1.723,3.442,2.296,5.164c2.868-16.638,10.258-21.802,22.363-24.482
				c-7.967-1.216-21.448,4.5-22.797,20.609c-1.003-1.433-2.003-5.88-1.433-8.175c-4.018,5.021-7.027,19.651-3.01,25.532
				c4.015,5.881,2.151,11.762,0,11.474c-2.154-0.285-5.167-4.875-5.31-9.61c-1.838,7.989-1.18,14.113,0.544,19.025
				C507.461,208.43,506.503,204.357,508.595,200.589z"/>
			<path d="M526.8,237.822L526.8,237.822c-0.45,0-0.826-0.294-1.263-0.639c-0.508-0.4-1.141-0.9-2.15-1.174
				c-0.764-0.212-1.716-0.112-2.443,0.005c-0.321,0.052-0.598,0.098-0.835,0.098c-0.121,0-0.493,0-0.704-0.29
				c-0.217-0.29-0.196-0.758,0.059-1.563c0.576-3.021-1.604-5.843-4.362-9.413c-4.878-6.312-11.558-14.955-7.793-31.349l0.504-2.17
				l0.065,2.225c0.145,4.801,3.165,9.083,5.061,9.335c0.498,0.069,1.013-0.324,1.398-1.056c0.901-1.707,1.194-5.769-1.673-9.971
				c-4.117-6.03-1.078-20.749,3.023-25.873l0.823-1.026l-0.32,1.274c-0.481,1.918,0.181,5.33,0.96,7.139
				c1.686-14.723,13.292-20.098,20.842-20.098c2.375,0,4.416,0.505,5.9,1.461l0.377,0.244l-0.377,0.24
				c-20.173,12.748-13.594,27.453-7.787,40.428c1.593,3.553,3.095,6.911,3.942,10.028c4.037,14.899-10.399,30.323-12.492,31.862
				C527.298,237.731,527.05,237.822,526.8,237.822z M522.322,235.301c0.436,0,0.836,0.047,1.219,0.152
				c1.121,0.308,1.833,0.871,2.352,1.278c0.368,0.289,0.654,0.518,0.907,0.518l0,0c0.123,0,0.264-0.059,0.417-0.171
				c2.053-1.512,16.236-16.652,12.276-31.25c-0.84-3.075-2.33-6.413-3.911-9.946c-5.574-12.454-12.502-27.932,7.608-40.896
				c-1.346-0.735-3.168-1.137-5.199-1.137c-7.494,0-19.105,5.463-20.361,20.515l-0.063,0.791l-0.457-0.649
				c-0.935-1.337-1.76-4.8-1.641-7.227c-3.562,5.594-6.027,18.849-2.336,24.255c2.824,4.133,2.865,8.373,1.709,10.564
				c-0.51,0.963-1.227,1.457-1.98,1.357c-2.031-0.271-4.636-3.896-5.365-8.045c-2.844,14.98,3.43,23.097,8.055,29.081
				c2.85,3.688,5.099,6.597,4.465,9.907c-0.263,0.84-0.182,1.04-0.15,1.082c0.064,0.091,0.489,0.052,0.989-0.032
				C521.265,235.38,521.776,235.301,522.322,235.301z"/>
		</g>
		<g>
			<path d="M530.83,222.351c1.599-10.819-1.023-19.903-3.336-27.916c-1.204-4.168-2.335-8.104-2.807-11.942
				c-0.691-5.665-0.358-19.77,17.66-28.417l0.248,0.518c-17.683,8.486-18.018,22.288-17.338,27.829
				c0.464,3.793,1.593,7.708,2.791,11.853C531.325,205.642,532.979,212.352,530.83,222.351z"/>
		</g>
	</g>
	<g>
		<g>
			<path fill="#212020" d="M399.295,356.055c0,0-5.963,8.64-5.447,11.208c0.714,3.582,11.045,6.166,14.918,5.591
				c3.871-0.573,10.819-5.062,11.821-7.929c1.004-2.866-8.523-10.573-9.529-11.002C410.055,353.49,400.723,355.461,399.295,356.055z
				"/>
			<path fill="#3D3D3D" d="M401.879,363.529c1.887-1.885,2.992-5.315,2.377-8.707c-2.256,0.463-4.346,0.977-4.961,1.232
				c0,0-5.014,7.27-5.445,10.452C397.046,367.043,400.022,365.854,401.879,363.529z"/>
			<path fill="#353330" d="M407.517,373.223L407.517,373.223c-4.488,0-13.256-2.435-13.95-5.909
				c-0.531-2.651,5.244-11.067,5.491-11.423l0.05-0.068l0.076-0.03c1.404-0.586,9.146-2.22,11.36-2.22
				c0.294,0,0.495,0.028,0.629,0.086c0.923,0.396,10.806,8.158,9.682,11.362c-1.082,3.096-8.211,7.551-12.047,8.116
				C408.435,373.195,407.998,373.223,407.517,373.223z M399.478,356.289c-1.667,2.435-5.746,8.93-5.351,10.916
				c0.591,2.952,8.645,5.444,13.39,5.444l0,0c0.456,0,0.863-0.028,1.204-0.078c3.942-0.585,10.66-5.069,11.598-7.74
				c0.926-2.651-8.412-10.233-9.372-10.644c-0.017-0.01-0.104-0.041-0.402-0.041C408.348,354.146,400.895,355.761,399.478,356.289z"
				/>
		</g>
		<g>
			<path fill="#D6D4D4" d="M387.536,281.104c-9.657,4.59,4.878,22.28,4.208,27.925c-0.553,4.666,0.675,7.629,3.25,10.516
				c3.157,3.541,4.979,27.995,2.797,31.509c-2.128,3.43-1.631,7.85,2.183,9.179c3.082,1.076,11.69,0.086,13.234-1.289
				c1.293-1.147-0.499-3.229,0.527-5.355c2.888-5.977-4.97-5.116-4.97-11.141c0-4.017-2.439-15.062-0.577-21.434
				c3.079-10.521,2.298-29.581-1.528-35.128C402.837,280.339,393.099,278.462,387.536,281.104z"/>
			<path fill="#FFFFFF" d="M406.47,353.204c1.146-1.15,0-5.308-0.576-7.029c-2.104-5.75-6.131-19.991-3.101-27.401
				c1.526-3.723,2.438-17.702,1.956-24.912c-0.468-5.615-4.758-7.732-6.099-13.205c-3.862-1.088-8.102-0.986-11.114,0.447
				c-9.657,4.59,4.878,22.28,4.208,27.925c-0.553,4.666,0.675,7.629,3.25,10.516c3.157,3.541,4.979,27.995,2.797,31.509
				c-0.769,1.241-1.188,2.605-1.24,3.911C399.705,355.887,403.547,354.665,406.47,353.204z"/>
			<path fill="#E2DFDE" d="M387.706,281.036c-0.056,0.025-0.116,0.04-0.17,0.067c-9.657,4.59,4.878,22.28,4.208,27.925
				c-0.553,4.666,0.675,7.629,3.25,10.516c0.108,0.121,0.211,0.266,0.317,0.435c-2.196-3.925-3.454-5.956-2.435-11.383
				c1.183-6.285-6.299-13.188-4.768-19.077C387.258,286.529,387.672,283.858,387.706,281.036z"/>
			<path fill="#828181" d="M403.834,360.974L403.834,360.974c-1.189,0-2.84-0.081-3.955-0.47c-1.604-0.56-2.742-1.668-3.284-3.207
				c-0.686-1.937-0.331-4.331,0.956-6.396c2.021-3.256,0.491-27.509-2.771-31.164c-2.88-3.23-3.842-6.346-3.322-10.743
				c0.223-1.872-1.396-5.333-3.11-8.993c-3.343-7.142-7.506-16.032-0.936-19.153c1.663-0.791,3.738-1.21,6.002-1.21
				c4.623,0,10.583,1.88,13.481,6.085c3.833,5.556,4.685,24.727,1.57,35.372c-1.29,4.408-0.482,11.188,0.105,16.138
				c0.26,2.144,0.48,3.997,0.48,5.215c0,2.639,1.563,3.871,3.073,5.061c1.815,1.425,3.528,2.772,1.87,6.205
				c-0.465,0.963-0.304,1.91-0.148,2.824c0.168,0.994,0.331,1.928-0.446,2.621C412.196,360.229,407.391,360.974,403.834,360.974z
				 M393.414,280.21c-2.178,0-4.168,0.398-5.756,1.154c-6.057,2.878-2.197,11.12,1.21,18.39c1.825,3.903,3.402,7.272,3.161,9.307
				c-0.501,4.217,0.418,7.2,3.176,10.293c1.755,1.967,2.946,9.518,3.474,15.933c0.539,6.535,0.552,13.991-0.644,15.918
				c-1.194,1.921-1.529,4.127-0.9,5.901c0.484,1.369,1.498,2.355,2.933,2.855c0.824,0.287,2.125,0.438,3.767,0.438
				c3.755,0,8.218-0.812,9.186-1.676c0.515-0.451,0.435-1.089,0.262-2.092c-0.163-0.953-0.35-2.042,0.196-3.17
				c1.456-3.015,0.062-4.114-1.705-5.507c-1.545-1.216-3.295-2.594-3.295-5.509c0-1.181-0.216-3.022-0.473-5.148
				c-0.597-4.998-1.413-11.846-0.089-16.371c3.079-10.517,2.27-29.427-1.488-34.878C403.644,282.017,397.888,280.21,393.414,280.21z
				"/>
			<g>
				<path fill="#4C4B4B" d="M398.356,334.862c0.18,2.019,0.281,3.8,0.344,5.731c3.703-0.213,6.806-0.983,9.734-1.97
					c-0.037-0.341-0.08-0.686-0.122-1.044c-0.051-0.43-0.105-0.881-0.157-1.337C404.088,336.294,400.646,335.999,398.356,334.862z"
					/>
				<path fill="#282727" d="M398.438,340.884l-0.01-0.28c-0.066-2.024-0.172-3.788-0.344-5.717l-0.042-0.488l0.437,0.219
					c1.863,0.929,4.672,1.358,8.837,1.358c0.276,0,0.555,0,0.836-0.005l0.246-0.004l0.336,2.847l-0.21,0.069
					c-3.519,1.185-6.542,1.8-9.807,1.985L398.438,340.884z M398.67,335.307c0.141,1.672,0.234,3.243,0.295,4.998
					c3.04-0.196,5.893-0.779,9.173-1.87l-0.226-1.914c-0.201,0.001-0.4,0.001-0.597,0.001
					C403.369,336.521,400.601,336.136,398.67,335.307z"/>
			</g>
			<g>
				<path fill="#4C4B4B" d="M396.857,324.474c0.399,1.648,0.699,3.525,0.983,5.633c3.777-0.531,6.876-1.739,9.676-2.975
					c0.004-0.732,0.026-1.453,0.075-2.153C403.346,325.439,399.516,325.437,396.857,324.474z"/>
				<path fill="#282727" d="M397.608,330.415l-0.038-0.272c-0.327-2.438-0.631-4.165-0.979-5.604l-0.121-0.495l0.479,0.175
					c1.445,0.52,3.365,0.785,5.709,0.785c1.46,0,3.062-0.097,4.904-0.295l0.326-0.037l-0.023,0.328
					c-0.048,0.653-0.072,1.372-0.075,2.135v0.178l-0.162,0.071c-2.806,1.237-5.927,2.456-9.747,2.994L397.608,330.415z
					 M397.233,324.888c0.295,1.305,0.56,2.853,0.841,4.908c3.562-0.535,6.511-1.674,9.17-2.842c0.006-0.586,0.023-1.145,0.054-1.668
					C402.845,325.745,399.598,325.614,397.233,324.888z"/>
			</g>
			<g>
				<path fill="#4C4B4B" d="M391.998,314.286c0.133,0.618,0.393,1.364,0.627,1.947c4.111,1.407,9.807,2.202,16.353,1.704
					c0.461-2.441,0.769-5.124,0.926-7.879C406.811,312.647,399.15,314.269,391.998,314.286z"/>
				<path fill="#282727" d="M405.092,318.359c-4.647,0-8.986-0.644-12.555-1.866l-0.118-0.041l-0.046-0.116
					c-0.137-0.339-0.475-1.215-0.643-1.993l-0.071-0.331h0.339c7.529-0.016,14.822-1.73,17.729-4.163l0.485-0.406l-0.036,0.631
					c-0.164,2.854-0.476,5.516-0.929,7.913l-0.037,0.206l-0.212,0.018C407.691,318.309,406.375,318.359,405.092,318.359z
					 M392.834,316.018c4.413,1.486,10.064,2.084,15.914,1.66c0.396-2.151,0.68-4.516,0.844-7.038
					c-3.209,2.274-10.105,3.853-17.246,3.917C392.458,314.99,392.629,315.5,392.834,316.018z"/>
			</g>
			<g>
				<path fill="#4C4B4B" d="M391.213,306.121c4.14,1.155,11.544,1.652,18.836,0.295c0.031-2.31-0.037-4.619-0.201-6.824
					c-3.886,2.588-12.188,4.563-19.049,5.214C390.963,305.217,391.08,305.739,391.213,306.121z"/>
				<path fill="#282727" d="M400.976,307.507L400.976,307.507c-3.694,0-7.278-0.409-9.836-1.123l-0.138-0.037l-0.046-0.135
					c-0.058-0.164-0.112-0.354-0.167-0.547c-0.076-0.261-0.152-0.53-0.244-0.759l-0.137-0.338l0.365-0.033
					c6.265-0.595,14.859-2.466,18.925-5.172l0.389-0.259l0.033,0.468c0.165,2.225,0.232,4.529,0.203,6.85l-0.004,0.224l-0.223,0.041
					C407.169,307.231,404.101,307.507,400.976,307.507z M391.427,305.896c2.503,0.679,5.97,1.065,9.548,1.065h0.001
					c3.013,0,5.973-0.26,8.803-0.771c0.022-2.068-0.036-4.125-0.169-6.122c-4.198,2.575-12.332,4.361-18.436,4.976
					c0.049,0.156,0.094,0.313,0.14,0.472C391.352,305.646,391.39,305.776,391.427,305.896z"/>
			</g>
		</g>
	</g>
	<g>
		<g>
			<path fill="#212020" d="M438.41,358.367c-8.991-1.529-28.545,14.02-17.746,18.364c6.65,2.675,25.584,0.188,28.773-3.796
				C451.426,370.454,448.417,360.071,438.41,358.367z"/>
			<path fill="#3D3D3D" d="M439.747,366.399c1.732-2.6,0.519-5.525-1.416-8.043c-7.865-1.247-23.617,10.346-20.407,16.211
				C425.865,375.938,434.629,372.539,439.747,366.399z"/>
			<path fill="#ADAAA8" d="M419.618,371.372c1.328-3.318,6.359-7.335,10.449-8.342c-2.476,1.223-6.625,4.181-8.729,8.543
				C420.76,372.771,419.329,372.089,419.618,371.372z"/>
			<path fill="#353330" d="M428.828,378.131c0,0,0,0-0.003,0c-3.562,0-6.424-0.392-8.271-1.138
				c-3.247-1.306-3.563-3.488-3.252-5.085c1.135-5.859,12.597-13.928,19.783-13.928c0.479,0,0.944,0.029,1.37,0.104
				c7.609,1.297,10.423,7.235,11.1,9.027c0.95,2.485,0.993,4.898,0.109,6.003C447.295,376.068,436.78,378.131,428.828,378.131z
				 M437.086,358.551c-6.831,0-18.146,7.93-19.221,13.467c-0.389,2.017,0.587,3.512,2.903,4.442
				c1.783,0.721,4.564,1.096,8.057,1.096h0.003c7.822,0,18.122-1.972,20.386-4.799c0.751-0.937,0.669-3.174-0.19-5.444
				c-0.654-1.718-3.352-7.418-10.665-8.66C437.967,358.584,437.534,358.551,437.086,358.551z"/>
		</g>
		<g>
			<path fill="#D6D4D4" d="M362.865,156.985c10.076,6.298-2.508,37.779,10.038,53.358c8.32,10.328,26.873,6.884,33.278,0.096
				c8.984-9.523,41.872-34.055,62.248-7.554c20.379,26.499,1.956,66.783-3.823,75.352c-11.092,16.442,5.933,24.479-2.231,35.952
				c-8.715,12.256-1.494,38.916-7.981,41.865c-5.511,2.505-7.764,4.669-6.612,7.218c1.145,2.553,1.145,5.709-3.447,5.137
				c-4.587-0.574-12.905-4.825-12.905-7.723c0-2.892,1.337-7.581,4.587-9.777c2.837-1.918-0.573-6.408,6.41-7.745
				c4.498-0.863-0.956-18.646,1.242-26.107c2.053-6.959-11.379-16.267-17.693-23.195c-16.006,6.844-48.08-2.907-61.388-8.819
				c-12.911-5.739-36.434-22.492-31.27-59.429c5.936-42.457-4.875-46.826-7.459-51.701
				C323.278,169.035,358.276,154.117,362.865,156.985z"/>
			<path fill="#FFFFFF" d="M441.856,238.107c2.003-11.765,8.14-28.044,30.212-28.638c-0.886-4.126-7.79-12.235-11.666-14.172
				c-20.082-13.096-46.342,6.792-54.221,15.142c-5.757,6.101-19.794,8.701-27.214,4.528c-6.869-1.941-16.676-11.127-19.546-16.385
				c-1.72-2.87-7.84-0.364-11.283-0.364c-4.302,0-9.358-0.861-13.322-3.266c0.837,9.114-0.196,19.025-1.211,28.395
				c-0.785,5.877-1.11,14.773-0.597,19.659c1.582,9.717,6.834,15.235,13.536,19.543c8.604,7.042,20.676,14.103,22.95,11.236
				c-4.621-12.736-4.311-21.847-2.281-30.452c-0.797,10.329,3.167,21.659,6.808,30.561c3.894,1.604,17.78-0.288,24.908-2.665
				c17.212-6.312-1.642-14.127,13.555-45.542c-4.387,15.064-3.456,33.231,0.268,44.615c3.179,9.702,9.813,19.243,15.192,25.589
				c6.751,6.646,17.58,14.867,15.724,21.165c-2.198,7.462,3.256,25.244-1.242,26.107c-6.983,1.337-3.573,5.827-6.41,7.745
				c-2.426,1.644-3.784,4.666-4.32,7.3c2.413,0.89,5.23,0.928,8.052,0.158c3.729-0.862,5.834-8.03,8.125-8.03
				c8.036-0.86,4.497-13.771,5.452-20.085c0.789-6.977-0.861-12.522,3.157-16.54c5.161-4.591-0.674-12.718-2.967-17.308
				C447.205,284.355,438.653,252.505,441.856,238.107z"/>
			<g>
				<path fill="#828181" d="M428.062,296.41c-2.668-2.524-11.583-14.314-15.85-25.911c-2-5.444-2.895-11.792-3.131-18.134
					c-0.39-10.465,1.369-20.053,3.402-26.678c-2.738,10.198-4.926,30.497,0.268,44.615c4.271,11.616,13.394,23.504,15.71,25.695
					L428.062,296.41z"/>
			</g>
			<path fill="#828181" d="M445.361,368.765c-0.332,0-0.687-0.024-1.062-0.073c-4.717-0.587-13.159-4.849-13.159-8.005
				c0-2.741,1.258-7.673,4.713-10.016c0.976-0.657,1.136-1.646,1.32-2.788c0.313-1.937,0.667-4.132,5.198-5.003
				c2.24-0.429,1.674-6.103,1.072-12.106c-0.514-5.124-1.049-10.423-0.051-13.795c1.466-4.985-5.5-11.422-11.646-17.106
				c-2.168-2.003-4.218-3.901-5.848-5.666c-3.64,1.519-8.316,2.287-13.894,2.287c-16.406,0-37.416-6.693-47.534-11.191
				c-5.219-2.318-15.083-7.755-22.528-18.107c-8.183-11.376-11.178-25.383-8.91-41.621c5.004-35.78-1.962-44.458-5.704-49.119
				c-0.705-0.876-1.311-1.634-1.723-2.41c-0.287-0.542-0.208-1.187,0.229-1.916c3.368-5.596,27.524-15.793,35.201-15.793
				c0.896,0,1.544,0.133,1.983,0.408c4.879,3.047,4.604,11.629,4.284,21.568c-0.352,11.099-0.753,23.681,5.827,31.852
				c3.336,4.139,8.764,6.42,15.282,6.42c6.817,0,14.038-2.607,17.564-6.342c5.139-5.445,22.252-19.581,39.492-19.581
				c9.246,0,17.045,4.054,23.191,12.048c10.936,14.218,10.358,32.12,7.952,44.628c-2.688,13.976-8.51,26.229-11.764,31.059
				c-5.918,8.77-3.689,15.223-1.73,20.91c1.713,4.968,3.331,9.653-0.505,15.049c-4.618,6.491-4.715,17.353-4.793,26.083
				c-0.071,8.063-0.13,14.432-3.308,15.876c-5.557,2.525-7.49,4.569-6.474,6.842c0.799,1.769,0.88,3.355,0.229,4.362
				C447.732,368.344,446.753,368.765,445.361,368.765z M426.053,293.521l0.135,0.148c1.632,1.793,3.729,3.729,5.951,5.781
				c6.267,5.797,13.372,12.365,11.803,17.688c-0.961,3.264-0.438,8.507,0.071,13.578c0.658,6.546,1.222,12.201-1.534,12.729
				c-4.138,0.792-4.442,2.689-4.739,4.526c-0.188,1.17-0.383,2.377-1.56,3.174c-3.276,2.218-4.468,6.919-4.468,9.54
				c0,2.586,7.851,6.836,12.659,7.437c1.718,0.217,2.884-0.097,3.412-0.917c0.544-0.837,0.446-2.23-0.267-3.815
				c-1.184-2.633,0.838-4.906,6.759-7.599c2.843-1.29,2.899-7.812,2.968-15.359c0.08-8.81,0.177-19.769,4.903-26.41
				c3.662-5.15,2.16-9.495,0.429-14.529c-2.01-5.816-4.278-12.41,1.797-21.417c3.229-4.79,9-16.956,11.674-30.844
				c2.388-12.398,2.961-30.126-7.841-44.173c-6.033-7.845-13.686-11.824-22.738-11.824c-17.038,0-33.984,14.005-39.076,19.4
				c-3.68,3.9-10.905,6.524-17.98,6.524c-6.697,0-12.282-2.358-15.727-6.636c-6.716-8.337-6.311-21.032-5.953-32.232
				c0.312-9.758,0.58-18.189-4.017-21.062c-0.34-0.214-0.906-0.32-1.679-0.32c-7.372,0-31.497,10.18-34.708,15.514
				c-0.33,0.545-0.4,1-0.213,1.352c0.385,0.729,0.976,1.466,1.659,2.32c3.798,4.729,10.866,13.53,5.83,49.558
				c-5.534,39.576,22.406,55.261,31.101,59.126c10.073,4.477,30.985,11.141,47.302,11.141c5.598,0,10.259-0.78,13.859-2.319
				L426.053,293.521z"/>
			<g>
				<path fill="#333232" d="M414.374,274.301c16.431-2.966,33.104,0.137,39.905,6.684c-13.809-2.056-30.883-1.601-34.578,3.702
					C417.121,280.926,414.374,274.301,414.374,274.301z"/>
				<path fill="#4C4B4B" d="M414.374,274.301c0,0,2.747,6.625,5.327,10.386c3.125-4.484,15.499-5.385,27.693-4.351
					c-0.48-1.301-0.759-2.499-1.181-4.023C437.924,273.254,426.015,272.199,414.374,274.301z"/>
				<path fill="#282727" d="M419.701,285.169l-0.224-0.325c-2.567-3.744-5.329-10.371-5.356-10.437l-0.13-0.313l0.333-0.062
					c4.165-0.751,8.433-1.134,12.682-1.134c11.885,0,22.408,3.025,27.463,7.889l0.615,0.593l-0.846-0.126
					c-4.977-0.739-10.167-1.131-15.017-1.131c-10.172,0-17.205,1.722-19.295,4.722L419.701,285.169z M414.76,274.511
					c0.56,1.312,2.804,6.45,4.955,9.707c3.293-4.03,13.573-4.644,19.507-4.644c4.586,0,9.48,0.349,14.211,1.011
					c-5.181-4.42-15.174-7.139-26.427-7.139C422.905,273.446,418.784,273.803,414.76,274.511z"/>
			</g>
			<g>
				<path fill="#333232" d="M409.694,242.703c20.71,1.639,40.664,11.44,47.497,24.151c-16.678-7.518-40.922-9.547-46.936-5.444
					C408.752,253.619,409.694,242.703,409.694,242.703z"/>
				<path fill="#4C4B4B" d="M409.694,242.703c0,0-0.942,10.916,0.562,18.707c4.53-3.093,18.562-2.911,32.757,0.685
					c-0.966-3.244-1.132-6.524-1.522-9.946C432.526,247.011,421.322,243.624,409.694,242.703z"/>
				<path fill="#282727" d="M457.815,267.434l-0.734-0.331c-11.502-5.183-26.044-7.503-35.355-7.503
					c-5.373,0-9.394,0.723-11.314,2.035l-0.345,0.236l-0.078-0.41c-1.496-7.737-0.577-18.669-0.567-18.778l0.024-0.271l0.27,0.022
					c21.313,1.683,40.933,11.673,47.719,24.291L457.815,267.434z M421.726,259.052c9.167,0,23.375,2.236,34.828,7.22
					c-7.015-12.073-25.981-21.574-46.61-23.271c-0.127,1.699-0.744,11.016,0.507,17.963
					C412.586,259.712,416.465,259.052,421.726,259.052z"/>
			</g>
			<g>
				<path fill="#333232" d="M413.473,220.067c21.045-1.747,44.355,3.701,53.787,29.636c-19.134-17.495-45.351-23.026-56.418-16.059
					C410.755,228.791,413.473,220.067,413.473,220.067z"/>
				<path fill="#4C4B4B" d="M413.473,220.067c0,0-2.718,8.724-2.631,13.577c6.762-4.256,18.707-3.977,31.71,0.976
					c0.519-2.739,1.824-6.343,3.387-9.532C435.979,220.118,424.517,219.149,413.473,220.067z"/>
				<path fill="#282727" d="M467.074,249.905c-12.563-11.489-29.771-18.912-43.837-18.912c-5.019,0-9.255,0.998-12.251,2.884
					l-0.411,0.26l-0.008-0.485c-0.085-4.843,2.533-13.308,2.645-13.666l0.056-0.176l0.184-0.016c2.387-0.197,4.756-0.297,7.04-0.297
					c16.458,0,37.976,5.223,47.024,30.11L467.074,249.905z M423.237,230.446c13.886,0,30.792,7.157,43.373,18.305
					c-9.157-23.693-30.071-28.707-46.119-28.707c-2.212,0-4.502,0.095-6.811,0.279c-0.366,1.215-2.484,8.401-2.567,12.839
					C414.168,231.385,418.344,230.446,423.237,230.446z"/>
			</g>
			<g>
				<path fill="#333232" d="M398.473,280.361c-2.075-6.228-10.552-41.69,1.995-66.019c-3.459,1.508-8.947,2.287-11.749,2.561
					C382.334,238.064,382.784,262.876,398.473,280.361z"/>
				<path fill="#4C4B4B" d="M400.468,214.342c-3.459,1.508-8.947,2.287-11.749,2.561c-5.455,18.08-5.669,39.304,4.094,55.867
					c1.25-0.135,2.383-0.5,3.585-0.841C393.66,258.387,390.845,233.001,400.468,214.342z"/>
				<path fill="#282727" d="M398.271,280.543c-13.81-15.391-17.387-38.615-9.813-63.718l0.054-0.178l0.184-0.017
					c3.638-0.355,8.614-1.209,11.665-2.54l0.705-0.307l-0.352,0.682c-12.062,23.386-4.632,57.856-1.981,65.807L398.271,280.543z
					 M388.928,217.156c-7.291,24.324-4.043,46.842,8.897,62.048c-2.886-9.77-9.079-41.866,2.07-64.332
					C396.036,216.353,390.457,217.001,388.928,217.156z"/>
			</g>
			<g>
				<path fill="#333232" d="M410.455,272.358c-1.646-6.226-9.997-40.189,6.223-70.725c-4.705,3.298-8.344,6.585-10.281,8.636
					c-0.873,0.925-1.973,1.779-3.232,2.542C396.978,232.529,396.991,255.287,410.455,272.358z"/>
				<path fill="#4C4B4B" d="M406.846,243.962c-0.012-12.68,2.159-27.888,9.832-42.328c-4.705,3.298-8.344,6.585-10.281,8.636
					c-0.873,0.925-1.973,1.779-3.232,2.542c-5.511,17.567-6.093,37.542,3.366,53.763C407.15,259.089,406.426,251.44,406.846,243.962
					z"/>
				<path fill="#282727" d="M410.24,272.526c-11.865-15.045-14.541-36.841-7.338-59.796l0.031-0.099l0.089-0.053
					c1.27-0.768,2.338-1.607,3.175-2.496c0.94-0.996,4.464-4.565,10.323-8.673l0.397,0.352
					c-15.388,28.972-8.636,61.306-6.197,70.526L410.24,272.526z M403.394,212.991c-6.942,22.212-4.577,43.306,6.466,58.14
					c-2.619-10.584-8.118-40.964,6.046-68.615c-5.259,3.796-8.43,7.01-9.31,7.943C405.743,211.361,404.666,212.212,403.394,212.991z
					"/>
			</g>
			<g>
				<path fill="#333232" d="M440.323,308.072c2.069,2.483,3.521,4.922,3.672,7.148c4.104-3.267,11.588-6.127,17.919-6.983
					C458.455,306.234,449.061,305.735,440.323,308.072z"/>
				<path fill="#4C4B4B" d="M440.323,308.072c2.069,2.483,3.521,4.922,3.672,7.148c3.339-2.655,9.143-5.038,14.513-6.298
					c0.029-0.546-0.051-1.253-0.17-1.895C453.822,306.227,446.709,306.364,440.323,308.072z"/>
				<path fill="#282727" d="M443.759,315.758l-0.036-0.521c-0.134-1.945-1.314-4.234-3.611-6.989l-0.273-0.33l0.414-0.111
					c3.824-1.021,7.959-1.562,11.956-1.562c4.327,0,7.914,0.643,9.844,1.758l0.69,0.401l-0.792,0.107
					c-6.336,0.854-13.816,3.766-17.784,6.923L443.759,315.758z M440.804,308.227c2.015,2.481,3.134,4.612,3.41,6.479
					c3.979-2.997,10.69-5.631,16.79-6.608c-1.96-0.825-5.151-1.307-8.796-1.307C448.399,306.79,444.466,307.289,440.804,308.227z"/>
			</g>
			<g>
				<path fill="#333232" d="M443.63,328.32c3.468-1.25,8.963-1.551,14.555-0.961c0.077-0.784,0.166-1.698,0.275-2.47
					c-4.105-1.815-9.47-3.252-15.311-3.761C443.168,323.367,443.387,325.844,443.63,328.32z"/>
				<path fill="#4C4B4B" d="M453.665,323.136c-3.168-0.956-6.737-1.678-10.516-2.007c0.019,2.238,0.237,4.715,0.48,7.191
					c2.472-0.892,6.098-1.25,9.929-1.196C453.548,326.029,453.586,324.481,453.665,323.136z"/>
				<path fill="#282727" d="M443.393,328.694l-0.035-0.349c-0.222-2.261-0.463-4.873-0.484-7.214l-0.002-0.3l0.301,0.024
					c5.5,0.48,10.968,1.822,15.397,3.784l0.188,0.082l-0.027,0.205c-0.103,0.74-0.191,1.62-0.273,2.459l-0.028,0.274l-0.274-0.028
					c-1.82-0.193-3.626-0.293-5.37-0.293c-3.685,0-6.818,0.429-9.062,1.237L443.393,328.694z M443.424,321.429
					c0.036,2.123,0.243,4.449,0.445,6.519c2.273-0.753,5.345-1.153,8.915-1.153c1.674,0,3.406,0.089,5.154,0.267
					c0.068-0.683,0.14-1.382,0.222-2.003C453.897,323.201,448.687,321.918,443.424,321.429z"/>
			</g>
			<g>
				<path fill="#333232" d="M444.084,340.661c2.773-1.783,8.065-2.381,13.462-1.778c0.006-0.716,0.022-1.672,0.033-2.409
					c-3.609-1.866-8.337-3.207-13.628-3.508C444.241,336.037,444.414,338.834,444.084,340.661z"/>
				<path fill="#4C4B4B" d="M453.133,334.649c-2.696-0.85-5.933-1.498-9.182-1.684c0.29,3.071,0.463,5.868,0.133,7.695
					c2.062-1.326,5.353-1.993,9.203-2.003C453.348,337.519,453.199,336.105,453.133,334.649z"/>
				<path fill="#282727" d="M443.701,341.229l0.114-0.619c0.333-1.85,0.132-4.757-0.138-7.62l-0.028-0.316l0.319,0.019
					c4.997,0.288,9.877,1.544,13.737,3.538l0.149,0.078l-0.002,0.17c-0.012,0.738-0.027,1.69-0.035,2.409l-0.003,0.303l-0.301-0.033
					c-1.341-0.149-2.683-0.229-3.986-0.229c-3.97,0-7.359,0.716-9.297,1.962L443.701,341.229z M444.251,333.257
					c0.234,2.522,0.4,5.05,0.187,6.879c2.085-1.133,5.279-1.754,9.091-1.754c1.228,0,2.484,0.067,3.747,0.197
					c0.007-0.61,0.02-1.333,0.028-1.941C453.615,334.764,448.999,333.569,444.251,333.257z"/>
			</g>
			<g>
				<path fill="#333232" d="M457.016,290.994c-4.692-1.553-17.524,0.335-28.28,5.687c1.075,1.038,2.232,2.112,3.434,3.22
					c1.164,1.079,2.358,2.183,3.521,3.3C439.972,298.564,449.146,293.419,457.016,290.994z"/>
				<path fill="#4C4B4B" d="M428.735,296.681c1.075,1.038,2.232,2.112,3.434,3.22c1.164,1.079,2.358,2.183,3.521,3.3
					c3.396-3.676,9.769-7.529,16.228-10.234c-0.318-0.601-0.752-1.694-1-2.463C444.835,290.789,436.442,292.845,428.735,296.681z"/>
				<path fill="#282727" d="M435.702,303.593l-0.202-0.195c-1.121-1.078-2.279-2.146-3.398-3.185l-0.12-0.11
					c-1.261-1.168-2.393-2.218-3.437-3.228l-0.277-0.27l0.346-0.17c8.663-4.311,18.35-6.24,24.105-6.24
					c1.827,0,3.305,0.182,4.384,0.538l0.815,0.27l-0.819,0.251c-7.972,2.455-17.089,7.673-21.208,12.134L435.702,303.593z
					 M429.205,296.753c0.965,0.925,2.002,1.887,3.148,2.949l0.12,0.108c1.055,0.979,2.146,1.986,3.206,3.001
					c4.158-4.374,12.541-9.22,20.354-11.79c-0.908-0.184-2.034-0.28-3.315-0.28C447.103,290.741,437.699,292.603,429.205,296.753z"
					/>
			</g>
			<g>
				<path fill="#4C4B4B" d="M379.341,266.238c-2.155-15.663-1.577-39.529,4.57-49.753c-1.751-0.42-4.944-1.518-6.415-2.255
					C373.697,223.512,368.468,243.249,379.341,266.238z"/>
				<path fill="#282727" d="M379.093,266.355c-10.835-22.908-5.81-42.558-1.849-52.229l0.11-0.273l0.265,0.132
					c1.505,0.754,4.708,1.839,6.356,2.234l0.364,0.087l-0.192,0.319c-5.785,9.619-6.849,32.76-4.537,49.576L379.093,266.355z
					 M377.64,214.604c-3.813,9.447-8.466,28.075,1.198,49.886c-1.993-16.544-0.831-38.273,4.653-47.828
					C381.846,216.231,379.146,215.31,377.64,214.604z"/>
			</g>
			<g>
				<g>
					<path fill="#333232" d="M473.048,231.162c-8.315-21.215-28.186-31.667-43.646-36.507c-3.34,1.257-9.56,4.733-12.724,7.221
						C435.984,202.378,460.43,215.264,473.048,231.162z"/>
					<path fill="#4C4B4B" d="M429.401,194.655c-3.34,1.257-9.56,4.733-12.724,7.221c11.964,0.311,25.899,5.38,37.771,12.971
						c1.622-1.221,3.525-2.347,5.501-3.023C450.716,203.082,439.111,197.695,429.401,194.655z"/>
					<path fill="#282727" d="M472.795,231.361c-12.588-15.864-37.241-28.675-56.127-29.164l-0.889-0.024l0.7-0.548
						c3.068-2.413,9.293-5.946,12.811-7.269l0.104-0.039l0.104,0.034c15.321,4.796,35.363,15.056,43.845,36.693L472.795,231.361z
						 M417.589,201.589c18.545,0.832,41.348,12.505,54.336,27.709c-8.785-20.006-27.814-29.686-42.514-34.306
						C426.186,196.229,420.755,199.273,417.589,201.589z"/>
				</g>
			</g>
			<g>
				<path fill="#333232" d="M475.871,219.882c-0.609-8.241-9.014-19.447-10.837-21.605c-5.407-5.033-11.821-7.587-19.145-7.587
					c-2.507,0-5.008,0.514-7.475,1.042C450.232,196.459,468.065,206.898,475.871,219.882z"/>
				<path fill="#4C4B4B" d="M472.462,209.621c-2.749-5.333-6.316-10.026-7.428-11.345c-5.407-5.033-11.821-7.587-19.145-7.587
					c-2.507,0-5.008,0.514-7.475,1.042c8.505,3.402,20.345,9.971,29.101,18.108C469.29,209.469,470.918,209.349,472.462,209.621z"/>
				<path fill="#282727" d="M475.635,220.021c-7.166-11.92-23.909-22.67-37.322-28.036l-0.832-0.334l0.877-0.188
					c2.181-0.467,4.896-1.047,7.532-1.047c7.365,0,13.868,2.577,19.328,7.659c0.127,0.144,10.239,12.497,10.924,21.788
					L475.635,220.021z M439.344,191.813c12.092,4.983,28.279,14.794,36.113,26.891c-1.229-7.786-8.611-17.859-10.633-20.252
					c-5.333-4.961-11.713-7.488-18.935-7.488C443.647,190.964,441.326,191.396,439.344,191.813z"/>
			</g>
			<g>
				<path fill="#333232" d="M366.952,193.002c-4.111,4.568-23.591,17.487-33.965,36.908c-0.515,6.151-0.238,11.96,0.829,17.404
					c9.431-23.09,29.014-37.452,34.75-45.681C367.524,198.681,366.952,193.002,366.952,193.002z"/>
				<path fill="#4C4B4B" d="M359.873,199.226c-7.779,6.56-19.458,16.779-26.885,30.684c-0.515,6.151-0.238,11.96,0.829,17.404
					c7.994-19.574,23.436-33.04,31.401-41.649C363.14,203.728,360.115,200.215,359.873,199.226z"/>
				<g>
					<g>
						<path fill="#333232" d="M369.362,204.282c-2.851,7.91-24.458,30.906-27.48,62.231c0.163,0.237,0.315,0.478,0.483,0.71
							c1.226,1.707,2.521,3.263,3.847,4.709c-0.339-23.904,7.418-28.027,29.536-58.856
							C374.361,212.096,371.033,208.224,369.362,204.282z"/>
						<path fill="#4C4B4B" d="M375.747,213.076c-0.126-0.088-0.273-0.21-0.43-0.345c-2.472-1.227-5.778-2.704-7.677-5.016
							c-5.724,9.384-20.4,28.229-24.797,52.02c1.225,0.799,2.591,1.382,3.856,2.038C348.73,246.021,357.176,238.963,375.747,213.076
							z"/>
						<path fill="#282727" d="M346.496,272.646l-0.486-0.528c-1.443-1.573-2.708-3.123-3.867-4.734
							c-0.101-0.142-0.197-0.282-0.292-0.426c-0.064-0.097-0.128-0.191-0.195-0.288l-0.056-0.081l0.009-0.102
							c2.219-22.998,14.545-41.701,21.909-52.876c2.701-4.096,4.833-7.331,5.586-9.42l0.236-0.657l0.272,0.643
							c1.682,3.967,4.991,7.758,6.292,8.678l0.224,0.159l-0.16,0.224c-4.459,6.214-8.294,11.291-11.677,15.769
							c-13.155,17.413-18.077,23.929-17.808,42.925L346.496,272.646z M342.164,266.44c0.047,0.072,0.094,0.143,0.141,0.213
							c0.093,0.136,0.185,0.275,0.282,0.411c1.015,1.41,2.113,2.772,3.344,4.151c-0.137-18.63,4.857-25.24,17.927-42.54
							c3.343-4.424,7.125-9.431,11.514-15.542c-1.392-1.118-4.305-4.511-5.995-8.148c-0.926,2.137-2.926,5.172-5.4,8.926
							C356.649,225.026,344.395,243.623,342.164,266.44z"/>
					</g>
				</g>
				<path fill="#282727" d="M333.725,248.263l-0.176-0.897c-1.068-5.445-1.349-11.328-0.834-17.479l0.031-0.105
					c7.87-14.732,20.87-25.657,28.638-32.185c2.444-2.054,4.377-3.677,5.366-4.777l0.572-0.612l0.059,0.795
					c0.005,0.057,0.593,5.553,1.443,8.541l0.046,0.131l-0.08,0.116c-1.708,2.451-4.682,5.489-8.125,9.007
					c-8.429,8.612-19.972,20.406-26.594,36.621L333.725,248.263z M333.254,229.989c-0.476,5.744-0.253,11.246,0.662,16.373
					c6.713-15.876,18.044-27.455,26.358-35.948c3.373-3.446,6.292-6.429,7.988-8.823c-0.827-2.438-1.346-6.462-1.518-7.973
					c-1.084,1.097-2.848,2.58-5.01,4.396C354.006,204.51,341.077,215.375,333.254,229.989z"/>
			</g>
			<g>
				<path fill="#333232" d="M341.029,193.003c-1.855,1.6-4.016,3.581-5.963,5.673c0.126,2.281,0.165,4.801,0.098,7.59
					c4.324-4.103,13.641-12.597,20.282-16.179C351.858,191.574,344.11,192.713,341.029,193.003z"/>
				<path fill="#4C4B4B" d="M337.299,196.416c-0.755,0.732-1.509,1.483-2.232,2.26c0.126,2.281,0.165,4.801,0.098,7.59
					c2.253-2.137,5.738-5.017,9.617-8.223C342.355,198.177,338.964,197.322,337.299,196.416z"/>
				<path fill="#282727" d="M334.875,206.917l0.016-0.658c0.065-2.682,0.031-5.228-0.097-7.569l-0.006-0.116l0.079-0.085
					c1.675-1.799,3.688-3.713,5.984-5.693l0.065-0.057l0.087-0.008c2.979-0.28,10.725-1.399,14.338-2.896l0.235,0.493
					c-6.487,3.5-15.456,11.613-20.224,16.137L334.875,206.917z M335.347,198.777c0.113,2.132,0.149,4.429,0.104,6.841
					c4.341-4.094,11.636-10.653,17.65-14.464c-3.944,1.089-9.476,1.874-11.959,2.113
					C338.925,195.182,336.975,197.036,335.347,198.777z"/>
			</g>
		</g>
	</g>
	<g>
		<g>
			<path fill="#D6D4D4" d="M303.379,82.75c-1.521-9.538-11.017-18.546-21.513-23.282c-8.691-3.921-22.363-5.787-23.179-1.059
				c-1.049,6.084-2.742,25.615,6.342,35.484c9.085,9.868,19.327,13.156,25.128,24.39l16.278-5.542
				C300.892,105.863,305.213,94.243,303.379,82.75z"/>
			<path fill="#FFFFFF" d="M292.295,116.529c2.295,2.295,8.607-3.148,8.607-6.017c-0.863-9.849,3.633-23.648,0.062-34.552
				c-3.772-6.864-11.147-12.904-19.098-16.492c-8.691-3.921-22.363-5.787-23.179-1.059c-1.049,6.084-2.742,25.615,6.342,35.484
				C268.186,97.322,284.22,104.296,292.295,116.529z"/>
			<g>
				<path fill="#F27D66" d="M293.373,109.439c1.453-0.627,0.287-25.821-6.424-33.535c-9.634-11.073-21.803-14.205-23.639-14.541
					c-2.624-0.48,1.722,15.772,7.602,25.129C276.54,95.452,291.019,110.454,293.373,109.439z"/>
				<path fill="#F4A68B" d="M286.557,99.613c-1.147-2.871-3.297-4.783-3.441-8.608c1.339,3.155,6.023,9.563,6.31,7.459
					c1.244-12.418-2.679-22.383-12.573-31.233c-6.559-4.187-12.325-5.645-13.543-5.867c-2.624-0.48,1.722,15.772,7.602,25.129
					c2.713,4.317,7.477,10.033,11.951,14.687c-1.336-2.097-2.522-4.284-3.189-6.731C282.108,98.068,287.276,102.098,286.557,99.613z
					"/>
				<path fill="#828181" d="M270.685,86.634c-5.231-8.325-9.6-23.005-8.117-25.195c0.187-0.277,0.468-0.396,0.789-0.336
					c0.132,0.022,13.284,2.548,23.794,14.628c6.256,7.19,7.684,29.198,6.788,33.133c-0.109,0.478-0.251,0.73-0.46,0.82
					c-0.175,0.076-0.39,0.091-0.644,0.046C289.367,109.094,276.116,95.28,270.685,86.634z M263.01,61.737
					c-1.26,1.858,2.756,16.066,8.126,24.615c5.256,8.365,18.497,22.249,21.797,22.853c0.142,0.026,0.257,0.022,0.315,0
					c1.182-1.07-0.007-25.659-6.503-33.124c-8.62-9.91-19.875-13.792-23.485-14.455C263.147,61.605,263.079,61.636,263.01,61.737z"
					/>
			</g>
			<path fill="#828181" d="M289.902,118.415c-3.469-6.713-8.595-10.611-14.024-14.738c-3.655-2.778-7.435-5.652-11.059-9.59
				c-10.475-11.376-6.585-34.738-6.414-35.728c0.155-0.892,0.72-1.604,1.679-2.112c4.154-2.206,14.877-0.21,21.901,2.96
				c9.617,4.339,20.047,13.289,21.678,23.499c0.717,4.504,0.5,8.956,0.289,13.259c-0.327,6.698-0.61,12.482,2.707,16.595
				l-0.447,0.362c-3.453-4.284-3.151-10.453-2.832-16.985c0.208-4.274,0.425-8.694-0.285-13.142
				c-1.595-9.999-11.871-18.789-21.347-23.067c-6.89-3.107-17.503-5.042-21.395-2.974c-0.796,0.421-1.262,0.995-1.384,1.704
				c-0.169,0.977-4.014,24.069,6.271,35.24c3.592,3.902,7.351,6.759,10.985,9.522c5.482,4.167,10.66,8.104,14.187,14.931
				l-0.341,0.823L289.902,118.415z"/>
		</g>
		<g>
			<path fill="#828181" d="M297.486,116.737c-0.141-0.17-3.483-4.182-4.484-7.34l0.546-0.174c0.97,3.05,4.347,7.105,4.38,7.145
				L297.486,116.737z"/>
		</g>
	</g>
	<g>
		<path fill="#D6D4D4" d="M370.323,146.85c3.633,6.119,7.84,15.3,3.25,27.73c-4.588,12.431-24.189,19.985-37.676,18.168
			c-4.207,1.339-14.057,7.554-18.644,19.7c-8.797-6.312-38.729-22.951-32.799-32.514c5.929-9.562-19.508-46.281,16.447-70.571
			c6.31-8.604,19.453-26.51,40.806-12.549c0.856,4.954,5.955,10.9,16.593,17.788C371.428,123.099,370.323,146.85,370.323,146.85z"/>
		<path fill="#FFFFFF" d="M307.968,190.195c4.163,2.175,12.646-3.139,13.12-10.297c1.722,1.722,8.665,4.135,11.096,4.313
			c16.064,1.723,29.438-6.441,33.455-23.081c2.295-8.606-1.854-16.835-6.678-24.89c1.33-0.154,2.69,0.181,4.047,1.407
			c-0.956-9.098-2.054-14.083-9.752-19.103c-1.875-0.91-3.503-2.295-6.094-2.725c7.749-2.535-4.729-14.81-5.454-19.006
			c-21.353-13.961-34.496,3.945-40.806,12.549c-35.955,24.29-10.518,61.01-16.447,70.571c-4.166,6.718,11.426,19.592,22.896,27.26
			C307.883,202.704,299.193,193.222,307.968,190.195z"/>
		<path fill="#828181" d="M317.39,212.897l-0.306-0.218c-1.521-1.091-3.68-2.495-6.182-4.122
			c-11.872-7.716-31.739-20.633-26.692-28.773c1.749-2.82,0.652-8.194-0.733-14.997c-3.137-15.391-7.878-38.647,17.221-55.633
			c4.574-6.235,13.066-17.778,25.785-17.778c4.931,0,10.106,1.748,15.383,5.197l0.104,0.069l0.02,0.124
			c0.896,5.183,6.434,11.103,16.468,17.595c12.708,8.228,12.21,30.82,12.156,32.417c3.891,6.571,7.748,15.671,3.231,27.903
			c-4.247,11.503-20.835,18.624-33.768,18.624c-1.438,0-2.835-0.088-4.151-0.262c-4.889,1.585-14.148,8.249-18.402,19.504
			L317.39,212.897z M326.482,91.949c-12.454,0-20.844,11.439-25.349,17.585l-0.072,0.068c-24.83,16.775-20.131,39.82-17.024,55.071
			c1.414,6.928,2.53,12.4,0.66,15.413c-4.751,7.664,14.823,20.388,26.516,27.991c2.347,1.525,4.396,2.855,5.905,3.923
			c4.4-11.286,13.77-17.959,18.695-19.526l0.062-0.019l0.062,0.009c1.309,0.175,2.703,0.266,4.139,0.266
			c12.741,0,29.067-6.978,33.231-18.25c4.448-12.05,0.608-21.018-3.231-27.485l-0.042-0.074l0.004-0.085
			c0.013-0.237,0.942-23.687-11.893-31.994c-10.093-6.533-15.711-12.539-16.696-17.856
			C336.302,93.644,331.267,91.949,326.482,91.949z"/>
		<g>
			<path fill="#4C4B4B" d="M326.862,102.482c0.855,2.76-0.749,5.841,1.283,9.769c1.395-5.792,5.997-5.501,8.494-9.297
				C330.042,101.895,326.862,102.482,326.862,102.482z"/>
			<path fill="#282727" d="M328.241,113.028l-0.337-0.651c-1.254-2.423-1.16-4.542-1.078-6.411c0.054-1.207,0.103-2.345-0.224-3.402
				l-0.091-0.293l0.303-0.057c0.037-0.007,0.923-0.167,2.72-0.167c2.107,0,4.513,0.215,7.149,0.639l0.417,0.067l-0.233,0.353
				c-1.032,1.568-2.414,2.461-3.751,3.326c-2.003,1.294-3.895,2.518-4.705,5.884L328.241,113.028z M327.209,102.709
				c0.26,1.052,0.213,2.137,0.162,3.281c-0.075,1.706-0.152,3.464,0.707,5.479c0.954-3.048,2.877-4.291,4.742-5.497
				c1.237-0.8,2.412-1.56,3.344-2.815c-2.439-0.374-4.667-0.564-6.631-0.564C328.375,102.593,327.6,102.663,327.209,102.709z"/>
		</g>
		<g>
			<path fill="#333232" d="M352.048,111.193c-0.601,14.669-3.366,14.911-6.391,25.228c4.784-4.099,11.236-15.879,11.645-22.711
				C356.347,112.479,352.117,109.482,352.048,111.193z"/>
			<path fill="#4C4B4B" d="M351.576,117.423c-1.058,8.792-3.397,10.397-5.919,18.998c3.43-2.939,7.715-9.824,10.02-16.005
				C354.655,118.981,353.175,118.042,351.576,117.423z"/>
			<path fill="#282727" d="M345.136,137.228l0.258-0.883c0.989-3.372,1.958-5.693,2.814-7.742c1.768-4.231,3.164-7.573,3.567-17.421
				c0.019-0.487,0.322-0.778,0.81-0.778c1.313,0,4.151,2.131,4.933,3.137l0.063,0.081l-0.006,0.103
				c-0.419,6.972-6.969,18.813-11.742,22.904L345.136,137.228z M352.585,110.952c-0.196,0-0.256,0.057-0.264,0.252
				c-0.409,9.947-1.82,13.328-3.609,17.609c-0.766,1.836-1.625,3.893-2.505,6.73c4.581-4.5,10.369-15.23,10.815-21.745
				C356.177,112.786,353.584,110.952,352.585,110.952z"/>
		</g>
		<g>
			<path fill="#333232" d="M358.57,115.129c-1.609,9.67-6.227,30.291-17.042,36.768c6.834,3.826,12.992,30.532-4.501,41.021
				c3.05,0.385,10.522-0.684,10.522-0.684c2.005-2.63,11.971-18.264,1.907-39.246c9.093-10.286,14.044-22.038,14.644-32.535
				C363.04,118.114,360.056,115.525,358.57,115.129z"/>
			<path fill="#4C4B4B" d="M361.813,131.993c-0.781-3.636-2.102-7.215-4.551-10.151c-2.336,10.456-7.025,24.84-15.734,30.055
				c5.288,2.96,10.504,18.904,4.339,31.149c2.596-0.889,4.715-1.343,6.987-2.811c1.649-6.935,1.819-16.368-3.398-27.246
				c4.329-4.896,7.707-10.125,10.135-15.392c-0.54-1.014-0.737-1.163-1.564-1.991c0.921,0.061,1.583,0.168,2.493,0.652
				C361.027,135.036,361.408,133.21,361.813,131.993z"/>
			<path fill="#282727" d="M338.691,193.276c-0.676,0-1.248-0.029-1.7-0.086l-0.783-0.1l0.677-0.406
				c9.988-5.988,11.334-16.627,11.247-22.436c-0.132-8.932-3.602-16.356-6.739-18.113l-0.412-0.23l0.405-0.242
				c10.854-6.5,15.444-27.745,16.914-36.578l0.156-0.724l0.418,0.28c1.553,0.992,4.396,3.323,5.474,5.702l0.027,0.062l-0.005,0.066
				c-0.63,11.023-5.81,22.582-14.592,32.566c10.627,22.359-1.492,38.68-2.013,39.365l-0.123,0.167l-0.087,0.016
				C347.301,192.769,342.956,193.491,338.691,193.276z M337.874,192.712c0.25,0.011,0.523,0.017,0.817,0.017
				c3.157,0,7.919-0.64,8.708-0.748c1.083-1.469,12.144-17.329,1.811-38.873l-0.078-0.163l0.119-0.136
				c8.754-9.902,13.928-21.372,14.572-32.302c-1.015-2.178-3.545-4.654-4.974-5.235c-1.521,8.982-6.151,29.831-16.801,36.625
				c3.632,2.451,6.513,10.338,6.632,18.342C348.766,176.026,347.453,186.514,337.874,192.712z"/>
		</g>
		<g>
			<path fill="#333232" d="M368.364,129.686c-1.398,6.587-4.375,16.795-9.958,21.299c3.441,4.92,9.302,20.818-0.243,37.98
				c3.275-1.095,5.937-2.877,7.875-4.634c2.389-2.167,5.102-23.142-1.093-31.16c1.574-2.544,3.953-6.375,5.426-10.103
				C370.354,139.959,368.869,130.668,368.364,129.686z"/>
			<path fill="#4C4B4B" d="M366.147,155.035c-0.206-0.331-0.974-1.565-1.203-1.862c0.111-0.179,0.791-1.082,0.91-1.273
				c-0.56-2.612-1.515-4.955-2.404-7.308c-1.301,2.356-3.225,4.927-5.044,6.394c2.169,3.1,5.312,8.139,4.943,17.526
				C365.195,164.253,366.867,160.586,366.147,155.035z"/>
			<path fill="#282727" d="M357.582,189.448l0.343-0.616c9.672-17.392,3.465-33.104,0.257-37.69l-0.146-0.208l0.198-0.161
				c5.643-4.551,8.603-15.201,9.863-21.144l0.16-0.751l0.35,0.684c0.541,1.048,2.021,10.368,2.037,13.506v0.053l-0.019,0.048
				c-1.45,3.674-3.78,7.454-5.349,9.987c6.293,8.439,3.297,29.245,0.946,31.377c-1.614,1.464-4.308,3.467-7.972,4.691
				L357.582,189.448z M358.773,151.037c3.257,4.857,9.151,20.3-0.029,37.433c3.235-1.204,5.634-3.002,7.11-4.341
				c2.259-2.048,4.979-22.889-1.126-30.79l-0.115-0.15l0.14-0.226c1.551-2.505,3.891-6.286,5.344-9.945
				c-0.028-2.752-1.09-9.608-1.693-12.232C366.806,137.891,363.881,146.756,358.773,151.037z"/>
		</g>
		<g>
			<path fill="#282727" d="M370.809,148.263c-1.791-3.55-7.423-7.305-7.479-7.341c0,0,6.132,3.396,7.991,7.082L370.809,148.263z"/>
		</g>
		<g>
			<path fill="#828181" d="M371.321,148.003c-0.413-0.82-0.996-1.639-1.764-2.376c-0.096,0.152-0.128,0.269-0.275,0.441
				c0.66,0.755,1.136,1.418,1.527,2.194l0.408,0.124L371.321,148.003z"/>
		</g>
		<g>
			<path fill="#282727" d="M338.037,193.242c-6.315-0.361-10.875-3.938-10.875-3.938c0.046,0.031,4.747,3.012,10.907,3.365
				L338.037,193.242z"/>
		</g>
		<g>
			<path fill="#828181" d="M336.267,193.055c-5.38-0.829-9.105-3.751-9.105-3.751c0.043,0.029,4.203,2.667,9.822,3.275
				C336.983,192.579,336.552,193.002,336.267,193.055z"/>
		</g>
		<g>
			<path fill="#302E2E" d="M287.345,123.771c1.404-3.566,3.45-5.762,6.491-6.324c2.297-0.424,4.038,1.224,4.818,2.857
				c-1.165-0.971-2.837-1.39-4.584-1.153C291.556,119.494,289.167,121.136,287.345,123.771z"/>
		</g>
		<g>
			<path fill="#302E2E" d="M333.593,125.254c-1.902-3.968-4.796-6.711-8.146-7.724c-2.352-0.711-4.75-0.499-6.578,0.589
				c1.125-1.613,3.671-3.36,7.077-2.237C330.079,117.248,332.463,121.508,333.593,125.254z"/>
		</g>
	</g>
	<g>
		<g>
			<path fill="#D6D4D4" d="M305.376,111.36c0,0-4.374-18.176-18.859-21.73c4.92-6.014,21.729-15.17,26.103-14.486l5.057,3.963
				l0.273-5.467c6.354-2.542,21.479-6.492,40.179,9.86c-4.374,9.272-10.66,22.119-10.66,22.119S319.862,95.097,305.376,111.36z"/>
			<path fill="#FFFFFF" d="M350.667,99.051c1.867-3.863,5.673-11.759,7.461-15.551c-18.701-16.352-33.825-12.403-40.179-9.86
				l-0.273,5.467l-5.057-3.963c-4.374-0.684-21.183,8.473-26.103,14.486c11.767,3.118,17.139,15.52,19.063,21.911
				C305.007,105.878,322.247,90.032,350.667,99.051z"/>
			<path fill="#828181" d="M305.232,111.932l-0.122-0.508c-0.044-0.18-4.504-18.057-18.659-21.528l-0.421-0.104l0.274-0.334
				c4.584-5.604,20.499-14.624,25.802-14.624c0.2,0,0.387,0.014,0.555,0.04l0.07,0.011l4.697,3.682l0.256-5.114l0.162-0.065
				c3.915-1.567,7.986-2.361,12.102-2.361c9.508,0,19.05,4.128,28.36,12.269l0.155,0.136l-0.087,0.188
				c-4.324,9.168-10.599,21.993-10.662,22.122l-0.11,0.224l-0.233-0.089c-0.087-0.033-8.86-3.33-18.946-3.33
				c-9.841,0-17.527,3.026-22.845,8.996L305.232,111.932z M287.006,89.473c12.82,3.443,17.674,18.422,18.502,21.333
				c5.412-5.844,13.118-8.808,22.916-8.808c9.266,0,17.434,2.755,18.906,3.281c0.845-1.731,6.458-13.224,10.461-21.708
				c-9.157-7.962-18.524-11.998-27.844-11.998c-3.988,0-7.936,0.759-11.735,2.256l-0.291,5.817l-5.414-4.243
				c-0.122-0.015-0.257-0.022-0.401-0.022C307.398,75.381,292.163,83.551,287.006,89.473z"/>
		</g>
		<g>
			<path fill="#333232" d="M312.619,75.144c-1.803-0.282-5.722,1.111-10.049,3.266c4.64,5.071,9.728,13.367,11.948,26.435
				c3.155-1.339,6.482-2.065,9.761-2.379c-0.398-5.953-1.943-14.939-7.054-23.711L312.619,75.144z"/>
			<path fill="#4C4B4B" d="M312.619,75.144c-1.803-0.282-5.722,1.111-10.049,3.266c4.126,4.51,8.521,11.566,11.244,23.252
				c2.402-1.814,6.41-3.282,9.94-3.991c-0.829-5.484-2.651-12.261-6.53-18.917L312.619,75.144z"/>
			<path fill="#282727" d="M314.306,105.23l-0.058-0.34c-1.843-10.847-5.839-19.694-11.879-26.297l-0.245-0.267l0.325-0.162
				c4.251-2.116,7.772-3.331,9.658-3.331c0.2,0,0.387,0.014,0.555,0.04l0.07,0.011l4.729,3.731
				c5.132,8.806,6.688,17.819,7.092,23.831l0.017,0.265l-0.264,0.025c-3.533,0.339-6.79,1.132-9.681,2.359L314.306,105.23z
				 M303.016,78.494c5.913,6.582,9.852,15.314,11.712,25.966c2.79-1.145,5.901-1.896,9.26-2.241
				c-0.427-5.94-1.991-14.71-6.974-23.284l-4.507-3.532C310.903,75.204,307.379,76.349,303.016,78.494z"/>
		</g>
		<g>
			<path fill="#333232" d="M347.949,76.263c-4.852-2.673-9.338-4.052-13.344-4.627c0.998,7.427,1.665,19.173-1.4,30.865
				c4.3,0.404,8.07,1.262,10.652,1.978C345.64,97.502,348.057,86.151,347.949,76.263z"/>
			<path fill="#4C4B4B" d="M345.286,98.413c1.418-6.582,2.745-14.771,2.664-22.149c-4.852-2.673-9.338-4.052-13.344-4.627
				c0.818,6.084,1.409,15.066-0.087,24.543C338.372,96.099,342.102,96.656,345.286,98.413z"/>
			<path fill="#282727" d="M344.054,104.817l-0.27-0.076c-2.426-0.671-6.237-1.558-10.605-1.967l-0.32-0.031l0.081-0.312
				c3.021-11.52,2.425-23.085,1.394-30.758l-0.049-0.358l0.358,0.051c4.472,0.641,8.992,2.208,13.438,4.657l0.139,0.077l0.002,0.16
				c0.105,9.7-2.172,20.736-4.101,28.286L344.054,104.817z M333.55,102.26c4.117,0.411,7.717,1.23,10.111,1.881
				c1.896-7.468,4.094-18.229,4.018-27.717c-4.224-2.308-8.513-3.809-12.754-4.464C335.922,79.612,336.455,90.936,333.55,102.26z"/>
		</g>
	</g>
	<g>
		<g>
			<path fill="#D6D4D4" d="M371.902,52.852c-12.472,3.118-24.695,11.128-28.263,21.302c-4.297,12.261-1.86,25.887-9.318,32.343
				l16.782,9.323c8.607-11.189,20.512-12.766,32.455-21.803c11.941-9.037,13.966-30.829,14.017-37.724
				C397.619,50.94,382.229,50.27,371.902,52.852z"/>
			<path fill="#FFFFFF" d="M374.626,93.156c16.549-8.626,24.385-36.145,21.866-39.077c-3.672-3.27-15.916-3.396-24.59-1.228
				c-12.472,3.118-24.695,11.128-28.263,21.302c-4.297,12.261-1.86,25.887-9.318,32.343l2.589,9.323l12.09-1.101
				C354.91,106.019,364.872,98.243,374.626,93.156z"/>
			<path fill="#828181" d="M351.33,115.995c2.833-4.957,8.921-9.257,18.086-13.925c4.546-2.314,9.245-4.708,13.967-8.281
				c13.533-10.238,13.898-36.388,13.905-37.497c0.01-0.815-0.393-1.546-1.191-2.174c-3.874-3.049-15.93-3.035-24.125-0.988
				c-11.27,2.819-24.318,10.442-28.06,21.12c-1.666,4.749-2.419,9.637-2.928,14.39c-1.306,12.263-4.332,16.207-6.851,17.641
				c4.472-3.868,5.31-10.286,6.285-17.716c0.621-4.769,1.266-9.7,2.953-14.506c3.814-10.878,17.043-18.629,28.461-21.484
				c8.34-2.086,20.5-2.148,24.62,1.092c0.944,0.746,1.421,1.629,1.413,2.63c-0.01,1.12-0.382,27.542-14.135,37.95
				c-4.763,3.604-9.484,6.01-14.05,8.334C362.891,106.038,356.479,109.303,351.33,115.995z"/>
		</g>
		<g>
			<path fill="#F27D66" d="M349.956,103.532c-1.417-0.946,4.699-27.373,13.292-34.233c12.337-9.849,25.818-10.805,27.826-10.805
				c2.868,0-4.876,16.351-12.91,25.114C370.476,91.995,352.25,105.062,349.956,103.532z"/>
			<path fill="#F4A68B" d="M362.302,81.267c-0.466,1.756-1.349,5.076,2.965,4.466c-1.658,2.179-10.147,8.321-6.705,11.188
				c0.917,0.612,2.147,0.94,3.28,0.504c5.854-4.143,12.435-9.578,16.322-13.818c5.997-6.542,11.831-17.307,13.209-22.348
				C381.415,64.04,365.146,70.542,362.302,81.267z"/>
			<path fill="#828181" d="M350.468,103.942c-0.275,0-0.501-0.058-0.671-0.171c-0.204-0.137-0.304-0.431-0.329-0.957
				c-0.186-4.335,5.588-27.344,13.6-33.74c13.458-10.744,27.861-10.869,28.004-10.869c0.354,0,0.626,0.183,0.771,0.509
				c1.147,2.607-6.32,17.29-13.468,25.085C370.956,91.895,354.262,103.942,350.468,103.942z M391.073,58.781
				c-3.946,0-16.607,1.931-27.645,10.742c-8.319,6.64-14.339,32.426-13.298,33.785c0.056,0.035,0.181,0.06,0.337,0.06
				c3.608,0,20.304-12.123,27.487-19.956c7.336-8.002,14.336-22.258,13.364-24.466C391.266,58.825,391.198,58.781,391.073,58.781z"
				/>
		</g>
		<g>
			<path fill="#828181" d="M343.46,110.388c0.045-0.039,4.566-3.828,6.241-6.989l0.508,0.267
				C348.481,106.929,343.46,110.388,343.46,110.388z"/>
		</g>
	</g>
	<g>
		<g>
			
				<ellipse transform="matrix(-0.9701 -0.2425 0.2425 -0.9701 537.6688 354.7844)" fill="#E2E0E0" cx="290.67" cy="144.301" rx="9.92" ry="17.499"/>
			<path fill="#FFFFFF" d="M281.045,141.896c-1.276,13.481,15.935,17.706,19.249,4.812c2.342-9.377-0.064-18.053-5.381-19.383
				C289.599,125.998,283.389,132.521,281.045,141.896z"/>
			<path fill="#3F3A36" d="M287.833,161.738L287.833,161.738c-0.5,0-0.999-0.062-1.475-0.182c-5.462-1.365-7.97-10.215-5.591-19.729
				c2.131-8.529,7.609-14.96,12.741-14.96c0.499,0,0.995,0.06,1.476,0.18c2.673,0.668,4.723,3.11,5.768,6.875
				c1.029,3.707,0.964,8.273-0.18,12.855C298.44,155.307,292.963,161.738,287.833,161.738z M293.508,127.44
				c-4.875,0-10.115,6.246-12.184,14.526c-2.302,9.207,0.019,17.746,5.172,19.034c0.434,0.108,0.882,0.164,1.335,0.164
				c4.876,0,10.114-6.244,12.184-14.525c1.122-4.488,1.189-8.95,0.183-12.564c-0.986-3.557-2.889-5.855-5.354-6.472
				C294.41,127.495,293.962,127.44,293.508,127.44z"/>
		</g>
		<g>
			
				<ellipse transform="matrix(-0.9701 -0.2426 0.2426 -0.9701 536.9166 360.8526)" fill="#17C4E0" cx="290.671" cy="147.375" rx="6.906" ry="12.181"/>
			<path fill="#39DAFF" d="M283.972,145.7c-2.47,9.969,10.54,11.894,13.399,3.35c1.63-6.528-0.048-12.568-3.746-13.493
				C289.923,134.633,285.603,139.173,283.972,145.7z"/>
			<path fill="#1EADC4" d="M288.696,159.601h-0.002c-0.355,0-0.708-0.044-1.047-0.129c-1.893-0.474-3.341-2.195-4.08-4.847
				c-0.719-2.595-0.676-5.79,0.125-8.993c1.516-6.073,5.281-10.48,8.954-10.48c0.355,0,0.708,0.042,1.047,0.128
				c1.895,0.473,3.343,2.195,4.078,4.847c0.723,2.595,0.679,5.79-0.123,8.993C296.131,155.191,292.366,159.601,288.696,159.601z
				 M292.646,135.725c-3.356,0-6.966,4.319-8.399,10.046c-0.775,3.109-0.821,6.199-0.127,8.7c0.678,2.445,1.98,4.022,3.665,4.445
				c0.295,0.073,0.6,0.111,0.908,0.111c3.356,0,6.967-4.319,8.399-10.046c0.777-3.11,0.821-6.199,0.129-8.701
				c-0.679-2.444-1.981-4.023-3.667-4.445C293.259,135.762,292.954,135.725,292.646,135.725z"/>
		</g>
		<g>
			<path fill="#D6D4D4" d="M290.96,123.576c5.821-1.994,12.152,3.038,10.171,17.873l-0.002-0.003
				c0.479-7.168-1.918-13.047-6.217-14.122c-5.314-1.327-11.524,5.196-13.867,14.571c-0.309,1.241-0.534,2.467-0.682,3.667
				c0,0-0.002,0.002-0.002,0.004C280.687,134.513,283.995,125.963,290.96,123.576z"/>
			<path fill="#3F3A36" d="M280.63,145.667l-0.556-0.11c0.357-12.086,4.191-19.989,10.792-22.251
				c0.836-0.288,1.683-0.434,2.511-0.434c2.038,0,3.87,0.861,5.295,2.492c2.738,3.129,3.713,8.856,2.742,16.123l-0.232,1.727
				l-0.343-1.746l0.003-0.04c0.483-7.251-1.927-12.806-5.999-13.824c-0.435-0.108-0.882-0.163-1.336-0.163
				c-4.875,0-10.115,6.246-12.184,14.526c-0.298,1.193-0.526,2.415-0.676,3.632L280.63,145.667z M293.377,123.446
				c-0.763,0-1.546,0.137-2.324,0.401c-5.517,1.891-9.029,7.945-10.089,17.237c2.254-8.159,7.561-14.218,12.543-14.218
				c0.499,0,0.995,0.06,1.476,0.18c3.221,0.806,5.477,4.195,6.223,8.965c-0.038-4.522-1.048-8.078-2.965-10.271
				C296.927,124.241,295.246,123.446,293.377,123.446z"/>
		</g>
		<g>
			<path fill="#4C4B4B" d="M294.913,127.324c4.299,1.075,6.696,6.954,6.217,14.122c-2.091-17.072-17.783-12.191-20.766,4.117
				c0.147-1.2,0.373-2.427,0.682-3.667C283.389,132.521,289.599,125.998,294.913,127.324z"/>
			<path fill="#281F1F" d="M280.646,145.614l-0.567-0.085c0.152-1.24,0.385-2.484,0.688-3.701c2.131-8.529,7.609-14.96,12.741-14.96
				c0.499,0,0.995,0.06,1.476,0.18c4.349,1.087,6.935,6.882,6.431,14.418l-0.571,0.016c-0.798-6.532-3.779-10.431-7.972-10.431
				C288.237,131.05,282.376,136.156,280.646,145.614z M293.508,127.44c-4.176,0-8.619,4.58-11.108,11.097
				c2.721-5.276,6.934-8.062,10.471-8.062c3.834,0,6.716,2.953,8.01,8.042c-0.255-5.793-2.529-10.038-6.037-10.914
				C294.41,127.495,293.962,127.44,293.508,127.44z"/>
		</g>
		<g>
			<path fill="#281F1F" d="M291.537,127.633c-5.072-4.236-3.524-7.639-3.524-7.639c-0.01,0.032-0.862,3.228,3.892,7.198
				L291.537,127.633z"/>
		</g>
		<g>
			<path fill="#281F1F" d="M285.982,131.808c-8.752-1.786-7.473-6.137-7.473-6.137l-0.282-0.051l0.282,0.049
				c-0.007,0.04-0.57,3.912,7.588,5.576L285.982,131.808z"/>
		</g>
		<g>
			<path fill="#281F1F" d="M280.788,138.15c-3.784,0-5.317-3.095-5.317-3.095c0.095,0.133,2.388,3.272,6.896,2.358l0.114,0.56
				C281.882,138.098,281.317,138.15,280.788,138.15z"/>
		</g>
		<g>
			
				<ellipse transform="matrix(-0.9702 -0.2424 0.2424 -0.9702 535.2463 367.9651)" cx="290.261" cy="151.054" rx="4.719" ry="6.264"/>
		</g>
		
			<ellipse transform="matrix(0.9928 0.1196 -0.1196 0.9928 19.7128 -33.2914)" fill="#FFFFFF" cx="287.268" cy="147.617" rx="2.319" ry="3.249"/>
		
			<ellipse transform="matrix(0.9908 0.1351 -0.1351 0.9908 23.6185 -37.9437)" fill="#FFFFFF" cx="291.351" cy="155.032" rx="0.894" ry="1.252"/>
	</g>
	<g>
		<g>
			<path fill="#FFFFFF" d="M297.843,122.56c-3.063,15.493,1.912,31.896-8.608,37.102c-10.518,5.209-29.452,0.957-26.392,15.683
				c2.786,13.404,29.452,17.611,43.222,8.797l3.961-61.582H297.843z"/>
			<g>
				<path fill="#4C4B4B" d="M309.26,108.072c-3.611,11.201-1.346,16.288-4.898,27.149c-0.122,0.373-0.331,0.802-0.385,1.137
					c0.31-0.275,0.516-0.689,0.763-1.03c8.73-12.098,7.583-21.68,17.133-32.374C313.452,104.292,309.26,108.072,309.26,108.072z"/>
				<path fill="#282727" d="M303.584,137.071l0.122-0.756c0.039-0.244,0.146-0.516,0.249-0.778c0.052-0.136,0.105-0.271,0.147-0.398
					c1.762-5.385,2.077-9.254,2.412-13.351c0.327-4.007,0.665-8.151,2.487-13.798l0.022-0.07l0.055-0.049
					c0.173-0.157,4.348-3.852,12.751-5.186l0.758-0.121l-0.511,0.572c-5.076,5.686-7.1,11.028-9.242,16.685
					c-1.865,4.924-3.793,10.015-7.873,15.668c-0.074,0.101-0.143,0.21-0.213,0.319c-0.17,0.264-0.347,0.539-0.589,0.754
					L303.584,137.071z M309.498,108.23c-1.782,5.549-2.116,9.643-2.439,13.602c-0.312,3.822-0.635,7.77-2.271,12.958
					c3.853-5.444,5.723-10.382,7.534-15.163c2.088-5.513,4.064-10.731,8.837-16.274C313.912,104.671,309.995,107.811,309.498,108.23
					z"/>
			</g>
			<path fill="#828181" d="M287.956,189.065c-5.145,0-10.339-0.921-14.821-2.806c-5.877-2.473-9.632-6.329-10.572-10.855
				c-0.665-3.201-0.352-5.679,0.956-7.58c2.449-3.556,7.969-4.447,13.816-5.392c4.129-0.667,8.4-1.355,11.773-3.026
				c6.803-3.368,7.139-11.663,7.188-21.273c0.063-12.744,1.827-15.516,1.827-15.516c-1.03,5.22-1.144,10.459-1.252,15.527
				c-0.212,9.795-0.395,18.254-7.509,21.776c-3.449,1.709-7.764,2.405-11.937,3.079c-5.72,0.924-11.124,1.796-13.433,5.15
				c-1.216,1.764-1.499,4.1-0.869,7.138c0.902,4.337,4.537,8.047,10.235,10.445c10.213,4.297,24.208,3.51,32.552-1.831l0.309,0.483
				C301.397,187.471,294.723,189.065,287.956,189.065z"/>
		</g>
	</g>
	<g>
		<g>
			<ellipse fill="#E2E0E0" cx="322.262" cy="146.754" rx="9.921" ry="17.499"/>
			<path fill="#FFFFFF" d="M332.184,146.754c-0.64,7.401-20.764,14.984-19.843,0c0-9.665,4.443-17.499,9.922-17.499
				C327.742,129.255,332.184,137.089,332.184,146.754z"/>
			<path fill="#3F3A36" d="M322.263,164.54c-5.628,0-10.208-7.979-10.208-17.786s4.58-17.785,10.208-17.785
				c5.629,0,10.207,7.978,10.207,17.785S327.892,164.54,322.263,164.54z M322.263,129.543c-5.312,0-9.636,7.72-9.636,17.211
				s4.323,17.212,9.636,17.212c5.312,0,9.634-7.721,9.634-17.212S327.574,129.543,322.263,129.543z"/>
		</g>
		<g>
			<ellipse fill="#17C4E0" cx="323.527" cy="150.116" rx="6.906" ry="12.182"/>
			<path fill="#39DAFF" d="M330.434,150.116c-0.199,4.503-14.616,11.623-13.813,0c0-6.728,3.092-12.18,6.906-12.18
				C327.342,137.936,330.434,143.388,330.434,150.116z"/>
			<path fill="#1EADC4" d="M323.527,162.585c-3.968,0-7.192-5.593-7.192-12.469c0-6.875,3.225-12.468,7.192-12.468
				s7.193,5.594,7.193,12.468C330.72,156.992,327.495,162.585,323.527,162.585z M323.527,138.221c-3.65,0-6.62,5.336-6.62,11.895
				c0,6.559,2.969,11.896,6.62,11.896c3.652,0,6.619-5.336,6.619-11.896C330.146,143.558,327.179,138.221,323.527,138.221z"/>
		</g>
		<g>
			<path fill="#D6D4D4" d="M327.006,126.577c-5.166-3.346-12.526,0-14.201,14.873c0,0,0-0.002,0.002-0.003
				c1.275-7.07,5.025-12.192,9.455-12.192c5.479,0,9.921,7.834,9.921,17.499c0,1.277-0.08,2.521-0.227,3.722
				c0,0.001,0,0.002,0,0.005C334.321,139.678,333.186,130.583,327.006,126.577z"/>
			<path fill="#3F3A36" d="M331.67,153.132v-2.69c0.152-1.216,0.226-2.457,0.226-3.688c0-9.491-4.322-17.211-9.634-17.211
				c-4.197,0-7.884,4.803-9.173,11.955l-0.016,0.056l-0.788,1.96l0.235-2.097c1.355-12.028,6.394-16.315,10.654-16.315
				c1.362,0,2.742,0.428,3.986,1.235c5.859,3.797,7.66,12.394,5.075,24.206L331.67,153.132z M322.263,128.969
				c5.479,0,9.965,7.564,10.199,17.017c1.219-9.271-0.717-15.996-5.611-19.167c-1.153-0.747-2.421-1.143-3.675-1.143
				c-3.334,0-7.185,2.866-9.143,10.52C315.913,131.727,318.93,128.969,322.263,128.969z"/>
		</g>
		<g>
			<path fill="#4C4B4B" d="M322.263,129.255c-4.43,0-8.179,5.122-9.455,12.192c4.542-14.487,20.292-8.846,19.148,9.029
				c0.147-1.201,0.227-2.445,0.227-3.722C332.184,137.089,327.742,129.255,322.263,129.255z"/>
			<path fill="#281F1F" d="M332.242,150.511l-0.571-0.053c0.377-5.892-1.055-10.886-4.033-14.062
				c-1.752-1.869-3.912-2.896-6.078-2.896c-3.733,0-6.901,3.003-8.479,8.032l-0.556-0.136c1.34-7.433,5.253-12.427,9.737-12.427
				c5.629,0,10.207,7.978,10.207,17.785C332.47,148.008,332.394,149.273,332.242,150.511z M321.56,132.926
				c2.326,0,4.635,1.094,6.495,3.077c1.715,1.827,2.934,4.226,3.616,7.033c-0.954-7.71-4.811-13.493-9.408-13.493
				c-3.474,0-6.598,3.291-8.302,8.481C315.797,134.78,318.495,132.926,321.56,132.926z"/>
		</g>
		<g>
			<path fill="#281F1F" d="M325.464,130.372l-0.25-0.516c5.575-2.701,5.522-6.008,5.521-6.04
				C330.735,123.816,331.411,127.493,325.464,130.372z"/>
		</g>
		<g>
			<path fill="#281F1F" d="M330.951,135.793c-0.356,0-0.727-0.008-1.114-0.025l0.027-0.573c8.316,0.36,8.709-3.531,8.713-3.571
				C338.577,131.625,338.794,135.793,330.951,135.793z"/>
		</g>
		<g>
			<path fill="#281F1F" d="M335.153,143.408c-1.02,0-2.172-0.214-3.411-0.807l0.248-0.517c4.149,1.982,7.136-0.509,7.259-0.617
				C339.249,141.467,337.833,143.408,335.153,143.408z"/>
		</g>
		<g>
			<ellipse cx="324.086" cy="153.639" rx="4.72" ry="6.264"/>
		</g>
		
			<ellipse transform="matrix(0.9999 -0.0131 0.0131 0.9999 -1.934 4.2157)" fill="#FFFFFF" cx="320.949" cy="149.792" rx="2.554" ry="3.578"/>
		<path fill="#FFFFFF" d="M326.301,157.633c0.174,0.671-0.074,1.313-0.553,1.437c-0.478,0.124-1.008-0.32-1.178-0.989
			c-0.173-0.671,0.076-1.314,0.551-1.438C325.603,156.52,326.128,156.962,326.301,157.633z"/>
	</g>
	<g>
		<g>
			<path fill="#282626" d="M303.58,175.728c4.285-0.329,7.171,2.581,10.04,14.629c2.589,10.875,10.422,16.256,1.817,27.827
				c0.573,10.137-11.092,15.874-20.463,17.594c-9.371,1.724-19.7,0.575-21.612-5.734c-1.911-6.31,3.06-11.668,1.723-19.317
				C303.195,192.956,301.092,175.919,303.58,175.728z"/>
			<path fill="#706E6E" d="M276.805,230.569c-4.186-7.03,2.439-17.357,1.689-22.096c-2.061,1.571-0.888,0.658-3.41,2.253
				c1.337,7.649-3.634,13.007-1.723,19.317c1.576,5.199,8.866,6.892,16.625,6.363C284.621,236.788,278.954,233.795,276.805,230.569z
				"/>
			<path d="M287.337,236.788c-7.773,0-12.967-2.428-14.25-6.662c-0.996-3.281-0.181-6.28,0.681-9.455
				c0.827-3.044,1.681-6.191,1.032-9.895l-0.032-0.19l0.162-0.102c21.083-13.329,25.125-26.316,26.851-31.864
				c0.625-2.008,0.97-3.117,1.777-3.178c4.857-0.372,7.639,3.5,10.341,14.849c0.734,3.081,1.876,5.68,2.98,8.196
				c2.693,6.133,5.021,11.433-1.149,19.786c0.463,9.573-10.047,15.831-20.704,17.791C292.4,236.542,289.816,236.788,287.337,236.788
				z M275.396,210.867c0.611,3.747-0.244,6.902-1.074,9.958c-0.838,3.09-1.632,6.012-0.685,9.135
				c1.204,3.976,6.198,6.256,13.701,6.256c2.409,0,5.03-0.249,7.584-0.719c10.446-1.918,20.754-8.009,20.227-17.296l-0.005-0.104
				l0.062-0.083c6.049-8.132,3.885-13.059,1.147-19.295c-1.116-2.538-2.267-5.163-3.013-8.293
				c-2.861-12.02-5.62-14.435-9.146-14.435c-0.194,0-0.392,0.009-0.592,0.025c-0.422,0.031-0.798,1.244-1.274,2.778
				C300.586,184.384,296.519,197.463,275.396,210.867z"/>
		</g>
		<g>
			<path fill="#591507" d="M306.064,180.795c-7.179,19.291-19.219,25.307-19.219,25.307c-4.246,7.83-7.981,18.012-2.556,18.73
				c5.424,0.717,15.312-1.445,18.62-5.022c5.018-5.426,5.294-25.512,9.432-34.208c-1.072-3.507-2.18-5.883-3.385-7.424
				C307.805,178.275,306.702,179.085,306.064,180.795z"/>
			<path fill="#7C250E" d="M298.284,195.855c-4.251,4.465-11.439,10.246-11.439,10.246c-4.246,7.83-7.981,18.012-2.556,18.73
				c3.191,0.42,7.929-0.155,11.962-1.428C293.666,215.772,291.514,203.122,298.284,195.855z"/>
			<g>
				<g>
					<path fill="#E86262" d="M284.289,224.832c5.424,0.717,15.312-1.445,18.62-5.022c2.52-2.722,3.843-9.14,5.059-15.955
						c-4.417-2.93-11.274,2.142-13.093,6.967c-4.906-4.12-11.976,3.73-12.702,12.727
						C282.606,224.243,283.292,224.699,284.289,224.832z"/>
					<path fill="#FC8383" d="M291.626,224.368c14.593-3.768,8.128-10.39,14.973-20.852c-4.407-1.95-10.396,3.782-11.724,7.305
						c-3.921-3.292-8.172,0.526-10.243,5.259C281.301,224.535,285.912,225.256,291.626,224.368z"/>
					<path fill="#F4C9C9" d="M290.426,219.419c-0.302,1.443-1.143,2.488-1.879,2.338c-0.737-0.157-1.09-1.45-0.788-2.895
						c0.3-1.443,1.141-2.488,1.879-2.334C290.373,216.682,290.726,217.976,290.426,219.419z"/>
					<path fill="#BA3535" d="M286.585,225.256L286.585,225.256c-0.848,0-1.635-0.048-2.333-0.14
						c-1.043-0.138-1.824-0.615-2.32-1.419l-0.05-0.08l0.005-0.092c0.599-7.39,5.386-14.117,10.048-14.117
						c1.008,0,1.956,0.32,2.818,0.951c1.575-3.694,6.043-7.656,10.261-7.656c1.154,0,2.202,0.308,3.113,0.912l0.156,0.104
						l-0.032,0.186c-1.23,6.891-2.548,13.305-5.131,16.1C300.121,223.245,292.2,225.256,286.585,225.256z M282.468,223.474
						c0.408,0.609,1.017,0.959,1.859,1.071c0.674,0.089,1.434,0.138,2.257,0.138c5.519,0,13.313-2.038,16.114-5.065
						c2.455-2.655,3.749-8.893,4.954-15.623c-0.779-0.476-1.666-0.716-2.638-0.716c-4.002,0-8.509,4.036-9.867,7.645l-0.145,0.38
						l-0.311-0.261c-0.837-0.703-1.765-1.06-2.757-1.06C287.648,209.982,283.066,216.525,282.468,223.474z"/>
				</g>
			</g>
			<g>
				<path fill="#BA3535" d="M296.773,207.195l0.383,0.426c-2.763,2.482-2.57,9.457-2.566,9.528
					C294.59,217.149,293.107,210.869,296.773,207.195z"/>
			</g>
			<path d="M286.585,225.256L286.585,225.256c-0.848,0-1.635-0.048-2.333-0.14c-1.148-0.153-1.977-0.709-2.458-1.656
				c-2.106-4.136,3.141-14.437,4.799-17.495l0.042-0.079l0.081-0.041c0.119-0.059,12.029-6.202,19.079-25.149
				c0.622-1.666,1.765-2.688,3.137-2.806l0.154-0.012l0.098,0.123c1.25,1.599,2.373,4.058,3.433,7.516l0.031,0.107l-0.047,0.101
				c-1.825,3.833-2.912,10.019-3.964,16c-1.375,7.82-2.674,15.207-5.517,18.282C300.121,223.245,292.2,225.256,286.585,225.256z
				 M287.056,206.315c-3.331,6.161-6.319,13.807-4.751,16.886c0.398,0.777,1.057,1.218,2.023,1.344
				c0.674,0.089,1.434,0.138,2.257,0.138c5.519,0,13.313-2.038,16.114-5.065c2.73-2.952,4.074-10.598,5.375-17.991
				c1.049-5.968,2.132-12.138,3.963-16.047c-1.002-3.243-2.051-5.567-3.209-7.099c-1.089,0.159-1.969,1.012-2.494,2.416
				C299.508,199.234,288.139,205.73,287.056,206.315z"/>
		</g>
		<g>
			<path fill="#423F3F" stroke="#000000" stroke-width="1.7475" d="M250.7,181.37c-2.774-5.164-9.542-6.451-10.424,2.296
				c-0.764,7.585,7.268,13.865,8.989,14.533C250.986,198.869,250.7,181.37,250.7,181.37z"/>
			<path fill="#706E6E" d="M242.953,180.509c2.407-2.89,5.218-0.526,7.755,1.666c-0.004-0.508-0.008-0.805-0.008-0.805
				c-2.774-5.164-9.542-6.451-10.424,2.296c-0.194,1.93,0.184,3.776,0.879,5.466C240.765,186.011,241.131,182.938,242.953,180.509z"
				/>
			<path d="M249.36,198.505L249.36,198.505c-0.068,0-0.134-0.013-0.2-0.038c-2.104-0.819-9.924-7.351-9.17-14.832
				c0.604-5.982,3.714-6.627,5.025-6.627c2.227,0,4.557,1.657,5.937,4.226l0.033,0.061l0.001,0.07
				c0.026,1.584,0.213,15.506-1.212,16.953C249.621,198.471,249.464,198.505,249.36,198.505z M245.015,177.582
				c-2.439,0-4.062,2.228-4.455,6.11c-0.757,7.517,7.297,13.635,8.795,14.235c0.821-0.5,1.181-8.731,1.057-16.484
				C249.148,179.131,246.986,177.582,245.015,177.582z"/>
		</g>
		<g>
			<path fill="#282626" d="M246.779,204.415c-5.729-0.525-9.753,7.931-0.766,11.854c8.99,3.926,29.261,5.933,45.039-8.315
				c15.778-14.249,21.323-27.158,17.595-32.25c-3.513-4.796-8.318,0-22.376-9.061c-11.041-7.115-30.503-1.528-36.146,10.042
				C244.483,188.254,246.779,204.415,246.779,204.415z"/>
			<path fill="#4C4B4B" d="M286.271,166.643c-11.041-7.115-30.503-1.528-36.146,10.042c-3.821,7.838-4.001,17.777-3.718,23.377
				c0.202,5.716,22.413,5.618,31.401,1.916c-7.315,5.622-24.098,7.124-31.054,2.261c0.015,0.116,0.024,0.177,0.024,0.177
				c-7.459,0.384-2.583,4.877,0.226,5.904c11.93,4.357,24.73,1.852,34.389-3.417c11.708-6.389,32.799-24.863,26.173-32.352
				C304.102,171.719,298.946,174.813,286.271,166.643z"/>
			<path fill="#706E6E" d="M279.87,166.278c7.876,2.195,13.765,7.824,27.056,7.824c-1.411-0.898-10.789-0.718-20.655-7.459
				c-11.041-7.115-30.503-1.528-36.146,10.042c-2.24,4.595-4.207,14.392-3.788,21.535c0.854-7.695,3.471-17.219,4.672-20.042
				C254.066,170.98,266.614,162.585,279.87,166.278z"/>
			<path d="M261.498,219.428c-5.696,0-11.382-1.055-15.599-2.895c-3.993-1.744-5.985-4.654-5.333-7.785
				c0.575-2.75,3.06-4.726,5.884-4.641c-0.288-2.424-1.74-16.97,3.417-27.548c3.775-7.742,14.119-13.36,24.599-13.36
				c4.573,0,8.708,1.108,11.962,3.205c7.838,5.052,12.683,5.752,16.222,6.264c2.68,0.387,4.619,0.667,6.228,2.867
				c3.66,4.999-1.222,17.812-17.634,32.632C280.937,217.474,269.379,219.428,261.498,219.428z M246.269,204.678
				c-2.472,0-4.634,1.761-5.141,4.188c-0.594,2.844,1.276,5.516,5.001,7.14c4.146,1.812,9.748,2.847,15.369,2.847
				c7.781,0,19.189-1.925,29.361-11.112c16.162-14.593,21.065-27.077,17.556-31.867c-1.468-2.007-3.115-2.244-5.847-2.639
				c-3.387-0.49-8.507-1.229-16.452-6.35c-3.158-2.037-7.186-3.112-11.649-3.112c-10.272,0-20.4,5.484-24.083,13.037
				c-5.538,11.36-3.343,27.404-3.32,27.565l0.051,0.359l-0.362-0.034C246.591,204.686,246.428,204.678,246.269,204.678z"/>
		</g>
		<g>
			<path d="M258.799,207.347c-5.147,0-9.724-0.903-12.189-2.701l0.337-0.462c4.649,3.39,17.716,3.419,26.89,0.058
				C273.837,204.241,266.872,207.69,258.799,207.347z"/>
		</g>
		<g>
			<path fill="#423F3F" d="M269.344,180.031c-3.753,6.411-4.206,15.586,2.297,14.63l8.128-18.958
				C278.333,171.713,272.919,173.931,269.344,180.031z"/>
			<path fill="#706E6E" d="M269.344,180.031c-3.327,5.682-4.056,13.528,0.346,14.577c-4.864-3.7,0.194-16.114,5.966-19.263
				c0.649-0.324,2.028-1.012,3.313-0.932C276.887,172.394,272.43,174.764,269.344,180.031z"/>
			<path d="M267.336,193.303c-1.899-2.933-0.708-9.2,1.762-13.418c2.366-4.041,5.809-6.853,8.34-6.462
				c1.775,0.271,2.06,2.377,2.06,2.377c-0.391-1.09-1.122-1.715-2.113-1.806c-2.332-0.218-5.533,2.326-7.791,6.182
				c-2.717,4.637-3.499,10.262-1.782,12.808c0.794,1.178,2.068,1.646,3.786,1.394C271.598,194.377,268.76,195.505,267.336,193.303z"
				/>
		</g>
		<g>
			<path fill="#211F1F" stroke="#000000" stroke-width="1.7475" d="M278.143,196.668c-1.925-1.573-2.964-10.282,0-12.457
				c2.964-2.174,5.002,1.174,3.471,3.543C277.952,193.417,279.195,197.53,278.143,196.668z"/>
			<path fill="#302E2E" stroke="#000000" stroke-width="1.7475" d="M279.355,183.608c-0.381,0.102-0.786,0.29-1.213,0.603
				c-2.964,2.174-1.925,10.884,0,12.457c0.537,0.44,0.479-0.418,0.774-2.108C277.823,194.665,276.009,186.078,279.355,183.608z"/>
			<path d="M278.374,197.069c-0.173,0-0.32-0.101-0.413-0.178c-1.18-0.966-2.039-4.247-1.954-7.469
				c0.041-1.523,0.35-4.257,1.966-5.442c0.686-0.503,1.365-0.758,2.018-0.758c0.868,0,1.619,0.465,2.06,1.275
				c0.559,1.025,0.482,2.366-0.196,3.414c-2.197,3.396-2.599,6.216-2.816,7.732C278.906,196.562,278.835,197.069,278.374,197.069z
				 M279.99,183.797c-0.529,0-1.092,0.218-1.678,0.647c-1.035,0.759-1.667,2.58-1.731,4.995c-0.079,2.954,0.715,6.154,1.734,7.002
				c0.055-0.177,0.106-0.533,0.156-0.877c0.221-1.56,0.635-4.462,2.899-7.963c0.566-0.875,0.635-1.985,0.177-2.829
				C281.208,184.152,280.642,183.797,279.99,183.797z"/>
		</g>
		<g>
			<path d="M315.571,220.933l-0.551-0.155c0.695-2.45-0.805-8.964-0.818-9.03C314.202,211.748,316.309,218.344,315.571,220.933z"/>
		</g>
	</g>
	<g>
		<g>
			<path fill="#212020" d="M375.13,364.536c-6.032,1.938-18.635,9.948-13.842,13.409c3.657,2.645,14.715,2.807,17.856,2.225
				c3.223-0.599,11.62-1.938,13.971-4.303c1.758-1.768-2.639-10.113-7.802-11.331C380.148,363.317,376.241,364.179,375.13,364.536z"
				/>
			<path fill="#3D3D3D" d="M382.373,371.565c1.267-2.115,0.976-4.855,0.045-7.528c-3.7-0.399-6.397,0.212-7.288,0.499
				c-5.207,1.672-15.307,7.87-14.884,11.762C360.568,379.633,378.356,377.874,382.373,371.565z"/>
			<path fill="#ADAAA8" d="M362.101,374.576c0.669-1.674,4.984-5.523,9.072-6.526c-2.475,1.221-5.951,3.336-7.71,6.526
				C362.82,375.743,361.812,375.29,362.101,374.576z"/>
			<path fill="#353330" d="M374.755,380.734L374.755,380.734c-4.884,0-11.029-0.671-13.637-2.553
				c-0.923-0.672-1.311-1.533-1.147-2.563c0.666-4.191,10.268-9.812,15.07-11.355c0.334-0.109,2.146-0.645,4.955-0.645
				c1.779,0,3.591,0.215,5.382,0.638c3.951,0.933,7.284,5.729,8.169,8.832c0.399,1.396,0.321,2.428-0.225,2.98
				c-2.221,2.232-9.37,3.522-13.209,4.219l-0.915,0.164C378.233,380.632,376.614,380.734,374.755,380.734z M379.996,364.191
				c-2.724,0-4.458,0.515-4.781,0.616c-4.67,1.503-14.079,7.138-14.676,10.898c-0.129,0.812,0.17,1.47,0.916,2.01
				c2.499,1.804,8.728,2.445,13.3,2.445l0,0c1.827,0,3.408-0.099,4.338-0.272l0.917-0.168c3.51-0.635,10.81-1.952,12.902-4.057
				c0.383-0.384,0.412-1.269,0.086-2.422c-0.826-2.893-4.062-7.559-7.751-8.426C383.497,364.402,381.729,364.191,379.996,364.191z"
				/>
		</g>
		<g>
			<path fill="#D6D4D4" d="M390.309,348.805c-0.195-4.123-3.822-14.256-2.772-20.653c1.005-6.119-3.322-9.275-2.297-16.756
				c0.819-5.963,1.771-15.76-1.682-22.336l-33.965-36.891c-0.404,0.899-0.981,1.565-1.31,2.454
				c-10.242,27.649,15.263,50.038,18.599,56.982c3.442,7.171-1.185,11.581,5.738,17.503c3.298,2.818,1.78,9.586,4.972,20.557
				c0.551,1.888-2.493,4.816-0.668,11.021c1.003,3.417-5.738,2.716-5.545,5.617c0.166,2.534,16.049,4.898,17.737,3.61
				c2.127-1.623-1.459-2.798-1.577-4.138c-0.087-0.96,0.429-3.801,2.28-4.445c1.854-0.645,3.297-1.549,3.299-3.997
				C393.119,354.521,390.547,353.859,390.309,348.805z"/>
			<path fill="#FFFFFF" d="M383.405,358.265c0.809-2.098,4.131-1.812,4.512-3.244c-1.146-6.884-2.259-13.103-3.98-19.41
				c-1.722-7.459,2.597-10.52-2.566-17.978c-2.297-2.951-0.77-11.376-1.675-20.557c-0.681-6.896-8.411-17.692-10.201-23.29
				l-7.777-16.971l-12.075-4.757c-0.429,0.952-1.074,1.781-1.418,2.72c-10.089,27.579,15.326,49.896,18.656,56.827
				c3.442,7.171-1.185,11.581,5.738,17.503c3.298,2.818,1.78,9.586,4.972,20.557c0.551,1.888-2.493,4.816-0.668,11.021
				c0.666,2.266-2.064,2.723-3.931,3.613c0.997,0.596,2.172,0.953,3.644,0.953C384.214,365.253,382.822,360.089,383.405,358.265z"/>
			<path fill="#828181" d="M386.676,370.56c-3.843,0-10.643-1.146-13.761-2.56c-1.188-0.543-1.787-1.093-1.827-1.677
				c-0.103-1.568,1.462-2.189,2.974-2.785c1.895-0.751,3.014-1.31,2.585-2.771c-1.201-4.086-0.348-6.743,0.276-8.687
				c0.316-0.979,0.561-1.75,0.394-2.338c-1.418-4.874-1.912-8.911-2.305-12.153c-0.496-4.076-0.825-6.764-2.579-8.266
				c-4.179-3.574-4.25-6.688-4.32-9.984c-0.053-2.32-0.103-4.723-1.488-7.606c-0.665-1.388-2.255-3.428-4.265-6.017
				c-5.974-7.681-15.667-20.125-16.688-35.199c-0.52-7.678,1.417-14.49,3.972-18.459c-10.371,23.031,4.942,42.724,13.167,53.307
				c2.034,2.613,3.64,4.681,4.328,6.119c1.441,2.999,1.496,5.57,1.547,7.842c0.073,3.303,0.134,6.157,4.121,9.563
				c1.923,1.646,2.282,4.577,2.774,8.629c0.393,3.225,0.881,7.237,2.287,12.068c0.22,0.754-0.051,1.599-0.396,2.669
				c-0.602,1.871-1.424,4.433-0.275,8.352c0.608,2.064-1.267,2.81-2.922,3.463c-1.382,0.547-2.688,1.063-2.612,2.213
				c0.01,0.161,0.178,0.596,1.491,1.191c4.15,1.886,14.573,3.144,15.79,2.212c0.357-0.275,0.547-0.542,0.561-0.792
				c0.018-0.468-0.531-0.97-1.066-1.455c-0.556-0.508-1.129-1.026-1.186-1.638c-0.098-1.107,0.474-4.047,2.474-4.74
				c1.915-0.666,3.103-1.522,3.106-3.728c0-1.149-0.449-1.904-1.023-2.86c-0.734-1.218-1.646-2.738-1.783-5.654
				c-0.068-1.428-0.557-3.594-1.121-6.106c-1.04-4.637-2.338-10.403-1.651-14.608c0.474-2.877-0.267-5.106-1.054-7.458
				c-0.875-2.627-1.782-5.348-1.241-9.288c0.89-6.469,1.686-15.804-1.653-22.165l-0.16-0.626l0.667,0.358
				c3.417,6.508,2.616,15.964,1.715,22.51c-0.523,3.809,0.361,6.461,1.217,9.027c0.809,2.423,1.572,4.717,1.078,7.734
				c-0.672,4.092,0.609,9.803,1.643,14.39c0.57,2.536,1.062,4.73,1.133,6.204c0.133,2.768,0.967,4.165,1.702,5.39
				c0.594,0.987,1.106,1.843,1.106,3.153c-0.004,2.687-1.682,3.64-3.493,4.27c-1.653,0.576-2.173,3.232-2.089,4.147
				c0.033,0.386,0.525,0.829,1.001,1.267c0.63,0.573,1.28,1.167,1.248,1.898c-0.017,0.436-0.273,0.838-0.784,1.228
				C388.912,370.43,387.957,370.56,386.676,370.56z"/>
			<g>
				<path fill="#333232" d="M374.743,333.616c0.213,1.131,0.374,2.429,0.555,3.916c0.056,0.468,0.116,0.955,0.179,1.456
					c2.255-2.923,4.572-4.954,5.687-6.82c1.916,1.647,3.693,2.619,7.029,5.716c-0.385-2.007-0.697-4.465-0.787-6.373
					c-3.293-2.934-5.408-3.157-7.335-5.032C379.061,328.694,377.025,330.392,374.743,333.616z"/>
				<path fill="#4C4B4B" d="M383.565,328.79c-1.33-0.754-2.443-1.286-3.496-2.312c-1.008,2.216-3.044,3.913-5.327,7.138
					c0.213,1.131,0.374,2.429,0.555,3.916c0.056,0.468,0.116,0.955,0.179,1.456c2.255-2.923,4.572-4.954,5.687-6.82
					c0.762,0.657,1.663,1.316,2.491,1.937C383.387,332.733,383.394,330.525,383.565,328.79z"/>
				<path fill="#282727" d="M375.288,339.679l-0.082-0.657c-0.063-0.5-0.124-0.988-0.181-1.455c-0.172-1.42-0.335-2.763-0.552-3.898
					l-0.02-0.112l0.066-0.096c0.955-1.348,1.867-2.434,2.671-3.39c1.148-1.364,2.055-2.444,2.629-3.706l0.161-0.354l0.279,0.271
					c0.861,0.838,1.769,1.342,2.819,1.922c1.271,0.703,2.707,1.498,4.507,3.104l0.086,0.076l0.007,0.116
					c0.087,1.836,0.386,4.264,0.78,6.332l0.156,0.818l-0.61-0.566c-2.077-1.929-3.539-3.024-4.829-3.988
					c-0.671-0.504-1.308-0.98-1.949-1.514c-0.625,0.961-1.533,1.962-2.57,3.107c-0.915,1.009-1.951,2.151-2.963,3.464
					L375.288,339.679z M375.032,333.682c0.209,1.127,0.368,2.435,0.536,3.819c0.031,0.261,0.065,0.528,0.099,0.802
					c0.893-1.113,1.785-2.098,2.584-2.979c1.116-1.232,2.079-2.295,2.677-3.296l0.166-0.277l0.246,0.212
					c0.71,0.607,1.415,1.136,2.163,1.695c1.173,0.88,2.486,1.864,4.272,3.479c-0.316-1.855-0.556-3.888-0.639-5.495
					c-1.715-1.514-3.099-2.28-4.324-2.958c-0.976-0.54-1.833-1.015-2.66-1.752c-0.61,1.191-1.512,2.265-2.542,3.492
					C376.829,331.348,375.95,332.396,375.032,333.682z"/>
			</g>
			<g>
				<path fill="#333232" d="M368.115,315.503c0.214,1.308,0.244,2.536,0.271,3.744c0.02,0.956,0.043,1.895,0.164,2.834
					c3.038-3.963,6.401-6.547,7.921-8.901c2.604,2.064,5.209,3,10.062,7.569c-0.041-0.118-0.227-0.686-0.268-0.809
					c-0.684-2.053-1.215-4.118-1.202-6.825c-4.43-3.997-7.403-4.081-9.926-6.345C373.831,309.418,371.109,311.408,368.115,315.503z"
					/>
				<path fill="#4C4B4B" d="M375.138,306.771c-1.307,2.647-4.028,4.638-7.022,8.732c0.214,1.308,0.244,2.536,0.271,3.744
					c0.02,0.956,0.043,1.895,0.164,2.834c3.038-3.963,6.401-6.547,7.921-8.901c1.626,1.29,2.107,1.341,4.281,2.908
					c-0.756-1.093-0.756-4.587-0.64-6.424C378.115,308.604,376.619,308.1,375.138,306.771z"/>
				<path fill="#282727" d="M368.364,322.773l-0.085-0.657c-0.126-0.987-0.147-1.984-0.167-2.861
					c-0.027-1.188-0.055-2.413-0.267-3.708l-0.019-0.113l0.067-0.094c1.354-1.85,2.646-3.265,3.785-4.514
					c1.402-1.537,2.51-2.753,3.212-4.178l0.16-0.324l0.269,0.241c1.053,0.947,2.193,1.504,3.512,2.15
					c1.808,0.886,3.856,1.889,6.415,4.194l0.09,0.084v0.121c-0.013,2.598,0.466,4.573,1.188,6.738l0.266,0.811l-0.445,0.285
					c-3.179-2.995-5.351-4.395-7.269-5.633c-0.881-0.567-1.718-1.108-2.542-1.74c-0.762,1.102-1.888,2.245-3.177,3.556
					c-1.43,1.457-3.051,3.108-4.591,5.117L368.364,322.773z M368.403,315.572c0.201,1.29,0.23,2.498,0.256,3.669
					c0.015,0.666,0.031,1.399,0.094,2.141c1.431-1.796,2.904-3.294,4.217-4.632c1.364-1.39,2.542-2.588,3.273-3.718l0.164-0.252
					l0.235,0.186c0.878,0.696,1.778,1.277,2.733,1.894c1.775,1.145,3.769,2.432,6.567,4.973c-0.604-1.844-1.146-3.922-1.152-6.596
					c-2.458-2.2-4.444-3.172-6.198-4.03c-1.247-0.61-2.339-1.146-3.371-2.003c-0.742,1.365-1.859,2.591-3.137,3.991
					C370.972,312.411,369.715,313.791,368.403,315.572z"/>
			</g>
			<g>
				<path fill="#333232" d="M362.602,305.517c0.06,0.075,0.12,0.154,0.18,0.229c1.411,1.818,2.605,3.359,3.427,4.6
					c1.993-5.302,4.115-11.523,5.113-14.039c3.735,1.918,8.082,2.903,14.46,10.573c0.231-2.52,0.262-5.377,0.127-8.065
					c-6.915-5.348-13.362-7.324-16.773-9.348C368.271,292.694,365,299.199,362.602,305.517z"/>
				<path fill="#4C4B4B" d="M378.988,294.325c-4.101-2.231-7.627-3.538-9.854-4.859c-0.863,3.229-4.134,9.733-6.533,16.051
					c0.06,0.075,0.12,0.154,0.18,0.229c1.411,1.818,2.605,3.359,3.427,4.6c1.993-5.302,4.115-11.523,5.113-14.039
					c2.335,1.198,5.514,2.371,8.675,4.707C379.677,299.104,379.73,295.889,378.988,294.325z"/>
				<path fill="#282727" d="M366.277,310.94l-0.296-0.445c-0.827-1.247-2.085-2.866-3.417-4.582l-0.273-0.348l0.055-0.147
					c1.072-2.823,2.333-5.719,3.446-8.272c1.398-3.21,2.605-5.984,3.079-7.752l0.094-0.348l0.31,0.184
					c1.058,0.629,2.424,1.256,4.006,1.983c3.387,1.561,8.027,3.697,12.794,7.386l0.101,0.078l0.006,0.124
					c0.14,2.809,0.095,5.686-0.127,8.102l-0.062,0.658l-0.423-0.508c-5.23-6.286-9.014-8.017-12.352-9.546
					c-0.607-0.276-1.183-0.539-1.752-0.822c-0.499,1.284-1.23,3.337-2.07,5.687c-0.906,2.538-1.934,5.416-2.931,8.07L366.277,310.94
					z M362.913,305.47l0.083,0.108c1.187,1.529,2.317,2.983,3.143,4.175c0.937-2.51,1.893-5.185,2.743-7.567
					c0.905-2.532,1.686-4.721,2.187-5.982l0.111-0.278l0.267,0.139c0.645,0.327,1.302,0.63,1.998,0.948
					c3.301,1.509,7.03,3.212,12.12,9.185c0.168-2.21,0.196-4.752,0.077-7.243c-4.682-3.604-9.065-5.62-12.589-7.243
					c-1.448-0.667-2.718-1.251-3.749-1.835c-0.536,1.809-1.688,4.455-3.011,7.489C365.202,299.868,363.968,302.703,362.913,305.47z"
					/>
			</g>
			<g>
				<path fill="#333232" d="M359.124,258.536c-5.589,8.533-3.076,27.573-3.981,36.664c1.852,2.89,3.766,5.501,5.521,7.803
					c1.081-10.213-0.393-35.002,0.648-37.627c5.401,6.943,15.641,15.904,23.098,26.003c0.381-2.316-9.253-12.45-12.186-21.939
					C367.358,264.112,362.546,259.451,359.124,258.536z"/>
				<path fill="#4C4B4B" d="M359.124,258.536c-5.589,8.533-3.076,27.573-3.981,36.664c1.852,2.89,3.766,5.501,5.521,7.803
					c1.081-10.213-0.393-35.002,0.648-37.627c2.3,2.959,5.146,5.934,8.614,9.558c-1.511-3.002-2.598-7.287-3.249-11.199
					C363.738,260.939,361.288,259.113,359.124,258.536z"/>
				<path fill="#282727" d="M360.862,303.715l-0.416-0.546c-1.401-1.837-3.499-4.646-5.533-7.823l-0.051-0.08l0.009-0.094
					c0.265-2.657,0.233-6.242,0.204-10.04c-0.077-9.203-0.171-20.65,3.821-26.745l0.108-0.166l0.191,0.05
					c3.747,1.003,9.039,6.396,13.231,10.985l0.059,0.104c1.672,5.413,5.609,11.133,8.483,15.312
					c2.343,3.405,3.892,5.656,3.711,6.751l-0.104,0.64l-0.386-0.521c-4.247-5.753-9.458-11.194-14.057-15.997
					c-3.283-3.43-6.395-6.679-8.691-9.561c-0.342,2.028-0.261,8.175-0.175,14.645c0.107,8.028,0.229,17.126-0.331,22.406
					L360.862,303.715z M355.424,295.131c1.813,2.823,3.672,5.352,5.034,7.151c0.478-5.328,0.362-13.977,0.261-21.65
					c-0.105-7.839-0.188-14.034,0.337-15.354l0.176-0.443l0.293,0.375c2.309,2.966,5.559,6.362,9,9.955
					c4.31,4.502,9.156,9.563,13.257,14.928c-0.598-1.23-1.865-3.075-3.267-5.111c-2.884-4.19-6.83-9.929-8.535-15.402
					c-4.063-4.444-9.146-9.631-12.736-10.725c-3.793,6-3.7,17.233-3.625,26.271C355.652,288.895,355.682,292.455,355.424,295.131z"
					/>
			</g>
			<g>
				<path fill="#3F3A36" d="M384.975,293.903c-0.287-2.062-1.491-4.634-3.74-7.155c-2.341-3.457-5.664-8.143-8.506-15.304
					c-4.413-11.112-5.935-19.146-5.417-27.54c0.114,8.912,2.113,18.104,5.946,27.318c2.939,7.062,6.125,11.766,8.453,15.202
					c2.623,2.423,3.525,5.208,3.832,7.396L384.975,293.903z"/>
			</g>
		</g>
	</g>
</g>
</svg>
