
<svg version="1.1" id="Layer_1" xmlns="http://www.w3.org/2000/svg" xmlns:xlink="http://www.w3.org/1999/xlink" viewBox="0 0 768 430" enable-background="new 0 0 768 430" xml:space="preserve">
<g transform="matrix(1.4279 0 0 1.4279 -526.56 12.177)">
	<g>
		<path d="M617.861,88.039c0,0-3.015-14.081,6.632-21.584c9.647-7.503,19.294-7.503,19.294-16.078
			c0-8.575-3.817-14.427-3.817-14.427s13.667,11.154,13.464,20.858c-0.309,14.735-11.08,15.422-11.428,21.184
			c-0.4,6.631,3.779,15.406,3.779,15.406L617.861,88.039z"/>
	</g>
	<path fill="#FFFF00" d="M617.861,88.039c0,0-3.015-14.081,6.632-21.584c9.647-7.503,19.294-7.503,19.294-16.078
		c0-8.575-3.817-14.427-3.817-14.427s13.667,11.154,13.464,20.858c-0.309,14.735-11.08,15.422-11.428,21.184
		c-0.4,6.631,3.779,15.406,3.779,15.406L617.861,88.039z"/>
	
		<linearGradient id="SVGID_1_" gradientUnits="userSpaceOnUse" x1="756.9877" y1="208.8566" x2="755.6339" y2="168.3384" gradientTransform="matrix(1.3449 0 0 -1.3449 -382.2226 336.098)">
		<stop  offset="0" style="stop-color:#FF6600"/>
		<stop  offset="1" style="stop-color:#FF6600;stop-opacity:0"/>
	</linearGradient>
	<path fill="url(#SVGID_1_)" d="M642.674,39.942c1.561,4.478,2.594,9.539,1.136,14.159c-2.401,4.954-8.223,6.333-12.623,8.949
		c-5.333,2.729-10.549,6.746-12.05,12.845c-1.152,3.719-1.237,7.707-0.618,11.533l26.003,4.965
		c-2.001-5.026-4.021-10.56-2.903-16.017c2.012-4.267,7.07-6.138,8.935-10.588c2.983-5.494,2.815-12.603-0.836-17.751
		c-2.001-3.319-4.567-6.126-7.31-8.808L642.674,39.942L642.674,39.942z"/>
	<g transform="matrix(-1 0 0 -1 1057.3 302.66)">
		<g>
			<path d="M435.948,94.398c0,0-3.015-14.08,6.631-21.584c9.647-7.503,19.294-7.503,19.294-16.077s-3.816-14.427-3.816-14.427
				s13.667,11.153,13.463,20.858c-0.309,14.736-11.08,15.421-11.428,21.184c-0.401,6.631,3.779,15.406,3.779,15.406L435.948,94.398z
				"/>
		</g>
		<path fill="#FFFF00" d="M435.948,94.398c0,0-3.015-14.08,6.631-21.584c9.647-7.503,19.294-7.503,19.294-16.077
			s-3.816-14.427-3.816-14.427s13.667,11.153,13.463,20.858c-0.309,14.736-11.08,15.421-11.428,21.184
			c-0.401,6.631,3.779,15.406,3.779,15.406L435.948,94.398z"/>
		
			<linearGradient id="SVGID_2_" gradientUnits="userSpaceOnUse" x1="311.3924" y1="-0.6747" x2="310.0386" y2="39.8417" gradientTransform="matrix(-1.3449 0 0 1.3449 872.7781 62.4651)">
			<stop  offset="0" style="stop-color:#FF6600"/>
			<stop  offset="1" style="stop-color:#FF6600;stop-opacity:0"/>
		</linearGradient>
		<path fill="url(#SVGID_2_)" d="M460.762,46.301c1.561,4.478,2.593,9.539,1.135,14.158c-2.4,4.956-8.223,6.334-12.622,8.95
			c-5.333,2.729-10.548,6.746-12.049,12.845c-1.152,3.719-1.237,7.706-0.618,11.532l26.002,4.965c-2-5.027-4.022-10.56-2.904-16.017
			c2.013-4.268,7.07-6.139,8.936-10.588c2.983-5.493,2.816-12.602-0.836-17.75c-2-3.318-4.567-6.125-7.31-8.807L460.762,46.301
			L460.762,46.301z"/>
	</g>
	<g transform="matrix(.86603 .5 -.5 .86603 146.49 -244.04)">
		<g>
			<path d="M604.083,42.984c0,0-3.015-14.081,6.631-21.584c9.646-7.503,19.294-7.503,19.294-16.078
				c0-8.575-3.817-14.427-3.817-14.427s13.667,11.154,13.463,20.858c-0.308,14.735-11.08,15.421-11.427,21.183
				c-0.401,6.632,3.778,15.406,3.778,15.406L604.083,42.984z"/>
		</g>
		<path fill="#FFFF00" d="M604.083,42.984c0,0-3.015-14.081,6.631-21.584c9.646-7.503,19.294-7.503,19.294-16.078
			c0-8.575-3.817-14.427-3.817-14.427s13.667,11.154,13.463,20.858c-0.308,14.735-11.08,15.421-11.427,21.183
			c-0.401,6.632,3.778,15.406,3.778,15.406L604.083,42.984z"/>
		
			<linearGradient id="SVGID_3_" gradientUnits="userSpaceOnUse" x1="779.5131" y1="83.4154" x2="778.1593" y2="42.8972" gradientTransform="matrix(1.1648 -0.6725 -0.6725 -1.1648 -229.7467 631.5037)">
			<stop  offset="0" style="stop-color:#FF6600"/>
			<stop  offset="1" style="stop-color:#FF6600;stop-opacity:0"/>
		</linearGradient>
		<path fill="url(#SVGID_3_)" d="M628.896-5.113c1.561,4.478,2.594,9.538,1.135,14.159c-2.4,4.954-8.223,6.333-12.623,8.949
			c-5.333,2.728-10.547,6.746-12.049,12.845c-1.152,3.719-1.238,7.707-0.618,11.533l26.003,4.965c-2-5.027-4.022-10.56-2.904-16.017
			c2.012-4.267,7.07-6.139,8.936-10.588c2.983-5.494,2.815-12.603-0.837-17.751c-2.001-3.319-4.567-6.125-7.31-8.807L628.896-5.113
			L628.896-5.113z"/>
	</g>
	<g transform="matrix(-.86603 -.5 .5 -.86603 910.77 546.7)">
		<g>
			<path d="M449.711,139.453c0,0-3.014-14.081,6.632-21.584s19.294-7.503,19.294-16.078c0-8.575-3.817-14.426-3.817-14.426
				s13.667,11.154,13.463,20.857c-0.308,14.736-11.08,15.422-11.427,21.184c-0.401,6.631,3.779,15.407,3.779,15.407L449.711,139.453
				z"/>
		</g>
		<path fill="#FFFF00" d="M449.711,139.453c0,0-3.014-14.081,6.632-21.584s19.294-7.503,19.294-16.078
			c0-8.575-3.817-14.426-3.817-14.426s13.667,11.154,13.463,20.857c-0.308,14.736-11.08,15.422-11.427,21.184
			c-0.401,6.631,3.779,15.407,3.779,15.407L449.711,139.453z"/>
		
			<linearGradient id="SVGID_4_" gradientUnits="userSpaceOnUse" x1="288.8252" y1="124.7688" x2="287.4714" y2="165.287" gradientTransform="matrix(-1.1648 0.6725 0.6725 1.1648 720.2449 -232.9409)">
			<stop  offset="0" style="stop-color:#FF6600"/>
			<stop  offset="1" style="stop-color:#FF6600;stop-opacity:0"/>
		</linearGradient>
		<path fill="url(#SVGID_4_)" d="M474.525,91.355c1.562,4.478,2.594,9.539,1.135,14.159c-2.4,4.954-8.223,6.333-12.623,8.949
			c-5.333,2.728-10.547,6.746-12.049,12.845c-1.152,3.72-1.237,7.708-0.618,11.533l26.003,4.965c-2-5.027-4.023-10.561-2.903-16.018
			c2.013-4.267,7.07-6.138,8.935-10.587c2.983-5.494,2.815-12.604-0.837-17.751c-2.001-3.318-4.566-6.125-7.309-8.807
			L474.525,91.355L474.525,91.355z"/>
	</g>
	<g transform="matrix(.5 .86603 -.86603 .5 395.37 -382.14)">
		<g>
			<path d="M569.625,10.852c0,0-3.015-14.081,6.631-21.584c9.647-7.503,19.294-7.503,19.294-16.078
				c0-8.576-3.817-14.427-3.817-14.427s13.667,11.154,13.463,20.858c-0.309,14.736-11.08,15.422-11.428,21.184
				c-0.4,6.631,3.778,15.407,3.778,15.407L569.625,10.852z"/>
		</g>
		<path fill="#FFFF00" d="M569.625,10.852c0,0-3.015-14.081,6.631-21.584c9.647-7.503,19.294-7.503,19.294-16.078
			c0-8.576-3.817-14.427-3.817-14.427s13.667,11.154,13.463,20.858c-0.309,14.736-11.08,15.422-11.428,21.184
			c-0.4,6.631,3.778,15.407,3.778,15.407L569.625,10.852z"/>
		
			<linearGradient id="SVGID_5_" gradientUnits="userSpaceOnUse" x1="736.307" y1="-36.4916" x2="734.9532" y2="-77.0098" gradientTransform="matrix(0.6725 -1.1648 -1.1648 -0.6725 49.9988 811.0938)">
			<stop  offset="0" style="stop-color:#FF6600"/>
			<stop  offset="1" style="stop-color:#FF6600;stop-opacity:0"/>
		</linearGradient>
		<path fill="url(#SVGID_5_)" d="M594.438-37.245c1.561,4.478,2.594,9.538,1.136,14.159c-2.401,4.954-8.223,6.333-12.624,8.95
			c-5.333,2.729-10.547,6.746-12.049,12.844c-1.153,3.719-1.238,7.708-0.618,11.533l26.003,4.965
			c-2.001-5.027-4.022-10.56-2.904-16.017c2.013-4.268,7.07-6.139,8.936-10.588c2.983-5.493,2.815-12.602-0.837-17.751
			c-2.001-3.319-4.567-6.125-7.31-8.807L594.438-37.245L594.438-37.245z"/>
	</g>
	<g transform="matrix(-.5 -.86603 .86603 -.5 661.89 684.8)">
		<g>
			<path d="M484.171,171.583c0,0-3.016-14.081,6.632-21.584c9.646-7.502,19.294-7.503,19.293-16.078
				c-0.001-8.575-3.817-14.427-3.817-14.427s13.666,11.154,13.463,20.859c-0.309,14.735-11.08,15.421-11.428,21.183
				c-0.401,6.631,3.779,15.406,3.779,15.406L484.171,171.583z"/>
		</g>
		<path fill="#FFFF00" d="M484.171,171.583c0,0-3.016-14.081,6.632-21.584c9.646-7.502,19.294-7.503,19.293-16.078
			c-0.001-8.575-3.817-14.427-3.817-14.427s13.666,11.154,13.463,20.859c-0.309,14.735-11.08,15.421-11.428,21.183
			c-0.401,6.631,3.779,15.406,3.779,15.406L484.171,171.583z"/>
		
			<linearGradient id="SVGID_6_" gradientUnits="userSpaceOnUse" x1="332.0346" y1="244.6669" x2="330.6808" y2="285.1857" gradientTransform="matrix(-0.6725 1.1648 1.1648 0.6725 440.4998 -412.5328)">
			<stop  offset="0" style="stop-color:#FF6600"/>
			<stop  offset="1" style="stop-color:#FF6600;stop-opacity:0"/>
		</linearGradient>
		<path fill="url(#SVGID_6_)" d="M508.983,123.485c1.562,4.478,2.594,9.538,1.136,14.159c-2.401,4.954-8.223,6.333-12.623,8.949
			c-5.332,2.728-10.547,6.746-12.048,12.845c-1.152,3.719-1.239,7.707-0.619,11.533l26.003,4.964
			c-2.001-5.026-4.021-10.56-2.903-16.017c2.012-4.268,7.07-6.139,8.935-10.588c2.984-5.494,2.816-12.603-0.836-17.751
			c-2.001-3.319-4.567-6.126-7.31-8.808l0.268,0.713L508.983,123.485z"/>
	</g>
	<g transform="matrix(0 1 -1 0 679.96 -377.3)">
		<g>
			<path d="M523.72,0.256c0,0-3.016-14.08,6.631-21.584c9.647-7.503,19.293-7.503,19.293-16.079c0-8.574-3.816-14.426-3.816-14.426
				s13.667,11.154,13.464,20.859c-0.309,14.735-11.079,15.422-11.428,21.184c-0.401,6.631,3.779,15.406,3.779,15.406L523.72,0.256z"
				/>
		</g>
		<path fill="#FFFF00" d="M523.72,0.256c0,0-3.016-14.08,6.631-21.584c9.647-7.503,19.293-7.503,19.293-16.079
			c0-8.574-3.816-14.426-3.816-14.426s13.667,11.154,13.464,20.859c-0.309,14.735-11.079,15.422-11.428,21.184
			c-0.401,6.631,3.779,15.406,3.779,15.406L523.72,0.256z"/>
		
			<linearGradient id="SVGID_7_" gradientUnits="userSpaceOnUse" x1="638.9398" y1="-118.724" x2="637.5859" y2="-78.2052" gradientTransform="matrix(0 -1.3449 -1.3449 0 382.0657 826.7534)">
			<stop  offset="0" style="stop-color:#FF6600"/>
			<stop  offset="1" style="stop-color:#FF6600;stop-opacity:0"/>
		</linearGradient>
		<path fill="url(#SVGID_7_)" d="M548.532-47.841c1.562,4.478,2.593,9.539,1.135,14.159c-2.401,4.954-8.222,6.333-12.622,8.95
			c-5.333,2.728-10.549,6.746-12.049,12.844c-1.153,3.719-1.238,7.708-0.618,11.534l26.003,4.964
			c-2.001-5.026-4.021-10.56-2.904-16.017c2.013-4.267,7.07-6.139,8.936-10.588c2.983-5.494,2.815-12.603-0.837-17.751
			c-2.001-3.319-4.566-6.126-7.31-8.807L548.532-47.841L548.532-47.841z"/>
	</g>
	<g transform="matrix(0 -1 1 0 377.3 679.96)">
		<g>
			<path d="M530.078,182.18c0,0-3.015-14.08,6.631-21.583c9.647-7.503,19.294-7.503,19.294-16.078
				c0-8.576-3.816-14.427-3.816-14.427s13.667,11.154,13.463,20.859c-0.308,14.735-11.08,15.421-11.428,21.184
				c-0.4,6.631,3.779,15.406,3.779,15.406L530.078,182.18z"/>
		</g>
		<path fill="#FFFF00" d="M530.078,182.18c0,0-3.015-14.08,6.631-21.583c9.647-7.503,19.294-7.503,19.294-16.078
			c0-8.576-3.816-14.427-3.816-14.427s13.667,11.154,13.463,20.859c-0.308,14.735-11.08,15.421-11.428,21.184
			c-0.4,6.631,3.779,15.406,3.779,15.406L530.078,182.18z"/>
		
			<linearGradient id="SVGID_8_" gradientUnits="userSpaceOnUse" x1="429.4078" y1="326.9052" x2="428.054" y2="367.4234" gradientTransform="matrix(0 1.3449 1.3449 0 108.4329 -428.1903)">
			<stop  offset="0" style="stop-color:#FF6600"/>
			<stop  offset="1" style="stop-color:#FF6600;stop-opacity:0"/>
		</linearGradient>
		<path fill="url(#SVGID_8_)" d="M554.891,134.084c1.561,4.478,2.594,9.538,1.136,14.159c-2.401,4.954-8.223,6.333-12.623,8.949
			c-5.333,2.729-10.548,6.747-12.05,12.845c-1.152,3.719-1.238,7.707-0.618,11.533l26.003,4.965
			c-2.001-5.027-4.022-10.56-2.904-16.017c2.012-4.267,7.07-6.138,8.936-10.588c2.983-5.494,2.815-12.603-0.837-17.751
			c-2.001-3.319-4.567-6.125-7.31-8.807L554.891,134.084L554.891,134.084z"/>
	</g>
	<g transform="matrix(-.5 .86603 -.86603 -.5 924 -230.81)">
		<g>
			<path d="M478.664,14.033c0,0-3.015-14.081,6.631-21.583c9.648-7.503,19.294-7.504,19.294-16.078
				c0.001-8.575-3.815-14.427-3.815-14.427s13.666,11.154,13.462,20.858c-0.309,14.736-11.079,15.421-11.428,21.184
				c-0.4,6.631,3.779,15.406,3.779,15.406L478.664,14.033z"/>
		</g>
		<path fill="#FFFF00" d="M478.664,14.033c0,0-3.015-14.081,6.631-21.583c9.648-7.503,19.294-7.504,19.294-16.078
			c0.001-8.575-3.815-14.427-3.815-14.427s13.666,11.154,13.462,20.858c-0.309,14.736-11.079,15.421-11.428,21.184
			c-0.4,6.631,3.779,15.406,3.779,15.406L478.664,14.033z"/>
		
			<linearGradient id="SVGID_9_" gradientUnits="userSpaceOnUse" x1="513.4923" y1="-141.2513" x2="512.1385" y2="-100.7338" gradientTransform="matrix(-0.6725 -1.1648 -1.1648 0.6725 677.4718 674.2775)">
			<stop  offset="0" style="stop-color:#FF6600"/>
			<stop  offset="1" style="stop-color:#FF6600;stop-opacity:0"/>
		</linearGradient>
		<path fill="url(#SVGID_9_)" d="M503.476-34.064c1.562,4.478,2.594,9.538,1.136,14.158c-2.401,4.955-8.222,6.334-12.624,8.95
			c-5.333,2.728-10.548,6.746-12.049,12.845c-1.152,3.719-1.238,7.707-0.618,11.533l26.003,4.964
			c-2.002-5.026-4.023-10.559-2.904-16.017c2.013-4.267,7.07-6.138,8.936-10.588c2.983-5.494,2.815-12.603-0.837-17.751
			c-2.001-3.318-4.566-6.126-7.31-8.807l0.267,0.712L503.476-34.064z"/>
	</g>
	<g transform="matrix(.5 -.86603 .86603 .5 133.26 533.47)">
		<g>
			<path d="M575.132,168.404c0,0-3.015-14.081,6.631-21.584c9.647-7.503,19.294-7.504,19.294-16.079
				c0-8.575-3.816-14.427-3.816-14.427s13.667,11.154,13.463,20.859c-0.309,14.735-11.08,15.421-11.428,21.183
				c-0.401,6.631,3.779,15.406,3.779,15.406L575.132,168.404z"/>
		</g>
		<path fill="#FFFF00" d="M575.132,168.404c0,0-3.015-14.081,6.631-21.584c9.647-7.503,19.294-7.504,19.294-16.079
			c0-8.575-3.816-14.427-3.816-14.427s13.667,11.154,13.463,20.859c-0.309,14.735-11.08,15.421-11.428,21.183
			c-0.401,6.631,3.779,15.406,3.779,15.406L575.132,168.404z"/>
		
			<linearGradient id="SVGID_10_" gradientUnits="userSpaceOnUse" x1="554.8455" y1="349.4359" x2="553.4916" y2="308.9184" gradientTransform="matrix(0.6725 1.1648 1.1648 -0.6725 -186.9727 -275.7143)">
			<stop  offset="0" style="stop-color:#FF6600"/>
			<stop  offset="1" style="stop-color:#FF6600;stop-opacity:0"/>
		</linearGradient>
		<path fill="url(#SVGID_10_)" d="M599.945,120.307c1.562,4.478,2.594,9.538,1.135,14.159c-2.401,4.954-8.222,6.334-12.623,8.949
			c-5.333,2.728-10.548,6.747-12.049,12.845c-1.152,3.719-1.238,7.708-0.618,11.533l26.003,4.965
			c-2.001-5.027-4.022-10.56-2.904-16.017c2.013-4.267,7.07-6.138,8.936-10.587c2.983-5.493,2.815-12.604-0.837-17.751
			c-2.001-3.319-4.567-6.125-7.31-8.807L599.945,120.307L599.945,120.307z"/>
	</g>
	<g transform="matrix(-.86603 .5 -.5 -.86603 1062.1 18.074)">
		<g>
			<path d="M446.532,48.491c0,0-3.015-14.081,6.632-21.584c9.647-7.503,19.294-7.503,19.294-16.078
				c0-8.575-3.817-14.427-3.817-14.427s13.667,11.154,13.463,20.859c-0.309,14.735-11.08,15.421-11.428,21.183
				c-0.4,6.631,3.779,15.406,3.779,15.406L446.532,48.491z"/>
		</g>
		<path fill="#FFFF00" d="M446.532,48.491c0,0-3.015-14.081,6.632-21.584c9.647-7.503,19.294-7.503,19.294-16.078
			c0-8.575-3.817-14.427-3.817-14.427s13.667,11.154,13.463,20.859c-0.309,14.735-11.08,15.421-11.428,21.183
			c-0.4,6.631,3.779,15.406,3.779,15.406L446.532,48.491z"/>
		
			<linearGradient id="SVGID_11_" gradientUnits="userSpaceOnUse" x1="393.5891" y1="-98.0448" x2="392.2352" y2="-57.5266" gradientTransform="matrix(-1.1648 -0.6725 -0.6725 1.1648 857.0625 394.5266)">
			<stop  offset="0" style="stop-color:#FF6600"/>
			<stop  offset="1" style="stop-color:#FF6600;stop-opacity:0"/>
		</linearGradient>
		<path fill="url(#SVGID_11_)" d="M471.346,0.394c1.56,4.478,2.593,9.538,1.135,14.159c-2.401,4.954-8.223,6.334-12.623,8.949
			c-5.333,2.729-10.548,6.748-12.049,12.846c-1.152,3.718-1.238,7.707-0.618,11.532l26.002,4.965c-2-5.027-4.021-10.56-2.903-16.017
			c2.012-4.267,7.07-6.139,8.936-10.588c2.983-5.494,2.814-12.603-0.837-17.751c-2.001-3.319-4.567-6.126-7.31-8.807L471.346,0.394
			L471.346,0.394z"/>
	</g>
	<g transform="matrix(.86603 -.5 .5 .86603 -4.843 284.59)">
		<g>
			<path d="M607.264,133.945c0,0-3.015-14.081,6.632-21.584c9.647-7.503,19.294-7.503,19.294-16.078
				c0-8.575-3.817-14.427-3.817-14.427s13.667,11.154,13.463,20.858c-0.308,14.736-11.08,15.421-11.428,21.183
				c-0.4,6.632,3.779,15.406,3.779,15.406L607.264,133.945z"/>
		</g>
		<path fill="#FFFF00" d="M607.264,133.945c0,0-3.015-14.081,6.632-21.584c9.647-7.503,19.294-7.503,19.294-16.078
			c0-8.575-3.817-14.427-3.817-14.427s13.667,11.154,13.463,20.858c-0.308,14.736-11.08,15.421-11.428,21.183
			c-0.4,6.632,3.779,15.406,3.779,15.406L607.264,133.945z"/>
		
			<linearGradient id="SVGID_12_" gradientUnits="userSpaceOnUse" x1="674.7531" y1="306.2251" x2="673.3993" y2="265.7069" gradientTransform="matrix(1.1648 0.6725 0.6725 -1.1648 -366.5676 4.0303)">
			<stop  offset="0" style="stop-color:#FF6600"/>
			<stop  offset="1" style="stop-color:#FF6600;stop-opacity:0"/>
		</linearGradient>
		<path fill="url(#SVGID_12_)" d="M632.077,85.848c1.561,4.478,2.594,9.538,1.136,14.159c-2.401,4.954-8.223,6.333-12.623,8.949
			c-5.333,2.729-10.548,6.747-12.049,12.845c-1.153,3.718-1.239,7.707-0.619,11.533l26.003,4.965
			c-2.001-5.026-4.022-10.56-2.903-16.017c2.012-4.267,7.069-6.139,8.935-10.588c2.983-5.494,2.815-12.603-0.837-17.751
			c-2.001-3.319-4.567-6.126-7.31-8.807L632.077,85.848L632.077,85.848z"/>
	</g>
	<path fill="#D45500" d="M682.809,148.671c0,33.883-28.541,61.35-63.748,61.35s-63.748-27.467-63.748-61.35
		c0-33.882,28.541-61.349,63.748-61.349S682.809,114.789,682.809,148.671z"/>
	<g>
		
			<radialGradient id="SVGID_13_" cx="744.9583" cy="143.0714" r="71.053" gradientTransform="matrix(1.5691 0.2097 0.1633 -1.222 -570.0599 159.9154)" gradientUnits="userSpaceOnUse">
			<stop  offset="0" style="stop-color:#FFFF00"/>
			<stop  offset="1" style="stop-color:#FFFF00;stop-opacity:0"/>
		</radialGradient>
		<path fill="url(#SVGID_13_)" d="M617.477,90.856c-25.21,0.333-49.336,17.76-56.413,42.076
			c-6.664,22.614,2.454,48.959,22.09,62.132c19.699,14.205,48.382,15.406,68.852,1.985c16.358-10.245,27.684-28.968,27.25-48.622
			c-0.014-20.42-11.91-40.063-29.815-49.594C639.806,93.379,628.618,90.562,617.477,90.856L617.477,90.856z"/>
	</g>
	<path fill="#D45500" d="M682.561,147.108c0,33.883-28.541,61.35-63.748,61.35c-35.207,0-63.748-27.467-63.748-61.35
		c0-33.883,28.54-61.35,63.748-61.35C654.019,85.758,682.561,113.225,682.561,147.108z"/>
	<g>
		
			<radialGradient id="SVGID_14_" cx="744.9583" cy="143.0714" r="71.053" gradientTransform="matrix(1.5691 0.2097 0.1633 -1.222 -570.0599 159.9154)" gradientUnits="userSpaceOnUse">
			<stop  offset="0" style="stop-color:#FFFF00"/>
			<stop  offset="1" style="stop-color:#FFFF00;stop-opacity:0"/>
		</radialGradient>
		<path fill="url(#SVGID_14_)" d="M617.477,90.856c-25.21,0.333-49.336,17.76-56.413,42.076
			c-6.664,22.614,2.454,48.959,22.09,62.132c19.699,14.205,48.382,15.406,68.852,1.985c16.358-10.245,27.684-28.968,27.25-48.622
			c-0.014-20.42-11.91-40.063-29.815-49.594C639.806,93.379,628.618,90.562,617.477,90.856L617.477,90.856z"/>
	</g>
	<path fill="#FFFFFF" stroke="#000000" stroke-width="0.7563" d="M579.064,113.228l37.781,15.832
		c-5.626,11.085-18.685,26.728-29.865,21.229C574.382,147.491,572.782,128.624,579.064,113.228L579.064,113.228z"/>
	<path fill="#FFFFFF" stroke="#000000" stroke-width="0.7563" d="M624.75,130.34l40.711,4.546
		c-2.275,12.22-10.397,30.909-22.674,28.783C629.911,164.534,623.059,146.882,624.75,130.34L624.75,130.34z"/>
	<path stroke="#000000" stroke-width="0.7563" d="M616.664,129.065l2.785,0.172l3.097,0.507l2.235,0.622l-0.222,2.413
		c-2.935,0.013-5.833-0.186-8.434-2.095L616.664,129.065z"/>
	<path stroke="#000000" stroke-width="0.6451" d="M580.901,116.484l32.223,13.503c-4.798,9.453-15.937,22.796-25.472,18.106
		C576.909,145.706,575.544,129.614,580.901,116.484L580.901,116.484z"/>
	<path stroke="#000000" stroke-width="0.6467" d="M627.585,132.955l34.807,3.886c-1.944,10.449-8.889,26.426-19.385,24.61
		C631.999,162.19,626.14,147.097,627.585,132.955L627.585,132.955z"/>
	<path d="M665.599,134.636l15.266-1.018l1.272,5.089l-18.064,2.036L665.599,134.636z"/>
	<path d="M578.843,113.264l-5.343-7.632l-3.307,3.307l6.87,9.923L578.843,113.264z"/>
	
		<linearGradient id="SVGID_15_" gradientUnits="userSpaceOnUse" x1="762.3783" y1="149.8154" x2="770.214" y2="124.962" gradientTransform="matrix(1.3449 0 0 -1.3449 -382.2225 336.0977)">
		<stop  offset="0" style="stop-color:#666666"/>
		<stop  offset="1" style="stop-color:#666666;stop-opacity:0"/>
	</linearGradient>
	<path fill="url(#SVGID_15_)" stroke="#000000" stroke-width="0.6467" d="M627.585,132.955l34.807,3.886
		c-1.944,10.449-8.889,26.426-19.385,24.61C631.999,162.19,626.14,147.097,627.585,132.955L627.585,132.955z"/>
	
		<linearGradient id="SVGID_16_" gradientUnits="userSpaceOnUse" x1="729.22" y1="160.7526" x2="717.8745" y2="135.8982" gradientTransform="matrix(1.3449 0 0 -1.3449 -382.2225 336.0977)">
		<stop  offset="0" style="stop-color:#666666"/>
		<stop  offset="1" style="stop-color:#666666;stop-opacity:0"/>
	</linearGradient>
	<path fill="url(#SVGID_16_)" stroke="#000000" stroke-width="0.6451" d="M580.901,116.484l32.223,13.503
		c-4.798,9.453-15.937,22.796-25.472,18.106C576.909,145.706,575.544,129.614,580.901,116.484L580.901,116.484z"/>
	<path fill="none" stroke="#000000" stroke-width="1.5127" stroke-linecap="round" d="M585.732,174.09
		c0,0,6.672,13.343,16.345,16.344c9.674,3.002,17.012,1.335,22.35-0.666c5.337-2.003,9.673-6.672,9.673-6.672"/>
	<path fill="none" stroke="#000000" stroke-width="0.7182" stroke-linecap="round" d="M588.76,172.265c0,0-1.76-0.326-3.028,0.443
		c-1.267,0.767-1.919,1.65-2.331,2.35c-0.412,0.702-0.508,1.502-0.508,1.502"/>
	<path fill="none" stroke="#000000" stroke-width="0.6892" stroke-linecap="round" d="M636.405,186.05c0,0,0.216-1.65-0.618-2.79
		c-0.835-1.141-1.745-1.704-2.463-2.054c-0.718-0.35-1.516-0.401-1.516-0.401"/>
	<g>
		<path fill="#DC7300" d="M615.674,143.947c0.328,2.673-1.343,4.986-3.127,6.537c-1.481,1.297-3.032,2.592-4.898,3.105
			c-2.468,0.806-5.14,1.128-7.313,2.779c-1.916,1.19-4.459,1.68-5.593,3.989c-0.669,1.557-0.081,3.342,0.492,4.824
			c0.972,2.258,2.528,4.106,3.987,5.983c3.266,2.624,7.684,2.368,11.316,0.9c1.379-0.579,2.849-1.152,3.786-2.489
			c1.264-1.535,2.552-3.682,1.817-5.831c-0.518-1.102-10.305,1.9-10.53,0.621c-0.983-3.641,9.08-11.278,10.151-14.723
			c0.285-1.792,0.629-3.741,0.024-5.495L615.674,143.947L615.674,143.947z"/>
	</g>
	
		<linearGradient id="SVGID_17_" gradientUnits="userSpaceOnUse" x1="749.4174" y1="131.9509" x2="729.9718" y2="134.114" gradientTransform="matrix(1.3449 0 0 -1.3449 -382.2225 336.0977)">
		<stop  offset="0" style="stop-color:#FFFF00"/>
		<stop  offset="1" style="stop-color:#FFFF00;stop-opacity:0"/>
	</linearGradient>
	<path fill="url(#SVGID_17_)" stroke="#000000" stroke-width="0.8296" d="M617.925,139.26c0,0-3.149,14.371-10.075,13.854
		c-8.081-0.603-15.832,6.061-15.112,10.39c0.719,4.329,5.038,11.256,12.235,11.256c7.196,0,12.953-6.927,12.953-6.927v-0.866"/>
	<path fill="#FF7F2A" d="M587.377,109.582c1.174,0.01,2.348,0.007,3.522,0.006c3.339,0.007,6.678-0.003,10.017,0.095
		c0.574,0.017,1.665,0.395,2.268,0.535c1.066,0.153,2.007,0.635,2.876,1.245c0.642,0.678,1.427,1.17,2.091,1.823
		c0.658,0.768,1.351,1.481,1.893,2.343c0.466,1.028,1.416,1.534,2.206,2.258c0.522,0.466,1.198,0.594,1.862,0.725l-7.92,1.038
		c-0.706-0.245-1.37-0.541-1.908-1.081c-0.873-0.715-1.669-1.462-2.222-2.467c-0.564-0.775-1.228-1.464-1.889-2.156
		c-0.677-0.581-1.386-1.132-2.089-1.677c-0.87-0.485-1.779-0.828-2.769-0.99c-0.39-0.091-1.036-0.248-1.426-0.314
		c-0.262-0.044-1.057-0.098-0.791-0.104c12.482-0.268,8.381,0.005,5.679-0.027c-1.148-0.001-2.295-0.003-3.443,0.007
		L587.377,109.582L587.377,109.582z"/>
	<path fill="#FF7F2A" d="M628.598,122.813c1.26,0.054,2.508-0.017,3.757-0.173c3.915-0.438,7.936-0.698,11.838-0.123
		c0.189,0.028,0.388,0.02,0.568,0.083c0.599,0.21,1.669,1.06,2.295,1.422c1.092,0.461,2.244,0.843,3.407,1.089
		c1.269,0.203,2.556,0.24,3.839,0.259c2.777-0.004,6.793,0.146-6.162-0.016c-0.278-0.004,0.698-0.068,1.427-0.307
		c0.766-0.212,1.481-0.558,2.228-0.821l7.948,1.029c-0.786,0.18-1.476,0.545-2.237,0.785c-0.317,0.111-0.615,0.274-0.935,0.375
		c-3.221,1.018-6.783,0.163-10.151,0.184c-1.294-0.049-2.596-0.125-3.859-0.434c-1.177-0.346-2.377-0.683-3.439-1.312
		c-0.899-0.534-1.721-1.166-2.818-1.175c-2.957-0.234-1.12-0.072,6.626-0.082c0.236,0-0.471,0.016-0.706,0.027
		c-0.668,0.032-1.337,0.081-2.001,0.164c-1.221,0.157-2.43,0.366-3.667,0.288L628.598,122.813z"/>
	
		<linearGradient id="SVGID_18_" gradientUnits="userSpaceOnUse" x1="761.0542" y1="194.0312" x2="732.0179" y2="97.3818" gradientTransform="matrix(1.3449 0 0 -1.3449 -382.2225 336.0977)">
		<stop  offset="0" style="stop-color:#FFFFFF"/>
		<stop  offset="1" style="stop-color:#FFFFFF;stop-opacity:0"/>
	</linearGradient>
	<path fill="url(#SVGID_18_)" d="M619.564,90.834c-0.697-0.005-1.397,0.004-2.093,0.022c-15.713,0.208-31.004,7.058-42.009,18.077
		c2.815,14.304,10.949,27.568,23.153,35.755c19.699,14.205,48.389,15.403,68.859,1.981c3.893-2.438,7.498-5.362,10.73-8.66
		c-3.251-16.46-13.936-31.289-28.763-39.182c-9.03-5.113-19.431-7.905-29.877-7.993L619.564,90.834z"/>
</g>
</svg>
