<?xml version="1.0" encoding="utf-8"?>
<!-- Generator: Adobe Illustrator 16.0.0, SVG Export Plug-In . SVG Version: 6.00 Build 0)  -->
<!DOCTYPE svg PUBLIC "-//W3C//DTD SVG 1.1//EN" "http://www.w3.org/Graphics/SVG/1.1/DTD/svg11.dtd">
<svg version="1.1" id="Layer_1" xmlns="http://www.w3.org/2000/svg" xmlns:xlink="http://www.w3.org/1999/xlink" x="0px" y="0px"
	 width="768px" height="430px" viewBox="0 0 768 430" enable-background="new 0 0 768 430" xml:space="preserve">
<g>
	<path fill="#D6ECFD" d="M506.695,213.529c17.521-18.635-45.212-9.473-85.209,6.955c-35.8,14.706-64.919,40.664-78.831,54.052
		c-13.911,13.388-27.823,16.397-27.823,16.397s-4.637,23.366,7.49,30.499c12.129,7.131,59.214-23.187,89.533-49.595
		c30.32-26.406,94.707-31.913,106.935-43.417C531.019,216.917,522.88,212.904,506.695,213.529z"/>
	<path fill="#FFFFFF" d="M517.521,214.048c-2.911-0.524-6.59-0.684-10.826-0.519c17.521-18.635-45.212-9.473-85.209,6.955
		c-35.8,14.706-64.919,40.664-78.831,54.052c-13.911,13.388-27.823,16.397-27.823,16.397s-0.305,1.542-0.555,3.953
		c14.422,4.681,30.919-2.285,44.072-7.343c21.938-8.025,38.493-22.702,58.054-35.85c16.72-11.234,65.945-31.433,100.763-30.83
		C520.204,221.064,521.513,215.507,517.521,214.048z"/>
	<path fill="#808080" d="M507.322,213.24c2.324-2.613,3.129-4.791,2.399-6.484c-1.102-2.542-5.543-3.832-13.211-3.832
		c-18.491,0-51.491,7.605-75.125,17.312c-25.899,10.64-53.189,29.349-78.917,54.106c-13.69,13.176-27.555,16.301-27.693,16.329
		l-0.172,0.035l-0.033,0.174c-0.047,0.234-4.533,23.634,7.618,30.784c1.235,0.722,2.857,1.09,4.818,1.09
		c16.551,0,57.022-26.325,85.025-50.716c18.098-15.759,48.23-24.021,72.441-30.661c16.503-4.521,29.54-8.096,34.5-12.762
		c4.829-4.544,6.747-8.184,5.702-10.821C523.354,214.466,517.484,212.921,507.322,213.24z M518.605,228.225
		c-4.861,4.574-18.491,8.312-34.273,12.637c-24.263,6.653-54.464,14.934-72.652,30.775c-27.932,24.326-68.247,50.582-84.674,50.582
		c-1.866,0-3.396-0.34-4.548-1.021c-11.288-6.639-7.776-27.931-7.394-30.044c1.66-0.407,14.807-3.944,27.776-16.426
		c25.68-24.711,52.91-43.385,78.75-53.996c23.577-9.685,56.488-17.273,74.92-17.273c7.328,0,11.726,1.213,12.718,3.509
		c0.684,1.581-0.235,3.728-2.729,6.379l-0.447,0.476l0.653-0.026c1.068-0.042,2.107-0.062,3.089-0.062
		c8.305,0,13.279,1.472,14.383,4.258C525.132,220.404,523.26,223.848,518.605,228.225z"/>
	<path fill="#808080" d="M495.161,218.266c0,0,10.108-2.591,11.74-4.566l-0.412-0.34
		C504.958,215.214,495.259,218.235,495.161,218.266z"/>
	<path fill="#D6ECFD" d="M542.676,318.399c5.977-6.422,4.64-12.844,2.407-16.676c-5.346,13.197-23.702,15.706-36.561,15.426
		c-20.421-0.444-38.079-34.154-88.106-48.153c-37.81-7.492-59.752,20.312-83.735,22.83c-23.81,2.495-25.773-11.059-20.867-27.289
		c4.711-15.592,38.256-54.844,50.831-72.768c12.573-17.925,20.064-46.907,17.39-66.525c-2.676-19.62-16.855-32.016-18.549-33.71
		c-1.694-1.695-5.928-5.116-5.928-5.116s-19.13,35.392-23.545,38.871c0,0,6.154,6.151,10.167,11.235
		c4.815,6.554,2.897,33.843-17.078,56.522c-19.186,21.782-48.512,53.653-61.353,77.729c-12.9,24.189-13.185,79.166,6.778,90.605
		c22.65,12.981,167.294,14.981,206.888,11.948c39.593-3.031,53.505-25.594,58.677-31.836c5.175-6.242,4.594-8.471,1.917-9.008
		c14.85-9.361,14.313-18.369,14.046-18.991C555.785,312.868,547.136,315.726,542.676,318.399z"/>
	<path fill="#FFFFFF" d="M533.983,325.131c5.973-6.421,11.86-13.688,9.631-17.521c-8.596,14.043-24.597,12.055-37.455,11.771
		c-20.421-0.449-35.357-28.895-85.385-42.896c-37.811-7.489-61.983,19.779-85.967,22.295c-23.81,2.494-35.003-18.604-30.098-34.834
		c4.711-15.59,43.563-59.782,56.137-77.706c12.574-17.926,25.861-41.378,23.187-60.996c-2.676-19.62-16.855-32.016-18.549-33.71
		c-1.694-1.695-5.928-5.116-5.928-5.116s-19.13,35.392-23.545,38.871c0,0,6.154,6.151,10.167,11.235
		c4.815,6.554,2.897,33.843-17.078,56.522c-19.186,21.782-48.512,53.653-61.353,77.729c-12.9,24.189-11.757,70.183,8.205,81.624
		c22.649,12.98,162.62,15.126,202.091,10.765c41.974-4.636,56.475-23.364,49.387-28.181c16.342-7.49,17.904-12.931,17.637-13.553
		C544.799,320.808,538.44,322.456,533.983,325.131z"/>
	<path fill="#808080" d="M555.764,313.139c-1.508,0-7.771,2.143-11.894,4.291c5.552-6.925,2.911-13.321,1.446-15.841l-0.274-0.475
		l-0.205,0.505c-5.392,13.298-23.903,15.283-34.459,15.283c-0.627,0-1.242-0.006-1.85-0.021c-8.894-0.192-17.401-6.87-28.176-15.329
		c-14.163-11.12-31.79-24.958-59.884-32.82c-4.295-0.851-8.604-1.28-12.812-1.28c-17.39,0-31.464,7.304-43.881,13.753
		c-9.325,4.838-18.131,9.409-27.124,10.354c-9.986,1.042-16.779-0.717-20.144-5.251c-3.299-4.445-3.446-11.742-0.438-21.694
		c3.295-10.908,21.05-33.814,35.318-52.221c6.034-7.784,11.732-15.135,15.474-20.47c12.458-17.756,20.115-47.062,17.436-66.715
		c-1.15-8.43-5.234-21.071-18.167-33.42c-0.197-0.188-0.352-0.335-0.457-0.442c-1.686-1.684-5.907-5.1-5.949-5.133l-0.251-0.204
		l-0.152,0.283c-0.191,0.354-19.154,35.383-23.476,38.786l-0.235,0.187l0.213,0.212c0.061,0.062,6.188,6.201,10.138,11.206
		c2.169,2.95,3.229,10.896,0.714,21.996c-2.758,12.164-9.071,24.306-17.774,34.189c-2.126,2.412-4.373,4.947-6.709,7.582
		c-19.269,21.726-43.246,48.764-54.682,70.201c-6.281,11.777-9.801,31.493-8.965,50.22c0.921,20.649,6.698,35.498,15.847,40.742
		c15.855,9.084,93.325,13.227,158.598,13.227h0.004c20.487,0,38.146-0.454,48.441-1.242c36.259-2.775,51.006-21.825,57.304-29.96
		c0.596-0.768,1.109-1.432,1.557-1.969c3.147-3.802,4.409-6.401,3.862-7.952c-0.221-0.617-0.722-1.062-1.494-1.33
		c15.234-9.828,13.67-18.919,13.636-19C556.194,313.139,555.87,313.139,555.764,313.139z M542.396,331.924
		c-0.789,0.518-2.964,1.1-2.964,1.1s2.196-0.321,2.885-0.185c0.731,0.146,1.156,0.552,1.333,1.057
		c0.476,1.339-0.791,3.839-3.765,7.431c-0.453,0.546-0.97,1.212-1.568,1.984c-6.253,8.076-20.899,26.997-56.923,29.752
		c-10.283,0.787-27.924,1.241-48.399,1.241h-0.004c-65.204,0-142.562-4.117-158.332-13.152
		c-8.987-5.153-14.666-19.841-15.578-40.302c-0.831-18.642,2.664-38.246,8.903-49.944c11.405-21.386,35.359-48.396,54.608-70.1
		c2.337-2.637,4.585-5.17,6.71-7.583c19.595-22.247,22.243-49.846,17.086-56.864c-3.567-4.519-8.883-9.942-9.983-11.056
		c4.602-4.221,21.318-34.938,23.233-38.473c0.933,0.76,4.228,3.466,5.658,4.895c0.107,0.108,0.263,0.258,0.464,0.449
		c12.822,12.244,16.869,24.761,18.008,33.104c2.664,19.537-4.955,48.677-17.344,66.338c-3.734,5.322-9.429,12.67-15.46,20.448
		c-14.293,18.441-32.082,41.392-35.408,52.396c-3.102,10.263-2.932,17.513,0.522,22.162c3.489,4.702,10.433,6.536,20.63,5.468
		c9.093-0.953,17.944-5.548,27.312-10.411c12.365-6.418,26.376-13.693,43.636-13.693c4.173,0,8.447,0.427,12.687,1.267
		c27.971,7.827,45.552,21.63,59.681,32.722c10.849,8.517,19.42,15.243,28.492,15.443c0.61,0.013,1.229,0.021,1.861,0.021
		c10.556,0,28.977-1.978,34.738-15.106c1.505,2.847,3.59,9.195-2.635,15.884l-1.288,1.385l1.622-0.972
		c4.111-2.465,11.475-4.954,12.948-4.954l0.056,0.003C555.929,314.562,556.3,322.758,542.396,331.924z"/>
	<path fill="#D6ECFD" d="M556.723,238.585c-8.159-1.871-18.326,0.134-24.881,2.542c0,0,11.816-7.356,8.963-10.632
		c-13.107-13.178-47.354-6.264-85.074,6.754c-37.215,12.84-85.966,54.934-100.234,66.703c-14.268,11.773-26.701,9.01-26.701,9.01
		l37.349,23.533c0,0,9.332,1.604,13.43,4.375c6.599,4.458,11.28,7.534,41.735,10.704c34.138,3.545,61.174-10.348,67.95-14.804
		c6.777-4.462,1.785-4.462-8.918-4.997c24.257-1.427,37.456-12.663,37.101-16.048c-0.359-3.391-7.313-1.427-19.264-2.277
		c9.809-0.851,29.429-6.643,36.65-11.639c7.225-4.991,5.976-9.72,0.089-12.391c12.307-5.888,21.805-17.124,21.222-20.066
		c-0.586-2.943-5.169-3.882-11.188-2.943c0.535-0.268,17.523-11.104,21.804-16.989C571.034,243.537,562.838,239.987,556.723,238.585
		z"/>
	<path fill="#FFFFFF" d="M552.846,240.905c-8.162-1.872-25.441,4.557-31.996,6.966c0,0,13.998-12.341,11.145-15.615
		c-13.11-13.179-38.543-8.024-76.264,4.993c-37.215,12.84-85.966,54.934-100.234,66.703c-14.268,11.773-26.701,9.01-26.701,9.01
		s-0.517,13.794,13.504,23.809c7.49,5.35,23.845-0.275,23.845-0.275s9.574-1.957,15.748,0.724c8.117,3.521,9.557,5.922,40.128,7.574
		c32.518,1.76,45.552-3.256,52.304-7.755c5.216-3.479,1.738-5.619-8.964-6.154c24.257-1.427,41.321-10.191,41.321-13.597
		c0-2.656-7.21-2.321-18.861-6.735c9.81-0.847,33.021-4.284,40.277-9.231c8.962-6.108,6.921-9.494,0.749-9.818
		c12.307-5.885,21.368-16.788,20.787-19.731c-0.585-2.94-4.286-3.902-10.308-2.968c0.535-0.266,17.664-12.559,21.943-18.445
		C565.552,244.471,558.958,242.309,552.846,240.905z"/>
	<path fill="#808080" d="M556.782,238.326c-7.436-1.709-16.431-0.255-23.053,1.87c2.639-1.829,7.354-5.441,7.758-8.14
		c0.102-0.672-0.061-1.255-0.493-1.751c-11.343-11.404-39.262-9.214-85.351,6.689c-34.481,11.897-79.582,49.482-96.562,63.631
		c-1.432,1.192-2.69,2.241-3.756,3.12c-13.993,11.543-26.406,9.244-26.531,9.216c0,0,12.67,2.909,26.872-8.805
		c1.066-0.878,2.325-1.929,3.757-3.12c16.958-14.13,62.005-51.668,96.393-63.534c45.876-15.832,73.613-18.062,84.787-6.832
		c0.313,0.362,0.43,0.792,0.354,1.306c-0.516,3.441-9.17,8.867-9.261,8.924l-2.206,1.375l2.442-0.898
		c6.647-2.44,16.635-4.388,24.728-2.53c2.177,0.5,9.383,2.419,10.781,6.155c0.495,1.321,0.189,2.755-0.905,4.262
		c-4.181,5.75-21.024,16.562-21.705,16.905l-1.529,0.768l1.689-0.262c6.191-0.963,10.359,0.083,10.883,2.729
		c0.563,2.838-9.045,14.019-21.073,19.771l-0.518,0.247l0.522,0.237c2.864,1.301,4.535,3.082,4.708,5.016
		c0.197,2.201-1.476,4.592-4.837,6.916c-6.533,4.517-23.252,9.706-33.64,11.242c-1.03,0.156-3.775,0.559-3.775,0.559
		s3.237,0.466,4.332,0.502c2.79,0.094,5.245,0.059,7.333,0.027c5.188-0.074,8.041-0.117,8.247,1.83
		c0.062,0.601-0.415,1.552-1.311,2.608c-3.415,4.025-15.239,11.951-35.538,13.15l-2.542,0.177l4.06,0.43
		c5.555,0.27,9.943,0.484,10.225,1.517c0.104,0.377-0.328,1.183-2.958,2.91c-9.897,6.515-36.806,17.979-67.774,14.763
		c-30.54-3.175-35.184-6.313-41.612-10.657c-4.096-2.767-13.58-4.154-13.58-4.154c0.092,0.021,9.273,1.89,13.28,4.599
		c6.493,4.386,11.185,7.557,41.856,10.745c3.704,0.385,7.349,0.562,10.913,0.562c26.401,0,48.442-9.639,57.212-15.407
		c2.457-1.619,3.409-2.664,3.181-3.498c-0.333-1.22-3.13-1.518-8.204-1.785c18.031-1.938,28.656-9.192,31.889-13.004
		c1.018-1.202,1.516-2.242,1.434-3.012c-0.256-2.43-3.288-2.385-8.783-2.308c-2.176,0.03-4.749,0.069-7.682-0.042
		c10.465-1.576,27.184-6.779,33.74-11.312c3.531-2.441,5.282-5.001,5.069-7.401c-0.183-2.045-1.739-3.841-4.512-5.217
		c12.216-6.022,21.459-17.106,20.864-20.116c-0.55-2.762-4.427-4-10.239-3.325c3.934-2.512,17.134-11.343,20.808-16.396
		c1.207-1.663,1.535-3.263,0.974-4.764C566.493,240.937,559.655,238.984,556.782,238.326z"/>
	<path fill="#808080" d="M502.343,257.189l0.144,0.516c9.23-2.525,29.305-16.219,29.508-16.358l-0.302-0.441
		C531.49,241.043,511.49,254.687,502.343,257.189z"/>
	<path fill="#808080" d="M504.601,282.394l0.041,0.535c8.515-0.666,39.129-15.642,40.425-16.28l-0.233-0.479
		C544.517,266.325,513.013,281.738,504.601,282.394z"/>
	<path fill="#808080" d="M506.682,298.245l0.027,0.535c6.657-0.332,27.431-8.76,28.31-9.114l-0.2-0.496
		C534.605,289.255,513.249,297.918,506.682,298.245z"/>
	<path fill="#D6ECFD" d="M516.998,270.688c-4.55-7.289-12.711-7.69-19.534-6.508c12.441-8.137,10.88-13.197,8.026-17.301
		c-7.491-10.879-22.224-6.567-22.224-6.567l-10.259,79.069c0,0,28.004-2.176,27.132-11.771c-0.178-1.961-4.37-1.875-8.383-1.786
		c0,0,25.171-6.377,23.988-13.193c-1.516-5.532-9.183-6.515-16.316-5.265C499.429,287.365,520.805,278.647,516.998,270.688z"/>
	<path fill="#FFFFFF" d="M512.269,271.771c-4.55-7.289-14.67-4.961-23.485-1.635c12.438-8.137,14.746-18.976,11.892-23.078
		c-6.287-9.341-17.408-6.746-17.408-6.746s-17.33,28.343-18.619,39.089c-1.214,10.141,8.36,39.98,8.36,39.98
		s24.501-4.372,23.792-10.254c-0.235-1.959-7.094-2.723-11.105-2.633c0,0,26.352-7.714,25.052-13.625
		c-1.516-5.526-10.784-4.727-17.918-3.477C492.828,289.393,516.079,279.732,512.269,271.771z"/>
	<path fill="#808080" d="M498.625,263.726c5.432-3.709,8.38-7.079,9.002-10.282c0.529-2.729-0.672-4.927-1.915-6.715
		c-7.514-10.91-22.623-6.369-22.623-6.369c0.147-0.039,14.888-3.923,22.183,6.673c1.181,1.699,2.322,3.773,1.831,6.311
		c-0.632,3.25-3.833,6.72-9.784,10.615l-1.083,0.705l1.275-0.221c9.148-1.582,15.624,0.566,19.244,6.363
		c0.543,1.132,0.57,2.357,0.073,3.637c-2.508,6.497-17.353,12.613-17.502,12.678l-2.31,0.939l2.457-0.431
		c6.438-1.129,14.494-0.476,16.009,5.042c1.127,6.502-23.541,12.832-23.793,12.896l-2.284,0.577l2.356-0.054
		c3.729-0.079,7.957-0.175,8.109,1.541c0.117,1.254-0.3,2.461-1.229,3.573c-5.295,6.33-25.433,8.158-25.634,8.176
		c0,0,20.609-1.33,26.045-7.83c1.026-1.23,1.479-2.566,1.354-3.963c-0.166-1.837-3.126-2.097-6.498-2.068
		c6.082-1.716,23.118-7.071,22.096-12.964c-1.461-5.334-8.198-6.484-14.644-5.74c4.13-1.88,13.891-6.808,15.968-12.18
		c0.548-1.423,0.518-2.79-0.105-4.087C513.627,264.785,507.375,262.495,498.625,263.726z"/>
	<polygon fill="#808080" points="493.753,289.393 499.847,287.495 499.643,287.003 	"/>
	<path fill="#808080" d="M478.268,279.362l0.09-0.096L478.268,279.362z"/>
	<path fill="#808080" d="M478.268,279.362c-0.158,0.157-0.225,0.236-0.225,0.236C478.074,279.551,478.168,279.456,478.268,279.362z"
		/>
	<path fill="#808080" d="M497.333,263.946c-1.267,0.722-6.478,4.379-10.801,8.034c-5.324,4.499-7.458,6.555-8.175,7.286
		c2.393-2.245,17.081-13.625,19.241-14.855L497.333,263.946z"/>
	<path fill="#C1873A" d="M246.523,165.194c-6.063,15.874-2.141,28.537,6.956,27.822c9.096-0.711,19.623-18.378,26.083-26.752
		c7.982-10.344,21.716-10.344,21.716-10.344s-5.477-28.159-8.873-31.032C289.009,122.013,252.476,149.612,246.523,165.194z"/>
	<path fill="#D69C47" d="M246.523,165.194c-6.063,15.874-1.963,29.828,6.866,25.725c6.859-3.187,19-18.679,24.97-27.642
		c10.803-16.216,22.919-7.357,22.919-7.357s-5.477-28.159-8.873-31.032C289.009,122.013,252.476,149.612,246.523,165.194z"/>
	<path fill="#EFC48F" d="M246.523,165.194c-4.84,12.67-3.187,21.558,0.976,25.457c-5.389-9.515-0.307-23.695,4.729-34.65
		C249.603,159.284,247.581,162.43,246.523,165.194z"/>
	<path fill="#6B4E24" d="M292.577,124.683c-0.213-0.18-0.515-0.271-0.899-0.271c-3.101,0-12.961,6.346-22.937,14.761
		c-5.574,4.704-18.921,16.642-22.468,25.927c-3.789,9.92-3.922,19.31-0.342,24.508c1.667,2.423,4.029,3.707,6.824,3.707
		c0.245,0,0.493-0.011,0.745-0.031c7.46-0.585,15.585-11.988,22.115-21.151c1.498-2.103,2.914-4.089,4.16-5.705
		c7.806-10.117,21.367-10.241,21.503-10.241h0.324l-0.062-0.32C301.316,154.715,296.005,127.583,292.577,124.683z M279.35,166.102
		c-1.251,1.624-2.671,3.614-4.172,5.722c-6.122,8.592-14.507,20.362-21.719,20.928c-2.936,0.23-5.385-0.974-7.087-3.446
		c-3.48-5.054-3.326-14.258,0.402-24.016c5.574-14.59,38.777-40.344,44.905-40.344c0.254,0,0.44,0.049,0.555,0.146
		c3.097,2.621,8.11,27.492,8.721,30.57C298.818,155.747,286.639,156.655,279.35,166.102z"/>
	<path fill="#4C0000" d="M256.435,150.71c-1.821,7.218-6.128,22.253-6.167,28.13c-0.028,4.368,1.004,8.047,6.511,2.584
		c3.833-3.566,8.189-11.275,10.479-15.071c1.61-2.669,19.409-25.117,27.966-35.406c-1.33-3.044-1.951-5.324-2.818-6.059
		C289.96,122.819,268.094,137.826,256.435,150.71z"/>
	<path fill="#840C0C" d="M256.435,150.71c-1.821,7.218-6.128,22.253-6.167,28.13c-0.018,2.773,0.394,5.264,2.104,5.32
		c-0.75-13.162,4.188-25.507,8.259-37.764C259.135,147.841,257.721,149.289,256.435,150.71z"/>
	<path fill="#6B4E24" d="M294.375,128.168c-0.671-1.709-1.157-2.945-1.798-3.485c-0.2-0.171-0.488-0.255-0.855-0.255
		c-4.684,0-24.534,14.001-35.485,26.103l-0.046,0.05l-0.016,0.064c-0.341,1.35-0.769,2.974-1.239,4.758
		c-2.07,7.862-4.904,18.624-4.935,23.433c-0.018,2.619,0.354,4.274,1.137,5.061c0.353,0.355,0.786,0.535,1.29,0.535
		c1.144,0,2.629-0.922,4.533-2.811c3.411-3.175,7.158-9.473,9.636-13.641c0.323-0.542,0.62-1.042,0.889-1.489
		c1.597-2.649,19.443-25.15,27.942-35.373l0.106-0.126l-0.066-0.151C295.043,129.861,294.688,128.962,294.375,128.168z
		 M267.028,166.217c-0.271,0.446-0.567,0.947-0.89,1.489c-2.463,4.142-6.186,10.4-9.548,13.527
		c-2.436,2.419-4.136,3.228-5.073,2.288c-0.666-0.672-0.997-2.247-0.981-4.681c0.03-4.741,2.856-15.467,4.918-23.299
		c0.464-1.759,0.884-3.361,1.223-4.701c10.664-11.761,30.566-25.878,35.044-25.878c0.233,0,0.409,0.045,0.511,0.13
		c0.537,0.455,1.002,1.636,1.645,3.271c0.297,0.759,0.634,1.613,1.036,2.539C286.362,141.195,268.627,163.562,267.028,166.217z"/>
	<path fill="#C1873A" d="M236.892,141.118c-8.559,7.49-16.585,11.055-23.363,13.02c-6.777,1.961-10.167,6.51-8.739,10.076
		c1.427,3.568,13.198,7.491,24.523,6.955c11.325-0.536,26.039-3.61,37.409-12.975c11.37-9.362,23.811-30.859,23.811-30.859
		c-6.02-2.044-40.265-6.059-40.265-6.059S245.454,133.625,236.892,141.118z"/>
	<path fill="#D69C47" d="M236.892,141.118c-8.559,7.49-16.585,11.055-23.363,13.02c-6.777,1.961-10.167,6.51-8.739,10.076
		c1.427,3.568,13.643,4.904,24.969,4.369c11.325-0.533,23.765-4.788,35.136-14.152c11.37-9.365,21.654-28.05,21.654-28.05
		c-6.019-2.045-36.28-5.105-36.28-5.105S245.454,133.625,236.892,141.118z"/>
	<path fill="#EFC48F" d="M236.892,141.118c-8.559,7.49-16.585,11.055-23.363,13.02c-5.965,1.726-9.301,5.453-9.043,8.755
		c0.332-2.871,3.871-4.521,7.259-5.368c19.87-4.584,35.366-17.905,42.808-35.798c-2.622-0.284-4.284-0.452-4.284-0.452
		S245.454,133.625,236.892,141.118z"/>
	<path fill="#6B4E24" d="M250.299,121.009l-0.205-0.024l-0.075,0.193c-0.049,0.123-4.892,12.377-13.303,19.738
		c-7.161,6.264-14.769,10.504-23.262,12.963c-4.173,1.208-7.321,3.447-8.637,6.143c-0.717,1.467-0.812,2.95-0.277,4.291
		c1.475,3.687,12.487,7.173,22.661,7.173c0.714,0,1.428-0.017,2.125-0.05c8.612-0.407,24.943-2.64,37.565-13.036
		c11.277-9.287,23.747-30.717,23.871-30.931l0.165-0.282l-0.309-0.106C284.64,125.05,251.699,121.173,250.299,121.009z
		 M266.552,157.987c-12.503,10.296-28.707,12.512-37.252,12.916c-0.687,0.031-1.393,0.048-2.098,0.048
		c-10.763,0-20.926-3.741-22.164-6.836c-0.478-1.196-0.389-2.53,0.26-3.86c1.232-2.522,4.336-4.713,8.305-5.861
		c8.57-2.48,16.246-6.758,23.466-13.075c7.929-6.938,12.713-18.149,13.372-19.754c2.792,0.33,33.252,3.963,39.692,5.921
		C288.607,130.071,277.044,149.348,266.552,157.987z"/>
	
		<ellipse transform="matrix(-0.6542 -0.7563 0.7563 -0.6542 318.1686 421.3957)" fill="#7C4C1C" cx="255.418" cy="137.962" rx="2.474" ry="3.511"/>
	
		<ellipse transform="matrix(-0.6541 -0.7564 0.7564 -0.6541 319.1073 421.1203)" fill="#56310B" cx="255.837" cy="137.6" rx="2.084" ry="2.956"/>
	<path fill="#4C2B09" d="M256.457,134.731c-0.948,0-1.98,0.422-2.831,1.157c-0.751,0.648-1.28,1.469-1.489,2.309
		c-0.218,0.876-0.067,1.669,0.424,2.237c0.422,0.49,1.069,0.759,1.82,0.759c0.95,0,1.982-0.422,2.832-1.155
		c0.75-0.65,1.279-1.471,1.489-2.311c0.217-0.875,0.067-1.67-0.424-2.236C257.854,135,257.208,134.731,256.457,134.731z
		 M258.182,137.598c-0.183,0.733-0.652,1.456-1.32,2.034c-0.754,0.652-1.658,1.027-2.482,1.027c-0.602,0-1.09-0.198-1.416-0.574
		c-0.373-0.432-0.482-1.056-0.309-1.756c0.183-0.735,0.652-1.458,1.319-2.035c0.754-0.653,1.658-1.026,2.482-1.026
		c0.603,0,1.09,0.198,1.416,0.573C258.246,136.272,258.357,136.897,258.182,137.598z"/>
	<path fill="#D6ECFD" d="M353.134,81.948c-17.657-10.968-46.149-17.791-72.635-5.484c-26.484,12.306-28.893,29.429-26.752,35.582
		c-1.873,0-9.47,0.57-8.562,8.292c0.714,6.065,5.481,9.77,14.001,11.326c14.09,2.142,22.74,2.944,35.492-4.368
		c-8.56,5.083-13.912,24.611-2.407,30.498c25.682,9.364,43.606-6.689,54.308-18.192c10.701-11.504,8.3-20.808,8.3-20.808
		l9.491-28.283C364.37,90.51,362.271,87.949,353.134,81.948z"/>
	<path fill="#FFFFFF" d="M353.134,81.948c-17.657-10.968-46.149-17.791-72.635-5.484c-26.484,12.306-28.893,29.429-26.752,35.582
		c-1.873,0-9.47,0.57-8.562,8.292c0.714,6.065,5.481,9.77,14.001,11.326c14.09,2.142,23.278,2.566,36.031-4.747
		c-8.561,5.083-9.377,20.798,2.126,26.685c17.801,7.253,36.572-5.976,47.273-17.479c10.701-11.503,10.262-17.331,10.262-17.331
		s5.879-1.305,9.697-11.028c2.733-6.957-0.206-17.255-0.206-17.255S362.271,87.949,353.134,81.948z"/>
	<path fill="#808080" d="M353.274,81.722c-9.653-5.998-21.414-10.085-33.115-11.509c-13.914-1.692-27.668,0.385-39.772,6.01
		c-14.518,6.745-21.191,14.713-24.232,20.211c-3.546,6.409-3.726,12.178-2.772,15.35c-1.457,0.048-4.883,0.417-6.939,2.729
		c-1.296,1.456-1.809,3.428-1.522,5.857c0.714,6.076,5.499,9.965,14.226,11.559c13.108,1.99,21.476,2.87,32.922-2.921
		c-4.012,3.969-6.842,11.023-6.645,17.273c0.171,5.445,2.559,9.617,6.756,11.761c5.384,1.965,10.44,2.812,15.177,2.812
		c17.407,0,30.473-11.454,39.419-21.072c10.674-11.475,8.104-20.991,8.104-20.991c0.021,0.094,1.972,9.375-8.496,20.626
		c-11.276,12.123-29.146,27.192-53.989,18.136c-3.985-2.039-6.271-6.048-6.436-11.29c-0.229-7.298,3.743-15.705,8.857-18.741
		l-0.27-0.46c-12.756,7.313-21.306,6.464-35.311,4.338c-8.581-1.568-13.088-5.196-13.783-11.094c-0.268-2.27,0.201-4.1,1.391-5.44
		c2.108-2.368,5.818-2.554,6.904-2.554h0.376l-0.124-0.355c-1.777-5.112-0.705-22.559,26.613-35.251
		c26.818-12.46,54.974-5.344,72.375,5.466c8.969,5.889,11.155,8.48,11.176,8.505l0.413-0.339
		C364.49,90.235,362.348,87.68,353.274,81.722z"/>
	<path fill="#3F3A36" d="M294.357,127.485l-0.024,0.014L294.357,127.485z"/>
	<path fill="#3F3A36" d="M294.678,127.295c-0.138,0.082-0.238,0.141-0.321,0.19C294.511,127.396,294.678,127.295,294.678,127.295z"
		/>
	<path fill="#3F3A36" d="M294.333,127.5C293.972,127.714,294.127,127.622,294.333,127.5z"/>
	<path fill="#3F3A36" d="M284.78,113.562c-1.249,1.338-6.733,5.84-17.791,3.747c-6.374-1.21-10.375-3.085-13.289-5.404l0.047,0.142
		c-1.873,0-9.47,0.57-8.562,8.292c0.714,6.065,5.481,9.77,14.001,11.326c14.09,2.142,22.74,2.944,35.492-4.368
		c2.054-1.629,1.237-2.303,1.472-4.281C296.15,123.015,288.972,118.198,284.78,113.562z"/>
	<path fill="#5B5753" d="M294.678,127.295l-0.024,0.014L294.678,127.295z"/>
	<path fill="#5B5753" d="M294.438,127.438l-0.042,0.026L294.438,127.438z"/>
	<path fill="#5B5753" d="M294.396,127.464l-0.133,0.078L294.396,127.464z"/>
	<path fill="#5B5753" d="M294.654,127.309l-0.052,0.031L294.654,127.309z"/>
	<path fill="#5B5753" d="M294.602,127.34l-0.164,0.098L294.602,127.34z"/>
	<path fill="#5B5753" d="M294.263,127.542l-0.096,0.056L294.263,127.542z"/>
	<path fill="#5B5753" d="M266.989,117.309c-6.374-1.21-10.375-3.085-13.289-5.404l0.047,0.142c-1.873,0-9.47,0.57-8.562,8.292
		c0.714,6.065,5.481,9.77,14.001,11.326c5.906,0.898,10.853,1.557,15.548,1.485c3.587-0.705,6.675-2.375,7.637-5.585
		c0.941-3.761-3.485-6.695-3.488-10.618C276.022,117.833,272.102,118.277,266.989,117.309z"/>
	<path fill="#5B5753" d="M294.167,127.598L294.167,127.598z"/>
	<path fill="#8C8C8C" d="M294.602,127.34l-0.164,0.098L294.602,127.34z"/>
	<path fill="#8C8C8C" d="M294.654,127.309l-0.052,0.031L294.654,127.309z"/>
	<path fill="#8C8C8C" d="M294.678,127.295l-0.024,0.014L294.678,127.295z"/>
	<path fill="#8C8C8C" d="M294.438,127.438l-0.042,0.026L294.438,127.438z"/>
	<path fill="#8C8C8C" d="M253.747,112.046c-1.873,0-9.47,0.57-8.562,8.292c0.259,2.2,1.058,4.084,2.368,5.673
		c-3.305-5.941,0.766-13.548,7.463-13.147c-0.462-0.309-0.901-0.63-1.317-0.96L253.747,112.046z"/>
	<path fill="#8C8C8C" d="M294.167,127.598L294.167,127.598z"/>
	<path fill="#8C8C8C" d="M294.263,127.542l-0.096,0.056L294.263,127.542z"/>
	<path fill="#8C8C8C" d="M294.396,127.464l-0.133,0.078L294.396,127.464z"/>
	<path fill="#2E2C2A" d="M284.978,113.382l-0.194-0.216l-0.199,0.213c-0.656,0.703-4.32,4.207-12.055,4.207
		c-1.743,0-3.59-0.181-5.491-0.542c-5.776-1.096-9.962-2.794-13.172-5.348l-0.485,0.088c-1.457,0.048-4.882,0.417-6.939,2.729
		c-1.296,1.456-1.809,3.428-1.522,5.857c0.714,6.076,5.499,9.965,14.226,11.559c5.188,0.787,10.231,1.495,14.888,1.495
		c6.395,0,11.928-1.333,18.002-4.399c0.451-0.309,1.896-0.884,2.177-1.074c0.227-0.15,0.435-0.29,0.631-0.446
		c1.596-1.267,1.572-2.045,1.535-3.121c-0.011-0.383-0.026-0.815,0.037-1.337l0.019-0.163l-0.136-0.091
		C296.227,122.744,289.101,117.941,284.978,113.382z M295.846,124.401c0.034,1.018,0.052,1.58-1.318,2.671
		c-7.116,4.078-13.244,5.816-20.491,5.816h-0.002c-4.62,0-9.641-0.704-14.8-1.487c-8.581-1.568-13.088-5.196-13.783-11.094
		c-0.268-2.27,0.201-4.1,1.391-5.44c2.108-2.368,5.818-2.554,6.904-2.554h0.042c3.246,2.498,7.436,4.175,13.15,5.257
		c1.934,0.365,3.814,0.551,5.591,0.551c7.369,0,11.18-3.128,12.243-4.171c3.867,4.195,10.103,8.518,11.094,9.195
		C295.821,123.632,295.833,124.04,295.846,124.401z"/>
	<path fill="#D6ECFD" d="M294.986,98.703c-7.645-0.304-14.279,5.793-14.819,13.618c-0.539,7.822,5.221,14.411,12.867,14.715
		c7.645,0.304,14.28-5.791,14.819-13.616C308.393,105.596,302.632,99.006,294.986,98.703z"/>
	<path fill="#D8D0D0" d="M293.918,99.894c-7.104-0.283-13.28,5.556-13.799,13.04c-0.518,7.486,4.821,13.784,11.924,14.067
		s13.28-5.556,13.798-13.042C306.36,106.474,301.022,100.177,293.918,99.894z"/>
	<path d="M293.894,98.757c-7.103-0.281-13.28,5.557-13.797,13.042c-0.172,2.477,0.301,4.823,1.264,6.863
		c7.854,3.386,17.82-1.388,24.49-6.565C305.986,104.935,300.768,99.032,293.894,98.757z"/>
	<path fill="#FFFFFF" d="M293.918,99.894c-7.104-0.283-13.28,5.556-13.799,13.04c-0.171,2.477,0.303,4.822,1.266,6.864
		c7.854,3.385,17.817-1.386,24.488-6.565C306.01,106.072,300.791,100.169,293.918,99.894z"/>
	<path fill="#0081C1" d="M289.96,108.667c-3.953,0.32-6.9,4.264-6.584,8.81s3.775,7.971,7.728,7.652
		c3.951-0.319,6.899-4.264,6.583-8.808C297.371,111.775,293.913,108.35,289.96,108.667z"/>
	<path fill="#1C9AF9" d="M289.96,108.667c-3.953,0.32-6.9,4.264-6.584,8.81c0.077,1.117,0.347,2.169,0.766,3.112
		c4.593-0.892,9.208-3.315,13.201-6.196C296.332,110.848,293.329,108.396,289.96,108.667z"/>
	<path fill="#215480" d="M289.949,108.462c-4.143,0.334-7.197,4.387-6.875,9.042c0.324,4.65,3.93,8.163,8.04,7.83
		c0.111-0.008,0.224-0.02,0.334-0.035c3.982-0.521,6.854-4.476,6.539-9.006C297.665,111.643,294.06,108.13,289.949,108.462z
		 M291.092,124.923c-3.78,0.305-7.109-3.046-7.415-7.473c-0.299-4.312,2.336-8.066,6.002-8.545c0.097-0.013,0.194-0.023,0.292-0.032
		c3.781-0.305,7.108,3.047,7.417,7.473C297.695,120.773,294.914,124.617,291.092,124.923z"/>
	<path d="M290.738,113.054c-1.946,0.282-3.138,2.5-2.665,4.946c0.473,2.449,2.432,4.206,4.376,3.922
		c1.945-0.285,3.138-2.499,2.665-4.949C294.642,114.524,292.681,112.77,290.738,113.054z"/>
	<path fill="#FFFFFF" d="M289.126,114.519c-0.775,0.073-1.367,0.561-1.324,1.091c0.042,0.527,0.705,0.898,1.479,0.825
		c0.774-0.072,1.367-0.561,1.324-1.091C290.563,114.817,289.901,114.447,289.126,114.519z"/>
	<path fill="#FFFFFF" d="M292.791,117.76c-0.455,0.042-0.804,0.33-0.78,0.642c0.025,0.312,0.416,0.53,0.872,0.486
		c0.456-0.042,0.806-0.33,0.78-0.641C293.639,117.933,293.248,117.717,292.791,117.76z"/>
	<path d="M293.935,99.705c-7.317-0.298-13.568,5.647-14.093,13.221c-0.525,7.577,4.942,13.976,12.185,14.264
		c0.211,0.01,0.422,0.013,0.631,0.011c7.04-0.067,12.952-5.877,13.462-13.231C306.643,106.393,301.177,99.994,293.935,99.705z
		 M305.565,113.951c-0.51,7.362-6.518,13.141-13.506,12.861c-6.94-0.275-12.173-6.497-11.663-13.868
		c0.496-7.154,6.168-12.808,12.915-12.87c0.196-0.002,0.393,0,0.591,0.008C300.842,100.359,306.075,106.581,305.565,113.951z"/>
	<path d="M292.455,87.705c-4.639-0.879-10.773,2.512-10.773,2.512c0.062-0.026,6.204-2.829,10.674-1.984
		c5.849,1.103,9.242,5.019,9.276,5.059C301.631,93.291,298.497,88.846,292.455,87.705z"/>
</g>
</svg>
