<svg version="1.1" id="Layer_1" xmlns="http://www.w3.org/2000/svg" xmlns:xlink="http://www.w3.org/1999/xlink" viewBox="0 0 768 430" enable-background="new 0 0 768 430" xml:space="preserve">
<g transform="translate(-88.964 -177.22)">
	<path fill="#DDE6DC" d="M518.323,244.62L221.222,368.689l97.889,156.159l378.111-220.297l-178.905-59.93L518.323,244.62z
		 M518.065,253.814l154.565,52.102L328.974,502.203l-86.146-131.524L518.07,253.812L518.065,253.814z"/>
	<path fill="#51BADC" d="M250.751,382.407l267.23-114.046l136.889,47.632L329.138,502.095L250.752,382.41L250.751,382.407z"/>
	<path fill="none" stroke="#000000" stroke-width="0.6544" d="M221.216,368.689l97.903,156.136l378.112-220.286l-178.929-59.923
		l-297.09,124.068L221.216,368.689z"/>
	<path fill="#AAC1A8" d="M242.952,370.591l275.041-116.683l154.552,51.907l-17.724,10.233L518.1,268.362L251.235,383.462
		L242.952,370.591L242.952,370.591z"/>
	<path fill="none" stroke="#000000" stroke-width="0.596" d="M242.834,370.661l86.12,131.535L672.621,305.91l-154.564-52.088
		l-275.218,116.84H242.834z"/>
	<path fill="none" stroke="#000000" stroke-width="0.6544" d="M251.176,383.458L518.1,268.395l136.722,47.543"/>
	<path fill="none" stroke="#000000" stroke-width="0.6544" d="M518.1,268.654v-14.41"/>
	<path fill="#B7B7B7" stroke="#000000" stroke-width="0.6544" d="M520.568,401.312c0.459,2.238,6.692,1.492,7.343-1.352
		c1.27-5.56,3.094-11.196,3.187-16.931c0.043-2.637-1.955-5.281-4.309-6.322c-4.582-2.028-9.435-3.514-14.233-5.017
		c-3.691-1.155-7.619-1.907-11.398-2.028c-5.628,0.198-7.646,6.929-8.636,11.886c-1.858,9.314-3.809,23.493-5.607,32.824
		c1.58,1.558,5.985,1.563,6.275-1.035c0.343-3.072,1.076-10.848,1.647-13.896c1.253-6.669,2.212-13.447,4.043-19.958
		c4.006-6.609,15.661-1.019,21.268,1.151c2.012,0.779,3.754,2.824,3.039,5.566C521.909,391.099,519.683,396.99,520.568,401.312
		L520.568,401.312z"/>
	<path fill="#B7B7B7" stroke="#000000" stroke-width="0.6544" d="M498.496,414.345c0.459,2.237,6.693,1.492,7.343-1.352
		c1.269-5.559,3.094-11.196,3.187-16.931c0.042-2.638-1.955-5.28-4.31-6.322c-4.58-2.028-9.435-3.515-14.233-5.017
		c-3.69-1.154-7.618-1.907-11.397-2.028c-5.628,0.198-7.646,6.929-8.635,11.886c-1.858,9.314-3.809,23.494-5.607,32.823
		c1.58,1.559,5.985,1.565,6.274-1.034c0.344-3.072,1.077-10.848,1.649-13.897c1.251-6.669,2.211-13.446,4.041-19.957
		c4.008-6.61,15.662-1.019,21.268,1.15c2.013,0.779,3.754,2.825,3.04,5.566C499.837,404.132,497.61,410.022,498.496,414.345
		L498.496,414.345z"/>
	<path fill="#DDE6DC" d="M464.136,437.681l34.339-19.329l-2.079-11.778l-32.645,18.945"/>
	<path fill="none" stroke="#000000" stroke-width="0.596" d="M463.001,425.642l33.896-19.36"/>
</g>
</svg>
