<svg version="1.1" id="Layer_2" xmlns="http://www.w3.org/2000/svg" xmlns:xlink="http://www.w3.org/1999/xlink" viewBox="0 0 130 90" enable-background="new 0 0 130 90" xml:space="preserve">
<path fill="#55C2C2" d="M63.524,0C39.174,0,19.435,19.739,19.435,44.089c0,24.351,19.74,44.089,44.089,44.089
	c24.348,0,44.087-19.738,44.087-44.089C107.611,19.739,87.875,0,63.524,0z M75.821,23.509c3.179,0,5.758,2.913,5.758,6.507
	S79,36.525,75.821,36.525c-3.183,0-5.759-2.914-5.759-6.509S72.639,23.509,75.821,23.509z M50.026,23.509
	c3.181,0,5.759,2.913,5.759,6.507s-2.578,6.509-5.759,6.509c-3.179,0-5.757-2.914-5.757-6.509S46.847,23.509,50.026,23.509z
	 M91.689,48.861c-3,14.087-14.722,24.628-28.69,24.628c-13.945,0-25.649-10.505-28.674-24.559c-0.114-0.53,2.768-1.61,2.768-1.61
	c2.483,12.49,13.155,21.906,25.906,21.906c12.754,0,23.425-9.416,25.909-21.906C88.908,47.32,91.799,48.353,91.689,48.861z"/>
</svg>
