<svg version="1.1" id="Layer_2" xmlns="http://www.w3.org/2000/svg" xmlns:xlink="http://www.w3.org/1999/xlink" viewBox="0 0 768 430" enable-background="new 0 0 768 430" xml:space="preserve">
<path fill="#55C2C2" d="M384.947,28C288.49,28,210.3,106.191,210.3,202.648c0,96.459,78.194,174.647,174.647,174.647
	c96.447,0,174.639-78.188,174.639-174.647C559.586,106.191,481.407,28,384.947,28z M433.658,121.125
	c12.592,0,22.809,11.539,22.809,25.776c0,14.236-10.217,25.784-22.809,25.784c-12.609,0-22.812-11.543-22.812-25.784
	S421.054,121.125,433.658,121.125z M331.478,121.125c12.601,0,22.812,11.539,22.812,25.776c0,14.236-10.212,25.784-22.812,25.784
	c-12.593,0-22.805-11.543-22.805-25.784S318.885,121.125,331.478,121.125z M496.515,221.551
	c-11.883,55.803-58.317,97.558-113.648,97.558c-55.239,0-101.602-41.613-113.584-97.283c-0.451-2.101,10.965-6.379,10.965-6.379
	c9.836,49.476,52.11,86.775,102.62,86.775c50.521,0,92.792-37.3,102.633-86.775C485.5,215.446,496.951,219.538,496.515,221.551z"/>
</svg>
