<svg version="1.1" xmlns="http://www.w3.org/2000/svg" xmlns:xlink="http://www.w3.org/1999/xlink" viewBox="0 0 1984.25 1984.25" enable-background="new 0 0 1984.25 1984.25"
	 xml:space="preserve">

<devs>
	<style type="text/css">
		
		#iconKinderGebaren {
			-webkit-animation: zoomIn 1s linear forwards;
		}

		#left_hand {
			-webkit-animation: rotateInDownRight 1.2s linear forwards;
		}
		
		#right_hand  {
			-webkit-animation: rotateInDownLeft 1.2s linear forwards;
		}
		
		
		
		@keyframes zoomIn {
		  from {
		    opacity: 0;
		  }		
		  50% {
		    opacity: 1;
		  }
		}


		@keyframes rotateInDownRight {
		  from {
		    transform-origin: right bottom;
		    transform: rotate3d(0, 0, 1, 20deg);
		  }
		  
		  33% {
		  	transform-origin: right bottom;
		    transform: none;
		  }
		  
		 66% {
		    transform-origin: right bottom;
		    transform: rotate3d(0, 0, 1, 20deg);
		  }
		
		  to {
		    transform-origin: right bottom;
		    transform: none;
		  }
		}
		
		
		@keyframes rotateInDownLeft {
		  from {
		    transform-origin: left bottom;
		    transform: rotate3d(0, 0, 1, -20deg);
		  }
		
		  33% {
		    transform-origin: left bottom;
		    transform: none;
		  }
		  
		 66% {
		    transform-origin: left bottom;
		    transform: rotate3d(0, 0, 1, -20deg);
		  }
		
		  to {
		    transform-origin: left bottom;
		    transform: none;
		  }
		}
		

	</style>

</devs>
<g id="background">
	<rect fill="none" width="1984.25" height="1984.25"/>
</g>
<g id="iconKinderGebaren">
	<path fill="#55C2C2" d="M990.885,429.546c-169.178,0-306.319,137.14-306.319,306.317c0,169.179,137.147,306.324,306.319,306.324
		c169.17,0,306.315-137.145,306.315-306.324C1297.2,566.686,1160.066,429.546,990.885,429.546z M1076.32,592.885
		c22.094,0,40.011,20.233,40.011,45.207c0,24.979-17.917,45.225-40.011,45.225c-22.102,0-40.002-20.246-40.002-45.225
		C1036.318,613.118,1054.219,592.885,1076.32,592.885z M897.111,592.885c22.095,0,40.007,20.233,40.007,45.207
		c0,24.979-17.912,45.225-40.007,45.225c-22.093,0-40.005-20.246-40.005-45.225C857.105,613.118,875.018,592.885,897.111,592.885z
		 M1186.576,769.02c-20.848,97.884-102.279,171.112-199.336,171.112c-96.887,0-178.203-72.983-199.217-170.62
		c-0.796-3.689,19.223-11.193,19.223-11.193c17.251,86.776,91.4,152.199,179.994,152.199c88.603,0,162.754-65.423,180.007-152.199
		C1167.247,758.319,1187.329,765.482,1186.576,769.02z"/>
	<g id="left_hand">
		<path id="handFiller" fill="#8EDDDB" d="M670.354,466.521c-9.146-10.384-16.286-4.89-23.141,4.11
			c-6.852,8.995-7.604,21.744-1.677,28.472l41.209,59.216l-3.196,7.791l-138.469-90.282c-7.027-5.066-17.36-1.042-23.08,8.986
			c-5.722,10.028-4.663,22.269,2.364,27.336l98.785,74.693l-3.197,7.793l-127.518-52.313c-7.908-3.246-17.904,2.841-22.316,13.596
			c-4.414,10.756-1.569,22.106,6.339,25.351l127.519,52.313l-3.197,7.791l-123.04-16.275c-8.562-1.326-17.903,6.636-20.88,17.796
			c-2.974,11.157,1.559,21.274,10.121,22.606l126.417,18.347l-3.197,7.79l-82.182,6.361c-8.943,0.626-17.361,10.229-18.805,21.452
			c-1.441,11.212,4.646,19.801,18.451,18.831l89.646-2.761l34.391,14.108c37.312,15.28,93.639-16.113,119.246-78.504
			c25.585-62.401,10.65-100.979-23.72-140.027L670.354,466.521z"/>
		<path id="whitebBrder" fill="#FFFFFF" d="M675.164,461.712c-7.37-7.979-17.197-10.091-26.004-3.072
			c-7.758,6.187-13.23,15.574-14.231,25.468c-0.436,4.315-0.02,8.783,1.578,12.835c0.915,2.322,2.045,4.321,3.633,6.25
			c-0.961-1.17-0.418-0.577-0.192-0.252c1.64,2.356,3.277,4.712,4.917,7.067c11.732,16.86,23.465,33.72,35.198,50.578
			c0.27,0.389,0.54,0.778,0.81,1.166c-0.229-1.748-0.457-3.494-0.685-5.239c-1.065,2.595-2.132,5.194-3.197,7.79
			c3.33-1.355,6.661-2.71,9.991-4.064c-30.434-19.842-60.866-39.685-91.298-59.528c-14.71-9.591-29.422-19.183-44.133-28.774
			c-0.993-0.647-1.984-1.294-2.977-1.94c-6.604-4.307-14.3-3.734-21.094-0.2c-16.731,8.704-22.36,36.266-6.542,48.23
			c30.025,22.701,60.049,45.403,90.073,68.106c2.903,2.194,5.806,4.389,8.708,6.584c-1.042-2.561-2.083-5.121-3.125-7.681
			c-1.063,2.596-2.13,5.194-3.195,7.792c2.788-1.584,5.576-3.167,8.364-4.751c-34.878-14.308-69.758-28.617-104.639-42.926
			c-6.704-2.752-13.41-5.501-20.116-8.252c-1.182-0.486-2.361-0.986-3.56-1.428c-8.476-3.118-17.99,1.929-23.561,8.119
			c-11.297,12.554-13.002,36.948,4.945,44.313c4.541,1.86,9.081,3.725,13.622,5.587c37.379,15.334,74.758,30.668,112.137,46.003
			c0.527,0.216,1.055,0.432,1.579,0.648c-1.583-2.789-3.167-5.577-4.75-8.366c-1.065,2.597-2.13,5.195-3.196,7.792
			c2.186-1.665,4.372-3.33,6.557-4.993c-37.124-4.91-74.248-9.821-111.371-14.731c-4.659-0.616-9.617-1.789-14.343-1.664
			c-20.541,0.545-31.655,28.405-22.471,44.812c4.263,7.618,11.499,8.911,19.117,10.017c8.819,1.282,17.638,2.56,26.456,3.841
			c31.141,4.519,62.281,9.036,93.421,13.557c-1.582-2.788-3.166-5.576-4.748-8.364c-1.065,2.596-2.132,5.192-3.197,7.792
			c2.185-1.667,4.371-3.329,6.557-4.995c-18.136,1.404-36.27,2.808-54.404,4.212c-8.694,0.673-17.39,1.345-26.085,2.019
			c-15.778,1.222-25.723,14.144-27.401,29.312c-0.921,8.337,2.647,16.077,9.307,20.978c4.732,3.481,11.069,3.879,16.704,3.706
			c7.381-0.229,14.76-0.456,22.14-0.681c21.249-0.655,42.493-1.31,63.74-1.965c0.862-0.026,1.726-0.054,2.587-0.08
			c1.729-0.054-2.491-0.752-0.645,0.004c4.135,1.697,8.271,3.393,12.407,5.089c8.605,3.531,17.206,7.744,26.13,10.433
			c28.821,8.687,59.443-6.257,80.897-24.739c29.108-25.075,48.132-63.509,53.624-101.251c2.517-17.296,1.565-34.825-3.851-51.505
			c-5.296-16.307-14.502-30.784-25.032-44.176c-10.492-13.344-22.275-25.788-33.485-38.519
			C696.28,485.687,685.722,473.699,675.164,461.712c-5.808-6.594-15.389,3.063-9.619,9.617
			c11.869,13.474,23.734,26.948,35.604,40.422c13.528,15.361,28.175,30.375,39.192,47.692c8.377,13.168,14.414,27.909,16.128,43.508
			c2.053,18.654-1.682,37.176-7.694,54.779c-11.348,33.232-33.016,64.31-64.827,80.617c-11.809,6.054-24.397,9.164-37.366,8.061
			c-7.805-0.665-17.308-5.078-25.444-8.416c-5.46-2.238-10.919-4.478-16.38-6.717c-2.314-0.951-5.055-2.63-7.65-2.55
			c-6.662,0.203-13.323,0.409-19.983,0.615c-21.685,0.668-43.37,1.335-65.056,2.003c-1.843,0.057-3.691,0.099-5.534,0.195
			c-6.781,0.352-10.473-2.655-10.719-8.46c-0.304-7.12,4.12-15.852,11.261-18.052c1.683-0.517,3.604-0.436,5.34-0.57
			c25.928-2.006,51.858-4.013,77.785-6.021c3.345-0.26,5.315-1.964,6.558-4.992c1.065-2.597,2.131-5.195,3.198-7.792
			c1.286-3.138-1.379-7.875-4.752-8.365c-37.236-5.404-74.47-10.808-111.706-16.212c-4.872-0.706-9.744-1.414-14.618-2.12
			c-6.057-0.88-6.742-8.061-5.753-13.065c1.369-6.92,6.838-14.906,14.613-13.993c14.746,1.732,29.453,3.896,44.172,5.841
			c26.289,3.479,52.579,6.957,78.868,10.433c3.197,0.422,5.512-2.444,6.558-4.992c1.065-2.599,2.132-5.193,3.197-7.792
			c1.527-3.723-1.661-7.098-4.751-8.367c-34.879-14.308-69.758-28.617-104.638-42.925c-6.705-2.751-13.41-5.502-20.117-8.252
			c-0.683-0.281-1.368-0.562-2.05-0.843c-1.739-0.713,1.218,0.645-0.703-0.422c-2.391-1.326-3.223-4.781-3.407-7.308
			c-0.335-4.651,1.292-9.031,3.758-12.89c1.673-2.617,4.332-4.856,7.296-5.81c1.682-0.543,2.92-0.425,4.83,0.358
			c1.375,0.563,2.751,1.129,4.125,1.69c7.339,3.011,14.674,6.022,22.014,9.033c33.752,13.845,67.502,27.69,101.255,41.538
			c3.722,1.526,7.098-1.661,8.365-4.749c1.066-2.599,2.131-5.195,3.196-7.792c1.235-3.012-0.892-5.992-3.125-7.681
			c-29.905-22.612-59.809-45.224-89.715-67.835c-2.343-1.774-4.69-3.546-7.033-5.319c-0.552-0.415-1.102-0.833-1.65-1.248
			c-0.113-0.086-0.23-0.173-0.342-0.26c1.507,1.141-0.781-0.929-1.192-1.576c-5.625-8.852,4.895-29.62,15.24-22.876
			c11.574,7.547,23.151,15.095,34.726,22.641c33.959,22.144,67.919,44.285,101.88,66.429c0.54,0.352,1.08,0.704,1.621,1.055
			c4.038,2.634,8.419-0.233,9.991-4.063c1.559-3.803,5.131-9.262,2.364-13.24c-1.492-2.144-2.983-4.288-4.475-6.431
			c-6.469-9.294-12.937-18.588-19.404-27.882c-5.365-7.707-10.728-15.415-16.091-23.125c-2.219-3.187-4.049-5.831-4.161-9.935
			c-0.111-4.064,1.34-7.907,3.414-11.332c1.719-2.834,4.827-6.962,7.979-8.109c2.022-0.736,4.118,1.632,5.812,3.465
			C671.509,477.785,681.104,468.141,675.164,461.712z"/>
	</g>
	<g id="right_hand">
		<path id="handfill" fill="#8EDDDB" d="M1259.836,523.038c-34.008,39.364-48.591,78.075-22.434,140.24
			c26.177,62.152,82.789,93.029,119.96,77.406l34.26-14.422l89.671,1.939c13.811,0.843,19.818-7.803,18.275-19
			c-1.546-11.211-10.055-20.735-19.002-21.278l-82.233-5.608l-3.272-7.761l126.247-19.504c8.548-1.411,12.989-11.568,9.912-22.698
			c-3.078-11.133-12.493-19.009-21.044-17.604L1387.29,632.15l-3.266-7.761l127.035-53.479c7.876-3.317,10.616-14.693,6.104-25.409
			c-4.51-10.713-14.563-16.708-22.439-13.391l-127.035,53.479l-3.267-7.761l98.095-75.598c6.981-5.128,7.927-17.379,2.114-27.356
			c-5.812-9.972-16.18-13.903-23.16-8.772l-137.633,91.548l-3.268-7.761l40.665-59.592c5.863-6.784,4.995-19.524-1.939-28.457
			c-6.938-8.937-14.128-14.365-23.176-3.897L1259.836,523.038z"/>
		<path id="whiteBorder" fill="#FFFFFF" d="M1255.029,518.23c-11.295,13.124-21.661,27.231-28.588,43.19
			c-6.835,15.745-9.956,32.619-9.071,49.778c1.071,20.812,7.581,41.045,16.095,59.921c7.695,17.075,18.51,32.864,31.656,46.207
			c21.038,21.349,50.701,37.505,81.419,33.366c9.244-1.246,17.802-5.626,26.311-9.209c5.329-2.242,10.66-4.486,15.992-6.73
			c1.381-0.579,2.76-1.162,4.142-1.743c1.465-0.616-2.646,0.026-0.703,0.069c19.533,0.42,39.066,0.845,58.599,1.265
			c9.104,0.197,18.202,0.395,27.305,0.593c2.804,0.061,5.62,0.222,8.415-0.112c8.908-1.068,15.668-6.013,18.821-14.462
			c3.153-8.452,0.236-18.938-4.388-26.223c-4.549-7.169-11.961-12.437-20.543-13.021c-6.714-0.458-13.424-0.916-20.136-1.374
			c-20.323-1.384-40.645-2.77-60.963-4.155c-0.354-0.024-0.708-0.049-1.059-0.072c2.184,1.665,4.37,3.327,6.557,4.992
			c-1.089-2.589-2.177-5.176-3.269-7.761c-1.58,2.788-3.165,5.577-4.747,8.365c37.181-5.745,74.366-11.491,111.553-17.235
			c4.862-0.752,9.729-1.503,14.595-2.256c7.791-1.202,13.104-8.104,15.108-15.268c2.846-10.169-1.05-20.898-7.25-28.919
			c-5.367-6.946-13.933-10.458-22.533-9.24c-1.353,0.189-2.706,0.381-4.061,0.575c-8.101,1.146-16.199,2.293-24.296,3.441
			c-31.502,4.461-63.005,8.921-94.507,13.381c2.79,1.583,5.577,3.168,8.368,4.75c-1.092-2.586-2.181-5.175-3.268-7.761
			c-1.584,2.788-3.168,5.578-4.753,8.365c34.749-14.628,69.495-29.256,104.243-43.884c6.678-2.812,13.361-5.624,20.04-8.436
			c1.455-0.611,2.951-1.177,4.38-1.844c8.723-4.084,12.207-14.184,11.529-23.257c-0.767-10.225-6.218-19.515-14.577-25.343
			c-5.179-3.614-12.783-5.046-18.71-2.552c-4.522,1.903-9.048,3.811-13.567,5.712c-37.24,15.679-74.476,31.353-111.712,47.031
			c-0.522,0.22-1.049,0.44-1.574,0.66c2.788,1.584,5.58,3.17,8.365,4.752c-1.089-2.589-2.176-5.174-3.267-7.762
			c-1.039,2.559-2.083,5.119-3.124,7.68c29.698-22.885,59.389-45.771,89.091-68.656c4.04-3.114,8.92-6.135,12.417-9.888
			c13.908-14.92,2.216-42.898-16.241-47.541c-7.642-1.923-13.483,1.548-19.425,5.5c-6.155,4.095-12.313,8.191-18.471,12.288
			c-36.033,23.966-72.063,47.934-108.095,71.898c-2.243,1.492-4.484,2.983-6.729,4.474c3.333,1.355,6.663,2.71,9.993,4.064
			c-1.089-2.587-2.178-5.173-3.268-7.76c-0.228,1.747-0.456,3.494-0.685,5.239c10.531-15.433,21.062-30.866,31.596-46.299
			c2.376-3.483,4.752-6.968,7.13-10.453c0.552-0.81,1.104-1.619,1.658-2.427c0.091-0.136,0.181-0.268,0.271-0.401
			c-1.36,1.998,0.836-1.079,1.125-1.495c0.862-1.227,1.474-2.743,2.006-4.128c3.499-9.119,1.299-19.704-3.714-27.809
			c-4.893-7.91-13.161-16.007-23.146-14.617c-7.752,1.077-12.75,8.245-17.537,13.784c-6.486,7.501-12.974,15.002-19.459,22.504
			C1275.924,494.062,1265.476,506.146,1255.029,518.23c-5.707,6.598,3.868,16.262,9.617,9.616
			c11.741-13.582,23.486-27.163,35.23-40.746c6.238-7.215,12.476-14.428,18.713-21.643c1.725-1.995,3.459-4.341,5.64-5.798
			c2.161-1.447,3.691-0.062,5.748,1.85c3.341,3.106,6.044,6.913,7.444,11.264c1.729,5.37,0.872,9.795-2.202,14.304
			c-1.296,1.889-2.581,3.779-3.873,5.67c-5.581,8.179-11.161,16.355-16.742,24.535c-5.469,8.015-10.939,16.031-16.407,24.047
			c-1.148,1.685-2.298,3.368-3.448,5.052c-2.67,3.913,0.978,9.39,2.529,13.077c1.593,3.778,5.951,6.753,9.993,4.064
			c30.248-20.12,60.498-40.242,90.749-60.362c14.618-9.727,29.243-19.453,43.864-29.18c0.986-0.655,1.973-1.31,2.962-1.966
			c4.45-2.962,9.422-0.078,12.647,4.316c2.548,3.471,3.985,7.599,4.144,11.884c0.069,1.892-0.272,3.574-0.839,5.368
			c-0.207,0.652-0.645,1.261-0.994,1.842c-0.186,0.305-2.432,2.254-0.723,0.939c-1.019,0.783-2.036,1.567-3.053,2.351
			c-31.068,23.942-62.133,47.883-93.202,71.823c-0.615,0.472-1.226,0.945-1.839,1.42c-2.203,1.695-4.392,4.667-3.126,7.679
			c1.089,2.587,2.181,5.174,3.268,7.762c1.284,3.049,4.636,6.318,8.367,4.75c34.746-14.627,69.493-29.258,104.241-43.883
			c6.679-2.812,13.359-5.625,20.039-8.438c1.18-0.496,2.352-1.007,3.546-1.46c6.106-2.313,12.196,5.659,14.138,11.246
			c1.318,3.792,1.414,7.664,0.172,11.47c-0.421,1.282-1.373,2.247-2.33,3.128c-1.537,1.417-0.068,0.147-0.18,0.194
			c-1.37,0.578-2.74,1.153-4.109,1.73c-7.309,3.077-14.617,6.155-21.927,9.23c-33.623,14.155-67.246,28.31-100.872,42.463
			c-3.049,1.286-6.318,4.64-4.748,8.367c1.089,2.588,2.178,5.174,3.266,7.761c1.59,3.772,4.3,5.327,8.367,4.75
			c37.077-5.251,74.154-10.501,111.23-15.752c2.97-0.42,5.935-0.841,8.902-1.261c0.722-0.102,1.443-0.203,2.165-0.306
			c0.163-0.022,0.328-0.047,0.491-0.07c-1.825,0.259,0.261-0.046,0.943,0.057c7.942,1.224,12.387,10.727,12.562,17.92
			c0.108,4.411-1.684,8.545-6.264,9.252c-16.23,2.509-32.463,5.017-48.694,7.524c-25.728,3.974-51.455,7.949-77.185,11.922
			c-3.342,0.517-6.074,5.215-4.751,8.367c1.091,2.588,2.181,5.175,3.271,7.761c1.266,3.002,3.193,4.765,6.558,4.993
			c18.147,1.236,36.293,2.475,54.441,3.711c8.698,0.593,17.401,1.187,26.101,1.781c3.579,0.243,6.25,1.743,8.804,4.371
			c4.723,4.856,6.948,13.792,3.997,18.956c-1.807,3.16-6.561,3.55-10.905,3.455c-2.497-0.053-4.999-0.109-7.496-0.163
			c-10.649-0.229-21.296-0.46-31.944-0.688c-11.662-0.253-23.322-0.504-34.984-0.757c-3.771-0.081-7.541-0.162-11.309-0.245
			c-1.574-0.035-3.895-0.389-5.383,0.238c-9.132,3.844-18.259,7.686-27.383,11.526c-3.129,1.316-6.23,2.719-9.419,3.869
			c-6.149,2.216-10.857,2.769-17.112,2.72c-12.979-0.102-26.248-5.042-37.855-11.896c-14.067-8.307-26.198-20.008-35.909-33.086
			c-9.997-13.459-17.43-28.541-22.973-44.32c-5.288-15.05-8.566-30.752-8.159-46.751c0.726-28.428,15.754-53.018,33.802-73.991
			C1270.337,521.235,1260.759,511.571,1255.029,518.23z"/>
	</g>
	<g id="kinder" enable-background="new    ">
		<path fill="#55C2C2" d="M503.786,1132.908h5.651v52.793l57.677-52.793h7.322l-41.875,38.15l44.446,53.564h-7.066l-41.491-49.711
			l-19.012,17.341v32.37h-5.651V1132.908z"/>
		<path fill="#55C2C2" d="M582.528,1132.908h5.651v91.715h-5.651V1132.908z"/>
		<path fill="#55C2C2" d="M604.364,1132.908h7.065l57.934,84.139h0.257v-84.139h5.651v91.715h-6.679l-58.318-84.778h-0.258v84.778
			h-5.652V1132.908z"/>
		<path fill="#55C2C2" d="M691.457,1132.908h30.058c8.221,0,15.051,1.283,20.489,3.851c5.438,2.571,9.783,5.995,13.038,10.279
			c3.253,4.283,5.544,9.163,6.872,14.643c1.326,5.481,1.991,11.134,1.991,16.955c0,6.511-0.835,12.57-2.504,18.178
			c-1.67,5.609-4.262,10.471-7.771,14.576c-3.512,4.115-7.945,7.348-13.296,9.702c-5.353,2.354-11.711,3.531-19.075,3.531h-29.801
			V1132.908z M721.773,1219.743c4.28,0,8.583-0.664,12.908-1.993c4.324-1.326,8.242-3.551,11.754-6.679
			c3.511-3.125,6.359-7.322,8.544-12.588c2.183-5.265,3.275-11.883,3.275-19.848c0-6.248-0.622-11.602-1.863-16.056
			c-1.243-4.452-2.869-8.199-4.881-11.241c-2.013-3.038-4.325-5.435-6.936-7.192c-2.614-1.755-5.311-3.104-8.093-4.048
			c-2.784-0.94-5.568-1.561-8.35-1.861c-2.783-0.3-5.288-0.45-7.515-0.45h-23.508v81.956H721.773z"/>
		<path fill="#55C2C2" d="M777.135,1132.908h61.658v4.879h-56.006v36.738h52.666v4.882h-52.666v40.336h56.649v4.88h-62.301V1132.908
			z"/>
		<path fill="#55C2C2" d="M849.069,1132.908h38.28c4.024,0,7.791,0.406,11.305,1.217c3.511,0.817,6.594,2.144,9.248,3.984
			c2.654,1.841,4.731,4.259,6.23,7.258c1.499,2.997,2.249,6.723,2.249,11.176c0,6.167-1.734,11.367-5.201,15.607
			c-3.469,4.238-8.287,6.871-14.452,7.899v0.256c4.195,0.517,7.513,1.627,9.955,3.341c2.44,1.714,4.26,3.812,5.458,6.295
			c1.199,2.482,1.971,5.222,2.314,8.221c0.34,2.999,0.514,5.993,0.514,8.991c0,1.8,0,3.557,0,5.267c0,1.716,0.083,3.32,0.255,4.819
			c0.171,1.498,0.451,2.888,0.835,4.175c0.387,1.282,0.92,2.355,1.608,3.209h-6.296c-1.2-2.139-1.862-4.642-1.991-7.515
			c-0.128-2.865-0.192-5.847-0.192-8.925c0-3.084-0.128-6.146-0.384-9.189c-0.258-3.037-1.074-5.756-2.443-8.153
			c-1.37-2.396-3.532-4.324-6.486-5.779c-2.955-1.456-7.13-2.186-12.525-2.186h-32.627v41.747h-5.652V1132.908z M887.349,1177.995
			c3.341,0,6.444-0.407,9.314-1.221c2.867-0.815,5.331-2.076,7.385-3.788c2.056-1.714,3.681-3.9,4.881-6.553
			c1.198-2.652,1.798-5.824,1.798-9.507c0-3.423-0.642-6.356-1.925-8.799c-1.285-2.439-3-4.43-5.14-5.975
			c-2.142-1.542-4.625-2.653-7.45-3.338c-2.828-0.685-5.781-1.028-8.864-1.028h-32.627v40.208H887.349z"/>
	</g>
	<g id="gebaren" enable-background="new    ">
		<path fill="#F64B8D" d="M926.657,1179.279c0-6.508,0.962-12.695,2.891-18.562c1.925-5.865,4.729-11.025,8.413-15.479
			c3.682-4.451,8.199-7.986,13.553-10.596c5.351-2.612,11.495-3.92,18.433-3.92c4.707,0,9.205,0.688,13.486,2.055
			c4.282,1.371,8.114,3.386,11.498,6.038c3.38,2.657,6.23,5.867,8.543,9.634c2.312,3.769,3.854,8.051,4.623,12.847h-5.396
			c-2.142-8.05-5.996-14.344-11.559-18.883c-5.569-4.54-12.59-6.811-21.068-6.811c-6.165,0-11.604,1.203-16.313,3.597
			c-4.71,2.4-8.651,5.61-11.817,9.636c-3.169,4.023-5.569,8.671-7.194,13.938c-1.628,5.268-2.441,10.769-2.441,16.507
			c0,5.823,0.791,11.326,2.377,16.506c1.585,5.183,3.938,9.697,7.064,13.551c3.125,3.855,7.044,6.919,11.754,9.188
			c4.708,2.268,10.23,3.403,16.57,3.403c5.479,0,10.405-0.897,14.774-2.699c4.366-1.798,8.068-4.322,11.11-7.578
			c3.037-3.255,5.33-7.169,6.873-11.756c1.543-4.579,2.182-9.697,1.928-15.349h-33.787v-4.881h38.666v44.958h-4.879V1205.1h-0.262
			c-1.11,3.341-2.782,6.355-5.008,9.057c-2.227,2.696-4.859,4.967-7.898,6.808c-3.039,1.842-6.422,3.272-10.148,4.302
			c-3.727,1.027-7.601,1.539-11.626,1.539c-6.937,0-13.081-1.239-18.432-3.724c-5.353-2.481-9.873-5.863-13.552-10.147
			c-3.684-4.28-6.468-9.312-8.351-15.091C927.597,1192.06,926.657,1185.874,926.657,1179.279z"/>
		<path fill="#F64B8D" d="M1025.184,1132.908h61.655v4.879h-56.003v36.738h52.666v4.882h-52.666v40.336h56.648v4.88h-62.301
			V1132.908z"/>
		<path fill="#F64B8D" d="M1097.117,1132.908h36.736c5.481,0,10.062,0.685,13.746,2.053c3.681,1.373,6.635,3.17,8.863,5.395
			c2.226,2.231,3.833,4.776,4.817,7.645c0.983,2.871,1.479,5.761,1.479,8.672c0,2.481-0.429,4.84-1.285,7.063
			c-0.856,2.229-2.078,4.197-3.659,5.91c-1.589,1.713-3.471,3.146-5.654,4.304c-2.183,1.155-4.604,1.907-7.258,2.247l0.258,0.257
			c0.597-0.083,2.01,0.174,4.238,0.772c2.227,0.6,4.56,1.734,7.002,3.403c2.44,1.669,4.622,3.982,6.549,6.936
			c1.929,2.955,2.892,6.744,2.892,11.367c0,4.198-0.771,7.882-2.315,11.05c-1.539,3.167-3.702,5.841-6.484,8.027
			c-2.783,2.184-6.144,3.835-10.083,4.948c-3.94,1.111-8.308,1.666-13.104,1.666h-36.736V1132.908z M1133.854,1174.525
			c7.793,0,13.617-1.734,17.472-5.202c3.851-3.468,5.78-8.027,5.78-13.68c0-3.338-0.643-6.145-1.93-8.414
			c-1.282-2.269-2.994-4.11-5.136-5.524c-2.141-1.41-4.604-2.419-7.384-3.019c-2.785-0.599-5.719-0.899-8.803-0.899h-31.085v36.738
			H1133.854z M1133.854,1219.743c8.223,0,14.666-1.734,19.332-5.202c4.668-3.47,7.003-8.674,7.003-15.609
			c0-3.936-0.815-7.169-2.439-9.696c-1.628-2.526-3.705-4.515-6.231-5.975c-2.527-1.457-5.352-2.459-8.475-3.017
			c-3.13-0.558-6.188-0.837-9.189-0.837h-31.085v40.336H1133.854z"/>
		<path fill="#F64B8D" d="M1205.276,1132.908h6.165l36.223,91.715h-6.036l-11.561-29.412h-43.931l-11.692,29.412h-6.035
			L1205.276,1132.908z M1228.271,1190.326l-19.655-51.896h-0.258l-20.423,51.896H1228.271z"/>
		<path fill="#F64B8D" d="M1254.215,1132.908h38.279c4.023,0,7.794,0.406,11.305,1.217c3.513,0.817,6.592,2.144,9.248,3.984
			c2.653,1.841,4.73,4.259,6.231,7.258c1.498,2.997,2.248,6.723,2.248,11.176c0,6.167-1.735,11.367-5.204,15.607
			c-3.47,4.238-8.285,6.871-14.449,7.899v0.256c4.194,0.517,7.514,1.627,9.953,3.341c2.442,1.714,4.258,3.812,5.459,6.295
			c1.2,2.482,1.969,5.222,2.312,8.221c0.342,2.999,0.514,5.993,0.514,8.991c0,1.8,0,3.557,0,5.267c0,1.716,0.085,3.32,0.259,4.819
			c0.171,1.498,0.449,2.888,0.835,4.175c0.387,1.282,0.918,2.355,1.605,3.209h-6.293c-1.202-2.139-1.865-4.642-1.993-7.515
			c-0.128-2.865-0.19-5.847-0.19-8.925c0-3.084-0.13-6.146-0.388-9.189c-0.258-3.037-1.07-5.756-2.44-8.153
			c-1.37-2.396-3.533-4.324-6.486-5.779c-2.956-1.456-7.132-2.186-12.525-2.186h-32.63v41.747h-5.649V1132.908z M1292.494,1177.995
			c3.343,0,6.443-0.407,9.315-1.221c2.865-0.815,5.327-2.076,7.385-3.788c2.056-1.714,3.682-3.9,4.882-6.553
			c1.198-2.652,1.796-5.824,1.796-9.507c0-3.423-0.641-6.356-1.926-8.799c-1.284-2.439-2.998-4.43-5.137-5.975
			c-2.143-1.542-4.627-2.653-7.451-3.338c-2.826-0.685-5.782-1.028-8.864-1.028h-32.63v40.208H1292.494z"/>
		<path fill="#F64B8D" d="M1335.141,1132.908h61.66v4.879h-56.009v36.738h52.669v4.882h-52.669v40.336h56.651v4.88h-62.303V1132.908
			z"/>
		<path fill="#F64B8D" d="M1407.076,1132.908h7.063l57.934,84.139h0.258v-84.139h5.652v91.715h-6.68l-58.319-84.778h-0.255v84.778
			h-5.653V1132.908z"/>
	</g>
</g>
</svg>
