<svg version="1.1" xmlns="http://www.w3.org/2000/svg" xmlns:xlink="http://www.w3.org/1999/xlink" viewBox="0 0 768 430" enable-background="new 0 0 768 430" xml:space="preserve">
<g id="Layer_1">
	<devs>
		<style  type="text/css">#iconKinderGebaren {-webkit-animation: zoomIn 1s linear forwards;}
		#left_hand {-webkit-animation: rotateInDownRight 1.2s linear forwards;}		
		#right_hand  {-webkit-animation: rotateInDownLeft 1.2s linear forwards;}

		@keyframes zoomIn {from {opacity: 0;}		
		  50% {opacity: 1;}}
		@keyframes rotateInDownRight {
		  from {
		    transform-origin: right bottom;
		    transform: rotate3d(0, 0, 1, 20deg);}
		  33% {
		  	transform-origin: right bottom;
		    transform: none;}
		 66% {
		    transform-origin: right bottom;
		    transform: rotate3d(0, 0, 1, 20deg);}
		  to {
		    transform-origin: right bottom;
		    transform: none;}}
		@keyframes rotateInDownLeft {
		  from {
		    transform-origin: left bottom;
		    transform: rotate3d(0, 0, 1, -20deg);}
		  33% {
		    transform-origin: left bottom;
		    transform: none;}
		 66% {
		    transform-origin: left bottom;
		    transform: rotate3d(0, 0, 1, -20deg);}
		  to {
		    transform-origin: left bottom;
		    transform: none;}}
			</style>
	</devs>
	<g>
		<rect x="169" fill="none" width="430" height="430"/>
	</g>
	<g id="iconKinderGebaren">
		<path fill="#55C2C2" d="M383.729,93.073c-36.666,0-66.375,29.709-66.375,66.375c0,36.666,29.71,66.375,66.375,66.375
			s66.375-29.71,66.375-66.375C450.104,122.805,420.395,93.073,383.729,93.073z M402.235,128.482c4.789,0,8.668,4.377,8.668,9.795
			s-3.879,9.795-8.668,9.795s-8.668-4.377-8.668-9.795S397.446,128.482,402.235,128.482z M363.402,128.482
			c4.789,0,8.668,4.377,8.668,9.795s-3.879,9.795-8.668,9.795s-8.668-4.377-8.668-9.795S358.613,128.482,363.402,128.482z
			 M426.138,166.643c-4.508,21.215-22.169,37.078-43.188,37.078c-20.999,0-38.616-15.819-43.167-36.969
			c-0.173-0.802,4.161-2.427,4.161-2.427c3.749,18.81,19.806,32.982,39.006,32.982c19.199,0,35.279-14.172,39.006-32.982
			C421.934,164.324,426.289,165.885,426.138,166.643z"/>
		<g id="left_hand">
			<path fill="#8EDDDB" d="M314.276,101.091c-1.972-2.253-3.532-1.062-5.006,0.889c-1.495,1.95-1.647,4.703-0.368,6.176
				l8.928,12.829l-0.693,1.69l-30.013-19.568c-1.517-1.105-3.771-0.217-5.006,1.95c-1.235,2.167-1.019,4.833,0.52,5.916
				l21.41,16.188l-0.694,1.69l-27.629-11.333c-1.712-0.693-3.879,0.607-4.832,2.947c-0.954,2.34-0.347,4.789,1.365,5.504
				l27.629,11.333l-0.694,1.69l-26.654-3.532c-1.864-0.282-3.879,1.43-4.529,3.857c-0.65,2.427,0.347,4.615,2.188,4.897
				l27.391,3.966l-0.693,1.69l-17.813,1.387c-1.928,0.13-3.771,2.21-4.074,4.659c-0.303,2.427,0.997,4.291,4.009,4.074l19.417-0.606
				l7.455,3.055c8.083,3.316,20.283-3.489,25.831-17.011c5.548-13.522,2.319-21.887-5.136-30.338L314.276,101.091z"/>
			<path fill="#FFFFFF" d="M315.316,100.051c-1.604-1.733-3.727-2.188-5.634-0.672c-1.69,1.344-2.861,3.381-3.077,5.526
				c-0.087,0.932,0,1.907,0.347,2.774c0.195,0.499,0.433,0.932,0.78,1.365c-0.217-0.26-0.086-0.13-0.043-0.065
				c0.347,0.52,0.715,1.019,1.062,1.539c2.536,3.662,5.092,7.303,7.628,10.965c0.065,0.087,0.108,0.174,0.173,0.26
				c-0.043-0.369-0.108-0.758-0.152-1.127c-0.238,0.563-0.455,1.127-0.693,1.69c0.715-0.303,1.452-0.585,2.167-0.889
				c-6.587-4.291-13.197-8.603-19.785-12.894c-3.186-2.081-6.371-4.161-9.557-6.241c-0.217-0.13-0.433-0.282-0.65-0.412
				c-1.43-0.932-3.099-0.802-4.572-0.043c-3.619,1.885-4.854,7.867-1.409,10.445c6.501,4.919,13.002,9.838,19.524,14.757
				c0.629,0.477,1.257,0.954,1.886,1.43c-0.217-0.563-0.455-1.105-0.672-1.668c-0.238,0.563-0.455,1.126-0.693,1.69
				c0.606-0.347,1.213-0.693,1.82-1.04c-7.563-3.099-15.126-6.198-22.667-9.296c-1.452-0.607-2.904-1.192-4.356-1.799
				c-0.26-0.108-0.52-0.217-0.78-0.303c-1.842-0.672-3.901,0.412-5.114,1.755c-2.449,2.73-2.817,7.996,1.062,9.6
				c0.976,0.412,1.972,0.802,2.947,1.214c8.104,3.315,16.209,6.652,24.292,9.968c0.108,0.043,0.238,0.087,0.347,0.13
				c-0.347-0.607-0.694-1.213-1.019-1.82c-0.238,0.563-0.455,1.127-0.693,1.69c0.477-0.368,0.953-0.715,1.43-1.083
				c-8.04-1.062-16.08-2.124-24.141-3.185c-1.019-0.13-2.081-0.39-3.099-0.369c-4.442,0.108-6.87,6.154-4.876,9.708
				c0.932,1.646,2.492,1.928,4.139,2.167c1.907,0.281,3.814,0.563,5.742,0.823c6.74,0.975,13.5,1.95,20.24,2.947
				c-0.347-0.607-0.693-1.214-1.019-1.82c-0.238,0.563-0.455,1.127-0.693,1.69c0.477-0.368,0.953-0.715,1.43-1.083
				c-3.922,0.304-7.866,0.607-11.789,0.91c-1.885,0.152-3.771,0.282-5.656,0.434c-3.424,0.26-5.569,3.056-5.938,6.349
				c-0.195,1.799,0.563,3.489,2.016,4.551c1.019,0.759,2.405,0.845,3.619,0.802c1.604-0.043,3.208-0.108,4.789-0.151
				c4.594-0.152,9.21-0.282,13.804-0.434c0.195,0,0.368-0.021,0.563-0.021c0.369-0.022-0.542-0.173-0.13,0
				c0.889,0.368,1.799,0.737,2.687,1.105c1.864,0.758,3.728,1.668,5.656,2.254c6.241,1.885,12.872-1.365,17.531-5.353
				c6.306-5.439,10.423-13.761,11.615-21.952c0.542-3.749,0.347-7.541-0.845-11.16c-1.148-3.532-3.142-6.674-5.417-9.578
				c-2.275-2.882-4.832-5.591-7.259-8.343C319.889,105.252,317.592,102.651,315.316,100.051c-1.257-1.43-3.337,0.672-2.08,2.081
				c2.579,2.925,5.136,5.829,7.714,8.754c2.926,3.337,6.111,6.588,8.495,10.337c1.82,2.86,3.121,6.046,3.489,9.426
				c0.455,4.052-0.369,8.062-1.669,11.875c-2.449,7.194-7.151,13.934-14.042,17.466c-2.557,1.322-5.288,1.994-8.104,1.755
				c-1.69-0.152-3.749-1.105-5.504-1.82c-1.192-0.477-2.362-0.975-3.554-1.452c-0.498-0.217-1.105-0.563-1.646-0.542
				c-1.452,0.043-2.882,0.087-4.334,0.13c-4.703,0.152-9.405,0.282-14.107,0.434c-0.39,0.021-0.802,0.021-1.192,0.043
				c-1.474,0.086-2.275-0.585-2.319-1.842c-0.065-1.538,0.889-3.445,2.449-3.922c0.369-0.108,0.78-0.087,1.148-0.13
				c5.613-0.433,11.247-0.867,16.859-1.3c0.715-0.065,1.149-0.434,1.43-1.083c0.239-0.563,0.455-1.127,0.694-1.69
				c0.282-0.672-0.304-1.712-1.041-1.82c-8.061-1.17-16.144-2.34-24.205-3.511c-1.062-0.151-2.102-0.303-3.164-0.455
				c-1.322-0.195-1.452-1.755-1.257-2.839c0.303-1.495,1.474-3.229,3.164-3.034c3.186,0.369,6.393,0.845,9.579,1.257
				c5.699,0.759,11.398,1.517,17.098,2.254c0.693,0.086,1.192-0.52,1.43-1.083s0.455-1.127,0.693-1.69
				c0.325-0.802-0.369-1.539-1.04-1.82c-7.563-3.099-15.126-6.197-22.667-9.296c-1.452-0.607-2.904-1.192-4.356-1.798
				c-0.151-0.065-0.303-0.13-0.433-0.174c-0.369-0.151,0.26,0.13-0.152-0.086c-0.52-0.282-0.693-1.04-0.737-1.582
				c-0.065-1.019,0.282-1.95,0.824-2.795c0.368-0.563,0.932-1.062,1.582-1.257c0.369-0.108,0.628-0.087,1.041,0.087
				c0.303,0.13,0.606,0.238,0.888,0.368c1.582,0.65,3.186,1.3,4.768,1.95c7.325,2.991,14.627,6.003,21.952,8.993
				c0.802,0.325,1.539-0.368,1.82-1.019c0.238-0.563,0.455-1.127,0.693-1.69c0.26-0.65-0.195-1.3-0.671-1.669
				c-6.479-4.897-12.959-9.795-19.438-14.692c-0.498-0.39-1.018-0.758-1.517-1.148c-0.13-0.086-0.238-0.173-0.347-0.26
				c-0.022-0.022-0.043-0.043-0.065-0.065c0.325,0.238-0.173-0.195-0.26-0.347c-1.213-1.928,1.062-6.414,3.294-4.962
				c2.514,1.625,5.027,3.272,7.52,4.897c7.368,4.789,14.714,9.6,22.082,14.389c0.108,0.086,0.239,0.152,0.347,0.238
				c0.867,0.563,1.82-0.043,2.167-0.889c0.347-0.823,1.105-2.015,0.52-2.86c-0.325-0.455-0.65-0.932-0.975-1.387
				c-1.409-2.015-2.795-4.031-4.204-6.046c-1.17-1.669-2.319-3.337-3.489-5.006c-0.477-0.693-0.867-1.257-0.91-2.146
				c-0.022-0.888,0.281-1.712,0.736-2.449c0.369-0.606,1.041-1.517,1.734-1.755c0.434-0.151,0.888,0.347,1.257,0.759
				C314.515,103.54,316.595,101.438,315.316,100.051z"/>
		</g>
		<g id="right_hand">
			<path fill="#8EDDDB" d="M442,113.334c-7.368,8.538-10.531,16.924-4.854,30.382c5.678,13.479,17.943,20.153,26.005,16.772
				l7.433-3.121l19.438,0.412c2.99,0.173,4.29-1.69,3.965-4.118c-0.324-2.427-2.188-4.485-4.117-4.616l-17.812-1.213l-0.715-1.69
				l27.348-4.226c1.842-0.303,2.816-2.514,2.145-4.919c-0.671-2.405-2.708-4.117-4.551-3.814l-26.653,3.814l-0.716-1.69
				l27.521-11.593c1.712-0.715,2.297-3.186,1.321-5.504c-0.975-2.319-3.163-3.619-4.854-2.904L465.382,126.9l-0.715-1.69
				l21.259-16.383c1.517-1.105,1.712-3.771,0.455-5.938c-1.258-2.167-3.511-3.012-5.028-1.907l-29.817,19.828l-0.716-1.69
				l8.82-12.916c1.278-1.474,1.083-4.226-0.412-6.176c-1.495-1.929-3.056-3.121-5.027-0.845L442,113.334z"/>
			<path fill="#FFFFFF" d="M440.96,112.294c-2.449,2.839-4.702,5.895-6.197,9.362c-1.474,3.402-2.167,7.064-1.973,10.792
				c0.238,4.507,1.647,8.885,3.489,12.98c1.668,3.706,4.009,7.129,6.869,10.011c4.551,4.616,10.987,8.126,17.64,7.238
				c1.993-0.26,3.857-1.214,5.699-1.994c1.148-0.477,2.318-0.975,3.467-1.452c0.304-0.13,0.607-0.26,0.889-0.368
				c0.325-0.13-0.563,0-0.151,0.021c4.226,0.086,8.473,0.173,12.698,0.282c1.973,0.043,3.944,0.087,5.916,0.13
				c0.607,0.022,1.214,0.043,1.82-0.021c1.929-0.238,3.402-1.3,4.074-3.142c0.693-1.842,0.043-4.096-0.953-5.678
				c-0.976-1.56-2.601-2.687-4.442-2.817c-1.452-0.108-2.904-0.195-4.356-0.304c-4.398-0.303-8.798-0.606-13.219-0.91
				c-0.086,0-0.151,0-0.238-0.021c0.478,0.368,0.954,0.715,1.431,1.083c-0.238-0.563-0.477-1.127-0.715-1.69
				c-0.347,0.607-0.693,1.213-1.019,1.82c8.061-1.235,16.122-2.492,24.184-3.727c1.062-0.173,2.102-0.325,3.164-0.499
				c1.69-0.26,2.839-1.755,3.271-3.315c0.607-2.21-0.217-4.529-1.56-6.263c-1.171-1.495-3.013-2.275-4.876-1.994
				c-0.304,0.043-0.585,0.086-0.889,0.13c-1.755,0.238-3.511,0.499-5.266,0.737c-6.826,0.975-13.652,1.929-20.479,2.904
				c0.606,0.347,1.214,0.693,1.82,1.04c-0.238-0.563-0.477-1.126-0.715-1.69c-0.347,0.606-0.693,1.213-1.04,1.82
				c7.52-3.164,15.061-6.35,22.58-9.513c1.452-0.607,2.903-1.214,4.334-1.82c0.325-0.13,0.65-0.26,0.953-0.39
				c1.886-0.889,2.644-3.077,2.492-5.049c-0.173-2.21-1.344-4.226-3.164-5.482c-1.126-0.78-2.773-1.083-4.052-0.563
				c-0.976,0.412-1.95,0.824-2.947,1.235c-8.062,3.402-16.145,6.804-24.205,10.185c-0.108,0.043-0.217,0.086-0.347,0.151
				c0.606,0.347,1.213,0.693,1.82,1.041c-0.239-0.563-0.478-1.127-0.716-1.69c-0.217,0.563-0.455,1.105-0.672,1.668
				c6.437-4.962,12.872-9.925,19.309-14.887c0.866-0.672,1.929-1.322,2.687-2.146c3.013-3.229,0.478-9.296-3.51-10.293
				c-1.647-0.412-2.926,0.325-4.204,1.192c-1.344,0.889-2.666,1.777-4.01,2.666c-7.801,5.201-15.624,10.38-23.425,15.581
				c-0.477,0.325-0.976,0.65-1.452,0.975c0.715,0.303,1.452,0.585,2.167,0.888c-0.238-0.563-0.477-1.126-0.715-1.69
				c-0.043,0.368-0.108,0.758-0.151,1.127c2.275-3.337,4.572-6.696,6.848-10.034c0.52-0.758,1.04-1.517,1.538-2.275
				c0.13-0.173,0.238-0.347,0.368-0.52c0.022-0.021,0.044-0.065,0.065-0.086c-0.304,0.433,0.174-0.238,0.238-0.325
				c0.195-0.26,0.325-0.585,0.434-0.888c0.758-1.972,0.281-4.27-0.802-6.024c-1.062-1.712-2.86-3.467-5.006-3.164
				c-1.69,0.238-2.752,1.777-3.792,2.991c-1.409,1.625-2.817,3.25-4.226,4.875C445.489,107.072,443.235,109.672,440.96,112.294
				c-1.235,1.43,0.845,3.532,2.08,2.081c2.535-2.947,5.093-5.895,7.628-8.82c1.344-1.561,2.709-3.121,4.053-4.681
				c0.368-0.434,0.758-0.932,1.213-1.257c0.477-0.304,0.802-0.022,1.235,0.412c0.715,0.672,1.301,1.495,1.604,2.449
				c0.368,1.17,0.195,2.124-0.477,3.099c-0.281,0.412-0.563,0.824-0.845,1.235c-1.214,1.777-2.428,3.554-3.619,5.309
				c-1.192,1.733-2.362,3.467-3.554,5.201c-0.238,0.369-0.499,0.737-0.737,1.105c-0.585,0.845,0.217,2.037,0.542,2.839
				c0.347,0.823,1.3,1.473,2.167,0.888c6.544-4.355,13.11-8.711,19.654-13.089c3.164-2.102,6.328-4.226,9.514-6.328
				c0.217-0.151,0.434-0.282,0.65-0.433c0.975-0.65,2.037-0.022,2.73,0.932c0.541,0.758,0.866,1.647,0.888,2.579
				c0.022,0.412-0.064,0.78-0.173,1.17c-0.043,0.152-0.13,0.282-0.217,0.39c-0.043,0.065-0.521,0.499-0.151,0.195
				c-0.217,0.173-0.434,0.347-0.672,0.52c-6.739,5.179-13.457,10.38-20.196,15.559c-0.131,0.108-0.261,0.195-0.391,0.304
				c-0.477,0.368-0.953,1.019-0.672,1.668c0.238,0.563,0.477,1.127,0.715,1.69c0.282,0.65,0.997,1.365,1.82,1.04
				c7.52-3.164,15.062-6.349,22.581-9.513c1.451-0.607,2.903-1.213,4.334-1.82c0.26-0.108,0.52-0.217,0.758-0.325
				c1.322-0.498,2.645,1.235,3.056,2.427c0.282,0.823,0.304,1.668,0.044,2.492c-0.087,0.282-0.304,0.477-0.499,0.671
				c-0.325,0.304-0.021,0.022-0.043,0.043c-0.304,0.13-0.585,0.26-0.889,0.369c-1.582,0.671-3.164,1.343-4.746,1.994
				c-7.281,3.077-14.562,6.132-21.865,9.209c-0.649,0.282-1.365,0.997-1.018,1.82c0.238,0.563,0.477,1.127,0.715,1.69
				c0.347,0.823,0.932,1.148,1.82,1.04c8.039-1.148,16.079-2.275,24.097-3.424c0.65-0.086,1.278-0.173,1.929-0.282
				c0.152-0.021,0.304-0.043,0.477-0.065c0.044,0,0.065,0,0.108-0.021c-0.39,0.065,0.065,0,0.195,0.021
				c1.712,0.26,2.688,2.319,2.73,3.879c0.021,0.954-0.368,1.842-1.365,2.016c-3.511,0.542-7.043,1.083-10.554,1.625
				c-5.568,0.867-11.16,1.712-16.729,2.579c-0.716,0.108-1.322,1.127-1.041,1.82c0.238,0.563,0.478,1.127,0.716,1.69
				c0.281,0.65,0.693,1.04,1.43,1.083c3.923,0.26,7.866,0.542,11.789,0.802c1.885,0.13,3.771,0.26,5.655,0.39
				c0.78,0.043,1.365,0.368,1.907,0.954c1.019,1.062,1.495,2.99,0.867,4.117c-0.391,0.693-1.431,0.78-2.362,0.758
				c-0.542-0.021-1.084-0.021-1.625-0.043c-2.297-0.043-4.616-0.108-6.913-0.151c-2.535-0.065-5.049-0.108-7.585-0.173
				c-0.823-0.022-1.625-0.043-2.448-0.043c-0.347,0-0.845-0.087-1.17,0.043c-1.973,0.823-3.966,1.668-5.938,2.492
				c-0.672,0.282-1.344,0.585-2.037,0.845c-1.322,0.477-2.362,0.607-3.706,0.585c-2.817-0.022-5.678-1.083-8.213-2.579
				c-3.056-1.798-5.678-4.334-7.779-7.173c-2.167-2.925-3.771-6.176-4.984-9.6c-1.148-3.25-1.863-6.674-1.777-10.142
				c0.152-6.154,3.425-11.485,7.325-16.036C444.275,112.945,442.217,110.864,440.96,112.294z"/>
		</g>
		<g enable-background="new    ">
			<path fill="#55C2C2" d="M278.174,245.5h1.235v11.442l12.504-11.442h1.582l-9.08,8.279l9.622,11.615h-1.539l-8.993-10.771
				l-4.117,3.749v7.021h-1.235V245.5H278.174z"/>
			<path fill="#55C2C2" d="M295.229,245.5h1.235v19.872h-1.235V245.5z"/>
			<path fill="#55C2C2" d="M299.974,245.5h1.539l12.547,18.225h0.065V245.5h1.235v19.872h-1.452l-12.634-18.376h-0.065v18.376
				h-1.235V245.5z"/>
			<path fill="#55C2C2" d="M318.849,245.5h6.523c1.777,0,3.272,0.282,4.442,0.846c1.17,0.563,2.124,1.301,2.817,2.232
				c0.715,0.932,1.192,1.993,1.495,3.164c0.282,1.191,0.434,2.404,0.434,3.684c0,1.408-0.173,2.73-0.542,3.943
				c-0.369,1.214-0.932,2.275-1.69,3.164s-1.712,1.582-2.882,2.102c-1.17,0.521-2.535,0.76-4.139,0.76h-6.458V245.5z
				 M325.415,264.311c0.932,0,1.863-0.152,2.795-0.434c0.932-0.281,1.777-0.78,2.557-1.452c0.758-0.671,1.387-1.581,1.842-2.729
				c0.477-1.149,0.715-2.58,0.715-4.291c0-1.344-0.13-2.514-0.412-3.489c-0.26-0.976-0.628-1.776-1.062-2.427
				c-0.434-0.65-0.932-1.17-1.496-1.561s-1.148-0.672-1.755-0.867c-0.607-0.195-1.214-0.346-1.799-0.411
				c-0.607-0.065-1.148-0.087-1.625-0.087h-5.092v17.77h5.331V264.311z"/>
			<path fill="#55C2C2" d="M337.398,245.5h13.371v1.062h-12.135v7.953h11.42v1.062h-11.42v8.733h12.265v1.062h-13.5V245.5z"/>
			<path fill="#55C2C2" d="M353.001,245.5h8.3c0.867,0,1.69,0.088,2.448,0.261c0.759,0.173,1.431,0.455,1.994,0.866
				c0.585,0.391,1.018,0.933,1.343,1.582c0.325,0.65,0.477,1.452,0.477,2.428c0,1.344-0.369,2.471-1.127,3.381
				c-0.759,0.91-1.799,1.494-3.143,1.711v0.065c0.91,0.108,1.625,0.347,2.167,0.716c0.52,0.367,0.932,0.822,1.192,1.365
				c0.26,0.541,0.433,1.126,0.498,1.776c0.065,0.649,0.108,1.3,0.108,1.95c0,0.391,0,0.78,0,1.148c0,0.369,0.021,0.715,0.065,1.04
				s0.108,0.629,0.173,0.91c0.087,0.282,0.195,0.521,0.347,0.694h-1.365c-0.26-0.455-0.412-0.998-0.433-1.626
				c-0.022-0.628-0.043-1.257-0.043-1.929s-0.021-1.322-0.087-1.994c-0.065-0.649-0.238-1.256-0.52-1.776
				c-0.303-0.521-0.758-0.932-1.408-1.257c-0.65-0.325-1.539-0.477-2.709-0.477h-7.064v9.036h-1.235V245.5H353.001z
				 M361.279,255.273c0.715,0,1.387-0.086,2.015-0.26c0.629-0.174,1.149-0.455,1.604-0.823s0.802-0.845,1.062-1.431
				c0.26-0.584,0.39-1.256,0.39-2.059c0-0.736-0.13-1.387-0.412-1.906c-0.282-0.521-0.65-0.954-1.105-1.301
				c-0.455-0.324-0.997-0.585-1.604-0.715c-0.606-0.152-1.257-0.217-1.928-0.217h-7.064v8.711H361.279L361.279,255.273z"/>
		</g>
		<g enable-background="new    ">
			<path fill="#F64B8D" d="M369.817,255.556c0-1.409,0.217-2.752,0.628-4.03c0.412-1.279,1.019-2.385,1.82-3.359
				s1.777-1.733,2.947-2.297c1.17-0.563,2.492-0.846,3.987-0.846c1.019,0,1.994,0.152,2.925,0.455
				c0.932,0.304,1.755,0.737,2.492,1.301c0.737,0.585,1.344,1.278,1.842,2.08c0.499,0.824,0.846,1.756,0.998,2.773h-1.171
				c-0.455-1.732-1.3-3.098-2.514-4.096c-1.213-0.975-2.73-1.473-4.572-1.473c-1.344,0-2.514,0.26-3.532,0.779
				c-1.019,0.521-1.885,1.214-2.557,2.081c-0.693,0.866-1.213,1.886-1.56,3.012c-0.347,1.148-0.521,2.341-0.521,3.575
				c0,1.258,0.173,2.449,0.521,3.576c0.347,1.127,0.845,2.102,1.538,2.947c0.672,0.845,1.517,1.495,2.557,1.994
				c1.019,0.498,2.21,0.736,3.597,0.736c1.192,0,2.254-0.195,3.208-0.586c0.954-0.39,1.755-0.932,2.405-1.646
				c0.65-0.715,1.148-1.561,1.496-2.557c0.324-0.997,0.477-2.102,0.411-3.316h-7.324V255.6h8.386v9.751h-1.062v-4.204h-0.065
				c-0.238,0.715-0.605,1.387-1.083,1.973c-0.477,0.584-1.062,1.083-1.712,1.473c-0.65,0.391-1.387,0.715-2.188,0.932
				s-1.647,0.326-2.514,0.326c-1.495,0-2.839-0.261-3.987-0.803c-1.17-0.541-2.146-1.278-2.947-2.188
				c-0.802-0.932-1.409-2.015-1.82-3.272C370.012,258.33,369.817,256.986,369.817,255.556z"/>
			<path fill="#F64B8D" d="M391.162,245.5h13.37v1.062h-12.136v7.953h11.421v1.062h-11.421v8.733h12.266v1.062h-13.5V245.5
				L391.162,245.5z"/>
			<path fill="#F64B8D" d="M406.742,245.5h7.953c1.192,0,2.189,0.152,2.969,0.455c0.803,0.305,1.431,0.694,1.93,1.171
				c0.477,0.477,0.822,1.04,1.039,1.647c0.217,0.628,0.326,1.256,0.326,1.885c0,0.541-0.088,1.04-0.282,1.539
				c-0.195,0.477-0.455,0.91-0.802,1.277c-0.347,0.369-0.759,0.672-1.235,0.933c-0.477,0.26-0.997,0.411-1.582,0.477l0.065,0.065
				c0.13-0.021,0.434,0.043,0.91,0.173s0.996,0.368,1.517,0.737c0.521,0.368,0.997,0.866,1.409,1.495
				c0.411,0.649,0.628,1.452,0.628,2.47c0,0.91-0.174,1.713-0.499,2.406c-0.324,0.693-0.801,1.256-1.408,1.733
				c-0.606,0.477-1.322,0.823-2.188,1.062c-0.845,0.238-1.799,0.369-2.839,0.369h-7.953V245.5H406.742z M414.717,254.516
				c1.691,0,2.947-0.369,3.793-1.127s1.257-1.734,1.257-2.969c0-0.715-0.13-1.322-0.411-1.82c-0.282-0.498-0.65-0.889-1.105-1.191
				c-0.455-0.304-0.997-0.521-1.604-0.65c-0.607-0.131-1.236-0.195-1.907-0.195H408v7.953H414.717z M414.717,264.311
				c1.777,0,3.186-0.369,4.184-1.127c1.018-0.759,1.516-1.885,1.516-3.381c0-0.845-0.173-1.561-0.52-2.102
				c-0.347-0.542-0.802-0.976-1.344-1.301c-0.541-0.324-1.17-0.541-1.842-0.65c-0.672-0.129-1.344-0.173-1.994-0.173h-6.738v8.733
				H414.717L414.717,264.311z"/>
			<path fill="#F64B8D" d="M430.189,245.5h1.344l7.845,19.872h-1.3l-2.514-6.371h-9.514l-2.535,6.371h-1.301L430.189,245.5z
				 M435.174,257.939l-4.269-11.247h-0.065l-4.421,11.247H435.174z"/>
			<path fill="#F64B8D" d="M440.786,245.5h8.3c0.867,0,1.69,0.088,2.449,0.261c0.758,0.173,1.43,0.455,1.993,0.866
				c0.585,0.391,1.019,0.933,1.344,1.582c0.325,0.65,0.477,1.452,0.477,2.428c0,1.344-0.368,2.471-1.127,3.381
				c-0.758,0.91-1.798,1.494-3.12,1.711v0.065c0.91,0.108,1.625,0.347,2.167,0.716c0.521,0.367,0.932,0.822,1.191,1.365
				c0.261,0.541,0.434,1.126,0.499,1.776c0.064,0.649,0.108,1.3,0.108,1.95c0,0.391,0,0.78,0,1.148c0,0.369,0.021,0.715,0.064,1.04
				c0.044,0.325,0.087,0.629,0.174,0.91c0.087,0.282,0.195,0.521,0.347,0.694h-1.365c-0.26-0.455-0.412-0.998-0.434-1.626
				s-0.043-1.257-0.043-1.929s-0.021-1.322-0.087-1.994c-0.065-0.649-0.238-1.256-0.521-1.776c-0.303-0.521-0.758-0.932-1.408-1.257
				s-1.538-0.477-2.709-0.477h-7.064v9.036h-1.213V245.5H440.786z M449.086,255.273c0.716,0,1.387-0.086,2.016-0.26
				c0.628-0.174,1.148-0.455,1.604-0.823s0.802-0.845,1.062-1.431c0.261-0.584,0.391-1.256,0.391-2.059
				c0-0.736-0.13-1.387-0.412-1.906c-0.281-0.521-0.65-0.954-1.105-1.301c-0.455-0.324-0.996-0.585-1.625-0.715
				c-0.606-0.152-1.257-0.217-1.929-0.217h-7.064v8.711H449.086L449.086,255.273z"/>
			<path fill="#F64B8D" d="M458.317,245.5h13.371v1.062h-12.136v7.953h11.42v1.062h-11.42v8.733h12.287v1.062h-13.501V245.5H458.317
				z"/>
			<path fill="#F64B8D" d="M473.92,245.5h1.539l12.547,18.225h0.064V245.5h1.235v19.872h-1.452l-12.633-18.376h-0.065v18.376h-1.235
				V245.5z"/>
		</g>
	</g>
</g>
<g id="Layer_2">
	<g>
		<path fill="#B2B1B1" d="M361.909,403.677l20.585,21.7c0,0,0.903,0.917,1.506,0.917c0.655,0,1.507-0.917,1.507-0.917l20.586-21.7
			c0.645-0.677,0.645-1.778,0-2.455c-0.642-0.678-1.688-0.678-2.332,0L384,422.051l-19.765-20.829c-0.645-0.678-1.686-0.678-2.331,0
			C361.264,401.898,361.264,403,361.909,403.677z"/>
	</g>
</g>
<g id="menu">
	<g>
		<path fill="#B2B1B1" d="M368.54,386l2.844,7.513l2.952-7.513h1.2v8.568h-0.816v-7.404h-0.024l-2.928,7.404H371l-2.82-7.404h-0.024
			v7.404h-0.816V386H368.54z"/>
		<polyline fill="#B2B1B1" points="382.808,390.488 382.808,389.792 377.216,389.797 377.216,390.5 		"/>
		<polygon fill="#B2B1B1" points="377.216,386 377.216,386.688 383.132,386.696 383.132,386 		"/>
		<polygon fill="#B2B1B1" points="377.216,393.859 377.216,394.568 383.192,394.568 383.192,393.872 		"/>
		<path fill="#B2B1B1" d="M385.232,386l4.991,7.248h0.024V386h0.816v8.568h-0.912l-4.992-7.248h-0.024v7.248h-0.815V386H385.232z"/>
		<path fill="#B2B1B1" d="M393.512,386v5.305c0,0.496,0.056,0.918,0.168,1.266c0.111,0.348,0.275,0.632,0.492,0.852
			c0.216,0.221,0.479,0.381,0.791,0.48c0.312,0.101,0.664,0.15,1.057,0.15c0.4,0,0.756-0.05,1.068-0.15
			c0.312-0.1,0.576-0.26,0.791-0.48c0.217-0.22,0.381-0.504,0.492-0.852c0.112-0.348,0.168-0.77,0.168-1.266V386h0.816v5.484
			c0,0.44-0.062,0.858-0.186,1.254c-0.125,0.396-0.32,0.742-0.588,1.038c-0.269,0.296-0.612,0.53-1.033,0.702
			c-0.42,0.172-0.93,0.258-1.529,0.258c-0.592,0-1.098-0.086-1.518-0.258s-0.765-0.406-1.032-0.702
			c-0.269-0.296-0.464-0.642-0.589-1.038c-0.123-0.396-0.186-0.813-0.186-1.254V386H393.512z"/>
	</g>
</g>
</svg>
