<svg version="1.1" id="Layer_1" xmlns="http://www.w3.org/2000/svg" xmlns:xlink="http://www.w3.org/1999/xlink" viewBox="0 0 768 430" enable-background="new 0 0 768 430" xml:space="preserve">
<devs>
	<style  type="text/css">#iconKinderGebaren {-webkit-animation: zoomIn 1s linear forwards;}
		#arrow, #menu {-webkit-animation: zoomIn 5s linear forwards; -webkit-animation-delay: 4s;}
		#left_hand {-webkit-animation: rotateInDownRight 1.2s linear forwards;}		
		#right_hand  {-webkit-animation: rotateInDownLeft 1.2s linear forwards;}

		
		@-webkit-keyframes zoomIn {from {opacity: 0;}		
		  50% {opacity: 1;}}
		@-webkit-keyframes rotateInDownRight {
		  from {
		    transform-origin: right bottom;
		    transform: rotate3d(0, 0, 1, 20deg);}
		  33% {
		  	transform-origin: right bottom;
		    transform: none;}
		 66% {
		    transform-origin: right bottom;
		    transform: rotate3d(0, 0, 1, 20deg);}
		  to {
		    transform-origin: right bottom;
		    transform: none;}}
		@-webkit-keyframes rotateInDownLeft {
		  from {
		    transform-origin: left bottom;
		    transform: rotate3d(0, 0, 1, -20deg);}
		  33% {
		    transform-origin: left bottom;
		    transform: none;}
		 66% {
		    transform-origin: left bottom;
		    transform: rotate3d(0, 0, 1, -20deg);}
		  to {
		    transform-origin: left bottom;
		    transform: none;}}
		</style>
</devs>
<g id="iconKinderGebaren">
	<path fill="#55C2C2" d="M380.684,76.724c-37.655,0-68.167,30.512-68.167,68.168c0,37.655,30.512,68.168,68.167,68.168
		c37.656,0,68.168-30.513,68.168-68.168C448.852,107.258,418.34,76.724,380.684,76.724z M399.69,113.089
		c4.918,0,8.901,4.495,8.901,10.06c0,5.563-3.983,10.059-8.901,10.059s-8.902-4.496-8.902-10.059
		C390.788,117.584,394.771,113.089,399.69,113.089z M359.809,113.089c4.918,0,8.902,4.495,8.902,10.06
		c0,5.563-3.984,10.059-8.902,10.059c-4.918,0-8.902-4.496-8.902-10.059C350.906,117.584,354.89,113.089,359.809,113.089z
		 M424.237,152.28c-4.629,21.788-22.768,38.079-44.354,38.079c-21.566,0-39.659-16.247-44.333-37.967
		c-0.179-0.824,4.272-2.493,4.272-2.493c3.851,19.318,20.341,33.873,40.06,33.873c19.718,0,36.232-14.555,40.058-33.873
		C419.92,149.898,424.394,151.501,424.237,152.28z"/>
	<g id="left_hand">
		<path fill="#8EDDDB" d="M309.356,84.958c-2.025-2.314-3.627-1.09-5.141,0.913c-1.535,2.002-1.691,4.829-0.378,6.342l9.168,13.176
			l-0.712,1.735L281.47,87.028c-1.558-1.135-3.873-0.223-5.141,2.003c-1.269,2.225-1.046,4.962,0.534,6.076l21.988,16.625
			l-0.712,1.736l-28.375-11.64c-1.758-0.712-3.983,0.624-4.962,3.027c-0.979,2.403-0.356,4.918,1.402,5.653l28.375,11.639
			l-0.713,1.736l-27.374-3.628c-1.914-0.289-3.984,1.469-4.652,3.961c-0.667,2.492,0.356,4.74,2.248,5.029l28.131,4.073
			l-0.712,1.736l-18.294,1.424c-1.979,0.133-3.872,2.27-4.183,4.785c-0.312,2.493,1.024,4.406,4.117,4.184l19.941-0.623l7.656,3.138
			c8.301,3.405,20.831-3.583,26.528-17.47c5.698-13.888,2.381-22.478-5.274-31.158L309.356,84.958z"/>
		<path fill="#FFFFFF" d="M310.424,83.89c-1.647-1.78-3.828-2.248-5.786-0.69c-1.736,1.38-2.938,3.473-3.161,5.675
			c-0.089,0.958,0,1.959,0.356,2.849c0.2,0.512,0.445,0.957,0.801,1.402c-0.223-0.267-0.089-0.134-0.045-0.067
			c0.356,0.535,0.735,1.046,1.091,1.581c2.604,3.761,5.229,7.5,7.834,11.261c0.066,0.089,0.111,0.179,0.178,0.268
			c-0.045-0.378-0.112-0.779-0.156-1.157c-0.244,0.579-0.467,1.157-0.712,1.735c0.735-0.311,1.492-0.601,2.225-0.912
			c-6.765-4.407-13.552-8.835-20.318-13.242c-3.271-2.137-6.544-4.273-9.815-6.41c-0.222-0.133-0.444-0.289-0.667-0.423
			c-1.469-0.957-3.183-0.823-4.696-0.044c-3.717,1.936-4.986,8.08-1.447,10.728c6.676,5.052,13.353,10.104,20.051,15.156
			c0.646,0.489,1.292,0.979,1.937,1.469c-0.222-0.579-0.467-1.135-0.689-1.713c-0.245,0.579-0.467,1.157-0.712,1.736
			c0.623-0.356,1.246-0.712,1.869-1.069c-7.767-3.182-15.534-6.365-23.278-9.547c-1.491-0.624-2.982-1.225-4.474-1.847
			c-0.267-0.112-0.535-0.223-0.801-0.312c-1.892-0.69-4.006,0.423-5.252,1.803c-2.515,2.804-2.894,8.212,1.09,9.858
			c1.002,0.423,2.025,0.824,3.027,1.247c8.323,3.406,16.647,6.833,24.948,10.237c0.111,0.045,0.245,0.09,0.356,0.134
			c-0.356-0.623-0.713-1.246-1.046-1.869c-0.245,0.579-0.467,1.158-0.712,1.735c0.49-0.377,0.979-0.734,1.469-1.112
			c-8.256-1.09-16.514-2.181-24.792-3.271c-1.046-0.134-2.137-0.4-3.183-0.378c-4.562,0.111-7.055,6.32-5.008,9.971
			c0.957,1.691,2.56,1.98,4.251,2.225c1.958,0.289,3.917,0.578,5.897,0.846c6.922,1.001,13.865,2.003,20.787,3.027
			c-0.356-0.623-0.712-1.247-1.046-1.869c-0.245,0.579-0.468,1.157-0.712,1.735c0.49-0.377,0.979-0.734,1.469-1.112
			c-4.028,0.312-8.078,0.624-12.106,0.935c-1.937,0.156-3.873,0.289-5.809,0.445c-3.516,0.267-5.719,3.138-6.098,6.521
			c-0.2,1.847,0.579,3.583,2.07,4.673c1.046,0.779,2.47,0.868,3.717,0.824c1.646-0.044,3.294-0.111,4.917-0.156
			c4.719-0.156,9.459-0.29,14.177-0.445c0.2,0,0.378-0.022,0.578-0.022c0.379-0.022-0.556-0.178-0.133,0
			c0.912,0.378,1.847,0.757,2.759,1.136c1.914,0.778,3.828,1.713,5.809,2.314c6.409,1.937,13.219-1.402,18.004-5.497
			c6.477-5.586,10.705-14.132,11.929-22.544c0.557-3.85,0.356-7.745-0.869-11.462c-1.179-3.627-3.227-6.854-5.563-9.836
			c-2.336-2.96-4.962-5.742-7.455-8.568C315.12,89.231,312.761,86.561,310.424,83.89c-1.291-1.469-3.427,0.69-2.136,2.136
			c2.647,3.004,5.274,5.987,7.922,8.991c3.005,3.428,6.276,6.766,8.724,10.616c1.87,2.938,3.206,6.209,3.584,9.681
			c0.467,4.161-0.378,8.279-1.714,12.196c-2.515,7.389-7.344,14.31-14.421,17.938c-2.626,1.358-5.43,2.047-8.323,1.803
			c-1.736-0.156-3.851-1.135-5.653-1.87c-1.224-0.489-2.426-1.001-3.65-1.491c-0.511-0.222-1.135-0.579-1.691-0.557
			c-1.491,0.045-2.959,0.089-4.451,0.133c-4.83,0.156-9.659,0.29-14.489,0.445c-0.4,0.022-0.823,0.022-1.224,0.045
			c-1.513,0.089-2.336-0.602-2.381-1.893c-0.067-1.58,0.912-3.539,2.515-4.028c0.379-0.111,0.801-0.089,1.179-0.134
			c5.764-0.444,11.551-0.89,17.314-1.334c0.735-0.067,1.181-0.445,1.469-1.112c0.246-0.579,0.468-1.158,0.713-1.737
			c0.289-0.69-0.312-1.757-1.069-1.869c-8.279-1.202-16.58-2.404-24.859-3.605c-1.091-0.155-2.159-0.312-3.249-0.467
			c-1.358-0.2-1.492-1.802-1.291-2.916c0.312-1.536,1.513-3.315,3.249-3.116c3.271,0.379,6.565,0.868,9.837,1.291
			c5.853,0.78,11.706,1.558,17.559,2.315c0.712,0.089,1.224-0.534,1.469-1.113c0.245-0.579,0.467-1.157,0.712-1.736
			c0.334-0.824-0.378-1.58-1.068-1.87c-7.767-3.182-15.534-6.364-23.279-9.547c-1.491-0.624-2.982-1.224-4.474-1.847
			c-0.155-0.067-0.312-0.134-0.444-0.179c-0.379-0.155,0.266,0.133-0.156-0.089c-0.534-0.289-0.712-1.068-0.756-1.625
			c-0.067-1.046,0.289-2.003,0.846-2.871c0.378-0.579,0.957-1.09,1.624-1.291c0.379-0.112,0.646-0.089,1.069,0.089
			c0.312,0.133,0.623,0.244,0.912,0.378c1.625,0.668,3.271,1.335,4.896,2.003c7.522,3.071,15.022,6.165,22.544,9.236
			c0.823,0.334,1.58-0.378,1.869-1.046c0.245-0.579,0.467-1.158,0.712-1.735c0.267-0.668-0.2-1.335-0.689-1.714
			c-6.655-5.03-13.309-10.059-19.964-15.089c-0.511-0.4-1.045-0.779-1.557-1.179c-0.134-0.089-0.245-0.178-0.356-0.267
			c-0.022-0.022-0.045-0.045-0.067-0.067c0.333,0.245-0.178-0.201-0.267-0.357c-1.247-1.979,1.09-6.587,3.383-5.096
			c2.581,1.669,5.163,3.361,7.722,5.03c7.567,4.918,15.111,9.859,22.678,14.778c0.111,0.089,0.245,0.156,0.356,0.244
			c0.891,0.579,1.87-0.044,2.226-0.913c0.356-0.845,1.135-2.069,0.535-2.938c-0.334-0.467-0.668-0.957-1.001-1.424
			c-1.447-2.07-2.871-4.14-4.317-6.209c-1.202-1.714-2.382-3.427-3.583-5.141c-0.49-0.712-0.891-1.291-0.935-2.204
			c-0.023-0.912,0.288-1.758,0.756-2.515c0.378-0.623,1.068-1.557,1.78-1.802c0.445-0.155,0.913,0.356,1.291,0.779
			C309.601,87.473,311.737,85.314,310.424,83.89z"/>
	</g>
	<g id="right_hand">
		<path fill="#8EDDDB" d="M440.528,97.532c-7.567,8.769-10.815,17.381-4.986,31.202c5.832,13.843,18.428,20.697,26.707,17.226
			l7.634-3.206l19.963,0.423c3.071,0.178,4.407-1.736,4.072-4.229c-0.333-2.492-2.247-4.606-4.229-4.74l-18.293-1.246l-0.734-1.736
			l28.087-4.34c1.891-0.311,2.892-2.581,2.202-5.051s-2.782-4.229-4.674-3.917l-27.373,3.917l-0.735-1.736l28.265-11.906
			c1.758-0.735,2.359-3.271,1.357-5.653c-1.001-2.381-3.248-3.716-4.985-2.982l-28.264,11.907l-0.734-1.736l21.832-16.825
			c1.558-1.134,1.759-3.872,0.468-6.098c-1.292-2.226-3.605-3.093-5.164-1.958L450.32,105.21l-0.734-1.736l9.059-13.264
			c1.312-1.514,1.112-4.34-0.424-6.342c-1.535-1.981-3.138-3.205-5.163-0.868L440.528,97.532z"/>
		<path fill="#FFFFFF" d="M439.461,96.464c-2.516,2.916-4.829,6.054-6.365,9.615c-1.513,3.493-2.227,7.256-2.026,11.083
			c0.245,4.629,1.692,9.125,3.584,13.332c1.713,3.805,4.116,7.322,7.054,10.281c4.675,4.741,11.285,8.346,18.116,7.434
			c2.047-0.268,3.962-1.247,5.854-2.047c1.18-0.49,2.381-1.001,3.561-1.492c0.312-0.133,0.624-0.267,0.912-0.378
			c0.335-0.134-0.578,0-0.154,0.022c4.339,0.088,8.701,0.178,13.041,0.289c2.025,0.044,4.051,0.089,6.075,0.133
			c0.624,0.022,1.247,0.045,1.869-0.022c1.981-0.245,3.494-1.335,4.185-3.227c0.713-1.892,0.044-4.207-0.979-5.831
			c-1.002-1.603-2.671-2.76-4.563-2.893c-1.49-0.112-2.982-0.201-4.474-0.312c-4.517-0.311-9.035-0.623-13.576-0.935
			c-0.088,0-0.155,0-0.244-0.022c0.491,0.378,0.979,0.734,1.47,1.113c-0.244-0.579-0.49-1.158-0.734-1.736
			c-0.356,0.624-0.712,1.246-1.047,1.869c8.278-1.268,16.558-2.56,24.837-3.827c1.091-0.178,2.158-0.334,3.25-0.512
			c1.736-0.267,2.916-1.803,3.36-3.405c0.623-2.27-0.223-4.651-1.603-6.432c-1.202-1.536-3.094-2.337-5.008-2.048
			c-0.312,0.045-0.601,0.089-0.912,0.134c-1.803,0.245-3.605,0.512-5.408,0.757c-7.01,1.001-14.021,1.98-21.031,2.981
			c0.623,0.356,1.246,0.712,1.87,1.068c-0.246-0.578-0.49-1.156-0.734-1.735c-0.356,0.623-0.713,1.246-1.068,1.869
			c7.722-3.25,15.467-6.521,23.189-9.77c1.492-0.624,2.981-1.247,4.451-1.869c0.334-0.134,0.667-0.268,0.979-0.401
			c1.938-0.913,2.716-3.16,2.56-5.186c-0.177-2.27-1.38-4.339-3.249-5.63c-1.156-0.801-2.849-1.112-4.16-0.578
			c-1.003,0.422-2.004,0.845-3.028,1.269c-8.278,3.494-16.58,6.988-24.858,10.46c-0.111,0.044-0.223,0.089-0.356,0.155
			c0.623,0.356,1.247,0.712,1.87,1.069c-0.246-0.579-0.49-1.157-0.735-1.736c-0.223,0.579-0.467,1.135-0.689,1.714
			c6.609-5.097,13.22-10.192,19.829-15.29c0.89-0.69,1.981-1.357,2.759-2.203c3.095-3.316,0.491-9.547-3.604-10.572
			c-1.692-0.422-3.005,0.334-4.318,1.224c-1.38,0.913-2.737,1.826-4.118,2.738c-8.011,5.341-16.045,10.66-24.057,16.001
			c-0.489,0.334-1.002,0.668-1.491,1.002c0.733,0.311,1.491,0.601,2.226,0.912c-0.245-0.578-0.49-1.157-0.734-1.736
			c-0.044,0.378-0.111,0.779-0.156,1.158c2.337-3.427,4.696-6.877,7.033-10.305c0.533-0.779,1.067-1.558,1.58-2.336
			c0.133-0.178,0.244-0.356,0.378-0.535c0.022-0.022,0.045-0.066,0.067-0.089c-0.312,0.445,0.178-0.244,0.244-0.334
			c0.201-0.267,0.335-0.601,0.445-0.912c0.778-2.025,0.289-4.385-0.823-6.187c-1.09-1.758-2.938-3.561-5.141-3.25
			c-1.737,0.244-2.826,1.825-3.895,3.071c-1.447,1.669-2.895,3.338-4.34,5.008C444.111,91.101,441.797,93.771,439.461,96.464
			c-1.269,1.469,0.866,3.628,2.136,2.137c2.604-3.027,5.229-6.054,7.833-9.058c1.381-1.603,2.783-3.205,4.163-4.808
			c0.378-0.445,0.778-0.957,1.245-1.291c0.489-0.312,0.823-0.022,1.27,0.423c0.734,0.69,1.335,1.536,1.646,2.515
			c0.378,1.202,0.2,2.181-0.49,3.183c-0.288,0.423-0.578,0.846-0.867,1.269c-1.247,1.825-2.492,3.649-3.717,5.452
			c-1.225,1.78-2.426,3.561-3.649,5.341c-0.244,0.378-0.513,0.757-0.757,1.135c-0.601,0.868,0.223,2.092,0.557,2.916
			c0.355,0.845,1.335,1.513,2.226,0.912c6.721-4.473,13.464-8.947,20.185-13.442c3.249-2.158,6.499-4.34,9.771-6.499
			c0.223-0.156,0.445-0.29,0.668-0.445c1.001-0.668,2.092-0.023,2.804,0.957c0.556,0.778,0.891,1.691,0.912,2.648
			c0.023,0.423-0.067,0.801-0.178,1.202c-0.044,0.155-0.133,0.29-0.222,0.4c-0.046,0.067-0.535,0.512-0.156,0.2
			c-0.222,0.178-0.445,0.356-0.689,0.534c-6.922,5.319-13.82,10.661-20.742,15.979c-0.135,0.111-0.268,0.201-0.402,0.312
			c-0.488,0.378-0.978,1.046-0.689,1.714c0.245,0.578,0.49,1.157,0.735,1.736c0.289,0.667,1.023,1.402,1.869,1.068
			c7.723-3.25,15.468-6.521,23.19-9.77c1.49-0.623,2.981-1.246,4.45-1.87c0.268-0.111,0.534-0.222,0.779-0.334
			c1.358-0.511,2.716,1.269,3.138,2.493c0.29,0.846,0.312,1.713,0.046,2.56c-0.09,0.29-0.312,0.489-0.514,0.689
			c-0.333,0.312-0.021,0.022-0.044,0.045c-0.312,0.134-0.601,0.267-0.913,0.378c-1.624,0.689-3.248,1.379-4.873,2.047
			c-7.478,3.161-14.955,6.298-22.456,9.458c-0.666,0.29-1.402,1.024-1.044,1.87c0.244,0.579,0.488,1.157,0.733,1.736
			c0.355,0.846,0.957,1.18,1.87,1.068c8.256-1.179,16.513-2.336,24.747-3.516c0.668-0.089,1.312-0.178,1.98-0.289
			c0.157-0.022,0.312-0.045,0.49-0.067c0.045,0,0.067,0,0.111-0.022c-0.4,0.067,0.066,0,0.2,0.022
			c1.758,0.267,2.76,2.381,2.804,3.984c0.022,0.979-0.378,1.892-1.401,2.07c-3.605,0.556-7.233,1.112-10.84,1.668
			c-5.719,0.891-11.461,1.759-17.18,2.648c-0.734,0.112-1.358,1.157-1.068,1.87c0.244,0.579,0.49,1.157,0.734,1.736
			c0.288,0.667,0.713,1.068,1.469,1.112c4.028,0.267,8.079,0.557,12.106,0.824c1.937,0.133,3.873,0.267,5.809,0.4
			c0.802,0.045,1.402,0.378,1.958,0.979c1.047,1.09,1.536,3.071,0.891,4.228c-0.4,0.712-1.469,0.802-2.426,0.779
			c-0.557-0.023-1.113-0.023-1.668-0.045c-2.36-0.044-4.741-0.111-7.101-0.155c-2.604-0.067-5.185-0.112-7.79-0.178
			c-0.845-0.023-1.668-0.044-2.514-0.044c-0.356,0-0.868-0.09-1.202,0.044c-2.025,0.845-4.072,1.713-6.098,2.559
			c-0.69,0.29-1.379,0.602-2.092,0.869c-1.358,0.489-2.426,0.623-3.806,0.601c-2.895-0.023-5.832-1.113-8.435-2.649
			c-3.139-1.846-5.832-4.451-7.99-7.366c-2.226-3.004-3.872-6.342-5.118-9.858c-1.18-3.338-1.914-6.855-1.826-10.416
			c0.157-6.32,3.518-11.795,7.523-16.469C442.865,97.132,440.751,94.995,439.461,96.464z"/>
	</g>
	<g enable-background="new    ">
		<path fill="#55C2C2" d="M272.279,233.266h1.269v11.752l12.841-11.752h1.625l-9.325,8.503l9.881,11.929h-1.58l-9.236-11.061
			l-4.228,3.85v7.211h-1.269v-20.432H272.279L272.279,233.266z"/>
		<path fill="#55C2C2" d="M289.794,233.266h1.268v20.409h-1.268V233.266z"/>
		<path fill="#55C2C2" d="M294.668,233.266h1.58l12.886,18.717h0.066v-18.717h1.269v20.409h-1.491l-12.975-18.872h-0.066v18.872
			h-1.269V233.266L294.668,233.266z"/>
		<path fill="#55C2C2" d="M314.052,233.266h6.699c1.825,0,3.36,0.291,4.562,0.869c1.201,0.578,2.181,1.336,2.892,2.293
			c0.736,0.957,1.225,2.047,1.536,3.249c0.29,1.224,0.445,2.47,0.445,3.783c0,1.446-0.178,2.804-0.555,4.05
			c-0.379,1.246-0.958,2.338-1.737,3.25c-0.778,0.912-1.758,1.624-2.96,2.158c-1.202,0.534-2.604,0.779-4.25,0.779h-6.633V233.266z
			 M320.795,252.584c0.957,0,1.914-0.156,2.871-0.445s1.825-0.801,2.626-1.49c0.779-0.689,1.424-1.624,1.891-2.804
			c0.49-1.181,0.734-2.649,0.734-4.407c0-1.379-0.133-2.582-0.422-3.584c-0.267-1.002-0.645-1.824-1.09-2.492
			c-0.446-0.668-0.957-1.201-1.536-1.602c-0.579-0.401-1.18-0.69-1.802-0.892c-0.624-0.2-1.247-0.354-1.848-0.421
			c-0.623-0.067-1.179-0.09-1.669-0.09h-5.23v18.248h5.475V252.584z"/>
		<path fill="#55C2C2" d="M333.103,233.266h13.732v1.092h-12.464v8.168h11.729v1.09h-11.729v8.969h12.597v1.091h-13.865V233.266
			L333.103,233.266z"/>
		<path fill="#55C2C2" d="M349.126,233.266h8.523c0.891,0,1.736,0.092,2.515,0.269c0.779,0.177,1.469,0.468,2.048,0.89
			c0.6,0.4,1.045,0.957,1.379,1.625c0.334,0.668,0.49,1.491,0.49,2.492c0,1.381-0.378,2.538-1.157,3.473
			c-0.779,0.936-1.848,1.534-3.228,1.757v0.067c0.935,0.111,1.67,0.356,2.226,0.735c0.535,0.377,0.957,0.845,1.224,1.401
			c0.268,0.557,0.445,1.156,0.512,1.826c0.067,0.666,0.112,1.334,0.112,2.002c0,0.401,0,0.801,0,1.18s0.022,0.734,0.065,1.068
			c0.045,0.334,0.112,0.645,0.179,0.934c0.088,0.291,0.2,0.535,0.356,0.713h-1.402c-0.267-0.467-0.423-1.024-0.445-1.668
			c-0.022-0.646-0.044-1.291-0.044-1.982c0-0.689-0.022-1.357-0.089-2.047c-0.067-0.667-0.244-1.291-0.534-1.824
			c-0.312-0.535-0.779-0.957-1.446-1.291c-0.668-0.334-1.58-0.49-2.782-0.49h-7.255v9.281h-1.269v-20.41H349.126L349.126,233.266z
			 M357.628,243.304c0.734,0,1.425-0.088,2.069-0.267c0.646-0.179,1.18-0.468,1.648-0.846c0.467-0.378,0.823-0.867,1.09-1.469
			c0.267-0.6,0.401-1.29,0.401-2.114c0-0.757-0.134-1.425-0.423-1.958c-0.289-0.535-0.667-0.979-1.134-1.336
			c-0.467-0.333-1.025-0.601-1.648-0.734c-0.623-0.156-1.291-0.223-1.98-0.223h-7.254v8.946H357.628L357.628,243.304z"/>
	</g>
	<g enable-background="new    ">
		<path fill="#F64B8D" d="M366.396,243.594c0-1.447,0.223-2.826,0.646-4.14c0.422-1.313,1.045-2.449,1.87-3.45
			c0.823-1,1.824-1.779,3.026-2.358c1.202-0.579,2.56-0.869,4.096-0.869c1.045,0,2.047,0.157,3.003,0.468
			c0.958,0.312,1.803,0.758,2.56,1.336c0.757,0.601,1.38,1.312,1.891,2.136c0.513,0.847,0.869,1.804,1.024,2.849h-1.202
			c-0.466-1.779-1.334-3.182-2.581-4.206c-1.246-1.001-2.804-1.513-4.695-1.513c-1.381,0-2.582,0.267-3.628,0.801
			s-1.937,1.246-2.626,2.137c-0.712,0.889-1.246,1.937-1.602,3.094c-0.357,1.179-0.534,2.403-0.534,3.67
			c0,1.293,0.177,2.516,0.534,3.673c0.356,1.157,0.867,2.159,1.58,3.027c0.69,0.867,1.558,1.536,2.626,2.048
			c1.046,0.512,2.27,0.756,3.695,0.756c1.224,0,2.314-0.2,3.294-0.602c0.979-0.399,1.803-0.956,2.47-1.69
			c0.668-0.734,1.179-1.603,1.536-2.626c0.333-1.024,0.489-2.158,0.422-3.406h-7.522v-1.088h8.612v10.014h-1.09v-4.318h-0.068
			c-0.245,0.734-0.622,1.425-1.112,2.027c-0.489,0.6-1.09,1.111-1.758,1.512c-0.667,0.401-1.424,0.734-2.248,0.957
			c-0.824,0.223-1.692,0.335-2.581,0.335c-1.537,0-2.916-0.268-4.096-0.825c-1.202-0.555-2.203-1.312-3.026-2.247
			c-0.824-0.957-1.447-2.069-1.87-3.36C366.596,246.442,366.396,245.062,366.396,243.594z"/>
		<path fill="#F64B8D" d="M388.318,233.266h13.73v1.092h-12.464v8.168h11.73v1.09h-11.73v8.969h12.597v1.091h-13.863V233.266
			L388.318,233.266z"/>
		<path fill="#F64B8D" d="M404.318,233.266h8.168c1.225,0,2.248,0.157,3.049,0.468c0.825,0.313,1.469,0.714,1.982,1.202
			c0.489,0.49,0.844,1.068,1.066,1.692c0.223,0.646,0.336,1.29,0.336,1.936c0,0.556-0.091,1.068-0.29,1.581
			c-0.201,0.489-0.468,0.935-0.823,1.312c-0.356,0.38-0.78,0.69-1.27,0.958c-0.49,0.268-1.024,0.422-1.625,0.489l0.067,0.067
			c0.134-0.021,0.445,0.043,0.935,0.178c0.49,0.133,1.023,0.378,1.558,0.756c0.535,0.379,1.024,0.891,1.448,1.536
			c0.422,0.667,0.645,1.491,0.645,2.536c0,0.936-0.179,1.76-0.513,2.472c-0.333,0.712-0.822,1.29-1.446,1.78
			c-0.623,0.489-1.357,0.846-2.248,1.09c-0.867,0.245-1.847,0.379-2.916,0.379h-8.166v-20.432H404.318L404.318,233.266z
			 M412.509,242.525c1.737,0,3.026-0.379,3.896-1.158c0.868-0.778,1.29-1.781,1.29-3.049c0-0.733-0.134-1.357-0.422-1.868
			c-0.29-0.513-0.668-0.913-1.135-1.224c-0.468-0.312-1.024-0.535-1.647-0.668c-0.624-0.135-1.27-0.201-1.959-0.201h-6.921v8.168
			H412.509L412.509,242.525z M412.509,252.584c1.825,0,3.271-0.378,4.296-1.157c1.045-0.778,1.557-1.935,1.557-3.472
			c0-0.867-0.177-1.603-0.533-2.158c-0.356-0.557-0.824-1.002-1.38-1.336c-0.556-0.333-1.201-0.557-1.892-0.668
			c-0.691-0.133-1.381-0.178-2.048-0.178h-6.921v8.969H412.509L412.509,252.584z"/>
		<path fill="#F64B8D" d="M428.398,233.266h1.381l8.057,20.409h-1.335l-2.582-6.544h-9.771l-2.604,6.544h-1.336L428.398,233.266z
			 M433.518,246.042l-4.383-11.551h-0.068l-4.54,11.551H433.518z"/>
		<path fill="#F64B8D" d="M439.282,233.266h8.522c0.891,0,1.737,0.092,2.516,0.269s1.469,0.468,2.047,0.89
			c0.602,0.4,1.047,0.957,1.38,1.625c0.335,0.668,0.49,1.491,0.49,2.492c0,1.381-0.379,2.538-1.157,3.473
			c-0.778,0.936-1.847,1.534-3.204,1.757v0.067c0.934,0.111,1.668,0.356,2.226,0.735c0.534,0.377,0.956,0.845,1.224,1.401
			s0.445,1.156,0.513,1.826c0.066,0.666,0.11,1.334,0.11,2.002c0,0.401,0,0.801,0,1.18s0.022,0.734,0.066,1.068
			c0.046,0.334,0.09,0.645,0.178,0.934c0.091,0.291,0.201,0.535,0.356,0.713h-1.401c-0.267-0.467-0.424-1.024-0.445-1.668
			c-0.022-0.646-0.045-1.291-0.045-1.982c0-0.689-0.021-1.357-0.089-2.047c-0.067-0.667-0.244-1.291-0.534-1.824
			c-0.311-0.535-0.779-0.957-1.446-1.291c-0.668-0.334-1.58-0.49-2.783-0.49h-7.255v9.281h-1.245v-20.41H439.282L439.282,233.266z
			 M447.806,243.304c0.735,0,1.424-0.088,2.07-0.267c0.645-0.179,1.18-0.468,1.646-0.846c0.468-0.378,0.824-0.867,1.09-1.469
			c0.269-0.6,0.402-1.29,0.402-2.114c0-0.757-0.134-1.425-0.424-1.958c-0.289-0.535-0.668-0.979-1.136-1.336
			c-0.466-0.333-1.022-0.601-1.668-0.734c-0.623-0.156-1.291-0.223-1.981-0.223h-7.255v8.946H447.806L447.806,243.304z"/>
		<path fill="#F64B8D" d="M457.286,233.266h13.731v1.092h-12.463v8.168h11.729v1.09h-11.729v8.969h12.619v1.091h-13.865v-20.409
			H457.286z"/>
		<path fill="#F64B8D" d="M473.311,233.266h1.58l12.886,18.717h0.066v-18.717h1.269v20.409h-1.491l-12.975-18.872h-0.066v18.872
			h-1.269V233.266z"/>
	</g>
</g>
<g id="arrow">
	<path fill="#E5E1E1" d="M362.821,408.333l16.049,16.919c0,0,0.704,0.714,1.173,0.714c0.511,0,1.175-0.714,1.175-0.714l16.05-16.919
		c0.502-0.527,0.502-1.386,0-1.913c-0.501-0.528-1.316-0.528-1.818,0l-15.406,16.238l-15.409-16.238
		c-0.503-0.528-1.314-0.528-1.817,0C362.318,406.947,362.318,407.806,362.821,408.333z"/>
</g>
</svg>
