<svg xmlns="http://www.w3.org/2000/svg" viewBox="0 0 768 400"><style>.a{fill:none;}.b{fill:#D9E3EC;}.c{fill:#004481;}.d{fill:#ED9234;}.e{fill:#FFF;}.f{fill:#0EC9C9;}.g{fill:#CCCECE;opacity:0.7;}.h{fill:#78BE4A;}.i{fill:#F5842B;}.j{fill:#00B7ED;}</style><path d="M606.3 94.2c-1.5-0.3-3.1-0.6-4.5-1 1.4 0.6 3 1 4.5 1H606.3z" class="a"/><path d="M562.2 77.3v-4.8h5.6c-10.8-6-23.5-9.5-37-9.5 -13.6 0-27.2 3.5-38.9 9.5h5.6l2.8 5.4c2.2-1.4 4.5-2.6 6.9-3.6v-1.8h4.7c5.7-1.8 11.9-2.8 18.8-2.8C542.2 69.7 552.9 72.5 562.2 77.3z" class="a"/><path d="M576.8 96.4c-2.3 0.9-5 1.3-7.8 1.3h-2c12.6 10.7 29.6 17.3 48.2 17.3 8.1 0 16.2-1.3 23.9-3.6 -2.4-1.5-4.7-3.4-6.6-5.5 -5.3 1.6-11.1 2.4-17.4 2.4C600.8 108.3 587.5 103.9 576.8 96.4z" class="a"/><path d="M572.7 93.3c-0.7-0.6-1.4-1.2-2.1-1.8l0 0c-1.1-1-2.2-1.9-3.3-2.8v5h2.8C571 93.7 571.8 93.6 572.7 93.3z" class="a"/><path d="M512 87.5c4.9-2.7 10.6-4.3 17.8-4.5 -0.5-0.9-0.8-1.9-0.8-3.3 0-1.3 0.3-2.5 0.7-3.4 -5.9 0.1-11.9 1-17.7 2.6V87.5z" class="a"/><path d="M536 76.6c-0.9 0.5-1.7 1.4-1.7 3 0 2.5 3.6 3 6.7 4.5 8 1.6 15.2 4.9 21.2 9.6v-8.4C554.6 80.4 545.6 77.4 536 76.6z" class="a"/><path d="M575.4 86.4c0.8 0.7 1.5 1.4 2.3 2 0.4-1 0.6-2.1 0.6-3.4 0-5.5-4.1-8.6-8.3-8.6h-2.8v3.8c2.9 1.9 5.6 3.9 8.2 6.2L575.4 86.4z" class="a"/><path d="M506.8 90.9c0.1-0.1 0.2-0.1 0.3-0.2V80.5c-1.6 0.6-3.1 1.2-4.7 1.8L506.8 90.9z" class="a"/><path d="M619.1 339.8c-0.2-0.2-0.5-0.3-0.8-0.4s-0.6-0.1-0.9-0.1c-0.3 0-0.7 0.1-1 0.2 -0.3 0.1-0.6 0.2-0.8 0.4 -0.2 0.2-0.4 0.4-0.5 0.6 -0.1 0.2-0.2 0.5-0.2 0.8l0 0.7h4.9V341.2c0-0.3-0.1-0.5-0.2-0.8C619.5 340.2 619.3 340 619.1 339.8z" class="a"/><path d="M588 339.8c-0.2-0.2-0.5-0.3-0.8-0.4 -0.3-0.1-0.6-0.1-0.9-0.1 -0.3 0-0.7 0.1-0.9 0.2 -0.3 0.1-0.6 0.2-0.8 0.4 -0.2 0.2-0.4 0.4-0.5 0.6 -0.1 0.2-0.2 0.5-0.2 0.8l0 2.8c0 0.3 0.1 0.5 0.2 0.8 0.1 0.2 0.3 0.4 0.5 0.6 0.2 0.2 0.5 0.3 0.8 0.4s0.6 0.1 0.9 0.1c0.3 0 0.7 0 1-0.1s0.6-0.2 0.8-0.4c0.2-0.2 0.4-0.4 0.5-0.6 0.1-0.2 0.2-0.5 0.2-0.8v-2.8c0-0.3-0.1-0.5-0.2-0.7C588.4 340.2 588.3 340 588 339.8z" class="a"/><path d="M541.2 339.8c-0.2-0.2-0.5-0.3-0.8-0.4 -0.3-0.1-0.6-0.1-0.9-0.1 -0.3 0-0.7 0.1-1 0.1s-0.6 0.2-0.8 0.4c-0.2 0.2-0.4 0.4-0.5 0.6 -0.1 0.2-0.2 0.5-0.2 0.8l0 0.7h4.9v-0.7c0-0.3-0.1-0.5-0.2-0.8C541.6 340.2 541.4 340 541.2 339.8z" class="a"/><path d="M665.3 339.8c-0.2-0.2-0.5-0.3-0.8-0.4 -0.3-0.1-0.6-0.1-0.9-0.1 -0.3 0-0.7 0.1-1 0.2 -0.3 0.1-0.6 0.2-0.8 0.4 -0.2 0.2-0.4 0.4-0.5 0.6 -0.1 0.2-0.2 0.5-0.2 0.8l0 2.8c0 0.3 0.1 0.5 0.2 0.8 0.1 0.2 0.3 0.4 0.5 0.6 0.2 0.2 0.5 0.3 0.8 0.4 0.3 0.1 0.6 0.2 0.9 0.2 0.3 0 0.6 0 0.9-0.1 0.3-0.1 0.5-0.2 0.8-0.4 0.2-0.2 0.4-0.4 0.5-0.6 0.1-0.2 0.2-0.5 0.2-0.7v-2.9c0-0.3-0.1-0.5-0.2-0.8C665.7 340.2 665.6 340 665.3 339.8z" class="a"/><path d="M653.1 339.8c-0.2-0.2-0.5-0.3-0.8-0.4 -0.3-0.1-0.6-0.1-1-0.1 -0.3 0-0.6 0.1-0.9 0.1 -0.3 0.1-0.6 0.2-0.8 0.4 -0.2 0.2-0.4 0.4-0.5 0.6 -0.1 0.2-0.2 0.5-0.2 0.8v2.8c0 0.3 0.1 0.5 0.2 0.8 0.1 0.2 0.3 0.4 0.5 0.6 0.2 0.2 0.5 0.3 0.8 0.4 0.3 0.1 0.6 0.2 1 0.2 0.3 0 0.6-0.1 0.9-0.1 0.3-0.1 0.6-0.2 0.8-0.4 0.2-0.2 0.4-0.4 0.5-0.6 0.1-0.2 0.2-0.5 0.2-0.8v-2.8c0-0.3-0.1-0.5-0.2-0.8C653.5 340.2 653.4 340 653.1 339.8z" class="a"/><path d="M643.7 339.8c-0.2-0.2-0.5-0.3-0.8-0.4 -0.3-0.1-0.6-0.1-0.9-0.1 -0.3 0-0.7 0.1-0.9 0.1s-0.6 0.2-0.8 0.4c-0.2 0.2-0.4 0.4-0.5 0.6 -0.1 0.2-0.2 0.5-0.2 0.8l0 0.7h4.9v-0.7c0-0.3-0.1-0.5-0.2-0.8C644.1 340.2 643.9 340 643.7 339.8z" class="a"/><path d="M496.2 78.9h-0.1v1.9c0.2-0.2 0.5-0.4 0.7-0.6L496.2 78.9z" class="a"/><path d="M614.7 94.9c-1.7 2.3-4.7 3.2-8.1 3.2 -2.7 0-4-0.4-6.5-1l0.4-4.3c-6.3-1.8-12.1-4.8-16.9-8.6 0 0.3 0 0.6 0 0.9 0 2.7-0.5 4.9-1.4 6.7 9.3 6.2 20.7 9.9 33.1 9.9 4.4 0 8.9-0.5 13.4-1.4 -1.1-2.1-2-4.3-2.6-6.6 -3.2 0.9-6.8 1.3-10.8 1.3C615.1 94.9 614.9 94.9 614.7 94.9z" class="a"/><path d="M491.8 72.5c11.7-6 25.3-9.5 38.9-9.5 13.6 0 26.3 3.5 37 9.5h1.3c7.5 0 14.1 2.5 14.5 11.7 4.9 3.8 10.6 6.8 16.9 8.6l0-0.2c0.4 0.2 0.8 0.4 1.2 0.6 1.5 0.4 3 0.7 4.5 1 1.9 0 4.5-1 4.5-3.3 0-1.7-1.4-2.6-3.2-3.3 -7.7-1.3-14.7-4.7-20.2-9.3l-0.1 0c-14.2-13.5-34.3-22-56.5-22 -32.4 0-56.1 18-67.7 43.4 5.7-11.1 15.9-20.4 28.2-26.9v-0.3H491.8z" class="b"/><path d="M614.7 94.9c0.2 0 0.4 0 0.6 0 4 0 7.6-0.5 10.8-1.3 -0.5-2-0.8-4.1-0.9-6.3 -3.3 0.5-6.5 0.9-9.5 0.9 0.2 0.7 0.3 1.4 0.3 2.3C616 92.3 615.5 93.8 614.7 94.9z" class="b"/><path d="M496.1 80.7v4.7c0.9-0.5 1.8-1 2.7-1.4l-2-3.9C496.6 80.4 496.3 80.5 496.1 80.7z" class="b"/><path d="M502.5 82.3c1.5-0.7 3.1-1.3 4.7-1.8v-6.2c-2.4 1-4.7 2.3-6.9 3.6L502.5 82.3z" class="b"/><path d="M570.6 91.5c0.7 0.6 1.4 1.2 2.1 1.8 2.2-0.7 4.2-2.4 5.1-4.8 -0.8-0.7-1.6-1.3-2.3-2l0 0c-2.5-2.3-5.3-4.3-8.2-6.2v8.5c1.1 0.9 2.3 1.8 3.3 2.8L570.6 91.5z" class="b"/><path d="M479.7 99.5c2.9-4.1 6.9-7.8 11.5-11V84.8C486.8 89.1 483 94 479.7 99.5z" class="b"/><path d="M562.2 77.3c-9.3-4.8-20-7.6-31.5-7.6 -6.9 0-13.2 1-18.8 2.8h0.1v6.5c5.8-1.6 11.8-2.5 17.7-2.6 1.4-3.1 4.7-4.3 8.1-4.3 2.2 0 4.2 0.3 6 0.9l-0.5 4.2c-1.6-0.7-3.4-1.1-5.1-1.1 -0.7 0-1.6 0.2-2.3 0.5 9.7 0.8 18.6 3.9 26.2 8.6V77.3z" class="b"/><path d="M582.2 91.8c-1.2 2.3-3.1 3.8-5.4 4.7 10.7 7.4 24 11.9 38.5 11.9 6.3 0 12.1-0.8 17.4-2.4 -1.5-1.7-2.9-3.6-4-5.7 -4.5 0.9-9 1.4-13.4 1.4C602.9 101.6 591.5 97.9 582.2 91.8z" class="b"/><path d="M507.1 91.3h0.1v-0.6c-0.1 0.1-0.2 0.1-0.3 0.2L507.1 91.3z" class="b"/><path d="M498 99.6c1.8-1.5 4.1-2.9 6.7-4.1l-0.9-1.8C501.8 95.4 499.9 97.4 498 99.6z" class="b"/><path d="M615.3 115c-18.6 0-35.6-6.6-48.2-17.3h-4.9v-4.1c-6-4.6-13.2-8-21.2-9.6 2.3 1.1 4.4 2.9 4.4 6.5 0 0.6-0.1 1.1-0.1 1.6 5 1.7 9.6 4.3 13.5 7.6l0.1 0c14.2 13.5 34.3 22 56.5 22 11.9 0 22.6-2.4 32-6.8 -2.9-0.7-5.6-1.9-8.1-3.4C631.5 113.7 623.4 115 615.3 115z" class="b"/><path d="M529.8 83c-7.2 0.1-12.9 1.7-17.8 4.5v5.1c6.2-1.9 13-3 18.7-3 3.2 0 6.3 0.3 9.3 1C539.7 86.9 532.2 87.5 529.8 83z" class="b"/><path d="M654.7 56.6c-16.3 0-29.6 13.2-29.6 29.6 0 0.4 0 0.8 0 1.2 0.1 2.2 0.4 4.3 0.9 6.3 0.6 2.3 1.5 4.5 2.6 6.6 1.1 2 2.4 3.9 4 5.7 1.9 2.1 4.1 4 6.6 5.5 2.5 1.5 5.2 2.7 8.1 3.4 2.4 0.6 4.9 0.9 7.4 0.9 16.3 0 29.6-13.2 29.6-29.6C684.3 69.9 671 56.6 654.7 56.6zM647.1 97.7l-9.1-11.7h-0.1v11.7h-5.1V72.5h5.1V83.3l9.1-10.8h6.2l-10.4 11.9 10.8 13.3H647.1z" class="c"/><path d="M662.5 45.8c7 0 14.2 5.2 19.4 10.3 5.2 5.2 10.1 14.3 10.1 21.3 1.5-9.9 1-17.7-6.3-25.1C679.3 46 671.2 45.6 662.5 45.8z" class="d"/><path d="M700.8 37.3c-10.7-10.7-25-13-39.6-12.1 13-0.7 26.3 6.3 35.9 15.9 13.5 13.5 18.6 35.6 11.7 53.2C717.5 74.3 716.3 52.8 700.8 37.3z" class="d"/><path d="M661.7 35.5c10.1-0.4 20.3 5.6 27.8 13.1 9.4 9.4 14.5 25 11.3 37.6 5-15.2 3.9-29.8-7.6-41.3C684.7 36.3 673.3 34.9 661.7 35.5z" class="d"/><polygon points="512 79 512 72.5 511.9 72.5 507.1 72.5 507.1 74.3 507.1 80.5 507.1 90.7 507.1 91.3 507.1 91.3 506.8 90.9 502.5 82.3 500.2 77.9 497.5 72.5 491.8 72.5 491.2 72.5 491.2 72.8 491.2 84.8 491.2 88.5 491.2 97.7 496.1 97.7 496.1 85.5 496.1 80.7 496.1 78.9 496.2 78.9 496.8 80.2 498.8 84 503.7 93.6 504.6 95.4 505.8 97.7 512 97.7 512 92.7 512 87.5 " class="c"/><path d="M541 84c-3.1-1.5-6.7-2-6.7-4.5 0-1.6 0.7-2.5 1.7-3 0.7-0.4 1.5-0.5 2.3-0.5 1.8 0 3.5 0.4 5.1 1.1l0.5-4.2c-1.8-0.6-3.9-0.9-6-0.9 -3.4 0-6.7 1.2-8.1 4.3 -0.4 1-0.7 2.1-0.7 3.4 0 1.3 0.3 2.4 0.8 3.3 2.4 4.5 10 3.9 10.3 7.6l0 0.2c0 2.3-2.6 3.3-4.5 3.3 -2 0-4-0.6-5.7-1.6l-0.5 4.5c2.5 0.6 3.7 1 6.5 1 4.6 0 8.5-1.7 9.3-6 0.1-0.5 0.1-1 0.1-1.6C545.3 86.9 543.3 85.2 541 84z" class="c"/><path d="M576.8 96.4c2.3-0.9 4.2-2.4 5.4-4.7 0.9-1.7 1.4-3.9 1.4-6.7 0-0.3 0-0.6 0-0.9 -0.4-9.2-7-11.7-14.5-11.7h-1.3 -5.6v4.8 7.9 8.4 4.1h4.9 2C571.9 97.7 574.6 97.4 576.8 96.4zM567.2 88.7V80.2v-3.8h2.8c4.2 0 8.3 3.1 8.3 8.6 0 1.3-0.2 2.4-0.6 3.4 -0.9 2.5-2.8 4.1-5.1 4.8 -0.8 0.3-1.7 0.4-2.6 0.4h-2.8V88.7z" class="c"/><path d="M610.7 90.9c0 2.3-2.6 3.2-4.5 3.3h0c-1.5 0-3.1-0.4-4.5-1 -0.4-0.2-0.8-0.4-1.2-0.6l0 0.2 -0.4 4.3c2.5 0.6 3.7 1 6.5 1 3.4 0 6.5-0.9 8.1-3.2 0.8-1.1 1.3-2.6 1.3-4.4 0-0.9-0.1-1.6-0.3-2.3 -1.8-5.9-10.7-4.8-10.7-8.7 0-2.7 2.2-3.5 4-3.5 1.8 0 3.5 0.4 5.1 1.1l0.5-4.2c-1.8-0.6-3.9-0.9-6-0.9 -4.4 0-8.8 2.1-8.8 7.7 0 5.4 4.5 6.5 7.8 7.8C609.3 88.3 610.7 89.2 610.7 90.9z" class="c"/><polygon points="653.2 72.5 647 72.5 637.9 83.3 637.9 72.5 632.9 72.5 632.9 97.7 637.9 97.7 637.9 86 638 86 647.1 97.7 653.7 97.7 642.9 84.4 " class="e"/><path d="M666.2 208c0-7.9-4.5-15.2-11.2-19.1l-53.4-30.9c-7.3-3.9-15.7-3.9-22.5 0l-54 30.9c-6.7 4.5-11.2 11.8-11.2 20.2v61.9c0 7.9 4.5 15.2 11.2 19.1l53.4 30.9c7.3 3.9 15.7 3.9 22.5 0l54-30.9c6.8-4.5 10.7-11.8 11.2-20.2V208zM635.5 226.7l0 0v0 31.1 0c0 2.6-0.5 5.1-1.6 7.5 -0.1 0.2-0.3 0.4-0.4 0.7 -0.3 0.6-0.7 1.3-1.1 1.9 -0.5 0.8-1.1 1.5-1.8 2.2l-0.1 0.1c-0.1 0.1-0.1 0.1-0.2 0.2 -0.4 0.4-0.7 0.8-1.1 1.1 -1.8 1.5-3.9 2.7-6.2 3.7l0 0c-0.3 0.1-0.6 0.3-0.9 0.4 -2.7 1-5.8 1.5-9.1 1.5 -1.7 0-3.4-0.2-5-0.5 -0.4-0.1-0.8-0.2-1.2-0.3 -0.9-0.2-1.9-0.4-2.8-0.7 -0.3-0.1-0.5-0.2-0.8-0.3l-0.2-0.1c-0.1-0.1-0.2-0.1-0.4-0.2 -1.3-0.6-2.5-1.2-3.6-1.9 -0.1-0.1-0.2-0.2-0.4-0.3 -0.6-0.4-1.2-0.8-1.8-1.3 -0.3-0.3-1.2-1.2-1.4-1.3 0 0-2.5-3.1-3.3-4.8 -1.1-2.3-1.7-4.8-1.7-7.5v0l0-5.5 0-0.2v-37.2c0-3.1-1.1-5.7-3.4-7.9s-5.3-3.3-9.1-3.3c-3 0-5.4 0.6-7.4 1.8 -0.7 0.5-1.2 0.9-1.8 1.4 -2.2 2.2-3.3 4.8-3.3 7.9l0 38.5v0 5.7 0c0 2.6-0.5 5.1-1.6 7.5 -0.1 0.2-1.1 2-1.5 2.5 -0.5 0.8-1.1 1.5-1.8 2.2l-0.1 0.1c-0.1 0.1-0.1 0.1-0.2 0.2 -0.3 0.4-0.7 0.8-1.1 1.1 -1.5 1.3-2.7 2.1-4.5 3.1 -0.9 0.5-1.8 0.9-2.7 1.1 -1 0.2-2.1 0.1-3-0.4 -1-0.5-1.6-1.3-2-2.3 -0.4-1.1-0.4-2.1-0.1-3.1 0.4-1 1-1.7 2-2.1 0 0 2.1-0.9 3.4-2.1 1.8-1.7 3.3-4.8 3.3-7.9l0-32.5v-11.7 0c0-2.6 0.5-5.1 1.6-7.5 0.1-0.2 0.3-0.4 0.4-0.6 0.3-0.6 0.7-1.3 1.1-1.9 0.5-0.8 1.1-1.5 1.8-2.2l0-0.1c0.1-0.1 0.2-0.1 0.3-0.2 0.4-0.4 0.7-0.8 1-1.1 1.8-1.5 3.9-2.7 6.2-3.7 0.3-0.1 0.6-0.3 0.9-0.4 2.7-1 5.8-1.5 9.1-1.5 1.7 0 3.4 0.2 5 0.5 0.4 0.1 0.8 0.2 1.2 0.3 0.9 0.2 1.9 0.4 2.8 0.7 0.3 0.1 0.5 0.2 0.8 0.4l0.2 0.1c0.1 0.1 0.2 0.1 0.4 0.2 1.3 0.6 2.5 1.2 3.6 1.9 0.1 0.1 0.2 0.2 0.4 0.3 0.6 0.4 1.2 0.8 1.8 1.3 0.3 0.3 0.5 0.6 0.8 0.8 0.2 0.2 0.4 0.3 0.6 0.5l0.1 0.3c1.3 1.4 2.4 2.9 3.2 4.6 1.1 2.4 1.7 4.8 1.7 7.5v0l0.1 42.9c0 3.1 1.1 5.7 3.4 7.9 2.3 2.2 5.3 3.3 9.1 3.3 3 0 5.4-0.6 7.4-1.8 0.7-0.4 1.3-0.9 1.8-1.4l0 0c2.2-2.2 3.3-4.8 3.3-7.9v-31.1l0 0v-1.4c0-1.1 0.5-2.1 1.5-2.9 1-0.8 2.2-1.2 3.5-1.2 1.4 0 2.6 0.4 3.6 1.2 1 0.8 1.4 1.7 1.4 2.9V226.7z" class="f"/><path d="M634.1 222.4c-1-0.8-2.2-1.2-3.6-1.2 -1.3 0-2.5 0.4-3.5 1.2 -1 0.8-1.5 1.7-1.5 2.9v1.4l0 0v31.1c0 3.1-1.1 5.7-3.3 7.9l0 0c-0.5 0.5-1.2 1-1.8 1.4 -2 1.2-4.4 1.8-7.4 1.8 -3.8 0-6.8-1.1-9.1-3.3 -2.3-2.2-3.4-4.8-3.4-7.9l-0.1-42.9v0c0-2.6-0.6-5.1-1.7-7.5 -0.8-1.7-1.9-3.2-3.2-4.6l-0.1-0.3c-0.2-0.2-0.4-0.3-0.6-0.5 -0.3-0.3-0.5-0.6-0.8-0.8 -0.5-0.5-1.2-0.9-1.8-1.3 -0.1-0.1-0.2-0.2-0.4-0.3 -1.1-0.7-2.3-1.4-3.6-1.9 -0.1-0.1-0.2-0.2-0.4-0.2l-0.2-0.1c-0.3-0.1-0.5-0.3-0.8-0.4 -0.9-0.3-1.9-0.5-2.8-0.7 -0.4-0.1-0.8-0.2-1.2-0.3 -1.6-0.3-3.3-0.5-5-0.5 -3.3 0-6.4 0.5-9.1 1.5 -0.3 0.1-0.6 0.3-0.9 0.4 -2.3 1-4.4 2.2-6.2 3.7 -0.4 0.3-0.7 0.8-1 1.1 -0.1 0.1-0.2 0.1-0.3 0.2l0 0.1c-0.6 0.7-1.3 1.4-1.8 2.2 -0.4 0.6-0.8 1.2-1.1 1.9 -0.1 0.2-0.3 0.4-0.4 0.6 -1.1 2.4-1.6 4.9-1.6 7.5v0 11.7l0 32.5c0 3.1-1.5 6.2-3.3 7.9 -1.2 1.1-3.4 2.1-3.4 2.1 -1 0.4-1.6 1.1-2 2.1 -0.4 1-0.3 2 0.1 3.1 0.4 1 1.1 1.8 2 2.3 1 0.5 2 0.6 3 0.4 0.9-0.2 1.8-0.6 2.7-1.1 1.8-1 3-1.8 4.5-3.1 0.4-0.3 0.7-0.8 1.1-1.1 0.1-0.1 0 0 0.2-0.2l0.1-0.1c0.7-0.7 1.3-1.4 1.8-2.2 0.4-0.6 1.4-2.3 1.5-2.5 1.1-2.4 1.7-4.9 1.7-7.5v0 -5.7 0l0-38.5c0-3.1 1.1-5.7 3.3-7.9 0.6-0.5 1.1-1 1.8-1.4 2-1.2 4.4-1.8 7.4-1.8 3.8 0 6.8 1.1 9.1 3.3s3.4 4.8 3.4 7.9v37.2l0 0.2 0 5.5v0c0 2.6 0.6 5.1 1.7 7.5 0.8 1.7 3.3 4.8 3.3 4.8 0.2 0.2 1.1 1.1 1.4 1.3 0.5 0.5 1.2 0.9 1.8 1.3 0.1 0.1 0.2 0.2 0.4 0.3 1.1 0.7 2.3 1.4 3.6 1.9 0.1 0.1 0.2 0.1 0.4 0.2l0.2 0.1c0.3 0.1 0.5 0.2 0.8 0.3 0.9 0.3 1.9 0.5 2.8 0.7 0.4 0.1 0.8 0.2 1.2 0.3 1.6 0.3 3.3 0.5 5 0.5 3.3 0 6.4-0.5 9.1-1.5 0.3-0.1 0.6-0.3 0.9-0.4l0 0c2.3-1 4.4-2.2 6.2-3.7 0.4-0.3 0.7-0.8 1.1-1.1 0.1-0.1 0.1-0.1 0.2-0.2l0.1-0.1c0.6-0.7 1.3-1.4 1.8-2.2 0.4-0.6 0.8-1.2 1.1-1.9 0.1-0.2 0.3-0.4 0.4-0.7 1.1-2.4 1.6-4.9 1.6-7.5v0 -31.1 0l0 0v-1.4C635.5 224.2 635 223.2 634.1 222.4z" class="e"/><path d="M542.5 338.8c-0.4-0.3-0.8-0.5-1.3-0.7 -0.5-0.2-1-0.3-1.6-0.3 -0.6 0-1.1 0.1-1.6 0.3 -0.5 0.2-0.9 0.4-1.3 0.7 -0.4 0.3-0.7 0.7-0.9 1.1 -0.2 0.4-0.3 0.9-0.3 1.3l0 2.8c0 0.5 0.1 0.9 0.3 1.3 0.2 0.4 0.5 0.8 0.9 1.1 0.4 0.3 0.8 0.5 1.3 0.7 0.5 0.2 1.1 0.3 1.6 0.3 0.9 0 1.6-0.2 2.3-0.6 0.7-0.4 1.2-0.9 1.5-1.5 0.1-0.1 0.1-0.2 0.1-0.3 0-0.2-0.1-0.4-0.3-0.5 -0.2-0.1-0.4-0.2-0.6-0.2 -0.2 0-0.4 0-0.5 0.1 -0.1 0.1-0.2 0.2-0.3 0.3l0 0.1c-0.2 0.4-0.5 0.6-0.9 0.8 -0.4 0.2-0.8 0.3-1.3 0.3 -0.3 0-0.6 0-0.9-0.1 -0.3-0.1-0.6-0.2-0.8-0.4 -0.2-0.2-0.4-0.4-0.5-0.6 -0.1-0.2-0.2-0.5-0.2-0.8v-0.6h5.7c0.2 0 0.5-0.1 0.6-0.2 0.2-0.1 0.3-0.3 0.3-0.5v-1.4c0-0.5-0.1-0.9-0.3-1.3C543.1 339.5 542.8 339.1 542.5 338.8zM541.9 341.9h-4.9l0-0.7c0-0.3 0.1-0.5 0.2-0.8 0.1-0.2 0.3-0.5 0.5-0.6 0.2-0.2 0.5-0.3 0.8-0.4s0.6-0.1 1-0.1c0.3 0 0.6 0.1 0.9 0.1 0.3 0.1 0.6 0.2 0.8 0.4 0.2 0.2 0.4 0.4 0.5 0.6 0.1 0.2 0.2 0.5 0.2 0.8V341.9z" class="f"/><path d="M558 337.8c-0.2 0-0.4 0.1-0.6 0.2 -0.2 0.1-0.3 0.3-0.3 0.5v5.5c0 0.5-0.2 1-0.6 1.4 -0.4 0.4-0.9 0.6-1.6 0.6 -0.7 0-1.2-0.2-1.6-0.6 -0.4-0.4-0.6-0.8-0.6-1.4v-5.5c0-0.2-0.1-0.4-0.3-0.5 -0.2-0.1-0.4-0.2-0.6-0.2 -0.2 0-0.4 0.1-0.6 0.2 -0.2 0.1-0.3 0.3-0.3 0.5v5.5c0 0.5-0.2 1-0.6 1.4 -0.4 0.4-0.9 0.6-1.6 0.6 -0.7 0-1.2-0.2-1.6-0.6 -0.4-0.4-0.6-0.8-0.6-1.4v-5.5c0-0.2-0.1-0.4-0.3-0.5 -0.2-0.1-0.4-0.2-0.6-0.2 -0.2 0-0.4 0.1-0.6 0.2 -0.2 0.1-0.3 0.3-0.3 0.5l0 5.5c0 0.5 0.1 0.9 0.3 1.3s0.5 0.8 0.8 1.1c0.3 0.3 0.8 0.5 1.3 0.7 0.5 0.2 1 0.3 1.6 0.3 0.6 0 1.2-0.1 1.8-0.3 0.5-0.2 1-0.5 1.3-0.9 0.4 0.4 0.8 0.7 1.3 0.9 0.5 0.2 1.1 0.3 1.8 0.3 0.6 0 1.1-0.1 1.6-0.3 0.5-0.2 0.9-0.4 1.3-0.7 0.4-0.3 0.6-0.7 0.8-1.1 0.2-0.4 0.3-0.9 0.3-1.3v-5.5c0-0.2-0.1-0.4-0.3-0.5C558.4 337.9 558.2 337.8 558 337.8z" class="f"/><path d="M565.1 334.8c-0.2 0-0.5 0.1-0.6 0.2 -0.2 0.1-0.3 0.3-0.3 0.5h0v0.5c0 0.2 0.1 0.4 0.3 0.5 0.2 0.1 0.4 0.2 0.6 0.2 0.2 0 0.5-0.1 0.6-0.2 0.2-0.1 0.3-0.3 0.3-0.5v-0.5c0-0.2-0.1-0.4-0.3-0.5C565.5 334.9 565.3 334.8 565.1 334.8z" class="f"/><path d="M565.1 337.8c-0.2 0-0.5 0.1-0.6 0.2 -0.2 0.1-0.3 0.3-0.3 0.5h0v8.1c0 0.2 0.1 0.4 0.3 0.5 0.2 0.1 0.4 0.2 0.6 0.2 0.2 0 0.5-0.1 0.6-0.2 0.2-0.1 0.3-0.3 0.3-0.5v-8.1c0-0.2-0.1-0.4-0.3-0.5C565.5 337.9 565.3 337.8 565.1 337.8z" class="f"/><path d="M580 338.8c-0.3-0.3-0.8-0.5-1.3-0.7 -0.5-0.2-1-0.3-1.6-0.3 -0.6 0-1.2 0.1-1.8 0.3 -0.5 0.2-1 0.5-1.3 0.9 -0.4-0.4-0.8-0.7-1.3-0.9 -0.5-0.2-1.1-0.3-1.8-0.3 -0.6 0-1.1 0.1-1.6 0.3 -0.5 0.2-0.9 0.4-1.3 0.7 -0.4 0.3-0.6 0.7-0.8 1.1 -0.2 0.4-0.3 0.9-0.3 1.3v5.5c0 0.2 0.1 0.4 0.3 0.5 0.2 0.1 0.4 0.2 0.6 0.2 0.2 0 0.4-0.1 0.6-0.2 0.2-0.1 0.3-0.3 0.3-0.5v-5.5c0-0.5 0.2-1 0.6-1.4 0.4-0.4 0.9-0.6 1.6-0.6 0.7 0 1.2 0.2 1.6 0.6 0.4 0.4 0.6 0.8 0.6 1.4v5.5c0 0.2 0.1 0.4 0.3 0.5 0.2 0.1 0.4 0.2 0.6 0.2 0.2 0 0.4-0.1 0.6-0.2 0.2-0.1 0.3-0.3 0.3-0.5v-5.5c0-0.5 0.2-1 0.6-1.4 0.4-0.4 0.9-0.6 1.6-0.6 0.7 0 1.2 0.2 1.6 0.6 0.4 0.4 0.6 0.8 0.6 1.4v5.5c0 0.2 0.1 0.4 0.3 0.5 0.2 0.1 0.4 0.2 0.6 0.2 0.2 0 0.4-0.1 0.6-0.2 0.2-0.1 0.3-0.3 0.3-0.5v-5.5c0-0.5-0.1-0.9-0.3-1.3C580.6 339.5 580.3 339.1 580 338.8z" class="f"/><path d="M589.3 338.8c-0.4-0.3-0.8-0.5-1.3-0.7 -0.5-0.2-1.1-0.3-1.6-0.3 -0.6 0-1.1 0.1-1.6 0.3 -0.5 0.2-0.9 0.4-1.3 0.7 -0.4 0.3-0.7 0.7-0.9 1.1 -0.2 0.4-0.3 0.9-0.3 1.3h0v3 5.8c0 0.2 0.1 0.4 0.3 0.5 0.2 0.1 0.4 0.2 0.6 0.2 0.2 0 0.4-0.1 0.6-0.2 0.2-0.1 0.3-0.3 0.3-0.5v-3.2c0.3 0.2 0.7 0.4 1.1 0.5 0.4 0.1 0.9 0.2 1.3 0.2 0.6 0 1.1-0.1 1.6-0.3 0.5-0.2 1-0.4 1.3-0.7 0.4-0.3 0.7-0.7 0.9-1.1 0.2-0.4 0.3-0.9 0.3-1.3v-2.8c0-0.5-0.1-0.9-0.3-1.3C590 339.5 589.7 339.1 589.3 338.8zM588.8 344c0 0.3-0.1 0.5-0.2 0.8 -0.1 0.2-0.3 0.4-0.5 0.6 -0.2 0.2-0.5 0.3-0.8 0.4s-0.6 0.1-0.9 0.1c-0.3 0-0.6 0-0.9-0.1s-0.6-0.2-0.8-0.4c-0.2-0.2-0.4-0.4-0.5-0.6 -0.1-0.2-0.2-0.5-0.2-0.8l0-2.8c0-0.3 0.1-0.5 0.2-0.7 0.1-0.2 0.3-0.4 0.5-0.6 0.2-0.2 0.5-0.3 0.8-0.4 0.3-0.1 0.6-0.1 1-0.1 0.3 0 0.6 0.1 0.9 0.2 0.3 0.1 0.6 0.2 0.8 0.4 0.2 0.2 0.4 0.4 0.5 0.6 0.1 0.2 0.2 0.5 0.2 0.8V344z" class="f"/><path d="M599.1 337.8c-0.2 0-0.5 0.1-0.6 0.2 -0.2 0.1-0.3 0.3-0.3 0.5v5.5c0 0.3-0.1 0.5-0.2 0.8 -0.1 0.2-0.3 0.4-0.5 0.6 -0.2 0.2-0.5 0.3-0.8 0.4 -0.3 0.1-0.6 0.1-0.9 0.1 -0.3 0-0.7 0-1-0.1 -0.3-0.1-0.6-0.2-0.8-0.4 -0.2-0.2-0.4-0.4-0.5-0.6 -0.1-0.2-0.2-0.5-0.2-0.8v-5.5c0-0.2-0.1-0.4-0.3-0.5 -0.2-0.1-0.4-0.2-0.6-0.2 -0.2 0-0.5 0.1-0.6 0.2 -0.2 0.1-0.3 0.3-0.3 0.5h0v5.5c0 0.5 0.1 0.9 0.3 1.3 0.2 0.4 0.5 0.8 0.9 1.1 0.4 0.3 0.8 0.5 1.3 0.7 0.5 0.2 1 0.3 1.6 0.3 0.6 0 1.1-0.1 1.6-0.3 0.5-0.2 1-0.4 1.3-0.7 0.4-0.3 0.7-0.7 0.9-1.1 0.2-0.4 0.3-0.9 0.3-1.3v-5.5c0-0.2-0.1-0.4-0.3-0.5C599.5 337.9 599.3 337.8 599.1 337.8z" class="f"/><path d="M601.9 335c-0.2 0-0.5 0.1-0.6 0.2 -0.2 0.1-0.3 0.3-0.3 0.5v10.9c0 0.2 0.1 0.4 0.3 0.5 0.2 0.1 0.4 0.2 0.6 0.2 0.2 0 0.5-0.1 0.6-0.2 0.2-0.1 0.3-0.3 0.3-0.5v-10.9c0-0.2-0.1-0.4-0.3-0.5C602.3 335.1 602.1 335 601.9 335z" class="f"/><path d="M610.9 342.5c-0.4-0.2-0.8-0.4-1.3-0.5 -0.5-0.1-1-0.2-1.6-0.2 -0.7 0-1.2-0.1-1.6-0.3 -0.4-0.2-0.6-0.5-0.6-1 0-0.3 0.2-0.6 0.6-0.9 0.4-0.2 0.9-0.3 1.6-0.3 0.5 0 0.9 0.1 1.2 0.2 0.3 0.1 0.6 0.3 0.9 0.6 0.2 0.2 0.4 0.3 0.7 0.3 0.2 0 0.4-0.1 0.6-0.2 0.2-0.1 0.2-0.3 0.2-0.5 0-0.1-0.1-0.3-0.2-0.4 -0.3-0.3-0.6-0.6-1-0.8 -0.4-0.2-0.8-0.3-1.1-0.4 -0.4-0.1-0.9-0.2-1.3-0.2 -0.6 0-1.1 0.1-1.6 0.2 -0.5 0.1-0.9 0.3-1.3 0.5 -0.3 0.2-0.6 0.5-0.8 0.8 -0.2 0.3-0.3 0.7-0.3 1.1 0 0.5 0.1 0.9 0.3 1.3 0.2 0.3 0.5 0.6 0.8 0.8 0.3 0.2 0.8 0.4 1.3 0.5s1 0.1 1.6 0.1c0.7 0 1.3 0.1 1.7 0.3s0.7 0.6 0.7 1.1c0 0.3-0.1 0.5-0.2 0.7 -0.1 0.2-0.3 0.3-0.5 0.4 -0.2 0.1-0.5 0.2-0.8 0.2 -0.3 0-0.6 0.1-0.9 0.1 -0.5 0-1-0.1-1.5-0.3 -0.5-0.2-0.8-0.5-1-0.9 -0.1-0.1-0.2-0.2-0.3-0.3 -0.1-0.1-0.3-0.1-0.5-0.1 -0.3 0-0.5 0.1-0.6 0.2 -0.2 0.1-0.2 0.3-0.2 0.5l0.1 0.3c0.3 0.5 0.6 0.9 1 1.2 0.4 0.3 0.8 0.5 1.2 0.6 0.4 0.1 0.8 0.2 1.1 0.3 0.3 0 0.6 0 0.7 0 0.6 0 1.1-0.1 1.6-0.2 0.5-0.1 1-0.3 1.4-0.5 0.4-0.2 0.7-0.5 0.9-0.9 0.2-0.4 0.3-0.8 0.3-1.2 0-0.5-0.1-0.9-0.3-1.2C611.6 343 611.3 342.7 610.9 342.5z" class="f"/><path d="M620.4 338.8c-0.4-0.3-0.8-0.5-1.3-0.7 -0.5-0.2-1.1-0.3-1.6-0.3 -0.6 0-1.1 0.1-1.6 0.3 -0.5 0.2-0.9 0.4-1.3 0.7 -0.4 0.3-0.7 0.7-0.9 1.1 -0.2 0.4-0.3 0.9-0.3 1.3V344c0 0.5 0.1 0.9 0.3 1.3 0.2 0.4 0.5 0.8 0.9 1.1 0.4 0.3 0.8 0.5 1.3 0.7 0.5 0.2 1.1 0.3 1.6 0.3 0.9 0 1.6-0.2 2.3-0.6 0.7-0.4 1.2-0.9 1.5-1.5 0.1-0.1 0.1-0.2 0.1-0.3 0-0.2-0.1-0.4-0.3-0.5 -0.2-0.1-0.4-0.2-0.6-0.2 -0.2 0-0.4 0-0.5 0.1 -0.1 0.1-0.3 0.2-0.3 0.3l0 0.1c-0.2 0.4-0.5 0.6-0.9 0.8 -0.4 0.2-0.8 0.3-1.3 0.3 -0.3 0-0.6 0-0.9-0.1 -0.3-0.1-0.6-0.2-0.8-0.4 -0.2-0.2-0.4-0.4-0.5-0.6 -0.1-0.2-0.2-0.5-0.2-0.8v-0.6h5.7c0.2 0 0.5-0.1 0.6-0.2 0.2-0.1 0.3-0.3 0.3-0.5v-1.4c0-0.5-0.1-0.9-0.3-1.3C621 339.5 620.7 339.1 620.4 338.8zM619.8 341.9h-4.9l0-0.7c0-0.3 0.1-0.5 0.2-0.8 0.1-0.2 0.3-0.4 0.5-0.6 0.2-0.2 0.5-0.3 0.8-0.4 0.3-0.1 0.6-0.1 1-0.1 0.3 0 0.6 0.1 0.9 0.2s0.6 0.2 0.8 0.4c0.2 0.2 0.4 0.4 0.5 0.6 0.1 0.2 0.2 0.5 0.2 0.8V341.9z" class="f"/><path d="M635.6 338.8c-0.3-0.3-0.8-0.5-1.3-0.7 -0.5-0.2-1-0.3-1.6-0.3 -0.6 0-1.2 0.1-1.8 0.3 -0.5 0.2-1 0.5-1.3 0.9 -0.4-0.4-0.8-0.7-1.3-0.9 -0.5-0.2-1.1-0.3-1.8-0.3 -0.6 0-1.1 0.1-1.6 0.3 -0.5 0.2-0.9 0.4-1.3 0.7 -0.4 0.3-0.6 0.7-0.8 1.1 -0.2 0.4-0.3 0.9-0.3 1.3h0v5.5c0 0.2 0.1 0.4 0.3 0.5 0.2 0.1 0.4 0.2 0.6 0.2 0.2 0 0.4-0.1 0.6-0.2 0.2-0.1 0.3-0.3 0.3-0.5v-5.5c0-0.5 0.2-1 0.6-1.4 0.4-0.4 0.9-0.6 1.6-0.6 0.7 0 1.2 0.2 1.6 0.6 0.4 0.4 0.6 0.8 0.6 1.4v5.5c0 0.2 0.1 0.4 0.3 0.5 0.2 0.1 0.4 0.2 0.6 0.2 0.2 0 0.4-0.1 0.6-0.2 0.2-0.1 0.3-0.3 0.3-0.5v-5.5c0-0.5 0.2-1 0.6-1.4 0.4-0.4 0.9-0.6 1.6-0.6 0.7 0 1.2 0.2 1.6 0.6 0.4 0.4 0.6 0.8 0.6 1.4v5.5c0 0.2 0.1 0.4 0.3 0.5 0.2 0.1 0.4 0.2 0.6 0.2 0.2 0 0.4-0.1 0.6-0.2 0.2-0.1 0.3-0.3 0.3-0.5v-5.5c0-0.5-0.1-0.9-0.3-1.3C636.3 339.5 636 339.1 635.6 338.8z" class="g"/><path d="M644.9 338.8c-0.4-0.3-0.8-0.5-1.3-0.7 -0.5-0.2-1.1-0.3-1.6-0.3 -0.6 0-1.1 0.1-1.6 0.3 -0.5 0.2-0.9 0.4-1.3 0.7 -0.4 0.3-0.7 0.7-0.9 1.1 -0.2 0.4-0.3 0.9-0.3 1.3h0v2.8c0 0.5 0.1 0.9 0.3 1.3 0.2 0.4 0.5 0.8 0.9 1.1 0.4 0.3 0.8 0.5 1.3 0.7 0.5 0.2 1.1 0.3 1.6 0.3 0.9 0 1.6-0.2 2.3-0.6 0.7-0.4 1.2-0.9 1.5-1.5 0.1-0.1 0.1-0.2 0.1-0.3 0-0.2-0.1-0.4-0.3-0.5 -0.2-0.1-0.4-0.2-0.6-0.2 -0.2 0-0.4 0-0.5 0.1 -0.1 0.1-0.3 0.2-0.3 0.3l0 0.1c-0.2 0.4-0.5 0.6-0.9 0.8s-0.8 0.3-1.3 0.3c-0.3 0-0.6 0-0.9-0.1 -0.3-0.1-0.6-0.2-0.8-0.4 -0.2-0.2-0.4-0.4-0.5-0.6 -0.1-0.2-0.2-0.5-0.2-0.8v-0.6h5.8c0.2 0 0.5-0.1 0.6-0.2 0.2-0.1 0.3-0.3 0.3-0.5v-1.4c0-0.5-0.1-0.9-0.3-1.3C645.6 339.5 645.3 339.1 644.9 338.8zM644.4 341.9h-4.9l0-0.7c0-0.3 0.1-0.5 0.2-0.8 0.1-0.2 0.3-0.5 0.5-0.6 0.2-0.2 0.5-0.3 0.8-0.4s0.6-0.1 1-0.1c0.3 0 0.6 0.1 0.9 0.1 0.3 0.1 0.6 0.2 0.8 0.4 0.2 0.2 0.4 0.4 0.5 0.6 0.1 0.2 0.2 0.5 0.2 0.8V341.9z" class="g"/><path d="M654.7 335c-0.2 0-0.5 0.1-0.6 0.2 -0.2 0.1-0.3 0.3-0.3 0.5l0 2.7c-0.4-0.2-0.7-0.4-1.1-0.5 -0.4-0.1-0.8-0.2-1.3-0.2 -0.6 0-1.1 0.1-1.6 0.3 -0.5 0.2-1 0.4-1.3 0.7 -0.4 0.3-0.7 0.7-0.9 1.1 -0.2 0.4-0.3 0.9-0.3 1.3v2.8c0 0.5 0.1 0.9 0.3 1.3 0.2 0.4 0.5 0.8 0.9 1.1 0.4 0.3 0.8 0.5 1.3 0.7 0.5 0.2 1 0.3 1.6 0.3 0.6 0 1.1-0.1 1.6-0.3 0.5-0.2 1-0.4 1.3-0.7 0.4-0.3 0.7-0.7 0.9-1.1 0.2-0.4 0.3-0.9 0.3-1.3v-8.3c0-0.2-0.1-0.4-0.3-0.5C655.2 335.1 655 335 654.7 335zM653.9 344c0 0.3-0.1 0.5-0.2 0.8 -0.1 0.2-0.3 0.4-0.5 0.6 -0.2 0.2-0.5 0.3-0.8 0.4 -0.3 0.1-0.6 0.2-0.9 0.2 -0.3 0-0.7-0.1-0.9-0.1 -0.3-0.1-0.6-0.2-0.8-0.4 -0.2-0.2-0.4-0.4-0.5-0.6 -0.1-0.2-0.2-0.5-0.2-0.8v-2.8c0-0.3 0.1-0.5 0.2-0.8 0.1-0.2 0.3-0.5 0.5-0.6 0.2-0.2 0.5-0.3 0.8-0.4 0.3-0.1 0.6-0.1 0.9-0.1 0.3 0 0.7 0.1 1 0.1 0.3 0.1 0.6 0.2 0.8 0.4 0.2 0.2 0.4 0.4 0.5 0.6 0.1 0.2 0.2 0.5 0.2 0.8V344z" class="g"/><path d="M657.5 334.8c-0.2 0-0.5 0.1-0.6 0.2 -0.2 0.1-0.3 0.3-0.3 0.5v0.5c0 0.2 0.1 0.4 0.3 0.5 0.2 0.1 0.4 0.2 0.6 0.2 0.2 0 0.5-0.1 0.6-0.2 0.2-0.1 0.3-0.3 0.3-0.5v-0.5c0-0.2-0.1-0.4-0.3-0.5C657.9 334.9 657.7 334.8 657.5 334.8z" class="g"/><path d="M657.5 337.8c-0.2 0-0.5 0.1-0.6 0.2 -0.2 0.1-0.3 0.3-0.3 0.5v8.1c0 0.2 0.1 0.4 0.3 0.5 0.2 0.1 0.4 0.2 0.6 0.2 0.2 0 0.5-0.1 0.6-0.2 0.2-0.1 0.3-0.3 0.3-0.5v-8.1c0-0.2-0.1-0.4-0.3-0.5C657.9 337.9 657.7 337.8 657.5 337.8z" class="g"/><path d="M666.6 338.8c-0.4-0.3-0.8-0.5-1.3-0.7 -0.5-0.2-1.1-0.3-1.6-0.3 -0.6 0-1.1 0.1-1.6 0.3 -0.5 0.2-0.9 0.4-1.3 0.7 -0.4 0.3-0.7 0.7-0.9 1.1 -0.2 0.4-0.3 0.9-0.3 1.3l0 2.8c0 0.5 0.1 0.9 0.3 1.3 0.2 0.4 0.5 0.8 0.9 1.1 0.4 0.3 0.8 0.5 1.3 0.7 0.5 0.2 1.1 0.3 1.6 0.3 0.9 0 1.7-0.2 2.5-0.6 0 0.2 0.1 0.3 0.3 0.4 0.2 0.1 0.4 0.2 0.6 0.2 0.2 0 0.4-0.1 0.6-0.2 0.2-0.1 0.3-0.3 0.3-0.5v-5.4c0-0.5-0.1-0.9-0.3-1.3C667.3 339.5 667 339.1 666.6 338.8zM666.1 344.1c0 0.3-0.1 0.5-0.2 0.7 -0.1 0.2-0.3 0.4-0.5 0.6 -0.2 0.2-0.5 0.3-0.8 0.4 -0.3 0.1-0.6 0.1-0.9 0.1 -0.3 0-0.6-0.1-0.9-0.1 -0.3-0.1-0.6-0.2-0.8-0.4 -0.2-0.2-0.4-0.4-0.5-0.6 -0.1-0.2-0.2-0.5-0.2-0.8l0-2.8c0-0.3 0.1-0.5 0.2-0.8 0.1-0.2 0.3-0.4 0.5-0.6 0.2-0.2 0.5-0.3 0.8-0.4 0.3-0.1 0.6-0.1 1-0.1 0.3 0 0.6 0.1 0.9 0.2 0.3 0.1 0.6 0.2 0.8 0.4 0.2 0.2 0.4 0.4 0.5 0.6 0.1 0.2 0.2 0.5 0.2 0.8V344.1z" class="g"/><path d="M562.4 341.3h-1.8c-0.2 0-0.4 0.1-0.5 0.3 -0.1 0.2-0.2 0.4-0.2 0.6 0 0.2 0.1 0.5 0.2 0.6s0.3 0.3 0.5 0.3h1.8c0.2 0 0.4-0.1 0.5-0.3 0.1-0.2 0.2-0.4 0.2-0.6 0-0.2-0.1-0.5-0.2-0.6C562.8 341.4 562.6 341.3 562.4 341.3z" class="f"/><path d="M533.4 337.8c-0.2 0-0.4 0.1-0.6 0.2 -0.2 0.1-0.3 0.3-0.3 0.5v0.2l0 0v5.4c0 0.5-0.2 1-0.6 1.4v0c-0.1 0.1-0.2 0.2-0.3 0.2 -0.3 0.2-0.8 0.3-1.3 0.3 -0.6 0-1.2-0.2-1.6-0.6 -0.4-0.4-0.6-0.8-0.6-1.4v-5.4l0 0v-2 0c0-0.5-0.1-0.9-0.3-1.3 -0.1-0.3-0.3-0.5-0.5-0.8l0 0 -0.1-0.1 -0.1-0.1c-0.1-0.1-0.2-0.1-0.3-0.2l-0.1 0c-0.2-0.1-0.4-0.2-0.6-0.3l-0.1 0 0 0 -0.1-0.1c-0.2-0.1-0.3-0.1-0.5-0.1l-0.2-0.1c-0.3 0-0.6-0.1-0.9-0.1 -0.6 0-1.1 0.1-1.6 0.3l-0.2 0.1c-0.4 0.2-0.8 0.4-1.1 0.6l-0.2 0.2 0 0 0 0c-0.1 0.1-0.2 0.2-0.3 0.4 -0.1 0.1-0.1 0.2-0.2 0.3l-0.1 0.1c-0.2 0.4-0.3 0.8-0.3 1.3v0 2l0 5.6c0 0.5-0.3 1.1-0.6 1.4 -0.2 0.2-0.6 0.4-0.6 0.4 -0.2 0.1-0.3 0.2-0.3 0.4 -0.1 0.2-0.1 0.4 0 0.5 0.1 0.2 0.2 0.3 0.4 0.4 0.2 0.1 0.3 0.1 0.5 0.1 0.2 0 0.3-0.1 0.5-0.2 0.3-0.2 0.5-0.3 0.8-0.5l0.2-0.2 0 0 0 0c0.1-0.1 0.2-0.2 0.3-0.4 0.1-0.1 0.2-0.4 0.3-0.4 0.2-0.4 0.3-0.8 0.3-1.3v-1 0l0-6.6c0-0.5 0.2-1 0.6-1.4v0c0.1-0.1 0.2-0.2 0.3-0.2 0.3-0.2 0.8-0.3 1.3-0.3 0.7 0 1.2 0.2 1.6 0.6 0.4 0.4 0.6 0.8 0.6 1.4v6.4l0 0v1 0c0 0.5 0.1 0.9 0.3 1.3 0.1 0.3 0.6 0.8 0.6 0.8l0.2 0.2c0.1 0.1 0.2 0.1 0.3 0.2l0.1 0c0.2 0.1 0.4 0.2 0.6 0.3l0.1 0 0 0 0.1 0.1c0.2 0.1 0.3 0.1 0.5 0.1l0.2 0.1c0.3 0.1 0.6 0.1 0.9 0.1 0.6 0 1.1-0.1 1.6-0.3l0.2-0.1 0 0c0.4-0.2 0.8-0.4 1.1-0.6l0.2-0.2 0 0 0 0c0.1-0.1 0.2-0.2 0.3-0.4 0.1-0.1 0.1-0.2 0.2-0.3l0.1-0.1c0.2-0.4 0.3-0.8 0.3-1.3v0 -5.4 0l0 0v-0.2c0-0.2-0.1-0.4-0.2-0.5C533.9 337.9 533.6 337.8 533.4 337.8z" class="f"/><path d="M204.6 251c-1.6 0.4-2.3 1.8-2 3.2 0.3 1.5 1.6 2.4 3.2 2.1 1.6-0.4 2.3-1.8 2-3.2C207.4 251.6 206.1 250.6 204.6 251z" class="e"/><path d="M202.7 134c0.3 1.2 1.3 1.5 2.6 1.2 1.9-0.4 2.6-2 2.3-3.6l-0.1-0.6 -1.6 0.4C203.6 131.8 202.4 132.7 202.7 134z" class="e"/><path d="M326.4 223.8c-1.9 0.4-2 2.3-1.9 2.6l4.6-1C328.8 224.3 327.6 223.5 326.4 223.8z" class="e"/><path d="M119.9 252.4c0 0 1.6 7.3 3.2 7.3l0.2 0c-0.2-2.1-1.5-7.3-1.5-7.3L119.9 252.4z" class="e"/><path d="M120.7 245.5l-0.1 0c-1.2 0-0.9 5.2-0.9 5.2l2.2 0L120.7 245.5z" class="e"/><path d="M213.6 131.6c0.3 1.2 1.3 1.5 2.6 1.2 1.9-0.4 2.6-2 2.3-3.6l-0.1-0.6 -1.6 0.4C214.5 129.4 213.3 130.3 213.6 131.6z" class="e"/><polygon points="107.8 228.4 108.5 230.6 119.5 226.7 121.3 223.3 " class="e"/><path d="M254.8 239.8c-1.8 0.4-2 2.3-1.9 2.6l4.6-1C257.3 240.2 256 239.5 254.8 239.8z" class="e"/><path d="M286.4 232.7c-1.6 0.4-2.3 1.8-2 3.2 0.3 1.5 1.6 2.4 3.2 2.1 1.5-0.3 2.5-1.8 2.1-3.3C289.3 233.3 287.9 232.4 286.4 232.7z" class="e"/><path d="M307.4 230.8l-0.9 0.2c-1.4 0.3-2.7 1-2.5 2.1 0.2 0.8 1 1 1.7 0.9 1.8-0.4 2-1.7 1.8-2.7L307.4 230.8z" class="e"/><path d="M313.2 226.7c-1.5 0.3-2.4 1.8-2.1 3.3 0.3 1.5 1.8 2.4 3.3 2.1 1.6-0.4 2.3-1.8 2-3.2C316.1 227.4 314.8 226.4 313.2 226.7z" class="e"/><path d="M246.3 241.6c-1.4 0.3-2.3 1.7-2 3.1 0.3 1.4 1.7 2.3 3.1 2 1.4-0.3 2.3-1.7 2-3.2C249.2 242.2 247.8 241.3 246.3 241.6z" class="e"/><path d="M229.4 245.4c-1.8 0.4-2 2.3-1.9 2.6l4.6-1C231.9 245.9 230.7 245.1 229.4 245.4z" class="e"/><path d="M121.4 268.8l0.4-2.4 1.5-1.4 -3.1-2.4C120.3 263.2 121.4 268.8 121.4 268.8z" class="e"/><path d="M272.8 238.5l-0.9 0.2c-1.4 0.3-2.7 1-2.5 2.1 0.2 0.8 1 1 1.7 0.9 1.8-0.4 2-1.7 1.8-2.7L272.8 238.5z" class="e"/><path d="M196.1 252.8c-1.6 0.4-2.3 1.8-2 3.2 0.3 1.5 1.6 2.4 3.2 2.1 1.6-0.4 2.3-1.8 2-3.2C198.9 253.5 197.6 252.5 196.1 252.8z" class="e"/><polygon points="137.9 252.5 141 251.1 141.6 249.7 137.2 250.7 " class="e"/><polygon points="139.6 254.4 138.7 255.6 139 257.1 140.8 252.6 138.8 253.4 " class="e"/><polygon points="141.7 263.3 146.6 260.7 144.2 253.3 " class="e"/><path d="M147.9 186.6c0.2 0 0.4 0 0.5 0.1 -0.1-0.7 0-3.4 0.2-6.5 -0.8-0.6-2.6-1.9-2.6-1.9 -0.2 0.7-0.3 0.9-0.8 1.6 -0.1 0.1 0 0.1 0.1 0.1l0.2 0 0.2 0c0.1 0 0.2 0 0.2 0.2 -0.3 1.4-0.6 2.7-1.1 3.7 -0.4 0.9-0.3 2.2-1.6 2.3 -1.4 1.2-2.8 4.5-2.5 4.6C142.2 189.7 146.1 186.6 147.9 186.6z" class="e"/><path d="M162.3 136.8c-2.1 0.5-3.1 2.4-2.7 4.4 0.4 2 2.3 3.2 4.3 2.8 2.3-0.5 3.2-2.5 2.7-4.4C166.2 137.5 164.4 136.4 162.3 136.8z" class="e"/><polygon points="146.2 249.6 149.4 248.2 146.1 248.9 " class="e"/><path d="M147.3 241.2l-1.9-1c0.1 0.3 0.2 1.5 0.2 1.5L147.3 241.2z" class="e"/><path d="M141 241.2l-2.1 0.8 -2.7 3.7c0.3-0.1 5.1-2.2 5.1-2.2L141 241.2z" class="e"/><polygon points="145.6 246.2 149.3 244.9 149.6 243.1 145.6 244.7 " class="e"/><path d="M149.1 238.5l0.1 0 0-1.3 -1.6 1.1C147.8 238.3 148.8 238.4 149.1 238.5z" class="e"/><polygon points="146.6 250.6 149.2 259.6 150 259.1 149.6 257.8 151 255 149.6 249.4 " class="e"/><path d="M141.4 246.4l-4.9 1.4c0.1 0.3 0 0.9 0 0.9l4.9-1.5L141.4 246.4z" class="e"/><path d="M151.9 227.2c-0.1-0.3-1.2-1.7-1.2-1.7s-0.4-1.8 0.6-1.8l0.1 0c1.3 1 1.7 1.9 1.7 1.9s1-3 4.8-3c0.2 0 0.5 0 0.7 0l-2.3-1.1c0 0-0.8-0.3-1.8-0.3 -1.4 0-3.3 0.5-4.5 2.7 0.2 1.7 1.1 5.3 1.1 5.3S151.4 227.3 151.9 227.2z" class="e"/><path d="M155.6 261.4l-4.1 1.9c0 0 4.6 4.8 7.4 4.8 0.5 0 1-0.2 1.4-0.6l-0.5-2L155.6 261.4z" class="e"/><path d="M159.6 225l-0.2 0c-5.9 0.9-7.2 11.9-7.2 11.9l1.9 6.6 2.9-0.4 0-0.3c0.2-0.9 0.6-1.5 1.2-1.6 0.1 0 0.2 0 0.3 0 1 0 2.1 1.3 2.5 3 0.4 1.9-0.1 3.6-1.2 3.9l-0.3 0c-0.6 0-1.1-0.4-1.6-1l-0.3-0.3c-0.1-0.3-0.2-0.4-0.6-0.4 -0.4 0-0.9 0.1-1.9 0.3 -0.7 0.8 0.8 6.1 1.9 9.9 1.2-0.4 3.7-1.3 4.6-1.7 0.5 0.3 0 3.9 0 3.9l-3.5 1.5c0 0 0.9 2.4 3.4 2.4 0.9 0 1.9-0.3 3.2-1.1C175.3 250.1 164 225 159.6 225z" class="e"/><path d="M252.2 124.8c2.1-0.5 3.2-2.4 2.7-4.5 -0.5-2.1-2.2-3.4-4.3-2.9 -2.1 0.5-3.2 2.4-2.7 4.5C248.3 124 250 125.3 252.2 124.8z" class="e"/><path d="M205.2 106.6c-0.4-1.7-1.8-2.5-3.6-2.1s-2.8 1.8-2.6 3.5L205.2 106.6z" class="e"/><path d="M265.1 122c2.1-0.5 3.2-2.4 2.7-4.5 -0.5-2.1-2.2-3.4-4.3-2.9 -2.1 0.5-3.2 2.4-2.7 4.5C261.2 121.1 262.9 122.4 265.1 122z" class="e"/><path d="M277.6 119.2c2.1-0.5 3.2-2.4 2.7-4.5 -0.5-2.1-2.2-3.4-4.3-2.9 -2.1 0.5-3.2 2.4-2.7 4.5C273.7 118.4 275.4 119.7 277.6 119.2z" class="e"/><path d="M178.1 117.4c2.1-0.5 3.2-2.4 2.7-4.4 -0.5-2.1-2.2-3.4-4.3-2.9 -2.1 0.5-3.2 2.4-2.7 4.5C174.3 116.5 176 117.8 178.1 117.4z" class="e"/><path d="M216.8 43.5c-46.9 0-89 20.8-117.5 53.7l-0.1 0.2 -0.2 0c-20.1 1.3-36 18-36 38.4 0 6.7 1.7 13.1 4.8 18.6l0.1 0.2 -0.1 0.2c-4.1 14-6.4 28.8-6.4 44.1 0 42.9 17.4 81.7 45.5 109.8 28.1 28.1 66.9 45.5 109.8 45.5 42.9 0 81.7-17.4 109.8-45.5 28.1-28.1 45.5-66.9 45.5-109.8 0-42.9-17.4-81.7-45.5-109.8C298.6 60.9 259.7 43.5 216.8 43.5zM285 108.5c0.1 0.5 0.3 1.1 0.4 1.6l0 0c0.2-1.1 1.3-2.2 2.9-2.6 0.2 0 0.5-0.1 0.7 0l0.3 1.7c-0.3 0-0.6 0-0.9 0.1 -2 0.4-2.6 2.1-2.1 4.3l1.1 4.8 -1.6 0.4 -1.7-7.6c-0.2-0.9-0.5-1.7-0.6-2.3L285 108.5zM275.6 110.3c3-0.7 5.8 1 6.4 4 0.7 3.1-1.1 5.7-4.1 6.4 -3 0.7-5.8-1-6.4-4C270.8 113.6 272.6 111 275.6 110.3zM263.1 113.1c3-0.7 5.8 1 6.4 4 0.7 3.1-1.1 5.7-4.1 6.4 -3 0.7-5.8-1-6.4-4C258.3 116.4 260.1 113.8 263.1 113.1zM250.1 115.9c1.4-0.3 2.8 0.1 3.9 0.9l0 0 -1.7-7.5 1.7-0.4 3.5 16 -1.6 0.4 -0.4-1.8 0 0c-0.4 1.3-1.6 2.5-3.4 2.8 -2.8 0.6-5.4-1.2-6.1-4.1C245.4 119.3 247 116.6 250.1 115.9zM252.8 183l-5 8.7c-2-1.6-5.3-1.9-7.6-1.4 -2.7 0.6-6.2 2.7-5.5 6 1.8 8 20.8-1.7 24.2 13.7 2.2 9.8-4.6 16.1-13.7 18.2 -5.6 1.2-10.9 0.7-15.9-2.2l5.2-9.1c2.5 2.2 6.1 3 9.3 2.3 3.2-0.7 6.4-3 5.7-6.1 -1.8-8-21.3 0.9-24.6-13.7 -2.1-9.3 4.9-16 13.5-17.9C243.3 180.3 248.4 180.5 252.8 183zM217.9 126.9c-0.3-1.4-1.4-2-2.9-1.6 -1.1 0.2-2.1 0.8-2.7 1.7l-1.3-0.9c0.8-1.3 2.2-2.1 3.6-2.4 2.9-0.6 4.5 0.5 5.1 3.3l0.9 4.3c0.1 0.6 0.3 1.2 0.5 1.7l-1.6 0.3c-0.2-0.4-0.3-1-0.4-1.5l0 0c-0.4 1.2-1.4 2.1-2.9 2.5 -2 0.4-3.9-0.2-4.3-2.1 -0.7-3.3 3-4.3 5.5-4.8l0.6-0.1L217.9 126.9zM220.5 116.3l1.6-0.4 2.3 10.4 3.5-5.3 2.3-0.5 -3.8 5.6 6.5 4.2 -2.4 0.5 -6-4.1 1.1 5.2 -1.6 0.4L220.5 116.3zM238 120.3l-2.9 0.6 1.1 4.9c0.3 1.3 0.5 2.3 2 2 0.5-0.1 1-0.3 1.4-0.7l0.4 1.5c-0.5 0.4-1.2 0.6-1.8 0.8 -2.3 0.5-3-0.7-3.5-2.7l-1.2-5.4 -2.2 0.5 -0.3-1.4 2.2-0.5 -0.6-2.8 1.7-0.4 0.6 2.8 2.9-0.6L238 120.3zM224.1 91.8l2.3 10.4 3.5-5.3 2.3-0.5 -3.8 5.6 6.5 4.2 -2.4 0.5 -6-4.1 1.1 5.2 -1.6 0.4 -3.5-16L224.1 91.8zM223.2 111.1c0.2 1 0.1 3-2.3 3.5 -0.4 0.1-0.8 0.1-1.2 0l-0.1-1.5c0.3 0 0.6 0 0.8 0 1.2-0.3 1.2-1.3 1-2.4l-2.5-11.4 1.6-0.4L223.2 111.1zM218.6 94.1c0.7-0.1 1.3 0.3 1.5 0.9 0.2 0.7-0.2 1.3-0.9 1.5 -0.7 0.2-1.3-0.2-1.5-0.9C217.5 94.9 217.9 94.3 218.6 94.1zM217.6 110l-1.6 0.4 -2.2-9.9 1.6-0.4L217.6 110zM213.5 95.2c0.7-0.1 1.3 0.3 1.5 0.9 0.2 0.7-0.2 1.3-0.9 1.5 -0.7 0.2-1.3-0.2-1.5-0.9C212.4 96 212.9 95.4 213.5 95.2zM209.1 95.1l3.5 16 -1.6 0.4 -3.5-16L209.1 95.1zM207 129.3c-0.3-1.4-1.4-2-2.9-1.6 -1.1 0.2-2.1 0.8-2.7 1.7l-1.3-0.9c0.8-1.3 2.2-2.1 3.6-2.4 2.9-0.6 4.5 0.5 5.1 3.3l0.9 4.3c0.1 0.6 0.3 1.2 0.5 1.7l-1.6 0.3c-0.2-0.4-0.3-1-0.4-1.5l0 0c-0.4 1.2-1.4 2.1-2.9 2.5 -2 0.4-3.9-0.2-4.3-2.1 -0.7-3.3 3-4.3 5.5-4.8l0.6-0.1L207 129.3zM201.4 102.9c2.8-0.6 5.1 0.9 5.8 4.2l0.1 0.5 -8 1.8c0.5 1.7 2.1 2.9 3.9 2.5 1.4-0.3 2.3-1 2.8-2.2l1.5 0.7c-0.8 1.8-2.1 2.6-3.9 3 -3.1 0.7-5.5-1.2-6.2-4.1C196.8 106.2 198.5 103.6 201.4 102.9zM188.7 105.7c1.3-0.3 3 0 3.9 1.2l0 0 -0.4-1.7 1.7-0.4 2.1 9.5c0.8 3.6-0.7 5.9-4.2 6.7 -1.9 0.4-3.6 0.3-5.3-0.8l0.9-1.6c1.3 0.9 2.5 1.2 4.1 0.9 3-0.6 3.3-2.7 2.9-4.8l-0.3-1.3 0 0c-0.5 1.4-1.8 2.3-3.1 2.6 -3.1 0.7-5.7-1-6.4-3.9C183.8 108.9 185.5 106.4 188.7 105.7zM183.8 132.5l0 0c0.2-1.1 1.3-2.2 2.9-2.6 2.1-0.5 3.1 0.6 3.5 1.2 0.5-1.3 1.2-2.2 2.7-2.6 2.8-0.6 4.1 0.8 4.7 3.3l1.3 6 -1.6 0.4 -1.3-5.9c-0.3-1.4-1.1-2.6-3-2.2 -1.4 0.3-2.3 1.7-1.9 3.5l1.3 5.7 -1.6 0.4 -1.2-5.6c-0.5-2.2-1.2-2.9-2.6-2.6 -2.1 0.5-2.7 2.2-2.2 4.5l1.1 4.8 -1.6 0.4 -1.7-7.5c-0.2-0.9-0.5-1.7-0.6-2.3l1.6-0.3C183.5 131.4 183.7 131.9 183.8 132.5zM176.2 108.5c3-0.7 5.8 1 6.4 4 0.7 3.1-1.1 5.7-4.1 6.4 -3 0.7-5.8-1-6.4-4C171.4 111.8 173.1 109.1 176.2 108.5zM174.7 132.5c2.8-0.6 5.1 0.9 5.8 4.2l0.1 0.5 -8 1.8c0.5 1.7 2.1 2.9 3.9 2.5 1.4-0.3 2.3-1 2.8-2.2l1.5 0.7c-0.8 1.8-2.1 2.6-3.9 3 -3.1 0.7-5.5-1.2-6.2-4.1C170.1 135.8 171.8 133.2 174.7 132.5zM154.2 108.3l7.7 10.6 0 0 2.5-12.9 2.6-0.6 3.3 15 -1.8 0.4 -2.8-12.6 0 0 -2.6 13.7 -1.1 0.2 -8.1-11.4 0 0 2.8 12.6 -1.8 0.4 -3.3-15L154.2 108.3zM167.7 144.2l-0.3-1.3 0 0c-0.5 1.4-1.8 2.3-3.1 2.6 -3.1 0.7-5.7-1-6.4-3.9 -0.7-3.2 1-5.7 4.1-6.4 1.3-0.3 3 0 3.9 1.2l0 0 -0.4-1.7 1.7-0.4 2.1 9.5c0.8 3.6-0.7 5.9-4.2 6.7 -1.9 0.4-3.6 0.3-5.3-0.8l0.9-1.6c1.3 0.9 2.5 1.2 4.1 0.9C167.7 148.4 168.1 146.3 167.7 144.2zM76.4 140.7c-3-13.5 5.5-26.9 19-29.9 13.5-3 26.9 5.5 29.9 19 3 13.5-5.5 26.9-19 29.9C92.8 162.8 79.4 154.2 76.4 140.7zM173.2 251.3c-0.5 0.1-1.1 0.1-1.5 0.2 -0.3 5-1.5 9.3-2.7 12.2 0.3 0.5 0.7 1.4 0.9 2 0.3 0.9-0.4 1.6-1 1.7l0 0c-0.5 0-0.8-1-1-1.4 -2.1 3.4-5.5 4.9-8.5 5.2 -0.2 0-0.5 0-0.7 0 -3.4 0-7.7-2.3-10.2-6.4l-7.3 3 0.7 2.9 -0.2 2.9c0.7 1.2 1.2 2.9 1.3 4.8 0.2 4-1.4 7.3-3.6 7.4l-0.1 0c-2.2 0-4.1-3.1-4.3-7 -0.2-3.5 1-6.5 2.9-7.2l-0.5-0.3 -3.2 1.6 -9.1 1.7 -0.2-1 -2.9 0.9c0 0-0.4 1.4-0.5 2 0.2 0.7 0.4 1.6 0.4 2.5 0.2 3.5-1.7 6.1-3.8 6.2l-0.1 0c-2 0-3.4-2.4-3.6-5.8 -0.1-2.1 0.4-3.9 1.2-5.1l-1.3-0.6 -12.8-0.2 0.4-1.3c0 0 3.8-1.1 5.9-1.6 -0.6-1.8 1.3-2.4 1.3-2.4l-0.9-3.1 -1.3-31.3c0 0-0.6-5.6-2.1-5.6l-0.1 0c-0.1-2.5 1-2 1.9-2.6 0.3-1 0.9-1.2 1.5-1.2 0.5 0 0.9 0.2 1.2 0.4 -0.5-0.6 0.6-2.8 0.6-2.8s11.6-4 13.6-4c0.2 0 0.3 0 0.3 0.1 -0.4-2.8 1.1-5.3 1-5.6 -0.1-0.3-3.1-3-3.4-3.3l-0.2 0c-0.2 0-0.7 0.1-1.3 0.3 -1 0.3-2.5 0.6-4.1 0.6 -0.3 0-0.6 0-0.9 0l-0.2 0c-3.1 0-14.3-13.3-14.3-13.3s-1.1-1-2-3.3c-0.8-2.4 1.4-4.7 1.4-4.7s-0.1-0.4-0.3-2.1c-1.3-1.1-1.6-2.4-1.6-3.1 0.2-0.3 0.3-0.5 0.5-0.5 0.3 0 0.7 0.3 1.3 0.3 -0.2-0.8-0.4-2.4-0.1-2.6 0.1-0.2 0.6-0.3 1-0.3 0.3 0 0.6 0.1 0.8 0.2 0.4 0.7 1.4 2.5 1.8 2.5l0.1-0.1c0.2-0.5-1.5-1.7-1.1-2.7 0.1-0.2 0.2-0.3 0.3-0.3 0.8 0 2.5 3.2 4.7 5.2 0.2 1.2-1.3 5.7-1.4 6 -0.2 0.3-1.5 1.5-1.5 1.5l11.1 8.3 2.9-1.5 1.7-1.6c0 0 0.4-0.2 1-0.2 0.1 0 0.2 0 0.4 0l0.1 0c0.2 0 0-0.3 0.1-0.6 0.1-0.4 0.4-0.8 1.7-1 0.1 0 0.2 0 0.3 0 1.6 0 2.6-0.7 3.5-1.3 0.9-0.6 1.7-1.2 2.8-1.2 0.3 0 0.6 0 0.9 0.1 0.5-1.5 1.7-3.1 1.1-3.1l-0.1 0c-0.1 0-0.2 0-0.3 0 -1.2 0-5.3-0.5-5.8-1.1 -1-1.1-1.9-6.1-1.1-8.4 0.8-2.3 1.5-1.6 1.4-2.3 -0.2-1.9 0.6-3.7 1-4.9l-0.4 0.7c0 0-3 4.4-4.9 5.6 -3.6 2.7-6.1 3.6-7.7 3.6 -2.7 0-3.3-2.3-3.4-2.7 1.2 0.6 1.9 0.8 2.5 0.8 0.6 0 1.1-0.2 1.9-0.5 2.2-0.9 2.9-1.1 2.8-1.1 0 0-0.2 0-0.4 0.1 -0.7 0.2-2.2 0.5-3.5 0.5 -0.7 0-1.4-0.1-1.9-0.4 5.1-0.7 4-3.6 4.3-4.5 1.2-3.6 3.5-5 6-5.4 0.3 0 0.6-0.1 0.9-0.1 2 0 3.6 1.1 3.8 1.3 0.3 0.2 0.3 1.1 0.3 1.1 0.5-1.4 1.6-3.6 3.2-4.4 2.2-1.3 3.9-1.7 5.3-1.7 1.6 0 2.6 0.6 3 0.7l0.2 0c1.2 0 3.7 0.3 6.5 3.8 0.7 1 1.6 3.1 1.2 5.6 0.7-0.1 1.5-0.4 2.4-0.8 0.3-3.1 0.5-5.9 0.6-6.9 0-0.2 0-0.3 0-0.3s-1.5-1.8-0.2-4c2.3-2.1 2.7-3.5 3.2-4.5 0.4-0.8 1.1-1.1 1.5-1.1l0.2 0c0.4 0.2-1.6 4.1-1 4.1l0.1 0c0.9-0.4 0.6-0.2 1.7-1.4 1.1-1.2-1-4.8 0.3-5.6h0c1.4 0 4.7 6.2 4.6 7.7 -0.1 1.4-5.4 5.8-6.4 6.7 0 0.2 0.2 2.6 0.3 3.6 0.6-0.1 1.3-0.2 1.9-0.2 0.6 0 1.2 0.1 1.8 0.2 7 2.5-3.9 9.8 4.3 11.7 0 0-0.7 0.1-1.5 0.1 -0.8 0-1.8-0.1-2.4-0.6 -1 0.3 1.8 2.6 3.8 3.1 -0.7 0-1.3 0.2-2 0.2 -1 0-2.2-0.3-3.8-1.5 0.4 2.9 0.5 5.2 0.1 5.7 -1.2 1.4-2.7 2.7-3.2 2.7l-0.1 0 0 0c-0.2 0 1.1 4.3 0.8 5.6 -1.8 1.3-5.5 4-5.3 4.5 0 0.1 0.1 0.1 0.3 0.1 1.1 0 5-1.4 5-1.4s1.3 2.5 0.9 3.6c-0.4 1.1-5.3 2.6-5.3 2.6l0.4 9.2c1.2-1 4.2-2 5.9-2 0.2 0 0.3 0 0.4 0 3.7 0.5 6 2.9 8.8 7.6 1.3 1.8 2.6 4 3.6 6.5 0.4-0.5 0.8-1.2 1.1-1.6 0.1-0.2 0.3-0.2 0.4-0.2 0.6 0 1.6 0.9 1 1.9 -0.5 0.9-1.2 1.9-1.5 2.5 0.9 2.5 1.5 5.2 1.9 8.1 0.3 1.9 0.4 3.8 0.3 5.6 0.3 0.1 0.9 0.2 1.6 0.2l0.2 0C174.6 249.1 174.2 250.7 173.2 251.3zM190.3 260.3l-0.9 0.2 -4.1-5.9 1-0.2 3.4 5.1 0.9-6.1 0.9-0.2L190.3 260.3zM197.4 258.9c-2 0.4-3.7-0.7-4.2-2.7 -0.4-2 0.7-3.7 2.7-4.2 2-0.4 3.7 0.7 4.2 2.7C200.5 256.7 199.4 258.5 197.4 258.9zM205.9 257c-2 0.4-3.7-0.7-4.2-2.7s0.7-3.7 2.7-4.2c2-0.5 3.7 0.7 4.2 2.7C209 254.8 207.9 256.6 205.9 257zM213 249.2c-1.5 0.3-1.9 1.5-1.6 2.8l0.8 3.5 -0.8 0.2 -1-4.7c-0.1-0.5-0.4-1.5-0.5-1.8l0.8-0.2c0.1 0.5 0.2 1 0.3 1.1 0.3-0.9 0.8-1.6 1.8-1.8 0.2 0 0.3-0.1 0.5 0l0.1 0.9L213 249.2zM211 234.6l-26-26.9 -0.1 0 6.9 31.2 -9.6 2.1 -9.7-43.8 13.1-2.9 25.4 26.3 0.1 0 -6.8-30.4 9.6-2.1 9.7 43.8L211 234.6zM224.7 252.7l-0.9-3.8c-0.2-1.1-0.8-2-2.1-1.7 -1.3 0.3-2.1 1.4-1.7 3.2l0.7 3.3 -0.8 0.2 -2.4-10.6 0.8-0.2 1.2 5.3 0 0c0.2-0.8 0.9-1.6 1.9-1.8 2-0.5 2.8 0.8 3.1 2.3l0.9 3.9L224.7 252.7zM230.9 251.5c-2 0.4-3.6-0.7-4.1-2.7 -0.4-1.9 0.6-3.7 2.5-4.1 2-0.5 3.4 0.9 3.7 2.4l0.1 0.6 -5.5 1.2c0.2 0.7 1 2.3 3 1.9 0.9-0.2 1.7-0.8 1.9-1.6l0.7 0.4C232.9 250.6 232 251.2 230.9 251.5zM238.1 249.9c-1.2 0.3-1.8-0.4-2-1.3l-0.9-4.2 -1.4 0.3 -0.2-0.8 1.4-0.3 -0.4-1.9 0.8-0.2 0.4 1.9 1.9-0.4 0.2 0.8 -1.9 0.4 0.9 4.2c0.1 0.6 0.5 0.8 1.1 0.7 0.3-0.1 0.6-0.2 0.9-0.4l0.2 0.7C238.8 249.6 238.4 249.8 238.1 249.9zM248.3 250.9c-1.3 0.3-2.7 0.1-3.5-0.6l0.5-0.8c0.8 0.7 1.8 0.9 2.8 0.7 2.6-0.6 2.1-2.8 2-3.6l-0.2-0.9 0 0c-0.3 0.9-1.1 1.6-2.2 1.8 -1.9 0.4-3.8-0.7-4.2-2.6 -0.4-1.8 0.8-3.7 2.7-4.1 1.1-0.2 2.1 0.1 2.7 0.7l0 0 -0.2-1.1 0.8-0.2 1.4 6.1C251.7 249.6 249.7 250.7 248.3 250.9zM256.2 245.8c-2 0.4-3.6-0.7-4.1-2.7 -0.4-1.9 0.6-3.7 2.5-4.1 2-0.4 3.4 0.9 3.7 2.4l0.1 0.6 -5.5 1.2c0.2 0.7 1 2.3 3 1.9 0.9-0.2 1.7-0.8 1.9-1.6l0.7 0.4C258.3 244.9 257.4 245.6 256.2 245.8zM266 243.5l-0.9-3.8c-0.2-1.1-0.8-2-2.1-1.7 -1.3 0.3-2.1 1.4-1.7 3.2l0.7 3.3 -0.8 0.2 -2.4-10.6 0.8-0.2 1.2 5.3 0 0c0.2-0.8 0.9-1.6 1.9-1.8 2-0.4 2.8 0.8 3.1 2.3l0.9 3.9L266 243.5zM261.8 200.3c-3.1-14 4.8-25.2 18.5-28.2 6.9-1.5 13.4-1.4 18.7 1.7l-5.1 8.9c-3.2-2.1-6.7-2.9-11.5-1.8 -8.2 1.8-12.3 9-10.5 17.1 1.8 8.2 8.5 12.9 16.7 11.1 4.2-0.9 7-2.8 8.6-4.2l-1.6-7.1 -7.8 1.8 -2-8.9 17.1-3.8 5.1 22.9c-5 4.2-11 6.9-17.4 8.3C276.9 221.1 264.9 214.3 261.8 200.3zM273.6 241.8c-0.1-0.3-0.2-0.7-0.3-1l0 0c-0.3 0.9-0.9 1.5-2 1.7 -1.1 0.3-2.4 0-2.7-1.4 -0.4-2 1.8-2.7 3.1-3l1-0.2 -0.1-0.4c-0.2-1.1-1.1-1.4-2.2-1.2 -0.8 0.2-1.4 0.5-1.8 1.2l-0.6-0.5c0.5-0.7 1.4-1.3 2.3-1.5 1.6-0.4 2.7 0.1 3.1 1.8l0.4 1.6c0.3 1.3 0.5 2 0.7 2.7L273.6 241.8zM281.4 240.1l-0.9-3.8c-0.2-1.1-0.8-2-2.1-1.7 -1.3 0.3-2.1 1.4-1.7 3.2l0.7 3.3 -0.8 0.2 -1-4.7c-0.1-0.5-0.4-1.5-0.5-1.8l0.8-0.2c0.1 0.5 0.3 1 0.3 1.1l0 0c0.2-0.8 0.9-1.6 1.9-1.8 2-0.5 2.8 0.8 3.1 2.2l0.9 3.9L281.4 240.1zM290.3 238.1l-0.2-1.1 0 0c-0.3 1-1.3 1.7-2.3 1.9 -2 0.4-3.7-0.7-4.2-2.7 -0.4-2 0.7-3.7 2.7-4.2 1-0.2 2.2-0.1 2.9 0.7l0 0 -1.2-5.3 0.8-0.2 2.4 10.6L290.3 238.1zM291.3 228.3c-0.1-0.3 0.1-0.7 0.5-0.8 0.4-0.1 0.7 0.1 0.8 0.5 0.1 0.4-0.1 0.7-0.5 0.8C291.7 228.9 291.4 228.7 291.3 228.3zM293.5 237.3l-1.4-6.5 0.9-0.2 1.4 6.5L293.5 237.3zM300 236.1c-2 0.4-3.7-0.7-4.2-2.7 -0.4-2 0.7-3.7 2.7-4.2 0.9-0.2 1.9 0 2.7 0.6l-0.6 0.7c-0.6-0.4-1.3-0.6-1.9-0.5 -1.6 0.4-2.3 1.8-2 3.2 0.3 1.5 1.6 2.4 3.2 2.1 0.7-0.2 1.2-0.7 1.5-1.3l0.8 0.4C301.7 235.3 300.9 235.9 300 236.1zM308.2 234.1c-0.1-0.3-0.2-0.7-0.3-1l0 0c-0.3 0.9-0.9 1.5-2 1.7 -1.1 0.3-2.4 0-2.7-1.4 -0.4-2 1.8-2.7 3.1-3l1-0.2 -0.1-0.4c-0.3-1.1-1.1-1.4-2.2-1.2 -0.8 0.2-1.4 0.6-1.8 1.2l-0.6-0.5c0.5-0.7 1.4-1.3 2.3-1.5 1.6-0.4 2.8 0.1 3.1 1.8l0.4 1.6c0.3 1.3 0.5 2 0.7 2.7L308.2 234.1zM314.6 232.8c-1 0.2-2.2 0.1-2.9-0.7l0 0 1 4.4 -0.8 0.2 -2.2-9.7 0.8-0.2 0.3 1.1 0 0c0.3-1 1.3-1.7 2.3-1.9 2-0.4 3.7 0.7 4.2 2.7C317.7 230.6 316.6 232.4 314.6 232.8zM322.2 231.1c-1.2 0.3-1.8-0.4-2-1.3l-0.9-4.2 -1.4 0.3 -0.2-0.8 1.4-0.3 -0.4-1.9 0.8-0.2 0.4 1.9 1.9-0.4 0.2 0.8 -1.9 0.4 0.9 4.2c0.1 0.6 0.5 0.8 1.1 0.7 0.3-0.1 0.6-0.3 0.9-0.4l0.2 0.7C322.9 230.9 322.5 231.1 322.2 231.1zM327.8 229.9c-2 0.4-3.6-0.7-4.1-2.7 -0.4-1.9 0.6-3.7 2.5-4.1 2-0.4 3.4 0.9 3.7 2.4l0.1 0.6 -5.5 1.2c0.2 0.7 1 2.3 3 1.9 0.9-0.2 1.7-0.8 1.9-1.6l0.7 0.4C329.9 229 328.9 229.6 327.8 229.9zM341 226.8l-4.3-2.6 0.8 3.4 -0.8 0.2 -2.4-10.6 0.9-0.2 1.6 7.1 2.6-3.7 1.2-0.3 -2.7 3.7 4.5 2.7L341 226.8zM341.9 216.4c0.4-0.1 0.7 0.1 0.8 0.5 0.1 0.4-0.1 0.7-0.5 0.8 -0.3 0.1-0.7-0.1-0.8-0.5C341.3 216.8 341.6 216.4 341.9 216.4zM343.7 226.2l-1.4-6.5 0.8-0.2 1.5 6.5L343.7 226.2zM351.8 224.4l-0.8-3.8c-0.2-1-0.8-2-2.1-1.7 -1.2 0.3-2.1 1.4-1.7 3.2l0.7 3.3 -0.8 0.2 -1-4.7c-0.1-0.5-0.4-1.5-0.5-1.8l0.9-0.2c0.1 0.5 0.3 1 0.3 1.1l0 0c0.2-0.8 0.9-1.6 1.9-1.8 2-0.4 2.8 0.8 3.1 2.3l0.9 3.9L351.8 224.4zM361.5 222.2l-0.8 0.2 -0.3-1.1 0 0c-0.3 1-1.3 1.7-2.3 1.9 -2 0.4-3.8-0.7-4.2-2.7 -0.4-2 0.7-3.7 2.7-4.2 1-0.2 2.2-0.1 2.9 0.7l0 0 -1.2-5.3 0.8-0.2L361.5 222.2zM347 158.4l-14.9 24.7 26.4 18.7 -13.5 3 -22.4-16.8 4.6 20.8 -9.6 2.2 -9.7-43.8 9.6-2.1 4 18.2 13-22L347 158.4z" class="e"/><path d="M178.5 136.2c-0.4-1.7-1.8-2.5-3.6-2.1 -1.8 0.4-2.8 1.8-2.6 3.5L178.5 136.2z" class="e"/><path d="M190.6 114.5c2.3-0.5 3.2-2.5 2.7-4.4 -0.5-2.1-2.2-3.3-4.3-2.9 -2.1 0.5-3.1 2.4-2.7 4.4C186.8 113.7 188.7 114.9 190.6 114.5z" class="e"/><path d="M356.7 217.1c-1.6 0.4-2.3 1.8-2 3.2 0.3 1.5 1.6 2.4 3.2 2.1 1.5-0.3 2.4-1.8 2.1-3.3C359.7 217.7 358.3 216.7 356.7 217.1z" class="e"/><path d="M216.8 42.5c-47.2 0-89.4 20.9-118.1 53.9 -20.5 1.4-36.7 18.5-36.7 39.4 0 6.8 1.7 13.3 4.8 18.9 -4.1 14-6.3 28.8-6.3 44.2 0 86.3 70 156.3 156.3 156.3 86.3 0 156.3-70 156.3-156.3C373.2 112.5 303.2 42.5 216.8 42.5zM326.7 308.7c-28.1 28.1-66.9 45.5-109.8 45.5 -42.9 0-81.7-17.4-109.8-45.5C78.9 280.6 61.5 241.7 61.5 198.8c0-15.3 2.2-30.1 6.4-44.1l0.1-0.2 -0.1-0.2c-3-5.5-4.8-11.8-4.8-18.6 0-20.4 15.9-37.1 36-38.4l0.2 0 0.1-0.2c28.5-32.9 70.6-53.7 117.5-53.7 42.9 0 81.7 17.4 109.8 45.5 28.1 28.1 45.5 66.9 45.5 109.8C372.2 241.7 354.8 280.6 326.7 308.7z" fill="#EDEDED"/><polygon points="213.9 188 204.2 190.2 211 220.6 210.9 220.6 185.5 194.3 172.4 197.2 182.1 241 191.8 238.9 184.8 207.7 185 207.7 211 234.6 223.6 231.8 " class="h"/><path d="M224.9 199.3c3.2 14.6 22.8 5.7 24.6 13.7 0.7 3.1-2.5 5.4-5.7 6.1 -3.2 0.7-6.8-0.1-9.3-2.3l-5.2 9.1c5 2.9 10.3 3.5 15.9 2.2 9-2 15.8-8.4 13.7-18.2 -3.4-15.3-22.4-5.7-24.2-13.7 -0.7-3.3 2.8-5.4 5.5-6 2.3-0.5 5.6-0.3 7.6 1.4l5-8.7c-4.4-2.5-9.5-2.7-14.4-1.6C229.8 183.3 222.8 190 224.9 199.3z" fill="#ED3341"/><path d="M290.5 218c6.4-1.4 12.4-4.1 17.4-8.3l-5.1-22.9 -17.1 3.8 2 8.9 7.8-1.7 1.6 7.1c-1.6 1.4-4.4 3.3-8.6 4.2 -8.2 1.8-14.9-2.9-16.7-11.1 -1.8-8.2 2.2-15.3 10.5-17.1 4.9-1.1 8.3-0.4 11.6 1.8l5.1-8.9c-5.3-3.1-11.8-3.3-18.7-1.7 -13.7 3-21.6 14.2-18.5 28.2C264.9 214.3 276.9 221.1 290.5 218z" class="i"/><polygon points="317.4 165 307.7 167.1 317.5 210.9 327.1 208.7 322.5 188 344.9 204.8 358.4 201.8 332 183 347 158.4 334.4 161.2 321.4 183.1 " class="j"/><polygon points="189.7 259.5 186.2 254.4 185.3 254.6 189.4 260.5 190.3 260.3 191.4 253.3 190.5 253.5 " class="j"/><path d="M195.9 252.1c-2 0.4-3.1 2.2-2.7 4.2 0.4 2 2.2 3.1 4.2 2.7 2-0.4 3.1-2.2 2.7-4.2C199.6 252.8 197.9 251.6 195.9 252.1zM197.2 258.2c-1.6 0.4-2.8-0.6-3.2-2.1 -0.3-1.5 0.4-2.9 2-3.2 1.6-0.4 2.8 0.6 3.2 2.1C199.5 256.4 198.8 257.8 197.2 258.2z" class="j"/><path d="M204.4 250.2c-2 0.4-3.1 2.2-2.7 4.2s2.2 3.1 4.2 2.7c2-0.4 3.1-2.2 2.7-4.2C208.1 250.9 206.4 249.7 204.4 250.2zM205.7 256.3c-1.6 0.4-2.8-0.6-3.2-2.1 -0.3-1.5 0.4-2.9 2-3.2 1.6-0.4 2.8 0.6 3.2 2.1C208.1 254.5 207.3 255.9 205.7 256.3z" class="j"/><path d="M212.7 248.3c-1 0.2-1.5 0.9-1.8 1.8 -0.1-0.1-0.2-0.7-0.3-1.1l-0.8 0.2c0.1 0.3 0.4 1.3 0.5 1.8l1 4.7 0.9-0.2 -0.8-3.5c-0.3-1.3 0.2-2.4 1.6-2.8l0.3 0 -0.1-0.9C213.1 248.3 212.9 248.3 212.7 248.3z" class="j"/><path d="M221.6 246.4c-1.1 0.2-1.8 1-1.9 1.8l0 0 -1.2-5.3 -0.8 0.2 2.4 10.6 0.8-0.2 -0.7-3.3c-0.4-1.8 0.4-2.9 1.7-3.2 1.3-0.3 1.9 0.7 2.1 1.7l0.9 3.8 0.8-0.2 -0.9-3.9C224.3 247.2 223.6 245.9 221.6 246.4z" class="j"/><path d="M230.7 250.7c-2 0.4-2.9-1.2-3-1.9l5.5-1.2 -0.1-0.6c-0.3-1.5-1.7-2.8-3.7-2.4 -1.9 0.4-2.9 2.2-2.5 4.1 0.4 2 2.1 3.1 4.1 2.7 1.2-0.3 2.1-0.9 2.5-2l-0.7-0.4C232.4 249.9 231.6 250.5 230.7 250.7zM229.4 245.4c1.3-0.3 2.5 0.5 2.7 1.6l-4.6 1C227.5 247.7 227.6 245.8 229.4 245.4z" class="j"/><path d="M238 249.1c-0.6 0.1-1-0.1-1.1-0.7l-0.9-4.2 1.9-0.4 -0.2-0.8 -1.9 0.4 -0.4-1.9 -0.8 0.2 0.4 1.9 -1.4 0.3 0.2 0.8 1.4-0.3 0.9 4.2c0.2 0.9 0.8 1.6 2.1 1.3 0.3-0.1 0.8-0.3 1-0.5l-0.2-0.7C238.6 248.8 238.3 249 238 249.1z" class="j"/><path d="M249.6 240.3l-0.8 0.2 0.2 1.1 0 0c-0.7-0.7-1.6-1-2.7-0.7 -1.9 0.4-3.1 2.3-2.7 4.1 0.4 1.8 2.3 3 4.2 2.6 1.1-0.2 1.9-0.9 2.2-1.8l0 0 0.2 0.9c0.2 0.7 0.6 3-2 3.6 -1 0.2-2.1 0-2.8-0.7l-0.5 0.8c0.9 0.7 2.2 0.9 3.5 0.6 1.3-0.3 3.3-1.3 2.6-4.6L249.6 240.3zM247.5 246.8c-1.4 0.3-2.8-0.6-3.1-2 -0.3-1.4 0.6-2.8 2-3.1 1.4-0.3 2.8 0.6 3.2 2C249.8 245.1 248.9 246.5 247.5 246.8z" class="j"/><path d="M256.1 245.1c-2 0.4-2.9-1.2-3-1.9l5.5-1.2 -0.1-0.6c-0.3-1.5-1.7-2.8-3.7-2.4 -1.9 0.4-2.9 2.2-2.5 4.1 0.4 2 2.1 3.1 4.1 2.7 1.2-0.3 2.1-0.9 2.5-2L258 243.4C257.7 244.2 256.9 244.9 256.1 245.1zM254.8 239.8c1.3-0.3 2.5 0.5 2.7 1.6l-4.6 1C252.8 242.1 252.9 240.2 254.8 239.8z" class="j"/><path d="M262.8 237.2c-1.1 0.2-1.8 1-1.9 1.8l0 0 -1.2-5.3 -0.8 0.2 2.4 10.7 0.8-0.2 -0.7-3.3c-0.4-1.8 0.4-2.9 1.7-3.2 1.3-0.3 1.9 0.7 2.1 1.7l0.9 3.8 0.8-0.2 -0.9-3.9C265.6 238 264.9 236.7 262.8 237.2z" class="j"/><path d="M273.3 237.3c-0.4-1.6-1.5-2.1-3.1-1.8 -0.8 0.2-1.8 0.7-2.3 1.5l0.6 0.5c0.5-0.6 1.1-1 1.8-1.2 1-0.2 1.9 0 2.2 1.2l0.1 0.4 -1 0.2c-1.3 0.3-3.6 1-3.1 3 0.3 1.4 1.6 1.7 2.7 1.4 1.1-0.2 1.7-0.8 2-1.7l0 0c0.1 0.4 0.2 0.7 0.3 1l0.8-0.2c-0.3-0.7-0.4-1.4-0.7-2.7L273.3 237.3zM271.1 241.7c-0.7 0.2-1.6-0.1-1.7-0.9 -0.2-1.1 1.1-1.8 2.5-2.1l0.9-0.2 0.1 0.4C273.1 240.1 272.9 241.3 271.1 241.7z" class="j"/><path d="M278.3 233.7c-1.1 0.2-1.8 1-1.9 1.8l0 0c-0.1-0.1-0.2-0.7-0.3-1.1l-0.8 0.2c0.1 0.3 0.4 1.3 0.5 1.8l1 4.7 0.8-0.2 -0.7-3.3c-0.4-1.8 0.4-2.9 1.7-3.2 1.3-0.3 1.9 0.7 2.1 1.7l0.9 3.8 0.8-0.2 -0.9-3.9C281 234.6 280.3 233.3 278.3 233.7z" class="j"/><path d="M287.9 227.4l1.2 5.3 0 0c-0.7-0.8-1.9-1-2.9-0.7 -2 0.4-3.1 2.2-2.7 4.2 0.4 2 2.2 3.1 4.2 2.7 1-0.2 2-0.9 2.3-1.9l0 0 0.3 1.1 0.8-0.2 -2.4-10.6L287.9 227.4zM287.5 238.1c-1.6 0.4-2.8-0.6-3.2-2.1 -0.3-1.5 0.4-2.9 2-3.2 1.5-0.3 3 0.6 3.3 2.1C290 236.3 289.1 237.7 287.5 238.1z" class="j"/><path d="M292.5 228c-0.1-0.4-0.4-0.6-0.8-0.5 -0.4 0.1-0.6 0.4-0.5 0.8 0.1 0.4 0.4 0.6 0.8 0.5C292.4 228.7 292.6 228.4 292.5 228z" class="j"/><rect x="289.9" y="233.6" transform="matrix(-0.2171 -0.9762 0.9762 -0.2171 128.4309 571.0056)" width="6.7" height="0.9" class="j"/><path d="M299.8 235.3c-1.6 0.4-2.8-0.6-3.2-2.1 -0.3-1.5 0.4-2.9 2-3.2 0.7-0.2 1.3 0.1 1.9 0.5l0.6-0.7c-0.8-0.6-1.7-0.8-2.7-0.6 -2 0.4-3.1 2.2-2.7 4.2 0.4 2 2.2 3.1 4.2 2.7 0.9-0.2 1.7-0.8 2.1-1.7l-0.8-0.4C301 234.7 300.5 235.2 299.8 235.3z" class="j"/><path d="M307.9 229.6c-0.4-1.6-1.5-2.1-3.1-1.8 -0.8 0.2-1.8 0.7-2.3 1.5l0.6 0.5c0.5-0.6 1.1-1 1.8-1.2 1-0.2 1.9 0 2.2 1.2l0.1 0.4 -1 0.2c-1.3 0.3-3.6 1-3.1 3 0.3 1.4 1.6 1.7 2.7 1.4 1.1-0.2 1.7-0.8 2-1.7l0 0c0.1 0.4 0.2 0.7 0.3 1l0.8-0.2c-0.3-0.7-0.4-1.4-0.7-2.7L307.9 229.6zM305.7 234c-0.7 0.2-1.6-0.1-1.7-0.9 -0.2-1.1 1.1-1.8 2.5-2.1l0.9-0.2 0.1 0.4C307.7 232.4 307.5 233.6 305.7 234z" class="j"/><path d="M313.1 226c-1 0.2-2 0.9-2.3 1.9l0 0 -0.3-1.1 -0.8 0.2 2.2 9.7 0.8-0.2 -1-4.4 0 0c0.7 0.8 1.9 0.9 2.9 0.7 2-0.4 3.1-2.2 2.7-4.2C316.8 226.7 315.1 225.5 313.1 226zM314.4 232.1c-1.5 0.3-3-0.6-3.3-2.1 -0.3-1.5 0.6-2.9 2.1-3.3 1.6-0.4 2.8 0.6 3.2 2.1C316.7 230.3 316 231.7 314.4 232.1z" class="j"/><path d="M322.1 230.4c-0.6 0.1-1-0.1-1.1-0.7l-0.9-4.2 1.9-0.4 -0.2-0.8 -1.9 0.4 -0.4-1.9 -0.8 0.2 0.4 1.9 -1.4 0.3 0.2 0.8 1.4-0.3 0.9 4.2c0.2 0.9 0.8 1.6 2.1 1.3 0.3-0.1 0.8-0.3 1-0.5L323 229.9C322.7 230.1 322.4 230.3 322.1 230.4z" class="j"/><path d="M327.6 229.1c-2 0.4-2.9-1.2-3-1.9l5.5-1.2 -0.1-0.6c-0.3-1.5-1.7-2.8-3.7-2.4 -1.9 0.4-2.9 2.2-2.5 4.1 0.4 2 2.1 3.1 4.1 2.7 1.1-0.3 2.1-0.9 2.5-2l-0.7-0.4C329.3 228.3 328.5 228.9 327.6 229.1zM326.4 223.8c1.2-0.3 2.5 0.5 2.7 1.6l-4.6 1C324.4 226.1 324.5 224.2 326.4 223.8z" class="j"/><polygon points="340.4 220.1 339.2 220.4 336.7 224 335.1 216.9 334.2 217.1 336.6 227.8 337.4 227.6 336.7 224.1 341 226.8 342.3 226.5 337.8 223.8 " class="j"/><polygon points="342.2 219.7 343.7 226.2 344.5 226 343 219.5 " class="j"/><path d="M342.2 217.6c0.4-0.1 0.6-0.4 0.5-0.8 -0.1-0.3-0.4-0.6-0.8-0.5 -0.3 0.1-0.6 0.4-0.5 0.8C341.5 217.5 341.8 217.7 342.2 217.6z" class="j"/><path d="M348.6 218.1c-1.1 0.2-1.8 1-1.9 1.8l0 0c0-0.1-0.2-0.7-0.3-1.1l-0.9 0.2c0.1 0.3 0.4 1.3 0.5 1.8l1 4.7 0.8-0.2 -0.7-3.3c-0.4-1.8 0.4-2.9 1.7-3.2 1.3-0.3 1.9 0.7 2.1 1.7l0.9 3.8 0.8-0.2 -0.9-3.9C351.4 218.9 350.7 217.6 348.6 218.1z" class="j"/><path d="M359.5 217l0 0c-0.7-0.8-1.9-1-2.9-0.7 -2 0.4-3.1 2.2-2.7 4.2 0.4 2 2.2 3.1 4.2 2.7 1-0.2 2-0.9 2.3-1.9l0 0 0.3 1.1 0.8-0.2 -2.4-10.7 -0.8 0.2L359.5 217zM357.9 222.4c-1.6 0.4-2.8-0.6-3.2-2.1 -0.3-1.5 0.4-2.9 2-3.2 1.5-0.3 3 0.6 3.3 2.1C360.4 220.6 359.5 222 357.9 222.4z" class="j"/><path d="M106.3 159.8c13.5-3 22-16.4 19-29.9 -3-13.5-16.4-22-29.9-19 -13.5 3-22 16.4-19 29.9C79.4 154.2 92.8 162.8 106.3 159.8z" class="h"/><path d="M173.7 248.5l-0.2 0c-0.8 0-1.3-0.1-1.6-0.2 0-1.8-0.1-3.7-0.3-5.6 -0.4-3-1.1-5.7-1.9-8.1 0.4-0.6 1-1.6 1.5-2.5 0.6-1-0.3-1.9-1-1.9 -0.2 0-0.4 0.1-0.4 0.3 -0.2 0.4-0.7 1-1.1 1.6 -1.1-2.5-2.3-4.6-3.6-6.5 -2.8-4.7-5.1-7.1-8.8-7.6 -0.1 0-0.3 0-0.4 0 -1.7 0-4.7 0.9-5.9 2l-0.4-9.2c0 0 4.9-1.5 5.3-2.6 0.4-1.1-0.9-3.6-0.9-3.6s-3.8 1.4-5 1.4c-0.2 0-0.3 0-0.3-0.1 -0.2-0.6 3.4-3.2 5.3-4.5 0.4-1.4-0.9-5.6-0.8-5.6l0 0 0.1 0c0.4 0 2-1.3 3.2-2.7 0.4-0.5 0.3-2.8-0.1-5.7 1.6 1.2 2.8 1.5 3.8 1.5 0.7 0 1.4-0.1 2-0.2 -2-0.5-4.8-2.8-3.8-3.1 0.5 0.5 1.5 0.6 2.4 0.6 0.8 0 1.5-0.1 1.5-0.1 -8.2-1.9 2.7-9.1-4.3-11.7 -0.6-0.1-1.2-0.2-1.8-0.2 -0.6 0-1.3 0.1-1.9 0.2 -0.2-1-0.4-3.3-0.3-3.6 1-0.9 6.4-5.3 6.4-6.7 0.1-1.4-3.2-7.7-4.6-7.7h0c-1.3 0.9 0.9 4.5-0.2 5.6 -1.2 1.2-0.8 1-1.7 1.4l-0.1 0c-0.6 0 1.4-4 1-4.1l-0.2 0c-0.4 0-1.1 0.3-1.5 1.1 -0.5 0.9-0.9 2.3-3.2 4.5 -1.3 2.2 0.2 4 0.2 4s0 0.1 0 0.3c-0.1 0.9-0.3 3.8-0.6 6.9 -0.9 0.4-1.7 0.7-2.4 0.8 0.4-2.5-0.4-4.6-1.2-5.6 -2.8-3.5-5.3-3.8-6.5-3.8l-0.2 0c-0.4-0.1-1.4-0.7-3-0.7 -1.3 0-3.1 0.4-5.3 1.7 -1.6 0.7-2.7 3-3.2 4.4 0 0 0-0.8-0.3-1.1 -0.3-0.2-1.9-1.3-3.8-1.3 -0.3 0-0.6 0-0.9 0.1 -2.6 0.4-4.9 1.8-6 5.4 -0.3 1 0.8 3.8-4.3 4.5 0.5 0.3 1.1 0.4 1.9 0.4 1.3 0 2.8-0.3 3.5-0.5 0.2-0.1 0.4-0.1 0.4-0.1 0.1 0-0.6 0.3-2.8 1.1 -0.8 0.3-1.3 0.5-1.9 0.5 -0.6 0-1.3-0.2-2.5-0.8 0.1 0.4 0.7 2.7 3.4 2.7 1.7 0 4.1-0.9 7.7-3.6 1.9-1.1 4.9-5.6 4.9-5.6l0.4-0.7c-0.5 1.2-1.3 3-1 4.9 0.2 0.7-0.6 0.1-1.4 2.3 -0.8 2.3 0.1 7.3 1.1 8.4 0.5 0.6 4.6 1.1 5.8 1.1 0.1 0 0.2 0 0.3 0l0.1 0c0.6 0-0.5 1.6-1.1 3.1 -0.3-0.1-0.7-0.1-0.9-0.1 -1.1 0-1.9 0.6-2.8 1.2 -0.9 0.6-1.9 1.3-3.5 1.3 -0.1 0-0.2 0-0.3 0 -1.3 0.3-1.6 0.7-1.7 1 -0.1 0.4 0.1 0.6-0.1 0.6l-0.1 0c-0.1 0-0.3 0-0.4 0 -0.6 0-1 0.2-1 0.2l-1.7 1.6 -2.9 1.5 -11.1-8.3c0 0 1.3-1.1 1.5-1.5 0.1-0.3 1.6-4.8 1.4-6 -2.2-2.1-3.9-5.2-4.7-5.2 -0.1 0-0.3 0.1-0.3 0.3 -0.3 0.9 1.3 2.2 1.1 2.7l-0.1 0.1c-0.4 0-1.4-1.8-1.8-2.5 -0.2-0.1-0.5-0.2-0.8-0.2 -0.4 0-0.9 0.1-1 0.3 -0.3 0.3 0 1.9 0.1 2.6 -0.6 0-1-0.3-1.3-0.3 -0.2 0-0.3 0.1-0.5 0.5 0.1 0.7 0.3 2 1.6 3.1 0.3 1.7 0.3 2.1 0.3 2.1s-2.2 2.3-1.4 4.7c0.8 2.3 2 3.3 2 3.3s11.1 13.3 14.3 13.3l0.2 0c0.3 0 0.6 0 0.9 0 1.6 0 3.1-0.4 4.1-0.6 0.6-0.2 1.1-0.3 1.3-0.3l0.2 0c0.3 0.4 3.3 3 3.4 3.3 0.1 0.3-1.4 2.8-1 5.6 0-0.1-0.1-0.1-0.3-0.1 -2 0-13.6 4-13.6 4s-1.1 2.2-0.5 2.8c-0.3-0.2-0.7-0.4-1.2-0.4 -0.6 0-1.1 0.3-1.5 1.2 -0.9 0.6-2 0.1-1.9 2.6l0.1 0c1.5 0 2.1 5.6 2.1 5.6l1.3 31.3 0.9 3.1c0 0-1.9 0.6-1.3 2.4 -2.1 0.6-5.9 1.6-5.9 1.6l-0.4 1.3 12.8 0.2 1.3 0.6c-0.8 1.2-1.3 3-1.2 5.1 0.2 3.4 1.6 5.8 3.6 5.8l0.1 0c2.1-0.1 4-2.7 3.8-6.2 -0.1-0.9-0.2-1.7-0.4-2.5 0.1-0.7 0.5-2 0.5-2l2.9-0.9 0.2 1 9.1-1.7 3.2-1.6 0.5 0.3c-1.8 0.8-3 3.8-2.9 7.2 0.2 3.9 2.1 7 4.3 7l0.1 0c2.2-0.1 3.8-3.4 3.6-7.4 -0.1-1.9-0.6-3.5-1.3-4.8l0.2-2.9 -0.7-2.9 7.3-3c2.6 4.1 6.8 6.4 10.2 6.4 0.2 0 0.5 0 0.7 0 3-0.3 6.4-1.8 8.5-5.2 0.2 0.4 0.5 1.4 1 1.4l0 0c0.6-0.1 1.2-0.8 1-1.7 -0.2-0.6-0.6-1.5-0.9-2 1.3-2.9 2.4-7.2 2.7-12.2 0.4 0 1-0.1 1.5-0.2C174.2 250.7 174.6 249.1 173.7 248.5zM108.5 230.6l-0.7-2.2 13.5-5.1 -1.9 3.5L108.5 230.6zM120.6 245.5l0.1 0 1.2 5.2 -2.2 0C119.7 250.7 119.3 245.5 120.6 245.5zM121.8 266.4l-0.4 2.4c0 0-1.1-5.6-1.2-6.2l3.1 2.4L121.8 266.4zM123.1 259.7c-1.6 0-3.2-7.3-3.2-7.3l1.9 0c0 0 1.4 5.2 1.5 7.3L123.1 259.7zM149.6 243.1l-0.2 1.8 -3.8 1.2v-1.4L149.6 243.1zM149.4 248.2l-3.1 1.4 -0.1-0.7L149.4 248.2zM145.4 240.2l1.9 1 -1.7 0.5C145.6 241.7 145.4 240.5 145.4 240.2zM149.1 237.2l0 1.3 -0.1 0c-0.2 0-1.3-0.2-1.5-0.2L149.1 237.2zM143.3 186.2c1.3-0.1 1.2-1.4 1.6-2.2 0.4-1 0.8-2.3 1.1-3.7 0-0.1-0.1-0.2-0.2-0.2l-0.2 0 -0.2 0c-0.1 0-0.2 0-0.1-0.1 0.4-0.6 0.5-0.9 0.8-1.6 0 0 1.8 1.3 2.6 1.9 -0.2 3.1-0.3 5.7-0.2 6.5 -0.1-0.1-0.3-0.1-0.5-0.1 -1.8 0-5.8 3.1-7.1 4.2C140.5 190.7 142 187.4 143.3 186.2zM139 242l2.1-0.8 0.3 2.3c0 0-4.8 2.2-5.1 2.2L139 242zM136.5 248.7c0 0 0.1-0.6 0-0.9l4.9-1.4 0.1 0.8L136.5 248.7zM139 257.1l-0.2-1.5 0.9-1.2 -0.8-1 2-0.8L139 257.1zM141 251.1l-3.1 1.4 -0.7-1.9 4.4-1L141 251.1zM141.7 263.3l2.5-10 2.4 7.5L141.7 263.3zM149.6 257.8l0.4 1.3 -0.8 0.5 -2.6-9 3.1-1.2 1.3 5.6L149.6 257.8zM150 224c1.2-2.2 3.1-2.7 4.5-2.7 1 0 1.8 0.3 1.8 0.3l2.3 1.1c-0.2 0-0.5 0-0.7 0 -3.8 0-4.8 3-4.8 3s-0.4-0.9-1.7-1.9l-0.1 0c-1 0-0.6 1.8-0.6 1.8s1.1 1.4 1.2 1.7c-0.5 0.1-0.9 2-0.9 2S150.1 225.7 150 224zM158.8 268.1c-2.8 0-7.4-4.8-7.4-4.8l4.1-1.9 4.1 4 0.5 2C159.8 267.9 159.3 268.1 158.8 268.1zM164.9 261.5c-1.3 0.8-2.3 1.1-3.2 1.1 -2.5 0-3.4-2.4-3.4-2.4l3.5-1.5c0 0 0.5-3.6 0-3.9 -0.9 0.4-3.4 1.3-4.6 1.7 -1.1-3.7-2.5-9.1-1.9-9.9 1-0.2 1.5-0.3 1.9-0.3 0.4 0 0.5 0.1 0.6 0.4l0.3 0.3c0.5 0.6 1 1 1.6 1l0.3 0c1.1-0.3 1.6-2 1.2-3.9 -0.4-1.7-1.5-3-2.5-3 -0.1 0-0.2 0-0.3 0 -0.6 0.2-1 0.7-1.2 1.6l0 0.3 -2.9 0.4 -1.9-6.6c0 0 1.3-11 7.2-11.9l0.2 0C164 225 175.3 250.1 164.9 261.5z" class="i"/><polygon points="156.6 123.4 153.9 110.9 153.9 110.8 162 122.2 163.1 122 165.7 108.2 165.8 108.2 168.5 120.8 170.3 120.4 167 105.4 164.4 106 161.9 118.9 161.9 118.9 154.2 108.3 151.6 108.8 154.9 123.8 " class="i"/><path d="M178.5 118.9c3-0.7 4.8-3.3 4.1-6.4 -0.7-3.1-3.4-4.7-6.4-4 -3 0.7-4.8 3.3-4.1 6.4C172.7 117.9 175.4 119.6 178.5 118.9zM176.5 110c2.1-0.5 3.9 0.8 4.3 2.9 0.5 2.1-0.6 4-2.7 4.5 -2.1 0.5-3.9-0.8-4.3-2.9C173.4 112.4 174.4 110.5 176.5 110z" class="i"/><path d="M190.9 116c1.3-0.3 2.6-1.2 3.1-2.6l0 0 0.3 1.3c0.5 2.1 0.1 4.2-2.9 4.8 -1.5 0.3-2.8 0-4.1-0.9l-0.9 1.6c1.7 1.1 3.4 1.2 5.3 0.8 3.5-0.8 5-3.1 4.2-6.7l-2.1-9.5 -1.6 0.4 0.4 1.7 0 0c-0.9-1.2-2.6-1.5-3.9-1.2 -3.2 0.7-4.8 3.1-4.1 6.4C185.2 115 187.8 116.7 190.9 116zM189 107.3c2.1-0.5 3.9 0.7 4.3 2.9 0.4 1.9-0.5 3.9-2.7 4.4 -1.9 0.4-3.8-0.8-4.3-2.8C185.9 109.6 186.9 107.7 189 107.3z" class="i"/><path d="M203.6 113.4c1.8-0.4 3.1-1.3 3.9-3l-1.5-0.7c-0.6 1.2-1.4 1.9-2.8 2.2 -1.8 0.4-3.4-0.8-3.9-2.5l8-1.8 -0.1-0.5c-0.7-3.3-3-4.8-5.8-4.1 -2.9 0.6-4.6 3.3-3.9 6.3C198.1 112.1 200.5 114 203.6 113.4zM201.6 104.5c1.8-0.4 3.2 0.5 3.6 2.1l-6.2 1.4C198.9 106.3 199.8 104.9 201.6 104.5z" class="i"/><rect x="201.8" y="102.5" transform="matrix(0.2146 0.9767 -0.9767 0.2146 265.8546 -124.0037)" width="16.4" height="1.7" class="i"/><path d="M214.1 97.6c0.7-0.2 1.1-0.8 0.9-1.5 -0.1-0.7-0.8-1.1-1.5-0.9 -0.7 0.1-1.1 0.8-0.9 1.5C212.7 97.4 213.4 97.8 214.1 97.6z" class="i"/><rect x="214.9" y="100.2" transform="matrix(-0.9768 0.2143 -0.2143 -0.9768 449.0062 161.8153)" width="1.7" height="10.1" class="i"/><path d="M219.1 96.5c0.7-0.2 1.1-0.8 0.9-1.5 -0.1-0.7-0.8-1.1-1.5-0.9 -0.7 0.1-1.1 0.8-0.9 1.5C217.8 96.3 218.4 96.7 219.1 96.5z" class="i"/><path d="M221.4 110.7c0.3 1.1 0.3 2.1-1 2.4 -0.3 0.1-0.5 0.1-0.8 0.1l0.1 1.5c0.4 0.1 0.8 0 1.2 0 2.5-0.5 2.5-2.5 2.3-3.5l-2.7-12.1 -1.6 0.4L221.4 110.7z" class="i"/><polygon points="227.6 107.8 226.4 102.6 232.5 106.8 234.9 106.2 228.5 102 232.2 96.4 229.9 96.9 226.3 102.3 224.1 91.8 222.4 92.2 225.9 108.2 " class="i"/><path d="M164.8 149.1c-1.5 0.3-2.8 0-4.1-0.9l-0.9 1.6c1.7 1.1 3.4 1.2 5.3 0.8 3.5-0.8 5-3.1 4.2-6.7l-2.1-9.5 -1.6 0.4 0.4 1.7 0 0c-0.9-1.2-2.6-1.5-3.9-1.2 -3.2 0.7-4.8 3.1-4.1 6.4 0.6 2.9 3.3 4.6 6.4 3.9 1.3-0.3 2.6-1.2 3.1-2.6l0 0 0.3 1.3C168.1 146.3 167.7 148.4 164.8 149.1zM163.9 144.1c-1.9 0.4-3.8-0.8-4.3-2.8 -0.5-2.1 0.6-4 2.7-4.4 2.1-0.5 3.9 0.7 4.3 2.9C167.1 141.6 166.2 143.6 163.9 144.1z" class="i"/><path d="M176.9 142.9c1.8-0.4 3.1-1.3 3.9-3l-1.5-0.7c-0.6 1.2-1.4 1.9-2.8 2.2 -1.8 0.4-3.4-0.8-3.9-2.5l8-1.8 -0.1-0.5c-0.7-3.3-3-4.8-5.8-4.2 -2.9 0.6-4.6 3.3-3.9 6.3C171.4 141.7 173.8 143.6 176.9 142.9zM174.9 134c1.8-0.4 3.2 0.5 3.6 2.1l-6.2 1.4C172.2 135.8 173.1 134.4 174.9 134z" class="i"/><path d="M182.5 133.5l1.7 7.6 1.7-0.4 -1.1-4.8c-0.5-2.3 0.1-4 2.2-4.5 1.4-0.3 2.1 0.4 2.6 2.6l1.2 5.6 1.6-0.4 -1.3-5.7c-0.4-1.8 0.5-3.2 1.9-3.5 1.9-0.4 2.7 0.8 3 2.2l1.3 5.9 1.7-0.4 -1.3-6c-0.6-2.6-1.8-3.9-4.7-3.3 -1.5 0.3-2.3 1.2-2.7 2.6 -0.5-0.6-1.4-1.7-3.5-1.2 -1.6 0.4-2.7 1.5-2.9 2.6l0 0c-0.1-0.5-0.3-1.1-0.4-1.6l-1.6 0.3C182 131.9 182.3 132.6 182.5 133.5z" class="i"/><path d="M200.9 134.6c0.4 1.9 2.3 2.6 4.3 2.1 1.5-0.3 2.4-1.3 2.9-2.4l0 0c0.1 0.4 0.2 1 0.4 1.5l1.6-0.3c-0.2-0.5-0.4-1.1-0.5-1.7l-0.9-4.2c-0.6-2.8-2.1-3.9-5.1-3.3 -1.4 0.3-2.8 1.1-3.6 2.4l1.3 0.9c0.6-0.9 1.6-1.5 2.7-1.7 1.5-0.3 2.6 0.2 2.9 1.6l0.1 0.3 -0.6 0.1C204 130.3 200.2 131.3 200.9 134.6zM207.4 131l0.1 0.6c0.3 1.6-0.4 3.2-2.3 3.6 -1.2 0.3-2.3 0-2.6-1.2 -0.3-1.3 0.9-2.2 3-2.7L207.4 131z" class="i"/><path d="M211.9 132.2c0.4 1.9 2.3 2.6 4.3 2.1 1.5-0.3 2.4-1.3 2.9-2.4l0 0c0.1 0.4 0.2 1 0.4 1.5l1.6-0.3c-0.2-0.5-0.4-1.1-0.5-1.7l-0.9-4.3c-0.6-2.8-2.1-3.9-5.1-3.3 -1.4 0.3-2.8 1.1-3.6 2.4l1.3 0.9c0.6-0.9 1.6-1.5 2.7-1.7 1.5-0.3 2.6 0.2 2.9 1.6l0.1 0.3 -0.6 0.1C214.9 127.9 211.2 128.9 211.9 132.2zM218.3 128.6l0.1 0.6c0.3 1.6-0.4 3.2-2.3 3.6 -1.2 0.3-2.3 0-2.6-1.2 -0.3-1.3 0.9-2.2 3-2.7L218.3 128.6z" class="i"/><polygon points="225.6 132 224.5 126.8 230.5 130.9 233 130.3 226.5 126.1 230.3 120.6 227.9 121.1 224.4 126.4 222.1 116 220.5 116.3 224 132.3 " class="i"/><path d="M234.2 116.7l-1.6 0.4 0.6 2.8 -2.2 0.5 0.3 1.4 2.2-0.5 1.2 5.4c0.5 2.1 1.1 3.2 3.5 2.7 0.6-0.1 1.3-0.4 1.8-0.8l-0.4-1.5c-0.4 0.3-0.9 0.6-1.4 0.7 -1.5 0.3-1.7-0.7-2-2l-1.1-4.9 2.9-0.6 -0.3-1.4 -2.9 0.6L234.2 116.7z" class="i"/><path d="M252.2 126.4c1.8-0.4 3-1.6 3.4-2.8l0 0 0.4 1.8 1.6-0.4 -3.5-16 -1.6 0.4 1.7 7.5 0 0c-1.1-0.9-2.5-1.2-3.9-0.9 -3.1 0.7-4.7 3.3-4.1 6.3C246.7 125.2 249.4 127 252.2 126.4zM250.6 117.4c2.1-0.5 3.9 0.8 4.3 2.9 0.5 2.1-0.6 4-2.7 4.5 -2.1 0.5-3.9-0.8-4.3-2.9C247.4 119.8 248.4 117.9 250.6 117.4z" class="i"/><path d="M265.4 123.5c3-0.7 4.8-3.3 4.1-6.4 -0.7-3.1-3.4-4.7-6.4-4 -3 0.7-4.8 3.3-4.1 6.4C259.6 122.5 262.3 124.2 265.4 123.5zM263.4 114.6c2.1-0.5 3.9 0.8 4.3 2.9 0.5 2.1-0.6 4-2.7 4.5 -2.1 0.5-3.9-0.8-4.3-2.9C260.3 117 261.3 115.1 263.4 114.6z" class="i"/><path d="M277.9 120.7c3-0.7 4.8-3.3 4.1-6.4 -0.7-3.1-3.4-4.7-6.4-4 -3 0.7-4.8 3.3-4.1 6.4C272.2 119.8 274.9 121.4 277.9 120.7zM276 111.9c2.1-0.5 3.9 0.8 4.3 2.9 0.5 2.1-0.6 4-2.7 4.5 -2.1 0.5-3.9-0.8-4.3-2.9C272.8 114.2 273.8 112.3 276 111.9z" class="i"/><path d="M285.7 118.8l1.7-0.4 -1.1-4.8c-0.5-2.3 0.1-3.9 2.1-4.3 0.3-0.1 0.6-0.1 0.9-0.1l-0.3-1.7c-0.2 0-0.5 0-0.7 0 -1.6 0.4-2.7 1.5-2.9 2.6l0 0c-0.1-0.5-0.3-1.1-0.4-1.6l-1.6 0.3c0.1 0.7 0.4 1.4 0.6 2.3L285.7 118.8z" class="i"/></svg>