
<svg version="1.1" xmlns="http://www.w3.org/2000/svg" xmlns:xlink="http://www.w3.org/1999/xlink" viewBox="0 0 768 430" enable-background="new 0 0 768 430" xml:space="preserve">
<g id="Layer_1">
	<g id="iconKinderGebaren">
		<g>
			<path fill="none" d="M248.602,77.105c0.003,0.004,0.006,0.008,0.009,0.012c0.011,0.016,0.021,0.031,0.032,0.047
				c0.015,0.019,0.025,0.031,0.043,0.053C248.655,77.181,248.631,77.143,248.602,77.105z"/>
			<path fill="none" d="M421.094,148.414c8.733,0,15.815-8.003,15.815-17.876c0-9.871-7.082-17.869-15.815-17.869
				c-8.736,0-15.812,7.998-15.812,17.869C405.282,140.411,412.357,148.414,421.094,148.414z"/>
			<path fill="none" d="M457.034,178.06c-6.819,34.3-36.129,60.159-71.15,60.159c-35.019,0-64.327-25.859-71.146-60.159
				c0,0-7.913,2.967-7.598,4.425c8.306,38.593,40.447,67.44,78.744,67.44c38.363,0,70.55-28.944,78.79-67.636
				C464.972,180.892,457.034,178.06,457.034,178.06z"/>
			<path fill="none" d="M350.259,148.414c8.732,0,15.812-8.003,15.812-17.876c0-9.871-7.08-17.869-15.812-17.869
				c-8.733,0-15.813,7.998-15.813,17.869C334.445,140.411,341.525,148.414,350.259,148.414z"/>
			<path fill="#55C2C2" d="M483.208,143.593c-3.365-7.461-5.938-15.459-6.362-23.685c-0.35-6.783,0.885-13.452,3.586-19.676
				c0.773-1.781,1.658-3.503,2.626-5.175c-22.148-28.562-56.79-46.951-95.733-46.951c-38.879,0-73.471,18.328-95.624,46.811
				c2.698,3.972,4.983,8.204,6.478,12.806c2.141,6.593,2.518,13.521,1.522,20.358c-2.171,14.918-9.69,30.109-21.195,40.021
				c-3.506,3.02-7.631,5.798-12.068,7.778c3.477,63.755,56.267,114.383,120.888,114.383c66.17,0,119.936-53.086,121.05-118.994
				c-4.705-2.407-9.008-5.713-12.653-9.413C490.524,156.583,486.249,150.342,483.208,143.593z M421.094,112.669
				c8.733,0,15.815,7.998,15.815,17.869c0,9.873-7.082,17.876-15.815,17.876c-8.736,0-15.812-8.003-15.812-17.876
				C405.282,120.667,412.357,112.669,421.094,112.669z M350.259,112.669c8.732,0,15.812,7.998,15.812,17.869
				c0,9.873-7.08,17.876-15.812,17.876c-8.733,0-15.813-8.003-15.813-17.876C334.445,120.667,341.525,112.669,350.259,112.669z
				 M464.674,182.289c-8.24,38.691-40.427,67.636-78.79,67.636c-38.297,0-70.438-28.848-78.744-67.44
				c-0.315-1.458,7.598-4.425,7.598-4.425c6.819,34.3,36.128,60.159,71.146,60.159c35.021,0,64.331-25.859,71.15-60.159
				C457.034,178.06,464.972,180.892,464.674,182.289z"/>
			<path fill="#8EDDDB" d="M294.667,116.648c-0.678-6.166-3.063-11.993-6.375-17.197c-4.354-6.846-10.145-12.779-15.491-18.852
				c-4.691-5.326-9.382-10.651-14.073-15.978c-0.007-0.008-0.012-0.016-0.019-0.023c-0.666-0.722-1.485-1.636-2.276-1.348
				c-1.246,0.453-2.476,2.085-3.154,3.205c-0.82,1.354-1.394,2.873-1.35,4.479c0.044,1.622,0.768,2.667,1.645,3.927
				c2.12,3.048,4.239,6.095,6.36,9.141c2.556,3.674,5.113,7.348,7.67,11.021c0.59,0.848,1.179,1.695,1.769,2.542
				c1.094,1.573-0.318,3.73-0.934,5.233c-0.622,1.514-2.354,2.647-3.949,1.606c-0.215-0.139-0.428-0.278-0.642-0.417
				c-13.423-8.753-26.847-17.505-40.27-26.258c-4.575-2.982-9.151-5.966-13.727-8.949c-4.089-2.666-8.247,5.544-6.023,9.042
				c0.163,0.256,1.066,1.074,0.472,0.623c0.044,0.034,0.09,0.069,0.135,0.104c0.217,0.163,0.434,0.329,0.652,0.492
				c0.926,0.701,1.854,1.402,2.78,2.103c11.82,8.938,23.641,17.876,35.461,26.813c0.883,0.668,1.724,1.846,1.235,3.036
				c-0.421,1.026-0.842,2.053-1.264,3.08c-0.501,1.221-1.835,2.48-3.307,1.877c-13.341-5.474-26.681-10.946-40.022-16.419
				c-2.901-1.19-5.801-2.38-8.701-3.57c-0.543-0.222-1.087-0.445-1.631-0.668c-0.755-0.31-1.244-0.355-1.909-0.142
				c-1.171,0.378-2.223,1.262-2.884,2.297c-0.975,1.525-1.617,3.257-1.485,5.095c0.072,0.999,0.401,2.364,1.347,2.889
				c0.181,0.101,0.251,0.146,0.264,0.161c0.006,0.002,0.009,0.004,0.015,0.006c0.27,0.111,0.54,0.222,0.811,0.333
				c2.65,1.087,5.301,2.175,7.951,3.262c13.787,5.655,27.573,11.312,41.36,16.967c1.221,0.502,2.481,1.836,1.878,3.308
				c-0.422,1.027-0.843,2.053-1.265,3.079c-0.413,1.008-1.328,2.141-2.592,1.974c-10.391-1.374-20.782-2.749-31.174-4.124
				c-5.817-0.769-11.631-1.624-17.46-2.309c-3.073-0.36-5.234,2.796-5.775,5.531c-0.392,1.978-0.12,4.816,2.273,5.164
				c1.927,0.279,3.853,0.559,5.778,0.838c14.718,2.136,29.436,4.272,44.153,6.408c1.334,0.193,2.387,2.065,1.879,3.307
				c-0.422,1.026-0.844,2.053-1.265,3.08c-0.491,1.196-1.27,1.87-2.592,1.973c-10.248,0.794-20.498,1.587-30.746,2.38
				c-0.687,0.053-1.445,0.021-2.11,0.226c-2.823,0.869-4.571,4.321-4.451,7.135c0.098,2.295,1.557,3.483,4.236,3.345
				c0.729-0.038,1.459-0.055,2.188-0.077c8.572-0.265,17.144-0.528,25.715-0.792c2.633-0.082,5.266-0.163,7.898-0.243
				c1.025-0.032,2.109,0.632,3.023,1.008c2.159,0.885,4.316,1.771,6.475,2.655c3.216,1.319,6.973,3.063,10.058,3.326
				c5.126,0.437,10.102-0.793,14.77-3.187c12.573-6.445,21.139-18.729,25.624-31.864
				C294.002,131.343,295.479,124.021,294.667,116.648z"/>
			<path fill="#FFFFFF" d="M299.7,128.081c0.995-6.837,0.618-13.766-1.522-20.358c-1.494-4.602-3.779-8.834-6.478-12.806
				c-1.08-1.591-2.226-3.142-3.416-4.655c-4.147-5.274-8.805-10.193-13.236-15.226c-4.172-4.738-8.345-9.478-12.518-14.216
				c-0.079-0.089-0.16-0.169-0.241-0.243c-2.885-2.945-6.651-3.67-10.038-0.971c-3.066,2.445-5.229,6.156-5.625,10.067
				c-0.172,1.705-0.008,3.471,0.624,5.073c0.335,0.849,0.749,1.587,1.305,2.297c-0.086-0.109-0.165-0.189,0.088,0.12
				c-0.011-0.016-0.021-0.031-0.032-0.047c-0.003-0.004-0.006-0.008-0.009-0.012c0.029,0.037,0.054,0.075,0.084,0.111
				c-0.018-0.021-0.028-0.034-0.043-0.053c0.637,0.915,1.273,1.831,1.911,2.746c3.821,5.493,7.644,10.985,11.466,16.477
				c-10.302-6.717-20.604-13.434-30.905-20.15c-5.814-3.791-11.63-7.583-17.444-11.374c-0.393-0.256-0.785-0.512-1.177-0.767
				c-2.61-1.703-5.652-1.477-8.338-0.079c-6.613,3.44-8.838,14.335-2.586,19.063c10.929,8.263,21.856,16.525,32.784,24.789
				c-11.431-4.689-22.86-9.378-34.292-14.067c-2.649-1.088-5.301-2.175-7.951-3.262c-0.467-0.192-0.934-0.39-1.407-0.564
				c-3.351-1.232-7.11,0.762-9.312,3.209c-4.466,4.962-5.14,14.604,1.954,17.516c1.795,0.735,3.59,1.472,5.385,2.208
				c12.432,5.1,24.862,10.199,37.293,15.3c-12.305-1.628-24.61-3.256-36.915-4.883c-1.842-0.244-3.802-0.708-5.669-0.658
				c-8.119,0.216-12.513,11.228-8.883,17.713c1.686,3.011,4.545,3.521,7.557,3.959c3.486,0.507,6.972,1.012,10.457,1.519
				c8.949,1.299,17.898,2.598,26.847,3.896c-3.991,0.309-7.982,0.617-11.973,0.927c-3.437,0.266-6.874,0.531-10.311,0.798
				c-6.236,0.483-10.168,5.591-10.831,11.586c-0.364,3.295,1.046,6.354,3.679,8.292c1.87,1.376,4.375,1.533,6.603,1.465
				c2.918-0.091,5.834-0.181,8.751-0.27c8.399-0.259,16.796-0.518,25.194-0.776c0.261-0.008,0.521-0.017,0.782-0.024
				c1.63,0.669,3.26,1.337,4.89,2.006c3.401,1.396,6.801,3.061,10.328,4.124c6.684,2.015,13.61,0.812,19.908-2
				c4.438-1.98,8.562-4.759,12.068-7.778C290.01,158.19,297.529,142.999,299.7,128.081z M266.002,170.165
				c-4.668,2.394-9.644,3.623-14.77,3.187c-3.085-0.263-6.842-2.007-10.058-3.326c-2.158-0.885-4.315-1.771-6.475-2.655
				c-0.914-0.376-1.998-1.04-3.023-1.008c-2.633,0.08-5.266,0.161-7.898,0.243c-8.571,0.264-17.143,0.527-25.715,0.792
				c-0.729,0.022-1.459,0.039-2.188,0.077c-2.68,0.139-4.139-1.05-4.236-3.345c-0.12-2.813,1.628-6.266,4.451-7.135
				c0.665-0.205,1.424-0.173,2.11-0.226c10.248-0.793,20.498-1.586,30.746-2.38c1.322-0.103,2.101-0.776,2.592-1.973
				c0.421-1.027,0.843-2.054,1.265-3.08c0.508-1.241-0.545-3.113-1.879-3.307c-14.718-2.136-29.436-4.272-44.153-6.408
				c-1.926-0.279-3.852-0.559-5.778-0.838c-2.394-0.348-2.665-3.187-2.273-5.164c0.541-2.735,2.702-5.892,5.775-5.531
				c5.829,0.685,11.643,1.54,17.46,2.309c10.392,1.375,20.783,2.75,31.174,4.124c1.264,0.167,2.179-0.966,2.592-1.974
				c0.422-1.026,0.843-2.052,1.265-3.079c0.604-1.472-0.657-2.806-1.878-3.308c-13.787-5.655-27.573-11.312-41.36-16.967
				c-2.65-1.087-5.301-2.175-7.951-3.262c-0.271-0.111-0.541-0.222-0.811-0.333c-0.006-0.002-0.009-0.004-0.015-0.006
				c-0.013-0.016-0.083-0.061-0.264-0.161c-0.945-0.524-1.274-1.89-1.347-2.889c-0.132-1.838,0.511-3.569,1.485-5.095
				c0.661-1.035,1.713-1.919,2.884-2.297c0.665-0.214,1.154-0.168,1.909,0.142c0.544,0.223,1.088,0.446,1.631,0.668
				c2.9,1.19,5.8,2.38,8.701,3.57c13.342,5.473,26.682,10.945,40.022,16.419c1.472,0.604,2.806-0.656,3.307-1.877
				c0.422-1.027,0.843-2.054,1.264-3.08c0.488-1.19-0.353-2.368-1.235-3.036c-11.82-8.938-23.641-17.875-35.461-26.813
				c-0.927-0.7-1.854-1.401-2.78-2.103c-0.219-0.163-0.436-0.329-0.652-0.492c-0.045-0.034-0.091-0.069-0.135-0.104
				c0.595,0.451-0.309-0.367-0.472-0.623c-2.224-3.498,1.935-11.708,6.023-9.042c4.575,2.983,9.151,5.967,13.727,8.949
				c13.423,8.753,26.847,17.505,40.27,26.258c0.214,0.139,0.427,0.278,0.642,0.417c1.596,1.041,3.327-0.093,3.949-1.606
				c0.615-1.503,2.027-3.66,0.934-5.233c-0.59-0.847-1.179-1.694-1.769-2.542c-2.557-3.673-5.114-7.347-7.67-11.021
				c-2.121-3.046-4.24-6.093-6.36-9.141c-0.877-1.26-1.601-2.305-1.645-3.927c-0.044-1.606,0.529-3.126,1.35-4.479
				c0.679-1.12,1.908-2.752,3.154-3.205c0.791-0.288,1.61,0.626,2.276,1.348c0.007,0.008,0.012,0.016,0.019,0.023
				c4.691,5.326,9.382,10.651,14.073,15.978c5.347,6.072,11.137,12.006,15.491,18.852c3.312,5.204,5.697,11.031,6.375,17.197
				c0.812,7.373-0.665,14.694-3.041,21.652C287.141,151.436,278.575,163.72,266.002,170.165z"/>
			<path fill="#8EDDDB" d="M593.632,123.93c-0.27-0.041-1.094,0.08-0.373-0.022c-0.064,0.009-0.13,0.02-0.193,0.027
				c-0.286,0.041-0.571,0.081-0.856,0.122c-1.173,0.166-2.345,0.332-3.519,0.498c-14.655,2.075-29.311,4.15-43.966,6.227
				c-1.607,0.228-2.679-0.388-3.307-1.878c-0.43-1.022-0.861-2.045-1.291-3.067c-0.62-1.474,0.671-2.799,1.876-3.308
				c13.292-5.595,26.582-11.189,39.872-16.784c2.89-1.216,5.778-2.432,8.667-3.648c0.533-0.225,1.068-0.449,1.603-0.674
				c0.027-0.026,0.058-0.054,0.093-0.087c0.378-0.348,0.755-0.729,0.921-1.236c0.491-1.504,0.453-3.034-0.068-4.533
				c-0.768-2.208-3.175-5.359-5.588-4.445c-0.472,0.179-0.936,0.381-1.402,0.577c-2.64,1.112-5.28,2.224-7.92,3.335
				c-13.734,5.781-27.469,11.564-41.203,17.346c-1.475,0.62-2.8-0.672-3.308-1.877c-0.43-1.023-0.861-2.046-1.291-3.068
				c-0.5-1.19,0.364-2.365,1.235-3.035c0.242-0.188,0.483-0.375,0.727-0.562c12.28-9.463,24.56-18.926,36.84-28.39
				c0.402-0.31,0.804-0.619,1.207-0.929c-0.676,0.52,0.212-0.251,0.286-0.371c0.138-0.23,0.311-0.471,0.393-0.729
				c0.224-0.709,0.358-1.374,0.331-2.122c-0.062-1.693-0.631-3.325-1.638-4.697c-1.275-1.736-3.24-2.877-4.999-1.706
				c-0.391,0.26-0.781,0.519-1.171,0.777c-5.778,3.845-11.56,7.689-17.338,11.534c-11.957,7.953-23.914,15.906-35.87,23.859
				c-1.598,1.062-3.32-0.113-3.95-1.606c-0.613-1.458-2.055-3.623-0.999-5.169c0.454-0.666,0.909-1.331,1.362-1.997
				c2.162-3.169,4.324-6.337,6.485-9.505c2.206-3.233,4.411-6.466,6.617-9.698c0.511-0.748,1.02-1.494,1.531-2.241
				c1.215-1.782,1.554-3.531,0.87-5.653c-0.553-1.721-1.621-3.225-2.942-4.453c-0.812-0.756-1.417-1.303-2.271-0.73
				c-0.862,0.575-1.548,1.503-2.229,2.291c-2.465,2.853-4.931,5.703-7.396,8.555c-4.643,5.369-9.284,10.737-13.925,16.105
				c-0.011,0.012-0.021,0.021-0.03,0.032c-7.122,8.283-13.047,17.991-13.333,29.213c-0.161,6.324,1.135,12.531,3.225,18.479
				c2.191,6.237,5.129,12.198,9.081,17.519c3.838,5.169,8.633,9.794,14.193,13.078c4.588,2.708,9.833,4.661,14.963,4.701
				c2.473,0.02,4.333-0.199,6.764-1.075c1.261-0.454,2.486-1.009,3.723-1.529c3.606-1.518,7.215-3.036,10.824-4.556
				c0.588-0.248,1.506-0.107,2.127-0.094c1.49,0.033,2.98,0.064,4.471,0.097c4.609,0.101,9.218,0.199,13.828,0.3
				c4.209,0.09,8.417,0.181,12.626,0.271c0.987,0.021,1.977,0.043,2.963,0.064c1.718,0.037,3.597-0.117,4.311-1.366
				c1.167-2.041,0.287-5.572-1.58-7.492c-1.009-1.039-2.065-1.632-3.479-1.728c-3.438-0.235-6.879-0.47-10.317-0.704
				c-7.173-0.488-14.346-0.979-21.519-1.467c-1.33-0.09-2.092-0.787-2.592-1.974c-0.431-1.022-0.861-2.045-1.293-3.067
				c-0.523-1.246,0.557-3.104,1.878-3.308c10.17-1.57,20.339-3.142,30.509-4.712c6.416-0.991,12.832-1.982,19.247-2.975
				c1.811-0.279,2.519-1.913,2.476-3.657C598.528,128.17,596.771,124.414,593.632,123.93z"/>
			<path fill="#FFFFFF" d="M600.767,122.374c-2.121-2.746-5.508-4.134-8.906-3.652c-0.535,0.074-1.07,0.15-1.605,0.227
				c-3.202,0.453-6.403,0.906-9.604,1.36c-9.857,1.396-19.716,2.791-29.574,4.188c11.187-4.709,22.373-9.419,33.56-14.128
				c2.64-1.111,5.281-2.223,7.921-3.335c0.575-0.241,1.167-0.465,1.731-0.729c3.448-1.614,4.825-5.606,4.558-9.192
				c-0.304-4.042-2.458-7.714-5.763-10.018c-2.047-1.429-5.053-1.995-7.396-1.009c-1.787,0.752-3.576,1.507-5.362,2.258
				c-12.595,5.303-25.188,10.604-37.781,15.906c9.666-7.449,19.33-14.898,28.998-22.348c1.597-1.23,3.526-2.425,4.908-3.908
				c5.497-5.897,0.876-16.956-6.42-18.791c-3.021-0.76-5.329,0.611-7.678,2.174c-2.433,1.618-4.867,3.238-7.301,4.857
				c-13.418,8.924-26.835,17.85-40.253,26.773c3.247-4.759,6.495-9.518,9.743-14.277c0.938-1.376,1.878-2.754,2.817-4.131
				c0.219-0.32,0.438-0.641,0.656-0.96c0.035-0.054,0.071-0.105,0.107-0.158c-0.538,0.79,0.33-0.427,0.444-0.591
				c0.341-0.485,0.582-1.085,0.793-1.632c1.383-3.604,0.513-7.788-1.468-10.992c-1.935-3.126-5.203-6.327-9.149-5.777
				c-3.064,0.426-5.04,3.259-6.932,5.448c-2.563,2.965-5.128,5.93-7.691,8.896c-4.131,4.775-8.261,9.552-12.39,14.328
				c-3.204,3.722-6.215,7.646-8.674,11.896c-0.968,1.672-1.853,3.394-2.626,5.175c-2.701,6.224-3.936,12.893-3.586,19.676
				c0.424,8.226,2.997,16.224,6.362,23.685c3.041,6.749,7.316,12.99,12.513,18.264c3.646,3.7,7.948,7.006,12.653,9.413
				c6.025,3.083,12.711,4.694,19.528,3.775c3.654-0.492,7.037-2.224,10.4-3.64c2.106-0.886,4.213-1.773,6.321-2.66
				c0.521-0.219,1.041-0.438,1.561-0.657c7.654,0.164,15.308,0.331,22.961,0.495c3.598,0.078,7.194,0.156,10.792,0.235
				c1.109,0.023,2.222,0.087,3.327-0.045c3.521-0.422,6.193-2.377,7.438-5.716c1.247-3.341,0.094-7.486-1.733-10.365
				c-1.799-2.834-4.729-4.916-8.12-5.147c-2.654-0.181-5.307-0.361-7.959-0.543c-4.994-0.34-9.987-0.681-14.981-1.021
				c11.327-1.751,22.654-3.501,33.982-5.251c1.922-0.297,3.846-0.594,5.769-0.892c3.079-0.475,5.18-3.203,5.972-6.034
				C604.757,129.785,603.217,125.544,600.767,122.374z M596.121,134.67c-6.415,0.992-12.831,1.983-19.247,2.975
				c-10.17,1.57-20.339,3.142-30.509,4.712c-1.321,0.204-2.401,2.062-1.878,3.308c0.432,1.022,0.862,2.045,1.293,3.067
				c0.5,1.187,1.262,1.884,2.592,1.974c7.173,0.488,14.346,0.979,21.519,1.467c3.438,0.234,6.879,0.469,10.317,0.704
				c1.414,0.096,2.471,0.688,3.479,1.728c1.867,1.92,2.747,5.451,1.58,7.492c-0.714,1.249-2.593,1.403-4.311,1.366
				c-0.986-0.021-1.976-0.043-2.963-0.064c-4.209-0.091-8.417-0.182-12.626-0.271c-4.61-0.101-9.219-0.199-13.828-0.3
				c-1.49-0.032-2.98-0.063-4.471-0.097c-0.621-0.014-1.539-0.154-2.127,0.094c-3.609,1.52-7.218,3.038-10.824,4.556
				c-1.236,0.521-2.462,1.075-3.723,1.529c-2.431,0.876-4.291,1.095-6.764,1.075c-5.13-0.04-10.375-1.993-14.963-4.701
				c-5.561-3.284-10.355-7.909-14.193-13.078c-3.952-5.32-6.89-11.281-9.081-17.519c-2.09-5.948-3.386-12.155-3.225-18.479
				c0.286-11.222,6.211-20.93,13.333-29.213c0.01-0.011,0.02-0.021,0.03-0.032c4.641-5.368,9.282-10.736,13.925-16.105
				c2.466-2.852,4.932-5.702,7.396-8.555c0.682-0.788,1.367-1.716,2.229-2.291c0.854-0.572,1.459-0.025,2.271,0.73
				c1.321,1.229,2.39,2.732,2.942,4.453c0.684,2.122,0.345,3.871-0.87,5.653c-0.512,0.747-1.021,1.493-1.531,2.241
				c-2.206,3.232-4.411,6.465-6.617,9.698c-2.161,3.168-4.323,6.336-6.485,9.505c-0.453,0.666-0.908,1.331-1.362,1.997
				c-1.056,1.546,0.386,3.711,0.999,5.169c0.63,1.493,2.353,2.669,3.95,1.606c11.956-7.953,23.913-15.906,35.87-23.859
				c5.778-3.845,11.56-7.689,17.338-11.534c0.39-0.259,0.78-0.518,1.171-0.777c1.759-1.171,3.724-0.03,4.999,1.706
				c1.007,1.372,1.575,3.004,1.638,4.697c0.027,0.748-0.107,1.413-0.331,2.122c-0.082,0.258-0.255,0.498-0.393,0.729
				c-0.074,0.12-0.962,0.891-0.286,0.371c-0.403,0.31-0.805,0.619-1.207,0.929c-12.28,9.464-24.56,18.927-36.84,28.39
				c-0.243,0.187-0.484,0.374-0.727,0.562c-0.871,0.67-1.735,1.845-1.235,3.035c0.43,1.022,0.861,2.045,1.291,3.068
				c0.508,1.205,1.833,2.497,3.308,1.877c13.734-5.781,27.469-11.564,41.203-17.346c2.64-1.111,5.28-2.223,7.92-3.335
				c0.467-0.196,0.931-0.398,1.402-0.577c2.413-0.914,4.82,2.237,5.588,4.445c0.521,1.499,0.56,3.029,0.068,4.533
				c-0.166,0.507-0.543,0.889-0.921,1.236c-0.035,0.033-0.065,0.061-0.093,0.087c-0.534,0.225-1.069,0.449-1.603,0.674
				c-2.889,1.217-5.777,2.433-8.667,3.648c-13.29,5.595-26.58,11.189-39.872,16.784c-1.205,0.509-2.496,1.834-1.876,3.308
				c0.43,1.022,0.861,2.045,1.291,3.067c0.628,1.49,1.699,2.105,3.307,1.878c14.655-2.076,29.311-4.151,43.966-6.227
				c1.174-0.166,2.346-0.332,3.519-0.498c0.285-0.041,0.57-0.081,0.856-0.122c0.063-0.008,0.129-0.019,0.193-0.027
				c-0.721,0.103,0.104-0.019,0.373,0.022c3.139,0.484,4.896,4.24,4.965,7.083C598.64,132.757,597.932,134.391,596.121,134.67z"/>
		</g>
	</g>
</g>
<g id="Layer_3">
	<path fill="#55C2C2" d="M467.413,249.2c0,2.927-2.238,5.3-5,5.3H314.862c-2.761,0-5-2.373-5-5.3V92.8c0-2.927,2.239-5.3,5-5.3
		h147.551c2.762,0,5,2.373,5,5.3V249.2z"/>
</g>
<g id="Layer_2">
	<g id="inner_circle">
		<g id="Layer_7_1_">
			<g id="Layer_1_1_">
				<g>
					<polygon fill="#F64B8D" stroke="#FFFFFF" stroke-width="3" stroke-miterlimit="10" points="451.436,168.346 399.466,199.442 
						345.84,231.245 345.84,169.194 345.84,107.125 398.639,137.407 					"/>
				</g>
			</g>
		</g>
	</g>
</g>
</svg>
