<svg version="1.1" id="Layer_1" xmlns="http://www.w3.org/2000/svg" xmlns:xlink="http://www.w3.org/1999/xlink" viewBox="0 0 768 430" enable-background="new 0 0 768 430" xml:space="preserve">
<g display="none">
	<rect x="1.778" display="inline" fill="#FFFFFF" width="764.445" height="428.01"/>
</g>
<circle fill="#F64B8D" cx="384" cy="138.893" r="70.671"/>
<path fill="#FFFFFF" d="M454.671,138.894h-4.181c0,18.315-7.465,34.938-19.409,46.981c-12.044,12.044-28.567,19.41-46.981,19.41
	c-18.315,0-34.938-7.466-46.981-19.41c-12.044-12.044-19.41-28.567-19.41-46.981c0-18.315,7.465-34.938,19.41-46.981
	c12.044-12.044,28.567-19.41,46.981-19.41c18.314,0,34.938,7.465,46.981,19.41c12.044,12.044,19.409,28.567,19.409,46.981H454.671
	h4.181c0-20.604-8.36-39.417-21.897-52.954S404.703,64.042,384,64.042c-20.604,0-39.417,8.361-52.954,21.898
	s-21.898,32.25-21.898,52.954c0,20.604,8.361,39.417,21.898,52.954s32.25,21.897,52.954,21.897c20.604,0,39.417-8.36,52.954-21.897
	s21.897-32.25,21.897-52.954H454.671z"/>
<polygon fill="#FFFFFF" points="423.417,138.396 394.152,156.014 363.894,173.931 363.894,138.894 363.894,103.856 393.655,120.977 
	"/>
</svg>
