<svg version="1.1" id="Layer_1" xmlns="http://www.w3.org/2000/svg" xmlns:xlink="http://www.w3.org/1999/xlink" viewBox="0 0 768 430" enable-background="new 0 0 768 430" xml:space="preserve">
<g id="hands">
	<g id="Layer_1_1_">
		<g id="iconKinderGebaren">
			<g>
				<path fill="none" d="M248.602,130.105c0.003,0.004,0.006,0.008,0.009,0.012c0.011,0.016,0.021,0.031,0.032,0.047
					c0.015,0.019,0.025,0.031,0.043,0.053C248.655,130.181,248.631,130.143,248.602,130.105z"/>
				<path opacity="0.3" fill="#FFFFFF" enable-background="new    " d="M288.667,163.999c-0.678-6.166-3.063-11.993-6.375-17.197
					c-4.354-6.846-10.145-12.779-15.491-18.852c-4.691-5.326-9.382-10.651-14.073-15.978c-0.007-0.008-0.012-0.016-0.019-0.023
					c-0.666-0.722-1.485-1.636-2.276-1.348c-1.246,0.453-2.476,2.085-3.154,3.205c-0.82,1.354-1.394,2.873-1.35,4.479
					c0.044,1.622,0.768,2.667,1.645,3.927c2.12,3.048,4.239,6.095,6.36,9.141c2.556,3.674,5.113,7.348,7.67,11.021
					c0.59,0.848,1.179,1.695,1.769,2.542c1.094,1.573-0.318,3.73-0.934,5.233c-0.622,1.514-2.354,2.647-3.949,1.606
					c-0.215-0.139-0.428-0.278-0.642-0.417c-13.424-8.753-26.848-17.505-40.27-26.258c-4.575-2.982-9.151-5.966-13.727-8.949
					c-4.089-2.666-8.247,5.544-6.023,9.042c0.163,0.256,1.066,1.074,0.472,0.623c0.044,0.034,0.09,0.069,0.135,0.104
					c0.217,0.163,0.434,0.329,0.652,0.492c0.926,0.701,1.854,1.402,2.78,2.103c11.82,8.938,23.641,17.876,35.461,26.813
					c0.883,0.668,1.724,1.846,1.235,3.036c-0.421,1.026-0.842,2.053-1.264,3.08c-0.501,1.221-1.835,2.48-3.307,1.877
					c-13.341-5.474-26.681-10.946-40.022-16.419c-2.901-1.19-5.801-2.38-8.701-3.57c-0.543-0.222-1.087-0.445-1.631-0.668
					c-0.755-0.31-1.244-0.355-1.909-0.142c-1.171,0.378-2.223,1.262-2.884,2.297c-0.975,1.525-1.617,3.257-1.485,5.095
					c0.072,0.999,0.401,2.364,1.347,2.889c0.181,0.101,0.251,0.146,0.264,0.161c0.006,0.002,0.009,0.004,0.015,0.006
					c0.27,0.111,0.54,0.222,0.811,0.333c2.65,1.087,5.301,2.175,7.951,3.262c13.787,5.655,27.573,11.312,41.36,16.967
					c1.221,0.502,2.481,1.836,1.878,3.308c-0.422,1.027-0.843,2.053-1.265,3.079c-0.413,1.008-1.328,2.141-2.592,1.974
					c-10.391-1.374-20.782-2.749-31.174-4.124c-5.817-0.769-11.631-1.624-17.46-2.309c-3.073-0.36-5.234,2.796-5.775,5.531
					c-0.392,1.979-0.12,4.816,2.273,5.164c1.927,0.279,3.853,0.559,5.778,0.838c14.718,2.136,29.436,4.272,44.153,6.408
					c1.334,0.193,2.387,2.065,1.879,3.307c-0.422,1.026-0.844,2.053-1.265,3.08c-0.491,1.196-1.27,1.87-2.592,1.973
					c-10.248,0.794-20.498,1.587-30.746,2.38c-0.687,0.053-1.445,0.021-2.11,0.226c-2.823,0.869-4.571,4.321-4.451,7.135
					c0.098,2.295,1.557,3.483,4.236,3.345c0.729-0.038,1.459-0.055,2.188-0.077c8.572-0.265,17.144-0.528,25.715-0.792
					c2.633-0.082,5.266-0.163,7.898-0.243c1.025-0.032,2.109,0.632,3.023,1.008c2.159,0.884,4.316,1.771,6.475,2.655
					c3.216,1.319,6.973,3.063,10.058,3.326c5.126,0.437,10.102-0.793,14.77-3.187c12.573-6.446,21.139-18.729,25.624-31.865
					C288.001,178.694,289.479,171.372,288.667,163.999z"/>
				<path opacity="0.3" fill="#FFFFFF" enable-background="new    " d="M593.46,181.234c-6.415,0.992-12.831,1.983-19.247,2.975
					c-10.17,1.57-20.339,3.142-30.509,4.712c-1.321,0.204-2.401,2.062-1.878,3.308c0.432,1.022,0.861,2.045,1.293,3.067
					c0.5,1.187,1.262,1.884,2.592,1.974c7.173,0.488,14.346,0.979,21.521,1.467c3.438,0.234,6.879,0.469,10.315,0.704
					c1.414,0.096,2.471,0.688,3.479,1.728c1.866,1.92,2.746,5.451,1.579,7.492c-0.716,1.249-2.595,1.403-4.312,1.366
					c-0.986-0.021-1.976-0.043-2.963-0.064c-4.209-0.091-8.417-0.182-12.626-0.271c-4.61-0.101-9.219-0.199-13.828-0.3
					c-1.49-0.032-2.979-0.063-4.471-0.097c-0.621-0.014-1.539-0.154-2.127,0.094c-3.609,1.52-7.22,3.038-10.824,4.556
					c-1.236,0.521-2.462,1.075-3.723,1.529c-2.434,0.875-4.291,1.094-6.767,1.075c-5.13-0.04-10.375-1.993-14.963-4.701
					c-5.561-3.284-10.354-7.909-14.193-13.078c-3.949-5.32-6.89-11.281-9.079-17.519c-2.092-5.948-3.388-12.155-3.227-18.479
					c0.286-11.222,6.211-20.93,13.333-29.213c0.01-0.011,0.021-0.021,0.03-0.032c4.641-5.368,9.282-10.736,13.925-16.105
					c2.466-2.852,4.932-5.702,7.396-8.555c0.683-0.788,1.365-1.716,2.229-2.291c0.854-0.572,1.459-0.025,2.271,0.73
					c1.319,1.229,2.391,2.732,2.94,4.453c0.687,2.122,0.345,3.871-0.87,5.653c-0.512,0.747-1.021,1.493-1.53,2.241
					c-2.204,3.232-4.409,6.465-6.615,9.698c-2.161,3.168-4.323,6.336-6.485,9.505c-0.453,0.666-0.908,1.331-1.362,1.997
					c-1.056,1.546,0.389,3.711,0.999,5.169c0.631,1.493,2.354,2.669,3.95,1.606c11.956-7.953,23.913-15.906,35.87-23.859
					c5.778-3.845,11.561-7.689,17.338-11.534c0.393-0.259,0.78-0.518,1.171-0.777c1.761-1.171,3.727-0.03,4.999,1.706
					c1.008,1.372,1.575,3.004,1.641,4.697c0.024,0.748-0.107,1.413-0.331,2.122c-0.082,0.258-0.255,0.498-0.396,0.729
					c-0.073,0.12-0.962,0.891-0.286,0.371c-0.4,0.31-0.805,0.619-1.206,0.929c-12.278,9.464-24.561,18.927-36.841,28.39
					c-0.243,0.187-0.481,0.374-0.727,0.562c-0.871,0.67-1.735,1.845-1.235,3.035c0.432,1.022,0.861,2.045,1.291,3.068
					c0.508,1.205,1.833,2.497,3.311,1.877c13.731-5.781,27.469-11.564,41.201-17.346c2.642-1.111,5.279-2.223,7.92-3.335
					c0.469-0.196,0.933-0.398,1.401-0.577c2.413-0.914,4.82,2.237,5.588,4.445c0.521,1.499,0.562,3.029,0.068,4.533
					c-0.166,0.507-0.543,0.889-0.921,1.236c-0.035,0.033-0.065,0.061-0.094,0.087c-0.533,0.225-1.068,0.449-1.604,0.674
					c-2.889,1.217-5.777,2.433-8.667,3.648c-13.29,5.595-26.58,11.189-39.872,16.784c-1.205,0.509-2.496,1.834-1.876,3.308
					c0.431,1.022,0.861,2.045,1.291,3.067c0.628,1.49,1.699,2.105,3.308,1.878c14.654-2.076,29.312-4.151,43.968-6.227
					c1.174-0.166,2.346-0.332,3.519-0.498c0.285-0.041,0.57-0.081,0.856-0.122c0.062-0.008,0.129-0.019,0.19-0.027
					c-0.721,0.103,0.104-0.019,0.373,0.022c3.14,0.484,4.896,4.24,4.965,7.083C595.979,179.321,595.271,180.955,593.46,181.234z"/>
			</g>
		</g>
	</g>
</g>
<g id="play">
	<g>
		<path fill="#FFFFFF" d="M426.118,221.475l-52.451-38.33c-1.925-1.403-4.481-1.614-6.59-0.524
			c-2.126,1.082-3.454,3.279-3.454,5.654v76.635c0,2.4,1.328,4.589,3.454,5.671c0.899,0.457,1.883,0.687,2.875,0.687
			c1.295,0,2.605-0.414,3.715-1.233l52.451-38.298c1.656-1.227,2.623-3.117,2.623-5.131
			C428.749,224.559,427.757,222.675,426.118,221.475z"/>
		<path fill="#FFFFFF" d="M384.46,99.486c-69.766,0-126.303,56.837-126.303,126.975c0,70.114,56.537,126.934,126.303,126.934
			c69.75,0,126.295-56.83,126.295-126.934C510.763,156.323,454.21,99.486,384.46,99.486z M384.46,332.209
			c-58.1,0-105.205-47.33-105.205-105.749c0-58.391,47.105-105.781,105.205-105.781c58.092,0,105.188,47.381,105.188,105.781
			C489.657,284.879,442.552,332.209,384.46,332.209z"/>
	</g>
</g>
</svg>
