<svg xmlns="http://www.w3.org/2000/svg" viewBox="0 0 768 215"><style>.a{fill:#FFF;}</style><rect x="192.9" width="382.2" height="214" class="a"/><circle cx="384" cy="75.4" r="35.3" fill="#F64B8D"/><path d="M419.3 75.4h-2.1c0 9.2-3.7 17.5-9.7 23.5 -6 6-14.3 9.7-23.5 9.7 -9.2 0-17.5-3.7-23.5-9.7 -6-6-9.7-14.3-9.7-23.5 0-9.2 3.7-17.5 9.7-23.5 6-6 14.3-9.7 23.5-9.7 9.2 0 17.5 3.7 23.5 9.7 6 6 9.7 14.3 9.7 23.5H419.3h2.1c0-10.3-4.2-19.7-10.9-26.5 -6.8-6.8-16.1-10.9-26.5-10.9 -10.3 0-19.7 4.2-26.5 10.9 -6.8 6.8-10.9 16.1-10.9 26.5 0 10.3 4.2 19.7 10.9 26.5s16.1 10.9 26.5 10.9c10.3 0 19.7-4.2 26.5-10.9 6.8-6.8 10.9-16.1 10.9-26.5H419.3z" class="a"/><polygon points="403.7 75.2 389.1 84 373.9 93 373.9 75.4 373.9 57.9 388.8 66.5 " class="a"/></svg>