<svg version="1.1" xmlns="http://www.w3.org/2000/svg" xmlns:xlink="http://www.w3.org/1999/xlink" viewBox="0.479 0 767.521 430" enable-background="new 0.479 0 767.521 430"
	 xml:space="preserve">
<g id="wit_verloop">
	<linearGradient id="SVGID_1_" gradientUnits="userSpaceOnUse" x1="384.2397" y1="263.1328" x2="384.2397" y2="13.5005">
		<stop  offset="0" style="stop-color:#FFFFFF"/>
		<stop  offset="1" style="stop-color:#FFFFFF;stop-opacity:0"/>
	</linearGradient>
	<rect x="0.479" y="13.5" fill="url(#SVGID_1_)" width="767.521" height="249.633"/>
</g>
<g id="Layer_9">
	<path fill="#75A3D6" d="M11.58,318.092C24.997,295.316,173.505,11.796,173.505,11.796l168.616,306.296H11.58z"/>
	<polygon fill="#FFFFFF" points="141.933,71.916 163.951,57.901 176.85,71.916 189.431,57.901 206.392,71.598 173.466,11.796 	"/>
	<path fill="#3167B1" d="M-95.813,378.205C-82.396,355.43,66.113,71.909,66.113,71.909l168.616,306.296H-95.813z"/>
	<polygon fill="#FFFFFF" points="34.58,132.029 56.597,118.014 69.458,132.029 82.039,118.014 99.041,131.71 66.113,71.909 	"/>
</g>
<g id="bergen">
	<linearGradient id="SVGID_2_" gradientUnits="userSpaceOnUse" x1="-286.3467" y1="275.4268" x2="705.5293" y2="275.4268">
		<stop  offset="0" style="stop-color:#CCCCCC"/>
		<stop  offset="0.5102" style="stop-color:#AAAAAA;stop-opacity:0.949"/>
		<stop  offset="1" style="stop-color:#8E8E8E;stop-opacity:0.9"/>
	</linearGradient>
	<path fill="url(#SVGID_2_)" d="M704.732,349.854h-990.868c0,0-0.578-10.486,0.179-47.213
		c586.561-8.062,531.092-190.347,990.868-46.582C706.399,271.287,704.732,349.853,704.732,349.854L704.732,349.854z"/>
	<path fill="#D1D1D1" d="M912.166,355.854H130.82c0,0-0.456-10.486,0.141-47.213c462.531-8.062,418.791-190.347,781.346-46.582
		C913.48,277.287,912.166,355.853,912.166,355.854L912.166,355.854z"/>
	<linearGradient id="SVGID_3_" gradientUnits="userSpaceOnUse" x1="367.7524" y1="430" x2="367.7524" y2="232.166">
		<stop  offset="0" style="stop-color:#55C2C2"/>
		<stop  offset="1" style="stop-color:#B6D890"/>
	</linearGradient>
	<path fill="url(#SVGID_3_)" d="M769.87,430H-34.325c0,0-0.476-150.449,0.136-176.261c258.898-74.485,434.899,66.098,804.194,87.501
		C769.394,403.791,769.87,430,769.87,430z"/>
</g>
<g id="vogel">
	<path fill="#8C6238" stroke="#8C6238" stroke-width="0.0938" d="M139.073,330.096c2.22-1.088,4.76-0.982,7.168-1.024
		c2.34-0.053,4.494,1.621,6.845,0.932c3.238-0.847,6.684-1.491,9.961-0.442c-2.049,1.125-3.984,2.453-6.058,3.531
		c-1.021,0.58-2.228,0.897-3.072,1.742c-1.173,1.806-1.403,4.036-1.668,6.126c0.316,0.873,1.133,1.418,1.789,2.038
		c2.239,1.856,3.252,4.703,4.221,7.351c1.118,6.047-1.472,12.17-5.309,16.754c-3.011,3.335-6.409,6.549-10.649,8.228
		c-2.355,0.983-4.846,1.578-7.288,2.292c1.445,1.986,2.974,3.926,4.792,5.589c1.315,1.178,2.207,2.856,3.802,3.699
		c2.391,0.557,4.859-0.451,7.257,0.027c1.036,0.207,1.724,1.048,2.208,1.935c-1.092-0.279-2.135-0.736-3.25-0.921
		c-0.737-0.065-1.148,0.672-1.647,1.081c1.164,0.484,2.517,0.718,3.452,1.627c0.561,0.529,0.396,1.357,0.451,2.054
		c-0.611-0.486-1.198-0.986-1.785-1.486c-2.431,0.501-4.885-0.098-7.145-0.989c0.311,1.267-0.055,2.507-0.841,3.522
		c-0.021-0.837-0.018-1.677-0.004-2.508c-0.74-0.165-1.506-0.238-2.2-0.556c-1.003-0.847-1.112-3.011-2.806-2.691
		c-1.72,0.007-4.078,0.38-5.055-1.435c-0.87-1.617-2.782-0.347-4.017,0.053c0.138-0.801,0.245-1.809,1.179-2.064
		c1.988-0.832,3.758,0.729,5.59,1.241c0.824,0.31,1.683-0.011,2.485-0.229c-0.797-2.841-2.525-5.276-4.51-7.406
		c-1.697,0.039-3.402,0.27-5.085,0.007c-1.483-0.226-2.933-0.596-4.384-0.936c0.61,2.916,1.47,5.775,2.399,8.603
		c0.566,1.749,1.467,3.371,2.487,4.892c0.674,1.114,2.042,1.395,3.224,1.646c1.749,0.368,3.6,0.23,5.296,0.858
		c0.855,0.314,1.276,1.178,1.768,1.882c-2.381-0.942-4.968-0.555-7.449-0.435c1.322,0.69,2.833,0.868,4.182,1.496
		c1.083,0.529,1.359,1.776,1.542,2.859c-0.604-0.553-1.186-1.128-1.766-1.698c-3.081,0.659-5.787-1.503-7.657-3.695
		c0.29,1.676,0.395,3.394,0.005,5.068c-0.143,0.078-0.428,0.24-0.57,0.316c-0.5-2.201-1.566-4.254-1.63-6.552
		c-0.594-0.437-1.401-0.725-1.665-1.469c-0.416-0.968-0.752-1.961-1.118-2.94c0.77,0.34,1.5,0.763,2.207,1.232
		c-0.162-3.585-1.885-6.799-2.85-10.192c-0.344-1.387-1.473-2.296-2.544-3.128c-1.296-0.994-2.124-2.479-3.498-3.374
		c-0.715-0.479-1.422-0.965-2.102-1.486c-1.939,0.045-3.895,0.111-5.777,0.604c-2.33,0.604-4.805,1.115-7.189,0.511
		c-0.944-0.266-1.916-1.202-1.631-2.257c0.327-0.976,1.264-1.538,2.046-2.128c2.029-1.426,3.958-2.984,6.004-4.388
		c0.786-0.496,1.302-1.277,1.671-2.113c0.972-2.201,2.67-3.942,4.225-5.735c2.328-2.709,5.465-4.507,8.103-6.875
		c1.71-1.393,3.491-2.709,5.395-3.831c2.82-1.537,4.047-4.711,5.377-7.454C133.416,334.288,135.9,331.565,139.073,330.096
		 M144.964,333.241c-0.962,0.237-1.793,0.917-2.237,1.8c-1,1.875,0.241,4.501,2.364,4.829c2.111,0.556,4.304-1.373,4.107-3.525
		C149.137,334.275,146.957,332.682,144.964,333.241z"/>
	<path d="M618.736,75.636c3.424,0,6.49,1.313,8.521,3.345c1.99-1.514,4.618-2.469,7.564-2.469c1.673,0,3.305,0.318,4.738,0.876
		c-1.633-1.394-3.743-2.27-6.052-2.27c-2.429,0-4.658,0.956-6.291,2.469c-1.712-2.03-4.26-3.345-7.127-3.345
		c-2.309,0-4.419,0.836-6.052,2.27C615.472,75.956,617.064,75.636,618.736,75.636L618.736,75.636z"/>
	<path d="M656.401,59.432c3.424,0,6.489,1.314,8.521,3.344c1.99-1.513,4.618-2.468,7.564-2.468c1.672,0,3.305,0.318,4.738,0.876
		c-1.633-1.394-3.743-2.27-6.052-2.27c-2.429,0-4.659,0.956-6.291,2.469c-1.712-2.031-4.261-3.345-7.127-3.345
		c-2.31,0-4.419,0.836-6.052,2.27C653.097,59.75,654.689,59.432,656.401,59.432z"/>
</g>
<g id="Layer_10">
	<polygon fill="#55C2C2" points="641.893,324.411 663.273,263.133 684.653,324.411 	"/>
	<rect x="658.933" y="324.411" fill="#8C6238" stroke="#8C6238" stroke-width="0.0938" width="8.68" height="8.68"/>
	<polygon fill="#8C6238" stroke="#8C6238" stroke-width="0.0938" points="709.295,330.877 717.975,327.877 717.975,339.557 
		709.295,339.557 	"/>
	<polygon fill="#55C2C2" points="692.892,330.544 714.272,261.266 735.652,330.544 	"/>
</g>
<g id="Layer_13">
	<g transform="translate(-101.39 -142.62)">
		<g>
			<path fill="#75A3D6" d="M678.105,541.035c-1.016,3.797-4.081,7.112-7.833,8.384c-3.507,1.142-7.82-0.928-8.707-4.484
				c-0.61-3.157,1.083-6.408,3.586-8.315c1.929-1.509,4.438-1.798,6.797-2.388c-3.465-0.182-6.938-1.505-9.211-4.062
				c-1.409-1.473-2.688-3.532-2.242-5.623c0.719-3.076,4.451-5.02,7.544-3.957c3.84,1.279,6.364,4.655,8.319,7.97
				c-0.742-0.953-1.334-2.362-1.504-3.538c-0.279-4.811,3.262-9.502,8.074-10.603c1.019-0.282,2.138,0.118,2.833,0.927
				c1.865,2,2.846,4.854,2.239,7.491c-0.854,2.84-2.808,5.079-4.844,7.217c1.78-2.156,3.942-3.883,6.911-4.515
				c3.788-0.818,8.47,0.052,10.669,3.501c1.44,1.999,0.538,4.947-1.449,6.225c-2.229,1.408-4.966,1.573-7.515,1.792
				c-2.209,0.288-4.673-0.801-6.781-1.205c1.925,0.443,4.4,0.917,5.685,2.185c1.98,1.974,3.861,4.61,2.967,7.484
				c-1.039,3.195-4.561,6.282-8.172,5.021c-3.759-1.346-6.218-5.89-7.366-9.508V541.035z"/>
			<path fill="#FFFFFF" d="M682.097,529.75c3.216,2.352,2.914,7.854-0.478,9.911c-3.074,2.121-7.906,0.664-9.089-2.936
				c-1.329-3.147,0.593-7.19,3.95-8.038C678.352,528.103,680.491,528.539,682.097,529.75L682.097,529.75z"/>
			<path fill="#84AA70" stroke="#84AA70" stroke-width="0.073" d="M670.779,573.62c0.298-19.639,6.215-18.824,7.323-32.755
				C679.561,550.614,673.639,552.595,670.779,573.62z"/>
		</g>
	</g>
	<g transform="translate(-101.39 -142.62)">
		<g>
			<path fill="#F64B8D" d="M646.696,536.775c-0.352,4.208-2.96,8.297-6.685,10.354c-3.49,1.875-8.444,0.509-10.059-3.082
				c-1.247-3.222-0.076-6.981,2.207-9.474c1.752-1.963,4.35-2.746,6.731-3.819c-3.698,0.468-7.621-0.27-10.512-2.541
				c-1.771-1.288-3.516-3.222-3.442-5.518c0.175-3.389,3.75-6.154,7.223-5.62c4.303,0.622,7.614,3.71,10.313,6.842
				c-0.966-0.867-1.861-2.244-2.265-3.454c-1.211-5.032,1.64-10.667,6.517-12.747c1.024-0.492,2.283-0.282,3.173,0.44
				c2.353,1.76,3.933,4.59,3.794,7.493c-0.362,3.165-2.002,5.904-3.747,8.552c1.472-2.618,3.429-4.855,6.447-6.089
				c3.849-1.586,8.964-1.559,11.946,1.67c1.902,1.839,1.511,5.127-0.348,6.857c-2.089,1.913-4.95,2.608-7.604,3.325
				c-2.279,0.725-5.093,0.043-7.398,0.017c2.119,0.103,4.826,0.132,6.426,1.228c2.47,1.709,4.961,4.139,4.562,7.348
				c-0.49,3.576-3.626,7.51-7.684,6.865c-4.229-0.708-7.695-5.043-9.598-8.649V536.775z"/>
			<path fill="#FFFFFF" d="M648.767,524.085c3.849,1.873,4.577,7.747,1.383,10.568c-2.847,2.828-8.232,2.208-10.168-1.372
				c-2.005-3.075-0.743-7.715,2.646-9.25C644.494,523.057,646.838,523.109,648.767,524.085L648.767,524.085z"/>
			<path fill="#84AA70" stroke="#84AA70" stroke-width="0.0784" d="M661.041,546.317c3.285,13.901-8.215,17.842-16.714,22.132
				C646.424,559.82,644.866,549.136,661.041,546.317z"/>
			<path fill="#84AA70" stroke="#84AA70" stroke-width="0.0784" d="M623.118,548.964c-0.281,14.027,13.301,16.163,21.774,20.439
				C642.638,560.632,637.084,549.111,623.118,548.964z"/>
			<path fill="#84AA70" stroke="#84AA70" stroke-width="0.0784" d="M644.892,575.786c-3.425-20.819,3.249-24.251,1.768-39.19
				C650.059,546.625,643.911,553.013,644.892,575.786z"/>
		</g>
	</g>
</g>
</svg>
