<svg version="1.1" xmlns="http://www.w3.org/2000/svg" xmlns:xlink="http://www.w3.org/1999/xlink" viewBox="0 0 130 90" enable-background="new 0 0 130 90" xml:space="preserve">
<g id="Layer_1" display="none">
	<g id="Layer_1_1_" display="inline">
		<path fill="#DDE5CE" d="M101.32,44.81c0.01-0.36,0.02-0.73,0.02-1.09c0-21.01-16.199-38.04-36.18-38.04
			c-19.98,0-36.18,17.03-36.18,38.04c0,0.34,0,0.68,0.01,1.021c-29.97,6.31-26.27,37.369-7.26,37.9
			c-1.13-10.301,1.47-21.281,8.4-29.16C34.15,70.58,48.31,85,65.16,85c16.74,0,30.83-14.24,34.96-31.22
			c6.72,7.86,9.239,18.68,8.12,28.85C127.18,82.109,130.92,51.29,101.32,44.81z"/>
		<ellipse cx="55.87" cy="48.52" rx="7.45" ry="10.24"/>
		<path d="M57.57,34.15c0,0-1.02,2.39,1.01,5.12"/>
		<path d="M59.94,35.89c0,0-1.01,3.07,1.01,5.8"/>
		<path d="M49.78,35.55c0,0-1.01,3.07,1.02,5.81"/>
		<path d="M55.54,32.46c0,0-2.71,3.42,0.68,6.15"/>
		<path d="M52.49,33.81c0,0-2.37,2.75,0.68,5.14"/>
		<path d="M62.9,32.46c-1.67-2.15-4.27-3.53-7.19-3.53s-5.52,1.38-7.19,3.53c1.94-1.35,4.45-2.17,7.19-2.17
			C58.45,30.29,60.95,31.1,62.9,32.46z"/>
		<path d="M49.32,49.43c0-2.5,2-4.52,4.47-4.52c2.47,0,4.47,2.02,4.47,4.52c0,2.49-2,4.521-4.46,4.521
			C51.32,53.95,49.32,51.92,49.32,49.43z"/>
		<ellipse cx="55.28" cy="47.32" rx="1.79" ry="1.81"/>
		<ellipse cx="51.48" cy="52.11" rx="1.01" ry="1.02"/>
		<ellipse cx="77.359" cy="48.52" rx="7.451" ry="10.24"/>
		<path d="M79.061,34.15c0,0-1.021,2.39,1.01,5.12"/>
		<path d="M81.43,35.89c0,0-1.01,2.39,1.01,5.12"/>
		<path d="M71.27,35.55c0,0-1.01,2.39,1.01,5.12"/>
		<path d="M77.029,32.46c0,0-2.709,3.42,0.681,6.15"/>
		<path d="M73.98,33.81c0,0-2.371,3.07,0.68,5.46"/>
		<path d="M84.391,32.46c-1.67-2.15-4.271-3.53-7.19-3.53c-2.921,0-5.521,1.38-7.19,3.53c1.95-1.35,4.45-2.17,7.19-2.17
			C79.939,30.29,82.45,31.1,84.391,32.46z"/>
		<ellipse cx="75.279" cy="49.43" rx="4.471" ry="4.52"/>
		<ellipse cx="76.77" cy="47.32" rx="1.791" ry="1.81"/>
		<ellipse cx="73.471" cy="52.45" rx="1.01" ry="1.02"/>
	</g>
	<g id="cry" display="inline">
		<path d="M68.15,73.17c-0.4-0.4-0.791-0.89-1.2-1.42l0,0c-0.8-1.061-1.64-2.3-2.36-3.12l0,0c-0.41-0.489-0.83-0.8-0.94-0.84l0,0
			c-0.01,0-0.04,0.01-0.07,0.03l0,0c-0.08,0.039-0.22,0.119-0.37,0.24l0,0c-0.31,0.25-0.7,0.649-1.11,1.109l0,0
			c-0.83,0.93-1.75,2.1-2.71,2.95l0,0c-0.64,0.55-1.3,1.06-2.27,1.05l0,0c-0.07,0-0.13-0.01-0.2-0.02l0,0
			c-0.71-0.101-1.22-0.61-1.48-1.09l0,0c-0.28-0.48-0.43-1-0.57-1.53l0,0c-0.26-1.04-0.48-2.15-0.82-2.681l0,0
			c-0.25-0.359-0.35-0.439-0.7-0.47l0,0c0,0-0.01,0-0.04,0l0,0c-0.88-0.03-2.1,0.54-3.13,1.261l0,0
			c-1.04,0.709-1.89,1.529-2.21,1.84l0,0c-0.09,0.09-0.13,0.129-0.13,0.129l0,0l0,0C47.49,70.99,46.9,71,46.52,70.65l0,0
			c-0.37-0.351-0.39-0.94-0.04-1.32l0,0c0.02-0.02,0.89-0.95,2.15-1.891l0,0c1.27-0.93,2.9-1.93,4.69-1.93l0,0c0.03,0,0.07,0,0.12,0
			l0,0c0.65,0.03,1.24,0.301,1.65,0.69l0,0c0.42,0.39,0.68,0.87,0.87,1.34l0,0c0.38,0.95,0.55,1.979,0.76,2.75l0,0
			c0.14,0.51,0.32,0.88,0.41,0.97l0,0c0.06,0.051,0.04,0.04,0.05,0.04l0,0c0.01,0,0.01,0,0.01,0l0,0c0.01,0.011,0.25-0.04,0.58-0.29
			l0,0c0.33-0.24,0.74-0.64,1.16-1.09l0,0c0.85-0.92,1.75-2.08,2.64-2.93l0,0c0.61-0.54,1.18-1.07,2.14-1.07l0,0
			c0.69,0.061,1.14,0.4,1.57,0.77l0,0c0.43,0.381,0.83,0.86,1.24,1.371l0,0c0.811,1.029,1.621,2.229,2.311,3.09l0,0
			c0.34,0.439,0.689,0.779,0.88,0.92l0,0c0.021-0.021,0.05-0.051,0.069-0.08l0,0c0.191-0.19,0.441-0.551,0.701-0.99l0,0
			c0.539-0.87,1.129-2.04,1.789-3.03l0,0c0.451-0.659,0.891-1.27,1.5-1.7l0,0c0.351-0.239,0.791-0.43,1.311-0.41l0,0
			c0.74,0.051,1.46,0.33,2.26,0.701l0,0c0.801,0.369,1.641,0.84,2.41,1.299l0,0c1.55,0.931,2.83,1.83,2.84,1.841l0,0
			c0.42,0.3,0.52,0.88,0.23,1.3l0,0c-0.291,0.42-0.881,0.52-1.301,0.23l0,0c0,0-0.689-0.49-1.67-1.11l0,0
			c-0.97-0.62-2.229-1.37-3.289-1.86l0,0c-0.69-0.33-1.33-0.529-1.57-0.529l0,0l0,0c-0.01,0-0.02,0.01-0.051,0.02l0,0
			c-0.049,0.02-0.14,0.08-0.25,0.17l0,0c-0.219,0.189-0.5,0.53-0.779,0.95l0,0c-0.57,0.85-1.17,1.989-1.75,2.97l0,0
			c-0.4,0.65-0.77,1.23-1.27,1.68l0,0c-0.281,0.24-0.681,0.5-1.221,0.48l0,0C68.96,73.93,68.57,73.55,68.15,73.17L68.15,73.17z"/>
	</g>
</g>
<g id="Layer_2">
	<path fill="#55C2C2" d="M63.814,0.918c-24.097,0-43.631,19.534-43.631,43.631c0,24.098,19.535,43.632,43.631,43.632
		s43.63-19.534,43.63-43.632C107.444,20.453,87.912,0.918,63.814,0.918z M75.983,24.184c3.146,0,5.698,2.882,5.698,6.439
		c0,3.558-2.552,6.442-5.698,6.442c-3.148,0-5.698-2.884-5.698-6.442C70.285,27.066,72.835,24.184,75.983,24.184z M50.457,24.184
		c3.147,0,5.699,2.882,5.699,6.439c0,3.558-2.551,6.442-5.699,6.442c-3.147,0-5.698-2.884-5.698-6.442
		C44.759,27.066,47.31,24.184,50.457,24.184z M90.375,70.375c-9.125,4.125-13.256,3.27-27.08,3.27
		c-13.8,0-14.549,3.092-25.045-3.145c-0.113-0.526,1.812-4.879,1.812-4.879c6.688,7.754,10.614,3.807,23.233,3.807
		c12.621,0,18.362,3.757,26.41-3.921C89.705,65.507,90.482,69.871,90.375,70.375z"/>
</g>
</svg>
